<?xml version="1.0" encoding="UTF-8" standalone="no"?>
<!DOCTYPE svg PUBLIC "-//W3C//DTD SVG 1.1//EN"
 "http://www.w3.org/Graphics/SVG/1.1/DTD/svg11.dtd">
<!-- Generated by graphviz version 2.40.1 (0)
 -->
<!-- Title: sys/include/ztimer64/xtimer_compat.h Pages: 1 -->
<svg width="1468pt" height="655pt"
 viewBox="0.00 0.00 1467.50 655.00" xmlns="http://www.w3.org/2000/svg" xmlns:xlink="http://www.w3.org/1999/xlink">
<g id="graph0" class="graph" transform="scale(1 1) rotate(0) translate(4 651)">
<title>sys/include/ztimer64/xtimer_compat.h</title>
<polygon fill="#ffffff" stroke="transparent" points="-4,4 -4,-651 1463.5,-651 1463.5,4 -4,4"/>
<!-- Node0 -->
<g id="node1" class="node">
<title>Node0</title>
<polygon fill="#bfbfbf" stroke="#000000" points="1139.5,-616.5 1139.5,-646.5 1252.5,-646.5 1252.5,-616.5 1139.5,-616.5"/>
<text text-anchor="start" x="1147.5" y="-634.5" font-family="Helvetica,sans-Serif" font-size="10.00" fill="#000000">sys/include/ztimer64</text>
<text text-anchor="middle" x="1196" y="-623.5" font-family="Helvetica,sans-Serif" font-size="10.00" fill="#000000">/xtimer_compat.h</text>
</g>
<!-- Node1 -->
<g id="node2" class="node">
<title>Node1</title>
<g id="a_node2"><a xlink:href="assert_8h.html" target="_top" xlink:title="POSIX.1&#45;2008 compliant version of the assert macro. ">
<polygon fill="#ffffff" stroke="#000000" points="1045,-56.5 1045,-75.5 1099,-75.5 1099,-56.5 1045,-56.5"/>
<text text-anchor="middle" x="1072" y="-63.5" font-family="Helvetica,sans-Serif" font-size="10.00" fill="#000000">assert.h</text>
</a>
</g>
</g>
<!-- Node0&#45;&gt;Node1 -->
<g id="edge1" class="edge">
<title>Node0&#45;&gt;Node1</title>
<path fill="none" stroke="#191970" d="M1223.8503,-616.4408C1255.2562,-597.1949 1302,-560.705 1302,-514 1302,-514 1302,-514 1302,-346 1302,-226.3751 1256.6597,-193.3996 1169,-112 1151.9418,-96.16 1128.4394,-84.8267 1108.8413,-77.3731"/>
<polygon fill="#191970" stroke="#191970" points="1109.8865,-74.0294 1099.2922,-73.9244 1107.5087,-80.6132 1109.8865,-74.0294"/>
</g>
<!-- Node2 -->
<g id="node3" class="node">
<title>Node2</title>
<polygon fill="#ffffff" stroke="#bfbfbf" points="839,-.5 839,-19.5 891,-19.5 891,-.5 839,-.5"/>
<text text-anchor="middle" x="865" y="-7.5" font-family="Helvetica,sans-Serif" font-size="10.00" fill="#000000">stdint.h</text>
</g>
<!-- Node0&#45;&gt;Node2 -->
<g id="edge4" class="edge">
<title>Node0&#45;&gt;Node2</title>
<path fill="none" stroke="#191970" d="M1252.5883,-619.9824C1306.0148,-605.415 1378,-574.5522 1378,-514 1378,-514 1378,-514 1378,-122 1378,-82.9495 1354.7221,-73.8694 1320,-56 1283.0536,-36.9859 1002.2741,-18.3088 901.1519,-12.1323"/>
<polygon fill="#191970" stroke="#191970" points="901.3031,-8.6351 891.1097,-11.524 900.8798,-15.6223 901.3031,-8.6351"/>
</g>
<!-- Node3 -->
<g id="node4" class="node">
<title>Node3</title>
<polygon fill="#ffffff" stroke="#bfbfbf" points="1100,-112.5 1100,-131.5 1160,-131.5 1160,-112.5 1100,-112.5"/>
<text text-anchor="middle" x="1130" y="-119.5" font-family="Helvetica,sans-Serif" font-size="10.00" fill="#000000">stdbool.h</text>
</g>
<!-- Node0&#45;&gt;Node3 -->
<g id="edge3" class="edge">
<title>Node0&#45;&gt;Node3</title>
<path fill="none" stroke="#191970" d="M1211.5396,-616.356C1231.332,-595.368 1263,-555.3294 1263,-514 1263,-514 1263,-514 1263,-402 1263,-293.2489 1180.1275,-181.7186 1145.2163,-139.5597"/>
<polygon fill="#191970" stroke="#191970" points="1147.8467,-137.2497 1138.7265,-131.8577 1142.4936,-141.7602 1147.8467,-137.2497"/>
</g>
<!-- Node4 -->
<g id="node5" class="node">
<title>Node4</title>
<polygon fill="#ffffff" stroke="#bfbfbf" points="1406.5,-560.5 1406.5,-579.5 1459.5,-579.5 1459.5,-560.5 1406.5,-560.5"/>
<text text-anchor="middle" x="1433" y="-567.5" font-family="Helvetica,sans-Serif" font-size="10.00" fill="#000000">board.h</text>
</g>
<!-- Node0&#45;&gt;Node4 -->
<g id="edge5" class="edge">
<title>Node0&#45;&gt;Node4</title>
<path fill="none" stroke="#191970" d="M1252.7674,-616.7692C1297.3939,-605.1889 1358.2264,-589.4033 1396.5567,-579.4568"/>
<polygon fill="#191970" stroke="#191970" points="1397.4654,-582.837 1406.2657,-576.9374 1395.7072,-576.0614 1397.4654,-582.837"/>
</g>
<!-- Node5 -->
<g id="node6" class="node">
<title>Node5</title>
<g id="a_node6"><a xlink:href="div_8h.html" target="_top" xlink:title="div.h">
<polygon fill="#ffffff" stroke="#000000" points="1312,-112.5 1312,-131.5 1350,-131.5 1350,-112.5 1312,-112.5"/>
<text text-anchor="middle" x="1331" y="-119.5" font-family="Helvetica,sans-Serif" font-size="10.00" fill="#000000">div.h</text>
</a>
</g>
</g>
<!-- Node0&#45;&gt;Node5 -->
<g id="edge6" class="edge">
<title>Node0&#45;&gt;Node5</title>
<path fill="none" stroke="#191970" d="M1252.7798,-617.7171C1274.9767,-609.8534 1299.106,-597.8787 1316,-580 1337.437,-557.3135 1340,-545.2125 1340,-514 1340,-514 1340,-514 1340,-234 1340,-201.6075 1336.2133,-164.1141 1333.5523,-141.7662"/>
<polygon fill="#191970" stroke="#191970" points="1336.9919,-141.0616 1332.2895,-131.5676 1330.045,-141.9219 1336.9919,-141.0616"/>
</g>
<!-- Node6 -->
<g id="node7" class="node">
<title>Node6</title>
<g id="a_node7"><a xlink:href="timex_8h.html" target="_top" xlink:title="Utility library for comparing and computing timestamps. ">
<polygon fill="#ffffff" stroke="#000000" points="60,-224.5 60,-243.5 112,-243.5 112,-224.5 60,-224.5"/>
<text text-anchor="middle" x="86" y="-231.5" font-family="Helvetica,sans-Serif" font-size="10.00" fill="#000000">timex.h</text>
</a>
</g>
</g>
<!-- Node0&#45;&gt;Node6 -->
<g id="edge9" class="edge">
<title>Node0&#45;&gt;Node6</title>
<path fill="none" stroke="#191970" d="M1139.455,-628.4711C914.3417,-616.0457 94,-567.1215 94,-514 94,-514 94,-514 94,-346 94,-313.6293 90.634,-276.1294 88.2687,-253.7743"/>
<polygon fill="#191970" stroke="#191970" points="91.719,-253.1291 87.1462,-243.5719 84.761,-253.8948 91.719,-253.1291"/>
</g>
<!-- Node9 -->
<g id="node10" class="node">
<title>Node9</title>
<g id="a_node10"><a xlink:href="mutex_8h.html" target="_top" xlink:title="Mutex for thread synchronization. ">
<polygon fill="#ffffff" stroke="#000000" points="472,-392.5 472,-411.5 528,-411.5 528,-392.5 472,-392.5"/>
<text text-anchor="middle" x="500" y="-399.5" font-family="Helvetica,sans-Serif" font-size="10.00" fill="#000000">mutex.h</text>
</a>
</g>
</g>
<!-- Node0&#45;&gt;Node9 -->
<g id="edge13" class="edge">
<title>Node0&#45;&gt;Node9</title>
<path fill="none" stroke="#191970" d="M1139.2719,-629.3409C1028.3706,-623.4617 776.6649,-601.9015 582,-524 540.3427,-507.3295 519.1718,-507.5599 498,-468 490.4026,-453.8042 491.7438,-435.3185 494.5022,-421.5234"/>
<polygon fill="#191970" stroke="#191970" points="497.9445,-422.1777 496.8746,-411.6371 491.1377,-420.5443 497.9445,-422.1777"/>
</g>
<!-- Node24 -->
<g id="node25" class="node">
<title>Node24</title>
<g id="a_node25"><a xlink:href="sched_8h.html" target="_top" xlink:title="Scheduler API definition. ">
<polygon fill="#ffffff" stroke="#000000" points="625.5,-224.5 625.5,-243.5 678.5,-243.5 678.5,-224.5 625.5,-224.5"/>
<text text-anchor="middle" x="652" y="-231.5" font-family="Helvetica,sans-Serif" font-size="10.00" fill="#000000">sched.h</text>
</a>
</g>
</g>
<!-- Node0&#45;&gt;Node24 -->
<g id="edge54" class="edge">
<title>Node0&#45;&gt;Node24</title>
<path fill="none" stroke="#191970" d="M1139.3643,-629.2591C955.3321,-621.2335 386,-590.2439 386,-514 386,-514 386,-514 386,-402 386,-295.0175 541.7131,-253.3958 614.8651,-239.7453"/>
<polygon fill="#191970" stroke="#191970" points="615.8018,-243.1335 625.0307,-237.9298 614.571,-236.2425 615.8018,-243.1335"/>
</g>
<!-- Node29 -->
<g id="node30" class="node">
<title>Node29</title>
<g id="a_node30"><a xlink:href="ztimer_8h.html" target="_top" xlink:title="ztimer API ">
<polygon fill="#ffffff" stroke="#000000" points="995.5,-504.5 995.5,-523.5 1050.5,-523.5 1050.5,-504.5 995.5,-504.5"/>
<text text-anchor="middle" x="1023" y="-511.5" font-family="Helvetica,sans-Serif" font-size="10.00" fill="#000000">ztimer.h</text>
</a>
</g>
</g>
<!-- Node0&#45;&gt;Node29 -->
<g id="edge55" class="edge">
<title>Node0&#45;&gt;Node29</title>
<path fill="none" stroke="#191970" d="M1141.768,-616.4819C1118.4089,-608.2448 1091.7556,-596.3226 1071,-580 1054.7123,-567.191 1041.3687,-547.4768 1032.9213,-532.9276"/>
<polygon fill="#191970" stroke="#191970" points="1035.7876,-530.879 1027.8792,-523.8286 1029.6648,-534.2719 1035.7876,-530.879"/>
</g>
<!-- Node33 -->
<g id="node34" class="node">
<title>Node33</title>
<g id="a_node34"><a xlink:href="ztimer64_8h.html" target="_top" xlink:title="ztimer 64bit API ">
<polygon fill="#ffffff" stroke="#000000" points="1080,-560.5 1080,-579.5 1148,-579.5 1148,-560.5 1080,-560.5"/>
<text text-anchor="middle" x="1114" y="-567.5" font-family="Helvetica,sans-Serif" font-size="10.00" fill="#000000">ztimer64.h</text>
</a>
</g>
</g>
<!-- Node0&#45;&gt;Node33 -->
<g id="edge68" class="edge">
<title>Node0&#45;&gt;Node33</title>
<path fill="none" stroke="#191970" d="M1175.7303,-616.2977C1163.3994,-607.0495 1147.6734,-595.2551 1135.1803,-585.8853"/>
<polygon fill="#191970" stroke="#191970" points="1137.2293,-583.047 1127.1292,-579.8469 1133.0292,-588.647 1137.2293,-583.047"/>
</g>
<!-- Node1&#45;&gt;Node2 -->
<g id="edge2" class="edge">
<title>Node1&#45;&gt;Node2</title>
<path fill="none" stroke="#191970" d="M1044.9384,-58.679C1008.0632,-48.7031 941.9399,-30.8147 900.9386,-19.7225"/>
<polygon fill="#191970" stroke="#191970" points="901.6559,-16.2908 891.0889,-17.0579 899.8279,-23.0479 901.6559,-16.2908"/>
</g>
<!-- Node5&#45;&gt;Node1 -->
<g id="edge7" class="edge">
<title>Node5&#45;&gt;Node1</title>
<path fill="none" stroke="#191970" d="M1311.9551,-117.8822C1269.1741,-108.6322 1164.8349,-86.0724 1108.8823,-73.9745"/>
<polygon fill="#191970" stroke="#191970" points="1109.5373,-70.5354 1099.0235,-71.8429 1108.058,-77.3773 1109.5373,-70.5354"/>
</g>
<!-- Node5&#45;&gt;Node2 -->
<g id="edge8" class="edge">
<title>Node5&#45;&gt;Node2</title>
<path fill="none" stroke="#191970" d="M1329.2334,-112.4629C1325.9423,-97.6533 1317.3679,-69.4357 1298,-56 1265.675,-33.5758 999.6184,-17.2044 901.3188,-11.8692"/>
<polygon fill="#191970" stroke="#191970" points="901.4341,-8.3705 891.2611,-11.3302 901.0594,-15.3604 901.4341,-8.3705"/>
</g>
<!-- Node6&#45;&gt;Node2 -->
<g id="edge10" class="edge">
<title>Node6&#45;&gt;Node2</title>
<path fill="none" stroke="#191970" d="M86.6813,-224.4176C89.291,-190.6898 99.848,-78.2952 126,-56 153.02,-32.9648 683.9892,-15.4235 828.7937,-11.0543"/>
<polygon fill="#191970" stroke="#191970" points="829.0347,-14.5487 838.9255,-10.7511 828.8253,-7.5518 829.0347,-14.5487"/>
</g>
<!-- Node7 -->
<g id="node8" class="node">
<title>Node7</title>
<g id="a_node8"><a xlink:href="inttypes_8h.html" target="_top" xlink:title="Adds include for missing inttype definitions. ">
<polygon fill="#ffffff" stroke="#000000" points="206.5,-168.5 206.5,-187.5 269.5,-187.5 269.5,-168.5 206.5,-168.5"/>
<text text-anchor="middle" x="238" y="-175.5" font-family="Helvetica,sans-Serif" font-size="10.00" fill="#000000">inttypes.h</text>
</a>
</g>
</g>
<!-- Node6&#45;&gt;Node7 -->
<g id="edge11" class="edge">
<title>Node6&#45;&gt;Node7</title>
<path fill="none" stroke="#191970" d="M112.1297,-224.3733C137.0768,-215.1822 174.8592,-201.2624 202.5206,-191.0713"/>
<polygon fill="#191970" stroke="#191970" points="204.0378,-194.2424 212.2112,-187.5011 201.6178,-187.674 204.0378,-194.2424"/>
</g>
<!-- Node8 -->
<g id="node9" class="node">
<title>Node8</title>
<g id="a_node9"><a xlink:href="time__units_8h.html" target="_top" xlink:title="Utility header providing time unit defines. ">
<polygon fill="#ffffff" stroke="#000000" points="0,-168.5 0,-187.5 74,-187.5 74,-168.5 0,-168.5"/>
<text text-anchor="middle" x="37" y="-175.5" font-family="Helvetica,sans-Serif" font-size="10.00" fill="#000000">time_units.h</text>
</a>
</g>
</g>
<!-- Node6&#45;&gt;Node8 -->
<g id="edge12" class="edge">
<title>Node6&#45;&gt;Node8</title>
<path fill="none" stroke="#191970" d="M77.4649,-224.2455C70.5088,-216.2958 60.5117,-204.8706 52.1949,-195.3656"/>
<polygon fill="#191970" stroke="#191970" points="54.6564,-192.8637 45.4373,-187.6427 49.3884,-197.4732 54.6564,-192.8637"/>
</g>
<!-- Node9&#45;&gt;Node2 -->
<g id="edge15" class="edge">
<title>Node9&#45;&gt;Node2</title>
<path fill="none" stroke="#191970" d="M471.9879,-398.3934C393.6473,-387.5309 178,-351.9993 178,-290 178,-290 178,-290 178,-122 178,-55.4559 686.5748,-20.5088 828.5716,-12.0482"/>
<polygon fill="#191970" stroke="#191970" points="829.1303,-15.5215 838.9077,-11.4408 828.7195,-8.5336 829.1303,-15.5215"/>
</g>
<!-- Node9&#45;&gt;Node3 -->
<g id="edge16" class="edge">
<title>Node9&#45;&gt;Node3</title>
<path fill="none" stroke="#191970" d="M528.2205,-401.3669C633.9582,-398.7596 1002.7354,-387.4659 1044,-356 1113.485,-303.0149 1126.8607,-188.0664 1129.4107,-141.8414"/>
<polygon fill="#191970" stroke="#191970" points="1132.9161,-141.7919 1129.8534,-131.6495 1125.9227,-141.4881 1132.9161,-141.7919"/>
</g>
<!-- Node10 -->
<g id="node11" class="node">
<title>Node10</title>
<polygon fill="#ffffff" stroke="#bfbfbf" points="714,-56.5 714,-75.5 770,-75.5 770,-56.5 714,-56.5"/>
<text text-anchor="middle" x="742" y="-63.5" font-family="Helvetica,sans-Serif" font-size="10.00" fill="#000000">stddef.h</text>
</g>
<!-- Node9&#45;&gt;Node10 -->
<g id="edge14" class="edge">
<title>Node9&#45;&gt;Node10</title>
<path fill="none" stroke="#191970" d="M498.7121,-392.4866C493.7982,-351.8784 480.4258,-191.516 563,-112 582.9831,-92.757 657.6419,-78.5221 703.9946,-71.3095"/>
<polygon fill="#191970" stroke="#191970" points="704.6274,-74.7536 713.9899,-69.7944 703.5783,-67.8327 704.6274,-74.7536"/>
</g>
<!-- Node11 -->
<g id="node12" class="node">
<title>Node11</title>
<g id="a_node12"><a xlink:href="architecture_8h.html" target="_top" xlink:title="Platform&#45;independent access to architecture details. ">
<polygon fill="#ffffff" stroke="#000000" points="338.5,-224.5 338.5,-243.5 421.5,-243.5 421.5,-224.5 338.5,-224.5"/>
<text text-anchor="middle" x="380" y="-231.5" font-family="Helvetica,sans-Serif" font-size="10.00" fill="#000000">architecture.h</text>
</a>
</g>
</g>
<!-- Node9&#45;&gt;Node11 -->
<g id="edge17" class="edge">
<title>Node9&#45;&gt;Node11</title>
<path fill="none" stroke="#191970" d="M486.913,-392.4604C475.6633,-383.8147 459.4846,-370.2743 448,-356 421.3993,-322.9377 399.3903,-278.0671 388.1258,-252.9824"/>
<polygon fill="#191970" stroke="#191970" points="391.2017,-251.282 383.974,-243.5353 384.7932,-254.0984 391.2017,-251.282"/>
</g>
<!-- Node14 -->
<g id="node15" class="node">
<title>Node14</title>
<g id="a_node15"><a xlink:href="kernel__defines_8h.html" target="_top" xlink:title="Common macros and compiler attributes/pragmas configuration. ">
<polygon fill="#ffffff" stroke="#000000" points="558.5,-168.5 558.5,-187.5 653.5,-187.5 653.5,-168.5 558.5,-168.5"/>
<text text-anchor="middle" x="606" y="-175.5" font-family="Helvetica,sans-Serif" font-size="10.00" fill="#000000">kernel_defines.h</text>
</a>
</g>
</g>
<!-- Node9&#45;&gt;Node14 -->
<g id="edge22" class="edge">
<title>Node9&#45;&gt;Node14</title>
<path fill="none" stroke="#191970" d="M500.5008,-392.3876C502.4554,-363.7108 511.7303,-277.4439 554,-224 562.7622,-212.9215 574.3988,-202.3464 584.4422,-194.1354"/>
<polygon fill="#191970" stroke="#191970" points="586.7349,-196.7845 592.4058,-187.835 582.3917,-191.2948 586.7349,-196.7845"/>
</g>
<!-- Node19 -->
<g id="node20" class="node">
<title>Node19</title>
<g id="a_node20"><a xlink:href="list_8h.html" target="_top" xlink:title="Intrusive linked list. ">
<polygon fill="#ffffff" stroke="#000000" points="930,-112.5 930,-131.5 968,-131.5 968,-112.5 930,-112.5"/>
<text text-anchor="middle" x="949" y="-119.5" font-family="Helvetica,sans-Serif" font-size="10.00" fill="#000000">list.h</text>
</a>
</g>
</g>
<!-- Node9&#45;&gt;Node19 -->
<g id="edge32" class="edge">
<title>Node9&#45;&gt;Node19</title>
<path fill="none" stroke="#191970" d="M504.0884,-392.1473C516.7108,-362.7993 557.816,-274.8513 617,-224 721.56,-134.1613 782.0419,-167.8491 919.7871,-131.9701"/>
<polygon fill="#191970" stroke="#191970" points="921.0935,-135.2431 929.8399,-129.264 919.2738,-128.4837 921.0935,-135.2431"/>
</g>
<!-- Node20 -->
<g id="node21" class="node">
<title>Node20</title>
<g id="a_node21"><a xlink:href="core_2include_2thread_8h.html" target="_top" xlink:title="Threading API. ">
<polygon fill="#ffffff" stroke="#000000" points="796.5,-336.5 796.5,-355.5 853.5,-355.5 853.5,-336.5 796.5,-336.5"/>
<text text-anchor="middle" x="825" y="-343.5" font-family="Helvetica,sans-Serif" font-size="10.00" fill="#000000">thread.h</text>
</a>
</g>
</g>
<!-- Node9&#45;&gt;Node20 -->
<g id="edge33" class="edge">
<title>Node9&#45;&gt;Node20</title>
<path fill="none" stroke="#191970" d="M528.2731,-397.1283C586.4702,-387.1005 719.7418,-364.1368 786.0496,-352.7115"/>
<polygon fill="#191970" stroke="#191970" points="786.8344,-356.1279 796.0948,-350.9806 785.6457,-349.2295 786.8344,-356.1279"/>
</g>
<!-- Node11&#45;&gt;Node2 -->
<g id="edge18" class="edge">
<title>Node11&#45;&gt;Node2</title>
<path fill="none" stroke="#191970" d="M359.16,-224.4803C336.3109,-212.6255 304.5602,-191.1009 318,-168 368.6476,-80.9447 419.518,-88.0468 515,-56 572.6415,-36.6537 751.1866,-19.6632 828.5912,-12.9986"/>
<polygon fill="#191970" stroke="#191970" points="829.152,-16.4636 838.8189,-12.1275 828.558,-9.4888 829.152,-16.4636"/>
</g>
<!-- Node11&#45;&gt;Node7 -->
<g id="edge19" class="edge">
<title>Node11&#45;&gt;Node7</title>
<path fill="none" stroke="#191970" d="M355.5893,-224.3733C332.3858,-215.2226 297.2962,-201.3844 271.4858,-191.2057"/>
<polygon fill="#191970" stroke="#191970" points="272.6789,-187.9139 262.0921,-187.5011 270.1108,-194.4258 272.6789,-187.9139"/>
</g>
<!-- Node12 -->
<g id="node13" class="node">
<title>Node12</title>
<polygon fill="#ffffff" stroke="#bfbfbf" points="452,-168.5 452,-187.5 502,-187.5 502,-168.5 452,-168.5"/>
<text text-anchor="middle" x="477" y="-175.5" font-family="Helvetica,sans-Serif" font-size="10.00" fill="#000000">limits.h</text>
</g>
<!-- Node11&#45;&gt;Node12 -->
<g id="edge20" class="edge">
<title>Node11&#45;&gt;Node12</title>
<path fill="none" stroke="#191970" d="M396.8961,-224.2455C411.918,-215.5731 434.1043,-202.7645 451.321,-192.825"/>
<polygon fill="#191970" stroke="#191970" points="453.3871,-195.6737 460.2975,-187.6427 449.8872,-189.6114 453.3871,-195.6737"/>
</g>
<!-- Node13 -->
<g id="node14" class="node">
<title>Node13</title>
<polygon fill="#ffffff" stroke="#bfbfbf" points="326.5,-168.5 326.5,-187.5 433.5,-187.5 433.5,-168.5 326.5,-168.5"/>
<text text-anchor="middle" x="380" y="-175.5" font-family="Helvetica,sans-Serif" font-size="10.00" fill="#000000">architecture_arch.h</text>
</g>
<!-- Node11&#45;&gt;Node13 -->
<g id="edge21" class="edge">
<title>Node11&#45;&gt;Node13</title>
<path fill="none" stroke="#191970" d="M380,-224.2455C380,-216.9382 380,-206.6944 380,-197.7046"/>
<polygon fill="#191970" stroke="#191970" points="383.5001,-197.6426 380,-187.6427 376.5001,-197.6427 383.5001,-197.6426"/>
</g>
<!-- Node15 -->
<g id="node16" class="node">
<title>Node15</title>
<g id="a_node16"><a xlink:href="modules_8h.html" target="_top" xlink:title="Common macros and compiler attributes/pragmas configuration. ">
<polygon fill="#ffffff" stroke="#000000" points="658.5,-112.5 658.5,-131.5 723.5,-131.5 723.5,-112.5 658.5,-112.5"/>
<text text-anchor="middle" x="691" y="-119.5" font-family="Helvetica,sans-Serif" font-size="10.00" fill="#000000">modules.h</text>
</a>
</g>
</g>
<!-- Node14&#45;&gt;Node15 -->
<g id="edge23" class="edge">
<title>Node14&#45;&gt;Node15</title>
<path fill="none" stroke="#191970" d="M620.8059,-168.2455C633.7256,-159.7337 652.6931,-147.2375 667.6552,-137.3801"/>
<polygon fill="#191970" stroke="#191970" points="669.9387,-140.067 676.3638,-131.6427 666.0876,-134.2216 669.9387,-140.067"/>
</g>
<!-- Node16 -->
<g id="node17" class="node">
<title>Node16</title>
<g id="a_node17"><a xlink:href="riot__version_8h.html" target="_top" xlink:title="Common macros and compiler attributes/pragmas configuration. ">
<polygon fill="#ffffff" stroke="#000000" points="523.5,-56.5 523.5,-75.5 604.5,-75.5 604.5,-56.5 523.5,-56.5"/>
<text text-anchor="middle" x="564" y="-63.5" font-family="Helvetica,sans-Serif" font-size="10.00" fill="#000000">riot_version.h</text>
</a>
</g>
</g>
<!-- Node14&#45;&gt;Node16 -->
<g id="edge24" class="edge">
<title>Node14&#45;&gt;Node16</title>
<path fill="none" stroke="#191970" d="M592.669,-168.3825C582.3827,-160.0729 568.9389,-147.0499 563,-132 557.2162,-117.3429 557.9339,-99.3906 559.8377,-85.9113"/>
<polygon fill="#191970" stroke="#191970" points="563.329,-86.2639 561.5991,-75.8112 556.433,-85.0612 563.329,-86.2639"/>
</g>
<!-- Node17 -->
<g id="node18" class="node">
<title>Node17</title>
<g id="a_node18"><a xlink:href="compiler__hints_8h.html" target="_top" xlink:title="Common macros and compiler attributes/pragmas configuration. ">
<polygon fill="#ffffff" stroke="#000000" points="818.5,-112.5 818.5,-131.5 911.5,-131.5 911.5,-112.5 818.5,-112.5"/>
<text text-anchor="middle" x="865" y="-119.5" font-family="Helvetica,sans-Serif" font-size="10.00" fill="#000000">compiler_hints.h</text>
</a>
</g>
</g>
<!-- Node14&#45;&gt;Node17 -->
<g id="edge26" class="edge">
<title>Node14&#45;&gt;Node17</title>
<path fill="none" stroke="#191970" d="M650.2294,-168.4369C694.7415,-158.8127 763.449,-143.957 811.1169,-133.6504"/>
<polygon fill="#191970" stroke="#191970" points="811.9186,-137.058 820.953,-131.5237 810.4392,-130.2161 811.9186,-137.058"/>
</g>
<!-- Node18 -->
<g id="node19" class="node">
<title>Node18</title>
<g id="a_node19"><a xlink:href="container_8h.html" target="_top" xlink:title="Common macros and compiler attributes/pragmas configuration. ">
<polygon fill="#ffffff" stroke="#000000" points="571.5,-112.5 571.5,-131.5 640.5,-131.5 640.5,-112.5 571.5,-112.5"/>
<text text-anchor="middle" x="606" y="-119.5" font-family="Helvetica,sans-Serif" font-size="10.00" fill="#000000">container.h</text>
</a>
</g>
</g>
<!-- Node14&#45;&gt;Node18 -->
<g id="edge29" class="edge">
<title>Node14&#45;&gt;Node18</title>
<path fill="none" stroke="#191970" d="M606,-168.2455C606,-160.9382 606,-150.6944 606,-141.7046"/>
<polygon fill="#191970" stroke="#191970" points="609.5001,-141.6426 606,-131.6427 602.5001,-141.6427 609.5001,-141.6426"/>
</g>
<!-- Node16&#45;&gt;Node2 -->
<g id="edge25" class="edge">
<title>Node16&#45;&gt;Node2</title>
<path fill="none" stroke="#191970" d="M604.5942,-58.4476C663.6612,-47.4584 772.3904,-27.2297 828.8459,-16.7263"/>
<polygon fill="#191970" stroke="#191970" points="829.5643,-20.1528 838.7554,-14.8827 828.2838,-13.2709 829.5643,-20.1528"/>
</g>
<!-- Node17&#45;&gt;Node1 -->
<g id="edge27" class="edge">
<title>Node17&#45;&gt;Node1</title>
<path fill="none" stroke="#191970" d="M900.5846,-112.3733C938.1482,-102.2111 997.0808,-86.268 1035.1252,-75.9758"/>
<polygon fill="#191970" stroke="#191970" points="1036.0548,-79.3502 1044.7938,-73.3601 1034.2267,-72.5931 1036.0548,-79.3502"/>
</g>
<!-- Node17&#45;&gt;Node2 -->
<g id="edge28" class="edge">
<title>Node17&#45;&gt;Node2</title>
<path fill="none" stroke="#191970" d="M865,-112.4509C865,-94.184 865,-53.9553 865,-29.6976"/>
<polygon fill="#191970" stroke="#191970" points="868.5001,-29.5249 865,-19.5249 861.5001,-29.5249 868.5001,-29.5249"/>
</g>
<!-- Node18&#45;&gt;Node2 -->
<g id="edge31" class="edge">
<title>Node18&#45;&gt;Node2</title>
<path fill="none" stroke="#191970" d="M617.778,-112.3729C635.6339,-98.2047 671.0771,-71.7213 705,-56 745.5817,-37.1927 795.5674,-24.3141 828.7582,-17.069"/>
<polygon fill="#191970" stroke="#191970" points="829.8556,-20.4141 838.9111,-14.9142 828.4023,-13.5666 829.8556,-20.4141"/>
</g>
<!-- Node18&#45;&gt;Node10 -->
<g id="edge30" class="edge">
<title>Node18&#45;&gt;Node10</title>
<path fill="none" stroke="#191970" d="M629.3792,-112.3733C651.5045,-103.2629 684.9134,-89.5062 709.6019,-79.3404"/>
<polygon fill="#191970" stroke="#191970" points="711.0117,-82.5451 718.9258,-75.5011 708.3464,-76.0723 711.0117,-82.5451"/>
</g>
<!-- Node21 -->
<g id="node22" class="node">
<title>Node21</title>
<g id="a_node22"><a xlink:href="clist_8h.html" target="_top" xlink:title="Circular linked list. ">
<polygon fill="#ffffff" stroke="#000000" points="852.5,-168.5 852.5,-187.5 895.5,-187.5 895.5,-168.5 852.5,-168.5"/>
<text text-anchor="middle" x="874" y="-175.5" font-family="Helvetica,sans-Serif" font-size="10.00" fill="#000000">clist.h</text>
</a>
</g>
</g>
<!-- Node20&#45;&gt;Node21 -->
<g id="edge34" class="edge">
<title>Node20&#45;&gt;Node21</title>
<path fill="none" stroke="#191970" d="M842.9599,-336.3701C855.6324,-328.4681 871.6167,-315.9885 879,-300 890.4271,-275.2546 862.1458,-270.0108 854,-244 849.0386,-228.1576 855.3189,-210.1148 862.1187,-196.9027"/>
<polygon fill="#191970" stroke="#191970" points="865.3589,-198.2836 867.2422,-187.8575 859.2682,-194.8336 865.3589,-198.2836"/>
</g>
<!-- Node22 -->
<g id="node23" class="node">
<title>Node22</title>
<g id="a_node23"><a xlink:href="cib_8h.html" target="_top" xlink:title="Circular integer buffer interface. ">
<polygon fill="#ffffff" stroke="#000000" points="990,-280.5 990,-299.5 1028,-299.5 1028,-280.5 990,-280.5"/>
<text text-anchor="middle" x="1009" y="-287.5" font-family="Helvetica,sans-Serif" font-size="10.00" fill="#000000">cib.h</text>
</a>
</g>
</g>
<!-- Node20&#45;&gt;Node22 -->
<g id="edge38" class="edge">
<title>Node20&#45;&gt;Node22</title>
<path fill="none" stroke="#191970" d="M853.6148,-338.0845C883.1144,-329.8103 930.635,-316.1664 980.1707,-300.1535"/>
<polygon fill="#191970" stroke="#191970" points="981.3439,-303.4524 989.7692,-297.0287 979.1769,-296.7963 981.3439,-303.4524"/>
</g>
<!-- Node23 -->
<g id="node24" class="node">
<title>Node23</title>
<g id="a_node24"><a xlink:href="core_2include_2msg_8h.html" target="_top" xlink:title="Messaging API for inter process communication. ">
<polygon fill="#ffffff" stroke="#000000" points="926.5,-280.5 926.5,-299.5 971.5,-299.5 971.5,-280.5 926.5,-280.5"/>
<text text-anchor="middle" x="949" y="-287.5" font-family="Helvetica,sans-Serif" font-size="10.00" fill="#000000">msg.h</text>
</a>
</g>
</g>
<!-- Node20&#45;&gt;Node23 -->
<g id="edge40" class="edge">
<title>Node20&#45;&gt;Node23</title>
<path fill="none" stroke="#191970" d="M846.3164,-336.3733C866.2216,-327.3838 896.1436,-313.8706 918.56,-303.7471"/>
<polygon fill="#191970" stroke="#191970" points="920.2887,-306.8068 927.9618,-299.5011 917.4075,-300.4272 920.2887,-306.8068"/>
</g>
<!-- Node20&#45;&gt;Node24 -->
<g id="edge49" class="edge">
<title>Node20&#45;&gt;Node24</title>
<path fill="none" stroke="#191970" d="M796.3531,-340.8353C756.8615,-333.1655 688.5707,-317.7467 671,-300 658.9667,-287.8462 654.4532,-268.592 652.8104,-254.0098"/>
<polygon fill="#191970" stroke="#191970" points="656.2944,-253.666 652.0368,-243.9643 649.315,-254.2035 656.2944,-253.666"/>
</g>
<!-- Node26 -->
<g id="node27" class="node">
<title>Node26</title>
<g id="a_node27"><a xlink:href="thread__config_8h.html" target="_top" xlink:title="Thread configuration defines. ">
<polygon fill="#ffffff" stroke="#000000" points="780,-280.5 780,-299.5 870,-299.5 870,-280.5 780,-280.5"/>
<text text-anchor="middle" x="825" y="-287.5" font-family="Helvetica,sans-Serif" font-size="10.00" fill="#000000">thread_config.h</text>
</a>
</g>
</g>
<!-- Node20&#45;&gt;Node26 -->
<g id="edge50" class="edge">
<title>Node20&#45;&gt;Node26</title>
<path fill="none" stroke="#191970" d="M825,-336.2455C825,-328.9382 825,-318.6944 825,-309.7046"/>
<polygon fill="#191970" stroke="#191970" points="828.5001,-309.6426 825,-299.6427 821.5001,-309.6427 828.5001,-309.6426"/>
</g>
<!-- Node28 -->
<g id="node29" class="node">
<title>Node28</title>
<polygon fill="#ffffff" stroke="#bfbfbf" points="680,-280.5 680,-299.5 762,-299.5 762,-280.5 680,-280.5"/>
<text text-anchor="middle" x="721" y="-287.5" font-family="Helvetica,sans-Serif" font-size="10.00" fill="#000000">thread_arch.h</text>
</g>
<!-- Node20&#45;&gt;Node28 -->
<g id="edge53" class="edge">
<title>Node20&#45;&gt;Node28</title>
<path fill="none" stroke="#191970" d="M806.8846,-336.2455C790.555,-327.4527 766.329,-314.4079 747.7661,-304.4125"/>
<polygon fill="#191970" stroke="#191970" points="749.3719,-301.3021 738.9078,-299.6427 746.0532,-307.4654 749.3719,-301.3021"/>
</g>
<!-- Node21&#45;&gt;Node3 -->
<g id="edge35" class="edge">
<title>Node21&#45;&gt;Node3</title>
<path fill="none" stroke="#191970" d="M895.8264,-173.2255C938.7646,-163.8327 1034.7907,-142.827 1089.6077,-130.8358"/>
<polygon fill="#191970" stroke="#191970" points="1090.6466,-134.1914 1099.6677,-128.6352 1089.1507,-127.3531 1090.6466,-134.1914"/>
</g>
<!-- Node21&#45;&gt;Node10 -->
<g id="edge36" class="edge">
<title>Node21&#45;&gt;Node10</title>
<path fill="none" stroke="#191970" d="M859.3122,-168.3524C846.0376,-159.4234 826.1599,-145.5242 810,-132 791.4379,-116.4655 771.7517,-96.9875 758.3644,-83.2297"/>
<polygon fill="#191970" stroke="#191970" points="760.7252,-80.6356 751.2661,-75.8633 755.6846,-85.4928 760.7252,-80.6356"/>
</g>
<!-- Node21&#45;&gt;Node19 -->
<g id="edge37" class="edge">
<title>Node21&#45;&gt;Node19</title>
<path fill="none" stroke="#191970" d="M887.064,-168.2455C898.3562,-159.814 914.8845,-147.4729 928.0271,-137.6598"/>
<polygon fill="#191970" stroke="#191970" points="930.1669,-140.4301 936.0857,-131.6427 925.9789,-134.8211 930.1669,-140.4301"/>
</g>
<!-- Node22&#45;&gt;Node1 -->
<g id="edge39" class="edge">
<title>Node22&#45;&gt;Node1</title>
<path fill="none" stroke="#191970" d="M1011.707,-280.375C1021.279,-246.3415 1053.6451,-131.262 1066.5868,-85.247"/>
<polygon fill="#191970" stroke="#191970" points="1069.9648,-86.1633 1069.3031,-75.5891 1063.2262,-84.268 1069.9648,-86.1633"/>
</g>
<!-- Node23&#45;&gt;Node2 -->
<g id="edge41" class="edge">
<title>Node23&#45;&gt;Node2</title>
<path fill="none" stroke="#191970" d="M956.1383,-280.3839C969.2864,-261.6891 996,-218.6982 996,-178 996,-178 996,-178 996,-122 996,-71.6584 939.4202,-39.1118 900.6287,-22.7136"/>
<polygon fill="#191970" stroke="#191970" points="901.7775,-19.4027 891.195,-18.8914 899.1489,-25.8904 901.7775,-19.4027"/>
</g>
<!-- Node23&#45;&gt;Node3 -->
<g id="edge42" class="edge">
<title>Node23&#45;&gt;Node3</title>
<path fill="none" stroke="#191970" d="M963.0204,-280.3253C975.6869,-271.378 994.6418,-257.4672 1010,-244 1049.7639,-209.1321 1092.2502,-163.7657 1114.4461,-139.3607"/>
<polygon fill="#191970" stroke="#191970" points="1117.3033,-141.4194 1121.4132,-131.6541 1112.1107,-136.725 1117.3033,-141.4194"/>
</g>
<!-- Node23&#45;&gt;Node24 -->
<g id="edge43" class="edge">
<title>Node23&#45;&gt;Node24</title>
<path fill="none" stroke="#191970" d="M926.1881,-285.6988C875.0832,-276.0628 751.0295,-252.6722 688.833,-240.9449"/>
<polygon fill="#191970" stroke="#191970" points="689.1611,-237.4452 678.6857,-239.0316 687.864,-244.324 689.1611,-237.4452"/>
</g>
<!-- Node24&#45;&gt;Node7 -->
<g id="edge45" class="edge">
<title>Node24&#45;&gt;Node7</title>
<path fill="none" stroke="#191970" d="M625.4727,-230.4118C555.3173,-220.9221 364.4794,-195.1083 279.6303,-183.6311"/>
<polygon fill="#191970" stroke="#191970" points="279.9619,-180.1442 269.5829,-182.2721 279.0235,-187.081 279.9619,-180.1442"/>
</g>
<!-- Node24&#45;&gt;Node10 -->
<g id="edge44" class="edge">
<title>Node24&#45;&gt;Node10</title>
<path fill="none" stroke="#191970" d="M662.8641,-224.2408C680.833,-207.3913 716.4032,-170.8928 733,-132 739.241,-117.3749 741.3742,-99.4203 742.0118,-85.9319"/>
<polygon fill="#191970" stroke="#191970" points="745.5133,-85.9039 742.253,-75.8232 738.5153,-85.7369 745.5133,-85.9039"/>
</g>
<!-- Node24&#45;&gt;Node14 -->
<g id="edge46" class="edge">
<title>Node24&#45;&gt;Node14</title>
<path fill="none" stroke="#191970" d="M643.9874,-224.2455C637.5232,-216.3761 628.2615,-205.101 620.5017,-195.6542"/>
<polygon fill="#191970" stroke="#191970" points="622.9727,-193.1484 613.9208,-187.6427 617.5636,-197.5916 622.9727,-193.1484"/>
</g>
<!-- Node24&#45;&gt;Node21 -->
<g id="edge48" class="edge">
<title>Node24&#45;&gt;Node21</title>
<path fill="none" stroke="#191970" d="M678.7378,-228.2319C714.0146,-220.4769 778.2165,-205.8647 842.4884,-187.983"/>
<polygon fill="#191970" stroke="#191970" points="843.7022,-191.2775 852.3832,-185.2037 841.8093,-184.5383 843.7022,-191.2775"/>
</g>
<!-- Node25 -->
<g id="node26" class="node">
<title>Node25</title>
<g id="a_node26"><a xlink:href="native__sched_8h.html" target="_top" xlink:title="Add definitions required on the native board. ">
<polygon fill="#ffffff" stroke="#000000" points="748,-168.5 748,-187.5 834,-187.5 834,-168.5 748,-168.5"/>
<text text-anchor="middle" x="791" y="-175.5" font-family="Helvetica,sans-Serif" font-size="10.00" fill="#000000">native_sched.h</text>
</a>
</g>
</g>
<!-- Node24&#45;&gt;Node25 -->
<g id="edge47" class="edge">
<title>Node24&#45;&gt;Node25</title>
<path fill="none" stroke="#191970" d="M675.895,-224.3733C698.5082,-215.2629 732.6542,-201.5062 757.8873,-191.3404"/>
<polygon fill="#191970" stroke="#191970" points="759.4493,-194.4845 767.4169,-187.5011 756.8334,-187.9917 759.4493,-194.4845"/>
</g>
<!-- Node26&#45;&gt;Node24 -->
<g id="edge52" class="edge">
<title>Node26&#45;&gt;Node24</title>
<path fill="none" stroke="#191970" d="M795.2602,-280.3733C765.6212,-270.7791 720.0639,-256.0323 688.3073,-245.7527"/>
<polygon fill="#191970" stroke="#191970" points="689.1112,-242.3341 678.5193,-242.5843 686.9554,-248.9939 689.1112,-242.3341"/>
</g>
<!-- Node27 -->
<g id="node28" class="node">
<title>Node27</title>
<polygon fill="#ffffff" stroke="#bfbfbf" points="862.5,-224.5 862.5,-243.5 929.5,-243.5 929.5,-224.5 862.5,-224.5"/>
<text text-anchor="middle" x="896" y="-231.5" font-family="Helvetica,sans-Serif" font-size="10.00" fill="#000000">cpu_conf.h</text>
</g>
<!-- Node26&#45;&gt;Node27 -->
<g id="edge51" class="edge">
<title>Node26&#45;&gt;Node27</title>
<path fill="none" stroke="#191970" d="M837.3673,-280.2455C847.9554,-271.8943 863.4064,-259.7076 875.7893,-249.9408"/>
<polygon fill="#191970" stroke="#191970" points="878.0903,-252.5837 883.7745,-243.6427 873.7553,-247.0875 878.0903,-252.5837"/>
</g>
<!-- Node29&#45;&gt;Node2 -->
<g id="edge56" class="edge">
<title>Node29&#45;&gt;Node2</title>
<path fill="none" stroke="#191970" d="M1029.5128,-504.1283C1038.0598,-491.1967 1053.5549,-467.8344 1067,-448 1111.8245,-381.8744 1145.261,-376.2777 1169,-300 1193.8294,-220.2188 1202.6164,-188.4949 1169,-112 1154.1932,-78.3068 1140.8973,-72.4997 1108,-56 1072.2465,-38.0678 959.8241,-21.8722 901.2678,-14.3837"/>
<polygon fill="#191970" stroke="#191970" points="901.6905,-10.9094 891.3311,-13.1305 900.8146,-17.8544 901.6905,-10.9094"/>
</g>
<!-- Node29&#45;&gt;Node9 -->
<g id="edge62" class="edge">
<title>Node29&#45;&gt;Node9</title>
<path fill="none" stroke="#191970" d="M995.2813,-512.8691C897.9414,-508.6953 575.5316,-493.0857 537,-468 520.5421,-457.2852 510.6882,-436.5765 505.3377,-421.2006"/>
<polygon fill="#191970" stroke="#191970" points="508.658,-420.0914 502.3272,-411.596 501.9784,-422.1851 508.658,-420.0914"/>
</g>
<!-- Node29&#45;&gt;Node24 -->
<g id="edge67" class="edge">
<title>Node29&#45;&gt;Node24</title>
<path fill="none" stroke="#191970" d="M995.3982,-507.5999C924.1063,-489.433 733.8947,-430.2101 655,-300 646.6516,-286.2216 646.5608,-267.6954 648.1796,-253.7785"/>
<polygon fill="#191970" stroke="#191970" points="651.6557,-254.2007 649.7192,-243.7844 644.7373,-253.1349 651.6557,-254.2007"/>
</g>
<!-- Node30 -->
<g id="node31" class="node">
<title>Node30</title>
<g id="a_node31"><a xlink:href="mbox_8h.html" target="_top" xlink:title="Mailbox API. ">
<polygon fill="#ffffff" stroke="#000000" points="983,-336.5 983,-355.5 1035,-355.5 1035,-336.5 983,-336.5"/>
<text text-anchor="middle" x="1009" y="-343.5" font-family="Helvetica,sans-Serif" font-size="10.00" fill="#000000">mbox.h</text>
</a>
</g>
</g>
<!-- Node29&#45;&gt;Node30 -->
<g id="edge57" class="edge">
<title>Node29&#45;&gt;Node30</title>
<path fill="none" stroke="#191970" d="M1022.2072,-504.4862C1019.9941,-477.9293 1013.7138,-402.5651 1010.6805,-366.1655"/>
<polygon fill="#191970" stroke="#191970" points="1014.1374,-365.5027 1009.819,-355.8279 1007.1616,-366.084 1014.1374,-365.5027"/>
</g>
<!-- Node31 -->
<g id="node32" class="node">
<title>Node31</title>
<polygon fill="#ffffff" stroke="#bfbfbf" points="1075.5,-448.5 1075.5,-467.5 1120.5,-467.5 1120.5,-448.5 1075.5,-448.5"/>
<text text-anchor="middle" x="1098" y="-455.5" font-family="Helvetica,sans-Serif" font-size="10.00" fill="#000000">msg.h</text>
</g>
<!-- Node29&#45;&gt;Node31 -->
<g id="edge61" class="edge">
<title>Node29&#45;&gt;Node31</title>
<path fill="none" stroke="#191970" d="M1036.064,-504.2455C1047.3562,-495.814 1063.8845,-483.4729 1077.0271,-473.6598"/>
<polygon fill="#191970" stroke="#191970" points="1079.1669,-476.4301 1085.0857,-467.6427 1074.9789,-470.8211 1079.1669,-476.4301"/>
</g>
<!-- Node32 -->
<g id="node33" class="node">
<title>Node32</title>
<g id="a_node33"><a xlink:href="rmutex_8h.html" target="_top" xlink:title="Recursive Mutex for thread synchronization. ">
<polygon fill="#ffffff" stroke="#000000" points="546,-448.5 546,-467.5 606,-467.5 606,-448.5 546,-448.5"/>
<text text-anchor="middle" x="576" y="-455.5" font-family="Helvetica,sans-Serif" font-size="10.00" fill="#000000">rmutex.h</text>
</a>
</g>
</g>
<!-- Node29&#45;&gt;Node32 -->
<g id="edge63" class="edge">
<title>Node29&#45;&gt;Node32</title>
<path fill="none" stroke="#191970" d="M995.4894,-511.9087C930.0758,-506.7083 760.2314,-491.8645 620,-468 618.7402,-467.7856 617.4624,-467.5579 616.1738,-467.3196"/>
<polygon fill="#191970" stroke="#191970" points="616.7019,-463.8559 606.2094,-465.3247 615.3278,-470.7197 616.7019,-463.8559"/>
</g>
<!-- Node30&#45;&gt;Node19 -->
<g id="edge58" class="edge">
<title>Node30&#45;&gt;Node19</title>
<path fill="none" stroke="#191970" d="M1017.2089,-336.1677C1024.0114,-327.3343 1033.1631,-313.6831 1037,-300 1039.4,-291.4412 1039.2343,-288.6035 1037,-280 1022.5432,-224.3327 983.7204,-167.4353 962.8025,-139.5688"/>
<polygon fill="#191970" stroke="#191970" points="965.5482,-137.3976 956.6937,-131.5797 959.9875,-141.6496 965.5482,-137.3976"/>
</g>
<!-- Node30&#45;&gt;Node22 -->
<g id="edge59" class="edge">
<title>Node30&#45;&gt;Node22</title>
<path fill="none" stroke="#191970" d="M1009,-336.2455C1009,-328.9382 1009,-318.6944 1009,-309.7046"/>
<polygon fill="#191970" stroke="#191970" points="1012.5001,-309.6426 1009,-299.6427 1005.5001,-309.6427 1012.5001,-309.6426"/>
</g>
<!-- Node30&#45;&gt;Node23 -->
<g id="edge60" class="edge">
<title>Node30&#45;&gt;Node23</title>
<path fill="none" stroke="#191970" d="M998.5488,-336.2455C989.7731,-328.0549 977.0446,-316.1749 966.686,-306.5069"/>
<polygon fill="#191970" stroke="#191970" points="969.0301,-303.9072 959.3314,-299.6427 964.2539,-309.0246 969.0301,-303.9072"/>
</g>
<!-- Node32&#45;&gt;Node2 -->
<g id="edge64" class="edge">
<title>Node32&#45;&gt;Node2</title>
<path fill="none" stroke="#191970" d="M545.6875,-456.7496C446.8124,-451.8573 140,-429.9157 140,-346 140,-346 140,-346 140,-122 140,-56.0109 209.3856,-73.5436 273,-56 378.6587,-26.8614 717.237,-14.3921 828.8977,-11.0041"/>
<polygon fill="#191970" stroke="#191970" points="829.0882,-14.5001 838.9798,-10.7043 828.8801,-7.5032 829.0882,-14.5001"/>
</g>
<!-- Node32&#45;&gt;Node9 -->
<g id="edge65" class="edge">
<title>Node32&#45;&gt;Node9</title>
<path fill="none" stroke="#191970" d="M562.7618,-448.2455C551.319,-439.814 534.5704,-427.4729 521.2525,-417.6598"/>
<polygon fill="#191970" stroke="#191970" points="523.2133,-414.757 513.0865,-411.6427 519.0609,-420.3924 523.2133,-414.757"/>
</g>
<!-- Node32&#45;&gt;Node24 -->
<g id="edge66" class="edge">
<title>Node32&#45;&gt;Node24</title>
<path fill="none" stroke="#191970" d="M575.0595,-448.4195C572.769,-420.5392 569.1655,-337.7691 600,-280 606.4737,-267.8714 617.5017,-257.4188 627.7404,-249.5565"/>
<polygon fill="#191970" stroke="#191970" points="629.9682,-252.2653 636.038,-243.5814 625.8777,-246.5848 629.9682,-252.2653"/>
</g>
<!-- Node33&#45;&gt;Node2 -->
<g id="edge69" class="edge">
<title>Node33&#45;&gt;Node2</title>
<path fill="none" stroke="#191970" d="M1135.1395,-560.4901C1167.3452,-544.3882 1225,-508.5089 1225,-458 1225,-458 1225,-458 1225,-402 1225,-243.5432 1276.9622,-133.9422 1139,-56 1098.9198,-33.3566 966.2848,-18.9067 901.3944,-13.0201"/>
<polygon fill="#191970" stroke="#191970" points="901.4848,-9.5144 891.2146,-12.1167 900.866,-16.487 901.4848,-9.5144"/>
</g>
<!-- Node33&#45;&gt;Node9 -->
<g id="edge73" class="edge">
<title>Node33&#45;&gt;Node9</title>
<path fill="none" stroke="#191970" d="M1079.8668,-569.0697C965.1574,-565.2287 596.1229,-546.852 514,-468 501.7462,-456.2342 498.8833,-436.6168 498.7038,-421.8203"/>
<polygon fill="#191970" stroke="#191970" points="502.2069,-421.7459 498.9784,-411.655 495.2095,-421.5567 502.2069,-421.7459"/>
</g>
<!-- Node33&#45;&gt;Node29 -->
<g id="edge75" class="edge">
<title>Node33&#45;&gt;Node29</title>
<path fill="none" stroke="#191970" d="M1098.149,-560.2455C1084.1868,-551.6534 1063.6272,-539.0014 1047.5404,-529.1018"/>
<polygon fill="#191970" stroke="#191970" points="1049.0203,-525.9029 1038.6693,-523.6427 1045.3516,-531.8645 1049.0203,-525.9029"/>
</g>
<!-- Node33&#45;&gt;Node31 -->
<g id="edge74" class="edge">
<title>Node33&#45;&gt;Node31</title>
<path fill="none" stroke="#191970" d="M1112.6358,-560.4509C1110.0263,-542.184 1104.2793,-501.9553 1100.8139,-477.6976"/>
<polygon fill="#191970" stroke="#191970" points="1104.2398,-476.9294 1099.3607,-467.5249 1097.3102,-477.9194 1104.2398,-476.9294"/>
</g>
<!-- Node34 -->
<g id="node35" class="node">
<title>Node34</title>
<g id="a_node35"><a xlink:href="irq_8h.html" target="_top" xlink:title="IRQ driver interface. ">
<polygon fill="#ffffff" stroke="#000000" points="1122,-280.5 1122,-299.5 1160,-299.5 1160,-280.5 1122,-280.5"/>
<text text-anchor="middle" x="1141" y="-287.5" font-family="Helvetica,sans-Serif" font-size="10.00" fill="#000000">irq.h</text>
</a>
</g>
</g>
<!-- Node33&#45;&gt;Node34 -->
<g id="edge70" class="edge">
<title>Node33&#45;&gt;Node34</title>
<path fill="none" stroke="#191970" d="M1119.1644,-560.4283C1128.9002,-541.4624 1149,-497.5212 1149,-458 1149,-458 1149,-458 1149,-402 1149,-369.6293 1145.634,-332.1294 1143.2687,-309.7743"/>
<polygon fill="#191970" stroke="#191970" points="1146.719,-309.1291 1142.1462,-299.5719 1139.761,-309.8948 1146.719,-309.1291"/>
</g>
<!-- Node34&#45;&gt;Node3 -->
<g id="edge71" class="edge">
<title>Node34&#45;&gt;Node3</title>
<path fill="none" stroke="#191970" d="M1140.3771,-280.4862C1138.6382,-253.9293 1133.7037,-178.5651 1131.3204,-142.1655"/>
<polygon fill="#191970" stroke="#191970" points="1134.7895,-141.5778 1130.6435,-131.8279 1127.8044,-142.0352 1134.7895,-141.5778"/>
</g>
<!-- Node34&#45;&gt;Node27 -->
<g id="edge72" class="edge">
<title>Node34&#45;&gt;Node27</title>
<path fill="none" stroke="#191970" d="M1121.7753,-285.6058C1082.7763,-276.6917 993.5044,-256.2867 939.6326,-243.9732"/>
<polygon fill="#191970" stroke="#191970" points="940.2091,-240.5148 929.6806,-241.6984 938.6493,-247.3388 940.2091,-240.5148"/>
</g>
</g>
</svg>
