<?xml version="1.0" encoding="UTF-8" standalone="no"?>
<!DOCTYPE svg PUBLIC "-//W3C//DTD SVG 1.1//EN"
 "http://www.w3.org/Graphics/SVG/1.1/DTD/svg11.dtd">
<!-- Generated by graphviz version 2.40.1 (0)
 -->
<!-- Title: drivers/ad7746/include/ad7746_params.h Pages: 1 -->
<svg width="646pt" height="207pt"
 viewBox="0.00 0.00 645.50 207.00" xmlns="http://www.w3.org/2000/svg" xmlns:xlink="http://www.w3.org/1999/xlink">
<g id="graph0" class="graph" transform="scale(1 1) rotate(0) translate(4 203)">
<title>drivers/ad7746/include/ad7746_params.h</title>
<polygon fill="#ffffff" stroke="transparent" points="-4,4 -4,-203 641.5,-203 641.5,4 -4,4"/>
<!-- Node0 -->
<g id="node1" class="node">
<title>Node0</title>
<polygon fill="#bfbfbf" stroke="#000000" points="165,-168.5 165,-198.5 290,-198.5 290,-168.5 165,-168.5"/>
<text text-anchor="start" x="173" y="-186.5" font-family="Helvetica,sans-Serif" font-size="10.00" fill="#000000">drivers/ad7746/include</text>
<text text-anchor="middle" x="227.5" y="-175.5" font-family="Helvetica,sans-Serif" font-size="10.00" fill="#000000">/ad7746_params.h</text>
</g>
<!-- Node1 -->
<g id="node2" class="node">
<title>Node1</title>
<polygon fill="#ffffff" stroke="#bfbfbf" points="124,-112.5 124,-131.5 177,-131.5 177,-112.5 124,-112.5"/>
<text text-anchor="middle" x="150.5" y="-119.5" font-family="Helvetica,sans-Serif" font-size="10.00" fill="#000000">board.h</text>
</g>
<!-- Node0&#45;&gt;Node1 -->
<g id="edge1" class="edge">
<title>Node0&#45;&gt;Node1</title>
<path fill="none" stroke="#191970" d="M208.4663,-168.2977C196.9985,-159.1384 182.4038,-147.4816 170.7281,-138.1562"/>
<polygon fill="#191970" stroke="#191970" points="172.8266,-135.3529 162.8287,-131.8469 168.4581,-140.8225 172.8266,-135.3529"/>
</g>
<!-- Node2 -->
<g id="node3" class="node">
<title>Node2</title>
<g id="a_node3"><a xlink:href="saul__reg_8h.html" target="_top" xlink:title="SAUL registry interface definition. ">
<polygon fill="#ffffff" stroke="#000000" points="195,-112.5 195,-131.5 260,-131.5 260,-112.5 195,-112.5"/>
<text text-anchor="middle" x="227.5" y="-119.5" font-family="Helvetica,sans-Serif" font-size="10.00" fill="#000000">saul_reg.h</text>
</a>
</g>
</g>
<!-- Node0&#45;&gt;Node2 -->
<g id="edge2" class="edge">
<title>Node0&#45;&gt;Node2</title>
<path fill="none" stroke="#191970" d="M227.5,-168.2977C227.5,-160.3834 227.5,-150.6043 227.5,-142.0759"/>
<polygon fill="#191970" stroke="#191970" points="231.0001,-141.8469 227.5,-131.8469 224.0001,-141.847 231.0001,-141.8469"/>
</g>
<!-- Node9 -->
<g id="node10" class="node">
<title>Node9</title>
<g id="a_node10"><a xlink:href="ad7746_8h.html" target="_top" xlink:title="AD7746 Capacitance&#45;to&#45;digital converter with temperature sensor driver. ">
<polygon fill="#ffffff" stroke="#000000" points="302,-112.5 302,-131.5 363,-131.5 363,-112.5 302,-112.5"/>
<text text-anchor="middle" x="332.5" y="-119.5" font-family="Helvetica,sans-Serif" font-size="10.00" fill="#000000">ad7746.h</text>
</a>
</g>
</g>
<!-- Node0&#45;&gt;Node9 -->
<g id="edge10" class="edge">
<title>Node0&#45;&gt;Node9</title>
<path fill="none" stroke="#191970" d="M253.1859,-168.4554C269.6297,-158.8241 290.8708,-146.3828 307.2323,-136.7996"/>
<polygon fill="#191970" stroke="#191970" points="309.3688,-139.6045 316.2287,-131.5303 305.831,-133.5643 309.3688,-139.6045"/>
</g>
<!-- Node3 -->
<g id="node4" class="node">
<title>Node3</title>
<polygon fill="#ffffff" stroke="#bfbfbf" points="244.5,-.5 244.5,-19.5 296.5,-19.5 296.5,-.5 244.5,-.5"/>
<text text-anchor="middle" x="270.5" y="-7.5" font-family="Helvetica,sans-Serif" font-size="10.00" fill="#000000">stdint.h</text>
</g>
<!-- Node2&#45;&gt;Node3 -->
<g id="edge3" class="edge">
<title>Node2&#45;&gt;Node3</title>
<path fill="none" stroke="#191970" d="M231.1662,-112.4509C238.2428,-94.0186 253.9045,-53.2254 263.1888,-29.043"/>
<polygon fill="#191970" stroke="#191970" points="266.5263,-30.115 266.8431,-19.5249 259.9914,-27.606 266.5263,-30.115"/>
</g>
<!-- Node4 -->
<g id="node5" class="node">
<title>Node4</title>
<polygon fill="#ffffff" stroke="#bfbfbf" points="113.5,-56.5 113.5,-75.5 157.5,-75.5 157.5,-56.5 113.5,-56.5"/>
<text text-anchor="middle" x="135.5" y="-63.5" font-family="Helvetica,sans-Serif" font-size="10.00" fill="#000000">saul.h</text>
</g>
<!-- Node2&#45;&gt;Node4 -->
<g id="edge4" class="edge">
<title>Node2&#45;&gt;Node4</title>
<path fill="none" stroke="#191970" d="M211.4748,-112.2455C197.3592,-103.6534 176.5737,-91.0014 160.3101,-81.1018"/>
<polygon fill="#191970" stroke="#191970" points="161.7034,-77.8525 151.3415,-75.6427 158.0637,-83.8319 161.7034,-77.8525"/>
</g>
<!-- Node5 -->
<g id="node6" class="node">
<title>Node5</title>
<g id="a_node6"><a xlink:href="phydat_8h.html" target="_top" xlink:title="Generic data container for physical data interface. ">
<polygon fill="#ffffff" stroke="#000000" points="175.5,-56.5 175.5,-75.5 233.5,-75.5 233.5,-56.5 175.5,-56.5"/>
<text text-anchor="middle" x="204.5" y="-63.5" font-family="Helvetica,sans-Serif" font-size="10.00" fill="#000000">phydat.h</text>
</a>
</g>
</g>
<!-- Node2&#45;&gt;Node5 -->
<g id="edge5" class="edge">
<title>Node2&#45;&gt;Node5</title>
<path fill="none" stroke="#191970" d="M223.4937,-112.2455C220.4265,-104.7776 216.0997,-94.2427 212.3503,-85.1137"/>
<polygon fill="#191970" stroke="#191970" points="215.4972,-83.5631 208.4604,-75.6427 209.0221,-86.2226 215.4972,-83.5631"/>
</g>
<!-- Node5&#45;&gt;Node3 -->
<g id="edge7" class="edge">
<title>Node5&#45;&gt;Node3</title>
<path fill="none" stroke="#191970" d="M215.9963,-56.2455C225.7442,-47.9746 239.9259,-35.9416 251.3798,-26.2232"/>
<polygon fill="#191970" stroke="#191970" points="253.7747,-28.7813 259.1354,-19.6427 249.2459,-23.4437 253.7747,-28.7813"/>
</g>
<!-- Node6 -->
<g id="node7" class="node">
<title>Node6</title>
<polygon fill="#ffffff" stroke="#bfbfbf" points="170.5,-.5 170.5,-19.5 226.5,-19.5 226.5,-.5 170.5,-.5"/>
<text text-anchor="middle" x="198.5" y="-7.5" font-family="Helvetica,sans-Serif" font-size="10.00" fill="#000000">stddef.h</text>
</g>
<!-- Node5&#45;&gt;Node6 -->
<g id="edge6" class="edge">
<title>Node5&#45;&gt;Node6</title>
<path fill="none" stroke="#191970" d="M203.4549,-56.2455C202.672,-48.9382 201.5744,-38.6944 200.6112,-29.7046"/>
<polygon fill="#191970" stroke="#191970" points="204.0786,-29.2129 199.5331,-19.6427 197.1185,-29.9587 204.0786,-29.2129"/>
</g>
<!-- Node7 -->
<g id="node8" class="node">
<title>Node7</title>
<polygon fill="#ffffff" stroke="#bfbfbf" points="83,-.5 83,-19.5 152,-19.5 152,-.5 83,-.5"/>
<text text-anchor="middle" x="117.5" y="-7.5" font-family="Helvetica,sans-Serif" font-size="10.00" fill="#000000">sys/types.h</text>
</g>
<!-- Node5&#45;&gt;Node7 -->
<g id="edge8" class="edge">
<title>Node5&#45;&gt;Node7</title>
<path fill="none" stroke="#191970" d="M189.3458,-56.2455C175.9973,-47.6534 156.3414,-35.0014 140.9617,-25.1018"/>
<polygon fill="#191970" stroke="#191970" points="142.7836,-22.1121 132.4806,-19.6427 138.9949,-27.9982 142.7836,-22.1121"/>
</g>
<!-- Node8 -->
<g id="node9" class="node">
<title>Node8</title>
<g id="a_node9"><a xlink:href="modules_8h.html" target="_top" xlink:title="Common macros and compiler attributes/pragmas configuration. ">
<polygon fill="#ffffff" stroke="#000000" points="0,-.5 0,-19.5 65,-19.5 65,-.5 0,-.5"/>
<text text-anchor="middle" x="32.5" y="-7.5" font-family="Helvetica,sans-Serif" font-size="10.00" fill="#000000">modules.h</text>
</a>
</g>
</g>
<!-- Node5&#45;&gt;Node8 -->
<g id="edge9" class="edge">
<title>Node5&#45;&gt;Node8</title>
<path fill="none" stroke="#191970" d="M175.3225,-56.5004C146.7826,-47.2083 103.1306,-32.996 71.5981,-22.7296"/>
<polygon fill="#191970" stroke="#191970" points="72.4129,-19.3141 61.8206,-19.5462 70.2457,-25.9702 72.4129,-19.3141"/>
</g>
<!-- Node10 -->
<g id="node11" class="node">
<title>Node10</title>
<g id="a_node11"><a xlink:href="i2c_8h.html" target="_top" xlink:title="Low&#45;level I2C peripheral driver interface definition. ">
<polygon fill="#ffffff" stroke="#000000" points="296,-56.5 296,-75.5 369,-75.5 369,-56.5 296,-56.5"/>
<text text-anchor="middle" x="332.5" y="-63.5" font-family="Helvetica,sans-Serif" font-size="10.00" fill="#000000">periph/i2c.h</text>
</a>
</g>
</g>
<!-- Node9&#45;&gt;Node10 -->
<g id="edge11" class="edge">
<title>Node9&#45;&gt;Node10</title>
<path fill="none" stroke="#191970" d="M332.5,-112.2455C332.5,-104.9382 332.5,-94.6944 332.5,-85.7046"/>
<polygon fill="#191970" stroke="#191970" points="336.0001,-85.6426 332.5,-75.6427 329.0001,-85.6427 336.0001,-85.6426"/>
</g>
<!-- Node14 -->
<g id="node15" class="node">
<title>Node14</title>
<g id="a_node15"><a xlink:href="drivers_2include_2periph_2gpio_8h.html" target="_top" xlink:title="Low&#45;level GPIO peripheral driver interface definitions. ">
<polygon fill="#ffffff" stroke="#000000" points="387.5,-56.5 387.5,-75.5 467.5,-75.5 467.5,-56.5 387.5,-56.5"/>
<text text-anchor="middle" x="427.5" y="-63.5" font-family="Helvetica,sans-Serif" font-size="10.00" fill="#000000">periph/gpio.h</text>
</a>
</g>
</g>
<!-- Node9&#45;&gt;Node14 -->
<g id="edge17" class="edge">
<title>Node9&#45;&gt;Node14</title>
<path fill="none" stroke="#191970" d="M349.0477,-112.2455C363.7599,-103.5731 385.4888,-90.7645 402.3505,-80.825"/>
<polygon fill="#191970" stroke="#191970" points="404.3046,-83.736 411.1419,-75.6427 400.7498,-77.7057 404.3046,-83.736"/>
</g>
<!-- Node10&#45;&gt;Node3 -->
<g id="edge12" class="edge">
<title>Node10&#45;&gt;Node3</title>
<path fill="none" stroke="#191970" d="M321.7004,-56.2455C312.6322,-48.0549 299.4794,-36.1749 288.7755,-26.5069"/>
<polygon fill="#191970" stroke="#191970" points="290.9429,-23.7482 281.1758,-19.6427 286.2509,-28.9429 290.9429,-23.7482"/>
</g>
<!-- Node10&#45;&gt;Node6 -->
<g id="edge13" class="edge">
<title>Node10&#45;&gt;Node6</title>
<path fill="none" stroke="#191970" d="M309.4646,-56.3733C287.7612,-47.3032 255.0382,-33.6279 230.745,-23.4755"/>
<polygon fill="#191970" stroke="#191970" points="231.8111,-20.1278 221.2348,-19.5011 229.1119,-26.5865 231.8111,-20.1278"/>
</g>
<!-- Node11 -->
<g id="node12" class="node">
<title>Node11</title>
<polygon fill="#ffffff" stroke="#bfbfbf" points="314.5,-.5 314.5,-19.5 364.5,-19.5 364.5,-.5 314.5,-.5"/>
<text text-anchor="middle" x="339.5" y="-7.5" font-family="Helvetica,sans-Serif" font-size="10.00" fill="#000000">limits.h</text>
</g>
<!-- Node10&#45;&gt;Node11 -->
<g id="edge14" class="edge">
<title>Node10&#45;&gt;Node11</title>
<path fill="none" stroke="#191970" d="M333.7193,-56.2455C334.6327,-48.9382 335.9132,-38.6944 337.0369,-29.7046"/>
<polygon fill="#191970" stroke="#191970" points="340.5272,-29.9996 338.2947,-19.6427 333.5813,-29.1313 340.5272,-29.9996"/>
</g>
<!-- Node12 -->
<g id="node13" class="node">
<title>Node12</title>
<polygon fill="#ffffff" stroke="#bfbfbf" points="383,-.5 383,-19.5 464,-19.5 464,-.5 383,-.5"/>
<text text-anchor="middle" x="423.5" y="-7.5" font-family="Helvetica,sans-Serif" font-size="10.00" fill="#000000">periph_conf.h</text>
</g>
<!-- Node10&#45;&gt;Node12 -->
<g id="edge15" class="edge">
<title>Node10&#45;&gt;Node12</title>
<path fill="none" stroke="#191970" d="M348.351,-56.2455C362.3132,-47.6534 382.8728,-35.0014 398.9596,-25.1018"/>
<polygon fill="#191970" stroke="#191970" points="401.1484,-27.8645 407.8307,-19.6427 397.4797,-21.9029 401.1484,-27.8645"/>
</g>
<!-- Node13 -->
<g id="node14" class="node">
<title>Node13</title>
<polygon fill="#ffffff" stroke="#bfbfbf" points="482,-.5 482,-19.5 559,-19.5 559,-.5 482,-.5"/>
<text text-anchor="middle" x="520.5" y="-7.5" font-family="Helvetica,sans-Serif" font-size="10.00" fill="#000000">periph_cpu.h</text>
</g>
<!-- Node10&#45;&gt;Node13 -->
<g id="edge16" class="edge">
<title>Node10&#45;&gt;Node13</title>
<path fill="none" stroke="#191970" d="M364.8184,-56.3733C396.3506,-46.9807 444.4621,-32.6496 478.8501,-22.4064"/>
<polygon fill="#191970" stroke="#191970" points="480.0187,-25.7103 488.6034,-19.5011 478.0203,-19.0016 480.0187,-25.7103"/>
</g>
<!-- Node14&#45;&gt;Node11 -->
<g id="edge18" class="edge">
<title>Node14&#45;&gt;Node11</title>
<path fill="none" stroke="#191970" d="M412.1716,-56.2455C398.6697,-47.6534 378.7878,-35.0014 363.2314,-25.1018"/>
<polygon fill="#191970" stroke="#191970" points="364.9685,-22.0587 354.6528,-19.6427 361.2103,-27.9643 364.9685,-22.0587"/>
</g>
<!-- Node14&#45;&gt;Node12 -->
<g id="edge21" class="edge">
<title>Node14&#45;&gt;Node12</title>
<path fill="none" stroke="#191970" d="M426.8033,-56.2455C426.2813,-48.9382 425.5496,-38.6944 424.9075,-29.7046"/>
<polygon fill="#191970" stroke="#191970" points="428.3924,-29.3679 424.1888,-19.6427 421.4102,-29.8667 428.3924,-29.3679"/>
</g>
<!-- Node14&#45;&gt;Node13 -->
<g id="edge20" class="edge">
<title>Node14&#45;&gt;Node13</title>
<path fill="none" stroke="#191970" d="M443.6994,-56.2455C458.1018,-47.5731 479.3732,-34.7645 495.8799,-24.825"/>
<polygon fill="#191970" stroke="#191970" points="497.725,-27.7996 504.4863,-19.6427 494.114,-21.8028 497.725,-27.7996"/>
</g>
<!-- Node15 -->
<g id="node16" class="node">
<title>Node15</title>
<polygon fill="#ffffff" stroke="#bfbfbf" points="577.5,-.5 577.5,-19.5 637.5,-19.5 637.5,-.5 577.5,-.5"/>
<text text-anchor="middle" x="607.5" y="-7.5" font-family="Helvetica,sans-Serif" font-size="10.00" fill="#000000">stdbool.h</text>
</g>
<!-- Node14&#45;&gt;Node15 -->
<g id="edge19" class="edge">
<title>Node14&#45;&gt;Node15</title>
<path fill="none" stroke="#191970" d="M458.4431,-56.3733C488.595,-46.9927 534.5803,-32.6861 567.4965,-22.4455"/>
<polygon fill="#191970" stroke="#191970" points="568.7515,-25.7206 577.2603,-19.4079 566.6719,-19.0366 568.7515,-25.7206"/>
</g>
</g>
</svg>
