<?xml version="1.0" encoding="UTF-8" standalone="no"?>
<!DOCTYPE svg PUBLIC "-//W3C//DTD SVG 1.1//EN"
 "http://www.w3.org/Graphics/SVG/1.1/DTD/svg11.dtd">
<!-- Generated by graphviz version 2.40.1 (0)
 -->
<!-- Title: boards/adafruit&#45;metro&#45;m4&#45;express/include/board.h Pages: 1 -->
<svg width="401pt" height="207pt"
 viewBox="0.00 0.00 401.00 207.00" xmlns="http://www.w3.org/2000/svg" xmlns:xlink="http://www.w3.org/1999/xlink">
<g id="graph0" class="graph" transform="scale(1 1) rotate(0) translate(4 203)">
<title>boards/adafruit&#45;metro&#45;m4&#45;express/include/board.h</title>
<polygon fill="#ffffff" stroke="transparent" points="-4,4 -4,-203 397,-203 397,4 -4,4"/>
<!-- Node0 -->
<g id="node1" class="node">
<title>Node0</title>
<polygon fill="#bfbfbf" stroke="#000000" points="144,-168.5 144,-198.5 296,-198.5 296,-168.5 144,-168.5"/>
<text text-anchor="start" x="152" y="-186.5" font-family="Helvetica,sans-Serif" font-size="10.00" fill="#000000">boards/adafruit&#45;metro</text>
<text text-anchor="middle" x="220" y="-175.5" font-family="Helvetica,sans-Serif" font-size="10.00" fill="#000000">&#45;m4&#45;express/include/board.h</text>
</g>
<!-- Node1 -->
<g id="node2" class="node">
<title>Node1</title>
<g id="a_node2"><a xlink:href="adafruit-metro-m4-express_2include_2arduino__iomap_8h.html" target="_top" xlink:title="Mapping from MCU pins to Arduino pins. ">
<polygon fill="#ffffff" stroke="#000000" points="172.5,-112.5 172.5,-131.5 267.5,-131.5 267.5,-112.5 172.5,-112.5"/>
<text text-anchor="middle" x="220" y="-119.5" font-family="Helvetica,sans-Serif" font-size="10.00" fill="#000000">arduino_iomap.h</text>
</a>
</g>
</g>
<!-- Node0&#45;&gt;Node1 -->
<g id="edge1" class="edge">
<title>Node0&#45;&gt;Node1</title>
<path fill="none" stroke="#191970" d="M220,-168.2977C220,-160.3834 220,-150.6043 220,-142.0759"/>
<polygon fill="#191970" stroke="#191970" points="223.5001,-141.8469 220,-131.8469 216.5001,-141.847 223.5001,-141.8469"/>
</g>
<!-- Node2 -->
<g id="node3" class="node">
<title>Node2</title>
<g id="a_node3"><a xlink:href="drivers_2include_2periph_2gpio_8h.html" target="_top" xlink:title="Low&#45;level GPIO peripheral driver interface definitions. ">
<polygon fill="#ffffff" stroke="#000000" points="104,-56.5 104,-75.5 184,-75.5 184,-56.5 104,-56.5"/>
<text text-anchor="middle" x="144" y="-63.5" font-family="Helvetica,sans-Serif" font-size="10.00" fill="#000000">periph/gpio.h</text>
</a>
</g>
</g>
<!-- Node0&#45;&gt;Node2 -->
<g id="edge13" class="edge">
<title>Node0&#45;&gt;Node2</title>
<path fill="none" stroke="#191970" d="M197.9997,-168.3925C186.0691,-159.1538 171.9708,-146.3669 163,-132 154.1301,-117.7946 149.2738,-99.3099 146.697,-85.5175"/>
<polygon fill="#191970" stroke="#191970" points="150.1492,-84.9404 145.086,-75.6337 143.2404,-86.0665 150.1492,-84.9404"/>
</g>
<!-- Node9 -->
<g id="node10" class="node">
<title>Node9</title>
<polygon fill="#ffffff" stroke="#bfbfbf" points="286,-112.5 286,-131.5 328,-131.5 328,-112.5 286,-112.5"/>
<text text-anchor="middle" x="307" y="-119.5" font-family="Helvetica,sans-Serif" font-size="10.00" fill="#000000">cpu.h</text>
</g>
<!-- Node0&#45;&gt;Node9 -->
<g id="edge12" class="edge">
<title>Node0&#45;&gt;Node9</title>
<path fill="none" stroke="#191970" d="M241.5056,-168.2977C254.7968,-158.9022 271.8057,-146.8787 285.1588,-137.4395"/>
<polygon fill="#191970" stroke="#191970" points="287.1846,-140.2937 293.33,-131.6633 283.1439,-134.5776 287.1846,-140.2937"/>
</g>
<!-- Node1&#45;&gt;Node2 -->
<g id="edge2" class="edge">
<title>Node1&#45;&gt;Node2</title>
<path fill="none" stroke="#191970" d="M206.7618,-112.2455C195.319,-103.814 178.5704,-91.4729 165.2525,-81.6598"/>
<polygon fill="#191970" stroke="#191970" points="167.2133,-78.757 157.0865,-75.6427 163.0609,-84.3924 167.2133,-78.757"/>
</g>
<!-- Node7 -->
<g id="node8" class="node">
<title>Node7</title>
<g id="a_node8"><a xlink:href="adc_8h.html" target="_top" xlink:title="Low&#45;level ADC peripheral driver interface definitions. ">
<polygon fill="#ffffff" stroke="#000000" points="202,-56.5 202,-75.5 278,-75.5 278,-56.5 202,-56.5"/>
<text text-anchor="middle" x="240" y="-63.5" font-family="Helvetica,sans-Serif" font-size="10.00" fill="#000000">periph/adc.h</text>
</a>
</g>
</g>
<!-- Node1&#45;&gt;Node7 -->
<g id="edge7" class="edge">
<title>Node1&#45;&gt;Node7</title>
<path fill="none" stroke="#191970" d="M223.4837,-112.2455C226.1508,-104.7776 229.9133,-94.2427 233.1737,-85.1137"/>
<polygon fill="#191970" stroke="#191970" points="236.4889,-86.2373 236.5562,-75.6427 229.8967,-83.8829 236.4889,-86.2373"/>
</g>
<!-- Node3 -->
<g id="node4" class="node">
<title>Node3</title>
<polygon fill="#ffffff" stroke="#bfbfbf" points="78,-.5 78,-19.5 128,-19.5 128,-.5 78,-.5"/>
<text text-anchor="middle" x="103" y="-7.5" font-family="Helvetica,sans-Serif" font-size="10.00" fill="#000000">limits.h</text>
</g>
<!-- Node2&#45;&gt;Node3 -->
<g id="edge3" class="edge">
<title>Node2&#45;&gt;Node3</title>
<path fill="none" stroke="#191970" d="M136.8583,-56.2455C131.1556,-48.4564 123.01,-37.3308 116.1375,-27.9439"/>
<polygon fill="#191970" stroke="#191970" points="118.7913,-25.6437 110.0598,-19.6427 113.1432,-29.7789 118.7913,-25.6437"/>
</g>
<!-- Node4 -->
<g id="node5" class="node">
<title>Node4</title>
<polygon fill="#ffffff" stroke="#bfbfbf" points="0,-.5 0,-19.5 60,-19.5 60,-.5 0,-.5"/>
<text text-anchor="middle" x="30" y="-7.5" font-family="Helvetica,sans-Serif" font-size="10.00" fill="#000000">stdbool.h</text>
</g>
<!-- Node2&#45;&gt;Node4 -->
<g id="edge4" class="edge">
<title>Node2&#45;&gt;Node4</title>
<path fill="none" stroke="#191970" d="M124.4027,-56.3733C106.2669,-47.4644 79.0865,-34.1127 58.5413,-24.0203"/>
<polygon fill="#191970" stroke="#191970" points="59.8603,-20.7688 49.3416,-19.5011 56.7739,-27.0517 59.8603,-20.7688"/>
</g>
<!-- Node5 -->
<g id="node6" class="node">
<title>Node5</title>
<polygon fill="#ffffff" stroke="#bfbfbf" points="146.5,-.5 146.5,-19.5 223.5,-19.5 223.5,-.5 146.5,-.5"/>
<text text-anchor="middle" x="185" y="-7.5" font-family="Helvetica,sans-Serif" font-size="10.00" fill="#000000">periph_cpu.h</text>
</g>
<!-- Node2&#45;&gt;Node5 -->
<g id="edge5" class="edge">
<title>Node2&#45;&gt;Node5</title>
<path fill="none" stroke="#191970" d="M151.1417,-56.2455C156.8444,-48.4564 164.99,-37.3308 171.8625,-27.9439"/>
<polygon fill="#191970" stroke="#191970" points="174.8568,-29.7789 177.9402,-19.6427 169.2087,-25.6437 174.8568,-29.7789"/>
</g>
<!-- Node6 -->
<g id="node7" class="node">
<title>Node6</title>
<polygon fill="#ffffff" stroke="#bfbfbf" points="241.5,-.5 241.5,-19.5 322.5,-19.5 322.5,-.5 241.5,-.5"/>
<text text-anchor="middle" x="282" y="-7.5" font-family="Helvetica,sans-Serif" font-size="10.00" fill="#000000">periph_conf.h</text>
</g>
<!-- Node2&#45;&gt;Node6 -->
<g id="edge6" class="edge">
<title>Node2&#45;&gt;Node6</title>
<path fill="none" stroke="#191970" d="M167.723,-56.3733C190.1737,-47.2629 224.0739,-33.5062 249.1255,-23.3404"/>
<polygon fill="#191970" stroke="#191970" points="250.6365,-26.5045 258.5865,-19.5011 248.0043,-20.0182 250.6365,-26.5045"/>
</g>
<!-- Node7&#45;&gt;Node3 -->
<g id="edge8" class="edge">
<title>Node7&#45;&gt;Node3</title>
<path fill="none" stroke="#191970" d="M216.4489,-56.3733C194.1609,-47.2629 160.5063,-33.5062 135.6363,-23.3404"/>
<polygon fill="#191970" stroke="#191970" points="136.8247,-20.0451 126.2438,-19.5011 134.1761,-26.5247 136.8247,-20.0451"/>
</g>
<!-- Node7&#45;&gt;Node5 -->
<g id="edge10" class="edge">
<title>Node7&#45;&gt;Node5</title>
<path fill="none" stroke="#191970" d="M230.4197,-56.2455C222.4542,-48.1352 210.9359,-36.4075 201.4921,-26.7919"/>
<polygon fill="#191970" stroke="#191970" points="203.9747,-24.3247 194.4705,-19.6427 198.9805,-29.2297 203.9747,-24.3247"/>
</g>
<!-- Node7&#45;&gt;Node6 -->
<g id="edge11" class="edge">
<title>Node7&#45;&gt;Node6</title>
<path fill="none" stroke="#191970" d="M247.3158,-56.2455C253.2179,-48.3761 261.6742,-37.101 268.7594,-27.6542"/>
<polygon fill="#191970" stroke="#191970" points="271.568,-29.7427 274.768,-19.6427 265.9679,-25.5427 271.568,-29.7427"/>
</g>
<!-- Node8 -->
<g id="node9" class="node">
<title>Node8</title>
<polygon fill="#ffffff" stroke="#bfbfbf" points="341,-.5 341,-19.5 393,-19.5 393,-.5 341,-.5"/>
<text text-anchor="middle" x="367" y="-7.5" font-family="Helvetica,sans-Serif" font-size="10.00" fill="#000000">stdint.h</text>
</g>
<!-- Node7&#45;&gt;Node8 -->
<g id="edge9" class="edge">
<title>Node7&#45;&gt;Node8</title>
<path fill="none" stroke="#191970" d="M261.8321,-56.3733C282.3103,-47.3435 313.1399,-33.7494 336.1319,-23.6111"/>
<polygon fill="#191970" stroke="#191970" points="337.715,-26.7383 345.4528,-19.5011 334.8907,-20.3333 337.715,-26.7383"/>
</g>
</g>
</svg>
