<?xml version="1.0" encoding="UTF-8" standalone="no"?>
<!DOCTYPE svg PUBLIC "-//W3C//DTD SVG 1.1//EN"
 "http://www.w3.org/Graphics/SVG/1.1/DTD/svg11.dtd">
<!-- Generated by graphviz version 2.40.1 (0)
 -->
<!-- Title: cpu/esp32/include/adc_arch_private.h Pages: 1 -->
<svg width="337pt" height="151pt"
 viewBox="0.00 0.00 337.00 151.00" xmlns="http://www.w3.org/2000/svg" xmlns:xlink="http://www.w3.org/1999/xlink">
<g id="graph0" class="graph" transform="scale(1 1) rotate(0) translate(4 147)">
<title>cpu/esp32/include/adc_arch_private.h</title>
<polygon fill="#ffffff" stroke="transparent" points="-4,4 -4,-147 333,-147 333,4 -4,4"/>
<!-- Node0 -->
<g id="node1" class="node">
<title>Node0</title>
<polygon fill="#bfbfbf" stroke="#000000" points="34.5,-112.5 34.5,-142.5 156.5,-142.5 156.5,-112.5 34.5,-112.5"/>
<text text-anchor="start" x="42.5" y="-130.5" font-family="Helvetica,sans-Serif" font-size="10.00" fill="#000000">cpu/esp32/include/adc</text>
<text text-anchor="middle" x="95.5" y="-119.5" font-family="Helvetica,sans-Serif" font-size="10.00" fill="#000000">_arch_private.h</text>
</g>
<!-- Node1 -->
<g id="node2" class="node">
<title>Node1</title>
<polygon fill="#ffffff" stroke="#bfbfbf" points="0,-56.5 0,-75.5 89,-75.5 89,-56.5 0,-56.5"/>
<text text-anchor="middle" x="44.5" y="-63.5" font-family="Helvetica,sans-Serif" font-size="10.00" fill="#000000">hal/adc_types.h</text>
</g>
<!-- Node0&#45;&gt;Node1 -->
<g id="edge1" class="edge">
<title>Node0&#45;&gt;Node1</title>
<path fill="none" stroke="#191970" d="M82.8933,-112.2977C75.7402,-103.672 66.7503,-92.8312 59.2682,-83.8087"/>
<polygon fill="#191970" stroke="#191970" points="61.7433,-81.3103 52.6657,-75.8469 56.355,-85.7787 61.7433,-81.3103"/>
</g>
<!-- Node2 -->
<g id="node3" class="node">
<title>Node2</title>
<g id="a_node3"><a xlink:href="drivers_2include_2periph_2gpio_8h.html" target="_top" xlink:title="Low&#45;level GPIO peripheral driver interface definitions. ">
<polygon fill="#ffffff" stroke="#000000" points="107.5,-56.5 107.5,-75.5 187.5,-75.5 187.5,-56.5 107.5,-56.5"/>
<text text-anchor="middle" x="147.5" y="-63.5" font-family="Helvetica,sans-Serif" font-size="10.00" fill="#000000">periph/gpio.h</text>
</a>
</g>
</g>
<!-- Node0&#45;&gt;Node2 -->
<g id="edge2" class="edge">
<title>Node0&#45;&gt;Node2</title>
<path fill="none" stroke="#191970" d="M108.3539,-112.2977C115.7224,-103.5831 125.0026,-92.6075 132.6777,-83.5302"/>
<polygon fill="#191970" stroke="#191970" points="135.3902,-85.743 139.1741,-75.8469 130.0448,-81.2233 135.3902,-85.743"/>
</g>
<!-- Node3 -->
<g id="node4" class="node">
<title>Node3</title>
<polygon fill="#ffffff" stroke="#bfbfbf" points="6.5,-.5 6.5,-19.5 56.5,-19.5 56.5,-.5 6.5,-.5"/>
<text text-anchor="middle" x="31.5" y="-7.5" font-family="Helvetica,sans-Serif" font-size="10.00" fill="#000000">limits.h</text>
</g>
<!-- Node2&#45;&gt;Node3 -->
<g id="edge3" class="edge">
<title>Node2&#45;&gt;Node3</title>
<path fill="none" stroke="#191970" d="M127.5589,-56.3733C109.0214,-47.4241 81.1972,-33.9917 60.2587,-23.8835"/>
<polygon fill="#191970" stroke="#191970" points="61.7081,-20.6967 51.1809,-19.5011 58.6648,-27.0006 61.7081,-20.6967"/>
</g>
<!-- Node4 -->
<g id="node5" class="node">
<title>Node4</title>
<polygon fill="#ffffff" stroke="#bfbfbf" points="74.5,-.5 74.5,-19.5 134.5,-19.5 134.5,-.5 74.5,-.5"/>
<text text-anchor="middle" x="104.5" y="-7.5" font-family="Helvetica,sans-Serif" font-size="10.00" fill="#000000">stdbool.h</text>
</g>
<!-- Node2&#45;&gt;Node4 -->
<g id="edge4" class="edge">
<title>Node2&#45;&gt;Node4</title>
<path fill="none" stroke="#191970" d="M140.01,-56.2455C133.9674,-48.3761 125.3097,-37.101 118.0559,-27.6542"/>
<polygon fill="#191970" stroke="#191970" points="120.7705,-25.4426 111.9042,-19.6427 115.2185,-29.7058 120.7705,-25.4426"/>
</g>
<!-- Node5 -->
<g id="node6" class="node">
<title>Node5</title>
<polygon fill="#ffffff" stroke="#bfbfbf" points="153,-.5 153,-19.5 230,-19.5 230,-.5 153,-.5"/>
<text text-anchor="middle" x="191.5" y="-7.5" font-family="Helvetica,sans-Serif" font-size="10.00" fill="#000000">periph_cpu.h</text>
</g>
<!-- Node2&#45;&gt;Node5 -->
<g id="edge5" class="edge">
<title>Node2&#45;&gt;Node5</title>
<path fill="none" stroke="#191970" d="M155.1642,-56.2455C161.3473,-48.3761 170.2063,-37.101 177.6289,-27.6542"/>
<polygon fill="#191970" stroke="#191970" points="180.4975,-29.6683 183.9236,-19.6427 174.9932,-25.3435 180.4975,-29.6683"/>
</g>
<!-- Node6 -->
<g id="node7" class="node">
<title>Node6</title>
<polygon fill="#ffffff" stroke="#bfbfbf" points="248,-.5 248,-19.5 329,-19.5 329,-.5 248,-.5"/>
<text text-anchor="middle" x="288.5" y="-7.5" font-family="Helvetica,sans-Serif" font-size="10.00" fill="#000000">periph_conf.h</text>
</g>
<!-- Node2&#45;&gt;Node6 -->
<g id="edge6" class="edge">
<title>Node2&#45;&gt;Node6</title>
<path fill="none" stroke="#191970" d="M171.7388,-56.3733C194.7789,-47.2226 229.6214,-33.3844 255.2501,-23.2057"/>
<polygon fill="#191970" stroke="#191970" points="256.5756,-26.4452 264.5775,-19.5011 253.9918,-19.9395 256.5756,-26.4452"/>
</g>
</g>
</svg>
