<?xml version="1.0" encoding="UTF-8" standalone="no"?>
<!DOCTYPE svg PUBLIC "-//W3C//DTD SVG 1.1//EN"
 "http://www.w3.org/Graphics/SVG/1.1/DTD/svg11.dtd">
<!-- Generated by graphviz version 2.40.1 (0)
 -->
<!-- Title: sys/include/hashes/aes128_cmac.h Pages: 1 -->
<svg width="370pt" height="375pt"
 viewBox="0.00 0.00 370.00 375.00" xmlns="http://www.w3.org/2000/svg" xmlns:xlink="http://www.w3.org/1999/xlink">
<g id="graph0" class="graph" transform="scale(1 1) rotate(0) translate(4 371)">
<title>sys/include/hashes/aes128_cmac.h</title>
<polygon fill="#ffffff" stroke="transparent" points="-4,4 -4,-371 366,-371 366,4 -4,4"/>
<!-- Node0 -->
<g id="node1" class="node">
<title>Node0</title>
<polygon fill="#bfbfbf" stroke="#000000" points="133.5,-336.5 133.5,-366.5 237.5,-366.5 237.5,-336.5 133.5,-336.5"/>
<text text-anchor="start" x="141.5" y="-354.5" font-family="Helvetica,sans-Serif" font-size="10.00" fill="#000000">sys/include/hashes</text>
<text text-anchor="middle" x="185.5" y="-343.5" font-family="Helvetica,sans-Serif" font-size="10.00" fill="#000000">/aes128_cmac.h</text>
</g>
<!-- Node1 -->
<g id="node2" class="node">
<title>Node1</title>
<g id="a_node2"><a xlink:href="stdio_8h.html" target="_top" xlink:title="stdio wrapper to extend the C libs stdio ">
<polygon fill="#ffffff" stroke="#000000" points="129.5,-280.5 129.5,-299.5 177.5,-299.5 177.5,-280.5 129.5,-280.5"/>
<text text-anchor="middle" x="153.5" y="-287.5" font-family="Helvetica,sans-Serif" font-size="10.00" fill="#000000">stdio.h</text>
</a>
</g>
</g>
<!-- Node0&#45;&gt;Node1 -->
<g id="edge1" class="edge">
<title>Node0&#45;&gt;Node1</title>
<path fill="none" stroke="#191970" d="M177.5899,-336.2977C173.2868,-328.0277 167.9242,-317.7215 163.3518,-308.9339"/>
<polygon fill="#191970" stroke="#191970" points="166.3443,-307.1024 158.6236,-299.8469 160.1346,-310.3335 166.3443,-307.1024"/>
</g>
<!-- Node13 -->
<g id="node14" class="node">
<title>Node13</title>
<g id="a_node14"><a xlink:href="ciphers_8h.html" target="_top" xlink:title="Headers for the packet encryption class. ">
<polygon fill="#ffffff" stroke="#000000" points="269,-168.5 269,-187.5 362,-187.5 362,-168.5 269,-168.5"/>
<text text-anchor="middle" x="315.5" y="-175.5" font-family="Helvetica,sans-Serif" font-size="10.00" fill="#000000">crypto/ciphers.h</text>
</a>
</g>
</g>
<!-- Node0&#45;&gt;Node13 -->
<g id="edge17" class="edge">
<title>Node0&#45;&gt;Node13</title>
<path fill="none" stroke="#191970" d="M196.8092,-336.4065C220.7394,-304.469 276.4031,-230.1793 302.0818,-195.9081"/>
<polygon fill="#191970" stroke="#191970" points="305.0081,-197.8395 308.2035,-187.738 299.4062,-193.6421 305.0081,-197.8395"/>
</g>
<!-- Node2 -->
<g id="node3" class="node">
<title>Node2</title>
<g id="a_node3"><a xlink:href="flash__utils_8h.html" target="_top" xlink:title="Utility functions, macros, and types for read&#45;only memory. ">
<polygon fill="#ffffff" stroke="#000000" points="118,-224.5 118,-243.5 189,-243.5 189,-224.5 118,-224.5"/>
<text text-anchor="middle" x="153.5" y="-231.5" font-family="Helvetica,sans-Serif" font-size="10.00" fill="#000000">flash_utils.h</text>
</a>
</g>
</g>
<!-- Node1&#45;&gt;Node2 -->
<g id="edge2" class="edge">
<title>Node1&#45;&gt;Node2</title>
<path fill="none" stroke="#191970" d="M148.2332,-280.2455C146.8221,-272.9382 146.4179,-262.6944 147.0205,-253.7046"/>
<polygon fill="#191970" stroke="#191970" points="150.5111,-253.9945 148.2549,-243.6427 143.5632,-253.1421 150.5111,-253.9945"/>
</g>
<!-- Node2&#45;&gt;Node1 -->
<g id="edge3" class="edge">
<title>Node2&#45;&gt;Node1</title>
<path fill="none" stroke="#191970" d="M158.7451,-243.6427C160.1665,-250.9199 160.581,-261.155 159.9887,-270.1575"/>
<polygon fill="#191970" stroke="#191970" points="156.4947,-269.8972 158.7668,-280.2455 163.4439,-270.739 156.4947,-269.8972"/>
</g>
<!-- Node3 -->
<g id="node4" class="node">
<title>Node3</title>
<polygon fill="#ffffff" stroke="#bfbfbf" points="0,-168.5 0,-187.5 53,-187.5 53,-168.5 0,-168.5"/>
<text text-anchor="middle" x="26.5" y="-175.5" font-family="Helvetica,sans-Serif" font-size="10.00" fill="#000000">string.h</text>
</g>
<!-- Node2&#45;&gt;Node3 -->
<g id="edge4" class="edge">
<title>Node2&#45;&gt;Node3</title>
<path fill="none" stroke="#191970" d="M131.6679,-224.3733C111.1897,-215.3435 80.3601,-201.7494 57.3681,-191.6111"/>
<polygon fill="#191970" stroke="#191970" points="58.6093,-188.3333 48.0472,-187.5011 55.785,-194.7383 58.6093,-188.3333"/>
</g>
<!-- Node4 -->
<g id="node5" class="node">
<title>Node4</title>
<polygon fill="#ffffff" stroke="#bfbfbf" points="71,-168.5 71,-187.5 138,-187.5 138,-168.5 71,-168.5"/>
<text text-anchor="middle" x="104.5" y="-175.5" font-family="Helvetica,sans-Serif" font-size="10.00" fill="#000000">cpu_conf.h</text>
</g>
<!-- Node2&#45;&gt;Node4 -->
<g id="edge5" class="edge">
<title>Node2&#45;&gt;Node4</title>
<path fill="none" stroke="#191970" d="M144.9649,-224.2455C138.0088,-216.2958 128.0117,-204.8706 119.6949,-195.3656"/>
<polygon fill="#191970" stroke="#191970" points="122.1564,-192.8637 112.9373,-187.6427 116.8884,-197.4732 122.1564,-192.8637"/>
</g>
<!-- Node5 -->
<g id="node6" class="node">
<title>Node5</title>
<g id="a_node6"><a xlink:href="kernel__defines_8h.html" target="_top" xlink:title="Common macros and compiler attributes/pragmas configuration. ">
<polygon fill="#ffffff" stroke="#000000" points="156,-168.5 156,-187.5 251,-187.5 251,-168.5 156,-168.5"/>
<text text-anchor="middle" x="203.5" y="-175.5" font-family="Helvetica,sans-Serif" font-size="10.00" fill="#000000">kernel_defines.h</text>
</a>
</g>
</g>
<!-- Node2&#45;&gt;Node5 -->
<g id="edge6" class="edge">
<title>Node2&#45;&gt;Node5</title>
<path fill="none" stroke="#191970" d="M162.2093,-224.2455C169.3073,-216.2958 179.5084,-204.8706 187.995,-195.3656"/>
<polygon fill="#191970" stroke="#191970" points="190.8411,-197.4331 194.8905,-187.6427 185.6195,-192.771 190.8411,-197.4331"/>
</g>
<!-- Node6 -->
<g id="node7" class="node">
<title>Node6</title>
<g id="a_node7"><a xlink:href="modules_8h.html" target="_top" xlink:title="Common macros and compiler attributes/pragmas configuration. ">
<polygon fill="#ffffff" stroke="#000000" points="270,-112.5 270,-131.5 335,-131.5 335,-112.5 270,-112.5"/>
<text text-anchor="middle" x="302.5" y="-119.5" font-family="Helvetica,sans-Serif" font-size="10.00" fill="#000000">modules.h</text>
</a>
</g>
</g>
<!-- Node5&#45;&gt;Node6 -->
<g id="edge7" class="edge">
<title>Node5&#45;&gt;Node6</title>
<path fill="none" stroke="#191970" d="M220.7445,-168.2455C236.0761,-159.5731 258.7199,-146.7645 276.2916,-136.825"/>
<polygon fill="#191970" stroke="#191970" points="278.4724,-139.6126 285.4531,-131.6427 275.0259,-133.5198 278.4724,-139.6126"/>
</g>
<!-- Node7 -->
<g id="node8" class="node">
<title>Node7</title>
<g id="a_node8"><a xlink:href="riot__version_8h.html" target="_top" xlink:title="Common macros and compiler attributes/pragmas configuration. ">
<polygon fill="#ffffff" stroke="#000000" points="0,-56.5 0,-75.5 81,-75.5 81,-56.5 0,-56.5"/>
<text text-anchor="middle" x="40.5" y="-63.5" font-family="Helvetica,sans-Serif" font-size="10.00" fill="#000000">riot_version.h</text>
</a>
</g>
</g>
<!-- Node5&#45;&gt;Node7 -->
<g id="edge8" class="edge">
<title>Node5&#45;&gt;Node7</title>
<path fill="none" stroke="#191970" d="M160.5308,-168.4812C124.4198,-159.6928 76.5187,-145.9293 62.5,-132 50.2105,-119.7889 44.7861,-100.5416 42.3918,-85.9765"/>
<polygon fill="#191970" stroke="#191970" points="45.8478,-85.4107 41.088,-75.9452 38.9061,-86.313 45.8478,-85.4107"/>
</g>
<!-- Node9 -->
<g id="node10" class="node">
<title>Node9</title>
<g id="a_node10"><a xlink:href="compiler__hints_8h.html" target="_top" xlink:title="Common macros and compiler attributes/pragmas configuration. ">
<polygon fill="#ffffff" stroke="#000000" points="72,-112.5 72,-131.5 165,-131.5 165,-112.5 72,-112.5"/>
<text text-anchor="middle" x="118.5" y="-119.5" font-family="Helvetica,sans-Serif" font-size="10.00" fill="#000000">compiler_hints.h</text>
</a>
</g>
</g>
<!-- Node5&#45;&gt;Node9 -->
<g id="edge10" class="edge">
<title>Node5&#45;&gt;Node9</title>
<path fill="none" stroke="#191970" d="M188.6941,-168.2455C175.7744,-159.7337 156.8069,-147.2375 141.8448,-137.3801"/>
<polygon fill="#191970" stroke="#191970" points="143.4124,-134.2216 133.1362,-131.6427 139.5613,-140.067 143.4124,-134.2216"/>
</g>
<!-- Node11 -->
<g id="node12" class="node">
<title>Node11</title>
<g id="a_node12"><a xlink:href="container_8h.html" target="_top" xlink:title="Common macros and compiler attributes/pragmas configuration. ">
<polygon fill="#ffffff" stroke="#000000" points="183,-112.5 183,-131.5 252,-131.5 252,-112.5 183,-112.5"/>
<text text-anchor="middle" x="217.5" y="-119.5" font-family="Helvetica,sans-Serif" font-size="10.00" fill="#000000">container.h</text>
</a>
</g>
</g>
<!-- Node5&#45;&gt;Node11 -->
<g id="edge14" class="edge">
<title>Node5&#45;&gt;Node11</title>
<path fill="none" stroke="#191970" d="M205.9386,-168.2455C207.7855,-160.8579 210.3828,-150.4689 212.6478,-141.4087"/>
<polygon fill="#191970" stroke="#191970" points="216.0594,-142.193 215.0893,-131.6427 209.2684,-140.4952 216.0594,-142.193"/>
</g>
<!-- Node8 -->
<g id="node9" class="node">
<title>Node8</title>
<polygon fill="#ffffff" stroke="#bfbfbf" points="138.5,-.5 138.5,-19.5 190.5,-19.5 190.5,-.5 138.5,-.5"/>
<text text-anchor="middle" x="164.5" y="-7.5" font-family="Helvetica,sans-Serif" font-size="10.00" fill="#000000">stdint.h</text>
</g>
<!-- Node7&#45;&gt;Node8 -->
<g id="edge9" class="edge">
<title>Node7&#45;&gt;Node8</title>
<path fill="none" stroke="#191970" d="M61.8164,-56.3733C81.7216,-47.3838 111.6436,-33.8706 134.06,-23.7471"/>
<polygon fill="#191970" stroke="#191970" points="135.7887,-26.8068 143.4618,-19.5011 132.9075,-20.4272 135.7887,-26.8068"/>
</g>
<!-- Node9&#45;&gt;Node8 -->
<g id="edge13" class="edge">
<title>Node9&#45;&gt;Node8</title>
<path fill="none" stroke="#191970" d="M118.4527,-112.1794C118.7246,-98.9009 120.4219,-74.729 128.5,-56 133.0309,-45.4951 140.5595,-35.3158 147.5639,-27.2151"/>
<polygon fill="#191970" stroke="#191970" points="150.362,-29.3416 154.5258,-19.5992 145.1954,-24.6186 150.362,-29.3416"/>
</g>
<!-- Node10 -->
<g id="node11" class="node">
<title>Node10</title>
<g id="a_node11"><a xlink:href="assert_8h.html" target="_top" xlink:title="POSIX.1&#45;2008 compliant version of the assert macro. ">
<polygon fill="#ffffff" stroke="#000000" points="137.5,-56.5 137.5,-75.5 191.5,-75.5 191.5,-56.5 137.5,-56.5"/>
<text text-anchor="middle" x="164.5" y="-63.5" font-family="Helvetica,sans-Serif" font-size="10.00" fill="#000000">assert.h</text>
</a>
</g>
</g>
<!-- Node9&#45;&gt;Node10 -->
<g id="edge11" class="edge">
<title>Node9&#45;&gt;Node10</title>
<path fill="none" stroke="#191970" d="M126.5126,-112.2455C132.9768,-104.3761 142.2385,-93.101 149.9983,-83.6542"/>
<polygon fill="#191970" stroke="#191970" points="152.9364,-85.5916 156.5792,-75.6427 147.5273,-81.1484 152.9364,-85.5916"/>
</g>
<!-- Node10&#45;&gt;Node8 -->
<g id="edge12" class="edge">
<title>Node10&#45;&gt;Node8</title>
<path fill="none" stroke="#191970" d="M164.5,-56.2455C164.5,-48.9382 164.5,-38.6944 164.5,-29.7046"/>
<polygon fill="#191970" stroke="#191970" points="168.0001,-29.6426 164.5,-19.6427 161.0001,-29.6427 168.0001,-29.6426"/>
</g>
<!-- Node11&#45;&gt;Node8 -->
<g id="edge16" class="edge">
<title>Node11&#45;&gt;Node8</title>
<path fill="none" stroke="#191970" d="M216.2551,-112.1645C214.2909,-98.8691 209.7092,-74.678 200.5,-56 195.4409,-45.7391 187.8496,-35.5887 180.9404,-27.444"/>
<polygon fill="#191970" stroke="#191970" points="183.3777,-24.9175 174.1218,-19.7619 178.1425,-29.5643 183.3777,-24.9175"/>
</g>
<!-- Node12 -->
<g id="node13" class="node">
<title>Node12</title>
<polygon fill="#ffffff" stroke="#bfbfbf" points="247.5,-56.5 247.5,-75.5 303.5,-75.5 303.5,-56.5 247.5,-56.5"/>
<text text-anchor="middle" x="275.5" y="-63.5" font-family="Helvetica,sans-Serif" font-size="10.00" fill="#000000">stddef.h</text>
</g>
<!-- Node11&#45;&gt;Node12 -->
<g id="edge15" class="edge">
<title>Node11&#45;&gt;Node12</title>
<path fill="none" stroke="#191970" d="M227.6028,-112.2455C236.0028,-104.1352 248.1494,-92.4075 258.1084,-82.7919"/>
<polygon fill="#191970" stroke="#191970" points="260.75,-85.1066 265.5129,-75.6427 255.8878,-80.0707 260.75,-85.1066"/>
</g>
<!-- Node13&#45;&gt;Node6 -->
<g id="edge19" class="edge">
<title>Node13&#45;&gt;Node6</title>
<path fill="none" stroke="#191970" d="M313.2356,-168.2455C311.5206,-160.8579 309.1088,-150.4689 307.0056,-141.4087"/>
<polygon fill="#191970" stroke="#191970" points="310.4092,-140.5922 304.7385,-131.6427 303.5905,-142.1751 310.4092,-140.5922"/>
</g>
<!-- Node13&#45;&gt;Node8 -->
<g id="edge18" class="edge">
<title>Node13&#45;&gt;Node8</title>
<path fill="none" stroke="#191970" d="M323.9977,-168.2186C331.0403,-159.4179 340.5171,-145.786 344.5,-132 354.6724,-96.7902 341.0784,-78.9452 312.5,-56 280.1258,-30.0073 233.0106,-18.6367 200.6856,-13.7045"/>
<polygon fill="#191970" stroke="#191970" points="201.1351,-10.2334 190.7476,-12.3191 200.1686,-17.1664 201.1351,-10.2334"/>
</g>
</g>
</svg>
