<?xml version="1.0" encoding="UTF-8" standalone="no"?>
<!DOCTYPE svg PUBLIC "-//W3C//DTD SVG 1.1//EN"
 "http://www.w3.org/Graphics/SVG/1.1/DTD/svg11.dtd">
<!-- Generated by graphviz version 2.40.1 (0)
 -->
<!-- Title: boards/alientek&#45;pandora/include/gpio_params.h Pages: 1 -->
<svg width="923pt" height="375pt"
 viewBox="0.00 0.00 923.10 375.00" xmlns="http://www.w3.org/2000/svg" xmlns:xlink="http://www.w3.org/1999/xlink">
<g id="graph0" class="graph" transform="scale(1 1) rotate(0) translate(4 371)">
<title>boards/alientek&#45;pandora/include/gpio_params.h</title>
<polygon fill="#ffffff" stroke="transparent" points="-4,4 -4,-371 919.1011,-371 919.1011,4 -4,4"/>
<!-- Node0 -->
<g id="node1" class="node">
<title>Node0</title>
<polygon fill="#bfbfbf" stroke="#000000" points="343.5,-336.5 343.5,-366.5 474.5,-366.5 474.5,-336.5 343.5,-336.5"/>
<text text-anchor="start" x="351.5" y="-354.5" font-family="Helvetica,sans-Serif" font-size="10.00" fill="#000000">boards/alientek&#45;pandora</text>
<text text-anchor="middle" x="409" y="-343.5" font-family="Helvetica,sans-Serif" font-size="10.00" fill="#000000">/include/gpio_params.h</text>
</g>
<!-- Node1 -->
<g id="node2" class="node">
<title>Node1</title>
<g id="a_node2"><a xlink:href="alientek-pandora_2include_2board_8h.html" target="_top" xlink:title="Board specific definitions for the Alientek Pandora board. ">
<polygon fill="#ffffff" stroke="#000000" points="355.5,-280.5 355.5,-299.5 408.5,-299.5 408.5,-280.5 355.5,-280.5"/>
<text text-anchor="middle" x="382" y="-287.5" font-family="Helvetica,sans-Serif" font-size="10.00" fill="#000000">board.h</text>
</a>
</g>
</g>
<!-- Node0&#45;&gt;Node1 -->
<g id="edge1" class="edge">
<title>Node0&#45;&gt;Node1</title>
<path fill="none" stroke="#191970" d="M402.3258,-336.2977C398.7341,-328.1166 394.2676,-317.943 390.4371,-309.2179"/>
<polygon fill="#191970" stroke="#191970" points="393.5478,-307.5964 386.323,-299.8469 387.1382,-310.4104 393.5478,-307.5964"/>
</g>
<!-- Node22 -->
<g id="node23" class="node">
<title>Node22</title>
<g id="a_node23"><a xlink:href="periph_8h.html" target="_top" xlink:title="Parameter definitions for mapping peripherals directly to SAUL. ">
<polygon fill="#ffffff" stroke="#000000" points="673,-112.5 673,-131.5 751,-131.5 751,-112.5 673,-112.5"/>
<text text-anchor="middle" x="712" y="-119.5" font-family="Helvetica,sans-Serif" font-size="10.00" fill="#000000">saul/periph.h</text>
</a>
</g>
</g>
<!-- Node0&#45;&gt;Node22 -->
<g id="edge32" class="edge">
<title>Node0&#45;&gt;Node22</title>
<path fill="none" stroke="#191970" d="M428.8807,-336.4419C483.4939,-295.0764 635.4488,-179.9819 691.1711,-137.7764"/>
<polygon fill="#191970" stroke="#191970" points="693.4,-140.4788 699.2583,-131.6509 689.1735,-134.8987 693.4,-140.4788"/>
</g>
<!-- Node2 -->
<g id="node3" class="node">
<title>Node2</title>
<polygon fill="#ffffff" stroke="#bfbfbf" points="278,-.5 278,-19.5 330,-19.5 330,-.5 278,-.5"/>
<text text-anchor="middle" x="304" y="-7.5" font-family="Helvetica,sans-Serif" font-size="10.00" fill="#000000">stdint.h</text>
</g>
<!-- Node1&#45;&gt;Node2 -->
<g id="edge2" class="edge">
<title>Node1&#45;&gt;Node2</title>
<path fill="none" stroke="#191970" d="M355.4418,-287.9935C268.8127,-280.7289 0,-252.2081 0,-178 0,-178 0,-178 0,-122 0,-75.9062 38.4185,-75.8901 80,-56 141.8001,-26.4385 222.0617,-15.829 267.8175,-12.0535"/>
<polygon fill="#191970" stroke="#191970" points="268.151,-15.5383 277.8568,-11.2898 267.6201,-8.5584 268.151,-15.5383"/>
</g>
<!-- Node3 -->
<g id="node4" class="node">
<title>Node3</title>
<polygon fill="#ffffff" stroke="#bfbfbf" points="382,-224.5 382,-243.5 424,-243.5 424,-224.5 382,-224.5"/>
<text text-anchor="middle" x="403" y="-231.5" font-family="Helvetica,sans-Serif" font-size="10.00" fill="#000000">cpu.h</text>
</g>
<!-- Node1&#45;&gt;Node3 -->
<g id="edge3" class="edge">
<title>Node1&#45;&gt;Node3</title>
<path fill="none" stroke="#191970" d="M385.6579,-280.2455C388.4584,-272.7776 392.409,-262.2427 395.8324,-253.1137"/>
<polygon fill="#191970" stroke="#191970" points="399.1499,-254.2349 399.384,-243.6427 392.5955,-251.777 399.1499,-254.2349"/>
</g>
<!-- Node4 -->
<g id="node5" class="node">
<title>Node4</title>
<g id="a_node5"><a xlink:href="stm32__leds_8h.html" target="_top" xlink:title="Common LED macros. ">
<polygon fill="#ffffff" stroke="#000000" points="286,-224.5 286,-243.5 364,-243.5 364,-224.5 286,-224.5"/>
<text text-anchor="middle" x="325" y="-231.5" font-family="Helvetica,sans-Serif" font-size="10.00" fill="#000000">stm32_leds.h</text>
</a>
</g>
</g>
<!-- Node1&#45;&gt;Node4 -->
<g id="edge4" class="edge">
<title>Node1&#45;&gt;Node4</title>
<path fill="none" stroke="#191970" d="M372.0714,-280.2455C363.8162,-272.1352 351.8791,-260.4075 342.0918,-250.7919"/>
<polygon fill="#191970" stroke="#191970" points="344.4011,-248.1542 334.8149,-243.6427 339.4954,-253.1476 344.4011,-248.1542"/>
</g>
<!-- Node5 -->
<g id="node6" class="node">
<title>Node5</title>
<g id="a_node6"><a xlink:href="gpio__ll_8h.html" target="_top" xlink:title="Peripheral GPIO Low&#45;Level API. ">
<polygon fill="#ffffff" stroke="#000000" points="459.5,-112.5 459.5,-131.5 548.5,-131.5 548.5,-112.5 459.5,-112.5"/>
<text text-anchor="middle" x="504" y="-119.5" font-family="Helvetica,sans-Serif" font-size="10.00" fill="#000000">periph/gpio_ll.h</text>
</a>
</g>
</g>
<!-- Node4&#45;&gt;Node5 -->
<g id="edge5" class="edge">
<title>Node4&#45;&gt;Node5</title>
<path fill="none" stroke="#191970" d="M340.2614,-224.4509C371.4375,-204.9441 442.6394,-160.3932 480.0414,-136.9909"/>
<polygon fill="#191970" stroke="#191970" points="482.1564,-139.7962 488.7772,-131.5249 478.4434,-133.8621 482.1564,-139.7962"/>
</g>
<!-- Node16 -->
<g id="node17" class="node">
<title>Node16</title>
<g id="a_node17"><a xlink:href="kernel__defines_8h.html" target="_top" xlink:title="Common macros and compiler attributes/pragmas configuration. ">
<polygon fill="#ffffff" stroke="#000000" points="191.5,-168.5 191.5,-187.5 286.5,-187.5 286.5,-168.5 191.5,-168.5"/>
<text text-anchor="middle" x="239" y="-175.5" font-family="Helvetica,sans-Serif" font-size="10.00" fill="#000000">kernel_defines.h</text>
</a>
</g>
</g>
<!-- Node4&#45;&gt;Node16 -->
<g id="edge22" class="edge">
<title>Node4&#45;&gt;Node16</title>
<path fill="none" stroke="#191970" d="M310.0199,-224.2455C296.8249,-215.6534 277.3949,-203.0014 262.1921,-193.1018"/>
<polygon fill="#191970" stroke="#191970" points="264.0983,-190.1665 253.8084,-187.6427 260.2785,-196.0325 264.0983,-190.1665"/>
</g>
<!-- Node5&#45;&gt;Node2 -->
<g id="edge9" class="edge">
<title>Node5&#45;&gt;Node2</title>
<path fill="none" stroke="#191970" d="M466.787,-112.4539C440.7867,-104.8399 405.8769,-92.6792 378,-76 355.5644,-62.5764 333.7042,-41.8509 319.633,-27.2119"/>
<polygon fill="#191970" stroke="#191970" points="322.0601,-24.6836 312.6629,-19.7904 316.9576,-29.4758 322.0601,-24.6836"/>
</g>
<!-- Node6 -->
<g id="node7" class="node">
<title>Node6</title>
<g id="a_node7"><a xlink:href="assert_8h.html" target="_top" xlink:title="POSIX.1&#45;2008 compliant version of the assert macro. ">
<polygon fill="#ffffff" stroke="#000000" points="277,-56.5 277,-75.5 331,-75.5 331,-56.5 277,-56.5"/>
<text text-anchor="middle" x="304" y="-63.5" font-family="Helvetica,sans-Serif" font-size="10.00" fill="#000000">assert.h</text>
</a>
</g>
</g>
<!-- Node5&#45;&gt;Node6 -->
<g id="edge6" class="edge">
<title>Node5&#45;&gt;Node6</title>
<path fill="none" stroke="#191970" d="M469.6188,-112.3733C433.7861,-102.3401 377.828,-86.6718 341.0373,-76.3704"/>
<polygon fill="#191970" stroke="#191970" points="341.7748,-72.9424 331.2014,-73.6164 339.8873,-79.6831 341.7748,-72.9424"/>
</g>
<!-- Node7 -->
<g id="node8" class="node">
<title>Node7</title>
<polygon fill="#ffffff" stroke="#bfbfbf" points="645,-.5 645,-19.5 705,-19.5 705,-.5 645,-.5"/>
<text text-anchor="middle" x="675" y="-7.5" font-family="Helvetica,sans-Serif" font-size="10.00" fill="#000000">stdbool.h</text>
</g>
<!-- Node5&#45;&gt;Node7 -->
<g id="edge8" class="edge">
<title>Node5&#45;&gt;Node7</title>
<path fill="none" stroke="#191970" d="M519.4674,-112.4431C534.3034,-103.2316 557.2954,-88.8393 577,-76 603.2304,-58.9086 633.0176,-38.7374 652.7972,-25.2337"/>
<polygon fill="#191970" stroke="#191970" points="654.8536,-28.0676 661.1321,-19.5335 650.902,-22.2896 654.8536,-28.0676"/>
</g>
<!-- Node8 -->
<g id="node9" class="node">
<title>Node8</title>
<g id="a_node9"><a xlink:href="architecture_8h.html" target="_top" xlink:title="Platform&#45;independent access to architecture details. ">
<polygon fill="#ffffff" stroke="#000000" points="485.5,-56.5 485.5,-75.5 568.5,-75.5 568.5,-56.5 485.5,-56.5"/>
<text text-anchor="middle" x="527" y="-63.5" font-family="Helvetica,sans-Serif" font-size="10.00" fill="#000000">architecture.h</text>
</a>
</g>
</g>
<!-- Node5&#45;&gt;Node8 -->
<g id="edge10" class="edge">
<title>Node5&#45;&gt;Node8</title>
<path fill="none" stroke="#191970" d="M508.0063,-112.2455C511.0735,-104.7776 515.4003,-94.2427 519.1497,-85.1137"/>
<polygon fill="#191970" stroke="#191970" points="522.4779,-86.2226 523.0396,-75.6427 516.0028,-83.5631 522.4779,-86.2226"/>
</g>
<!-- Node12 -->
<g id="node13" class="node">
<title>Node12</title>
<g id="a_node13"><a xlink:href="drivers_2include_2periph_2gpio_8h.html" target="_top" xlink:title="Low&#45;level GPIO peripheral driver interface definitions. ">
<polygon fill="#ffffff" stroke="#000000" points="821,-56.5 821,-75.5 901,-75.5 901,-56.5 821,-56.5"/>
<text text-anchor="middle" x="861" y="-63.5" font-family="Helvetica,sans-Serif" font-size="10.00" fill="#000000">periph/gpio.h</text>
</a>
</g>
</g>
<!-- Node5&#45;&gt;Node12 -->
<g id="edge15" class="edge">
<title>Node5&#45;&gt;Node12</title>
<path fill="none" stroke="#191970" d="M548.751,-116.075C606.862,-108.2135 711.6627,-93.4665 811.0164,-76.1027"/>
<polygon fill="#191970" stroke="#191970" points="811.6797,-79.5399 820.9217,-74.3596 810.4664,-72.6458 811.6797,-79.5399"/>
</g>
<!-- Node13 -->
<g id="node14" class="node">
<title>Node13</title>
<polygon fill="#ffffff" stroke="#bfbfbf" points="822.5,-.5 822.5,-19.5 899.5,-19.5 899.5,-.5 822.5,-.5"/>
<text text-anchor="middle" x="861" y="-7.5" font-family="Helvetica,sans-Serif" font-size="10.00" fill="#000000">periph_cpu.h</text>
</g>
<!-- Node5&#45;&gt;Node13 -->
<g id="edge20" class="edge">
<title>Node5&#45;&gt;Node13</title>
<path fill="none" stroke="#191970" d="M548.5982,-118.537C651.574,-110.3283 898.054,-89.3759 910,-76 924.5912,-59.6623 904.07,-39.1894 885.2962,-25.4134"/>
<polygon fill="#191970" stroke="#191970" points="887.1345,-22.4287 876.9258,-19.594 883.1386,-28.1761 887.1345,-22.4287"/>
</g>
<!-- Node15 -->
<g id="node16" class="node">
<title>Node15</title>
<polygon fill="#ffffff" stroke="#bfbfbf" points="387,-56.5 387,-75.5 467,-75.5 467,-56.5 387,-56.5"/>
<text text-anchor="middle" x="427" y="-63.5" font-family="Helvetica,sans-Serif" font-size="10.00" fill="#000000">gpio_ll_arch.h</text>
</g>
<!-- Node5&#45;&gt;Node15 -->
<g id="edge21" class="edge">
<title>Node5&#45;&gt;Node15</title>
<path fill="none" stroke="#191970" d="M490.5876,-112.2455C478.9943,-103.814 462.0252,-91.4729 448.5322,-81.6598"/>
<polygon fill="#191970" stroke="#191970" points="450.4047,-78.6938 440.2587,-75.6427 446.2874,-84.355 450.4047,-78.6938"/>
</g>
<!-- Node6&#45;&gt;Node2 -->
<g id="edge7" class="edge">
<title>Node6&#45;&gt;Node2</title>
<path fill="none" stroke="#191970" d="M304,-56.2455C304,-48.9382 304,-38.6944 304,-29.7046"/>
<polygon fill="#191970" stroke="#191970" points="307.5001,-29.6426 304,-19.6427 300.5001,-29.6427 307.5001,-29.6426"/>
</g>
<!-- Node8&#45;&gt;Node2 -->
<g id="edge11" class="edge">
<title>Node8&#45;&gt;Node2</title>
<path fill="none" stroke="#191970" d="M488.9183,-56.4369C447.1752,-45.9543 380.7182,-29.2656 339.8725,-19.0083"/>
<polygon fill="#191970" stroke="#191970" points="340.6218,-15.5879 330.0704,-16.5468 338.9168,-22.3771 340.6218,-15.5879"/>
</g>
<!-- Node9 -->
<g id="node10" class="node">
<title>Node9</title>
<g id="a_node10"><a xlink:href="inttypes_8h.html" target="_top" xlink:title="Adds include for missing inttype definitions. ">
<polygon fill="#ffffff" stroke="#000000" points="495.5,-.5 495.5,-19.5 558.5,-19.5 558.5,-.5 495.5,-.5"/>
<text text-anchor="middle" x="527" y="-7.5" font-family="Helvetica,sans-Serif" font-size="10.00" fill="#000000">inttypes.h</text>
</a>
</g>
</g>
<!-- Node8&#45;&gt;Node9 -->
<g id="edge12" class="edge">
<title>Node8&#45;&gt;Node9</title>
<path fill="none" stroke="#191970" d="M527,-56.2455C527,-48.9382 527,-38.6944 527,-29.7046"/>
<polygon fill="#191970" stroke="#191970" points="530.5001,-29.6426 527,-19.6427 523.5001,-29.6427 530.5001,-29.6426"/>
</g>
<!-- Node10 -->
<g id="node11" class="node">
<title>Node10</title>
<polygon fill="#ffffff" stroke="#bfbfbf" points="577,-.5 577,-19.5 627,-19.5 627,-.5 577,-.5"/>
<text text-anchor="middle" x="602" y="-7.5" font-family="Helvetica,sans-Serif" font-size="10.00" fill="#000000">limits.h</text>
</g>
<!-- Node8&#45;&gt;Node10 -->
<g id="edge13" class="edge">
<title>Node8&#45;&gt;Node10</title>
<path fill="none" stroke="#191970" d="M540.064,-56.2455C551.3562,-47.814 567.8845,-35.4729 581.0271,-25.6598"/>
<polygon fill="#191970" stroke="#191970" points="583.1669,-28.4301 589.0857,-19.6427 578.9789,-22.8211 583.1669,-28.4301"/>
</g>
<!-- Node11 -->
<g id="node12" class="node">
<title>Node11</title>
<polygon fill="#ffffff" stroke="#bfbfbf" points="370.5,-.5 370.5,-19.5 477.5,-19.5 477.5,-.5 370.5,-.5"/>
<text text-anchor="middle" x="424" y="-7.5" font-family="Helvetica,sans-Serif" font-size="10.00" fill="#000000">architecture_arch.h</text>
</g>
<!-- Node8&#45;&gt;Node11 -->
<g id="edge14" class="edge">
<title>Node8&#45;&gt;Node11</title>
<path fill="none" stroke="#191970" d="M509.0588,-56.2455C492.96,-47.4928 469.1121,-34.527 450.7609,-24.5496"/>
<polygon fill="#191970" stroke="#191970" points="452.1929,-21.3444 441.7356,-19.6427 448.8493,-27.4942 452.1929,-21.3444"/>
</g>
<!-- Node12&#45;&gt;Node7 -->
<g id="edge17" class="edge">
<title>Node12&#45;&gt;Node7</title>
<path fill="none" stroke="#191970" d="M829.0255,-56.3733C797.356,-46.8384 748.7829,-32.2142 714.6698,-21.9436"/>
<polygon fill="#191970" stroke="#191970" points="715.605,-18.57 705.0205,-19.0384 713.5869,-25.2728 715.605,-18.57"/>
</g>
<!-- Node12&#45;&gt;Node10 -->
<g id="edge16" class="edge">
<title>Node12&#45;&gt;Node10</title>
<path fill="none" stroke="#191970" d="M820.7625,-57.7847C765.1534,-46.4296 668.7032,-26.7299 636.9728,-19.8725"/>
<polygon fill="#191970" stroke="#191970" points="637.7114,-16.4512 627.1864,-17.6649 636.1711,-23.2797 637.7114,-16.4512"/>
</g>
<!-- Node12&#45;&gt;Node13 -->
<g id="edge18" class="edge">
<title>Node12&#45;&gt;Node13</title>
<path fill="none" stroke="#191970" d="M861,-56.2455C861,-48.9382 861,-38.6944 861,-29.7046"/>
<polygon fill="#191970" stroke="#191970" points="864.5001,-29.6426 861,-19.6427 857.5001,-29.6427 864.5001,-29.6426"/>
</g>
<!-- Node14 -->
<g id="node15" class="node">
<title>Node14</title>
<polygon fill="#ffffff" stroke="#bfbfbf" points="723.5,-.5 723.5,-19.5 804.5,-19.5 804.5,-.5 723.5,-.5"/>
<text text-anchor="middle" x="764" y="-7.5" font-family="Helvetica,sans-Serif" font-size="10.00" fill="#000000">periph_conf.h</text>
</g>
<!-- Node12&#45;&gt;Node14 -->
<g id="edge19" class="edge">
<title>Node12&#45;&gt;Node14</title>
<path fill="none" stroke="#191970" d="M844.1039,-56.2455C829.082,-47.5731 806.8957,-34.7645 789.679,-24.825"/>
<polygon fill="#191970" stroke="#191970" points="791.1128,-21.6114 780.7025,-19.6427 787.6129,-27.6737 791.1128,-21.6114"/>
</g>
<!-- Node17 -->
<g id="node18" class="node">
<title>Node17</title>
<g id="a_node18"><a xlink:href="modules_8h.html" target="_top" xlink:title="Common macros and compiler attributes/pragmas configuration. ">
<polygon fill="#ffffff" stroke="#000000" points="28.5,-112.5 28.5,-131.5 93.5,-131.5 93.5,-112.5 28.5,-112.5"/>
<text text-anchor="middle" x="61" y="-119.5" font-family="Helvetica,sans-Serif" font-size="10.00" fill="#000000">modules.h</text>
</a>
</g>
</g>
<!-- Node16&#45;&gt;Node17 -->
<g id="edge23" class="edge">
<title>Node16&#45;&gt;Node17</title>
<path fill="none" stroke="#191970" d="M208.4007,-168.3733C178.6739,-159.021 133.3841,-144.7725 100.8544,-134.5385"/>
<polygon fill="#191970" stroke="#191970" points="101.7895,-131.1636 91.2,-131.5011 99.6887,-137.8409 101.7895,-131.1636"/>
</g>
<!-- Node18 -->
<g id="node19" class="node">
<title>Node18</title>
<g id="a_node19"><a xlink:href="riot__version_8h.html" target="_top" xlink:title="Common macros and compiler attributes/pragmas configuration. ">
<polygon fill="#ffffff" stroke="#000000" points="198.5,-112.5 198.5,-131.5 279.5,-131.5 279.5,-112.5 198.5,-112.5"/>
<text text-anchor="middle" x="239" y="-119.5" font-family="Helvetica,sans-Serif" font-size="10.00" fill="#000000">riot_version.h</text>
</a>
</g>
</g>
<!-- Node16&#45;&gt;Node18 -->
<g id="edge24" class="edge">
<title>Node16&#45;&gt;Node18</title>
<path fill="none" stroke="#191970" d="M239,-168.2455C239,-160.9382 239,-150.6944 239,-141.7046"/>
<polygon fill="#191970" stroke="#191970" points="242.5001,-141.6426 239,-131.6427 235.5001,-141.6427 242.5001,-141.6426"/>
</g>
<!-- Node19 -->
<g id="node20" class="node">
<title>Node19</title>
<g id="a_node20"><a xlink:href="compiler__hints_8h.html" target="_top" xlink:title="Common macros and compiler attributes/pragmas configuration. ">
<polygon fill="#ffffff" stroke="#000000" points="297.5,-112.5 297.5,-131.5 390.5,-131.5 390.5,-112.5 297.5,-112.5"/>
<text text-anchor="middle" x="344" y="-119.5" font-family="Helvetica,sans-Serif" font-size="10.00" fill="#000000">compiler_hints.h</text>
</a>
</g>
</g>
<!-- Node16&#45;&gt;Node19 -->
<g id="edge26" class="edge">
<title>Node16&#45;&gt;Node19</title>
<path fill="none" stroke="#191970" d="M257.2896,-168.2455C273.7762,-159.4527 298.2352,-146.4079 316.9765,-136.4125"/>
<polygon fill="#191970" stroke="#191970" points="318.7435,-139.4368 325.92,-131.6427 315.4494,-133.2604 318.7435,-139.4368"/>
</g>
<!-- Node20 -->
<g id="node21" class="node">
<title>Node20</title>
<g id="a_node21"><a xlink:href="container_8h.html" target="_top" xlink:title="Common macros and compiler attributes/pragmas configuration. ">
<polygon fill="#ffffff" stroke="#000000" points="111.5,-112.5 111.5,-131.5 180.5,-131.5 180.5,-112.5 111.5,-112.5"/>
<text text-anchor="middle" x="146" y="-119.5" font-family="Helvetica,sans-Serif" font-size="10.00" fill="#000000">container.h</text>
</a>
</g>
</g>
<!-- Node16&#45;&gt;Node20 -->
<g id="edge29" class="edge">
<title>Node16&#45;&gt;Node20</title>
<path fill="none" stroke="#191970" d="M222.8006,-168.2455C208.3982,-159.5731 187.1268,-146.7645 170.6201,-136.825"/>
<polygon fill="#191970" stroke="#191970" points="172.386,-133.8028 162.0137,-131.6427 168.775,-139.7996 172.386,-133.8028"/>
</g>
<!-- Node18&#45;&gt;Node2 -->
<g id="edge25" class="edge">
<title>Node18&#45;&gt;Node2</title>
<path fill="none" stroke="#191970" d="M240.8209,-112.4981C243.665,-99.1672 250.007,-74.476 261,-56 267.4388,-45.1784 276.7889,-34.7822 285.1268,-26.6195"/>
<polygon fill="#191970" stroke="#191970" points="287.7805,-28.9292 292.6828,-19.5367 282.9933,-23.8221 287.7805,-28.9292"/>
</g>
<!-- Node19&#45;&gt;Node2 -->
<g id="edge28" class="edge">
<title>Node19&#45;&gt;Node2</title>
<path fill="none" stroke="#191970" d="M314.4315,-112.3976C297.5892,-105.2338 277.9206,-93.6009 268,-76 258.6782,-59.4616 271.5709,-40.4102 284.444,-27.0405"/>
<polygon fill="#191970" stroke="#191970" points="287.0899,-29.351 291.853,-19.8871 282.2278,-24.3151 287.0899,-29.351"/>
</g>
<!-- Node19&#45;&gt;Node6 -->
<g id="edge27" class="edge">
<title>Node19&#45;&gt;Node6</title>
<path fill="none" stroke="#191970" d="M337.0325,-112.2455C331.4689,-104.4564 323.522,-93.3308 316.8171,-83.9439"/>
<polygon fill="#191970" stroke="#191970" points="319.5481,-81.7457 310.8876,-75.6427 313.852,-85.8144 319.5481,-81.7457"/>
</g>
<!-- Node20&#45;&gt;Node2 -->
<g id="edge31" class="edge">
<title>Node20&#45;&gt;Node2</title>
<path fill="none" stroke="#191970" d="M159.471,-112.4509C186.7563,-93.1094 248.7754,-49.1465 282.0064,-25.5904"/>
<polygon fill="#191970" stroke="#191970" points="284.429,-28.1633 290.5631,-19.5249 280.3808,-22.4526 284.429,-28.1633"/>
</g>
<!-- Node21 -->
<g id="node22" class="node">
<title>Node21</title>
<polygon fill="#ffffff" stroke="#bfbfbf" points="89,-56.5 89,-75.5 145,-75.5 145,-56.5 89,-56.5"/>
<text text-anchor="middle" x="117" y="-63.5" font-family="Helvetica,sans-Serif" font-size="10.00" fill="#000000">stddef.h</text>
</g>
<!-- Node20&#45;&gt;Node21 -->
<g id="edge30" class="edge">
<title>Node20&#45;&gt;Node21</title>
<path fill="none" stroke="#191970" d="M140.9486,-112.2455C136.9981,-104.617 131.3903,-93.7881 126.5942,-84.5267"/>
<polygon fill="#191970" stroke="#191970" points="129.7001,-82.9131 121.9935,-75.6427 123.4841,-86.1321 129.7001,-82.9131"/>
</g>
<!-- Node22&#45;&gt;Node12 -->
<g id="edge33" class="edge">
<title>Node22&#45;&gt;Node12</title>
<path fill="none" stroke="#191970" d="M737.614,-112.3733C762.0687,-103.1822 799.1054,-89.2624 826.2209,-79.0713"/>
<polygon fill="#191970" stroke="#191970" points="827.5909,-82.2956 835.7202,-75.5011 825.1281,-75.7431 827.5909,-82.2956"/>
</g>
<!-- Node23 -->
<g id="node24" class="node">
<title>Node23</title>
<g id="a_node24"><a xlink:href="adc_8h.html" target="_top" xlink:title="Low&#45;level ADC peripheral driver interface definitions. ">
<polygon fill="#ffffff" stroke="#000000" points="625,-56.5 625,-75.5 701,-75.5 701,-56.5 625,-56.5"/>
<text text-anchor="middle" x="663" y="-63.5" font-family="Helvetica,sans-Serif" font-size="10.00" fill="#000000">periph/adc.h</text>
</a>
</g>
</g>
<!-- Node22&#45;&gt;Node23 -->
<g id="edge34" class="edge">
<title>Node22&#45;&gt;Node23</title>
<path fill="none" stroke="#191970" d="M703.4649,-112.2455C696.5088,-104.2958 686.5117,-92.8706 678.1949,-83.3656"/>
<polygon fill="#191970" stroke="#191970" points="680.6564,-80.8637 671.4373,-75.6427 675.3884,-85.4732 680.6564,-80.8637"/>
</g>
<!-- Node24 -->
<g id="node25" class="node">
<title>Node24</title>
<g id="a_node25"><a xlink:href="pwm_8h.html" target="_top" xlink:title="Low&#45;level PWM peripheral driver interface definitions. ">
<polygon fill="#ffffff" stroke="#000000" points="719.5,-56.5 719.5,-75.5 802.5,-75.5 802.5,-56.5 719.5,-56.5"/>
<text text-anchor="middle" x="761" y="-63.5" font-family="Helvetica,sans-Serif" font-size="10.00" fill="#000000">periph/pwm.h</text>
</a>
</g>
</g>
<!-- Node22&#45;&gt;Node24 -->
<g id="edge39" class="edge">
<title>Node22&#45;&gt;Node24</title>
<path fill="none" stroke="#191970" d="M720.5351,-112.2455C727.4912,-104.2958 737.4883,-92.8706 745.8051,-83.3656"/>
<polygon fill="#191970" stroke="#191970" points="748.6116,-85.4732 752.5627,-75.6427 743.3436,-80.8637 748.6116,-85.4732"/>
</g>
<!-- Node23&#45;&gt;Node2 -->
<g id="edge36" class="edge">
<title>Node23&#45;&gt;Node2</title>
<path fill="none" stroke="#191970" d="M624.8178,-60.4656C567.4739,-52.0902 455.7306,-35.5223 361,-20 354.2053,-18.8866 346.9637,-17.6527 340.0013,-16.4426"/>
<polygon fill="#191970" stroke="#191970" points="340.5394,-12.9837 330.0851,-14.7035 339.3301,-19.8784 340.5394,-12.9837"/>
</g>
<!-- Node23&#45;&gt;Node10 -->
<g id="edge35" class="edge">
<title>Node23&#45;&gt;Node10</title>
<path fill="none" stroke="#191970" d="M652.3746,-56.2455C643.4527,-48.0549 630.512,-36.1749 619.9808,-26.5069"/>
<polygon fill="#191970" stroke="#191970" points="622.2371,-23.8271 612.5036,-19.6427 617.5032,-28.9837 622.2371,-23.8271"/>
</g>
<!-- Node23&#45;&gt;Node13 -->
<g id="edge37" class="edge">
<title>Node23&#45;&gt;Node13</title>
<path fill="none" stroke="#191970" d="M697.0374,-56.3733C730.3894,-46.9404 781.3527,-32.5265 817.6002,-22.2747"/>
<polygon fill="#191970" stroke="#191970" points="818.7368,-25.5906 827.4067,-19.5011 816.8316,-18.8548 818.7368,-25.5906"/>
</g>
<!-- Node23&#45;&gt;Node14 -->
<g id="edge38" class="edge">
<title>Node23&#45;&gt;Node14</title>
<path fill="none" stroke="#191970" d="M680.5929,-56.2455C696.379,-47.4928 719.7639,-34.527 737.7587,-24.5496"/>
<polygon fill="#191970" stroke="#191970" points="739.5603,-27.5528 746.6087,-19.6427 736.1659,-21.4308 739.5603,-27.5528"/>
</g>
<!-- Node24&#45;&gt;Node2 -->
<g id="edge40" class="edge">
<title>Node24&#45;&gt;Node2</title>
<path fill="none" stroke="#191970" d="M719.3049,-57.5043C716.1619,-56.9621 713.0341,-56.453 710,-56 555.7753,-32.9743 515.4468,-41.4862 361,-20 354.1804,-19.0513 346.9271,-17.8939 339.9612,-16.7075"/>
<polygon fill="#191970" stroke="#191970" points="340.4989,-13.2485 330.0448,-14.9695 339.2905,-20.1434 340.4989,-13.2485"/>
</g>
<!-- Node24&#45;&gt;Node10 -->
<g id="edge41" class="edge">
<title>Node24&#45;&gt;Node10</title>
<path fill="none" stroke="#191970" d="M733.6669,-56.3733C706.9006,-46.9461 666.009,-32.544 636.9045,-22.2934"/>
<polygon fill="#191970" stroke="#191970" points="637.7388,-18.8766 627.144,-18.8557 635.4133,-25.479 637.7388,-18.8766"/>
</g>
<!-- Node24&#45;&gt;Node13 -->
<g id="edge42" class="edge">
<title>Node24&#45;&gt;Node13</title>
<path fill="none" stroke="#191970" d="M778.4187,-56.2455C794.0485,-47.4928 817.2019,-34.527 835.0185,-24.5496"/>
<polygon fill="#191970" stroke="#191970" points="836.766,-27.5825 843.7809,-19.6427 833.3457,-21.475 836.766,-27.5825"/>
</g>
<!-- Node24&#45;&gt;Node14 -->
<g id="edge43" class="edge">
<title>Node24&#45;&gt;Node14</title>
<path fill="none" stroke="#191970" d="M761.5226,-56.2455C761.914,-48.9382 762.4628,-38.6944 762.9444,-29.7046"/>
<polygon fill="#191970" stroke="#191970" points="766.4434,-29.8156 763.4834,-19.6427 759.4534,-29.4411 766.4434,-29.8156"/>
</g>
</g>
</svg>
