<?xml version="1.0" encoding="UTF-8" standalone="no"?>
<!DOCTYPE svg PUBLIC "-//W3C//DTD SVG 1.1//EN"
 "http://www.w3.org/Graphics/SVG/1.1/DTD/svg11.dtd">
<!-- Generated by graphviz version 2.40.1 (0)
 -->
<!-- Title: sys/arduino/include/arduino_board.h Pages: 1 -->
<svg width="412pt" height="207pt"
 viewBox="0.00 0.00 411.50 207.00" xmlns="http://www.w3.org/2000/svg" xmlns:xlink="http://www.w3.org/1999/xlink">
<g id="graph0" class="graph" transform="scale(1 1) rotate(0) translate(4 203)">
<title>sys/arduino/include/arduino_board.h</title>
<polygon fill="#ffffff" stroke="transparent" points="-4,4 -4,-203 407.5,-203 407.5,4 -4,4"/>
<!-- Node0 -->
<g id="node1" class="node">
<title>Node0</title>
<polygon fill="#bfbfbf" stroke="#000000" points="154,-168.5 154,-198.5 261,-198.5 261,-168.5 154,-168.5"/>
<text text-anchor="start" x="162" y="-186.5" font-family="Helvetica,sans-Serif" font-size="10.00" fill="#000000">sys/arduino/include</text>
<text text-anchor="middle" x="207.5" y="-175.5" font-family="Helvetica,sans-Serif" font-size="10.00" fill="#000000">/arduino_board.h</text>
</g>
<!-- Node1 -->
<g id="node2" class="node">
<title>Node1</title>
<g id="a_node2"><a xlink:href="arduino__board__analog_8h.html" target="_top" xlink:title="Arduino analog pin map. ">
<polygon fill="#ffffff" stroke="#000000" points="0,-112.5 0,-131.5 129,-131.5 129,-112.5 0,-112.5"/>
<text text-anchor="middle" x="64.5" y="-119.5" font-family="Helvetica,sans-Serif" font-size="10.00" fill="#000000">arduino_board_analog.h</text>
</a>
</g>
</g>
<!-- Node0&#45;&gt;Node1 -->
<g id="edge1" class="edge">
<title>Node0&#45;&gt;Node1</title>
<path fill="none" stroke="#191970" d="M172.5183,-168.4554C149.1816,-158.419 118.7502,-145.3314 96.137,-135.6061"/>
<polygon fill="#191970" stroke="#191970" points="97.2292,-132.2659 86.6599,-131.5303 94.4636,-138.6965 97.2292,-132.2659"/>
</g>
<!-- Node8 -->
<g id="node9" class="node">
<title>Node8</title>
<g id="a_node9"><a xlink:href="arduino__board__pins_8h.html" target="_top" xlink:title="Arduino digital pin map. ">
<polygon fill="#ffffff" stroke="#000000" points="286,-112.5 286,-131.5 403,-131.5 403,-112.5 286,-112.5"/>
<text text-anchor="middle" x="344.5" y="-119.5" font-family="Helvetica,sans-Serif" font-size="10.00" fill="#000000">arduino_board_pins.h</text>
</a>
</g>
</g>
<!-- Node0&#45;&gt;Node8 -->
<g id="edge8" class="edge">
<title>Node0&#45;&gt;Node8</title>
<path fill="none" stroke="#191970" d="M241.014,-168.4554C263.2712,-158.464 292.2647,-145.4487 313.8985,-135.7372"/>
<polygon fill="#191970" stroke="#191970" points="315.5803,-138.8187 323.2699,-131.5303 312.7135,-132.4327 315.5803,-138.8187"/>
</g>
<!-- Node11 -->
<g id="node12" class="node">
<title>Node11</title>
<g id="a_node12"><a xlink:href="arduino__board__pwm_8h.html" target="_top" xlink:title="Mapping of Arduino digital pin numbers to PWM settings. ">
<polygon fill="#ffffff" stroke="#000000" points="147,-112.5 147,-131.5 268,-131.5 268,-112.5 147,-112.5"/>
<text text-anchor="middle" x="207.5" y="-119.5" font-family="Helvetica,sans-Serif" font-size="10.00" fill="#000000">arduino_board_pwm.h</text>
</a>
</g>
</g>
<!-- Node0&#45;&gt;Node11 -->
<g id="edge15" class="edge">
<title>Node0&#45;&gt;Node11</title>
<path fill="none" stroke="#191970" d="M207.5,-168.2977C207.5,-160.3834 207.5,-150.6043 207.5,-142.0759"/>
<polygon fill="#191970" stroke="#191970" points="211.0001,-141.8469 207.5,-131.8469 204.0001,-141.847 211.0001,-141.8469"/>
</g>
<!-- Node2 -->
<g id="node3" class="node">
<title>Node2</title>
<g id="a_node3"><a xlink:href="adc_8h.html" target="_top" xlink:title="Low&#45;level ADC peripheral driver interface definitions. ">
<polygon fill="#ffffff" stroke="#000000" points="11.5,-56.5 11.5,-75.5 87.5,-75.5 87.5,-56.5 11.5,-56.5"/>
<text text-anchor="middle" x="49.5" y="-63.5" font-family="Helvetica,sans-Serif" font-size="10.00" fill="#000000">periph/adc.h</text>
</a>
</g>
</g>
<!-- Node1&#45;&gt;Node2 -->
<g id="edge2" class="edge">
<title>Node1&#45;&gt;Node2</title>
<path fill="none" stroke="#191970" d="M61.8872,-112.2455C59.9084,-104.8579 57.1256,-94.4689 54.6988,-85.4087"/>
<polygon fill="#191970" stroke="#191970" points="58.0511,-84.3966 52.0829,-75.6427 51.2895,-86.2078 58.0511,-84.3966"/>
</g>
<!-- Node7 -->
<g id="node8" class="node">
<title>Node7</title>
<polygon fill="#ffffff" stroke="#bfbfbf" points="207,-56.5 207,-75.5 302,-75.5 302,-56.5 207,-56.5"/>
<text text-anchor="middle" x="254.5" y="-63.5" font-family="Helvetica,sans-Serif" font-size="10.00" fill="#000000">arduino_iomap.h</text>
</g>
<!-- Node1&#45;&gt;Node7 -->
<g id="edge7" class="edge">
<title>Node1&#45;&gt;Node7</title>
<path fill="none" stroke="#191970" d="M97.1622,-112.3733C129.0298,-102.9807 177.6531,-88.6496 212.407,-78.4064"/>
<polygon fill="#191970" stroke="#191970" points="213.6615,-81.6855 222.264,-75.5011 211.6825,-74.9711 213.6615,-81.6855"/>
</g>
<!-- Node3 -->
<g id="node4" class="node">
<title>Node3</title>
<polygon fill="#ffffff" stroke="#bfbfbf" points="80.5,-.5 80.5,-19.5 130.5,-19.5 130.5,-.5 80.5,-.5"/>
<text text-anchor="middle" x="105.5" y="-7.5" font-family="Helvetica,sans-Serif" font-size="10.00" fill="#000000">limits.h</text>
</g>
<!-- Node2&#45;&gt;Node3 -->
<g id="edge3" class="edge">
<title>Node2&#45;&gt;Node3</title>
<path fill="none" stroke="#191970" d="M59.2545,-56.2455C67.3648,-48.1352 79.0925,-36.4075 88.7081,-26.7919"/>
<polygon fill="#191970" stroke="#191970" points="91.2611,-29.1887 95.8573,-19.6427 86.3113,-24.2389 91.2611,-29.1887"/>
</g>
<!-- Node4 -->
<g id="node5" class="node">
<title>Node4</title>
<polygon fill="#ffffff" stroke="#bfbfbf" points="10.5,-.5 10.5,-19.5 62.5,-19.5 62.5,-.5 10.5,-.5"/>
<text text-anchor="middle" x="36.5" y="-7.5" font-family="Helvetica,sans-Serif" font-size="10.00" fill="#000000">stdint.h</text>
</g>
<!-- Node2&#45;&gt;Node4 -->
<g id="edge4" class="edge">
<title>Node2&#45;&gt;Node4</title>
<path fill="none" stroke="#191970" d="M47.2356,-56.2455C45.5206,-48.8579 43.1088,-38.4689 41.0056,-29.4087"/>
<polygon fill="#191970" stroke="#191970" points="44.4092,-28.5922 38.7385,-19.6427 37.5905,-30.1751 44.4092,-28.5922"/>
</g>
<!-- Node5 -->
<g id="node6" class="node">
<title>Node5</title>
<polygon fill="#ffffff" stroke="#bfbfbf" points="149,-.5 149,-19.5 226,-19.5 226,-.5 149,-.5"/>
<text text-anchor="middle" x="187.5" y="-7.5" font-family="Helvetica,sans-Serif" font-size="10.00" fill="#000000">periph_cpu.h</text>
</g>
<!-- Node2&#45;&gt;Node5 -->
<g id="edge5" class="edge">
<title>Node2&#45;&gt;Node5</title>
<path fill="none" stroke="#191970" d="M73.223,-56.3733C95.6737,-47.2629 129.5739,-33.5062 154.6255,-23.3404"/>
<polygon fill="#191970" stroke="#191970" points="156.1365,-26.5045 164.0865,-19.5011 153.5043,-20.0182 156.1365,-26.5045"/>
</g>
<!-- Node6 -->
<g id="node7" class="node">
<title>Node6</title>
<polygon fill="#ffffff" stroke="#bfbfbf" points="244,-.5 244,-19.5 325,-19.5 325,-.5 244,-.5"/>
<text text-anchor="middle" x="284.5" y="-7.5" font-family="Helvetica,sans-Serif" font-size="10.00" fill="#000000">periph_conf.h</text>
</g>
<!-- Node2&#45;&gt;Node6 -->
<g id="edge6" class="edge">
<title>Node2&#45;&gt;Node6</title>
<path fill="none" stroke="#191970" d="M87.518,-56.9404C127.529,-47.4059 190.6875,-32.3553 234.6636,-21.8759"/>
<polygon fill="#191970" stroke="#191970" points="235.6547,-25.2378 244.571,-19.515 234.032,-18.4285 235.6547,-25.2378"/>
</g>
<!-- Node8&#45;&gt;Node7 -->
<g id="edge9" class="edge">
<title>Node8&#45;&gt;Node7</title>
<path fill="none" stroke="#191970" d="M328.8232,-112.2455C315.0144,-103.6534 294.6807,-91.0014 278.7708,-81.1018"/>
<polygon fill="#191970" stroke="#191970" points="280.3368,-77.954 269.9972,-75.6427 276.6387,-83.8974 280.3368,-77.954"/>
</g>
<!-- Node9 -->
<g id="node10" class="node">
<title>Node9</title>
<g id="a_node10"><a xlink:href="drivers_2include_2periph_2gpio_8h.html" target="_top" xlink:title="Low&#45;level GPIO peripheral driver interface definitions. ">
<polygon fill="#ffffff" stroke="#000000" points="320.5,-56.5 320.5,-75.5 400.5,-75.5 400.5,-56.5 320.5,-56.5"/>
<text text-anchor="middle" x="360.5" y="-63.5" font-family="Helvetica,sans-Serif" font-size="10.00" fill="#000000">periph/gpio.h</text>
</a>
</g>
</g>
<!-- Node8&#45;&gt;Node9 -->
<g id="edge10" class="edge">
<title>Node8&#45;&gt;Node9</title>
<path fill="none" stroke="#191970" d="M347.287,-112.2455C349.3977,-104.8579 352.366,-94.4689 354.9547,-85.4087"/>
<polygon fill="#191970" stroke="#191970" points="358.363,-86.2195 357.745,-75.6427 351.6323,-84.2964 358.363,-86.2195"/>
</g>
<!-- Node9&#45;&gt;Node3 -->
<g id="edge11" class="edge">
<title>Node9&#45;&gt;Node3</title>
<path fill="none" stroke="#191970" d="M320.4631,-57.7538C266.3682,-46.6011 173.5822,-27.4291 140.4842,-19.9631"/>
<polygon fill="#191970" stroke="#191970" points="141.2251,-16.5419 130.6889,-17.6548 139.6195,-23.3553 141.2251,-16.5419"/>
</g>
<!-- Node9&#45;&gt;Node5 -->
<g id="edge13" class="edge">
<title>Node9&#45;&gt;Node5</title>
<path fill="none" stroke="#191970" d="M330.7602,-56.3733C301.993,-47.0613 258.23,-32.8953 226.6444,-22.671"/>
<polygon fill="#191970" stroke="#191970" points="227.4436,-19.251 216.8517,-19.5011 225.2878,-25.9107 227.4436,-19.251"/>
</g>
<!-- Node9&#45;&gt;Node6 -->
<g id="edge14" class="edge">
<title>Node9&#45;&gt;Node6</title>
<path fill="none" stroke="#191970" d="M347.2618,-56.2455C335.819,-47.814 319.0704,-35.4729 305.7525,-25.6598"/>
<polygon fill="#191970" stroke="#191970" points="307.7133,-22.757 297.5865,-19.6427 303.5609,-28.3924 307.7133,-22.757"/>
</g>
<!-- Node10 -->
<g id="node11" class="node">
<title>Node10</title>
<polygon fill="#ffffff" stroke="#bfbfbf" points="343.5,-.5 343.5,-19.5 403.5,-19.5 403.5,-.5 343.5,-.5"/>
<text text-anchor="middle" x="373.5" y="-7.5" font-family="Helvetica,sans-Serif" font-size="10.00" fill="#000000">stdbool.h</text>
</g>
<!-- Node9&#45;&gt;Node10 -->
<g id="edge12" class="edge">
<title>Node9&#45;&gt;Node10</title>
<path fill="none" stroke="#191970" d="M362.7644,-56.2455C364.4794,-48.8579 366.8912,-38.4689 368.9944,-29.4087"/>
<polygon fill="#191970" stroke="#191970" points="372.4095,-30.1751 371.2615,-19.6427 365.5908,-28.5922 372.4095,-30.1751"/>
</g>
<!-- Node11&#45;&gt;Node7 -->
<g id="edge16" class="edge">
<title>Node11&#45;&gt;Node7</title>
<path fill="none" stroke="#191970" d="M215.6868,-112.2455C222.3589,-104.2958 231.9479,-92.8706 239.9253,-83.3656"/>
<polygon fill="#191970" stroke="#191970" points="242.6592,-85.5525 246.407,-75.6427 237.2974,-81.0524 242.6592,-85.5525"/>
</g>
<!-- Node12 -->
<g id="node13" class="node">
<title>Node12</title>
<g id="a_node13"><a xlink:href="pwm_8h.html" target="_top" xlink:title="Low&#45;level PWM peripheral driver interface definitions. ">
<polygon fill="#ffffff" stroke="#000000" points="106,-56.5 106,-75.5 189,-75.5 189,-56.5 106,-56.5"/>
<text text-anchor="middle" x="147.5" y="-63.5" font-family="Helvetica,sans-Serif" font-size="10.00" fill="#000000">periph/pwm.h</text>
</a>
</g>
</g>
<!-- Node11&#45;&gt;Node12 -->
<g id="edge17" class="edge">
<title>Node11&#45;&gt;Node12</title>
<path fill="none" stroke="#191970" d="M197.0488,-112.2455C188.2731,-104.0549 175.5446,-92.1749 165.186,-82.5069"/>
<polygon fill="#191970" stroke="#191970" points="167.5301,-79.9072 157.8314,-75.6427 162.7539,-85.0246 167.5301,-79.9072"/>
</g>
<!-- Node12&#45;&gt;Node3 -->
<g id="edge19" class="edge">
<title>Node12&#45;&gt;Node3</title>
<path fill="none" stroke="#191970" d="M140.1842,-56.2455C134.2821,-48.3761 125.8258,-37.101 118.7406,-27.6542"/>
<polygon fill="#191970" stroke="#191970" points="121.5321,-25.5427 112.732,-19.6427 115.932,-29.7427 121.5321,-25.5427"/>
</g>
<!-- Node12&#45;&gt;Node4 -->
<g id="edge18" class="edge">
<title>Node12&#45;&gt;Node4</title>
<path fill="none" stroke="#191970" d="M128.4184,-56.3733C110.7598,-47.4644 84.2947,-34.1127 64.2902,-24.0203"/>
<polygon fill="#191970" stroke="#191970" points="65.8372,-20.8806 55.3326,-19.5011 62.6842,-27.1303 65.8372,-20.8806"/>
</g>
<!-- Node12&#45;&gt;Node5 -->
<g id="edge20" class="edge">
<title>Node12&#45;&gt;Node5</title>
<path fill="none" stroke="#191970" d="M154.4675,-56.2455C160.0311,-48.4564 167.978,-37.3308 174.6829,-27.9439"/>
<polygon fill="#191970" stroke="#191970" points="177.648,-29.8144 180.6124,-19.6427 171.9519,-25.7457 177.648,-29.8144"/>
</g>
<!-- Node12&#45;&gt;Node6 -->
<g id="edge21" class="edge">
<title>Node12&#45;&gt;Node6</title>
<path fill="none" stroke="#191970" d="M171.0511,-56.3733C193.3391,-47.2629 226.9937,-33.5062 251.8637,-23.3404"/>
<polygon fill="#191970" stroke="#191970" points="253.3239,-26.5247 261.2562,-19.5011 250.6753,-20.0451 253.3239,-26.5247"/>
</g>
</g>
</svg>
