<?xml version="1.0" encoding="UTF-8" standalone="no"?>
<!DOCTYPE svg PUBLIC "-//W3C//DTD SVG 1.1//EN"
 "http://www.w3.org/Graphics/SVG/1.1/DTD/svg11.dtd">
<!-- Generated by graphviz version 2.40.1 (0)
 -->
<!-- Title: drivers/include/at25xxx.h Pages: 1 -->
<svg width="523pt" height="196pt"
 viewBox="0.00 0.00 523.17 196.00" xmlns="http://www.w3.org/2000/svg" xmlns:xlink="http://www.w3.org/1999/xlink">
<g id="graph0" class="graph" transform="scale(1 1) rotate(0) translate(4 192)">
<title>drivers/include/at25xxx.h</title>
<polygon fill="#ffffff" stroke="transparent" points="-4,4 -4,-192 519.1654,-192 519.1654,4 -4,4"/>
<!-- Node0 -->
<g id="node1" class="node">
<title>Node0</title>
<polygon fill="#bfbfbf" stroke="#000000" points="131,-168.5 131,-187.5 267,-187.5 267,-168.5 131,-168.5"/>
<text text-anchor="middle" x="199" y="-175.5" font-family="Helvetica,sans-Serif" font-size="10.00" fill="#000000">drivers/include/at25xxx.h</text>
</g>
<!-- Node1 -->
<g id="node2" class="node">
<title>Node1</title>
<polygon fill="#ffffff" stroke="#bfbfbf" points="447,-.5 447,-19.5 499,-19.5 499,-.5 447,-.5"/>
<text text-anchor="middle" x="473" y="-7.5" font-family="Helvetica,sans-Serif" font-size="10.00" fill="#000000">stdint.h</text>
</g>
<!-- Node0&#45;&gt;Node1 -->
<g id="edge1" class="edge">
<title>Node0&#45;&gt;Node1</title>
<path fill="none" stroke="#191970" d="M251.5245,-168.4699C332.1058,-152.6606 480.1797,-118.5013 511,-76 522.5919,-60.0147 507.7266,-40.2187 493.328,-26.4984"/>
<polygon fill="#191970" stroke="#191970" points="495.3417,-23.6048 485.5478,-19.5639 490.6841,-28.8304 495.3417,-23.6048"/>
</g>
<!-- Node2 -->
<g id="node3" class="node">
<title>Node2</title>
<polygon fill="#ffffff" stroke="#bfbfbf" points="0,-.5 0,-19.5 60,-19.5 60,-.5 0,-.5"/>
<text text-anchor="middle" x="30" y="-7.5" font-family="Helvetica,sans-Serif" font-size="10.00" fill="#000000">stdbool.h</text>
</g>
<!-- Node0&#45;&gt;Node2 -->
<g id="edge2" class="edge">
<title>Node0&#45;&gt;Node2</title>
<path fill="none" stroke="#191970" d="M177.9334,-168.3833C146.6468,-153.0904 87.9522,-120.3605 54,-76 43.592,-62.4013 37.3803,-43.8576 33.8933,-29.8883"/>
<polygon fill="#191970" stroke="#191970" points="37.2468,-28.8455 31.6528,-19.8478 30.4148,-30.3701 37.2468,-28.8455"/>
</g>
<!-- Node3 -->
<g id="node4" class="node">
<title>Node3</title>
<g id="a_node4"><a xlink:href="spi_8h.html" target="_top" xlink:title="Low&#45;level SPI peripheral driver interface definition. ">
<polygon fill="#ffffff" stroke="#000000" points="195.5,-112.5 195.5,-131.5 268.5,-131.5 268.5,-112.5 195.5,-112.5"/>
<text text-anchor="middle" x="232" y="-119.5" font-family="Helvetica,sans-Serif" font-size="10.00" fill="#000000">periph/spi.h</text>
</a>
</g>
</g>
<!-- Node0&#45;&gt;Node3 -->
<g id="edge3" class="edge">
<title>Node0&#45;&gt;Node3</title>
<path fill="none" stroke="#191970" d="M204.7482,-168.2455C209.2435,-160.617 215.6248,-149.7881 221.0825,-140.5267"/>
<polygon fill="#191970" stroke="#191970" points="224.2561,-142.035 226.3177,-131.6427 218.2253,-138.4811 224.2561,-142.035"/>
</g>
<!-- Node9 -->
<g id="node10" class="node">
<title>Node9</title>
<g id="a_node10"><a xlink:href="drivers_2include_2periph_2gpio_8h.html" target="_top" xlink:title="Low&#45;level GPIO peripheral driver interface definitions. ">
<polygon fill="#ffffff" stroke="#000000" points="86,-56.5 86,-75.5 166,-75.5 166,-56.5 86,-56.5"/>
<text text-anchor="middle" x="126" y="-63.5" font-family="Helvetica,sans-Serif" font-size="10.00" fill="#000000">periph/gpio.h</text>
</a>
</g>
</g>
<!-- Node0&#45;&gt;Node9 -->
<g id="edge17" class="edge">
<title>Node0&#45;&gt;Node9</title>
<path fill="none" stroke="#191970" d="M192.7761,-168.4509C180.6005,-149.7707 153.4557,-108.1238 137.7818,-84.0761"/>
<polygon fill="#191970" stroke="#191970" points="140.6008,-81.9913 132.2082,-75.5249 134.7365,-85.8137 140.6008,-81.9913"/>
</g>
<!-- Node3&#45;&gt;Node1 -->
<g id="edge9" class="edge">
<title>Node3&#45;&gt;Node1</title>
<path fill="none" stroke="#191970" d="M237.7971,-112.2698C246.9854,-97.721 266.3035,-70.4648 290,-56 335.7497,-28.0736 397.7725,-17.054 436.579,-12.7375"/>
<polygon fill="#191970" stroke="#191970" points="437.2819,-16.1841 446.876,-11.6893 436.5729,-9.2201 437.2819,-16.1841"/>
</g>
<!-- Node3&#45;&gt;Node2 -->
<g id="edge7" class="edge">
<title>Node3&#45;&gt;Node2</title>
<path fill="none" stroke="#191970" d="M195.1904,-117.9781C161.758,-112.8172 112.4043,-101.2882 77,-76 60.0732,-63.9097 47.0193,-43.7652 39.0118,-28.9053"/>
<polygon fill="#191970" stroke="#191970" points="41.9442,-26.9505 34.2889,-19.626 35.7057,-30.1257 41.9442,-26.9505"/>
</g>
<!-- Node4 -->
<g id="node5" class="node">
<title>Node4</title>
<g id="a_node5"><a xlink:href="endian_8h.html" target="_top" xlink:title="libc header for endian conversion ">
<polygon fill="#ffffff" stroke="#000000" points="444.5,-56.5 444.5,-75.5 501.5,-75.5 501.5,-56.5 444.5,-56.5"/>
<text text-anchor="middle" x="473" y="-63.5" font-family="Helvetica,sans-Serif" font-size="10.00" fill="#000000">endian.h</text>
</a>
</g>
</g>
<!-- Node3&#45;&gt;Node4 -->
<g id="edge4" class="edge">
<title>Node3&#45;&gt;Node4</title>
<path fill="none" stroke="#191970" d="M268.7619,-114.0693C307.5066,-105.6225 370.5483,-91.6291 434.5346,-76.052"/>
<polygon fill="#191970" stroke="#191970" points="435.5108,-79.4165 444.3931,-73.6411 433.8478,-72.6169 435.5108,-79.4165"/>
</g>
<!-- Node5 -->
<g id="node6" class="node">
<title>Node5</title>
<g id="a_node6"><a xlink:href="errno_8h.html" target="_top" xlink:title="errno.h">
<polygon fill="#ffffff" stroke="#000000" points="298.5,-56.5 298.5,-75.5 351.5,-75.5 351.5,-56.5 298.5,-56.5"/>
<text text-anchor="middle" x="325" y="-63.5" font-family="Helvetica,sans-Serif" font-size="10.00" fill="#000000">errno.h</text>
</a>
</g>
</g>
<!-- Node3&#45;&gt;Node5 -->
<g id="edge6" class="edge">
<title>Node3&#45;&gt;Node5</title>
<path fill="none" stroke="#191970" d="M248.1994,-112.2455C262.6018,-103.5731 283.8732,-90.7645 300.3799,-80.825"/>
<polygon fill="#191970" stroke="#191970" points="302.225,-83.7996 308.9863,-75.6427 298.614,-77.8028 302.225,-83.7996"/>
</g>
<!-- Node6 -->
<g id="node7" class="node">
<title>Node6</title>
<polygon fill="#ffffff" stroke="#bfbfbf" points="370,-56.5 370,-75.5 426,-75.5 426,-56.5 370,-56.5"/>
<text text-anchor="middle" x="398" y="-63.5" font-family="Helvetica,sans-Serif" font-size="10.00" fill="#000000">stddef.h</text>
</g>
<!-- Node3&#45;&gt;Node6 -->
<g id="edge8" class="edge">
<title>Node3&#45;&gt;Node6</title>
<path fill="none" stroke="#191970" d="M260.5364,-112.3733C288.0202,-103.1016 329.7686,-89.0178 360.0452,-78.804"/>
<polygon fill="#191970" stroke="#191970" points="361.4794,-82.0141 369.836,-75.5011 359.2418,-75.3813 361.4794,-82.0141"/>
</g>
<!-- Node7 -->
<g id="node8" class="node">
<title>Node7</title>
<polygon fill="#ffffff" stroke="#bfbfbf" points="146.5,-.5 146.5,-19.5 223.5,-19.5 223.5,-.5 146.5,-.5"/>
<text text-anchor="middle" x="185" y="-7.5" font-family="Helvetica,sans-Serif" font-size="10.00" fill="#000000">periph_cpu.h</text>
</g>
<!-- Node3&#45;&gt;Node7 -->
<g id="edge10" class="edge">
<title>Node3&#45;&gt;Node7</title>
<path fill="none" stroke="#191970" d="M227.9928,-112.4509C220.2578,-94.0186 203.1392,-53.2254 192.9913,-29.043"/>
<polygon fill="#191970" stroke="#191970" points="196.094,-27.3915 188.9971,-19.5249 189.6393,-30.1002 196.094,-27.3915"/>
</g>
<!-- Node8 -->
<g id="node9" class="node">
<title>Node8</title>
<polygon fill="#ffffff" stroke="#bfbfbf" points="241.5,-.5 241.5,-19.5 322.5,-19.5 322.5,-.5 241.5,-.5"/>
<text text-anchor="middle" x="282" y="-7.5" font-family="Helvetica,sans-Serif" font-size="10.00" fill="#000000">periph_conf.h</text>
</g>
<!-- Node3&#45;&gt;Node8 -->
<g id="edge11" class="edge">
<title>Node3&#45;&gt;Node8</title>
<path fill="none" stroke="#191970" d="M234.9365,-112.4026C239.0457,-99.377 247.0231,-75.4907 256,-56 260.3029,-46.6575 265.8242,-36.6744 270.6713,-28.4042"/>
<polygon fill="#191970" stroke="#191970" points="273.7957,-29.9994 275.9381,-19.6234 267.7928,-26.3987 273.7957,-29.9994"/>
</g>
<!-- Node3&#45;&gt;Node9 -->
<g id="edge12" class="edge">
<title>Node3&#45;&gt;Node9</title>
<path fill="none" stroke="#191970" d="M213.5362,-112.2455C196.8926,-103.4527 172.2007,-90.4079 153.2808,-80.4125"/>
<polygon fill="#191970" stroke="#191970" points="154.7291,-77.2193 144.2522,-75.6427 151.4592,-83.4086 154.7291,-77.2193"/>
</g>
<!-- Node4&#45;&gt;Node1 -->
<g id="edge5" class="edge">
<title>Node4&#45;&gt;Node1</title>
<path fill="none" stroke="#191970" d="M473,-56.2455C473,-48.9382 473,-38.6944 473,-29.7046"/>
<polygon fill="#191970" stroke="#191970" points="476.5001,-29.6426 473,-19.6427 469.5001,-29.6427 476.5001,-29.6426"/>
</g>
<!-- Node9&#45;&gt;Node2 -->
<g id="edge14" class="edge">
<title>Node9&#45;&gt;Node2</title>
<path fill="none" stroke="#191970" d="M109.2781,-56.2455C94.4111,-47.5731 72.4534,-34.7645 55.4142,-24.825"/>
<polygon fill="#191970" stroke="#191970" points="56.9317,-21.6582 46.5303,-19.6427 53.4045,-27.7047 56.9317,-21.6582"/>
</g>
<!-- Node9&#45;&gt;Node7 -->
<g id="edge15" class="edge">
<title>Node9&#45;&gt;Node7</title>
<path fill="none" stroke="#191970" d="M136.277,-56.2455C144.8218,-48.1352 157.1778,-36.4075 167.3085,-26.7919"/>
<polygon fill="#191970" stroke="#191970" points="169.9972,-29.0655 174.8408,-19.6427 165.1782,-23.9884 169.9972,-29.0655"/>
</g>
<!-- Node9&#45;&gt;Node8 -->
<g id="edge16" class="edge">
<title>Node9&#45;&gt;Node8</title>
<path fill="none" stroke="#191970" d="M152.8174,-56.3733C178.5332,-47.1419 217.538,-33.1402 245.9599,-22.9375"/>
<polygon fill="#191970" stroke="#191970" points="247.3032,-26.174 255.5326,-19.5011 244.9381,-19.5857 247.3032,-26.174"/>
</g>
<!-- Node10 -->
<g id="node11" class="node">
<title>Node10</title>
<polygon fill="#ffffff" stroke="#bfbfbf" points="78,-.5 78,-19.5 128,-19.5 128,-.5 78,-.5"/>
<text text-anchor="middle" x="103" y="-7.5" font-family="Helvetica,sans-Serif" font-size="10.00" fill="#000000">limits.h</text>
</g>
<!-- Node9&#45;&gt;Node10 -->
<g id="edge13" class="edge">
<title>Node9&#45;&gt;Node10</title>
<path fill="none" stroke="#191970" d="M121.9937,-56.2455C118.9265,-48.7776 114.5997,-38.2427 110.8503,-29.1137"/>
<polygon fill="#191970" stroke="#191970" points="113.9972,-27.5631 106.9604,-19.6427 107.5221,-30.2226 113.9972,-27.5631"/>
</g>
</g>
</svg>
