<?xml version="1.0" encoding="UTF-8" standalone="no"?>
<!DOCTYPE svg PUBLIC "-//W3C//DTD SVG 1.1//EN"
 "http://www.w3.org/Graphics/SVG/1.1/DTD/svg11.dtd">
<!-- Generated by graphviz version 2.40.1 (0)
 -->
<!-- Title: drivers/include/at.h Pages: 1 -->
<svg width="1953pt" height="532pt"
 viewBox="0.00 0.00 1952.50 532.00" xmlns="http://www.w3.org/2000/svg" xmlns:xlink="http://www.w3.org/1999/xlink">
<g id="graph0" class="graph" transform="scale(1 1) rotate(0) translate(4 528)">
<title>drivers/include/at.h</title>
<polygon fill="#ffffff" stroke="transparent" points="-4,4 -4,-528 1948.5,-528 1948.5,4 -4,4"/>
<!-- Node0 -->
<g id="node1" class="node">
<title>Node0</title>
<polygon fill="#bfbfbf" stroke="#000000" points="870,-504.5 870,-523.5 978,-523.5 978,-504.5 870,-504.5"/>
<text text-anchor="middle" x="924" y="-511.5" font-family="Helvetica,sans-Serif" font-size="10.00" fill="#000000">drivers/include/at.h</text>
</g>
<!-- Node1 -->
<g id="node2" class="node">
<title>Node1</title>
<polygon fill="#ffffff" stroke="#bfbfbf" points="364,-.5 364,-19.5 416,-19.5 416,-.5 364,-.5"/>
<text text-anchor="middle" x="390" y="-7.5" font-family="Helvetica,sans-Serif" font-size="10.00" fill="#000000">stdint.h</text>
</g>
<!-- Node0&#45;&gt;Node1 -->
<g id="edge1" class="edge">
<title>Node0&#45;&gt;Node1</title>
<path fill="none" stroke="#191970" d="M978.1998,-513.2732C1178.166,-509.8854 1863,-491.7326 1863,-402 1863,-402 1863,-402 1863,-122 1863,4.5575 1711.3859,-73.1807 1586,-56 1353.602,-24.1563 600.8794,-12.7017 426.3648,-10.4406"/>
<polygon fill="#191970" stroke="#191970" points="426.2176,-6.9386 416.1737,-10.3106 426.1282,-13.938 426.2176,-6.9386"/>
</g>
<!-- Node2 -->
<g id="node3" class="node">
<title>Node2</title>
<g id="a_node3"><a xlink:href="unistd_8h_source.html" target="_top" xlink:title="unistd.h">
<polygon fill="#ffffff" stroke="#000000" points="51,-168.5 51,-187.5 105,-187.5 105,-168.5 51,-168.5"/>
<text text-anchor="middle" x="78" y="-175.5" font-family="Helvetica,sans-Serif" font-size="10.00" fill="#000000">unistd.h</text>
</a>
</g>
</g>
<!-- Node0&#45;&gt;Node2 -->
<g id="edge2" class="edge">
<title>Node0&#45;&gt;Node2</title>
<path fill="none" stroke="#191970" d="M869.9105,-512.8828C677.5468,-508.203 38,-486.3049 38,-402 38,-402 38,-402 38,-290 38,-255.4432 55.097,-218.1996 66.9358,-196.5529"/>
<polygon fill="#191970" stroke="#191970" points="70.0287,-198.1941 71.9249,-187.7703 63.9422,-194.7365 70.0287,-198.1941"/>
</g>
<!-- Node5 -->
<g id="node6" class="node">
<title>Node5</title>
<polygon fill="#ffffff" stroke="#bfbfbf" points="967,-112.5 967,-131.5 1027,-131.5 1027,-112.5 967,-112.5"/>
<text text-anchor="middle" x="997" y="-119.5" font-family="Helvetica,sans-Serif" font-size="10.00" fill="#000000">stdbool.h</text>
</g>
<!-- Node0&#45;&gt;Node5 -->
<g id="edge8" class="edge">
<title>Node0&#45;&gt;Node5</title>
<path fill="none" stroke="#191970" d="M978.1233,-510.7093C1090.3429,-502.4007 1338,-475.7141 1338,-402 1338,-402 1338,-402 1338,-234 1338,-203.4754 1342.025,-188.0401 1319,-168 1298.0566,-149.7717 1119.2494,-132.4019 1037.4943,-125.3298"/>
<polygon fill="#191970" stroke="#191970" points="1037.3542,-121.8051 1027.0924,-124.4403 1036.7578,-128.7797 1037.3542,-121.8051"/>
</g>
<!-- Node6 -->
<g id="node7" class="node">
<title>Node6</title>
<g id="a_node7"><a xlink:href="isrpipe_8h.html" target="_top" xlink:title="isrpipe Interface ">
<polygon fill="#ffffff" stroke="#000000" points="280.5,-448.5 280.5,-467.5 337.5,-467.5 337.5,-448.5 280.5,-448.5"/>
<text text-anchor="middle" x="309" y="-455.5" font-family="Helvetica,sans-Serif" font-size="10.00" fill="#000000">isrpipe.h</text>
</a>
</g>
</g>
<!-- Node0&#45;&gt;Node6 -->
<g id="edge9" class="edge">
<title>Node0&#45;&gt;Node6</title>
<path fill="none" stroke="#191970" d="M869.9619,-509.0795C747.9685,-497.9711 453.6231,-471.1689 347.751,-461.5285"/>
<polygon fill="#191970" stroke="#191970" points="347.8006,-458.0187 337.5244,-460.5973 347.1658,-464.9898 347.8006,-458.0187"/>
</g>
<!-- Node12 -->
<g id="node13" class="node">
<title>Node12</title>
<g id="a_node13"><a xlink:href="kernel__defines_8h.html" target="_top" xlink:title="Common macros and compiler attributes/pragmas configuration. ">
<polygon fill="#ffffff" stroke="#000000" points="443.5,-168.5 443.5,-187.5 538.5,-187.5 538.5,-168.5 443.5,-168.5"/>
<text text-anchor="middle" x="491" y="-175.5" font-family="Helvetica,sans-Serif" font-size="10.00" fill="#000000">kernel_defines.h</text>
</a>
</g>
</g>
<!-- Node0&#45;&gt;Node12 -->
<g id="edge68" class="edge">
<title>Node0&#45;&gt;Node12</title>
<path fill="none" stroke="#191970" d="M869.8887,-511.2506C780.2329,-506.0521 605.1839,-492.9942 549,-468 508.1253,-449.8164 473,-446.7368 473,-402 473,-402 473,-402 473,-290 473,-257.1472 480.6431,-219.5528 485.9684,-197.3462"/>
<polygon fill="#191970" stroke="#191970" points="489.3987,-198.0551 488.421,-187.5055 482.6065,-196.3622 489.3987,-198.0551"/>
</g>
<!-- Node20 -->
<g id="node21" class="node">
<title>Node20</title>
<g id="a_node21"><a xlink:href="clist_8h.html" target="_top" xlink:title="Circular linked list. ">
<polygon fill="#ffffff" stroke="#000000" points="765.5,-168.5 765.5,-187.5 808.5,-187.5 808.5,-168.5 765.5,-168.5"/>
<text text-anchor="middle" x="787" y="-175.5" font-family="Helvetica,sans-Serif" font-size="10.00" fill="#000000">clist.h</text>
</a>
</g>
</g>
<!-- Node0&#45;&gt;Node20 -->
<g id="edge67" class="edge">
<title>Node0&#45;&gt;Node20</title>
<path fill="none" stroke="#191970" d="M869.5828,-510.652C757.4354,-502.2579 511,-475.4554 511,-402 511,-402 511,-402 511,-346 511,-315.4754 509.4935,-302.6106 530,-280 590.7691,-212.9957 701.3235,-189.3674 755.445,-181.5626"/>
<polygon fill="#191970" stroke="#191970" points="756.0449,-185.0134 765.4854,-180.2044 755.1065,-178.0766 756.0449,-185.0134"/>
</g>
<!-- Node30 -->
<g id="node31" class="node">
<title>Node30</title>
<g id="a_node31"><a xlink:href="drivers_2include_2periph_2uart_8h.html" target="_top" xlink:title="Low&#45;level UART peripheral driver interface definition. ">
<polygon fill="#ffffff" stroke="#000000" points="1548,-224.5 1548,-243.5 1628,-243.5 1628,-224.5 1548,-224.5"/>
<text text-anchor="middle" x="1588" y="-231.5" font-family="Helvetica,sans-Serif" font-size="10.00" fill="#000000">periph/uart.h</text>
</a>
</g>
</g>
<!-- Node0&#45;&gt;Node30 -->
<g id="edge60" class="edge">
<title>Node0&#45;&gt;Node30</title>
<path fill="none" stroke="#191970" d="M978.2171,-510.3459C1134.1976,-499.1144 1573,-462.1709 1573,-402 1573,-402 1573,-402 1573,-346 1573,-313.2739 1579.3693,-275.641 1583.807,-253.3923"/>
<polygon fill="#191970" stroke="#191970" points="1587.2485,-254.0329 1585.8509,-243.5307 1580.3942,-252.6123 1587.2485,-254.0329"/>
</g>
<!-- Node34 -->
<g id="node35" class="node">
<title>Node34</title>
<polygon fill="#ffffff" stroke="#bfbfbf" points="1891.5,-448.5 1891.5,-467.5 1944.5,-467.5 1944.5,-448.5 1891.5,-448.5"/>
<text text-anchor="middle" x="1918" y="-455.5" font-family="Helvetica,sans-Serif" font-size="10.00" fill="#000000">event.h</text>
</g>
<!-- Node0&#45;&gt;Node34 -->
<g id="edge69" class="edge">
<title>Node0&#45;&gt;Node34</title>
<path fill="none" stroke="#191970" d="M978.0665,-512.7493C1152.8544,-508.4922 1701.4861,-493.402 1877,-468 1878.4502,-467.7901 1879.9241,-467.552 1881.4091,-467.2913"/>
<polygon fill="#191970" stroke="#191970" points="1882.1295,-470.7165 1891.2375,-465.3041 1880.7422,-463.8554 1882.1295,-470.7165"/>
</g>
<!-- Node2&#45;&gt;Node1 -->
<g id="edge4" class="edge">
<title>Node2&#45;&gt;Node1</title>
<path fill="none" stroke="#191970" d="M70.5037,-168.309C61.3243,-155.1775 48.0377,-131.1715 57,-112 73.4355,-76.8425 88.784,-72.3097 124,-56 164.3014,-37.3351 290.7347,-21.0932 353.6695,-13.9176"/>
<polygon fill="#191970" stroke="#191970" points="354.3792,-17.36 363.9255,-12.7646 353.5971,-10.4038 354.3792,-17.36"/>
</g>
<!-- Node3 -->
<g id="node4" class="node">
<title>Node3</title>
<polygon fill="#ffffff" stroke="#bfbfbf" points="628,-56.5 628,-75.5 684,-75.5 684,-56.5 628,-56.5"/>
<text text-anchor="middle" x="656" y="-63.5" font-family="Helvetica,sans-Serif" font-size="10.00" fill="#000000">stddef.h</text>
</g>
<!-- Node2&#45;&gt;Node3 -->
<g id="edge3" class="edge">
<title>Node2&#45;&gt;Node3</title>
<path fill="none" stroke="#191970" d="M105.2261,-174.6364C157.1838,-168.0163 273.9535,-152.1704 371,-132 405.618,-124.8049 413.6214,-120.2633 448,-112 507.0072,-97.8169 575.8291,-82.9163 617.6392,-74.0454"/>
<polygon fill="#191970" stroke="#191970" points="618.6056,-77.4185 627.6645,-71.9241 617.1565,-70.5701 618.6056,-77.4185"/>
</g>
<!-- Node4 -->
<g id="node5" class="node">
<title>Node4</title>
<g id="a_node5"><a xlink:href="cpu_2avr8__common_2avr__libc__extra_2include_2sys_2types_8h_source.html" target="_top" xlink:title="sys/types.h">
<polygon fill="#ffffff" stroke="#000000" points="66.5,-112.5 66.5,-131.5 135.5,-131.5 135.5,-112.5 66.5,-112.5"/>
<text text-anchor="middle" x="101" y="-119.5" font-family="Helvetica,sans-Serif" font-size="10.00" fill="#000000">sys/types.h</text>
</a>
</g>
</g>
<!-- Node2&#45;&gt;Node4 -->
<g id="edge5" class="edge">
<title>Node2&#45;&gt;Node4</title>
<path fill="none" stroke="#191970" d="M82.0063,-168.2455C85.0735,-160.7776 89.4003,-150.2427 93.1497,-141.1137"/>
<polygon fill="#191970" stroke="#191970" points="96.4779,-142.2226 97.0396,-131.6427 90.0028,-139.5631 96.4779,-142.2226"/>
</g>
<!-- Node4&#45;&gt;Node1 -->
<g id="edge6" class="edge">
<title>Node4&#45;&gt;Node1</title>
<path fill="none" stroke="#191970" d="M105.4023,-112.1066C112.5177,-97.3444 128.0046,-69.8135 150,-56 183.3997,-35.0244 294.8802,-20.2529 353.4067,-13.738"/>
<polygon fill="#191970" stroke="#191970" points="354.1257,-17.1804 363.6879,-12.6179 353.3676,-10.2216 354.1257,-17.1804"/>
</g>
<!-- Node4&#45;&gt;Node3 -->
<g id="edge7" class="edge">
<title>Node4&#45;&gt;Node3</title>
<path fill="none" stroke="#191970" d="M135.7177,-118.4969C234.1589,-108.5641 514.6085,-80.2665 617.5236,-69.8823"/>
<polygon fill="#191970" stroke="#191970" points="618.1688,-73.3351 627.7669,-68.8487 617.466,-66.3704 618.1688,-73.3351"/>
</g>
<!-- Node6&#45;&gt;Node1 -->
<g id="edge10" class="edge">
<title>Node6&#45;&gt;Node1</title>
<path fill="none" stroke="#191970" d="M280.4839,-455.8916C203.9883,-448.5346 0,-417.009 0,-290 0,-290 0,-290 0,-122 0,-75.2171 39.1502,-74.776 82,-56 130.1618,-34.8964 282.9526,-19.3056 353.5681,-13.0338"/>
<polygon fill="#191970" stroke="#191970" points="354.1111,-16.4998 363.7682,-12.1421 353.5014,-9.5264 354.1111,-16.4998"/>
</g>
<!-- Node7 -->
<g id="node8" class="node">
<title>Node7</title>
<g id="a_node8"><a xlink:href="mutex_8h.html" target="_top" xlink:title="Mutex for thread synchronization. ">
<polygon fill="#ffffff" stroke="#000000" points="899,-392.5 899,-411.5 955,-411.5 955,-392.5 899,-392.5"/>
<text text-anchor="middle" x="927" y="-399.5" font-family="Helvetica,sans-Serif" font-size="10.00" fill="#000000">mutex.h</text>
</a>
</g>
</g>
<!-- Node6&#45;&gt;Node7 -->
<g id="edge11" class="edge">
<title>Node6&#45;&gt;Node7</title>
<path fill="none" stroke="#191970" d="M337.568,-455.4113C437.9351,-446.3166 774.4832,-415.8203 888.7018,-405.4704"/>
<polygon fill="#191970" stroke="#191970" points="889.0917,-408.9495 898.735,-404.5612 888.4599,-401.9781 889.0917,-408.9495"/>
</g>
<!-- Node28 -->
<g id="node29" class="node">
<title>Node28</title>
<g id="a_node29"><a xlink:href="tsrb_8h.html" target="_top" xlink:title="Thread&#45;safe ringbuffer interface definition. ">
<polygon fill="#ffffff" stroke="#000000" points="174,-224.5 174,-243.5 218,-243.5 218,-224.5 174,-224.5"/>
<text text-anchor="middle" x="196" y="-231.5" font-family="Helvetica,sans-Serif" font-size="10.00" fill="#000000">tsrb.h</text>
</a>
</g>
</g>
<!-- Node6&#45;&gt;Node28 -->
<g id="edge53" class="edge">
<title>Node6&#45;&gt;Node28</title>
<path fill="none" stroke="#191970" d="M304.1445,-448.375C286.9034,-414.1979 228.4317,-298.2894 205.4175,-252.6683"/>
<polygon fill="#191970" stroke="#191970" points="208.4663,-250.941 200.8374,-243.5891 202.2165,-254.0938 208.4663,-250.941"/>
</g>
<!-- Node7&#45;&gt;Node1 -->
<g id="edge13" class="edge">
<title>Node7&#45;&gt;Node1</title>
<path fill="none" stroke="#191970" d="M955.2027,-399.7087C1073.0507,-389.7647 1520,-348.2137 1520,-290 1520,-290 1520,-290 1520,-122 1520,40.2295 1322.0492,-75.5341 1161,-56 879.5137,-21.8578 537.001,-12.7337 426.3346,-10.5923"/>
<polygon fill="#191970" stroke="#191970" points="426.1247,-7.0879 416.0612,-10.401 425.9943,-14.0867 426.1247,-7.0879"/>
</g>
<!-- Node7&#45;&gt;Node3 -->
<g id="edge12" class="edge">
<title>Node7&#45;&gt;Node3</title>
<path fill="none" stroke="#191970" d="M898.9917,-397.1471C827.3429,-383.9424 643,-344.6575 643,-290 643,-290 643,-290 643,-234 643,-180.3283 649.6771,-117.2983 653.4607,-85.8907"/>
<polygon fill="#191970" stroke="#191970" points="656.9515,-86.1803 654.706,-75.8261 650.0044,-85.3206 656.9515,-86.1803"/>
</g>
<!-- Node7&#45;&gt;Node5 -->
<g id="edge14" class="edge">
<title>Node7&#45;&gt;Node5</title>
<path fill="none" stroke="#191970" d="M946.6728,-392.477C975.2284,-377.4116 1027.0345,-345.0943 1048,-300 1073.8906,-244.3126 1032.7386,-172.613 1010.1865,-139.8106"/>
<polygon fill="#191970" stroke="#191970" points="1013.0294,-137.7688 1004.3901,-131.6358 1007.3191,-141.8177 1013.0294,-137.7688"/>
</g>
<!-- Node8 -->
<g id="node9" class="node">
<title>Node8</title>
<g id="a_node9"><a xlink:href="architecture_8h.html" target="_top" xlink:title="Platform&#45;independent access to architecture details. ">
<polygon fill="#ffffff" stroke="#000000" points="1214.5,-224.5 1214.5,-243.5 1297.5,-243.5 1297.5,-224.5 1214.5,-224.5"/>
<text text-anchor="middle" x="1256" y="-231.5" font-family="Helvetica,sans-Serif" font-size="10.00" fill="#000000">architecture.h</text>
</a>
</g>
</g>
<!-- Node7&#45;&gt;Node8 -->
<g id="edge15" class="edge">
<title>Node7&#45;&gt;Node8</title>
<path fill="none" stroke="#191970" d="M955.2498,-396.4045C986.9147,-389.4942 1039.2823,-376.128 1081,-356 1142.5898,-326.284 1206.3719,-275.9685 1237.1446,-250.2267"/>
<polygon fill="#191970" stroke="#191970" points="1239.5413,-252.7837 1244.9195,-243.6554 1235.0227,-247.4375 1239.5413,-252.7837"/>
</g>
<!-- Node7&#45;&gt;Node12 -->
<g id="edge20" class="edge">
<title>Node7&#45;&gt;Node12</title>
<path fill="none" stroke="#191970" d="M898.6224,-400.7346C832.8929,-397.3185 672.5017,-386.0515 629,-356 597.0688,-333.9416 608.939,-311.3045 586,-280 562.1345,-247.4311 529.0227,-213.9875 508.8554,-194.6445"/>
<polygon fill="#191970" stroke="#191970" points="511.2234,-192.0665 501.5603,-187.7219 506.405,-197.1443 511.2234,-192.0665"/>
</g>
<!-- Node18 -->
<g id="node19" class="node">
<title>Node18</title>
<g id="a_node19"><a xlink:href="list_8h.html" target="_top" xlink:title="Intrusive linked list. ">
<polygon fill="#ffffff" stroke="#000000" points="888,-112.5 888,-131.5 926,-131.5 926,-112.5 888,-112.5"/>
<text text-anchor="middle" x="907" y="-119.5" font-family="Helvetica,sans-Serif" font-size="10.00" fill="#000000">list.h</text>
</a>
</g>
</g>
<!-- Node7&#45;&gt;Node18 -->
<g id="edge31" class="edge">
<title>Node7&#45;&gt;Node18</title>
<path fill="none" stroke="#191970" d="M932.0854,-392.0916C948.4506,-358.7546 996.6104,-248.2517 960,-168 954.3111,-155.5296 943.3869,-145.1361 932.9274,-137.4023"/>
<polygon fill="#191970" stroke="#191970" points="934.6037,-134.3082 924.3758,-131.5442 930.6477,-140.0832 934.6037,-134.3082"/>
</g>
<!-- Node19 -->
<g id="node20" class="node">
<title>Node19</title>
<g id="a_node20"><a xlink:href="core_2include_2thread_8h.html" target="_top" xlink:title="Threading API. ">
<polygon fill="#ffffff" stroke="#000000" points="860.5,-336.5 860.5,-355.5 917.5,-355.5 917.5,-336.5 860.5,-336.5"/>
<text text-anchor="middle" x="889" y="-343.5" font-family="Helvetica,sans-Serif" font-size="10.00" fill="#000000">thread.h</text>
</a>
</g>
</g>
<!-- Node7&#45;&gt;Node19 -->
<g id="edge32" class="edge">
<title>Node7&#45;&gt;Node19</title>
<path fill="none" stroke="#191970" d="M920.3809,-392.2455C915.0954,-384.4564 907.5459,-373.3308 901.1762,-363.9439"/>
<polygon fill="#191970" stroke="#191970" points="904.0545,-361.9522 895.5432,-355.6427 898.2621,-365.8827 904.0545,-361.9522"/>
</g>
<!-- Node8&#45;&gt;Node1 -->
<g id="edge16" class="edge">
<title>Node8&#45;&gt;Node1</title>
<path fill="none" stroke="#191970" d="M1277.2586,-224.4679C1300.5575,-212.6008 1332.9001,-191.0641 1319,-168 1263.9946,-76.7308 1209.5574,-84.942 1107,-56 976.9541,-19.3007 553.4678,-11.7722 426.3803,-10.3251"/>
<polygon fill="#191970" stroke="#191970" points="426.4152,-6.8253 416.3779,-10.2169 426.3395,-13.8249 426.4152,-6.8253"/>
</g>
<!-- Node9 -->
<g id="node10" class="node">
<title>Node9</title>
<g id="a_node10"><a xlink:href="inttypes_8h.html" target="_top" xlink:title="Adds include for missing inttype definitions. ">
<polygon fill="#ffffff" stroke="#000000" points="1121.5,-168.5 1121.5,-187.5 1184.5,-187.5 1184.5,-168.5 1121.5,-168.5"/>
<text text-anchor="middle" x="1153" y="-175.5" font-family="Helvetica,sans-Serif" font-size="10.00" fill="#000000">inttypes.h</text>
</a>
</g>
</g>
<!-- Node8&#45;&gt;Node9 -->
<g id="edge17" class="edge">
<title>Node8&#45;&gt;Node9</title>
<path fill="none" stroke="#191970" d="M1238.0588,-224.2455C1221.96,-215.4928 1198.1121,-202.527 1179.7609,-192.5496"/>
<polygon fill="#191970" stroke="#191970" points="1181.1929,-189.3444 1170.7356,-187.6427 1177.8493,-195.4942 1181.1929,-189.3444"/>
</g>
<!-- Node10 -->
<g id="node11" class="node">
<title>Node10</title>
<polygon fill="#ffffff" stroke="#bfbfbf" points="1404,-168.5 1404,-187.5 1454,-187.5 1454,-168.5 1404,-168.5"/>
<text text-anchor="middle" x="1429" y="-175.5" font-family="Helvetica,sans-Serif" font-size="10.00" fill="#000000">limits.h</text>
</g>
<!-- Node8&#45;&gt;Node10 -->
<g id="edge18" class="edge">
<title>Node8&#45;&gt;Node10</title>
<path fill="none" stroke="#191970" d="M1285.7398,-224.3733C1315.8146,-214.638 1362.2794,-199.5974 1394.0847,-189.3021"/>
<polygon fill="#191970" stroke="#191970" points="1395.4205,-192.5485 1403.8566,-186.1389 1393.2647,-185.8887 1395.4205,-192.5485"/>
</g>
<!-- Node11 -->
<g id="node12" class="node">
<title>Node11</title>
<polygon fill="#ffffff" stroke="#bfbfbf" points="1202.5,-168.5 1202.5,-187.5 1309.5,-187.5 1309.5,-168.5 1202.5,-168.5"/>
<text text-anchor="middle" x="1256" y="-175.5" font-family="Helvetica,sans-Serif" font-size="10.00" fill="#000000">architecture_arch.h</text>
</g>
<!-- Node8&#45;&gt;Node11 -->
<g id="edge19" class="edge">
<title>Node8&#45;&gt;Node11</title>
<path fill="none" stroke="#191970" d="M1256,-224.2455C1256,-216.9382 1256,-206.6944 1256,-197.7046"/>
<polygon fill="#191970" stroke="#191970" points="1259.5001,-197.6426 1256,-187.6427 1252.5001,-197.6427 1259.5001,-197.6426"/>
</g>
<!-- Node13 -->
<g id="node14" class="node">
<title>Node13</title>
<g id="a_node14"><a xlink:href="modules_8h.html" target="_top" xlink:title="Common macros and compiler attributes/pragmas configuration. ">
<polygon fill="#ffffff" stroke="#000000" points="543.5,-112.5 543.5,-131.5 608.5,-131.5 608.5,-112.5 543.5,-112.5"/>
<text text-anchor="middle" x="576" y="-119.5" font-family="Helvetica,sans-Serif" font-size="10.00" fill="#000000">modules.h</text>
</a>
</g>
</g>
<!-- Node12&#45;&gt;Node13 -->
<g id="edge21" class="edge">
<title>Node12&#45;&gt;Node13</title>
<path fill="none" stroke="#191970" d="M505.8059,-168.2455C518.7256,-159.7337 537.6931,-147.2375 552.6552,-137.3801"/>
<polygon fill="#191970" stroke="#191970" points="554.9387,-140.067 561.3638,-131.6427 551.0876,-134.2216 554.9387,-140.067"/>
</g>
<!-- Node14 -->
<g id="node15" class="node">
<title>Node14</title>
<g id="a_node15"><a xlink:href="riot__version_8h.html" target="_top" xlink:title="Common macros and compiler attributes/pragmas configuration. ">
<polygon fill="#ffffff" stroke="#000000" points="349.5,-56.5 349.5,-75.5 430.5,-75.5 430.5,-56.5 349.5,-56.5"/>
<text text-anchor="middle" x="390" y="-63.5" font-family="Helvetica,sans-Serif" font-size="10.00" fill="#000000">riot_version.h</text>
</a>
</g>
</g>
<!-- Node12&#45;&gt;Node14 -->
<g id="edge22" class="edge">
<title>Node12&#45;&gt;Node14</title>
<path fill="none" stroke="#191970" d="M481.6849,-168.2107C472.9152,-158.9533 459.453,-144.6358 448,-132 433.3778,-115.8678 417.0306,-97.2075 405.4276,-83.8532"/>
<polygon fill="#191970" stroke="#191970" points="407.7485,-81.1871 398.5536,-75.9236 402.4592,-85.7723 407.7485,-81.1871"/>
</g>
<!-- Node15 -->
<g id="node16" class="node">
<title>Node15</title>
<g id="a_node16"><a xlink:href="compiler__hints_8h.html" target="_top" xlink:title="Common macros and compiler attributes/pragmas configuration. ">
<polygon fill="#ffffff" stroke="#000000" points="268.5,-112.5 268.5,-131.5 361.5,-131.5 361.5,-112.5 268.5,-112.5"/>
<text text-anchor="middle" x="315" y="-119.5" font-family="Helvetica,sans-Serif" font-size="10.00" fill="#000000">compiler_hints.h</text>
</a>
</g>
</g>
<!-- Node12&#45;&gt;Node15 -->
<g id="edge24" class="edge">
<title>Node12&#45;&gt;Node15</title>
<path fill="none" stroke="#191970" d="M460.7445,-168.3733C431.3517,-159.021 386.5708,-144.7725 354.4066,-134.5385"/>
<polygon fill="#191970" stroke="#191970" points="355.4512,-131.198 344.8607,-131.5011 353.3287,-137.8685 355.4512,-131.198"/>
</g>
<!-- Node17 -->
<g id="node18" class="node">
<title>Node17</title>
<g id="a_node18"><a xlink:href="container_8h.html" target="_top" xlink:title="Common macros and compiler attributes/pragmas configuration. ">
<polygon fill="#ffffff" stroke="#000000" points="456.5,-112.5 456.5,-131.5 525.5,-131.5 525.5,-112.5 456.5,-112.5"/>
<text text-anchor="middle" x="491" y="-119.5" font-family="Helvetica,sans-Serif" font-size="10.00" fill="#000000">container.h</text>
</a>
</g>
</g>
<!-- Node12&#45;&gt;Node17 -->
<g id="edge28" class="edge">
<title>Node12&#45;&gt;Node17</title>
<path fill="none" stroke="#191970" d="M491,-168.2455C491,-160.9382 491,-150.6944 491,-141.7046"/>
<polygon fill="#191970" stroke="#191970" points="494.5001,-141.6426 491,-131.6427 487.5001,-141.6427 494.5001,-141.6426"/>
</g>
<!-- Node14&#45;&gt;Node1 -->
<g id="edge23" class="edge">
<title>Node14&#45;&gt;Node1</title>
<path fill="none" stroke="#191970" d="M390,-56.2455C390,-48.9382 390,-38.6944 390,-29.7046"/>
<polygon fill="#191970" stroke="#191970" points="393.5001,-29.6426 390,-19.6427 386.5001,-29.6427 393.5001,-29.6426"/>
</g>
<!-- Node15&#45;&gt;Node1 -->
<g id="edge27" class="edge">
<title>Node15&#45;&gt;Node1</title>
<path fill="none" stroke="#191970" d="M317.3426,-112.4046C320.9302,-98.9626 328.6926,-74.1404 341,-56 348.6001,-44.7979 359.3752,-34.3017 368.8866,-26.1723"/>
<polygon fill="#191970" stroke="#191970" points="371.2931,-28.7254 376.8083,-19.6792 366.8556,-23.3116 371.2931,-28.7254"/>
</g>
<!-- Node16 -->
<g id="node17" class="node">
<title>Node16</title>
<g id="a_node17"><a xlink:href="assert_8h.html" target="_top" xlink:title="POSIX.1&#45;2008 compliant version of the assert macro. ">
<polygon fill="#ffffff" stroke="#000000" points="223,-56.5 223,-75.5 277,-75.5 277,-56.5 223,-56.5"/>
<text text-anchor="middle" x="250" y="-63.5" font-family="Helvetica,sans-Serif" font-size="10.00" fill="#000000">assert.h</text>
</a>
</g>
</g>
<!-- Node15&#45;&gt;Node16 -->
<g id="edge25" class="edge">
<title>Node15&#45;&gt;Node16</title>
<path fill="none" stroke="#191970" d="M303.6779,-112.2455C294.0777,-103.9746 280.1108,-91.9416 268.8305,-82.2232"/>
<polygon fill="#191970" stroke="#191970" points="271.053,-79.5182 261.1924,-75.6427 266.484,-84.8214 271.053,-79.5182"/>
</g>
<!-- Node16&#45;&gt;Node1 -->
<g id="edge26" class="edge">
<title>Node16&#45;&gt;Node1</title>
<path fill="none" stroke="#191970" d="M274.0669,-56.3733C296.8428,-47.2629 331.2344,-33.5062 356.649,-23.3404"/>
<polygon fill="#191970" stroke="#191970" points="358.2623,-26.4648 366.2472,-19.5011 355.6625,-19.9654 358.2623,-26.4648"/>
</g>
<!-- Node17&#45;&gt;Node1 -->
<g id="edge30" class="edge">
<title>Node17&#45;&gt;Node1</title>
<path fill="none" stroke="#191970" d="M484.2196,-112.1938C474.875,-98.9317 457.2312,-74.7782 440,-56 430.5011,-45.6484 419.0175,-34.9714 409.4523,-26.5128"/>
<polygon fill="#191970" stroke="#191970" points="411.4801,-23.6378 401.6385,-19.7144 406.8854,-28.9188 411.4801,-23.6378"/>
</g>
<!-- Node17&#45;&gt;Node3 -->
<g id="edge29" class="edge">
<title>Node17&#45;&gt;Node3</title>
<path fill="none" stroke="#191970" d="M519.3645,-112.3733C546.6827,-103.1016 588.1796,-89.0178 618.2738,-78.804"/>
<polygon fill="#191970" stroke="#191970" points="619.661,-82.0294 628.0056,-75.5011 617.4113,-75.4008 619.661,-82.0294"/>
</g>
<!-- Node19&#45;&gt;Node20 -->
<g id="edge33" class="edge">
<title>Node19&#45;&gt;Node20</title>
<path fill="none" stroke="#191970" d="M887.4415,-336.141C885.0567,-322.819 879.722,-298.5979 870,-280 852.6016,-246.7172 823.2916,-214.0915 804.5622,-195.0212"/>
<polygon fill="#191970" stroke="#191970" points="806.7972,-192.3066 797.2487,-187.7157 801.8501,-197.2591 806.7972,-192.3066"/>
</g>
<!-- Node21 -->
<g id="node22" class="node">
<title>Node21</title>
<g id="a_node22"><a xlink:href="cib_8h.html" target="_top" xlink:title="Circular integer buffer interface. ">
<polygon fill="#ffffff" stroke="#000000" points="539,-280.5 539,-299.5 577,-299.5 577,-280.5 539,-280.5"/>
<text text-anchor="middle" x="558" y="-287.5" font-family="Helvetica,sans-Serif" font-size="10.00" fill="#000000">cib.h</text>
</a>
</g>
</g>
<!-- Node19&#45;&gt;Node21 -->
<g id="edge37" class="edge">
<title>Node19&#45;&gt;Node21</title>
<path fill="none" stroke="#191970" d="M860.4926,-341.177C798.0845,-330.6185 649.9321,-305.5535 587.0397,-294.9131"/>
<polygon fill="#191970" stroke="#191970" points="587.4573,-291.4341 577.0136,-293.2168 586.2896,-298.336 587.4573,-291.4341"/>
</g>
<!-- Node22 -->
<g id="node23" class="node">
<title>Node22</title>
<g id="a_node23"><a xlink:href="core_2include_2msg_8h.html" target="_top" xlink:title="Messaging API for inter process communication. ">
<polygon fill="#ffffff" stroke="#000000" points="993.5,-280.5 993.5,-299.5 1038.5,-299.5 1038.5,-280.5 993.5,-280.5"/>
<text text-anchor="middle" x="1016" y="-287.5" font-family="Helvetica,sans-Serif" font-size="10.00" fill="#000000">msg.h</text>
</a>
</g>
</g>
<!-- Node19&#45;&gt;Node22 -->
<g id="edge39" class="edge">
<title>Node19&#45;&gt;Node22</title>
<path fill="none" stroke="#191970" d="M910.8321,-336.3733C931.3103,-327.3435 962.1399,-313.7494 985.1319,-303.6111"/>
<polygon fill="#191970" stroke="#191970" points="986.715,-306.7383 994.4528,-299.5011 983.8907,-300.3333 986.715,-306.7383"/>
</g>
<!-- Node23 -->
<g id="node24" class="node">
<title>Node23</title>
<g id="a_node24"><a xlink:href="sched_8h.html" target="_top" xlink:title="Scheduler API definition. ">
<polygon fill="#ffffff" stroke="#000000" points="897.5,-224.5 897.5,-243.5 950.5,-243.5 950.5,-224.5 897.5,-224.5"/>
<text text-anchor="middle" x="924" y="-231.5" font-family="Helvetica,sans-Serif" font-size="10.00" fill="#000000">sched.h</text>
</a>
</g>
</g>
<!-- Node19&#45;&gt;Node23 -->
<g id="edge48" class="edge">
<title>Node19&#45;&gt;Node23</title>
<path fill="none" stroke="#191970" d="M891.9841,-336.4509C897.7183,-318.1013 910.3779,-277.5908 917.9471,-253.3693"/>
<polygon fill="#191970" stroke="#191970" points="921.3813,-254.1137 921.0235,-243.5249 914.7,-252.0257 921.3813,-254.1137"/>
</g>
<!-- Node25 -->
<g id="node26" class="node">
<title>Node25</title>
<g id="a_node26"><a xlink:href="thread__config_8h.html" target="_top" xlink:title="Thread configuration defines. ">
<polygon fill="#ffffff" stroke="#000000" points="671,-280.5 671,-299.5 761,-299.5 761,-280.5 671,-280.5"/>
<text text-anchor="middle" x="716" y="-287.5" font-family="Helvetica,sans-Serif" font-size="10.00" fill="#000000">thread_config.h</text>
</a>
</g>
</g>
<!-- Node19&#45;&gt;Node25 -->
<g id="edge49" class="edge">
<title>Node19&#45;&gt;Node25</title>
<path fill="none" stroke="#191970" d="M860.4326,-336.7527C831.7685,-327.4742 787.3967,-313.1111 755.3977,-302.753"/>
<polygon fill="#191970" stroke="#191970" points="756.0707,-299.2921 745.4788,-299.5423 753.9149,-305.9519 756.0707,-299.2921"/>
</g>
<!-- Node27 -->
<g id="node28" class="node">
<title>Node27</title>
<polygon fill="#ffffff" stroke="#bfbfbf" points="779,-280.5 779,-299.5 861,-299.5 861,-280.5 779,-280.5"/>
<text text-anchor="middle" x="820" y="-287.5" font-family="Helvetica,sans-Serif" font-size="10.00" fill="#000000">thread_arch.h</text>
</g>
<!-- Node19&#45;&gt;Node27 -->
<g id="edge52" class="edge">
<title>Node19&#45;&gt;Node27</title>
<path fill="none" stroke="#191970" d="M876.9811,-336.2455C866.7902,-327.9746 851.9638,-315.9416 839.9893,-306.2232"/>
<polygon fill="#191970" stroke="#191970" points="841.8514,-303.2268 831.8812,-299.6427 837.4402,-308.662 841.8514,-303.2268"/>
</g>
<!-- Node20&#45;&gt;Node3 -->
<g id="edge35" class="edge">
<title>Node20&#45;&gt;Node3</title>
<path fill="none" stroke="#191970" d="M788.8804,-168.3333C791.0171,-154.3533 792.7265,-128.3771 780,-112 769.162,-98.0531 726.5655,-84.2558 694.297,-75.4655"/>
<polygon fill="#191970" stroke="#191970" points="694.7999,-71.9778 684.2365,-72.7936 693.0031,-78.7433 694.7999,-71.9778"/>
</g>
<!-- Node20&#45;&gt;Node5 -->
<g id="edge34" class="edge">
<title>Node20&#45;&gt;Node5</title>
<path fill="none" stroke="#191970" d="M808.6827,-172.2179C843.5851,-162.9106 912.7662,-144.4623 956.8603,-132.7039"/>
<polygon fill="#191970" stroke="#191970" points="957.9192,-136.0439 966.6797,-130.0854 956.1155,-129.2803 957.9192,-136.0439"/>
</g>
<!-- Node20&#45;&gt;Node18 -->
<g id="edge36" class="edge">
<title>Node20&#45;&gt;Node18</title>
<path fill="none" stroke="#191970" d="M807.6287,-168.3733C827.2421,-159.2204 856.9048,-145.3778 878.7179,-135.1983"/>
<polygon fill="#191970" stroke="#191970" points="880.2463,-138.3475 887.828,-130.9469 877.2861,-132.0042 880.2463,-138.3475"/>
</g>
<!-- Node21&#45;&gt;Node16 -->
<g id="edge38" class="edge">
<title>Node21&#45;&gt;Node16</title>
<path fill="none" stroke="#191970" d="M538.7132,-286.0737C484.6175,-273.9675 330.7944,-231.833 260,-132 250.5844,-118.7223 248.4904,-100.1474 248.5182,-86.0845"/>
<polygon fill="#191970" stroke="#191970" points="252.0205,-86.0848 248.8961,-75.9611 245.0254,-85.8236 252.0205,-86.0848"/>
</g>
<!-- Node22&#45;&gt;Node1 -->
<g id="edge40" class="edge">
<title>Node22&#45;&gt;Node1</title>
<path fill="none" stroke="#191970" d="M1028.715,-280.4453C1050.5851,-262.8115 1093,-222.8332 1093,-178 1093,-178 1093,-178 1093,-122 1093,-53.8023 570.3829,-19.9445 426.3623,-11.9088"/>
<polygon fill="#191970" stroke="#191970" points="426.4526,-8.4086 416.2754,-11.354 426.068,-15.398 426.4526,-8.4086"/>
</g>
<!-- Node22&#45;&gt;Node5 -->
<g id="edge41" class="edge">
<title>Node22&#45;&gt;Node5</title>
<path fill="none" stroke="#191970" d="M1014.924,-280.4862C1011.9206,-253.9293 1003.3972,-178.5651 999.2806,-142.1655"/>
<polygon fill="#191970" stroke="#191970" points="1002.7132,-141.3712 998.1115,-131.8279 995.7575,-142.1579 1002.7132,-141.3712"/>
</g>
<!-- Node22&#45;&gt;Node23 -->
<g id="edge42" class="edge">
<title>Node22&#45;&gt;Node23</title>
<path fill="none" stroke="#191970" d="M999.9748,-280.2455C985.8592,-271.6534 965.0737,-259.0014 948.8101,-249.1018"/>
<polygon fill="#191970" stroke="#191970" points="950.2034,-245.8525 939.8415,-243.6427 946.5637,-251.8319 950.2034,-245.8525"/>
</g>
<!-- Node23&#45;&gt;Node3 -->
<g id="edge43" class="edge">
<title>Node23&#45;&gt;Node3</title>
<path fill="none" stroke="#191970" d="M906.6738,-224.4218C892.2176,-215.9496 871.5431,-202.6798 856,-188 825.1092,-158.8248 832.678,-136.5534 798,-112 766.8786,-89.9648 724.6176,-78.063 694.3058,-71.9256"/>
<polygon fill="#191970" stroke="#191970" points="694.5983,-68.4186 684.1204,-69.988 693.2901,-75.2953 694.5983,-68.4186"/>
</g>
<!-- Node23&#45;&gt;Node9 -->
<g id="edge44" class="edge">
<title>Node23&#45;&gt;Node9</title>
<path fill="none" stroke="#191970" d="M950.7174,-227.4665C990.288,-217.7898 1064.8165,-199.5645 1111.524,-188.1426"/>
<polygon fill="#191970" stroke="#191970" points="1112.4491,-191.5196 1121.3314,-185.7443 1110.7862,-184.72 1112.4491,-191.5196"/>
</g>
<!-- Node23&#45;&gt;Node12 -->
<g id="edge45" class="edge">
<title>Node23&#45;&gt;Node12</title>
<path fill="none" stroke="#191970" d="M897.2407,-230.5392C828.3044,-221.6237 643.4254,-197.7132 548.6922,-185.4613"/>
<polygon fill="#191970" stroke="#191970" points="549.0721,-181.9814 538.7058,-184.1698 548.1742,-188.9236 549.0721,-181.9814"/>
</g>
<!-- Node23&#45;&gt;Node20 -->
<g id="edge47" class="edge">
<title>Node23&#45;&gt;Node20</title>
<path fill="none" stroke="#191970" d="M900.4489,-224.3733C877.7557,-215.0972 843.2788,-201.0045 818.2886,-190.7895"/>
<polygon fill="#191970" stroke="#191970" points="819.4689,-187.4909 808.888,-186.9469 816.8202,-193.9705 819.4689,-187.4909"/>
</g>
<!-- Node24 -->
<g id="node25" class="node">
<title>Node24</title>
<g id="a_node25"><a xlink:href="native__sched_8h.html" target="_top" xlink:title="Add definitions required on the native board. ">
<polygon fill="#ffffff" stroke="#000000" points="865,-168.5 865,-187.5 951,-187.5 951,-168.5 865,-168.5"/>
<text text-anchor="middle" x="908" y="-175.5" font-family="Helvetica,sans-Serif" font-size="10.00" fill="#000000">native_sched.h</text>
</a>
</g>
</g>
<!-- Node23&#45;&gt;Node24 -->
<g id="edge46" class="edge">
<title>Node23&#45;&gt;Node24</title>
<path fill="none" stroke="#191970" d="M921.213,-224.2455C919.1023,-216.8579 916.134,-206.4689 913.5453,-197.4087"/>
<polygon fill="#191970" stroke="#191970" points="916.8677,-196.2964 910.755,-187.6427 910.137,-198.2195 916.8677,-196.2964"/>
</g>
<!-- Node25&#45;&gt;Node23 -->
<g id="edge51" class="edge">
<title>Node25&#45;&gt;Node23</title>
<path fill="none" stroke="#191970" d="M751.7565,-280.3733C789.7149,-270.1537 849.3886,-254.0877 887.593,-243.8019"/>
<polygon fill="#191970" stroke="#191970" points="888.5436,-247.1707 897.2898,-241.1912 886.7237,-240.4114 888.5436,-247.1707"/>
</g>
<!-- Node26 -->
<g id="node27" class="node">
<title>Node26</title>
<polygon fill="#ffffff" stroke="#bfbfbf" points="703.5,-112.5 703.5,-131.5 770.5,-131.5 770.5,-112.5 703.5,-112.5"/>
<text text-anchor="middle" x="737" y="-119.5" font-family="Helvetica,sans-Serif" font-size="10.00" fill="#000000">cpu_conf.h</text>
</g>
<!-- Node25&#45;&gt;Node26 -->
<g id="edge50" class="edge">
<title>Node25&#45;&gt;Node26</title>
<path fill="none" stroke="#191970" d="M717.1892,-280.4862C720.5088,-253.9293 729.9294,-178.5651 734.4793,-142.1655"/>
<polygon fill="#191970" stroke="#191970" points="738.0041,-142.1848 735.7715,-131.8279 731.0581,-141.3165 738.0041,-142.1848"/>
</g>
<!-- Node28&#45;&gt;Node1 -->
<g id="edge56" class="edge">
<title>Node28&#45;&gt;Node1</title>
<path fill="none" stroke="#191970" d="M193.5656,-224.4209C186.7346,-195.0918 170.5931,-105.5156 214,-56 232.2037,-35.2344 307.6671,-21.3736 353.6653,-14.6743"/>
<polygon fill="#191970" stroke="#191970" points="354.424,-18.102 363.837,-13.2393 353.4461,-11.1707 354.424,-18.102"/>
</g>
<!-- Node28&#45;&gt;Node3 -->
<g id="edge55" class="edge">
<title>Node28&#45;&gt;Node3</title>
<path fill="none" stroke="#191970" d="M218.2936,-232.6575C285.9381,-228.3399 487.8882,-213.5811 548,-188 584.6601,-172.399 592.0531,-162.2344 618,-132 630.3335,-117.6285 640.7615,-98.6776 647.5553,-84.7708"/>
<polygon fill="#191970" stroke="#191970" points="650.7451,-86.2122 651.8352,-75.6735 644.4111,-83.2322 650.7451,-86.2122"/>
</g>
<!-- Node28&#45;&gt;Node16 -->
<g id="edge54" class="edge">
<title>Node28&#45;&gt;Node16</title>
<path fill="none" stroke="#191970" d="M197.573,-224.2724C201.1418,-203.2888 210.7459,-152.4031 226,-112 229.5674,-102.5511 234.6139,-92.5549 239.1594,-84.3034"/>
<polygon fill="#191970" stroke="#191970" points="242.2344,-85.9764 244.1467,-75.5556 236.1533,-82.5094 242.2344,-85.9764"/>
</g>
<!-- Node29 -->
<g id="node30" class="node">
<title>Node29</title>
<g id="a_node30"><a xlink:href="irq_8h.html" target="_top" xlink:title="IRQ driver interface. ">
<polygon fill="#ffffff" stroke="#000000" points="671,-168.5 671,-187.5 709,-187.5 709,-168.5 671,-168.5"/>
<text text-anchor="middle" x="690" y="-175.5" font-family="Helvetica,sans-Serif" font-size="10.00" fill="#000000">irq.h</text>
</a>
</g>
</g>
<!-- Node28&#45;&gt;Node29 -->
<g id="edge57" class="edge">
<title>Node28&#45;&gt;Node29</title>
<path fill="none" stroke="#191970" d="M218.0467,-231.8506C280.8087,-225.6783 465.7985,-207.1141 619,-188 632.7033,-186.2903 647.8632,-184.1845 660.6439,-182.3469"/>
<polygon fill="#191970" stroke="#191970" points="661.3428,-185.7822 670.7359,-180.8811 660.3366,-178.8549 661.3428,-185.7822"/>
</g>
<!-- Node29&#45;&gt;Node5 -->
<g id="edge58" class="edge">
<title>Node29&#45;&gt;Node5</title>
<path fill="none" stroke="#191970" d="M709.2042,-174.4969C758.4225,-165.519 889.8924,-141.5375 956.7525,-129.3416"/>
<polygon fill="#191970" stroke="#191970" points="957.6963,-132.7272 966.9059,-127.4895 956.4401,-125.8409 957.6963,-132.7272"/>
</g>
<!-- Node29&#45;&gt;Node26 -->
<g id="edge59" class="edge">
<title>Node29&#45;&gt;Node26</title>
<path fill="none" stroke="#191970" d="M698.1868,-168.2455C704.8589,-160.2958 714.4479,-148.8706 722.4253,-139.3656"/>
<polygon fill="#191970" stroke="#191970" points="725.1592,-141.5525 728.907,-131.6427 719.7974,-137.0524 725.1592,-141.5525"/>
</g>
<!-- Node30&#45;&gt;Node1 -->
<g id="edge64" class="edge">
<title>Node30&#45;&gt;Node1</title>
<path fill="none" stroke="#191970" d="M1628.2425,-231.1589C1679.5718,-225.7672 1758.8969,-210.4771 1734,-168 1682.4839,-80.1071 1632.0403,-83.6977 1534,-56 1425.3977,-25.3183 609.1863,-12.8723 426.2919,-10.4533"/>
<polygon fill="#191970" stroke="#191970" points="426.1713,-6.9515 416.1265,-10.3206 426.0799,-13.9509 426.1713,-6.9515"/>
</g>
<!-- Node30&#45;&gt;Node3 -->
<g id="edge63" class="edge">
<title>Node30&#45;&gt;Node3</title>
<path fill="none" stroke="#191970" d="M1573.7435,-224.2827C1551.2815,-209.493 1505.7947,-181.6187 1463,-168 1316.2734,-121.3067 833.9467,-80.1501 694.2366,-68.979"/>
<polygon fill="#191970" stroke="#191970" points="694.2729,-65.4709 684.027,-68.1674 693.7182,-72.4489 694.2729,-65.4709"/>
</g>
<!-- Node30&#45;&gt;Node10 -->
<g id="edge62" class="edge">
<title>Node30&#45;&gt;Node10</title>
<path fill="none" stroke="#191970" d="M1560.6669,-224.3733C1533.9006,-214.9461 1493.009,-200.544 1463.9045,-190.2934"/>
<polygon fill="#191970" stroke="#191970" points="1464.7388,-186.8766 1454.144,-186.8557 1462.4133,-193.479 1464.7388,-186.8766"/>
</g>
<!-- Node31 -->
<g id="node32" class="node">
<title>Node31</title>
<g id="a_node32"><a xlink:href="errno_8h.html" target="_top" xlink:title="errno.h">
<polygon fill="#ffffff" stroke="#000000" points="1781.5,-168.5 1781.5,-187.5 1834.5,-187.5 1834.5,-168.5 1781.5,-168.5"/>
<text text-anchor="middle" x="1808" y="-175.5" font-family="Helvetica,sans-Serif" font-size="10.00" fill="#000000">errno.h</text>
</a>
</g>
</g>
<!-- Node30&#45;&gt;Node31 -->
<g id="edge61" class="edge">
<title>Node30&#45;&gt;Node31</title>
<path fill="none" stroke="#191970" d="M1625.8193,-224.3733C1666.6182,-213.9881 1731.1355,-197.5655 1771.4386,-187.3065"/>
<polygon fill="#191970" stroke="#191970" points="1772.554,-190.6343 1781.3816,-184.7756 1770.8272,-183.8506 1772.554,-190.6343"/>
</g>
<!-- Node32 -->
<g id="node33" class="node">
<title>Node32</title>
<polygon fill="#ffffff" stroke="#bfbfbf" points="1548.5,-168.5 1548.5,-187.5 1625.5,-187.5 1625.5,-168.5 1548.5,-168.5"/>
<text text-anchor="middle" x="1587" y="-175.5" font-family="Helvetica,sans-Serif" font-size="10.00" fill="#000000">periph_cpu.h</text>
</g>
<!-- Node30&#45;&gt;Node32 -->
<g id="edge65" class="edge">
<title>Node30&#45;&gt;Node32</title>
<path fill="none" stroke="#191970" d="M1587.8258,-224.2455C1587.6953,-216.9382 1587.5124,-206.6944 1587.3519,-197.7046"/>
<polygon fill="#191970" stroke="#191970" points="1590.8503,-197.5786 1587.1722,-187.6427 1583.8514,-197.7036 1590.8503,-197.5786"/>
</g>
<!-- Node33 -->
<g id="node34" class="node">
<title>Node33</title>
<polygon fill="#ffffff" stroke="#bfbfbf" points="1643.5,-168.5 1643.5,-187.5 1724.5,-187.5 1724.5,-168.5 1643.5,-168.5"/>
<text text-anchor="middle" x="1684" y="-175.5" font-family="Helvetica,sans-Serif" font-size="10.00" fill="#000000">periph_conf.h</text>
</g>
<!-- Node30&#45;&gt;Node33 -->
<g id="edge66" class="edge">
<title>Node30&#45;&gt;Node33</title>
<path fill="none" stroke="#191970" d="M1604.7219,-224.2455C1619.5889,-215.5731 1641.5466,-202.7645 1658.5858,-192.825"/>
<polygon fill="#191970" stroke="#191970" points="1660.5955,-195.7047 1667.4697,-187.6427 1657.0683,-189.6582 1660.5955,-195.7047"/>
</g>
</g>
</svg>
