<?xml version="1.0" encoding="UTF-8" standalone="no"?>
<!DOCTYPE svg PUBLIC "-//W3C//DTD SVG 1.1//EN"
 "http://www.w3.org/Graphics/SVG/1.1/DTD/svg11.dtd">
<!-- Generated by graphviz version 2.40.1 (0)
 -->
<!-- Title: pkg/cryptoauthlib/include/atca_params.h Pages: 1 -->
<svg width="657pt" height="263pt"
 viewBox="0.00 0.00 656.50 263.00" xmlns="http://www.w3.org/2000/svg" xmlns:xlink="http://www.w3.org/1999/xlink">
<g id="graph0" class="graph" transform="scale(1 1) rotate(0) translate(4 259)">
<title>pkg/cryptoauthlib/include/atca_params.h</title>
<polygon fill="#ffffff" stroke="transparent" points="-4,4 -4,-259 652.5,-259 652.5,4 -4,4"/>
<!-- Node0 -->
<g id="node1" class="node">
<title>Node0</title>
<polygon fill="#bfbfbf" stroke="#000000" points="169,-224.5 169,-254.5 305,-254.5 305,-224.5 169,-224.5"/>
<text text-anchor="start" x="177" y="-242.5" font-family="Helvetica,sans-Serif" font-size="10.00" fill="#000000">pkg/cryptoauthlib/include</text>
<text text-anchor="middle" x="237" y="-231.5" font-family="Helvetica,sans-Serif" font-size="10.00" fill="#000000">/atca_params.h</text>
</g>
<!-- Node1 -->
<g id="node2" class="node">
<title>Node1</title>
<polygon fill="#ffffff" stroke="#bfbfbf" points="105.5,-168.5 105.5,-187.5 158.5,-187.5 158.5,-168.5 105.5,-168.5"/>
<text text-anchor="middle" x="132" y="-175.5" font-family="Helvetica,sans-Serif" font-size="10.00" fill="#000000">board.h</text>
</g>
<!-- Node0&#45;&gt;Node1 -->
<g id="edge1" class="edge">
<title>Node0&#45;&gt;Node1</title>
<path fill="none" stroke="#191970" d="M211.3141,-224.4554C194.8703,-214.8241 173.6292,-202.3828 157.2677,-192.7996"/>
<polygon fill="#191970" stroke="#191970" points="158.669,-189.5643 148.2713,-187.5303 155.1312,-195.6045 158.669,-189.5643"/>
</g>
<!-- Node2 -->
<g id="node3" class="node">
<title>Node2</title>
<g id="a_node3"><a xlink:href="i2c_8h.html" target="_top" xlink:title="Low&#45;level I2C peripheral driver interface definition. ">
<polygon fill="#ffffff" stroke="#000000" points="150.5,-112.5 150.5,-131.5 223.5,-131.5 223.5,-112.5 150.5,-112.5"/>
<text text-anchor="middle" x="187" y="-119.5" font-family="Helvetica,sans-Serif" font-size="10.00" fill="#000000">periph/i2c.h</text>
</a>
</g>
</g>
<!-- Node0&#45;&gt;Node2 -->
<g id="edge2" class="edge">
<title>Node0&#45;&gt;Node2</title>
<path fill="none" stroke="#191970" d="M226.3963,-224.2933C219.8196,-214.3285 211.5879,-200.819 206,-188 199.4486,-172.9708 194.4536,-155.0461 191.2331,-141.6721"/>
<polygon fill="#191970" stroke="#191970" points="194.588,-140.6418 188.95,-131.6717 187.7636,-142.1999 194.588,-140.6418"/>
</g>
<!-- Node8 -->
<g id="node9" class="node">
<title>Node8</title>
<g id="a_node9"><a xlink:href="atca_8h.html" target="_top" xlink:title="Default addresses and device descriptor for CryptoAuth devices. ">
<polygon fill="#ffffff" stroke="#000000" points="215,-168.5 215,-187.5 259,-187.5 259,-168.5 215,-168.5"/>
<text text-anchor="middle" x="237" y="-175.5" font-family="Helvetica,sans-Serif" font-size="10.00" fill="#000000">atca.h</text>
</a>
</g>
</g>
<!-- Node0&#45;&gt;Node8 -->
<g id="edge8" class="edge">
<title>Node0&#45;&gt;Node8</title>
<path fill="none" stroke="#191970" d="M237,-224.2977C237,-216.3834 237,-206.6043 237,-198.0759"/>
<polygon fill="#191970" stroke="#191970" points="240.5001,-197.8469 237,-187.8469 233.5001,-197.847 240.5001,-197.8469"/>
</g>
<!-- Node9 -->
<g id="node10" class="node">
<title>Node9</title>
<polygon fill="#ffffff" stroke="#bfbfbf" points="241.5,-112.5 241.5,-131.5 328.5,-131.5 328.5,-112.5 241.5,-112.5"/>
<text text-anchor="middle" x="285" y="-119.5" font-family="Helvetica,sans-Serif" font-size="10.00" fill="#000000">cryptoauthlib.h</text>
</g>
<!-- Node0&#45;&gt;Node9 -->
<g id="edge11" class="edge">
<title>Node0&#45;&gt;Node9</title>
<path fill="none" stroke="#191970" d="M247.7273,-224.3461C254.3533,-214.4023 262.5934,-200.8965 268,-188 274.2902,-172.9957 278.7276,-155.0692 281.4879,-141.6881"/>
<polygon fill="#191970" stroke="#191970" points="284.9608,-142.1626 283.416,-131.681 278.0872,-140.8382 284.9608,-142.1626"/>
</g>
<!-- Node10 -->
<g id="node11" class="node">
<title>Node10</title>
<g id="a_node11"><a xlink:href="kernel__defines_8h.html" target="_top" xlink:title="Common macros and compiler attributes/pragmas configuration. ">
<polygon fill="#ffffff" stroke="#000000" points="396.5,-168.5 396.5,-187.5 491.5,-187.5 491.5,-168.5 396.5,-168.5"/>
<text text-anchor="middle" x="444" y="-175.5" font-family="Helvetica,sans-Serif" font-size="10.00" fill="#000000">kernel_defines.h</text>
</a>
</g>
</g>
<!-- Node0&#45;&gt;Node10 -->
<g id="edge12" class="edge">
<title>Node0&#45;&gt;Node10</title>
<path fill="none" stroke="#191970" d="M287.6379,-224.4554C322.7823,-214.0139 369.0424,-200.27 402.1103,-190.4455"/>
<polygon fill="#191970" stroke="#191970" points="403.3333,-193.7334 411.9223,-187.5303 401.3397,-187.0233 403.3333,-193.7334"/>
</g>
<!-- Node3 -->
<g id="node4" class="node">
<title>Node3</title>
<polygon fill="#ffffff" stroke="#bfbfbf" points="428,-.5 428,-19.5 480,-19.5 480,-.5 428,-.5"/>
<text text-anchor="middle" x="454" y="-7.5" font-family="Helvetica,sans-Serif" font-size="10.00" fill="#000000">stdint.h</text>
</g>
<!-- Node2&#45;&gt;Node3 -->
<g id="edge3" class="edge">
<title>Node2&#45;&gt;Node3</title>
<path fill="none" stroke="#191970" d="M201.376,-112.2463C225.5504,-95.9679 273.5107,-64.2328 292,-56 333.6323,-37.4623 384.6262,-24.4451 418.1466,-17.0985"/>
<polygon fill="#191970" stroke="#191970" points="418.9115,-20.5141 427.9588,-15.0007 417.448,-13.6688 418.9115,-20.5141"/>
</g>
<!-- Node4 -->
<g id="node5" class="node">
<title>Node4</title>
<polygon fill="#ffffff" stroke="#bfbfbf" points="301,-56.5 301,-75.5 357,-75.5 357,-56.5 301,-56.5"/>
<text text-anchor="middle" x="329" y="-63.5" font-family="Helvetica,sans-Serif" font-size="10.00" fill="#000000">stddef.h</text>
</g>
<!-- Node2&#45;&gt;Node4 -->
<g id="edge4" class="edge">
<title>Node2&#45;&gt;Node4</title>
<path fill="none" stroke="#191970" d="M211.4107,-112.3733C234.6142,-103.2226 269.7038,-89.3844 295.5142,-79.2057"/>
<polygon fill="#191970" stroke="#191970" points="296.8892,-82.4258 304.9079,-75.5011 294.3211,-75.9139 296.8892,-82.4258"/>
</g>
<!-- Node5 -->
<g id="node6" class="node">
<title>Node5</title>
<polygon fill="#ffffff" stroke="#bfbfbf" points="0,-56.5 0,-75.5 50,-75.5 50,-56.5 0,-56.5"/>
<text text-anchor="middle" x="25" y="-63.5" font-family="Helvetica,sans-Serif" font-size="10.00" fill="#000000">limits.h</text>
</g>
<!-- Node2&#45;&gt;Node5 -->
<g id="edge5" class="edge">
<title>Node2&#45;&gt;Node5</title>
<path fill="none" stroke="#191970" d="M159.1512,-112.3733C131.5982,-102.8488 89.3546,-88.246 59.6482,-77.9772"/>
<polygon fill="#191970" stroke="#191970" points="60.6886,-74.6336 50.0939,-74.6744 58.4016,-81.2495 60.6886,-74.6336"/>
</g>
<!-- Node6 -->
<g id="node7" class="node">
<title>Node6</title>
<polygon fill="#ffffff" stroke="#bfbfbf" points="68.5,-56.5 68.5,-75.5 149.5,-75.5 149.5,-56.5 68.5,-56.5"/>
<text text-anchor="middle" x="109" y="-63.5" font-family="Helvetica,sans-Serif" font-size="10.00" fill="#000000">periph_conf.h</text>
</g>
<!-- Node2&#45;&gt;Node6 -->
<g id="edge6" class="edge">
<title>Node2&#45;&gt;Node6</title>
<path fill="none" stroke="#191970" d="M173.4134,-112.2455C161.6695,-103.814 144.4801,-91.4729 130.8118,-81.6598"/>
<polygon fill="#191970" stroke="#191970" points="132.5954,-78.6316 122.4309,-75.6427 128.5129,-84.3179 132.5954,-78.6316"/>
</g>
<!-- Node7 -->
<g id="node8" class="node">
<title>Node7</title>
<polygon fill="#ffffff" stroke="#bfbfbf" points="167.5,-56.5 167.5,-75.5 244.5,-75.5 244.5,-56.5 167.5,-56.5"/>
<text text-anchor="middle" x="206" y="-63.5" font-family="Helvetica,sans-Serif" font-size="10.00" fill="#000000">periph_cpu.h</text>
</g>
<!-- Node2&#45;&gt;Node7 -->
<g id="edge7" class="edge">
<title>Node2&#45;&gt;Node7</title>
<path fill="none" stroke="#191970" d="M190.3095,-112.2455C192.8433,-104.7776 196.4177,-94.2427 199.515,-85.1137"/>
<polygon fill="#191970" stroke="#191970" points="202.8298,-86.237 202.7284,-75.6427 196.2009,-83.9879 202.8298,-86.237"/>
</g>
<!-- Node8&#45;&gt;Node2 -->
<g id="edge9" class="edge">
<title>Node8&#45;&gt;Node2</title>
<path fill="none" stroke="#191970" d="M228.2907,-168.2455C221.1927,-160.2958 210.9916,-148.8706 202.505,-139.3656"/>
<polygon fill="#191970" stroke="#191970" points="204.8805,-136.771 195.6095,-131.6427 199.6589,-141.4331 204.8805,-136.771"/>
</g>
<!-- Node8&#45;&gt;Node9 -->
<g id="edge10" class="edge">
<title>Node8&#45;&gt;Node9</title>
<path fill="none" stroke="#191970" d="M245.361,-168.2455C252.175,-160.2958 261.9681,-148.8706 270.1152,-139.3656"/>
<polygon fill="#191970" stroke="#191970" points="272.8843,-141.513 276.7349,-131.6427 267.5695,-136.9575 272.8843,-141.513"/>
</g>
<!-- Node11 -->
<g id="node12" class="node">
<title>Node11</title>
<g id="a_node12"><a xlink:href="modules_8h.html" target="_top" xlink:title="Common macros and compiler attributes/pragmas configuration. ">
<polygon fill="#ffffff" stroke="#000000" points="472.5,-112.5 472.5,-131.5 537.5,-131.5 537.5,-112.5 472.5,-112.5"/>
<text text-anchor="middle" x="505" y="-119.5" font-family="Helvetica,sans-Serif" font-size="10.00" fill="#000000">modules.h</text>
</a>
</g>
</g>
<!-- Node10&#45;&gt;Node11 -->
<g id="edge13" class="edge">
<title>Node10&#45;&gt;Node11</title>
<path fill="none" stroke="#191970" d="M454.6254,-168.2455C463.5473,-160.0549 476.488,-148.1749 487.0192,-138.5069"/>
<polygon fill="#191970" stroke="#191970" points="489.4968,-140.9837 494.4964,-131.6427 484.7629,-135.8271 489.4968,-140.9837"/>
</g>
<!-- Node12 -->
<g id="node13" class="node">
<title>Node12</title>
<g id="a_node13"><a xlink:href="riot__version_8h.html" target="_top" xlink:title="Common macros and compiler attributes/pragmas configuration. ">
<polygon fill="#ffffff" stroke="#000000" points="413.5,-56.5 413.5,-75.5 494.5,-75.5 494.5,-56.5 413.5,-56.5"/>
<text text-anchor="middle" x="454" y="-63.5" font-family="Helvetica,sans-Serif" font-size="10.00" fill="#000000">riot_version.h</text>
</a>
</g>
</g>
<!-- Node10&#45;&gt;Node12 -->
<g id="edge14" class="edge">
<title>Node10&#45;&gt;Node12</title>
<path fill="none" stroke="#191970" d="M444.8526,-168.4509C446.4836,-150.184 450.0754,-109.9553 452.2413,-85.6976"/>
<polygon fill="#191970" stroke="#191970" points="455.7463,-85.7966 453.1496,-75.5249 448.774,-85.174 455.7463,-85.7966"/>
</g>
<!-- Node13 -->
<g id="node14" class="node">
<title>Node13</title>
<g id="a_node14"><a xlink:href="compiler__hints_8h.html" target="_top" xlink:title="Common macros and compiler attributes/pragmas configuration. ">
<polygon fill="#ffffff" stroke="#000000" points="555.5,-112.5 555.5,-131.5 648.5,-131.5 648.5,-112.5 555.5,-112.5"/>
<text text-anchor="middle" x="602" y="-119.5" font-family="Helvetica,sans-Serif" font-size="10.00" fill="#000000">compiler_hints.h</text>
</a>
</g>
</g>
<!-- Node10&#45;&gt;Node13 -->
<g id="edge16" class="edge">
<title>Node10&#45;&gt;Node13</title>
<path fill="none" stroke="#191970" d="M471.1612,-168.3733C497.2067,-159.1419 536.7116,-145.1402 565.4979,-134.9375"/>
<polygon fill="#191970" stroke="#191970" points="566.937,-138.1408 575.1933,-131.5011 564.5985,-131.5429 566.937,-138.1408"/>
</g>
<!-- Node15 -->
<g id="node16" class="node">
<title>Node15</title>
<g id="a_node16"><a xlink:href="container_8h.html" target="_top" xlink:title="Common macros and compiler attributes/pragmas configuration. ">
<polygon fill="#ffffff" stroke="#000000" points="346.5,-112.5 346.5,-131.5 415.5,-131.5 415.5,-112.5 346.5,-112.5"/>
<text text-anchor="middle" x="381" y="-119.5" font-family="Helvetica,sans-Serif" font-size="10.00" fill="#000000">container.h</text>
</a>
</g>
</g>
<!-- Node10&#45;&gt;Node15 -->
<g id="edge20" class="edge">
<title>Node10&#45;&gt;Node15</title>
<path fill="none" stroke="#191970" d="M433.0262,-168.2455C423.8118,-160.0549 410.4468,-148.1749 399.5703,-138.5069"/>
<polygon fill="#191970" stroke="#191970" points="401.6474,-135.6704 391.848,-131.6427 396.9968,-140.9023 401.6474,-135.6704"/>
</g>
<!-- Node12&#45;&gt;Node3 -->
<g id="edge15" class="edge">
<title>Node12&#45;&gt;Node3</title>
<path fill="none" stroke="#191970" d="M454,-56.2455C454,-48.9382 454,-38.6944 454,-29.7046"/>
<polygon fill="#191970" stroke="#191970" points="457.5001,-29.6426 454,-19.6427 450.5001,-29.6427 457.5001,-29.6426"/>
</g>
<!-- Node13&#45;&gt;Node3 -->
<g id="edge19" class="edge">
<title>Node13&#45;&gt;Node3</title>
<path fill="none" stroke="#191970" d="M589.3816,-112.4509C563.8232,-93.1094 505.7293,-49.1465 474.6016,-25.5904"/>
<polygon fill="#191970" stroke="#191970" points="476.6726,-22.7684 466.5865,-19.5249 472.4485,-28.3503 476.6726,-22.7684"/>
</g>
<!-- Node14 -->
<g id="node15" class="node">
<title>Node14</title>
<g id="a_node15"><a xlink:href="assert_8h.html" target="_top" xlink:title="POSIX.1&#45;2008 compliant version of the assert macro. ">
<polygon fill="#ffffff" stroke="#000000" points="572,-56.5 572,-75.5 626,-75.5 626,-56.5 572,-56.5"/>
<text text-anchor="middle" x="599" y="-63.5" font-family="Helvetica,sans-Serif" font-size="10.00" fill="#000000">assert.h</text>
</a>
</g>
</g>
<!-- Node13&#45;&gt;Node14 -->
<g id="edge17" class="edge">
<title>Node13&#45;&gt;Node14</title>
<path fill="none" stroke="#191970" d="M601.4774,-112.2455C601.086,-104.9382 600.5372,-94.6944 600.0556,-85.7046"/>
<polygon fill="#191970" stroke="#191970" points="603.5466,-85.4411 599.5166,-75.6427 596.5566,-85.8156 603.5466,-85.4411"/>
</g>
<!-- Node14&#45;&gt;Node3 -->
<g id="edge18" class="edge">
<title>Node14&#45;&gt;Node3</title>
<path fill="none" stroke="#191970" d="M574.0736,-56.3733C550.3798,-47.2226 514.5489,-33.3844 488.1932,-23.2057"/>
<polygon fill="#191970" stroke="#191970" points="489.1906,-19.8389 478.6011,-19.5011 486.6686,-26.3689 489.1906,-19.8389"/>
</g>
<!-- Node15&#45;&gt;Node3 -->
<g id="edge22" class="edge">
<title>Node15&#45;&gt;Node3</title>
<path fill="none" stroke="#191970" d="M382.9995,-112.3987C386.1177,-98.9497 393.0545,-74.1191 405,-56 412.451,-44.6982 423.2121,-34.1927 432.7529,-26.0828"/>
<polygon fill="#191970" stroke="#191970" points="435.1588,-28.6376 440.7092,-19.6129 430.7424,-23.2066 435.1588,-28.6376"/>
</g>
<!-- Node15&#45;&gt;Node4 -->
<g id="edge21" class="edge">
<title>Node15&#45;&gt;Node4</title>
<path fill="none" stroke="#191970" d="M371.9423,-112.2455C364.4858,-104.2155 353.7366,-92.6394 344.8583,-83.0781"/>
<polygon fill="#191970" stroke="#191970" points="347.3232,-80.589 337.9539,-75.6427 342.1937,-85.3522 347.3232,-80.589"/>
</g>
</g>
</svg>
