<?xml version="1.0" encoding="UTF-8" standalone="no"?>
<!DOCTYPE svg PUBLIC "-//W3C//DTD SVG 1.1//EN"
 "http://www.w3.org/Graphics/SVG/1.1/DTD/svg11.dtd">
<!-- Generated by graphviz version 2.40.1 (0)
 -->
<!-- Title: cpu/atmega1284p/include/periph_cpu.h Pages: 1 -->
<svg width="244pt" height="151pt"
 viewBox="0.00 0.00 243.50 151.00" xmlns="http://www.w3.org/2000/svg" xmlns:xlink="http://www.w3.org/1999/xlink">
<g id="graph0" class="graph" transform="scale(1 1) rotate(0) translate(4 147)">
<title>cpu/atmega1284p/include/periph_cpu.h</title>
<polygon fill="#ffffff" stroke="transparent" points="-4,4 -4,-147 239.5,-147 239.5,4 -4,4"/>
<!-- Node0 -->
<g id="node1" class="node">
<title>Node0</title>
<polygon fill="#bfbfbf" stroke="#000000" points="51.5,-112.5 51.5,-142.5 190.5,-142.5 190.5,-112.5 51.5,-112.5"/>
<text text-anchor="start" x="59.5" y="-130.5" font-family="Helvetica,sans-Serif" font-size="10.00" fill="#000000">cpu/atmega1284p/include</text>
<text text-anchor="middle" x="121" y="-119.5" font-family="Helvetica,sans-Serif" font-size="10.00" fill="#000000">/periph_cpu.h</text>
</g>
<!-- Node1 -->
<g id="node2" class="node">
<title>Node1</title>
<polygon fill="#ffffff" stroke="#bfbfbf" points="0,-.5 0,-19.5 122,-19.5 122,-.5 0,-.5"/>
<text text-anchor="middle" x="61" y="-7.5" font-family="Helvetica,sans-Serif" font-size="10.00" fill="#000000">periph_cpu_common.h</text>
</g>
<!-- Node0&#45;&gt;Node1 -->
<g id="edge1" class="edge">
<title>Node0&#45;&gt;Node1</title>
<path fill="none" stroke="#191970" d="M88.5457,-112.3708C74.273,-103.8631 58.9669,-91.7522 51,-76 43.5809,-61.331 47.4533,-42.6554 52.3822,-28.9166"/>
<polygon fill="#191970" stroke="#191970" points="55.6777,-30.1034 56.1877,-19.5208 49.1896,-27.4755 55.6777,-30.1034"/>
</g>
<!-- Node2 -->
<g id="node3" class="node">
<title>Node2</title>
<polygon fill="#ffffff" stroke="#bfbfbf" points="154.5,-.5 154.5,-19.5 235.5,-19.5 235.5,-.5 154.5,-.5"/>
<text text-anchor="middle" x="195" y="-7.5" font-family="Helvetica,sans-Serif" font-size="10.00" fill="#000000">periph_conf.h</text>
</g>
<!-- Node0&#45;&gt;Node2 -->
<g id="edge2" class="edge">
<title>Node0&#45;&gt;Node2</title>
<path fill="none" stroke="#191970" d="M152.6727,-112.3698C166.9504,-103.7999 182.4879,-91.6364 191,-76 198.6325,-61.9794 199.1532,-43.7158 198.0363,-29.9562"/>
<polygon fill="#191970" stroke="#191970" points="201.4691,-29.1761 196.8331,-19.6494 194.5163,-29.9878 201.4691,-29.1761"/>
</g>
<!-- Node3 -->
<g id="node4" class="node">
<title>Node3</title>
<g id="a_node4"><a xlink:href="atmega1284p_2include_2default__timer__config_8h.html" target="_top" xlink:title="Default timer configuration. ">
<polygon fill="#ffffff" stroke="#000000" points="60,-56.5 60,-75.5 182,-75.5 182,-56.5 60,-56.5"/>
<text text-anchor="middle" x="121" y="-63.5" font-family="Helvetica,sans-Serif" font-size="10.00" fill="#000000">default_timer_config.h</text>
</a>
</g>
</g>
<!-- Node0&#45;&gt;Node3 -->
<g id="edge3" class="edge">
<title>Node0&#45;&gt;Node3</title>
<path fill="none" stroke="#191970" d="M121,-112.2977C121,-104.3834 121,-94.6043 121,-86.0759"/>
<polygon fill="#191970" stroke="#191970" points="124.5001,-85.8469 121,-75.8469 117.5001,-85.847 124.5001,-85.8469"/>
</g>
<!-- Node3&#45;&gt;Node1 -->
<g id="edge4" class="edge">
<title>Node3&#45;&gt;Node1</title>
<path fill="none" stroke="#191970" d="M110.5488,-56.2455C101.7731,-48.0549 89.0446,-36.1749 78.686,-26.5069"/>
<polygon fill="#191970" stroke="#191970" points="81.0301,-23.9072 71.3314,-19.6427 76.2539,-29.0246 81.0301,-23.9072"/>
</g>
<!-- Node3&#45;&gt;Node2 -->
<g id="edge5" class="edge">
<title>Node3&#45;&gt;Node2</title>
<path fill="none" stroke="#191970" d="M133.8898,-56.2455C144.9254,-47.8943 161.0292,-35.7076 173.9353,-25.9408"/>
<polygon fill="#191970" stroke="#191970" points="176.3959,-28.4681 182.2579,-19.6427 172.1717,-22.8862 176.3959,-28.4681"/>
</g>
</g>
</svg>
