<?xml version="1.0" encoding="UTF-8" standalone="no"?>
<!DOCTYPE svg PUBLIC "-//W3C//DTD SVG 1.1//EN"
 "http://www.w3.org/Graphics/SVG/1.1/DTD/svg11.dtd">
<!-- Generated by graphviz version 2.40.1 (0)
 -->
<!-- Title: cpu/atmega_common/include/atmega_gpio.h Pages: 1 -->
<svg width="650pt" height="375pt"
 viewBox="0.00 0.00 649.50 375.00" xmlns="http://www.w3.org/2000/svg" xmlns:xlink="http://www.w3.org/1999/xlink">
<g id="graph0" class="graph" transform="scale(1 1) rotate(0) translate(4 371)">
<title>cpu/atmega_common/include/atmega_gpio.h</title>
<polygon fill="#ffffff" stroke="transparent" points="-4,4 -4,-371 645.5,-371 645.5,4 -4,4"/>
<!-- Node0 -->
<g id="node1" class="node">
<title>Node0</title>
<polygon fill="#bfbfbf" stroke="#000000" points="256,-336.5 256,-366.5 410,-366.5 410,-336.5 256,-336.5"/>
<text text-anchor="start" x="264" y="-354.5" font-family="Helvetica,sans-Serif" font-size="10.00" fill="#000000">cpu/atmega_common/include</text>
<text text-anchor="middle" x="333" y="-343.5" font-family="Helvetica,sans-Serif" font-size="10.00" fill="#000000">/atmega_gpio.h</text>
</g>
<!-- Node1 -->
<g id="node2" class="node">
<title>Node1</title>
<polygon fill="#ffffff" stroke="#bfbfbf" points="0,-56.5 0,-75.5 56,-75.5 56,-56.5 0,-56.5"/>
<text text-anchor="middle" x="28" y="-63.5" font-family="Helvetica,sans-Serif" font-size="10.00" fill="#000000">stddef.h</text>
</g>
<!-- Node0&#45;&gt;Node1 -->
<g id="edge1" class="edge">
<title>Node0&#45;&gt;Node1</title>
<path fill="none" stroke="#191970" d="M255.8485,-344.04C208.4346,-337.2049 147.5023,-324.2711 98,-300 56.9202,-279.8584 19,-279.7519 19,-234 19,-234 19,-234 19,-178 19,-145.6075 22.7867,-108.1141 25.4477,-85.7662"/>
<polygon fill="#191970" stroke="#191970" points="28.955,-85.9219 26.7105,-75.5676 22.0081,-85.0616 28.955,-85.9219"/>
</g>
<!-- Node2 -->
<g id="node3" class="node">
<title>Node2</title>
<g id="a_node3"><a xlink:href="stdio_8h.html" target="_top" xlink:title="stdio wrapper to extend the C libs stdio ">
<polygon fill="#ffffff" stroke="#000000" points="107,-280.5 107,-299.5 155,-299.5 155,-280.5 107,-280.5"/>
<text text-anchor="middle" x="131" y="-287.5" font-family="Helvetica,sans-Serif" font-size="10.00" fill="#000000">stdio.h</text>
</a>
</g>
</g>
<!-- Node0&#45;&gt;Node2 -->
<g id="edge2" class="edge">
<title>Node0&#45;&gt;Node2</title>
<path fill="none" stroke="#191970" d="M283.5852,-336.4554C246.8027,-325.2568 197.5427,-310.2593 165.0697,-300.3727"/>
<polygon fill="#191970" stroke="#191970" points="165.7394,-296.918 155.1535,-297.3537 163.7006,-303.6146 165.7394,-296.918"/>
</g>
<!-- Node13 -->
<g id="node14" class="node">
<title>Node13</title>
<polygon fill="#ffffff" stroke="#bfbfbf" points="173.5,-280.5 173.5,-299.5 260.5,-299.5 260.5,-280.5 173.5,-280.5"/>
<text text-anchor="middle" x="217" y="-287.5" font-family="Helvetica,sans-Serif" font-size="10.00" fill="#000000">avr/interrupt.h</text>
</g>
<!-- Node0&#45;&gt;Node13 -->
<g id="edge18" class="edge">
<title>Node0&#45;&gt;Node13</title>
<path fill="none" stroke="#191970" d="M304.6232,-336.4554C286.1172,-326.644 262.1112,-313.9167 243.9069,-304.2653"/>
<polygon fill="#191970" stroke="#191970" points="245.4505,-301.1222 234.9759,-299.5303 242.1715,-307.3068 245.4505,-301.1222"/>
</g>
<!-- Node14 -->
<g id="node15" class="node">
<title>Node14</title>
<polygon fill="#ffffff" stroke="#bfbfbf" points="279,-280.5 279,-299.5 321,-299.5 321,-280.5 279,-280.5"/>
<text text-anchor="middle" x="300" y="-287.5" font-family="Helvetica,sans-Serif" font-size="10.00" fill="#000000">cpu.h</text>
</g>
<!-- Node0&#45;&gt;Node14 -->
<g id="edge19" class="edge">
<title>Node0&#45;&gt;Node14</title>
<path fill="none" stroke="#191970" d="M324.8427,-336.2977C320.4051,-328.0277 314.875,-317.7215 310.1596,-308.9339"/>
<polygon fill="#191970" stroke="#191970" points="313.096,-307.0037 305.2837,-299.8469 306.9279,-310.3134 313.096,-307.0037"/>
</g>
<!-- Node15 -->
<g id="node16" class="node">
<title>Node15</title>
<polygon fill="#ffffff" stroke="#bfbfbf" points="339.5,-280.5 339.5,-299.5 392.5,-299.5 392.5,-280.5 339.5,-280.5"/>
<text text-anchor="middle" x="366" y="-287.5" font-family="Helvetica,sans-Serif" font-size="10.00" fill="#000000">board.h</text>
</g>
<!-- Node0&#45;&gt;Node15 -->
<g id="edge20" class="edge">
<title>Node0&#45;&gt;Node15</title>
<path fill="none" stroke="#191970" d="M341.1573,-336.2977C345.5949,-328.0277 351.125,-317.7215 355.8404,-308.9339"/>
<polygon fill="#191970" stroke="#191970" points="359.0721,-310.3134 360.7163,-299.8469 352.904,-307.0037 359.0721,-310.3134"/>
</g>
<!-- Node16 -->
<g id="node17" class="node">
<title>Node16</title>
<g id="a_node17"><a xlink:href="drivers_2include_2periph_2gpio_8h.html" target="_top" xlink:title="Low&#45;level GPIO peripheral driver interface definitions. ">
<polygon fill="#ffffff" stroke="#000000" points="411,-280.5 411,-299.5 491,-299.5 491,-280.5 411,-280.5"/>
<text text-anchor="middle" x="451" y="-287.5" font-family="Helvetica,sans-Serif" font-size="10.00" fill="#000000">periph/gpio.h</text>
</a>
</g>
</g>
<!-- Node0&#45;&gt;Node16 -->
<g id="edge21" class="edge">
<title>Node0&#45;&gt;Node16</title>
<path fill="none" stroke="#191970" d="M361.866,-336.4554C380.6911,-326.644 405.111,-313.9167 423.6292,-304.2653"/>
<polygon fill="#191970" stroke="#191970" points="425.464,-307.2559 432.7142,-299.5303 422.2287,-301.0484 425.464,-307.2559"/>
</g>
<!-- Node19 -->
<g id="node20" class="node">
<title>Node19</title>
<polygon fill="#ffffff" stroke="#bfbfbf" points="465.5,-224.5 465.5,-243.5 542.5,-243.5 542.5,-224.5 465.5,-224.5"/>
<text text-anchor="middle" x="504" y="-231.5" font-family="Helvetica,sans-Serif" font-size="10.00" fill="#000000">periph_cpu.h</text>
</g>
<!-- Node0&#45;&gt;Node19 -->
<g id="edge27" class="edge">
<title>Node0&#45;&gt;Node19</title>
<path fill="none" stroke="#191970" d="M410.2301,-336.5571C448.1919,-327.5372 488.2825,-314.9092 500,-300 510.1745,-287.054 510.2032,-267.8954 508.2613,-253.5503"/>
<polygon fill="#191970" stroke="#191970" points="511.7083,-252.9432 506.5276,-243.7014 504.8143,-254.1568 511.7083,-252.9432"/>
</g>
<!-- Node20 -->
<g id="node21" class="node">
<title>Node20</title>
<polygon fill="#ffffff" stroke="#bfbfbf" points="560.5,-224.5 560.5,-243.5 641.5,-243.5 641.5,-224.5 560.5,-224.5"/>
<text text-anchor="middle" x="601" y="-231.5" font-family="Helvetica,sans-Serif" font-size="10.00" fill="#000000">periph_conf.h</text>
</g>
<!-- Node0&#45;&gt;Node20 -->
<g id="edge26" class="edge">
<title>Node0&#45;&gt;Node20</title>
<path fill="none" stroke="#191970" d="M410.2702,-337.2674C444.4616,-329.1573 484.4398,-317.1172 518,-300 543.4176,-287.0359 568.4802,-265.5787 584.3017,-250.6636"/>
<polygon fill="#191970" stroke="#191970" points="586.919,-253.0018 591.6858,-243.5399 582.0589,-247.964 586.919,-253.0018"/>
</g>
<!-- Node3 -->
<g id="node4" class="node">
<title>Node3</title>
<g id="a_node4"><a xlink:href="flash__utils_8h.html" target="_top" xlink:title="Utility functions, macros, and types for read&#45;only memory. ">
<polygon fill="#ffffff" stroke="#000000" points="95.5,-224.5 95.5,-243.5 166.5,-243.5 166.5,-224.5 95.5,-224.5"/>
<text text-anchor="middle" x="131" y="-231.5" font-family="Helvetica,sans-Serif" font-size="10.00" fill="#000000">flash_utils.h</text>
</a>
</g>
</g>
<!-- Node2&#45;&gt;Node3 -->
<g id="edge3" class="edge">
<title>Node2&#45;&gt;Node3</title>
<path fill="none" stroke="#191970" d="M125.7332,-280.2455C124.3221,-272.9382 123.9179,-262.6944 124.5205,-253.7046"/>
<polygon fill="#191970" stroke="#191970" points="128.0111,-253.9945 125.7549,-243.6427 121.0632,-253.1421 128.0111,-253.9945"/>
</g>
<!-- Node3&#45;&gt;Node2 -->
<g id="edge4" class="edge">
<title>Node3&#45;&gt;Node2</title>
<path fill="none" stroke="#191970" d="M136.2451,-243.6427C137.6665,-250.9199 138.081,-261.155 137.4887,-270.1575"/>
<polygon fill="#191970" stroke="#191970" points="133.9947,-269.8972 136.2668,-280.2455 140.9439,-270.739 133.9947,-269.8972"/>
</g>
<!-- Node4 -->
<g id="node5" class="node">
<title>Node4</title>
<polygon fill="#ffffff" stroke="#bfbfbf" points="245.5,-168.5 245.5,-187.5 298.5,-187.5 298.5,-168.5 245.5,-168.5"/>
<text text-anchor="middle" x="272" y="-175.5" font-family="Helvetica,sans-Serif" font-size="10.00" fill="#000000">string.h</text>
</g>
<!-- Node3&#45;&gt;Node4 -->
<g id="edge5" class="edge">
<title>Node3&#45;&gt;Node4</title>
<path fill="none" stroke="#191970" d="M155.2388,-224.3733C178.2789,-215.2226 213.1214,-201.3844 238.7501,-191.2057"/>
<polygon fill="#191970" stroke="#191970" points="240.0756,-194.4452 248.0775,-187.5011 237.4918,-187.9395 240.0756,-194.4452"/>
</g>
<!-- Node5 -->
<g id="node6" class="node">
<title>Node5</title>
<polygon fill="#ffffff" stroke="#bfbfbf" points="47.5,-168.5 47.5,-187.5 114.5,-187.5 114.5,-168.5 47.5,-168.5"/>
<text text-anchor="middle" x="81" y="-175.5" font-family="Helvetica,sans-Serif" font-size="10.00" fill="#000000">cpu_conf.h</text>
</g>
<!-- Node3&#45;&gt;Node5 -->
<g id="edge6" class="edge">
<title>Node3&#45;&gt;Node5</title>
<path fill="none" stroke="#191970" d="M122.2907,-224.2455C115.1927,-216.2958 104.9916,-204.8706 96.505,-195.3656"/>
<polygon fill="#191970" stroke="#191970" points="98.8805,-192.771 89.6095,-187.6427 93.6589,-197.4331 98.8805,-192.771"/>
</g>
<!-- Node6 -->
<g id="node7" class="node">
<title>Node6</title>
<g id="a_node7"><a xlink:href="kernel__defines_8h.html" target="_top" xlink:title="Common macros and compiler attributes/pragmas configuration. ">
<polygon fill="#ffffff" stroke="#000000" points="132.5,-168.5 132.5,-187.5 227.5,-187.5 227.5,-168.5 132.5,-168.5"/>
<text text-anchor="middle" x="180" y="-175.5" font-family="Helvetica,sans-Serif" font-size="10.00" fill="#000000">kernel_defines.h</text>
</a>
</g>
</g>
<!-- Node3&#45;&gt;Node6 -->
<g id="edge7" class="edge">
<title>Node3&#45;&gt;Node6</title>
<path fill="none" stroke="#191970" d="M139.5351,-224.2455C146.4912,-216.2958 156.4883,-204.8706 164.8051,-195.3656"/>
<polygon fill="#191970" stroke="#191970" points="167.6116,-197.4732 171.5627,-187.6427 162.3436,-192.8637 167.6116,-197.4732"/>
</g>
<!-- Node7 -->
<g id="node8" class="node">
<title>Node7</title>
<g id="a_node8"><a xlink:href="modules_8h.html" target="_top" xlink:title="Common macros and compiler attributes/pragmas configuration. ">
<polygon fill="#ffffff" stroke="#000000" points="134.5,-112.5 134.5,-131.5 199.5,-131.5 199.5,-112.5 134.5,-112.5"/>
<text text-anchor="middle" x="167" y="-119.5" font-family="Helvetica,sans-Serif" font-size="10.00" fill="#000000">modules.h</text>
</a>
</g>
</g>
<!-- Node6&#45;&gt;Node7 -->
<g id="edge8" class="edge">
<title>Node6&#45;&gt;Node7</title>
<path fill="none" stroke="#191970" d="M177.7356,-168.2455C176.0206,-160.8579 173.6088,-150.4689 171.5056,-141.4087"/>
<polygon fill="#191970" stroke="#191970" points="174.9092,-140.5922 169.2385,-131.6427 168.0905,-142.1751 174.9092,-140.5922"/>
</g>
<!-- Node8 -->
<g id="node9" class="node">
<title>Node8</title>
<g id="a_node9"><a xlink:href="riot__version_8h.html" target="_top" xlink:title="Common macros and compiler attributes/pragmas configuration. ">
<polygon fill="#ffffff" stroke="#000000" points="148.5,-56.5 148.5,-75.5 229.5,-75.5 229.5,-56.5 148.5,-56.5"/>
<text text-anchor="middle" x="189" y="-63.5" font-family="Helvetica,sans-Serif" font-size="10.00" fill="#000000">riot_version.h</text>
</a>
</g>
</g>
<!-- Node6&#45;&gt;Node8 -->
<g id="edge9" class="edge">
<title>Node6&#45;&gt;Node8</title>
<path fill="none" stroke="#191970" d="M188.2089,-168.1677C195.0114,-159.3343 204.1631,-145.6831 208,-132 212.4639,-116.0811 206.5185,-98.0447 200.1301,-84.8545"/>
<polygon fill="#191970" stroke="#191970" points="203.113,-83.0096 195.3236,-75.8279 196.9343,-86.2996 203.113,-83.0096"/>
</g>
<!-- Node10 -->
<g id="node11" class="node">
<title>Node10</title>
<g id="a_node11"><a xlink:href="compiler__hints_8h.html" target="_top" xlink:title="Common macros and compiler attributes/pragmas configuration. ">
<polygon fill="#ffffff" stroke="#000000" points="256.5,-112.5 256.5,-131.5 349.5,-131.5 349.5,-112.5 256.5,-112.5"/>
<text text-anchor="middle" x="303" y="-119.5" font-family="Helvetica,sans-Serif" font-size="10.00" fill="#000000">compiler_hints.h</text>
</a>
</g>
</g>
<!-- Node6&#45;&gt;Node10 -->
<g id="edge11" class="edge">
<title>Node6&#45;&gt;Node10</title>
<path fill="none" stroke="#191970" d="M201.1445,-168.3733C220.8892,-159.3838 250.5698,-145.8706 272.8055,-135.7471"/>
<polygon fill="#191970" stroke="#191970" points="274.4806,-138.8302 282.1315,-131.5011 271.58,-132.4594 274.4806,-138.8302"/>
</g>
<!-- Node12 -->
<g id="node13" class="node">
<title>Node12</title>
<g id="a_node13"><a xlink:href="container_8h.html" target="_top" xlink:title="Common macros and compiler attributes/pragmas configuration. ">
<polygon fill="#ffffff" stroke="#000000" points="47.5,-112.5 47.5,-131.5 116.5,-131.5 116.5,-112.5 47.5,-112.5"/>
<text text-anchor="middle" x="82" y="-119.5" font-family="Helvetica,sans-Serif" font-size="10.00" fill="#000000">container.h</text>
</a>
</g>
</g>
<!-- Node6&#45;&gt;Node12 -->
<g id="edge15" class="edge">
<title>Node6&#45;&gt;Node12</title>
<path fill="none" stroke="#191970" d="M162.9297,-168.2455C147.753,-159.5731 125.3379,-146.7645 107.9437,-136.825"/>
<polygon fill="#191970" stroke="#191970" points="109.2936,-133.5653 98.8747,-131.6427 105.8206,-139.643 109.2936,-133.5653"/>
</g>
<!-- Node9 -->
<g id="node10" class="node">
<title>Node9</title>
<polygon fill="#ffffff" stroke="#bfbfbf" points="206,-.5 206,-19.5 258,-19.5 258,-.5 206,-.5"/>
<text text-anchor="middle" x="232" y="-7.5" font-family="Helvetica,sans-Serif" font-size="10.00" fill="#000000">stdint.h</text>
</g>
<!-- Node8&#45;&gt;Node9 -->
<g id="edge10" class="edge">
<title>Node8&#45;&gt;Node9</title>
<path fill="none" stroke="#191970" d="M196.49,-56.2455C202.5326,-48.3761 211.1903,-37.101 218.4441,-27.6542"/>
<polygon fill="#191970" stroke="#191970" points="221.2815,-29.7058 224.5958,-19.6427 215.7295,-25.4426 221.2815,-29.7058"/>
</g>
<!-- Node10&#45;&gt;Node9 -->
<g id="edge14" class="edge">
<title>Node10&#45;&gt;Node9</title>
<path fill="none" stroke="#191970" d="M307.6273,-112.313C313.3722,-98.7622 321.2397,-73.8115 311,-56 301.6105,-39.6673 283.9432,-28.5909 267.6936,-21.4079"/>
<polygon fill="#191970" stroke="#191970" points="268.9452,-18.1386 258.3631,-17.6182 266.311,-24.6241 268.9452,-18.1386"/>
</g>
<!-- Node11 -->
<g id="node12" class="node">
<title>Node11</title>
<g id="a_node12"><a xlink:href="assert_8h.html" target="_top" xlink:title="POSIX.1&#45;2008 compliant version of the assert macro. ">
<polygon fill="#ffffff" stroke="#000000" points="248,-56.5 248,-75.5 302,-75.5 302,-56.5 248,-56.5"/>
<text text-anchor="middle" x="275" y="-63.5" font-family="Helvetica,sans-Serif" font-size="10.00" fill="#000000">assert.h</text>
</a>
</g>
</g>
<!-- Node10&#45;&gt;Node11 -->
<g id="edge12" class="edge">
<title>Node10&#45;&gt;Node11</title>
<path fill="none" stroke="#191970" d="M298.1228,-112.2455C294.3487,-104.6973 289.0079,-94.0158 284.4099,-84.8197"/>
<polygon fill="#191970" stroke="#191970" points="287.424,-83.0217 279.8213,-75.6427 281.163,-86.1522 287.424,-83.0217"/>
</g>
<!-- Node11&#45;&gt;Node9 -->
<g id="edge13" class="edge">
<title>Node11&#45;&gt;Node9</title>
<path fill="none" stroke="#191970" d="M267.51,-56.2455C261.4674,-48.3761 252.8097,-37.101 245.5559,-27.6542"/>
<polygon fill="#191970" stroke="#191970" points="248.2705,-25.4426 239.4042,-19.6427 242.7185,-29.7058 248.2705,-25.4426"/>
</g>
<!-- Node12&#45;&gt;Node1 -->
<g id="edge16" class="edge">
<title>Node12&#45;&gt;Node1</title>
<path fill="none" stroke="#191970" d="M72.5939,-112.2455C64.8507,-104.2155 53.688,-92.6394 44.4682,-83.0781"/>
<polygon fill="#191970" stroke="#191970" points="46.7591,-80.4117 37.2983,-75.6427 41.7202,-85.2706 46.7591,-80.4117"/>
</g>
<!-- Node12&#45;&gt;Node9 -->
<g id="edge17" class="edge">
<title>Node12&#45;&gt;Node9</title>
<path fill="none" stroke="#191970" d="M88.391,-112.4146C98.0262,-98.536 117.4525,-72.6848 139,-56 156.3846,-42.5387 178.334,-31.4564 196.543,-23.5449"/>
<polygon fill="#191970" stroke="#191970" points="198.0873,-26.6924 205.95,-19.591 195.375,-20.2392 198.0873,-26.6924"/>
</g>
<!-- Node17 -->
<g id="node18" class="node">
<title>Node17</title>
<polygon fill="#ffffff" stroke="#bfbfbf" points="319,-224.5 319,-243.5 369,-243.5 369,-224.5 319,-224.5"/>
<text text-anchor="middle" x="344" y="-231.5" font-family="Helvetica,sans-Serif" font-size="10.00" fill="#000000">limits.h</text>
</g>
<!-- Node16&#45;&gt;Node17 -->
<g id="edge22" class="edge">
<title>Node16&#45;&gt;Node17</title>
<path fill="none" stroke="#191970" d="M432.362,-280.2455C415.5614,-271.4527 390.6366,-258.4079 371.5382,-248.4125"/>
<polygon fill="#191970" stroke="#191970" points="372.9073,-245.1787 362.4244,-243.6427 369.6614,-251.3807 372.9073,-245.1787"/>
</g>
<!-- Node18 -->
<g id="node19" class="node">
<title>Node18</title>
<polygon fill="#ffffff" stroke="#bfbfbf" points="387,-224.5 387,-243.5 447,-243.5 447,-224.5 387,-224.5"/>
<text text-anchor="middle" x="417" y="-231.5" font-family="Helvetica,sans-Serif" font-size="10.00" fill="#000000">stdbool.h</text>
</g>
<!-- Node16&#45;&gt;Node18 -->
<g id="edge23" class="edge">
<title>Node16&#45;&gt;Node18</title>
<path fill="none" stroke="#191970" d="M445.0777,-280.2455C440.3973,-272.5367 433.7327,-261.5598 428.0711,-252.2348"/>
<polygon fill="#191970" stroke="#191970" points="431.0361,-250.3741 422.8545,-243.6427 425.0525,-254.007 431.0361,-250.3741"/>
</g>
<!-- Node16&#45;&gt;Node19 -->
<g id="edge24" class="edge">
<title>Node16&#45;&gt;Node19</title>
<path fill="none" stroke="#191970" d="M460.2319,-280.2455C467.8317,-272.2155 478.7877,-260.6394 487.8368,-251.0781"/>
<polygon fill="#191970" stroke="#191970" points="490.5421,-253.3115 494.8739,-243.6427 485.458,-248.4998 490.5421,-253.3115"/>
</g>
<!-- Node16&#45;&gt;Node20 -->
<g id="edge25" class="edge">
<title>Node16&#45;&gt;Node20</title>
<path fill="none" stroke="#191970" d="M476.7859,-280.3733C501.4047,-271.1822 538.69,-257.2624 565.9875,-247.0713"/>
<polygon fill="#191970" stroke="#191970" points="567.4063,-250.2777 575.5506,-243.5011 564.958,-243.7198 567.4063,-250.2777"/>
</g>
</g>
</svg>
