<?xml version="1.0" encoding="UTF-8" standalone="no"?>
<!DOCTYPE svg PUBLIC "-//W3C//DTD SVG 1.1//EN"
 "http://www.w3.org/Graphics/SVG/1.1/DTD/svg11.dtd">
<!-- Generated by graphviz version 2.40.1 (0)
 -->
<!-- Title: boards/atmega1284p/include/board.h Pages: 1 -->
<svg width="165pt" height="218pt"
 viewBox="0.00 0.00 165.00 218.00" xmlns="http://www.w3.org/2000/svg" xmlns:xlink="http://www.w3.org/1999/xlink">
<g id="graph0" class="graph" transform="scale(1 1) rotate(0) translate(4 214)">
<title>boards/atmega1284p/include/board.h</title>
<polygon fill="#ffffff" stroke="transparent" points="-4,4 -4,-214 161,-214 161,4 -4,4"/>
<!-- Node0 -->
<g id="node1" class="node">
<title>Node0</title>
<polygon fill="#bfbfbf" stroke="#000000" points="2,-179.5 2,-209.5 120,-209.5 120,-179.5 2,-179.5"/>
<text text-anchor="start" x="10" y="-197.5" font-family="Helvetica,sans-Serif" font-size="10.00" fill="#000000">boards/atmega1284p</text>
<text text-anchor="middle" x="61" y="-186.5" font-family="Helvetica,sans-Serif" font-size="10.00" fill="#000000">/include/board.h</text>
</g>
<!-- Node1 -->
<g id="node2" class="node">
<title>Node1</title>
<polygon fill="#ffffff" stroke="#bfbfbf" points="0,-123.5 0,-142.5 42,-142.5 42,-123.5 0,-123.5"/>
<text text-anchor="middle" x="21" y="-130.5" font-family="Helvetica,sans-Serif" font-size="10.00" fill="#000000">cpu.h</text>
</g>
<!-- Node0&#45;&gt;Node1 -->
<g id="edge1" class="edge">
<title>Node0&#45;&gt;Node1</title>
<path fill="none" stroke="#191970" d="M51.1124,-179.2977C45.6178,-170.8498 38.7414,-160.2773 32.9473,-151.369"/>
<polygon fill="#191970" stroke="#191970" points="35.7908,-149.3215 27.4045,-142.8469 29.9228,-153.1381 35.7908,-149.3215"/>
</g>
<!-- Node2 -->
<g id="node3" class="node">
<title>Node2</title>
<g id="a_node3"><a xlink:href="boards_2atmega1284p_2include_2periph__conf_8h.html" target="_top" xlink:title="Peripheral MCU configuration for the ATmega1284p standalone &quot;board&quot;. ">
<polygon fill="#ffffff" stroke="#000000" points="60.5,-123.5 60.5,-142.5 141.5,-142.5 141.5,-123.5 60.5,-123.5"/>
<text text-anchor="middle" x="101" y="-130.5" font-family="Helvetica,sans-Serif" font-size="10.00" fill="#000000">periph_conf.h</text>
</a>
</g>
</g>
<!-- Node0&#45;&gt;Node2 -->
<g id="edge2" class="edge">
<title>Node0&#45;&gt;Node2</title>
<path fill="none" stroke="#191970" d="M70.8876,-179.2977C76.3822,-170.8498 83.2586,-160.2773 89.0527,-151.369"/>
<polygon fill="#191970" stroke="#191970" points="92.0772,-153.1381 94.5955,-142.8469 86.2092,-149.3215 92.0772,-153.1381"/>
</g>
<!-- Node3 -->
<g id="node4" class="node">
<title>Node3</title>
<g id="a_node4"><a xlink:href="periph__conf__atmega__common_8h.html" target="_top" xlink:title="Common configuration of MCU periphery for ATmega boards. ">
<polygon fill="#ffffff" stroke="#000000" points="45,-56.5 45,-86.5 157,-86.5 157,-56.5 45,-56.5"/>
<text text-anchor="start" x="53" y="-74.5" font-family="Helvetica,sans-Serif" font-size="10.00" fill="#000000">periph_conf_atmega</text>
<text text-anchor="middle" x="101" y="-63.5" font-family="Helvetica,sans-Serif" font-size="10.00" fill="#000000">_common.h</text>
</a>
</g>
</g>
<!-- Node2&#45;&gt;Node3 -->
<g id="edge3" class="edge">
<title>Node2&#45;&gt;Node3</title>
<path fill="none" stroke="#191970" d="M101,-123.3906C101,-116.2234 101,-106.0862 101,-96.671"/>
<polygon fill="#191970" stroke="#191970" points="104.5001,-96.5446 101,-86.5446 97.5001,-96.5446 104.5001,-96.5446"/>
</g>
<!-- Node4 -->
<g id="node5" class="node">
<title>Node4</title>
<polygon fill="#ffffff" stroke="#bfbfbf" points="62.5,-.5 62.5,-19.5 139.5,-19.5 139.5,-.5 62.5,-.5"/>
<text text-anchor="middle" x="101" y="-7.5" font-family="Helvetica,sans-Serif" font-size="10.00" fill="#000000">periph_cpu.h</text>
</g>
<!-- Node3&#45;&gt;Node4 -->
<g id="edge4" class="edge">
<title>Node3&#45;&gt;Node4</title>
<path fill="none" stroke="#191970" d="M101,-56.2977C101,-48.3834 101,-38.6043 101,-30.0759"/>
<polygon fill="#191970" stroke="#191970" points="104.5001,-29.8469 101,-19.8469 97.5001,-29.847 104.5001,-29.8469"/>
</g>
</g>
</svg>
