<?xml version="1.0" encoding="UTF-8" standalone="no"?>
<!DOCTYPE svg PUBLIC "-//W3C//DTD SVG 1.1//EN"
 "http://www.w3.org/Graphics/SVG/1.1/DTD/svg11.dtd">
<!-- Generated by graphviz version 2.40.1 (0)
 -->
<!-- Title: cpu/atmega1284p/include/default_timer_config.h Pages: 1 -->
<svg width="230pt" height="95pt"
 viewBox="0.00 0.00 229.50 95.00" xmlns="http://www.w3.org/2000/svg" xmlns:xlink="http://www.w3.org/1999/xlink">
<g id="graph0" class="graph" transform="scale(1 1) rotate(0) translate(4 91)">
<title>cpu/atmega1284p/include/default_timer_config.h</title>
<polygon fill="#ffffff" stroke="transparent" points="-4,4 -4,-91 225.5,-91 225.5,4 -4,4"/>
<!-- Node0 -->
<g id="node1" class="node">
<title>Node0</title>
<polygon fill="#bfbfbf" stroke="#000000" points="51.5,-56.5 51.5,-86.5 190.5,-86.5 190.5,-56.5 51.5,-56.5"/>
<text text-anchor="start" x="59.5" y="-74.5" font-family="Helvetica,sans-Serif" font-size="10.00" fill="#000000">cpu/atmega1284p/include</text>
<text text-anchor="middle" x="121" y="-63.5" font-family="Helvetica,sans-Serif" font-size="10.00" fill="#000000">/default_timer_config.h</text>
</g>
<!-- Node1 -->
<g id="node2" class="node">
<title>Node1</title>
<polygon fill="#ffffff" stroke="#bfbfbf" points="0,-.5 0,-19.5 122,-19.5 122,-.5 0,-.5"/>
<text text-anchor="middle" x="61" y="-7.5" font-family="Helvetica,sans-Serif" font-size="10.00" fill="#000000">periph_cpu_common.h</text>
</g>
<!-- Node0&#45;&gt;Node1 -->
<g id="edge1" class="edge">
<title>Node0&#45;&gt;Node1</title>
<path fill="none" stroke="#191970" d="M106.1685,-56.2977C97.5796,-47.4941 86.7398,-36.3833 77.8321,-27.2529"/>
<polygon fill="#191970" stroke="#191970" points="80.0953,-24.5606 70.6068,-19.8469 75.0848,-29.4489 80.0953,-24.5606"/>
</g>
<!-- Node2 -->
<g id="node3" class="node">
<title>Node2</title>
<polygon fill="#ffffff" stroke="#bfbfbf" points="140.5,-.5 140.5,-19.5 221.5,-19.5 221.5,-.5 140.5,-.5"/>
<text text-anchor="middle" x="181" y="-7.5" font-family="Helvetica,sans-Serif" font-size="10.00" fill="#000000">periph_conf.h</text>
</g>
<!-- Node0&#45;&gt;Node2 -->
<g id="edge2" class="edge">
<title>Node0&#45;&gt;Node2</title>
<path fill="none" stroke="#191970" d="M135.8315,-56.2977C144.4204,-47.4941 155.2602,-36.3833 164.1679,-27.2529"/>
<polygon fill="#191970" stroke="#191970" points="166.9152,-29.4489 171.3932,-19.8469 161.9047,-24.5606 166.9152,-29.4489"/>
</g>
</g>
</svg>
