<?xml version="1.0" encoding="UTF-8" standalone="no"?>
<!DOCTYPE svg PUBLIC "-//W3C//DTD SVG 1.1//EN"
 "http://www.w3.org/Graphics/SVG/1.1/DTD/svg11.dtd">
<!-- Generated by graphviz version 2.40.1 (0)
 -->
<!-- Title: boards/atxmega&#45;a1&#45;xplained/include/gpio_params.h Pages: 1 -->
<svg width="489pt" height="207pt"
 viewBox="0.00 0.00 489.00 207.00" xmlns="http://www.w3.org/2000/svg" xmlns:xlink="http://www.w3.org/1999/xlink">
<g id="graph0" class="graph" transform="scale(1 1) rotate(0) translate(4 203)">
<title>boards/atxmega&#45;a1&#45;xplained/include/gpio_params.h</title>
<polygon fill="#ffffff" stroke="transparent" points="-4,4 -4,-203 485,-203 485,4 -4,4"/>
<!-- Node0 -->
<g id="node1" class="node">
<title>Node0</title>
<polygon fill="#bfbfbf" stroke="#000000" points="92.5,-168.5 92.5,-198.5 241.5,-198.5 241.5,-168.5 92.5,-168.5"/>
<text text-anchor="start" x="100.5" y="-186.5" font-family="Helvetica,sans-Serif" font-size="10.00" fill="#000000">boards/atxmega&#45;a1&#45;xplained</text>
<text text-anchor="middle" x="167" y="-175.5" font-family="Helvetica,sans-Serif" font-size="10.00" fill="#000000">/include/gpio_params.h</text>
</g>
<!-- Node1 -->
<g id="node2" class="node">
<title>Node1</title>
<g id="a_node2"><a xlink:href="atxmega-a1-xplained_2include_2board_8h.html" target="_top" xlink:title="Board specific definitions for the ATxmegaA1 Xplained board. ">
<polygon fill="#ffffff" stroke="#000000" points="98.5,-112.5 98.5,-131.5 151.5,-131.5 151.5,-112.5 98.5,-112.5"/>
<text text-anchor="middle" x="125" y="-119.5" font-family="Helvetica,sans-Serif" font-size="10.00" fill="#000000">board.h</text>
</a>
</g>
</g>
<!-- Node0&#45;&gt;Node1 -->
<g id="edge1" class="edge">
<title>Node0&#45;&gt;Node1</title>
<path fill="none" stroke="#191970" d="M156.618,-168.2977C150.8487,-159.8498 143.6284,-149.2773 137.5447,-140.369"/>
<polygon fill="#191970" stroke="#191970" points="140.2547,-138.1311 131.7247,-131.8469 134.4741,-142.0788 140.2547,-138.1311"/>
</g>
<!-- Node4 -->
<g id="node5" class="node">
<title>Node4</title>
<g id="a_node5"><a xlink:href="periph_8h.html" target="_top" xlink:title="Parameter definitions for mapping peripherals directly to SAUL. ">
<polygon fill="#ffffff" stroke="#000000" points="217,-112.5 217,-131.5 295,-131.5 295,-112.5 217,-112.5"/>
<text text-anchor="middle" x="256" y="-119.5" font-family="Helvetica,sans-Serif" font-size="10.00" fill="#000000">saul/periph.h</text>
</a>
</g>
</g>
<!-- Node0&#45;&gt;Node4 -->
<g id="edge4" class="edge">
<title>Node0&#45;&gt;Node4</title>
<path fill="none" stroke="#191970" d="M189,-168.2977C202.5968,-158.9022 219.9966,-146.8787 233.6567,-137.4395"/>
<polygon fill="#191970" stroke="#191970" points="235.7785,-140.2276 242.0158,-131.6633 231.7991,-134.4688 235.7785,-140.2276"/>
</g>
<!-- Node2 -->
<g id="node3" class="node">
<title>Node2</title>
<polygon fill="#ffffff" stroke="#bfbfbf" points="104,-56.5 104,-75.5 146,-75.5 146,-56.5 104,-56.5"/>
<text text-anchor="middle" x="125" y="-63.5" font-family="Helvetica,sans-Serif" font-size="10.00" fill="#000000">cpu.h</text>
</g>
<!-- Node1&#45;&gt;Node2 -->
<g id="edge2" class="edge">
<title>Node1&#45;&gt;Node2</title>
<path fill="none" stroke="#191970" d="M125,-112.2455C125,-104.9382 125,-94.6944 125,-85.7046"/>
<polygon fill="#191970" stroke="#191970" points="128.5001,-85.6426 125,-75.6427 121.5001,-85.6427 128.5001,-85.6426"/>
</g>
<!-- Node3 -->
<g id="node4" class="node">
<title>Node3</title>
<g id="a_node4"><a xlink:href="units_8h.html" target="_top" xlink:title="Unit helper macros. ">
<polygon fill="#ffffff" stroke="#000000" points="0,-56.5 0,-75.5 86,-75.5 86,-56.5 0,-56.5"/>
<text text-anchor="middle" x="43" y="-63.5" font-family="Helvetica,sans-Serif" font-size="10.00" fill="#000000">macros/units.h</text>
</a>
</g>
</g>
<!-- Node1&#45;&gt;Node3 -->
<g id="edge3" class="edge">
<title>Node1&#45;&gt;Node3</title>
<path fill="none" stroke="#191970" d="M110.7167,-112.2455C98.253,-103.7337 79.9549,-91.2375 65.5208,-81.3801"/>
<polygon fill="#191970" stroke="#191970" points="67.3515,-78.392 57.1196,-75.6427 63.4038,-84.1726 67.3515,-78.392"/>
</g>
<!-- Node5 -->
<g id="node6" class="node">
<title>Node5</title>
<g id="a_node6"><a xlink:href="drivers_2include_2periph_2gpio_8h.html" target="_top" xlink:title="Low&#45;level GPIO peripheral driver interface definitions. ">
<polygon fill="#ffffff" stroke="#000000" points="164,-56.5 164,-75.5 244,-75.5 244,-56.5 164,-56.5"/>
<text text-anchor="middle" x="204" y="-63.5" font-family="Helvetica,sans-Serif" font-size="10.00" fill="#000000">periph/gpio.h</text>
</a>
</g>
</g>
<!-- Node4&#45;&gt;Node5 -->
<g id="edge5" class="edge">
<title>Node4&#45;&gt;Node5</title>
<path fill="none" stroke="#191970" d="M246.9423,-112.2455C239.4858,-104.2155 228.7366,-92.6394 219.8583,-83.0781"/>
<polygon fill="#191970" stroke="#191970" points="222.3232,-80.589 212.9539,-75.6427 217.1937,-85.3522 222.3232,-80.589"/>
</g>
<!-- Node10 -->
<g id="node11" class="node">
<title>Node10</title>
<g id="a_node11"><a xlink:href="adc_8h.html" target="_top" xlink:title="Low&#45;level ADC peripheral driver interface definitions. ">
<polygon fill="#ffffff" stroke="#000000" points="364,-56.5 364,-75.5 440,-75.5 440,-56.5 364,-56.5"/>
<text text-anchor="middle" x="402" y="-63.5" font-family="Helvetica,sans-Serif" font-size="10.00" fill="#000000">periph/adc.h</text>
</a>
</g>
</g>
<!-- Node4&#45;&gt;Node10 -->
<g id="edge10" class="edge">
<title>Node4&#45;&gt;Node10</title>
<path fill="none" stroke="#191970" d="M281.0983,-112.3733C304.9555,-103.2226 341.0335,-89.3844 367.571,-79.2057"/>
<polygon fill="#191970" stroke="#191970" points="369.1459,-82.3503 377.2292,-75.5011 366.639,-75.8145 369.1459,-82.3503"/>
</g>
<!-- Node12 -->
<g id="node13" class="node">
<title>Node12</title>
<g id="a_node13"><a xlink:href="pwm_8h.html" target="_top" xlink:title="Low&#45;level PWM peripheral driver interface definitions. ">
<polygon fill="#ffffff" stroke="#000000" points="262.5,-56.5 262.5,-75.5 345.5,-75.5 345.5,-56.5 262.5,-56.5"/>
<text text-anchor="middle" x="304" y="-63.5" font-family="Helvetica,sans-Serif" font-size="10.00" fill="#000000">periph/pwm.h</text>
</a>
</g>
</g>
<!-- Node4&#45;&gt;Node12 -->
<g id="edge15" class="edge">
<title>Node4&#45;&gt;Node12</title>
<path fill="none" stroke="#191970" d="M264.361,-112.2455C271.175,-104.2958 280.9681,-92.8706 289.1152,-83.3656"/>
<polygon fill="#191970" stroke="#191970" points="291.8843,-85.513 295.7349,-75.6427 286.5695,-80.9575 291.8843,-85.513"/>
</g>
<!-- Node6 -->
<g id="node7" class="node">
<title>Node6</title>
<polygon fill="#ffffff" stroke="#bfbfbf" points="361,-.5 361,-19.5 411,-19.5 411,-.5 361,-.5"/>
<text text-anchor="middle" x="386" y="-7.5" font-family="Helvetica,sans-Serif" font-size="10.00" fill="#000000">limits.h</text>
</g>
<!-- Node5&#45;&gt;Node6 -->
<g id="edge6" class="edge">
<title>Node5&#45;&gt;Node6</title>
<path fill="none" stroke="#191970" d="M235.2869,-56.3733C267.5239,-46.4542 317.6608,-31.0275 351.1472,-20.7239"/>
<polygon fill="#191970" stroke="#191970" points="352.4382,-23.9887 360.9667,-17.7026 350.3796,-17.2983 352.4382,-23.9887"/>
</g>
<!-- Node7 -->
<g id="node8" class="node">
<title>Node7</title>
<polygon fill="#ffffff" stroke="#bfbfbf" points="88,-.5 88,-19.5 148,-19.5 148,-.5 88,-.5"/>
<text text-anchor="middle" x="118" y="-7.5" font-family="Helvetica,sans-Serif" font-size="10.00" fill="#000000">stdbool.h</text>
</g>
<!-- Node5&#45;&gt;Node7 -->
<g id="edge7" class="edge">
<title>Node5&#45;&gt;Node7</title>
<path fill="none" stroke="#191970" d="M189.0199,-56.2455C175.8249,-47.6534 156.3949,-35.0014 141.1921,-25.1018"/>
<polygon fill="#191970" stroke="#191970" points="143.0983,-22.1665 132.8084,-19.6427 139.2785,-28.0325 143.0983,-22.1665"/>
</g>
<!-- Node8 -->
<g id="node9" class="node">
<title>Node8</title>
<polygon fill="#ffffff" stroke="#bfbfbf" points="166.5,-.5 166.5,-19.5 243.5,-19.5 243.5,-.5 166.5,-.5"/>
<text text-anchor="middle" x="205" y="-7.5" font-family="Helvetica,sans-Serif" font-size="10.00" fill="#000000">periph_cpu.h</text>
</g>
<!-- Node5&#45;&gt;Node8 -->
<g id="edge8" class="edge">
<title>Node5&#45;&gt;Node8</title>
<path fill="none" stroke="#191970" d="M204.1742,-56.2455C204.3047,-48.9382 204.4876,-38.6944 204.6481,-29.7046"/>
<polygon fill="#191970" stroke="#191970" points="208.1486,-29.7036 204.8278,-19.6427 201.1497,-29.5786 208.1486,-29.7036"/>
</g>
<!-- Node9 -->
<g id="node10" class="node">
<title>Node9</title>
<polygon fill="#ffffff" stroke="#bfbfbf" points="261.5,-.5 261.5,-19.5 342.5,-19.5 342.5,-.5 261.5,-.5"/>
<text text-anchor="middle" x="302" y="-7.5" font-family="Helvetica,sans-Serif" font-size="10.00" fill="#000000">periph_conf.h</text>
</g>
<!-- Node5&#45;&gt;Node9 -->
<g id="edge9" class="edge">
<title>Node5&#45;&gt;Node9</title>
<path fill="none" stroke="#191970" d="M221.0703,-56.2455C236.247,-47.5731 258.6621,-34.7645 276.0563,-24.825"/>
<polygon fill="#191970" stroke="#191970" points="278.1794,-27.643 285.1253,-19.6427 274.7064,-21.5653 278.1794,-27.643"/>
</g>
<!-- Node10&#45;&gt;Node6 -->
<g id="edge11" class="edge">
<title>Node10&#45;&gt;Node6</title>
<path fill="none" stroke="#191970" d="M399.213,-56.2455C397.1023,-48.8579 394.134,-38.4689 391.5453,-29.4087"/>
<polygon fill="#191970" stroke="#191970" points="394.8677,-28.2964 388.755,-19.6427 388.137,-30.2195 394.8677,-28.2964"/>
</g>
<!-- Node10&#45;&gt;Node8 -->
<g id="edge13" class="edge">
<title>Node10&#45;&gt;Node8</title>
<path fill="none" stroke="#191970" d="M368.1345,-56.3733C334.951,-46.9404 284.245,-32.5265 248.1806,-22.2747"/>
<polygon fill="#191970" stroke="#191970" points="248.9995,-18.8689 238.4236,-19.5011 247.0855,-25.6021 248.9995,-18.8689"/>
</g>
<!-- Node10&#45;&gt;Node9 -->
<g id="edge14" class="edge">
<title>Node10&#45;&gt;Node9</title>
<path fill="none" stroke="#191970" d="M384.5813,-56.2455C368.9515,-47.4928 345.7981,-34.527 327.9815,-24.5496"/>
<polygon fill="#191970" stroke="#191970" points="329.6543,-21.475 319.2191,-19.6427 326.234,-27.5825 329.6543,-21.475"/>
</g>
<!-- Node11 -->
<g id="node12" class="node">
<title>Node11</title>
<polygon fill="#ffffff" stroke="#bfbfbf" points="429,-.5 429,-19.5 481,-19.5 481,-.5 429,-.5"/>
<text text-anchor="middle" x="455" y="-7.5" font-family="Helvetica,sans-Serif" font-size="10.00" fill="#000000">stdint.h</text>
</g>
<!-- Node10&#45;&gt;Node11 -->
<g id="edge12" class="edge">
<title>Node10&#45;&gt;Node11</title>
<path fill="none" stroke="#191970" d="M411.2319,-56.2455C418.8317,-48.2155 429.7877,-36.6394 438.8368,-27.0781"/>
<polygon fill="#191970" stroke="#191970" points="441.5421,-29.3115 445.8739,-19.6427 436.458,-24.4998 441.5421,-29.3115"/>
</g>
<!-- Node12&#45;&gt;Node6 -->
<g id="edge17" class="edge">
<title>Node12&#45;&gt;Node6</title>
<path fill="none" stroke="#191970" d="M318.2833,-56.2455C330.747,-47.7337 349.0451,-35.2375 363.4792,-25.3801"/>
<polygon fill="#191970" stroke="#191970" points="365.5962,-28.1726 371.8804,-19.6427 361.6485,-22.392 365.5962,-28.1726"/>
</g>
<!-- Node12&#45;&gt;Node8 -->
<g id="edge18" class="edge">
<title>Node12&#45;&gt;Node8</title>
<path fill="none" stroke="#191970" d="M286.7555,-56.2455C271.4239,-47.5731 248.7801,-34.7645 231.2084,-24.825"/>
<polygon fill="#191970" stroke="#191970" points="232.4741,-21.5198 222.0469,-19.6427 229.0276,-27.6126 232.4741,-21.5198"/>
</g>
<!-- Node12&#45;&gt;Node9 -->
<g id="edge19" class="edge">
<title>Node12&#45;&gt;Node9</title>
<path fill="none" stroke="#191970" d="M303.6516,-56.2455C303.3907,-48.9382 303.0248,-38.6944 302.7037,-29.7046"/>
<polygon fill="#191970" stroke="#191970" points="306.1992,-29.5113 302.3444,-19.6427 299.2036,-29.7613 306.1992,-29.5113"/>
</g>
<!-- Node12&#45;&gt;Node11 -->
<g id="edge16" class="edge">
<title>Node12&#45;&gt;Node11</title>
<path fill="none" stroke="#191970" d="M329.9578,-56.3733C354.7407,-47.1822 392.2746,-33.2624 419.754,-23.0713"/>
<polygon fill="#191970" stroke="#191970" points="421.2219,-26.26 429.3809,-19.5011 418.7879,-19.6968 421.2219,-26.26"/>
</g>
</g>
</svg>
