<?xml version="1.0" encoding="UTF-8" standalone="no"?>
<!DOCTYPE svg PUBLIC "-//W3C//DTD SVG 1.1//EN"
 "http://www.w3.org/Graphics/SVG/1.1/DTD/svg11.dtd">
<!-- Generated by graphviz version 2.40.1 (0)
 -->
<!-- Title: sys/include/auto_init_utils.h Pages: 1 -->
<svg width="307pt" height="263pt"
 viewBox="0.00 0.00 306.81 263.00" xmlns="http://www.w3.org/2000/svg" xmlns:xlink="http://www.w3.org/1999/xlink">
<g id="graph0" class="graph" transform="scale(1 1) rotate(0) translate(4 259)">
<title>sys/include/auto_init_utils.h</title>
<polygon fill="#ffffff" stroke="transparent" points="-4,4 -4,-259 302.8064,-259 302.8064,4 -4,4"/>
<!-- Node0 -->
<g id="node1" class="node">
<title>Node0</title>
<polygon fill="#bfbfbf" stroke="#000000" points="77.8064,-224.5 77.8064,-254.5 188.8064,-254.5 188.8064,-224.5 77.8064,-224.5"/>
<text text-anchor="start" x="85.8064" y="-242.5" font-family="Helvetica,sans-Serif" font-size="10.00" fill="#000000">sys/include/auto_init</text>
<text text-anchor="middle" x="133.3064" y="-231.5" font-family="Helvetica,sans-Serif" font-size="10.00" fill="#000000">_utils.h</text>
</g>
<!-- Node1 -->
<g id="node2" class="node">
<title>Node1</title>
<polygon fill="#ffffff" stroke="#bfbfbf" points="60.3064,-.5 60.3064,-19.5 112.3064,-19.5 112.3064,-.5 60.3064,-.5"/>
<text text-anchor="middle" x="86.3064" y="-7.5" font-family="Helvetica,sans-Serif" font-size="10.00" fill="#000000">stdint.h</text>
</g>
<!-- Node0&#45;&gt;Node1 -->
<g id="edge1" class="edge">
<title>Node0&#45;&gt;Node1</title>
<path fill="none" stroke="#191970" d="M101.8079,-224.3423C70.0757,-207.0524 23.187,-175.4484 4.3064,-132 -13.7452,-90.4592 32.6455,-47.8792 62.8014,-25.6672"/>
<polygon fill="#191970" stroke="#191970" points="65.061,-28.355 71.1795,-19.7054 61.0025,-22.6516 65.061,-28.355"/>
</g>
<!-- Node2 -->
<g id="node3" class="node">
<title>Node2</title>
<g id="a_node3"><a xlink:href="xfa_8h.html" target="_top" xlink:title="Cross File Arrays. ">
<polygon fill="#ffffff" stroke="#000000" points="73.3064,-168.5 73.3064,-187.5 113.3064,-187.5 113.3064,-168.5 73.3064,-168.5"/>
<text text-anchor="middle" x="93.3064" y="-175.5" font-family="Helvetica,sans-Serif" font-size="10.00" fill="#000000">xfa.h</text>
</a>
</g>
</g>
<!-- Node0&#45;&gt;Node2 -->
<g id="edge2" class="edge">
<title>Node0&#45;&gt;Node2</title>
<path fill="none" stroke="#191970" d="M123.4188,-224.2977C117.9242,-215.8498 111.0478,-205.2773 105.2538,-196.369"/>
<polygon fill="#191970" stroke="#191970" points="108.0972,-194.3215 99.7109,-187.8469 102.2292,-198.1381 108.0972,-194.3215"/>
</g>
<!-- Node6 -->
<g id="node7" class="node">
<title>Node6</title>
<g id="a_node7"><a xlink:href="xtstr_8h.html" target="_top" xlink:title="Macro to return string representation of x. ">
<polygon fill="#ffffff" stroke="#000000" points="131.3064,-168.5 131.3064,-187.5 215.3064,-187.5 215.3064,-168.5 131.3064,-168.5"/>
<text text-anchor="middle" x="173.3064" y="-175.5" font-family="Helvetica,sans-Serif" font-size="10.00" fill="#000000">macros/xtstr.h</text>
</a>
</g>
</g>
<!-- Node0&#45;&gt;Node6 -->
<g id="edge8" class="edge">
<title>Node0&#45;&gt;Node6</title>
<path fill="none" stroke="#191970" d="M143.194,-224.2977C148.6886,-215.8498 155.565,-205.2773 161.3591,-196.369"/>
<polygon fill="#191970" stroke="#191970" points="164.3836,-198.1381 166.9019,-187.8469 158.5156,-194.3215 164.3836,-198.1381"/>
</g>
<!-- Node8 -->
<g id="node9" class="node">
<title>Node8</title>
<g id="a_node9"><a xlink:href="modules_8h.html" target="_top" xlink:title="Common macros and compiler attributes/pragmas configuration. ">
<polygon fill="#ffffff" stroke="#000000" points="233.8064,-168.5 233.8064,-187.5 298.8064,-187.5 298.8064,-168.5 233.8064,-168.5"/>
<text text-anchor="middle" x="266.3064" y="-175.5" font-family="Helvetica,sans-Serif" font-size="10.00" fill="#000000">modules.h</text>
</a>
</g>
</g>
<!-- Node0&#45;&gt;Node8 -->
<g id="edge10" class="edge">
<title>Node0&#45;&gt;Node8</title>
<path fill="none" stroke="#191970" d="M165.8419,-224.4554C187.4493,-214.464 215.5962,-201.4487 236.5984,-191.7372"/>
<polygon fill="#191970" stroke="#191970" points="238.0885,-194.9043 245.6961,-187.5303 235.1505,-188.5506 238.0885,-194.9043"/>
</g>
<!-- Node3 -->
<g id="node4" class="node">
<title>Node3</title>
<g id="a_node4"><a xlink:href="inttypes_8h.html" target="_top" xlink:title="Adds include for missing inttype definitions. ">
<polygon fill="#ffffff" stroke="#000000" points="13.8064,-112.5 13.8064,-131.5 76.8064,-131.5 76.8064,-112.5 13.8064,-112.5"/>
<text text-anchor="middle" x="45.3064" y="-119.5" font-family="Helvetica,sans-Serif" font-size="10.00" fill="#000000">inttypes.h</text>
</a>
</g>
</g>
<!-- Node2&#45;&gt;Node3 -->
<g id="edge3" class="edge">
<title>Node2&#45;&gt;Node3</title>
<path fill="none" stroke="#191970" d="M84.9454,-168.2455C78.1314,-160.2958 68.3383,-148.8706 60.1912,-139.3656"/>
<polygon fill="#191970" stroke="#191970" points="62.7369,-136.9575 53.5716,-131.6427 57.4221,-141.513 62.7369,-136.9575"/>
</g>
<!-- Node4 -->
<g id="node5" class="node">
<title>Node4</title>
<g id="a_node5"><a xlink:href="compiler__hints_8h.html" target="_top" xlink:title="Common macros and compiler attributes/pragmas configuration. ">
<polygon fill="#ffffff" stroke="#000000" points="94.8064,-112.5 94.8064,-131.5 187.8064,-131.5 187.8064,-112.5 94.8064,-112.5"/>
<text text-anchor="middle" x="141.3064" y="-119.5" font-family="Helvetica,sans-Serif" font-size="10.00" fill="#000000">compiler_hints.h</text>
</a>
</g>
</g>
<!-- Node2&#45;&gt;Node4 -->
<g id="edge4" class="edge">
<title>Node2&#45;&gt;Node4</title>
<path fill="none" stroke="#191970" d="M101.6674,-168.2455C108.4814,-160.2958 118.2745,-148.8706 126.4216,-139.3656"/>
<polygon fill="#191970" stroke="#191970" points="129.1907,-141.513 133.0413,-131.6427 123.8759,-136.9575 129.1907,-141.513"/>
</g>
<!-- Node4&#45;&gt;Node1 -->
<g id="edge7" class="edge">
<title>Node4&#45;&gt;Node1</title>
<path fill="none" stroke="#191970" d="M131.7807,-112.1898C123.6941,-103.3706 112.3172,-89.7278 105.3064,-76 97.8496,-61.3988 92.9218,-43.4424 89.9574,-29.9473"/>
<polygon fill="#191970" stroke="#191970" points="93.3253,-28.9425 87.9168,-19.8322 86.4636,-30.3269 93.3253,-28.9425"/>
</g>
<!-- Node5 -->
<g id="node6" class="node">
<title>Node5</title>
<g id="a_node6"><a xlink:href="assert_8h.html" target="_top" xlink:title="POSIX.1&#45;2008 compliant version of the assert macro. ">
<polygon fill="#ffffff" stroke="#000000" points="114.3064,-56.5 114.3064,-75.5 168.3064,-75.5 168.3064,-56.5 114.3064,-56.5"/>
<text text-anchor="middle" x="141.3064" y="-63.5" font-family="Helvetica,sans-Serif" font-size="10.00" fill="#000000">assert.h</text>
</a>
</g>
</g>
<!-- Node4&#45;&gt;Node5 -->
<g id="edge5" class="edge">
<title>Node4&#45;&gt;Node5</title>
<path fill="none" stroke="#191970" d="M141.3064,-112.2455C141.3064,-104.9382 141.3064,-94.6944 141.3064,-85.7046"/>
<polygon fill="#191970" stroke="#191970" points="144.8065,-85.6426 141.3064,-75.6427 137.8065,-85.6427 144.8065,-85.6426"/>
</g>
<!-- Node5&#45;&gt;Node1 -->
<g id="edge6" class="edge">
<title>Node5&#45;&gt;Node1</title>
<path fill="none" stroke="#191970" d="M131.7261,-56.2455C123.7606,-48.1352 112.2423,-36.4075 102.7985,-26.7919"/>
<polygon fill="#191970" stroke="#191970" points="105.2811,-24.3247 95.7769,-19.6427 100.2869,-29.2297 105.2811,-24.3247"/>
</g>
<!-- Node7 -->
<g id="node8" class="node">
<title>Node7</title>
<polygon fill="#ffffff" stroke="#bfbfbf" points="206.3064,-112.5 206.3064,-131.5 262.3064,-131.5 262.3064,-112.5 206.3064,-112.5"/>
<text text-anchor="middle" x="234.3064" y="-119.5" font-family="Helvetica,sans-Serif" font-size="10.00" fill="#000000">stddef.h</text>
</g>
<!-- Node6&#45;&gt;Node7 -->
<g id="edge9" class="edge">
<title>Node6&#45;&gt;Node7</title>
<path fill="none" stroke="#191970" d="M183.9318,-168.2455C192.8537,-160.0549 205.7944,-148.1749 216.3256,-138.5069"/>
<polygon fill="#191970" stroke="#191970" points="218.8032,-140.9837 223.8028,-131.6427 214.0693,-135.8271 218.8032,-140.9837"/>
</g>
</g>
</svg>
