<?xml version="1.0" encoding="UTF-8" standalone="no"?>
<!DOCTYPE svg PUBLIC "-//W3C//DTD SVG 1.1//EN"
 "http://www.w3.org/Graphics/SVG/1.1/DTD/svg11.dtd">
<!-- Generated by graphviz version 2.40.1 (0)
 -->
<!-- Title: boards/avr&#45;rss2/include/eui_provider_params.h Pages: 1 -->
<svg width="743pt" height="375pt"
 viewBox="0.00 0.00 742.50 375.00" xmlns="http://www.w3.org/2000/svg" xmlns:xlink="http://www.w3.org/1999/xlink">
<g id="graph0" class="graph" transform="scale(1 1) rotate(0) translate(4 371)">
<title>boards/avr&#45;rss2/include/eui_provider_params.h</title>
<polygon fill="#ffffff" stroke="transparent" points="-4,4 -4,-371 738.5,-371 738.5,4 -4,4"/>
<!-- Node0 -->
<g id="node1" class="node">
<title>Node0</title>
<polygon fill="#bfbfbf" stroke="#000000" points="32,-336.5 32,-366.5 160,-366.5 160,-336.5 32,-336.5"/>
<text text-anchor="start" x="40" y="-354.5" font-family="Helvetica,sans-Serif" font-size="10.00" fill="#000000">boards/avr&#45;rss2/include</text>
<text text-anchor="middle" x="96" y="-343.5" font-family="Helvetica,sans-Serif" font-size="10.00" fill="#000000">/eui_provider_params.h</text>
</g>
<!-- Node1 -->
<g id="node2" class="node">
<title>Node1</title>
<g id="a_node2"><a xlink:href="at24mac_8h.html" target="_top" xlink:title="at24mac.h">
<polygon fill="#ffffff" stroke="#000000" points="63.5,-280.5 63.5,-299.5 128.5,-299.5 128.5,-280.5 63.5,-280.5"/>
<text text-anchor="middle" x="96" y="-287.5" font-family="Helvetica,sans-Serif" font-size="10.00" fill="#000000">at24mac.h</text>
</a>
</g>
</g>
<!-- Node0&#45;&gt;Node1 -->
<g id="edge1" class="edge">
<title>Node0&#45;&gt;Node1</title>
<path fill="none" stroke="#191970" d="M96,-336.2977C96,-328.3834 96,-318.6043 96,-310.0759"/>
<polygon fill="#191970" stroke="#191970" points="99.5001,-309.8469 96,-299.8469 92.5001,-309.847 99.5001,-309.8469"/>
</g>
<!-- Node2 -->
<g id="node3" class="node">
<title>Node2</title>
<polygon fill="#ffffff" stroke="#bfbfbf" points="88,-.5 88,-19.5 140,-19.5 140,-.5 88,-.5"/>
<text text-anchor="middle" x="114" y="-7.5" font-family="Helvetica,sans-Serif" font-size="10.00" fill="#000000">stdint.h</text>
</g>
<!-- Node1&#45;&gt;Node2 -->
<g id="edge2" class="edge">
<title>Node1&#45;&gt;Node2</title>
<path fill="none" stroke="#191970" d="M69.9922,-280.3781C53.1543,-272.8873 32.0174,-260.9016 19,-244 .3743,-219.8166 0,-208.5246 0,-178 0,-178 0,-178 0,-122 0,-75.4628 48.9383,-41.828 82.6864,-24.1659"/>
<polygon fill="#191970" stroke="#191970" points="84.3862,-27.2289 91.749,-19.6105 81.2424,-20.9746 84.3862,-27.2289"/>
</g>
<!-- Node3 -->
<g id="node4" class="node">
<title>Node3</title>
<g id="a_node4"><a xlink:href="eui48_8h.html" target="_top" xlink:title="Definition and IPv6 IID conversion for IEEE EUI&#45;48 identifiers. ">
<polygon fill="#ffffff" stroke="#000000" points="28.5,-224.5 28.5,-243.5 99.5,-243.5 99.5,-224.5 28.5,-224.5"/>
<text text-anchor="middle" x="64" y="-231.5" font-family="Helvetica,sans-Serif" font-size="10.00" fill="#000000">net/eui48.h</text>
</a>
</g>
</g>
<!-- Node1&#45;&gt;Node3 -->
<g id="edge3" class="edge">
<title>Node1&#45;&gt;Node3</title>
<path fill="none" stroke="#191970" d="M90.426,-280.2455C86.0669,-272.617 79.8789,-261.7881 74.5867,-252.5267"/>
<polygon fill="#191970" stroke="#191970" points="77.5104,-250.5886 69.5101,-243.6427 71.4327,-254.0616 77.5104,-250.5886"/>
</g>
<!-- Node4 -->
<g id="node5" class="node">
<title>Node4</title>
<g id="a_node5"><a xlink:href="eui64_8h.html" target="_top" xlink:title="EUI&#45;64 data type definition. ">
<polygon fill="#ffffff" stroke="#000000" points="79.5,-168.5 79.5,-187.5 150.5,-187.5 150.5,-168.5 79.5,-168.5"/>
<text text-anchor="middle" x="115" y="-175.5" font-family="Helvetica,sans-Serif" font-size="10.00" fill="#000000">net/eui64.h</text>
</a>
</g>
</g>
<!-- Node1&#45;&gt;Node4 -->
<g id="edge14" class="edge">
<title>Node1&#45;&gt;Node4</title>
<path fill="none" stroke="#191970" d="M99.005,-280.2247C101.7389,-270.9771 105.6896,-256.6663 108,-244 110.7827,-228.7448 112.5741,-211.2893 113.6476,-198.1627"/>
<polygon fill="#191970" stroke="#191970" points="117.159,-198.1385 114.4129,-187.9057 110.1784,-197.6176 117.159,-198.1385"/>
</g>
<!-- Node9 -->
<g id="node10" class="node">
<title>Node9</title>
<g id="a_node10"><a xlink:href="i2c_8h.html" target="_top" xlink:title="Low&#45;level I2C peripheral driver interface definition. ">
<polygon fill="#ffffff" stroke="#000000" points="442.5,-224.5 442.5,-243.5 515.5,-243.5 515.5,-224.5 442.5,-224.5"/>
<text text-anchor="middle" x="479" y="-231.5" font-family="Helvetica,sans-Serif" font-size="10.00" fill="#000000">periph/i2c.h</text>
</a>
</g>
</g>
<!-- Node1&#45;&gt;Node9 -->
<g id="edge15" class="edge">
<title>Node1&#45;&gt;Node9</title>
<path fill="none" stroke="#191970" d="M128.6544,-285.2255C196.6062,-275.29 353.4276,-252.3605 432.1424,-240.8512"/>
<polygon fill="#191970" stroke="#191970" points="432.869,-244.2823 442.2574,-239.3723 431.8562,-237.356 432.869,-244.2823"/>
</g>
<!-- Node3&#45;&gt;Node2 -->
<g id="edge4" class="edge">
<title>Node3&#45;&gt;Node2</title>
<path fill="none" stroke="#191970" d="M64.3424,-224.0845C64.9178,-211.1057 66.3936,-187.6922 70,-168 79.3195,-117.112 97.5733,-58.8719 107.3855,-29.3476"/>
<polygon fill="#191970" stroke="#191970" points="110.714,-30.4304 110.5865,-19.8363 104.0796,-28.1976 110.714,-30.4304"/>
</g>
<!-- Node3&#45;&gt;Node4 -->
<g id="edge5" class="edge">
<title>Node3&#45;&gt;Node4</title>
<path fill="none" stroke="#191970" d="M72.8835,-224.2455C80.1966,-216.2155 90.7391,-204.6394 99.4467,-195.0781"/>
<polygon fill="#191970" stroke="#191970" points="102.0727,-197.3928 106.2183,-187.6427 96.8972,-192.6795 102.0727,-197.3928"/>
</g>
<!-- Node4&#45;&gt;Node2 -->
<g id="edge6" class="edge">
<title>Node4&#45;&gt;Node2</title>
<path fill="none" stroke="#191970" d="M114.9434,-168.4862C114.7853,-141.9293 114.3367,-66.5651 114.12,-30.1655"/>
<polygon fill="#191970" stroke="#191970" points="117.6181,-29.8068 114.0585,-19.8279 110.6182,-29.8486 117.6181,-29.8068"/>
</g>
<!-- Node5 -->
<g id="node6" class="node">
<title>Node5</title>
<g id="a_node6"><a xlink:href="byteorder_8h.html" target="_top" xlink:title="Functions to work with different byte orders. ">
<polygon fill="#ffffff" stroke="#000000" points="132.5,-112.5 132.5,-131.5 205.5,-131.5 205.5,-112.5 132.5,-112.5"/>
<text text-anchor="middle" x="169" y="-119.5" font-family="Helvetica,sans-Serif" font-size="10.00" fill="#000000">byteorder.h</text>
</a>
</g>
</g>
<!-- Node4&#45;&gt;Node5 -->
<g id="edge7" class="edge">
<title>Node4&#45;&gt;Node5</title>
<path fill="none" stroke="#191970" d="M124.4061,-168.2455C132.1493,-160.2155 143.312,-148.6394 152.5318,-139.0781"/>
<polygon fill="#191970" stroke="#191970" points="155.2798,-141.2706 159.7017,-131.6427 150.2409,-136.4117 155.2798,-141.2706"/>
</g>
<!-- Node5&#45;&gt;Node2 -->
<g id="edge9" class="edge">
<title>Node5&#45;&gt;Node2</title>
<path fill="none" stroke="#191970" d="M159.4743,-112.1898C151.3877,-103.3706 140.0108,-89.7278 133,-76 125.5432,-61.3988 120.6153,-43.4424 117.651,-29.9473"/>
<polygon fill="#191970" stroke="#191970" points="121.0189,-28.9425 115.6104,-19.8322 114.1572,-30.3269 121.0189,-28.9425"/>
</g>
<!-- Node6 -->
<g id="node7" class="node">
<title>Node6</title>
<polygon fill="#ffffff" stroke="#bfbfbf" points="142.5,-56.5 142.5,-75.5 195.5,-75.5 195.5,-56.5 142.5,-56.5"/>
<text text-anchor="middle" x="169" y="-63.5" font-family="Helvetica,sans-Serif" font-size="10.00" fill="#000000">string.h</text>
</g>
<!-- Node5&#45;&gt;Node6 -->
<g id="edge8" class="edge">
<title>Node5&#45;&gt;Node6</title>
<path fill="none" stroke="#191970" d="M169,-112.2455C169,-104.9382 169,-94.6944 169,-85.7046"/>
<polygon fill="#191970" stroke="#191970" points="172.5001,-85.6426 169,-75.6427 165.5001,-85.6427 172.5001,-85.6426"/>
</g>
<!-- Node7 -->
<g id="node8" class="node">
<title>Node7</title>
<g id="a_node8"><a xlink:href="endian_8h.html" target="_top" xlink:title="libc header for endian conversion ">
<polygon fill="#ffffff" stroke="#000000" points="213.5,-56.5 213.5,-75.5 270.5,-75.5 270.5,-56.5 213.5,-56.5"/>
<text text-anchor="middle" x="242" y="-63.5" font-family="Helvetica,sans-Serif" font-size="10.00" fill="#000000">endian.h</text>
</a>
</g>
</g>
<!-- Node5&#45;&gt;Node7 -->
<g id="edge10" class="edge">
<title>Node5&#45;&gt;Node7</title>
<path fill="none" stroke="#191970" d="M181.7156,-112.2455C192.602,-103.8943 208.4883,-91.7076 221.22,-81.9408"/>
<polygon fill="#191970" stroke="#191970" points="223.6261,-84.5063 229.4301,-75.6427 219.3654,-78.9523 223.6261,-84.5063"/>
</g>
<!-- Node8 -->
<g id="node9" class="node">
<title>Node8</title>
<g id="a_node9"><a xlink:href="unaligned_8h.html" target="_top" xlink:title="Unaligned but safe memory access functions. ">
<polygon fill="#ffffff" stroke="#000000" points="288.5,-56.5 288.5,-75.5 359.5,-75.5 359.5,-56.5 288.5,-56.5"/>
<text text-anchor="middle" x="324" y="-63.5" font-family="Helvetica,sans-Serif" font-size="10.00" fill="#000000">unaligned.h</text>
</a>
</g>
</g>
<!-- Node5&#45;&gt;Node8 -->
<g id="edge12" class="edge">
<title>Node5&#45;&gt;Node8</title>
<path fill="none" stroke="#191970" d="M195.6454,-112.3733C221.1964,-103.1419 259.9512,-89.1402 288.1909,-78.9375"/>
<polygon fill="#191970" stroke="#191970" points="289.4865,-82.1909 297.7022,-75.5011 287.1079,-75.6074 289.4865,-82.1909"/>
</g>
<!-- Node7&#45;&gt;Node2 -->
<g id="edge11" class="edge">
<title>Node7&#45;&gt;Node2</title>
<path fill="none" stroke="#191970" d="M219.996,-56.3733C199.3565,-47.3435 168.2842,-33.7494 145.1111,-23.6111"/>
<polygon fill="#191970" stroke="#191970" points="146.2813,-20.3028 135.7169,-19.5011 143.4755,-26.7159 146.2813,-20.3028"/>
</g>
<!-- Node8&#45;&gt;Node2 -->
<g id="edge13" class="edge">
<title>Node8&#45;&gt;Node2</title>
<path fill="none" stroke="#191970" d="M288.3764,-56.5004C249.8125,-46.2167 188.6498,-29.9066 149.9565,-19.5884"/>
<polygon fill="#191970" stroke="#191970" points="150.7181,-16.1692 140.1539,-16.9744 148.9144,-22.9329 150.7181,-16.1692"/>
</g>
<!-- Node9&#45;&gt;Node2 -->
<g id="edge16" class="edge">
<title>Node9&#45;&gt;Node2</title>
<path fill="none" stroke="#191970" d="M455.7357,-224.4484C439.8443,-216.7987 419.4812,-204.5974 407,-188 370.2334,-139.1079 413.5305,-96.8558 368,-56 336.4694,-27.7067 212.9745,-16.1147 150.5486,-11.9871"/>
<polygon fill="#191970" stroke="#191970" points="150.5578,-8.4808 140.3572,-11.3439 150.1168,-15.4669 150.5578,-8.4808"/>
</g>
<!-- Node10 -->
<g id="node11" class="node">
<title>Node10</title>
<polygon fill="#ffffff" stroke="#bfbfbf" points="416,-168.5 416,-187.5 472,-187.5 472,-168.5 416,-168.5"/>
<text text-anchor="middle" x="444" y="-175.5" font-family="Helvetica,sans-Serif" font-size="10.00" fill="#000000">stddef.h</text>
</g>
<!-- Node9&#45;&gt;Node10 -->
<g id="edge17" class="edge">
<title>Node9&#45;&gt;Node10</title>
<path fill="none" stroke="#191970" d="M472.9035,-224.2455C468.0855,-216.5367 461.2249,-205.5598 455.3968,-196.2348"/>
<polygon fill="#191970" stroke="#191970" points="458.2947,-194.2677 450.0267,-187.6427 452.3587,-197.9777 458.2947,-194.2677"/>
</g>
<!-- Node11 -->
<g id="node12" class="node">
<title>Node11</title>
<polygon fill="#ffffff" stroke="#bfbfbf" points="490,-168.5 490,-187.5 540,-187.5 540,-168.5 490,-168.5"/>
<text text-anchor="middle" x="515" y="-175.5" font-family="Helvetica,sans-Serif" font-size="10.00" fill="#000000">limits.h</text>
</g>
<!-- Node9&#45;&gt;Node11 -->
<g id="edge18" class="edge">
<title>Node9&#45;&gt;Node11</title>
<path fill="none" stroke="#191970" d="M485.2707,-224.2455C490.2264,-216.5367 497.283,-205.5598 503.2776,-196.2348"/>
<polygon fill="#191970" stroke="#191970" points="506.3376,-197.9471 508.8011,-187.6427 500.4494,-194.1618 506.3376,-197.9471"/>
</g>
<!-- Node12 -->
<g id="node13" class="node">
<title>Node12</title>
<polygon fill="#ffffff" stroke="#bfbfbf" points="558.5,-168.5 558.5,-187.5 639.5,-187.5 639.5,-168.5 558.5,-168.5"/>
<text text-anchor="middle" x="599" y="-175.5" font-family="Helvetica,sans-Serif" font-size="10.00" fill="#000000">periph_conf.h</text>
</g>
<!-- Node9&#45;&gt;Node12 -->
<g id="edge19" class="edge">
<title>Node9&#45;&gt;Node12</title>
<path fill="none" stroke="#191970" d="M499.6287,-224.3733C518.8919,-215.3838 547.8486,-201.8706 569.5419,-191.7471"/>
<polygon fill="#191970" stroke="#191970" points="571.0587,-194.9017 578.6405,-187.5011 568.0985,-188.5584 571.0587,-194.9017"/>
</g>
<!-- Node13 -->
<g id="node14" class="node">
<title>Node13</title>
<polygon fill="#ffffff" stroke="#bfbfbf" points="657.5,-168.5 657.5,-187.5 734.5,-187.5 734.5,-168.5 657.5,-168.5"/>
<text text-anchor="middle" x="696" y="-175.5" font-family="Helvetica,sans-Serif" font-size="10.00" fill="#000000">periph_cpu.h</text>
</g>
<!-- Node9&#45;&gt;Node13 -->
<g id="edge20" class="edge">
<title>Node9&#45;&gt;Node13</title>
<path fill="none" stroke="#191970" d="M515.8111,-224.5004C552.5972,-215.0072 609.2835,-200.3785 649.2342,-190.0686"/>
<polygon fill="#191970" stroke="#191970" points="650.2002,-193.4341 659.0083,-187.5462 648.451,-186.6561 650.2002,-193.4341"/>
</g>
</g>
</svg>
