<?xml version="1.0" encoding="UTF-8" standalone="no"?>
<!DOCTYPE svg PUBLIC "-//W3C//DTD SVG 1.1//EN"
 "http://www.w3.org/Graphics/SVG/1.1/DTD/svg11.dtd">
<!-- Generated by graphviz version 2.40.1 (0)
 -->
<!-- Title: cpu/avr8_common/include/irq_arch.h Pages: 1 -->
<svg width="929pt" height="431pt"
 viewBox="0.00 0.00 928.50 431.00" xmlns="http://www.w3.org/2000/svg" xmlns:xlink="http://www.w3.org/1999/xlink">
<g id="graph0" class="graph" transform="scale(1 1) rotate(0) translate(4 427)">
<title>cpu/avr8_common/include/irq_arch.h</title>
<polygon fill="#ffffff" stroke="transparent" points="-4,4 -4,-427 924.5,-427 924.5,4 -4,4"/>
<!-- Node0 -->
<g id="node1" class="node">
<title>Node0</title>
<polygon fill="#bfbfbf" stroke="#000000" points="659.5,-392.5 659.5,-422.5 799.5,-422.5 799.5,-392.5 659.5,-392.5"/>
<text text-anchor="start" x="667.5" y="-410.5" font-family="Helvetica,sans-Serif" font-size="10.00" fill="#000000">cpu/avr8_common/include</text>
<text text-anchor="middle" x="729.5" y="-399.5" font-family="Helvetica,sans-Serif" font-size="10.00" fill="#000000">/irq_arch.h</text>
</g>
<!-- Node1 -->
<g id="node2" class="node">
<title>Node1</title>
<polygon fill="#ffffff" stroke="#bfbfbf" points="585.5,-112.5 585.5,-131.5 645.5,-131.5 645.5,-112.5 585.5,-112.5"/>
<text text-anchor="middle" x="615.5" y="-119.5" font-family="Helvetica,sans-Serif" font-size="10.00" fill="#000000">stdbool.h</text>
</g>
<!-- Node0&#45;&gt;Node1 -->
<g id="edge1" class="edge">
<title>Node0&#45;&gt;Node1</title>
<path fill="none" stroke="#191970" d="M779.1747,-392.4514C823.8497,-375.4773 882.5,-343.0844 882.5,-290 882.5,-290 882.5,-290 882.5,-234 882.5,-185.3907 730.109,-146.304 655.5843,-130.0955"/>
<polygon fill="#191970" stroke="#191970" points="656.1202,-126.631 645.6093,-127.9616 654.6559,-133.4761 656.1202,-126.631"/>
</g>
<!-- Node2 -->
<g id="node3" class="node">
<title>Node2</title>
<polygon fill="#ffffff" stroke="#bfbfbf" points="230.5,-.5 230.5,-19.5 282.5,-19.5 282.5,-.5 230.5,-.5"/>
<text text-anchor="middle" x="256.5" y="-7.5" font-family="Helvetica,sans-Serif" font-size="10.00" fill="#000000">stdint.h</text>
</g>
<!-- Node0&#45;&gt;Node2 -->
<g id="edge2" class="edge">
<title>Node0&#45;&gt;Node2</title>
<path fill="none" stroke="#191970" d="M799.5368,-394.0836C854.0481,-379.104 920.5,-348.7873 920.5,-290 920.5,-290 920.5,-290 920.5,-122 920.5,-57.7675 431.1243,-21.2761 292.6249,-12.2348"/>
<polygon fill="#191970" stroke="#191970" points="292.7341,-8.7346 282.5296,-11.584 292.2837,-15.7201 292.7341,-8.7346"/>
</g>
<!-- Node3 -->
<g id="node4" class="node">
<title>Node3</title>
<g id="a_node4"><a xlink:href="stdio_8h.html" target="_top" xlink:title="stdio wrapper to extend the C libs stdio ">
<polygon fill="#ffffff" stroke="#000000" points="222.5,-280.5 222.5,-299.5 270.5,-299.5 270.5,-280.5 222.5,-280.5"/>
<text text-anchor="middle" x="246.5" y="-287.5" font-family="Helvetica,sans-Serif" font-size="10.00" fill="#000000">stdio.h</text>
</a>
</g>
</g>
<!-- Node0&#45;&gt;Node3 -->
<g id="edge3" class="edge">
<title>Node0&#45;&gt;Node3</title>
<path fill="none" stroke="#191970" d="M660.9465,-392.4627C574.4278,-373.1855 420.9154,-337.9878 280.2758,-300.101"/>
<polygon fill="#191970" stroke="#191970" points="281.1696,-296.717 270.6027,-297.4853 279.3423,-303.4744 281.1696,-296.717"/>
</g>
<!-- Node14 -->
<g id="node15" class="node">
<title>Node14</title>
<g id="a_node15"><a xlink:href="avr8__common_2include_2cpu_8h.html" target="_top" xlink:title="Common implementations and headers for AVR&#45;8 family based micro&#45;controllers. ">
<polygon fill="#ffffff" stroke="#000000" points="536.5,-336.5 536.5,-355.5 578.5,-355.5 578.5,-336.5 536.5,-336.5"/>
<text text-anchor="middle" x="557.5" y="-343.5" font-family="Helvetica,sans-Serif" font-size="10.00" fill="#000000">cpu.h</text>
</a>
</g>
</g>
<!-- Node0&#45;&gt;Node14 -->
<g id="edge19" class="edge">
<title>Node0&#45;&gt;Node14</title>
<path fill="none" stroke="#191970" d="M687.4241,-392.4554C656.7767,-381.4972 615.9564,-366.9016 588.3105,-357.0165"/>
<polygon fill="#191970" stroke="#191970" points="589.359,-353.6745 578.7644,-353.6033 587.0022,-360.2658 589.359,-353.6745"/>
</g>
<!-- Node4 -->
<g id="node5" class="node">
<title>Node4</title>
<g id="a_node5"><a xlink:href="flash__utils_8h.html" target="_top" xlink:title="Utility functions, macros, and types for read&#45;only memory. ">
<polygon fill="#ffffff" stroke="#000000" points="211,-224.5 211,-243.5 282,-243.5 282,-224.5 211,-224.5"/>
<text text-anchor="middle" x="246.5" y="-231.5" font-family="Helvetica,sans-Serif" font-size="10.00" fill="#000000">flash_utils.h</text>
</a>
</g>
</g>
<!-- Node3&#45;&gt;Node4 -->
<g id="edge4" class="edge">
<title>Node3&#45;&gt;Node4</title>
<path fill="none" stroke="#191970" d="M241.2332,-280.2455C239.8221,-272.9382 239.4179,-262.6944 240.0205,-253.7046"/>
<polygon fill="#191970" stroke="#191970" points="243.5111,-253.9945 241.2549,-243.6427 236.5632,-253.1421 243.5111,-253.9945"/>
</g>
<!-- Node4&#45;&gt;Node3 -->
<g id="edge5" class="edge">
<title>Node4&#45;&gt;Node3</title>
<path fill="none" stroke="#191970" d="M251.7451,-243.6427C253.1665,-250.9199 253.581,-261.155 252.9887,-270.1575"/>
<polygon fill="#191970" stroke="#191970" points="249.4947,-269.8972 251.7668,-280.2455 256.4439,-270.739 249.4947,-269.8972"/>
</g>
<!-- Node5 -->
<g id="node6" class="node">
<title>Node5</title>
<polygon fill="#ffffff" stroke="#bfbfbf" points="49,-168.5 49,-187.5 102,-187.5 102,-168.5 49,-168.5"/>
<text text-anchor="middle" x="75.5" y="-175.5" font-family="Helvetica,sans-Serif" font-size="10.00" fill="#000000">string.h</text>
</g>
<!-- Node4&#45;&gt;Node5 -->
<g id="edge6" class="edge">
<title>Node4&#45;&gt;Node5</title>
<path fill="none" stroke="#191970" d="M217.1041,-224.3733C187.98,-214.8356 143.3063,-200.2056 111.9429,-189.9345"/>
<polygon fill="#191970" stroke="#191970" points="112.8569,-186.551 102.2643,-186.7649 110.6783,-193.2034 112.8569,-186.551"/>
</g>
<!-- Node6 -->
<g id="node7" class="node">
<title>Node6</title>
<polygon fill="#ffffff" stroke="#bfbfbf" points="120,-168.5 120,-187.5 187,-187.5 187,-168.5 120,-168.5"/>
<text text-anchor="middle" x="153.5" y="-175.5" font-family="Helvetica,sans-Serif" font-size="10.00" fill="#000000">cpu_conf.h</text>
</g>
<!-- Node4&#45;&gt;Node6 -->
<g id="edge7" class="edge">
<title>Node4&#45;&gt;Node6</title>
<path fill="none" stroke="#191970" d="M230.3006,-224.2455C215.8982,-215.5731 194.6268,-202.7645 178.1201,-192.825"/>
<polygon fill="#191970" stroke="#191970" points="179.886,-189.8028 169.5137,-187.6427 176.275,-195.7996 179.886,-189.8028"/>
</g>
<!-- Node7 -->
<g id="node8" class="node">
<title>Node7</title>
<g id="a_node8"><a xlink:href="kernel__defines_8h.html" target="_top" xlink:title="Common macros and compiler attributes/pragmas configuration. ">
<polygon fill="#ffffff" stroke="#000000" points="205,-168.5 205,-187.5 300,-187.5 300,-168.5 205,-168.5"/>
<text text-anchor="middle" x="252.5" y="-175.5" font-family="Helvetica,sans-Serif" font-size="10.00" fill="#000000">kernel_defines.h</text>
</a>
</g>
</g>
<!-- Node4&#45;&gt;Node7 -->
<g id="edge8" class="edge">
<title>Node4&#45;&gt;Node7</title>
<path fill="none" stroke="#191970" d="M247.5451,-224.2455C248.328,-216.9382 249.4256,-206.6944 250.3888,-197.7046"/>
<polygon fill="#191970" stroke="#191970" points="253.8815,-197.9587 251.4669,-187.6427 246.9214,-197.2129 253.8815,-197.9587"/>
</g>
<!-- Node8 -->
<g id="node9" class="node">
<title>Node8</title>
<g id="a_node9"><a xlink:href="modules_8h.html" target="_top" xlink:title="Common macros and compiler attributes/pragmas configuration. ">
<polygon fill="#ffffff" stroke="#000000" points="237,-112.5 237,-131.5 302,-131.5 302,-112.5 237,-112.5"/>
<text text-anchor="middle" x="269.5" y="-119.5" font-family="Helvetica,sans-Serif" font-size="10.00" fill="#000000">modules.h</text>
</a>
</g>
</g>
<!-- Node7&#45;&gt;Node8 -->
<g id="edge9" class="edge">
<title>Node7&#45;&gt;Node8</title>
<path fill="none" stroke="#191970" d="M255.4612,-168.2455C257.7038,-160.8579 260.8577,-150.4689 263.6081,-141.4087"/>
<polygon fill="#191970" stroke="#191970" points="267.017,-142.2282 266.5728,-131.6427 260.3188,-140.1948 267.017,-142.2282"/>
</g>
<!-- Node9 -->
<g id="node10" class="node">
<title>Node9</title>
<g id="a_node10"><a xlink:href="riot__version_8h.html" target="_top" xlink:title="Common macros and compiler attributes/pragmas configuration. ">
<polygon fill="#ffffff" stroke="#000000" points="147,-56.5 147,-75.5 228,-75.5 228,-56.5 147,-56.5"/>
<text text-anchor="middle" x="187.5" y="-63.5" font-family="Helvetica,sans-Serif" font-size="10.00" fill="#000000">riot_version.h</text>
</a>
</g>
</g>
<!-- Node7&#45;&gt;Node9 -->
<g id="edge10" class="edge">
<title>Node7&#45;&gt;Node9</title>
<path fill="none" stroke="#191970" d="M218.1918,-168.4883C188.7159,-159.5407 149.571,-145.5319 140.5,-132 128.7879,-114.5282 146.7935,-94.9492 163.7961,-81.6858"/>
<polygon fill="#191970" stroke="#191970" points="165.936,-84.4568 171.9277,-75.7189 161.7948,-78.8132 165.936,-84.4568"/>
</g>
<!-- Node10 -->
<g id="node11" class="node">
<title>Node10</title>
<g id="a_node11"><a xlink:href="compiler__hints_8h.html" target="_top" xlink:title="Common macros and compiler attributes/pragmas configuration. ">
<polygon fill="#ffffff" stroke="#000000" points="0,-112.5 0,-131.5 93,-131.5 93,-112.5 0,-112.5"/>
<text text-anchor="middle" x="46.5" y="-119.5" font-family="Helvetica,sans-Serif" font-size="10.00" fill="#000000">compiler_hints.h</text>
</a>
</g>
</g>
<!-- Node7&#45;&gt;Node10 -->
<g id="edge12" class="edge">
<title>Node7&#45;&gt;Node10</title>
<path fill="none" stroke="#191970" d="M217.0873,-168.3733C182.2395,-158.9001 128.9118,-144.4032 91.1707,-134.1435"/>
<polygon fill="#191970" stroke="#191970" points="92.0185,-130.747 81.4506,-131.5011 90.1822,-137.5019 92.0185,-130.747"/>
</g>
<!-- Node12 -->
<g id="node13" class="node">
<title>Node12</title>
<g id="a_node13"><a xlink:href="container_8h.html" target="_top" xlink:title="Common macros and compiler attributes/pragmas configuration. ">
<polygon fill="#ffffff" stroke="#000000" points="150,-112.5 150,-131.5 219,-131.5 219,-112.5 150,-112.5"/>
<text text-anchor="middle" x="184.5" y="-119.5" font-family="Helvetica,sans-Serif" font-size="10.00" fill="#000000">container.h</text>
</a>
</g>
</g>
<!-- Node7&#45;&gt;Node12 -->
<g id="edge16" class="edge">
<title>Node7&#45;&gt;Node12</title>
<path fill="none" stroke="#191970" d="M240.6553,-168.2455C230.612,-159.9746 216.0005,-147.9416 204.1996,-138.2232"/>
<polygon fill="#191970" stroke="#191970" points="206.1533,-135.298 196.209,-131.6427 201.7033,-140.7015 206.1533,-135.298"/>
</g>
<!-- Node9&#45;&gt;Node2 -->
<g id="edge11" class="edge">
<title>Node9&#45;&gt;Node2</title>
<path fill="none" stroke="#191970" d="M199.5189,-56.2455C209.7098,-47.9746 224.5362,-35.9416 236.5107,-26.2232"/>
<polygon fill="#191970" stroke="#191970" points="239.0598,-28.662 244.6188,-19.6427 234.6486,-23.2268 239.0598,-28.662"/>
</g>
<!-- Node10&#45;&gt;Node2 -->
<g id="edge15" class="edge">
<title>Node10&#45;&gt;Node2</title>
<path fill="none" stroke="#191970" d="M46.4148,-112.405C46.8326,-98.0327 49.8214,-71.004 65.5,-56 87.4245,-35.0187 171.152,-20.9803 220.1721,-14.37"/>
<polygon fill="#191970" stroke="#191970" points="220.9033,-17.8042 230.364,-13.0351 219.9941,-10.8635 220.9033,-17.8042"/>
</g>
<!-- Node11 -->
<g id="node12" class="node">
<title>Node11</title>
<g id="a_node12"><a xlink:href="assert_8h.html" target="_top" xlink:title="POSIX.1&#45;2008 compliant version of the assert macro. ">
<polygon fill="#ffffff" stroke="#000000" points="74.5,-56.5 74.5,-75.5 128.5,-75.5 128.5,-56.5 74.5,-56.5"/>
<text text-anchor="middle" x="101.5" y="-63.5" font-family="Helvetica,sans-Serif" font-size="10.00" fill="#000000">assert.h</text>
</a>
</g>
</g>
<!-- Node10&#45;&gt;Node11 -->
<g id="edge13" class="edge">
<title>Node10&#45;&gt;Node11</title>
<path fill="none" stroke="#191970" d="M56.0803,-112.2455C64.0458,-104.1352 75.5641,-92.4075 85.0079,-82.7919"/>
<polygon fill="#191970" stroke="#191970" points="87.5195,-85.2297 92.0295,-75.6427 82.5253,-80.3247 87.5195,-85.2297"/>
</g>
<!-- Node11&#45;&gt;Node2 -->
<g id="edge14" class="edge">
<title>Node11&#45;&gt;Node2</title>
<path fill="none" stroke="#191970" d="M128.1454,-56.3733C153.7739,-47.114 192.6862,-33.0553 220.9474,-22.8448"/>
<polygon fill="#191970" stroke="#191970" points="222.2445,-26.0977 230.4602,-19.4079 219.8659,-19.5142 222.2445,-26.0977"/>
</g>
<!-- Node12&#45;&gt;Node2 -->
<g id="edge18" class="edge">
<title>Node12&#45;&gt;Node2</title>
<path fill="none" stroke="#191970" d="M199.3129,-112.3636C210.993,-104.0431 226.8678,-91.0146 236.5,-76 245.5801,-61.8459 250.717,-43.3562 253.5042,-29.5489"/>
<polygon fill="#191970" stroke="#191970" points="256.9592,-30.1105 255.2662,-19.6518 250.0675,-28.8835 256.9592,-30.1105"/>
</g>
<!-- Node13 -->
<g id="node14" class="node">
<title>Node13</title>
<polygon fill="#ffffff" stroke="#bfbfbf" points="358.5,-56.5 358.5,-75.5 414.5,-75.5 414.5,-56.5 358.5,-56.5"/>
<text text-anchor="middle" x="386.5" y="-63.5" font-family="Helvetica,sans-Serif" font-size="10.00" fill="#000000">stddef.h</text>
</g>
<!-- Node12&#45;&gt;Node13 -->
<g id="edge17" class="edge">
<title>Node12&#45;&gt;Node13</title>
<path fill="none" stroke="#191970" d="M219.225,-112.3733C255.2099,-102.3973 311.2903,-86.8502 348.4552,-76.5471"/>
<polygon fill="#191970" stroke="#191970" points="349.7021,-79.8335 358.4036,-73.7891 347.832,-73.0879 349.7021,-79.8335"/>
</g>
<!-- Node14&#45;&gt;Node2 -->
<g id="edge21" class="edge">
<title>Node14&#45;&gt;Node2</title>
<path fill="none" stroke="#191970" d="M560.6531,-336.44C565.8583,-322.1134 577.5944,-295.1435 596.5,-280 636.9784,-247.5766 660.1623,-265.1878 707.5,-244 757.1702,-221.7681 826.363,-217.3828 803.5,-168 787.3377,-133.0904 770.972,-130.9611 737.5,-112 670.1184,-73.83 647.7975,-74.0977 572.5,-56 472.5777,-31.9838 351.677,-18.6291 292.5705,-13.0881"/>
<polygon fill="#191970" stroke="#191970" points="292.8883,-9.6026 282.6102,-12.1739 292.2484,-16.5733 292.8883,-9.6026"/>
</g>
<!-- Node14&#45;&gt;Node3 -->
<g id="edge20" class="edge">
<title>Node14&#45;&gt;Node3</title>
<path fill="none" stroke="#191970" d="M536.3915,-343.4623C491.163,-337.8236 381.4524,-323.0706 280.3113,-299.9479"/>
<polygon fill="#191970" stroke="#191970" points="281.0849,-296.5345 270.5526,-297.6841 279.503,-303.3534 281.0849,-296.5345"/>
</g>
<!-- Node14&#45;&gt;Node6 -->
<g id="edge28" class="edge">
<title>Node14&#45;&gt;Node6</title>
<path fill="none" stroke="#191970" d="M546.13,-336.3291C518.2155,-313.1153 443.2668,-253.9515 370.5,-224 300.0824,-195.0154 275.0775,-204.3312 197.6371,-188.3605"/>
<polygon fill="#191970" stroke="#191970" points="197.9168,-184.841 187.4053,-186.1675 196.4498,-191.6856 197.9168,-184.841"/>
</g>
<!-- Node15 -->
<g id="node16" class="node">
<title>Node15</title>
<polygon fill="#ffffff" stroke="#bfbfbf" points="605,-280.5 605,-299.5 692,-299.5 692,-280.5 605,-280.5"/>
<text text-anchor="middle" x="648.5" y="-287.5" font-family="Helvetica,sans-Serif" font-size="10.00" fill="#000000">avr/interrupt.h</text>
</g>
<!-- Node14&#45;&gt;Node15 -->
<g id="edge22" class="edge">
<title>Node14&#45;&gt;Node15</title>
<path fill="none" stroke="#191970" d="M573.351,-336.2455C587.3132,-327.6534 607.8728,-315.0014 623.9596,-305.1018"/>
<polygon fill="#191970" stroke="#191970" points="626.1484,-307.8645 632.8307,-299.6427 622.4797,-301.9029 626.1484,-307.8645"/>
</g>
<!-- Node16 -->
<g id="node17" class="node">
<title>Node16</title>
<g id="a_node17"><a xlink:href="architecture_8h.html" target="_top" xlink:title="Platform&#45;independent access to architecture details. ">
<polygon fill="#ffffff" stroke="#000000" points="615,-224.5 615,-243.5 698,-243.5 698,-224.5 615,-224.5"/>
<text text-anchor="middle" x="656.5" y="-231.5" font-family="Helvetica,sans-Serif" font-size="10.00" fill="#000000">architecture.h</text>
</a>
</g>
</g>
<!-- Node14&#45;&gt;Node16 -->
<g id="edge23" class="edge">
<title>Node14&#45;&gt;Node16</title>
<path fill="none" stroke="#191970" d="M555.4136,-336.068C553.0896,-322.2261 551.0241,-296.9317 562.5,-280 572.8958,-264.6618 589.9269,-254.244 606.6567,-247.2605"/>
<polygon fill="#191970" stroke="#191970" points="608.3251,-250.37 616.4198,-243.5343 605.8291,-243.8302 608.3251,-250.37"/>
</g>
<!-- Node20 -->
<g id="node21" class="node">
<title>Node20</title>
<polygon fill="#ffffff" stroke="#bfbfbf" points="710,-280.5 710,-299.5 779,-299.5 779,-280.5 710,-280.5"/>
<text text-anchor="middle" x="744.5" y="-287.5" font-family="Helvetica,sans-Serif" font-size="10.00" fill="#000000">cpu_clock.h</text>
</g>
<!-- Node14&#45;&gt;Node20 -->
<g id="edge29" class="edge">
<title>Node14&#45;&gt;Node20</title>
<path fill="none" stroke="#191970" d="M578.5878,-339.6849C608.5752,-330.7047 664.1678,-314.0567 702.6898,-302.5207"/>
<polygon fill="#191970" stroke="#191970" points="704.0021,-305.7814 712.5776,-299.5596 701.9939,-299.0756 704.0021,-305.7814"/>
</g>
<!-- Node21 -->
<g id="node22" class="node">
<title>Node21</title>
<g id="a_node22"><a xlink:href="sched_8h.html" target="_top" xlink:title="Scheduler API definition. ">
<polygon fill="#ffffff" stroke="#000000" points="439,-224.5 439,-243.5 492,-243.5 492,-224.5 439,-224.5"/>
<text text-anchor="middle" x="465.5" y="-231.5" font-family="Helvetica,sans-Serif" font-size="10.00" fill="#000000">sched.h</text>
</a>
</g>
</g>
<!-- Node14&#45;&gt;Node21 -->
<g id="edge30" class="edge">
<title>Node14&#45;&gt;Node21</title>
<path fill="none" stroke="#191970" d="M549.6561,-336.4509C534.1758,-317.6054 499.4947,-275.3849 479.8273,-251.4419"/>
<polygon fill="#191970" stroke="#191970" points="482.376,-249.0306 473.324,-243.5249 476.9669,-253.4738 482.376,-249.0306"/>
</g>
<!-- Node25 -->
<g id="node26" class="node">
<title>Node25</title>
<polygon fill="#ffffff" stroke="#bfbfbf" points="797,-280.5 797,-299.5 854,-299.5 854,-280.5 797,-280.5"/>
<text text-anchor="middle" x="825.5" y="-287.5" font-family="Helvetica,sans-Serif" font-size="10.00" fill="#000000">thread.h</text>
</g>
<!-- Node14&#45;&gt;Node25 -->
<g id="edge39" class="edge">
<title>Node14&#45;&gt;Node25</title>
<path fill="none" stroke="#191970" d="M578.6236,-342.2862C617.8344,-335.2878 704.7082,-319.2931 787.1025,-300.2229"/>
<polygon fill="#191970" stroke="#191970" points="787.9227,-303.6256 796.8651,-297.9437 786.3312,-296.8089 787.9227,-303.6256"/>
</g>
<!-- Node26 -->
<g id="node27" class="node">
<title>Node26</title>
<g id="a_node27"><a xlink:href="states__internal_8h.html" target="_top" xlink:title="States internal interface. ">
<polygon fill="#ffffff" stroke="#000000" points="288.5,-280.5 288.5,-299.5 382.5,-299.5 382.5,-280.5 288.5,-280.5"/>
<text text-anchor="middle" x="335.5" y="-287.5" font-family="Helvetica,sans-Serif" font-size="10.00" fill="#000000">states_internal.h</text>
</a>
</g>
</g>
<!-- Node14&#45;&gt;Node26 -->
<g id="edge40" class="edge">
<title>Node14&#45;&gt;Node26</title>
<path fill="none" stroke="#191970" d="M536.2137,-340.6305C501.1576,-331.7875 430.4433,-313.9497 383.0185,-301.9866"/>
<polygon fill="#191970" stroke="#191970" points="383.8256,-298.5807 373.2732,-299.5284 382.1134,-305.3681 383.8256,-298.5807"/>
</g>
<!-- Node16&#45;&gt;Node2 -->
<g id="edge24" class="edge">
<title>Node16&#45;&gt;Node2</title>
<path fill="none" stroke="#191970" d="M698.2026,-229.002C745.0462,-221.5394 811.5882,-204.2788 787.5,-168 730.9991,-82.9051 402.7286,-30.2509 292.5464,-14.7833"/>
<polygon fill="#191970" stroke="#191970" points="292.9666,-11.3082 282.5809,-13.4027 292.006,-18.242 292.9666,-11.3082"/>
</g>
<!-- Node17 -->
<g id="node18" class="node">
<title>Node17</title>
<g id="a_node18"><a xlink:href="inttypes_8h.html" target="_top" xlink:title="Adds include for missing inttype definitions. ">
<polygon fill="#ffffff" stroke="#000000" points="522,-168.5 522,-187.5 585,-187.5 585,-168.5 522,-168.5"/>
<text text-anchor="middle" x="553.5" y="-175.5" font-family="Helvetica,sans-Serif" font-size="10.00" fill="#000000">inttypes.h</text>
</a>
</g>
</g>
<!-- Node16&#45;&gt;Node17 -->
<g id="edge25" class="edge">
<title>Node16&#45;&gt;Node17</title>
<path fill="none" stroke="#191970" d="M638.5588,-224.2455C622.46,-215.4928 598.6121,-202.527 580.2609,-192.5496"/>
<polygon fill="#191970" stroke="#191970" points="581.6929,-189.3444 571.2356,-187.6427 578.3493,-195.4942 581.6929,-189.3444"/>
</g>
<!-- Node18 -->
<g id="node19" class="node">
<title>Node18</title>
<polygon fill="#ffffff" stroke="#bfbfbf" points="728.5,-168.5 728.5,-187.5 778.5,-187.5 778.5,-168.5 728.5,-168.5"/>
<text text-anchor="middle" x="753.5" y="-175.5" font-family="Helvetica,sans-Serif" font-size="10.00" fill="#000000">limits.h</text>
</g>
<!-- Node16&#45;&gt;Node18 -->
<g id="edge26" class="edge">
<title>Node16&#45;&gt;Node18</title>
<path fill="none" stroke="#191970" d="M673.3961,-224.2455C688.418,-215.5731 710.6043,-202.7645 727.821,-192.825"/>
<polygon fill="#191970" stroke="#191970" points="729.8871,-195.6737 736.7975,-187.6427 726.3872,-189.6114 729.8871,-195.6737"/>
</g>
<!-- Node19 -->
<g id="node20" class="node">
<title>Node19</title>
<polygon fill="#ffffff" stroke="#bfbfbf" points="603,-168.5 603,-187.5 710,-187.5 710,-168.5 603,-168.5"/>
<text text-anchor="middle" x="656.5" y="-175.5" font-family="Helvetica,sans-Serif" font-size="10.00" fill="#000000">architecture_arch.h</text>
</g>
<!-- Node16&#45;&gt;Node19 -->
<g id="edge27" class="edge">
<title>Node16&#45;&gt;Node19</title>
<path fill="none" stroke="#191970" d="M656.5,-224.2455C656.5,-216.9382 656.5,-206.6944 656.5,-197.7046"/>
<polygon fill="#191970" stroke="#191970" points="660.0001,-197.6426 656.5,-187.6427 653.0001,-197.6427 660.0001,-197.6426"/>
</g>
<!-- Node21&#45;&gt;Node7 -->
<g id="edge33" class="edge">
<title>Node21&#45;&gt;Node7</title>
<path fill="none" stroke="#191970" d="M438.9541,-227.0208C403.8513,-217.7919 341.4389,-201.383 298.5626,-190.1104"/>
<polygon fill="#191970" stroke="#191970" points="299.2127,-186.6624 288.6514,-187.5046 297.4328,-193.4323 299.2127,-186.6624"/>
</g>
<!-- Node21&#45;&gt;Node13 -->
<g id="edge31" class="edge">
<title>Node21&#45;&gt;Node13</title>
<path fill="none" stroke="#191970" d="M447.6777,-224.3351C434.7055,-216.3376 417.8376,-203.7519 408.5,-188 389.4657,-155.8902 386.1246,-111.2914 385.9494,-85.8641"/>
<polygon fill="#191970" stroke="#191970" points="389.4513,-85.677 386.0467,-75.6441 382.4516,-85.6103 389.4513,-85.677"/>
</g>
<!-- Node21&#45;&gt;Node17 -->
<g id="edge32" class="edge">
<title>Node21&#45;&gt;Node17</title>
<path fill="none" stroke="#191970" d="M480.8284,-224.2455C494.3303,-215.6534 514.2122,-203.0014 529.7686,-193.1018"/>
<polygon fill="#191970" stroke="#191970" points="531.7897,-195.9643 538.3472,-187.6427 528.0315,-190.0587 531.7897,-195.9643"/>
</g>
<!-- Node22 -->
<g id="node23" class="node">
<title>Node22</title>
<g id="a_node23"><a xlink:href="native__sched_8h.html" target="_top" xlink:title="Add definitions required on the native board. ">
<polygon fill="#ffffff" stroke="#000000" points="417.5,-168.5 417.5,-187.5 503.5,-187.5 503.5,-168.5 417.5,-168.5"/>
<text text-anchor="middle" x="460.5" y="-175.5" font-family="Helvetica,sans-Serif" font-size="10.00" fill="#000000">native_sched.h</text>
</a>
</g>
</g>
<!-- Node21&#45;&gt;Node22 -->
<g id="edge34" class="edge">
<title>Node21&#45;&gt;Node22</title>
<path fill="none" stroke="#191970" d="M464.6291,-224.2455C463.9766,-216.9382 463.062,-206.6944 462.2593,-197.7046"/>
<polygon fill="#191970" stroke="#191970" points="465.7365,-197.2918 461.361,-187.6427 458.7642,-197.9143 465.7365,-197.2918"/>
</g>
<!-- Node23 -->
<g id="node24" class="node">
<title>Node23</title>
<g id="a_node24"><a xlink:href="clist_8h.html" target="_top" xlink:title="Circular linked list. ">
<polygon fill="#ffffff" stroke="#000000" points="318,-168.5 318,-187.5 361,-187.5 361,-168.5 318,-168.5"/>
<text text-anchor="middle" x="339.5" y="-175.5" font-family="Helvetica,sans-Serif" font-size="10.00" fill="#000000">clist.h</text>
</a>
</g>
</g>
<!-- Node21&#45;&gt;Node23 -->
<g id="edge35" class="edge">
<title>Node21&#45;&gt;Node23</title>
<path fill="none" stroke="#191970" d="M443.8398,-224.3733C423.5228,-215.3435 392.936,-201.7494 370.125,-191.6111"/>
<polygon fill="#191970" stroke="#191970" points="371.4372,-188.3642 360.8775,-187.5011 368.5941,-194.7609 371.4372,-188.3642"/>
</g>
<!-- Node23&#45;&gt;Node1 -->
<g id="edge36" class="edge">
<title>Node23&#45;&gt;Node1</title>
<path fill="none" stroke="#191970" d="M361.1573,-173.6058C407.3115,-164.2411 515.9695,-142.1946 575.2311,-130.1705"/>
<polygon fill="#191970" stroke="#191970" points="576.2428,-133.5366 585.3471,-128.118 574.8508,-126.6764 576.2428,-133.5366"/>
</g>
<!-- Node23&#45;&gt;Node13 -->
<g id="edge37" class="edge">
<title>Node23&#45;&gt;Node13</title>
<path fill="none" stroke="#191970" d="M346.5375,-168.1905C352.7568,-159.1525 361.7141,-145.1841 367.5,-132 374.0885,-116.987 379.0807,-99.0611 382.2908,-85.6825"/>
<polygon fill="#191970" stroke="#191970" points="385.7613,-86.2047 384.5639,-75.6777 378.9352,-84.6537 385.7613,-86.2047"/>
</g>
<!-- Node24 -->
<g id="node25" class="node">
<title>Node24</title>
<g id="a_node25"><a xlink:href="list_8h.html" target="_top" xlink:title="Intrusive linked list. ">
<polygon fill="#ffffff" stroke="#000000" points="320.5,-112.5 320.5,-131.5 358.5,-131.5 358.5,-112.5 320.5,-112.5"/>
<text text-anchor="middle" x="339.5" y="-119.5" font-family="Helvetica,sans-Serif" font-size="10.00" fill="#000000">list.h</text>
</a>
</g>
</g>
<!-- Node23&#45;&gt;Node24 -->
<g id="edge38" class="edge">
<title>Node23&#45;&gt;Node24</title>
<path fill="none" stroke="#191970" d="M339.5,-168.2455C339.5,-160.9382 339.5,-150.6944 339.5,-141.7046"/>
<polygon fill="#191970" stroke="#191970" points="343.0001,-141.6426 339.5,-131.6427 336.0001,-141.6427 343.0001,-141.6426"/>
</g>
<!-- Node27 -->
<g id="node28" class="node">
<title>Node27</title>
<polygon fill="#ffffff" stroke="#bfbfbf" points="309,-224.5 309,-243.5 362,-243.5 362,-224.5 309,-224.5"/>
<text text-anchor="middle" x="335.5" y="-231.5" font-family="Helvetica,sans-Serif" font-size="10.00" fill="#000000">avr/io.h</text>
</g>
<!-- Node26&#45;&gt;Node27 -->
<g id="edge41" class="edge">
<title>Node26&#45;&gt;Node27</title>
<path fill="none" stroke="#191970" d="M335.5,-280.2455C335.5,-272.9382 335.5,-262.6944 335.5,-253.7046"/>
<polygon fill="#191970" stroke="#191970" points="339.0001,-253.6426 335.5,-243.6427 332.0001,-253.6427 339.0001,-253.6426"/>
</g>
</g>
</svg>
