<?xml version="1.0" encoding="UTF-8" standalone="no"?>
<!DOCTYPE svg PUBLIC "-//W3C//DTD SVG 1.1//EN"
 "http://www.w3.org/Graphics/SVG/1.1/DTD/svg11.dtd">
<!-- Generated by graphviz version 2.40.1 (0)
 -->
<!-- Title: boards/reel/include/periph_conf.h Pages: 1 -->
<svg width="549pt" height="95pt"
 viewBox="0.00 0.00 549.00 95.00" xmlns="http://www.w3.org/2000/svg" xmlns:xlink="http://www.w3.org/1999/xlink">
<g id="graph0" class="graph" transform="scale(1 1) rotate(0) translate(4 91)">
<title>boards/reel/include/periph_conf.h</title>
<polygon fill="#ffffff" stroke="transparent" points="-4,4 -4,-91 545,-91 545,4 -4,4"/>
<!-- Node0 -->
<g id="node1" class="node">
<title>Node0</title>
<polygon fill="#bfbfbf" stroke="#000000" points="201.5,-56.5 201.5,-86.5 309.5,-86.5 309.5,-56.5 201.5,-56.5"/>
<text text-anchor="start" x="209.5" y="-74.5" font-family="Helvetica,sans-Serif" font-size="10.00" fill="#000000">boards/reel/include</text>
<text text-anchor="middle" x="255.5" y="-63.5" font-family="Helvetica,sans-Serif" font-size="10.00" fill="#000000">/periph_conf.h</text>
</g>
<!-- Node1 -->
<g id="node2" class="node">
<title>Node1</title>
<polygon fill="#ffffff" stroke="#bfbfbf" points="0,-.5 0,-19.5 77,-19.5 77,-.5 0,-.5"/>
<text text-anchor="middle" x="38.5" y="-7.5" font-family="Helvetica,sans-Serif" font-size="10.00" fill="#000000">periph_cpu.h</text>
</g>
<!-- Node0&#45;&gt;Node1 -->
<g id="edge1" class="edge">
<title>Node0&#45;&gt;Node1</title>
<path fill="none" stroke="#191970" d="M202.4158,-56.4554C165.4148,-45.9689 116.6604,-32.1515 81.9658,-22.3187"/>
<polygon fill="#191970" stroke="#191970" points="82.7027,-18.8897 72.1273,-19.5303 80.794,-25.6245 82.7027,-18.8897"/>
</g>
<!-- Node2 -->
<g id="node3" class="node">
<title>Node2</title>
<g id="a_node3"><a xlink:href="cfg__clock__32__1_8h.html" target="_top" xlink:title="Common clock configuration for the nRF52 based boards. ">
<polygon fill="#ffffff" stroke="#000000" points="95.5,-.5 95.5,-19.5 189.5,-19.5 189.5,-.5 95.5,-.5"/>
<text text-anchor="middle" x="142.5" y="-7.5" font-family="Helvetica,sans-Serif" font-size="10.00" fill="#000000">cfg_clock_32_1.h</text>
</a>
</g>
</g>
<!-- Node0&#45;&gt;Node2 -->
<g id="edge2" class="edge">
<title>Node0&#45;&gt;Node2</title>
<path fill="none" stroke="#191970" d="M227.8571,-56.4554C209.9951,-46.734 186.8732,-34.15 169.2005,-24.5317"/>
<polygon fill="#191970" stroke="#191970" points="170.4675,-21.2365 160.011,-19.5303 167.1213,-27.3849 170.4675,-21.2365"/>
</g>
<!-- Node3 -->
<g id="node4" class="node">
<title>Node3</title>
<polygon fill="#ffffff" stroke="#bfbfbf" points="208,-.5 208,-19.5 303,-19.5 303,-.5 208,-.5"/>
<text text-anchor="middle" x="255.5" y="-7.5" font-family="Helvetica,sans-Serif" font-size="10.00" fill="#000000">cfg_i2c_default.h</text>
</g>
<!-- Node0&#45;&gt;Node3 -->
<g id="edge3" class="edge">
<title>Node0&#45;&gt;Node3</title>
<path fill="none" stroke="#191970" d="M255.5,-56.2977C255.5,-48.3834 255.5,-38.6043 255.5,-30.0759"/>
<polygon fill="#191970" stroke="#191970" points="259.0001,-29.8469 255.5,-19.8469 252.0001,-29.847 259.0001,-29.8469"/>
</g>
<!-- Node4 -->
<g id="node5" class="node">
<title>Node4</title>
<polygon fill="#ffffff" stroke="#bfbfbf" points="321.5,-.5 321.5,-19.5 415.5,-19.5 415.5,-.5 321.5,-.5"/>
<text text-anchor="middle" x="368.5" y="-7.5" font-family="Helvetica,sans-Serif" font-size="10.00" fill="#000000">cfg_rtt_default.h</text>
</g>
<!-- Node0&#45;&gt;Node4 -->
<g id="edge4" class="edge">
<title>Node0&#45;&gt;Node4</title>
<path fill="none" stroke="#191970" d="M283.1429,-56.4554C301.0049,-46.734 324.1268,-34.15 341.7995,-24.5317"/>
<polygon fill="#191970" stroke="#191970" points="343.8787,-27.3849 350.989,-19.5303 340.5325,-21.2365 343.8787,-27.3849"/>
</g>
<!-- Node5 -->
<g id="node6" class="node">
<title>Node5</title>
<polygon fill="#ffffff" stroke="#bfbfbf" points="434,-.5 434,-19.5 541,-19.5 541,-.5 434,-.5"/>
<text text-anchor="middle" x="487.5" y="-7.5" font-family="Helvetica,sans-Serif" font-size="10.00" fill="#000000">cfg_timer_default.h</text>
</g>
<!-- Node0&#45;&gt;Node5 -->
<g id="edge5" class="edge">
<title>Node0&#45;&gt;Node5</title>
<path fill="none" stroke="#191970" d="M309.6009,-57.1586C349.67,-46.5368 403.6742,-32.2211 441.6352,-22.1581"/>
<polygon fill="#191970" stroke="#191970" points="442.6369,-25.5136 451.4062,-19.568 440.8432,-18.7473 442.6369,-25.5136"/>
</g>
</g>
</svg>
