<?xml version="1.0" encoding="UTF-8" standalone="no"?>
<!DOCTYPE svg PUBLIC "-//W3C//DTD SVG 1.1//EN"
 "http://www.w3.org/Graphics/SVG/1.1/DTD/svg11.dtd">
<!-- Generated by graphviz version 2.40.1 (0)
 -->
<!-- Title: boards/stm32mp157c&#45;dk2/include/periph_conf.h Pages: 1 -->
<svg width="212pt" height="162pt"
 viewBox="0.00 0.00 212.00 162.00" xmlns="http://www.w3.org/2000/svg" xmlns:xlink="http://www.w3.org/1999/xlink">
<g id="graph0" class="graph" transform="scale(1 1) rotate(0) translate(4 158)">
<title>boards/stm32mp157c&#45;dk2/include/periph_conf.h</title>
<polygon fill="#ffffff" stroke="transparent" points="-4,4 -4,-158 208,-158 208,4 -4,4"/>
<!-- Node0 -->
<g id="node1" class="node">
<title>Node0</title>
<polygon fill="#bfbfbf" stroke="#000000" points="0,-112.5 0,-153.5 119,-153.5 119,-112.5 0,-112.5"/>
<text text-anchor="start" x="8" y="-141.5" font-family="Helvetica,sans-Serif" font-size="10.00" fill="#000000">boards/stm32mp157c</text>
<text text-anchor="start" x="8" y="-130.5" font-family="Helvetica,sans-Serif" font-size="10.00" fill="#000000">&#45;dk2/include/periph</text>
<text text-anchor="middle" x="59.5" y="-119.5" font-family="Helvetica,sans-Serif" font-size="10.00" fill="#000000">_conf.h</text>
</g>
<!-- Node1 -->
<g id="node2" class="node">
<title>Node1</title>
<polygon fill="#ffffff" stroke="#bfbfbf" points="40,-.5 40,-19.5 117,-19.5 117,-.5 40,-.5"/>
<text text-anchor="middle" x="78.5" y="-7.5" font-family="Helvetica,sans-Serif" font-size="10.00" fill="#000000">periph_cpu.h</text>
</g>
<!-- Node0&#45;&gt;Node1 -->
<g id="edge1" class="edge">
<title>Node0&#45;&gt;Node1</title>
<path fill="none" stroke="#191970" d="M37.1838,-112.2263C23.4469,-96.8104 10.113,-75.2215 19.5,-56 25.9041,-42.8865 38.0521,-32.4229 49.6685,-24.8092"/>
<polygon fill="#191970" stroke="#191970" points="51.6098,-27.7252 58.3439,-19.5457 47.9789,-21.7405 51.6098,-27.7252"/>
</g>
<!-- Node2 -->
<g id="node3" class="node">
<title>Node2</title>
<polygon fill="#ffffff" stroke="#bfbfbf" points="28.5,-56.5 28.5,-75.5 90.5,-75.5 90.5,-56.5 28.5,-56.5"/>
<text text-anchor="middle" x="59.5" y="-63.5" font-family="Helvetica,sans-Serif" font-size="10.00" fill="#000000">clk_conf.h</text>
</g>
<!-- Node0&#45;&gt;Node2 -->
<g id="edge2" class="edge">
<title>Node0&#45;&gt;Node2</title>
<path fill="none" stroke="#191970" d="M59.5,-112.168C59.5,-103.8226 59.5,-94.2471 59.5,-85.9879"/>
<polygon fill="#191970" stroke="#191970" points="63.0001,-85.7804 59.5,-75.7805 56.0001,-85.7805 63.0001,-85.7804"/>
</g>
<!-- Node3 -->
<g id="node4" class="node">
<title>Node3</title>
<g id="a_node4"><a xlink:href="cfg__timer__tim2_8h.html" target="_top" xlink:title="Common configuration for STM32 Timer peripheral based on TIM2. ">
<polygon fill="#ffffff" stroke="#000000" points="109,-56.5 109,-75.5 204,-75.5 204,-56.5 109,-56.5"/>
<text text-anchor="middle" x="156.5" y="-63.5" font-family="Helvetica,sans-Serif" font-size="10.00" fill="#000000">cfg_timer_tim2.h</text>
</a>
</g>
</g>
<!-- Node0&#45;&gt;Node3 -->
<g id="edge3" class="edge">
<title>Node0&#45;&gt;Node3</title>
<path fill="none" stroke="#191970" d="M89.3947,-112.3511C103.7773,-102.4167 120.733,-90.7051 134.002,-81.5398"/>
<polygon fill="#191970" stroke="#191970" points="136.2835,-84.2178 142.5224,-75.6546 132.3052,-78.4581 136.2835,-84.2178"/>
</g>
<!-- Node3&#45;&gt;Node1 -->
<g id="edge4" class="edge">
<title>Node3&#45;&gt;Node1</title>
<path fill="none" stroke="#191970" d="M142.9134,-56.2455C131.1695,-47.814 113.9801,-35.4729 100.3118,-25.6598"/>
<polygon fill="#191970" stroke="#191970" points="102.0954,-22.6316 91.9309,-19.6427 98.0129,-28.3179 102.0954,-22.6316"/>
</g>
</g>
</svg>
