<?xml version="1.0" encoding="UTF-8" standalone="no"?>
<!DOCTYPE svg PUBLIC "-//W3C//DTD SVG 1.1//EN"
 "http://www.w3.org/Graphics/SVG/1.1/DTD/svg11.dtd">
<!-- Generated by graphviz version 2.40.1 (0)
 -->
<!-- Title: boards/b&#45;u585i&#45;iot02a/include/periph_conf.h Pages: 1 -->
<svg width="339pt" height="207pt"
 viewBox="0.00 0.00 338.87 207.00" xmlns="http://www.w3.org/2000/svg" xmlns:xlink="http://www.w3.org/1999/xlink">
<g id="graph0" class="graph" transform="scale(1 1) rotate(0) translate(4 203)">
<title>boards/b&#45;u585i&#45;iot02a/include/periph_conf.h</title>
<polygon fill="#ffffff" stroke="transparent" points="-4,4 -4,-203 334.8718,-203 334.8718,4 -4,4"/>
<!-- Node0 -->
<g id="node1" class="node">
<title>Node0</title>
<polygon fill="#bfbfbf" stroke="#000000" points="31.8718,-168.5 31.8718,-198.5 153.8718,-198.5 153.8718,-168.5 31.8718,-168.5"/>
<text text-anchor="start" x="39.8718" y="-186.5" font-family="Helvetica,sans-Serif" font-size="10.00" fill="#000000">boards/b&#45;u585i&#45;iot02a</text>
<text text-anchor="middle" x="92.8718" y="-175.5" font-family="Helvetica,sans-Serif" font-size="10.00" fill="#000000">/include/periph_conf.h</text>
</g>
<!-- Node1 -->
<g id="node2" class="node">
<title>Node1</title>
<polygon fill="#ffffff" stroke="#bfbfbf" points="101.3718,-56.5 101.3718,-75.5 178.3718,-75.5 178.3718,-56.5 101.3718,-56.5"/>
<text text-anchor="middle" x="139.8718" y="-63.5" font-family="Helvetica,sans-Serif" font-size="10.00" fill="#000000">periph_cpu.h</text>
</g>
<!-- Node0&#45;&gt;Node1 -->
<g id="edge1" class="edge">
<title>Node0&#45;&gt;Node1</title>
<path fill="none" stroke="#191970" d="M49.4371,-168.4493C19.5461,-155.6136 -11.9698,-135.531 4.8718,-112 15.2992,-97.4308 57.0775,-84.6338 91.4297,-76.261"/>
<polygon fill="#191970" stroke="#191970" points="92.4234,-79.6226 101.3483,-73.9134 90.811,-72.8108 92.4234,-79.6226"/>
</g>
<!-- Node2 -->
<g id="node3" class="node">
<title>Node2</title>
<polygon fill="#ffffff" stroke="#bfbfbf" points="13.8718,-112.5 13.8718,-131.5 75.8718,-131.5 75.8718,-112.5 13.8718,-112.5"/>
<text text-anchor="middle" x="44.8718" y="-119.5" font-family="Helvetica,sans-Serif" font-size="10.00" fill="#000000">clk_conf.h</text>
</g>
<!-- Node0&#45;&gt;Node2 -->
<g id="edge2" class="edge">
<title>Node0&#45;&gt;Node2</title>
<path fill="none" stroke="#191970" d="M81.0066,-168.2977C74.2743,-159.672 65.8132,-148.8312 58.7712,-139.8087"/>
<polygon fill="#191970" stroke="#191970" points="61.469,-137.5766 52.5572,-131.8469 55.9508,-141.8836 61.469,-137.5766"/>
</g>
<!-- Node3 -->
<g id="node4" class="node">
<title>Node3</title>
<g id="a_node4"><a xlink:href="cfg__timer__tim5_8h.html" target="_top" xlink:title="Common configuration for STM32 Timer peripheral based on TIM5. ">
<polygon fill="#ffffff" stroke="#000000" points="94.3718,-112.5 94.3718,-131.5 189.3718,-131.5 189.3718,-112.5 94.3718,-112.5"/>
<text text-anchor="middle" x="141.8718" y="-119.5" font-family="Helvetica,sans-Serif" font-size="10.00" fill="#000000">cfg_timer_tim5.h</text>
</a>
</g>
</g>
<!-- Node0&#45;&gt;Node3 -->
<g id="edge3" class="edge">
<title>Node0&#45;&gt;Node3</title>
<path fill="none" stroke="#191970" d="M104.9841,-168.2977C111.8567,-159.672 120.494,-148.8312 127.6827,-139.8087"/>
<polygon fill="#191970" stroke="#191970" points="130.5322,-141.849 134.0262,-131.8469 125.0574,-137.487 130.5322,-141.849"/>
</g>
<!-- Node4 -->
<g id="node5" class="node">
<title>Node4</title>
<g id="a_node5"><a xlink:href="cfg__usb__otg__fs__u5_8h.html" target="_top" xlink:title="Common configuration for STM32 OTG FS peripheral for U5 family. ">
<polygon fill="#ffffff" stroke="#000000" points="207.8718,-112.5 207.8718,-131.5 317.8718,-131.5 317.8718,-112.5 207.8718,-112.5"/>
<text text-anchor="middle" x="262.8718" y="-119.5" font-family="Helvetica,sans-Serif" font-size="10.00" fill="#000000">cfg_usb_otg_fs_u5.h</text>
</a>
</g>
</g>
<!-- Node0&#45;&gt;Node4 -->
<g id="edge5" class="edge">
<title>Node0&#45;&gt;Node4</title>
<path fill="none" stroke="#191970" d="M134.4584,-168.4554C162.8234,-158.194 200.0051,-144.7429 227.0554,-134.9571"/>
<polygon fill="#191970" stroke="#191970" points="228.3149,-138.2235 236.5278,-131.5303 225.9335,-131.641 228.3149,-138.2235"/>
</g>
<!-- Node3&#45;&gt;Node1 -->
<g id="edge4" class="edge">
<title>Node3&#45;&gt;Node1</title>
<path fill="none" stroke="#191970" d="M141.5234,-112.2455C141.2624,-104.9382 140.8966,-94.6944 140.5755,-85.7046"/>
<polygon fill="#191970" stroke="#191970" points="144.0709,-85.5113 140.2161,-75.6427 137.0754,-85.7613 144.0709,-85.5113"/>
</g>
<!-- Node4&#45;&gt;Node1 -->
<g id="edge6" class="edge">
<title>Node4&#45;&gt;Node1</title>
<path fill="none" stroke="#191970" d="M241.7273,-112.3733C221.9826,-103.3838 192.3019,-89.8706 170.0663,-79.7471"/>
<polygon fill="#191970" stroke="#191970" points="171.2917,-76.4594 160.7403,-75.5011 168.3912,-82.8302 171.2917,-76.4594"/>
</g>
<!-- Node5 -->
<g id="node6" class="node">
<title>Node5</title>
<g id="a_node6"><a xlink:href="usbdev__synopsys__dwc2_8h.html" target="_top" xlink:title="Low level USB FS/HS driver definitions for MCUs with Synopsys DWC2 IP core. ">
<polygon fill="#ffffff" stroke="#000000" points="196.8718,-56.5 196.8718,-75.5 330.8718,-75.5 330.8718,-56.5 196.8718,-56.5"/>
<text text-anchor="middle" x="263.8718" y="-63.5" font-family="Helvetica,sans-Serif" font-size="10.00" fill="#000000">usbdev_synopsys_dwc2.h</text>
</a>
</g>
</g>
<!-- Node4&#45;&gt;Node5 -->
<g id="edge7" class="edge">
<title>Node4&#45;&gt;Node5</title>
<path fill="none" stroke="#191970" d="M263.046,-112.2455C263.1764,-104.9382 263.3594,-94.6944 263.5199,-85.7046"/>
<polygon fill="#191970" stroke="#191970" points="267.0204,-85.7036 263.6996,-75.6427 260.0215,-85.5786 267.0204,-85.7036"/>
</g>
<!-- Node6 -->
<g id="node7" class="node">
<title>Node6</title>
<polygon fill="#ffffff" stroke="#bfbfbf" points="237.8718,-.5 237.8718,-19.5 289.8718,-19.5 289.8718,-.5 237.8718,-.5"/>
<text text-anchor="middle" x="263.8718" y="-7.5" font-family="Helvetica,sans-Serif" font-size="10.00" fill="#000000">stdint.h</text>
</g>
<!-- Node5&#45;&gt;Node6 -->
<g id="edge8" class="edge">
<title>Node5&#45;&gt;Node6</title>
<path fill="none" stroke="#191970" d="M263.8718,-56.2455C263.8718,-48.9382 263.8718,-38.6944 263.8718,-29.7046"/>
<polygon fill="#191970" stroke="#191970" points="267.3719,-29.6426 263.8718,-19.6427 260.3719,-29.6427 267.3719,-29.6426"/>
</g>
</g>
</svg>
