<?xml version="1.0" encoding="UTF-8" standalone="no"?>
<!DOCTYPE svg PUBLIC "-//W3C//DTD SVG 1.1//EN"
 "http://www.w3.org/Graphics/SVG/1.1/DTD/svg11.dtd">
<!-- Generated by graphviz version 2.40.1 (0)
 -->
<!-- Title: boards/rpi&#45;pico/include/periph_conf.h Pages: 1 -->
<svg width="349pt" height="263pt"
 viewBox="0.00 0.00 348.82 263.00" xmlns="http://www.w3.org/2000/svg" xmlns:xlink="http://www.w3.org/1999/xlink">
<g id="graph0" class="graph" transform="scale(1 1) rotate(0) translate(4 259)">
<title>boards/rpi&#45;pico/include/periph_conf.h</title>
<polygon fill="#ffffff" stroke="transparent" points="-4,4 -4,-259 344.8169,-259 344.8169,4 -4,4"/>
<!-- Node0 -->
<g id="node1" class="node">
<title>Node0</title>
<polygon fill="#bfbfbf" stroke="#000000" points="85.8169,-224.5 85.8169,-254.5 209.8169,-254.5 209.8169,-224.5 85.8169,-224.5"/>
<text text-anchor="start" x="93.8169" y="-242.5" font-family="Helvetica,sans-Serif" font-size="10.00" fill="#000000">boards/rpi&#45;pico/include</text>
<text text-anchor="middle" x="147.8169" y="-231.5" font-family="Helvetica,sans-Serif" font-size="10.00" fill="#000000">/periph_conf.h</text>
</g>
<!-- Node1 -->
<g id="node2" class="node">
<title>Node1</title>
<polygon fill="#ffffff" stroke="#bfbfbf" points="120.8169,-.5 120.8169,-19.5 172.8169,-19.5 172.8169,-.5 120.8169,-.5"/>
<text text-anchor="middle" x="146.8169" y="-7.5" font-family="Helvetica,sans-Serif" font-size="10.00" fill="#000000">stdint.h</text>
</g>
<!-- Node0&#45;&gt;Node1 -->
<g id="edge1" class="edge">
<title>Node0&#45;&gt;Node1</title>
<path fill="none" stroke="#191970" d="M104.022,-224.4024C56.7105,-205.0874 -10.41,-167.3697 1.8169,-112 7.7339,-85.2049 7.7856,-74.7546 27.8169,-56 50.7982,-34.4834 84.943,-22.6794 110.7711,-16.4356"/>
<polygon fill="#191970" stroke="#191970" points="111.5822,-19.8408 120.5715,-14.2334 110.0474,-13.0111 111.5822,-19.8408"/>
</g>
<!-- Node2 -->
<g id="node3" class="node">
<title>Node2</title>
<g id="a_node3"><a xlink:href="kernel__defines_8h.html" target="_top" xlink:title="Common macros and compiler attributes/pragmas configuration. ">
<polygon fill="#ffffff" stroke="#000000" points="57.3169,-168.5 57.3169,-187.5 152.3169,-187.5 152.3169,-168.5 57.3169,-168.5"/>
<text text-anchor="middle" x="104.8169" y="-175.5" font-family="Helvetica,sans-Serif" font-size="10.00" fill="#000000">kernel_defines.h</text>
</a>
</g>
</g>
<!-- Node0&#45;&gt;Node2 -->
<g id="edge2" class="edge">
<title>Node0&#45;&gt;Node2</title>
<path fill="none" stroke="#191970" d="M137.1877,-224.2977C131.2189,-215.7609 123.7331,-205.0545 117.464,-196.0883"/>
<polygon fill="#191970" stroke="#191970" points="120.3004,-194.0368 111.7018,-187.8469 114.5635,-198.048 120.3004,-194.0368"/>
</g>
<!-- Node9 -->
<g id="node10" class="node">
<title>Node9</title>
<polygon fill="#ffffff" stroke="#bfbfbf" points="170.8169,-168.5 170.8169,-187.5 212.8169,-187.5 212.8169,-168.5 170.8169,-168.5"/>
<text text-anchor="middle" x="191.8169" y="-175.5" font-family="Helvetica,sans-Serif" font-size="10.00" fill="#000000">cpu.h</text>
</g>
<!-- Node0&#45;&gt;Node9 -->
<g id="edge13" class="edge">
<title>Node0&#45;&gt;Node9</title>
<path fill="none" stroke="#191970" d="M158.6933,-224.2977C164.801,-215.7609 172.4608,-205.0545 178.8757,-196.0883"/>
<polygon fill="#191970" stroke="#191970" points="181.7998,-198.0163 184.772,-187.8469 176.1068,-193.9433 181.7998,-198.0163"/>
</g>
<!-- Node10 -->
<g id="node11" class="node">
<title>Node10</title>
<polygon fill="#ffffff" stroke="#bfbfbf" points="231.3169,-168.5 231.3169,-187.5 308.3169,-187.5 308.3169,-168.5 231.3169,-168.5"/>
<text text-anchor="middle" x="269.8169" y="-175.5" font-family="Helvetica,sans-Serif" font-size="10.00" fill="#000000">periph_cpu.h</text>
</g>
<!-- Node0&#45;&gt;Node10 -->
<g id="edge14" class="edge">
<title>Node0&#45;&gt;Node10</title>
<path fill="none" stroke="#191970" d="M177.6615,-224.4554C197.214,-214.599 222.6041,-201.7999 241.7814,-192.1327"/>
<polygon fill="#191970" stroke="#191970" points="243.5572,-195.1571 250.9113,-187.5303 240.4062,-188.9064 243.5572,-195.1571"/>
</g>
<!-- Node3 -->
<g id="node4" class="node">
<title>Node3</title>
<g id="a_node4"><a xlink:href="modules_8h.html" target="_top" xlink:title="Common macros and compiler attributes/pragmas configuration. ">
<polygon fill="#ffffff" stroke="#000000" points="11.3169,-112.5 11.3169,-131.5 76.3169,-131.5 76.3169,-112.5 11.3169,-112.5"/>
<text text-anchor="middle" x="43.8169" y="-119.5" font-family="Helvetica,sans-Serif" font-size="10.00" fill="#000000">modules.h</text>
</a>
</g>
</g>
<!-- Node2&#45;&gt;Node3 -->
<g id="edge3" class="edge">
<title>Node2&#45;&gt;Node3</title>
<path fill="none" stroke="#191970" d="M94.1915,-168.2455C85.2696,-160.0549 72.3289,-148.1749 61.7977,-138.5069"/>
<polygon fill="#191970" stroke="#191970" points="64.0541,-135.8271 54.3206,-131.6427 59.3201,-140.9837 64.0541,-135.8271"/>
</g>
<!-- Node4 -->
<g id="node5" class="node">
<title>Node4</title>
<g id="a_node5"><a xlink:href="riot__version_8h.html" target="_top" xlink:title="Common macros and compiler attributes/pragmas configuration. ">
<polygon fill="#ffffff" stroke="#000000" points="37.3169,-56.5 37.3169,-75.5 118.3169,-75.5 118.3169,-56.5 37.3169,-56.5"/>
<text text-anchor="middle" x="77.8169" y="-63.5" font-family="Helvetica,sans-Serif" font-size="10.00" fill="#000000">riot_version.h</text>
</a>
</g>
</g>
<!-- Node2&#45;&gt;Node4 -->
<g id="edge4" class="edge">
<title>Node2&#45;&gt;Node4</title>
<path fill="none" stroke="#191970" d="M102.5149,-168.4509C98.0913,-150.1013 88.3254,-109.5908 82.4863,-85.3693"/>
<polygon fill="#191970" stroke="#191970" points="85.8593,-84.4261 80.1131,-75.5249 79.0542,-86.0667 85.8593,-84.4261"/>
</g>
<!-- Node5 -->
<g id="node6" class="node">
<title>Node5</title>
<g id="a_node6"><a xlink:href="compiler__hints_8h.html" target="_top" xlink:title="Common macros and compiler attributes/pragmas configuration. ">
<polygon fill="#ffffff" stroke="#000000" points="133.3169,-112.5 133.3169,-131.5 226.3169,-131.5 226.3169,-112.5 133.3169,-112.5"/>
<text text-anchor="middle" x="179.8169" y="-119.5" font-family="Helvetica,sans-Serif" font-size="10.00" fill="#000000">compiler_hints.h</text>
</a>
</g>
</g>
<!-- Node2&#45;&gt;Node5 -->
<g id="edge6" class="edge">
<title>Node2&#45;&gt;Node5</title>
<path fill="none" stroke="#191970" d="M117.8809,-168.2455C129.1731,-159.814 145.7014,-147.4729 158.844,-137.6598"/>
<polygon fill="#191970" stroke="#191970" points="160.9838,-140.4301 166.9026,-131.6427 156.7958,-134.8211 160.9838,-140.4301"/>
</g>
<!-- Node7 -->
<g id="node8" class="node">
<title>Node7</title>
<g id="a_node8"><a xlink:href="container_8h.html" target="_top" xlink:title="Common macros and compiler attributes/pragmas configuration. ">
<polygon fill="#ffffff" stroke="#000000" points="244.3169,-112.5 244.3169,-131.5 313.3169,-131.5 313.3169,-112.5 244.3169,-112.5"/>
<text text-anchor="middle" x="278.8169" y="-119.5" font-family="Helvetica,sans-Serif" font-size="10.00" fill="#000000">container.h</text>
</a>
</g>
</g>
<!-- Node2&#45;&gt;Node7 -->
<g id="edge10" class="edge">
<title>Node2&#45;&gt;Node7</title>
<path fill="none" stroke="#191970" d="M134.7286,-168.3733C163.6621,-159.0613 207.6781,-144.8953 239.4462,-134.671"/>
<polygon fill="#191970" stroke="#191970" points="240.8487,-137.8965 249.2956,-131.5011 238.7041,-131.2331 240.8487,-137.8965"/>
</g>
<!-- Node4&#45;&gt;Node1 -->
<g id="edge5" class="edge">
<title>Node4&#45;&gt;Node1</title>
<path fill="none" stroke="#191970" d="M89.8358,-56.2455C100.0268,-47.9746 114.8531,-35.9416 126.8276,-26.2232"/>
<polygon fill="#191970" stroke="#191970" points="129.3768,-28.662 134.9358,-19.6427 124.9656,-23.2268 129.3768,-28.662"/>
</g>
<!-- Node5&#45;&gt;Node1 -->
<g id="edge9" class="edge">
<title>Node5&#45;&gt;Node1</title>
<path fill="none" stroke="#191970" d="M176.8791,-112.4979C174.0168,-103.205 169.5616,-88.6468 165.8169,-76 161.2151,-60.4582 156.1431,-42.8122 152.3978,-29.6789"/>
<polygon fill="#191970" stroke="#191970" points="155.7055,-28.5145 149.6032,-19.8535 148.9726,-30.4296 155.7055,-28.5145"/>
</g>
<!-- Node6 -->
<g id="node7" class="node">
<title>Node6</title>
<g id="a_node7"><a xlink:href="assert_8h.html" target="_top" xlink:title="POSIX.1&#45;2008 compliant version of the assert macro. ">
<polygon fill="#ffffff" stroke="#000000" points="174.8169,-56.5 174.8169,-75.5 228.8169,-75.5 228.8169,-56.5 174.8169,-56.5"/>
<text text-anchor="middle" x="201.8169" y="-63.5" font-family="Helvetica,sans-Serif" font-size="10.00" fill="#000000">assert.h</text>
</a>
</g>
</g>
<!-- Node5&#45;&gt;Node6 -->
<g id="edge7" class="edge">
<title>Node5&#45;&gt;Node6</title>
<path fill="none" stroke="#191970" d="M183.649,-112.2455C186.5829,-104.7776 190.7216,-94.2427 194.308,-85.1137"/>
<polygon fill="#191970" stroke="#191970" points="197.6298,-86.23 198.0287,-75.6427 191.1145,-83.6704 197.6298,-86.23"/>
</g>
<!-- Node6&#45;&gt;Node1 -->
<g id="edge8" class="edge">
<title>Node6&#45;&gt;Node1</title>
<path fill="none" stroke="#191970" d="M192.2367,-56.2455C184.2712,-48.1352 172.7529,-36.4075 163.309,-26.7919"/>
<polygon fill="#191970" stroke="#191970" points="165.7916,-24.3247 156.2874,-19.6427 160.7974,-29.2297 165.7916,-24.3247"/>
</g>
<!-- Node7&#45;&gt;Node1 -->
<g id="edge12" class="edge">
<title>Node7&#45;&gt;Node1</title>
<path fill="none" stroke="#191970" d="M274.8564,-112.339C268.7185,-98.3661 255.7232,-72.3987 237.8169,-56 221.9551,-41.4737 200.6515,-30.3743 182.6445,-22.7211"/>
<polygon fill="#191970" stroke="#191970" points="183.6176,-19.3389 173.0353,-18.824 180.9868,-25.8257 183.6176,-19.3389"/>
</g>
<!-- Node8 -->
<g id="node9" class="node">
<title>Node8</title>
<polygon fill="#ffffff" stroke="#bfbfbf" points="284.8169,-56.5 284.8169,-75.5 340.8169,-75.5 340.8169,-56.5 284.8169,-56.5"/>
<text text-anchor="middle" x="312.8169" y="-63.5" font-family="Helvetica,sans-Serif" font-size="10.00" fill="#000000">stddef.h</text>
</g>
<!-- Node7&#45;&gt;Node8 -->
<g id="edge11" class="edge">
<title>Node7&#45;&gt;Node8</title>
<path fill="none" stroke="#191970" d="M284.7393,-112.2455C289.4196,-104.5367 296.0842,-93.5598 301.7458,-84.2348"/>
<polygon fill="#191970" stroke="#191970" points="304.7644,-86.007 306.9624,-75.6427 298.7809,-82.3741 304.7644,-86.007"/>
</g>
</g>
</svg>
