<?xml version="1.0" encoding="UTF-8" standalone="no"?>
<!DOCTYPE svg PUBLIC "-//W3C//DTD SVG 1.1//EN"
 "http://www.w3.org/Graphics/SVG/1.1/DTD/svg11.dtd">
<!-- Generated by graphviz version 2.40.1 (0)
 -->
<!-- Title: boards/bluepill&#45;stm32f030c8/include/periph_conf.h Pages: 1 -->
<svg width="196pt" height="151pt"
 viewBox="0.00 0.00 196.00 151.00" xmlns="http://www.w3.org/2000/svg" xmlns:xlink="http://www.w3.org/1999/xlink">
<g id="graph0" class="graph" transform="scale(1 1) rotate(0) translate(4 147)">
<title>boards/bluepill&#45;stm32f030c8/include/periph_conf.h</title>
<polygon fill="#ffffff" stroke="transparent" points="-4,4 -4,-147 192,-147 192,4 -4,4"/>
<!-- Node0 -->
<g id="node1" class="node">
<title>Node0</title>
<polygon fill="#bfbfbf" stroke="#000000" points="7,-112.5 7,-142.5 157,-142.5 157,-112.5 7,-112.5"/>
<text text-anchor="start" x="15" y="-130.5" font-family="Helvetica,sans-Serif" font-size="10.00" fill="#000000">boards/bluepill&#45;stm32f030c8</text>
<text text-anchor="middle" x="82" y="-119.5" font-family="Helvetica,sans-Serif" font-size="10.00" fill="#000000">/include/periph_conf.h</text>
</g>
<!-- Node1 -->
<g id="node2" class="node">
<title>Node1</title>
<polygon fill="#ffffff" stroke="#bfbfbf" points="0,-56.5 0,-75.5 62,-75.5 62,-56.5 0,-56.5"/>
<text text-anchor="middle" x="31" y="-63.5" font-family="Helvetica,sans-Serif" font-size="10.00" fill="#000000">clk_conf.h</text>
</g>
<!-- Node0&#45;&gt;Node1 -->
<g id="edge1" class="edge">
<title>Node0&#45;&gt;Node1</title>
<path fill="none" stroke="#191970" d="M69.3933,-112.2977C62.2402,-103.672 53.2503,-92.8312 45.7682,-83.8087"/>
<polygon fill="#191970" stroke="#191970" points="48.2433,-81.3103 39.1657,-75.8469 42.855,-85.7787 48.2433,-81.3103"/>
</g>
<!-- Node2 -->
<g id="node3" class="node">
<title>Node2</title>
<g id="a_node3"><a xlink:href="cfg__i2c1__pb8__pb9_8h.html" target="_top" xlink:title="Common configuration for STM32 I2C. ">
<polygon fill="#ffffff" stroke="#000000" points="80,-56.5 80,-75.5 188,-75.5 188,-56.5 80,-56.5"/>
<text text-anchor="middle" x="134" y="-63.5" font-family="Helvetica,sans-Serif" font-size="10.00" fill="#000000">cfg_i2c1_pb8_pb9.h</text>
</a>
</g>
</g>
<!-- Node0&#45;&gt;Node2 -->
<g id="edge2" class="edge">
<title>Node0&#45;&gt;Node2</title>
<path fill="none" stroke="#191970" d="M94.8539,-112.2977C102.2224,-103.5831 111.5026,-92.6075 119.1777,-83.5302"/>
<polygon fill="#191970" stroke="#191970" points="121.8902,-85.743 125.6741,-75.8469 116.5448,-81.2233 121.8902,-85.743"/>
</g>
<!-- Node3 -->
<g id="node4" class="node">
<title>Node3</title>
<polygon fill="#ffffff" stroke="#bfbfbf" points="95.5,-.5 95.5,-19.5 172.5,-19.5 172.5,-.5 95.5,-.5"/>
<text text-anchor="middle" x="134" y="-7.5" font-family="Helvetica,sans-Serif" font-size="10.00" fill="#000000">periph_cpu.h</text>
</g>
<!-- Node2&#45;&gt;Node3 -->
<g id="edge3" class="edge">
<title>Node2&#45;&gt;Node3</title>
<path fill="none" stroke="#191970" d="M134,-56.2455C134,-48.9382 134,-38.6944 134,-29.7046"/>
<polygon fill="#191970" stroke="#191970" points="137.5001,-29.6426 134,-19.6427 130.5001,-29.6427 137.5001,-29.6426"/>
</g>
</g>
</svg>
