<?xml version="1.0" encoding="UTF-8" standalone="no"?>
<!DOCTYPE svg PUBLIC "-//W3C//DTD SVG 1.1//EN"
 "http://www.w3.org/Graphics/SVG/1.1/DTD/svg11.dtd">
<!-- Generated by graphviz version 2.40.1 (0)
 -->
<!-- Title: boards/nrf52840&#45;mdk&#45;dongle/include/periph_conf.h Pages: 1 -->
<svg width="435pt" height="106pt"
 viewBox="0.00 0.00 435.00 106.00" xmlns="http://www.w3.org/2000/svg" xmlns:xlink="http://www.w3.org/1999/xlink">
<g id="graph0" class="graph" transform="scale(1 1) rotate(0) translate(4 102)">
<title>boards/nrf52840&#45;mdk&#45;dongle/include/periph_conf.h</title>
<polygon fill="#ffffff" stroke="transparent" points="-4,4 -4,-102 431,-102 431,4 -4,4"/>
<!-- Node0 -->
<g id="node1" class="node">
<title>Node0</title>
<polygon fill="#bfbfbf" stroke="#000000" points="137,-56.5 137,-97.5 260,-97.5 260,-56.5 137,-56.5"/>
<text text-anchor="start" x="145" y="-85.5" font-family="Helvetica,sans-Serif" font-size="10.00" fill="#000000">boards/nrf52840&#45;mdk</text>
<text text-anchor="start" x="145" y="-74.5" font-family="Helvetica,sans-Serif" font-size="10.00" fill="#000000">&#45;dongle/include/periph</text>
<text text-anchor="middle" x="198.5" y="-63.5" font-family="Helvetica,sans-Serif" font-size="10.00" fill="#000000">_conf.h</text>
</g>
<!-- Node1 -->
<g id="node2" class="node">
<title>Node1</title>
<polygon fill="#ffffff" stroke="#bfbfbf" points="0,-.5 0,-19.5 77,-19.5 77,-.5 0,-.5"/>
<text text-anchor="middle" x="38.5" y="-7.5" font-family="Helvetica,sans-Serif" font-size="10.00" fill="#000000">periph_cpu.h</text>
</g>
<!-- Node0&#45;&gt;Node1 -->
<g id="edge1" class="edge">
<title>Node0&#45;&gt;Node1</title>
<path fill="none" stroke="#191970" d="M149.1892,-56.3511C123.7543,-45.7003 93.4412,-33.0066 70.9736,-23.5983"/>
<polygon fill="#191970" stroke="#191970" points="72.1317,-20.2888 61.5558,-19.6546 69.4279,-26.7456 72.1317,-20.2888"/>
</g>
<!-- Node2 -->
<g id="node3" class="node">
<title>Node2</title>
<g id="a_node3"><a xlink:href="cfg__clock__32__1_8h.html" target="_top" xlink:title="Common clock configuration for the nRF52 based boards. ">
<polygon fill="#ffffff" stroke="#000000" points="95.5,-.5 95.5,-19.5 189.5,-19.5 189.5,-.5 95.5,-.5"/>
<text text-anchor="middle" x="142.5" y="-7.5" font-family="Helvetica,sans-Serif" font-size="10.00" fill="#000000">cfg_clock_32_1.h</text>
</a>
</g>
</g>
<!-- Node0&#45;&gt;Node2 -->
<g id="edge2" class="edge">
<title>Node0&#45;&gt;Node2</title>
<path fill="none" stroke="#191970" d="M181.0882,-56.168C173.3995,-46.9691 164.4617,-36.2756 157.1251,-27.4979"/>
<polygon fill="#191970" stroke="#191970" points="159.7734,-25.2087 150.6747,-19.7805 154.4024,-29.6979 159.7734,-25.2087"/>
</g>
<!-- Node3 -->
<g id="node4" class="node">
<title>Node3</title>
<polygon fill="#ffffff" stroke="#bfbfbf" points="207.5,-.5 207.5,-19.5 301.5,-19.5 301.5,-.5 207.5,-.5"/>
<text text-anchor="middle" x="254.5" y="-7.5" font-family="Helvetica,sans-Serif" font-size="10.00" fill="#000000">cfg_rtt_default.h</text>
</g>
<!-- Node0&#45;&gt;Node3 -->
<g id="edge3" class="edge">
<title>Node0&#45;&gt;Node3</title>
<path fill="none" stroke="#191970" d="M215.9118,-56.168C223.6005,-46.9691 232.5383,-36.2756 239.8749,-27.4979"/>
<polygon fill="#191970" stroke="#191970" points="242.5976,-29.6979 246.3253,-19.7805 237.2266,-25.2087 242.5976,-29.6979"/>
</g>
<!-- Node4 -->
<g id="node5" class="node">
<title>Node4</title>
<polygon fill="#ffffff" stroke="#bfbfbf" points="320,-.5 320,-19.5 427,-19.5 427,-.5 320,-.5"/>
<text text-anchor="middle" x="373.5" y="-7.5" font-family="Helvetica,sans-Serif" font-size="10.00" fill="#000000">cfg_timer_default.h</text>
</g>
<!-- Node0&#45;&gt;Node4 -->
<g id="edge4" class="edge">
<title>Node0&#45;&gt;Node4</title>
<path fill="none" stroke="#191970" d="M252.4337,-56.3511C280.5026,-45.6047 314.0031,-32.7788 338.6411,-23.346"/>
<polygon fill="#191970" stroke="#191970" points="340.1952,-26.4988 348.2827,-19.6546 337.6923,-19.9615 340.1952,-26.4988"/>
</g>
</g>
</svg>
