<?xml version="1.0" encoding="UTF-8" standalone="no"?>
<!DOCTYPE svg PUBLIC "-//W3C//DTD SVG 1.1//EN"
 "http://www.w3.org/Graphics/SVG/1.1/DTD/svg11.dtd">
<!-- Generated by graphviz version 2.40.1 (0)
 -->
<!-- Title: boards/sipeed&#45;longan&#45;nano/include/periph_conf.h Pages: 1 -->
<svg width="807pt" height="162pt"
 viewBox="0.00 0.00 807.00 162.00" xmlns="http://www.w3.org/2000/svg" xmlns:xlink="http://www.w3.org/1999/xlink">
<g id="graph0" class="graph" transform="scale(1 1) rotate(0) translate(4 158)">
<title>boards/sipeed&#45;longan&#45;nano/include/periph_conf.h</title>
<polygon fill="#ffffff" stroke="transparent" points="-4,4 -4,-158 803,-158 803,4 -4,4"/>
<!-- Node0 -->
<g id="node1" class="node">
<title>Node0</title>
<polygon fill="#bfbfbf" stroke="#000000" points="257,-112.5 257,-153.5 375,-153.5 375,-112.5 257,-112.5"/>
<text text-anchor="start" x="265" y="-141.5" font-family="Helvetica,sans-Serif" font-size="10.00" fill="#000000">boards/sipeed&#45;longan</text>
<text text-anchor="start" x="265" y="-130.5" font-family="Helvetica,sans-Serif" font-size="10.00" fill="#000000">&#45;nano/include/periph</text>
<text text-anchor="middle" x="316" y="-119.5" font-family="Helvetica,sans-Serif" font-size="10.00" fill="#000000">_conf.h</text>
</g>
<!-- Node1 -->
<g id="node2" class="node">
<title>Node1</title>
<g id="a_node2"><a xlink:href="units_8h.html" target="_top" xlink:title="Unit helper macros. ">
<polygon fill="#ffffff" stroke="#000000" points="0,-.5 0,-19.5 86,-19.5 86,-.5 0,-.5"/>
<text text-anchor="middle" x="43" y="-7.5" font-family="Helvetica,sans-Serif" font-size="10.00" fill="#000000">macros/units.h</text>
</a>
</g>
</g>
<!-- Node0&#45;&gt;Node1 -->
<g id="edge1" class="edge">
<title>Node0&#45;&gt;Node1</title>
<path fill="none" stroke="#191970" d="M256.7983,-130.195C179.4255,-125.1461 50.3007,-111.5042 21,-76 9.5403,-62.1141 18.885,-42.0221 28.6916,-27.6592"/>
<polygon fill="#191970" stroke="#191970" points="31.5462,-29.6856 34.6755,-19.5634 25.9169,-25.5248 31.5462,-29.6856"/>
</g>
<!-- Node2 -->
<g id="node3" class="node">
<title>Node2</title>
<polygon fill="#ffffff" stroke="#bfbfbf" points="124.5,-.5 124.5,-19.5 201.5,-19.5 201.5,-.5 124.5,-.5"/>
<text text-anchor="middle" x="163" y="-7.5" font-family="Helvetica,sans-Serif" font-size="10.00" fill="#000000">periph_cpu.h</text>
</g>
<!-- Node0&#45;&gt;Node2 -->
<g id="edge2" class="edge">
<title>Node0&#45;&gt;Node2</title>
<path fill="none" stroke="#191970" d="M261.2531,-112.411C241.708,-103.2774 220.4715,-91.1262 204,-76 189.6091,-62.7845 178.3777,-43.3953 171.3374,-29.0491"/>
<polygon fill="#191970" stroke="#191970" points="174.3583,-27.2448 166.9665,-19.6546 168.0116,-30.1977 174.3583,-27.2448"/>
</g>
<!-- Node3 -->
<g id="node4" class="node">
<title>Node3</title>
<g id="a_node4"><a xlink:href="periph__common__conf_8h.html" target="_top" xlink:title="Common peripheral configuration for GD32VF103 boards. ">
<polygon fill="#ffffff" stroke="#000000" points="30,-56.5 30,-75.5 156,-75.5 156,-56.5 30,-56.5"/>
<text text-anchor="middle" x="93" y="-63.5" font-family="Helvetica,sans-Serif" font-size="10.00" fill="#000000">periph_common_conf.h</text>
</a>
</g>
</g>
<!-- Node0&#45;&gt;Node3 -->
<g id="edge3" class="edge">
<title>Node0&#45;&gt;Node3</title>
<path fill="none" stroke="#191970" d="M256.8256,-115.2211C218.3052,-103.6478 169.0092,-88.8369 134.5992,-78.4984"/>
<polygon fill="#191970" stroke="#191970" points="135.4532,-75.1005 124.869,-75.575 133.4389,-81.8045 135.4532,-75.1005"/>
</g>
<!-- Node4 -->
<g id="node5" class="node">
<title>Node4</title>
<polygon fill="#ffffff" stroke="#bfbfbf" points="212.5,-56.5 212.5,-75.5 307.5,-75.5 307.5,-56.5 212.5,-56.5"/>
<text text-anchor="middle" x="260" y="-63.5" font-family="Helvetica,sans-Serif" font-size="10.00" fill="#000000">cfg_i2c_default.h</text>
</g>
<!-- Node0&#45;&gt;Node4 -->
<g id="edge6" class="edge">
<title>Node0&#45;&gt;Node4</title>
<path fill="none" stroke="#191970" d="M298.5882,-112.168C290.8995,-102.9691 281.9617,-92.2756 274.6251,-83.4979"/>
<polygon fill="#191970" stroke="#191970" points="277.2734,-81.2087 268.1747,-75.7805 271.9024,-85.6979 277.2734,-81.2087"/>
</g>
<!-- Node5 -->
<g id="node6" class="node">
<title>Node5</title>
<polygon fill="#ffffff" stroke="#bfbfbf" points="325.5,-56.5 325.5,-75.5 420.5,-75.5 420.5,-56.5 325.5,-56.5"/>
<text text-anchor="middle" x="373" y="-63.5" font-family="Helvetica,sans-Serif" font-size="10.00" fill="#000000">cfg_spi_default.h</text>
</g>
<!-- Node0&#45;&gt;Node5 -->
<g id="edge7" class="edge">
<title>Node0&#45;&gt;Node5</title>
<path fill="none" stroke="#191970" d="M333.7227,-112.168C341.5487,-102.9691 350.6462,-92.2756 358.1138,-83.4979"/>
<polygon fill="#191970" stroke="#191970" points="360.8653,-85.665 364.6793,-75.7805 355.5337,-81.1291 360.8653,-85.665"/>
</g>
<!-- Node6 -->
<g id="node7" class="node">
<title>Node6</title>
<polygon fill="#ffffff" stroke="#bfbfbf" points="438.5,-56.5 438.5,-75.5 545.5,-75.5 545.5,-56.5 438.5,-56.5"/>
<text text-anchor="middle" x="492" y="-63.5" font-family="Helvetica,sans-Serif" font-size="10.00" fill="#000000">cfg_timer_default.h</text>
</g>
<!-- Node0&#45;&gt;Node6 -->
<g id="edge8" class="edge">
<title>Node0&#45;&gt;Node6</title>
<path fill="none" stroke="#191970" d="M370.2419,-112.3511C398.5966,-101.557 432.4628,-88.6647 457.2717,-79.2204"/>
<polygon fill="#191970" stroke="#191970" points="458.5381,-82.4835 466.6386,-75.6546 456.0476,-75.9414 458.5381,-82.4835"/>
</g>
<!-- Node7 -->
<g id="node8" class="node">
<title>Node7</title>
<polygon fill="#ffffff" stroke="#bfbfbf" points="563.5,-56.5 563.5,-75.5 664.5,-75.5 664.5,-56.5 563.5,-56.5"/>
<text text-anchor="middle" x="614" y="-63.5" font-family="Helvetica,sans-Serif" font-size="10.00" fill="#000000">cfg_uart_default.h</text>
</g>
<!-- Node0&#45;&gt;Node7 -->
<g id="edge9" class="edge">
<title>Node0&#45;&gt;Node7</title>
<path fill="none" stroke="#191970" d="M375.2315,-119.6828C429.6537,-107.447 509.5489,-89.484 561.6719,-77.765"/>
<polygon fill="#191970" stroke="#191970" points="562.7217,-81.1165 571.7104,-75.5081 561.1862,-74.2869 562.7217,-81.1165"/>
</g>
<!-- Node8 -->
<g id="node9" class="node">
<title>Node8</title>
<polygon fill="#ffffff" stroke="#bfbfbf" points="683,-56.5 683,-75.5 799,-75.5 799,-56.5 683,-56.5"/>
<text text-anchor="middle" x="741" y="-63.5" font-family="Helvetica,sans-Serif" font-size="10.00" fill="#000000">cfg_usbdev_default.h</text>
</g>
<!-- Node0&#45;&gt;Node8 -->
<g id="edge10" class="edge">
<title>Node0&#45;&gt;Node8</title>
<path fill="none" stroke="#191970" d="M375.0944,-123.6839C453.1503,-111.3787 590.336,-89.7517 672.7323,-76.7622"/>
<polygon fill="#191970" stroke="#191970" points="673.4151,-80.1979 682.7481,-75.1832 672.325,-73.2833 673.4151,-80.1979"/>
</g>
<!-- Node3&#45;&gt;Node1 -->
<g id="edge4" class="edge">
<title>Node3&#45;&gt;Node1</title>
<path fill="none" stroke="#191970" d="M84.2907,-56.2455C77.1927,-48.2958 66.9916,-36.8706 58.505,-27.3656"/>
<polygon fill="#191970" stroke="#191970" points="60.8805,-24.771 51.6095,-19.6427 55.6589,-29.4331 60.8805,-24.771"/>
</g>
<!-- Node3&#45;&gt;Node2 -->
<g id="edge5" class="edge">
<title>Node3&#45;&gt;Node2</title>
<path fill="none" stroke="#191970" d="M105.1931,-56.2455C115.6321,-47.8943 130.8655,-35.7076 143.074,-25.9408"/>
<polygon fill="#191970" stroke="#191970" points="145.3244,-28.6227 150.9467,-19.6427 140.9515,-23.1566 145.3244,-28.6227"/>
</g>
</g>
</svg>
