<?xml version="1.0" encoding="UTF-8" standalone="no"?>
<!DOCTYPE svg PUBLIC "-//W3C//DTD SVG 1.1//EN"
 "http://www.w3.org/Graphics/SVG/1.1/DTD/svg11.dtd">
<!-- Generated by graphviz version 2.40.1 (0)
 -->
<!-- Title: boards/atmega256rfr2&#45;xpro/include/periph_conf.h Pages: 1 -->
<svg width="133pt" height="173pt"
 viewBox="0.00 0.00 133.00 173.00" xmlns="http://www.w3.org/2000/svg" xmlns:xlink="http://www.w3.org/1999/xlink">
<g id="graph0" class="graph" transform="scale(1 1) rotate(0) translate(4 169)">
<title>boards/atmega256rfr2&#45;xpro/include/periph_conf.h</title>
<polygon fill="#ffffff" stroke="transparent" points="-4,4 -4,-169 129,-169 129,4 -4,4"/>
<!-- Node0 -->
<g id="node1" class="node">
<title>Node0</title>
<polygon fill="#bfbfbf" stroke="#000000" points="0,-123.5 0,-164.5 125,-164.5 125,-123.5 0,-123.5"/>
<text text-anchor="start" x="8" y="-152.5" font-family="Helvetica,sans-Serif" font-size="10.00" fill="#000000">boards/atmega256rfr2</text>
<text text-anchor="start" x="8" y="-141.5" font-family="Helvetica,sans-Serif" font-size="10.00" fill="#000000">&#45;xpro/include/periph</text>
<text text-anchor="middle" x="62.5" y="-130.5" font-family="Helvetica,sans-Serif" font-size="10.00" fill="#000000">_conf.h</text>
</g>
<!-- Node1 -->
<g id="node2" class="node">
<title>Node1</title>
<g id="a_node2"><a xlink:href="periph__conf__atmega__common_8h.html" target="_top" xlink:title="Common configuration of MCU periphery for ATmega boards. ">
<polygon fill="#ffffff" stroke="#000000" points="6.5,-56.5 6.5,-86.5 118.5,-86.5 118.5,-56.5 6.5,-56.5"/>
<text text-anchor="start" x="14.5" y="-74.5" font-family="Helvetica,sans-Serif" font-size="10.00" fill="#000000">periph_conf_atmega</text>
<text text-anchor="middle" x="62.5" y="-63.5" font-family="Helvetica,sans-Serif" font-size="10.00" fill="#000000">_common.h</text>
</a>
</g>
</g>
<!-- Node0&#45;&gt;Node1 -->
<g id="edge1" class="edge">
<title>Node0&#45;&gt;Node1</title>
<path fill="none" stroke="#191970" d="M62.5,-123.4183C62.5,-115.0849 62.5,-105.3834 62.5,-96.6373"/>
<polygon fill="#191970" stroke="#191970" points="66.0001,-96.5991 62.5,-86.5991 59.0001,-96.5991 66.0001,-96.5991"/>
</g>
<!-- Node2 -->
<g id="node3" class="node">
<title>Node2</title>
<polygon fill="#ffffff" stroke="#bfbfbf" points="24,-.5 24,-19.5 101,-19.5 101,-.5 24,-.5"/>
<text text-anchor="middle" x="62.5" y="-7.5" font-family="Helvetica,sans-Serif" font-size="10.00" fill="#000000">periph_cpu.h</text>
</g>
<!-- Node1&#45;&gt;Node2 -->
<g id="edge2" class="edge">
<title>Node1&#45;&gt;Node2</title>
<path fill="none" stroke="#191970" d="M62.5,-56.2977C62.5,-48.3834 62.5,-38.6043 62.5,-30.0759"/>
<polygon fill="#191970" stroke="#191970" points="66.0001,-29.8469 62.5,-19.8469 59.0001,-29.847 66.0001,-29.8469"/>
</g>
</g>
</svg>
