<?xml version="1.0" encoding="UTF-8" standalone="no"?>
<!DOCTYPE svg PUBLIC "-//W3C//DTD SVG 1.1//EN"
 "http://www.w3.org/Graphics/SVG/1.1/DTD/svg11.dtd">
<!-- Generated by graphviz version 2.40.1 (0)
 -->
<!-- Title: boards/esp32s3&#45;usb&#45;otg/include/periph_conf.h Pages: 1 -->
<svg width="355pt" height="162pt"
 viewBox="0.00 0.00 355.00 162.00" xmlns="http://www.w3.org/2000/svg" xmlns:xlink="http://www.w3.org/1999/xlink">
<g id="graph0" class="graph" transform="scale(1 1) rotate(0) translate(4 158)">
<title>boards/esp32s3&#45;usb&#45;otg/include/periph_conf.h</title>
<polygon fill="#ffffff" stroke="transparent" points="-4,4 -4,-158 351,-158 351,4 -4,4"/>
<!-- Node0 -->
<g id="node1" class="node">
<title>Node0</title>
<polygon fill="#bfbfbf" stroke="#000000" points="66.5,-112.5 66.5,-153.5 177.5,-153.5 177.5,-112.5 66.5,-112.5"/>
<text text-anchor="start" x="74.5" y="-141.5" font-family="Helvetica,sans-Serif" font-size="10.00" fill="#000000">boards/esp32s3&#45;usb</text>
<text text-anchor="start" x="74.5" y="-130.5" font-family="Helvetica,sans-Serif" font-size="10.00" fill="#000000">&#45;otg/include/periph</text>
<text text-anchor="middle" x="122" y="-119.5" font-family="Helvetica,sans-Serif" font-size="10.00" fill="#000000">_conf.h</text>
</g>
<!-- Node1 -->
<g id="node2" class="node">
<title>Node1</title>
<polygon fill="#ffffff" stroke="#bfbfbf" points="0,-.5 0,-19.5 52,-19.5 52,-.5 0,-.5"/>
<text text-anchor="middle" x="26" y="-7.5" font-family="Helvetica,sans-Serif" font-size="10.00" fill="#000000">stdint.h</text>
</g>
<!-- Node0&#45;&gt;Node1 -->
<g id="edge1" class="edge">
<title>Node0&#45;&gt;Node1</title>
<path fill="none" stroke="#191970" d="M85.0179,-112.2417C71.0583,-102.7867 56.1208,-90.4571 46,-76 36.356,-62.2239 31.274,-43.6975 28.6512,-29.7799"/>
<polygon fill="#191970" stroke="#191970" points="32.0865,-29.0981 27.0347,-19.7852 25.1763,-30.2158 32.0865,-29.0981"/>
</g>
<!-- Node2 -->
<g id="node3" class="node">
<title>Node2</title>
<g id="a_node3"><a xlink:href="esp32s3-usb-otg_2include_2board_8h.html" target="_top" xlink:title="Board definitions for the ESP32&#45;S3&#45;USB&#45;OTG boards. ">
<polygon fill="#ffffff" stroke="#000000" points="54.5,-56.5 54.5,-75.5 107.5,-75.5 107.5,-56.5 54.5,-56.5"/>
<text text-anchor="middle" x="81" y="-63.5" font-family="Helvetica,sans-Serif" font-size="10.00" fill="#000000">board.h</text>
</a>
</g>
</g>
<!-- Node0&#45;&gt;Node2 -->
<g id="edge2" class="edge">
<title>Node0&#45;&gt;Node2</title>
<path fill="none" stroke="#191970" d="M109.2521,-112.168C103.797,-103.2536 97.483,-92.9356 92.2093,-84.3177"/>
<polygon fill="#191970" stroke="#191970" points="95.1901,-82.4833 86.9851,-75.7805 89.2194,-86.137 95.1901,-82.4833"/>
</g>
<!-- Node4 -->
<g id="node5" class="node">
<title>Node4</title>
<polygon fill="#ffffff" stroke="#bfbfbf" points="125.5,-56.5 125.5,-75.5 202.5,-75.5 202.5,-56.5 125.5,-56.5"/>
<text text-anchor="middle" x="164" y="-63.5" font-family="Helvetica,sans-Serif" font-size="10.00" fill="#000000">periph_cpu.h</text>
</g>
<!-- Node0&#45;&gt;Node4 -->
<g id="edge5" class="edge">
<title>Node0&#45;&gt;Node4</title>
<path fill="none" stroke="#191970" d="M135.0588,-112.168C140.647,-103.2536 147.115,-92.9356 152.5173,-84.3177"/>
<polygon fill="#191970" stroke="#191970" points="155.5231,-86.1123 157.869,-75.7805 149.5921,-82.3944 155.5231,-86.1123"/>
</g>
<!-- Node5 -->
<g id="node6" class="node">
<title>Node5</title>
<polygon fill="#ffffff" stroke="#bfbfbf" points="221,-56.5 221,-75.5 347,-75.5 347,-56.5 221,-56.5"/>
<text text-anchor="middle" x="284" y="-63.5" font-family="Helvetica,sans-Serif" font-size="10.00" fill="#000000">periph_conf_common.h</text>
</g>
<!-- Node0&#45;&gt;Node5 -->
<g id="edge6" class="edge">
<title>Node0&#45;&gt;Node5</title>
<path fill="none" stroke="#191970" d="M171.9272,-112.3511C197.68,-101.7003 228.372,-89.0066 251.1205,-79.5983"/>
<polygon fill="#191970" stroke="#191970" points="252.7527,-82.7108 260.656,-75.6546 250.0774,-76.2422 252.7527,-82.7108"/>
</g>
<!-- Node2&#45;&gt;Node1 -->
<g id="edge3" class="edge">
<title>Node2&#45;&gt;Node1</title>
<path fill="none" stroke="#191970" d="M71.4197,-56.2455C63.4542,-48.1352 51.9359,-36.4075 42.4921,-26.7919"/>
<polygon fill="#191970" stroke="#191970" points="44.9747,-24.3247 35.4705,-19.6427 39.9805,-29.2297 44.9747,-24.3247"/>
</g>
<!-- Node3 -->
<g id="node4" class="node">
<title>Node3</title>
<polygon fill="#ffffff" stroke="#bfbfbf" points="70,-.5 70,-19.5 168,-19.5 168,-.5 70,-.5"/>
<text text-anchor="middle" x="119" y="-7.5" font-family="Helvetica,sans-Serif" font-size="10.00" fill="#000000">board_common.h</text>
</g>
<!-- Node2&#45;&gt;Node3 -->
<g id="edge4" class="edge">
<title>Node2&#45;&gt;Node3</title>
<path fill="none" stroke="#191970" d="M87.6191,-56.2455C92.9046,-48.4564 100.4541,-37.3308 106.8238,-27.9439"/>
<polygon fill="#191970" stroke="#191970" points="109.7379,-29.8827 112.4568,-19.6427 103.9455,-25.9522 109.7379,-29.8827"/>
</g>
</g>
</svg>
