<?xml version="1.0" encoding="UTF-8" standalone="no"?>
<!DOCTYPE svg PUBLIC "-//W3C//DTD SVG 1.1//EN"
 "http://www.w3.org/Graphics/SVG/1.1/DTD/svg11.dtd">
<!-- Generated by graphviz version 2.40.1 (0)
 -->
<!-- Title: boards/microbit/include/periph_conf.h Pages: 1 -->
<svg width="337pt" height="151pt"
 viewBox="0.00 0.00 336.97 151.00" xmlns="http://www.w3.org/2000/svg" xmlns:xlink="http://www.w3.org/1999/xlink">
<g id="graph0" class="graph" transform="scale(1 1) rotate(0) translate(4 147)">
<title>boards/microbit/include/periph_conf.h</title>
<polygon fill="#ffffff" stroke="transparent" points="-4,4 -4,-147 332.9725,-147 332.9725,4 -4,4"/>
<!-- Node0 -->
<g id="node1" class="node">
<title>Node0</title>
<polygon fill="#bfbfbf" stroke="#000000" points="50.9725,-112.5 50.9725,-142.5 178.9725,-142.5 178.9725,-112.5 50.9725,-112.5"/>
<text text-anchor="start" x="58.9725" y="-130.5" font-family="Helvetica,sans-Serif" font-size="10.00" fill="#000000">boards/microbit/include</text>
<text text-anchor="middle" x="114.9725" y="-119.5" font-family="Helvetica,sans-Serif" font-size="10.00" fill="#000000">/periph_conf.h</text>
</g>
<!-- Node1 -->
<g id="node2" class="node">
<title>Node1</title>
<polygon fill="#ffffff" stroke="#bfbfbf" points="21.4725,-.5 21.4725,-19.5 98.4725,-19.5 98.4725,-.5 21.4725,-.5"/>
<text text-anchor="middle" x="59.9725" y="-7.5" font-family="Helvetica,sans-Serif" font-size="10.00" fill="#000000">periph_cpu.h</text>
</g>
<!-- Node0&#45;&gt;Node1 -->
<g id="edge1" class="edge">
<title>Node0&#45;&gt;Node1</title>
<path fill="none" stroke="#191970" d="M51.9542,-112.4391C33.2999,-104.7294 14.9469,-93.1897 3.9725,-76 -8.143,-57.0228 13.1051,-37.6516 32.8137,-24.848"/>
<polygon fill="#191970" stroke="#191970" points="34.6511,-27.827 41.349,-19.6179 30.9937,-21.8584 34.6511,-27.827"/>
</g>
<!-- Node2 -->
<g id="node3" class="node">
<title>Node2</title>
<g id="a_node3"><a xlink:href="cfg__clock__16__0_8h.html" target="_top" xlink:title="Common clock configuration for some nrf51 based boards. ">
<polygon fill="#ffffff" stroke="#000000" points="12.9725,-56.5 12.9725,-75.5 106.9725,-75.5 106.9725,-56.5 12.9725,-56.5"/>
<text text-anchor="middle" x="59.9725" y="-63.5" font-family="Helvetica,sans-Serif" font-size="10.00" fill="#000000">cfg_clock_16_0.h</text>
</a>
</g>
</g>
<!-- Node0&#45;&gt;Node2 -->
<g id="edge2" class="edge">
<title>Node0&#45;&gt;Node2</title>
<path fill="none" stroke="#191970" d="M101.377,-112.2977C93.5834,-103.5831 83.7678,-92.6075 75.65,-83.5302"/>
<polygon fill="#191970" stroke="#191970" points="78.0538,-80.9678 68.7787,-75.8469 72.836,-85.6341 78.0538,-80.9678"/>
</g>
<!-- Node3 -->
<g id="node4" class="node">
<title>Node3</title>
<g id="a_node4"><a xlink:href="cfg__timer__012_8h.html" target="_top" xlink:title="Shared timer peripheral configuration mapping timers 0, 1, and 2. ">
<polygon fill="#ffffff" stroke="#000000" points="124.9725,-56.5 124.9725,-75.5 216.9725,-75.5 216.9725,-56.5 124.9725,-56.5"/>
<text text-anchor="middle" x="170.9725" y="-63.5" font-family="Helvetica,sans-Serif" font-size="10.00" fill="#000000">cfg_timer_012.h</text>
</a>
</g>
</g>
<!-- Node0&#45;&gt;Node3 -->
<g id="edge4" class="edge">
<title>Node0&#45;&gt;Node3</title>
<path fill="none" stroke="#191970" d="M128.8152,-112.2977C136.8315,-103.4941 146.9488,-92.3833 155.2626,-83.2529"/>
<polygon fill="#191970" stroke="#191970" points="157.8614,-85.5974 162.0062,-75.8469 152.6856,-80.8845 157.8614,-85.5974"/>
</g>
<!-- Node4 -->
<g id="node5" class="node">
<title>Node4</title>
<polygon fill="#ffffff" stroke="#bfbfbf" points="234.9725,-56.5 234.9725,-75.5 328.9725,-75.5 328.9725,-56.5 234.9725,-56.5"/>
<text text-anchor="middle" x="281.9725" y="-63.5" font-family="Helvetica,sans-Serif" font-size="10.00" fill="#000000">cfg_rtt_default.h</text>
</g>
<!-- Node0&#45;&gt;Node4 -->
<g id="edge6" class="edge">
<title>Node0&#45;&gt;Node4</title>
<path fill="none" stroke="#191970" d="M155.8253,-112.4554C183.5675,-102.239 219.895,-88.8609 246.438,-79.0861"/>
<polygon fill="#191970" stroke="#191970" points="247.9191,-82.2705 256.0935,-75.5303 245.5,-75.7018 247.9191,-82.2705"/>
</g>
<!-- Node2&#45;&gt;Node1 -->
<g id="edge3" class="edge">
<title>Node2&#45;&gt;Node1</title>
<path fill="none" stroke="#191970" d="M59.9725,-56.2455C59.9725,-48.9382 59.9725,-38.6944 59.9725,-29.7046"/>
<polygon fill="#191970" stroke="#191970" points="63.4726,-29.6426 59.9725,-19.6427 56.4726,-29.6427 63.4726,-29.6426"/>
</g>
<!-- Node3&#45;&gt;Node1 -->
<g id="edge5" class="edge">
<title>Node3&#45;&gt;Node1</title>
<path fill="none" stroke="#191970" d="M151.891,-56.3733C134.2324,-47.4644 107.7673,-34.1127 87.7628,-24.0203"/>
<polygon fill="#191970" stroke="#191970" points="89.3098,-20.8806 78.8051,-19.5011 86.1567,-27.1303 89.3098,-20.8806"/>
</g>
</g>
</svg>
