<?xml version="1.0" encoding="UTF-8" standalone="no"?>
<!DOCTYPE svg PUBLIC "-//W3C//DTD SVG 1.1//EN"
 "http://www.w3.org/Graphics/SVG/1.1/DTD/svg11.dtd">
<!-- Generated by graphviz version 2.40.1 (0)
 -->
<!-- Title: boards/nucleo&#45;l552ze&#45;q/include/periph_conf.h Pages: 1 -->
<svg width="437pt" height="151pt"
 viewBox="0.00 0.00 437.00 151.00" xmlns="http://www.w3.org/2000/svg" xmlns:xlink="http://www.w3.org/1999/xlink">
<g id="graph0" class="graph" transform="scale(1 1) rotate(0) translate(4 147)">
<title>boards/nucleo&#45;l552ze&#45;q/include/periph_conf.h</title>
<polygon fill="#ffffff" stroke="transparent" points="-4,4 -4,-147 433.0037,-147 433.0037,4 -4,4"/>
<!-- Node0 -->
<g id="node1" class="node">
<title>Node0</title>
<polygon fill="#bfbfbf" stroke="#000000" points="84.0037,-112.5 84.0037,-142.5 215.0037,-142.5 215.0037,-112.5 84.0037,-112.5"/>
<text text-anchor="start" x="92.0037" y="-130.5" font-family="Helvetica,sans-Serif" font-size="10.00" fill="#000000">boards/nucleo&#45;l552ze</text>
<text text-anchor="middle" x="149.5037" y="-119.5" font-family="Helvetica,sans-Serif" font-size="10.00" fill="#000000">&#45;q/include/periph_conf.h</text>
</g>
<!-- Node1 -->
<g id="node2" class="node">
<title>Node1</title>
<polygon fill="#ffffff" stroke="#bfbfbf" points="111.0037,-.5 111.0037,-19.5 188.0037,-19.5 188.0037,-.5 111.0037,-.5"/>
<text text-anchor="middle" x="149.5037" y="-7.5" font-family="Helvetica,sans-Serif" font-size="10.00" fill="#000000">periph_cpu.h</text>
</g>
<!-- Node0&#45;&gt;Node1 -->
<g id="edge1" class="edge">
<title>Node0&#45;&gt;Node1</title>
<path fill="none" stroke="#191970" d="M83.6431,-118.1824C35.2917,-108.412 -18.0182,-89.6476 6.5037,-56 17.8761,-40.3955 63.9374,-27.4525 100.7524,-19.313"/>
<polygon fill="#191970" stroke="#191970" points="101.8107,-22.6656 110.8544,-17.1463 100.3427,-15.8213 101.8107,-22.6656"/>
</g>
<!-- Node2 -->
<g id="node3" class="node">
<title>Node2</title>
<polygon fill="#ffffff" stroke="#bfbfbf" points="15.5037,-56.5 15.5037,-75.5 77.5037,-75.5 77.5037,-56.5 15.5037,-56.5"/>
<text text-anchor="middle" x="46.5037" y="-63.5" font-family="Helvetica,sans-Serif" font-size="10.00" fill="#000000">clk_conf.h</text>
</g>
<!-- Node0&#45;&gt;Node2 -->
<g id="edge2" class="edge">
<title>Node0&#45;&gt;Node2</title>
<path fill="none" stroke="#191970" d="M124.3071,-112.4554C108.1766,-102.8241 87.34,-90.3828 71.2901,-80.7996"/>
<polygon fill="#191970" stroke="#191970" points="72.8454,-77.6518 62.4651,-75.5303 69.2567,-83.662 72.8454,-77.6518"/>
</g>
<!-- Node3 -->
<g id="node4" class="node">
<title>Node3</title>
<g id="a_node4"><a xlink:href="cfg__i2c1__pb8__pb9_8h.html" target="_top" xlink:title="Common configuration for STM32 I2C. ">
<polygon fill="#ffffff" stroke="#000000" points="95.5037,-56.5 95.5037,-75.5 203.5037,-75.5 203.5037,-56.5 95.5037,-56.5"/>
<text text-anchor="middle" x="149.5037" y="-63.5" font-family="Helvetica,sans-Serif" font-size="10.00" fill="#000000">cfg_i2c1_pb8_pb9.h</text>
</a>
</g>
</g>
<!-- Node0&#45;&gt;Node3 -->
<g id="edge3" class="edge">
<title>Node0&#45;&gt;Node3</title>
<path fill="none" stroke="#191970" d="M149.5037,-112.2977C149.5037,-104.3834 149.5037,-94.6043 149.5037,-86.0759"/>
<polygon fill="#191970" stroke="#191970" points="153.0038,-85.8469 149.5037,-75.8469 146.0038,-85.847 153.0038,-85.8469"/>
</g>
<!-- Node4 -->
<g id="node5" class="node">
<title>Node4</title>
<polygon fill="#ffffff" stroke="#bfbfbf" points="221.5037,-56.5 221.5037,-75.5 315.5037,-75.5 315.5037,-56.5 221.5037,-56.5"/>
<text text-anchor="middle" x="268.5037" y="-63.5" font-family="Helvetica,sans-Serif" font-size="10.00" fill="#000000">cfg_rtt_default.h</text>
</g>
<!-- Node0&#45;&gt;Node4 -->
<g id="edge5" class="edge">
<title>Node0&#45;&gt;Node4</title>
<path fill="none" stroke="#191970" d="M178.6144,-112.4554C197.6861,-102.599 222.4519,-89.7999 241.1576,-80.1327"/>
<polygon fill="#191970" stroke="#191970" points="242.7861,-83.2309 250.063,-75.5303 239.5723,-77.0122 242.7861,-83.2309"/>
</g>
<!-- Node5 -->
<g id="node6" class="node">
<title>Node5</title>
<g id="a_node6"><a xlink:href="cfg__timer__tim5_8h.html" target="_top" xlink:title="Common configuration for STM32 Timer peripheral based on TIM5. ">
<polygon fill="#ffffff" stroke="#000000" points="334.0037,-56.5 334.0037,-75.5 429.0037,-75.5 429.0037,-56.5 334.0037,-56.5"/>
<text text-anchor="middle" x="381.5037" y="-63.5" font-family="Helvetica,sans-Serif" font-size="10.00" fill="#000000">cfg_timer_tim5.h</text>
</a>
</g>
</g>
<!-- Node0&#45;&gt;Node5 -->
<g id="edge6" class="edge">
<title>Node0&#45;&gt;Node5</title>
<path fill="none" stroke="#191970" d="M206.2573,-112.4554C245.9858,-101.9239 298.3882,-88.0328 335.5101,-78.1923"/>
<polygon fill="#191970" stroke="#191970" points="336.7827,-81.4759 345.552,-75.5303 334.989,-74.7096 336.7827,-81.4759"/>
</g>
<!-- Node3&#45;&gt;Node1 -->
<g id="edge4" class="edge">
<title>Node3&#45;&gt;Node1</title>
<path fill="none" stroke="#191970" d="M149.5037,-56.2455C149.5037,-48.9382 149.5037,-38.6944 149.5037,-29.7046"/>
<polygon fill="#191970" stroke="#191970" points="153.0038,-29.6426 149.5037,-19.6427 146.0038,-29.6427 153.0038,-29.6426"/>
</g>
<!-- Node5&#45;&gt;Node1 -->
<g id="edge7" class="edge">
<title>Node5&#45;&gt;Node1</title>
<path fill="none" stroke="#191970" d="M341.8851,-56.4369C302.1073,-46.8353 240.7585,-32.027 198.0721,-21.7234"/>
<polygon fill="#191970" stroke="#191970" points="198.7285,-18.2814 188.1864,-19.3372 197.0859,-25.086 198.7285,-18.2814"/>
</g>
</g>
</svg>
