<?xml version="1.0" encoding="UTF-8" standalone="no"?>
<!DOCTYPE svg PUBLIC "-//W3C//DTD SVG 1.1//EN"
 "http://www.w3.org/Graphics/SVG/1.1/DTD/svg11.dtd">
<!-- Generated by graphviz version 2.40.1 (0)
 -->
<!-- Title: boards/sodaq&#45;sara&#45;aff/include/periph_conf.h Pages: 1 -->
<svg width="818pt" height="151pt"
 viewBox="0.00 0.00 818.00 151.00" xmlns="http://www.w3.org/2000/svg" xmlns:xlink="http://www.w3.org/1999/xlink">
<g id="graph0" class="graph" transform="scale(1 1) rotate(0) translate(4 147)">
<title>boards/sodaq&#45;sara&#45;aff/include/periph_conf.h</title>
<polygon fill="#ffffff" stroke="transparent" points="-4,4 -4,-147 814,-147 814,4 -4,4"/>
<!-- Node0 -->
<g id="node1" class="node">
<title>Node0</title>
<polygon fill="#bfbfbf" stroke="#000000" points="212,-112.5 212,-142.5 334,-142.5 334,-112.5 212,-112.5"/>
<text text-anchor="start" x="220" y="-130.5" font-family="Helvetica,sans-Serif" font-size="10.00" fill="#000000">boards/sodaq&#45;sara&#45;aff</text>
<text text-anchor="middle" x="273" y="-119.5" font-family="Helvetica,sans-Serif" font-size="10.00" fill="#000000">/include/periph_conf.h</text>
</g>
<!-- Node1 -->
<g id="node2" class="node">
<title>Node1</title>
<polygon fill="#ffffff" stroke="#bfbfbf" points="0,-.5 0,-19.5 52,-19.5 52,-.5 0,-.5"/>
<text text-anchor="middle" x="26" y="-7.5" font-family="Helvetica,sans-Serif" font-size="10.00" fill="#000000">stdint.h</text>
</g>
<!-- Node0&#45;&gt;Node1 -->
<g id="edge1" class="edge">
<title>Node0&#45;&gt;Node1</title>
<path fill="none" stroke="#191970" d="M211.7998,-119.6981C154.9673,-111.3308 75.6688,-96.4362 52,-76 38.4808,-64.3272 31.9348,-44.6974 28.8001,-29.8727"/>
<polygon fill="#191970" stroke="#191970" points="32.1876,-28.9271 27.0088,-19.6842 25.2933,-30.1392 32.1876,-28.9271"/>
</g>
<!-- Node2 -->
<g id="node3" class="node">
<title>Node2</title>
<polygon fill="#ffffff" stroke="#bfbfbf" points="82,-.5 82,-19.5 124,-19.5 124,-.5 82,-.5"/>
<text text-anchor="middle" x="103" y="-7.5" font-family="Helvetica,sans-Serif" font-size="10.00" fill="#000000">cpu.h</text>
</g>
<!-- Node0&#45;&gt;Node2 -->
<g id="edge2" class="edge">
<title>Node0&#45;&gt;Node2</title>
<path fill="none" stroke="#191970" d="M211.9594,-121.0896C155.854,-113.7889 78.6469,-99.6927 60,-76 47.2518,-59.8021 64.4215,-39.7987 80.6985,-26.0861"/>
<polygon fill="#191970" stroke="#191970" points="83.2971,-28.493 88.9657,-19.5422 78.9525,-23.0043 83.2971,-28.493"/>
</g>
<!-- Node3 -->
<g id="node4" class="node">
<title>Node3</title>
<polygon fill="#ffffff" stroke="#bfbfbf" points="148.5,-.5 148.5,-19.5 225.5,-19.5 225.5,-.5 148.5,-.5"/>
<text text-anchor="middle" x="187" y="-7.5" font-family="Helvetica,sans-Serif" font-size="10.00" fill="#000000">periph_cpu.h</text>
</g>
<!-- Node0&#45;&gt;Node3 -->
<g id="edge3" class="edge">
<title>Node0&#45;&gt;Node3</title>
<path fill="none" stroke="#191970" d="M249.8882,-112.3933C237.2601,-103.1549 222.1681,-90.368 212,-76 202.0587,-61.9524 195.5006,-43.4523 191.6058,-29.6139"/>
<polygon fill="#191970" stroke="#191970" points="194.9316,-28.4947 189.0395,-19.6894 188.1545,-30.2472 194.9316,-28.4947"/>
</g>
<!-- Node4 -->
<g id="node5" class="node">
<title>Node4</title>
<polygon fill="#ffffff" stroke="#bfbfbf" points="221,-56.5 221,-75.5 325,-75.5 325,-56.5 221,-56.5"/>
<text text-anchor="middle" x="273" y="-63.5" font-family="Helvetica,sans-Serif" font-size="10.00" fill="#000000">cfg_clock_default.h</text>
</g>
<!-- Node0&#45;&gt;Node4 -->
<g id="edge4" class="edge">
<title>Node0&#45;&gt;Node4</title>
<path fill="none" stroke="#191970" d="M273,-112.2977C273,-104.3834 273,-94.6043 273,-86.0759"/>
<polygon fill="#191970" stroke="#191970" points="276.5001,-85.8469 273,-75.8469 269.5001,-85.847 276.5001,-85.8469"/>
</g>
<!-- Node5 -->
<g id="node6" class="node">
<title>Node5</title>
<g id="a_node6"><a xlink:href="cfg__rtc__default_8h.html" target="_top" xlink:title="Default RTC configuration for SODAQ boards. ">
<polygon fill="#ffffff" stroke="#000000" points="69.5,-56.5 69.5,-75.5 164.5,-75.5 164.5,-56.5 69.5,-56.5"/>
<text text-anchor="middle" x="117" y="-63.5" font-family="Helvetica,sans-Serif" font-size="10.00" fill="#000000">cfg_rtc_default.h</text>
</a>
</g>
</g>
<!-- Node0&#45;&gt;Node5 -->
<g id="edge5" class="edge">
<title>Node0&#45;&gt;Node5</title>
<path fill="none" stroke="#191970" d="M234.8381,-112.4554C209.0374,-102.284 175.2874,-88.9787 150.5222,-79.2155"/>
<polygon fill="#191970" stroke="#191970" points="151.7613,-75.9419 141.1745,-75.5303 149.194,-82.4541 151.7613,-75.9419"/>
</g>
<!-- Node6 -->
<g id="node7" class="node">
<title>Node6</title>
<polygon fill="#ffffff" stroke="#bfbfbf" points="343,-56.5 343,-75.5 437,-75.5 437,-56.5 343,-56.5"/>
<text text-anchor="middle" x="390" y="-63.5" font-family="Helvetica,sans-Serif" font-size="10.00" fill="#000000">cfg_rtt_default.h</text>
</g>
<!-- Node0&#45;&gt;Node6 -->
<g id="edge9" class="edge">
<title>Node0&#45;&gt;Node6</title>
<path fill="none" stroke="#191970" d="M301.6214,-112.4554C320.287,-102.644 344.4999,-89.9167 362.8612,-80.2653"/>
<polygon fill="#191970" stroke="#191970" points="364.646,-83.2812 371.8692,-75.5303 361.389,-77.0851 364.646,-83.2812"/>
</g>
<!-- Node7 -->
<g id="node8" class="node">
<title>Node7</title>
<polygon fill="#ffffff" stroke="#bfbfbf" points="455.5,-56.5 455.5,-75.5 550.5,-75.5 550.5,-56.5 455.5,-56.5"/>
<text text-anchor="middle" x="503" y="-63.5" font-family="Helvetica,sans-Serif" font-size="10.00" fill="#000000">cfg_spi_default.h</text>
</g>
<!-- Node0&#45;&gt;Node7 -->
<g id="edge10" class="edge">
<title>Node0&#45;&gt;Node7</title>
<path fill="none" stroke="#191970" d="M329.2643,-112.4554C368.6503,-101.9239 420.601,-88.0328 457.4029,-78.1923"/>
<polygon fill="#191970" stroke="#191970" points="458.6017,-81.4948 467.3582,-75.5303 456.7934,-74.7323 458.6017,-81.4948"/>
</g>
<!-- Node8 -->
<g id="node9" class="node">
<title>Node8</title>
<polygon fill="#ffffff" stroke="#bfbfbf" points="568.5,-56.5 568.5,-75.5 675.5,-75.5 675.5,-56.5 568.5,-56.5"/>
<text text-anchor="middle" x="622" y="-63.5" font-family="Helvetica,sans-Serif" font-size="10.00" fill="#000000">cfg_timer_default.h</text>
</g>
<!-- Node0&#45;&gt;Node8 -->
<g id="edge11" class="edge">
<title>Node0&#45;&gt;Node8</title>
<path fill="none" stroke="#191970" d="M334.1905,-116.7171C397.0968,-105.6319 494.615,-88.4475 558.3912,-77.209"/>
<polygon fill="#191970" stroke="#191970" points="559.0859,-80.6406 568.3267,-75.4582 557.871,-73.7468 559.0859,-80.6406"/>
</g>
<!-- Node9 -->
<g id="node10" class="node">
<title>Node9</title>
<polygon fill="#ffffff" stroke="#bfbfbf" points="694,-56.5 694,-75.5 810,-75.5 810,-56.5 694,-56.5"/>
<text text-anchor="middle" x="752" y="-63.5" font-family="Helvetica,sans-Serif" font-size="10.00" fill="#000000">cfg_usbdev_default.h</text>
</g>
<!-- Node0&#45;&gt;Node9 -->
<g id="edge12" class="edge">
<title>Node0&#45;&gt;Node9</title>
<path fill="none" stroke="#191970" d="M334.1382,-120.3186C412.5967,-110.9999 553.1895,-93.9553 683.7269,-76.15"/>
<polygon fill="#191970" stroke="#191970" points="684.4743,-79.5804 693.9075,-74.757 683.5253,-72.645 684.4743,-79.5804"/>
</g>
<!-- Node5&#45;&gt;Node1 -->
<g id="edge6" class="edge">
<title>Node5&#45;&gt;Node1</title>
<path fill="none" stroke="#191970" d="M101.149,-56.2455C87.1868,-47.6534 66.6272,-35.0014 50.5404,-25.1018"/>
<polygon fill="#191970" stroke="#191970" points="52.0203,-21.9029 41.6693,-19.6427 48.3516,-27.8645 52.0203,-21.9029"/>
</g>
<!-- Node5&#45;&gt;Node2 -->
<g id="edge7" class="edge">
<title>Node5&#45;&gt;Node2</title>
<path fill="none" stroke="#191970" d="M114.5614,-56.2455C112.7145,-48.8579 110.1172,-38.4689 107.8522,-29.4087"/>
<polygon fill="#191970" stroke="#191970" points="111.2316,-28.4952 105.4107,-19.6427 104.4406,-30.193 111.2316,-28.4952"/>
</g>
<!-- Node5&#45;&gt;Node3 -->
<g id="edge8" class="edge">
<title>Node5&#45;&gt;Node3</title>
<path fill="none" stroke="#191970" d="M129.1931,-56.2455C139.6321,-47.8943 154.8655,-35.7076 167.074,-25.9408"/>
<polygon fill="#191970" stroke="#191970" points="169.3244,-28.6227 174.9467,-19.6427 164.9515,-23.1566 169.3244,-28.6227"/>
</g>
</g>
</svg>
