<?xml version="1.0" encoding="UTF-8" standalone="no"?>
<!DOCTYPE svg PUBLIC "-//W3C//DTD SVG 1.1//EN"
 "http://www.w3.org/Graphics/SVG/1.1/DTD/svg11.dtd">
<!-- Generated by graphviz version 2.40.1 (0)
 -->
<!-- Title: boards/nucleo&#45;f303re/include/periph_conf.h Pages: 1 -->
<svg width="236pt" height="162pt"
 viewBox="0.00 0.00 236.00 162.00" xmlns="http://www.w3.org/2000/svg" xmlns:xlink="http://www.w3.org/1999/xlink">
<g id="graph0" class="graph" transform="scale(1 1) rotate(0) translate(4 158)">
<title>boards/nucleo&#45;f303re/include/periph_conf.h</title>
<polygon fill="#ffffff" stroke="transparent" points="-4,4 -4,-158 232,-158 232,4 -4,4"/>
<!-- Node0 -->
<g id="node1" class="node">
<title>Node0</title>
<polygon fill="#bfbfbf" stroke="#000000" points="0,-123.5 0,-153.5 122,-153.5 122,-123.5 0,-123.5"/>
<text text-anchor="start" x="8" y="-141.5" font-family="Helvetica,sans-Serif" font-size="10.00" fill="#000000">boards/nucleo&#45;f303re</text>
<text text-anchor="middle" x="61" y="-130.5" font-family="Helvetica,sans-Serif" font-size="10.00" fill="#000000">/include/periph_conf.h</text>
</g>
<!-- Node1 -->
<g id="node2" class="node">
<title>Node1</title>
<polygon fill="#ffffff" stroke="#bfbfbf" points="46.5,-.5 46.5,-19.5 123.5,-19.5 123.5,-.5 46.5,-.5"/>
<text text-anchor="middle" x="85" y="-7.5" font-family="Helvetica,sans-Serif" font-size="10.00" fill="#000000">periph_cpu.h</text>
</g>
<!-- Node0&#45;&gt;Node1 -->
<g id="edge1" class="edge">
<title>Node0&#45;&gt;Node1</title>
<path fill="none" stroke="#191970" d="M44.8877,-123.4969C29.0973,-106.8874 9.0165,-79.3709 21,-56 27.933,-42.4789 40.8936,-32.0326 53.3481,-24.5377"/>
<polygon fill="#191970" stroke="#191970" points="55.1928,-27.5168 62.234,-19.6001 51.7928,-21.3979 55.1928,-27.5168"/>
</g>
<!-- Node2 -->
<g id="node3" class="node">
<title>Node2</title>
<polygon fill="#ffffff" stroke="#bfbfbf" points="30,-62 30,-81 92,-81 92,-62 30,-62"/>
<text text-anchor="middle" x="61" y="-69" font-family="Helvetica,sans-Serif" font-size="10.00" fill="#000000">clk_conf.h</text>
</g>
<!-- Node0&#45;&gt;Node2 -->
<g id="edge2" class="edge">
<title>Node0&#45;&gt;Node2</title>
<path fill="none" stroke="#191970" d="M61,-123.2967C61,-113.7699 61,-101.3954 61,-91.1306"/>
<polygon fill="#191970" stroke="#191970" points="64.5001,-91.0549 61,-81.055 57.5001,-91.055 64.5001,-91.0549"/>
</g>
<!-- Node3 -->
<g id="node4" class="node">
<title>Node3</title>
<g id="a_node4"><a xlink:href="cfg__timer__tim2__tim15__tim16_8h.html" target="_top" xlink:title="Common configuration for STM32 Timer peripheral based on TIM2, TIM15, and TIM16. ">
<polygon fill="#ffffff" stroke="#000000" points="110,-56.5 110,-86.5 228,-86.5 228,-56.5 110,-56.5"/>
<text text-anchor="start" x="118" y="-74.5" font-family="Helvetica,sans-Serif" font-size="10.00" fill="#000000">cfg_timer_tim2_tim15</text>
<text text-anchor="middle" x="169" y="-63.5" font-family="Helvetica,sans-Serif" font-size="10.00" fill="#000000">_tim16.h</text>
</a>
</g>
</g>
<!-- Node0&#45;&gt;Node3 -->
<g id="edge3" class="edge">
<title>Node0&#45;&gt;Node3</title>
<path fill="none" stroke="#191970" d="M85.2373,-123.4639C100.1399,-114.2188 119.4406,-102.2452 135.7583,-92.1222"/>
<polygon fill="#191970" stroke="#191970" points="137.8174,-94.9636 144.4699,-86.7177 134.1272,-89.0153 137.8174,-94.9636"/>
</g>
<!-- Node3&#45;&gt;Node1 -->
<g id="edge4" class="edge">
<title>Node3&#45;&gt;Node1</title>
<path fill="none" stroke="#191970" d="M148.2359,-56.2977C135.6042,-47.0495 119.4947,-35.2551 106.6969,-25.8853"/>
<polygon fill="#191970" stroke="#191970" points="108.5857,-22.9303 98.4495,-19.8469 104.4505,-28.5784 108.5857,-22.9303"/>
</g>
</g>
</svg>
