<?xml version="1.0" encoding="UTF-8" standalone="no"?>
<!DOCTYPE svg PUBLIC "-//W3C//DTD SVG 1.1//EN"
 "http://www.w3.org/Graphics/SVG/1.1/DTD/svg11.dtd">
<!-- Generated by graphviz version 2.40.1 (0)
 -->
<!-- Title: boards/slstk3701a/include/periph_conf.h Pages: 1 -->
<svg width="429pt" height="207pt"
 viewBox="0.00 0.00 429.00 207.00" xmlns="http://www.w3.org/2000/svg" xmlns:xlink="http://www.w3.org/1999/xlink">
<g id="graph0" class="graph" transform="scale(1 1) rotate(0) translate(4 203)">
<title>boards/slstk3701a/include/periph_conf.h</title>
<polygon fill="#ffffff" stroke="transparent" points="-4,4 -4,-203 425,-203 425,4 -4,4"/>
<!-- Node0 -->
<g id="node1" class="node">
<title>Node0</title>
<polygon fill="#bfbfbf" stroke="#000000" points="30.5,-168.5 30.5,-198.5 169.5,-198.5 169.5,-168.5 30.5,-168.5"/>
<text text-anchor="start" x="38.5" y="-186.5" font-family="Helvetica,sans-Serif" font-size="10.00" fill="#000000">boards/slstk3701a/include</text>
<text text-anchor="middle" x="100" y="-175.5" font-family="Helvetica,sans-Serif" font-size="10.00" fill="#000000">/periph_conf.h</text>
</g>
<!-- Node1 -->
<g id="node2" class="node">
<title>Node1</title>
<polygon fill="#ffffff" stroke="#bfbfbf" points="0,-112.5 0,-131.5 42,-131.5 42,-112.5 0,-112.5"/>
<text text-anchor="middle" x="21" y="-119.5" font-family="Helvetica,sans-Serif" font-size="10.00" fill="#000000">cpu.h</text>
</g>
<!-- Node0&#45;&gt;Node1 -->
<g id="edge1" class="edge">
<title>Node0&#45;&gt;Node1</title>
<path fill="none" stroke="#191970" d="M80.4719,-168.2977C68.7063,-159.1384 53.7325,-147.4816 41.7535,-138.1562"/>
<polygon fill="#191970" stroke="#191970" points="43.6898,-135.228 33.6489,-131.8469 39.3897,-140.7516 43.6898,-135.228"/>
</g>
<!-- Node2 -->
<g id="node3" class="node">
<title>Node2</title>
<polygon fill="#ffffff" stroke="#bfbfbf" points="62.5,-56.5 62.5,-75.5 139.5,-75.5 139.5,-56.5 62.5,-56.5"/>
<text text-anchor="middle" x="101" y="-63.5" font-family="Helvetica,sans-Serif" font-size="10.00" fill="#000000">periph_cpu.h</text>
</g>
<!-- Node0&#45;&gt;Node2 -->
<g id="edge2" class="edge">
<title>Node0&#45;&gt;Node2</title>
<path fill="none" stroke="#191970" d="M95.2115,-168.4662C91.1967,-154.0188 86.491,-131.5577 89,-112 90.1391,-103.1204 92.4673,-93.5073 94.7723,-85.3763"/>
<polygon fill="#191970" stroke="#191970" points="98.1457,-86.3125 97.6873,-75.7276 91.4448,-84.2881 98.1457,-86.3125"/>
</g>
<!-- Node3 -->
<g id="node4" class="node">
<title>Node3</title>
<polygon fill="#ffffff" stroke="#bfbfbf" points="98.5,-112.5 98.5,-131.5 163.5,-131.5 163.5,-112.5 98.5,-112.5"/>
<text text-anchor="middle" x="131" y="-119.5" font-family="Helvetica,sans-Serif" font-size="10.00" fill="#000000">em_cmu.h</text>
</g>
<!-- Node0&#45;&gt;Node3 -->
<g id="edge3" class="edge">
<title>Node0&#45;&gt;Node3</title>
<path fill="none" stroke="#191970" d="M107.6629,-168.2977C111.8316,-160.0277 117.0265,-149.7215 121.4561,-140.9339"/>
<polygon fill="#191970" stroke="#191970" points="124.6607,-142.3521 126.0365,-131.8469 118.4099,-139.2012 124.6607,-142.3521"/>
</g>
<!-- Node4 -->
<g id="node5" class="node">
<title>Node4</title>
<g id="a_node5"><a xlink:href="usbdev__cfg__otg__fs_8h.html" target="_top" xlink:title="Common configuration for EFM32 OTG FS peripheral. ">
<polygon fill="#ffffff" stroke="#000000" points="181.5,-112.5 181.5,-131.5 292.5,-131.5 292.5,-112.5 181.5,-112.5"/>
<text text-anchor="middle" x="237" y="-119.5" font-family="Helvetica,sans-Serif" font-size="10.00" fill="#000000">usbdev_cfg_otg_fs.h</text>
</a>
</g>
</g>
<!-- Node0&#45;&gt;Node4 -->
<g id="edge4" class="edge">
<title>Node0&#45;&gt;Node4</title>
<path fill="none" stroke="#191970" d="M133.514,-168.4554C155.7712,-158.464 184.7647,-145.4487 206.3985,-135.7372"/>
<polygon fill="#191970" stroke="#191970" points="208.0803,-138.8187 215.7699,-131.5303 205.2135,-132.4327 208.0803,-138.8187"/>
</g>
<!-- Node4&#45;&gt;Node2 -->
<g id="edge5" class="edge">
<title>Node4&#45;&gt;Node2</title>
<path fill="none" stroke="#191970" d="M213.6208,-112.3733C191.4955,-103.2629 158.0866,-89.5062 133.3981,-79.3404"/>
<polygon fill="#191970" stroke="#191970" points="134.6536,-76.0723 124.0742,-75.5011 131.9883,-82.5451 134.6536,-76.0723"/>
</g>
<!-- Node5 -->
<g id="node6" class="node">
<title>Node5</title>
<polygon fill="#ffffff" stroke="#bfbfbf" points="173.5,-56.5 173.5,-75.5 268.5,-75.5 268.5,-56.5 173.5,-56.5"/>
<text text-anchor="middle" x="221" y="-63.5" font-family="Helvetica,sans-Serif" font-size="10.00" fill="#000000">usbdev_efm32.h</text>
</g>
<!-- Node4&#45;&gt;Node5 -->
<g id="edge6" class="edge">
<title>Node4&#45;&gt;Node5</title>
<path fill="none" stroke="#191970" d="M234.213,-112.2455C232.1023,-104.8579 229.134,-94.4689 226.5453,-85.4087"/>
<polygon fill="#191970" stroke="#191970" points="229.8677,-84.2964 223.755,-75.6427 223.137,-86.2195 229.8677,-84.2964"/>
</g>
<!-- Node6 -->
<g id="node7" class="node">
<title>Node6</title>
<g id="a_node7"><a xlink:href="usbdev__synopsys__dwc2_8h.html" target="_top" xlink:title="Low level USB FS/HS driver definitions for MCUs with Synopsys DWC2 IP core. ">
<polygon fill="#ffffff" stroke="#000000" points="287,-56.5 287,-75.5 421,-75.5 421,-56.5 287,-56.5"/>
<text text-anchor="middle" x="354" y="-63.5" font-family="Helvetica,sans-Serif" font-size="10.00" fill="#000000">usbdev_synopsys_dwc2.h</text>
</a>
</g>
</g>
<!-- Node4&#45;&gt;Node6 -->
<g id="edge7" class="edge">
<title>Node4&#45;&gt;Node6</title>
<path fill="none" stroke="#191970" d="M257.113,-112.3733C275.8103,-103.4241 303.8744,-89.9917 324.9934,-79.8835"/>
<polygon fill="#191970" stroke="#191970" points="326.6405,-82.9755 334.1494,-75.5011 323.6183,-76.6614 326.6405,-82.9755"/>
</g>
<!-- Node7 -->
<g id="node8" class="node">
<title>Node7</title>
<polygon fill="#ffffff" stroke="#bfbfbf" points="328,-.5 328,-19.5 380,-19.5 380,-.5 328,-.5"/>
<text text-anchor="middle" x="354" y="-7.5" font-family="Helvetica,sans-Serif" font-size="10.00" fill="#000000">stdint.h</text>
</g>
<!-- Node6&#45;&gt;Node7 -->
<g id="edge8" class="edge">
<title>Node6&#45;&gt;Node7</title>
<path fill="none" stroke="#191970" d="M354,-56.2455C354,-48.9382 354,-38.6944 354,-29.7046"/>
<polygon fill="#191970" stroke="#191970" points="357.5001,-29.6426 354,-19.6427 350.5001,-29.6427 357.5001,-29.6426"/>
</g>
</g>
</svg>
