<?xml version="1.0" encoding="UTF-8" standalone="no"?>
<!DOCTYPE svg PUBLIC "-//W3C//DTD SVG 1.1//EN"
 "http://www.w3.org/Graphics/SVG/1.1/DTD/svg11.dtd">
<!-- Generated by graphviz version 2.40.1 (0)
 -->
<!-- Title: boards/stm32f769i&#45;disco/include/periph_conf.h Pages: 1 -->
<svg width="449pt" height="207pt"
 viewBox="0.00 0.00 449.06 207.00" xmlns="http://www.w3.org/2000/svg" xmlns:xlink="http://www.w3.org/1999/xlink">
<g id="graph0" class="graph" transform="scale(1 1) rotate(0) translate(4 203)">
<title>boards/stm32f769i&#45;disco/include/periph_conf.h</title>
<polygon fill="#ffffff" stroke="transparent" points="-4,4 -4,-203 445.0646,-203 445.0646,4 -4,4"/>
<!-- Node0 -->
<g id="node1" class="node">
<title>Node0</title>
<polygon fill="#bfbfbf" stroke="#000000" points="77.0646,-168.5 77.0646,-198.5 209.0646,-198.5 209.0646,-168.5 77.0646,-168.5"/>
<text text-anchor="start" x="85.0646" y="-186.5" font-family="Helvetica,sans-Serif" font-size="10.00" fill="#000000">boards/stm32f769i&#45;disco</text>
<text text-anchor="middle" x="143.0646" y="-175.5" font-family="Helvetica,sans-Serif" font-size="10.00" fill="#000000">/include/periph_conf.h</text>
</g>
<!-- Node1 -->
<g id="node2" class="node">
<title>Node1</title>
<polygon fill="#ffffff" stroke="#bfbfbf" points="211.5646,-56.5 211.5646,-75.5 288.5646,-75.5 288.5646,-56.5 211.5646,-56.5"/>
<text text-anchor="middle" x="250.0646" y="-63.5" font-family="Helvetica,sans-Serif" font-size="10.00" fill="#000000">periph_cpu.h</text>
</g>
<!-- Node0&#45;&gt;Node1 -->
<g id="edge1" class="edge">
<title>Node0&#45;&gt;Node1</title>
<path fill="none" stroke="#191970" d="M76.9565,-172.1841C30.9356,-161.4193 -18.0369,-142.299 7.0646,-112 31.1959,-82.872 137.216,-72.0491 200.9747,-68.1318"/>
<polygon fill="#191970" stroke="#191970" points="201.4276,-71.6116 211.2087,-67.5399 201.0233,-64.6233 201.4276,-71.6116"/>
</g>
<!-- Node2 -->
<g id="node3" class="node">
<title>Node2</title>
<polygon fill="#ffffff" stroke="#bfbfbf" points="16.0646,-112.5 16.0646,-131.5 78.0646,-131.5 78.0646,-112.5 16.0646,-112.5"/>
<text text-anchor="middle" x="47.0646" y="-119.5" font-family="Helvetica,sans-Serif" font-size="10.00" fill="#000000">clk_conf.h</text>
</g>
<!-- Node0&#45;&gt;Node2 -->
<g id="edge2" class="edge">
<title>Node0&#45;&gt;Node2</title>
<path fill="none" stroke="#191970" d="M119.3342,-168.2977C104.5284,-158.8127 85.5418,-146.6495 70.7453,-137.1705"/>
<polygon fill="#191970" stroke="#191970" points="72.4571,-134.1105 62.1487,-131.6633 68.6811,-140.0047 72.4571,-134.1105"/>
</g>
<!-- Node3 -->
<g id="node4" class="node">
<title>Node3</title>
<polygon fill="#ffffff" stroke="#bfbfbf" points="96.0646,-112.5 96.0646,-131.5 190.0646,-131.5 190.0646,-112.5 96.0646,-112.5"/>
<text text-anchor="middle" x="143.0646" y="-119.5" font-family="Helvetica,sans-Serif" font-size="10.00" fill="#000000">cfg_rtt_default.h</text>
</g>
<!-- Node0&#45;&gt;Node3 -->
<g id="edge3" class="edge">
<title>Node0&#45;&gt;Node3</title>
<path fill="none" stroke="#191970" d="M143.0646,-168.2977C143.0646,-160.3834 143.0646,-150.6043 143.0646,-142.0759"/>
<polygon fill="#191970" stroke="#191970" points="146.5647,-141.8469 143.0646,-131.8469 139.5647,-141.847 146.5647,-141.8469"/>
</g>
<!-- Node4 -->
<g id="node5" class="node">
<title>Node4</title>
<g id="a_node5"><a xlink:href="cfg__timer__tim2_8h.html" target="_top" xlink:title="Common configuration for STM32 Timer peripheral based on TIM2. ">
<polygon fill="#ffffff" stroke="#000000" points="208.5646,-112.5 208.5646,-131.5 303.5646,-131.5 303.5646,-112.5 208.5646,-112.5"/>
<text text-anchor="middle" x="256.0646" y="-119.5" font-family="Helvetica,sans-Serif" font-size="10.00" fill="#000000">cfg_timer_tim2.h</text>
</a>
</g>
</g>
<!-- Node0&#45;&gt;Node4 -->
<g id="edge4" class="edge">
<title>Node0&#45;&gt;Node4</title>
<path fill="none" stroke="#191970" d="M170.7075,-168.4554C188.5695,-158.734 211.6914,-146.15 229.3641,-136.5317"/>
<polygon fill="#191970" stroke="#191970" points="231.4433,-139.3849 238.5536,-131.5303 228.097,-133.2365 231.4433,-139.3849"/>
</g>
<!-- Node5 -->
<g id="node6" class="node">
<title>Node5</title>
<g id="a_node6"><a xlink:href="cfg__usb__otg__fs_8h.html" target="_top" xlink:title="Common configuration for STM32 OTG FS peripheral. ">
<polygon fill="#ffffff" stroke="#000000" points="322.0646,-112.5 322.0646,-131.5 416.0646,-131.5 416.0646,-112.5 322.0646,-112.5"/>
<text text-anchor="middle" x="369.0646" y="-119.5" font-family="Helvetica,sans-Serif" font-size="10.00" fill="#000000">cfg_usb_otg_fs.h</text>
</a>
</g>
</g>
<!-- Node0&#45;&gt;Node5 -->
<g id="edge6" class="edge">
<title>Node0&#45;&gt;Node5</title>
<path fill="none" stroke="#191970" d="M198.3504,-168.4554C237.0514,-157.9239 288.0986,-144.0328 324.2605,-134.1923"/>
<polygon fill="#191970" stroke="#191970" points="325.3125,-137.5333 334.0426,-131.5303 323.4745,-130.779 325.3125,-137.5333"/>
</g>
<!-- Node4&#45;&gt;Node1 -->
<g id="edge5" class="edge">
<title>Node4&#45;&gt;Node1</title>
<path fill="none" stroke="#191970" d="M255.0195,-112.2455C254.2365,-104.9382 253.139,-94.6944 252.1758,-85.7046"/>
<polygon fill="#191970" stroke="#191970" points="255.6432,-85.2129 251.0977,-75.6427 248.6831,-85.9587 255.6432,-85.2129"/>
</g>
<!-- Node5&#45;&gt;Node1 -->
<g id="edge7" class="edge">
<title>Node5&#45;&gt;Node1</title>
<path fill="none" stroke="#191970" d="M348.6078,-112.3733C329.5908,-103.4241 301.047,-89.9917 279.567,-79.8835"/>
<polygon fill="#191970" stroke="#191970" points="280.793,-76.5923 270.2545,-75.5011 277.8124,-82.926 280.793,-76.5923"/>
</g>
<!-- Node6 -->
<g id="node7" class="node">
<title>Node6</title>
<g id="a_node7"><a xlink:href="usbdev__synopsys__dwc2_8h.html" target="_top" xlink:title="Low level USB FS/HS driver definitions for MCUs with Synopsys DWC2 IP core. ">
<polygon fill="#ffffff" stroke="#000000" points="307.0646,-56.5 307.0646,-75.5 441.0646,-75.5 441.0646,-56.5 307.0646,-56.5"/>
<text text-anchor="middle" x="374.0646" y="-63.5" font-family="Helvetica,sans-Serif" font-size="10.00" fill="#000000">usbdev_synopsys_dwc2.h</text>
</a>
</g>
</g>
<!-- Node5&#45;&gt;Node6 -->
<g id="edge8" class="edge">
<title>Node5&#45;&gt;Node6</title>
<path fill="none" stroke="#191970" d="M369.9355,-112.2455C370.588,-104.9382 371.5026,-94.6944 372.3053,-85.7046"/>
<polygon fill="#191970" stroke="#191970" points="375.8004,-85.9143 373.2036,-75.6427 368.8281,-85.2918 375.8004,-85.9143"/>
</g>
<!-- Node7 -->
<g id="node8" class="node">
<title>Node7</title>
<polygon fill="#ffffff" stroke="#bfbfbf" points="348.0646,-.5 348.0646,-19.5 400.0646,-19.5 400.0646,-.5 348.0646,-.5"/>
<text text-anchor="middle" x="374.0646" y="-7.5" font-family="Helvetica,sans-Serif" font-size="10.00" fill="#000000">stdint.h</text>
</g>
<!-- Node6&#45;&gt;Node7 -->
<g id="edge9" class="edge">
<title>Node6&#45;&gt;Node7</title>
<path fill="none" stroke="#191970" d="M374.0646,-56.2455C374.0646,-48.9382 374.0646,-38.6944 374.0646,-29.7046"/>
<polygon fill="#191970" stroke="#191970" points="377.5647,-29.6426 374.0646,-19.6427 370.5647,-29.6427 377.5647,-29.6426"/>
</g>
</g>
</svg>
