<?xml version="1.0" encoding="UTF-8" standalone="no"?>
<!DOCTYPE svg PUBLIC "-//W3C//DTD SVG 1.1//EN"
 "http://www.w3.org/Graphics/SVG/1.1/DTD/svg11.dtd">
<!-- Generated by graphviz version 2.40.1 (0)
 -->
<!-- Title: boards/p&#45;l496g&#45;cell02/include/periph_conf.h Pages: 1 -->
<svg width="449pt" height="207pt"
 viewBox="0.00 0.00 449.12 207.00" xmlns="http://www.w3.org/2000/svg" xmlns:xlink="http://www.w3.org/1999/xlink">
<g id="graph0" class="graph" transform="scale(1 1) rotate(0) translate(4 203)">
<title>boards/p&#45;l496g&#45;cell02/include/periph_conf.h</title>
<polygon fill="#ffffff" stroke="transparent" points="-4,4 -4,-203 445.1227,-203 445.1227,4 -4,4"/>
<!-- Node0 -->
<g id="node1" class="node">
<title>Node0</title>
<polygon fill="#bfbfbf" stroke="#000000" points="82.1227,-168.5 82.1227,-198.5 204.1227,-198.5 204.1227,-168.5 82.1227,-168.5"/>
<text text-anchor="start" x="90.1227" y="-186.5" font-family="Helvetica,sans-Serif" font-size="10.00" fill="#000000">boards/p&#45;l496g&#45;cell02</text>
<text text-anchor="middle" x="143.1227" y="-175.5" font-family="Helvetica,sans-Serif" font-size="10.00" fill="#000000">/include/periph_conf.h</text>
</g>
<!-- Node1 -->
<g id="node2" class="node">
<title>Node1</title>
<polygon fill="#ffffff" stroke="#bfbfbf" points="211.6227,-56.5 211.6227,-75.5 288.6227,-75.5 288.6227,-56.5 211.6227,-56.5"/>
<text text-anchor="middle" x="250.1227" y="-63.5" font-family="Helvetica,sans-Serif" font-size="10.00" fill="#000000">periph_cpu.h</text>
</g>
<!-- Node0&#45;&gt;Node1 -->
<g id="edge1" class="edge">
<title>Node0&#45;&gt;Node1</title>
<path fill="none" stroke="#191970" d="M81.6815,-173.2501C34.399,-162.7027 -18.8297,-143.3261 7.1227,-112 31.2541,-82.872 137.2741,-72.0491 201.0328,-68.1318"/>
<polygon fill="#191970" stroke="#191970" points="201.4857,-71.6116 211.2668,-67.5399 201.0814,-64.6233 201.4857,-71.6116"/>
</g>
<!-- Node2 -->
<g id="node3" class="node">
<title>Node2</title>
<polygon fill="#ffffff" stroke="#bfbfbf" points="16.1227,-112.5 16.1227,-131.5 78.1227,-131.5 78.1227,-112.5 16.1227,-112.5"/>
<text text-anchor="middle" x="47.1227" y="-119.5" font-family="Helvetica,sans-Serif" font-size="10.00" fill="#000000">clk_conf.h</text>
</g>
<!-- Node0&#45;&gt;Node2 -->
<g id="edge2" class="edge">
<title>Node0&#45;&gt;Node2</title>
<path fill="none" stroke="#191970" d="M119.3924,-168.2977C104.5865,-158.8127 85.5999,-146.6495 70.8034,-137.1705"/>
<polygon fill="#191970" stroke="#191970" points="72.5152,-134.1105 62.2068,-131.6633 68.7392,-140.0047 72.5152,-134.1105"/>
</g>
<!-- Node3 -->
<g id="node4" class="node">
<title>Node3</title>
<polygon fill="#ffffff" stroke="#bfbfbf" points="96.1227,-112.5 96.1227,-131.5 190.1227,-131.5 190.1227,-112.5 96.1227,-112.5"/>
<text text-anchor="middle" x="143.1227" y="-119.5" font-family="Helvetica,sans-Serif" font-size="10.00" fill="#000000">cfg_rtt_default.h</text>
</g>
<!-- Node0&#45;&gt;Node3 -->
<g id="edge3" class="edge">
<title>Node0&#45;&gt;Node3</title>
<path fill="none" stroke="#191970" d="M143.1227,-168.2977C143.1227,-160.3834 143.1227,-150.6043 143.1227,-142.0759"/>
<polygon fill="#191970" stroke="#191970" points="146.6228,-141.8469 143.1227,-131.8469 139.6228,-141.847 146.6228,-141.8469"/>
</g>
<!-- Node4 -->
<g id="node5" class="node">
<title>Node4</title>
<g id="a_node5"><a xlink:href="cfg__timer__tim2_8h.html" target="_top" xlink:title="Common configuration for STM32 Timer peripheral based on TIM2. ">
<polygon fill="#ffffff" stroke="#000000" points="208.6227,-112.5 208.6227,-131.5 303.6227,-131.5 303.6227,-112.5 208.6227,-112.5"/>
<text text-anchor="middle" x="256.1227" y="-119.5" font-family="Helvetica,sans-Serif" font-size="10.00" fill="#000000">cfg_timer_tim2.h</text>
</a>
</g>
</g>
<!-- Node0&#45;&gt;Node4 -->
<g id="edge4" class="edge">
<title>Node0&#45;&gt;Node4</title>
<path fill="none" stroke="#191970" d="M170.7656,-168.4554C188.6276,-158.734 211.7495,-146.15 229.4222,-136.5317"/>
<polygon fill="#191970" stroke="#191970" points="231.5014,-139.3849 238.6117,-131.5303 228.1551,-133.2365 231.5014,-139.3849"/>
</g>
<!-- Node5 -->
<g id="node6" class="node">
<title>Node5</title>
<g id="a_node6"><a xlink:href="cfg__usb__otg__fs_8h.html" target="_top" xlink:title="Common configuration for STM32 OTG FS peripheral. ">
<polygon fill="#ffffff" stroke="#000000" points="322.1227,-112.5 322.1227,-131.5 416.1227,-131.5 416.1227,-112.5 322.1227,-112.5"/>
<text text-anchor="middle" x="369.1227" y="-119.5" font-family="Helvetica,sans-Serif" font-size="10.00" fill="#000000">cfg_usb_otg_fs.h</text>
</a>
</g>
</g>
<!-- Node0&#45;&gt;Node5 -->
<g id="edge6" class="edge">
<title>Node0&#45;&gt;Node5</title>
<path fill="none" stroke="#191970" d="M198.4085,-168.4554C237.1095,-157.9239 288.1567,-144.0328 324.3186,-134.1923"/>
<polygon fill="#191970" stroke="#191970" points="325.3706,-137.5333 334.1007,-131.5303 323.5326,-130.779 325.3706,-137.5333"/>
</g>
<!-- Node4&#45;&gt;Node1 -->
<g id="edge5" class="edge">
<title>Node4&#45;&gt;Node1</title>
<path fill="none" stroke="#191970" d="M255.0776,-112.2455C254.2946,-104.9382 253.1971,-94.6944 252.2339,-85.7046"/>
<polygon fill="#191970" stroke="#191970" points="255.7013,-85.2129 251.1558,-75.6427 248.7412,-85.9587 255.7013,-85.2129"/>
</g>
<!-- Node5&#45;&gt;Node1 -->
<g id="edge7" class="edge">
<title>Node5&#45;&gt;Node1</title>
<path fill="none" stroke="#191970" d="M348.6659,-112.3733C329.6489,-103.4241 301.1052,-89.9917 279.6251,-79.8835"/>
<polygon fill="#191970" stroke="#191970" points="280.8511,-76.5923 270.3126,-75.5011 277.8705,-82.926 280.8511,-76.5923"/>
</g>
<!-- Node6 -->
<g id="node7" class="node">
<title>Node6</title>
<g id="a_node7"><a xlink:href="usbdev__synopsys__dwc2_8h.html" target="_top" xlink:title="Low level USB FS/HS driver definitions for MCUs with Synopsys DWC2 IP core. ">
<polygon fill="#ffffff" stroke="#000000" points="307.1227,-56.5 307.1227,-75.5 441.1227,-75.5 441.1227,-56.5 307.1227,-56.5"/>
<text text-anchor="middle" x="374.1227" y="-63.5" font-family="Helvetica,sans-Serif" font-size="10.00" fill="#000000">usbdev_synopsys_dwc2.h</text>
</a>
</g>
</g>
<!-- Node5&#45;&gt;Node6 -->
<g id="edge8" class="edge">
<title>Node5&#45;&gt;Node6</title>
<path fill="none" stroke="#191970" d="M369.9936,-112.2455C370.6461,-104.9382 371.5607,-94.6944 372.3634,-85.7046"/>
<polygon fill="#191970" stroke="#191970" points="375.8585,-85.9143 373.2617,-75.6427 368.8862,-85.2918 375.8585,-85.9143"/>
</g>
<!-- Node7 -->
<g id="node8" class="node">
<title>Node7</title>
<polygon fill="#ffffff" stroke="#bfbfbf" points="348.1227,-.5 348.1227,-19.5 400.1227,-19.5 400.1227,-.5 348.1227,-.5"/>
<text text-anchor="middle" x="374.1227" y="-7.5" font-family="Helvetica,sans-Serif" font-size="10.00" fill="#000000">stdint.h</text>
</g>
<!-- Node6&#45;&gt;Node7 -->
<g id="edge9" class="edge">
<title>Node6&#45;&gt;Node7</title>
<path fill="none" stroke="#191970" d="M374.1227,-56.2455C374.1227,-48.9382 374.1227,-38.6944 374.1227,-29.7046"/>
<polygon fill="#191970" stroke="#191970" points="377.6228,-29.6426 374.1227,-19.6427 370.6228,-29.6427 377.6228,-29.6426"/>
</g>
</g>
</svg>
