<?xml version="1.0" encoding="UTF-8" standalone="no"?>
<!DOCTYPE svg PUBLIC "-//W3C//DTD SVG 1.1//EN"
 "http://www.w3.org/Graphics/SVG/1.1/DTD/svg11.dtd">
<!-- Generated by graphviz version 2.40.1 (0)
 -->
<!-- Title: boards/nucleo&#45;l432kc/include/periph_conf.h Pages: 1 -->
<svg width="460pt" height="162pt"
 viewBox="0.00 0.00 459.87 162.00" xmlns="http://www.w3.org/2000/svg" xmlns:xlink="http://www.w3.org/1999/xlink">
<g id="graph0" class="graph" transform="scale(1 1) rotate(0) translate(4 158)">
<title>boards/nucleo&#45;l432kc/include/periph_conf.h</title>
<polygon fill="#ffffff" stroke="transparent" points="-4,4 -4,-158 455.8722,-158 455.8722,4 -4,4"/>
<!-- Node0 -->
<g id="node1" class="node">
<title>Node0</title>
<polygon fill="#bfbfbf" stroke="#000000" points="88.8722,-123.5 88.8722,-153.5 210.8722,-153.5 210.8722,-123.5 88.8722,-123.5"/>
<text text-anchor="start" x="96.8722" y="-141.5" font-family="Helvetica,sans-Serif" font-size="10.00" fill="#000000">boards/nucleo&#45;l432kc</text>
<text text-anchor="middle" x="149.8722" y="-130.5" font-family="Helvetica,sans-Serif" font-size="10.00" fill="#000000">/include/periph_conf.h</text>
</g>
<!-- Node1 -->
<g id="node2" class="node">
<title>Node1</title>
<polygon fill="#ffffff" stroke="#bfbfbf" points="111.3722,-.5 111.3722,-19.5 188.3722,-19.5 188.3722,-.5 111.3722,-.5"/>
<text text-anchor="middle" x="149.8722" y="-7.5" font-family="Helvetica,sans-Serif" font-size="10.00" fill="#000000">periph_cpu.h</text>
</g>
<!-- Node0&#45;&gt;Node1 -->
<g id="edge1" class="edge">
<title>Node0&#45;&gt;Node1</title>
<path fill="none" stroke="#191970" d="M88.4414,-126.8735C38.6487,-114.5734 -19.2933,-91.9028 6.8722,-56 18.2446,-40.3955 64.3059,-27.4525 101.1208,-19.313"/>
<polygon fill="#191970" stroke="#191970" points="102.1792,-22.6656 111.2229,-17.1463 100.7112,-15.8213 102.1792,-22.6656"/>
</g>
<!-- Node2 -->
<g id="node3" class="node">
<title>Node2</title>
<polygon fill="#ffffff" stroke="#bfbfbf" points="15.8722,-62 15.8722,-81 77.8722,-81 77.8722,-62 15.8722,-62"/>
<text text-anchor="middle" x="46.8722" y="-69" font-family="Helvetica,sans-Serif" font-size="10.00" fill="#000000">clk_conf.h</text>
</g>
<!-- Node0&#45;&gt;Node2 -->
<g id="edge2" class="edge">
<title>Node0&#45;&gt;Node2</title>
<path fill="none" stroke="#191970" d="M126.757,-123.4639C109.942,-112.526 87.256,-97.769 70.356,-86.7759"/>
<polygon fill="#191970" stroke="#191970" points="71.9275,-83.6228 61.6365,-81.1039 68.1106,-89.4906 71.9275,-83.6228"/>
</g>
<!-- Node3 -->
<g id="node4" class="node">
<title>Node3</title>
<g id="a_node4"><a xlink:href="cfg__i2c1__pb6__pb7_8h.html" target="_top" xlink:title="Common configuration for STM32 I2C. ">
<polygon fill="#ffffff" stroke="#000000" points="95.8722,-62 95.8722,-81 203.8722,-81 203.8722,-62 95.8722,-62"/>
<text text-anchor="middle" x="149.8722" y="-69" font-family="Helvetica,sans-Serif" font-size="10.00" fill="#000000">cfg_i2c1_pb6_pb7.h</text>
</a>
</g>
</g>
<!-- Node0&#45;&gt;Node3 -->
<g id="edge3" class="edge">
<title>Node0&#45;&gt;Node3</title>
<path fill="none" stroke="#191970" d="M149.8722,-123.2967C149.8722,-113.7699 149.8722,-101.3954 149.8722,-91.1306"/>
<polygon fill="#191970" stroke="#191970" points="153.3723,-91.0549 149.8722,-81.055 146.3723,-91.055 153.3723,-91.0549"/>
</g>
<!-- Node4 -->
<g id="node5" class="node">
<title>Node4</title>
<polygon fill="#ffffff" stroke="#bfbfbf" points="221.8722,-62 221.8722,-81 315.8722,-81 315.8722,-62 221.8722,-62"/>
<text text-anchor="middle" x="268.8722" y="-69" font-family="Helvetica,sans-Serif" font-size="10.00" fill="#000000">cfg_rtt_default.h</text>
</g>
<!-- Node0&#45;&gt;Node4 -->
<g id="edge5" class="edge">
<title>Node0&#45;&gt;Node4</title>
<path fill="none" stroke="#191970" d="M176.5781,-123.4639C196.4549,-112.2728 223.4323,-97.0838 243.0855,-86.0186"/>
<polygon fill="#191970" stroke="#191970" points="244.8179,-89.0599 251.8145,-81.1039 241.3836,-82.9602 244.8179,-89.0599"/>
</g>
<!-- Node5 -->
<g id="node6" class="node">
<title>Node5</title>
<g id="a_node6"><a xlink:href="cfg__timer__tim2__tim15__tim16_8h.html" target="_top" xlink:title="Common configuration for STM32 Timer peripheral based on TIM2, TIM15, and TIM16. ">
<polygon fill="#ffffff" stroke="#000000" points="333.8722,-56.5 333.8722,-86.5 451.8722,-86.5 451.8722,-56.5 333.8722,-56.5"/>
<text text-anchor="start" x="341.8722" y="-74.5" font-family="Helvetica,sans-Serif" font-size="10.00" fill="#000000">cfg_timer_tim2_tim15</text>
<text text-anchor="middle" x="392.8722" y="-63.5" font-family="Helvetica,sans-Serif" font-size="10.00" fill="#000000">_tim16.h</text>
</a>
</g>
</g>
<!-- Node0&#45;&gt;Node5 -->
<g id="edge6" class="edge">
<title>Node0&#45;&gt;Node5</title>
<path fill="none" stroke="#191970" d="M204.4062,-123.4639C241.015,-113.3701 289.4195,-100.024 328.0065,-89.3848"/>
<polygon fill="#191970" stroke="#191970" points="329.3905,-92.6339 338.1004,-86.6017 327.5298,-85.8857 329.3905,-92.6339"/>
</g>
<!-- Node3&#45;&gt;Node1 -->
<g id="edge4" class="edge">
<title>Node3&#45;&gt;Node1</title>
<path fill="none" stroke="#191970" d="M149.8722,-61.8906C149.8722,-53.3657 149.8722,-40.6392 149.8722,-29.9235"/>
<polygon fill="#191970" stroke="#191970" points="153.3723,-29.7448 149.8722,-19.7449 146.3723,-29.7449 153.3723,-29.7448"/>
</g>
<!-- Node5&#45;&gt;Node1 -->
<g id="edge7" class="edge">
<title>Node5&#45;&gt;Node1</title>
<path fill="none" stroke="#191970" d="M333.7385,-56.534C291.955,-45.9592 236.6706,-31.9675 197.6704,-22.0971"/>
<polygon fill="#191970" stroke="#191970" points="198.1795,-18.6156 187.6264,-19.5551 196.462,-25.4017 198.1795,-18.6156"/>
</g>
</g>
</svg>
