<?xml version="1.0" encoding="UTF-8" standalone="no"?>
<!DOCTYPE svg PUBLIC "-//W3C//DTD SVG 1.1//EN"
 "http://www.w3.org/Graphics/SVG/1.1/DTD/svg11.dtd">
<!-- Generated by graphviz version 2.40.1 (0)
 -->
<!-- Title: boards/microbit&#45;v2/include/periph_conf.h Pages: 1 -->
<svg width="529pt" height="151pt"
 viewBox="0.00 0.00 529.00 151.00" xmlns="http://www.w3.org/2000/svg" xmlns:xlink="http://www.w3.org/1999/xlink">
<g id="graph0" class="graph" transform="scale(1 1) rotate(0) translate(4 147)">
<title>boards/microbit&#45;v2/include/periph_conf.h</title>
<polygon fill="#ffffff" stroke="transparent" points="-4,4 -4,-147 525,-147 525,4 -4,4"/>
<!-- Node0 -->
<g id="node1" class="node">
<title>Node0</title>
<polygon fill="#bfbfbf" stroke="#000000" points="175,-112.5 175,-142.5 297,-142.5 297,-112.5 175,-112.5"/>
<text text-anchor="start" x="183" y="-130.5" font-family="Helvetica,sans-Serif" font-size="10.00" fill="#000000">boards/microbit&#45;v2</text>
<text text-anchor="middle" x="236" y="-119.5" font-family="Helvetica,sans-Serif" font-size="10.00" fill="#000000">/include/periph_conf.h</text>
</g>
<!-- Node1 -->
<g id="node2" class="node">
<title>Node1</title>
<g id="a_node2"><a xlink:href="microbit-v2_2include_2board_8h.html" target="_top" xlink:title="Board specific configuration for the BBC micro:bit v2. ">
<polygon fill="#ffffff" stroke="#000000" points="22.5,-56.5 22.5,-75.5 75.5,-75.5 75.5,-56.5 22.5,-56.5"/>
<text text-anchor="middle" x="49" y="-63.5" font-family="Helvetica,sans-Serif" font-size="10.00" fill="#000000">board.h</text>
</a>
</g>
</g>
<!-- Node0&#45;&gt;Node1 -->
<g id="edge1" class="edge">
<title>Node0&#45;&gt;Node1</title>
<path fill="none" stroke="#191970" d="M190.2547,-112.4554C157.9052,-101.8164 115.1305,-87.7488 85.1599,-77.8922"/>
<polygon fill="#191970" stroke="#191970" points="86.1133,-74.5214 75.5204,-74.7219 83.9264,-81.171 86.1133,-74.5214"/>
</g>
<!-- Node3 -->
<g id="node4" class="node">
<title>Node3</title>
<polygon fill="#ffffff" stroke="#bfbfbf" points="93.5,-56.5 93.5,-75.5 170.5,-75.5 170.5,-56.5 93.5,-56.5"/>
<text text-anchor="middle" x="132" y="-63.5" font-family="Helvetica,sans-Serif" font-size="10.00" fill="#000000">periph_cpu.h</text>
</g>
<!-- Node0&#45;&gt;Node3 -->
<g id="edge3" class="edge">
<title>Node0&#45;&gt;Node3</title>
<path fill="none" stroke="#191970" d="M210.5587,-112.4554C194.2716,-102.8241 173.2327,-90.3828 157.027,-80.7996"/>
<polygon fill="#191970" stroke="#191970" points="158.5055,-77.6078 148.1163,-75.5303 154.9424,-83.6331 158.5055,-77.6078"/>
</g>
<!-- Node4 -->
<g id="node5" class="node">
<title>Node4</title>
<g id="a_node5"><a xlink:href="cfg__clock__32__0_8h.html" target="_top" xlink:title="Common clock configuration for the nRF52 based boards. ">
<polygon fill="#ffffff" stroke="#000000" points="189,-56.5 189,-75.5 283,-75.5 283,-56.5 189,-56.5"/>
<text text-anchor="middle" x="236" y="-63.5" font-family="Helvetica,sans-Serif" font-size="10.00" fill="#000000">cfg_clock_32_0.h</text>
</a>
</g>
</g>
<!-- Node0&#45;&gt;Node4 -->
<g id="edge4" class="edge">
<title>Node0&#45;&gt;Node4</title>
<path fill="none" stroke="#191970" d="M236,-112.2977C236,-104.3834 236,-94.6043 236,-86.0759"/>
<polygon fill="#191970" stroke="#191970" points="239.5001,-85.8469 236,-75.8469 232.5001,-85.847 239.5001,-85.8469"/>
</g>
<!-- Node5 -->
<g id="node6" class="node">
<title>Node5</title>
<polygon fill="#ffffff" stroke="#bfbfbf" points="301.5,-56.5 301.5,-75.5 408.5,-75.5 408.5,-56.5 301.5,-56.5"/>
<text text-anchor="middle" x="355" y="-63.5" font-family="Helvetica,sans-Serif" font-size="10.00" fill="#000000">cfg_timer_default.h</text>
</g>
<!-- Node0&#45;&gt;Node5 -->
<g id="edge5" class="edge">
<title>Node0&#45;&gt;Node5</title>
<path fill="none" stroke="#191970" d="M265.1107,-112.4554C284.1824,-102.599 308.9482,-89.7999 327.6539,-80.1327"/>
<polygon fill="#191970" stroke="#191970" points="329.2824,-83.2309 336.5592,-75.5303 326.0685,-77.0122 329.2824,-83.2309"/>
</g>
<!-- Node6 -->
<g id="node7" class="node">
<title>Node6</title>
<polygon fill="#ffffff" stroke="#bfbfbf" points="427,-56.5 427,-75.5 521,-75.5 521,-56.5 427,-56.5"/>
<text text-anchor="middle" x="474" y="-63.5" font-family="Helvetica,sans-Serif" font-size="10.00" fill="#000000">cfg_rtt_default.h</text>
</g>
<!-- Node0&#45;&gt;Node6 -->
<g id="edge6" class="edge">
<title>Node0&#45;&gt;Node6</title>
<path fill="none" stroke="#191970" d="M294.2213,-112.4554C335.1515,-101.8789 389.1946,-87.914 427.3043,-78.0663"/>
<polygon fill="#191970" stroke="#191970" points="428.3121,-81.4209 437.1184,-75.5303 426.5608,-74.6436 428.3121,-81.4209"/>
</g>
<!-- Node2 -->
<g id="node3" class="node">
<title>Node2</title>
<polygon fill="#ffffff" stroke="#bfbfbf" points="0,-.5 0,-19.5 98,-19.5 98,-.5 0,-.5"/>
<text text-anchor="middle" x="49" y="-7.5" font-family="Helvetica,sans-Serif" font-size="10.00" fill="#000000">board_common.h</text>
</g>
<!-- Node1&#45;&gt;Node2 -->
<g id="edge2" class="edge">
<title>Node1&#45;&gt;Node2</title>
<path fill="none" stroke="#191970" d="M49,-56.2455C49,-48.9382 49,-38.6944 49,-29.7046"/>
<polygon fill="#191970" stroke="#191970" points="52.5001,-29.6426 49,-19.6427 45.5001,-29.6427 52.5001,-29.6426"/>
</g>
</g>
</svg>
