<?xml version="1.0" encoding="UTF-8" standalone="no"?>
<!DOCTYPE svg PUBLIC "-//W3C//DTD SVG 1.1//EN"
 "http://www.w3.org/Graphics/SVG/1.1/DTD/svg11.dtd">
<!-- Generated by graphviz version 2.40.1 (0)
 -->
<!-- Title: boards/generic&#45;cc2538&#45;cc2592&#45;dk/include/periph_conf.h Pages: 1 -->
<svg width="314pt" height="162pt"
 viewBox="0.00 0.00 313.50 162.00" xmlns="http://www.w3.org/2000/svg" xmlns:xlink="http://www.w3.org/1999/xlink">
<g id="graph0" class="graph" transform="scale(1 1) rotate(0) translate(4 158)">
<title>boards/generic&#45;cc2538&#45;cc2592&#45;dk/include/periph_conf.h</title>
<polygon fill="#ffffff" stroke="transparent" points="-4,4 -4,-158 309.5,-158 309.5,4 -4,4"/>
<!-- Node0 -->
<g id="node1" class="node">
<title>Node0</title>
<polygon fill="#bfbfbf" stroke="#000000" points="63,-112.5 63,-153.5 201,-153.5 201,-112.5 63,-112.5"/>
<text text-anchor="start" x="71" y="-141.5" font-family="Helvetica,sans-Serif" font-size="10.00" fill="#000000">boards/generic&#45;cc2538</text>
<text text-anchor="start" x="71" y="-130.5" font-family="Helvetica,sans-Serif" font-size="10.00" fill="#000000">&#45;cc2592&#45;dk/include/periph</text>
<text text-anchor="middle" x="132" y="-119.5" font-family="Helvetica,sans-Serif" font-size="10.00" fill="#000000">_conf.h</text>
</g>
<!-- Node1 -->
<g id="node2" class="node">
<title>Node1</title>
<polygon fill="#ffffff" stroke="#bfbfbf" points="0,-.5 0,-19.5 42,-19.5 42,-.5 0,-.5"/>
<text text-anchor="middle" x="21" y="-7.5" font-family="Helvetica,sans-Serif" font-size="10.00" fill="#000000">cpu.h</text>
</g>
<!-- Node0&#45;&gt;Node1 -->
<g id="edge1" class="edge">
<title>Node0&#45;&gt;Node1</title>
<path fill="none" stroke="#191970" d="M83.6279,-112.4429C67.3743,-103.3998 50.4774,-91.3001 39,-76 28.9899,-62.6559 24.5456,-44.0874 22.5729,-30.0439"/>
<polygon fill="#191970" stroke="#191970" points="26.0338,-29.4952 21.4617,-19.9377 19.0757,-30.2603 26.0338,-29.4952"/>
</g>
<!-- Node2 -->
<g id="node3" class="node">
<title>Node2</title>
<polygon fill="#ffffff" stroke="#bfbfbf" points="131.5,-.5 131.5,-19.5 208.5,-19.5 208.5,-.5 131.5,-.5"/>
<text text-anchor="middle" x="170" y="-7.5" font-family="Helvetica,sans-Serif" font-size="10.00" fill="#000000">periph_cpu.h</text>
</g>
<!-- Node0&#45;&gt;Node2 -->
<g id="edge2" class="edge">
<title>Node0&#45;&gt;Node2</title>
<path fill="none" stroke="#191970" d="M139.066,-112.4874C142.7348,-101.6688 147.2268,-88.1537 151,-76 155.8059,-60.5201 160.8652,-42.8702 164.5538,-29.7197"/>
<polygon fill="#191970" stroke="#191970" points="167.9834,-30.4503 167.2941,-19.8779 161.2399,-28.5726 167.9834,-30.4503"/>
</g>
<!-- Node3 -->
<g id="node4" class="node">
<title>Node3</title>
<g id="a_node4"><a xlink:href="cfg__clk__default_8h.html" target="_top" xlink:title="Default clock configuration for cc2538 based boards. ">
<polygon fill="#ffffff" stroke="#000000" points="48,-56.5 48,-75.5 142,-75.5 142,-56.5 48,-56.5"/>
<text text-anchor="middle" x="95" y="-63.5" font-family="Helvetica,sans-Serif" font-size="10.00" fill="#000000">cfg_clk_default.h</text>
</a>
</g>
</g>
<!-- Node0&#45;&gt;Node3 -->
<g id="edge3" class="edge">
<title>Node0&#45;&gt;Node3</title>
<path fill="none" stroke="#191970" d="M120.4958,-112.168C115.6252,-103.3484 109.996,-93.155 105.2679,-84.5933"/>
<polygon fill="#191970" stroke="#191970" points="108.2993,-82.8424 100.4012,-75.7805 102.1716,-86.2263 108.2993,-82.8424"/>
</g>
<!-- Node5 -->
<g id="node6" class="node">
<title>Node5</title>
<polygon fill="#ffffff" stroke="#bfbfbf" points="198.5,-56.5 198.5,-75.5 305.5,-75.5 305.5,-56.5 198.5,-56.5"/>
<text text-anchor="middle" x="252" y="-63.5" font-family="Helvetica,sans-Serif" font-size="10.00" fill="#000000">cfg_timer_default.h</text>
</g>
<!-- Node0&#45;&gt;Node5 -->
<g id="edge7" class="edge">
<title>Node0&#45;&gt;Node5</title>
<path fill="none" stroke="#191970" d="M168.9831,-112.3511C187.2894,-102.1301 208.9649,-90.0279 225.5764,-80.7532"/>
<polygon fill="#191970" stroke="#191970" points="227.6831,-83.5856 234.7081,-75.6546 224.2706,-77.4737 227.6831,-83.5856"/>
</g>
<!-- Node3&#45;&gt;Node1 -->
<g id="edge5" class="edge">
<title>Node3&#45;&gt;Node1</title>
<path fill="none" stroke="#191970" d="M82.1102,-56.2455C71.0746,-47.8943 54.9708,-35.7076 42.0647,-25.9408"/>
<polygon fill="#191970" stroke="#191970" points="43.8283,-22.8862 33.7421,-19.6427 39.6041,-28.4681 43.8283,-22.8862"/>
</g>
<!-- Node3&#45;&gt;Node2 -->
<g id="edge6" class="edge">
<title>Node3&#45;&gt;Node2</title>
<path fill="none" stroke="#191970" d="M108.064,-56.2455C119.3562,-47.814 135.8845,-35.4729 149.0271,-25.6598"/>
<polygon fill="#191970" stroke="#191970" points="151.1669,-28.4301 157.0857,-19.6427 146.9789,-22.8211 151.1669,-28.4301"/>
</g>
<!-- Node4 -->
<g id="node5" class="node">
<title>Node4</title>
<polygon fill="#ffffff" stroke="#bfbfbf" points="61,-.5 61,-19.5 113,-19.5 113,-.5 61,-.5"/>
<text text-anchor="middle" x="87" y="-7.5" font-family="Helvetica,sans-Serif" font-size="10.00" fill="#000000">stdint.h</text>
</g>
<!-- Node3&#45;&gt;Node4 -->
<g id="edge4" class="edge">
<title>Node3&#45;&gt;Node4</title>
<path fill="none" stroke="#191970" d="M93.6065,-56.2455C92.5626,-48.9382 91.0992,-38.6944 89.8149,-29.7046"/>
<polygon fill="#191970" stroke="#191970" points="93.2566,-29.0472 88.3775,-19.6427 86.327,-30.0372 93.2566,-29.0472"/>
</g>
</g>
</svg>
