<?xml version="1.0" encoding="UTF-8" standalone="no"?>
<!DOCTYPE svg PUBLIC "-//W3C//DTD SVG 1.1//EN"
 "http://www.w3.org/Graphics/SVG/1.1/DTD/svg11.dtd">
<!-- Generated by graphviz version 2.40.1 (0)
 -->
<!-- Title: boards/nucleo&#45;l4r5zi/include/periph_conf.h Pages: 1 -->
<svg width="456pt" height="207pt"
 viewBox="0.00 0.00 455.53 207.00" xmlns="http://www.w3.org/2000/svg" xmlns:xlink="http://www.w3.org/1999/xlink">
<g id="graph0" class="graph" transform="scale(1 1) rotate(0) translate(4 203)">
<title>boards/nucleo&#45;l4r5zi/include/periph_conf.h</title>
<polygon fill="#ffffff" stroke="transparent" points="-4,4 -4,-203 451.5337,-203 451.5337,4 -4,4"/>
<!-- Node0 -->
<g id="node1" class="node">
<title>Node0</title>
<polygon fill="#bfbfbf" stroke="#000000" points="88.5337,-168.5 88.5337,-198.5 210.5337,-198.5 210.5337,-168.5 88.5337,-168.5"/>
<text text-anchor="start" x="96.5337" y="-186.5" font-family="Helvetica,sans-Serif" font-size="10.00" fill="#000000">boards/nucleo&#45;l4r5zi</text>
<text text-anchor="middle" x="149.5337" y="-175.5" font-family="Helvetica,sans-Serif" font-size="10.00" fill="#000000">/include/periph_conf.h</text>
</g>
<!-- Node1 -->
<g id="node2" class="node">
<title>Node1</title>
<polygon fill="#ffffff" stroke="#bfbfbf" points="111.0337,-56.5 111.0337,-75.5 188.0337,-75.5 188.0337,-56.5 111.0337,-56.5"/>
<text text-anchor="middle" x="149.5337" y="-63.5" font-family="Helvetica,sans-Serif" font-size="10.00" fill="#000000">periph_cpu.h</text>
</g>
<!-- Node0&#45;&gt;Node1 -->
<g id="edge1" class="edge">
<title>Node0&#45;&gt;Node1</title>
<path fill="none" stroke="#191970" d="M88.4887,-175.1297C38.9622,-165.6464 -18.8056,-146.7692 6.5337,-112 17.9061,-96.3955 63.9674,-83.4525 100.7824,-75.313"/>
<polygon fill="#191970" stroke="#191970" points="101.8407,-78.6656 110.8844,-73.1463 100.3727,-71.8213 101.8407,-78.6656"/>
</g>
<!-- Node2 -->
<g id="node3" class="node">
<title>Node2</title>
<polygon fill="#ffffff" stroke="#bfbfbf" points="15.5337,-112.5 15.5337,-131.5 77.5337,-131.5 77.5337,-112.5 15.5337,-112.5"/>
<text text-anchor="middle" x="46.5337" y="-119.5" font-family="Helvetica,sans-Serif" font-size="10.00" fill="#000000">clk_conf.h</text>
</g>
<!-- Node0&#45;&gt;Node2 -->
<g id="edge2" class="edge">
<title>Node0&#45;&gt;Node2</title>
<path fill="none" stroke="#191970" d="M124.3371,-168.4554C108.2066,-158.8241 87.37,-146.3828 71.3201,-136.7996"/>
<polygon fill="#191970" stroke="#191970" points="72.8754,-133.6518 62.4951,-131.5303 69.2867,-139.662 72.8754,-133.6518"/>
</g>
<!-- Node3 -->
<g id="node4" class="node">
<title>Node3</title>
<g id="a_node4"><a xlink:href="cfg__i2c1__pb8__pb9_8h.html" target="_top" xlink:title="Common configuration for STM32 I2C. ">
<polygon fill="#ffffff" stroke="#000000" points="95.5337,-112.5 95.5337,-131.5 203.5337,-131.5 203.5337,-112.5 95.5337,-112.5"/>
<text text-anchor="middle" x="149.5337" y="-119.5" font-family="Helvetica,sans-Serif" font-size="10.00" fill="#000000">cfg_i2c1_pb8_pb9.h</text>
</a>
</g>
</g>
<!-- Node0&#45;&gt;Node3 -->
<g id="edge3" class="edge">
<title>Node0&#45;&gt;Node3</title>
<path fill="none" stroke="#191970" d="M149.5337,-168.2977C149.5337,-160.3834 149.5337,-150.6043 149.5337,-142.0759"/>
<polygon fill="#191970" stroke="#191970" points="153.0338,-141.8469 149.5337,-131.8469 146.0338,-141.847 153.0338,-141.8469"/>
</g>
<!-- Node4 -->
<g id="node5" class="node">
<title>Node4</title>
<polygon fill="#ffffff" stroke="#bfbfbf" points="221.5337,-112.5 221.5337,-131.5 315.5337,-131.5 315.5337,-112.5 221.5337,-112.5"/>
<text text-anchor="middle" x="268.5337" y="-119.5" font-family="Helvetica,sans-Serif" font-size="10.00" fill="#000000">cfg_rtt_default.h</text>
</g>
<!-- Node0&#45;&gt;Node4 -->
<g id="edge5" class="edge">
<title>Node0&#45;&gt;Node4</title>
<path fill="none" stroke="#191970" d="M178.6444,-168.4554C197.7161,-158.599 222.4819,-145.7999 241.1876,-136.1327"/>
<polygon fill="#191970" stroke="#191970" points="242.8161,-139.2309 250.093,-131.5303 239.6023,-133.0122 242.8161,-139.2309"/>
</g>
<!-- Node5 -->
<g id="node6" class="node">
<title>Node5</title>
<g id="a_node6"><a xlink:href="cfg__usb__otg__fs_8h.html" target="_top" xlink:title="Common configuration for STM32 OTG FS peripheral. ">
<polygon fill="#ffffff" stroke="#000000" points="333.5337,-112.5 333.5337,-131.5 427.5337,-131.5 427.5337,-112.5 333.5337,-112.5"/>
<text text-anchor="middle" x="380.5337" y="-119.5" font-family="Helvetica,sans-Serif" font-size="10.00" fill="#000000">cfg_usb_otg_fs.h</text>
</a>
</g>
</g>
<!-- Node0&#45;&gt;Node5 -->
<g id="edge6" class="edge">
<title>Node0&#45;&gt;Node5</title>
<path fill="none" stroke="#191970" d="M206.0427,-168.4554C245.5999,-157.9239 297.7764,-144.0328 334.7384,-134.1923"/>
<polygon fill="#191970" stroke="#191970" points="335.974,-137.4853 344.7369,-131.5303 334.1731,-130.7209 335.974,-137.4853"/>
</g>
<!-- Node3&#45;&gt;Node1 -->
<g id="edge4" class="edge">
<title>Node3&#45;&gt;Node1</title>
<path fill="none" stroke="#191970" d="M149.5337,-112.2455C149.5337,-104.9382 149.5337,-94.6944 149.5337,-85.7046"/>
<polygon fill="#191970" stroke="#191970" points="153.0338,-85.6426 149.5337,-75.6427 146.0338,-85.6427 153.0338,-85.6426"/>
</g>
<!-- Node5&#45;&gt;Node1 -->
<g id="edge7" class="edge">
<title>Node5&#45;&gt;Node1</title>
<path fill="none" stroke="#191970" d="M341.0859,-112.4369C301.4796,-102.8353 240.3951,-88.027 197.8928,-77.7234"/>
<polygon fill="#191970" stroke="#191970" points="198.5928,-74.2918 188.0496,-75.3372 196.9435,-81.0947 198.5928,-74.2918"/>
</g>
<!-- Node6 -->
<g id="node7" class="node">
<title>Node6</title>
<g id="a_node7"><a xlink:href="usbdev__synopsys__dwc2_8h.html" target="_top" xlink:title="Low level USB FS/HS driver definitions for MCUs with Synopsys DWC2 IP core. ">
<polygon fill="#ffffff" stroke="#000000" points="313.5337,-56.5 313.5337,-75.5 447.5337,-75.5 447.5337,-56.5 313.5337,-56.5"/>
<text text-anchor="middle" x="380.5337" y="-63.5" font-family="Helvetica,sans-Serif" font-size="10.00" fill="#000000">usbdev_synopsys_dwc2.h</text>
</a>
</g>
</g>
<!-- Node5&#45;&gt;Node6 -->
<g id="edge8" class="edge">
<title>Node5&#45;&gt;Node6</title>
<path fill="none" stroke="#191970" d="M380.5337,-112.2455C380.5337,-104.9382 380.5337,-94.6944 380.5337,-85.7046"/>
<polygon fill="#191970" stroke="#191970" points="384.0338,-85.6426 380.5337,-75.6427 377.0338,-85.6427 384.0338,-85.6426"/>
</g>
<!-- Node7 -->
<g id="node8" class="node">
<title>Node7</title>
<polygon fill="#ffffff" stroke="#bfbfbf" points="354.5337,-.5 354.5337,-19.5 406.5337,-19.5 406.5337,-.5 354.5337,-.5"/>
<text text-anchor="middle" x="380.5337" y="-7.5" font-family="Helvetica,sans-Serif" font-size="10.00" fill="#000000">stdint.h</text>
</g>
<!-- Node6&#45;&gt;Node7 -->
<g id="edge9" class="edge">
<title>Node6&#45;&gt;Node7</title>
<path fill="none" stroke="#191970" d="M380.5337,-56.2455C380.5337,-48.9382 380.5337,-38.6944 380.5337,-29.7046"/>
<polygon fill="#191970" stroke="#191970" points="384.0338,-29.6426 380.5337,-19.6427 377.0338,-29.6427 384.0338,-29.6426"/>
</g>
</g>
</svg>
