<?xml version="1.0" encoding="UTF-8" standalone="no"?>
<!DOCTYPE svg PUBLIC "-//W3C//DTD SVG 1.1//EN"
 "http://www.w3.org/Graphics/SVG/1.1/DTD/svg11.dtd">
<!-- Generated by graphviz version 2.40.1 (0)
 -->
<!-- Title: sys/include/can/raw.h Pages: 1 -->
<svg width="1165pt" height="588pt"
 viewBox="0.00 0.00 1165.00 588.00" xmlns="http://www.w3.org/2000/svg" xmlns:xlink="http://www.w3.org/1999/xlink">
<g id="graph0" class="graph" transform="scale(1 1) rotate(0) translate(4 584)">
<title>sys/include/can/raw.h</title>
<polygon fill="#ffffff" stroke="transparent" points="-4,4 -4,-584 1161,-584 1161,4 -4,4"/>
<!-- Node0 -->
<g id="node1" class="node">
<title>Node0</title>
<polygon fill="#bfbfbf" stroke="#000000" points="938,-560.5 938,-579.5 1054,-579.5 1054,-560.5 938,-560.5"/>
<text text-anchor="middle" x="996" y="-567.5" font-family="Helvetica,sans-Serif" font-size="10.00" fill="#000000">sys/include/can/raw.h</text>
</g>
<!-- Node1 -->
<g id="node2" class="node">
<title>Node1</title>
<g id="a_node2"><a xlink:href="sched_8h.html" target="_top" xlink:title="Scheduler API definition. ">
<polygon fill="#ffffff" stroke="#000000" points="898.5,-224.5 898.5,-243.5 951.5,-243.5 951.5,-224.5 898.5,-224.5"/>
<text text-anchor="middle" x="925" y="-231.5" font-family="Helvetica,sans-Serif" font-size="10.00" fill="#000000">sched.h</text>
</a>
</g>
</g>
<!-- Node0&#45;&gt;Node1 -->
<g id="edge1" class="edge">
<title>Node0&#45;&gt;Node1</title>
<path fill="none" stroke="#191970" d="M1037.4615,-560.4141C1085.1647,-546.6372 1157,-516.2246 1157,-458 1157,-458 1157,-458 1157,-402 1157,-306.6481 1026.8502,-259.8856 961.5132,-242.4178"/>
<polygon fill="#191970" stroke="#191970" points="962.1707,-238.9729 951.6133,-239.8629 960.4215,-245.7508 962.1707,-238.9729"/>
</g>
<!-- Node15 -->
<g id="node16" class="node">
<title>Node15</title>
<g id="a_node16"><a xlink:href="sys_2include_2can_2can_8h.html" target="_top" xlink:title="Definitions high&#45;level CAN interface. ">
<polygon fill="#ffffff" stroke="#000000" points="998.5,-392.5 998.5,-411.5 1059.5,-411.5 1059.5,-392.5 998.5,-392.5"/>
<text text-anchor="middle" x="1029" y="-399.5" font-family="Helvetica,sans-Serif" font-size="10.00" fill="#000000">can/can.h</text>
</a>
</g>
</g>
<!-- Node0&#45;&gt;Node15 -->
<g id="edge20" class="edge">
<title>Node0&#45;&gt;Node15</title>
<path fill="none" stroke="#191970" d="M999.41,-560.2375C1002.5317,-550.999 1007.095,-536.6944 1010,-524 1018.1736,-488.283 1023.9027,-445.8726 1026.8078,-421.6303"/>
<polygon fill="#191970" stroke="#191970" points="1030.2982,-421.915 1027.9741,-411.5782 1023.3448,-421.1082 1030.2982,-421.915"/>
</g>
<!-- Node16 -->
<g id="node17" class="node">
<title>Node16</title>
<g id="a_node17"><a xlink:href="sys_2include_2can_2common_8h.html" target="_top" xlink:title="Definitions of high&#45;level CAN interface. ">
<polygon fill="#ffffff" stroke="#000000" points="106,-392.5 106,-411.5 192,-411.5 192,-392.5 106,-392.5"/>
<text text-anchor="middle" x="149" y="-399.5" font-family="Helvetica,sans-Serif" font-size="10.00" fill="#000000">can/common.h</text>
</a>
</g>
</g>
<!-- Node0&#45;&gt;Node16 -->
<g id="edge22" class="edge">
<title>Node0&#45;&gt;Node16</title>
<path fill="none" stroke="#191970" d="M937.9559,-560.5719C835.2234,-543.6553 614.7783,-506.3221 430,-468 347.7764,-450.9472 252.7969,-427.9403 196.9906,-414.0806"/>
<polygon fill="#191970" stroke="#191970" points="197.5876,-410.6225 187.0382,-411.6027 195.8963,-417.4151 197.5876,-410.6225"/>
</g>
<!-- Node23 -->
<g id="node24" class="node">
<title>Node23</title>
<g id="a_node24"><a xlink:href="sys_2include_2can_2device_8h.html" target="_top" xlink:title="Definitions of CAN device interface. ">
<polygon fill="#ffffff" stroke="#000000" points="925.5,-504.5 925.5,-523.5 1000.5,-523.5 1000.5,-504.5 925.5,-504.5"/>
<text text-anchor="middle" x="963" y="-511.5" font-family="Helvetica,sans-Serif" font-size="10.00" fill="#000000">can/device.h</text>
</a>
</g>
</g>
<!-- Node0&#45;&gt;Node23 -->
<g id="edge32" class="edge">
<title>Node0&#45;&gt;Node23</title>
<path fill="none" stroke="#191970" d="M990.2518,-560.2455C985.7565,-552.617 979.3752,-541.7881 973.9175,-532.5267"/>
<polygon fill="#191970" stroke="#191970" points="976.7747,-530.4811 968.6823,-523.6427 970.7439,-534.035 976.7747,-530.4811"/>
</g>
<!-- Node2 -->
<g id="node3" class="node">
<title>Node2</title>
<polygon fill="#ffffff" stroke="#bfbfbf" points="916,-56.5 916,-75.5 972,-75.5 972,-56.5 916,-56.5"/>
<text text-anchor="middle" x="944" y="-63.5" font-family="Helvetica,sans-Serif" font-size="10.00" fill="#000000">stddef.h</text>
</g>
<!-- Node1&#45;&gt;Node2 -->
<g id="edge2" class="edge">
<title>Node1&#45;&gt;Node2</title>
<path fill="none" stroke="#191970" d="M926.076,-224.4862C929.0794,-197.9293 937.6028,-122.5651 941.7194,-86.1655"/>
<polygon fill="#191970" stroke="#191970" points="945.2425,-86.1579 942.8885,-75.8279 938.2868,-85.3712 945.2425,-86.1579"/>
</g>
<!-- Node3 -->
<g id="node4" class="node">
<title>Node3</title>
<g id="a_node4"><a xlink:href="inttypes_8h.html" target="_top" xlink:title="Adds include for missing inttype definitions. ">
<polygon fill="#ffffff" stroke="#000000" points="220.5,-168.5 220.5,-187.5 283.5,-187.5 283.5,-168.5 220.5,-168.5"/>
<text text-anchor="middle" x="252" y="-175.5" font-family="Helvetica,sans-Serif" font-size="10.00" fill="#000000">inttypes.h</text>
</a>
</g>
</g>
<!-- Node1&#45;&gt;Node3 -->
<g id="edge3" class="edge">
<title>Node1&#45;&gt;Node3</title>
<path fill="none" stroke="#191970" d="M898.4043,-225.9393C895.256,-225.1855 892.071,-224.5132 889,-224 630.1491,-180.7414 556.5873,-227.1976 293.9932,-188.0576"/>
<polygon fill="#191970" stroke="#191970" points="294.181,-184.546 283.7689,-186.5049 293.13,-191.4667 294.181,-184.546"/>
</g>
<!-- Node4 -->
<g id="node5" class="node">
<title>Node4</title>
<g id="a_node5"><a xlink:href="kernel__defines_8h.html" target="_top" xlink:title="Common macros and compiler attributes/pragmas configuration. ">
<polygon fill="#ffffff" stroke="#000000" points="533.5,-168.5 533.5,-187.5 628.5,-187.5 628.5,-168.5 533.5,-168.5"/>
<text text-anchor="middle" x="581" y="-175.5" font-family="Helvetica,sans-Serif" font-size="10.00" fill="#000000">kernel_defines.h</text>
</a>
</g>
</g>
<!-- Node1&#45;&gt;Node4 -->
<g id="edge4" class="edge">
<title>Node1&#45;&gt;Node4</title>
<path fill="none" stroke="#191970" d="M898.3537,-226.2059C895.2145,-225.4043 892.0454,-224.6478 889,-224 802.4638,-205.5916 700.7096,-191.9215 638.5515,-184.4538"/>
<polygon fill="#191970" stroke="#191970" points="638.8914,-180.9697 628.5481,-183.2646 638.0649,-187.9207 638.8914,-180.9697"/>
</g>
<!-- Node11 -->
<g id="node12" class="node">
<title>Node11</title>
<g id="a_node12"><a xlink:href="native__sched_8h.html" target="_top" xlink:title="Add definitions required on the native board. ">
<polygon fill="#ffffff" stroke="#000000" points="811,-168.5 811,-187.5 897,-187.5 897,-168.5 811,-168.5"/>
<text text-anchor="middle" x="854" y="-175.5" font-family="Helvetica,sans-Serif" font-size="10.00" fill="#000000">native_sched.h</text>
</a>
</g>
</g>
<!-- Node1&#45;&gt;Node11 -->
<g id="edge15" class="edge">
<title>Node1&#45;&gt;Node11</title>
<path fill="none" stroke="#191970" d="M912.6327,-224.2455C902.0446,-215.8943 886.5936,-203.7076 874.2107,-193.9408"/>
<polygon fill="#191970" stroke="#191970" points="876.2447,-191.0875 866.2255,-187.6427 871.9097,-196.5837 876.2447,-191.0875"/>
</g>
<!-- Node12 -->
<g id="node13" class="node">
<title>Node12</title>
<g id="a_node13"><a xlink:href="clist_8h.html" target="_top" xlink:title="Circular linked list. ">
<polygon fill="#ffffff" stroke="#000000" points="953.5,-168.5 953.5,-187.5 996.5,-187.5 996.5,-168.5 953.5,-168.5"/>
<text text-anchor="middle" x="975" y="-175.5" font-family="Helvetica,sans-Serif" font-size="10.00" fill="#000000">clist.h</text>
</a>
</g>
</g>
<!-- Node1&#45;&gt;Node12 -->
<g id="edge16" class="edge">
<title>Node1&#45;&gt;Node12</title>
<path fill="none" stroke="#191970" d="M933.7093,-224.2455C940.8073,-216.2958 951.0084,-204.8706 959.495,-195.3656"/>
<polygon fill="#191970" stroke="#191970" points="962.3411,-197.4331 966.3905,-187.6427 957.1195,-192.771 962.3411,-197.4331"/>
</g>
<!-- Node5 -->
<g id="node6" class="node">
<title>Node5</title>
<g id="a_node6"><a xlink:href="modules_8h.html" target="_top" xlink:title="Common macros and compiler attributes/pragmas configuration. ">
<polygon fill="#ffffff" stroke="#000000" points="563.5,-112.5 563.5,-131.5 628.5,-131.5 628.5,-112.5 563.5,-112.5"/>
<text text-anchor="middle" x="596" y="-119.5" font-family="Helvetica,sans-Serif" font-size="10.00" fill="#000000">modules.h</text>
</a>
</g>
</g>
<!-- Node4&#45;&gt;Node5 -->
<g id="edge5" class="edge">
<title>Node4&#45;&gt;Node5</title>
<path fill="none" stroke="#191970" d="M583.6128,-168.2455C585.5916,-160.8579 588.3744,-150.4689 590.8012,-141.4087"/>
<polygon fill="#191970" stroke="#191970" points="594.2105,-142.2078 593.4171,-131.6427 587.4489,-140.3966 594.2105,-142.2078"/>
</g>
<!-- Node6 -->
<g id="node7" class="node">
<title>Node6</title>
<g id="a_node7"><a xlink:href="riot__version_8h.html" target="_top" xlink:title="Common macros and compiler attributes/pragmas configuration. ">
<polygon fill="#ffffff" stroke="#000000" points="414.5,-56.5 414.5,-75.5 495.5,-75.5 495.5,-56.5 414.5,-56.5"/>
<text text-anchor="middle" x="455" y="-63.5" font-family="Helvetica,sans-Serif" font-size="10.00" fill="#000000">riot_version.h</text>
</a>
</g>
</g>
<!-- Node4&#45;&gt;Node6 -->
<g id="edge6" class="edge">
<title>Node4&#45;&gt;Node6</title>
<path fill="none" stroke="#191970" d="M533.8747,-168.4416C498.3433,-160.1663 453.9272,-147.1606 443,-132 433.1367,-118.3153 438.2761,-98.9879 444.5988,-84.7838"/>
<polygon fill="#191970" stroke="#191970" points="447.8963,-86.013 449.2142,-75.5004 441.6283,-82.8966 447.8963,-86.013"/>
</g>
<!-- Node8 -->
<g id="node9" class="node">
<title>Node8</title>
<g id="a_node9"><a xlink:href="compiler__hints_8h.html" target="_top" xlink:title="Common macros and compiler attributes/pragmas configuration. ">
<polygon fill="#ffffff" stroke="#000000" points="452.5,-112.5 452.5,-131.5 545.5,-131.5 545.5,-112.5 452.5,-112.5"/>
<text text-anchor="middle" x="499" y="-119.5" font-family="Helvetica,sans-Serif" font-size="10.00" fill="#000000">compiler_hints.h</text>
</a>
</g>
</g>
<!-- Node4&#45;&gt;Node8 -->
<g id="edge8" class="edge">
<title>Node4&#45;&gt;Node8</title>
<path fill="none" stroke="#191970" d="M566.7167,-168.2455C554.253,-159.7337 535.9549,-147.2375 521.5208,-137.3801"/>
<polygon fill="#191970" stroke="#191970" points="523.3515,-134.392 513.1196,-131.6427 519.4038,-140.1726 523.3515,-134.392"/>
</g>
<!-- Node10 -->
<g id="node11" class="node">
<title>Node10</title>
<g id="a_node11"><a xlink:href="container_8h.html" target="_top" xlink:title="Common macros and compiler attributes/pragmas configuration. ">
<polygon fill="#ffffff" stroke="#000000" points="685.5,-112.5 685.5,-131.5 754.5,-131.5 754.5,-112.5 685.5,-112.5"/>
<text text-anchor="middle" x="720" y="-119.5" font-family="Helvetica,sans-Serif" font-size="10.00" fill="#000000">container.h</text>
</a>
</g>
</g>
<!-- Node4&#45;&gt;Node10 -->
<g id="edge12" class="edge">
<title>Node4&#45;&gt;Node10</title>
<path fill="none" stroke="#191970" d="M604.895,-168.3733C627.5082,-159.2629 661.6542,-145.5062 686.8873,-135.3404"/>
<polygon fill="#191970" stroke="#191970" points="688.4493,-138.4845 696.4169,-131.5011 685.8334,-131.9917 688.4493,-138.4845"/>
</g>
<!-- Node7 -->
<g id="node8" class="node">
<title>Node7</title>
<polygon fill="#ffffff" stroke="#bfbfbf" points="429,-.5 429,-19.5 481,-19.5 481,-.5 429,-.5"/>
<text text-anchor="middle" x="455" y="-7.5" font-family="Helvetica,sans-Serif" font-size="10.00" fill="#000000">stdint.h</text>
</g>
<!-- Node6&#45;&gt;Node7 -->
<g id="edge7" class="edge">
<title>Node6&#45;&gt;Node7</title>
<path fill="none" stroke="#191970" d="M455,-56.2455C455,-48.9382 455,-38.6944 455,-29.7046"/>
<polygon fill="#191970" stroke="#191970" points="458.5001,-29.6426 455,-19.6427 451.5001,-29.6427 458.5001,-29.6426"/>
</g>
<!-- Node8&#45;&gt;Node7 -->
<g id="edge11" class="edge">
<title>Node8&#45;&gt;Node7</title>
<path fill="none" stroke="#191970" d="M502.5132,-112.13C506.6577,-98.7956 512.0335,-74.5605 504,-56 498.7663,-43.9081 488.6158,-33.5335 478.9045,-25.7139"/>
<polygon fill="#191970" stroke="#191970" points="480.7234,-22.7038 470.618,-19.5209 476.5329,-28.3109 480.7234,-22.7038"/>
</g>
<!-- Node9 -->
<g id="node10" class="node">
<title>Node9</title>
<g id="a_node10"><a xlink:href="assert_8h.html" target="_top" xlink:title="POSIX.1&#45;2008 compliant version of the assert macro. ">
<polygon fill="#ffffff" stroke="#000000" points="552,-56.5 552,-75.5 606,-75.5 606,-56.5 552,-56.5"/>
<text text-anchor="middle" x="579" y="-63.5" font-family="Helvetica,sans-Serif" font-size="10.00" fill="#000000">assert.h</text>
</a>
</g>
</g>
<!-- Node8&#45;&gt;Node9 -->
<g id="edge9" class="edge">
<title>Node8&#45;&gt;Node9</title>
<path fill="none" stroke="#191970" d="M512.9349,-112.2455C525.0947,-103.7337 542.9464,-91.2375 557.0285,-81.3801"/>
<polygon fill="#191970" stroke="#191970" points="559.0395,-84.2447 565.2248,-75.6427 555.0253,-78.51 559.0395,-84.2447"/>
</g>
<!-- Node9&#45;&gt;Node7 -->
<g id="edge10" class="edge">
<title>Node9&#45;&gt;Node7</title>
<path fill="none" stroke="#191970" d="M557.6836,-56.3733C537.7784,-47.3838 507.8564,-33.8706 485.44,-23.7471"/>
<polygon fill="#191970" stroke="#191970" points="486.5925,-20.4272 476.0382,-19.5011 483.7113,-26.8068 486.5925,-20.4272"/>
</g>
<!-- Node10&#45;&gt;Node2 -->
<g id="edge13" class="edge">
<title>Node10&#45;&gt;Node2</title>
<path fill="none" stroke="#191970" d="M754.5091,-113.3727C795.4372,-103.1407 863.4445,-86.1389 905.8887,-75.5278"/>
<polygon fill="#191970" stroke="#191970" points="906.9842,-78.8618 915.8367,-73.0408 905.2864,-72.0708 906.9842,-78.8618"/>
</g>
<!-- Node10&#45;&gt;Node7 -->
<g id="edge14" class="edge">
<title>Node10&#45;&gt;Node7</title>
<path fill="none" stroke="#191970" d="M707.4044,-112.4217C688.3339,-98.3157 650.5757,-71.9109 615,-56 574.2886,-37.7922 524.527,-24.822 491.4151,-17.3904"/>
<polygon fill="#191970" stroke="#191970" points="491.7992,-13.8916 481.2821,-15.1725 490.3025,-20.7298 491.7992,-13.8916"/>
</g>
<!-- Node12&#45;&gt;Node2 -->
<g id="edge18" class="edge">
<title>Node12&#45;&gt;Node2</title>
<path fill="none" stroke="#191970" d="M972.357,-168.4509C967.278,-150.1013 956.0653,-109.5908 949.3612,-85.3693"/>
<polygon fill="#191970" stroke="#191970" points="952.6772,-84.2289 946.6364,-75.5249 945.9308,-86.0962 952.6772,-84.2289"/>
</g>
<!-- Node13 -->
<g id="node14" class="node">
<title>Node13</title>
<polygon fill="#ffffff" stroke="#bfbfbf" points="991,-112.5 991,-131.5 1051,-131.5 1051,-112.5 991,-112.5"/>
<text text-anchor="middle" x="1021" y="-119.5" font-family="Helvetica,sans-Serif" font-size="10.00" fill="#000000">stdbool.h</text>
</g>
<!-- Node12&#45;&gt;Node13 -->
<g id="edge17" class="edge">
<title>Node12&#45;&gt;Node13</title>
<path fill="none" stroke="#191970" d="M983.0126,-168.2455C989.4768,-160.3761 998.7385,-149.101 1006.4983,-139.6542"/>
<polygon fill="#191970" stroke="#191970" points="1009.4364,-141.5916 1013.0792,-131.6427 1004.0273,-137.1484 1009.4364,-141.5916"/>
</g>
<!-- Node14 -->
<g id="node15" class="node">
<title>Node14</title>
<g id="a_node15"><a xlink:href="list_8h.html" target="_top" xlink:title="Intrusive linked list. ">
<polygon fill="#ffffff" stroke="#000000" points="834,-112.5 834,-131.5 872,-131.5 872,-112.5 834,-112.5"/>
<text text-anchor="middle" x="853" y="-119.5" font-family="Helvetica,sans-Serif" font-size="10.00" fill="#000000">list.h</text>
</a>
</g>
</g>
<!-- Node12&#45;&gt;Node14 -->
<g id="edge19" class="edge">
<title>Node12&#45;&gt;Node14</title>
<path fill="none" stroke="#191970" d="M954.0275,-168.3733C933.9685,-159.1659 903.5707,-145.2128 881.3583,-135.0169"/>
<polygon fill="#191970" stroke="#191970" points="882.6434,-131.7557 872.095,-130.7649 879.7232,-138.1175 882.6434,-131.7557"/>
</g>
<!-- Node15&#45;&gt;Node7 -->
<g id="edge21" class="edge">
<title>Node15&#45;&gt;Node7</title>
<path fill="none" stroke="#191970" d="M1043.9337,-392.4455C1077.6987,-369.542 1157,-307.8855 1157,-234 1157,-234 1157,-234 1157,-122 1157,-38.4586 1062.4727,-74.4758 981,-56 887.3184,-34.7556 594.4802,-17.4649 491.3674,-11.8932"/>
<polygon fill="#191970" stroke="#191970" points="491.3231,-8.3859 481.1502,-11.346 490.9486,-15.3759 491.3231,-8.3859"/>
</g>
<!-- Node16&#45;&gt;Node7 -->
<g id="edge23" class="edge">
<title>Node16&#45;&gt;Node7</title>
<path fill="none" stroke="#191970" d="M145.7152,-392.2847C137.3682,-366.7022 116,-295.2315 116,-234 116,-234 116,-234 116,-122 116,-90.7875 115.7991,-75.7114 140,-56 182.0687,-21.7353 344.9022,-12.9714 418.5086,-10.7476"/>
<polygon fill="#191970" stroke="#191970" points="418.7972,-14.241 428.6961,-10.4647 418.6028,-7.2437 418.7972,-14.241"/>
</g>
<!-- Node17 -->
<g id="node18" class="node">
<title>Node17</title>
<g id="a_node18"><a xlink:href="uio_8h.html" target="_top" xlink:title="libc header for scatter/gather I/O ">
<polygon fill="#ffffff" stroke="#000000" points="150,-336.5 150,-355.5 208,-355.5 208,-336.5 150,-336.5"/>
<text text-anchor="middle" x="179" y="-343.5" font-family="Helvetica,sans-Serif" font-size="10.00" fill="#000000">sys/uio.h</text>
</a>
</g>
</g>
<!-- Node16&#45;&gt;Node17 -->
<g id="edge24" class="edge">
<title>Node16&#45;&gt;Node17</title>
<path fill="none" stroke="#191970" d="M154.2256,-392.2455C158.3123,-384.617 164.1135,-373.7881 169.075,-364.5267"/>
<polygon fill="#191970" stroke="#191970" points="172.1972,-366.1103 173.8343,-355.6427 166.0268,-362.8047 172.1972,-366.1103"/>
</g>
<!-- Node20 -->
<g id="node21" class="node">
<title>Node20</title>
<g id="a_node21"><a xlink:href="timex_8h.html" target="_top" xlink:title="Utility library for comparing and computing timestamps. ">
<polygon fill="#ffffff" stroke="#000000" points="0,-224.5 0,-243.5 52,-243.5 52,-224.5 0,-224.5"/>
<text text-anchor="middle" x="26" y="-231.5" font-family="Helvetica,sans-Serif" font-size="10.00" fill="#000000">timex.h</text>
</a>
</g>
</g>
<!-- Node16&#45;&gt;Node20 -->
<g id="edge27" class="edge">
<title>Node16&#45;&gt;Node20</title>
<path fill="none" stroke="#191970" d="M108.5282,-392.4445C75.9596,-383.8392 34.0216,-370.3666 24,-356 2.6849,-325.4435 11.6012,-279.2902 19.2707,-253.3926"/>
<polygon fill="#191970" stroke="#191970" points="22.6777,-254.2293 22.3895,-243.6384 16.0102,-252.0974 22.6777,-254.2293"/>
</g>
<!-- Node22 -->
<g id="node23" class="node">
<title>Node22</title>
<polygon fill="#ffffff" stroke="#bfbfbf" points="33.5,-336.5 33.5,-355.5 90.5,-355.5 90.5,-336.5 33.5,-336.5"/>
<text text-anchor="middle" x="62" y="-343.5" font-family="Helvetica,sans-Serif" font-size="10.00" fill="#000000">thread.h</text>
</g>
<!-- Node16&#45;&gt;Node22 -->
<g id="edge31" class="edge">
<title>Node16&#45;&gt;Node22</title>
<path fill="none" stroke="#191970" d="M133.8458,-392.2455C120.4973,-383.6534 100.8414,-371.0014 85.4617,-361.1018"/>
<polygon fill="#191970" stroke="#191970" points="87.2836,-358.1121 76.9806,-355.6427 83.4949,-363.9982 87.2836,-358.1121"/>
</g>
<!-- Node18 -->
<g id="node19" class="node">
<title>Node18</title>
<polygon fill="#ffffff" stroke="#bfbfbf" points="232,-280.5 232,-299.5 282,-299.5 282,-280.5 232,-280.5"/>
<text text-anchor="middle" x="257" y="-287.5" font-family="Helvetica,sans-Serif" font-size="10.00" fill="#000000">stdlib.h</text>
</g>
<!-- Node17&#45;&gt;Node18 -->
<g id="edge25" class="edge">
<title>Node17&#45;&gt;Node18</title>
<path fill="none" stroke="#191970" d="M192.5866,-336.2455C204.3305,-327.814 221.5199,-315.4729 235.1882,-305.6598"/>
<polygon fill="#191970" stroke="#191970" points="237.4871,-308.3179 243.5691,-299.6427 233.4046,-302.6316 237.4871,-308.3179"/>
</g>
<!-- Node19 -->
<g id="node20" class="node">
<title>Node19</title>
<polygon fill="#ffffff" stroke="#bfbfbf" points="144.5,-280.5 144.5,-299.5 213.5,-299.5 213.5,-280.5 144.5,-280.5"/>
<text text-anchor="middle" x="179" y="-287.5" font-family="Helvetica,sans-Serif" font-size="10.00" fill="#000000">sys/types.h</text>
</g>
<!-- Node17&#45;&gt;Node19 -->
<g id="edge26" class="edge">
<title>Node17&#45;&gt;Node19</title>
<path fill="none" stroke="#191970" d="M179,-336.2455C179,-328.9382 179,-318.6944 179,-309.7046"/>
<polygon fill="#191970" stroke="#191970" points="182.5001,-309.6426 179,-299.6427 175.5001,-309.6427 182.5001,-309.6426"/>
</g>
<!-- Node20&#45;&gt;Node3 -->
<g id="edge29" class="edge">
<title>Node20&#45;&gt;Node3</title>
<path fill="none" stroke="#191970" d="M52.3674,-227.4665C91.2295,-217.8369 164.2564,-199.7418 210.3922,-188.3099"/>
<polygon fill="#191970" stroke="#191970" points="211.5075,-191.6395 220.3721,-185.837 209.8239,-184.8449 211.5075,-191.6395"/>
</g>
<!-- Node20&#45;&gt;Node7 -->
<g id="edge28" class="edge">
<title>Node20&#45;&gt;Node7</title>
<path fill="none" stroke="#191970" d="M18.6667,-224.0574C10.019,-211.0493 -2.3092,-187.6041 5,-168 28.005,-106.2978 44.0002,-87.1837 102,-56 156.1983,-26.8602 339.6704,-15.2206 418.5067,-11.4874"/>
<polygon fill="#191970" stroke="#191970" points="419.0822,-14.9649 428.9121,-11.0121 418.7627,-7.9722 419.0822,-14.9649"/>
</g>
<!-- Node21 -->
<g id="node22" class="node">
<title>Node21</title>
<g id="a_node22"><a xlink:href="time__units_8h.html" target="_top" xlink:title="Utility header providing time unit defines. ">
<polygon fill="#ffffff" stroke="#000000" points="14,-168.5 14,-187.5 88,-187.5 88,-168.5 14,-168.5"/>
<text text-anchor="middle" x="51" y="-175.5" font-family="Helvetica,sans-Serif" font-size="10.00" fill="#000000">time_units.h</text>
</a>
</g>
</g>
<!-- Node20&#45;&gt;Node21 -->
<g id="edge30" class="edge">
<title>Node20&#45;&gt;Node21</title>
<path fill="none" stroke="#191970" d="M30.3547,-224.2455C33.7244,-216.6973 38.493,-206.0158 42.5983,-196.8197"/>
<polygon fill="#191970" stroke="#191970" points="45.8147,-198.2009 46.6952,-187.6427 39.4227,-195.3473 45.8147,-198.2009"/>
</g>
<!-- Node23&#45;&gt;Node1 -->
<g id="edge62" class="edge">
<title>Node23&#45;&gt;Node1</title>
<path fill="none" stroke="#191970" d="M963.5731,-504.4157C964.6791,-485.0653 967,-439.9408 967,-402 967,-402 967,-402 967,-346 967,-311.2434 949.0481,-274.0613 936.6174,-252.4811"/>
<polygon fill="#191970" stroke="#191970" points="939.5177,-250.5116 931.3789,-243.7285 933.5113,-254.1065 939.5177,-250.5116"/>
</g>
<!-- Node24 -->
<g id="node25" class="node">
<title>Node24</title>
<g id="a_node25"><a xlink:href="candev_8h.html" target="_top" xlink:title="Definitions for low&#45;level CAN driver interface. ">
<polygon fill="#ffffff" stroke="#000000" points="439.5,-448.5 439.5,-467.5 516.5,-467.5 516.5,-448.5 439.5,-448.5"/>
<text text-anchor="middle" x="478" y="-455.5" font-family="Helvetica,sans-Serif" font-size="10.00" fill="#000000">can/candev.h</text>
</a>
</g>
</g>
<!-- Node23&#45;&gt;Node24 -->
<g id="edge33" class="edge">
<title>Node23&#45;&gt;Node24</title>
<path fill="none" stroke="#191970" d="M925.3464,-509.6524C838.3769,-499.6105 623.5866,-474.81 526.7412,-463.6278"/>
<polygon fill="#191970" stroke="#191970" points="526.972,-460.1313 516.6365,-462.4611 526.169,-467.0851 526.972,-460.1313"/>
</g>
<!-- Node24&#45;&gt;Node7 -->
<g id="edge34" class="edge">
<title>Node24&#45;&gt;Node7</title>
<path fill="none" stroke="#191970" d="M467.8568,-448.4634C419.0375,-402.5116 210.3133,-205.4293 203,-188 161.4475,-88.9707 339.5581,-35.8757 418.7415,-17.508"/>
<polygon fill="#191970" stroke="#191970" points="419.7956,-20.8582 428.78,-15.243 418.2548,-14.0299 419.7956,-20.8582"/>
</g>
<!-- Node24&#45;&gt;Node15 -->
<g id="edge36" class="edge">
<title>Node24&#45;&gt;Node15</title>
<path fill="none" stroke="#191970" d="M516.7453,-454.0622C617.278,-443.8447 885.7755,-416.5564 988.3716,-406.1292"/>
<polygon fill="#191970" stroke="#191970" points="988.7467,-409.6092 998.3416,-405.1159 988.0389,-402.6451 988.7467,-409.6092"/>
</g>
<!-- Node24&#45;&gt;Node16 -->
<g id="edge37" class="edge">
<title>Node24&#45;&gt;Node16</title>
<path fill="none" stroke="#191970" d="M439.2921,-451.4114C380.6027,-441.4217 268.9249,-422.4127 202.5028,-411.1069"/>
<polygon fill="#191970" stroke="#191970" points="202.6917,-407.5887 192.2461,-409.361 201.517,-414.4895 202.6917,-407.5887"/>
</g>
<!-- Node24&#45;&gt;Node18 -->
<g id="edge35" class="edge">
<title>Node24&#45;&gt;Node18</title>
<path fill="none" stroke="#191970" d="M439.4889,-452.7181C392.4353,-445.5275 316.5409,-431.3083 296,-412 267.2209,-384.9479 259.6029,-336.702 257.6358,-309.6965"/>
<polygon fill="#191970" stroke="#191970" points="261.1221,-309.3458 257.0935,-299.5468 254.1321,-309.7193 261.1221,-309.3458"/>
</g>
<!-- Node25 -->
<g id="node26" class="node">
<title>Node25</title>
<g id="a_node26"><a xlink:href="mutex_8h.html" target="_top" xlink:title="Mutex for thread synchronization. ">
<polygon fill="#ffffff" stroke="#000000" points="534,-392.5 534,-411.5 590,-411.5 590,-392.5 534,-392.5"/>
<text text-anchor="middle" x="562" y="-399.5" font-family="Helvetica,sans-Serif" font-size="10.00" fill="#000000">mutex.h</text>
</a>
</g>
</g>
<!-- Node24&#45;&gt;Node25 -->
<g id="edge38" class="edge">
<title>Node24&#45;&gt;Node25</title>
<path fill="none" stroke="#191970" d="M492.6317,-448.2455C505.3994,-439.7337 524.1438,-427.2375 538.9299,-417.3801"/>
<polygon fill="#191970" stroke="#191970" points="541.1569,-420.1019 547.536,-411.6427 537.274,-414.2775 541.1569,-420.1019"/>
</g>
<!-- Node25&#45;&gt;Node2 -->
<g id="edge39" class="edge">
<title>Node25&#45;&gt;Node2</title>
<path fill="none" stroke="#191970" d="M590.0451,-401.0271C673.93,-397.8055 921.6767,-385.937 996,-356 1040.3652,-338.13 1081,-337.8289 1081,-290 1081,-290 1081,-290 1081,-178 1081,-147.2176 1080.9973,-134.5093 1060,-112 1039.6083,-90.1399 1007.497,-78.481 982.2248,-72.3772"/>
<polygon fill="#191970" stroke="#191970" points="982.7375,-68.9059 972.217,-70.1585 981.2224,-75.74 982.7375,-68.9059"/>
</g>
<!-- Node25&#45;&gt;Node4 -->
<g id="edge47" class="edge">
<title>Node25&#45;&gt;Node4</title>
<path fill="none" stroke="#191970" d="M562.0812,-392.4887C562.3246,-371.9252 563.2827,-321.8078 567,-280 569.5645,-251.1573 574.4897,-217.9726 577.7608,-197.4913"/>
<polygon fill="#191970" stroke="#191970" points="581.2304,-197.9604 579.3824,-187.528 574.3213,-196.8358 581.2304,-197.9604"/>
</g>
<!-- Node25&#45;&gt;Node7 -->
<g id="edge40" class="edge">
<title>Node25&#45;&gt;Node7</title>
<path fill="none" stroke="#191970" d="M553.0938,-392.3544C537.0625,-373.945 505,-331.8901 505,-290 505,-290 505,-290 505,-234 505,-203.4754 503.8048,-192.794 486,-168 469.6042,-145.168 452.5673,-153.104 434,-132 415.4862,-110.9567 411.6328,-103.2321 405,-76 402.8965,-67.3636 401.4281,-64.1397 405,-56 410.3323,-43.8487 420.6339,-33.4938 430.5076,-25.7031"/>
<polygon fill="#191970" stroke="#191970" points="432.59,-28.5162 438.5823,-19.7788 428.4491,-22.8723 432.59,-28.5162"/>
</g>
<!-- Node25&#45;&gt;Node13 -->
<g id="edge41" class="edge">
<title>Node25&#45;&gt;Node13</title>
<path fill="none" stroke="#191970" d="M590.293,-401.5156C693.3982,-398.9984 1043,-383.5647 1043,-290 1043,-290 1043,-290 1043,-234 1043,-201.1132 1033.754,-163.7958 1027.2501,-141.6138"/>
<polygon fill="#191970" stroke="#191970" points="1030.5104,-140.3059 1024.2462,-131.7614 1023.8147,-142.3474 1030.5104,-140.3059"/>
</g>
<!-- Node25&#45;&gt;Node14 -->
<g id="edge48" class="edge">
<title>Node25&#45;&gt;Node14</title>
<path fill="none" stroke="#191970" d="M562.6089,-392.1436C564.9273,-362.7853 575.5999,-274.8113 622,-224 677.3583,-163.3787 775.33,-136.8674 823.9526,-127.0009"/>
<polygon fill="#191970" stroke="#191970" points="824.6694,-130.4272 833.8223,-125.0909 823.3394,-123.5547 824.6694,-130.4272"/>
</g>
<!-- Node26 -->
<g id="node27" class="node">
<title>Node26</title>
<g id="a_node27"><a xlink:href="architecture_8h.html" target="_top" xlink:title="Platform&#45;independent access to architecture details. ">
<polygon fill="#ffffff" stroke="#000000" points="313.5,-224.5 313.5,-243.5 396.5,-243.5 396.5,-224.5 313.5,-224.5"/>
<text text-anchor="middle" x="355" y="-231.5" font-family="Helvetica,sans-Serif" font-size="10.00" fill="#000000">architecture.h</text>
</a>
</g>
</g>
<!-- Node25&#45;&gt;Node26 -->
<g id="edge42" class="edge">
<title>Node25&#45;&gt;Node26</title>
<path fill="none" stroke="#191970" d="M545.7234,-392.4567C531.0088,-383.5979 508.9645,-369.743 491,-356 445.7625,-321.3929 397.0742,-275.3101 372.0332,-250.8773"/>
<polygon fill="#191970" stroke="#191970" points="374.3569,-248.2539 364.7683,-243.7473 369.4538,-253.2498 374.3569,-248.2539"/>
</g>
<!-- Node29 -->
<g id="node30" class="node">
<title>Node29</title>
<g id="a_node30"><a xlink:href="core_2include_2thread_8h.html" target="_top" xlink:title="Threading API. ">
<polygon fill="#ffffff" stroke="#000000" points="723.5,-336.5 723.5,-355.5 780.5,-355.5 780.5,-336.5 723.5,-336.5"/>
<text text-anchor="middle" x="752" y="-343.5" font-family="Helvetica,sans-Serif" font-size="10.00" fill="#000000">thread.h</text>
</a>
</g>
</g>
<!-- Node25&#45;&gt;Node29 -->
<g id="edge49" class="edge">
<title>Node25&#45;&gt;Node29</title>
<path fill="none" stroke="#191970" d="M590.0352,-393.737C622.682,-384.1148 676.796,-368.1654 713.3996,-357.377"/>
<polygon fill="#191970" stroke="#191970" points="714.6244,-360.6649 723.227,-354.4805 712.6454,-353.9505 714.6244,-360.6649"/>
</g>
<!-- Node26&#45;&gt;Node3 -->
<g id="edge44" class="edge">
<title>Node26&#45;&gt;Node3</title>
<path fill="none" stroke="#191970" d="M337.0588,-224.2455C320.96,-215.4928 297.1121,-202.527 278.7609,-192.5496"/>
<polygon fill="#191970" stroke="#191970" points="280.1929,-189.3444 269.7356,-187.6427 276.8493,-195.4942 280.1929,-189.3444"/>
</g>
<!-- Node26&#45;&gt;Node7 -->
<g id="edge43" class="edge">
<title>Node26&#45;&gt;Node7</title>
<path fill="none" stroke="#191970" d="M313.3207,-231.0773C263.328,-225.6598 188.8397,-210.4108 211,-168 254.2136,-85.297 362.2891,-39.638 418.9895,-20.6549"/>
<polygon fill="#191970" stroke="#191970" points="420.1948,-23.9434 428.6218,-17.5219 418.0296,-17.2867 420.1948,-23.9434"/>
</g>
<!-- Node27 -->
<g id="node28" class="node">
<title>Node27</title>
<polygon fill="#ffffff" stroke="#bfbfbf" points="427,-168.5 427,-187.5 477,-187.5 477,-168.5 427,-168.5"/>
<text text-anchor="middle" x="452" y="-175.5" font-family="Helvetica,sans-Serif" font-size="10.00" fill="#000000">limits.h</text>
</g>
<!-- Node26&#45;&gt;Node27 -->
<g id="edge45" class="edge">
<title>Node26&#45;&gt;Node27</title>
<path fill="none" stroke="#191970" d="M371.8961,-224.2455C386.918,-215.5731 409.1043,-202.7645 426.321,-192.825"/>
<polygon fill="#191970" stroke="#191970" points="428.3871,-195.6737 435.2975,-187.6427 424.8872,-189.6114 428.3871,-195.6737"/>
</g>
<!-- Node28 -->
<g id="node29" class="node">
<title>Node28</title>
<polygon fill="#ffffff" stroke="#bfbfbf" points="301.5,-168.5 301.5,-187.5 408.5,-187.5 408.5,-168.5 301.5,-168.5"/>
<text text-anchor="middle" x="355" y="-175.5" font-family="Helvetica,sans-Serif" font-size="10.00" fill="#000000">architecture_arch.h</text>
</g>
<!-- Node26&#45;&gt;Node28 -->
<g id="edge46" class="edge">
<title>Node26&#45;&gt;Node28</title>
<path fill="none" stroke="#191970" d="M355,-224.2455C355,-216.9382 355,-206.6944 355,-197.7046"/>
<polygon fill="#191970" stroke="#191970" points="358.5001,-197.6426 355,-187.6427 351.5001,-197.6427 358.5001,-197.6426"/>
</g>
<!-- Node29&#45;&gt;Node1 -->
<g id="edge57" class="edge">
<title>Node29&#45;&gt;Node1</title>
<path fill="none" stroke="#191970" d="M780.509,-341.2545C821.0251,-333.9391 892.3215,-318.7692 910,-300 921.5562,-287.7308 924.8716,-268.4905 925.5529,-253.9428"/>
<polygon fill="#191970" stroke="#191970" points="929.0528,-253.9606 925.6533,-243.926 922.0531,-253.8903 929.0528,-253.9606"/>
</g>
<!-- Node29&#45;&gt;Node12 -->
<g id="edge50" class="edge">
<title>Node29&#45;&gt;Node12</title>
<path fill="none" stroke="#191970" d="M780.8112,-341.3979C824.9866,-333.8785 906.7852,-317.982 930,-300 962,-275.2131 971.2496,-225.3019 973.9197,-197.6182"/>
<polygon fill="#191970" stroke="#191970" points="977.4156,-197.8038 974.6909,-187.5653 970.4361,-197.2683 977.4156,-197.8038"/>
</g>
<!-- Node30 -->
<g id="node31" class="node">
<title>Node30</title>
<g id="a_node31"><a xlink:href="cib_8h.html" target="_top" xlink:title="Circular integer buffer interface. ">
<polygon fill="#ffffff" stroke="#000000" points="631,-224.5 631,-243.5 669,-243.5 669,-224.5 631,-224.5"/>
<text text-anchor="middle" x="650" y="-231.5" font-family="Helvetica,sans-Serif" font-size="10.00" fill="#000000">cib.h</text>
</a>
</g>
</g>
<!-- Node29&#45;&gt;Node30 -->
<g id="edge51" class="edge">
<title>Node29&#45;&gt;Node30</title>
<path fill="none" stroke="#191970" d="M723.4779,-343.3073C696.3611,-339.0609 656.9819,-328.1284 638,-300 628.6688,-286.1726 633.536,-267.157 639.6345,-253.0875"/>
<polygon fill="#191970" stroke="#191970" points="642.8941,-254.387 644.1073,-243.8619 636.5953,-251.3332 642.8941,-254.387"/>
</g>
<!-- Node31 -->
<g id="node32" class="node">
<title>Node31</title>
<g id="a_node32"><a xlink:href="core_2include_2msg_8h.html" target="_top" xlink:title="Messaging API for inter process communication. ">
<polygon fill="#ffffff" stroke="#000000" points="647.5,-280.5 647.5,-299.5 692.5,-299.5 692.5,-280.5 647.5,-280.5"/>
<text text-anchor="middle" x="670" y="-287.5" font-family="Helvetica,sans-Serif" font-size="10.00" fill="#000000">msg.h</text>
</a>
</g>
</g>
<!-- Node29&#45;&gt;Node31 -->
<g id="edge53" class="edge">
<title>Node29&#45;&gt;Node31</title>
<path fill="none" stroke="#191970" d="M737.7167,-336.2455C725.253,-327.7337 706.9549,-315.2375 692.5208,-305.3801"/>
<polygon fill="#191970" stroke="#191970" points="694.3515,-302.392 684.1196,-299.6427 690.4038,-308.1726 694.3515,-302.392"/>
</g>
<!-- Node32 -->
<g id="node33" class="node">
<title>Node32</title>
<g id="a_node33"><a xlink:href="thread__config_8h.html" target="_top" xlink:title="Thread configuration defines. ">
<polygon fill="#ffffff" stroke="#000000" points="811,-280.5 811,-299.5 901,-299.5 901,-280.5 811,-280.5"/>
<text text-anchor="middle" x="856" y="-287.5" font-family="Helvetica,sans-Serif" font-size="10.00" fill="#000000">thread_config.h</text>
</a>
</g>
</g>
<!-- Node29&#45;&gt;Node32 -->
<g id="edge58" class="edge">
<title>Node29&#45;&gt;Node32</title>
<path fill="none" stroke="#191970" d="M770.1154,-336.2455C786.445,-327.4527 810.671,-314.4079 829.2339,-304.4125"/>
<polygon fill="#191970" stroke="#191970" points="830.9468,-307.4654 838.0922,-299.6427 827.6281,-301.3021 830.9468,-307.4654"/>
</g>
<!-- Node34 -->
<g id="node35" class="node">
<title>Node34</title>
<polygon fill="#ffffff" stroke="#bfbfbf" points="711,-280.5 711,-299.5 793,-299.5 793,-280.5 711,-280.5"/>
<text text-anchor="middle" x="752" y="-287.5" font-family="Helvetica,sans-Serif" font-size="10.00" fill="#000000">thread_arch.h</text>
</g>
<!-- Node29&#45;&gt;Node34 -->
<g id="edge61" class="edge">
<title>Node29&#45;&gt;Node34</title>
<path fill="none" stroke="#191970" d="M752,-336.2455C752,-328.9382 752,-318.6944 752,-309.7046"/>
<polygon fill="#191970" stroke="#191970" points="755.5001,-309.6426 752,-299.6427 748.5001,-309.6427 755.5001,-309.6426"/>
</g>
<!-- Node30&#45;&gt;Node9 -->
<g id="edge52" class="edge">
<title>Node30&#45;&gt;Node9</title>
<path fill="none" stroke="#191970" d="M651.3551,-224.3979C653.9226,-202.7904 657.5441,-149.32 637,-112 629.9374,-99.1703 617.6703,-88.6479 606.2313,-80.9208"/>
<polygon fill="#191970" stroke="#191970" points="608.0698,-77.9424 597.7452,-75.5648 604.3336,-83.862 608.0698,-77.9424"/>
</g>
<!-- Node31&#45;&gt;Node1 -->
<g id="edge56" class="edge">
<title>Node31&#45;&gt;Node1</title>
<path fill="none" stroke="#191970" d="M692.6359,-282.5799C695.766,-281.6555 698.952,-280.7671 702,-280 781.0322,-260.1111 804.8488,-263.0793 888.3934,-243.9774"/>
<polygon fill="#191970" stroke="#191970" points="889.378,-247.3419 898.3255,-241.668 887.7926,-240.5238 889.378,-247.3419"/>
</g>
<!-- Node31&#45;&gt;Node7 -->
<g id="edge54" class="edge">
<title>Node31&#45;&gt;Node7</title>
<path fill="none" stroke="#191970" d="M676.5115,-280.4869C696.1726,-251.545 754.1308,-164.5528 763,-132 765.3367,-123.4237 767.7128,-119.5367 763,-112 733.4789,-64.7893 565.8627,-29.6645 491.0513,-16.115"/>
<polygon fill="#191970" stroke="#191970" points="491.5942,-12.6566 481.1351,-14.3472 490.3656,-19.548 491.5942,-12.6566"/>
</g>
<!-- Node31&#45;&gt;Node13 -->
<g id="edge55" class="edge">
<title>Node31&#45;&gt;Node13</title>
<path fill="none" stroke="#191970" d="M679.8442,-280.3263C707.9439,-252.796 787.4423,-175.515 802,-168 859.6491,-138.2402 935.2749,-127.7322 980.8941,-124.0228"/>
<polygon fill="#191970" stroke="#191970" points="981.2722,-127.5045 990.9857,-123.2739 980.7541,-120.5237 981.2722,-127.5045"/>
</g>
<!-- Node32&#45;&gt;Node1 -->
<g id="edge60" class="edge">
<title>Node32&#45;&gt;Node1</title>
<path fill="none" stroke="#191970" d="M868.0189,-280.2455C878.2098,-271.9746 893.0362,-259.9416 905.0107,-250.2232"/>
<polygon fill="#191970" stroke="#191970" points="907.5598,-252.662 913.1188,-243.6427 903.1486,-247.2268 907.5598,-252.662"/>
</g>
<!-- Node33 -->
<g id="node34" class="node">
<title>Node33</title>
<polygon fill="#ffffff" stroke="#bfbfbf" points="813.5,-224.5 813.5,-243.5 880.5,-243.5 880.5,-224.5 813.5,-224.5"/>
<text text-anchor="middle" x="847" y="-231.5" font-family="Helvetica,sans-Serif" font-size="10.00" fill="#000000">cpu_conf.h</text>
</g>
<!-- Node32&#45;&gt;Node33 -->
<g id="edge59" class="edge">
<title>Node32&#45;&gt;Node33</title>
<path fill="none" stroke="#191970" d="M854.4323,-280.2455C853.2579,-272.9382 851.6116,-262.6944 850.1668,-253.7046"/>
<polygon fill="#191970" stroke="#191970" points="853.5922,-252.9606 848.5497,-243.6427 846.6809,-254.0714 853.5922,-252.9606"/>
</g>
</g>
</svg>
