<?xml version="1.0" encoding="UTF-8" standalone="no"?>
<!DOCTYPE svg PUBLIC "-//W3C//DTD SVG 1.1//EN"
 "http://www.w3.org/Graphics/SVG/1.1/DTD/svg11.dtd">
<!-- Generated by graphviz version 2.40.1 (0)
 -->
<!-- Title: drivers/include/candev_mcp2515.h Pages: 1 -->
<svg width="1853pt" height="543pt"
 viewBox="0.00 0.00 1852.50 543.00" xmlns="http://www.w3.org/2000/svg" xmlns:xlink="http://www.w3.org/1999/xlink">
<g id="graph0" class="graph" transform="scale(1 1) rotate(0) translate(4 539)">
<title>drivers/include/candev_mcp2515.h</title>
<polygon fill="#ffffff" stroke="transparent" points="-4,4 -4,-539 1848.5,-539 1848.5,4 -4,4"/>
<!-- Node0 -->
<g id="node1" class="node">
<title>Node0</title>
<polygon fill="#bfbfbf" stroke="#000000" points="1236.5,-504.5 1236.5,-534.5 1359.5,-534.5 1359.5,-504.5 1236.5,-504.5"/>
<text text-anchor="start" x="1244.5" y="-522.5" font-family="Helvetica,sans-Serif" font-size="10.00" fill="#000000">drivers/include/candev</text>
<text text-anchor="middle" x="1298" y="-511.5" font-family="Helvetica,sans-Serif" font-size="10.00" fill="#000000">_mcp2515.h</text>
</g>
<!-- Node1 -->
<g id="node2" class="node">
<title>Node1</title>
<polygon fill="#ffffff" stroke="#bfbfbf" points="1224,-112.5 1224,-131.5 1284,-131.5 1284,-112.5 1224,-112.5"/>
<text text-anchor="middle" x="1254" y="-119.5" font-family="Helvetica,sans-Serif" font-size="10.00" fill="#000000">stdbool.h</text>
</g>
<!-- Node0&#45;&gt;Node1 -->
<g id="edge1" class="edge">
<title>Node0&#45;&gt;Node1</title>
<path fill="none" stroke="#191970" d="M1312.6118,-504.1827C1331.2227,-482.9983 1361,-442.7378 1361,-402 1361,-402 1361,-402 1361,-234 1361,-203.4754 1361.3054,-191.6443 1342,-168 1329.6047,-152.8188 1310.8636,-142.0493 1293.8574,-134.7671"/>
<polygon fill="#191970" stroke="#191970" points="1294.6911,-131.3314 1284.106,-130.8754 1292.0964,-137.8328 1294.6911,-131.3314"/>
</g>
<!-- Node2 -->
<g id="node3" class="node">
<title>Node2</title>
<g id="a_node3"><a xlink:href="candev_8h.html" target="_top" xlink:title="Definitions for low&#45;level CAN driver interface. ">
<polygon fill="#ffffff" stroke="#000000" points="248.5,-448.5 248.5,-467.5 325.5,-467.5 325.5,-448.5 248.5,-448.5"/>
<text text-anchor="middle" x="287" y="-455.5" font-family="Helvetica,sans-Serif" font-size="10.00" fill="#000000">can/candev.h</text>
</a>
</g>
</g>
<!-- Node0&#45;&gt;Node2 -->
<g id="edge2" class="edge">
<title>Node0&#45;&gt;Node2</title>
<path fill="none" stroke="#191970" d="M1236.2793,-515.7455C1051.1722,-504.4853 503.1811,-471.1505 335.9868,-460.9799"/>
<polygon fill="#191970" stroke="#191970" points="335.7267,-457.4577 325.5326,-460.344 335.3016,-464.4448 335.7267,-457.4577"/>
</g>
<!-- Node13 -->
<g id="node14" class="node">
<title>Node13</title>
<g id="a_node14"><a xlink:href="mutex_8h.html" target="_top" xlink:title="Mutex for thread synchronization. ">
<polygon fill="#ffffff" stroke="#000000" points="864,-392.5 864,-411.5 920,-411.5 920,-392.5 864,-392.5"/>
<text text-anchor="middle" x="892" y="-399.5" font-family="Helvetica,sans-Serif" font-size="10.00" fill="#000000">mutex.h</text>
</a>
</g>
</g>
<!-- Node0&#45;&gt;Node13 -->
<g id="edge75" class="edge">
<title>Node0&#45;&gt;Node13</title>
<path fill="none" stroke="#191970" d="M1246.1674,-504.4992C1163.2739,-480.5091 1002.7972,-434.0657 929.7978,-412.939"/>
<polygon fill="#191970" stroke="#191970" points="930.6739,-409.549 920.095,-410.131 928.7278,-416.2731 930.6739,-409.549"/>
</g>
<!-- Node32 -->
<g id="node33" class="node">
<title>Node32</title>
<polygon fill="#ffffff" stroke="#bfbfbf" points="1063.5,-224.5 1063.5,-243.5 1130.5,-243.5 1130.5,-224.5 1063.5,-224.5"/>
<text text-anchor="middle" x="1097" y="-231.5" font-family="Helvetica,sans-Serif" font-size="10.00" fill="#000000">cpu_conf.h</text>
</g>
<!-- Node0&#45;&gt;Node32 -->
<g id="edge59" class="edge">
<title>Node0&#45;&gt;Node32</title>
<path fill="none" stroke="#191970" d="M1287.1934,-504.1503C1252.8853,-455.4192 1146.529,-304.3509 1109.7039,-252.0447"/>
<polygon fill="#191970" stroke="#191970" points="1112.4721,-249.8966 1103.8535,-243.7347 1106.7483,-253.9264 1112.4721,-249.8966"/>
</g>
<!-- Node34 -->
<g id="node35" class="node">
<title>Node34</title>
<g id="a_node35"><a xlink:href="drivers_2include_2periph_2gpio_8h.html" target="_top" xlink:title="Low&#45;level GPIO peripheral driver interface definitions. ">
<polygon fill="#ffffff" stroke="#000000" points="1503,-168.5 1503,-187.5 1583,-187.5 1583,-168.5 1503,-168.5"/>
<text text-anchor="middle" x="1543" y="-175.5" font-family="Helvetica,sans-Serif" font-size="10.00" fill="#000000">periph/gpio.h</text>
</a>
</g>
</g>
<!-- Node0&#45;&gt;Node34 -->
<g id="edge60" class="edge">
<title>Node0&#45;&gt;Node34</title>
<path fill="none" stroke="#191970" d="M1348.4254,-504.3861C1393.3383,-487.4395 1452,-455.1348 1452,-402 1452,-402 1452,-402 1452,-290 1452,-247.6829 1491.6144,-212.4504 1518.5688,-193.3755"/>
<polygon fill="#191970" stroke="#191970" points="1520.8491,-196.0574 1527.149,-187.5391 1516.912,-190.2695 1520.8491,-196.0574"/>
</g>
<!-- Node37 -->
<g id="node38" class="node">
<title>Node37</title>
<g id="a_node38"><a xlink:href="spi_8h.html" target="_top" xlink:title="Low&#45;level SPI peripheral driver interface definition. ">
<polygon fill="#ffffff" stroke="#000000" points="1612.5,-224.5 1612.5,-243.5 1685.5,-243.5 1685.5,-224.5 1612.5,-224.5"/>
<text text-anchor="middle" x="1649" y="-231.5" font-family="Helvetica,sans-Serif" font-size="10.00" fill="#000000">periph/spi.h</text>
</a>
</g>
</g>
<!-- Node0&#45;&gt;Node37 -->
<g id="edge65" class="edge">
<title>Node0&#45;&gt;Node37</title>
<path fill="none" stroke="#191970" d="M1359.7458,-508.1133C1447.0318,-490.2273 1596,-452.3294 1596,-402 1596,-402 1596,-402 1596,-346 1596,-309.8604 1618.8252,-272.9196 1634.5175,-251.7933"/>
<polygon fill="#191970" stroke="#191970" points="1637.3812,-253.8112 1640.7188,-243.7558 1631.839,-249.5352 1637.3812,-253.8112"/>
</g>
<!-- Node3 -->
<g id="node4" class="node">
<title>Node3</title>
<polygon fill="#ffffff" stroke="#bfbfbf" points="487,-.5 487,-19.5 539,-19.5 539,-.5 487,-.5"/>
<text text-anchor="middle" x="513" y="-7.5" font-family="Helvetica,sans-Serif" font-size="10.00" fill="#000000">stdint.h</text>
</g>
<!-- Node2&#45;&gt;Node3 -->
<g id="edge3" class="edge">
<title>Node2&#45;&gt;Node3</title>
<path fill="none" stroke="#191970" d="M299.3847,-448.3714C320.6868,-430.6205 362,-390.4628 362,-346 362,-346 362,-346 362,-122 362,-64.9525 432.3861,-33.5953 477.0475,-19.4405"/>
<polygon fill="#191970" stroke="#191970" points="478.1401,-22.7667 486.6978,-16.5204 476.1127,-16.0667 478.1401,-22.7667"/>
</g>
<!-- Node4 -->
<g id="node5" class="node">
<title>Node4</title>
<polygon fill="#ffffff" stroke="#bfbfbf" points="116,-168.5 116,-187.5 166,-187.5 166,-168.5 116,-168.5"/>
<text text-anchor="middle" x="141" y="-175.5" font-family="Helvetica,sans-Serif" font-size="10.00" fill="#000000">stdlib.h</text>
</g>
<!-- Node2&#45;&gt;Node4 -->
<g id="edge4" class="edge">
<title>Node2&#45;&gt;Node4</title>
<path fill="none" stroke="#191970" d="M274.6153,-448.3714C253.3132,-430.6205 212,-390.4628 212,-346 212,-346 212,-346 212,-290 212,-251.2128 181.2491,-214.9698 160.2224,-194.7214"/>
<polygon fill="#191970" stroke="#191970" points="162.4378,-192.0026 152.7242,-187.7722 157.6796,-197.1368 162.4378,-192.0026"/>
</g>
<!-- Node5 -->
<g id="node6" class="node">
<title>Node5</title>
<g id="a_node6"><a xlink:href="sys_2include_2can_2can_8h.html" target="_top" xlink:title="Definitions high&#45;level CAN interface. ">
<polygon fill="#ffffff" stroke="#000000" points="19.5,-336.5 19.5,-355.5 80.5,-355.5 80.5,-336.5 19.5,-336.5"/>
<text text-anchor="middle" x="50" y="-343.5" font-family="Helvetica,sans-Serif" font-size="10.00" fill="#000000">can/can.h</text>
</a>
</g>
</g>
<!-- Node2&#45;&gt;Node5 -->
<g id="edge5" class="edge">
<title>Node2&#45;&gt;Node5</title>
<path fill="none" stroke="#191970" d="M248.4496,-448.9762C218.9507,-441.279 177.739,-428.787 144,-412 116.2308,-398.1833 87.5037,-376.7907 69.2347,-362.1294"/>
<polygon fill="#191970" stroke="#191970" points="71.1166,-359.1475 61.1565,-355.5354 66.6901,-364.5703 71.1166,-359.1475"/>
</g>
<!-- Node6 -->
<g id="node7" class="node">
<title>Node6</title>
<g id="a_node7"><a xlink:href="sys_2include_2can_2common_8h.html" target="_top" xlink:title="Definitions of high&#45;level CAN interface. ">
<polygon fill="#ffffff" stroke="#000000" points="98,-280.5 98,-299.5 184,-299.5 184,-280.5 98,-280.5"/>
<text text-anchor="middle" x="141" y="-287.5" font-family="Helvetica,sans-Serif" font-size="10.00" fill="#000000">can/common.h</text>
</a>
</g>
</g>
<!-- Node2&#45;&gt;Node6 -->
<g id="edge7" class="edge">
<title>Node2&#45;&gt;Node6</title>
<path fill="none" stroke="#191970" d="M257.4697,-448.3973C238.4827,-440.9736 214.3889,-429.0573 198,-412 169.5129,-382.3511 153.2646,-335.8583 145.8842,-309.6594"/>
<polygon fill="#191970" stroke="#191970" points="149.2094,-308.5448 143.2543,-299.782 142.4451,-310.3459 149.2094,-308.5448"/>
</g>
<!-- Node2&#45;&gt;Node13 -->
<g id="edge17" class="edge">
<title>Node2&#45;&gt;Node13</title>
<path fill="none" stroke="#191970" d="M325.7658,-454.4118C435.0532,-444.2959 744.7452,-415.6302 853.5928,-405.555"/>
<polygon fill="#191970" stroke="#191970" points="854.1488,-409.0186 863.7836,-404.6118 853.5036,-402.0484 854.1488,-409.0186"/>
</g>
<!-- Node5&#45;&gt;Node3 -->
<g id="edge6" class="edge">
<title>Node5&#45;&gt;Node3</title>
<path fill="none" stroke="#191970" d="M42.4061,-336.4565C28.4187,-317.8857 0,-275.0976 0,-234 0,-234 0,-234 0,-122 0,-73.1586 359.5179,-27.6008 476.6153,-14.0577"/>
<polygon fill="#191970" stroke="#191970" points="477.3187,-17.5 486.855,-12.8837 476.5214,-10.5456 477.3187,-17.5"/>
</g>
<!-- Node6&#45;&gt;Node3 -->
<g id="edge8" class="edge">
<title>Node6&#45;&gt;Node3</title>
<path fill="none" stroke="#191970" d="M184.1517,-282.2267C225.5379,-273.9745 284.1511,-259.9408 301,-244 323.5648,-222.6513 324,-209.0635 324,-178 324,-178 324,-178 324,-122 324,-90.7875 325.0975,-77.206 348,-56 366.6971,-38.6879 434.3011,-23.9404 476.9555,-16.0818"/>
<polygon fill="#191970" stroke="#191970" points="477.7348,-19.4978 486.9562,-14.2808 476.4941,-12.6086 477.7348,-19.4978"/>
</g>
<!-- Node7 -->
<g id="node8" class="node">
<title>Node7</title>
<g id="a_node8"><a xlink:href="uio_8h.html" target="_top" xlink:title="libc header for scatter/gather I/O ">
<polygon fill="#ffffff" stroke="#000000" points="112,-224.5 112,-243.5 170,-243.5 170,-224.5 112,-224.5"/>
<text text-anchor="middle" x="141" y="-231.5" font-family="Helvetica,sans-Serif" font-size="10.00" fill="#000000">sys/uio.h</text>
</a>
</g>
</g>
<!-- Node6&#45;&gt;Node7 -->
<g id="edge9" class="edge">
<title>Node6&#45;&gt;Node7</title>
<path fill="none" stroke="#191970" d="M141,-280.2455C141,-272.9382 141,-262.6944 141,-253.7046"/>
<polygon fill="#191970" stroke="#191970" points="144.5001,-253.6426 141,-243.6427 137.5001,-253.6427 144.5001,-253.6426"/>
</g>
<!-- Node9 -->
<g id="node10" class="node">
<title>Node9</title>
<g id="a_node10"><a xlink:href="timex_8h.html" target="_top" xlink:title="Utility library for comparing and computing timestamps. ">
<polygon fill="#ffffff" stroke="#000000" points="240,-224.5 240,-243.5 292,-243.5 292,-224.5 240,-224.5"/>
<text text-anchor="middle" x="266" y="-231.5" font-family="Helvetica,sans-Serif" font-size="10.00" fill="#000000">timex.h</text>
</a>
</g>
</g>
<!-- Node6&#45;&gt;Node9 -->
<g id="edge12" class="edge">
<title>Node6&#45;&gt;Node9</title>
<path fill="none" stroke="#191970" d="M162.4883,-280.3733C182.644,-271.3435 212.988,-257.7494 235.618,-247.6111"/>
<polygon fill="#191970" stroke="#191970" points="237.0971,-250.7838 244.7921,-243.5011 234.2351,-244.3955 237.0971,-250.7838"/>
</g>
<!-- Node12 -->
<g id="node13" class="node">
<title>Node12</title>
<polygon fill="#ffffff" stroke="#bfbfbf" points="36.5,-224.5 36.5,-243.5 93.5,-243.5 93.5,-224.5 36.5,-224.5"/>
<text text-anchor="middle" x="65" y="-231.5" font-family="Helvetica,sans-Serif" font-size="10.00" fill="#000000">thread.h</text>
</g>
<!-- Node6&#45;&gt;Node12 -->
<g id="edge16" class="edge">
<title>Node6&#45;&gt;Node12</title>
<path fill="none" stroke="#191970" d="M127.7618,-280.2455C116.319,-271.814 99.5704,-259.4729 86.2525,-249.6598"/>
<polygon fill="#191970" stroke="#191970" points="88.2133,-246.757 78.0865,-243.6427 84.0609,-252.3924 88.2133,-246.757"/>
</g>
<!-- Node7&#45;&gt;Node4 -->
<g id="edge10" class="edge">
<title>Node7&#45;&gt;Node4</title>
<path fill="none" stroke="#191970" d="M141,-224.2455C141,-216.9382 141,-206.6944 141,-197.7046"/>
<polygon fill="#191970" stroke="#191970" points="144.5001,-197.6426 141,-187.6427 137.5001,-197.6427 144.5001,-197.6426"/>
</g>
<!-- Node8 -->
<g id="node9" class="node">
<title>Node8</title>
<polygon fill="#ffffff" stroke="#bfbfbf" points="28.5,-168.5 28.5,-187.5 97.5,-187.5 97.5,-168.5 28.5,-168.5"/>
<text text-anchor="middle" x="63" y="-175.5" font-family="Helvetica,sans-Serif" font-size="10.00" fill="#000000">sys/types.h</text>
</g>
<!-- Node7&#45;&gt;Node8 -->
<g id="edge11" class="edge">
<title>Node7&#45;&gt;Node8</title>
<path fill="none" stroke="#191970" d="M127.4134,-224.2455C115.6695,-215.814 98.4801,-203.4729 84.8118,-193.6598"/>
<polygon fill="#191970" stroke="#191970" points="86.5954,-190.6316 76.4309,-187.6427 82.5129,-196.3179 86.5954,-190.6316"/>
</g>
<!-- Node9&#45;&gt;Node3 -->
<g id="edge13" class="edge">
<title>Node9&#45;&gt;Node3</title>
<path fill="none" stroke="#191970" d="M248.6242,-224.4558C236.1411,-216.5215 220.2818,-203.9621 213,-188 209.3107,-179.9129 209.8947,-176.3288 213,-168 236.005,-106.2978 253.5168,-89.8532 310,-56 337.7799,-39.3501 426.1826,-23.464 476.6928,-15.4351"/>
<polygon fill="#191970" stroke="#191970" points="477.522,-18.848 486.8605,-13.8436 476.4395,-11.9322 477.522,-18.848"/>
</g>
<!-- Node10 -->
<g id="node11" class="node">
<title>Node10</title>
<g id="a_node11"><a xlink:href="inttypes_8h.html" target="_top" xlink:title="Adds include for missing inttype definitions. ">
<polygon fill="#ffffff" stroke="#000000" points="1029.5,-168.5 1029.5,-187.5 1092.5,-187.5 1092.5,-168.5 1029.5,-168.5"/>
<text text-anchor="middle" x="1061" y="-175.5" font-family="Helvetica,sans-Serif" font-size="10.00" fill="#000000">inttypes.h</text>
</a>
</g>
</g>
<!-- Node9&#45;&gt;Node10 -->
<g id="edge14" class="edge">
<title>Node9&#45;&gt;Node10</title>
<path fill="none" stroke="#191970" d="M292.3648,-233.0236C406.0048,-228.72 855.2045,-210.7104 1018.9602,-187.8303"/>
<polygon fill="#191970" stroke="#191970" points="1019.9379,-191.2247 1029.3271,-186.3163 1018.9263,-184.2982 1019.9379,-191.2247"/>
</g>
<!-- Node11 -->
<g id="node12" class="node">
<title>Node11</title>
<g id="a_node12"><a xlink:href="time__units_8h.html" target="_top" xlink:title="Utility header providing time unit defines. ">
<polygon fill="#ffffff" stroke="#000000" points="222,-168.5 222,-187.5 296,-187.5 296,-168.5 222,-168.5"/>
<text text-anchor="middle" x="259" y="-175.5" font-family="Helvetica,sans-Serif" font-size="10.00" fill="#000000">time_units.h</text>
</a>
</g>
</g>
<!-- Node9&#45;&gt;Node11 -->
<g id="edge15" class="edge">
<title>Node9&#45;&gt;Node11</title>
<path fill="none" stroke="#191970" d="M264.7807,-224.2455C263.8673,-216.9382 262.5868,-206.6944 261.4631,-197.7046"/>
<polygon fill="#191970" stroke="#191970" points="264.9187,-197.1313 260.2053,-187.6427 257.9728,-197.9996 264.9187,-197.1313"/>
</g>
<!-- Node13&#45;&gt;Node1 -->
<g id="edge20" class="edge">
<title>Node13&#45;&gt;Node1</title>
<path fill="none" stroke="#191970" d="M920.317,-399.7515C962.5882,-395.5673 1043.9646,-384.2832 1107,-356 1152.2561,-335.6941 1197,-339.6029 1197,-290 1197,-290 1197,-290 1197,-234 1197,-203.3494 1202.6885,-195.1042 1217,-168 1222.4555,-157.6681 1230.3894,-147.4161 1237.5125,-139.2217"/>
<polygon fill="#191970" stroke="#191970" points="1240.127,-141.5488 1244.2436,-131.7864 1234.9376,-136.8508 1240.127,-141.5488"/>
</g>
<!-- Node13&#45;&gt;Node3 -->
<g id="edge19" class="edge">
<title>Node13&#45;&gt;Node3</title>
<path fill="none" stroke="#191970" d="M863.7808,-398.6191C759.2372,-385.7193 400,-337.9073 400,-290 400,-290 400,-290 400,-122 400,-91.08 401.7924,-79.403 422,-56 436.4824,-39.2275 458.56,-27.8591 477.3422,-20.6202"/>
<polygon fill="#191970" stroke="#191970" points="478.5881,-23.8916 486.8059,-17.2044 476.2116,-17.3073 478.5881,-23.8916"/>
</g>
<!-- Node14 -->
<g id="node15" class="node">
<title>Node14</title>
<polygon fill="#ffffff" stroke="#bfbfbf" points="845,-56.5 845,-75.5 901,-75.5 901,-56.5 845,-56.5"/>
<text text-anchor="middle" x="873" y="-63.5" font-family="Helvetica,sans-Serif" font-size="10.00" fill="#000000">stddef.h</text>
</g>
<!-- Node13&#45;&gt;Node14 -->
<g id="edge18" class="edge">
<title>Node13&#45;&gt;Node14</title>
<path fill="none" stroke="#191970" d="M863.9089,-396.7195C819.5018,-386.6916 734.3967,-360.2573 698,-300 670.6703,-254.7539 803.8068,-128.1046 854.2635,-82.5697"/>
<polygon fill="#191970" stroke="#191970" points="856.7665,-85.0265 861.8796,-75.7471 852.0958,-79.8126 856.7665,-85.0265"/>
</g>
<!-- Node15 -->
<g id="node16" class="node">
<title>Node15</title>
<g id="a_node16"><a xlink:href="architecture_8h.html" target="_top" xlink:title="Platform&#45;independent access to architecture details. ">
<polygon fill="#ffffff" stroke="#000000" points="1237.5,-224.5 1237.5,-243.5 1320.5,-243.5 1320.5,-224.5 1237.5,-224.5"/>
<text text-anchor="middle" x="1279" y="-231.5" font-family="Helvetica,sans-Serif" font-size="10.00" fill="#000000">architecture.h</text>
</a>
</g>
</g>
<!-- Node13&#45;&gt;Node15 -->
<g id="edge21" class="edge">
<title>Node13&#45;&gt;Node15</title>
<path fill="none" stroke="#191970" d="M920.0657,-401.0922C988.9034,-398.3796 1163.9264,-388.3959 1211,-356 1246.9742,-331.2427 1265.9865,-280.9407 1274.0984,-253.2873"/>
<polygon fill="#191970" stroke="#191970" points="1277.4896,-254.1551 1276.7668,-243.5849 1270.7402,-252.2988 1277.4896,-254.1551"/>
</g>
<!-- Node18 -->
<g id="node19" class="node">
<title>Node18</title>
<g id="a_node19"><a xlink:href="kernel__defines_8h.html" target="_top" xlink:title="Common macros and compiler attributes/pragmas configuration. ">
<polygon fill="#ffffff" stroke="#000000" points="571.5,-168.5 571.5,-187.5 666.5,-187.5 666.5,-168.5 571.5,-168.5"/>
<text text-anchor="middle" x="619" y="-175.5" font-family="Helvetica,sans-Serif" font-size="10.00" fill="#000000">kernel_defines.h</text>
</a>
</g>
</g>
<!-- Node13&#45;&gt;Node18 -->
<g id="edge26" class="edge">
<title>Node13&#45;&gt;Node18</title>
<path fill="none" stroke="#191970" d="M863.9048,-399.9703C809.6671,-395.4824 693.3738,-382.9096 665,-356 620.5056,-313.8017 616.8876,-234.6866 617.8521,-197.8335"/>
<polygon fill="#191970" stroke="#191970" points="621.3492,-197.9747 618.2584,-187.8407 614.3549,-197.6903 621.3492,-197.9747"/>
</g>
<!-- Node24 -->
<g id="node25" class="node">
<title>Node24</title>
<g id="a_node25"><a xlink:href="list_8h.html" target="_top" xlink:title="Intrusive linked list. ">
<polygon fill="#ffffff" stroke="#000000" points="1082,-112.5 1082,-131.5 1120,-131.5 1120,-112.5 1082,-112.5"/>
<text text-anchor="middle" x="1101" y="-119.5" font-family="Helvetica,sans-Serif" font-size="10.00" fill="#000000">list.h</text>
</a>
</g>
</g>
<!-- Node13&#45;&gt;Node24 -->
<g id="edge37" class="edge">
<title>Node13&#45;&gt;Node24</title>
<path fill="none" stroke="#191970" d="M920.069,-396.466C988.6203,-382.1499 1159,-341.3983 1159,-290 1159,-290 1159,-290 1159,-234 1159,-197.0488 1133.798,-160.1465 1116.6192,-139.2847"/>
<polygon fill="#191970" stroke="#191970" points="1119.2216,-136.9426 1110.0625,-131.6171 1113.9015,-141.4919 1119.2216,-136.9426"/>
</g>
<!-- Node25 -->
<g id="node26" class="node">
<title>Node25</title>
<g id="a_node26"><a xlink:href="core_2include_2thread_8h.html" target="_top" xlink:title="Threading API. ">
<polygon fill="#ffffff" stroke="#000000" points="863.5,-336.5 863.5,-355.5 920.5,-355.5 920.5,-336.5 863.5,-336.5"/>
<text text-anchor="middle" x="892" y="-343.5" font-family="Helvetica,sans-Serif" font-size="10.00" fill="#000000">thread.h</text>
</a>
</g>
</g>
<!-- Node13&#45;&gt;Node25 -->
<g id="edge38" class="edge">
<title>Node13&#45;&gt;Node25</title>
<path fill="none" stroke="#191970" d="M892,-392.2455C892,-384.9382 892,-374.6944 892,-365.7046"/>
<polygon fill="#191970" stroke="#191970" points="895.5001,-365.6426 892,-355.6427 888.5001,-365.6427 895.5001,-365.6426"/>
</g>
<!-- Node15&#45;&gt;Node3 -->
<g id="edge22" class="edge">
<title>Node15&#45;&gt;Node3</title>
<path fill="none" stroke="#191970" d="M1306.0217,-224.4727C1357.2324,-205.0355 1459.7204,-158.6868 1418,-112 1359.0385,-46.0198 711.1907,-17.4373 549.4317,-11.2998"/>
<polygon fill="#191970" stroke="#191970" points="549.1883,-7.7883 539.0644,-10.9121 548.9266,-14.7834 549.1883,-7.7883"/>
</g>
<!-- Node15&#45;&gt;Node10 -->
<g id="edge23" class="edge">
<title>Node15&#45;&gt;Node10</title>
<path fill="none" stroke="#191970" d="M1241.5245,-224.3733C1202.8063,-214.4273 1142.5313,-198.9438 1102.4212,-188.6403"/>
<polygon fill="#191970" stroke="#191970" points="1103.24,-185.2371 1092.6836,-186.1389 1101.4983,-192.0169 1103.24,-185.2371"/>
</g>
<!-- Node16 -->
<g id="node17" class="node">
<title>Node16</title>
<polygon fill="#ffffff" stroke="#bfbfbf" points="1359,-112.5 1359,-131.5 1409,-131.5 1409,-112.5 1359,-112.5"/>
<text text-anchor="middle" x="1384" y="-119.5" font-family="Helvetica,sans-Serif" font-size="10.00" fill="#000000">limits.h</text>
</g>
<!-- Node15&#45;&gt;Node16 -->
<g id="edge24" class="edge">
<title>Node15&#45;&gt;Node16</title>
<path fill="none" stroke="#191970" d="M1295.3107,-224.4919C1308.8616,-216.0625 1328.1023,-202.8162 1342,-188 1355.309,-173.8115 1366.8731,-154.8388 1374.4785,-140.8773"/>
<polygon fill="#191970" stroke="#191970" points="1377.7285,-142.2167 1379.2851,-131.7369 1371.5329,-138.9587 1377.7285,-142.2167"/>
</g>
<!-- Node17 -->
<g id="node18" class="node">
<title>Node17</title>
<polygon fill="#ffffff" stroke="#bfbfbf" points="1225.5,-168.5 1225.5,-187.5 1332.5,-187.5 1332.5,-168.5 1225.5,-168.5"/>
<text text-anchor="middle" x="1279" y="-175.5" font-family="Helvetica,sans-Serif" font-size="10.00" fill="#000000">architecture_arch.h</text>
</g>
<!-- Node15&#45;&gt;Node17 -->
<g id="edge25" class="edge">
<title>Node15&#45;&gt;Node17</title>
<path fill="none" stroke="#191970" d="M1279,-224.2455C1279,-216.9382 1279,-206.6944 1279,-197.7046"/>
<polygon fill="#191970" stroke="#191970" points="1282.5001,-197.6426 1279,-187.6427 1275.5001,-197.6427 1282.5001,-197.6426"/>
</g>
<!-- Node19 -->
<g id="node20" class="node">
<title>Node19</title>
<g id="a_node20"><a xlink:href="modules_8h.html" target="_top" xlink:title="Common macros and compiler attributes/pragmas configuration. ">
<polygon fill="#ffffff" stroke="#000000" points="703.5,-112.5 703.5,-131.5 768.5,-131.5 768.5,-112.5 703.5,-112.5"/>
<text text-anchor="middle" x="736" y="-119.5" font-family="Helvetica,sans-Serif" font-size="10.00" fill="#000000">modules.h</text>
</a>
</g>
</g>
<!-- Node18&#45;&gt;Node19 -->
<g id="edge27" class="edge">
<title>Node18&#45;&gt;Node19</title>
<path fill="none" stroke="#191970" d="M639.113,-168.3733C657.8103,-159.4241 685.8744,-145.9917 706.9934,-135.8835"/>
<polygon fill="#191970" stroke="#191970" points="708.6405,-138.9755 716.1494,-131.5011 705.6183,-132.6614 708.6405,-138.9755"/>
</g>
<!-- Node20 -->
<g id="node21" class="node">
<title>Node20</title>
<g id="a_node21"><a xlink:href="riot__version_8h.html" target="_top" xlink:title="Common macros and compiler attributes/pragmas configuration. ">
<polygon fill="#ffffff" stroke="#000000" points="541.5,-56.5 541.5,-75.5 622.5,-75.5 622.5,-56.5 541.5,-56.5"/>
<text text-anchor="middle" x="582" y="-63.5" font-family="Helvetica,sans-Serif" font-size="10.00" fill="#000000">riot_version.h</text>
</a>
</g>
</g>
<!-- Node18&#45;&gt;Node20 -->
<g id="edge28" class="edge">
<title>Node18&#45;&gt;Node20</title>
<path fill="none" stroke="#191970" d="M615.8454,-168.4509C609.7562,-150.0186 596.2798,-109.2254 588.291,-85.043"/>
<polygon fill="#191970" stroke="#191970" points="591.6069,-83.9223 585.1466,-75.5249 584.9602,-86.1181 591.6069,-83.9223"/>
</g>
<!-- Node21 -->
<g id="node22" class="node">
<title>Node21</title>
<g id="a_node22"><a xlink:href="compiler__hints_8h.html" target="_top" xlink:title="Common macros and compiler attributes/pragmas configuration. ">
<polygon fill="#ffffff" stroke="#000000" points="466.5,-112.5 466.5,-131.5 559.5,-131.5 559.5,-112.5 466.5,-112.5"/>
<text text-anchor="middle" x="513" y="-119.5" font-family="Helvetica,sans-Serif" font-size="10.00" fill="#000000">compiler_hints.h</text>
</a>
</g>
</g>
<!-- Node18&#45;&gt;Node21 -->
<g id="edge30" class="edge">
<title>Node18&#45;&gt;Node21</title>
<path fill="none" stroke="#191970" d="M600.5362,-168.2455C583.8926,-159.4527 559.2007,-146.4079 540.2808,-136.4125"/>
<polygon fill="#191970" stroke="#191970" points="541.7291,-133.2193 531.2522,-131.6427 538.4592,-139.4086 541.7291,-133.2193"/>
</g>
<!-- Node23 -->
<g id="node24" class="node">
<title>Node23</title>
<g id="a_node24"><a xlink:href="container_8h.html" target="_top" xlink:title="Common macros and compiler attributes/pragmas configuration. ">
<polygon fill="#ffffff" stroke="#000000" points="616.5,-112.5 616.5,-131.5 685.5,-131.5 685.5,-112.5 616.5,-112.5"/>
<text text-anchor="middle" x="651" y="-119.5" font-family="Helvetica,sans-Serif" font-size="10.00" fill="#000000">container.h</text>
</a>
</g>
</g>
<!-- Node18&#45;&gt;Node23 -->
<g id="edge34" class="edge">
<title>Node18&#45;&gt;Node23</title>
<path fill="none" stroke="#191970" d="M624.574,-168.2455C628.9331,-160.617 635.1211,-149.7881 640.4133,-140.5267"/>
<polygon fill="#191970" stroke="#191970" points="643.5673,-142.0616 645.4899,-131.6427 637.4896,-138.5886 643.5673,-142.0616"/>
</g>
<!-- Node20&#45;&gt;Node3 -->
<g id="edge29" class="edge">
<title>Node20&#45;&gt;Node3</title>
<path fill="none" stroke="#191970" d="M569.9811,-56.2455C559.7902,-47.9746 544.9638,-35.9416 532.9893,-26.2232"/>
<polygon fill="#191970" stroke="#191970" points="534.8514,-23.2268 524.8812,-19.6427 530.4402,-28.662 534.8514,-23.2268"/>
</g>
<!-- Node21&#45;&gt;Node3 -->
<g id="edge33" class="edge">
<title>Node21&#45;&gt;Node3</title>
<path fill="none" stroke="#191970" d="M513,-112.4509C513,-94.184 513,-53.9553 513,-29.6976"/>
<polygon fill="#191970" stroke="#191970" points="516.5001,-29.5249 513,-19.5249 509.5001,-29.5249 516.5001,-29.5249"/>
</g>
<!-- Node22 -->
<g id="node23" class="node">
<title>Node22</title>
<g id="a_node23"><a xlink:href="assert_8h.html" target="_top" xlink:title="POSIX.1&#45;2008 compliant version of the assert macro. ">
<polygon fill="#ffffff" stroke="#000000" points="431,-56.5 431,-75.5 485,-75.5 485,-56.5 431,-56.5"/>
<text text-anchor="middle" x="458" y="-63.5" font-family="Helvetica,sans-Serif" font-size="10.00" fill="#000000">assert.h</text>
</a>
</g>
</g>
<!-- Node21&#45;&gt;Node22 -->
<g id="edge31" class="edge">
<title>Node21&#45;&gt;Node22</title>
<path fill="none" stroke="#191970" d="M503.4197,-112.2455C495.4542,-104.1352 483.9359,-92.4075 474.4921,-82.7919"/>
<polygon fill="#191970" stroke="#191970" points="476.9747,-80.3247 467.4705,-75.6427 471.9805,-85.2297 476.9747,-80.3247"/>
</g>
<!-- Node22&#45;&gt;Node3 -->
<g id="edge32" class="edge">
<title>Node22&#45;&gt;Node3</title>
<path fill="none" stroke="#191970" d="M467.5803,-56.2455C475.5458,-48.1352 487.0641,-36.4075 496.5079,-26.7919"/>
<polygon fill="#191970" stroke="#191970" points="499.0195,-29.2297 503.5295,-19.6427 494.0253,-24.3247 499.0195,-29.2297"/>
</g>
<!-- Node23&#45;&gt;Node3 -->
<g id="edge36" class="edge">
<title>Node23&#45;&gt;Node3</title>
<path fill="none" stroke="#191970" d="M650.6287,-112.1854C649.5786,-98.0212 645.6374,-71.8177 631,-56 609.6422,-32.92 575.3205,-21.2711 549.1852,-15.4844"/>
<polygon fill="#191970" stroke="#191970" points="549.755,-12.0289 539.2595,-13.4768 548.3672,-18.8899 549.755,-12.0289"/>
</g>
<!-- Node23&#45;&gt;Node14 -->
<g id="edge35" class="edge">
<title>Node23&#45;&gt;Node14</title>
<path fill="none" stroke="#191970" d="M685.6875,-113.25C726.2448,-103.0193 793.1468,-86.1431 835.0556,-75.5716"/>
<polygon fill="#191970" stroke="#191970" points="836.0434,-78.9321 844.8835,-73.0924 834.3312,-72.1447 836.0434,-78.9321"/>
</g>
<!-- Node26 -->
<g id="node27" class="node">
<title>Node26</title>
<g id="a_node27"><a xlink:href="clist_8h.html" target="_top" xlink:title="Circular linked list. ">
<polygon fill="#ffffff" stroke="#000000" points="863.5,-168.5 863.5,-187.5 906.5,-187.5 906.5,-168.5 863.5,-168.5"/>
<text text-anchor="middle" x="885" y="-175.5" font-family="Helvetica,sans-Serif" font-size="10.00" fill="#000000">clist.h</text>
</a>
</g>
</g>
<!-- Node25&#45;&gt;Node26 -->
<g id="edge39" class="edge">
<title>Node25&#45;&gt;Node26</title>
<path fill="none" stroke="#191970" d="M891.6036,-336.4862C890.4971,-309.9293 887.3569,-234.5651 885.8402,-198.1655"/>
<polygon fill="#191970" stroke="#191970" points="889.3229,-197.6735 885.4095,-187.8279 882.3289,-197.965 889.3229,-197.6735"/>
</g>
<!-- Node27 -->
<g id="node28" class="node">
<title>Node27</title>
<g id="a_node28"><a xlink:href="cib_8h.html" target="_top" xlink:title="Circular integer buffer interface. ">
<polygon fill="#ffffff" stroke="#000000" points="707,-280.5 707,-299.5 745,-299.5 745,-280.5 707,-280.5"/>
<text text-anchor="middle" x="726" y="-287.5" font-family="Helvetica,sans-Serif" font-size="10.00" fill="#000000">cib.h</text>
</a>
</g>
</g>
<!-- Node25&#45;&gt;Node27 -->
<g id="edge43" class="edge">
<title>Node25&#45;&gt;Node27</title>
<path fill="none" stroke="#191970" d="M863.3958,-336.6619C837.3554,-328.1177 797.6224,-314.9736 754.7456,-300.2135"/>
<polygon fill="#191970" stroke="#191970" points="755.8555,-296.894 745.2607,-296.9395 753.5714,-303.5109 755.8555,-296.894"/>
</g>
<!-- Node28 -->
<g id="node29" class="node">
<title>Node28</title>
<g id="a_node29"><a xlink:href="core_2include_2msg_8h.html" target="_top" xlink:title="Messaging API for inter process communication. ">
<polygon fill="#ffffff" stroke="#000000" points="939.5,-280.5 939.5,-299.5 984.5,-299.5 984.5,-280.5 939.5,-280.5"/>
<text text-anchor="middle" x="962" y="-287.5" font-family="Helvetica,sans-Serif" font-size="10.00" fill="#000000">msg.h</text>
</a>
</g>
</g>
<!-- Node25&#45;&gt;Node28 -->
<g id="edge45" class="edge">
<title>Node25&#45;&gt;Node28</title>
<path fill="none" stroke="#191970" d="M904.1931,-336.2455C914.6321,-327.8943 929.8655,-315.7076 942.074,-305.9408"/>
<polygon fill="#191970" stroke="#191970" points="944.3244,-308.6227 949.9467,-299.6427 939.9515,-303.1566 944.3244,-308.6227"/>
</g>
<!-- Node29 -->
<g id="node30" class="node">
<title>Node29</title>
<g id="a_node30"><a xlink:href="sched_8h.html" target="_top" xlink:title="Scheduler API definition. ">
<polygon fill="#ffffff" stroke="#000000" points="937.5,-224.5 937.5,-243.5 990.5,-243.5 990.5,-224.5 937.5,-224.5"/>
<text text-anchor="middle" x="964" y="-231.5" font-family="Helvetica,sans-Serif" font-size="10.00" fill="#000000">sched.h</text>
</a>
</g>
</g>
<!-- Node25&#45;&gt;Node29 -->
<g id="edge54" class="edge">
<title>Node25&#45;&gt;Node29</title>
<path fill="none" stroke="#191970" d="M897.296,-336.4402C904.5676,-323.4573 918.202,-299.6192 931,-280 937.1519,-270.5692 944.4065,-260.367 950.5448,-251.9724"/>
<polygon fill="#191970" stroke="#191970" points="953.5335,-253.8172 956.6624,-243.695 947.9041,-249.6567 953.5335,-253.8172"/>
</g>
<!-- Node31 -->
<g id="node32" class="node">
<title>Node31</title>
<g id="a_node32"><a xlink:href="thread__config_8h.html" target="_top" xlink:title="Thread configuration defines. ">
<polygon fill="#ffffff" stroke="#000000" points="1003,-280.5 1003,-299.5 1093,-299.5 1093,-280.5 1003,-280.5"/>
<text text-anchor="middle" x="1048" y="-287.5" font-family="Helvetica,sans-Serif" font-size="10.00" fill="#000000">thread_config.h</text>
</a>
</g>
</g>
<!-- Node25&#45;&gt;Node31 -->
<g id="edge55" class="edge">
<title>Node25&#45;&gt;Node31</title>
<path fill="none" stroke="#191970" d="M918.8174,-336.3733C944.5332,-327.1419 983.538,-313.1402 1011.9599,-302.9375"/>
<polygon fill="#191970" stroke="#191970" points="1013.3032,-306.174 1021.5326,-299.5011 1010.9381,-299.5857 1013.3032,-306.174"/>
</g>
<!-- Node33 -->
<g id="node34" class="node">
<title>Node33</title>
<polygon fill="#ffffff" stroke="#bfbfbf" points="763,-280.5 763,-299.5 845,-299.5 845,-280.5 763,-280.5"/>
<text text-anchor="middle" x="804" y="-287.5" font-family="Helvetica,sans-Serif" font-size="10.00" fill="#000000">thread_arch.h</text>
</g>
<!-- Node25&#45;&gt;Node33 -->
<g id="edge58" class="edge">
<title>Node25&#45;&gt;Node33</title>
<path fill="none" stroke="#191970" d="M876.6716,-336.2455C863.1697,-327.6534 843.2878,-315.0014 827.7314,-305.1018"/>
<polygon fill="#191970" stroke="#191970" points="829.4685,-302.0587 819.1528,-299.6427 825.7103,-307.9643 829.4685,-302.0587"/>
</g>
<!-- Node26&#45;&gt;Node1 -->
<g id="edge40" class="edge">
<title>Node26&#45;&gt;Node1</title>
<path fill="none" stroke="#191970" d="M906.5446,-170.5123C909.6917,-169.576 912.9121,-168.7024 916,-168 1022.1205,-143.862 1150.058,-130.6748 1213.8051,-125.1548"/>
<polygon fill="#191970" stroke="#191970" points="1214.1715,-128.6363 1223.8399,-124.3036 1213.5798,-121.6614 1214.1715,-128.6363"/>
</g>
<!-- Node26&#45;&gt;Node14 -->
<g id="edge41" class="edge">
<title>Node26&#45;&gt;Node14</title>
<path fill="none" stroke="#191970" d="M886.3878,-168.096C887.9568,-155.1295 889.9358,-131.7294 887,-112 885.6673,-103.0439 882.9506,-93.419 880.2619,-85.3"/>
<polygon fill="#191970" stroke="#191970" points="883.4936,-83.9402 876.8624,-75.6772 876.8933,-86.272 883.4936,-83.9402"/>
</g>
<!-- Node26&#45;&gt;Node24 -->
<g id="edge42" class="edge">
<title>Node26&#45;&gt;Node24</title>
<path fill="none" stroke="#191970" d="M906.6226,-170.8168C909.7583,-169.8359 912.9547,-168.8687 916,-168 970.7478,-152.383 1035.4508,-136.9838 1072.0106,-128.5612"/>
<polygon fill="#191970" stroke="#191970" points="1073.0123,-131.9224 1081.9779,-126.2773 1071.4488,-125.0993 1073.0123,-131.9224"/>
</g>
<!-- Node27&#45;&gt;Node22 -->
<g id="edge44" class="edge">
<title>Node27&#45;&gt;Node22</title>
<path fill="none" stroke="#191970" d="M706.7046,-285.6383C654.883,-272.7614 512.8283,-229.5375 457,-132 449.0044,-118.031 450.0833,-99.5233 452.6861,-85.662"/>
<polygon fill="#191970" stroke="#191970" points="456.143,-86.2452 454.956,-75.7171 449.3185,-84.6875 456.143,-86.2452"/>
</g>
<!-- Node28&#45;&gt;Node1 -->
<g id="edge47" class="edge">
<title>Node28&#45;&gt;Node1</title>
<path fill="none" stroke="#191970" d="M974.2489,-280.4442C991.6789,-267.0492 1024.8718,-242.2824 1055,-224 1112.675,-189.0016 1183.744,-154.5184 1223.4481,-135.9772"/>
<polygon fill="#191970" stroke="#191970" points="1225.2436,-139.0025 1232.8393,-131.6163 1222.2954,-132.6536 1225.2436,-139.0025"/>
</g>
<!-- Node28&#45;&gt;Node3 -->
<g id="edge46" class="edge">
<title>Node28&#45;&gt;Node3</title>
<path fill="none" stroke="#191970" d="M950.2262,-280.2388C929.0068,-262.4989 883.1889,-223.5161 847,-188 814.225,-155.8342 814.3123,-138.77 777,-112 727.2078,-76.2761 708.135,-78.1597 651,-56 616.8187,-42.7428 577.0267,-29.7288 548.9793,-20.9454"/>
<polygon fill="#191970" stroke="#191970" points="549.7978,-17.5347 539.2096,-17.9082 547.7197,-24.2191 549.7978,-17.5347"/>
</g>
<!-- Node28&#45;&gt;Node29 -->
<g id="edge48" class="edge">
<title>Node28&#45;&gt;Node29</title>
<path fill="none" stroke="#191970" d="M962.3484,-280.2455C962.6093,-272.9382 962.9752,-262.6944 963.2963,-253.7046"/>
<polygon fill="#191970" stroke="#191970" points="966.7964,-253.7613 963.6556,-243.6427 959.8008,-253.5113 966.7964,-253.7613"/>
</g>
<!-- Node29&#45;&gt;Node10 -->
<g id="edge50" class="edge">
<title>Node29&#45;&gt;Node10</title>
<path fill="none" stroke="#191970" d="M980.8961,-224.2455C995.918,-215.5731 1018.1043,-202.7645 1035.321,-192.825"/>
<polygon fill="#191970" stroke="#191970" points="1037.3871,-195.6737 1044.2975,-187.6427 1033.8872,-189.6114 1037.3871,-195.6737"/>
</g>
<!-- Node29&#45;&gt;Node14 -->
<g id="edge49" class="edge">
<title>Node29&#45;&gt;Node14</title>
<path fill="none" stroke="#191970" d="M937.3361,-226.448C908.2382,-217.6039 864.5094,-202.3346 855,-188 844.0901,-171.5542 858.229,-115.5236 866.9968,-85.4516"/>
<polygon fill="#191970" stroke="#191970" points="870.4106,-86.2522 869.9277,-75.6683 863.7051,-84.2433 870.4106,-86.2522"/>
</g>
<!-- Node29&#45;&gt;Node18 -->
<g id="edge51" class="edge">
<title>Node29&#45;&gt;Node18</title>
<path fill="none" stroke="#191970" d="M937.2155,-229.6524C881.5714,-220.6203 752.3696,-199.6484 676.8204,-187.3853"/>
<polygon fill="#191970" stroke="#191970" points="676.9611,-183.8624 666.5295,-185.7149 675.8395,-190.772 676.9611,-183.8624"/>
</g>
<!-- Node29&#45;&gt;Node26 -->
<g id="edge53" class="edge">
<title>Node29&#45;&gt;Node26</title>
<path fill="none" stroke="#191970" d="M950.2393,-224.2455C938.3448,-215.814 920.935,-203.4729 907.0915,-193.6598"/>
<polygon fill="#191970" stroke="#191970" points="908.7854,-190.5704 898.6031,-187.6427 904.7372,-196.2811 908.7854,-190.5704"/>
</g>
<!-- Node30 -->
<g id="node31" class="node">
<title>Node30</title>
<g id="a_node31"><a xlink:href="native__sched_8h.html" target="_top" xlink:title="Add definitions required on the native board. ">
<polygon fill="#ffffff" stroke="#000000" points="925,-168.5 925,-187.5 1011,-187.5 1011,-168.5 925,-168.5"/>
<text text-anchor="middle" x="968" y="-175.5" font-family="Helvetica,sans-Serif" font-size="10.00" fill="#000000">native_sched.h</text>
</a>
</g>
</g>
<!-- Node29&#45;&gt;Node30 -->
<g id="edge52" class="edge">
<title>Node29&#45;&gt;Node30</title>
<path fill="none" stroke="#191970" d="M964.6967,-224.2455C965.2187,-216.9382 965.9504,-206.6944 966.5925,-197.7046"/>
<polygon fill="#191970" stroke="#191970" points="970.0898,-197.8667 967.3112,-187.6427 963.1076,-197.3679 970.0898,-197.8667"/>
</g>
<!-- Node31&#45;&gt;Node29 -->
<g id="edge57" class="edge">
<title>Node31&#45;&gt;Node29</title>
<path fill="none" stroke="#191970" d="M1033.3683,-280.2455C1020.6006,-271.7337 1001.8562,-259.2375 987.0701,-249.3801"/>
<polygon fill="#191970" stroke="#191970" points="988.726,-246.2775 978.464,-243.6427 984.8431,-252.1019 988.726,-246.2775"/>
</g>
<!-- Node31&#45;&gt;Node32 -->
<g id="edge56" class="edge">
<title>Node31&#45;&gt;Node32</title>
<path fill="none" stroke="#191970" d="M1056.5351,-280.2455C1063.4912,-272.2958 1073.4883,-260.8706 1081.8051,-251.3656"/>
<polygon fill="#191970" stroke="#191970" points="1084.6116,-253.4732 1088.5627,-243.6427 1079.3436,-248.8637 1084.6116,-253.4732"/>
</g>
<!-- Node34&#45;&gt;Node1 -->
<g id="edge62" class="edge">
<title>Node34&#45;&gt;Node1</title>
<path fill="none" stroke="#191970" d="M1502.8158,-170.2134C1447.739,-159.5411 1349.3688,-140.4798 1294.255,-129.8003"/>
<polygon fill="#191970" stroke="#191970" points="1294.6443,-126.3107 1284.1611,-127.8444 1293.3126,-133.1829 1294.6443,-126.3107"/>
</g>
<!-- Node34&#45;&gt;Node16 -->
<g id="edge61" class="edge">
<title>Node34&#45;&gt;Node16</title>
<path fill="none" stroke="#191970" d="M1515.6669,-168.3733C1488.9006,-158.9461 1448.009,-144.544 1418.9045,-134.2934"/>
<polygon fill="#191970" stroke="#191970" points="1419.7388,-130.8766 1409.144,-130.8557 1417.4133,-137.479 1419.7388,-130.8766"/>
</g>
<!-- Node35 -->
<g id="node36" class="node">
<title>Node35</title>
<polygon fill="#ffffff" stroke="#bfbfbf" points="1581.5,-112.5 1581.5,-131.5 1658.5,-131.5 1658.5,-112.5 1581.5,-112.5"/>
<text text-anchor="middle" x="1620" y="-119.5" font-family="Helvetica,sans-Serif" font-size="10.00" fill="#000000">periph_cpu.h</text>
</g>
<!-- Node34&#45;&gt;Node35 -->
<g id="edge63" class="edge">
<title>Node34&#45;&gt;Node35</title>
<path fill="none" stroke="#191970" d="M1556.4124,-168.2455C1568.0057,-159.814 1584.9748,-147.4729 1598.4678,-137.6598"/>
<polygon fill="#191970" stroke="#191970" points="1600.7126,-140.355 1606.7413,-131.6427 1596.5953,-134.6938 1600.7126,-140.355"/>
</g>
<!-- Node36 -->
<g id="node37" class="node">
<title>Node36</title>
<polygon fill="#ffffff" stroke="#bfbfbf" points="1482.5,-112.5 1482.5,-131.5 1563.5,-131.5 1563.5,-112.5 1482.5,-112.5"/>
<text text-anchor="middle" x="1523" y="-119.5" font-family="Helvetica,sans-Serif" font-size="10.00" fill="#000000">periph_conf.h</text>
</g>
<!-- Node34&#45;&gt;Node36 -->
<g id="edge64" class="edge">
<title>Node34&#45;&gt;Node36</title>
<path fill="none" stroke="#191970" d="M1539.5163,-168.2455C1536.8492,-160.7776 1533.0867,-150.2427 1529.8263,-141.1137"/>
<polygon fill="#191970" stroke="#191970" points="1533.1033,-139.8829 1526.4438,-131.6427 1526.5111,-142.2373 1533.1033,-139.8829"/>
</g>
<!-- Node37&#45;&gt;Node1 -->
<g id="edge69" class="edge">
<title>Node37&#45;&gt;Node1</title>
<path fill="none" stroke="#191970" d="M1615.3225,-224.4509C1542.742,-203.8711 1371.8524,-155.4164 1293.9541,-133.3288"/>
<polygon fill="#191970" stroke="#191970" points="1294.6169,-129.8788 1284.0413,-130.5181 1292.7073,-136.6133 1294.6169,-129.8788"/>
</g>
<!-- Node37&#45;&gt;Node3 -->
<g id="edge71" class="edge">
<title>Node37&#45;&gt;Node3</title>
<path fill="none" stroke="#191970" d="M1674.0783,-224.4782C1689.7206,-217.0888 1708.6072,-205.1801 1718,-188 1734.2049,-158.3599 1734.6875,-141.9172 1719,-112 1698.6755,-73.2396 1679.5043,-69.8871 1638,-56 1532.8668,-20.8231 730.6308,-11.8681 549.334,-10.2851"/>
<polygon fill="#191970" stroke="#191970" points="549.2786,-6.7846 539.2491,-10.1991 549.2189,-13.7843 549.2786,-6.7846"/>
</g>
<!-- Node37&#45;&gt;Node14 -->
<g id="edge70" class="edge">
<title>Node37&#45;&gt;Node14</title>
<path fill="none" stroke="#191970" d="M1655.1468,-224.2085C1668.7086,-201.2444 1697.7206,-143.49 1668,-112 1641.7368,-84.1733 1066.2117,-70.071 911.1761,-66.7683"/>
<polygon fill="#191970" stroke="#191970" points="911.2385,-63.2689 901.167,-66.5577 911.0912,-70.2674 911.2385,-63.2689"/>
</g>
<!-- Node37&#45;&gt;Node34 -->
<g id="edge74" class="edge">
<title>Node37&#45;&gt;Node34</title>
<path fill="none" stroke="#191970" d="M1630.5362,-224.2455C1613.8926,-215.4527 1589.2007,-202.4079 1570.2808,-192.4125"/>
<polygon fill="#191970" stroke="#191970" points="1571.7291,-189.2193 1561.2522,-187.6427 1568.4592,-195.4086 1571.7291,-189.2193"/>
</g>
<!-- Node37&#45;&gt;Node35 -->
<g id="edge72" class="edge">
<title>Node37&#45;&gt;Node35</title>
<path fill="none" stroke="#191970" d="M1646.5275,-224.4509C1641.7762,-206.1013 1631.2869,-165.5908 1625.0153,-141.3693"/>
<polygon fill="#191970" stroke="#191970" points="1628.3612,-140.3283 1622.4663,-131.5249 1621.5847,-142.083 1628.3612,-140.3283"/>
</g>
<!-- Node37&#45;&gt;Node36 -->
<g id="edge73" class="edge">
<title>Node37&#45;&gt;Node36</title>
<path fill="none" stroke="#191970" d="M1641.9765,-224.3196C1631.8686,-210.7766 1612.2033,-185.8351 1592,-168 1578.758,-156.3102 1562.3606,-145.2598 1548.8736,-136.9209"/>
<polygon fill="#191970" stroke="#191970" points="1550.4452,-133.7812 1540.076,-131.6064 1546.8258,-139.7729 1550.4452,-133.7812"/>
</g>
<!-- Node38 -->
<g id="node39" class="node">
<title>Node38</title>
<g id="a_node39"><a xlink:href="endian_8h.html" target="_top" xlink:title="libc header for endian conversion ">
<polygon fill="#ffffff" stroke="#000000" points="1571.5,-56.5 1571.5,-75.5 1628.5,-75.5 1628.5,-56.5 1571.5,-56.5"/>
<text text-anchor="middle" x="1600" y="-63.5" font-family="Helvetica,sans-Serif" font-size="10.00" fill="#000000">endian.h</text>
</a>
</g>
</g>
<!-- Node37&#45;&gt;Node38 -->
<g id="edge66" class="edge">
<title>Node37&#45;&gt;Node38</title>
<path fill="none" stroke="#191970" d="M1666.0567,-224.377C1678.3089,-216.4014 1693.8708,-203.8248 1701,-188 1714.8741,-157.2031 1719.2762,-140.4063 1701,-112 1687.2583,-90.6415 1660.891,-79.0824 1638.5429,-72.8939"/>
<polygon fill="#191970" stroke="#191970" points="1639.1679,-69.4425 1628.6175,-70.4125 1637.47,-76.2335 1639.1679,-69.4425"/>
</g>
<!-- Node39 -->
<g id="node40" class="node">
<title>Node39</title>
<g id="a_node40"><a xlink:href="errno_8h.html" target="_top" xlink:title="errno.h">
<polygon fill="#ffffff" stroke="#000000" points="1791.5,-168.5 1791.5,-187.5 1844.5,-187.5 1844.5,-168.5 1791.5,-168.5"/>
<text text-anchor="middle" x="1818" y="-175.5" font-family="Helvetica,sans-Serif" font-size="10.00" fill="#000000">errno.h</text>
</a>
</g>
</g>
<!-- Node37&#45;&gt;Node39 -->
<g id="edge68" class="edge">
<title>Node37&#45;&gt;Node39</title>
<path fill="none" stroke="#191970" d="M1678.0521,-224.3733C1706.7504,-214.8638 1750.7256,-200.2921 1781.7079,-190.0258"/>
<polygon fill="#191970" stroke="#191970" points="1782.8831,-193.3236 1791.2746,-186.8557 1780.6813,-186.6789 1782.8831,-193.3236"/>
</g>
<!-- Node38&#45;&gt;Node3 -->
<g id="edge67" class="edge">
<title>Node38&#45;&gt;Node3</title>
<path fill="none" stroke="#191970" d="M1571.4453,-63.9302C1541.4596,-61.7927 1492.9299,-58.435 1451,-56 1099.8869,-35.61 674.4883,-16.9213 549.2926,-11.5442"/>
<polygon fill="#191970" stroke="#191970" points="549.2609,-8.0397 539.1201,-11.1082 548.9611,-15.0333 549.2609,-8.0397"/>
</g>
</g>
</svg>
