<?xml version="1.0" encoding="UTF-8" standalone="no"?>
<!DOCTYPE svg PUBLIC "-//W3C//DTD SVG 1.1//EN"
 "http://www.w3.org/Graphics/SVG/1.1/DTD/svg11.dtd">
<!-- Generated by graphviz version 2.40.1 (0)
 -->
<!-- Title: drivers/include/can/candev.h Pages: 1 -->
<svg width="1304pt" height="240pt"
 viewBox="0.00 0.00 1304.00 240.00" xmlns="http://www.w3.org/2000/svg" xmlns:xlink="http://www.w3.org/1999/xlink">
<g id="graph0" class="graph" transform="scale(1 1) rotate(0) translate(4 236)">
<title>drivers/include/can/candev.h</title>
<polygon fill="#ffffff" stroke="transparent" points="-4,4 -4,-236 1300,-236 1300,4 -4,4"/>
<!-- Node33 -->
<g id="node1" class="node">
<title>Node33</title>
<polygon fill="#bfbfbf" stroke="#000000" points="443,-201.5 443,-231.5 549,-231.5 549,-201.5 443,-201.5"/>
<text text-anchor="start" x="451" y="-219.5" font-family="Helvetica,sans-Serif" font-size="10.00" fill="#000000">drivers/include/can</text>
<text text-anchor="middle" x="496" y="-208.5" font-family="Helvetica,sans-Serif" font-size="10.00" fill="#000000">/candev.h</text>
</g>
<!-- Node34 -->
<g id="node2" class="node">
<title>Node34</title>
<g id="a_node2"><a xlink:href="can__esp_8h.html" target="_top" xlink:title="cpu/esp32/include/can\l_esp.h">
<polygon fill="#ffffff" stroke="#000000" points="0,-134.5 0,-164.5 122,-164.5 122,-134.5 0,-134.5"/>
<text text-anchor="start" x="8" y="-152.5" font-family="Helvetica,sans-Serif" font-size="10.00" fill="#000000">cpu/esp32/include/can</text>
<text text-anchor="middle" x="61" y="-141.5" font-family="Helvetica,sans-Serif" font-size="10.00" fill="#000000">_esp.h</text>
</a>
</g>
</g>
<!-- Node33&#45;&gt;Node34 -->
<g id="edge1" class="edge">
<title>Node33&#45;&gt;Node34</title>
<path fill="none" stroke="#191970" d="M432.9535,-209.1158C360.0061,-200.2224 236.4021,-184.0756 131,-165 128.0604,-164.468 125.0568,-163.8995 122.027,-163.3061"/>
<polygon fill="#191970" stroke="#191970" points="432.5547,-212.593 442.9033,-210.3221 433.3973,-205.6439 432.5547,-212.593"/>
</g>
<!-- Node36 -->
<g id="node4" class="node">
<title>Node36</title>
<g id="a_node4"><a xlink:href="candev__linux_8h.html" target="_top" xlink:title="Implementation of simulated CAN controller driver using SocketCAN on Linux. ">
<polygon fill="#ffffff" stroke="#000000" points="280,-67.5 280,-97.5 382,-97.5 382,-67.5 280,-67.5"/>
<text text-anchor="start" x="288" y="-85.5" font-family="Helvetica,sans-Serif" font-size="10.00" fill="#000000">cpu/native/include</text>
<text text-anchor="middle" x="331" y="-74.5" font-family="Helvetica,sans-Serif" font-size="10.00" fill="#000000">/candev_linux.h</text>
</a>
</g>
</g>
<!-- Node33&#45;&gt;Node36 -->
<g id="edge3" class="edge">
<title>Node33&#45;&gt;Node36</title>
<path fill="none" stroke="#191970" d="M464.3635,-195.7968C451.0067,-186.7224 435.462,-175.7142 422,-165 394.3025,-142.9561 364.2623,-114.8115 346.5636,-97.7469"/>
<polygon fill="#191970" stroke="#191970" points="462.5298,-198.7815 472.781,-201.4582 466.4365,-192.973 462.5298,-198.7815"/>
</g>
<!-- Node38 -->
<g id="node6" class="node">
<title>Node38</title>
<g id="a_node6"><a xlink:href="candev__stm32_8h.html" target="_top" xlink:title="bxCAN specific definitions ">
<polygon fill="#ffffff" stroke="#000000" points="868,-134.5 868,-164.5 1008,-164.5 1008,-134.5 868,-134.5"/>
<text text-anchor="start" x="876" y="-152.5" font-family="Helvetica,sans-Serif" font-size="10.00" fill="#000000">cpu/stm32/include/candev</text>
<text text-anchor="middle" x="938" y="-141.5" font-family="Helvetica,sans-Serif" font-size="10.00" fill="#000000">_stm32.h</text>
</a>
</g>
</g>
<!-- Node33&#45;&gt;Node38 -->
<g id="edge5" class="edge">
<title>Node33&#45;&gt;Node38</title>
<path fill="none" stroke="#191970" d="M559.3757,-208.5399C631.9441,-199.1861 754.3136,-182.6833 859,-165 861.8941,-164.5111 864.845,-163.9982 867.8239,-163.4684"/>
<polygon fill="#191970" stroke="#191970" points="558.511,-205.1221 549.0383,-209.8674 559.4026,-212.0651 558.511,-205.1221"/>
</g>
<!-- Node39 -->
<g id="node7" class="node">
<title>Node39</title>
<g id="a_node7"><a xlink:href="fdcandev__stm32_8h.html" target="_top" xlink:title="FDCAN specific definitions. ">
<polygon fill="#ffffff" stroke="#000000" points="1026.5,-134.5 1026.5,-164.5 1175.5,-164.5 1175.5,-134.5 1026.5,-134.5"/>
<text text-anchor="start" x="1034.5" y="-152.5" font-family="Helvetica,sans-Serif" font-size="10.00" fill="#000000">cpu/stm32/include/fdcandev</text>
<text text-anchor="middle" x="1101" y="-141.5" font-family="Helvetica,sans-Serif" font-size="10.00" fill="#000000">_stm32.h</text>
</a>
</g>
</g>
<!-- Node33&#45;&gt;Node39 -->
<g id="edge6" class="edge">
<title>Node33&#45;&gt;Node39</title>
<path fill="none" stroke="#191970" d="M559.1088,-211.9808C657.308,-204.5619 852.5029,-188.2651 1017,-165 1020.0835,-164.5639 1023.2264,-164.095 1026.3981,-163.6017"/>
<polygon fill="#191970" stroke="#191970" points="558.7635,-208.4968 549.0533,-212.735 559.2871,-215.4772 558.7635,-208.4968"/>
</g>
<!-- Node40 -->
<g id="node8" class="node">
<title>Node40</title>
<g id="a_node8"><a xlink:href="candev__mcp2515_8h.html" target="_top" xlink:title="Definition of the implementation of the CAN controller driver. ">
<polygon fill="#ffffff" stroke="#000000" points="726.5,-134.5 726.5,-164.5 849.5,-164.5 849.5,-134.5 726.5,-134.5"/>
<text text-anchor="start" x="734.5" y="-152.5" font-family="Helvetica,sans-Serif" font-size="10.00" fill="#000000">drivers/include/candev</text>
<text text-anchor="middle" x="788" y="-141.5" font-family="Helvetica,sans-Serif" font-size="10.00" fill="#000000">_mcp2515.h</text>
</a>
</g>
</g>
<!-- Node33&#45;&gt;Node40 -->
<g id="edge7" class="edge">
<title>Node33&#45;&gt;Node40</title>
<path fill="none" stroke="#191970" d="M559.1667,-202.0063C608.6724,-190.6471 677.1673,-174.9308 726.2943,-163.6585"/>
<polygon fill="#191970" stroke="#191970" points="558.1817,-198.6412 549.2178,-204.2891 559.7473,-205.4639 558.1817,-198.6412"/>
</g>
<!-- Node44 -->
<g id="node12" class="node">
<title>Node44</title>
<g id="a_node12"><a xlink:href="drivers_2include_2periph_2can_8h.html" target="_top" xlink:title="Low&#45;level CAN peripheral driver interface definitions. ">
<polygon fill="#ffffff" stroke="#000000" points="140.5,-134.5 140.5,-164.5 261.5,-164.5 261.5,-134.5 140.5,-134.5"/>
<text text-anchor="start" x="148.5" y="-152.5" font-family="Helvetica,sans-Serif" font-size="10.00" fill="#000000">drivers/include/periph</text>
<text text-anchor="middle" x="201" y="-141.5" font-family="Helvetica,sans-Serif" font-size="10.00" fill="#000000">/can.h</text>
</a>
</g>
</g>
<!-- Node33&#45;&gt;Node44 -->
<g id="edge11" class="edge">
<title>Node33&#45;&gt;Node44</title>
<path fill="none" stroke="#191970" d="M433.0625,-202.2057C382.3774,-190.6942 311.5748,-174.6136 261.5388,-163.2495"/>
<polygon fill="#191970" stroke="#191970" points="432.3923,-205.6426 442.9192,-204.4444 433.9428,-198.8164 432.3923,-205.6426"/>
</g>
<!-- Node46 -->
<g id="node14" class="node">
<title>Node46</title>
<g id="a_node14"><a xlink:href="sys_2include_2can_2device_8h.html" target="_top" xlink:title="Definitions of CAN device interface. ">
<polygon fill="#ffffff" stroke="#000000" points="431,-140 431,-159 561,-159 561,-140 431,-140"/>
<text text-anchor="middle" x="496" y="-147" font-family="Helvetica,sans-Serif" font-size="10.00" fill="#000000">sys/include/can/device.h</text>
</a>
</g>
</g>
<!-- Node33&#45;&gt;Node46 -->
<g id="edge14" class="edge">
<title>Node33&#45;&gt;Node46</title>
<path fill="none" stroke="#191970" d="M496,-191.1199C496,-179.9072 496,-167.4031 496,-159.055"/>
<polygon fill="#191970" stroke="#191970" points="492.5001,-191.2966 496,-201.2967 499.5001,-191.2967 492.5001,-191.2966"/>
</g>
<!-- Node35 -->
<g id="node3" class="node">
<title>Node35</title>
<g id="a_node3"><a xlink:href="esp32_2include_2can__params_8h.html" target="_top" xlink:title="ESP32 CAN controller driver (esp_can) default parameters. ">
<polygon fill="#ffffff" stroke="#000000" points="0,-67.5 0,-97.5 122,-97.5 122,-67.5 0,-67.5"/>
<text text-anchor="start" x="8" y="-85.5" font-family="Helvetica,sans-Serif" font-size="10.00" fill="#000000">cpu/esp32/include/can</text>
<text text-anchor="middle" x="61" y="-74.5" font-family="Helvetica,sans-Serif" font-size="10.00" fill="#000000">_params.h</text>
</a>
</g>
</g>
<!-- Node34&#45;&gt;Node35 -->
<g id="edge2" class="edge">
<title>Node34&#45;&gt;Node35</title>
<path fill="none" stroke="#191970" d="M61,-124.0249C61,-115.128 61,-105.4287 61,-97.6432"/>
<polygon fill="#191970" stroke="#191970" points="57.5001,-124.2966 61,-134.2967 64.5001,-124.2967 57.5001,-124.2966"/>
</g>
<!-- Node37 -->
<g id="node5" class="node">
<title>Node37</title>
<g id="a_node5"><a xlink:href="native_2include_2can__params_8h.html" target="_top" xlink:title="Default linux can config. ">
<polygon fill="#ffffff" stroke="#000000" points="364,-.5 364,-30.5 466,-30.5 466,-.5 364,-.5"/>
<text text-anchor="start" x="372" y="-18.5" font-family="Helvetica,sans-Serif" font-size="10.00" fill="#000000">cpu/native/include</text>
<text text-anchor="middle" x="415" y="-7.5" font-family="Helvetica,sans-Serif" font-size="10.00" fill="#000000">/can_params.h</text>
</a>
</g>
</g>
<!-- Node36&#45;&gt;Node37 -->
<g id="edge4" class="edge">
<title>Node36&#45;&gt;Node37</title>
<path fill="none" stroke="#191970" d="M358.23,-60.7808C370.5699,-50.9383 384.8591,-39.541 396.0145,-30.6432"/>
<polygon fill="#191970" stroke="#191970" points="355.6962,-58.3248 350.0609,-67.2967 360.0612,-63.7973 355.6962,-58.3248"/>
</g>
<!-- Node41 -->
<g id="node9" class="node">
<title>Node41</title>
<g id="a_node9"><a xlink:href="mcp2515__params_8h.html" target="_top" xlink:title="Parameters for the CAN driver implementation. ">
<polygon fill="#ffffff" stroke="#000000" points="828,-67.5 828,-97.5 962,-97.5 962,-67.5 828,-67.5"/>
<text text-anchor="start" x="836" y="-85.5" font-family="Helvetica,sans-Serif" font-size="10.00" fill="#000000">drivers/mcp2515/include</text>
<text text-anchor="middle" x="895" y="-74.5" font-family="Helvetica,sans-Serif" font-size="10.00" fill="#000000">/mcp2515_params.h</text>
</a>
</g>
</g>
<!-- Node40&#45;&gt;Node41 -->
<g id="edge8" class="edge">
<title>Node40&#45;&gt;Node41</title>
<path fill="none" stroke="#191970" d="M820.6173,-129.0761C836.745,-118.9774 855.8758,-106.9983 870.697,-97.7177"/>
<polygon fill="#191970" stroke="#191970" points="818.6309,-126.1903 812.0129,-134.4639 822.3459,-132.1232 818.6309,-126.1903"/>
</g>
<!-- Node42 -->
<g id="node10" class="node">
<title>Node42</title>
<g id="a_node10"><a xlink:href="mcp2515_8h.html" target="_top" xlink:title="Driver for the Microchip MCP2515 can controller. ">
<polygon fill="#ffffff" stroke="#000000" points="980.5,-73 980.5,-92 1133.5,-92 1133.5,-73 980.5,-73"/>
<text text-anchor="middle" x="1057" y="-80" font-family="Helvetica,sans-Serif" font-size="10.00" fill="#000000">drivers/mcp2515/mcp2515.h</text>
</a>
</g>
</g>
<!-- Node40&#45;&gt;Node42 -->
<g id="edge9" class="edge">
<title>Node40&#45;&gt;Node42</title>
<path fill="none" stroke="#191970" d="M858.0778,-132.0457C909.408,-119.2608 977.1276,-102.3939 1018.837,-92.0053"/>
<polygon fill="#191970" stroke="#191970" points="857.2265,-128.6507 848.3689,-134.4639 858.9183,-135.4432 857.2265,-128.6507"/>
</g>
<!-- Node43 -->
<g id="node11" class="node">
<title>Node43</title>
<g id="a_node11"><a xlink:href="mcp2515__spi_8h.html" target="_top" xlink:title="Driver for the Microchip MCP2515 can controller. ">
<polygon fill="#ffffff" stroke="#000000" points="1152,-67.5 1152,-97.5 1296,-97.5 1296,-67.5 1152,-67.5"/>
<text text-anchor="start" x="1160" y="-85.5" font-family="Helvetica,sans-Serif" font-size="10.00" fill="#000000">drivers/mcp2515/mcp2515</text>
<text text-anchor="middle" x="1224" y="-74.5" font-family="Helvetica,sans-Serif" font-size="10.00" fill="#000000">_spi.h</text>
</a>
</g>
</g>
<!-- Node40&#45;&gt;Node43 -->
<g id="edge10" class="edge">
<title>Node40&#45;&gt;Node43</title>
<path fill="none" stroke="#191970" d="M859.5881,-134.0012C986.1205,-112.6759 1020.5346,-117.4595 1143,-98 1145.8281,-97.5506 1148.7086,-97.0769 1151.6162,-96.5853"/>
<polygon fill="#191970" stroke="#191970" points="858.7764,-130.589 849.508,-135.722 859.9544,-137.4892 858.7764,-130.589"/>
</g>
<!-- Node44&#45;&gt;Node35 -->
<g id="edge12" class="edge">
<title>Node44&#45;&gt;Node35</title>
<path fill="none" stroke="#191970" d="M160.362,-130.0518C138.8498,-119.7567 112.819,-107.2991 92.7983,-97.7177"/>
<polygon fill="#191970" stroke="#191970" points="159.0501,-133.3041 169.5813,-134.4639 162.0719,-126.9899 159.0501,-133.3041"/>
</g>
<!-- Node45 -->
<g id="node13" class="node">
<title>Node45</title>
<g id="a_node13"><a xlink:href="stm32_2include_2can__params_8h.html" target="_top" xlink:title="STM32 CAN controller driver (bxCAN) default parameters. ">
<polygon fill="#ffffff" stroke="#000000" points="140,-67.5 140,-97.5 262,-97.5 262,-67.5 140,-67.5"/>
<text text-anchor="start" x="148" y="-85.5" font-family="Helvetica,sans-Serif" font-size="10.00" fill="#000000">cpu/stm32/include/can</text>
<text text-anchor="middle" x="201" y="-74.5" font-family="Helvetica,sans-Serif" font-size="10.00" fill="#000000">_params.h</text>
</a>
</g>
</g>
<!-- Node44&#45;&gt;Node45 -->
<g id="edge13" class="edge">
<title>Node44&#45;&gt;Node45</title>
<path fill="none" stroke="#191970" d="M201,-124.0249C201,-115.128 201,-105.4287 201,-97.6432"/>
<polygon fill="#191970" stroke="#191970" points="197.5001,-124.2966 201,-134.2967 204.5001,-124.2967 197.5001,-124.2966"/>
</g>
<!-- Node46&#45;&gt;Node35 -->
<g id="edge15" class="edge">
<title>Node46&#45;&gt;Node35</title>
<path fill="none" stroke="#191970" d="M420.6548,-140.6062C346.6589,-131.4632 230.6885,-116.0416 131,-98 128.0604,-97.468 125.0568,-96.8995 122.027,-96.3061"/>
<polygon fill="#191970" stroke="#191970" points="420.4591,-144.1084 430.8113,-141.8543 421.3129,-137.1607 420.4591,-144.1084"/>
</g>
<!-- Node46&#45;&gt;Node36 -->
<g id="edge16" class="edge">
<title>Node46&#45;&gt;Node36</title>
<path fill="none" stroke="#191970" d="M462.8107,-136.0231C435.3701,-124.8806 396.4326,-109.0696 367.9939,-97.5218"/>
<polygon fill="#191970" stroke="#191970" points="461.7774,-139.3811 472.3595,-139.9005 464.4111,-132.8954 461.7774,-139.3811"/>
</g>
<!-- Node46&#45;&gt;Node37 -->
<g id="edge17" class="edge">
<title>Node46&#45;&gt;Node37</title>
<path fill="none" stroke="#191970" d="M509.0226,-131.1889C519.7569,-113.6343 531.3724,-86.933 519,-67 507.2589,-48.084 486.277,-35.9027 466.2193,-28.1665"/>
<polygon fill="#191970" stroke="#191970" points="505.867,-129.6183 503.3077,-139.8994 511.7198,-133.4583 505.867,-129.6183"/>
</g>
<!-- Node46&#45;&gt;Node41 -->
<g id="edge20" class="edge">
<title>Node46&#45;&gt;Node41</title>
<path fill="none" stroke="#191970" d="M571.3407,-138.4265C636.902,-128.5664 734.4114,-113.362 819,-98 821.9149,-97.4706 824.89,-96.9178 827.8935,-96.3494"/>
<polygon fill="#191970" stroke="#191970" points="570.47,-135.0179 561.0997,-139.9623 571.5082,-141.9405 570.47,-135.0179"/>
</g>
<!-- Node46&#45;&gt;Node45 -->
<g id="edge19" class="edge">
<title>Node46&#45;&gt;Node45</title>
<path fill="none" stroke="#191970" d="M444.2507,-137.7468C393.413,-126.2006 315.8507,-108.5847 262.0309,-96.3612"/>
<polygon fill="#191970" stroke="#191970" points="443.5201,-141.1699 454.047,-139.9717 445.0705,-134.3437 443.5201,-141.1699"/>
</g>
<!-- Node47 -->
<g id="node15" class="node">
<title>Node47</title>
<g id="a_node15"><a xlink:href="samd5x_2include_2can__params_8h.html" target="_top" xlink:title="CPU specific definitions for CAN controllers. ">
<polygon fill="#ffffff" stroke="#000000" points="700,-67.5 700,-97.5 810,-97.5 810,-67.5 700,-67.5"/>
<text text-anchor="start" x="708" y="-85.5" font-family="Helvetica,sans-Serif" font-size="10.00" fill="#000000">cpu/samd5x/include</text>
<text text-anchor="middle" x="755" y="-74.5" font-family="Helvetica,sans-Serif" font-size="10.00" fill="#000000">/can_params.h</text>
</a>
</g>
</g>
<!-- Node46&#45;&gt;Node47 -->
<g id="edge18" class="edge">
<title>Node46&#45;&gt;Node47</title>
<path fill="none" stroke="#191970" d="M542.7208,-137.4139C586.8348,-126.0022 653.0131,-108.8827 699.7309,-96.7974"/>
<polygon fill="#191970" stroke="#191970" points="541.6381,-134.0787 532.8333,-139.9717 543.3912,-140.8556 541.6381,-134.0787"/>
</g>
<!-- Node48 -->
<g id="node16" class="node">
<title>Node48</title>
<g id="a_node16"><a xlink:href="dll_8h.html" target="_top" xlink:title="Definitions of low&#45;level CAN DLL interface. ">
<polygon fill="#ffffff" stroke="#000000" points="400,-73 400,-92 510,-92 510,-73 400,-73"/>
<text text-anchor="middle" x="455" y="-80" font-family="Helvetica,sans-Serif" font-size="10.00" fill="#000000">sys/include/can/dll.h</text>
</a>
</g>
</g>
<!-- Node46&#45;&gt;Node48 -->
<g id="edge21" class="edge">
<title>Node46&#45;&gt;Node48</title>
<path fill="none" stroke="#191970" d="M484.7464,-131.1099C477.0173,-118.4795 467.0699,-102.2241 460.8634,-92.0817"/>
<polygon fill="#191970" stroke="#191970" points="481.9206,-133.1977 490.1257,-139.9005 487.8914,-129.544 481.9206,-133.1977"/>
</g>
<!-- Node49 -->
<g id="node17" class="node">
<title>Node49</title>
<g id="a_node17"><a xlink:href="can_2raw_8h.html" target="_top" xlink:title="Definitions high&#45;level RAW CAN interface. ">
<polygon fill="#ffffff" stroke="#000000" points="566,-73 566,-92 682,-92 682,-73 566,-73"/>
<text text-anchor="middle" x="624" y="-80" font-family="Helvetica,sans-Serif" font-size="10.00" fill="#000000">sys/include/can/raw.h</text>
</a>
</g>
</g>
<!-- Node46&#45;&gt;Node49 -->
<g id="edge22" class="edge">
<title>Node46&#45;&gt;Node49</title>
<path fill="none" stroke="#191970" d="M523.2625,-135.2298C548.1119,-122.2227 584.1336,-103.3676 605.6947,-92.0817"/>
<polygon fill="#191970" stroke="#191970" points="521.5758,-132.1621 514.3393,-139.9005 524.8221,-138.3639 521.5758,-132.1621"/>
</g>
<!-- Node50 -->
<g id="node18" class="node">
<title>Node50</title>
<g id="a_node18"><a xlink:href="can_2conn_2raw_8h.html" target="_top" xlink:title="Definitions of generic CAN interface. ">
<polygon fill="#ffffff" stroke="#000000" points="567.5,-.5 567.5,-30.5 680.5,-30.5 680.5,-.5 567.5,-.5"/>
<text text-anchor="start" x="575.5" y="-18.5" font-family="Helvetica,sans-Serif" font-size="10.00" fill="#000000">sys/include/can/conn</text>
<text text-anchor="middle" x="624" y="-7.5" font-family="Helvetica,sans-Serif" font-size="10.00" fill="#000000">/raw.h</text>
</a>
</g>
</g>
<!-- Node49&#45;&gt;Node50 -->
<g id="edge23" class="edge">
<title>Node49&#45;&gt;Node50</title>
<path fill="none" stroke="#191970" d="M624,-62.7758C624,-52.4641 624,-40.0437 624,-30.5218"/>
<polygon fill="#191970" stroke="#191970" points="620.5001,-62.9005 624,-72.9005 627.5001,-62.9006 620.5001,-62.9005"/>
</g>
</g>
</svg>
