<?xml version="1.0" encoding="UTF-8" standalone="no"?>
<!DOCTYPE svg PUBLIC "-//W3C//DTD SVG 1.1//EN"
 "http://www.w3.org/Graphics/SVG/1.1/DTD/svg11.dtd">
<!-- Generated by graphviz version 2.40.1 (0)
 -->
<!-- Title: sys/include/senml/cbor.h Pages: 1 -->
<svg width="368pt" height="140pt"
 viewBox="0.00 0.00 367.50 140.00" xmlns="http://www.w3.org/2000/svg" xmlns:xlink="http://www.w3.org/1999/xlink">
<g id="graph0" class="graph" transform="scale(1 1) rotate(0) translate(4 136)">
<title>sys/include/senml/cbor.h</title>
<polygon fill="#ffffff" stroke="transparent" points="-4,4 -4,-136 363.5,-136 363.5,4 -4,4"/>
<!-- Node0 -->
<g id="node1" class="node">
<title>Node0</title>
<polygon fill="#bfbfbf" stroke="#000000" points="93,-112.5 93,-131.5 225,-131.5 225,-112.5 93,-112.5"/>
<text text-anchor="middle" x="159" y="-119.5" font-family="Helvetica,sans-Serif" font-size="10.00" fill="#000000">sys/include/senml/cbor.h</text>
</g>
<!-- Node1 -->
<g id="node2" class="node">
<title>Node1</title>
<polygon fill="#ffffff" stroke="#bfbfbf" points="0,-.5 0,-19.5 56,-19.5 56,-.5 0,-.5"/>
<text text-anchor="middle" x="28" y="-7.5" font-family="Helvetica,sans-Serif" font-size="10.00" fill="#000000">stddef.h</text>
</g>
<!-- Node0&#45;&gt;Node1 -->
<g id="edge1" class="edge">
<title>Node0&#45;&gt;Node1</title>
<path fill="none" stroke="#191970" d="M147.831,-112.4509C125.4017,-93.2747 74.6643,-49.8962 46.9468,-26.1988"/>
<polygon fill="#191970" stroke="#191970" points="49.0159,-23.363 39.1407,-19.5249 44.4671,-28.6835 49.0159,-23.363"/>
</g>
<!-- Node2 -->
<g id="node3" class="node">
<title>Node2</title>
<polygon fill="#ffffff" stroke="#bfbfbf" points="74,-.5 74,-19.5 134,-19.5 134,-.5 74,-.5"/>
<text text-anchor="middle" x="104" y="-7.5" font-family="Helvetica,sans-Serif" font-size="10.00" fill="#000000">stdbool.h</text>
</g>
<!-- Node0&#45;&gt;Node2 -->
<g id="edge2" class="edge">
<title>Node0&#45;&gt;Node2</title>
<path fill="none" stroke="#191970" d="M150.1072,-112.4656C142.2685,-103.6128 131.0309,-89.7618 124,-76 116.5101,-61.3398 111.2963,-43.3877 108.0742,-29.9093"/>
<polygon fill="#191970" stroke="#191970" points="111.416,-28.8126 105.83,-19.81 104.5827,-30.3312 111.416,-28.8126"/>
</g>
<!-- Node3 -->
<g id="node4" class="node">
<title>Node3</title>
<polygon fill="#ffffff" stroke="#bfbfbf" points="236,-.5 236,-19.5 288,-19.5 288,-.5 236,-.5"/>
<text text-anchor="middle" x="262" y="-7.5" font-family="Helvetica,sans-Serif" font-size="10.00" fill="#000000">stdint.h</text>
</g>
<!-- Node0&#45;&gt;Node3 -->
<g id="edge3" class="edge">
<title>Node0&#45;&gt;Node3</title>
<path fill="none" stroke="#191970" d="M167.7817,-112.4509C185.1889,-93.5227 224.2817,-51.014 246.2485,-27.1279"/>
<polygon fill="#191970" stroke="#191970" points="249.0476,-29.2547 253.2405,-19.5249 243.8951,-24.5163 249.0476,-29.2547"/>
</g>
<!-- Node4 -->
<g id="node5" class="node">
<title>Node4</title>
<g id="a_node5"><a xlink:href="senml_8h.html" target="_top" xlink:title="Basic SenML types. ">
<polygon fill="#ffffff" stroke="#000000" points="132.5,-56.5 132.5,-75.5 185.5,-75.5 185.5,-56.5 132.5,-56.5"/>
<text text-anchor="middle" x="159" y="-63.5" font-family="Helvetica,sans-Serif" font-size="10.00" fill="#000000">senml.h</text>
</a>
</g>
</g>
<!-- Node0&#45;&gt;Node4 -->
<g id="edge4" class="edge">
<title>Node0&#45;&gt;Node4</title>
<path fill="none" stroke="#191970" d="M159,-112.2455C159,-104.9382 159,-94.6944 159,-85.7046"/>
<polygon fill="#191970" stroke="#191970" points="162.5001,-85.6426 159,-75.6427 155.5001,-85.6427 162.5001,-85.6426"/>
</g>
<!-- Node6 -->
<g id="node7" class="node">
<title>Node6</title>
<polygon fill="#ffffff" stroke="#bfbfbf" points="242.5,-56.5 242.5,-75.5 359.5,-75.5 359.5,-56.5 242.5,-56.5"/>
<text text-anchor="middle" x="301" y="-63.5" font-family="Helvetica,sans-Serif" font-size="10.00" fill="#000000">nanocbor/nanocbor.h</text>
</g>
<!-- Node0&#45;&gt;Node6 -->
<g id="edge9" class="edge">
<title>Node0&#45;&gt;Node6</title>
<path fill="none" stroke="#191970" d="M183.4107,-112.3733C206.6142,-103.2226 241.7038,-89.3844 267.5142,-79.2057"/>
<polygon fill="#191970" stroke="#191970" points="268.8892,-82.4258 276.9079,-75.5011 266.3211,-75.9139 268.8892,-82.4258"/>
</g>
<!-- Node4&#45;&gt;Node1 -->
<g id="edge5" class="edge">
<title>Node4&#45;&gt;Node1</title>
<path fill="none" stroke="#191970" d="M136.4803,-56.3733C115.2628,-47.3032 83.2724,-33.6279 59.5231,-23.4755"/>
<polygon fill="#191970" stroke="#191970" points="60.7967,-20.2136 50.2258,-19.5011 58.0452,-26.6502 60.7967,-20.2136"/>
</g>
<!-- Node4&#45;&gt;Node2 -->
<g id="edge6" class="edge">
<title>Node4&#45;&gt;Node2</title>
<path fill="none" stroke="#191970" d="M149.4197,-56.2455C141.4542,-48.1352 129.9359,-36.4075 120.4921,-26.7919"/>
<polygon fill="#191970" stroke="#191970" points="122.9747,-24.3247 113.4705,-19.6427 117.9805,-29.2297 122.9747,-24.3247"/>
</g>
<!-- Node4&#45;&gt;Node3 -->
<g id="edge7" class="edge">
<title>Node4&#45;&gt;Node3</title>
<path fill="none" stroke="#191970" d="M176.9412,-56.2455C193.04,-47.4928 216.8879,-34.527 235.2391,-24.5496"/>
<polygon fill="#191970" stroke="#191970" points="237.1507,-27.4942 244.2644,-19.6427 233.8071,-21.3444 237.1507,-27.4942"/>
</g>
<!-- Node5 -->
<g id="node6" class="node">
<title>Node5</title>
<g id="a_node6"><a xlink:href="modules_8h.html" target="_top" xlink:title="Common macros and compiler attributes/pragmas configuration. ">
<polygon fill="#ffffff" stroke="#000000" points="152.5,-.5 152.5,-19.5 217.5,-19.5 217.5,-.5 152.5,-.5"/>
<text text-anchor="middle" x="185" y="-7.5" font-family="Helvetica,sans-Serif" font-size="10.00" fill="#000000">modules.h</text>
</a>
</g>
</g>
<!-- Node4&#45;&gt;Node5 -->
<g id="edge8" class="edge">
<title>Node4&#45;&gt;Node5</title>
<path fill="none" stroke="#191970" d="M163.5289,-56.2455C167.0334,-48.6973 171.9927,-38.0158 176.2623,-28.8197"/>
<polygon fill="#191970" stroke="#191970" points="179.4864,-30.1867 180.523,-19.6427 173.1373,-27.2389 179.4864,-30.1867"/>
</g>
</g>
</svg>
