<?xml version="1.0" encoding="UTF-8" standalone="no"?>
<!DOCTYPE svg PUBLIC "-//W3C//DTD SVG 1.1//EN"
 "http://www.w3.org/Graphics/SVG/1.1/DTD/svg11.dtd">
<!-- Generated by graphviz version 2.40.1 (0)
 -->
<!-- Title: drivers/cc2420/include/cc2420_params.h Pages: 1 -->
<svg width="1401pt" height="487pt"
 viewBox="0.00 0.00 1400.50 487.00" xmlns="http://www.w3.org/2000/svg" xmlns:xlink="http://www.w3.org/1999/xlink">
<g id="graph0" class="graph" transform="scale(1 1) rotate(0) translate(4 483)">
<title>drivers/cc2420/include/cc2420_params.h</title>
<polygon fill="#ffffff" stroke="transparent" points="-4,4 -4,-483 1396.5,-483 1396.5,4 -4,4"/>
<!-- Node0 -->
<g id="node1" class="node">
<title>Node0</title>
<polygon fill="#bfbfbf" stroke="#000000" points="569,-448.5 569,-478.5 692,-478.5 692,-448.5 569,-448.5"/>
<text text-anchor="start" x="577" y="-466.5" font-family="Helvetica,sans-Serif" font-size="10.00" fill="#000000">drivers/cc2420/include</text>
<text text-anchor="middle" x="630.5" y="-455.5" font-family="Helvetica,sans-Serif" font-size="10.00" fill="#000000">/cc2420_params.h</text>
</g>
<!-- Node1 -->
<g id="node2" class="node">
<title>Node1</title>
<polygon fill="#ffffff" stroke="#bfbfbf" points="567,-392.5 567,-411.5 620,-411.5 620,-392.5 567,-392.5"/>
<text text-anchor="middle" x="593.5" y="-399.5" font-family="Helvetica,sans-Serif" font-size="10.00" fill="#000000">board.h</text>
</g>
<!-- Node0&#45;&gt;Node1 -->
<g id="edge1" class="edge">
<title>Node0&#45;&gt;Node1</title>
<path fill="none" stroke="#191970" d="M621.3539,-448.2977C616.3249,-439.9388 610.0445,-429.4997 604.7209,-420.6509"/>
<polygon fill="#191970" stroke="#191970" points="607.5785,-418.6114 599.4242,-411.8469 601.5803,-422.2201 607.5785,-418.6114"/>
</g>
<!-- Node2 -->
<g id="node3" class="node">
<title>Node2</title>
<g id="a_node3"><a xlink:href="cc2420_8h.html" target="_top" xlink:title="Interface definition for the CC2420 driver. ">
<polygon fill="#ffffff" stroke="#000000" points="638,-392.5 638,-411.5 697,-411.5 697,-392.5 638,-392.5"/>
<text text-anchor="middle" x="667.5" y="-399.5" font-family="Helvetica,sans-Serif" font-size="10.00" fill="#000000">cc2420.h</text>
</a>
</g>
</g>
<!-- Node0&#45;&gt;Node2 -->
<g id="edge2" class="edge">
<title>Node0&#45;&gt;Node2</title>
<path fill="none" stroke="#191970" d="M639.6461,-448.2977C644.6751,-439.9388 650.9555,-429.4997 656.2791,-420.6509"/>
<polygon fill="#191970" stroke="#191970" points="659.4197,-422.2201 661.5758,-411.8469 653.4215,-418.6114 659.4197,-422.2201"/>
</g>
<!-- Node3 -->
<g id="node4" class="node">
<title>Node3</title>
<polygon fill="#ffffff" stroke="#bfbfbf" points="742.5,-.5 742.5,-19.5 794.5,-19.5 794.5,-.5 742.5,-.5"/>
<text text-anchor="middle" x="768.5" y="-7.5" font-family="Helvetica,sans-Serif" font-size="10.00" fill="#000000">stdint.h</text>
</g>
<!-- Node2&#45;&gt;Node3 -->
<g id="edge3" class="edge">
<title>Node2&#45;&gt;Node3</title>
<path fill="none" stroke="#191970" d="M697.2725,-400.5997C833.6986,-393.7961 1392.5,-361.561 1392.5,-290 1392.5,-290 1392.5,-290 1392.5,-122 1392.5,-31.7657 1288.5871,-75.5675 1200.5,-56 1056.2845,-23.9642 879.8619,-14.0222 804.9379,-11.1191"/>
<polygon fill="#191970" stroke="#191970" points="804.7579,-7.6102 794.6359,-10.74 804.5005,-14.6055 804.7579,-7.6102"/>
</g>
<!-- Node4 -->
<g id="node5" class="node">
<title>Node4</title>
<g id="a_node5"><a xlink:href="spi_8h.html" target="_top" xlink:title="Low&#45;level SPI peripheral driver interface definition. ">
<polygon fill="#ffffff" stroke="#000000" points="315,-224.5 315,-243.5 388,-243.5 388,-224.5 315,-224.5"/>
<text text-anchor="middle" x="351.5" y="-231.5" font-family="Helvetica,sans-Serif" font-size="10.00" fill="#000000">periph/spi.h</text>
</a>
</g>
</g>
<!-- Node2&#45;&gt;Node4 -->
<g id="edge4" class="edge">
<title>Node2&#45;&gt;Node4</title>
<path fill="none" stroke="#191970" d="M649.6051,-392.4862C596.8256,-364.4263 441.5558,-281.8778 378.5394,-248.3754"/>
<polygon fill="#191970" stroke="#191970" points="380.0631,-245.2216 369.5903,-243.6177 376.7771,-251.4024 380.0631,-245.2216"/>
</g>
<!-- Node11 -->
<g id="node12" class="node">
<title>Node11</title>
<g id="a_node12"><a xlink:href="drivers_2include_2periph_2gpio_8h.html" target="_top" xlink:title="Low&#45;level GPIO peripheral driver interface definitions. ">
<polygon fill="#ffffff" stroke="#000000" points="165.5,-168.5 165.5,-187.5 245.5,-187.5 245.5,-168.5 165.5,-168.5"/>
<text text-anchor="middle" x="205.5" y="-175.5" font-family="Helvetica,sans-Serif" font-size="10.00" fill="#000000">periph/gpio.h</text>
</a>
</g>
</g>
<!-- Node2&#45;&gt;Node11 -->
<g id="edge18" class="edge">
<title>Node2&#45;&gt;Node11</title>
<path fill="none" stroke="#191970" d="M640.131,-392.3551C615.2501,-383.428 577.6269,-369.5299 545.5,-356 437.0178,-310.3138 408.2306,-301.4633 305.5,-244 277.477,-228.3251 246.891,-207.5576 227.0211,-193.5377"/>
<polygon fill="#191970" stroke="#191970" points="228.8708,-190.5583 218.6935,-187.6134 224.8131,-196.2622 228.8708,-190.5583"/>
</g>
<!-- Node13 -->
<g id="node14" class="node">
<title>Node13</title>
<g id="a_node14"><a xlink:href="drivers_2include_2net_2netdev_8h.html" target="_top" xlink:title="Definitions low&#45;level network driver interface. ">
<polygon fill="#ffffff" stroke="#000000" points="629,-224.5 629,-243.5 706,-243.5 706,-224.5 629,-224.5"/>
<text text-anchor="middle" x="667.5" y="-231.5" font-family="Helvetica,sans-Serif" font-size="10.00" fill="#000000">net/netdev.h</text>
</a>
</g>
</g>
<!-- Node2&#45;&gt;Node13 -->
<g id="edge19" class="edge">
<title>Node2&#45;&gt;Node13</title>
<path fill="none" stroke="#191970" d="M667.5,-392.4862C667.5,-365.9293 667.5,-290.5651 667.5,-254.1655"/>
<polygon fill="#191970" stroke="#191970" points="671.0001,-253.8278 667.5,-243.8279 664.0001,-253.8279 671.0001,-253.8278"/>
</g>
<!-- Node24 -->
<g id="node25" class="node">
<title>Node24</title>
<g id="a_node25"><a xlink:href="drivers_2include_2net_2netdev_2ieee802154_8h.html" target="_top" xlink:title="Definitions for netdev common IEEE 802.15.4 code. ">
<polygon fill="#ffffff" stroke="#000000" points="721.5,-336.5 721.5,-355.5 859.5,-355.5 859.5,-336.5 721.5,-336.5"/>
<text text-anchor="middle" x="790.5" y="-343.5" font-family="Helvetica,sans-Serif" font-size="10.00" fill="#000000">net/netdev/ieee802154.h</text>
</a>
</g>
</g>
<!-- Node2&#45;&gt;Node24 -->
<g id="edge43" class="edge">
<title>Node2&#45;&gt;Node24</title>
<path fill="none" stroke="#191970" d="M688.6445,-392.3733C708.3892,-383.3838 738.0698,-369.8706 760.3055,-359.7471"/>
<polygon fill="#191970" stroke="#191970" points="761.9806,-362.8302 769.6315,-355.5011 759.08,-356.4594 761.9806,-362.8302"/>
</g>
<!-- Node4&#45;&gt;Node3 -->
<g id="edge10" class="edge">
<title>Node4&#45;&gt;Node3</title>
<path fill="none" stroke="#191970" d="M359.7838,-224.2983C386.4096,-193.82 473.5576,-99.4453 567.5,-56 621.7499,-30.9112 690.7362,-18.9813 732.1596,-13.7179"/>
<polygon fill="#191970" stroke="#191970" points="732.8145,-17.1643 742.3227,-12.4906 731.9752,-10.2148 732.8145,-17.1643"/>
</g>
<!-- Node5 -->
<g id="node6" class="node">
<title>Node5</title>
<g id="a_node6"><a xlink:href="endian_8h.html" target="_top" xlink:title="libc header for endian conversion ">
<polygon fill="#ffffff" stroke="#000000" points="880,-56.5 880,-75.5 937,-75.5 937,-56.5 880,-56.5"/>
<text text-anchor="middle" x="908.5" y="-63.5" font-family="Helvetica,sans-Serif" font-size="10.00" fill="#000000">endian.h</text>
</a>
</g>
</g>
<!-- Node4&#45;&gt;Node5 -->
<g id="edge5" class="edge">
<title>Node4&#45;&gt;Node5</title>
<path fill="none" stroke="#191970" d="M388.3177,-233.633C482.3124,-232.1628 728.7806,-224.8056 800.5,-188 846.4256,-164.4315 881.7546,-112.4723 898.2581,-84.5736"/>
<polygon fill="#191970" stroke="#191970" points="901.3543,-86.2101 903.297,-75.7949 895.2833,-82.7254 901.3543,-86.2101"/>
</g>
<!-- Node6 -->
<g id="node7" class="node">
<title>Node6</title>
<g id="a_node7"><a xlink:href="errno_8h.html" target="_top" xlink:title="errno.h">
<polygon fill="#ffffff" stroke="#000000" points="426,-168.5 426,-187.5 479,-187.5 479,-168.5 426,-168.5"/>
<text text-anchor="middle" x="452.5" y="-175.5" font-family="Helvetica,sans-Serif" font-size="10.00" fill="#000000">errno.h</text>
</a>
</g>
</g>
<!-- Node4&#45;&gt;Node6 -->
<g id="edge7" class="edge">
<title>Node4&#45;&gt;Node6</title>
<path fill="none" stroke="#191970" d="M369.0929,-224.2455C384.879,-215.4928 408.2639,-202.527 426.2587,-192.5496"/>
<polygon fill="#191970" stroke="#191970" points="428.0603,-195.5528 435.1087,-187.6427 424.6659,-189.4308 428.0603,-195.5528"/>
</g>
<!-- Node7 -->
<g id="node8" class="node">
<title>Node7</title>
<polygon fill="#ffffff" stroke="#bfbfbf" points="263.5,-112.5 263.5,-131.5 323.5,-131.5 323.5,-112.5 263.5,-112.5"/>
<text text-anchor="middle" x="293.5" y="-119.5" font-family="Helvetica,sans-Serif" font-size="10.00" fill="#000000">stdbool.h</text>
</g>
<!-- Node4&#45;&gt;Node7 -->
<g id="edge8" class="edge">
<title>Node4&#45;&gt;Node7</title>
<path fill="none" stroke="#191970" d="M346.555,-224.4509C336.9669,-205.936 315.6949,-164.8591 303.1936,-140.7187"/>
<polygon fill="#191970" stroke="#191970" points="306.1391,-138.7953 298.4325,-131.5249 299.9231,-142.0144 306.1391,-138.7953"/>
</g>
<!-- Node8 -->
<g id="node9" class="node">
<title>Node8</title>
<polygon fill="#ffffff" stroke="#bfbfbf" points="279.5,-.5 279.5,-19.5 335.5,-19.5 335.5,-.5 279.5,-.5"/>
<text text-anchor="middle" x="307.5" y="-7.5" font-family="Helvetica,sans-Serif" font-size="10.00" fill="#000000">stddef.h</text>
</g>
<!-- Node4&#45;&gt;Node8 -->
<g id="edge9" class="edge">
<title>Node4&#45;&gt;Node8</title>
<path fill="none" stroke="#191970" d="M352.3124,-224.3323C353.6728,-202.5905 354.3883,-148.8631 332.5,-112 319.0661,-89.3753 297.1479,-99.5939 285.5,-76 277.8542,-60.5127 285.6148,-41.7339 293.9556,-28.1732"/>
<polygon fill="#191970" stroke="#191970" points="296.9624,-29.974 299.6406,-19.7233 291.1545,-26.0666 296.9624,-29.974"/>
</g>
<!-- Node9 -->
<g id="node10" class="node">
<title>Node9</title>
<polygon fill="#ffffff" stroke="#bfbfbf" points="0,-112.5 0,-131.5 77,-131.5 77,-112.5 0,-112.5"/>
<text text-anchor="middle" x="38.5" y="-119.5" font-family="Helvetica,sans-Serif" font-size="10.00" fill="#000000">periph_cpu.h</text>
</g>
<!-- Node4&#45;&gt;Node9 -->
<g id="edge11" class="edge">
<title>Node4&#45;&gt;Node9</title>
<path fill="none" stroke="#191970" d="M314.6481,-228.4566C274.7422,-221.7362 209.6675,-208.6717 156.5,-188 121.5423,-174.4083 84.2518,-152.0705 61.1601,-137.2001"/>
<polygon fill="#191970" stroke="#191970" points="63.0401,-134.2477 52.7535,-131.7109 59.213,-140.1089 63.0401,-134.2477"/>
</g>
<!-- Node10 -->
<g id="node11" class="node">
<title>Node10</title>
<polygon fill="#ffffff" stroke="#bfbfbf" points="164,-112.5 164,-131.5 245,-131.5 245,-112.5 164,-112.5"/>
<text text-anchor="middle" x="204.5" y="-119.5" font-family="Helvetica,sans-Serif" font-size="10.00" fill="#000000">periph_conf.h</text>
</g>
<!-- Node4&#45;&gt;Node10 -->
<g id="edge12" class="edge">
<title>Node4&#45;&gt;Node10</title>
<path fill="none" stroke="#191970" d="M338.9669,-224.4509C313.5811,-205.1094 255.8798,-161.1465 224.9624,-137.5904"/>
<polygon fill="#191970" stroke="#191970" points="227.0769,-134.8013 217.0014,-131.5249 222.8346,-140.3694 227.0769,-134.8013"/>
</g>
<!-- Node4&#45;&gt;Node11 -->
<g id="edge13" class="edge">
<title>Node4&#45;&gt;Node11</title>
<path fill="none" stroke="#191970" d="M326.4017,-224.3733C302.5445,-215.2226 266.4665,-201.3844 239.929,-191.2057"/>
<polygon fill="#191970" stroke="#191970" points="240.861,-187.8145 230.2708,-187.5011 238.3541,-194.3503 240.861,-187.8145"/>
</g>
<!-- Node5&#45;&gt;Node3 -->
<g id="edge6" class="edge">
<title>Node5&#45;&gt;Node3</title>
<path fill="none" stroke="#191970" d="M884.4331,-56.3733C861.6572,-47.2629 827.2656,-33.5062 801.851,-23.3404"/>
<polygon fill="#191970" stroke="#191970" points="802.8375,-19.9654 792.2528,-19.5011 800.2377,-26.4648 802.8375,-19.9654"/>
</g>
<!-- Node11&#45;&gt;Node7 -->
<g id="edge15" class="edge">
<title>Node11&#45;&gt;Node7</title>
<path fill="none" stroke="#191970" d="M220.8284,-168.2455C234.3303,-159.6534 254.2122,-147.0014 269.7686,-137.1018"/>
<polygon fill="#191970" stroke="#191970" points="271.7897,-139.9643 278.3472,-131.6427 268.0315,-134.0587 271.7897,-139.9643"/>
</g>
<!-- Node11&#45;&gt;Node9 -->
<g id="edge16" class="edge">
<title>Node11&#45;&gt;Node9</title>
<path fill="none" stroke="#191970" d="M176.7917,-168.3733C149.1423,-159.1016 107.1424,-145.0178 76.6834,-134.804"/>
<polygon fill="#191970" stroke="#191970" points="77.4276,-131.3621 66.8337,-131.5011 75.2021,-137.9989 77.4276,-131.3621"/>
</g>
<!-- Node11&#45;&gt;Node10 -->
<g id="edge17" class="edge">
<title>Node11&#45;&gt;Node10</title>
<path fill="none" stroke="#191970" d="M205.3258,-168.2455C205.1953,-160.9382 205.0124,-150.6944 204.8519,-141.7046"/>
<polygon fill="#191970" stroke="#191970" points="208.3503,-141.5786 204.6722,-131.6427 201.3514,-141.7036 208.3503,-141.5786"/>
</g>
<!-- Node12 -->
<g id="node13" class="node">
<title>Node12</title>
<polygon fill="#ffffff" stroke="#bfbfbf" points="95.5,-112.5 95.5,-131.5 145.5,-131.5 145.5,-112.5 95.5,-112.5"/>
<text text-anchor="middle" x="120.5" y="-119.5" font-family="Helvetica,sans-Serif" font-size="10.00" fill="#000000">limits.h</text>
</g>
<!-- Node11&#45;&gt;Node12 -->
<g id="edge14" class="edge">
<title>Node11&#45;&gt;Node12</title>
<path fill="none" stroke="#191970" d="M190.6941,-168.2455C177.7744,-159.7337 158.8069,-147.2375 143.8448,-137.3801"/>
<polygon fill="#191970" stroke="#191970" points="145.4124,-134.2216 135.1362,-131.6427 141.5613,-140.067 145.4124,-134.2216"/>
</g>
<!-- Node13&#45;&gt;Node3 -->
<g id="edge20" class="edge">
<title>Node13&#45;&gt;Node3</title>
<path fill="none" stroke="#191970" d="M664.6893,-224.1911C655.1495,-190.8628 624.5408,-83.6173 623.5,-76 622.2966,-67.1929 618.2502,-63.173 623.5,-56 636.4938,-38.2459 693.9924,-24.117 732.5623,-16.4148"/>
<polygon fill="#191970" stroke="#191970" points="733.253,-19.8461 742.4035,-14.5059 731.92,-12.9742 733.253,-19.8461"/>
</g>
<!-- Node13&#45;&gt;Node6 -->
<g id="edge21" class="edge">
<title>Node13&#45;&gt;Node6</title>
<path fill="none" stroke="#191970" d="M629.3827,-224.4325C595.1607,-215.7918 543.3019,-202.5734 489.0208,-188.1037"/>
<polygon fill="#191970" stroke="#191970" points="489.7852,-184.6852 479.2206,-185.4845 487.9778,-191.4478 489.7852,-184.6852"/>
</g>
<!-- Node14 -->
<g id="node15" class="node">
<title>Node14</title>
<g id="a_node15"><a xlink:href="iolist_8h.html" target="_top" xlink:title="iolist scatter / gather IO ">
<polygon fill="#ffffff" stroke="#000000" points="592,-168.5 592,-187.5 639,-187.5 639,-168.5 592,-168.5"/>
<text text-anchor="middle" x="615.5" y="-175.5" font-family="Helvetica,sans-Serif" font-size="10.00" fill="#000000">iolist.h</text>
</a>
</g>
</g>
<!-- Node13&#45;&gt;Node14 -->
<g id="edge22" class="edge">
<title>Node13&#45;&gt;Node14</title>
<path fill="none" stroke="#191970" d="M658.4423,-224.2455C650.9858,-216.2155 640.2366,-204.6394 631.3583,-195.0781"/>
<polygon fill="#191970" stroke="#191970" points="633.8232,-192.589 624.4539,-187.6427 628.6937,-197.3522 633.8232,-192.589"/>
</g>
<!-- Node17 -->
<g id="node18" class="node">
<title>Node17</title>
<g id="a_node18"><a xlink:href="netopt_8h.html" target="_top" xlink:title="Definition of global configuration options. ">
<polygon fill="#ffffff" stroke="#000000" points="497,-168.5 497,-187.5 574,-187.5 574,-168.5 497,-168.5"/>
<text text-anchor="middle" x="535.5" y="-175.5" font-family="Helvetica,sans-Serif" font-size="10.00" fill="#000000">net/netopt.h</text>
</a>
</g>
</g>
<!-- Node13&#45;&gt;Node17 -->
<g id="edge29" class="edge">
<title>Node13&#45;&gt;Node17</title>
<path fill="none" stroke="#191970" d="M644.8084,-224.3733C623.4289,-215.3032 591.1943,-201.6279 567.2638,-191.4755"/>
<polygon fill="#191970" stroke="#191970" points="568.4683,-188.1846 557.8955,-187.5011 565.7344,-194.6287 568.4683,-188.1846"/>
</g>
<!-- Node18 -->
<g id="node19" class="node">
<title>Node18</title>
<g id="a_node19"><a xlink:href="kernel__defines_8h.html" target="_top" xlink:title="Common macros and compiler attributes/pragmas configuration. ">
<polygon fill="#ffffff" stroke="#000000" points="696,-168.5 696,-187.5 791,-187.5 791,-168.5 696,-168.5"/>
<text text-anchor="middle" x="743.5" y="-175.5" font-family="Helvetica,sans-Serif" font-size="10.00" fill="#000000">kernel_defines.h</text>
</a>
</g>
</g>
<!-- Node13&#45;&gt;Node18 -->
<g id="edge32" class="edge">
<title>Node13&#45;&gt;Node18</title>
<path fill="none" stroke="#191970" d="M680.7382,-224.2455C692.181,-215.814 708.9296,-203.4729 722.2475,-193.6598"/>
<polygon fill="#191970" stroke="#191970" points="724.4391,-196.3924 730.4135,-187.6427 720.2867,-190.757 724.4391,-196.3924"/>
</g>
<!-- Node15 -->
<g id="node16" class="node">
<title>Node15</title>
<g id="a_node16"><a xlink:href="unistd_8h_source.html" target="_top" xlink:title="unistd.h">
<polygon fill="#ffffff" stroke="#000000" points="379.5,-112.5 379.5,-131.5 433.5,-131.5 433.5,-112.5 379.5,-112.5"/>
<text text-anchor="middle" x="406.5" y="-119.5" font-family="Helvetica,sans-Serif" font-size="10.00" fill="#000000">unistd.h</text>
</a>
</g>
</g>
<!-- Node14&#45;&gt;Node15 -->
<g id="edge23" class="edge">
<title>Node14&#45;&gt;Node15</title>
<path fill="none" stroke="#191970" d="M591.7729,-170.4444C588.99,-169.6 586.1861,-168.7683 583.5,-168 535.4347,-154.2528 479.5358,-140.0144 443.6231,-131.0897"/>
<polygon fill="#191970" stroke="#191970" points="444.1472,-127.6138 433.599,-128.6076 442.4647,-134.4086 444.1472,-127.6138"/>
</g>
<!-- Node15&#45;&gt;Node3 -->
<g id="edge25" class="edge">
<title>Node15&#45;&gt;Node3</title>
<path fill="none" stroke="#191970" d="M405.4107,-112.2732C404.3777,-97.7287 404.8524,-70.4781 420.5,-56 443.155,-35.0382 647.8834,-18.4458 732.3305,-12.4344"/>
<polygon fill="#191970" stroke="#191970" points="732.7518,-15.9135 742.4821,-11.7217 732.2615,-8.9307 732.7518,-15.9135"/>
</g>
<!-- Node15&#45;&gt;Node8 -->
<g id="edge24" class="edge">
<title>Node15&#45;&gt;Node8</title>
<path fill="none" stroke="#191970" d="M379.3808,-114.6296C349.4937,-105.894 304.3318,-90.6668 294.5,-76 285.1858,-62.1054 290.3641,-43.0978 296.7332,-29.0484"/>
<polygon fill="#191970" stroke="#191970" points="300.0012,-30.3419 301.3912,-19.8386 293.7547,-27.1825 300.0012,-30.3419"/>
</g>
<!-- Node16 -->
<g id="node17" class="node">
<title>Node16</title>
<g id="a_node17"><a xlink:href="cpu_2avr8__common_2avr__libc__extra_2include_2sys_2types_8h_source.html" target="_top" xlink:title="sys/types.h">
<polygon fill="#ffffff" stroke="#000000" points="304,-56.5 304,-75.5 373,-75.5 373,-56.5 304,-56.5"/>
<text text-anchor="middle" x="338.5" y="-63.5" font-family="Helvetica,sans-Serif" font-size="10.00" fill="#000000">sys/types.h</text>
</a>
</g>
</g>
<!-- Node15&#45;&gt;Node16 -->
<g id="edge26" class="edge">
<title>Node15&#45;&gt;Node16</title>
<path fill="none" stroke="#191970" d="M394.6553,-112.2455C384.612,-103.9746 370.0005,-91.9416 358.1996,-82.2232"/>
<polygon fill="#191970" stroke="#191970" points="360.1533,-79.298 350.209,-75.6427 355.7033,-84.7015 360.1533,-79.298"/>
</g>
<!-- Node16&#45;&gt;Node3 -->
<g id="edge27" class="edge">
<title>Node16&#45;&gt;Node3</title>
<path fill="none" stroke="#191970" d="M373.2346,-58.5487C378.0162,-57.6291 382.872,-56.7504 387.5,-56 513.2917,-35.6049 663.7962,-20.0078 731.8666,-13.424"/>
<polygon fill="#191970" stroke="#191970" points="732.4473,-16.8845 742.0673,-12.4454 731.7788,-9.9165 732.4473,-16.8845"/>
</g>
<!-- Node16&#45;&gt;Node8 -->
<g id="edge28" class="edge">
<title>Node16&#45;&gt;Node8</title>
<path fill="none" stroke="#191970" d="M333.1002,-56.2455C328.8773,-48.617 322.8827,-37.7881 317.7559,-28.5267"/>
<polygon fill="#191970" stroke="#191970" points="320.7432,-26.6965 312.8379,-19.6427 314.619,-30.0867 320.7432,-26.6965"/>
</g>
<!-- Node17&#45;&gt;Node3 -->
<g id="edge30" class="edge">
<title>Node17&#45;&gt;Node3</title>
<path fill="none" stroke="#191970" d="M536.8719,-168.3858C540.6893,-145.2979 553.6225,-86.3924 589.5,-56 610.8505,-37.9137 686.1962,-23.1199 732.0523,-15.5274"/>
<polygon fill="#191970" stroke="#191970" points="732.8796,-18.9391 742.1919,-13.8861 731.761,-12.029 732.8796,-18.9391"/>
</g>
<!-- Node17&#45;&gt;Node7 -->
<g id="edge31" class="edge">
<title>Node17&#45;&gt;Node7</title>
<path fill="none" stroke="#191970" d="M496.8868,-169.0647C452.1008,-158.701 378.6375,-141.7012 333.3368,-131.2184"/>
<polygon fill="#191970" stroke="#191970" points="334.098,-127.8022 323.5664,-128.9575 332.5198,-134.622 334.098,-127.8022"/>
</g>
<!-- Node19 -->
<g id="node20" class="node">
<title>Node19</title>
<g id="a_node20"><a xlink:href="modules_8h.html" target="_top" xlink:title="Common macros and compiler attributes/pragmas configuration. ">
<polygon fill="#ffffff" stroke="#000000" points="1198,-112.5 1198,-131.5 1263,-131.5 1263,-112.5 1198,-112.5"/>
<text text-anchor="middle" x="1230.5" y="-119.5" font-family="Helvetica,sans-Serif" font-size="10.00" fill="#000000">modules.h</text>
</a>
</g>
</g>
<!-- Node18&#45;&gt;Node19 -->
<g id="edge33" class="edge">
<title>Node18&#45;&gt;Node19</title>
<path fill="none" stroke="#191970" d="M791.0823,-172.5285C885.8195,-161.6347 1096.7072,-137.3848 1187.5303,-126.9411"/>
<polygon fill="#191970" stroke="#191970" points="1188.2044,-130.3867 1197.7391,-125.7672 1187.4047,-123.4325 1188.2044,-130.3867"/>
</g>
<!-- Node20 -->
<g id="node21" class="node">
<title>Node20</title>
<g id="a_node21"><a xlink:href="riot__version_8h.html" target="_top" xlink:title="Common macros and compiler attributes/pragmas configuration. ">
<polygon fill="#ffffff" stroke="#000000" points="632,-56.5 632,-75.5 713,-75.5 713,-56.5 632,-56.5"/>
<text text-anchor="middle" x="672.5" y="-63.5" font-family="Helvetica,sans-Serif" font-size="10.00" fill="#000000">riot_version.h</text>
</a>
</g>
</g>
<!-- Node18&#45;&gt;Node20 -->
<g id="edge34" class="edge">
<title>Node18&#45;&gt;Node20</title>
<path fill="none" stroke="#191970" d="M728.9773,-168.3019C717.525,-159.9457 701.957,-146.8991 692.5,-132 683.4883,-117.8023 678.3448,-99.3168 675.5376,-85.5222"/>
<polygon fill="#191970" stroke="#191970" points="678.9744,-84.858 673.7579,-75.6364 672.0851,-86.0983 678.9744,-84.858"/>
</g>
<!-- Node21 -->
<g id="node22" class="node">
<title>Node21</title>
<g id="a_node22"><a xlink:href="compiler__hints_8h.html" target="_top" xlink:title="Common macros and compiler attributes/pragmas configuration. ">
<polygon fill="#ffffff" stroke="#000000" points="701,-112.5 701,-131.5 794,-131.5 794,-112.5 701,-112.5"/>
<text text-anchor="middle" x="747.5" y="-119.5" font-family="Helvetica,sans-Serif" font-size="10.00" fill="#000000">compiler_hints.h</text>
</a>
</g>
</g>
<!-- Node18&#45;&gt;Node21 -->
<g id="edge36" class="edge">
<title>Node18&#45;&gt;Node21</title>
<path fill="none" stroke="#191970" d="M744.1967,-168.2455C744.7187,-160.9382 745.4504,-150.6944 746.0925,-141.7046"/>
<polygon fill="#191970" stroke="#191970" points="749.5898,-141.8667 746.8112,-131.6427 742.6076,-141.3679 749.5898,-141.8667"/>
</g>
<!-- Node23 -->
<g id="node24" class="node">
<title>Node23</title>
<g id="a_node24"><a xlink:href="container_8h.html" target="_top" xlink:title="Common macros and compiler attributes/pragmas configuration. ">
<polygon fill="#ffffff" stroke="#000000" points="430,-56.5 430,-75.5 499,-75.5 499,-56.5 430,-56.5"/>
<text text-anchor="middle" x="464.5" y="-63.5" font-family="Helvetica,sans-Serif" font-size="10.00" fill="#000000">container.h</text>
</a>
</g>
</g>
<!-- Node18&#45;&gt;Node23 -->
<g id="edge40" class="edge">
<title>Node18&#45;&gt;Node23</title>
<path fill="none" stroke="#191970" d="M719.7126,-168.4509C669.9873,-148.4895 554.9336,-102.3031 497.8548,-79.3897"/>
<polygon fill="#191970" stroke="#191970" points="498.8113,-76.0023 488.2272,-75.5249 496.2035,-82.4984 498.8113,-76.0023"/>
</g>
<!-- Node20&#45;&gt;Node3 -->
<g id="edge35" class="edge">
<title>Node20&#45;&gt;Node3</title>
<path fill="none" stroke="#191970" d="M689.2219,-56.2455C704.0889,-47.5731 726.0466,-34.7645 743.0858,-24.825"/>
<polygon fill="#191970" stroke="#191970" points="745.0955,-27.7047 751.9697,-19.6427 741.5683,-21.6582 745.0955,-27.7047"/>
</g>
<!-- Node21&#45;&gt;Node3 -->
<g id="edge39" class="edge">
<title>Node21&#45;&gt;Node3</title>
<path fill="none" stroke="#191970" d="M749.2904,-112.4509C752.731,-94.1013 760.3267,-53.5908 764.8683,-29.3693"/>
<polygon fill="#191970" stroke="#191970" points="768.3112,-29.9986 766.7141,-19.5249 761.4311,-28.7086 768.3112,-29.9986"/>
</g>
<!-- Node22 -->
<g id="node23" class="node">
<title>Node22</title>
<g id="a_node23"><a xlink:href="assert_8h.html" target="_top" xlink:title="POSIX.1&#45;2008 compliant version of the assert macro. ">
<polygon fill="#ffffff" stroke="#000000" points="769.5,-56.5 769.5,-75.5 823.5,-75.5 823.5,-56.5 769.5,-56.5"/>
<text text-anchor="middle" x="796.5" y="-63.5" font-family="Helvetica,sans-Serif" font-size="10.00" fill="#000000">assert.h</text>
</a>
</g>
</g>
<!-- Node21&#45;&gt;Node22 -->
<g id="edge37" class="edge">
<title>Node21&#45;&gt;Node22</title>
<path fill="none" stroke="#191970" d="M756.0351,-112.2455C762.9912,-104.2958 772.9883,-92.8706 781.3051,-83.3656"/>
<polygon fill="#191970" stroke="#191970" points="784.1116,-85.4732 788.0627,-75.6427 778.8436,-80.8637 784.1116,-85.4732"/>
</g>
<!-- Node22&#45;&gt;Node3 -->
<g id="edge38" class="edge">
<title>Node22&#45;&gt;Node3</title>
<path fill="none" stroke="#191970" d="M791.6228,-56.2455C787.8487,-48.6973 782.5079,-38.0158 777.9099,-28.8197"/>
<polygon fill="#191970" stroke="#191970" points="780.924,-27.0217 773.3213,-19.6427 774.663,-30.1522 780.924,-27.0217"/>
</g>
<!-- Node23&#45;&gt;Node3 -->
<g id="edge42" class="edge">
<title>Node23&#45;&gt;Node3</title>
<path fill="none" stroke="#191970" d="M499.014,-58.8534C503.8744,-57.877 508.8106,-56.9014 513.5,-56 591.4495,-41.0173 683.0883,-24.8351 732.5139,-16.2247"/>
<polygon fill="#191970" stroke="#191970" points="733.1475,-19.6672 742.3999,-14.5055 731.9481,-12.7707 733.1475,-19.6672"/>
</g>
<!-- Node23&#45;&gt;Node8 -->
<g id="edge41" class="edge">
<title>Node23&#45;&gt;Node8</title>
<path fill="none" stroke="#191970" d="M437.5107,-56.3733C411.6301,-47.1419 372.3752,-33.1402 343.7711,-22.9375"/>
<polygon fill="#191970" stroke="#191970" points="344.7317,-19.5642 334.1371,-19.5011 342.38,-26.1573 344.7317,-19.5642"/>
</g>
<!-- Node24&#45;&gt;Node13 -->
<g id="edge70" class="edge">
<title>Node24&#45;&gt;Node13</title>
<path fill="none" stroke="#191970" d="M780.0131,-336.4509C759.0443,-317.3574 711.7248,-274.2697 685.6275,-250.5063"/>
<polygon fill="#191970" stroke="#191970" points="687.7108,-247.6697 677.9604,-243.5249 682.9979,-252.8455 687.7108,-247.6697"/>
</g>
<!-- Node24&#45;&gt;Node17 -->
<g id="edge69" class="edge">
<title>Node24&#45;&gt;Node17</title>
<path fill="none" stroke="#191970" d="M772.692,-336.2485C741.2569,-318.8315 674.1775,-280.7483 620.5,-244 597.2633,-228.0919 571.9232,-208.037 555.0117,-194.2331"/>
<polygon fill="#191970" stroke="#191970" points="556.9393,-191.2869 546.9921,-187.6394 552.4936,-196.6939 556.9393,-191.2869"/>
</g>
<!-- Node25 -->
<g id="node26" class="node">
<title>Node25</title>
<g id="a_node26"><a xlink:href="eui__provider_8h.html" target="_top" xlink:title="EUI&#45;48 and EUI&#45;64 address provider. ">
<polygon fill="#ffffff" stroke="#000000" points="767.5,-280.5 767.5,-299.5 871.5,-299.5 871.5,-280.5 767.5,-280.5"/>
<text text-anchor="middle" x="819.5" y="-287.5" font-family="Helvetica,sans-Serif" font-size="10.00" fill="#000000">net/eui_provider.h</text>
</a>
</g>
</g>
<!-- Node24&#45;&gt;Node25 -->
<g id="edge44" class="edge">
<title>Node24&#45;&gt;Node25</title>
<path fill="none" stroke="#191970" d="M795.5514,-336.2455C799.5019,-328.617 805.1097,-317.7881 809.9058,-308.5267"/>
<polygon fill="#191970" stroke="#191970" points="813.0159,-310.1321 814.5065,-299.6427 806.7999,-306.9131 813.0159,-310.1321"/>
</g>
<!-- Node31 -->
<g id="node32" class="node">
<title>Node31</title>
<g id="a_node32"><a xlink:href="sys_2include_2net_2ieee802154_8h.html" target="_top" xlink:title="IEEE 802.15.4 header definitions. ">
<polygon fill="#ffffff" stroke="#000000" points="929,-224.5 929,-243.5 1030,-243.5 1030,-224.5 929,-224.5"/>
<text text-anchor="middle" x="979.5" y="-231.5" font-family="Helvetica,sans-Serif" font-size="10.00" fill="#000000">net/ieee802154.h</text>
</a>
</g>
</g>
<!-- Node24&#45;&gt;Node31 -->
<g id="edge57" class="edge">
<title>Node24&#45;&gt;Node31</title>
<path fill="none" stroke="#191970" d="M810.8749,-336.4204C829.3539,-327.5373 857.1875,-313.667 880.5,-300 907.8527,-283.9644 937.9952,-263.4314 957.7489,-249.5587"/>
<polygon fill="#191970" stroke="#191970" points="959.9008,-252.3238 966.0466,-243.6936 955.8603,-246.6076 959.9008,-252.3238"/>
</g>
<!-- Node34 -->
<g id="node35" class="node">
<title>Node34</title>
<g id="a_node35"><a xlink:href="nettype_8h.html" target="_top" xlink:title="Protocol type definitions. ">
<polygon fill="#ffffff" stroke="#000000" points="1131,-280.5 1131,-299.5 1238,-299.5 1238,-280.5 1131,-280.5"/>
<text text-anchor="middle" x="1184.5" y="-287.5" font-family="Helvetica,sans-Serif" font-size="10.00" fill="#000000">net/gnrc/nettype.h</text>
</a>
</g>
</g>
<!-- Node24&#45;&gt;Node34 -->
<g id="edge64" class="edge">
<title>Node24&#45;&gt;Node34</title>
<path fill="none" stroke="#191970" d="M857.7833,-336.4369C931.3125,-325.986 1048.2427,-309.3665 1120.4634,-299.1016"/>
<polygon fill="#191970" stroke="#191970" points="1121.3761,-302.5072 1130.784,-297.6348 1120.391,-295.5768 1121.3761,-302.5072"/>
</g>
<!-- Node25&#45;&gt;Node13 -->
<g id="edge56" class="edge">
<title>Node25&#45;&gt;Node13</title>
<path fill="none" stroke="#191970" d="M793.3703,-280.3733C768.4232,-271.1822 730.6408,-257.2624 702.9794,-247.0713"/>
<polygon fill="#191970" stroke="#191970" points="703.8822,-243.674 693.2888,-243.5011 701.4622,-250.2424 703.8822,-243.674"/>
</g>
<!-- Node26 -->
<g id="node27" class="node">
<title>Node26</title>
<g id="a_node27"><a xlink:href="eui48_8h.html" target="_top" xlink:title="Definition and IPv6 IID conversion for IEEE EUI&#45;48 identifiers. ">
<polygon fill="#ffffff" stroke="#000000" points="801,-224.5 801,-243.5 872,-243.5 872,-224.5 801,-224.5"/>
<text text-anchor="middle" x="836.5" y="-231.5" font-family="Helvetica,sans-Serif" font-size="10.00" fill="#000000">net/eui48.h</text>
</a>
</g>
</g>
<!-- Node25&#45;&gt;Node26 -->
<g id="edge45" class="edge">
<title>Node25&#45;&gt;Node26</title>
<path fill="none" stroke="#191970" d="M822.4612,-280.2455C824.7038,-272.8579 827.8577,-262.4689 830.6081,-253.4087"/>
<polygon fill="#191970" stroke="#191970" points="834.017,-254.2282 833.5728,-243.6427 827.3188,-252.1948 834.017,-254.2282"/>
</g>
<!-- Node27 -->
<g id="node28" class="node">
<title>Node27</title>
<g id="a_node28"><a xlink:href="eui64_8h.html" target="_top" xlink:title="EUI&#45;64 data type definition. ">
<polygon fill="#ffffff" stroke="#000000" points="930,-168.5 930,-187.5 1001,-187.5 1001,-168.5 930,-168.5"/>
<text text-anchor="middle" x="965.5" y="-175.5" font-family="Helvetica,sans-Serif" font-size="10.00" fill="#000000">net/eui64.h</text>
</a>
</g>
</g>
<!-- Node25&#45;&gt;Node27 -->
<g id="edge55" class="edge">
<title>Node25&#45;&gt;Node27</title>
<path fill="none" stroke="#191970" d="M832.8833,-280.2352C845.4944,-270.995 864.8822,-256.6893 881.5,-244 903.5921,-227.1306 928.6077,-207.392 945.5515,-193.9258"/>
<polygon fill="#191970" stroke="#191970" points="947.9745,-196.4706 953.6181,-187.5039 943.6146,-190.9941 947.9745,-196.4706"/>
</g>
<!-- Node26&#45;&gt;Node3 -->
<g id="edge46" class="edge">
<title>Node26&#45;&gt;Node3</title>
<path fill="none" stroke="#191970" d="M839.0905,-224.3862C846.068,-196.4156 862.7645,-113.4252 832.5,-56 825.4155,-42.5576 812.4348,-32.1218 800.0062,-24.6135"/>
<polygon fill="#191970" stroke="#191970" points="801.5829,-21.4852 791.1461,-19.6625 798.1683,-27.5959 801.5829,-21.4852"/>
</g>
<!-- Node26&#45;&gt;Node27 -->
<g id="edge47" class="edge">
<title>Node26&#45;&gt;Node27</title>
<path fill="none" stroke="#191970" d="M858.6759,-224.3733C879.4766,-215.3435 910.7917,-201.7494 934.1458,-191.6111"/>
<polygon fill="#191970" stroke="#191970" points="935.8343,-194.6938 943.6135,-187.5011 933.0468,-188.2727 935.8343,-194.6938"/>
</g>
<!-- Node27&#45;&gt;Node3 -->
<g id="edge48" class="edge">
<title>Node27&#45;&gt;Node3</title>
<path fill="none" stroke="#191970" d="M967.2015,-168.2881C970.5959,-145.4962 975.5752,-88.0868 946.5,-56 927.6706,-35.2204 850.8325,-21.295 804.4872,-14.6041"/>
<polygon fill="#191970" stroke="#191970" points="804.9222,-11.131 794.5334,-13.2103 803.9514,-18.0633 804.9222,-11.131"/>
</g>
<!-- Node28 -->
<g id="node29" class="node">
<title>Node28</title>
<g id="a_node29"><a xlink:href="byteorder_8h.html" target="_top" xlink:title="Functions to work with different byte orders. ">
<polygon fill="#ffffff" stroke="#000000" points="994,-112.5 994,-131.5 1067,-131.5 1067,-112.5 994,-112.5"/>
<text text-anchor="middle" x="1030.5" y="-119.5" font-family="Helvetica,sans-Serif" font-size="10.00" fill="#000000">byteorder.h</text>
</a>
</g>
</g>
<!-- Node27&#45;&gt;Node28 -->
<g id="edge49" class="edge">
<title>Node27&#45;&gt;Node28</title>
<path fill="none" stroke="#191970" d="M976.8221,-168.2455C986.4223,-159.9746 1000.3892,-147.9416 1011.6695,-138.2232"/>
<polygon fill="#191970" stroke="#191970" points="1014.016,-140.8214 1019.3076,-131.6427 1009.447,-135.5182 1014.016,-140.8214"/>
</g>
<!-- Node28&#45;&gt;Node3 -->
<g id="edge51" class="edge">
<title>Node28&#45;&gt;Node3</title>
<path fill="none" stroke="#191970" d="M1045.0277,-112.301C1063.2813,-98.9518 1090.4031,-74.4725 1074.5,-56 1057.0718,-35.756 882.0152,-19.2017 804.7839,-12.8236"/>
<polygon fill="#191970" stroke="#191970" points="804.813,-9.3145 794.5621,-11.9918 804.2452,-16.2914 804.813,-9.3145"/>
</g>
<!-- Node28&#45;&gt;Node5 -->
<g id="edge52" class="edge">
<title>Node28&#45;&gt;Node5</title>
<path fill="none" stroke="#191970" d="M1009.5275,-112.3733C989.9433,-103.3838 960.5039,-89.8706 938.449,-79.7471"/>
<polygon fill="#191970" stroke="#191970" points="939.7473,-76.4919 929.1989,-75.5011 936.8271,-82.8538 939.7473,-76.4919"/>
</g>
<!-- Node29 -->
<g id="node30" class="node">
<title>Node29</title>
<polygon fill="#ffffff" stroke="#bfbfbf" points="1122,-56.5 1122,-75.5 1175,-75.5 1175,-56.5 1122,-56.5"/>
<text text-anchor="middle" x="1148.5" y="-63.5" font-family="Helvetica,sans-Serif" font-size="10.00" fill="#000000">string.h</text>
</g>
<!-- Node28&#45;&gt;Node29 -->
<g id="edge50" class="edge">
<title>Node28&#45;&gt;Node29</title>
<path fill="none" stroke="#191970" d="M1050.7849,-112.3733C1069.6421,-103.4241 1097.946,-89.9917 1119.2455,-79.8835"/>
<polygon fill="#191970" stroke="#191970" points="1120.9461,-82.9506 1128.4798,-75.5011 1117.9449,-76.6266 1120.9461,-82.9506"/>
</g>
<!-- Node30 -->
<g id="node31" class="node">
<title>Node30</title>
<g id="a_node31"><a xlink:href="unaligned_8h.html" target="_top" xlink:title="Unaligned but safe memory access functions. ">
<polygon fill="#ffffff" stroke="#000000" points="994,-56.5 994,-75.5 1065,-75.5 1065,-56.5 994,-56.5"/>
<text text-anchor="middle" x="1029.5" y="-63.5" font-family="Helvetica,sans-Serif" font-size="10.00" fill="#000000">unaligned.h</text>
</a>
</g>
</g>
<!-- Node28&#45;&gt;Node30 -->
<g id="edge53" class="edge">
<title>Node28&#45;&gt;Node30</title>
<path fill="none" stroke="#191970" d="M1030.3258,-112.2455C1030.1953,-104.9382 1030.0124,-94.6944 1029.8519,-85.7046"/>
<polygon fill="#191970" stroke="#191970" points="1033.3503,-85.5786 1029.6722,-75.6427 1026.3514,-85.7036 1033.3503,-85.5786"/>
</g>
<!-- Node30&#45;&gt;Node3 -->
<g id="edge54" class="edge">
<title>Node30&#45;&gt;Node3</title>
<path fill="none" stroke="#191970" d="M993.7563,-58.3309C944.0964,-47.6759 854.7181,-28.4989 804.7761,-17.7834"/>
<polygon fill="#191970" stroke="#191970" points="805.2579,-14.3072 794.7461,-15.6314 803.7893,-21.1514 805.2579,-14.3072"/>
</g>
<!-- Node31&#45;&gt;Node3 -->
<g id="edge58" class="edge">
<title>Node31&#45;&gt;Node3</title>
<path fill="none" stroke="#191970" d="M996.5739,-224.4523C1051.5115,-193.1764 1218.2239,-93.6585 1184.5,-56 1159.3572,-27.9238 901.7342,-15.1424 804.9672,-11.3055"/>
<polygon fill="#191970" stroke="#191970" points="804.9114,-7.8008 794.7835,-10.9114 804.6406,-14.7956 804.9114,-7.8008"/>
</g>
<!-- Node31&#45;&gt;Node19 -->
<g id="edge61" class="edge">
<title>Node31&#45;&gt;Node19</title>
<path fill="none" stroke="#191970" d="M1030.2332,-225.318C1096.4652,-213.7837 1204.8102,-194.1467 1211.5,-188 1224.234,-176.2997 1228.6378,-156.6736 1230.0629,-141.8572"/>
<polygon fill="#191970" stroke="#191970" points="1233.5685,-141.8636 1230.6608,-131.6756 1226.5805,-141.4532 1233.5685,-141.8636"/>
</g>
<!-- Node31&#45;&gt;Node27 -->
<g id="edge62" class="edge">
<title>Node31&#45;&gt;Node27</title>
<path fill="none" stroke="#191970" d="M977.0614,-224.2455C975.2145,-216.8579 972.6172,-206.4689 970.3522,-197.4087"/>
<polygon fill="#191970" stroke="#191970" points="973.7316,-196.4952 967.9107,-187.6427 966.9406,-198.193 973.7316,-196.4952"/>
</g>
<!-- Node31&#45;&gt;Node28 -->
<g id="edge60" class="edge">
<title>Node31&#45;&gt;Node28</title>
<path fill="none" stroke="#191970" d="M987.3107,-224.291C994.2093,-215.3206 1004.1345,-201.3952 1010.5,-188 1017.566,-173.1308 1022.8113,-155.1943 1026.1533,-141.775"/>
<polygon fill="#191970" stroke="#191970" points="1029.6328,-142.2669 1028.5111,-131.7317 1022.8181,-140.667 1029.6328,-142.2669"/>
</g>
<!-- Node32 -->
<g id="node33" class="node">
<title>Node32</title>
<polygon fill="#ffffff" stroke="#bfbfbf" points="1258.5,-168.5 1258.5,-187.5 1308.5,-187.5 1308.5,-168.5 1258.5,-168.5"/>
<text text-anchor="middle" x="1283.5" y="-175.5" font-family="Helvetica,sans-Serif" font-size="10.00" fill="#000000">stdlib.h</text>
</g>
<!-- Node31&#45;&gt;Node32 -->
<g id="edge59" class="edge">
<title>Node31&#45;&gt;Node32</title>
<path fill="none" stroke="#191970" d="M1030.2676,-225.4106C1101.2896,-213.36 1223.9552,-192.4098 1244.5,-188 1245.7686,-187.7277 1247.0583,-187.4423 1248.3593,-187.1472"/>
<polygon fill="#191970" stroke="#191970" points="1249.4815,-190.4776 1258.3939,-184.7488 1247.8542,-183.6694 1249.4815,-190.4776"/>
</g>
<!-- Node33 -->
<g id="node34" class="node">
<title>Node33</title>
<g id="a_node34"><a xlink:href="time__units_8h.html" target="_top" xlink:title="Utility header providing time unit defines. ">
<polygon fill="#ffffff" stroke="#000000" points="1128.5,-168.5 1128.5,-187.5 1202.5,-187.5 1202.5,-168.5 1128.5,-168.5"/>
<text text-anchor="middle" x="1165.5" y="-175.5" font-family="Helvetica,sans-Serif" font-size="10.00" fill="#000000">time_units.h</text>
</a>
</g>
</g>
<!-- Node31&#45;&gt;Node33 -->
<g id="edge63" class="edge">
<title>Node31&#45;&gt;Node33</title>
<path fill="none" stroke="#191970" d="M1011.4745,-224.3733C1042.6713,-214.9807 1090.271,-200.6496 1124.2932,-190.4064"/>
<polygon fill="#191970" stroke="#191970" points="1125.3763,-193.7355 1133.9427,-187.5011 1123.3582,-187.0327 1125.3763,-193.7355"/>
</g>
<!-- Node34&#45;&gt;Node19 -->
<g id="edge66" class="edge">
<title>Node34&#45;&gt;Node19</title>
<path fill="none" stroke="#191970" d="M1238.3773,-280.5598C1276.8013,-272.6026 1323.6738,-259.9654 1335.5,-244 1349.4144,-225.2154 1331.7035,-184.9416 1317.5,-168 1305.296,-153.4434 1287.283,-142.8544 1270.8084,-135.5322"/>
<polygon fill="#191970" stroke="#191970" points="1271.919,-132.2035 1261.3418,-131.5933 1269.2299,-138.6664 1271.919,-132.2035"/>
</g>
<!-- Node35 -->
<g id="node36" class="node">
<title>Node35</title>
<g id="a_node36"><a xlink:href="inttypes_8h.html" target="_top" xlink:title="Adds include for missing inttype definitions. ">
<polygon fill="#ffffff" stroke="#000000" points="1153,-224.5 1153,-243.5 1216,-243.5 1216,-224.5 1153,-224.5"/>
<text text-anchor="middle" x="1184.5" y="-231.5" font-family="Helvetica,sans-Serif" font-size="10.00" fill="#000000">inttypes.h</text>
</a>
</g>
</g>
<!-- Node34&#45;&gt;Node35 -->
<g id="edge65" class="edge">
<title>Node34&#45;&gt;Node35</title>
<path fill="none" stroke="#191970" d="M1184.5,-280.2455C1184.5,-272.9382 1184.5,-262.6944 1184.5,-253.7046"/>
<polygon fill="#191970" stroke="#191970" points="1188.0001,-253.6426 1184.5,-243.6427 1181.0001,-253.6427 1188.0001,-253.6426"/>
</g>
<!-- Node36 -->
<g id="node37" class="node">
<title>Node36</title>
<g id="a_node37"><a xlink:href="ethertype_8h.html" target="_top" xlink:title="Ether type definitions. ">
<polygon fill="#ffffff" stroke="#000000" points="1234.5,-224.5 1234.5,-243.5 1326.5,-243.5 1326.5,-224.5 1234.5,-224.5"/>
<text text-anchor="middle" x="1280.5" y="-231.5" font-family="Helvetica,sans-Serif" font-size="10.00" fill="#000000">net/ethertype.h</text>
</a>
</g>
</g>
<!-- Node34&#45;&gt;Node36 -->
<g id="edge67" class="edge">
<title>Node34&#45;&gt;Node36</title>
<path fill="none" stroke="#191970" d="M1201.2219,-280.2455C1216.0889,-271.5731 1238.0466,-258.7645 1255.0858,-248.825"/>
<polygon fill="#191970" stroke="#191970" points="1257.0955,-251.7047 1263.9697,-243.6427 1253.5683,-245.6582 1257.0955,-251.7047"/>
</g>
<!-- Node37 -->
<g id="node38" class="node">
<title>Node37</title>
<g id="a_node38"><a xlink:href="protnum_8h.html" target="_top" xlink:title="Protocol number definitions. ">
<polygon fill="#ffffff" stroke="#000000" points="1048.5,-224.5 1048.5,-243.5 1134.5,-243.5 1134.5,-224.5 1048.5,-224.5"/>
<text text-anchor="middle" x="1091.5" y="-231.5" font-family="Helvetica,sans-Serif" font-size="10.00" fill="#000000">net/protnum.h</text>
</a>
</g>
</g>
<!-- Node34&#45;&gt;Node37 -->
<g id="edge68" class="edge">
<title>Node34&#45;&gt;Node37</title>
<path fill="none" stroke="#191970" d="M1168.3006,-280.2455C1153.8982,-271.5731 1132.6268,-258.7645 1116.1201,-248.825"/>
<polygon fill="#191970" stroke="#191970" points="1117.886,-245.8028 1107.5137,-243.6427 1114.275,-251.7996 1117.886,-245.8028"/>
</g>
</g>
</svg>
