<?xml version="1.0" encoding="UTF-8" standalone="no"?>
<!DOCTYPE svg PUBLIC "-//W3C//DTD SVG 1.1//EN"
 "http://www.w3.org/Graphics/SVG/1.1/DTD/svg11.dtd">
<!-- Generated by graphviz version 2.40.1 (0)
 -->
<!-- Title: cpu/cc2538/include/cc2538_gpio.h Pages: 1 -->
<svg width="144pt" height="151pt"
 viewBox="0.00 0.00 143.50 151.00" xmlns="http://www.w3.org/2000/svg" xmlns:xlink="http://www.w3.org/1999/xlink">
<g id="graph0" class="graph" transform="scale(1 1) rotate(0) translate(4 147)">
<title>cpu/cc2538/include/cc2538_gpio.h</title>
<polygon fill="#ffffff" stroke="transparent" points="-4,4 -4,-147 139.5,-147 139.5,4 -4,4"/>
<!-- Node0 -->
<g id="node1" class="node">
<title>Node0</title>
<polygon fill="#bfbfbf" stroke="#000000" points="9.5,-112.5 9.5,-142.5 116.5,-142.5 116.5,-112.5 9.5,-112.5"/>
<text text-anchor="start" x="17.5" y="-130.5" font-family="Helvetica,sans-Serif" font-size="10.00" fill="#000000">cpu/cc2538/include</text>
<text text-anchor="middle" x="63" y="-119.5" font-family="Helvetica,sans-Serif" font-size="10.00" fill="#000000">/cc2538_gpio.h</text>
</g>
<!-- Node1 -->
<g id="node2" class="node">
<title>Node1</title>
<polygon fill="#ffffff" stroke="#bfbfbf" points="0,-56.5 0,-75.5 52,-75.5 52,-56.5 0,-56.5"/>
<text text-anchor="middle" x="26" y="-63.5" font-family="Helvetica,sans-Serif" font-size="10.00" fill="#000000">stdint.h</text>
</g>
<!-- Node0&#45;&gt;Node1 -->
<g id="edge1" class="edge">
<title>Node0&#45;&gt;Node1</title>
<path fill="none" stroke="#191970" d="M53.8539,-112.2977C48.8249,-103.9388 42.5445,-93.4997 37.2209,-84.6509"/>
<polygon fill="#191970" stroke="#191970" points="40.0785,-82.6114 31.9242,-75.8469 34.0803,-86.2201 40.0785,-82.6114"/>
</g>
<!-- Node2 -->
<g id="node3" class="node">
<title>Node2</title>
<g id="a_node3"><a xlink:href="cc2538_8h.html" target="_top" xlink:title="CC2538 MCU interrupt and register definitions. ">
<polygon fill="#ffffff" stroke="#000000" points="70.5,-56.5 70.5,-75.5 129.5,-75.5 129.5,-56.5 70.5,-56.5"/>
<text text-anchor="middle" x="100" y="-63.5" font-family="Helvetica,sans-Serif" font-size="10.00" fill="#000000">cc2538.h</text>
</a>
</g>
</g>
<!-- Node0&#45;&gt;Node2 -->
<g id="edge2" class="edge">
<title>Node0&#45;&gt;Node2</title>
<path fill="none" stroke="#191970" d="M72.1461,-112.2977C77.1751,-103.9388 83.4555,-93.4997 88.7791,-84.6509"/>
<polygon fill="#191970" stroke="#191970" points="91.9197,-86.2201 94.0758,-75.8469 85.9215,-82.6114 91.9197,-86.2201"/>
</g>
<!-- Node3 -->
<g id="node4" class="node">
<title>Node3</title>
<polygon fill="#ffffff" stroke="#bfbfbf" points="64.5,-.5 64.5,-19.5 135.5,-19.5 135.5,-.5 64.5,-.5"/>
<text text-anchor="middle" x="100" y="-7.5" font-family="Helvetica,sans-Serif" font-size="10.00" fill="#000000">core_cm3.h</text>
</g>
<!-- Node2&#45;&gt;Node3 -->
<g id="edge3" class="edge">
<title>Node2&#45;&gt;Node3</title>
<path fill="none" stroke="#191970" d="M100,-56.2455C100,-48.9382 100,-38.6944 100,-29.7046"/>
<polygon fill="#191970" stroke="#191970" points="103.5001,-29.6426 100,-19.6427 96.5001,-29.6427 103.5001,-29.6426"/>
</g>
</g>
</svg>
