<?xml version="1.0" encoding="UTF-8" standalone="no"?>
<!DOCTYPE svg PUBLIC "-//W3C//DTD SVG 1.1//EN"
 "http://www.w3.org/Graphics/SVG/1.1/DTD/svg11.dtd">
<!-- Generated by graphviz version 2.40.1 (0)
 -->
<!-- Title: cpu/cc2538/include/cc2538_eui_primary.h Pages: 1 -->
<svg width="307pt" height="263pt"
 viewBox="0.00 0.00 306.50 263.00" xmlns="http://www.w3.org/2000/svg" xmlns:xlink="http://www.w3.org/1999/xlink">
<g id="graph0" class="graph" transform="scale(1 1) rotate(0) translate(4 259)">
<title>cpu/cc2538/include/cc2538_eui_primary.h</title>
<polygon fill="#ffffff" stroke="transparent" points="-4,4 -4,-259 302.5,-259 302.5,4 -4,4"/>
<!-- Node0 -->
<g id="node1" class="node">
<title>Node0</title>
<polygon fill="#bfbfbf" stroke="#000000" points="0,-224.5 0,-254.5 122,-254.5 122,-224.5 0,-224.5"/>
<text text-anchor="start" x="8" y="-242.5" font-family="Helvetica,sans-Serif" font-size="10.00" fill="#000000">cpu/cc2538/include</text>
<text text-anchor="middle" x="61" y="-231.5" font-family="Helvetica,sans-Serif" font-size="10.00" fill="#000000">/cc2538_eui_primary.h</text>
</g>
<!-- Node1 -->
<g id="node2" class="node">
<title>Node1</title>
<g id="a_node2"><a xlink:href="eui64_8h.html" target="_top" xlink:title="EUI&#45;64 data type definition. ">
<polygon fill="#ffffff" stroke="#000000" points="25.5,-168.5 25.5,-187.5 96.5,-187.5 96.5,-168.5 25.5,-168.5"/>
<text text-anchor="middle" x="61" y="-175.5" font-family="Helvetica,sans-Serif" font-size="10.00" fill="#000000">net/eui64.h</text>
</a>
</g>
</g>
<!-- Node0&#45;&gt;Node1 -->
<g id="edge1" class="edge">
<title>Node0&#45;&gt;Node1</title>
<path fill="none" stroke="#191970" d="M61,-224.2977C61,-216.3834 61,-206.6043 61,-198.0759"/>
<polygon fill="#191970" stroke="#191970" points="64.5001,-197.8469 61,-187.8469 57.5001,-197.847 64.5001,-197.8469"/>
</g>
<!-- Node2 -->
<g id="node3" class="node">
<title>Node2</title>
<polygon fill="#ffffff" stroke="#bfbfbf" points="91,-.5 91,-19.5 143,-19.5 143,-.5 91,-.5"/>
<text text-anchor="middle" x="117" y="-7.5" font-family="Helvetica,sans-Serif" font-size="10.00" fill="#000000">stdint.h</text>
</g>
<!-- Node1&#45;&gt;Node2 -->
<g id="edge2" class="edge">
<title>Node1&#45;&gt;Node2</title>
<path fill="none" stroke="#191970" d="M58.8811,-168.1868C54.7384,-146.6017 47.4954,-93.9095 66,-56 71.9659,-43.7779 82.7401,-33.3151 92.8535,-25.4702"/>
<polygon fill="#191970" stroke="#191970" points="95.0286,-28.2165 101.0732,-19.5151 90.9217,-22.5478 95.0286,-28.2165"/>
</g>
<!-- Node3 -->
<g id="node4" class="node">
<title>Node3</title>
<g id="a_node4"><a xlink:href="byteorder_8h.html" target="_top" xlink:title="Functions to work with different byte orders. ">
<polygon fill="#ffffff" stroke="#000000" points="71.5,-112.5 71.5,-131.5 144.5,-131.5 144.5,-112.5 71.5,-112.5"/>
<text text-anchor="middle" x="108" y="-119.5" font-family="Helvetica,sans-Serif" font-size="10.00" fill="#000000">byteorder.h</text>
</a>
</g>
</g>
<!-- Node1&#45;&gt;Node3 -->
<g id="edge3" class="edge">
<title>Node1&#45;&gt;Node3</title>
<path fill="none" stroke="#191970" d="M69.1868,-168.2455C75.8589,-160.2958 85.4479,-148.8706 93.4253,-139.3656"/>
<polygon fill="#191970" stroke="#191970" points="96.1592,-141.5525 99.907,-131.6427 90.7974,-137.0524 96.1592,-141.5525"/>
</g>
<!-- Node3&#45;&gt;Node2 -->
<g id="edge5" class="edge">
<title>Node3&#45;&gt;Node2</title>
<path fill="none" stroke="#191970" d="M96.6458,-112.4961C83.1374,-99.9622 63.4245,-77.0293 72,-56 76.7156,-44.4363 85.8927,-34.2008 94.7362,-26.3383"/>
<polygon fill="#191970" stroke="#191970" points="97.1496,-28.8842 102.6263,-19.8147 92.6891,-23.4894 97.1496,-28.8842"/>
</g>
<!-- Node4 -->
<g id="node5" class="node">
<title>Node4</title>
<polygon fill="#ffffff" stroke="#bfbfbf" points="81.5,-56.5 81.5,-75.5 134.5,-75.5 134.5,-56.5 81.5,-56.5"/>
<text text-anchor="middle" x="108" y="-63.5" font-family="Helvetica,sans-Serif" font-size="10.00" fill="#000000">string.h</text>
</g>
<!-- Node3&#45;&gt;Node4 -->
<g id="edge4" class="edge">
<title>Node3&#45;&gt;Node4</title>
<path fill="none" stroke="#191970" d="M108,-112.2455C108,-104.9382 108,-94.6944 108,-85.7046"/>
<polygon fill="#191970" stroke="#191970" points="111.5001,-85.6426 108,-75.6427 104.5001,-85.6427 111.5001,-85.6426"/>
</g>
<!-- Node5 -->
<g id="node6" class="node">
<title>Node5</title>
<g id="a_node6"><a xlink:href="endian_8h.html" target="_top" xlink:title="libc header for endian conversion ">
<polygon fill="#ffffff" stroke="#000000" points="152.5,-56.5 152.5,-75.5 209.5,-75.5 209.5,-56.5 152.5,-56.5"/>
<text text-anchor="middle" x="181" y="-63.5" font-family="Helvetica,sans-Serif" font-size="10.00" fill="#000000">endian.h</text>
</a>
</g>
</g>
<!-- Node3&#45;&gt;Node5 -->
<g id="edge6" class="edge">
<title>Node3&#45;&gt;Node5</title>
<path fill="none" stroke="#191970" d="M120.7156,-112.2455C131.602,-103.8943 147.4883,-91.7076 160.22,-81.9408"/>
<polygon fill="#191970" stroke="#191970" points="162.6261,-84.5063 168.4301,-75.6427 158.3654,-78.9523 162.6261,-84.5063"/>
</g>
<!-- Node6 -->
<g id="node7" class="node">
<title>Node6</title>
<g id="a_node7"><a xlink:href="unaligned_8h.html" target="_top" xlink:title="Unaligned but safe memory access functions. ">
<polygon fill="#ffffff" stroke="#000000" points="227.5,-56.5 227.5,-75.5 298.5,-75.5 298.5,-56.5 227.5,-56.5"/>
<text text-anchor="middle" x="263" y="-63.5" font-family="Helvetica,sans-Serif" font-size="10.00" fill="#000000">unaligned.h</text>
</a>
</g>
</g>
<!-- Node3&#45;&gt;Node6 -->
<g id="edge8" class="edge">
<title>Node3&#45;&gt;Node6</title>
<path fill="none" stroke="#191970" d="M134.6454,-112.3733C160.1964,-103.1419 198.9512,-89.1402 227.1909,-78.9375"/>
<polygon fill="#191970" stroke="#191970" points="228.4865,-82.1909 236.7022,-75.5011 226.1079,-75.6074 228.4865,-82.1909"/>
</g>
<!-- Node5&#45;&gt;Node2 -->
<g id="edge7" class="edge">
<title>Node5&#45;&gt;Node2</title>
<path fill="none" stroke="#191970" d="M169.8521,-56.2455C160.4913,-48.0549 146.9142,-36.1749 135.8651,-26.5069"/>
<polygon fill="#191970" stroke="#191970" points="137.8508,-23.5937 128.0202,-19.6427 133.2412,-28.8618 137.8508,-23.5937"/>
</g>
<!-- Node6&#45;&gt;Node2 -->
<g id="edge9" class="edge">
<title>Node6&#45;&gt;Node2</title>
<path fill="none" stroke="#191970" d="M237.9017,-56.3733C214.0445,-47.2226 177.9665,-33.3844 151.429,-23.2057"/>
<polygon fill="#191970" stroke="#191970" points="152.361,-19.8145 141.7708,-19.5011 149.8541,-26.3503 152.361,-19.8145"/>
</g>
</g>
</svg>
