<?xml version="1.0" encoding="UTF-8" standalone="no"?>
<!DOCTYPE svg PUBLIC "-//W3C//DTD SVG 1.1//EN"
 "http://www.w3.org/Graphics/SVG/1.1/DTD/svg11.dtd">
<!-- Generated by graphviz version 2.40.1 (0)
 -->
<!-- Title: cpu/cc2538/include/cc2538_gpio.h Pages: 1 -->
<svg width="574pt" height="106pt"
 viewBox="0.00 0.00 574.00 106.00" xmlns="http://www.w3.org/2000/svg" xmlns:xlink="http://www.w3.org/1999/xlink">
<g id="graph0" class="graph" transform="scale(1 1) rotate(0) translate(4 102)">
<title>cpu/cc2538/include/cc2538_gpio.h</title>
<polygon fill="#ffffff" stroke="transparent" points="-4,4 -4,-102 570,-102 570,4 -4,4"/>
<!-- Node4 -->
<g id="node1" class="node">
<title>Node4</title>
<polygon fill="#bfbfbf" stroke="#000000" points="208,-67.5 208,-97.5 315,-97.5 315,-67.5 208,-67.5"/>
<text text-anchor="start" x="216" y="-85.5" font-family="Helvetica,sans-Serif" font-size="10.00" fill="#000000">cpu/cc2538/include</text>
<text text-anchor="middle" x="261.5" y="-74.5" font-family="Helvetica,sans-Serif" font-size="10.00" fill="#000000">/cc2538_gpio.h</text>
</g>
<!-- Node5 -->
<g id="node2" class="node">
<title>Node5</title>
<g id="a_node2"><a xlink:href="cc2538_2include_2cpu__conf_8h.html" target="_top" xlink:title="Implementation specific CPU configuration options. ">
<polygon fill="#ffffff" stroke="#000000" points="0,-.5 0,-30.5 107,-30.5 107,-.5 0,-.5"/>
<text text-anchor="start" x="8" y="-18.5" font-family="Helvetica,sans-Serif" font-size="10.00" fill="#000000">cpu/cc2538/include</text>
<text text-anchor="middle" x="53.5" y="-7.5" font-family="Helvetica,sans-Serif" font-size="10.00" fill="#000000">/cpu_conf.h</text>
</a>
</g>
</g>
<!-- Node4&#45;&gt;Node5 -->
<g id="edge1" class="edge">
<title>Node4&#45;&gt;Node5</title>
<path fill="none" stroke="#191970" d="M204.9237,-64.2759C172.1423,-53.7165 131.3618,-40.5805 100.3829,-30.6017"/>
<polygon fill="#191970" stroke="#191970" points="204.2292,-67.7292 214.8207,-67.4639 206.3755,-61.0664 204.2292,-67.7292"/>
</g>
<!-- Node6 -->
<g id="node3" class="node">
<title>Node6</title>
<g id="a_node3"><a xlink:href="boards_2omote_2include_2periph__conf_8h.html" target="_top" xlink:title="Peripheral MCU configuration for the omote board. ">
<polygon fill="#ffffff" stroke="#000000" points="125.5,-.5 125.5,-30.5 245.5,-30.5 245.5,-.5 125.5,-.5"/>
<text text-anchor="start" x="133.5" y="-18.5" font-family="Helvetica,sans-Serif" font-size="10.00" fill="#000000">boards/omote/include</text>
<text text-anchor="middle" x="185.5" y="-7.5" font-family="Helvetica,sans-Serif" font-size="10.00" fill="#000000">/periph_conf.h</text>
</a>
</g>
</g>
<!-- Node4&#45;&gt;Node6 -->
<g id="edge2" class="edge">
<title>Node4&#45;&gt;Node6</title>
<path fill="none" stroke="#191970" d="M236.5408,-60.4965C225.4503,-50.7193 212.6733,-39.4554 202.6773,-30.6432"/>
<polygon fill="#191970" stroke="#191970" points="234.4386,-63.3091 244.2544,-67.2967 239.0677,-58.0582 234.4386,-63.3091"/>
</g>
<!-- Node7 -->
<g id="node4" class="node">
<title>Node7</title>
<g id="a_node4"><a xlink:href="boards_2openmote-b_2include_2periph__conf_8h.html" target="_top" xlink:title="Peripheral MCU configuration for the OpenMote&#45;B board. ">
<polygon fill="#ffffff" stroke="#000000" points="264,-.5 264,-30.5 411,-30.5 411,-.5 264,-.5"/>
<text text-anchor="start" x="272" y="-18.5" font-family="Helvetica,sans-Serif" font-size="10.00" fill="#000000">boards/openmote&#45;b/include</text>
<text text-anchor="middle" x="337.5" y="-7.5" font-family="Helvetica,sans-Serif" font-size="10.00" fill="#000000">/periph_conf.h</text>
</a>
</g>
</g>
<!-- Node4&#45;&gt;Node7 -->
<g id="edge3" class="edge">
<title>Node4&#45;&gt;Node7</title>
<path fill="none" stroke="#191970" d="M286.4592,-60.4965C297.5497,-50.7193 310.3267,-39.4554 320.3227,-30.6432"/>
<polygon fill="#191970" stroke="#191970" points="283.9323,-58.0582 278.7456,-67.2967 288.5614,-63.3091 283.9323,-58.0582"/>
</g>
<!-- Node8 -->
<g id="node5" class="node">
<title>Node8</title>
<g id="a_node5"><a xlink:href="boards_2openmote-cc2538_2include_2periph__conf_8h.html" target="_top" xlink:title="Peripheral MCU configuration for the OpenMote&#45;cc2538 board. ">
<polygon fill="#ffffff" stroke="#000000" points="429,-.5 429,-30.5 566,-30.5 566,-.5 429,-.5"/>
<text text-anchor="start" x="437" y="-18.5" font-family="Helvetica,sans-Serif" font-size="10.00" fill="#000000">boards/openmote&#45;cc2538</text>
<text text-anchor="middle" x="497.5" y="-7.5" font-family="Helvetica,sans-Serif" font-size="10.00" fill="#000000">/include/periph_conf.h</text>
</a>
</g>
</g>
<!-- Node4&#45;&gt;Node8 -->
<g id="edge4" class="edge">
<title>Node4&#45;&gt;Node8</title>
<path fill="none" stroke="#191970" d="M324.254,-64.6842C361.6881,-54.0568 408.7023,-40.7095 444.306,-30.6017"/>
<polygon fill="#191970" stroke="#191970" points="323.127,-61.3658 314.463,-67.4639 325.0387,-68.0997 323.127,-61.3658"/>
</g>
</g>
</svg>
