<?xml version="1.0" encoding="UTF-8" standalone="no"?>
<!DOCTYPE svg PUBLIC "-//W3C//DTD SVG 1.1//EN"
 "http://www.w3.org/Graphics/SVG/1.1/DTD/svg11.dtd">
<!-- Generated by graphviz version 2.40.1 (0)
 -->
<!-- Title: cpu/cc26xx_cc13xx/include/cc26xx_cc13xx.h Pages: 1 -->
<svg width="2384pt" height="240pt"
 viewBox="0.00 0.00 2384.00 240.00" xmlns="http://www.w3.org/2000/svg" xmlns:xlink="http://www.w3.org/1999/xlink">
<g id="graph0" class="graph" transform="scale(1 1) rotate(0) translate(4 236)">
<title>cpu/cc26xx_cc13xx/include/cc26xx_cc13xx.h</title>
<polygon fill="#ffffff" stroke="transparent" points="-4,4 -4,-236 2380,-236 2380,4 -4,4"/>
<!-- Node3 -->
<g id="node1" class="node">
<title>Node3</title>
<polygon fill="#bfbfbf" stroke="#000000" points="1222,-201.5 1222,-231.5 1363,-231.5 1363,-201.5 1222,-201.5"/>
<text text-anchor="start" x="1230" y="-219.5" font-family="Helvetica,sans-Serif" font-size="10.00" fill="#000000">cpu/cc26xx_cc13xx/include</text>
<text text-anchor="middle" x="1292.5" y="-208.5" font-family="Helvetica,sans-Serif" font-size="10.00" fill="#000000">/cc26xx_cc13xx.h</text>
</g>
<!-- Node4 -->
<g id="node2" class="node">
<title>Node4</title>
<g id="a_node2"><a xlink:href="cc26x0__cc13x0__aux_8h.html" target="_top" xlink:title="CC26x0/CC13x0 AUX register definitions. ">
<polygon fill="#ffffff" stroke="#000000" points="161,-67.5 161,-97.5 304,-97.5 304,-67.5 161,-67.5"/>
<text text-anchor="start" x="169" y="-85.5" font-family="Helvetica,sans-Serif" font-size="10.00" fill="#000000">cpu/cc26x0_cc13x0/include</text>
<text text-anchor="middle" x="232.5" y="-74.5" font-family="Helvetica,sans-Serif" font-size="10.00" fill="#000000">/cc26x0_cc13x0_aux.h</text>
</a>
</g>
</g>
<!-- Node3&#45;&gt;Node4 -->
<g id="edge1" class="edge">
<title>Node3&#45;&gt;Node4</title>
<path fill="none" stroke="#191970" d="M1211.8016,-215.263C972.7116,-211.2404 282.4422,-196.904 246.5,-165 227.7039,-148.3157 227.9184,-116.5051 230.0332,-97.6318"/>
<polygon fill="#191970" stroke="#191970" points="1211.7647,-218.7628 1221.8216,-215.43 1211.8814,-211.7638 1211.7647,-218.7628"/>
</g>
<!-- Node6 -->
<g id="node4" class="node">
<title>Node6</title>
<g id="a_node4"><a xlink:href="cc26x0__cc13x0__fcfg_8h.html" target="_top" xlink:title="CC26x0/CC13x0 FCFG register definitions. ">
<polygon fill="#ffffff" stroke="#000000" points="322,-67.5 322,-97.5 465,-97.5 465,-67.5 322,-67.5"/>
<text text-anchor="start" x="330" y="-85.5" font-family="Helvetica,sans-Serif" font-size="10.00" fill="#000000">cpu/cc26x0_cc13x0/include</text>
<text text-anchor="middle" x="393.5" y="-74.5" font-family="Helvetica,sans-Serif" font-size="10.00" fill="#000000">/cc26x0_cc13x0_fcfg.h</text>
</a>
</g>
</g>
<!-- Node3&#45;&gt;Node6 -->
<g id="edge3" class="edge">
<title>Node3&#45;&gt;Node6</title>
<path fill="none" stroke="#191970" d="M1211.2904,-215.4746C973.1424,-212.0735 291.1936,-199.3625 258.5,-165 229.9109,-134.9515 282.0166,-111.6478 329.5691,-97.5865"/>
<polygon fill="#191970" stroke="#191970" points="1211.5653,-218.9787 1221.6136,-215.6201 1211.664,-211.9794 1211.5653,-218.9787"/>
</g>
<!-- Node7 -->
<g id="node5" class="node">
<title>Node7</title>
<g id="a_node5"><a xlink:href="cc26x0__cc13x0__prcm_8h.html" target="_top" xlink:title="CC26x0/CC13x0 PRCM register definitions. ">
<polygon fill="#ffffff" stroke="#000000" points="0,-67.5 0,-97.5 143,-97.5 143,-67.5 0,-67.5"/>
<text text-anchor="start" x="8" y="-85.5" font-family="Helvetica,sans-Serif" font-size="10.00" fill="#000000">cpu/cc26x0_cc13x0/include</text>
<text text-anchor="middle" x="71.5" y="-74.5" font-family="Helvetica,sans-Serif" font-size="10.00" fill="#000000">/cc26x0_cc13x0_prcm.h</text>
</a>
</g>
</g>
<!-- Node3&#45;&gt;Node7 -->
<g id="edge5" class="edge">
<title>Node3&#45;&gt;Node7</title>
<path fill="none" stroke="#191970" d="M1211.6058,-214.6166C979.3965,-208.926 321.3416,-190.7077 227.5,-165 175.7897,-150.8341 121.8782,-117.4833 92.9392,-97.7968"/>
<polygon fill="#191970" stroke="#191970" points="1211.594,-218.1173 1221.6764,-214.8621 1211.7647,-211.1193 1211.594,-218.1173"/>
</g>
<!-- Node8 -->
<g id="node6" class="node">
<title>Node8</title>
<g id="a_node6"><a xlink:href="cc26x2__cc13x2__aux_8h.html" target="_top" xlink:title="CC26x2, CC13x2 AUX register definitions. ">
<polygon fill="#ffffff" stroke="#000000" points="1750,-67.5 1750,-97.5 1893,-97.5 1893,-67.5 1750,-67.5"/>
<text text-anchor="start" x="1758" y="-85.5" font-family="Helvetica,sans-Serif" font-size="10.00" fill="#000000">cpu/cc26x2_cc13x2/include</text>
<text text-anchor="middle" x="1821.5" y="-74.5" font-family="Helvetica,sans-Serif" font-size="10.00" fill="#000000">/cc26x2_cc13x2_aux.h</text>
</a>
</g>
</g>
<!-- Node3&#45;&gt;Node8 -->
<g id="edge7" class="edge">
<title>Node3&#45;&gt;Node8</title>
<path fill="none" stroke="#191970" d="M1373.4726,-215.4507C1528.3689,-212.5988 1854.3783,-202.1973 1888.5,-165 1909.2048,-142.429 1874.8865,-114.4409 1848.1974,-97.5514"/>
<polygon fill="#191970" stroke="#191970" points="1373.0082,-211.9583 1363.072,-215.6356 1373.1327,-218.9572 1373.0082,-211.9583"/>
</g>
<!-- Node10 -->
<g id="node8" class="node">
<title>Node10</title>
<g id="a_node8"><a xlink:href="cc26x2__cc13x2__fcfg_8h.html" target="_top" xlink:title="CC26x2, CC13x2 FCFG register definitions. ">
<polygon fill="#ffffff" stroke="#000000" points="1911,-67.5 1911,-97.5 2054,-97.5 2054,-67.5 1911,-67.5"/>
<text text-anchor="start" x="1919" y="-85.5" font-family="Helvetica,sans-Serif" font-size="10.00" fill="#000000">cpu/cc26x2_cc13x2/include</text>
<text text-anchor="middle" x="1982.5" y="-74.5" font-family="Helvetica,sans-Serif" font-size="10.00" fill="#000000">/cc26x2_cc13x2_fcfg.h</text>
</a>
</g>
</g>
<!-- Node3&#45;&gt;Node10 -->
<g id="edge9" class="edge">
<title>Node3&#45;&gt;Node10</title>
<path fill="none" stroke="#191970" d="M1373.1977,-214.2092C1570.3754,-208.2202 2062.3592,-190.7573 2086.5,-165 2111.5588,-138.2632 2065.3711,-112.9135 2026.7718,-97.5418"/>
<polygon fill="#191970" stroke="#191970" points="1373.074,-210.7112 1363.184,-214.5111 1373.285,-217.708 1373.074,-210.7112"/>
</g>
<!-- Node11 -->
<g id="node9" class="node">
<title>Node11</title>
<g id="a_node9"><a xlink:href="cc26x2__cc13x2__prcm_8h.html" target="_top" xlink:title="CC26x2, CC13x2 PRCM register definitions. ">
<polygon fill="#ffffff" stroke="#000000" points="2072,-67.5 2072,-97.5 2215,-97.5 2215,-67.5 2072,-67.5"/>
<text text-anchor="start" x="2080" y="-85.5" font-family="Helvetica,sans-Serif" font-size="10.00" fill="#000000">cpu/cc26x2_cc13x2/include</text>
<text text-anchor="middle" x="2143.5" y="-74.5" font-family="Helvetica,sans-Serif" font-size="10.00" fill="#000000">/cc26x2_cc13x2_prcm.h</text>
</a>
</g>
</g>
<!-- Node3&#45;&gt;Node11 -->
<g id="edge11" class="edge">
<title>Node3&#45;&gt;Node11</title>
<path fill="none" stroke="#191970" d="M1373.3622,-215.9389C1566.6633,-213.9541 2043.9186,-205.0123 2103.5,-165 2126.493,-149.5589 2136.7089,-116.9951 2140.8944,-97.7182"/>
<polygon fill="#191970" stroke="#191970" points="1373.2278,-212.4399 1363.263,-216.0389 1373.2972,-219.4396 1373.2278,-212.4399"/>
</g>
<!-- Node12 -->
<g id="node10" class="node">
<title>Node12</title>
<g id="a_node10"><a xlink:href="cc26x2__cc13x2__setup_8h.html" target="_top" xlink:title="CC26x2/CC13x2 Device setup functions. ">
<polygon fill="#ffffff" stroke="#000000" points="2233,-67.5 2233,-97.5 2376,-97.5 2376,-67.5 2233,-67.5"/>
<text text-anchor="start" x="2241" y="-85.5" font-family="Helvetica,sans-Serif" font-size="10.00" fill="#000000">cpu/cc26x2_cc13x2/include</text>
<text text-anchor="middle" x="2304.5" y="-74.5" font-family="Helvetica,sans-Serif" font-size="10.00" fill="#000000">/cc26x2_cc13x2_setup.h</text>
</a>
</g>
</g>
<!-- Node3&#45;&gt;Node12 -->
<g id="edge13" class="edge">
<title>Node3&#45;&gt;Node12</title>
<path fill="none" stroke="#191970" d="M1373.5729,-215.3983C1554.8506,-212.306 1988.1338,-201.246 2129.5,-165 2186.4386,-150.4011 2247.3091,-117.2093 2280.1283,-97.6667"/>
<polygon fill="#191970" stroke="#191970" points="1373.2448,-211.9032 1363.3046,-215.5695 1373.3616,-218.9022 1373.2448,-211.9032"/>
</g>
<!-- Node13 -->
<g id="node11" class="node">
<title>Node13</title>
<g id="a_node11"><a xlink:href="cc26xx__cc13xx__adi_8h.html" target="_top" xlink:title="CC26xx/CC13xx MCU I/O register definitions. ">
<polygon fill="#ffffff" stroke="#000000" points="1381,-134.5 1381,-164.5 1522,-164.5 1522,-134.5 1381,-134.5"/>
<text text-anchor="start" x="1389" y="-152.5" font-family="Helvetica,sans-Serif" font-size="10.00" fill="#000000">cpu/cc26xx_cc13xx/include</text>
<text text-anchor="middle" x="1451.5" y="-141.5" font-family="Helvetica,sans-Serif" font-size="10.00" fill="#000000">/cc26xx_cc13xx_adi.h</text>
</a>
</g>
</g>
<!-- Node3&#45;&gt;Node13 -->
<g id="edge15" class="edge">
<title>Node3&#45;&gt;Node13</title>
<path fill="none" stroke="#191970" d="M1337.7045,-197.4516C1362.4145,-187.0392 1392.5931,-174.3224 1415.6617,-164.6017"/>
<polygon fill="#191970" stroke="#191970" points="1336.0388,-194.3553 1328.1827,-201.4639 1338.7571,-200.806 1336.0388,-194.3553"/>
</g>
<!-- Node14 -->
<g id="node12" class="node">
<title>Node14</title>
<g id="a_node12"><a xlink:href="cpu__conf__cc26xx__cc13xx_8h.html" target="_top" xlink:title="Implementation specific CPU configuration options. ">
<polygon fill="#ffffff" stroke="#000000" points="1062,-67.5 1062,-97.5 1205,-97.5 1205,-67.5 1062,-67.5"/>
<text text-anchor="start" x="1070" y="-85.5" font-family="Helvetica,sans-Serif" font-size="10.00" fill="#000000">cpu/cc26xx_cc13xx/include</text>
<text text-anchor="middle" x="1133.5" y="-74.5" font-family="Helvetica,sans-Serif" font-size="10.00" fill="#000000">/cpu_conf_cc26xx_cc13xx.h</text>
</a>
</g>
</g>
<!-- Node3&#45;&gt;Node14 -->
<g id="edge38" class="edge">
<title>Node3&#45;&gt;Node14</title>
<path fill="none" stroke="#191970" d="M1373.3774,-209.8188C1434.7135,-202.8766 1511.7345,-189.4783 1531.5,-165 1540.1557,-154.2805 1540.5958,-144.3486 1531.5,-134 1510.3414,-109.9272 1313.9909,-93.8541 1205.2174,-86.7171"/>
<polygon fill="#191970" stroke="#191970" points="1372.8535,-206.3551 1363.2921,-210.919 1373.6127,-213.3139 1372.8535,-206.3551"/>
</g>
<!-- Node15 -->
<g id="node13" class="node">
<title>Node15</title>
<g id="a_node13"><a xlink:href="cc26xx__cc13xx__ccfg_8h.html" target="_top" xlink:title="CC26xx/CC13xx CCFG register definitions. ">
<polygon fill="#ffffff" stroke="#000000" points="1579,-134.5 1579,-164.5 1720,-164.5 1720,-134.5 1579,-134.5"/>
<text text-anchor="start" x="1587" y="-152.5" font-family="Helvetica,sans-Serif" font-size="10.00" fill="#000000">cpu/cc26xx_cc13xx/include</text>
<text text-anchor="middle" x="1649.5" y="-141.5" font-family="Helvetica,sans-Serif" font-size="10.00" fill="#000000">/cc26xx_cc13xx_ccfg.h</text>
</a>
</g>
</g>
<!-- Node3&#45;&gt;Node15 -->
<g id="edge19" class="edge">
<title>Node3&#45;&gt;Node15</title>
<path fill="none" stroke="#191970" d="M1373.1447,-201.365C1435.0109,-189.7543 1519.5746,-173.8838 1578.81,-162.7668"/>
<polygon fill="#191970" stroke="#191970" points="1372.2145,-197.9784 1363.0317,-203.263 1373.5057,-204.8583 1372.2145,-197.9784"/>
</g>
<!-- Node16 -->
<g id="node14" class="node">
<title>Node16</title>
<g id="a_node14"><a xlink:href="cc26xx__cc13xx__gpio_8h.html" target="_top" xlink:title="Driver for the cc26xx/cc13xx GPIO controller. ">
<polygon fill="#ffffff" stroke="#000000" points="1738,-134.5 1738,-164.5 1879,-164.5 1879,-134.5 1738,-134.5"/>
<text text-anchor="start" x="1746" y="-152.5" font-family="Helvetica,sans-Serif" font-size="10.00" fill="#000000">cpu/cc26xx_cc13xx/include</text>
<text text-anchor="middle" x="1808.5" y="-141.5" font-family="Helvetica,sans-Serif" font-size="10.00" fill="#000000">/cc26xx_cc13xx_gpio.h</text>
</a>
</g>
</g>
<!-- Node3&#45;&gt;Node16 -->
<g id="edge21" class="edge">
<title>Node3&#45;&gt;Node16</title>
<path fill="none" stroke="#191970" d="M1373.2848,-208.8469C1461.1823,-200.0852 1605.7227,-184.4072 1729.5,-165 1732.2616,-164.567 1735.0739,-164.1071 1737.9121,-163.627"/>
<polygon fill="#191970" stroke="#191970" points="1372.7214,-205.3855 1363.1154,-209.8549 1373.4119,-212.3514 1372.7214,-205.3855"/>
</g>
<!-- Node17 -->
<g id="node15" class="node">
<title>Node17</title>
<g id="a_node15"><a xlink:href="cc26xx__cc13xx__gpt_8h.html" target="_top" xlink:title="definitions for the CC26xx/CC13XX GPT modules ">
<polygon fill="#ffffff" stroke="#000000" points="268,-134.5 268,-164.5 409,-164.5 409,-134.5 268,-134.5"/>
<text text-anchor="start" x="276" y="-152.5" font-family="Helvetica,sans-Serif" font-size="10.00" fill="#000000">cpu/cc26xx_cc13xx/include</text>
<text text-anchor="middle" x="338.5" y="-141.5" font-family="Helvetica,sans-Serif" font-size="10.00" fill="#000000">/cc26xx_cc13xx_gpt.h</text>
</a>
</g>
</g>
<!-- Node3&#45;&gt;Node17 -->
<g id="edge23" class="edge">
<title>Node3&#45;&gt;Node17</title>
<path fill="none" stroke="#191970" d="M1211.5198,-215.3785C1056.6914,-212.4285 708.2138,-201.9034 417.5,-165 414.7269,-164.648 411.9049,-164.2564 409.0586,-163.8335"/>
<polygon fill="#191970" stroke="#191970" points="1211.8195,-218.8845 1221.8825,-215.5701 1211.949,-211.8857 1211.8195,-218.8845"/>
</g>
<!-- Node18 -->
<g id="node16" class="node">
<title>Node18</title>
<g id="a_node16"><a xlink:href="cc26xx__cc13xx__hard__api_8h.html" target="_top" xlink:title="CC26xx/CC13xx ROM Hard&#45;API. ">
<polygon fill="#ffffff" stroke="#000000" points="427,-134.5 427,-164.5 568,-164.5 568,-134.5 427,-134.5"/>
<text text-anchor="start" x="435" y="-152.5" font-family="Helvetica,sans-Serif" font-size="10.00" fill="#000000">cpu/cc26xx_cc13xx/include</text>
<text text-anchor="middle" x="497.5" y="-141.5" font-family="Helvetica,sans-Serif" font-size="10.00" fill="#000000">/cc26xx_cc13xx_hard_api.h</text>
</a>
</g>
</g>
<!-- Node3&#45;&gt;Node18 -->
<g id="edge25" class="edge">
<title>Node3&#45;&gt;Node18</title>
<path fill="none" stroke="#191970" d="M1211.7283,-213.9004C1078.7738,-208.9029 805.6988,-195.6114 576.5,-165 573.7292,-164.6299 570.9092,-164.2231 568.0646,-163.7875"/>
<polygon fill="#191970" stroke="#191970" points="1211.7084,-217.402 1221.831,-214.2743 1211.9673,-210.4068 1211.7084,-217.402"/>
</g>
<!-- Node19 -->
<g id="node17" class="node">
<title>Node19</title>
<g id="a_node17"><a xlink:href="cc26xx__cc13xx__i2c_8h.html" target="_top" xlink:title="CC26xx/CC13xx MCU I/O register definitions. ">
<polygon fill="#ffffff" stroke="#000000" points="586,-134.5 586,-164.5 727,-164.5 727,-134.5 586,-134.5"/>
<text text-anchor="start" x="594" y="-152.5" font-family="Helvetica,sans-Serif" font-size="10.00" fill="#000000">cpu/cc26xx_cc13xx/include</text>
<text text-anchor="middle" x="656.5" y="-141.5" font-family="Helvetica,sans-Serif" font-size="10.00" fill="#000000">/cc26xx_cc13xx_i2c.h</text>
</a>
</g>
</g>
<!-- Node3&#45;&gt;Node19 -->
<g id="edge27" class="edge">
<title>Node3&#45;&gt;Node19</title>
<path fill="none" stroke="#191970" d="M1211.6604,-211.6101C1103.0151,-204.449 904.0457,-189.2624 735.5,-165 732.7332,-164.6017 729.9165,-164.171 727.0746,-163.7155"/>
<polygon fill="#191970" stroke="#191970" points="1211.6815,-215.1188 1221.8884,-212.2781 1212.1378,-208.1337 1211.6815,-215.1188"/>
</g>
<!-- Node20 -->
<g id="node18" class="node">
<title>Node20</title>
<g id="a_node18"><a xlink:href="cc26xx__cc13xx__ioc_8h.html" target="_top" xlink:title="CC26xx/CC13xx MCU I/O register definitions. ">
<polygon fill="#ffffff" stroke="#000000" points="745,-134.5 745,-164.5 886,-164.5 886,-134.5 745,-134.5"/>
<text text-anchor="start" x="753" y="-152.5" font-family="Helvetica,sans-Serif" font-size="10.00" fill="#000000">cpu/cc26xx_cc13xx/include</text>
<text text-anchor="middle" x="815.5" y="-141.5" font-family="Helvetica,sans-Serif" font-size="10.00" fill="#000000">/cc26xx_cc13xx_ioc.h</text>
</a>
</g>
</g>
<!-- Node3&#45;&gt;Node20 -->
<g id="edge29" class="edge">
<title>Node3&#45;&gt;Node20</title>
<path fill="none" stroke="#191970" d="M1211.7659,-207.6138C1131.1997,-198.3793 1003.9757,-182.8033 894.5,-165 891.7409,-164.5513 888.9307,-164.0781 886.0943,-163.587"/>
<polygon fill="#191970" stroke="#191970" points="1211.5099,-211.1072 1221.8422,-208.7635 1212.3035,-204.1523 1211.5099,-211.1072"/>
</g>
<!-- Node21 -->
<g id="node19" class="node">
<title>Node21</title>
<g id="a_node19"><a xlink:href="cc26xx__cc13xx__power_8h.html" target="_top" xlink:title="CC26xx/CC13xx Power management. ">
<polygon fill="#ffffff" stroke="#000000" points="1936,-134.5 1936,-164.5 2077,-164.5 2077,-134.5 1936,-134.5"/>
<text text-anchor="start" x="1944" y="-152.5" font-family="Helvetica,sans-Serif" font-size="10.00" fill="#000000">cpu/cc26xx_cc13xx/include</text>
<text text-anchor="middle" x="2006.5" y="-141.5" font-family="Helvetica,sans-Serif" font-size="10.00" fill="#000000">/cc26xx_cc13xx_power.h</text>
</a>
</g>
</g>
<!-- Node3&#45;&gt;Node21 -->
<g id="edge31" class="edge">
<title>Node3&#45;&gt;Node21</title>
<path fill="none" stroke="#191970" d="M1373.2174,-212.4454C1493.1767,-205.8422 1725.4387,-190.8384 1921.5,-165 1926.1102,-164.3924 1930.8503,-163.7047 1935.6212,-162.9652"/>
<polygon fill="#191970" stroke="#191970" points="1372.8129,-208.9621 1363.0183,-213.0014 1373.1941,-215.9517 1372.8129,-208.9621"/>
</g>
<!-- Node22 -->
<g id="node20" class="node">
<title>Node22</title>
<g id="a_node20"><a xlink:href="cc26xx__cc13xx__rfc_8h.html" target="_top" xlink:title="CC26xx/CC13xx MCU I/O register definitions. ">
<polygon fill="#ffffff" stroke="#000000" points="904,-134.5 904,-164.5 1045,-164.5 1045,-134.5 904,-134.5"/>
<text text-anchor="start" x="912" y="-152.5" font-family="Helvetica,sans-Serif" font-size="10.00" fill="#000000">cpu/cc26xx_cc13xx/include</text>
<text text-anchor="middle" x="974.5" y="-141.5" font-family="Helvetica,sans-Serif" font-size="10.00" fill="#000000">/cc26xx_cc13xx_rfc.h</text>
</a>
</g>
</g>
<!-- Node3&#45;&gt;Node22 -->
<g id="edge32" class="edge">
<title>Node3&#45;&gt;Node22</title>
<path fill="none" stroke="#191970" d="M1211.8491,-199.5075C1160.4501,-188.6782 1094.4876,-174.7804 1045.1516,-164.3857"/>
<polygon fill="#191970" stroke="#191970" points="1211.4187,-202.9936 1221.9255,-201.6305 1212.8619,-196.144 1211.4187,-202.9936"/>
</g>
<!-- Node23 -->
<g id="node21" class="node">
<title>Node23</title>
<g id="a_node21"><a xlink:href="cc26xx__cc13xx__uart_8h.html" target="_top" xlink:title="CC26xx/CC13xx UART interface. ">
<polygon fill="#ffffff" stroke="#000000" points="1063,-134.5 1063,-164.5 1204,-164.5 1204,-134.5 1063,-134.5"/>
<text text-anchor="start" x="1071" y="-152.5" font-family="Helvetica,sans-Serif" font-size="10.00" fill="#000000">cpu/cc26xx_cc13xx/include</text>
<text text-anchor="middle" x="1133.5" y="-141.5" font-family="Helvetica,sans-Serif" font-size="10.00" fill="#000000">/cc26xx_cc13xx_uart.h</text>
</a>
</g>
</g>
<!-- Node3&#45;&gt;Node23 -->
<g id="edge34" class="edge">
<title>Node3&#45;&gt;Node23</title>
<path fill="none" stroke="#191970" d="M1247.2955,-197.4516C1222.5855,-187.0392 1192.4069,-174.3224 1169.3383,-164.6017"/>
<polygon fill="#191970" stroke="#191970" points="1246.2429,-200.806 1256.8173,-201.4639 1248.9612,-194.3553 1246.2429,-200.806"/>
</g>
<!-- Node24 -->
<g id="node22" class="node">
<title>Node24</title>
<g id="a_node22"><a xlink:href="cc26xx__cc13xx__wdt_8h.html" target="_top" xlink:title="CC26xx/CC13xx WDT register definitions. ">
<polygon fill="#ffffff" stroke="#000000" points="1222,-134.5 1222,-164.5 1363,-164.5 1363,-134.5 1222,-134.5"/>
<text text-anchor="start" x="1230" y="-152.5" font-family="Helvetica,sans-Serif" font-size="10.00" fill="#000000">cpu/cc26xx_cc13xx/include</text>
<text text-anchor="middle" x="1292.5" y="-141.5" font-family="Helvetica,sans-Serif" font-size="10.00" fill="#000000">/cc26xx_cc13xx_wdt.h</text>
</a>
</g>
</g>
<!-- Node3&#45;&gt;Node24 -->
<g id="edge36" class="edge">
<title>Node3&#45;&gt;Node24</title>
<path fill="none" stroke="#191970" d="M1292.5,-191.0249C1292.5,-182.128 1292.5,-172.4287 1292.5,-164.6432"/>
<polygon fill="#191970" stroke="#191970" points="1289.0001,-191.2966 1292.5,-201.2967 1296.0001,-191.2967 1289.0001,-191.2966"/>
</g>
<!-- Node5 -->
<g id="node3" class="node">
<title>Node5</title>
<g id="a_node3"><a xlink:href="cc26x0__cc13x0_2include_2cpu__conf_8h.html" target="_top" xlink:title="Implementation specific CPU configuration options. ">
<polygon fill="#ffffff" stroke="#000000" points="242,-.5 242,-30.5 385,-30.5 385,-.5 242,-.5"/>
<text text-anchor="start" x="250" y="-18.5" font-family="Helvetica,sans-Serif" font-size="10.00" fill="#000000">cpu/cc26x0_cc13x0/include</text>
<text text-anchor="middle" x="313.5" y="-7.5" font-family="Helvetica,sans-Serif" font-size="10.00" fill="#000000">/cpu_conf.h</text>
</a>
</g>
</g>
<!-- Node4&#45;&gt;Node5 -->
<g id="edge2" class="edge">
<title>Node4&#45;&gt;Node5</title>
<path fill="none" stroke="#191970" d="M258.7575,-60.7808C270.6567,-50.9383 284.4356,-39.541 295.1926,-30.6432"/>
<polygon fill="#191970" stroke="#191970" points="256.3549,-58.2259 250.8802,-67.2967 260.8165,-63.6198 256.3549,-58.2259"/>
</g>
<!-- Node6&#45;&gt;Node5 -->
<g id="edge4" class="edge">
<title>Node6&#45;&gt;Node5</title>
<path fill="none" stroke="#191970" d="M367.5667,-60.7808C355.8144,-50.9383 342.2056,-39.541 331.5814,-30.6432"/>
<polygon fill="#191970" stroke="#191970" points="365.433,-63.5592 375.3468,-67.2967 369.9275,-58.1927 365.433,-63.5592"/>
</g>
<!-- Node7&#45;&gt;Node5 -->
<g id="edge6" class="edge">
<title>Node7&#45;&gt;Node5</title>
<path fill="none" stroke="#191970" d="M135.8495,-64.6842C174.2352,-54.0568 222.4447,-40.7095 258.9536,-30.6017"/>
<polygon fill="#191970" stroke="#191970" points="134.5131,-61.4225 125.8095,-67.4639 136.3809,-68.1687 134.5131,-61.4225"/>
</g>
<!-- Node9 -->
<g id="node7" class="node">
<title>Node9</title>
<g id="a_node7"><a xlink:href="cc26x2__cc13x2_2include_2cpu__conf_8h.html" target="_top" xlink:title="Implementation specific CPU configuration options. ">
<polygon fill="#ffffff" stroke="#000000" points="1911,-.5 1911,-30.5 2054,-30.5 2054,-.5 1911,-.5"/>
<text text-anchor="start" x="1919" y="-18.5" font-family="Helvetica,sans-Serif" font-size="10.00" fill="#000000">cpu/cc26x2_cc13x2/include</text>
<text text-anchor="middle" x="1982.5" y="-7.5" font-family="Helvetica,sans-Serif" font-size="10.00" fill="#000000">/cpu_conf.h</text>
</a>
</g>
</g>
<!-- Node8&#45;&gt;Node9 -->
<g id="edge8" class="edge">
<title>Node8&#45;&gt;Node9</title>
<path fill="none" stroke="#191970" d="M1866.9413,-63.5897C1892.0233,-53.1518 1922.7488,-40.3654 1946.2109,-30.6017"/>
<polygon fill="#191970" stroke="#191970" points="1865.5193,-60.3904 1857.6315,-67.4639 1868.2088,-66.8531 1865.5193,-60.3904"/>
</g>
<!-- Node10&#45;&gt;Node9 -->
<g id="edge10" class="edge">
<title>Node10&#45;&gt;Node9</title>
<path fill="none" stroke="#191970" d="M1982.5,-57.0249C1982.5,-48.128 1982.5,-38.4287 1982.5,-30.6432"/>
<polygon fill="#191970" stroke="#191970" points="1979.0001,-57.2966 1982.5,-67.2967 1986.0001,-57.2967 1979.0001,-57.2966"/>
</g>
<!-- Node11&#45;&gt;Node9 -->
<g id="edge12" class="edge">
<title>Node11&#45;&gt;Node9</title>
<path fill="none" stroke="#191970" d="M2098.0587,-63.5897C2072.9767,-53.1518 2042.2512,-40.3654 2018.7891,-30.6017"/>
<polygon fill="#191970" stroke="#191970" points="2096.7912,-66.8531 2107.3685,-67.4639 2099.4807,-60.3904 2096.7912,-66.8531"/>
</g>
<!-- Node12&#45;&gt;Node9 -->
<g id="edge14" class="edge">
<title>Node12&#45;&gt;Node9</title>
<path fill="none" stroke="#191970" d="M2222.775,-65.4951C2170.7736,-54.6749 2104.069,-40.7954 2054.1426,-30.407"/>
<polygon fill="#191970" stroke="#191970" points="2222.1344,-68.9367 2232.6377,-67.5473 2223.5604,-62.0835 2222.1344,-68.9367"/>
</g>
<!-- Node13&#45;&gt;Node14 -->
<g id="edge16" class="edge">
<title>Node13&#45;&gt;Node14</title>
<path fill="none" stroke="#191970" d="M1370.8849,-132.515C1319.6713,-121.7248 1253.9883,-107.8859 1204.7014,-97.5016"/>
<polygon fill="#191970" stroke="#191970" points="1370.4187,-135.9936 1380.9255,-134.6305 1371.8619,-129.144 1370.4187,-135.9936"/>
</g>
<!-- Node14&#45;&gt;Node5 -->
<g id="edge17" class="edge">
<title>Node14&#45;&gt;Node5</title>
<path fill="none" stroke="#191970" d="M1051.5094,-75.8008C890.8648,-62.6749 537.1338,-33.7725 385.1745,-21.3563"/>
<polygon fill="#191970" stroke="#191970" points="1051.5555,-79.3161 1061.8074,-76.6422 1052.1256,-72.3394 1051.5555,-79.3161"/>
</g>
<!-- Node14&#45;&gt;Node9 -->
<g id="edge18" class="edge">
<title>Node14&#45;&gt;Node9</title>
<path fill="none" stroke="#191970" d="M1215.2842,-76.0459C1380.9691,-62.9706 1753.8152,-33.547 1910.7387,-21.1631"/>
<polygon fill="#191970" stroke="#191970" points="1214.8472,-72.5694 1205.1536,-76.8454 1215.398,-79.5477 1214.8472,-72.5694"/>
</g>
<!-- Node15&#45;&gt;Node14 -->
<g id="edge20" class="edge">
<title>Node15&#45;&gt;Node14</title>
<path fill="none" stroke="#191970" d="M1568.409,-134.5985C1567.0969,-134.3947 1565.7932,-134.195 1564.5,-134 1438.5672,-115.0124 1291.0726,-98.6503 1205.3667,-89.7222"/>
<polygon fill="#191970" stroke="#191970" points="1568.1648,-138.104 1578.5932,-136.2335 1569.2744,-131.1925 1568.1648,-138.104"/>
</g>
<!-- Node16&#45;&gt;Node14 -->
<g id="edge22" class="edge">
<title>Node16&#45;&gt;Node14</title>
<path fill="none" stroke="#191970" d="M1727.8243,-133.8504C1533.6859,-106.9768 1315.691,-92.4526 1205.3402,-86.2065"/>
<polygon fill="#191970" stroke="#191970" points="1727.54,-137.3446 1737.9284,-135.2633 1728.5095,-130.412 1727.54,-137.3446"/>
</g>
<!-- Node17&#45;&gt;Node14 -->
<g id="edge24" class="edge">
<title>Node17&#45;&gt;Node14</title>
<path fill="none" stroke="#191970" d="M419.0515,-133.8887C659.6939,-102.3146 934.3215,-89.4211 1061.813,-84.7628"/>
<polygon fill="#191970" stroke="#191970" points="418.518,-130.4287 409.0646,-135.2125 419.4378,-137.368 418.518,-130.4287"/>
</g>
<!-- Node18&#45;&gt;Node14 -->
<g id="edge26" class="edge">
<title>Node18&#45;&gt;Node14</title>
<path fill="none" stroke="#191970" d="M578.2118,-133.8359C757.3504,-108.492 957.1476,-93.5802 1061.5655,-86.8076"/>
<polygon fill="#191970" stroke="#191970" points="577.4789,-130.405 568.0746,-135.2845 578.4692,-137.3346 577.4789,-130.405"/>
</g>
<!-- Node19&#45;&gt;Node14 -->
<g id="edge28" class="edge">
<title>Node19&#45;&gt;Node14</title>
<path fill="none" stroke="#191970" d="M737.1288,-133.7897C856.3633,-114.645 984.0927,-99.1901 1061.7583,-90.3597"/>
<polygon fill="#191970" stroke="#191970" points="736.407,-130.3609 727.0943,-135.413 737.5249,-137.271 736.407,-130.3609"/>
</g>
<!-- Node20&#45;&gt;Node14 -->
<g id="edge30" class="edge">
<title>Node20&#45;&gt;Node14</title>
<path fill="none" stroke="#191970" d="M896.1151,-132.515C947.3287,-121.7248 1013.0117,-107.8859 1062.2986,-97.5016"/>
<polygon fill="#191970" stroke="#191970" points="895.1381,-129.144 886.0745,-134.6305 896.5813,-135.9936 895.1381,-129.144"/>
</g>
<!-- Node22&#45;&gt;Node14 -->
<g id="edge33" class="edge">
<title>Node22&#45;&gt;Node14</title>
<path fill="none" stroke="#191970" d="M1019.7045,-130.4516C1044.4145,-120.0392 1074.5931,-107.3224 1097.6617,-97.6017"/>
<polygon fill="#191970" stroke="#191970" points="1018.0388,-127.3553 1010.1827,-134.4639 1020.7571,-133.806 1018.0388,-127.3553"/>
</g>
<!-- Node23&#45;&gt;Node14 -->
<g id="edge35" class="edge">
<title>Node23&#45;&gt;Node14</title>
<path fill="none" stroke="#191970" d="M1133.5,-124.0249C1133.5,-115.128 1133.5,-105.4287 1133.5,-97.6432"/>
<polygon fill="#191970" stroke="#191970" points="1130.0001,-124.2966 1133.5,-134.2967 1137.0001,-124.2967 1130.0001,-124.2966"/>
</g>
<!-- Node24&#45;&gt;Node14 -->
<g id="edge37" class="edge">
<title>Node24&#45;&gt;Node14</title>
<path fill="none" stroke="#191970" d="M1247.2955,-130.4516C1222.5855,-120.0392 1192.4069,-107.3224 1169.3383,-97.6017"/>
<polygon fill="#191970" stroke="#191970" points="1246.2429,-133.806 1256.8173,-134.4639 1248.9612,-127.3553 1246.2429,-133.806"/>
</g>
</g>
</svg>
