<?xml version="1.0" encoding="UTF-8" standalone="no"?>
<!DOCTYPE svg PUBLIC "-//W3C//DTD SVG 1.1//EN"
 "http://www.w3.org/Graphics/SVG/1.1/DTD/svg11.dtd">
<!-- Generated by graphviz version 2.40.1 (0)
 -->
<!-- Title: boards/common/stm32/include/cfg_timer_tim5_and_tim2.h Pages: 1 -->
<svg width="135pt" height="117pt"
 viewBox="0.00 0.00 135.00 117.00" xmlns="http://www.w3.org/2000/svg" xmlns:xlink="http://www.w3.org/1999/xlink">
<g id="graph0" class="graph" transform="scale(1 1) rotate(0) translate(4 113)">
<title>boards/common/stm32/include/cfg_timer_tim5_and_tim2.h</title>
<polygon fill="#ffffff" stroke="transparent" points="-4,4 -4,-113 131,-113 131,4 -4,4"/>
<!-- Node2 -->
<g id="node1" class="node">
<title>Node2</title>
<polygon fill="#bfbfbf" stroke="#000000" points="0,-67.5 0,-108.5 127,-108.5 127,-67.5 0,-67.5"/>
<text text-anchor="start" x="8" y="-96.5" font-family="Helvetica,sans-Serif" font-size="10.00" fill="#000000">boards/common/stm32</text>
<text text-anchor="start" x="8" y="-85.5" font-family="Helvetica,sans-Serif" font-size="10.00" fill="#000000">/include/cfg_timer_tim5</text>
<text text-anchor="middle" x="63.5" y="-74.5" font-family="Helvetica,sans-Serif" font-size="10.00" fill="#000000">_and_tim2.h</text>
</g>
<!-- Node3 -->
<g id="node2" class="node">
<title>Node3</title>
<g id="a_node2"><a xlink:href="boards_2nucleo-f429zi_2include_2periph__conf_8h.html" target="_top" xlink:title="boards/nucleo&#45;f429zi\l/include/periph_conf.h">
<polygon fill="#ffffff" stroke="#000000" points="2.5,-.5 2.5,-30.5 124.5,-30.5 124.5,-.5 2.5,-.5"/>
<text text-anchor="start" x="10.5" y="-18.5" font-family="Helvetica,sans-Serif" font-size="10.00" fill="#000000">boards/nucleo&#45;f429zi</text>
<text text-anchor="middle" x="63.5" y="-7.5" font-family="Helvetica,sans-Serif" font-size="10.00" fill="#000000">/include/periph_conf.h</text>
</a>
</g>
</g>
<!-- Node2&#45;&gt;Node3 -->
<g id="edge1" class="edge">
<title>Node2&#45;&gt;Node3</title>
<path fill="none" stroke="#191970" d="M63.5,-57.3279C63.5,-48.0871 63.5,-38.3508 63.5,-30.5991"/>
<polygon fill="#191970" stroke="#191970" points="60.0001,-57.4183 63.5,-67.4183 67.0001,-57.4184 60.0001,-57.4183"/>
</g>
</g>
</svg>
