<?xml version="1.0" encoding="UTF-8" standalone="no"?>
<!DOCTYPE svg PUBLIC "-//W3C//DTD SVG 1.1//EN"
 "http://www.w3.org/Graphics/SVG/1.1/DTD/svg11.dtd">
<!-- Generated by graphviz version 2.40.1 (0)
 -->
<!-- Title: boards/common/msp430/include/cfg_timer_a_smclk_b_aclk.h Pages: 1 -->
<svg width="142pt" height="106pt"
 viewBox="0.00 0.00 142.00 106.00" xmlns="http://www.w3.org/2000/svg" xmlns:xlink="http://www.w3.org/1999/xlink">
<g id="graph0" class="graph" transform="scale(1 1) rotate(0) translate(4 102)">
<title>boards/common/msp430/include/cfg_timer_a_smclk_b_aclk.h</title>
<polygon fill="#ffffff" stroke="transparent" points="-4,4 -4,-102 138,-102 138,4 -4,4"/>
<!-- Node0 -->
<g id="node1" class="node">
<title>Node0</title>
<polygon fill="#bfbfbf" stroke="#000000" points="0,-56.5 0,-97.5 134,-97.5 134,-56.5 0,-56.5"/>
<text text-anchor="start" x="8" y="-85.5" font-family="Helvetica,sans-Serif" font-size="10.00" fill="#000000">boards/common/msp430</text>
<text text-anchor="start" x="8" y="-74.5" font-family="Helvetica,sans-Serif" font-size="10.00" fill="#000000">/include/cfg_timer_a</text>
<text text-anchor="middle" x="67" y="-63.5" font-family="Helvetica,sans-Serif" font-size="10.00" fill="#000000">_smclk_b_aclk.h</text>
</g>
<!-- Node1 -->
<g id="node2" class="node">
<title>Node1</title>
<polygon fill="#ffffff" stroke="#bfbfbf" points="28.5,-.5 28.5,-19.5 105.5,-19.5 105.5,-.5 28.5,-.5"/>
<text text-anchor="middle" x="67" y="-7.5" font-family="Helvetica,sans-Serif" font-size="10.00" fill="#000000">periph_cpu.h</text>
</g>
<!-- Node0&#45;&gt;Node1 -->
<g id="edge1" class="edge">
<title>Node0&#45;&gt;Node1</title>
<path fill="none" stroke="#191970" d="M67,-56.168C67,-47.8226 67,-38.2471 67,-29.9879"/>
<polygon fill="#191970" stroke="#191970" points="70.5001,-29.7804 67,-19.7805 63.5001,-29.7805 70.5001,-29.7804"/>
</g>
</g>
</svg>
