<?xml version="1.0" encoding="UTF-8" standalone="no"?>
<!DOCTYPE svg PUBLIC "-//W3C//DTD SVG 1.1//EN"
 "http://www.w3.org/Graphics/SVG/1.1/DTD/svg11.dtd">
<!-- Generated by graphviz version 2.40.1 (0)
 -->
<!-- Title: boards/common/cc2538/include/cfg_clk_default.h Pages: 1 -->
<svg width="1330pt" height="117pt"
 viewBox="0.00 0.00 1330.00 117.00" xmlns="http://www.w3.org/2000/svg" xmlns:xlink="http://www.w3.org/1999/xlink">
<g id="graph0" class="graph" transform="scale(1 1) rotate(0) translate(4 113)">
<title>boards/common/cc2538/include/cfg_clk_default.h</title>
<polygon fill="#ffffff" stroke="transparent" points="-4,4 -4,-113 1326,-113 1326,4 -4,4"/>
<!-- Node4 -->
<g id="node1" class="node">
<title>Node4</title>
<polygon fill="#bfbfbf" stroke="#000000" points="589,-78.5 589,-108.5 723,-108.5 723,-78.5 589,-78.5"/>
<text text-anchor="start" x="597" y="-96.5" font-family="Helvetica,sans-Serif" font-size="10.00" fill="#000000">boards/common/cc2538</text>
<text text-anchor="middle" x="656" y="-85.5" font-family="Helvetica,sans-Serif" font-size="10.00" fill="#000000">/include/cfg_clk_default.h</text>
</g>
<!-- Node5 -->
<g id="node2" class="node">
<title>Node5</title>
<g id="a_node2"><a xlink:href="boards_2cc2538dk_2include_2periph__conf_8h.html" target="_top" xlink:title="Peripheral MCU configuration for the CC2538DK board. ">
<polygon fill="#ffffff" stroke="#000000" points="0,-6 0,-36 134,-36 134,-6 0,-6"/>
<text text-anchor="start" x="8" y="-24" font-family="Helvetica,sans-Serif" font-size="10.00" fill="#000000">boards/cc2538dk/include</text>
<text text-anchor="middle" x="67" y="-13" font-family="Helvetica,sans-Serif" font-size="10.00" fill="#000000">/periph_conf.h</text>
</a>
</g>
</g>
<!-- Node4&#45;&gt;Node5 -->
<g id="edge1" class="edge">
<title>Node4&#45;&gt;Node5</title>
<path fill="none" stroke="#191970" d="M578.5598,-89.8216C477.6133,-84.0938 295.9031,-70.5861 143,-42 134.3883,-40.39 125.3325,-38.2725 116.5928,-36.0019"/>
<polygon fill="#191970" stroke="#191970" points="578.491,-93.3231 588.6701,-90.3845 578.8802,-86.3339 578.491,-93.3231"/>
</g>
<!-- Node6 -->
<g id="node3" class="node">
<title>Node6</title>
<g id="a_node3"><a xlink:href="boards_2firefly_2include_2periph__conf_8h.html" target="_top" xlink:title="Peripheral MCU configuration for the Firefly board revision A. ">
<polygon fill="#ffffff" stroke="#000000" points="152.5,-6 152.5,-36 269.5,-36 269.5,-6 152.5,-6"/>
<text text-anchor="start" x="160.5" y="-24" font-family="Helvetica,sans-Serif" font-size="10.00" fill="#000000">boards/firefly/include</text>
<text text-anchor="middle" x="211" y="-13" font-family="Helvetica,sans-Serif" font-size="10.00" fill="#000000">/periph_conf.h</text>
</a>
</g>
</g>
<!-- Node4&#45;&gt;Node6 -->
<g id="edge2" class="edge">
<title>Node4&#45;&gt;Node6</title>
<path fill="none" stroke="#191970" d="M578.6194,-86.6711C501.9475,-79.03 381.4706,-64.6615 279,-42 271.5202,-40.3458 263.6749,-38.2612 256.0799,-36.0515"/>
<polygon fill="#191970" stroke="#191970" points="578.3817,-90.1646 588.6762,-87.6598 579.0666,-83.1981 578.3817,-90.1646"/>
</g>
<!-- Node7 -->
<g id="node4" class="node">
<title>Node7</title>
<g id="a_node4"><a xlink:href="boards_2generic-cc2538-cc2592-dk_2include_2periph__conf_8h.html" target="_top" xlink:title="Peripheral MCU configuration for the Generic CC2538&#45;CC2592&#45;DK board. ">
<polygon fill="#ffffff" stroke="#000000" points="288,-.5 288,-41.5 426,-41.5 426,-.5 288,-.5"/>
<text text-anchor="start" x="296" y="-29.5" font-family="Helvetica,sans-Serif" font-size="10.00" fill="#000000">boards/generic&#45;cc2538</text>
<text text-anchor="start" x="296" y="-18.5" font-family="Helvetica,sans-Serif" font-size="10.00" fill="#000000">&#45;cc2592&#45;dk/include/periph</text>
<text text-anchor="middle" x="357" y="-7.5" font-family="Helvetica,sans-Serif" font-size="10.00" fill="#000000">_conf.h</text>
</a>
</g>
</g>
<!-- Node4&#45;&gt;Node7 -->
<g id="edge3" class="edge">
<title>Node4&#45;&gt;Node7</title>
<path fill="none" stroke="#191970" d="M578.6436,-76.1521C536.1576,-66.4537 482.5785,-53.9448 435,-42 432.1436,-41.2829 429.231,-40.5421 426.2906,-39.7864"/>
<polygon fill="#191970" stroke="#191970" points="578.1115,-79.6205 588.6391,-78.4287 579.6661,-72.7952 578.1115,-79.6205"/>
</g>
<!-- Node8 -->
<g id="node5" class="node">
<title>Node8</title>
<g id="a_node5"><a xlink:href="boards_2omote_2include_2periph__conf_8h.html" target="_top" xlink:title="Peripheral MCU configuration for the omote board. ">
<polygon fill="#ffffff" stroke="#000000" points="444,-6 444,-36 564,-36 564,-6 444,-6"/>
<text text-anchor="start" x="452" y="-24" font-family="Helvetica,sans-Serif" font-size="10.00" fill="#000000">boards/omote/include</text>
<text text-anchor="middle" x="504" y="-13" font-family="Helvetica,sans-Serif" font-size="10.00" fill="#000000">/periph_conf.h</text>
</a>
</g>
</g>
<!-- Node4&#45;&gt;Node8 -->
<g id="edge4" class="edge">
<title>Node4&#45;&gt;Node8</title>
<path fill="none" stroke="#191970" d="M615.2556,-74.066C590.1997,-62.115 558.5761,-47.0313 535.4542,-36.0028"/>
<polygon fill="#191970" stroke="#191970" points="613.9728,-77.3319 624.5055,-78.478 616.9864,-71.0137 613.9728,-77.3319"/>
</g>
<!-- Node9 -->
<g id="node6" class="node">
<title>Node9</title>
<g id="a_node6"><a xlink:href="boards_2openmote-b_2include_2periph__conf_8h.html" target="_top" xlink:title="Peripheral MCU configuration for the OpenMote&#45;B board. ">
<polygon fill="#ffffff" stroke="#000000" points="582.5,-6 582.5,-36 729.5,-36 729.5,-6 582.5,-6"/>
<text text-anchor="start" x="590.5" y="-24" font-family="Helvetica,sans-Serif" font-size="10.00" fill="#000000">boards/openmote&#45;b/include</text>
<text text-anchor="middle" x="656" y="-13" font-family="Helvetica,sans-Serif" font-size="10.00" fill="#000000">/periph_conf.h</text>
</a>
</g>
</g>
<!-- Node4&#45;&gt;Node9 -->
<g id="edge5" class="edge">
<title>Node4&#45;&gt;Node9</title>
<path fill="none" stroke="#191970" d="M656,-68.3409C656,-57.5601 656,-45.3309 656,-36.0028"/>
<polygon fill="#191970" stroke="#191970" points="652.5001,-68.4779 656,-78.478 659.5001,-68.478 652.5001,-68.4779"/>
</g>
<!-- Node10 -->
<g id="node7" class="node">
<title>Node10</title>
<g id="a_node7"><a xlink:href="boards_2openmote-cc2538_2include_2periph__conf_8h.html" target="_top" xlink:title="Peripheral MCU configuration for the OpenMote&#45;cc2538 board. ">
<polygon fill="#ffffff" stroke="#000000" points="747.5,-6 747.5,-36 884.5,-36 884.5,-6 747.5,-6"/>
<text text-anchor="start" x="755.5" y="-24" font-family="Helvetica,sans-Serif" font-size="10.00" fill="#000000">boards/openmote&#45;cc2538</text>
<text text-anchor="middle" x="816" y="-13" font-family="Helvetica,sans-Serif" font-size="10.00" fill="#000000">/include/periph_conf.h</text>
</a>
</g>
</g>
<!-- Node4&#45;&gt;Node10 -->
<g id="edge6" class="edge">
<title>Node4&#45;&gt;Node10</title>
<path fill="none" stroke="#191970" d="M698.5407,-74.2237C724.97,-62.248 758.4443,-47.0799 782.8904,-36.0028"/>
<polygon fill="#191970" stroke="#191970" points="696.8161,-71.1626 689.1521,-78.478 699.7052,-77.5386 696.8161,-71.1626"/>
</g>
<!-- Node11 -->
<g id="node8" class="node">
<title>Node11</title>
<g id="a_node8"><a xlink:href="boards_2remote-pa_2include_2periph__conf_8h.html" target="_top" xlink:title="Peripheral MCU configuration for the Re&#45;Mote board prototype A. ">
<polygon fill="#ffffff" stroke="#000000" points="902.5,-6 902.5,-36 1041.5,-36 1041.5,-6 902.5,-6"/>
<text text-anchor="start" x="910.5" y="-24" font-family="Helvetica,sans-Serif" font-size="10.00" fill="#000000">boards/remote&#45;pa/include</text>
<text text-anchor="middle" x="972" y="-13" font-family="Helvetica,sans-Serif" font-size="10.00" fill="#000000">/periph_conf.h</text>
</a>
</g>
</g>
<!-- Node4&#45;&gt;Node11 -->
<g id="edge7" class="edge">
<title>Node4&#45;&gt;Node11</title>
<path fill="none" stroke="#191970" d="M733.1849,-77.8159C779.8687,-68.0771 840.5105,-54.9792 894,-42 901.6319,-40.1481 909.6573,-38.1016 917.5388,-36.0341"/>
<polygon fill="#191970" stroke="#191970" points="732.2204,-74.4415 723.1424,-79.9041 733.6455,-81.2949 732.2204,-74.4415"/>
</g>
<!-- Node12 -->
<g id="node9" class="node">
<title>Node12</title>
<g id="a_node9"><a xlink:href="boards_2remote-reva_2include_2periph__conf_8h.html" target="_top" xlink:title="Peripheral MCU configuration for the RE&#45;Mote board revision A. ">
<polygon fill="#ffffff" stroke="#000000" points="1060,-6 1060,-36 1182,-36 1182,-6 1060,-6"/>
<text text-anchor="start" x="1068" y="-24" font-family="Helvetica,sans-Serif" font-size="10.00" fill="#000000">boards/remote&#45;reva</text>
<text text-anchor="middle" x="1121" y="-13" font-family="Helvetica,sans-Serif" font-size="10.00" fill="#000000">/include/periph_conf.h</text>
</a>
</g>
</g>
<!-- Node4&#45;&gt;Node12 -->
<g id="edge8" class="edge">
<title>Node4&#45;&gt;Node12</title>
<path fill="none" stroke="#191970" d="M733.3114,-87.1496C813.4005,-79.7029 941.8804,-65.3211 1051,-42 1058.6928,-40.3559 1066.7652,-38.2764 1074.5821,-36.0689"/>
<polygon fill="#191970" stroke="#191970" points="732.9446,-83.6685 723.3061,-88.0672 733.584,-90.6392 732.9446,-83.6685"/>
</g>
<!-- Node13 -->
<g id="node10" class="node">
<title>Node13</title>
<g id="a_node10"><a xlink:href="boards_2remote-revb_2include_2periph__conf_8h.html" target="_top" xlink:title="Peripheral MCU configuration for the RE&#45;Mote board revision B. ">
<polygon fill="#ffffff" stroke="#000000" points="1200,-6 1200,-36 1322,-36 1322,-6 1200,-6"/>
<text text-anchor="start" x="1208" y="-24" font-family="Helvetica,sans-Serif" font-size="10.00" fill="#000000">boards/remote&#45;revb</text>
<text text-anchor="middle" x="1261" y="-13" font-family="Helvetica,sans-Serif" font-size="10.00" fill="#000000">/include/periph_conf.h</text>
</a>
</g>
</g>
<!-- Node4&#45;&gt;Node13 -->
<g id="edge9" class="edge">
<title>Node4&#45;&gt;Node13</title>
<path fill="none" stroke="#191970" d="M733.4939,-90.7892C838.1696,-86.0511 1030.1634,-73.5515 1191,-42 1198.9684,-40.4368 1207.3275,-38.3428 1215.3841,-36.0809"/>
<polygon fill="#191970" stroke="#191970" points="733.1678,-87.3001 723.3317,-91.2372 733.4761,-94.2933 733.1678,-87.3001"/>
</g>
</g>
</svg>
