<?xml version="1.0" encoding="UTF-8" standalone="no"?>
<!DOCTYPE svg PUBLIC "-//W3C//DTD SVG 1.1//EN"
 "http://www.w3.org/Graphics/SVG/1.1/DTD/svg11.dtd">
<!-- Generated by graphviz version 2.40.1 (0)
 -->
<!-- Title: sys/cpp11&#45;compat/include/riot/chrono.hpp Pages: 1 -->
<svg width="1389pt" height="655pt"
 viewBox="0.00 0.00 1389.10 655.00" xmlns="http://www.w3.org/2000/svg" xmlns:xlink="http://www.w3.org/1999/xlink">
<g id="graph0" class="graph" transform="scale(1 1) rotate(0) translate(4 651)">
<title>sys/cpp11&#45;compat/include/riot/chrono.hpp</title>
<polygon fill="#ffffff" stroke="transparent" points="-4,4 -4,-651 1385.1019,-651 1385.1019,4 -4,4"/>
<!-- Node0 -->
<g id="node1" class="node">
<title>Node0</title>
<polygon fill="#bfbfbf" stroke="#000000" points="420,-616.5 420,-646.5 557,-646.5 557,-616.5 420,-616.5"/>
<text text-anchor="start" x="428" y="-634.5" font-family="Helvetica,sans-Serif" font-size="10.00" fill="#000000">sys/cpp11&#45;compat/include</text>
<text text-anchor="middle" x="488.5" y="-623.5" font-family="Helvetica,sans-Serif" font-size="10.00" fill="#000000">/riot/chrono.hpp</text>
</g>
<!-- Node1 -->
<g id="node2" class="node">
<title>Node1</title>
<polygon fill="#ffffff" stroke="#bfbfbf" points="316.5,-560.5 316.5,-579.5 366.5,-579.5 366.5,-560.5 316.5,-560.5"/>
<text text-anchor="middle" x="341.5" y="-567.5" font-family="Helvetica,sans-Serif" font-size="10.00" fill="#000000">chrono</text>
</g>
<!-- Node0&#45;&gt;Node1 -->
<g id="edge1" class="edge">
<title>Node0&#45;&gt;Node1</title>
<path fill="none" stroke="#191970" d="M452.5398,-616.4554C428.4427,-606.374 396.987,-593.2139 373.7097,-583.4755"/>
<polygon fill="#191970" stroke="#191970" points="374.8558,-580.1611 364.2798,-579.5303 372.1541,-586.6187 374.8558,-580.1611"/>
</g>
<!-- Node2 -->
<g id="node3" class="node">
<title>Node2</title>
<polygon fill="#ffffff" stroke="#bfbfbf" points="384.5,-560.5 384.5,-579.5 446.5,-579.5 446.5,-560.5 384.5,-560.5"/>
<text text-anchor="middle" x="415.5" y="-567.5" font-family="Helvetica,sans-Serif" font-size="10.00" fill="#000000">algorithm</text>
</g>
<!-- Node0&#45;&gt;Node2 -->
<g id="edge2" class="edge">
<title>Node0&#45;&gt;Node2</title>
<path fill="none" stroke="#191970" d="M470.4551,-616.2977C459.6886,-607.2274 446.0149,-595.7077 435.0005,-586.4285"/>
<polygon fill="#191970" stroke="#191970" points="437.0911,-583.6132 427.1882,-579.8469 432.5809,-588.9667 437.0911,-583.6132"/>
</g>
<!-- Node3 -->
<g id="node4" class="node">
<title>Node3</title>
<g id="a_node4"><a xlink:href="time_8h_source.html" target="_top" xlink:title="time.h">
<polygon fill="#ffffff" stroke="#000000" points="465,-560.5 465,-579.5 512,-579.5 512,-560.5 465,-560.5"/>
<text text-anchor="middle" x="488.5" y="-567.5" font-family="Helvetica,sans-Serif" font-size="10.00" fill="#000000">time.h</text>
</a>
</g>
</g>
<!-- Node0&#45;&gt;Node3 -->
<g id="edge3" class="edge">
<title>Node0&#45;&gt;Node3</title>
<path fill="none" stroke="#191970" d="M488.5,-616.2977C488.5,-608.3834 488.5,-598.6043 488.5,-590.0759"/>
<polygon fill="#191970" stroke="#191970" points="492.0001,-589.8469 488.5,-579.8469 485.0001,-589.847 492.0001,-589.8469"/>
</g>
<!-- Node5 -->
<g id="node6" class="node">
<title>Node5</title>
<g id="a_node6"><a xlink:href="timex_8h.html" target="_top" xlink:title="Utility library for comparing and computing timestamps. ">
<polygon fill="#ffffff" stroke="#000000" points="1300.5,-224.5 1300.5,-243.5 1352.5,-243.5 1352.5,-224.5 1300.5,-224.5"/>
<text text-anchor="middle" x="1326.5" y="-231.5" font-family="Helvetica,sans-Serif" font-size="10.00" fill="#000000">timex.h</text>
</a>
</g>
</g>
<!-- Node0&#45;&gt;Node5 -->
<g id="edge6" class="edge">
<title>Node0&#45;&gt;Node5</title>
<path fill="none" stroke="#191970" d="M557.0672,-628.9142C755.0377,-620.5439 1313.5,-590.1802 1313.5,-514 1313.5,-514 1313.5,-514 1313.5,-346 1313.5,-313.3457 1319.02,-275.6911 1322.8661,-253.4184"/>
<polygon fill="#191970" stroke="#191970" points="1326.3165,-254.0059 1324.6374,-243.545 1319.4265,-252.7698 1326.3165,-254.0059"/>
</g>
<!-- Node9 -->
<g id="node10" class="node">
<title>Node9</title>
<g id="a_node10"><a xlink:href="ztimer64_8h.html" target="_top" xlink:title="ztimer 64bit API ">
<polygon fill="#ffffff" stroke="#000000" points="548.5,-560.5 548.5,-579.5 616.5,-579.5 616.5,-560.5 548.5,-560.5"/>
<text text-anchor="middle" x="582.5" y="-567.5" font-family="Helvetica,sans-Serif" font-size="10.00" fill="#000000">ztimer64.h</text>
</a>
</g>
</g>
<!-- Node0&#45;&gt;Node9 -->
<g id="edge10" class="edge">
<title>Node0&#45;&gt;Node9</title>
<path fill="none" stroke="#191970" d="M511.736,-616.2977C526.2334,-606.8127 544.8244,-594.6495 559.3126,-585.1705"/>
<polygon fill="#191970" stroke="#191970" points="561.2782,-588.0671 567.7301,-579.6633 557.4457,-582.2094 561.2782,-588.0671"/>
</g>
<!-- Node3&#45;&gt;Node3 -->
<g id="edge5" class="edge">
<title>Node3&#45;&gt;Node3</title>
<path fill="none" stroke="#191970" d="M506.4158,-579.5746C518.367,-582.2697 530,-579.0781 530,-570 530,-563.546 524.1203,-560.0673 516.4267,-559.5639"/>
<polygon fill="#191970" stroke="#191970" points="516.0789,-556.0808 506.4158,-560.4254 516.6791,-563.055 516.0789,-556.0808"/>
</g>
<!-- Node4 -->
<g id="node5" class="node">
<title>Node4</title>
<polygon fill="#ffffff" stroke="#bfbfbf" points="0,-504.5 0,-523.5 69,-523.5 69,-504.5 0,-504.5"/>
<text text-anchor="middle" x="34.5" y="-511.5" font-family="Helvetica,sans-Serif" font-size="10.00" fill="#000000">sys/types.h</text>
</g>
<!-- Node3&#45;&gt;Node4 -->
<g id="edge4" class="edge">
<title>Node3&#45;&gt;Node4</title>
<path fill="none" stroke="#191970" d="M464.849,-562.2213C461.7285,-561.3756 458.5537,-560.6043 455.5,-560 292.5538,-527.7566 247.7679,-548.6411 83.5,-524 82.0511,-523.7827 80.5803,-523.5505 79.0967,-523.3065"/>
<polygon fill="#191970" stroke="#191970" points="79.6763,-519.8547 69.2186,-521.5538 78.4533,-526.7471 79.6763,-519.8547"/>
</g>
<!-- Node6 -->
<g id="node7" class="node">
<title>Node6</title>
<polygon fill="#ffffff" stroke="#bfbfbf" points="878.5,-.5 878.5,-19.5 930.5,-19.5 930.5,-.5 878.5,-.5"/>
<text text-anchor="middle" x="904.5" y="-7.5" font-family="Helvetica,sans-Serif" font-size="10.00" fill="#000000">stdint.h</text>
</g>
<!-- Node5&#45;&gt;Node6 -->
<g id="edge7" class="edge">
<title>Node5&#45;&gt;Node6</title>
<path fill="none" stroke="#191970" d="M1343.5567,-224.377C1355.8089,-216.4014 1371.3708,-203.8248 1378.5,-188 1382.1511,-179.8956 1381.6053,-176.3288 1378.5,-168 1355.495,-106.2978 1339.6266,-86.9466 1281.5,-56 1222.9541,-24.8301 1023.5971,-14.242 940.9033,-11.1367"/>
<polygon fill="#191970" stroke="#191970" points="940.8427,-7.6324 930.7233,-10.7704 940.5909,-14.6278 940.8427,-7.6324"/>
</g>
<!-- Node7 -->
<g id="node8" class="node">
<title>Node7</title>
<g id="a_node8"><a xlink:href="inttypes_8h.html" target="_top" xlink:title="Adds include for missing inttype definitions. ">
<polygon fill="#ffffff" stroke="#000000" points="1138,-168.5 1138,-187.5 1201,-187.5 1201,-168.5 1138,-168.5"/>
<text text-anchor="middle" x="1169.5" y="-175.5" font-family="Helvetica,sans-Serif" font-size="10.00" fill="#000000">inttypes.h</text>
</a>
</g>
</g>
<!-- Node5&#45;&gt;Node7 -->
<g id="edge8" class="edge">
<title>Node5&#45;&gt;Node7</title>
<path fill="none" stroke="#191970" d="M1300.2217,-224.6269C1274.4532,-215.4355 1234.9448,-201.3434 1206.106,-191.0569"/>
<polygon fill="#191970" stroke="#191970" points="1206.9849,-187.6545 1196.3903,-187.5914 1204.6332,-194.2476 1206.9849,-187.6545"/>
</g>
<!-- Node8 -->
<g id="node9" class="node">
<title>Node8</title>
<g id="a_node9"><a xlink:href="time__units_8h.html" target="_top" xlink:title="Utility header providing time unit defines. ">
<polygon fill="#ffffff" stroke="#000000" points="1295.5,-168.5 1295.5,-187.5 1369.5,-187.5 1369.5,-168.5 1295.5,-168.5"/>
<text text-anchor="middle" x="1332.5" y="-175.5" font-family="Helvetica,sans-Serif" font-size="10.00" fill="#000000">time_units.h</text>
</a>
</g>
</g>
<!-- Node5&#45;&gt;Node8 -->
<g id="edge9" class="edge">
<title>Node5&#45;&gt;Node8</title>
<path fill="none" stroke="#191970" d="M1327.5451,-224.2455C1328.328,-216.9382 1329.4256,-206.6944 1330.3888,-197.7046"/>
<polygon fill="#191970" stroke="#191970" points="1333.8815,-197.9587 1331.4669,-187.6427 1326.9214,-197.2129 1333.8815,-197.9587"/>
</g>
<!-- Node9&#45;&gt;Node6 -->
<g id="edge11" class="edge">
<title>Node9&#45;&gt;Node6</title>
<path fill="none" stroke="#191970" d="M548.4344,-562.0386C545.0835,-561.3214 541.7294,-560.6294 538.5,-560 439.7703,-540.7586 97.5,-558.5872 97.5,-458 97.5,-458 97.5,-458 97.5,-122 97.5,-43.0997 710.5324,-16.6544 867.9893,-11.1633"/>
<polygon fill="#191970" stroke="#191970" points="868.2338,-14.6571 878.1085,-10.8176 867.9948,-7.6611 868.2338,-14.6571"/>
</g>
<!-- Node10 -->
<g id="node11" class="node">
<title>Node10</title>
<g id="a_node11"><a xlink:href="irq_8h.html" target="_top" xlink:title="IRQ driver interface. ">
<polygon fill="#ffffff" stroke="#000000" points="125.5,-280.5 125.5,-299.5 163.5,-299.5 163.5,-280.5 125.5,-280.5"/>
<text text-anchor="middle" x="144.5" y="-287.5" font-family="Helvetica,sans-Serif" font-size="10.00" fill="#000000">irq.h</text>
</a>
</g>
</g>
<!-- Node9&#45;&gt;Node10 -->
<g id="edge12" class="edge">
<title>Node9&#45;&gt;Node10</title>
<path fill="none" stroke="#191970" d="M548.3234,-561.8469C447.8598,-537.765 160.5,-468.008 160.5,-458 160.5,-458 160.5,-458 160.5,-402 160.5,-369.2342 153.7061,-331.6134 148.9725,-309.3778"/>
<polygon fill="#191970" stroke="#191970" points="152.3698,-308.5307 146.7924,-299.5228 145.5351,-310.0428 152.3698,-308.5307"/>
</g>
<!-- Node13 -->
<g id="node14" class="node">
<title>Node13</title>
<g id="a_node14"><a xlink:href="mutex_8h.html" target="_top" xlink:title="Mutex for thread synchronization. ">
<polygon fill="#ffffff" stroke="#000000" points="758.5,-392.5 758.5,-411.5 814.5,-411.5 814.5,-392.5 758.5,-392.5"/>
<text text-anchor="middle" x="786.5" y="-399.5" font-family="Helvetica,sans-Serif" font-size="10.00" fill="#000000">mutex.h</text>
</a>
</g>
</g>
<!-- Node9&#45;&gt;Node13 -->
<g id="edge15" class="edge">
<title>Node9&#45;&gt;Node13</title>
<path fill="none" stroke="#191970" d="M616.5459,-565.3378C665.867,-556.4727 754.9555,-531.972 788.5,-468 795.9771,-453.7405 794.6477,-435.261 791.9243,-421.4844"/>
<polygon fill="#191970" stroke="#191970" points="795.2967,-420.5367 789.583,-411.6146 788.4857,-422.1524 795.2967,-420.5367"/>
</g>
<!-- Node33 -->
<g id="node34" class="node">
<title>Node33</title>
<polygon fill="#ffffff" stroke="#bfbfbf" points="560,-448.5 560,-467.5 605,-467.5 605,-448.5 560,-448.5"/>
<text text-anchor="middle" x="582.5" y="-455.5" font-family="Helvetica,sans-Serif" font-size="10.00" fill="#000000">msg.h</text>
</g>
<!-- Node9&#45;&gt;Node33 -->
<g id="edge57" class="edge">
<title>Node9&#45;&gt;Node33</title>
<path fill="none" stroke="#191970" d="M582.5,-560.4509C582.5,-542.184 582.5,-501.9553 582.5,-477.6976"/>
<polygon fill="#191970" stroke="#191970" points="586.0001,-477.5249 582.5,-467.5249 579.0001,-477.5249 586.0001,-477.5249"/>
</g>
<!-- Node34 -->
<g id="node35" class="node">
<title>Node34</title>
<g id="a_node35"><a xlink:href="ztimer_8h.html" target="_top" xlink:title="ztimer API ">
<polygon fill="#ffffff" stroke="#000000" points="644,-504.5 644,-523.5 699,-523.5 699,-504.5 644,-504.5"/>
<text text-anchor="middle" x="671.5" y="-511.5" font-family="Helvetica,sans-Serif" font-size="10.00" fill="#000000">ztimer.h</text>
</a>
</g>
</g>
<!-- Node9&#45;&gt;Node34 -->
<g id="edge58" class="edge">
<title>Node9&#45;&gt;Node34</title>
<path fill="none" stroke="#191970" d="M598.0026,-560.2455C611.658,-551.6534 631.7657,-539.0014 647.4989,-529.1018"/>
<polygon fill="#191970" stroke="#191970" points="649.5751,-531.9307 656.175,-523.6427 645.8471,-526.006 649.5751,-531.9307"/>
</g>
<!-- Node11 -->
<g id="node12" class="node">
<title>Node11</title>
<polygon fill="#ffffff" stroke="#bfbfbf" points="285.5,-112.5 285.5,-131.5 345.5,-131.5 345.5,-112.5 285.5,-112.5"/>
<text text-anchor="middle" x="315.5" y="-119.5" font-family="Helvetica,sans-Serif" font-size="10.00" fill="#000000">stdbool.h</text>
</g>
<!-- Node10&#45;&gt;Node11 -->
<g id="edge13" class="edge">
<title>Node10&#45;&gt;Node11</title>
<path fill="none" stroke="#191970" d="M149.3111,-280.3165C160.7522,-258.0748 191.5615,-202.5958 230.5,-168 245.4945,-154.6778 265.0192,-143.7672 281.5739,-135.9209"/>
<polygon fill="#191970" stroke="#191970" points="283.2737,-138.9927 290.9212,-131.6601 280.3702,-132.6232 283.2737,-138.9927"/>
</g>
<!-- Node12 -->
<g id="node13" class="node">
<title>Node12</title>
<polygon fill="#ffffff" stroke="#bfbfbf" points="311,-224.5 311,-243.5 378,-243.5 378,-224.5 311,-224.5"/>
<text text-anchor="middle" x="344.5" y="-231.5" font-family="Helvetica,sans-Serif" font-size="10.00" fill="#000000">cpu_conf.h</text>
</g>
<!-- Node10&#45;&gt;Node12 -->
<g id="edge14" class="edge">
<title>Node10&#45;&gt;Node12</title>
<path fill="none" stroke="#191970" d="M163.6768,-284.6305C195.0852,-275.8362 258.2654,-258.1457 300.9834,-246.1846"/>
<polygon fill="#191970" stroke="#191970" points="302.15,-249.4927 310.8359,-243.4259 300.2626,-242.7519 302.15,-249.4927"/>
</g>
<!-- Node13&#45;&gt;Node6 -->
<g id="edge17" class="edge">
<title>Node13&#45;&gt;Node6</title>
<path fill="none" stroke="#191970" d="M802.9478,-392.232C829.4102,-375.1274 878.5,-337.0556 878.5,-290 878.5,-290 878.5,-290 878.5,-234 878.5,-182.7056 911.0881,-178.6116 932.5,-132 943.6624,-107.7006 949.5242,-102.2736 954.5,-76 956.154,-67.2664 958.0719,-64.1397 954.5,-56 949.1677,-43.8487 938.8661,-33.4938 928.9924,-25.7031"/>
<polygon fill="#191970" stroke="#191970" points="931.0509,-22.8723 920.9177,-19.7788 926.91,-28.5162 931.0509,-22.8723"/>
</g>
<!-- Node13&#45;&gt;Node11 -->
<g id="edge18" class="edge">
<title>Node13&#45;&gt;Node11</title>
<path fill="none" stroke="#191970" d="M758.2406,-400.7131C663.3938,-395.7261 359.2966,-374.1031 304.5,-300 269.299,-252.3966 292.8219,-176.5959 306.981,-141.2812"/>
<polygon fill="#191970" stroke="#191970" points="310.3604,-142.2729 310.9992,-131.6973 303.9048,-139.5662 310.3604,-142.2729"/>
</g>
<!-- Node14 -->
<g id="node15" class="node">
<title>Node14</title>
<polygon fill="#ffffff" stroke="#bfbfbf" points="679.5,-56.5 679.5,-75.5 735.5,-75.5 735.5,-56.5 679.5,-56.5"/>
<text text-anchor="middle" x="707.5" y="-63.5" font-family="Helvetica,sans-Serif" font-size="10.00" fill="#000000">stddef.h</text>
</g>
<!-- Node13&#45;&gt;Node14 -->
<g id="edge16" class="edge">
<title>Node13&#45;&gt;Node14</title>
<path fill="none" stroke="#191970" d="M784.2921,-392.1535C781.3916,-379.2492 776.1236,-355.9163 771.5,-336 749.7072,-242.1261 722.8928,-130.0924 712.2124,-85.6031"/>
<polygon fill="#191970" stroke="#191970" points="715.5965,-84.7057 709.8576,-75.7998 708.7901,-86.3407 715.5965,-84.7057"/>
</g>
<!-- Node15 -->
<g id="node16" class="node">
<title>Node15</title>
<g id="a_node16"><a xlink:href="architecture_8h.html" target="_top" xlink:title="Platform&#45;independent access to architecture details. ">
<polygon fill="#ffffff" stroke="#000000" points="928,-224.5 928,-243.5 1011,-243.5 1011,-224.5 928,-224.5"/>
<text text-anchor="middle" x="969.5" y="-231.5" font-family="Helvetica,sans-Serif" font-size="10.00" fill="#000000">architecture.h</text>
</a>
</g>
</g>
<!-- Node13&#45;&gt;Node15 -->
<g id="edge19" class="edge">
<title>Node13&#45;&gt;Node15</title>
<path fill="none" stroke="#191970" d="M814.6797,-394.8042C837.6198,-387.8439 869.805,-375.4523 892.5,-356 926.4124,-326.933 950.4422,-279.1621 961.9019,-252.8499"/>
<polygon fill="#191970" stroke="#191970" points="965.1417,-254.1746 965.7948,-243.5999 958.6898,-251.4593 965.1417,-254.1746"/>
</g>
<!-- Node18 -->
<g id="node19" class="node">
<title>Node18</title>
<g id="a_node19"><a xlink:href="kernel__defines_8h.html" target="_top" xlink:title="Common macros and compiler attributes/pragmas configuration. ">
<polygon fill="#ffffff" stroke="#000000" points="755,-168.5 755,-187.5 850,-187.5 850,-168.5 755,-168.5"/>
<text text-anchor="middle" x="802.5" y="-175.5" font-family="Helvetica,sans-Serif" font-size="10.00" fill="#000000">kernel_defines.h</text>
</a>
</g>
</g>
<!-- Node13&#45;&gt;Node18 -->
<g id="edge24" class="edge">
<title>Node13&#45;&gt;Node18</title>
<path fill="none" stroke="#191970" d="M790.0382,-392.2897C793.1998,-383.088 797.6148,-368.8083 799.5,-356 807.8741,-299.1063 805.6602,-230.8859 803.8256,-197.8574"/>
<polygon fill="#191970" stroke="#191970" points="807.3098,-197.4884 803.2105,-187.7188 800.3226,-197.9124 807.3098,-197.4884"/>
</g>
<!-- Node24 -->
<g id="node25" class="node">
<title>Node24</title>
<g id="a_node25"><a xlink:href="list_8h.html" target="_top" xlink:title="Intrusive linked list. ">
<polygon fill="#ffffff" stroke="#000000" points="472.5,-112.5 472.5,-131.5 510.5,-131.5 510.5,-112.5 472.5,-112.5"/>
<text text-anchor="middle" x="491.5" y="-119.5" font-family="Helvetica,sans-Serif" font-size="10.00" fill="#000000">list.h</text>
</a>
</g>
</g>
<!-- Node13&#45;&gt;Node24 -->
<g id="edge35" class="edge">
<title>Node13&#45;&gt;Node24</title>
<path fill="none" stroke="#191970" d="M783.0321,-392.0736C769.7864,-355.6996 718.6976,-228.6735 631.5,-168 591.0124,-139.828 571.3066,-147.7176 520.2905,-132.0556"/>
<polygon fill="#191970" stroke="#191970" points="521.3433,-128.7176 510.7514,-128.9668 519.1869,-135.3772 521.3433,-128.7176"/>
</g>
<!-- Node25 -->
<g id="node26" class="node">
<title>Node25</title>
<g id="a_node26"><a xlink:href="core_2include_2thread_8h.html" target="_top" xlink:title="Threading API. ">
<polygon fill="#ffffff" stroke="#000000" points="467,-336.5 467,-355.5 524,-355.5 524,-336.5 467,-336.5"/>
<text text-anchor="middle" x="495.5" y="-343.5" font-family="Helvetica,sans-Serif" font-size="10.00" fill="#000000">thread.h</text>
</a>
</g>
</g>
<!-- Node13&#45;&gt;Node25 -->
<g id="edge36" class="edge">
<title>Node13&#45;&gt;Node25</title>
<path fill="none" stroke="#191970" d="M758.3333,-396.5796C705.9905,-386.5068 593.6605,-364.89 534.2215,-353.4516"/>
<polygon fill="#191970" stroke="#191970" points="534.5928,-349.9589 524.1116,-351.506 533.27,-356.8328 534.5928,-349.9589"/>
</g>
<!-- Node15&#45;&gt;Node6 -->
<g id="edge20" class="edge">
<title>Node15&#45;&gt;Node6</title>
<path fill="none" stroke="#191970" d="M958.0657,-224.138C944.539,-211.2169 925.0912,-187.8658 935.5,-168 948.5456,-143.1015 974.4544,-156.8985 987.5,-132 1003.1765,-102.0803 1004.6445,-85.1033 987.5,-56 977.199,-38.5137 957.5926,-27.2048 940.0217,-20.1771"/>
<polygon fill="#191970" stroke="#191970" points="941.1352,-16.8576 930.5415,-16.7013 938.7255,-23.4298 941.1352,-16.8576"/>
</g>
<!-- Node15&#45;&gt;Node7 -->
<g id="edge21" class="edge">
<title>Node15&#45;&gt;Node7</title>
<path fill="none" stroke="#191970" d="M1003.8812,-224.3733C1038.2847,-214.7403 1091.2402,-199.9128 1127.9714,-189.628"/>
<polygon fill="#191970" stroke="#191970" points="1129.1864,-192.9225 1137.8724,-186.8557 1127.299,-186.1817 1129.1864,-192.9225"/>
</g>
<!-- Node16 -->
<g id="node17" class="node">
<title>Node16</title>
<polygon fill="#ffffff" stroke="#bfbfbf" points="944.5,-168.5 944.5,-187.5 994.5,-187.5 994.5,-168.5 944.5,-168.5"/>
<text text-anchor="middle" x="969.5" y="-175.5" font-family="Helvetica,sans-Serif" font-size="10.00" fill="#000000">limits.h</text>
</g>
<!-- Node15&#45;&gt;Node16 -->
<g id="edge22" class="edge">
<title>Node15&#45;&gt;Node16</title>
<path fill="none" stroke="#191970" d="M969.5,-224.2455C969.5,-216.9382 969.5,-206.6944 969.5,-197.7046"/>
<polygon fill="#191970" stroke="#191970" points="973.0001,-197.6426 969.5,-187.6427 966.0001,-197.6427 973.0001,-197.6426"/>
</g>
<!-- Node17 -->
<g id="node18" class="node">
<title>Node17</title>
<polygon fill="#ffffff" stroke="#bfbfbf" points="1013,-168.5 1013,-187.5 1120,-187.5 1120,-168.5 1013,-168.5"/>
<text text-anchor="middle" x="1066.5" y="-175.5" font-family="Helvetica,sans-Serif" font-size="10.00" fill="#000000">architecture_arch.h</text>
</g>
<!-- Node15&#45;&gt;Node17 -->
<g id="edge23" class="edge">
<title>Node15&#45;&gt;Node17</title>
<path fill="none" stroke="#191970" d="M986.3961,-224.2455C1001.418,-215.5731 1023.6043,-202.7645 1040.821,-192.825"/>
<polygon fill="#191970" stroke="#191970" points="1042.8871,-195.6737 1049.7975,-187.6427 1039.3872,-189.6114 1042.8871,-195.6737"/>
</g>
<!-- Node19 -->
<g id="node20" class="node">
<title>Node19</title>
<g id="a_node20"><a xlink:href="modules_8h.html" target="_top" xlink:title="Common macros and compiler attributes/pragmas configuration. ">
<polygon fill="#ffffff" stroke="#000000" points="755,-112.5 755,-131.5 820,-131.5 820,-112.5 755,-112.5"/>
<text text-anchor="middle" x="787.5" y="-119.5" font-family="Helvetica,sans-Serif" font-size="10.00" fill="#000000">modules.h</text>
</a>
</g>
</g>
<!-- Node18&#45;&gt;Node19 -->
<g id="edge25" class="edge">
<title>Node18&#45;&gt;Node19</title>
<path fill="none" stroke="#191970" d="M799.8872,-168.2455C797.9084,-160.8579 795.1256,-150.4689 792.6988,-141.4087"/>
<polygon fill="#191970" stroke="#191970" points="796.0511,-140.3966 790.0829,-131.6427 789.2895,-142.2078 796.0511,-140.3966"/>
</g>
<!-- Node20 -->
<g id="node21" class="node">
<title>Node20</title>
<g id="a_node21"><a xlink:href="riot__version_8h.html" target="_top" xlink:title="Common macros and compiler attributes/pragmas configuration. ">
<polygon fill="#ffffff" stroke="#000000" points="864,-56.5 864,-75.5 945,-75.5 945,-56.5 864,-56.5"/>
<text text-anchor="middle" x="904.5" y="-63.5" font-family="Helvetica,sans-Serif" font-size="10.00" fill="#000000">riot_version.h</text>
</a>
</g>
</g>
<!-- Node18&#45;&gt;Node20 -->
<g id="edge26" class="edge">
<title>Node18&#45;&gt;Node20</title>
<path fill="none" stroke="#191970" d="M850.0719,-171.4914C874.2677,-165.507 901.6368,-154.025 916.5,-132 925.8312,-118.1726 920.964,-99.157 914.8655,-85.0875"/>
<polygon fill="#191970" stroke="#191970" points="917.9047,-83.3332 910.3927,-75.8619 911.6059,-86.387 917.9047,-83.3332"/>
</g>
<!-- Node21 -->
<g id="node22" class="node">
<title>Node21</title>
<g id="a_node22"><a xlink:href="compiler__hints_8h.html" target="_top" xlink:title="Common macros and compiler attributes/pragmas configuration. ">
<polygon fill="#ffffff" stroke="#000000" points="529,-112.5 529,-131.5 622,-131.5 622,-112.5 529,-112.5"/>
<text text-anchor="middle" x="575.5" y="-119.5" font-family="Helvetica,sans-Serif" font-size="10.00" fill="#000000">compiler_hints.h</text>
</a>
</g>
</g>
<!-- Node18&#45;&gt;Node21 -->
<g id="edge28" class="edge">
<title>Node18&#45;&gt;Node21</title>
<path fill="none" stroke="#191970" d="M763.7352,-168.4369C725.1308,-158.9133 665.7616,-144.2672 624.0428,-133.9753"/>
<polygon fill="#191970" stroke="#191970" points="624.6521,-130.5208 614.1049,-131.5237 622.9755,-137.317 624.6521,-130.5208"/>
</g>
<!-- Node23 -->
<g id="node24" class="node">
<title>Node23</title>
<g id="a_node24"><a xlink:href="container_8h.html" target="_top" xlink:title="Common macros and compiler attributes/pragmas configuration. ">
<polygon fill="#ffffff" stroke="#000000" points="838,-112.5 838,-131.5 907,-131.5 907,-112.5 838,-112.5"/>
<text text-anchor="middle" x="872.5" y="-119.5" font-family="Helvetica,sans-Serif" font-size="10.00" fill="#000000">container.h</text>
</a>
</g>
</g>
<!-- Node18&#45;&gt;Node23 -->
<g id="edge32" class="edge">
<title>Node18&#45;&gt;Node23</title>
<path fill="none" stroke="#191970" d="M814.6931,-168.2455C825.1321,-159.8943 840.3655,-147.7076 852.574,-137.9408"/>
<polygon fill="#191970" stroke="#191970" points="854.8244,-140.6227 860.4467,-131.6427 850.4515,-135.1566 854.8244,-140.6227"/>
</g>
<!-- Node20&#45;&gt;Node6 -->
<g id="edge27" class="edge">
<title>Node20&#45;&gt;Node6</title>
<path fill="none" stroke="#191970" d="M904.5,-56.2455C904.5,-48.9382 904.5,-38.6944 904.5,-29.7046"/>
<polygon fill="#191970" stroke="#191970" points="908.0001,-29.6426 904.5,-19.6427 901.0001,-29.6427 908.0001,-29.6426"/>
</g>
<!-- Node21&#45;&gt;Node6 -->
<g id="edge31" class="edge">
<title>Node21&#45;&gt;Node6</title>
<path fill="none" stroke="#191970" d="M586.0137,-112.4571C602.6549,-97.9007 636.659,-70.3335 670.5,-56 736.7789,-27.9273 820.9546,-16.7688 868.1524,-12.4981"/>
<polygon fill="#191970" stroke="#191970" points="868.5356,-15.9782 878.2029,-11.643 867.9421,-9.0034 868.5356,-15.9782"/>
</g>
<!-- Node22 -->
<g id="node23" class="node">
<title>Node22</title>
<g id="a_node23"><a xlink:href="assert_8h.html" target="_top" xlink:title="POSIX.1&#45;2008 compliant version of the assert macro. ">
<polygon fill="#ffffff" stroke="#000000" points="548.5,-56.5 548.5,-75.5 602.5,-75.5 602.5,-56.5 548.5,-56.5"/>
<text text-anchor="middle" x="575.5" y="-63.5" font-family="Helvetica,sans-Serif" font-size="10.00" fill="#000000">assert.h</text>
</a>
</g>
</g>
<!-- Node21&#45;&gt;Node22 -->
<g id="edge29" class="edge">
<title>Node21&#45;&gt;Node22</title>
<path fill="none" stroke="#191970" d="M575.5,-112.2455C575.5,-104.9382 575.5,-94.6944 575.5,-85.7046"/>
<polygon fill="#191970" stroke="#191970" points="579.0001,-85.6426 575.5,-75.6427 572.0001,-85.6427 579.0001,-85.6426"/>
</g>
<!-- Node22&#45;&gt;Node6 -->
<g id="edge30" class="edge">
<title>Node22&#45;&gt;Node6</title>
<path fill="none" stroke="#191970" d="M602.7034,-61.3696C661.7421,-51.3205 801.6467,-27.5069 868.161,-16.1854"/>
<polygon fill="#191970" stroke="#191970" points="868.9115,-19.608 878.1824,-14.4796 867.7369,-12.7073 868.9115,-19.608"/>
</g>
<!-- Node23&#45;&gt;Node6 -->
<g id="edge34" class="edge">
<title>Node23&#45;&gt;Node6</title>
<path fill="none" stroke="#191970" d="M866.1337,-112.2915C858.3651,-99.14 847.228,-75.1115 855.5,-56 860.7337,-43.9081 870.8842,-33.5335 880.5955,-25.7139"/>
<polygon fill="#191970" stroke="#191970" points="882.9671,-28.3109 888.882,-19.5209 878.7766,-22.7038 882.9671,-28.3109"/>
</g>
<!-- Node23&#45;&gt;Node14 -->
<g id="edge33" class="edge">
<title>Node23&#45;&gt;Node14</title>
<path fill="none" stroke="#191970" d="M844.1355,-112.3733C816.8173,-103.1016 775.3204,-89.0178 745.2262,-78.804"/>
<polygon fill="#191970" stroke="#191970" points="746.0887,-75.4008 735.4944,-75.5011 743.839,-82.0294 746.0887,-75.4008"/>
</g>
<!-- Node26 -->
<g id="node27" class="node">
<title>Node26</title>
<g id="a_node27"><a xlink:href="clist_8h.html" target="_top" xlink:title="Circular linked list. ">
<polygon fill="#ffffff" stroke="#000000" points="474,-168.5 474,-187.5 517,-187.5 517,-168.5 474,-168.5"/>
<text text-anchor="middle" x="495.5" y="-175.5" font-family="Helvetica,sans-Serif" font-size="10.00" fill="#000000">clist.h</text>
</a>
</g>
</g>
<!-- Node25&#45;&gt;Node26 -->
<g id="edge37" class="edge">
<title>Node25&#45;&gt;Node26</title>
<path fill="none" stroke="#191970" d="M495.5,-336.4862C495.5,-309.9293 495.5,-234.5651 495.5,-198.1655"/>
<polygon fill="#191970" stroke="#191970" points="499.0001,-197.8278 495.5,-187.8279 492.0001,-197.8279 499.0001,-197.8278"/>
</g>
<!-- Node27 -->
<g id="node28" class="node">
<title>Node27</title>
<g id="a_node28"><a xlink:href="cib_8h.html" target="_top" xlink:title="Circular integer buffer interface. ">
<polygon fill="#ffffff" stroke="#000000" points="219.5,-280.5 219.5,-299.5 257.5,-299.5 257.5,-280.5 219.5,-280.5"/>
<text text-anchor="middle" x="238.5" y="-287.5" font-family="Helvetica,sans-Serif" font-size="10.00" fill="#000000">cib.h</text>
</a>
</g>
</g>
<!-- Node25&#45;&gt;Node27 -->
<g id="edge41" class="edge">
<title>Node25&#45;&gt;Node27</title>
<path fill="none" stroke="#191970" d="M466.5184,-339.6849C417.1093,-328.9188 317.1213,-307.1315 267.6188,-296.345"/>
<polygon fill="#191970" stroke="#191970" points="268.0933,-292.8663 257.5774,-294.1569 266.6029,-299.7058 268.0933,-292.8663"/>
</g>
<!-- Node28 -->
<g id="node29" class="node">
<title>Node28</title>
<g id="a_node29"><a xlink:href="core_2include_2msg_8h.html" target="_top" xlink:title="Messaging API for inter process communication. ">
<polygon fill="#ffffff" stroke="#000000" points="314,-280.5 314,-299.5 359,-299.5 359,-280.5 314,-280.5"/>
<text text-anchor="middle" x="336.5" y="-287.5" font-family="Helvetica,sans-Serif" font-size="10.00" fill="#000000">msg.h</text>
</a>
</g>
</g>
<!-- Node25&#45;&gt;Node28 -->
<g id="edge43" class="edge">
<title>Node25&#45;&gt;Node28</title>
<path fill="none" stroke="#191970" d="M468.1669,-336.3733C440.6857,-326.6944 398.3148,-311.7712 369.0984,-301.4812"/>
<polygon fill="#191970" stroke="#191970" points="369.9536,-298.0717 359.3588,-298.0509 367.6282,-304.6742 369.9536,-298.0717"/>
</g>
<!-- Node29 -->
<g id="node30" class="node">
<title>Node29</title>
<g id="a_node30"><a xlink:href="sched_8h.html" target="_top" xlink:title="Scheduler API definition. ">
<polygon fill="#ffffff" stroke="#000000" points="614,-224.5 614,-243.5 667,-243.5 667,-224.5 614,-224.5"/>
<text text-anchor="middle" x="640.5" y="-231.5" font-family="Helvetica,sans-Serif" font-size="10.00" fill="#000000">sched.h</text>
</a>
</g>
</g>
<!-- Node25&#45;&gt;Node29 -->
<g id="edge52" class="edge">
<title>Node25&#45;&gt;Node29</title>
<path fill="none" stroke="#191970" d="M524.0578,-341.6794C550.6632,-336.2586 589.8319,-324.5106 614.5,-300 627.0309,-287.5491 633.682,-268.3308 637.1083,-253.8375"/>
<polygon fill="#191970" stroke="#191970" points="640.573,-254.3637 639.1438,-243.8657 633.7145,-252.9636 640.573,-254.3637"/>
</g>
<!-- Node31 -->
<g id="node32" class="node">
<title>Node31</title>
<g id="a_node32"><a xlink:href="thread__config_8h.html" target="_top" xlink:title="Thread configuration defines. ">
<polygon fill="#ffffff" stroke="#000000" points="377.5,-280.5 377.5,-299.5 467.5,-299.5 467.5,-280.5 377.5,-280.5"/>
<text text-anchor="middle" x="422.5" y="-287.5" font-family="Helvetica,sans-Serif" font-size="10.00" fill="#000000">thread_config.h</text>
</a>
</g>
</g>
<!-- Node25&#45;&gt;Node31 -->
<g id="edge53" class="edge">
<title>Node25&#45;&gt;Node31</title>
<path fill="none" stroke="#191970" d="M482.7844,-336.2455C471.898,-327.8943 456.0117,-315.7076 443.28,-305.9408"/>
<polygon fill="#191970" stroke="#191970" points="445.1346,-302.9523 435.0699,-299.6427 440.8739,-308.5063 445.1346,-302.9523"/>
</g>
<!-- Node32 -->
<g id="node33" class="node">
<title>Node32</title>
<polygon fill="#ffffff" stroke="#bfbfbf" points="523.5,-280.5 523.5,-299.5 605.5,-299.5 605.5,-280.5 523.5,-280.5"/>
<text text-anchor="middle" x="564.5" y="-287.5" font-family="Helvetica,sans-Serif" font-size="10.00" fill="#000000">thread_arch.h</text>
</g>
<!-- Node25&#45;&gt;Node32 -->
<g id="edge56" class="edge">
<title>Node25&#45;&gt;Node32</title>
<path fill="none" stroke="#191970" d="M507.5189,-336.2455C517.7098,-327.9746 532.5362,-315.9416 544.5107,-306.2232"/>
<polygon fill="#191970" stroke="#191970" points="547.0598,-308.662 552.6188,-299.6427 542.6486,-303.2268 547.0598,-308.662"/>
</g>
<!-- Node26&#45;&gt;Node11 -->
<g id="edge38" class="edge">
<title>Node26&#45;&gt;Node11</title>
<path fill="none" stroke="#191970" d="M473.7878,-171.2451C444.5573,-162.1512 392.013,-145.804 355.5209,-134.4509"/>
<polygon fill="#191970" stroke="#191970" points="356.2749,-131.0201 345.6866,-131.3914 354.1954,-137.7041 356.2749,-131.0201"/>
</g>
<!-- Node26&#45;&gt;Node14 -->
<g id="edge39" class="edge">
<title>Node26&#45;&gt;Node14</title>
<path fill="none" stroke="#191970" d="M517.1592,-171.1175C552.6855,-159.7546 620.419,-137.7521 630.5,-132 653.7254,-118.7478 676.4942,-97.9903 691.1738,-83.297"/>
<polygon fill="#191970" stroke="#191970" points="693.9681,-85.445 698.4484,-75.8441 688.9587,-80.5555 693.9681,-85.445"/>
</g>
<!-- Node26&#45;&gt;Node24 -->
<g id="edge40" class="edge">
<title>Node26&#45;&gt;Node24</title>
<path fill="none" stroke="#191970" d="M494.8033,-168.2455C494.2813,-160.9382 493.5496,-150.6944 492.9075,-141.7046"/>
<polygon fill="#191970" stroke="#191970" points="496.3924,-141.3679 492.1888,-131.6427 489.4102,-141.8667 496.3924,-141.3679"/>
</g>
<!-- Node27&#45;&gt;Node22 -->
<g id="edge42" class="edge">
<title>Node27&#45;&gt;Node22</title>
<path fill="none" stroke="#191970" d="M235.3691,-280.4631C228.9933,-259.4291 216.2609,-207.7675 230.5,-168 241.3577,-137.6761 248.5145,-127.945 276.5,-112 320.5562,-86.8986 468.2525,-73.4936 538.1846,-68.421"/>
<polygon fill="#191970" stroke="#191970" points="538.5867,-71.9014 548.3152,-67.7052 538.0933,-64.9188 538.5867,-71.9014"/>
</g>
<!-- Node28&#45;&gt;Node6 -->
<g id="edge44" class="edge">
<title>Node28&#45;&gt;Node6</title>
<path fill="none" stroke="#191970" d="M356.814,-280.4652C388.0989,-264.209 444.5,-227.9722 444.5,-178 444.5,-178 444.5,-178 444.5,-122 444.5,-34.8978 759.7924,-15.2526 868.3161,-11.0705"/>
<polygon fill="#191970" stroke="#191970" points="868.5841,-14.5632 878.4504,-10.7022 868.3299,-7.5678 868.5841,-14.5632"/>
</g>
<!-- Node28&#45;&gt;Node11 -->
<g id="edge45" class="edge">
<title>Node28&#45;&gt;Node11</title>
<path fill="none" stroke="#191970" d="M352.9177,-280.2212C364.7076,-272.1641 379.6747,-259.5536 386.5,-244 390.0719,-235.8603 389.1612,-232.4812 386.5,-224 375.9216,-190.2865 349.8222,-157.9654 332.3886,-139.0518"/>
<polygon fill="#191970" stroke="#191970" points="334.718,-136.4217 325.2968,-131.5749 329.6392,-141.239 334.718,-136.4217"/>
</g>
<!-- Node28&#45;&gt;Node29 -->
<g id="edge46" class="edge">
<title>Node28&#45;&gt;Node29</title>
<path fill="none" stroke="#191970" d="M359.12,-282.5153C362.2526,-281.6009 365.4435,-280.7325 368.5,-280 451.5051,-260.1083 550.7662,-245.6184 603.4195,-238.6498"/>
<polygon fill="#191970" stroke="#191970" points="604.1555,-242.0835 613.6177,-237.3174 603.2485,-235.1425 604.1555,-242.0835"/>
</g>
<!-- Node29&#45;&gt;Node7 -->
<g id="edge48" class="edge">
<title>Node29&#45;&gt;Node7</title>
<path fill="none" stroke="#191970" d="M667.1889,-232.9083C739.7886,-229.6396 947.0048,-218.3187 1127.7657,-188.0944"/>
<polygon fill="#191970" stroke="#191970" points="1128.4413,-191.5299 1137.7152,-186.4068 1127.2707,-184.6284 1128.4413,-191.5299"/>
</g>
<!-- Node29&#45;&gt;Node14 -->
<g id="edge47" class="edge">
<title>Node29&#45;&gt;Node14</title>
<path fill="none" stroke="#191970" d="M644.2942,-224.4862C654.977,-197.6994 685.4632,-121.2565 699.8313,-85.2289"/>
<polygon fill="#191970" stroke="#191970" points="703.1271,-86.413 703.5805,-75.8279 696.6251,-83.8199 703.1271,-86.413"/>
</g>
<!-- Node29&#45;&gt;Node18 -->
<g id="edge49" class="edge">
<title>Node29&#45;&gt;Node18</title>
<path fill="none" stroke="#191970" d="M667.251,-224.7527C693.9763,-215.5144 735.2835,-201.2353 765.2175,-190.8878"/>
<polygon fill="#191970" stroke="#191970" points="766.5878,-194.1174 774.8956,-187.5423 764.3008,-187.5015 766.5878,-194.1174"/>
</g>
<!-- Node29&#45;&gt;Node26 -->
<g id="edge51" class="edge">
<title>Node29&#45;&gt;Node26</title>
<path fill="none" stroke="#191970" d="M615.5736,-224.3733C591.0182,-214.8898 553.427,-200.3718 526.8567,-190.1102"/>
<polygon fill="#191970" stroke="#191970" points="527.8526,-186.7429 517.2631,-186.4051 525.3306,-193.2728 527.8526,-186.7429"/>
</g>
<!-- Node30 -->
<g id="node31" class="node">
<title>Node30</title>
<g id="a_node31"><a xlink:href="native__sched_8h.html" target="_top" xlink:title="Add definitions required on the native board. ">
<polygon fill="#ffffff" stroke="#000000" points="536.5,-168.5 536.5,-187.5 622.5,-187.5 622.5,-168.5 536.5,-168.5"/>
<text text-anchor="middle" x="579.5" y="-175.5" font-family="Helvetica,sans-Serif" font-size="10.00" fill="#000000">native_sched.h</text>
</a>
</g>
</g>
<!-- Node29&#45;&gt;Node30 -->
<g id="edge50" class="edge">
<title>Node29&#45;&gt;Node30</title>
<path fill="none" stroke="#191970" d="M629.8746,-224.2455C620.9527,-216.0549 608.012,-204.1749 597.4808,-194.5069"/>
<polygon fill="#191970" stroke="#191970" points="599.7371,-191.8271 590.0036,-187.6427 595.0032,-196.9837 599.7371,-191.8271"/>
</g>
<!-- Node31&#45;&gt;Node12 -->
<g id="edge54" class="edge">
<title>Node31&#45;&gt;Node12</title>
<path fill="none" stroke="#191970" d="M408.9134,-280.2455C397.1695,-271.814 379.9801,-259.4729 366.3118,-249.6598"/>
<polygon fill="#191970" stroke="#191970" points="368.0954,-246.6316 357.9309,-243.6427 364.0129,-252.3179 368.0954,-246.6316"/>
</g>
<!-- Node31&#45;&gt;Node29 -->
<g id="edge55" class="edge">
<title>Node31&#45;&gt;Node29</title>
<path fill="none" stroke="#191970" d="M459.9755,-280.3733C500.2915,-270.0169 563.9802,-253.6565 603.9386,-243.3919"/>
<polygon fill="#191970" stroke="#191970" points="604.9883,-246.736 613.803,-240.8579 603.2466,-239.9561 604.9883,-246.736"/>
</g>
<!-- Node34&#45;&gt;Node6 -->
<g id="edge59" class="edge">
<title>Node34&#45;&gt;Node6</title>
<path fill="none" stroke="#191970" d="M699.051,-511.7898C816.2661,-502.0256 1267.5,-460.6297 1267.5,-402 1267.5,-402 1267.5,-402 1267.5,-122 1267.5,-71.6776 1221.9431,-75.3747 1175.5,-56 1133.5712,-38.5085 1004.1035,-21.59 940.5049,-14.0679"/>
<polygon fill="#191970" stroke="#191970" points="940.8611,-10.5858 930.5222,-12.9005 940.048,-17.5384 940.8611,-10.5858"/>
</g>
<!-- Node34&#45;&gt;Node13 -->
<g id="edge65" class="edge">
<title>Node34&#45;&gt;Node13</title>
<path fill="none" stroke="#191970" d="M699.2697,-507.6388C721.1376,-501.2187 750.7907,-489.1487 768.5,-468 779.3299,-455.0667 783.6834,-436.1688 785.4132,-421.9057"/>
<polygon fill="#191970" stroke="#191970" points="788.9244,-421.9307 786.3116,-411.6631 781.9512,-421.319 788.9244,-421.9307"/>
</g>
<!-- Node34&#45;&gt;Node29 -->
<g id="edge70" class="edge">
<title>Node34&#45;&gt;Node29</title>
<path fill="none" stroke="#191970" d="M671.5,-504.4116C671.5,-485.0538 671.5,-439.9167 671.5,-402 671.5,-402 671.5,-402 671.5,-346 671.5,-312.3636 658.3523,-275.0368 649.1816,-253.0922"/>
<polygon fill="#191970" stroke="#191970" points="652.2693,-251.4156 645.0742,-243.6387 645.8491,-254.2051 652.2693,-251.4156"/>
</g>
<!-- Node34&#45;&gt;Node33 -->
<g id="edge64" class="edge">
<title>Node34&#45;&gt;Node33</title>
<path fill="none" stroke="#191970" d="M655.9974,-504.2455C642.342,-495.6534 622.2343,-483.0014 606.5011,-473.1018"/>
<polygon fill="#191970" stroke="#191970" points="608.1529,-470.006 597.825,-467.6427 604.4249,-475.9307 608.1529,-470.006"/>
</g>
<!-- Node35 -->
<g id="node36" class="node">
<title>Node35</title>
<g id="a_node36"><a xlink:href="mbox_8h.html" target="_top" xlink:title="Mailbox API. ">
<polygon fill="#ffffff" stroke="#000000" points="205.5,-336.5 205.5,-355.5 257.5,-355.5 257.5,-336.5 205.5,-336.5"/>
<text text-anchor="middle" x="231.5" y="-343.5" font-family="Helvetica,sans-Serif" font-size="10.00" fill="#000000">mbox.h</text>
</a>
</g>
</g>
<!-- Node34&#45;&gt;Node35 -->
<g id="edge60" class="edge">
<title>Node34&#45;&gt;Node35</title>
<path fill="none" stroke="#191970" d="M665.6761,-504.3133C656.4529,-489.8212 637.0898,-462.6381 613.5,-448 598.4615,-438.6682 359.6606,-378.1553 267.4458,-354.9962"/>
<polygon fill="#191970" stroke="#191970" points="268.2638,-351.593 257.7126,-352.5538 266.56,-358.3825 268.2638,-351.593"/>
</g>
<!-- Node36 -->
<g id="node37" class="node">
<title>Node36</title>
<g id="a_node37"><a xlink:href="rmutex_8h.html" target="_top" xlink:title="Recursive Mutex for thread synchronization. ">
<polygon fill="#ffffff" stroke="#000000" points="699.5,-448.5 699.5,-467.5 759.5,-467.5 759.5,-448.5 699.5,-448.5"/>
<text text-anchor="middle" x="729.5" y="-455.5" font-family="Helvetica,sans-Serif" font-size="10.00" fill="#000000">rmutex.h</text>
</a>
</g>
</g>
<!-- Node34&#45;&gt;Node36 -->
<g id="edge66" class="edge">
<title>Node34&#45;&gt;Node36</title>
<path fill="none" stroke="#191970" d="M681.6028,-504.2455C690.0028,-496.1352 702.1494,-484.4075 712.1084,-474.7919"/>
<polygon fill="#191970" stroke="#191970" points="714.75,-477.1066 719.5129,-467.6427 709.8878,-472.0707 714.75,-477.1066"/>
</g>
<!-- Node35&#45;&gt;Node24 -->
<g id="edge61" class="edge">
<title>Node35&#45;&gt;Node24</title>
<path fill="none" stroke="#191970" d="M223.605,-336.1048C213.9737,-322.7417 200.1767,-298.4742 210.5,-280 264.3276,-183.672 401.9191,-142.0026 462.3225,-127.9368"/>
<polygon fill="#191970" stroke="#191970" points="463.3391,-131.296 472.333,-125.6959 461.8099,-124.465 463.3391,-131.296"/>
</g>
<!-- Node35&#45;&gt;Node27 -->
<g id="edge62" class="edge">
<title>Node35&#45;&gt;Node27</title>
<path fill="none" stroke="#191970" d="M232.7193,-336.2455C233.6327,-328.9382 234.9132,-318.6944 236.0369,-309.7046"/>
<polygon fill="#191970" stroke="#191970" points="239.5272,-309.9996 237.2947,-299.6427 232.5813,-309.1313 239.5272,-309.9996"/>
</g>
<!-- Node35&#45;&gt;Node28 -->
<g id="edge63" class="edge">
<title>Node35&#45;&gt;Node28</title>
<path fill="none" stroke="#191970" d="M249.7896,-336.2455C266.2762,-327.4527 290.7352,-314.4079 309.4765,-304.4125"/>
<polygon fill="#191970" stroke="#191970" points="311.2435,-307.4368 318.42,-299.6427 307.9494,-301.2604 311.2435,-307.4368"/>
</g>
<!-- Node36&#45;&gt;Node6 -->
<g id="edge67" class="edge">
<title>Node36&#45;&gt;Node6</title>
<path fill="none" stroke="#191970" d="M759.6512,-454.4894C867.7518,-441.5026 1229.5,-394.4258 1229.5,-346 1229.5,-346 1229.5,-346 1229.5,-122 1229.5,-61.4153 1025.0763,-26.4816 940.4828,-14.6192"/>
<polygon fill="#191970" stroke="#191970" points="940.9299,-11.1478 930.5467,-13.2551 939.9777,-18.0828 940.9299,-11.1478"/>
</g>
<!-- Node36&#45;&gt;Node13 -->
<g id="edge68" class="edge">
<title>Node36&#45;&gt;Node13</title>
<path fill="none" stroke="#191970" d="M739.4286,-448.2455C747.6838,-440.1352 759.6209,-428.4075 769.4082,-418.7919"/>
<polygon fill="#191970" stroke="#191970" points="772.0046,-421.1476 776.6851,-411.6427 767.0989,-416.1542 772.0046,-421.1476"/>
</g>
<!-- Node36&#45;&gt;Node29 -->
<g id="edge69" class="edge">
<title>Node36&#45;&gt;Node29</title>
<path fill="none" stroke="#191970" d="M728.9004,-448.4801C726.8019,-420.7642 718.0392,-338.3953 685.5,-280 679.2548,-268.7922 669.5566,-258.3828 660.7605,-250.3109"/>
<polygon fill="#191970" stroke="#191970" points="662.8988,-247.5319 653.0608,-243.5994 658.2992,-252.8086 662.8988,-247.5319"/>
</g>
</g>
</svg>
