<?xml version="1.0" encoding="UTF-8" standalone="no"?>
<!DOCTYPE svg PUBLIC "-//W3C//DTD SVG 1.1//EN"
 "http://www.w3.org/Graphics/SVG/1.1/DTD/svg11.dtd">
<!-- Generated by graphviz version 2.40.1 (0)
 -->
<!-- Title: sys/include/clk.h Pages: 1 -->
<svg width="200pt" height="140pt"
 viewBox="0.00 0.00 199.50 140.00" xmlns="http://www.w3.org/2000/svg" xmlns:xlink="http://www.w3.org/1999/xlink">
<g id="graph0" class="graph" transform="scale(1 1) rotate(0) translate(4 136)">
<title>sys/include/clk.h</title>
<polygon fill="#ffffff" stroke="transparent" points="-4,4 -4,-136 195.5,-136 195.5,4 -4,4"/>
<!-- Node0 -->
<g id="node1" class="node">
<title>Node0</title>
<polygon fill="#bfbfbf" stroke="#000000" points="36,-112.5 36,-131.5 128,-131.5 128,-112.5 36,-112.5"/>
<text text-anchor="middle" x="82" y="-119.5" font-family="Helvetica,sans-Serif" font-size="10.00" fill="#000000">sys/include/clk.h</text>
</g>
<!-- Node1 -->
<g id="node2" class="node">
<title>Node1</title>
<g id="a_node2"><a xlink:href="assert_8h.html" target="_top" xlink:title="POSIX.1&#45;2008 compliant version of the assert macro. ">
<polygon fill="#ffffff" stroke="#000000" points="0,-56.5 0,-75.5 54,-75.5 54,-56.5 0,-56.5"/>
<text text-anchor="middle" x="27" y="-63.5" font-family="Helvetica,sans-Serif" font-size="10.00" fill="#000000">assert.h</text>
</a>
</g>
</g>
<!-- Node0&#45;&gt;Node1 -->
<g id="edge1" class="edge">
<title>Node0&#45;&gt;Node1</title>
<path fill="none" stroke="#191970" d="M72.4197,-112.2455C64.4542,-104.1352 52.9359,-92.4075 43.4921,-82.7919"/>
<polygon fill="#191970" stroke="#191970" points="45.9747,-80.3247 36.4705,-75.6427 40.9805,-85.2297 45.9747,-80.3247"/>
</g>
<!-- Node2 -->
<g id="node3" class="node">
<title>Node2</title>
<polygon fill="#ffffff" stroke="#bfbfbf" points="28,-.5 28,-19.5 80,-19.5 80,-.5 28,-.5"/>
<text text-anchor="middle" x="54" y="-7.5" font-family="Helvetica,sans-Serif" font-size="10.00" fill="#000000">stdint.h</text>
</g>
<!-- Node0&#45;&gt;Node2 -->
<g id="edge3" class="edge">
<title>Node0&#45;&gt;Node2</title>
<path fill="none" stroke="#191970" d="M79.6127,-112.4509C75.0253,-94.1013 64.8977,-53.5908 58.8423,-29.3693"/>
<polygon fill="#191970" stroke="#191970" points="62.2022,-28.3774 56.3812,-19.5249 55.4112,-30.0752 62.2022,-28.3774"/>
</g>
<!-- Node3 -->
<g id="node4" class="node">
<title>Node3</title>
<polygon fill="#ffffff" stroke="#bfbfbf" points="110.5,-56.5 110.5,-75.5 191.5,-75.5 191.5,-56.5 110.5,-56.5"/>
<text text-anchor="middle" x="151" y="-63.5" font-family="Helvetica,sans-Serif" font-size="10.00" fill="#000000">periph_conf.h</text>
</g>
<!-- Node0&#45;&gt;Node3 -->
<g id="edge4" class="edge">
<title>Node0&#45;&gt;Node3</title>
<path fill="none" stroke="#191970" d="M94.0189,-112.2455C104.2098,-103.9746 119.0362,-91.9416 131.0107,-82.2232"/>
<polygon fill="#191970" stroke="#191970" points="133.5598,-84.662 139.1188,-75.6427 129.1486,-79.2268 133.5598,-84.662"/>
</g>
<!-- Node1&#45;&gt;Node2 -->
<g id="edge2" class="edge">
<title>Node1&#45;&gt;Node2</title>
<path fill="none" stroke="#191970" d="M31.703,-56.2455C35.3424,-48.6973 40.4924,-38.0158 44.9262,-28.8197"/>
<polygon fill="#191970" stroke="#191970" points="48.1605,-30.1704 49.3509,-19.6427 41.8551,-27.1303 48.1605,-30.1704"/>
</g>
</g>
</svg>
