<?xml version="1.0" encoding="UTF-8" standalone="no"?>
<!DOCTYPE svg PUBLIC "-//W3C//DTD SVG 1.1//EN"
 "http://www.w3.org/Graphics/SVG/1.1/DTD/svg11.dtd">
<!-- Generated by graphviz version 2.40.1 (0)
 -->
<!-- Title: sys/include/color.h Pages: 1 -->
<svg width="606pt" height="151pt"
 viewBox="0.00 0.00 606.00 151.00" xmlns="http://www.w3.org/2000/svg" xmlns:xlink="http://www.w3.org/1999/xlink">
<g id="graph0" class="graph" transform="scale(1 1) rotate(0) translate(4 147)">
<title>sys/include/color.h</title>
<polygon fill="#ffffff" stroke="transparent" points="-4,4 -4,-147 602,-147 602,4 -4,4"/>
<!-- Node2 -->
<g id="node1" class="node">
<title>Node2</title>
<polygon fill="#bfbfbf" stroke="#000000" points="247.5,-123.5 247.5,-142.5 350.5,-142.5 350.5,-123.5 247.5,-123.5"/>
<text text-anchor="middle" x="299" y="-130.5" font-family="Helvetica,sans-Serif" font-size="10.00" fill="#000000">sys/include/color.h</text>
</g>
<!-- Node3 -->
<g id="node2" class="node">
<title>Node3</title>
<g id="a_node2"><a xlink:href="apa102_8h.html" target="_top" xlink:title="Interface for controlling APA102 LEDs. ">
<polygon fill="#ffffff" stroke="#000000" points="0,-67.5 0,-86.5 134,-86.5 134,-67.5 0,-67.5"/>
<text text-anchor="middle" x="67" y="-74.5" font-family="Helvetica,sans-Serif" font-size="10.00" fill="#000000">drivers/include/apa102.h</text>
</a>
</g>
</g>
<!-- Node2&#45;&gt;Node3 -->
<g id="edge1" class="edge">
<title>Node2&#45;&gt;Node3</title>
<path fill="none" stroke="#191970" d="M249.4816,-121.0473C206.7803,-110.7401 145.9345,-96.0532 106.4552,-86.5237"/>
<polygon fill="#191970" stroke="#191970" points="248.8393,-124.4927 259.3814,-123.4369 250.4818,-117.6881 248.8393,-124.4927"/>
</g>
<!-- Node4 -->
<g id="node3" class="node">
<title>Node4</title>
<g id="a_node3"><a xlink:href="isl29125_8h.html" target="_top" xlink:title="Device driver interface for the ISL29125 RGB light sensor. ">
<polygon fill="#ffffff" stroke="#000000" points="152,-67.5 152,-86.5 290,-86.5 290,-67.5 152,-67.5"/>
<text text-anchor="middle" x="221" y="-74.5" font-family="Helvetica,sans-Serif" font-size="10.00" fill="#000000">drivers/include/isl29125.h</text>
</a>
</g>
</g>
<!-- Node2&#45;&gt;Node4 -->
<g id="edge2" class="edge">
<title>Node2&#45;&gt;Node4</title>
<path fill="none" stroke="#191970" d="M277.0064,-117.2097C263.3071,-107.3743 246.1264,-95.0394 234.4309,-86.6427"/>
<polygon fill="#191970" stroke="#191970" points="275.2489,-120.2566 285.4134,-123.2455 279.3314,-114.5703 275.2489,-120.2566"/>
</g>
<!-- Node6 -->
<g id="node5" class="node">
<title>Node6</title>
<g id="a_node5"><a xlink:href="lpd8808_8h.html" target="_top" xlink:title="Interface definition for the LPD8808 LED strip driver. ">
<polygon fill="#ffffff" stroke="#000000" points="308.5,-67.5 308.5,-86.5 445.5,-86.5 445.5,-67.5 308.5,-67.5"/>
<text text-anchor="middle" x="377" y="-74.5" font-family="Helvetica,sans-Serif" font-size="10.00" fill="#000000">drivers/include/lpd8808.h</text>
</a>
</g>
</g>
<!-- Node2&#45;&gt;Node6 -->
<g id="edge4" class="edge">
<title>Node2&#45;&gt;Node6</title>
<path fill="none" stroke="#191970" d="M320.9936,-117.2097C334.6929,-107.3743 351.8736,-95.0394 363.5691,-86.6427"/>
<polygon fill="#191970" stroke="#191970" points="318.6686,-114.5703 312.5866,-123.2455 322.7511,-120.2566 318.6686,-114.5703"/>
</g>
<!-- Node7 -->
<g id="node6" class="node">
<title>Node7</title>
<g id="a_node6"><a xlink:href="ws281x_8h.html" target="_top" xlink:title="WS2812/SK6812 RGB LED Driver. ">
<polygon fill="#ffffff" stroke="#000000" points="464,-67.5 464,-86.5 598,-86.5 598,-67.5 464,-67.5"/>
<text text-anchor="middle" x="531" y="-74.5" font-family="Helvetica,sans-Serif" font-size="10.00" fill="#000000">drivers/include/ws281x.h</text>
</a>
</g>
</g>
<!-- Node2&#45;&gt;Node7 -->
<g id="edge5" class="edge">
<title>Node2&#45;&gt;Node7</title>
<path fill="none" stroke="#191970" d="M348.5184,-121.0473C391.2197,-110.7401 452.0655,-96.0532 491.5448,-86.5237"/>
<polygon fill="#191970" stroke="#191970" points="347.5182,-117.6881 338.6186,-123.4369 349.1607,-124.4927 347.5182,-117.6881"/>
</g>
<!-- Node5 -->
<g id="node4" class="node">
<title>Node5</title>
<g id="a_node4"><a xlink:href="isl29125__params_8h.html" target="_top" xlink:title="Default configuration for ISL29125 devices. ">
<polygon fill="#ffffff" stroke="#000000" points="156.5,-.5 156.5,-30.5 285.5,-30.5 285.5,-.5 156.5,-.5"/>
<text text-anchor="start" x="164.5" y="-18.5" font-family="Helvetica,sans-Serif" font-size="10.00" fill="#000000">drivers/isl29125/include</text>
<text text-anchor="middle" x="221" y="-7.5" font-family="Helvetica,sans-Serif" font-size="10.00" fill="#000000">/isl29125_params.h</text>
</a>
</g>
</g>
<!-- Node4&#45;&gt;Node5 -->
<g id="edge3" class="edge">
<title>Node4&#45;&gt;Node5</title>
<path fill="none" stroke="#191970" d="M221,-57.3693C221,-48.681 221,-38.6241 221,-30.5446"/>
<polygon fill="#191970" stroke="#191970" points="217.5001,-57.3906 221,-67.3906 224.5001,-57.3907 217.5001,-57.3906"/>
</g>
<!-- Node8 -->
<g id="node7" class="node">
<title>Node8</title>
<g id="a_node7"><a xlink:href="ws281x__params_8h.html" target="_top" xlink:title="Default configuration for WS2812/SK6812 RGB LEDs. ">
<polygon fill="#ffffff" stroke="#000000" points="468.5,-.5 468.5,-30.5 593.5,-30.5 593.5,-.5 468.5,-.5"/>
<text text-anchor="start" x="476.5" y="-18.5" font-family="Helvetica,sans-Serif" font-size="10.00" fill="#000000">drivers/ws281x/include</text>
<text text-anchor="middle" x="531" y="-7.5" font-family="Helvetica,sans-Serif" font-size="10.00" fill="#000000">/ws281x_params.h</text>
</a>
</g>
</g>
<!-- Node7&#45;&gt;Node8 -->
<g id="edge6" class="edge">
<title>Node7&#45;&gt;Node8</title>
<path fill="none" stroke="#191970" d="M531,-57.3693C531,-48.681 531,-38.6241 531,-30.5446"/>
<polygon fill="#191970" stroke="#191970" points="527.5001,-57.3906 531,-67.3906 534.5001,-57.3907 527.5001,-57.3906"/>
</g>
</g>
</svg>
