<?xml version="1.0" encoding="UTF-8" standalone="no"?>
<!DOCTYPE svg PUBLIC "-//W3C//DTD SVG 1.1//EN"
 "http://www.w3.org/Graphics/SVG/1.1/DTD/svg11.dtd">
<!-- Generated by graphviz version 2.40.1 (0)
 -->
<!-- Title: boards/common/nucleo64/include/gpio_params.h Pages: 1 -->
<svg width="881pt" height="375pt"
 viewBox="0.00 0.00 881.03 375.00" xmlns="http://www.w3.org/2000/svg" xmlns:xlink="http://www.w3.org/1999/xlink">
<g id="graph0" class="graph" transform="scale(1 1) rotate(0) translate(4 371)">
<title>boards/common/nucleo64/include/gpio_params.h</title>
<polygon fill="#ffffff" stroke="transparent" points="-4,4 -4,-371 877.0284,-371 877.0284,4 -4,4"/>
<!-- Node0 -->
<g id="node1" class="node">
<title>Node0</title>
<polygon fill="#bfbfbf" stroke="#000000" points="99.5284,-336.5 99.5284,-366.5 239.5284,-366.5 239.5284,-336.5 99.5284,-336.5"/>
<text text-anchor="start" x="107.5284" y="-354.5" font-family="Helvetica,sans-Serif" font-size="10.00" fill="#000000">boards/common/nucleo64</text>
<text text-anchor="middle" x="169.5284" y="-343.5" font-family="Helvetica,sans-Serif" font-size="10.00" fill="#000000">/include/gpio_params.h</text>
</g>
<!-- Node1 -->
<g id="node2" class="node">
<title>Node1</title>
<g id="a_node2"><a xlink:href="common_2nucleo64_2include_2board_8h.html" target="_top" xlink:title="Common pin definitions and board configuration options. ">
<polygon fill="#ffffff" stroke="#000000" points="216.0284,-280.5 216.0284,-299.5 269.0284,-299.5 269.0284,-280.5 216.0284,-280.5"/>
<text text-anchor="middle" x="242.5284" y="-287.5" font-family="Helvetica,sans-Serif" font-size="10.00" fill="#000000">board.h</text>
</a>
</g>
</g>
<!-- Node0&#45;&gt;Node1 -->
<g id="edge1" class="edge">
<title>Node0&#45;&gt;Node1</title>
<path fill="none" stroke="#191970" d="M187.5734,-336.2977C198.3399,-327.2274 212.0136,-315.7077 223.028,-306.4285"/>
<polygon fill="#191970" stroke="#191970" points="225.4475,-308.9667 230.8402,-299.8469 220.9374,-303.6132 225.4475,-308.9667"/>
</g>
<!-- Node27 -->
<g id="node28" class="node">
<title>Node27</title>
<g id="a_node28"><a xlink:href="periph_8h.html" target="_top" xlink:title="Parameter definitions for mapping peripherals directly to SAUL. ">
<polygon fill="#ffffff" stroke="#000000" points="80.5284,-112.5 80.5284,-131.5 158.5284,-131.5 158.5284,-112.5 80.5284,-112.5"/>
<text text-anchor="middle" x="119.5284" y="-119.5" font-family="Helvetica,sans-Serif" font-size="10.00" fill="#000000">saul/periph.h</text>
</a>
</g>
</g>
<!-- Node0&#45;&gt;Node27 -->
<g id="edge42" class="edge">
<title>Node0&#45;&gt;Node27</title>
<path fill="none" stroke="#191970" d="M159.0366,-336.3613C145.845,-316.3154 123.9107,-279.3609 115.5284,-244 107.1733,-208.7534 111.7588,-166.1852 115.729,-141.7861"/>
<polygon fill="#191970" stroke="#191970" points="119.2244,-142.1181 117.5151,-131.6621 112.3308,-140.9019 119.2244,-142.1181"/>
</g>
<!-- Node2 -->
<g id="node3" class="node">
<title>Node2</title>
<g id="a_node3"><a xlink:href="board__nucleo_8h.html" target="_top" xlink:title="Global common Nucleo board configuration. ">
<polygon fill="#ffffff" stroke="#000000" points="125.0284,-224.5 125.0284,-243.5 214.0284,-243.5 214.0284,-224.5 125.0284,-224.5"/>
<text text-anchor="middle" x="169.5284" y="-231.5" font-family="Helvetica,sans-Serif" font-size="10.00" fill="#000000">board_nucleo.h</text>
</a>
</g>
</g>
<!-- Node1&#45;&gt;Node2 -->
<g id="edge2" class="edge">
<title>Node1&#45;&gt;Node2</title>
<path fill="none" stroke="#191970" d="M229.8128,-280.2455C218.9264,-271.8943 203.0402,-259.7076 190.3084,-249.9408"/>
<polygon fill="#191970" stroke="#191970" points="192.163,-246.9523 182.0984,-243.6427 187.9024,-252.5063 192.163,-246.9523"/>
</g>
<!-- Node5 -->
<g id="node6" class="node">
<title>Node5</title>
<g id="a_node6"><a xlink:href="arduino__pinmap_8h.html" target="_top" xlink:title="Compatibility wrapper for arduino_iomap.h. ">
<polygon fill="#ffffff" stroke="#000000" points="271.0284,-224.5 271.0284,-243.5 372.0284,-243.5 372.0284,-224.5 271.0284,-224.5"/>
<text text-anchor="middle" x="321.5284" y="-231.5" font-family="Helvetica,sans-Serif" font-size="10.00" fill="#000000">arduino_pinmap.h</text>
</a>
</g>
</g>
<!-- Node1&#45;&gt;Node5 -->
<g id="edge5" class="edge">
<title>Node1&#45;&gt;Node5</title>
<path fill="none" stroke="#191970" d="M256.2892,-280.2455C268.1837,-271.814 285.5934,-259.4729 299.437,-249.6598"/>
<polygon fill="#191970" stroke="#191970" points="301.7912,-252.2811 307.9254,-243.6427 297.7431,-246.5704 301.7912,-252.2811"/>
</g>
<!-- Node7 -->
<g id="node8" class="node">
<title>Node7</title>
<g id="a_node8"><a xlink:href="motor__driver_8h.html" target="_top" xlink:title="High&#45;level driver for DC motors. ">
<polygon fill="#ffffff" stroke="#000000" points="199.0284,-112.5 199.0284,-131.5 286.0284,-131.5 286.0284,-112.5 199.0284,-112.5"/>
<text text-anchor="middle" x="242.5284" y="-119.5" font-family="Helvetica,sans-Serif" font-size="10.00" fill="#000000">motor_driver.h</text>
</a>
</g>
</g>
<!-- Node1&#45;&gt;Node7 -->
<g id="edge7" class="edge">
<title>Node1&#45;&gt;Node7</title>
<path fill="none" stroke="#191970" d="M242.5284,-280.4862C242.5284,-253.9293 242.5284,-178.5651 242.5284,-142.1655"/>
<polygon fill="#191970" stroke="#191970" points="246.0285,-141.8278 242.5284,-131.8279 239.0285,-141.8279 246.0285,-141.8278"/>
</g>
<!-- Node14 -->
<g id="node15" class="node">
<title>Node14</title>
<g id="a_node15"><a xlink:href="stm32__leds_8h.html" target="_top" xlink:title="Common LED macros. ">
<polygon fill="#ffffff" stroke="#000000" points="390.5284,-224.5 390.5284,-243.5 468.5284,-243.5 468.5284,-224.5 390.5284,-224.5"/>
<text text-anchor="middle" x="429.5284" y="-231.5" font-family="Helvetica,sans-Serif" font-size="10.00" fill="#000000">stm32_leds.h</text>
</a>
</g>
</g>
<!-- Node1&#45;&gt;Node14 -->
<g id="edge18" class="edge">
<title>Node1&#45;&gt;Node14</title>
<path fill="none" stroke="#191970" d="M269.321,-281.9766C300.3377,-272.6881 351.79,-257.28 388.0006,-246.4362"/>
<polygon fill="#191970" stroke="#191970" points="389.2044,-249.7293 397.78,-243.5076 387.1962,-243.0235 389.2044,-249.7293"/>
</g>
<!-- Node3 -->
<g id="node4" class="node">
<title>Node3</title>
<polygon fill="#ffffff" stroke="#bfbfbf" points="148.5284,-168.5 148.5284,-187.5 190.5284,-187.5 190.5284,-168.5 148.5284,-168.5"/>
<text text-anchor="middle" x="169.5284" y="-175.5" font-family="Helvetica,sans-Serif" font-size="10.00" fill="#000000">cpu.h</text>
</g>
<!-- Node2&#45;&gt;Node3 -->
<g id="edge3" class="edge">
<title>Node2&#45;&gt;Node3</title>
<path fill="none" stroke="#191970" d="M169.5284,-224.2455C169.5284,-216.9382 169.5284,-206.6944 169.5284,-197.7046"/>
<polygon fill="#191970" stroke="#191970" points="173.0285,-197.6426 169.5284,-187.6427 166.0285,-197.6427 173.0285,-197.6426"/>
</g>
<!-- Node4 -->
<g id="node5" class="node">
<title>Node4</title>
<polygon fill="#ffffff" stroke="#bfbfbf" points="10.0284,-.5 10.0284,-19.5 91.0284,-19.5 91.0284,-.5 10.0284,-.5"/>
<text text-anchor="middle" x="50.5284" y="-7.5" font-family="Helvetica,sans-Serif" font-size="10.00" fill="#000000">periph_conf.h</text>
</g>
<!-- Node2&#45;&gt;Node4 -->
<g id="edge4" class="edge">
<title>Node2&#45;&gt;Node4</title>
<path fill="none" stroke="#191970" d="M152.2354,-224.3613C116.1711,-203.1301 33.6997,-148.4029 2.5284,-76 -5.6299,-57.0502 11.0235,-38.3039 26.9016,-25.6608"/>
<polygon fill="#191970" stroke="#191970" points="29.0646,-28.414 34.9987,-19.6368 24.8863,-22.7977 29.0646,-28.414"/>
</g>
<!-- Node6 -->
<g id="node7" class="node">
<title>Node6</title>
<polygon fill="#ffffff" stroke="#bfbfbf" points="274.0284,-168.5 274.0284,-187.5 369.0284,-187.5 369.0284,-168.5 274.0284,-168.5"/>
<text text-anchor="middle" x="321.5284" y="-175.5" font-family="Helvetica,sans-Serif" font-size="10.00" fill="#000000">arduino_iomap.h</text>
</g>
<!-- Node5&#45;&gt;Node6 -->
<g id="edge6" class="edge">
<title>Node5&#45;&gt;Node6</title>
<path fill="none" stroke="#191970" d="M321.5284,-224.2455C321.5284,-216.9382 321.5284,-206.6944 321.5284,-197.7046"/>
<polygon fill="#191970" stroke="#191970" points="325.0285,-197.6426 321.5284,-187.6427 318.0285,-197.6427 325.0285,-197.6426"/>
</g>
<!-- Node8 -->
<g id="node9" class="node">
<title>Node8</title>
<g id="a_node9"><a xlink:href="pwm_8h.html" target="_top" xlink:title="Low&#45;level PWM peripheral driver interface definitions. ">
<polygon fill="#ffffff" stroke="#000000" points="106.0284,-56.5 106.0284,-75.5 189.0284,-75.5 189.0284,-56.5 106.0284,-56.5"/>
<text text-anchor="middle" x="147.5284" y="-63.5" font-family="Helvetica,sans-Serif" font-size="10.00" fill="#000000">periph/pwm.h</text>
</a>
</g>
</g>
<!-- Node7&#45;&gt;Node8 -->
<g id="edge8" class="edge">
<title>Node7&#45;&gt;Node8</title>
<path fill="none" stroke="#191970" d="M225.9807,-112.2455C211.2686,-103.5731 189.5397,-90.7645 172.678,-80.825"/>
<polygon fill="#191970" stroke="#191970" points="174.2786,-77.7057 163.8866,-75.6427 170.7239,-83.736 174.2786,-77.7057"/>
</g>
<!-- Node12 -->
<g id="node13" class="node">
<title>Node12</title>
<g id="a_node13"><a xlink:href="drivers_2include_2periph_2gpio_8h.html" target="_top" xlink:title="Low&#45;level GPIO peripheral driver interface definitions. ">
<polygon fill="#ffffff" stroke="#000000" points="207.5284,-56.5 207.5284,-75.5 287.5284,-75.5 287.5284,-56.5 207.5284,-56.5"/>
<text text-anchor="middle" x="247.5284" y="-63.5" font-family="Helvetica,sans-Serif" font-size="10.00" fill="#000000">periph/gpio.h</text>
</a>
</g>
</g>
<!-- Node7&#45;&gt;Node12 -->
<g id="edge13" class="edge">
<title>Node7&#45;&gt;Node12</title>
<path fill="none" stroke="#191970" d="M243.3994,-112.2455C244.0518,-104.9382 244.9664,-94.6944 245.7691,-85.7046"/>
<polygon fill="#191970" stroke="#191970" points="249.2642,-85.9143 246.6675,-75.6427 242.2919,-85.2918 249.2642,-85.9143"/>
</g>
<!-- Node8&#45;&gt;Node4 -->
<g id="edge12" class="edge">
<title>Node8&#45;&gt;Node4</title>
<path fill="none" stroke="#191970" d="M130.6323,-56.2455C115.6105,-47.5731 93.4241,-34.7645 76.2074,-24.825"/>
<polygon fill="#191970" stroke="#191970" points="77.6413,-21.6114 67.2309,-19.6427 74.1414,-27.6737 77.6413,-21.6114"/>
</g>
<!-- Node9 -->
<g id="node10" class="node">
<title>Node9</title>
<polygon fill="#ffffff" stroke="#bfbfbf" points="573.5284,-.5 573.5284,-19.5 625.5284,-19.5 625.5284,-.5 573.5284,-.5"/>
<text text-anchor="middle" x="599.5284" y="-7.5" font-family="Helvetica,sans-Serif" font-size="10.00" fill="#000000">stdint.h</text>
</g>
<!-- Node8&#45;&gt;Node9 -->
<g id="edge9" class="edge">
<title>Node8&#45;&gt;Node9</title>
<path fill="none" stroke="#191970" d="M189.2213,-57.489C192.3648,-56.9503 195.4933,-56.4462 198.5284,-56 359.8043,-32.2904 403.2895,-49.9256 563.5284,-20 563.6281,-19.9814 563.7278,-19.9626 563.8277,-19.9437"/>
<polygon fill="#191970" stroke="#191970" points="564.2968,-23.4247 573.3052,-17.848 562.7853,-16.5898 564.2968,-23.4247"/>
</g>
<!-- Node10 -->
<g id="node11" class="node">
<title>Node10</title>
<polygon fill="#ffffff" stroke="#bfbfbf" points="213.5284,-.5 213.5284,-19.5 263.5284,-19.5 263.5284,-.5 213.5284,-.5"/>
<text text-anchor="middle" x="238.5284" y="-7.5" font-family="Helvetica,sans-Serif" font-size="10.00" fill="#000000">limits.h</text>
</g>
<!-- Node8&#45;&gt;Node10 -->
<g id="edge10" class="edge">
<title>Node8&#45;&gt;Node10</title>
<path fill="none" stroke="#191970" d="M163.3794,-56.2455C177.3416,-47.6534 197.9012,-35.0014 213.988,-25.1018"/>
<polygon fill="#191970" stroke="#191970" points="216.1769,-27.8645 222.8591,-19.6427 212.5081,-21.9029 216.1769,-27.8645"/>
</g>
<!-- Node11 -->
<g id="node12" class="node">
<title>Node11</title>
<polygon fill="#ffffff" stroke="#bfbfbf" points="109.0284,-.5 109.0284,-19.5 186.0284,-19.5 186.0284,-.5 109.0284,-.5"/>
<text text-anchor="middle" x="147.5284" y="-7.5" font-family="Helvetica,sans-Serif" font-size="10.00" fill="#000000">periph_cpu.h</text>
</g>
<!-- Node8&#45;&gt;Node11 -->
<g id="edge11" class="edge">
<title>Node8&#45;&gt;Node11</title>
<path fill="none" stroke="#191970" d="M147.5284,-56.2455C147.5284,-48.9382 147.5284,-38.6944 147.5284,-29.7046"/>
<polygon fill="#191970" stroke="#191970" points="151.0285,-29.6426 147.5284,-19.6427 144.0285,-29.6427 151.0285,-29.6426"/>
</g>
<!-- Node12&#45;&gt;Node4 -->
<g id="edge17" class="edge">
<title>Node12&#45;&gt;Node4</title>
<path fill="none" stroke="#191970" d="M213.6629,-56.3733C180.4794,-46.9404 129.7734,-32.5265 93.7091,-22.2747"/>
<polygon fill="#191970" stroke="#191970" points="94.528,-18.8689 83.952,-19.5011 92.6139,-25.6021 94.528,-18.8689"/>
</g>
<!-- Node12&#45;&gt;Node10 -->
<g id="edge14" class="edge">
<title>Node12&#45;&gt;Node10</title>
<path fill="none" stroke="#191970" d="M245.9608,-56.2455C244.7864,-48.9382 243.14,-38.6944 241.6953,-29.7046"/>
<polygon fill="#191970" stroke="#191970" points="245.1207,-28.9606 240.0782,-19.6427 238.2094,-30.0714 245.1207,-28.9606"/>
</g>
<!-- Node12&#45;&gt;Node11 -->
<g id="edge16" class="edge">
<title>Node12&#45;&gt;Node11</title>
<path fill="none" stroke="#191970" d="M230.1098,-56.2455C214.4799,-47.4928 191.3266,-34.527 173.5099,-24.5496"/>
<polygon fill="#191970" stroke="#191970" points="175.1827,-21.475 164.7475,-19.6427 171.7624,-27.5825 175.1827,-21.475"/>
</g>
<!-- Node13 -->
<g id="node14" class="node">
<title>Node13</title>
<polygon fill="#ffffff" stroke="#bfbfbf" points="285.5284,-.5 285.5284,-19.5 345.5284,-19.5 345.5284,-.5 285.5284,-.5"/>
<text text-anchor="middle" x="315.5284" y="-7.5" font-family="Helvetica,sans-Serif" font-size="10.00" fill="#000000">stdbool.h</text>
</g>
<!-- Node12&#45;&gt;Node13 -->
<g id="edge15" class="edge">
<title>Node12&#45;&gt;Node13</title>
<path fill="none" stroke="#191970" d="M259.3731,-56.2455C269.4164,-47.9746 284.0279,-35.9416 295.8288,-26.2232"/>
<polygon fill="#191970" stroke="#191970" points="298.3251,-28.7015 303.8195,-19.6427 293.8752,-23.298 298.3251,-28.7015"/>
</g>
<!-- Node15 -->
<g id="node16" class="node">
<title>Node15</title>
<g id="a_node16"><a xlink:href="gpio__ll_8h.html" target="_top" xlink:title="Peripheral GPIO Low&#45;Level API. ">
<polygon fill="#ffffff" stroke="#000000" points="382.0284,-112.5 382.0284,-131.5 471.0284,-131.5 471.0284,-112.5 382.0284,-112.5"/>
<text text-anchor="middle" x="426.5284" y="-119.5" font-family="Helvetica,sans-Serif" font-size="10.00" fill="#000000">periph/gpio_ll.h</text>
</a>
</g>
</g>
<!-- Node14&#45;&gt;Node15 -->
<g id="edge19" class="edge">
<title>Node14&#45;&gt;Node15</title>
<path fill="none" stroke="#191970" d="M429.2727,-224.4509C428.7834,-206.184 427.7058,-165.9553 427.0561,-141.6976"/>
<polygon fill="#191970" stroke="#191970" points="430.5502,-141.4276 426.7836,-131.5249 423.5527,-141.6151 430.5502,-141.4276"/>
</g>
<!-- Node21 -->
<g id="node22" class="node">
<title>Node21</title>
<g id="a_node22"><a xlink:href="kernel__defines_8h.html" target="_top" xlink:title="Common macros and compiler attributes/pragmas configuration. ">
<polygon fill="#ffffff" stroke="#000000" points="593.0284,-168.5 593.0284,-187.5 688.0284,-187.5 688.0284,-168.5 593.0284,-168.5"/>
<text text-anchor="middle" x="640.5284" y="-175.5" font-family="Helvetica,sans-Serif" font-size="10.00" fill="#000000">kernel_defines.h</text>
</a>
</g>
</g>
<!-- Node14&#45;&gt;Node21 -->
<g id="edge32" class="edge">
<title>Node14&#45;&gt;Node21</title>
<path fill="none" stroke="#191970" d="M465.8006,-224.3733C501.4943,-214.9001 556.1163,-200.4032 594.7735,-190.1435"/>
<polygon fill="#191970" stroke="#191970" points="595.962,-193.4493 604.7296,-187.5011 594.1663,-186.6835 595.962,-193.4493"/>
</g>
<!-- Node15&#45;&gt;Node9 -->
<g id="edge23" class="edge">
<title>Node15&#45;&gt;Node9</title>
<path fill="none" stroke="#191970" d="M470.784,-112.4244C508.0177,-103.5982 557.5192,-89.8112 572.5284,-76 585.7409,-63.8422 592.6487,-44.2769 596.1547,-29.5993"/>
<polygon fill="#191970" stroke="#191970" points="599.639,-30.0311 598.2208,-19.5316 592.7819,-28.6239 599.639,-30.0311"/>
</g>
<!-- Node15&#45;&gt;Node11 -->
<g id="edge30" class="edge">
<title>Node15&#45;&gt;Node11</title>
<path fill="none" stroke="#191970" d="M409.7189,-112.2928C385.3505,-98.4941 338.5261,-72.9994 296.5284,-56 263.0473,-42.4478 223.9943,-30.5273 194.2711,-22.2187"/>
<polygon fill="#191970" stroke="#191970" points="195.1409,-18.828 184.5702,-19.5423 193.2792,-25.5759 195.1409,-18.828"/>
</g>
<!-- Node15&#45;&gt;Node12 -->
<g id="edge29" class="edge">
<title>Node15&#45;&gt;Node12</title>
<path fill="none" stroke="#191970" d="M395.7572,-112.3733C365.8634,-103.021 320.3192,-88.7725 287.6067,-78.5385"/>
<polygon fill="#191970" stroke="#191970" points="288.487,-75.1466 277.8981,-75.5011 286.3969,-81.8273 288.487,-75.1466"/>
</g>
<!-- Node15&#45;&gt;Node13 -->
<g id="edge22" class="edge">
<title>Node15&#45;&gt;Node13</title>
<path fill="none" stroke="#191970" d="M414.0505,-112.2767C402.7927,-103.2967 385.9847,-89.3652 372.5284,-76 357.0198,-60.5963 340.8746,-41.5752 329.7435,-27.9161"/>
<polygon fill="#191970" stroke="#191970" points="332.2091,-25.3977 323.2099,-19.8063 326.7581,-29.7893 332.2091,-25.3977"/>
</g>
<!-- Node16 -->
<g id="node17" class="node">
<title>Node16</title>
<g id="a_node17"><a xlink:href="assert_8h.html" target="_top" xlink:title="POSIX.1&#45;2008 compliant version of the assert macro. ">
<polygon fill="#ffffff" stroke="#000000" points="619.5284,-56.5 619.5284,-75.5 673.5284,-75.5 673.5284,-56.5 619.5284,-56.5"/>
<text text-anchor="middle" x="646.5284" y="-63.5" font-family="Helvetica,sans-Serif" font-size="10.00" fill="#000000">assert.h</text>
</a>
</g>
</g>
<!-- Node15&#45;&gt;Node16 -->
<g id="edge20" class="edge">
<title>Node15&#45;&gt;Node16</title>
<path fill="none" stroke="#191970" d="M464.3478,-112.3733C505.0067,-102.0237 569.2218,-85.6781 609.5516,-75.4123"/>
<polygon fill="#191970" stroke="#191970" points="610.4339,-78.7994 619.2615,-72.9407 608.7071,-72.0157 610.4339,-78.7994"/>
</g>
<!-- Node17 -->
<g id="node18" class="node">
<title>Node17</title>
<g id="a_node18"><a xlink:href="architecture_8h.html" target="_top" xlink:title="Platform&#45;independent access to architecture details. ">
<polygon fill="#ffffff" stroke="#000000" points="382.0284,-56.5 382.0284,-75.5 465.0284,-75.5 465.0284,-56.5 382.0284,-56.5"/>
<text text-anchor="middle" x="423.5284" y="-63.5" font-family="Helvetica,sans-Serif" font-size="10.00" fill="#000000">architecture.h</text>
</a>
</g>
</g>
<!-- Node15&#45;&gt;Node17 -->
<g id="edge24" class="edge">
<title>Node15&#45;&gt;Node17</title>
<path fill="none" stroke="#191970" d="M426.0059,-112.2455C425.6144,-104.9382 425.0656,-94.6944 424.584,-85.7046"/>
<polygon fill="#191970" stroke="#191970" points="428.075,-85.4411 424.045,-75.6427 421.0851,-85.8156 428.075,-85.4411"/>
</g>
<!-- Node20 -->
<g id="node21" class="node">
<title>Node20</title>
<polygon fill="#ffffff" stroke="#bfbfbf" points="483.5284,-56.5 483.5284,-75.5 563.5284,-75.5 563.5284,-56.5 483.5284,-56.5"/>
<text text-anchor="middle" x="523.5284" y="-63.5" font-family="Helvetica,sans-Serif" font-size="10.00" fill="#000000">gpio_ll_arch.h</text>
</g>
<!-- Node15&#45;&gt;Node20 -->
<g id="edge31" class="edge">
<title>Node15&#45;&gt;Node20</title>
<path fill="none" stroke="#191970" d="M443.4246,-112.2455C458.4464,-103.5731 480.6328,-90.7645 497.8495,-80.825"/>
<polygon fill="#191970" stroke="#191970" points="499.9155,-83.6737 506.826,-75.6427 496.4156,-77.6114 499.9155,-83.6737"/>
</g>
<!-- Node16&#45;&gt;Node9 -->
<g id="edge21" class="edge">
<title>Node16&#45;&gt;Node9</title>
<path fill="none" stroke="#191970" d="M638.3417,-56.2455C631.6696,-48.2958 622.0805,-36.8706 614.1031,-27.3656"/>
<polygon fill="#191970" stroke="#191970" points="616.7311,-25.0524 607.6214,-19.6427 611.3692,-29.5525 616.7311,-25.0524"/>
</g>
<!-- Node17&#45;&gt;Node9 -->
<g id="edge25" class="edge">
<title>Node17&#45;&gt;Node9</title>
<path fill="none" stroke="#191970" d="M453.7839,-56.3733C484.3346,-46.6526 531.5097,-31.6423 563.8626,-21.3482"/>
<polygon fill="#191970" stroke="#191970" points="564.9245,-24.6833 573.3925,-18.316 562.802,-18.0129 564.9245,-24.6833"/>
</g>
<!-- Node17&#45;&gt;Node10 -->
<g id="edge27" class="edge">
<title>Node17&#45;&gt;Node10</title>
<path fill="none" stroke="#191970" d="M391.7258,-56.3733C358.8638,-46.4259 307.7028,-30.9393 273.6644,-20.6358"/>
<polygon fill="#191970" stroke="#191970" points="274.2749,-17.1638 263.6897,-17.6164 272.2468,-23.8636 274.2749,-17.1638"/>
</g>
<!-- Node18 -->
<g id="node19" class="node">
<title>Node18</title>
<g id="a_node19"><a xlink:href="inttypes_8h.html" target="_top" xlink:title="Adds include for missing inttype definitions. ">
<polygon fill="#ffffff" stroke="#000000" points="366.0284,-.5 366.0284,-19.5 429.0284,-19.5 429.0284,-.5 366.0284,-.5"/>
<text text-anchor="middle" x="397.5284" y="-7.5" font-family="Helvetica,sans-Serif" font-size="10.00" fill="#000000">inttypes.h</text>
</a>
</g>
</g>
<!-- Node17&#45;&gt;Node18 -->
<g id="edge26" class="edge">
<title>Node17&#45;&gt;Node18</title>
<path fill="none" stroke="#191970" d="M418.9996,-56.2455C415.4951,-48.6973 410.5358,-38.0158 406.2662,-28.8197"/>
<polygon fill="#191970" stroke="#191970" points="409.3911,-27.2389 402.0054,-19.6427 403.042,-30.1867 409.3911,-27.2389"/>
</g>
<!-- Node19 -->
<g id="node20" class="node">
<title>Node19</title>
<polygon fill="#ffffff" stroke="#bfbfbf" points="447.0284,-.5 447.0284,-19.5 554.0284,-19.5 554.0284,-.5 447.0284,-.5"/>
<text text-anchor="middle" x="500.5284" y="-7.5" font-family="Helvetica,sans-Serif" font-size="10.00" fill="#000000">architecture_arch.h</text>
</g>
<!-- Node17&#45;&gt;Node19 -->
<g id="edge28" class="edge">
<title>Node17&#45;&gt;Node19</title>
<path fill="none" stroke="#191970" d="M436.9408,-56.2455C448.5342,-47.814 465.5032,-35.4729 478.9963,-25.6598"/>
<polygon fill="#191970" stroke="#191970" points="481.241,-28.355 487.2698,-19.6427 477.1238,-22.6938 481.241,-28.355"/>
</g>
<!-- Node22 -->
<g id="node23" class="node">
<title>Node22</title>
<g id="a_node23"><a xlink:href="modules_8h.html" target="_top" xlink:title="Common macros and compiler attributes/pragmas configuration. ">
<polygon fill="#ffffff" stroke="#000000" points="511.0284,-112.5 511.0284,-131.5 576.0284,-131.5 576.0284,-112.5 511.0284,-112.5"/>
<text text-anchor="middle" x="543.5284" y="-119.5" font-family="Helvetica,sans-Serif" font-size="10.00" fill="#000000">modules.h</text>
</a>
</g>
</g>
<!-- Node21&#45;&gt;Node22 -->
<g id="edge33" class="edge">
<title>Node21&#45;&gt;Node22</title>
<path fill="none" stroke="#191970" d="M623.6323,-168.2455C608.6105,-159.5731 586.4241,-146.7645 569.2074,-136.825"/>
<polygon fill="#191970" stroke="#191970" points="570.6413,-133.6114 560.2309,-131.6427 567.1414,-139.6737 570.6413,-133.6114"/>
</g>
<!-- Node23 -->
<g id="node24" class="node">
<title>Node23</title>
<g id="a_node24"><a xlink:href="riot__version_8h.html" target="_top" xlink:title="Common macros and compiler attributes/pragmas configuration. ">
<polygon fill="#ffffff" stroke="#000000" points="705.0284,-112.5 705.0284,-131.5 786.0284,-131.5 786.0284,-112.5 705.0284,-112.5"/>
<text text-anchor="middle" x="745.5284" y="-119.5" font-family="Helvetica,sans-Serif" font-size="10.00" fill="#000000">riot_version.h</text>
</a>
</g>
</g>
<!-- Node21&#45;&gt;Node23 -->
<g id="edge34" class="edge">
<title>Node21&#45;&gt;Node23</title>
<path fill="none" stroke="#191970" d="M658.818,-168.2455C675.3047,-159.4527 699.7636,-146.4079 718.505,-136.4125"/>
<polygon fill="#191970" stroke="#191970" points="720.272,-139.4368 727.4484,-131.6427 716.9778,-133.2604 720.272,-139.4368"/>
</g>
<!-- Node24 -->
<g id="node25" class="node">
<title>Node24</title>
<g id="a_node25"><a xlink:href="compiler__hints_8h.html" target="_top" xlink:title="Common macros and compiler attributes/pragmas configuration. ">
<polygon fill="#ffffff" stroke="#000000" points="594.0284,-112.5 594.0284,-131.5 687.0284,-131.5 687.0284,-112.5 594.0284,-112.5"/>
<text text-anchor="middle" x="640.5284" y="-119.5" font-family="Helvetica,sans-Serif" font-size="10.00" fill="#000000">compiler_hints.h</text>
</a>
</g>
</g>
<!-- Node21&#45;&gt;Node24 -->
<g id="edge36" class="edge">
<title>Node21&#45;&gt;Node24</title>
<path fill="none" stroke="#191970" d="M640.5284,-168.2455C640.5284,-160.9382 640.5284,-150.6944 640.5284,-141.7046"/>
<polygon fill="#191970" stroke="#191970" points="644.0285,-141.6426 640.5284,-131.6427 637.0285,-141.6427 644.0285,-141.6426"/>
</g>
<!-- Node25 -->
<g id="node26" class="node">
<title>Node25</title>
<g id="a_node26"><a xlink:href="container_8h.html" target="_top" xlink:title="Common macros and compiler attributes/pragmas configuration. ">
<polygon fill="#ffffff" stroke="#000000" points="804.0284,-112.5 804.0284,-131.5 873.0284,-131.5 873.0284,-112.5 804.0284,-112.5"/>
<text text-anchor="middle" x="838.5284" y="-119.5" font-family="Helvetica,sans-Serif" font-size="10.00" fill="#000000">container.h</text>
</a>
</g>
</g>
<!-- Node21&#45;&gt;Node25 -->
<g id="edge39" class="edge">
<title>Node21&#45;&gt;Node25</title>
<path fill="none" stroke="#191970" d="M674.5659,-168.3733C707.9178,-158.9404 758.8812,-144.5265 795.1286,-134.2747"/>
<polygon fill="#191970" stroke="#191970" points="796.2652,-137.5906 804.9352,-131.5011 794.3601,-130.8548 796.2652,-137.5906"/>
</g>
<!-- Node23&#45;&gt;Node9 -->
<g id="edge35" class="edge">
<title>Node23&#45;&gt;Node9</title>
<path fill="none" stroke="#191970" d="M740.5476,-112.2975C732.9332,-98.273 717.1904,-72.2419 697.5284,-56 687.0215,-47.3206 656.9701,-33.7132 632.8892,-23.5462"/>
<polygon fill="#191970" stroke="#191970" points="633.919,-20.1835 623.3424,-19.5617 631.2228,-26.6434 633.919,-20.1835"/>
</g>
<!-- Node24&#45;&gt;Node9 -->
<g id="edge38" class="edge">
<title>Node24&#45;&gt;Node9</title>
<path fill="none" stroke="#191970" d="M654.3875,-112.2906C670.8097,-99.5346 694.5234,-76.3617 682.5284,-56 672.2274,-38.5137 652.6211,-27.2048 635.0502,-20.1771"/>
<polygon fill="#191970" stroke="#191970" points="636.1636,-16.8576 625.57,-16.7013 633.754,-23.4298 636.1636,-16.8576"/>
</g>
<!-- Node24&#45;&gt;Node16 -->
<g id="edge37" class="edge">
<title>Node24&#45;&gt;Node16</title>
<path fill="none" stroke="#191970" d="M641.5736,-112.2455C642.3565,-104.9382 643.454,-94.6944 644.4172,-85.7046"/>
<polygon fill="#191970" stroke="#191970" points="647.91,-85.9587 645.4953,-75.6427 640.9498,-85.2129 647.91,-85.9587"/>
</g>
<!-- Node25&#45;&gt;Node9 -->
<g id="edge41" class="edge">
<title>Node25&#45;&gt;Node9</title>
<path fill="none" stroke="#191970" d="M840.921,-112.0716C843.7249,-97.7656 846.3897,-71.3874 832.5284,-56 806.7551,-27.3891 694.552,-16.0404 635.7633,-11.9951"/>
<polygon fill="#191970" stroke="#191970" points="635.9888,-8.5025 625.7819,-11.3433 635.5326,-15.4876 635.9888,-8.5025"/>
</g>
<!-- Node26 -->
<g id="node27" class="node">
<title>Node26</title>
<polygon fill="#ffffff" stroke="#bfbfbf" points="767.5284,-56.5 767.5284,-75.5 823.5284,-75.5 823.5284,-56.5 767.5284,-56.5"/>
<text text-anchor="middle" x="795.5284" y="-63.5" font-family="Helvetica,sans-Serif" font-size="10.00" fill="#000000">stddef.h</text>
</g>
<!-- Node25&#45;&gt;Node26 -->
<g id="edge40" class="edge">
<title>Node25&#45;&gt;Node26</title>
<path fill="none" stroke="#191970" d="M831.0384,-112.2455C824.9958,-104.3761 816.3382,-93.101 809.0843,-83.6542"/>
<polygon fill="#191970" stroke="#191970" points="811.799,-81.4426 802.9326,-75.6427 806.2469,-85.7058 811.799,-81.4426"/>
</g>
<!-- Node27&#45;&gt;Node8 -->
<g id="edge49" class="edge">
<title>Node27&#45;&gt;Node8</title>
<path fill="none" stroke="#191970" d="M124.4057,-112.2455C128.1798,-104.6973 133.5206,-94.0158 138.1186,-84.8197"/>
<polygon fill="#191970" stroke="#191970" points="141.3654,-86.1522 142.7071,-75.6427 135.1044,-83.0217 141.3654,-86.1522"/>
</g>
<!-- Node27&#45;&gt;Node12 -->
<g id="edge43" class="edge">
<title>Node27&#45;&gt;Node12</title>
<path fill="none" stroke="#191970" d="M141.5324,-112.3733C162.1719,-103.3435 193.2442,-89.7494 216.4173,-79.6111"/>
<polygon fill="#191970" stroke="#191970" points="218.0529,-82.7159 225.8116,-75.5011 215.2471,-76.3028 218.0529,-82.7159"/>
</g>
<!-- Node28 -->
<g id="node29" class="node">
<title>Node28</title>
<g id="a_node29"><a xlink:href="adc_8h.html" target="_top" xlink:title="Low&#45;level ADC peripheral driver interface definitions. ">
<polygon fill="#ffffff" stroke="#000000" points="11.5284,-56.5 11.5284,-75.5 87.5284,-75.5 87.5284,-56.5 11.5284,-56.5"/>
<text text-anchor="middle" x="49.5284" y="-63.5" font-family="Helvetica,sans-Serif" font-size="10.00" fill="#000000">periph/adc.h</text>
</a>
</g>
</g>
<!-- Node27&#45;&gt;Node28 -->
<g id="edge44" class="edge">
<title>Node27&#45;&gt;Node28</title>
<path fill="none" stroke="#191970" d="M107.3354,-112.2455C96.8963,-103.8943 81.663,-91.7076 69.4545,-81.9408"/>
<polygon fill="#191970" stroke="#191970" points="71.5769,-79.1566 61.5818,-75.6427 67.204,-84.6227 71.5769,-79.1566"/>
</g>
<!-- Node28&#45;&gt;Node4 -->
<g id="edge48" class="edge">
<title>Node28&#45;&gt;Node4</title>
<path fill="none" stroke="#191970" d="M49.7026,-56.2455C49.8331,-48.9382 50.016,-38.6944 50.1766,-29.7046"/>
<polygon fill="#191970" stroke="#191970" points="53.6771,-29.7036 50.3563,-19.6427 46.6782,-29.5786 53.6771,-29.7036"/>
</g>
<!-- Node28&#45;&gt;Node9 -->
<g id="edge46" class="edge">
<title>Node28&#45;&gt;Node9</title>
<path fill="none" stroke="#191970" d="M87.6719,-57.4418C90.6603,-56.9068 93.6385,-56.4169 96.5284,-56 302.5664,-26.2736 358.4983,-56.0273 563.5284,-20 563.6283,-19.9825 563.7282,-19.9648 563.8283,-19.9469"/>
<polygon fill="#191970" stroke="#191970" points="564.2722,-23.4313 573.3172,-17.9142 562.8059,-16.5866 564.2722,-23.4313"/>
</g>
<!-- Node28&#45;&gt;Node10 -->
<g id="edge45" class="edge">
<title>Node28&#45;&gt;Node10</title>
<path fill="none" stroke="#191970" d="M82.0187,-56.3733C115.928,-46.3261 168.9091,-30.6279 203.6741,-20.3272"/>
<polygon fill="#191970" stroke="#191970" points="204.8073,-23.6419 213.401,-17.4452 202.8186,-16.9303 204.8073,-23.6419"/>
</g>
<!-- Node28&#45;&gt;Node11 -->
<g id="edge47" class="edge">
<title>Node28&#45;&gt;Node11</title>
<path fill="none" stroke="#191970" d="M66.5987,-56.2455C81.7755,-47.5731 104.1905,-34.7645 121.5847,-24.825"/>
<polygon fill="#191970" stroke="#191970" points="123.7078,-27.643 130.6538,-19.6427 120.2348,-21.5653 123.7078,-27.643"/>
</g>
</g>
</svg>
