<?xml version="1.0" encoding="UTF-8" standalone="no"?>
<!DOCTYPE svg PUBLIC "-//W3C//DTD SVG 1.1//EN"
 "http://www.w3.org/Graphics/SVG/1.1/DTD/svg11.dtd">
<!-- Generated by graphviz version 2.40.1 (0)
 -->
<!-- Title: boards/common/arduino&#45;atmega/include/arduino_iomap.h Pages: 1 -->
<svg width="874pt" height="229pt"
 viewBox="0.00 0.00 873.50 229.00" xmlns="http://www.w3.org/2000/svg" xmlns:xlink="http://www.w3.org/1999/xlink">
<g id="graph0" class="graph" transform="scale(1 1) rotate(0) translate(4 225)">
<title>boards/common/arduino&#45;atmega/include/arduino_iomap.h</title>
<polygon fill="#ffffff" stroke="transparent" points="-4,4 -4,-225 869.5,-225 869.5,4 -4,4"/>
<!-- Node0 -->
<g id="node1" class="node">
<title>Node0</title>
<polygon fill="#bfbfbf" stroke="#000000" points="337.5,-179.5 337.5,-220.5 470.5,-220.5 470.5,-179.5 337.5,-179.5"/>
<text text-anchor="start" x="345.5" y="-208.5" font-family="Helvetica,sans-Serif" font-size="10.00" fill="#000000">boards/common/arduino</text>
<text text-anchor="start" x="345.5" y="-197.5" font-family="Helvetica,sans-Serif" font-size="10.00" fill="#000000">&#45;atmega/include/arduino</text>
<text text-anchor="middle" x="404" y="-186.5" font-family="Helvetica,sans-Serif" font-size="10.00" fill="#000000">_iomap.h</text>
</g>
<!-- Node1 -->
<g id="node2" class="node">
<title>Node1</title>
<g id="a_node2"><a xlink:href="adc_8h.html" target="_top" xlink:title="Low&#45;level ADC peripheral driver interface definitions. ">
<polygon fill="#ffffff" stroke="#000000" points="270,-62 270,-81 346,-81 346,-62 270,-62"/>
<text text-anchor="middle" x="308" y="-69" font-family="Helvetica,sans-Serif" font-size="10.00" fill="#000000">periph/adc.h</text>
</a>
</g>
</g>
<!-- Node0&#45;&gt;Node1 -->
<g id="edge1" class="edge">
<title>Node0&#45;&gt;Node1</title>
<path fill="none" stroke="#191970" d="M388.5759,-179.3543C369.9648,-154.4425 338.9825,-112.9714 321.3517,-89.3717"/>
<polygon fill="#191970" stroke="#191970" points="324.0908,-87.1902 315.3018,-81.2738 318.4829,-91.3798 324.0908,-87.1902"/>
</g>
<!-- Node6 -->
<g id="node7" class="node">
<title>Node6</title>
<g id="a_node7"><a xlink:href="drivers_2include_2periph_2gpio_8h.html" target="_top" xlink:title="Low&#45;level GPIO peripheral driver interface definitions. ">
<polygon fill="#ffffff" stroke="#000000" points="364,-62 364,-81 444,-81 444,-62 364,-62"/>
<text text-anchor="middle" x="404" y="-69" font-family="Helvetica,sans-Serif" font-size="10.00" fill="#000000">periph/gpio.h</text>
</a>
</g>
</g>
<!-- Node0&#45;&gt;Node6 -->
<g id="edge6" class="edge">
<title>Node0&#45;&gt;Node6</title>
<path fill="none" stroke="#191970" d="M404,-179.3543C404,-155.101 404,-115.1521 404,-91.2799"/>
<polygon fill="#191970" stroke="#191970" points="407.5001,-91.2737 404,-81.2738 400.5001,-91.2738 407.5001,-91.2737"/>
</g>
<!-- Node8 -->
<g id="node9" class="node">
<title>Node8</title>
<g id="a_node9"><a xlink:href="i2c_8h.html" target="_top" xlink:title="Low&#45;level I2C peripheral driver interface definition. ">
<polygon fill="#ffffff" stroke="#000000" points="462.5,-62 462.5,-81 535.5,-81 535.5,-62 462.5,-62"/>
<text text-anchor="middle" x="499" y="-69" font-family="Helvetica,sans-Serif" font-size="10.00" fill="#000000">periph/i2c.h</text>
</a>
</g>
</g>
<!-- Node0&#45;&gt;Node8 -->
<g id="edge11" class="edge">
<title>Node0&#45;&gt;Node8</title>
<path fill="none" stroke="#191970" d="M419.2634,-179.3543C437.6806,-154.4425 468.3402,-112.9714 485.7874,-89.3717"/>
<polygon fill="#191970" stroke="#191970" points="488.6438,-91.3956 491.7743,-81.2738 483.015,-87.2342 488.6438,-91.3956"/>
</g>
<!-- Node10 -->
<g id="node11" class="node">
<title>Node10</title>
<g id="a_node11"><a xlink:href="pwm_8h.html" target="_top" xlink:title="Low&#45;level PWM peripheral driver interface definitions. ">
<polygon fill="#ffffff" stroke="#000000" points="168.5,-62 168.5,-81 251.5,-81 251.5,-62 168.5,-62"/>
<text text-anchor="middle" x="210" y="-69" font-family="Helvetica,sans-Serif" font-size="10.00" fill="#000000">periph/pwm.h</text>
</a>
</g>
</g>
<!-- Node0&#45;&gt;Node10 -->
<g id="edge17" class="edge">
<title>Node0&#45;&gt;Node10</title>
<path fill="none" stroke="#191970" d="M372.8305,-179.3543C333.8951,-153.5645 268.1664,-110.0278 233.3173,-86.9447"/>
<polygon fill="#191970" stroke="#191970" points="235.0255,-83.878 224.7557,-81.2738 231.16,-89.7139 235.0255,-83.878"/>
</g>
<!-- Node11 -->
<g id="node12" class="node">
<title>Node11</title>
<g id="a_node12"><a xlink:href="spi_8h.html" target="_top" xlink:title="Low&#45;level SPI peripheral driver interface definition. ">
<polygon fill="#ffffff" stroke="#000000" points="682.5,-123.5 682.5,-142.5 755.5,-142.5 755.5,-123.5 682.5,-123.5"/>
<text text-anchor="middle" x="719" y="-130.5" font-family="Helvetica,sans-Serif" font-size="10.00" fill="#000000">periph/spi.h</text>
</a>
</g>
</g>
<!-- Node0&#45;&gt;Node11 -->
<g id="edge22" class="edge">
<title>Node0&#45;&gt;Node11</title>
<path fill="none" stroke="#191970" d="M470.8034,-185.791C531.3727,-172.908 619.0886,-154.251 672.3969,-142.9124"/>
<polygon fill="#191970" stroke="#191970" points="673.2057,-146.3188 682.2587,-140.8148 671.7493,-139.4719 673.2057,-146.3188"/>
</g>
<!-- Node14 -->
<g id="node15" class="node">
<title>Node14</title>
<g id="a_node15"><a xlink:href="drivers_2include_2periph_2uart_8h.html" target="_top" xlink:title="Low&#45;level UART peripheral driver interface definition. ">
<polygon fill="#ffffff" stroke="#000000" points="554,-62 554,-81 634,-81 634,-62 554,-62"/>
<text text-anchor="middle" x="594" y="-69" font-family="Helvetica,sans-Serif" font-size="10.00" fill="#000000">periph/uart.h</text>
</a>
</g>
</g>
<!-- Node0&#45;&gt;Node14 -->
<g id="edge32" class="edge">
<title>Node0&#45;&gt;Node14</title>
<path fill="none" stroke="#191970" d="M434.5268,-179.3543C472.6594,-153.5645 537.0329,-110.0278 571.1634,-86.9447"/>
<polygon fill="#191970" stroke="#191970" points="573.2259,-89.7752 579.5485,-81.2738 569.3043,-83.9768 573.2259,-89.7752"/>
</g>
<!-- Node15 -->
<g id="node16" class="node">
<title>Node15</title>
<g id="a_node16"><a xlink:href="boards_2common_2arduino-atmega_2include_2periph__conf_8h.html" target="_top" xlink:title="Common configuration of MCU periphery for Arduino Atmega boards. ">
<polygon fill="#ffffff" stroke="#000000" points="41.5,-123.5 41.5,-142.5 122.5,-142.5 122.5,-123.5 41.5,-123.5"/>
<text text-anchor="middle" x="82" y="-130.5" font-family="Helvetica,sans-Serif" font-size="10.00" fill="#000000">periph_conf.h</text>
</a>
</g>
</g>
<!-- Node0&#45;&gt;Node15 -->
<g id="edge39" class="edge">
<title>Node0&#45;&gt;Node15</title>
<path fill="none" stroke="#191970" d="M337.2814,-186.1176C276.412,-173.4522 187.7822,-155.0106 132.5767,-143.5237"/>
<polygon fill="#191970" stroke="#191970" points="133.1752,-140.0734 122.6719,-141.4628 131.7492,-146.9266 133.1752,-140.0734"/>
</g>
<!-- Node2 -->
<g id="node3" class="node">
<title>Node2</title>
<polygon fill="#ffffff" stroke="#bfbfbf" points="372,-.5 372,-19.5 422,-19.5 422,-.5 372,-.5"/>
<text text-anchor="middle" x="397" y="-7.5" font-family="Helvetica,sans-Serif" font-size="10.00" fill="#000000">limits.h</text>
</g>
<!-- Node1&#45;&gt;Node2 -->
<g id="edge2" class="edge">
<title>Node1&#45;&gt;Node2</title>
<path fill="none" stroke="#191970" d="M321.9063,-61.8906C336.0138,-52.1421 358.0724,-36.8994 374.6385,-25.4521"/>
<polygon fill="#191970" stroke="#191970" points="376.9542,-28.1063 383.1914,-19.5419 372.9747,-22.3474 376.9542,-28.1063"/>
</g>
<!-- Node3 -->
<g id="node4" class="node">
<title>Node3</title>
<polygon fill="#ffffff" stroke="#bfbfbf" points="540,-.5 540,-19.5 592,-19.5 592,-.5 540,-.5"/>
<text text-anchor="middle" x="566" y="-7.5" font-family="Helvetica,sans-Serif" font-size="10.00" fill="#000000">stdint.h</text>
</g>
<!-- Node1&#45;&gt;Node3 -->
<g id="edge3" class="edge">
<title>Node1&#45;&gt;Node3</title>
<path fill="none" stroke="#191970" d="M335.1762,-61.9403C341.6308,-59.8363 348.5238,-57.7239 355,-56 429.1412,-36.2642 451.6985,-38.7428 529.8685,-20.1296"/>
<polygon fill="#191970" stroke="#191970" points="530.7892,-23.5079 539.6843,-17.7523 529.1414,-16.7046 530.7892,-23.5079"/>
</g>
<!-- Node4 -->
<g id="node5" class="node">
<title>Node4</title>
<polygon fill="#ffffff" stroke="#bfbfbf" points="269.5,-.5 269.5,-19.5 346.5,-19.5 346.5,-.5 269.5,-.5"/>
<text text-anchor="middle" x="308" y="-7.5" font-family="Helvetica,sans-Serif" font-size="10.00" fill="#000000">periph_cpu.h</text>
</g>
<!-- Node1&#45;&gt;Node4 -->
<g id="edge4" class="edge">
<title>Node1&#45;&gt;Node4</title>
<path fill="none" stroke="#191970" d="M308,-61.8906C308,-53.3657 308,-40.6392 308,-29.9235"/>
<polygon fill="#191970" stroke="#191970" points="311.5001,-29.7448 308,-19.7449 304.5001,-29.7449 311.5001,-29.7448"/>
</g>
<!-- Node5 -->
<g id="node6" class="node">
<title>Node5</title>
<polygon fill="#ffffff" stroke="#bfbfbf" points="440.5,-.5 440.5,-19.5 521.5,-19.5 521.5,-.5 440.5,-.5"/>
<text text-anchor="middle" x="481" y="-7.5" font-family="Helvetica,sans-Serif" font-size="10.00" fill="#000000">periph_conf.h</text>
</g>
<!-- Node1&#45;&gt;Node5 -->
<g id="edge5" class="edge">
<title>Node1&#45;&gt;Node5</title>
<path fill="none" stroke="#191970" d="M335.0313,-61.8906C364.4851,-51.42 411.7689,-34.6111 444.5027,-22.9745"/>
<polygon fill="#191970" stroke="#191970" points="445.9086,-26.1893 454.1586,-19.5419 443.5639,-19.5937 445.9086,-26.1893"/>
</g>
<!-- Node6&#45;&gt;Node2 -->
<g id="edge7" class="edge">
<title>Node6&#45;&gt;Node2</title>
<path fill="none" stroke="#191970" d="M402.9063,-61.8906C401.9359,-53.3657 400.4874,-40.6392 399.2677,-29.9235"/>
<polygon fill="#191970" stroke="#191970" points="402.7177,-29.2849 398.1092,-19.7449 395.7626,-30.0766 402.7177,-29.2849"/>
</g>
<!-- Node6&#45;&gt;Node4 -->
<g id="edge9" class="edge">
<title>Node6&#45;&gt;Node4</title>
<path fill="none" stroke="#191970" d="M389,-61.8906C373.6419,-52.0519 349.5479,-36.6167 331.6255,-25.1351"/>
<polygon fill="#191970" stroke="#191970" points="333.203,-21.9891 322.8947,-19.5419 329.427,-27.8833 333.203,-21.9891"/>
</g>
<!-- Node6&#45;&gt;Node5 -->
<g id="edge10" class="edge">
<title>Node6&#45;&gt;Node5</title>
<path fill="none" stroke="#191970" d="M416.0313,-61.8906C428.0107,-52.3227 446.6166,-37.4621 460.8525,-26.0919"/>
<polygon fill="#191970" stroke="#191970" points="463.4239,-28.5175 469.0532,-19.5419 459.0553,-23.0479 463.4239,-28.5175"/>
</g>
<!-- Node7 -->
<g id="node8" class="node">
<title>Node7</title>
<polygon fill="#ffffff" stroke="#bfbfbf" points="610,-.5 610,-19.5 670,-19.5 670,-.5 610,-.5"/>
<text text-anchor="middle" x="640" y="-7.5" font-family="Helvetica,sans-Serif" font-size="10.00" fill="#000000">stdbool.h</text>
</g>
<!-- Node6&#45;&gt;Node7 -->
<g id="edge8" class="edge">
<title>Node6&#45;&gt;Node7</title>
<path fill="none" stroke="#191970" d="M433.7894,-61.9419C440.4203,-59.9048 447.4316,-57.8206 454,-56 515.7817,-38.8756 534.0615,-36.5469 599.7309,-20.2879"/>
<polygon fill="#191970" stroke="#191970" points="600.9179,-23.5992 609.7745,-17.7845 599.2249,-16.807 600.9179,-23.5992"/>
</g>
<!-- Node8&#45;&gt;Node2 -->
<g id="edge14" class="edge">
<title>Node8&#45;&gt;Node2</title>
<path fill="none" stroke="#191970" d="M483.0625,-61.8906C466.5949,-51.9616 440.6742,-36.333 421.5796,-24.8201"/>
<polygon fill="#191970" stroke="#191970" points="423.1966,-21.7081 412.8256,-19.5419 419.5822,-27.7027 423.1966,-21.7081"/>
</g>
<!-- Node8&#45;&gt;Node3 -->
<g id="edge12" class="edge">
<title>Node8&#45;&gt;Node3</title>
<path fill="none" stroke="#191970" d="M509.4688,-61.8906C519.7337,-52.4683 535.5903,-37.9134 547.9006,-26.6137"/>
<polygon fill="#191970" stroke="#191970" points="550.3834,-29.0856 555.3837,-19.7449 545.6499,-23.9287 550.3834,-29.0856"/>
</g>
<!-- Node8&#45;&gt;Node4 -->
<g id="edge16" class="edge">
<title>Node8&#45;&gt;Node4</title>
<path fill="none" stroke="#191970" d="M470.807,-61.9118C464.9288,-59.9375 458.767,-57.8862 453,-56 417.7471,-44.4698 377.5343,-31.7463 348.4133,-22.609"/>
<polygon fill="#191970" stroke="#191970" points="349.1908,-19.1848 338.6017,-19.5343 347.0976,-25.8646 349.1908,-19.1848"/>
</g>
<!-- Node8&#45;&gt;Node5 -->
<g id="edge15" class="edge">
<title>Node8&#45;&gt;Node5</title>
<path fill="none" stroke="#191970" d="M496.1875,-61.8906C493.6661,-53.276 489.889,-40.3708 486.7324,-29.5858"/>
<polygon fill="#191970" stroke="#191970" points="490.0203,-28.3591 483.8522,-19.7449 483.3021,-30.3254 490.0203,-28.3591"/>
</g>
<!-- Node9 -->
<g id="node10" class="node">
<title>Node9</title>
<polygon fill="#ffffff" stroke="#bfbfbf" points="688,-.5 688,-19.5 744,-19.5 744,-.5 688,-.5"/>
<text text-anchor="middle" x="716" y="-7.5" font-family="Helvetica,sans-Serif" font-size="10.00" fill="#000000">stddef.h</text>
</g>
<!-- Node8&#45;&gt;Node9 -->
<g id="edge13" class="edge">
<title>Node8&#45;&gt;Node9</title>
<path fill="none" stroke="#191970" d="M526.6403,-61.8744C532.6691,-59.8624 539.0309,-57.8056 545,-56 601.0287,-39.0522 617.7769,-36.2988 677.7161,-20.3288"/>
<polygon fill="#191970" stroke="#191970" points="678.9663,-23.6174 687.7194,-17.6481 677.1543,-16.856 678.9663,-23.6174"/>
</g>
<!-- Node10&#45;&gt;Node2 -->
<g id="edge19" class="edge">
<title>Node10&#45;&gt;Node2</title>
<path fill="none" stroke="#191970" d="M239.2188,-61.8906C272.4088,-50.9752 326.5441,-33.1713 361.9712,-21.5202"/>
<polygon fill="#191970" stroke="#191970" points="363.4715,-24.7113 371.8774,-18.2622 361.2845,-18.0616 363.4715,-24.7113"/>
</g>
<!-- Node10&#45;&gt;Node3 -->
<g id="edge18" class="edge">
<title>Node10&#45;&gt;Node3</title>
<path fill="none" stroke="#191970" d="M238.3769,-61.9835C245.6869,-59.779 253.5844,-57.6101 261,-56 376.1862,-30.9908 410.6747,-43.9642 529.8567,-19.9816"/>
<polygon fill="#191970" stroke="#191970" points="530.6397,-23.3939 539.7291,-17.9503 529.2289,-16.5375 530.6397,-23.3939"/>
</g>
<!-- Node10&#45;&gt;Node4 -->
<g id="edge20" class="edge">
<title>Node10&#45;&gt;Node4</title>
<path fill="none" stroke="#191970" d="M225.3125,-61.8906C241.0624,-52.0067 265.8123,-36.4749 284.1337,-24.9773"/>
<polygon fill="#191970" stroke="#191970" points="286.1852,-27.8221 292.795,-19.5419 282.4643,-21.8929 286.1852,-27.8221"/>
</g>
<!-- Node10&#45;&gt;Node5 -->
<g id="edge21" class="edge">
<title>Node10&#45;&gt;Node5</title>
<path fill="none" stroke="#191970" d="M239.8089,-61.9549C246.7325,-59.8732 254.0969,-57.767 261,-56 277.2145,-51.8496 370.5151,-32.6001 430.2906,-20.3549"/>
<polygon fill="#191970" stroke="#191970" points="431.212,-23.7389 440.3068,-18.3043 429.808,-16.8812 431.212,-23.7389"/>
</g>
<!-- Node11&#45;&gt;Node3 -->
<g id="edge28" class="edge">
<title>Node11&#45;&gt;Node3</title>
<path fill="none" stroke="#191970" d="M730.1094,-123.4972C746.6786,-108.1833 774.1691,-77.5824 757,-56 714.6054,-2.7079 673.5796,-34.7322 602.1425,-19.965"/>
<polygon fill="#191970" stroke="#191970" points="602.8668,-16.5401 592.3336,-17.681 601.2793,-23.3577 602.8668,-16.5401"/>
</g>
<!-- Node11&#45;&gt;Node4 -->
<g id="edge29" class="edge">
<title>Node11&#45;&gt;Node4</title>
<path fill="none" stroke="#191970" d="M682.4162,-132.7986C563.6453,-131.7687 194.443,-125.4738 159,-87 125.1047,-50.2062 203.8148,-28.1176 259.2535,-17.5682"/>
<polygon fill="#191970" stroke="#191970" points="260.0941,-20.9727 269.3019,-15.7318 258.8355,-14.0867 260.0941,-20.9727"/>
</g>
<!-- Node11&#45;&gt;Node5 -->
<g id="edge30" class="edge">
<title>Node11&#45;&gt;Node5</title>
<path fill="none" stroke="#191970" d="M712.1945,-123.3939C700.1321,-107.0797 673.3903,-73.9822 643,-56 624.1531,-44.8481 571.8901,-30.9961 531.7733,-21.4227"/>
<polygon fill="#191970" stroke="#191970" points="532.3999,-17.9746 521.8635,-19.0853 530.7929,-24.7876 532.3999,-17.9746"/>
</g>
<!-- Node11&#45;&gt;Node6 -->
<g id="edge31" class="edge">
<title>Node11&#45;&gt;Node6</title>
<path fill="none" stroke="#191970" d="M682.2597,-128.1488C630.8171,-121.0112 534.5814,-106.3987 454,-87 450.1827,-86.081 446.2298,-85.0308 442.2958,-83.9198"/>
<polygon fill="#191970" stroke="#191970" points="443.2254,-80.545 432.6438,-81.0729 441.2451,-87.259 443.2254,-80.545"/>
</g>
<!-- Node11&#45;&gt;Node7 -->
<g id="edge26" class="edge">
<title>Node11&#45;&gt;Node7</title>
<path fill="none" stroke="#191970" d="M745.601,-123.397C761.5873,-116.0839 780.5998,-104.291 790,-87 796.5807,-74.8954 798.1906,-67.0789 790,-56 786.6011,-51.4026 723.1231,-33.0447 679.8446,-20.9565"/>
<polygon fill="#191970" stroke="#191970" points="680.709,-17.5641 670.1367,-18.2552 678.8325,-24.3079 680.709,-17.5641"/>
</g>
<!-- Node11&#45;&gt;Node9 -->
<g id="edge27" class="edge">
<title>Node11&#45;&gt;Node9</title>
<path fill="none" stroke="#191970" d="M755.5336,-128.1021C780.5499,-122.637 811.9902,-111.1335 828,-87 835.6164,-75.5188 835.6716,-67.4443 828,-56 811.6434,-31.5997 779.7697,-20.1313 754.194,-14.7473"/>
<polygon fill="#191970" stroke="#191970" points="754.5111,-11.246 744.0384,-12.8505 753.2258,-18.1271 754.5111,-11.246"/>
</g>
<!-- Node12 -->
<g id="node13" class="node">
<title>Node12</title>
<g id="a_node13"><a xlink:href="endian_8h.html" target="_top" xlink:title="libc header for endian conversion ">
<polygon fill="#ffffff" stroke="#000000" points="690.5,-62 690.5,-81 747.5,-81 747.5,-62 690.5,-62"/>
<text text-anchor="middle" x="719" y="-69" font-family="Helvetica,sans-Serif" font-size="10.00" fill="#000000">endian.h</text>
</a>
</g>
</g>
<!-- Node11&#45;&gt;Node12 -->
<g id="edge23" class="edge">
<title>Node11&#45;&gt;Node12</title>
<path fill="none" stroke="#191970" d="M719,-123.3906C719,-114.8657 719,-102.1392 719,-91.4235"/>
<polygon fill="#191970" stroke="#191970" points="722.5001,-91.2448 719,-81.2449 715.5001,-91.2449 722.5001,-91.2448"/>
</g>
<!-- Node13 -->
<g id="node14" class="node">
<title>Node13</title>
<g id="a_node14"><a xlink:href="errno_8h.html" target="_top" xlink:title="errno.h">
<polygon fill="#ffffff" stroke="#000000" points="812.5,-.5 812.5,-19.5 865.5,-19.5 865.5,-.5 812.5,-.5"/>
<text text-anchor="middle" x="839" y="-7.5" font-family="Helvetica,sans-Serif" font-size="10.00" fill="#000000">errno.h</text>
</a>
</g>
</g>
<!-- Node11&#45;&gt;Node13 -->
<g id="edge25" class="edge">
<title>Node11&#45;&gt;Node13</title>
<path fill="none" stroke="#191970" d="M755.6489,-124.4438C788.6685,-115.905 833.5815,-101.9355 844,-87 855.694,-70.236 851.6724,-46.1026 846.5145,-29.3392"/>
<polygon fill="#191970" stroke="#191970" points="849.6989,-27.8395 843.1146,-19.5391 843.0856,-30.1339 849.6989,-27.8395"/>
</g>
<!-- Node12&#45;&gt;Node3 -->
<g id="edge24" class="edge">
<title>Node12&#45;&gt;Node3</title>
<path fill="none" stroke="#191970" d="M695.0938,-61.8906C669.2695,-51.5103 627.9473,-34.9004 599.0295,-23.2766"/>
<polygon fill="#191970" stroke="#191970" points="600.3222,-20.0241 589.7384,-19.5419 597.7115,-26.519 600.3222,-20.0241"/>
</g>
<!-- Node14&#45;&gt;Node2 -->
<g id="edge34" class="edge">
<title>Node14&#45;&gt;Node2</title>
<path fill="none" stroke="#191970" d="M563.9478,-61.9675C557.6876,-59.9891 551.1298,-57.9221 545,-56 506.2478,-43.8486 461.7433,-30.0353 431.7409,-20.7439"/>
<polygon fill="#191970" stroke="#191970" points="432.7392,-17.3891 422.1514,-17.7752 430.669,-24.076 432.7392,-17.3891"/>
</g>
<!-- Node14&#45;&gt;Node3 -->
<g id="edge36" class="edge">
<title>Node14&#45;&gt;Node3</title>
<path fill="none" stroke="#191970" d="M589.625,-61.8906C585.6212,-53.0965 579.5817,-39.8312 574.6115,-28.9145"/>
<polygon fill="#191970" stroke="#191970" points="577.7657,-27.3957 570.4367,-19.7449 571.3949,-30.2963 577.7657,-27.3957"/>
</g>
<!-- Node14&#45;&gt;Node4 -->
<g id="edge37" class="edge">
<title>Node14&#45;&gt;Node4</title>
<path fill="none" stroke="#191970" d="M565.6572,-61.9278C558.9284,-59.8243 551.7448,-57.7153 545,-56 527.0224,-51.428 420.575,-31.182 356.612,-19.1262"/>
<polygon fill="#191970" stroke="#191970" points="357.2062,-15.6766 346.7312,-17.2652 355.9106,-22.5557 357.2062,-15.6766"/>
</g>
<!-- Node14&#45;&gt;Node5 -->
<g id="edge38" class="edge">
<title>Node14&#45;&gt;Node5</title>
<path fill="none" stroke="#191970" d="M576.3438,-61.8906C557.8514,-51.8262 528.599,-35.9057 507.3692,-24.3514"/>
<polygon fill="#191970" stroke="#191970" points="508.9888,-21.2481 498.5323,-19.5419 505.6425,-27.3965 508.9888,-21.2481"/>
</g>
<!-- Node14&#45;&gt;Node9 -->
<g id="edge35" class="edge">
<title>Node14&#45;&gt;Node9</title>
<path fill="none" stroke="#191970" d="M613.0625,-61.8906C633.1172,-51.7811 664.8934,-35.7628 687.8384,-24.1962"/>
<polygon fill="#191970" stroke="#191970" points="689.7173,-27.1687 697.0714,-19.5419 686.5663,-20.918 689.7173,-27.1687"/>
</g>
<!-- Node14&#45;&gt;Node13 -->
<g id="edge33" class="edge">
<title>Node14&#45;&gt;Node13</title>
<path fill="none" stroke="#191970" d="M632.0124,-61.9581C678.496,-50.2898 756.6243,-30.678 802.4378,-19.1779"/>
<polygon fill="#191970" stroke="#191970" points="803.4034,-22.5441 812.2503,-16.7147 801.699,-15.7548 803.4034,-22.5441"/>
</g>
<!-- Node16 -->
<g id="node17" class="node">
<title>Node16</title>
<g id="a_node17"><a xlink:href="periph__conf__atmega__common_8h.html" target="_top" xlink:title="Common configuration of MCU periphery for ATmega boards. ">
<polygon fill="#ffffff" stroke="#000000" points="0,-56.5 0,-86.5 112,-86.5 112,-56.5 0,-56.5"/>
<text text-anchor="start" x="8" y="-74.5" font-family="Helvetica,sans-Serif" font-size="10.00" fill="#000000">periph_conf_atmega</text>
<text text-anchor="middle" x="56" y="-63.5" font-family="Helvetica,sans-Serif" font-size="10.00" fill="#000000">_common.h</text>
</a>
</g>
</g>
<!-- Node15&#45;&gt;Node16 -->
<g id="edge40" class="edge">
<title>Node15&#45;&gt;Node16</title>
<path fill="none" stroke="#191970" d="M77.9375,-123.3906C74.8097,-115.9922 70.344,-105.4291 66.2572,-95.7623"/>
<polygon fill="#191970" stroke="#191970" points="69.4781,-94.3924 62.3603,-86.5446 63.0306,-97.1182 69.4781,-94.3924"/>
</g>
<!-- Node16&#45;&gt;Node4 -->
<g id="edge41" class="edge">
<title>Node16&#45;&gt;Node4</title>
<path fill="none" stroke="#191970" d="M112.2401,-57.7747C156.4224,-46.9922 217.3153,-32.1314 259.4013,-21.8604"/>
<polygon fill="#191970" stroke="#191970" points="260.2573,-25.2543 269.1423,-19.4831 258.5976,-18.4539 260.2573,-25.2543"/>
</g>
</g>
</svg>
