<?xml version="1.0" encoding="UTF-8" standalone="no"?>
<!DOCTYPE svg PUBLIC "-//W3C//DTD SVG 1.1//EN"
 "http://www.w3.org/Graphics/SVG/1.1/DTD/svg11.dtd">
<!-- Generated by graphviz version 2.40.1 (0)
 -->
<!-- Title: boards/common/slwstk6000b/include/board.h Pages: 1 -->
<svg width="849pt" height="207pt"
 viewBox="0.00 0.00 849.00 207.00" xmlns="http://www.w3.org/2000/svg" xmlns:xlink="http://www.w3.org/1999/xlink">
<g id="graph0" class="graph" transform="scale(1 1) rotate(0) translate(4 203)">
<title>boards/common/slwstk6000b/include/board.h</title>
<polygon fill="#ffffff" stroke="transparent" points="-4,4 -4,-203 845,-203 845,4 -4,4"/>
<!-- Node0 -->
<g id="node1" class="node">
<title>Node0</title>
<polygon fill="#bfbfbf" stroke="#000000" points="291.5,-168.5 291.5,-198.5 446.5,-198.5 446.5,-168.5 291.5,-168.5"/>
<text text-anchor="start" x="299.5" y="-186.5" font-family="Helvetica,sans-Serif" font-size="10.00" fill="#000000">boards/common/slwstk6000b</text>
<text text-anchor="middle" x="369" y="-175.5" font-family="Helvetica,sans-Serif" font-size="10.00" fill="#000000">/include/board.h</text>
</g>
<!-- Node1 -->
<g id="node2" class="node">
<title>Node1</title>
<polygon fill="#ffffff" stroke="#bfbfbf" points="0,-56.5 0,-75.5 42,-75.5 42,-56.5 0,-56.5"/>
<text text-anchor="middle" x="21" y="-63.5" font-family="Helvetica,sans-Serif" font-size="10.00" fill="#000000">cpu.h</text>
</g>
<!-- Node0&#45;&gt;Node1 -->
<g id="edge1" class="edge">
<title>Node0&#45;&gt;Node1</title>
<path fill="none" stroke="#191970" d="M291.3235,-171.7181C246.2198,-163.4851 188.8414,-150.5961 140,-132 104.5263,-118.4936 66.7053,-95.9429 43.4571,-81.021"/>
<polygon fill="#191970" stroke="#191970" points="45.2989,-78.0438 35.0088,-75.521 41.4797,-83.9101 45.2989,-78.0438"/>
</g>
<!-- Node2 -->
<g id="node3" class="node">
<title>Node2</title>
<g id="a_node3"><a xlink:href="boards_2common_2slwstk6000b_2include_2periph__conf_8h.html" target="_top" xlink:title="Configuration of CPU peripherals for the SLWSTK6000B starter kit. ">
<polygon fill="#ffffff" stroke="#000000" points="149.5,-112.5 149.5,-131.5 230.5,-131.5 230.5,-112.5 149.5,-112.5"/>
<text text-anchor="middle" x="190" y="-119.5" font-family="Helvetica,sans-Serif" font-size="10.00" fill="#000000">periph_conf.h</text>
</a>
</g>
</g>
<!-- Node0&#45;&gt;Node2 -->
<g id="edge2" class="edge">
<title>Node0&#45;&gt;Node2</title>
<path fill="none" stroke="#191970" d="M325.2117,-168.4554C295.2141,-158.149 255.8513,-144.6249 227.3384,-134.8286"/>
<polygon fill="#191970" stroke="#191970" points="228.3333,-131.4696 217.7386,-131.5303 226.0587,-138.0898 228.3333,-131.4696"/>
</g>
<!-- Node6 -->
<g id="node7" class="node">
<title>Node6</title>
<g id="a_node7"><a xlink:href="adc_8h.html" target="_top" xlink:title="Low&#45;level ADC peripheral driver interface definitions. ">
<polygon fill="#ffffff" stroke="#000000" points="331,-56.5 331,-75.5 407,-75.5 407,-56.5 331,-56.5"/>
<text text-anchor="middle" x="369" y="-63.5" font-family="Helvetica,sans-Serif" font-size="10.00" fill="#000000">periph/adc.h</text>
</a>
</g>
</g>
<!-- Node0&#45;&gt;Node6 -->
<g id="edge7" class="edge">
<title>Node0&#45;&gt;Node6</title>
<path fill="none" stroke="#191970" d="M369,-168.1389C369,-146.9692 369,-108.8174 369,-85.6112"/>
<polygon fill="#191970" stroke="#191970" points="372.5001,-85.5594 369,-75.5595 365.5001,-85.5595 372.5001,-85.5594"/>
</g>
<!-- Node10 -->
<g id="node11" class="node">
<title>Node10</title>
<g id="a_node11"><a xlink:href="drivers_2include_2periph_2gpio_8h.html" target="_top" xlink:title="Low&#45;level GPIO peripheral driver interface definitions. ">
<polygon fill="#ffffff" stroke="#000000" points="425,-56.5 425,-75.5 505,-75.5 505,-56.5 425,-56.5"/>
<text text-anchor="middle" x="465" y="-63.5" font-family="Helvetica,sans-Serif" font-size="10.00" fill="#000000">periph/gpio.h</text>
</a>
</g>
</g>
<!-- Node0&#45;&gt;Node10 -->
<g id="edge12" class="edge">
<title>Node0&#45;&gt;Node10</title>
<path fill="none" stroke="#191970" d="M381.5503,-168.1389C399.3967,-146.2957 432.0149,-106.3724 450.7492,-83.4424"/>
<polygon fill="#191970" stroke="#191970" points="453.5731,-85.5179 457.1897,-75.5595 448.1523,-81.089 453.5731,-85.5179"/>
</g>
<!-- Node12 -->
<g id="node13" class="node">
<title>Node12</title>
<g id="a_node13"><a xlink:href="spi_8h.html" target="_top" xlink:title="Low&#45;level SPI peripheral driver interface definition. ">
<polygon fill="#ffffff" stroke="#000000" points="551.5,-112.5 551.5,-131.5 624.5,-131.5 624.5,-112.5 551.5,-112.5"/>
<text text-anchor="middle" x="588" y="-119.5" font-family="Helvetica,sans-Serif" font-size="10.00" fill="#000000">periph/spi.h</text>
</a>
</g>
</g>
<!-- Node0&#45;&gt;Node12 -->
<g id="edge17" class="edge">
<title>Node0&#45;&gt;Node12</title>
<path fill="none" stroke="#191970" d="M422.5734,-168.4554C459.9155,-157.9689 509.1192,-144.1515 544.1336,-134.3187"/>
<polygon fill="#191970" stroke="#191970" points="545.3815,-137.6037 554.0628,-131.5303 543.4889,-130.8644 545.3815,-137.6037"/>
</g>
<!-- Node2&#45;&gt;Node1 -->
<g id="edge3" class="edge">
<title>Node2&#45;&gt;Node1</title>
<path fill="none" stroke="#191970" d="M160.9755,-112.415C134.7736,-103.7577 94.9167,-90.5777 51.8348,-76.2731"/>
<polygon fill="#191970" stroke="#191970" points="52.8969,-72.9379 42.3034,-73.1074 50.6904,-79.5811 52.8969,-72.9379"/>
</g>
<!-- Node3 -->
<g id="node4" class="node">
<title>Node3</title>
<polygon fill="#ffffff" stroke="#bfbfbf" points="264.5,-.5 264.5,-19.5 341.5,-19.5 341.5,-.5 264.5,-.5"/>
<text text-anchor="middle" x="303" y="-7.5" font-family="Helvetica,sans-Serif" font-size="10.00" fill="#000000">periph_cpu.h</text>
</g>
<!-- Node2&#45;&gt;Node3 -->
<g id="edge4" class="edge">
<title>Node2&#45;&gt;Node3</title>
<path fill="none" stroke="#191970" d="M202.7021,-112.2878C214.1637,-103.3153 231.2801,-89.3885 245,-76 260.7619,-60.6188 277.1927,-41.5948 288.5248,-27.9289"/>
<polygon fill="#191970" stroke="#191970" points="291.5439,-29.7668 295.1771,-19.8143 286.1305,-25.3289 291.5439,-29.7668"/>
</g>
<!-- Node4 -->
<g id="node5" class="node">
<title>Node4</title>
<polygon fill="#ffffff" stroke="#bfbfbf" points="60.5,-56.5 60.5,-75.5 125.5,-75.5 125.5,-56.5 60.5,-56.5"/>
<text text-anchor="middle" x="93" y="-63.5" font-family="Helvetica,sans-Serif" font-size="10.00" fill="#000000">em_cmu.h</text>
</g>
<!-- Node2&#45;&gt;Node4 -->
<g id="edge5" class="edge">
<title>Node2&#45;&gt;Node4</title>
<path fill="none" stroke="#191970" d="M173.1039,-112.2455C158.082,-103.5731 135.8957,-90.7645 118.679,-80.825"/>
<polygon fill="#191970" stroke="#191970" points="120.1128,-77.6114 109.7025,-75.6427 116.6129,-83.6737 120.1128,-77.6114"/>
</g>
<!-- Node5 -->
<g id="node6" class="node">
<title>Node5</title>
<polygon fill="#ffffff" stroke="#bfbfbf" points="143.5,-56.5 143.5,-75.5 236.5,-75.5 236.5,-56.5 143.5,-56.5"/>
<text text-anchor="middle" x="190" y="-63.5" font-family="Helvetica,sans-Serif" font-size="10.00" fill="#000000">board_module.h</text>
</g>
<!-- Node2&#45;&gt;Node5 -->
<g id="edge6" class="edge">
<title>Node2&#45;&gt;Node5</title>
<path fill="none" stroke="#191970" d="M190,-112.2455C190,-104.9382 190,-94.6944 190,-85.7046"/>
<polygon fill="#191970" stroke="#191970" points="193.5001,-85.6426 190,-75.6427 186.5001,-85.6427 193.5001,-85.6426"/>
</g>
<!-- Node6&#45;&gt;Node3 -->
<g id="edge10" class="edge">
<title>Node6&#45;&gt;Node3</title>
<path fill="none" stroke="#191970" d="M357.5037,-56.2455C347.7558,-47.9746 333.5741,-35.9416 322.1202,-26.2232"/>
<polygon fill="#191970" stroke="#191970" points="324.2541,-23.4437 314.3646,-19.6427 319.7253,-28.7813 324.2541,-23.4437"/>
</g>
<!-- Node7 -->
<g id="node8" class="node">
<title>Node7</title>
<polygon fill="#ffffff" stroke="#bfbfbf" points="360,-.5 360,-19.5 410,-19.5 410,-.5 360,-.5"/>
<text text-anchor="middle" x="385" y="-7.5" font-family="Helvetica,sans-Serif" font-size="10.00" fill="#000000">limits.h</text>
</g>
<!-- Node6&#45;&gt;Node7 -->
<g id="edge8" class="edge">
<title>Node6&#45;&gt;Node7</title>
<path fill="none" stroke="#191970" d="M371.787,-56.2455C373.8977,-48.8579 376.866,-38.4689 379.4547,-29.4087"/>
<polygon fill="#191970" stroke="#191970" points="382.863,-30.2195 382.245,-19.6427 376.1323,-28.2964 382.863,-30.2195"/>
</g>
<!-- Node8 -->
<g id="node9" class="node">
<title>Node8</title>
<polygon fill="#ffffff" stroke="#bfbfbf" points="691,-.5 691,-19.5 743,-19.5 743,-.5 691,-.5"/>
<text text-anchor="middle" x="717" y="-7.5" font-family="Helvetica,sans-Serif" font-size="10.00" fill="#000000">stdint.h</text>
</g>
<!-- Node6&#45;&gt;Node8 -->
<g id="edge9" class="edge">
<title>Node6&#45;&gt;Node8</title>
<path fill="none" stroke="#191970" d="M407.1828,-57.6825C410.1622,-57.0927 413.1277,-56.5246 416,-56 511.0226,-38.6454 623.745,-22.6299 680.4901,-14.8833"/>
<polygon fill="#191970" stroke="#191970" points="681.3064,-18.3046 690.7443,-13.4904 680.3642,-11.3683 681.3064,-18.3046"/>
</g>
<!-- Node9 -->
<g id="node10" class="node">
<title>Node9</title>
<polygon fill="#ffffff" stroke="#bfbfbf" points="428.5,-.5 428.5,-19.5 509.5,-19.5 509.5,-.5 428.5,-.5"/>
<text text-anchor="middle" x="469" y="-7.5" font-family="Helvetica,sans-Serif" font-size="10.00" fill="#000000">periph_conf.h</text>
</g>
<!-- Node6&#45;&gt;Node9 -->
<g id="edge11" class="edge">
<title>Node6&#45;&gt;Node9</title>
<path fill="none" stroke="#191970" d="M386.4187,-56.2455C402.0485,-47.4928 425.2019,-34.527 443.0185,-24.5496"/>
<polygon fill="#191970" stroke="#191970" points="444.766,-27.5825 451.7809,-19.6427 441.3457,-21.475 444.766,-27.5825"/>
</g>
<!-- Node10&#45;&gt;Node3 -->
<g id="edge15" class="edge">
<title>Node10&#45;&gt;Node3</title>
<path fill="none" stroke="#191970" d="M437.1512,-56.3733C410.3297,-47.1016 369.5873,-33.0178 340.0402,-22.804"/>
<polygon fill="#191970" stroke="#191970" points="341.0802,-19.4603 330.4854,-19.5011 338.7931,-26.0762 341.0802,-19.4603"/>
</g>
<!-- Node10&#45;&gt;Node7 -->
<g id="edge13" class="edge">
<title>Node10&#45;&gt;Node7</title>
<path fill="none" stroke="#191970" d="M451.0651,-56.2455C438.9053,-47.7337 421.0536,-35.2375 406.9715,-25.3801"/>
<polygon fill="#191970" stroke="#191970" points="408.9747,-22.51 398.7752,-19.6427 404.9605,-28.2447 408.9747,-22.51"/>
</g>
<!-- Node10&#45;&gt;Node9 -->
<g id="edge16" class="edge">
<title>Node10&#45;&gt;Node9</title>
<path fill="none" stroke="#191970" d="M465.6967,-56.2455C466.2187,-48.9382 466.9504,-38.6944 467.5925,-29.7046"/>
<polygon fill="#191970" stroke="#191970" points="471.0898,-29.8667 468.3112,-19.6427 464.1076,-29.3679 471.0898,-29.8667"/>
</g>
<!-- Node11 -->
<g id="node12" class="node">
<title>Node11</title>
<polygon fill="#ffffff" stroke="#bfbfbf" points="781,-.5 781,-19.5 841,-19.5 841,-.5 781,-.5"/>
<text text-anchor="middle" x="811" y="-7.5" font-family="Helvetica,sans-Serif" font-size="10.00" fill="#000000">stdbool.h</text>
</g>
<!-- Node10&#45;&gt;Node11 -->
<g id="edge14" class="edge">
<title>Node10&#45;&gt;Node11</title>
<path fill="none" stroke="#191970" d="M505.4185,-59.6388C560.9944,-50.8654 664.1205,-34.4897 752,-20 758.0415,-19.0039 764.4284,-17.9364 770.6815,-16.8832"/>
<polygon fill="#191970" stroke="#191970" points="771.7175,-20.2577 780.9939,-15.1393 770.5503,-13.3557 771.7175,-20.2577"/>
</g>
<!-- Node12&#45;&gt;Node3 -->
<g id="edge24" class="edge">
<title>Node12&#45;&gt;Node3</title>
<path fill="none" stroke="#191970" d="M551.4534,-120.3733C486.6493,-116.749 355.2823,-105.8369 322,-76 309.1237,-64.4566 304.7388,-44.8095 303.3568,-29.9456"/>
<polygon fill="#191970" stroke="#191970" points="306.8387,-29.5175 302.7944,-19.7249 299.8492,-29.9021 306.8387,-29.5175"/>
</g>
<!-- Node12&#45;&gt;Node8 -->
<g id="edge23" class="edge">
<title>Node12&#45;&gt;Node8</title>
<path fill="none" stroke="#191970" d="M624.7214,-115.2196C648.7436,-108.9493 679.0723,-97.2566 698,-76 709.2622,-63.3521 713.8761,-44.4228 715.7521,-30.0753"/>
<polygon fill="#191970" stroke="#191970" points="719.2708,-30.0479 716.7444,-19.7588 712.303,-29.3777 719.2708,-30.0479"/>
</g>
<!-- Node12&#45;&gt;Node9 -->
<g id="edge25" class="edge">
<title>Node12&#45;&gt;Node9</title>
<path fill="none" stroke="#191970" d="M577.8541,-112.4509C557.5672,-93.3574 511.7866,-50.2697 486.538,-26.5063"/>
<polygon fill="#191970" stroke="#191970" points="488.801,-23.8299 479.1202,-19.5249 484.0034,-28.9273 488.801,-23.8299"/>
</g>
<!-- Node12&#45;&gt;Node10 -->
<g id="edge26" class="edge">
<title>Node12&#45;&gt;Node10</title>
<path fill="none" stroke="#191970" d="M566.8555,-112.3733C547.1108,-103.3838 517.4302,-89.8706 495.1945,-79.7471"/>
<polygon fill="#191970" stroke="#191970" points="496.42,-76.4594 485.8685,-75.5011 493.5194,-82.8302 496.42,-76.4594"/>
</g>
<!-- Node12&#45;&gt;Node11 -->
<g id="edge21" class="edge">
<title>Node12&#45;&gt;Node11</title>
<path fill="none" stroke="#191970" d="M624.7771,-119.915C682.1464,-115.8086 788.7912,-104.4592 812,-76 822.3884,-63.2615 820.8216,-44.0778 817.4353,-29.6706"/>
<polygon fill="#191970" stroke="#191970" points="820.7291,-28.4538 814.659,-19.7702 813.9891,-30.3439 820.7291,-28.4538"/>
</g>
<!-- Node13 -->
<g id="node14" class="node">
<title>Node13</title>
<g id="a_node14"><a xlink:href="endian_8h.html" target="_top" xlink:title="libc header for endian conversion ">
<polygon fill="#ffffff" stroke="#000000" points="745.5,-56.5 745.5,-75.5 802.5,-75.5 802.5,-56.5 745.5,-56.5"/>
<text text-anchor="middle" x="774" y="-63.5" font-family="Helvetica,sans-Serif" font-size="10.00" fill="#000000">endian.h</text>
</a>
</g>
</g>
<!-- Node12&#45;&gt;Node13 -->
<g id="edge18" class="edge">
<title>Node12&#45;&gt;Node13</title>
<path fill="none" stroke="#191970" d="M619.9745,-112.3733C652.1167,-102.6961 701.6709,-87.7765 735.8479,-77.4867"/>
<polygon fill="#191970" stroke="#191970" points="736.9215,-80.8187 745.4879,-74.5843 734.9034,-74.1159 736.9215,-80.8187"/>
</g>
<!-- Node14 -->
<g id="node15" class="node">
<title>Node14</title>
<g id="a_node15"><a xlink:href="errno_8h.html" target="_top" xlink:title="errno.h">
<polygon fill="#ffffff" stroke="#000000" points="561.5,-56.5 561.5,-75.5 614.5,-75.5 614.5,-56.5 561.5,-56.5"/>
<text text-anchor="middle" x="588" y="-63.5" font-family="Helvetica,sans-Serif" font-size="10.00" fill="#000000">errno.h</text>
</a>
</g>
</g>
<!-- Node12&#45;&gt;Node14 -->
<g id="edge20" class="edge">
<title>Node12&#45;&gt;Node14</title>
<path fill="none" stroke="#191970" d="M588,-112.2455C588,-104.9382 588,-94.6944 588,-85.7046"/>
<polygon fill="#191970" stroke="#191970" points="591.5001,-85.6426 588,-75.6427 584.5001,-85.6427 591.5001,-85.6426"/>
</g>
<!-- Node15 -->
<g id="node16" class="node">
<title>Node15</title>
<polygon fill="#ffffff" stroke="#bfbfbf" points="633,-56.5 633,-75.5 689,-75.5 689,-56.5 633,-56.5"/>
<text text-anchor="middle" x="661" y="-63.5" font-family="Helvetica,sans-Serif" font-size="10.00" fill="#000000">stddef.h</text>
</g>
<!-- Node12&#45;&gt;Node15 -->
<g id="edge22" class="edge">
<title>Node12&#45;&gt;Node15</title>
<path fill="none" stroke="#191970" d="M600.7156,-112.2455C611.602,-103.8943 627.4883,-91.7076 640.22,-81.9408"/>
<polygon fill="#191970" stroke="#191970" points="642.6261,-84.5063 648.4301,-75.6427 638.3654,-78.9523 642.6261,-84.5063"/>
</g>
<!-- Node13&#45;&gt;Node8 -->
<g id="edge19" class="edge">
<title>Node13&#45;&gt;Node8</title>
<path fill="none" stroke="#191970" d="M764.0714,-56.2455C755.8162,-48.1352 743.8791,-36.4075 734.0918,-26.7919"/>
<polygon fill="#191970" stroke="#191970" points="736.4011,-24.1542 726.8149,-19.6427 731.4954,-29.1476 736.4011,-24.1542"/>
</g>
</g>
</svg>
