<?xml version="1.0" encoding="UTF-8" standalone="no"?>
<!DOCTYPE svg PUBLIC "-//W3C//DTD SVG 1.1//EN"
 "http://www.w3.org/Graphics/SVG/1.1/DTD/svg11.dtd">
<!-- Generated by graphviz version 2.40.1 (0)
 -->
<!-- Title: boards/common/weact&#45;f4x1cx/include/gpio_params.h Pages: 1 -->
<svg width="912pt" height="386pt"
 viewBox="0.00 0.00 911.50 386.00" xmlns="http://www.w3.org/2000/svg" xmlns:xlink="http://www.w3.org/1999/xlink">
<g id="graph0" class="graph" transform="scale(1 1) rotate(0) translate(4 382)">
<title>boards/common/weact&#45;f4x1cx/include/gpio_params.h</title>
<polygon fill="#ffffff" stroke="transparent" points="-4,4 -4,-382 907.5,-382 907.5,4 -4,4"/>
<!-- Node0 -->
<g id="node1" class="node">
<title>Node0</title>
<polygon fill="#bfbfbf" stroke="#000000" points="564.5,-336.5 564.5,-377.5 688.5,-377.5 688.5,-336.5 564.5,-336.5"/>
<text text-anchor="start" x="572.5" y="-365.5" font-family="Helvetica,sans-Serif" font-size="10.00" fill="#000000">boards/common/weact</text>
<text text-anchor="start" x="572.5" y="-354.5" font-family="Helvetica,sans-Serif" font-size="10.00" fill="#000000">&#45;f4x1cx/include/gpio</text>
<text text-anchor="middle" x="626.5" y="-343.5" font-family="Helvetica,sans-Serif" font-size="10.00" fill="#000000">_params.h</text>
</g>
<!-- Node1 -->
<g id="node2" class="node">
<title>Node1</title>
<g id="a_node2"><a xlink:href="common_2weact-f4x1cx_2include_2board_8h.html" target="_top" xlink:title="Support for the WeAct&#45;F4x1Cx Board. ">
<polygon fill="#ffffff" stroke="#000000" points="573,-280.5 573,-299.5 626,-299.5 626,-280.5 573,-280.5"/>
<text text-anchor="middle" x="599.5" y="-287.5" font-family="Helvetica,sans-Serif" font-size="10.00" fill="#000000">board.h</text>
</a>
</g>
</g>
<!-- Node0&#45;&gt;Node1 -->
<g id="edge1" class="edge">
<title>Node0&#45;&gt;Node1</title>
<path fill="none" stroke="#191970" d="M618.105,-336.168C614.6273,-327.5381 610.6195,-317.5928 607.2163,-309.1479"/>
<polygon fill="#191970" stroke="#191970" points="610.4255,-307.7474 603.4414,-299.7805 603.9329,-310.3639 610.4255,-307.7474"/>
</g>
<!-- Node21 -->
<g id="node22" class="node">
<title>Node21</title>
<g id="a_node22"><a xlink:href="periph_8h.html" target="_top" xlink:title="Parameter definitions for mapping peripherals directly to SAUL. ">
<polygon fill="#ffffff" stroke="#000000" points="679.5,-112.5 679.5,-131.5 757.5,-131.5 757.5,-112.5 679.5,-112.5"/>
<text text-anchor="middle" x="718.5" y="-119.5" font-family="Helvetica,sans-Serif" font-size="10.00" fill="#000000">saul/periph.h</text>
</a>
</g>
</g>
<!-- Node0&#45;&gt;Node21 -->
<g id="edge31" class="edge">
<title>Node0&#45;&gt;Node21</title>
<path fill="none" stroke="#191970" d="M634.6644,-336.1453C652.3775,-290.8997 694.1062,-184.3103 711.1019,-140.8973"/>
<polygon fill="#191970" stroke="#191970" points="714.3878,-142.1049 714.7742,-131.5171 707.8695,-139.553 714.3878,-142.1049"/>
</g>
<!-- Node2 -->
<g id="node3" class="node">
<title>Node2</title>
<polygon fill="#ffffff" stroke="#bfbfbf" points="575,-.5 575,-19.5 652,-19.5 652,-.5 575,-.5"/>
<text text-anchor="middle" x="613.5" y="-7.5" font-family="Helvetica,sans-Serif" font-size="10.00" fill="#000000">periph_cpu.h</text>
</g>
<!-- Node1&#45;&gt;Node2 -->
<g id="edge2" class="edge">
<title>Node1&#45;&gt;Node2</title>
<path fill="none" stroke="#191970" d="M599.5,-280.4116C599.5,-261.0538 599.5,-215.9167 599.5,-178 599.5,-178 599.5,-178 599.5,-122 599.5,-89.311 605.4446,-51.6669 609.5866,-29.4058"/>
<polygon fill="#191970" stroke="#191970" points="613.0324,-30.0207 611.4941,-19.5381 606.1597,-28.692 613.0324,-30.0207"/>
</g>
<!-- Node3 -->
<g id="node4" class="node">
<title>Node3</title>
<g id="a_node4"><a xlink:href="stm32__leds_8h.html" target="_top" xlink:title="Common LED macros. ">
<polygon fill="#ffffff" stroke="#000000" points="386.5,-224.5 386.5,-243.5 464.5,-243.5 464.5,-224.5 386.5,-224.5"/>
<text text-anchor="middle" x="425.5" y="-231.5" font-family="Helvetica,sans-Serif" font-size="10.00" fill="#000000">stm32_leds.h</text>
</a>
</g>
</g>
<!-- Node1&#45;&gt;Node3 -->
<g id="edge3" class="edge">
<title>Node1&#45;&gt;Node3</title>
<path fill="none" stroke="#191970" d="M572.6938,-281.3727C543.9254,-272.1139 497.9332,-257.3118 465.0158,-246.7177"/>
<polygon fill="#191970" stroke="#191970" points="465.8448,-243.3078 455.2533,-243.5758 463.7002,-249.9712 465.8448,-243.3078"/>
</g>
<!-- Node4 -->
<g id="node5" class="node">
<title>Node4</title>
<g id="a_node5"><a xlink:href="gpio__ll_8h.html" target="_top" xlink:title="Peripheral GPIO Low&#45;Level API. ">
<polygon fill="#ffffff" stroke="#000000" points="381,-112.5 381,-131.5 470,-131.5 470,-112.5 381,-112.5"/>
<text text-anchor="middle" x="425.5" y="-119.5" font-family="Helvetica,sans-Serif" font-size="10.00" fill="#000000">periph/gpio_ll.h</text>
</a>
</g>
</g>
<!-- Node3&#45;&gt;Node4 -->
<g id="edge4" class="edge">
<title>Node3&#45;&gt;Node4</title>
<path fill="none" stroke="#191970" d="M425.5,-224.4509C425.5,-206.184 425.5,-165.9553 425.5,-141.6976"/>
<polygon fill="#191970" stroke="#191970" points="429.0001,-141.5249 425.5,-131.5249 422.0001,-141.5249 429.0001,-141.5249"/>
</g>
<!-- Node15 -->
<g id="node16" class="node">
<title>Node15</title>
<g id="a_node16"><a xlink:href="kernel__defines_8h.html" target="_top" xlink:title="Common macros and compiler attributes/pragmas configuration. ">
<polygon fill="#ffffff" stroke="#000000" points="185,-168.5 185,-187.5 280,-187.5 280,-168.5 185,-168.5"/>
<text text-anchor="middle" x="232.5" y="-175.5" font-family="Helvetica,sans-Serif" font-size="10.00" fill="#000000">kernel_defines.h</text>
</a>
</g>
</g>
<!-- Node3&#45;&gt;Node15 -->
<g id="edge21" class="edge">
<title>Node3&#45;&gt;Node15</title>
<path fill="none" stroke="#191970" d="M392.3221,-224.3733C359.9513,-214.9807 310.5602,-200.6496 275.2576,-190.4064"/>
<polygon fill="#191970" stroke="#191970" points="275.8242,-186.9264 265.2449,-187.5011 273.8735,-193.6492 275.8242,-186.9264"/>
</g>
<!-- Node4&#45;&gt;Node2 -->
<g id="edge19" class="edge">
<title>Node4&#45;&gt;Node2</title>
<path fill="none" stroke="#191970" d="M431.6334,-112.0602C440.9477,-97.74 459.9782,-71.3442 482.5,-56 507.4061,-39.0314 539.231,-27.6653 565.276,-20.4767"/>
<polygon fill="#191970" stroke="#191970" points="566.1731,-23.8598 574.9484,-17.9231 564.3863,-17.0917 566.1731,-23.8598"/>
</g>
<!-- Node5 -->
<g id="node6" class="node">
<title>Node5</title>
<g id="a_node6"><a xlink:href="assert_8h.html" target="_top" xlink:title="POSIX.1&#45;2008 compliant version of the assert macro. ">
<polygon fill="#ffffff" stroke="#000000" points="203.5,-56.5 203.5,-75.5 257.5,-75.5 257.5,-56.5 203.5,-56.5"/>
<text text-anchor="middle" x="230.5" y="-63.5" font-family="Helvetica,sans-Serif" font-size="10.00" fill="#000000">assert.h</text>
</a>
</g>
</g>
<!-- Node4&#45;&gt;Node5 -->
<g id="edge5" class="edge">
<title>Node4&#45;&gt;Node5</title>
<path fill="none" stroke="#191970" d="M391.9783,-112.3733C357.3889,-102.4399 303.5657,-86.983 267.6873,-76.6794"/>
<polygon fill="#191970" stroke="#191970" points="268.2003,-73.1854 257.6227,-73.7891 266.2681,-79.9134 268.2003,-73.1854"/>
</g>
<!-- Node6 -->
<g id="node7" class="node">
<title>Node6</title>
<polygon fill="#ffffff" stroke="#bfbfbf" points="217.5,-.5 217.5,-19.5 269.5,-19.5 269.5,-.5 217.5,-.5"/>
<text text-anchor="middle" x="243.5" y="-7.5" font-family="Helvetica,sans-Serif" font-size="10.00" fill="#000000">stdint.h</text>
</g>
<!-- Node4&#45;&gt;Node6 -->
<g id="edge8" class="edge">
<title>Node4&#45;&gt;Node6</title>
<path fill="none" stroke="#191970" d="M387.3606,-112.4299C362.3949,-105.02 329.8286,-93.1067 304.5,-76 285.2262,-62.9826 267.716,-42.7477 256.4503,-28.1139"/>
<polygon fill="#191970" stroke="#191970" points="259.0657,-25.7662 250.2828,-19.8407 253.4535,-29.95 259.0657,-25.7662"/>
</g>
<!-- Node7 -->
<g id="node8" class="node">
<title>Node7</title>
<polygon fill="#ffffff" stroke="#bfbfbf" points="496.5,-.5 496.5,-19.5 556.5,-19.5 556.5,-.5 496.5,-.5"/>
<text text-anchor="middle" x="526.5" y="-7.5" font-family="Helvetica,sans-Serif" font-size="10.00" fill="#000000">stdbool.h</text>
</g>
<!-- Node4&#45;&gt;Node7 -->
<g id="edge7" class="edge">
<title>Node4&#45;&gt;Node7</title>
<path fill="none" stroke="#191970" d="M426.8938,-112.4764C429.335,-98.6748 435.5214,-72.9186 449.5,-56 460.8093,-42.3121 477.3199,-31.6918 492.1547,-24.1219"/>
<polygon fill="#191970" stroke="#191970" points="494.0935,-27.0734 501.5898,-19.5863 491.0607,-20.7644 494.0935,-27.0734"/>
</g>
<!-- Node8 -->
<g id="node9" class="node">
<title>Node8</title>
<g id="a_node9"><a xlink:href="architecture_8h.html" target="_top" xlink:title="Platform&#45;independent access to architecture details. ">
<polygon fill="#ffffff" stroke="#000000" points="314,-56.5 314,-75.5 397,-75.5 397,-56.5 314,-56.5"/>
<text text-anchor="middle" x="355.5" y="-63.5" font-family="Helvetica,sans-Serif" font-size="10.00" fill="#000000">architecture.h</text>
</a>
</g>
</g>
<!-- Node4&#45;&gt;Node8 -->
<g id="edge9" class="edge">
<title>Node4&#45;&gt;Node8</title>
<path fill="none" stroke="#191970" d="M413.3069,-112.2455C402.8679,-103.8943 387.6345,-91.7076 375.426,-81.9408"/>
<polygon fill="#191970" stroke="#191970" points="377.5485,-79.1566 367.5533,-75.6427 373.1756,-84.6227 377.5485,-79.1566"/>
</g>
<!-- Node12 -->
<g id="node13" class="node">
<title>Node12</title>
<g id="a_node13"><a xlink:href="drivers_2include_2periph_2gpio_8h.html" target="_top" xlink:title="Low&#45;level GPIO peripheral driver interface definitions. ">
<polygon fill="#ffffff" stroke="#000000" points="823.5,-56.5 823.5,-75.5 903.5,-75.5 903.5,-56.5 823.5,-56.5"/>
<text text-anchor="middle" x="863.5" y="-63.5" font-family="Helvetica,sans-Serif" font-size="10.00" fill="#000000">periph/gpio.h</text>
</a>
</g>
</g>
<!-- Node4&#45;&gt;Node12 -->
<g id="edge14" class="edge">
<title>Node4&#45;&gt;Node12</title>
<path fill="none" stroke="#191970" d="M470.0048,-117.959C540.6131,-111.281 682.8288,-96.7458 813.2693,-76.0869"/>
<polygon fill="#191970" stroke="#191970" points="814.1172,-79.4959 823.4386,-74.4599 813.0112,-72.5838 814.1172,-79.4959"/>
</g>
<!-- Node14 -->
<g id="node15" class="node">
<title>Node14</title>
<polygon fill="#ffffff" stroke="#bfbfbf" points="491.5,-56.5 491.5,-75.5 571.5,-75.5 571.5,-56.5 491.5,-56.5"/>
<text text-anchor="middle" x="531.5" y="-63.5" font-family="Helvetica,sans-Serif" font-size="10.00" fill="#000000">gpio_ll_arch.h</text>
</g>
<!-- Node4&#45;&gt;Node14 -->
<g id="edge20" class="edge">
<title>Node4&#45;&gt;Node14</title>
<path fill="none" stroke="#191970" d="M443.9638,-112.2455C460.6074,-103.4527 485.2993,-90.4079 504.2192,-80.4125"/>
<polygon fill="#191970" stroke="#191970" points="506.0408,-83.4086 513.2478,-75.6427 502.7709,-77.2193 506.0408,-83.4086"/>
</g>
<!-- Node5&#45;&gt;Node6 -->
<g id="edge6" class="edge">
<title>Node5&#45;&gt;Node6</title>
<path fill="none" stroke="#191970" d="M232.7644,-56.2455C234.4794,-48.8579 236.8912,-38.4689 238.9944,-29.4087"/>
<polygon fill="#191970" stroke="#191970" points="242.4095,-30.1751 241.2615,-19.6427 235.5908,-28.5922 242.4095,-30.1751"/>
</g>
<!-- Node8&#45;&gt;Node6 -->
<g id="edge10" class="edge">
<title>Node8&#45;&gt;Node6</title>
<path fill="none" stroke="#191970" d="M336.2465,-56.3733C318.4288,-47.4644 291.7253,-34.1127 271.5406,-24.0203"/>
<polygon fill="#191970" stroke="#191970" points="273.0118,-20.8428 262.5022,-19.5011 269.8813,-27.1038 273.0118,-20.8428"/>
</g>
<!-- Node9 -->
<g id="node10" class="node">
<title>Node9</title>
<g id="a_node10"><a xlink:href="inttypes_8h.html" target="_top" xlink:title="Adds include for missing inttype definitions. ">
<polygon fill="#ffffff" stroke="#000000" points="414,-.5 414,-19.5 477,-19.5 477,-.5 414,-.5"/>
<text text-anchor="middle" x="445.5" y="-7.5" font-family="Helvetica,sans-Serif" font-size="10.00" fill="#000000">inttypes.h</text>
</a>
</g>
</g>
<!-- Node8&#45;&gt;Node9 -->
<g id="edge11" class="edge">
<title>Node8&#45;&gt;Node9</title>
<path fill="none" stroke="#191970" d="M371.1768,-56.2455C384.9856,-47.6534 405.3193,-35.0014 421.2292,-25.1018"/>
<polygon fill="#191970" stroke="#191970" points="423.3613,-27.8974 430.0028,-19.6427 419.6632,-21.954 423.3613,-27.8974"/>
</g>
<!-- Node10 -->
<g id="node11" class="node">
<title>Node10</title>
<polygon fill="#ffffff" stroke="#bfbfbf" points="670.5,-.5 670.5,-19.5 720.5,-19.5 720.5,-.5 670.5,-.5"/>
<text text-anchor="middle" x="695.5" y="-7.5" font-family="Helvetica,sans-Serif" font-size="10.00" fill="#000000">limits.h</text>
</g>
<!-- Node8&#45;&gt;Node10 -->
<g id="edge12" class="edge">
<title>Node8&#45;&gt;Node10</title>
<path fill="none" stroke="#191970" d="M397.4076,-61.5414C454.7548,-55.0375 561.0005,-41.5528 660.4396,-19.9948"/>
<polygon fill="#191970" stroke="#191970" points="661.3346,-23.3816 670.3487,-17.8143 659.8302,-16.5452 661.3346,-23.3816"/>
</g>
<!-- Node11 -->
<g id="node12" class="node">
<title>Node11</title>
<polygon fill="#ffffff" stroke="#bfbfbf" points="289,-.5 289,-19.5 396,-19.5 396,-.5 289,-.5"/>
<text text-anchor="middle" x="342.5" y="-7.5" font-family="Helvetica,sans-Serif" font-size="10.00" fill="#000000">architecture_arch.h</text>
</g>
<!-- Node8&#45;&gt;Node11 -->
<g id="edge13" class="edge">
<title>Node8&#45;&gt;Node11</title>
<path fill="none" stroke="#191970" d="M353.2356,-56.2455C351.5206,-48.8579 349.1088,-38.4689 347.0056,-29.4087"/>
<polygon fill="#191970" stroke="#191970" points="350.4092,-28.5922 344.7385,-19.6427 343.5905,-30.1751 350.4092,-28.5922"/>
</g>
<!-- Node12&#45;&gt;Node2 -->
<g id="edge17" class="edge">
<title>Node12&#45;&gt;Node2</title>
<path fill="none" stroke="#191970" d="M823.3332,-57.0026C779.4838,-47.1804 709.2637,-31.4511 662.2805,-20.9268"/>
<polygon fill="#191970" stroke="#191970" points="662.8564,-17.4692 652.3332,-18.6986 661.3263,-24.2999 662.8564,-17.4692"/>
</g>
<!-- Node12&#45;&gt;Node7 -->
<g id="edge16" class="edge">
<title>Node12&#45;&gt;Node7</title>
<path fill="none" stroke="#191970" d="M823.4241,-57.627C820.408,-57.0564 817.408,-56.5074 814.5,-56 704.78,-36.8567 675.7759,-41.5339 566.5,-20 566.399,-19.9801 566.298,-19.9601 566.1968,-19.94"/>
<polygon fill="#191970" stroke="#191970" points="567.0811,-16.5504 556.5678,-17.8622 565.6045,-23.3929 567.0811,-16.5504"/>
</g>
<!-- Node12&#45;&gt;Node10 -->
<g id="edge15" class="edge">
<title>Node12&#45;&gt;Node10</title>
<path fill="none" stroke="#191970" d="M834.6198,-56.3733C805.6681,-46.7227 761.0758,-31.8586 730.2151,-21.5717"/>
<polygon fill="#191970" stroke="#191970" points="731.3088,-18.247 720.7152,-18.4051 729.0952,-24.8878 731.3088,-18.247"/>
</g>
<!-- Node13 -->
<g id="node14" class="node">
<title>Node13</title>
<polygon fill="#ffffff" stroke="#bfbfbf" points="739,-.5 739,-19.5 820,-19.5 820,-.5 739,-.5"/>
<text text-anchor="middle" x="779.5" y="-7.5" font-family="Helvetica,sans-Serif" font-size="10.00" fill="#000000">periph_conf.h</text>
</g>
<!-- Node12&#45;&gt;Node13 -->
<g id="edge18" class="edge">
<title>Node12&#45;&gt;Node13</title>
<path fill="none" stroke="#191970" d="M848.8683,-56.2455C836.1006,-47.7337 817.3562,-35.2375 802.5701,-25.3801"/>
<polygon fill="#191970" stroke="#191970" points="804.226,-22.2775 793.964,-19.6427 800.3431,-28.1019 804.226,-22.2775"/>
</g>
<!-- Node16 -->
<g id="node17" class="node">
<title>Node16</title>
<g id="a_node17"><a xlink:href="modules_8h.html" target="_top" xlink:title="Common macros and compiler attributes/pragmas configuration. ">
<polygon fill="#ffffff" stroke="#000000" points="297,-112.5 297,-131.5 362,-131.5 362,-112.5 297,-112.5"/>
<text text-anchor="middle" x="329.5" y="-119.5" font-family="Helvetica,sans-Serif" font-size="10.00" fill="#000000">modules.h</text>
</a>
</g>
</g>
<!-- Node15&#45;&gt;Node16 -->
<g id="edge22" class="edge">
<title>Node15&#45;&gt;Node16</title>
<path fill="none" stroke="#191970" d="M249.3961,-168.2455C264.418,-159.5731 286.6043,-146.7645 303.821,-136.825"/>
<polygon fill="#191970" stroke="#191970" points="305.8871,-139.6737 312.7975,-131.6427 302.3872,-133.6114 305.8871,-139.6737"/>
</g>
<!-- Node17 -->
<g id="node18" class="node">
<title>Node17</title>
<g id="a_node18"><a xlink:href="riot__version_8h.html" target="_top" xlink:title="Common macros and compiler attributes/pragmas configuration. ">
<polygon fill="#ffffff" stroke="#000000" points="87,-112.5 87,-131.5 168,-131.5 168,-112.5 87,-112.5"/>
<text text-anchor="middle" x="127.5" y="-119.5" font-family="Helvetica,sans-Serif" font-size="10.00" fill="#000000">riot_version.h</text>
</a>
</g>
</g>
<!-- Node15&#45;&gt;Node17 -->
<g id="edge23" class="edge">
<title>Node15&#45;&gt;Node17</title>
<path fill="none" stroke="#191970" d="M214.2104,-168.2455C197.7238,-159.4527 173.2648,-146.4079 154.5235,-136.4125"/>
<polygon fill="#191970" stroke="#191970" points="156.0506,-133.2604 145.58,-131.6427 152.7565,-139.4368 156.0506,-133.2604"/>
</g>
<!-- Node18 -->
<g id="node19" class="node">
<title>Node18</title>
<g id="a_node19"><a xlink:href="compiler__hints_8h.html" target="_top" xlink:title="Common macros and compiler attributes/pragmas configuration. ">
<polygon fill="#ffffff" stroke="#000000" points="186,-112.5 186,-131.5 279,-131.5 279,-112.5 186,-112.5"/>
<text text-anchor="middle" x="232.5" y="-119.5" font-family="Helvetica,sans-Serif" font-size="10.00" fill="#000000">compiler_hints.h</text>
</a>
</g>
</g>
<!-- Node15&#45;&gt;Node18 -->
<g id="edge25" class="edge">
<title>Node15&#45;&gt;Node18</title>
<path fill="none" stroke="#191970" d="M232.5,-168.2455C232.5,-160.9382 232.5,-150.6944 232.5,-141.7046"/>
<polygon fill="#191970" stroke="#191970" points="236.0001,-141.6426 232.5,-131.6427 229.0001,-141.6427 236.0001,-141.6426"/>
</g>
<!-- Node19 -->
<g id="node20" class="node">
<title>Node19</title>
<g id="a_node20"><a xlink:href="container_8h.html" target="_top" xlink:title="Common macros and compiler attributes/pragmas configuration. ">
<polygon fill="#ffffff" stroke="#000000" points="0,-112.5 0,-131.5 69,-131.5 69,-112.5 0,-112.5"/>
<text text-anchor="middle" x="34.5" y="-119.5" font-family="Helvetica,sans-Serif" font-size="10.00" fill="#000000">container.h</text>
</a>
</g>
</g>
<!-- Node15&#45;&gt;Node19 -->
<g id="edge28" class="edge">
<title>Node15&#45;&gt;Node19</title>
<path fill="none" stroke="#191970" d="M198.4626,-168.3733C165.1106,-158.9404 114.1473,-144.5265 77.8998,-134.2747"/>
<polygon fill="#191970" stroke="#191970" points="78.6684,-130.8548 68.0933,-131.5011 76.7632,-137.5906 78.6684,-130.8548"/>
</g>
<!-- Node17&#45;&gt;Node6 -->
<g id="edge24" class="edge">
<title>Node17&#45;&gt;Node6</title>
<path fill="none" stroke="#191970" d="M135.82,-112.2386C147.2351,-99.0272 168.6074,-74.9311 188.5,-56 199.4575,-45.5722 212.4047,-34.6796 222.9839,-26.1129"/>
<polygon fill="#191970" stroke="#191970" points="225.2575,-28.7762 230.8773,-19.7946 220.8831,-23.3113 225.2575,-28.7762"/>
</g>
<!-- Node18&#45;&gt;Node5 -->
<g id="edge26" class="edge">
<title>Node18&#45;&gt;Node5</title>
<path fill="none" stroke="#191970" d="M232.1516,-112.2455C231.8907,-104.9382 231.5248,-94.6944 231.2037,-85.7046"/>
<polygon fill="#191970" stroke="#191970" points="234.6992,-85.5113 230.8444,-75.6427 227.7036,-85.7613 234.6992,-85.5113"/>
</g>
<!-- Node18&#45;&gt;Node6 -->
<g id="edge27" class="edge">
<title>Node18&#45;&gt;Node6</title>
<path fill="none" stroke="#191970" d="M219.9932,-112.0865C205.7257,-99.4897 185.4667,-76.8705 194.5,-56 199.7337,-43.9081 209.8842,-33.5335 219.5955,-25.7139"/>
<polygon fill="#191970" stroke="#191970" points="221.9671,-28.3109 227.882,-19.5209 217.7766,-22.7038 221.9671,-28.3109"/>
</g>
<!-- Node19&#45;&gt;Node6 -->
<g id="edge30" class="edge">
<title>Node19&#45;&gt;Node6</title>
<path fill="none" stroke="#191970" d="M32.8732,-112.05C31.1407,-97.7173 30.3266,-71.3059 44.5,-56 66.1946,-32.5719 155.8495,-19.3414 207.1097,-13.5552"/>
<polygon fill="#191970" stroke="#191970" points="207.5606,-17.0269 217.1227,-12.4644 206.8024,-10.068 207.5606,-17.0269"/>
</g>
<!-- Node20 -->
<g id="node21" class="node">
<title>Node20</title>
<polygon fill="#ffffff" stroke="#bfbfbf" points="53.5,-56.5 53.5,-75.5 109.5,-75.5 109.5,-56.5 53.5,-56.5"/>
<text text-anchor="middle" x="81.5" y="-63.5" font-family="Helvetica,sans-Serif" font-size="10.00" fill="#000000">stddef.h</text>
</g>
<!-- Node19&#45;&gt;Node20 -->
<g id="edge29" class="edge">
<title>Node19&#45;&gt;Node20</title>
<path fill="none" stroke="#191970" d="M42.6868,-112.2455C49.3589,-104.2958 58.9479,-92.8706 66.9253,-83.3656"/>
<polygon fill="#191970" stroke="#191970" points="69.6592,-85.5525 73.407,-75.6427 64.2974,-81.0524 69.6592,-85.5525"/>
</g>
<!-- Node21&#45;&gt;Node12 -->
<g id="edge32" class="edge">
<title>Node21&#45;&gt;Node12</title>
<path fill="none" stroke="#191970" d="M743.4264,-112.3733C767.1202,-103.2226 802.9511,-89.3844 829.3068,-79.2057"/>
<polygon fill="#191970" stroke="#191970" points="830.8314,-82.3689 838.8989,-75.5011 828.3094,-75.8389 830.8314,-82.3689"/>
</g>
<!-- Node22 -->
<g id="node23" class="node">
<title>Node22</title>
<g id="a_node23"><a xlink:href="adc_8h.html" target="_top" xlink:title="Low&#45;level ADC peripheral driver interface definitions. ">
<polygon fill="#ffffff" stroke="#000000" points="729.5,-56.5 729.5,-75.5 805.5,-75.5 805.5,-56.5 729.5,-56.5"/>
<text text-anchor="middle" x="767.5" y="-63.5" font-family="Helvetica,sans-Serif" font-size="10.00" fill="#000000">periph/adc.h</text>
</a>
</g>
</g>
<!-- Node21&#45;&gt;Node22 -->
<g id="edge33" class="edge">
<title>Node21&#45;&gt;Node22</title>
<path fill="none" stroke="#191970" d="M727.0351,-112.2455C733.9912,-104.2958 743.9883,-92.8706 752.3051,-83.3656"/>
<polygon fill="#191970" stroke="#191970" points="755.1116,-85.4732 759.0627,-75.6427 749.8436,-80.8637 755.1116,-85.4732"/>
</g>
<!-- Node23 -->
<g id="node24" class="node">
<title>Node23</title>
<g id="a_node24"><a xlink:href="pwm_8h.html" target="_top" xlink:title="Low&#45;level PWM peripheral driver interface definitions. ">
<polygon fill="#ffffff" stroke="#000000" points="628,-56.5 628,-75.5 711,-75.5 711,-56.5 628,-56.5"/>
<text text-anchor="middle" x="669.5" y="-63.5" font-family="Helvetica,sans-Serif" font-size="10.00" fill="#000000">periph/pwm.h</text>
</a>
</g>
</g>
<!-- Node21&#45;&gt;Node23 -->
<g id="edge38" class="edge">
<title>Node21&#45;&gt;Node23</title>
<path fill="none" stroke="#191970" d="M709.9649,-112.2455C703.0088,-104.2958 693.0117,-92.8706 684.6949,-83.3656"/>
<polygon fill="#191970" stroke="#191970" points="687.1564,-80.8637 677.9373,-75.6427 681.8884,-85.4732 687.1564,-80.8637"/>
</g>
<!-- Node22&#45;&gt;Node2 -->
<g id="edge36" class="edge">
<title>Node22&#45;&gt;Node2</title>
<path fill="none" stroke="#191970" d="M741.0265,-56.3733C715.6403,-47.1419 677.1355,-33.1402 649.078,-22.9375"/>
<polygon fill="#191970" stroke="#191970" points="650.2222,-19.6293 639.6281,-19.5011 647.8299,-26.2079 650.2222,-19.6293"/>
</g>
<!-- Node22&#45;&gt;Node6 -->
<g id="edge35" class="edge">
<title>Node22&#45;&gt;Node6</title>
<path fill="none" stroke="#191970" d="M729.3544,-57.4564C726.3665,-56.9181 723.389,-56.4235 720.5,-56 525.9272,-27.479 473.1072,-54.471 279.5,-20 279.4002,-19.9822 279.3003,-19.9643 279.2003,-19.9462"/>
<polygon fill="#191970" stroke="#191970" points="280.2269,-16.5873 269.7137,-17.9002 278.7511,-23.4299 280.2269,-16.5873"/>
</g>
<!-- Node22&#45;&gt;Node10 -->
<g id="edge34" class="edge">
<title>Node22&#45;&gt;Node10</title>
<path fill="none" stroke="#191970" d="M754.9586,-56.2455C744.2213,-47.8943 728.5527,-35.7076 715.9953,-25.9408"/>
<polygon fill="#191970" stroke="#191970" points="717.9401,-23.0194 707.8977,-19.6427 713.6425,-28.5449 717.9401,-23.0194"/>
</g>
<!-- Node22&#45;&gt;Node13 -->
<g id="edge37" class="edge">
<title>Node22&#45;&gt;Node13</title>
<path fill="none" stroke="#191970" d="M769.5902,-56.2455C771.1561,-48.9382 773.3512,-38.6944 775.2776,-29.7046"/>
<polygon fill="#191970" stroke="#191970" points="778.7607,-30.1541 777.4337,-19.6427 771.916,-28.6873 778.7607,-30.1541"/>
</g>
<!-- Node23&#45;&gt;Node2 -->
<g id="edge41" class="edge">
<title>Node23&#45;&gt;Node2</title>
<path fill="none" stroke="#191970" d="M659.7455,-56.2455C651.6352,-48.1352 639.9075,-36.4075 630.2919,-26.7919"/>
<polygon fill="#191970" stroke="#191970" points="632.6887,-24.2389 623.1427,-19.6427 627.7389,-29.1887 632.6887,-24.2389"/>
</g>
<!-- Node23&#45;&gt;Node6 -->
<g id="edge39" class="edge">
<title>Node23&#45;&gt;Node6</title>
<path fill="none" stroke="#191970" d="M627.7388,-61.2489C530.6028,-50.1743 296.4332,-23.33 279.5,-20 279.4006,-19.9804 279.301,-19.9608 279.2013,-19.9409"/>
<polygon fill="#191970" stroke="#191970" points="280.2617,-16.5928 269.7346,-17.7889 278.7099,-23.4186 280.2617,-16.5928"/>
</g>
<!-- Node23&#45;&gt;Node10 -->
<g id="edge40" class="edge">
<title>Node23&#45;&gt;Node10</title>
<path fill="none" stroke="#191970" d="M674.0289,-56.2455C677.5334,-48.6973 682.4927,-38.0158 686.7623,-28.8197"/>
<polygon fill="#191970" stroke="#191970" points="689.9864,-30.1867 691.023,-19.6427 683.6373,-27.2389 689.9864,-30.1867"/>
</g>
<!-- Node23&#45;&gt;Node13 -->
<g id="edge42" class="edge">
<title>Node23&#45;&gt;Node13</title>
<path fill="none" stroke="#191970" d="M688.6605,-56.2455C706.0111,-47.4125 731.7901,-34.2887 751.4583,-24.2758"/>
<polygon fill="#191970" stroke="#191970" points="753.2353,-27.2986 760.559,-19.6427 750.0595,-21.0605 753.2353,-27.2986"/>
</g>
</g>
</svg>
