<?xml version="1.0" encoding="UTF-8" standalone="no"?>
<!DOCTYPE svg PUBLIC "-//W3C//DTD SVG 1.1//EN"
 "http://www.w3.org/Graphics/SVG/1.1/DTD/svg11.dtd">
<!-- Generated by graphviz version 2.40.1 (0)
 -->
<!-- Title: boards/common/silabs/include/arduino_iomap.h Pages: 1 -->
<svg width="358pt" height="151pt"
 viewBox="0.00 0.00 358.00 151.00" xmlns="http://www.w3.org/2000/svg" xmlns:xlink="http://www.w3.org/1999/xlink">
<g id="graph0" class="graph" transform="scale(1 1) rotate(0) translate(4 147)">
<title>boards/common/silabs/include/arduino_iomap.h</title>
<polygon fill="#ffffff" stroke="transparent" points="-4,4 -4,-147 354,-147 354,4 -4,4"/>
<!-- Node0 -->
<g id="node1" class="node">
<title>Node0</title>
<polygon fill="#bfbfbf" stroke="#000000" points="14,-112.5 14,-142.5 149,-142.5 149,-112.5 14,-112.5"/>
<text text-anchor="start" x="22" y="-130.5" font-family="Helvetica,sans-Serif" font-size="10.00" fill="#000000">boards/common/silabs</text>
<text text-anchor="middle" x="81.5" y="-119.5" font-family="Helvetica,sans-Serif" font-size="10.00" fill="#000000">/include/arduino_iomap.h</text>
</g>
<!-- Node1 -->
<g id="node2" class="node">
<title>Node1</title>
<polygon fill="#ffffff" stroke="#bfbfbf" points="0,-56.5 0,-75.5 53,-75.5 53,-56.5 0,-56.5"/>
<text text-anchor="middle" x="26.5" y="-63.5" font-family="Helvetica,sans-Serif" font-size="10.00" fill="#000000">board.h</text>
</g>
<!-- Node0&#45;&gt;Node1 -->
<g id="edge1" class="edge">
<title>Node0&#45;&gt;Node1</title>
<path fill="none" stroke="#191970" d="M67.9045,-112.2977C60.1109,-103.5831 50.2953,-92.6075 42.1774,-83.5302"/>
<polygon fill="#191970" stroke="#191970" points="44.5813,-80.9678 35.3062,-75.8469 39.3635,-85.6341 44.5813,-80.9678"/>
</g>
<!-- Node2 -->
<g id="node3" class="node">
<title>Node2</title>
<polygon fill="#ffffff" stroke="#bfbfbf" points="35,-.5 35,-19.5 112,-19.5 112,-.5 35,-.5"/>
<text text-anchor="middle" x="73.5" y="-7.5" font-family="Helvetica,sans-Serif" font-size="10.00" fill="#000000">periph_cpu.h</text>
</g>
<!-- Node0&#45;&gt;Node2 -->
<g id="edge2" class="edge">
<title>Node0&#45;&gt;Node2</title>
<path fill="none" stroke="#191970" d="M80.4541,-112.1389C79.0128,-90.9692 76.4152,-52.8174 74.8352,-29.6112"/>
<polygon fill="#191970" stroke="#191970" points="78.3221,-29.2986 74.1509,-19.5595 71.3383,-29.7742 78.3221,-29.2986"/>
</g>
<!-- Node3 -->
<g id="node4" class="node">
<title>Node3</title>
<g id="a_node4"><a xlink:href="adc_8h.html" target="_top" xlink:title="Low&#45;level ADC peripheral driver interface definitions. ">
<polygon fill="#ffffff" stroke="#000000" points="117.5,-56.5 117.5,-75.5 193.5,-75.5 193.5,-56.5 117.5,-56.5"/>
<text text-anchor="middle" x="155.5" y="-63.5" font-family="Helvetica,sans-Serif" font-size="10.00" fill="#000000">periph/adc.h</text>
</a>
</g>
</g>
<!-- Node0&#45;&gt;Node3 -->
<g id="edge3" class="edge">
<title>Node0&#45;&gt;Node3</title>
<path fill="none" stroke="#191970" d="M99.7921,-112.2977C110.7061,-103.2274 124.5671,-91.7077 135.7324,-82.4285"/>
<polygon fill="#191970" stroke="#191970" points="138.198,-84.9303 143.6517,-75.8469 133.7238,-79.5468 138.198,-84.9303"/>
</g>
<!-- Node3&#45;&gt;Node2 -->
<g id="edge6" class="edge">
<title>Node3&#45;&gt;Node2</title>
<path fill="none" stroke="#191970" d="M141.2167,-56.2455C128.753,-47.7337 110.4549,-35.2375 96.0208,-25.3801"/>
<polygon fill="#191970" stroke="#191970" points="97.8515,-22.392 87.6196,-19.6427 93.9038,-28.1726 97.8515,-22.392"/>
</g>
<!-- Node4 -->
<g id="node5" class="node">
<title>Node4</title>
<polygon fill="#ffffff" stroke="#bfbfbf" points="130.5,-.5 130.5,-19.5 180.5,-19.5 180.5,-.5 130.5,-.5"/>
<text text-anchor="middle" x="155.5" y="-7.5" font-family="Helvetica,sans-Serif" font-size="10.00" fill="#000000">limits.h</text>
</g>
<!-- Node3&#45;&gt;Node4 -->
<g id="edge4" class="edge">
<title>Node3&#45;&gt;Node4</title>
<path fill="none" stroke="#191970" d="M155.5,-56.2455C155.5,-48.9382 155.5,-38.6944 155.5,-29.7046"/>
<polygon fill="#191970" stroke="#191970" points="159.0001,-29.6426 155.5,-19.6427 152.0001,-29.6427 159.0001,-29.6426"/>
</g>
<!-- Node5 -->
<g id="node6" class="node">
<title>Node5</title>
<polygon fill="#ffffff" stroke="#bfbfbf" points="198.5,-.5 198.5,-19.5 250.5,-19.5 250.5,-.5 198.5,-.5"/>
<text text-anchor="middle" x="224.5" y="-7.5" font-family="Helvetica,sans-Serif" font-size="10.00" fill="#000000">stdint.h</text>
</g>
<!-- Node3&#45;&gt;Node5 -->
<g id="edge5" class="edge">
<title>Node3&#45;&gt;Node5</title>
<path fill="none" stroke="#191970" d="M167.5189,-56.2455C177.7098,-47.9746 192.5362,-35.9416 204.5107,-26.2232"/>
<polygon fill="#191970" stroke="#191970" points="207.0598,-28.662 212.6188,-19.6427 202.6486,-23.2268 207.0598,-28.662"/>
</g>
<!-- Node6 -->
<g id="node7" class="node">
<title>Node6</title>
<polygon fill="#ffffff" stroke="#bfbfbf" points="269,-.5 269,-19.5 350,-19.5 350,-.5 269,-.5"/>
<text text-anchor="middle" x="309.5" y="-7.5" font-family="Helvetica,sans-Serif" font-size="10.00" fill="#000000">periph_conf.h</text>
</g>
<!-- Node3&#45;&gt;Node6 -->
<g id="edge7" class="edge">
<title>Node3&#45;&gt;Node6</title>
<path fill="none" stroke="#191970" d="M181.9735,-56.3733C207.3597,-47.1419 245.8645,-33.1402 273.922,-22.9375"/>
<polygon fill="#191970" stroke="#191970" points="275.1701,-26.2079 283.3719,-19.5011 272.7778,-19.6293 275.1701,-26.2079"/>
</g>
</g>
</svg>
