<?xml version="1.0" encoding="UTF-8" standalone="no"?>
<!DOCTYPE svg PUBLIC "-//W3C//DTD SVG 1.1//EN"
 "http://www.w3.org/Graphics/SVG/1.1/DTD/svg11.dtd">
<!-- Generated by graphviz version 2.40.1 (0)
 -->
<!-- Title: sys/include/ztimer/convert_frac.h Pages: 1 -->
<svg width="1111pt" height="655pt"
 viewBox="0.00 0.00 1111.00 655.00" xmlns="http://www.w3.org/2000/svg" xmlns:xlink="http://www.w3.org/1999/xlink">
<g id="graph0" class="graph" transform="scale(1 1) rotate(0) translate(4 651)">
<title>sys/include/ztimer/convert_frac.h</title>
<polygon fill="#ffffff" stroke="transparent" points="-4,4 -4,-651 1107,-651 1107,4 -4,4"/>
<!-- Node0 -->
<g id="node1" class="node">
<title>Node0</title>
<polygon fill="#bfbfbf" stroke="#000000" points="961.5,-616.5 961.5,-646.5 1062.5,-646.5 1062.5,-616.5 961.5,-616.5"/>
<text text-anchor="start" x="969.5" y="-634.5" font-family="Helvetica,sans-Serif" font-size="10.00" fill="#000000">sys/include/ztimer</text>
<text text-anchor="middle" x="1012" y="-623.5" font-family="Helvetica,sans-Serif" font-size="10.00" fill="#000000">/convert_frac.h</text>
</g>
<!-- Node0&#45;&gt;Node0 -->
<g id="edge58" class="edge">
<title>Node0&#45;&gt;Node0</title>
<path fill="none" stroke="#191970" d="M1062.7839,-642.3208C1073.1075,-641.1421 1080.5,-637.5352 1080.5,-631.5 1080.5,-627.6337 1077.4661,-624.764 1072.5713,-622.8908"/>
<polygon fill="#191970" stroke="#191970" points="1073.3094,-619.4694 1062.7839,-620.6792 1071.7665,-626.2973 1073.3094,-619.4694"/>
</g>
<!-- Node1 -->
<g id="node2" class="node">
<title>Node1</title>
<polygon fill="#ffffff" stroke="#bfbfbf" points="794,-.5 794,-19.5 846,-19.5 846,-.5 794,-.5"/>
<text text-anchor="middle" x="820" y="-7.5" font-family="Helvetica,sans-Serif" font-size="10.00" fill="#000000">stdint.h</text>
</g>
<!-- Node0&#45;&gt;Node1 -->
<g id="edge1" class="edge">
<title>Node0&#45;&gt;Node1</title>
<path fill="none" stroke="#191970" d="M1034.9631,-616.1841C1061.9211,-596.1651 1103,-558.3789 1103,-514 1103,-514 1103,-514 1103,-122 1103,-82.6547 1078.1066,-75.6161 1044,-56 1012.4775,-37.8701 911.3636,-22.1319 856.3994,-14.6464"/>
<polygon fill="#191970" stroke="#191970" points="856.7546,-11.1628 846.3783,-13.3035 855.8248,-18.1008 856.7546,-11.1628"/>
</g>
<!-- Node2 -->
<g id="node3" class="node">
<title>Node2</title>
<g id="a_node3"><a xlink:href="ztimer_8h.html" target="_top" xlink:title="ztimer API ">
<polygon fill="#ffffff" stroke="#000000" points="840.5,-504.5 840.5,-523.5 895.5,-523.5 895.5,-504.5 840.5,-504.5"/>
<text text-anchor="middle" x="868" y="-511.5" font-family="Helvetica,sans-Serif" font-size="10.00" fill="#000000">ztimer.h</text>
</a>
</g>
</g>
<!-- Node0&#45;&gt;Node2 -->
<g id="edge2" class="edge">
<title>Node0&#45;&gt;Node2</title>
<path fill="none" stroke="#191970" d="M998.7495,-616.2614C985.1154,-601.0575 962.8414,-577.5038 941,-560 926.4248,-548.3194 908.73,-537.1046 894.4121,-528.6729"/>
<polygon fill="#191970" stroke="#191970" points="895.9672,-525.5292 885.5575,-523.557 892.4652,-531.5903 895.9672,-525.5292"/>
</g>
<!-- Node29 -->
<g id="node30" class="node">
<title>Node29</title>
<g id="a_node30"><a xlink:href="convert_8h.html" target="_top" xlink:title="ztimer frequency conversion base module ">
<polygon fill="#ffffff" stroke="#000000" points="837.5,-560.5 837.5,-579.5 932.5,-579.5 932.5,-560.5 837.5,-560.5"/>
<text text-anchor="middle" x="885" y="-567.5" font-family="Helvetica,sans-Serif" font-size="10.00" fill="#000000">ztimer/convert.h</text>
</a>
</g>
</g>
<!-- Node0&#45;&gt;Node29 -->
<g id="edge56" class="edge">
<title>Node0&#45;&gt;Node29</title>
<path fill="none" stroke="#191970" d="M980.9323,-616.4554C960.4855,-606.554 933.9063,-593.683 913.9115,-584.0004"/>
<polygon fill="#191970" stroke="#191970" points="915.2062,-580.7387 904.6805,-579.5303 912.1553,-587.0388 915.2062,-580.7387"/>
</g>
<!-- Node30 -->
<g id="node31" class="node">
<title>Node30</title>
<g id="a_node31"><a xlink:href="frac_8h.html" target="_top" xlink:title="frac.h">
<polygon fill="#ffffff" stroke="#000000" points="1027,-504.5 1027,-523.5 1071,-523.5 1071,-504.5 1027,-504.5"/>
<text text-anchor="middle" x="1049" y="-511.5" font-family="Helvetica,sans-Serif" font-size="10.00" fill="#000000">frac.h</text>
</a>
</g>
</g>
<!-- Node0&#45;&gt;Node30 -->
<g id="edge59" class="edge">
<title>Node0&#45;&gt;Node30</title>
<path fill="none" stroke="#191970" d="M1016.8371,-616.1389C1023.5336,-594.873 1035.6264,-556.4702 1042.9239,-533.2956"/>
<polygon fill="#191970" stroke="#191970" points="1046.3246,-534.149 1045.9898,-523.5595 1039.6478,-532.0465 1046.3246,-534.149"/>
</g>
<!-- Node2&#45;&gt;Node1 -->
<g id="edge3" class="edge">
<title>Node2&#45;&gt;Node1</title>
<path fill="none" stroke="#191970" d="M895.6957,-507.9275C941.2502,-496.1252 1027,-465.4782 1027,-402 1027,-402 1027,-402 1027,-122 1027,-45.293 915.6857,-20.8587 856.3139,-13.2816"/>
<polygon fill="#191970" stroke="#191970" points="856.5577,-9.7862 846.2167,-12.0915 855.7382,-16.7381 856.5577,-9.7862"/>
</g>
<!-- Node3 -->
<g id="node4" class="node">
<title>Node3</title>
<g id="a_node4"><a xlink:href="mbox_8h.html" target="_top" xlink:title="Mailbox API. ">
<polygon fill="#ffffff" stroke="#000000" points="872,-336.5 872,-355.5 924,-355.5 924,-336.5 872,-336.5"/>
<text text-anchor="middle" x="898" y="-343.5" font-family="Helvetica,sans-Serif" font-size="10.00" fill="#000000">mbox.h</text>
</a>
</g>
</g>
<!-- Node2&#45;&gt;Node3 -->
<g id="edge4" class="edge">
<title>Node2&#45;&gt;Node3</title>
<path fill="none" stroke="#191970" d="M869.6989,-504.4862C874.4617,-477.8144 888.0158,-401.9117 894.483,-365.695"/>
<polygon fill="#191970" stroke="#191970" points="897.9325,-366.2875 896.245,-355.8279 891.0415,-365.0569 897.9325,-366.2875"/>
</g>
<!-- Node9 -->
<g id="node10" class="node">
<title>Node9</title>
<g id="a_node10"><a xlink:href="sched_8h.html" target="_top" xlink:title="Scheduler API definition. ">
<polygon fill="#ffffff" stroke="#000000" points="434.5,-224.5 434.5,-243.5 487.5,-243.5 487.5,-224.5 434.5,-224.5"/>
<text text-anchor="middle" x="461" y="-231.5" font-family="Helvetica,sans-Serif" font-size="10.00" fill="#000000">sched.h</text>
</a>
</g>
</g>
<!-- Node2&#45;&gt;Node9 -->
<g id="edge55" class="edge">
<title>Node2&#45;&gt;Node9</title>
<path fill="none" stroke="#191970" d="M840.3862,-512.4781C748.5743,-507.2377 457.2948,-489.0977 421,-468 342.9381,-422.6235 293.1589,-354.6182 344,-280 353.4405,-266.1445 393.6879,-252.3521 424.3661,-243.5371"/>
<polygon fill="#191970" stroke="#191970" points="425.6575,-246.8103 434.3448,-240.7456 423.7716,-240.0691 425.6575,-246.8103"/>
</g>
<!-- Node19 -->
<g id="node20" class="node">
<title>Node19</title>
<polygon fill="#ffffff" stroke="#bfbfbf" points="786.5,-448.5 786.5,-467.5 831.5,-467.5 831.5,-448.5 786.5,-448.5"/>
<text text-anchor="middle" x="809" y="-455.5" font-family="Helvetica,sans-Serif" font-size="10.00" fill="#000000">msg.h</text>
</g>
<!-- Node2&#45;&gt;Node19 -->
<g id="edge30" class="edge">
<title>Node2&#45;&gt;Node19</title>
<path fill="none" stroke="#191970" d="M857.723,-504.2455C849.1782,-496.1352 836.8222,-484.4075 826.6915,-474.7919"/>
<polygon fill="#191970" stroke="#191970" points="828.8218,-471.9884 819.1592,-467.6427 824.0028,-477.0655 828.8218,-471.9884"/>
</g>
<!-- Node20 -->
<g id="node21" class="node">
<title>Node20</title>
<g id="a_node21"><a xlink:href="mutex_8h.html" target="_top" xlink:title="Mutex for thread synchronization. ">
<polygon fill="#ffffff" stroke="#000000" points="574,-392.5 574,-411.5 630,-411.5 630,-392.5 574,-392.5"/>
<text text-anchor="middle" x="602" y="-399.5" font-family="Helvetica,sans-Serif" font-size="10.00" fill="#000000">mutex.h</text>
</a>
</g>
</g>
<!-- Node2&#45;&gt;Node20 -->
<g id="edge31" class="edge">
<title>Node2&#45;&gt;Node20</title>
<path fill="none" stroke="#191970" d="M866.7484,-504.2156C864.3335,-489.5959 857.6111,-462.2485 840,-448 809.8306,-423.5909 699.6081,-410.4772 640.3337,-405.0525"/>
<polygon fill="#191970" stroke="#191970" points="640.5062,-401.5542 630.2363,-404.1577 639.8883,-408.5268 640.5062,-401.5542"/>
</g>
<!-- Node28 -->
<g id="node29" class="node">
<title>Node28</title>
<g id="a_node29"><a xlink:href="rmutex_8h.html" target="_top" xlink:title="Recursive Mutex for thread synchronization. ">
<polygon fill="#ffffff" stroke="#000000" points="430,-448.5 430,-467.5 490,-467.5 490,-448.5 430,-448.5"/>
<text text-anchor="middle" x="460" y="-455.5" font-family="Helvetica,sans-Serif" font-size="10.00" fill="#000000">rmutex.h</text>
</a>
</g>
</g>
<!-- Node2&#45;&gt;Node28 -->
<g id="edge51" class="edge">
<title>Node2&#45;&gt;Node28</title>
<path fill="none" stroke="#191970" d="M840.2773,-510.1949C769.6717,-500.504 582.8326,-474.8594 500.2373,-463.5228"/>
<polygon fill="#191970" stroke="#191970" points="500.6119,-460.0414 490.2288,-462.1491 499.66,-466.9764 500.6119,-460.0414"/>
</g>
<!-- Node4 -->
<g id="node5" class="node">
<title>Node4</title>
<g id="a_node5"><a xlink:href="list_8h.html" target="_top" xlink:title="Intrusive linked list. ">
<polygon fill="#ffffff" stroke="#000000" points="565,-112.5 565,-131.5 603,-131.5 603,-112.5 565,-112.5"/>
<text text-anchor="middle" x="584" y="-119.5" font-family="Helvetica,sans-Serif" font-size="10.00" fill="#000000">list.h</text>
</a>
</g>
</g>
<!-- Node3&#45;&gt;Node4 -->
<g id="edge5" class="edge">
<title>Node3&#45;&gt;Node4</title>
<path fill="none" stroke="#191970" d="M907.3796,-336.4251C918.9212,-323.4251 935.8489,-299.5676 926,-280 907.2168,-242.6821 813.0138,-185.3317 775,-168 710.3956,-138.5448 685.4564,-151.2876 613.2024,-132.0045"/>
<polygon fill="#191970" stroke="#191970" points="613.749,-128.5234 603.1762,-129.2068 611.8675,-135.2659 613.749,-128.5234"/>
</g>
<!-- Node5 -->
<g id="node6" class="node">
<title>Node5</title>
<g id="a_node6"><a xlink:href="cib_8h.html" target="_top" xlink:title="Circular integer buffer interface. ">
<polygon fill="#ffffff" stroke="#000000" points="879,-280.5 879,-299.5 917,-299.5 917,-280.5 879,-280.5"/>
<text text-anchor="middle" x="898" y="-287.5" font-family="Helvetica,sans-Serif" font-size="10.00" fill="#000000">cib.h</text>
</a>
</g>
</g>
<!-- Node3&#45;&gt;Node5 -->
<g id="edge6" class="edge">
<title>Node3&#45;&gt;Node5</title>
<path fill="none" stroke="#191970" d="M898,-336.2455C898,-328.9382 898,-318.6944 898,-309.7046"/>
<polygon fill="#191970" stroke="#191970" points="901.5001,-309.6426 898,-299.6427 894.5001,-309.6427 901.5001,-309.6426"/>
</g>
<!-- Node7 -->
<g id="node8" class="node">
<title>Node7</title>
<g id="a_node8"><a xlink:href="core_2include_2msg_8h.html" target="_top" xlink:title="Messaging API for inter process communication. ">
<polygon fill="#ffffff" stroke="#000000" points="649.5,-280.5 649.5,-299.5 694.5,-299.5 694.5,-280.5 649.5,-280.5"/>
<text text-anchor="middle" x="672" y="-287.5" font-family="Helvetica,sans-Serif" font-size="10.00" fill="#000000">msg.h</text>
</a>
</g>
</g>
<!-- Node3&#45;&gt;Node7 -->
<g id="edge9" class="edge">
<title>Node3&#45;&gt;Node7</title>
<path fill="none" stroke="#191970" d="M871.6326,-339.4665C830.1515,-329.188 749.7457,-309.2644 704.6655,-298.0941"/>
<polygon fill="#191970" stroke="#191970" points="705.3573,-294.6598 694.8091,-295.6518 703.6737,-301.4543 705.3573,-294.6598"/>
</g>
<!-- Node6 -->
<g id="node7" class="node">
<title>Node6</title>
<g id="a_node7"><a xlink:href="assert_8h.html" target="_top" xlink:title="POSIX.1&#45;2008 compliant version of the assert macro. ">
<polygon fill="#ffffff" stroke="#000000" points="793,-56.5 793,-75.5 847,-75.5 847,-56.5 793,-56.5"/>
<text text-anchor="middle" x="820" y="-63.5" font-family="Helvetica,sans-Serif" font-size="10.00" fill="#000000">assert.h</text>
</a>
</g>
</g>
<!-- Node5&#45;&gt;Node6 -->
<g id="edge7" class="edge">
<title>Node5&#45;&gt;Node6</title>
<path fill="none" stroke="#191970" d="M904.2791,-280.4457C917.041,-259.7987 943.7599,-209.5286 931,-168 922.1659,-139.2485 914.626,-132.9047 893,-112 880.0123,-99.4455 863.063,-88.5119 848.7658,-80.4578"/>
<polygon fill="#191970" stroke="#191970" points="850.2788,-77.2965 839.8219,-75.5928 846.934,-83.4457 850.2788,-77.2965"/>
</g>
<!-- Node6&#45;&gt;Node1 -->
<g id="edge8" class="edge">
<title>Node6&#45;&gt;Node1</title>
<path fill="none" stroke="#191970" d="M820,-56.2455C820,-48.9382 820,-38.6944 820,-29.7046"/>
<polygon fill="#191970" stroke="#191970" points="823.5001,-29.6426 820,-19.6427 816.5001,-29.6427 823.5001,-29.6426"/>
</g>
<!-- Node7&#45;&gt;Node1 -->
<g id="edge10" class="edge">
<title>Node7&#45;&gt;Node1</title>
<path fill="none" stroke="#191970" d="M694.6503,-287.9598C745.1608,-282.1553 867.5528,-260.9129 931,-188 970.3086,-142.8269 993.0132,-104.5783 958,-56 945.886,-39.1928 892.6136,-25.034 855.9169,-17.0328"/>
<polygon fill="#191970" stroke="#191970" points="856.5625,-13.592 846.0541,-14.9423 855.111,-20.4398 856.5625,-13.592"/>
</g>
<!-- Node8 -->
<g id="node9" class="node">
<title>Node8</title>
<polygon fill="#ffffff" stroke="#bfbfbf" points="487,-112.5 487,-131.5 547,-131.5 547,-112.5 487,-112.5"/>
<text text-anchor="middle" x="517" y="-119.5" font-family="Helvetica,sans-Serif" font-size="10.00" fill="#000000">stdbool.h</text>
</g>
<!-- Node7&#45;&gt;Node8 -->
<g id="edge11" class="edge">
<title>Node7&#45;&gt;Node8</title>
<path fill="none" stroke="#191970" d="M669.6313,-280.4915C663.6239,-258.1391 645.8173,-201.6106 612,-168 596.6155,-152.7096 575.1479,-141.7246 556.5115,-134.3326"/>
<polygon fill="#191970" stroke="#191970" points="557.6634,-131.0266 547.0712,-130.7908 555.2044,-137.5805 557.6634,-131.0266"/>
</g>
<!-- Node7&#45;&gt;Node9 -->
<g id="edge12" class="edge">
<title>Node7&#45;&gt;Node9</title>
<path fill="none" stroke="#191970" d="M649.4525,-284.281C617.6968,-276.1892 557.748,-260.7774 497.7512,-244.4418"/>
<polygon fill="#191970" stroke="#191970" points="498.3044,-240.9648 487.7355,-241.7061 496.4599,-247.7174 498.3044,-240.9648"/>
</g>
<!-- Node10 -->
<g id="node11" class="node">
<title>Node10</title>
<polygon fill="#ffffff" stroke="#bfbfbf" points="412,-56.5 412,-75.5 468,-75.5 468,-56.5 412,-56.5"/>
<text text-anchor="middle" x="440" y="-63.5" font-family="Helvetica,sans-Serif" font-size="10.00" fill="#000000">stddef.h</text>
</g>
<!-- Node9&#45;&gt;Node10 -->
<g id="edge13" class="edge">
<title>Node9&#45;&gt;Node10</title>
<path fill="none" stroke="#191970" d="M477.9458,-224.4906C497.2958,-212.3108 524.8391,-190.1216 513,-168 499.3895,-142.5686 476.0296,-155.2808 459,-132 449.1126,-118.4831 444.3553,-99.9314 442.0751,-85.9383"/>
<polygon fill="#191970" stroke="#191970" points="445.5241,-85.3232 440.7269,-75.8767 438.5861,-86.253 445.5241,-85.3232"/>
</g>
<!-- Node11 -->
<g id="node12" class="node">
<title>Node11</title>
<g id="a_node12"><a xlink:href="inttypes_8h.html" target="_top" xlink:title="Adds include for missing inttype definitions. ">
<polygon fill="#ffffff" stroke="#000000" points="336.5,-168.5 336.5,-187.5 399.5,-187.5 399.5,-168.5 336.5,-168.5"/>
<text text-anchor="middle" x="368" y="-175.5" font-family="Helvetica,sans-Serif" font-size="10.00" fill="#000000">inttypes.h</text>
</a>
</g>
</g>
<!-- Node9&#45;&gt;Node11 -->
<g id="edge14" class="edge">
<title>Node9&#45;&gt;Node11</title>
<path fill="none" stroke="#191970" d="M444.8006,-224.2455C430.3982,-215.5731 409.1268,-202.7645 392.6201,-192.825"/>
<polygon fill="#191970" stroke="#191970" points="394.386,-189.8028 384.0137,-187.6427 390.775,-195.7996 394.386,-189.8028"/>
</g>
<!-- Node12 -->
<g id="node13" class="node">
<title>Node12</title>
<g id="a_node13"><a xlink:href="kernel__defines_8h.html" target="_top" xlink:title="Common macros and compiler attributes/pragmas configuration. ">
<polygon fill="#ffffff" stroke="#000000" points="827.5,-168.5 827.5,-187.5 922.5,-187.5 922.5,-168.5 827.5,-168.5"/>
<text text-anchor="middle" x="875" y="-175.5" font-family="Helvetica,sans-Serif" font-size="10.00" fill="#000000">kernel_defines.h</text>
</a>
</g>
</g>
<!-- Node9&#45;&gt;Node12 -->
<g id="edge15" class="edge">
<title>Node9&#45;&gt;Node12</title>
<path fill="none" stroke="#191970" d="M487.6464,-225.9186C490.4521,-225.2083 493.2746,-224.5512 496,-224 608.6169,-201.2253 742.4962,-188.2021 817.2066,-182.1668"/>
<polygon fill="#191970" stroke="#191970" points="817.6561,-185.6422 827.3475,-181.3612 817.1018,-178.6642 817.6561,-185.6422"/>
</g>
<!-- Node17 -->
<g id="node18" class="node">
<title>Node17</title>
<g id="a_node18"><a xlink:href="native__sched_8h.html" target="_top" xlink:title="Add definitions required on the native board. ">
<polygon fill="#ffffff" stroke="#000000" points="418,-168.5 418,-187.5 504,-187.5 504,-168.5 418,-168.5"/>
<text text-anchor="middle" x="461" y="-175.5" font-family="Helvetica,sans-Serif" font-size="10.00" fill="#000000">native_sched.h</text>
</a>
</g>
</g>
<!-- Node9&#45;&gt;Node17 -->
<g id="edge25" class="edge">
<title>Node9&#45;&gt;Node17</title>
<path fill="none" stroke="#191970" d="M461,-224.2455C461,-216.9382 461,-206.6944 461,-197.7046"/>
<polygon fill="#191970" stroke="#191970" points="464.5001,-197.6426 461,-187.6427 457.5001,-197.6427 464.5001,-197.6426"/>
</g>
<!-- Node18 -->
<g id="node19" class="node">
<title>Node18</title>
<g id="a_node19"><a xlink:href="clist_8h.html" target="_top" xlink:title="Circular linked list. ">
<polygon fill="#ffffff" stroke="#000000" points="560.5,-168.5 560.5,-187.5 603.5,-187.5 603.5,-168.5 560.5,-168.5"/>
<text text-anchor="middle" x="582" y="-175.5" font-family="Helvetica,sans-Serif" font-size="10.00" fill="#000000">clist.h</text>
</a>
</g>
</g>
<!-- Node9&#45;&gt;Node18 -->
<g id="edge26" class="edge">
<title>Node9&#45;&gt;Node18</title>
<path fill="none" stroke="#191970" d="M481.8006,-224.3733C501.2243,-215.3838 530.4224,-201.8706 552.2964,-191.7471"/>
<polygon fill="#191970" stroke="#191970" points="553.8656,-194.8776 561.4708,-187.5011 550.9255,-188.5249 553.8656,-194.8776"/>
</g>
<!-- Node13 -->
<g id="node14" class="node">
<title>Node13</title>
<g id="a_node14"><a xlink:href="modules_8h.html" target="_top" xlink:title="Common macros and compiler attributes/pragmas configuration. ">
<polygon fill="#ffffff" stroke="#000000" points="819.5,-112.5 819.5,-131.5 884.5,-131.5 884.5,-112.5 819.5,-112.5"/>
<text text-anchor="middle" x="852" y="-119.5" font-family="Helvetica,sans-Serif" font-size="10.00" fill="#000000">modules.h</text>
</a>
</g>
</g>
<!-- Node12&#45;&gt;Node13 -->
<g id="edge16" class="edge">
<title>Node12&#45;&gt;Node13</title>
<path fill="none" stroke="#191970" d="M870.9937,-168.2455C867.9265,-160.7776 863.5997,-150.2427 859.8503,-141.1137"/>
<polygon fill="#191970" stroke="#191970" points="862.9972,-139.5631 855.9604,-131.6427 856.5221,-142.2226 862.9972,-139.5631"/>
</g>
<!-- Node14 -->
<g id="node15" class="node">
<title>Node14</title>
<g id="a_node15"><a xlink:href="riot__version_8h.html" target="_top" xlink:title="Common macros and compiler attributes/pragmas configuration. ">
<polygon fill="#ffffff" stroke="#000000" points="868.5,-56.5 868.5,-75.5 949.5,-75.5 949.5,-56.5 868.5,-56.5"/>
<text text-anchor="middle" x="909" y="-63.5" font-family="Helvetica,sans-Serif" font-size="10.00" fill="#000000">riot_version.h</text>
</a>
</g>
</g>
<!-- Node12&#45;&gt;Node14 -->
<g id="edge17" class="edge">
<title>Node12&#45;&gt;Node14</title>
<path fill="none" stroke="#191970" d="M879.2526,-168.2671C883.1732,-159.0496 888.9774,-144.7591 893,-132 897.8746,-116.5387 902.1286,-98.6461 905.0224,-85.3943"/>
<polygon fill="#191970" stroke="#191970" points="908.4679,-86.018 907.117,-75.5096 901.6199,-84.5668 908.4679,-86.018"/>
</g>
<!-- Node15 -->
<g id="node16" class="node">
<title>Node15</title>
<g id="a_node16"><a xlink:href="compiler__hints_8h.html" target="_top" xlink:title="Common macros and compiler attributes/pragmas configuration. ">
<polygon fill="#ffffff" stroke="#000000" points="708.5,-112.5 708.5,-131.5 801.5,-131.5 801.5,-112.5 708.5,-112.5"/>
<text text-anchor="middle" x="755" y="-119.5" font-family="Helvetica,sans-Serif" font-size="10.00" fill="#000000">compiler_hints.h</text>
</a>
</g>
</g>
<!-- Node12&#45;&gt;Node15 -->
<g id="edge19" class="edge">
<title>Node12&#45;&gt;Node15</title>
<path fill="none" stroke="#191970" d="M854.3713,-168.3733C835.1081,-159.3838 806.1514,-145.8706 784.4581,-135.7471"/>
<polygon fill="#191970" stroke="#191970" points="785.9015,-132.5584 775.3595,-131.5011 782.9413,-138.9017 785.9015,-132.5584"/>
</g>
<!-- Node16 -->
<g id="node17" class="node">
<title>Node16</title>
<g id="a_node17"><a xlink:href="container_8h.html" target="_top" xlink:title="Common macros and compiler attributes/pragmas configuration. ">
<polygon fill="#ffffff" stroke="#000000" points="621.5,-112.5 621.5,-131.5 690.5,-131.5 690.5,-112.5 621.5,-112.5"/>
<text text-anchor="middle" x="656" y="-119.5" font-family="Helvetica,sans-Serif" font-size="10.00" fill="#000000">container.h</text>
</a>
</g>
</g>
<!-- Node12&#45;&gt;Node16 -->
<g id="edge22" class="edge">
<title>Node12&#45;&gt;Node16</title>
<path fill="none" stroke="#191970" d="M837.3526,-168.3733C799.3588,-158.6579 740.7018,-143.6589 700.4464,-133.3653"/>
<polygon fill="#191970" stroke="#191970" points="701.1876,-129.9423 690.6323,-130.8557 699.4534,-136.7241 701.1876,-129.9423"/>
</g>
<!-- Node14&#45;&gt;Node1 -->
<g id="edge18" class="edge">
<title>Node14&#45;&gt;Node1</title>
<path fill="none" stroke="#191970" d="M893.4974,-56.2455C879.842,-47.6534 859.7343,-35.0014 844.0011,-25.1018"/>
<polygon fill="#191970" stroke="#191970" points="845.6529,-22.006 835.325,-19.6427 841.9249,-27.9307 845.6529,-22.006"/>
</g>
<!-- Node15&#45;&gt;Node1 -->
<g id="edge21" class="edge">
<title>Node15&#45;&gt;Node1</title>
<path fill="none" stroke="#191970" d="M758.4136,-112.2308C763.2263,-99.0105 772.6933,-74.9043 784,-56 789.9496,-46.0526 797.7626,-35.8181 804.5893,-27.5359"/>
<polygon fill="#191970" stroke="#191970" points="807.4305,-29.5968 811.2267,-19.7054 802.0908,-25.0705 807.4305,-29.5968"/>
</g>
<!-- Node15&#45;&gt;Node6 -->
<g id="edge20" class="edge">
<title>Node15&#45;&gt;Node6</title>
<path fill="none" stroke="#191970" d="M766.3221,-112.2455C775.9223,-103.9746 789.8892,-91.9416 801.1695,-82.2232"/>
<polygon fill="#191970" stroke="#191970" points="803.516,-84.8214 808.8076,-75.6427 798.947,-79.5182 803.516,-84.8214"/>
</g>
<!-- Node16&#45;&gt;Node1 -->
<g id="edge24" class="edge">
<title>Node16&#45;&gt;Node1</title>
<path fill="none" stroke="#191970" d="M669.9825,-112.4509C698.4251,-93.0268 763.2292,-48.7703 797.6118,-25.2895"/>
<polygon fill="#191970" stroke="#191970" points="799.7687,-28.0549 806.0528,-19.5249 795.8209,-22.2742 799.7687,-28.0549"/>
</g>
<!-- Node16&#45;&gt;Node10 -->
<g id="edge23" class="edge">
<title>Node16&#45;&gt;Node10</title>
<path fill="none" stroke="#191970" d="M621.2959,-113.0026C582.0482,-102.8273 518.3486,-86.3126 477.8485,-75.8126"/>
<polygon fill="#191970" stroke="#191970" points="478.6391,-72.4019 468.0807,-73.2802 476.8823,-79.1779 478.6391,-72.4019"/>
</g>
<!-- Node18&#45;&gt;Node4 -->
<g id="edge29" class="edge">
<title>Node18&#45;&gt;Node4</title>
<path fill="none" stroke="#191970" d="M582.3484,-168.2455C582.6093,-160.9382 582.9752,-150.6944 583.2963,-141.7046"/>
<polygon fill="#191970" stroke="#191970" points="586.7964,-141.7613 583.6556,-131.6427 579.8008,-141.5113 586.7964,-141.7613"/>
</g>
<!-- Node18&#45;&gt;Node8 -->
<g id="edge27" class="edge">
<title>Node18&#45;&gt;Node8</title>
<path fill="none" stroke="#191970" d="M570.6779,-168.2455C561.0777,-159.9746 547.1108,-147.9416 535.8305,-138.2232"/>
<polygon fill="#191970" stroke="#191970" points="538.053,-135.5182 528.1924,-131.6427 533.484,-140.8214 538.053,-135.5182"/>
</g>
<!-- Node18&#45;&gt;Node10 -->
<g id="edge28" class="edge">
<title>Node18&#45;&gt;Node10</title>
<path fill="none" stroke="#191970" d="M560.2966,-170.2303C533.7288,-160.412 490.6982,-143.4192 478,-132 463.7601,-119.1943 453.4692,-99.7512 447.2172,-85.2809"/>
<polygon fill="#191970" stroke="#191970" points="450.3729,-83.7484 443.3799,-75.7892 443.8832,-86.3721 450.3729,-83.7484"/>
</g>
<!-- Node20&#45;&gt;Node1 -->
<g id="edge33" class="edge">
<title>Node20&#45;&gt;Node1</title>
<path fill="none" stroke="#191970" d="M573.6446,-399.4215C459.275,-388.6482 38,-345.2177 38,-290 38,-290 38,-290 38,-122 38,-45.6571 629.557,-17.3886 783.6565,-11.3198"/>
<polygon fill="#191970" stroke="#191970" points="784.1241,-14.8044 793.9815,-10.9208 783.8537,-7.8096 784.1241,-14.8044"/>
</g>
<!-- Node20&#45;&gt;Node4 -->
<g id="edge41" class="edge">
<title>Node20&#45;&gt;Node4</title>
<path fill="none" stroke="#191970" d="M630.2605,-399.4964C660.4604,-395.3715 707.9067,-384.5067 737,-356 759.2942,-334.1553 761,-321.2125 761,-290 761,-290 761,-290 761,-234 761,-202.7875 759.8119,-189.3035 737,-168 696.9746,-130.6213 669.9914,-147.6648 613.0256,-131.9832"/>
<polygon fill="#191970" stroke="#191970" points="613.8095,-128.5643 603.2256,-129.0449 611.7991,-135.2694 613.8095,-128.5643"/>
</g>
<!-- Node20&#45;&gt;Node8 -->
<g id="edge34" class="edge">
<title>Node20&#45;&gt;Node8</title>
<path fill="none" stroke="#191970" d="M626.4862,-392.3944C661.8427,-376.727 723,-342.0971 723,-290 723,-290 723,-290 723,-234 723,-196.5955 616.8465,-155.1781 556.944,-134.784"/>
<polygon fill="#191970" stroke="#191970" points="557.99,-131.4432 547.396,-131.5777 555.7616,-138.0791 557.99,-131.4432"/>
</g>
<!-- Node20&#45;&gt;Node10 -->
<g id="edge32" class="edge">
<title>Node20&#45;&gt;Node10</title>
<path fill="none" stroke="#191970" d="M573.6803,-398.502C522.3561,-390.6236 413.9324,-366.6481 356,-300 316.5948,-254.6664 302.6031,-222.888 327,-168 344.5523,-128.5108 385.7839,-97.8538 413.2842,-80.8569"/>
<polygon fill="#191970" stroke="#191970" points="415.2463,-83.7617 422.03,-75.6234 411.6518,-77.755 415.2463,-83.7617"/>
</g>
<!-- Node20&#45;&gt;Node12 -->
<g id="edge40" class="edge">
<title>Node20&#45;&gt;Node12</title>
<path fill="none" stroke="#191970" d="M630.3443,-397.2249C673.3482,-389.5295 752.4636,-373.4694 775,-356 828.8229,-314.2785 858.1822,-234.9246 869.4823,-197.9225"/>
<polygon fill="#191970" stroke="#191970" points="872.9694,-198.4678 872.4166,-187.8874 866.2507,-196.5032 872.9694,-198.4678"/>
</g>
<!-- Node21 -->
<g id="node22" class="node">
<title>Node21</title>
<g id="a_node22"><a xlink:href="architecture_8h.html" target="_top" xlink:title="Platform&#45;independent access to architecture details. ">
<polygon fill="#ffffff" stroke="#000000" points="181.5,-224.5 181.5,-243.5 264.5,-243.5 264.5,-224.5 181.5,-224.5"/>
<text text-anchor="middle" x="223" y="-231.5" font-family="Helvetica,sans-Serif" font-size="10.00" fill="#000000">architecture.h</text>
</a>
</g>
</g>
<!-- Node20&#45;&gt;Node21 -->
<g id="edge35" class="edge">
<title>Node20&#45;&gt;Node21</title>
<path fill="none" stroke="#191970" d="M573.9159,-399.1128C528.3135,-393.8805 435.7367,-380.9832 361,-356 307.4624,-338.1033 284.7068,-342.0091 247,-300 235.3182,-286.9853 229.1925,-267.835 226.0642,-253.5105"/>
<polygon fill="#191970" stroke="#191970" points="229.503,-252.8587 224.2137,-243.6786 222.6238,-254.1535 229.503,-252.8587"/>
</g>
<!-- Node24 -->
<g id="node25" class="node">
<title>Node24</title>
<g id="a_node25"><a xlink:href="core_2include_2thread_8h.html" target="_top" xlink:title="Threading API. ">
<polygon fill="#ffffff" stroke="#000000" points="573.5,-336.5 573.5,-355.5 630.5,-355.5 630.5,-336.5 573.5,-336.5"/>
<text text-anchor="middle" x="602" y="-343.5" font-family="Helvetica,sans-Serif" font-size="10.00" fill="#000000">thread.h</text>
</a>
</g>
</g>
<!-- Node20&#45;&gt;Node24 -->
<g id="edge42" class="edge">
<title>Node20&#45;&gt;Node24</title>
<path fill="none" stroke="#191970" d="M602,-392.2455C602,-384.9382 602,-374.6944 602,-365.7046"/>
<polygon fill="#191970" stroke="#191970" points="605.5001,-365.6426 602,-355.6427 598.5001,-365.6427 605.5001,-365.6426"/>
</g>
<!-- Node21&#45;&gt;Node1 -->
<g id="edge36" class="edge">
<title>Node21&#45;&gt;Node1</title>
<path fill="none" stroke="#191970" d="M181.1138,-228.4459C135.062,-220.4951 70.6155,-202.8137 95,-168 175.861,-52.5548 648.2069,-19.0275 783.6887,-11.7245"/>
<polygon fill="#191970" stroke="#191970" points="784.1369,-15.2059 793.9402,-11.1878 783.7708,-8.2155 784.1369,-15.2059"/>
</g>
<!-- Node21&#45;&gt;Node11 -->
<g id="edge37" class="edge">
<title>Node21&#45;&gt;Node11</title>
<path fill="none" stroke="#191970" d="M247.9264,-224.3733C271.6202,-215.2226 307.4511,-201.3844 333.8068,-191.2057"/>
<polygon fill="#191970" stroke="#191970" points="335.3314,-194.3689 343.3989,-187.5011 332.8094,-187.8389 335.3314,-194.3689"/>
</g>
<!-- Node22 -->
<g id="node23" class="node">
<title>Node22</title>
<polygon fill="#ffffff" stroke="#bfbfbf" points="104,-168.5 104,-187.5 154,-187.5 154,-168.5 104,-168.5"/>
<text text-anchor="middle" x="129" y="-175.5" font-family="Helvetica,sans-Serif" font-size="10.00" fill="#000000">limits.h</text>
</g>
<!-- Node21&#45;&gt;Node22 -->
<g id="edge38" class="edge">
<title>Node21&#45;&gt;Node22</title>
<path fill="none" stroke="#191970" d="M206.6264,-224.2455C192.0692,-215.5731 170.569,-202.7645 153.8848,-192.825"/>
<polygon fill="#191970" stroke="#191970" points="155.5683,-189.7539 145.1859,-187.6427 151.9856,-195.7676 155.5683,-189.7539"/>
</g>
<!-- Node23 -->
<g id="node24" class="node">
<title>Node23</title>
<polygon fill="#ffffff" stroke="#bfbfbf" points="172.5,-168.5 172.5,-187.5 279.5,-187.5 279.5,-168.5 172.5,-168.5"/>
<text text-anchor="middle" x="226" y="-175.5" font-family="Helvetica,sans-Serif" font-size="10.00" fill="#000000">architecture_arch.h</text>
</g>
<!-- Node21&#45;&gt;Node23 -->
<g id="edge39" class="edge">
<title>Node21&#45;&gt;Node23</title>
<path fill="none" stroke="#191970" d="M223.5226,-224.2455C223.914,-216.9382 224.4628,-206.6944 224.9444,-197.7046"/>
<polygon fill="#191970" stroke="#191970" points="228.4434,-197.8156 225.4834,-187.6427 221.4534,-197.4411 228.4434,-197.8156"/>
</g>
<!-- Node24&#45;&gt;Node5 -->
<g id="edge44" class="edge">
<title>Node24&#45;&gt;Node5</title>
<path fill="none" stroke="#191970" d="M630.6507,-340.5796C687.08,-329.9038 812.0509,-306.2606 868.8677,-295.5115"/>
<polygon fill="#191970" stroke="#191970" points="869.7922,-298.8988 878.9672,-293.6008 868.4909,-292.0208 869.7922,-298.8988"/>
</g>
<!-- Node24&#45;&gt;Node7 -->
<g id="edge45" class="edge">
<title>Node24&#45;&gt;Node7</title>
<path fill="none" stroke="#191970" d="M614.1931,-336.2455C624.6321,-327.8943 639.8655,-315.7076 652.074,-305.9408"/>
<polygon fill="#191970" stroke="#191970" points="654.3244,-308.6227 659.9467,-299.6427 649.9515,-303.1566 654.3244,-308.6227"/>
</g>
<!-- Node24&#45;&gt;Node9 -->
<g id="edge46" class="edge">
<title>Node24&#45;&gt;Node9</title>
<path fill="none" stroke="#191970" d="M598.6126,-336.2192C593.2768,-322.097 581.6677,-295.9455 564,-280 553.4933,-270.5175 522.0181,-257.0794 496.6007,-247.1749"/>
<polygon fill="#191970" stroke="#191970" points="497.8022,-243.8871 487.2122,-243.5676 495.2915,-250.4214 497.8022,-243.8871"/>
</g>
<!-- Node24&#45;&gt;Node18 -->
<g id="edge43" class="edge">
<title>Node24&#45;&gt;Node18</title>
<path fill="none" stroke="#191970" d="M600.8674,-336.4862C597.7059,-309.9293 588.7339,-234.5651 584.4007,-198.1655"/>
<polygon fill="#191970" stroke="#191970" points="587.8277,-197.344 583.17,-187.8279 580.8767,-198.1715 587.8277,-197.344"/>
</g>
<!-- Node25 -->
<g id="node26" class="node">
<title>Node25</title>
<g id="a_node26"><a xlink:href="thread__config_8h.html" target="_top" xlink:title="Thread configuration defines. ">
<polygon fill="#ffffff" stroke="#000000" points="365,-280.5 365,-299.5 455,-299.5 455,-280.5 365,-280.5"/>
<text text-anchor="middle" x="410" y="-287.5" font-family="Helvetica,sans-Serif" font-size="10.00" fill="#000000">thread_config.h</text>
</a>
</g>
</g>
<!-- Node24&#45;&gt;Node25 -->
<g id="edge47" class="edge">
<title>Node24&#45;&gt;Node25</title>
<path fill="none" stroke="#191970" d="M573.2557,-337.6162C541.3178,-328.301 489.4219,-313.1647 452.7248,-302.4614"/>
<polygon fill="#191970" stroke="#191970" points="453.3866,-299.0086 442.8065,-299.5686 451.4265,-305.7286 453.3866,-299.0086"/>
</g>
<!-- Node27 -->
<g id="node28" class="node">
<title>Node27</title>
<polygon fill="#ffffff" stroke="#bfbfbf" points="473,-280.5 473,-299.5 555,-299.5 555,-280.5 473,-280.5"/>
<text text-anchor="middle" x="514" y="-287.5" font-family="Helvetica,sans-Serif" font-size="10.00" fill="#000000">thread_arch.h</text>
</g>
<!-- Node24&#45;&gt;Node27 -->
<g id="edge50" class="edge">
<title>Node24&#45;&gt;Node27</title>
<path fill="none" stroke="#191970" d="M586.6716,-336.2455C573.1697,-327.6534 553.2878,-315.0014 537.7314,-305.1018"/>
<polygon fill="#191970" stroke="#191970" points="539.4685,-302.0587 529.1528,-299.6427 535.7103,-307.9643 539.4685,-302.0587"/>
</g>
<!-- Node25&#45;&gt;Node9 -->
<g id="edge49" class="edge">
<title>Node25&#45;&gt;Node9</title>
<path fill="none" stroke="#191970" d="M418.8835,-280.2455C426.1966,-272.2155 436.7391,-260.6394 445.4467,-251.0781"/>
<polygon fill="#191970" stroke="#191970" points="448.0727,-253.3928 452.2183,-243.6427 442.8972,-248.6795 448.0727,-253.3928"/>
</g>
<!-- Node26 -->
<g id="node27" class="node">
<title>Node26</title>
<polygon fill="#ffffff" stroke="#bfbfbf" points="505.5,-224.5 505.5,-243.5 572.5,-243.5 572.5,-224.5 505.5,-224.5"/>
<text text-anchor="middle" x="539" y="-231.5" font-family="Helvetica,sans-Serif" font-size="10.00" fill="#000000">cpu_conf.h</text>
</g>
<!-- Node25&#45;&gt;Node26 -->
<g id="edge48" class="edge">
<title>Node25&#45;&gt;Node26</title>
<path fill="none" stroke="#191970" d="M432.1759,-280.3733C452.9766,-271.3435 484.2917,-257.7494 507.6458,-247.6111"/>
<polygon fill="#191970" stroke="#191970" points="509.3343,-250.6938 517.1135,-243.5011 506.5468,-244.2727 509.3343,-250.6938"/>
</g>
<!-- Node28&#45;&gt;Node1 -->
<g id="edge52" class="edge">
<title>Node28&#45;&gt;Node1</title>
<path fill="none" stroke="#191970" d="M429.8181,-453.7023C327.4805,-438.296 0,-381.8222 0,-290 0,-290 0,-290 0,-122 0,-56.8059 68.1104,-73.1806 131,-56 255.8727,-21.8863 660.374,-12.593 783.8648,-10.5204"/>
<polygon fill="#191970" stroke="#191970" points="783.9906,-14.0189 793.9325,-10.3571 783.8771,-7.0198 783.9906,-14.0189"/>
</g>
<!-- Node28&#45;&gt;Node9 -->
<g id="edge54" class="edge">
<title>Node28&#45;&gt;Node9</title>
<path fill="none" stroke="#191970" d="M446.3703,-448.3411C409.8351,-421.2532 315.1703,-342.4633 356,-280 371.0541,-256.9695 400.471,-245.3982 424.3474,-239.6259"/>
<polygon fill="#191970" stroke="#191970" points="425.1531,-243.0326 434.1829,-237.4906 423.6679,-236.192 425.1531,-243.0326"/>
</g>
<!-- Node28&#45;&gt;Node20 -->
<g id="edge53" class="edge">
<title>Node28&#45;&gt;Node20</title>
<path fill="none" stroke="#191970" d="M484.4107,-448.3733C507.6142,-439.2226 542.7038,-425.3844 568.5142,-415.2057"/>
<polygon fill="#191970" stroke="#191970" points="569.8892,-418.4258 577.9079,-411.5011 567.3211,-411.9139 569.8892,-418.4258"/>
</g>
<!-- Node29&#45;&gt;Node2 -->
<g id="edge57" class="edge">
<title>Node29&#45;&gt;Node2</title>
<path fill="none" stroke="#191970" d="M882.0388,-560.2455C879.7962,-552.8579 876.6423,-542.4689 873.8919,-533.4087"/>
<polygon fill="#191970" stroke="#191970" points="877.1812,-532.1948 870.9272,-523.6427 870.483,-534.2282 877.1812,-532.1948"/>
</g>
<!-- Node30&#45;&gt;Node1 -->
<g id="edge60" class="edge">
<title>Node30&#45;&gt;Node1</title>
<path fill="none" stroke="#191970" d="M1051.2924,-504.4772C1055.7166,-485.2372 1065,-440.3016 1065,-402 1065,-402 1065,-402 1065,-122 1065,-85.1996 1045.8413,-76.077 1015,-56 989.1319,-39.1604 905.4091,-23.5609 856.4824,-15.5755"/>
<polygon fill="#191970" stroke="#191970" points="856.7393,-12.072 846.3111,-13.9432 855.6301,-18.9836 856.7393,-12.072"/>
</g>
</g>
</svg>
