<?xml version="1.0" encoding="UTF-8" standalone="no"?>
<!DOCTYPE svg PUBLIC "-//W3C//DTD SVG 1.1//EN"
 "http://www.w3.org/Graphics/SVG/1.1/DTD/svg11.dtd">
<!-- Generated by graphviz version 2.40.1 (0)
 -->
<!-- Title: cpu/native/include/periph_conf.h Pages: 1 -->
<svg width="230pt" height="106pt"
 viewBox="0.00 0.00 230.00 106.00" xmlns="http://www.w3.org/2000/svg" xmlns:xlink="http://www.w3.org/1999/xlink">
<g id="graph0" class="graph" transform="scale(1 1) rotate(0) translate(4 102)">
<title>cpu/native/include/periph_conf.h</title>
<polygon fill="#ffffff" stroke="transparent" points="-4,4 -4,-102 226,-102 226,4 -4,4"/>
<!-- Node2 -->
<g id="node1" class="node">
<title>Node2</title>
<polygon fill="#bfbfbf" stroke="#000000" points="60,-67.5 60,-97.5 162,-97.5 162,-67.5 60,-67.5"/>
<text text-anchor="start" x="68" y="-85.5" font-family="Helvetica,sans-Serif" font-size="10.00" fill="#000000">cpu/native/include</text>
<text text-anchor="middle" x="111" y="-74.5" font-family="Helvetica,sans-Serif" font-size="10.00" fill="#000000">/periph_conf.h</text>
</g>
<!-- Node3 -->
<g id="node2" class="node">
<title>Node3</title>
<g id="a_node2"><a xlink:href="native_2include_2periph__cpu_8h.html" target="_top" xlink:title="CPU specific definitions for internal peripheral handling. ">
<polygon fill="#ffffff" stroke="#000000" points="0,-.5 0,-30.5 102,-30.5 102,-.5 0,-.5"/>
<text text-anchor="start" x="8" y="-18.5" font-family="Helvetica,sans-Serif" font-size="10.00" fill="#000000">cpu/native/include</text>
<text text-anchor="middle" x="51" y="-7.5" font-family="Helvetica,sans-Serif" font-size="10.00" fill="#000000">/periph_cpu.h</text>
</a>
</g>
</g>
<!-- Node2&#45;&gt;Node3 -->
<g id="edge1" class="edge">
<title>Node2&#45;&gt;Node3</title>
<path fill="none" stroke="#191970" d="M90.527,-59.6385C81.954,-50.0653 72.2227,-39.1987 64.561,-30.6432"/>
<polygon fill="#191970" stroke="#191970" points="88.1065,-62.1821 97.3851,-67.2967 93.3212,-57.5122 88.1065,-62.1821"/>
</g>
<!-- Node4 -->
<g id="node3" class="node">
<title>Node4</title>
<g id="a_node3"><a xlink:href="spidev__linux_8h.html" target="_top" xlink:title="Implementation of SPI access from Linux User Space. ">
<polygon fill="#ffffff" stroke="#000000" points="120,-.5 120,-30.5 222,-30.5 222,-.5 120,-.5"/>
<text text-anchor="start" x="128" y="-18.5" font-family="Helvetica,sans-Serif" font-size="10.00" fill="#000000">cpu/native/include</text>
<text text-anchor="middle" x="171" y="-7.5" font-family="Helvetica,sans-Serif" font-size="10.00" fill="#000000">/spidev_linux.h</text>
</a>
</g>
</g>
<!-- Node2&#45;&gt;Node4 -->
<g id="edge2" class="edge">
<title>Node2&#45;&gt;Node4</title>
<path fill="none" stroke="#191970" d="M131.473,-59.6385C140.046,-50.0653 149.7773,-39.1987 157.439,-30.6432"/>
<polygon fill="#191970" stroke="#191970" points="128.6788,-57.5122 124.6149,-67.2967 133.8935,-62.1821 128.6788,-57.5122"/>
</g>
</g>
</svg>
