<?xml version="1.0" encoding="UTF-8" standalone="no"?>
<!DOCTYPE svg PUBLIC "-//W3C//DTD SVG 1.1//EN"
 "http://www.w3.org/Graphics/SVG/1.1/DTD/svg11.dtd">
<!-- Generated by graphviz version 2.40.1 (0)
 -->
<!-- Title: cpu/cc26xx_cc13xx/include/cpu_conf_cc26xx_cc13xx.h Pages: 1 -->
<svg width="1767pt" height="274pt"
 viewBox="0.00 0.00 1767.00 274.00" xmlns="http://www.w3.org/2000/svg" xmlns:xlink="http://www.w3.org/1999/xlink">
<g id="graph0" class="graph" transform="scale(1 1) rotate(0) translate(4 270)">
<title>cpu/cc26xx_cc13xx/include/cpu_conf_cc26xx_cc13xx.h</title>
<polygon fill="#ffffff" stroke="transparent" points="-4,4 -4,-270 1763,-270 1763,4 -4,4"/>
<!-- Node0 -->
<g id="node1" class="node">
<title>Node0</title>
<polygon fill="#bfbfbf" stroke="#000000" points="778,-235.5 778,-265.5 921,-265.5 921,-235.5 778,-235.5"/>
<text text-anchor="start" x="786" y="-253.5" font-family="Helvetica,sans-Serif" font-size="10.00" fill="#000000">cpu/cc26xx_cc13xx/include</text>
<text text-anchor="middle" x="849.5" y="-242.5" font-family="Helvetica,sans-Serif" font-size="10.00" fill="#000000">/cpu_conf_cc26xx_cc13xx.h</text>
</g>
<!-- Node1 -->
<g id="node2" class="node">
<title>Node1</title>
<g id="a_node2"><a xlink:href="kernel__defines_8h.html" target="_top" xlink:title="Common macros and compiler attributes/pragmas configuration. ">
<polygon fill="#ffffff" stroke="#000000" points="46,-174 46,-193 141,-193 141,-174 46,-174"/>
<text text-anchor="middle" x="93.5" y="-181" font-family="Helvetica,sans-Serif" font-size="10.00" fill="#000000">kernel_defines.h</text>
</a>
</g>
</g>
<!-- Node0&#45;&gt;Node1 -->
<g id="edge1" class="edge">
<title>Node0&#45;&gt;Node1</title>
<path fill="none" stroke="#191970" d="M777.8548,-246.9714C624.6817,-239.1415 269.6142,-219.3887 150.5,-199 145.13,-198.0808 139.5341,-196.8756 134.0374,-195.5427"/>
<polygon fill="#191970" stroke="#191970" points="134.8773,-192.1449 124.3204,-193.0398 133.1312,-198.9237 134.8773,-192.1449"/>
</g>
<!-- Node9 -->
<g id="node10" class="node">
<title>Node9</title>
<polygon fill="#ffffff" stroke="#bfbfbf" points="159.5,-174 159.5,-193 271.5,-193 271.5,-174 159.5,-174"/>
<text text-anchor="middle" x="215.5" y="-181" font-family="Helvetica,sans-Serif" font-size="10.00" fill="#000000">cpu_conf_common.h</text>
</g>
<!-- Node0&#45;&gt;Node9 -->
<g id="edge12" class="edge">
<title>Node0&#45;&gt;Node9</title>
<path fill="none" stroke="#191970" d="M777.9181,-246.8804C670.4751,-240.7899 461.347,-226.3841 285.5,-199 278.7241,-197.9448 271.6226,-196.6259 264.6494,-195.2057"/>
<polygon fill="#191970" stroke="#191970" points="265.0861,-191.7205 254.5778,-193.0713 263.6349,-198.5685 265.0861,-191.7205"/>
</g>
<!-- Node10 -->
<g id="node11" class="node">
<title>Node10</title>
<g id="a_node11"><a xlink:href="cc26xx__cc13xx_8h.html" target="_top" xlink:title="CC26xx, CC13xx definitions. ">
<polygon fill="#ffffff" stroke="#000000" points="803,-112.5 803,-131.5 896,-131.5 896,-112.5 803,-112.5"/>
<text text-anchor="middle" x="849.5" y="-119.5" font-family="Helvetica,sans-Serif" font-size="10.00" fill="#000000">cc26xx_cc13xx.h</text>
</a>
</g>
</g>
<!-- Node0&#45;&gt;Node10 -->
<g id="edge13" class="edge">
<title>Node0&#45;&gt;Node10</title>
<path fill="none" stroke="#191970" d="M777.7947,-248.7929C639.9339,-244.7663 348.789,-232.3687 318.5,-199 309.2398,-188.7982 309.1875,-178.1541 318.5,-168 350.0508,-133.5978 661.7723,-124.8492 792.3874,-122.6866"/>
<polygon fill="#191970" stroke="#191970" points="792.6482,-126.183 802.5915,-122.5251 792.5373,-119.1839 792.6482,-126.183"/>
</g>
<!-- Node12 -->
<g id="node13" class="node">
<title>Node12</title>
<g id="a_node13"><a xlink:href="cc26xx__cc13xx__adi_8h.html" target="_top" xlink:title="CC26xx/CC13xx MCU I/O register definitions. ">
<polygon fill="#ffffff" stroke="#000000" points="328,-174 328,-193 439,-193 439,-174 328,-174"/>
<text text-anchor="middle" x="383.5" y="-181" font-family="Helvetica,sans-Serif" font-size="10.00" fill="#000000">cc26xx_cc13xx_adi.h</text>
</a>
</g>
</g>
<!-- Node0&#45;&gt;Node12 -->
<g id="edge16" class="edge">
<title>Node0&#45;&gt;Node12</title>
<path fill="none" stroke="#191970" d="M777.7956,-243.6157C697.2914,-235.348 562.9411,-219.9324 448.5,-199 442.6514,-197.9302 436.5395,-196.6676 430.5041,-195.3322"/>
<polygon fill="#191970" stroke="#191970" points="431.0079,-191.857 420.479,-193.0372 429.4458,-198.6805 431.0079,-191.857"/>
</g>
<!-- Node13 -->
<g id="node14" class="node">
<title>Node13</title>
<g id="a_node14"><a xlink:href="cc26xx__cc13xx__ccfg_8h.html" target="_top" xlink:title="CC26xx/CC13xx CCFG register definitions. ">
<polygon fill="#ffffff" stroke="#000000" points="457.5,-174 457.5,-193 573.5,-193 573.5,-174 457.5,-174"/>
<text text-anchor="middle" x="515.5" y="-181" font-family="Helvetica,sans-Serif" font-size="10.00" fill="#000000">cc26xx_cc13xx_ccfg.h</text>
</a>
</g>
</g>
<!-- Node0&#45;&gt;Node13 -->
<g id="edge18" class="edge">
<title>Node0&#45;&gt;Node13</title>
<path fill="none" stroke="#191970" d="M777.961,-237.4407C724.1121,-227.4314 648.54,-213.003 582.5,-199 577.0252,-197.8391 571.309,-196.5837 565.6234,-195.3073"/>
<polygon fill="#191970" stroke="#191970" points="566.0079,-191.8055 555.4809,-193.0029 564.457,-198.6316 566.0079,-191.8055"/>
</g>
<!-- Node14 -->
<g id="node15" class="node">
<title>Node14</title>
<g id="a_node15"><a xlink:href="cc26xx__cc13xx__gpio_8h.html" target="_top" xlink:title="Driver for the cc26xx/cc13xx GPIO controller. ">
<polygon fill="#ffffff" stroke="#000000" points="591.5,-174 591.5,-193 709.5,-193 709.5,-174 591.5,-174"/>
<text text-anchor="middle" x="650.5" y="-181" font-family="Helvetica,sans-Serif" font-size="10.00" fill="#000000">cc26xx_cc13xx_gpio.h</text>
</a>
</g>
</g>
<!-- Node0&#45;&gt;Node14 -->
<g id="edge20" class="edge">
<title>Node0&#45;&gt;Node14</title>
<path fill="none" stroke="#191970" d="M804.8405,-235.4639C769.843,-223.6808 721.6816,-207.4657 688.5132,-196.2984"/>
<polygon fill="#191970" stroke="#191970" points="689.3262,-192.8791 678.7321,-193.0053 687.0926,-199.5132 689.3262,-192.8791"/>
</g>
<!-- Node15 -->
<g id="node16" class="node">
<title>Node15</title>
<g id="a_node16"><a xlink:href="cc26xx__cc13xx__gpt_8h.html" target="_top" xlink:title="definitions for the CC26xx/CC13XX GPT modules ">
<polygon fill="#ffffff" stroke="#000000" points="728,-174 728,-193 841,-193 841,-174 728,-174"/>
<text text-anchor="middle" x="784.5" y="-181" font-family="Helvetica,sans-Serif" font-size="10.00" fill="#000000">cc26xx_cc13xx_gpt.h</text>
</a>
</g>
</g>
<!-- Node0&#45;&gt;Node15 -->
<g id="edge22" class="edge">
<title>Node0&#45;&gt;Node15</title>
<path fill="none" stroke="#191970" d="M834.7505,-235.2967C824.6232,-224.8578 811.1788,-210.9997 800.7448,-200.2446"/>
<polygon fill="#191970" stroke="#191970" points="803.245,-197.7953 793.7697,-193.055 798.2208,-202.6695 803.245,-197.7953"/>
</g>
<!-- Node16 -->
<g id="node17" class="node">
<title>Node16</title>
<g id="a_node17"><a xlink:href="cc26xx__cc13xx__hard__api_8h.html" target="_top" xlink:title="CC26xx/CC13xx ROM Hard&#45;API. ">
<polygon fill="#ffffff" stroke="#000000" points="859.5,-168.5 859.5,-198.5 969.5,-198.5 969.5,-168.5 859.5,-168.5"/>
<text text-anchor="start" x="867.5" y="-186.5" font-family="Helvetica,sans-Serif" font-size="10.00" fill="#000000">cc26xx_cc13xx_hard</text>
<text text-anchor="middle" x="914.5" y="-175.5" font-family="Helvetica,sans-Serif" font-size="10.00" fill="#000000">_api.h</text>
</a>
</g>
</g>
<!-- Node0&#45;&gt;Node16 -->
<g id="edge24" class="edge">
<title>Node0&#45;&gt;Node16</title>
<path fill="none" stroke="#191970" d="M864.2495,-235.2967C872.6433,-226.6446 883.3157,-215.6438 892.6642,-206.0076"/>
<polygon fill="#191970" stroke="#191970" points="895.3578,-208.2577 899.8089,-198.6432 890.3336,-203.3835 895.3578,-208.2577"/>
</g>
<!-- Node17 -->
<g id="node18" class="node">
<title>Node17</title>
<g id="a_node18"><a xlink:href="cc26xx__cc13xx__i2c_8h.html" target="_top" xlink:title="CC26xx/CC13xx MCU I/O register definitions. ">
<polygon fill="#ffffff" stroke="#000000" points="987.5,-174 987.5,-193 1097.5,-193 1097.5,-174 987.5,-174"/>
<text text-anchor="middle" x="1042.5" y="-181" font-family="Helvetica,sans-Serif" font-size="10.00" fill="#000000">cc26xx_cc13xx_i2c.h</text>
</a>
</g>
</g>
<!-- Node0&#45;&gt;Node17 -->
<g id="edge26" class="edge">
<title>Node0&#45;&gt;Node17</title>
<path fill="none" stroke="#191970" d="M892.813,-235.4639C926.7553,-223.6808 973.4645,-207.4657 1005.6329,-196.2984"/>
<polygon fill="#191970" stroke="#191970" points="1006.82,-199.5913 1015.1191,-193.0053 1004.5243,-192.9784 1006.82,-199.5913"/>
</g>
<!-- Node18 -->
<g id="node19" class="node">
<title>Node18</title>
<g id="a_node19"><a xlink:href="cc26xx__cc13xx__ioc_8h.html" target="_top" xlink:title="CC26xx/CC13xx MCU I/O register definitions. ">
<polygon fill="#ffffff" stroke="#000000" points="1115.5,-174 1115.5,-193 1225.5,-193 1225.5,-174 1115.5,-174"/>
<text text-anchor="middle" x="1170.5" y="-181" font-family="Helvetica,sans-Serif" font-size="10.00" fill="#000000">cc26xx_cc13xx_ioc.h</text>
</a>
</g>
</g>
<!-- Node0&#45;&gt;Node18 -->
<g id="edge28" class="edge">
<title>Node0&#45;&gt;Node18</title>
<path fill="none" stroke="#191970" d="M921.1152,-236.9423C972.759,-226.9723 1044.0743,-212.8083 1106.5,-199 1111.6016,-197.8715 1116.9215,-196.652 1122.2191,-195.4098"/>
<polygon fill="#191970" stroke="#191970" points="1123.3957,-198.7278 1132.316,-193.0112 1121.7778,-191.9173 1123.3957,-198.7278"/>
</g>
<!-- Node19 -->
<g id="node20" class="node">
<title>Node19</title>
<g id="a_node20"><a xlink:href="cc26xx__cc13xx__rfc_8h.html" target="_top" xlink:title="CC26xx/CC13xx MCU I/O register definitions. ">
<polygon fill="#ffffff" stroke="#000000" points="1243.5,-174 1243.5,-193 1353.5,-193 1353.5,-174 1243.5,-174"/>
<text text-anchor="middle" x="1298.5" y="-181" font-family="Helvetica,sans-Serif" font-size="10.00" fill="#000000">cc26xx_cc13xx_rfc.h</text>
</a>
</g>
</g>
<!-- Node0&#45;&gt;Node19 -->
<g id="edge30" class="edge">
<title>Node0&#45;&gt;Node19</title>
<path fill="none" stroke="#191970" d="M921.1689,-243.1827C998.7553,-234.7335 1125.9644,-219.3444 1234.5,-199 1240.2588,-197.9205 1246.2768,-196.6521 1252.2194,-195.3136"/>
<polygon fill="#191970" stroke="#191970" points="1253.1443,-198.6919 1262.0903,-193.0158 1251.5571,-191.8742 1253.1443,-198.6919"/>
</g>
<!-- Node20 -->
<g id="node21" class="node">
<title>Node20</title>
<g id="a_node21"><a xlink:href="cc26xx__cc13xx__uart_8h.html" target="_top" xlink:title="CC26xx/CC13xx UART interface. ">
<polygon fill="#ffffff" stroke="#000000" points="1372,-174 1372,-193 1489,-193 1489,-174 1372,-174"/>
<text text-anchor="middle" x="1430.5" y="-181" font-family="Helvetica,sans-Serif" font-size="10.00" fill="#000000">cc26xx_cc13xx_uart.h</text>
</a>
</g>
</g>
<!-- Node0&#45;&gt;Node20 -->
<g id="edge32" class="edge">
<title>Node0&#45;&gt;Node20</title>
<path fill="none" stroke="#191970" d="M921.2381,-246.1181C1020.7629,-239.3989 1206.1436,-224.5671 1362.5,-199 1369.0835,-197.9235 1375.9828,-196.5924 1382.757,-195.1663"/>
<polygon fill="#191970" stroke="#191970" points="1383.5195,-198.5823 1392.5412,-193.0273 1382.0244,-191.7438 1383.5195,-198.5823"/>
</g>
<!-- Node21 -->
<g id="node22" class="node">
<title>Node21</title>
<g id="a_node22"><a xlink:href="cc26xx__cc13xx__vims_8h.html" target="_top" xlink:title="CC26xx/CC13xx VIMS register definitions. ">
<polygon fill="#ffffff" stroke="#000000" points="1507,-174 1507,-193 1626,-193 1626,-174 1507,-174"/>
<text text-anchor="middle" x="1566.5" y="-181" font-family="Helvetica,sans-Serif" font-size="10.00" fill="#000000">cc26xx_cc13xx_vims.h</text>
</a>
</g>
</g>
<!-- Node0&#45;&gt;Node21 -->
<g id="edge34" class="edge">
<title>Node0&#45;&gt;Node21</title>
<path fill="none" stroke="#191970" d="M921.4375,-248.1965C1041.5785,-243.5893 1290.4017,-230.8022 1498.5,-199 1505.2552,-197.9676 1512.3369,-196.6371 1519.2728,-195.1901"/>
<polygon fill="#191970" stroke="#191970" points="1520.2512,-198.5591 1529.2753,-193.0079 1518.759,-191.7199 1520.2512,-198.5591"/>
</g>
<!-- Node22 -->
<g id="node23" class="node">
<title>Node22</title>
<g id="a_node23"><a xlink:href="cc26xx__cc13xx__wdt_8h.html" target="_top" xlink:title="CC26xx/CC13xx WDT register definitions. ">
<polygon fill="#ffffff" stroke="#000000" points="1644,-174 1644,-193 1759,-193 1759,-174 1644,-174"/>
<text text-anchor="middle" x="1701.5" y="-181" font-family="Helvetica,sans-Serif" font-size="10.00" fill="#000000">cc26xx_cc13xx_wdt.h</text>
</a>
</g>
</g>
<!-- Node0&#45;&gt;Node22 -->
<g id="edge35" class="edge">
<title>Node0&#45;&gt;Node22</title>
<path fill="none" stroke="#191970" d="M921.1194,-247.326C1087.9816,-239.6851 1498.8079,-219.3862 1635.5,-199 1642.1483,-198.0085 1649.1149,-196.688 1655.927,-195.2346"/>
<polygon fill="#191970" stroke="#191970" points="1656.7503,-198.637 1665.7417,-193.033 1655.2181,-191.8067 1656.7503,-198.637"/>
</g>
<!-- Node2 -->
<g id="node3" class="node">
<title>Node2</title>
<g id="a_node3"><a xlink:href="modules_8h.html" target="_top" xlink:title="Common macros and compiler attributes/pragmas configuration. ">
<polygon fill="#ffffff" stroke="#000000" points="0,-112.5 0,-131.5 65,-131.5 65,-112.5 0,-112.5"/>
<text text-anchor="middle" x="32.5" y="-119.5" font-family="Helvetica,sans-Serif" font-size="10.00" fill="#000000">modules.h</text>
</a>
</g>
</g>
<!-- Node1&#45;&gt;Node2 -->
<g id="edge2" class="edge">
<title>Node1&#45;&gt;Node2</title>
<path fill="none" stroke="#191970" d="M83.9688,-173.8906C74.7121,-164.5581 60.461,-150.1902 49.2997,-138.9374"/>
<polygon fill="#191970" stroke="#191970" points="51.6928,-136.38 42.1656,-131.7449 46.7228,-141.3095 51.6928,-136.38"/>
</g>
<!-- Node3 -->
<g id="node4" class="node">
<title>Node3</title>
<g id="a_node4"><a xlink:href="riot__version_8h.html" target="_top" xlink:title="Common macros and compiler attributes/pragmas configuration. ">
<polygon fill="#ffffff" stroke="#000000" points="53,-56.5 53,-75.5 134,-75.5 134,-56.5 53,-56.5"/>
<text text-anchor="middle" x="93.5" y="-63.5" font-family="Helvetica,sans-Serif" font-size="10.00" fill="#000000">riot_version.h</text>
</a>
</g>
</g>
<!-- Node1&#45;&gt;Node3 -->
<g id="edge3" class="edge">
<title>Node1&#45;&gt;Node3</title>
<path fill="none" stroke="#191970" d="M93.5,-173.8845C93.5,-154.6913 93.5,-111.286 93.5,-85.7663"/>
<polygon fill="#191970" stroke="#191970" points="97.0001,-85.7483 93.5,-75.7484 90.0001,-85.7484 97.0001,-85.7483"/>
</g>
<!-- Node5 -->
<g id="node6" class="node">
<title>Node5</title>
<g id="a_node6"><a xlink:href="compiler__hints_8h.html" target="_top" xlink:title="Common macros and compiler attributes/pragmas configuration. ">
<polygon fill="#ffffff" stroke="#000000" points="122,-112.5 122,-131.5 215,-131.5 215,-112.5 122,-112.5"/>
<text text-anchor="middle" x="168.5" y="-119.5" font-family="Helvetica,sans-Serif" font-size="10.00" fill="#000000">compiler_hints.h</text>
</a>
</g>
</g>
<!-- Node1&#45;&gt;Node5 -->
<g id="edge5" class="edge">
<title>Node1&#45;&gt;Node5</title>
<path fill="none" stroke="#191970" d="M105.2188,-173.8906C116.8188,-164.3786 134.7979,-149.6357 148.6321,-138.2917"/>
<polygon fill="#191970" stroke="#191970" points="151.1026,-140.7921 156.616,-131.7449 146.664,-135.3792 151.1026,-140.7921"/>
</g>
<!-- Node7 -->
<g id="node8" class="node">
<title>Node7</title>
<g id="a_node8"><a xlink:href="container_8h.html" target="_top" xlink:title="Common macros and compiler attributes/pragmas configuration. ">
<polygon fill="#ffffff" stroke="#000000" points="238,-112.5 238,-131.5 307,-131.5 307,-112.5 238,-112.5"/>
<text text-anchor="middle" x="272.5" y="-119.5" font-family="Helvetica,sans-Serif" font-size="10.00" fill="#000000">container.h</text>
</a>
</g>
</g>
<!-- Node1&#45;&gt;Node7 -->
<g id="edge9" class="edge">
<title>Node1&#45;&gt;Node7</title>
<path fill="none" stroke="#191970" d="M121.4688,-173.8906C152.0755,-163.3749 201.2899,-146.466 235.1741,-134.8243"/>
<polygon fill="#191970" stroke="#191970" points="236.4076,-138.1014 244.7276,-131.5419 234.133,-131.4812 236.4076,-138.1014"/>
</g>
<!-- Node4 -->
<g id="node5" class="node">
<title>Node4</title>
<polygon fill="#ffffff" stroke="#bfbfbf" points="191.5,-.5 191.5,-19.5 243.5,-19.5 243.5,-.5 191.5,-.5"/>
<text text-anchor="middle" x="217.5" y="-7.5" font-family="Helvetica,sans-Serif" font-size="10.00" fill="#000000">stdint.h</text>
</g>
<!-- Node3&#45;&gt;Node4 -->
<g id="edge4" class="edge">
<title>Node3&#45;&gt;Node4</title>
<path fill="none" stroke="#191970" d="M114.8164,-56.3733C134.7216,-47.3838 164.6436,-33.8706 187.06,-23.7471"/>
<polygon fill="#191970" stroke="#191970" points="188.7887,-26.8068 196.4618,-19.5011 185.9075,-20.4272 188.7887,-26.8068"/>
</g>
<!-- Node5&#45;&gt;Node4 -->
<g id="edge8" class="edge">
<title>Node5&#45;&gt;Node4</title>
<path fill="none" stroke="#191970" d="M169.0089,-112.1678C170.0088,-98.8761 172.9453,-74.6893 181.5,-56 186.2615,-45.5976 193.8174,-35.4304 200.7803,-27.3113"/>
<polygon fill="#191970" stroke="#191970" points="203.5773,-29.436 207.6796,-19.6676 198.381,-24.7457 203.5773,-29.436"/>
</g>
<!-- Node6 -->
<g id="node7" class="node">
<title>Node6</title>
<g id="a_node7"><a xlink:href="assert_8h.html" target="_top" xlink:title="POSIX.1&#45;2008 compliant version of the assert macro. ">
<polygon fill="#ffffff" stroke="#000000" points="190.5,-56.5 190.5,-75.5 244.5,-75.5 244.5,-56.5 190.5,-56.5"/>
<text text-anchor="middle" x="217.5" y="-63.5" font-family="Helvetica,sans-Serif" font-size="10.00" fill="#000000">assert.h</text>
</a>
</g>
</g>
<!-- Node5&#45;&gt;Node6 -->
<g id="edge6" class="edge">
<title>Node5&#45;&gt;Node6</title>
<path fill="none" stroke="#191970" d="M177.0351,-112.2455C183.9912,-104.2958 193.9883,-92.8706 202.3051,-83.3656"/>
<polygon fill="#191970" stroke="#191970" points="205.1116,-85.4732 209.0627,-75.6427 199.8436,-80.8637 205.1116,-85.4732"/>
</g>
<!-- Node6&#45;&gt;Node4 -->
<g id="edge7" class="edge">
<title>Node6&#45;&gt;Node4</title>
<path fill="none" stroke="#191970" d="M217.5,-56.2455C217.5,-48.9382 217.5,-38.6944 217.5,-29.7046"/>
<polygon fill="#191970" stroke="#191970" points="221.0001,-29.6426 217.5,-19.6427 214.0001,-29.6427 221.0001,-29.6426"/>
</g>
<!-- Node7&#45;&gt;Node4 -->
<g id="edge11" class="edge">
<title>Node7&#45;&gt;Node4</title>
<path fill="none" stroke="#191970" d="M270.8896,-112.1678C268.4459,-98.8762 263.0448,-74.6895 253.5,-56 248.2967,-45.8114 240.6883,-35.6696 233.8051,-27.5119"/>
<polygon fill="#191970" stroke="#191970" points="236.2602,-25.0039 227.0257,-19.8102 231.0058,-29.629 236.2602,-25.0039"/>
</g>
<!-- Node8 -->
<g id="node9" class="node">
<title>Node8</title>
<polygon fill="#ffffff" stroke="#bfbfbf" points="300.5,-56.5 300.5,-75.5 356.5,-75.5 356.5,-56.5 300.5,-56.5"/>
<text text-anchor="middle" x="328.5" y="-63.5" font-family="Helvetica,sans-Serif" font-size="10.00" fill="#000000">stddef.h</text>
</g>
<!-- Node7&#45;&gt;Node8 -->
<g id="edge10" class="edge">
<title>Node7&#45;&gt;Node8</title>
<path fill="none" stroke="#191970" d="M282.2545,-112.2455C290.3648,-104.1352 302.0925,-92.4075 311.7081,-82.7919"/>
<polygon fill="#191970" stroke="#191970" points="314.2611,-85.1887 318.8573,-75.6427 309.3113,-80.2389 314.2611,-85.1887"/>
</g>
<!-- Node10&#45;&gt;Node4 -->
<g id="edge14" class="edge">
<title>Node10&#45;&gt;Node4</title>
<path fill="none" stroke="#191970" d="M802.7709,-113.7189C682.1377,-92.3409 362.1524,-35.6346 253.8906,-16.449"/>
<polygon fill="#191970" stroke="#191970" points="254.2522,-12.9586 243.7949,-14.6599 253.0307,-19.8512 254.2522,-12.9586"/>
</g>
<!-- Node11 -->
<g id="node12" class="node">
<title>Node11</title>
<polygon fill="#ffffff" stroke="#bfbfbf" points="814,-56.5 814,-75.5 885,-75.5 885,-56.5 814,-56.5"/>
<text text-anchor="middle" x="849.5" y="-63.5" font-family="Helvetica,sans-Serif" font-size="10.00" fill="#000000">core_cm3.h</text>
</g>
<!-- Node10&#45;&gt;Node11 -->
<g id="edge15" class="edge">
<title>Node10&#45;&gt;Node11</title>
<path fill="none" stroke="#191970" d="M849.5,-112.2455C849.5,-104.9382 849.5,-94.6944 849.5,-85.7046"/>
<polygon fill="#191970" stroke="#191970" points="853.0001,-85.6426 849.5,-75.6427 846.0001,-85.6427 853.0001,-85.6426"/>
</g>
<!-- Node12&#45;&gt;Node10 -->
<g id="edge17" class="edge">
<title>Node12&#45;&gt;Node10</title>
<path fill="none" stroke="#191970" d="M420.1216,-173.9559C429.3396,-171.7778 439.2452,-169.6282 448.5,-168 570.3607,-146.5605 714.8879,-132.8124 792.8403,-126.3451"/>
<polygon fill="#191970" stroke="#191970" points="793.2488,-129.8234 802.9294,-125.518 792.6768,-122.8469 793.2488,-129.8234"/>
</g>
<!-- Node13&#45;&gt;Node10 -->
<g id="edge19" class="edge">
<title>Node13&#45;&gt;Node10</title>
<path fill="none" stroke="#191970" d="M555.0988,-173.9473C564.0868,-171.8883 573.6053,-169.7936 582.5,-168 654.6232,-153.4567 738.2907,-139.5122 792.4689,-130.8643"/>
<polygon fill="#191970" stroke="#191970" points="793.2391,-134.286 802.5657,-129.2596 792.1402,-127.3727 793.2391,-134.286"/>
</g>
<!-- Node14&#45;&gt;Node10 -->
<g id="edge21" class="edge">
<title>Node14&#45;&gt;Node10</title>
<path fill="none" stroke="#191970" d="M681.5938,-173.8906C715.9124,-163.2846 771.2743,-146.1753 808.9698,-134.5257"/>
<polygon fill="#191970" stroke="#191970" points="810.1039,-137.8386 818.6246,-131.5419 808.037,-131.1507 810.1039,-137.8386"/>
</g>
<!-- Node15&#45;&gt;Node10 -->
<g id="edge23" class="edge">
<title>Node15&#45;&gt;Node10</title>
<path fill="none" stroke="#191970" d="M794.6563,-173.8906C804.5199,-164.5581 819.7055,-150.1902 831.5987,-138.9374"/>
<polygon fill="#191970" stroke="#191970" points="834.3421,-141.1601 839.2006,-131.7449 829.5311,-136.0753 834.3421,-141.1601"/>
</g>
<!-- Node16&#45;&gt;Node10 -->
<g id="edge25" class="edge">
<title>Node16&#45;&gt;Node10</title>
<path fill="none" stroke="#191970" d="M898.4326,-168.2977C889.034,-159.4052 877.1473,-148.1586 867.443,-138.9769"/>
<polygon fill="#191970" stroke="#191970" points="869.5768,-136.1774 859.9073,-131.8469 864.7658,-141.2621 869.5768,-136.1774"/>
</g>
<!-- Node17&#45;&gt;Node10 -->
<g id="edge27" class="edge">
<title>Node17&#45;&gt;Node10</title>
<path fill="none" stroke="#191970" d="M1012.3438,-173.8906C979.2015,-163.3298 925.8238,-146.3208 889.2758,-134.6747"/>
<polygon fill="#191970" stroke="#191970" points="890.0351,-131.2433 879.4445,-131.5419 887.9098,-137.9129 890.0351,-131.2433"/>
</g>
<!-- Node18&#45;&gt;Node10 -->
<g id="edge29" class="edge">
<title>Node18&#45;&gt;Node10</title>
<path fill="none" stroke="#191970" d="M1132.6832,-173.9402C1124.0972,-171.8816 1115.0024,-169.7888 1106.5,-168 1037.8867,-153.5647 958.3575,-139.7791 906.1561,-131.1285"/>
<polygon fill="#191970" stroke="#191970" points="906.5279,-127.6426 896.0915,-129.4682 905.3885,-134.5493 906.5279,-127.6426"/>
</g>
<!-- Node19&#45;&gt;Node10 -->
<g id="edge31" class="edge">
<title>Node19&#45;&gt;Node10</title>
<path fill="none" stroke="#191970" d="M1262.4432,-173.9753C1253.367,-171.7967 1243.6134,-169.642 1234.5,-168 1118.8688,-147.1659 981.9449,-133.358 906.5141,-126.6802"/>
<polygon fill="#191970" stroke="#191970" points="906.5543,-123.1704 896.2872,-125.7852 905.944,-130.1438 906.5543,-123.1704"/>
</g>
<!-- Node20&#45;&gt;Node10 -->
<g id="edge33" class="edge">
<title>Node20&#45;&gt;Node10</title>
<path fill="none" stroke="#191970" d="M1392.909,-173.9812C1383.0646,-171.7501 1372.4267,-169.5691 1362.5,-168 1197.9826,-141.9951 1001.285,-129.4799 906.3337,-124.5914"/>
<polygon fill="#191970" stroke="#191970" points="906.2553,-121.083 896.0913,-124.0734 905.9017,-128.0741 906.2553,-121.083"/>
</g>
<!-- Node22&#45;&gt;Node10 -->
<g id="edge36" class="edge">
<title>Node22&#45;&gt;Node10</title>
<path fill="none" stroke="#191970" d="M1665.7485,-173.9208C1656.0022,-171.6342 1645.4002,-169.4413 1635.5,-168 1494.5948,-147.4872 1062.462,-129.8959 906.4376,-124.0567"/>
<polygon fill="#191970" stroke="#191970" points="906.2501,-120.5473 896.1268,-123.6729 905.9897,-127.5425 906.2501,-120.5473"/>
</g>
</g>
</svg>
