<?xml version="1.0" encoding="UTF-8" standalone="no"?>
<!DOCTYPE svg PUBLIC "-//W3C//DTD SVG 1.1//EN"
 "http://www.w3.org/Graphics/SVG/1.1/DTD/svg11.dtd">
<!-- Generated by graphviz version 2.40.1 (0)
 -->
<!-- Title: cpu/stm32/include/periph/cpu_uart.h Pages: 1 -->
<svg width="257pt" height="151pt"
 viewBox="0.00 0.00 257.16 151.00" xmlns="http://www.w3.org/2000/svg" xmlns:xlink="http://www.w3.org/1999/xlink">
<g id="graph0" class="graph" transform="scale(1 1) rotate(0) translate(4 147)">
<title>cpu/stm32/include/periph/cpu_uart.h</title>
<polygon fill="#ffffff" stroke="transparent" points="-4,4 -4,-147 253.1648,-147 253.1648,4 -4,4"/>
<!-- Node0 -->
<g id="node1" class="node">
<title>Node0</title>
<polygon fill="#bfbfbf" stroke="#000000" points="54.9262,-112.5 54.9262,-142.5 191.9262,-142.5 191.9262,-112.5 54.9262,-112.5"/>
<text text-anchor="start" x="62.9262" y="-130.5" font-family="Helvetica,sans-Serif" font-size="10.00" fill="#000000">cpu/stm32/include/periph</text>
<text text-anchor="middle" x="123.4262" y="-119.5" font-family="Helvetica,sans-Serif" font-size="10.00" fill="#000000">/cpu_uart.h</text>
</g>
<!-- Node1 -->
<g id="node2" class="node">
<title>Node1</title>
<polygon fill="#ffffff" stroke="#bfbfbf" points="2.4262,-.5 2.4262,-19.5 54.4262,-19.5 54.4262,-.5 2.4262,-.5"/>
<text text-anchor="middle" x="28.4262" y="-7.5" font-family="Helvetica,sans-Serif" font-size="10.00" fill="#000000">stdint.h</text>
</g>
<!-- Node0&#45;&gt;Node1 -->
<g id="edge1" class="edge">
<title>Node0&#45;&gt;Node1</title>
<path fill="none" stroke="#191970" d="M54.7334,-112.9793C35.1739,-105.328 16.0437,-93.6865 4.4262,-76 -5.3478,-61.1201 3.8357,-41.7429 13.5307,-27.8395"/>
<polygon fill="#191970" stroke="#191970" points="16.5284,-29.6788 19.7815,-19.5957 10.9506,-25.4494 16.5284,-29.6788"/>
</g>
<!-- Node2 -->
<g id="node3" class="node">
<title>Node2</title>
<polygon fill="#ffffff" stroke="#bfbfbf" points="79.4262,-.5 79.4262,-19.5 121.4262,-19.5 121.4262,-.5 79.4262,-.5"/>
<text text-anchor="middle" x="100.4262" y="-7.5" font-family="Helvetica,sans-Serif" font-size="10.00" fill="#000000">cpu.h</text>
</g>
<!-- Node0&#45;&gt;Node2 -->
<g id="edge2" class="edge">
<title>Node0&#45;&gt;Node2</title>
<path fill="none" stroke="#191970" d="M191.4324,-112.4122C228.283,-100.8947 262.7085,-82.4581 243.4262,-56 230.1584,-37.7947 169.6752,-23.2121 131.744,-15.6534"/>
<polygon fill="#191970" stroke="#191970" points="132.1842,-12.1737 121.7015,-13.7106 130.8546,-19.0463 132.1842,-12.1737"/>
</g>
<!-- Node3 -->
<g id="node4" class="node">
<title>Node3</title>
<g id="a_node4"><a xlink:href="cpu__dma_8h.html" target="_top" xlink:title="DMA CPU specific definitions for the STM32 family. ">
<polygon fill="#ffffff" stroke="#000000" points="132.9262,-56.5 132.9262,-75.5 233.9262,-75.5 233.9262,-56.5 132.9262,-56.5"/>
<text text-anchor="middle" x="183.4262" y="-63.5" font-family="Helvetica,sans-Serif" font-size="10.00" fill="#000000">periph/cpu_dma.h</text>
</a>
</g>
</g>
<!-- Node0&#45;&gt;Node3 -->
<g id="edge3" class="edge">
<title>Node0&#45;&gt;Node3</title>
<path fill="none" stroke="#191970" d="M138.2576,-112.2977C146.8465,-103.4941 157.6864,-92.3833 166.5941,-83.2529"/>
<polygon fill="#191970" stroke="#191970" points="169.3414,-85.4489 173.8194,-75.8469 164.3309,-80.5606 169.3414,-85.4489"/>
</g>
<!-- Node4 -->
<g id="node5" class="node">
<title>Node4</title>
<g id="a_node5"><a xlink:href="cpu__gpio_8h.html" target="_top" xlink:title="GPIO CPU definitions for the STM32 family. ">
<polygon fill="#ffffff" stroke="#000000" points="13.9262,-56.5 13.9262,-75.5 114.9262,-75.5 114.9262,-56.5 13.9262,-56.5"/>
<text text-anchor="middle" x="64.4262" y="-63.5" font-family="Helvetica,sans-Serif" font-size="10.00" fill="#000000">periph/cpu_gpio.h</text>
</a>
</g>
</g>
<!-- Node0&#45;&gt;Node4 -->
<g id="edge4" class="edge">
<title>Node0&#45;&gt;Node4</title>
<path fill="none" stroke="#191970" d="M108.8419,-112.2977C100.3962,-103.4941 89.7369,-92.3833 80.9778,-83.2529"/>
<polygon fill="#191970" stroke="#191970" points="83.3214,-80.6402 73.8728,-75.8469 78.27,-85.4862 83.3214,-80.6402"/>
</g>
<!-- Node4&#45;&gt;Node1 -->
<g id="edge5" class="edge">
<title>Node4&#45;&gt;Node1</title>
<path fill="none" stroke="#191970" d="M58.1555,-56.2455C53.1998,-48.5367 46.1432,-37.5598 40.1486,-28.2348"/>
<polygon fill="#191970" stroke="#191970" points="42.9768,-26.1618 34.625,-19.6427 37.0885,-29.9471 42.9768,-26.1618"/>
</g>
<!-- Node4&#45;&gt;Node2 -->
<g id="edge6" class="edge">
<title>Node4&#45;&gt;Node2</title>
<path fill="none" stroke="#191970" d="M70.6969,-56.2455C75.6526,-48.5367 82.7092,-37.5598 88.7038,-28.2348"/>
<polygon fill="#191970" stroke="#191970" points="91.7638,-29.9471 94.2273,-19.6427 85.8756,-26.1618 91.7638,-29.9471"/>
</g>
</g>
</svg>
