<?xml version="1.0" encoding="UTF-8" standalone="no"?>
<!DOCTYPE svg PUBLIC "-//W3C//DTD SVG 1.1//EN"
 "http://www.w3.org/Graphics/SVG/1.1/DTD/svg11.dtd">
<!-- Generated by graphviz version 2.40.1 (0)
 -->
<!-- Title: sys/include/net/sock/dtls/creds.h Pages: 1 -->
<svg width="993pt" height="375pt"
 viewBox="0.00 0.00 993.00 375.00" xmlns="http://www.w3.org/2000/svg" xmlns:xlink="http://www.w3.org/1999/xlink">
<g id="graph0" class="graph" transform="scale(1 1) rotate(0) translate(4 371)">
<title>sys/include/net/sock/dtls/creds.h</title>
<polygon fill="#ffffff" stroke="transparent" points="-4,4 -4,-371 989,-371 989,4 -4,4"/>
<!-- Node0 -->
<g id="node1" class="node">
<title>Node0</title>
<polygon fill="#bfbfbf" stroke="#000000" points="552.5,-336.5 552.5,-366.5 663.5,-366.5 663.5,-336.5 552.5,-336.5"/>
<text text-anchor="start" x="560.5" y="-354.5" font-family="Helvetica,sans-Serif" font-size="10.00" fill="#000000">sys/include/net/sock</text>
<text text-anchor="middle" x="608" y="-343.5" font-family="Helvetica,sans-Serif" font-size="10.00" fill="#000000">/dtls/creds.h</text>
</g>
<!-- Node1 -->
<g id="node2" class="node">
<title>Node1</title>
<g id="a_node2"><a xlink:href="sock_2udp_8h.html" target="_top" xlink:title="UDP sock definitions. ">
<polygon fill="#ffffff" stroke="#000000" points="564.5,-280.5 564.5,-299.5 651.5,-299.5 651.5,-280.5 564.5,-280.5"/>
<text text-anchor="middle" x="608" y="-287.5" font-family="Helvetica,sans-Serif" font-size="10.00" fill="#000000">net/sock/udp.h</text>
</a>
</g>
</g>
<!-- Node0&#45;&gt;Node1 -->
<g id="edge1" class="edge">
<title>Node0&#45;&gt;Node1</title>
<path fill="none" stroke="#191970" d="M608,-336.2977C608,-328.3834 608,-318.6043 608,-310.0759"/>
<polygon fill="#191970" stroke="#191970" points="611.5001,-309.8469 608,-299.8469 604.5001,-309.847 611.5001,-309.8469"/>
</g>
<!-- Node2 -->
<g id="node3" class="node">
<title>Node2</title>
<g id="a_node3"><a xlink:href="assert_8h.html" target="_top" xlink:title="POSIX.1&#45;2008 compliant version of the assert macro. ">
<polygon fill="#ffffff" stroke="#000000" points="203,-168.5 203,-187.5 257,-187.5 257,-168.5 203,-168.5"/>
<text text-anchor="middle" x="230" y="-175.5" font-family="Helvetica,sans-Serif" font-size="10.00" fill="#000000">assert.h</text>
</a>
</g>
</g>
<!-- Node1&#45;&gt;Node2 -->
<g id="edge2" class="edge">
<title>Node1&#45;&gt;Node2</title>
<path fill="none" stroke="#191970" d="M566.7884,-280.4508C529.9474,-271.6952 474.5904,-257.9983 427,-244 370.3375,-227.3332 305.5627,-204.9851 266.2358,-191.0424"/>
<polygon fill="#191970" stroke="#191970" points="267.161,-187.6567 256.5663,-187.6017 264.8143,-194.2517 267.161,-187.6567"/>
</g>
<!-- Node3 -->
<g id="node4" class="node">
<title>Node3</title>
<polygon fill="#ffffff" stroke="#bfbfbf" points="248,-.5 248,-19.5 300,-19.5 300,-.5 248,-.5"/>
<text text-anchor="middle" x="274" y="-7.5" font-family="Helvetica,sans-Serif" font-size="10.00" fill="#000000">stdint.h</text>
</g>
<!-- Node1&#45;&gt;Node3 -->
<g id="edge5" class="edge">
<title>Node1&#45;&gt;Node3</title>
<path fill="none" stroke="#191970" d="M606.5192,-280.4276C599.7752,-236.9561 572.1178,-60.0602 568,-56 549.8548,-38.1088 385.0527,-20.4724 310.4256,-13.3248"/>
<polygon fill="#191970" stroke="#191970" points="310.3828,-9.8052 300.0976,-12.3476 309.7234,-16.7741 310.3828,-9.8052"/>
</g>
<!-- Node4 -->
<g id="node5" class="node">
<title>Node4</title>
<g id="a_node5"><a xlink:href="errno_8h.html" target="_top" xlink:title="errno.h">
<polygon fill="#ffffff" stroke="#000000" points="609.5,-224.5 609.5,-243.5 662.5,-243.5 662.5,-224.5 609.5,-224.5"/>
<text text-anchor="middle" x="636" y="-231.5" font-family="Helvetica,sans-Serif" font-size="10.00" fill="#000000">errno.h</text>
</a>
</g>
</g>
<!-- Node1&#45;&gt;Node4 -->
<g id="edge4" class="edge">
<title>Node1&#45;&gt;Node4</title>
<path fill="none" stroke="#191970" d="M612.8772,-280.2455C616.6513,-272.6973 621.9921,-262.0158 626.5901,-252.8197"/>
<polygon fill="#191970" stroke="#191970" points="629.837,-254.1522 631.1787,-243.6427 623.576,-251.0217 629.837,-254.1522"/>
</g>
<!-- Node5 -->
<g id="node6" class="node">
<title>Node5</title>
<polygon fill="#ffffff" stroke="#bfbfbf" points="681,-224.5 681,-243.5 731,-243.5 731,-224.5 681,-224.5"/>
<text text-anchor="middle" x="706" y="-231.5" font-family="Helvetica,sans-Serif" font-size="10.00" fill="#000000">stdlib.h</text>
</g>
<!-- Node1&#45;&gt;Node5 -->
<g id="edge6" class="edge">
<title>Node1&#45;&gt;Node5</title>
<path fill="none" stroke="#191970" d="M625.0703,-280.2455C640.247,-271.5731 662.6621,-258.7645 680.0563,-248.825"/>
<polygon fill="#191970" stroke="#191970" points="682.1794,-251.643 689.1253,-243.6427 678.7064,-245.5653 682.1794,-251.643"/>
</g>
<!-- Node6 -->
<g id="node7" class="node">
<title>Node6</title>
<polygon fill="#ffffff" stroke="#bfbfbf" points="749.5,-224.5 749.5,-243.5 818.5,-243.5 818.5,-224.5 749.5,-224.5"/>
<text text-anchor="middle" x="784" y="-231.5" font-family="Helvetica,sans-Serif" font-size="10.00" fill="#000000">sys/types.h</text>
</g>
<!-- Node1&#45;&gt;Node6 -->
<g id="edge7" class="edge">
<title>Node1&#45;&gt;Node6</title>
<path fill="none" stroke="#191970" d="M638.2555,-280.3733C667.6483,-271.021 712.4292,-256.7725 744.5934,-246.5385"/>
<polygon fill="#191970" stroke="#191970" points="745.6713,-249.8685 754.1393,-243.5011 743.5488,-243.198 745.6713,-249.8685"/>
</g>
<!-- Node7 -->
<g id="node8" class="node">
<title>Node7</title>
<g id="a_node8"><a xlink:href="af_8h.html" target="_top" xlink:title="Global UNIX address family definitions. ">
<polygon fill="#ffffff" stroke="#000000" points="837,-224.5 837,-243.5 891,-243.5 891,-224.5 837,-224.5"/>
<text text-anchor="middle" x="864" y="-231.5" font-family="Helvetica,sans-Serif" font-size="10.00" fill="#000000">net/af.h</text>
</a>
</g>
</g>
<!-- Node1&#45;&gt;Node7 -->
<g id="edge8" class="edge">
<title>Node1&#45;&gt;Node7</title>
<path fill="none" stroke="#191970" d="M651.5995,-281.7494C694.0344,-273.5261 760.5452,-260.128 827.1047,-244.1067"/>
<polygon fill="#191970" stroke="#191970" points="828.0299,-247.4838 836.9224,-241.7242 826.379,-240.6813 828.0299,-247.4838"/>
</g>
<!-- Node8 -->
<g id="node9" class="node">
<title>Node8</title>
<g id="a_node9"><a xlink:href="sock_8h.html" target="_top" xlink:title="Common sock API definitions. ">
<polygon fill="#ffffff" stroke="#000000" points="119.5,-224.5 119.5,-243.5 184.5,-243.5 184.5,-224.5 119.5,-224.5"/>
<text text-anchor="middle" x="152" y="-231.5" font-family="Helvetica,sans-Serif" font-size="10.00" fill="#000000">net/sock.h</text>
</a>
</g>
</g>
<!-- Node1&#45;&gt;Node8 -->
<g id="edge9" class="edge">
<title>Node1&#45;&gt;Node8</title>
<path fill="none" stroke="#191970" d="M564.371,-285.0894C492.9539,-276.9834 346.6594,-260.094 223,-244 213.9417,-242.8211 204.2425,-241.4963 195.0142,-240.2063"/>
<polygon fill="#191970" stroke="#191970" points="195.2452,-236.7043 184.8545,-238.7741 194.268,-243.6358 195.2452,-236.7043"/>
</g>
<!-- Node13 -->
<g id="node14" class="node">
<title>Node13</title>
<g id="a_node14"><a xlink:href="ipv4_2addr_8h.html" target="_top" xlink:title="IPv4 address type and helper functions definitions. ">
<polygon fill="#ffffff" stroke="#000000" points="351.5,-168.5 351.5,-187.5 440.5,-187.5 440.5,-168.5 351.5,-168.5"/>
<text text-anchor="middle" x="396" y="-175.5" font-family="Helvetica,sans-Serif" font-size="10.00" fill="#000000">net/ipv4/addr.h</text>
</a>
</g>
</g>
<!-- Node1&#45;&gt;Node13 -->
<g id="edge19" class="edge">
<title>Node1&#45;&gt;Node13</title>
<path fill="none" stroke="#191970" d="M564.448,-283.6767C532.0166,-277.4462 487.7099,-265.6091 454,-244 434.6446,-231.5926 417.976,-210.9178 407.5395,-196.0111"/>
<polygon fill="#191970" stroke="#191970" points="410.3658,-193.9419 401.8783,-187.6004 404.5587,-197.8506 410.3658,-193.9419"/>
</g>
<!-- Node19 -->
<g id="node20" class="node">
<title>Node19</title>
<g id="a_node20"><a xlink:href="ipv6_2addr_8h.html" target="_top" xlink:title="Definitions for IPv6 addresses. ">
<polygon fill="#ffffff" stroke="#000000" points="462.5,-224.5 462.5,-243.5 551.5,-243.5 551.5,-224.5 462.5,-224.5"/>
<text text-anchor="middle" x="507" y="-231.5" font-family="Helvetica,sans-Serif" font-size="10.00" fill="#000000">net/ipv6/addr.h</text>
</a>
</g>
</g>
<!-- Node1&#45;&gt;Node19 -->
<g id="edge30" class="edge">
<title>Node1&#45;&gt;Node19</title>
<path fill="none" stroke="#191970" d="M590.4071,-280.2455C574.621,-271.4928 551.2361,-258.527 533.2413,-248.5496"/>
<polygon fill="#191970" stroke="#191970" points="534.8341,-245.4308 524.3913,-243.6427 531.4397,-251.5528 534.8341,-245.4308"/>
</g>
<!-- Node20 -->
<g id="node21" class="node">
<title>Node20</title>
<polygon fill="#ffffff" stroke="#bfbfbf" points="909,-224.5 909,-243.5 985,-243.5 985,-224.5 909,-224.5"/>
<text text-anchor="middle" x="947" y="-231.5" font-family="Helvetica,sans-Serif" font-size="10.00" fill="#000000">sock_types.h</text>
</g>
<!-- Node1&#45;&gt;Node20 -->
<g id="edge35" class="edge">
<title>Node1&#45;&gt;Node20</title>
<path fill="none" stroke="#191970" d="M651.6583,-283.865C706.8977,-275.9385 805.1836,-261.2905 898.8856,-244.1335"/>
<polygon fill="#191970" stroke="#191970" points="899.6149,-247.5581 908.8145,-242.3027 898.3456,-240.6742 899.6149,-247.5581"/>
</g>
<!-- Node2&#45;&gt;Node3 -->
<g id="edge3" class="edge">
<title>Node2&#45;&gt;Node3</title>
<path fill="none" stroke="#191970" d="M232.1591,-168.4631C236.8666,-147.8501 248.5524,-97.642 260,-56 262.4002,-47.2692 265.2798,-37.6787 267.8017,-29.5245"/>
<polygon fill="#191970" stroke="#191970" points="271.1905,-30.4145 270.8404,-19.8255 264.5107,-28.3217 271.1905,-30.4145"/>
</g>
<!-- Node8&#45;&gt;Node3 -->
<g id="edge10" class="edge">
<title>Node8&#45;&gt;Node3</title>
<path fill="none" stroke="#191970" d="M157.2422,-224.375C175.8956,-190.1261 239.2507,-73.802 263.9885,-28.3817"/>
<polygon fill="#191970" stroke="#191970" points="267.068,-30.0452 268.7773,-19.5891 260.9206,-26.697 267.068,-30.0452"/>
</g>
<!-- Node9 -->
<g id="node10" class="node">
<title>Node9</title>
<polygon fill="#ffffff" stroke="#bfbfbf" points="0,-.5 0,-19.5 56,-19.5 56,-.5 0,-.5"/>
<text text-anchor="middle" x="28" y="-7.5" font-family="Helvetica,sans-Serif" font-size="10.00" fill="#000000">stddef.h</text>
</g>
<!-- Node8&#45;&gt;Node9 -->
<g id="edge11" class="edge">
<title>Node8&#45;&gt;Node9</title>
<path fill="none" stroke="#191970" d="M122.2069,-224.4055C103.0358,-216.9854 78.6777,-205.0698 62,-188 23.3809,-148.4729 20.3093,-129.8731 8,-76 4.3022,-59.8159 10.4772,-41.8016 16.9151,-28.6874"/>
<polygon fill="#191970" stroke="#191970" points="20.0803,-30.1911 21.7302,-19.7255 13.914,-26.878 20.0803,-30.1911"/>
</g>
<!-- Node10 -->
<g id="node11" class="node">
<title>Node10</title>
<g id="a_node11"><a xlink:href="iolist_8h.html" target="_top" xlink:title="iolist scatter / gather IO ">
<polygon fill="#ffffff" stroke="#000000" points="71.5,-168.5 71.5,-187.5 118.5,-187.5 118.5,-168.5 71.5,-168.5"/>
<text text-anchor="middle" x="95" y="-175.5" font-family="Helvetica,sans-Serif" font-size="10.00" fill="#000000">iolist.h</text>
</a>
</g>
</g>
<!-- Node8&#45;&gt;Node10 -->
<g id="edge12" class="edge">
<title>Node8&#45;&gt;Node10</title>
<path fill="none" stroke="#191970" d="M142.0714,-224.2455C133.8162,-216.1352 121.8791,-204.4075 112.0918,-194.7919"/>
<polygon fill="#191970" stroke="#191970" points="114.4011,-192.1542 104.8149,-187.6427 109.4954,-197.1476 114.4011,-192.1542"/>
</g>
<!-- Node11 -->
<g id="node12" class="node">
<title>Node11</title>
<g id="a_node12"><a xlink:href="unistd_8h_source.html" target="_top" xlink:title="unistd.h">
<polygon fill="#ffffff" stroke="#000000" points="55,-112.5 55,-131.5 109,-131.5 109,-112.5 55,-112.5"/>
<text text-anchor="middle" x="82" y="-119.5" font-family="Helvetica,sans-Serif" font-size="10.00" fill="#000000">unistd.h</text>
</a>
</g>
</g>
<!-- Node10&#45;&gt;Node11 -->
<g id="edge13" class="edge">
<title>Node10&#45;&gt;Node11</title>
<path fill="none" stroke="#191970" d="M92.7356,-168.2455C91.0206,-160.8579 88.6088,-150.4689 86.5056,-141.4087"/>
<polygon fill="#191970" stroke="#191970" points="89.9092,-140.5922 84.2385,-131.6427 83.0905,-142.1751 89.9092,-140.5922"/>
</g>
<!-- Node11&#45;&gt;Node3 -->
<g id="edge15" class="edge">
<title>Node11&#45;&gt;Node3</title>
<path fill="none" stroke="#191970" d="M89.1894,-112.1207C100.0247,-97.876 121.8574,-71.5733 146,-56 174.5048,-37.6128 211.3225,-25.377 238.1488,-18.1786"/>
<polygon fill="#191970" stroke="#191970" points="239.0932,-21.5497 247.9028,-15.6641 237.3457,-14.7713 239.0932,-21.5497"/>
</g>
<!-- Node11&#45;&gt;Node9 -->
<g id="edge14" class="edge">
<title>Node11&#45;&gt;Node9</title>
<path fill="none" stroke="#191970" d="M57.5288,-112.3462C42.2893,-104.9011 23.9388,-92.9799 15,-76 7.2834,-61.3419 12.109,-42.6651 17.9471,-28.923"/>
<polygon fill="#191970" stroke="#191970" points="21.2828,-30.0585 22.418,-19.5246 14.9616,-27.0514 21.2828,-30.0585"/>
</g>
<!-- Node12 -->
<g id="node13" class="node">
<title>Node12</title>
<g id="a_node13"><a xlink:href="cpu_2avr8__common_2avr__libc__extra_2include_2sys_2types_8h_source.html" target="_top" xlink:title="sys/types.h">
<polygon fill="#ffffff" stroke="#000000" points="24.5,-56.5 24.5,-75.5 93.5,-75.5 93.5,-56.5 24.5,-56.5"/>
<text text-anchor="middle" x="59" y="-63.5" font-family="Helvetica,sans-Serif" font-size="10.00" fill="#000000">sys/types.h</text>
</a>
</g>
</g>
<!-- Node11&#45;&gt;Node12 -->
<g id="edge16" class="edge">
<title>Node11&#45;&gt;Node12</title>
<path fill="none" stroke="#191970" d="M77.9937,-112.2455C74.9265,-104.7776 70.5997,-94.2427 66.8503,-85.1137"/>
<polygon fill="#191970" stroke="#191970" points="69.9972,-83.5631 62.9604,-75.6427 63.5221,-86.2226 69.9972,-83.5631"/>
</g>
<!-- Node12&#45;&gt;Node3 -->
<g id="edge17" class="edge">
<title>Node12&#45;&gt;Node3</title>
<path fill="none" stroke="#191970" d="M93.5435,-57.0026C133.1819,-46.6782 197.8774,-29.8273 238.0837,-19.3549"/>
<polygon fill="#191970" stroke="#191970" points="239.1992,-22.6813 247.9941,-16.7736 237.4347,-15.9073 239.1992,-22.6813"/>
</g>
<!-- Node12&#45;&gt;Node9 -->
<g id="edge18" class="edge">
<title>Node12&#45;&gt;Node9</title>
<path fill="none" stroke="#191970" d="M53.6002,-56.2455C49.3773,-48.617 43.3827,-37.7881 38.2559,-28.5267"/>
<polygon fill="#191970" stroke="#191970" points="41.2432,-26.6965 33.3379,-19.6427 35.119,-30.0867 41.2432,-26.6965"/>
</g>
<!-- Node13&#45;&gt;Node3 -->
<g id="edge21" class="edge">
<title>Node13&#45;&gt;Node3</title>
<path fill="none" stroke="#191970" d="M382.4639,-168.3225C360.4307,-151.8633 316.877,-116.2619 293,-76 284.542,-61.738 279.6665,-43.4953 276.9771,-29.8051"/>
<polygon fill="#191970" stroke="#191970" points="280.3584,-28.8185 275.2016,-19.5634 273.4613,-30.0143 280.3584,-28.8185"/>
</g>
<!-- Node13&#45;&gt;Node9 -->
<g id="edge22" class="edge">
<title>Node13&#45;&gt;Node9</title>
<path fill="none" stroke="#191970" d="M375.1603,-168.4862C313.4432,-140.311 131.3879,-57.1988 58.5903,-23.9651"/>
<polygon fill="#191970" stroke="#191970" points="59.6177,-20.5867 49.0672,-19.6177 56.7106,-26.9545 59.6177,-20.5867"/>
</g>
<!-- Node14 -->
<g id="node15" class="node">
<title>Node14</title>
<polygon fill="#ffffff" stroke="#bfbfbf" points="457,-112.5 457,-131.5 517,-131.5 517,-112.5 457,-112.5"/>
<text text-anchor="middle" x="487" y="-119.5" font-family="Helvetica,sans-Serif" font-size="10.00" fill="#000000">stdbool.h</text>
</g>
<!-- Node13&#45;&gt;Node14 -->
<g id="edge20" class="edge">
<title>Node13&#45;&gt;Node14</title>
<path fill="none" stroke="#191970" d="M411.851,-168.2455C425.8132,-159.6534 446.3728,-147.0014 462.4596,-137.1018"/>
<polygon fill="#191970" stroke="#191970" points="464.6484,-139.8645 471.3307,-131.6427 460.9797,-133.9029 464.6484,-139.8645"/>
</g>
<!-- Node15 -->
<g id="node16" class="node">
<title>Node15</title>
<g id="a_node16"><a xlink:href="byteorder_8h.html" target="_top" xlink:title="Functions to work with different byte orders. ">
<polygon fill="#ffffff" stroke="#000000" points="365.5,-112.5 365.5,-131.5 438.5,-131.5 438.5,-112.5 365.5,-112.5"/>
<text text-anchor="middle" x="402" y="-119.5" font-family="Helvetica,sans-Serif" font-size="10.00" fill="#000000">byteorder.h</text>
</a>
</g>
</g>
<!-- Node13&#45;&gt;Node15 -->
<g id="edge23" class="edge">
<title>Node13&#45;&gt;Node15</title>
<path fill="none" stroke="#191970" d="M397.0451,-168.2455C397.828,-160.9382 398.9256,-150.6944 399.8888,-141.7046"/>
<polygon fill="#191970" stroke="#191970" points="403.3815,-141.9587 400.9669,-131.6427 396.4214,-141.2129 403.3815,-141.9587"/>
</g>
<!-- Node15&#45;&gt;Node3 -->
<g id="edge25" class="edge">
<title>Node15&#45;&gt;Node3</title>
<path fill="none" stroke="#191970" d="M401.7375,-112.2474C400.8523,-98.1604 397.2467,-72.0523 383,-56 364.1508,-34.762 333.8713,-23.0471 310.0042,-16.7636"/>
<polygon fill="#191970" stroke="#191970" points="310.7633,-13.3463 300.2201,-14.3913 309.1137,-20.1492 310.7633,-13.3463"/>
</g>
<!-- Node16 -->
<g id="node17" class="node">
<title>Node16</title>
<polygon fill="#ffffff" stroke="#bfbfbf" points="505.5,-56.5 505.5,-75.5 558.5,-75.5 558.5,-56.5 505.5,-56.5"/>
<text text-anchor="middle" x="532" y="-63.5" font-family="Helvetica,sans-Serif" font-size="10.00" fill="#000000">string.h</text>
</g>
<!-- Node15&#45;&gt;Node16 -->
<g id="edge24" class="edge">
<title>Node15&#45;&gt;Node16</title>
<path fill="none" stroke="#191970" d="M424.3478,-112.3733C445.4033,-103.3032 477.1495,-89.6279 500.7175,-79.4755"/>
<polygon fill="#191970" stroke="#191970" points="502.1444,-82.6719 509.9438,-75.5011 499.375,-76.243 502.1444,-82.6719"/>
</g>
<!-- Node17 -->
<g id="node18" class="node">
<title>Node17</title>
<g id="a_node18"><a xlink:href="endian_8h.html" target="_top" xlink:title="libc header for endian conversion ">
<polygon fill="#ffffff" stroke="#000000" points="430.5,-56.5 430.5,-75.5 487.5,-75.5 487.5,-56.5 430.5,-56.5"/>
<text text-anchor="middle" x="459" y="-63.5" font-family="Helvetica,sans-Serif" font-size="10.00" fill="#000000">endian.h</text>
</a>
</g>
</g>
<!-- Node15&#45;&gt;Node17 -->
<g id="edge26" class="edge">
<title>Node15&#45;&gt;Node17</title>
<path fill="none" stroke="#191970" d="M411.9286,-112.2455C420.1838,-104.1352 432.1209,-92.4075 441.9082,-82.7919"/>
<polygon fill="#191970" stroke="#191970" points="444.5046,-85.1476 449.1851,-75.6427 439.5989,-80.1542 444.5046,-85.1476"/>
</g>
<!-- Node18 -->
<g id="node19" class="node">
<title>Node18</title>
<g id="a_node19"><a xlink:href="unaligned_8h.html" target="_top" xlink:title="Unaligned but safe memory access functions. ">
<polygon fill="#ffffff" stroke="#000000" points="302.5,-56.5 302.5,-75.5 373.5,-75.5 373.5,-56.5 302.5,-56.5"/>
<text text-anchor="middle" x="338" y="-63.5" font-family="Helvetica,sans-Serif" font-size="10.00" fill="#000000">unaligned.h</text>
</a>
</g>
</g>
<!-- Node15&#45;&gt;Node18 -->
<g id="edge28" class="edge">
<title>Node15&#45;&gt;Node18</title>
<path fill="none" stroke="#191970" d="M390.8521,-112.2455C381.4913,-104.0549 367.9142,-92.1749 356.8651,-82.5069"/>
<polygon fill="#191970" stroke="#191970" points="358.8508,-79.5937 349.0202,-75.6427 354.2412,-84.8618 358.8508,-79.5937"/>
</g>
<!-- Node17&#45;&gt;Node3 -->
<g id="edge27" class="edge">
<title>Node17&#45;&gt;Node3</title>
<path fill="none" stroke="#191970" d="M430.4992,-57.3727C398.1197,-47.5714 345.2187,-31.5581 310.0111,-20.9007"/>
<polygon fill="#191970" stroke="#191970" points="310.724,-17.4597 300.1388,-17.9123 308.6959,-24.1595 310.724,-17.4597"/>
</g>
<!-- Node18&#45;&gt;Node3 -->
<g id="edge29" class="edge">
<title>Node18&#45;&gt;Node3</title>
<path fill="none" stroke="#191970" d="M326.8521,-56.2455C317.4913,-48.0549 303.9142,-36.1749 292.8651,-26.5069"/>
<polygon fill="#191970" stroke="#191970" points="294.8508,-23.5937 285.0202,-19.6427 290.2412,-28.8618 294.8508,-23.5937"/>
</g>
<!-- Node19&#45;&gt;Node13 -->
<g id="edge34" class="edge">
<title>Node19&#45;&gt;Node13</title>
<path fill="none" stroke="#191970" d="M487.9184,-224.3733C470.2598,-215.4644 443.7947,-202.1127 423.7902,-192.0203"/>
<polygon fill="#191970" stroke="#191970" points="425.3372,-188.8806 414.8326,-187.5011 422.1842,-195.1303 425.3372,-188.8806"/>
</g>
<!-- Node19&#45;&gt;Node14 -->
<g id="edge31" class="edge">
<title>Node19&#45;&gt;Node14</title>
<path fill="none" stroke="#191970" d="M505.2948,-224.4509C502.0181,-206.1013 494.7841,-165.5908 490.4588,-141.3693"/>
<polygon fill="#191970" stroke="#191970" points="493.9044,-140.7539 488.7009,-131.5249 487.0134,-141.9845 493.9044,-140.7539"/>
</g>
<!-- Node19&#45;&gt;Node15 -->
<g id="edge33" class="edge">
<title>Node19&#45;&gt;Node15</title>
<path fill="none" stroke="#191970" d="M499.1552,-224.3535C488.4089,-211.2723 468.348,-187.3232 450,-168 440.4107,-157.901 429.198,-147.1033 420.0223,-138.5089"/>
<polygon fill="#191970" stroke="#191970" points="422.2855,-135.8342 412.5751,-131.5963 417.5233,-140.9647 422.2855,-135.8342"/>
</g>
<!-- Node19&#45;&gt;Node16 -->
<g id="edge32" class="edge">
<title>Node19&#45;&gt;Node16</title>
<path fill="none" stroke="#191970" d="M509.0805,-224.486C512.9438,-206.5044 521.2626,-166.2588 526,-132 528.121,-116.662 529.6701,-99.2107 530.6625,-86.1068"/>
<polygon fill="#191970" stroke="#191970" points="534.172,-86.0962 531.3916,-75.8728 527.1897,-85.5987 534.172,-86.0962"/>
</g>
</g>
</svg>
