<?xml version="1.0" encoding="UTF-8" standalone="no"?>
<!DOCTYPE svg PUBLIC "-//W3C//DTD SVG 1.1//EN"
 "http://www.w3.org/Graphics/SVG/1.1/DTD/svg11.dtd">
<!-- Generated by graphviz version 2.40.1 (0)
 -->
<!-- Title: sys/include/fido2/ctap/ctap_crypto.h Pages: 1 -->
<svg width="401pt" height="173pt"
 viewBox="0.00 0.00 401.00 173.00" xmlns="http://www.w3.org/2000/svg" xmlns:xlink="http://www.w3.org/1999/xlink">
<g id="graph0" class="graph" transform="scale(1 1) rotate(0) translate(4 169)">
<title>sys/include/fido2/ctap/ctap_crypto.h</title>
<polygon fill="#ffffff" stroke="transparent" points="-4,4 -4,-169 397,-169 397,4 -4,4"/>
<!-- Node8 -->
<g id="node1" class="node">
<title>Node8</title>
<polygon fill="#bfbfbf" stroke="#000000" points="137,-134.5 137,-164.5 256,-164.5 256,-134.5 137,-134.5"/>
<text text-anchor="start" x="145" y="-152.5" font-family="Helvetica,sans-Serif" font-size="10.00" fill="#000000">sys/include/fido2/ctap</text>
<text text-anchor="middle" x="196.5" y="-141.5" font-family="Helvetica,sans-Serif" font-size="10.00" fill="#000000">/ctap_crypto.h</text>
</g>
<!-- Node9 -->
<g id="node2" class="node">
<title>Node9</title>
<g id="a_node2"><a xlink:href="ctap_2ctap_8h.html" target="_top" xlink:title="Internal FIDO2 CTAP defines, structures and function declarations. ">
<polygon fill="#ffffff" stroke="#000000" points="137,-67.5 137,-97.5 256,-97.5 256,-67.5 137,-67.5"/>
<text text-anchor="start" x="145" y="-85.5" font-family="Helvetica,sans-Serif" font-size="10.00" fill="#000000">sys/include/fido2/ctap</text>
<text text-anchor="middle" x="196.5" y="-74.5" font-family="Helvetica,sans-Serif" font-size="10.00" fill="#000000">/ctap.h</text>
</a>
</g>
</g>
<!-- Node8&#45;&gt;Node9 -->
<g id="edge1" class="edge">
<title>Node8&#45;&gt;Node9</title>
<path fill="none" stroke="#191970" d="M196.5,-124.0249C196.5,-115.128 196.5,-105.4287 196.5,-97.6432"/>
<polygon fill="#191970" stroke="#191970" points="193.0001,-124.2966 196.5,-134.2967 200.0001,-124.2967 193.0001,-124.2966"/>
</g>
<!-- Node10 -->
<g id="node3" class="node">
<title>Node10</title>
<g id="a_node3"><a xlink:href="ctap__cbor_8h.html" target="_top" xlink:title="CTAP CBOR helper function declarations. ">
<polygon fill="#ffffff" stroke="#000000" points="0,-.5 0,-30.5 119,-30.5 119,-.5 0,-.5"/>
<text text-anchor="start" x="8" y="-18.5" font-family="Helvetica,sans-Serif" font-size="10.00" fill="#000000">sys/include/fido2/ctap</text>
<text text-anchor="middle" x="59.5" y="-7.5" font-family="Helvetica,sans-Serif" font-size="10.00" fill="#000000">/ctap_cbor.h</text>
</a>
</g>
</g>
<!-- Node9&#45;&gt;Node10 -->
<g id="edge2" class="edge">
<title>Node9&#45;&gt;Node10</title>
<path fill="none" stroke="#191970" d="M156.7328,-63.0518C135.6816,-52.7567 110.2086,-40.2991 90.6169,-30.7177"/>
<polygon fill="#191970" stroke="#191970" points="155.2336,-66.2147 165.7545,-67.4639 158.3089,-59.9264 155.2336,-66.2147"/>
</g>
<!-- Node11 -->
<g id="node4" class="node">
<title>Node11</title>
<g id="a_node4"><a xlink:href="ctap__mem_8h.html" target="_top" xlink:title="Definitions for CTAP flash memory helper functions. ">
<polygon fill="#ffffff" stroke="#000000" points="137,-.5 137,-30.5 256,-30.5 256,-.5 137,-.5"/>
<text text-anchor="start" x="145" y="-18.5" font-family="Helvetica,sans-Serif" font-size="10.00" fill="#000000">sys/include/fido2/ctap</text>
<text text-anchor="middle" x="196.5" y="-7.5" font-family="Helvetica,sans-Serif" font-size="10.00" fill="#000000">/ctap_mem.h</text>
</a>
</g>
</g>
<!-- Node9&#45;&gt;Node11 -->
<g id="edge3" class="edge">
<title>Node9&#45;&gt;Node11</title>
<path fill="none" stroke="#191970" d="M196.5,-57.0249C196.5,-48.128 196.5,-38.4287 196.5,-30.6432"/>
<polygon fill="#191970" stroke="#191970" points="193.0001,-57.2966 196.5,-67.2967 200.0001,-57.2967 193.0001,-57.2966"/>
</g>
<!-- Node12 -->
<g id="node5" class="node">
<title>Node12</title>
<g id="a_node5"><a xlink:href="ctap__utils_8h.html" target="_top" xlink:title="Definition for CTAP utility functions. ">
<polygon fill="#ffffff" stroke="#000000" points="274,-.5 274,-30.5 393,-30.5 393,-.5 274,-.5"/>
<text text-anchor="start" x="282" y="-18.5" font-family="Helvetica,sans-Serif" font-size="10.00" fill="#000000">sys/include/fido2/ctap</text>
<text text-anchor="middle" x="333.5" y="-7.5" font-family="Helvetica,sans-Serif" font-size="10.00" fill="#000000">/ctap_utils.h</text>
</a>
</g>
</g>
<!-- Node9&#45;&gt;Node12 -->
<g id="edge4" class="edge">
<title>Node9&#45;&gt;Node12</title>
<path fill="none" stroke="#191970" d="M236.2672,-63.0518C257.3184,-52.7567 282.7914,-40.2991 302.3831,-30.7177"/>
<polygon fill="#191970" stroke="#191970" points="234.6911,-59.9264 227.2455,-67.4639 237.7664,-66.2147 234.6911,-59.9264"/>
</g>
</g>
</svg>
