<?xml version="1.0" encoding="UTF-8" standalone="no"?>
<!DOCTYPE svg PUBLIC "-//W3C//DTD SVG 1.1//EN"
 "http://www.w3.org/Graphics/SVG/1.1/DTD/svg11.dtd">
<!-- Generated by graphviz version 2.40.1 (0)
 -->
<!-- Title: sys/include/fido2/ctap/ctap_utils.h Pages: 1 -->
<svg width="1942pt" height="543pt"
 viewBox="0.00 0.00 1942.00 543.00" xmlns="http://www.w3.org/2000/svg" xmlns:xlink="http://www.w3.org/1999/xlink">
<g id="graph0" class="graph" transform="scale(1 1) rotate(0) translate(4 539)">
<title>sys/include/fido2/ctap/ctap_utils.h</title>
<polygon fill="#ffffff" stroke="transparent" points="-4,4 -4,-539 1938,-539 1938,4 -4,4"/>
<!-- Node0 -->
<g id="node1" class="node">
<title>Node0</title>
<polygon fill="#bfbfbf" stroke="#000000" points="1602,-504.5 1602,-534.5 1721,-534.5 1721,-504.5 1602,-504.5"/>
<text text-anchor="start" x="1610" y="-522.5" font-family="Helvetica,sans-Serif" font-size="10.00" fill="#000000">sys/include/fido2/ctap</text>
<text text-anchor="middle" x="1661.5" y="-511.5" font-family="Helvetica,sans-Serif" font-size="10.00" fill="#000000">/ctap_utils.h</text>
</g>
<!-- Node1 -->
<g id="node2" class="node">
<title>Node1</title>
<polygon fill="#ffffff" stroke="#bfbfbf" points="572.5,-.5 572.5,-19.5 624.5,-19.5 624.5,-.5 572.5,-.5"/>
<text text-anchor="middle" x="598.5" y="-7.5" font-family="Helvetica,sans-Serif" font-size="10.00" fill="#000000">stdint.h</text>
</g>
<!-- Node0&#45;&gt;Node1 -->
<g id="edge1" class="edge">
<title>Node0&#45;&gt;Node1</title>
<path fill="none" stroke="#191970" d="M1661.5,-504.2899C1661.5,-481.892 1661.5,-438.7188 1661.5,-402 1661.5,-402 1661.5,-402 1661.5,-122 1661.5,-110.4915 1714.0611,-101.9977 1494.5,-56 1326.0645,-20.713 780.8362,-12.0705 634.7772,-10.3661"/>
<polygon fill="#191970" stroke="#191970" points="634.6128,-6.8641 624.5739,-10.2508 634.5337,-13.8636 634.6128,-6.8641"/>
</g>
<!-- Node2 -->
<g id="node3" class="node">
<title>Node2</title>
<g id="a_node3"><a xlink:href="ctap_2ctap_8h.html" target="_top" xlink:title="Internal FIDO2 CTAP defines, structures and function declarations. ">
<polygon fill="#ffffff" stroke="#000000" points="436.5,-448.5 436.5,-467.5 532.5,-467.5 532.5,-448.5 436.5,-448.5"/>
<text text-anchor="middle" x="484.5" y="-455.5" font-family="Helvetica,sans-Serif" font-size="10.00" fill="#000000">fido2/ctap/ctap.h</text>
</a>
</g>
</g>
<!-- Node0&#45;&gt;Node2 -->
<g id="edge2" class="edge">
<title>Node0&#45;&gt;Node2</title>
<path fill="none" stroke="#191970" d="M1601.9206,-516.3869C1399.9323,-505.8327 742.6123,-471.4868 542.705,-461.0413"/>
<polygon fill="#191970" stroke="#191970" points="542.8663,-457.545 532.6972,-460.5184 542.5009,-464.5355 542.8663,-457.545"/>
</g>
<!-- Node39 -->
<g id="node40" class="node">
<title>Node39</title>
<g id="a_node40"><a xlink:href="drivers_2include_2periph_2gpio_8h.html" target="_top" xlink:title="Low&#45;level GPIO peripheral driver interface definitions. ">
<polygon fill="#ffffff" stroke="#000000" points="1689.5,-168.5 1689.5,-187.5 1769.5,-187.5 1769.5,-168.5 1689.5,-168.5"/>
<text text-anchor="middle" x="1729.5" y="-175.5" font-family="Helvetica,sans-Serif" font-size="10.00" fill="#000000">periph/gpio.h</text>
</a>
</g>
</g>
<!-- Node0&#45;&gt;Node39 -->
<g id="edge77" class="edge">
<title>Node0&#45;&gt;Node39</title>
<path fill="none" stroke="#191970" d="M1673.5265,-504.1536C1689.1637,-482.6168 1714.5,-441.6099 1714.5,-402 1714.5,-402 1714.5,-402 1714.5,-290 1714.5,-257.2739 1720.8693,-219.641 1725.307,-197.3923"/>
<polygon fill="#191970" stroke="#191970" points="1728.7485,-198.0329 1727.3509,-187.5307 1721.8942,-196.6123 1728.7485,-198.0329"/>
</g>
<!-- Node2&#45;&gt;Node1 -->
<g id="edge3" class="edge">
<title>Node2&#45;&gt;Node1</title>
<path fill="none" stroke="#191970" d="M436.4531,-449.6369C354.2748,-433.9554 195.5,-397.0519 195.5,-346 195.5,-346 195.5,-346 195.5,-290 195.5,-235.7122 156.8082,-211.3406 189.5,-168 224.5724,-121.5035 263.1765,-157.5784 315.5,-132 366.9322,-106.8573 367.736,-80.4524 419.5,-56 466.3057,-33.8898 525.2082,-21.3783 562.3714,-15.1484"/>
<polygon fill="#191970" stroke="#191970" points="562.9337,-18.603 572.2487,-13.555 561.8189,-11.6923 562.9337,-18.603"/>
</g>
<!-- Node3 -->
<g id="node4" class="node">
<title>Node3</title>
<g id="a_node4"><a xlink:href="mutex_8h.html" target="_top" xlink:title="Mutex for thread synchronization. ">
<polygon fill="#ffffff" stroke="#000000" points="1336.5,-392.5 1336.5,-411.5 1392.5,-411.5 1392.5,-392.5 1336.5,-392.5"/>
<text text-anchor="middle" x="1364.5" y="-399.5" font-family="Helvetica,sans-Serif" font-size="10.00" fill="#000000">mutex.h</text>
</a>
</g>
</g>
<!-- Node2&#45;&gt;Node3 -->
<g id="edge4" class="edge">
<title>Node2&#45;&gt;Node3</title>
<path fill="none" stroke="#191970" d="M532.7514,-454.9295C689.7146,-444.9409 1183.8468,-413.4961 1325.9341,-404.4542"/>
<polygon fill="#191970" stroke="#191970" points="1326.5526,-407.922 1336.3101,-403.7939 1326.108,-400.9361 1326.5526,-407.922"/>
</g>
<!-- Node14 -->
<g id="node15" class="node">
<title>Node14</title>
<g id="a_node15"><a xlink:href="assert_8h.html" target="_top" xlink:title="POSIX.1&#45;2008 compliant version of the assert macro. ">
<polygon fill="#ffffff" stroke="#000000" points="497.5,-56.5 497.5,-75.5 551.5,-75.5 551.5,-56.5 497.5,-56.5"/>
<text text-anchor="middle" x="524.5" y="-63.5" font-family="Helvetica,sans-Serif" font-size="10.00" fill="#000000">assert.h</text>
</a>
</g>
</g>
<!-- Node2&#45;&gt;Node14 -->
<g id="edge56" class="edge">
<title>Node2&#45;&gt;Node14</title>
<path fill="none" stroke="#191970" d="M487.3035,-448.2066C492.5887,-428.8521 503.5,-384.2612 503.5,-346 503.5,-346 503.5,-346 503.5,-178 503.5,-145.1675 512.3257,-107.834 518.534,-85.634"/>
<polygon fill="#191970" stroke="#191970" points="521.9701,-86.3521 521.4014,-75.7725 515.2485,-84.3977 521.9701,-86.3521"/>
</g>
<!-- Node26 -->
<g id="node27" class="node">
<title>Node26</title>
<g id="a_node27"><a xlink:href="cbor_8h.html" target="_top" xlink:title="Functionality for encoding SenML values as CBOR. ">
<polygon fill="#ffffff" stroke="#000000" points="878.5,-224.5 878.5,-243.5 924.5,-243.5 924.5,-224.5 878.5,-224.5"/>
<text text-anchor="middle" x="901.5" y="-231.5" font-family="Helvetica,sans-Serif" font-size="10.00" fill="#000000">cbor.h</text>
</a>
</g>
</g>
<!-- Node2&#45;&gt;Node26 -->
<g id="edge46" class="edge">
<title>Node2&#45;&gt;Node26</title>
<path fill="none" stroke="#191970" d="M502.418,-448.375C568.0473,-413.1209 795.5688,-290.9031 874.3773,-248.5695"/>
<polygon fill="#191970" stroke="#191970" points="876.4956,-251.4047 883.6488,-243.5891 873.183,-245.2381 876.4956,-251.4047"/>
</g>
<!-- Node29 -->
<g id="node30" class="node">
<title>Node29</title>
<g id="a_node30"><a xlink:href="ccm_8h.html" target="_top" xlink:title="Counter with CBC&#45;MAC mode of operation for block ciphers. ">
<polygon fill="#ffffff" stroke="#000000" points="274,-336.5 274,-355.5 387,-355.5 387,-336.5 274,-336.5"/>
<text text-anchor="middle" x="330.5" y="-343.5" font-family="Helvetica,sans-Serif" font-size="10.00" fill="#000000">crypto/modes/ccm.h</text>
</a>
</g>
</g>
<!-- Node2&#45;&gt;Node29 -->
<g id="edge57" class="edge">
<title>Node2&#45;&gt;Node29</title>
<path fill="none" stroke="#191970" d="M471.37,-448.4509C444.7755,-429.1094 384.3265,-385.1465 351.9368,-361.5904"/>
<polygon fill="#191970" stroke="#191970" points="353.7427,-358.5761 343.5967,-355.5249 349.6255,-364.2372 353.7427,-358.5761"/>
</g>
<!-- Node31 -->
<g id="node32" class="node">
<title>Node31</title>
<g id="a_node32"><a xlink:href="timex_8h.html" target="_top" xlink:title="Utility library for comparing and computing timestamps. ">
<polygon fill="#ffffff" stroke="#000000" points="423.5,-168.5 423.5,-187.5 475.5,-187.5 475.5,-168.5 423.5,-168.5"/>
<text text-anchor="middle" x="449.5" y="-175.5" font-family="Helvetica,sans-Serif" font-size="10.00" fill="#000000">timex.h</text>
</a>
</g>
</g>
<!-- Node2&#45;&gt;Node31 -->
<g id="edge61" class="edge">
<title>Node2&#45;&gt;Node31</title>
<path fill="none" stroke="#191970" d="M480.5161,-448.3019C473.0056,-429.1145 457.5,-384.8029 457.5,-346 457.5,-346 457.5,-346 457.5,-290 457.5,-257.6293 454.134,-220.1294 451.7687,-197.7743"/>
<polygon fill="#191970" stroke="#191970" points="455.219,-197.1291 450.6462,-187.5719 448.261,-197.8948 455.219,-197.1291"/>
</g>
<!-- Node33 -->
<g id="node34" class="node">
<title>Node33</title>
<polygon fill="#ffffff" stroke="#bfbfbf" points="697,-392.5 697,-411.5 750,-411.5 750,-392.5 697,-392.5"/>
<text text-anchor="middle" x="723.5" y="-399.5" font-family="Helvetica,sans-Serif" font-size="10.00" fill="#000000">board.h</text>
</g>
<!-- Node2&#45;&gt;Node33 -->
<g id="edge65" class="edge">
<title>Node2&#45;&gt;Node33</title>
<path fill="none" stroke="#191970" d="M526.249,-448.4406C566.3418,-439.2273 628.6008,-424.8337 682.5,-412 683.9255,-411.6606 685.3785,-411.3132 686.846,-410.9611"/>
<polygon fill="#191970" stroke="#191970" points="687.7049,-414.3543 696.6039,-408.6046 686.0617,-407.5499 687.7049,-414.3543"/>
</g>
<!-- Node34 -->
<g id="node35" class="node">
<title>Node34</title>
<g id="a_node35"><a xlink:href="ctap_8h.html" target="_top" xlink:title="Public FIDO2 CTAP defines, structures and function declarations. ">
<polygon fill="#ffffff" stroke="#000000" points="0,-168.5 0,-187.5 73,-187.5 73,-168.5 0,-168.5"/>
<text text-anchor="middle" x="36.5" y="-175.5" font-family="Helvetica,sans-Serif" font-size="10.00" fill="#000000">fido2/ctap.h</text>
</a>
</g>
</g>
<!-- Node2&#45;&gt;Node34 -->
<g id="edge66" class="edge">
<title>Node2&#45;&gt;Node34</title>
<path fill="none" stroke="#191970" d="M436.1377,-456.8481C314.8704,-452.6544 7.5,-433.4039 7.5,-346 7.5,-346 7.5,-346 7.5,-290 7.5,-256.5134 19.7995,-219.1413 28.3785,-197.1469"/>
<polygon fill="#191970" stroke="#191970" points="31.7072,-198.2517 32.221,-187.6693 25.2201,-195.6216 31.7072,-198.2517"/>
</g>
<!-- Node35 -->
<g id="node36" class="node">
<title>Node35</title>
<g id="a_node36"><a xlink:href="ctap__crypto_8h.html" target="_top" xlink:title="FIDO2 CTAP crypto helper defines, structures and function declarations. ">
<polygon fill="#ffffff" stroke="#000000" points="36,-224.5 36,-243.5 167,-243.5 167,-224.5 36,-224.5"/>
<text text-anchor="middle" x="101.5" y="-231.5" font-family="Helvetica,sans-Serif" font-size="10.00" fill="#000000">fido2/ctap/ctap_crypto.h</text>
</a>
</g>
</g>
<!-- Node2&#45;&gt;Node35 -->
<g id="edge68" class="edge">
<title>Node2&#45;&gt;Node35</title>
<path fill="none" stroke="#191970" d="M436.2477,-456.2018C361.0965,-452.5049 220.6412,-441.7267 181.5,-412 129.418,-372.445 110.3939,-291.3377 104.1862,-253.8307"/>
<polygon fill="#191970" stroke="#191970" points="107.6075,-253.0474 102.6487,-243.6846 100.6865,-254.0962 107.6075,-253.0474"/>
</g>
<!-- Node3&#45;&gt;Node1 -->
<g id="edge6" class="edge">
<title>Node3&#45;&gt;Node1</title>
<path fill="none" stroke="#191970" d="M1381.4841,-392.368C1408.8095,-375.4638 1459.5,-337.6798 1459.5,-290 1459.5,-290 1459.5,-290 1459.5,-122 1459.5,-37.4641 798.3843,-15.0817 634.7825,-10.8371"/>
<polygon fill="#191970" stroke="#191970" points="634.8234,-7.3371 624.7381,-10.5832 634.6465,-14.3348 634.8234,-7.3371"/>
</g>
<!-- Node4 -->
<g id="node5" class="node">
<title>Node4</title>
<polygon fill="#ffffff" stroke="#bfbfbf" points="1145.5,-56.5 1145.5,-75.5 1201.5,-75.5 1201.5,-56.5 1145.5,-56.5"/>
<text text-anchor="middle" x="1173.5" y="-63.5" font-family="Helvetica,sans-Serif" font-size="10.00" fill="#000000">stddef.h</text>
</g>
<!-- Node3&#45;&gt;Node4 -->
<g id="edge5" class="edge">
<title>Node3&#45;&gt;Node4</title>
<path fill="none" stroke="#191970" d="M1373.4063,-392.3544C1389.4375,-373.945 1421.5,-331.8901 1421.5,-290 1421.5,-290 1421.5,-290 1421.5,-178 1421.5,-147.4754 1424.9514,-132.6806 1402.5,-112 1375.1937,-86.8474 1269.7972,-74.1428 1211.9875,-68.947"/>
<polygon fill="#191970" stroke="#191970" points="1212.0412,-65.4386 1201.7766,-68.0629 1211.4373,-72.4125 1212.0412,-65.4386"/>
</g>
<!-- Node5 -->
<g id="node6" class="node">
<title>Node5</title>
<polygon fill="#ffffff" stroke="#bfbfbf" points="1239.5,-112.5 1239.5,-131.5 1299.5,-131.5 1299.5,-112.5 1239.5,-112.5"/>
<text text-anchor="middle" x="1269.5" y="-119.5" font-family="Helvetica,sans-Serif" font-size="10.00" fill="#000000">stdbool.h</text>
</g>
<!-- Node3&#45;&gt;Node5 -->
<g id="edge7" class="edge">
<title>Node3&#45;&gt;Node5</title>
<path fill="none" stroke="#191970" d="M1361.2299,-392.3618C1347.5267,-351.9735 1294.5791,-195.9174 1275.9935,-141.1388"/>
<polygon fill="#191970" stroke="#191970" points="1279.2838,-139.9429 1272.7564,-131.5977 1272.655,-142.192 1279.2838,-139.9429"/>
</g>
<!-- Node6 -->
<g id="node7" class="node">
<title>Node6</title>
<g id="a_node7"><a xlink:href="architecture_8h.html" target="_top" xlink:title="Platform&#45;independent access to architecture details. ">
<polygon fill="#ffffff" stroke="#000000" points="1488,-168.5 1488,-187.5 1571,-187.5 1571,-168.5 1488,-168.5"/>
<text text-anchor="middle" x="1529.5" y="-175.5" font-family="Helvetica,sans-Serif" font-size="10.00" fill="#000000">architecture.h</text>
</a>
</g>
</g>
<!-- Node3&#45;&gt;Node6 -->
<g id="edge8" class="edge">
<title>Node3&#45;&gt;Node6</title>
<path fill="none" stroke="#191970" d="M1392.9666,-396.9421C1417.5496,-391.1371 1452.3534,-379.2466 1473.5,-356 1515.005,-310.3733 1525.7485,-234.1568 1528.5291,-198.0891"/>
<polygon fill="#191970" stroke="#191970" points="1532.0366,-198.082 1529.1811,-187.8793 1525.0509,-197.6359 1532.0366,-198.082"/>
</g>
<!-- Node10 -->
<g id="node11" class="node">
<title>Node10</title>
<g id="a_node11"><a xlink:href="kernel__defines_8h.html" target="_top" xlink:title="Common macros and compiler attributes/pragmas configuration. ">
<polygon fill="#ffffff" stroke="#000000" points="659,-168.5 659,-187.5 754,-187.5 754,-168.5 659,-168.5"/>
<text text-anchor="middle" x="706.5" y="-175.5" font-family="Helvetica,sans-Serif" font-size="10.00" fill="#000000">kernel_defines.h</text>
</a>
</g>
</g>
<!-- Node3&#45;&gt;Node10 -->
<g id="edge13" class="edge">
<title>Node3&#45;&gt;Node10</title>
<path fill="none" stroke="#191970" d="M1336.2738,-399.538C1286.9454,-394.709 1182.2334,-382.1097 1097.5,-356 953.726,-311.6975 793.7751,-226.702 732.3985,-192.6438"/>
<polygon fill="#191970" stroke="#191970" points="733.8498,-189.4456 723.4119,-187.629 730.4388,-195.5583 733.8498,-189.4456"/>
</g>
<!-- Node16 -->
<g id="node17" class="node">
<title>Node16</title>
<g id="a_node17"><a xlink:href="list_8h.html" target="_top" xlink:title="Intrusive linked list. ">
<polygon fill="#ffffff" stroke="#000000" points="1355.5,-112.5 1355.5,-131.5 1393.5,-131.5 1393.5,-112.5 1355.5,-112.5"/>
<text text-anchor="middle" x="1374.5" y="-119.5" font-family="Helvetica,sans-Serif" font-size="10.00" fill="#000000">list.h</text>
</a>
</g>
</g>
<!-- Node3&#45;&gt;Node16 -->
<g id="edge24" class="edge">
<title>Node3&#45;&gt;Node16</title>
<path fill="none" stroke="#191970" d="M1367.3035,-392.2066C1372.5887,-372.8521 1383.5,-328.2612 1383.5,-290 1383.5,-290 1383.5,-290 1383.5,-234 1383.5,-201.6075 1379.7133,-164.1141 1377.0523,-141.7662"/>
<polygon fill="#191970" stroke="#191970" points="1380.4919,-141.0616 1375.7895,-131.5676 1373.545,-141.9219 1380.4919,-141.0616"/>
</g>
<!-- Node17 -->
<g id="node18" class="node">
<title>Node17</title>
<g id="a_node18"><a xlink:href="core_2include_2thread_8h.html" target="_top" xlink:title="Threading API. ">
<polygon fill="#ffffff" stroke="#000000" points="1106,-336.5 1106,-355.5 1163,-355.5 1163,-336.5 1106,-336.5"/>
<text text-anchor="middle" x="1134.5" y="-343.5" font-family="Helvetica,sans-Serif" font-size="10.00" fill="#000000">thread.h</text>
</a>
</g>
</g>
<!-- Node3&#45;&gt;Node17 -->
<g id="edge25" class="edge">
<title>Node3&#45;&gt;Node17</title>
<path fill="none" stroke="#191970" d="M1336.2975,-395.1333C1295.3696,-385.1683 1219.3749,-366.6652 1173.2257,-355.4289"/>
<polygon fill="#191970" stroke="#191970" points="1173.8393,-351.9761 1163.2951,-353.011 1172.1833,-358.7774 1173.8393,-351.9761"/>
</g>
<!-- Node6&#45;&gt;Node1 -->
<g id="edge9" class="edge">
<title>Node6&#45;&gt;Node1</title>
<path fill="none" stroke="#191970" d="M1526.4469,-168.1772C1517.9882,-141.6448 1493.5519,-69.6154 1473.5,-56 1438.3231,-32.1147 796.9957,-14.8594 635.2832,-10.8756"/>
<polygon fill="#191970" stroke="#191970" points="634.9915,-7.3675 624.909,-10.6221 634.8205,-14.3654 634.9915,-7.3675"/>
</g>
<!-- Node7 -->
<g id="node8" class="node">
<title>Node7</title>
<g id="a_node8"><a xlink:href="inttypes_8h.html" target="_top" xlink:title="Adds include for missing inttype definitions. ">
<polygon fill="#ffffff" stroke="#000000" points="918,-112.5 918,-131.5 981,-131.5 981,-112.5 918,-112.5"/>
<text text-anchor="middle" x="949.5" y="-119.5" font-family="Helvetica,sans-Serif" font-size="10.00" fill="#000000">inttypes.h</text>
</a>
</g>
</g>
<!-- Node6&#45;&gt;Node7 -->
<g id="edge10" class="edge">
<title>Node6&#45;&gt;Node7</title>
<path fill="none" stroke="#191970" d="M1487.9694,-174.6402C1402.2132,-167.6011 1199.361,-150.425 1029.5,-132 1016.9979,-130.6439 1003.4177,-129.008 991.056,-127.4557"/>
<polygon fill="#191970" stroke="#191970" points="991.3705,-123.9676 981.0091,-126.1794 990.4883,-130.9118 991.3705,-123.9676"/>
</g>
<!-- Node8 -->
<g id="node9" class="node">
<title>Node8</title>
<polygon fill="#ffffff" stroke="#bfbfbf" points="1689.5,-112.5 1689.5,-131.5 1739.5,-131.5 1739.5,-112.5 1689.5,-112.5"/>
<text text-anchor="middle" x="1714.5" y="-119.5" font-family="Helvetica,sans-Serif" font-size="10.00" fill="#000000">limits.h</text>
</g>
<!-- Node6&#45;&gt;Node8 -->
<g id="edge11" class="edge">
<title>Node6&#45;&gt;Node8</title>
<path fill="none" stroke="#191970" d="M1561.3026,-168.3733C1594.1646,-158.4259 1645.3257,-142.9393 1679.364,-132.6358"/>
<polygon fill="#191970" stroke="#191970" points="1680.7816,-135.8636 1689.3387,-129.6164 1678.7535,-129.1638 1680.7816,-135.8636"/>
</g>
<!-- Node9 -->
<g id="node10" class="node">
<title>Node9</title>
<polygon fill="#ffffff" stroke="#bfbfbf" points="1526,-112.5 1526,-131.5 1633,-131.5 1633,-112.5 1526,-112.5"/>
<text text-anchor="middle" x="1579.5" y="-119.5" font-family="Helvetica,sans-Serif" font-size="10.00" fill="#000000">architecture_arch.h</text>
</g>
<!-- Node6&#45;&gt;Node9 -->
<g id="edge12" class="edge">
<title>Node6&#45;&gt;Node9</title>
<path fill="none" stroke="#191970" d="M1538.2093,-168.2455C1545.3073,-160.2958 1555.5084,-148.8706 1563.995,-139.3656"/>
<polygon fill="#191970" stroke="#191970" points="1566.8411,-141.4331 1570.8905,-131.6427 1561.6195,-136.771 1566.8411,-141.4331"/>
</g>
<!-- Node11 -->
<g id="node12" class="node">
<title>Node11</title>
<g id="a_node12"><a xlink:href="modules_8h.html" target="_top" xlink:title="Common macros and compiler attributes/pragmas configuration. ">
<polygon fill="#ffffff" stroke="#000000" points="796,-112.5 796,-131.5 861,-131.5 861,-112.5 796,-112.5"/>
<text text-anchor="middle" x="828.5" y="-119.5" font-family="Helvetica,sans-Serif" font-size="10.00" fill="#000000">modules.h</text>
</a>
</g>
</g>
<!-- Node10&#45;&gt;Node11 -->
<g id="edge14" class="edge">
<title>Node10&#45;&gt;Node11</title>
<path fill="none" stroke="#191970" d="M727.4725,-168.3733C747.0567,-159.3838 776.4961,-145.8706 798.551,-135.7471"/>
<polygon fill="#191970" stroke="#191970" points="800.1729,-138.8538 807.8011,-131.5011 797.2527,-132.4919 800.1729,-138.8538"/>
</g>
<!-- Node12 -->
<g id="node13" class="node">
<title>Node12</title>
<g id="a_node13"><a xlink:href="riot__version_8h.html" target="_top" xlink:title="Common macros and compiler attributes/pragmas configuration. ">
<polygon fill="#ffffff" stroke="#000000" points="776,-56.5 776,-75.5 857,-75.5 857,-56.5 776,-56.5"/>
<text text-anchor="middle" x="816.5" y="-63.5" font-family="Helvetica,sans-Serif" font-size="10.00" fill="#000000">riot_version.h</text>
</a>
</g>
</g>
<!-- Node10&#45;&gt;Node12 -->
<g id="edge15" class="edge">
<title>Node10&#45;&gt;Node12</title>
<path fill="none" stroke="#191970" d="M750.7246,-168.4737C796.7315,-158.1189 863.1085,-141.75 870.5,-132 884.0564,-114.118 862.6305,-94.2746 842.8941,-81.0609"/>
<polygon fill="#191970" stroke="#191970" points="844.6831,-78.0511 834.3621,-75.6582 840.9382,-83.9651 844.6831,-78.0511"/>
</g>
<!-- Node13 -->
<g id="node14" class="node">
<title>Node13</title>
<g id="a_node14"><a xlink:href="compiler__hints_8h.html" target="_top" xlink:title="Common macros and compiler attributes/pragmas configuration. ">
<polygon fill="#ffffff" stroke="#000000" points="646,-112.5 646,-131.5 739,-131.5 739,-112.5 646,-112.5"/>
<text text-anchor="middle" x="692.5" y="-119.5" font-family="Helvetica,sans-Serif" font-size="10.00" fill="#000000">compiler_hints.h</text>
</a>
</g>
</g>
<!-- Node10&#45;&gt;Node13 -->
<g id="edge17" class="edge">
<title>Node10&#45;&gt;Node13</title>
<path fill="none" stroke="#191970" d="M704.0614,-168.2455C702.2145,-160.8579 699.6172,-150.4689 697.3522,-141.4087"/>
<polygon fill="#191970" stroke="#191970" points="700.7316,-140.4952 694.9107,-131.6427 693.9406,-142.193 700.7316,-140.4952"/>
</g>
<!-- Node15 -->
<g id="node16" class="node">
<title>Node15</title>
<g id="a_node16"><a xlink:href="container_8h.html" target="_top" xlink:title="Common macros and compiler attributes/pragmas configuration. ">
<polygon fill="#ffffff" stroke="#000000" points="1038,-112.5 1038,-131.5 1107,-131.5 1107,-112.5 1038,-112.5"/>
<text text-anchor="middle" x="1072.5" y="-119.5" font-family="Helvetica,sans-Serif" font-size="10.00" fill="#000000">container.h</text>
</a>
</g>
</g>
<!-- Node10&#45;&gt;Node15 -->
<g id="edge21" class="edge">
<title>Node10&#45;&gt;Node15</title>
<path fill="none" stroke="#191970" d="M754.0702,-169.5595C757.2599,-169.0228 760.4256,-168.4984 763.5,-168 857.3817,-152.7794 967.6319,-136.8273 1027.7769,-128.2873"/>
<polygon fill="#191970" stroke="#191970" points="1028.2894,-131.7497 1037.6993,-126.8811 1027.3071,-124.8189 1028.2894,-131.7497"/>
</g>
<!-- Node12&#45;&gt;Node1 -->
<g id="edge16" class="edge">
<title>Node12&#45;&gt;Node1</title>
<path fill="none" stroke="#191970" d="M779.0245,-56.3733C738.4846,-45.9593 674.3114,-29.4745 634.3977,-19.2214"/>
<polygon fill="#191970" stroke="#191970" points="635.1138,-15.7918 624.5574,-16.6936 633.3721,-22.5717 635.1138,-15.7918"/>
</g>
<!-- Node13&#45;&gt;Node1 -->
<g id="edge20" class="edge">
<title>Node13&#45;&gt;Node1</title>
<path fill="none" stroke="#191970" d="M684.4856,-112.4509C668.6688,-93.6054 633.2337,-51.3849 613.1387,-27.4419"/>
<polygon fill="#191970" stroke="#191970" points="615.6038,-24.9346 606.4941,-19.5249 610.2419,-29.4347 615.6038,-24.9346"/>
</g>
<!-- Node13&#45;&gt;Node14 -->
<g id="edge18" class="edge">
<title>Node13&#45;&gt;Node14</title>
<path fill="none" stroke="#191970" d="M663.6198,-112.3733C635.2607,-102.9202 591.8946,-88.4649 561.1271,-78.209"/>
<polygon fill="#191970" stroke="#191970" points="562.209,-74.8804 551.6153,-75.0384 559.9953,-81.5212 562.209,-74.8804"/>
</g>
<!-- Node14&#45;&gt;Node1 -->
<g id="edge19" class="edge">
<title>Node14&#45;&gt;Node1</title>
<path fill="none" stroke="#191970" d="M537.3898,-56.2455C548.4254,-47.8943 564.5292,-35.7076 577.4353,-25.9408"/>
<polygon fill="#191970" stroke="#191970" points="579.8959,-28.4681 585.7579,-19.6427 575.6717,-22.8862 579.8959,-28.4681"/>
</g>
<!-- Node15&#45;&gt;Node1 -->
<g id="edge23" class="edge">
<title>Node15&#45;&gt;Node1</title>
<path fill="none" stroke="#191970" d="M1068.46,-112.3707C1061.6317,-97.4347 1046.2879,-69.0471 1023.5,-56 990.0937,-36.8734 731.69,-18.5353 634.924,-12.2703"/>
<polygon fill="#191970" stroke="#191970" points="634.9469,-8.7646 624.7433,-11.6172 634.4987,-15.7503 634.9469,-8.7646"/>
</g>
<!-- Node15&#45;&gt;Node4 -->
<g id="edge22" class="edge">
<title>Node15&#45;&gt;Node4</title>
<path fill="none" stroke="#191970" d="M1090.0929,-112.2455C1105.879,-103.4928 1129.2639,-90.527 1147.2587,-80.5496"/>
<polygon fill="#191970" stroke="#191970" points="1149.0603,-83.5528 1156.1087,-75.6427 1145.6659,-77.4308 1149.0603,-83.5528"/>
</g>
<!-- Node18 -->
<g id="node19" class="node">
<title>Node18</title>
<g id="a_node19"><a xlink:href="clist_8h.html" target="_top" xlink:title="Circular linked list. ">
<polygon fill="#ffffff" stroke="#000000" points="1312,-168.5 1312,-187.5 1355,-187.5 1355,-168.5 1312,-168.5"/>
<text text-anchor="middle" x="1333.5" y="-175.5" font-family="Helvetica,sans-Serif" font-size="10.00" fill="#000000">clist.h</text>
</a>
</g>
</g>
<!-- Node17&#45;&gt;Node18 -->
<g id="edge26" class="edge">
<title>Node17&#45;&gt;Node18</title>
<path fill="none" stroke="#191970" d="M1163.304,-340.5916C1202.6353,-332.6847 1270.3436,-317.0453 1288.5,-300 1317.5911,-272.6891 1327.9627,-224.9341 1331.5962,-197.9844"/>
<polygon fill="#191970" stroke="#191970" points="1335.0986,-198.1657 1332.7759,-187.8286 1328.1454,-197.358 1335.0986,-198.1657"/>
</g>
<!-- Node19 -->
<g id="node20" class="node">
<title>Node19</title>
<g id="a_node20"><a xlink:href="cib_8h.html" target="_top" xlink:title="Circular integer buffer interface. ">
<polygon fill="#ffffff" stroke="#000000" points="586.5,-280.5 586.5,-299.5 624.5,-299.5 624.5,-280.5 586.5,-280.5"/>
<text text-anchor="middle" x="605.5" y="-287.5" font-family="Helvetica,sans-Serif" font-size="10.00" fill="#000000">cib.h</text>
</a>
</g>
</g>
<!-- Node17&#45;&gt;Node19 -->
<g id="edge30" class="edge">
<title>Node17&#45;&gt;Node19</title>
<path fill="none" stroke="#191970" d="M1105.683,-342.9494C1013.5997,-333.2015 727.1021,-302.8728 634.6091,-293.0815"/>
<polygon fill="#191970" stroke="#191970" points="634.872,-289.5899 624.5591,-292.0176 634.1351,-296.551 634.872,-289.5899"/>
</g>
<!-- Node20 -->
<g id="node21" class="node">
<title>Node20</title>
<g id="a_node21"><a xlink:href="core_2include_2msg_8h.html" target="_top" xlink:title="Messaging API for inter process communication. ">
<polygon fill="#ffffff" stroke="#000000" points="988,-280.5 988,-299.5 1033,-299.5 1033,-280.5 988,-280.5"/>
<text text-anchor="middle" x="1010.5" y="-287.5" font-family="Helvetica,sans-Serif" font-size="10.00" fill="#000000">msg.h</text>
</a>
</g>
</g>
<!-- Node17&#45;&gt;Node20 -->
<g id="edge32" class="edge">
<title>Node17&#45;&gt;Node20</title>
<path fill="none" stroke="#191970" d="M1113.1836,-336.3733C1093.2784,-327.3838 1063.3564,-313.8706 1040.94,-303.7471"/>
<polygon fill="#191970" stroke="#191970" points="1042.0925,-300.4272 1031.5382,-299.5011 1039.2113,-306.8068 1042.0925,-300.4272"/>
</g>
<!-- Node21 -->
<g id="node22" class="node">
<title>Node21</title>
<g id="a_node22"><a xlink:href="sched_8h.html" target="_top" xlink:title="Scheduler API definition. ">
<polygon fill="#ffffff" stroke="#000000" points="1037,-224.5 1037,-243.5 1090,-243.5 1090,-224.5 1037,-224.5"/>
<text text-anchor="middle" x="1063.5" y="-231.5" font-family="Helvetica,sans-Serif" font-size="10.00" fill="#000000">sched.h</text>
</a>
</g>
</g>
<!-- Node17&#45;&gt;Node21 -->
<g id="edge41" class="edge">
<title>Node17&#45;&gt;Node21</title>
<path fill="none" stroke="#191970" d="M1118.4367,-336.2647C1106.2542,-328.0645 1090.0306,-315.2468 1080.5,-300 1071.7783,-286.0473 1067.5158,-267.7779 1065.4414,-253.9987"/>
<polygon fill="#191970" stroke="#191970" points="1068.8654,-253.1681 1064.1637,-243.6736 1061.9184,-254.0278 1068.8654,-253.1681"/>
</g>
<!-- Node23 -->
<g id="node24" class="node">
<title>Node23</title>
<g id="a_node24"><a xlink:href="thread__config_8h.html" target="_top" xlink:title="Thread configuration defines. ">
<polygon fill="#ffffff" stroke="#000000" points="1089.5,-280.5 1089.5,-299.5 1179.5,-299.5 1179.5,-280.5 1089.5,-280.5"/>
<text text-anchor="middle" x="1134.5" y="-287.5" font-family="Helvetica,sans-Serif" font-size="10.00" fill="#000000">thread_config.h</text>
</a>
</g>
</g>
<!-- Node17&#45;&gt;Node23 -->
<g id="edge42" class="edge">
<title>Node17&#45;&gt;Node23</title>
<path fill="none" stroke="#191970" d="M1134.5,-336.2455C1134.5,-328.9382 1134.5,-318.6944 1134.5,-309.7046"/>
<polygon fill="#191970" stroke="#191970" points="1138.0001,-309.6426 1134.5,-299.6427 1131.0001,-309.6427 1138.0001,-309.6426"/>
</g>
<!-- Node25 -->
<g id="node26" class="node">
<title>Node25</title>
<polygon fill="#ffffff" stroke="#bfbfbf" points="1197.5,-280.5 1197.5,-299.5 1279.5,-299.5 1279.5,-280.5 1197.5,-280.5"/>
<text text-anchor="middle" x="1238.5" y="-287.5" font-family="Helvetica,sans-Serif" font-size="10.00" fill="#000000">thread_arch.h</text>
</g>
<!-- Node17&#45;&gt;Node25 -->
<g id="edge45" class="edge">
<title>Node17&#45;&gt;Node25</title>
<path fill="none" stroke="#191970" d="M1152.6154,-336.2455C1168.945,-327.4527 1193.171,-314.4079 1211.7339,-304.4125"/>
<polygon fill="#191970" stroke="#191970" points="1213.4468,-307.4654 1220.5922,-299.6427 1210.1281,-301.3021 1213.4468,-307.4654"/>
</g>
<!-- Node18&#45;&gt;Node4 -->
<g id="edge28" class="edge">
<title>Node18&#45;&gt;Node4</title>
<path fill="none" stroke="#191970" d="M1332.3905,-168.0565C1330.274,-153.7318 1324.3557,-127.3304 1308.5,-112 1282.3059,-86.6738 1241.6206,-75.2644 1211.7579,-70.1407"/>
<polygon fill="#191970" stroke="#191970" points="1212.1064,-66.653 1201.688,-68.578 1211.033,-73.5702 1212.1064,-66.653"/>
</g>
<!-- Node18&#45;&gt;Node5 -->
<g id="edge27" class="edge">
<title>Node18&#45;&gt;Node5</title>
<path fill="none" stroke="#191970" d="M1322.3521,-168.2455C1312.9913,-160.0549 1299.4142,-148.1749 1288.3651,-138.5069"/>
<polygon fill="#191970" stroke="#191970" points="1290.3508,-135.5937 1280.5202,-131.6427 1285.7412,-140.8618 1290.3508,-135.5937"/>
</g>
<!-- Node18&#45;&gt;Node16 -->
<g id="edge29" class="edge">
<title>Node18&#45;&gt;Node16</title>
<path fill="none" stroke="#191970" d="M1340.6417,-168.2455C1346.3444,-160.4564 1354.49,-149.3308 1361.3625,-139.9439"/>
<polygon fill="#191970" stroke="#191970" points="1364.3568,-141.7789 1367.4402,-131.6427 1358.7087,-137.6437 1364.3568,-141.7789"/>
</g>
<!-- Node19&#45;&gt;Node14 -->
<g id="edge31" class="edge">
<title>Node19&#45;&gt;Node14</title>
<path fill="none" stroke="#191970" d="M594.6737,-280.4901C585.5333,-271.8635 572.8006,-258.3344 565.5,-244 538.4756,-190.9389 529.0371,-119.952 525.9257,-85.8834"/>
<polygon fill="#191970" stroke="#191970" points="529.4063,-85.503 525.0969,-75.8242 522.43,-86.0779 529.4063,-85.503"/>
</g>
<!-- Node20&#45;&gt;Node1 -->
<g id="edge33" class="edge">
<title>Node20&#45;&gt;Node1</title>
<path fill="none" stroke="#191970" d="M987.9344,-289.0533C899.2529,-284.7309 579.5,-263.236 579.5,-178 579.5,-178 579.5,-178 579.5,-122 579.5,-89.2688 587.4852,-51.9052 593.1022,-29.6716"/>
<polygon fill="#191970" stroke="#191970" points="596.5415,-30.3545 595.6965,-19.7934 589.7711,-28.5763 596.5415,-30.3545"/>
</g>
<!-- Node20&#45;&gt;Node5 -->
<g id="edge34" class="edge">
<title>Node20&#45;&gt;Node5</title>
<path fill="none" stroke="#191970" d="M1033.3282,-283.7794C1075.4738,-271.3819 1166.6512,-240.2029 1226.5,-188 1241.5726,-174.853 1253.4575,-155.187 1260.8777,-140.7412"/>
<polygon fill="#191970" stroke="#191970" points="1264.0408,-142.24 1265.2857,-131.7186 1257.7512,-139.1672 1264.0408,-142.24"/>
</g>
<!-- Node20&#45;&gt;Node21 -->
<g id="edge35" class="edge">
<title>Node20&#45;&gt;Node21</title>
<path fill="none" stroke="#191970" d="M1019.7319,-280.2455C1027.3317,-272.2155 1038.2877,-260.6394 1047.3368,-251.0781"/>
<polygon fill="#191970" stroke="#191970" points="1050.0421,-253.3115 1054.3739,-243.6427 1044.958,-248.4998 1050.0421,-253.3115"/>
</g>
<!-- Node21&#45;&gt;Node4 -->
<g id="edge36" class="edge">
<title>Node21&#45;&gt;Node4</title>
<path fill="none" stroke="#191970" d="M1070.6389,-224.1051C1080.9459,-210.3072 1101.1175,-185.0648 1122.5,-168 1148.3114,-147.4006 1170.7341,-160.4513 1187.5,-132 1196.0178,-117.5456 1190.6213,-98.6046 1184.2144,-84.7225"/>
<polygon fill="#191970" stroke="#191970" points="1187.2352,-82.9432 1179.5551,-75.6448 1181.0076,-86.1396 1187.2352,-82.9432"/>
</g>
<!-- Node21&#45;&gt;Node7 -->
<g id="edge37" class="edge">
<title>Node21&#45;&gt;Node7</title>
<path fill="none" stroke="#191970" d="M1036.8609,-228.0442C1003.459,-219.9741 949.1458,-204.6493 937.5,-188 927.9387,-174.3308 932.8332,-155.2963 939.0005,-141.1796"/>
<polygon fill="#191970" stroke="#191970" points="942.2811,-142.4379 943.5276,-131.9166 935.9921,-139.3641 942.2811,-142.4379"/>
</g>
<!-- Node21&#45;&gt;Node10 -->
<g id="edge38" class="edge">
<title>Node21&#45;&gt;Node10</title>
<path fill="none" stroke="#191970" d="M1036.9833,-230.1299C986.2269,-222.6801 871.589,-205.652 764.1152,-188.0727"/>
<polygon fill="#191970" stroke="#191970" points="764.5075,-184.5903 754.0727,-186.425 763.3741,-191.498 764.5075,-184.5903"/>
</g>
<!-- Node21&#45;&gt;Node18 -->
<g id="edge40" class="edge">
<title>Node21&#45;&gt;Node18</title>
<path fill="none" stroke="#191970" d="M1090.3757,-228.4258C1140.5203,-218.0254 1248.1022,-195.7121 1301.7401,-184.5872"/>
<polygon fill="#191970" stroke="#191970" points="1302.6346,-187.9763 1311.7154,-182.5183 1301.213,-181.1221 1302.6346,-187.9763"/>
</g>
<!-- Node22 -->
<g id="node23" class="node">
<title>Node22</title>
<g id="a_node23"><a xlink:href="native__sched_8h.html" target="_top" xlink:title="Add definitions required on the native board. ">
<polygon fill="#ffffff" stroke="#000000" points="1131.5,-168.5 1131.5,-187.5 1217.5,-187.5 1217.5,-168.5 1131.5,-168.5"/>
<text text-anchor="middle" x="1174.5" y="-175.5" font-family="Helvetica,sans-Serif" font-size="10.00" fill="#000000">native_sched.h</text>
</a>
</g>
</g>
<!-- Node21&#45;&gt;Node22 -->
<g id="edge39" class="edge">
<title>Node21&#45;&gt;Node22</title>
<path fill="none" stroke="#191970" d="M1082.5816,-224.3733C1100.2402,-215.4644 1126.7053,-202.1127 1146.7098,-192.0203"/>
<polygon fill="#191970" stroke="#191970" points="1148.3158,-195.1303 1155.6674,-187.5011 1145.1628,-188.8806 1148.3158,-195.1303"/>
</g>
<!-- Node23&#45;&gt;Node21 -->
<g id="edge44" class="edge">
<title>Node23&#45;&gt;Node21</title>
<path fill="none" stroke="#191970" d="M1122.1327,-280.2455C1111.5446,-271.8943 1096.0936,-259.7076 1083.7107,-249.9408"/>
<polygon fill="#191970" stroke="#191970" points="1085.7447,-247.0875 1075.7255,-243.6427 1081.4097,-252.5837 1085.7447,-247.0875"/>
</g>
<!-- Node24 -->
<g id="node25" class="node">
<title>Node24</title>
<polygon fill="#ffffff" stroke="#bfbfbf" points="1212,-224.5 1212,-243.5 1279,-243.5 1279,-224.5 1212,-224.5"/>
<text text-anchor="middle" x="1245.5" y="-231.5" font-family="Helvetica,sans-Serif" font-size="10.00" fill="#000000">cpu_conf.h</text>
</g>
<!-- Node23&#45;&gt;Node24 -->
<g id="edge43" class="edge">
<title>Node23&#45;&gt;Node24</title>
<path fill="none" stroke="#191970" d="M1153.5816,-280.3733C1171.2402,-271.4644 1197.7053,-258.1127 1217.7098,-248.0203"/>
<polygon fill="#191970" stroke="#191970" points="1219.3158,-251.1303 1226.6674,-243.5011 1216.1628,-244.8806 1219.3158,-251.1303"/>
</g>
<!-- Node26&#45;&gt;Node1 -->
<g id="edge49" class="edge">
<title>Node26&#45;&gt;Node1</title>
<path fill="none" stroke="#191970" d="M878.2829,-232.8232C822.4931,-229.5294 683.0337,-218.3836 649.5,-188 603.7317,-146.5311 597.9357,-67.0507 597.8927,-29.9697"/>
<polygon fill="#191970" stroke="#191970" points="601.3931,-29.9577 598.0262,-19.9121 594.3937,-29.8647 601.3931,-29.9577"/>
</g>
<!-- Node26&#45;&gt;Node4 -->
<g id="edge47" class="edge">
<title>Node26&#45;&gt;Node4</title>
<path fill="none" stroke="#191970" d="M924.8327,-229.6575C971.3039,-219.9201 1076.4483,-192.303 1140.5,-132 1153.8791,-119.404 1162.6255,-100.2031 1167.7304,-85.7533"/>
<polygon fill="#191970" stroke="#191970" points="1171.1965,-86.4093 1170.9407,-75.8175 1164.5356,-84.257 1171.1965,-86.4093"/>
</g>
<!-- Node26&#45;&gt;Node5 -->
<g id="edge48" class="edge">
<title>Node26&#45;&gt;Node5</title>
<path fill="none" stroke="#191970" d="M924.52,-226.9939C985.6599,-208.3861 1152.684,-157.5527 1229.6704,-134.1221"/>
<polygon fill="#191970" stroke="#191970" points="1230.93,-137.3973 1239.4777,-131.1372 1228.8919,-130.7005 1230.93,-137.3973"/>
</g>
<!-- Node27 -->
<g id="node28" class="node">
<title>Node27</title>
<g id="a_node28"><a xlink:href="senml_8h.html" target="_top" xlink:title="Basic SenML types. ">
<polygon fill="#ffffff" stroke="#000000" points="946,-168.5 946,-187.5 999,-187.5 999,-168.5 946,-168.5"/>
<text text-anchor="middle" x="972.5" y="-175.5" font-family="Helvetica,sans-Serif" font-size="10.00" fill="#000000">senml.h</text>
</a>
</g>
</g>
<!-- Node26&#45;&gt;Node27 -->
<g id="edge50" class="edge">
<title>Node26&#45;&gt;Node27</title>
<path fill="none" stroke="#191970" d="M913.8673,-224.2455C924.4554,-215.8943 939.9064,-203.7076 952.2893,-193.9408"/>
<polygon fill="#191970" stroke="#191970" points="954.5903,-196.5837 960.2745,-187.6427 950.2553,-191.0875 954.5903,-196.5837"/>
</g>
<!-- Node28 -->
<g id="node29" class="node">
<title>Node28</title>
<polygon fill="#ffffff" stroke="#bfbfbf" points="772,-168.5 772,-187.5 889,-187.5 889,-168.5 772,-168.5"/>
<text text-anchor="middle" x="830.5" y="-175.5" font-family="Helvetica,sans-Serif" font-size="10.00" fill="#000000">nanocbor/nanocbor.h</text>
</g>
<!-- Node26&#45;&gt;Node28 -->
<g id="edge55" class="edge">
<title>Node26&#45;&gt;Node28</title>
<path fill="none" stroke="#191970" d="M889.1327,-224.2455C878.5446,-215.8943 863.0936,-203.7076 850.7107,-193.9408"/>
<polygon fill="#191970" stroke="#191970" points="852.7447,-191.0875 842.7255,-187.6427 848.4097,-196.5837 852.7447,-191.0875"/>
</g>
<!-- Node27&#45;&gt;Node1 -->
<g id="edge53" class="edge">
<title>Node27&#45;&gt;Node1</title>
<path fill="none" stroke="#191970" d="M979.6884,-168.2989C988.7854,-154.7312 1001.9669,-129.7607 990.5,-112 957.7003,-61.1978 924.3215,-73.7021 866.5,-56 785.6282,-31.2411 686.6926,-18.6071 634.5847,-13.2533"/>
<polygon fill="#191970" stroke="#191970" points="634.8008,-9.7576 624.503,-12.2489 634.1068,-16.7231 634.8008,-9.7576"/>
</g>
<!-- Node27&#45;&gt;Node4 -->
<g id="edge51" class="edge">
<title>Node27&#45;&gt;Node4</title>
<path fill="none" stroke="#191970" d="M999.0306,-171.3769C1035.0058,-162.0849 1097.0112,-144.8751 1116.5,-132 1135.5393,-119.4219 1151.9174,-98.7774 1162.1684,-83.9245"/>
<polygon fill="#191970" stroke="#191970" points="1165.1138,-85.8159 1167.7283,-75.5487 1159.2817,-81.9445 1165.1138,-85.8159"/>
</g>
<!-- Node27&#45;&gt;Node5 -->
<g id="edge52" class="edge">
<title>Node27&#45;&gt;Node5</title>
<path fill="none" stroke="#191970" d="M999.1181,-172.9811C1051.3407,-163.1344 1167.498,-141.2327 1229.1884,-129.6008"/>
<polygon fill="#191970" stroke="#191970" points="1230.1468,-132.9819 1239.3252,-127.6895 1228.8498,-126.1031 1230.1468,-132.9819"/>
</g>
<!-- Node27&#45;&gt;Node11 -->
<g id="edge54" class="edge">
<title>Node27&#45;&gt;Node11</title>
<path fill="none" stroke="#191970" d="M947.7455,-168.3733C924.2151,-159.2226 888.6313,-145.3844 862.4574,-135.2057"/>
<polygon fill="#191970" stroke="#191970" points="863.5201,-131.8636 852.9315,-131.5011 860.9829,-138.3877 863.5201,-131.8636"/>
</g>
<!-- Node30 -->
<g id="node31" class="node">
<title>Node30</title>
<g id="a_node31"><a xlink:href="ciphers_8h.html" target="_top" xlink:title="Headers for the packet encryption class. ">
<polygon fill="#ffffff" stroke="#000000" points="199,-168.5 199,-187.5 292,-187.5 292,-168.5 199,-168.5"/>
<text text-anchor="middle" x="245.5" y="-175.5" font-family="Helvetica,sans-Serif" font-size="10.00" fill="#000000">crypto/ciphers.h</text>
</a>
</g>
</g>
<!-- Node29&#45;&gt;Node30 -->
<g id="edge58" class="edge">
<title>Node29&#45;&gt;Node30</title>
<path fill="none" stroke="#191970" d="M325.6865,-336.4862C312.0755,-309.5845 273.1247,-232.5994 254.9954,-196.7673"/>
<polygon fill="#191970" stroke="#191970" points="258.1101,-195.1707 250.4724,-187.8279 251.864,-198.3309 258.1101,-195.1707"/>
</g>
<!-- Node30&#45;&gt;Node1 -->
<g id="edge59" class="edge">
<title>Node30&#45;&gt;Node1</title>
<path fill="none" stroke="#191970" d="M208.6816,-168.3966C190.1862,-161.5069 169.4327,-150.1473 158.5,-132 129.7783,-84.3245 203.7586,-67.388 231.5,-56 290.9803,-31.583 481.9814,-17.218 562.3383,-12.12"/>
<polygon fill="#191970" stroke="#191970" points="562.7076,-15.6039 572.4709,-11.4893 562.2727,-8.6174 562.7076,-15.6039"/>
</g>
<!-- Node30&#45;&gt;Node11 -->
<g id="edge60" class="edge">
<title>Node30&#45;&gt;Node11</title>
<path fill="none" stroke="#191970" d="M292.2582,-169.1717C295.0425,-168.7476 297.8055,-168.3526 300.5,-168 498.1253,-142.1412 549.2179,-152.2149 747.5,-132 759.9443,-130.7313 773.4384,-129.1484 785.7783,-127.6189"/>
<polygon fill="#191970" stroke="#191970" points="786.3393,-131.076 795.824,-126.3547 785.4652,-124.1308 786.3393,-131.076"/>
</g>
<!-- Node31&#45;&gt;Node1 -->
<g id="edge62" class="edge">
<title>Node31&#45;&gt;Node1</title>
<path fill="none" stroke="#191970" d="M430.5564,-168.4283C409.3696,-156.3561 379.6055,-134.4499 392.5,-112 427.8504,-50.4537 513.5076,-25.1933 562.5112,-15.5063"/>
<polygon fill="#191970" stroke="#191970" points="563.1904,-18.9401 572.3804,-13.6681 561.9086,-12.0584 563.1904,-18.9401"/>
</g>
<!-- Node31&#45;&gt;Node7 -->
<g id="edge63" class="edge">
<title>Node31&#45;&gt;Node7</title>
<path fill="none" stroke="#191970" d="M475.6291,-175.3019C541.7689,-168.4381 721.1753,-149.6075 870.5,-132 882.6056,-130.5726 895.7439,-128.9422 907.7673,-127.4179"/>
<polygon fill="#191970" stroke="#191970" points="908.5158,-130.8509 917.9925,-126.1135 907.6299,-123.9072 908.5158,-130.8509"/>
</g>
<!-- Node32 -->
<g id="node33" class="node">
<title>Node32</title>
<g id="a_node33"><a xlink:href="time__units_8h.html" target="_top" xlink:title="Utility header providing time unit defines. ">
<polygon fill="#ffffff" stroke="#000000" points="401.5,-112.5 401.5,-131.5 475.5,-131.5 475.5,-112.5 401.5,-112.5"/>
<text text-anchor="middle" x="438.5" y="-119.5" font-family="Helvetica,sans-Serif" font-size="10.00" fill="#000000">time_units.h</text>
</a>
</g>
</g>
<!-- Node31&#45;&gt;Node32 -->
<g id="edge64" class="edge">
<title>Node31&#45;&gt;Node32</title>
<path fill="none" stroke="#191970" d="M447.5839,-168.2455C446.1486,-160.9382 444.1364,-150.6944 442.3705,-141.7046"/>
<polygon fill="#191970" stroke="#191970" points="445.756,-140.7805 440.3941,-131.6427 438.8873,-142.1298 445.756,-140.7805"/>
</g>
<!-- Node34&#45;&gt;Node1 -->
<g id="edge67" class="edge">
<title>Node34&#45;&gt;Node1</title>
<path fill="none" stroke="#191970" d="M37.2818,-168.3698C39.7674,-144.7154 49.7225,-83.678 87.5,-56 125.6151,-28.0746 451.596,-14.8396 562.066,-11.1272"/>
<polygon fill="#191970" stroke="#191970" points="562.4871,-14.6153 572.3664,-10.7878 562.2565,-7.6191 562.4871,-14.6153"/>
</g>
<!-- Node35&#45;&gt;Node1 -->
<g id="edge69" class="edge">
<title>Node35&#45;&gt;Node1</title>
<path fill="none" stroke="#191970" d="M102.2161,-224.4553C105.1005,-193.6181 118.7895,-96.3297 178.5,-56 210.0288,-34.7048 466.3141,-17.7132 562.3445,-12.0365"/>
<polygon fill="#191970" stroke="#191970" points="562.6696,-15.5236 572.4484,-11.4462 562.2612,-8.5355 562.6696,-15.5236"/>
</g>
<!-- Node35&#45;&gt;Node34 -->
<g id="edge76" class="edge">
<title>Node35&#45;&gt;Node34</title>
<path fill="none" stroke="#191970" d="M90.1779,-224.2455C80.5777,-215.9746 66.6108,-203.9416 55.3305,-194.2232"/>
<polygon fill="#191970" stroke="#191970" points="57.553,-191.5182 47.6924,-187.6427 52.984,-196.8214 57.553,-191.5182"/>
</g>
<!-- Node36 -->
<g id="node37" class="node">
<title>Node36</title>
<g id="a_node37"><a xlink:href="sha256_8h.html" target="_top" xlink:title="Header definitions for the SHA256 hash function. ">
<polygon fill="#ffffff" stroke="#000000" points="310,-168.5 310,-187.5 405,-187.5 405,-168.5 310,-168.5"/>
<text text-anchor="middle" x="357.5" y="-175.5" font-family="Helvetica,sans-Serif" font-size="10.00" fill="#000000">hashes/sha256.h</text>
</a>
</g>
</g>
<!-- Node35&#45;&gt;Node36 -->
<g id="edge70" class="edge">
<title>Node35&#45;&gt;Node36</title>
<path fill="none" stroke="#191970" d="M145.2171,-224.4369C189.1216,-214.8328 256.8413,-200.0191 303.945,-189.7152"/>
<polygon fill="#191970" stroke="#191970" points="304.9422,-193.0799 313.9632,-187.5237 303.4463,-186.2416 304.9422,-193.0799"/>
</g>
<!-- Node36&#45;&gt;Node4 -->
<g id="edge72" class="edge">
<title>Node36&#45;&gt;Node4</title>
<path fill="none" stroke="#191970" d="M405.0485,-169.4165C408.2434,-168.9143 411.4162,-168.4367 414.5,-168 561.8917,-147.127 604.6705,-173.9493 747.5,-132 766.5706,-126.3989 768.4602,-117.7051 787.5,-112 852.054,-92.6568 1050.7988,-75.4989 1135.081,-68.8885"/>
<polygon fill="#191970" stroke="#191970" points="1135.5487,-72.3628 1145.2477,-68.0989 1135.0066,-65.3839 1135.5487,-72.3628"/>
</g>
<!-- Node36&#45;&gt;Node7 -->
<g id="edge71" class="edge">
<title>Node36&#45;&gt;Node7</title>
<path fill="none" stroke="#191970" d="M405.0346,-169.3131C408.2329,-168.8359 411.4102,-168.3921 414.5,-168 616.1798,-142.4064 668.2666,-152.7708 870.5,-132 882.5194,-130.7655 895.5397,-129.2084 907.4766,-127.6928"/>
<polygon fill="#191970" stroke="#191970" points="908.166,-131.133 917.6353,-126.3808 907.2693,-124.1906 908.166,-131.133"/>
</g>
<!-- Node37 -->
<g id="node38" class="node">
<title>Node37</title>
<g id="a_node38"><a xlink:href="sha2xx__common_8h.html" target="_top" xlink:title="Common definitions for the SHA&#45;224/256 hash functions. ">
<polygon fill="#ffffff" stroke="#000000" points="168,-112.5 168,-131.5 307,-131.5 307,-112.5 168,-112.5"/>
<text text-anchor="middle" x="237.5" y="-119.5" font-family="Helvetica,sans-Serif" font-size="10.00" fill="#000000">hashes/sha2xx_common.h</text>
</a>
</g>
</g>
<!-- Node36&#45;&gt;Node37 -->
<g id="edge73" class="edge">
<title>Node36&#45;&gt;Node37</title>
<path fill="none" stroke="#191970" d="M336.8713,-168.3733C317.6081,-159.3838 288.6514,-145.8706 266.9581,-135.7471"/>
<polygon fill="#191970" stroke="#191970" points="268.4015,-132.5584 257.8595,-131.5011 265.4413,-138.9017 268.4015,-132.5584"/>
</g>
<!-- Node37&#45;&gt;Node1 -->
<g id="edge75" class="edge">
<title>Node37&#45;&gt;Node1</title>
<path fill="none" stroke="#191970" d="M235.2434,-112.4046C232.4906,-98.0318 229.8468,-71.0024 244.5,-56 266.5061,-33.4694 476.7565,-17.7165 562.4334,-12.1831"/>
<polygon fill="#191970" stroke="#191970" points="562.7233,-15.6718 572.4811,-11.5443 562.2791,-8.6859 562.7233,-15.6718"/>
</g>
<!-- Node38 -->
<g id="node39" class="node">
<title>Node38</title>
<polygon fill="#ffffff" stroke="#bfbfbf" points="254,-56.5 254,-75.5 307,-75.5 307,-56.5 254,-56.5"/>
<text text-anchor="middle" x="280.5" y="-63.5" font-family="Helvetica,sans-Serif" font-size="10.00" fill="#000000">string.h</text>
</g>
<!-- Node37&#45;&gt;Node38 -->
<g id="edge74" class="edge">
<title>Node37&#45;&gt;Node38</title>
<path fill="none" stroke="#191970" d="M244.99,-112.2455C251.0326,-104.3761 259.6903,-93.101 266.9441,-83.6542"/>
<polygon fill="#191970" stroke="#191970" points="269.7815,-85.7058 273.0958,-75.6427 264.2295,-81.4426 269.7815,-85.7058"/>
</g>
<!-- Node39&#45;&gt;Node5 -->
<g id="edge79" class="edge">
<title>Node39&#45;&gt;Node5</title>
<path fill="none" stroke="#191970" d="M1689.2311,-173.2926C1619.4253,-165.1034 1471.4333,-147.6147 1346.5,-132 1334.6025,-130.513 1321.6772,-128.8521 1309.8746,-127.3177"/>
<polygon fill="#191970" stroke="#191970" points="1310.2144,-123.8325 1299.8456,-126.0094 1309.3088,-130.7736 1310.2144,-123.8325"/>
</g>
<!-- Node39&#45;&gt;Node8 -->
<g id="edge78" class="edge">
<title>Node39&#45;&gt;Node8</title>
<path fill="none" stroke="#191970" d="M1726.8872,-168.2455C1724.9084,-160.8579 1722.1256,-150.4689 1719.6988,-141.4087"/>
<polygon fill="#191970" stroke="#191970" points="1723.0511,-140.3966 1717.0829,-131.6427 1716.2895,-142.2078 1723.0511,-140.3966"/>
</g>
<!-- Node40 -->
<g id="node41" class="node">
<title>Node40</title>
<polygon fill="#ffffff" stroke="#bfbfbf" points="1758,-112.5 1758,-131.5 1835,-131.5 1835,-112.5 1758,-112.5"/>
<text text-anchor="middle" x="1796.5" y="-119.5" font-family="Helvetica,sans-Serif" font-size="10.00" fill="#000000">periph_cpu.h</text>
</g>
<!-- Node39&#45;&gt;Node40 -->
<g id="edge80" class="edge">
<title>Node39&#45;&gt;Node40</title>
<path fill="none" stroke="#191970" d="M1741.1705,-168.2455C1751.0661,-159.9746 1765.4627,-147.9416 1777.0901,-138.2232"/>
<polygon fill="#191970" stroke="#191970" points="1779.535,-140.7413 1784.9632,-131.6427 1775.0458,-135.3703 1779.535,-140.7413"/>
</g>
<!-- Node41 -->
<g id="node42" class="node">
<title>Node41</title>
<polygon fill="#ffffff" stroke="#bfbfbf" points="1853,-112.5 1853,-131.5 1934,-131.5 1934,-112.5 1853,-112.5"/>
<text text-anchor="middle" x="1893.5" y="-119.5" font-family="Helvetica,sans-Serif" font-size="10.00" fill="#000000">periph_conf.h</text>
</g>
<!-- Node39&#45;&gt;Node41 -->
<g id="edge81" class="edge">
<title>Node39&#45;&gt;Node41</title>
<path fill="none" stroke="#191970" d="M1757.6926,-168.3733C1784.8453,-159.1016 1826.0907,-145.0178 1856.0025,-134.804"/>
<polygon fill="#191970" stroke="#191970" points="1857.3428,-138.0449 1865.6753,-131.5011 1855.0808,-131.4204 1857.3428,-138.0449"/>
</g>
</g>
</svg>
