<?xml version="1.0" encoding="UTF-8" standalone="no"?>
<!DOCTYPE svg PUBLIC "-//W3C//DTD SVG 1.1//EN"
 "http://www.w3.org/Graphics/SVG/1.1/DTD/svg11.dtd">
<!-- Generated by graphviz version 2.40.1 (0)
 -->
<!-- Title: drivers/include/periph/dac.h Pages: 1 -->
<svg width="323pt" height="95pt"
 viewBox="0.00 0.00 322.50 95.00" xmlns="http://www.w3.org/2000/svg" xmlns:xlink="http://www.w3.org/1999/xlink">
<g id="graph0" class="graph" transform="scale(1 1) rotate(0) translate(4 91)">
<title>drivers/include/periph/dac.h</title>
<polygon fill="#ffffff" stroke="transparent" points="-4,4 -4,-91 318.5,-91 318.5,4 -4,4"/>
<!-- Node0 -->
<g id="node1" class="node">
<title>Node0</title>
<polygon fill="#bfbfbf" stroke="#000000" points="75.5,-56.5 75.5,-86.5 196.5,-86.5 196.5,-56.5 75.5,-56.5"/>
<text text-anchor="start" x="83.5" y="-74.5" font-family="Helvetica,sans-Serif" font-size="10.00" fill="#000000">drivers/include/periph</text>
<text text-anchor="middle" x="136" y="-63.5" font-family="Helvetica,sans-Serif" font-size="10.00" fill="#000000">/dac.h</text>
</g>
<!-- Node1 -->
<g id="node2" class="node">
<title>Node1</title>
<polygon fill="#ffffff" stroke="#bfbfbf" points="0,-.5 0,-19.5 52,-19.5 52,-.5 0,-.5"/>
<text text-anchor="middle" x="26" y="-7.5" font-family="Helvetica,sans-Serif" font-size="10.00" fill="#000000">stdint.h</text>
</g>
<!-- Node0&#45;&gt;Node1 -->
<g id="edge1" class="edge">
<title>Node0&#45;&gt;Node1</title>
<path fill="none" stroke="#191970" d="M109.091,-56.4554C91.7032,-46.734 69.1951,-34.15 51.9916,-24.5317"/>
<polygon fill="#191970" stroke="#191970" points="53.4826,-21.3554 43.0461,-19.5303 50.0665,-27.4653 53.4826,-21.3554"/>
</g>
<!-- Node2 -->
<g id="node3" class="node">
<title>Node2</title>
<polygon fill="#ffffff" stroke="#bfbfbf" points="70,-.5 70,-19.5 120,-19.5 120,-.5 70,-.5"/>
<text text-anchor="middle" x="95" y="-7.5" font-family="Helvetica,sans-Serif" font-size="10.00" fill="#000000">limits.h</text>
</g>
<!-- Node0&#45;&gt;Node2 -->
<g id="edge2" class="edge">
<title>Node0&#45;&gt;Node2</title>
<path fill="none" stroke="#191970" d="M125.8652,-56.2977C120.2332,-47.8498 113.1849,-37.2773 107.246,-28.369"/>
<polygon fill="#191970" stroke="#191970" points="110.0238,-26.226 101.5646,-19.8469 104.1995,-30.1089 110.0238,-26.226"/>
</g>
<!-- Node3 -->
<g id="node4" class="node">
<title>Node3</title>
<polygon fill="#ffffff" stroke="#bfbfbf" points="138.5,-.5 138.5,-19.5 215.5,-19.5 215.5,-.5 138.5,-.5"/>
<text text-anchor="middle" x="177" y="-7.5" font-family="Helvetica,sans-Serif" font-size="10.00" fill="#000000">periph_cpu.h</text>
</g>
<!-- Node0&#45;&gt;Node3 -->
<g id="edge3" class="edge">
<title>Node0&#45;&gt;Node3</title>
<path fill="none" stroke="#191970" d="M146.1348,-56.2977C151.7668,-47.8498 158.8151,-37.2773 164.754,-28.369"/>
<polygon fill="#191970" stroke="#191970" points="167.8005,-30.1089 170.4354,-19.8469 161.9762,-26.226 167.8005,-30.1089"/>
</g>
<!-- Node4 -->
<g id="node5" class="node">
<title>Node4</title>
<polygon fill="#ffffff" stroke="#bfbfbf" points="233.5,-.5 233.5,-19.5 314.5,-19.5 314.5,-.5 233.5,-.5"/>
<text text-anchor="middle" x="274" y="-7.5" font-family="Helvetica,sans-Serif" font-size="10.00" fill="#000000">periph_conf.h</text>
</g>
<!-- Node0&#45;&gt;Node4 -->
<g id="edge4" class="edge">
<title>Node0&#45;&gt;Node4</title>
<path fill="none" stroke="#191970" d="M169.7586,-56.4554C192.2793,-46.419 221.6467,-33.3314 243.4692,-23.6061"/>
<polygon fill="#191970" stroke="#191970" points="244.9056,-26.7979 252.6149,-19.5303 242.0561,-20.4041 244.9056,-26.7979"/>
</g>
</g>
</svg>
