<?xml version="1.0" encoding="UTF-8" standalone="no"?>
<!DOCTYPE svg PUBLIC "-//W3C//DTD SVG 1.1//EN"
 "http://www.w3.org/Graphics/SVG/1.1/DTD/svg11.dtd">
<!-- Generated by graphviz version 2.40.1 (0)
 -->
<!-- Title: sys/include/net/gnrc/netif/dedup.h Pages: 1 -->
<svg width="705pt" height="431pt"
 viewBox="0.00 0.00 705.46 431.00" xmlns="http://www.w3.org/2000/svg" xmlns:xlink="http://www.w3.org/1999/xlink">
<g id="graph0" class="graph" transform="scale(1 1) rotate(0) translate(4 427)">
<title>sys/include/net/gnrc/netif/dedup.h</title>
<polygon fill="#ffffff" stroke="transparent" points="-4,4 -4,-427 701.4632,-427 701.4632,4 -4,4"/>
<!-- Node0 -->
<g id="node1" class="node">
<title>Node0</title>
<polygon fill="#bfbfbf" stroke="#000000" points="521.4632,-392.5 521.4632,-422.5 633.4632,-422.5 633.4632,-392.5 521.4632,-392.5"/>
<text text-anchor="start" x="529.4632" y="-410.5" font-family="Helvetica,sans-Serif" font-size="10.00" fill="#000000">sys/include/net/gnrc</text>
<text text-anchor="middle" x="577.4632" y="-399.5" font-family="Helvetica,sans-Serif" font-size="10.00" fill="#000000">/netif/dedup.h</text>
</g>
<!-- Node1 -->
<g id="node2" class="node">
<title>Node1</title>
<polygon fill="#ffffff" stroke="#bfbfbf" points="344.4632,-.5 344.4632,-19.5 396.4632,-19.5 396.4632,-.5 344.4632,-.5"/>
<text text-anchor="middle" x="370.4632" y="-7.5" font-family="Helvetica,sans-Serif" font-size="10.00" fill="#000000">stdint.h</text>
</g>
<!-- Node0&#45;&gt;Node1 -->
<g id="edge1" class="edge">
<title>Node0&#45;&gt;Node1</title>
<path fill="none" stroke="#191970" d="M610.8899,-392.4255C646.3969,-373.8593 697.4632,-338.693 697.4632,-290 697.4632,-290 697.4632,-290 697.4632,-122 697.4632,-61.0819 491.7815,-26.3436 406.6674,-14.5764"/>
<polygon fill="#191970" stroke="#191970" points="407.0492,-11.0962 396.6702,-13.2236 406.1105,-18.033 407.0492,-11.0962"/>
</g>
<!-- Node2 -->
<g id="node3" class="node">
<title>Node2</title>
<g id="a_node3"><a xlink:href="netif_2conf_8h.html" target="_top" xlink:title="Configuration macros for Network interface API. ">
<polygon fill="#ffffff" stroke="#000000" points="404.4632,-336.5 404.4632,-355.5 520.4632,-355.5 520.4632,-336.5 404.4632,-336.5"/>
<text text-anchor="middle" x="462.4632" y="-343.5" font-family="Helvetica,sans-Serif" font-size="10.00" fill="#000000">net/gnrc/netif/conf.h</text>
</a>
</g>
</g>
<!-- Node0&#45;&gt;Node2 -->
<g id="edge2" class="edge">
<title>Node0&#45;&gt;Node2</title>
<path fill="none" stroke="#191970" d="M549.331,-392.4554C530.9846,-382.644 507.1855,-369.9167 489.1381,-360.2653"/>
<polygon fill="#191970" stroke="#191970" points="490.7529,-357.1598 480.2841,-355.5303 487.4518,-363.3326 490.7529,-357.1598"/>
</g>
<!-- Node3 -->
<g id="node4" class="node">
<title>Node3</title>
<g id="a_node4"><a xlink:href="modules_8h.html" target="_top" xlink:title="Common macros and compiler attributes/pragmas configuration. ">
<polygon fill="#ffffff" stroke="#000000" points="603.9632,-168.5 603.9632,-187.5 668.9632,-187.5 668.9632,-168.5 603.9632,-168.5"/>
<text text-anchor="middle" x="636.4632" y="-175.5" font-family="Helvetica,sans-Serif" font-size="10.00" fill="#000000">modules.h</text>
</a>
</g>
</g>
<!-- Node2&#45;&gt;Node3 -->
<g id="edge3" class="edge">
<title>Node2&#45;&gt;Node3</title>
<path fill="none" stroke="#191970" d="M520.7101,-337.5884C563.8759,-330.0497 617.5318,-317.4764 631.4632,-300 654.8184,-270.7017 648.3068,-223.7037 642.037,-197.413"/>
<polygon fill="#191970" stroke="#191970" points="645.3677,-196.3152 639.4525,-187.5254 638.5953,-198.0855 645.3677,-196.3152"/>
</g>
<!-- Node4 -->
<g id="node5" class="node">
<title>Node4</title>
<g id="a_node5"><a xlink:href="client_8h.html" target="_top" xlink:title="DHCPv6 client definitions. ">
<polygon fill="#ffffff" stroke="#000000" points="157.9632,-280.5 157.9632,-299.5 264.9632,-299.5 264.9632,-280.5 157.9632,-280.5"/>
<text text-anchor="middle" x="211.4632" y="-287.5" font-family="Helvetica,sans-Serif" font-size="10.00" fill="#000000">net/dhcpv6/client.h</text>
</a>
</g>
</g>
<!-- Node2&#45;&gt;Node4 -->
<g id="edge4" class="edge">
<title>Node2&#45;&gt;Node4</title>
<path fill="none" stroke="#191970" d="M419.5999,-336.4369C376.553,-326.8328 310.1559,-312.0191 263.9722,-301.7152"/>
<polygon fill="#191970" stroke="#191970" points="264.6718,-298.2853 254.1496,-299.5237 263.1475,-305.1173 264.6718,-298.2853"/>
</g>
<!-- Node14 -->
<g id="node15" class="node">
<title>Node14</title>
<polygon fill="#ffffff" stroke="#bfbfbf" points="239.9632,-224.5 239.9632,-243.5 296.9632,-243.5 296.9632,-224.5 239.9632,-224.5"/>
<text text-anchor="middle" x="268.4632" y="-231.5" font-family="Helvetica,sans-Serif" font-size="10.00" fill="#000000">thread.h</text>
</g>
<!-- Node2&#45;&gt;Node14 -->
<g id="edge37" class="edge">
<title>Node2&#45;&gt;Node14</title>
<path fill="none" stroke="#191970" d="M405.0189,-336.4305C376.7353,-329.6637 343.2625,-318.4059 317.4632,-300 300.1186,-287.6259 286.339,-267.2374 277.8653,-252.3909"/>
<polygon fill="#191970" stroke="#191970" points="280.9262,-250.6932 273.0789,-243.5748 274.7743,-254.0331 280.9262,-250.6932"/>
</g>
<!-- Node15 -->
<g id="node16" class="node">
<title>Node15</title>
<g id="a_node16"><a xlink:href="sys_2include_2net_2ieee802154_8h.html" target="_top" xlink:title="IEEE 802.15.4 header definitions. ">
<polygon fill="#ffffff" stroke="#000000" points="434.9632,-224.5 434.9632,-243.5 535.9632,-243.5 535.9632,-224.5 434.9632,-224.5"/>
<text text-anchor="middle" x="485.4632" y="-231.5" font-family="Helvetica,sans-Serif" font-size="10.00" fill="#000000">net/ieee802154.h</text>
</a>
</g>
</g>
<!-- Node2&#45;&gt;Node15 -->
<g id="edge23" class="edge">
<title>Node2&#45;&gt;Node15</title>
<path fill="none" stroke="#191970" d="M464.4242,-336.4509C468.1924,-318.1013 476.5115,-277.5908 481.4856,-253.3693"/>
<polygon fill="#191970" stroke="#191970" points="484.924,-254.0246 483.5072,-243.5249 478.0671,-252.6164 484.924,-254.0246"/>
</g>
<!-- Node19 -->
<g id="node20" class="node">
<title>Node19</title>
<g id="a_node20"><a xlink:href="net_2ethernet_2hdr_8h.html" target="_top" xlink:title="Ethernet header definitions. ">
<polygon fill="#ffffff" stroke="#000000" points="326.9632,-280.5 326.9632,-299.5 433.9632,-299.5 433.9632,-280.5 326.9632,-280.5"/>
<text text-anchor="middle" x="380.4632" y="-287.5" font-family="Helvetica,sans-Serif" font-size="10.00" fill="#000000">net/ethernet/hdr.h</text>
</a>
</g>
</g>
<!-- Node2&#45;&gt;Node19 -->
<g id="edge32" class="edge">
<title>Node2&#45;&gt;Node19</title>
<path fill="none" stroke="#191970" d="M448.1799,-336.2455C435.7161,-327.7337 417.4181,-315.2375 402.984,-305.3801"/>
<polygon fill="#191970" stroke="#191970" points="404.8147,-302.392 394.5828,-299.6427 400.867,-308.1726 404.8147,-302.392"/>
</g>
<!-- Node21 -->
<g id="node22" class="node">
<title>Node21</title>
<g id="a_node22"><a xlink:href="ipv6_2nib_2conf_8h.html" target="_top" xlink:title="Configuration macro definitions for neighbor information base. ">
<polygon fill="#ffffff" stroke="#000000" points="490.9632,-280.5 490.9632,-299.5 621.9632,-299.5 621.9632,-280.5 490.9632,-280.5"/>
<text text-anchor="middle" x="556.4632" y="-287.5" font-family="Helvetica,sans-Serif" font-size="10.00" fill="#000000">net/gnrc/ipv6/nib/conf.h</text>
</a>
</g>
</g>
<!-- Node2&#45;&gt;Node21 -->
<g id="edge35" class="edge">
<title>Node2&#45;&gt;Node21</title>
<path fill="none" stroke="#191970" d="M478.8367,-336.2455C493.394,-327.5731 514.8942,-314.7645 531.5784,-304.825"/>
<polygon fill="#191970" stroke="#191970" points="533.4776,-307.7676 540.2773,-299.6427 529.8949,-301.7539 533.4776,-307.7676"/>
</g>
<!-- Node5 -->
<g id="node6" class="node">
<title>Node5</title>
<g id="a_node6"><a xlink:href="byteorder_8h.html" target="_top" xlink:title="Functions to work with different byte orders. ">
<polygon fill="#ffffff" stroke="#000000" points="212.9632,-112.5 212.9632,-131.5 285.9632,-131.5 285.9632,-112.5 212.9632,-112.5"/>
<text text-anchor="middle" x="249.4632" y="-119.5" font-family="Helvetica,sans-Serif" font-size="10.00" fill="#000000">byteorder.h</text>
</a>
</g>
</g>
<!-- Node4&#45;&gt;Node5 -->
<g id="edge5" class="edge">
<title>Node4&#45;&gt;Node5</title>
<path fill="none" stroke="#191970" d="M213.0053,-280.4361C216.4116,-259.7706 225.1026,-209.4666 235.4632,-168 237.6581,-159.2153 240.5064,-149.6166 243.0603,-141.4708"/>
<polygon fill="#191970" stroke="#191970" points="246.4439,-142.3813 246.1684,-131.79 239.779,-140.2414 246.4439,-142.3813"/>
</g>
<!-- Node9 -->
<g id="node10" class="node">
<title>Node9</title>
<polygon fill="#ffffff" stroke="#bfbfbf" points="129.9632,-224.5 129.9632,-243.5 182.9632,-243.5 182.9632,-224.5 129.9632,-224.5"/>
<text text-anchor="middle" x="156.4632" y="-231.5" font-family="Helvetica,sans-Serif" font-size="10.00" fill="#000000">event.h</text>
</g>
<!-- Node4&#45;&gt;Node9 -->
<g id="edge12" class="edge">
<title>Node4&#45;&gt;Node9</title>
<path fill="none" stroke="#191970" d="M201.8829,-280.2455C193.9174,-272.1352 182.3991,-260.4075 172.9552,-250.7919"/>
<polygon fill="#191970" stroke="#191970" points="175.4379,-248.3247 165.9337,-243.6427 170.4437,-253.2297 175.4379,-248.3247"/>
</g>
<!-- Node10 -->
<g id="node11" class="node">
<title>Node10</title>
<g id="a_node11"><a xlink:href="ipv6_2addr_8h.html" target="_top" xlink:title="Definitions for IPv6 addresses. ">
<polygon fill="#ffffff" stroke="#000000" points="22.9632,-224.5 22.9632,-243.5 111.9632,-243.5 111.9632,-224.5 22.9632,-224.5"/>
<text text-anchor="middle" x="67.4632" y="-231.5" font-family="Helvetica,sans-Serif" font-size="10.00" fill="#000000">net/ipv6/addr.h</text>
</a>
</g>
</g>
<!-- Node4&#45;&gt;Node10 -->
<g id="edge13" class="edge">
<title>Node4&#45;&gt;Node10</title>
<path fill="none" stroke="#191970" d="M186.7087,-280.3733C163.1783,-271.2226 127.5945,-257.3844 101.4206,-247.2057"/>
<polygon fill="#191970" stroke="#191970" points="102.4833,-243.8636 91.8946,-243.5011 99.9461,-250.3877 102.4833,-243.8636"/>
</g>
<!-- Node4&#45;&gt;Node14 -->
<g id="edge22" class="edge">
<title>Node4&#45;&gt;Node14</title>
<path fill="none" stroke="#191970" d="M221.3918,-280.2455C229.647,-272.1352 241.5841,-260.4075 251.3714,-250.7919"/>
<polygon fill="#191970" stroke="#191970" points="253.9678,-253.1476 258.6483,-243.6427 249.062,-248.1542 253.9678,-253.1476"/>
</g>
<!-- Node5&#45;&gt;Node1 -->
<g id="edge7" class="edge">
<title>Node5&#45;&gt;Node1</title>
<path fill="none" stroke="#191970" d="M259.7796,-112.4509C280.4074,-93.3574 326.9575,-50.2697 352.6304,-26.5063"/>
<polygon fill="#191970" stroke="#191970" points="355.2117,-28.8864 360.1729,-19.5249 350.4566,-23.7492 355.2117,-28.8864"/>
</g>
<!-- Node6 -->
<g id="node7" class="node">
<title>Node6</title>
<polygon fill="#ffffff" stroke="#bfbfbf" points="138.9632,-56.5 138.9632,-75.5 191.9632,-75.5 191.9632,-56.5 138.9632,-56.5"/>
<text text-anchor="middle" x="165.4632" y="-63.5" font-family="Helvetica,sans-Serif" font-size="10.00" fill="#000000">string.h</text>
</g>
<!-- Node5&#45;&gt;Node6 -->
<g id="edge6" class="edge">
<title>Node5&#45;&gt;Node6</title>
<path fill="none" stroke="#191970" d="M234.8315,-112.2455C222.0638,-103.7337 203.3194,-91.2375 188.5333,-81.3801"/>
<polygon fill="#191970" stroke="#191970" points="190.1892,-78.2775 179.9272,-75.6427 186.3063,-84.1019 190.1892,-78.2775"/>
</g>
<!-- Node7 -->
<g id="node8" class="node">
<title>Node7</title>
<g id="a_node8"><a xlink:href="endian_8h.html" target="_top" xlink:title="libc header for endian conversion ">
<polygon fill="#ffffff" stroke="#000000" points="341.9632,-56.5 341.9632,-75.5 398.9632,-75.5 398.9632,-56.5 341.9632,-56.5"/>
<text text-anchor="middle" x="370.4632" y="-63.5" font-family="Helvetica,sans-Serif" font-size="10.00" fill="#000000">endian.h</text>
</a>
</g>
</g>
<!-- Node5&#45;&gt;Node7 -->
<g id="edge8" class="edge">
<title>Node5&#45;&gt;Node7</title>
<path fill="none" stroke="#191970" d="M270.2638,-112.3733C289.6875,-103.3838 318.8856,-89.8706 340.7596,-79.7471"/>
<polygon fill="#191970" stroke="#191970" points="342.3288,-82.8776 349.934,-75.5011 339.3887,-76.5249 342.3288,-82.8776"/>
</g>
<!-- Node8 -->
<g id="node9" class="node">
<title>Node8</title>
<g id="a_node9"><a xlink:href="unaligned_8h.html" target="_top" xlink:title="Unaligned but safe memory access functions. ">
<polygon fill="#ffffff" stroke="#000000" points="213.9632,-56.5 213.9632,-75.5 284.9632,-75.5 284.9632,-56.5 213.9632,-56.5"/>
<text text-anchor="middle" x="249.4632" y="-63.5" font-family="Helvetica,sans-Serif" font-size="10.00" fill="#000000">unaligned.h</text>
</a>
</g>
</g>
<!-- Node5&#45;&gt;Node8 -->
<g id="edge10" class="edge">
<title>Node5&#45;&gt;Node8</title>
<path fill="none" stroke="#191970" d="M249.4632,-112.2455C249.4632,-104.9382 249.4632,-94.6944 249.4632,-85.7046"/>
<polygon fill="#191970" stroke="#191970" points="252.9633,-85.6426 249.4632,-75.6427 245.9633,-85.6427 252.9633,-85.6426"/>
</g>
<!-- Node7&#45;&gt;Node1 -->
<g id="edge9" class="edge">
<title>Node7&#45;&gt;Node1</title>
<path fill="none" stroke="#191970" d="M370.4632,-56.2455C370.4632,-48.9382 370.4632,-38.6944 370.4632,-29.7046"/>
<polygon fill="#191970" stroke="#191970" points="373.9633,-29.6426 370.4632,-19.6427 366.9633,-29.6427 373.9633,-29.6426"/>
</g>
<!-- Node8&#45;&gt;Node1 -->
<g id="edge11" class="edge">
<title>Node8&#45;&gt;Node1</title>
<path fill="none" stroke="#191970" d="M270.2638,-56.3733C289.6875,-47.3838 318.8856,-33.8706 340.7596,-23.7471"/>
<polygon fill="#191970" stroke="#191970" points="342.3288,-26.8776 349.934,-19.5011 339.3887,-20.5249 342.3288,-26.8776"/>
</g>
<!-- Node10&#45;&gt;Node5 -->
<g id="edge16" class="edge">
<title>Node10&#45;&gt;Node5</title>
<path fill="none" stroke="#191970" d="M86.9334,-224.3678C104.5917,-215.4492 131.1886,-201.5565 153.4632,-188 179.863,-171.9329 208.9491,-151.5326 228.1095,-137.696"/>
<polygon fill="#191970" stroke="#191970" points="230.3843,-140.3696 236.4159,-131.6592 226.2689,-134.707 230.3843,-140.3696"/>
</g>
<!-- Node10&#45;&gt;Node6 -->
<g id="edge15" class="edge">
<title>Node10&#45;&gt;Node6</title>
<path fill="none" stroke="#191970" d="M56.179,-224.4468C32.1321,-202.9396 -19.7466,-149.661 8.4632,-112 22.9049,-92.7199 87.1371,-78.794 128.8373,-71.5917"/>
<polygon fill="#191970" stroke="#191970" points="129.6243,-75.0087 138.9095,-69.9063 128.469,-68.1047 129.6243,-75.0087"/>
</g>
<!-- Node11 -->
<g id="node12" class="node">
<title>Node11</title>
<polygon fill="#ffffff" stroke="#bfbfbf" points="17.4632,-112.5 17.4632,-131.5 77.4632,-131.5 77.4632,-112.5 17.4632,-112.5"/>
<text text-anchor="middle" x="47.4632" y="-119.5" font-family="Helvetica,sans-Serif" font-size="10.00" fill="#000000">stdbool.h</text>
</g>
<!-- Node10&#45;&gt;Node11 -->
<g id="edge14" class="edge">
<title>Node10&#45;&gt;Node11</title>
<path fill="none" stroke="#191970" d="M61.4866,-224.2032C56.352,-215.1737 49.3361,-201.2108 46.4632,-188 43.1483,-172.7568 43.6415,-155.0632 44.8302,-141.8351"/>
<polygon fill="#191970" stroke="#191970" points="48.349,-141.8593 45.9756,-131.5337 41.3919,-141.0856 48.349,-141.8593"/>
</g>
<!-- Node12 -->
<g id="node13" class="node">
<title>Node12</title>
<g id="a_node13"><a xlink:href="ipv4_2addr_8h.html" target="_top" xlink:title="IPv4 address type and helper functions definitions. ">
<polygon fill="#ffffff" stroke="#000000" points="55.9632,-168.5 55.9632,-187.5 144.9632,-187.5 144.9632,-168.5 55.9632,-168.5"/>
<text text-anchor="middle" x="100.4632" y="-175.5" font-family="Helvetica,sans-Serif" font-size="10.00" fill="#000000">net/ipv4/addr.h</text>
</a>
</g>
</g>
<!-- Node10&#45;&gt;Node12 -->
<g id="edge17" class="edge">
<title>Node10&#45;&gt;Node12</title>
<path fill="none" stroke="#191970" d="M73.2113,-224.2455C77.7067,-216.617 84.088,-205.7881 89.5456,-196.5267"/>
<polygon fill="#191970" stroke="#191970" points="92.7193,-198.035 94.7809,-187.6427 86.6885,-194.4811 92.7193,-198.035"/>
</g>
<!-- Node12&#45;&gt;Node1 -->
<g id="edge19" class="edge">
<title>Node12&#45;&gt;Node1</title>
<path fill="none" stroke="#191970" d="M99.5702,-168.4051C98.002,-145.3602 97.5212,-86.543 129.4632,-56 158.2879,-28.4377 273.891,-16.5852 333.8979,-12.2071"/>
<polygon fill="#191970" stroke="#191970" points="334.3422,-15.6847 344.0745,-11.4976 333.8553,-8.7017 334.3422,-15.6847"/>
</g>
<!-- Node12&#45;&gt;Node5 -->
<g id="edge21" class="edge">
<title>Node12&#45;&gt;Node5</title>
<path fill="none" stroke="#191970" d="M126.0772,-168.3733C150.5319,-159.1822 187.5686,-145.2624 214.6841,-135.0713"/>
<polygon fill="#191970" stroke="#191970" points="216.0541,-138.2956 224.1834,-131.5011 213.5913,-131.7431 216.0541,-138.2956"/>
</g>
<!-- Node12&#45;&gt;Node11 -->
<g id="edge18" class="edge">
<title>Node12&#45;&gt;Node11</title>
<path fill="none" stroke="#191970" d="M91.2313,-168.2455C83.6314,-160.2155 72.6755,-148.6394 63.6264,-139.0781"/>
<polygon fill="#191970" stroke="#191970" points="66.0052,-136.4998 56.5893,-131.6427 60.9211,-141.3115 66.0052,-136.4998"/>
</g>
<!-- Node13 -->
<g id="node14" class="node">
<title>Node13</title>
<polygon fill="#ffffff" stroke="#bfbfbf" points="133.4632,-112.5 133.4632,-131.5 189.4632,-131.5 189.4632,-112.5 133.4632,-112.5"/>
<text text-anchor="middle" x="161.4632" y="-119.5" font-family="Helvetica,sans-Serif" font-size="10.00" fill="#000000">stddef.h</text>
</g>
<!-- Node12&#45;&gt;Node13 -->
<g id="edge20" class="edge">
<title>Node12&#45;&gt;Node13</title>
<path fill="none" stroke="#191970" d="M111.0886,-168.2455C120.0105,-160.0549 132.9512,-148.1749 143.4824,-138.5069"/>
<polygon fill="#191970" stroke="#191970" points="145.96,-140.9837 150.9596,-131.6427 141.226,-135.8271 145.96,-140.9837"/>
</g>
<!-- Node15&#45;&gt;Node1 -->
<g id="edge24" class="edge">
<title>Node15&#45;&gt;Node1</title>
<path fill="none" stroke="#191970" d="M509.9519,-224.4573C534.3391,-213.3232 566.6531,-193.1857 555.4632,-168 524.1479,-97.5172 443.3821,-47.1963 399.6432,-24.135"/>
<polygon fill="#191970" stroke="#191970" points="401.1401,-20.9691 390.6474,-19.5018 397.9349,-27.1922 401.1401,-20.9691"/>
</g>
<!-- Node15&#45;&gt;Node3 -->
<g id="edge27" class="edge">
<title>Node15&#45;&gt;Node3</title>
<path fill="none" stroke="#191970" d="M511.421,-224.3733C536.2039,-215.1822 573.7378,-201.2624 601.2172,-191.0713"/>
<polygon fill="#191970" stroke="#191970" points="602.6851,-194.26 610.8441,-187.5011 600.2511,-187.6968 602.6851,-194.26"/>
</g>
<!-- Node15&#45;&gt;Node5 -->
<g id="edge26" class="edge">
<title>Node15&#45;&gt;Node5</title>
<path fill="none" stroke="#191970" d="M460.4874,-224.4189C437.7998,-215.5346 403.537,-201.6637 374.4632,-188 373.2271,-187.4191 313.22,-155.7073 276.8079,-136.458"/>
<polygon fill="#191970" stroke="#191970" points="278.1469,-133.2068 267.6704,-131.6272 274.8752,-139.3952 278.1469,-133.2068"/>
</g>
<!-- Node16 -->
<g id="node17" class="node">
<title>Node16</title>
<polygon fill="#ffffff" stroke="#bfbfbf" points="277.4632,-168.5 277.4632,-187.5 327.4632,-187.5 327.4632,-168.5 277.4632,-168.5"/>
<text text-anchor="middle" x="302.4632" y="-175.5" font-family="Helvetica,sans-Serif" font-size="10.00" fill="#000000">stdlib.h</text>
</g>
<!-- Node15&#45;&gt;Node16 -->
<g id="edge25" class="edge">
<title>Node15&#45;&gt;Node16</title>
<path fill="none" stroke="#191970" d="M454.0044,-224.3733C421.5903,-214.4542 371.1779,-199.0275 337.5075,-188.7239"/>
<polygon fill="#191970" stroke="#191970" points="338.2205,-185.282 327.634,-185.7026 336.1722,-191.9756 338.2205,-185.282"/>
</g>
<!-- Node17 -->
<g id="node18" class="node">
<title>Node17</title>
<g id="a_node18"><a xlink:href="eui64_8h.html" target="_top" xlink:title="EUI&#45;64 data type definition. ">
<polygon fill="#ffffff" stroke="#000000" points="475.9632,-168.5 475.9632,-187.5 546.9632,-187.5 546.9632,-168.5 475.9632,-168.5"/>
<text text-anchor="middle" x="511.4632" y="-175.5" font-family="Helvetica,sans-Serif" font-size="10.00" fill="#000000">net/eui64.h</text>
</a>
</g>
</g>
<!-- Node15&#45;&gt;Node17 -->
<g id="edge28" class="edge">
<title>Node15&#45;&gt;Node17</title>
<path fill="none" stroke="#191970" d="M489.992,-224.2455C493.4966,-216.6973 498.4559,-206.0158 502.7255,-196.8197"/>
<polygon fill="#191970" stroke="#191970" points="505.9496,-198.1867 506.9862,-187.6427 499.6005,-195.2389 505.9496,-198.1867"/>
</g>
<!-- Node18 -->
<g id="node19" class="node">
<title>Node18</title>
<g id="a_node19"><a xlink:href="time__units_8h.html" target="_top" xlink:title="Utility header providing time unit defines. ">
<polygon fill="#ffffff" stroke="#000000" points="383.4632,-168.5 383.4632,-187.5 457.4632,-187.5 457.4632,-168.5 383.4632,-168.5"/>
<text text-anchor="middle" x="420.4632" y="-175.5" font-family="Helvetica,sans-Serif" font-size="10.00" fill="#000000">time_units.h</text>
</a>
</g>
</g>
<!-- Node15&#45;&gt;Node18 -->
<g id="edge31" class="edge">
<title>Node15&#45;&gt;Node18</title>
<path fill="none" stroke="#191970" d="M474.141,-224.2455C464.5409,-215.9746 450.574,-203.9416 439.2937,-194.2232"/>
<polygon fill="#191970" stroke="#191970" points="441.5162,-191.5182 431.6556,-187.6427 436.9472,-196.8214 441.5162,-191.5182"/>
</g>
<!-- Node17&#45;&gt;Node1 -->
<g id="edge29" class="edge">
<title>Node17&#45;&gt;Node1</title>
<path fill="none" stroke="#191970" d="M503.4784,-168.4862C480.7072,-141.3545 415.1801,-63.2798 385.4508,-27.8576"/>
<polygon fill="#191970" stroke="#191970" points="387.8213,-25.2376 378.7116,-19.8279 382.4594,-29.7377 387.8213,-25.2376"/>
</g>
<!-- Node17&#45;&gt;Node5 -->
<g id="edge30" class="edge">
<title>Node17&#45;&gt;Node5</title>
<path fill="none" stroke="#191970" d="M475.6088,-169.9992C472.5163,-169.3192 469.4351,-168.6452 466.4632,-168 407.8069,-155.2659 340.1384,-140.9868 296.1735,-131.764"/>
<polygon fill="#191970" stroke="#191970" points="296.8519,-128.3302 286.3465,-129.7039 295.4156,-135.1813 296.8519,-128.3302"/>
</g>
<!-- Node19&#45;&gt;Node5 -->
<g id="edge34" class="edge">
<title>Node19&#45;&gt;Node5</title>
<path fill="none" stroke="#191970" d="M369.3227,-280.1498C341.7009,-255.688 272.0213,-193.7235 268.4632,-188 259.6213,-173.7771 254.7624,-155.2941 252.1774,-141.5068"/>
<polygon fill="#191970" stroke="#191970" points="255.6296,-140.9302 250.5591,-131.6275 248.7217,-142.0618 255.6296,-140.9302"/>
</g>
<!-- Node20 -->
<g id="node21" class="node">
<title>Node20</title>
<g id="a_node21"><a xlink:href="inttypes_8h.html" target="_top" xlink:title="Adds include for missing inttype definitions. ">
<polygon fill="#ffffff" stroke="#000000" points="353.9632,-224.5 353.9632,-243.5 416.9632,-243.5 416.9632,-224.5 353.9632,-224.5"/>
<text text-anchor="middle" x="385.4632" y="-231.5" font-family="Helvetica,sans-Serif" font-size="10.00" fill="#000000">inttypes.h</text>
</a>
</g>
</g>
<!-- Node19&#45;&gt;Node20 -->
<g id="edge33" class="edge">
<title>Node19&#45;&gt;Node20</title>
<path fill="none" stroke="#191970" d="M381.3341,-280.2455C381.9866,-272.9382 382.9012,-262.6944 383.7038,-253.7046"/>
<polygon fill="#191970" stroke="#191970" points="387.199,-253.9143 384.6022,-243.6427 380.2267,-253.2918 387.199,-253.9143"/>
</g>
<!-- Node21&#45;&gt;Node3 -->
<g id="edge36" class="edge">
<title>Node21&#45;&gt;Node3</title>
<path fill="none" stroke="#191970" d="M563.2839,-280.4509C576.686,-261.688 606.6384,-219.7548 623.7789,-195.758"/>
<polygon fill="#191970" stroke="#191970" points="626.6953,-197.6966 629.6597,-187.5249 620.9992,-193.6279 626.6953,-197.6966"/>
</g>
</g>
</svg>
