<?xml version="1.0" encoding="UTF-8" standalone="no"?>
<!DOCTYPE svg PUBLIC "-//W3C//DTD SVG 1.1//EN"
 "http://www.w3.org/Graphics/SVG/1.1/DTD/svg11.dtd">
<!-- Generated by graphviz version 2.40.1 (0)
 -->
<!-- Title: drivers/dfplayer/include/dfplayer_internal.h Pages: 1 -->
<svg width="1423pt" height="543pt"
 viewBox="0.00 0.00 1423.00 543.00" xmlns="http://www.w3.org/2000/svg" xmlns:xlink="http://www.w3.org/1999/xlink">
<g id="graph0" class="graph" transform="scale(1 1) rotate(0) translate(4 539)">
<title>drivers/dfplayer/include/dfplayer_internal.h</title>
<polygon fill="#ffffff" stroke="transparent" points="-4,4 -4,-539 1419,-539 1419,4 -4,4"/>
<!-- Node0 -->
<g id="node1" class="node">
<title>Node0</title>
<polygon fill="#bfbfbf" stroke="#000000" points="1178.5,-504.5 1178.5,-534.5 1307.5,-534.5 1307.5,-504.5 1178.5,-504.5"/>
<text text-anchor="start" x="1186.5" y="-522.5" font-family="Helvetica,sans-Serif" font-size="10.00" fill="#000000">drivers/dfplayer/include</text>
<text text-anchor="middle" x="1243" y="-511.5" font-family="Helvetica,sans-Serif" font-size="10.00" fill="#000000">/dfplayer_internal.h</text>
</g>
<!-- Node1 -->
<g id="node2" class="node">
<title>Node1</title>
<polygon fill="#ffffff" stroke="#bfbfbf" points="350,-.5 350,-19.5 402,-19.5 402,-.5 350,-.5"/>
<text text-anchor="middle" x="376" y="-7.5" font-family="Helvetica,sans-Serif" font-size="10.00" fill="#000000">stdint.h</text>
</g>
<!-- Node0&#45;&gt;Node1 -->
<g id="edge1" class="edge">
<title>Node0&#45;&gt;Node1</title>
<path fill="none" stroke="#191970" d="M1304.6101,-504.4553C1353.9637,-488.29 1415,-457.1497 1415,-402 1415,-402 1415,-402 1415,-122 1415,-53.2101 1341.7218,-72.7406 1275,-56 1190.4462,-34.7853 570.3628,-15.6074 412.4894,-11.0315"/>
<polygon fill="#191970" stroke="#191970" points="412.4479,-7.5289 402.3512,-10.7393 412.2462,-14.526 412.4479,-7.5289"/>
</g>
<!-- Node2 -->
<g id="node3" class="node">
<title>Node2</title>
<g id="a_node3"><a xlink:href="dfplayer__types_8h.html" target="_top" xlink:title="Types used in the DFPlayer Mini Device Driver. ">
<polygon fill="#ffffff" stroke="#000000" points="1049.5,-448.5 1049.5,-467.5 1144.5,-467.5 1144.5,-448.5 1049.5,-448.5"/>
<text text-anchor="middle" x="1097" y="-455.5" font-family="Helvetica,sans-Serif" font-size="10.00" fill="#000000">dfplayer_types.h</text>
</a>
</g>
</g>
<!-- Node0&#45;&gt;Node2 -->
<g id="edge2" class="edge">
<title>Node0&#45;&gt;Node2</title>
<path fill="none" stroke="#191970" d="M1207.2844,-504.4554C1183.3513,-494.374 1152.1095,-481.2139 1128.9906,-471.4755"/>
<polygon fill="#191970" stroke="#191970" points="1130.1993,-468.1868 1119.6248,-467.5303 1127.4819,-474.6379 1130.1993,-468.1868"/>
</g>
<!-- Node2&#45;&gt;Node1 -->
<g id="edge4" class="edge">
<title>Node2&#45;&gt;Node1</title>
<path fill="none" stroke="#191970" d="M1144.8156,-449.1031C1224.7869,-432.8452 1377,-395.4108 1377,-346 1377,-346 1377,-346 1377,-122 1377,-22.8741 591.7249,-11.4798 412.2342,-10.1701"/>
<polygon fill="#191970" stroke="#191970" points="412.0274,-6.6687 402.0043,-10.1018 411.9806,-13.6686 412.0274,-6.6687"/>
</g>
<!-- Node3 -->
<g id="node4" class="node">
<title>Node3</title>
<polygon fill="#ffffff" stroke="#bfbfbf" points="556,-112.5 556,-131.5 616,-131.5 616,-112.5 556,-112.5"/>
<text text-anchor="middle" x="586" y="-119.5" font-family="Helvetica,sans-Serif" font-size="10.00" fill="#000000">stdbool.h</text>
</g>
<!-- Node2&#45;&gt;Node3 -->
<g id="edge3" class="edge">
<title>Node2&#45;&gt;Node3</title>
<path fill="none" stroke="#191970" d="M1070.5568,-448.421C993.8336,-419.5545 767.7016,-326.7633 627,-188 613.2434,-174.4329 602.0456,-155.3863 594.8498,-141.239"/>
<polygon fill="#191970" stroke="#191970" points="597.856,-139.4173 590.338,-131.9519 591.5597,-142.4761 597.856,-139.4173"/>
</g>
<!-- Node4 -->
<g id="node5" class="node">
<title>Node4</title>
<g id="a_node5"><a xlink:href="mutex_8h.html" target="_top" xlink:title="Mutex for thread synchronization. ">
<polygon fill="#ffffff" stroke="#000000" points="457,-392.5 457,-411.5 513,-411.5 513,-392.5 457,-392.5"/>
<text text-anchor="middle" x="485" y="-399.5" font-family="Helvetica,sans-Serif" font-size="10.00" fill="#000000">mutex.h</text>
</a>
</g>
</g>
<!-- Node2&#45;&gt;Node4 -->
<g id="edge5" class="edge">
<title>Node2&#45;&gt;Node4</title>
<path fill="none" stroke="#191970" d="M1049.4866,-453.6524C932.0719,-442.9085 630.0274,-415.2705 523.1637,-405.4921"/>
<polygon fill="#191970" stroke="#191970" points="523.4288,-402.0018 513.1515,-404.576 522.7909,-408.9727 523.4288,-402.0018"/>
</g>
<!-- Node26 -->
<g id="node27" class="node">
<title>Node26</title>
<g id="a_node27"><a xlink:href="drivers_2include_2periph_2gpio_8h.html" target="_top" xlink:title="Low&#45;level GPIO peripheral driver interface definitions. ">
<polygon fill="#ffffff" stroke="#000000" points="1023,-224.5 1023,-243.5 1103,-243.5 1103,-224.5 1023,-224.5"/>
<text text-anchor="middle" x="1063" y="-231.5" font-family="Helvetica,sans-Serif" font-size="10.00" fill="#000000">periph/gpio.h</text>
</a>
</g>
</g>
<!-- Node2&#45;&gt;Node26 -->
<g id="edge47" class="edge">
<title>Node2&#45;&gt;Node26</title>
<path fill="none" stroke="#191970" d="M1095.5391,-448.375C1090.3842,-414.4133 1072.9795,-299.7472 1065.9658,-253.5392"/>
<polygon fill="#191970" stroke="#191970" points="1069.4166,-252.9506 1064.4555,-243.5891 1062.4959,-254.0012 1069.4166,-252.9506"/>
</g>
<!-- Node29 -->
<g id="node30" class="node">
<title>Node29</title>
<g id="a_node30"><a xlink:href="drivers_2include_2periph_2uart_8h.html" target="_top" xlink:title="Low&#45;level UART peripheral driver interface definition. ">
<polygon fill="#ffffff" stroke="#000000" points="1121,-224.5 1121,-243.5 1201,-243.5 1201,-224.5 1121,-224.5"/>
<text text-anchor="middle" x="1161" y="-231.5" font-family="Helvetica,sans-Serif" font-size="10.00" fill="#000000">periph/uart.h</text>
</a>
</g>
</g>
<!-- Node2&#45;&gt;Node29 -->
<g id="edge52" class="edge">
<title>Node2&#45;&gt;Node29</title>
<path fill="none" stroke="#191970" d="M1099.75,-448.375C1109.4739,-414.3415 1142.3537,-299.262 1155.5008,-253.247"/>
<polygon fill="#191970" stroke="#191970" points="1158.8783,-254.1659 1158.2602,-243.5891 1152.1476,-252.2428 1158.8783,-254.1659"/>
</g>
<!-- Node4&#45;&gt;Node1 -->
<g id="edge7" class="edge">
<title>Node4&#45;&gt;Node1</title>
<path fill="none" stroke="#191970" d="M456.828,-401.5718C353.3171,-399.2502 0,-384.411 0,-290 0,-290 0,-290 0,-122 0,-51.5785 245.3173,-21.8479 339.648,-13.0189"/>
<polygon fill="#191970" stroke="#191970" points="340.2171,-16.4817 349.8589,-12.0901 339.583,-9.5104 340.2171,-16.4817"/>
</g>
<!-- Node4&#45;&gt;Node3 -->
<g id="edge8" class="edge">
<title>Node4&#45;&gt;Node3</title>
<path fill="none" stroke="#191970" d="M502.97,-392.3766C529.5916,-376.9645 578.4635,-343.9532 598,-300 601.1681,-292.8725 591.9181,-186.7255 587.8331,-141.8227"/>
<polygon fill="#191970" stroke="#191970" points="591.2938,-141.2332 586.8954,-131.5945 584.3231,-141.8723 591.2938,-141.2332"/>
</g>
<!-- Node5 -->
<g id="node6" class="node">
<title>Node5</title>
<polygon fill="#ffffff" stroke="#bfbfbf" points="500,-56.5 500,-75.5 556,-75.5 556,-56.5 500,-56.5"/>
<text text-anchor="middle" x="528" y="-63.5" font-family="Helvetica,sans-Serif" font-size="10.00" fill="#000000">stddef.h</text>
</g>
<!-- Node4&#45;&gt;Node5 -->
<g id="edge6" class="edge">
<title>Node4&#45;&gt;Node5</title>
<path fill="none" stroke="#191970" d="M513.1885,-399.5285C599.1261,-391.2254 852,-360.7798 852,-290 852,-290 852,-290 852,-178 852,-148.0462 651.6343,-95.941 566.0349,-75.0476"/>
<polygon fill="#191970" stroke="#191970" points="566.7294,-71.6147 556.1861,-72.658 565.0788,-78.4173 566.7294,-71.6147"/>
</g>
<!-- Node6 -->
<g id="node7" class="node">
<title>Node6</title>
<g id="a_node7"><a xlink:href="architecture_8h.html" target="_top" xlink:title="Platform&#45;independent access to architecture details. ">
<polygon fill="#ffffff" stroke="#000000" points="728.5,-224.5 728.5,-243.5 811.5,-243.5 811.5,-224.5 728.5,-224.5"/>
<text text-anchor="middle" x="770" y="-231.5" font-family="Helvetica,sans-Serif" font-size="10.00" fill="#000000">architecture.h</text>
</a>
</g>
</g>
<!-- Node4&#45;&gt;Node6 -->
<g id="edge9" class="edge">
<title>Node4&#45;&gt;Node6</title>
<path fill="none" stroke="#191970" d="M513.0222,-396.7912C543.4844,-390.3256 592.9061,-377.4479 631,-356 681.998,-327.2868 730.8406,-277.6134 754.7436,-251.3835"/>
<polygon fill="#191970" stroke="#191970" points="757.523,-253.5268 761.5991,-243.7474 752.3141,-248.8504 757.523,-253.5268"/>
</g>
<!-- Node10 -->
<g id="node11" class="node">
<title>Node10</title>
<g id="a_node11"><a xlink:href="kernel__defines_8h.html" target="_top" xlink:title="Common macros and compiler attributes/pragmas configuration. ">
<polygon fill="#ffffff" stroke="#000000" points="115.5,-168.5 115.5,-187.5 210.5,-187.5 210.5,-168.5 115.5,-168.5"/>
<text text-anchor="middle" x="163" y="-175.5" font-family="Helvetica,sans-Serif" font-size="10.00" fill="#000000">kernel_defines.h</text>
</a>
</g>
</g>
<!-- Node4&#45;&gt;Node10 -->
<g id="edge14" class="edge">
<title>Node4&#45;&gt;Node10</title>
<path fill="none" stroke="#191970" d="M456.8712,-400.0885C381.6683,-394.694 180.3432,-378.2834 161,-356 122.0776,-311.1612 142.7033,-233.369 155.4191,-197.3403"/>
<polygon fill="#191970" stroke="#191970" points="158.8422,-198.1756 159.0368,-187.5825 152.2788,-195.7422 158.8422,-198.1756"/>
</g>
<!-- Node16 -->
<g id="node17" class="node">
<title>Node16</title>
<g id="a_node17"><a xlink:href="list_8h.html" target="_top" xlink:title="Intrusive linked list. ">
<polygon fill="#ffffff" stroke="#000000" points="462,-112.5 462,-131.5 500,-131.5 500,-112.5 462,-112.5"/>
<text text-anchor="middle" x="481" y="-119.5" font-family="Helvetica,sans-Serif" font-size="10.00" fill="#000000">list.h</text>
</a>
</g>
</g>
<!-- Node4&#45;&gt;Node16 -->
<g id="edge25" class="edge">
<title>Node4&#45;&gt;Node16</title>
<path fill="none" stroke="#191970" d="M456.6632,-396.4802C389.5943,-382.7683 224.4632,-344.9951 194,-300 124.4226,-197.2318 366.1165,-142.7169 451.9054,-126.9189"/>
<polygon fill="#191970" stroke="#191970" points="452.5685,-130.3559 461.7924,-125.1435 451.3312,-123.4661 452.5685,-130.3559"/>
</g>
<!-- Node17 -->
<g id="node18" class="node">
<title>Node17</title>
<g id="a_node18"><a xlink:href="core_2include_2thread_8h.html" target="_top" xlink:title="Threading API. ">
<polygon fill="#ffffff" stroke="#000000" points="342.5,-336.5 342.5,-355.5 399.5,-355.5 399.5,-336.5 342.5,-336.5"/>
<text text-anchor="middle" x="371" y="-343.5" font-family="Helvetica,sans-Serif" font-size="10.00" fill="#000000">thread.h</text>
</a>
</g>
</g>
<!-- Node4&#45;&gt;Node17 -->
<g id="edge26" class="edge">
<title>Node4&#45;&gt;Node17</title>
<path fill="none" stroke="#191970" d="M465.4027,-392.3733C447.2669,-383.4644 420.0865,-370.1127 399.5413,-360.0203"/>
<polygon fill="#191970" stroke="#191970" points="400.8603,-356.7688 390.3416,-355.5011 397.7739,-363.0517 400.8603,-356.7688"/>
</g>
<!-- Node6&#45;&gt;Node1 -->
<g id="edge10" class="edge">
<title>Node6&#45;&gt;Node1</title>
<path fill="none" stroke="#191970" d="M791.1895,-224.4601C814.8603,-212.42 848.0134,-190.546 833,-168 784.4661,-95.1156 511.5494,-36.0952 412.1842,-16.744"/>
<polygon fill="#191970" stroke="#191970" points="412.7862,-13.2957 402.3045,-14.8397 411.4613,-20.1692 412.7862,-13.2957"/>
</g>
<!-- Node7 -->
<g id="node8" class="node">
<title>Node7</title>
<g id="a_node8"><a xlink:href="inttypes_8h.html" target="_top" xlink:title="Adds include for missing inttype definitions. ">
<polygon fill="#ffffff" stroke="#000000" points="635.5,-168.5 635.5,-187.5 698.5,-187.5 698.5,-168.5 635.5,-168.5"/>
<text text-anchor="middle" x="667" y="-175.5" font-family="Helvetica,sans-Serif" font-size="10.00" fill="#000000">inttypes.h</text>
</a>
</g>
</g>
<!-- Node6&#45;&gt;Node7 -->
<g id="edge11" class="edge">
<title>Node6&#45;&gt;Node7</title>
<path fill="none" stroke="#191970" d="M752.0588,-224.2455C735.96,-215.4928 712.1121,-202.527 693.7609,-192.5496"/>
<polygon fill="#191970" stroke="#191970" points="695.1929,-189.3444 684.7356,-187.6427 691.8493,-195.4942 695.1929,-189.3444"/>
</g>
<!-- Node8 -->
<g id="node9" class="node">
<title>Node8</title>
<polygon fill="#ffffff" stroke="#bfbfbf" points="918,-168.5 918,-187.5 968,-187.5 968,-168.5 918,-168.5"/>
<text text-anchor="middle" x="943" y="-175.5" font-family="Helvetica,sans-Serif" font-size="10.00" fill="#000000">limits.h</text>
</g>
<!-- Node6&#45;&gt;Node8 -->
<g id="edge12" class="edge">
<title>Node6&#45;&gt;Node8</title>
<path fill="none" stroke="#191970" d="M799.7398,-224.3733C829.8146,-214.638 876.2794,-199.5974 908.0847,-189.3021"/>
<polygon fill="#191970" stroke="#191970" points="909.4205,-192.5485 917.8566,-186.1389 907.2647,-185.8887 909.4205,-192.5485"/>
</g>
<!-- Node9 -->
<g id="node10" class="node">
<title>Node9</title>
<polygon fill="#ffffff" stroke="#bfbfbf" points="716.5,-168.5 716.5,-187.5 823.5,-187.5 823.5,-168.5 716.5,-168.5"/>
<text text-anchor="middle" x="770" y="-175.5" font-family="Helvetica,sans-Serif" font-size="10.00" fill="#000000">architecture_arch.h</text>
</g>
<!-- Node6&#45;&gt;Node9 -->
<g id="edge13" class="edge">
<title>Node6&#45;&gt;Node9</title>
<path fill="none" stroke="#191970" d="M770,-224.2455C770,-216.9382 770,-206.6944 770,-197.7046"/>
<polygon fill="#191970" stroke="#191970" points="773.5001,-197.6426 770,-187.6427 766.5001,-197.6427 773.5001,-197.6426"/>
</g>
<!-- Node11 -->
<g id="node12" class="node">
<title>Node11</title>
<g id="a_node12"><a xlink:href="modules_8h.html" target="_top" xlink:title="Common macros and compiler attributes/pragmas configuration. ">
<polygon fill="#ffffff" stroke="#000000" points="215.5,-112.5 215.5,-131.5 280.5,-131.5 280.5,-112.5 215.5,-112.5"/>
<text text-anchor="middle" x="248" y="-119.5" font-family="Helvetica,sans-Serif" font-size="10.00" fill="#000000">modules.h</text>
</a>
</g>
</g>
<!-- Node10&#45;&gt;Node11 -->
<g id="edge15" class="edge">
<title>Node10&#45;&gt;Node11</title>
<path fill="none" stroke="#191970" d="M177.8059,-168.2455C190.7256,-159.7337 209.6931,-147.2375 224.6552,-137.3801"/>
<polygon fill="#191970" stroke="#191970" points="226.9387,-140.067 233.3638,-131.6427 223.0876,-134.2216 226.9387,-140.067"/>
</g>
<!-- Node12 -->
<g id="node13" class="node">
<title>Node12</title>
<g id="a_node13"><a xlink:href="riot__version_8h.html" target="_top" xlink:title="Common macros and compiler attributes/pragmas configuration. ">
<polygon fill="#ffffff" stroke="#000000" points="199.5,-56.5 199.5,-75.5 280.5,-75.5 280.5,-56.5 199.5,-56.5"/>
<text text-anchor="middle" x="240" y="-63.5" font-family="Helvetica,sans-Serif" font-size="10.00" fill="#000000">riot_version.h</text>
</a>
</g>
</g>
<!-- Node10&#45;&gt;Node12 -->
<g id="edge16" class="edge">
<title>Node10&#45;&gt;Node12</title>
<path fill="none" stroke="#191970" d="M140.2996,-168.4605C114.959,-156.4209 79.5328,-134.5474 96,-112 107.2835,-96.5503 152.4192,-83.7786 189.1895,-75.6454"/>
<polygon fill="#191970" stroke="#191970" points="190.2601,-78.9955 199.3037,-73.4761 188.7921,-72.1511 190.2601,-78.9955"/>
</g>
<!-- Node13 -->
<g id="node14" class="node">
<title>Node13</title>
<g id="a_node14"><a xlink:href="compiler__hints_8h.html" target="_top" xlink:title="Common macros and compiler attributes/pragmas configuration. ">
<polygon fill="#ffffff" stroke="#000000" points="104.5,-112.5 104.5,-131.5 197.5,-131.5 197.5,-112.5 104.5,-112.5"/>
<text text-anchor="middle" x="151" y="-119.5" font-family="Helvetica,sans-Serif" font-size="10.00" fill="#000000">compiler_hints.h</text>
</a>
</g>
</g>
<!-- Node10&#45;&gt;Node13 -->
<g id="edge18" class="edge">
<title>Node10&#45;&gt;Node13</title>
<path fill="none" stroke="#191970" d="M160.9098,-168.2455C159.3439,-160.9382 157.1488,-150.6944 155.2224,-141.7046"/>
<polygon fill="#191970" stroke="#191970" points="158.584,-140.6873 153.0663,-131.6427 151.7393,-142.1541 158.584,-140.6873"/>
</g>
<!-- Node15 -->
<g id="node16" class="node">
<title>Node15</title>
<g id="a_node16"><a xlink:href="container_8h.html" target="_top" xlink:title="Common macros and compiler attributes/pragmas configuration. ">
<polygon fill="#ffffff" stroke="#000000" points="298.5,-112.5 298.5,-131.5 367.5,-131.5 367.5,-112.5 298.5,-112.5"/>
<text text-anchor="middle" x="333" y="-119.5" font-family="Helvetica,sans-Serif" font-size="10.00" fill="#000000">container.h</text>
</a>
</g>
</g>
<!-- Node10&#45;&gt;Node15 -->
<g id="edge22" class="edge">
<title>Node10&#45;&gt;Node15</title>
<path fill="none" stroke="#191970" d="M192.224,-168.3733C220.4925,-159.0613 263.4965,-144.8953 294.5344,-134.671"/>
<polygon fill="#191970" stroke="#191970" points="295.7544,-137.9542 304.1573,-131.5011 293.5643,-131.3056 295.7544,-137.9542"/>
</g>
<!-- Node12&#45;&gt;Node1 -->
<g id="edge17" class="edge">
<title>Node12&#45;&gt;Node1</title>
<path fill="none" stroke="#191970" d="M263.3792,-56.3733C285.5045,-47.2629 318.9134,-33.5062 343.6019,-23.3404"/>
<polygon fill="#191970" stroke="#191970" points="345.0117,-26.5451 352.9258,-19.5011 342.3464,-20.0723 345.0117,-26.5451"/>
</g>
<!-- Node13&#45;&gt;Node1 -->
<g id="edge21" class="edge">
<title>Node13&#45;&gt;Node1</title>
<path fill="none" stroke="#191970" d="M191.3842,-112.4846C219.9291,-104.8521 258.5519,-92.6563 290,-76 315.6351,-62.4225 341.5765,-41.2694 358.1626,-26.5848"/>
<polygon fill="#191970" stroke="#191970" points="360.8555,-28.8691 365.9322,-19.5697 356.1644,-23.6735 360.8555,-28.8691"/>
</g>
<!-- Node14 -->
<g id="node15" class="node">
<title>Node14</title>
<g id="a_node15"><a xlink:href="assert_8h.html" target="_top" xlink:title="POSIX.1&#45;2008 compliant version of the assert macro. ">
<polygon fill="#ffffff" stroke="#000000" points="124,-56.5 124,-75.5 178,-75.5 178,-56.5 124,-56.5"/>
<text text-anchor="middle" x="151" y="-63.5" font-family="Helvetica,sans-Serif" font-size="10.00" fill="#000000">assert.h</text>
</a>
</g>
</g>
<!-- Node13&#45;&gt;Node14 -->
<g id="edge19" class="edge">
<title>Node13&#45;&gt;Node14</title>
<path fill="none" stroke="#191970" d="M151,-112.2455C151,-104.9382 151,-94.6944 151,-85.7046"/>
<polygon fill="#191970" stroke="#191970" points="154.5001,-85.6426 151,-75.6427 147.5001,-85.6427 154.5001,-85.6426"/>
</g>
<!-- Node14&#45;&gt;Node1 -->
<g id="edge20" class="edge">
<title>Node14&#45;&gt;Node1</title>
<path fill="none" stroke="#191970" d="M178.1097,-59.2176C182.4215,-58.1403 186.8327,-57.039 191,-56 242.8085,-43.0829 302.7911,-28.1774 340.0691,-18.9198"/>
<polygon fill="#191970" stroke="#191970" points="341.0939,-22.2717 349.9556,-16.4648 339.4069,-15.478 341.0939,-22.2717"/>
</g>
<!-- Node15&#45;&gt;Node1 -->
<g id="edge24" class="edge">
<title>Node15&#45;&gt;Node1</title>
<path fill="none" stroke="#191970" d="M336.6662,-112.4509C343.7428,-94.0186 359.4045,-53.2254 368.6888,-29.043"/>
<polygon fill="#191970" stroke="#191970" points="372.0263,-30.115 372.3431,-19.5249 365.4914,-27.606 372.0263,-30.115"/>
</g>
<!-- Node15&#45;&gt;Node5 -->
<g id="edge23" class="edge">
<title>Node15&#45;&gt;Node5</title>
<path fill="none" stroke="#191970" d="M366.5217,-112.3733C400.9609,-102.483 454.4673,-87.1171 490.3444,-76.8139"/>
<polygon fill="#191970" stroke="#191970" points="491.3202,-80.1752 499.9656,-74.0509 489.388,-73.4472 491.3202,-80.1752"/>
</g>
<!-- Node18 -->
<g id="node19" class="node">
<title>Node18</title>
<g id="a_node19"><a xlink:href="clist_8h.html" target="_top" xlink:title="Circular linked list. ">
<polygon fill="#ffffff" stroke="#000000" points="459.5,-168.5 459.5,-187.5 502.5,-187.5 502.5,-168.5 459.5,-168.5"/>
<text text-anchor="middle" x="481" y="-175.5" font-family="Helvetica,sans-Serif" font-size="10.00" fill="#000000">clist.h</text>
</a>
</g>
</g>
<!-- Node17&#45;&gt;Node18 -->
<g id="edge27" class="edge">
<title>Node17&#45;&gt;Node18</title>
<path fill="none" stroke="#191970" d="M372.4355,-336.0749C374.681,-322.6781 379.8583,-298.3724 390,-280 408.9331,-245.7014 441.2902,-213.2218 461.8845,-194.4784"/>
<polygon fill="#191970" stroke="#191970" points="464.2736,-197.0374 469.4051,-187.7682 459.6132,-191.8143 464.2736,-197.0374"/>
</g>
<!-- Node19 -->
<g id="node20" class="node">
<title>Node19</title>
<g id="a_node20"><a xlink:href="cib_8h.html" target="_top" xlink:title="Circular integer buffer interface. ">
<polygon fill="#ffffff" stroke="#000000" points="203,-280.5 203,-299.5 241,-299.5 241,-280.5 203,-280.5"/>
<text text-anchor="middle" x="222" y="-287.5" font-family="Helvetica,sans-Serif" font-size="10.00" fill="#000000">cib.h</text>
</a>
</g>
</g>
<!-- Node17&#45;&gt;Node19 -->
<g id="edge31" class="edge">
<title>Node17&#45;&gt;Node19</title>
<path fill="none" stroke="#191970" d="M345.386,-336.3733C319.0046,-326.4581 277.9804,-311.0396 250.5658,-300.7361"/>
<polygon fill="#191970" stroke="#191970" points="251.7258,-297.4331 241.1337,-297.1912 249.2631,-303.9856 251.7258,-297.4331"/>
</g>
<!-- Node20 -->
<g id="node21" class="node">
<title>Node20</title>
<g id="a_node21"><a xlink:href="core_2include_2msg_8h.html" target="_top" xlink:title="Messaging API for inter process communication. ">
<polygon fill="#ffffff" stroke="#000000" points="297.5,-280.5 297.5,-299.5 342.5,-299.5 342.5,-280.5 297.5,-280.5"/>
<text text-anchor="middle" x="320" y="-287.5" font-family="Helvetica,sans-Serif" font-size="10.00" fill="#000000">msg.h</text>
</a>
</g>
</g>
<!-- Node17&#45;&gt;Node20 -->
<g id="edge33" class="edge">
<title>Node17&#45;&gt;Node20</title>
<path fill="none" stroke="#191970" d="M362.1165,-336.2455C354.8034,-328.2155 344.2609,-316.6394 335.5533,-307.0781"/>
<polygon fill="#191970" stroke="#191970" points="338.1028,-304.6795 328.7817,-299.6427 332.9273,-309.3928 338.1028,-304.6795"/>
</g>
<!-- Node21 -->
<g id="node22" class="node">
<title>Node21</title>
<g id="a_node22"><a xlink:href="sched_8h.html" target="_top" xlink:title="Scheduler API definition. ">
<polygon fill="#ffffff" stroke="#000000" points="315.5,-224.5 315.5,-243.5 368.5,-243.5 368.5,-224.5 315.5,-224.5"/>
<text text-anchor="middle" x="342" y="-231.5" font-family="Helvetica,sans-Serif" font-size="10.00" fill="#000000">sched.h</text>
</a>
</g>
</g>
<!-- Node17&#45;&gt;Node21 -->
<g id="edge42" class="edge">
<title>Node17&#45;&gt;Node21</title>
<path fill="none" stroke="#191970" d="M342.457,-338.2263C323.6554,-331.4578 300.4659,-319.5789 289,-300 278.023,-281.2559 297.3913,-262.1539 315.7222,-249.3564"/>
<polygon fill="#191970" stroke="#191970" points="318.0507,-252.0153 324.5001,-243.6096 314.2165,-246.1588 318.0507,-252.0153"/>
</g>
<!-- Node23 -->
<g id="node24" class="node">
<title>Node23</title>
<g id="a_node24"><a xlink:href="thread__config_8h.html" target="_top" xlink:title="Thread configuration defines. ">
<polygon fill="#ffffff" stroke="#000000" points="499,-280.5 499,-299.5 589,-299.5 589,-280.5 499,-280.5"/>
<text text-anchor="middle" x="544" y="-287.5" font-family="Helvetica,sans-Serif" font-size="10.00" fill="#000000">thread_config.h</text>
</a>
</g>
</g>
<!-- Node17&#45;&gt;Node23 -->
<g id="edge43" class="edge">
<title>Node17&#45;&gt;Node23</title>
<path fill="none" stroke="#191970" d="M399.5674,-336.7527C428.2315,-327.4742 472.6033,-313.1111 504.6023,-302.753"/>
<polygon fill="#191970" stroke="#191970" points="506.0851,-305.9519 514.5212,-299.5423 503.9293,-299.2921 506.0851,-305.9519"/>
</g>
<!-- Node25 -->
<g id="node26" class="node">
<title>Node25</title>
<polygon fill="#ffffff" stroke="#bfbfbf" points="399,-280.5 399,-299.5 481,-299.5 481,-280.5 399,-280.5"/>
<text text-anchor="middle" x="440" y="-287.5" font-family="Helvetica,sans-Serif" font-size="10.00" fill="#000000">thread_arch.h</text>
</g>
<!-- Node17&#45;&gt;Node25 -->
<g id="edge46" class="edge">
<title>Node17&#45;&gt;Node25</title>
<path fill="none" stroke="#191970" d="M383.0189,-336.2455C393.2098,-327.9746 408.0362,-315.9416 420.0107,-306.2232"/>
<polygon fill="#191970" stroke="#191970" points="422.5598,-308.662 428.1188,-299.6427 418.1486,-303.2268 422.5598,-308.662"/>
</g>
<!-- Node18&#45;&gt;Node3 -->
<g id="edge28" class="edge">
<title>Node18&#45;&gt;Node3</title>
<path fill="none" stroke="#191970" d="M499.2896,-168.2455C515.7762,-159.4527 540.2352,-146.4079 558.9765,-136.4125"/>
<polygon fill="#191970" stroke="#191970" points="560.7435,-139.4368 567.92,-131.6427 557.4494,-133.2604 560.7435,-139.4368"/>
</g>
<!-- Node18&#45;&gt;Node5 -->
<g id="edge29" class="edge">
<title>Node18&#45;&gt;Node5</title>
<path fill="none" stroke="#191970" d="M488.0375,-168.1905C494.2568,-159.1525 503.2141,-145.1841 509,-132 515.5885,-116.987 520.5807,-99.0611 523.7908,-85.6825"/>
<polygon fill="#191970" stroke="#191970" points="527.2613,-86.2047 526.0639,-75.6777 520.4352,-84.6537 527.2613,-86.2047"/>
</g>
<!-- Node18&#45;&gt;Node16 -->
<g id="edge30" class="edge">
<title>Node18&#45;&gt;Node16</title>
<path fill="none" stroke="#191970" d="M481,-168.2455C481,-160.9382 481,-150.6944 481,-141.7046"/>
<polygon fill="#191970" stroke="#191970" points="484.5001,-141.6426 481,-131.6427 477.5001,-141.6427 484.5001,-141.6426"/>
</g>
<!-- Node19&#45;&gt;Node14 -->
<g id="edge32" class="edge">
<title>Node19&#45;&gt;Node14</title>
<path fill="none" stroke="#191970" d="M206.4578,-280.389C181.6661,-264.2823 133.1994,-229.4912 106,-188 86.9692,-158.9696 72.2775,-142.9474 88,-112 94.861,-98.4951 107.7532,-88.0099 120.0966,-80.4839"/>
<polygon fill="#191970" stroke="#191970" points="121.9003,-83.4849 128.8934,-75.5258 118.4633,-77.3868 121.9003,-83.4849"/>
</g>
<!-- Node20&#45;&gt;Node1 -->
<g id="edge34" class="edge">
<title>Node20&#45;&gt;Node1</title>
<path fill="none" stroke="#191970" d="M315.416,-280.1106C310.0148,-267.16 302.3313,-243.777 307,-224 313.3932,-196.9178 317.8752,-189.9331 335,-168 350.1302,-148.6216 366.7268,-154.3362 377,-132 392.3425,-98.6419 386.4485,-54.5208 381.0433,-29.5081"/>
<polygon fill="#191970" stroke="#191970" points="384.4458,-28.6871 378.7462,-19.7559 377.6322,-30.2921 384.4458,-28.6871"/>
</g>
<!-- Node20&#45;&gt;Node3 -->
<g id="edge35" class="edge">
<title>Node20&#45;&gt;Node3</title>
<path fill="none" stroke="#191970" d="M341.997,-280.4239C378.7336,-263.9787 454.2337,-228.2302 512,-188 533.2162,-173.2244 555.008,-153.0696 569.3978,-138.9328"/>
<polygon fill="#191970" stroke="#191970" points="571.9706,-141.3101 576.58,-131.7704 567.0277,-136.3534 571.9706,-141.3101"/>
</g>
<!-- Node20&#45;&gt;Node21 -->
<g id="edge36" class="edge">
<title>Node20&#45;&gt;Node21</title>
<path fill="none" stroke="#191970" d="M323.8321,-280.2455C326.7659,-272.7776 330.9047,-262.2427 334.491,-253.1137"/>
<polygon fill="#191970" stroke="#191970" points="337.8129,-254.23 338.2118,-243.6427 331.2976,-251.6704 337.8129,-254.23"/>
</g>
<!-- Node21&#45;&gt;Node5 -->
<g id="edge37" class="edge">
<title>Node21&#45;&gt;Node5</title>
<path fill="none" stroke="#191970" d="M339.8637,-224.1732C337.4494,-210.4563 335.1418,-185.3094 346,-168 346.1466,-167.7664 451.6004,-108.7451 501.8997,-80.6018"/>
<polygon fill="#191970" stroke="#191970" points="503.8767,-83.5063 510.8947,-75.5691 500.4588,-77.3974 503.8767,-83.5063"/>
</g>
<!-- Node21&#45;&gt;Node7 -->
<g id="edge38" class="edge">
<title>Node21&#45;&gt;Node7</title>
<path fill="none" stroke="#191970" d="M368.5961,-229.4173C425.1218,-219.6775 557.5729,-196.8551 625.3878,-185.1701"/>
<polygon fill="#191970" stroke="#191970" points="626.0411,-188.6092 635.3016,-183.4619 624.8524,-181.7108 626.0411,-188.6092"/>
</g>
<!-- Node21&#45;&gt;Node10 -->
<g id="edge39" class="edge">
<title>Node21&#45;&gt;Node10</title>
<path fill="none" stroke="#191970" d="M315.2019,-225.6162C285.5537,-216.3408 237.4575,-201.294 203.2713,-190.5989"/>
<polygon fill="#191970" stroke="#191970" points="204.1742,-187.2141 193.5853,-187.5686 202.0841,-193.8948 204.1742,-187.2141"/>
</g>
<!-- Node21&#45;&gt;Node18 -->
<g id="edge41" class="edge">
<title>Node21&#45;&gt;Node18</title>
<path fill="none" stroke="#191970" d="M365.895,-224.3733C389.0564,-215.042 424.3165,-200.8365 449.7064,-190.6075"/>
<polygon fill="#191970" stroke="#191970" points="451.2767,-193.7483 459.2443,-186.7649 448.6608,-187.2554 451.2767,-193.7483"/>
</g>
<!-- Node22 -->
<g id="node23" class="node">
<title>Node22</title>
<g id="a_node23"><a xlink:href="native__sched_8h.html" target="_top" xlink:title="Add definitions required on the native board. ">
<polygon fill="#ffffff" stroke="#000000" points="355,-168.5 355,-187.5 441,-187.5 441,-168.5 355,-168.5"/>
<text text-anchor="middle" x="398" y="-175.5" font-family="Helvetica,sans-Serif" font-size="10.00" fill="#000000">native_sched.h</text>
</a>
</g>
</g>
<!-- Node21&#45;&gt;Node22 -->
<g id="edge40" class="edge">
<title>Node21&#45;&gt;Node22</title>
<path fill="none" stroke="#191970" d="M351.7545,-224.2455C359.8648,-216.1352 371.5925,-204.4075 381.2081,-194.7919"/>
<polygon fill="#191970" stroke="#191970" points="383.7611,-197.1887 388.3573,-187.6427 378.8113,-192.2389 383.7611,-197.1887"/>
</g>
<!-- Node23&#45;&gt;Node21 -->
<g id="edge45" class="edge">
<title>Node23&#45;&gt;Node21</title>
<path fill="none" stroke="#191970" d="M509.275,-280.3733C472.7746,-270.2543 415.5987,-254.4036 378.4592,-244.1075"/>
<polygon fill="#191970" stroke="#191970" points="379.1207,-240.6589 368.5491,-241.3601 377.2506,-247.4045 379.1207,-240.6589"/>
</g>
<!-- Node24 -->
<g id="node25" class="node">
<title>Node24</title>
<polygon fill="#ffffff" stroke="#bfbfbf" points="510.5,-224.5 510.5,-243.5 577.5,-243.5 577.5,-224.5 510.5,-224.5"/>
<text text-anchor="middle" x="544" y="-231.5" font-family="Helvetica,sans-Serif" font-size="10.00" fill="#000000">cpu_conf.h</text>
</g>
<!-- Node23&#45;&gt;Node24 -->
<g id="edge44" class="edge">
<title>Node23&#45;&gt;Node24</title>
<path fill="none" stroke="#191970" d="M544,-280.2455C544,-272.9382 544,-262.6944 544,-253.7046"/>
<polygon fill="#191970" stroke="#191970" points="547.5001,-253.6426 544,-243.6427 540.5001,-253.6427 547.5001,-253.6426"/>
</g>
<!-- Node26&#45;&gt;Node3 -->
<g id="edge49" class="edge">
<title>Node26&#45;&gt;Node3</title>
<path fill="none" stroke="#191970" d="M1054.032,-224.3672C1039.475,-209.4265 1009.084,-181.0325 977,-168 914.0827,-142.443 713.2571,-128.8459 626.5258,-124.0402"/>
<polygon fill="#191970" stroke="#191970" points="626.4621,-120.5317 616.2871,-123.4846 626.0827,-127.5214 626.4621,-120.5317"/>
</g>
<!-- Node26&#45;&gt;Node8 -->
<g id="edge48" class="edge">
<title>Node26&#45;&gt;Node8</title>
<path fill="none" stroke="#191970" d="M1042.3713,-224.3733C1023.1081,-215.3838 994.1514,-201.8706 972.4581,-191.7471"/>
<polygon fill="#191970" stroke="#191970" points="973.9015,-188.5584 963.3595,-187.5011 970.9413,-194.9017 973.9015,-188.5584"/>
</g>
<!-- Node27 -->
<g id="node28" class="node">
<title>Node27</title>
<polygon fill="#ffffff" stroke="#bfbfbf" points="1024.5,-168.5 1024.5,-187.5 1101.5,-187.5 1101.5,-168.5 1024.5,-168.5"/>
<text text-anchor="middle" x="1063" y="-175.5" font-family="Helvetica,sans-Serif" font-size="10.00" fill="#000000">periph_cpu.h</text>
</g>
<!-- Node26&#45;&gt;Node27 -->
<g id="edge50" class="edge">
<title>Node26&#45;&gt;Node27</title>
<path fill="none" stroke="#191970" d="M1063,-224.2455C1063,-216.9382 1063,-206.6944 1063,-197.7046"/>
<polygon fill="#191970" stroke="#191970" points="1066.5001,-197.6426 1063,-187.6427 1059.5001,-197.6427 1066.5001,-197.6426"/>
</g>
<!-- Node28 -->
<g id="node29" class="node">
<title>Node28</title>
<polygon fill="#ffffff" stroke="#bfbfbf" points="1119.5,-168.5 1119.5,-187.5 1200.5,-187.5 1200.5,-168.5 1119.5,-168.5"/>
<text text-anchor="middle" x="1160" y="-175.5" font-family="Helvetica,sans-Serif" font-size="10.00" fill="#000000">periph_conf.h</text>
</g>
<!-- Node26&#45;&gt;Node28 -->
<g id="edge51" class="edge">
<title>Node26&#45;&gt;Node28</title>
<path fill="none" stroke="#191970" d="M1079.8961,-224.2455C1094.918,-215.5731 1117.1043,-202.7645 1134.321,-192.825"/>
<polygon fill="#191970" stroke="#191970" points="1136.3871,-195.6737 1143.2975,-187.6427 1132.8872,-189.6114 1136.3871,-195.6737"/>
</g>
<!-- Node29&#45;&gt;Node1 -->
<g id="edge56" class="edge">
<title>Node29&#45;&gt;Node1</title>
<path fill="none" stroke="#191970" d="M1201.034,-231.144C1258.905,-225.534 1355.339,-209.7453 1320,-168 1259.7235,-96.7964 578.7703,-28.9314 412.4695,-13.3403"/>
<polygon fill="#191970" stroke="#191970" points="412.5536,-9.833 402.2718,-12.3894 411.9037,-16.8028 412.5536,-9.833"/>
</g>
<!-- Node29&#45;&gt;Node5 -->
<g id="edge55" class="edge">
<title>Node29&#45;&gt;Node5</title>
<path fill="none" stroke="#191970" d="M1177.1317,-224.2981C1197.0093,-211.1541 1226.2711,-187.1341 1210,-168 1167.7659,-118.3346 703.6386,-79.3401 566.1562,-68.8148"/>
<polygon fill="#191970" stroke="#191970" points="566.3257,-65.3177 556.0894,-68.0505 565.7957,-72.2976 566.3257,-65.3177"/>
</g>
<!-- Node29&#45;&gt;Node8 -->
<g id="edge54" class="edge">
<title>Node29&#45;&gt;Node8</title>
<path fill="none" stroke="#191970" d="M1123.5245,-224.3733C1082.6486,-213.873 1017.7461,-197.2008 977.9104,-186.9678"/>
<polygon fill="#191970" stroke="#191970" points="978.666,-183.5483 968.1096,-184.4502 976.9243,-190.3282 978.666,-183.5483"/>
</g>
<!-- Node29&#45;&gt;Node27 -->
<g id="edge57" class="edge">
<title>Node29&#45;&gt;Node27</title>
<path fill="none" stroke="#191970" d="M1143.9297,-224.2455C1128.753,-215.5731 1106.3379,-202.7645 1088.9437,-192.825"/>
<polygon fill="#191970" stroke="#191970" points="1090.2936,-189.5653 1079.8747,-187.6427 1086.8206,-195.643 1090.2936,-189.5653"/>
</g>
<!-- Node29&#45;&gt;Node28 -->
<g id="edge58" class="edge">
<title>Node29&#45;&gt;Node28</title>
<path fill="none" stroke="#191970" d="M1160.8258,-224.2455C1160.6953,-216.9382 1160.5124,-206.6944 1160.3519,-197.7046"/>
<polygon fill="#191970" stroke="#191970" points="1163.8503,-197.5786 1160.1722,-187.6427 1156.8514,-197.7036 1163.8503,-197.5786"/>
</g>
<!-- Node30 -->
<g id="node31" class="node">
<title>Node30</title>
<g id="a_node31"><a xlink:href="errno_8h.html" target="_top" xlink:title="errno.h">
<polygon fill="#ffffff" stroke="#000000" points="1257.5,-168.5 1257.5,-187.5 1310.5,-187.5 1310.5,-168.5 1257.5,-168.5"/>
<text text-anchor="middle" x="1284" y="-175.5" font-family="Helvetica,sans-Serif" font-size="10.00" fill="#000000">errno.h</text>
</a>
</g>
</g>
<!-- Node29&#45;&gt;Node30 -->
<g id="edge53" class="edge">
<title>Node29&#45;&gt;Node30</title>
<path fill="none" stroke="#191970" d="M1182.1445,-224.3733C1201.8892,-215.3838 1231.5698,-201.8706 1253.8055,-191.7471"/>
<polygon fill="#191970" stroke="#191970" points="1255.4806,-194.8302 1263.1315,-187.5011 1252.58,-188.4594 1255.4806,-194.8302"/>
</g>
</g>
</svg>
