<?xml version="1.0" encoding="UTF-8" standalone="no"?>
<!DOCTYPE svg PUBLIC "-//W3C//DTD SVG 1.1//EN"
 "http://www.w3.org/Graphics/SVG/1.1/DTD/svg11.dtd">
<!-- Generated by graphviz version 2.40.1 (0)
 -->
<!-- Title: drivers/dfplayer/include/dfplayer_params.h Pages: 1 -->
<svg width="154pt" height="162pt"
 viewBox="0.00 0.00 154.00 162.00" xmlns="http://www.w3.org/2000/svg" xmlns:xlink="http://www.w3.org/1999/xlink">
<g id="graph0" class="graph" transform="scale(1 1) rotate(0) translate(4 158)">
<title>drivers/dfplayer/include/dfplayer_params.h</title>
<polygon fill="#ffffff" stroke="transparent" points="-4,4 -4,-158 150,-158 150,4 -4,4"/>
<!-- Node32 -->
<g id="node1" class="node">
<title>Node32</title>
<polygon fill="#bfbfbf" stroke="#000000" points="8.5,-123.5 8.5,-153.5 137.5,-153.5 137.5,-123.5 8.5,-123.5"/>
<text text-anchor="start" x="16.5" y="-141.5" font-family="Helvetica,sans-Serif" font-size="10.00" fill="#000000">drivers/dfplayer/include</text>
<text text-anchor="middle" x="73" y="-130.5" font-family="Helvetica,sans-Serif" font-size="10.00" fill="#000000">/dfplayer_params.h</text>
</g>
<!-- Node33 -->
<g id="node2" class="node">
<title>Node33</title>
<g id="a_node2"><a xlink:href="dfplayer_8h.html" target="_top" xlink:title="DFPlayer Mini Device Driver. ">
<polygon fill="#ffffff" stroke="#000000" points="4.5,-67.5 4.5,-86.5 141.5,-86.5 141.5,-67.5 4.5,-67.5"/>
<text text-anchor="middle" x="73" y="-74.5" font-family="Helvetica,sans-Serif" font-size="10.00" fill="#000000">drivers/include/dfplayer.h</text>
</a>
</g>
</g>
<!-- Node32&#45;&gt;Node33 -->
<g id="edge1" class="edge">
<title>Node32&#45;&gt;Node33</title>
<path fill="none" stroke="#191970" d="M73,-113.2849C73,-103.9858 73,-93.9883 73,-86.8469"/>
<polygon fill="#191970" stroke="#191970" points="69.5001,-113.2977 73,-123.2977 76.5001,-113.2978 69.5001,-113.2977"/>
</g>
<!-- Node34 -->
<g id="node3" class="node">
<title>Node34</title>
<g id="a_node3"><a xlink:href="dfplayer__implementation_8h.html" target="_top" xlink:title="Header&#45;only functions of the DFPlayer Mini Device driver. ">
<polygon fill="#ffffff" stroke="#000000" points="0,-.5 0,-30.5 146,-30.5 146,-.5 0,-.5"/>
<text text-anchor="start" x="8" y="-18.5" font-family="Helvetica,sans-Serif" font-size="10.00" fill="#000000">drivers/dfplayer/include</text>
<text text-anchor="middle" x="73" y="-7.5" font-family="Helvetica,sans-Serif" font-size="10.00" fill="#000000">/dfplayer_implementation.h</text>
</a>
</g>
</g>
<!-- Node33&#45;&gt;Node34 -->
<g id="edge2" class="edge">
<title>Node33&#45;&gt;Node34</title>
<path fill="none" stroke="#191970" d="M66.6586,-57.3693C65.9926,-48.681 66.1407,-38.6241 67.1029,-30.5446"/>
<polygon fill="#191970" stroke="#191970" points="63.1997,-57.9142 67.9375,-67.3906 70.1433,-57.028 63.1997,-57.9142"/>
</g>
<!-- Node34&#45;&gt;Node33 -->
<g id="edge3" class="edge">
<title>Node34&#45;&gt;Node33</title>
<path fill="none" stroke="#191970" d="M79.6503,-40.671C79.9902,-50.0862 79.461,-60.2234 78.0625,-67.3906"/>
<polygon fill="#191970" stroke="#191970" points="83.1293,-40.2574 78.8971,-30.5446 76.1485,-40.7767 83.1293,-40.2574"/>
</g>
</g>
</svg>
