<?xml version="1.0" encoding="UTF-8" standalone="no"?>
<!DOCTYPE svg PUBLIC "-//W3C//DTD SVG 1.1//EN"
 "http://www.w3.org/Graphics/SVG/1.1/DTD/svg11.dtd">
<!-- Generated by graphviz version 2.40.1 (0)
 -->
<!-- Title: drivers/dfplayer/include/dfplayer_params.h Pages: 1 -->
<svg width="1506pt" height="543pt"
 viewBox="0.00 0.00 1505.50 543.00" xmlns="http://www.w3.org/2000/svg" xmlns:xlink="http://www.w3.org/1999/xlink">
<g id="graph0" class="graph" transform="scale(1 1) rotate(0) translate(4 539)">
<title>drivers/dfplayer/include/dfplayer_params.h</title>
<polygon fill="#ffffff" stroke="transparent" points="-4,4 -4,-539 1501.5,-539 1501.5,4 -4,4"/>
<!-- Node0 -->
<g id="node1" class="node">
<title>Node0</title>
<polygon fill="#bfbfbf" stroke="#000000" points="137,-504.5 137,-534.5 266,-534.5 266,-504.5 137,-504.5"/>
<text text-anchor="start" x="145" y="-522.5" font-family="Helvetica,sans-Serif" font-size="10.00" fill="#000000">drivers/dfplayer/include</text>
<text text-anchor="middle" x="201.5" y="-511.5" font-family="Helvetica,sans-Serif" font-size="10.00" fill="#000000">/dfplayer_params.h</text>
</g>
<!-- Node1 -->
<g id="node2" class="node">
<title>Node1</title>
<polygon fill="#ffffff" stroke="#bfbfbf" points="120,-448.5 120,-467.5 173,-467.5 173,-448.5 120,-448.5"/>
<text text-anchor="middle" x="146.5" y="-455.5" font-family="Helvetica,sans-Serif" font-size="10.00" fill="#000000">board.h</text>
</g>
<!-- Node0&#45;&gt;Node1 -->
<g id="edge1" class="edge">
<title>Node0&#45;&gt;Node1</title>
<path fill="none" stroke="#191970" d="M187.9045,-504.2977C180.1109,-495.5831 170.2953,-484.6075 162.1774,-475.5302"/>
<polygon fill="#191970" stroke="#191970" points="164.5813,-472.9678 155.3062,-467.8469 159.3635,-477.6341 164.5813,-472.9678"/>
</g>
<!-- Node2 -->
<g id="node3" class="node">
<title>Node2</title>
<g id="a_node3"><a xlink:href="dfplayer__types_8h.html" target="_top" xlink:title="Types used in the DFPlayer Mini Device Driver. ">
<polygon fill="#ffffff" stroke="#000000" points="970,-448.5 970,-467.5 1065,-467.5 1065,-448.5 970,-448.5"/>
<text text-anchor="middle" x="1017.5" y="-455.5" font-family="Helvetica,sans-Serif" font-size="10.00" fill="#000000">dfplayer_types.h</text>
</a>
</g>
</g>
<!-- Node0&#45;&gt;Node2 -->
<g id="edge2" class="edge">
<title>Node0&#45;&gt;Node2</title>
<path fill="none" stroke="#191970" d="M266.2122,-514.6228C421.1911,-502.9424 811.7054,-473.5103 959.558,-462.367"/>
<polygon fill="#191970" stroke="#191970" points="960.0688,-465.8385 969.7775,-461.5967 959.5427,-458.8583 960.0688,-465.8385"/>
</g>
<!-- Node11 -->
<g id="node12" class="node">
<title>Node11</title>
<g id="a_node12"><a xlink:href="kernel__defines_8h.html" target="_top" xlink:title="Common macros and compiler attributes/pragmas configuration. ">
<polygon fill="#ffffff" stroke="#000000" points="154,-168.5 154,-187.5 249,-187.5 249,-168.5 154,-168.5"/>
<text text-anchor="middle" x="201.5" y="-175.5" font-family="Helvetica,sans-Serif" font-size="10.00" fill="#000000">kernel_defines.h</text>
</a>
</g>
</g>
<!-- Node0&#45;&gt;Node11 -->
<g id="edge59" class="edge">
<title>Node0&#45;&gt;Node11</title>
<path fill="none" stroke="#191970" d="M201.5,-504.2899C201.5,-481.892 201.5,-438.7188 201.5,-402 201.5,-402 201.5,-402 201.5,-290 201.5,-257.7116 201.5,-220.1872 201.5,-197.8048"/>
<polygon fill="#191970" stroke="#191970" points="205.0001,-197.5883 201.5,-187.5884 198.0001,-197.5884 205.0001,-197.5883"/>
</g>
<!-- Node3 -->
<g id="node4" class="node">
<title>Node3</title>
<polygon fill="#ffffff" stroke="#bfbfbf" points="659.5,-112.5 659.5,-131.5 719.5,-131.5 719.5,-112.5 659.5,-112.5"/>
<text text-anchor="middle" x="689.5" y="-119.5" font-family="Helvetica,sans-Serif" font-size="10.00" fill="#000000">stdbool.h</text>
</g>
<!-- Node2&#45;&gt;Node3 -->
<g id="edge3" class="edge">
<title>Node2&#45;&gt;Node3</title>
<path fill="none" stroke="#191970" d="M1010.6655,-448.3377C998.0769,-429.5638 972.5,-386.4436 972.5,-346 972.5,-346 972.5,-346 972.5,-234 972.5,-194.9495 948.2767,-187.5978 914.5,-168 883.5768,-150.0579 785.5596,-134.6793 729.6281,-127.0778"/>
<polygon fill="#191970" stroke="#191970" points="730.0756,-123.6066 719.6998,-125.7501 729.1476,-130.5448 730.0756,-123.6066"/>
</g>
<!-- Node4 -->
<g id="node5" class="node">
<title>Node4</title>
<polygon fill="#ffffff" stroke="#bfbfbf" points="345.5,-.5 345.5,-19.5 397.5,-19.5 397.5,-.5 345.5,-.5"/>
<text text-anchor="middle" x="371.5" y="-7.5" font-family="Helvetica,sans-Serif" font-size="10.00" fill="#000000">stdint.h</text>
</g>
<!-- Node2&#45;&gt;Node4 -->
<g id="edge4" class="edge">
<title>Node2&#45;&gt;Node4</title>
<path fill="none" stroke="#191970" d="M1065.2791,-456.9382C1186.6895,-452.9517 1497.5,-434.1389 1497.5,-346 1497.5,-346 1497.5,-346 1497.5,-122 1497.5,-65.9056 600.9592,-20.7421 407.8625,-11.6653"/>
<polygon fill="#191970" stroke="#191970" points="407.8283,-8.16 397.6758,-11.1893 407.5016,-15.1523 407.8283,-8.16"/>
</g>
<!-- Node5 -->
<g id="node6" class="node">
<title>Node5</title>
<g id="a_node6"><a xlink:href="mutex_8h.html" target="_top" xlink:title="Mutex for thread synchronization. ">
<polygon fill="#ffffff" stroke="#000000" points="600.5,-392.5 600.5,-411.5 656.5,-411.5 656.5,-392.5 600.5,-392.5"/>
<text text-anchor="middle" x="628.5" y="-399.5" font-family="Helvetica,sans-Serif" font-size="10.00" fill="#000000">mutex.h</text>
</a>
</g>
</g>
<!-- Node2&#45;&gt;Node5 -->
<g id="edge5" class="edge">
<title>Node2&#45;&gt;Node5</title>
<path fill="none" stroke="#191970" d="M969.801,-451.1333C891.6798,-439.8871 738.0189,-417.7662 666.6281,-407.4889"/>
<polygon fill="#191970" stroke="#191970" points="667.1075,-404.0219 656.7108,-406.0612 666.11,-410.9505 667.1075,-404.0219"/>
</g>
<!-- Node27 -->
<g id="node28" class="node">
<title>Node27</title>
<g id="a_node28"><a xlink:href="drivers_2include_2periph_2gpio_8h.html" target="_top" xlink:title="Low&#45;level GPIO peripheral driver interface definitions. ">
<polygon fill="#ffffff" stroke="#000000" points="1076.5,-224.5 1076.5,-243.5 1156.5,-243.5 1156.5,-224.5 1076.5,-224.5"/>
<text text-anchor="middle" x="1116.5" y="-231.5" font-family="Helvetica,sans-Serif" font-size="10.00" fill="#000000">periph/gpio.h</text>
</a>
</g>
</g>
<!-- Node2&#45;&gt;Node27 -->
<g id="edge47" class="edge">
<title>Node2&#45;&gt;Node27</title>
<path fill="none" stroke="#191970" d="M1021.7539,-448.375C1036.8272,-414.2697 1087.8713,-298.7761 1108.1218,-252.9567"/>
<polygon fill="#191970" stroke="#191970" points="1111.4207,-254.1505 1112.2619,-243.5891 1105.0182,-251.3208 1111.4207,-254.1505"/>
</g>
<!-- Node30 -->
<g id="node31" class="node">
<title>Node30</title>
<g id="a_node31"><a xlink:href="drivers_2include_2periph_2uart_8h.html" target="_top" xlink:title="Low&#45;level UART peripheral driver interface definition. ">
<polygon fill="#ffffff" stroke="#000000" points="1240.5,-224.5 1240.5,-243.5 1320.5,-243.5 1320.5,-224.5 1240.5,-224.5"/>
<text text-anchor="middle" x="1280.5" y="-231.5" font-family="Helvetica,sans-Serif" font-size="10.00" fill="#000000">periph/uart.h</text>
</a>
</g>
</g>
<!-- Node2&#45;&gt;Node30 -->
<g id="edge52" class="edge">
<title>Node2&#45;&gt;Node30</title>
<path fill="none" stroke="#191970" d="M1028.8008,-448.375C1069.6871,-413.5517 1210.1979,-293.8771 1261.53,-250.1569"/>
<polygon fill="#191970" stroke="#191970" points="1263.8978,-252.7378 1269.2413,-243.5891 1259.3589,-247.4087 1263.8978,-252.7378"/>
</g>
<!-- Node5&#45;&gt;Node3 -->
<g id="edge8" class="edge">
<title>Node5&#45;&gt;Node3</title>
<path fill="none" stroke="#191970" d="M646.007,-392.2485C671.9402,-376.669 719.5382,-343.4421 738.5,-300 743.0946,-289.4737 748.8748,-255.3572 737.5,-224 730.4938,-204.6858 717.9731,-206.2314 708.5,-188 700.9406,-173.4517 696.0204,-155.4913 693.0851,-141.9812"/>
<polygon fill="#191970" stroke="#191970" points="696.4542,-140.9779 691.072,-131.852 689.5885,-142.3425 696.4542,-140.9779"/>
</g>
<!-- Node5&#45;&gt;Node4 -->
<g id="edge7" class="edge">
<title>Node5&#45;&gt;Node4</title>
<path fill="none" stroke="#191970" d="M600.4757,-398.1342C526.3779,-387.2333 328.7527,-353.5161 296.5,-300 291.9118,-292.3868 294.927,-288.7486 296.5,-280 308.9182,-210.9346 333.5177,-199.8298 351.5,-132 360.9013,-96.5379 366.6645,-54.042 369.4567,-29.7147"/>
<polygon fill="#191970" stroke="#191970" points="372.9523,-29.9454 370.5624,-19.6237 365.9939,-29.1829 372.9523,-29.9454"/>
</g>
<!-- Node6 -->
<g id="node7" class="node">
<title>Node6</title>
<polygon fill="#ffffff" stroke="#bfbfbf" points="513.5,-56.5 513.5,-75.5 569.5,-75.5 569.5,-56.5 513.5,-56.5"/>
<text text-anchor="middle" x="541.5" y="-63.5" font-family="Helvetica,sans-Serif" font-size="10.00" fill="#000000">stddef.h</text>
</g>
<!-- Node5&#45;&gt;Node6 -->
<g id="edge6" class="edge">
<title>Node5&#45;&gt;Node6</title>
<path fill="none" stroke="#191970" d="M656.7393,-397.8693C732.4922,-386.0004 934.5,-348.8345 934.5,-290 934.5,-290 934.5,-290 934.5,-178 934.5,-141.3413 678.3273,-90.8706 579.6319,-72.7861"/>
<polygon fill="#191970" stroke="#191970" points="580.2287,-69.3373 569.7636,-70.9898 578.9751,-76.2242 580.2287,-69.3373"/>
</g>
<!-- Node7 -->
<g id="node8" class="node">
<title>Node7</title>
<g id="a_node8"><a xlink:href="architecture_8h.html" target="_top" xlink:title="Platform&#45;independent access to architecture details. ">
<polygon fill="#ffffff" stroke="#000000" points="811,-224.5 811,-243.5 894,-243.5 894,-224.5 811,-224.5"/>
<text text-anchor="middle" x="852.5" y="-231.5" font-family="Helvetica,sans-Serif" font-size="10.00" fill="#000000">architecture.h</text>
</a>
</g>
</g>
<!-- Node5&#45;&gt;Node7 -->
<g id="edge9" class="edge">
<title>Node5&#45;&gt;Node7</title>
<path fill="none" stroke="#191970" d="M656.5759,-398.585C687.4031,-393.6437 737.0868,-382.0503 771.5,-356 807.8276,-328.5005 832.9883,-279.7154 844.814,-252.9227"/>
<polygon fill="#191970" stroke="#191970" points="848.1213,-254.0891 848.8134,-243.5168 841.6794,-251.3499 848.1213,-254.0891"/>
</g>
<!-- Node5&#45;&gt;Node11 -->
<g id="edge14" class="edge">
<title>Node5&#45;&gt;Node11</title>
<path fill="none" stroke="#191970" d="M600.4839,-400.1613C519.5706,-394.6188 289.6247,-377.1474 263.5,-356 257.0676,-350.7931 222.0781,-242.6404 207.6868,-197.5114"/>
<polygon fill="#191970" stroke="#191970" points="210.9411,-196.1955 204.5747,-187.7268 204.2704,-198.3173 210.9411,-196.1955"/>
</g>
<!-- Node17 -->
<g id="node18" class="node">
<title>Node17</title>
<g id="a_node18"><a xlink:href="list_8h.html" target="_top" xlink:title="Intrusive linked list. ">
<polygon fill="#ffffff" stroke="#000000" points="437.5,-112.5 437.5,-131.5 475.5,-131.5 475.5,-112.5 437.5,-112.5"/>
<text text-anchor="middle" x="456.5" y="-119.5" font-family="Helvetica,sans-Serif" font-size="10.00" fill="#000000">list.h</text>
</a>
</g>
</g>
<!-- Node5&#45;&gt;Node17 -->
<g id="edge25" class="edge">
<title>Node5&#45;&gt;Node17</title>
<path fill="none" stroke="#191970" d="M600.3145,-397.5804C565.9923,-391.4677 506.8666,-378.5507 460.5,-356 416.2147,-334.4616 371.5,-339.2452 371.5,-290 371.5,-290 371.5,-290 371.5,-234 371.5,-192.7307 408.5727,-157.1225 433.7512,-137.6976"/>
<polygon fill="#191970" stroke="#191970" points="436.1344,-140.2877 442.0809,-131.519 431.9641,-134.6655 436.1344,-140.2877"/>
</g>
<!-- Node18 -->
<g id="node19" class="node">
<title>Node18</title>
<g id="a_node19"><a xlink:href="core_2include_2thread_8h.html" target="_top" xlink:title="Threading API. ">
<polygon fill="#ffffff" stroke="#000000" points="470,-336.5 470,-355.5 527,-355.5 527,-336.5 470,-336.5"/>
<text text-anchor="middle" x="498.5" y="-343.5" font-family="Helvetica,sans-Serif" font-size="10.00" fill="#000000">thread.h</text>
</a>
</g>
</g>
<!-- Node5&#45;&gt;Node18 -->
<g id="edge26" class="edge">
<title>Node5&#45;&gt;Node18</title>
<path fill="none" stroke="#191970" d="M606.1522,-392.3733C585.0967,-383.3032 553.3505,-369.6279 529.7825,-359.4755"/>
<polygon fill="#191970" stroke="#191970" points="531.125,-356.243 520.5562,-355.5011 528.3556,-362.6719 531.125,-356.243"/>
</g>
<!-- Node7&#45;&gt;Node4 -->
<g id="edge10" class="edge">
<title>Node7&#45;&gt;Node4</title>
<path fill="none" stroke="#191970" d="M873.2521,-224.4308C896.888,-212.1892 930.3108,-189.9363 914.5,-168 853.4645,-83.3178 519.186,-30.3035 407.7018,-14.7744"/>
<polygon fill="#191970" stroke="#191970" points="408.0087,-11.2838 397.6251,-13.3888 407.0551,-18.2185 408.0087,-11.2838"/>
</g>
<!-- Node8 -->
<g id="node9" class="node">
<title>Node8</title>
<g id="a_node9"><a xlink:href="inttypes_8h.html" target="_top" xlink:title="Adds include for missing inttype definitions. ">
<polygon fill="#ffffff" stroke="#000000" points="718,-168.5 718,-187.5 781,-187.5 781,-168.5 718,-168.5"/>
<text text-anchor="middle" x="749.5" y="-175.5" font-family="Helvetica,sans-Serif" font-size="10.00" fill="#000000">inttypes.h</text>
</a>
</g>
</g>
<!-- Node7&#45;&gt;Node8 -->
<g id="edge11" class="edge">
<title>Node7&#45;&gt;Node8</title>
<path fill="none" stroke="#191970" d="M834.5588,-224.2455C818.46,-215.4928 794.6121,-202.527 776.2609,-192.5496"/>
<polygon fill="#191970" stroke="#191970" points="777.6929,-189.3444 767.2356,-187.6427 774.3493,-195.4942 777.6929,-189.3444"/>
</g>
<!-- Node9 -->
<g id="node10" class="node">
<title>Node9</title>
<polygon fill="#ffffff" stroke="#bfbfbf" points="1038.5,-168.5 1038.5,-187.5 1088.5,-187.5 1088.5,-168.5 1038.5,-168.5"/>
<text text-anchor="middle" x="1063.5" y="-175.5" font-family="Helvetica,sans-Serif" font-size="10.00" fill="#000000">limits.h</text>
</g>
<!-- Node7&#45;&gt;Node9 -->
<g id="edge12" class="edge">
<title>Node7&#45;&gt;Node9</title>
<path fill="none" stroke="#191970" d="M888.7722,-224.3733C927.927,-213.9814 989.8593,-197.5445 1028.5086,-187.2868"/>
<polygon fill="#191970" stroke="#191970" points="1029.5118,-190.6418 1038.2793,-184.6936 1027.7161,-183.8761 1029.5118,-190.6418"/>
</g>
<!-- Node10 -->
<g id="node11" class="node">
<title>Node10</title>
<polygon fill="#ffffff" stroke="#bfbfbf" points="799,-168.5 799,-187.5 906,-187.5 906,-168.5 799,-168.5"/>
<text text-anchor="middle" x="852.5" y="-175.5" font-family="Helvetica,sans-Serif" font-size="10.00" fill="#000000">architecture_arch.h</text>
</g>
<!-- Node7&#45;&gt;Node10 -->
<g id="edge13" class="edge">
<title>Node7&#45;&gt;Node10</title>
<path fill="none" stroke="#191970" d="M852.5,-224.2455C852.5,-216.9382 852.5,-206.6944 852.5,-197.7046"/>
<polygon fill="#191970" stroke="#191970" points="856.0001,-197.6426 852.5,-187.6427 849.0001,-197.6427 856.0001,-197.6426"/>
</g>
<!-- Node12 -->
<g id="node13" class="node">
<title>Node12</title>
<g id="a_node13"><a xlink:href="modules_8h.html" target="_top" xlink:title="Common macros and compiler attributes/pragmas configuration. ">
<polygon fill="#ffffff" stroke="#000000" points="152,-112.5 152,-131.5 217,-131.5 217,-112.5 152,-112.5"/>
<text text-anchor="middle" x="184.5" y="-119.5" font-family="Helvetica,sans-Serif" font-size="10.00" fill="#000000">modules.h</text>
</a>
</g>
</g>
<!-- Node11&#45;&gt;Node12 -->
<g id="edge15" class="edge">
<title>Node11&#45;&gt;Node12</title>
<path fill="none" stroke="#191970" d="M198.5388,-168.2455C196.2962,-160.8579 193.1423,-150.4689 190.3919,-141.4087"/>
<polygon fill="#191970" stroke="#191970" points="193.6812,-140.1948 187.4272,-131.6427 186.983,-142.2282 193.6812,-140.1948"/>
</g>
<!-- Node13 -->
<g id="node14" class="node">
<title>Node13</title>
<g id="a_node14"><a xlink:href="riot__version_8h.html" target="_top" xlink:title="Common macros and compiler attributes/pragmas configuration. ">
<polygon fill="#ffffff" stroke="#000000" points="0,-56.5 0,-75.5 81,-75.5 81,-56.5 0,-56.5"/>
<text text-anchor="middle" x="40.5" y="-63.5" font-family="Helvetica,sans-Serif" font-size="10.00" fill="#000000">riot_version.h</text>
</a>
</g>
</g>
<!-- Node11&#45;&gt;Node13 -->
<g id="edge16" class="edge">
<title>Node11&#45;&gt;Node13</title>
<path fill="none" stroke="#191970" d="M153.9828,-171.6398C109.0562,-164.5367 46.3666,-151.4239 31.5,-132 21.3194,-118.6986 25.5402,-99.3207 31.125,-85.0005"/>
<polygon fill="#191970" stroke="#191970" points="34.4256,-86.1893 35.2462,-75.6263 28.0175,-83.3721 34.4256,-86.1893"/>
</g>
<!-- Node14 -->
<g id="node15" class="node">
<title>Node14</title>
<g id="a_node15"><a xlink:href="compiler__hints_8h.html" target="_top" xlink:title="Common macros and compiler attributes/pragmas configuration. ">
<polygon fill="#ffffff" stroke="#000000" points="41,-112.5 41,-131.5 134,-131.5 134,-112.5 41,-112.5"/>
<text text-anchor="middle" x="87.5" y="-119.5" font-family="Helvetica,sans-Serif" font-size="10.00" fill="#000000">compiler_hints.h</text>
</a>
</g>
</g>
<!-- Node11&#45;&gt;Node14 -->
<g id="edge18" class="edge">
<title>Node11&#45;&gt;Node14</title>
<path fill="none" stroke="#191970" d="M181.9027,-168.3733C163.7669,-159.4644 136.5865,-146.1127 116.0413,-136.0203"/>
<polygon fill="#191970" stroke="#191970" points="117.3603,-132.7688 106.8416,-131.5011 114.2739,-139.0517 117.3603,-132.7688"/>
</g>
<!-- Node16 -->
<g id="node17" class="node">
<title>Node16</title>
<g id="a_node17"><a xlink:href="container_8h.html" target="_top" xlink:title="Common macros and compiler attributes/pragmas configuration. ">
<polygon fill="#ffffff" stroke="#000000" points="274,-112.5 274,-131.5 343,-131.5 343,-112.5 274,-112.5"/>
<text text-anchor="middle" x="308.5" y="-119.5" font-family="Helvetica,sans-Serif" font-size="10.00" fill="#000000">container.h</text>
</a>
</g>
</g>
<!-- Node11&#45;&gt;Node16 -->
<g id="edge22" class="edge">
<title>Node11&#45;&gt;Node16</title>
<path fill="none" stroke="#191970" d="M220.138,-168.2455C236.9386,-159.4527 261.8634,-146.4079 280.9618,-136.4125"/>
<polygon fill="#191970" stroke="#191970" points="282.8386,-139.3807 290.0756,-131.6427 279.5927,-133.1787 282.8386,-139.3807"/>
</g>
<!-- Node13&#45;&gt;Node4 -->
<g id="edge17" class="edge">
<title>Node13&#45;&gt;Node4</title>
<path fill="none" stroke="#191970" d="M81.0871,-59.1333C146.1996,-48.1173 272.984,-26.6674 335.2392,-16.1348"/>
<polygon fill="#191970" stroke="#191970" points="336.0955,-19.5397 345.3715,-14.4205 334.9277,-12.6378 336.0955,-19.5397"/>
</g>
<!-- Node14&#45;&gt;Node4 -->
<g id="edge21" class="edge">
<title>Node14&#45;&gt;Node4</title>
<path fill="none" stroke="#191970" d="M102.7566,-112.321C125.3445,-98.3257 169.3476,-72.3306 209.5,-56 251.5922,-38.8805 302.2864,-25.5929 335.6229,-17.7944"/>
<polygon fill="#191970" stroke="#191970" points="336.4202,-21.2025 345.3827,-15.5523 334.8529,-14.3802 336.4202,-21.2025"/>
</g>
<!-- Node15 -->
<g id="node16" class="node">
<title>Node15</title>
<g id="a_node16"><a xlink:href="assert_8h.html" target="_top" xlink:title="POSIX.1&#45;2008 compliant version of the assert macro. ">
<polygon fill="#ffffff" stroke="#000000" points="218.5,-56.5 218.5,-75.5 272.5,-75.5 272.5,-56.5 218.5,-56.5"/>
<text text-anchor="middle" x="245.5" y="-63.5" font-family="Helvetica,sans-Serif" font-size="10.00" fill="#000000">assert.h</text>
</a>
</g>
</g>
<!-- Node14&#45;&gt;Node15 -->
<g id="edge19" class="edge">
<title>Node14&#45;&gt;Node15</title>
<path fill="none" stroke="#191970" d="M114.6612,-112.3733C140.7067,-103.1419 180.2116,-89.1402 208.9979,-78.9375"/>
<polygon fill="#191970" stroke="#191970" points="210.437,-82.1408 218.6933,-75.5011 208.0985,-75.5429 210.437,-82.1408"/>
</g>
<!-- Node15&#45;&gt;Node4 -->
<g id="edge20" class="edge">
<title>Node15&#45;&gt;Node4</title>
<path fill="none" stroke="#191970" d="M267.1602,-56.3733C287.4772,-47.3435 318.064,-33.7494 340.875,-23.6111"/>
<polygon fill="#191970" stroke="#191970" points="342.4059,-26.7609 350.1225,-19.5011 339.5628,-20.3642 342.4059,-26.7609"/>
</g>
<!-- Node16&#45;&gt;Node4 -->
<g id="edge24" class="edge">
<title>Node16&#45;&gt;Node4</title>
<path fill="none" stroke="#191970" d="M313.8713,-112.4509C324.3325,-93.8533 347.5983,-52.4919 361.152,-28.3964"/>
<polygon fill="#191970" stroke="#191970" points="364.2901,-29.9566 366.1423,-19.5249 358.1891,-26.5247 364.2901,-29.9566"/>
</g>
<!-- Node16&#45;&gt;Node6 -->
<g id="edge23" class="edge">
<title>Node16&#45;&gt;Node6</title>
<path fill="none" stroke="#191970" d="M343.1309,-113.6767C386.0583,-103.3594 458.9732,-85.8348 503.4326,-75.1492"/>
<polygon fill="#191970" stroke="#191970" points="504.3713,-78.5234 513.2765,-72.7833 502.7354,-71.7172 504.3713,-78.5234"/>
</g>
<!-- Node19 -->
<g id="node20" class="node">
<title>Node19</title>
<g id="a_node20"><a xlink:href="clist_8h.html" target="_top" xlink:title="Circular linked list. ">
<polygon fill="#ffffff" stroke="#000000" points="438,-168.5 438,-187.5 481,-187.5 481,-168.5 438,-168.5"/>
<text text-anchor="middle" x="459.5" y="-175.5" font-family="Helvetica,sans-Serif" font-size="10.00" fill="#000000">clist.h</text>
</a>
</g>
</g>
<!-- Node18&#45;&gt;Node19 -->
<g id="edge27" class="edge">
<title>Node18&#45;&gt;Node19</title>
<path fill="none" stroke="#191970" d="M487.4108,-336.3075C478.5312,-327.7656 466.7266,-314.4577 461.5,-300 449.0718,-265.6212 452.4906,-222.1535 456.0388,-197.4729"/>
<polygon fill="#191970" stroke="#191970" points="459.5018,-197.9819 457.6218,-187.5552 452.5893,-196.8786 459.5018,-197.9819"/>
</g>
<!-- Node20 -->
<g id="node21" class="node">
<title>Node20</title>
<g id="a_node21"><a xlink:href="cib_8h.html" target="_top" xlink:title="Circular integer buffer interface. ">
<polygon fill="#ffffff" stroke="#000000" points="305.5,-280.5 305.5,-299.5 343.5,-299.5 343.5,-280.5 305.5,-280.5"/>
<text text-anchor="middle" x="324.5" y="-287.5" font-family="Helvetica,sans-Serif" font-size="10.00" fill="#000000">cib.h</text>
</a>
</g>
</g>
<!-- Node18&#45;&gt;Node20 -->
<g id="edge31" class="edge">
<title>Node18&#45;&gt;Node20</title>
<path fill="none" stroke="#191970" d="M469.7674,-336.7527C437.5409,-326.381 385.5734,-309.6558 353.3137,-299.2734"/>
<polygon fill="#191970" stroke="#191970" points="354.1738,-295.8734 343.5823,-296.1414 352.0292,-302.5368 354.1738,-295.8734"/>
</g>
<!-- Node21 -->
<g id="node22" class="node">
<title>Node21</title>
<g id="a_node22"><a xlink:href="core_2include_2msg_8h.html" target="_top" xlink:title="Messaging API for inter process communication. ">
<polygon fill="#ffffff" stroke="#000000" points="476,-280.5 476,-299.5 521,-299.5 521,-280.5 476,-280.5"/>
<text text-anchor="middle" x="498.5" y="-287.5" font-family="Helvetica,sans-Serif" font-size="10.00" fill="#000000">msg.h</text>
</a>
</g>
</g>
<!-- Node18&#45;&gt;Node21 -->
<g id="edge33" class="edge">
<title>Node18&#45;&gt;Node21</title>
<path fill="none" stroke="#191970" d="M498.5,-336.2455C498.5,-328.9382 498.5,-318.6944 498.5,-309.7046"/>
<polygon fill="#191970" stroke="#191970" points="502.0001,-309.6426 498.5,-299.6427 495.0001,-309.6427 502.0001,-309.6426"/>
</g>
<!-- Node22 -->
<g id="node23" class="node">
<title>Node22</title>
<g id="a_node23"><a xlink:href="sched_8h.html" target="_top" xlink:title="Scheduler API definition. ">
<polygon fill="#ffffff" stroke="#000000" points="479,-224.5 479,-243.5 532,-243.5 532,-224.5 479,-224.5"/>
<text text-anchor="middle" x="505.5" y="-231.5" font-family="Helvetica,sans-Serif" font-size="10.00" fill="#000000">sched.h</text>
</a>
</g>
</g>
<!-- Node18&#45;&gt;Node22 -->
<g id="edge42" class="edge">
<title>Node18&#45;&gt;Node22</title>
<path fill="none" stroke="#191970" d="M488.4048,-336.426C476.3944,-323.8165 458.8687,-300.8017 466.5,-280 470.5568,-268.9418 478.5797,-258.7193 486.2994,-250.7335"/>
<polygon fill="#191970" stroke="#191970" points="488.9872,-253.0041 493.76,-243.5451 484.1302,-247.9632 488.9872,-253.0041"/>
</g>
<!-- Node24 -->
<g id="node25" class="node">
<title>Node24</title>
<g id="a_node25"><a xlink:href="thread__config_8h.html" target="_top" xlink:title="Thread configuration defines. ">
<polygon fill="#ffffff" stroke="#000000" points="639.5,-280.5 639.5,-299.5 729.5,-299.5 729.5,-280.5 639.5,-280.5"/>
<text text-anchor="middle" x="684.5" y="-287.5" font-family="Helvetica,sans-Serif" font-size="10.00" fill="#000000">thread_config.h</text>
</a>
</g>
</g>
<!-- Node18&#45;&gt;Node24 -->
<g id="edge43" class="edge">
<title>Node18&#45;&gt;Node24</title>
<path fill="none" stroke="#191970" d="M527.1549,-337.3727C558.0399,-328.074 607.4955,-313.1841 642.7132,-302.581"/>
<polygon fill="#191970" stroke="#191970" points="644.1284,-305.8102 652.6947,-299.5758 642.1103,-299.1074 644.1284,-305.8102"/>
</g>
<!-- Node26 -->
<g id="node27" class="node">
<title>Node26</title>
<polygon fill="#ffffff" stroke="#bfbfbf" points="539.5,-280.5 539.5,-299.5 621.5,-299.5 621.5,-280.5 539.5,-280.5"/>
<text text-anchor="middle" x="580.5" y="-287.5" font-family="Helvetica,sans-Serif" font-size="10.00" fill="#000000">thread_arch.h</text>
</g>
<!-- Node18&#45;&gt;Node26 -->
<g id="edge46" class="edge">
<title>Node18&#45;&gt;Node26</title>
<path fill="none" stroke="#191970" d="M512.7833,-336.2455C525.247,-327.7337 543.5451,-315.2375 557.9792,-305.3801"/>
<polygon fill="#191970" stroke="#191970" points="560.0962,-308.1726 566.3804,-299.6427 556.1485,-302.392 560.0962,-308.1726"/>
</g>
<!-- Node19&#45;&gt;Node3 -->
<g id="edge28" class="edge">
<title>Node19&#45;&gt;Node3</title>
<path fill="none" stroke="#191970" d="M481.1378,-172.7317C519.6617,-163.3519 600.674,-143.6272 649.558,-131.725"/>
<polygon fill="#191970" stroke="#191970" points="650.5867,-135.0769 659.4749,-129.3105 648.9307,-128.2756 650.5867,-135.0769"/>
</g>
<!-- Node19&#45;&gt;Node6 -->
<g id="edge29" class="edge">
<title>Node19&#45;&gt;Node6</title>
<path fill="none" stroke="#191970" d="M466.4913,-168.4509C480.2284,-149.688 510.9296,-107.7548 528.4986,-83.758"/>
<polygon fill="#191970" stroke="#191970" points="531.443,-85.6611 534.5264,-75.5249 525.795,-81.5259 531.443,-85.6611"/>
</g>
<!-- Node19&#45;&gt;Node17 -->
<g id="edge30" class="edge">
<title>Node19&#45;&gt;Node17</title>
<path fill="none" stroke="#191970" d="M458.9774,-168.2455C458.586,-160.9382 458.0372,-150.6944 457.5556,-141.7046"/>
<polygon fill="#191970" stroke="#191970" points="461.0466,-141.4411 457.0166,-131.6427 454.0566,-141.8156 461.0466,-141.4411"/>
</g>
<!-- Node20&#45;&gt;Node15 -->
<g id="edge32" class="edge">
<title>Node20&#45;&gt;Node15</title>
<path fill="none" stroke="#191970" d="M320.5688,-280.4809C310.5507,-256.0551 283.5135,-189.0666 264.5,-132 259.3765,-116.6223 254.3368,-98.9661 250.7366,-85.7871"/>
<polygon fill="#191970" stroke="#191970" points="254.0593,-84.6651 248.0808,-75.9182 247.2997,-86.4842 254.0593,-84.6651"/>
</g>
<!-- Node21&#45;&gt;Node3 -->
<g id="edge35" class="edge">
<title>Node21&#45;&gt;Node3</title>
<path fill="none" stroke="#191970" d="M512.9582,-280.4746C538.3883,-263.4074 592.2397,-225.8486 632.5,-188 648.6069,-172.858 664.8834,-153.5176 675.8962,-139.6943"/>
<polygon fill="#191970" stroke="#191970" points="678.9005,-141.5351 682.3183,-131.5067 673.3927,-137.2149 678.9005,-141.5351"/>
</g>
<!-- Node21&#45;&gt;Node4 -->
<g id="edge34" class="edge">
<title>Node21&#45;&gt;Node4</title>
<path fill="none" stroke="#191970" d="M490.5218,-280.4635C476.3186,-263.08 446.458,-224.643 428.5,-188 424.8887,-180.6312 391.3842,-73.7337 377.4916,-29.2262"/>
<polygon fill="#191970" stroke="#191970" points="380.8018,-28.0844 374.4829,-19.5802 374.1194,-30.1688 380.8018,-28.0844"/>
</g>
<!-- Node21&#45;&gt;Node22 -->
<g id="edge36" class="edge">
<title>Node21&#45;&gt;Node22</title>
<path fill="none" stroke="#191970" d="M499.7193,-280.2455C500.6327,-272.9382 501.9132,-262.6944 503.0369,-253.7046"/>
<polygon fill="#191970" stroke="#191970" points="506.5272,-253.9996 504.2947,-243.6427 499.5813,-253.1313 506.5272,-253.9996"/>
</g>
<!-- Node22&#45;&gt;Node6 -->
<g id="edge37" class="edge">
<title>Node22&#45;&gt;Node6</title>
<path fill="none" stroke="#191970" d="M507.5387,-224.4862C513.2541,-197.8144 529.5189,-121.9117 537.2796,-85.695"/>
<polygon fill="#191970" stroke="#191970" points="540.721,-86.3393 539.394,-75.8279 533.8763,-84.8725 540.721,-86.3393"/>
</g>
<!-- Node22&#45;&gt;Node8 -->
<g id="edge38" class="edge">
<title>Node22&#45;&gt;Node8</title>
<path fill="none" stroke="#191970" d="M532.0768,-227.9004C574.4849,-218.1674 657.7908,-199.048 708.0717,-187.5081"/>
<polygon fill="#191970" stroke="#191970" points="709.0057,-190.8848 717.9694,-185.2365 707.4398,-184.0622 709.0057,-190.8848"/>
</g>
<!-- Node22&#45;&gt;Node11 -->
<g id="edge39" class="edge">
<title>Node22&#45;&gt;Node11</title>
<path fill="none" stroke="#191970" d="M478.7885,-229.0795C429.9659,-220.0858 325.2979,-200.8049 259.4418,-188.6735"/>
<polygon fill="#191970" stroke="#191970" points="259.6886,-185.1601 249.22,-186.7905 258.4205,-192.0443 259.6886,-185.1601"/>
</g>
<!-- Node22&#45;&gt;Node19 -->
<g id="edge41" class="edge">
<title>Node22&#45;&gt;Node19</title>
<path fill="none" stroke="#191970" d="M497.4874,-224.2455C491.0232,-216.3761 481.7615,-205.101 474.0017,-195.6542"/>
<polygon fill="#191970" stroke="#191970" points="476.4727,-193.1484 467.4208,-187.6427 471.0636,-197.5916 476.4727,-193.1484"/>
</g>
<!-- Node23 -->
<g id="node24" class="node">
<title>Node23</title>
<g id="a_node24"><a xlink:href="native__sched_8h.html" target="_top" xlink:title="Add definitions required on the native board. ">
<polygon fill="#ffffff" stroke="#000000" points="537.5,-168.5 537.5,-187.5 623.5,-187.5 623.5,-168.5 537.5,-168.5"/>
<text text-anchor="middle" x="580.5" y="-175.5" font-family="Helvetica,sans-Serif" font-size="10.00" fill="#000000">native_sched.h</text>
</a>
</g>
</g>
<!-- Node22&#45;&gt;Node23 -->
<g id="edge40" class="edge">
<title>Node22&#45;&gt;Node23</title>
<path fill="none" stroke="#191970" d="M518.564,-224.2455C529.8562,-215.814 546.3845,-203.4729 559.5271,-193.6598"/>
<polygon fill="#191970" stroke="#191970" points="561.6669,-196.4301 567.5857,-187.6427 557.4789,-190.8211 561.6669,-196.4301"/>
</g>
<!-- Node24&#45;&gt;Node22 -->
<g id="edge45" class="edge">
<title>Node24&#45;&gt;Node22</title>
<path fill="none" stroke="#191970" d="M653.7288,-280.3733C622.6573,-270.6526 574.6781,-255.6423 541.7738,-245.3482"/>
<polygon fill="#191970" stroke="#191970" points="542.6704,-241.9615 532.0815,-242.316 540.5803,-248.6422 542.6704,-241.9615"/>
</g>
<!-- Node25 -->
<g id="node26" class="node">
<title>Node25</title>
<polygon fill="#ffffff" stroke="#bfbfbf" points="662,-224.5 662,-243.5 729,-243.5 729,-224.5 662,-224.5"/>
<text text-anchor="middle" x="695.5" y="-231.5" font-family="Helvetica,sans-Serif" font-size="10.00" fill="#000000">cpu_conf.h</text>
</g>
<!-- Node24&#45;&gt;Node25 -->
<g id="edge44" class="edge">
<title>Node24&#45;&gt;Node25</title>
<path fill="none" stroke="#191970" d="M686.4161,-280.2455C687.8514,-272.9382 689.8636,-262.6944 691.6295,-253.7046"/>
<polygon fill="#191970" stroke="#191970" points="695.1127,-254.1298 693.6059,-243.6427 688.244,-252.7805 695.1127,-254.1298"/>
</g>
<!-- Node27&#45;&gt;Node3 -->
<g id="edge49" class="edge">
<title>Node27&#45;&gt;Node3</title>
<path fill="none" stroke="#191970" d="M1116.8108,-224.1541C1116.6877,-209.4541 1114.0786,-182.0032 1097.5,-168 1069.7187,-144.5343 826.9801,-129.25 729.6332,-124.0142"/>
<polygon fill="#191970" stroke="#191970" points="729.7598,-120.5161 719.5886,-123.482 729.3893,-127.5063 729.7598,-120.5161"/>
</g>
<!-- Node27&#45;&gt;Node9 -->
<g id="edge48" class="edge">
<title>Node27&#45;&gt;Node9</title>
<path fill="none" stroke="#191970" d="M1107.2681,-224.2455C1099.6683,-216.2155 1088.7123,-204.6394 1079.6632,-195.0781"/>
<polygon fill="#191970" stroke="#191970" points="1082.042,-192.4998 1072.6261,-187.6427 1076.9579,-197.3115 1082.042,-192.4998"/>
</g>
<!-- Node28 -->
<g id="node29" class="node">
<title>Node28</title>
<polygon fill="#ffffff" stroke="#bfbfbf" points="1145,-168.5 1145,-187.5 1222,-187.5 1222,-168.5 1145,-168.5"/>
<text text-anchor="middle" x="1183.5" y="-175.5" font-family="Helvetica,sans-Serif" font-size="10.00" fill="#000000">periph_cpu.h</text>
</g>
<!-- Node27&#45;&gt;Node28 -->
<g id="edge50" class="edge">
<title>Node27&#45;&gt;Node28</title>
<path fill="none" stroke="#191970" d="M1128.1705,-224.2455C1138.0661,-215.9746 1152.4627,-203.9416 1164.0901,-194.2232"/>
<polygon fill="#191970" stroke="#191970" points="1166.535,-196.7413 1171.9632,-187.6427 1162.0458,-191.3703 1166.535,-196.7413"/>
</g>
<!-- Node29 -->
<g id="node30" class="node">
<title>Node29</title>
<polygon fill="#ffffff" stroke="#bfbfbf" points="1240,-168.5 1240,-187.5 1321,-187.5 1321,-168.5 1240,-168.5"/>
<text text-anchor="middle" x="1280.5" y="-175.5" font-family="Helvetica,sans-Serif" font-size="10.00" fill="#000000">periph_conf.h</text>
</g>
<!-- Node27&#45;&gt;Node29 -->
<g id="edge51" class="edge">
<title>Node27&#45;&gt;Node29</title>
<path fill="none" stroke="#191970" d="M1144.6926,-224.3733C1171.8453,-215.1016 1213.0907,-201.0178 1243.0025,-190.804"/>
<polygon fill="#191970" stroke="#191970" points="1244.3428,-194.0449 1252.6753,-187.5011 1242.0808,-187.4204 1244.3428,-194.0449"/>
</g>
<!-- Node30&#45;&gt;Node4 -->
<g id="edge56" class="edge">
<title>Node30&#45;&gt;Node4</title>
<path fill="none" stroke="#191970" d="M1320.5426,-231.3932C1378.4522,-226.1167 1475.0643,-210.7671 1440.5,-168 1373.6895,-85.3342 587.4505,-25.2103 407.867,-12.499"/>
<polygon fill="#191970" stroke="#191970" points="407.8528,-8.9894 397.632,-11.7795 407.3619,-15.9722 407.8528,-8.9894"/>
</g>
<!-- Node30&#45;&gt;Node6 -->
<g id="edge55" class="edge">
<title>Node30&#45;&gt;Node6</title>
<path fill="none" stroke="#191970" d="M1296.9429,-224.3008C1317.2058,-211.16 1347.0418,-187.1435 1330.5,-168 1280.7288,-110.4006 731.5499,-76.3625 580.0219,-68.0215"/>
<polygon fill="#191970" stroke="#191970" points="579.987,-64.5145 569.8114,-67.4654 579.6062,-71.5041 579.987,-64.5145"/>
</g>
<!-- Node30&#45;&gt;Node9 -->
<g id="edge54" class="edge">
<title>Node30&#45;&gt;Node9</title>
<path fill="none" stroke="#191970" d="M1243.1964,-224.3733C1202.6195,-213.9018 1138.2571,-197.2922 1098.5767,-187.0521"/>
<polygon fill="#191970" stroke="#191970" points="1099.3647,-183.6408 1088.8074,-184.5309 1097.6155,-190.4188 1099.3647,-183.6408"/>
</g>
<!-- Node30&#45;&gt;Node28 -->
<g id="edge57" class="edge">
<title>Node30&#45;&gt;Node28</title>
<path fill="none" stroke="#191970" d="M1263.6039,-224.2455C1248.582,-215.5731 1226.3957,-202.7645 1209.179,-192.825"/>
<polygon fill="#191970" stroke="#191970" points="1210.6128,-189.6114 1200.2025,-187.6427 1207.1129,-195.6737 1210.6128,-189.6114"/>
</g>
<!-- Node30&#45;&gt;Node29 -->
<g id="edge58" class="edge">
<title>Node30&#45;&gt;Node29</title>
<path fill="none" stroke="#191970" d="M1280.5,-224.2455C1280.5,-216.9382 1280.5,-206.6944 1280.5,-197.7046"/>
<polygon fill="#191970" stroke="#191970" points="1284.0001,-197.6426 1280.5,-187.6427 1277.0001,-197.6427 1284.0001,-197.6426"/>
</g>
<!-- Node31 -->
<g id="node32" class="node">
<title>Node31</title>
<g id="a_node32"><a xlink:href="errno_8h.html" target="_top" xlink:title="errno.h">
<polygon fill="#ffffff" stroke="#000000" points="1378,-168.5 1378,-187.5 1431,-187.5 1431,-168.5 1378,-168.5"/>
<text text-anchor="middle" x="1404.5" y="-175.5" font-family="Helvetica,sans-Serif" font-size="10.00" fill="#000000">errno.h</text>
</a>
</g>
</g>
<!-- Node30&#45;&gt;Node31 -->
<g id="edge53" class="edge">
<title>Node30&#45;&gt;Node31</title>
<path fill="none" stroke="#191970" d="M1301.8164,-224.3733C1321.7216,-215.3838 1351.6436,-201.8706 1374.06,-191.7471"/>
<polygon fill="#191970" stroke="#191970" points="1375.7887,-194.8068 1383.4618,-187.5011 1372.9075,-188.4272 1375.7887,-194.8068"/>
</g>
</g>
</svg>
