<?xml version="1.0" encoding="UTF-8" standalone="no"?>
<!DOCTYPE svg PUBLIC "-//W3C//DTD SVG 1.1//EN"
 "http://www.w3.org/Graphics/SVG/1.1/DTD/svg11.dtd">
<!-- Generated by graphviz version 2.40.1 (0)
 -->
<!-- Title: drivers/dht/include/dht_params.h Pages: 1 -->
<svg width="651pt" height="207pt"
 viewBox="0.00 0.00 651.00 207.00" xmlns="http://www.w3.org/2000/svg" xmlns:xlink="http://www.w3.org/1999/xlink">
<g id="graph0" class="graph" transform="scale(1 1) rotate(0) translate(4 203)">
<title>drivers/dht/include/dht_params.h</title>
<polygon fill="#ffffff" stroke="transparent" points="-4,4 -4,-203 647,-203 647,4 -4,4"/>
<!-- Node0 -->
<g id="node1" class="node">
<title>Node0</title>
<polygon fill="#bfbfbf" stroke="#000000" points="229.5,-168.5 229.5,-198.5 335.5,-198.5 335.5,-168.5 229.5,-168.5"/>
<text text-anchor="start" x="237.5" y="-186.5" font-family="Helvetica,sans-Serif" font-size="10.00" fill="#000000">drivers/dht/include</text>
<text text-anchor="middle" x="282.5" y="-175.5" font-family="Helvetica,sans-Serif" font-size="10.00" fill="#000000">/dht_params.h</text>
</g>
<!-- Node1 -->
<g id="node2" class="node">
<title>Node1</title>
<polygon fill="#ffffff" stroke="#bfbfbf" points="191,-112.5 191,-131.5 244,-131.5 244,-112.5 191,-112.5"/>
<text text-anchor="middle" x="217.5" y="-119.5" font-family="Helvetica,sans-Serif" font-size="10.00" fill="#000000">board.h</text>
</g>
<!-- Node0&#45;&gt;Node1 -->
<g id="edge1" class="edge">
<title>Node0&#45;&gt;Node1</title>
<path fill="none" stroke="#191970" d="M266.4326,-168.2977C257.034,-159.4052 245.1473,-148.1586 235.443,-138.9769"/>
<polygon fill="#191970" stroke="#191970" points="237.5768,-136.1774 227.9073,-131.8469 232.7658,-141.2621 237.5768,-136.1774"/>
</g>
<!-- Node2 -->
<g id="node3" class="node">
<title>Node2</title>
<g id="a_node3"><a xlink:href="dht_8h.html" target="_top" xlink:title="Device driver interface for the DHT family of humidity and temperature sensors. ">
<polygon fill="#ffffff" stroke="#000000" points="262,-112.5 262,-131.5 303,-131.5 303,-112.5 262,-112.5"/>
<text text-anchor="middle" x="282.5" y="-119.5" font-family="Helvetica,sans-Serif" font-size="10.00" fill="#000000">dht.h</text>
</a>
</g>
</g>
<!-- Node0&#45;&gt;Node2 -->
<g id="edge2" class="edge">
<title>Node0&#45;&gt;Node2</title>
<path fill="none" stroke="#191970" d="M282.5,-168.2977C282.5,-160.3834 282.5,-150.6043 282.5,-142.0759"/>
<polygon fill="#191970" stroke="#191970" points="286.0001,-141.8469 282.5,-131.8469 279.0001,-141.847 286.0001,-141.8469"/>
</g>
<!-- Node10 -->
<g id="node11" class="node">
<title>Node10</title>
<g id="a_node11"><a xlink:href="saul__reg_8h.html" target="_top" xlink:title="SAUL registry interface definition. ">
<polygon fill="#ffffff" stroke="#000000" points="366,-112.5 366,-131.5 431,-131.5 431,-112.5 366,-112.5"/>
<text text-anchor="middle" x="398.5" y="-119.5" font-family="Helvetica,sans-Serif" font-size="10.00" fill="#000000">saul_reg.h</text>
</a>
</g>
</g>
<!-- Node0&#45;&gt;Node10 -->
<g id="edge10" class="edge">
<title>Node0&#45;&gt;Node10</title>
<path fill="none" stroke="#191970" d="M310.8768,-168.4554C329.3828,-158.644 353.3888,-145.9167 371.5931,-136.2653"/>
<polygon fill="#191970" stroke="#191970" points="373.3285,-139.3068 380.5241,-131.5303 370.0495,-133.1222 373.3285,-139.3068"/>
</g>
<!-- Node3 -->
<g id="node4" class="node">
<title>Node3</title>
<g id="a_node4"><a xlink:href="errno_8h.html" target="_top" xlink:title="errno.h">
<polygon fill="#ffffff" stroke="#000000" points="292,-56.5 292,-75.5 345,-75.5 345,-56.5 292,-56.5"/>
<text text-anchor="middle" x="318.5" y="-63.5" font-family="Helvetica,sans-Serif" font-size="10.00" fill="#000000">errno.h</text>
</a>
</g>
</g>
<!-- Node2&#45;&gt;Node3 -->
<g id="edge3" class="edge">
<title>Node2&#45;&gt;Node3</title>
<path fill="none" stroke="#191970" d="M288.7707,-112.2455C293.7264,-104.5367 300.783,-93.5598 306.7776,-84.2348"/>
<polygon fill="#191970" stroke="#191970" points="309.8376,-85.9471 312.3011,-75.6427 303.9494,-82.1618 309.8376,-85.9471"/>
</g>
<!-- Node4 -->
<g id="node5" class="node">
<title>Node4</title>
<polygon fill="#ffffff" stroke="#bfbfbf" points="345.5,-.5 345.5,-19.5 397.5,-19.5 397.5,-.5 345.5,-.5"/>
<text text-anchor="middle" x="371.5" y="-7.5" font-family="Helvetica,sans-Serif" font-size="10.00" fill="#000000">stdint.h</text>
</g>
<!-- Node2&#45;&gt;Node4 -->
<g id="edge4" class="edge">
<title>Node2&#45;&gt;Node4</title>
<path fill="none" stroke="#191970" d="M279.5461,-112.2043C276.0368,-98.5243 271.8937,-73.4211 282.5,-56 294.0534,-37.0232 316.2351,-25.5315 335.5625,-18.7799"/>
<polygon fill="#191970" stroke="#191970" points="336.8716,-22.0363 345.3379,-15.6667 334.7474,-15.3663 336.8716,-22.0363"/>
</g>
<!-- Node5 -->
<g id="node6" class="node">
<title>Node5</title>
<g id="a_node6"><a xlink:href="drivers_2include_2periph_2gpio_8h.html" target="_top" xlink:title="Low&#45;level GPIO peripheral driver interface definitions. ">
<polygon fill="#ffffff" stroke="#000000" points="155.5,-56.5 155.5,-75.5 235.5,-75.5 235.5,-56.5 155.5,-56.5"/>
<text text-anchor="middle" x="195.5" y="-63.5" font-family="Helvetica,sans-Serif" font-size="10.00" fill="#000000">periph/gpio.h</text>
</a>
</g>
</g>
<!-- Node2&#45;&gt;Node5 -->
<g id="edge5" class="edge">
<title>Node2&#45;&gt;Node5</title>
<path fill="none" stroke="#191970" d="M267.3458,-112.2455C253.9973,-103.6534 234.3414,-91.0014 218.9617,-81.1018"/>
<polygon fill="#191970" stroke="#191970" points="220.7836,-78.1121 210.4806,-75.6427 216.9949,-83.9982 220.7836,-78.1121"/>
</g>
<!-- Node6 -->
<g id="node7" class="node">
<title>Node6</title>
<polygon fill="#ffffff" stroke="#bfbfbf" points="99.5,-.5 99.5,-19.5 149.5,-19.5 149.5,-.5 99.5,-.5"/>
<text text-anchor="middle" x="124.5" y="-7.5" font-family="Helvetica,sans-Serif" font-size="10.00" fill="#000000">limits.h</text>
</g>
<!-- Node5&#45;&gt;Node6 -->
<g id="edge6" class="edge">
<title>Node5&#45;&gt;Node6</title>
<path fill="none" stroke="#191970" d="M183.1327,-56.2455C172.5446,-47.8943 157.0936,-35.7076 144.7107,-25.9408"/>
<polygon fill="#191970" stroke="#191970" points="146.7447,-23.0875 136.7255,-19.6427 142.4097,-28.5837 146.7447,-23.0875"/>
</g>
<!-- Node7 -->
<g id="node8" class="node">
<title>Node7</title>
<polygon fill="#ffffff" stroke="#bfbfbf" points="167.5,-.5 167.5,-19.5 227.5,-19.5 227.5,-.5 167.5,-.5"/>
<text text-anchor="middle" x="197.5" y="-7.5" font-family="Helvetica,sans-Serif" font-size="10.00" fill="#000000">stdbool.h</text>
</g>
<!-- Node5&#45;&gt;Node7 -->
<g id="edge7" class="edge">
<title>Node5&#45;&gt;Node7</title>
<path fill="none" stroke="#191970" d="M195.8484,-56.2455C196.1093,-48.9382 196.4752,-38.6944 196.7963,-29.7046"/>
<polygon fill="#191970" stroke="#191970" points="200.2964,-29.7613 197.1556,-19.6427 193.3008,-29.5113 200.2964,-29.7613"/>
</g>
<!-- Node8 -->
<g id="node9" class="node">
<title>Node8</title>
<polygon fill="#ffffff" stroke="#bfbfbf" points="246,-.5 246,-19.5 323,-19.5 323,-.5 246,-.5"/>
<text text-anchor="middle" x="284.5" y="-7.5" font-family="Helvetica,sans-Serif" font-size="10.00" fill="#000000">periph_cpu.h</text>
</g>
<!-- Node5&#45;&gt;Node8 -->
<g id="edge8" class="edge">
<title>Node5&#45;&gt;Node8</title>
<path fill="none" stroke="#191970" d="M211.0026,-56.2455C224.658,-47.6534 244.7657,-35.0014 260.4989,-25.1018"/>
<polygon fill="#191970" stroke="#191970" points="262.5751,-27.9307 269.175,-19.6427 258.8471,-22.006 262.5751,-27.9307"/>
</g>
<!-- Node9 -->
<g id="node10" class="node">
<title>Node9</title>
<polygon fill="#ffffff" stroke="#bfbfbf" points="0,-.5 0,-19.5 81,-19.5 81,-.5 0,-.5"/>
<text text-anchor="middle" x="40.5" y="-7.5" font-family="Helvetica,sans-Serif" font-size="10.00" fill="#000000">periph_conf.h</text>
</g>
<!-- Node5&#45;&gt;Node9 -->
<g id="edge9" class="edge">
<title>Node5&#45;&gt;Node9</title>
<path fill="none" stroke="#191970" d="M168.8546,-56.3733C143.3036,-47.1419 104.5488,-33.1402 76.3091,-22.9375"/>
<polygon fill="#191970" stroke="#191970" points="77.3921,-19.6074 66.7978,-19.5011 75.0135,-26.1909 77.3921,-19.6074"/>
</g>
<!-- Node10&#45;&gt;Node4 -->
<g id="edge11" class="edge">
<title>Node10&#45;&gt;Node4</title>
<path fill="none" stroke="#191970" d="M396.198,-112.4509C391.7744,-94.1013 382.0085,-53.5908 376.1694,-29.3693"/>
<polygon fill="#191970" stroke="#191970" points="379.5424,-28.4261 373.7962,-19.5249 372.7373,-30.0667 379.5424,-28.4261"/>
</g>
<!-- Node11 -->
<g id="node12" class="node">
<title>Node11</title>
<polygon fill="#ffffff" stroke="#bfbfbf" points="401.5,-56.5 401.5,-75.5 445.5,-75.5 445.5,-56.5 401.5,-56.5"/>
<text text-anchor="middle" x="423.5" y="-63.5" font-family="Helvetica,sans-Serif" font-size="10.00" fill="#000000">saul.h</text>
</g>
<!-- Node10&#45;&gt;Node11 -->
<g id="edge12" class="edge">
<title>Node10&#45;&gt;Node11</title>
<path fill="none" stroke="#191970" d="M402.8547,-112.2455C406.2244,-104.6973 410.993,-94.0158 415.0983,-84.8197"/>
<polygon fill="#191970" stroke="#191970" points="418.3147,-86.2009 419.1952,-75.6427 411.9227,-83.3473 418.3147,-86.2009"/>
</g>
<!-- Node12 -->
<g id="node13" class="node">
<title>Node12</title>
<g id="a_node13"><a xlink:href="phydat_8h.html" target="_top" xlink:title="Generic data container for physical data interface. ">
<polygon fill="#ffffff" stroke="#000000" points="463.5,-56.5 463.5,-75.5 521.5,-75.5 521.5,-56.5 463.5,-56.5"/>
<text text-anchor="middle" x="492.5" y="-63.5" font-family="Helvetica,sans-Serif" font-size="10.00" fill="#000000">phydat.h</text>
</a>
</g>
</g>
<!-- Node10&#45;&gt;Node12 -->
<g id="edge13" class="edge">
<title>Node10&#45;&gt;Node12</title>
<path fill="none" stroke="#191970" d="M414.8736,-112.2455C429.4308,-103.5731 450.931,-90.7645 467.6152,-80.825"/>
<polygon fill="#191970" stroke="#191970" points="469.5144,-83.7676 476.3141,-75.6427 465.9317,-77.7539 469.5144,-83.7676"/>
</g>
<!-- Node12&#45;&gt;Node4 -->
<g id="edge15" class="edge">
<title>Node12&#45;&gt;Node4</title>
<path fill="none" stroke="#191970" d="M471.6994,-56.3733C452.2757,-47.3838 423.0776,-33.8706 401.2036,-23.7471"/>
<polygon fill="#191970" stroke="#191970" points="402.5745,-20.5249 392.0292,-19.5011 399.6344,-26.8776 402.5745,-20.5249"/>
</g>
<!-- Node13 -->
<g id="node14" class="node">
<title>Node13</title>
<polygon fill="#ffffff" stroke="#bfbfbf" points="499.5,-.5 499.5,-19.5 555.5,-19.5 555.5,-.5 499.5,-.5"/>
<text text-anchor="middle" x="527.5" y="-7.5" font-family="Helvetica,sans-Serif" font-size="10.00" fill="#000000">stddef.h</text>
</g>
<!-- Node12&#45;&gt;Node13 -->
<g id="edge14" class="edge">
<title>Node12&#45;&gt;Node13</title>
<path fill="none" stroke="#191970" d="M498.5965,-56.2455C503.4145,-48.5367 510.2751,-37.5598 516.1032,-28.2348"/>
<polygon fill="#191970" stroke="#191970" points="519.1413,-29.9777 521.4733,-19.6427 513.2053,-26.2677 519.1413,-29.9777"/>
</g>
<!-- Node14 -->
<g id="node15" class="node">
<title>Node14</title>
<polygon fill="#ffffff" stroke="#bfbfbf" points="574,-.5 574,-19.5 643,-19.5 643,-.5 574,-.5"/>
<text text-anchor="middle" x="608.5" y="-7.5" font-family="Helvetica,sans-Serif" font-size="10.00" fill="#000000">sys/types.h</text>
</g>
<!-- Node12&#45;&gt;Node14 -->
<g id="edge16" class="edge">
<title>Node12&#45;&gt;Node14</title>
<path fill="none" stroke="#191970" d="M512.4411,-56.3733C530.9786,-47.4241 558.8028,-33.9917 579.7413,-23.8835"/>
<polygon fill="#191970" stroke="#191970" points="581.3352,-27.0006 588.8191,-19.5011 578.2919,-20.6967 581.3352,-27.0006"/>
</g>
<!-- Node15 -->
<g id="node16" class="node">
<title>Node15</title>
<g id="a_node16"><a xlink:href="modules_8h.html" target="_top" xlink:title="Common macros and compiler attributes/pragmas configuration. ">
<polygon fill="#ffffff" stroke="#000000" points="416,-.5 416,-19.5 481,-19.5 481,-.5 416,-.5"/>
<text text-anchor="middle" x="448.5" y="-7.5" font-family="Helvetica,sans-Serif" font-size="10.00" fill="#000000">modules.h</text>
</a>
</g>
</g>
<!-- Node12&#45;&gt;Node15 -->
<g id="edge17" class="edge">
<title>Node12&#45;&gt;Node15</title>
<path fill="none" stroke="#191970" d="M484.8358,-56.2455C478.6527,-48.3761 469.7937,-37.101 462.3711,-27.6542"/>
<polygon fill="#191970" stroke="#191970" points="465.0068,-25.3435 456.0764,-19.6427 459.5025,-29.6683 465.0068,-25.3435"/>
</g>
</g>
</svg>
