<?xml version="1.0" encoding="UTF-8" standalone="no"?>
<!DOCTYPE svg PUBLIC "-//W3C//DTD SVG 1.1//EN"
 "http://www.w3.org/Graphics/SVG/1.1/DTD/svg11.dtd">
<!-- Generated by graphviz version 2.40.1 (0)
 -->
<!-- Title: pkg/uwb&#45;core/include/dpl/dpl_types.h Pages: 1 -->
<svg width="190pt" height="151pt"
 viewBox="0.00 0.00 190.00 151.00" xmlns="http://www.w3.org/2000/svg" xmlns:xlink="http://www.w3.org/1999/xlink">
<g id="graph0" class="graph" transform="scale(1 1) rotate(0) translate(4 147)">
<title>pkg/uwb&#45;core/include/dpl/dpl_types.h</title>
<polygon fill="#ffffff" stroke="transparent" points="-4,4 -4,-147 186,-147 186,4 -4,4"/>
<!-- Node0 -->
<g id="node1" class="node">
<title>Node0</title>
<polygon fill="#bfbfbf" stroke="#000000" points="0,-112.5 0,-142.5 118,-142.5 118,-112.5 0,-112.5"/>
<text text-anchor="start" x="8" y="-130.5" font-family="Helvetica,sans-Serif" font-size="10.00" fill="#000000">pkg/uwb&#45;core/include</text>
<text text-anchor="middle" x="59" y="-119.5" font-family="Helvetica,sans-Serif" font-size="10.00" fill="#000000">/dpl/dpl_types.h</text>
</g>
<!-- Node1 -->
<g id="node2" class="node">
<title>Node1</title>
<polygon fill="#ffffff" stroke="#bfbfbf" points="48,-.5 48,-19.5 100,-19.5 100,-.5 48,-.5"/>
<text text-anchor="middle" x="74" y="-7.5" font-family="Helvetica,sans-Serif" font-size="10.00" fill="#000000">stdint.h</text>
</g>
<!-- Node0&#45;&gt;Node1 -->
<g id="edge1" class="edge">
<title>Node0&#45;&gt;Node1</title>
<path fill="none" stroke="#191970" d="M43.5902,-112.3014C30.9713,-97.9243 16.4827,-75.6783 25,-56 30.2337,-43.9081 40.3842,-33.5335 50.0955,-25.7139"/>
<polygon fill="#191970" stroke="#191970" points="52.4671,-28.3109 58.382,-19.5209 48.2766,-22.7038 52.4671,-28.3109"/>
</g>
<!-- Node2 -->
<g id="node3" class="node">
<title>Node2</title>
<g id="a_node3"><a xlink:href="math_8h.html" target="_top" xlink:title="Math helper macros. ">
<polygon fill="#ffffff" stroke="#000000" points="34,-56.5 34,-75.5 84,-75.5 84,-56.5 34,-56.5"/>
<text text-anchor="middle" x="59" y="-63.5" font-family="Helvetica,sans-Serif" font-size="10.00" fill="#000000">math.h</text>
</a>
</g>
</g>
<!-- Node0&#45;&gt;Node2 -->
<g id="edge2" class="edge">
<title>Node0&#45;&gt;Node2</title>
<path fill="none" stroke="#191970" d="M59,-112.2977C59,-104.3834 59,-94.6043 59,-86.0759"/>
<polygon fill="#191970" stroke="#191970" points="62.5001,-85.8469 59,-75.8469 55.5001,-85.847 62.5001,-85.8469"/>
</g>
<!-- Node3 -->
<g id="node4" class="node">
<title>Node3</title>
<g id="a_node4"><a xlink:href="os__types_8h.html" target="_top" xlink:title="mynewt&#45;core types ">
<polygon fill="#ffffff" stroke="#000000" points="102,-56.5 102,-75.5 182,-75.5 182,-56.5 102,-56.5"/>
<text text-anchor="middle" x="142" y="-63.5" font-family="Helvetica,sans-Serif" font-size="10.00" fill="#000000">os/os_types.h</text>
</a>
</g>
</g>
<!-- Node0&#45;&gt;Node3 -->
<g id="edge3" class="edge">
<title>Node0&#45;&gt;Node3</title>
<path fill="none" stroke="#191970" d="M79.5169,-112.2977C91.9982,-103.0495 107.9159,-91.2551 120.5614,-81.8853"/>
<polygon fill="#191970" stroke="#191970" points="122.7596,-84.6126 128.7106,-75.8469 118.5922,-78.9882 122.7596,-84.6126"/>
</g>
<!-- Node3&#45;&gt;Node1 -->
<g id="edge4" class="edge">
<title>Node3&#45;&gt;Node1</title>
<path fill="none" stroke="#191970" d="M130.1553,-56.2455C120.112,-47.9746 105.5005,-35.9416 93.6996,-26.2232"/>
<polygon fill="#191970" stroke="#191970" points="95.6533,-23.298 85.709,-19.6427 91.2033,-28.7015 95.6533,-23.298"/>
</g>
</g>
</svg>
