<?xml version="1.0" encoding="UTF-8" standalone="no"?>
<!DOCTYPE svg PUBLIC "-//W3C//DTD SVG 1.1//EN"
 "http://www.w3.org/Graphics/SVG/1.1/DTD/svg11.dtd">
<!-- Generated by graphviz version 2.40.1 (0)
 -->
<!-- Title: drivers/include/net/netdev/ieee802154.h Pages: 1 -->
<svg width="1268pt" height="375pt"
 viewBox="0.00 0.00 1268.45 375.00" xmlns="http://www.w3.org/2000/svg" xmlns:xlink="http://www.w3.org/1999/xlink">
<g id="graph0" class="graph" transform="scale(1 1) rotate(0) translate(4 371)">
<title>drivers/include/net/netdev/ieee802154.h</title>
<polygon fill="#ffffff" stroke="transparent" points="-4,4 -4,-371 1264.4462,-371 1264.4462,4 -4,4"/>
<!-- Node0 -->
<g id="node1" class="node">
<title>Node0</title>
<polygon fill="#bfbfbf" stroke="#000000" points="489.4462,-336.5 489.4462,-366.5 611.4462,-366.5 611.4462,-336.5 489.4462,-336.5"/>
<text text-anchor="start" x="497.4462" y="-354.5" font-family="Helvetica,sans-Serif" font-size="10.00" fill="#000000">drivers/include/net</text>
<text text-anchor="middle" x="550.4462" y="-343.5" font-family="Helvetica,sans-Serif" font-size="10.00" fill="#000000">/netdev/ieee802154.h</text>
</g>
<!-- Node1 -->
<g id="node2" class="node">
<title>Node1</title>
<g id="a_node2"><a xlink:href="eui__provider_8h.html" target="_top" xlink:title="EUI&#45;48 and EUI&#45;64 address provider. ">
<polygon fill="#ffffff" stroke="#000000" points="498.4462,-280.5 498.4462,-299.5 602.4462,-299.5 602.4462,-280.5 498.4462,-280.5"/>
<text text-anchor="middle" x="550.4462" y="-287.5" font-family="Helvetica,sans-Serif" font-size="10.00" fill="#000000">net/eui_provider.h</text>
</a>
</g>
</g>
<!-- Node0&#45;&gt;Node1 -->
<g id="edge1" class="edge">
<title>Node0&#45;&gt;Node1</title>
<path fill="none" stroke="#191970" d="M550.4462,-336.2977C550.4462,-328.3834 550.4462,-318.6043 550.4462,-310.0759"/>
<polygon fill="#191970" stroke="#191970" points="553.9463,-309.8469 550.4462,-299.8469 546.9463,-309.847 553.9463,-309.8469"/>
</g>
<!-- Node9 -->
<g id="node10" class="node">
<title>Node9</title>
<g id="a_node10"><a xlink:href="drivers_2include_2net_2netdev_8h.html" target="_top" xlink:title="Definitions low&#45;level network driver interface. ">
<polygon fill="#ffffff" stroke="#000000" points="274.9462,-224.5 274.9462,-243.5 351.9462,-243.5 351.9462,-224.5 274.9462,-224.5"/>
<text text-anchor="middle" x="313.4462" y="-231.5" font-family="Helvetica,sans-Serif" font-size="10.00" fill="#000000">net/netdev.h</text>
</a>
</g>
</g>
<!-- Node0&#45;&gt;Node9 -->
<g id="edge51" class="edge">
<title>Node0&#45;&gt;Node9</title>
<path fill="none" stroke="#191970" d="M519.9477,-336.3795C473.8244,-313.5124 386.9521,-270.4428 342.0034,-248.1581"/>
<polygon fill="#191970" stroke="#191970" points="343.3329,-244.9108 332.8189,-243.6046 340.2235,-251.1823 343.3329,-244.9108"/>
</g>
<!-- Node15 -->
<g id="node16" class="node">
<title>Node15</title>
<g id="a_node16"><a xlink:href="netopt_8h.html" target="_top" xlink:title="Definition of global configuration options. ">
<polygon fill="#ffffff" stroke="#000000" points="423.9462,-168.5 423.9462,-187.5 500.9462,-187.5 500.9462,-168.5 423.9462,-168.5"/>
<text text-anchor="middle" x="462.4462" y="-175.5" font-family="Helvetica,sans-Serif" font-size="10.00" fill="#000000">net/netopt.h</text>
</a>
</g>
</g>
<!-- Node0&#45;&gt;Node15 -->
<g id="edge50" class="edge">
<title>Node0&#45;&gt;Node15</title>
<path fill="none" stroke="#191970" d="M525.9148,-336.492C513.1623,-327.4524 498.4087,-314.8264 489.4462,-300 469.9824,-267.8019 464.4988,-223.2344 462.9863,-197.8366"/>
<polygon fill="#191970" stroke="#191970" points="466.4734,-197.465 462.5349,-187.6295 459.4802,-197.7744 466.4734,-197.465"/>
</g>
<!-- Node23 -->
<g id="node24" class="node">
<title>Node23</title>
<g id="a_node24"><a xlink:href="sys_2include_2net_2ieee802154_8h.html" target="_top" xlink:title="IEEE 802.15.4 header definitions. ">
<polygon fill="#ffffff" stroke="#000000" points="694.9462,-224.5 694.9462,-243.5 795.9462,-243.5 795.9462,-224.5 694.9462,-224.5"/>
<text text-anchor="middle" x="745.4462" y="-231.5" font-family="Helvetica,sans-Serif" font-size="10.00" fill="#000000">net/ieee802154.h</text>
</a>
</g>
</g>
<!-- Node0&#45;&gt;Node23 -->
<g id="edge38" class="edge">
<title>Node0&#45;&gt;Node23</title>
<path fill="none" stroke="#191970" d="M575.5398,-336.3795C613.0916,-313.7521 683.4718,-271.3435 720.7754,-248.8657"/>
<polygon fill="#191970" stroke="#191970" points="722.7478,-251.7636 729.5066,-243.6046 719.135,-245.7679 722.7478,-251.7636"/>
</g>
<!-- Node26 -->
<g id="node27" class="node">
<title>Node26</title>
<g id="a_node27"><a xlink:href="nettype_8h.html" target="_top" xlink:title="Protocol type definitions. ">
<polygon fill="#ffffff" stroke="#000000" points="960.9462,-280.5 960.9462,-299.5 1067.9462,-299.5 1067.9462,-280.5 960.9462,-280.5"/>
<text text-anchor="middle" x="1014.4462" y="-287.5" font-family="Helvetica,sans-Serif" font-size="10.00" fill="#000000">net/gnrc/nettype.h</text>
</a>
</g>
</g>
<!-- Node0&#45;&gt;Node26 -->
<g id="edge45" class="edge">
<title>Node0&#45;&gt;Node26</title>
<path fill="none" stroke="#191970" d="M611.5832,-343.3967C699.6116,-331.7292 861.2839,-310.3006 950.7271,-298.4455"/>
<polygon fill="#191970" stroke="#191970" points="951.2849,-301.9023 960.7382,-297.1186 950.365,-294.963 951.2849,-301.9023"/>
</g>
<!-- Node2 -->
<g id="node3" class="node">
<title>Node2</title>
<g id="a_node3"><a xlink:href="eui48_8h.html" target="_top" xlink:title="Definition and IPv6 IID conversion for IEEE EUI&#45;48 identifiers. ">
<polygon fill="#ffffff" stroke="#000000" points="514.9462,-224.5 514.9462,-243.5 585.9462,-243.5 585.9462,-224.5 514.9462,-224.5"/>
<text text-anchor="middle" x="550.4462" y="-231.5" font-family="Helvetica,sans-Serif" font-size="10.00" fill="#000000">net/eui48.h</text>
</a>
</g>
</g>
<!-- Node1&#45;&gt;Node2 -->
<g id="edge2" class="edge">
<title>Node1&#45;&gt;Node2</title>
<path fill="none" stroke="#191970" d="M550.4462,-280.2455C550.4462,-272.9382 550.4462,-262.6944 550.4462,-253.7046"/>
<polygon fill="#191970" stroke="#191970" points="553.9463,-253.6426 550.4462,-243.6427 546.9463,-253.6427 553.9463,-253.6426"/>
</g>
<!-- Node4 -->
<g id="node5" class="node">
<title>Node4</title>
<g id="a_node5"><a xlink:href="eui64_8h.html" target="_top" xlink:title="EUI&#45;64 data type definition. ">
<polygon fill="#ffffff" stroke="#000000" points="578.9462,-168.5 578.9462,-187.5 649.9462,-187.5 649.9462,-168.5 578.9462,-168.5"/>
<text text-anchor="middle" x="614.4462" y="-175.5" font-family="Helvetica,sans-Serif" font-size="10.00" fill="#000000">net/eui64.h</text>
</a>
</g>
</g>
<!-- Node1&#45;&gt;Node4 -->
<g id="edge13" class="edge">
<title>Node1&#45;&gt;Node4</title>
<path fill="none" stroke="#191970" d="M562.5294,-280.2333C572.4154,-271.6462 586.0845,-258.3135 594.4462,-244 602.8446,-229.6236 608.0204,-211.3908 610.9964,-197.7335"/>
<polygon fill="#191970" stroke="#191970" points="614.509,-198.0096 613.0014,-187.5226 607.6401,-196.6608 614.509,-198.0096"/>
</g>
<!-- Node1&#45;&gt;Node9 -->
<g id="edge14" class="edge">
<title>Node1&#45;&gt;Node9</title>
<path fill="none" stroke="#191970" d="M509.9737,-280.4369C469.0076,-270.7571 405.645,-255.7854 361.9994,-245.4725"/>
<polygon fill="#191970" stroke="#191970" points="362.7158,-242.0455 352.1789,-243.152 361.106,-248.8579 362.7158,-242.0455"/>
</g>
<!-- Node3 -->
<g id="node4" class="node">
<title>Node3</title>
<polygon fill="#ffffff" stroke="#bfbfbf" points="458.4462,-.5 458.4462,-19.5 510.4462,-19.5 510.4462,-.5 458.4462,-.5"/>
<text text-anchor="middle" x="484.4462" y="-7.5" font-family="Helvetica,sans-Serif" font-size="10.00" fill="#000000">stdint.h</text>
</g>
<!-- Node2&#45;&gt;Node3 -->
<g id="edge3" class="edge">
<title>Node2&#45;&gt;Node3</title>
<path fill="none" stroke="#191970" d="M549.4231,-224.4293C546.2929,-197.247 535.555,-117.5668 511.4462,-56 507.6682,-46.3521 502.0348,-36.3504 496.8897,-28.1472"/>
<polygon fill="#191970" stroke="#191970" points="499.8126,-26.2218 491.413,-19.7644 493.9524,-30.0504 499.8126,-26.2218"/>
</g>
<!-- Node2&#45;&gt;Node4 -->
<g id="edge4" class="edge">
<title>Node2&#45;&gt;Node4</title>
<path fill="none" stroke="#191970" d="M561.5941,-224.2455C570.9548,-216.0549 584.532,-204.1749 595.5811,-194.5069"/>
<polygon fill="#191970" stroke="#191970" points="598.205,-196.8618 603.426,-187.6427 593.5954,-191.5937 598.205,-196.8618"/>
</g>
<!-- Node4&#45;&gt;Node3 -->
<g id="edge5" class="edge">
<title>Node4&#45;&gt;Node3</title>
<path fill="none" stroke="#191970" d="M612.4015,-168.3536C607.2862,-146.19 592.0895,-90.8639 561.4462,-56 549.4424,-42.3429 532.3696,-31.5744 517.3493,-23.9005"/>
<polygon fill="#191970" stroke="#191970" points="518.8508,-20.7389 508.3259,-19.5243 515.7962,-27.0373 518.8508,-20.7389"/>
</g>
<!-- Node5 -->
<g id="node6" class="node">
<title>Node5</title>
<g id="a_node6"><a xlink:href="byteorder_8h.html" target="_top" xlink:title="Functions to work with different byte orders. ">
<polygon fill="#ffffff" stroke="#000000" points="643.9462,-112.5 643.9462,-131.5 716.9462,-131.5 716.9462,-112.5 643.9462,-112.5"/>
<text text-anchor="middle" x="680.4462" y="-119.5" font-family="Helvetica,sans-Serif" font-size="10.00" fill="#000000">byteorder.h</text>
</a>
</g>
</g>
<!-- Node4&#45;&gt;Node5 -->
<g id="edge6" class="edge">
<title>Node4&#45;&gt;Node5</title>
<path fill="none" stroke="#191970" d="M625.9425,-168.2455C635.6904,-159.9746 649.8721,-147.9416 661.3259,-138.2232"/>
<polygon fill="#191970" stroke="#191970" points="663.7209,-140.7813 669.0816,-131.6427 659.192,-135.4437 663.7209,-140.7813"/>
</g>
<!-- Node5&#45;&gt;Node3 -->
<g id="edge8" class="edge">
<title>Node5&#45;&gt;Node3</title>
<path fill="none" stroke="#191970" d="M670.7077,-112.3831C656.1977,-98.4653 627.5832,-72.5657 599.4462,-56 574.3146,-41.2037 543.5343,-29.1742 520.1444,-21.1328"/>
<polygon fill="#191970" stroke="#191970" points="521.2045,-17.7968 510.6106,-17.9342 518.9779,-24.4333 521.2045,-17.7968"/>
</g>
<!-- Node6 -->
<g id="node7" class="node">
<title>Node6</title>
<polygon fill="#ffffff" stroke="#bfbfbf" points="815.9462,-56.5 815.9462,-75.5 868.9462,-75.5 868.9462,-56.5 815.9462,-56.5"/>
<text text-anchor="middle" x="842.4462" y="-63.5" font-family="Helvetica,sans-Serif" font-size="10.00" fill="#000000">string.h</text>
</g>
<!-- Node5&#45;&gt;Node6 -->
<g id="edge7" class="edge">
<title>Node5&#45;&gt;Node6</title>
<path fill="none" stroke="#191970" d="M708.295,-112.3733C735.3603,-103.0173 776.6008,-88.7614 806.209,-78.5264"/>
<polygon fill="#191970" stroke="#191970" points="807.459,-81.7976 815.7668,-75.2225 805.172,-75.1817 807.459,-81.7976"/>
</g>
<!-- Node7 -->
<g id="node8" class="node">
<title>Node7</title>
<g id="a_node8"><a xlink:href="endian_8h.html" target="_top" xlink:title="libc header for endian conversion ">
<polygon fill="#ffffff" stroke="#000000" points="651.9462,-56.5 651.9462,-75.5 708.9462,-75.5 708.9462,-56.5 651.9462,-56.5"/>
<text text-anchor="middle" x="680.4462" y="-63.5" font-family="Helvetica,sans-Serif" font-size="10.00" fill="#000000">endian.h</text>
</a>
</g>
</g>
<!-- Node5&#45;&gt;Node7 -->
<g id="edge9" class="edge">
<title>Node5&#45;&gt;Node7</title>
<path fill="none" stroke="#191970" d="M680.4462,-112.2455C680.4462,-104.9382 680.4462,-94.6944 680.4462,-85.7046"/>
<polygon fill="#191970" stroke="#191970" points="683.9463,-85.6426 680.4462,-75.6427 676.9463,-85.6427 683.9463,-85.6426"/>
</g>
<!-- Node8 -->
<g id="node9" class="node">
<title>Node8</title>
<g id="a_node9"><a xlink:href="unaligned_8h.html" target="_top" xlink:title="Unaligned but safe memory access functions. ">
<polygon fill="#ffffff" stroke="#000000" points="726.9462,-56.5 726.9462,-75.5 797.9462,-75.5 797.9462,-56.5 726.9462,-56.5"/>
<text text-anchor="middle" x="762.4462" y="-63.5" font-family="Helvetica,sans-Serif" font-size="10.00" fill="#000000">unaligned.h</text>
</a>
</g>
</g>
<!-- Node5&#45;&gt;Node8 -->
<g id="edge11" class="edge">
<title>Node5&#45;&gt;Node8</title>
<path fill="none" stroke="#191970" d="M694.7295,-112.2455C707.1932,-103.7337 725.4913,-91.2375 739.9253,-81.3801"/>
<polygon fill="#191970" stroke="#191970" points="742.0424,-84.1726 748.3265,-75.6427 738.0946,-78.392 742.0424,-84.1726"/>
</g>
<!-- Node7&#45;&gt;Node3 -->
<g id="edge10" class="edge">
<title>Node7&#45;&gt;Node3</title>
<path fill="none" stroke="#191970" d="M651.9461,-57.8571C617.2029,-47.9305 558.449,-31.1437 520.5685,-20.3207"/>
<polygon fill="#191970" stroke="#191970" points="521.0518,-16.8188 510.475,-17.4368 519.1287,-23.5494 521.0518,-16.8188"/>
</g>
<!-- Node8&#45;&gt;Node3 -->
<g id="edge12" class="edge">
<title>Node8&#45;&gt;Node3</title>
<path fill="none" stroke="#191970" d="M726.9243,-57.8328C724.0581,-57.2024 721.205,-56.5845 718.4462,-56 648.5542,-41.1913 566.566,-25.4462 520.5443,-16.7554"/>
<polygon fill="#191970" stroke="#191970" points="520.9423,-13.2689 510.4671,-14.8567 519.6461,-20.1479 520.9423,-13.2689"/>
</g>
<!-- Node9&#45;&gt;Node3 -->
<g id="edge15" class="edge">
<title>Node9&#45;&gt;Node3</title>
<path fill="none" stroke="#191970" d="M294.4925,-224.4148C243.659,-197.518 111.7505,-119.1768 166.4462,-56 184.7258,-34.8859 369.0009,-18.6564 448.3821,-12.5898"/>
<polygon fill="#191970" stroke="#191970" points="448.7064,-16.0754 458.4154,-11.8346 448.1809,-9.0952 448.7064,-16.0754"/>
</g>
<!-- Node10 -->
<g id="node11" class="node">
<title>Node10</title>
<g id="a_node11"><a xlink:href="errno_8h.html" target="_top" xlink:title="errno.h">
<polygon fill="#ffffff" stroke="#000000" points="71.9462,-168.5 71.9462,-187.5 124.9462,-187.5 124.9462,-168.5 71.9462,-168.5"/>
<text text-anchor="middle" x="98.4462" y="-175.5" font-family="Helvetica,sans-Serif" font-size="10.00" fill="#000000">errno.h</text>
</a>
</g>
</g>
<!-- Node9&#45;&gt;Node10 -->
<g id="edge16" class="edge">
<title>Node9&#45;&gt;Node10</title>
<path fill="none" stroke="#191970" d="M276.4863,-224.3733C236.8357,-214.0456 174.2617,-197.7473 134.8334,-187.4776"/>
<polygon fill="#191970" stroke="#191970" points="135.6527,-184.0743 125.0934,-184.9407 133.8883,-190.8483 135.6527,-184.0743"/>
</g>
<!-- Node11 -->
<g id="node12" class="node">
<title>Node11</title>
<g id="a_node12"><a xlink:href="iolist_8h.html" target="_top" xlink:title="iolist scatter / gather IO ">
<polygon fill="#ffffff" stroke="#000000" points="6.9462,-168.5 6.9462,-187.5 53.9462,-187.5 53.9462,-168.5 6.9462,-168.5"/>
<text text-anchor="middle" x="30.4462" y="-175.5" font-family="Helvetica,sans-Serif" font-size="10.00" fill="#000000">iolist.h</text>
</a>
</g>
</g>
<!-- Node9&#45;&gt;Node11 -->
<g id="edge17" class="edge">
<title>Node9&#45;&gt;Node11</title>
<path fill="none" stroke="#191970" d="M274.8661,-228.423C227.2572,-221.2136 143.7064,-207.4981 63.8401,-188.1395"/>
<polygon fill="#191970" stroke="#191970" points="64.6676,-184.7388 54.1212,-185.7508 62.9968,-191.5365 64.6676,-184.7388"/>
</g>
<!-- Node9&#45;&gt;Node15 -->
<g id="edge24" class="edge">
<title>Node9&#45;&gt;Node15</title>
<path fill="none" stroke="#191970" d="M339.0602,-224.3733C363.5148,-215.1822 400.5516,-201.2624 427.667,-191.0713"/>
<polygon fill="#191970" stroke="#191970" points="429.037,-194.2956 437.1664,-187.5011 426.5743,-187.7431 429.037,-194.2956"/>
</g>
<!-- Node17 -->
<g id="node18" class="node">
<title>Node17</title>
<g id="a_node18"><a xlink:href="kernel__defines_8h.html" target="_top" xlink:title="Common macros and compiler attributes/pragmas configuration. ">
<polygon fill="#ffffff" stroke="#000000" points="265.9462,-168.5 265.9462,-187.5 360.9462,-187.5 360.9462,-168.5 265.9462,-168.5"/>
<text text-anchor="middle" x="313.4462" y="-175.5" font-family="Helvetica,sans-Serif" font-size="10.00" fill="#000000">kernel_defines.h</text>
</a>
</g>
</g>
<!-- Node9&#45;&gt;Node17 -->
<g id="edge27" class="edge">
<title>Node9&#45;&gt;Node17</title>
<path fill="none" stroke="#191970" d="M313.4462,-224.2455C313.4462,-216.9382 313.4462,-206.6944 313.4462,-197.7046"/>
<polygon fill="#191970" stroke="#191970" points="316.9463,-197.6426 313.4462,-187.6427 309.9463,-197.6427 316.9463,-197.6426"/>
</g>
<!-- Node12 -->
<g id="node13" class="node">
<title>Node12</title>
<g id="a_node13"><a xlink:href="unistd_8h_source.html" target="_top" xlink:title="unistd.h">
<polygon fill="#ffffff" stroke="#000000" points="14.4462,-112.5 14.4462,-131.5 68.4462,-131.5 68.4462,-112.5 14.4462,-112.5"/>
<text text-anchor="middle" x="41.4462" y="-119.5" font-family="Helvetica,sans-Serif" font-size="10.00" fill="#000000">unistd.h</text>
</a>
</g>
</g>
<!-- Node11&#45;&gt;Node12 -->
<g id="edge18" class="edge">
<title>Node11&#45;&gt;Node12</title>
<path fill="none" stroke="#191970" d="M32.3622,-168.2455C33.7976,-160.9382 35.8098,-150.6944 37.5756,-141.7046"/>
<polygon fill="#191970" stroke="#191970" points="41.0589,-142.1298 39.5521,-131.6427 34.1902,-140.7805 41.0589,-142.1298"/>
</g>
<!-- Node12&#45;&gt;Node3 -->
<g id="edge20" class="edge">
<title>Node12&#45;&gt;Node3</title>
<path fill="none" stroke="#191970" d="M51.2021,-112.4287C66.9972,-97.5723 99.8078,-69.2918 133.4462,-56 190.2203,-33.5664 370.2452,-18.2496 448.0473,-12.5134"/>
<polygon fill="#191970" stroke="#191970" points="448.6031,-15.9823 458.3236,-11.7678 448.0965,-9.0007 448.6031,-15.9823"/>
</g>
<!-- Node13 -->
<g id="node14" class="node">
<title>Node13</title>
<polygon fill="#ffffff" stroke="#bfbfbf" points="18.4462,-.5 18.4462,-19.5 74.4462,-19.5 74.4462,-.5 18.4462,-.5"/>
<text text-anchor="middle" x="46.4462" y="-7.5" font-family="Helvetica,sans-Serif" font-size="10.00" fill="#000000">stddef.h</text>
</g>
<!-- Node12&#45;&gt;Node13 -->
<g id="edge19" class="edge">
<title>Node12&#45;&gt;Node13</title>
<path fill="none" stroke="#191970" d="M28.8513,-112.2077C14.4569,-99.7358 -6.0787,-77.2455 2.4462,-56 7.1095,-44.3782 16.265,-34.0324 25.0224,-26.1099"/>
<polygon fill="#191970" stroke="#191970" points="27.4189,-28.6675 32.8126,-19.5484 22.9093,-23.3136 27.4189,-28.6675"/>
</g>
<!-- Node14 -->
<g id="node15" class="node">
<title>Node14</title>
<g id="a_node15"><a xlink:href="cpu_2avr8__common_2avr__libc__extra_2include_2sys_2types_8h_source.html" target="_top" xlink:title="sys/types.h">
<polygon fill="#ffffff" stroke="#000000" points="11.9462,-56.5 11.9462,-75.5 80.9462,-75.5 80.9462,-56.5 11.9462,-56.5"/>
<text text-anchor="middle" x="46.4462" y="-63.5" font-family="Helvetica,sans-Serif" font-size="10.00" fill="#000000">sys/types.h</text>
</a>
</g>
</g>
<!-- Node12&#45;&gt;Node14 -->
<g id="edge21" class="edge">
<title>Node12&#45;&gt;Node14</title>
<path fill="none" stroke="#191970" d="M42.3171,-112.2455C42.9695,-104.9382 43.8842,-94.6944 44.6868,-85.7046"/>
<polygon fill="#191970" stroke="#191970" points="48.1819,-85.9143 45.5852,-75.6427 41.2097,-85.2918 48.1819,-85.9143"/>
</g>
<!-- Node14&#45;&gt;Node3 -->
<g id="edge22" class="edge">
<title>Node14&#45;&gt;Node3</title>
<path fill="none" stroke="#191970" d="M81.1791,-58.5381C85.9609,-57.6202 90.8172,-56.7447 95.4462,-56 224.5043,-35.2374 379.0635,-19.7204 448.0698,-13.2771"/>
<polygon fill="#191970" stroke="#191970" points="448.7586,-16.7284 458.3933,-12.3214 448.1133,-9.7582 448.7586,-16.7284"/>
</g>
<!-- Node14&#45;&gt;Node13 -->
<g id="edge23" class="edge">
<title>Node14&#45;&gt;Node13</title>
<path fill="none" stroke="#191970" d="M46.4462,-56.2455C46.4462,-48.9382 46.4462,-38.6944 46.4462,-29.7046"/>
<polygon fill="#191970" stroke="#191970" points="49.9463,-29.6426 46.4462,-19.6427 42.9463,-29.6427 49.9463,-29.6426"/>
</g>
<!-- Node15&#45;&gt;Node3 -->
<g id="edge25" class="edge">
<title>Node15&#45;&gt;Node3</title>
<path fill="none" stroke="#191970" d="M471.5203,-168.3243C479.0425,-159.5913 489.1693,-145.9994 493.4462,-132 504.1008,-97.1247 496.4142,-54.1494 490.1969,-29.6287"/>
<polygon fill="#191970" stroke="#191970" points="493.5142,-28.4889 487.5148,-19.7564 486.759,-30.3242 493.5142,-28.4889"/>
</g>
<!-- Node16 -->
<g id="node17" class="node">
<title>Node16</title>
<polygon fill="#ffffff" stroke="#bfbfbf" points="424.4462,-112.5 424.4462,-131.5 484.4462,-131.5 484.4462,-112.5 424.4462,-112.5"/>
<text text-anchor="middle" x="454.4462" y="-119.5" font-family="Helvetica,sans-Serif" font-size="10.00" fill="#000000">stdbool.h</text>
</g>
<!-- Node15&#45;&gt;Node16 -->
<g id="edge26" class="edge">
<title>Node15&#45;&gt;Node16</title>
<path fill="none" stroke="#191970" d="M461.0527,-168.2455C460.0088,-160.9382 458.5454,-150.6944 457.2611,-141.7046"/>
<polygon fill="#191970" stroke="#191970" points="460.7028,-141.0472 455.8237,-131.6427 453.7732,-142.0372 460.7028,-141.0472"/>
</g>
<!-- Node18 -->
<g id="node19" class="node">
<title>Node18</title>
<g id="a_node19"><a xlink:href="modules_8h.html" target="_top" xlink:title="Common macros and compiler attributes/pragmas configuration. ">
<polygon fill="#ffffff" stroke="#000000" points="883.9462,-112.5 883.9462,-131.5 948.9462,-131.5 948.9462,-112.5 883.9462,-112.5"/>
<text text-anchor="middle" x="916.4462" y="-119.5" font-family="Helvetica,sans-Serif" font-size="10.00" fill="#000000">modules.h</text>
</a>
</g>
</g>
<!-- Node17&#45;&gt;Node18 -->
<g id="edge28" class="edge">
<title>Node17&#45;&gt;Node18</title>
<path fill="none" stroke="#191970" d="M360.9657,-173.2229C377.8492,-171.5447 396.9929,-169.6637 414.4462,-168 584.6066,-151.7802 787.322,-133.5346 873.8735,-125.7953"/>
<polygon fill="#191970" stroke="#191970" points="874.194,-129.2807 883.8427,-124.9044 873.5709,-122.3085 874.194,-129.2807"/>
</g>
<!-- Node19 -->
<g id="node20" class="node">
<title>Node19</title>
<g id="a_node20"><a xlink:href="riot__version_8h.html" target="_top" xlink:title="Common macros and compiler attributes/pragmas configuration. ">
<polygon fill="#ffffff" stroke="#000000" points="324.9462,-112.5 324.9462,-131.5 405.9462,-131.5 405.9462,-112.5 324.9462,-112.5"/>
<text text-anchor="middle" x="365.4462" y="-119.5" font-family="Helvetica,sans-Serif" font-size="10.00" fill="#000000">riot_version.h</text>
</a>
</g>
</g>
<!-- Node17&#45;&gt;Node19 -->
<g id="edge29" class="edge">
<title>Node17&#45;&gt;Node19</title>
<path fill="none" stroke="#191970" d="M322.5039,-168.2455C329.9603,-160.2155 340.7096,-148.6394 349.5879,-139.0781"/>
<polygon fill="#191970" stroke="#191970" points="352.2525,-141.3522 356.4923,-131.6427 347.1229,-136.589 352.2525,-141.3522"/>
</g>
<!-- Node20 -->
<g id="node21" class="node">
<title>Node20</title>
<g id="a_node21"><a xlink:href="compiler__hints_8h.html" target="_top" xlink:title="Common macros and compiler attributes/pragmas configuration. ">
<polygon fill="#ffffff" stroke="#000000" points="213.9462,-112.5 213.9462,-131.5 306.9462,-131.5 306.9462,-112.5 213.9462,-112.5"/>
<text text-anchor="middle" x="260.4462" y="-119.5" font-family="Helvetica,sans-Serif" font-size="10.00" fill="#000000">compiler_hints.h</text>
</a>
</g>
</g>
<!-- Node17&#45;&gt;Node20 -->
<g id="edge31" class="edge">
<title>Node17&#45;&gt;Node20</title>
<path fill="none" stroke="#191970" d="M304.2143,-168.2455C296.6144,-160.2155 285.6584,-148.6394 276.6094,-139.0781"/>
<polygon fill="#191970" stroke="#191970" points="278.9882,-136.4998 269.5723,-131.6427 273.9041,-141.3115 278.9882,-136.4998"/>
</g>
<!-- Node22 -->
<g id="node23" class="node">
<title>Node22</title>
<g id="a_node23"><a xlink:href="container_8h.html" target="_top" xlink:title="Common macros and compiler attributes/pragmas configuration. ">
<polygon fill="#ffffff" stroke="#000000" points="175.9462,-56.5 175.9462,-75.5 244.9462,-75.5 244.9462,-56.5 175.9462,-56.5"/>
<text text-anchor="middle" x="210.4462" y="-63.5" font-family="Helvetica,sans-Serif" font-size="10.00" fill="#000000">container.h</text>
</a>
</g>
</g>
<!-- Node17&#45;&gt;Node22 -->
<g id="edge35" class="edge">
<title>Node17&#45;&gt;Node22</title>
<path fill="none" stroke="#191970" d="M265.9419,-170.3933C243.2875,-164.1195 218.1851,-152.7103 204.4462,-132 195.4244,-118.4004 198.2422,-99.6092 202.5491,-85.5545"/>
<polygon fill="#191970" stroke="#191970" points="205.9308,-86.4894 205.9615,-75.8946 199.3305,-84.1577 205.9308,-86.4894"/>
</g>
<!-- Node19&#45;&gt;Node3 -->
<g id="edge30" class="edge">
<title>Node19&#45;&gt;Node3</title>
<path fill="none" stroke="#191970" d="M376.2307,-112.1894C386.3949,-102.9169 402.0261,-88.5893 415.4462,-76 433.0313,-59.5035 452.9084,-40.4464 466.7961,-27.064"/>
<polygon fill="#191970" stroke="#191970" points="469.4521,-29.3649 474.2182,-19.9026 464.5916,-24.3274 469.4521,-29.3649"/>
</g>
<!-- Node20&#45;&gt;Node3 -->
<g id="edge34" class="edge">
<title>Node20&#45;&gt;Node3</title>
<path fill="none" stroke="#191970" d="M279.5443,-112.4509C319.0539,-92.6961 409.9331,-47.2565 456.2287,-24.1088"/>
<polygon fill="#191970" stroke="#191970" points="458.0174,-27.1276 465.3964,-19.5249 454.8868,-20.8666 458.0174,-27.1276"/>
</g>
<!-- Node21 -->
<g id="node22" class="node">
<title>Node21</title>
<g id="a_node22"><a xlink:href="assert_8h.html" target="_top" xlink:title="POSIX.1&#45;2008 compliant version of the assert macro. ">
<polygon fill="#ffffff" stroke="#000000" points="276.4462,-56.5 276.4462,-75.5 330.4462,-75.5 330.4462,-56.5 276.4462,-56.5"/>
<text text-anchor="middle" x="303.4462" y="-63.5" font-family="Helvetica,sans-Serif" font-size="10.00" fill="#000000">assert.h</text>
</a>
</g>
</g>
<!-- Node20&#45;&gt;Node21 -->
<g id="edge32" class="edge">
<title>Node20&#45;&gt;Node21</title>
<path fill="none" stroke="#191970" d="M267.9362,-112.2455C273.9788,-104.3761 282.6365,-93.101 289.8903,-83.6542"/>
<polygon fill="#191970" stroke="#191970" points="292.7277,-85.7058 296.042,-75.6427 287.1756,-81.4426 292.7277,-85.7058"/>
</g>
<!-- Node21&#45;&gt;Node3 -->
<g id="edge33" class="edge">
<title>Node21&#45;&gt;Node3</title>
<path fill="none" stroke="#191970" d="M330.5437,-57.6162C361.9592,-47.8965 413.859,-31.8391 448.5923,-21.0929"/>
<polygon fill="#191970" stroke="#191970" points="449.8214,-24.3764 458.3401,-18.077 447.7524,-17.6891 449.8214,-24.3764"/>
</g>
<!-- Node22&#45;&gt;Node3 -->
<g id="edge37" class="edge">
<title>Node22&#45;&gt;Node3</title>
<path fill="none" stroke="#191970" d="M245.1485,-58.9076C297.2596,-48.2571 395.2484,-28.2302 448.2315,-17.4015"/>
<polygon fill="#191970" stroke="#191970" points="449.1045,-20.7956 458.2011,-15.364 447.7027,-13.9373 449.1045,-20.7956"/>
</g>
<!-- Node22&#45;&gt;Node13 -->
<g id="edge36" class="edge">
<title>Node22&#45;&gt;Node13</title>
<path fill="none" stroke="#191970" d="M182.2536,-56.3733C155.1009,-47.1016 113.8555,-33.0178 83.9437,-22.804"/>
<polygon fill="#191970" stroke="#191970" points="84.8654,-19.4204 74.2709,-19.5011 82.6034,-26.0449 84.8654,-19.4204"/>
</g>
<!-- Node23&#45;&gt;Node3 -->
<g id="edge39" class="edge">
<title>Node23&#45;&gt;Node3</title>
<path fill="none" stroke="#191970" d="M756.4542,-224.3758C792.9433,-191.9589 906.0812,-87.0491 878.4462,-56 854.8321,-29.4685 613.4115,-15.8256 520.5612,-11.5282"/>
<polygon fill="#191970" stroke="#191970" points="520.6572,-8.029 510.509,-11.0728 520.3403,-15.0219 520.6572,-8.029"/>
</g>
<!-- Node23&#45;&gt;Node4 -->
<g id="edge43" class="edge">
<title>Node23&#45;&gt;Node4</title>
<path fill="none" stroke="#191970" d="M722.9265,-224.3733C701.709,-215.3032 669.7185,-201.6279 645.9693,-191.4755"/>
<polygon fill="#191970" stroke="#191970" points="647.2429,-188.2136 636.672,-187.5011 644.4913,-194.6502 647.2429,-188.2136"/>
</g>
<!-- Node23&#45;&gt;Node5 -->
<g id="edge41" class="edge">
<title>Node23&#45;&gt;Node5</title>
<path fill="none" stroke="#191970" d="M732.7438,-224.3768C722.3658,-215.8772 708.0521,-202.5924 699.4462,-188 691.023,-173.7174 686.1445,-155.4765 683.4451,-141.7922"/>
<polygon fill="#191970" stroke="#191970" points="686.826,-140.8061 681.6602,-131.556 679.9301,-142.0086 686.826,-140.8061"/>
</g>
<!-- Node23&#45;&gt;Node18 -->
<g id="edge42" class="edge">
<title>Node23&#45;&gt;Node18</title>
<path fill="none" stroke="#191970" d="M794.576,-224.4427C833.235,-215.9833 882.9241,-202.7205 897.4462,-188 909.4575,-175.8246 913.9737,-156.573 915.623,-141.9972"/>
<polygon fill="#191970" stroke="#191970" points="919.1179,-142.1979 916.4021,-131.9571 912.1389,-141.6563 919.1179,-142.1979"/>
</g>
<!-- Node24 -->
<g id="node25" class="node">
<title>Node24</title>
<polygon fill="#ffffff" stroke="#bfbfbf" points="838.4462,-168.5 838.4462,-187.5 888.4462,-187.5 888.4462,-168.5 838.4462,-168.5"/>
<text text-anchor="middle" x="863.4462" y="-175.5" font-family="Helvetica,sans-Serif" font-size="10.00" fill="#000000">stdlib.h</text>
</g>
<!-- Node23&#45;&gt;Node24 -->
<g id="edge40" class="edge">
<title>Node23&#45;&gt;Node24</title>
<path fill="none" stroke="#191970" d="M765.7311,-224.3733C784.5882,-215.4241 812.8921,-201.9917 834.1917,-191.8835"/>
<polygon fill="#191970" stroke="#191970" points="835.8923,-194.9506 843.4259,-187.5011 832.891,-188.6266 835.8923,-194.9506"/>
</g>
<!-- Node25 -->
<g id="node26" class="node">
<title>Node25</title>
<g id="a_node26"><a xlink:href="time__units_8h.html" target="_top" xlink:title="Utility header providing time unit defines. ">
<polygon fill="#ffffff" stroke="#000000" points="708.4462,-168.5 708.4462,-187.5 782.4462,-187.5 782.4462,-168.5 708.4462,-168.5"/>
<text text-anchor="middle" x="745.4462" y="-175.5" font-family="Helvetica,sans-Serif" font-size="10.00" fill="#000000">time_units.h</text>
</a>
</g>
</g>
<!-- Node23&#45;&gt;Node25 -->
<g id="edge44" class="edge">
<title>Node23&#45;&gt;Node25</title>
<path fill="none" stroke="#191970" d="M745.4462,-224.2455C745.4462,-216.9382 745.4462,-206.6944 745.4462,-197.7046"/>
<polygon fill="#191970" stroke="#191970" points="748.9463,-197.6426 745.4462,-187.6427 741.9463,-197.6427 748.9463,-197.6426"/>
</g>
<!-- Node26&#45;&gt;Node18 -->
<g id="edge47" class="edge">
<title>Node26&#45;&gt;Node18</title>
<path fill="none" stroke="#191970" d="M1004.7084,-280.4051C996.0362,-271.5116 983.3747,-257.6348 974.4462,-244 952.1749,-209.9892 933.4711,-166.0993 923.7152,-141.304"/>
<polygon fill="#191970" stroke="#191970" points="926.8537,-139.7149 919.9894,-131.6445 920.3227,-142.2341 926.8537,-139.7149"/>
</g>
<!-- Node27 -->
<g id="node28" class="node">
<title>Node27</title>
<g id="a_node28"><a xlink:href="inttypes_8h.html" target="_top" xlink:title="Adds include for missing inttype definitions. ">
<polygon fill="#ffffff" stroke="#000000" points="982.9462,-224.5 982.9462,-243.5 1045.9462,-243.5 1045.9462,-224.5 982.9462,-224.5"/>
<text text-anchor="middle" x="1014.4462" y="-231.5" font-family="Helvetica,sans-Serif" font-size="10.00" fill="#000000">inttypes.h</text>
</a>
</g>
</g>
<!-- Node26&#45;&gt;Node27 -->
<g id="edge46" class="edge">
<title>Node26&#45;&gt;Node27</title>
<path fill="none" stroke="#191970" d="M1014.4462,-280.2455C1014.4462,-272.9382 1014.4462,-262.6944 1014.4462,-253.7046"/>
<polygon fill="#191970" stroke="#191970" points="1017.9463,-253.6426 1014.4462,-243.6427 1010.9463,-253.6427 1017.9463,-253.6426"/>
</g>
<!-- Node28 -->
<g id="node29" class="node">
<title>Node28</title>
<g id="a_node29"><a xlink:href="ethertype_8h.html" target="_top" xlink:title="Ether type definitions. ">
<polygon fill="#ffffff" stroke="#000000" points="1064.4462,-224.5 1064.4462,-243.5 1156.4462,-243.5 1156.4462,-224.5 1064.4462,-224.5"/>
<text text-anchor="middle" x="1110.4462" y="-231.5" font-family="Helvetica,sans-Serif" font-size="10.00" fill="#000000">net/ethertype.h</text>
</a>
</g>
</g>
<!-- Node26&#45;&gt;Node28 -->
<g id="edge48" class="edge">
<title>Node26&#45;&gt;Node28</title>
<path fill="none" stroke="#191970" d="M1031.1681,-280.2455C1046.0351,-271.5731 1067.9927,-258.7645 1085.0319,-248.825"/>
<polygon fill="#191970" stroke="#191970" points="1087.0416,-251.7047 1093.9159,-243.6427 1083.5145,-245.6582 1087.0416,-251.7047"/>
</g>
<!-- Node29 -->
<g id="node30" class="node">
<title>Node29</title>
<g id="a_node30"><a xlink:href="protnum_8h.html" target="_top" xlink:title="Protocol number definitions. ">
<polygon fill="#ffffff" stroke="#000000" points="1174.4462,-224.5 1174.4462,-243.5 1260.4462,-243.5 1260.4462,-224.5 1174.4462,-224.5"/>
<text text-anchor="middle" x="1217.4462" y="-231.5" font-family="Helvetica,sans-Serif" font-size="10.00" fill="#000000">net/protnum.h</text>
</a>
</g>
</g>
<!-- Node26&#45;&gt;Node29 -->
<g id="edge49" class="edge">
<title>Node26&#45;&gt;Node29</title>
<path fill="none" stroke="#191970" d="M1049.3431,-280.3733C1083.5373,-270.9404 1135.7876,-256.5265 1172.9504,-246.2747"/>
<polygon fill="#191970" stroke="#191970" points="1174.2954,-249.5345 1183.0046,-243.5011 1172.4339,-242.7865 1174.2954,-249.5345"/>
</g>
</g>
</svg>
