<?xml version="1.0" encoding="UTF-8" standalone="no"?>
<!DOCTYPE svg PUBLIC "-//W3C//DTD SVG 1.1//EN"
 "http://www.w3.org/Graphics/SVG/1.1/DTD/svg11.dtd">
<!-- Generated by graphviz version 2.40.1 (0)
 -->
<!-- Title: drivers/include/periph/uart.h Pages: 1 -->
<svg width="468pt" height="95pt"
 viewBox="0.00 0.00 468.00 95.00" xmlns="http://www.w3.org/2000/svg" xmlns:xlink="http://www.w3.org/1999/xlink">
<g id="graph0" class="graph" transform="scale(1 1) rotate(0) translate(4 91)">
<title>drivers/include/periph/uart.h</title>
<polygon fill="#ffffff" stroke="transparent" points="-4,4 -4,-91 464,-91 464,4 -4,4"/>
<!-- Node0 -->
<g id="node1" class="node">
<title>Node0</title>
<polygon fill="#bfbfbf" stroke="#000000" points="143,-56.5 143,-86.5 264,-86.5 264,-56.5 143,-56.5"/>
<text text-anchor="start" x="151" y="-74.5" font-family="Helvetica,sans-Serif" font-size="10.00" fill="#000000">drivers/include/periph</text>
<text text-anchor="middle" x="203.5" y="-63.5" font-family="Helvetica,sans-Serif" font-size="10.00" fill="#000000">/uart.h</text>
</g>
<!-- Node1 -->
<g id="node2" class="node">
<title>Node1</title>
<g id="a_node2"><a xlink:href="errno_8h.html" target="_top" xlink:title="errno.h">
<polygon fill="#ffffff" stroke="#000000" points="0,-.5 0,-19.5 53,-19.5 53,-.5 0,-.5"/>
<text text-anchor="middle" x="26.5" y="-7.5" font-family="Helvetica,sans-Serif" font-size="10.00" fill="#000000">errno.h</text>
</a>
</g>
</g>
<!-- Node0&#45;&gt;Node1 -->
<g id="edge1" class="edge">
<title>Node0&#45;&gt;Node1</title>
<path fill="none" stroke="#191970" d="M160.2009,-56.4554C130.2638,-46.0535 90.894,-32.3742 62.6408,-22.5574"/>
<polygon fill="#191970" stroke="#191970" points="63.7394,-19.2339 53.1446,-19.2579 61.4419,-25.8462 63.7394,-19.2339"/>
</g>
<!-- Node2 -->
<g id="node3" class="node">
<title>Node2</title>
<polygon fill="#ffffff" stroke="#bfbfbf" points="71.5,-.5 71.5,-19.5 121.5,-19.5 121.5,-.5 71.5,-.5"/>
<text text-anchor="middle" x="96.5" y="-7.5" font-family="Helvetica,sans-Serif" font-size="10.00" fill="#000000">limits.h</text>
</g>
<!-- Node0&#45;&gt;Node2 -->
<g id="edge2" class="edge">
<title>Node0&#45;&gt;Node2</title>
<path fill="none" stroke="#191970" d="M177.3249,-56.4554C160.4113,-46.734 138.5171,-34.15 121.7828,-24.5317"/>
<polygon fill="#191970" stroke="#191970" points="123.4953,-21.4791 113.0812,-19.5303 120.007,-27.548 123.4953,-21.4791"/>
</g>
<!-- Node3 -->
<g id="node4" class="node">
<title>Node3</title>
<polygon fill="#ffffff" stroke="#bfbfbf" points="139.5,-.5 139.5,-19.5 195.5,-19.5 195.5,-.5 139.5,-.5"/>
<text text-anchor="middle" x="167.5" y="-7.5" font-family="Helvetica,sans-Serif" font-size="10.00" fill="#000000">stddef.h</text>
</g>
<!-- Node0&#45;&gt;Node3 -->
<g id="edge3" class="edge">
<title>Node0&#45;&gt;Node3</title>
<path fill="none" stroke="#191970" d="M194.6011,-56.2977C189.7081,-47.9388 183.5974,-37.4997 178.4176,-28.6509"/>
<polygon fill="#191970" stroke="#191970" points="181.3365,-26.7089 173.2641,-19.8469 175.2953,-30.2452 181.3365,-26.7089"/>
</g>
<!-- Node4 -->
<g id="node5" class="node">
<title>Node4</title>
<polygon fill="#ffffff" stroke="#bfbfbf" points="213.5,-.5 213.5,-19.5 265.5,-19.5 265.5,-.5 213.5,-.5"/>
<text text-anchor="middle" x="239.5" y="-7.5" font-family="Helvetica,sans-Serif" font-size="10.00" fill="#000000">stdint.h</text>
</g>
<!-- Node0&#45;&gt;Node4 -->
<g id="edge4" class="edge">
<title>Node0&#45;&gt;Node4</title>
<path fill="none" stroke="#191970" d="M212.3989,-56.2977C217.2919,-47.9388 223.4026,-37.4997 228.5824,-28.6509"/>
<polygon fill="#191970" stroke="#191970" points="231.7047,-30.2452 233.7359,-19.8469 225.6635,-26.7089 231.7047,-30.2452"/>
</g>
<!-- Node5 -->
<g id="node6" class="node">
<title>Node5</title>
<polygon fill="#ffffff" stroke="#bfbfbf" points="284,-.5 284,-19.5 361,-19.5 361,-.5 284,-.5"/>
<text text-anchor="middle" x="322.5" y="-7.5" font-family="Helvetica,sans-Serif" font-size="10.00" fill="#000000">periph_cpu.h</text>
</g>
<!-- Node0&#45;&gt;Node5 -->
<g id="edge5" class="edge">
<title>Node0&#45;&gt;Node5</title>
<path fill="none" stroke="#191970" d="M232.6107,-56.4554C251.6824,-46.599 276.4482,-33.7999 295.1539,-24.1327"/>
<polygon fill="#191970" stroke="#191970" points="296.7824,-27.2309 304.0592,-19.5303 293.5685,-21.0122 296.7824,-27.2309"/>
</g>
<!-- Node6 -->
<g id="node7" class="node">
<title>Node6</title>
<polygon fill="#ffffff" stroke="#bfbfbf" points="379,-.5 379,-19.5 460,-19.5 460,-.5 379,-.5"/>
<text text-anchor="middle" x="419.5" y="-7.5" font-family="Helvetica,sans-Serif" font-size="10.00" fill="#000000">periph_conf.h</text>
</g>
<!-- Node0&#45;&gt;Node6 -->
<g id="edge6" class="edge">
<title>Node0&#45;&gt;Node6</title>
<path fill="none" stroke="#191970" d="M256.3395,-56.4554C293.1701,-45.9689 341.6998,-32.1515 376.2345,-22.3187"/>
<polygon fill="#191970" stroke="#191970" points="377.3684,-25.635 386.0277,-19.5303 375.4514,-18.9026 377.3684,-25.635"/>
</g>
</g>
</svg>
