<?xml version="1.0" encoding="UTF-8" standalone="no"?>
<!DOCTYPE svg PUBLIC "-//W3C//DTD SVG 1.1//EN"
 "http://www.w3.org/Graphics/SVG/1.1/DTD/svg11.dtd">
<!-- Generated by graphviz version 2.40.1 (0)
 -->
<!-- Title: drivers/include/saul.h Pages: 1 -->
<svg width="2504pt" height="240pt"
 viewBox="0.00 0.00 2504.00 240.00" xmlns="http://www.w3.org/2000/svg" xmlns:xlink="http://www.w3.org/1999/xlink">
<g id="graph0" class="graph" transform="scale(1 1) rotate(0) translate(4 236)">
<title>drivers/include/saul.h</title>
<polygon fill="#ffffff" stroke="transparent" points="-4,4 -4,-236 2500,-236 2500,4 -4,4"/>
<!-- Node5 -->
<g id="node1" class="node">
<title>Node5</title>
<polygon fill="#bfbfbf" stroke="#000000" points="1159.5,-212.5 1159.5,-231.5 1276.5,-231.5 1276.5,-212.5 1159.5,-212.5"/>
<text text-anchor="middle" x="1218" y="-219.5" font-family="Helvetica,sans-Serif" font-size="10.00" fill="#000000">drivers/include/saul.h</text>
</g>
<!-- Node6 -->
<g id="node2" class="node">
<title>Node6</title>
<g id="a_node2"><a xlink:href="bmp180_8h.html" target="_top" xlink:title="Device driver interface for the BMP180 sensor. ">
<polygon fill="#ffffff" stroke="#000000" points="0,-151 0,-170 138,-170 138,-151 0,-151"/>
<text text-anchor="middle" x="69" y="-158" font-family="Helvetica,sans-Serif" font-size="10.00" fill="#000000">drivers/include/bmp180.h</text>
</a>
</g>
</g>
<!-- Node5&#45;&gt;Node6 -->
<g id="edge1" class="edge">
<title>Node5&#45;&gt;Node6</title>
<path fill="none" stroke="#191970" d="M1149.3221,-220.4277C944.8587,-215.5285 342.228,-199.45 147,-176 135.2112,-174.584 122.5404,-172.3701 110.9106,-170.0542"/>
<polygon fill="#191970" stroke="#191970" points="1149.2524,-223.9269 1159.333,-220.6662 1149.4192,-216.9289 1149.2524,-223.9269"/>
</g>
<!-- Node8 -->
<g id="node4" class="node">
<title>Node8</title>
<g id="a_node4"><a xlink:href="bmx280_8h.html" target="_top" xlink:title="Device driver interface for the BMP280 and BME280 sensors. ">
<polygon fill="#ffffff" stroke="#000000" points="156.5,-151 156.5,-170 293.5,-170 293.5,-151 156.5,-151"/>
<text text-anchor="middle" x="225" y="-158" font-family="Helvetica,sans-Serif" font-size="10.00" fill="#000000">drivers/include/bmx280.h</text>
</a>
</g>
</g>
<!-- Node5&#45;&gt;Node8 -->
<g id="edge3" class="edge">
<title>Node5&#45;&gt;Node8</title>
<path fill="none" stroke="#191970" d="M1149.3509,-219.8758C965.6842,-213.9808 465.8853,-196.4948 302,-176 290.3635,-174.5448 277.8555,-172.3181 266.3748,-170.0024"/>
<polygon fill="#191970" stroke="#191970" points="1149.3178,-223.3764 1159.4245,-220.1976 1149.5414,-216.38 1149.3178,-223.3764"/>
</g>
<!-- Node10 -->
<g id="node6" class="node">
<title>Node10</title>
<g id="a_node6"><a xlink:href="ds75lx_8h.html" target="_top" xlink:title="drivers/include/ds75lx.h">
<polygon fill="#ffffff" stroke="#000000" points="311.5,-151 311.5,-170 440.5,-170 440.5,-151 311.5,-151"/>
<text text-anchor="middle" x="376" y="-158" font-family="Helvetica,sans-Serif" font-size="10.00" fill="#000000">drivers/include/ds75lx.h</text>
</a>
</g>
</g>
<!-- Node5&#45;&gt;Node10 -->
<g id="edge5" class="edge">
<title>Node5&#45;&gt;Node10</title>
<path fill="none" stroke="#191970" d="M1149.2557,-221.2559C1014.5092,-219.0534 706.4442,-210.3486 450,-176 438.9416,-174.5188 427.0686,-172.3124 416.141,-170.0257"/>
<polygon fill="#191970" stroke="#191970" points="1149.3766,-224.7581 1159.4301,-221.4151 1149.4862,-217.7589 1149.3766,-224.7581"/>
</g>
<!-- Node12 -->
<g id="node8" class="node">
<title>Node12</title>
<g id="a_node8"><a xlink:href="hsc_8h.html" target="_top" xlink:title="Device driver interface for the HSC sensor. ">
<polygon fill="#ffffff" stroke="#000000" points="459,-151 459,-170 573,-170 573,-151 459,-151"/>
<text text-anchor="middle" x="516" y="-158" font-family="Helvetica,sans-Serif" font-size="10.00" fill="#000000">drivers/include/hsc.h</text>
</a>
</g>
</g>
<!-- Node5&#45;&gt;Node12 -->
<g id="edge7" class="edge">
<title>Node5&#45;&gt;Node12</title>
<path fill="none" stroke="#191970" d="M1149.0911,-220.5877C1031.9486,-217.3911 786.7621,-207.2473 582,-176 572.2263,-174.5085 561.7606,-172.327 552.1094,-170.0688"/>
<polygon fill="#191970" stroke="#191970" points="1149.2541,-224.0932 1159.343,-220.8586 1149.439,-217.0956 1149.2541,-224.0932"/>
</g>
<!-- Node14 -->
<g id="node10" class="node">
<title>Node14</title>
<g id="a_node10"><a xlink:href="io1__xplained_8h.html" target="_top" xlink:title="Device driver interface for the Atmel IO1 Xplained extension. ">
<polygon fill="#ffffff" stroke="#000000" points="591,-145.5 591,-175.5 695,-175.5 695,-145.5 591,-145.5"/>
<text text-anchor="start" x="599" y="-163.5" font-family="Helvetica,sans-Serif" font-size="10.00" fill="#000000">drivers/include/io1</text>
<text text-anchor="middle" x="643" y="-152.5" font-family="Helvetica,sans-Serif" font-size="10.00" fill="#000000">_xplained.h</text>
</a>
</g>
</g>
<!-- Node5&#45;&gt;Node14 -->
<g id="edge9" class="edge">
<title>Node5&#45;&gt;Node14</title>
<path fill="none" stroke="#191970" d="M1149.2395,-219.3352C1050.2241,-214.7097 862.0129,-202.9685 704,-176 701.0918,-175.5037 698.1185,-174.9396 695.1262,-174.3276"/>
<polygon fill="#191970" stroke="#191970" points="1149.262,-222.8398 1159.4113,-219.7999 1149.5815,-215.8471 1149.262,-222.8398"/>
</g>
<!-- Node16 -->
<g id="node12" class="node">
<title>Node16</title>
<g id="a_node12"><a xlink:href="jc42_8h.html" target="_top" xlink:title="Driver for jc42 compliant temperature sensors. ">
<polygon fill="#ffffff" stroke="#000000" points="713,-151 713,-170 831,-170 831,-151 713,-151"/>
<text text-anchor="middle" x="772" y="-158" font-family="Helvetica,sans-Serif" font-size="10.00" fill="#000000">drivers/include/jc42.h</text>
</a>
</g>
</g>
<!-- Node5&#45;&gt;Node16 -->
<g id="edge11" class="edge">
<title>Node5&#45;&gt;Node16</title>
<path fill="none" stroke="#191970" d="M1149.0574,-215.7632C1073.0456,-208.387 947.2971,-194.7061 840,-176 830.4572,-174.3363 820.2381,-172.1988 810.6972,-170.046"/>
<polygon fill="#191970" stroke="#191970" points="1149.1567,-219.2888 1159.4458,-216.7621 1149.8267,-212.321 1149.1567,-219.2888"/>
</g>
<!-- Node18 -->
<g id="node14" class="node">
<title>Node18</title>
<g id="a_node14"><a xlink:href="lis2dh12_8h.html" target="_top" xlink:title="Interface definition for the STM LIS2DH12 accelerometer. ">
<polygon fill="#ffffff" stroke="#000000" points="849,-151 849,-170 987,-170 987,-151 849,-151"/>
<text text-anchor="middle" x="918" y="-158" font-family="Helvetica,sans-Serif" font-size="10.00" fill="#000000">drivers/include/lis2dh12.h</text>
</a>
</g>
</g>
<!-- Node5&#45;&gt;Node18 -->
<g id="edge13" class="edge">
<title>Node5&#45;&gt;Node18</title>
<path fill="none" stroke="#191970" d="M1161.539,-210.4255C1104.6209,-198.7573 1017.7991,-180.9588 964.655,-170.0643"/>
<polygon fill="#191970" stroke="#191970" points="1160.955,-213.8785 1171.4542,-212.4581 1162.3608,-207.0211 1160.955,-213.8785"/>
</g>
<!-- Node20 -->
<g id="node16" class="node">
<title>Node20</title>
<g id="a_node16"><a xlink:href="mhz19_8h.html" target="_top" xlink:title="Interface definition for the MH&#45;Z19 CO2 sensor driver. ">
<polygon fill="#ffffff" stroke="#000000" points="1005.5,-151 1005.5,-170 1136.5,-170 1136.5,-151 1005.5,-151"/>
<text text-anchor="middle" x="1071" y="-158" font-family="Helvetica,sans-Serif" font-size="10.00" fill="#000000">drivers/include/mhz19.h</text>
</a>
</g>
</g>
<!-- Node5&#45;&gt;Node20 -->
<g id="edge15" class="edge">
<title>Node5&#45;&gt;Node20</title>
<path fill="none" stroke="#191970" d="M1185.721,-208.4955C1157.9045,-196.858 1118.4467,-180.3501 1093.8075,-170.0419"/>
<polygon fill="#191970" stroke="#191970" points="1184.4552,-211.7599 1195.0313,-212.3906 1187.1569,-205.3022 1184.4552,-211.7599"/>
</g>
<!-- Node22 -->
<g id="node18" class="node">
<title>Node22</title>
<g id="a_node18"><a xlink:href="scd30_8h.html" target="_top" xlink:title="Device driver interface for the SCD30 sensor. ">
<polygon fill="#ffffff" stroke="#000000" points="1155,-151 1155,-170 1281,-170 1281,-151 1155,-151"/>
<text text-anchor="middle" x="1218" y="-158" font-family="Helvetica,sans-Serif" font-size="10.00" fill="#000000">drivers/include/scd30.h</text>
</a>
</g>
</g>
<!-- Node5&#45;&gt;Node22 -->
<g id="edge17" class="edge">
<title>Node5&#45;&gt;Node22</title>
<path fill="none" stroke="#191970" d="M1218,-202.2462C1218,-191.5519 1218,-178.814 1218,-170.2449"/>
<polygon fill="#191970" stroke="#191970" points="1214.5001,-202.3906 1218,-212.3906 1221.5001,-202.3907 1214.5001,-202.3906"/>
</g>
<!-- Node24 -->
<g id="node20" class="node">
<title>Node24</title>
<g id="a_node20"><a xlink:href="sdp3x_8h.html" target="_top" xlink:title="Device driver interface for the SDP3x sensor. ">
<polygon fill="#ffffff" stroke="#000000" points="1299.5,-151 1299.5,-170 1426.5,-170 1426.5,-151 1299.5,-151"/>
<text text-anchor="middle" x="1363" y="-158" font-family="Helvetica,sans-Serif" font-size="10.00" fill="#000000">drivers/include/sdp3x.h</text>
</a>
</g>
</g>
<!-- Node5&#45;&gt;Node24 -->
<g id="edge19" class="edge">
<title>Node5&#45;&gt;Node24</title>
<path fill="none" stroke="#191970" d="M1250.1999,-208.3428C1277.6176,-196.7139 1316.305,-180.3051 1340.5028,-170.0419"/>
<polygon fill="#191970" stroke="#191970" points="1248.4958,-205.2637 1240.6563,-212.3906 1251.2291,-211.708 1248.4958,-205.2637"/>
</g>
<!-- Node26 -->
<g id="node22" class="node">
<title>Node26</title>
<g id="a_node22"><a xlink:href="servo_8h.html" target="_top" xlink:title="High&#45;level driver for easy handling of servo motors. ">
<polygon fill="#ffffff" stroke="#000000" points="1444.5,-151 1444.5,-170 1569.5,-170 1569.5,-151 1444.5,-151"/>
<text text-anchor="middle" x="1507" y="-158" font-family="Helvetica,sans-Serif" font-size="10.00" fill="#000000">drivers/include/servo.h</text>
</a>
</g>
</g>
<!-- Node5&#45;&gt;Node26 -->
<g id="edge21" class="edge">
<title>Node5&#45;&gt;Node26</title>
<path fill="none" stroke="#191970" d="M1273.2018,-210.3483C1317.0649,-201.0779 1379.9705,-187.7559 1435,-176 1444.003,-174.0767 1453.6372,-172.0092 1462.8353,-170.0307"/>
<polygon fill="#191970" stroke="#191970" points="1272.3714,-206.9464 1263.3111,-212.4383 1273.8186,-213.7952 1272.3714,-206.9464"/>
</g>
<!-- Node28 -->
<g id="node24" class="node">
<title>Node28</title>
<g id="a_node24"><a xlink:href="shtcx_8h.html" target="_top" xlink:title="Device driver interface for the SHTCX Temperature and humidity sensor. ">
<polygon fill="#ffffff" stroke="#000000" points="1587.5,-151 1587.5,-170 1710.5,-170 1710.5,-151 1587.5,-151"/>
<text text-anchor="middle" x="1649" y="-158" font-family="Helvetica,sans-Serif" font-size="10.00" fill="#000000">drivers/include/shtcx.h</text>
</a>
</g>
</g>
<!-- Node5&#45;&gt;Node28 -->
<g id="edge23" class="edge">
<title>Node5&#45;&gt;Node28</title>
<path fill="none" stroke="#191970" d="M1286.9212,-215.0136C1359.58,-207.2235 1477.2484,-193.3998 1578,-176 1587.8218,-174.3038 1598.343,-172.1784 1608.1967,-170.0502"/>
<polygon fill="#191970" stroke="#191970" points="1286.1085,-211.5802 1276.5351,-216.1189 1286.8493,-218.5409 1286.1085,-211.5802"/>
</g>
<!-- Node30 -->
<g id="node26" class="node">
<title>Node30</title>
<g id="a_node26"><a xlink:href="si114x_8h.html" target="_top" xlink:title="Device driver interface for the Si114x sensors family. ">
<polygon fill="#ffffff" stroke="#000000" points="1728.5,-151 1728.5,-170 1857.5,-170 1857.5,-151 1728.5,-151"/>
<text text-anchor="middle" x="1793" y="-158" font-family="Helvetica,sans-Serif" font-size="10.00" fill="#000000">drivers/include/si114x.h</text>
</a>
</g>
</g>
<!-- Node5&#45;&gt;Node30 -->
<g id="edge25" class="edge">
<title>Node5&#45;&gt;Node30</title>
<path fill="none" stroke="#191970" d="M1287.1339,-218.1728C1384.0539,-212.2354 1565.6538,-199.0219 1719,-176 1729.6441,-174.402 1741.0617,-172.2374 1751.6652,-170.0332"/>
<polygon fill="#191970" stroke="#191970" points="1286.6525,-214.6955 1276.8821,-218.793 1287.0752,-221.6827 1286.6525,-214.6955"/>
</g>
<!-- Node32 -->
<g id="node28" class="node">
<title>Node32</title>
<g id="a_node28"><a xlink:href="stmpe811_8h.html" target="_top" xlink:title="drivers/include/stmpe811.h">
<polygon fill="#ffffff" stroke="#000000" points="1876,-151 1876,-170 2022,-170 2022,-151 1876,-151"/>
<text text-anchor="middle" x="1949" y="-158" font-family="Helvetica,sans-Serif" font-size="10.00" fill="#000000">drivers/include/stmpe811.h</text>
</a>
</g>
</g>
<!-- Node5&#45;&gt;Node32 -->
<g id="edge27" class="edge">
<title>Node5&#45;&gt;Node32</title>
<path fill="none" stroke="#191970" d="M1286.7797,-219.6889C1405.3999,-215.1296 1655.9448,-202.9803 1866,-176 1878.0677,-174.45 1891.035,-172.2757 1903.0501,-170.0449"/>
<polygon fill="#191970" stroke="#191970" points="1286.6089,-216.1928 1276.7484,-220.0684 1286.8736,-223.1878 1286.6089,-216.1928"/>
</g>
<!-- Node35 -->
<g id="node31" class="node">
<title>Node35</title>
<g id="a_node31"><a xlink:href="tsl2561_8h.html" target="_top" xlink:title="Device driver interface for the illuminance TSL2561 sensor. ">
<polygon fill="#ffffff" stroke="#000000" points="2040,-151 2040,-170 2174,-170 2174,-151 2040,-151"/>
<text text-anchor="middle" x="2107" y="-158" font-family="Helvetica,sans-Serif" font-size="10.00" fill="#000000">drivers/include/tsl2561.h</text>
</a>
</g>
</g>
<!-- Node5&#45;&gt;Node35 -->
<g id="edge31" class="edge">
<title>Node5&#45;&gt;Node35</title>
<path fill="none" stroke="#191970" d="M1286.7985,-219.3905C1455.7813,-212.7743 1887.8538,-194.5478 2031,-176 2042.3513,-174.5292 2054.5432,-172.3263 2065.7661,-170.0396"/>
<polygon fill="#191970" stroke="#191970" points="1286.6324,-215.8943 1276.7764,-219.7814 1286.9053,-222.8889 1286.6324,-215.8943"/>
</g>
<!-- Node37 -->
<g id="node33" class="node">
<title>Node37</title>
<g id="a_node33"><a xlink:href="vcnl40x0_8h.html" target="_top" xlink:title="Device driver interface for the VCNL40X0 sensors family. ">
<polygon fill="#ffffff" stroke="#000000" points="2192,-151 2192,-170 2332,-170 2332,-151 2192,-151"/>
<text text-anchor="middle" x="2262" y="-158" font-family="Helvetica,sans-Serif" font-size="10.00" fill="#000000">drivers/include/vcnl40x0.h</text>
</a>
</g>
</g>
<!-- Node5&#45;&gt;Node37 -->
<g id="edge33" class="edge">
<title>Node5&#45;&gt;Node37</title>
<path fill="none" stroke="#191970" d="M1286.9696,-220.0241C1477.6482,-214.352 2009.2846,-197.0676 2183,-176 2194.9326,-174.5529 2207.7634,-172.3288 2219.5424,-170.0131"/>
<polygon fill="#191970" stroke="#191970" points="1286.6875,-216.5308 1276.7955,-220.3253 1286.8947,-223.5277 1286.6875,-216.5308"/>
</g>
<!-- Node39 -->
<g id="node35" class="node">
<title>Node39</title>
<g id="a_node35"><a xlink:href="veml6070_8h.html" target="_top" xlink:title="Device driver interface for the VEML6070 UV sensor. ">
<polygon fill="#ffffff" stroke="#000000" points="2350,-151 2350,-170 2496,-170 2496,-151 2350,-151"/>
<text text-anchor="middle" x="2423" y="-158" font-family="Helvetica,sans-Serif" font-size="10.00" fill="#000000">drivers/include/veml6070.h</text>
</a>
</g>
</g>
<!-- Node5&#45;&gt;Node39 -->
<g id="edge35" class="edge">
<title>Node5&#45;&gt;Node39</title>
<path fill="none" stroke="#191970" d="M1286.7213,-220.5005C1497.8391,-215.686 2135.1189,-199.5475 2341,-176 2353.3792,-174.5841 2366.6951,-172.3703 2378.9214,-170.0545"/>
<polygon fill="#191970" stroke="#191970" points="1286.6134,-217.0019 1276.6954,-220.7279 1286.7722,-224.0001 1286.6134,-217.0019"/>
</g>
<!-- Node7 -->
<g id="node3" class="node">
<title>Node7</title>
<g id="a_node3"><a xlink:href="bmp180__params_8h.html" target="_top" xlink:title="Default configuration for BMP180. ">
<polygon fill="#ffffff" stroke="#000000" points="4.5,-73 4.5,-103 133.5,-103 133.5,-73 4.5,-73"/>
<text text-anchor="start" x="12.5" y="-91" font-family="Helvetica,sans-Serif" font-size="10.00" fill="#000000">drivers/bmp180/include</text>
<text text-anchor="middle" x="69" y="-80" font-family="Helvetica,sans-Serif" font-size="10.00" fill="#000000">/bmp180_params.h</text>
</a>
</g>
</g>
<!-- Node6&#45;&gt;Node7 -->
<g id="edge2" class="edge">
<title>Node6&#45;&gt;Node7</title>
<path fill="none" stroke="#191970" d="M69,-140.5177C69,-128.7164 69,-114.013 69,-103.168"/>
<polygon fill="#191970" stroke="#191970" points="65.5001,-140.7223 69,-150.7223 72.5001,-140.7224 65.5001,-140.7223"/>
</g>
<!-- Node9 -->
<g id="node5" class="node">
<title>Node9</title>
<g id="a_node5"><a xlink:href="bmx280__params_8h.html" target="_top" xlink:title="Default configuration for BMX280. ">
<polygon fill="#ffffff" stroke="#000000" points="161,-73 161,-103 289,-103 289,-73 161,-73"/>
<text text-anchor="start" x="169" y="-91" font-family="Helvetica,sans-Serif" font-size="10.00" fill="#000000">drivers/bmx280/include</text>
<text text-anchor="middle" x="225" y="-80" font-family="Helvetica,sans-Serif" font-size="10.00" fill="#000000">/bmx280_params.h</text>
</a>
</g>
</g>
<!-- Node8&#45;&gt;Node9 -->
<g id="edge4" class="edge">
<title>Node8&#45;&gt;Node9</title>
<path fill="none" stroke="#191970" d="M225,-140.5177C225,-128.7164 225,-114.013 225,-103.168"/>
<polygon fill="#191970" stroke="#191970" points="221.5001,-140.7223 225,-150.7223 228.5001,-140.7224 221.5001,-140.7223"/>
</g>
<!-- Node11 -->
<g id="node7" class="node">
<title>Node11</title>
<g id="a_node7"><a xlink:href="ds75lx__params_8h.html" target="_top" xlink:title="Default configuration for DS75LX. ">
<polygon fill="#ffffff" stroke="#000000" points="316,-73 316,-103 436,-103 436,-73 316,-73"/>
<text text-anchor="start" x="324" y="-91" font-family="Helvetica,sans-Serif" font-size="10.00" fill="#000000">drivers/ds75lx/include</text>
<text text-anchor="middle" x="376" y="-80" font-family="Helvetica,sans-Serif" font-size="10.00" fill="#000000">/ds75lx_params.h</text>
</a>
</g>
</g>
<!-- Node10&#45;&gt;Node11 -->
<g id="edge6" class="edge">
<title>Node10&#45;&gt;Node11</title>
<path fill="none" stroke="#191970" d="M376,-140.5177C376,-128.7164 376,-114.013 376,-103.168"/>
<polygon fill="#191970" stroke="#191970" points="372.5001,-140.7223 376,-150.7223 379.5001,-140.7224 372.5001,-140.7223"/>
</g>
<!-- Node13 -->
<g id="node9" class="node">
<title>Node13</title>
<g id="a_node9"><a xlink:href="hsc__params_8h.html" target="_top" xlink:title="Default configuration for HSC. ">
<polygon fill="#ffffff" stroke="#000000" points="462.5,-73 462.5,-103 567.5,-103 567.5,-73 462.5,-73"/>
<text text-anchor="start" x="470.5" y="-91" font-family="Helvetica,sans-Serif" font-size="10.00" fill="#000000">drivers/hsc/include</text>
<text text-anchor="middle" x="515" y="-80" font-family="Helvetica,sans-Serif" font-size="10.00" fill="#000000">/hsc_params.h</text>
</a>
</g>
</g>
<!-- Node12&#45;&gt;Node13 -->
<g id="edge8" class="edge">
<title>Node12&#45;&gt;Node13</title>
<path fill="none" stroke="#191970" d="M515.7244,-140.5177C515.5616,-128.7164 515.3588,-114.013 515.2092,-103.168"/>
<polygon fill="#191970" stroke="#191970" points="512.2275,-140.7716 515.8651,-150.7223 519.2268,-140.675 512.2275,-140.7716"/>
</g>
<!-- Node15 -->
<g id="node11" class="node">
<title>Node15</title>
<g id="a_node11"><a xlink:href="io1__xplained__params_8h.html" target="_top" xlink:title="Default configuration for IO1 Xplained. ">
<polygon fill="#ffffff" stroke="#000000" points="585.5,-67.5 585.5,-108.5 700.5,-108.5 700.5,-67.5 585.5,-67.5"/>
<text text-anchor="start" x="593.5" y="-96.5" font-family="Helvetica,sans-Serif" font-size="10.00" fill="#000000">drivers/io1_xplained</text>
<text text-anchor="start" x="593.5" y="-85.5" font-family="Helvetica,sans-Serif" font-size="10.00" fill="#000000">/include/io1_xplained</text>
<text text-anchor="middle" x="643" y="-74.5" font-family="Helvetica,sans-Serif" font-size="10.00" fill="#000000">_params.h</text>
</a>
</g>
</g>
<!-- Node14&#45;&gt;Node15 -->
<g id="edge10" class="edge">
<title>Node14&#45;&gt;Node15</title>
<path fill="none" stroke="#191970" d="M643,-135.4016C643,-126.6173 643,-116.8652 643,-108.5015"/>
<polygon fill="#191970" stroke="#191970" points="639.5001,-135.4779 643,-145.478 646.5001,-135.478 639.5001,-135.4779"/>
</g>
<!-- Node17 -->
<g id="node13" class="node">
<title>Node17</title>
<g id="a_node13"><a xlink:href="jc42__params_8h.html" target="_top" xlink:title="Default configuration for jc42. ">
<polygon fill="#ffffff" stroke="#000000" points="718.5,-73 718.5,-103 827.5,-103 827.5,-73 718.5,-73"/>
<text text-anchor="start" x="726.5" y="-91" font-family="Helvetica,sans-Serif" font-size="10.00" fill="#000000">drivers/jc42/include</text>
<text text-anchor="middle" x="773" y="-80" font-family="Helvetica,sans-Serif" font-size="10.00" fill="#000000">/jc42_params.h</text>
</a>
</g>
</g>
<!-- Node16&#45;&gt;Node17 -->
<g id="edge12" class="edge">
<title>Node16&#45;&gt;Node17</title>
<path fill="none" stroke="#191970" d="M772.2756,-140.5177C772.4384,-128.7164 772.6412,-114.013 772.7908,-103.168"/>
<polygon fill="#191970" stroke="#191970" points="768.7732,-140.675 772.1349,-150.7223 775.7725,-140.7716 768.7732,-140.675"/>
</g>
<!-- Node19 -->
<g id="node15" class="node">
<title>Node19</title>
<g id="a_node15"><a xlink:href="lis2dh12__params_8h.html" target="_top" xlink:title="Default configuration for LIS2DH12 devices. ">
<polygon fill="#ffffff" stroke="#000000" points="853.5,-73 853.5,-103 982.5,-103 982.5,-73 853.5,-73"/>
<text text-anchor="start" x="861.5" y="-91" font-family="Helvetica,sans-Serif" font-size="10.00" fill="#000000">drivers/lis2dh12/include</text>
<text text-anchor="middle" x="918" y="-80" font-family="Helvetica,sans-Serif" font-size="10.00" fill="#000000">/lis2dh12_params.h</text>
</a>
</g>
</g>
<!-- Node18&#45;&gt;Node19 -->
<g id="edge14" class="edge">
<title>Node18&#45;&gt;Node19</title>
<path fill="none" stroke="#191970" d="M918,-140.5177C918,-128.7164 918,-114.013 918,-103.168"/>
<polygon fill="#191970" stroke="#191970" points="914.5001,-140.7223 918,-150.7223 921.5001,-140.7224 914.5001,-140.7223"/>
</g>
<!-- Node21 -->
<g id="node17" class="node">
<title>Node21</title>
<g id="a_node17"><a xlink:href="mhz19__params_8h.html" target="_top" xlink:title="Default configuration for MH&#45;Z19. ">
<polygon fill="#ffffff" stroke="#000000" points="1010,-73 1010,-103 1132,-103 1132,-73 1010,-73"/>
<text text-anchor="start" x="1018" y="-91" font-family="Helvetica,sans-Serif" font-size="10.00" fill="#000000">drivers/mhz19/include</text>
<text text-anchor="middle" x="1071" y="-80" font-family="Helvetica,sans-Serif" font-size="10.00" fill="#000000">/mhz19_params.h</text>
</a>
</g>
</g>
<!-- Node20&#45;&gt;Node21 -->
<g id="edge16" class="edge">
<title>Node20&#45;&gt;Node21</title>
<path fill="none" stroke="#191970" d="M1071,-140.5177C1071,-128.7164 1071,-114.013 1071,-103.168"/>
<polygon fill="#191970" stroke="#191970" points="1067.5001,-140.7223 1071,-150.7223 1074.5001,-140.7224 1067.5001,-140.7223"/>
</g>
<!-- Node23 -->
<g id="node19" class="node">
<title>Node23</title>
<g id="a_node19"><a xlink:href="scd30__params_8h.html" target="_top" xlink:title="Device driver params interface for the SCD30 sensor. ">
<polygon fill="#ffffff" stroke="#000000" points="1159.5,-73 1159.5,-103 1276.5,-103 1276.5,-73 1159.5,-73"/>
<text text-anchor="start" x="1167.5" y="-91" font-family="Helvetica,sans-Serif" font-size="10.00" fill="#000000">drivers/scd30/include</text>
<text text-anchor="middle" x="1218" y="-80" font-family="Helvetica,sans-Serif" font-size="10.00" fill="#000000">/scd30_params.h</text>
</a>
</g>
</g>
<!-- Node22&#45;&gt;Node23 -->
<g id="edge18" class="edge">
<title>Node22&#45;&gt;Node23</title>
<path fill="none" stroke="#191970" d="M1218,-140.5177C1218,-128.7164 1218,-114.013 1218,-103.168"/>
<polygon fill="#191970" stroke="#191970" points="1214.5001,-140.7223 1218,-150.7223 1221.5001,-140.7224 1214.5001,-140.7223"/>
</g>
<!-- Node25 -->
<g id="node21" class="node">
<title>Node25</title>
<g id="a_node21"><a xlink:href="sdp3x__params_8h.html" target="_top" xlink:title="Device driver params interface for the SDP3x sensor. ">
<polygon fill="#ffffff" stroke="#000000" points="1304,-73 1304,-103 1422,-103 1422,-73 1304,-73"/>
<text text-anchor="start" x="1312" y="-91" font-family="Helvetica,sans-Serif" font-size="10.00" fill="#000000">drivers/sdp3x/include</text>
<text text-anchor="middle" x="1363" y="-80" font-family="Helvetica,sans-Serif" font-size="10.00" fill="#000000">/sdp3x_params.h</text>
</a>
</g>
</g>
<!-- Node24&#45;&gt;Node25 -->
<g id="edge20" class="edge">
<title>Node24&#45;&gt;Node25</title>
<path fill="none" stroke="#191970" d="M1363,-140.5177C1363,-128.7164 1363,-114.013 1363,-103.168"/>
<polygon fill="#191970" stroke="#191970" points="1359.5001,-140.7223 1363,-150.7223 1366.5001,-140.7224 1359.5001,-140.7223"/>
</g>
<!-- Node27 -->
<g id="node23" class="node">
<title>Node27</title>
<g id="a_node23"><a xlink:href="servo__params_8h.html" target="_top" xlink:title="Default configuration for servo devices. ">
<polygon fill="#ffffff" stroke="#000000" points="1449,-73 1449,-103 1565,-103 1565,-73 1449,-73"/>
<text text-anchor="start" x="1457" y="-91" font-family="Helvetica,sans-Serif" font-size="10.00" fill="#000000">drivers/servo/include</text>
<text text-anchor="middle" x="1507" y="-80" font-family="Helvetica,sans-Serif" font-size="10.00" fill="#000000">/servo_params.h</text>
</a>
</g>
</g>
<!-- Node26&#45;&gt;Node27 -->
<g id="edge22" class="edge">
<title>Node26&#45;&gt;Node27</title>
<path fill="none" stroke="#191970" d="M1507,-140.5177C1507,-128.7164 1507,-114.013 1507,-103.168"/>
<polygon fill="#191970" stroke="#191970" points="1503.5001,-140.7223 1507,-150.7223 1510.5001,-140.7224 1503.5001,-140.7223"/>
</g>
<!-- Node29 -->
<g id="node25" class="node">
<title>Node29</title>
<g id="a_node25"><a xlink:href="shtcx__params_8h.html" target="_top" xlink:title="Default parameters for the SHTCX Temperature and humidity sensor. ">
<polygon fill="#ffffff" stroke="#000000" points="1590,-73 1590,-103 1704,-103 1704,-73 1590,-73"/>
<text text-anchor="start" x="1598" y="-91" font-family="Helvetica,sans-Serif" font-size="10.00" fill="#000000">drivers/shtcx/include</text>
<text text-anchor="middle" x="1647" y="-80" font-family="Helvetica,sans-Serif" font-size="10.00" fill="#000000">/shtcx_params.h</text>
</a>
</g>
</g>
<!-- Node28&#45;&gt;Node29 -->
<g id="edge24" class="edge">
<title>Node28&#45;&gt;Node29</title>
<path fill="none" stroke="#191970" d="M1648.4488,-140.5177C1648.1232,-128.7164 1647.7176,-114.013 1647.4184,-103.168"/>
<polygon fill="#191970" stroke="#191970" points="1644.9557,-140.8227 1648.7303,-150.7223 1651.9531,-140.6296 1644.9557,-140.8227"/>
</g>
<!-- Node31 -->
<g id="node27" class="node">
<title>Node31</title>
<g id="a_node27"><a xlink:href="si114x__params_8h.html" target="_top" xlink:title="Default configuration for SI114x. ">
<polygon fill="#ffffff" stroke="#000000" points="1722,-73 1722,-103 1842,-103 1842,-73 1722,-73"/>
<text text-anchor="start" x="1730" y="-91" font-family="Helvetica,sans-Serif" font-size="10.00" fill="#000000">drivers/si114x/include</text>
<text text-anchor="middle" x="1782" y="-80" font-family="Helvetica,sans-Serif" font-size="10.00" fill="#000000">/si114x_params.h</text>
</a>
</g>
</g>
<!-- Node30&#45;&gt;Node31 -->
<g id="edge26" class="edge">
<title>Node30&#45;&gt;Node31</title>
<path fill="none" stroke="#191970" d="M1789.9682,-140.5177C1788.1777,-128.7164 1785.9468,-114.013 1784.3014,-103.168"/>
<polygon fill="#191970" stroke="#191970" points="1786.5559,-141.3605 1791.5165,-150.7223 1793.4767,-140.3104 1786.5559,-141.3605"/>
</g>
<!-- Node33 -->
<g id="node29" class="node">
<title>Node33</title>
<g id="a_node29"><a xlink:href="stmpe811__constants_8h.html" target="_top" xlink:title="Constants for STMPE811. ">
<polygon fill="#ffffff" stroke="#000000" points="1860.5,-73 1860.5,-103 1997.5,-103 1997.5,-73 1860.5,-73"/>
<text text-anchor="start" x="1868.5" y="-91" font-family="Helvetica,sans-Serif" font-size="10.00" fill="#000000">drivers/stmpe811/include</text>
<text text-anchor="middle" x="1929" y="-80" font-family="Helvetica,sans-Serif" font-size="10.00" fill="#000000">/stmpe811_constants.h</text>
</a>
</g>
</g>
<!-- Node32&#45;&gt;Node33 -->
<g id="edge28" class="edge">
<title>Node32&#45;&gt;Node33</title>
<path fill="none" stroke="#191970" d="M1943.5881,-140.8817C1940.3159,-129.02 1936.2068,-114.1248 1933.1843,-103.168"/>
<polygon fill="#191970" stroke="#191970" points="1940.2694,-142.0132 1946.3027,-150.7223 1947.0173,-140.1516 1940.2694,-142.0132"/>
</g>
<!-- Node34 -->
<g id="node30" class="node">
<title>Node34</title>
<g id="a_node30"><a xlink:href="stmpe811__params_8h.html" target="_top" xlink:title="Default configuration for STMPE811. ">
<polygon fill="#ffffff" stroke="#000000" points="1908.5,-.5 1908.5,-30.5 2045.5,-30.5 2045.5,-.5 1908.5,-.5"/>
<text text-anchor="start" x="1916.5" y="-18.5" font-family="Helvetica,sans-Serif" font-size="10.00" fill="#000000">drivers/stmpe811/include</text>
<text text-anchor="middle" x="1977" y="-7.5" font-family="Helvetica,sans-Serif" font-size="10.00" fill="#000000">/stmpe811_params.h</text>
</a>
</g>
</g>
<!-- Node32&#45;&gt;Node34 -->
<g id="edge30" class="edge">
<title>Node32&#45;&gt;Node34</title>
<path fill="none" stroke="#191970" d="M1974.2193,-145.0553C1986.2466,-136.163 1999.4214,-123.8098 2006,-109 2017.798,-82.4402 2000.8953,-49.6446 1988.3702,-30.7943"/>
<polygon fill="#191970" stroke="#191970" points="1972.0028,-142.3329 1965.7751,-150.9042 1975.9886,-148.0873 1972.0028,-142.3329"/>
</g>
<!-- Node33&#45;&gt;Node34 -->
<g id="edge29" class="edge">
<title>Node33&#45;&gt;Node34</title>
<path fill="none" stroke="#191970" d="M1944.55,-64.513C1951.9461,-53.3418 1960.5696,-40.3167 1967.0671,-30.5028"/>
<polygon fill="#191970" stroke="#191970" points="1941.5477,-62.7076 1938.9456,-72.978 1947.3845,-66.5719 1941.5477,-62.7076"/>
</g>
<!-- Node36 -->
<g id="node32" class="node">
<title>Node36</title>
<g id="a_node32"><a xlink:href="tsl2561__params_8h.html" target="_top" xlink:title="Default configuration for TSL2561. ">
<polygon fill="#ffffff" stroke="#000000" points="2054.5,-73 2054.5,-103 2179.5,-103 2179.5,-73 2054.5,-73"/>
<text text-anchor="start" x="2062.5" y="-91" font-family="Helvetica,sans-Serif" font-size="10.00" fill="#000000">drivers/tsl2561/include</text>
<text text-anchor="middle" x="2117" y="-80" font-family="Helvetica,sans-Serif" font-size="10.00" fill="#000000">/tsl2561_params.h</text>
</a>
</g>
</g>
<!-- Node35&#45;&gt;Node36 -->
<g id="edge32" class="edge">
<title>Node35&#45;&gt;Node36</title>
<path fill="none" stroke="#191970" d="M2109.7562,-140.5177C2111.3839,-128.7164 2113.412,-114.013 2114.9079,-103.168"/>
<polygon fill="#191970" stroke="#191970" points="2106.2479,-140.3379 2108.3486,-150.7223 2113.1823,-141.2944 2106.2479,-140.3379"/>
</g>
<!-- Node38 -->
<g id="node34" class="node">
<title>Node38</title>
<g id="a_node34"><a xlink:href="vcnl40x0__params_8h.html" target="_top" xlink:title="Default configuration for VCNL40X0 devices. ">
<polygon fill="#ffffff" stroke="#000000" points="2197.5,-73 2197.5,-103 2328.5,-103 2328.5,-73 2197.5,-73"/>
<text text-anchor="start" x="2205.5" y="-91" font-family="Helvetica,sans-Serif" font-size="10.00" fill="#000000">drivers/vcnl40x0/include</text>
<text text-anchor="middle" x="2263" y="-80" font-family="Helvetica,sans-Serif" font-size="10.00" fill="#000000">/vcnl40x0_params.h</text>
</a>
</g>
</g>
<!-- Node37&#45;&gt;Node38 -->
<g id="edge34" class="edge">
<title>Node37&#45;&gt;Node38</title>
<path fill="none" stroke="#191970" d="M2262.2756,-140.5177C2262.4384,-128.7164 2262.6412,-114.013 2262.7908,-103.168"/>
<polygon fill="#191970" stroke="#191970" points="2258.7732,-140.675 2262.1349,-150.7223 2265.7725,-140.7716 2258.7732,-140.675"/>
</g>
<!-- Node40 -->
<g id="node36" class="node">
<title>Node40</title>
<g id="a_node36"><a xlink:href="veml6070__params_8h.html" target="_top" xlink:title="Default configuration for VEML6070. ">
<polygon fill="#ffffff" stroke="#000000" points="2354.5,-73 2354.5,-103 2491.5,-103 2491.5,-73 2354.5,-73"/>
<text text-anchor="start" x="2362.5" y="-91" font-family="Helvetica,sans-Serif" font-size="10.00" fill="#000000">drivers/veml6070/include</text>
<text text-anchor="middle" x="2423" y="-80" font-family="Helvetica,sans-Serif" font-size="10.00" fill="#000000">/veml6070_params.h</text>
</a>
</g>
</g>
<!-- Node39&#45;&gt;Node40 -->
<g id="edge36" class="edge">
<title>Node39&#45;&gt;Node40</title>
<path fill="none" stroke="#191970" d="M2423,-140.5177C2423,-128.7164 2423,-114.013 2423,-103.168"/>
<polygon fill="#191970" stroke="#191970" points="2419.5001,-140.7223 2423,-150.7223 2426.5001,-140.7224 2419.5001,-140.7223"/>
</g>
</g>
</svg>
