<?xml version="1.0" encoding="UTF-8" standalone="no"?>
<!DOCTYPE svg PUBLIC "-//W3C//DTD SVG 1.1//EN"
 "http://www.w3.org/Graphics/SVG/1.1/DTD/svg11.dtd">
<!-- Generated by graphviz version 2.40.1 (0)
 -->
<!-- Title: drivers/include/net/netdev/ieee802154.h Pages: 1 -->
<svg width="2247pt" height="240pt"
 viewBox="0.00 0.00 2246.50 240.00" xmlns="http://www.w3.org/2000/svg" xmlns:xlink="http://www.w3.org/1999/xlink">
<g id="graph0" class="graph" transform="scale(1 1) rotate(0) translate(4 236)">
<title>drivers/include/net/netdev/ieee802154.h</title>
<polygon fill="#ffffff" stroke="transparent" points="-4,4 -4,-236 2242.5,-236 2242.5,4 -4,4"/>
<!-- Node30 -->
<g id="node1" class="node">
<title>Node30</title>
<polygon fill="#bfbfbf" stroke="#000000" points="1363.5,-201.5 1363.5,-231.5 1485.5,-231.5 1485.5,-201.5 1363.5,-201.5"/>
<text text-anchor="start" x="1371.5" y="-219.5" font-family="Helvetica,sans-Serif" font-size="10.00" fill="#000000">drivers/include/net</text>
<text text-anchor="middle" x="1424.5" y="-208.5" font-family="Helvetica,sans-Serif" font-size="10.00" fill="#000000">/netdev/ieee802154.h</text>
</g>
<!-- Node31 -->
<g id="node2" class="node">
<title>Node31</title>
<g id="a_node2"><a xlink:href="socket__zep_8h.html" target="_top" xlink:title="Socket ZEP definitions. ">
<polygon fill="#ffffff" stroke="#000000" points="88.5,-134.5 88.5,-164.5 190.5,-164.5 190.5,-134.5 88.5,-134.5"/>
<text text-anchor="start" x="96.5" y="-152.5" font-family="Helvetica,sans-Serif" font-size="10.00" fill="#000000">cpu/native/include</text>
<text text-anchor="middle" x="139.5" y="-141.5" font-family="Helvetica,sans-Serif" font-size="10.00" fill="#000000">/socket_zep.h</text>
</a>
</g>
</g>
<!-- Node30&#45;&gt;Node31 -->
<g id="edge1" class="edge">
<title>Node30&#45;&gt;Node31</title>
<path fill="none" stroke="#191970" d="M1353.0755,-214.9321C1172.7168,-210.6163 684.3579,-196.7133 278.5,-165 249.3297,-162.7207 216.8235,-159.1529 190.5848,-156.0147"/>
<polygon fill="#191970" stroke="#191970" points="1353.148,-218.4347 1363.2282,-215.1727 1353.3139,-211.4367 1353.148,-218.4347"/>
</g>
<!-- Node33 -->
<g id="node4" class="node">
<title>Node33</title>
<g id="a_node4"><a xlink:href="at86rf215_8h.html" target="_top" xlink:title="Interface definition for AT86RF215 based drivers. ">
<polygon fill="#ffffff" stroke="#000000" points="287.5,-140 287.5,-159 433.5,-159 433.5,-140 287.5,-140"/>
<text text-anchor="middle" x="360.5" y="-147" font-family="Helvetica,sans-Serif" font-size="10.00" fill="#000000">drivers/include/at86rf215.h</text>
</a>
</g>
</g>
<!-- Node30&#45;&gt;Node33 -->
<g id="edge3" class="edge">
<title>Node30&#45;&gt;Node33</title>
<path fill="none" stroke="#191970" d="M1353.4529,-212.0262C1160.6444,-199.885 628.9743,-166.4058 433.6854,-154.1085"/>
<polygon fill="#191970" stroke="#191970" points="1353.273,-215.5217 1363.4732,-212.6571 1353.7129,-208.5355 1353.273,-215.5217"/>
</g>
<!-- Node36 -->
<g id="node7" class="node">
<title>Node36</title>
<g id="a_node7"><a xlink:href="at86rf2xx_8h.html" target="_top" xlink:title="Interface definition for AT86RF2xx based drivers. ">
<polygon fill="#ffffff" stroke="#000000" points="635,-140 635,-159 780,-159 780,-140 635,-140"/>
<text text-anchor="middle" x="707.5" y="-147" font-family="Helvetica,sans-Serif" font-size="10.00" fill="#000000">drivers/include/at86rf2xx.h</text>
</a>
</g>
</g>
<!-- Node30&#45;&gt;Node36 -->
<g id="edge6" class="edge">
<title>Node30&#45;&gt;Node36</title>
<path fill="none" stroke="#191970" d="M1353.4063,-209.8567C1216.589,-197.0718 918.025,-169.1725 780.0605,-156.2804"/>
<polygon fill="#191970" stroke="#191970" points="1353.0867,-213.3419 1363.369,-210.7876 1353.738,-206.3723 1353.0867,-213.3419"/>
</g>
<!-- Node41 -->
<g id="node12" class="node">
<title>Node41</title>
<g id="a_node12"><a xlink:href="cc2420_8h.html" target="_top" xlink:title="Interface definition for the CC2420 driver. ">
<polygon fill="#ffffff" stroke="#000000" points="1084.5,-140 1084.5,-159 1216.5,-159 1216.5,-140 1084.5,-140"/>
<text text-anchor="middle" x="1150.5" y="-147" font-family="Helvetica,sans-Serif" font-size="10.00" fill="#000000">drivers/include/cc2420.h</text>
</a>
</g>
</g>
<!-- Node30&#45;&gt;Node41 -->
<g id="edge12" class="edge">
<title>Node30&#45;&gt;Node41</title>
<path fill="none" stroke="#191970" d="M1353.4624,-199.1295C1301.1778,-186.3446 1232.0574,-169.4429 1189.4716,-159.0296"/>
<polygon fill="#191970" stroke="#191970" points="1352.8049,-202.5718 1363.3501,-201.5473 1354.4677,-195.7721 1352.8049,-202.5718"/>
</g>
<!-- Node44 -->
<g id="node15" class="node">
<title>Node44</title>
<g id="a_node15"><a xlink:href="kw2xrf_8h.html" target="_top" xlink:title="Interface definition for the kw2xrf driver. ">
<polygon fill="#ffffff" stroke="#000000" points="1359,-140 1359,-159 1490,-159 1490,-140 1359,-140"/>
<text text-anchor="middle" x="1424.5" y="-147" font-family="Helvetica,sans-Serif" font-size="10.00" fill="#000000">drivers/include/kw2xrf.h</text>
</a>
</g>
</g>
<!-- Node30&#45;&gt;Node44 -->
<g id="edge15" class="edge">
<title>Node30&#45;&gt;Node44</title>
<path fill="none" stroke="#191970" d="M1424.5,-191.1199C1424.5,-179.9072 1424.5,-167.4031 1424.5,-159.055"/>
<polygon fill="#191970" stroke="#191970" points="1421.0001,-191.2966 1424.5,-201.2967 1428.0001,-191.2967 1421.0001,-191.2966"/>
</g>
<!-- Node49 -->
<g id="node20" class="node">
<title>Node49</title>
<g id="a_node20"><a xlink:href="kw41zrf_8h.html" target="_top" xlink:title="Interface definition for the kw41zrf driver. ">
<polygon fill="#ffffff" stroke="#000000" points="1618,-140 1618,-159 1755,-159 1755,-140 1618,-140"/>
<text text-anchor="middle" x="1686.5" y="-147" font-family="Helvetica,sans-Serif" font-size="10.00" fill="#000000">drivers/include/kw41zrf.h</text>
</a>
</g>
</g>
<!-- Node30&#45;&gt;Node49 -->
<g id="edge21" class="edge">
<title>Node30&#45;&gt;Node49</title>
<path fill="none" stroke="#191970" d="M1493.0663,-198.9659C1543.0228,-186.1907 1608.7905,-169.3723 1649.3301,-159.0053"/>
<polygon fill="#191970" stroke="#191970" points="1492.119,-195.5954 1483.2979,-201.4639 1493.8533,-202.3772 1492.119,-195.5954"/>
</g>
<!-- Node52 -->
<g id="node23" class="node">
<title>Node52</title>
<g id="a_node23"><a xlink:href="mrf24j40_8h.html" target="_top" xlink:title="Interface definition for MRF24J40 based drivers. ">
<polygon fill="#ffffff" stroke="#000000" points="1773,-140 1773,-159 1916,-159 1916,-140 1773,-140"/>
<text text-anchor="middle" x="1844.5" y="-147" font-family="Helvetica,sans-Serif" font-size="10.00" fill="#000000">drivers/include/mrf24j40.h</text>
</a>
</g>
</g>
<!-- Node30&#45;&gt;Node52 -->
<g id="edge25" class="edge">
<title>Node30&#45;&gt;Node52</title>
<path fill="none" stroke="#191970" d="M1495.8166,-206.4761C1564.5059,-196.6301 1671.2785,-180.8227 1763.5,-165 1774.0836,-163.1841 1785.4182,-161.1019 1796.1553,-159.0652"/>
<polygon fill="#191970" stroke="#191970" points="1494.9502,-203.0642 1485.5463,-207.9444 1495.941,-209.9938 1494.9502,-203.0642"/>
</g>
<!-- Node55 -->
<g id="node26" class="node">
<title>Node55</title>
<g id="a_node26"><a xlink:href="ieee802154__submac_8h_source.html" target="_top" xlink:title="drivers/include/net\l/netdev/ieee802154_submac.h">
<polygon fill="#ffffff" stroke="#000000" points="1934.5,-134.5 1934.5,-164.5 2096.5,-164.5 2096.5,-134.5 1934.5,-134.5"/>
<text text-anchor="start" x="1942.5" y="-152.5" font-family="Helvetica,sans-Serif" font-size="10.00" fill="#000000">drivers/include/net</text>
<text text-anchor="middle" x="2015.5" y="-141.5" font-family="Helvetica,sans-Serif" font-size="10.00" fill="#000000">/netdev/ieee802154_submac.h</text>
</a>
</g>
</g>
<!-- Node30&#45;&gt;Node55 -->
<g id="edge28" class="edge">
<title>Node30&#45;&gt;Node55</title>
<path fill="none" stroke="#191970" d="M1495.5984,-210.7269C1592.8772,-202.4782 1772.8141,-185.9708 1925.5,-165 1928.3274,-164.6117 1931.2021,-164.2013 1934.1035,-163.774"/>
<polygon fill="#191970" stroke="#191970" points="1495.2564,-207.2433 1485.586,-211.5715 1495.8448,-214.2185 1495.2564,-207.2433"/>
</g>
<!-- Node56 -->
<g id="node27" class="node">
<title>Node56</title>
<g id="a_node27"><a xlink:href="netdev__test_8h.html" target="_top" xlink:title="netdev dummy test driver definitions ">
<polygon fill="#ffffff" stroke="#000000" points="2114.5,-134.5 2114.5,-164.5 2238.5,-164.5 2238.5,-134.5 2114.5,-134.5"/>
<text text-anchor="start" x="2122.5" y="-152.5" font-family="Helvetica,sans-Serif" font-size="10.00" fill="#000000">sys/include/net/netdev</text>
<text text-anchor="middle" x="2176.5" y="-141.5" font-family="Helvetica,sans-Serif" font-size="10.00" fill="#000000">_test.h</text>
</a>
</g>
</g>
<!-- Node30&#45;&gt;Node56 -->
<g id="edge29" class="edge">
<title>Node30&#45;&gt;Node56</title>
<path fill="none" stroke="#191970" d="M1496.0202,-214.3714C1620.4732,-209.9375 1884.6952,-197.2901 2105.5,-165 2108.3713,-164.5801 2111.2998,-164.1105 2114.252,-163.6036"/>
<polygon fill="#191970" stroke="#191970" points="1495.7314,-210.8793 1485.8596,-214.7262 1495.9757,-217.875 1495.7314,-210.8793"/>
</g>
<!-- Node32 -->
<g id="node3" class="node">
<title>Node32</title>
<g id="a_node3"><a xlink:href="socket__zep__params_8h.html" target="_top" xlink:title="Configuration parameters for the Socket&#45;based ZEP driver. ">
<polygon fill="#ffffff" stroke="#000000" points="0,-67.5 0,-97.5 119,-97.5 119,-67.5 0,-67.5"/>
<text text-anchor="start" x="8" y="-85.5" font-family="Helvetica,sans-Serif" font-size="10.00" fill="#000000">cpu/native/include</text>
<text text-anchor="middle" x="59.5" y="-74.5" font-family="Helvetica,sans-Serif" font-size="10.00" fill="#000000">/socket_zep_params.h</text>
</a>
</g>
</g>
<!-- Node31&#45;&gt;Node32 -->
<g id="edge2" class="edge">
<title>Node31&#45;&gt;Node32</title>
<path fill="none" stroke="#191970" d="M113.5667,-127.7808C101.8144,-117.9383 88.2056,-106.541 77.5814,-97.6432"/>
<polygon fill="#191970" stroke="#191970" points="111.433,-130.5592 121.3468,-134.2967 115.9275,-125.1927 111.433,-130.5592"/>
</g>
<!-- Node34 -->
<g id="node5" class="node">
<title>Node34</title>
<g id="a_node5"><a xlink:href="at86rf215__internal_8h.html" target="_top" xlink:title="Low&#45;Level functions for the AT86RF215 driver. ">
<polygon fill="#ffffff" stroke="#000000" points="137,-67.5 137,-97.5 274,-97.5 274,-67.5 137,-67.5"/>
<text text-anchor="start" x="145" y="-85.5" font-family="Helvetica,sans-Serif" font-size="10.00" fill="#000000">drivers/at86rf215/include</text>
<text text-anchor="middle" x="205.5" y="-74.5" font-family="Helvetica,sans-Serif" font-size="10.00" fill="#000000">/at86rf215_internal.h</text>
</a>
</g>
</g>
<!-- Node33&#45;&gt;Node34 -->
<g id="edge4" class="edge">
<title>Node33&#45;&gt;Node34</title>
<path fill="none" stroke="#191970" d="M328.9824,-135.8763C303.224,-124.742 266.8499,-109.019 240.2518,-97.5218"/>
<polygon fill="#191970" stroke="#191970" points="327.7244,-139.1454 338.2923,-139.9005 330.5019,-132.72 327.7244,-139.1454"/>
</g>
<!-- Node35 -->
<g id="node6" class="node">
<title>Node35</title>
<g id="a_node6"><a xlink:href="at86rf215__params_8h.html" target="_top" xlink:title="Default configuration for the AT86RF215 driver. ">
<polygon fill="#ffffff" stroke="#000000" points="292,-67.5 292,-97.5 429,-97.5 429,-67.5 292,-67.5"/>
<text text-anchor="start" x="300" y="-85.5" font-family="Helvetica,sans-Serif" font-size="10.00" fill="#000000">drivers/at86rf215/include</text>
<text text-anchor="middle" x="360.5" y="-74.5" font-family="Helvetica,sans-Serif" font-size="10.00" fill="#000000">/at86rf215_params.h</text>
</a>
</g>
</g>
<!-- Node33&#45;&gt;Node35 -->
<g id="edge5" class="edge">
<title>Node33&#45;&gt;Node35</title>
<path fill="none" stroke="#191970" d="M360.5,-129.7758C360.5,-119.4641 360.5,-107.0437 360.5,-97.5218"/>
<polygon fill="#191970" stroke="#191970" points="357.0001,-129.9005 360.5,-139.9005 364.0001,-129.9006 357.0001,-129.9005"/>
</g>
<!-- Node37 -->
<g id="node8" class="node">
<title>Node37</title>
<g id="a_node8"><a xlink:href="at86rf2xx__aes_8h.html" target="_top" xlink:title="The extended feature set of at86rf2xx transceivers comprises a hardware implementation of AES...">
<polygon fill="#ffffff" stroke="#000000" points="447.5,-67.5 447.5,-97.5 583.5,-97.5 583.5,-67.5 447.5,-67.5"/>
<text text-anchor="start" x="455.5" y="-85.5" font-family="Helvetica,sans-Serif" font-size="10.00" fill="#000000">drivers/at86rf2xx/include</text>
<text text-anchor="middle" x="515.5" y="-74.5" font-family="Helvetica,sans-Serif" font-size="10.00" fill="#000000">/at86rf2xx_aes.h</text>
</a>
</g>
</g>
<!-- Node36&#45;&gt;Node37 -->
<g id="edge7" class="edge">
<title>Node36&#45;&gt;Node37</title>
<path fill="none" stroke="#191970" d="M670.5479,-136.6052C638.5424,-125.4367 592.2204,-109.2722 558.5474,-97.5218"/>
<polygon fill="#191970" stroke="#191970" points="669.3962,-139.9103 679.9911,-139.9005 671.7026,-133.3011 669.3962,-139.9103"/>
</g>
<!-- Node38 -->
<g id="node9" class="node">
<title>Node38</title>
<g id="a_node9"><a xlink:href="at86rf2xx__internal_8h.html" target="_top" xlink:title="Internal interfaces for AT86RF2xx drivers. ">
<polygon fill="#ffffff" stroke="#000000" points="591.5,-.5 591.5,-30.5 727.5,-30.5 727.5,-.5 591.5,-.5"/>
<text text-anchor="start" x="599.5" y="-18.5" font-family="Helvetica,sans-Serif" font-size="10.00" fill="#000000">drivers/at86rf2xx/include</text>
<text text-anchor="middle" x="659.5" y="-7.5" font-family="Helvetica,sans-Serif" font-size="10.00" fill="#000000">/at86rf2xx_internal.h</text>
</a>
</g>
</g>
<!-- Node36&#45;&gt;Node38 -->
<g id="edge8" class="edge">
<title>Node36&#45;&gt;Node38</title>
<path fill="none" stroke="#191970" d="M672.575,-135.4793C656.7039,-127.1339 639.4954,-114.8383 630.5,-98 618.6248,-75.771 634.3439,-47.6813 646.8641,-30.6782"/>
<polygon fill="#191970" stroke="#191970" points="671.1723,-138.6894 681.6929,-139.941 674.249,-132.4018 671.1723,-138.6894"/>
</g>
<!-- Node39 -->
<g id="node10" class="node">
<title>Node39</title>
<g id="a_node10"><a xlink:href="at86rf2xx__registers_8h.html" target="_top" xlink:title="Register and command definitions for AT86RF2xx devices. ">
<polygon fill="#ffffff" stroke="#000000" points="639.5,-67.5 639.5,-97.5 775.5,-97.5 775.5,-67.5 639.5,-67.5"/>
<text text-anchor="start" x="647.5" y="-85.5" font-family="Helvetica,sans-Serif" font-size="10.00" fill="#000000">drivers/at86rf2xx/include</text>
<text text-anchor="middle" x="707.5" y="-74.5" font-family="Helvetica,sans-Serif" font-size="10.00" fill="#000000">/at86rf2xx_registers.h</text>
</a>
</g>
</g>
<!-- Node36&#45;&gt;Node39 -->
<g id="edge9" class="edge">
<title>Node36&#45;&gt;Node39</title>
<path fill="none" stroke="#191970" d="M707.5,-129.7758C707.5,-119.4641 707.5,-107.0437 707.5,-97.5218"/>
<polygon fill="#191970" stroke="#191970" points="704.0001,-129.9005 707.5,-139.9005 711.0001,-129.9006 704.0001,-129.9005"/>
</g>
<!-- Node40 -->
<g id="node11" class="node">
<title>Node40</title>
<g id="a_node11"><a xlink:href="at86rf2xx__params_8h.html" target="_top" xlink:title="Default configuration for the AT86RF2xx driver. ">
<polygon fill="#ffffff" stroke="#000000" points="793.5,-67.5 793.5,-97.5 929.5,-97.5 929.5,-67.5 793.5,-67.5"/>
<text text-anchor="start" x="801.5" y="-85.5" font-family="Helvetica,sans-Serif" font-size="10.00" fill="#000000">drivers/at86rf2xx/include</text>
<text text-anchor="middle" x="861.5" y="-74.5" font-family="Helvetica,sans-Serif" font-size="10.00" fill="#000000">/at86rf2xx_params.h</text>
</a>
</g>
</g>
<!-- Node36&#45;&gt;Node40 -->
<g id="edge11" class="edge">
<title>Node36&#45;&gt;Node40</title>
<path fill="none" stroke="#191970" d="M738.8143,-135.8763C764.4065,-124.742 800.546,-109.019 826.9724,-97.5218"/>
<polygon fill="#191970" stroke="#191970" points="737.3379,-132.7016 729.5644,-139.9005 740.1305,-139.1205 737.3379,-132.7016"/>
</g>
<!-- Node39&#45;&gt;Node38 -->
<g id="edge10" class="edge">
<title>Node39&#45;&gt;Node38</title>
<path fill="none" stroke="#191970" d="M690.709,-59.0626C683.9524,-49.6315 676.3556,-39.0276 670.3488,-30.6432"/>
<polygon fill="#191970" stroke="#191970" points="687.939,-61.2059 696.6081,-67.2967 693.6294,-57.1292 687.939,-61.2059"/>
</g>
<!-- Node42 -->
<g id="node13" class="node">
<title>Node42</title>
<g id="a_node13"><a xlink:href="cc2420__internal_8h.html" target="_top" xlink:title="Definitions and settings for the cc2420. ">
<polygon fill="#ffffff" stroke="#000000" points="948,-67.5 948,-97.5 1071,-97.5 1071,-67.5 948,-67.5"/>
<text text-anchor="start" x="956" y="-85.5" font-family="Helvetica,sans-Serif" font-size="10.00" fill="#000000">drivers/cc2420/include</text>
<text text-anchor="middle" x="1009.5" y="-74.5" font-family="Helvetica,sans-Serif" font-size="10.00" fill="#000000">/cc2420_internal.h</text>
</a>
</g>
</g>
<!-- Node41&#45;&gt;Node42 -->
<g id="edge13" class="edge">
<title>Node41&#45;&gt;Node42</title>
<path fill="none" stroke="#191970" d="M1121.2076,-135.5809C1097.815,-124.4653 1065.0954,-108.9177 1041.113,-97.5218"/>
<polygon fill="#191970" stroke="#191970" points="1119.7638,-138.7699 1130.2981,-139.9005 1122.7681,-132.4473 1119.7638,-138.7699"/>
</g>
<!-- Node43 -->
<g id="node14" class="node">
<title>Node43</title>
<g id="a_node14"><a xlink:href="cc2420__params_8h.html" target="_top" xlink:title="Default configuration for the CC2420 driver. ">
<polygon fill="#ffffff" stroke="#000000" points="1089,-67.5 1089,-97.5 1212,-97.5 1212,-67.5 1089,-67.5"/>
<text text-anchor="start" x="1097" y="-85.5" font-family="Helvetica,sans-Serif" font-size="10.00" fill="#000000">drivers/cc2420/include</text>
<text text-anchor="middle" x="1150.5" y="-74.5" font-family="Helvetica,sans-Serif" font-size="10.00" fill="#000000">/cc2420_params.h</text>
</a>
</g>
</g>
<!-- Node41&#45;&gt;Node43 -->
<g id="edge14" class="edge">
<title>Node41&#45;&gt;Node43</title>
<path fill="none" stroke="#191970" d="M1150.5,-129.7758C1150.5,-119.4641 1150.5,-107.0437 1150.5,-97.5218"/>
<polygon fill="#191970" stroke="#191970" points="1147.0001,-129.9005 1150.5,-139.9005 1154.0001,-129.9006 1147.0001,-129.9005"/>
</g>
<!-- Node45 -->
<g id="node16" class="node">
<title>Node45</title>
<g id="a_node16"><a xlink:href="kw2xrf__getset_8h.html" target="_top" xlink:title="get/set interfaces for kw2xrf driver ">
<polygon fill="#ffffff" stroke="#000000" points="1230.5,-67.5 1230.5,-97.5 1352.5,-97.5 1352.5,-67.5 1230.5,-67.5"/>
<text text-anchor="start" x="1238.5" y="-85.5" font-family="Helvetica,sans-Serif" font-size="10.00" fill="#000000">drivers/kw2xrf/include</text>
<text text-anchor="middle" x="1291.5" y="-74.5" font-family="Helvetica,sans-Serif" font-size="10.00" fill="#000000">/kw2xrf_getset.h</text>
</a>
</g>
</g>
<!-- Node44&#45;&gt;Node45 -->
<g id="edge16" class="edge">
<title>Node44&#45;&gt;Node45</title>
<path fill="none" stroke="#191970" d="M1396.2791,-135.2834C1374.2561,-124.1892 1343.74,-108.8164 1321.3193,-97.5218"/>
<polygon fill="#191970" stroke="#191970" points="1394.9389,-138.5273 1405.4443,-139.9005 1398.0882,-132.2757 1394.9389,-138.5273"/>
</g>
<!-- Node46 -->
<g id="node17" class="node">
<title>Node46</title>
<g id="a_node17"><a xlink:href="kw2xrf__tm_8h.html" target="_top" xlink:title="Testing interfaces for kw2xrf driver. ">
<polygon fill="#ffffff" stroke="#000000" points="1274.5,-.5 1274.5,-30.5 1396.5,-30.5 1396.5,-.5 1274.5,-.5"/>
<text text-anchor="start" x="1282.5" y="-18.5" font-family="Helvetica,sans-Serif" font-size="10.00" fill="#000000">drivers/kw2xrf/include</text>
<text text-anchor="middle" x="1335.5" y="-7.5" font-family="Helvetica,sans-Serif" font-size="10.00" fill="#000000">/kw2xrf_tm.h</text>
</a>
</g>
</g>
<!-- Node44&#45;&gt;Node46 -->
<g id="edge20" class="edge">
<title>Node44&#45;&gt;Node46</title>
<path fill="none" stroke="#191970" d="M1412.5238,-131.4684C1394.8343,-104.8347 1362.0389,-55.4575 1345.5364,-30.611"/>
<polygon fill="#191970" stroke="#191970" points="1409.6511,-133.4694 1418.0993,-139.8631 1415.4822,-129.5965 1409.6511,-133.4694"/>
</g>
<!-- Node47 -->
<g id="node18" class="node">
<title>Node47</title>
<g id="a_node18"><a xlink:href="kw2xrf__intern_8h.html" target="_top" xlink:title="Internal function interfaces for kw2xrf driver. ">
<polygon fill="#ffffff" stroke="#000000" points="1408.5,-67.5 1408.5,-97.5 1530.5,-97.5 1530.5,-67.5 1408.5,-67.5"/>
<text text-anchor="start" x="1416.5" y="-85.5" font-family="Helvetica,sans-Serif" font-size="10.00" fill="#000000">drivers/kw2xrf/include</text>
<text text-anchor="middle" x="1469.5" y="-74.5" font-family="Helvetica,sans-Serif" font-size="10.00" fill="#000000">/kw2xrf_intern.h</text>
</a>
</g>
</g>
<!-- Node44&#45;&gt;Node47 -->
<g id="edge18" class="edge">
<title>Node44&#45;&gt;Node47</title>
<path fill="none" stroke="#191970" d="M1436.6549,-131.4026C1443.7804,-120.7936 1452.6753,-107.5502 1459.4108,-97.5218"/>
<polygon fill="#191970" stroke="#191970" points="1433.6175,-129.6477 1430.9474,-139.9005 1439.4285,-133.5506 1433.6175,-129.6477"/>
</g>
<!-- Node48 -->
<g id="node19" class="node">
<title>Node48</title>
<g id="a_node19"><a xlink:href="kw2xrf__params_8h.html" target="_top" xlink:title="Default configuration for the KW2XRF driver. ">
<polygon fill="#ffffff" stroke="#000000" points="1548.5,-67.5 1548.5,-97.5 1670.5,-97.5 1670.5,-67.5 1548.5,-67.5"/>
<text text-anchor="start" x="1556.5" y="-85.5" font-family="Helvetica,sans-Serif" font-size="10.00" fill="#000000">drivers/kw2xrf/include</text>
<text text-anchor="middle" x="1609.5" y="-74.5" font-family="Helvetica,sans-Serif" font-size="10.00" fill="#000000">/kw2xrf_params.h</text>
</a>
</g>
</g>
<!-- Node44&#45;&gt;Node48 -->
<g id="edge19" class="edge">
<title>Node44&#45;&gt;Node48</title>
<path fill="none" stroke="#191970" d="M1460.5045,-136.4605C1491.328,-125.2974 1535.7166,-109.2216 1568.022,-97.5218"/>
<polygon fill="#191970" stroke="#191970" points="1459.2165,-133.2044 1451.006,-139.9005 1461.6002,-139.7861 1459.2165,-133.2044"/>
</g>
<!-- Node45&#45;&gt;Node46 -->
<g id="edge17" class="edge">
<title>Node45&#45;&gt;Node46</title>
<path fill="none" stroke="#191970" d="M1307.0816,-58.7735C1313.2272,-49.4154 1320.1052,-38.9421 1325.5552,-30.6432"/>
<polygon fill="#191970" stroke="#191970" points="1304.0481,-57.0167 1301.4843,-67.2967 1309.8992,-60.8592 1304.0481,-57.0167"/>
</g>
<!-- Node50 -->
<g id="node21" class="node">
<title>Node50</title>
<g id="a_node21"><a xlink:href="kw41zrf__getset_8h.html" target="_top" xlink:title="get/set interfaces for kw41zrf driver ">
<polygon fill="#ffffff" stroke="#000000" points="1688.5,-67.5 1688.5,-97.5 1816.5,-97.5 1816.5,-67.5 1688.5,-67.5"/>
<text text-anchor="start" x="1696.5" y="-85.5" font-family="Helvetica,sans-Serif" font-size="10.00" fill="#000000">drivers/kw41zrf/include</text>
<text text-anchor="middle" x="1752.5" y="-74.5" font-family="Helvetica,sans-Serif" font-size="10.00" fill="#000000">/kw41zrf_getset.h</text>
</a>
</g>
</g>
<!-- Node49&#45;&gt;Node50 -->
<g id="edge22" class="edge">
<title>Node49&#45;&gt;Node50</title>
<path fill="none" stroke="#191970" d="M1703.0736,-132.6753C1713.7185,-121.8691 1727.4246,-107.9553 1737.7024,-97.5218"/>
<polygon fill="#191970" stroke="#191970" points="1700.4805,-130.3203 1695.9562,-139.9005 1705.4673,-135.2327 1700.4805,-130.3203"/>
</g>
<!-- Node51 -->
<g id="node22" class="node">
<title>Node51</title>
<g id="a_node22"><a xlink:href="kw41zrf__intern_8h.html" target="_top" xlink:title="Internal function interfaces for kw41zrf driver. ">
<polygon fill="#ffffff" stroke="#000000" points="1734.5,-.5 1734.5,-30.5 1862.5,-30.5 1862.5,-.5 1734.5,-.5"/>
<text text-anchor="start" x="1742.5" y="-18.5" font-family="Helvetica,sans-Serif" font-size="10.00" fill="#000000">drivers/kw41zrf/include</text>
<text text-anchor="middle" x="1798.5" y="-7.5" font-family="Helvetica,sans-Serif" font-size="10.00" fill="#000000">/kw41zrf_intern.h</text>
</a>
</g>
</g>
<!-- Node49&#45;&gt;Node51 -->
<g id="edge24" class="edge">
<title>Node49&#45;&gt;Node51</title>
<path fill="none" stroke="#191970" d="M1736.6489,-137.3711C1772.0081,-127.6869 1814.8848,-113.2533 1825.5,-98 1839.9623,-77.2187 1823.8149,-48.1831 1811.0046,-30.6767"/>
<polygon fill="#191970" stroke="#191970" points="1735.666,-134.0109 1726.9082,-139.9734 1737.4728,-140.7737 1735.666,-134.0109"/>
</g>
<!-- Node50&#45;&gt;Node51 -->
<g id="edge23" class="edge">
<title>Node50&#45;&gt;Node51</title>
<path fill="none" stroke="#191970" d="M1768.7898,-58.7735C1775.2148,-49.4154 1782.4054,-38.9421 1788.1032,-30.6432"/>
<polygon fill="#191970" stroke="#191970" points="1765.7128,-57.0716 1762.9381,-67.2967 1771.4836,-61.0337 1765.7128,-57.0716"/>
</g>
<!-- Node53 -->
<g id="node24" class="node">
<title>Node53</title>
<g id="a_node24"><a xlink:href="mrf24j40__internal_8h.html" target="_top" xlink:title="Internal interfaces for MRF24J40 drivers. ">
<polygon fill="#ffffff" stroke="#000000" points="1872.5,-67.5 1872.5,-97.5 2006.5,-97.5 2006.5,-67.5 1872.5,-67.5"/>
<text text-anchor="start" x="1880.5" y="-85.5" font-family="Helvetica,sans-Serif" font-size="10.00" fill="#000000">drivers/mrf24j40/include</text>
<text text-anchor="middle" x="1939.5" y="-74.5" font-family="Helvetica,sans-Serif" font-size="10.00" fill="#000000">/mrf24j40_internal.h</text>
</a>
</g>
</g>
<!-- Node52&#45;&gt;Node53 -->
<g id="edge26" class="edge">
<title>Node52&#45;&gt;Node53</title>
<path fill="none" stroke="#191970" d="M1866.5913,-133.9198C1882.1385,-122.955 1902.8321,-108.3605 1918.2005,-97.5218"/>
<polygon fill="#191970" stroke="#191970" points="1864.266,-131.2768 1858.1112,-139.9005 1868.3005,-136.9973 1864.266,-131.2768"/>
</g>
<!-- Node54 -->
<g id="node25" class="node">
<title>Node54</title>
<g id="a_node25"><a xlink:href="mrf24j40__params_8h.html" target="_top" xlink:title="Default configuration for the MRF24J40 driver. ">
<polygon fill="#ffffff" stroke="#000000" points="2024.5,-67.5 2024.5,-97.5 2158.5,-97.5 2158.5,-67.5 2024.5,-67.5"/>
<text text-anchor="start" x="2032.5" y="-85.5" font-family="Helvetica,sans-Serif" font-size="10.00" fill="#000000">drivers/mrf24j40/include</text>
<text text-anchor="middle" x="2091.5" y="-74.5" font-family="Helvetica,sans-Serif" font-size="10.00" fill="#000000">/mrf24j40_params.h</text>
</a>
</g>
</g>
<!-- Node52&#45;&gt;Node54 -->
<g id="edge27" class="edge">
<title>Node52&#45;&gt;Node54</title>
<path fill="none" stroke="#191970" d="M1889.3887,-137.3237C1930.584,-126.1493 1991.7502,-109.5576 2035.9974,-97.5553"/>
<polygon fill="#191970" stroke="#191970" points="1888.3617,-133.9757 1879.6268,-139.9717 1890.1943,-140.7316 1888.3617,-133.9757"/>
</g>
</g>
</svg>
