<?xml version="1.0" encoding="UTF-8" standalone="no"?>
<!DOCTYPE svg PUBLIC "-//W3C//DTD SVG 1.1//EN"
 "http://www.w3.org/Graphics/SVG/1.1/DTD/svg11.dtd">
<!-- Generated by graphviz version 2.40.1 (0)
 -->
<!-- Title: drivers/include/ds1307.h Pages: 1 -->
<svg width="563pt" height="140pt"
 viewBox="0.00 0.00 562.50 140.00" xmlns="http://www.w3.org/2000/svg" xmlns:xlink="http://www.w3.org/1999/xlink">
<g id="graph0" class="graph" transform="scale(1 1) rotate(0) translate(4 136)">
<title>drivers/include/ds1307.h</title>
<polygon fill="#ffffff" stroke="transparent" points="-4,4 -4,-136 558.5,-136 558.5,4 -4,4"/>
<!-- Node0 -->
<g id="node1" class="node">
<title>Node0</title>
<polygon fill="#bfbfbf" stroke="#000000" points="217,-112.5 217,-131.5 351,-131.5 351,-112.5 217,-112.5"/>
<text text-anchor="middle" x="284" y="-119.5" font-family="Helvetica,sans-Serif" font-size="10.00" fill="#000000">drivers/include/ds1307.h</text>
</g>
<!-- Node1 -->
<g id="node2" class="node">
<title>Node1</title>
<polygon fill="#ffffff" stroke="#bfbfbf" points="0,-.5 0,-19.5 60,-19.5 60,-.5 0,-.5"/>
<text text-anchor="middle" x="30" y="-7.5" font-family="Helvetica,sans-Serif" font-size="10.00" fill="#000000">stdbool.h</text>
</g>
<!-- Node0&#45;&gt;Node1 -->
<g id="edge1" class="edge">
<title>Node0&#45;&gt;Node1</title>
<path fill="none" stroke="#191970" d="M244.9303,-112.4712C214.9662,-104.5061 172.9555,-91.8998 138,-76 106.4968,-61.6705 72.8779,-39.9911 51.6709,-25.4296"/>
<polygon fill="#191970" stroke="#191970" points="53.5927,-22.5029 43.3845,-19.6669 49.5961,-28.2498 53.5927,-22.5029"/>
</g>
<!-- Node2 -->
<g id="node3" class="node">
<title>Node2</title>
<g id="a_node3"><a xlink:href="time_8h_source.html" target="_top" xlink:title="time.h">
<polygon fill="#ffffff" stroke="#000000" points="455.5,-56.5 455.5,-75.5 502.5,-75.5 502.5,-56.5 455.5,-56.5"/>
<text text-anchor="middle" x="479" y="-63.5" font-family="Helvetica,sans-Serif" font-size="10.00" fill="#000000">time.h</text>
</a>
</g>
</g>
<!-- Node0&#45;&gt;Node2 -->
<g id="edge2" class="edge">
<title>Node0&#45;&gt;Node2</title>
<path fill="none" stroke="#191970" d="M317.5217,-112.3733C353.3004,-102.0984 409.6583,-85.9135 445.4484,-75.6353"/>
<polygon fill="#191970" stroke="#191970" points="446.761,-78.8999 455.4064,-72.7756 444.8288,-72.1719 446.761,-78.8999"/>
</g>
<!-- Node4 -->
<g id="node5" class="node">
<title>Node4</title>
<g id="a_node5"><a xlink:href="nvram_8h.html" target="_top" xlink:title="Generic non&#45;volatile RAM driver interface. ">
<polygon fill="#ffffff" stroke="#000000" points="341,-56.5 341,-75.5 397,-75.5 397,-56.5 341,-56.5"/>
<text text-anchor="middle" x="369" y="-63.5" font-family="Helvetica,sans-Serif" font-size="10.00" fill="#000000">nvram.h</text>
</a>
</g>
</g>
<!-- Node0&#45;&gt;Node4 -->
<g id="edge5" class="edge">
<title>Node0&#45;&gt;Node4</title>
<path fill="none" stroke="#191970" d="M298.8059,-112.2455C311.7256,-103.7337 330.6931,-91.2375 345.6552,-81.3801"/>
<polygon fill="#191970" stroke="#191970" points="347.9387,-84.067 354.3638,-75.6427 344.0876,-78.2216 347.9387,-84.067"/>
</g>
<!-- Node7 -->
<g id="node8" class="node">
<title>Node7</title>
<g id="a_node8"><a xlink:href="i2c_8h.html" target="_top" xlink:title="Low&#45;level I2C peripheral driver interface definition. ">
<polygon fill="#ffffff" stroke="#000000" points="247.5,-56.5 247.5,-75.5 320.5,-75.5 320.5,-56.5 247.5,-56.5"/>
<text text-anchor="middle" x="284" y="-63.5" font-family="Helvetica,sans-Serif" font-size="10.00" fill="#000000">periph/i2c.h</text>
</a>
</g>
</g>
<!-- Node0&#45;&gt;Node7 -->
<g id="edge8" class="edge">
<title>Node0&#45;&gt;Node7</title>
<path fill="none" stroke="#191970" d="M284,-112.2455C284,-104.9382 284,-94.6944 284,-85.7046"/>
<polygon fill="#191970" stroke="#191970" points="287.5001,-85.6426 284,-75.6427 280.5001,-85.6427 287.5001,-85.6426"/>
</g>
<!-- Node11 -->
<g id="node12" class="node">
<title>Node11</title>
<g id="a_node12"><a xlink:href="drivers_2include_2periph_2gpio_8h.html" target="_top" xlink:title="Low&#45;level GPIO peripheral driver interface definitions. ">
<polygon fill="#ffffff" stroke="#000000" points="147,-56.5 147,-75.5 227,-75.5 227,-56.5 147,-56.5"/>
<text text-anchor="middle" x="187" y="-63.5" font-family="Helvetica,sans-Serif" font-size="10.00" fill="#000000">periph/gpio.h</text>
</a>
</g>
</g>
<!-- Node0&#45;&gt;Node11 -->
<g id="edge14" class="edge">
<title>Node0&#45;&gt;Node11</title>
<path fill="none" stroke="#191970" d="M267.1039,-112.2455C252.082,-103.5731 229.8957,-90.7645 212.679,-80.825"/>
<polygon fill="#191970" stroke="#191970" points="214.1128,-77.6114 203.7025,-75.6427 210.6129,-83.6737 214.1128,-77.6114"/>
</g>
<!-- Node2&#45;&gt;Node2 -->
<g id="edge4" class="edge">
<title>Node2&#45;&gt;Node2</title>
<path fill="none" stroke="#191970" d="M496.9158,-75.5746C508.867,-78.2697 520.5,-75.0781 520.5,-66 520.5,-59.546 514.6203,-56.0673 506.9267,-55.5639"/>
<polygon fill="#191970" stroke="#191970" points="506.5789,-52.0808 496.9158,-56.4254 507.1791,-59.055 506.5789,-52.0808"/>
</g>
<!-- Node3 -->
<g id="node4" class="node">
<title>Node3</title>
<polygon fill="#ffffff" stroke="#bfbfbf" points="485.5,-.5 485.5,-19.5 554.5,-19.5 554.5,-.5 485.5,-.5"/>
<text text-anchor="middle" x="520" y="-7.5" font-family="Helvetica,sans-Serif" font-size="10.00" fill="#000000">sys/types.h</text>
</g>
<!-- Node2&#45;&gt;Node3 -->
<g id="edge3" class="edge">
<title>Node2&#45;&gt;Node3</title>
<path fill="none" stroke="#191970" d="M486.1417,-56.2455C491.8444,-48.4564 499.99,-37.3308 506.8625,-27.9439"/>
<polygon fill="#191970" stroke="#191970" points="509.8568,-29.7789 512.9402,-19.6427 504.2087,-25.6437 509.8568,-29.7789"/>
</g>
<!-- Node5 -->
<g id="node6" class="node">
<title>Node5</title>
<polygon fill="#ffffff" stroke="#bfbfbf" points="415,-.5 415,-19.5 467,-19.5 467,-.5 415,-.5"/>
<text text-anchor="middle" x="441" y="-7.5" font-family="Helvetica,sans-Serif" font-size="10.00" fill="#000000">stdint.h</text>
</g>
<!-- Node4&#45;&gt;Node5 -->
<g id="edge6" class="edge">
<title>Node4&#45;&gt;Node5</title>
<path fill="none" stroke="#191970" d="M381.5414,-56.2455C392.2787,-47.8943 407.9473,-35.7076 420.5047,-25.9408"/>
<polygon fill="#191970" stroke="#191970" points="422.8575,-28.5449 428.6023,-19.6427 418.5599,-23.0194 422.8575,-28.5449"/>
</g>
<!-- Node6 -->
<g id="node7" class="node">
<title>Node6</title>
<polygon fill="#ffffff" stroke="#bfbfbf" points="341,-.5 341,-19.5 397,-19.5 397,-.5 341,-.5"/>
<text text-anchor="middle" x="369" y="-7.5" font-family="Helvetica,sans-Serif" font-size="10.00" fill="#000000">stddef.h</text>
</g>
<!-- Node4&#45;&gt;Node6 -->
<g id="edge7" class="edge">
<title>Node4&#45;&gt;Node6</title>
<path fill="none" stroke="#191970" d="M369,-56.2455C369,-48.9382 369,-38.6944 369,-29.7046"/>
<polygon fill="#191970" stroke="#191970" points="372.5001,-29.6426 369,-19.6427 365.5001,-29.6427 372.5001,-29.6426"/>
</g>
<!-- Node7&#45;&gt;Node5 -->
<g id="edge9" class="edge">
<title>Node7&#45;&gt;Node5</title>
<path fill="none" stroke="#191970" d="M310.9893,-56.3733C337.0268,-47.086 376.6011,-32.9703 405.2478,-22.7524"/>
<polygon fill="#191970" stroke="#191970" points="406.6417,-25.9712 414.8846,-19.315 404.29,-19.3781 406.6417,-25.9712"/>
</g>
<!-- Node7&#45;&gt;Node6 -->
<g id="edge10" class="edge">
<title>Node7&#45;&gt;Node6</title>
<path fill="none" stroke="#191970" d="M298.8059,-56.2455C311.7256,-47.7337 330.6931,-35.2375 345.6552,-25.3801"/>
<polygon fill="#191970" stroke="#191970" points="347.9387,-28.067 354.3638,-19.6427 344.0876,-22.2216 347.9387,-28.067"/>
</g>
<!-- Node8 -->
<g id="node9" class="node">
<title>Node8</title>
<polygon fill="#ffffff" stroke="#bfbfbf" points="78,-.5 78,-19.5 128,-19.5 128,-.5 78,-.5"/>
<text text-anchor="middle" x="103" y="-7.5" font-family="Helvetica,sans-Serif" font-size="10.00" fill="#000000">limits.h</text>
</g>
<!-- Node7&#45;&gt;Node8 -->
<g id="edge11" class="edge">
<title>Node7&#45;&gt;Node8</title>
<path fill="none" stroke="#191970" d="M252.885,-56.3733C220.9168,-46.4825 171.2485,-31.1156 137.9472,-20.8124"/>
<polygon fill="#191970" stroke="#191970" points="138.7632,-17.4012 128.1755,-17.7891 136.6942,-24.0885 138.7632,-17.4012"/>
</g>
<!-- Node9 -->
<g id="node10" class="node">
<title>Node9</title>
<polygon fill="#ffffff" stroke="#bfbfbf" points="146.5,-.5 146.5,-19.5 227.5,-19.5 227.5,-.5 146.5,-.5"/>
<text text-anchor="middle" x="187" y="-7.5" font-family="Helvetica,sans-Serif" font-size="10.00" fill="#000000">periph_conf.h</text>
</g>
<!-- Node7&#45;&gt;Node9 -->
<g id="edge12" class="edge">
<title>Node7&#45;&gt;Node9</title>
<path fill="none" stroke="#191970" d="M267.1039,-56.2455C252.082,-47.5731 229.8957,-34.7645 212.679,-24.825"/>
<polygon fill="#191970" stroke="#191970" points="214.1128,-21.6114 203.7025,-19.6427 210.6129,-27.6737 214.1128,-21.6114"/>
</g>
<!-- Node10 -->
<g id="node11" class="node">
<title>Node10</title>
<polygon fill="#ffffff" stroke="#bfbfbf" points="245.5,-.5 245.5,-19.5 322.5,-19.5 322.5,-.5 245.5,-.5"/>
<text text-anchor="middle" x="284" y="-7.5" font-family="Helvetica,sans-Serif" font-size="10.00" fill="#000000">periph_cpu.h</text>
</g>
<!-- Node7&#45;&gt;Node10 -->
<g id="edge13" class="edge">
<title>Node7&#45;&gt;Node10</title>
<path fill="none" stroke="#191970" d="M284,-56.2455C284,-48.9382 284,-38.6944 284,-29.7046"/>
<polygon fill="#191970" stroke="#191970" points="287.5001,-29.6426 284,-19.6427 280.5001,-29.6427 287.5001,-29.6426"/>
</g>
<!-- Node11&#45;&gt;Node1 -->
<g id="edge16" class="edge">
<title>Node11&#45;&gt;Node1</title>
<path fill="none" stroke="#191970" d="M160.0107,-56.3733C134.1301,-47.1419 94.8752,-33.1402 66.2711,-22.9375"/>
<polygon fill="#191970" stroke="#191970" points="67.2317,-19.5642 56.6371,-19.5011 64.88,-26.1573 67.2317,-19.5642"/>
</g>
<!-- Node11&#45;&gt;Node8 -->
<g id="edge15" class="edge">
<title>Node11&#45;&gt;Node8</title>
<path fill="none" stroke="#191970" d="M172.3683,-56.2455C159.6006,-47.7337 140.8562,-35.2375 126.0701,-25.3801"/>
<polygon fill="#191970" stroke="#191970" points="127.726,-22.2775 117.464,-19.6427 123.8431,-28.1019 127.726,-22.2775"/>
</g>
<!-- Node11&#45;&gt;Node9 -->
<g id="edge18" class="edge">
<title>Node11&#45;&gt;Node9</title>
<path fill="none" stroke="#191970" d="M187,-56.2455C187,-48.9382 187,-38.6944 187,-29.7046"/>
<polygon fill="#191970" stroke="#191970" points="190.5001,-29.6426 187,-19.6427 183.5001,-29.6427 190.5001,-29.6426"/>
</g>
<!-- Node11&#45;&gt;Node10 -->
<g id="edge17" class="edge">
<title>Node11&#45;&gt;Node10</title>
<path fill="none" stroke="#191970" d="M203.8961,-56.2455C218.918,-47.5731 241.1043,-34.7645 258.321,-24.825"/>
<polygon fill="#191970" stroke="#191970" points="260.3871,-27.6737 267.2975,-19.6427 256.8872,-21.6114 260.3871,-27.6737"/>
</g>
</g>
</svg>
