<?xml version="1.0" encoding="UTF-8" standalone="no"?>
<!DOCTYPE svg PUBLIC "-//W3C//DTD SVG 1.1//EN"
 "http://www.w3.org/Graphics/SVG/1.1/DTD/svg11.dtd">
<!-- Generated by graphviz version 2.40.1 (0)
 -->
<!-- Title: drivers/include/ds3234.h Pages: 1 -->
<svg width="549pt" height="196pt"
 viewBox="0.00 0.00 549.00 196.00" xmlns="http://www.w3.org/2000/svg" xmlns:xlink="http://www.w3.org/1999/xlink">
<g id="graph0" class="graph" transform="scale(1 1) rotate(0) translate(4 192)">
<title>drivers/include/ds3234.h</title>
<polygon fill="#ffffff" stroke="transparent" points="-4,4 -4,-192 545,-192 545,4 -4,4"/>
<!-- Node0 -->
<g id="node1" class="node">
<title>Node0</title>
<polygon fill="#bfbfbf" stroke="#000000" points="133,-168.5 133,-187.5 267,-187.5 267,-168.5 133,-168.5"/>
<text text-anchor="middle" x="200" y="-175.5" font-family="Helvetica,sans-Serif" font-size="10.00" fill="#000000">drivers/include/ds3234.h</text>
</g>
<!-- Node1 -->
<g id="node2" class="node">
<title>Node1</title>
<g id="a_node2"><a xlink:href="drivers_2include_2periph_2gpio_8h.html" target="_top" xlink:title="Low&#45;level GPIO peripheral driver interface definitions. ">
<polygon fill="#ffffff" stroke="#000000" points="88,-56.5 88,-75.5 168,-75.5 168,-56.5 88,-56.5"/>
<text text-anchor="middle" x="128" y="-63.5" font-family="Helvetica,sans-Serif" font-size="10.00" fill="#000000">periph/gpio.h</text>
</a>
</g>
</g>
<!-- Node0&#45;&gt;Node1 -->
<g id="edge1" class="edge">
<title>Node0&#45;&gt;Node1</title>
<path fill="none" stroke="#191970" d="M193.8613,-168.4509C181.8526,-149.7707 155.0796,-108.1238 139.6204,-84.0761"/>
<polygon fill="#191970" stroke="#191970" points="142.4749,-82.044 134.1231,-75.5249 136.5866,-85.8294 142.4749,-82.044"/>
</g>
<!-- Node6 -->
<g id="node7" class="node">
<title>Node6</title>
<g id="a_node7"><a xlink:href="spi_8h.html" target="_top" xlink:title="Low&#45;level SPI peripheral driver interface definition. ">
<polygon fill="#ffffff" stroke="#000000" points="235.5,-112.5 235.5,-131.5 308.5,-131.5 308.5,-112.5 235.5,-112.5"/>
<text text-anchor="middle" x="272" y="-119.5" font-family="Helvetica,sans-Serif" font-size="10.00" fill="#000000">periph/spi.h</text>
</a>
</g>
</g>
<!-- Node0&#45;&gt;Node6 -->
<g id="edge6" class="edge">
<title>Node0&#45;&gt;Node6</title>
<path fill="none" stroke="#191970" d="M212.5414,-168.2455C223.2787,-159.8943 238.9473,-147.7076 251.5047,-137.9408"/>
<polygon fill="#191970" stroke="#191970" points="253.8575,-140.5449 259.6023,-131.6427 249.5599,-135.0194 253.8575,-140.5449"/>
</g>
<!-- Node2 -->
<g id="node3" class="node">
<title>Node2</title>
<polygon fill="#ffffff" stroke="#bfbfbf" points="0,-.5 0,-19.5 50,-19.5 50,-.5 0,-.5"/>
<text text-anchor="middle" x="25" y="-7.5" font-family="Helvetica,sans-Serif" font-size="10.00" fill="#000000">limits.h</text>
</g>
<!-- Node1&#45;&gt;Node2 -->
<g id="edge2" class="edge">
<title>Node1&#45;&gt;Node2</title>
<path fill="none" stroke="#191970" d="M110.0588,-56.2455C93.96,-47.4928 70.1121,-34.527 51.7609,-24.5496"/>
<polygon fill="#191970" stroke="#191970" points="53.1929,-21.3444 42.7356,-19.6427 49.8493,-27.4942 53.1929,-21.3444"/>
</g>
<!-- Node3 -->
<g id="node4" class="node">
<title>Node3</title>
<polygon fill="#ffffff" stroke="#bfbfbf" points="68,-.5 68,-19.5 128,-19.5 128,-.5 68,-.5"/>
<text text-anchor="middle" x="98" y="-7.5" font-family="Helvetica,sans-Serif" font-size="10.00" fill="#000000">stdbool.h</text>
</g>
<!-- Node1&#45;&gt;Node3 -->
<g id="edge3" class="edge">
<title>Node1&#45;&gt;Node3</title>
<path fill="none" stroke="#191970" d="M122.7744,-56.2455C118.6877,-48.617 112.8865,-37.7881 107.925,-28.5267"/>
<polygon fill="#191970" stroke="#191970" points="110.9732,-26.8047 103.1657,-19.6427 104.8028,-30.1103 110.9732,-26.8047"/>
</g>
<!-- Node4 -->
<g id="node5" class="node">
<title>Node4</title>
<polygon fill="#ffffff" stroke="#bfbfbf" points="146.5,-.5 146.5,-19.5 223.5,-19.5 223.5,-.5 146.5,-.5"/>
<text text-anchor="middle" x="185" y="-7.5" font-family="Helvetica,sans-Serif" font-size="10.00" fill="#000000">periph_cpu.h</text>
</g>
<!-- Node1&#45;&gt;Node4 -->
<g id="edge4" class="edge">
<title>Node1&#45;&gt;Node4</title>
<path fill="none" stroke="#191970" d="M137.9286,-56.2455C146.1838,-48.1352 158.1209,-36.4075 167.9082,-26.7919"/>
<polygon fill="#191970" stroke="#191970" points="170.5046,-29.1476 175.1851,-19.6427 165.5989,-24.1542 170.5046,-29.1476"/>
</g>
<!-- Node5 -->
<g id="node6" class="node">
<title>Node5</title>
<polygon fill="#ffffff" stroke="#bfbfbf" points="241.5,-.5 241.5,-19.5 322.5,-19.5 322.5,-.5 241.5,-.5"/>
<text text-anchor="middle" x="282" y="-7.5" font-family="Helvetica,sans-Serif" font-size="10.00" fill="#000000">periph_conf.h</text>
</g>
<!-- Node1&#45;&gt;Node5 -->
<g id="edge5" class="edge">
<title>Node1&#45;&gt;Node5</title>
<path fill="none" stroke="#191970" d="M154.4735,-56.3733C179.8597,-47.1419 218.3645,-33.1402 246.422,-22.9375"/>
<polygon fill="#191970" stroke="#191970" points="247.6701,-26.2079 255.8719,-19.5011 245.2778,-19.6293 247.6701,-26.2079"/>
</g>
<!-- Node6&#45;&gt;Node1 -->
<g id="edge15" class="edge">
<title>Node6&#45;&gt;Node1</title>
<path fill="none" stroke="#191970" d="M247.2455,-112.3733C223.7151,-103.2226 188.1313,-89.3844 161.9574,-79.2057"/>
<polygon fill="#191970" stroke="#191970" points="163.0201,-75.8636 152.4315,-75.5011 160.4829,-82.3877 163.0201,-75.8636"/>
</g>
<!-- Node6&#45;&gt;Node3 -->
<g id="edge10" class="edge">
<title>Node6&#45;&gt;Node3</title>
<path fill="none" stroke="#191970" d="M259.0079,-112.48C240.917,-99.3386 206.9794,-75.0992 177,-56 159.8186,-45.0541 140.0058,-33.5202 124.5199,-24.7398"/>
<polygon fill="#191970" stroke="#191970" points="125.9296,-21.5168 115.499,-19.6584 122.4941,-27.6158 125.9296,-21.5168"/>
</g>
<!-- Node6&#45;&gt;Node4 -->
<g id="edge13" class="edge">
<title>Node6&#45;&gt;Node4</title>
<path fill="none" stroke="#191970" d="M264.5824,-112.4509C249.9435,-93.6054 217.1472,-51.3849 198.5486,-27.4419"/>
<polygon fill="#191970" stroke="#191970" points="201.2974,-25.2751 192.3988,-19.5249 195.7693,-29.5693 201.2974,-25.2751"/>
</g>
<!-- Node6&#45;&gt;Node5 -->
<g id="edge14" class="edge">
<title>Node6&#45;&gt;Node5</title>
<path fill="none" stroke="#191970" d="M272.8526,-112.4509C274.4836,-94.184 278.0754,-53.9553 280.2413,-29.6976"/>
<polygon fill="#191970" stroke="#191970" points="283.7463,-29.7966 281.1496,-19.5249 276.774,-29.174 283.7463,-29.7966"/>
</g>
<!-- Node7 -->
<g id="node8" class="node">
<title>Node7</title>
<g id="a_node8"><a xlink:href="endian_8h.html" target="_top" xlink:title="libc header for endian conversion ">
<polygon fill="#ffffff" stroke="#000000" points="338.5,-56.5 338.5,-75.5 395.5,-75.5 395.5,-56.5 338.5,-56.5"/>
<text text-anchor="middle" x="367" y="-63.5" font-family="Helvetica,sans-Serif" font-size="10.00" fill="#000000">endian.h</text>
</a>
</g>
</g>
<!-- Node6&#45;&gt;Node7 -->
<g id="edge7" class="edge">
<title>Node6&#45;&gt;Node7</title>
<path fill="none" stroke="#191970" d="M288.5477,-112.2455C303.2599,-103.5731 324.9888,-90.7645 341.8505,-80.825"/>
<polygon fill="#191970" stroke="#191970" points="343.8046,-83.736 350.6419,-75.6427 340.2498,-77.7057 343.8046,-83.736"/>
</g>
<!-- Node8 -->
<g id="node9" class="node">
<title>Node8</title>
<polygon fill="#ffffff" stroke="#bfbfbf" points="341,-.5 341,-19.5 393,-19.5 393,-.5 341,-.5"/>
<text text-anchor="middle" x="367" y="-7.5" font-family="Helvetica,sans-Serif" font-size="10.00" fill="#000000">stdint.h</text>
</g>
<!-- Node6&#45;&gt;Node8 -->
<g id="edge12" class="edge">
<title>Node6&#45;&gt;Node8</title>
<path fill="none" stroke="#191970" d="M280.0996,-112.4509C296.0847,-93.6054 331.8968,-51.3849 352.2056,-27.4419"/>
<polygon fill="#191970" stroke="#191970" points="355.1214,-29.415 358.9209,-19.5249 349.7831,-24.887 355.1214,-29.415"/>
</g>
<!-- Node9 -->
<g id="node10" class="node">
<title>Node9</title>
<g id="a_node10"><a xlink:href="errno_8h.html" target="_top" xlink:title="errno.h">
<polygon fill="#ffffff" stroke="#000000" points="413.5,-56.5 413.5,-75.5 466.5,-75.5 466.5,-56.5 413.5,-56.5"/>
<text text-anchor="middle" x="440" y="-63.5" font-family="Helvetica,sans-Serif" font-size="10.00" fill="#000000">errno.h</text>
</a>
</g>
</g>
<!-- Node6&#45;&gt;Node9 -->
<g id="edge9" class="edge">
<title>Node6&#45;&gt;Node9</title>
<path fill="none" stroke="#191970" d="M300.8802,-112.3733C329.4087,-102.8638 373.1237,-88.2921 403.9226,-78.0258"/>
<polygon fill="#191970" stroke="#191970" points="405.0528,-81.3385 413.4328,-74.8557 402.8391,-74.6977 405.0528,-81.3385"/>
</g>
<!-- Node10 -->
<g id="node11" class="node">
<title>Node10</title>
<polygon fill="#ffffff" stroke="#bfbfbf" points="485,-56.5 485,-75.5 541,-75.5 541,-56.5 485,-56.5"/>
<text text-anchor="middle" x="513" y="-63.5" font-family="Helvetica,sans-Serif" font-size="10.00" fill="#000000">stddef.h</text>
</g>
<!-- Node6&#45;&gt;Node10 -->
<g id="edge11" class="edge">
<title>Node6&#45;&gt;Node10</title>
<path fill="none" stroke="#191970" d="M308.5918,-114.2359C347.5061,-105.8715 411.0846,-91.8995 474.9204,-76.198"/>
<polygon fill="#191970" stroke="#191970" points="475.883,-79.5654 484.7501,-73.7667 474.2023,-72.7702 475.883,-79.5654"/>
</g>
<!-- Node7&#45;&gt;Node8 -->
<g id="edge8" class="edge">
<title>Node7&#45;&gt;Node8</title>
<path fill="none" stroke="#191970" d="M367,-56.2455C367,-48.9382 367,-38.6944 367,-29.7046"/>
<polygon fill="#191970" stroke="#191970" points="370.5001,-29.6426 367,-19.6427 363.5001,-29.6427 370.5001,-29.6426"/>
</g>
</g>
</svg>
