<?xml version="1.0" encoding="UTF-8" standalone="no"?>
<!DOCTYPE svg PUBLIC "-//W3C//DTD SVG 1.1//EN"
 "http://www.w3.org/Graphics/SVG/1.1/DTD/svg11.dtd">
<!-- Generated by graphviz version 2.40.1 (0)
 -->
<!-- Title: pkg/opendsme/include/opendsme/dsme_platform.h Pages: 1 -->
<svg width="378pt" height="375pt"
 viewBox="0.00 0.00 378.00 375.00" xmlns="http://www.w3.org/2000/svg" xmlns:xlink="http://www.w3.org/1999/xlink">
<g id="graph0" class="graph" transform="scale(1 1) rotate(0) translate(4 371)">
<title>pkg/opendsme/include/opendsme/dsme_platform.h</title>
<polygon fill="#ffffff" stroke="transparent" points="-4,4 -4,-371 374,-371 374,4 -4,4"/>
<!-- Node0 -->
<g id="node1" class="node">
<title>Node0</title>
<polygon fill="#bfbfbf" stroke="#000000" points="0,-336.5 0,-366.5 153,-366.5 153,-336.5 0,-336.5"/>
<text text-anchor="start" x="8" y="-354.5" font-family="Helvetica,sans-Serif" font-size="10.00" fill="#000000">pkg/opendsme/include</text>
<text text-anchor="middle" x="76.5" y="-343.5" font-family="Helvetica,sans-Serif" font-size="10.00" fill="#000000">/opendsme/dsme_platform.h</text>
</g>
<!-- Node1 -->
<g id="node2" class="node">
<title>Node1</title>
<g id="a_node2"><a xlink:href="assert_8h.html" target="_top" xlink:title="POSIX.1&#45;2008 compliant version of the assert macro. ">
<polygon fill="#ffffff" stroke="#000000" points="34.5,-56.5 34.5,-75.5 88.5,-75.5 88.5,-56.5 34.5,-56.5"/>
<text text-anchor="middle" x="61.5" y="-63.5" font-family="Helvetica,sans-Serif" font-size="10.00" fill="#000000">assert.h</text>
</a>
</g>
</g>
<!-- Node0&#45;&gt;Node1 -->
<g id="edge1" class="edge">
<title>Node0&#45;&gt;Node1</title>
<path fill="none" stroke="#191970" d="M68.4716,-336.3944C57.5896,-314.4758 39.5,-272.2823 39.5,-234 39.5,-234 39.5,-234 39.5,-178 39.5,-145.1132 48.746,-107.7958 55.2499,-85.6138"/>
<polygon fill="#191970" stroke="#191970" points="58.6853,-86.3474 58.2538,-75.7614 51.9896,-84.3059 58.6853,-86.3474"/>
</g>
<!-- Node3 -->
<g id="node4" class="node">
<title>Node3</title>
<g id="a_node4"><a xlink:href="stdio_8h.html" target="_top" xlink:title="stdio wrapper to extend the C libs stdio ">
<polygon fill="#ffffff" stroke="#000000" points="139.5,-280.5 139.5,-299.5 187.5,-299.5 187.5,-280.5 139.5,-280.5"/>
<text text-anchor="middle" x="163.5" y="-287.5" font-family="Helvetica,sans-Serif" font-size="10.00" fill="#000000">stdio.h</text>
</a>
</g>
</g>
<!-- Node0&#45;&gt;Node3 -->
<g id="edge3" class="edge">
<title>Node0&#45;&gt;Node3</title>
<path fill="none" stroke="#191970" d="M98.0056,-336.2977C111.2968,-326.9022 128.3057,-314.8787 141.6588,-305.4395"/>
<polygon fill="#191970" stroke="#191970" points="143.6846,-308.2937 149.83,-299.6633 139.6439,-302.5776 143.6846,-308.2937"/>
</g>
<!-- Node2 -->
<g id="node3" class="node">
<title>Node2</title>
<polygon fill="#ffffff" stroke="#bfbfbf" points="109.5,-.5 109.5,-19.5 161.5,-19.5 161.5,-.5 109.5,-.5"/>
<text text-anchor="middle" x="135.5" y="-7.5" font-family="Helvetica,sans-Serif" font-size="10.00" fill="#000000">stdint.h</text>
</g>
<!-- Node1&#45;&gt;Node2 -->
<g id="edge2" class="edge">
<title>Node1&#45;&gt;Node2</title>
<path fill="none" stroke="#191970" d="M74.3898,-56.2455C85.4254,-47.8943 101.5292,-35.7076 114.4353,-25.9408"/>
<polygon fill="#191970" stroke="#191970" points="116.8959,-28.4681 122.7579,-19.6427 112.6717,-22.8862 116.8959,-28.4681"/>
</g>
<!-- Node4 -->
<g id="node5" class="node">
<title>Node4</title>
<g id="a_node5"><a xlink:href="flash__utils_8h.html" target="_top" xlink:title="Utility functions, macros, and types for read&#45;only memory. ">
<polygon fill="#ffffff" stroke="#000000" points="128,-224.5 128,-243.5 199,-243.5 199,-224.5 128,-224.5"/>
<text text-anchor="middle" x="163.5" y="-231.5" font-family="Helvetica,sans-Serif" font-size="10.00" fill="#000000">flash_utils.h</text>
</a>
</g>
</g>
<!-- Node3&#45;&gt;Node4 -->
<g id="edge4" class="edge">
<title>Node3&#45;&gt;Node4</title>
<path fill="none" stroke="#191970" d="M158.2332,-280.2455C156.8221,-272.9382 156.4179,-262.6944 157.0205,-253.7046"/>
<polygon fill="#191970" stroke="#191970" points="160.5111,-253.9945 158.2549,-243.6427 153.5632,-253.1421 160.5111,-253.9945"/>
</g>
<!-- Node4&#45;&gt;Node3 -->
<g id="edge5" class="edge">
<title>Node4&#45;&gt;Node3</title>
<path fill="none" stroke="#191970" d="M168.7451,-243.6427C170.1665,-250.9199 170.581,-261.155 169.9887,-270.1575"/>
<polygon fill="#191970" stroke="#191970" points="166.4947,-269.8972 168.7668,-280.2455 173.4439,-270.739 166.4947,-269.8972"/>
</g>
<!-- Node5 -->
<g id="node6" class="node">
<title>Node5</title>
<polygon fill="#ffffff" stroke="#bfbfbf" points="279,-168.5 279,-187.5 332,-187.5 332,-168.5 279,-168.5"/>
<text text-anchor="middle" x="305.5" y="-175.5" font-family="Helvetica,sans-Serif" font-size="10.00" fill="#000000">string.h</text>
</g>
<!-- Node4&#45;&gt;Node5 -->
<g id="edge6" class="edge">
<title>Node4&#45;&gt;Node5</title>
<path fill="none" stroke="#191970" d="M187.9107,-224.3733C211.1142,-215.2226 246.2038,-201.3844 272.0142,-191.2057"/>
<polygon fill="#191970" stroke="#191970" points="273.3892,-194.4258 281.4079,-187.5011 270.8211,-187.9139 273.3892,-194.4258"/>
</g>
<!-- Node6 -->
<g id="node7" class="node">
<title>Node6</title>
<polygon fill="#ffffff" stroke="#bfbfbf" points="81,-168.5 81,-187.5 148,-187.5 148,-168.5 81,-168.5"/>
<text text-anchor="middle" x="114.5" y="-175.5" font-family="Helvetica,sans-Serif" font-size="10.00" fill="#000000">cpu_conf.h</text>
</g>
<!-- Node4&#45;&gt;Node6 -->
<g id="edge7" class="edge">
<title>Node4&#45;&gt;Node6</title>
<path fill="none" stroke="#191970" d="M154.9649,-224.2455C148.0088,-216.2958 138.0117,-204.8706 129.6949,-195.3656"/>
<polygon fill="#191970" stroke="#191970" points="132.1564,-192.8637 122.9373,-187.6427 126.8884,-197.4732 132.1564,-192.8637"/>
</g>
<!-- Node7 -->
<g id="node8" class="node">
<title>Node7</title>
<g id="a_node8"><a xlink:href="kernel__defines_8h.html" target="_top" xlink:title="Common macros and compiler attributes/pragmas configuration. ">
<polygon fill="#ffffff" stroke="#000000" points="166,-168.5 166,-187.5 261,-187.5 261,-168.5 166,-168.5"/>
<text text-anchor="middle" x="213.5" y="-175.5" font-family="Helvetica,sans-Serif" font-size="10.00" fill="#000000">kernel_defines.h</text>
</a>
</g>
</g>
<!-- Node4&#45;&gt;Node7 -->
<g id="edge8" class="edge">
<title>Node4&#45;&gt;Node7</title>
<path fill="none" stroke="#191970" d="M172.2093,-224.2455C179.3073,-216.2958 189.5084,-204.8706 197.995,-195.3656"/>
<polygon fill="#191970" stroke="#191970" points="200.8411,-197.4331 204.8905,-187.6427 195.6195,-192.771 200.8411,-197.4331"/>
</g>
<!-- Node8 -->
<g id="node9" class="node">
<title>Node8</title>
<g id="a_node9"><a xlink:href="modules_8h.html" target="_top" xlink:title="Common macros and compiler attributes/pragmas configuration. ">
<polygon fill="#ffffff" stroke="#000000" points="305,-112.5 305,-131.5 370,-131.5 370,-112.5 305,-112.5"/>
<text text-anchor="middle" x="337.5" y="-119.5" font-family="Helvetica,sans-Serif" font-size="10.00" fill="#000000">modules.h</text>
</a>
</g>
</g>
<!-- Node7&#45;&gt;Node8 -->
<g id="edge9" class="edge">
<title>Node7&#45;&gt;Node8</title>
<path fill="none" stroke="#191970" d="M234.8164,-168.3733C254.7216,-159.3838 284.6436,-145.8706 307.06,-135.7471"/>
<polygon fill="#191970" stroke="#191970" points="308.7887,-138.8068 316.4618,-131.5011 305.9075,-132.4272 308.7887,-138.8068"/>
</g>
<!-- Node9 -->
<g id="node10" class="node">
<title>Node9</title>
<g id="a_node10"><a xlink:href="riot__version_8h.html" target="_top" xlink:title="Common macros and compiler attributes/pragmas configuration. ">
<polygon fill="#ffffff" stroke="#000000" points="257,-56.5 257,-75.5 338,-75.5 338,-56.5 257,-56.5"/>
<text text-anchor="middle" x="297.5" y="-63.5" font-family="Helvetica,sans-Serif" font-size="10.00" fill="#000000">riot_version.h</text>
</a>
</g>
</g>
<!-- Node7&#45;&gt;Node9 -->
<g id="edge10" class="edge">
<title>Node7&#45;&gt;Node9</title>
<path fill="none" stroke="#191970" d="M223.9579,-168.3442C233.3265,-159.4097 247.146,-145.507 257.5,-132 269.0444,-116.9402 280.0578,-98.3436 287.5944,-84.7326"/>
<polygon fill="#191970" stroke="#191970" points="290.7348,-86.2837 292.4257,-75.8247 284.5815,-82.9464 290.7348,-86.2837"/>
</g>
<!-- Node10 -->
<g id="node11" class="node">
<title>Node10</title>
<g id="a_node11"><a xlink:href="compiler__hints_8h.html" target="_top" xlink:title="Common macros and compiler attributes/pragmas configuration. ">
<polygon fill="#ffffff" stroke="#000000" points="68,-112.5 68,-131.5 161,-131.5 161,-112.5 68,-112.5"/>
<text text-anchor="middle" x="114.5" y="-119.5" font-family="Helvetica,sans-Serif" font-size="10.00" fill="#000000">compiler_hints.h</text>
</a>
</g>
</g>
<!-- Node7&#45;&gt;Node10 -->
<g id="edge12" class="edge">
<title>Node7&#45;&gt;Node10</title>
<path fill="none" stroke="#191970" d="M196.2555,-168.2455C180.9239,-159.5731 158.2801,-146.7645 140.7084,-136.825"/>
<polygon fill="#191970" stroke="#191970" points="141.9741,-133.5198 131.5469,-131.6427 138.5276,-139.6126 141.9741,-133.5198"/>
</g>
<!-- Node11 -->
<g id="node12" class="node">
<title>Node11</title>
<g id="a_node12"><a xlink:href="container_8h.html" target="_top" xlink:title="Common macros and compiler attributes/pragmas configuration. ">
<polygon fill="#ffffff" stroke="#000000" points="179,-112.5 179,-131.5 248,-131.5 248,-112.5 179,-112.5"/>
<text text-anchor="middle" x="213.5" y="-119.5" font-family="Helvetica,sans-Serif" font-size="10.00" fill="#000000">container.h</text>
</a>
</g>
</g>
<!-- Node7&#45;&gt;Node11 -->
<g id="edge15" class="edge">
<title>Node7&#45;&gt;Node11</title>
<path fill="none" stroke="#191970" d="M213.5,-168.2455C213.5,-160.9382 213.5,-150.6944 213.5,-141.7046"/>
<polygon fill="#191970" stroke="#191970" points="217.0001,-141.6426 213.5,-131.6427 210.0001,-141.6427 217.0001,-141.6426"/>
</g>
<!-- Node9&#45;&gt;Node2 -->
<g id="edge11" class="edge">
<title>Node9&#45;&gt;Node2</title>
<path fill="none" stroke="#191970" d="M269.6512,-56.3733C242.4233,-46.9611 200.8495,-32.5899 171.205,-22.3425"/>
<polygon fill="#191970" stroke="#191970" points="172.2417,-18.9977 161.6469,-19.0384 169.9547,-25.6135 172.2417,-18.9977"/>
</g>
<!-- Node10&#45;&gt;Node1 -->
<g id="edge13" class="edge">
<title>Node10&#45;&gt;Node1</title>
<path fill="none" stroke="#191970" d="M105.2681,-112.2455C97.6683,-104.2155 86.7123,-92.6394 77.6632,-83.0781"/>
<polygon fill="#191970" stroke="#191970" points="80.042,-80.4998 70.6261,-75.6427 74.9579,-85.3115 80.042,-80.4998"/>
</g>
<!-- Node10&#45;&gt;Node2 -->
<g id="edge14" class="edge">
<title>Node10&#45;&gt;Node2</title>
<path fill="none" stroke="#191970" d="M116.2904,-112.4509C119.731,-94.1013 127.3267,-53.5908 131.8683,-29.3693"/>
<polygon fill="#191970" stroke="#191970" points="135.3112,-29.9986 133.7141,-19.5249 128.4311,-28.7086 135.3112,-29.9986"/>
</g>
<!-- Node11&#45;&gt;Node2 -->
<g id="edge17" class="edge">
<title>Node11&#45;&gt;Node2</title>
<path fill="none" stroke="#191970" d="M204.0141,-112.233C195.5115,-103.2236 182.9575,-89.2734 173.5,-76 162.7395,-60.8978 152.3639,-42.5338 145.1812,-29.0147"/>
<polygon fill="#191970" stroke="#191970" points="148.0817,-27.0069 140.3574,-19.7553 141.8737,-30.2411 148.0817,-27.0069"/>
</g>
<!-- Node12 -->
<g id="node13" class="node">
<title>Node12</title>
<polygon fill="#ffffff" stroke="#bfbfbf" points="182.5,-56.5 182.5,-75.5 238.5,-75.5 238.5,-56.5 182.5,-56.5"/>
<text text-anchor="middle" x="210.5" y="-63.5" font-family="Helvetica,sans-Serif" font-size="10.00" fill="#000000">stddef.h</text>
</g>
<!-- Node11&#45;&gt;Node12 -->
<g id="edge16" class="edge">
<title>Node11&#45;&gt;Node12</title>
<path fill="none" stroke="#191970" d="M212.9774,-112.2455C212.586,-104.9382 212.0372,-94.6944 211.5556,-85.7046"/>
<polygon fill="#191970" stroke="#191970" points="215.0466,-85.4411 211.0166,-75.6427 208.0566,-85.8156 215.0466,-85.4411"/>
</g>
</g>
</svg>
