<?xml version="1.0" encoding="UTF-8" standalone="no"?>
<!DOCTYPE svg PUBLIC "-//W3C//DTD SVG 1.1//EN"
 "http://www.w3.org/Graphics/SVG/1.1/DTD/svg11.dtd">
<!-- Generated by graphviz version 2.40.1 (0)
 -->
<!-- Title: drivers/dynamixel/include/dynamixel_protocol.h Pages: 1 -->
<svg width="465pt" height="106pt"
 viewBox="0.00 0.00 464.50 106.00" xmlns="http://www.w3.org/2000/svg" xmlns:xlink="http://www.w3.org/1999/xlink">
<g id="graph0" class="graph" transform="scale(1 1) rotate(0) translate(4 102)">
<title>drivers/dynamixel/include/dynamixel_protocol.h</title>
<polygon fill="#ffffff" stroke="transparent" points="-4,4 -4,-102 460.5,-102 460.5,4 -4,4"/>
<!-- Node2 -->
<g id="node1" class="node">
<title>Node2</title>
<polygon fill="#bfbfbf" stroke="#000000" points="155,-67.5 155,-97.5 292,-97.5 292,-67.5 155,-67.5"/>
<text text-anchor="start" x="163" y="-85.5" font-family="Helvetica,sans-Serif" font-size="10.00" fill="#000000">drivers/dynamixel/include</text>
<text text-anchor="middle" x="223.5" y="-74.5" font-family="Helvetica,sans-Serif" font-size="10.00" fill="#000000">/dynamixel_protocol.h</text>
</g>
<!-- Node3 -->
<g id="node2" class="node">
<title>Node3</title>
<g id="a_node2"><a xlink:href="dynamixel__reader_8h.html" target="_top" xlink:title="Interface definition for Dynamixel packet reader. ">
<polygon fill="#ffffff" stroke="#000000" points="0,-.5 0,-30.5 137,-30.5 137,-.5 0,-.5"/>
<text text-anchor="start" x="8" y="-18.5" font-family="Helvetica,sans-Serif" font-size="10.00" fill="#000000">drivers/dynamixel/include</text>
<text text-anchor="middle" x="68.5" y="-7.5" font-family="Helvetica,sans-Serif" font-size="10.00" fill="#000000">/dynamixel_reader.h</text>
</a>
</g>
</g>
<!-- Node2&#45;&gt;Node3 -->
<g id="edge1" class="edge">
<title>Node2&#45;&gt;Node3</title>
<path fill="none" stroke="#191970" d="M179.4328,-63.4516C155.3444,-53.0392 125.925,-40.3224 103.4367,-30.6017"/>
<polygon fill="#191970" stroke="#191970" points="178.1471,-66.7088 188.715,-67.4639 180.9246,-60.2834 178.1471,-66.7088"/>
</g>
<!-- Node4 -->
<g id="node3" class="node">
<title>Node4</title>
<g id="a_node3"><a xlink:href="dynamixel__writer_8h.html" target="_top" xlink:title="Interface definition for Dynamixel packet writer. ">
<polygon fill="#ffffff" stroke="#000000" points="155,-.5 155,-30.5 292,-30.5 292,-.5 155,-.5"/>
<text text-anchor="start" x="163" y="-18.5" font-family="Helvetica,sans-Serif" font-size="10.00" fill="#000000">drivers/dynamixel/include</text>
<text text-anchor="middle" x="223.5" y="-7.5" font-family="Helvetica,sans-Serif" font-size="10.00" fill="#000000">/dynamixel_writer.h</text>
</a>
</g>
</g>
<!-- Node2&#45;&gt;Node4 -->
<g id="edge2" class="edge">
<title>Node2&#45;&gt;Node4</title>
<path fill="none" stroke="#191970" d="M223.5,-57.0249C223.5,-48.128 223.5,-38.4287 223.5,-30.6432"/>
<polygon fill="#191970" stroke="#191970" points="220.0001,-57.2966 223.5,-67.2967 227.0001,-57.2967 220.0001,-57.2966"/>
</g>
<!-- Node5 -->
<g id="node4" class="node">
<title>Node5</title>
<g id="a_node4"><a xlink:href="dynamixel_8h.html" target="_top" xlink:title="Interface definition for Dynamixel devices driver. ">
<polygon fill="#ffffff" stroke="#000000" points="310.5,-6 310.5,-25 456.5,-25 456.5,-6 310.5,-6"/>
<text text-anchor="middle" x="383.5" y="-13" font-family="Helvetica,sans-Serif" font-size="10.00" fill="#000000">drivers/include/dynamixel.h</text>
</a>
</g>
</g>
<!-- Node2&#45;&gt;Node5 -->
<g id="edge3" class="edge">
<title>Node2&#45;&gt;Node5</title>
<path fill="none" stroke="#191970" d="M268.8151,-63.5243C298.7478,-50.99 336.714,-35.0916 360.5653,-25.1039"/>
<polygon fill="#191970" stroke="#191970" points="267.2792,-60.3729 259.4071,-67.4639 269.983,-66.8297 267.2792,-60.3729"/>
</g>
</g>
</svg>
