<?xml version="1.0" encoding="UTF-8" standalone="no"?>
<!DOCTYPE svg PUBLIC "-//W3C//DTD SVG 1.1//EN"
 "http://www.w3.org/Graphics/SVG/1.1/DTD/svg11.dtd">
<!-- Generated by graphviz version 2.40.1 (0)
 -->
<!-- Title: drivers/dynamixel/include/dynamixel_reader.h Pages: 1 -->
<svg width="270pt" height="151pt"
 viewBox="0.00 0.00 270.00 151.00" xmlns="http://www.w3.org/2000/svg" xmlns:xlink="http://www.w3.org/1999/xlink">
<g id="graph0" class="graph" transform="scale(1 1) rotate(0) translate(4 147)">
<title>drivers/dynamixel/include/dynamixel_reader.h</title>
<polygon fill="#ffffff" stroke="transparent" points="-4,4 -4,-147 266,-147 266,4 -4,4"/>
<!-- Node0 -->
<g id="node1" class="node">
<title>Node0</title>
<polygon fill="#bfbfbf" stroke="#000000" points="29.5,-112.5 29.5,-142.5 166.5,-142.5 166.5,-112.5 29.5,-112.5"/>
<text text-anchor="start" x="37.5" y="-130.5" font-family="Helvetica,sans-Serif" font-size="10.00" fill="#000000">drivers/dynamixel/include</text>
<text text-anchor="middle" x="98" y="-119.5" font-family="Helvetica,sans-Serif" font-size="10.00" fill="#000000">/dynamixel_reader.h</text>
</g>
<!-- Node1 -->
<g id="node2" class="node">
<title>Node1</title>
<polygon fill="#ffffff" stroke="#bfbfbf" points="0,-56.5 0,-75.5 50,-75.5 50,-56.5 0,-56.5"/>
<text text-anchor="middle" x="25" y="-63.5" font-family="Helvetica,sans-Serif" font-size="10.00" fill="#000000">stdlib.h</text>
</g>
<!-- Node0&#45;&gt;Node1 -->
<g id="edge1" class="edge">
<title>Node0&#45;&gt;Node1</title>
<path fill="none" stroke="#191970" d="M79.9551,-112.2977C69.1886,-103.2274 55.5149,-91.7077 44.5005,-82.4285"/>
<polygon fill="#191970" stroke="#191970" points="46.5911,-79.6132 36.6882,-75.8469 42.0809,-84.9667 46.5911,-79.6132"/>
</g>
<!-- Node2 -->
<g id="node3" class="node">
<title>Node2</title>
<polygon fill="#ffffff" stroke="#bfbfbf" points="68,-56.5 68,-75.5 128,-75.5 128,-56.5 68,-56.5"/>
<text text-anchor="middle" x="98" y="-63.5" font-family="Helvetica,sans-Serif" font-size="10.00" fill="#000000">stdbool.h</text>
</g>
<!-- Node0&#45;&gt;Node2 -->
<g id="edge2" class="edge">
<title>Node0&#45;&gt;Node2</title>
<path fill="none" stroke="#191970" d="M98,-112.2977C98,-104.3834 98,-94.6043 98,-86.0759"/>
<polygon fill="#191970" stroke="#191970" points="101.5001,-85.8469 98,-75.8469 94.5001,-85.847 101.5001,-85.8469"/>
</g>
<!-- Node3 -->
<g id="node4" class="node">
<title>Node3</title>
<g id="a_node4"><a xlink:href="dynamixel__protocol_8h.html" target="_top" xlink:title="Dynamixel protocol definitions. ">
<polygon fill="#ffffff" stroke="#000000" points="146,-56.5 146,-75.5 262,-75.5 262,-56.5 146,-56.5"/>
<text text-anchor="middle" x="204" y="-63.5" font-family="Helvetica,sans-Serif" font-size="10.00" fill="#000000">dynamixel_protocol.h</text>
</a>
</g>
</g>
<!-- Node0&#45;&gt;Node3 -->
<g id="edge3" class="edge">
<title>Node0&#45;&gt;Node3</title>
<path fill="none" stroke="#191970" d="M123.9305,-112.4554C140.5309,-102.8241 161.9744,-90.3828 178.4917,-80.7996"/>
<polygon fill="#191970" stroke="#191970" points="180.6806,-83.5761 187.5738,-75.5303 177.1677,-77.5214 180.6806,-83.5761"/>
</g>
<!-- Node4 -->
<g id="node5" class="node">
<title>Node4</title>
<polygon fill="#ffffff" stroke="#bfbfbf" points="178,-.5 178,-19.5 230,-19.5 230,-.5 178,-.5"/>
<text text-anchor="middle" x="204" y="-7.5" font-family="Helvetica,sans-Serif" font-size="10.00" fill="#000000">stdint.h</text>
</g>
<!-- Node3&#45;&gt;Node4 -->
<g id="edge4" class="edge">
<title>Node3&#45;&gt;Node4</title>
<path fill="none" stroke="#191970" d="M204,-56.2455C204,-48.9382 204,-38.6944 204,-29.7046"/>
<polygon fill="#191970" stroke="#191970" points="207.5001,-29.6426 204,-19.6427 200.5001,-29.6427 207.5001,-29.6426"/>
</g>
</g>
</svg>
