<?xml version="1.0" encoding="UTF-8" standalone="no"?>
<!DOCTYPE svg PUBLIC "-//W3C//DTD SVG 1.1//EN"
 "http://www.w3.org/Graphics/SVG/1.1/DTD/svg11.dtd">
<!-- Generated by graphviz version 2.40.1 (0)
 -->
<!-- Title: drivers/include/enc28j60.h Pages: 1 -->
<svg width="1462pt" height="476pt"
 viewBox="0.00 0.00 1462.43 476.00" xmlns="http://www.w3.org/2000/svg" xmlns:xlink="http://www.w3.org/1999/xlink">
<g id="graph0" class="graph" transform="scale(1 1) rotate(0) translate(4 472)">
<title>drivers/include/enc28j60.h</title>
<polygon fill="#ffffff" stroke="transparent" points="-4,4 -4,-472 1458.4322,-472 1458.4322,4 -4,4"/>
<!-- Node0 -->
<g id="node1" class="node">
<title>Node0</title>
<polygon fill="#bfbfbf" stroke="#000000" points="901,-448.5 901,-467.5 1043,-467.5 1043,-448.5 901,-448.5"/>
<text text-anchor="middle" x="972" y="-455.5" font-family="Helvetica,sans-Serif" font-size="10.00" fill="#000000">drivers/include/enc28j60.h</text>
</g>
<!-- Node1 -->
<g id="node2" class="node">
<title>Node1</title>
<polygon fill="#ffffff" stroke="#bfbfbf" points="534,-.5 534,-19.5 586,-19.5 586,-.5 534,-.5"/>
<text text-anchor="middle" x="560" y="-7.5" font-family="Helvetica,sans-Serif" font-size="10.00" fill="#000000">stdint.h</text>
</g>
<!-- Node0&#45;&gt;Node1 -->
<g id="edge1" class="edge">
<title>Node0&#45;&gt;Node1</title>
<path fill="none" stroke="#191970" d="M900.9203,-457.2667C676.847,-454.0237 0,-436.7194 0,-346 0,-346 0,-346 0,-122 0,-88.1521 9.4696,-74.2125 38,-56 78.7653,-29.9773 411.9587,-15.4476 523.657,-11.2723"/>
<polygon fill="#191970" stroke="#191970" points="523.8933,-14.766 533.7578,-10.9005 523.6358,-7.7708 523.8933,-14.766"/>
</g>
<!-- Node2 -->
<g id="node3" class="node">
<title>Node2</title>
<g id="a_node3"><a xlink:href="mutex_8h.html" target="_top" xlink:title="Mutex for thread synchronization. ">
<polygon fill="#ffffff" stroke="#000000" points="523,-392.5 523,-411.5 579,-411.5 579,-392.5 523,-392.5"/>
<text text-anchor="middle" x="551" y="-399.5" font-family="Helvetica,sans-Serif" font-size="10.00" fill="#000000">mutex.h</text>
</a>
</g>
</g>
<!-- Node0&#45;&gt;Node2 -->
<g id="edge2" class="edge">
<title>Node0&#45;&gt;Node2</title>
<path fill="none" stroke="#191970" d="M900.5831,-448.5004C810.8804,-436.5684 660.1852,-416.5234 589.6288,-407.1383"/>
<polygon fill="#191970" stroke="#191970" points="589.7897,-403.6289 579.4155,-405.7797 588.8666,-410.5678 589.7897,-403.6289"/>
</g>
<!-- Node25 -->
<g id="node26" class="node">
<title>Node25</title>
<g id="a_node26"><a xlink:href="spi_8h.html" target="_top" xlink:title="Low&#45;level SPI peripheral driver interface definition. ">
<polygon fill="#ffffff" stroke="#000000" points="1274.5,-224.5 1274.5,-243.5 1347.5,-243.5 1347.5,-224.5 1274.5,-224.5"/>
<text text-anchor="middle" x="1311" y="-231.5" font-family="Helvetica,sans-Serif" font-size="10.00" fill="#000000">periph/spi.h</text>
</a>
</g>
</g>
<!-- Node0&#45;&gt;Node25 -->
<g id="edge44" class="edge">
<title>Node0&#45;&gt;Node25</title>
<path fill="none" stroke="#191970" d="M1015.5702,-448.4626C1043.975,-441.0947 1081.1687,-429.2163 1111,-412 1189.6811,-366.5915 1264.7919,-286.7729 1295.9267,-251.5485"/>
<polygon fill="#191970" stroke="#191970" points="1298.9259,-253.4354 1302.8702,-243.6021 1293.6547,-248.8294 1298.9259,-253.4354"/>
</g>
<!-- Node30 -->
<g id="node31" class="node">
<title>Node30</title>
<g id="a_node31"><a xlink:href="drivers_2include_2periph_2gpio_8h.html" target="_top" xlink:title="Low&#45;level GPIO peripheral driver interface definitions. ">
<polygon fill="#ffffff" stroke="#000000" points="1203,-168.5 1203,-187.5 1283,-187.5 1283,-168.5 1203,-168.5"/>
<text text-anchor="middle" x="1243" y="-175.5" font-family="Helvetica,sans-Serif" font-size="10.00" fill="#000000">periph/gpio.h</text>
</a>
</g>
</g>
<!-- Node0&#45;&gt;Node30 -->
<g id="edge58" class="edge">
<title>Node0&#45;&gt;Node30</title>
<path fill="none" stroke="#191970" d="M997.9001,-448.3737C1034.5134,-432.8905 1097,-398.7402 1097,-346 1097,-346 1097,-346 1097,-290 1097,-237.7278 1156.6448,-206.5213 1199.6892,-190.8064"/>
<polygon fill="#191970" stroke="#191970" points="1200.8523,-194.1075 1209.1377,-187.5042 1198.5429,-187.4995 1200.8523,-194.1075"/>
</g>
<!-- Node31 -->
<g id="node32" class="node">
<title>Node31</title>
<g id="a_node32"><a xlink:href="drivers_2include_2net_2netdev_8h.html" target="_top" xlink:title="Definitions low&#45;level network driver interface. ">
<polygon fill="#ffffff" stroke="#000000" points="933.5,-224.5 933.5,-243.5 1010.5,-243.5 1010.5,-224.5 933.5,-224.5"/>
<text text-anchor="middle" x="972" y="-231.5" font-family="Helvetica,sans-Serif" font-size="10.00" fill="#000000">net/netdev.h</text>
</a>
</g>
</g>
<!-- Node0&#45;&gt;Node31 -->
<g id="edge59" class="edge">
<title>Node0&#45;&gt;Node31</title>
<path fill="none" stroke="#191970" d="M972,-448.375C972,-414.4851 972,-300.2317 972,-253.8332"/>
<polygon fill="#191970" stroke="#191970" points="975.5001,-253.5891 972,-243.5891 968.5001,-253.5892 975.5001,-253.5891"/>
</g>
<!-- Node2&#45;&gt;Node1 -->
<g id="edge4" class="edge">
<title>Node2&#45;&gt;Node1</title>
<path fill="none" stroke="#191970" d="M522.6882,-398.8696C415.1434,-386.604 38,-340.0243 38,-290 38,-290 38,-290 38,-122 38,-91.4754 33.4745,-75.45 57,-56 92.8097,-26.3939 414.0911,-14.2803 523.6156,-10.9877"/>
<polygon fill="#191970" stroke="#191970" points="523.9412,-14.4798 533.8342,-10.6878 523.7358,-7.4828 523.9412,-14.4798"/>
</g>
<!-- Node3 -->
<g id="node4" class="node">
<title>Node3</title>
<polygon fill="#ffffff" stroke="#bfbfbf" points="905,-.5 905,-19.5 961,-19.5 961,-.5 905,-.5"/>
<text text-anchor="middle" x="933" y="-7.5" font-family="Helvetica,sans-Serif" font-size="10.00" fill="#000000">stddef.h</text>
</g>
<!-- Node2&#45;&gt;Node3 -->
<g id="edge3" class="edge">
<title>Node2&#45;&gt;Node3</title>
<path fill="none" stroke="#191970" d="M579.186,-396.886C649.8617,-383.2642 829,-343.4645 829,-290 829,-290 829,-290 829,-178 829,-114.3491 883.6383,-54.7076 913.7087,-26.7034"/>
<polygon fill="#191970" stroke="#191970" points="916.4136,-28.9756 921.4728,-19.6667 911.7127,-23.7888 916.4136,-28.9756"/>
</g>
<!-- Node4 -->
<g id="node5" class="node">
<title>Node4</title>
<polygon fill="#ffffff" stroke="#bfbfbf" points="895,-112.5 895,-131.5 955,-131.5 955,-112.5 895,-112.5"/>
<text text-anchor="middle" x="925" y="-119.5" font-family="Helvetica,sans-Serif" font-size="10.00" fill="#000000">stdbool.h</text>
</g>
<!-- Node2&#45;&gt;Node4 -->
<g id="edge5" class="edge">
<title>Node2&#45;&gt;Node4</title>
<path fill="none" stroke="#191970" d="M563.8739,-392.3618C618.945,-351.1321 835.0198,-189.3649 903.8303,-137.8489"/>
<polygon fill="#191970" stroke="#191970" points="906.2727,-140.3927 912.1802,-131.5977 902.0775,-134.7891 906.2727,-140.3927"/>
</g>
<!-- Node5 -->
<g id="node6" class="node">
<title>Node5</title>
<g id="a_node6"><a xlink:href="architecture_8h.html" target="_top" xlink:title="Platform&#45;independent access to architecture details. ">
<polygon fill="#ffffff" stroke="#000000" points="639.5,-224.5 639.5,-243.5 722.5,-243.5 722.5,-224.5 639.5,-224.5"/>
<text text-anchor="middle" x="681" y="-231.5" font-family="Helvetica,sans-Serif" font-size="10.00" fill="#000000">architecture.h</text>
</a>
</g>
</g>
<!-- Node2&#45;&gt;Node5 -->
<g id="edge6" class="edge">
<title>Node2&#45;&gt;Node5</title>
<path fill="none" stroke="#191970" d="M558.3618,-392.4862C579.3566,-365.3545 639.7716,-287.2798 667.1816,-251.8576"/>
<polygon fill="#191970" stroke="#191970" points="670.0433,-253.8786 673.3951,-243.8279 664.5072,-249.5947 670.0433,-253.8786"/>
</g>
<!-- Node9 -->
<g id="node10" class="node">
<title>Node9</title>
<g id="a_node10"><a xlink:href="kernel__defines_8h.html" target="_top" xlink:title="Common macros and compiler attributes/pragmas configuration. ">
<polygon fill="#ffffff" stroke="#000000" points="142.5,-168.5 142.5,-187.5 237.5,-187.5 237.5,-168.5 142.5,-168.5"/>
<text text-anchor="middle" x="190" y="-175.5" font-family="Helvetica,sans-Serif" font-size="10.00" fill="#000000">kernel_defines.h</text>
</a>
</g>
</g>
<!-- Node2&#45;&gt;Node9 -->
<g id="edge11" class="edge">
<title>Node2&#45;&gt;Node9</title>
<path fill="none" stroke="#191970" d="M522.7483,-396.6804C451.735,-382.7745 268.4228,-343.3997 226,-300 198.7158,-272.0875 191.9463,-224.5617 190.3698,-197.8115"/>
<polygon fill="#191970" stroke="#191970" points="193.8638,-197.5891 189.9674,-187.7368 186.8693,-197.8686 193.8638,-197.5891"/>
</g>
<!-- Node15 -->
<g id="node16" class="node">
<title>Node15</title>
<g id="a_node16"><a xlink:href="list_8h.html" target="_top" xlink:title="Intrusive linked list. ">
<polygon fill="#ffffff" stroke="#000000" points="470,-112.5 470,-131.5 508,-131.5 508,-112.5 470,-112.5"/>
<text text-anchor="middle" x="489" y="-119.5" font-family="Helvetica,sans-Serif" font-size="10.00" fill="#000000">list.h</text>
</a>
</g>
</g>
<!-- Node2&#45;&gt;Node15 -->
<g id="edge22" class="edge">
<title>Node2&#45;&gt;Node15</title>
<path fill="none" stroke="#191970" d="M522.7594,-397.4773C450.473,-385.2654 261.9125,-349.1984 226,-300 188.8767,-249.1429 162.3562,-265.9361 306,-168 330.9326,-151.001 414.7548,-134.6454 459.7942,-126.8109"/>
<polygon fill="#191970" stroke="#191970" points="460.5614,-130.2306 469.8284,-125.095 459.3815,-123.3308 460.5614,-130.2306"/>
</g>
<!-- Node16 -->
<g id="node17" class="node">
<title>Node16</title>
<g id="a_node17"><a xlink:href="core_2include_2thread_8h.html" target="_top" xlink:title="Threading API. ">
<polygon fill="#ffffff" stroke="#000000" points="409.5,-336.5 409.5,-355.5 466.5,-355.5 466.5,-336.5 409.5,-336.5"/>
<text text-anchor="middle" x="438" y="-343.5" font-family="Helvetica,sans-Serif" font-size="10.00" fill="#000000">thread.h</text>
</a>
</g>
</g>
<!-- Node2&#45;&gt;Node16 -->
<g id="edge23" class="edge">
<title>Node2&#45;&gt;Node16</title>
<path fill="none" stroke="#191970" d="M531.5746,-392.3733C513.5979,-383.4644 486.6559,-370.1127 466.291,-360.0203"/>
<polygon fill="#191970" stroke="#191970" points="467.6861,-356.8055 457.1719,-355.5011 464.5778,-363.0776 467.6861,-356.8055"/>
</g>
<!-- Node5&#45;&gt;Node1 -->
<g id="edge7" class="edge">
<title>Node5&#45;&gt;Node1</title>
<path fill="none" stroke="#191970" d="M673.169,-224.4887C665.9058,-215.4277 655.0388,-201.2431 647,-188 613.3399,-132.5483 582.0586,-62.1969 567.9185,-28.9918"/>
<polygon fill="#191970" stroke="#191970" points="571.0606,-27.4352 563.9486,-19.5822 564.6111,-30.1563 571.0606,-27.4352"/>
</g>
<!-- Node6 -->
<g id="node7" class="node">
<title>Node6</title>
<g id="a_node7"><a xlink:href="inttypes_8h.html" target="_top" xlink:title="Adds include for missing inttype definitions. ">
<polygon fill="#ffffff" stroke="#000000" points="535.5,-168.5 535.5,-187.5 598.5,-187.5 598.5,-168.5 535.5,-168.5"/>
<text text-anchor="middle" x="567" y="-175.5" font-family="Helvetica,sans-Serif" font-size="10.00" fill="#000000">inttypes.h</text>
</a>
</g>
</g>
<!-- Node5&#45;&gt;Node6 -->
<g id="edge8" class="edge">
<title>Node5&#45;&gt;Node6</title>
<path fill="none" stroke="#191970" d="M661.4027,-224.3733C643.2669,-215.4644 616.0865,-202.1127 595.5413,-192.0203"/>
<polygon fill="#191970" stroke="#191970" points="596.8603,-188.7688 586.3416,-187.5011 593.7739,-195.0517 596.8603,-188.7688"/>
</g>
<!-- Node7 -->
<g id="node8" class="node">
<title>Node7</title>
<polygon fill="#ffffff" stroke="#bfbfbf" points="1102,-112.5 1102,-131.5 1152,-131.5 1152,-112.5 1102,-112.5"/>
<text text-anchor="middle" x="1127" y="-119.5" font-family="Helvetica,sans-Serif" font-size="10.00" fill="#000000">limits.h</text>
</g>
<!-- Node5&#45;&gt;Node7 -->
<g id="edge9" class="edge">
<title>Node5&#45;&gt;Node7</title>
<path fill="none" stroke="#191970" d="M714.4369,-224.4974C761.3427,-211.2717 849.4148,-186.8207 925,-168 956.2805,-160.2111 1042.7913,-140.7772 1091.8525,-129.8244"/>
<polygon fill="#191970" stroke="#191970" points="1092.7218,-133.2166 1101.7198,-127.6232 1091.1976,-126.3846 1092.7218,-133.2166"/>
</g>
<!-- Node8 -->
<g id="node9" class="node">
<title>Node8</title>
<polygon fill="#ffffff" stroke="#bfbfbf" points="655.5,-168.5 655.5,-187.5 762.5,-187.5 762.5,-168.5 655.5,-168.5"/>
<text text-anchor="middle" x="709" y="-175.5" font-family="Helvetica,sans-Serif" font-size="10.00" fill="#000000">architecture_arch.h</text>
</g>
<!-- Node5&#45;&gt;Node8 -->
<g id="edge10" class="edge">
<title>Node5&#45;&gt;Node8</title>
<path fill="none" stroke="#191970" d="M685.8772,-224.2455C689.6513,-216.6973 694.9921,-206.0158 699.5901,-196.8197"/>
<polygon fill="#191970" stroke="#191970" points="702.837,-198.1522 704.1787,-187.6427 696.576,-195.0217 702.837,-198.1522"/>
</g>
<!-- Node10 -->
<g id="node11" class="node">
<title>Node10</title>
<g id="a_node11"><a xlink:href="modules_8h.html" target="_top" xlink:title="Common macros and compiler attributes/pragmas configuration. ">
<polygon fill="#ffffff" stroke="#000000" points="150.5,-112.5 150.5,-131.5 215.5,-131.5 215.5,-112.5 150.5,-112.5"/>
<text text-anchor="middle" x="183" y="-119.5" font-family="Helvetica,sans-Serif" font-size="10.00" fill="#000000">modules.h</text>
</a>
</g>
</g>
<!-- Node9&#45;&gt;Node10 -->
<g id="edge12" class="edge">
<title>Node9&#45;&gt;Node10</title>
<path fill="none" stroke="#191970" d="M188.7807,-168.2455C187.8673,-160.9382 186.5868,-150.6944 185.4631,-141.7046"/>
<polygon fill="#191970" stroke="#191970" points="188.9187,-141.1313 184.2053,-131.6427 181.9728,-141.9996 188.9187,-141.1313"/>
</g>
<!-- Node11 -->
<g id="node12" class="node">
<title>Node11</title>
<g id="a_node12"><a xlink:href="riot__version_8h.html" target="_top" xlink:title="Common macros and compiler attributes/pragmas configuration. ">
<polygon fill="#ffffff" stroke="#000000" points="357.5,-56.5 357.5,-75.5 438.5,-75.5 438.5,-56.5 357.5,-56.5"/>
<text text-anchor="middle" x="398" y="-63.5" font-family="Helvetica,sans-Serif" font-size="10.00" fill="#000000">riot_version.h</text>
</a>
</g>
</g>
<!-- Node9&#45;&gt;Node11 -->
<g id="edge13" class="edge">
<title>Node9&#45;&gt;Node11</title>
<path fill="none" stroke="#191970" d="M237.6612,-169.4464C267.5451,-162.5721 305.9583,-150.8736 336,-132 356.0638,-119.395 373.9931,-98.7553 385.3468,-83.9108"/>
<polygon fill="#191970" stroke="#191970" points="388.4027,-85.6644 391.5266,-75.5406 382.7712,-81.5066 388.4027,-85.6644"/>
</g>
<!-- Node12 -->
<g id="node13" class="node">
<title>Node12</title>
<g id="a_node13"><a xlink:href="compiler__hints_8h.html" target="_top" xlink:title="Common macros and compiler attributes/pragmas configuration. ">
<polygon fill="#ffffff" stroke="#000000" points="233.5,-112.5 233.5,-131.5 326.5,-131.5 326.5,-112.5 233.5,-112.5"/>
<text text-anchor="middle" x="280" y="-119.5" font-family="Helvetica,sans-Serif" font-size="10.00" fill="#000000">compiler_hints.h</text>
</a>
</g>
</g>
<!-- Node9&#45;&gt;Node12 -->
<g id="edge15" class="edge">
<title>Node9&#45;&gt;Node12</title>
<path fill="none" stroke="#191970" d="M205.6768,-168.2455C219.4856,-159.6534 239.8193,-147.0014 255.7292,-137.1018"/>
<polygon fill="#191970" stroke="#191970" points="257.8613,-139.8974 264.5028,-131.6427 254.1632,-133.954 257.8613,-139.8974"/>
</g>
<!-- Node14 -->
<g id="node15" class="node">
<title>Node14</title>
<g id="a_node15"><a xlink:href="container_8h.html" target="_top" xlink:title="Common macros and compiler attributes/pragmas configuration. ">
<polygon fill="#ffffff" stroke="#000000" points="493.5,-56.5 493.5,-75.5 562.5,-75.5 562.5,-56.5 493.5,-56.5"/>
<text text-anchor="middle" x="528" y="-63.5" font-family="Helvetica,sans-Serif" font-size="10.00" fill="#000000">container.h</text>
</a>
</g>
</g>
<!-- Node9&#45;&gt;Node14 -->
<g id="edge19" class="edge">
<title>Node9&#45;&gt;Node14</title>
<path fill="none" stroke="#191970" d="M230.461,-168.4929C265.3541,-159.9677 316.9286,-146.5841 361,-132 409.2184,-116.0436 463.7,-93.6662 496.9445,-79.5029"/>
<polygon fill="#191970" stroke="#191970" points="498.3283,-82.7178 506.1422,-75.5628 495.5719,-76.2833 498.3283,-82.7178"/>
</g>
<!-- Node11&#45;&gt;Node1 -->
<g id="edge14" class="edge">
<title>Node11&#45;&gt;Node1</title>
<path fill="none" stroke="#191970" d="M425.8488,-56.3733C453.0767,-46.9611 494.6505,-32.5899 524.295,-22.3425"/>
<polygon fill="#191970" stroke="#191970" points="525.5453,-25.6135 533.8531,-19.0384 523.2583,-18.9977 525.5453,-25.6135"/>
</g>
<!-- Node12&#45;&gt;Node1 -->
<g id="edge18" class="edge">
<title>Node12&#45;&gt;Node1</title>
<path fill="none" stroke="#191970" d="M287.2865,-112.1959C298.7266,-97.5505 322.3647,-70.1699 349,-56 405.2646,-26.0675 479.8391,-15.6041 523.601,-11.952"/>
<polygon fill="#191970" stroke="#191970" points="524.0633,-15.4271 533.7698,-11.1805 523.5337,-8.4472 524.0633,-15.4271"/>
</g>
<!-- Node13 -->
<g id="node14" class="node">
<title>Node13</title>
<g id="a_node14"><a xlink:href="assert_8h.html" target="_top" xlink:title="POSIX.1&#45;2008 compliant version of the assert macro. ">
<polygon fill="#ffffff" stroke="#000000" points="66,-56.5 66,-75.5 120,-75.5 120,-56.5 66,-56.5"/>
<text text-anchor="middle" x="93" y="-63.5" font-family="Helvetica,sans-Serif" font-size="10.00" fill="#000000">assert.h</text>
</a>
</g>
</g>
<!-- Node12&#45;&gt;Node13 -->
<g id="edge16" class="edge">
<title>Node12&#45;&gt;Node13</title>
<path fill="none" stroke="#191970" d="M247.8536,-112.3733C215.0634,-102.5537 164.2489,-87.3366 129.8515,-77.0357"/>
<polygon fill="#191970" stroke="#191970" points="130.7619,-73.6549 120.1781,-74.1389 128.7537,-80.3606 130.7619,-73.6549"/>
</g>
<!-- Node13&#45;&gt;Node1 -->
<g id="edge17" class="edge">
<title>Node13&#45;&gt;Node1</title>
<path fill="none" stroke="#191970" d="M120.2416,-58.8258C124.8136,-57.7744 129.5256,-56.7837 134,-56 277.1681,-30.9231 449.9547,-17.3289 523.746,-12.2975"/>
<polygon fill="#191970" stroke="#191970" points="524.1561,-15.778 533.8996,-11.6169 523.6879,-8.7936 524.1561,-15.778"/>
</g>
<!-- Node14&#45;&gt;Node1 -->
<g id="edge21" class="edge">
<title>Node14&#45;&gt;Node1</title>
<path fill="none" stroke="#191970" d="M533.574,-56.2455C537.9331,-48.617 544.1211,-37.7881 549.4133,-28.5267"/>
<polygon fill="#191970" stroke="#191970" points="552.5673,-30.0616 554.4899,-19.6427 546.4896,-26.5886 552.5673,-30.0616"/>
</g>
<!-- Node14&#45;&gt;Node3 -->
<g id="edge20" class="edge">
<title>Node14&#45;&gt;Node3</title>
<path fill="none" stroke="#191970" d="M562.5301,-61.2255C637.8635,-50.809 816.4895,-26.1101 894.938,-15.2629"/>
<polygon fill="#191970" stroke="#191970" points="895.454,-18.7249 904.8803,-13.8882 894.4951,-11.7909 895.454,-18.7249"/>
</g>
<!-- Node17 -->
<g id="node18" class="node">
<title>Node17</title>
<g id="a_node18"><a xlink:href="clist_8h.html" target="_top" xlink:title="Circular linked list. ">
<polygon fill="#ffffff" stroke="#000000" points="474.5,-168.5 474.5,-187.5 517.5,-187.5 517.5,-168.5 474.5,-168.5"/>
<text text-anchor="middle" x="496" y="-175.5" font-family="Helvetica,sans-Serif" font-size="10.00" fill="#000000">clist.h</text>
</a>
</g>
</g>
<!-- Node16&#45;&gt;Node17 -->
<g id="edge24" class="edge">
<title>Node16&#45;&gt;Node17</title>
<path fill="none" stroke="#191970" d="M466.6927,-341.5694C506.9569,-334.6993 576.9973,-320.1391 592,-300 621.3155,-260.6481 560.3729,-215.5609 522.7291,-192.8016"/>
<polygon fill="#191970" stroke="#191970" points="524.1247,-189.5621 513.7298,-187.5134 520.5783,-195.5973 524.1247,-189.5621"/>
</g>
<!-- Node18 -->
<g id="node19" class="node">
<title>Node18</title>
<g id="a_node19"><a xlink:href="cib_8h.html" target="_top" xlink:title="Circular integer buffer interface. ">
<polygon fill="#ffffff" stroke="#000000" points="235,-280.5 235,-299.5 273,-299.5 273,-280.5 235,-280.5"/>
<text text-anchor="middle" x="254" y="-287.5" font-family="Helvetica,sans-Serif" font-size="10.00" fill="#000000">cib.h</text>
</a>
</g>
</g>
<!-- Node16&#45;&gt;Node18 -->
<g id="edge28" class="edge">
<title>Node16&#45;&gt;Node18</title>
<path fill="none" stroke="#191970" d="M409.3176,-337.893C378.1193,-328.9807 326.8362,-314.0553 283,-300 282.9017,-299.9685 282.8033,-299.9369 282.7047,-299.9052"/>
<polygon fill="#191970" stroke="#191970" points="283.8973,-296.6133 273.3039,-296.7876 281.6939,-303.2575 283.8973,-296.6133"/>
</g>
<!-- Node19 -->
<g id="node20" class="node">
<title>Node19</title>
<g id="a_node20"><a xlink:href="core_2include_2msg_8h.html" target="_top" xlink:title="Messaging API for inter process communication. ">
<polygon fill="#ffffff" stroke="#000000" points="291.5,-280.5 291.5,-299.5 336.5,-299.5 336.5,-280.5 291.5,-280.5"/>
<text text-anchor="middle" x="314" y="-287.5" font-family="Helvetica,sans-Serif" font-size="10.00" fill="#000000">msg.h</text>
</a>
</g>
</g>
<!-- Node16&#45;&gt;Node19 -->
<g id="edge30" class="edge">
<title>Node16&#45;&gt;Node19</title>
<path fill="none" stroke="#191970" d="M416.6836,-336.3733C396.7784,-327.3838 366.8564,-313.8706 344.44,-303.7471"/>
<polygon fill="#191970" stroke="#191970" points="345.5925,-300.4272 335.0382,-299.5011 342.7113,-306.8068 345.5925,-300.4272"/>
</g>
<!-- Node20 -->
<g id="node21" class="node">
<title>Node20</title>
<g id="a_node21"><a xlink:href="sched_8h.html" target="_top" xlink:title="Scheduler API definition. ">
<polygon fill="#ffffff" stroke="#000000" points="348.5,-224.5 348.5,-243.5 401.5,-243.5 401.5,-224.5 348.5,-224.5"/>
<text text-anchor="middle" x="375" y="-231.5" font-family="Helvetica,sans-Serif" font-size="10.00" fill="#000000">sched.h</text>
</a>
</g>
</g>
<!-- Node16&#45;&gt;Node20 -->
<g id="edge39" class="edge">
<title>Node16&#45;&gt;Node20</title>
<path fill="none" stroke="#191970" d="M421.1793,-336.392C408.7534,-328.3446 392.5672,-315.668 384,-300 376.2847,-285.8899 374.2958,-267.6341 374.0886,-253.9002"/>
<polygon fill="#191970" stroke="#191970" points="377.5924,-253.6703 374.247,-243.6175 370.5933,-253.5624 377.5924,-253.6703"/>
</g>
<!-- Node22 -->
<g id="node23" class="node">
<title>Node22</title>
<g id="a_node23"><a xlink:href="thread__config_8h.html" target="_top" xlink:title="Thread configuration defines. ">
<polygon fill="#ffffff" stroke="#000000" points="393,-280.5 393,-299.5 483,-299.5 483,-280.5 393,-280.5"/>
<text text-anchor="middle" x="438" y="-287.5" font-family="Helvetica,sans-Serif" font-size="10.00" fill="#000000">thread_config.h</text>
</a>
</g>
</g>
<!-- Node16&#45;&gt;Node22 -->
<g id="edge40" class="edge">
<title>Node16&#45;&gt;Node22</title>
<path fill="none" stroke="#191970" d="M438,-336.2455C438,-328.9382 438,-318.6944 438,-309.7046"/>
<polygon fill="#191970" stroke="#191970" points="441.5001,-309.6426 438,-299.6427 434.5001,-309.6427 441.5001,-309.6426"/>
</g>
<!-- Node24 -->
<g id="node25" class="node">
<title>Node24</title>
<polygon fill="#ffffff" stroke="#bfbfbf" points="501,-280.5 501,-299.5 583,-299.5 583,-280.5 501,-280.5"/>
<text text-anchor="middle" x="542" y="-287.5" font-family="Helvetica,sans-Serif" font-size="10.00" fill="#000000">thread_arch.h</text>
</g>
<!-- Node16&#45;&gt;Node24 -->
<g id="edge43" class="edge">
<title>Node16&#45;&gt;Node24</title>
<path fill="none" stroke="#191970" d="M456.1154,-336.2455C472.445,-327.4527 496.671,-314.4079 515.2339,-304.4125"/>
<polygon fill="#191970" stroke="#191970" points="516.9468,-307.4654 524.0922,-299.6427 513.6281,-301.3021 516.9468,-307.4654"/>
</g>
<!-- Node17&#45;&gt;Node3 -->
<g id="edge26" class="edge">
<title>Node17&#45;&gt;Node3</title>
<path fill="none" stroke="#191970" d="M517.6589,-170.9389C520.7892,-169.94 523.9745,-168.9353 527,-168 664.7126,-125.4262 708.0441,-138.3598 838,-76 866.2914,-62.4243 895.4386,-40.8327 913.8569,-26.0682"/>
<polygon fill="#191970" stroke="#191970" points="916.2179,-28.6591 921.7544,-19.626 911.7932,-23.2349 916.2179,-28.6591"/>
</g>
<!-- Node17&#45;&gt;Node4 -->
<g id="edge25" class="edge">
<title>Node17&#45;&gt;Node4</title>
<path fill="none" stroke="#191970" d="M517.5319,-170.4551C520.6809,-169.5272 523.9051,-168.6712 527,-168 594.6897,-153.3207 797.9313,-133.6416 884.8548,-125.6258"/>
<polygon fill="#191970" stroke="#191970" points="885.2235,-129.1067 894.8616,-124.7072 884.5835,-122.136 885.2235,-129.1067"/>
</g>
<!-- Node17&#45;&gt;Node15 -->
<g id="edge27" class="edge">
<title>Node17&#45;&gt;Node15</title>
<path fill="none" stroke="#191970" d="M494.7807,-168.2455C493.8673,-160.9382 492.5868,-150.6944 491.4631,-141.7046"/>
<polygon fill="#191970" stroke="#191970" points="494.9187,-141.1313 490.2053,-131.6427 487.9728,-141.9996 494.9187,-141.1313"/>
</g>
<!-- Node18&#45;&gt;Node13 -->
<g id="edge29" class="edge">
<title>Node18&#45;&gt;Node13</title>
<path fill="none" stroke="#191970" d="M234.8921,-283.7875C200.8521,-271.5871 130.4373,-240.9686 100,-188 81.5848,-155.953 84.9923,-111.0219 89.0487,-85.5852"/>
<polygon fill="#191970" stroke="#191970" points="92.5052,-86.1388 90.8236,-75.6783 85.6149,-84.9044 92.5052,-86.1388"/>
</g>
<!-- Node19&#45;&gt;Node1 -->
<g id="edge31" class="edge">
<title>Node19&#45;&gt;Node1</title>
<path fill="none" stroke="#191970" d="M291.4314,-280.7029C246.9658,-261.8746 150.788,-218.4422 133,-188 123.5705,-171.8625 126.2532,-129.4258 141,-112 190.7705,-53.1878 431.3446,-23.0123 523.7487,-13.4419"/>
<polygon fill="#191970" stroke="#191970" points="524.1572,-16.9186 533.7527,-12.4268 523.4504,-9.9543 524.1572,-16.9186"/>
</g>
<!-- Node19&#45;&gt;Node4 -->
<g id="edge32" class="edge">
<title>Node19&#45;&gt;Node4</title>
<path fill="none" stroke="#191970" d="M311.0827,-280.4029C304.7344,-257.3531 292.5543,-198.5258 323,-168 342.864,-148.0838 752.7854,-129.2209 884.5764,-123.6513"/>
<polygon fill="#191970" stroke="#191970" points="884.814,-127.1445 894.6584,-123.2283 884.5205,-120.1507 884.814,-127.1445"/>
</g>
<!-- Node19&#45;&gt;Node20 -->
<g id="edge33" class="edge">
<title>Node19&#45;&gt;Node20</title>
<path fill="none" stroke="#191970" d="M324.6254,-280.2455C333.5473,-272.0549 346.488,-260.1749 357.0192,-250.5069"/>
<polygon fill="#191970" stroke="#191970" points="359.4968,-252.9837 364.4964,-243.6427 354.7629,-247.8271 359.4968,-252.9837"/>
</g>
<!-- Node20&#45;&gt;Node3 -->
<g id="edge34" class="edge">
<title>Node20&#45;&gt;Node3</title>
<path fill="none" stroke="#191970" d="M386.1211,-224.4076C402.6471,-210.5203 435.0713,-184.6583 466,-168 615.2275,-87.6255 813.0309,-37.054 894.9618,-18.272"/>
<polygon fill="#191970" stroke="#191970" points="895.8464,-21.6604 904.8256,-16.0367 894.2993,-14.8335 895.8464,-21.6604"/>
</g>
<!-- Node20&#45;&gt;Node6 -->
<g id="edge35" class="edge">
<title>Node20&#45;&gt;Node6</title>
<path fill="none" stroke="#191970" d="M401.6968,-226.2134C433.8564,-216.8335 488.2342,-200.9734 525.7917,-190.0191"/>
<polygon fill="#191970" stroke="#191970" points="526.8096,-193.3681 535.4295,-187.2081 524.8495,-186.6481 526.8096,-193.3681"/>
</g>
<!-- Node20&#45;&gt;Node9 -->
<g id="edge36" class="edge">
<title>Node20&#45;&gt;Node9</title>
<path fill="none" stroke="#191970" d="M348.494,-225.9766C317.809,-216.6881 266.907,-201.28 231.0837,-190.4362"/>
<polygon fill="#191970" stroke="#191970" points="231.9941,-187.0549 221.4089,-187.5076 229.966,-193.7547 231.9941,-187.0549"/>
</g>
<!-- Node20&#45;&gt;Node17 -->
<g id="edge38" class="edge">
<title>Node20&#45;&gt;Node17</title>
<path fill="none" stroke="#191970" d="M395.8006,-224.3733C415.2243,-215.3838 444.4224,-201.8706 466.2964,-191.7471"/>
<polygon fill="#191970" stroke="#191970" points="467.8656,-194.8776 475.4708,-187.5011 464.9255,-188.5249 467.8656,-194.8776"/>
</g>
<!-- Node21 -->
<g id="node22" class="node">
<title>Node21</title>
<g id="a_node22"><a xlink:href="native__sched_8h.html" target="_top" xlink:title="Add definitions required on the native board. ">
<polygon fill="#ffffff" stroke="#000000" points="332,-168.5 332,-187.5 418,-187.5 418,-168.5 332,-168.5"/>
<text text-anchor="middle" x="375" y="-175.5" font-family="Helvetica,sans-Serif" font-size="10.00" fill="#000000">native_sched.h</text>
</a>
</g>
</g>
<!-- Node20&#45;&gt;Node21 -->
<g id="edge37" class="edge">
<title>Node20&#45;&gt;Node21</title>
<path fill="none" stroke="#191970" d="M375,-224.2455C375,-216.9382 375,-206.6944 375,-197.7046"/>
<polygon fill="#191970" stroke="#191970" points="378.5001,-197.6426 375,-187.6427 371.5001,-197.6427 378.5001,-197.6426"/>
</g>
<!-- Node22&#45;&gt;Node20 -->
<g id="edge42" class="edge">
<title>Node22&#45;&gt;Node20</title>
<path fill="none" stroke="#191970" d="M427.0262,-280.2455C417.8118,-272.0549 404.4468,-260.1749 393.5703,-250.5069"/>
<polygon fill="#191970" stroke="#191970" points="395.6474,-247.6704 385.848,-243.6427 390.9968,-252.9023 395.6474,-247.6704"/>
</g>
<!-- Node23 -->
<g id="node24" class="node">
<title>Node23</title>
<polygon fill="#ffffff" stroke="#bfbfbf" points="419.5,-224.5 419.5,-243.5 486.5,-243.5 486.5,-224.5 419.5,-224.5"/>
<text text-anchor="middle" x="453" y="-231.5" font-family="Helvetica,sans-Serif" font-size="10.00" fill="#000000">cpu_conf.h</text>
</g>
<!-- Node22&#45;&gt;Node23 -->
<g id="edge41" class="edge">
<title>Node22&#45;&gt;Node23</title>
<path fill="none" stroke="#191970" d="M440.6128,-280.2455C442.5916,-272.8579 445.3744,-262.4689 447.8012,-253.4087"/>
<polygon fill="#191970" stroke="#191970" points="451.2105,-254.2078 450.4171,-243.6427 444.4489,-252.3966 451.2105,-254.2078"/>
</g>
<!-- Node25&#45;&gt;Node1 -->
<g id="edge50" class="edge">
<title>Node25&#45;&gt;Node1</title>
<path fill="none" stroke="#191970" d="M1332.2394,-224.4535C1346.8927,-216.7383 1365.5498,-204.4549 1376,-188 1394.2646,-159.2407 1409.0708,-137.0685 1386,-112 1353.3077,-76.4769 1000.8848,-82.142 953,-76 901.5433,-69.3998 889.1472,-64.679 838,-56 751.1847,-41.2685 649.0145,-24.5115 596.0023,-15.8604"/>
<polygon fill="#191970" stroke="#191970" points="596.5075,-12.3966 586.0744,-14.2412 595.3806,-19.3053 596.5075,-12.3966"/>
</g>
<!-- Node25&#45;&gt;Node3 -->
<g id="edge49" class="edge">
<title>Node25&#45;&gt;Node3</title>
<path fill="none" stroke="#191970" d="M1347.5534,-225.8061C1381.4395,-217.3818 1428.2011,-203.3559 1439,-188 1458.4303,-160.3703 1460.3949,-138.138 1439,-112 1379.5355,-39.3525 1078.4598,-17.2959 971.0986,-11.6817"/>
<polygon fill="#191970" stroke="#191970" points="971.1974,-8.1823 961.0338,-11.1743 970.8448,-15.1734 971.1974,-8.1823"/>
</g>
<!-- Node25&#45;&gt;Node4 -->
<g id="edge48" class="edge">
<title>Node25&#45;&gt;Node4</title>
<path fill="none" stroke="#191970" d="M1284.165,-224.4064C1260.2221,-215.6216 1224.3603,-201.9069 1194,-188 1176.6485,-180.0519 1173.9894,-174.374 1156,-168 1091.3205,-145.0826 1012.1793,-132.4446 965.3274,-126.4569"/>
<polygon fill="#191970" stroke="#191970" points="965.626,-122.9672 955.2715,-125.2108 964.7652,-129.914 965.626,-122.9672"/>
</g>
<!-- Node26 -->
<g id="node27" class="node">
<title>Node26</title>
<g id="a_node27"><a xlink:href="endian_8h.html" target="_top" xlink:title="libc header for endian conversion ">
<polygon fill="#ffffff" stroke="#000000" points="771.5,-56.5 771.5,-75.5 828.5,-75.5 828.5,-56.5 771.5,-56.5"/>
<text text-anchor="middle" x="800" y="-63.5" font-family="Helvetica,sans-Serif" font-size="10.00" fill="#000000">endian.h</text>
</a>
</g>
</g>
<!-- Node25&#45;&gt;Node26 -->
<g id="edge45" class="edge">
<title>Node25&#45;&gt;Node26</title>
<path fill="none" stroke="#191970" d="M1322.2034,-224.2818C1346.6415,-201.967 1400.0705,-146.3449 1368,-112 1328.0945,-69.2644 900.827,-84.6498 843,-76 841.5313,-75.7803 840.0387,-75.5366 838.5341,-75.2738"/>
<polygon fill="#191970" stroke="#191970" points="839.0456,-71.8074 828.5584,-73.3133 837.6958,-78.676 839.0456,-71.8074"/>
</g>
<!-- Node27 -->
<g id="node28" class="node">
<title>Node27</title>
<g id="a_node28"><a xlink:href="errno_8h.html" target="_top" xlink:title="errno.h">
<polygon fill="#ffffff" stroke="#000000" points="1093.5,-168.5 1093.5,-187.5 1146.5,-187.5 1146.5,-168.5 1093.5,-168.5"/>
<text text-anchor="middle" x="1120" y="-175.5" font-family="Helvetica,sans-Serif" font-size="10.00" fill="#000000">errno.h</text>
</a>
</g>
</g>
<!-- Node25&#45;&gt;Node27 -->
<g id="edge47" class="edge">
<title>Node25&#45;&gt;Node27</title>
<path fill="none" stroke="#191970" d="M1278.1659,-224.3733C1244.2861,-214.4399 1191.567,-198.983 1156.4245,-188.6794"/>
<polygon fill="#191970" stroke="#191970" points="1157.1472,-185.244 1146.5664,-185.7891 1155.1777,-191.9613 1157.1472,-185.244"/>
</g>
<!-- Node28 -->
<g id="node29" class="node">
<title>Node28</title>
<polygon fill="#ffffff" stroke="#bfbfbf" points="1182.5,-112.5 1182.5,-131.5 1259.5,-131.5 1259.5,-112.5 1182.5,-112.5"/>
<text text-anchor="middle" x="1221" y="-119.5" font-family="Helvetica,sans-Serif" font-size="10.00" fill="#000000">periph_cpu.h</text>
</g>
<!-- Node25&#45;&gt;Node28 -->
<g id="edge51" class="edge">
<title>Node25&#45;&gt;Node28</title>
<path fill="none" stroke="#191970" d="M1310.3043,-224.1003C1308.8899,-210.2968 1304.6427,-185.0478 1292,-168 1282.0482,-154.5806 1266.9224,-144.0047 1253.1855,-136.3947"/>
<polygon fill="#191970" stroke="#191970" points="1254.4641,-133.1146 1243.9778,-131.6017 1251.2319,-139.3237 1254.4641,-133.1146"/>
</g>
<!-- Node29 -->
<g id="node30" class="node">
<title>Node29</title>
<polygon fill="#ffffff" stroke="#bfbfbf" points="1277.5,-112.5 1277.5,-131.5 1358.5,-131.5 1358.5,-112.5 1277.5,-112.5"/>
<text text-anchor="middle" x="1318" y="-119.5" font-family="Helvetica,sans-Serif" font-size="10.00" fill="#000000">periph_conf.h</text>
</g>
<!-- Node25&#45;&gt;Node29 -->
<g id="edge52" class="edge">
<title>Node25&#45;&gt;Node29</title>
<path fill="none" stroke="#191970" d="M1314.8624,-224.3228C1318.3038,-215.1446 1323.0833,-200.8807 1325,-188 1327.3054,-172.5071 1325.1887,-154.858 1322.6961,-141.7111"/>
<polygon fill="#191970" stroke="#191970" points="1326.1074,-140.9254 1320.6028,-131.8728 1319.2607,-142.3823 1326.1074,-140.9254"/>
</g>
<!-- Node25&#45;&gt;Node30 -->
<g id="edge53" class="edge">
<title>Node25&#45;&gt;Node30</title>
<path fill="none" stroke="#191970" d="M1299.1553,-224.2455C1289.112,-215.9746 1274.5005,-203.9416 1262.6996,-194.2232"/>
<polygon fill="#191970" stroke="#191970" points="1264.6533,-191.298 1254.709,-187.6427 1260.2033,-196.7015 1264.6533,-191.298"/>
</g>
<!-- Node26&#45;&gt;Node1 -->
<g id="edge46" class="edge">
<title>Node26&#45;&gt;Node1</title>
<path fill="none" stroke="#191970" d="M771.0504,-59.2451C727.1455,-49.0006 643.7922,-29.5515 596.0276,-18.4064"/>
<polygon fill="#191970" stroke="#191970" points="596.6515,-14.9581 586.1178,-16.0942 595.0609,-21.775 596.6515,-14.9581"/>
</g>
<!-- Node30&#45;&gt;Node4 -->
<g id="edge55" class="edge">
<title>Node30&#45;&gt;Node4</title>
<path fill="none" stroke="#191970" d="M1202.9041,-170.526C1198.218,-169.667 1193.5044,-168.8095 1189,-168 1109.7478,-153.7577 1016.9873,-137.7474 965.2086,-128.8697"/>
<polygon fill="#191970" stroke="#191970" points="965.5558,-125.3782 955.1083,-127.1393 964.3737,-132.2777 965.5558,-125.3782"/>
</g>
<!-- Node30&#45;&gt;Node7 -->
<g id="edge54" class="edge">
<title>Node30&#45;&gt;Node7</title>
<path fill="none" stroke="#191970" d="M1223.0589,-168.3733C1204.5214,-159.4241 1176.6972,-145.9917 1155.7587,-135.8835"/>
<polygon fill="#191970" stroke="#191970" points="1157.2081,-132.6967 1146.6809,-131.5011 1154.1648,-139.0006 1157.2081,-132.6967"/>
</g>
<!-- Node30&#45;&gt;Node28 -->
<g id="edge56" class="edge">
<title>Node30&#45;&gt;Node28</title>
<path fill="none" stroke="#191970" d="M1239.1679,-168.2455C1236.2341,-160.7776 1232.0953,-150.2427 1228.509,-141.1137"/>
<polygon fill="#191970" stroke="#191970" points="1231.7024,-139.6704 1224.7882,-131.6427 1225.1871,-142.23 1231.7024,-139.6704"/>
</g>
<!-- Node30&#45;&gt;Node29 -->
<g id="edge57" class="edge">
<title>Node30&#45;&gt;Node29</title>
<path fill="none" stroke="#191970" d="M1256.064,-168.2455C1267.3562,-159.814 1283.8845,-147.4729 1297.0271,-137.6598"/>
<polygon fill="#191970" stroke="#191970" points="1299.1669,-140.4301 1305.0857,-131.6427 1294.9789,-134.8211 1299.1669,-140.4301"/>
</g>
<!-- Node31&#45;&gt;Node1 -->
<g id="edge60" class="edge">
<title>Node31&#45;&gt;Node1</title>
<path fill="none" stroke="#191970" d="M947.4945,-224.4532C891.4893,-202.1675 750.6546,-143.4575 643,-76 619.2203,-61.0994 594.3324,-40.5439 578.0867,-26.3506"/>
<polygon fill="#191970" stroke="#191970" points="580.238,-23.5805 570.4307,-19.5719 575.5976,-28.8215 580.238,-23.5805"/>
</g>
<!-- Node31&#45;&gt;Node9 -->
<g id="edge72" class="edge">
<title>Node31&#45;&gt;Node9</title>
<path fill="none" stroke="#191970" d="M933.2254,-231.31C832.5416,-224.3122 554.5086,-204.9077 323,-188 298.3567,-186.2002 271.149,-184.1634 247.7965,-182.3998"/>
<polygon fill="#191970" stroke="#191970" points="247.9389,-178.9006 237.7034,-181.6365 247.4109,-185.8807 247.9389,-178.9006"/>
</g>
<!-- Node31&#45;&gt;Node27 -->
<g id="edge61" class="edge">
<title>Node31&#45;&gt;Node27</title>
<path fill="none" stroke="#191970" d="M997.4421,-224.3733C1021.7326,-215.1822 1058.5208,-201.2624 1085.4543,-191.0713"/>
<polygon fill="#191970" stroke="#191970" points="1086.7757,-194.3136 1094.8899,-187.5011 1084.2984,-187.7666 1086.7757,-194.3136"/>
</g>
<!-- Node32 -->
<g id="node33" class="node">
<title>Node32</title>
<g id="a_node33"><a xlink:href="iolist_8h.html" target="_top" xlink:title="iolist scatter / gather IO ">
<polygon fill="#ffffff" stroke="#000000" points="1028.5,-168.5 1028.5,-187.5 1075.5,-187.5 1075.5,-168.5 1028.5,-168.5"/>
<text text-anchor="middle" x="1052" y="-175.5" font-family="Helvetica,sans-Serif" font-size="10.00" fill="#000000">iolist.h</text>
</a>
</g>
</g>
<!-- Node31&#45;&gt;Node32 -->
<g id="edge62" class="edge">
<title>Node31&#45;&gt;Node32</title>
<path fill="none" stroke="#191970" d="M985.9349,-224.2455C998.0947,-215.7337 1015.9464,-203.2375 1030.0285,-193.3801"/>
<polygon fill="#191970" stroke="#191970" points="1032.0395,-196.2447 1038.2248,-187.6427 1028.0253,-190.51 1032.0395,-196.2447"/>
</g>
<!-- Node35 -->
<g id="node36" class="node">
<title>Node35</title>
<g id="a_node36"><a xlink:href="netopt_8h.html" target="_top" xlink:title="Definition of global configuration options. ">
<polygon fill="#ffffff" stroke="#000000" points="933.5,-168.5 933.5,-187.5 1010.5,-187.5 1010.5,-168.5 933.5,-168.5"/>
<text text-anchor="middle" x="972" y="-175.5" font-family="Helvetica,sans-Serif" font-size="10.00" fill="#000000">net/netopt.h</text>
</a>
</g>
</g>
<!-- Node31&#45;&gt;Node35 -->
<g id="edge69" class="edge">
<title>Node31&#45;&gt;Node35</title>
<path fill="none" stroke="#191970" d="M972,-224.2455C972,-216.9382 972,-206.6944 972,-197.7046"/>
<polygon fill="#191970" stroke="#191970" points="975.5001,-197.6426 972,-187.6427 968.5001,-197.6427 975.5001,-197.6426"/>
</g>
<!-- Node33 -->
<g id="node34" class="node">
<title>Node33</title>
<g id="a_node34"><a xlink:href="unistd_8h_source.html" target="_top" xlink:title="unistd.h">
<polygon fill="#ffffff" stroke="#000000" points="1018,-112.5 1018,-131.5 1072,-131.5 1072,-112.5 1018,-112.5"/>
<text text-anchor="middle" x="1045" y="-119.5" font-family="Helvetica,sans-Serif" font-size="10.00" fill="#000000">unistd.h</text>
</a>
</g>
</g>
<!-- Node32&#45;&gt;Node33 -->
<g id="edge63" class="edge">
<title>Node32&#45;&gt;Node33</title>
<path fill="none" stroke="#191970" d="M1050.7807,-168.2455C1049.8673,-160.9382 1048.5868,-150.6944 1047.4631,-141.7046"/>
<polygon fill="#191970" stroke="#191970" points="1050.9187,-141.1313 1046.2053,-131.6427 1043.9728,-141.9996 1050.9187,-141.1313"/>
</g>
<!-- Node33&#45;&gt;Node1 -->
<g id="edge65" class="edge">
<title>Node33&#45;&gt;Node1</title>
<path fill="none" stroke="#191970" d="M1017.8869,-116.0911C1011.0814,-114.6797 1003.7847,-113.2278 997,-112 893.4581,-93.2631 865.3682,-100.3467 763,-76 702.6755,-61.6528 634.4877,-37.8658 594.4853,-23.1075"/>
<polygon fill="#191970" stroke="#191970" points="595.5373,-19.7647 584.9444,-19.5612 593.0984,-26.3261 595.5373,-19.7647"/>
</g>
<!-- Node33&#45;&gt;Node3 -->
<g id="edge64" class="edge">
<title>Node33&#45;&gt;Node3</title>
<path fill="none" stroke="#191970" d="M1047.1182,-112.4536C1049.6097,-98.6234 1052.0215,-72.832 1040,-56 1024.0615,-33.6835 994.979,-22.102 971.153,-16.1446"/>
<polygon fill="#191970" stroke="#191970" points="971.843,-12.7123 961.3174,-13.9209 970.2993,-19.54 971.843,-12.7123"/>
</g>
<!-- Node34 -->
<g id="node35" class="node">
<title>Node34</title>
<g id="a_node35"><a xlink:href="cpu_2avr8__common_2avr__libc__extra_2include_2sys_2types_8h_source.html" target="_top" xlink:title="sys/types.h">
<polygon fill="#ffffff" stroke="#000000" points="961.5,-56.5 961.5,-75.5 1030.5,-75.5 1030.5,-56.5 961.5,-56.5"/>
<text text-anchor="middle" x="996" y="-63.5" font-family="Helvetica,sans-Serif" font-size="10.00" fill="#000000">sys/types.h</text>
</a>
</g>
</g>
<!-- Node33&#45;&gt;Node34 -->
<g id="edge66" class="edge">
<title>Node33&#45;&gt;Node34</title>
<path fill="none" stroke="#191970" d="M1036.4649,-112.2455C1029.5088,-104.2958 1019.5117,-92.8706 1011.1949,-83.3656"/>
<polygon fill="#191970" stroke="#191970" points="1013.6564,-80.8637 1004.4373,-75.6427 1008.3884,-85.4732 1013.6564,-80.8637"/>
</g>
<!-- Node34&#45;&gt;Node1 -->
<g id="edge67" class="edge">
<title>Node34&#45;&gt;Node1</title>
<path fill="none" stroke="#191970" d="M961.4234,-61.559C880.3823,-51.15 678.803,-25.2591 596.1889,-14.6481"/>
<polygon fill="#191970" stroke="#191970" points="596.3956,-11.146 586.0312,-13.3435 595.5038,-18.089 596.3956,-11.146"/>
</g>
<!-- Node34&#45;&gt;Node3 -->
<g id="edge68" class="edge">
<title>Node34&#45;&gt;Node3</title>
<path fill="none" stroke="#191970" d="M985.0262,-56.2455C975.8118,-48.0549 962.4468,-36.1749 951.5703,-26.5069"/>
<polygon fill="#191970" stroke="#191970" points="953.6474,-23.6704 943.848,-19.6427 948.9968,-28.9023 953.6474,-23.6704"/>
</g>
<!-- Node35&#45;&gt;Node1 -->
<g id="edge70" class="edge">
<title>Node35&#45;&gt;Node1</title>
<path fill="none" stroke="#191970" d="M974.085,-168.3869C976.5858,-153.9909 978.776,-126.9317 964,-112 920.9583,-68.5045 749.4786,-94.0194 691,-76 670.0676,-69.55 618.1174,-41.9679 586.2856,-24.5655"/>
<polygon fill="#191970" stroke="#191970" points="587.9465,-21.4847 577.4964,-19.7397 584.5775,-27.6206 587.9465,-21.4847"/>
</g>
<!-- Node35&#45;&gt;Node4 -->
<g id="edge71" class="edge">
<title>Node35&#45;&gt;Node4</title>
<path fill="none" stroke="#191970" d="M963.8132,-168.2455C957.1411,-160.2958 947.5521,-148.8706 939.5747,-139.3656"/>
<polygon fill="#191970" stroke="#191970" points="942.2026,-137.0524 933.093,-131.6427 936.8408,-141.5525 942.2026,-137.0524"/>
</g>
</g>
</svg>
