<?xml version="1.0" encoding="UTF-8" standalone="no"?>
<!DOCTYPE svg PUBLIC "-//W3C//DTD SVG 1.1//EN"
 "http://www.w3.org/Graphics/SVG/1.1/DTD/svg11.dtd">
<!-- Generated by graphviz version 2.40.1 (0)
 -->
<!-- Title: drivers/encx24j600/include/encx24j600_params.h Pages: 1 -->
<svg width="1534pt" height="554pt"
 viewBox="0.00 0.00 1533.53 554.00" xmlns="http://www.w3.org/2000/svg" xmlns:xlink="http://www.w3.org/1999/xlink">
<g id="graph0" class="graph" transform="scale(1 1) rotate(0) translate(4 550)">
<title>drivers/encx24j600/include/encx24j600_params.h</title>
<polygon fill="#ffffff" stroke="transparent" points="-4,4 -4,-550 1529.5299,-550 1529.5299,4 -4,4"/>
<!-- Node0 -->
<g id="node1" class="node">
<title>Node0</title>
<polygon fill="#bfbfbf" stroke="#000000" points="379,-504.5 379,-545.5 490,-545.5 490,-504.5 379,-504.5"/>
<text text-anchor="start" x="387" y="-533.5" font-family="Helvetica,sans-Serif" font-size="10.00" fill="#000000">drivers/encx24j600</text>
<text text-anchor="start" x="387" y="-522.5" font-family="Helvetica,sans-Serif" font-size="10.00" fill="#000000">/include/encx24j600</text>
<text text-anchor="middle" x="434.5" y="-511.5" font-family="Helvetica,sans-Serif" font-size="10.00" fill="#000000">_params.h</text>
</g>
<!-- Node1 -->
<g id="node2" class="node">
<title>Node1</title>
<g id="a_node2"><a xlink:href="encx24j600_8h.html" target="_top" xlink:title="Interface definition for the ENCX24J600 driver. ">
<polygon fill="#ffffff" stroke="#000000" points="352.5,-448.5 352.5,-467.5 432.5,-467.5 432.5,-448.5 352.5,-448.5"/>
<text text-anchor="middle" x="392.5" y="-455.5" font-family="Helvetica,sans-Serif" font-size="10.00" fill="#000000">encx24j600.h</text>
</a>
</g>
</g>
<!-- Node0&#45;&gt;Node1 -->
<g id="edge1" class="edge">
<title>Node0&#45;&gt;Node1</title>
<path fill="none" stroke="#191970" d="M421.4412,-504.168C415.853,-495.2536 409.385,-484.9356 403.9827,-476.3177"/>
<polygon fill="#191970" stroke="#191970" points="406.9079,-474.3944 398.631,-467.7805 400.9769,-478.1123 406.9079,-474.3944"/>
</g>
<!-- Node37 -->
<g id="node38" class="node">
<title>Node37</title>
<polygon fill="#ffffff" stroke="#bfbfbf" points="451,-448.5 451,-467.5 504,-467.5 504,-448.5 451,-448.5"/>
<text text-anchor="middle" x="477.5" y="-455.5" font-family="Helvetica,sans-Serif" font-size="10.00" fill="#000000">board.h</text>
</g>
<!-- Node0&#45;&gt;Node37 -->
<g id="edge73" class="edge">
<title>Node0&#45;&gt;Node37</title>
<path fill="none" stroke="#191970" d="M447.8698,-504.168C453.591,-495.2536 460.213,-484.9356 465.7439,-476.3177"/>
<polygon fill="#191970" stroke="#191970" points="468.7673,-478.0868 471.223,-467.7805 462.8762,-474.3059 468.7673,-478.0868"/>
</g>
<!-- Node2 -->
<g id="node3" class="node">
<title>Node2</title>
<g id="a_node3"><a xlink:href="mutex_8h.html" target="_top" xlink:title="Mutex for thread synchronization. ">
<polygon fill="#ffffff" stroke="#000000" points="1080.5,-392.5 1080.5,-411.5 1136.5,-411.5 1136.5,-392.5 1080.5,-392.5"/>
<text text-anchor="middle" x="1108.5" y="-399.5" font-family="Helvetica,sans-Serif" font-size="10.00" fill="#000000">mutex.h</text>
</a>
</g>
</g>
<!-- Node1&#45;&gt;Node2 -->
<g id="edge2" class="edge">
<title>Node1&#45;&gt;Node2</title>
<path fill="none" stroke="#191970" d="M432.5375,-449.3792C435.5625,-448.8659 438.5749,-448.3976 441.5,-448 679.2219,-415.6901 967.8635,-405.5674 1070.2468,-402.8664"/>
<polygon fill="#191970" stroke="#191970" points="1070.4989,-406.3612 1080.4063,-402.6069 1070.3201,-399.3635 1070.4989,-406.3612"/>
</g>
<!-- Node26 -->
<g id="node27" class="node">
<title>Node26</title>
<g id="a_node27"><a xlink:href="spi_8h.html" target="_top" xlink:title="Low&#45;level SPI peripheral driver interface definition. ">
<polygon fill="#ffffff" stroke="#000000" points="274,-224.5 274,-243.5 347,-243.5 347,-224.5 274,-224.5"/>
<text text-anchor="middle" x="310.5" y="-231.5" font-family="Helvetica,sans-Serif" font-size="10.00" fill="#000000">periph/spi.h</text>
</a>
</g>
</g>
<!-- Node1&#45;&gt;Node26 -->
<g id="edge44" class="edge">
<title>Node1&#45;&gt;Node26</title>
<path fill="none" stroke="#191970" d="M388.9766,-448.375C376.5179,-414.3415 334.3905,-299.262 317.5458,-253.247"/>
<polygon fill="#191970" stroke="#191970" points="320.7347,-251.7765 314.0103,-243.5891 314.1613,-254.1829 320.7347,-251.7765"/>
</g>
<!-- Node31 -->
<g id="node32" class="node">
<title>Node31</title>
<g id="a_node32"><a xlink:href="drivers_2include_2periph_2gpio_8h.html" target="_top" xlink:title="Low&#45;level GPIO peripheral driver interface definitions. ">
<polygon fill="#ffffff" stroke="#000000" points="126.5,-168.5 126.5,-187.5 206.5,-187.5 206.5,-168.5 126.5,-168.5"/>
<text text-anchor="middle" x="166.5" y="-175.5" font-family="Helvetica,sans-Serif" font-size="10.00" fill="#000000">periph/gpio.h</text>
</a>
</g>
</g>
<!-- Node1&#45;&gt;Node31 -->
<g id="edge58" class="edge">
<title>Node1&#45;&gt;Node31</title>
<path fill="none" stroke="#191970" d="M352.1408,-452.0102C297.4367,-441.3464 206.5,-413.4723 206.5,-346 206.5,-346 206.5,-346 206.5,-290 206.5,-255.4432 189.403,-218.1996 177.5642,-196.5529"/>
<polygon fill="#191970" stroke="#191970" points="180.5578,-194.7365 172.5751,-187.7703 174.4713,-198.1941 180.5578,-194.7365"/>
</g>
<!-- Node32 -->
<g id="node33" class="node">
<title>Node32</title>
<g id="a_node33"><a xlink:href="drivers_2include_2net_2netdev_8h.html" target="_top" xlink:title="Definitions low&#45;level network driver interface. ">
<polygon fill="#ffffff" stroke="#000000" points="529,-224.5 529,-243.5 606,-243.5 606,-224.5 529,-224.5"/>
<text text-anchor="middle" x="567.5" y="-231.5" font-family="Helvetica,sans-Serif" font-size="10.00" fill="#000000">net/netdev.h</text>
</a>
</g>
</g>
<!-- Node1&#45;&gt;Node32 -->
<g id="edge59" class="edge">
<title>Node1&#45;&gt;Node32</title>
<path fill="none" stroke="#191970" d="M400.0195,-448.375C426.9448,-413.9107 518.8003,-296.3356 553.8022,-251.5331"/>
<polygon fill="#191970" stroke="#191970" points="556.6101,-253.6242 560.0085,-243.5891 551.0939,-249.3146 556.6101,-253.6242"/>
</g>
<!-- Node3 -->
<g id="node4" class="node">
<title>Node3</title>
<polygon fill="#ffffff" stroke="#bfbfbf" points="1086.5,-.5 1086.5,-19.5 1142.5,-19.5 1142.5,-.5 1086.5,-.5"/>
<text text-anchor="middle" x="1114.5" y="-7.5" font-family="Helvetica,sans-Serif" font-size="10.00" fill="#000000">stddef.h</text>
</g>
<!-- Node2&#45;&gt;Node3 -->
<g id="edge3" class="edge">
<title>Node2&#45;&gt;Node3</title>
<path fill="none" stroke="#191970" d="M1136.5062,-400.4102C1221.5769,-395.3505 1472.9122,-378.6149 1501.5,-356 1525.9792,-336.6353 1525.5,-321.2125 1525.5,-290 1525.5,-290 1525.5,-290 1525.5,-122 1525.5,-45.2146 1255.0846,-19.3065 1152.9422,-12.2592"/>
<polygon fill="#191970" stroke="#191970" points="1152.9602,-8.7527 1142.7497,-11.5805 1152.495,-15.7373 1152.9602,-8.7527"/>
</g>
<!-- Node4 -->
<g id="node5" class="node">
<title>Node4</title>
<polygon fill="#ffffff" stroke="#bfbfbf" points="703.5,-.5 703.5,-19.5 755.5,-19.5 755.5,-.5 703.5,-.5"/>
<text text-anchor="middle" x="729.5" y="-7.5" font-family="Helvetica,sans-Serif" font-size="10.00" fill="#000000">stdint.h</text>
</g>
<!-- Node2&#45;&gt;Node4 -->
<g id="edge4" class="edge">
<title>Node2&#45;&gt;Node4</title>
<path fill="none" stroke="#191970" d="M1136.677,-399.7936C1224.5111,-392.1503 1487.5,-363.1571 1487.5,-290 1487.5,-290 1487.5,-290 1487.5,-234 1487.5,-178.8226 1503.2728,-151.2582 1464.5,-112 1414.7066,-61.5832 907.5973,-22.4854 766.0281,-12.4907"/>
<polygon fill="#191970" stroke="#191970" points="765.9425,-8.9762 755.7224,-11.7691 765.4535,-15.9591 765.9425,-8.9762"/>
</g>
<!-- Node5 -->
<g id="node6" class="node">
<title>Node5</title>
<polygon fill="#ffffff" stroke="#bfbfbf" points="766.5,-112.5 766.5,-131.5 826.5,-131.5 826.5,-112.5 766.5,-112.5"/>
<text text-anchor="middle" x="796.5" y="-119.5" font-family="Helvetica,sans-Serif" font-size="10.00" fill="#000000">stdbool.h</text>
</g>
<!-- Node2&#45;&gt;Node5 -->
<g id="edge5" class="edge">
<title>Node2&#45;&gt;Node5</title>
<path fill="none" stroke="#191970" d="M1080.4808,-399.9589C1023.0847,-394.0959 897.5,-371.9086 897.5,-290 897.5,-290 897.5,-290 897.5,-234 897.5,-203.3494 896.6361,-191.943 877.5,-168 866.1287,-153.7722 849.0853,-143.16 833.5616,-135.7358"/>
<polygon fill="#191970" stroke="#191970" points="834.7135,-132.4167 824.1566,-131.5214 831.851,-138.8047 834.7135,-132.4167"/>
</g>
<!-- Node6 -->
<g id="node7" class="node">
<title>Node6</title>
<g id="a_node7"><a xlink:href="architecture_8h.html" target="_top" xlink:title="Platform&#45;independent access to architecture details. ">
<polygon fill="#ffffff" stroke="#000000" points="774,-224.5 774,-243.5 857,-243.5 857,-224.5 774,-224.5"/>
<text text-anchor="middle" x="815.5" y="-231.5" font-family="Helvetica,sans-Serif" font-size="10.00" fill="#000000">architecture.h</text>
</a>
</g>
</g>
<!-- Node2&#45;&gt;Node6 -->
<g id="edge6" class="edge">
<title>Node2&#45;&gt;Node6</title>
<path fill="none" stroke="#191970" d="M1080.3807,-399.1881C1027.2451,-393.4078 914.6242,-378.788 883.5,-356 848.4374,-330.3285 829.1414,-280.812 820.7201,-253.4161"/>
<polygon fill="#191970" stroke="#191970" points="824.074,-252.4145 817.93,-243.7831 817.3503,-254.3621 824.074,-252.4145"/>
</g>
<!-- Node10 -->
<g id="node11" class="node">
<title>Node10</title>
<g id="a_node11"><a xlink:href="kernel__defines_8h.html" target="_top" xlink:title="Common macros and compiler attributes/pragmas configuration. ">
<polygon fill="#ffffff" stroke="#000000" points="964,-168.5 964,-187.5 1059,-187.5 1059,-168.5 964,-168.5"/>
<text text-anchor="middle" x="1011.5" y="-175.5" font-family="Helvetica,sans-Serif" font-size="10.00" fill="#000000">kernel_defines.h</text>
</a>
</g>
</g>
<!-- Node2&#45;&gt;Node10 -->
<g id="edge11" class="edge">
<title>Node2&#45;&gt;Node10</title>
<path fill="none" stroke="#191970" d="M1097.1021,-392.3847C1078.274,-375.7472 1041.1082,-339.553 1024.5,-300 1010.269,-266.1083 1009.3169,-222.471 1010.2078,-197.6281"/>
<polygon fill="#191970" stroke="#191970" points="1013.7035,-197.8007 1010.7058,-187.6388 1006.7121,-197.4521 1013.7035,-197.8007"/>
</g>
<!-- Node16 -->
<g id="node17" class="node">
<title>Node16</title>
<g id="a_node17"><a xlink:href="list_8h.html" target="_top" xlink:title="Intrusive linked list. ">
<polygon fill="#ffffff" stroke="#000000" points="1417.5,-112.5 1417.5,-131.5 1455.5,-131.5 1455.5,-112.5 1417.5,-112.5"/>
<text text-anchor="middle" x="1436.5" y="-119.5" font-family="Helvetica,sans-Serif" font-size="10.00" fill="#000000">list.h</text>
</a>
</g>
</g>
<!-- Node2&#45;&gt;Node16 -->
<g id="edge22" class="edge">
<title>Node2&#45;&gt;Node16</title>
<path fill="none" stroke="#191970" d="M1136.6956,-398.8938C1218.3949,-389.1181 1449.5,-355.6622 1449.5,-290 1449.5,-290 1449.5,-290 1449.5,-234 1449.5,-201.3457 1443.98,-163.6911 1440.1339,-141.4184"/>
<polygon fill="#191970" stroke="#191970" points="1443.5735,-140.7698 1438.3626,-131.545 1436.6835,-142.0059 1443.5735,-140.7698"/>
</g>
<!-- Node17 -->
<g id="node18" class="node">
<title>Node17</title>
<g id="a_node18"><a xlink:href="core_2include_2thread_8h.html" target="_top" xlink:title="Threading API. ">
<polygon fill="#ffffff" stroke="#000000" points="1184,-336.5 1184,-355.5 1241,-355.5 1241,-336.5 1184,-336.5"/>
<text text-anchor="middle" x="1212.5" y="-343.5" font-family="Helvetica,sans-Serif" font-size="10.00" fill="#000000">thread.h</text>
</a>
</g>
</g>
<!-- Node2&#45;&gt;Node17 -->
<g id="edge23" class="edge">
<title>Node2&#45;&gt;Node17</title>
<path fill="none" stroke="#191970" d="M1126.6154,-392.2455C1142.945,-383.4527 1167.171,-370.4079 1185.7339,-360.4125"/>
<polygon fill="#191970" stroke="#191970" points="1187.4468,-363.4654 1194.5922,-355.6427 1184.1281,-357.3021 1187.4468,-363.4654"/>
</g>
<!-- Node6&#45;&gt;Node4 -->
<g id="edge7" class="edge">
<title>Node6&#45;&gt;Node4</title>
<path fill="none" stroke="#191970" d="M801.52,-224.4781C782.0608,-211.3345 745.5817,-187.0925 713.5,-168 684.7868,-150.9121 664.5563,-160.732 647.5,-132 624.0419,-92.4839 674.1559,-48.1969 705.9472,-25.4022"/>
<polygon fill="#191970" stroke="#191970" points="708.1351,-28.144 714.3517,-19.5647 704.1418,-22.3947 708.1351,-28.144"/>
</g>
<!-- Node7 -->
<g id="node8" class="node">
<title>Node7</title>
<g id="a_node8"><a xlink:href="inttypes_8h.html" target="_top" xlink:title="Adds include for missing inttype definitions. ">
<polygon fill="#ffffff" stroke="#000000" points="1116,-168.5 1116,-187.5 1179,-187.5 1179,-168.5 1116,-168.5"/>
<text text-anchor="middle" x="1147.5" y="-175.5" font-family="Helvetica,sans-Serif" font-size="10.00" fill="#000000">inttypes.h</text>
</a>
</g>
</g>
<!-- Node6&#45;&gt;Node7 -->
<g id="edge8" class="edge">
<title>Node6&#45;&gt;Node7</title>
<path fill="none" stroke="#191970" d="M857.2119,-226.9643C920.8914,-216.2231 1041.6672,-195.8513 1105.5116,-185.0824"/>
<polygon fill="#191970" stroke="#191970" points="1106.3467,-188.491 1115.6253,-183.3765 1105.1824,-181.5885 1106.3467,-188.491"/>
</g>
<!-- Node8 -->
<g id="node9" class="node">
<title>Node8</title>
<polygon fill="#ffffff" stroke="#bfbfbf" points="194.5,-112.5 194.5,-131.5 244.5,-131.5 244.5,-112.5 194.5,-112.5"/>
<text text-anchor="middle" x="219.5" y="-119.5" font-family="Helvetica,sans-Serif" font-size="10.00" fill="#000000">limits.h</text>
</g>
<!-- Node6&#45;&gt;Node8 -->
<g id="edge9" class="edge">
<title>Node6&#45;&gt;Node8</title>
<path fill="none" stroke="#191970" d="M773.5513,-227.6997C721.6456,-219.6595 630.6702,-204.7682 553.5,-188 518.9485,-180.4923 511.039,-175.5649 476.5,-168 397.7526,-150.7525 304.3815,-135.2679 254.7126,-127.4212"/>
<polygon fill="#191970" stroke="#191970" points="255.2199,-123.9581 244.7981,-125.8649 254.1343,-130.8734 255.2199,-123.9581"/>
</g>
<!-- Node9 -->
<g id="node10" class="node">
<title>Node9</title>
<polygon fill="#ffffff" stroke="#bfbfbf" points="762,-168.5 762,-187.5 869,-187.5 869,-168.5 762,-168.5"/>
<text text-anchor="middle" x="815.5" y="-175.5" font-family="Helvetica,sans-Serif" font-size="10.00" fill="#000000">architecture_arch.h</text>
</g>
<!-- Node6&#45;&gt;Node9 -->
<g id="edge10" class="edge">
<title>Node6&#45;&gt;Node9</title>
<path fill="none" stroke="#191970" d="M815.5,-224.2455C815.5,-216.9382 815.5,-206.6944 815.5,-197.7046"/>
<polygon fill="#191970" stroke="#191970" points="819.0001,-197.6426 815.5,-187.6427 812.0001,-197.6427 819.0001,-197.6426"/>
</g>
<!-- Node11 -->
<g id="node12" class="node">
<title>Node11</title>
<g id="a_node12"><a xlink:href="modules_8h.html" target="_top" xlink:title="Common macros and compiler attributes/pragmas configuration. ">
<polygon fill="#ffffff" stroke="#000000" points="994,-112.5 994,-131.5 1059,-131.5 1059,-112.5 994,-112.5"/>
<text text-anchor="middle" x="1026.5" y="-119.5" font-family="Helvetica,sans-Serif" font-size="10.00" fill="#000000">modules.h</text>
</a>
</g>
</g>
<!-- Node10&#45;&gt;Node11 -->
<g id="edge12" class="edge">
<title>Node10&#45;&gt;Node11</title>
<path fill="none" stroke="#191970" d="M1014.1128,-168.2455C1016.0916,-160.8579 1018.8744,-150.4689 1021.3012,-141.4087"/>
<polygon fill="#191970" stroke="#191970" points="1024.7105,-142.2078 1023.9171,-131.6427 1017.9489,-140.3966 1024.7105,-142.2078"/>
</g>
<!-- Node12 -->
<g id="node13" class="node">
<title>Node12</title>
<g id="a_node13"><a xlink:href="riot__version_8h.html" target="_top" xlink:title="Common macros and compiler attributes/pragmas configuration. ">
<polygon fill="#ffffff" stroke="#000000" points="821,-56.5 821,-75.5 902,-75.5 902,-56.5 821,-56.5"/>
<text text-anchor="middle" x="861.5" y="-63.5" font-family="Helvetica,sans-Serif" font-size="10.00" fill="#000000">riot_version.h</text>
</a>
</g>
</g>
<!-- Node10&#45;&gt;Node12 -->
<g id="edge13" class="edge">
<title>Node10&#45;&gt;Node12</title>
<path fill="none" stroke="#191970" d="M968.2698,-168.4865C933.0214,-159.8576 887.0828,-146.3271 874.5,-132 863.5544,-119.537 860.7526,-100.5875 860.4274,-86.1853"/>
<polygon fill="#191970" stroke="#191970" points="863.9326,-85.8742 860.5892,-75.8207 856.9334,-85.7648 863.9326,-85.8742"/>
</g>
<!-- Node13 -->
<g id="node14" class="node">
<title>Node13</title>
<g id="a_node14"><a xlink:href="compiler__hints_8h.html" target="_top" xlink:title="Common macros and compiler attributes/pragmas configuration. ">
<polygon fill="#ffffff" stroke="#000000" points="883,-112.5 883,-131.5 976,-131.5 976,-112.5 883,-112.5"/>
<text text-anchor="middle" x="929.5" y="-119.5" font-family="Helvetica,sans-Serif" font-size="10.00" fill="#000000">compiler_hints.h</text>
</a>
</g>
</g>
<!-- Node10&#45;&gt;Node13 -->
<g id="edge15" class="edge">
<title>Node10&#45;&gt;Node13</title>
<path fill="none" stroke="#191970" d="M997.2167,-168.2455C984.753,-159.7337 966.4549,-147.2375 952.0208,-137.3801"/>
<polygon fill="#191970" stroke="#191970" points="953.8515,-134.392 943.6196,-131.6427 949.9038,-140.1726 953.8515,-134.392"/>
</g>
<!-- Node15 -->
<g id="node16" class="node">
<title>Node15</title>
<g id="a_node16"><a xlink:href="container_8h.html" target="_top" xlink:title="Common macros and compiler attributes/pragmas configuration. ">
<polygon fill="#ffffff" stroke="#000000" points="1080,-56.5 1080,-75.5 1149,-75.5 1149,-56.5 1080,-56.5"/>
<text text-anchor="middle" x="1114.5" y="-63.5" font-family="Helvetica,sans-Serif" font-size="10.00" fill="#000000">container.h</text>
</a>
</g>
</g>
<!-- Node10&#45;&gt;Node15 -->
<g id="edge19" class="edge">
<title>Node10&#45;&gt;Node15</title>
<path fill="none" stroke="#191970" d="M1025.5533,-168.3937C1037.6976,-159.7052 1055.3213,-146.1395 1068.5,-132 1082.2723,-117.2236 1095.1648,-98.0783 1103.7761,-84.2165"/>
<polygon fill="#191970" stroke="#191970" points="1106.8192,-85.9481 1109.0119,-75.5826 1100.8338,-82.3183 1106.8192,-85.9481"/>
</g>
<!-- Node12&#45;&gt;Node4 -->
<g id="edge14" class="edge">
<title>Node12&#45;&gt;Node4</title>
<path fill="none" stroke="#191970" d="M838.8084,-56.3733C817.4289,-47.3032 785.1943,-33.6279 761.2638,-23.4755"/>
<polygon fill="#191970" stroke="#191970" points="762.4683,-20.1846 751.8955,-19.5011 759.7344,-26.6287 762.4683,-20.1846"/>
</g>
<!-- Node13&#45;&gt;Node4 -->
<g id="edge18" class="edge">
<title>Node13&#45;&gt;Node4</title>
<path fill="none" stroke="#191970" d="M929.7245,-112.4394C929.5164,-98.112 926.9269,-71.1412 911.5,-56 891.0112,-35.8906 812.5273,-21.6736 765.5747,-14.7627"/>
<polygon fill="#191970" stroke="#191970" points="765.8965,-11.2731 755.5014,-13.3206 764.9044,-18.2025 765.8965,-11.2731"/>
</g>
<!-- Node14 -->
<g id="node15" class="node">
<title>Node14</title>
<g id="a_node15"><a xlink:href="assert_8h.html" target="_top" xlink:title="POSIX.1&#45;2008 compliant version of the assert macro. ">
<polygon fill="#ffffff" stroke="#000000" points="996.5,-56.5 996.5,-75.5 1050.5,-75.5 1050.5,-56.5 996.5,-56.5"/>
<text text-anchor="middle" x="1023.5" y="-63.5" font-family="Helvetica,sans-Serif" font-size="10.00" fill="#000000">assert.h</text>
</a>
</g>
</g>
<!-- Node13&#45;&gt;Node14 -->
<g id="edge16" class="edge">
<title>Node13&#45;&gt;Node14</title>
<path fill="none" stroke="#191970" d="M945.8736,-112.2455C960.4308,-103.5731 981.931,-90.7645 998.6152,-80.825"/>
<polygon fill="#191970" stroke="#191970" points="1000.5144,-83.7676 1007.3141,-75.6427 996.9317,-77.7539 1000.5144,-83.7676"/>
</g>
<!-- Node14&#45;&gt;Node4 -->
<g id="edge17" class="edge">
<title>Node14&#45;&gt;Node4</title>
<path fill="none" stroke="#191970" d="M996.3682,-60.832C943.2641,-50.717 825.5829,-28.3015 765.8298,-16.92"/>
<polygon fill="#191970" stroke="#191970" points="766.1981,-13.4273 755.7198,-14.9942 764.8882,-20.3036 766.1981,-13.4273"/>
</g>
<!-- Node15&#45;&gt;Node3 -->
<g id="edge20" class="edge">
<title>Node15&#45;&gt;Node3</title>
<path fill="none" stroke="#191970" d="M1114.5,-56.2455C1114.5,-48.9382 1114.5,-38.6944 1114.5,-29.7046"/>
<polygon fill="#191970" stroke="#191970" points="1118.0001,-29.6426 1114.5,-19.6427 1111.0001,-29.6427 1118.0001,-29.6426"/>
</g>
<!-- Node15&#45;&gt;Node4 -->
<g id="edge21" class="edge">
<title>Node15&#45;&gt;Node4</title>
<path fill="none" stroke="#191970" d="M1079.9169,-59.4869C1073.1552,-58.2772 1066.1119,-57.0614 1059.5,-56 953.0883,-38.9171 826.7743,-22.3346 765.8908,-14.5725"/>
<polygon fill="#191970" stroke="#191970" points="766.0117,-11.0599 755.6503,-13.2716 765.1294,-18.004 766.0117,-11.0599"/>
</g>
<!-- Node18 -->
<g id="node19" class="node">
<title>Node18</title>
<g id="a_node19"><a xlink:href="clist_8h.html" target="_top" xlink:title="Circular linked list. ">
<polygon fill="#ffffff" stroke="#000000" points="1378,-168.5 1378,-187.5 1421,-187.5 1421,-168.5 1378,-168.5"/>
<text text-anchor="middle" x="1399.5" y="-175.5" font-family="Helvetica,sans-Serif" font-size="10.00" fill="#000000">clist.h</text>
</a>
</g>
</g>
<!-- Node17&#45;&gt;Node18 -->
<g id="edge24" class="edge">
<title>Node17&#45;&gt;Node18</title>
<path fill="none" stroke="#191970" d="M1241.246,-342.6255C1286.5882,-336.668 1371.5246,-322.7228 1390.5,-300 1414.5612,-271.187 1409.6875,-224.0042 1404.3641,-197.5526"/>
<polygon fill="#191970" stroke="#191970" points="1407.7364,-196.5945 1402.1382,-187.5994 1400.9051,-198.1223 1407.7364,-196.5945"/>
</g>
<!-- Node19 -->
<g id="node20" class="node">
<title>Node19</title>
<g id="a_node20"><a xlink:href="cib_8h.html" target="_top" xlink:title="Circular integer buffer interface. ">
<polygon fill="#ffffff" stroke="#000000" points="1033.5,-280.5 1033.5,-299.5 1071.5,-299.5 1071.5,-280.5 1033.5,-280.5"/>
<text text-anchor="middle" x="1052.5" y="-287.5" font-family="Helvetica,sans-Serif" font-size="10.00" fill="#000000">cib.h</text>
</a>
</g>
</g>
<!-- Node17&#45;&gt;Node19 -->
<g id="edge28" class="edge">
<title>Node17&#45;&gt;Node19</title>
<path fill="none" stroke="#191970" d="M1184.9213,-336.4584C1160.1325,-327.867 1122.4877,-314.7826 1081.426,-300.3107"/>
<polygon fill="#191970" stroke="#191970" points="1082.3676,-296.9315 1071.7727,-296.9051 1080.0386,-303.5328 1082.3676,-296.9315"/>
</g>
<!-- Node20 -->
<g id="node21" class="node">
<title>Node20</title>
<g id="a_node21"><a xlink:href="core_2include_2msg_8h.html" target="_top" xlink:title="Messaging API for inter process communication. ">
<polygon fill="#ffffff" stroke="#000000" points="1190,-280.5 1190,-299.5 1235,-299.5 1235,-280.5 1190,-280.5"/>
<text text-anchor="middle" x="1212.5" y="-287.5" font-family="Helvetica,sans-Serif" font-size="10.00" fill="#000000">msg.h</text>
</a>
</g>
</g>
<!-- Node17&#45;&gt;Node20 -->
<g id="edge30" class="edge">
<title>Node17&#45;&gt;Node20</title>
<path fill="none" stroke="#191970" d="M1212.5,-336.2455C1212.5,-328.9382 1212.5,-318.6944 1212.5,-309.7046"/>
<polygon fill="#191970" stroke="#191970" points="1216.0001,-309.6426 1212.5,-299.6427 1209.0001,-309.6427 1216.0001,-309.6426"/>
</g>
<!-- Node21 -->
<g id="node22" class="node">
<title>Node21</title>
<g id="a_node22"><a xlink:href="sched_8h.html" target="_top" xlink:title="Scheduler API definition. ">
<polygon fill="#ffffff" stroke="#000000" points="1237,-224.5 1237,-243.5 1290,-243.5 1290,-224.5 1237,-224.5"/>
<text text-anchor="middle" x="1263.5" y="-231.5" font-family="Helvetica,sans-Serif" font-size="10.00" fill="#000000">sched.h</text>
</a>
</g>
</g>
<!-- Node17&#45;&gt;Node21 -->
<g id="edge39" class="edge">
<title>Node17&#45;&gt;Node21</title>
<path fill="none" stroke="#191970" d="M1220.6268,-336.3546C1227.7911,-327.4271 1238.0638,-313.5288 1244.5,-300 1251.5433,-285.1949 1256.5018,-267.2537 1259.5832,-253.8162"/>
<polygon fill="#191970" stroke="#191970" points="1263.0659,-254.2666 1261.7345,-243.7557 1256.2207,-252.8027 1263.0659,-254.2666"/>
</g>
<!-- Node23 -->
<g id="node24" class="node">
<title>Node23</title>
<g id="a_node24"><a xlink:href="thread__config_8h.html" target="_top" xlink:title="Thread configuration defines. ">
<polygon fill="#ffffff" stroke="#000000" points="1291.5,-280.5 1291.5,-299.5 1381.5,-299.5 1381.5,-280.5 1291.5,-280.5"/>
<text text-anchor="middle" x="1336.5" y="-287.5" font-family="Helvetica,sans-Serif" font-size="10.00" fill="#000000">thread_config.h</text>
</a>
</g>
</g>
<!-- Node17&#45;&gt;Node23 -->
<g id="edge40" class="edge">
<title>Node17&#45;&gt;Node23</title>
<path fill="none" stroke="#191970" d="M1233.8164,-336.3733C1253.7216,-327.3838 1283.6436,-313.8706 1306.06,-303.7471"/>
<polygon fill="#191970" stroke="#191970" points="1307.7887,-306.8068 1315.4618,-299.5011 1304.9075,-300.4272 1307.7887,-306.8068"/>
</g>
<!-- Node25 -->
<g id="node26" class="node">
<title>Node25</title>
<polygon fill="#ffffff" stroke="#bfbfbf" points="1089.5,-280.5 1089.5,-299.5 1171.5,-299.5 1171.5,-280.5 1089.5,-280.5"/>
<text text-anchor="middle" x="1130.5" y="-287.5" font-family="Helvetica,sans-Serif" font-size="10.00" fill="#000000">thread_arch.h</text>
</g>
<!-- Node17&#45;&gt;Node25 -->
<g id="edge43" class="edge">
<title>Node17&#45;&gt;Node25</title>
<path fill="none" stroke="#191970" d="M1198.2167,-336.2455C1185.753,-327.7337 1167.4549,-315.2375 1153.0208,-305.3801"/>
<polygon fill="#191970" stroke="#191970" points="1154.8515,-302.392 1144.6196,-299.6427 1150.9038,-308.1726 1154.8515,-302.392"/>
</g>
<!-- Node18&#45;&gt;Node3 -->
<g id="edge26" class="edge">
<title>Node18&#45;&gt;Node3</title>
<path fill="none" stroke="#191970" d="M1399.7927,-168.3359C1399.9283,-145.1372 1396.8078,-86.0044 1363.5,-56 1333.0098,-28.5338 1214.5567,-16.6635 1152.6592,-12.2495"/>
<polygon fill="#191970" stroke="#191970" points="1152.7276,-8.7461 1142.5124,-11.5567 1152.2507,-15.7298 1152.7276,-8.7461"/>
</g>
<!-- Node18&#45;&gt;Node5 -->
<g id="edge25" class="edge">
<title>Node18&#45;&gt;Node5</title>
<path fill="none" stroke="#191970" d="M1377.793,-174.484C1364.2275,-172.3787 1346.3787,-169.7755 1330.5,-168 1128.4619,-145.4086 1076.7168,-152.9323 874.5,-132 862.3162,-130.7388 849.0921,-129.1334 837.0532,-127.5799"/>
<polygon fill="#191970" stroke="#191970" points="837.2053,-124.0699 826.8347,-126.238 836.2939,-131.0103 837.2053,-124.0699"/>
</g>
<!-- Node18&#45;&gt;Node16 -->
<g id="edge27" class="edge">
<title>Node18&#45;&gt;Node16</title>
<path fill="none" stroke="#191970" d="M1405.9449,-168.2455C1411.0382,-160.5367 1418.2908,-149.5598 1424.452,-140.2348"/>
<polygon fill="#191970" stroke="#191970" points="1427.5365,-141.9155 1430.1289,-131.6427 1421.6962,-138.0566 1427.5365,-141.9155"/>
</g>
<!-- Node19&#45;&gt;Node14 -->
<g id="edge29" class="edge">
<title>Node19&#45;&gt;Node14</title>
<path fill="none" stroke="#191970" d="M1056.396,-280.2756C1066.8268,-252.6887 1092.9864,-172.0464 1068.5,-112 1063.7844,-100.4363 1054.6073,-90.2008 1045.7638,-82.3383"/>
<polygon fill="#191970" stroke="#191970" points="1047.8109,-79.4894 1037.8737,-75.8147 1043.3504,-84.8842 1047.8109,-79.4894"/>
</g>
<!-- Node20&#45;&gt;Node4 -->
<g id="edge31" class="edge">
<title>Node20&#45;&gt;Node4</title>
<path fill="none" stroke="#191970" d="M1211.7836,-280.4181C1210.4011,-261.0718 1207.5,-215.9544 1207.5,-178 1207.5,-178 1207.5,-178 1207.5,-122 1207.5,-85.4662 1190.214,-74.1367 1158.5,-56 1124.7341,-36.6898 863.3351,-18.4319 765.9265,-12.2313"/>
<polygon fill="#191970" stroke="#191970" points="765.8842,-8.7218 755.6837,-11.5854 765.4436,-15.7079 765.8842,-8.7218"/>
</g>
<!-- Node20&#45;&gt;Node5 -->
<g id="edge32" class="edge">
<title>Node20&#45;&gt;Node5</title>
<path fill="none" stroke="#191970" d="M1189.658,-281.3645C1144.5984,-264.235 1041.195,-224.4561 955.5,-188 935.7334,-179.5909 931.2553,-176.4356 911.5,-168 884.506,-156.4735 853.6034,-144.1608 830.635,-135.1775"/>
<polygon fill="#191970" stroke="#191970" points="831.9,-131.9141 821.3116,-131.5433 829.3577,-138.4362 831.9,-131.9141"/>
</g>
<!-- Node20&#45;&gt;Node21 -->
<g id="edge33" class="edge">
<title>Node20&#45;&gt;Node21</title>
<path fill="none" stroke="#191970" d="M1221.3835,-280.2455C1228.6966,-272.2155 1239.2391,-260.6394 1247.9467,-251.0781"/>
<polygon fill="#191970" stroke="#191970" points="1250.5727,-253.3928 1254.7183,-243.6427 1245.3972,-248.6795 1250.5727,-253.3928"/>
</g>
<!-- Node21&#45;&gt;Node3 -->
<g id="edge34" class="edge">
<title>Node21&#45;&gt;Node3</title>
<path fill="none" stroke="#191970" d="M1287.9712,-224.3462C1303.2107,-216.9011 1321.5612,-204.9799 1330.5,-188 1334.6407,-180.1344 1333.8458,-176.2352 1330.5,-168 1304.355,-103.6484 1278.7298,-95.363 1221.5,-56 1200.3581,-41.4585 1173.8836,-30.0301 1152.5586,-22.2018"/>
<polygon fill="#191970" stroke="#191970" points="1153.4507,-18.8045 1142.8559,-18.7553 1151.1075,-25.4007 1153.4507,-18.8045"/>
</g>
<!-- Node21&#45;&gt;Node7 -->
<g id="edge35" class="edge">
<title>Node21&#45;&gt;Node7</title>
<path fill="none" stroke="#191970" d="M1243.5589,-224.3733C1225.0214,-215.4241 1197.1972,-201.9917 1176.2587,-191.8835"/>
<polygon fill="#191970" stroke="#191970" points="1177.7081,-188.6967 1167.1809,-187.5011 1174.6648,-195.0006 1177.7081,-188.6967"/>
</g>
<!-- Node21&#45;&gt;Node10 -->
<g id="edge36" class="edge">
<title>Node21&#45;&gt;Node10</title>
<path fill="none" stroke="#191970" d="M1236.5316,-228.007C1195.6174,-218.915 1117.069,-201.4598 1064.4633,-189.7696"/>
<polygon fill="#191970" stroke="#191970" points="1065.1535,-186.3377 1054.6324,-187.585 1063.635,-193.171 1065.1535,-186.3377"/>
</g>
<!-- Node21&#45;&gt;Node18 -->
<g id="edge38" class="edge">
<title>Node21&#45;&gt;Node18</title>
<path fill="none" stroke="#191970" d="M1286.8792,-224.3733C1309.4067,-215.0972 1343.632,-201.0045 1368.4398,-190.7895"/>
<polygon fill="#191970" stroke="#191970" points="1369.8576,-193.9909 1377.7718,-186.9469 1367.1923,-187.5181 1369.8576,-193.9909"/>
</g>
<!-- Node22 -->
<g id="node23" class="node">
<title>Node22</title>
<g id="a_node23"><a xlink:href="native__sched_8h.html" target="_top" xlink:title="Add definitions required on the native board. ">
<polygon fill="#ffffff" stroke="#000000" points="1235.5,-168.5 1235.5,-187.5 1321.5,-187.5 1321.5,-168.5 1235.5,-168.5"/>
<text text-anchor="middle" x="1278.5" y="-175.5" font-family="Helvetica,sans-Serif" font-size="10.00" fill="#000000">native_sched.h</text>
</a>
</g>
</g>
<!-- Node21&#45;&gt;Node22 -->
<g id="edge37" class="edge">
<title>Node21&#45;&gt;Node22</title>
<path fill="none" stroke="#191970" d="M1266.1128,-224.2455C1268.0916,-216.8579 1270.8744,-206.4689 1273.3012,-197.4087"/>
<polygon fill="#191970" stroke="#191970" points="1276.7105,-198.2078 1275.9171,-187.6427 1269.9489,-196.3966 1276.7105,-198.2078"/>
</g>
<!-- Node23&#45;&gt;Node21 -->
<g id="edge42" class="edge">
<title>Node23&#45;&gt;Node21</title>
<path fill="none" stroke="#191970" d="M1323.7844,-280.2455C1312.898,-271.8943 1297.0117,-259.7076 1284.28,-249.9408"/>
<polygon fill="#191970" stroke="#191970" points="1286.1346,-246.9523 1276.0699,-243.6427 1281.8739,-252.5063 1286.1346,-246.9523"/>
</g>
<!-- Node24 -->
<g id="node25" class="node">
<title>Node24</title>
<polygon fill="#ffffff" stroke="#bfbfbf" points="1308,-224.5 1308,-243.5 1375,-243.5 1375,-224.5 1308,-224.5"/>
<text text-anchor="middle" x="1341.5" y="-231.5" font-family="Helvetica,sans-Serif" font-size="10.00" fill="#000000">cpu_conf.h</text>
</g>
<!-- Node23&#45;&gt;Node24 -->
<g id="edge41" class="edge">
<title>Node23&#45;&gt;Node24</title>
<path fill="none" stroke="#191970" d="M1337.3709,-280.2455C1338.0234,-272.9382 1338.938,-262.6944 1339.7407,-253.7046"/>
<polygon fill="#191970" stroke="#191970" points="1343.2358,-253.9143 1340.639,-243.6427 1336.2635,-253.2918 1343.2358,-253.9143"/>
</g>
<!-- Node26&#45;&gt;Node3 -->
<g id="edge49" class="edge">
<title>Node26&#45;&gt;Node3</title>
<path fill="none" stroke="#191970" d="M315.3542,-224.3321C323.4565,-209.3433 341.2682,-180.8846 365.5,-168 505.1328,-93.7541 568.0911,-177.663 719.5,-132 737.7724,-126.4893 739.6185,-118.6707 757.5,-112 823.3564,-87.4322 843.7943,-94.8834 911.5,-76 970.2404,-59.617 1037.3409,-37.0258 1077.7835,-22.9766"/>
<polygon fill="#191970" stroke="#191970" points="1079.1805,-26.1962 1087.4698,-19.5978 1076.875,-19.5868 1079.1805,-26.1962"/>
</g>
<!-- Node26&#45;&gt;Node4 -->
<g id="edge50" class="edge">
<title>Node26&#45;&gt;Node4</title>
<path fill="none" stroke="#191970" d="M311.6573,-224.2701C313.804,-210.2114 319.6271,-184.1381 334.5,-168 433.5763,-60.4951 615.5883,-24.7772 693.0517,-14.1056"/>
<polygon fill="#191970" stroke="#191970" points="693.8109,-17.5359 703.2688,-12.7611 692.8976,-10.5958 693.8109,-17.5359"/>
</g>
<!-- Node26&#45;&gt;Node5 -->
<g id="edge48" class="edge">
<title>Node26&#45;&gt;Node5</title>
<path fill="none" stroke="#191970" d="M320.5957,-224.3248C336.9354,-209.326 370.8556,-180.8539 405.5,-168 550.8669,-114.0653 599.516,-157.2266 752.5,-132 753.7608,-131.7921 755.0397,-131.5701 756.329,-131.3366"/>
<polygon fill="#191970" stroke="#191970" points="757.1661,-134.7389 766.2975,-129.366 755.8086,-127.8718 757.1661,-134.7389"/>
</g>
<!-- Node27 -->
<g id="node28" class="node">
<title>Node27</title>
<g id="a_node28"><a xlink:href="endian_8h.html" target="_top" xlink:title="libc header for endian conversion ">
<polygon fill="#ffffff" stroke="#000000" points="225,-56.5 225,-75.5 282,-75.5 282,-56.5 225,-56.5"/>
<text text-anchor="middle" x="253.5" y="-63.5" font-family="Helvetica,sans-Serif" font-size="10.00" fill="#000000">endian.h</text>
</a>
</g>
</g>
<!-- Node26&#45;&gt;Node27 -->
<g id="edge45" class="edge">
<title>Node26&#45;&gt;Node27</title>
<path fill="none" stroke="#191970" d="M307.2721,-224.4862C298.2227,-197.8144 272.4701,-121.9117 260.1822,-85.695"/>
<polygon fill="#191970" stroke="#191970" points="263.3619,-84.1731 256.8345,-75.8279 256.7331,-86.4222 263.3619,-84.1731"/>
</g>
<!-- Node28 -->
<g id="node29" class="node">
<title>Node28</title>
<g id="a_node29"><a xlink:href="errno_8h.html" target="_top" xlink:title="errno.h">
<polygon fill="#ffffff" stroke="#000000" points="415,-168.5 415,-187.5 468,-187.5 468,-168.5 415,-168.5"/>
<text text-anchor="middle" x="441.5" y="-175.5" font-family="Helvetica,sans-Serif" font-size="10.00" fill="#000000">errno.h</text>
</a>
</g>
</g>
<!-- Node26&#45;&gt;Node28 -->
<g id="edge47" class="edge">
<title>Node26&#45;&gt;Node28</title>
<path fill="none" stroke="#191970" d="M333.0197,-224.3733C354.2372,-215.3032 386.2276,-201.6279 409.9769,-191.4755"/>
<polygon fill="#191970" stroke="#191970" points="411.4548,-194.6502 419.2742,-187.5011 408.7033,-188.2136 411.4548,-194.6502"/>
</g>
<!-- Node29 -->
<g id="node30" class="node">
<title>Node29</title>
<polygon fill="#ffffff" stroke="#bfbfbf" points="0,-112.5 0,-131.5 77,-131.5 77,-112.5 0,-112.5"/>
<text text-anchor="middle" x="38.5" y="-119.5" font-family="Helvetica,sans-Serif" font-size="10.00" fill="#000000">periph_cpu.h</text>
</g>
<!-- Node26&#45;&gt;Node29 -->
<g id="edge51" class="edge">
<title>Node26&#45;&gt;Node29</title>
<path fill="none" stroke="#191970" d="M273.9337,-230.3556C233.7925,-225.2277 168.301,-213.4851 117.5,-188 92.7422,-175.5799 69.0066,-154.008 54.1296,-138.9177"/>
<polygon fill="#191970" stroke="#191970" points="56.6498,-136.4889 47.199,-131.7 51.6006,-141.3372 56.6498,-136.4889"/>
</g>
<!-- Node30 -->
<g id="node31" class="node">
<title>Node30</title>
<polygon fill="#ffffff" stroke="#bfbfbf" points="95,-112.5 95,-131.5 176,-131.5 176,-112.5 95,-112.5"/>
<text text-anchor="middle" x="135.5" y="-119.5" font-family="Helvetica,sans-Serif" font-size="10.00" fill="#000000">periph_conf.h</text>
</g>
<!-- Node26&#45;&gt;Node30 -->
<g id="edge52" class="edge">
<title>Node26&#45;&gt;Node30</title>
<path fill="none" stroke="#191970" d="M297.5227,-224.4567C279.449,-211.2881 245.5314,-187.0174 215.5,-168 198.1259,-156.9978 178.0622,-145.4641 162.374,-136.6978"/>
<polygon fill="#191970" stroke="#191970" points="163.6768,-133.418 153.2345,-131.6267 160.2805,-139.5389 163.6768,-133.418"/>
</g>
<!-- Node26&#45;&gt;Node31 -->
<g id="edge53" class="edge">
<title>Node26&#45;&gt;Node31</title>
<path fill="none" stroke="#191970" d="M285.7455,-224.3733C262.2151,-215.2226 226.6313,-201.3844 200.4574,-191.2057"/>
<polygon fill="#191970" stroke="#191970" points="201.5201,-187.8636 190.9315,-187.5011 198.9829,-194.3877 201.5201,-187.8636"/>
</g>
<!-- Node27&#45;&gt;Node4 -->
<g id="edge46" class="edge">
<title>Node27&#45;&gt;Node4</title>
<path fill="none" stroke="#191970" d="M282.0824,-58.8378C286.876,-57.7849 291.8143,-56.7907 296.5,-56 442.5049,-31.3628 618.5641,-17.4979 693.2187,-12.3437"/>
<polygon fill="#191970" stroke="#191970" points="693.7422,-15.8163 703.4818,-11.6462 693.2675,-8.8324 693.7422,-15.8163"/>
</g>
<!-- Node31&#45;&gt;Node5 -->
<g id="edge55" class="edge">
<title>Node31&#45;&gt;Node5</title>
<path fill="none" stroke="#191970" d="M206.8044,-175.2878C298.1531,-169.0007 527.9058,-152.3988 719.5,-132 731.4227,-130.7306 744.3557,-129.1361 756.1576,-127.5957"/>
<polygon fill="#191970" stroke="#191970" points="756.7313,-131.0503 766.184,-126.2654 755.8105,-124.1112 756.7313,-131.0503"/>
</g>
<!-- Node31&#45;&gt;Node8 -->
<g id="edge54" class="edge">
<title>Node31&#45;&gt;Node8</title>
<path fill="none" stroke="#191970" d="M175.7319,-168.2455C183.3317,-160.2155 194.2877,-148.6394 203.3368,-139.0781"/>
<polygon fill="#191970" stroke="#191970" points="206.0421,-141.3115 210.3739,-131.6427 200.958,-136.4998 206.0421,-141.3115"/>
</g>
<!-- Node31&#45;&gt;Node29 -->
<g id="edge56" class="edge">
<title>Node31&#45;&gt;Node29</title>
<path fill="none" stroke="#191970" d="M144.496,-168.3733C123.8565,-159.3435 92.7842,-145.7494 69.6111,-135.6111"/>
<polygon fill="#191970" stroke="#191970" points="70.7813,-132.3028 60.2169,-131.5011 67.9755,-138.7159 70.7813,-132.3028"/>
</g>
<!-- Node31&#45;&gt;Node30 -->
<g id="edge57" class="edge">
<title>Node31&#45;&gt;Node30</title>
<path fill="none" stroke="#191970" d="M161.1002,-168.2455C156.8773,-160.617 150.8827,-149.7881 145.7559,-140.5267"/>
<polygon fill="#191970" stroke="#191970" points="148.7432,-138.6965 140.8379,-131.6427 142.619,-142.0867 148.7432,-138.6965"/>
</g>
<!-- Node32&#45;&gt;Node4 -->
<g id="edge60" class="edge">
<title>Node32&#45;&gt;Node4</title>
<path fill="none" stroke="#191970" d="M562.8729,-224.1732C557.3908,-211.2902 549.4776,-187.9802 553.5,-168 564.154,-115.0787 561.2969,-93.1119 600.5,-56 625.9516,-31.9061 664.8601,-20.3078 693.2916,-14.8032"/>
<polygon fill="#191970" stroke="#191970" points="694.012,-18.2302 703.2479,-13.0391 692.7906,-11.3376 694.012,-18.2302"/>
</g>
<!-- Node32&#45;&gt;Node10 -->
<g id="edge72" class="edge">
<title>Node32&#45;&gt;Node10</title>
<path fill="none" stroke="#191970" d="M606.1254,-229.1283C684.3165,-219.2664 861.7064,-196.8929 953.7186,-185.2877"/>
<polygon fill="#191970" stroke="#191970" points="954.2134,-188.7532 963.6968,-184.0292 953.3374,-181.8082 954.2134,-188.7532"/>
</g>
<!-- Node32&#45;&gt;Node28 -->
<g id="edge61" class="edge">
<title>Node32&#45;&gt;Node28</title>
<path fill="none" stroke="#191970" d="M545.8398,-224.3733C525.5228,-215.3435 494.936,-201.7494 472.125,-191.6111"/>
<polygon fill="#191970" stroke="#191970" points="473.4372,-188.3642 462.8775,-187.5011 470.5941,-194.7609 473.4372,-188.3642"/>
</g>
<!-- Node33 -->
<g id="node34" class="node">
<title>Node33</title>
<g id="a_node34"><a xlink:href="iolist_8h.html" target="_top" xlink:title="iolist scatter / gather IO ">
<polygon fill="#ffffff" stroke="#000000" points="658,-168.5 658,-187.5 705,-187.5 705,-168.5 658,-168.5"/>
<text text-anchor="middle" x="681.5" y="-175.5" font-family="Helvetica,sans-Serif" font-size="10.00" fill="#000000">iolist.h</text>
</a>
</g>
</g>
<!-- Node32&#45;&gt;Node33 -->
<g id="edge62" class="edge">
<title>Node32&#45;&gt;Node33</title>
<path fill="none" stroke="#191970" d="M587.0973,-224.3733C605.2331,-215.4644 632.4135,-202.1127 652.9587,-192.0203"/>
<polygon fill="#191970" stroke="#191970" points="654.7261,-195.0517 662.1584,-187.5011 651.6397,-188.7688 654.7261,-195.0517"/>
</g>
<!-- Node36 -->
<g id="node37" class="node">
<title>Node36</title>
<g id="a_node37"><a xlink:href="netopt_8h.html" target="_top" xlink:title="Definition of global configuration options. ">
<polygon fill="#ffffff" stroke="#000000" points="563,-168.5 563,-187.5 640,-187.5 640,-168.5 563,-168.5"/>
<text text-anchor="middle" x="601.5" y="-175.5" font-family="Helvetica,sans-Serif" font-size="10.00" fill="#000000">net/netopt.h</text>
</a>
</g>
</g>
<!-- Node32&#45;&gt;Node36 -->
<g id="edge69" class="edge">
<title>Node32&#45;&gt;Node36</title>
<path fill="none" stroke="#191970" d="M573.4223,-224.2455C578.1027,-216.5367 584.7673,-205.5598 590.4289,-196.2348"/>
<polygon fill="#191970" stroke="#191970" points="593.4475,-198.007 595.6455,-187.6427 587.4639,-194.3741 593.4475,-198.007"/>
</g>
<!-- Node34 -->
<g id="node35" class="node">
<title>Node34</title>
<g id="a_node35"><a xlink:href="unistd_8h_source.html" target="_top" xlink:title="unistd.h">
<polygon fill="#ffffff" stroke="#000000" points="656.5,-112.5 656.5,-131.5 710.5,-131.5 710.5,-112.5 656.5,-112.5"/>
<text text-anchor="middle" x="683.5" y="-119.5" font-family="Helvetica,sans-Serif" font-size="10.00" fill="#000000">unistd.h</text>
</a>
</g>
</g>
<!-- Node33&#45;&gt;Node34 -->
<g id="edge63" class="edge">
<title>Node33&#45;&gt;Node34</title>
<path fill="none" stroke="#191970" d="M681.8484,-168.2455C682.1093,-160.9382 682.4752,-150.6944 682.7963,-141.7046"/>
<polygon fill="#191970" stroke="#191970" points="686.2964,-141.7613 683.1556,-131.6427 679.3008,-141.5113 686.2964,-141.7613"/>
</g>
<!-- Node34&#45;&gt;Node3 -->
<g id="edge64" class="edge">
<title>Node34&#45;&gt;Node3</title>
<path fill="none" stroke="#191970" d="M701.9871,-112.4436C737.2655,-94.2106 810.7772,-56.2342 811.5,-56 903.4646,-26.1994 1017.5158,-15.5286 1075.9781,-11.8447"/>
<polygon fill="#191970" stroke="#191970" points="1076.4549,-15.3226 1086.2295,-11.2351 1076.0393,-8.3349 1076.4549,-15.3226"/>
</g>
<!-- Node34&#45;&gt;Node4 -->
<g id="edge65" class="edge">
<title>Node34&#45;&gt;Node4</title>
<path fill="none" stroke="#191970" d="M681.6798,-112.1442C679.6821,-98.8258 677.7038,-74.6088 685.5,-56 690.3388,-44.4502 699.5145,-34.1126 708.2397,-26.177"/>
<polygon fill="#191970" stroke="#191970" points="710.6305,-28.7386 715.9888,-19.5986 706.1002,-23.4022 710.6305,-28.7386"/>
</g>
<!-- Node35 -->
<g id="node36" class="node">
<title>Node35</title>
<g id="a_node36"><a xlink:href="cpu_2avr8__common_2avr__libc__extra_2include_2sys_2types_8h_source.html" target="_top" xlink:title="sys/types.h">
<polygon fill="#ffffff" stroke="#000000" points="695,-56.5 695,-75.5 764,-75.5 764,-56.5 695,-56.5"/>
<text text-anchor="middle" x="729.5" y="-63.5" font-family="Helvetica,sans-Serif" font-size="10.00" fill="#000000">sys/types.h</text>
</a>
</g>
</g>
<!-- Node34&#45;&gt;Node35 -->
<g id="edge66" class="edge">
<title>Node34&#45;&gt;Node35</title>
<path fill="none" stroke="#191970" d="M691.5126,-112.2455C697.9768,-104.3761 707.2385,-93.101 714.9983,-83.6542"/>
<polygon fill="#191970" stroke="#191970" points="717.9364,-85.5916 721.5792,-75.6427 712.5273,-81.1484 717.9364,-85.5916"/>
</g>
<!-- Node35&#45;&gt;Node3 -->
<g id="edge68" class="edge">
<title>Node35&#45;&gt;Node3</title>
<path fill="none" stroke="#191970" d="M764.246,-58.6174C769.0258,-57.6871 773.8781,-56.7871 778.5,-56 885.7661,-37.7319 1013.2667,-21.8666 1075.8848,-14.4554"/>
<polygon fill="#191970" stroke="#191970" points="1076.5621,-17.8999 1086.0845,-13.2552 1075.744,-10.9479 1076.5621,-17.8999"/>
</g>
<!-- Node35&#45;&gt;Node4 -->
<g id="edge67" class="edge">
<title>Node35&#45;&gt;Node4</title>
<path fill="none" stroke="#191970" d="M729.5,-56.2455C729.5,-48.9382 729.5,-38.6944 729.5,-29.7046"/>
<polygon fill="#191970" stroke="#191970" points="733.0001,-29.6426 729.5,-19.6427 726.0001,-29.6427 733.0001,-29.6426"/>
</g>
<!-- Node36&#45;&gt;Node4 -->
<g id="edge70" class="edge">
<title>Node36&#45;&gt;Node4</title>
<path fill="none" stroke="#191970" d="M599.4628,-168.2519C595.3785,-145.8744 588.6502,-90.1295 614.5,-56 633.1824,-31.3337 667.1973,-19.8632 693.405,-14.5473"/>
<polygon fill="#191970" stroke="#191970" points="694.1599,-17.9676 703.3748,-12.7393 692.9107,-11.08 694.1599,-17.9676"/>
</g>
<!-- Node36&#45;&gt;Node5 -->
<g id="edge71" class="edge">
<title>Node36&#45;&gt;Node5</title>
<path fill="none" stroke="#191970" d="M635.0217,-168.3733C668.7642,-158.6831 720.8101,-143.7366 756.6456,-133.4454"/>
<polygon fill="#191970" stroke="#191970" points="757.649,-136.7987 766.2944,-130.6744 755.7168,-130.0707 757.649,-136.7987"/>
</g>
</g>
</svg>
