<?xml version="1.0" encoding="UTF-8" standalone="no"?>
<!DOCTYPE svg PUBLIC "-//W3C//DTD SVG 1.1//EN"
 "http://www.w3.org/Graphics/SVG/1.1/DTD/svg11.dtd">
<!-- Generated by graphviz version 2.40.1 (0)
 -->
<!-- Title: drivers/include/epd_bw_spi.h Pages: 1 -->
<svg width="477pt" height="207pt"
 viewBox="0.00 0.00 476.50 207.00" xmlns="http://www.w3.org/2000/svg" xmlns:xlink="http://www.w3.org/1999/xlink">
<g id="graph0" class="graph" transform="scale(1 1) rotate(0) translate(4 203)">
<title>drivers/include/epd_bw_spi.h</title>
<polygon fill="#ffffff" stroke="transparent" points="-4,4 -4,-203 472.5,-203 472.5,4 -4,4"/>
<!-- Node0 -->
<g id="node1" class="node">
<title>Node0</title>
<polygon fill="#bfbfbf" stroke="#000000" points="198,-168.5 198,-198.5 306,-198.5 306,-168.5 198,-168.5"/>
<text text-anchor="start" x="206" y="-186.5" font-family="Helvetica,sans-Serif" font-size="10.00" fill="#000000">drivers/include/epd</text>
<text text-anchor="middle" x="252" y="-175.5" font-family="Helvetica,sans-Serif" font-size="10.00" fill="#000000">_bw_spi.h</text>
</g>
<!-- Node1 -->
<g id="node2" class="node">
<title>Node1</title>
<g id="a_node2"><a xlink:href="spi_8h.html" target="_top" xlink:title="Low&#45;level SPI peripheral driver interface definition. ">
<polygon fill="#ffffff" stroke="#000000" points="183.5,-112.5 183.5,-131.5 256.5,-131.5 256.5,-112.5 183.5,-112.5"/>
<text text-anchor="middle" x="220" y="-119.5" font-family="Helvetica,sans-Serif" font-size="10.00" fill="#000000">periph/spi.h</text>
</a>
</g>
</g>
<!-- Node0&#45;&gt;Node1 -->
<g id="edge1" class="edge">
<title>Node0&#45;&gt;Node1</title>
<path fill="none" stroke="#191970" d="M244.0899,-168.2977C239.7868,-160.0277 234.4242,-149.7215 229.8518,-140.9339"/>
<polygon fill="#191970" stroke="#191970" points="232.8443,-139.1024 225.1236,-131.8469 226.6346,-142.3335 232.8443,-139.1024"/>
</g>
<!-- Node9 -->
<g id="node10" class="node">
<title>Node9</title>
<g id="a_node10"><a xlink:href="drivers_2include_2periph_2gpio_8h.html" target="_top" xlink:title="Low&#45;level GPIO peripheral driver interface definitions. ">
<polygon fill="#ffffff" stroke="#000000" points="320,-56.5 320,-75.5 400,-75.5 400,-56.5 320,-56.5"/>
<text text-anchor="middle" x="360" y="-63.5" font-family="Helvetica,sans-Serif" font-size="10.00" fill="#000000">periph/gpio.h</text>
</a>
</g>
</g>
<!-- Node0&#45;&gt;Node9 -->
<g id="edge15" class="edge">
<title>Node0&#45;&gt;Node9</title>
<path fill="none" stroke="#191970" d="M266.1191,-168.1389C286.2848,-146.1994 323.2154,-106.0203 344.2454,-83.1404"/>
<polygon fill="#191970" stroke="#191970" points="347.0231,-85.2905 351.2134,-75.5595 341.8694,-80.5534 347.0231,-85.2905"/>
</g>
<!-- Node2 -->
<g id="node3" class="node">
<title>Node2</title>
<g id="a_node3"><a xlink:href="endian_8h.html" target="_top" xlink:title="libc header for endian conversion ">
<polygon fill="#ffffff" stroke="#000000" points="22.5,-56.5 22.5,-75.5 79.5,-75.5 79.5,-56.5 22.5,-56.5"/>
<text text-anchor="middle" x="51" y="-63.5" font-family="Helvetica,sans-Serif" font-size="10.00" fill="#000000">endian.h</text>
</a>
</g>
</g>
<!-- Node1&#45;&gt;Node2 -->
<g id="edge2" class="edge">
<title>Node1&#45;&gt;Node2</title>
<path fill="none" stroke="#191970" d="M190.9479,-112.3733C162.8457,-103.0613 120.0946,-88.8953 89.2393,-78.671"/>
<polygon fill="#191970" stroke="#191970" points="90.2664,-75.3243 79.673,-75.5011 88.0645,-81.969 90.2664,-75.3243"/>
</g>
<!-- Node3 -->
<g id="node4" class="node">
<title>Node3</title>
<polygon fill="#ffffff" stroke="#bfbfbf" points="0,-.5 0,-19.5 52,-19.5 52,-.5 0,-.5"/>
<text text-anchor="middle" x="26" y="-7.5" font-family="Helvetica,sans-Serif" font-size="10.00" fill="#000000">stdint.h</text>
</g>
<!-- Node1&#45;&gt;Node3 -->
<g id="edge7" class="edge">
<title>Node1&#45;&gt;Node3</title>
<path fill="none" stroke="#191970" d="M183.3651,-119.2418C129.7433,-114.3575 33.9624,-102.1321 13,-76 2.3127,-62.677 8.0793,-43.0361 14.988,-28.6442"/>
<polygon fill="#191970" stroke="#191970" points="18.1599,-30.1339 19.7652,-19.6613 11.9795,-26.847 18.1599,-30.1339"/>
</g>
<!-- Node4 -->
<g id="node5" class="node">
<title>Node4</title>
<g id="a_node5"><a xlink:href="errno_8h.html" target="_top" xlink:title="errno.h">
<polygon fill="#ffffff" stroke="#000000" points="248.5,-56.5 248.5,-75.5 301.5,-75.5 301.5,-56.5 248.5,-56.5"/>
<text text-anchor="middle" x="275" y="-63.5" font-family="Helvetica,sans-Serif" font-size="10.00" fill="#000000">errno.h</text>
</a>
</g>
</g>
<!-- Node1&#45;&gt;Node4 -->
<g id="edge4" class="edge">
<title>Node1&#45;&gt;Node4</title>
<path fill="none" stroke="#191970" d="M229.5803,-112.2455C237.5458,-104.1352 249.0641,-92.4075 258.5079,-82.7919"/>
<polygon fill="#191970" stroke="#191970" points="261.0195,-85.2297 265.5295,-75.6427 256.0253,-80.3247 261.0195,-85.2297"/>
</g>
<!-- Node5 -->
<g id="node6" class="node">
<title>Node5</title>
<polygon fill="#ffffff" stroke="#bfbfbf" points="90,-.5 90,-19.5 150,-19.5 150,-.5 90,-.5"/>
<text text-anchor="middle" x="120" y="-7.5" font-family="Helvetica,sans-Serif" font-size="10.00" fill="#000000">stdbool.h</text>
</g>
<!-- Node1&#45;&gt;Node5 -->
<g id="edge5" class="edge">
<title>Node1&#45;&gt;Node5</title>
<path fill="none" stroke="#191970" d="M183.3859,-113.1879C163.4312,-106.4172 140.1812,-94.9172 127,-76 117.7479,-62.7216 116.5409,-44.1467 117.3363,-30.0841"/>
<polygon fill="#191970" stroke="#191970" points="120.8365,-30.2446 118.2879,-19.9609 113.8673,-29.5894 120.8365,-30.2446"/>
</g>
<!-- Node6 -->
<g id="node7" class="node">
<title>Node6</title>
<polygon fill="#ffffff" stroke="#bfbfbf" points="136,-56.5 136,-75.5 192,-75.5 192,-56.5 136,-56.5"/>
<text text-anchor="middle" x="164" y="-63.5" font-family="Helvetica,sans-Serif" font-size="10.00" fill="#000000">stddef.h</text>
</g>
<!-- Node1&#45;&gt;Node6 -->
<g id="edge6" class="edge">
<title>Node1&#45;&gt;Node6</title>
<path fill="none" stroke="#191970" d="M210.2455,-112.2455C202.1352,-104.1352 190.4075,-92.4075 180.7919,-82.7919"/>
<polygon fill="#191970" stroke="#191970" points="183.1887,-80.2389 173.6427,-75.6427 178.2389,-85.1887 183.1887,-80.2389"/>
</g>
<!-- Node7 -->
<g id="node8" class="node">
<title>Node7</title>
<polygon fill="#ffffff" stroke="#bfbfbf" points="202.5,-.5 202.5,-19.5 279.5,-19.5 279.5,-.5 202.5,-.5"/>
<text text-anchor="middle" x="241" y="-7.5" font-family="Helvetica,sans-Serif" font-size="10.00" fill="#000000">periph_cpu.h</text>
</g>
<!-- Node1&#45;&gt;Node7 -->
<g id="edge8" class="edge">
<title>Node1&#45;&gt;Node7</title>
<path fill="none" stroke="#191970" d="M221.7904,-112.4509C225.231,-94.1013 232.8267,-53.5908 237.3683,-29.3693"/>
<polygon fill="#191970" stroke="#191970" points="240.8112,-29.9986 239.2141,-19.5249 233.9311,-28.7086 240.8112,-29.9986"/>
</g>
<!-- Node8 -->
<g id="node9" class="node">
<title>Node8</title>
<polygon fill="#ffffff" stroke="#bfbfbf" points="387.5,-.5 387.5,-19.5 468.5,-19.5 468.5,-.5 387.5,-.5"/>
<text text-anchor="middle" x="428" y="-7.5" font-family="Helvetica,sans-Serif" font-size="10.00" fill="#000000">periph_conf.h</text>
</g>
<!-- Node1&#45;&gt;Node8 -->
<g id="edge9" class="edge">
<title>Node1&#45;&gt;Node8</title>
<path fill="none" stroke="#191970" d="M256.7254,-117.4727C305.3387,-110.7593 387.4324,-96.6895 409,-76 421.4795,-64.0286 425.9171,-44.4385 427.4195,-29.7044"/>
<polygon fill="#191970" stroke="#191970" points="430.9208,-29.7973 428.0807,-19.5903 423.9357,-29.3406 430.9208,-29.7973"/>
</g>
<!-- Node1&#45;&gt;Node9 -->
<g id="edge10" class="edge">
<title>Node1&#45;&gt;Node9</title>
<path fill="none" stroke="#191970" d="M244.0669,-112.3733C266.8428,-103.2629 301.2344,-89.5062 326.649,-79.3404"/>
<polygon fill="#191970" stroke="#191970" points="328.2623,-82.4648 336.2472,-75.5011 325.6625,-75.9654 328.2623,-82.4648"/>
</g>
<!-- Node2&#45;&gt;Node3 -->
<g id="edge3" class="edge">
<title>Node2&#45;&gt;Node3</title>
<path fill="none" stroke="#191970" d="M46.6453,-56.2455C43.2756,-48.6973 38.507,-38.0158 34.4017,-28.8197"/>
<polygon fill="#191970" stroke="#191970" points="37.5773,-27.3473 30.3048,-19.6427 31.1853,-30.2009 37.5773,-27.3473"/>
</g>
<!-- Node9&#45;&gt;Node5 -->
<g id="edge12" class="edge">
<title>Node9&#45;&gt;Node5</title>
<path fill="none" stroke="#191970" d="M319.8294,-56.6269C275.3858,-46.2567 204.2052,-29.6479 159.879,-19.3051"/>
<polygon fill="#191970" stroke="#191970" points="160.5685,-15.872 150.0348,-17.0081 158.9779,-22.6889 160.5685,-15.872"/>
</g>
<!-- Node9&#45;&gt;Node7 -->
<g id="edge13" class="edge">
<title>Node9&#45;&gt;Node7</title>
<path fill="none" stroke="#191970" d="M339.5432,-56.3733C320.5262,-47.4241 291.9825,-33.9917 270.5024,-23.8835"/>
<polygon fill="#191970" stroke="#191970" points="271.7284,-20.5923 261.1899,-19.5011 268.7478,-26.926 271.7284,-20.5923"/>
</g>
<!-- Node9&#45;&gt;Node8 -->
<g id="edge14" class="edge">
<title>Node9&#45;&gt;Node8</title>
<path fill="none" stroke="#191970" d="M371.8447,-56.2455C381.888,-47.9746 396.4995,-35.9416 408.3004,-26.2232"/>
<polygon fill="#191970" stroke="#191970" points="410.7967,-28.7015 416.291,-19.6427 406.3467,-23.298 410.7967,-28.7015"/>
</g>
<!-- Node10 -->
<g id="node11" class="node">
<title>Node10</title>
<polygon fill="#ffffff" stroke="#bfbfbf" points="319,-.5 319,-19.5 369,-19.5 369,-.5 319,-.5"/>
<text text-anchor="middle" x="344" y="-7.5" font-family="Helvetica,sans-Serif" font-size="10.00" fill="#000000">limits.h</text>
</g>
<!-- Node9&#45;&gt;Node10 -->
<g id="edge11" class="edge">
<title>Node9&#45;&gt;Node10</title>
<path fill="none" stroke="#191970" d="M357.213,-56.2455C355.1023,-48.8579 352.134,-38.4689 349.5453,-29.4087"/>
<polygon fill="#191970" stroke="#191970" points="352.8677,-28.2964 346.755,-19.6427 346.137,-30.2195 352.8677,-28.2964"/>
</g>
</g>
</svg>
