<?xml version="1.0" encoding="UTF-8" standalone="no"?>
<!DOCTYPE svg PUBLIC "-//W3C//DTD SVG 1.1//EN"
 "http://www.w3.org/Graphics/SVG/1.1/DTD/svg11.dtd">
<!-- Generated by graphviz version 2.40.1 (0)
 -->
<!-- Title: boards/esp32&#45;mh&#45;et&#45;live&#45;minikit/include/gpio_params.h Pages: 1 -->
<svg width="621pt" height="218pt"
 viewBox="0.00 0.00 621.00 218.00" xmlns="http://www.w3.org/2000/svg" xmlns:xlink="http://www.w3.org/1999/xlink">
<g id="graph0" class="graph" transform="scale(1 1) rotate(0) translate(4 214)">
<title>boards/esp32&#45;mh&#45;et&#45;live&#45;minikit/include/gpio_params.h</title>
<polygon fill="#ffffff" stroke="transparent" points="-4,4 -4,-214 617,-214 617,4 -4,4"/>
<!-- Node0 -->
<g id="node1" class="node">
<title>Node0</title>
<polygon fill="#bfbfbf" stroke="#000000" points="259,-168.5 259,-209.5 371,-209.5 371,-168.5 259,-168.5"/>
<text text-anchor="start" x="267" y="-197.5" font-family="Helvetica,sans-Serif" font-size="10.00" fill="#000000">boards/esp32&#45;mh&#45;et</text>
<text text-anchor="start" x="267" y="-186.5" font-family="Helvetica,sans-Serif" font-size="10.00" fill="#000000">&#45;live&#45;minikit/include</text>
<text text-anchor="middle" x="315" y="-175.5" font-family="Helvetica,sans-Serif" font-size="10.00" fill="#000000">/gpio_params.h</text>
</g>
<!-- Node1 -->
<g id="node2" class="node">
<title>Node1</title>
<g id="a_node2"><a xlink:href="esp32-mh-et-live-minikit_2include_2board_8h.html" target="_top" xlink:title="Board specific definitions for MH&#45;ET LIVE MiniKit for ESP32. ">
<polygon fill="#ffffff" stroke="#000000" points="372.5,-112.5 372.5,-131.5 425.5,-131.5 425.5,-112.5 372.5,-112.5"/>
<text text-anchor="middle" x="399" y="-119.5" font-family="Helvetica,sans-Serif" font-size="10.00" fill="#000000">board.h</text>
</a>
</g>
</g>
<!-- Node0&#45;&gt;Node1 -->
<g id="edge1" class="edge">
<title>Node0&#45;&gt;Node1</title>
<path fill="none" stroke="#191970" d="M341.1177,-168.168C353.2452,-158.4949 367.4446,-147.1692 378.7444,-138.1562"/>
<polygon fill="#191970" stroke="#191970" points="381.1026,-140.7523 386.7379,-131.7805 376.7377,-135.2799 381.1026,-140.7523"/>
</g>
<!-- Node5 -->
<g id="node6" class="node">
<title>Node5</title>
<g id="a_node6"><a xlink:href="periph_8h.html" target="_top" xlink:title="Parameter definitions for mapping peripherals directly to SAUL. ">
<polygon fill="#ffffff" stroke="#000000" points="234,-112.5 234,-131.5 312,-131.5 312,-112.5 234,-112.5"/>
<text text-anchor="middle" x="273" y="-119.5" font-family="Helvetica,sans-Serif" font-size="10.00" fill="#000000">saul/periph.h</text>
</a>
</g>
</g>
<!-- Node0&#45;&gt;Node5 -->
<g id="edge5" class="edge">
<title>Node0&#45;&gt;Node5</title>
<path fill="none" stroke="#191970" d="M301.9412,-168.168C296.353,-159.2536 289.885,-148.9356 284.4827,-140.3177"/>
<polygon fill="#191970" stroke="#191970" points="287.4079,-138.3944 279.131,-131.7805 281.4769,-142.1123 287.4079,-138.3944"/>
</g>
<!-- Node2 -->
<g id="node3" class="node">
<title>Node2</title>
<polygon fill="#ffffff" stroke="#bfbfbf" points="342,-.5 342,-19.5 394,-19.5 394,-.5 342,-.5"/>
<text text-anchor="middle" x="368" y="-7.5" font-family="Helvetica,sans-Serif" font-size="10.00" fill="#000000">stdint.h</text>
</g>
<!-- Node1&#45;&gt;Node2 -->
<g id="edge2" class="edge">
<title>Node1&#45;&gt;Node2</title>
<path fill="none" stroke="#191970" d="M396.357,-112.4509C391.278,-94.1013 380.0653,-53.5908 373.3612,-29.3693"/>
<polygon fill="#191970" stroke="#191970" points="376.6772,-28.2289 370.6364,-19.5249 369.9308,-30.0962 376.6772,-28.2289"/>
</g>
<!-- Node3 -->
<g id="node4" class="node">
<title>Node3</title>
<polygon fill="#ffffff" stroke="#bfbfbf" points="399,-56.5 399,-75.5 497,-75.5 497,-56.5 399,-56.5"/>
<text text-anchor="middle" x="448" y="-63.5" font-family="Helvetica,sans-Serif" font-size="10.00" fill="#000000">board_common.h</text>
</g>
<!-- Node1&#45;&gt;Node3 -->
<g id="edge3" class="edge">
<title>Node1&#45;&gt;Node3</title>
<path fill="none" stroke="#191970" d="M407.5351,-112.2455C414.4912,-104.2958 424.4883,-92.8706 432.8051,-83.3656"/>
<polygon fill="#191970" stroke="#191970" points="435.6116,-85.4732 439.5627,-75.6427 430.3436,-80.8637 435.6116,-85.4732"/>
</g>
<!-- Node4 -->
<g id="node5" class="node">
<title>Node4</title>
<g id="a_node5"><a xlink:href="esp32-mh-et-live-minikit_2include_2board__modules_8h.html" target="_top" xlink:title="Definitions for Wemos stackable hardware modules (shields) ">
<polygon fill="#ffffff" stroke="#000000" points="515,-56.5 515,-75.5 613,-75.5 613,-56.5 515,-56.5"/>
<text text-anchor="middle" x="564" y="-63.5" font-family="Helvetica,sans-Serif" font-size="10.00" fill="#000000">board_modules.h</text>
</a>
</g>
</g>
<!-- Node1&#45;&gt;Node4 -->
<g id="edge4" class="edge">
<title>Node1&#45;&gt;Node4</title>
<path fill="none" stroke="#191970" d="M425.5101,-113.0026C452.8008,-103.7403 495.5683,-89.2253 526.358,-78.7755"/>
<polygon fill="#191970" stroke="#191970" points="527.5544,-82.0656 535.899,-75.5373 525.3046,-75.4369 527.5544,-82.0656"/>
</g>
<!-- Node6 -->
<g id="node7" class="node">
<title>Node6</title>
<g id="a_node7"><a xlink:href="drivers_2include_2periph_2gpio_8h.html" target="_top" xlink:title="Low&#45;level GPIO peripheral driver interface definitions. ">
<polygon fill="#ffffff" stroke="#000000" points="67,-56.5 67,-75.5 147,-75.5 147,-56.5 67,-56.5"/>
<text text-anchor="middle" x="107" y="-63.5" font-family="Helvetica,sans-Serif" font-size="10.00" fill="#000000">periph/gpio.h</text>
</a>
</g>
</g>
<!-- Node5&#45;&gt;Node6 -->
<g id="edge6" class="edge">
<title>Node5&#45;&gt;Node6</title>
<path fill="none" stroke="#191970" d="M244.4636,-112.3733C216.9798,-103.1016 175.2314,-89.0178 144.9548,-78.804"/>
<polygon fill="#191970" stroke="#191970" points="145.7582,-75.3813 135.164,-75.5011 143.5206,-82.0141 145.7582,-75.3813"/>
</g>
<!-- Node11 -->
<g id="node12" class="node">
<title>Node11</title>
<g id="a_node12"><a xlink:href="adc_8h.html" target="_top" xlink:title="Low&#45;level ADC peripheral driver interface definitions. ">
<polygon fill="#ffffff" stroke="#000000" points="165,-56.5 165,-75.5 241,-75.5 241,-56.5 165,-56.5"/>
<text text-anchor="middle" x="203" y="-63.5" font-family="Helvetica,sans-Serif" font-size="10.00" fill="#000000">periph/adc.h</text>
</a>
</g>
</g>
<!-- Node5&#45;&gt;Node11 -->
<g id="edge11" class="edge">
<title>Node5&#45;&gt;Node11</title>
<path fill="none" stroke="#191970" d="M260.8069,-112.2455C250.3679,-103.8943 235.1345,-91.7076 222.926,-81.9408"/>
<polygon fill="#191970" stroke="#191970" points="225.0485,-79.1566 215.0533,-75.6427 220.6756,-84.6227 225.0485,-79.1566"/>
</g>
<!-- Node12 -->
<g id="node13" class="node">
<title>Node12</title>
<g id="a_node13"><a xlink:href="pwm_8h.html" target="_top" xlink:title="Low&#45;level PWM peripheral driver interface definitions. ">
<polygon fill="#ffffff" stroke="#000000" points="259.5,-56.5 259.5,-75.5 342.5,-75.5 342.5,-56.5 259.5,-56.5"/>
<text text-anchor="middle" x="301" y="-63.5" font-family="Helvetica,sans-Serif" font-size="10.00" fill="#000000">periph/pwm.h</text>
</a>
</g>
</g>
<!-- Node5&#45;&gt;Node12 -->
<g id="edge16" class="edge">
<title>Node5&#45;&gt;Node12</title>
<path fill="none" stroke="#191970" d="M277.8772,-112.2455C281.6513,-104.6973 286.9921,-94.0158 291.5901,-84.8197"/>
<polygon fill="#191970" stroke="#191970" points="294.837,-86.1522 296.1787,-75.6427 288.576,-83.0217 294.837,-86.1522"/>
</g>
<!-- Node7 -->
<g id="node8" class="node">
<title>Node7</title>
<polygon fill="#ffffff" stroke="#bfbfbf" points="178,-.5 178,-19.5 228,-19.5 228,-.5 178,-.5"/>
<text text-anchor="middle" x="203" y="-7.5" font-family="Helvetica,sans-Serif" font-size="10.00" fill="#000000">limits.h</text>
</g>
<!-- Node6&#45;&gt;Node7 -->
<g id="edge7" class="edge">
<title>Node6&#45;&gt;Node7</title>
<path fill="none" stroke="#191970" d="M123.7219,-56.2455C138.5889,-47.5731 160.5466,-34.7645 177.5858,-24.825"/>
<polygon fill="#191970" stroke="#191970" points="179.5955,-27.7047 186.4697,-19.6427 176.0683,-21.6582 179.5955,-27.7047"/>
</g>
<!-- Node8 -->
<g id="node9" class="node">
<title>Node8</title>
<polygon fill="#ffffff" stroke="#bfbfbf" points="0,-.5 0,-19.5 60,-19.5 60,-.5 0,-.5"/>
<text text-anchor="middle" x="30" y="-7.5" font-family="Helvetica,sans-Serif" font-size="10.00" fill="#000000">stdbool.h</text>
</g>
<!-- Node6&#45;&gt;Node8 -->
<g id="edge8" class="edge">
<title>Node6&#45;&gt;Node8</title>
<path fill="none" stroke="#191970" d="M93.5876,-56.2455C81.9943,-47.814 65.0252,-35.4729 51.5322,-25.6598"/>
<polygon fill="#191970" stroke="#191970" points="53.4047,-22.6938 43.2587,-19.6427 49.2874,-28.355 53.4047,-22.6938"/>
</g>
<!-- Node9 -->
<g id="node10" class="node">
<title>Node9</title>
<polygon fill="#ffffff" stroke="#bfbfbf" points="246.5,-.5 246.5,-19.5 323.5,-19.5 323.5,-.5 246.5,-.5"/>
<text text-anchor="middle" x="285" y="-7.5" font-family="Helvetica,sans-Serif" font-size="10.00" fill="#000000">periph_cpu.h</text>
</g>
<!-- Node6&#45;&gt;Node9 -->
<g id="edge9" class="edge">
<title>Node6&#45;&gt;Node9</title>
<path fill="none" stroke="#191970" d="M137.5993,-56.3733C167.3261,-47.021 212.6159,-32.7725 245.1456,-22.5385"/>
<polygon fill="#191970" stroke="#191970" points="246.3113,-25.8409 254.8,-19.5011 244.2105,-19.1636 246.3113,-25.8409"/>
</g>
<!-- Node10 -->
<g id="node11" class="node">
<title>Node10</title>
<polygon fill="#ffffff" stroke="#bfbfbf" points="78.5,-.5 78.5,-19.5 159.5,-19.5 159.5,-.5 78.5,-.5"/>
<text text-anchor="middle" x="119" y="-7.5" font-family="Helvetica,sans-Serif" font-size="10.00" fill="#000000">periph_conf.h</text>
</g>
<!-- Node6&#45;&gt;Node10 -->
<g id="edge10" class="edge">
<title>Node6&#45;&gt;Node10</title>
<path fill="none" stroke="#191970" d="M109.0902,-56.2455C110.6561,-48.9382 112.8512,-38.6944 114.7776,-29.7046"/>
<polygon fill="#191970" stroke="#191970" points="118.2607,-30.1541 116.9337,-19.6427 111.416,-28.6873 118.2607,-30.1541"/>
</g>
<!-- Node11&#45;&gt;Node2 -->
<g id="edge13" class="edge">
<title>Node11&#45;&gt;Node2</title>
<path fill="none" stroke="#191970" d="M231.3645,-56.3733C259.2622,-46.9049 301.9465,-32.4182 332.1733,-22.1594"/>
<polygon fill="#191970" stroke="#191970" points="333.5626,-25.384 341.9072,-18.8557 331.3128,-18.7554 333.5626,-25.384"/>
</g>
<!-- Node11&#45;&gt;Node7 -->
<g id="edge12" class="edge">
<title>Node11&#45;&gt;Node7</title>
<path fill="none" stroke="#191970" d="M203,-56.2455C203,-48.9382 203,-38.6944 203,-29.7046"/>
<polygon fill="#191970" stroke="#191970" points="206.5001,-29.6426 203,-19.6427 199.5001,-29.6427 206.5001,-29.6426"/>
</g>
<!-- Node11&#45;&gt;Node9 -->
<g id="edge14" class="edge">
<title>Node11&#45;&gt;Node9</title>
<path fill="none" stroke="#191970" d="M217.2833,-56.2455C229.747,-47.7337 248.0451,-35.2375 262.4792,-25.3801"/>
<polygon fill="#191970" stroke="#191970" points="264.5962,-28.1726 270.8804,-19.6427 260.6485,-22.392 264.5962,-28.1726"/>
</g>
<!-- Node11&#45;&gt;Node10 -->
<g id="edge15" class="edge">
<title>Node11&#45;&gt;Node10</title>
<path fill="none" stroke="#191970" d="M188.3683,-56.2455C175.6006,-47.7337 156.8562,-35.2375 142.0701,-25.3801"/>
<polygon fill="#191970" stroke="#191970" points="143.726,-22.2775 133.464,-19.6427 139.8431,-28.1019 143.726,-22.2775"/>
</g>
<!-- Node12&#45;&gt;Node2 -->
<g id="edge17" class="edge">
<title>Node12&#45;&gt;Node2</title>
<path fill="none" stroke="#191970" d="M312.6705,-56.2455C322.5661,-47.9746 336.9627,-35.9416 348.5901,-26.2232"/>
<polygon fill="#191970" stroke="#191970" points="351.035,-28.7413 356.4632,-19.6427 346.5458,-23.3703 351.035,-28.7413"/>
</g>
<!-- Node12&#45;&gt;Node7 -->
<g id="edge18" class="edge">
<title>Node12&#45;&gt;Node7</title>
<path fill="none" stroke="#191970" d="M283.9297,-56.2455C268.753,-47.5731 246.3379,-34.7645 228.9437,-24.825"/>
<polygon fill="#191970" stroke="#191970" points="230.2936,-21.5653 219.8747,-19.6427 226.8206,-27.643 230.2936,-21.5653"/>
</g>
<!-- Node12&#45;&gt;Node9 -->
<g id="edge19" class="edge">
<title>Node12&#45;&gt;Node9</title>
<path fill="none" stroke="#191970" d="M298.213,-56.2455C296.1023,-48.8579 293.134,-38.4689 290.5453,-29.4087"/>
<polygon fill="#191970" stroke="#191970" points="293.8677,-28.2964 287.755,-19.6427 287.137,-30.2195 293.8677,-28.2964"/>
</g>
<!-- Node12&#45;&gt;Node10 -->
<g id="edge20" class="edge">
<title>Node12&#45;&gt;Node10</title>
<path fill="none" stroke="#191970" d="M269.7131,-56.3733C239.3182,-47.021 193.0107,-32.7725 159.75,-22.5385"/>
<polygon fill="#191970" stroke="#191970" points="160.4658,-19.0968 149.8786,-19.5011 158.4071,-25.7873 160.4658,-19.0968"/>
</g>
</g>
</svg>
