<?xml version="1.0" encoding="UTF-8" standalone="no"?>
<!DOCTYPE svg PUBLIC "-//W3C//DTD SVG 1.1//EN"
 "http://www.w3.org/Graphics/SVG/1.1/DTD/svg11.dtd">
<!-- Generated by graphviz version 2.40.1 (0)
 -->
<!-- Title: boards/esp32&#45;heltec&#45;lora32&#45;v2/include/board.h Pages: 1 -->
<svg width="149pt" height="117pt"
 viewBox="0.00 0.00 149.00 117.00" xmlns="http://www.w3.org/2000/svg" xmlns:xlink="http://www.w3.org/1999/xlink">
<g id="graph0" class="graph" transform="scale(1 1) rotate(0) translate(4 113)">
<title>boards/esp32&#45;heltec&#45;lora32&#45;v2/include/board.h</title>
<polygon fill="#ffffff" stroke="transparent" points="-4,4 -4,-113 145,-113 145,4 -4,4"/>
<!-- Node3 -->
<g id="node1" class="node">
<title>Node3</title>
<polygon fill="#bfbfbf" stroke="#000000" points="0,-78.5 0,-108.5 141,-108.5 141,-78.5 0,-78.5"/>
<text text-anchor="start" x="8" y="-96.5" font-family="Helvetica,sans-Serif" font-size="10.00" fill="#000000">boards/esp32&#45;heltec</text>
<text text-anchor="middle" x="70.5" y="-85.5" font-family="Helvetica,sans-Serif" font-size="10.00" fill="#000000">&#45;lora32&#45;v2/include/board.h</text>
</g>
<!-- Node4 -->
<g id="node2" class="node">
<title>Node4</title>
<g id="a_node2"><a xlink:href="esp32-heltec-lora32-v2_2include_2gpio__params_8h.html" target="_top" xlink:title="Board specific configuration of direct mapped GPIOs. ">
<polygon fill="#ffffff" stroke="#000000" points="8,-.5 8,-41.5 133,-41.5 133,-.5 8,-.5"/>
<text text-anchor="start" x="16" y="-29.5" font-family="Helvetica,sans-Serif" font-size="10.00" fill="#000000">boards/esp32&#45;heltec</text>
<text text-anchor="start" x="16" y="-18.5" font-family="Helvetica,sans-Serif" font-size="10.00" fill="#000000">&#45;lora32&#45;v2/include/gpio</text>
<text text-anchor="middle" x="70.5" y="-7.5" font-family="Helvetica,sans-Serif" font-size="10.00" fill="#000000">_params.h</text>
</a>
</g>
</g>
<!-- Node3&#45;&gt;Node4 -->
<g id="edge1" class="edge">
<title>Node3&#45;&gt;Node4</title>
<path fill="none" stroke="#191970" d="M70.5,-68.4016C70.5,-59.6173 70.5,-49.8652 70.5,-41.5015"/>
<polygon fill="#191970" stroke="#191970" points="67.0001,-68.4779 70.5,-78.478 74.0001,-68.478 67.0001,-68.4779"/>
</g>
</g>
</svg>
