<?xml version="1.0" encoding="UTF-8" standalone="no"?>
<!DOCTYPE svg PUBLIC "-//W3C//DTD SVG 1.1//EN"
 "http://www.w3.org/Graphics/SVG/1.1/DTD/svg11.dtd">
<!-- Generated by graphviz version 2.40.1 (0)
 -->
<!-- Title: boards/esp32&#45;wrover&#45;kit/include/board.h Pages: 1 -->
<svg width="148pt" height="106pt"
 viewBox="0.00 0.00 148.00 106.00" xmlns="http://www.w3.org/2000/svg" xmlns:xlink="http://www.w3.org/1999/xlink">
<g id="graph0" class="graph" transform="scale(1 1) rotate(0) translate(4 102)">
<title>boards/esp32&#45;wrover&#45;kit/include/board.h</title>
<polygon fill="#ffffff" stroke="transparent" points="-4,4 -4,-102 144,-102 144,4 -4,4"/>
<!-- Node3 -->
<g id="node1" class="node">
<title>Node3</title>
<polygon fill="#bfbfbf" stroke="#000000" points="11,-67.5 11,-97.5 129,-97.5 129,-67.5 11,-67.5"/>
<text text-anchor="start" x="19" y="-85.5" font-family="Helvetica,sans-Serif" font-size="10.00" fill="#000000">boards/esp32&#45;wrover</text>
<text text-anchor="middle" x="70" y="-74.5" font-family="Helvetica,sans-Serif" font-size="10.00" fill="#000000">&#45;kit/include/board.h</text>
</g>
<!-- Node4 -->
<g id="node2" class="node">
<title>Node4</title>
<g id="a_node2"><a xlink:href="esp32-wrover-kit_2include_2gpio__params_8h.html" target="_top" xlink:title="Board specific configuration of direct mapped GPIOs. ">
<polygon fill="#ffffff" stroke="#000000" points="0,-.5 0,-30.5 140,-30.5 140,-.5 0,-.5"/>
<text text-anchor="start" x="8" y="-18.5" font-family="Helvetica,sans-Serif" font-size="10.00" fill="#000000">boards/esp32&#45;wrover</text>
<text text-anchor="middle" x="70" y="-7.5" font-family="Helvetica,sans-Serif" font-size="10.00" fill="#000000">&#45;kit/include/gpio_params.h</text>
</a>
</g>
</g>
<!-- Node3&#45;&gt;Node4 -->
<g id="edge1" class="edge">
<title>Node3&#45;&gt;Node4</title>
<path fill="none" stroke="#191970" d="M70,-57.0249C70,-48.128 70,-38.4287 70,-30.6432"/>
<polygon fill="#191970" stroke="#191970" points="66.5001,-57.2966 70,-67.2967 73.5001,-57.2967 66.5001,-57.2966"/>
</g>
</g>
</svg>
