<?xml version="1.0" encoding="UTF-8" standalone="no"?>
<!DOCTYPE svg PUBLIC "-//W3C//DTD SVG 1.1//EN"
 "http://www.w3.org/Graphics/SVG/1.1/DTD/svg11.dtd">
<!-- Generated by graphviz version 2.40.1 (0)
 -->
<!-- Title: boards/esp32&#45;mh&#45;et&#45;live&#45;minikit/include/board_modules.h Pages: 1 -->
<svg width="120pt" height="206pt"
 viewBox="0.00 0.00 120.00 206.00" xmlns="http://www.w3.org/2000/svg" xmlns:xlink="http://www.w3.org/1999/xlink">
<g id="graph0" class="graph" transform="scale(1 1) rotate(0) translate(4 202)">
<title>boards/esp32&#45;mh&#45;et&#45;live&#45;minikit/include/board_modules.h</title>
<polygon fill="#ffffff" stroke="transparent" points="-4,4 -4,-202 116,-202 116,4 -4,4"/>
<!-- Node1 -->
<g id="node1" class="node">
<title>Node1</title>
<polygon fill="#bfbfbf" stroke="#000000" points="0,-156.5 0,-197.5 112,-197.5 112,-156.5 0,-156.5"/>
<text text-anchor="start" x="8" y="-185.5" font-family="Helvetica,sans-Serif" font-size="10.00" fill="#000000">boards/esp32&#45;mh&#45;et</text>
<text text-anchor="start" x="8" y="-174.5" font-family="Helvetica,sans-Serif" font-size="10.00" fill="#000000">&#45;live&#45;minikit/include</text>
<text text-anchor="middle" x="56" y="-163.5" font-family="Helvetica,sans-Serif" font-size="10.00" fill="#000000">/board_modules.h</text>
</g>
<!-- Node2 -->
<g id="node2" class="node">
<title>Node2</title>
<g id="a_node2"><a xlink:href="esp32-mh-et-live-minikit_2include_2board_8h.html" target="_top" xlink:title="Board specific definitions for MH&#45;ET LIVE MiniKit for ESP32. ">
<polygon fill="#ffffff" stroke="#000000" points="0,-78.5 0,-119.5 112,-119.5 112,-78.5 0,-78.5"/>
<text text-anchor="start" x="8" y="-107.5" font-family="Helvetica,sans-Serif" font-size="10.00" fill="#000000">boards/esp32&#45;mh&#45;et</text>
<text text-anchor="start" x="8" y="-96.5" font-family="Helvetica,sans-Serif" font-size="10.00" fill="#000000">&#45;live&#45;minikit/include</text>
<text text-anchor="middle" x="56" y="-85.5" font-family="Helvetica,sans-Serif" font-size="10.00" fill="#000000">/board.h</text>
</a>
</g>
</g>
<!-- Node1&#45;&gt;Node2 -->
<g id="edge1" class="edge">
<title>Node1&#45;&gt;Node2</title>
<path fill="none" stroke="#191970" d="M56,-146.0789C56,-137.2178 56,-127.7747 56,-119.6898"/>
<polygon fill="#191970" stroke="#191970" points="52.5001,-146.0974 56,-156.0974 59.5001,-146.0975 52.5001,-146.0974"/>
</g>
<!-- Node3 -->
<g id="node3" class="node">
<title>Node3</title>
<g id="a_node3"><a xlink:href="esp32-mh-et-live-minikit_2include_2gpio__params_8h.html" target="_top" xlink:title="Board specific configuration of direct mapped GPIOs. ">
<polygon fill="#ffffff" stroke="#000000" points="0,-.5 0,-41.5 112,-41.5 112,-.5 0,-.5"/>
<text text-anchor="start" x="8" y="-29.5" font-family="Helvetica,sans-Serif" font-size="10.00" fill="#000000">boards/esp32&#45;mh&#45;et</text>
<text text-anchor="start" x="8" y="-18.5" font-family="Helvetica,sans-Serif" font-size="10.00" fill="#000000">&#45;live&#45;minikit/include</text>
<text text-anchor="middle" x="56" y="-7.5" font-family="Helvetica,sans-Serif" font-size="10.00" fill="#000000">/gpio_params.h</text>
</a>
</g>
</g>
<!-- Node2&#45;&gt;Node3 -->
<g id="edge2" class="edge">
<title>Node2&#45;&gt;Node3</title>
<path fill="none" stroke="#191970" d="M56,-68.0789C56,-59.2178 56,-49.7747 56,-41.6898"/>
<polygon fill="#191970" stroke="#191970" points="52.5001,-68.0974 56,-78.0974 59.5001,-68.0975 52.5001,-68.0974"/>
</g>
</g>
</svg>
