<?xml version="1.0" encoding="UTF-8" standalone="no"?>
<!DOCTYPE svg PUBLIC "-//W3C//DTD SVG 1.1//EN"
 "http://www.w3.org/Graphics/SVG/1.1/DTD/svg11.dtd">
<!-- Generated by graphviz version 2.40.1 (0)
 -->
<!-- Title: boards/esp32&#45;ethernet&#45;kit&#45;v1_0/include/board.h Pages: 1 -->
<svg width="141pt" height="117pt"
 viewBox="0.00 0.00 141.00 117.00" xmlns="http://www.w3.org/2000/svg" xmlns:xlink="http://www.w3.org/1999/xlink">
<g id="graph0" class="graph" transform="scale(1 1) rotate(0) translate(4 113)">
<title>boards/esp32&#45;ethernet&#45;kit&#45;v1_0/include/board.h</title>
<polygon fill="#ffffff" stroke="transparent" points="-4,4 -4,-113 137,-113 137,4 -4,4"/>
<!-- Node3 -->
<g id="node1" class="node">
<title>Node3</title>
<polygon fill="#bfbfbf" stroke="#000000" points="0,-78.5 0,-108.5 133,-108.5 133,-78.5 0,-78.5"/>
<text text-anchor="start" x="8" y="-96.5" font-family="Helvetica,sans-Serif" font-size="10.00" fill="#000000">boards/esp32&#45;ethernet</text>
<text text-anchor="middle" x="66.5" y="-85.5" font-family="Helvetica,sans-Serif" font-size="10.00" fill="#000000">&#45;kit&#45;v1_0/include/board.h</text>
</g>
<!-- Node4 -->
<g id="node2" class="node">
<title>Node4</title>
<g id="a_node2"><a xlink:href="esp32-ethernet-kit-v1__0_2include_2gpio__params_8h.html" target="_top" xlink:title="Board specific configuration of direct mapped GPIOs. ">
<polygon fill="#ffffff" stroke="#000000" points="3.5,-.5 3.5,-41.5 129.5,-41.5 129.5,-.5 3.5,-.5"/>
<text text-anchor="start" x="11.5" y="-29.5" font-family="Helvetica,sans-Serif" font-size="10.00" fill="#000000">boards/esp32&#45;ethernet</text>
<text text-anchor="start" x="11.5" y="-18.5" font-family="Helvetica,sans-Serif" font-size="10.00" fill="#000000">&#45;kit&#45;v1_0/include/gpio</text>
<text text-anchor="middle" x="66.5" y="-7.5" font-family="Helvetica,sans-Serif" font-size="10.00" fill="#000000">_params.h</text>
</a>
</g>
</g>
<!-- Node3&#45;&gt;Node4 -->
<g id="edge1" class="edge">
<title>Node3&#45;&gt;Node4</title>
<path fill="none" stroke="#191970" d="M66.5,-68.4016C66.5,-59.6173 66.5,-49.8652 66.5,-41.5015"/>
<polygon fill="#191970" stroke="#191970" points="63.0001,-68.4779 66.5,-78.478 70.0001,-68.478 63.0001,-68.4779"/>
</g>
</g>
</svg>
