<?xml version="1.0" encoding="UTF-8" standalone="no"?>
<!DOCTYPE svg PUBLIC "-//W3C//DTD SVG 1.1//EN"
 "http://www.w3.org/Graphics/SVG/1.1/DTD/svg11.dtd">
<!-- Generated by graphviz version 2.40.1 (0)
 -->
<!-- Title: cpu/esp32/include/gpio_arch.h Pages: 1 -->
<svg width="331pt" height="207pt"
 viewBox="0.00 0.00 330.50 207.00" xmlns="http://www.w3.org/2000/svg" xmlns:xlink="http://www.w3.org/1999/xlink">
<g id="graph0" class="graph" transform="scale(1 1) rotate(0) translate(4 203)">
<title>cpu/esp32/include/gpio_arch.h</title>
<polygon fill="#ffffff" stroke="transparent" points="-4,4 -4,-203 326.5,-203 326.5,4 -4,4"/>
<!-- Node0 -->
<g id="node1" class="node">
<title>Node0</title>
<polygon fill="#bfbfbf" stroke="#000000" points="53,-168.5 53,-198.5 179,-198.5 179,-168.5 53,-168.5"/>
<text text-anchor="start" x="61" y="-186.5" font-family="Helvetica,sans-Serif" font-size="10.00" fill="#000000">cpu/esp32/include/gpio</text>
<text text-anchor="middle" x="116" y="-175.5" font-family="Helvetica,sans-Serif" font-size="10.00" fill="#000000">_arch.h</text>
</g>
<!-- Node1 -->
<g id="node2" class="node">
<title>Node1</title>
<polygon fill="#ffffff" stroke="#bfbfbf" points="0,-.5 0,-19.5 60,-19.5 60,-.5 0,-.5"/>
<text text-anchor="middle" x="30" y="-7.5" font-family="Helvetica,sans-Serif" font-size="10.00" fill="#000000">stdbool.h</text>
</g>
<!-- Node0&#45;&gt;Node1 -->
<g id="edge1" class="edge">
<title>Node0&#45;&gt;Node1</title>
<path fill="none" stroke="#191970" d="M87.3052,-168.3806C73.5134,-159.6123 58.0504,-147.2718 49,-132 30.0459,-100.0167 28.0534,-55.373 28.7396,-29.9036"/>
<polygon fill="#191970" stroke="#191970" points="32.2471,-29.8099 29.1921,-19.6651 25.2539,-29.5007 32.2471,-29.8099"/>
</g>
<!-- Node2 -->
<g id="node3" class="node">
<title>Node2</title>
<g id="a_node3"><a xlink:href="gpio__arch__common_8h.html" target="_top" xlink:title="Architecture specific GPIO functions for ESP SoCs. ">
<polygon fill="#ffffff" stroke="#000000" points="58,-112.5 58,-131.5 174,-131.5 174,-112.5 58,-112.5"/>
<text text-anchor="middle" x="116" y="-119.5" font-family="Helvetica,sans-Serif" font-size="10.00" fill="#000000">gpio_arch_common.h</text>
</a>
</g>
</g>
<!-- Node0&#45;&gt;Node2 -->
<g id="edge2" class="edge">
<title>Node0&#45;&gt;Node2</title>
<path fill="none" stroke="#191970" d="M116,-168.2977C116,-160.3834 116,-150.6043 116,-142.0759"/>
<polygon fill="#191970" stroke="#191970" points="119.5001,-141.8469 116,-131.8469 112.5001,-141.847 119.5001,-141.8469"/>
</g>
<!-- Node3 -->
<g id="node4" class="node">
<title>Node3</title>
<g id="a_node4"><a xlink:href="drivers_2include_2periph_2gpio_8h.html" target="_top" xlink:title="Low&#45;level GPIO peripheral driver interface definitions. ">
<polygon fill="#ffffff" stroke="#000000" points="110,-56.5 110,-75.5 190,-75.5 190,-56.5 110,-56.5"/>
<text text-anchor="middle" x="150" y="-63.5" font-family="Helvetica,sans-Serif" font-size="10.00" fill="#000000">periph/gpio.h</text>
</a>
</g>
</g>
<!-- Node0&#45;&gt;Node3 -->
<g id="edge8" class="edge">
<title>Node0&#45;&gt;Node3</title>
<path fill="none" stroke="#191970" d="M146.3986,-168.4946C160.265,-159.8907 175.2848,-147.6614 183,-132 191.1575,-115.4407 179.6769,-96.6127 168.0809,-83.3163"/>
<polygon fill="#191970" stroke="#191970" points="170.4252,-80.7005 161.0204,-75.8219 165.3302,-85.5006 170.4252,-80.7005"/>
</g>
<!-- Node2&#45;&gt;Node3 -->
<g id="edge3" class="edge">
<title>Node2&#45;&gt;Node3</title>
<path fill="none" stroke="#191970" d="M121.9223,-112.2455C126.6027,-104.5367 133.2673,-93.5598 138.9289,-84.2348"/>
<polygon fill="#191970" stroke="#191970" points="141.9475,-86.007 144.1455,-75.6427 135.9639,-82.3741 141.9475,-86.007"/>
</g>
<!-- Node3&#45;&gt;Node1 -->
<g id="edge5" class="edge">
<title>Node3&#45;&gt;Node1</title>
<path fill="none" stroke="#191970" d="M129.3713,-56.3733C110.1081,-47.3838 81.1514,-33.8706 59.4581,-23.7471"/>
<polygon fill="#191970" stroke="#191970" points="60.9015,-20.5584 50.3595,-19.5011 57.9413,-26.9017 60.9015,-20.5584"/>
</g>
<!-- Node4 -->
<g id="node5" class="node">
<title>Node4</title>
<polygon fill="#ffffff" stroke="#bfbfbf" points="78,-.5 78,-19.5 128,-19.5 128,-.5 78,-.5"/>
<text text-anchor="middle" x="103" y="-7.5" font-family="Helvetica,sans-Serif" font-size="10.00" fill="#000000">limits.h</text>
</g>
<!-- Node3&#45;&gt;Node4 -->
<g id="edge4" class="edge">
<title>Node3&#45;&gt;Node4</title>
<path fill="none" stroke="#191970" d="M141.8132,-56.2455C135.1411,-48.2958 125.5521,-36.8706 117.5747,-27.3656"/>
<polygon fill="#191970" stroke="#191970" points="120.2026,-25.0524 111.093,-19.6427 114.8408,-29.5525 120.2026,-25.0524"/>
</g>
<!-- Node5 -->
<g id="node6" class="node">
<title>Node5</title>
<polygon fill="#ffffff" stroke="#bfbfbf" points="146.5,-.5 146.5,-19.5 223.5,-19.5 223.5,-.5 146.5,-.5"/>
<text text-anchor="middle" x="185" y="-7.5" font-family="Helvetica,sans-Serif" font-size="10.00" fill="#000000">periph_cpu.h</text>
</g>
<!-- Node3&#45;&gt;Node5 -->
<g id="edge6" class="edge">
<title>Node3&#45;&gt;Node5</title>
<path fill="none" stroke="#191970" d="M156.0965,-56.2455C160.9145,-48.5367 167.7751,-37.5598 173.6032,-28.2348"/>
<polygon fill="#191970" stroke="#191970" points="176.6413,-29.9777 178.9733,-19.6427 170.7053,-26.2677 176.6413,-29.9777"/>
</g>
<!-- Node6 -->
<g id="node7" class="node">
<title>Node6</title>
<polygon fill="#ffffff" stroke="#bfbfbf" points="241.5,-.5 241.5,-19.5 322.5,-19.5 322.5,-.5 241.5,-.5"/>
<text text-anchor="middle" x="282" y="-7.5" font-family="Helvetica,sans-Serif" font-size="10.00" fill="#000000">periph_conf.h</text>
</g>
<!-- Node3&#45;&gt;Node6 -->
<g id="edge7" class="edge">
<title>Node3&#45;&gt;Node6</title>
<path fill="none" stroke="#191970" d="M172.6916,-56.3733C194.0711,-47.3032 226.3057,-33.6279 250.2362,-23.4755"/>
<polygon fill="#191970" stroke="#191970" points="251.7656,-26.6287 259.6045,-19.5011 249.0317,-20.1846 251.7656,-26.6287"/>
</g>
</g>
</svg>
