<?xml version="1.0" encoding="UTF-8" standalone="no"?>
<!DOCTYPE svg PUBLIC "-//W3C//DTD SVG 1.1//EN"
 "http://www.w3.org/Graphics/SVG/1.1/DTD/svg11.dtd">
<!-- Generated by graphviz version 2.40.1 (0)
 -->
<!-- Title: boards/esp8266&#45;sparkfun&#45;thing/include/board.h Pages: 1 -->
<svg width="160pt" height="106pt"
 viewBox="0.00 0.00 160.00 106.00" xmlns="http://www.w3.org/2000/svg" xmlns:xlink="http://www.w3.org/1999/xlink">
<g id="graph0" class="graph" transform="scale(1 1) rotate(0) translate(4 102)">
<title>boards/esp8266&#45;sparkfun&#45;thing/include/board.h</title>
<polygon fill="#ffffff" stroke="transparent" points="-4,4 -4,-102 156,-102 156,4 -4,4"/>
<!-- Node3 -->
<g id="node1" class="node">
<title>Node3</title>
<polygon fill="#bfbfbf" stroke="#000000" points="7.5,-67.5 7.5,-97.5 144.5,-97.5 144.5,-67.5 7.5,-67.5"/>
<text text-anchor="start" x="15.5" y="-85.5" font-family="Helvetica,sans-Serif" font-size="10.00" fill="#000000">boards/esp8266&#45;sparkfun</text>
<text text-anchor="middle" x="76" y="-74.5" font-family="Helvetica,sans-Serif" font-size="10.00" fill="#000000">&#45;thing/include/board.h</text>
</g>
<!-- Node4 -->
<g id="node2" class="node">
<title>Node4</title>
<g id="a_node2"><a xlink:href="esp8266-sparkfun-thing_2include_2gpio__params_8h.html" target="_top" xlink:title="Board specific configuration of direct mapped GPIOs. ">
<polygon fill="#ffffff" stroke="#000000" points="0,-.5 0,-30.5 152,-30.5 152,-.5 0,-.5"/>
<text text-anchor="start" x="8" y="-18.5" font-family="Helvetica,sans-Serif" font-size="10.00" fill="#000000">boards/esp8266&#45;sparkfun</text>
<text text-anchor="middle" x="76" y="-7.5" font-family="Helvetica,sans-Serif" font-size="10.00" fill="#000000">&#45;thing/include/gpio_params.h</text>
</a>
</g>
</g>
<!-- Node3&#45;&gt;Node4 -->
<g id="edge1" class="edge">
<title>Node3&#45;&gt;Node4</title>
<path fill="none" stroke="#191970" d="M76,-57.0249C76,-48.128 76,-38.4287 76,-30.6432"/>
<polygon fill="#191970" stroke="#191970" points="72.5001,-57.2966 76,-67.2967 79.5001,-57.2967 72.5001,-57.2966"/>
</g>
</g>
</svg>
