<?xml version="1.0" encoding="UTF-8" standalone="no"?>
<!DOCTYPE svg PUBLIC "-//W3C//DTD SVG 1.1//EN"
 "http://www.w3.org/Graphics/SVG/1.1/DTD/svg11.dtd">
<!-- Generated by graphviz version 2.40.1 (0)
 -->
<!-- Title: cpu/esp8266/include/cpu_conf.h Pages: 1 -->
<svg width="220pt" height="95pt"
 viewBox="0.00 0.00 219.50 95.00" xmlns="http://www.w3.org/2000/svg" xmlns:xlink="http://www.w3.org/1999/xlink">
<g id="graph0" class="graph" transform="scale(1 1) rotate(0) translate(4 91)">
<title>cpu/esp8266/include/cpu_conf.h</title>
<polygon fill="#ffffff" stroke="transparent" points="-4,4 -4,-91 215.5,-91 215.5,4 -4,4"/>
<!-- Node0 -->
<g id="node1" class="node">
<title>Node0</title>
<polygon fill="#bfbfbf" stroke="#000000" points="56,-56.5 56,-86.5 170,-86.5 170,-56.5 56,-56.5"/>
<text text-anchor="start" x="64" y="-74.5" font-family="Helvetica,sans-Serif" font-size="10.00" fill="#000000">cpu/esp8266/include</text>
<text text-anchor="middle" x="113" y="-63.5" font-family="Helvetica,sans-Serif" font-size="10.00" fill="#000000">/cpu_conf.h</text>
</g>
<!-- Node1 -->
<g id="node2" class="node">
<title>Node1</title>
<polygon fill="#ffffff" stroke="#bfbfbf" points="0,-.5 0,-19.5 112,-19.5 112,-.5 0,-.5"/>
<text text-anchor="middle" x="56" y="-7.5" font-family="Helvetica,sans-Serif" font-size="10.00" fill="#000000">cpu_conf_common.h</text>
</g>
<!-- Node0&#45;&gt;Node1 -->
<g id="edge1" class="edge">
<title>Node0&#45;&gt;Node1</title>
<path fill="none" stroke="#191970" d="M98.9101,-56.2977C90.7507,-47.4941 80.4528,-36.3833 71.9905,-27.2529"/>
<polygon fill="#191970" stroke="#191970" points="74.4911,-24.8021 65.1264,-19.8469 69.3571,-29.5604 74.4911,-24.8021"/>
</g>
<!-- Node2 -->
<g id="node3" class="node">
<title>Node2</title>
<g id="a_node3"><a xlink:href="xtensa__conf_8h.html" target="_top" xlink:title="Xtensa ASM code specific configuration options for ESP SoCs. ">
<polygon fill="#ffffff" stroke="#000000" points="130.5,-.5 130.5,-19.5 211.5,-19.5 211.5,-.5 130.5,-.5"/>
<text text-anchor="middle" x="171" y="-7.5" font-family="Helvetica,sans-Serif" font-size="10.00" fill="#000000">xtensa_conf.h</text>
</a>
</g>
</g>
<!-- Node0&#45;&gt;Node2 -->
<g id="edge2" class="edge">
<title>Node0&#45;&gt;Node2</title>
<path fill="none" stroke="#191970" d="M127.3371,-56.2977C135.6397,-47.4941 146.1182,-36.3833 154.7289,-27.2529"/>
<polygon fill="#191970" stroke="#191970" points="157.3987,-29.5234 161.7135,-19.8469 152.3061,-24.7206 157.3987,-29.5234"/>
</g>
</g>
</svg>
