<?xml version="1.0" encoding="UTF-8" standalone="no"?>
<!DOCTYPE svg PUBLIC "-//W3C//DTD SVG 1.1//EN"
 "http://www.w3.org/Graphics/SVG/1.1/DTD/svg11.dtd">
<!-- Generated by graphviz version 2.40.1 (0)
 -->
<!-- Title: cpu/esp_common/include/esp_common.h Pages: 1 -->
<svg width="288pt" height="173pt"
 viewBox="0.00 0.00 288.00 173.00" xmlns="http://www.w3.org/2000/svg" xmlns:xlink="http://www.w3.org/1999/xlink">
<g id="graph0" class="graph" transform="scale(1 1) rotate(0) translate(4 169)">
<title>cpu/esp_common/include/esp_common.h</title>
<polygon fill="#ffffff" stroke="transparent" points="-4,4 -4,-169 284,-169 284,4 -4,4"/>
<!-- Node1 -->
<g id="node1" class="node">
<title>Node1</title>
<polygon fill="#bfbfbf" stroke="#000000" points="80.5,-134.5 80.5,-164.5 215.5,-164.5 215.5,-134.5 80.5,-134.5"/>
<text text-anchor="start" x="88.5" y="-152.5" font-family="Helvetica,sans-Serif" font-size="10.00" fill="#000000">cpu/esp_common/include</text>
<text text-anchor="middle" x="148" y="-141.5" font-family="Helvetica,sans-Serif" font-size="10.00" fill="#000000">/esp_common.h</text>
</g>
<!-- Node2 -->
<g id="node2" class="node">
<title>Node2</title>
<g id="a_node2"><a xlink:href="syscalls__common_8h.html" target="_top" xlink:title="Implementation of required system calls for ESP SoCs. ">
<polygon fill="#ffffff" stroke="#000000" points="80.5,-67.5 80.5,-97.5 215.5,-97.5 215.5,-67.5 80.5,-67.5"/>
<text text-anchor="start" x="88.5" y="-85.5" font-family="Helvetica,sans-Serif" font-size="10.00" fill="#000000">cpu/esp_common/include</text>
<text text-anchor="middle" x="148" y="-74.5" font-family="Helvetica,sans-Serif" font-size="10.00" fill="#000000">/syscalls_common.h</text>
</a>
</g>
</g>
<!-- Node1&#45;&gt;Node2 -->
<g id="edge1" class="edge">
<title>Node1&#45;&gt;Node2</title>
<path fill="none" stroke="#191970" d="M148,-124.0249C148,-115.128 148,-105.4287 148,-97.6432"/>
<polygon fill="#191970" stroke="#191970" points="144.5001,-124.2966 148,-134.2967 151.5001,-124.2967 144.5001,-124.2966"/>
</g>
<!-- Node3 -->
<g id="node3" class="node">
<title>Node3</title>
<g id="a_node3"><a xlink:href="esp32_2include_2syscalls_8h.html" target="_top" xlink:title="Implementation of required system calls. ">
<polygon fill="#ffffff" stroke="#000000" points="0,-6 0,-25 148,-25 148,-6 0,-6"/>
<text text-anchor="middle" x="74" y="-13" font-family="Helvetica,sans-Serif" font-size="10.00" fill="#000000">cpu/esp32/include/syscalls.h</text>
</a>
</g>
</g>
<!-- Node2&#45;&gt;Node3 -->
<g id="edge2" class="edge">
<title>Node2&#45;&gt;Node3</title>
<path fill="none" stroke="#191970" d="M123.7463,-60.5406C110.4804,-48.5296 94.7241,-34.2637 84.5533,-25.055"/>
<polygon fill="#191970" stroke="#191970" points="121.4461,-63.1794 131.2083,-67.2967 126.1444,-57.9903 121.4461,-63.1794"/>
</g>
<!-- Node4 -->
<g id="node4" class="node">
<title>Node4</title>
<g id="a_node4"><a xlink:href="esp8266_2include_2syscalls_8h.html" target="_top" xlink:title="Implementation of required system calls. ">
<polygon fill="#ffffff" stroke="#000000" points="166,-.5 166,-30.5 280,-30.5 280,-.5 166,-.5"/>
<text text-anchor="start" x="174" y="-18.5" font-family="Helvetica,sans-Serif" font-size="10.00" fill="#000000">cpu/esp8266/include</text>
<text text-anchor="middle" x="223" y="-7.5" font-family="Helvetica,sans-Serif" font-size="10.00" fill="#000000">/syscalls.h</text>
</a>
</g>
</g>
<!-- Node2&#45;&gt;Node4 -->
<g id="edge3" class="edge">
<title>Node2&#45;&gt;Node4</title>
<path fill="none" stroke="#191970" d="M172.6308,-60.4965C183.5754,-50.7193 196.1843,-39.4554 206.0487,-30.6432"/>
<polygon fill="#191970" stroke="#191970" points="170.1445,-58.0243 165.0187,-67.2967 174.8081,-63.2447 170.1445,-58.0243"/>
</g>
</g>
</svg>
