<?xml version="1.0" encoding="UTF-8" standalone="no"?>
<!DOCTYPE svg PUBLIC "-//W3C//DTD SVG 1.1//EN"
 "http://www.w3.org/Graphics/SVG/1.1/DTD/svg11.dtd">
<!-- Generated by graphviz version 2.40.1 (0)
 -->
<!-- Title: cpu/esp_common/include/esp_common_log.h Pages: 1 -->
<svg width="143pt" height="106pt"
 viewBox="0.00 0.00 143.00 106.00" xmlns="http://www.w3.org/2000/svg" xmlns:xlink="http://www.w3.org/1999/xlink">
<g id="graph0" class="graph" transform="scale(1 1) rotate(0) translate(4 102)">
<title>cpu/esp_common/include/esp_common_log.h</title>
<polygon fill="#ffffff" stroke="transparent" points="-4,4 -4,-102 139,-102 139,4 -4,4"/>
<!-- Node1 -->
<g id="node1" class="node">
<title>Node1</title>
<polygon fill="#bfbfbf" stroke="#000000" points="0,-67.5 0,-97.5 135,-97.5 135,-67.5 0,-67.5"/>
<text text-anchor="start" x="8" y="-85.5" font-family="Helvetica,sans-Serif" font-size="10.00" fill="#000000">cpu/esp_common/include</text>
<text text-anchor="middle" x="67.5" y="-74.5" font-family="Helvetica,sans-Serif" font-size="10.00" fill="#000000">/esp_common_log.h</text>
</g>
<!-- Node2 -->
<g id="node2" class="node">
<title>Node2</title>
<g id="a_node2"><a xlink:href="cpu_2esp__common_2include_2log__module_8h.html" target="_top" xlink:title="Log module to realize consistent log messages for ESP SoCs. ">
<polygon fill="#ffffff" stroke="#000000" points="0,-.5 0,-30.5 135,-30.5 135,-.5 0,-.5"/>
<text text-anchor="start" x="8" y="-18.5" font-family="Helvetica,sans-Serif" font-size="10.00" fill="#000000">cpu/esp_common/include</text>
<text text-anchor="middle" x="67.5" y="-7.5" font-family="Helvetica,sans-Serif" font-size="10.00" fill="#000000">/log_module.h</text>
</a>
</g>
</g>
<!-- Node1&#45;&gt;Node2 -->
<g id="edge1" class="edge">
<title>Node1&#45;&gt;Node2</title>
<path fill="none" stroke="#191970" d="M67.5,-57.0249C67.5,-48.128 67.5,-38.4287 67.5,-30.6432"/>
<polygon fill="#191970" stroke="#191970" points="64.0001,-57.2966 67.5,-67.2967 71.0001,-57.2967 64.0001,-57.2966"/>
</g>
</g>
</svg>
