<?xml version="1.0" encoding="UTF-8" standalone="no"?>
<!DOCTYPE svg PUBLIC "-//W3C//DTD SVG 1.1//EN"
 "http://www.w3.org/Graphics/SVG/1.1/DTD/svg11.dtd">
<!-- Generated by graphviz version 2.40.1 (0)
 -->
<!-- Title: drivers/include/net/netdev/eth.h Pages: 1 -->
<svg width="608pt" height="319pt"
 viewBox="0.00 0.00 608.36 319.00" xmlns="http://www.w3.org/2000/svg" xmlns:xlink="http://www.w3.org/1999/xlink">
<g id="graph0" class="graph" transform="scale(1 1) rotate(0) translate(4 315)">
<title>drivers/include/net/netdev/eth.h</title>
<polygon fill="#ffffff" stroke="transparent" points="-4,4 -4,-315 604.3635,-315 604.3635,4 -4,4"/>
<!-- Node0 -->
<g id="node1" class="node">
<title>Node0</title>
<polygon fill="#bfbfbf" stroke="#000000" points="460.3635,-280.5 460.3635,-310.5 566.3635,-310.5 566.3635,-280.5 460.3635,-280.5"/>
<text text-anchor="start" x="468.3635" y="-298.5" font-family="Helvetica,sans-Serif" font-size="10.00" fill="#000000">drivers/include/net</text>
<text text-anchor="middle" x="513.3635" y="-287.5" font-family="Helvetica,sans-Serif" font-size="10.00" fill="#000000">/netdev/eth.h</text>
</g>
<!-- Node1 -->
<g id="node2" class="node">
<title>Node1</title>
<polygon fill="#ffffff" stroke="#bfbfbf" points="265.3635,-.5 265.3635,-19.5 317.3635,-19.5 317.3635,-.5 265.3635,-.5"/>
<text text-anchor="middle" x="291.3635" y="-7.5" font-family="Helvetica,sans-Serif" font-size="10.00" fill="#000000">stdint.h</text>
</g>
<!-- Node0&#45;&gt;Node1 -->
<g id="edge1" class="edge">
<title>Node0&#45;&gt;Node1</title>
<path fill="none" stroke="#191970" d="M534.8691,-280.3027C560.6323,-260.1339 600.3635,-221.9116 600.3635,-178 600.3635,-178 600.3635,-178 600.3635,-122 600.3635,-64.5921 409.4648,-28.2363 327.76,-15.305"/>
<polygon fill="#191970" stroke="#191970" points="327.8606,-11.7789 317.4423,-13.7052 326.7879,-18.6962 327.8606,-11.7789"/>
</g>
<!-- Node2 -->
<g id="node3" class="node">
<title>Node2</title>
<g id="a_node3"><a xlink:href="drivers_2include_2net_2netdev_8h.html" target="_top" xlink:title="Definitions low&#45;level network driver interface. ">
<polygon fill="#ffffff" stroke="#000000" points="369.8635,-224.5 369.8635,-243.5 446.8635,-243.5 446.8635,-224.5 369.8635,-224.5"/>
<text text-anchor="middle" x="408.3635" y="-231.5" font-family="Helvetica,sans-Serif" font-size="10.00" fill="#000000">net/netdev.h</text>
</a>
</g>
</g>
<!-- Node0&#45;&gt;Node2 -->
<g id="edge2" class="edge">
<title>Node0&#45;&gt;Node2</title>
<path fill="none" stroke="#191970" d="M487.6776,-280.4554C471.2338,-270.8241 449.9926,-258.3828 433.6311,-248.7996"/>
<polygon fill="#191970" stroke="#191970" points="435.0325,-245.5643 424.6347,-243.5303 431.4947,-251.6045 435.0325,-245.5643"/>
</g>
<!-- Node8 -->
<g id="node9" class="node">
<title>Node8</title>
<g id="a_node9"><a xlink:href="netopt_8h.html" target="_top" xlink:title="Definition of global configuration options. ">
<polygon fill="#ffffff" stroke="#000000" points="474.8635,-168.5 474.8635,-187.5 551.8635,-187.5 551.8635,-168.5 474.8635,-168.5"/>
<text text-anchor="middle" x="513.3635" y="-175.5" font-family="Helvetica,sans-Serif" font-size="10.00" fill="#000000">net/netopt.h</text>
</a>
</g>
</g>
<!-- Node0&#45;&gt;Node8 -->
<g id="edge26" class="edge">
<title>Node0&#45;&gt;Node8</title>
<path fill="none" stroke="#191970" d="M513.3635,-280.1389C513.3635,-258.9692 513.3635,-220.8174 513.3635,-197.6112"/>
<polygon fill="#191970" stroke="#191970" points="516.8636,-197.5594 513.3635,-187.5595 509.8636,-197.5595 516.8636,-197.5594"/>
</g>
<!-- Node2&#45;&gt;Node1 -->
<g id="edge3" class="edge">
<title>Node2&#45;&gt;Node1</title>
<path fill="none" stroke="#191970" d="M413.3723,-224.3737C427.5452,-195.658 464.5068,-109.2939 426.3635,-56 414.6572,-39.644 363.4387,-25.5216 327.5731,-17.385"/>
<polygon fill="#191970" stroke="#191970" points="327.9726,-13.8891 317.4535,-15.154 326.4655,-20.7249 327.9726,-13.8891"/>
</g>
<!-- Node3 -->
<g id="node4" class="node">
<title>Node3</title>
<g id="a_node4"><a xlink:href="errno_8h.html" target="_top" xlink:title="errno.h">
<polygon fill="#ffffff" stroke="#000000" points="174.8635,-168.5 174.8635,-187.5 227.8635,-187.5 227.8635,-168.5 174.8635,-168.5"/>
<text text-anchor="middle" x="201.3635" y="-175.5" font-family="Helvetica,sans-Serif" font-size="10.00" fill="#000000">errno.h</text>
</a>
</g>
</g>
<!-- Node2&#45;&gt;Node3 -->
<g id="edge4" class="edge">
<title>Node2&#45;&gt;Node3</title>
<path fill="none" stroke="#191970" d="M372.0752,-224.4863C339.2733,-215.844 289.4104,-202.6018 237.7639,-188.3604"/>
<polygon fill="#191970" stroke="#191970" points="238.6744,-184.9809 228.1033,-185.6905 236.8096,-191.7279 238.6744,-184.9809"/>
</g>
<!-- Node4 -->
<g id="node5" class="node">
<title>Node4</title>
<g id="a_node5"><a xlink:href="iolist_8h.html" target="_top" xlink:title="iolist scatter / gather IO ">
<polygon fill="#ffffff" stroke="#000000" points="245.8635,-168.5 245.8635,-187.5 292.8635,-187.5 292.8635,-168.5 245.8635,-168.5"/>
<text text-anchor="middle" x="269.3635" y="-175.5" font-family="Helvetica,sans-Serif" font-size="10.00" fill="#000000">iolist.h</text>
</a>
</g>
</g>
<!-- Node2&#45;&gt;Node4 -->
<g id="edge5" class="edge">
<title>Node2&#45;&gt;Node4</title>
<path fill="none" stroke="#191970" d="M384.4685,-224.3733C361.8552,-215.2629 327.7093,-201.5062 302.4762,-191.3404"/>
<polygon fill="#191970" stroke="#191970" points="303.5301,-187.9917 292.9466,-187.5011 300.9142,-194.4845 303.5301,-187.9917"/>
</g>
<!-- Node2&#45;&gt;Node8 -->
<g id="edge12" class="edge">
<title>Node2&#45;&gt;Node8</title>
<path fill="none" stroke="#191970" d="M426.6531,-224.2455C443.1397,-215.4527 467.5986,-202.4079 486.34,-192.4125"/>
<polygon fill="#191970" stroke="#191970" points="488.107,-195.4368 495.2835,-187.6427 484.8128,-189.2604 488.107,-195.4368"/>
</g>
<!-- Node10 -->
<g id="node11" class="node">
<title>Node10</title>
<g id="a_node11"><a xlink:href="kernel__defines_8h.html" target="_top" xlink:title="Common macros and compiler attributes/pragmas configuration. ">
<polygon fill="#ffffff" stroke="#000000" points="310.8635,-168.5 310.8635,-187.5 405.8635,-187.5 405.8635,-168.5 310.8635,-168.5"/>
<text text-anchor="middle" x="358.3635" y="-175.5" font-family="Helvetica,sans-Serif" font-size="10.00" fill="#000000">kernel_defines.h</text>
</a>
</g>
</g>
<!-- Node2&#45;&gt;Node10 -->
<g id="edge15" class="edge">
<title>Node2&#45;&gt;Node10</title>
<path fill="none" stroke="#191970" d="M399.6541,-224.2455C392.5562,-216.2958 382.355,-204.8706 373.8685,-195.3656"/>
<polygon fill="#191970" stroke="#191970" points="376.244,-192.771 366.973,-187.6427 371.0224,-197.4331 376.244,-192.771"/>
</g>
<!-- Node5 -->
<g id="node6" class="node">
<title>Node5</title>
<g id="a_node6"><a xlink:href="unistd_8h_source.html" target="_top" xlink:title="unistd.h">
<polygon fill="#ffffff" stroke="#000000" points="52.3635,-112.5 52.3635,-131.5 106.3635,-131.5 106.3635,-112.5 52.3635,-112.5"/>
<text text-anchor="middle" x="79.3635" y="-119.5" font-family="Helvetica,sans-Serif" font-size="10.00" fill="#000000">unistd.h</text>
</a>
</g>
</g>
<!-- Node4&#45;&gt;Node5 -->
<g id="edge6" class="edge">
<title>Node4&#45;&gt;Node5</title>
<path fill="none" stroke="#191970" d="M245.5783,-170.7638C242.4797,-169.8295 239.3468,-168.889 236.3635,-168 195.3455,-155.7764 148.2173,-142.0046 116.3848,-132.7427"/>
<polygon fill="#191970" stroke="#191970" points="117.1938,-129.333 106.6142,-129.9017 115.2393,-136.0546 117.1938,-129.333"/>
</g>
<!-- Node5&#45;&gt;Node1 -->
<g id="edge8" class="edge">
<title>Node5&#45;&gt;Node1</title>
<path fill="none" stroke="#191970" d="M84.0673,-112.3446C91.6047,-97.8935 107.764,-70.7633 129.3635,-56 167.4251,-29.9849 220.0626,-18.5656 254.8783,-13.6315"/>
<polygon fill="#191970" stroke="#191970" points="255.6127,-17.0654 265.0751,-12.2995 254.706,-10.1244 255.6127,-17.0654"/>
</g>
<!-- Node6 -->
<g id="node7" class="node">
<title>Node6</title>
<polygon fill="#ffffff" stroke="#bfbfbf" points="19.3635,-.5 19.3635,-19.5 75.3635,-19.5 75.3635,-.5 19.3635,-.5"/>
<text text-anchor="middle" x="47.3635" y="-7.5" font-family="Helvetica,sans-Serif" font-size="10.00" fill="#000000">stddef.h</text>
</g>
<!-- Node5&#45;&gt;Node6 -->
<g id="edge7" class="edge">
<title>Node5&#45;&gt;Node6</title>
<path fill="none" stroke="#191970" d="M52.0902,-113.354C34.7748,-106.2868 13.7385,-94.4071 3.3635,-76 -6.6558,-58.2242 9.6634,-38.9152 25.1884,-25.8028"/>
<polygon fill="#191970" stroke="#191970" points="27.4194,-28.5007 33.0908,-19.5516 23.0765,-23.0107 27.4194,-28.5007"/>
</g>
<!-- Node7 -->
<g id="node8" class="node">
<title>Node7</title>
<g id="a_node8"><a xlink:href="cpu_2avr8__common_2avr__libc__extra_2include_2sys_2types_8h_source.html" target="_top" xlink:title="sys/types.h">
<polygon fill="#ffffff" stroke="#000000" points="12.8635,-56.5 12.8635,-75.5 81.8635,-75.5 81.8635,-56.5 12.8635,-56.5"/>
<text text-anchor="middle" x="47.3635" y="-63.5" font-family="Helvetica,sans-Serif" font-size="10.00" fill="#000000">sys/types.h</text>
</a>
</g>
</g>
<!-- Node5&#45;&gt;Node7 -->
<g id="edge9" class="edge">
<title>Node5&#45;&gt;Node7</title>
<path fill="none" stroke="#191970" d="M73.7895,-112.2455C69.4303,-104.617 63.2424,-93.7881 57.9502,-84.5267"/>
<polygon fill="#191970" stroke="#191970" points="60.8739,-82.5886 52.8736,-75.6427 54.7962,-86.0616 60.8739,-82.5886"/>
</g>
<!-- Node7&#45;&gt;Node1 -->
<g id="edge10" class="edge">
<title>Node7&#45;&gt;Node1</title>
<path fill="none" stroke="#191970" d="M82.0636,-58.036C127.9334,-47.5085 208.3788,-29.0457 255.0454,-18.3353"/>
<polygon fill="#191970" stroke="#191970" points="256.0607,-21.6934 265.0244,-16.045 254.4948,-14.8707 256.0607,-21.6934"/>
</g>
<!-- Node7&#45;&gt;Node6 -->
<g id="edge11" class="edge">
<title>Node7&#45;&gt;Node6</title>
<path fill="none" stroke="#191970" d="M47.3635,-56.2455C47.3635,-48.9382 47.3635,-38.6944 47.3635,-29.7046"/>
<polygon fill="#191970" stroke="#191970" points="50.8636,-29.6426 47.3635,-19.6427 43.8636,-29.6427 50.8636,-29.6426"/>
</g>
<!-- Node8&#45;&gt;Node1 -->
<g id="edge13" class="edge">
<title>Node8&#45;&gt;Node1</title>
<path fill="none" stroke="#191970" d="M510.3877,-168.3988C502.162,-142.4325 478.524,-71.7159 460.3635,-56 440.5668,-38.8682 370.9394,-23.971 327.4743,-16.0535"/>
<polygon fill="#191970" stroke="#191970" points="328.0234,-12.5963 317.5642,-14.2863 326.7944,-19.4876 328.0234,-12.5963"/>
</g>
<!-- Node9 -->
<g id="node10" class="node">
<title>Node9</title>
<polygon fill="#ffffff" stroke="#bfbfbf" points="512.3635,-112.5 512.3635,-131.5 572.3635,-131.5 572.3635,-112.5 512.3635,-112.5"/>
<text text-anchor="middle" x="542.3635" y="-119.5" font-family="Helvetica,sans-Serif" font-size="10.00" fill="#000000">stdbool.h</text>
</g>
<!-- Node8&#45;&gt;Node9 -->
<g id="edge14" class="edge">
<title>Node8&#45;&gt;Node9</title>
<path fill="none" stroke="#191970" d="M518.4149,-168.2455C522.3654,-160.617 527.9732,-149.7881 532.7693,-140.5267"/>
<polygon fill="#191970" stroke="#191970" points="535.8793,-142.1321 537.3699,-131.6427 529.6634,-138.9131 535.8793,-142.1321"/>
</g>
<!-- Node11 -->
<g id="node12" class="node">
<title>Node11</title>
<g id="a_node12"><a xlink:href="modules_8h.html" target="_top" xlink:title="Common macros and compiler attributes/pragmas configuration. ">
<polygon fill="#ffffff" stroke="#000000" points="313.8635,-112.5 313.8635,-131.5 378.8635,-131.5 378.8635,-112.5 313.8635,-112.5"/>
<text text-anchor="middle" x="346.3635" y="-119.5" font-family="Helvetica,sans-Serif" font-size="10.00" fill="#000000">modules.h</text>
</a>
</g>
</g>
<!-- Node10&#45;&gt;Node11 -->
<g id="edge16" class="edge">
<title>Node10&#45;&gt;Node11</title>
<path fill="none" stroke="#191970" d="M356.2732,-168.2455C354.7074,-160.9382 352.5123,-150.6944 350.5859,-141.7046"/>
<polygon fill="#191970" stroke="#191970" points="353.9474,-140.6873 348.4298,-131.6427 347.1028,-142.1541 353.9474,-140.6873"/>
</g>
<!-- Node12 -->
<g id="node13" class="node">
<title>Node12</title>
<g id="a_node13"><a xlink:href="riot__version_8h.html" target="_top" xlink:title="Common macros and compiler attributes/pragmas configuration. ">
<polygon fill="#ffffff" stroke="#000000" points="336.8635,-56.5 336.8635,-75.5 417.8635,-75.5 417.8635,-56.5 336.8635,-56.5"/>
<text text-anchor="middle" x="377.3635" y="-63.5" font-family="Helvetica,sans-Serif" font-size="10.00" fill="#000000">riot_version.h</text>
</a>
</g>
</g>
<!-- Node10&#45;&gt;Node12 -->
<g id="edge17" class="edge">
<title>Node10&#45;&gt;Node12</title>
<path fill="none" stroke="#191970" d="M366.8611,-168.2186C373.9037,-159.4179 383.3806,-145.786 387.3635,-132 391.8306,-116.538 388.5082,-98.4288 384.533,-85.0948"/>
<polygon fill="#191970" stroke="#191970" points="387.8365,-83.9372 381.3414,-75.5668 381.1989,-86.1606 387.8365,-83.9372"/>
</g>
<!-- Node13 -->
<g id="node14" class="node">
<title>Node13</title>
<g id="a_node14"><a xlink:href="compiler__hints_8h.html" target="_top" xlink:title="Common macros and compiler attributes/pragmas configuration. ">
<polygon fill="#ffffff" stroke="#000000" points="202.8635,-112.5 202.8635,-131.5 295.8635,-131.5 295.8635,-112.5 202.8635,-112.5"/>
<text text-anchor="middle" x="249.3635" y="-119.5" font-family="Helvetica,sans-Serif" font-size="10.00" fill="#000000">compiler_hints.h</text>
</a>
</g>
</g>
<!-- Node10&#45;&gt;Node13 -->
<g id="edge19" class="edge">
<title>Node10&#45;&gt;Node13</title>
<path fill="none" stroke="#191970" d="M339.3771,-168.2455C322.1843,-159.4125 296.6397,-146.2887 277.1503,-136.2758"/>
<polygon fill="#191970" stroke="#191970" points="278.6265,-133.0993 268.1322,-131.6427 275.4276,-139.3257 278.6265,-133.0993"/>
</g>
<!-- Node15 -->
<g id="node16" class="node">
<title>Node15</title>
<g id="a_node16"><a xlink:href="container_8h.html" target="_top" xlink:title="Common macros and compiler attributes/pragmas configuration. ">
<polygon fill="#ffffff" stroke="#000000" points="138.8635,-56.5 138.8635,-75.5 207.8635,-75.5 207.8635,-56.5 138.8635,-56.5"/>
<text text-anchor="middle" x="173.3635" y="-63.5" font-family="Helvetica,sans-Serif" font-size="10.00" fill="#000000">container.h</text>
</a>
</g>
</g>
<!-- Node10&#45;&gt;Node15 -->
<g id="edge23" class="edge">
<title>Node10&#45;&gt;Node15</title>
<path fill="none" stroke="#191970" d="M316.0319,-168.4301C270.1565,-157.7126 202.2668,-140.7066 193.3635,-132 180.9485,-119.8595 176.1813,-100.2919 174.3812,-85.609"/>
<polygon fill="#191970" stroke="#191970" points="177.8586,-85.1963 173.5054,-75.5371 170.8849,-85.8027 177.8586,-85.1963"/>
</g>
<!-- Node12&#45;&gt;Node1 -->
<g id="edge18" class="edge">
<title>Node12&#45;&gt;Node1</title>
<path fill="none" stroke="#191970" d="M362.3834,-56.2455C349.1884,-47.6534 329.7584,-35.0014 314.5555,-25.1018"/>
<polygon fill="#191970" stroke="#191970" points="316.4617,-22.1665 306.1719,-19.6427 312.642,-28.0325 316.4617,-22.1665"/>
</g>
<!-- Node13&#45;&gt;Node1 -->
<g id="edge22" class="edge">
<title>Node13&#45;&gt;Node1</title>
<path fill="none" stroke="#191970" d="M248.5692,-112.2076C247.8642,-98.961 247.9022,-74.8251 255.3635,-56 259.6232,-45.2526 267.228,-34.9552 274.354,-26.8382"/>
<polygon fill="#191970" stroke="#191970" points="276.9234,-29.2148 281.1787,-19.5121 271.8014,-24.4434 276.9234,-29.2148"/>
</g>
<!-- Node14 -->
<g id="node15" class="node">
<title>Node14</title>
<g id="a_node15"><a xlink:href="assert_8h.html" target="_top" xlink:title="POSIX.1&#45;2008 compliant version of the assert macro. ">
<polygon fill="#ffffff" stroke="#000000" points="264.3635,-56.5 264.3635,-75.5 318.3635,-75.5 318.3635,-56.5 264.3635,-56.5"/>
<text text-anchor="middle" x="291.3635" y="-63.5" font-family="Helvetica,sans-Serif" font-size="10.00" fill="#000000">assert.h</text>
</a>
</g>
</g>
<!-- Node13&#45;&gt;Node14 -->
<g id="edge20" class="edge">
<title>Node13&#45;&gt;Node14</title>
<path fill="none" stroke="#191970" d="M256.6793,-112.2455C262.5814,-104.3761 271.0377,-93.101 278.1228,-83.6542"/>
<polygon fill="#191970" stroke="#191970" points="280.9314,-85.7427 284.1315,-75.6427 275.3314,-81.5427 280.9314,-85.7427"/>
</g>
<!-- Node14&#45;&gt;Node1 -->
<g id="edge21" class="edge">
<title>Node14&#45;&gt;Node1</title>
<path fill="none" stroke="#191970" d="M291.3635,-56.2455C291.3635,-48.9382 291.3635,-38.6944 291.3635,-29.7046"/>
<polygon fill="#191970" stroke="#191970" points="294.8636,-29.6426 291.3635,-19.6427 287.8636,-29.6427 294.8636,-29.6426"/>
</g>
<!-- Node15&#45;&gt;Node1 -->
<g id="edge25" class="edge">
<title>Node15&#45;&gt;Node1</title>
<path fill="none" stroke="#191970" d="M193.6484,-56.3733C212.5055,-47.4241 240.8094,-33.9917 262.109,-23.8835"/>
<polygon fill="#191970" stroke="#191970" points="263.8096,-26.9506 271.3432,-19.5011 260.8084,-20.6266 263.8096,-26.9506"/>
</g>
<!-- Node15&#45;&gt;Node6 -->
<g id="edge24" class="edge">
<title>Node15&#45;&gt;Node6</title>
<path fill="none" stroke="#191970" d="M151.7033,-56.3733C131.3863,-47.3435 100.7995,-33.7494 77.9885,-23.6111"/>
<polygon fill="#191970" stroke="#191970" points="79.3006,-20.3642 68.741,-19.5011 76.4576,-26.7609 79.3006,-20.3642"/>
</g>
</g>
</svg>
