<?xml version="1.0" encoding="UTF-8" standalone="no"?>
<!DOCTYPE svg PUBLIC "-//W3C//DTD SVG 1.1//EN"
 "http://www.w3.org/Graphics/SVG/1.1/DTD/svg11.dtd">
<!-- Generated by graphviz version 2.40.1 (0)
 -->
<!-- Title: drivers/include/ethos.h Pages: 1 -->
<svg width="1824pt" height="644pt"
 viewBox="0.00 0.00 1823.50 644.00" xmlns="http://www.w3.org/2000/svg" xmlns:xlink="http://www.w3.org/1999/xlink">
<g id="graph0" class="graph" transform="scale(1 1) rotate(0) translate(4 640)">
<title>drivers/include/ethos.h</title>
<polygon fill="#ffffff" stroke="transparent" points="-4,4 -4,-640 1819.5,-640 1819.5,4 -4,4"/>
<!-- Node0 -->
<g id="node1" class="node">
<title>Node0</title>
<polygon fill="#bfbfbf" stroke="#000000" points="646,-616.5 646,-635.5 771,-635.5 771,-616.5 646,-616.5"/>
<text text-anchor="middle" x="708.5" y="-623.5" font-family="Helvetica,sans-Serif" font-size="10.00" fill="#000000">drivers/include/ethos.h</text>
</g>
<!-- Node1 -->
<g id="node2" class="node">
<title>Node1</title>
<polygon fill="#ffffff" stroke="#bfbfbf" points="1406.5,-112.5 1406.5,-131.5 1466.5,-131.5 1466.5,-112.5 1406.5,-112.5"/>
<text text-anchor="middle" x="1436.5" y="-119.5" font-family="Helvetica,sans-Serif" font-size="10.00" fill="#000000">stdbool.h</text>
</g>
<!-- Node0&#45;&gt;Node1 -->
<g id="edge1" class="edge">
<title>Node0&#45;&gt;Node1</title>
<path fill="none" stroke="#191970" d="M713.1804,-616.3362C724.9287,-593.1382 758.0107,-534.0066 803.5,-504 1058.0872,-336.0636 1455.5,-594.9874 1455.5,-290 1455.5,-290 1455.5,-290 1455.5,-234 1455.5,-201.2688 1447.5148,-163.9052 1441.8978,-141.6716"/>
<polygon fill="#191970" stroke="#191970" points="1445.2289,-140.5763 1439.3035,-131.7934 1438.4585,-142.3545 1445.2289,-140.5763"/>
</g>
<!-- Node2 -->
<g id="node3" class="node">
<title>Node2</title>
<g id="a_node3"><a xlink:href="drivers_2include_2periph_2uart_8h.html" target="_top" xlink:title="Low&#45;level UART peripheral driver interface definition. ">
<polygon fill="#ffffff" stroke="#000000" points="168.5,-224.5 168.5,-243.5 248.5,-243.5 248.5,-224.5 168.5,-224.5"/>
<text text-anchor="middle" x="208.5" y="-231.5" font-family="Helvetica,sans-Serif" font-size="10.00" fill="#000000">periph/uart.h</text>
</a>
</g>
</g>
<!-- Node0&#45;&gt;Node2 -->
<g id="edge2" class="edge">
<title>Node0&#45;&gt;Node2</title>
<path fill="none" stroke="#191970" d="M645.6513,-623.4833C521.4541,-616.7907 256.5,-593.2285 256.5,-514 256.5,-514 256.5,-514 256.5,-346 256.5,-310.4341 235.7983,-273.2782 221.5855,-251.9597"/>
<polygon fill="#191970" stroke="#191970" points="224.3613,-249.8202 215.7902,-243.5923 218.6067,-253.8059 224.3613,-249.8202"/>
</g>
<!-- Node9 -->
<g id="node10" class="node">
<title>Node9</title>
<g id="a_node10"><a xlink:href="drivers_2include_2net_2netdev_8h.html" target="_top" xlink:title="Definitions low&#45;level network driver interface. ">
<polygon fill="#ffffff" stroke="#000000" points="393,-280.5 393,-299.5 470,-299.5 470,-280.5 393,-280.5"/>
<text text-anchor="middle" x="431.5" y="-287.5" font-family="Helvetica,sans-Serif" font-size="10.00" fill="#000000">net/netdev.h</text>
</a>
</g>
</g>
<!-- Node0&#45;&gt;Node9 -->
<g id="edge9" class="edge">
<title>Node0&#45;&gt;Node9</title>
<path fill="none" stroke="#191970" d="M657.7789,-616.4691C605.4757,-603.3608 531.5,-574.183 531.5,-514 531.5,-514 531.5,-514 531.5,-402 531.5,-358.0606 488.1447,-323.4269 458.5285,-304.8942"/>
<polygon fill="#191970" stroke="#191970" points="460.2145,-301.824 449.8415,-299.6672 456.6055,-307.8219 460.2145,-301.824"/>
</g>
<!-- Node14 -->
<g id="node15" class="node">
<title>Node14</title>
<g id="a_node15"><a xlink:href="kernel__defines_8h.html" target="_top" xlink:title="Common macros and compiler attributes/pragmas configuration. ">
<polygon fill="#ffffff" stroke="#000000" points="617,-168.5 617,-187.5 712,-187.5 712,-168.5 617,-168.5"/>
<text text-anchor="middle" x="664.5" y="-175.5" font-family="Helvetica,sans-Serif" font-size="10.00" fill="#000000">kernel_defines.h</text>
</a>
</g>
</g>
<!-- Node0&#45;&gt;Node14 -->
<g id="edge72" class="edge">
<title>Node0&#45;&gt;Node14</title>
<path fill="none" stroke="#191970" d="M702.893,-616.4834C692.3226,-597.6141 670.5,-553.8343 670.5,-514 670.5,-514 670.5,-514 670.5,-290 670.5,-257.6653 667.9755,-220.1547 666.2016,-197.7876"/>
<polygon fill="#191970" stroke="#191970" points="669.6698,-197.2576 665.3597,-187.5791 662.6935,-197.833 669.6698,-197.2576"/>
</g>
<!-- Node20 -->
<g id="node21" class="node">
<title>Node20</title>
<g id="a_node21"><a xlink:href="tsrb_8h.html" target="_top" xlink:title="Thread&#45;safe ringbuffer interface definition. ">
<polygon fill="#ffffff" stroke="#000000" points="1657.5,-224.5 1657.5,-243.5 1701.5,-243.5 1701.5,-224.5 1657.5,-224.5"/>
<text text-anchor="middle" x="1679.5" y="-231.5" font-family="Helvetica,sans-Serif" font-size="10.00" fill="#000000">tsrb.h</text>
</a>
</g>
</g>
<!-- Node0&#45;&gt;Node20 -->
<g id="edge33" class="edge">
<title>Node0&#45;&gt;Node20</title>
<path fill="none" stroke="#191970" d="M771.1889,-622.9714C1005.3678,-611.2502 1815.5,-566.8799 1815.5,-514 1815.5,-514 1815.5,-514 1815.5,-346 1815.5,-292.2838 1751.4981,-259.5593 1711.3055,-244.3046"/>
<polygon fill="#191970" stroke="#191970" points="1712.2476,-240.9232 1701.6534,-240.8005 1709.8588,-247.503 1712.2476,-240.9232"/>
</g>
<!-- Node23 -->
<g id="node24" class="node">
<title>Node23</title>
<g id="a_node24"><a xlink:href="mutex_8h.html" target="_top" xlink:title="Mutex for thread synchronization. ">
<polygon fill="#ffffff" stroke="#000000" points="952.5,-392.5 952.5,-411.5 1008.5,-411.5 1008.5,-392.5 952.5,-392.5"/>
<text text-anchor="middle" x="980.5" y="-399.5" font-family="Helvetica,sans-Serif" font-size="10.00" fill="#000000">mutex.h</text>
</a>
</g>
</g>
<!-- Node0&#45;&gt;Node23 -->
<g id="edge40" class="edge">
<title>Node0&#45;&gt;Node23</title>
<path fill="none" stroke="#191970" d="M708.7657,-616.1126C710.1412,-585.8962 718.6025,-494.0374 770.5,-448 795.5629,-425.7671 888.7537,-412.0944 942.1907,-405.9099"/>
<polygon fill="#191970" stroke="#191970" points="942.7693,-409.367 952.3161,-404.7725 941.9879,-402.4107 942.7693,-409.367"/>
</g>
<!-- Node36 -->
<g id="node37" class="node">
<title>Node36</title>
<g id="a_node37"><a xlink:href="stdio__uart_8h.html" target="_top" xlink:title="stdio_uart.h">
<polygon fill="#ffffff" stroke="#000000" points="813.5,-560.5 813.5,-579.5 885.5,-579.5 885.5,-560.5 813.5,-560.5"/>
<text text-anchor="middle" x="849.5" y="-567.5" font-family="Helvetica,sans-Serif" font-size="10.00" fill="#000000">stdio_uart.h</text>
</a>
</g>
</g>
<!-- Node0&#45;&gt;Node36 -->
<g id="edge73" class="edge">
<title>Node0&#45;&gt;Node36</title>
<path fill="none" stroke="#191970" d="M732.7388,-616.3733C755.7789,-607.2226 790.6214,-593.3844 816.2501,-583.2057"/>
<polygon fill="#191970" stroke="#191970" points="817.5756,-586.4452 825.5775,-579.5011 814.9918,-579.9395 817.5756,-586.4452"/>
</g>
<!-- Node3 -->
<g id="node4" class="node">
<title>Node3</title>
<g id="a_node4"><a xlink:href="errno_8h.html" target="_top" xlink:title="errno.h">
<polygon fill="#ffffff" stroke="#000000" points="233,-168.5 233,-187.5 286,-187.5 286,-168.5 233,-168.5"/>
<text text-anchor="middle" x="259.5" y="-175.5" font-family="Helvetica,sans-Serif" font-size="10.00" fill="#000000">errno.h</text>
</a>
</g>
</g>
<!-- Node2&#45;&gt;Node3 -->
<g id="edge3" class="edge">
<title>Node2&#45;&gt;Node3</title>
<path fill="none" stroke="#191970" d="M217.3835,-224.2455C224.6966,-216.2155 235.2391,-204.6394 243.9467,-195.0781"/>
<polygon fill="#191970" stroke="#191970" points="246.5727,-197.3928 250.7183,-187.6427 241.3972,-192.6795 246.5727,-197.3928"/>
</g>
<!-- Node4 -->
<g id="node5" class="node">
<title>Node4</title>
<polygon fill="#ffffff" stroke="#bfbfbf" points="548.5,-168.5 548.5,-187.5 598.5,-187.5 598.5,-168.5 548.5,-168.5"/>
<text text-anchor="middle" x="573.5" y="-175.5" font-family="Helvetica,sans-Serif" font-size="10.00" fill="#000000">limits.h</text>
</g>
<!-- Node2&#45;&gt;Node4 -->
<g id="edge4" class="edge">
<title>Node2&#45;&gt;Node4</title>
<path fill="none" stroke="#191970" d="M248.5753,-230.3634C309.3301,-224.4302 428.4622,-211.1555 538.4261,-187.9723"/>
<polygon fill="#191970" stroke="#191970" points="539.3102,-191.3624 548.3557,-185.846 537.8445,-184.5175 539.3102,-191.3624"/>
</g>
<!-- Node5 -->
<g id="node6" class="node">
<title>Node5</title>
<polygon fill="#ffffff" stroke="#bfbfbf" points="873.5,-56.5 873.5,-75.5 929.5,-75.5 929.5,-56.5 873.5,-56.5"/>
<text text-anchor="middle" x="901.5" y="-63.5" font-family="Helvetica,sans-Serif" font-size="10.00" fill="#000000">stddef.h</text>
</g>
<!-- Node2&#45;&gt;Node5 -->
<g id="edge5" class="edge">
<title>Node2&#45;&gt;Node5</title>
<path fill="none" stroke="#191970" d="M248.5756,-227.6105C288.9799,-220.4846 352.744,-207.3545 405.5,-188 423.7878,-181.2908 426.3527,-175.0805 444.5,-168 500.3516,-146.2085 518.3338,-152.9673 574.5,-132 593.8694,-124.7693 596.762,-118.1537 616.5,-112 702.3563,-85.2324 807.8731,-73.3894 863.3093,-68.6997"/>
<polygon fill="#191970" stroke="#191970" points="863.7018,-72.1795 873.385,-67.8801 863.1341,-65.2025 863.7018,-72.1795"/>
</g>
<!-- Node6 -->
<g id="node7" class="node">
<title>Node6</title>
<polygon fill="#ffffff" stroke="#bfbfbf" points="742.5,-.5 742.5,-19.5 794.5,-19.5 794.5,-.5 742.5,-.5"/>
<text text-anchor="middle" x="768.5" y="-7.5" font-family="Helvetica,sans-Serif" font-size="10.00" fill="#000000">stdint.h</text>
</g>
<!-- Node2&#45;&gt;Node6 -->
<g id="edge6" class="edge">
<title>Node2&#45;&gt;Node6</title>
<path fill="none" stroke="#191970" d="M209.5479,-224.2421C211.2238,-211.0347 215.2018,-186.9431 223.5,-168 247.7383,-112.6692 248.4798,-86.7065 300.5,-56 337.3802,-34.2303 628.2012,-17.2444 731.914,-11.8251"/>
<polygon fill="#191970" stroke="#191970" points="732.3964,-15.3049 742.2024,-11.2935 732.0351,-8.3142 732.3964,-15.3049"/>
</g>
<!-- Node7 -->
<g id="node8" class="node">
<title>Node7</title>
<polygon fill="#ffffff" stroke="#bfbfbf" points="99,-168.5 99,-187.5 176,-187.5 176,-168.5 99,-168.5"/>
<text text-anchor="middle" x="137.5" y="-175.5" font-family="Helvetica,sans-Serif" font-size="10.00" fill="#000000">periph_cpu.h</text>
</g>
<!-- Node2&#45;&gt;Node7 -->
<g id="edge7" class="edge">
<title>Node2&#45;&gt;Node7</title>
<path fill="none" stroke="#191970" d="M196.1327,-224.2455C185.5446,-215.8943 170.0936,-203.7076 157.7107,-193.9408"/>
<polygon fill="#191970" stroke="#191970" points="159.7447,-191.0875 149.7255,-187.6427 155.4097,-196.5837 159.7447,-191.0875"/>
</g>
<!-- Node8 -->
<g id="node9" class="node">
<title>Node8</title>
<polygon fill="#ffffff" stroke="#bfbfbf" points="0,-168.5 0,-187.5 81,-187.5 81,-168.5 0,-168.5"/>
<text text-anchor="middle" x="40.5" y="-175.5" font-family="Helvetica,sans-Serif" font-size="10.00" fill="#000000">periph_conf.h</text>
</g>
<!-- Node2&#45;&gt;Node8 -->
<g id="edge8" class="edge">
<title>Node2&#45;&gt;Node8</title>
<path fill="none" stroke="#191970" d="M179.6198,-224.3733C151.6839,-215.0613 109.1858,-200.8953 78.5131,-190.671"/>
<polygon fill="#191970" stroke="#191970" points="79.597,-187.3431 69.0034,-187.5011 77.3834,-193.9839 79.597,-187.3431"/>
</g>
<!-- Node9&#45;&gt;Node3 -->
<g id="edge11" class="edge">
<title>Node9&#45;&gt;Node3</title>
<path fill="none" stroke="#191970" d="M392.8794,-283.5699C364.8438,-277.3172 327.2882,-265.4996 300.5,-244 285.093,-231.6347 273.8957,-211.817 267.1339,-197.1205"/>
<polygon fill="#191970" stroke="#191970" points="270.1641,-195.3073 262.9975,-187.5041 263.7338,-198.0733 270.1641,-195.3073"/>
</g>
<!-- Node9&#45;&gt;Node6 -->
<g id="edge10" class="edge">
<title>Node9&#45;&gt;Node6</title>
<path fill="none" stroke="#191970" d="M408.3846,-280.4252C374.2872,-264.5793 314.5,-229.458 314.5,-178 314.5,-178 314.5,-178 314.5,-122 314.5,-36.0682 624.9699,-15.6682 732.4205,-11.1811"/>
<polygon fill="#191970" stroke="#191970" points="732.6065,-14.6766 742.4604,-10.7839 732.3298,-7.682 732.6065,-14.6766"/>
</g>
<!-- Node10 -->
<g id="node11" class="node">
<title>Node10</title>
<g id="a_node11"><a xlink:href="iolist_8h.html" target="_top" xlink:title="iolist scatter / gather IO ">
<polygon fill="#ffffff" stroke="#000000" points="381,-224.5 381,-243.5 428,-243.5 428,-224.5 381,-224.5"/>
<text text-anchor="middle" x="404.5" y="-231.5" font-family="Helvetica,sans-Serif" font-size="10.00" fill="#000000">iolist.h</text>
</a>
</g>
</g>
<!-- Node9&#45;&gt;Node10 -->
<g id="edge12" class="edge">
<title>Node9&#45;&gt;Node10</title>
<path fill="none" stroke="#191970" d="M426.797,-280.2455C423.1576,-272.6973 418.0076,-262.0158 413.5738,-252.8197"/>
<polygon fill="#191970" stroke="#191970" points="416.6449,-251.1303 409.1491,-243.6427 410.3395,-254.1704 416.6449,-251.1303"/>
</g>
<!-- Node13 -->
<g id="node14" class="node">
<title>Node13</title>
<g id="a_node14"><a xlink:href="netopt_8h.html" target="_top" xlink:title="Definition of global configuration options. ">
<polygon fill="#ffffff" stroke="#000000" points="453,-168.5 453,-187.5 530,-187.5 530,-168.5 453,-168.5"/>
<text text-anchor="middle" x="491.5" y="-175.5" font-family="Helvetica,sans-Serif" font-size="10.00" fill="#000000">net/netopt.h</text>
</a>
</g>
</g>
<!-- Node9&#45;&gt;Node13 -->
<g id="edge19" class="edge">
<title>Node9&#45;&gt;Node13</title>
<path fill="none" stroke="#191970" d="M436.6156,-280.4509C446.5786,-261.8533 468.7365,-220.4919 481.6448,-196.3964"/>
<polygon fill="#191970" stroke="#191970" points="484.7603,-197.9925 486.3974,-187.5249 478.5899,-194.6869 484.7603,-197.9925"/>
</g>
<!-- Node9&#45;&gt;Node14 -->
<g id="edge22" class="edge">
<title>Node9&#45;&gt;Node14</title>
<path fill="none" stroke="#191970" d="M451.3654,-280.4509C492.5485,-260.6548 587.3889,-215.0663 635.4504,-191.9638"/>
<polygon fill="#191970" stroke="#191970" points="637.1883,-195.0118 644.6848,-187.5249 634.1557,-188.7028 637.1883,-195.0118"/>
</g>
<!-- Node11 -->
<g id="node12" class="node">
<title>Node11</title>
<g id="a_node12"><a xlink:href="unistd_8h_source.html" target="_top" xlink:title="unistd.h">
<polygon fill="#ffffff" stroke="#000000" points="342.5,-168.5 342.5,-187.5 396.5,-187.5 396.5,-168.5 342.5,-168.5"/>
<text text-anchor="middle" x="369.5" y="-175.5" font-family="Helvetica,sans-Serif" font-size="10.00" fill="#000000">unistd.h</text>
</a>
</g>
</g>
<!-- Node10&#45;&gt;Node11 -->
<g id="edge13" class="edge">
<title>Node10&#45;&gt;Node11</title>
<path fill="none" stroke="#191970" d="M398.4035,-224.2455C393.5855,-216.5367 386.7249,-205.5598 380.8968,-196.2348"/>
<polygon fill="#191970" stroke="#191970" points="383.7947,-194.2677 375.5267,-187.6427 377.8587,-197.9777 383.7947,-194.2677"/>
</g>
<!-- Node11&#45;&gt;Node5 -->
<g id="edge14" class="edge">
<title>Node11&#45;&gt;Node5</title>
<path fill="none" stroke="#191970" d="M396.6752,-171.2508C437.6407,-160.9742 513.2179,-141.588 539.5,-132 559.3007,-124.7765 562.2986,-118.0126 582.5,-112 680.9017,-82.7124 802.12,-71.7771 862.8986,-67.9319"/>
<polygon fill="#191970" stroke="#191970" points="863.403,-71.408 873.1746,-67.3136 862.9824,-64.4206 863.403,-71.408"/>
</g>
<!-- Node11&#45;&gt;Node6 -->
<g id="edge15" class="edge">
<title>Node11&#45;&gt;Node6</title>
<path fill="none" stroke="#191970" d="M372.4324,-168.3825C380.1832,-144.7569 403.6174,-83.7803 446.5,-56 493.0279,-25.8582 657.5981,-14.893 731.7718,-11.4193"/>
<polygon fill="#191970" stroke="#191970" points="732.2014,-14.9036 742.0348,-10.9597 731.8882,-7.9106 732.2014,-14.9036"/>
</g>
<!-- Node12 -->
<g id="node13" class="node">
<title>Node12</title>
<g id="a_node13"><a xlink:href="cpu_2avr8__common_2avr__libc__extra_2include_2sys_2types_8h_source.html" target="_top" xlink:title="sys/types.h">
<polygon fill="#ffffff" stroke="#000000" points="461,-112.5 461,-131.5 530,-131.5 530,-112.5 461,-112.5"/>
<text text-anchor="middle" x="495.5" y="-119.5" font-family="Helvetica,sans-Serif" font-size="10.00" fill="#000000">sys/types.h</text>
</a>
</g>
</g>
<!-- Node11&#45;&gt;Node12 -->
<g id="edge16" class="edge">
<title>Node11&#45;&gt;Node12</title>
<path fill="none" stroke="#191970" d="M391.1602,-168.3733C411.4772,-159.3435 442.064,-145.7494 464.875,-135.6111"/>
<polygon fill="#191970" stroke="#191970" points="466.4059,-138.7609 474.1225,-131.5011 463.5628,-132.3642 466.4059,-138.7609"/>
</g>
<!-- Node12&#45;&gt;Node5 -->
<g id="edge18" class="edge">
<title>Node12&#45;&gt;Node5</title>
<path fill="none" stroke="#191970" d="M530.2403,-114.5832C535.021,-113.6583 539.875,-112.7688 544.5,-112 659.8296,-92.8279 797.2561,-77.1105 862.8887,-70.0377"/>
<polygon fill="#191970" stroke="#191970" points="863.5956,-73.4822 873.1663,-68.9378 862.8506,-66.5219 863.5956,-73.4822"/>
</g>
<!-- Node12&#45;&gt;Node6 -->
<g id="edge17" class="edge">
<title>Node12&#45;&gt;Node6</title>
<path fill="none" stroke="#191970" d="M518.7758,-112.4509C567.4318,-92.4895 680.0112,-46.3031 735.8625,-23.3897"/>
<polygon fill="#191970" stroke="#191970" points="737.3599,-26.5586 745.2831,-19.5249 734.7029,-20.0824 737.3599,-26.5586"/>
</g>
<!-- Node13&#45;&gt;Node1 -->
<g id="edge21" class="edge">
<title>Node13&#45;&gt;Node1</title>
<path fill="none" stroke="#191970" d="M530.1817,-169.3751C533.324,-168.8474 536.459,-168.378 539.5,-168 914.9253,-121.3351 1018.1093,-186.5375 1396.2687,-131.8654"/>
<polygon fill="#191970" stroke="#191970" points="1397.0061,-135.2948 1406.3933,-130.3826 1395.9917,-128.3687 1397.0061,-135.2948"/>
</g>
<!-- Node13&#45;&gt;Node6 -->
<g id="edge20" class="edge">
<title>Node13&#45;&gt;Node6</title>
<path fill="none" stroke="#191970" d="M476.1926,-168.4046C464.7963,-160.2816 450.1141,-147.4994 443.5,-132 429.2471,-98.5998 443.8781,-77.0062 473.5,-56 514.5216,-26.9098 662.8381,-15.4908 732.2305,-11.6673"/>
<polygon fill="#191970" stroke="#191970" points="732.4667,-15.1598 742.2681,-11.1372 732.0974,-8.1696 732.4667,-15.1598"/>
</g>
<!-- Node15 -->
<g id="node16" class="node">
<title>Node15</title>
<g id="a_node16"><a xlink:href="modules_8h.html" target="_top" xlink:title="Common macros and compiler attributes/pragmas configuration. ">
<polygon fill="#ffffff" stroke="#000000" points="712,-112.5 712,-131.5 777,-131.5 777,-112.5 712,-112.5"/>
<text text-anchor="middle" x="744.5" y="-119.5" font-family="Helvetica,sans-Serif" font-size="10.00" fill="#000000">modules.h</text>
</a>
</g>
</g>
<!-- Node14&#45;&gt;Node15 -->
<g id="edge23" class="edge">
<title>Node14&#45;&gt;Node15</title>
<path fill="none" stroke="#191970" d="M678.4349,-168.2455C690.5947,-159.7337 708.4464,-147.2375 722.5285,-137.3801"/>
<polygon fill="#191970" stroke="#191970" points="724.5395,-140.2447 730.7248,-131.6427 720.5253,-134.51 724.5395,-140.2447"/>
</g>
<!-- Node16 -->
<g id="node17" class="node">
<title>Node16</title>
<g id="a_node17"><a xlink:href="riot__version_8h.html" target="_top" xlink:title="Common macros and compiler attributes/pragmas configuration. ">
<polygon fill="#ffffff" stroke="#000000" points="482,-56.5 482,-75.5 563,-75.5 563,-56.5 482,-56.5"/>
<text text-anchor="middle" x="522.5" y="-63.5" font-family="Helvetica,sans-Serif" font-size="10.00" fill="#000000">riot_version.h</text>
</a>
</g>
</g>
<!-- Node14&#45;&gt;Node16 -->
<g id="edge24" class="edge">
<title>Node14&#45;&gt;Node16</title>
<path fill="none" stroke="#191970" d="M616.8537,-169.2208C555.9536,-157.7735 457.7007,-138.4502 452.5,-132 436.5333,-112.1973 464.3383,-92.5977 489.4855,-79.968"/>
<polygon fill="#191970" stroke="#191970" points="491.0279,-83.1101 498.544,-75.6429 488.0118,-76.7932 491.0279,-83.1101"/>
</g>
<!-- Node17 -->
<g id="node18" class="node">
<title>Node17</title>
<g id="a_node18"><a xlink:href="compiler__hints_8h.html" target="_top" xlink:title="Common macros and compiler attributes/pragmas configuration. ">
<polygon fill="#ffffff" stroke="#000000" points="1295,-112.5 1295,-131.5 1388,-131.5 1388,-112.5 1295,-112.5"/>
<text text-anchor="middle" x="1341.5" y="-119.5" font-family="Helvetica,sans-Serif" font-size="10.00" fill="#000000">compiler_hints.h</text>
</a>
</g>
</g>
<!-- Node14&#45;&gt;Node17 -->
<g id="edge26" class="edge">
<title>Node14&#45;&gt;Node17</title>
<path fill="none" stroke="#191970" d="M712.1053,-174.0622C833.4238,-164.027 1153.8191,-137.5246 1284.6423,-126.7031"/>
<polygon fill="#191970" stroke="#191970" points="1285.1687,-130.1717 1294.8461,-125.8591 1284.5916,-123.1955 1285.1687,-130.1717"/>
</g>
<!-- Node19 -->
<g id="node20" class="node">
<title>Node19</title>
<g id="a_node20"><a xlink:href="container_8h.html" target="_top" xlink:title="Common macros and compiler attributes/pragmas configuration. ">
<polygon fill="#ffffff" stroke="#000000" points="625,-112.5 625,-131.5 694,-131.5 694,-112.5 625,-112.5"/>
<text text-anchor="middle" x="659.5" y="-119.5" font-family="Helvetica,sans-Serif" font-size="10.00" fill="#000000">container.h</text>
</a>
</g>
</g>
<!-- Node14&#45;&gt;Node19 -->
<g id="edge30" class="edge">
<title>Node14&#45;&gt;Node19</title>
<path fill="none" stroke="#191970" d="M663.6291,-168.2455C662.9766,-160.9382 662.062,-150.6944 661.2593,-141.7046"/>
<polygon fill="#191970" stroke="#191970" points="664.7365,-141.2918 660.361,-131.6427 657.7642,-141.9143 664.7365,-141.2918"/>
</g>
<!-- Node16&#45;&gt;Node6 -->
<g id="edge25" class="edge">
<title>Node16&#45;&gt;Node6</title>
<path fill="none" stroke="#191970" d="M563.1219,-56.7527C610.2189,-46.0315 687.1379,-28.5215 732.2768,-18.2459"/>
<polygon fill="#191970" stroke="#191970" points="733.2438,-21.6154 742.2174,-15.983 731.69,-14.79 733.2438,-21.6154"/>
</g>
<!-- Node17&#45;&gt;Node6 -->
<g id="edge29" class="edge">
<title>Node17&#45;&gt;Node6</title>
<path fill="none" stroke="#191970" d="M1335.8517,-112.2818C1326.5031,-97.2241 1306.2608,-68.6727 1280.5,-56 1238.0683,-35.1263 914.9608,-17.286 805.004,-11.7637"/>
<polygon fill="#191970" stroke="#191970" points="804.9083,-8.2547 794.7467,-11.2533 804.5604,-15.246 804.9083,-8.2547"/>
</g>
<!-- Node18 -->
<g id="node19" class="node">
<title>Node18</title>
<g id="a_node19"><a xlink:href="assert_8h.html" target="_top" xlink:title="POSIX.1&#45;2008 compliant version of the assert macro. ">
<polygon fill="#ffffff" stroke="#000000" points="1474.5,-56.5 1474.5,-75.5 1528.5,-75.5 1528.5,-56.5 1474.5,-56.5"/>
<text text-anchor="middle" x="1501.5" y="-63.5" font-family="Helvetica,sans-Serif" font-size="10.00" fill="#000000">assert.h</text>
</a>
</g>
</g>
<!-- Node17&#45;&gt;Node18 -->
<g id="edge27" class="edge">
<title>Node17&#45;&gt;Node18</title>
<path fill="none" stroke="#191970" d="M1369.005,-112.3733C1395.3802,-103.1419 1435.3851,-89.1402 1464.5358,-78.9375"/>
<polygon fill="#191970" stroke="#191970" points="1466.0716,-82.1082 1474.3539,-75.5011 1463.7591,-75.5012 1466.0716,-82.1082"/>
</g>
<!-- Node18&#45;&gt;Node6 -->
<g id="edge28" class="edge">
<title>Node18&#45;&gt;Node6</title>
<path fill="none" stroke="#191970" d="M1474.1033,-63.9069C1361.357,-55.2933 933.1302,-22.5775 804.958,-12.7853"/>
<polygon fill="#191970" stroke="#191970" points="805.111,-9.2869 794.8734,-12.0149 804.5777,-16.2666 805.111,-9.2869"/>
</g>
<!-- Node19&#45;&gt;Node5 -->
<g id="edge31" class="edge">
<title>Node19&#45;&gt;Node5</title>
<path fill="none" stroke="#191970" d="M694.1727,-113.9766C739.0078,-103.6015 816.8385,-85.5911 863.3206,-74.8349"/>
<polygon fill="#191970" stroke="#191970" points="864.3477,-78.1898 873.3012,-72.5254 862.7695,-71.37 864.3477,-78.1898"/>
</g>
<!-- Node19&#45;&gt;Node6 -->
<g id="edge32" class="edge">
<title>Node19&#45;&gt;Node6</title>
<path fill="none" stroke="#191970" d="M668.7933,-112.4509C687.2949,-93.4401 728.9463,-50.6423 752.1344,-26.816"/>
<polygon fill="#191970" stroke="#191970" points="754.764,-29.1324 759.2302,-19.5249 749.7475,-24.2502 754.764,-29.1324"/>
</g>
<!-- Node20&#45;&gt;Node5 -->
<g id="edge35" class="edge">
<title>Node20&#45;&gt;Node5</title>
<path fill="none" stroke="#191970" d="M1674.1182,-224.4441C1659.9821,-200.4082 1619.1585,-137.5389 1565.5,-112 1508.9918,-85.1048 1072.6338,-70.788 939.7672,-67.0208"/>
<polygon fill="#191970" stroke="#191970" points="939.7479,-63.519 929.6539,-66.7379 939.5521,-70.5162 939.7479,-63.519"/>
</g>
<!-- Node20&#45;&gt;Node6 -->
<g id="edge36" class="edge">
<title>Node20&#45;&gt;Node6</title>
<path fill="none" stroke="#191970" d="M1681.1586,-224.1657C1682.6359,-214.8764 1684.6858,-200.5375 1685.5,-188 1687.8044,-152.5164 1685.5508,-137.2359 1660.5,-112 1618.1836,-69.371 1595.794,-70.4815 1537.5,-56 1395.9568,-20.8375 937.4563,-12.2009 804.7781,-10.4142"/>
<polygon fill="#191970" stroke="#191970" points="804.7731,-6.9139 794.7285,-10.2837 804.6821,-13.9133 804.7731,-6.9139"/>
</g>
<!-- Node20&#45;&gt;Node18 -->
<g id="edge34" class="edge">
<title>Node20&#45;&gt;Node18</title>
<path fill="none" stroke="#191970" d="M1679.1509,-224.2654C1677.8033,-201.4243 1671.2594,-143.9163 1639.5,-112 1612.6128,-84.98 1569.4584,-73.8311 1538.5657,-69.231"/>
<polygon fill="#191970" stroke="#191970" points="1538.9739,-65.7546 1528.6004,-67.9086 1538.053,-72.6938 1538.9739,-65.7546"/>
</g>
<!-- Node21 -->
<g id="node22" class="node">
<title>Node21</title>
<g id="a_node22"><a xlink:href="irq_8h.html" target="_top" xlink:title="IRQ driver interface. ">
<polygon fill="#ffffff" stroke="#000000" points="1521.5,-168.5 1521.5,-187.5 1559.5,-187.5 1559.5,-168.5 1521.5,-168.5"/>
<text text-anchor="middle" x="1540.5" y="-175.5" font-family="Helvetica,sans-Serif" font-size="10.00" fill="#000000">irq.h</text>
</a>
</g>
</g>
<!-- Node20&#45;&gt;Node21 -->
<g id="edge37" class="edge">
<title>Node20&#45;&gt;Node21</title>
<path fill="none" stroke="#191970" d="M1657.475,-225.1266C1633.5815,-215.5005 1595.3478,-200.097 1569.1377,-189.5375"/>
<polygon fill="#191970" stroke="#191970" points="1570.3196,-186.2403 1559.7361,-185.7498 1567.7037,-192.7332 1570.3196,-186.2403"/>
</g>
<!-- Node21&#45;&gt;Node1 -->
<g id="edge38" class="edge">
<title>Node21&#45;&gt;Node1</title>
<path fill="none" stroke="#191970" d="M1522.3846,-168.2455C1506.055,-159.4527 1481.829,-146.4079 1463.2661,-136.4125"/>
<polygon fill="#191970" stroke="#191970" points="1464.8719,-133.3021 1454.4078,-131.6427 1461.5532,-139.4654 1464.8719,-133.3021"/>
</g>
<!-- Node22 -->
<g id="node23" class="node">
<title>Node22</title>
<polygon fill="#ffffff" stroke="#bfbfbf" points="1489,-112.5 1489,-131.5 1556,-131.5 1556,-112.5 1489,-112.5"/>
<text text-anchor="middle" x="1522.5" y="-119.5" font-family="Helvetica,sans-Serif" font-size="10.00" fill="#000000">cpu_conf.h</text>
</g>
<!-- Node21&#45;&gt;Node22 -->
<g id="edge39" class="edge">
<title>Node21&#45;&gt;Node22</title>
<path fill="none" stroke="#191970" d="M1537.3646,-168.2455C1534.99,-160.8579 1531.6507,-150.4689 1528.7385,-141.4087"/>
<polygon fill="#191970" stroke="#191970" points="1531.9917,-140.0919 1525.5994,-131.6427 1525.3275,-142.234 1531.9917,-140.0919"/>
</g>
<!-- Node23&#45;&gt;Node1 -->
<g id="edge43" class="edge">
<title>Node23&#45;&gt;Node1</title>
<path fill="none" stroke="#191970" d="M1008.5011,-400.8788C1104.9516,-396.267 1417.5,-374.7816 1417.5,-290 1417.5,-290 1417.5,-290 1417.5,-234 1417.5,-201.2688 1425.4852,-163.9052 1431.1022,-141.6716"/>
<polygon fill="#191970" stroke="#191970" points="1434.5415,-142.3545 1433.6965,-131.7934 1427.7711,-140.5763 1434.5415,-142.3545"/>
</g>
<!-- Node23&#45;&gt;Node5 -->
<g id="edge41" class="edge">
<title>Node23&#45;&gt;Node5</title>
<path fill="none" stroke="#191970" d="M974.893,-392.4834C964.3226,-373.6141 942.5,-329.8343 942.5,-290 942.5,-290 942.5,-290 942.5,-178 942.5,-143.3444 924.9755,-106.1312 912.8408,-84.5174"/>
<polygon fill="#191970" stroke="#191970" points="915.7886,-82.6243 907.727,-75.7496 909.7419,-86.1511 915.7886,-82.6243"/>
</g>
<!-- Node23&#45;&gt;Node6 -->
<g id="edge42" class="edge">
<title>Node23&#45;&gt;Node6</title>
<path fill="none" stroke="#191970" d="M1008.7704,-399.8428C1072.8143,-394.692 1233.7228,-380.2648 1366.5,-356 1524.6687,-327.095 1624.5681,-379.899 1710.5,-244 1718.756,-230.9434 1706.6785,-195.8253 1699.5,-168 1692.9694,-142.6858 1697.7806,-132.4548 1681.5,-112 1651.2158,-73.9512 1634.0049,-70.2175 1587.5,-56 1512.0995,-32.9486 954.2565,-15.3554 805.0901,-11.0274"/>
<polygon fill="#191970" stroke="#191970" points="804.7698,-7.5168 794.6732,-10.7275 804.5683,-14.5139 804.7698,-7.5168"/>
</g>
<!-- Node23&#45;&gt;Node14 -->
<g id="edge49" class="edge">
<title>Node23&#45;&gt;Node14</title>
<path fill="none" stroke="#191970" d="M965.1096,-392.3625C950.6225,-383.2124 928.3896,-368.9675 909.5,-356 824.925,-297.9403 726.9453,-224.9792 685.1276,-193.5611"/>
<polygon fill="#191970" stroke="#191970" points="687.1768,-190.7229 677.0816,-187.5077 682.9683,-196.3166 687.1768,-190.7229"/>
</g>
<!-- Node24 -->
<g id="node25" class="node">
<title>Node24</title>
<g id="a_node25"><a xlink:href="architecture_8h.html" target="_top" xlink:title="Platform&#45;independent access to architecture details. ">
<polygon fill="#ffffff" stroke="#000000" points="819,-224.5 819,-243.5 902,-243.5 902,-224.5 819,-224.5"/>
<text text-anchor="middle" x="860.5" y="-231.5" font-family="Helvetica,sans-Serif" font-size="10.00" fill="#000000">architecture.h</text>
</a>
</g>
</g>
<!-- Node23&#45;&gt;Node24 -->
<g id="edge44" class="edge">
<title>Node23&#45;&gt;Node24</title>
<path fill="none" stroke="#191970" d="M967.413,-392.4604C956.1633,-383.8147 939.9846,-370.2743 928.5,-356 901.8993,-322.9377 879.8903,-278.0671 868.6258,-252.9824"/>
<polygon fill="#191970" stroke="#191970" points="871.7017,-251.282 864.474,-243.5353 865.2932,-254.0984 871.7017,-251.282"/>
</g>
<!-- Node27 -->
<g id="node28" class="node">
<title>Node27</title>
<g id="a_node28"><a xlink:href="list_8h.html" target="_top" xlink:title="Intrusive linked list. ">
<polygon fill="#ffffff" stroke="#000000" points="970.5,-112.5 970.5,-131.5 1008.5,-131.5 1008.5,-112.5 970.5,-112.5"/>
<text text-anchor="middle" x="989.5" y="-119.5" font-family="Helvetica,sans-Serif" font-size="10.00" fill="#000000">list.h</text>
</a>
</g>
</g>
<!-- Node23&#45;&gt;Node27 -->
<g id="edge50" class="edge">
<title>Node23&#45;&gt;Node27</title>
<path fill="none" stroke="#191970" d="M980.5,-392.4116C980.5,-373.0538 980.5,-327.9167 980.5,-290 980.5,-290 980.5,-290 980.5,-234 980.5,-201.6075 984.2867,-164.1141 986.9477,-141.7662"/>
<polygon fill="#191970" stroke="#191970" points="990.455,-141.9219 988.2105,-131.5676 983.5081,-141.0616 990.455,-141.9219"/>
</g>
<!-- Node28 -->
<g id="node29" class="node">
<title>Node28</title>
<g id="a_node29"><a xlink:href="core_2include_2thread_8h.html" target="_top" xlink:title="Threading API. ">
<polygon fill="#ffffff" stroke="#000000" points="1091,-336.5 1091,-355.5 1148,-355.5 1148,-336.5 1091,-336.5"/>
<text text-anchor="middle" x="1119.5" y="-343.5" font-family="Helvetica,sans-Serif" font-size="10.00" fill="#000000">thread.h</text>
</a>
</g>
</g>
<!-- Node23&#45;&gt;Node28 -->
<g id="edge51" class="edge">
<title>Node23&#45;&gt;Node28</title>
<path fill="none" stroke="#191970" d="M1004.395,-392.3733C1027.0082,-383.2629 1061.1542,-369.5062 1086.3873,-359.3404"/>
<polygon fill="#191970" stroke="#191970" points="1087.9493,-362.4845 1095.9169,-355.5011 1085.3334,-355.9917 1087.9493,-362.4845"/>
</g>
<!-- Node24&#45;&gt;Node4 -->
<g id="edge47" class="edge">
<title>Node24&#45;&gt;Node4</title>
<path fill="none" stroke="#191970" d="M818.7727,-227.6653C768.5806,-219.7509 681.9064,-205.1432 608.5,-188 608.4,-187.9766 608.2999,-187.9532 608.1996,-187.9296"/>
<polygon fill="#191970" stroke="#191970" points="609.2121,-184.5757 598.6582,-185.5061 607.4888,-191.3603 609.2121,-184.5757"/>
</g>
<!-- Node24&#45;&gt;Node6 -->
<g id="edge45" class="edge">
<title>Node24&#45;&gt;Node6</title>
<path fill="none" stroke="#191970" d="M840.431,-224.4432C826.3568,-216.6521 808.3591,-204.2795 798.5,-188 780.7855,-158.7497 792.1383,-145.7282 786.5,-112 781.6969,-83.2679 775.7646,-50.0538 772.0556,-29.5361"/>
<polygon fill="#191970" stroke="#191970" points="775.4734,-28.7675 770.2451,-19.5526 768.5858,-30.0167 775.4734,-28.7675"/>
</g>
<!-- Node25 -->
<g id="node26" class="node">
<title>Node25</title>
<g id="a_node26"><a xlink:href="inttypes_8h.html" target="_top" xlink:title="Adds include for missing inttype definitions. ">
<polygon fill="#ffffff" stroke="#000000" points="1070,-168.5 1070,-187.5 1133,-187.5 1133,-168.5 1070,-168.5"/>
<text text-anchor="middle" x="1101.5" y="-175.5" font-family="Helvetica,sans-Serif" font-size="10.00" fill="#000000">inttypes.h</text>
</a>
</g>
</g>
<!-- Node24&#45;&gt;Node25 -->
<g id="edge46" class="edge">
<title>Node24&#45;&gt;Node25</title>
<path fill="none" stroke="#191970" d="M902.1321,-224.7273C940.675,-216.0857 999.8419,-202.6765 1059.6468,-188.4156"/>
<polygon fill="#191970" stroke="#191970" points="1060.7255,-191.7564 1069.6373,-186.0267 1059.0975,-184.9484 1060.7255,-191.7564"/>
</g>
<!-- Node26 -->
<g id="node27" class="node">
<title>Node26</title>
<polygon fill="#ffffff" stroke="#bfbfbf" points="807,-168.5 807,-187.5 914,-187.5 914,-168.5 807,-168.5"/>
<text text-anchor="middle" x="860.5" y="-175.5" font-family="Helvetica,sans-Serif" font-size="10.00" fill="#000000">architecture_arch.h</text>
</g>
<!-- Node24&#45;&gt;Node26 -->
<g id="edge48" class="edge">
<title>Node24&#45;&gt;Node26</title>
<path fill="none" stroke="#191970" d="M860.5,-224.2455C860.5,-216.9382 860.5,-206.6944 860.5,-197.7046"/>
<polygon fill="#191970" stroke="#191970" points="864.0001,-197.6426 860.5,-187.6427 857.0001,-197.6427 864.0001,-197.6426"/>
</g>
<!-- Node29 -->
<g id="node30" class="node">
<title>Node29</title>
<g id="a_node30"><a xlink:href="clist_8h.html" target="_top" xlink:title="Circular linked list. ">
<polygon fill="#ffffff" stroke="#000000" points="1009,-168.5 1009,-187.5 1052,-187.5 1052,-168.5 1009,-168.5"/>
<text text-anchor="middle" x="1030.5" y="-175.5" font-family="Helvetica,sans-Serif" font-size="10.00" fill="#000000">clist.h</text>
</a>
</g>
</g>
<!-- Node28&#45;&gt;Node29 -->
<g id="edge52" class="edge">
<title>Node28&#45;&gt;Node29</title>
<path fill="none" stroke="#191970" d="M1110.4249,-336.3582C1102.3576,-327.4331 1090.6168,-313.5363 1082.5,-300 1061.9747,-265.7702 1045.4035,-221.9579 1036.8426,-197.2355"/>
<polygon fill="#191970" stroke="#191970" points="1040.1045,-195.9557 1033.5814,-187.6071 1033.4745,-198.2014 1040.1045,-195.9557"/>
</g>
<!-- Node30 -->
<g id="node31" class="node">
<title>Node30</title>
<g id="a_node31"><a xlink:href="cib_8h.html" target="_top" xlink:title="Circular integer buffer interface. ">
<polygon fill="#ffffff" stroke="#000000" points="1545.5,-280.5 1545.5,-299.5 1583.5,-299.5 1583.5,-280.5 1545.5,-280.5"/>
<text text-anchor="middle" x="1564.5" y="-287.5" font-family="Helvetica,sans-Serif" font-size="10.00" fill="#000000">cib.h</text>
</a>
</g>
</g>
<!-- Node28&#45;&gt;Node30 -->
<g id="edge56" class="edge">
<title>Node28&#45;&gt;Node30</title>
<path fill="none" stroke="#191970" d="M1148.0137,-342.4118C1228.0571,-332.3389 1454.2558,-303.8734 1535.2217,-293.6845"/>
<polygon fill="#191970" stroke="#191970" points="1535.7379,-297.1472 1545.2227,-292.4259 1534.8639,-290.202 1535.7379,-297.1472"/>
</g>
<!-- Node31 -->
<g id="node32" class="node">
<title>Node31</title>
<g id="a_node32"><a xlink:href="core_2include_2msg_8h.html" target="_top" xlink:title="Messaging API for inter process communication. ">
<polygon fill="#ffffff" stroke="#000000" points="1097,-280.5 1097,-299.5 1142,-299.5 1142,-280.5 1097,-280.5"/>
<text text-anchor="middle" x="1119.5" y="-287.5" font-family="Helvetica,sans-Serif" font-size="10.00" fill="#000000">msg.h</text>
</a>
</g>
</g>
<!-- Node28&#45;&gt;Node31 -->
<g id="edge58" class="edge">
<title>Node28&#45;&gt;Node31</title>
<path fill="none" stroke="#191970" d="M1119.5,-336.2455C1119.5,-328.9382 1119.5,-318.6944 1119.5,-309.7046"/>
<polygon fill="#191970" stroke="#191970" points="1123.0001,-309.6426 1119.5,-299.6427 1116.0001,-309.6427 1123.0001,-309.6426"/>
</g>
<!-- Node32 -->
<g id="node33" class="node">
<title>Node32</title>
<g id="a_node33"><a xlink:href="sched_8h.html" target="_top" xlink:title="Scheduler API definition. ">
<polygon fill="#ffffff" stroke="#000000" points="1084,-224.5 1084,-243.5 1137,-243.5 1137,-224.5 1084,-224.5"/>
<text text-anchor="middle" x="1110.5" y="-231.5" font-family="Helvetica,sans-Serif" font-size="10.00" fill="#000000">sched.h</text>
</a>
</g>
</g>
<!-- Node28&#45;&gt;Node32 -->
<g id="edge67" class="edge">
<title>Node28&#45;&gt;Node32</title>
<path fill="none" stroke="#191970" d="M1110.4259,-336.3243C1102.9037,-327.5913 1092.7769,-313.9994 1088.5,-300 1083.5589,-283.8266 1090.6038,-265.6017 1098.0016,-252.4074"/>
<polygon fill="#191970" stroke="#191970" points="1101.0417,-254.1451 1103.2844,-243.7903 1095.0739,-250.4864 1101.0417,-254.1451"/>
</g>
<!-- Node34 -->
<g id="node35" class="node">
<title>Node34</title>
<g id="a_node35"><a xlink:href="thread__config_8h.html" target="_top" xlink:title="Thread configuration defines. ">
<polygon fill="#ffffff" stroke="#000000" points="1260.5,-280.5 1260.5,-299.5 1350.5,-299.5 1350.5,-280.5 1260.5,-280.5"/>
<text text-anchor="middle" x="1305.5" y="-287.5" font-family="Helvetica,sans-Serif" font-size="10.00" fill="#000000">thread_config.h</text>
</a>
</g>
</g>
<!-- Node28&#45;&gt;Node34 -->
<g id="edge68" class="edge">
<title>Node28&#45;&gt;Node34</title>
<path fill="none" stroke="#191970" d="M1148.1549,-337.3727C1179.0399,-328.074 1228.4955,-313.1841 1263.7132,-302.581"/>
<polygon fill="#191970" stroke="#191970" points="1265.1284,-305.8102 1273.6947,-299.5758 1263.1103,-299.1074 1265.1284,-305.8102"/>
</g>
<!-- Node35 -->
<g id="node36" class="node">
<title>Node35</title>
<polygon fill="#ffffff" stroke="#bfbfbf" points="1160.5,-280.5 1160.5,-299.5 1242.5,-299.5 1242.5,-280.5 1160.5,-280.5"/>
<text text-anchor="middle" x="1201.5" y="-287.5" font-family="Helvetica,sans-Serif" font-size="10.00" fill="#000000">thread_arch.h</text>
</g>
<!-- Node28&#45;&gt;Node35 -->
<g id="edge71" class="edge">
<title>Node28&#45;&gt;Node35</title>
<path fill="none" stroke="#191970" d="M1133.7833,-336.2455C1146.247,-327.7337 1164.5451,-315.2375 1178.9792,-305.3801"/>
<polygon fill="#191970" stroke="#191970" points="1181.0962,-308.1726 1187.3804,-299.6427 1177.1485,-302.392 1181.0962,-308.1726"/>
</g>
<!-- Node29&#45;&gt;Node1 -->
<g id="edge53" class="edge">
<title>Node29&#45;&gt;Node1</title>
<path fill="none" stroke="#191970" d="M1052.0268,-170.4315C1055.1765,-169.507 1058.4024,-168.6583 1061.5,-168 1205.2514,-137.4523 1247.8848,-157.8028 1396.4218,-131.9562"/>
<polygon fill="#191970" stroke="#191970" points="1397.1297,-135.3852 1406.361,-130.1858 1395.9022,-128.4937 1397.1297,-135.3852"/>
</g>
<!-- Node29&#45;&gt;Node5 -->
<g id="edge54" class="edge">
<title>Node29&#45;&gt;Node5</title>
<path fill="none" stroke="#191970" d="M1031.2976,-168.276C1031.9091,-154.2248 1030.9435,-128.1606 1017.5,-112 998.1134,-88.6951 965.2641,-77.1237 939.4609,-71.4215"/>
<polygon fill="#191970" stroke="#191970" points="940.0984,-67.9798 929.6057,-69.4473 938.7234,-74.8434 940.0984,-67.9798"/>
</g>
<!-- Node29&#45;&gt;Node27 -->
<g id="edge55" class="edge">
<title>Node29&#45;&gt;Node27</title>
<path fill="none" stroke="#191970" d="M1023.3583,-168.2455C1017.6556,-160.4564 1009.51,-149.3308 1002.6375,-139.9439"/>
<polygon fill="#191970" stroke="#191970" points="1005.2913,-137.6437 996.5598,-131.6427 999.6432,-141.7789 1005.2913,-137.6437"/>
</g>
<!-- Node30&#45;&gt;Node18 -->
<g id="edge57" class="edge">
<title>Node30&#45;&gt;Node18</title>
<path fill="none" stroke="#191970" d="M1567.6021,-280.3387C1576.0198,-252.2394 1596.645,-168.935 1565.5,-112 1558.1549,-98.5726 1545.0106,-88.0973 1532.537,-80.5576"/>
<polygon fill="#191970" stroke="#191970" points="1534.1,-77.4214 1523.6653,-75.5862 1530.678,-83.528 1534.1,-77.4214"/>
</g>
<!-- Node31&#45;&gt;Node1 -->
<g id="edge60" class="edge">
<title>Node31&#45;&gt;Node1</title>
<path fill="none" stroke="#191970" d="M1142.1485,-282.6291C1145.2766,-281.697 1148.4587,-280.7934 1151.5,-280 1226.6508,-260.3948 1254.8464,-282.1443 1322.5,-244 1346.402,-230.5237 1397.2952,-170.2616 1422.1884,-139.7798"/>
<polygon fill="#191970" stroke="#191970" points="1425.1644,-141.6671 1428.7492,-131.6972 1419.7295,-137.2555 1425.1644,-141.6671"/>
</g>
<!-- Node31&#45;&gt;Node6 -->
<g id="edge59" class="edge">
<title>Node31&#45;&gt;Node6</title>
<path fill="none" stroke="#191970" d="M1140.1048,-280.42C1180.6966,-261.0764 1268.4708,-216.7536 1284.5,-188 1288.8282,-180.236 1289.7287,-175.1884 1284.5,-168 1226.2318,-87.8937 912.1611,-32.3224 804.6345,-15.4097"/>
<polygon fill="#191970" stroke="#191970" points="805.0159,-11.927 794.5969,-13.8493 803.9405,-18.844 805.0159,-11.927"/>
</g>
<!-- Node31&#45;&gt;Node32 -->
<g id="edge61" class="edge">
<title>Node31&#45;&gt;Node32</title>
<path fill="none" stroke="#191970" d="M1117.9323,-280.2455C1116.7579,-272.9382 1115.1116,-262.6944 1113.6668,-253.7046"/>
<polygon fill="#191970" stroke="#191970" points="1117.0922,-252.9606 1112.0497,-243.6427 1110.1809,-254.0714 1117.0922,-252.9606"/>
</g>
<!-- Node32&#45;&gt;Node5 -->
<g id="edge62" class="edge">
<title>Node32&#45;&gt;Node5</title>
<path fill="none" stroke="#191970" d="M1121.322,-224.3095C1134.6286,-211.1785 1154.1057,-187.1731 1142.5,-168 1099.7536,-97.3812 996.2878,-75.6239 939.8237,-68.943"/>
<polygon fill="#191970" stroke="#191970" points="940.1718,-65.4603 929.8529,-67.8626 939.4176,-72.4195 940.1718,-65.4603"/>
</g>
<!-- Node32&#45;&gt;Node14 -->
<g id="edge64" class="edge">
<title>Node32&#45;&gt;Node14</title>
<path fill="none" stroke="#191970" d="M1083.9363,-230.6646C1013.2993,-221.7954 819.5837,-197.4724 722.1141,-185.2341"/>
<polygon fill="#191970" stroke="#191970" points="722.4955,-181.7545 712.1373,-183.9814 721.6233,-188.7 722.4955,-181.7545"/>
</g>
<!-- Node32&#45;&gt;Node25 -->
<g id="edge63" class="edge">
<title>Node32&#45;&gt;Node25</title>
<path fill="none" stroke="#191970" d="M1108.9323,-224.2455C1107.7579,-216.9382 1106.1116,-206.6944 1104.6668,-197.7046"/>
<polygon fill="#191970" stroke="#191970" points="1108.0922,-196.9606 1103.0497,-187.6427 1101.1809,-198.0714 1108.0922,-196.9606"/>
</g>
<!-- Node32&#45;&gt;Node29 -->
<g id="edge66" class="edge">
<title>Node32&#45;&gt;Node29</title>
<path fill="none" stroke="#191970" d="M1096.5651,-224.2455C1084.4053,-215.7337 1066.5536,-203.2375 1052.4715,-193.3801"/>
<polygon fill="#191970" stroke="#191970" points="1054.4747,-190.51 1044.2752,-187.6427 1050.4605,-196.2447 1054.4747,-190.51"/>
</g>
<!-- Node33 -->
<g id="node34" class="node">
<title>Node33</title>
<g id="a_node34"><a xlink:href="native__sched_8h.html" target="_top" xlink:title="Add definitions required on the native board. ">
<polygon fill="#ffffff" stroke="#000000" points="1189.5,-168.5 1189.5,-187.5 1275.5,-187.5 1275.5,-168.5 1189.5,-168.5"/>
<text text-anchor="middle" x="1232.5" y="-175.5" font-family="Helvetica,sans-Serif" font-size="10.00" fill="#000000">native_sched.h</text>
</a>
</g>
</g>
<!-- Node32&#45;&gt;Node33 -->
<g id="edge65" class="edge">
<title>Node32&#45;&gt;Node33</title>
<path fill="none" stroke="#191970" d="M1131.4725,-224.3733C1151.0567,-215.3838 1180.4961,-201.8706 1202.551,-191.7471"/>
<polygon fill="#191970" stroke="#191970" points="1204.1729,-194.8538 1211.8011,-187.5011 1201.2527,-188.4919 1204.1729,-194.8538"/>
</g>
<!-- Node34&#45;&gt;Node22 -->
<g id="edge69" class="edge">
<title>Node34&#45;&gt;Node22</title>
<path fill="none" stroke="#191970" d="M1317.7886,-280.4862C1353.5118,-252.8296 1457.6072,-172.2396 1502.0269,-137.8502"/>
<polygon fill="#191970" stroke="#191970" points="1504.3126,-140.507 1510.0772,-131.6177 1500.0273,-134.9719 1504.3126,-140.507"/>
</g>
<!-- Node34&#45;&gt;Node32 -->
<g id="edge70" class="edge">
<title>Node34&#45;&gt;Node32</title>
<path fill="none" stroke="#191970" d="M1271.9783,-280.3733C1237.1907,-270.383 1182.9482,-254.8056 1147.0723,-244.5028"/>
<polygon fill="#191970" stroke="#191970" points="1147.599,-241.0127 1137.0214,-241.6164 1145.6668,-247.7407 1147.599,-241.0127"/>
</g>
<!-- Node37 -->
<g id="node38" class="node">
<title>Node37</title>
<polygon fill="#ffffff" stroke="#bfbfbf" points="905,-504.5 905,-523.5 958,-523.5 958,-504.5 905,-504.5"/>
<text text-anchor="middle" x="931.5" y="-511.5" font-family="Helvetica,sans-Serif" font-size="10.00" fill="#000000">board.h</text>
</g>
<!-- Node36&#45;&gt;Node37 -->
<g id="edge74" class="edge">
<title>Node36&#45;&gt;Node37</title>
<path fill="none" stroke="#191970" d="M863.7833,-560.2455C876.247,-551.7337 894.5451,-539.2375 908.9792,-529.3801"/>
<polygon fill="#191970" stroke="#191970" points="911.0962,-532.1726 917.3804,-523.6427 907.1485,-526.392 911.0962,-532.1726"/>
</g>
<!-- Node38 -->
<g id="node39" class="node">
<title>Node38</title>
<g id="a_node39"><a xlink:href="stdio__base_8h.html" target="_top" xlink:title="stdio_base.h">
<polygon fill="#ffffff" stroke="#000000" points="812.5,-504.5 812.5,-523.5 886.5,-523.5 886.5,-504.5 812.5,-504.5"/>
<text text-anchor="middle" x="849.5" y="-511.5" font-family="Helvetica,sans-Serif" font-size="10.00" fill="#000000">stdio_base.h</text>
</a>
</g>
</g>
<!-- Node36&#45;&gt;Node38 -->
<g id="edge75" class="edge">
<title>Node36&#45;&gt;Node38</title>
<path fill="none" stroke="#191970" d="M849.5,-560.2455C849.5,-552.9382 849.5,-542.6944 849.5,-533.7046"/>
<polygon fill="#191970" stroke="#191970" points="853.0001,-533.6426 849.5,-523.6427 846.0001,-533.6427 853.0001,-533.6426"/>
</g>
<!-- Node38&#45;&gt;Node11 -->
<g id="edge76" class="edge">
<title>Node38&#45;&gt;Node11</title>
<path fill="none" stroke="#191970" d="M836.7888,-504.3354C809.2739,-483.4742 742.0337,-432.8123 684.5,-392 576.214,-315.1858 547.3721,-298.5278 437.5,-224 422.3576,-213.7287 405.3022,-202.1913 392.0602,-193.2405"/>
<polygon fill="#191970" stroke="#191970" points="393.8175,-190.2038 383.5723,-187.5044 389.898,-196.0036 393.8175,-190.2038"/>
</g>
<!-- Node38&#45;&gt;Node15 -->
<g id="edge77" class="edge">
<title>Node38&#45;&gt;Node15</title>
<path fill="none" stroke="#191970" d="M846.9045,-504.3101C833.1452,-452.9421 768.6487,-212.1551 749.7292,-141.5223"/>
<polygon fill="#191970" stroke="#191970" points="753.067,-140.456 747.0988,-131.7021 746.3054,-142.2672 753.067,-140.456"/>
</g>
<!-- Node39 -->
<g id="node40" class="node">
<title>Node39</title>
<g id="a_node40"><a xlink:href="isrpipe_8h.html" target="_top" xlink:title="isrpipe Interface ">
<polygon fill="#ffffff" stroke="#000000" points="1559,-448.5 1559,-467.5 1616,-467.5 1616,-448.5 1559,-448.5"/>
<text text-anchor="middle" x="1587.5" y="-455.5" font-family="Helvetica,sans-Serif" font-size="10.00" fill="#000000">isrpipe.h</text>
</a>
</g>
</g>
<!-- Node38&#45;&gt;Node39 -->
<g id="edge78" class="edge">
<title>Node38&#45;&gt;Node39</title>
<path fill="none" stroke="#191970" d="M886.6135,-505.5907C889.9459,-504.9912 893.2774,-504.4477 896.5,-504 961.0679,-495.0289 1412.1693,-468.2436 1548.5407,-460.2661"/>
<polygon fill="#191970" stroke="#191970" points="1549.1349,-463.7375 1558.9137,-459.6601 1548.7265,-456.7494 1549.1349,-463.7375"/>
</g>
<!-- Node40 -->
<g id="node41" class="node">
<title>Node40</title>
<g id="a_node41"><a xlink:href="xfa_8h.html" target="_top" xlink:title="Cross File Arrays. ">
<polygon fill="#ffffff" stroke="#000000" points="1273.5,-224.5 1273.5,-243.5 1313.5,-243.5 1313.5,-224.5 1273.5,-224.5"/>
<text text-anchor="middle" x="1293.5" y="-231.5" font-family="Helvetica,sans-Serif" font-size="10.00" fill="#000000">xfa.h</text>
</a>
</g>
</g>
<!-- Node38&#45;&gt;Node40 -->
<g id="edge82" class="edge">
<title>Node38&#45;&gt;Node40</title>
<path fill="none" stroke="#191970" d="M886.6995,-506.0813C890.0136,-505.377 893.3173,-504.6753 896.5,-504 1003.5986,-481.2745 1378.5,-511.4832 1378.5,-402 1378.5,-402 1378.5,-402 1378.5,-346 1378.5,-315.4754 1377.2658,-304.822 1359.5,-280 1350.0807,-266.8395 1335.6663,-256.1684 1322.7087,-248.4294"/>
<polygon fill="#191970" stroke="#191970" points="1324.0549,-245.1709 1313.6232,-243.3187 1320.623,-251.2719 1324.0549,-245.1709"/>
</g>
<!-- Node39&#45;&gt;Node6 -->
<g id="edge79" class="edge">
<title>Node39&#45;&gt;Node6</title>
<path fill="none" stroke="#191970" d="M1616.3569,-454.4164C1669.5088,-446.031 1777.5,-419.9009 1777.5,-346 1777.5,-346 1777.5,-346 1777.5,-122 1777.5,-49.5719 1698.9338,-72.879 1628.5,-56 1468.5445,-17.6677 948.2989,-11.2467 805.2133,-10.199"/>
<polygon fill="#191970" stroke="#191970" points="804.8351,-6.6964 794.8113,-10.1276 804.787,-13.6962 804.8351,-6.6964"/>
</g>
<!-- Node39&#45;&gt;Node20 -->
<g id="edge81" class="edge">
<title>Node39&#45;&gt;Node20</title>
<path fill="none" stroke="#191970" d="M1591.4531,-448.375C1605.4607,-414.2697 1652.8955,-298.7761 1671.7142,-252.9567"/>
<polygon fill="#191970" stroke="#191970" points="1674.9999,-254.1691 1675.5616,-243.5891 1668.5248,-251.5096 1674.9999,-254.1691"/>
</g>
<!-- Node39&#45;&gt;Node23 -->
<g id="edge80" class="edge">
<title>Node39&#45;&gt;Node23</title>
<path fill="none" stroke="#191970" d="M1558.6315,-455.3367C1459.3457,-446.1769 1131.8546,-415.9635 1019.0699,-405.5583"/>
<polygon fill="#191970" stroke="#191970" points="1019.1197,-402.0482 1008.8404,-404.6146 1018.4765,-409.0186 1019.1197,-402.0482"/>
</g>
<!-- Node40&#45;&gt;Node17 -->
<g id="edge84" class="edge">
<title>Node40&#45;&gt;Node17</title>
<path fill="none" stroke="#191970" d="M1299.0328,-224.3134C1304.1633,-215.1286 1311.8366,-200.8602 1317.5,-188 1324.3242,-172.5039 1330.8073,-154.3977 1335.3111,-141.0734"/>
<polygon fill="#191970" stroke="#191970" points="1338.6422,-142.1475 1338.4673,-131.5541 1331.9979,-139.9444 1338.6422,-142.1475"/>
</g>
<!-- Node40&#45;&gt;Node25 -->
<g id="edge83" class="edge">
<title>Node40&#45;&gt;Node25</title>
<path fill="none" stroke="#191970" d="M1273.3155,-228.1129C1242.5165,-219.1298 1183.1335,-201.8098 1142.907,-190.077"/>
<polygon fill="#191970" stroke="#191970" points="1143.7017,-186.6631 1133.1217,-187.223 1141.7417,-193.3831 1143.7017,-186.6631"/>
</g>
</g>
</svg>
