<?xml version="1.0" encoding="UTF-8" standalone="no"?>
<!DOCTYPE svg PUBLIC "-//W3C//DTD SVG 1.1//EN"
 "http://www.w3.org/Graphics/SVG/1.1/DTD/svg11.dtd">
<!-- Generated by graphviz version 2.40.1 (0)
 -->
<!-- Title: sys/include/net/eui48.h Pages: 1 -->
<svg width="361pt" height="252pt"
 viewBox="0.00 0.00 360.50 252.00" xmlns="http://www.w3.org/2000/svg" xmlns:xlink="http://www.w3.org/1999/xlink">
<g id="graph0" class="graph" transform="scale(1 1) rotate(0) translate(4 248)">
<title>sys/include/net/eui48.h</title>
<polygon fill="#ffffff" stroke="transparent" points="-4,4 -4,-248 356.5,-248 356.5,4 -4,4"/>
<!-- Node0 -->
<g id="node1" class="node">
<title>Node0</title>
<polygon fill="#bfbfbf" stroke="#000000" points="0,-224.5 0,-243.5 126,-243.5 126,-224.5 0,-224.5"/>
<text text-anchor="middle" x="63" y="-231.5" font-family="Helvetica,sans-Serif" font-size="10.00" fill="#000000">sys/include/net/eui48.h</text>
</g>
<!-- Node1 -->
<g id="node2" class="node">
<title>Node1</title>
<polygon fill="#ffffff" stroke="#bfbfbf" points="81,-.5 81,-19.5 133,-19.5 133,-.5 81,-.5"/>
<text text-anchor="middle" x="107" y="-7.5" font-family="Helvetica,sans-Serif" font-size="10.00" fill="#000000">stdint.h</text>
</g>
<!-- Node0&#45;&gt;Node1 -->
<g id="edge1" class="edge">
<title>Node0&#45;&gt;Node1</title>
<path fill="none" stroke="#191970" d="M58.7757,-224.1844C53.7633,-211.3137 46.4998,-188.0168 50,-168 59.1262,-115.8101 84.0091,-58.116 97.6863,-29.0185"/>
<polygon fill="#191970" stroke="#191970" points="101.0075,-30.1865 102.1684,-19.6554 94.6937,-27.164 101.0075,-30.1865"/>
</g>
<!-- Node2 -->
<g id="node3" class="node">
<title>Node2</title>
<g id="a_node3"><a xlink:href="eui64_8h.html" target="_top" xlink:title="EUI&#45;64 data type definition. ">
<polygon fill="#ffffff" stroke="#000000" points="59.5,-168.5 59.5,-187.5 130.5,-187.5 130.5,-168.5 59.5,-168.5"/>
<text text-anchor="middle" x="95" y="-175.5" font-family="Helvetica,sans-Serif" font-size="10.00" fill="#000000">net/eui64.h</text>
</a>
</g>
</g>
<!-- Node0&#45;&gt;Node2 -->
<g id="edge2" class="edge">
<title>Node0&#45;&gt;Node2</title>
<path fill="none" stroke="#191970" d="M68.574,-224.2455C72.9331,-216.617 79.1211,-205.7881 84.4133,-196.5267"/>
<polygon fill="#191970" stroke="#191970" points="87.5673,-198.0616 89.4899,-187.6427 81.4896,-194.5886 87.5673,-198.0616"/>
</g>
<!-- Node2&#45;&gt;Node1 -->
<g id="edge3" class="edge">
<title>Node2&#45;&gt;Node1</title>
<path fill="none" stroke="#191970" d="M95.6796,-168.4862C97.5765,-141.9293 102.9596,-66.5651 105.5596,-30.1655"/>
<polygon fill="#191970" stroke="#191970" points="109.0766,-30.0519 106.298,-19.8279 102.0943,-29.5531 109.0766,-30.0519"/>
</g>
<!-- Node3 -->
<g id="node4" class="node">
<title>Node3</title>
<g id="a_node4"><a xlink:href="byteorder_8h.html" target="_top" xlink:title="Functions to work with different byte orders. ">
<polygon fill="#ffffff" stroke="#000000" points="125.5,-112.5 125.5,-131.5 198.5,-131.5 198.5,-112.5 125.5,-112.5"/>
<text text-anchor="middle" x="162" y="-119.5" font-family="Helvetica,sans-Serif" font-size="10.00" fill="#000000">byteorder.h</text>
</a>
</g>
</g>
<!-- Node2&#45;&gt;Node3 -->
<g id="edge4" class="edge">
<title>Node2&#45;&gt;Node3</title>
<path fill="none" stroke="#191970" d="M106.6705,-168.2455C116.5661,-159.9746 130.9627,-147.9416 142.5901,-138.2232"/>
<polygon fill="#191970" stroke="#191970" points="145.035,-140.7413 150.4632,-131.6427 140.5458,-135.3703 145.035,-140.7413"/>
</g>
<!-- Node3&#45;&gt;Node1 -->
<g id="edge6" class="edge">
<title>Node3&#45;&gt;Node1</title>
<path fill="none" stroke="#191970" d="M152.4743,-112.1898C144.3877,-103.3706 133.0108,-89.7278 126,-76 118.5432,-61.3988 113.6153,-43.4424 110.651,-29.9473"/>
<polygon fill="#191970" stroke="#191970" points="114.0189,-28.9425 108.6104,-19.8322 107.1572,-30.3269 114.0189,-28.9425"/>
</g>
<!-- Node4 -->
<g id="node5" class="node">
<title>Node4</title>
<polygon fill="#ffffff" stroke="#bfbfbf" points="135.5,-56.5 135.5,-75.5 188.5,-75.5 188.5,-56.5 135.5,-56.5"/>
<text text-anchor="middle" x="162" y="-63.5" font-family="Helvetica,sans-Serif" font-size="10.00" fill="#000000">string.h</text>
</g>
<!-- Node3&#45;&gt;Node4 -->
<g id="edge5" class="edge">
<title>Node3&#45;&gt;Node4</title>
<path fill="none" stroke="#191970" d="M162,-112.2455C162,-104.9382 162,-94.6944 162,-85.7046"/>
<polygon fill="#191970" stroke="#191970" points="165.5001,-85.6426 162,-75.6427 158.5001,-85.6427 165.5001,-85.6426"/>
</g>
<!-- Node5 -->
<g id="node6" class="node">
<title>Node5</title>
<g id="a_node6"><a xlink:href="endian_8h.html" target="_top" xlink:title="libc header for endian conversion ">
<polygon fill="#ffffff" stroke="#000000" points="206.5,-56.5 206.5,-75.5 263.5,-75.5 263.5,-56.5 206.5,-56.5"/>
<text text-anchor="middle" x="235" y="-63.5" font-family="Helvetica,sans-Serif" font-size="10.00" fill="#000000">endian.h</text>
</a>
</g>
</g>
<!-- Node3&#45;&gt;Node5 -->
<g id="edge7" class="edge">
<title>Node3&#45;&gt;Node5</title>
<path fill="none" stroke="#191970" d="M174.7156,-112.2455C185.602,-103.8943 201.4883,-91.7076 214.22,-81.9408"/>
<polygon fill="#191970" stroke="#191970" points="216.6261,-84.5063 222.4301,-75.6427 212.3654,-78.9523 216.6261,-84.5063"/>
</g>
<!-- Node6 -->
<g id="node7" class="node">
<title>Node6</title>
<g id="a_node7"><a xlink:href="unaligned_8h.html" target="_top" xlink:title="Unaligned but safe memory access functions. ">
<polygon fill="#ffffff" stroke="#000000" points="281.5,-56.5 281.5,-75.5 352.5,-75.5 352.5,-56.5 281.5,-56.5"/>
<text text-anchor="middle" x="317" y="-63.5" font-family="Helvetica,sans-Serif" font-size="10.00" fill="#000000">unaligned.h</text>
</a>
</g>
</g>
<!-- Node3&#45;&gt;Node6 -->
<g id="edge9" class="edge">
<title>Node3&#45;&gt;Node6</title>
<path fill="none" stroke="#191970" d="M188.6454,-112.3733C214.1964,-103.1419 252.9512,-89.1402 281.1909,-78.9375"/>
<polygon fill="#191970" stroke="#191970" points="282.4865,-82.1909 290.7022,-75.5011 280.1079,-75.6074 282.4865,-82.1909"/>
</g>
<!-- Node5&#45;&gt;Node1 -->
<g id="edge8" class="edge">
<title>Node5&#45;&gt;Node1</title>
<path fill="none" stroke="#191970" d="M212.996,-56.3733C192.3565,-47.3435 161.2842,-33.7494 138.1111,-23.6111"/>
<polygon fill="#191970" stroke="#191970" points="139.2813,-20.3028 128.7169,-19.5011 136.4755,-26.7159 139.2813,-20.3028"/>
</g>
<!-- Node6&#45;&gt;Node1 -->
<g id="edge10" class="edge">
<title>Node6&#45;&gt;Node1</title>
<path fill="none" stroke="#191970" d="M281.3764,-56.5004C242.8125,-46.2167 181.6498,-29.9066 142.9565,-19.5884"/>
<polygon fill="#191970" stroke="#191970" points="143.7181,-16.1692 133.1539,-16.9744 141.9144,-22.9329 143.7181,-16.1692"/>
</g>
</g>
</svg>
