<?xml version="1.0" encoding="UTF-8" standalone="no"?>
<!DOCTYPE svg PUBLIC "-//W3C//DTD SVG 1.1//EN"
 "http://www.w3.org/Graphics/SVG/1.1/DTD/svg11.dtd">
<!-- Generated by graphviz version 2.40.1 (0)
 -->
<!-- Title: sys/include/net/eui64.h Pages: 1 -->
<svg width="309pt" height="196pt"
 viewBox="0.00 0.00 308.50 196.00" xmlns="http://www.w3.org/2000/svg" xmlns:xlink="http://www.w3.org/1999/xlink">
<g id="graph0" class="graph" transform="scale(1 1) rotate(0) translate(4 192)">
<title>sys/include/net/eui64.h</title>
<polygon fill="#ffffff" stroke="transparent" points="-4,4 -4,-192 304.5,-192 304.5,4 -4,4"/>
<!-- Node0 -->
<g id="node1" class="node">
<title>Node0</title>
<polygon fill="#bfbfbf" stroke="#000000" points="0,-168.5 0,-187.5 126,-187.5 126,-168.5 0,-168.5"/>
<text text-anchor="middle" x="63" y="-175.5" font-family="Helvetica,sans-Serif" font-size="10.00" fill="#000000">sys/include/net/eui64.h</text>
</g>
<!-- Node1 -->
<g id="node2" class="node">
<title>Node1</title>
<polygon fill="#ffffff" stroke="#bfbfbf" points="93,-.5 93,-19.5 145,-19.5 145,-.5 93,-.5"/>
<text text-anchor="middle" x="119" y="-7.5" font-family="Helvetica,sans-Serif" font-size="10.00" fill="#000000">stdint.h</text>
</g>
<!-- Node0&#45;&gt;Node1 -->
<g id="edge1" class="edge">
<title>Node0&#45;&gt;Node1</title>
<path fill="none" stroke="#191970" d="M60.8811,-168.1868C56.7384,-146.6017 49.4954,-93.9095 68,-56 73.9659,-43.7779 84.7401,-33.3151 94.8535,-25.4702"/>
<polygon fill="#191970" stroke="#191970" points="97.0286,-28.2165 103.0732,-19.5151 92.9217,-22.5478 97.0286,-28.2165"/>
</g>
<!-- Node2 -->
<g id="node3" class="node">
<title>Node2</title>
<g id="a_node3"><a xlink:href="byteorder_8h.html" target="_top" xlink:title="Functions to work with different byte orders. ">
<polygon fill="#ffffff" stroke="#000000" points="73.5,-112.5 73.5,-131.5 146.5,-131.5 146.5,-112.5 73.5,-112.5"/>
<text text-anchor="middle" x="110" y="-119.5" font-family="Helvetica,sans-Serif" font-size="10.00" fill="#000000">byteorder.h</text>
</a>
</g>
</g>
<!-- Node0&#45;&gt;Node2 -->
<g id="edge2" class="edge">
<title>Node0&#45;&gt;Node2</title>
<path fill="none" stroke="#191970" d="M71.1868,-168.2455C77.8589,-160.2958 87.4479,-148.8706 95.4253,-139.3656"/>
<polygon fill="#191970" stroke="#191970" points="98.1592,-141.5525 101.907,-131.6427 92.7974,-137.0524 98.1592,-141.5525"/>
</g>
<!-- Node2&#45;&gt;Node1 -->
<g id="edge4" class="edge">
<title>Node2&#45;&gt;Node1</title>
<path fill="none" stroke="#191970" d="M98.6458,-112.4961C85.1374,-99.9622 65.4245,-77.0293 74,-56 78.7156,-44.4363 87.8927,-34.2008 96.7362,-26.3383"/>
<polygon fill="#191970" stroke="#191970" points="99.1496,-28.8842 104.6263,-19.8147 94.6891,-23.4894 99.1496,-28.8842"/>
</g>
<!-- Node3 -->
<g id="node4" class="node">
<title>Node3</title>
<polygon fill="#ffffff" stroke="#bfbfbf" points="83.5,-56.5 83.5,-75.5 136.5,-75.5 136.5,-56.5 83.5,-56.5"/>
<text text-anchor="middle" x="110" y="-63.5" font-family="Helvetica,sans-Serif" font-size="10.00" fill="#000000">string.h</text>
</g>
<!-- Node2&#45;&gt;Node3 -->
<g id="edge3" class="edge">
<title>Node2&#45;&gt;Node3</title>
<path fill="none" stroke="#191970" d="M110,-112.2455C110,-104.9382 110,-94.6944 110,-85.7046"/>
<polygon fill="#191970" stroke="#191970" points="113.5001,-85.6426 110,-75.6427 106.5001,-85.6427 113.5001,-85.6426"/>
</g>
<!-- Node4 -->
<g id="node5" class="node">
<title>Node4</title>
<g id="a_node5"><a xlink:href="endian_8h.html" target="_top" xlink:title="libc header for endian conversion ">
<polygon fill="#ffffff" stroke="#000000" points="154.5,-56.5 154.5,-75.5 211.5,-75.5 211.5,-56.5 154.5,-56.5"/>
<text text-anchor="middle" x="183" y="-63.5" font-family="Helvetica,sans-Serif" font-size="10.00" fill="#000000">endian.h</text>
</a>
</g>
</g>
<!-- Node2&#45;&gt;Node4 -->
<g id="edge5" class="edge">
<title>Node2&#45;&gt;Node4</title>
<path fill="none" stroke="#191970" d="M122.7156,-112.2455C133.602,-103.8943 149.4883,-91.7076 162.22,-81.9408"/>
<polygon fill="#191970" stroke="#191970" points="164.6261,-84.5063 170.4301,-75.6427 160.3654,-78.9523 164.6261,-84.5063"/>
</g>
<!-- Node5 -->
<g id="node6" class="node">
<title>Node5</title>
<g id="a_node6"><a xlink:href="unaligned_8h.html" target="_top" xlink:title="Unaligned but safe memory access functions. ">
<polygon fill="#ffffff" stroke="#000000" points="229.5,-56.5 229.5,-75.5 300.5,-75.5 300.5,-56.5 229.5,-56.5"/>
<text text-anchor="middle" x="265" y="-63.5" font-family="Helvetica,sans-Serif" font-size="10.00" fill="#000000">unaligned.h</text>
</a>
</g>
</g>
<!-- Node2&#45;&gt;Node5 -->
<g id="edge7" class="edge">
<title>Node2&#45;&gt;Node5</title>
<path fill="none" stroke="#191970" d="M136.6454,-112.3733C162.1964,-103.1419 200.9512,-89.1402 229.1909,-78.9375"/>
<polygon fill="#191970" stroke="#191970" points="230.4865,-82.1909 238.7022,-75.5011 228.1079,-75.6074 230.4865,-82.1909"/>
</g>
<!-- Node4&#45;&gt;Node1 -->
<g id="edge6" class="edge">
<title>Node4&#45;&gt;Node1</title>
<path fill="none" stroke="#191970" d="M171.8521,-56.2455C162.4913,-48.0549 148.9142,-36.1749 137.8651,-26.5069"/>
<polygon fill="#191970" stroke="#191970" points="139.8508,-23.5937 130.0202,-19.6427 135.2412,-28.8618 139.8508,-23.5937"/>
</g>
<!-- Node5&#45;&gt;Node1 -->
<g id="edge8" class="edge">
<title>Node5&#45;&gt;Node1</title>
<path fill="none" stroke="#191970" d="M239.9017,-56.3733C216.0445,-47.2226 179.9665,-33.3844 153.429,-23.2057"/>
<polygon fill="#191970" stroke="#191970" points="154.361,-19.8145 143.7708,-19.5011 151.8541,-26.3503 154.361,-19.8145"/>
</g>
</g>
</svg>
