<?xml version="1.0" encoding="UTF-8" standalone="no"?>
<!DOCTYPE svg PUBLIC "-//W3C//DTD SVG 1.1//EN"
 "http://www.w3.org/Graphics/SVG/1.1/DTD/svg11.dtd">
<!-- Generated by graphviz version 2.40.1 (0)
 -->
<!-- Title: sys/net/link_layer/eui_provider/include/eui64_provider_params.h Pages: 1 -->
<svg width="884pt" height="386pt"
 viewBox="0.00 0.00 884.16 386.00" xmlns="http://www.w3.org/2000/svg" xmlns:xlink="http://www.w3.org/1999/xlink">
<g id="graph0" class="graph" transform="scale(1 1) rotate(0) translate(4 382)">
<title>sys/net/link_layer/eui_provider/include/eui64_provider_params.h</title>
<polygon fill="#ffffff" stroke="transparent" points="-4,4 -4,-382 880.1627,-382 880.1627,4 -4,4"/>
<!-- Node0 -->
<g id="node1" class="node">
<title>Node0</title>
<polygon fill="#bfbfbf" stroke="#000000" points="156.1627,-336.5 156.1627,-377.5 296.1627,-377.5 296.1627,-336.5 156.1627,-336.5"/>
<text text-anchor="start" x="164.1627" y="-365.5" font-family="Helvetica,sans-Serif" font-size="10.00" fill="#000000">sys/net/link_layer</text>
<text text-anchor="start" x="164.1627" y="-354.5" font-family="Helvetica,sans-Serif" font-size="10.00" fill="#000000">/eui_provider/include</text>
<text text-anchor="middle" x="226.1627" y="-343.5" font-family="Helvetica,sans-Serif" font-size="10.00" fill="#000000">/eui64_provider_params.h</text>
</g>
<!-- Node1 -->
<g id="node2" class="node">
<title>Node1</title>
<polygon fill="#ffffff" stroke="#bfbfbf" points="151.6627,-280.5 151.6627,-299.5 204.6627,-299.5 204.6627,-280.5 151.6627,-280.5"/>
<text text-anchor="middle" x="178.1627" y="-287.5" font-family="Helvetica,sans-Serif" font-size="10.00" fill="#000000">board.h</text>
</g>
<!-- Node0&#45;&gt;Node1 -->
<g id="edge1" class="edge">
<title>Node0&#45;&gt;Node1</title>
<path fill="none" stroke="#191970" d="M211.2383,-336.168C204.7839,-327.1587 197.3025,-316.7159 191.0892,-308.0432"/>
<polygon fill="#191970" stroke="#191970" points="193.8387,-305.8713 185.1696,-299.7805 188.1483,-309.948 193.8387,-305.8713"/>
</g>
<!-- Node2 -->
<g id="node3" class="node">
<title>Node2</title>
<g id="a_node3"><a xlink:href="eui__provider_8h.html" target="_top" xlink:title="EUI&#45;48 and EUI&#45;64 address provider. ">
<polygon fill="#ffffff" stroke="#000000" points="223.1627,-280.5 223.1627,-299.5 327.1627,-299.5 327.1627,-280.5 223.1627,-280.5"/>
<text text-anchor="middle" x="275.1627" y="-287.5" font-family="Helvetica,sans-Serif" font-size="10.00" fill="#000000">net/eui_provider.h</text>
</a>
</g>
</g>
<!-- Node0&#45;&gt;Node2 -->
<g id="edge2" class="edge">
<title>Node0&#45;&gt;Node2</title>
<path fill="none" stroke="#191970" d="M241.398,-336.168C247.9869,-327.1587 255.6242,-316.7159 261.9669,-308.0432"/>
<polygon fill="#191970" stroke="#191970" points="264.9317,-309.9183 268.0098,-299.7805 259.2815,-305.7861 264.9317,-309.9183"/>
</g>
<!-- Node3 -->
<g id="node4" class="node">
<title>Node3</title>
<g id="a_node4"><a xlink:href="eui48_8h.html" target="_top" xlink:title="Definition and IPv6 IID conversion for IEEE EUI&#45;48 identifiers. ">
<polygon fill="#ffffff" stroke="#000000" points="175.6627,-224.5 175.6627,-243.5 246.6627,-243.5 246.6627,-224.5 175.6627,-224.5"/>
<text text-anchor="middle" x="211.1627" y="-231.5" font-family="Helvetica,sans-Serif" font-size="10.00" fill="#000000">net/eui48.h</text>
</a>
</g>
</g>
<!-- Node2&#45;&gt;Node3 -->
<g id="edge3" class="edge">
<title>Node2&#45;&gt;Node3</title>
<path fill="none" stroke="#191970" d="M264.0148,-280.2455C254.654,-272.0549 241.0769,-260.1749 230.0278,-250.5069"/>
<polygon fill="#191970" stroke="#191970" points="232.0135,-247.5937 222.1829,-243.6427 227.4039,-252.8618 232.0135,-247.5937"/>
</g>
<!-- Node5 -->
<g id="node6" class="node">
<title>Node5</title>
<g id="a_node6"><a xlink:href="eui64_8h.html" target="_top" xlink:title="EUI&#45;64 data type definition. ">
<polygon fill="#ffffff" stroke="#000000" points="207.6627,-168.5 207.6627,-187.5 278.6627,-187.5 278.6627,-168.5 207.6627,-168.5"/>
<text text-anchor="middle" x="243.1627" y="-175.5" font-family="Helvetica,sans-Serif" font-size="10.00" fill="#000000">net/eui64.h</text>
</a>
</g>
</g>
<!-- Node2&#45;&gt;Node5 -->
<g id="edge14" class="edge">
<title>Node2&#45;&gt;Node5</title>
<path fill="none" stroke="#191970" d="M272.4344,-280.4509C267.1917,-262.1013 255.6172,-221.5908 248.6968,-197.3693"/>
<polygon fill="#191970" stroke="#191970" points="251.9967,-196.1786 245.8841,-187.5249 245.2661,-198.1017 251.9967,-196.1786"/>
</g>
<!-- Node10 -->
<g id="node11" class="node">
<title>Node10</title>
<g id="a_node11"><a xlink:href="drivers_2include_2net_2netdev_8h.html" target="_top" xlink:title="Definitions low&#45;level network driver interface. ">
<polygon fill="#ffffff" stroke="#000000" points="478.6627,-224.5 478.6627,-243.5 555.6627,-243.5 555.6627,-224.5 478.6627,-224.5"/>
<text text-anchor="middle" x="517.1627" y="-231.5" font-family="Helvetica,sans-Serif" font-size="10.00" fill="#000000">net/netdev.h</text>
</a>
</g>
</g>
<!-- Node2&#45;&gt;Node10 -->
<g id="edge15" class="edge">
<title>Node2&#45;&gt;Node10</title>
<path fill="none" stroke="#191970" d="M316.489,-280.4369C358.5699,-270.6992 423.7944,-255.6059 468.3836,-245.2877"/>
<polygon fill="#191970" stroke="#191970" points="469.4536,-248.6327 478.4071,-242.9682 467.8754,-241.8129 469.4536,-248.6327"/>
</g>
<!-- Node4 -->
<g id="node5" class="node">
<title>Node4</title>
<polygon fill="#ffffff" stroke="#bfbfbf" points="357.1627,-.5 357.1627,-19.5 409.1627,-19.5 409.1627,-.5 357.1627,-.5"/>
<text text-anchor="middle" x="383.1627" y="-7.5" font-family="Helvetica,sans-Serif" font-size="10.00" fill="#000000">stdint.h</text>
</g>
<!-- Node3&#45;&gt;Node4 -->
<g id="edge4" class="edge">
<title>Node3&#45;&gt;Node4</title>
<path fill="none" stroke="#191970" d="M184.3604,-224.4273C117.1725,-199.0617 -48.6906,-127.1752 14.1627,-56 36.0035,-31.2675 258.2898,-16.7009 346.9444,-11.8365"/>
<polygon fill="#191970" stroke="#191970" points="347.2737,-15.3239 357.0711,-11.2914 346.8973,-8.3341 347.2737,-15.3239"/>
</g>
<!-- Node3&#45;&gt;Node5 -->
<g id="edge5" class="edge">
<title>Node3&#45;&gt;Node5</title>
<path fill="none" stroke="#191970" d="M216.7367,-224.2455C221.0958,-216.617 227.2838,-205.7881 232.576,-196.5267"/>
<polygon fill="#191970" stroke="#191970" points="235.73,-198.0616 237.6526,-187.6427 229.6523,-194.5886 235.73,-198.0616"/>
</g>
<!-- Node5&#45;&gt;Node4 -->
<g id="edge6" class="edge">
<title>Node5&#45;&gt;Node4</title>
<path fill="none" stroke="#191970" d="M249.1206,-168.2788C262.4559,-146.8771 296.2846,-94.5281 331.1627,-56 340.8949,-45.2493 352.9648,-34.4435 363.0255,-26.0089"/>
<polygon fill="#191970" stroke="#191970" points="365.4019,-28.5863 370.9085,-19.5349 360.9592,-23.1768 365.4019,-28.5863"/>
</g>
<!-- Node6 -->
<g id="node7" class="node">
<title>Node6</title>
<g id="a_node7"><a xlink:href="byteorder_8h.html" target="_top" xlink:title="Functions to work with different byte orders. ">
<polygon fill="#ffffff" stroke="#000000" points="168.6627,-112.5 168.6627,-131.5 241.6627,-131.5 241.6627,-112.5 168.6627,-112.5"/>
<text text-anchor="middle" x="205.1627" y="-119.5" font-family="Helvetica,sans-Serif" font-size="10.00" fill="#000000">byteorder.h</text>
</a>
</g>
</g>
<!-- Node5&#45;&gt;Node6 -->
<g id="edge7" class="edge">
<title>Node5&#45;&gt;Node6</title>
<path fill="none" stroke="#191970" d="M236.5436,-168.2455C231.2581,-160.4564 223.7086,-149.3308 217.339,-139.9439"/>
<polygon fill="#191970" stroke="#191970" points="220.2172,-137.9522 211.706,-131.6427 214.4248,-141.8827 220.2172,-137.9522"/>
</g>
<!-- Node6&#45;&gt;Node4 -->
<g id="edge9" class="edge">
<title>Node6&#45;&gt;Node4</title>
<path fill="none" stroke="#191970" d="M216.6616,-112.3652C233.0458,-98.8765 264.3258,-73.999 293.1627,-56 312.2539,-44.0839 334.8046,-32.5622 352.5571,-24.0304"/>
<polygon fill="#191970" stroke="#191970" points="354.3362,-27.0605 361.8735,-19.6146 351.338,-20.735 354.3362,-27.0605"/>
</g>
<!-- Node7 -->
<g id="node8" class="node">
<title>Node7</title>
<polygon fill="#ffffff" stroke="#bfbfbf" points="98.6627,-56.5 98.6627,-75.5 151.6627,-75.5 151.6627,-56.5 98.6627,-56.5"/>
<text text-anchor="middle" x="125.1627" y="-63.5" font-family="Helvetica,sans-Serif" font-size="10.00" fill="#000000">string.h</text>
</g>
<!-- Node6&#45;&gt;Node7 -->
<g id="edge8" class="edge">
<title>Node6&#45;&gt;Node7</title>
<path fill="none" stroke="#191970" d="M191.2278,-112.2455C179.068,-103.7337 161.2163,-91.2375 147.1343,-81.3801"/>
<polygon fill="#191970" stroke="#191970" points="149.1374,-78.51 138.938,-75.6427 145.1232,-84.2447 149.1374,-78.51"/>
</g>
<!-- Node8 -->
<g id="node9" class="node">
<title>Node8</title>
<g id="a_node9"><a xlink:href="endian_8h.html" target="_top" xlink:title="libc header for endian conversion ">
<polygon fill="#ffffff" stroke="#000000" points="23.6627,-56.5 23.6627,-75.5 80.6627,-75.5 80.6627,-56.5 23.6627,-56.5"/>
<text text-anchor="middle" x="52.1627" y="-63.5" font-family="Helvetica,sans-Serif" font-size="10.00" fill="#000000">endian.h</text>
</a>
</g>
</g>
<!-- Node6&#45;&gt;Node8 -->
<g id="edge10" class="edge">
<title>Node6&#45;&gt;Node8</title>
<path fill="none" stroke="#191970" d="M178.8611,-112.3733C153.7499,-103.1822 115.7189,-89.2624 87.8755,-79.0713"/>
<polygon fill="#191970" stroke="#191970" points="88.7149,-75.6516 78.1211,-75.5011 86.3089,-82.2251 88.7149,-75.6516"/>
</g>
<!-- Node9 -->
<g id="node10" class="node">
<title>Node9</title>
<g id="a_node10"><a xlink:href="unaligned_8h.html" target="_top" xlink:title="Unaligned but safe memory access functions. ">
<polygon fill="#ffffff" stroke="#000000" points="169.6627,-56.5 169.6627,-75.5 240.6627,-75.5 240.6627,-56.5 169.6627,-56.5"/>
<text text-anchor="middle" x="205.1627" y="-63.5" font-family="Helvetica,sans-Serif" font-size="10.00" fill="#000000">unaligned.h</text>
</a>
</g>
</g>
<!-- Node6&#45;&gt;Node9 -->
<g id="edge12" class="edge">
<title>Node6&#45;&gt;Node9</title>
<path fill="none" stroke="#191970" d="M205.1627,-112.2455C205.1627,-104.9382 205.1627,-94.6944 205.1627,-85.7046"/>
<polygon fill="#191970" stroke="#191970" points="208.6628,-85.6426 205.1627,-75.6427 201.6628,-85.6427 208.6628,-85.6426"/>
</g>
<!-- Node8&#45;&gt;Node4 -->
<g id="edge11" class="edge">
<title>Node8&#45;&gt;Node4</title>
<path fill="none" stroke="#191970" d="M80.7712,-57.9381C83.5966,-57.2413 86.4291,-56.5814 89.1627,-56 181.2595,-36.4103 291.2354,-21.3988 346.9545,-14.3757"/>
<polygon fill="#191970" stroke="#191970" points="347.5425,-17.8295 357.0322,-13.1182 346.6758,-10.8834 347.5425,-17.8295"/>
</g>
<!-- Node9&#45;&gt;Node4 -->
<g id="edge13" class="edge">
<title>Node9&#45;&gt;Node4</title>
<path fill="none" stroke="#191970" d="M235.762,-56.3733C266.75,-46.6242 314.6494,-31.5547 347.3774,-21.2583"/>
<polygon fill="#191970" stroke="#191970" points="348.5231,-24.5671 357.0118,-18.2273 346.4223,-17.8897 348.5231,-24.5671"/>
</g>
<!-- Node10&#45;&gt;Node4 -->
<g id="edge16" class="edge">
<title>Node10&#45;&gt;Node4</title>
<path fill="none" stroke="#191970" d="M478.6491,-224.4717C446.4097,-215.6769 403.9836,-201.9095 393.1627,-188 356.9782,-141.4874 369.0853,-65.7027 377.6671,-29.9146"/>
<polygon fill="#191970" stroke="#191970" points="381.1701,-30.3443 380.2638,-19.7883 374.3895,-28.6054 381.1701,-30.3443"/>
</g>
<!-- Node11 -->
<g id="node12" class="node">
<title>Node11</title>
<g id="a_node12"><a xlink:href="errno_8h.html" target="_top" xlink:title="errno.h">
<polygon fill="#ffffff" stroke="#000000" points="723.6627,-168.5 723.6627,-187.5 776.6627,-187.5 776.6627,-168.5 723.6627,-168.5"/>
<text text-anchor="middle" x="750.1627" y="-175.5" font-family="Helvetica,sans-Serif" font-size="10.00" fill="#000000">errno.h</text>
</a>
</g>
</g>
<!-- Node10&#45;&gt;Node11 -->
<g id="edge17" class="edge">
<title>Node10&#45;&gt;Node11</title>
<path fill="none" stroke="#191970" d="M556.0015,-225.5795C593.9146,-217.2262 653.4609,-203.7537 713.4313,-188.3685"/>
<polygon fill="#191970" stroke="#191970" points="714.6402,-191.6712 723.4473,-185.7818 712.8898,-184.8936 714.6402,-191.6712"/>
</g>
<!-- Node12 -->
<g id="node13" class="node">
<title>Node12</title>
<g id="a_node13"><a xlink:href="iolist_8h.html" target="_top" xlink:title="iolist scatter / gather IO ">
<polygon fill="#ffffff" stroke="#000000" points="658.6627,-168.5 658.6627,-187.5 705.6627,-187.5 705.6627,-168.5 658.6627,-168.5"/>
<text text-anchor="middle" x="682.1627" y="-175.5" font-family="Helvetica,sans-Serif" font-size="10.00" fill="#000000">iolist.h</text>
</a>
</g>
</g>
<!-- Node10&#45;&gt;Node12 -->
<g id="edge18" class="edge">
<title>Node10&#45;&gt;Node12</title>
<path fill="none" stroke="#191970" d="M545.5272,-224.3733C574.17,-214.6521 618.3996,-199.6408 648.7306,-189.3467"/>
<polygon fill="#191970" stroke="#191970" points="650.0967,-192.5792 658.4413,-186.0509 647.8469,-185.9505 650.0967,-192.5792"/>
</g>
<!-- Node16 -->
<g id="node17" class="node">
<title>Node16</title>
<g id="a_node17"><a xlink:href="netopt_8h.html" target="_top" xlink:title="Definition of global configuration options. ">
<polygon fill="#ffffff" stroke="#000000" points="402.6627,-168.5 402.6627,-187.5 479.6627,-187.5 479.6627,-168.5 402.6627,-168.5"/>
<text text-anchor="middle" x="441.1627" y="-175.5" font-family="Helvetica,sans-Serif" font-size="10.00" fill="#000000">net/netopt.h</text>
</a>
</g>
</g>
<!-- Node10&#45;&gt;Node16 -->
<g id="edge25" class="edge">
<title>Node10&#45;&gt;Node16</title>
<path fill="none" stroke="#191970" d="M503.9245,-224.2455C492.4817,-215.814 475.7331,-203.4729 462.4152,-193.6598"/>
<polygon fill="#191970" stroke="#191970" points="464.376,-190.757 454.2492,-187.6427 460.2236,-196.3924 464.376,-190.757"/>
</g>
<!-- Node18 -->
<g id="node19" class="node">
<title>Node18</title>
<g id="a_node19"><a xlink:href="kernel__defines_8h.html" target="_top" xlink:title="Common macros and compiler attributes/pragmas configuration. ">
<polygon fill="#ffffff" stroke="#000000" points="545.6627,-168.5 545.6627,-187.5 640.6627,-187.5 640.6627,-168.5 545.6627,-168.5"/>
<text text-anchor="middle" x="593.1627" y="-175.5" font-family="Helvetica,sans-Serif" font-size="10.00" fill="#000000">kernel_defines.h</text>
</a>
</g>
</g>
<!-- Node10&#45;&gt;Node18 -->
<g id="edge28" class="edge">
<title>Node10&#45;&gt;Node18</title>
<path fill="none" stroke="#191970" d="M530.4009,-224.2455C541.8437,-215.814 558.5923,-203.4729 571.9102,-193.6598"/>
<polygon fill="#191970" stroke="#191970" points="574.1019,-196.3924 580.0762,-187.6427 569.9494,-190.757 574.1019,-196.3924"/>
</g>
<!-- Node13 -->
<g id="node14" class="node">
<title>Node13</title>
<g id="a_node14"><a xlink:href="unistd_8h_source.html" target="_top" xlink:title="unistd.h">
<polygon fill="#ffffff" stroke="#000000" points="822.1627,-112.5 822.1627,-131.5 876.1627,-131.5 876.1627,-112.5 822.1627,-112.5"/>
<text text-anchor="middle" x="849.1627" y="-119.5" font-family="Helvetica,sans-Serif" font-size="10.00" fill="#000000">unistd.h</text>
</a>
</g>
</g>
<!-- Node12&#45;&gt;Node13 -->
<g id="edge19" class="edge">
<title>Node12&#45;&gt;Node13</title>
<path fill="none" stroke="#191970" d="M705.7355,-170.0953C733.5204,-160.7783 780.0159,-145.187 812.5132,-134.2896"/>
<polygon fill="#191970" stroke="#191970" points="813.7446,-137.5683 822.113,-131.0706 811.5191,-130.9315 813.7446,-137.5683"/>
</g>
<!-- Node13&#45;&gt;Node4 -->
<g id="edge21" class="edge">
<title>Node13&#45;&gt;Node4</title>
<path fill="none" stroke="#191970" d="M825.8103,-112.3756C804.2028,-103.3503 771.2736,-89.2906 743.1627,-76 725.5521,-67.6739 722.7251,-61.907 704.1627,-56 604.21,-24.1925 479.7205,-14.3182 419.3517,-11.2993"/>
<polygon fill="#191970" stroke="#191970" points="419.3424,-7.7951 409.1905,-10.8264 419.0169,-14.7876 419.3424,-7.7951"/>
</g>
<!-- Node14 -->
<g id="node15" class="node">
<title>Node14</title>
<polygon fill="#ffffff" stroke="#bfbfbf" points="758.1627,-.5 758.1627,-19.5 814.1627,-19.5 814.1627,-.5 758.1627,-.5"/>
<text text-anchor="middle" x="786.1627" y="-7.5" font-family="Helvetica,sans-Serif" font-size="10.00" fill="#000000">stddef.h</text>
</g>
<!-- Node13&#45;&gt;Node14 -->
<g id="edge20" class="edge">
<title>Node13&#45;&gt;Node14</title>
<path fill="none" stroke="#191970" d="M847.892,-112.477C845.7943,-99.121 840.7406,-74.4004 830.1627,-56 823.8373,-44.9969 814.3322,-34.6085 805.7732,-26.4976"/>
<polygon fill="#191970" stroke="#191970" points="808.0619,-23.8484 798.2973,-19.7369 803.3667,-29.0402 808.0619,-23.8484"/>
</g>
<!-- Node15 -->
<g id="node16" class="node">
<title>Node15</title>
<g id="a_node16"><a xlink:href="cpu_2avr8__common_2avr__libc__extra_2include_2sys_2types_8h_source.html" target="_top" xlink:title="sys/types.h">
<polygon fill="#ffffff" stroke="#000000" points="751.6627,-56.5 751.6627,-75.5 820.6627,-75.5 820.6627,-56.5 751.6627,-56.5"/>
<text text-anchor="middle" x="786.1627" y="-63.5" font-family="Helvetica,sans-Serif" font-size="10.00" fill="#000000">sys/types.h</text>
</a>
</g>
</g>
<!-- Node13&#45;&gt;Node15 -->
<g id="edge22" class="edge">
<title>Node13&#45;&gt;Node15</title>
<path fill="none" stroke="#191970" d="M838.1889,-112.2455C828.9745,-104.0549 815.6095,-92.1749 804.733,-82.5069"/>
<polygon fill="#191970" stroke="#191970" points="806.8101,-79.6704 797.0107,-75.6427 802.1595,-84.9023 806.8101,-79.6704"/>
</g>
<!-- Node15&#45;&gt;Node4 -->
<g id="edge23" class="edge">
<title>Node15&#45;&gt;Node4</title>
<path fill="none" stroke="#191970" d="M751.4216,-58.5879C746.6411,-57.6622 741.7873,-56.7713 737.1627,-56 621.6385,-36.7318 483.7654,-20.8439 419.4932,-13.8457"/>
<polygon fill="#191970" stroke="#191970" points="419.7784,-10.3562 409.46,-12.7605 419.0256,-17.3156 419.7784,-10.3562"/>
</g>
<!-- Node15&#45;&gt;Node14 -->
<g id="edge24" class="edge">
<title>Node15&#45;&gt;Node14</title>
<path fill="none" stroke="#191970" d="M786.1627,-56.2455C786.1627,-48.9382 786.1627,-38.6944 786.1627,-29.7046"/>
<polygon fill="#191970" stroke="#191970" points="789.6628,-29.6426 786.1627,-19.6427 782.6628,-29.6427 789.6628,-29.6426"/>
</g>
<!-- Node16&#45;&gt;Node4 -->
<g id="edge26" class="edge">
<title>Node16&#45;&gt;Node4</title>
<path fill="none" stroke="#191970" d="M429.9996,-168.2176C420.9606,-159.6208 408.6935,-146.2828 402.1627,-132 386.7801,-98.3581 383.5025,-54.6338 383,-29.7076"/>
<polygon fill="#191970" stroke="#191970" points="386.4998,-29.6572 382.9309,-19.6816 379.5,-29.7055 386.4998,-29.6572"/>
</g>
<!-- Node17 -->
<g id="node18" class="node">
<title>Node17</title>
<polygon fill="#ffffff" stroke="#bfbfbf" points="411.1627,-112.5 411.1627,-131.5 471.1627,-131.5 471.1627,-112.5 411.1627,-112.5"/>
<text text-anchor="middle" x="441.1627" y="-119.5" font-family="Helvetica,sans-Serif" font-size="10.00" fill="#000000">stdbool.h</text>
</g>
<!-- Node16&#45;&gt;Node17 -->
<g id="edge27" class="edge">
<title>Node16&#45;&gt;Node17</title>
<path fill="none" stroke="#191970" d="M441.1627,-168.2455C441.1627,-160.9382 441.1627,-150.6944 441.1627,-141.7046"/>
<polygon fill="#191970" stroke="#191970" points="444.6628,-141.6426 441.1627,-131.6427 437.6628,-141.6427 444.6628,-141.6426"/>
</g>
<!-- Node19 -->
<g id="node20" class="node">
<title>Node19</title>
<g id="a_node20"><a xlink:href="modules_8h.html" target="_top" xlink:title="Common macros and compiler attributes/pragmas configuration. ">
<polygon fill="#ffffff" stroke="#000000" points="738.6627,-112.5 738.6627,-131.5 803.6627,-131.5 803.6627,-112.5 738.6627,-112.5"/>
<text text-anchor="middle" x="771.1627" y="-119.5" font-family="Helvetica,sans-Serif" font-size="10.00" fill="#000000">modules.h</text>
</a>
</g>
</g>
<!-- Node18&#45;&gt;Node19 -->
<g id="edge29" class="edge">
<title>Node18&#45;&gt;Node19</title>
<path fill="none" stroke="#191970" d="M623.762,-168.3733C653.4888,-159.021 698.7786,-144.7725 731.3083,-134.5385"/>
<polygon fill="#191970" stroke="#191970" points="732.474,-137.8409 740.9627,-131.5011 730.3733,-131.1636 732.474,-137.8409"/>
</g>
<!-- Node20 -->
<g id="node21" class="node">
<title>Node20</title>
<g id="a_node21"><a xlink:href="riot__version_8h.html" target="_top" xlink:title="Common macros and compiler attributes/pragmas configuration. ">
<polygon fill="#ffffff" stroke="#000000" points="600.6627,-112.5 600.6627,-131.5 681.6627,-131.5 681.6627,-112.5 600.6627,-112.5"/>
<text text-anchor="middle" x="641.1627" y="-119.5" font-family="Helvetica,sans-Serif" font-size="10.00" fill="#000000">riot_version.h</text>
</a>
</g>
</g>
<!-- Node18&#45;&gt;Node20 -->
<g id="edge30" class="edge">
<title>Node18&#45;&gt;Node20</title>
<path fill="none" stroke="#191970" d="M601.5237,-168.2455C608.3377,-160.2958 618.1308,-148.8706 626.2779,-139.3656"/>
<polygon fill="#191970" stroke="#191970" points="629.047,-141.513 632.8976,-131.6427 623.7322,-136.9575 629.047,-141.513"/>
</g>
<!-- Node21 -->
<g id="node22" class="node">
<title>Node21</title>
<g id="a_node22"><a xlink:href="compiler__hints_8h.html" target="_top" xlink:title="Common macros and compiler attributes/pragmas configuration. ">
<polygon fill="#ffffff" stroke="#000000" points="489.6627,-112.5 489.6627,-131.5 582.6627,-131.5 582.6627,-112.5 489.6627,-112.5"/>
<text text-anchor="middle" x="536.1627" y="-119.5" font-family="Helvetica,sans-Serif" font-size="10.00" fill="#000000">compiler_hints.h</text>
</a>
</g>
</g>
<!-- Node18&#45;&gt;Node21 -->
<g id="edge32" class="edge">
<title>Node18&#45;&gt;Node21</title>
<path fill="none" stroke="#191970" d="M583.2341,-168.2455C574.9789,-160.1352 563.0418,-148.4075 553.2545,-138.7919"/>
<polygon fill="#191970" stroke="#191970" points="555.5639,-136.1542 545.9776,-131.6427 550.6581,-141.1476 555.5639,-136.1542"/>
</g>
<!-- Node23 -->
<g id="node24" class="node">
<title>Node23</title>
<g id="a_node24"><a xlink:href="container_8h.html" target="_top" xlink:title="Common macros and compiler attributes/pragmas configuration. ">
<polygon fill="#ffffff" stroke="#000000" points="625.6627,-56.5 625.6627,-75.5 694.6627,-75.5 694.6627,-56.5 625.6627,-56.5"/>
<text text-anchor="middle" x="660.1627" y="-63.5" font-family="Helvetica,sans-Serif" font-size="10.00" fill="#000000">container.h</text>
</a>
</g>
</g>
<!-- Node18&#45;&gt;Node23 -->
<g id="edge36" class="edge">
<title>Node18&#45;&gt;Node23</title>
<path fill="none" stroke="#191970" d="M638.0343,-168.4588C657.8875,-161.7646 679.3709,-150.5612 691.1627,-132 701.0567,-116.4261 689.6363,-97.1923 677.9644,-83.5142"/>
<polygon fill="#191970" stroke="#191970" points="680.2037,-80.7793 670.8529,-75.798 675.0563,-85.5233 680.2037,-80.7793"/>
</g>
<!-- Node20&#45;&gt;Node4 -->
<g id="edge31" class="edge">
<title>Node20&#45;&gt;Node4</title>
<path fill="none" stroke="#191970" d="M623.5324,-112.3787C598.5023,-98.9058 551.0465,-74.0472 509.1627,-56 479.3321,-43.1464 444.6025,-30.6435 419.1684,-21.925"/>
<polygon fill="#191970" stroke="#191970" points="420.1587,-18.565 409.5643,-18.6611 417.9063,-25.1927 420.1587,-18.565"/>
</g>
<!-- Node21&#45;&gt;Node4 -->
<g id="edge35" class="edge">
<title>Node21&#45;&gt;Node4</title>
<path fill="none" stroke="#191970" d="M530.7561,-112.2735C522.5234,-98.2191 505.6208,-72.1511 485.1627,-56 465.5084,-40.4834 439.7851,-28.9299 419.0883,-21.2825"/>
<polygon fill="#191970" stroke="#191970" points="419.9752,-17.8836 409.3804,-17.8419 417.6368,-24.4815 419.9752,-17.8836"/>
</g>
<!-- Node22 -->
<g id="node23" class="node">
<title>Node22</title>
<g id="a_node23"><a xlink:href="assert_8h.html" target="_top" xlink:title="POSIX.1&#45;2008 compliant version of the assert macro. ">
<polygon fill="#ffffff" stroke="#000000" points="422.1627,-56.5 422.1627,-75.5 476.1627,-75.5 476.1627,-56.5 422.1627,-56.5"/>
<text text-anchor="middle" x="449.1627" y="-63.5" font-family="Helvetica,sans-Serif" font-size="10.00" fill="#000000">assert.h</text>
</a>
</g>
</g>
<!-- Node21&#45;&gt;Node22 -->
<g id="edge33" class="edge">
<title>Node21&#45;&gt;Node22</title>
<path fill="none" stroke="#191970" d="M521.0085,-112.2455C507.66,-103.6534 488.0041,-91.0014 472.6244,-81.1018"/>
<polygon fill="#191970" stroke="#191970" points="474.4463,-78.1121 464.1433,-75.6427 470.6576,-83.9982 474.4463,-78.1121"/>
</g>
<!-- Node22&#45;&gt;Node4 -->
<g id="edge34" class="edge">
<title>Node22&#45;&gt;Node4</title>
<path fill="none" stroke="#191970" d="M437.6664,-56.2455C427.9185,-47.9746 413.7368,-35.9416 402.2829,-26.2232"/>
<polygon fill="#191970" stroke="#191970" points="404.4168,-23.4437 394.5273,-19.6427 399.888,-28.7813 404.4168,-23.4437"/>
</g>
<!-- Node23&#45;&gt;Node4 -->
<g id="edge38" class="edge">
<title>Node23&#45;&gt;Node4</title>
<path fill="none" stroke="#191970" d="M625.6405,-59.0208C573.0223,-48.3832 473.2188,-28.2063 419.5244,-17.3511"/>
<polygon fill="#191970" stroke="#191970" points="419.9232,-13.861 409.428,-15.3099 418.5361,-20.7222 419.9232,-13.861"/>
</g>
<!-- Node23&#45;&gt;Node14 -->
<g id="edge37" class="edge">
<title>Node23&#45;&gt;Node14</title>
<path fill="none" stroke="#191970" d="M681.8229,-56.3733C702.1399,-47.3435 732.7267,-33.7494 755.5377,-23.6111"/>
<polygon fill="#191970" stroke="#191970" points="757.0686,-26.7609 764.7852,-19.5011 754.2256,-20.3642 757.0686,-26.7609"/>
</g>
</g>
</svg>
