<?xml version="1.0" encoding="UTF-8" standalone="no"?>
<!DOCTYPE svg PUBLIC "-//W3C//DTD SVG 1.1//EN"
 "http://www.w3.org/Graphics/SVG/1.1/DTD/svg11.dtd">
<!-- Generated by graphviz version 2.40.1 (0)
 -->
<!-- Title: cpu/stm32/include/fdcandev_stm32.h Pages: 1 -->
<svg width="1319pt" height="543pt"
 viewBox="0.00 0.00 1319.00 543.00" xmlns="http://www.w3.org/2000/svg" xmlns:xlink="http://www.w3.org/1999/xlink">
<g id="graph0" class="graph" transform="scale(1 1) rotate(0) translate(4 539)">
<title>cpu/stm32/include/fdcandev_stm32.h</title>
<polygon fill="#ffffff" stroke="transparent" points="-4,4 -4,-539 1315,-539 1315,4 -4,4"/>
<!-- Node0 -->
<g id="node1" class="node">
<title>Node0</title>
<polygon fill="#bfbfbf" stroke="#000000" points="788.5,-504.5 788.5,-534.5 937.5,-534.5 937.5,-504.5 788.5,-504.5"/>
<text text-anchor="start" x="796.5" y="-522.5" font-family="Helvetica,sans-Serif" font-size="10.00" fill="#000000">cpu/stm32/include/fdcandev</text>
<text text-anchor="middle" x="863" y="-511.5" font-family="Helvetica,sans-Serif" font-size="10.00" fill="#000000">_stm32.h</text>
</g>
<!-- Node1 -->
<g id="node2" class="node">
<title>Node1</title>
<g id="a_node2"><a xlink:href="candev_8h.html" target="_top" xlink:title="Definitions for low&#45;level CAN driver interface. ">
<polygon fill="#ffffff" stroke="#000000" points="824.5,-448.5 824.5,-467.5 901.5,-467.5 901.5,-448.5 824.5,-448.5"/>
<text text-anchor="middle" x="863" y="-455.5" font-family="Helvetica,sans-Serif" font-size="10.00" fill="#000000">can/candev.h</text>
</a>
</g>
</g>
<!-- Node0&#45;&gt;Node1 -->
<g id="edge1" class="edge">
<title>Node0&#45;&gt;Node1</title>
<path fill="none" stroke="#191970" d="M863,-504.2977C863,-496.3834 863,-486.6043 863,-478.0759"/>
<polygon fill="#191970" stroke="#191970" points="866.5001,-477.8469 863,-467.8469 859.5001,-477.847 866.5001,-477.8469"/>
</g>
<!-- Node2 -->
<g id="node3" class="node">
<title>Node2</title>
<polygon fill="#ffffff" stroke="#bfbfbf" points="617,-.5 617,-19.5 669,-19.5 669,-.5 617,-.5"/>
<text text-anchor="middle" x="643" y="-7.5" font-family="Helvetica,sans-Serif" font-size="10.00" fill="#000000">stdint.h</text>
</g>
<!-- Node1&#45;&gt;Node2 -->
<g id="edge2" class="edge">
<title>Node1&#45;&gt;Node2</title>
<path fill="none" stroke="#191970" d="M901.584,-456.587C1010.2525,-451.5673 1311,-430.0799 1311,-346 1311,-346 1311,-346 1311,-122 1311,-47.943 1229.7882,-74.1907 1158,-56 1067.0252,-32.9476 781.0801,-16.8642 679.3616,-11.7449"/>
<polygon fill="#191970" stroke="#191970" points="679.433,-8.2442 669.2714,-11.2428 679.085,-15.2356 679.433,-8.2442"/>
</g>
<!-- Node3 -->
<g id="node4" class="node">
<title>Node3</title>
<polygon fill="#ffffff" stroke="#bfbfbf" points="246,-168.5 246,-187.5 296,-187.5 296,-168.5 246,-168.5"/>
<text text-anchor="middle" x="271" y="-175.5" font-family="Helvetica,sans-Serif" font-size="10.00" fill="#000000">stdlib.h</text>
</g>
<!-- Node1&#45;&gt;Node3 -->
<g id="edge3" class="edge">
<title>Node1&#45;&gt;Node3</title>
<path fill="none" stroke="#191970" d="M824.4721,-457.425C708.7234,-454.6669 372,-438.6786 372,-346 372,-346 372,-346 372,-290 372,-245.8652 328.2112,-211.2933 298.2988,-192.8258"/>
<polygon fill="#191970" stroke="#191970" points="299.9108,-189.7126 289.525,-187.6188 296.3383,-195.7323 299.9108,-189.7126"/>
</g>
<!-- Node4 -->
<g id="node5" class="node">
<title>Node4</title>
<g id="a_node5"><a xlink:href="sys_2include_2can_2can_8h.html" target="_top" xlink:title="Definitions high&#45;level CAN interface. ">
<polygon fill="#ffffff" stroke="#000000" points="1221.5,-336.5 1221.5,-355.5 1282.5,-355.5 1282.5,-336.5 1221.5,-336.5"/>
<text text-anchor="middle" x="1252" y="-343.5" font-family="Helvetica,sans-Serif" font-size="10.00" fill="#000000">can/can.h</text>
</a>
</g>
</g>
<!-- Node1&#45;&gt;Node4 -->
<g id="edge4" class="edge">
<title>Node1&#45;&gt;Node4</title>
<path fill="none" stroke="#191970" d="M896.1659,-448.4509C967.2923,-427.9724 1134.284,-379.8925 1211.5139,-357.6567"/>
<polygon fill="#191970" stroke="#191970" points="1212.7154,-360.953 1221.3566,-354.8228 1210.7786,-354.2263 1212.7154,-360.953"/>
</g>
<!-- Node5 -->
<g id="node6" class="node">
<title>Node5</title>
<g id="a_node6"><a xlink:href="sys_2include_2can_2common_8h.html" target="_top" xlink:title="Definitions of high&#45;level CAN interface. ">
<polygon fill="#ffffff" stroke="#000000" points="150,-280.5 150,-299.5 236,-299.5 236,-280.5 150,-280.5"/>
<text text-anchor="middle" x="193" y="-287.5" font-family="Helvetica,sans-Serif" font-size="10.00" fill="#000000">can/common.h</text>
</a>
</g>
</g>
<!-- Node1&#45;&gt;Node5 -->
<g id="edge6" class="edge">
<title>Node1&#45;&gt;Node5</title>
<path fill="none" stroke="#191970" d="M824.3109,-457.1621C721.4506,-454.5105 443.2585,-444.4579 358,-412 295.8781,-388.3502 236.6612,-334.3674 209.1141,-306.83"/>
<polygon fill="#191970" stroke="#191970" points="211.4166,-304.1796 201.9098,-299.5028 206.4251,-309.0873 211.4166,-304.1796"/>
</g>
<!-- Node12 -->
<g id="node13" class="node">
<title>Node12</title>
<g id="a_node13"><a xlink:href="mutex_8h.html" target="_top" xlink:title="Mutex for thread synchronization. ">
<polygon fill="#ffffff" stroke="#000000" points="835,-392.5 835,-411.5 891,-411.5 891,-392.5 835,-392.5"/>
<text text-anchor="middle" x="863" y="-399.5" font-family="Helvetica,sans-Serif" font-size="10.00" fill="#000000">mutex.h</text>
</a>
</g>
</g>
<!-- Node1&#45;&gt;Node12 -->
<g id="edge16" class="edge">
<title>Node1&#45;&gt;Node12</title>
<path fill="none" stroke="#191970" d="M863,-448.2455C863,-440.9382 863,-430.6944 863,-421.7046"/>
<polygon fill="#191970" stroke="#191970" points="866.5001,-421.6426 863,-411.6427 859.5001,-421.6427 866.5001,-421.6426"/>
</g>
<!-- Node4&#45;&gt;Node2 -->
<g id="edge5" class="edge">
<title>Node4&#45;&gt;Node2</title>
<path fill="none" stroke="#191970" d="M1250.5672,-336.4373C1247.8022,-317.1257 1242,-272.0675 1242,-234 1242,-234 1242,-234 1242,-122 1242,-39.7057 1149.0129,-75.2426 1069,-56 927.6816,-22.0138 753.9212,-13.1102 679.5651,-10.7993"/>
<polygon fill="#191970" stroke="#191970" points="679.4283,-7.294 669.3315,-10.504 679.2263,-14.2911 679.4283,-7.294"/>
</g>
<!-- Node5&#45;&gt;Node2 -->
<g id="edge7" class="edge">
<title>Node5&#45;&gt;Node2</title>
<path fill="none" stroke="#191970" d="M149.687,-284.2623C92.7842,-274.0153 0,-246.7638 0,-178 0,-178 0,-178 0,-122 0,-59.9422 470.8542,-22.079 606.7127,-12.4458"/>
<polygon fill="#191970" stroke="#191970" points="607.2663,-15.9157 616.9973,-11.7253 606.7771,-8.9328 607.2663,-15.9157"/>
</g>
<!-- Node6 -->
<g id="node7" class="node">
<title>Node6</title>
<g id="a_node7"><a xlink:href="uio_8h.html" target="_top" xlink:title="libc header for scatter/gather I/O ">
<polygon fill="#ffffff" stroke="#000000" points="164,-224.5 164,-243.5 222,-243.5 222,-224.5 164,-224.5"/>
<text text-anchor="middle" x="193" y="-231.5" font-family="Helvetica,sans-Serif" font-size="10.00" fill="#000000">sys/uio.h</text>
</a>
</g>
</g>
<!-- Node5&#45;&gt;Node6 -->
<g id="edge8" class="edge">
<title>Node5&#45;&gt;Node6</title>
<path fill="none" stroke="#191970" d="M193,-280.2455C193,-272.9382 193,-262.6944 193,-253.7046"/>
<polygon fill="#191970" stroke="#191970" points="196.5001,-253.6426 193,-243.6427 189.5001,-253.6427 196.5001,-253.6426"/>
</g>
<!-- Node8 -->
<g id="node9" class="node">
<title>Node8</title>
<g id="a_node9"><a xlink:href="timex_8h.html" target="_top" xlink:title="Utility library for comparing and computing timestamps. ">
<polygon fill="#ffffff" stroke="#000000" points="86,-224.5 86,-243.5 138,-243.5 138,-224.5 86,-224.5"/>
<text text-anchor="middle" x="112" y="-231.5" font-family="Helvetica,sans-Serif" font-size="10.00" fill="#000000">timex.h</text>
</a>
</g>
</g>
<!-- Node5&#45;&gt;Node8 -->
<g id="edge11" class="edge">
<title>Node5&#45;&gt;Node8</title>
<path fill="none" stroke="#191970" d="M178.8909,-280.2455C166.5791,-271.7337 148.5042,-259.2375 134.2462,-249.3801"/>
<polygon fill="#191970" stroke="#191970" points="136.1634,-246.4506 125.9474,-243.6427 132.1826,-252.2085 136.1634,-246.4506"/>
</g>
<!-- Node11 -->
<g id="node12" class="node">
<title>Node11</title>
<polygon fill="#ffffff" stroke="#bfbfbf" points="240.5,-224.5 240.5,-243.5 297.5,-243.5 297.5,-224.5 240.5,-224.5"/>
<text text-anchor="middle" x="269" y="-231.5" font-family="Helvetica,sans-Serif" font-size="10.00" fill="#000000">thread.h</text>
</g>
<!-- Node5&#45;&gt;Node11 -->
<g id="edge15" class="edge">
<title>Node5&#45;&gt;Node11</title>
<path fill="none" stroke="#191970" d="M206.2382,-280.2455C217.681,-271.814 234.4296,-259.4729 247.7475,-249.6598"/>
<polygon fill="#191970" stroke="#191970" points="249.9391,-252.3924 255.9135,-243.6427 245.7867,-246.757 249.9391,-252.3924"/>
</g>
<!-- Node6&#45;&gt;Node3 -->
<g id="edge9" class="edge">
<title>Node6&#45;&gt;Node3</title>
<path fill="none" stroke="#191970" d="M206.5866,-224.2455C218.3305,-215.814 235.5199,-203.4729 249.1882,-193.6598"/>
<polygon fill="#191970" stroke="#191970" points="251.4871,-196.3179 257.5691,-187.6427 247.4046,-190.6316 251.4871,-196.3179"/>
</g>
<!-- Node7 -->
<g id="node8" class="node">
<title>Node7</title>
<polygon fill="#ffffff" stroke="#bfbfbf" points="158.5,-168.5 158.5,-187.5 227.5,-187.5 227.5,-168.5 158.5,-168.5"/>
<text text-anchor="middle" x="193" y="-175.5" font-family="Helvetica,sans-Serif" font-size="10.00" fill="#000000">sys/types.h</text>
</g>
<!-- Node6&#45;&gt;Node7 -->
<g id="edge10" class="edge">
<title>Node6&#45;&gt;Node7</title>
<path fill="none" stroke="#191970" d="M193,-224.2455C193,-216.9382 193,-206.6944 193,-197.7046"/>
<polygon fill="#191970" stroke="#191970" points="196.5001,-197.6426 193,-187.6427 189.5001,-197.6427 196.5001,-197.6426"/>
</g>
<!-- Node8&#45;&gt;Node2 -->
<g id="edge12" class="edge">
<title>Node8&#45;&gt;Node2</title>
<path fill="none" stroke="#191970" d="M93.9067,-224.4241C72.4614,-211.8124 41.4726,-188.7954 57,-168 124.4759,-77.6317 488.8539,-27.9169 606.4139,-14.055"/>
<polygon fill="#191970" stroke="#191970" points="607.1567,-17.4923 616.6859,-12.8614 606.3487,-10.5391 607.1567,-17.4923"/>
</g>
<!-- Node9 -->
<g id="node10" class="node">
<title>Node9</title>
<g id="a_node10"><a xlink:href="inttypes_8h.html" target="_top" xlink:title="Adds include for missing inttype definitions. ">
<polygon fill="#ffffff" stroke="#000000" points="352.5,-168.5 352.5,-187.5 415.5,-187.5 415.5,-168.5 352.5,-168.5"/>
<text text-anchor="middle" x="384" y="-175.5" font-family="Helvetica,sans-Serif" font-size="10.00" fill="#000000">inttypes.h</text>
</a>
</g>
</g>
<!-- Node8&#45;&gt;Node9 -->
<g id="edge13" class="edge">
<title>Node8&#45;&gt;Node9</title>
<path fill="none" stroke="#191970" d="M138.3506,-227.7391C143.8458,-226.4708 149.6067,-225.1685 155,-224 220.3998,-209.8302 296.639,-194.8145 342.5685,-185.9312"/>
<polygon fill="#191970" stroke="#191970" points="343.2959,-189.3555 352.4515,-184.0239 341.9694,-182.4823 343.2959,-189.3555"/>
</g>
<!-- Node10 -->
<g id="node11" class="node">
<title>Node10</title>
<g id="a_node11"><a xlink:href="time__units_8h.html" target="_top" xlink:title="Utility header providing time unit defines. ">
<polygon fill="#ffffff" stroke="#000000" points="66,-168.5 66,-187.5 140,-187.5 140,-168.5 66,-168.5"/>
<text text-anchor="middle" x="103" y="-175.5" font-family="Helvetica,sans-Serif" font-size="10.00" fill="#000000">time_units.h</text>
</a>
</g>
</g>
<!-- Node8&#45;&gt;Node10 -->
<g id="edge14" class="edge">
<title>Node8&#45;&gt;Node10</title>
<path fill="none" stroke="#191970" d="M110.4323,-224.2455C109.2579,-216.9382 107.6116,-206.6944 106.1668,-197.7046"/>
<polygon fill="#191970" stroke="#191970" points="109.5922,-196.9606 104.5497,-187.6427 102.6809,-198.0714 109.5922,-196.9606"/>
</g>
<!-- Node12&#45;&gt;Node2 -->
<g id="edge18" class="edge">
<title>Node12&#45;&gt;Node2</title>
<path fill="none" stroke="#191970" d="M834.8339,-394.4246C774.2506,-377.2988 637,-333.6805 637,-290 637,-290 637,-290 637,-234 637,-203.4754 634.3504,-193.7763 618,-168 605.0108,-147.5225 591.3856,-151.5219 577,-132 555.9058,-103.3743 533.3723,-86.2886 552,-56 563.9793,-36.5217 587.0391,-24.9884 606.9471,-18.3415"/>
<polygon fill="#191970" stroke="#191970" points="608.1497,-21.6342 616.6989,-15.3763 606.1132,-14.9369 608.1497,-21.6342"/>
</g>
<!-- Node13 -->
<g id="node14" class="node">
<title>Node13</title>
<polygon fill="#ffffff" stroke="#bfbfbf" points="1004,-56.5 1004,-75.5 1060,-75.5 1060,-56.5 1004,-56.5"/>
<text text-anchor="middle" x="1032" y="-63.5" font-family="Helvetica,sans-Serif" font-size="10.00" fill="#000000">stddef.h</text>
</g>
<!-- Node12&#45;&gt;Node13 -->
<g id="edge17" class="edge">
<title>Node12&#45;&gt;Node13</title>
<path fill="none" stroke="#191970" d="M891.1991,-400.8352C937.8083,-398.0137 1033.0149,-388.4218 1106,-356 1150.3546,-336.2966 1193,-338.5341 1193,-290 1193,-290 1193,-290 1193,-178 1193,-146.6328 1190.5748,-133.7779 1168,-112 1141.5232,-86.4578 1100.3687,-75.0775 1070.2627,-70.0194"/>
<polygon fill="#191970" stroke="#191970" points="1070.5285,-66.5198 1060.1168,-68.4811 1069.4791,-73.4407 1070.5285,-66.5198"/>
</g>
<!-- Node14 -->
<g id="node15" class="node">
<title>Node14</title>
<polygon fill="#ffffff" stroke="#bfbfbf" points="993,-112.5 993,-131.5 1053,-131.5 1053,-112.5 993,-112.5"/>
<text text-anchor="middle" x="1023" y="-119.5" font-family="Helvetica,sans-Serif" font-size="10.00" fill="#000000">stdbool.h</text>
</g>
<!-- Node12&#45;&gt;Node14 -->
<g id="edge19" class="edge">
<title>Node12&#45;&gt;Node14</title>
<path fill="none" stroke="#191970" d="M891.1529,-395.8761C957.2849,-380.6802 1117,-338.9168 1117,-290 1117,-290 1117,-290 1117,-234 1117,-203.4754 1116.4844,-192.2916 1098,-168 1087.529,-154.2393 1071.653,-143.6537 1057.1997,-136.1259"/>
<polygon fill="#191970" stroke="#191970" points="1058.4995,-132.8655 1047.9783,-131.618 1055.4251,-139.1543 1058.4995,-132.8655"/>
</g>
<!-- Node15 -->
<g id="node16" class="node">
<title>Node15</title>
<g id="a_node16"><a xlink:href="architecture_8h.html" target="_top" xlink:title="Platform&#45;independent access to architecture details. ">
<polygon fill="#ffffff" stroke="#000000" points="445.5,-224.5 445.5,-243.5 528.5,-243.5 528.5,-224.5 445.5,-224.5"/>
<text text-anchor="middle" x="487" y="-231.5" font-family="Helvetica,sans-Serif" font-size="10.00" fill="#000000">architecture.h</text>
</a>
</g>
</g>
<!-- Node12&#45;&gt;Node15 -->
<g id="edge20" class="edge">
<title>Node12&#45;&gt;Node15</title>
<path fill="none" stroke="#191970" d="M834.9264,-398.539C779.9129,-391.4463 660.0596,-374.374 623,-356 570.945,-330.1913 523.7541,-278.8544 501.1178,-251.7354"/>
<polygon fill="#191970" stroke="#191970" points="503.6997,-249.3639 494.6561,-243.8445 498.2838,-253.7989 503.6997,-249.3639"/>
</g>
<!-- Node18 -->
<g id="node19" class="node">
<title>Node18</title>
<g id="a_node19"><a xlink:href="kernel__defines_8h.html" target="_top" xlink:title="Common macros and compiler attributes/pragmas configuration. ">
<polygon fill="#ffffff" stroke="#000000" points="708.5,-168.5 708.5,-187.5 803.5,-187.5 803.5,-168.5 708.5,-168.5"/>
<text text-anchor="middle" x="756" y="-175.5" font-family="Helvetica,sans-Serif" font-size="10.00" fill="#000000">kernel_defines.h</text>
</a>
</g>
</g>
<!-- Node12&#45;&gt;Node18 -->
<g id="edge25" class="edge">
<title>Node12&#45;&gt;Node18</title>
<path fill="none" stroke="#191970" d="M852.5639,-392.4153C834.879,-375.5453 799.1757,-338.656 781,-300 765.1241,-266.2353 759.2918,-222.5537 757.1765,-197.6685"/>
<polygon fill="#191970" stroke="#191970" points="760.6647,-197.3781 756.4435,-187.6605 753.6834,-197.8895 760.6647,-197.3781"/>
</g>
<!-- Node24 -->
<g id="node25" class="node">
<title>Node24</title>
<g id="a_node25"><a xlink:href="list_8h.html" target="_top" xlink:title="Intrusive linked list. ">
<polygon fill="#ffffff" stroke="#000000" points="1121,-112.5 1121,-131.5 1159,-131.5 1159,-112.5 1121,-112.5"/>
<text text-anchor="middle" x="1140" y="-119.5" font-family="Helvetica,sans-Serif" font-size="10.00" fill="#000000">list.h</text>
</a>
</g>
</g>
<!-- Node12&#45;&gt;Node24 -->
<g id="edge36" class="edge">
<title>Node12&#45;&gt;Node24</title>
<path fill="none" stroke="#191970" d="M891.2725,-399.2368C931.4314,-394.5097 1006.5983,-382.6661 1065,-356 1110.1218,-335.3975 1155,-339.6029 1155,-290 1155,-290 1155,-290 1155,-234 1155,-201.2739 1148.6307,-163.641 1144.193,-141.3923"/>
<polygon fill="#191970" stroke="#191970" points="1147.6058,-140.6123 1142.1491,-131.5307 1140.7515,-142.0329 1147.6058,-140.6123"/>
</g>
<!-- Node25 -->
<g id="node26" class="node">
<title>Node25</title>
<g id="a_node26"><a xlink:href="core_2include_2thread_8h.html" target="_top" xlink:title="Threading API. ">
<polygon fill="#ffffff" stroke="#000000" points="834.5,-336.5 834.5,-355.5 891.5,-355.5 891.5,-336.5 834.5,-336.5"/>
<text text-anchor="middle" x="863" y="-343.5" font-family="Helvetica,sans-Serif" font-size="10.00" fill="#000000">thread.h</text>
</a>
</g>
</g>
<!-- Node12&#45;&gt;Node25 -->
<g id="edge37" class="edge">
<title>Node12&#45;&gt;Node25</title>
<path fill="none" stroke="#191970" d="M863,-392.2455C863,-384.9382 863,-374.6944 863,-365.7046"/>
<polygon fill="#191970" stroke="#191970" points="866.5001,-365.6426 863,-355.6427 859.5001,-365.6427 866.5001,-365.6426"/>
</g>
<!-- Node15&#45;&gt;Node2 -->
<g id="edge21" class="edge">
<title>Node15&#45;&gt;Node2</title>
<path fill="none" stroke="#191970" d="M445.1046,-230.9621C394.8782,-225.42 320.1376,-210.0365 343,-168 397.0602,-68.6011 539.0698,-29.3931 606.4782,-16.0259"/>
<polygon fill="#191970" stroke="#191970" points="607.4603,-19.402 616.6314,-14.0972 606.1539,-12.525 607.4603,-19.402"/>
</g>
<!-- Node15&#45;&gt;Node9 -->
<g id="edge22" class="edge">
<title>Node15&#45;&gt;Node9</title>
<path fill="none" stroke="#191970" d="M469.0588,-224.2455C452.96,-215.4928 429.1121,-202.527 410.7609,-192.5496"/>
<polygon fill="#191970" stroke="#191970" points="412.1929,-189.3444 401.7356,-187.6427 408.8493,-195.4942 412.1929,-189.3444"/>
</g>
<!-- Node16 -->
<g id="node17" class="node">
<title>Node16</title>
<polygon fill="#ffffff" stroke="#bfbfbf" points="559,-168.5 559,-187.5 609,-187.5 609,-168.5 559,-168.5"/>
<text text-anchor="middle" x="584" y="-175.5" font-family="Helvetica,sans-Serif" font-size="10.00" fill="#000000">limits.h</text>
</g>
<!-- Node15&#45;&gt;Node16 -->
<g id="edge23" class="edge">
<title>Node15&#45;&gt;Node16</title>
<path fill="none" stroke="#191970" d="M503.8961,-224.2455C518.918,-215.5731 541.1043,-202.7645 558.321,-192.825"/>
<polygon fill="#191970" stroke="#191970" points="560.3871,-195.6737 567.2975,-187.6427 556.8872,-189.6114 560.3871,-195.6737"/>
</g>
<!-- Node17 -->
<g id="node18" class="node">
<title>Node17</title>
<polygon fill="#ffffff" stroke="#bfbfbf" points="433.5,-168.5 433.5,-187.5 540.5,-187.5 540.5,-168.5 433.5,-168.5"/>
<text text-anchor="middle" x="487" y="-175.5" font-family="Helvetica,sans-Serif" font-size="10.00" fill="#000000">architecture_arch.h</text>
</g>
<!-- Node15&#45;&gt;Node17 -->
<g id="edge24" class="edge">
<title>Node15&#45;&gt;Node17</title>
<path fill="none" stroke="#191970" d="M487,-224.2455C487,-216.9382 487,-206.6944 487,-197.7046"/>
<polygon fill="#191970" stroke="#191970" points="490.5001,-197.6426 487,-187.6427 483.5001,-197.6427 490.5001,-197.6426"/>
</g>
<!-- Node19 -->
<g id="node20" class="node">
<title>Node19</title>
<g id="a_node20"><a xlink:href="modules_8h.html" target="_top" xlink:title="Common macros and compiler attributes/pragmas configuration. ">
<polygon fill="#ffffff" stroke="#000000" points="833.5,-112.5 833.5,-131.5 898.5,-131.5 898.5,-112.5 833.5,-112.5"/>
<text text-anchor="middle" x="866" y="-119.5" font-family="Helvetica,sans-Serif" font-size="10.00" fill="#000000">modules.h</text>
</a>
</g>
</g>
<!-- Node18&#45;&gt;Node19 -->
<g id="edge26" class="edge">
<title>Node18&#45;&gt;Node19</title>
<path fill="none" stroke="#191970" d="M775.1605,-168.2455C792.5111,-159.4125 818.2901,-146.2887 837.9583,-136.2758"/>
<polygon fill="#191970" stroke="#191970" points="839.7353,-139.2986 847.059,-131.6427 836.5595,-133.0605 839.7353,-139.2986"/>
</g>
<!-- Node20 -->
<g id="node21" class="node">
<title>Node20</title>
<g id="a_node21"><a xlink:href="riot__version_8h.html" target="_top" xlink:title="Common macros and compiler attributes/pragmas configuration. ">
<polygon fill="#ffffff" stroke="#000000" points="671.5,-56.5 671.5,-75.5 752.5,-75.5 752.5,-56.5 671.5,-56.5"/>
<text text-anchor="middle" x="712" y="-63.5" font-family="Helvetica,sans-Serif" font-size="10.00" fill="#000000">riot_version.h</text>
</a>
</g>
</g>
<!-- Node18&#45;&gt;Node20 -->
<g id="edge27" class="edge">
<title>Node18&#45;&gt;Node20</title>
<path fill="none" stroke="#191970" d="M752.2486,-168.4509C745.0073,-150.0186 728.9814,-109.2254 719.4812,-85.043"/>
<polygon fill="#191970" stroke="#191970" points="722.6561,-83.5526 715.7419,-75.5249 716.1409,-86.1122 722.6561,-83.5526"/>
</g>
<!-- Node21 -->
<g id="node22" class="node">
<title>Node21</title>
<g id="a_node22"><a xlink:href="compiler__hints_8h.html" target="_top" xlink:title="Common macros and compiler attributes/pragmas configuration. ">
<polygon fill="#ffffff" stroke="#000000" points="596.5,-112.5 596.5,-131.5 689.5,-131.5 689.5,-112.5 596.5,-112.5"/>
<text text-anchor="middle" x="643" y="-119.5" font-family="Helvetica,sans-Serif" font-size="10.00" fill="#000000">compiler_hints.h</text>
</a>
</g>
</g>
<!-- Node18&#45;&gt;Node21 -->
<g id="edge29" class="edge">
<title>Node18&#45;&gt;Node21</title>
<path fill="none" stroke="#191970" d="M736.5746,-168.3733C718.5979,-159.4644 691.6559,-146.1127 671.291,-136.0203"/>
<polygon fill="#191970" stroke="#191970" points="672.6861,-132.8055 662.1719,-131.5011 669.5778,-139.0776 672.6861,-132.8055"/>
</g>
<!-- Node23 -->
<g id="node24" class="node">
<title>Node23</title>
<g id="a_node24"><a xlink:href="container_8h.html" target="_top" xlink:title="Common macros and compiler attributes/pragmas configuration. ">
<polygon fill="#ffffff" stroke="#000000" points="746.5,-112.5 746.5,-131.5 815.5,-131.5 815.5,-112.5 746.5,-112.5"/>
<text text-anchor="middle" x="781" y="-119.5" font-family="Helvetica,sans-Serif" font-size="10.00" fill="#000000">container.h</text>
</a>
</g>
</g>
<!-- Node18&#45;&gt;Node23 -->
<g id="edge33" class="edge">
<title>Node18&#45;&gt;Node23</title>
<path fill="none" stroke="#191970" d="M760.3547,-168.2455C763.7244,-160.6973 768.493,-150.0158 772.5983,-140.8197"/>
<polygon fill="#191970" stroke="#191970" points="775.8147,-142.2009 776.6952,-131.6427 769.4227,-139.3473 775.8147,-142.2009"/>
</g>
<!-- Node20&#45;&gt;Node2 -->
<g id="edge28" class="edge">
<title>Node20&#45;&gt;Node2</title>
<path fill="none" stroke="#191970" d="M699.9811,-56.2455C689.7902,-47.9746 674.9638,-35.9416 662.9893,-26.2232"/>
<polygon fill="#191970" stroke="#191970" points="664.8514,-23.2268 654.8812,-19.6427 660.4402,-28.662 664.8514,-23.2268"/>
</g>
<!-- Node21&#45;&gt;Node2 -->
<g id="edge32" class="edge">
<title>Node21&#45;&gt;Node2</title>
<path fill="none" stroke="#191970" d="M643,-112.4509C643,-94.184 643,-53.9553 643,-29.6976"/>
<polygon fill="#191970" stroke="#191970" points="646.5001,-29.5249 643,-19.5249 639.5001,-29.5249 646.5001,-29.5249"/>
</g>
<!-- Node22 -->
<g id="node23" class="node">
<title>Node22</title>
<g id="a_node23"><a xlink:href="assert_8h.html" target="_top" xlink:title="POSIX.1&#45;2008 compliant version of the assert macro. ">
<polygon fill="#ffffff" stroke="#000000" points="561,-56.5 561,-75.5 615,-75.5 615,-56.5 561,-56.5"/>
<text text-anchor="middle" x="588" y="-63.5" font-family="Helvetica,sans-Serif" font-size="10.00" fill="#000000">assert.h</text>
</a>
</g>
</g>
<!-- Node21&#45;&gt;Node22 -->
<g id="edge30" class="edge">
<title>Node21&#45;&gt;Node22</title>
<path fill="none" stroke="#191970" d="M633.4197,-112.2455C625.4542,-104.1352 613.9359,-92.4075 604.4921,-82.7919"/>
<polygon fill="#191970" stroke="#191970" points="606.9747,-80.3247 597.4705,-75.6427 601.9805,-85.2297 606.9747,-80.3247"/>
</g>
<!-- Node22&#45;&gt;Node2 -->
<g id="edge31" class="edge">
<title>Node22&#45;&gt;Node2</title>
<path fill="none" stroke="#191970" d="M597.5803,-56.2455C605.5458,-48.1352 617.0641,-36.4075 626.5079,-26.7919"/>
<polygon fill="#191970" stroke="#191970" points="629.0195,-29.2297 633.5295,-19.6427 624.0253,-24.3247 629.0195,-29.2297"/>
</g>
<!-- Node23&#45;&gt;Node2 -->
<g id="edge35" class="edge">
<title>Node23&#45;&gt;Node2</title>
<path fill="none" stroke="#191970" d="M780.8017,-112.1895C779.9966,-98.0304 776.4897,-71.8333 762,-56 740.4823,-32.4869 705.5556,-20.8732 679.0933,-15.2108"/>
<polygon fill="#191970" stroke="#191970" points="679.5383,-11.7318 669.0537,-13.2565 678.2007,-18.6028 679.5383,-11.7318"/>
</g>
<!-- Node23&#45;&gt;Node13 -->
<g id="edge34" class="edge">
<title>Node23&#45;&gt;Node13</title>
<path fill="none" stroke="#191970" d="M815.5836,-114.1236C818.7667,-113.4036 821.9428,-112.6871 825,-112 883.9395,-98.7536 952.3696,-83.5888 993.9071,-74.4076"/>
<polygon fill="#191970" stroke="#191970" points="994.8566,-77.7823 1003.8659,-72.2071 993.3463,-70.9471 994.8566,-77.7823"/>
</g>
<!-- Node26 -->
<g id="node27" class="node">
<title>Node26</title>
<g id="a_node27"><a xlink:href="clist_8h.html" target="_top" xlink:title="Circular linked list. ">
<polygon fill="#ffffff" stroke="#000000" points="1045.5,-168.5 1045.5,-187.5 1088.5,-187.5 1088.5,-168.5 1045.5,-168.5"/>
<text text-anchor="middle" x="1067" y="-175.5" font-family="Helvetica,sans-Serif" font-size="10.00" fill="#000000">clist.h</text>
</a>
</g>
</g>
<!-- Node25&#45;&gt;Node26 -->
<g id="edge38" class="edge">
<title>Node25&#45;&gt;Node26</title>
<path fill="none" stroke="#191970" d="M891.6369,-343.4558C940.9252,-338.4358 1038.5783,-325.4658 1060,-300 1084.1386,-271.3043 1078.2821,-224.0768 1072.3427,-197.5863"/>
<polygon fill="#191970" stroke="#191970" points="1075.6761,-196.4858 1069.8794,-187.6173 1068.8805,-198.165 1075.6761,-196.4858"/>
</g>
<!-- Node27 -->
<g id="node28" class="node">
<title>Node27</title>
<g id="a_node28"><a xlink:href="cib_8h.html" target="_top" xlink:title="Circular integer buffer interface. ">
<polygon fill="#ffffff" stroke="#000000" points="665,-280.5 665,-299.5 703,-299.5 703,-280.5 665,-280.5"/>
<text text-anchor="middle" x="684" y="-287.5" font-family="Helvetica,sans-Serif" font-size="10.00" fill="#000000">cib.h</text>
</a>
</g>
</g>
<!-- Node25&#45;&gt;Node27 -->
<g id="edge42" class="edge">
<title>Node25&#45;&gt;Node27</title>
<path fill="none" stroke="#191970" d="M834.2406,-337.0026C800.8341,-326.5515 746.0508,-309.4125 712.6788,-298.9721"/>
<polygon fill="#191970" stroke="#191970" points="713.6457,-295.6074 703.0568,-295.9619 711.5556,-302.2881 713.6457,-295.6074"/>
</g>
<!-- Node28 -->
<g id="node29" class="node">
<title>Node28</title>
<g id="a_node29"><a xlink:href="core_2include_2msg_8h.html" target="_top" xlink:title="Messaging API for inter process communication. ">
<polygon fill="#ffffff" stroke="#000000" points="797.5,-280.5 797.5,-299.5 842.5,-299.5 842.5,-280.5 797.5,-280.5"/>
<text text-anchor="middle" x="820" y="-287.5" font-family="Helvetica,sans-Serif" font-size="10.00" fill="#000000">msg.h</text>
</a>
</g>
</g>
<!-- Node25&#45;&gt;Node28 -->
<g id="edge44" class="edge">
<title>Node25&#45;&gt;Node28</title>
<path fill="none" stroke="#191970" d="M855.51,-336.2455C849.4674,-328.3761 840.8097,-317.101 833.5559,-307.6542"/>
<polygon fill="#191970" stroke="#191970" points="836.2705,-305.4426 827.4042,-299.6427 830.7185,-309.7058 836.2705,-305.4426"/>
</g>
<!-- Node29 -->
<g id="node30" class="node">
<title>Node29</title>
<g id="a_node30"><a xlink:href="sched_8h.html" target="_top" xlink:title="Scheduler API definition. ">
<polygon fill="#ffffff" stroke="#000000" points="865.5,-224.5 865.5,-243.5 918.5,-243.5 918.5,-224.5 865.5,-224.5"/>
<text text-anchor="middle" x="892" y="-231.5" font-family="Helvetica,sans-Serif" font-size="10.00" fill="#000000">sched.h</text>
</a>
</g>
</g>
<!-- Node25&#45;&gt;Node29 -->
<g id="edge53" class="edge">
<title>Node25&#45;&gt;Node29</title>
<path fill="none" stroke="#191970" d="M836.7145,-336.3609C809.6136,-324.857 773.3563,-304.1195 789,-280 803.5746,-257.5289 831.9728,-245.9388 855.2653,-240.0171"/>
<polygon fill="#191970" stroke="#191970" points="856.2407,-243.3845 865.2091,-237.7437 854.6805,-236.5606 856.2407,-243.3845"/>
</g>
<!-- Node31 -->
<g id="node32" class="node">
<title>Node31</title>
<g id="a_node32"><a xlink:href="thread__config_8h.html" target="_top" xlink:title="Thread configuration defines. ">
<polygon fill="#ffffff" stroke="#000000" points="861,-280.5 861,-299.5 951,-299.5 951,-280.5 861,-280.5"/>
<text text-anchor="middle" x="906" y="-287.5" font-family="Helvetica,sans-Serif" font-size="10.00" fill="#000000">thread_config.h</text>
</a>
</g>
</g>
<!-- Node25&#45;&gt;Node31 -->
<g id="edge54" class="edge">
<title>Node25&#45;&gt;Node31</title>
<path fill="none" stroke="#191970" d="M870.49,-336.2455C876.5326,-328.3761 885.1903,-317.101 892.4441,-307.6542"/>
<polygon fill="#191970" stroke="#191970" points="895.2815,-309.7058 898.5958,-299.6427 889.7295,-305.4426 895.2815,-309.7058"/>
</g>
<!-- Node33 -->
<g id="node34" class="node">
<title>Node33</title>
<polygon fill="#ffffff" stroke="#bfbfbf" points="969,-280.5 969,-299.5 1051,-299.5 1051,-280.5 969,-280.5"/>
<text text-anchor="middle" x="1010" y="-287.5" font-family="Helvetica,sans-Serif" font-size="10.00" fill="#000000">thread_arch.h</text>
</g>
<!-- Node25&#45;&gt;Node33 -->
<g id="edge57" class="edge">
<title>Node25&#45;&gt;Node33</title>
<path fill="none" stroke="#191970" d="M888.2702,-336.3733C912.3966,-327.1822 948.9362,-313.2624 975.6877,-303.0713"/>
<polygon fill="#191970" stroke="#191970" points="976.9607,-306.3318 985.0596,-299.5011 974.4687,-299.7904 976.9607,-306.3318"/>
</g>
<!-- Node26&#45;&gt;Node13 -->
<g id="edge40" class="edge">
<title>Node26&#45;&gt;Node13</title>
<path fill="none" stroke="#191970" d="M1067.7421,-168.304C1068.4205,-155.1668 1068.4915,-131.1543 1062,-112 1058.5839,-101.9204 1052.4431,-91.885 1046.6032,-83.7718"/>
<polygon fill="#191970" stroke="#191970" points="1049.3769,-81.6371 1040.5276,-75.8113 1043.8125,-85.8841 1049.3769,-81.6371"/>
</g>
<!-- Node26&#45;&gt;Node14 -->
<g id="edge39" class="edge">
<title>Node26&#45;&gt;Node14</title>
<path fill="none" stroke="#191970" d="M1059.3358,-168.2455C1053.1527,-160.3761 1044.2937,-149.101 1036.8711,-139.6542"/>
<polygon fill="#191970" stroke="#191970" points="1039.5068,-137.3435 1030.5764,-131.6427 1034.0025,-141.6683 1039.5068,-137.3435"/>
</g>
<!-- Node26&#45;&gt;Node24 -->
<g id="edge41" class="edge">
<title>Node26&#45;&gt;Node24</title>
<path fill="none" stroke="#191970" d="M1079.7156,-168.2455C1090.602,-159.8943 1106.4883,-147.7076 1119.22,-137.9408"/>
<polygon fill="#191970" stroke="#191970" points="1121.6261,-140.5063 1127.4301,-131.6427 1117.3654,-134.9523 1121.6261,-140.5063"/>
</g>
<!-- Node27&#45;&gt;Node22 -->
<g id="edge43" class="edge">
<title>Node27&#45;&gt;Node22</title>
<path fill="none" stroke="#191970" d="M683.8191,-280.3583C682.9311,-258.2043 677.9673,-202.8974 651,-168 631.2809,-142.4823 604.1867,-159.8925 588,-132 579.9222,-118.0805 580.7081,-99.568 583.0631,-85.6922"/>
<polygon fill="#191970" stroke="#191970" points="586.5243,-86.2398 585.1489,-75.7346 579.673,-84.8046 586.5243,-86.2398"/>
</g>
<!-- Node28&#45;&gt;Node2 -->
<g id="edge45" class="edge">
<title>Node28&#45;&gt;Node2</title>
<path fill="none" stroke="#191970" d="M824.6452,-280.3222C834.7638,-259.4354 859.8321,-208.7267 884,-168 893.8134,-151.4629 902.4276,-150.4045 908,-132 910.5759,-123.4925 912.8546,-119.4462 908,-112 882.1245,-72.311 745.7068,-34.7181 679.3352,-18.4491"/>
<polygon fill="#191970" stroke="#191970" points="679.8547,-14.9739 669.3121,-16.024 678.2086,-21.7776 679.8547,-14.9739"/>
</g>
<!-- Node28&#45;&gt;Node14 -->
<g id="edge46" class="edge">
<title>Node28&#45;&gt;Node14</title>
<path fill="none" stroke="#191970" d="M842.7862,-282.3522C865.2597,-274.3426 900.1851,-260.6239 928,-244 962.1992,-223.5605 974.5574,-220.2149 998,-188 1008.1259,-174.0849 1014.6661,-155.5719 1018.507,-141.6949"/>
<polygon fill="#191970" stroke="#191970" points="1021.9669,-142.2891 1021.0257,-131.7361 1015.1806,-140.5727 1021.9669,-142.2891"/>
</g>
<!-- Node28&#45;&gt;Node29 -->
<g id="edge47" class="edge">
<title>Node28&#45;&gt;Node29</title>
<path fill="none" stroke="#191970" d="M832.5414,-280.2455C843.2787,-271.8943 858.9473,-259.7076 871.5047,-249.9408"/>
<polygon fill="#191970" stroke="#191970" points="873.8575,-252.5449 879.6023,-243.6427 869.5599,-247.0194 873.8575,-252.5449"/>
</g>
<!-- Node29&#45;&gt;Node9 -->
<g id="edge49" class="edge">
<title>Node29&#45;&gt;Node9</title>
<path fill="none" stroke="#191970" d="M865.494,-232.7015C795.3387,-228.9878 598.9197,-216.7929 425.7496,-187.8993"/>
<polygon fill="#191970" stroke="#191970" points="426.1357,-184.4149 415.692,-186.1976 424.968,-191.3169 426.1357,-184.4149"/>
</g>
<!-- Node29&#45;&gt;Node13 -->
<g id="edge48" class="edge">
<title>Node29&#45;&gt;Node13</title>
<path fill="none" stroke="#191970" d="M889.8081,-224.3872C887.2659,-210.9244 884.5359,-186.0777 894,-168 895.647,-164.854 971.4263,-109.7881 1009.9719,-81.9053"/>
<polygon fill="#191970" stroke="#191970" points="1012.4134,-84.4592 1018.4671,-75.7642 1008.3124,-78.7862 1012.4134,-84.4592"/>
</g>
<!-- Node29&#45;&gt;Node18 -->
<g id="edge50" class="edge">
<title>Node29&#45;&gt;Node18</title>
<path fill="none" stroke="#191970" d="M868.6208,-224.3733C846.4955,-215.2629 813.0866,-201.5062 788.3981,-191.3404"/>
<polygon fill="#191970" stroke="#191970" points="789.6536,-188.0723 779.0742,-187.5011 786.9883,-194.5451 789.6536,-188.0723"/>
</g>
<!-- Node29&#45;&gt;Node26 -->
<g id="edge52" class="edge">
<title>Node29&#45;&gt;Node26</title>
<path fill="none" stroke="#191970" d="M918.5787,-225.4948C950.0336,-215.4292 1002.3404,-198.6911 1035.7182,-188.0102"/>
<polygon fill="#191970" stroke="#191970" points="1036.9676,-191.2853 1045.4251,-184.904 1034.8341,-184.6183 1036.9676,-191.2853"/>
</g>
<!-- Node30 -->
<g id="node31" class="node">
<title>Node30</title>
<g id="a_node31"><a xlink:href="native__sched_8h.html" target="_top" xlink:title="Add definitions required on the native board. ">
<polygon fill="#ffffff" stroke="#000000" points="903,-168.5 903,-187.5 989,-187.5 989,-168.5 903,-168.5"/>
<text text-anchor="middle" x="946" y="-175.5" font-family="Helvetica,sans-Serif" font-size="10.00" fill="#000000">native_sched.h</text>
</a>
</g>
</g>
<!-- Node29&#45;&gt;Node30 -->
<g id="edge51" class="edge">
<title>Node29&#45;&gt;Node30</title>
<path fill="none" stroke="#191970" d="M901.4061,-224.2455C909.1493,-216.2155 920.312,-204.6394 929.5318,-195.0781"/>
<polygon fill="#191970" stroke="#191970" points="932.2798,-197.2706 936.7017,-187.6427 927.2409,-192.4117 932.2798,-197.2706"/>
</g>
<!-- Node31&#45;&gt;Node29 -->
<g id="edge56" class="edge">
<title>Node31&#45;&gt;Node29</title>
<path fill="none" stroke="#191970" d="M903.5614,-280.2455C901.7145,-272.8579 899.1172,-262.4689 896.8522,-253.4087"/>
<polygon fill="#191970" stroke="#191970" points="900.2316,-252.4952 894.4107,-243.6427 893.4406,-254.193 900.2316,-252.4952"/>
</g>
<!-- Node32 -->
<g id="node33" class="node">
<title>Node32</title>
<polygon fill="#ffffff" stroke="#bfbfbf" points="983.5,-224.5 983.5,-243.5 1050.5,-243.5 1050.5,-224.5 983.5,-224.5"/>
<text text-anchor="middle" x="1017" y="-231.5" font-family="Helvetica,sans-Serif" font-size="10.00" fill="#000000">cpu_conf.h</text>
</g>
<!-- Node31&#45;&gt;Node32 -->
<g id="edge55" class="edge">
<title>Node31&#45;&gt;Node32</title>
<path fill="none" stroke="#191970" d="M925.0816,-280.3733C942.7402,-271.4644 969.2053,-258.1127 989.2098,-248.0203"/>
<polygon fill="#191970" stroke="#191970" points="990.8158,-251.1303 998.1674,-243.5011 987.6628,-244.8806 990.8158,-251.1303"/>
</g>
</g>
</svg>
