<?xml version="1.0" encoding="UTF-8" standalone="no"?>
<!DOCTYPE svg PUBLIC "-//W3C//DTD SVG 1.1//EN"
 "http://www.w3.org/Graphics/SVG/1.1/DTD/svg11.dtd">
<!-- Generated by graphviz version 2.40.1 (0)
 -->
<!-- Title: cpu/fe310/include/clk_conf.h Pages: 1 -->
<svg width="383pt" height="263pt"
 viewBox="0.00 0.00 383.00 263.00" xmlns="http://www.w3.org/2000/svg" xmlns:xlink="http://www.w3.org/1999/xlink">
<g id="graph0" class="graph" transform="scale(1 1) rotate(0) translate(4 259)">
<title>cpu/fe310/include/clk_conf.h</title>
<polygon fill="#ffffff" stroke="transparent" points="-4,4 -4,-259 379,-259 379,4 -4,4"/>
<!-- Node0 -->
<g id="node1" class="node">
<title>Node0</title>
<polygon fill="#bfbfbf" stroke="#000000" points="38.5,-224.5 38.5,-254.5 155.5,-254.5 155.5,-224.5 38.5,-224.5"/>
<text text-anchor="start" x="46.5" y="-242.5" font-family="Helvetica,sans-Serif" font-size="10.00" fill="#000000">cpu/fe310/include/clk</text>
<text text-anchor="middle" x="97" y="-231.5" font-family="Helvetica,sans-Serif" font-size="10.00" fill="#000000">_conf.h</text>
</g>
<!-- Node1 -->
<g id="node2" class="node">
<title>Node1</title>
<g id="a_node2"><a xlink:href="units_8h.html" target="_top" xlink:title="Unit helper macros. ">
<polygon fill="#ffffff" stroke="#000000" points="0,-168.5 0,-187.5 86,-187.5 86,-168.5 0,-168.5"/>
<text text-anchor="middle" x="43" y="-175.5" font-family="Helvetica,sans-Serif" font-size="10.00" fill="#000000">macros/units.h</text>
</a>
</g>
</g>
<!-- Node0&#45;&gt;Node1 -->
<g id="edge1" class="edge">
<title>Node0&#45;&gt;Node1</title>
<path fill="none" stroke="#191970" d="M83.6517,-224.2977C75.9998,-215.5831 66.3627,-204.6075 58.3924,-195.5302"/>
<polygon fill="#191970" stroke="#191970" points="60.8742,-193.052 51.6461,-187.8469 55.6141,-197.6707 60.8742,-193.052"/>
</g>
<!-- Node2 -->
<g id="node3" class="node">
<title>Node2</title>
<g id="a_node3"><a xlink:href="kernel__defines_8h.html" target="_top" xlink:title="Common macros and compiler attributes/pragmas configuration. ">
<polygon fill="#ffffff" stroke="#000000" points="104.5,-168.5 104.5,-187.5 199.5,-187.5 199.5,-168.5 104.5,-168.5"/>
<text text-anchor="middle" x="152" y="-175.5" font-family="Helvetica,sans-Serif" font-size="10.00" fill="#000000">kernel_defines.h</text>
</a>
</g>
</g>
<!-- Node0&#45;&gt;Node2 -->
<g id="edge2" class="edge">
<title>Node0&#45;&gt;Node2</title>
<path fill="none" stroke="#191970" d="M110.5955,-224.2977C118.3891,-215.5831 128.2047,-204.6075 136.3226,-195.5302"/>
<polygon fill="#191970" stroke="#191970" points="139.1365,-197.6341 143.1938,-187.8469 133.9187,-192.9678 139.1365,-197.6341"/>
</g>
<!-- Node3 -->
<g id="node4" class="node">
<title>Node3</title>
<g id="a_node4"><a xlink:href="modules_8h.html" target="_top" xlink:title="Common macros and compiler attributes/pragmas configuration. ">
<polygon fill="#ffffff" stroke="#000000" points="21.5,-112.5 21.5,-131.5 86.5,-131.5 86.5,-112.5 21.5,-112.5"/>
<text text-anchor="middle" x="54" y="-119.5" font-family="Helvetica,sans-Serif" font-size="10.00" fill="#000000">modules.h</text>
</a>
</g>
</g>
<!-- Node2&#45;&gt;Node3 -->
<g id="edge3" class="edge">
<title>Node2&#45;&gt;Node3</title>
<path fill="none" stroke="#191970" d="M134.9297,-168.2455C119.753,-159.5731 97.3379,-146.7645 79.9437,-136.825"/>
<polygon fill="#191970" stroke="#191970" points="81.2936,-133.5653 70.8747,-131.6427 77.8206,-139.643 81.2936,-133.5653"/>
</g>
<!-- Node4 -->
<g id="node5" class="node">
<title>Node4</title>
<g id="a_node5"><a xlink:href="riot__version_8h.html" target="_top" xlink:title="Common macros and compiler attributes/pragmas configuration. ">
<polygon fill="#ffffff" stroke="#000000" points="71.5,-56.5 71.5,-75.5 152.5,-75.5 152.5,-56.5 71.5,-56.5"/>
<text text-anchor="middle" x="112" y="-63.5" font-family="Helvetica,sans-Serif" font-size="10.00" fill="#000000">riot_version.h</text>
</a>
</g>
</g>
<!-- Node2&#45;&gt;Node4 -->
<g id="edge4" class="edge">
<title>Node2&#45;&gt;Node4</title>
<path fill="none" stroke="#191970" d="M147.9908,-168.1848C144.2421,-158.909 138.5543,-144.5791 134,-132 128.4107,-116.5619 122.554,-98.9094 118.2899,-85.7473"/>
<polygon fill="#191970" stroke="#191970" points="121.5153,-84.344 115.1235,-75.8944 114.851,-86.4857 121.5153,-84.344"/>
</g>
<!-- Node6 -->
<g id="node7" class="node">
<title>Node6</title>
<g id="a_node7"><a xlink:href="compiler__hints_8h.html" target="_top" xlink:title="Common macros and compiler attributes/pragmas configuration. ">
<polygon fill="#ffffff" stroke="#000000" points="143.5,-112.5 143.5,-131.5 236.5,-131.5 236.5,-112.5 143.5,-112.5"/>
<text text-anchor="middle" x="190" y="-119.5" font-family="Helvetica,sans-Serif" font-size="10.00" fill="#000000">compiler_hints.h</text>
</a>
</g>
</g>
<!-- Node2&#45;&gt;Node6 -->
<g id="edge6" class="edge">
<title>Node2&#45;&gt;Node6</title>
<path fill="none" stroke="#191970" d="M158.6191,-168.2455C163.9046,-160.4564 171.4541,-149.3308 177.8238,-139.9439"/>
<polygon fill="#191970" stroke="#191970" points="180.7379,-141.8827 183.4568,-131.6427 174.9455,-137.9522 180.7379,-141.8827"/>
</g>
<!-- Node8 -->
<g id="node9" class="node">
<title>Node8</title>
<g id="a_node9"><a xlink:href="container_8h.html" target="_top" xlink:title="Common macros and compiler attributes/pragmas configuration. ">
<polygon fill="#ffffff" stroke="#000000" points="256.5,-112.5 256.5,-131.5 325.5,-131.5 325.5,-112.5 256.5,-112.5"/>
<text text-anchor="middle" x="291" y="-119.5" font-family="Helvetica,sans-Serif" font-size="10.00" fill="#000000">container.h</text>
</a>
</g>
</g>
<!-- Node2&#45;&gt;Node8 -->
<g id="edge10" class="edge">
<title>Node2&#45;&gt;Node8</title>
<path fill="none" stroke="#191970" d="M175.895,-168.3733C198.5082,-159.2629 232.6542,-145.5062 257.8873,-135.3404"/>
<polygon fill="#191970" stroke="#191970" points="259.4493,-138.4845 267.4169,-131.5011 256.8334,-131.9917 259.4493,-138.4845"/>
</g>
<!-- Node5 -->
<g id="node6" class="node">
<title>Node5</title>
<polygon fill="#ffffff" stroke="#bfbfbf" points="182,-.5 182,-19.5 234,-19.5 234,-.5 182,-.5"/>
<text text-anchor="middle" x="208" y="-7.5" font-family="Helvetica,sans-Serif" font-size="10.00" fill="#000000">stdint.h</text>
</g>
<!-- Node4&#45;&gt;Node5 -->
<g id="edge5" class="edge">
<title>Node4&#45;&gt;Node5</title>
<path fill="none" stroke="#191970" d="M128.7219,-56.2455C143.5889,-47.5731 165.5466,-34.7645 182.5858,-24.825"/>
<polygon fill="#191970" stroke="#191970" points="184.5955,-27.7047 191.4697,-19.6427 181.0683,-21.6582 184.5955,-27.7047"/>
</g>
<!-- Node6&#45;&gt;Node5 -->
<g id="edge9" class="edge">
<title>Node6&#45;&gt;Node5</title>
<path fill="none" stroke="#191970" d="M191.424,-112.1495C193.3058,-99.2409 196.7618,-75.9034 200,-56 201.414,-47.3091 203.0683,-37.7116 204.5045,-29.5415"/>
<polygon fill="#191970" stroke="#191970" points="207.9845,-29.9622 206.2847,-19.5046 201.092,-28.7397 207.9845,-29.9622"/>
</g>
<!-- Node7 -->
<g id="node8" class="node">
<title>Node7</title>
<g id="a_node8"><a xlink:href="assert_8h.html" target="_top" xlink:title="POSIX.1&#45;2008 compliant version of the assert macro. ">
<polygon fill="#ffffff" stroke="#000000" points="209,-56.5 209,-75.5 263,-75.5 263,-56.5 209,-56.5"/>
<text text-anchor="middle" x="236" y="-63.5" font-family="Helvetica,sans-Serif" font-size="10.00" fill="#000000">assert.h</text>
</a>
</g>
</g>
<!-- Node6&#45;&gt;Node7 -->
<g id="edge7" class="edge">
<title>Node6&#45;&gt;Node7</title>
<path fill="none" stroke="#191970" d="M198.0126,-112.2455C204.4768,-104.3761 213.7385,-93.101 221.4983,-83.6542"/>
<polygon fill="#191970" stroke="#191970" points="224.4364,-85.5916 228.0792,-75.6427 219.0273,-81.1484 224.4364,-85.5916"/>
</g>
<!-- Node7&#45;&gt;Node5 -->
<g id="edge8" class="edge">
<title>Node7&#45;&gt;Node5</title>
<path fill="none" stroke="#191970" d="M231.1228,-56.2455C227.3487,-48.6973 222.0079,-38.0158 217.4099,-28.8197"/>
<polygon fill="#191970" stroke="#191970" points="220.424,-27.0217 212.8213,-19.6427 214.163,-30.1522 220.424,-27.0217"/>
</g>
<!-- Node8&#45;&gt;Node5 -->
<g id="edge12" class="edge">
<title>Node8&#45;&gt;Node5</title>
<path fill="none" stroke="#191970" d="M290.1886,-112.184C288.6367,-98.4799 284.2272,-73.3482 272,-56 262.929,-43.1299 249.0819,-32.5359 236.5851,-24.772"/>
<polygon fill="#191970" stroke="#191970" points="238.2083,-21.6665 227.8117,-19.6268 234.6672,-27.7048 238.2083,-21.6665"/>
</g>
<!-- Node9 -->
<g id="node10" class="node">
<title>Node9</title>
<polygon fill="#ffffff" stroke="#bfbfbf" points="319,-56.5 319,-75.5 375,-75.5 375,-56.5 319,-56.5"/>
<text text-anchor="middle" x="347" y="-63.5" font-family="Helvetica,sans-Serif" font-size="10.00" fill="#000000">stddef.h</text>
</g>
<!-- Node8&#45;&gt;Node9 -->
<g id="edge11" class="edge">
<title>Node8&#45;&gt;Node9</title>
<path fill="none" stroke="#191970" d="M300.7545,-112.2455C308.8648,-104.1352 320.5925,-92.4075 330.2081,-82.7919"/>
<polygon fill="#191970" stroke="#191970" points="332.7611,-85.1887 337.3573,-75.6427 327.8113,-80.2389 332.7611,-85.1887"/>
</g>
</g>
</svg>
