<?xml version="1.0" encoding="UTF-8" standalone="no"?>
<!DOCTYPE svg PUBLIC "-//W3C//DTD SVG 1.1//EN"
 "http://www.w3.org/Graphics/SVG/1.1/DTD/svg11.dtd">
<!-- Generated by graphviz version 2.40.1 (0)
 -->
<!-- Title: boards/feather&#45;nrf52840/include/bat_voltage_params.h Pages: 1 -->
<svg width="341pt" height="207pt"
 viewBox="0.00 0.00 341.00 207.00" xmlns="http://www.w3.org/2000/svg" xmlns:xlink="http://www.w3.org/1999/xlink">
<g id="graph0" class="graph" transform="scale(1 1) rotate(0) translate(4 203)">
<title>boards/feather&#45;nrf52840/include/bat_voltage_params.h</title>
<polygon fill="#ffffff" stroke="transparent" points="-4,4 -4,-203 337,-203 337,4 -4,4"/>
<!-- Node0 -->
<g id="node1" class="node">
<title>Node0</title>
<polygon fill="#bfbfbf" stroke="#000000" points="0,-168.5 0,-198.5 159,-198.5 159,-168.5 0,-168.5"/>
<text text-anchor="start" x="8" y="-186.5" font-family="Helvetica,sans-Serif" font-size="10.00" fill="#000000">boards/feather&#45;nrf52840</text>
<text text-anchor="middle" x="79.5" y="-175.5" font-family="Helvetica,sans-Serif" font-size="10.00" fill="#000000">/include/bat_voltage_params.h</text>
</g>
<!-- Node1 -->
<g id="node2" class="node">
<title>Node1</title>
<g id="a_node2"><a xlink:href="bat__voltage_8h.html" target="_top" xlink:title="Parameter definitions for mapping battery voltage to SAUL. ">
<polygon fill="#ffffff" stroke="#000000" points="29,-112.5 29,-131.5 130,-131.5 130,-112.5 29,-112.5"/>
<text text-anchor="middle" x="79.5" y="-119.5" font-family="Helvetica,sans-Serif" font-size="10.00" fill="#000000">saul/bat_voltage.h</text>
</a>
</g>
</g>
<!-- Node0&#45;&gt;Node1 -->
<g id="edge1" class="edge">
<title>Node0&#45;&gt;Node1</title>
<path fill="none" stroke="#191970" d="M79.5,-168.2977C79.5,-160.3834 79.5,-150.6043 79.5,-142.0759"/>
<polygon fill="#191970" stroke="#191970" points="83.0001,-141.8469 79.5,-131.8469 76.0001,-141.847 83.0001,-141.8469"/>
</g>
<!-- Node2 -->
<g id="node3" class="node">
<title>Node2</title>
<polygon fill="#ffffff" stroke="#bfbfbf" points="18.5,-.5 18.5,-19.5 70.5,-19.5 70.5,-.5 18.5,-.5"/>
<text text-anchor="middle" x="44.5" y="-7.5" font-family="Helvetica,sans-Serif" font-size="10.00" fill="#000000">stdint.h</text>
</g>
<!-- Node1&#45;&gt;Node2 -->
<g id="edge2" class="edge">
<title>Node1&#45;&gt;Node2</title>
<path fill="none" stroke="#191970" d="M76.5159,-112.4509C70.7817,-94.1013 58.1221,-53.5908 50.5529,-29.3693"/>
<polygon fill="#191970" stroke="#191970" points="53.8,-28.0257 47.4765,-19.5249 47.1187,-30.1137 53.8,-28.0257"/>
</g>
<!-- Node3 -->
<g id="node4" class="node">
<title>Node3</title>
<g id="a_node4"><a xlink:href="adc_8h.html" target="_top" xlink:title="Low&#45;level ADC peripheral driver interface definitions. ">
<polygon fill="#ffffff" stroke="#000000" points="75.5,-56.5 75.5,-75.5 151.5,-75.5 151.5,-56.5 75.5,-56.5"/>
<text text-anchor="middle" x="113.5" y="-63.5" font-family="Helvetica,sans-Serif" font-size="10.00" fill="#000000">periph/adc.h</text>
</a>
</g>
</g>
<!-- Node1&#45;&gt;Node3 -->
<g id="edge3" class="edge">
<title>Node1&#45;&gt;Node3</title>
<path fill="none" stroke="#191970" d="M85.4223,-112.2455C90.1027,-104.5367 96.7673,-93.5598 102.4289,-84.2348"/>
<polygon fill="#191970" stroke="#191970" points="105.4475,-86.007 107.6455,-75.6427 99.4639,-82.3741 105.4475,-86.007"/>
</g>
<!-- Node3&#45;&gt;Node2 -->
<g id="edge5" class="edge">
<title>Node3&#45;&gt;Node2</title>
<path fill="none" stroke="#191970" d="M101.4811,-56.2455C91.2902,-47.9746 76.4638,-35.9416 64.4893,-26.2232"/>
<polygon fill="#191970" stroke="#191970" points="66.3514,-23.2268 56.3812,-19.6427 61.9402,-28.662 66.3514,-23.2268"/>
</g>
<!-- Node4 -->
<g id="node5" class="node">
<title>Node4</title>
<polygon fill="#ffffff" stroke="#bfbfbf" points="88.5,-.5 88.5,-19.5 138.5,-19.5 138.5,-.5 88.5,-.5"/>
<text text-anchor="middle" x="113.5" y="-7.5" font-family="Helvetica,sans-Serif" font-size="10.00" fill="#000000">limits.h</text>
</g>
<!-- Node3&#45;&gt;Node4 -->
<g id="edge4" class="edge">
<title>Node3&#45;&gt;Node4</title>
<path fill="none" stroke="#191970" d="M113.5,-56.2455C113.5,-48.9382 113.5,-38.6944 113.5,-29.7046"/>
<polygon fill="#191970" stroke="#191970" points="117.0001,-29.6426 113.5,-19.6427 110.0001,-29.6427 117.0001,-29.6426"/>
</g>
<!-- Node5 -->
<g id="node6" class="node">
<title>Node5</title>
<polygon fill="#ffffff" stroke="#bfbfbf" points="157,-.5 157,-19.5 234,-19.5 234,-.5 157,-.5"/>
<text text-anchor="middle" x="195.5" y="-7.5" font-family="Helvetica,sans-Serif" font-size="10.00" fill="#000000">periph_cpu.h</text>
</g>
<!-- Node3&#45;&gt;Node5 -->
<g id="edge6" class="edge">
<title>Node3&#45;&gt;Node5</title>
<path fill="none" stroke="#191970" d="M127.7833,-56.2455C140.247,-47.7337 158.5451,-35.2375 172.9792,-25.3801"/>
<polygon fill="#191970" stroke="#191970" points="175.0962,-28.1726 181.3804,-19.6427 171.1485,-22.392 175.0962,-28.1726"/>
</g>
<!-- Node6 -->
<g id="node7" class="node">
<title>Node6</title>
<polygon fill="#ffffff" stroke="#bfbfbf" points="252,-.5 252,-19.5 333,-19.5 333,-.5 252,-.5"/>
<text text-anchor="middle" x="292.5" y="-7.5" font-family="Helvetica,sans-Serif" font-size="10.00" fill="#000000">periph_conf.h</text>
</g>
<!-- Node3&#45;&gt;Node6 -->
<g id="edge7" class="edge">
<title>Node3&#45;&gt;Node6</title>
<path fill="none" stroke="#191970" d="M144.2712,-56.3733C174.165,-47.021 219.7093,-32.7725 252.4217,-22.5385"/>
<polygon fill="#191970" stroke="#191970" points="253.6315,-25.8273 262.1303,-19.5011 251.5414,-19.1466 253.6315,-25.8273"/>
</g>
</g>
</svg>
