<?xml version="1.0" encoding="UTF-8" standalone="no"?>
<!DOCTYPE svg PUBLIC "-//W3C//DTD SVG 1.1//EN"
 "http://www.w3.org/Graphics/SVG/1.1/DTD/svg11.dtd">
<!-- Generated by graphviz version 2.40.1 (0)
 -->
<!-- Title: sys/include/checksum/fletcher32.h Pages: 1 -->
<svg width="128pt" height="95pt"
 viewBox="0.00 0.00 128.00 95.00" xmlns="http://www.w3.org/2000/svg" xmlns:xlink="http://www.w3.org/1999/xlink">
<g id="graph0" class="graph" transform="scale(1 1) rotate(0) translate(4 91)">
<title>sys/include/checksum/fletcher32.h</title>
<polygon fill="#ffffff" stroke="transparent" points="-4,4 -4,-91 124,-91 124,4 -4,4"/>
<!-- Node0 -->
<g id="node1" class="node">
<title>Node0</title>
<polygon fill="#bfbfbf" stroke="#000000" points=".5,-56.5 .5,-86.5 117.5,-86.5 117.5,-56.5 .5,-56.5"/>
<text text-anchor="start" x="8.5" y="-74.5" font-family="Helvetica,sans-Serif" font-size="10.00" fill="#000000">sys/include/checksum</text>
<text text-anchor="middle" x="59" y="-63.5" font-family="Helvetica,sans-Serif" font-size="10.00" fill="#000000">/fletcher32.h</text>
</g>
<!-- Node1 -->
<g id="node2" class="node">
<title>Node1</title>
<polygon fill="#ffffff" stroke="#bfbfbf" points="0,-.5 0,-19.5 50,-19.5 50,-.5 0,-.5"/>
<text text-anchor="middle" x="25" y="-7.5" font-family="Helvetica,sans-Serif" font-size="10.00" fill="#000000">stdlib.h</text>
</g>
<!-- Node0&#45;&gt;Node1 -->
<g id="edge1" class="edge">
<title>Node0&#45;&gt;Node1</title>
<path fill="none" stroke="#191970" d="M50.5955,-56.2977C45.9743,-47.9388 40.2031,-37.4997 35.3111,-28.6509"/>
<polygon fill="#191970" stroke="#191970" points="38.3452,-26.9051 30.4438,-19.8469 32.2191,-30.292 38.3452,-26.9051"/>
</g>
<!-- Node2 -->
<g id="node3" class="node">
<title>Node2</title>
<polygon fill="#ffffff" stroke="#bfbfbf" points="68,-.5 68,-19.5 120,-19.5 120,-.5 68,-.5"/>
<text text-anchor="middle" x="94" y="-7.5" font-family="Helvetica,sans-Serif" font-size="10.00" fill="#000000">stdint.h</text>
</g>
<!-- Node0&#45;&gt;Node2 -->
<g id="edge2" class="edge">
<title>Node0&#45;&gt;Node2</title>
<path fill="none" stroke="#191970" d="M67.6517,-56.2977C72.4088,-47.9388 78.3498,-37.4997 83.3857,-28.6509"/>
<polygon fill="#191970" stroke="#191970" points="86.4917,-30.2692 88.3961,-19.8469 80.4079,-26.8069 86.4917,-30.2692"/>
</g>
</g>
</svg>
