<?xml version="1.0" encoding="UTF-8" standalone="no"?>
<!DOCTYPE svg PUBLIC "-//W3C//DTD SVG 1.1//EN"
 "http://www.w3.org/Graphics/SVG/1.1/DTD/svg11.dtd">
<!-- Generated by graphviz version 2.40.1 (0)
 -->
<!-- Title: sys/include/fmt.h Pages: 1 -->
<svg width="188pt" height="196pt"
 viewBox="0.00 0.00 188.00 196.00" xmlns="http://www.w3.org/2000/svg" xmlns:xlink="http://www.w3.org/1999/xlink">
<g id="graph0" class="graph" transform="scale(1 1) rotate(0) translate(4 192)">
<title>sys/include/fmt.h</title>
<polygon fill="#ffffff" stroke="transparent" points="-4,4 -4,-192 184,-192 184,4 -4,4"/>
<!-- Node0 -->
<g id="node1" class="node">
<title>Node0</title>
<polygon fill="#bfbfbf" stroke="#000000" points="40.5,-168.5 40.5,-187.5 137.5,-187.5 137.5,-168.5 40.5,-168.5"/>
<text text-anchor="middle" x="89" y="-175.5" font-family="Helvetica,sans-Serif" font-size="10.00" fill="#000000">sys/include/fmt.h</text>
</g>
<!-- Node1 -->
<g id="node2" class="node">
<title>Node1</title>
<polygon fill="#ffffff" stroke="#bfbfbf" points="124,-.5 124,-19.5 180,-19.5 180,-.5 124,-.5"/>
<text text-anchor="middle" x="152" y="-7.5" font-family="Helvetica,sans-Serif" font-size="10.00" fill="#000000">stddef.h</text>
</g>
<!-- Node0&#45;&gt;Node1 -->
<g id="edge1" class="edge">
<title>Node0&#45;&gt;Node1</title>
<path fill="none" stroke="#191970" d="M97.9604,-168.2718C112.9471,-151.1852 142.3113,-113.9782 151,-76 154.479,-60.7934 154.5409,-43.0975 153.836,-29.8591"/>
<polygon fill="#191970" stroke="#191970" points="157.3023,-29.2672 153.0859,-19.5476 150.3208,-29.7752 157.3023,-29.2672"/>
</g>
<!-- Node2 -->
<g id="node3" class="node">
<title>Node2</title>
<polygon fill="#ffffff" stroke="#bfbfbf" points="0,-.5 0,-19.5 52,-19.5 52,-.5 0,-.5"/>
<text text-anchor="middle" x="26" y="-7.5" font-family="Helvetica,sans-Serif" font-size="10.00" fill="#000000">stdint.h</text>
</g>
<!-- Node0&#45;&gt;Node2 -->
<g id="edge2" class="edge">
<title>Node0&#45;&gt;Node2</title>
<path fill="none" stroke="#191970" d="M79.9979,-168.4261C72.0326,-159.5467 60.5357,-145.6788 53,-132 40.2476,-108.8517 38.8795,-101.7663 33,-76 29.5106,-60.7079 27.7528,-43.0174 26.8718,-29.8029"/>
<polygon fill="#191970" stroke="#191970" points="30.3498,-29.3062 26.3018,-19.5152 23.3605,-29.6935 30.3498,-29.3062"/>
</g>
<!-- Node3 -->
<g id="node4" class="node">
<title>Node3</title>
<g id="a_node4"><a xlink:href="unistd_8h_source.html" target="_top" xlink:title="unistd.h">
<polygon fill="#ffffff" stroke="#000000" points="62,-112.5 62,-131.5 116,-131.5 116,-112.5 62,-112.5"/>
<text text-anchor="middle" x="89" y="-119.5" font-family="Helvetica,sans-Serif" font-size="10.00" fill="#000000">unistd.h</text>
</a>
</g>
</g>
<!-- Node0&#45;&gt;Node3 -->
<g id="edge3" class="edge">
<title>Node0&#45;&gt;Node3</title>
<path fill="none" stroke="#191970" d="M89,-168.2455C89,-160.9382 89,-150.6944 89,-141.7046"/>
<polygon fill="#191970" stroke="#191970" points="92.5001,-141.6426 89,-131.6427 85.5001,-141.6427 92.5001,-141.6426"/>
</g>
<!-- Node3&#45;&gt;Node1 -->
<g id="edge4" class="edge">
<title>Node3&#45;&gt;Node1</title>
<path fill="none" stroke="#191970" d="M101.1346,-112.2631C111.052,-103.6942 124.7383,-90.3714 133,-76 141.264,-61.6247 146.1563,-43.3918 148.9014,-29.7342"/>
<polygon fill="#191970" stroke="#191970" points="152.4124,-29.9833 150.7293,-19.523 145.5219,-28.7498 152.4124,-29.9833"/>
</g>
<!-- Node3&#45;&gt;Node2 -->
<g id="edge5" class="edge">
<title>Node3&#45;&gt;Node2</title>
<path fill="none" stroke="#191970" d="M76.8654,-112.2631C66.948,-103.6942 53.2617,-90.3714 45,-76 36.736,-61.6247 31.8437,-43.3918 29.0986,-29.7342"/>
<polygon fill="#191970" stroke="#191970" points="32.4781,-28.7498 27.2707,-19.523 25.5876,-29.9833 32.4781,-28.7498"/>
</g>
<!-- Node4 -->
<g id="node5" class="node">
<title>Node4</title>
<g id="a_node5"><a xlink:href="cpu_2avr8__common_2avr__libc__extra_2include_2sys_2types_8h_source.html" target="_top" xlink:title="sys/types.h">
<polygon fill="#ffffff" stroke="#000000" points="54.5,-56.5 54.5,-75.5 123.5,-75.5 123.5,-56.5 54.5,-56.5"/>
<text text-anchor="middle" x="89" y="-63.5" font-family="Helvetica,sans-Serif" font-size="10.00" fill="#000000">sys/types.h</text>
</a>
</g>
</g>
<!-- Node3&#45;&gt;Node4 -->
<g id="edge6" class="edge">
<title>Node3&#45;&gt;Node4</title>
<path fill="none" stroke="#191970" d="M89,-112.2455C89,-104.9382 89,-94.6944 89,-85.7046"/>
<polygon fill="#191970" stroke="#191970" points="92.5001,-85.6426 89,-75.6427 85.5001,-85.6427 92.5001,-85.6426"/>
</g>
<!-- Node4&#45;&gt;Node1 -->
<g id="edge8" class="edge">
<title>Node4&#45;&gt;Node1</title>
<path fill="none" stroke="#191970" d="M99.9738,-56.2455C109.1882,-48.0549 122.5532,-36.1749 133.4297,-26.5069"/>
<polygon fill="#191970" stroke="#191970" points="136.0032,-28.9023 141.152,-19.6427 131.3526,-23.6704 136.0032,-28.9023"/>
</g>
<!-- Node4&#45;&gt;Node2 -->
<g id="edge7" class="edge">
<title>Node4&#45;&gt;Node2</title>
<path fill="none" stroke="#191970" d="M78.0262,-56.2455C68.8118,-48.0549 55.4468,-36.1749 44.5703,-26.5069"/>
<polygon fill="#191970" stroke="#191970" points="46.6474,-23.6704 36.848,-19.6427 41.9968,-28.9023 46.6474,-23.6704"/>
</g>
</g>
</svg>
