<?xml version="1.0" encoding="UTF-8" standalone="no"?>
<!DOCTYPE svg PUBLIC "-//W3C//DTD SVG 1.1//EN"
 "http://www.w3.org/Graphics/SVG/1.1/DTD/svg11.dtd">
<!-- Generated by graphviz version 2.40.1 (0)
 -->
<!-- Title: boards/frdm&#45;kl43z/include/adc_params.h Pages: 1 -->
<svg width="485pt" height="207pt"
 viewBox="0.00 0.00 484.50 207.00" xmlns="http://www.w3.org/2000/svg" xmlns:xlink="http://www.w3.org/1999/xlink">
<g id="graph0" class="graph" transform="scale(1 1) rotate(0) translate(4 203)">
<title>boards/frdm&#45;kl43z/include/adc_params.h</title>
<polygon fill="#ffffff" stroke="transparent" points="-4,4 -4,-203 480.5,-203 480.5,4 -4,4"/>
<!-- Node0 -->
<g id="node1" class="node">
<title>Node0</title>
<polygon fill="#bfbfbf" stroke="#000000" points="92.5,-168.5 92.5,-198.5 232.5,-198.5 232.5,-168.5 92.5,-168.5"/>
<text text-anchor="start" x="100.5" y="-186.5" font-family="Helvetica,sans-Serif" font-size="10.00" fill="#000000">boards/frdm&#45;kl43z/include</text>
<text text-anchor="middle" x="162.5" y="-175.5" font-family="Helvetica,sans-Serif" font-size="10.00" fill="#000000">/adc_params.h</text>
</g>
<!-- Node1 -->
<g id="node2" class="node">
<title>Node1</title>
<g id="a_node2"><a xlink:href="frdm-kl43z_2include_2board_8h.html" target="_top" xlink:title="Board specific definitions for the FRDM&#45;KL43Z. ">
<polygon fill="#ffffff" stroke="#000000" points="94,-112.5 94,-131.5 147,-131.5 147,-112.5 94,-112.5"/>
<text text-anchor="middle" x="120.5" y="-119.5" font-family="Helvetica,sans-Serif" font-size="10.00" fill="#000000">board.h</text>
</a>
</g>
</g>
<!-- Node0&#45;&gt;Node1 -->
<g id="edge1" class="edge">
<title>Node0&#45;&gt;Node1</title>
<path fill="none" stroke="#191970" d="M152.118,-168.2977C146.3487,-159.8498 139.1284,-149.2773 133.0447,-140.369"/>
<polygon fill="#191970" stroke="#191970" points="135.7547,-138.1311 127.2247,-131.8469 129.9741,-142.0788 135.7547,-138.1311"/>
</g>
<!-- Node5 -->
<g id="node6" class="node">
<title>Node5</title>
<g id="a_node6"><a xlink:href="periph_8h.html" target="_top" xlink:title="Parameter definitions for mapping peripherals directly to SAUL. ">
<polygon fill="#ffffff" stroke="#000000" points="210.5,-112.5 210.5,-131.5 288.5,-131.5 288.5,-112.5 210.5,-112.5"/>
<text text-anchor="middle" x="249.5" y="-119.5" font-family="Helvetica,sans-Serif" font-size="10.00" fill="#000000">saul/periph.h</text>
</a>
</g>
</g>
<!-- Node0&#45;&gt;Node5 -->
<g id="edge5" class="edge">
<title>Node0&#45;&gt;Node5</title>
<path fill="none" stroke="#191970" d="M184.0056,-168.2977C197.2968,-158.9022 214.3057,-146.8787 227.6588,-137.4395"/>
<polygon fill="#191970" stroke="#191970" points="229.6846,-140.2937 235.83,-131.6633 225.6439,-134.5776 229.6846,-140.2937"/>
</g>
<!-- Node2 -->
<g id="node3" class="node">
<title>Node2</title>
<polygon fill="#ffffff" stroke="#bfbfbf" points="99.5,-56.5 99.5,-75.5 141.5,-75.5 141.5,-56.5 99.5,-56.5"/>
<text text-anchor="middle" x="120.5" y="-63.5" font-family="Helvetica,sans-Serif" font-size="10.00" fill="#000000">cpu.h</text>
</g>
<!-- Node1&#45;&gt;Node2 -->
<g id="edge2" class="edge">
<title>Node1&#45;&gt;Node2</title>
<path fill="none" stroke="#191970" d="M120.5,-112.2455C120.5,-104.9382 120.5,-94.6944 120.5,-85.7046"/>
<polygon fill="#191970" stroke="#191970" points="124.0001,-85.6426 120.5,-75.6427 117.0001,-85.6427 124.0001,-85.6426"/>
</g>
<!-- Node3 -->
<g id="node4" class="node">
<title>Node3</title>
<g id="a_node4"><a xlink:href="boards_2frdm-kl43z_2include_2periph__conf_8h.html" target="_top" xlink:title="periph_conf.h">
<polygon fill="#ffffff" stroke="#000000" points="0,-56.5 0,-75.5 81,-75.5 81,-56.5 0,-56.5"/>
<text text-anchor="middle" x="40.5" y="-63.5" font-family="Helvetica,sans-Serif" font-size="10.00" fill="#000000">periph_conf.h</text>
</a>
</g>
</g>
<!-- Node1&#45;&gt;Node3 -->
<g id="edge3" class="edge">
<title>Node1&#45;&gt;Node3</title>
<path fill="none" stroke="#191970" d="M106.5651,-112.2455C94.4053,-103.7337 76.5536,-91.2375 62.4715,-81.3801"/>
<polygon fill="#191970" stroke="#191970" points="64.4747,-78.51 54.2752,-75.6427 60.4605,-84.2447 64.4747,-78.51"/>
</g>
<!-- Node4 -->
<g id="node5" class="node">
<title>Node4</title>
<polygon fill="#ffffff" stroke="#bfbfbf" points="161,-.5 161,-19.5 238,-19.5 238,-.5 161,-.5"/>
<text text-anchor="middle" x="199.5" y="-7.5" font-family="Helvetica,sans-Serif" font-size="10.00" fill="#000000">periph_cpu.h</text>
</g>
<!-- Node3&#45;&gt;Node4 -->
<g id="edge4" class="edge">
<title>Node3&#45;&gt;Node4</title>
<path fill="none" stroke="#191970" d="M67.8331,-56.3733C94.0434,-47.1419 133.7984,-33.1402 162.7668,-22.9375"/>
<polygon fill="#191970" stroke="#191970" points="164.2542,-26.1244 172.5236,-19.5011 161.9288,-19.5219 164.2542,-26.1244"/>
</g>
<!-- Node6 -->
<g id="node7" class="node">
<title>Node6</title>
<g id="a_node7"><a xlink:href="drivers_2include_2periph_2gpio_8h.html" target="_top" xlink:title="Low&#45;level GPIO peripheral driver interface definitions. ">
<polygon fill="#ffffff" stroke="#000000" points="159.5,-56.5 159.5,-75.5 239.5,-75.5 239.5,-56.5 159.5,-56.5"/>
<text text-anchor="middle" x="199.5" y="-63.5" font-family="Helvetica,sans-Serif" font-size="10.00" fill="#000000">periph/gpio.h</text>
</a>
</g>
</g>
<!-- Node5&#45;&gt;Node6 -->
<g id="edge6" class="edge">
<title>Node5&#45;&gt;Node6</title>
<path fill="none" stroke="#191970" d="M240.7907,-112.2455C233.6927,-104.2958 223.4916,-92.8706 215.005,-83.3656"/>
<polygon fill="#191970" stroke="#191970" points="217.3805,-80.771 208.1095,-75.6427 212.1589,-85.4331 217.3805,-80.771"/>
</g>
<!-- Node10 -->
<g id="node11" class="node">
<title>Node10</title>
<g id="a_node11"><a xlink:href="adc_8h.html" target="_top" xlink:title="Low&#45;level ADC peripheral driver interface definitions. ">
<polygon fill="#ffffff" stroke="#000000" points="257.5,-56.5 257.5,-75.5 333.5,-75.5 333.5,-56.5 257.5,-56.5"/>
<text text-anchor="middle" x="295.5" y="-63.5" font-family="Helvetica,sans-Serif" font-size="10.00" fill="#000000">periph/adc.h</text>
</a>
</g>
</g>
<!-- Node5&#45;&gt;Node10 -->
<g id="edge11" class="edge">
<title>Node5&#45;&gt;Node10</title>
<path fill="none" stroke="#191970" d="M257.5126,-112.2455C263.9768,-104.3761 273.2385,-93.101 280.9983,-83.6542"/>
<polygon fill="#191970" stroke="#191970" points="283.9364,-85.5916 287.5792,-75.6427 278.5273,-81.1484 283.9364,-85.5916"/>
</g>
<!-- Node12 -->
<g id="node13" class="node">
<title>Node12</title>
<g id="a_node13"><a xlink:href="pwm_8h.html" target="_top" xlink:title="Low&#45;level PWM peripheral driver interface definitions. ">
<polygon fill="#ffffff" stroke="#000000" points="352,-56.5 352,-75.5 435,-75.5 435,-56.5 352,-56.5"/>
<text text-anchor="middle" x="393.5" y="-63.5" font-family="Helvetica,sans-Serif" font-size="10.00" fill="#000000">periph/pwm.h</text>
</a>
</g>
</g>
<!-- Node5&#45;&gt;Node12 -->
<g id="edge16" class="edge">
<title>Node5&#45;&gt;Node12</title>
<path fill="none" stroke="#191970" d="M274.2545,-112.3733C297.7849,-103.2226 333.3687,-89.3844 359.5426,-79.2057"/>
<polygon fill="#191970" stroke="#191970" points="361.0171,-82.3877 369.0685,-75.5011 358.4799,-75.8636 361.0171,-82.3877"/>
</g>
<!-- Node6&#45;&gt;Node4 -->
<g id="edge9" class="edge">
<title>Node6&#45;&gt;Node4</title>
<path fill="none" stroke="#191970" d="M199.5,-56.2455C199.5,-48.9382 199.5,-38.6944 199.5,-29.7046"/>
<polygon fill="#191970" stroke="#191970" points="203.0001,-29.6426 199.5,-19.6427 196.0001,-29.6427 203.0001,-29.6426"/>
</g>
<!-- Node7 -->
<g id="node8" class="node">
<title>Node7</title>
<polygon fill="#ffffff" stroke="#bfbfbf" points="256.5,-.5 256.5,-19.5 306.5,-19.5 306.5,-.5 256.5,-.5"/>
<text text-anchor="middle" x="281.5" y="-7.5" font-family="Helvetica,sans-Serif" font-size="10.00" fill="#000000">limits.h</text>
</g>
<!-- Node6&#45;&gt;Node7 -->
<g id="edge7" class="edge">
<title>Node6&#45;&gt;Node7</title>
<path fill="none" stroke="#191970" d="M213.7833,-56.2455C226.247,-47.7337 244.5451,-35.2375 258.9792,-25.3801"/>
<polygon fill="#191970" stroke="#191970" points="261.0962,-28.1726 267.3804,-19.6427 257.1485,-22.392 261.0962,-28.1726"/>
</g>
<!-- Node8 -->
<g id="node9" class="node">
<title>Node8</title>
<polygon fill="#ffffff" stroke="#bfbfbf" points="82.5,-.5 82.5,-19.5 142.5,-19.5 142.5,-.5 82.5,-.5"/>
<text text-anchor="middle" x="112.5" y="-7.5" font-family="Helvetica,sans-Serif" font-size="10.00" fill="#000000">stdbool.h</text>
</g>
<!-- Node6&#45;&gt;Node8 -->
<g id="edge8" class="edge">
<title>Node6&#45;&gt;Node8</title>
<path fill="none" stroke="#191970" d="M184.3458,-56.2455C170.9973,-47.6534 151.3414,-35.0014 135.9617,-25.1018"/>
<polygon fill="#191970" stroke="#191970" points="137.7836,-22.1121 127.4806,-19.6427 133.9949,-27.9982 137.7836,-22.1121"/>
</g>
<!-- Node9 -->
<g id="node10" class="node">
<title>Node9</title>
<polygon fill="#ffffff" stroke="#bfbfbf" points="325,-.5 325,-19.5 406,-19.5 406,-.5 325,-.5"/>
<text text-anchor="middle" x="365.5" y="-7.5" font-family="Helvetica,sans-Serif" font-size="10.00" fill="#000000">periph_conf.h</text>
</g>
<!-- Node6&#45;&gt;Node9 -->
<g id="edge10" class="edge">
<title>Node6&#45;&gt;Node9</title>
<path fill="none" stroke="#191970" d="M228.0364,-56.3733C255.5202,-47.1016 297.2686,-33.0178 327.5452,-22.804"/>
<polygon fill="#191970" stroke="#191970" points="328.9794,-26.0141 337.336,-19.5011 326.7418,-19.3813 328.9794,-26.0141"/>
</g>
<!-- Node10&#45;&gt;Node4 -->
<g id="edge14" class="edge">
<title>Node10&#45;&gt;Node4</title>
<path fill="none" stroke="#191970" d="M278.7781,-56.2455C263.9111,-47.5731 241.9534,-34.7645 224.9142,-24.825"/>
<polygon fill="#191970" stroke="#191970" points="226.4317,-21.6582 216.0303,-19.6427 222.9045,-27.7047 226.4317,-21.6582"/>
</g>
<!-- Node10&#45;&gt;Node7 -->
<g id="edge12" class="edge">
<title>Node10&#45;&gt;Node7</title>
<path fill="none" stroke="#191970" d="M293.0614,-56.2455C291.2145,-48.8579 288.6172,-38.4689 286.3522,-29.4087"/>
<polygon fill="#191970" stroke="#191970" points="289.7316,-28.4952 283.9107,-19.6427 282.9406,-30.193 289.7316,-28.4952"/>
</g>
<!-- Node10&#45;&gt;Node9 -->
<g id="edge15" class="edge">
<title>Node10&#45;&gt;Node9</title>
<path fill="none" stroke="#191970" d="M307.6931,-56.2455C318.1321,-47.8943 333.3655,-35.7076 345.574,-25.9408"/>
<polygon fill="#191970" stroke="#191970" points="347.8244,-28.6227 353.4467,-19.6427 343.4515,-23.1566 347.8244,-28.6227"/>
</g>
<!-- Node11 -->
<g id="node12" class="node">
<title>Node11</title>
<polygon fill="#ffffff" stroke="#bfbfbf" points="424.5,-.5 424.5,-19.5 476.5,-19.5 476.5,-.5 424.5,-.5"/>
<text text-anchor="middle" x="450.5" y="-7.5" font-family="Helvetica,sans-Serif" font-size="10.00" fill="#000000">stdint.h</text>
</g>
<!-- Node10&#45;&gt;Node11 -->
<g id="edge13" class="edge">
<title>Node10&#45;&gt;Node11</title>
<path fill="none" stroke="#191970" d="M322.1454,-56.3733C347.7739,-47.114 386.6862,-33.0553 414.9474,-22.8448"/>
<polygon fill="#191970" stroke="#191970" points="416.2445,-26.0977 424.4602,-19.4079 413.8659,-19.5142 416.2445,-26.0977"/>
</g>
<!-- Node12&#45;&gt;Node4 -->
<g id="edge19" class="edge">
<title>Node12&#45;&gt;Node4</title>
<path fill="none" stroke="#191970" d="M360.1502,-56.3733C327.472,-46.9404 277.5382,-32.5265 242.023,-22.2747"/>
<polygon fill="#191970" stroke="#191970" points="242.993,-18.9119 232.4146,-19.5011 241.0516,-25.6373 242.993,-18.9119"/>
</g>
<!-- Node12&#45;&gt;Node7 -->
<g id="edge18" class="edge">
<title>Node12&#45;&gt;Node7</title>
<path fill="none" stroke="#191970" d="M374.2465,-56.3733C356.4288,-47.4644 329.7253,-34.1127 309.5406,-24.0203"/>
<polygon fill="#191970" stroke="#191970" points="311.0118,-20.8428 300.5022,-19.5011 307.8813,-27.1038 311.0118,-20.8428"/>
</g>
<!-- Node12&#45;&gt;Node9 -->
<g id="edge20" class="edge">
<title>Node12&#45;&gt;Node9</title>
<path fill="none" stroke="#191970" d="M388.6228,-56.2455C384.8487,-48.6973 379.5079,-38.0158 374.9099,-28.8197"/>
<polygon fill="#191970" stroke="#191970" points="377.924,-27.0217 370.3213,-19.6427 371.663,-30.1522 377.924,-27.0217"/>
</g>
<!-- Node12&#45;&gt;Node11 -->
<g id="edge17" class="edge">
<title>Node12&#45;&gt;Node11</title>
<path fill="none" stroke="#191970" d="M403.4286,-56.2455C411.6838,-48.1352 423.6209,-36.4075 433.4082,-26.7919"/>
<polygon fill="#191970" stroke="#191970" points="436.0046,-29.1476 440.6851,-19.6427 431.0989,-24.1542 436.0046,-29.1476"/>
</g>
</g>
</svg>
