<?xml version="1.0" encoding="UTF-8" standalone="no"?>
<!DOCTYPE svg PUBLIC "-//W3C//DTD SVG 1.1//EN"
 "http://www.w3.org/Graphics/SVG/1.1/DTD/svg11.dtd">
<!-- Generated by graphviz version 2.40.1 (0)
 -->
<!-- Title: drivers/ft5x06/include/ft5x06_internal.h Pages: 1 -->
<svg width="761pt" height="375pt"
 viewBox="0.00 0.00 760.58 375.00" xmlns="http://www.w3.org/2000/svg" xmlns:xlink="http://www.w3.org/1999/xlink">
<g id="graph0" class="graph" transform="scale(1 1) rotate(0) translate(4 371)">
<title>drivers/ft5x06/include/ft5x06_internal.h</title>
<polygon fill="#ffffff" stroke="transparent" points="-4,4 -4,-371 756.5837,-371 756.5837,4 -4,4"/>
<!-- Node0 -->
<g id="node1" class="node">
<title>Node0</title>
<polygon fill="#bfbfbf" stroke="#000000" points="305.5,-336.5 305.5,-366.5 426.5,-366.5 426.5,-336.5 305.5,-336.5"/>
<text text-anchor="start" x="313.5" y="-354.5" font-family="Helvetica,sans-Serif" font-size="10.00" fill="#000000">drivers/ft5x06/include</text>
<text text-anchor="middle" x="366" y="-343.5" font-family="Helvetica,sans-Serif" font-size="10.00" fill="#000000">/ft5x06_internal.h</text>
</g>
<!-- Node1 -->
<g id="node2" class="node">
<title>Node1</title>
<g id="a_node2"><a xlink:href="inttypes_8h.html" target="_top" xlink:title="Adds include for missing inttype definitions. ">
<polygon fill="#ffffff" stroke="#000000" points="295.5,-280.5 295.5,-299.5 358.5,-299.5 358.5,-280.5 295.5,-280.5"/>
<text text-anchor="middle" x="327" y="-287.5" font-family="Helvetica,sans-Serif" font-size="10.00" fill="#000000">inttypes.h</text>
</a>
</g>
</g>
<!-- Node0&#45;&gt;Node1 -->
<g id="edge1" class="edge">
<title>Node0&#45;&gt;Node1</title>
<path fill="none" stroke="#191970" d="M356.3595,-336.2977C351.0023,-327.8498 344.2978,-317.2773 338.6487,-308.369"/>
<polygon fill="#191970" stroke="#191970" points="341.5556,-306.4176 333.2444,-299.8469 335.6441,-310.1664 341.5556,-306.4176"/>
</g>
<!-- Node2 -->
<g id="node3" class="node">
<title>Node2</title>
<g id="a_node3"><a xlink:href="ft5x06_8h.html" target="_top" xlink:title="ft5x06.h">
<polygon fill="#ffffff" stroke="#000000" points="377,-280.5 377,-299.5 433,-299.5 433,-280.5 377,-280.5"/>
<text text-anchor="middle" x="405" y="-287.5" font-family="Helvetica,sans-Serif" font-size="10.00" fill="#000000">ft5x06.h</text>
</a>
</g>
</g>
<!-- Node0&#45;&gt;Node2 -->
<g id="edge2" class="edge">
<title>Node0&#45;&gt;Node2</title>
<path fill="none" stroke="#191970" d="M375.6405,-336.2977C380.9977,-327.8498 387.7022,-317.2773 393.3513,-308.369"/>
<polygon fill="#191970" stroke="#191970" points="396.3559,-310.1664 398.7556,-299.8469 390.4444,-306.4176 396.3559,-310.1664"/>
</g>
<!-- Node3 -->
<g id="node4" class="node">
<title>Node3</title>
<polygon fill="#ffffff" stroke="#bfbfbf" points="560,-.5 560,-19.5 612,-19.5 612,-.5 560,-.5"/>
<text text-anchor="middle" x="586" y="-7.5" font-family="Helvetica,sans-Serif" font-size="10.00" fill="#000000">stdint.h</text>
</g>
<!-- Node2&#45;&gt;Node3 -->
<g id="edge3" class="edge">
<title>Node2&#45;&gt;Node3</title>
<path fill="none" stroke="#191970" d="M433.1025,-287.0589C515.7113,-277.6424 752,-244.8641 752,-178 752,-178 752,-178 752,-122 752,-91.4754 754.3348,-77.8307 733,-56 717.5388,-40.1794 660.6649,-25.595 622.3636,-17.2566"/>
<polygon fill="#191970" stroke="#191970" points="622.6124,-13.7313 612.1031,-15.0746 621.1563,-20.5782 622.6124,-13.7313"/>
</g>
<!-- Node4 -->
<g id="node5" class="node">
<title>Node4</title>
<g id="a_node5"><a xlink:href="drivers_2include_2periph_2gpio_8h.html" target="_top" xlink:title="Low&#45;level GPIO peripheral driver interface definitions. ">
<polygon fill="#ffffff" stroke="#000000" points="163,-224.5 163,-243.5 243,-243.5 243,-224.5 163,-224.5"/>
<text text-anchor="middle" x="203" y="-231.5" font-family="Helvetica,sans-Serif" font-size="10.00" fill="#000000">periph/gpio.h</text>
</a>
</g>
</g>
<!-- Node2&#45;&gt;Node4 -->
<g id="edge4" class="edge">
<title>Node2&#45;&gt;Node4</title>
<path fill="none" stroke="#191970" d="M376.9128,-282.2134C343.3339,-272.9044 286.7318,-257.2128 247.2537,-246.2683"/>
<polygon fill="#191970" stroke="#191970" points="248.1818,-242.8937 237.6102,-243.5949 246.3117,-249.6393 248.1818,-242.8937"/>
</g>
<!-- Node9 -->
<g id="node10" class="node">
<title>Node9</title>
<g id="a_node10"><a xlink:href="i2c_8h.html" target="_top" xlink:title="Low&#45;level I2C peripheral driver interface definition. ">
<polygon fill="#ffffff" stroke="#000000" points="288.5,-224.5 288.5,-243.5 361.5,-243.5 361.5,-224.5 288.5,-224.5"/>
<text text-anchor="middle" x="325" y="-231.5" font-family="Helvetica,sans-Serif" font-size="10.00" fill="#000000">periph/i2c.h</text>
</a>
</g>
</g>
<!-- Node2&#45;&gt;Node9 -->
<g id="edge9" class="edge">
<title>Node2&#45;&gt;Node9</title>
<path fill="none" stroke="#191970" d="M391.0651,-280.2455C378.9053,-271.7337 361.0536,-259.2375 346.9715,-249.3801"/>
<polygon fill="#191970" stroke="#191970" points="348.9747,-246.51 338.7752,-243.6427 344.9605,-252.2447 348.9747,-246.51"/>
</g>
<!-- Node11 -->
<g id="node12" class="node">
<title>Node11</title>
<g id="a_node12"><a xlink:href="ft5x06__constants_8h.html" target="_top" xlink:title="Internal register addresses, bitfields and constants. ">
<polygon fill="#ffffff" stroke="#000000" points="432.5,-224.5 432.5,-243.5 537.5,-243.5 537.5,-224.5 432.5,-224.5"/>
<text text-anchor="middle" x="485" y="-231.5" font-family="Helvetica,sans-Serif" font-size="10.00" fill="#000000">ft5x06_constants.h</text>
</a>
</g>
</g>
<!-- Node2&#45;&gt;Node11 -->
<g id="edge15" class="edge">
<title>Node2&#45;&gt;Node11</title>
<path fill="none" stroke="#191970" d="M418.9349,-280.2455C431.0947,-271.7337 448.9464,-259.2375 463.0285,-249.3801"/>
<polygon fill="#191970" stroke="#191970" points="465.0395,-252.2447 471.2248,-243.6427 461.0253,-246.51 465.0395,-252.2447"/>
</g>
<!-- Node5 -->
<g id="node6" class="node">
<title>Node5</title>
<polygon fill="#ffffff" stroke="#bfbfbf" points="178,-168.5 178,-187.5 228,-187.5 228,-168.5 178,-168.5"/>
<text text-anchor="middle" x="203" y="-175.5" font-family="Helvetica,sans-Serif" font-size="10.00" fill="#000000">limits.h</text>
</g>
<!-- Node4&#45;&gt;Node5 -->
<g id="edge5" class="edge">
<title>Node4&#45;&gt;Node5</title>
<path fill="none" stroke="#191970" d="M203,-224.2455C203,-216.9382 203,-206.6944 203,-197.7046"/>
<polygon fill="#191970" stroke="#191970" points="206.5001,-197.6426 203,-187.6427 199.5001,-197.6427 206.5001,-197.6426"/>
</g>
<!-- Node6 -->
<g id="node7" class="node">
<title>Node6</title>
<polygon fill="#ffffff" stroke="#bfbfbf" points="0,-168.5 0,-187.5 60,-187.5 60,-168.5 0,-168.5"/>
<text text-anchor="middle" x="30" y="-175.5" font-family="Helvetica,sans-Serif" font-size="10.00" fill="#000000">stdbool.h</text>
</g>
<!-- Node4&#45;&gt;Node6 -->
<g id="edge6" class="edge">
<title>Node4&#45;&gt;Node6</title>
<path fill="none" stroke="#191970" d="M173.2602,-224.3733C144.493,-215.0613 100.73,-200.8953 69.1444,-190.671"/>
<polygon fill="#191970" stroke="#191970" points="69.9436,-187.251 59.3517,-187.5011 67.7878,-193.9107 69.9436,-187.251"/>
</g>
<!-- Node7 -->
<g id="node8" class="node">
<title>Node7</title>
<polygon fill="#ffffff" stroke="#bfbfbf" points="246.5,-168.5 246.5,-187.5 323.5,-187.5 323.5,-168.5 246.5,-168.5"/>
<text text-anchor="middle" x="285" y="-175.5" font-family="Helvetica,sans-Serif" font-size="10.00" fill="#000000">periph_cpu.h</text>
</g>
<!-- Node4&#45;&gt;Node7 -->
<g id="edge7" class="edge">
<title>Node4&#45;&gt;Node7</title>
<path fill="none" stroke="#191970" d="M217.2833,-224.2455C229.747,-215.7337 248.0451,-203.2375 262.4792,-193.3801"/>
<polygon fill="#191970" stroke="#191970" points="264.5962,-196.1726 270.8804,-187.6427 260.6485,-190.392 264.5962,-196.1726"/>
</g>
<!-- Node8 -->
<g id="node9" class="node">
<title>Node8</title>
<polygon fill="#ffffff" stroke="#bfbfbf" points="78.5,-168.5 78.5,-187.5 159.5,-187.5 159.5,-168.5 78.5,-168.5"/>
<text text-anchor="middle" x="119" y="-175.5" font-family="Helvetica,sans-Serif" font-size="10.00" fill="#000000">periph_conf.h</text>
</g>
<!-- Node4&#45;&gt;Node8 -->
<g id="edge8" class="edge">
<title>Node4&#45;&gt;Node8</title>
<path fill="none" stroke="#191970" d="M188.3683,-224.2455C175.6006,-215.7337 156.8562,-203.2375 142.0701,-193.3801"/>
<polygon fill="#191970" stroke="#191970" points="143.726,-190.2775 133.464,-187.6427 139.8431,-196.1019 143.726,-190.2775"/>
</g>
<!-- Node9&#45;&gt;Node3 -->
<g id="edge10" class="edge">
<title>Node9&#45;&gt;Node3</title>
<path fill="none" stroke="#191970" d="M326.7878,-224.0552C333.0835,-190.1203 355.2422,-79.6786 381,-56 405.3057,-33.6563 497.7464,-19.9107 549.8059,-13.7759"/>
<polygon fill="#191970" stroke="#191970" points="550.4172,-17.2289 559.9551,-12.616 549.6223,-10.2742 550.4172,-17.2289"/>
</g>
<!-- Node9&#45;&gt;Node5 -->
<g id="edge12" class="edge">
<title>Node9&#45;&gt;Node5</title>
<path fill="none" stroke="#191970" d="M304.0275,-224.3733C284.4433,-215.3838 255.0039,-201.8706 232.949,-191.7471"/>
<polygon fill="#191970" stroke="#191970" points="234.2473,-188.4919 223.6989,-187.5011 231.3271,-194.8538 234.2473,-188.4919"/>
</g>
<!-- Node9&#45;&gt;Node7 -->
<g id="edge14" class="edge">
<title>Node9&#45;&gt;Node7</title>
<path fill="none" stroke="#191970" d="M318.0325,-224.2455C312.4689,-216.4564 304.522,-205.3308 297.8171,-195.9439"/>
<polygon fill="#191970" stroke="#191970" points="300.5481,-193.7457 291.8876,-187.6427 294.852,-197.8144 300.5481,-193.7457"/>
</g>
<!-- Node9&#45;&gt;Node8 -->
<g id="edge13" class="edge">
<title>Node9&#45;&gt;Node8</title>
<path fill="none" stroke="#191970" d="M289.5873,-224.3733C254.7395,-214.9001 201.4118,-200.4032 163.6707,-190.1435"/>
<polygon fill="#191970" stroke="#191970" points="164.5185,-186.747 153.9506,-187.5011 162.6822,-193.5019 164.5185,-186.747"/>
</g>
<!-- Node10 -->
<g id="node11" class="node">
<title>Node10</title>
<polygon fill="#ffffff" stroke="#bfbfbf" points="390,-56.5 390,-75.5 446,-75.5 446,-56.5 390,-56.5"/>
<text text-anchor="middle" x="418" y="-63.5" font-family="Helvetica,sans-Serif" font-size="10.00" fill="#000000">stddef.h</text>
</g>
<!-- Node9&#45;&gt;Node10 -->
<g id="edge11" class="edge">
<title>Node9&#45;&gt;Node10</title>
<path fill="none" stroke="#191970" d="M335.4882,-224.1908C344.467,-215.3722 357.2875,-201.7297 366,-188 387.3847,-154.3004 403.6515,-110.3003 411.9262,-85.4013"/>
<polygon fill="#191970" stroke="#191970" points="415.3174,-86.2895 415.0653,-75.6976 408.6572,-84.1349 415.3174,-86.2895"/>
</g>
<!-- Node12 -->
<g id="node13" class="node">
<title>Node12</title>
<g id="a_node13"><a xlink:href="kernel__defines_8h.html" target="_top" xlink:title="Common macros and compiler attributes/pragmas configuration. ">
<polygon fill="#ffffff" stroke="#000000" points="490.5,-168.5 490.5,-187.5 585.5,-187.5 585.5,-168.5 490.5,-168.5"/>
<text text-anchor="middle" x="538" y="-175.5" font-family="Helvetica,sans-Serif" font-size="10.00" fill="#000000">kernel_defines.h</text>
</a>
</g>
</g>
<!-- Node11&#45;&gt;Node12 -->
<g id="edge16" class="edge">
<title>Node11&#45;&gt;Node12</title>
<path fill="none" stroke="#191970" d="M494.2319,-224.2455C501.8317,-216.2155 512.7877,-204.6394 521.8368,-195.0781"/>
<polygon fill="#191970" stroke="#191970" points="524.5421,-197.3115 528.8739,-187.6427 519.458,-192.4998 524.5421,-197.3115"/>
</g>
<!-- Node13 -->
<g id="node14" class="node">
<title>Node13</title>
<g id="a_node14"><a xlink:href="modules_8h.html" target="_top" xlink:title="Common macros and compiler attributes/pragmas configuration. ">
<polygon fill="#ffffff" stroke="#000000" points="505.5,-112.5 505.5,-131.5 570.5,-131.5 570.5,-112.5 505.5,-112.5"/>
<text text-anchor="middle" x="538" y="-119.5" font-family="Helvetica,sans-Serif" font-size="10.00" fill="#000000">modules.h</text>
</a>
</g>
</g>
<!-- Node12&#45;&gt;Node13 -->
<g id="edge17" class="edge">
<title>Node12&#45;&gt;Node13</title>
<path fill="none" stroke="#191970" d="M538,-168.2455C538,-160.9382 538,-150.6944 538,-141.7046"/>
<polygon fill="#191970" stroke="#191970" points="541.5001,-141.6426 538,-131.6427 534.5001,-141.6427 541.5001,-141.6426"/>
</g>
<!-- Node14 -->
<g id="node15" class="node">
<title>Node14</title>
<g id="a_node15"><a xlink:href="riot__version_8h.html" target="_top" xlink:title="Common macros and compiler attributes/pragmas configuration. ">
<polygon fill="#ffffff" stroke="#000000" points="642.5,-56.5 642.5,-75.5 723.5,-75.5 723.5,-56.5 642.5,-56.5"/>
<text text-anchor="middle" x="683" y="-63.5" font-family="Helvetica,sans-Serif" font-size="10.00" fill="#000000">riot_version.h</text>
</a>
</g>
</g>
<!-- Node12&#45;&gt;Node14 -->
<g id="edge18" class="edge">
<title>Node12&#45;&gt;Node14</title>
<path fill="none" stroke="#191970" d="M585.833,-169.9981C625.8198,-162.2183 678.2975,-149.0832 691,-132 700.9756,-118.5841 697.1019,-99.2213 691.8572,-84.9358"/>
<polygon fill="#191970" stroke="#191970" points="695.0429,-83.4809 687.9744,-75.5887 688.5784,-86.1663 695.0429,-83.4809"/>
</g>
<!-- Node15 -->
<g id="node16" class="node">
<title>Node15</title>
<g id="a_node16"><a xlink:href="compiler__hints_8h.html" target="_top" xlink:title="Common macros and compiler attributes/pragmas configuration. ">
<polygon fill="#ffffff" stroke="#000000" points="588.5,-112.5 588.5,-131.5 681.5,-131.5 681.5,-112.5 588.5,-112.5"/>
<text text-anchor="middle" x="635" y="-119.5" font-family="Helvetica,sans-Serif" font-size="10.00" fill="#000000">compiler_hints.h</text>
</a>
</g>
</g>
<!-- Node12&#45;&gt;Node15 -->
<g id="edge20" class="edge">
<title>Node12&#45;&gt;Node15</title>
<path fill="none" stroke="#191970" d="M554.8961,-168.2455C569.918,-159.5731 592.1043,-146.7645 609.321,-136.825"/>
<polygon fill="#191970" stroke="#191970" points="611.3871,-139.6737 618.2975,-131.6427 607.8872,-133.6114 611.3871,-139.6737"/>
</g>
<!-- Node17 -->
<g id="node18" class="node">
<title>Node17</title>
<g id="a_node18"><a xlink:href="container_8h.html" target="_top" xlink:title="Common macros and compiler attributes/pragmas configuration. ">
<polygon fill="#ffffff" stroke="#000000" points="418.5,-112.5 418.5,-131.5 487.5,-131.5 487.5,-112.5 418.5,-112.5"/>
<text text-anchor="middle" x="453" y="-119.5" font-family="Helvetica,sans-Serif" font-size="10.00" fill="#000000">container.h</text>
</a>
</g>
</g>
<!-- Node12&#45;&gt;Node17 -->
<g id="edge24" class="edge">
<title>Node12&#45;&gt;Node17</title>
<path fill="none" stroke="#191970" d="M523.1941,-168.2455C510.2744,-159.7337 491.3069,-147.2375 476.3448,-137.3801"/>
<polygon fill="#191970" stroke="#191970" points="477.9124,-134.2216 467.6362,-131.6427 474.0613,-140.067 477.9124,-134.2216"/>
</g>
<!-- Node14&#45;&gt;Node3 -->
<g id="edge19" class="edge">
<title>Node14&#45;&gt;Node3</title>
<path fill="none" stroke="#191970" d="M666.1039,-56.2455C651.082,-47.5731 628.8957,-34.7645 611.679,-24.825"/>
<polygon fill="#191970" stroke="#191970" points="613.1128,-21.6114 602.7025,-19.6427 609.6129,-27.6737 613.1128,-21.6114"/>
</g>
<!-- Node15&#45;&gt;Node3 -->
<g id="edge23" class="edge">
<title>Node15&#45;&gt;Node3</title>
<path fill="none" stroke="#191970" d="M630.8223,-112.4509C622.722,-93.936 604.7508,-52.8591 594.1894,-28.7187"/>
<polygon fill="#191970" stroke="#191970" points="597.3819,-27.2836 590.1671,-19.5249 590.9688,-30.0894 597.3819,-27.2836"/>
</g>
<!-- Node16 -->
<g id="node17" class="node">
<title>Node16</title>
<g id="a_node17"><a xlink:href="assert_8h.html" target="_top" xlink:title="POSIX.1&#45;2008 compliant version of the assert macro. ">
<polygon fill="#ffffff" stroke="#000000" points="532,-56.5 532,-75.5 586,-75.5 586,-56.5 532,-56.5"/>
<text text-anchor="middle" x="559" y="-63.5" font-family="Helvetica,sans-Serif" font-size="10.00" fill="#000000">assert.h</text>
</a>
</g>
</g>
<!-- Node15&#45;&gt;Node16 -->
<g id="edge21" class="edge">
<title>Node15&#45;&gt;Node16</title>
<path fill="none" stroke="#191970" d="M621.7618,-112.2455C610.319,-103.814 593.5704,-91.4729 580.2525,-81.6598"/>
<polygon fill="#191970" stroke="#191970" points="582.2133,-78.757 572.0865,-75.6427 578.0609,-84.3924 582.2133,-78.757"/>
</g>
<!-- Node16&#45;&gt;Node3 -->
<g id="edge22" class="edge">
<title>Node16&#45;&gt;Node3</title>
<path fill="none" stroke="#191970" d="M563.703,-56.2455C567.3424,-48.6973 572.4924,-38.0158 576.9262,-28.8197"/>
<polygon fill="#191970" stroke="#191970" points="580.1605,-30.1704 581.3509,-19.6427 573.8551,-27.1303 580.1605,-30.1704"/>
</g>
<!-- Node17&#45;&gt;Node3 -->
<g id="edge26" class="edge">
<title>Node17&#45;&gt;Node3</title>
<path fill="none" stroke="#191970" d="M462.6114,-112.1966C475.783,-98.9377 500.3903,-74.7878 523,-56 535.9915,-45.2045 551.2785,-34.0091 563.5403,-25.3661"/>
<polygon fill="#191970" stroke="#191970" points="565.6573,-28.1568 571.858,-19.5659 561.6534,-22.4149 565.6573,-28.1568"/>
</g>
<!-- Node17&#45;&gt;Node10 -->
<g id="edge25" class="edge">
<title>Node17&#45;&gt;Node10</title>
<path fill="none" stroke="#191970" d="M446.9035,-112.2455C442.0855,-104.5367 435.2249,-93.5598 429.3968,-84.2348"/>
<polygon fill="#191970" stroke="#191970" points="432.2947,-82.2677 424.0267,-75.6427 426.3587,-85.9777 432.2947,-82.2677"/>
</g>
</g>
</svg>
