<?xml version="1.0" encoding="UTF-8" standalone="no"?>
<!DOCTYPE svg PUBLIC "-//W3C//DTD SVG 1.1//EN"
 "http://www.w3.org/Graphics/SVG/1.1/DTD/svg11.dtd">
<!-- Generated by graphviz version 2.40.1 (0)
 -->
<!-- Title: sys/include/net/gnrc/ipv6/nib/ft.h Pages: 1 -->
<svg width="1588pt" height="474pt"
 viewBox="0.00 0.00 1587.50 474.00" xmlns="http://www.w3.org/2000/svg" xmlns:xlink="http://www.w3.org/1999/xlink">
<g id="graph0" class="graph" transform="scale(1 1) rotate(0) translate(4 470)">
<title>sys/include/net/gnrc/ipv6/nib/ft.h</title>
<polygon fill="#ffffff" stroke="transparent" points="-4,4 -4,-470 1583.5,-470 1583.5,4 -4,4"/>
<!-- Node26 -->
<g id="node1" class="node">
<title>Node26</title>
<polygon fill="#bfbfbf" stroke="#000000" points="636.5,-435.5 636.5,-465.5 748.5,-465.5 748.5,-435.5 636.5,-435.5"/>
<text text-anchor="start" x="644.5" y="-453.5" font-family="Helvetica,sans-Serif" font-size="10.00" fill="#000000">sys/include/net/gnrc</text>
<text text-anchor="middle" x="692.5" y="-442.5" font-family="Helvetica,sans-Serif" font-size="10.00" fill="#000000">/ipv6/nib/ft.h</text>
</g>
<!-- Node27 -->
<g id="node2" class="node">
<title>Node27</title>
<g id="a_node2"><a xlink:href="nib_8h.html" target="_top" xlink:title="NIB definitions. ">
<polygon fill="#ffffff" stroke="#000000" points="594.5,-368.5 594.5,-398.5 706.5,-398.5 706.5,-368.5 594.5,-368.5"/>
<text text-anchor="start" x="602.5" y="-386.5" font-family="Helvetica,sans-Serif" font-size="10.00" fill="#000000">sys/include/net/gnrc</text>
<text text-anchor="middle" x="650.5" y="-375.5" font-family="Helvetica,sans-Serif" font-size="10.00" fill="#000000">/ipv6/nib.h</text>
</a>
</g>
</g>
<!-- Node26&#45;&gt;Node27 -->
<g id="edge1" class="edge">
<title>Node26&#45;&gt;Node27</title>
<path fill="none" stroke="#191970" d="M677.6267,-426.7735C671.7604,-417.4154 665.195,-406.9421 659.9927,-398.6432"/>
<polygon fill="#191970" stroke="#191970" points="674.6926,-428.6828 682.9695,-435.2967 680.6237,-424.9648 674.6926,-428.6828"/>
</g>
<!-- Node42 -->
<g id="node17" class="node">
<title>Node42</title>
<g id="a_node17"><a xlink:href="__nib-internal_8h_source.html" target="_top" xlink:title="sys/net/gnrc/network\l_layer/ipv6/nib/_nib\l&#45;internal.h">
<polygon fill="#ffffff" stroke="#000000" points="1292.5,-223.5 1292.5,-264.5 1410.5,-264.5 1410.5,-223.5 1292.5,-223.5"/>
<text text-anchor="start" x="1300.5" y="-252.5" font-family="Helvetica,sans-Serif" font-size="10.00" fill="#000000">sys/net/gnrc/network</text>
<text text-anchor="start" x="1300.5" y="-241.5" font-family="Helvetica,sans-Serif" font-size="10.00" fill="#000000">_layer/ipv6/nib/_nib</text>
<text text-anchor="middle" x="1351.5" y="-230.5" font-family="Helvetica,sans-Serif" font-size="10.00" fill="#000000">&#45;internal.h</text>
</a>
</g>
</g>
<!-- Node26&#45;&gt;Node42 -->
<g id="edge28" class="edge">
<title>Node26&#45;&gt;Node42</title>
<path fill="none" stroke="#191970" d="M750.1431,-432.4373C874.3892,-393.5044 1166.3396,-302.0207 1292.1263,-262.605"/>
<polygon fill="#191970" stroke="#191970" points="748.9204,-429.1526 740.4245,-435.4827 751.0136,-435.8323 748.9204,-429.1526"/>
</g>
<!-- Node28 -->
<g id="node3" class="node">
<title>Node28</title>
<g id="a_node3"><a xlink:href="gnrc_2ipv6_8h.html" target="_top" xlink:title="Definitions for GNRC&#39;s IPv6 implementation. ">
<polygon fill="#ffffff" stroke="#000000" points="594.5,-301.5 594.5,-331.5 706.5,-331.5 706.5,-301.5 594.5,-301.5"/>
<text text-anchor="start" x="602.5" y="-319.5" font-family="Helvetica,sans-Serif" font-size="10.00" fill="#000000">sys/include/net/gnrc</text>
<text text-anchor="middle" x="650.5" y="-308.5" font-family="Helvetica,sans-Serif" font-size="10.00" fill="#000000">/ipv6.h</text>
</a>
</g>
</g>
<!-- Node27&#45;&gt;Node28 -->
<g id="edge2" class="edge">
<title>Node27&#45;&gt;Node28</title>
<path fill="none" stroke="#191970" d="M650.5,-358.0249C650.5,-349.128 650.5,-339.4287 650.5,-331.6432"/>
<polygon fill="#191970" stroke="#191970" points="647.0001,-358.2966 650.5,-368.2967 654.0001,-358.2967 647.0001,-358.2966"/>
</g>
<!-- Node34 -->
<g id="node9" class="node">
<title>Node34</title>
<g id="a_node9"><a xlink:href="gnrc__ipv6__auto__subnets_8c.html" target="_top" xlink:title="sys/net/gnrc/routing\l/ipv6_auto_subnets/gnrc\l_ipv6_auto_subnets.c">
<polygon fill="#ffffff" stroke="#000000" points="0,-145.5 0,-186.5 131,-186.5 131,-145.5 0,-145.5"/>
<text text-anchor="start" x="8" y="-174.5" font-family="Helvetica,sans-Serif" font-size="10.00" fill="#000000">sys/net/gnrc/routing</text>
<text text-anchor="start" x="8" y="-163.5" font-family="Helvetica,sans-Serif" font-size="10.00" fill="#000000">/ipv6_auto_subnets/gnrc</text>
<text text-anchor="middle" x="65.5" y="-152.5" font-family="Helvetica,sans-Serif" font-size="10.00" fill="#000000">_ipv6_auto_subnets.c</text>
</a>
</g>
</g>
<!-- Node27&#45;&gt;Node34 -->
<g id="edge27" class="edge">
<title>Node27&#45;&gt;Node34</title>
<path fill="none" stroke="#191970" d="M584.4995,-377.9148C452.8545,-365.4633 164.1964,-331.1774 93.5,-265 71.8536,-244.7372 66.5067,-209.1261 65.4225,-186.5914"/>
<polygon fill="#191970" stroke="#191970" points="584.1803,-381.4002 594.4621,-378.8437 584.8302,-374.4304 584.1803,-381.4002"/>
</g>
<!-- Node29 -->
<g id="node4" class="node">
<title>Node29</title>
<g id="a_node4"><a xlink:href="net_2gnrc_2icmpv6_2error_8h.html" target="_top" xlink:title="ICMPv6 error message definitions. ">
<polygon fill="#ffffff" stroke="#000000" points="384.5,-229 384.5,-259 496.5,-259 496.5,-229 384.5,-229"/>
<text text-anchor="start" x="392.5" y="-247" font-family="Helvetica,sans-Serif" font-size="10.00" fill="#000000">sys/include/net/gnrc</text>
<text text-anchor="middle" x="440.5" y="-236" font-family="Helvetica,sans-Serif" font-size="10.00" fill="#000000">/icmpv6/error.h</text>
</a>
</g>
</g>
<!-- Node28&#45;&gt;Node29 -->
<g id="edge3" class="edge">
<title>Node28&#45;&gt;Node29</title>
<path fill="none" stroke="#191970" d="M597.3843,-298.1624C562.2975,-286.0491 516.8862,-270.3714 483.9564,-259.0028"/>
<polygon fill="#191970" stroke="#191970" points="596.3931,-301.5229 606.9879,-301.478 598.6775,-294.9061 596.3931,-301.5229"/>
</g>
<!-- Node32 -->
<g id="node7" class="node">
<title>Node32</title>
<g id="a_node7"><a xlink:href="rpl_8h.html" target="_top" xlink:title="RPL header. ">
<polygon fill="#ffffff" stroke="#000000" points="149.5,-229 149.5,-259 261.5,-259 261.5,-229 149.5,-229"/>
<text text-anchor="start" x="157.5" y="-247" font-family="Helvetica,sans-Serif" font-size="10.00" fill="#000000">sys/include/net/gnrc</text>
<text text-anchor="middle" x="205.5" y="-236" font-family="Helvetica,sans-Serif" font-size="10.00" fill="#000000">/rpl.h</text>
</a>
</g>
</g>
<!-- Node28&#45;&gt;Node32 -->
<g id="edge6" class="edge">
<title>Node28&#45;&gt;Node32</title>
<path fill="none" stroke="#191970" d="M584.0512,-305.6741C496.469,-291.4051 343.9159,-266.5509 261.7521,-253.1647"/>
<polygon fill="#191970" stroke="#191970" points="583.7077,-309.1642 594.1404,-307.3178 584.8334,-302.2553 583.7077,-309.1642"/>
</g>
<!-- Node28&#45;&gt;Node34 -->
<g id="edge26" class="edge">
<title>Node28&#45;&gt;Node34</title>
<path fill="none" stroke="#191970" d="M584.2975,-312.7641C455.0427,-305.0432 178.3713,-286.2608 140.5,-265 108.9119,-247.2665 86.4834,-210.1725 74.7964,-186.7658"/>
<polygon fill="#191970" stroke="#191970" points="584.277,-316.269 594.4666,-313.3669 584.6913,-309.2813 584.277,-316.269"/>
</g>
<!-- Node35 -->
<g id="node10" class="node">
<title>Node35</title>
<g id="a_node10"><a xlink:href="tcb_8h.html" target="_top" xlink:title="GNRC TCP transmission control block (TCB) ">
<polygon fill="#ffffff" stroke="#000000" points="699.5,-229 699.5,-259 811.5,-259 811.5,-229 699.5,-229"/>
<text text-anchor="start" x="707.5" y="-247" font-family="Helvetica,sans-Serif" font-size="10.00" fill="#000000">sys/include/net/gnrc</text>
<text text-anchor="middle" x="755.5" y="-236" font-family="Helvetica,sans-Serif" font-size="10.00" fill="#000000">/tcp/tcb.h</text>
</a>
</g>
</g>
<!-- Node28&#45;&gt;Node35 -->
<g id="edge10" class="edge">
<title>Node28&#45;&gt;Node35</title>
<path fill="none" stroke="#191970" d="M680.7253,-295.6302C697.6771,-283.9253 718.4327,-269.5941 733.7718,-259.0028"/>
<polygon fill="#191970" stroke="#191970" points="678.4964,-292.9159 672.2561,-301.478 682.4737,-298.6761 678.4964,-292.9159"/>
</g>
<!-- Node36 -->
<g id="node11" class="node">
<title>Node36</title>
<g id="a_node11"><a xlink:href="gnrc_2tcp_8h.html" target="_top" xlink:title="GNRC TCP API. ">
<polygon fill="#ffffff" stroke="#000000" points="1119.5,-151 1119.5,-181 1231.5,-181 1231.5,-151 1119.5,-151"/>
<text text-anchor="start" x="1127.5" y="-169" font-family="Helvetica,sans-Serif" font-size="10.00" fill="#000000">sys/include/net/gnrc</text>
<text text-anchor="middle" x="1175.5" y="-158" font-family="Helvetica,sans-Serif" font-size="10.00" fill="#000000">/tcp.h</text>
</a>
</g>
</g>
<!-- Node28&#45;&gt;Node36 -->
<g id="edge17" class="edge">
<title>Node28&#45;&gt;Node36</title>
<path fill="none" stroke="#191970" d="M716.383,-298.8C805.8943,-274.559 970.798,-229.2151 1110.5,-187 1116.7436,-185.1133 1123.3047,-183.068 1129.7587,-181.0193"/>
<polygon fill="#191970" stroke="#191970" points="715.3785,-295.4459 706.6395,-301.4359 717.2066,-302.203 715.3785,-295.4459"/>
</g>
<!-- Node28&#45;&gt;Node42 -->
<g id="edge18" class="edge">
<title>Node28&#45;&gt;Node42</title>
<path fill="none" stroke="#191970" d="M716.9687,-309.6256C853.1796,-295.5381 1162.0935,-263.5891 1292.0898,-250.1444"/>
<polygon fill="#191970" stroke="#191970" points="716.2677,-306.1793 706.6808,-310.6896 716.9878,-313.1422 716.2677,-306.1793"/>
</g>
<!-- Node30 -->
<g id="node5" class="node">
<title>Node30</title>
<g id="a_node5"><a xlink:href="gnrc_2icmpv6_8h.html" target="_top" xlink:title="Definitions for GNRC&#39;s ICMPv6 implementation. ">
<polygon fill="#ffffff" stroke="#000000" points="279.5,-151 279.5,-181 391.5,-181 391.5,-151 279.5,-151"/>
<text text-anchor="start" x="287.5" y="-169" font-family="Helvetica,sans-Serif" font-size="10.00" fill="#000000">sys/include/net/gnrc</text>
<text text-anchor="middle" x="335.5" y="-158" font-family="Helvetica,sans-Serif" font-size="10.00" fill="#000000">/icmpv6.h</text>
</a>
</g>
</g>
<!-- Node29&#45;&gt;Node30 -->
<g id="edge4" class="edge">
<title>Node29&#45;&gt;Node30</title>
<path fill="none" stroke="#191970" d="M411.9933,-222.8236C394.3086,-209.6864 371.9965,-193.1117 356.0412,-181.2592"/>
<polygon fill="#191970" stroke="#191970" points="410.1403,-225.8071 420.2549,-228.9608 414.3146,-220.1879 410.1403,-225.8071"/>
</g>
<!-- Node31 -->
<g id="node6" class="node">
<title>Node31</title>
<g id="a_node6"><a xlink:href="validation_8h.html" target="_top" xlink:title="RPL control message validation functions. ">
<polygon fill="#ffffff" stroke="#000000" points="277.5,-67.5 277.5,-108.5 393.5,-108.5 393.5,-67.5 277.5,-67.5"/>
<text text-anchor="start" x="285.5" y="-96.5" font-family="Helvetica,sans-Serif" font-size="10.00" fill="#000000">sys/net/gnrc/routing</text>
<text text-anchor="start" x="285.5" y="-85.5" font-family="Helvetica,sans-Serif" font-size="10.00" fill="#000000">/rpl/gnrc_rpl_internal</text>
<text text-anchor="middle" x="335.5" y="-74.5" font-family="Helvetica,sans-Serif" font-size="10.00" fill="#000000">/validation.h</text>
</a>
</g>
</g>
<!-- Node30&#45;&gt;Node31 -->
<g id="edge5" class="edge">
<title>Node30&#45;&gt;Node31</title>
<path fill="none" stroke="#191970" d="M335.5,-140.8044C335.5,-130.3919 335.5,-118.4721 335.5,-108.5956"/>
<polygon fill="#191970" stroke="#191970" points="332.0001,-140.9608 335.5,-150.9608 339.0001,-140.9608 332.0001,-140.9608"/>
</g>
<!-- Node33 -->
<g id="node8" class="node">
<title>Node33</title>
<g id="a_node8"><a xlink:href="dodag_8h.html" target="_top" xlink:title="DODAG&#45;related functions for RPL. ">
<polygon fill="#ffffff" stroke="#000000" points="149.5,-151 149.5,-181 261.5,-181 261.5,-151 149.5,-151"/>
<text text-anchor="start" x="157.5" y="-169" font-family="Helvetica,sans-Serif" font-size="10.00" fill="#000000">sys/include/net/gnrc</text>
<text text-anchor="middle" x="205.5" y="-158" font-family="Helvetica,sans-Serif" font-size="10.00" fill="#000000">/rpl/dodag.h</text>
</a>
</g>
</g>
<!-- Node32&#45;&gt;Node33 -->
<g id="edge7" class="edge">
<title>Node32&#45;&gt;Node33</title>
<path fill="none" stroke="#191970" d="M199.1398,-218.7875C198.4118,-206.4187 198.7035,-191.9264 200.0147,-181.2592"/>
<polygon fill="#191970" stroke="#191970" points="195.6722,-219.3091 200.042,-228.9608 202.6449,-218.6907 195.6722,-219.3091"/>
</g>
<!-- Node32&#45;&gt;Node34 -->
<g id="edge9" class="edge">
<title>Node32&#45;&gt;Node34</title>
<path fill="none" stroke="#191970" d="M169.7368,-224.0748C149.1304,-212.5941 123.2725,-198.1875 102.4665,-186.5956"/>
<polygon fill="#191970" stroke="#191970" points="168.0674,-227.1512 178.5066,-228.9608 171.4744,-221.0363 168.0674,-227.1512"/>
</g>
<!-- Node33&#45;&gt;Node32 -->
<g id="edge8" class="edge">
<title>Node33&#45;&gt;Node32</title>
<path fill="none" stroke="#191970" d="M211.8751,-191.4685C212.589,-203.8663 212.2833,-218.3466 210.958,-228.9608"/>
<polygon fill="#191970" stroke="#191970" points="215.3404,-190.9175 210.9853,-181.2592 208.3669,-191.5253 215.3404,-190.9175"/>
</g>
<!-- Node35&#45;&gt;Node36 -->
<g id="edge11" class="edge">
<title>Node35&#45;&gt;Node36</title>
<path fill="none" stroke="#191970" d="M821.9211,-236.4256C893.6973,-227.5247 1011.1455,-210.8769 1110.5,-187 1117.5338,-185.3096 1124.9061,-183.2325 1132.0562,-181.0489"/>
<polygon fill="#191970" stroke="#191970" points="821.1698,-232.9914 811.6701,-237.6825 822.0218,-239.9393 821.1698,-232.9914"/>
</g>
<!-- Node37 -->
<g id="node12" class="node">
<title>Node37</title>
<g id="a_node12"><a xlink:href="gnrc__tcp__common_8h.html" target="_top" xlink:title="Internally used defines, macros and variable declarations. ">
<polygon fill="#ffffff" stroke="#000000" points="409.5,-145.5 409.5,-186.5 533.5,-186.5 533.5,-145.5 409.5,-145.5"/>
<text text-anchor="start" x="417.5" y="-174.5" font-family="Helvetica,sans-Serif" font-size="10.00" fill="#000000">sys/net/gnrc/transport</text>
<text text-anchor="start" x="417.5" y="-163.5" font-family="Helvetica,sans-Serif" font-size="10.00" fill="#000000">_layer/tcp/include/gnrc</text>
<text text-anchor="middle" x="471.5" y="-152.5" font-family="Helvetica,sans-Serif" font-size="10.00" fill="#000000">_tcp_common.h</text>
</a>
</g>
</g>
<!-- Node35&#45;&gt;Node37 -->
<g id="edge12" class="edge">
<title>Node35&#45;&gt;Node37</title>
<path fill="none" stroke="#191970" d="M689.4729,-226.8057C647.3447,-215.7177 591.6215,-200.8345 542.5,-187 539.6542,-186.1985 536.7467,-185.3715 533.8115,-184.5301"/>
<polygon fill="#191970" stroke="#191970" points="688.7713,-230.2401 699.3325,-229.3968 690.5505,-223.47 688.7713,-230.2401"/>
</g>
<!-- Node38 -->
<g id="node13" class="node">
<title>Node38</title>
<g id="a_node13"><a xlink:href="gnrc__tcp__fsm_8h.html" target="_top" xlink:title="TCP finite state machine declarations. ">
<polygon fill="#ffffff" stroke="#000000" points="551.5,-145.5 551.5,-186.5 675.5,-186.5 675.5,-145.5 551.5,-145.5"/>
<text text-anchor="start" x="559.5" y="-174.5" font-family="Helvetica,sans-Serif" font-size="10.00" fill="#000000">sys/net/gnrc/transport</text>
<text text-anchor="start" x="559.5" y="-163.5" font-family="Helvetica,sans-Serif" font-size="10.00" fill="#000000">_layer/tcp/include/gnrc</text>
<text text-anchor="middle" x="613.5" y="-152.5" font-family="Helvetica,sans-Serif" font-size="10.00" fill="#000000">_tcp_fsm.h</text>
</a>
</g>
</g>
<!-- Node35&#45;&gt;Node38 -->
<g id="edge13" class="edge">
<title>Node35&#45;&gt;Node38</title>
<path fill="none" stroke="#191970" d="M719.2259,-224.0748C698.3251,-212.5941 672.0978,-198.1875 650.9946,-186.5956"/>
<polygon fill="#191970" stroke="#191970" points="717.6711,-227.214 728.121,-228.9608 721.0413,-221.0786 717.6711,-227.214"/>
</g>
<!-- Node39 -->
<g id="node14" class="node">
<title>Node39</title>
<g id="a_node14"><a xlink:href="gnrc__tcp__option_8h.html" target="_top" xlink:title="TCP option handling declarations. ">
<polygon fill="#ffffff" stroke="#000000" points="693.5,-145.5 693.5,-186.5 817.5,-186.5 817.5,-145.5 693.5,-145.5"/>
<text text-anchor="start" x="701.5" y="-174.5" font-family="Helvetica,sans-Serif" font-size="10.00" fill="#000000">sys/net/gnrc/transport</text>
<text text-anchor="start" x="701.5" y="-163.5" font-family="Helvetica,sans-Serif" font-size="10.00" fill="#000000">_layer/tcp/include/gnrc</text>
<text text-anchor="middle" x="755.5" y="-152.5" font-family="Helvetica,sans-Serif" font-size="10.00" fill="#000000">_tcp_option.h</text>
</a>
</g>
</g>
<!-- Node35&#45;&gt;Node39 -->
<g id="edge14" class="edge">
<title>Node35&#45;&gt;Node39</title>
<path fill="none" stroke="#191970" d="M755.5,-218.8044C755.5,-208.3919 755.5,-196.4721 755.5,-186.5956"/>
<polygon fill="#191970" stroke="#191970" points="752.0001,-218.9608 755.5,-228.9608 759.0001,-218.9608 752.0001,-218.9608"/>
</g>
<!-- Node40 -->
<g id="node15" class="node">
<title>Node40</title>
<g id="a_node15"><a xlink:href="gnrc__tcp__pkt_8h.html" target="_top" xlink:title="TCP packet handling declarations. ">
<polygon fill="#ffffff" stroke="#000000" points="835.5,-145.5 835.5,-186.5 959.5,-186.5 959.5,-145.5 835.5,-145.5"/>
<text text-anchor="start" x="843.5" y="-174.5" font-family="Helvetica,sans-Serif" font-size="10.00" fill="#000000">sys/net/gnrc/transport</text>
<text text-anchor="start" x="843.5" y="-163.5" font-family="Helvetica,sans-Serif" font-size="10.00" fill="#000000">_layer/tcp/include/gnrc</text>
<text text-anchor="middle" x="897.5" y="-152.5" font-family="Helvetica,sans-Serif" font-size="10.00" fill="#000000">_tcp_pkt.h</text>
</a>
</g>
</g>
<!-- Node35&#45;&gt;Node40 -->
<g id="edge15" class="edge">
<title>Node35&#45;&gt;Node40</title>
<path fill="none" stroke="#191970" d="M791.7741,-224.0748C812.6749,-212.5941 838.9022,-198.1875 860.0054,-186.5956"/>
<polygon fill="#191970" stroke="#191970" points="789.9587,-221.0786 782.879,-228.9608 793.3289,-227.214 789.9587,-221.0786"/>
</g>
<!-- Node41 -->
<g id="node16" class="node">
<title>Node41</title>
<g id="a_node16"><a xlink:href="gnrc__tcp__rcvbuf_8h.html" target="_top" xlink:title="Functions for allocating and freeing the receive buffer. ">
<polygon fill="#ffffff" stroke="#000000" points="977.5,-145.5 977.5,-186.5 1101.5,-186.5 1101.5,-145.5 977.5,-145.5"/>
<text text-anchor="start" x="985.5" y="-174.5" font-family="Helvetica,sans-Serif" font-size="10.00" fill="#000000">sys/net/gnrc/transport</text>
<text text-anchor="start" x="985.5" y="-163.5" font-family="Helvetica,sans-Serif" font-size="10.00" fill="#000000">_layer/tcp/include/gnrc</text>
<text text-anchor="middle" x="1039.5" y="-152.5" font-family="Helvetica,sans-Serif" font-size="10.00" fill="#000000">_tcp_rcvbuf.h</text>
</a>
</g>
</g>
<!-- Node35&#45;&gt;Node41 -->
<g id="edge16" class="edge">
<title>Node35&#45;&gt;Node41</title>
<path fill="none" stroke="#191970" d="M821.5271,-226.8057C863.6553,-215.7177 919.3785,-200.8345 968.5,-187 971.3458,-186.1985 974.2533,-185.3715 977.1885,-184.5301"/>
<polygon fill="#191970" stroke="#191970" points="820.4495,-223.47 811.6675,-229.3968 822.2287,-230.2401 820.4495,-223.47"/>
</g>
<!-- Node43 -->
<g id="node18" class="node">
<title>Node43</title>
<g id="a_node18"><a xlink:href="__nib-arsm_8h_source.html" target="_top" xlink:title="sys/net/gnrc/network\l_layer/ipv6/nib/_nib\l&#45;arsm.h">
<polygon fill="#ffffff" stroke="#000000" points="1461.5,-145.5 1461.5,-186.5 1579.5,-186.5 1579.5,-145.5 1461.5,-145.5"/>
<text text-anchor="start" x="1469.5" y="-174.5" font-family="Helvetica,sans-Serif" font-size="10.00" fill="#000000">sys/net/gnrc/network</text>
<text text-anchor="start" x="1469.5" y="-163.5" font-family="Helvetica,sans-Serif" font-size="10.00" fill="#000000">_layer/ipv6/nib/_nib</text>
<text text-anchor="middle" x="1520.5" y="-152.5" font-family="Helvetica,sans-Serif" font-size="10.00" fill="#000000">&#45;arsm.h</text>
</a>
</g>
</g>
<!-- Node42&#45;&gt;Node43 -->
<g id="edge19" class="edge">
<title>Node42&#45;&gt;Node43</title>
<path fill="none" stroke="#191970" d="M1405.5325,-219.0619C1428.2788,-208.5637 1454.4258,-196.4958 1476.0316,-186.5239"/>
<polygon fill="#191970" stroke="#191970" points="1403.9581,-215.9337 1396.3452,-223.3022 1406.8915,-222.2894 1403.9581,-215.9337"/>
</g>
<!-- Node44 -->
<g id="node19" class="node">
<title>Node44</title>
<g id="a_node19"><a xlink:href="__nib-6ln_8h.html" target="_top" xlink:title="Definitions related to 6Lo node (6LN) functionality of the NIB. ">
<polygon fill="#ffffff" stroke="#000000" points="1423.5,-73 1423.5,-103 1557.5,-103 1557.5,-73 1423.5,-73"/>
<text text-anchor="start" x="1431.5" y="-91" font-family="Helvetica,sans-Serif" font-size="10.00" fill="#000000">sys/net/gnrc/network</text>
<text text-anchor="middle" x="1490.5" y="-80" font-family="Helvetica,sans-Serif" font-size="10.00" fill="#000000">_layer/ipv6/nib/_nib&#45;6ln.h</text>
</a>
</g>
</g>
<!-- Node42&#45;&gt;Node44 -->
<g id="edge23" class="edge">
<title>Node42&#45;&gt;Node44</title>
<path fill="none" stroke="#191970" d="M1380.8293,-216.3855C1390.2065,-207.2401 1400.4869,-196.8727 1409.5,-187 1435.5524,-158.4628 1463.6098,-122.9828 1478.9111,-103.1814"/>
<polygon fill="#191970" stroke="#191970" points="1378.3031,-213.9594 1373.544,-223.4252 1383.1674,-218.9933 1378.3031,-213.9594"/>
</g>
<!-- Node45 -->
<g id="node20" class="node">
<title>Node45</title>
<g id="a_node20"><a xlink:href="__nib-6lr_8h.html" target="_top" xlink:title="Definitions related to 6Lo router (6LR) functionality of the NIB. ">
<polygon fill="#ffffff" stroke="#000000" points="1424.5,-.5 1424.5,-30.5 1556.5,-30.5 1556.5,-.5 1424.5,-.5"/>
<text text-anchor="start" x="1432.5" y="-18.5" font-family="Helvetica,sans-Serif" font-size="10.00" fill="#000000">sys/net/gnrc/network</text>
<text text-anchor="middle" x="1490.5" y="-7.5" font-family="Helvetica,sans-Serif" font-size="10.00" fill="#000000">_layer/ipv6/nib/_nib&#45;6lr.h</text>
</a>
</g>
</g>
<!-- Node42&#45;&gt;Node45 -->
<g id="edge24" class="edge">
<title>Node42&#45;&gt;Node45</title>
<path fill="none" stroke="#191970" d="M1365.3518,-214.0483C1369.157,-205.3974 1373.1534,-195.8908 1376.5,-187 1396.2076,-134.6427 1381.0478,-111.84 1414.5,-67 1425.9367,-51.67 1443.3508,-39.3959 1458.6254,-30.6813"/>
<polygon fill="#191970" stroke="#191970" points="1362.069,-212.8157 1361.1817,-223.3733 1368.4592,-215.6734 1362.069,-212.8157"/>
</g>
<!-- Node46 -->
<g id="node21" class="node">
<title>Node46</title>
<g id="a_node21"><a xlink:href="__nib-router_8h_source.html" target="_top" xlink:title="sys/net/gnrc/network\l_layer/ipv6/nib/_nib\l&#45;router.h">
<polygon fill="#ffffff" stroke="#000000" points="1249.5,-145.5 1249.5,-186.5 1367.5,-186.5 1367.5,-145.5 1249.5,-145.5"/>
<text text-anchor="start" x="1257.5" y="-174.5" font-family="Helvetica,sans-Serif" font-size="10.00" fill="#000000">sys/net/gnrc/network</text>
<text text-anchor="start" x="1257.5" y="-163.5" font-family="Helvetica,sans-Serif" font-size="10.00" fill="#000000">_layer/ipv6/nib/_nib</text>
<text text-anchor="middle" x="1308.5" y="-152.5" font-family="Helvetica,sans-Serif" font-size="10.00" fill="#000000">&#45;router.h</text>
</a>
</g>
</g>
<!-- Node42&#45;&gt;Node46 -->
<g id="edge25" class="edge">
<title>Node42&#45;&gt;Node46</title>
<path fill="none" stroke="#191970" d="M1335.089,-214.2312C1330.0229,-205.0415 1324.5568,-195.1263 1319.9059,-186.6898"/>
<polygon fill="#191970" stroke="#191970" points="1332.0838,-216.0298 1339.9768,-223.0974 1338.214,-212.6503 1332.0838,-216.0298"/>
</g>
<!-- Node43&#45;&gt;Node44 -->
<g id="edge20" class="edge">
<title>Node43&#45;&gt;Node44</title>
<path fill="none" stroke="#191970" d="M1508.8434,-135.6928C1504.5733,-124.5907 1499.9225,-112.4984 1496.3723,-103.2679"/>
<polygon fill="#191970" stroke="#191970" points="1505.604,-137.0204 1512.4606,-145.0974 1512.1374,-134.5075 1505.604,-137.0204"/>
</g>
<!-- Node43&#45;&gt;Node45 -->
<g id="edge22" class="edge">
<title>Node43&#45;&gt;Node45</title>
<path fill="none" stroke="#191970" d="M1549.5023,-137.7336C1556.4137,-129.2172 1562.8416,-119.3587 1566.5,-109 1572.7163,-91.3988 1575.2458,-83.4911 1566.5,-67 1557.987,-50.9479 1541.9848,-38.9795 1526.8517,-30.6411"/>
<polygon fill="#191970" stroke="#191970" points="1546.7095,-135.6119 1542.8023,-145.46 1551.998,-140.1979 1546.7095,-135.6119"/>
</g>
<!-- Node44&#45;&gt;Node45 -->
<g id="edge21" class="edge">
<title>Node44&#45;&gt;Node45</title>
<path fill="none" stroke="#191970" d="M1490.5,-62.8409C1490.5,-52.0601 1490.5,-39.8309 1490.5,-30.5028"/>
<polygon fill="#191970" stroke="#191970" points="1487.0001,-62.9779 1490.5,-72.978 1494.0001,-62.978 1487.0001,-62.9779"/>
</g>
</g>
</svg>
