<?xml version="1.0" encoding="UTF-8" standalone="no"?>
<!DOCTYPE svg PUBLIC "-//W3C//DTD SVG 1.1//EN"
 "http://www.w3.org/Graphics/SVG/1.1/DTD/svg11.dtd">
<!-- Generated by graphviz version 2.40.1 (0)
 -->
<!-- Title: sys/include/fuzzing.h Pages: 1 -->
<svg width="937pt" height="364pt"
 viewBox="0.00 0.00 937.36 364.00" xmlns="http://www.w3.org/2000/svg" xmlns:xlink="http://www.w3.org/1999/xlink">
<g id="graph0" class="graph" transform="scale(1 1) rotate(0) translate(4 360)">
<title>sys/include/fuzzing.h</title>
<polygon fill="#ffffff" stroke="transparent" points="-4,4 -4,-360 933.3629,-360 933.3629,4 -4,4"/>
<!-- Node0 -->
<g id="node1" class="node">
<title>Node0</title>
<polygon fill="#bfbfbf" stroke="#000000" points="374,-336.5 374,-355.5 487,-355.5 487,-336.5 374,-336.5"/>
<text text-anchor="middle" x="430.5" y="-343.5" font-family="Helvetica,sans-Serif" font-size="10.00" fill="#000000">sys/include/fuzzing.h</text>
</g>
<!-- Node1 -->
<g id="node2" class="node">
<title>Node1</title>
<polygon fill="#ffffff" stroke="#bfbfbf" points="654.5,-.5 654.5,-19.5 706.5,-19.5 706.5,-.5 654.5,-.5"/>
<text text-anchor="middle" x="680.5" y="-7.5" font-family="Helvetica,sans-Serif" font-size="10.00" fill="#000000">stdint.h</text>
</g>
<!-- Node0&#45;&gt;Node1 -->
<g id="edge1" class="edge">
<title>Node0&#45;&gt;Node1</title>
<path fill="none" stroke="#191970" d="M487.1421,-339.187C617.6675,-322.7217 928.5,-278.8074 928.5,-234 928.5,-234 928.5,-234 928.5,-122 928.5,-91.4754 931.9514,-76.6806 909.5,-56 881.8427,-30.5241 774.0749,-17.8183 716.7822,-12.7504"/>
<polygon fill="#191970" stroke="#191970" points="716.9636,-9.2532 706.7025,-11.8916 716.3693,-16.2279 716.9636,-9.2532"/>
</g>
<!-- Node2 -->
<g id="node3" class="node">
<title>Node2</title>
<g id="a_node3"><a xlink:href="ipv6_2addr_8h.html" target="_top" xlink:title="Definitions for IPv6 addresses. ">
<polygon fill="#ffffff" stroke="#000000" points="54,-224.5 54,-243.5 143,-243.5 143,-224.5 54,-224.5"/>
<text text-anchor="middle" x="98.5" y="-231.5" font-family="Helvetica,sans-Serif" font-size="10.00" fill="#000000">net/ipv6/addr.h</text>
</a>
</g>
</g>
<!-- Node0&#45;&gt;Node2 -->
<g id="edge2" class="edge">
<title>Node0&#45;&gt;Node2</title>
<path fill="none" stroke="#191970" d="M402.1939,-336.4509C342.5324,-316.3242 203.8398,-269.5363 136.5178,-246.8253"/>
<polygon fill="#191970" stroke="#191970" points="137.3286,-243.4051 126.7345,-243.5249 135.091,-250.0378 137.3286,-243.4051"/>
</g>
<!-- Node10 -->
<g id="node11" class="node">
<title>Node10</title>
<g id="a_node11"><a xlink:href="net_2gnrc_2pkt_8h.html" target="_top" xlink:title="General definitions for network packets and their helper functions. ">
<polygon fill="#ffffff" stroke="#000000" points="388,-280.5 388,-299.5 473,-299.5 473,-280.5 388,-280.5"/>
<text text-anchor="middle" x="430.5" y="-287.5" font-family="Helvetica,sans-Serif" font-size="10.00" fill="#000000">net/gnrc/pkt.h</text>
</a>
</g>
</g>
<!-- Node0&#45;&gt;Node10 -->
<g id="edge17" class="edge">
<title>Node0&#45;&gt;Node10</title>
<path fill="none" stroke="#191970" d="M430.5,-336.2455C430.5,-328.9382 430.5,-318.6944 430.5,-309.7046"/>
<polygon fill="#191970" stroke="#191970" points="434.0001,-309.6426 430.5,-299.6427 427.0001,-309.6427 434.0001,-309.6426"/>
</g>
<!-- Node3 -->
<g id="node4" class="node">
<title>Node3</title>
<polygon fill="#ffffff" stroke="#bfbfbf" points="365.5,-112.5 365.5,-131.5 425.5,-131.5 425.5,-112.5 365.5,-112.5"/>
<text text-anchor="middle" x="395.5" y="-119.5" font-family="Helvetica,sans-Serif" font-size="10.00" fill="#000000">stdbool.h</text>
</g>
<!-- Node2&#45;&gt;Node3 -->
<g id="edge3" class="edge">
<title>Node2&#45;&gt;Node3</title>
<path fill="none" stroke="#191970" d="M116.0154,-224.2997C145.4471,-208.1018 203.7383,-176.4848 225.5,-168 249.0373,-158.8229 313.0246,-142.326 355.4319,-131.7833"/>
<polygon fill="#191970" stroke="#191970" points="356.3171,-135.1699 365.183,-129.3694 354.635,-128.375 356.3171,-135.1699"/>
</g>
<!-- Node4 -->
<g id="node5" class="node">
<title>Node4</title>
<polygon fill="#ffffff" stroke="#bfbfbf" points="0,-56.5 0,-75.5 53,-75.5 53,-56.5 0,-56.5"/>
<text text-anchor="middle" x="26.5" y="-63.5" font-family="Helvetica,sans-Serif" font-size="10.00" fill="#000000">string.h</text>
</g>
<!-- Node2&#45;&gt;Node4 -->
<g id="edge4" class="edge">
<title>Node2&#45;&gt;Node4</title>
<path fill="none" stroke="#191970" d="M91.0789,-224.1937C84.4954,-215.1579 74.949,-201.1909 68.5,-188 51.6066,-153.4461 38.4804,-110.3611 31.6677,-85.7332"/>
<polygon fill="#191970" stroke="#191970" points="34.9754,-84.5562 28.9909,-75.8134 28.2171,-86.38 34.9754,-84.5562"/>
</g>
<!-- Node5 -->
<g id="node6" class="node">
<title>Node5</title>
<g id="a_node6"><a xlink:href="byteorder_8h.html" target="_top" xlink:title="Functions to work with different byte orders. ">
<polygon fill="#ffffff" stroke="#000000" points="90,-112.5 90,-131.5 163,-131.5 163,-112.5 90,-112.5"/>
<text text-anchor="middle" x="126.5" y="-119.5" font-family="Helvetica,sans-Serif" font-size="10.00" fill="#000000">byteorder.h</text>
</a>
</g>
</g>
<!-- Node2&#45;&gt;Node5 -->
<g id="edge5" class="edge">
<title>Node2&#45;&gt;Node5</title>
<path fill="none" stroke="#191970" d="M90.6232,-224.4092C80.9474,-211.3913 66.8221,-187.5135 75.5,-168 80.9508,-155.7432 91.4599,-145.3755 101.5289,-137.6036"/>
<polygon fill="#191970" stroke="#191970" points="103.6744,-140.3721 109.7627,-131.7012 99.596,-134.6828 103.6744,-140.3721"/>
</g>
<!-- Node8 -->
<g id="node9" class="node">
<title>Node8</title>
<g id="a_node9"><a xlink:href="ipv4_2addr_8h.html" target="_top" xlink:title="IPv4 address type and helper functions definitions. ">
<polygon fill="#ffffff" stroke="#000000" points="84,-168.5 84,-187.5 173,-187.5 173,-168.5 84,-168.5"/>
<text text-anchor="middle" x="128.5" y="-175.5" font-family="Helvetica,sans-Serif" font-size="10.00" fill="#000000">net/ipv4/addr.h</text>
</a>
</g>
</g>
<!-- Node2&#45;&gt;Node8 -->
<g id="edge12" class="edge">
<title>Node2&#45;&gt;Node8</title>
<path fill="none" stroke="#191970" d="M103.7256,-224.2455C107.8123,-216.617 113.6135,-205.7881 118.575,-196.5267"/>
<polygon fill="#191970" stroke="#191970" points="121.6972,-198.1103 123.3343,-187.6427 115.5268,-194.8047 121.6972,-198.1103"/>
</g>
<!-- Node5&#45;&gt;Node1 -->
<g id="edge7" class="edge">
<title>Node5&#45;&gt;Node1</title>
<path fill="none" stroke="#191970" d="M134.5331,-112.2865C147.6245,-97.2352 175.164,-68.6924 205.5,-56 284.7866,-22.827 547.5448,-13.2101 644.3131,-10.7561"/>
<polygon fill="#191970" stroke="#191970" points="644.5655,-14.2511 654.4776,-10.5094 644.3956,-7.2532 644.5655,-14.2511"/>
</g>
<!-- Node5&#45;&gt;Node4 -->
<g id="edge6" class="edge">
<title>Node5&#45;&gt;Node4</title>
<path fill="none" stroke="#191970" d="M109.0813,-112.2455C93.4515,-103.4928 70.2981,-90.527 52.4815,-80.5496"/>
<polygon fill="#191970" stroke="#191970" points="54.1543,-77.475 43.7191,-75.6427 50.734,-83.5825 54.1543,-77.475"/>
</g>
<!-- Node6 -->
<g id="node7" class="node">
<title>Node6</title>
<g id="a_node7"><a xlink:href="endian_8h.html" target="_top" xlink:title="libc header for endian conversion ">
<polygon fill="#ffffff" stroke="#000000" points="214,-56.5 214,-75.5 271,-75.5 271,-56.5 214,-56.5"/>
<text text-anchor="middle" x="242.5" y="-63.5" font-family="Helvetica,sans-Serif" font-size="10.00" fill="#000000">endian.h</text>
</a>
</g>
</g>
<!-- Node5&#45;&gt;Node6 -->
<g id="edge8" class="edge">
<title>Node5&#45;&gt;Node6</title>
<path fill="none" stroke="#191970" d="M146.4411,-112.3733C164.9786,-103.4241 192.8028,-89.9917 213.7413,-79.8835"/>
<polygon fill="#191970" stroke="#191970" points="215.3352,-83.0006 222.8191,-75.5011 212.2919,-76.6967 215.3352,-83.0006"/>
</g>
<!-- Node7 -->
<g id="node8" class="node">
<title>Node7</title>
<g id="a_node8"><a xlink:href="unaligned_8h.html" target="_top" xlink:title="Unaligned but safe memory access functions. ">
<polygon fill="#ffffff" stroke="#000000" points="86,-56.5 86,-75.5 157,-75.5 157,-56.5 86,-56.5"/>
<text text-anchor="middle" x="121.5" y="-63.5" font-family="Helvetica,sans-Serif" font-size="10.00" fill="#000000">unaligned.h</text>
</a>
</g>
</g>
<!-- Node5&#45;&gt;Node7 -->
<g id="edge10" class="edge">
<title>Node5&#45;&gt;Node7</title>
<path fill="none" stroke="#191970" d="M125.6291,-112.2455C124.9766,-104.9382 124.062,-94.6944 123.2593,-85.7046"/>
<polygon fill="#191970" stroke="#191970" points="126.7365,-85.2918 122.361,-75.6427 119.7642,-85.9143 126.7365,-85.2918"/>
</g>
<!-- Node6&#45;&gt;Node1 -->
<g id="edge9" class="edge">
<title>Node6&#45;&gt;Node1</title>
<path fill="none" stroke="#191970" d="M271.0894,-58.8785C275.8822,-57.8208 280.8183,-56.8143 285.5,-56 416.8356,-33.1557 574.7641,-18.603 644.4543,-12.8299"/>
<polygon fill="#191970" stroke="#191970" points="644.7924,-16.314 654.4737,-12.0103 644.2216,-9.3373 644.7924,-16.314"/>
</g>
<!-- Node7&#45;&gt;Node1 -->
<g id="edge11" class="edge">
<title>Node7&#45;&gt;Node1</title>
<path fill="none" stroke="#191970" d="M157.1988,-58.3764C161.9928,-57.4947 166.8566,-56.6722 171.5,-56 347.9224,-30.461 560.9282,-16.6762 644.4377,-11.9259"/>
<polygon fill="#191970" stroke="#191970" points="644.6408,-15.4201 654.4291,-11.3658 644.2489,-8.4311 644.6408,-15.4201"/>
</g>
<!-- Node8&#45;&gt;Node1 -->
<g id="edge14" class="edge">
<title>Node8&#45;&gt;Node1</title>
<path fill="none" stroke="#191970" d="M153.4423,-168.4593C188.7994,-155.0822 255.6365,-130.3367 313.5,-112 433.478,-73.9795 577.9024,-36.1159 644.1142,-19.1894"/>
<polygon fill="#191970" stroke="#191970" points="645.2279,-22.5175 654.0535,-16.6558 643.4988,-15.7344 645.2279,-22.5175"/>
</g>
<!-- Node8&#45;&gt;Node3 -->
<g id="edge13" class="edge">
<title>Node8&#45;&gt;Node3</title>
<path fill="none" stroke="#191970" d="M173.4043,-169.0124C218.4785,-159.926 289.8799,-145.3563 351.5,-132 352.7489,-131.7293 354.0172,-131.4525 355.2975,-131.1715"/>
<polygon fill="#191970" stroke="#191970" points="356.219,-134.5522 365.2211,-128.9654 354.6998,-127.719 356.219,-134.5522"/>
</g>
<!-- Node8&#45;&gt;Node5 -->
<g id="edge16" class="edge">
<title>Node8&#45;&gt;Node5</title>
<path fill="none" stroke="#191970" d="M128.1516,-168.2455C127.8907,-160.9382 127.5248,-150.6944 127.2037,-141.7046"/>
<polygon fill="#191970" stroke="#191970" points="130.6992,-141.5113 126.8444,-131.6427 123.7036,-141.7613 130.6992,-141.5113"/>
</g>
<!-- Node9 -->
<g id="node10" class="node">
<title>Node9</title>
<polygon fill="#ffffff" stroke="#bfbfbf" points="579.5,-56.5 579.5,-75.5 635.5,-75.5 635.5,-56.5 579.5,-56.5"/>
<text text-anchor="middle" x="607.5" y="-63.5" font-family="Helvetica,sans-Serif" font-size="10.00" fill="#000000">stddef.h</text>
</g>
<!-- Node8&#45;&gt;Node9 -->
<g id="edge15" class="edge">
<title>Node8&#45;&gt;Node9</title>
<path fill="none" stroke="#191970" d="M173.3108,-169.3753C211.2208,-161.4848 266.6901,-148.5336 313.5,-132 333.3739,-124.9804 336.4166,-118.3957 356.5,-112 429.9997,-88.5934 519.629,-75.7472 569.4471,-69.9239"/>
<polygon fill="#191970" stroke="#191970" points="569.9126,-73.3937 579.4534,-68.7866 569.1221,-66.4384 569.9126,-73.3937"/>
</g>
<!-- Node11 -->
<g id="node12" class="node">
<title>Node11</title>
<g id="a_node12"><a xlink:href="inttypes_8h.html" target="_top" xlink:title="Adds include for missing inttype definitions. ">
<polygon fill="#ffffff" stroke="#000000" points="520,-168.5 520,-187.5 583,-187.5 583,-168.5 520,-168.5"/>
<text text-anchor="middle" x="551.5" y="-175.5" font-family="Helvetica,sans-Serif" font-size="10.00" fill="#000000">inttypes.h</text>
</a>
</g>
</g>
<!-- Node10&#45;&gt;Node11 -->
<g id="edge18" class="edge">
<title>Node10&#45;&gt;Node11</title>
<path fill="none" stroke="#191970" d="M445.4596,-280.4396C458.6868,-271.6767 478.2021,-257.9754 493.5,-244 509.9444,-228.9772 526.4988,-209.6201 537.6879,-195.7603"/>
<polygon fill="#191970" stroke="#191970" points="540.7324,-197.5547 544.2109,-187.5472 535.2508,-193.2012 540.7324,-197.5547"/>
</g>
<!-- Node12 -->
<g id="node13" class="node">
<title>Node12</title>
<polygon fill="#ffffff" stroke="#bfbfbf" points="161.5,-224.5 161.5,-243.5 211.5,-243.5 211.5,-224.5 161.5,-224.5"/>
<text text-anchor="middle" x="186.5" y="-231.5" font-family="Helvetica,sans-Serif" font-size="10.00" fill="#000000">stdlib.h</text>
</g>
<!-- Node10&#45;&gt;Node12 -->
<g id="edge19" class="edge">
<title>Node10&#45;&gt;Node12</title>
<path fill="none" stroke="#191970" d="M387.6156,-280.7729C346.0796,-271.7426 281.3579,-257.425 225.5,-244 224.2384,-243.6968 222.9548,-243.385 221.6588,-243.0674"/>
<polygon fill="#191970" stroke="#191970" points="222.1975,-239.5945 211.6474,-240.5672 220.5014,-246.3859 222.1975,-239.5945"/>
</g>
<!-- Node13 -->
<g id="node14" class="node">
<title>Node13</title>
<g id="a_node14"><a xlink:href="sched_8h.html" target="_top" xlink:title="Scheduler API definition. ">
<polygon fill="#ffffff" stroke="#000000" points="621,-224.5 621,-243.5 674,-243.5 674,-224.5 621,-224.5"/>
<text text-anchor="middle" x="647.5" y="-231.5" font-family="Helvetica,sans-Serif" font-size="10.00" fill="#000000">sched.h</text>
</a>
</g>
</g>
<!-- Node10&#45;&gt;Node13 -->
<g id="edge20" class="edge">
<title>Node10&#45;&gt;Node13</title>
<path fill="none" stroke="#191970" d="M467.8036,-280.3733C507.9346,-270.0169 571.3312,-253.6565 611.1063,-243.3919"/>
<polygon fill="#191970" stroke="#191970" points="612.1173,-246.7458 620.9255,-240.8579 610.3681,-239.9678 612.1173,-246.7458"/>
</g>
<!-- Node22 -->
<g id="node23" class="node">
<title>Node22</title>
<g id="a_node23"><a xlink:href="list_8h.html" target="_top" xlink:title="Intrusive linked list. ">
<polygon fill="#ffffff" stroke="#000000" points="443.5,-112.5 443.5,-131.5 481.5,-131.5 481.5,-112.5 443.5,-112.5"/>
<text text-anchor="middle" x="462.5" y="-119.5" font-family="Helvetica,sans-Serif" font-size="10.00" fill="#000000">list.h</text>
</a>
</g>
</g>
<!-- Node10&#45;&gt;Node22 -->
<g id="edge44" class="edge">
<title>Node10&#45;&gt;Node22</title>
<path fill="none" stroke="#191970" d="M392.831,-280.4603C329.9569,-262.773 214.6335,-221.7474 258.5,-168 307.0119,-108.5608 353.8008,-149.9489 433.456,-131.7702"/>
<polygon fill="#191970" stroke="#191970" points="434.5123,-135.1128 443.3352,-129.2472 432.7801,-128.3305 434.5123,-135.1128"/>
</g>
<!-- Node23 -->
<g id="node24" class="node">
<title>Node23</title>
<g id="a_node24"><a xlink:href="nettype_8h.html" target="_top" xlink:title="Protocol type definitions. ">
<polygon fill="#ffffff" stroke="#000000" points="377,-224.5 377,-243.5 484,-243.5 484,-224.5 377,-224.5"/>
<text text-anchor="middle" x="430.5" y="-231.5" font-family="Helvetica,sans-Serif" font-size="10.00" fill="#000000">net/gnrc/nettype.h</text>
</a>
</g>
</g>
<!-- Node10&#45;&gt;Node23 -->
<g id="edge39" class="edge">
<title>Node10&#45;&gt;Node23</title>
<path fill="none" stroke="#191970" d="M430.5,-280.2455C430.5,-272.9382 430.5,-262.6944 430.5,-253.7046"/>
<polygon fill="#191970" stroke="#191970" points="434.0001,-253.6426 430.5,-243.6427 427.0001,-253.6427 434.0001,-253.6426"/>
</g>
<!-- Node13&#45;&gt;Node9 -->
<g id="edge21" class="edge">
<title>Node13&#45;&gt;Node9</title>
<path fill="none" stroke="#191970" d="M650.1389,-224.4923C653.3251,-211.5686 657.7576,-187.7972 653.5,-168 646.8613,-137.1312 630.1091,-104.3424 618.7621,-84.5155"/>
<polygon fill="#191970" stroke="#191970" points="621.6341,-82.4946 613.5486,-75.648 615.5997,-86.0424 621.6341,-82.4946"/>
</g>
<!-- Node13&#45;&gt;Node11 -->
<g id="edge22" class="edge">
<title>Node13&#45;&gt;Node11</title>
<path fill="none" stroke="#191970" d="M630.7781,-224.2455C615.9111,-215.5731 593.9534,-202.7645 576.9142,-192.825"/>
<polygon fill="#191970" stroke="#191970" points="578.4317,-189.6582 568.0303,-187.6427 574.9045,-195.7047 578.4317,-189.6582"/>
</g>
<!-- Node14 -->
<g id="node15" class="node">
<title>Node14</title>
<g id="a_node15"><a xlink:href="kernel__defines_8h.html" target="_top" xlink:title="Common macros and compiler attributes/pragmas configuration. ">
<polygon fill="#ffffff" stroke="#000000" points="701,-168.5 701,-187.5 796,-187.5 796,-168.5 701,-168.5"/>
<text text-anchor="middle" x="748.5" y="-175.5" font-family="Helvetica,sans-Serif" font-size="10.00" fill="#000000">kernel_defines.h</text>
</a>
</g>
</g>
<!-- Node13&#45;&gt;Node14 -->
<g id="edge23" class="edge">
<title>Node13&#45;&gt;Node14</title>
<path fill="none" stroke="#191970" d="M665.0929,-224.2455C680.879,-215.4928 704.2639,-202.527 722.2587,-192.5496"/>
<polygon fill="#191970" stroke="#191970" points="724.0603,-195.5528 731.1087,-187.6427 720.6659,-189.4308 724.0603,-195.5528"/>
</g>
<!-- Node20 -->
<g id="node21" class="node">
<title>Node20</title>
<g id="a_node21"><a xlink:href="native__sched_8h.html" target="_top" xlink:title="Add definitions required on the native board. ">
<polygon fill="#ffffff" stroke="#000000" points="814.5,-168.5 814.5,-187.5 900.5,-187.5 900.5,-168.5 814.5,-168.5"/>
<text text-anchor="middle" x="857.5" y="-175.5" font-family="Helvetica,sans-Serif" font-size="10.00" fill="#000000">native_sched.h</text>
</a>
</g>
</g>
<!-- Node13&#45;&gt;Node20 -->
<g id="edge34" class="edge">
<title>Node13&#45;&gt;Node20</title>
<path fill="none" stroke="#191970" d="M674.0966,-226.9076C708.7343,-217.6709 769.8186,-201.3817 811.9132,-190.1565"/>
<polygon fill="#191970" stroke="#191970" points="812.8871,-193.5192 821.6476,-187.5606 811.0834,-186.7555 812.8871,-193.5192"/>
</g>
<!-- Node21 -->
<g id="node22" class="node">
<title>Node21</title>
<g id="a_node22"><a xlink:href="clist_8h.html" target="_top" xlink:title="Circular linked list. ">
<polygon fill="#ffffff" stroke="#000000" points="601,-168.5 601,-187.5 644,-187.5 644,-168.5 601,-168.5"/>
<text text-anchor="middle" x="622.5" y="-175.5" font-family="Helvetica,sans-Serif" font-size="10.00" fill="#000000">clist.h</text>
</a>
</g>
</g>
<!-- Node13&#45;&gt;Node21 -->
<g id="edge35" class="edge">
<title>Node13&#45;&gt;Node21</title>
<path fill="none" stroke="#191970" d="M643.1453,-224.2455C639.7756,-216.6973 635.007,-206.0158 630.9017,-196.8197"/>
<polygon fill="#191970" stroke="#191970" points="634.0773,-195.3473 626.8048,-187.6427 627.6853,-198.2009 634.0773,-195.3473"/>
</g>
<!-- Node15 -->
<g id="node16" class="node">
<title>Node15</title>
<g id="a_node16"><a xlink:href="modules_8h.html" target="_top" xlink:title="Common macros and compiler attributes/pragmas configuration. ">
<polygon fill="#ffffff" stroke="#000000" points="500,-112.5 500,-131.5 565,-131.5 565,-112.5 500,-112.5"/>
<text text-anchor="middle" x="532.5" y="-119.5" font-family="Helvetica,sans-Serif" font-size="10.00" fill="#000000">modules.h</text>
</a>
</g>
</g>
<!-- Node14&#45;&gt;Node15 -->
<g id="edge24" class="edge">
<title>Node14&#45;&gt;Node15</title>
<path fill="none" stroke="#191970" d="M711.3683,-168.3733C673.5305,-158.5635 614.9143,-143.3667 575.1843,-133.0663"/>
<polygon fill="#191970" stroke="#191970" points="575.8228,-129.6162 565.2645,-130.4945 574.0661,-136.3922 575.8228,-129.6162"/>
</g>
<!-- Node16 -->
<g id="node17" class="node">
<title>Node16</title>
<g id="a_node17"><a xlink:href="riot__version_8h.html" target="_top" xlink:title="Common macros and compiler attributes/pragmas configuration. ">
<polygon fill="#ffffff" stroke="#000000" points="819,-56.5 819,-75.5 900,-75.5 900,-56.5 819,-56.5"/>
<text text-anchor="middle" x="859.5" y="-63.5" font-family="Helvetica,sans-Serif" font-size="10.00" fill="#000000">riot_version.h</text>
</a>
</g>
</g>
<!-- Node14&#45;&gt;Node16 -->
<g id="edge25" class="edge">
<title>Node14&#45;&gt;Node16</title>
<path fill="none" stroke="#191970" d="M791.9293,-168.4676C812.5012,-161.7103 835.5645,-150.4498 849.5,-132 859.4208,-118.8655 861.4114,-99.9896 861.2176,-85.786"/>
<polygon fill="#191970" stroke="#191970" points="864.703,-85.4067 860.7036,-75.5957 857.7119,-85.7594 864.703,-85.4067"/>
</g>
<!-- Node17 -->
<g id="node18" class="node">
<title>Node17</title>
<g id="a_node18"><a xlink:href="compiler__hints_8h.html" target="_top" xlink:title="Common macros and compiler attributes/pragmas configuration. ">
<polygon fill="#ffffff" stroke="#000000" points="747,-112.5 747,-131.5 840,-131.5 840,-112.5 747,-112.5"/>
<text text-anchor="middle" x="793.5" y="-119.5" font-family="Helvetica,sans-Serif" font-size="10.00" fill="#000000">compiler_hints.h</text>
</a>
</g>
</g>
<!-- Node14&#45;&gt;Node17 -->
<g id="edge27" class="edge">
<title>Node14&#45;&gt;Node17</title>
<path fill="none" stroke="#191970" d="M756.3384,-168.2455C762.662,-160.3761 771.7224,-149.101 779.3136,-139.6542"/>
<polygon fill="#191970" stroke="#191970" points="782.2158,-141.6302 785.7514,-131.6427 776.7592,-137.2454 782.2158,-141.6302"/>
</g>
<!-- Node19 -->
<g id="node20" class="node">
<title>Node19</title>
<g id="a_node20"><a xlink:href="container_8h.html" target="_top" xlink:title="Common macros and compiler attributes/pragmas configuration. ">
<polygon fill="#ffffff" stroke="#000000" points="660,-112.5 660,-131.5 729,-131.5 729,-112.5 660,-112.5"/>
<text text-anchor="middle" x="694.5" y="-119.5" font-family="Helvetica,sans-Serif" font-size="10.00" fill="#000000">container.h</text>
</a>
</g>
</g>
<!-- Node14&#45;&gt;Node19 -->
<g id="edge31" class="edge">
<title>Node14&#45;&gt;Node19</title>
<path fill="none" stroke="#191970" d="M739.0939,-168.2455C731.3507,-160.2155 720.188,-148.6394 710.9682,-139.0781"/>
<polygon fill="#191970" stroke="#191970" points="713.2591,-136.4117 703.7983,-131.6427 708.2202,-141.2706 713.2591,-136.4117"/>
</g>
<!-- Node16&#45;&gt;Node1 -->
<g id="edge26" class="edge">
<title>Node16&#45;&gt;Node1</title>
<path fill="none" stroke="#191970" d="M828.7288,-56.3733C797.4762,-46.5959 749.118,-31.4671 716.1997,-21.1686"/>
<polygon fill="#191970" stroke="#191970" points="717.1043,-17.7844 706.5154,-18.1389 715.0142,-24.4651 717.1043,-17.7844"/>
</g>
<!-- Node17&#45;&gt;Node1 -->
<g id="edge30" class="edge">
<title>Node17&#45;&gt;Node1</title>
<path fill="none" stroke="#191970" d="M792.5911,-112.3539C790.8127,-98.3997 785.7085,-72.4553 771.5,-56 757.0176,-39.2275 734.94,-27.8591 716.1578,-20.6202"/>
<polygon fill="#191970" stroke="#191970" points="717.2884,-17.3073 706.6941,-17.2044 714.9119,-23.8916 717.2884,-17.3073"/>
</g>
<!-- Node18 -->
<g id="node19" class="node">
<title>Node18</title>
<g id="a_node19"><a xlink:href="assert_8h.html" target="_top" xlink:title="POSIX.1&#45;2008 compliant version of the assert macro. ">
<polygon fill="#ffffff" stroke="#000000" points="708.5,-56.5 708.5,-75.5 762.5,-75.5 762.5,-56.5 708.5,-56.5"/>
<text text-anchor="middle" x="735.5" y="-63.5" font-family="Helvetica,sans-Serif" font-size="10.00" fill="#000000">assert.h</text>
</a>
</g>
</g>
<!-- Node17&#45;&gt;Node18 -->
<g id="edge28" class="edge">
<title>Node17&#45;&gt;Node18</title>
<path fill="none" stroke="#191970" d="M783.3972,-112.2455C774.9972,-104.1352 762.8506,-92.4075 752.8916,-82.7919"/>
<polygon fill="#191970" stroke="#191970" points="755.1122,-80.0707 745.4871,-75.6427 750.25,-85.1066 755.1122,-80.0707"/>
</g>
<!-- Node18&#45;&gt;Node1 -->
<g id="edge29" class="edge">
<title>Node18&#45;&gt;Node1</title>
<path fill="none" stroke="#191970" d="M725.9197,-56.2455C717.9542,-48.1352 706.4359,-36.4075 696.9921,-26.7919"/>
<polygon fill="#191970" stroke="#191970" points="699.4747,-24.3247 689.9705,-19.6427 694.4805,-29.2297 699.4747,-24.3247"/>
</g>
<!-- Node19&#45;&gt;Node1 -->
<g id="edge33" class="edge">
<title>Node19&#45;&gt;Node1</title>
<path fill="none" stroke="#191970" d="M693.3064,-112.4509C691.023,-94.184 685.9944,-53.9553 682.9622,-29.6976"/>
<polygon fill="#191970" stroke="#191970" points="686.404,-29.0135 681.6906,-19.5249 679.4581,-29.8818 686.404,-29.0135"/>
</g>
<!-- Node19&#45;&gt;Node9 -->
<g id="edge32" class="edge">
<title>Node19&#45;&gt;Node9</title>
<path fill="none" stroke="#191970" d="M679.3458,-112.2455C665.9973,-103.6534 646.3414,-91.0014 630.9617,-81.1018"/>
<polygon fill="#191970" stroke="#191970" points="632.7836,-78.1121 622.4806,-75.6427 628.9949,-83.9982 632.7836,-78.1121"/>
</g>
<!-- Node21&#45;&gt;Node3 -->
<g id="edge36" class="edge">
<title>Node21&#45;&gt;Node3</title>
<path fill="none" stroke="#191970" d="M600.9478,-170.5359C598.1193,-169.6389 595.2492,-168.7694 592.5,-168 526.1233,-149.4232 506.1958,-148.9516 435.5453,-132.1918"/>
<polygon fill="#191970" stroke="#191970" points="436.2542,-128.7627 425.7136,-129.8328 434.6209,-135.5695 436.2542,-128.7627"/>
</g>
<!-- Node21&#45;&gt;Node9 -->
<g id="edge37" class="edge">
<title>Node21&#45;&gt;Node9</title>
<path fill="none" stroke="#191970" d="M621.2211,-168.4509C618.7746,-150.184 613.3869,-109.9553 610.1381,-85.6976"/>
<polygon fill="#191970" stroke="#191970" points="613.5722,-84.9718 608.7757,-75.5249 606.6341,-85.901 613.5722,-84.9718"/>
</g>
<!-- Node21&#45;&gt;Node22 -->
<g id="edge38" class="edge">
<title>Node21&#45;&gt;Node22</title>
<path fill="none" stroke="#191970" d="M600.9217,-170.4476C572.597,-160.534 522.7886,-143.101 491.2776,-132.0721"/>
<polygon fill="#191970" stroke="#191970" points="492.3349,-128.7341 481.7401,-128.734 490.0224,-135.3411 492.3349,-128.7341"/>
</g>
<!-- Node23&#45;&gt;Node11 -->
<g id="edge40" class="edge">
<title>Node23&#45;&gt;Node11</title>
<path fill="none" stroke="#191970" d="M451.3006,-224.3733C470.7243,-215.3838 499.9224,-201.8706 521.7964,-191.7471"/>
<polygon fill="#191970" stroke="#191970" points="523.3656,-194.8776 530.9708,-187.5011 520.4255,-188.5249 523.3656,-194.8776"/>
</g>
<!-- Node23&#45;&gt;Node15 -->
<g id="edge41" class="edge">
<title>Node23&#45;&gt;Node15</title>
<path fill="none" stroke="#191970" d="M439.1934,-224.4907C447.6911,-215.1926 460.9928,-200.6305 472.5,-188 487.5276,-171.5055 504.6472,-152.6694 516.7428,-139.3534"/>
<polygon fill="#191970" stroke="#191970" points="519.4289,-141.6018 523.5612,-131.846 514.247,-136.8955 519.4289,-141.6018"/>
</g>
<!-- Node24 -->
<g id="node25" class="node">
<title>Node24</title>
<g id="a_node25"><a xlink:href="ethertype_8h.html" target="_top" xlink:title="Ether type definitions. ">
<polygon fill="#ffffff" stroke="#000000" points="371.5,-168.5 371.5,-187.5 463.5,-187.5 463.5,-168.5 371.5,-168.5"/>
<text text-anchor="middle" x="417.5" y="-175.5" font-family="Helvetica,sans-Serif" font-size="10.00" fill="#000000">net/ethertype.h</text>
</a>
</g>
</g>
<!-- Node23&#45;&gt;Node24 -->
<g id="edge42" class="edge">
<title>Node23&#45;&gt;Node24</title>
<path fill="none" stroke="#191970" d="M428.2356,-224.2455C426.5206,-216.8579 424.1088,-206.4689 422.0056,-197.4087"/>
<polygon fill="#191970" stroke="#191970" points="425.4092,-196.5922 419.7385,-187.6427 418.5905,-198.1751 425.4092,-196.5922"/>
</g>
<!-- Node25 -->
<g id="node26" class="node">
<title>Node25</title>
<g id="a_node26"><a xlink:href="protnum_8h.html" target="_top" xlink:title="Protocol number definitions. ">
<polygon fill="#ffffff" stroke="#000000" points="267.5,-168.5 267.5,-187.5 353.5,-187.5 353.5,-168.5 267.5,-168.5"/>
<text text-anchor="middle" x="310.5" y="-175.5" font-family="Helvetica,sans-Serif" font-size="10.00" fill="#000000">net/protnum.h</text>
</a>
</g>
</g>
<!-- Node23&#45;&gt;Node25 -->
<g id="edge43" class="edge">
<title>Node23&#45;&gt;Node25</title>
<path fill="none" stroke="#191970" d="M409.8713,-224.3733C390.6081,-215.3838 361.6514,-201.8706 339.9581,-191.7471"/>
<polygon fill="#191970" stroke="#191970" points="341.4015,-188.5584 330.8595,-187.5011 338.4413,-194.9017 341.4015,-188.5584"/>
</g>
</g>
</svg>
