<?xml version="1.0" encoding="UTF-8" standalone="no"?>
<!DOCTYPE svg PUBLIC "-//W3C//DTD SVG 1.1//EN"
 "http://www.w3.org/Graphics/SVG/1.1/DTD/svg11.dtd">
<!-- Generated by graphviz version 2.40.1 (0)
 -->
<!-- Title: sys/include/net/gcoap.h Pages: 1 -->
<svg width="421pt" height="162pt"
 viewBox="0.00 0.00 421.00 162.00" xmlns="http://www.w3.org/2000/svg" xmlns:xlink="http://www.w3.org/1999/xlink">
<g id="graph0" class="graph" transform="scale(1 1) rotate(0) translate(4 158)">
<title>sys/include/net/gcoap.h</title>
<polygon fill="#ffffff" stroke="transparent" points="-4,4 -4,-158 417,-158 417,4 -4,4"/>
<!-- Node59 -->
<g id="node1" class="node">
<title>Node59</title>
<polygon fill="#bfbfbf" stroke="#000000" points="132.5,-134.5 132.5,-153.5 260.5,-153.5 260.5,-134.5 132.5,-134.5"/>
<text text-anchor="middle" x="196.5" y="-141.5" font-family="Helvetica,sans-Serif" font-size="10.00" fill="#000000">sys/include/net/gcoap.h</text>
</g>
<!-- Node60 -->
<g id="node2" class="node">
<title>Node60</title>
<g id="a_node2"><a xlink:href="gcoap_2dns_8h.html" target="_top" xlink:title="gcoap_dns definitions ">
<polygon fill="#ffffff" stroke="#000000" points="0,-62 0,-92 119,-92 119,-62 0,-62"/>
<text text-anchor="start" x="8" y="-80" font-family="Helvetica,sans-Serif" font-size="10.00" fill="#000000">sys/include/net/gcoap</text>
<text text-anchor="middle" x="59.5" y="-69" font-family="Helvetica,sans-Serif" font-size="10.00" fill="#000000">/dns.h</text>
</a>
</g>
</g>
<!-- Node59&#45;&gt;Node60 -->
<g id="edge1" class="edge">
<title>Node59&#45;&gt;Node60</title>
<path fill="none" stroke="#191970" d="M167.735,-129.9324C145.0271,-118.8271 113.4147,-103.367 90.2161,-92.0218"/>
<polygon fill="#191970" stroke="#191970" points="166.3503,-133.1513 176.8712,-134.4005 169.4256,-126.8631 166.3503,-133.1513"/>
</g>
<!-- Node62 -->
<g id="node4" class="node">
<title>Node62</title>
<g id="a_node4"><a xlink:href="forward__proxy_8h.html" target="_top" xlink:title="Definitions for the GCoAP forward proxy. ">
<polygon fill="#ffffff" stroke="#000000" points="137,-62 137,-92 256,-92 256,-62 137,-62"/>
<text text-anchor="start" x="145" y="-80" font-family="Helvetica,sans-Serif" font-size="10.00" fill="#000000">sys/include/net/gcoap</text>
<text text-anchor="middle" x="196.5" y="-69" font-family="Helvetica,sans-Serif" font-size="10.00" fill="#000000">/forward_proxy.h</text>
</a>
</g>
</g>
<!-- Node59&#45;&gt;Node62 -->
<g id="edge3" class="edge">
<title>Node59&#45;&gt;Node62</title>
<path fill="none" stroke="#191970" d="M196.5,-124.2758C196.5,-113.9641 196.5,-101.5437 196.5,-92.0218"/>
<polygon fill="#191970" stroke="#191970" points="193.0001,-124.4005 196.5,-134.4005 200.0001,-124.4006 193.0001,-124.4005"/>
</g>
<!-- Node63 -->
<g id="node5" class="node">
<title>Node63</title>
<g id="a_node5"><a xlink:href="forward__proxy__internal_8h.html" target="_top" xlink:title="Definitions for the GCoAP forward proxy internal communication. ">
<polygon fill="#ffffff" stroke="#000000" points="274,-56.5 274,-97.5 413,-97.5 413,-56.5 274,-56.5"/>
<text text-anchor="start" x="282" y="-85.5" font-family="Helvetica,sans-Serif" font-size="10.00" fill="#000000">sys/net/application</text>
<text text-anchor="start" x="282" y="-74.5" font-family="Helvetica,sans-Serif" font-size="10.00" fill="#000000">_layer/gcoap/include</text>
<text text-anchor="middle" x="343.5" y="-63.5" font-family="Helvetica,sans-Serif" font-size="10.00" fill="#000000">/forward_proxy_internal.h</text>
</a>
</g>
</g>
<!-- Node59&#45;&gt;Node63 -->
<g id="edge4" class="edge">
<title>Node59&#45;&gt;Node63</title>
<path fill="none" stroke="#191970" d="M226.7779,-130.1999C247.3854,-120.8073 275.0239,-108.2102 298.2333,-97.6318"/>
<polygon fill="#191970" stroke="#191970" points="225.2094,-127.0683 217.5615,-134.4005 228.1125,-133.4379 225.2094,-127.0683"/>
</g>
<!-- Node61 -->
<g id="node3" class="node">
<title>Node61</title>
<g id="a_node3"><a xlink:href="dns_8h.html" target="_top" xlink:title="Generic DNS values. ">
<polygon fill="#ffffff" stroke="#000000" points="1.5,-.5 1.5,-19.5 117.5,-19.5 117.5,-.5 1.5,-.5"/>
<text text-anchor="middle" x="59.5" y="-7.5" font-family="Helvetica,sans-Serif" font-size="10.00" fill="#000000">sys/include/net/dns.h</text>
</a>
</g>
</g>
<!-- Node60&#45;&gt;Node61 -->
<g id="edge2" class="edge">
<title>Node60&#45;&gt;Node61</title>
<path fill="none" stroke="#191970" d="M59.5,-51.6199C59.5,-40.4072 59.5,-27.9031 59.5,-19.555"/>
<polygon fill="#191970" stroke="#191970" points="56.0001,-51.7966 59.5,-61.7967 63.0001,-51.7967 56.0001,-51.7966"/>
</g>
</g>
</svg>
