<?xml version="1.0" encoding="UTF-8" standalone="no"?>
<!DOCTYPE svg PUBLIC "-//W3C//DTD SVG 1.1//EN"
 "http://www.w3.org/Graphics/SVG/1.1/DTD/svg11.dtd">
<!-- Generated by graphviz version 2.40.1 (0)
 -->
<!-- Title: boards/gd32vf103c&#45;start/include/board.h Pages: 1 -->
<svg width="346pt" height="151pt"
 viewBox="0.00 0.00 345.50 151.00" xmlns="http://www.w3.org/2000/svg" xmlns:xlink="http://www.w3.org/1999/xlink">
<g id="graph0" class="graph" transform="scale(1 1) rotate(0) translate(4 147)">
<title>boards/gd32vf103c&#45;start/include/board.h</title>
<polygon fill="#ffffff" stroke="transparent" points="-4,4 -4,-147 341.5,-147 341.5,4 -4,4"/>
<!-- Node0 -->
<g id="node1" class="node">
<title>Node0</title>
<polygon fill="#bfbfbf" stroke="#000000" points="35.5,-112.5 35.5,-142.5 168.5,-142.5 168.5,-112.5 35.5,-112.5"/>
<text text-anchor="start" x="43.5" y="-130.5" font-family="Helvetica,sans-Serif" font-size="10.00" fill="#000000">boards/gd32vf103c&#45;start</text>
<text text-anchor="middle" x="102" y="-119.5" font-family="Helvetica,sans-Serif" font-size="10.00" fill="#000000">/include/board.h</text>
</g>
<!-- Node1 -->
<g id="node2" class="node">
<title>Node1</title>
<polygon fill="#ffffff" stroke="#bfbfbf" points="0,-56.5 0,-75.5 98,-75.5 98,-56.5 0,-56.5"/>
<text text-anchor="middle" x="49" y="-63.5" font-family="Helvetica,sans-Serif" font-size="10.00" fill="#000000">board_common.h</text>
</g>
<!-- Node0&#45;&gt;Node1 -->
<g id="edge1" class="edge">
<title>Node0&#45;&gt;Node1</title>
<path fill="none" stroke="#191970" d="M88.8989,-112.2977C81.3887,-103.5831 71.93,-92.6075 64.1073,-83.5302"/>
<polygon fill="#191970" stroke="#191970" points="66.6655,-81.1372 57.486,-75.8469 61.3629,-85.707 66.6655,-81.1372"/>
</g>
<!-- Node2 -->
<g id="node3" class="node">
<title>Node2</title>
<g id="a_node3"><a xlink:href="drivers_2include_2periph_2gpio_8h.html" target="_top" xlink:title="Low&#45;level GPIO peripheral driver interface definitions. ">
<polygon fill="#ffffff" stroke="#000000" points="116,-56.5 116,-75.5 196,-75.5 196,-56.5 116,-56.5"/>
<text text-anchor="middle" x="156" y="-63.5" font-family="Helvetica,sans-Serif" font-size="10.00" fill="#000000">periph/gpio.h</text>
</a>
</g>
</g>
<!-- Node0&#45;&gt;Node2 -->
<g id="edge2" class="edge">
<title>Node0&#45;&gt;Node2</title>
<path fill="none" stroke="#191970" d="M115.3483,-112.2977C123.0002,-103.5831 132.6373,-92.6075 140.6076,-83.5302"/>
<polygon fill="#191970" stroke="#191970" points="143.3859,-85.6707 147.3539,-75.8469 138.1258,-81.052 143.3859,-85.6707"/>
</g>
<!-- Node3 -->
<g id="node4" class="node">
<title>Node3</title>
<polygon fill="#ffffff" stroke="#bfbfbf" points="15,-.5 15,-19.5 65,-19.5 65,-.5 15,-.5"/>
<text text-anchor="middle" x="40" y="-7.5" font-family="Helvetica,sans-Serif" font-size="10.00" fill="#000000">limits.h</text>
</g>
<!-- Node2&#45;&gt;Node3 -->
<g id="edge3" class="edge">
<title>Node2&#45;&gt;Node3</title>
<path fill="none" stroke="#191970" d="M136.0589,-56.3733C117.5214,-47.4241 89.6972,-33.9917 68.7587,-23.8835"/>
<polygon fill="#191970" stroke="#191970" points="70.2081,-20.6967 59.6809,-19.5011 67.1648,-27.0006 70.2081,-20.6967"/>
</g>
<!-- Node4 -->
<g id="node5" class="node">
<title>Node4</title>
<polygon fill="#ffffff" stroke="#bfbfbf" points="83,-.5 83,-19.5 143,-19.5 143,-.5 83,-.5"/>
<text text-anchor="middle" x="113" y="-7.5" font-family="Helvetica,sans-Serif" font-size="10.00" fill="#000000">stdbool.h</text>
</g>
<!-- Node2&#45;&gt;Node4 -->
<g id="edge4" class="edge">
<title>Node2&#45;&gt;Node4</title>
<path fill="none" stroke="#191970" d="M148.51,-56.2455C142.4674,-48.3761 133.8097,-37.101 126.5559,-27.6542"/>
<polygon fill="#191970" stroke="#191970" points="129.2705,-25.4426 120.4042,-19.6427 123.7185,-29.7058 129.2705,-25.4426"/>
</g>
<!-- Node5 -->
<g id="node6" class="node">
<title>Node5</title>
<polygon fill="#ffffff" stroke="#bfbfbf" points="161.5,-.5 161.5,-19.5 238.5,-19.5 238.5,-.5 161.5,-.5"/>
<text text-anchor="middle" x="200" y="-7.5" font-family="Helvetica,sans-Serif" font-size="10.00" fill="#000000">periph_cpu.h</text>
</g>
<!-- Node2&#45;&gt;Node5 -->
<g id="edge5" class="edge">
<title>Node2&#45;&gt;Node5</title>
<path fill="none" stroke="#191970" d="M163.6642,-56.2455C169.8473,-48.3761 178.7063,-37.101 186.1289,-27.6542"/>
<polygon fill="#191970" stroke="#191970" points="188.9975,-29.6683 192.4236,-19.6427 183.4932,-25.3435 188.9975,-29.6683"/>
</g>
<!-- Node6 -->
<g id="node7" class="node">
<title>Node6</title>
<polygon fill="#ffffff" stroke="#bfbfbf" points="256.5,-.5 256.5,-19.5 337.5,-19.5 337.5,-.5 256.5,-.5"/>
<text text-anchor="middle" x="297" y="-7.5" font-family="Helvetica,sans-Serif" font-size="10.00" fill="#000000">periph_conf.h</text>
</g>
<!-- Node2&#45;&gt;Node6 -->
<g id="edge6" class="edge">
<title>Node2&#45;&gt;Node6</title>
<path fill="none" stroke="#191970" d="M180.2388,-56.3733C203.2789,-47.2226 238.1214,-33.3844 263.7501,-23.2057"/>
<polygon fill="#191970" stroke="#191970" points="265.0756,-26.4452 273.0775,-19.5011 262.4918,-19.9395 265.0756,-26.4452"/>
</g>
</g>
</svg>
