<?xml version="1.0" encoding="UTF-8" standalone="no"?>
<!DOCTYPE svg PUBLIC "-//W3C//DTD SVG 1.1//EN"
 "http://www.w3.org/Graphics/SVG/1.1/DTD/svg11.dtd">
<!-- Generated by graphviz version 2.40.1 (0)
 -->
<!-- Title: sys/net/gnrc/link_layer/gomach/include/gomach_internal.h Pages: 1 -->
<svg width="2979pt" height="610pt"
 viewBox="0.00 0.00 2979.27 610.00" xmlns="http://www.w3.org/2000/svg" xmlns:xlink="http://www.w3.org/1999/xlink">
<g id="graph0" class="graph" transform="scale(1 1) rotate(0) translate(4 606)">
<title>sys/net/gnrc/link_layer/gomach/include/gomach_internal.h</title>
<polygon fill="#ffffff" stroke="transparent" points="-4,4 -4,-606 2975.2691,-606 2975.2691,4 -4,4"/>
<!-- Node0 -->
<g id="node1" class="node">
<title>Node0</title>
<polygon fill="#bfbfbf" stroke="#000000" points="2800.2691,-560.5 2800.2691,-601.5 2934.2691,-601.5 2934.2691,-560.5 2800.2691,-560.5"/>
<text text-anchor="start" x="2808.2691" y="-589.5" font-family="Helvetica,sans-Serif" font-size="10.00" fill="#000000">sys/net/gnrc/link_layer</text>
<text text-anchor="start" x="2808.2691" y="-578.5" font-family="Helvetica,sans-Serif" font-size="10.00" fill="#000000">/gomach/include/gomach</text>
<text text-anchor="middle" x="2867.2691" y="-567.5" font-family="Helvetica,sans-Serif" font-size="10.00" fill="#000000">_internal.h</text>
</g>
<!-- Node1 -->
<g id="node2" class="node">
<title>Node1</title>
<polygon fill="#ffffff" stroke="#bfbfbf" points="1937.2691,-.5 1937.2691,-19.5 1989.2691,-19.5 1989.2691,-.5 1937.2691,-.5"/>
<text text-anchor="middle" x="1963.2691" y="-7.5" font-family="Helvetica,sans-Serif" font-size="10.00" fill="#000000">stdint.h</text>
</g>
<!-- Node0&#45;&gt;Node1 -->
<g id="edge1" class="edge">
<title>Node0&#45;&gt;Node1</title>
<path fill="none" stroke="#191970" d="M2901.0349,-560.3533C2931.4022,-538.9122 2971.2691,-502.3235 2971.2691,-458 2971.2691,-458 2971.2691,-458 2971.2691,-122 2971.2691,-43.0176 2883.3905,-73.0443 2806.2691,-56 2649.0003,-21.2427 2140.4593,-12.2607 1999.685,-10.4147"/>
<polygon fill="#191970" stroke="#191970" points="1999.4879,-6.912 1989.4442,-10.2846 1999.3989,-13.9114 1999.4879,-6.912"/>
</g>
<!-- Node2 -->
<g id="node3" class="node">
<title>Node2</title>
<g id="a_node3"><a xlink:href="rtt_8h.html" target="_top" xlink:title="Low&#45;level RTT (Real Time Timer) peripheral driver interface definitions. ">
<polygon fill="#ffffff" stroke="#000000" points="2831.2691,-504.5 2831.2691,-523.5 2903.2691,-523.5 2903.2691,-504.5 2831.2691,-504.5"/>
<text text-anchor="middle" x="2867.2691" y="-511.5" font-family="Helvetica,sans-Serif" font-size="10.00" fill="#000000">periph/rtt.h</text>
</a>
</g>
</g>
<!-- Node0&#45;&gt;Node2 -->
<g id="edge2" class="edge">
<title>Node0&#45;&gt;Node2</title>
<path fill="none" stroke="#191970" d="M2867.2691,-560.168C2867.2691,-551.8226 2867.2691,-542.2471 2867.2691,-533.9879"/>
<polygon fill="#191970" stroke="#191970" points="2870.7692,-533.7804 2867.2691,-523.7805 2863.7692,-533.7805 2870.7692,-533.7804"/>
</g>
<!-- Node4 -->
<g id="node5" class="node">
<title>Node4</title>
<g id="a_node5"><a xlink:href="gnrc_2netif_8h.html" target="_top" xlink:title="Definition for GNRC&#39;s network interfaces. ">
<polygon fill="#ffffff" stroke="#000000" points="1438.2691,-504.5 1438.2691,-523.5 1530.2691,-523.5 1530.2691,-504.5 1438.2691,-504.5"/>
<text text-anchor="middle" x="1484.2691" y="-511.5" font-family="Helvetica,sans-Serif" font-size="10.00" fill="#000000">net/gnrc/netif.h</text>
</a>
</g>
</g>
<!-- Node0&#45;&gt;Node4 -->
<g id="edge5" class="edge">
<title>Node0&#45;&gt;Node4</title>
<path fill="none" stroke="#191970" d="M2800.0968,-577.7458C2561.9401,-566.2082 1760.4302,-527.3787 1540.5004,-516.7241"/>
<polygon fill="#191970" stroke="#191970" points="1540.6294,-513.2264 1530.4717,-516.2383 1540.2906,-520.2182 1540.6294,-513.2264"/>
</g>
<!-- Node2&#45;&gt;Node1 -->
<g id="edge3" class="edge">
<title>Node2&#45;&gt;Node1</title>
<path fill="none" stroke="#191970" d="M2862.2523,-504.4109C2852.7946,-485.4144 2833.2691,-441.4221 2833.2691,-402 2833.2691,-402 2833.2691,-402 2833.2691,-122 2833.2691,-82.6547 2809.7145,-73.0784 2774.2691,-56 2703.9303,-22.1092 2148.3783,-12.4303 1999.7381,-10.4354"/>
<polygon fill="#191970" stroke="#191970" points="1999.4023,-6.9308 1989.3574,-10.2998 1999.3108,-13.9302 1999.4023,-6.9308"/>
</g>
<!-- Node3 -->
<g id="node4" class="node">
<title>Node3</title>
<polygon fill="#ffffff" stroke="#bfbfbf" points="2861.7691,-448.5 2861.7691,-467.5 2942.7691,-467.5 2942.7691,-448.5 2861.7691,-448.5"/>
<text text-anchor="middle" x="2902.2691" y="-455.5" font-family="Helvetica,sans-Serif" font-size="10.00" fill="#000000">periph_conf.h</text>
</g>
<!-- Node2&#45;&gt;Node3 -->
<g id="edge4" class="edge">
<title>Node2&#45;&gt;Node3</title>
<path fill="none" stroke="#191970" d="M2873.3656,-504.2455C2878.1836,-496.5367 2885.0442,-485.5598 2890.8723,-476.2348"/>
<polygon fill="#191970" stroke="#191970" points="2893.9104,-477.9777 2896.2424,-467.6427 2887.9744,-474.2677 2893.9104,-477.9777"/>
</g>
<!-- Node4&#45;&gt;Node1 -->
<g id="edge7" class="edge">
<title>Node4&#45;&gt;Node1</title>
<path fill="none" stroke="#191970" d="M1530.5432,-512.522C1763.3334,-504.7893 2795.2691,-466.8536 2795.2691,-402 2795.2691,-402 2795.2691,-402 2795.2691,-122 2795.2691,-85.4662 2778.4104,-73.3682 2746.2691,-56 2680.0887,-20.238 2144.7805,-11.9405 1999.5217,-10.3394"/>
<polygon fill="#191970" stroke="#191970" points="1999.3994,-6.838 1989.3627,-10.2314 1999.3249,-13.8376 1999.3994,-6.838"/>
</g>
<!-- Node5 -->
<g id="node6" class="node">
<title>Node5</title>
<polygon fill="#ffffff" stroke="#bfbfbf" points="820.2691,-56.5 820.2691,-75.5 876.2691,-75.5 876.2691,-56.5 820.2691,-56.5"/>
<text text-anchor="middle" x="848.2691" y="-63.5" font-family="Helvetica,sans-Serif" font-size="10.00" fill="#000000">stddef.h</text>
</g>
<!-- Node4&#45;&gt;Node5 -->
<g id="edge6" class="edge">
<title>Node4&#45;&gt;Node5</title>
<path fill="none" stroke="#191970" d="M1437.9374,-511.1976C1331.2528,-504.4609 1074.7358,-486.5373 1040.2691,-468 921.79,-404.2781 848.2691,-368.528 848.2691,-234 848.2691,-234 848.2691,-234 848.2691,-178 848.2691,-145.7116 848.2691,-108.1872 848.2691,-85.8048"/>
<polygon fill="#191970" stroke="#191970" points="851.7692,-85.5883 848.2691,-75.5884 844.7692,-85.5884 851.7692,-85.5883"/>
</g>
<!-- Node6 -->
<g id="node7" class="node">
<title>Node6</title>
<polygon fill="#ffffff" stroke="#bfbfbf" points="1372.2691,-112.5 1372.2691,-131.5 1432.2691,-131.5 1432.2691,-112.5 1372.2691,-112.5"/>
<text text-anchor="middle" x="1402.2691" y="-119.5" font-family="Helvetica,sans-Serif" font-size="10.00" fill="#000000">stdbool.h</text>
</g>
<!-- Node4&#45;&gt;Node6 -->
<g id="edge8" class="edge">
<title>Node4&#45;&gt;Node6</title>
<path fill="none" stroke="#191970" d="M1438.2288,-508.8509C1378.2697,-501.5178 1277.3264,-486.8411 1245.2691,-468 1217.256,-451.5358 1212.0349,-441.4331 1198.2691,-412 1162.7725,-336.1038 1138.1452,-293.9488 1184.2691,-224 1206.6286,-190.0909 1231.3709,-204.9793 1268.2691,-188 1305.1964,-171.0073 1347.141,-150.0795 1374.1141,-136.4064"/>
<polygon fill="#191970" stroke="#191970" points="1376.0089,-139.3695 1383.3371,-131.7179 1372.8367,-133.1295 1376.0089,-139.3695"/>
</g>
<!-- Node7 -->
<g id="node8" class="node">
<title>Node7</title>
<g id="a_node8"><a xlink:href="sched_8h.html" target="_top" xlink:title="Scheduler API definition. ">
<polygon fill="#ffffff" stroke="#000000" points="334.7691,-224.5 334.7691,-243.5 387.7691,-243.5 387.7691,-224.5 334.7691,-224.5"/>
<text text-anchor="middle" x="361.2691" y="-231.5" font-family="Helvetica,sans-Serif" font-size="10.00" fill="#000000">sched.h</text>
</a>
</g>
</g>
<!-- Node4&#45;&gt;Node7 -->
<g id="edge9" class="edge">
<title>Node4&#45;&gt;Node7</title>
<path fill="none" stroke="#191970" d="M1438.0414,-513.1269C1229.5297,-509.0708 381.6959,-491.2756 265.2691,-468 182.9405,-451.5412 88.2691,-485.9577 88.2691,-402 88.2691,-402 88.2691,-402 88.2691,-346 88.2691,-295.4818 250.301,-256.3279 324.7045,-241.0118"/>
<polygon fill="#191970" stroke="#191970" points="325.4886,-244.4242 334.5956,-239.0101 324.1001,-237.5632 325.4886,-244.4242"/>
</g>
<!-- Node18 -->
<g id="node19" class="node">
<title>Node18</title>
<polygon fill="#ffffff" stroke="#bfbfbf" points="1089.7691,-448.5 1089.7691,-467.5 1134.7691,-467.5 1134.7691,-448.5 1089.7691,-448.5"/>
<text text-anchor="middle" x="1112.2691" y="-455.5" font-family="Helvetica,sans-Serif" font-size="10.00" fill="#000000">msg.h</text>
</g>
<!-- Node4&#45;&gt;Node18 -->
<g id="edge28" class="edge">
<title>Node4&#45;&gt;Node18</title>
<path fill="none" stroke="#191970" d="M1438.1694,-509.5507C1373.2906,-502.8634 1251.5336,-488.7526 1149.2691,-468 1147.8018,-467.7022 1146.3067,-467.3796 1144.7999,-467.0387"/>
<polygon fill="#191970" stroke="#191970" points="1145.4048,-463.5833 1134.8584,-464.5952 1143.734,-470.381 1145.4048,-463.5833"/>
</g>
<!-- Node19 -->
<g id="node20" class="node">
<title>Node19</title>
<polygon fill="#ffffff" stroke="#bfbfbf" points="1850.7691,-224.5 1850.7691,-243.5 1903.7691,-243.5 1903.7691,-224.5 1850.7691,-224.5"/>
<text text-anchor="middle" x="1877.2691" y="-231.5" font-family="Helvetica,sans-Serif" font-size="10.00" fill="#000000">event.h</text>
</g>
<!-- Node4&#45;&gt;Node19 -->
<g id="edge29" class="edge">
<title>Node4&#45;&gt;Node19</title>
<path fill="none" stroke="#191970" d="M1530.5069,-510.6187C1634.3932,-501.7522 1877.2691,-473.3892 1877.2691,-402 1877.2691,-402 1877.2691,-402 1877.2691,-346 1877.2691,-313.7116 1877.2691,-276.1872 1877.2691,-253.8048"/>
<polygon fill="#191970" stroke="#191970" points="1880.7692,-253.5883 1877.2691,-243.5884 1873.7692,-253.5884 1880.7692,-253.5883"/>
</g>
<!-- Node20 -->
<g id="node21" class="node">
<title>Node20</title>
<g id="a_node21"><a xlink:href="ipv6_2addr_8h.html" target="_top" xlink:title="Definitions for IPv6 addresses. ">
<polygon fill="#ffffff" stroke="#000000" points="2118.7691,-224.5 2118.7691,-243.5 2207.7691,-243.5 2207.7691,-224.5 2118.7691,-224.5"/>
<text text-anchor="middle" x="2163.2691" y="-231.5" font-family="Helvetica,sans-Serif" font-size="10.00" fill="#000000">net/ipv6/addr.h</text>
</a>
</g>
</g>
<!-- Node4&#45;&gt;Node20 -->
<g id="edge30" class="edge">
<title>Node4&#45;&gt;Node20</title>
<path fill="none" stroke="#191970" d="M1530.4937,-511.0391C1597.0976,-506.05 1723.5625,-493.8665 1828.2691,-468 1910.9906,-447.5647 2008.2691,-487.2082 2008.2691,-402 2008.2691,-402 2008.2691,-402 2008.2691,-346 2008.2691,-292.4908 2069.7076,-261.9645 2115.2231,-246.6916"/>
<polygon fill="#191970" stroke="#191970" points="2116.4997,-249.9579 2124.9545,-243.5729 2114.3634,-243.2918 2116.4997,-249.9579"/>
</g>
<!-- Node26 -->
<g id="node27" class="node">
<title>Node26</title>
<g id="a_node27"><a xlink:href="netapi_8h.html" target="_top" xlink:title="Generic interface to communicate with GNRC modules. ">
<polygon fill="#ffffff" stroke="#000000" points="1027.7691,-336.5 1027.7691,-355.5 1126.7691,-355.5 1126.7691,-336.5 1027.7691,-336.5"/>
<text text-anchor="middle" x="1077.2691" y="-343.5" font-family="Helvetica,sans-Serif" font-size="10.00" fill="#000000">net/gnrc/netapi.h</text>
</a>
</g>
</g>
<!-- Node4&#45;&gt;Node26 -->
<g id="edge45" class="edge">
<title>Node4&#45;&gt;Node26</title>
<path fill="none" stroke="#191970" d="M1437.9022,-512.0576C1337.103,-507.3663 1105.1095,-493.8509 1081.2691,-468 1055.7622,-440.3421 1063.7102,-392.3694 1070.978,-365.5613"/>
<polygon fill="#191970" stroke="#191970" points="1074.3867,-366.3758 1073.8541,-355.7944 1067.6718,-364.3985 1074.3867,-366.3758"/>
</g>
<!-- Node28 -->
<g id="node29" class="node">
<title>Node28</title>
<g id="a_node29"><a xlink:href="netopt_8h.html" target="_top" xlink:title="Definition of global configuration options. ">
<polygon fill="#ffffff" stroke="#000000" points="1192.7691,-224.5 1192.7691,-243.5 1269.7691,-243.5 1269.7691,-224.5 1192.7691,-224.5"/>
<text text-anchor="middle" x="1231.2691" y="-231.5" font-family="Helvetica,sans-Serif" font-size="10.00" fill="#000000">net/netopt.h</text>
</a>
</g>
</g>
<!-- Node4&#45;&gt;Node28 -->
<g id="edge105" class="edge">
<title>Node4&#45;&gt;Node28</title>
<path fill="none" stroke="#191970" d="M1438.0183,-505.5474C1358.0157,-489.597 1202.2691,-452.1102 1202.2691,-402 1202.2691,-402 1202.2691,-402 1202.2691,-346 1202.2691,-312.5134 1214.5686,-275.1413 1223.1476,-253.1469"/>
<polygon fill="#191970" stroke="#191970" points="1226.4763,-254.2517 1226.9901,-243.6693 1219.9892,-251.6216 1226.4763,-254.2517"/>
</g>
<!-- Node32 -->
<g id="node33" class="node">
<title>Node32</title>
<g id="a_node33"><a xlink:href="net_2gnrc_2pkt_8h.html" target="_top" xlink:title="General definitions for network packets and their helper functions. ">
<polygon fill="#ffffff" stroke="#000000" points="956.7691,-280.5 956.7691,-299.5 1041.7691,-299.5 1041.7691,-280.5 956.7691,-280.5"/>
<text text-anchor="middle" x="999.2691" y="-287.5" font-family="Helvetica,sans-Serif" font-size="10.00" fill="#000000">net/gnrc/pkt.h</text>
</a>
</g>
</g>
<!-- Node4&#45;&gt;Node32 -->
<g id="edge61" class="edge">
<title>Node4&#45;&gt;Node32</title>
<path fill="none" stroke="#191970" d="M1438.2445,-511.5833C1335.5941,-505.8207 1094.6131,-490.0868 1065.2691,-468 1014.4382,-429.7404 1002.7383,-347.975 1000.058,-310.0658"/>
<polygon fill="#191970" stroke="#191970" points="1003.5371,-309.5938 999.4824,-299.8056 996.5481,-309.986 1003.5371,-309.5938"/>
</g>
<!-- Node34 -->
<g id="node35" class="node">
<title>Node34</title>
<g id="a_node35"><a xlink:href="netif_2conf_8h.html" target="_top" xlink:title="Configuration macros for Network interface API. ">
<polygon fill="#ffffff" stroke="#000000" points="1542.2691,-336.5 1542.2691,-355.5 1658.2691,-355.5 1658.2691,-336.5 1542.2691,-336.5"/>
<text text-anchor="middle" x="1600.2691" y="-343.5" font-family="Helvetica,sans-Serif" font-size="10.00" fill="#000000">net/gnrc/netif/conf.h</text>
</a>
</g>
</g>
<!-- Node4&#45;&gt;Node34 -->
<g id="edge62" class="edge">
<title>Node4&#45;&gt;Node34</title>
<path fill="none" stroke="#191970" d="M1490.8381,-504.4862C1509.4926,-477.4695 1563.0245,-399.9405 1587.6264,-364.3102"/>
<polygon fill="#191970" stroke="#191970" points="1590.6814,-366.0456 1593.4832,-355.8279 1584.9211,-362.0682 1590.6814,-366.0456"/>
</g>
<!-- Node41 -->
<g id="node42" class="node">
<title>Node41</title>
<g id="a_node42"><a xlink:href="flags_8h.html" target="_top" xlink:title="Flag definitions for Network interface API. ">
<polygon fill="#ffffff" stroke="#000000" points="2036.7691,-448.5 2036.7691,-467.5 2153.7691,-467.5 2153.7691,-448.5 2036.7691,-448.5"/>
<text text-anchor="middle" x="2095.2691" y="-455.5" font-family="Helvetica,sans-Serif" font-size="10.00" fill="#000000">net/gnrc/netif/flags.h</text>
</a>
</g>
</g>
<!-- Node4&#45;&gt;Node41 -->
<g id="edge84" class="edge">
<title>Node4&#45;&gt;Node41</title>
<path fill="none" stroke="#191970" d="M1530.405,-510.8497C1623.531,-504.3154 1840.5884,-488.1977 2022.2691,-468 2023.7391,-467.8366 2025.2253,-467.6675 2026.7231,-467.4937"/>
<polygon fill="#191970" stroke="#191970" points="2027.2223,-470.9589 2036.7307,-466.2856 2026.3833,-464.0094 2027.2223,-470.9589"/>
</g>
<!-- Node42 -->
<g id="node43" class="node">
<title>Node42</title>
<g id="a_node43"><a xlink:href="l2util_8h.html" target="_top" xlink:title="Link&#45;layer helper function definitions. ">
<polygon fill="#ffffff" stroke="#000000" points="2347.2691,-336.5 2347.2691,-355.5 2415.2691,-355.5 2415.2691,-336.5 2347.2691,-336.5"/>
<text text-anchor="middle" x="2381.2691" y="-343.5" font-family="Helvetica,sans-Serif" font-size="10.00" fill="#000000">net/l2util.h</text>
</a>
</g>
</g>
<!-- Node4&#45;&gt;Node42 -->
<g id="edge85" class="edge">
<title>Node4&#45;&gt;Node42</title>
<path fill="none" stroke="#191970" d="M1530.3155,-512.5812C1698.3872,-507.2523 2270.7445,-487.7289 2304.2691,-468 2343.316,-445.0213 2365.6268,-393.603 2375.3574,-365.4092"/>
<polygon fill="#191970" stroke="#191970" points="2378.7023,-366.441 2378.4794,-355.8485 2372.0481,-364.268 2378.7023,-366.441"/>
</g>
<!-- Node43 -->
<g id="node44" class="node">
<title>Node43</title>
<g id="a_node44"><a xlink:href="ndp_8h.html" target="_top" xlink:title="IPv6 neighbor discovery message type definitions. ">
<polygon fill="#ffffff" stroke="#000000" points="2273.7691,-280.5 2273.7691,-299.5 2336.7691,-299.5 2336.7691,-280.5 2273.7691,-280.5"/>
<text text-anchor="middle" x="2305.2691" y="-287.5" font-family="Helvetica,sans-Serif" font-size="10.00" fill="#000000">net/ndp.h</text>
</a>
</g>
</g>
<!-- Node4&#45;&gt;Node43 -->
<g id="edge92" class="edge">
<title>Node4&#45;&gt;Node43</title>
<path fill="none" stroke="#191970" d="M1530.4333,-513.1844C1677.0932,-510.2878 2126.1274,-498.9578 2183.2691,-468 2247.7046,-433.0907 2284.8993,-347.6049 2298.862,-309.2152"/>
<polygon fill="#191970" stroke="#191970" points="2302.1862,-310.3122 2302.1875,-299.7174 2295.5794,-307.9989 2302.1862,-310.3122"/>
</g>
<!-- Node44 -->
<g id="node45" class="node">
<title>Node44</title>
<g id="a_node45"><a xlink:href="drivers_2include_2net_2netdev_8h.html" target="_top" xlink:title="Definitions low&#45;level network driver interface. ">
<polygon fill="#ffffff" stroke="#000000" points="1268.7691,-280.5 1268.7691,-299.5 1345.7691,-299.5 1345.7691,-280.5 1268.7691,-280.5"/>
<text text-anchor="middle" x="1307.2691" y="-287.5" font-family="Helvetica,sans-Serif" font-size="10.00" fill="#000000">net/netdev.h</text>
</a>
</g>
</g>
<!-- Node4&#45;&gt;Node44 -->
<g id="edge93" class="edge">
<title>Node4&#45;&gt;Node44</title>
<path fill="none" stroke="#191970" d="M1476.6636,-504.375C1449.4306,-469.9107 1356.5254,-352.3356 1321.1234,-307.5331"/>
<polygon fill="#191970" stroke="#191970" points="1323.7923,-305.2653 1314.8462,-299.5891 1318.3,-309.6053 1323.7923,-305.2653"/>
</g>
<!-- Node49 -->
<g id="node50" class="node">
<title>Node49</title>
<g id="a_node50"><a xlink:href="rmutex_8h.html" target="_top" xlink:title="Recursive Mutex for thread synchronization. ">
<polygon fill="#ffffff" stroke="#000000" points="274.2691,-448.5 274.2691,-467.5 334.2691,-467.5 334.2691,-448.5 274.2691,-448.5"/>
<text text-anchor="middle" x="304.2691" y="-455.5" font-family="Helvetica,sans-Serif" font-size="10.00" fill="#000000">rmutex.h</text>
</a>
</g>
</g>
<!-- Node4&#45;&gt;Node49 -->
<g id="edge106" class="edge">
<title>Node4&#45;&gt;Node49</title>
<path fill="none" stroke="#191970" d="M1438.0117,-511.8047C1247.2946,-502.7538 523.6122,-468.4095 344.5344,-459.9109"/>
<polygon fill="#191970" stroke="#191970" points="344.6441,-456.4123 334.4893,-459.4342 344.3122,-463.4044 344.6441,-456.4123"/>
</g>
<!-- Node60 -->
<g id="node61" class="node">
<title>Node60</title>
<g id="a_node61"><a xlink:href="netif_8h.html" target="_top" xlink:title="Common network interface API definitions. ">
<polygon fill="#ffffff" stroke="#000000" points="2148.7691,-392.5 2148.7691,-411.5 2215.7691,-411.5 2215.7691,-392.5 2148.7691,-392.5"/>
<text text-anchor="middle" x="2182.2691" y="-399.5" font-family="Helvetica,sans-Serif" font-size="10.00" fill="#000000">net/netif.h</text>
</a>
</g>
</g>
<!-- Node4&#45;&gt;Node60 -->
<g id="edge133" class="edge">
<title>Node4&#45;&gt;Node60</title>
<path fill="none" stroke="#191970" d="M1530.3315,-512.3242C1679.1134,-506.7238 2138.6318,-487.8854 2163.2691,-468 2176.7258,-457.1387 2181.0335,-437.4009 2182.2394,-422.3302"/>
<polygon fill="#191970" stroke="#191970" points="2185.7525,-422.0721 2182.6572,-411.9395 2178.7582,-421.7908 2185.7525,-422.0721"/>
</g>
<!-- Node7&#45;&gt;Node5 -->
<g id="edge10" class="edge">
<title>Node7&#45;&gt;Node5</title>
<path fill="none" stroke="#191970" d="M367.2641,-224.1674C382.5818,-200.0509 425.817,-138.0423 480.2691,-112 538.0016,-84.3888 727.9666,-71.9218 809.9935,-67.7285"/>
<polygon fill="#191970" stroke="#191970" points="810.3237,-71.2165 820.1375,-67.2241 809.976,-64.2251 810.3237,-71.2165"/>
</g>
<!-- Node8 -->
<g id="node9" class="node">
<title>Node8</title>
<g id="a_node9"><a xlink:href="inttypes_8h.html" target="_top" xlink:title="Adds include for missing inttype definitions. ">
<polygon fill="#ffffff" stroke="#000000" points="952.7691,-168.5 952.7691,-187.5 1015.7691,-187.5 1015.7691,-168.5 952.7691,-168.5"/>
<text text-anchor="middle" x="984.2691" y="-175.5" font-family="Helvetica,sans-Serif" font-size="10.00" fill="#000000">inttypes.h</text>
</a>
</g>
</g>
<!-- Node7&#45;&gt;Node8 -->
<g id="edge11" class="edge">
<title>Node7&#45;&gt;Node8</title>
<path fill="none" stroke="#191970" d="M388.0386,-231.5938C485.7049,-222.8148 823.346,-192.465 942.3527,-181.7678"/>
<polygon fill="#191970" stroke="#191970" points="942.8715,-185.2353 952.5179,-180.854 942.2447,-178.2634 942.8715,-185.2353"/>
</g>
<!-- Node9 -->
<g id="node10" class="node">
<title>Node9</title>
<g id="a_node10"><a xlink:href="kernel__defines_8h.html" target="_top" xlink:title="Common macros and compiler attributes/pragmas configuration. ">
<polygon fill="#ffffff" stroke="#000000" points="98.7691,-168.5 98.7691,-187.5 193.7691,-187.5 193.7691,-168.5 98.7691,-168.5"/>
<text text-anchor="middle" x="146.2691" y="-175.5" font-family="Helvetica,sans-Serif" font-size="10.00" fill="#000000">kernel_defines.h</text>
</a>
</g>
</g>
<!-- Node7&#45;&gt;Node9 -->
<g id="edge12" class="edge">
<title>Node7&#45;&gt;Node9</title>
<path fill="none" stroke="#191970" d="M334.4739,-227.0208C298.9668,-217.7724 235.7772,-201.3137 192.4906,-190.0391"/>
<polygon fill="#191970" stroke="#191970" points="193.3193,-186.6382 182.7599,-187.5046 191.5549,-193.4122 193.3193,-186.6382"/>
</g>
<!-- Node15 -->
<g id="node16" class="node">
<title>Node15</title>
<g id="a_node16"><a xlink:href="native__sched_8h.html" target="_top" xlink:title="Add definitions required on the native board. ">
<polygon fill="#ffffff" stroke="#000000" points="250.2691,-168.5 250.2691,-187.5 336.2691,-187.5 336.2691,-168.5 250.2691,-168.5"/>
<text text-anchor="middle" x="293.2691" y="-175.5" font-family="Helvetica,sans-Serif" font-size="10.00" fill="#000000">native_sched.h</text>
</a>
</g>
</g>
<!-- Node7&#45;&gt;Node15 -->
<g id="edge23" class="edge">
<title>Node7&#45;&gt;Node15</title>
<path fill="none" stroke="#191970" d="M349.4244,-224.2455C339.3811,-215.9746 324.7696,-203.9416 312.9687,-194.2232"/>
<polygon fill="#191970" stroke="#191970" points="314.9224,-191.298 304.9781,-187.6427 310.4724,-196.7015 314.9224,-191.298"/>
</g>
<!-- Node16 -->
<g id="node17" class="node">
<title>Node16</title>
<g id="a_node17"><a xlink:href="clist_8h.html" target="_top" xlink:title="Circular linked list. ">
<polygon fill="#ffffff" stroke="#000000" points="430.7691,-168.5 430.7691,-187.5 473.7691,-187.5 473.7691,-168.5 430.7691,-168.5"/>
<text text-anchor="middle" x="452.2691" y="-175.5" font-family="Helvetica,sans-Serif" font-size="10.00" fill="#000000">clist.h</text>
</a>
</g>
</g>
<!-- Node7&#45;&gt;Node16 -->
<g id="edge24" class="edge">
<title>Node7&#45;&gt;Node16</title>
<path fill="none" stroke="#191970" d="M377.1201,-224.2455C391.0823,-215.6534 411.6419,-203.0014 427.7287,-193.1018"/>
<polygon fill="#191970" stroke="#191970" points="429.9175,-195.8645 436.5998,-187.6427 426.2488,-189.9029 429.9175,-195.8645"/>
</g>
<!-- Node10 -->
<g id="node11" class="node">
<title>Node10</title>
<g id="a_node11"><a xlink:href="modules_8h.html" target="_top" xlink:title="Common macros and compiler attributes/pragmas configuration. ">
<polygon fill="#ffffff" stroke="#000000" points="1288.7691,-112.5 1288.7691,-131.5 1353.7691,-131.5 1353.7691,-112.5 1288.7691,-112.5"/>
<text text-anchor="middle" x="1321.2691" y="-119.5" font-family="Helvetica,sans-Serif" font-size="10.00" fill="#000000">modules.h</text>
</a>
</g>
</g>
<!-- Node9&#45;&gt;Node10 -->
<g id="edge13" class="edge">
<title>Node9&#45;&gt;Node10</title>
<path fill="none" stroke="#191970" d="M194.0586,-172.382C209.1444,-170.7664 225.8877,-169.136 241.2691,-168 643.882,-138.2647 1132.4557,-126.0218 1278.2382,-122.8697"/>
<polygon fill="#191970" stroke="#191970" points="1278.6091,-126.3627 1288.5321,-122.65 1278.4596,-119.3643 1278.6091,-126.3627"/>
</g>
<!-- Node11 -->
<g id="node12" class="node">
<title>Node11</title>
<g id="a_node12"><a xlink:href="riot__version_8h.html" target="_top" xlink:title="Common macros and compiler attributes/pragmas configuration. ">
<polygon fill="#ffffff" stroke="#000000" points="217.7691,-56.5 217.7691,-75.5 298.7691,-75.5 298.7691,-56.5 217.7691,-56.5"/>
<text text-anchor="middle" x="258.2691" y="-63.5" font-family="Helvetica,sans-Serif" font-size="10.00" fill="#000000">riot_version.h</text>
</a>
</g>
</g>
<!-- Node9&#45;&gt;Node11 -->
<g id="edge14" class="edge">
<title>Node9&#45;&gt;Node11</title>
<path fill="none" stroke="#191970" d="M160.6082,-168.2549C173.0456,-159.4775 191.2092,-145.8593 205.2691,-132 220.5507,-116.9365 235.6421,-97.5851 245.7888,-83.7378"/>
<polygon fill="#191970" stroke="#191970" points="248.6931,-85.694 251.6949,-75.5333 243.012,-81.6044 248.6931,-85.694"/>
</g>
<!-- Node12 -->
<g id="node13" class="node">
<title>Node12</title>
<g id="a_node13"><a xlink:href="compiler__hints_8h.html" target="_top" xlink:title="Common macros and compiler attributes/pragmas configuration. ">
<polygon fill="#ffffff" stroke="#000000" points="69.7691,-112.5 69.7691,-131.5 162.7691,-131.5 162.7691,-112.5 69.7691,-112.5"/>
<text text-anchor="middle" x="116.2691" y="-119.5" font-family="Helvetica,sans-Serif" font-size="10.00" fill="#000000">compiler_hints.h</text>
</a>
</g>
</g>
<!-- Node9&#45;&gt;Node12 -->
<g id="edge16" class="edge">
<title>Node9&#45;&gt;Node12</title>
<path fill="none" stroke="#191970" d="M141.0435,-168.2455C136.9568,-160.617 131.1556,-149.7881 126.1941,-140.5267"/>
<polygon fill="#191970" stroke="#191970" points="129.2423,-138.8047 121.4348,-131.6427 123.0719,-142.1103 129.2423,-138.8047"/>
</g>
<!-- Node14 -->
<g id="node15" class="node">
<title>Node14</title>
<g id="a_node15"><a xlink:href="container_8h.html" target="_top" xlink:title="Common macros and compiler attributes/pragmas configuration. ">
<polygon fill="#ffffff" stroke="#000000" points="266.7691,-112.5 266.7691,-131.5 335.7691,-131.5 335.7691,-112.5 266.7691,-112.5"/>
<text text-anchor="middle" x="301.2691" y="-119.5" font-family="Helvetica,sans-Serif" font-size="10.00" fill="#000000">container.h</text>
</a>
</g>
</g>
<!-- Node9&#45;&gt;Node14 -->
<g id="edge20" class="edge">
<title>Node9&#45;&gt;Node14</title>
<path fill="none" stroke="#191970" d="M172.9146,-168.3733C198.4655,-159.1419 237.2203,-145.1402 265.46,-134.9375"/>
<polygon fill="#191970" stroke="#191970" points="266.7556,-138.1909 274.9714,-131.5011 264.377,-131.6074 266.7556,-138.1909"/>
</g>
<!-- Node11&#45;&gt;Node1 -->
<g id="edge15" class="edge">
<title>Node11&#45;&gt;Node1</title>
<path fill="none" stroke="#191970" d="M299.0172,-57.8794C303.8063,-57.1364 308.6357,-56.483 313.2691,-56 641.5749,-21.7782 1715.1553,-11.8973 1926.8357,-10.2619"/>
<polygon fill="#191970" stroke="#191970" points="1927.114,-13.7599 1937.0871,-10.1839 1927.0607,-6.7601 1927.114,-13.7599"/>
</g>
<!-- Node12&#45;&gt;Node1 -->
<g id="edge19" class="edge">
<title>Node12&#45;&gt;Node1</title>
<path fill="none" stroke="#191970" d="M121.5549,-112.0936C130.354,-96.7779 149.6059,-67.8795 175.2691,-56 257.6141,-17.8824 1680.5836,-11.0219 1927.0409,-10.118"/>
<polygon fill="#191970" stroke="#191970" points="1927.2569,-13.6174 1937.2443,-10.0816 1927.2318,-6.6174 1927.2569,-13.6174"/>
</g>
<!-- Node13 -->
<g id="node14" class="node">
<title>Node13</title>
<g id="a_node14"><a xlink:href="assert_8h.html" target="_top" xlink:title="POSIX.1&#45;2008 compliant version of the assert macro. ">
<polygon fill="#ffffff" stroke="#000000" points="69.2691,-56.5 69.2691,-75.5 123.2691,-75.5 123.2691,-56.5 69.2691,-56.5"/>
<text text-anchor="middle" x="96.2691" y="-63.5" font-family="Helvetica,sans-Serif" font-size="10.00" fill="#000000">assert.h</text>
</a>
</g>
</g>
<!-- Node12&#45;&gt;Node13 -->
<g id="edge17" class="edge">
<title>Node12&#45;&gt;Node13</title>
<path fill="none" stroke="#191970" d="M112.7854,-112.2455C110.1183,-104.7776 106.3558,-94.2427 103.0954,-85.1137"/>
<polygon fill="#191970" stroke="#191970" points="106.3724,-83.8829 99.7129,-75.6427 99.7802,-86.2373 106.3724,-83.8829"/>
</g>
<!-- Node13&#45;&gt;Node1 -->
<g id="edge18" class="edge">
<title>Node13&#45;&gt;Node1</title>
<path fill="none" stroke="#191970" d="M123.4616,-58.5072C128.0395,-57.4941 132.7662,-56.5988 137.2691,-56 320.507,-31.6322 1684.7475,-13.493 1926.6533,-10.451"/>
<polygon fill="#191970" stroke="#191970" points="1927.0481,-13.9464 1937.0034,-10.3215 1926.9604,-6.947 1927.0481,-13.9464"/>
</g>
<!-- Node14&#45;&gt;Node1 -->
<g id="edge22" class="edge">
<title>Node14&#45;&gt;Node1</title>
<path fill="none" stroke="#191970" d="M305.3291,-112.1479C312.2112,-96.9067 327.753,-68.1084 351.2691,-56 423.5903,-18.7618 1693.4768,-11.2233 1926.6467,-10.151"/>
<polygon fill="#191970" stroke="#191970" points="1926.9733,-13.6496 1936.9575,-10.1047 1926.9418,-6.6497 1926.9733,-13.6496"/>
</g>
<!-- Node14&#45;&gt;Node5 -->
<g id="edge21" class="edge">
<title>Node14&#45;&gt;Node5</title>
<path fill="none" stroke="#191970" d="M335.9014,-118.4545C433.2072,-108.4926 708.5669,-80.3022 810.0752,-69.9102"/>
<polygon fill="#191970" stroke="#191970" points="810.5918,-73.3757 820.1833,-68.8753 809.8788,-66.4121 810.5918,-73.3757"/>
</g>
<!-- Node16&#45;&gt;Node5 -->
<g id="edge26" class="edge">
<title>Node16&#45;&gt;Node5</title>
<path fill="none" stroke="#191970" d="M457.3109,-168.425C465.6965,-153.5636 484.015,-125.2762 508.2691,-112 559.5442,-83.933 732.045,-71.8642 809.7514,-67.7602"/>
<polygon fill="#191970" stroke="#191970" points="810.2562,-71.2391 820.0645,-67.2332 809.8988,-64.2482 810.2562,-71.2391"/>
</g>
<!-- Node16&#45;&gt;Node6 -->
<g id="edge25" class="edge">
<title>Node16&#45;&gt;Node6</title>
<path fill="none" stroke="#191970" d="M474.1703,-175.6644C495.9717,-173.412 530.3994,-170.0512 560.2691,-168 913.3705,-143.7514 1008.1692,-183.8879 1362.1483,-131.8599"/>
<polygon fill="#191970" stroke="#191970" points="1362.7833,-135.3041 1372.1611,-130.3739 1361.7556,-128.3799 1362.7833,-135.3041"/>
</g>
<!-- Node17 -->
<g id="node18" class="node">
<title>Node17</title>
<g id="a_node18"><a xlink:href="list_8h.html" target="_top" xlink:title="Intrusive linked list. ">
<polygon fill="#ffffff" stroke="#000000" points="517.2691,-112.5 517.2691,-131.5 555.2691,-131.5 555.2691,-112.5 517.2691,-112.5"/>
<text text-anchor="middle" x="536.2691" y="-119.5" font-family="Helvetica,sans-Serif" font-size="10.00" fill="#000000">list.h</text>
</a>
</g>
</g>
<!-- Node16&#45;&gt;Node17 -->
<g id="edge27" class="edge">
<title>Node16&#45;&gt;Node17</title>
<path fill="none" stroke="#191970" d="M466.9008,-168.2455C479.6685,-159.7337 498.4129,-147.2375 513.199,-137.3801"/>
<polygon fill="#191970" stroke="#191970" points="515.426,-140.1019 521.8051,-131.6427 511.5431,-134.2775 515.426,-140.1019"/>
</g>
<!-- Node20&#45;&gt;Node6 -->
<g id="edge31" class="edge">
<title>Node20&#45;&gt;Node6</title>
<path fill="none" stroke="#191970" d="M2118.3686,-228.9089C2103.3961,-227.2674 2086.6207,-225.4889 2071.2691,-224 1883.9115,-205.8284 1834.4071,-222.0149 1649.2691,-188 1617.4457,-182.1532 1610.4848,-176.5143 1579.2691,-168 1532.4324,-155.2249 1478.4002,-141.2999 1442.4773,-132.1563"/>
<polygon fill="#191970" stroke="#191970" points="1442.9469,-128.6645 1432.393,-129.594 1441.2231,-135.4489 1442.9469,-128.6645"/>
</g>
<!-- Node21 -->
<g id="node22" class="node">
<title>Node21</title>
<polygon fill="#ffffff" stroke="#bfbfbf" points="2394.7691,-56.5 2394.7691,-75.5 2447.7691,-75.5 2447.7691,-56.5 2394.7691,-56.5"/>
<text text-anchor="middle" x="2421.2691" y="-63.5" font-family="Helvetica,sans-Serif" font-size="10.00" fill="#000000">string.h</text>
</g>
<!-- Node20&#45;&gt;Node21 -->
<g id="edge32" class="edge">
<title>Node20&#45;&gt;Node21</title>
<path fill="none" stroke="#191970" d="M2207.8188,-228.1245C2284.2175,-217.8373 2432.7927,-196.8203 2440.2691,-188 2453.1016,-172.8607 2437.4299,-115.7942 2427.7751,-85.3741"/>
<polygon fill="#191970" stroke="#191970" points="2431.0937,-84.2613 2424.6676,-75.8377 2424.4381,-86.4301 2431.0937,-84.2613"/>
</g>
<!-- Node22 -->
<g id="node23" class="node">
<title>Node22</title>
<g id="a_node23"><a xlink:href="byteorder_8h.html" target="_top" xlink:title="Functions to work with different byte orders. ">
<polygon fill="#ffffff" stroke="#000000" points="2093.7691,-112.5 2093.7691,-131.5 2166.7691,-131.5 2166.7691,-112.5 2093.7691,-112.5"/>
<text text-anchor="middle" x="2130.2691" y="-119.5" font-family="Helvetica,sans-Serif" font-size="10.00" fill="#000000">byteorder.h</text>
</a>
</g>
</g>
<!-- Node20&#45;&gt;Node22 -->
<g id="edge33" class="edge">
<title>Node20&#45;&gt;Node22</title>
<path fill="none" stroke="#191970" d="M2160.4555,-224.4509C2155.0489,-206.1013 2143.1128,-165.5908 2135.9761,-141.3693"/>
<polygon fill="#191970" stroke="#191970" points="2139.2592,-140.128 2133.0755,-131.5249 2132.5446,-142.1064 2139.2592,-140.128"/>
</g>
<!-- Node25 -->
<g id="node26" class="node">
<title>Node25</title>
<g id="a_node26"><a xlink:href="ipv4_2addr_8h.html" target="_top" xlink:title="IPv4 address type and helper functions definitions. ">
<polygon fill="#ffffff" stroke="#000000" points="1898.7691,-168.5 1898.7691,-187.5 1987.7691,-187.5 1987.7691,-168.5 1898.7691,-168.5"/>
<text text-anchor="middle" x="1943.2691" y="-175.5" font-family="Helvetica,sans-Serif" font-size="10.00" fill="#000000">net/ipv4/addr.h</text>
</a>
</g>
</g>
<!-- Node20&#45;&gt;Node25 -->
<g id="edge40" class="edge">
<title>Node20&#45;&gt;Node25</title>
<path fill="none" stroke="#191970" d="M2125.4498,-224.3733C2088.0753,-214.8598 2030.7967,-200.2797 1990.462,-190.0127"/>
<polygon fill="#191970" stroke="#191970" points="1991.1493,-186.5761 1980.5949,-187.5011 1989.4225,-193.3598 1991.1493,-186.5761"/>
</g>
<!-- Node22&#45;&gt;Node1 -->
<g id="edge35" class="edge">
<title>Node22&#45;&gt;Node1</title>
<path fill="none" stroke="#191970" d="M2131.6008,-112.1427C2132.9364,-97.9253 2133.1287,-71.6563 2119.2691,-56 2103.4387,-38.1174 2040.4119,-23.7823 1999.4755,-16.1149"/>
<polygon fill="#191970" stroke="#191970" points="2000.0518,-12.6623 1989.586,-14.3111 1998.7957,-19.5487 2000.0518,-12.6623"/>
</g>
<!-- Node22&#45;&gt;Node21 -->
<g id="edge34" class="edge">
<title>Node22&#45;&gt;Node21</title>
<path fill="none" stroke="#191970" d="M2166.8298,-114.9643C2222.7312,-104.2066 2328.8319,-83.7886 2384.7239,-73.0327"/>
<polygon fill="#191970" stroke="#191970" points="2385.3941,-76.4681 2394.5525,-71.1413 2384.0712,-69.5942 2385.3941,-76.4681"/>
</g>
<!-- Node23 -->
<g id="node24" class="node">
<title>Node23</title>
<g id="a_node24"><a xlink:href="endian_8h.html" target="_top" xlink:title="libc header for endian conversion ">
<polygon fill="#ffffff" stroke="#000000" points="1963.7691,-56.5 1963.7691,-75.5 2020.7691,-75.5 2020.7691,-56.5 1963.7691,-56.5"/>
<text text-anchor="middle" x="1992.2691" y="-63.5" font-family="Helvetica,sans-Serif" font-size="10.00" fill="#000000">endian.h</text>
</a>
</g>
</g>
<!-- Node22&#45;&gt;Node23 -->
<g id="edge36" class="edge">
<title>Node22&#45;&gt;Node23</title>
<path fill="none" stroke="#191970" d="M2106.5461,-112.3733C2084.0954,-103.2629 2050.1952,-89.5062 2025.1436,-79.3404"/>
<polygon fill="#191970" stroke="#191970" points="2026.2648,-76.0182 2015.6826,-75.5011 2023.6326,-82.5045 2026.2648,-76.0182"/>
</g>
<!-- Node24 -->
<g id="node25" class="node">
<title>Node24</title>
<g id="a_node25"><a xlink:href="unaligned_8h.html" target="_top" xlink:title="Unaligned but safe memory access functions. ">
<polygon fill="#ffffff" stroke="#000000" points="2038.7691,-56.5 2038.7691,-75.5 2109.7691,-75.5 2109.7691,-56.5 2038.7691,-56.5"/>
<text text-anchor="middle" x="2074.2691" y="-63.5" font-family="Helvetica,sans-Serif" font-size="10.00" fill="#000000">unaligned.h</text>
</a>
</g>
</g>
<!-- Node22&#45;&gt;Node24 -->
<g id="edge38" class="edge">
<title>Node22&#45;&gt;Node24</title>
<path fill="none" stroke="#191970" d="M2120.5146,-112.2455C2112.4043,-104.1352 2100.6766,-92.4075 2091.061,-82.7919"/>
<polygon fill="#191970" stroke="#191970" points="2093.4578,-80.2389 2083.9118,-75.6427 2088.508,-85.1887 2093.4578,-80.2389"/>
</g>
<!-- Node23&#45;&gt;Node1 -->
<g id="edge37" class="edge">
<title>Node23&#45;&gt;Node1</title>
<path fill="none" stroke="#191970" d="M1987.2177,-56.2455C1983.2672,-48.617 1977.6594,-37.7881 1972.8633,-28.5267"/>
<polygon fill="#191970" stroke="#191970" points="1975.9692,-26.9131 1968.2626,-19.6427 1969.7532,-30.1321 1975.9692,-26.9131"/>
</g>
<!-- Node24&#45;&gt;Node1 -->
<g id="edge39" class="edge">
<title>Node24&#45;&gt;Node1</title>
<path fill="none" stroke="#191970" d="M2055.1875,-56.3733C2037.5289,-47.4644 2011.0638,-34.1127 1991.0593,-24.0203"/>
<polygon fill="#191970" stroke="#191970" points="1992.6063,-20.8806 1982.1017,-19.5011 1989.4533,-27.1303 1992.6063,-20.8806"/>
</g>
<!-- Node25&#45;&gt;Node1 -->
<g id="edge42" class="edge">
<title>Node25&#45;&gt;Node1</title>
<path fill="none" stroke="#191970" d="M1943.9638,-168.4807C1945.5184,-147.9017 1949.5926,-97.7558 1955.2691,-56 1956.4402,-47.3856 1958.0342,-37.9154 1959.4911,-29.8185"/>
<polygon fill="#191970" stroke="#191970" points="1962.9599,-30.308 1961.3404,-19.8377 1956.0771,-29.0327 1962.9599,-30.308"/>
</g>
<!-- Node25&#45;&gt;Node5 -->
<g id="edge43" class="edge">
<title>Node25&#45;&gt;Node5</title>
<path fill="none" stroke="#191970" d="M1910.9827,-168.3998C1859.382,-153.5038 1754.902,-125.17 1664.2691,-112 1511.1664,-89.7525 1026.7958,-72.0289 886.62,-67.2651"/>
<polygon fill="#191970" stroke="#191970" points="886.4896,-63.7588 876.3771,-66.9193 886.2533,-70.7548 886.4896,-63.7588"/>
</g>
<!-- Node25&#45;&gt;Node6 -->
<g id="edge41" class="edge">
<title>Node25&#45;&gt;Node6</title>
<path fill="none" stroke="#191970" d="M1898.3532,-173.0617C1883.3796,-171.4304 1866.6075,-169.6193 1851.2691,-168 1700.4352,-152.0762 1521.0078,-133.9351 1442.4535,-126.0328"/>
<polygon fill="#191970" stroke="#191970" points="1442.7945,-122.5496 1432.4944,-125.0315 1442.0941,-129.5145 1442.7945,-122.5496"/>
</g>
<!-- Node25&#45;&gt;Node22 -->
<g id="edge44" class="edge">
<title>Node25&#45;&gt;Node22</title>
<path fill="none" stroke="#191970" d="M1975.4155,-168.3733C2006.78,-158.9807 2054.6356,-144.6496 2088.8407,-134.4064"/>
<polygon fill="#191970" stroke="#191970" points="2089.9666,-137.7229 2098.5421,-131.5011 2087.9584,-131.0171 2089.9666,-137.7229"/>
</g>
<!-- Node27 -->
<g id="node28" class="node">
<title>Node27</title>
<polygon fill="#ffffff" stroke="#bfbfbf" points="1522.7691,-224.5 1522.7691,-243.5 1579.7691,-243.5 1579.7691,-224.5 1522.7691,-224.5"/>
<text text-anchor="middle" x="1551.2691" y="-231.5" font-family="Helvetica,sans-Serif" font-size="10.00" fill="#000000">thread.h</text>
</g>
<!-- Node26&#45;&gt;Node27 -->
<g id="edge46" class="edge">
<title>Node26&#45;&gt;Node27</title>
<path fill="none" stroke="#191970" d="M1126.8323,-342.4514C1183.3086,-337.3506 1277.8081,-325.5767 1355.2691,-300 1373.7665,-293.8924 1376.175,-287.2152 1394.2691,-280 1405.3823,-275.5686 1469.8777,-257.0436 1512.6718,-244.8968"/>
<polygon fill="#191970" stroke="#191970" points="1513.8405,-248.2035 1522.5069,-242.1089 1511.9314,-241.4688 1513.8405,-248.2035"/>
</g>
<!-- Node26&#45;&gt;Node28 -->
<g id="edge47" class="edge">
<title>Node26&#45;&gt;Node28</title>
<path fill="none" stroke="#191970" d="M1090.3991,-336.4509C1116.9936,-317.1094 1177.4426,-273.1465 1209.8323,-249.5904"/>
<polygon fill="#191970" stroke="#191970" points="1212.1436,-252.2372 1218.1724,-243.5249 1208.0264,-246.5761 1212.1436,-252.2372"/>
</g>
<!-- Node29 -->
<g id="node30" class="node">
<title>Node29</title>
<g id="a_node30"><a xlink:href="nettype_8h.html" target="_top" xlink:title="Protocol type definitions. ">
<polygon fill="#ffffff" stroke="#000000" points="990.7691,-224.5 990.7691,-243.5 1097.7691,-243.5 1097.7691,-224.5 990.7691,-224.5"/>
<text text-anchor="middle" x="1044.2691" y="-231.5" font-family="Helvetica,sans-Serif" font-size="10.00" fill="#000000">net/gnrc/nettype.h</text>
</a>
</g>
</g>
<!-- Node26&#45;&gt;Node29 -->
<g id="edge50" class="edge">
<title>Node26&#45;&gt;Node29</title>
<path fill="none" stroke="#191970" d="M1074.4555,-336.4509C1069.0489,-318.1013 1057.1128,-277.5908 1049.9761,-253.3693"/>
<polygon fill="#191970" stroke="#191970" points="1053.2592,-252.128 1047.0755,-243.5249 1046.5446,-254.1064 1053.2592,-252.128"/>
</g>
<!-- Node26&#45;&gt;Node32 -->
<g id="edge55" class="edge">
<title>Node26&#45;&gt;Node32</title>
<path fill="none" stroke="#191970" d="M1063.6825,-336.2455C1051.9386,-327.814 1034.7492,-315.4729 1021.0809,-305.6598"/>
<polygon fill="#191970" stroke="#191970" points="1022.8645,-302.6316 1012.7,-299.6427 1018.782,-308.3179 1022.8645,-302.6316"/>
</g>
<!-- Node28&#45;&gt;Node1 -->
<g id="edge48" class="edge">
<title>Node28&#45;&gt;Node1</title>
<path fill="none" stroke="#191970" d="M1269.8822,-224.7492C1312.5442,-214.3279 1378.3772,-197.5965 1402.2691,-188 1515.5945,-142.4816 1527.4179,-94.6403 1643.2691,-56 1742.4683,-22.9137 1866.7714,-13.622 1927.0946,-11.015"/>
<polygon fill="#191970" stroke="#191970" points="1927.3949,-14.506 1937.249,-10.614 1927.1187,-7.5114 1927.3949,-14.506"/>
</g>
<!-- Node28&#45;&gt;Node6 -->
<g id="edge49" class="edge">
<title>Node28&#45;&gt;Node6</title>
<path fill="none" stroke="#191970" d="M1269.5438,-224.4495C1311.8421,-213.5806 1375.1125,-196.268 1383.2691,-188 1395.2804,-175.8246 1399.7967,-156.573 1401.446,-141.9972"/>
<polygon fill="#191970" stroke="#191970" points="1404.9408,-142.1979 1402.2251,-131.9571 1397.9618,-141.6563 1404.9408,-142.1979"/>
</g>
<!-- Node29&#45;&gt;Node8 -->
<g id="edge51" class="edge">
<title>Node29&#45;&gt;Node8</title>
<path fill="none" stroke="#191970" d="M1033.8179,-224.2455C1025.0422,-216.0549 1012.3137,-204.1749 1001.9551,-194.5069"/>
<polygon fill="#191970" stroke="#191970" points="1004.2992,-191.9072 994.6005,-187.6427 999.523,-197.0246 1004.2992,-191.9072"/>
</g>
<!-- Node29&#45;&gt;Node10 -->
<g id="edge52" class="edge">
<title>Node29&#45;&gt;Node10</title>
<path fill="none" stroke="#191970" d="M1096.3415,-224.4229C1145.2199,-214.9481 1214.4259,-200.1445 1239.2691,-188 1264.7142,-175.5612 1289.4045,-153.9933 1304.9278,-138.909"/>
<polygon fill="#191970" stroke="#191970" points="1307.5539,-141.2332 1312.1654,-131.6945 1302.6121,-136.2755 1307.5539,-141.2332"/>
</g>
<!-- Node30 -->
<g id="node31" class="node">
<title>Node30</title>
<g id="a_node31"><a xlink:href="ethertype_8h.html" target="_top" xlink:title="Ether type definitions. ">
<polygon fill="#ffffff" stroke="#000000" points="1034.2691,-168.5 1034.2691,-187.5 1126.2691,-187.5 1126.2691,-168.5 1034.2691,-168.5"/>
<text text-anchor="middle" x="1080.2691" y="-175.5" font-family="Helvetica,sans-Serif" font-size="10.00" fill="#000000">net/ethertype.h</text>
</a>
</g>
</g>
<!-- Node29&#45;&gt;Node30 -->
<g id="edge53" class="edge">
<title>Node29&#45;&gt;Node30</title>
<path fill="none" stroke="#191970" d="M1050.5398,-224.2455C1055.4955,-216.5367 1062.5521,-205.5598 1068.5467,-196.2348"/>
<polygon fill="#191970" stroke="#191970" points="1071.6067,-197.9471 1074.0702,-187.6427 1065.7185,-194.1618 1071.6067,-197.9471"/>
</g>
<!-- Node31 -->
<g id="node32" class="node">
<title>Node31</title>
<g id="a_node32"><a xlink:href="protnum_8h.html" target="_top" xlink:title="Protocol number definitions. ">
<polygon fill="#ffffff" stroke="#000000" points="1144.2691,-168.5 1144.2691,-187.5 1230.2691,-187.5 1230.2691,-168.5 1144.2691,-168.5"/>
<text text-anchor="middle" x="1187.2691" y="-175.5" font-family="Helvetica,sans-Serif" font-size="10.00" fill="#000000">net/protnum.h</text>
</a>
</g>
</g>
<!-- Node29&#45;&gt;Node31 -->
<g id="edge54" class="edge">
<title>Node29&#45;&gt;Node31</title>
<path fill="none" stroke="#191970" d="M1068.8517,-224.3733C1092.2187,-215.2226 1127.5553,-201.3844 1153.5475,-191.2057"/>
<polygon fill="#191970" stroke="#191970" points="1154.9721,-194.4066 1163.0073,-187.5011 1152.4196,-187.8886 1154.9721,-194.4066"/>
</g>
<!-- Node32&#45;&gt;Node7 -->
<g id="edge58" class="edge">
<title>Node32&#45;&gt;Node7</title>
<path fill="none" stroke="#191970" d="M956.6535,-288.4109C859.5152,-284.4082 614.3737,-272.1526 411.2691,-244 406.978,-243.4052 402.5003,-242.6724 398.0642,-241.876"/>
<polygon fill="#191970" stroke="#191970" points="398.3746,-238.3723 387.8961,-239.9377 397.0638,-245.2484 398.3746,-238.3723"/>
</g>
<!-- Node32&#45;&gt;Node8 -->
<g id="edge56" class="edge">
<title>Node32&#45;&gt;Node8</title>
<path fill="none" stroke="#191970" d="M994.5842,-280.4115C990.4089,-271.2959 984.6077,-257.0744 982.2691,-244 979.5527,-228.8135 980.245,-211.3545 981.5128,-198.2091"/>
<polygon fill="#191970" stroke="#191970" points="985.0292,-198.2696 982.7039,-187.9331 978.0757,-197.4636 985.0292,-198.2696"/>
</g>
<!-- Node32&#45;&gt;Node17 -->
<g id="edge60" class="edge">
<title>Node32&#45;&gt;Node17</title>
<path fill="none" stroke="#191970" d="M956.5049,-287.9562C854.9237,-282.7365 605.4285,-267.6355 576.2691,-244 545.2221,-218.8346 538.0432,-169.0751 536.5285,-141.5163"/>
<polygon fill="#191970" stroke="#191970" points="540.0261,-141.3831 536.1774,-131.512 533.0304,-141.6287 540.0261,-141.3831"/>
</g>
<!-- Node32&#45;&gt;Node29 -->
<g id="edge59" class="edge">
<title>Node32&#45;&gt;Node29</title>
<path fill="none" stroke="#191970" d="M1007.1075,-280.2455C1013.4311,-272.3761 1022.4915,-261.101 1030.0827,-251.6542"/>
<polygon fill="#191970" stroke="#191970" points="1032.9849,-253.6302 1036.5205,-243.6427 1027.5283,-249.2454 1032.9849,-253.6302"/>
</g>
<!-- Node33 -->
<g id="node34" class="node">
<title>Node33</title>
<polygon fill="#ffffff" stroke="#bfbfbf" points="1324.2691,-168.5 1324.2691,-187.5 1374.2691,-187.5 1374.2691,-168.5 1324.2691,-168.5"/>
<text text-anchor="middle" x="1349.2691" y="-175.5" font-family="Helvetica,sans-Serif" font-size="10.00" fill="#000000">stdlib.h</text>
</g>
<!-- Node32&#45;&gt;Node33 -->
<g id="edge57" class="edge">
<title>Node32&#45;&gt;Node33</title>
<path fill="none" stroke="#191970" d="M1024.2135,-280.4657C1059.573,-267.0963 1126.4129,-242.3597 1184.2691,-224 1228.8376,-209.8569 1280.9026,-195.7342 1314.4426,-186.9421"/>
<polygon fill="#191970" stroke="#191970" points="1315.4347,-190.3005 1324.228,-184.3905 1313.6685,-183.527 1315.4347,-190.3005"/>
</g>
<!-- Node34&#45;&gt;Node10 -->
<g id="edge63" class="edge">
<title>Node34&#45;&gt;Node10</title>
<path fill="none" stroke="#191970" d="M1602.5393,-336.2433C1607.1443,-313.8476 1615.0879,-258.0672 1589.2691,-224 1561.311,-187.11 1432.564,-149.994 1364.2024,-132.4447"/>
<polygon fill="#191970" stroke="#191970" points="1364.7273,-128.9671 1354.1736,-129.8994 1363.0053,-135.752 1364.7273,-128.9671"/>
</g>
<!-- Node34&#45;&gt;Node27 -->
<g id="edge83" class="edge">
<title>Node34&#45;&gt;Node27</title>
<path fill="none" stroke="#191970" d="M1597.2851,-336.4242C1593.1219,-323.4232 1585.0836,-299.5647 1576.2691,-280 1572.0828,-270.7081 1566.7677,-260.7313 1562.1158,-252.4521"/>
<polygon fill="#191970" stroke="#191970" points="1565.0804,-250.5861 1557.0667,-243.6556 1559.0094,-254.0708 1565.0804,-250.5861"/>
</g>
<!-- Node35 -->
<g id="node36" class="node">
<title>Node35</title>
<g id="a_node36"><a xlink:href="client_8h.html" target="_top" xlink:title="DHCPv6 client definitions. ">
<polygon fill="#ffffff" stroke="#000000" points="1741.7691,-280.5 1741.7691,-299.5 1848.7691,-299.5 1848.7691,-280.5 1741.7691,-280.5"/>
<text text-anchor="middle" x="1795.2691" y="-287.5" font-family="Helvetica,sans-Serif" font-size="10.00" fill="#000000">net/dhcpv6/client.h</text>
</a>
</g>
</g>
<!-- Node34&#45;&gt;Node35 -->
<g id="edge64" class="edge">
<title>Node34&#45;&gt;Node35</title>
<path fill="none" stroke="#191970" d="M1633.7908,-336.3733C1666.6374,-326.9404 1716.8286,-312.5265 1752.5269,-302.2747"/>
<polygon fill="#191970" stroke="#191970" points="1753.5394,-305.6255 1762.1848,-299.5011 1751.6072,-298.8974 1753.5394,-305.6255"/>
</g>
<!-- Node36 -->
<g id="node37" class="node">
<title>Node36</title>
<g id="a_node37"><a xlink:href="sys_2include_2net_2ieee802154_8h.html" target="_top" xlink:title="IEEE 802.15.4 header definitions. ">
<polygon fill="#ffffff" stroke="#000000" points="1960.7691,-224.5 1960.7691,-243.5 2061.7691,-243.5 2061.7691,-224.5 1960.7691,-224.5"/>
<text text-anchor="middle" x="2011.2691" y="-231.5" font-family="Helvetica,sans-Serif" font-size="10.00" fill="#000000">net/ieee802154.h</text>
</a>
</g>
</g>
<!-- Node34&#45;&gt;Node36 -->
<g id="edge69" class="edge">
<title>Node34&#45;&gt;Node36</title>
<path fill="none" stroke="#191970" d="M1658.2888,-339.5458C1711.1722,-332.752 1791.0561,-320.1926 1858.2691,-300 1903.7685,-286.3308 1953.8561,-263.0381 1983.9206,-248.0945"/>
<polygon fill="#191970" stroke="#191970" points="1985.5831,-251.1761 1992.947,-243.5588 1982.4402,-244.9214 1985.5831,-251.1761"/>
</g>
<!-- Node39 -->
<g id="node40" class="node">
<title>Node39</title>
<g id="a_node40"><a xlink:href="net_2ethernet_2hdr_8h.html" target="_top" xlink:title="Ethernet header definitions. ">
<polygon fill="#ffffff" stroke="#000000" points="1397.7691,-224.5 1397.7691,-243.5 1504.7691,-243.5 1504.7691,-224.5 1397.7691,-224.5"/>
<text text-anchor="middle" x="1451.2691" y="-231.5" font-family="Helvetica,sans-Serif" font-size="10.00" fill="#000000">net/ethernet/hdr.h</text>
</a>
</g>
</g>
<!-- Node34&#45;&gt;Node39 -->
<g id="edge78" class="edge">
<title>Node34&#45;&gt;Node39</title>
<path fill="none" stroke="#191970" d="M1593.8686,-336.4269C1584.2215,-322.5635 1564.7806,-296.7312 1543.2691,-280 1526.1426,-266.6794 1504.5496,-255.6413 1486.5875,-247.7196"/>
<polygon fill="#191970" stroke="#191970" points="1487.6049,-244.3485 1477.0335,-243.6446 1484.8586,-250.7873 1487.6049,-244.3485"/>
</g>
<!-- Node40 -->
<g id="node41" class="node">
<title>Node40</title>
<g id="a_node41"><a xlink:href="ipv6_2nib_2conf_8h.html" target="_top" xlink:title="Configuration macro definitions for neighbor information base. ">
<polygon fill="#ffffff" stroke="#000000" points="1402.7691,-280.5 1402.7691,-299.5 1533.7691,-299.5 1533.7691,-280.5 1402.7691,-280.5"/>
<text text-anchor="middle" x="1468.2691" y="-287.5" font-family="Helvetica,sans-Serif" font-size="10.00" fill="#000000">net/gnrc/ipv6/nib/conf.h</text>
</a>
</g>
</g>
<!-- Node34&#45;&gt;Node40 -->
<g id="edge81" class="edge">
<title>Node34&#45;&gt;Node40</title>
<path fill="none" stroke="#191970" d="M1577.5775,-336.3733C1556.198,-327.3032 1523.9634,-313.6279 1500.0329,-303.4755"/>
<polygon fill="#191970" stroke="#191970" points="1501.2374,-300.1846 1490.6646,-299.5011 1498.5035,-306.6287 1501.2374,-300.1846"/>
</g>
<!-- Node35&#45;&gt;Node19 -->
<g id="edge66" class="edge">
<title>Node35&#45;&gt;Node19</title>
<path fill="none" stroke="#191970" d="M1809.5524,-280.2455C1822.0162,-271.7337 1840.3142,-259.2375 1854.7483,-249.3801"/>
<polygon fill="#191970" stroke="#191970" points="1856.8653,-252.1726 1863.1495,-243.6427 1852.9176,-246.392 1856.8653,-252.1726"/>
</g>
<!-- Node35&#45;&gt;Node20 -->
<g id="edge67" class="edge">
<title>Node35&#45;&gt;Node20</title>
<path fill="none" stroke="#191970" d="M1848.9088,-282.3487C1910.5778,-273.4746 2014.8192,-258.2371 2104.2691,-244 2105.5676,-243.7933 2106.882,-243.5826 2108.2074,-243.3688"/>
<polygon fill="#191970" stroke="#191970" points="2109.203,-246.7526 2118.5068,-241.684 2108.0729,-239.8444 2109.203,-246.7526"/>
</g>
<!-- Node35&#45;&gt;Node22 -->
<g id="edge65" class="edge">
<title>Node35&#45;&gt;Node22</title>
<path fill="none" stroke="#191970" d="M1848.9593,-286.8595C1919.0955,-281.7912 2037.0026,-269.6596 2071.2691,-244 2104.8696,-218.8391 2120.2929,-169.4903 2126.5552,-141.8904"/>
<polygon fill="#191970" stroke="#191970" points="2130.0356,-142.3444 2128.6455,-131.8412 2123.1823,-140.9188 2130.0356,-142.3444"/>
</g>
<!-- Node35&#45;&gt;Node27 -->
<g id="edge68" class="edge">
<title>Node35&#45;&gt;Node27</title>
<path fill="none" stroke="#191970" d="M1753.6012,-280.4369C1707.6369,-269.8877 1634.2864,-253.0532 1589.6709,-242.8135"/>
<polygon fill="#191970" stroke="#191970" points="1590.3241,-239.3725 1579.7946,-240.5468 1588.7582,-246.1951 1590.3241,-239.3725"/>
</g>
<!-- Node36&#45;&gt;Node1 -->
<g id="edge70" class="edge">
<title>Node36&#45;&gt;Node1</title>
<path fill="none" stroke="#191970" d="M1972.6978,-224.4404C1941.0741,-215.7303 1899.998,-202.1067 1890.2691,-188 1853.5585,-134.7699 1914.1179,-60.2536 1945.8252,-27.0865"/>
<polygon fill="#191970" stroke="#191970" points="1948.6821,-29.1722 1953.1879,-19.5832 1943.6858,-24.2695 1948.6821,-29.1722"/>
</g>
<!-- Node36&#45;&gt;Node10 -->
<g id="edge73" class="edge">
<title>Node36&#45;&gt;Node10</title>
<path fill="none" stroke="#191970" d="M1960.7378,-228.765C1869.6567,-219.2207 1681.3713,-198.9664 1616.2691,-188 1505.8084,-169.393 1477.0636,-158.395 1363.591,-132.0611"/>
<polygon fill="#191970" stroke="#191970" points="1364.3477,-128.6438 1353.8165,-129.8033 1362.7722,-135.4642 1364.3477,-128.6438"/>
</g>
<!-- Node36&#45;&gt;Node22 -->
<g id="edge72" class="edge">
<title>Node36&#45;&gt;Node22</title>
<path fill="none" stroke="#191970" d="M2020.6547,-224.4377C2033.4727,-211.4519 2057.2635,-187.6105 2078.2691,-168 2089.0068,-157.9754 2101.3062,-147.07 2111.2467,-138.3944"/>
<polygon fill="#191970" stroke="#191970" points="2113.7004,-140.8992 2118.9559,-131.6997 2109.1106,-135.614 2113.7004,-140.8992"/>
</g>
<!-- Node36&#45;&gt;Node33 -->
<g id="edge71" class="edge">
<title>Node36&#45;&gt;Node33</title>
<path fill="none" stroke="#191970" d="M1960.6769,-228.6394C1945.4447,-227.079 1928.6818,-225.4147 1913.2691,-224 1713.2649,-205.6414 1473.0139,-187.2684 1384.35,-180.6122"/>
<polygon fill="#191970" stroke="#191970" points="1384.5352,-177.1164 1374.3016,-179.8593 1384.0122,-184.0968 1384.5352,-177.1164"/>
</g>
<!-- Node37 -->
<g id="node38" class="node">
<title>Node37</title>
<g id="a_node38"><a xlink:href="eui64_8h.html" target="_top" xlink:title="EUI&#45;64 data type definition. ">
<polygon fill="#ffffff" stroke="#000000" points="2359.7691,-168.5 2359.7691,-187.5 2430.7691,-187.5 2430.7691,-168.5 2359.7691,-168.5"/>
<text text-anchor="middle" x="2395.2691" y="-175.5" font-family="Helvetica,sans-Serif" font-size="10.00" fill="#000000">net/eui64.h</text>
</a>
</g>
</g>
<!-- Node36&#45;&gt;Node37 -->
<g id="edge74" class="edge">
<title>Node36&#45;&gt;Node37</title>
<path fill="none" stroke="#191970" d="M2061.8944,-228.5761C2126.4983,-221.339 2241.8804,-207.3571 2349.2716,-188.2522"/>
<polygon fill="#191970" stroke="#191970" points="2350.0816,-191.6627 2359.3042,-186.448 2348.8426,-184.7733 2350.0816,-191.6627"/>
</g>
<!-- Node38 -->
<g id="node39" class="node">
<title>Node38</title>
<g id="a_node39"><a xlink:href="time__units_8h.html" target="_top" xlink:title="Utility header providing time unit defines. ">
<polygon fill="#ffffff" stroke="#000000" points="1768.2691,-168.5 1768.2691,-187.5 1842.2691,-187.5 1842.2691,-168.5 1768.2691,-168.5"/>
<text text-anchor="middle" x="1805.2691" y="-175.5" font-family="Helvetica,sans-Serif" font-size="10.00" fill="#000000">time_units.h</text>
</a>
</g>
</g>
<!-- Node36&#45;&gt;Node38 -->
<g id="edge77" class="edge">
<title>Node36&#45;&gt;Node38</title>
<path fill="none" stroke="#191970" d="M1975.8564,-224.3733C1941.0086,-214.9001 1887.6809,-200.4032 1849.9398,-190.1435"/>
<polygon fill="#191970" stroke="#191970" points="1850.7876,-186.747 1840.2197,-187.5011 1848.9513,-193.5019 1850.7876,-186.747"/>
</g>
<!-- Node37&#45;&gt;Node1 -->
<g id="edge75" class="edge">
<title>Node37&#45;&gt;Node1</title>
<path fill="none" stroke="#191970" d="M2380.72,-168.3998C2345.5377,-145.5989 2252.4614,-87.7317 2167.2691,-56 2110.3426,-34.7965 2040.6838,-21.6594 1999.2545,-15.1023"/>
<polygon fill="#191970" stroke="#191970" points="1999.7713,-11.6407 1989.3548,-13.5761 1998.7047,-18.559 1999.7713,-11.6407"/>
</g>
<!-- Node37&#45;&gt;Node22 -->
<g id="edge76" class="edge">
<title>Node37&#45;&gt;Node22</title>
<path fill="none" stroke="#191970" d="M2359.74,-169.8667C2356.8754,-169.2288 2354.0247,-168.5999 2351.2691,-168 2291.2298,-154.9301 2221.8367,-140.6151 2177.0677,-131.4827"/>
<polygon fill="#191970" stroke="#191970" points="2177.5676,-128.0127 2167.0701,-129.4459 2176.1702,-134.8718 2177.5676,-128.0127"/>
</g>
<!-- Node39&#45;&gt;Node8 -->
<g id="edge79" class="edge">
<title>Node39&#45;&gt;Node8</title>
<path fill="none" stroke="#191970" d="M1397.5456,-228.5991C1297.6617,-218.5027 1088.5365,-197.0881 1026.1346,-187.8052"/>
<polygon fill="#191970" stroke="#191970" points="1026.3955,-184.3022 1015.9662,-186.1678 1025.2826,-191.2132 1026.3955,-184.3022"/>
</g>
<!-- Node39&#45;&gt;Node22 -->
<g id="edge80" class="edge">
<title>Node39&#45;&gt;Node22</title>
<path fill="none" stroke="#191970" d="M1504.8436,-225.1861C1508.0291,-224.7584 1511.1891,-224.3586 1514.2691,-224 1728.0869,-199.1055 1789.6638,-244.9017 1997.2691,-188 2038.2301,-176.7732 2081.5589,-152.658 2107.2398,-136.8953"/>
<polygon fill="#191970" stroke="#191970" points="2109.2399,-139.7727 2115.8657,-131.5053 2105.5305,-133.8363 2109.2399,-139.7727"/>
</g>
<!-- Node40&#45;&gt;Node10 -->
<g id="edge82" class="edge">
<title>Node40&#45;&gt;Node10</title>
<path fill="none" stroke="#191970" d="M1438.0711,-280.3988C1420.7605,-273.2354 1400.3331,-261.6026 1389.2691,-244 1371.2381,-215.3132 1399.6806,-197.6431 1383.2691,-168 1376.0266,-154.9184 1363.3219,-144.5024 1351.2912,-136.9132"/>
<polygon fill="#191970" stroke="#191970" points="1352.7224,-133.6954 1342.3242,-131.6633 1349.1856,-139.7362 1352.7224,-133.6954"/>
</g>
<!-- Node42&#45;&gt;Node1 -->
<g id="edge86" class="edge">
<title>Node42&#45;&gt;Node1</title>
<path fill="none" stroke="#191970" d="M2415.5384,-342.0597C2501.4678,-331.2308 2719.2691,-297.5182 2719.2691,-234 2719.2691,-234 2719.2691,-234 2719.2691,-122 2719.2691,-91.4754 2724.0729,-75.1085 2700.2691,-56 2672.6856,-33.8574 2144.7747,-15.7012 1999.819,-11.1182"/>
<polygon fill="#191970" stroke="#191970" points="1999.7746,-7.6151 1989.6698,-10.7997 1999.5551,-14.6117 1999.7746,-7.6151"/>
</g>
<!-- Node42&#45;&gt;Node37 -->
<g id="edge87" class="edge">
<title>Node42&#45;&gt;Node37</title>
<path fill="none" stroke="#191970" d="M2382.0619,-336.4862C2384.275,-309.9293 2390.5553,-234.5651 2393.5886,-198.1655"/>
<polygon fill="#191970" stroke="#191970" points="2397.1075,-198.084 2394.4501,-187.8279 2390.1317,-197.5027 2397.1075,-198.084"/>
</g>
<!-- Node42&#45;&gt;Node43 -->
<g id="edge88" class="edge">
<title>Node42&#45;&gt;Node43</title>
<path fill="none" stroke="#191970" d="M2368.0309,-336.2455C2356.5881,-327.814 2339.8395,-315.4729 2326.5216,-305.6598"/>
<polygon fill="#191970" stroke="#191970" points="2328.4824,-302.757 2318.3556,-299.6427 2324.33,-308.3924 2328.4824,-302.757"/>
</g>
<!-- Node43&#45;&gt;Node1 -->
<g id="edge89" class="edge">
<title>Node43&#45;&gt;Node1</title>
<path fill="none" stroke="#191970" d="M2332.0765,-280.4726C2369.1853,-265.9973 2436.0556,-235.0719 2475.2691,-188 2512.8289,-142.9132 2524.1029,-92.6445 2478.2691,-56 2440.9974,-26.201 2110.3234,-14.1684 1999.3784,-10.9473"/>
<polygon fill="#191970" stroke="#191970" points="1999.4402,-7.4477 1989.345,-10.6628 1999.2417,-14.4449 1999.4402,-7.4477"/>
</g>
<!-- Node43&#45;&gt;Node20 -->
<g id="edge91" class="edge">
<title>Node43&#45;&gt;Node20</title>
<path fill="none" stroke="#191970" d="M2280.8584,-280.3733C2257.6549,-271.2226 2222.5653,-257.3844 2196.7549,-247.2057"/>
<polygon fill="#191970" stroke="#191970" points="2197.948,-243.9139 2187.3612,-243.5011 2195.3799,-250.4258 2197.948,-243.9139"/>
</g>
<!-- Node43&#45;&gt;Node22 -->
<g id="edge90" class="edge">
<title>Node43&#45;&gt;Node22</title>
<path fill="none" stroke="#191970" d="M2297.3191,-280.2531C2279.5983,-258.8003 2235.0422,-206.3554 2192.2691,-168 2179.9034,-156.9115 2164.9814,-145.7793 2152.8755,-137.2441"/>
<polygon fill="#191970" stroke="#191970" points="2154.8461,-134.3514 2144.635,-131.5258 2150.8553,-140.1024 2154.8461,-134.3514"/>
</g>
<!-- Node44&#45;&gt;Node1 -->
<g id="edge94" class="edge">
<title>Node44&#45;&gt;Node1</title>
<path fill="none" stroke="#191970" d="M1345.7905,-285.3488C1360.8972,-283.5833 1378.3868,-281.6115 1394.2691,-280 1439.6562,-275.3949 1772.4574,-277.6428 1803.2691,-244 1809.2726,-237.4448 1807.0756,-232.0326 1803.2691,-224 1792.449,-201.167 1770.0892,-210.833 1759.2691,-188 1755.4626,-179.9674 1755.3773,-175.9916 1759.2691,-168 1794.867,-94.9023 1882.5273,-46.0359 1930.5359,-23.784"/>
<polygon fill="#191970" stroke="#191970" points="1932.1949,-26.875 1939.8637,-19.5647 1929.31,-20.4971 1932.1949,-26.875"/>
</g>
<!-- Node44&#45;&gt;Node9 -->
<g id="edge104" class="edge">
<title>Node44&#45;&gt;Node9</title>
<path fill="none" stroke="#191970" d="M1268.726,-288.79C1159.751,-285.107 840.1828,-272.4998 576.2691,-244 442.1931,-229.5213 285.9648,-203.1327 203.709,-188.4913"/>
<polygon fill="#191970" stroke="#191970" points="204.2693,-185.0361 193.8096,-186.7223 203.0379,-191.9269 204.2693,-185.0361"/>
</g>
<!-- Node44&#45;&gt;Node28 -->
<g id="edge103" class="edge">
<title>Node44&#45;&gt;Node28</title>
<path fill="none" stroke="#191970" d="M1294.0309,-280.2455C1282.5881,-271.814 1265.8395,-259.4729 1252.5216,-249.6598"/>
<polygon fill="#191970" stroke="#191970" points="1254.4824,-246.757 1244.3556,-243.6427 1250.33,-252.3924 1254.4824,-246.757"/>
</g>
<!-- Node45 -->
<g id="node46" class="node">
<title>Node45</title>
<g id="a_node46"><a xlink:href="errno_8h.html" target="_top" xlink:title="errno.h">
<polygon fill="#ffffff" stroke="#000000" points="1287.7691,-224.5 1287.7691,-243.5 1340.7691,-243.5 1340.7691,-224.5 1287.7691,-224.5"/>
<text text-anchor="middle" x="1314.2691" y="-231.5" font-family="Helvetica,sans-Serif" font-size="10.00" fill="#000000">errno.h</text>
</a>
</g>
</g>
<!-- Node44&#45;&gt;Node45 -->
<g id="edge95" class="edge">
<title>Node44&#45;&gt;Node45</title>
<path fill="none" stroke="#191970" d="M1308.4884,-280.2455C1309.4018,-272.9382 1310.6823,-262.6944 1311.806,-253.7046"/>
<polygon fill="#191970" stroke="#191970" points="1315.2963,-253.9996 1313.0638,-243.6427 1308.3504,-253.1313 1315.2963,-253.9996"/>
</g>
<!-- Node46 -->
<g id="node47" class="node">
<title>Node46</title>
<g id="a_node47"><a xlink:href="iolist_8h.html" target="_top" xlink:title="iolist scatter / gather IO ">
<polygon fill="#ffffff" stroke="#000000" points="1746.7691,-224.5 1746.7691,-243.5 1793.7691,-243.5 1793.7691,-224.5 1746.7691,-224.5"/>
<text text-anchor="middle" x="1770.2691" y="-231.5" font-family="Helvetica,sans-Serif" font-size="10.00" fill="#000000">iolist.h</text>
</a>
</g>
</g>
<!-- Node44&#45;&gt;Node46 -->
<g id="edge96" class="edge">
<title>Node44&#45;&gt;Node46</title>
<path fill="none" stroke="#191970" d="M1345.8052,-285.4878C1360.9138,-283.7404 1378.4009,-281.7447 1394.2691,-280 1543.3593,-263.608 1585.2373,-273.8981 1736.4902,-243.797"/>
<polygon fill="#191970" stroke="#191970" points="1737.5029,-247.1633 1746.6134,-241.7551 1736.1188,-240.3015 1737.5029,-247.1633"/>
</g>
<!-- Node47 -->
<g id="node48" class="node">
<title>Node47</title>
<g id="a_node48"><a xlink:href="unistd_8h_source.html" target="_top" xlink:title="unistd.h">
<polygon fill="#ffffff" stroke="#000000" points="1658.2691,-168.5 1658.2691,-187.5 1712.2691,-187.5 1712.2691,-168.5 1658.2691,-168.5"/>
<text text-anchor="middle" x="1685.2691" y="-175.5" font-family="Helvetica,sans-Serif" font-size="10.00" fill="#000000">unistd.h</text>
</a>
</g>
</g>
<!-- Node46&#45;&gt;Node47 -->
<g id="edge97" class="edge">
<title>Node46&#45;&gt;Node47</title>
<path fill="none" stroke="#191970" d="M1755.4632,-224.2455C1742.5435,-215.7337 1723.576,-203.2375 1708.6139,-193.3801"/>
<polygon fill="#191970" stroke="#191970" points="1710.1815,-190.2216 1699.9053,-187.6427 1706.3304,-196.067 1710.1815,-190.2216"/>
</g>
<!-- Node47&#45;&gt;Node1 -->
<g id="edge99" class="edge">
<title>Node47&#45;&gt;Node1</title>
<path fill="none" stroke="#191970" d="M1687.0553,-168.2594C1691.8781,-144.8909 1707.4414,-85.4094 1745.2691,-56 1773.1822,-34.2988 1872.3994,-20.1338 1926.8481,-13.8083"/>
<polygon fill="#191970" stroke="#191970" points="1927.5634,-17.2498 1937.1065,-12.6478 1926.7764,-10.2941 1927.5634,-17.2498"/>
</g>
<!-- Node47&#45;&gt;Node5 -->
<g id="edge98" class="edge">
<title>Node47&#45;&gt;Node5</title>
<path fill="none" stroke="#191970" d="M1663.6154,-168.4712C1628.5905,-153.539 1556.99,-124.993 1493.2691,-112 1376.0808,-88.1048 1007.1559,-72.1202 886.7156,-67.4311"/>
<polygon fill="#191970" stroke="#191970" points="886.6308,-63.9253 876.5034,-67.0374 886.3611,-70.9201 886.6308,-63.9253"/>
</g>
<!-- Node48 -->
<g id="node49" class="node">
<title>Node48</title>
<g id="a_node49"><a xlink:href="cpu_2avr8__common_2avr__libc__extra_2include_2sys_2types_8h_source.html" target="_top" xlink:title="sys/types.h">
<polygon fill="#ffffff" stroke="#000000" points="1585.7691,-112.5 1585.7691,-131.5 1654.7691,-131.5 1654.7691,-112.5 1585.7691,-112.5"/>
<text text-anchor="middle" x="1620.2691" y="-119.5" font-family="Helvetica,sans-Serif" font-size="10.00" fill="#000000">sys/types.h</text>
</a>
</g>
</g>
<!-- Node47&#45;&gt;Node48 -->
<g id="edge100" class="edge">
<title>Node47&#45;&gt;Node48</title>
<path fill="none" stroke="#191970" d="M1673.947,-168.2455C1664.3468,-159.9746 1650.3799,-147.9416 1639.0996,-138.2232"/>
<polygon fill="#191970" stroke="#191970" points="1641.3221,-135.5182 1631.4615,-131.6427 1636.7531,-140.8214 1641.3221,-135.5182"/>
</g>
<!-- Node48&#45;&gt;Node1 -->
<g id="edge101" class="edge">
<title>Node48&#45;&gt;Node1</title>
<path fill="none" stroke="#191970" d="M1624.384,-112.4979C1631.3149,-97.7363 1646.7967,-69.5834 1669.2691,-56 1711.9717,-30.1885 1857.6212,-17.1392 1926.5465,-12.2883"/>
<polygon fill="#191970" stroke="#191970" points="1927.1842,-15.753 1936.9224,-11.5795 1926.707,-8.7693 1927.1842,-15.753"/>
</g>
<!-- Node48&#45;&gt;Node5 -->
<g id="edge102" class="edge">
<title>Node48&#45;&gt;Node5</title>
<path fill="none" stroke="#191970" d="M1585.671,-114.4569C1580.526,-113.5167 1575.2721,-112.6567 1570.2691,-112 1310.2474,-77.8704 994.0872,-68.8135 886.3363,-66.634"/>
<polygon fill="#191970" stroke="#191970" points="886.3413,-63.1335 876.2752,-66.4385 886.2053,-70.1322 886.3413,-63.1335"/>
</g>
<!-- Node49&#45;&gt;Node1 -->
<g id="edge107" class="edge">
<title>Node49&#45;&gt;Node1</title>
<path fill="none" stroke="#191970" d="M286.6607,-448.4694C272.2819,-440.1198 252.002,-426.9973 237.2691,-412 153.6484,-326.8789 123.611,-302.2745 89.2691,-188 86.7108,-179.4872 84.4085,-175.4423 89.2691,-168 111.0334,-134.6756 142.4307,-159.4325 171.2691,-132 198.6314,-105.9716 177.4076,-76.2735 209.2691,-56 246.8195,-32.1067 1678.453,-13.4918 1926.7524,-10.4397"/>
<polygon fill="#191970" stroke="#191970" points="1927.0767,-13.9361 1937.0331,-10.3139 1926.991,-6.9366 1927.0767,-13.9361"/>
</g>
<!-- Node49&#45;&gt;Node7 -->
<g id="edge132" class="edge">
<title>Node49&#45;&gt;Node7</title>
<path fill="none" stroke="#191970" d="M293.1251,-448.4417C262.0299,-420.6216 179.2768,-337.9984 221.2691,-280 233.5434,-263.0471 287.3161,-248.974 324.5276,-241.0246"/>
<polygon fill="#191970" stroke="#191970" points="325.4556,-244.4067 334.5357,-238.9476 324.0331,-237.5527 325.4556,-244.4067"/>
</g>
<!-- Node50 -->
<g id="node51" class="node">
<title>Node50</title>
<g id="a_node51"><a xlink:href="mutex_8h.html" target="_top" xlink:title="Mutex for thread synchronization. ">
<polygon fill="#ffffff" stroke="#000000" points="488.2691,-392.5 488.2691,-411.5 544.2691,-411.5 544.2691,-392.5 488.2691,-392.5"/>
<text text-anchor="middle" x="516.2691" y="-399.5" font-family="Helvetica,sans-Serif" font-size="10.00" fill="#000000">mutex.h</text>
</a>
</g>
</g>
<!-- Node49&#45;&gt;Node50 -->
<g id="edge108" class="edge">
<title>Node49&#45;&gt;Node50</title>
<path fill="none" stroke="#191970" d="M334.6435,-449.9766C372.4295,-439.9954 436.9676,-422.9476 478.0694,-412.0905"/>
<polygon fill="#191970" stroke="#191970" points="479.2091,-415.4096 487.9836,-409.4717 477.4213,-408.6417 479.2091,-415.4096"/>
</g>
<!-- Node50&#45;&gt;Node1 -->
<g id="edge110" class="edge">
<title>Node50&#45;&gt;Node1</title>
<path fill="none" stroke="#191970" d="M487.8596,-398.2666C431.7558,-389.6772 304.9369,-364.1006 221.2691,-300 191.2911,-277.0329 168.5117,-258.7619 183.2691,-224 197.2713,-191.0169 210.701,-186.6961 241.2691,-168 243.3168,-166.7476 565.9082,-56.4332 568.2691,-56 705.2471,-30.8656 1721.135,-13.7782 1926.9611,-10.5537"/>
<polygon fill="#191970" stroke="#191970" points="1927.2774,-14.0493 1937.2217,-10.3939 1927.1684,-7.0501 1927.2774,-14.0493"/>
</g>
<!-- Node50&#45;&gt;Node5 -->
<g id="edge109" class="edge">
<title>Node50&#45;&gt;Node5</title>
<path fill="none" stroke="#191970" d="M544.4591,-397.4743C618.0449,-384.8693 810.2691,-346.5316 810.2691,-290 810.2691,-290 810.2691,-290 810.2691,-178 810.2691,-143.6118 826.5325,-106.2832 837.7801,-84.5791"/>
<polygon fill="#191970" stroke="#191970" points="841.0008,-85.9804 842.6621,-75.5166 834.8381,-82.6605 841.0008,-85.9804"/>
</g>
<!-- Node50&#45;&gt;Node6 -->
<g id="edge111" class="edge">
<title>Node50&#45;&gt;Node6</title>
<path fill="none" stroke="#191970" d="M544.4875,-400.7417C611.5364,-397.2909 778.2315,-385.8654 824.2691,-356 907.4294,-302.0524 859.4626,-219.3209 944.2691,-168 1021.7245,-121.1276 1255.8672,-145.9812 1362.2542,-131.7523"/>
<polygon fill="#191970" stroke="#191970" points="1362.7808,-135.2125 1372.1413,-130.2496 1361.7289,-128.292 1362.7808,-135.2125"/>
</g>
<!-- Node50&#45;&gt;Node9 -->
<g id="edge117" class="edge">
<title>Node50&#45;&gt;Node9</title>
<path fill="none" stroke="#191970" d="M487.936,-399.232C424.5993,-392.7674 273.415,-375.7204 226.2691,-356 187.5618,-339.8093 169.8028,-337.1326 150.2691,-300 133.0803,-267.325 137.4344,-222.6207 141.9704,-197.3929"/>
<polygon fill="#191970" stroke="#191970" points="145.405,-198.066 143.9269,-187.5748 138.54,-196.6979 145.405,-198.066"/>
</g>
<!-- Node50&#45;&gt;Node17 -->
<g id="edge118" class="edge">
<title>Node50&#45;&gt;Node17</title>
<path fill="none" stroke="#191970" d="M516.9575,-392.3618C519.8304,-352.1418 530.8965,-197.2159 534.8528,-141.8288"/>
<polygon fill="#191970" stroke="#191970" points="538.3621,-141.8217 535.5836,-131.5977 531.3799,-141.3229 538.3621,-141.8217"/>
</g>
<!-- Node51 -->
<g id="node52" class="node">
<title>Node51</title>
<g id="a_node52"><a xlink:href="architecture_8h.html" target="_top" xlink:title="Platform&#45;independent access to architecture details. ">
<polygon fill="#ffffff" stroke="#000000" points="584.7691,-224.5 584.7691,-243.5 667.7691,-243.5 667.7691,-224.5 584.7691,-224.5"/>
<text text-anchor="middle" x="626.2691" y="-231.5" font-family="Helvetica,sans-Serif" font-size="10.00" fill="#000000">architecture.h</text>
</a>
</g>
</g>
<!-- Node50&#45;&gt;Node51 -->
<g id="edge112" class="edge">
<title>Node50&#45;&gt;Node51</title>
<path fill="none" stroke="#191970" d="M544.5559,-393.9634C563.7723,-387.0277 588.1708,-375.057 602.2691,-356 624.7476,-325.6152 627.7047,-279.7242 627.3286,-253.7512"/>
<polygon fill="#191970" stroke="#191970" points="630.823,-253.5231 626.995,-243.644 623.8268,-253.754 630.823,-253.5231"/>
</g>
<!-- Node54 -->
<g id="node55" class="node">
<title>Node54</title>
<g id="a_node55"><a xlink:href="core_2include_2thread_8h.html" target="_top" xlink:title="Threading API. ">
<polygon fill="#ffffff" stroke="#000000" points="414.7691,-336.5 414.7691,-355.5 471.7691,-355.5 471.7691,-336.5 414.7691,-336.5"/>
<text text-anchor="middle" x="443.2691" y="-343.5" font-family="Helvetica,sans-Serif" font-size="10.00" fill="#000000">thread.h</text>
</a>
</g>
</g>
<!-- Node50&#45;&gt;Node54 -->
<g id="edge119" class="edge">
<title>Node50&#45;&gt;Node54</title>
<path fill="none" stroke="#191970" d="M503.5535,-392.2455C492.6671,-383.8943 476.7808,-371.7076 464.0491,-361.9408"/>
<polygon fill="#191970" stroke="#191970" points="465.9037,-358.9523 455.839,-355.6427 461.643,-364.5063 465.9037,-358.9523"/>
</g>
<!-- Node51&#45;&gt;Node1 -->
<g id="edge113" class="edge">
<title>Node51&#45;&gt;Node1</title>
<path fill="none" stroke="#191970" d="M584.3422,-230.5961C530.6566,-225.2672 442.1651,-212.8819 422.2691,-188 392.1182,-150.2934 442.4551,-131.1002 480.2691,-112 613.4458,-44.7312 662.8698,-71.4524 811.2691,-56 1035.4076,-32.6611 1756.4983,-14.7909 1926.9241,-10.8252"/>
<polygon fill="#191970" stroke="#191970" points="1927.2027,-14.3198 1937.119,-10.5894 1927.0407,-7.3217 1927.2027,-14.3198"/>
</g>
<!-- Node51&#45;&gt;Node8 -->
<g id="edge114" class="edge">
<title>Node51&#45;&gt;Node8</title>
<path fill="none" stroke="#191970" d="M668.0369,-227.4665C736.9848,-216.6813 873.8209,-195.2768 942.6627,-184.5083"/>
<polygon fill="#191970" stroke="#191970" points="943.3698,-187.9403 952.7087,-182.9368 942.2879,-181.0244 943.3698,-187.9403"/>
</g>
<!-- Node52 -->
<g id="node53" class="node">
<title>Node52</title>
<polygon fill="#ffffff" stroke="#bfbfbf" points="694.2691,-168.5 694.2691,-187.5 744.2691,-187.5 744.2691,-168.5 694.2691,-168.5"/>
<text text-anchor="middle" x="719.2691" y="-175.5" font-family="Helvetica,sans-Serif" font-size="10.00" fill="#000000">limits.h</text>
</g>
<!-- Node51&#45;&gt;Node52 -->
<g id="edge115" class="edge">
<title>Node51&#45;&gt;Node52</title>
<path fill="none" stroke="#191970" d="M642.4685,-224.2455C656.8709,-215.5731 678.1423,-202.7645 694.6491,-192.825"/>
<polygon fill="#191970" stroke="#191970" points="696.4941,-195.7996 703.2554,-187.6427 692.8831,-189.8028 696.4941,-195.7996"/>
</g>
<!-- Node53 -->
<g id="node54" class="node">
<title>Node53</title>
<polygon fill="#ffffff" stroke="#bfbfbf" points="568.7691,-168.5 568.7691,-187.5 675.7691,-187.5 675.7691,-168.5 568.7691,-168.5"/>
<text text-anchor="middle" x="622.2691" y="-175.5" font-family="Helvetica,sans-Serif" font-size="10.00" fill="#000000">architecture_arch.h</text>
</g>
<!-- Node51&#45;&gt;Node53 -->
<g id="edge116" class="edge">
<title>Node51&#45;&gt;Node53</title>
<path fill="none" stroke="#191970" d="M625.5724,-224.2455C625.0504,-216.9382 624.3187,-206.6944 623.6766,-197.7046"/>
<polygon fill="#191970" stroke="#191970" points="627.1615,-197.3679 622.9579,-187.6427 620.1793,-197.8667 627.1615,-197.3679"/>
</g>
<!-- Node54&#45;&gt;Node7 -->
<g id="edge127" class="edge">
<title>Node54&#45;&gt;Node7</title>
<path fill="none" stroke="#191970" d="M459.8319,-336.2994C479.4512,-323.5528 507.7563,-300.3902 493.2691,-280 481.9791,-264.1098 432.8808,-250.0487 397.87,-241.7783"/>
<polygon fill="#191970" stroke="#191970" points="398.4936,-238.3304 387.9637,-239.5022 396.926,-245.1527 398.4936,-238.3304"/>
</g>
<!-- Node54&#45;&gt;Node16 -->
<g id="edge120" class="edge">
<title>Node54&#45;&gt;Node16</title>
<path fill="none" stroke="#191970" d="M466.3803,-336.4901C481.2989,-328.9878 499.5022,-316.9445 508.2691,-300 518.2226,-280.7621 484.1968,-225.1398 464.811,-196.1137"/>
<polygon fill="#191970" stroke="#191970" points="467.6163,-194.0144 459.1057,-187.704 461.8235,-197.9443 467.6163,-194.0144"/>
</g>
<!-- Node55 -->
<g id="node56" class="node">
<title>Node55</title>
<g id="a_node56"><a xlink:href="cib_8h.html" target="_top" xlink:title="Circular integer buffer interface. ">
<polygon fill="#ffffff" stroke="#000000" points="13.2691,-112.5 13.2691,-131.5 51.2691,-131.5 51.2691,-112.5 13.2691,-112.5"/>
<text text-anchor="middle" x="32.2691" y="-119.5" font-family="Helvetica,sans-Serif" font-size="10.00" fill="#000000">cib.h</text>
</a>
</g>
</g>
<!-- Node54&#45;&gt;Node55 -->
<g id="edge121" class="edge">
<title>Node54&#45;&gt;Node55</title>
<path fill="none" stroke="#191970" d="M414.4824,-344.566C370.6949,-341.4115 285.6494,-331.4146 221.2691,-300 141.7269,-261.187 73.0121,-177.1921 45.3121,-140.1619"/>
<polygon fill="#191970" stroke="#191970" points="47.917,-137.7964 39.1718,-131.8154 42.2784,-141.9445 47.917,-137.7964"/>
</g>
<!-- Node56 -->
<g id="node57" class="node">
<title>Node56</title>
<g id="a_node57"><a xlink:href="core_2include_2msg_8h.html" target="_top" xlink:title="Messaging API for inter process communication. ">
<polygon fill="#ffffff" stroke="#000000" points="338.7691,-280.5 338.7691,-299.5 383.7691,-299.5 383.7691,-280.5 338.7691,-280.5"/>
<text text-anchor="middle" x="361.2691" y="-287.5" font-family="Helvetica,sans-Serif" font-size="10.00" fill="#000000">msg.h</text>
</a>
</g>
</g>
<!-- Node54&#45;&gt;Node56 -->
<g id="edge123" class="edge">
<title>Node54&#45;&gt;Node56</title>
<path fill="none" stroke="#191970" d="M428.9858,-336.2455C416.5221,-327.7337 398.224,-315.2375 383.7899,-305.3801"/>
<polygon fill="#191970" stroke="#191970" points="385.6206,-302.392 375.3887,-299.6427 381.6729,-308.1726 385.6206,-302.392"/>
</g>
<!-- Node57 -->
<g id="node58" class="node">
<title>Node57</title>
<g id="a_node58"><a xlink:href="thread__config_8h.html" target="_top" xlink:title="Thread configuration defines. ">
<polygon fill="#ffffff" stroke="#000000" points="230.2691,-280.5 230.2691,-299.5 320.2691,-299.5 320.2691,-280.5 230.2691,-280.5"/>
<text text-anchor="middle" x="275.2691" y="-287.5" font-family="Helvetica,sans-Serif" font-size="10.00" fill="#000000">thread_config.h</text>
</a>
</g>
</g>
<!-- Node54&#45;&gt;Node57 -->
<g id="edge128" class="edge">
<title>Node54&#45;&gt;Node57</title>
<path fill="none" stroke="#191970" d="M414.3889,-336.3733C386.453,-327.0613 343.9549,-312.8953 313.2822,-302.671"/>
<polygon fill="#191970" stroke="#191970" points="314.3661,-299.3431 303.7725,-299.5011 312.1525,-305.9839 314.3661,-299.3431"/>
</g>
<!-- Node59 -->
<g id="node60" class="node">
<title>Node59</title>
<polygon fill="#ffffff" stroke="#bfbfbf" points="402.2691,-280.5 402.2691,-299.5 484.2691,-299.5 484.2691,-280.5 402.2691,-280.5"/>
<text text-anchor="middle" x="443.2691" y="-287.5" font-family="Helvetica,sans-Serif" font-size="10.00" fill="#000000">thread_arch.h</text>
</g>
<!-- Node54&#45;&gt;Node59 -->
<g id="edge131" class="edge">
<title>Node54&#45;&gt;Node59</title>
<path fill="none" stroke="#191970" d="M443.2691,-336.2455C443.2691,-328.9382 443.2691,-318.6944 443.2691,-309.7046"/>
<polygon fill="#191970" stroke="#191970" points="446.7692,-309.6426 443.2691,-299.6427 439.7692,-309.6427 446.7692,-309.6426"/>
</g>
<!-- Node55&#45;&gt;Node13 -->
<g id="edge122" class="edge">
<title>Node55&#45;&gt;Node13</title>
<path fill="none" stroke="#191970" d="M43.4171,-112.2455C52.7778,-104.0549 66.3549,-92.1749 77.404,-82.5069"/>
<polygon fill="#191970" stroke="#191970" points="80.0279,-84.8618 85.2489,-75.6427 75.4183,-79.5937 80.0279,-84.8618"/>
</g>
<!-- Node56&#45;&gt;Node1 -->
<g id="edge124" class="edge">
<title>Node56&#45;&gt;Node1</title>
<path fill="none" stroke="#191970" d="M351.1414,-280.4572C335.0978,-265.901 302.2625,-238.3341 269.2691,-224 154.9209,-174.3212 63.3966,-241.7608 4.2691,-132 -17.6937,-91.2296 54.2529,-58.5776 60.2691,-56 149.2679,-17.8691 1670.49,-11.0009 1926.7587,-10.1129"/>
<polygon fill="#191970" stroke="#191970" points="1927.0225,-13.6122 1937.0105,-10.0783 1926.9987,-6.6122 1927.0225,-13.6122"/>
</g>
<!-- Node56&#45;&gt;Node6 -->
<g id="edge125" class="edge">
<title>Node56&#45;&gt;Node6</title>
<path fill="none" stroke="#191970" d="M383.862,-282.3967C386.9988,-281.5007 390.198,-280.669 393.2691,-280 517.5859,-252.9192 553.9564,-275.3373 677.2691,-244 767.42,-221.0901 781.5438,-188.5177 872.2691,-168 1082.4571,-120.4655 1145.4285,-165.8943 1362.0497,-131.9114"/>
<polygon fill="#191970" stroke="#191970" points="1362.8302,-135.3309 1372.1476,-130.2876 1361.7188,-128.4197 1362.8302,-135.3309"/>
</g>
<!-- Node56&#45;&gt;Node7 -->
<g id="edge126" class="edge">
<title>Node56&#45;&gt;Node7</title>
<path fill="none" stroke="#191970" d="M361.2691,-280.2455C361.2691,-272.9382 361.2691,-262.6944 361.2691,-253.7046"/>
<polygon fill="#191970" stroke="#191970" points="364.7692,-253.6426 361.2691,-243.6427 357.7692,-253.6427 364.7692,-253.6426"/>
</g>
<!-- Node57&#45;&gt;Node7 -->
<g id="edge130" class="edge">
<title>Node57&#45;&gt;Node7</title>
<path fill="none" stroke="#191970" d="M290.2492,-280.2455C303.4442,-271.6534 322.8742,-259.0014 338.077,-249.1018"/>
<polygon fill="#191970" stroke="#191970" points="339.9906,-252.0325 346.4607,-243.6427 336.1708,-246.1665 339.9906,-252.0325"/>
</g>
<!-- Node58 -->
<g id="node59" class="node">
<title>Node58</title>
<polygon fill="#ffffff" stroke="#bfbfbf" points="192.7691,-224.5 192.7691,-243.5 259.7691,-243.5 259.7691,-224.5 192.7691,-224.5"/>
<text text-anchor="middle" x="226.2691" y="-231.5" font-family="Helvetica,sans-Serif" font-size="10.00" fill="#000000">cpu_conf.h</text>
</g>
<!-- Node57&#45;&gt;Node58 -->
<g id="edge129" class="edge">
<title>Node57&#45;&gt;Node58</title>
<path fill="none" stroke="#191970" d="M266.734,-280.2455C259.7779,-272.2958 249.7808,-260.8706 241.464,-251.3656"/>
<polygon fill="#191970" stroke="#191970" points="243.9255,-248.8637 234.7064,-243.6427 238.6575,-253.4732 243.9255,-248.8637"/>
</g>
<!-- Node60&#45;&gt;Node1 -->
<g id="edge134" class="edge">
<title>Node60&#45;&gt;Node1</title>
<path fill="none" stroke="#191970" d="M2216.0913,-399.032C2339.346,-387.7698 2757.2691,-345.4914 2757.2691,-290 2757.2691,-290 2757.2691,-290 2757.2691,-122 2757.2691,-88.5868 2749.4711,-73.9191 2721.2691,-56 2659.9938,-17.0668 2143.0258,-11.0766 1999.8797,-10.1629"/>
<polygon fill="#191970" stroke="#191970" points="1999.4883,-6.6606 1989.4678,-10.1013 1999.4469,-13.6605 1999.4883,-6.6606"/>
</g>
<!-- Node60&#45;&gt;Node17 -->
<g id="edge137" class="edge">
<title>Node60&#45;&gt;Node17</title>
<path fill="none" stroke="#191970" d="M2148.6802,-401.7913C1969.3406,-400.5282 1128.7178,-392.6786 1019.2691,-356 970.5219,-339.6638 924.2691,-341.4117 924.2691,-290 924.2691,-290 924.2691,-290 924.2691,-234 924.2691,-159.3848 656.0501,-131.4211 565.6261,-124.1139"/>
<polygon fill="#191970" stroke="#191970" points="565.7524,-120.6132 555.5101,-123.3234 565.207,-127.5919 565.7524,-120.6132"/>
</g>
<!-- Node60&#45;&gt;Node21 -->
<g id="edge135" class="edge">
<title>Node60&#45;&gt;Node21</title>
<path fill="none" stroke="#191970" d="M2215.944,-399.6053C2310.7864,-391.9448 2573.2691,-364.0543 2573.2691,-290 2573.2691,-290 2573.2691,-290 2573.2691,-234 2573.2691,-160.9255 2493.2146,-105.4335 2449.3004,-80.4903"/>
<polygon fill="#191970" stroke="#191970" points="2450.9651,-77.4114 2440.52,-75.6361 2447.5782,-83.5375 2450.9651,-77.4114"/>
</g>
<!-- Node60&#45;&gt;Node28 -->
<g id="edge138" class="edge">
<title>Node60&#45;&gt;Node28</title>
<path fill="none" stroke="#191970" d="M2148.6706,-401.1769C2052.3992,-398.4839 1767.4302,-388.1727 1533.2691,-356 1410.5622,-339.1406 1356.6134,-377.8397 1260.2691,-300 1246.0114,-288.4808 1238.5758,-268.5411 1234.8229,-253.5853"/>
<polygon fill="#191970" stroke="#191970" points="1238.2341,-252.8 1232.6962,-243.7677 1231.3928,-254.282 1238.2341,-252.8"/>
</g>
<!-- Node60&#45;&gt;Node47 -->
<g id="edge136" class="edge">
<title>Node60&#45;&gt;Node47</title>
<path fill="none" stroke="#191970" d="M2169.3518,-392.4808C2123.6611,-358.9663 1969.4244,-247.2026 1913.2691,-224 1879.2599,-209.9479 1778.1147,-192.5892 1722.663,-183.7542"/>
<polygon fill="#191970" stroke="#191970" points="1722.9648,-180.2586 1712.5412,-182.1554 1721.8726,-187.1729 1722.9648,-180.2586"/>
</g>
<!-- Node61 -->
<g id="node62" class="node">
<title>Node61</title>
<g id="a_node62"><a xlink:href="ipv6_8h.html" target="_top" xlink:title="IPv6 include gathering header. ">
<polygon fill="#ffffff" stroke="#000000" points="2165.7691,-336.5 2165.7691,-355.5 2230.7691,-355.5 2230.7691,-336.5 2165.7691,-336.5"/>
<text text-anchor="middle" x="2198.2691" y="-343.5" font-family="Helvetica,sans-Serif" font-size="10.00" fill="#000000">net/ipv6.h</text>
</a>
</g>
</g>
<!-- Node60&#45;&gt;Node61 -->
<g id="edge139" class="edge">
<title>Node60&#45;&gt;Node61</title>
<path fill="none" stroke="#191970" d="M2185.0561,-392.2455C2187.1668,-384.8579 2190.1351,-374.4689 2192.7238,-365.4087"/>
<polygon fill="#191970" stroke="#191970" points="2196.1321,-366.2195 2195.5141,-355.6427 2189.4014,-364.2964 2196.1321,-366.2195"/>
</g>
<!-- Node61&#45;&gt;Node20 -->
<g id="edge140" class="edge">
<title>Node61&#45;&gt;Node20</title>
<path fill="none" stroke="#191970" d="M2187.4143,-336.2679C2178.7348,-327.7019 2167.2274,-314.3808 2162.2691,-300 2157.133,-285.1036 2157.8027,-267.169 2159.5232,-253.7574"/>
<polygon fill="#191970" stroke="#191970" points="2163.0052,-254.1456 2161.1111,-243.7215 2156.0912,-253.0516 2163.0052,-254.1456"/>
</g>
<!-- Node62 -->
<g id="node63" class="node">
<title>Node62</title>
<g id="a_node63"><a xlink:href="ipv6_2ext_8h.html" target="_top" xlink:title="IPv6 extension header definitions. ">
<polygon fill="#ffffff" stroke="#000000" points="2601.7691,-224.5 2601.7691,-243.5 2684.7691,-243.5 2684.7691,-224.5 2601.7691,-224.5"/>
<text text-anchor="middle" x="2643.2691" y="-231.5" font-family="Helvetica,sans-Serif" font-size="10.00" fill="#000000">net/ipv6/ext.h</text>
</a>
</g>
</g>
<!-- Node61&#45;&gt;Node62 -->
<g id="edge141" class="edge">
<title>Node61&#45;&gt;Node62</title>
<path fill="none" stroke="#191970" d="M2230.991,-337.7644C2308.6671,-318.2144 2504.4562,-268.9372 2595.4316,-246.04"/>
<polygon fill="#191970" stroke="#191970" points="2596.3659,-249.4141 2605.2092,-243.5791 2594.6574,-242.6258 2596.3659,-249.4141"/>
</g>
<!-- Node65 -->
<g id="node66" class="node">
<title>Node65</title>
<g id="a_node66"><a xlink:href="net_2ipv6_2hdr_8h.html" target="_top" xlink:title="IPv6 header type and helper function definitions. ">
<polygon fill="#ffffff" stroke="#000000" points="2171.2691,-280.5 2171.2691,-299.5 2255.2691,-299.5 2255.2691,-280.5 2171.2691,-280.5"/>
<text text-anchor="middle" x="2213.2691" y="-287.5" font-family="Helvetica,sans-Serif" font-size="10.00" fill="#000000">net/ipv6/hdr.h</text>
</a>
</g>
</g>
<!-- Node61&#45;&gt;Node65 -->
<g id="edge149" class="edge">
<title>Node61&#45;&gt;Node65</title>
<path fill="none" stroke="#191970" d="M2200.8819,-336.2455C2202.8607,-328.8579 2205.6435,-318.4689 2208.0703,-309.4087"/>
<polygon fill="#191970" stroke="#191970" points="2211.4796,-310.2078 2210.6862,-299.6427 2204.718,-308.3966 2211.4796,-310.2078"/>
</g>
<!-- Node62&#45;&gt;Node1 -->
<g id="edge142" class="edge">
<title>Node62&#45;&gt;Node1</title>
<path fill="none" stroke="#191970" d="M2641.132,-224.4937C2633.6698,-193.774 2605.6468,-96.805 2541.2691,-56 2495.5665,-27.032 2118.908,-14.2748 1999.4628,-10.9323"/>
<polygon fill="#191970" stroke="#191970" points="1999.4592,-7.431 1989.3669,-10.6552 1999.2671,-14.4283 1999.4592,-7.431"/>
</g>
<!-- Node63 -->
<g id="node64" class="node">
<title>Node63</title>
<g id="a_node64"><a xlink:href="ipv6_2ext_2frag_8h.html" target="_top" xlink:title="Fragmentation extension definitions. ">
<polygon fill="#ffffff" stroke="#000000" points="2234.7691,-168.5 2234.7691,-187.5 2341.7691,-187.5 2341.7691,-168.5 2234.7691,-168.5"/>
<text text-anchor="middle" x="2288.2691" y="-175.5" font-family="Helvetica,sans-Serif" font-size="10.00" fill="#000000">net/ipv6/ext/frag.h</text>
</a>
</g>
</g>
<!-- Node62&#45;&gt;Node63 -->
<g id="edge143" class="edge">
<title>Node62&#45;&gt;Node63</title>
<path fill="none" stroke="#191970" d="M2601.6814,-227.4641C2546.9793,-218.8638 2447.5748,-203.2234 2352.0136,-188.1163"/>
<polygon fill="#191970" stroke="#191970" points="2352.3086,-184.6196 2341.8847,-186.5148 2351.2153,-191.5337 2352.3086,-184.6196"/>
</g>
<!-- Node64 -->
<g id="node65" class="node">
<title>Node64</title>
<g id="a_node65"><a xlink:href="ipv6_2ext_2rh_8h.html" target="_top" xlink:title="Routing extension header definitions. ">
<polygon fill="#ffffff" stroke="#000000" points="2593.2691,-56.5 2593.2691,-75.5 2691.2691,-75.5 2691.2691,-56.5 2593.2691,-56.5"/>
<text text-anchor="middle" x="2642.2691" y="-63.5" font-family="Helvetica,sans-Serif" font-size="10.00" fill="#000000">net/ipv6/ext/rh.h</text>
</a>
</g>
</g>
<!-- Node62&#45;&gt;Node64 -->
<g id="edge147" class="edge">
<title>Node62&#45;&gt;Node64</title>
<path fill="none" stroke="#191970" d="M2643.2125,-224.4862C2643.0544,-197.9293 2642.6058,-122.5651 2642.3891,-86.1655"/>
<polygon fill="#191970" stroke="#191970" points="2645.8872,-85.8068 2642.3276,-75.8279 2638.8873,-85.8486 2645.8872,-85.8068"/>
</g>
<!-- Node63&#45;&gt;Node1 -->
<g id="edge145" class="edge">
<title>Node63&#45;&gt;Node1</title>
<path fill="none" stroke="#191970" d="M2279.3799,-168.4542C2257.4873,-145.5182 2198.2973,-86.9244 2137.2691,-56 2092.7484,-33.4403 2036.0439,-21.1244 1999.6927,-15.0519"/>
<polygon fill="#191970" stroke="#191970" points="1999.9809,-11.5536 1989.554,-13.4322 1998.8766,-18.466 1999.9809,-11.5536"/>
</g>
<!-- Node63&#45;&gt;Node6 -->
<g id="edge144" class="edge">
<title>Node63&#45;&gt;Node6</title>
<path fill="none" stroke="#191970" d="M2234.5108,-174.6022C2071.5613,-164.3029 1585.5563,-133.5847 1442.382,-124.5354"/>
<polygon fill="#191970" stroke="#191970" points="1442.4886,-121.0352 1432.2877,-123.8973 1442.047,-128.0213 1442.4886,-121.0352"/>
</g>
<!-- Node63&#45;&gt;Node22 -->
<g id="edge146" class="edge">
<title>Node63&#45;&gt;Node22</title>
<path fill="none" stroke="#191970" d="M2261.1079,-168.3733C2235.0624,-159.1419 2195.5575,-145.1402 2166.7712,-134.9375"/>
<polygon fill="#191970" stroke="#191970" points="2167.6706,-131.5429 2157.0758,-131.5011 2165.3321,-138.1408 2167.6706,-131.5429"/>
</g>
<!-- Node64&#45;&gt;Node1 -->
<g id="edge148" class="edge">
<title>Node64&#45;&gt;Node1</title>
<path fill="none" stroke="#191970" d="M2593.1426,-57.7991C2588.4605,-57.139 2583.7791,-56.5254 2579.2691,-56 2360.0282,-30.4585 2095.1476,-16.2531 1999.7262,-11.6654"/>
<polygon fill="#191970" stroke="#191970" points="1999.6159,-8.1563 1989.4611,-11.1777 1999.2837,-15.1484 1999.6159,-8.1563"/>
</g>
<!-- Node65&#45;&gt;Node1 -->
<g id="edge150" class="edge">
<title>Node65&#45;&gt;Node1</title>
<path fill="none" stroke="#191970" d="M2248.0821,-280.4913C2309.2804,-262.9983 2431.9811,-224.1845 2456.2691,-188 2488.9661,-139.2878 2496.784,-99.3653 2457.2691,-56 2426.5649,-22.3039 2108.8187,-12.8808 1999.7692,-10.6286"/>
<polygon fill="#191970" stroke="#191970" points="1999.6552,-7.1257 1989.5878,-10.4268 1999.5164,-14.1244 1999.6552,-7.1257"/>
</g>
<!-- Node65&#45;&gt;Node20 -->
<g id="edge155" class="edge">
<title>Node65&#45;&gt;Node20</title>
<path fill="none" stroke="#191970" d="M2204.5598,-280.2455C2197.4618,-272.2958 2187.2607,-260.8706 2178.7741,-251.3656"/>
<polygon fill="#191970" stroke="#191970" points="2181.1496,-248.771 2171.8786,-243.6427 2175.928,-253.4331 2181.1496,-248.771"/>
</g>
<!-- Node65&#45;&gt;Node22 -->
<g id="edge151" class="edge">
<title>Node65&#45;&gt;Node22</title>
<path fill="none" stroke="#191970" d="M2216.2437,-280.2463C2219.7451,-267.0436 2224.2557,-242.9572 2217.2691,-224 2213.5652,-213.9498 2170.2054,-165.6148 2146.1343,-139.2491"/>
<polygon fill="#191970" stroke="#191970" points="2148.4066,-136.5479 2139.0715,-131.5371 2143.2443,-141.2757 2148.4066,-136.5479"/>
</g>
<!-- Node66 -->
<g id="node67" class="node">
<title>Node66</title>
<g id="a_node67"><a xlink:href="inet__csum_8h.html" target="_top" xlink:title="Internet Checksum definitions. ">
<polygon fill="#ffffff" stroke="#000000" points="1636.2691,-224.5 1636.2691,-243.5 1728.2691,-243.5 1728.2691,-224.5 1636.2691,-224.5"/>
<text text-anchor="middle" x="1682.2691" y="-231.5" font-family="Helvetica,sans-Serif" font-size="10.00" fill="#000000">net/inet_csum.h</text>
</a>
</g>
</g>
<!-- Node65&#45;&gt;Node66 -->
<g id="edge152" class="edge">
<title>Node65&#45;&gt;Node66</title>
<path fill="none" stroke="#191970" d="M2171.2006,-287.0647C2088.1806,-281.0206 1897.5024,-265.8916 1738.2691,-244 1738.1682,-243.9861 1738.0672,-243.9722 1737.9661,-243.9582"/>
<polygon fill="#191970" stroke="#191970" points="1738.773,-240.5397 1728.3675,-242.5339 1737.7454,-247.4639 1738.773,-240.5397"/>
</g>
<!-- Node66&#45;&gt;Node5 -->
<g id="edge154" class="edge">
<title>Node66&#45;&gt;Node5</title>
<path fill="none" stroke="#191970" d="M1665.3193,-224.3196C1618.603,-197.8186 1488.3473,-125.1823 1441.2691,-112 1336.1649,-82.5701 1000.2703,-70.3774 886.4231,-67.0223"/>
<polygon fill="#191970" stroke="#191970" points="886.5205,-63.5238 876.4237,-66.7337 886.3185,-70.5208 886.5205,-63.5238"/>
</g>
<!-- Node66&#45;&gt;Node8 -->
<g id="edge153" class="edge">
<title>Node66&#45;&gt;Node8</title>
<path fill="none" stroke="#191970" d="M1635.9488,-228.6194C1621.0567,-226.9967 1604.478,-225.3025 1589.2691,-224 1342.3077,-202.8508 1275.3269,-225.2972 1026.0333,-187.8409"/>
<polygon fill="#191970" stroke="#191970" points="1026.3558,-184.3497 1015.9434,-186.3073 1025.3039,-191.2703 1026.3558,-184.3497"/>
</g>
</g>
</svg>
