<?xml version="1.0" encoding="UTF-8" standalone="no"?>
<!DOCTYPE svg PUBLIC "-//W3C//DTD SVG 1.1//EN"
 "http://www.w3.org/Graphics/SVG/1.1/DTD/svg11.dtd">
<!-- Generated by graphviz version 2.40.1 (0)
 -->
<!-- Title: drivers/include/periph/gpio_ll.h Pages: 1 -->
<svg width="608pt" height="151pt"
 viewBox="0.00 0.00 607.50 151.00" xmlns="http://www.w3.org/2000/svg" xmlns:xlink="http://www.w3.org/1999/xlink">
<g id="graph0" class="graph" transform="scale(1 1) rotate(0) translate(4 147)">
<title>drivers/include/periph/gpio_ll.h</title>
<polygon fill="#ffffff" stroke="transparent" points="-4,4 -4,-147 603.5,-147 603.5,4 -4,4"/>
<!-- Node0 -->
<g id="node1" class="node">
<title>Node0</title>
<polygon fill="#bfbfbf" stroke="#000000" points="246.5,-112.5 246.5,-142.5 367.5,-142.5 367.5,-112.5 246.5,-112.5"/>
<text text-anchor="start" x="254.5" y="-130.5" font-family="Helvetica,sans-Serif" font-size="10.00" fill="#000000">drivers/include/periph</text>
<text text-anchor="middle" x="307" y="-119.5" font-family="Helvetica,sans-Serif" font-size="10.00" fill="#000000">/gpio_ll.h</text>
</g>
<!-- Node1 -->
<g id="node2" class="node">
<title>Node1</title>
<g id="a_node2"><a xlink:href="assert_8h.html" target="_top" xlink:title="POSIX.1&#45;2008 compliant version of the assert macro. ">
<polygon fill="#ffffff" stroke="#000000" points="18,-56.5 18,-75.5 72,-75.5 72,-56.5 18,-56.5"/>
<text text-anchor="middle" x="45" y="-63.5" font-family="Helvetica,sans-Serif" font-size="10.00" fill="#000000">assert.h</text>
</a>
</g>
</g>
<!-- Node0&#45;&gt;Node1 -->
<g id="edge1" class="edge">
<title>Node0&#45;&gt;Node1</title>
<path fill="none" stroke="#191970" d="M246.2334,-113.2361C195.5396,-101.3366 124.9238,-84.7607 82.2306,-74.7392"/>
<polygon fill="#191970" stroke="#191970" points="82.8017,-71.2782 72.2664,-72.4003 81.202,-78.093 82.8017,-71.2782"/>
</g>
<!-- Node2 -->
<g id="node3" class="node">
<title>Node2</title>
<polygon fill="#ffffff" stroke="#bfbfbf" points="0,-.5 0,-19.5 52,-19.5 52,-.5 0,-.5"/>
<text text-anchor="middle" x="26" y="-7.5" font-family="Helvetica,sans-Serif" font-size="10.00" fill="#000000">stdint.h</text>
</g>
<!-- Node0&#45;&gt;Node2 -->
<g id="edge4" class="edge">
<title>Node0&#45;&gt;Node2</title>
<path fill="none" stroke="#191970" d="M267.5688,-112.4706C241.478,-102.4101 206.5688,-88.7279 176,-76 134.2875,-58.6322 86.6014,-37.413 56.4063,-23.8049"/>
<polygon fill="#191970" stroke="#191970" points="57.8013,-20.5946 47.247,-19.6687 54.9203,-26.9743 57.8013,-20.5946"/>
</g>
<!-- Node3 -->
<g id="node4" class="node">
<title>Node3</title>
<polygon fill="#ffffff" stroke="#bfbfbf" points="345,-.5 345,-19.5 405,-19.5 405,-.5 345,-.5"/>
<text text-anchor="middle" x="375" y="-7.5" font-family="Helvetica,sans-Serif" font-size="10.00" fill="#000000">stdbool.h</text>
</g>
<!-- Node0&#45;&gt;Node3 -->
<g id="edge3" class="edge">
<title>Node0&#45;&gt;Node3</title>
<path fill="none" stroke="#191970" d="M308.5666,-112.3204C310.6757,-97.1624 315.4634,-73.6437 326,-56 332.8481,-44.5328 343.3689,-34.1234 352.9089,-26.1186"/>
<polygon fill="#191970" stroke="#191970" points="355.2805,-28.7043 360.923,-19.737 350.9199,-23.2283 355.2805,-28.7043"/>
</g>
<!-- Node4 -->
<g id="node5" class="node">
<title>Node4</title>
<g id="a_node5"><a xlink:href="architecture_8h.html" target="_top" xlink:title="Platform&#45;independent access to architecture details. ">
<polygon fill="#ffffff" stroke="#000000" points="185.5,-56.5 185.5,-75.5 268.5,-75.5 268.5,-56.5 185.5,-56.5"/>
<text text-anchor="middle" x="227" y="-63.5" font-family="Helvetica,sans-Serif" font-size="10.00" fill="#000000">architecture.h</text>
</a>
</g>
</g>
<!-- Node0&#45;&gt;Node4 -->
<g id="edge5" class="edge">
<title>Node0&#45;&gt;Node4</title>
<path fill="none" stroke="#191970" d="M287.2247,-112.2977C275.3102,-103.1384 260.1468,-91.4816 248.0162,-82.1562"/>
<polygon fill="#191970" stroke="#191970" points="249.8703,-79.1668 239.809,-75.8469 245.604,-84.7165 249.8703,-79.1668"/>
</g>
<!-- Node8 -->
<g id="node9" class="node">
<title>Node8</title>
<g id="a_node9"><a xlink:href="drivers_2include_2periph_2gpio_8h.html" target="_top" xlink:title="Low&#45;level GPIO peripheral driver interface definitions. ">
<polygon fill="#ffffff" stroke="#000000" points="335,-56.5 335,-75.5 415,-75.5 415,-56.5 335,-56.5"/>
<text text-anchor="middle" x="375" y="-63.5" font-family="Helvetica,sans-Serif" font-size="10.00" fill="#000000">periph/gpio.h</text>
</a>
</g>
</g>
<!-- Node0&#45;&gt;Node8 -->
<g id="edge10" class="edge">
<title>Node0&#45;&gt;Node8</title>
<path fill="none" stroke="#191970" d="M323.809,-112.2977C333.7397,-103.3163 346.3257,-91.9334 356.5327,-82.702"/>
<polygon fill="#191970" stroke="#191970" points="359.0434,-85.1505 364.1123,-75.8469 354.348,-79.9588 359.0434,-85.1505"/>
</g>
<!-- Node9 -->
<g id="node10" class="node">
<title>Node9</title>
<polygon fill="#ffffff" stroke="#bfbfbf" points="522.5,-.5 522.5,-19.5 599.5,-19.5 599.5,-.5 522.5,-.5"/>
<text text-anchor="middle" x="561" y="-7.5" font-family="Helvetica,sans-Serif" font-size="10.00" fill="#000000">periph_cpu.h</text>
</g>
<!-- Node0&#45;&gt;Node9 -->
<g id="edge15" class="edge">
<title>Node0&#45;&gt;Node9</title>
<path fill="none" stroke="#191970" d="M342.8807,-112.4757C366.1852,-102.529 397.1161,-88.9719 424,-76 441.1889,-67.7061 444.8963,-64.4681 462,-56 484.6664,-44.7778 510.6045,-32.7551 530.2435,-23.8163"/>
<polygon fill="#191970" stroke="#191970" points="531.9498,-26.8857 539.612,-19.5685 529.0591,-20.5104 531.9498,-26.8857"/>
</g>
<!-- Node11 -->
<g id="node12" class="node">
<title>Node11</title>
<polygon fill="#ffffff" stroke="#bfbfbf" points="471,-56.5 471,-75.5 551,-75.5 551,-56.5 471,-56.5"/>
<text text-anchor="middle" x="511" y="-63.5" font-family="Helvetica,sans-Serif" font-size="10.00" fill="#000000">gpio_ll_arch.h</text>
</g>
<!-- Node0&#45;&gt;Node11 -->
<g id="edge16" class="edge">
<title>Node0&#45;&gt;Node11</title>
<path fill="none" stroke="#191970" d="M356.904,-112.4554C391.5391,-102.0139 437.1288,-88.27 469.7174,-78.4455"/>
<polygon fill="#191970" stroke="#191970" points="470.8231,-81.7678 479.3872,-75.5303 468.8026,-75.0657 470.8231,-81.7678"/>
</g>
<!-- Node1&#45;&gt;Node2 -->
<g id="edge2" class="edge">
<title>Node1&#45;&gt;Node2</title>
<path fill="none" stroke="#191970" d="M41.6905,-56.2455C39.1567,-48.7776 35.5823,-38.2427 32.485,-29.1137"/>
<polygon fill="#191970" stroke="#191970" points="35.7991,-27.9879 29.2716,-19.6427 29.1702,-30.237 35.7991,-27.9879"/>
</g>
<!-- Node4&#45;&gt;Node2 -->
<g id="edge6" class="edge">
<title>Node4&#45;&gt;Node2</title>
<path fill="none" stroke="#191970" d="M192.3224,-56.4771C160.7581,-47.7899 112.6146,-34.4922 62.1493,-20.3099"/>
<polygon fill="#191970" stroke="#191970" points="62.9411,-16.8968 52.3669,-17.5577 61.0453,-23.6352 62.9411,-16.8968"/>
</g>
<!-- Node5 -->
<g id="node6" class="node">
<title>Node5</title>
<g id="a_node6"><a xlink:href="inttypes_8h.html" target="_top" xlink:title="Adds include for missing inttype definitions. ">
<polygon fill="#ffffff" stroke="#000000" points="195.5,-.5 195.5,-19.5 258.5,-19.5 258.5,-.5 195.5,-.5"/>
<text text-anchor="middle" x="227" y="-7.5" font-family="Helvetica,sans-Serif" font-size="10.00" fill="#000000">inttypes.h</text>
</a>
</g>
</g>
<!-- Node4&#45;&gt;Node5 -->
<g id="edge7" class="edge">
<title>Node4&#45;&gt;Node5</title>
<path fill="none" stroke="#191970" d="M227,-56.2455C227,-48.9382 227,-38.6944 227,-29.7046"/>
<polygon fill="#191970" stroke="#191970" points="230.5001,-29.6426 227,-19.6427 223.5001,-29.6427 230.5001,-29.6426"/>
</g>
<!-- Node6 -->
<g id="node7" class="node">
<title>Node6</title>
<polygon fill="#ffffff" stroke="#bfbfbf" points="277,-.5 277,-19.5 327,-19.5 327,-.5 277,-.5"/>
<text text-anchor="middle" x="302" y="-7.5" font-family="Helvetica,sans-Serif" font-size="10.00" fill="#000000">limits.h</text>
</g>
<!-- Node4&#45;&gt;Node6 -->
<g id="edge8" class="edge">
<title>Node4&#45;&gt;Node6</title>
<path fill="none" stroke="#191970" d="M240.064,-56.2455C251.3562,-47.814 267.8845,-35.4729 281.0271,-25.6598"/>
<polygon fill="#191970" stroke="#191970" points="283.1669,-28.4301 289.0857,-19.6427 278.9789,-22.8211 283.1669,-28.4301"/>
</g>
<!-- Node7 -->
<g id="node8" class="node">
<title>Node7</title>
<polygon fill="#ffffff" stroke="#bfbfbf" points="70.5,-.5 70.5,-19.5 177.5,-19.5 177.5,-.5 70.5,-.5"/>
<text text-anchor="middle" x="124" y="-7.5" font-family="Helvetica,sans-Serif" font-size="10.00" fill="#000000">architecture_arch.h</text>
</g>
<!-- Node4&#45;&gt;Node7 -->
<g id="edge9" class="edge">
<title>Node4&#45;&gt;Node7</title>
<path fill="none" stroke="#191970" d="M209.0588,-56.2455C192.96,-47.4928 169.1121,-34.527 150.7609,-24.5496"/>
<polygon fill="#191970" stroke="#191970" points="152.1929,-21.3444 141.7356,-19.6427 148.8493,-27.4942 152.1929,-21.3444"/>
</g>
<!-- Node8&#45;&gt;Node3 -->
<g id="edge12" class="edge">
<title>Node8&#45;&gt;Node3</title>
<path fill="none" stroke="#191970" d="M375,-56.2455C375,-48.9382 375,-38.6944 375,-29.7046"/>
<polygon fill="#191970" stroke="#191970" points="378.5001,-29.6426 375,-19.6427 371.5001,-29.6427 378.5001,-29.6426"/>
</g>
<!-- Node8&#45;&gt;Node6 -->
<g id="edge11" class="edge">
<title>Node8&#45;&gt;Node6</title>
<path fill="none" stroke="#191970" d="M362.2844,-56.2455C351.398,-47.8943 335.5117,-35.7076 322.78,-25.9408"/>
<polygon fill="#191970" stroke="#191970" points="324.6346,-22.9523 314.5699,-19.6427 320.3739,-28.5063 324.6346,-22.9523"/>
</g>
<!-- Node8&#45;&gt;Node9 -->
<g id="edge13" class="edge">
<title>Node8&#45;&gt;Node9</title>
<path fill="none" stroke="#191970" d="M406.9745,-56.3733C438.1713,-46.9807 485.771,-32.6496 519.7932,-22.4064"/>
<polygon fill="#191970" stroke="#191970" points="520.8763,-25.7355 529.4427,-19.5011 518.8582,-19.0327 520.8763,-25.7355"/>
</g>
<!-- Node10 -->
<g id="node11" class="node">
<title>Node10</title>
<polygon fill="#ffffff" stroke="#bfbfbf" points="423.5,-.5 423.5,-19.5 504.5,-19.5 504.5,-.5 423.5,-.5"/>
<text text-anchor="middle" x="464" y="-7.5" font-family="Helvetica,sans-Serif" font-size="10.00" fill="#000000">periph_conf.h</text>
</g>
<!-- Node8&#45;&gt;Node10 -->
<g id="edge14" class="edge">
<title>Node8&#45;&gt;Node10</title>
<path fill="none" stroke="#191970" d="M390.5026,-56.2455C404.158,-47.6534 424.2657,-35.0014 439.9989,-25.1018"/>
<polygon fill="#191970" stroke="#191970" points="442.0751,-27.9307 448.675,-19.6427 438.3471,-22.006 442.0751,-27.9307"/>
</g>
</g>
</svg>
