<?xml version="1.0" encoding="UTF-8" standalone="no"?>
<!DOCTYPE svg PUBLIC "-//W3C//DTD SVG 1.1//EN"
 "http://www.w3.org/Graphics/SVG/1.1/DTD/svg11.dtd">
<!-- Generated by graphviz version 2.40.1 (0)
 -->
<!-- Title: drivers/grove_ledbar/include/grove_ledbar_params.h Pages: 1 -->
<svg width="562pt" height="274pt"
 viewBox="0.00 0.00 561.50 274.00" xmlns="http://www.w3.org/2000/svg" xmlns:xlink="http://www.w3.org/1999/xlink">
<g id="graph0" class="graph" transform="scale(1 1) rotate(0) translate(4 270)">
<title>drivers/grove_ledbar/include/grove_ledbar_params.h</title>
<polygon fill="#ffffff" stroke="transparent" points="-4,4 -4,-270 557.5,-270 557.5,4 -4,4"/>
<!-- Node0 -->
<g id="node1" class="node">
<title>Node0</title>
<polygon fill="#bfbfbf" stroke="#000000" points="217.5,-224.5 217.5,-265.5 336.5,-265.5 336.5,-224.5 217.5,-224.5"/>
<text text-anchor="start" x="225.5" y="-253.5" font-family="Helvetica,sans-Serif" font-size="10.00" fill="#000000">drivers/grove_ledbar</text>
<text text-anchor="start" x="225.5" y="-242.5" font-family="Helvetica,sans-Serif" font-size="10.00" fill="#000000">/include/grove_ledbar</text>
<text text-anchor="middle" x="277" y="-231.5" font-family="Helvetica,sans-Serif" font-size="10.00" fill="#000000">_params.h</text>
</g>
<!-- Node1 -->
<g id="node2" class="node">
<title>Node1</title>
<polygon fill="#ffffff" stroke="#bfbfbf" points="79.5,-168.5 79.5,-187.5 132.5,-187.5 132.5,-168.5 79.5,-168.5"/>
<text text-anchor="middle" x="106" y="-175.5" font-family="Helvetica,sans-Serif" font-size="10.00" fill="#000000">board.h</text>
</g>
<!-- Node0&#45;&gt;Node1 -->
<g id="edge1" class="edge">
<title>Node0&#45;&gt;Node1</title>
<path fill="none" stroke="#191970" d="M224.2991,-224.3511C196.8718,-213.6047 164.1369,-200.7788 140.0621,-191.346"/>
<polygon fill="#191970" stroke="#191970" points="141.2286,-188.044 130.6409,-187.6546 138.6749,-194.5616 141.2286,-188.044"/>
</g>
<!-- Node2 -->
<g id="node3" class="node">
<title>Node2</title>
<g id="a_node3"><a xlink:href="drivers_2include_2periph_2gpio_8h.html" target="_top" xlink:title="Low&#45;level GPIO peripheral driver interface definitions. ">
<polygon fill="#ffffff" stroke="#000000" points="333,-56.5 333,-75.5 413,-75.5 413,-56.5 333,-56.5"/>
<text text-anchor="middle" x="373" y="-63.5" font-family="Helvetica,sans-Serif" font-size="10.00" fill="#000000">periph/gpio.h</text>
</a>
</g>
</g>
<!-- Node0&#45;&gt;Node2 -->
<g id="edge2" class="edge">
<title>Node0&#45;&gt;Node2</title>
<path fill="none" stroke="#191970" d="M307.8396,-224.259C320.828,-214.4063 335.3645,-201.7744 346,-188 362.7703,-166.2803 365.8802,-158.7495 372,-132 375.479,-116.7934 375.5409,-99.0975 374.836,-85.8591"/>
<polygon fill="#191970" stroke="#191970" points="378.3023,-85.2672 374.0859,-75.5476 371.3208,-85.7752 378.3023,-85.2672"/>
</g>
<!-- Node7 -->
<g id="node8" class="node">
<title>Node7</title>
<g id="a_node8"><a xlink:href="saul__reg_8h.html" target="_top" xlink:title="SAUL registry interface definition. ">
<polygon fill="#ffffff" stroke="#000000" points="150.5,-168.5 150.5,-187.5 215.5,-187.5 215.5,-168.5 150.5,-168.5"/>
<text text-anchor="middle" x="183" y="-175.5" font-family="Helvetica,sans-Serif" font-size="10.00" fill="#000000">saul_reg.h</text>
</a>
</g>
</g>
<!-- Node0&#45;&gt;Node7 -->
<g id="edge7" class="edge">
<title>Node0&#45;&gt;Node7</title>
<path fill="none" stroke="#191970" d="M248.0299,-224.3511C234.0921,-214.4167 217.6608,-202.7051 204.8022,-193.5398"/>
<polygon fill="#191970" stroke="#191970" points="206.72,-190.6087 196.5453,-187.6546 202.657,-196.309 206.72,-190.6087"/>
</g>
<!-- Node14 -->
<g id="node15" class="node">
<title>Node14</title>
<g id="a_node15"><a xlink:href="grove__ledbar_8h.html" target="_top" xlink:title="Interface for the Grove ledbar driver. ">
<polygon fill="#ffffff" stroke="#000000" points="233.5,-168.5 233.5,-187.5 320.5,-187.5 320.5,-168.5 233.5,-168.5"/>
<text text-anchor="middle" x="277" y="-175.5" font-family="Helvetica,sans-Serif" font-size="10.00" fill="#000000">grove_ledbar.h</text>
</a>
</g>
</g>
<!-- Node0&#45;&gt;Node14 -->
<g id="edge15" class="edge">
<title>Node0&#45;&gt;Node14</title>
<path fill="none" stroke="#191970" d="M277,-224.168C277,-215.8226 277,-206.2471 277,-197.9879"/>
<polygon fill="#191970" stroke="#191970" points="280.5001,-197.7804 277,-187.7805 273.5001,-197.7805 280.5001,-197.7804"/>
</g>
<!-- Node15 -->
<g id="node16" class="node">
<title>Node15</title>
<g id="a_node16"><a xlink:href="my9221_8h.html" target="_top" xlink:title="Interface for the MY9221 LED controller driver. ">
<polygon fill="#ffffff" stroke="#000000" points="299,-112.5 299,-131.5 363,-131.5 363,-112.5 299,-112.5"/>
<text text-anchor="middle" x="331" y="-119.5" font-family="Helvetica,sans-Serif" font-size="10.00" fill="#000000">my9221.h</text>
</a>
</g>
</g>
<!-- Node0&#45;&gt;Node15 -->
<g id="edge20" class="edge">
<title>Node0&#45;&gt;Node15</title>
<path fill="none" stroke="#191970" d="M303.3656,-224.2504C313.7003,-214.482 324.4073,-201.9174 330,-188 335.8753,-173.3793 335.7278,-155.4243 334.3322,-141.9347"/>
<polygon fill="#191970" stroke="#191970" points="337.7742,-141.2685 332.9713,-131.8249 330.8368,-142.2024 337.7742,-141.2685"/>
</g>
<!-- Node3 -->
<g id="node4" class="node">
<title>Node3</title>
<polygon fill="#ffffff" stroke="#bfbfbf" points="231,-.5 231,-19.5 281,-19.5 281,-.5 231,-.5"/>
<text text-anchor="middle" x="256" y="-7.5" font-family="Helvetica,sans-Serif" font-size="10.00" fill="#000000">limits.h</text>
</g>
<!-- Node2&#45;&gt;Node3 -->
<g id="edge3" class="edge">
<title>Node2&#45;&gt;Node3</title>
<path fill="none" stroke="#191970" d="M352.887,-56.3733C334.1897,-47.4241 306.1256,-33.9917 285.0066,-23.8835"/>
<polygon fill="#191970" stroke="#191970" points="286.3817,-20.6614 275.8506,-19.5011 283.3595,-26.9755 286.3817,-20.6614"/>
</g>
<!-- Node4 -->
<g id="node5" class="node">
<title>Node4</title>
<polygon fill="#ffffff" stroke="#bfbfbf" points="299,-.5 299,-19.5 359,-19.5 359,-.5 299,-.5"/>
<text text-anchor="middle" x="329" y="-7.5" font-family="Helvetica,sans-Serif" font-size="10.00" fill="#000000">stdbool.h</text>
</g>
<!-- Node2&#45;&gt;Node4 -->
<g id="edge4" class="edge">
<title>Node2&#45;&gt;Node4</title>
<path fill="none" stroke="#191970" d="M365.3358,-56.2455C359.1527,-48.3761 350.2937,-37.101 342.8711,-27.6542"/>
<polygon fill="#191970" stroke="#191970" points="345.5068,-25.3435 336.5764,-19.6427 340.0025,-29.6683 345.5068,-25.3435"/>
</g>
<!-- Node5 -->
<g id="node6" class="node">
<title>Node5</title>
<polygon fill="#ffffff" stroke="#bfbfbf" points="377.5,-.5 377.5,-19.5 454.5,-19.5 454.5,-.5 377.5,-.5"/>
<text text-anchor="middle" x="416" y="-7.5" font-family="Helvetica,sans-Serif" font-size="10.00" fill="#000000">periph_cpu.h</text>
</g>
<!-- Node2&#45;&gt;Node5 -->
<g id="edge5" class="edge">
<title>Node2&#45;&gt;Node5</title>
<path fill="none" stroke="#191970" d="M380.49,-56.2455C386.5326,-48.3761 395.1903,-37.101 402.4441,-27.6542"/>
<polygon fill="#191970" stroke="#191970" points="405.2815,-29.7058 408.5958,-19.6427 399.7295,-25.4426 405.2815,-29.7058"/>
</g>
<!-- Node6 -->
<g id="node7" class="node">
<title>Node6</title>
<polygon fill="#ffffff" stroke="#bfbfbf" points="472.5,-.5 472.5,-19.5 553.5,-19.5 553.5,-.5 472.5,-.5"/>
<text text-anchor="middle" x="513" y="-7.5" font-family="Helvetica,sans-Serif" font-size="10.00" fill="#000000">periph_conf.h</text>
</g>
<!-- Node2&#45;&gt;Node6 -->
<g id="edge6" class="edge">
<title>Node2&#45;&gt;Node6</title>
<path fill="none" stroke="#191970" d="M397.0669,-56.3733C419.8428,-47.2629 454.2344,-33.5062 479.649,-23.3404"/>
<polygon fill="#191970" stroke="#191970" points="481.2623,-26.4648 489.2472,-19.5011 478.6625,-19.9654 481.2623,-26.4648"/>
</g>
<!-- Node8 -->
<g id="node9" class="node">
<title>Node8</title>
<polygon fill="#ffffff" stroke="#bfbfbf" points="245,-56.5 245,-75.5 297,-75.5 297,-56.5 245,-56.5"/>
<text text-anchor="middle" x="271" y="-63.5" font-family="Helvetica,sans-Serif" font-size="10.00" fill="#000000">stdint.h</text>
</g>
<!-- Node7&#45;&gt;Node8 -->
<g id="edge8" class="edge">
<title>Node7&#45;&gt;Node8</title>
<path fill="none" stroke="#191970" d="M190.5028,-168.4509C205.3101,-149.6054 238.4833,-107.3849 257.2957,-83.4419"/>
<polygon fill="#191970" stroke="#191970" points="260.09,-85.5505 263.5162,-75.5249 254.5858,-81.2257 260.09,-85.5505"/>
</g>
<!-- Node9 -->
<g id="node10" class="node">
<title>Node9</title>
<polygon fill="#ffffff" stroke="#bfbfbf" points="161,-112.5 161,-131.5 205,-131.5 205,-112.5 161,-112.5"/>
<text text-anchor="middle" x="183" y="-119.5" font-family="Helvetica,sans-Serif" font-size="10.00" fill="#000000">saul.h</text>
</g>
<!-- Node7&#45;&gt;Node9 -->
<g id="edge9" class="edge">
<title>Node7&#45;&gt;Node9</title>
<path fill="none" stroke="#191970" d="M183,-168.2455C183,-160.9382 183,-150.6944 183,-141.7046"/>
<polygon fill="#191970" stroke="#191970" points="186.5001,-141.6426 183,-131.6427 179.5001,-141.6427 186.5001,-141.6426"/>
</g>
<!-- Node10 -->
<g id="node11" class="node">
<title>Node10</title>
<g id="a_node11"><a xlink:href="phydat_8h.html" target="_top" xlink:title="Generic data container for physical data interface. ">
<polygon fill="#ffffff" stroke="#000000" points="85,-112.5 85,-131.5 143,-131.5 143,-112.5 85,-112.5"/>
<text text-anchor="middle" x="114" y="-119.5" font-family="Helvetica,sans-Serif" font-size="10.00" fill="#000000">phydat.h</text>
</a>
</g>
</g>
<!-- Node7&#45;&gt;Node10 -->
<g id="edge10" class="edge">
<title>Node7&#45;&gt;Node10</title>
<path fill="none" stroke="#191970" d="M170.9811,-168.2455C160.7902,-159.9746 145.9638,-147.9416 133.9893,-138.2232"/>
<polygon fill="#191970" stroke="#191970" points="135.8514,-135.2268 125.8812,-131.6427 131.4402,-140.662 135.8514,-135.2268"/>
</g>
<!-- Node10&#45;&gt;Node8 -->
<g id="edge12" class="edge">
<title>Node10&#45;&gt;Node8</title>
<path fill="none" stroke="#191970" d="M140.9893,-112.3733C167.0268,-103.086 206.6011,-88.9703 235.2478,-78.7524"/>
<polygon fill="#191970" stroke="#191970" points="236.6417,-81.9712 244.8846,-75.315 234.29,-75.3781 236.6417,-81.9712"/>
</g>
<!-- Node11 -->
<g id="node12" class="node">
<title>Node11</title>
<polygon fill="#ffffff" stroke="#bfbfbf" points="0,-56.5 0,-75.5 56,-75.5 56,-56.5 0,-56.5"/>
<text text-anchor="middle" x="28" y="-63.5" font-family="Helvetica,sans-Serif" font-size="10.00" fill="#000000">stddef.h</text>
</g>
<!-- Node10&#45;&gt;Node11 -->
<g id="edge11" class="edge">
<title>Node10&#45;&gt;Node11</title>
<path fill="none" stroke="#191970" d="M99.0199,-112.2455C85.8249,-103.6534 66.3949,-91.0014 51.1921,-81.1018"/>
<polygon fill="#191970" stroke="#191970" points="53.0983,-78.1665 42.8084,-75.6427 49.2785,-84.0325 53.0983,-78.1665"/>
</g>
<!-- Node12 -->
<g id="node13" class="node">
<title>Node12</title>
<polygon fill="#ffffff" stroke="#bfbfbf" points="74.5,-56.5 74.5,-75.5 143.5,-75.5 143.5,-56.5 74.5,-56.5"/>
<text text-anchor="middle" x="109" y="-63.5" font-family="Helvetica,sans-Serif" font-size="10.00" fill="#000000">sys/types.h</text>
</g>
<!-- Node10&#45;&gt;Node12 -->
<g id="edge13" class="edge">
<title>Node10&#45;&gt;Node12</title>
<path fill="none" stroke="#191970" d="M113.1291,-112.2455C112.4766,-104.9382 111.562,-94.6944 110.7593,-85.7046"/>
<polygon fill="#191970" stroke="#191970" points="114.2365,-85.2918 109.861,-75.6427 107.2642,-85.9143 114.2365,-85.2918"/>
</g>
<!-- Node13 -->
<g id="node14" class="node">
<title>Node13</title>
<g id="a_node14"><a xlink:href="modules_8h.html" target="_top" xlink:title="Common macros and compiler attributes/pragmas configuration. ">
<polygon fill="#ffffff" stroke="#000000" points="161.5,-56.5 161.5,-75.5 226.5,-75.5 226.5,-56.5 161.5,-56.5"/>
<text text-anchor="middle" x="194" y="-63.5" font-family="Helvetica,sans-Serif" font-size="10.00" fill="#000000">modules.h</text>
</a>
</g>
</g>
<!-- Node10&#45;&gt;Node13 -->
<g id="edge14" class="edge">
<title>Node10&#45;&gt;Node13</title>
<path fill="none" stroke="#191970" d="M127.9349,-112.2455C140.0947,-103.7337 157.9464,-91.2375 172.0285,-81.3801"/>
<polygon fill="#191970" stroke="#191970" points="174.0395,-84.2447 180.2248,-75.6427 170.0253,-78.51 174.0395,-84.2447"/>
</g>
<!-- Node14&#45;&gt;Node8 -->
<g id="edge16" class="edge">
<title>Node14&#45;&gt;Node8</title>
<path fill="none" stroke="#191970" d="M276.4884,-168.4509C275.5099,-150.184 273.3547,-109.9553 272.0552,-85.6976"/>
<polygon fill="#191970" stroke="#191970" points="275.5403,-85.3233 271.5103,-75.5249 268.5503,-85.6978 275.5403,-85.3233"/>
</g>
<!-- Node14&#45;&gt;Node15 -->
<g id="edge17" class="edge">
<title>Node14&#45;&gt;Node15</title>
<path fill="none" stroke="#191970" d="M286.4061,-168.2455C294.1493,-160.2155 305.312,-148.6394 314.5318,-139.0781"/>
<polygon fill="#191970" stroke="#191970" points="317.2798,-141.2706 321.7017,-131.6427 312.2409,-136.4117 317.2798,-141.2706"/>
</g>
<!-- Node15&#45;&gt;Node2 -->
<g id="edge19" class="edge">
<title>Node15&#45;&gt;Node2</title>
<path fill="none" stroke="#191970" d="M338.3158,-112.2455C344.2179,-104.3761 352.6742,-93.101 359.7594,-83.6542"/>
<polygon fill="#191970" stroke="#191970" points="362.568,-85.7427 365.768,-75.6427 356.9679,-81.5427 362.568,-85.7427"/>
</g>
<!-- Node15&#45;&gt;Node8 -->
<g id="edge18" class="edge">
<title>Node15&#45;&gt;Node8</title>
<path fill="none" stroke="#191970" d="M320.5488,-112.2455C311.7731,-104.0549 299.0446,-92.1749 288.686,-82.5069"/>
<polygon fill="#191970" stroke="#191970" points="291.0301,-79.9072 281.3314,-75.6427 286.2539,-85.0246 291.0301,-79.9072"/>
</g>
</g>
</svg>
