<?xml version="1.0" encoding="UTF-8" standalone="no"?>
<!DOCTYPE svg PUBLIC "-//W3C//DTD SVG 1.1//EN"
 "http://www.w3.org/Graphics/SVG/1.1/DTD/svg11.dtd">
<!-- Generated by graphviz version 2.40.1 (0)
 -->
<!-- Title: boards/hifive1b/include/board.h Pages: 1 -->
<svg width="170pt" height="151pt"
 viewBox="0.00 0.00 169.50 151.00" xmlns="http://www.w3.org/2000/svg" xmlns:xlink="http://www.w3.org/1999/xlink">
<g id="graph0" class="graph" transform="scale(1 1) rotate(0) translate(4 147)">
<title>boards/hifive1b/include/board.h</title>
<polygon fill="#ffffff" stroke="transparent" points="-4,4 -4,-147 165.5,-147 165.5,4 -4,4"/>
<!-- Node0 -->
<g id="node1" class="node">
<title>Node0</title>
<polygon fill="#bfbfbf" stroke="#000000" points="2.5,-112.5 2.5,-142.5 129.5,-142.5 129.5,-112.5 2.5,-112.5"/>
<text text-anchor="start" x="10.5" y="-130.5" font-family="Helvetica,sans-Serif" font-size="10.00" fill="#000000">boards/hifive1b/include</text>
<text text-anchor="middle" x="66" y="-119.5" font-family="Helvetica,sans-Serif" font-size="10.00" fill="#000000">/board.h</text>
</g>
<!-- Node1 -->
<g id="node2" class="node">
<title>Node1</title>
<polygon fill="#ffffff" stroke="#bfbfbf" points="0,-56.5 0,-75.5 42,-75.5 42,-56.5 0,-56.5"/>
<text text-anchor="middle" x="21" y="-63.5" font-family="Helvetica,sans-Serif" font-size="10.00" fill="#000000">cpu.h</text>
</g>
<!-- Node0&#45;&gt;Node1 -->
<g id="edge1" class="edge">
<title>Node0&#45;&gt;Node1</title>
<path fill="none" stroke="#191970" d="M54.8764,-112.2977C48.6299,-103.7609 40.796,-93.0545 34.2353,-84.0883"/>
<polygon fill="#191970" stroke="#191970" points="36.9348,-81.8505 28.2051,-75.8469 31.2856,-85.984 36.9348,-81.8505"/>
</g>
<!-- Node2 -->
<g id="node3" class="node">
<title>Node2</title>
<g id="a_node3"><a xlink:href="arduino__pinmap_8h.html" target="_top" xlink:title="Compatibility wrapper for arduino_iomap.h. ">
<polygon fill="#ffffff" stroke="#000000" points="60.5,-56.5 60.5,-75.5 161.5,-75.5 161.5,-56.5 60.5,-56.5"/>
<text text-anchor="middle" x="111" y="-63.5" font-family="Helvetica,sans-Serif" font-size="10.00" fill="#000000">arduino_pinmap.h</text>
</a>
</g>
</g>
<!-- Node0&#45;&gt;Node2 -->
<g id="edge2" class="edge">
<title>Node0&#45;&gt;Node2</title>
<path fill="none" stroke="#191970" d="M77.1236,-112.2977C83.3701,-103.7609 91.204,-93.0545 97.7647,-84.0883"/>
<polygon fill="#191970" stroke="#191970" points="100.7144,-85.984 103.7949,-75.8469 95.0652,-81.8505 100.7144,-85.984"/>
</g>
<!-- Node3 -->
<g id="node4" class="node">
<title>Node3</title>
<polygon fill="#ffffff" stroke="#bfbfbf" points="63.5,-.5 63.5,-19.5 158.5,-19.5 158.5,-.5 63.5,-.5"/>
<text text-anchor="middle" x="111" y="-7.5" font-family="Helvetica,sans-Serif" font-size="10.00" fill="#000000">arduino_iomap.h</text>
</g>
<!-- Node2&#45;&gt;Node3 -->
<g id="edge3" class="edge">
<title>Node2&#45;&gt;Node3</title>
<path fill="none" stroke="#191970" d="M111,-56.2455C111,-48.9382 111,-38.6944 111,-29.7046"/>
<polygon fill="#191970" stroke="#191970" points="114.5001,-29.6426 111,-19.6427 107.5001,-29.6427 114.5001,-29.6426"/>
</g>
</g>
</svg>
