<?xml version="1.0" encoding="UTF-8" standalone="no"?>
<!DOCTYPE svg PUBLIC "-//W3C//DTD SVG 1.1//EN"
 "http://www.w3.org/Graphics/SVG/1.1/DTD/svg11.dtd">
<!-- Generated by graphviz version 2.40.1 (0)
 -->
<!-- Title: drivers/include/hts221.h Pages: 1 -->
<svg width="468pt" height="140pt"
 viewBox="0.00 0.00 467.50 140.00" xmlns="http://www.w3.org/2000/svg" xmlns:xlink="http://www.w3.org/1999/xlink">
<g id="graph0" class="graph" transform="scale(1 1) rotate(0) translate(4 136)">
<title>drivers/include/hts221.h</title>
<polygon fill="#ffffff" stroke="transparent" points="-4,4 -4,-136 463.5,-136 463.5,4 -4,4"/>
<!-- Node0 -->
<g id="node1" class="node">
<title>Node0</title>
<polygon fill="#bfbfbf" stroke="#000000" points="151.5,-112.5 151.5,-131.5 282.5,-131.5 282.5,-112.5 151.5,-112.5"/>
<text text-anchor="middle" x="217" y="-119.5" font-family="Helvetica,sans-Serif" font-size="10.00" fill="#000000">drivers/include/hts221.h</text>
</g>
<!-- Node1 -->
<g id="node2" class="node">
<title>Node1</title>
<polygon fill="#ffffff" stroke="#bfbfbf" points="0,-.5 0,-19.5 52,-19.5 52,-.5 0,-.5"/>
<text text-anchor="middle" x="26" y="-7.5" font-family="Helvetica,sans-Serif" font-size="10.00" fill="#000000">stdint.h</text>
</g>
<!-- Node0&#45;&gt;Node1 -->
<g id="edge1" class="edge">
<title>Node0&#45;&gt;Node1</title>
<path fill="none" stroke="#191970" d="M195.2676,-112.4339C175.918,-103.6672 147.0365,-89.9636 123,-76 95.8134,-60.2065 66.1459,-39.4634 46.8734,-25.4816"/>
<polygon fill="#191970" stroke="#191970" points="48.9344,-22.6527 38.7963,-19.5753 44.8025,-28.3032 48.9344,-22.6527"/>
</g>
<!-- Node2 -->
<g id="node3" class="node">
<title>Node2</title>
<g id="a_node3"><a xlink:href="i2c_8h.html" target="_top" xlink:title="Low&#45;level I2C peripheral driver interface definition. ">
<polygon fill="#ffffff" stroke="#000000" points="132.5,-56.5 132.5,-75.5 205.5,-75.5 205.5,-56.5 132.5,-56.5"/>
<text text-anchor="middle" x="169" y="-63.5" font-family="Helvetica,sans-Serif" font-size="10.00" fill="#000000">periph/i2c.h</text>
</a>
</g>
</g>
<!-- Node0&#45;&gt;Node2 -->
<g id="edge2" class="edge">
<title>Node0&#45;&gt;Node2</title>
<path fill="none" stroke="#191970" d="M208.639,-112.2455C201.825,-104.2958 192.0319,-92.8706 183.8848,-83.3656"/>
<polygon fill="#191970" stroke="#191970" points="186.4305,-80.9575 177.2651,-75.6427 181.1157,-85.513 186.4305,-80.9575"/>
</g>
<!-- Node7 -->
<g id="node8" class="node">
<title>Node7</title>
<g id="a_node8"><a xlink:href="hts221__regs_8h.html" target="_top" xlink:title="Register definitions for ST HTS221 devices. ">
<polygon fill="#ffffff" stroke="#000000" points="223.5,-56.5 223.5,-75.5 306.5,-75.5 306.5,-56.5 223.5,-56.5"/>
<text text-anchor="middle" x="265" y="-63.5" font-family="Helvetica,sans-Serif" font-size="10.00" fill="#000000">hts221_regs.h</text>
</a>
</g>
</g>
<!-- Node0&#45;&gt;Node7 -->
<g id="edge8" class="edge">
<title>Node0&#45;&gt;Node7</title>
<path fill="none" stroke="#191970" d="M220.0941,-112.2455C225.4797,-104.1352 235.2062,-92.4075 244.3626,-82.7919"/>
<polygon fill="#191970" stroke="#191970" points="246.9083,-85.1958 251.4897,-75.6427 241.9509,-80.2536 246.9083,-85.1958"/>
</g>
<!-- Node2&#45;&gt;Node1 -->
<g id="edge3" class="edge">
<title>Node2&#45;&gt;Node1</title>
<path fill="none" stroke="#191970" d="M144.4174,-56.3733C121.0504,-47.2226 85.7138,-33.3844 59.7216,-23.2057"/>
<polygon fill="#191970" stroke="#191970" points="60.8495,-19.8886 50.2618,-19.5011 58.297,-26.4066 60.8495,-19.8886"/>
</g>
<!-- Node3 -->
<g id="node4" class="node">
<title>Node3</title>
<polygon fill="#ffffff" stroke="#bfbfbf" points="70,-.5 70,-19.5 126,-19.5 126,-.5 70,-.5"/>
<text text-anchor="middle" x="98" y="-7.5" font-family="Helvetica,sans-Serif" font-size="10.00" fill="#000000">stddef.h</text>
</g>
<!-- Node2&#45;&gt;Node3 -->
<g id="edge4" class="edge">
<title>Node2&#45;&gt;Node3</title>
<path fill="none" stroke="#191970" d="M156.6327,-56.2455C146.0446,-47.8943 130.5936,-35.7076 118.2107,-25.9408"/>
<polygon fill="#191970" stroke="#191970" points="120.2447,-23.0875 110.2255,-19.6427 115.9097,-28.5837 120.2447,-23.0875"/>
</g>
<!-- Node4 -->
<g id="node5" class="node">
<title>Node4</title>
<polygon fill="#ffffff" stroke="#bfbfbf" points="144,-.5 144,-19.5 194,-19.5 194,-.5 144,-.5"/>
<text text-anchor="middle" x="169" y="-7.5" font-family="Helvetica,sans-Serif" font-size="10.00" fill="#000000">limits.h</text>
</g>
<!-- Node2&#45;&gt;Node4 -->
<g id="edge5" class="edge">
<title>Node2&#45;&gt;Node4</title>
<path fill="none" stroke="#191970" d="M169,-56.2455C169,-48.9382 169,-38.6944 169,-29.7046"/>
<polygon fill="#191970" stroke="#191970" points="172.5001,-29.6426 169,-19.6427 165.5001,-29.6427 172.5001,-29.6426"/>
</g>
<!-- Node5 -->
<g id="node6" class="node">
<title>Node5</title>
<polygon fill="#ffffff" stroke="#bfbfbf" points="212.5,-.5 212.5,-19.5 293.5,-19.5 293.5,-.5 212.5,-.5"/>
<text text-anchor="middle" x="253" y="-7.5" font-family="Helvetica,sans-Serif" font-size="10.00" fill="#000000">periph_conf.h</text>
</g>
<!-- Node2&#45;&gt;Node5 -->
<g id="edge6" class="edge">
<title>Node2&#45;&gt;Node5</title>
<path fill="none" stroke="#191970" d="M183.6317,-56.2455C196.3994,-47.7337 215.1438,-35.2375 229.9299,-25.3801"/>
<polygon fill="#191970" stroke="#191970" points="232.1569,-28.1019 238.536,-19.6427 228.274,-22.2775 232.1569,-28.1019"/>
</g>
<!-- Node6 -->
<g id="node7" class="node">
<title>Node6</title>
<polygon fill="#ffffff" stroke="#bfbfbf" points="311.5,-.5 311.5,-19.5 388.5,-19.5 388.5,-.5 311.5,-.5"/>
<text text-anchor="middle" x="350" y="-7.5" font-family="Helvetica,sans-Serif" font-size="10.00" fill="#000000">periph_cpu.h</text>
</g>
<!-- Node2&#45;&gt;Node6 -->
<g id="edge7" class="edge">
<title>Node2&#45;&gt;Node6</title>
<path fill="none" stroke="#191970" d="M200.115,-56.3733C230.3429,-47.021 276.396,-32.7725 309.4739,-22.5385"/>
<polygon fill="#191970" stroke="#191970" points="310.7723,-25.8005 319.291,-19.5011 308.7033,-19.1133 310.7723,-25.8005"/>
</g>
<!-- Node7&#45;&gt;Node0 -->
<g id="edge10" class="edge">
<title>Node7&#45;&gt;Node0</title>
<path fill="none" stroke="#191970" d="M261.98,-75.6427C256.6344,-83.7196 246.9254,-95.4402 237.7639,-105.0751"/>
<polygon fill="#191970" stroke="#191970" points="235.2011,-102.6886 230.6278,-112.2455 240.1628,-107.6265 235.2011,-102.6886"/>
</g>
<!-- Node8 -->
<g id="node9" class="node">
<title>Node8</title>
<polygon fill="#ffffff" stroke="#bfbfbf" points="406.5,-.5 406.5,-19.5 459.5,-19.5 459.5,-.5 406.5,-.5"/>
<text text-anchor="middle" x="433" y="-7.5" font-family="Helvetica,sans-Serif" font-size="10.00" fill="#000000">board.h</text>
</g>
<!-- Node7&#45;&gt;Node8 -->
<g id="edge9" class="edge">
<title>Node7&#45;&gt;Node8</title>
<path fill="none" stroke="#191970" d="M293.8802,-56.3733C322.4087,-46.8638 366.1237,-32.2921 396.9226,-22.0258"/>
<polygon fill="#191970" stroke="#191970" points="398.0528,-25.3385 406.4328,-18.8557 395.8391,-18.6977 398.0528,-25.3385"/>
</g>
</g>
</svg>
