<?xml version="1.0" encoding="UTF-8" standalone="no"?>
<!DOCTYPE svg PUBLIC "-//W3C//DTD SVG 1.1//EN"
 "http://www.w3.org/Graphics/SVG/1.1/DTD/svg11.dtd">
<!-- Generated by graphviz version 2.40.1 (0)
 -->
<!-- Title: sys/include/net/skald/ibeacon.h Pages: 1 -->
<svg width="1340pt" height="655pt"
 viewBox="0.00 0.00 1339.50 655.00" xmlns="http://www.w3.org/2000/svg" xmlns:xlink="http://www.w3.org/1999/xlink">
<g id="graph0" class="graph" transform="scale(1 1) rotate(0) translate(4 651)">
<title>sys/include/net/skald/ibeacon.h</title>
<polygon fill="#ffffff" stroke="transparent" points="-4,4 -4,-651 1335.5,-651 1335.5,4 -4,4"/>
<!-- Node0 -->
<g id="node1" class="node">
<title>Node0</title>
<polygon fill="#bfbfbf" stroke="#000000" points="1149,-616.5 1149,-646.5 1263,-646.5 1263,-616.5 1149,-616.5"/>
<text text-anchor="start" x="1157" y="-634.5" font-family="Helvetica,sans-Serif" font-size="10.00" fill="#000000">sys/include/net/skald</text>
<text text-anchor="middle" x="1206" y="-623.5" font-family="Helvetica,sans-Serif" font-size="10.00" fill="#000000">/ibeacon.h</text>
</g>
<!-- Node1 -->
<g id="node2" class="node">
<title>Node1</title>
<g id="a_node2"><a xlink:href="skald_8h.html" target="_top" xlink:title="Skald&#39;s basic interface. ">
<polygon fill="#ffffff" stroke="#000000" points="1172,-560.5 1172,-579.5 1240,-579.5 1240,-560.5 1172,-560.5"/>
<text text-anchor="middle" x="1206" y="-567.5" font-family="Helvetica,sans-Serif" font-size="10.00" fill="#000000">net/skald.h</text>
</a>
</g>
</g>
<!-- Node0&#45;&gt;Node1 -->
<g id="edge1" class="edge">
<title>Node0&#45;&gt;Node1</title>
<path fill="none" stroke="#191970" d="M1206,-616.2977C1206,-608.3834 1206,-598.6043 1206,-590.0759"/>
<polygon fill="#191970" stroke="#191970" points="1209.5001,-589.8469 1206,-579.8469 1202.5001,-589.847 1209.5001,-589.8469"/>
</g>
<!-- Node2 -->
<g id="node3" class="node">
<title>Node2</title>
<polygon fill="#ffffff" stroke="#bfbfbf" points="493,-.5 493,-19.5 545,-19.5 545,-.5 493,-.5"/>
<text text-anchor="middle" x="519" y="-7.5" font-family="Helvetica,sans-Serif" font-size="10.00" fill="#000000">stdint.h</text>
</g>
<!-- Node1&#45;&gt;Node2 -->
<g id="edge2" class="edge">
<title>Node1&#45;&gt;Node2</title>
<path fill="none" stroke="#191970" d="M1211.607,-560.4834C1222.1774,-541.6141 1244,-497.8343 1244,-458 1244,-458 1244,-458 1244,-234 1244,-203.4754 1246.9445,-189.2177 1225,-168 1177.8835,-122.4441 1144.5161,-151.6736 1082,-132 991.2951,-103.4554 974.2599,-79.0277 882,-56 764.9406,-26.7824 621.7726,-15.5988 555.6676,-11.7721"/>
<polygon fill="#191970" stroke="#191970" points="555.5405,-8.2597 545.3617,-11.1996 555.1522,-15.249 555.5405,-8.2597"/>
</g>
<!-- Node3 -->
<g id="node4" class="node">
<title>Node3</title>
<g id="a_node4"><a xlink:href="ztimer_8h.html" target="_top" xlink:title="ztimer API ">
<polygon fill="#ffffff" stroke="#000000" points="436.5,-504.5 436.5,-523.5 491.5,-523.5 491.5,-504.5 436.5,-504.5"/>
<text text-anchor="middle" x="464" y="-511.5" font-family="Helvetica,sans-Serif" font-size="10.00" fill="#000000">ztimer.h</text>
</a>
</g>
</g>
<!-- Node1&#45;&gt;Node3 -->
<g id="edge3" class="edge">
<title>Node1&#45;&gt;Node3</title>
<path fill="none" stroke="#191970" d="M1171.6999,-567.4113C1048.7512,-558.1322 630.6171,-526.5749 501.9751,-516.866"/>
<polygon fill="#191970" stroke="#191970" points="502.0602,-513.3626 491.8251,-516.1 501.5333,-520.3428 502.0602,-513.3626"/>
</g>
<!-- Node30 -->
<g id="node31" class="node">
<title>Node30</title>
<g id="a_node31"><a xlink:href="sys_2include_2net_2ble_8h.html" target="_top" xlink:title="General BLE values as defined by the BT standard. ">
<polygon fill="#ffffff" stroke="#000000" points="1272.5,-504.5 1272.5,-523.5 1331.5,-523.5 1331.5,-504.5 1272.5,-504.5"/>
<text text-anchor="middle" x="1302" y="-511.5" font-family="Helvetica,sans-Serif" font-size="10.00" fill="#000000">net/ble.h</text>
</a>
</g>
</g>
<!-- Node1&#45;&gt;Node30 -->
<g id="edge57" class="edge">
<title>Node1&#45;&gt;Node30</title>
<path fill="none" stroke="#191970" d="M1222.7219,-560.2455C1237.5889,-551.5731 1259.5466,-538.7645 1276.5858,-528.825"/>
<polygon fill="#191970" stroke="#191970" points="1278.5955,-531.7047 1285.4697,-523.6427 1275.0683,-525.6582 1278.5955,-531.7047"/>
</g>
<!-- Node31 -->
<g id="node32" class="node">
<title>Node31</title>
<g id="a_node32"><a xlink:href="drivers_2include_2net_2netdev_2ble_8h.html" target="_top" xlink:title="BLE specific adaption for the Netdev API. ">
<polygon fill="#ffffff" stroke="#000000" points="1120,-392.5 1120,-411.5 1216,-411.5 1216,-392.5 1120,-392.5"/>
<text text-anchor="middle" x="1168" y="-399.5" font-family="Helvetica,sans-Serif" font-size="10.00" fill="#000000">net/netdev/ble.h</text>
</a>
</g>
</g>
<!-- Node1&#45;&gt;Node31 -->
<g id="edge58" class="edge">
<title>Node1&#45;&gt;Node31</title>
<path fill="none" stroke="#191970" d="M1203.8481,-560.4862C1197.8152,-533.8144 1180.6467,-457.9117 1172.4548,-421.695"/>
<polygon fill="#191970" stroke="#191970" points="1175.843,-420.8093 1170.223,-411.8279 1169.0155,-422.3537 1175.843,-420.8093"/>
</g>
<!-- Node3&#45;&gt;Node2 -->
<g id="edge4" class="edge">
<title>Node3&#45;&gt;Node2</title>
<path fill="none" stroke="#191970" d="M436.3642,-513.3C336.4736,-510.0337 0,-492.3273 0,-402 0,-402 0,-402 0,-122 0,-81.7538 25.9102,-73.8123 62,-56 135.8443,-19.5538 388.005,-11.9746 482.685,-10.4064"/>
<polygon fill="#191970" stroke="#191970" points="482.9653,-13.9026 492.9108,-10.2505 482.8586,-6.9034 482.9653,-13.9026"/>
</g>
<!-- Node4 -->
<g id="node5" class="node">
<title>Node4</title>
<g id="a_node5"><a xlink:href="mbox_8h.html" target="_top" xlink:title="Mailbox API. ">
<polygon fill="#ffffff" stroke="#000000" points="172,-336.5 172,-355.5 224,-355.5 224,-336.5 172,-336.5"/>
<text text-anchor="middle" x="198" y="-343.5" font-family="Helvetica,sans-Serif" font-size="10.00" fill="#000000">mbox.h</text>
</a>
</g>
</g>
<!-- Node3&#45;&gt;Node4 -->
<g id="edge5" class="edge">
<title>Node3&#45;&gt;Node4</title>
<path fill="none" stroke="#191970" d="M440.6573,-504.3623C420.6195,-495.7555 391.2245,-482.3254 367,-468 310.0579,-434.3267 248.2594,-386.5318 217.5784,-361.956"/>
<polygon fill="#191970" stroke="#191970" points="219.7624,-359.221 209.7799,-355.6712 215.3699,-364.6713 219.7624,-359.221"/>
</g>
<!-- Node10 -->
<g id="node11" class="node">
<title>Node10</title>
<g id="a_node11"><a xlink:href="sched_8h.html" target="_top" xlink:title="Scheduler API definition. ">
<polygon fill="#ffffff" stroke="#000000" points="689.5,-224.5 689.5,-243.5 742.5,-243.5 742.5,-224.5 689.5,-224.5"/>
<text text-anchor="middle" x="716" y="-231.5" font-family="Helvetica,sans-Serif" font-size="10.00" fill="#000000">sched.h</text>
</a>
</g>
</g>
<!-- Node3&#45;&gt;Node10 -->
<g id="edge56" class="edge">
<title>Node3&#45;&gt;Node10</title>
<path fill="none" stroke="#191970" d="M491.5987,-507.7726C556.4289,-492.3469 713,-450.1119 713,-402 713,-402 713,-402 713,-346 713,-313.7 714.2622,-276.1791 715.1492,-253.8005"/>
<polygon fill="#191970" stroke="#191970" points="718.6553,-253.7217 715.5702,-243.5861 711.6613,-253.4334 718.6553,-253.7217"/>
</g>
<!-- Node20 -->
<g id="node21" class="node">
<title>Node20</title>
<polygon fill="#ffffff" stroke="#bfbfbf" points="492.5,-448.5 492.5,-467.5 537.5,-467.5 537.5,-448.5 492.5,-448.5"/>
<text text-anchor="middle" x="515" y="-455.5" font-family="Helvetica,sans-Serif" font-size="10.00" fill="#000000">msg.h</text>
</g>
<!-- Node3&#45;&gt;Node20 -->
<g id="edge31" class="edge">
<title>Node3&#45;&gt;Node20</title>
<path fill="none" stroke="#191970" d="M472.8835,-504.2455C480.1966,-496.2155 490.7391,-484.6394 499.4467,-475.0781"/>
<polygon fill="#191970" stroke="#191970" points="502.0727,-477.3928 506.2183,-467.6427 496.8972,-472.6795 502.0727,-477.3928"/>
</g>
<!-- Node21 -->
<g id="node22" class="node">
<title>Node21</title>
<g id="a_node22"><a xlink:href="mutex_8h.html" target="_top" xlink:title="Mutex for thread synchronization. ">
<polygon fill="#ffffff" stroke="#000000" points="407,-392.5 407,-411.5 463,-411.5 463,-392.5 407,-392.5"/>
<text text-anchor="middle" x="435" y="-399.5" font-family="Helvetica,sans-Serif" font-size="10.00" fill="#000000">mutex.h</text>
</a>
</g>
</g>
<!-- Node3&#45;&gt;Node21 -->
<g id="edge32" class="edge">
<title>Node3&#45;&gt;Node21</title>
<path fill="none" stroke="#191970" d="M461.5275,-504.4509C456.7762,-486.1013 446.2869,-445.5908 440.0153,-421.3693"/>
<polygon fill="#191970" stroke="#191970" points="443.3612,-420.3283 437.4663,-411.5249 436.5847,-422.083 443.3612,-420.3283"/>
</g>
<!-- Node29 -->
<g id="node30" class="node">
<title>Node29</title>
<g id="a_node30"><a xlink:href="rmutex_8h.html" target="_top" xlink:title="Recursive Mutex for thread synchronization. ">
<polygon fill="#ffffff" stroke="#000000" points="376,-448.5 376,-467.5 436,-467.5 436,-448.5 376,-448.5"/>
<text text-anchor="middle" x="406" y="-455.5" font-family="Helvetica,sans-Serif" font-size="10.00" fill="#000000">rmutex.h</text>
</a>
</g>
</g>
<!-- Node3&#45;&gt;Node29 -->
<g id="edge52" class="edge">
<title>Node3&#45;&gt;Node29</title>
<path fill="none" stroke="#191970" d="M453.8972,-504.2455C445.4972,-496.1352 433.3506,-484.4075 423.3916,-474.7919"/>
<polygon fill="#191970" stroke="#191970" points="425.6122,-472.0707 415.9871,-467.6427 420.75,-477.1066 425.6122,-472.0707"/>
</g>
<!-- Node5 -->
<g id="node6" class="node">
<title>Node5</title>
<g id="a_node6"><a xlink:href="list_8h.html" target="_top" xlink:title="Intrusive linked list. ">
<polygon fill="#ffffff" stroke="#000000" points="124,-112.5 124,-131.5 162,-131.5 162,-112.5 124,-112.5"/>
<text text-anchor="middle" x="143" y="-119.5" font-family="Helvetica,sans-Serif" font-size="10.00" fill="#000000">list.h</text>
</a>
</g>
</g>
<!-- Node4&#45;&gt;Node5 -->
<g id="edge6" class="edge">
<title>Node4&#45;&gt;Node5</title>
<path fill="none" stroke="#191970" d="M195.6367,-336.375C187.2979,-302.4133 159.1433,-187.7472 147.7976,-141.5392"/>
<polygon fill="#191970" stroke="#191970" points="151.1381,-140.4661 145.3545,-131.5891 144.34,-142.1353 151.1381,-140.4661"/>
</g>
<!-- Node6 -->
<g id="node7" class="node">
<title>Node6</title>
<g id="a_node7"><a xlink:href="cib_8h.html" target="_top" xlink:title="Circular integer buffer interface. ">
<polygon fill="#ffffff" stroke="#000000" points="209,-280.5 209,-299.5 247,-299.5 247,-280.5 209,-280.5"/>
<text text-anchor="middle" x="228" y="-287.5" font-family="Helvetica,sans-Serif" font-size="10.00" fill="#000000">cib.h</text>
</a>
</g>
</g>
<!-- Node4&#45;&gt;Node6 -->
<g id="edge7" class="edge">
<title>Node4&#45;&gt;Node6</title>
<path fill="none" stroke="#191970" d="M203.2256,-336.2455C207.3123,-328.617 213.1135,-317.7881 218.075,-308.5267"/>
<polygon fill="#191970" stroke="#191970" points="221.1972,-310.1103 222.8343,-299.6427 215.0268,-306.8047 221.1972,-310.1103"/>
</g>
<!-- Node8 -->
<g id="node9" class="node">
<title>Node8</title>
<g id="a_node9"><a xlink:href="core_2include_2msg_8h.html" target="_top" xlink:title="Messaging API for inter process communication. ">
<polygon fill="#ffffff" stroke="#000000" points="463.5,-280.5 463.5,-299.5 508.5,-299.5 508.5,-280.5 463.5,-280.5"/>
<text text-anchor="middle" x="486" y="-287.5" font-family="Helvetica,sans-Serif" font-size="10.00" fill="#000000">msg.h</text>
</a>
</g>
</g>
<!-- Node4&#45;&gt;Node8 -->
<g id="edge10" class="edge">
<title>Node4&#45;&gt;Node8</title>
<path fill="none" stroke="#191970" d="M224.066,-340.9316C276.728,-330.6918 395.6859,-307.5611 453.3882,-296.3412"/>
<polygon fill="#191970" stroke="#191970" points="454.2718,-299.735 463.4199,-294.3906 452.9357,-292.8637 454.2718,-299.735"/>
</g>
<!-- Node7 -->
<g id="node8" class="node">
<title>Node7</title>
<g id="a_node8"><a xlink:href="assert_8h.html" target="_top" xlink:title="POSIX.1&#45;2008 compliant version of the assert macro. ">
<polygon fill="#ffffff" stroke="#000000" points="218,-56.5 218,-75.5 272,-75.5 272,-56.5 218,-56.5"/>
<text text-anchor="middle" x="245" y="-63.5" font-family="Helvetica,sans-Serif" font-size="10.00" fill="#000000">assert.h</text>
</a>
</g>
</g>
<!-- Node6&#45;&gt;Node7 -->
<g id="edge8" class="edge">
<title>Node6&#45;&gt;Node7</title>
<path fill="none" stroke="#191970" d="M228.7305,-280.375C231.3025,-246.4851 239.9735,-132.2317 243.4948,-85.8332"/>
<polygon fill="#191970" stroke="#191970" points="247.0054,-85.8254 244.2723,-75.5891 240.0254,-85.2956 247.0054,-85.8254"/>
</g>
<!-- Node7&#45;&gt;Node2 -->
<g id="edge9" class="edge">
<title>Node7&#45;&gt;Node2</title>
<path fill="none" stroke="#191970" d="M272.3079,-59.1611C276.8719,-58.0694 281.564,-56.9784 286,-56 355.2931,-40.7174 436.7182,-25.1941 482.6494,-16.6601"/>
<polygon fill="#191970" stroke="#191970" points="483.5186,-20.0587 492.7142,-14.7965 482.244,-13.1757 483.5186,-20.0587"/>
</g>
<!-- Node8&#45;&gt;Node2 -->
<g id="edge11" class="edge">
<title>Node8&#45;&gt;Node2</title>
<path fill="none" stroke="#191970" d="M463.2992,-286.0336C422.2943,-278.5317 337.9082,-261.4462 314,-244 236.6904,-187.586 146.4904,-128.4697 209,-56 226.6917,-35.4894 404.4334,-19.0543 482.5253,-12.7648"/>
<polygon fill="#191970" stroke="#191970" points="483.1641,-16.2252 492.856,-11.9453 482.6105,-9.2471 483.1641,-16.2252"/>
</g>
<!-- Node9 -->
<g id="node10" class="node">
<title>Node9</title>
<polygon fill="#ffffff" stroke="#bfbfbf" points="869,-112.5 869,-131.5 929,-131.5 929,-112.5 869,-112.5"/>
<text text-anchor="middle" x="899" y="-119.5" font-family="Helvetica,sans-Serif" font-size="10.00" fill="#000000">stdbool.h</text>
</g>
<!-- Node8&#45;&gt;Node9 -->
<g id="edge12" class="edge">
<title>Node8&#45;&gt;Node9</title>
<path fill="none" stroke="#191970" d="M503.4774,-280.4085C554.6125,-252.3668 701.0277,-172.2318 712,-168 760.8995,-149.1406 820.0317,-136.1296 858.5286,-128.8762"/>
<polygon fill="#191970" stroke="#191970" points="859.6127,-132.2355 868.8139,-126.9829 858.3455,-125.3511 859.6127,-132.2355"/>
</g>
<!-- Node8&#45;&gt;Node10 -->
<g id="edge13" class="edge">
<title>Node8&#45;&gt;Node10</title>
<path fill="none" stroke="#191970" d="M508.6686,-283.7526C513.3974,-282.4833 518.3559,-281.1772 523,-280 590.296,-262.9412 607.4982,-260.2254 675,-244 676.4248,-243.6575 677.8771,-243.3075 679.3441,-242.9533"/>
<polygon fill="#191970" stroke="#191970" points="680.2061,-246.3458 689.1,-240.5882 678.5568,-239.5428 680.2061,-246.3458"/>
</g>
<!-- Node11 -->
<g id="node12" class="node">
<title>Node11</title>
<polygon fill="#ffffff" stroke="#bfbfbf" points="1109,-.5 1109,-19.5 1165,-19.5 1165,-.5 1109,-.5"/>
<text text-anchor="middle" x="1137" y="-7.5" font-family="Helvetica,sans-Serif" font-size="10.00" fill="#000000">stddef.h</text>
</g>
<!-- Node10&#45;&gt;Node11 -->
<g id="edge14" class="edge">
<title>Node10&#45;&gt;Node11</title>
<path fill="none" stroke="#191970" d="M742.6396,-226.1737C745.78,-225.3779 748.9511,-224.6316 752,-224 866.2327,-200.336 899.162,-217.6085 1012,-188 1044.81,-179.3907 1132.2892,-158.0626 1154,-132 1175.8446,-105.7769 1174.2151,-88.8622 1165,-56 1162.2122,-46.0584 1156.6188,-36.1336 1151.1593,-28.0613"/>
<polygon fill="#191970" stroke="#191970" points="1153.9048,-25.8849 1145.2089,-19.8323 1148.2324,-29.9866 1153.9048,-25.8849"/>
</g>
<!-- Node12 -->
<g id="node13" class="node">
<title>Node12</title>
<g id="a_node13"><a xlink:href="inttypes_8h.html" target="_top" xlink:title="Adds include for missing inttype definitions. ">
<polygon fill="#ffffff" stroke="#000000" points="488.5,-168.5 488.5,-187.5 551.5,-187.5 551.5,-168.5 488.5,-168.5"/>
<text text-anchor="middle" x="520" y="-175.5" font-family="Helvetica,sans-Serif" font-size="10.00" fill="#000000">inttypes.h</text>
</a>
</g>
</g>
<!-- Node10&#45;&gt;Node12 -->
<g id="edge15" class="edge">
<title>Node10&#45;&gt;Node12</title>
<path fill="none" stroke="#191970" d="M689.158,-226.3309C656.2431,-216.9266 600.0929,-200.8837 561.5773,-189.8792"/>
<polygon fill="#191970" stroke="#191970" points="562.2803,-186.4401 551.7035,-187.0581 560.3572,-193.1708 562.2803,-186.4401"/>
</g>
<!-- Node13 -->
<g id="node14" class="node">
<title>Node13</title>
<g id="a_node14"><a xlink:href="kernel__defines_8h.html" target="_top" xlink:title="Common macros and compiler attributes/pragmas configuration. ">
<polygon fill="#ffffff" stroke="#000000" points="569.5,-168.5 569.5,-187.5 664.5,-187.5 664.5,-168.5 569.5,-168.5"/>
<text text-anchor="middle" x="617" y="-175.5" font-family="Helvetica,sans-Serif" font-size="10.00" fill="#000000">kernel_defines.h</text>
</a>
</g>
</g>
<!-- Node10&#45;&gt;Node13 -->
<g id="edge16" class="edge">
<title>Node10&#45;&gt;Node13</title>
<path fill="none" stroke="#191970" d="M698.7555,-224.2455C683.4239,-215.5731 660.7801,-202.7645 643.2084,-192.825"/>
<polygon fill="#191970" stroke="#191970" points="644.4741,-189.5198 634.0469,-187.6427 641.0276,-195.6126 644.4741,-189.5198"/>
</g>
<!-- Node18 -->
<g id="node19" class="node">
<title>Node18</title>
<g id="a_node19"><a xlink:href="native__sched_8h.html" target="_top" xlink:title="Add definitions required on the native board. ">
<polygon fill="#ffffff" stroke="#000000" points="721,-168.5 721,-187.5 807,-187.5 807,-168.5 721,-168.5"/>
<text text-anchor="middle" x="764" y="-175.5" font-family="Helvetica,sans-Serif" font-size="10.00" fill="#000000">native_sched.h</text>
</a>
</g>
</g>
<!-- Node10&#45;&gt;Node18 -->
<g id="edge26" class="edge">
<title>Node10&#45;&gt;Node18</title>
<path fill="none" stroke="#191970" d="M724.361,-224.2455C731.175,-216.2958 740.9681,-204.8706 749.1152,-195.3656"/>
<polygon fill="#191970" stroke="#191970" points="751.8843,-197.513 755.7349,-187.6427 746.5695,-192.9575 751.8843,-197.513"/>
</g>
<!-- Node19 -->
<g id="node20" class="node">
<title>Node19</title>
<g id="a_node20"><a xlink:href="clist_8h.html" target="_top" xlink:title="Circular linked list. ">
<polygon fill="#ffffff" stroke="#000000" points="825.5,-168.5 825.5,-187.5 868.5,-187.5 868.5,-168.5 825.5,-168.5"/>
<text text-anchor="middle" x="847" y="-175.5" font-family="Helvetica,sans-Serif" font-size="10.00" fill="#000000">clist.h</text>
</a>
</g>
</g>
<!-- Node10&#45;&gt;Node19 -->
<g id="edge27" class="edge">
<title>Node10&#45;&gt;Node19</title>
<path fill="none" stroke="#191970" d="M738.5197,-224.3733C759.8658,-215.2482 792.1158,-201.462 815.9077,-191.2913"/>
<polygon fill="#191970" stroke="#191970" points="817.3901,-194.4641 825.2095,-187.315 814.6386,-188.0275 817.3901,-194.4641"/>
</g>
<!-- Node14 -->
<g id="node15" class="node">
<title>Node14</title>
<g id="a_node15"><a xlink:href="modules_8h.html" target="_top" xlink:title="Common macros and compiler attributes/pragmas configuration. ">
<polygon fill="#ffffff" stroke="#000000" points="584.5,-112.5 584.5,-131.5 649.5,-131.5 649.5,-112.5 584.5,-112.5"/>
<text text-anchor="middle" x="617" y="-119.5" font-family="Helvetica,sans-Serif" font-size="10.00" fill="#000000">modules.h</text>
</a>
</g>
</g>
<!-- Node13&#45;&gt;Node14 -->
<g id="edge17" class="edge">
<title>Node13&#45;&gt;Node14</title>
<path fill="none" stroke="#191970" d="M617,-168.2455C617,-160.9382 617,-150.6944 617,-141.7046"/>
<polygon fill="#191970" stroke="#191970" points="620.5001,-141.6426 617,-131.6427 613.5001,-141.6427 620.5001,-141.6426"/>
</g>
<!-- Node15 -->
<g id="node16" class="node">
<title>Node15</title>
<g id="a_node16"><a xlink:href="riot__version_8h.html" target="_top" xlink:title="Common macros and compiler attributes/pragmas configuration. ">
<polygon fill="#ffffff" stroke="#000000" points="514.5,-56.5 514.5,-75.5 595.5,-75.5 595.5,-56.5 514.5,-56.5"/>
<text text-anchor="middle" x="555" y="-63.5" font-family="Helvetica,sans-Serif" font-size="10.00" fill="#000000">riot_version.h</text>
</a>
</g>
</g>
<!-- Node13&#45;&gt;Node15 -->
<g id="edge18" class="edge">
<title>Node13&#45;&gt;Node15</title>
<path fill="none" stroke="#191970" d="M605.8604,-168.4674C596.4091,-159.8261 583.1262,-146.2884 575,-132 566.8614,-117.6897 561.6957,-99.7117 558.6572,-86.1342"/>
<polygon fill="#191970" stroke="#191970" points="562.0074,-85.0444 556.5867,-75.9413 555.1475,-86.4379 562.0074,-85.0444"/>
</g>
<!-- Node16 -->
<g id="node17" class="node">
<title>Node16</title>
<g id="a_node17"><a xlink:href="compiler__hints_8h.html" target="_top" xlink:title="Common macros and compiler attributes/pragmas configuration. ">
<polygon fill="#ffffff" stroke="#000000" points="434.5,-112.5 434.5,-131.5 527.5,-131.5 527.5,-112.5 434.5,-112.5"/>
<text text-anchor="middle" x="481" y="-119.5" font-family="Helvetica,sans-Serif" font-size="10.00" fill="#000000">compiler_hints.h</text>
</a>
</g>
</g>
<!-- Node13&#45;&gt;Node16 -->
<g id="edge20" class="edge">
<title>Node13&#45;&gt;Node16</title>
<path fill="none" stroke="#191970" d="M593.6208,-168.3733C571.4955,-159.2629 538.0866,-145.5062 513.3981,-135.3404"/>
<polygon fill="#191970" stroke="#191970" points="514.6536,-132.0723 504.0742,-131.5011 511.9883,-138.5451 514.6536,-132.0723"/>
</g>
<!-- Node17 -->
<g id="node18" class="node">
<title>Node17</title>
<g id="a_node18"><a xlink:href="container_8h.html" target="_top" xlink:title="Common macros and compiler attributes/pragmas configuration. ">
<polygon fill="#ffffff" stroke="#000000" points="643.5,-56.5 643.5,-75.5 712.5,-75.5 712.5,-56.5 643.5,-56.5"/>
<text text-anchor="middle" x="678" y="-63.5" font-family="Helvetica,sans-Serif" font-size="10.00" fill="#000000">container.h</text>
</a>
</g>
</g>
<!-- Node13&#45;&gt;Node17 -->
<g id="edge23" class="edge">
<title>Node13&#45;&gt;Node17</title>
<path fill="none" stroke="#191970" d="M627.8638,-168.415C637.0833,-159.7402 650.0461,-146.1827 658,-132 666.0527,-117.6412 671.2248,-99.6668 674.2875,-86.103"/>
<polygon fill="#191970" stroke="#191970" points="677.7949,-86.4231 676.3811,-75.9231 670.9384,-85.013 677.7949,-86.4231"/>
</g>
<!-- Node15&#45;&gt;Node2 -->
<g id="edge19" class="edge">
<title>Node15&#45;&gt;Node2</title>
<path fill="none" stroke="#191970" d="M548.7293,-56.2455C543.7736,-48.5367 536.717,-37.5598 530.7224,-28.2348"/>
<polygon fill="#191970" stroke="#191970" points="533.5506,-26.1618 525.1989,-19.6427 527.6624,-29.9471 533.5506,-26.1618"/>
</g>
<!-- Node16&#45;&gt;Node2 -->
<g id="edge22" class="edge">
<title>Node16&#45;&gt;Node2</title>
<path fill="none" stroke="#191970" d="M484.2399,-112.4509C490.4937,-94.0186 504.3342,-53.2254 512.539,-29.043"/>
<polygon fill="#191970" stroke="#191970" points="515.8697,-30.1192 515.7683,-19.5249 509.2409,-27.8701 515.8697,-30.1192"/>
</g>
<!-- Node16&#45;&gt;Node7 -->
<g id="edge21" class="edge">
<title>Node16&#45;&gt;Node7</title>
<path fill="none" stroke="#191970" d="M440.6983,-112.4369C396.2127,-101.881 325.2052,-85.0317 282.0604,-74.794"/>
<polygon fill="#191970" stroke="#191970" points="282.787,-71.3693 272.2491,-72.4659 281.1708,-78.1802 282.787,-71.3693"/>
</g>
<!-- Node17&#45;&gt;Node2 -->
<g id="edge25" class="edge">
<title>Node17&#45;&gt;Node2</title>
<path fill="none" stroke="#191970" d="M650.6669,-56.3733C624.2183,-47.058 583.9777,-32.8852 554.9458,-22.6602"/>
<polygon fill="#191970" stroke="#191970" points="555.7801,-19.2433 545.1853,-19.2225 553.4547,-25.8458 555.7801,-19.2433"/>
</g>
<!-- Node17&#45;&gt;Node11 -->
<g id="edge24" class="edge">
<title>Node17&#45;&gt;Node11</title>
<path fill="none" stroke="#191970" d="M712.8763,-61.7449C797.1103,-51.468 1011.1459,-25.3548 1098.7417,-14.6677"/>
<polygon fill="#191970" stroke="#191970" points="1099.2776,-18.1283 1108.7801,-13.4429 1098.4298,-11.1799 1099.2776,-18.1283"/>
</g>
<!-- Node19&#45;&gt;Node5 -->
<g id="edge30" class="edge">
<title>Node19&#45;&gt;Node5</title>
<path fill="none" stroke="#191970" d="M825.4953,-170.3221C822.3424,-169.4137 819.1097,-168.5985 816,-168 689.8181,-143.714 285.4496,-127.2636 172.5333,-123.0605"/>
<polygon fill="#191970" stroke="#191970" points="172.3657,-119.552 162.2436,-122.6815 172.108,-126.5473 172.3657,-119.552"/>
</g>
<!-- Node19&#45;&gt;Node9 -->
<g id="edge28" class="edge">
<title>Node19&#45;&gt;Node9</title>
<path fill="none" stroke="#191970" d="M856.0577,-168.2455C863.5142,-160.2155 874.2634,-148.6394 883.1417,-139.0781"/>
<polygon fill="#191970" stroke="#191970" points="885.8063,-141.3522 890.0461,-131.6427 880.6768,-136.589 885.8063,-141.3522"/>
</g>
<!-- Node19&#45;&gt;Node11 -->
<g id="edge29" class="edge">
<title>Node19&#45;&gt;Node11</title>
<path fill="none" stroke="#191970" d="M846.1499,-168.2318C845.473,-154.1254 846.3579,-127.9933 860,-112 921.336,-40.0928 1038.0602,-18.8539 1098.534,-12.5985"/>
<polygon fill="#191970" stroke="#191970" points="1099.1691,-16.0541 1108.7943,-11.6261 1098.5086,-9.0853 1099.1691,-16.0541"/>
</g>
<!-- Node21&#45;&gt;Node2 -->
<g id="edge34" class="edge">
<title>Node21&#45;&gt;Node2</title>
<path fill="none" stroke="#191970" d="M406.7798,-400.3263C340.5363,-395.9912 177.1233,-382.8172 130,-356 97.06,-337.2543 76,-327.9005 76,-290 76,-290 76,-290 76,-122 76,-38.3059 376.9558,-16.4904 482.7526,-11.4071"/>
<polygon fill="#191970" stroke="#191970" points="483.1127,-14.8944 492.9422,-10.9407 482.7926,-7.9017 483.1127,-14.8944"/>
</g>
<!-- Node21&#45;&gt;Node5 -->
<g id="edge42" class="edge">
<title>Node21&#45;&gt;Node5</title>
<path fill="none" stroke="#191970" d="M406.5937,-399.8776C345.4524,-394.8851 203.6294,-380.9015 163,-356 131.8511,-336.909 114,-326.5338 114,-290 114,-290 114,-290 114,-234 114,-200.5134 126.2995,-163.1413 134.8785,-141.1469"/>
<polygon fill="#191970" stroke="#191970" points="138.2072,-142.2517 138.721,-131.6693 131.7201,-139.6216 138.2072,-142.2517"/>
</g>
<!-- Node21&#45;&gt;Node9 -->
<g id="edge35" class="edge">
<title>Node21&#45;&gt;Node9</title>
<path fill="none" stroke="#191970" d="M463.0216,-399.1397C548.4386,-389.8491 803.1194,-357.7342 859,-300 901.1392,-256.463 902.6366,-178.5993 900.7016,-142.021"/>
<polygon fill="#191970" stroke="#191970" points="904.1697,-141.4312 899.9999,-131.6914 897.1858,-141.9056 904.1697,-141.4312"/>
</g>
<!-- Node21&#45;&gt;Node11 -->
<g id="edge33" class="edge">
<title>Node21&#45;&gt;Node11</title>
<path fill="none" stroke="#191970" d="M463.1382,-400.2553C561.5012,-393.2395 897.3165,-361.5236 1143,-244 1187.8258,-222.5574 1234.2462,-216.8226 1225,-168 1215.0484,-115.4528 1209.8042,-101.0618 1181,-56 1174.0733,-45.1638 1164.3515,-34.6736 1155.8073,-26.4542"/>
<polygon fill="#191970" stroke="#191970" points="1158.1208,-23.8264 1148.4056,-19.5994 1153.3644,-28.9622 1158.1208,-23.8264"/>
</g>
<!-- Node21&#45;&gt;Node13 -->
<g id="edge41" class="edge">
<title>Node21&#45;&gt;Node13</title>
<path fill="none" stroke="#191970" d="M433.9412,-392.178C432.0762,-370.1203 430.3952,-315.7883 454,-280 483.5267,-235.2332 540.1822,-206.485 578.292,-191.2796"/>
<polygon fill="#191970" stroke="#191970" points="579.9594,-194.388 588.0317,-187.5259 577.442,-187.8562 579.9594,-194.388"/>
</g>
<!-- Node22 -->
<g id="node23" class="node">
<title>Node22</title>
<g id="a_node23"><a xlink:href="architecture_8h.html" target="_top" xlink:title="Platform&#45;independent access to architecture details. ">
<polygon fill="#ffffff" stroke="#000000" points="323.5,-224.5 323.5,-243.5 406.5,-243.5 406.5,-224.5 323.5,-224.5"/>
<text text-anchor="middle" x="365" y="-231.5" font-family="Helvetica,sans-Serif" font-size="10.00" fill="#000000">architecture.h</text>
</a>
</g>
</g>
<!-- Node21&#45;&gt;Node22 -->
<g id="edge36" class="edge">
<title>Node21&#45;&gt;Node22</title>
<path fill="none" stroke="#191970" d="M431.0359,-392.4862C419.8748,-365.6994 388.0235,-289.2565 373.012,-253.2289"/>
<polygon fill="#191970" stroke="#191970" points="376.1719,-251.7125 369.095,-243.8279 369.7104,-254.4048 376.1719,-251.7125"/>
</g>
<!-- Node25 -->
<g id="node26" class="node">
<title>Node25</title>
<g id="a_node26"><a xlink:href="core_2include_2thread_8h.html" target="_top" xlink:title="Threading API. ">
<polygon fill="#ffffff" stroke="#000000" points="577.5,-336.5 577.5,-355.5 634.5,-355.5 634.5,-336.5 577.5,-336.5"/>
<text text-anchor="middle" x="606" y="-343.5" font-family="Helvetica,sans-Serif" font-size="10.00" fill="#000000">thread.h</text>
</a>
</g>
</g>
<!-- Node21&#45;&gt;Node25 -->
<g id="edge43" class="edge">
<title>Node21&#45;&gt;Node25</title>
<path fill="none" stroke="#191970" d="M463.2372,-392.7527C491.741,-383.4181 535.9593,-368.9373 567.6297,-358.5657"/>
<polygon fill="#191970" stroke="#191970" points="569.0215,-361.7929 577.4356,-355.3544 566.8429,-355.1405 569.0215,-361.7929"/>
</g>
<!-- Node22&#45;&gt;Node2 -->
<g id="edge37" class="edge">
<title>Node22&#45;&gt;Node2</title>
<path fill="none" stroke="#191970" d="M335.5447,-224.4588C307.4265,-213.5873 271.2278,-193.9168 285,-168 327.1181,-88.741 428.6961,-42.0321 483.1301,-21.8578"/>
<polygon fill="#191970" stroke="#191970" points="484.5018,-25.0838 492.7205,-18.3977 482.1261,-18.4992 484.5018,-25.0838"/>
</g>
<!-- Node22&#45;&gt;Node12 -->
<g id="edge38" class="edge">
<title>Node22&#45;&gt;Node12</title>
<path fill="none" stroke="#191970" d="M391.6454,-224.3733C417.1964,-215.1419 455.9512,-201.1402 484.1909,-190.9375"/>
<polygon fill="#191970" stroke="#191970" points="485.4865,-194.1909 493.7022,-187.5011 483.1079,-187.6074 485.4865,-194.1909"/>
</g>
<!-- Node23 -->
<g id="node24" class="node">
<title>Node23</title>
<polygon fill="#ffffff" stroke="#bfbfbf" points="420,-168.5 420,-187.5 470,-187.5 470,-168.5 420,-168.5"/>
<text text-anchor="middle" x="445" y="-175.5" font-family="Helvetica,sans-Serif" font-size="10.00" fill="#000000">limits.h</text>
</g>
<!-- Node22&#45;&gt;Node23 -->
<g id="edge39" class="edge">
<title>Node22&#45;&gt;Node23</title>
<path fill="none" stroke="#191970" d="M378.9349,-224.2455C391.0947,-215.7337 408.9464,-203.2375 423.0285,-193.3801"/>
<polygon fill="#191970" stroke="#191970" points="425.0395,-196.2447 431.2248,-187.6427 421.0253,-190.51 425.0395,-196.2447"/>
</g>
<!-- Node24 -->
<g id="node25" class="node">
<title>Node24</title>
<polygon fill="#ffffff" stroke="#bfbfbf" points="294.5,-168.5 294.5,-187.5 401.5,-187.5 401.5,-168.5 294.5,-168.5"/>
<text text-anchor="middle" x="348" y="-175.5" font-family="Helvetica,sans-Serif" font-size="10.00" fill="#000000">architecture_arch.h</text>
</g>
<!-- Node22&#45;&gt;Node24 -->
<g id="edge40" class="edge">
<title>Node22&#45;&gt;Node24</title>
<path fill="none" stroke="#191970" d="M362.0388,-224.2455C359.7962,-216.8579 356.6423,-206.4689 353.8919,-197.4087"/>
<polygon fill="#191970" stroke="#191970" points="357.1812,-196.1948 350.9272,-187.6427 350.483,-198.2282 357.1812,-196.1948"/>
</g>
<!-- Node25&#45;&gt;Node6 -->
<g id="edge45" class="edge">
<title>Node25&#45;&gt;Node6</title>
<path fill="none" stroke="#191970" d="M577.2783,-341.7449C507.1392,-331.354 327.7188,-304.7731 257.1436,-294.3176"/>
<polygon fill="#191970" stroke="#191970" points="257.5698,-290.8426 247.1648,-292.8392 256.5439,-297.767 257.5698,-290.8426"/>
</g>
<!-- Node25&#45;&gt;Node8 -->
<g id="edge46" class="edge">
<title>Node25&#45;&gt;Node8</title>
<path fill="none" stroke="#191970" d="M585.3713,-336.3733C566.1081,-327.3838 537.1514,-313.8706 515.4581,-303.7471"/>
<polygon fill="#191970" stroke="#191970" points="516.9015,-300.5584 506.3595,-299.5011 513.9413,-306.9017 516.9015,-300.5584"/>
</g>
<!-- Node25&#45;&gt;Node10 -->
<g id="edge47" class="edge">
<title>Node25&#45;&gt;Node10</title>
<path fill="none" stroke="#191970" d="M616.9893,-336.4003C627.2983,-327.2768 643.0274,-313.0499 656,-300 671.912,-283.9932 689.1541,-264.8194 701.0539,-251.2733"/>
<polygon fill="#191970" stroke="#191970" points="703.7736,-253.48 707.7132,-243.6448 698.5002,-248.8765 703.7736,-253.48"/>
</g>
<!-- Node25&#45;&gt;Node19 -->
<g id="edge44" class="edge">
<title>Node25&#45;&gt;Node19</title>
<path fill="none" stroke="#191970" d="M634.9153,-340.5514C697.1423,-328.7948 838.3038,-301.9456 840,-300 864.6411,-271.7346 858.5932,-224.3432 852.4872,-197.71"/>
<polygon fill="#191970" stroke="#191970" points="855.7972,-196.5222 849.9561,-187.683 849.0101,-198.2355 855.7972,-196.5222"/>
</g>
<!-- Node26 -->
<g id="node27" class="node">
<title>Node26</title>
<g id="a_node27"><a xlink:href="thread__config_8h.html" target="_top" xlink:title="Thread configuration defines. ">
<polygon fill="#ffffff" stroke="#000000" points="741,-280.5 741,-299.5 831,-299.5 831,-280.5 741,-280.5"/>
<text text-anchor="middle" x="786" y="-287.5" font-family="Helvetica,sans-Serif" font-size="10.00" fill="#000000">thread_config.h</text>
</a>
</g>
</g>
<!-- Node25&#45;&gt;Node26 -->
<g id="edge48" class="edge">
<title>Node25&#45;&gt;Node26</title>
<path fill="none" stroke="#191970" d="M634.5215,-337.1266C664.4762,-327.8074 711.8353,-313.0735 745.6219,-302.5621"/>
<polygon fill="#191970" stroke="#191970" points="746.6919,-305.8947 755.2008,-299.582 744.6124,-299.2107 746.6919,-305.8947"/>
</g>
<!-- Node28 -->
<g id="node29" class="node">
<title>Node28</title>
<polygon fill="#ffffff" stroke="#bfbfbf" points="565,-280.5 565,-299.5 647,-299.5 647,-280.5 565,-280.5"/>
<text text-anchor="middle" x="606" y="-287.5" font-family="Helvetica,sans-Serif" font-size="10.00" fill="#000000">thread_arch.h</text>
</g>
<!-- Node25&#45;&gt;Node28 -->
<g id="edge51" class="edge">
<title>Node25&#45;&gt;Node28</title>
<path fill="none" stroke="#191970" d="M606,-336.2455C606,-328.9382 606,-318.6944 606,-309.7046"/>
<polygon fill="#191970" stroke="#191970" points="609.5001,-309.6426 606,-299.6427 602.5001,-309.6427 609.5001,-309.6426"/>
</g>
<!-- Node26&#45;&gt;Node10 -->
<g id="edge50" class="edge">
<title>Node26&#45;&gt;Node10</title>
<path fill="none" stroke="#191970" d="M773.8069,-280.2455C763.3679,-271.8943 748.1345,-259.7076 735.926,-249.9408"/>
<polygon fill="#191970" stroke="#191970" points="738.0485,-247.1566 728.0533,-243.6427 733.6756,-252.6227 738.0485,-247.1566"/>
</g>
<!-- Node27 -->
<g id="node28" class="node">
<title>Node27</title>
<polygon fill="#ffffff" stroke="#bfbfbf" points="760.5,-224.5 760.5,-243.5 827.5,-243.5 827.5,-224.5 760.5,-224.5"/>
<text text-anchor="middle" x="794" y="-231.5" font-family="Helvetica,sans-Serif" font-size="10.00" fill="#000000">cpu_conf.h</text>
</g>
<!-- Node26&#45;&gt;Node27 -->
<g id="edge49" class="edge">
<title>Node26&#45;&gt;Node27</title>
<path fill="none" stroke="#191970" d="M787.3935,-280.2455C788.4374,-272.9382 789.9008,-262.6944 791.1851,-253.7046"/>
<polygon fill="#191970" stroke="#191970" points="794.673,-254.0372 792.6225,-243.6427 787.7434,-253.0472 794.673,-254.0372"/>
</g>
<!-- Node29&#45;&gt;Node2 -->
<g id="edge53" class="edge">
<title>Node29&#45;&gt;Node2</title>
<path fill="none" stroke="#191970" d="M375.8026,-453.6302C317.362,-444.0411 186.5055,-416.9609 95,-356 62.744,-334.5111 38,-328.7585 38,-290 38,-290 38,-290 38,-122 38,-78.5898 70.487,-73.9769 110,-56 176.1036,-25.9253 395.0986,-14.6088 482.507,-11.2229"/>
<polygon fill="#191970" stroke="#191970" points="482.8748,-14.7117 492.7368,-10.8399 482.6128,-7.7166 482.8748,-14.7117"/>
</g>
<!-- Node29&#45;&gt;Node10 -->
<g id="edge55" class="edge">
<title>Node29&#45;&gt;Node10</title>
<path fill="none" stroke="#191970" d="M423.4031,-448.4816C437.6015,-440.1394 457.5967,-427.0207 472,-412 520.1286,-361.8084 500.3073,-321.6398 556,-280 592.397,-252.787 644.4422,-241.6494 679.1831,-237.106"/>
<polygon fill="#191970" stroke="#191970" points="679.8547,-240.5509 689.3728,-235.8971 679.03,-233.5997 679.8547,-240.5509"/>
</g>
<!-- Node29&#45;&gt;Node21 -->
<g id="edge54" class="edge">
<title>Node29&#45;&gt;Node21</title>
<path fill="none" stroke="#191970" d="M411.0514,-448.2455C415.0019,-440.617 420.6097,-429.7881 425.4058,-420.5267"/>
<polygon fill="#191970" stroke="#191970" points="428.5159,-422.1321 430.0065,-411.6427 422.2999,-418.9131 428.5159,-422.1321"/>
</g>
<!-- Node32 -->
<g id="node33" class="node">
<title>Node32</title>
<g id="a_node33"><a xlink:href="drivers_2include_2net_2netdev_8h.html" target="_top" xlink:title="Definitions low&#45;level network driver interface. ">
<polygon fill="#ffffff" stroke="#000000" points="1056.5,-224.5 1056.5,-243.5 1133.5,-243.5 1133.5,-224.5 1056.5,-224.5"/>
<text text-anchor="middle" x="1095" y="-231.5" font-family="Helvetica,sans-Serif" font-size="10.00" fill="#000000">net/netdev.h</text>
</a>
</g>
</g>
<!-- Node31&#45;&gt;Node32 -->
<g id="edge59" class="edge">
<title>Node31&#45;&gt;Node32</title>
<path fill="none" stroke="#191970" d="M1163.866,-392.4862C1152.2265,-365.6994 1119.0103,-289.2565 1103.3554,-253.2289"/>
<polygon fill="#191970" stroke="#191970" points="1106.4658,-251.6046 1099.2704,-243.8279 1100.0457,-254.3943 1106.4658,-251.6046"/>
</g>
<!-- Node32&#45;&gt;Node2 -->
<g id="edge60" class="edge">
<title>Node32&#45;&gt;Node2</title>
<path fill="none" stroke="#191970" d="M1086.2228,-224.4048C1065.6716,-202.3486 1012.1355,-147.2331 959,-112 910.2841,-79.6975 895.9935,-72.7755 840,-56 739.7753,-25.9729 615.9002,-15.3 555.5304,-11.7053"/>
<polygon fill="#191970" stroke="#191970" points="555.5433,-8.2006 545.362,-11.1317 555.149,-15.1895 555.5433,-8.2006"/>
</g>
<!-- Node32&#45;&gt;Node13 -->
<g id="edge72" class="edge">
<title>Node32&#45;&gt;Node13</title>
<path fill="none" stroke="#191970" d="M1056.2881,-229.4647C972.4635,-219.6443 773.7678,-196.3661 674.92,-184.7856"/>
<polygon fill="#191970" stroke="#191970" points="675.1496,-181.2886 664.8102,-183.6012 674.335,-188.2411 675.1496,-181.2886"/>
</g>
<!-- Node33 -->
<g id="node34" class="node">
<title>Node33</title>
<g id="a_node34"><a xlink:href="errno_8h.html" target="_top" xlink:title="errno.h">
<polygon fill="#ffffff" stroke="#000000" points="1162.5,-168.5 1162.5,-187.5 1215.5,-187.5 1215.5,-168.5 1162.5,-168.5"/>
<text text-anchor="middle" x="1189" y="-175.5" font-family="Helvetica,sans-Serif" font-size="10.00" fill="#000000">errno.h</text>
</a>
</g>
</g>
<!-- Node32&#45;&gt;Node33 -->
<g id="edge61" class="edge">
<title>Node32&#45;&gt;Node33</title>
<path fill="none" stroke="#191970" d="M1111.3736,-224.2455C1125.9308,-215.5731 1147.431,-202.7645 1164.1152,-192.825"/>
<polygon fill="#191970" stroke="#191970" points="1166.0144,-195.7676 1172.8141,-187.6427 1162.4317,-189.7539 1166.0144,-195.7676"/>
</g>
<!-- Node34 -->
<g id="node35" class="node">
<title>Node34</title>
<g id="a_node35"><a xlink:href="iolist_8h.html" target="_top" xlink:title="iolist scatter / gather IO ">
<polygon fill="#ffffff" stroke="#000000" points="1097.5,-168.5 1097.5,-187.5 1144.5,-187.5 1144.5,-168.5 1097.5,-168.5"/>
<text text-anchor="middle" x="1121" y="-175.5" font-family="Helvetica,sans-Serif" font-size="10.00" fill="#000000">iolist.h</text>
</a>
</g>
</g>
<!-- Node32&#45;&gt;Node34 -->
<g id="edge62" class="edge">
<title>Node32&#45;&gt;Node34</title>
<path fill="none" stroke="#191970" d="M1099.5289,-224.2455C1103.0334,-216.6973 1107.9927,-206.0158 1112.2623,-196.8197"/>
<polygon fill="#191970" stroke="#191970" points="1115.4864,-198.1867 1116.523,-187.6427 1109.1373,-195.2389 1115.4864,-198.1867"/>
</g>
<!-- Node37 -->
<g id="node38" class="node">
<title>Node37</title>
<g id="a_node38"><a xlink:href="netopt_8h.html" target="_top" xlink:title="Definition of global configuration options. ">
<polygon fill="#ffffff" stroke="#000000" points="925.5,-168.5 925.5,-187.5 1002.5,-187.5 1002.5,-168.5 925.5,-168.5"/>
<text text-anchor="middle" x="964" y="-175.5" font-family="Helvetica,sans-Serif" font-size="10.00" fill="#000000">net/netopt.h</text>
</a>
</g>
</g>
<!-- Node32&#45;&gt;Node37 -->
<g id="edge69" class="edge">
<title>Node32&#45;&gt;Node37</title>
<path fill="none" stroke="#191970" d="M1072.4803,-224.3733C1051.2628,-215.3032 1019.2724,-201.6279 995.5231,-191.4755"/>
<polygon fill="#191970" stroke="#191970" points="996.7967,-188.2136 986.2258,-187.5011 994.0452,-194.6502 996.7967,-188.2136"/>
</g>
<!-- Node35 -->
<g id="node36" class="node">
<title>Node35</title>
<g id="a_node36"><a xlink:href="unistd_8h_source.html" target="_top" xlink:title="unistd.h">
<polygon fill="#ffffff" stroke="#000000" points="1091,-112.5 1091,-131.5 1145,-131.5 1145,-112.5 1091,-112.5"/>
<text text-anchor="middle" x="1118" y="-119.5" font-family="Helvetica,sans-Serif" font-size="10.00" fill="#000000">unistd.h</text>
</a>
</g>
</g>
<!-- Node34&#45;&gt;Node35 -->
<g id="edge63" class="edge">
<title>Node34&#45;&gt;Node35</title>
<path fill="none" stroke="#191970" d="M1120.4774,-168.2455C1120.086,-160.9382 1119.5372,-150.6944 1119.0556,-141.7046"/>
<polygon fill="#191970" stroke="#191970" points="1122.5466,-141.4411 1118.5166,-131.6427 1115.5566,-141.8156 1122.5466,-141.4411"/>
</g>
<!-- Node35&#45;&gt;Node2 -->
<g id="edge65" class="edge">
<title>Node35&#45;&gt;Node2</title>
<path fill="none" stroke="#191970" d="M1102.6824,-112.3948C1078.0793,-97.4918 1027.7643,-69.1486 981,-56 900.9599,-33.4953 649.8964,-17.3891 555.4286,-11.9835"/>
<polygon fill="#191970" stroke="#191970" points="555.4046,-8.4767 545.2229,-11.4065 555.0094,-15.4655 555.4046,-8.4767"/>
</g>
<!-- Node35&#45;&gt;Node11 -->
<g id="edge64" class="edge">
<title>Node35&#45;&gt;Node11</title>
<path fill="none" stroke="#191970" d="M1127.3618,-112.3788C1135.1234,-103.6808 1145.575,-90.1096 1150,-76 1154.8533,-60.5247 1150.6153,-42.4167 1145.7214,-29.0865"/>
<polygon fill="#191970" stroke="#191970" points="1148.8485,-27.4871 1141.8171,-19.5618 1142.3715,-30.1422 1148.8485,-27.4871"/>
</g>
<!-- Node36 -->
<g id="node37" class="node">
<title>Node36</title>
<g id="a_node37"><a xlink:href="cpu_2avr8__common_2avr__libc__extra_2include_2sys_2types_8h_source.html" target="_top" xlink:title="sys/types.h">
<polygon fill="#ffffff" stroke="#000000" points="1071.5,-56.5 1071.5,-75.5 1140.5,-75.5 1140.5,-56.5 1071.5,-56.5"/>
<text text-anchor="middle" x="1106" y="-63.5" font-family="Helvetica,sans-Serif" font-size="10.00" fill="#000000">sys/types.h</text>
</a>
</g>
</g>
<!-- Node35&#45;&gt;Node36 -->
<g id="edge66" class="edge">
<title>Node35&#45;&gt;Node36</title>
<path fill="none" stroke="#191970" d="M1115.9098,-112.2455C1114.3439,-104.9382 1112.1488,-94.6944 1110.2224,-85.7046"/>
<polygon fill="#191970" stroke="#191970" points="1113.584,-84.6873 1108.0663,-75.6427 1106.7393,-86.1541 1113.584,-84.6873"/>
</g>
<!-- Node36&#45;&gt;Node2 -->
<g id="edge67" class="edge">
<title>Node36&#45;&gt;Node2</title>
<path fill="none" stroke="#191970" d="M1071.2885,-58.3978C1066.5033,-57.5016 1061.6404,-56.6696 1057,-56 869.2898,-28.9144 642.2628,-15.9102 555.2947,-11.6471"/>
<polygon fill="#191970" stroke="#191970" points="555.3134,-8.144 545.1566,-11.1589 554.9767,-15.1359 555.3134,-8.144"/>
</g>
<!-- Node36&#45;&gt;Node11 -->
<g id="edge68" class="edge">
<title>Node36&#45;&gt;Node11</title>
<path fill="none" stroke="#191970" d="M1111.3998,-56.2455C1115.6227,-48.617 1121.6173,-37.7881 1126.7441,-28.5267"/>
<polygon fill="#191970" stroke="#191970" points="1129.881,-30.0867 1131.6621,-19.6427 1123.7568,-26.6965 1129.881,-30.0867"/>
</g>
<!-- Node37&#45;&gt;Node2 -->
<g id="edge70" class="edge">
<title>Node37&#45;&gt;Node2</title>
<path fill="none" stroke="#191970" d="M962.9455,-168.3681C960.8438,-153.9476 954.7828,-126.8568 938,-112 880.5045,-61.1027 646.1291,-26.2822 555.2503,-14.4531"/>
<polygon fill="#191970" stroke="#191970" points="555.5146,-10.9584 545.1503,-13.1566 554.6233,-17.9015 555.5146,-10.9584"/>
</g>
<!-- Node37&#45;&gt;Node9 -->
<g id="edge71" class="edge">
<title>Node37&#45;&gt;Node9</title>
<path fill="none" stroke="#191970" d="M952.6779,-168.2455C943.0777,-159.9746 929.1108,-147.9416 917.8305,-138.2232"/>
<polygon fill="#191970" stroke="#191970" points="920.053,-135.5182 910.1924,-131.6427 915.484,-140.8214 920.053,-135.5182"/>
</g>
</g>
</svg>
