<?xml version="1.0" encoding="UTF-8" standalone="no"?>
<!DOCTYPE svg PUBLIC "-//W3C//DTD SVG 1.1//EN"
 "http://www.w3.org/Graphics/SVG/1.1/DTD/svg11.dtd">
<!-- Generated by graphviz version 2.40.1 (0)
 -->
<!-- Title: drivers/include/ili9341.h Pages: 1 -->
<svg width="1345pt" height="532pt"
 viewBox="0.00 0.00 1345.00 532.00" xmlns="http://www.w3.org/2000/svg" xmlns:xlink="http://www.w3.org/1999/xlink">
<g id="graph0" class="graph" transform="scale(1 1) rotate(0) translate(4 528)">
<title>drivers/include/ili9341.h</title>
<polygon fill="#ffffff" stroke="transparent" points="-4,4 -4,-528 1341,-528 1341,4 -4,4"/>
<!-- Node0 -->
<g id="node1" class="node">
<title>Node0</title>
<polygon fill="#bfbfbf" stroke="#000000" points="246,-504.5 246,-523.5 376,-523.5 376,-504.5 246,-504.5"/>
<text text-anchor="middle" x="311" y="-511.5" font-family="Helvetica,sans-Serif" font-size="10.00" fill="#000000">drivers/include/ili9341.h</text>
</g>
<!-- Node1 -->
<g id="node2" class="node">
<title>Node1</title>
<g id="a_node2"><a xlink:href="lcd_8h.html" target="_top" xlink:title="lcd.h">
<polygon fill="#ffffff" stroke="#000000" points="292,-448.5 292,-467.5 330,-467.5 330,-448.5 292,-448.5"/>
<text text-anchor="middle" x="311" y="-455.5" font-family="Helvetica,sans-Serif" font-size="10.00" fill="#000000">lcd.h</text>
</a>
</g>
</g>
<!-- Node0&#45;&gt;Node1 -->
<g id="edge1" class="edge">
<title>Node0&#45;&gt;Node1</title>
<path fill="none" stroke="#191970" d="M311,-504.2455C311,-496.9382 311,-486.6944 311,-477.7046"/>
<polygon fill="#191970" stroke="#191970" points="314.5001,-477.6426 311,-467.6427 307.5001,-477.6427 314.5001,-477.6426"/>
</g>
<!-- Node2 -->
<g id="node3" class="node">
<title>Node2</title>
<polygon fill="#ffffff" stroke="#bfbfbf" points="210.5,-392.5 210.5,-411.5 263.5,-411.5 263.5,-392.5 210.5,-392.5"/>
<text text-anchor="middle" x="237" y="-399.5" font-family="Helvetica,sans-Serif" font-size="10.00" fill="#000000">board.h</text>
</g>
<!-- Node1&#45;&gt;Node2 -->
<g id="edge2" class="edge">
<title>Node1&#45;&gt;Node2</title>
<path fill="none" stroke="#191970" d="M298.1102,-448.2455C287.0746,-439.8943 270.9708,-427.7076 258.0647,-417.9408"/>
<polygon fill="#191970" stroke="#191970" points="259.8283,-414.8862 249.7421,-411.6427 255.6041,-420.4681 259.8283,-414.8862"/>
</g>
<!-- Node3 -->
<g id="node4" class="node">
<title>Node3</title>
<g id="a_node4"><a xlink:href="mutex_8h.html" target="_top" xlink:title="Mutex for thread synchronization. ">
<polygon fill="#ffffff" stroke="#000000" points="886,-392.5 886,-411.5 942,-411.5 942,-392.5 886,-392.5"/>
<text text-anchor="middle" x="914" y="-399.5" font-family="Helvetica,sans-Serif" font-size="10.00" fill="#000000">mutex.h</text>
</a>
</g>
</g>
<!-- Node1&#45;&gt;Node3 -->
<g id="edge3" class="edge">
<title>Node1&#45;&gt;Node3</title>
<path fill="none" stroke="#191970" d="M330.0425,-456.2315C414.8779,-448.353 759.3201,-416.365 875.5117,-405.5744"/>
<polygon fill="#191970" stroke="#191970" points="876.078,-409.0369 885.7115,-404.6271 875.4307,-402.0669 876.078,-409.0369"/>
</g>
<!-- Node27 -->
<g id="node28" class="node">
<title>Node27</title>
<g id="a_node28"><a xlink:href="spi_8h.html" target="_top" xlink:title="Low&#45;level SPI peripheral driver interface definition. ">
<polygon fill="#ffffff" stroke="#000000" points="187.5,-224.5 187.5,-243.5 260.5,-243.5 260.5,-224.5 187.5,-224.5"/>
<text text-anchor="middle" x="224" y="-231.5" font-family="Helvetica,sans-Serif" font-size="10.00" fill="#000000">periph/spi.h</text>
</a>
</g>
</g>
<!-- Node1&#45;&gt;Node27 -->
<g id="edge45" class="edge">
<title>Node1&#45;&gt;Node27</title>
<path fill="none" stroke="#191970" d="M307.2617,-448.375C294.0154,-414.2697 249.1586,-298.7761 231.3627,-252.9567"/>
<polygon fill="#191970" stroke="#191970" points="234.6074,-251.6436 227.7244,-243.5891 228.0823,-254.1779 234.6074,-251.6436"/>
</g>
<!-- Node32 -->
<g id="node33" class="node">
<title>Node32</title>
<g id="a_node33"><a xlink:href="drivers_2include_2periph_2gpio_8h.html" target="_top" xlink:title="Low&#45;level GPIO peripheral driver interface definitions. ">
<polygon fill="#ffffff" stroke="#000000" points="290,-168.5 290,-187.5 370,-187.5 370,-168.5 290,-168.5"/>
<text text-anchor="middle" x="330" y="-175.5" font-family="Helvetica,sans-Serif" font-size="10.00" fill="#000000">periph/gpio.h</text>
</a>
</g>
</g>
<!-- Node1&#45;&gt;Node32 -->
<g id="edge59" class="edge">
<title>Node1&#45;&gt;Node32</title>
<path fill="none" stroke="#191970" d="M313.8035,-448.2066C319.0887,-428.8521 330,-384.2612 330,-346 330,-346 330,-346 330,-290 330,-257.7116 330,-220.1872 330,-197.8048"/>
<polygon fill="#191970" stroke="#191970" points="333.5001,-197.5883 330,-187.5884 326.5001,-197.5884 333.5001,-197.5883"/>
</g>
<!-- Node4 -->
<g id="node5" class="node">
<title>Node4</title>
<polygon fill="#ffffff" stroke="#bfbfbf" points="638,-56.5 638,-75.5 694,-75.5 694,-56.5 638,-56.5"/>
<text text-anchor="middle" x="666" y="-63.5" font-family="Helvetica,sans-Serif" font-size="10.00" fill="#000000">stddef.h</text>
</g>
<!-- Node3&#45;&gt;Node4 -->
<g id="edge4" class="edge">
<title>Node3&#45;&gt;Node4</title>
<path fill="none" stroke="#191970" d="M939.1877,-392.3828C975.173,-376.8068 1037,-342.4182 1037,-290 1037,-290 1037,-290 1037,-234 1037,-189.5978 998.0704,-193.8937 962,-168 921.5611,-138.9703 911.3137,-130.2501 865,-112 811.1309,-90.7726 745.0209,-77.91 704.2013,-71.3775"/>
<polygon fill="#191970" stroke="#191970" points="704.5599,-67.8913 694.141,-69.8141 703.4849,-74.8083 704.5599,-67.8913"/>
</g>
<!-- Node5 -->
<g id="node6" class="node">
<title>Node5</title>
<polygon fill="#ffffff" stroke="#bfbfbf" points="1003,-.5 1003,-19.5 1055,-19.5 1055,-.5 1003,-.5"/>
<text text-anchor="middle" x="1029" y="-7.5" font-family="Helvetica,sans-Serif" font-size="10.00" fill="#000000">stdint.h</text>
</g>
<!-- Node3&#45;&gt;Node5 -->
<g id="edge5" class="edge">
<title>Node3&#45;&gt;Node5</title>
<path fill="none" stroke="#191970" d="M942.0818,-400.6421C1036.557,-395.3195 1337,-371.9506 1337,-290 1337,-290 1337,-290 1337,-122 1337,-80.5164 1307.6681,-75.3994 1271,-56 1235.858,-37.408 1124.111,-21.5578 1065.5692,-14.2737"/>
<polygon fill="#191970" stroke="#191970" points="1065.6391,-10.7562 1055.2878,-13.0146 1064.7881,-17.7043 1065.6391,-10.7562"/>
</g>
<!-- Node6 -->
<g id="node7" class="node">
<title>Node6</title>
<polygon fill="#ffffff" stroke="#bfbfbf" points="409,-112.5 409,-131.5 469,-131.5 469,-112.5 409,-112.5"/>
<text text-anchor="middle" x="439" y="-119.5" font-family="Helvetica,sans-Serif" font-size="10.00" fill="#000000">stdbool.h</text>
</g>
<!-- Node3&#45;&gt;Node6 -->
<g id="edge6" class="edge">
<title>Node3&#45;&gt;Node6</title>
<path fill="none" stroke="#191970" d="M885.8835,-401.4795C783.4213,-398.8352 436,-383.0113 436,-290 436,-290 436,-290 436,-234 436,-201.7 437.2622,-164.1791 438.1492,-141.8005"/>
<polygon fill="#191970" stroke="#191970" points="441.6553,-141.7217 438.5702,-131.5861 434.6613,-141.4334 441.6553,-141.7217"/>
</g>
<!-- Node7 -->
<g id="node8" class="node">
<title>Node7</title>
<g id="a_node8"><a xlink:href="architecture_8h.html" target="_top" xlink:title="Platform&#45;independent access to architecture details. ">
<polygon fill="#ffffff" stroke="#000000" points="831.5,-224.5 831.5,-243.5 914.5,-243.5 914.5,-224.5 831.5,-224.5"/>
<text text-anchor="middle" x="873" y="-231.5" font-family="Helvetica,sans-Serif" font-size="10.00" fill="#000000">architecture.h</text>
</a>
</g>
</g>
<!-- Node3&#45;&gt;Node7 -->
<g id="edge7" class="edge">
<title>Node3&#45;&gt;Node7</title>
<path fill="none" stroke="#191970" d="M911.1398,-392.4974C905.7895,-374.5348 894.079,-334.3197 886,-300 882.3623,-284.5469 878.9223,-266.8954 876.4958,-253.7374"/>
<polygon fill="#191970" stroke="#191970" points="879.9383,-253.1055 874.7137,-243.8885 873.0502,-254.3519 879.9383,-253.1055"/>
</g>
<!-- Node11 -->
<g id="node12" class="node">
<title>Node11</title>
<g id="a_node12"><a xlink:href="kernel__defines_8h.html" target="_top" xlink:title="Common macros and compiler attributes/pragmas configuration. ">
<polygon fill="#ffffff" stroke="#000000" points="1065.5,-168.5 1065.5,-187.5 1160.5,-187.5 1160.5,-168.5 1065.5,-168.5"/>
<text text-anchor="middle" x="1113" y="-175.5" font-family="Helvetica,sans-Serif" font-size="10.00" fill="#000000">kernel_defines.h</text>
</a>
</g>
</g>
<!-- Node3&#45;&gt;Node11 -->
<g id="edge12" class="edge">
<title>Node3&#45;&gt;Node11</title>
<path fill="none" stroke="#191970" d="M942.1888,-399.7644C972.8662,-395.8679 1021.4741,-385.1961 1051,-356 1095.5125,-311.9848 1108.1208,-234.3576 1111.6507,-197.9293"/>
<polygon fill="#191970" stroke="#191970" points="1115.1651,-197.9003 1112.5067,-187.6444 1108.1893,-197.3196 1115.1651,-197.9003"/>
</g>
<!-- Node17 -->
<g id="node18" class="node">
<title>Node17</title>
<g id="a_node18"><a xlink:href="list_8h.html" target="_top" xlink:title="Intrusive linked list. ">
<polygon fill="#ffffff" stroke="#000000" points="818,-112.5 818,-131.5 856,-131.5 856,-112.5 818,-112.5"/>
<text text-anchor="middle" x="837" y="-119.5" font-family="Helvetica,sans-Serif" font-size="10.00" fill="#000000">list.h</text>
</a>
</g>
</g>
<!-- Node3&#45;&gt;Node17 -->
<g id="edge23" class="edge">
<title>Node3&#45;&gt;Node17</title>
<path fill="none" stroke="#191970" d="M921.1383,-392.3839C934.2864,-373.6891 961,-330.6982 961,-290 961,-290 961,-290 961,-234 961,-203.3494 961.3093,-190.9562 941,-168 921.5137,-145.9741 889.4934,-134.0063 866.1226,-127.849"/>
<polygon fill="#191970" stroke="#191970" points="866.9277,-124.4429 856.3841,-125.4834 865.2753,-131.2451 866.9277,-124.4429"/>
</g>
<!-- Node18 -->
<g id="node19" class="node">
<title>Node18</title>
<g id="a_node19"><a xlink:href="core_2include_2thread_8h.html" target="_top" xlink:title="Threading API. ">
<polygon fill="#ffffff" stroke="#000000" points="705.5,-336.5 705.5,-355.5 762.5,-355.5 762.5,-336.5 705.5,-336.5"/>
<text text-anchor="middle" x="734" y="-343.5" font-family="Helvetica,sans-Serif" font-size="10.00" fill="#000000">thread.h</text>
</a>
</g>
</g>
<!-- Node3&#45;&gt;Node18 -->
<g id="edge24" class="edge">
<title>Node3&#45;&gt;Node18</title>
<path fill="none" stroke="#191970" d="M885.875,-393.25C855.2772,-383.7307 806.1861,-368.4579 772.1338,-357.8639"/>
<polygon fill="#191970" stroke="#191970" points="773.1099,-354.5021 762.5215,-354.8734 771.0303,-361.1861 773.1099,-354.5021"/>
</g>
<!-- Node7&#45;&gt;Node5 -->
<g id="edge8" class="edge">
<title>Node7&#45;&gt;Node5</title>
<path fill="none" stroke="#191970" d="M914.7374,-229.677C985.073,-222.0362 1124.0397,-205.3098 1170,-188 1213.3838,-171.6605 1235.6917,-172.6384 1258,-132 1266.4688,-116.5726 1269.3498,-74.3193 1253,-56 1228.4871,-28.5344 1121.9319,-16.7217 1065.0688,-12.2971"/>
<polygon fill="#191970" stroke="#191970" points="1065.292,-8.8041 1055.0605,-11.5548 1064.7741,-15.7849 1065.292,-8.8041"/>
</g>
<!-- Node8 -->
<g id="node9" class="node">
<title>Node8</title>
<g id="a_node9"><a xlink:href="inttypes_8h.html" target="_top" xlink:title="Adds include for missing inttype definitions. ">
<polygon fill="#ffffff" stroke="#000000" points="705.5,-168.5 705.5,-187.5 768.5,-187.5 768.5,-168.5 705.5,-168.5"/>
<text text-anchor="middle" x="737" y="-175.5" font-family="Helvetica,sans-Serif" font-size="10.00" fill="#000000">inttypes.h</text>
</a>
</g>
</g>
<!-- Node7&#45;&gt;Node8 -->
<g id="edge9" class="edge">
<title>Node7&#45;&gt;Node8</title>
<path fill="none" stroke="#191970" d="M849.6208,-224.3733C827.4955,-215.2629 794.0866,-201.5062 769.3981,-191.3404"/>
<polygon fill="#191970" stroke="#191970" points="770.6536,-188.0723 760.0742,-187.5011 767.9883,-194.5451 770.6536,-188.0723"/>
</g>
<!-- Node9 -->
<g id="node10" class="node">
<title>Node9</title>
<polygon fill="#ffffff" stroke="#bfbfbf" points="713,-112.5 713,-131.5 763,-131.5 763,-112.5 713,-112.5"/>
<text text-anchor="middle" x="738" y="-119.5" font-family="Helvetica,sans-Serif" font-size="10.00" fill="#000000">limits.h</text>
</g>
<!-- Node7&#45;&gt;Node9 -->
<g id="edge10" class="edge">
<title>Node7&#45;&gt;Node9</title>
<path fill="none" stroke="#191970" d="M860.7023,-224.2112C849.1128,-214.9542 831.2916,-200.637 816,-188 795.8095,-171.3147 772.9612,-151.9202 757.238,-138.4926"/>
<polygon fill="#191970" stroke="#191970" points="759.1725,-135.5417 749.298,-131.7018 754.6227,-140.8614 759.1725,-135.5417"/>
</g>
<!-- Node10 -->
<g id="node11" class="node">
<title>Node10</title>
<polygon fill="#ffffff" stroke="#bfbfbf" points="825.5,-168.5 825.5,-187.5 932.5,-187.5 932.5,-168.5 825.5,-168.5"/>
<text text-anchor="middle" x="879" y="-175.5" font-family="Helvetica,sans-Serif" font-size="10.00" fill="#000000">architecture_arch.h</text>
</g>
<!-- Node7&#45;&gt;Node10 -->
<g id="edge11" class="edge">
<title>Node7&#45;&gt;Node10</title>
<path fill="none" stroke="#191970" d="M874.0451,-224.2455C874.828,-216.9382 875.9256,-206.6944 876.8888,-197.7046"/>
<polygon fill="#191970" stroke="#191970" points="880.3815,-197.9587 877.9669,-187.6427 873.4214,-197.2129 880.3815,-197.9587"/>
</g>
<!-- Node12 -->
<g id="node13" class="node">
<title>Node12</title>
<g id="a_node13"><a xlink:href="modules_8h.html" target="_top" xlink:title="Common macros and compiler attributes/pragmas configuration. ">
<polygon fill="#ffffff" stroke="#000000" points="1080.5,-112.5 1080.5,-131.5 1145.5,-131.5 1145.5,-112.5 1080.5,-112.5"/>
<text text-anchor="middle" x="1113" y="-119.5" font-family="Helvetica,sans-Serif" font-size="10.00" fill="#000000">modules.h</text>
</a>
</g>
</g>
<!-- Node11&#45;&gt;Node12 -->
<g id="edge13" class="edge">
<title>Node11&#45;&gt;Node12</title>
<path fill="none" stroke="#191970" d="M1113,-168.2455C1113,-160.9382 1113,-150.6944 1113,-141.7046"/>
<polygon fill="#191970" stroke="#191970" points="1116.5001,-141.6426 1113,-131.6427 1109.5001,-141.6427 1116.5001,-141.6426"/>
</g>
<!-- Node13 -->
<g id="node14" class="node">
<title>Node13</title>
<g id="a_node14"><a xlink:href="riot__version_8h.html" target="_top" xlink:title="Common macros and compiler attributes/pragmas configuration. ">
<polygon fill="#ffffff" stroke="#000000" points="1162.5,-56.5 1162.5,-75.5 1243.5,-75.5 1243.5,-56.5 1162.5,-56.5"/>
<text text-anchor="middle" x="1203" y="-63.5" font-family="Helvetica,sans-Serif" font-size="10.00" fill="#000000">riot_version.h</text>
</a>
</g>
</g>
<!-- Node11&#45;&gt;Node13 -->
<g id="edge14" class="edge">
<title>Node11&#45;&gt;Node13</title>
<path fill="none" stroke="#191970" d="M1155.4151,-168.4524C1188.9176,-159.9508 1231.6896,-146.6229 1242,-132 1253.3892,-115.8471 1238.442,-96.2257 1223.8804,-82.5951"/>
<polygon fill="#191970" stroke="#191970" points="1225.8303,-79.6506 1216,-75.699 1221.2205,-84.9184 1225.8303,-79.6506"/>
</g>
<!-- Node14 -->
<g id="node15" class="node">
<title>Node14</title>
<g id="a_node15"><a xlink:href="compiler__hints_8h.html" target="_top" xlink:title="Common macros and compiler attributes/pragmas configuration. ">
<polygon fill="#ffffff" stroke="#000000" points="969.5,-112.5 969.5,-131.5 1062.5,-131.5 1062.5,-112.5 969.5,-112.5"/>
<text text-anchor="middle" x="1016" y="-119.5" font-family="Helvetica,sans-Serif" font-size="10.00" fill="#000000">compiler_hints.h</text>
</a>
</g>
</g>
<!-- Node11&#45;&gt;Node14 -->
<g id="edge16" class="edge">
<title>Node11&#45;&gt;Node14</title>
<path fill="none" stroke="#191970" d="M1096.1039,-168.2455C1081.082,-159.5731 1058.8957,-146.7645 1041.679,-136.825"/>
<polygon fill="#191970" stroke="#191970" points="1043.1128,-133.6114 1032.7025,-131.6427 1039.6129,-139.6737 1043.1128,-133.6114"/>
</g>
<!-- Node16 -->
<g id="node17" class="node">
<title>Node16</title>
<g id="a_node17"><a xlink:href="container_8h.html" target="_top" xlink:title="Common macros and compiler attributes/pragmas configuration. ">
<polygon fill="#ffffff" stroke="#000000" points="1163.5,-112.5 1163.5,-131.5 1232.5,-131.5 1232.5,-112.5 1163.5,-112.5"/>
<text text-anchor="middle" x="1198" y="-119.5" font-family="Helvetica,sans-Serif" font-size="10.00" fill="#000000">container.h</text>
</a>
</g>
</g>
<!-- Node11&#45;&gt;Node16 -->
<g id="edge20" class="edge">
<title>Node11&#45;&gt;Node16</title>
<path fill="none" stroke="#191970" d="M1127.8059,-168.2455C1140.7256,-159.7337 1159.6931,-147.2375 1174.6552,-137.3801"/>
<polygon fill="#191970" stroke="#191970" points="1176.9387,-140.067 1183.3638,-131.6427 1173.0876,-134.2216 1176.9387,-140.067"/>
</g>
<!-- Node13&#45;&gt;Node5 -->
<g id="edge15" class="edge">
<title>Node13&#45;&gt;Node5</title>
<path fill="none" stroke="#191970" d="M1173.0883,-56.3733C1143.1026,-46.7227 1096.9178,-31.8586 1064.955,-21.5717"/>
<polygon fill="#191970" stroke="#191970" points="1065.7072,-18.1371 1055.1157,-18.4051 1063.5626,-24.8005 1065.7072,-18.1371"/>
</g>
<!-- Node14&#45;&gt;Node5 -->
<g id="edge19" class="edge">
<title>Node14&#45;&gt;Node5</title>
<path fill="none" stroke="#191970" d="M1017.1084,-112.4509C1019.2286,-94.184 1023.898,-53.9553 1026.7137,-29.6976"/>
<polygon fill="#191970" stroke="#191970" points="1030.218,-29.8618 1027.8944,-19.5249 1023.2647,-29.0546 1030.218,-29.8618"/>
</g>
<!-- Node15 -->
<g id="node16" class="node">
<title>Node15</title>
<g id="a_node16"><a xlink:href="assert_8h.html" target="_top" xlink:title="POSIX.1&#45;2008 compliant version of the assert macro. ">
<polygon fill="#ffffff" stroke="#000000" points="947,-56.5 947,-75.5 1001,-75.5 1001,-56.5 947,-56.5"/>
<text text-anchor="middle" x="974" y="-63.5" font-family="Helvetica,sans-Serif" font-size="10.00" fill="#000000">assert.h</text>
</a>
</g>
</g>
<!-- Node14&#45;&gt;Node15 -->
<g id="edge17" class="edge">
<title>Node14&#45;&gt;Node15</title>
<path fill="none" stroke="#191970" d="M1008.6842,-112.2455C1002.7821,-104.3761 994.3258,-93.101 987.2406,-83.6542"/>
<polygon fill="#191970" stroke="#191970" points="990.0321,-81.5427 981.232,-75.6427 984.432,-85.7427 990.0321,-81.5427"/>
</g>
<!-- Node15&#45;&gt;Node5 -->
<g id="edge18" class="edge">
<title>Node15&#45;&gt;Node5</title>
<path fill="none" stroke="#191970" d="M983.5803,-56.2455C991.5458,-48.1352 1003.0641,-36.4075 1012.5079,-26.7919"/>
<polygon fill="#191970" stroke="#191970" points="1015.0195,-29.2297 1019.5295,-19.6427 1010.0253,-24.3247 1015.0195,-29.2297"/>
</g>
<!-- Node16&#45;&gt;Node4 -->
<g id="edge21" class="edge">
<title>Node16&#45;&gt;Node4</title>
<path fill="none" stroke="#191970" d="M1163.3459,-113.5185C1160.5313,-112.9587 1157.7235,-112.4427 1155,-112 988.2942,-84.9012 786.8263,-72.1989 704.1804,-67.8376"/>
<polygon fill="#191970" stroke="#191970" points="704.1779,-64.3329 694.0104,-67.3117 703.8163,-71.3236 704.1779,-64.3329"/>
</g>
<!-- Node16&#45;&gt;Node5 -->
<g id="edge22" class="edge">
<title>Node16&#45;&gt;Node5</title>
<path fill="none" stroke="#191970" d="M1183.5912,-112.4509C1154.2815,-93.0268 1087.5017,-48.7703 1052.0708,-25.2895"/>
<polygon fill="#191970" stroke="#191970" points="1053.6415,-22.1317 1043.3724,-19.5249 1049.7745,-27.9666 1053.6415,-22.1317"/>
</g>
<!-- Node19 -->
<g id="node20" class="node">
<title>Node19</title>
<g id="a_node20"><a xlink:href="clist_8h.html" target="_top" xlink:title="Circular linked list. ">
<polygon fill="#ffffff" stroke="#000000" points="644.5,-168.5 644.5,-187.5 687.5,-187.5 687.5,-168.5 644.5,-168.5"/>
<text text-anchor="middle" x="666" y="-175.5" font-family="Helvetica,sans-Serif" font-size="10.00" fill="#000000">clist.h</text>
</a>
</g>
</g>
<!-- Node18&#45;&gt;Node19 -->
<g id="edge25" class="edge">
<title>Node18&#45;&gt;Node19</title>
<path fill="none" stroke="#191970" d="M750.258,-336.3966C768.4809,-324.2925 794.2249,-302.354 784,-280 765.6036,-239.7813 722.6515,-209.3639 693.9638,-192.6117"/>
<polygon fill="#191970" stroke="#191970" points="695.6279,-189.5318 685.2001,-187.6577 692.1831,-195.6256 695.6279,-189.5318"/>
</g>
<!-- Node20 -->
<g id="node21" class="node">
<title>Node20</title>
<g id="a_node21"><a xlink:href="cib_8h.html" target="_top" xlink:title="Circular integer buffer interface. ">
<polygon fill="#ffffff" stroke="#000000" points="895,-280.5 895,-299.5 933,-299.5 933,-280.5 895,-280.5"/>
<text text-anchor="middle" x="914" y="-287.5" font-family="Helvetica,sans-Serif" font-size="10.00" fill="#000000">cib.h</text>
</a>
</g>
</g>
<!-- Node18&#45;&gt;Node20 -->
<g id="edge29" class="edge">
<title>Node18&#45;&gt;Node20</title>
<path fill="none" stroke="#191970" d="M762.5215,-337.1266C796.1208,-326.6735 851.6175,-309.4079 885.2958,-298.9302"/>
<polygon fill="#191970" stroke="#191970" points="886.4901,-302.2242 894.9989,-295.9115 884.4105,-295.5402 886.4901,-302.2242"/>
</g>
<!-- Node21 -->
<g id="node22" class="node">
<title>Node21</title>
<g id="a_node22"><a xlink:href="core_2include_2msg_8h.html" target="_top" xlink:title="Messaging API for inter process communication. ">
<polygon fill="#ffffff" stroke="#000000" points="474.5,-280.5 474.5,-299.5 519.5,-299.5 519.5,-280.5 474.5,-280.5"/>
<text text-anchor="middle" x="497" y="-287.5" font-family="Helvetica,sans-Serif" font-size="10.00" fill="#000000">msg.h</text>
</a>
</g>
</g>
<!-- Node18&#45;&gt;Node21 -->
<g id="edge31" class="edge">
<title>Node18&#45;&gt;Node21</title>
<path fill="none" stroke="#191970" d="M705.4123,-339.2451C661.1169,-328.7787 576.1603,-308.7045 529.5621,-297.694"/>
<polygon fill="#191970" stroke="#191970" points="530.2186,-294.2528 519.6818,-295.3594 528.6089,-301.0652 530.2186,-294.2528"/>
</g>
<!-- Node22 -->
<g id="node23" class="node">
<title>Node22</title>
<g id="a_node23"><a xlink:href="sched_8h.html" target="_top" xlink:title="Scheduler API definition. ">
<polygon fill="#ffffff" stroke="#000000" points="556.5,-224.5 556.5,-243.5 609.5,-243.5 609.5,-224.5 556.5,-224.5"/>
<text text-anchor="middle" x="583" y="-231.5" font-family="Helvetica,sans-Serif" font-size="10.00" fill="#000000">sched.h</text>
</a>
</g>
</g>
<!-- Node18&#45;&gt;Node22 -->
<g id="edge40" class="edge">
<title>Node18&#45;&gt;Node22</title>
<path fill="none" stroke="#191970" d="M705.2581,-341.7938C664.0758,-335.1126 591.5182,-320.6805 576,-300 565.9829,-286.6506 569.5419,-267.279 574.5212,-252.9734"/>
<polygon fill="#191970" stroke="#191970" points="577.801,-254.197 578.2241,-243.6106 571.2916,-251.6225 577.801,-254.197"/>
</g>
<!-- Node24 -->
<g id="node25" class="node">
<title>Node24</title>
<g id="a_node25"><a xlink:href="thread__config_8h.html" target="_top" xlink:title="Thread configuration defines. ">
<polygon fill="#ffffff" stroke="#000000" points="585,-280.5 585,-299.5 675,-299.5 675,-280.5 585,-280.5"/>
<text text-anchor="middle" x="630" y="-287.5" font-family="Helvetica,sans-Serif" font-size="10.00" fill="#000000">thread_config.h</text>
</a>
</g>
</g>
<!-- Node18&#45;&gt;Node24 -->
<g id="edge41" class="edge">
<title>Node18&#45;&gt;Node24</title>
<path fill="none" stroke="#191970" d="M715.8846,-336.2455C699.555,-327.4527 675.329,-314.4079 656.7661,-304.4125"/>
<polygon fill="#191970" stroke="#191970" points="658.3719,-301.3021 647.9078,-299.6427 655.0532,-307.4654 658.3719,-301.3021"/>
</g>
<!-- Node26 -->
<g id="node27" class="node">
<title>Node26</title>
<polygon fill="#ffffff" stroke="#bfbfbf" points="693,-280.5 693,-299.5 775,-299.5 775,-280.5 693,-280.5"/>
<text text-anchor="middle" x="734" y="-287.5" font-family="Helvetica,sans-Serif" font-size="10.00" fill="#000000">thread_arch.h</text>
</g>
<!-- Node18&#45;&gt;Node26 -->
<g id="edge44" class="edge">
<title>Node18&#45;&gt;Node26</title>
<path fill="none" stroke="#191970" d="M734,-336.2455C734,-328.9382 734,-318.6944 734,-309.7046"/>
<polygon fill="#191970" stroke="#191970" points="737.5001,-309.6426 734,-299.6427 730.5001,-309.6427 737.5001,-309.6426"/>
</g>
<!-- Node19&#45;&gt;Node4 -->
<g id="edge27" class="edge">
<title>Node19&#45;&gt;Node4</title>
<path fill="none" stroke="#191970" d="M666,-168.4509C666,-150.184 666,-109.9553 666,-85.6976"/>
<polygon fill="#191970" stroke="#191970" points="669.5001,-85.5249 666,-75.5249 662.5001,-85.5249 669.5001,-85.5249"/>
</g>
<!-- Node19&#45;&gt;Node6 -->
<g id="edge26" class="edge">
<title>Node19&#45;&gt;Node6</title>
<path fill="none" stroke="#191970" d="M644.3878,-170.78C641.2506,-169.8045 638.051,-168.8486 635,-168 581.4089,-153.0942 518.7015,-138.9437 478.9236,-130.3701"/>
<polygon fill="#191970" stroke="#191970" points="479.5895,-126.9334 469.0782,-128.261 478.1232,-133.7781 479.5895,-126.9334"/>
</g>
<!-- Node19&#45;&gt;Node17 -->
<g id="edge28" class="edge">
<title>Node19&#45;&gt;Node17</title>
<path fill="none" stroke="#191970" d="M687.6245,-170.7735C690.4412,-169.8376 693.2888,-168.8941 696,-168 734.7664,-155.2155 779.5912,-140.6245 808.1045,-131.3672"/>
<polygon fill="#191970" stroke="#191970" points="809.3987,-134.627 817.83,-128.2111 807.2379,-127.9688 809.3987,-134.627"/>
</g>
<!-- Node20&#45;&gt;Node15 -->
<g id="edge30" class="edge">
<title>Node20&#45;&gt;Node15</title>
<path fill="none" stroke="#191970" d="M916.5753,-280.449C921.4298,-262.4056 932.2347,-222.0613 941,-188 949.6772,-154.2813 950.7061,-145.554 960,-112 962.417,-103.2738 965.2992,-93.6841 967.8184,-85.5291"/>
<polygon fill="#191970" stroke="#191970" points="971.2077,-86.4174 970.8515,-75.8286 964.5267,-84.3284 971.2077,-86.4174"/>
</g>
<!-- Node21&#45;&gt;Node5 -->
<g id="edge32" class="edge">
<title>Node21&#45;&gt;Node5</title>
<path fill="none" stroke="#191970" d="M474.247,-288.3827C421.4885,-284.2737 286.9965,-271.7318 178,-244 96.2309,-223.1956 0,-262.3742 0,-178 0,-178 0,-178 0,-122 0,-88.5868 7.6704,-73.7167 36,-56 77.2948,-30.1752 818.0999,-14.123 992.4645,-10.6924"/>
<polygon fill="#191970" stroke="#191970" points="992.7302,-14.188 1002.66,-10.4935 992.5936,-7.1893 992.7302,-14.188"/>
</g>
<!-- Node21&#45;&gt;Node6 -->
<g id="edge33" class="edge">
<title>Node21&#45;&gt;Node6</title>
<path fill="none" stroke="#191970" d="M493.7155,-280.4862C484.5073,-253.8144 458.3029,-177.9117 445.7995,-141.695"/>
<polygon fill="#191970" stroke="#191970" points="448.9648,-140.1382 442.393,-131.8279 442.348,-142.4226 448.9648,-140.1382"/>
</g>
<!-- Node21&#45;&gt;Node22 -->
<g id="edge34" class="edge">
<title>Node21&#45;&gt;Node22</title>
<path fill="none" stroke="#191970" d="M511.9801,-280.2455C525.1751,-271.6534 544.6051,-259.0014 559.8079,-249.1018"/>
<polygon fill="#191970" stroke="#191970" points="561.7215,-252.0325 568.1916,-243.6427 557.9017,-246.1665 561.7215,-252.0325"/>
</g>
<!-- Node22&#45;&gt;Node4 -->
<g id="edge35" class="edge">
<title>Node22&#45;&gt;Node4</title>
<path fill="none" stroke="#191970" d="M565.9323,-224.3889C546.8198,-212.2771 519.884,-190.3308 531,-168 552.2074,-125.3965 600.6391,-95.8656 633.3443,-79.9238"/>
<polygon fill="#191970" stroke="#191970" points="634.9714,-83.0264 642.5285,-75.6006 631.9901,-76.693 634.9714,-83.0264"/>
</g>
<!-- Node22&#45;&gt;Node8 -->
<g id="edge36" class="edge">
<title>Node22&#45;&gt;Node8</title>
<path fill="none" stroke="#191970" d="M609.4735,-224.3733C634.8597,-215.1419 673.3645,-201.1402 701.422,-190.9375"/>
<polygon fill="#191970" stroke="#191970" points="702.6701,-194.2079 710.8719,-187.5011 700.2778,-187.6293 702.6701,-194.2079"/>
</g>
<!-- Node22&#45;&gt;Node11 -->
<g id="edge37" class="edge">
<title>Node22&#45;&gt;Node11</title>
<path fill="none" stroke="#191970" d="M609.631,-225.8397C612.4397,-225.1447 615.2671,-224.5128 618,-224 700.465,-208.5264 943.1974,-190.0228 1055.1851,-182.0174"/>
<polygon fill="#191970" stroke="#191970" points="1055.556,-185.4999 1065.2822,-181.2987 1055.0589,-178.5176 1055.556,-185.4999"/>
</g>
<!-- Node22&#45;&gt;Node19 -->
<g id="edge39" class="edge">
<title>Node22&#45;&gt;Node19</title>
<path fill="none" stroke="#191970" d="M597.4575,-224.2455C610.0732,-215.7337 628.5944,-203.2375 643.2045,-193.3801"/>
<polygon fill="#191970" stroke="#191970" points="645.3761,-196.1371 651.7082,-187.6427 641.4609,-190.3343 645.3761,-196.1371"/>
</g>
<!-- Node23 -->
<g id="node24" class="node">
<title>Node23</title>
<g id="a_node24"><a xlink:href="native__sched_8h.html" target="_top" xlink:title="Add definitions required on the native board. ">
<polygon fill="#ffffff" stroke="#000000" points="540,-168.5 540,-187.5 626,-187.5 626,-168.5 540,-168.5"/>
<text text-anchor="middle" x="583" y="-175.5" font-family="Helvetica,sans-Serif" font-size="10.00" fill="#000000">native_sched.h</text>
</a>
</g>
</g>
<!-- Node22&#45;&gt;Node23 -->
<g id="edge38" class="edge">
<title>Node22&#45;&gt;Node23</title>
<path fill="none" stroke="#191970" d="M583,-224.2455C583,-216.9382 583,-206.6944 583,-197.7046"/>
<polygon fill="#191970" stroke="#191970" points="586.5001,-197.6426 583,-187.6427 579.5001,-197.6427 586.5001,-197.6426"/>
</g>
<!-- Node24&#45;&gt;Node22 -->
<g id="edge43" class="edge">
<title>Node24&#45;&gt;Node22</title>
<path fill="none" stroke="#191970" d="M621.8132,-280.2455C615.1411,-272.2958 605.5521,-260.8706 597.5747,-251.3656"/>
<polygon fill="#191970" stroke="#191970" points="600.2026,-249.0524 591.093,-243.6427 594.8408,-253.5525 600.2026,-249.0524"/>
</g>
<!-- Node25 -->
<g id="node26" class="node">
<title>Node25</title>
<polygon fill="#ffffff" stroke="#bfbfbf" points="627.5,-224.5 627.5,-243.5 694.5,-243.5 694.5,-224.5 627.5,-224.5"/>
<text text-anchor="middle" x="661" y="-231.5" font-family="Helvetica,sans-Serif" font-size="10.00" fill="#000000">cpu_conf.h</text>
</g>
<!-- Node24&#45;&gt;Node25 -->
<g id="edge42" class="edge">
<title>Node24&#45;&gt;Node25</title>
<path fill="none" stroke="#191970" d="M635.3998,-280.2455C639.6227,-272.617 645.6173,-261.7881 650.7441,-252.5267"/>
<polygon fill="#191970" stroke="#191970" points="653.881,-254.0867 655.6621,-243.6427 647.7568,-250.6965 653.881,-254.0867"/>
</g>
<!-- Node27&#45;&gt;Node4 -->
<g id="edge50" class="edge">
<title>Node27&#45;&gt;Node4</title>
<path fill="none" stroke="#191970" d="M217.9416,-224.2902C204.5708,-201.5027 175.9417,-144.1021 205,-112 233.1797,-80.8685 522.1452,-69.9176 627.681,-66.9389"/>
<polygon fill="#191970" stroke="#191970" points="627.9868,-70.432 637.8873,-66.6597 627.7953,-63.4346 627.9868,-70.432"/>
</g>
<!-- Node27&#45;&gt;Node5 -->
<g id="edge51" class="edge">
<title>Node27&#45;&gt;Node5</title>
<path fill="none" stroke="#191970" d="M214.7004,-224.359C206.9788,-215.6483 196.5508,-202.0695 192,-188 181.6039,-155.8588 168.6794,-137.356 191,-112 244.8456,-50.8317 837.6591,-18.9586 992.2897,-11.6479"/>
<polygon fill="#191970" stroke="#191970" points="992.8266,-15.1267 1002.6524,-11.1639 992.4999,-8.1344 992.8266,-15.1267"/>
</g>
<!-- Node27&#45;&gt;Node6 -->
<g id="edge49" class="edge">
<title>Node27&#45;&gt;Node6</title>
<path fill="none" stroke="#191970" d="M260.7768,-228.86C293.7372,-222.9656 342.3923,-210.9888 379,-188 398.7654,-175.5878 416.0545,-154.9138 426.932,-140.0086"/>
<polygon fill="#191970" stroke="#191970" points="429.9556,-141.7933 432.841,-131.5989 424.2281,-137.7689 429.9556,-141.7933"/>
</g>
<!-- Node28 -->
<g id="node29" class="node">
<title>Node28</title>
<g id="a_node29"><a xlink:href="endian_8h.html" target="_top" xlink:title="libc header for endian conversion ">
<polygon fill="#ffffff" stroke="#000000" points="45.5,-56.5 45.5,-75.5 102.5,-75.5 102.5,-56.5 45.5,-56.5"/>
<text text-anchor="middle" x="74" y="-63.5" font-family="Helvetica,sans-Serif" font-size="10.00" fill="#000000">endian.h</text>
</a>
</g>
</g>
<!-- Node27&#45;&gt;Node28 -->
<g id="edge46" class="edge">
<title>Node27&#45;&gt;Node28</title>
<path fill="none" stroke="#191970" d="M187.3063,-229.0962C143.0789,-222.3458 72.718,-208.6329 57,-188 34.0046,-157.8141 51.0552,-110.8596 63.6845,-84.8856"/>
<polygon fill="#191970" stroke="#191970" points="66.9262,-86.2344 68.3762,-75.7393 60.6978,-83.0395 66.9262,-86.2344"/>
</g>
<!-- Node29 -->
<g id="node30" class="node">
<title>Node29</title>
<g id="a_node30"><a xlink:href="errno_8h.html" target="_top" xlink:title="errno.h">
<polygon fill="#ffffff" stroke="#000000" points="66.5,-168.5 66.5,-187.5 119.5,-187.5 119.5,-168.5 66.5,-168.5"/>
<text text-anchor="middle" x="93" y="-175.5" font-family="Helvetica,sans-Serif" font-size="10.00" fill="#000000">errno.h</text>
</a>
</g>
</g>
<!-- Node27&#45;&gt;Node29 -->
<g id="edge48" class="edge">
<title>Node27&#45;&gt;Node29</title>
<path fill="none" stroke="#191970" d="M201.4803,-224.3733C180.2628,-215.3032 148.2724,-201.6279 124.5231,-191.4755"/>
<polygon fill="#191970" stroke="#191970" points="125.7967,-188.2136 115.2258,-187.5011 123.0452,-194.6502 125.7967,-188.2136"/>
</g>
<!-- Node30 -->
<g id="node31" class="node">
<title>Node30</title>
<polygon fill="#ffffff" stroke="#bfbfbf" points="214.5,-112.5 214.5,-131.5 291.5,-131.5 291.5,-112.5 214.5,-112.5"/>
<text text-anchor="middle" x="253" y="-119.5" font-family="Helvetica,sans-Serif" font-size="10.00" fill="#000000">periph_cpu.h</text>
</g>
<!-- Node27&#45;&gt;Node30 -->
<g id="edge52" class="edge">
<title>Node27&#45;&gt;Node30</title>
<path fill="none" stroke="#191970" d="M226.4725,-224.4509C231.2238,-206.1013 241.7131,-165.5908 247.9847,-141.3693"/>
<polygon fill="#191970" stroke="#191970" points="251.4153,-142.083 250.5337,-131.5249 244.6388,-140.3283 251.4153,-142.083"/>
</g>
<!-- Node31 -->
<g id="node32" class="node">
<title>Node31</title>
<polygon fill="#ffffff" stroke="#bfbfbf" points="309.5,-112.5 309.5,-131.5 390.5,-131.5 390.5,-112.5 309.5,-112.5"/>
<text text-anchor="middle" x="350" y="-119.5" font-family="Helvetica,sans-Serif" font-size="10.00" fill="#000000">periph_conf.h</text>
</g>
<!-- Node27&#45;&gt;Node31 -->
<g id="edge53" class="edge">
<title>Node27&#45;&gt;Node31</title>
<path fill="none" stroke="#191970" d="M231.0235,-224.3196C241.1314,-210.7766 260.7967,-185.8351 281,-168 294.242,-156.3102 310.6394,-145.2598 324.1264,-136.9209"/>
<polygon fill="#191970" stroke="#191970" points="326.1742,-139.7729 332.924,-131.6064 322.5548,-133.7812 326.1742,-139.7729"/>
</g>
<!-- Node27&#45;&gt;Node32 -->
<g id="edge54" class="edge">
<title>Node27&#45;&gt;Node32</title>
<path fill="none" stroke="#191970" d="M242.4638,-224.2455C259.1074,-215.4527 283.7993,-202.4079 302.7192,-192.4125"/>
<polygon fill="#191970" stroke="#191970" points="304.5408,-195.4086 311.7478,-187.6427 301.2709,-189.2193 304.5408,-195.4086"/>
</g>
<!-- Node28&#45;&gt;Node5 -->
<g id="edge47" class="edge">
<title>Node28&#45;&gt;Node5</title>
<path fill="none" stroke="#191970" d="M102.5964,-60.5521C112.5073,-58.8456 123.7114,-57.1181 134,-56 466.1954,-19.8987 870.9241,-11.9953 992.6796,-10.386"/>
<polygon fill="#191970" stroke="#191970" points="992.9657,-13.8827 1002.9207,-10.2568 992.8773,-6.8833 992.9657,-13.8827"/>
</g>
<!-- Node32&#45;&gt;Node6 -->
<g id="edge56" class="edge">
<title>Node32&#45;&gt;Node6</title>
<path fill="none" stroke="#191970" d="M348.9864,-168.2455C366.1792,-159.4125 391.7238,-146.2887 411.2132,-136.2758"/>
<polygon fill="#191970" stroke="#191970" points="412.9359,-139.3257 420.2312,-131.6427 409.737,-133.0993 412.9359,-139.3257"/>
</g>
<!-- Node32&#45;&gt;Node9 -->
<g id="edge55" class="edge">
<title>Node32&#45;&gt;Node9</title>
<path fill="none" stroke="#191970" d="M370.2372,-172.4772C450.1127,-161.5139 627.4798,-137.1694 702.9321,-126.8132"/>
<polygon fill="#191970" stroke="#191970" points="703.4504,-130.275 712.8816,-125.4476 702.4985,-123.34 703.4504,-130.275"/>
</g>
<!-- Node32&#45;&gt;Node30 -->
<g id="edge57" class="edge">
<title>Node32&#45;&gt;Node30</title>
<path fill="none" stroke="#191970" d="M316.5876,-168.2455C304.9943,-159.814 288.0252,-147.4729 274.5322,-137.6598"/>
<polygon fill="#191970" stroke="#191970" points="276.4047,-134.6938 266.2587,-131.6427 272.2874,-140.355 276.4047,-134.6938"/>
</g>
<!-- Node32&#45;&gt;Node31 -->
<g id="edge58" class="edge">
<title>Node32&#45;&gt;Node31</title>
<path fill="none" stroke="#191970" d="M333.4837,-168.2455C336.1508,-160.7776 339.9133,-150.2427 343.1737,-141.1137"/>
<polygon fill="#191970" stroke="#191970" points="346.4889,-142.2373 346.5562,-131.6427 339.8967,-139.8829 346.4889,-142.2373"/>
</g>
</g>
</svg>
