<?xml version="1.0" encoding="UTF-8" standalone="no"?>
<!DOCTYPE svg PUBLIC "-//W3C//DTD SVG 1.1//EN"
 "http://www.w3.org/Graphics/SVG/1.1/DTD/svg11.dtd">
<!-- Generated by graphviz version 2.40.1 (0)
 -->
<!-- Title: sys/include/xtimer/implementation.h Pages: 1 -->
<svg width="563pt" height="207pt"
 viewBox="0.00 0.00 562.50 207.00" xmlns="http://www.w3.org/2000/svg" xmlns:xlink="http://www.w3.org/1999/xlink">
<g id="graph0" class="graph" transform="scale(1 1) rotate(0) translate(4 203)">
<title>sys/include/xtimer/implementation.h</title>
<polygon fill="#ffffff" stroke="transparent" points="-4,4 -4,-203 558.5,-203 558.5,4 -4,4"/>
<!-- Node0 -->
<g id="node1" class="node">
<title>Node0</title>
<polygon fill="#bfbfbf" stroke="#000000" points="323.5,-168.5 323.5,-198.5 426.5,-198.5 426.5,-168.5 323.5,-168.5"/>
<text text-anchor="start" x="331.5" y="-186.5" font-family="Helvetica,sans-Serif" font-size="10.00" fill="#000000">sys/include/xtimer</text>
<text text-anchor="middle" x="375" y="-175.5" font-family="Helvetica,sans-Serif" font-size="10.00" fill="#000000">/implementation.h</text>
</g>
<!-- Node1 -->
<g id="node2" class="node">
<title>Node1</title>
<g id="a_node2"><a xlink:href="drivers_2include_2periph_2timer_8h.html" target="_top" xlink:title="Low&#45;level timer peripheral driver interface definitions. ">
<polygon fill="#ffffff" stroke="#000000" points="269.5,-112.5 269.5,-131.5 354.5,-131.5 354.5,-112.5 269.5,-112.5"/>
<text text-anchor="middle" x="312" y="-119.5" font-family="Helvetica,sans-Serif" font-size="10.00" fill="#000000">periph/timer.h</text>
</a>
</g>
</g>
<!-- Node0&#45;&gt;Node1 -->
<g id="edge1" class="edge">
<title>Node0&#45;&gt;Node1</title>
<path fill="none" stroke="#191970" d="M359.427,-168.2977C350.3175,-159.4052 338.7966,-148.1586 329.3909,-138.9769"/>
<polygon fill="#191970" stroke="#191970" points="331.6878,-136.3278 322.0871,-131.8469 326.798,-141.3368 331.6878,-136.3278"/>
</g>
<!-- Node10 -->
<g id="node11" class="node">
<title>Node10</title>
<g id="a_node11"><a xlink:href="irq_8h.html" target="_top" xlink:title="IRQ driver interface. ">
<polygon fill="#ffffff" stroke="#000000" points="420,-112.5 420,-131.5 458,-131.5 458,-112.5 420,-112.5"/>
<text text-anchor="middle" x="439" y="-119.5" font-family="Helvetica,sans-Serif" font-size="10.00" fill="#000000">irq.h</text>
</a>
</g>
</g>
<!-- Node0&#45;&gt;Node10 -->
<g id="edge12" class="edge">
<title>Node0&#45;&gt;Node10</title>
<path fill="none" stroke="#191970" d="M390.8202,-168.2977C400.0742,-159.4052 411.7781,-148.1586 421.333,-138.9769"/>
<polygon fill="#191970" stroke="#191970" points="423.9674,-141.2995 428.7528,-131.8469 419.1172,-136.2521 423.9674,-141.2995"/>
</g>
<!-- Node2 -->
<g id="node3" class="node">
<title>Node2</title>
<polygon fill="#ffffff" stroke="#bfbfbf" points="316,-.5 316,-19.5 366,-19.5 366,-.5 316,-.5"/>
<text text-anchor="middle" x="341" y="-7.5" font-family="Helvetica,sans-Serif" font-size="10.00" fill="#000000">limits.h</text>
</g>
<!-- Node1&#45;&gt;Node2 -->
<g id="edge2" class="edge">
<title>Node1&#45;&gt;Node2</title>
<path fill="none" stroke="#191970" d="M327.618,-112.4791C339.2472,-104.3972 354.2332,-91.6339 361,-76 367.7355,-60.4385 360.8974,-41.8953 353.4427,-28.4322"/>
<polygon fill="#191970" stroke="#191970" points="356.2809,-26.3633 348.0909,-19.642 350.3019,-30.0036 356.2809,-26.3633"/>
</g>
<!-- Node3 -->
<g id="node4" class="node">
<title>Node3</title>
<polygon fill="#ffffff" stroke="#bfbfbf" points="0,-.5 0,-19.5 52,-19.5 52,-.5 0,-.5"/>
<text text-anchor="middle" x="26" y="-7.5" font-family="Helvetica,sans-Serif" font-size="10.00" fill="#000000">stdint.h</text>
</g>
<!-- Node1&#45;&gt;Node3 -->
<g id="edge3" class="edge">
<title>Node1&#45;&gt;Node3</title>
<path fill="none" stroke="#191970" d="M269.3541,-118.2307C207.9187,-112.1066 98.3328,-98.377 66,-76 49.7082,-64.7247 38.8913,-44.4536 32.6603,-29.3415"/>
<polygon fill="#191970" stroke="#191970" points="35.8891,-27.9847 29.0683,-19.8774 29.3446,-30.4687 35.8891,-27.9847"/>
</g>
<!-- Node4 -->
<g id="node5" class="node">
<title>Node4</title>
<polygon fill="#ffffff" stroke="#bfbfbf" points="409,-56.5 409,-75.5 469,-75.5 469,-56.5 409,-56.5"/>
<text text-anchor="middle" x="439" y="-63.5" font-family="Helvetica,sans-Serif" font-size="10.00" fill="#000000">stdbool.h</text>
</g>
<!-- Node1&#45;&gt;Node4 -->
<g id="edge4" class="edge">
<title>Node1&#45;&gt;Node4</title>
<path fill="none" stroke="#191970" d="M333.8321,-112.3733C354.3103,-103.3435 385.1399,-89.7494 408.1319,-79.6111"/>
<polygon fill="#191970" stroke="#191970" points="409.715,-82.7383 417.4528,-75.5011 406.8907,-76.3333 409.715,-82.7383"/>
</g>
<!-- Node5 -->
<g id="node6" class="node">
<title>Node5</title>
<g id="a_node6"><a xlink:href="architecture_8h.html" target="_top" xlink:title="Platform&#45;independent access to architecture details. ">
<polygon fill="#ffffff" stroke="#000000" points="75.5,-56.5 75.5,-75.5 158.5,-75.5 158.5,-56.5 75.5,-56.5"/>
<text text-anchor="middle" x="117" y="-63.5" font-family="Helvetica,sans-Serif" font-size="10.00" fill="#000000">architecture.h</text>
</a>
</g>
</g>
<!-- Node1&#45;&gt;Node5 -->
<g id="edge5" class="edge">
<title>Node1&#45;&gt;Node5</title>
<path fill="none" stroke="#191970" d="M278.4783,-112.3733C245.6317,-102.9404 195.4405,-88.5265 159.7422,-78.2747"/>
<polygon fill="#191970" stroke="#191970" points="160.6619,-74.8974 150.0843,-75.5011 158.7297,-81.6255 160.6619,-74.8974"/>
</g>
<!-- Node8 -->
<g id="node9" class="node">
<title>Node8</title>
<polygon fill="#ffffff" stroke="#bfbfbf" points="176.5,-56.5 176.5,-75.5 253.5,-75.5 253.5,-56.5 176.5,-56.5"/>
<text text-anchor="middle" x="215" y="-63.5" font-family="Helvetica,sans-Serif" font-size="10.00" fill="#000000">periph_cpu.h</text>
</g>
<!-- Node1&#45;&gt;Node8 -->
<g id="edge10" class="edge">
<title>Node1&#45;&gt;Node8</title>
<path fill="none" stroke="#191970" d="M295.1039,-112.2455C280.082,-103.5731 257.8957,-90.7645 240.679,-80.825"/>
<polygon fill="#191970" stroke="#191970" points="242.1128,-77.6114 231.7025,-75.6427 238.6129,-83.6737 242.1128,-77.6114"/>
</g>
<!-- Node9 -->
<g id="node10" class="node">
<title>Node9</title>
<polygon fill="#ffffff" stroke="#bfbfbf" points="271.5,-56.5 271.5,-75.5 352.5,-75.5 352.5,-56.5 271.5,-56.5"/>
<text text-anchor="middle" x="312" y="-63.5" font-family="Helvetica,sans-Serif" font-size="10.00" fill="#000000">periph_conf.h</text>
</g>
<!-- Node1&#45;&gt;Node9 -->
<g id="edge11" class="edge">
<title>Node1&#45;&gt;Node9</title>
<path fill="none" stroke="#191970" d="M312,-112.2455C312,-104.9382 312,-94.6944 312,-85.7046"/>
<polygon fill="#191970" stroke="#191970" points="315.5001,-85.6426 312,-75.6427 308.5001,-85.6427 315.5001,-85.6426"/>
</g>
<!-- Node5&#45;&gt;Node2 -->
<g id="edge8" class="edge">
<title>Node5&#45;&gt;Node2</title>
<path fill="none" stroke="#191970" d="M155.2525,-56.4369C197.5283,-45.8679 265.0398,-28.99 305.9758,-18.756"/>
<polygon fill="#191970" stroke="#191970" points="306.9267,-22.1261 315.7792,-16.3052 305.2288,-15.3351 306.9267,-22.1261"/>
</g>
<!-- Node5&#45;&gt;Node3 -->
<g id="edge6" class="edge">
<title>Node5&#45;&gt;Node3</title>
<path fill="none" stroke="#191970" d="M101.149,-56.2455C87.1868,-47.6534 66.6272,-35.0014 50.5404,-25.1018"/>
<polygon fill="#191970" stroke="#191970" points="52.0203,-21.9029 41.6693,-19.6427 48.3516,-27.8645 52.0203,-21.9029"/>
</g>
<!-- Node6 -->
<g id="node7" class="node">
<title>Node6</title>
<g id="a_node7"><a xlink:href="inttypes_8h.html" target="_top" xlink:title="Adds include for missing inttype definitions. ">
<polygon fill="#ffffff" stroke="#000000" points="195.5,-.5 195.5,-19.5 258.5,-19.5 258.5,-.5 195.5,-.5"/>
<text text-anchor="middle" x="227" y="-7.5" font-family="Helvetica,sans-Serif" font-size="10.00" fill="#000000">inttypes.h</text>
</a>
</g>
</g>
<!-- Node5&#45;&gt;Node6 -->
<g id="edge7" class="edge">
<title>Node5&#45;&gt;Node6</title>
<path fill="none" stroke="#191970" d="M136.1605,-56.2455C153.5111,-47.4125 179.2901,-34.2887 198.9583,-24.2758"/>
<polygon fill="#191970" stroke="#191970" points="200.7353,-27.2986 208.059,-19.6427 197.5595,-21.0605 200.7353,-27.2986"/>
</g>
<!-- Node7 -->
<g id="node8" class="node">
<title>Node7</title>
<polygon fill="#ffffff" stroke="#bfbfbf" points="70.5,-.5 70.5,-19.5 177.5,-19.5 177.5,-.5 70.5,-.5"/>
<text text-anchor="middle" x="124" y="-7.5" font-family="Helvetica,sans-Serif" font-size="10.00" fill="#000000">architecture_arch.h</text>
</g>
<!-- Node5&#45;&gt;Node7 -->
<g id="edge9" class="edge">
<title>Node5&#45;&gt;Node7</title>
<path fill="none" stroke="#191970" d="M118.2193,-56.2455C119.1327,-48.9382 120.4132,-38.6944 121.5369,-29.7046"/>
<polygon fill="#191970" stroke="#191970" points="125.0272,-29.9996 122.7947,-19.6427 118.0813,-29.1313 125.0272,-29.9996"/>
</g>
<!-- Node10&#45;&gt;Node4 -->
<g id="edge13" class="edge">
<title>Node10&#45;&gt;Node4</title>
<path fill="none" stroke="#191970" d="M439,-112.2455C439,-104.9382 439,-94.6944 439,-85.7046"/>
<polygon fill="#191970" stroke="#191970" points="442.5001,-85.6426 439,-75.6427 435.5001,-85.6427 442.5001,-85.6426"/>
</g>
<!-- Node11 -->
<g id="node12" class="node">
<title>Node11</title>
<polygon fill="#ffffff" stroke="#bfbfbf" points="487.5,-56.5 487.5,-75.5 554.5,-75.5 554.5,-56.5 487.5,-56.5"/>
<text text-anchor="middle" x="521" y="-63.5" font-family="Helvetica,sans-Serif" font-size="10.00" fill="#000000">cpu_conf.h</text>
</g>
<!-- Node10&#45;&gt;Node11 -->
<g id="edge14" class="edge">
<title>Node10&#45;&gt;Node11</title>
<path fill="none" stroke="#191970" d="M453.2833,-112.2455C465.747,-103.7337 484.0451,-91.2375 498.4792,-81.3801"/>
<polygon fill="#191970" stroke="#191970" points="500.5962,-84.1726 506.8804,-75.6427 496.6485,-78.392 500.5962,-84.1726"/>
</g>
</g>
</svg>
