<?xml version="1.0" encoding="UTF-8" standalone="no"?>
<!DOCTYPE svg PUBLIC "-//W3C//DTD SVG 1.1//EN"
 "http://www.w3.org/Graphics/SVG/1.1/DTD/svg11.dtd">
<!-- Generated by graphviz version 2.40.1 (0)
 -->
<!-- Title: drivers/ina3221/include/ina3221_internal.h Pages: 1 -->
<svg width="766pt" height="319pt"
 viewBox="0.00 0.00 766.37 319.00" xmlns="http://www.w3.org/2000/svg" xmlns:xlink="http://www.w3.org/1999/xlink">
<g id="graph0" class="graph" transform="scale(1 1) rotate(0) translate(4 315)">
<title>drivers/ina3221/include/ina3221_internal.h</title>
<polygon fill="#ffffff" stroke="transparent" points="-4,4 -4,-315 762.3661,-315 762.3661,4 -4,4"/>
<!-- Node0 -->
<g id="node1" class="node">
<title>Node0</title>
<polygon fill="#bfbfbf" stroke="#000000" points="272.445,-280.5 272.445,-310.5 400.445,-310.5 400.445,-280.5 272.445,-280.5"/>
<text text-anchor="start" x="280.445" y="-298.5" font-family="Helvetica,sans-Serif" font-size="10.00" fill="#000000">drivers/ina3221/include</text>
<text text-anchor="middle" x="336.445" y="-287.5" font-family="Helvetica,sans-Serif" font-size="10.00" fill="#000000">/ina3221_internal.h</text>
</g>
<!-- Node1 -->
<g id="node2" class="node">
<title>Node1</title>
<g id="a_node2"><a xlink:href="assert_8h.html" target="_top" xlink:title="POSIX.1&#45;2008 compliant version of the assert macro. ">
<polygon fill="#ffffff" stroke="#000000" points="9.445,-56.5 9.445,-75.5 63.445,-75.5 63.445,-56.5 9.445,-56.5"/>
<text text-anchor="middle" x="36.445" y="-63.5" font-family="Helvetica,sans-Serif" font-size="10.00" fill="#000000">assert.h</text>
</a>
</g>
</g>
<!-- Node0&#45;&gt;Node1 -->
<g id="edge1" class="edge">
<title>Node0&#45;&gt;Node1</title>
<path fill="none" stroke="#191970" d="M279.1617,-280.4438C221.0701,-263.562 130.0548,-232.582 60.445,-188 30.2707,-168.6748 16.4472,-164.9831 2.445,-132 -4.8127,-114.904 6.8716,-96.1435 18.4737,-83.0086"/>
<polygon fill="#191970" stroke="#191970" points="21.1488,-85.2749 25.517,-75.6225 16.0829,-80.4442 21.1488,-85.2749"/>
</g>
<!-- Node3 -->
<g id="node4" class="node">
<title>Node3</title>
<g id="a_node4"><a xlink:href="ina3221__defines_8h.html" target="_top" xlink:title="Internal definitions for Texas Instruments INA3221 three&#45;channel, high&#45;side current and bus voltage m...">
<polygon fill="#ffffff" stroke="#000000" points="386.445,-224.5 386.445,-243.5 488.445,-243.5 488.445,-224.5 386.445,-224.5"/>
<text text-anchor="middle" x="437.445" y="-231.5" font-family="Helvetica,sans-Serif" font-size="10.00" fill="#000000">ina3221_defines.h</text>
</a>
</g>
</g>
<!-- Node0&#45;&gt;Node3 -->
<g id="edge3" class="edge">
<title>Node0&#45;&gt;Node3</title>
<path fill="none" stroke="#191970" d="M361.1524,-280.4554C376.9697,-270.8241 397.4017,-258.3828 413.1399,-248.7996"/>
<polygon fill="#191970" stroke="#191970" points="415.0727,-251.7206 421.7936,-243.5303 411.4321,-245.7418 415.0727,-251.7206"/>
</g>
<!-- Node4 -->
<g id="node5" class="node">
<title>Node4</title>
<g id="a_node5"><a xlink:href="ina3221_8h.html" target="_top" xlink:title="Device driver interface for Texas Instruments INA3221 three&#45;channel, high&#45;side current and bus voltag...">
<polygon fill="#ffffff" stroke="#000000" points="304.945,-224.5 304.945,-243.5 367.945,-243.5 367.945,-224.5 304.945,-224.5"/>
<text text-anchor="middle" x="336.445" y="-231.5" font-family="Helvetica,sans-Serif" font-size="10.00" fill="#000000">ina3221.h</text>
</a>
</g>
</g>
<!-- Node0&#45;&gt;Node4 -->
<g id="edge4" class="edge">
<title>Node0&#45;&gt;Node4</title>
<path fill="none" stroke="#191970" d="M336.445,-280.2977C336.445,-272.3834 336.445,-262.6043 336.445,-254.0759"/>
<polygon fill="#191970" stroke="#191970" points="339.9451,-253.8469 336.445,-243.8469 332.9451,-253.847 339.9451,-253.8469"/>
</g>
<!-- Node2 -->
<g id="node3" class="node">
<title>Node2</title>
<polygon fill="#ffffff" stroke="#bfbfbf" points="214.445,-.5 214.445,-19.5 266.445,-19.5 266.445,-.5 214.445,-.5"/>
<text text-anchor="middle" x="240.445" y="-7.5" font-family="Helvetica,sans-Serif" font-size="10.00" fill="#000000">stdint.h</text>
</g>
<!-- Node1&#45;&gt;Node2 -->
<g id="edge2" class="edge">
<title>Node1&#45;&gt;Node2</title>
<path fill="none" stroke="#191970" d="M63.5346,-58.5636C99.8039,-48.6074 164.236,-30.9201 204.5231,-19.8609"/>
<polygon fill="#191970" stroke="#191970" points="205.4968,-23.2232 214.2135,-17.2008 203.6437,-16.4729 205.4968,-23.2232"/>
</g>
<!-- Node4&#45;&gt;Node1 -->
<g id="edge5" class="edge">
<title>Node4&#45;&gt;Node1</title>
<path fill="none" stroke="#191970" d="M304.8973,-229.3495C229.3058,-217.4523 41.6991,-183.1962 9.445,-132 -.1732,-116.7332 9.9124,-97.4568 20.3834,-83.6851"/>
<polygon fill="#191970" stroke="#191970" points="23.1317,-85.8535 26.7801,-75.9066 17.725,-81.4073 23.1317,-85.8535"/>
</g>
<!-- Node4&#45;&gt;Node2 -->
<g id="edge7" class="edge">
<title>Node4&#45;&gt;Node2</title>
<path fill="none" stroke="#191970" d="M368.1635,-225.9482C371.2909,-225.2493 374.4241,-224.5863 377.445,-224 486.7824,-202.7802 518.5822,-219.3891 625.445,-188 687.1005,-169.8898 789.1665,-161.7106 748.445,-112 688.3737,-38.6683 382.8904,-16.9469 276.8011,-11.56"/>
<polygon fill="#191970" stroke="#191970" points="276.7531,-8.0535 266.5942,-11.0613 276.4115,-15.0452 276.7531,-8.0535"/>
</g>
<!-- Node5 -->
<g id="node6" class="node">
<title>Node5</title>
<g id="a_node6"><a xlink:href="errno_8h.html" target="_top" xlink:title="errno.h">
<polygon fill="#ffffff" stroke="#000000" points="135.945,-168.5 135.945,-187.5 188.945,-187.5 188.945,-168.5 135.945,-168.5"/>
<text text-anchor="middle" x="162.445" y="-175.5" font-family="Helvetica,sans-Serif" font-size="10.00" fill="#000000">errno.h</text>
</a>
</g>
</g>
<!-- Node4&#45;&gt;Node5 -->
<g id="edge6" class="edge">
<title>Node4&#45;&gt;Node5</title>
<path fill="none" stroke="#191970" d="M306.5333,-224.3733C276.723,-214.7791 230.9024,-200.0323 198.9622,-189.7527"/>
<polygon fill="#191970" stroke="#191970" points="199.709,-186.3163 189.1176,-186.5843 197.5644,-192.9797 199.709,-186.3163"/>
</g>
<!-- Node6 -->
<g id="node7" class="node">
<title>Node6</title>
<polygon fill="#ffffff" stroke="#bfbfbf" points="679.445,-112.5 679.445,-131.5 739.445,-131.5 739.445,-112.5 679.445,-112.5"/>
<text text-anchor="middle" x="709.445" y="-119.5" font-family="Helvetica,sans-Serif" font-size="10.00" fill="#000000">stdbool.h</text>
</g>
<!-- Node4&#45;&gt;Node6 -->
<g id="edge8" class="edge">
<title>Node4&#45;&gt;Node6</title>
<path fill="none" stroke="#191970" d="M368.1788,-226.0243C371.3031,-225.31 374.4314,-224.6226 377.445,-224 471.0397,-204.6647 499.2032,-219.4682 589.445,-188 625.7151,-175.3523 663.9974,-152.3831 687.3075,-137.1567"/>
<polygon fill="#191970" stroke="#191970" points="689.3646,-139.9921 695.7591,-131.5446 685.4923,-134.1607 689.3646,-139.9921"/>
</g>
<!-- Node7 -->
<g id="node8" class="node">
<title>Node7</title>
<g id="a_node8"><a xlink:href="kernel__defines_8h.html" target="_top" xlink:title="Common macros and compiler attributes/pragmas configuration. ">
<polygon fill="#ffffff" stroke="#000000" points="206.945,-168.5 206.945,-187.5 301.945,-187.5 301.945,-168.5 206.945,-168.5"/>
<text text-anchor="middle" x="254.445" y="-175.5" font-family="Helvetica,sans-Serif" font-size="10.00" fill="#000000">kernel_defines.h</text>
</a>
</g>
</g>
<!-- Node4&#45;&gt;Node7 -->
<g id="edge9" class="edge">
<title>Node4&#45;&gt;Node7</title>
<path fill="none" stroke="#191970" d="M322.1617,-224.2455C309.6979,-215.7337 291.3999,-203.2375 276.9658,-193.3801"/>
<polygon fill="#191970" stroke="#191970" points="278.7965,-190.392 268.5646,-187.6427 274.8488,-196.1726 278.7965,-190.392"/>
</g>
<!-- Node13 -->
<g id="node14" class="node">
<title>Node13</title>
<g id="a_node14"><a xlink:href="drivers_2include_2periph_2gpio_8h.html" target="_top" xlink:title="Low&#45;level GPIO peripheral driver interface definitions. ">
<polygon fill="#ffffff" stroke="#000000" points="500.445,-168.5 500.445,-187.5 580.445,-187.5 580.445,-168.5 500.445,-168.5"/>
<text text-anchor="middle" x="540.445" y="-175.5" font-family="Helvetica,sans-Serif" font-size="10.00" fill="#000000">periph/gpio.h</text>
</a>
</g>
</g>
<!-- Node4&#45;&gt;Node13 -->
<g id="edge19" class="edge">
<title>Node4&#45;&gt;Node13</title>
<path fill="none" stroke="#191970" d="M368.32,-225.25C402.5751,-215.8466 457.2817,-200.8291 495.8088,-190.2531"/>
<polygon fill="#191970" stroke="#191970" points="497.0069,-193.5537 505.7236,-187.5314 495.1538,-186.8035 497.0069,-193.5537"/>
</g>
<!-- Node17 -->
<g id="node18" class="node">
<title>Node17</title>
<g id="a_node18"><a xlink:href="i2c_8h.html" target="_top" xlink:title="Low&#45;level I2C peripheral driver interface definition. ">
<polygon fill="#ffffff" stroke="#000000" points="379.945,-168.5 379.945,-187.5 452.945,-187.5 452.945,-168.5 379.945,-168.5"/>
<text text-anchor="middle" x="416.445" y="-175.5" font-family="Helvetica,sans-Serif" font-size="10.00" fill="#000000">periph/i2c.h</text>
</a>
</g>
</g>
<!-- Node4&#45;&gt;Node17 -->
<g id="edge24" class="edge">
<title>Node4&#45;&gt;Node17</title>
<path fill="none" stroke="#191970" d="M350.3799,-224.2455C362.5397,-215.7337 380.3914,-203.2375 394.4734,-193.3801"/>
<polygon fill="#191970" stroke="#191970" points="396.4845,-196.2447 402.6697,-187.6427 392.4703,-190.51 396.4845,-196.2447"/>
</g>
<!-- Node8 -->
<g id="node9" class="node">
<title>Node8</title>
<g id="a_node9"><a xlink:href="modules_8h.html" target="_top" xlink:title="Common macros and compiler attributes/pragmas configuration. ">
<polygon fill="#ffffff" stroke="#000000" points="18.945,-112.5 18.945,-131.5 83.945,-131.5 83.945,-112.5 18.945,-112.5"/>
<text text-anchor="middle" x="51.445" y="-119.5" font-family="Helvetica,sans-Serif" font-size="10.00" fill="#000000">modules.h</text>
</a>
</g>
</g>
<!-- Node7&#45;&gt;Node8 -->
<g id="edge10" class="edge">
<title>Node7&#45;&gt;Node8</title>
<path fill="none" stroke="#191970" d="M219.548,-168.3733C184.8357,-158.7975 131.516,-144.0886 94.262,-133.8116"/>
<polygon fill="#191970" stroke="#191970" points="94.78,-130.3238 84.2093,-131.0384 92.9185,-137.0718 94.78,-130.3238"/>
</g>
<!-- Node9 -->
<g id="node10" class="node">
<title>Node9</title>
<g id="a_node10"><a xlink:href="riot__version_8h.html" target="_top" xlink:title="Common macros and compiler attributes/pragmas configuration. ">
<polygon fill="#ffffff" stroke="#000000" points="165.945,-56.5 165.945,-75.5 246.945,-75.5 246.945,-56.5 165.945,-56.5"/>
<text text-anchor="middle" x="206.445" y="-63.5" font-family="Helvetica,sans-Serif" font-size="10.00" fill="#000000">riot_version.h</text>
</a>
</g>
</g>
<!-- Node7&#45;&gt;Node9 -->
<g id="edge11" class="edge">
<title>Node7&#45;&gt;Node9</title>
<path fill="none" stroke="#191970" d="M250.3525,-168.4509C242.4176,-149.936 224.8132,-108.8591 214.4673,-84.7187"/>
<polygon fill="#191970" stroke="#191970" points="217.6833,-83.3376 210.5271,-75.5249 211.2493,-86.0951 217.6833,-83.3376"/>
</g>
<!-- Node10 -->
<g id="node11" class="node">
<title>Node10</title>
<g id="a_node11"><a xlink:href="compiler__hints_8h.html" target="_top" xlink:title="Common macros and compiler attributes/pragmas configuration. ">
<polygon fill="#ffffff" stroke="#000000" points="101.945,-112.5 101.945,-131.5 194.945,-131.5 194.945,-112.5 101.945,-112.5"/>
<text text-anchor="middle" x="148.445" y="-119.5" font-family="Helvetica,sans-Serif" font-size="10.00" fill="#000000">compiler_hints.h</text>
</a>
</g>
</g>
<!-- Node7&#45;&gt;Node10 -->
<g id="edge13" class="edge">
<title>Node7&#45;&gt;Node10</title>
<path fill="none" stroke="#191970" d="M235.9812,-168.2455C219.3375,-159.4527 194.6457,-146.4079 175.7258,-136.4125"/>
<polygon fill="#191970" stroke="#191970" points="177.1741,-133.2193 166.6972,-131.6427 173.9042,-139.4086 177.1741,-133.2193"/>
</g>
<!-- Node11 -->
<g id="node12" class="node">
<title>Node11</title>
<g id="a_node12"><a xlink:href="container_8h.html" target="_top" xlink:title="Common macros and compiler attributes/pragmas configuration. ">
<polygon fill="#ffffff" stroke="#000000" points="251.945,-112.5 251.945,-131.5 320.945,-131.5 320.945,-112.5 251.945,-112.5"/>
<text text-anchor="middle" x="286.445" y="-119.5" font-family="Helvetica,sans-Serif" font-size="10.00" fill="#000000">container.h</text>
</a>
</g>
</g>
<!-- Node7&#45;&gt;Node11 -->
<g id="edge16" class="edge">
<title>Node7&#45;&gt;Node11</title>
<path fill="none" stroke="#191970" d="M260.019,-168.2455C264.3781,-160.617 270.566,-149.7881 275.8583,-140.5267"/>
<polygon fill="#191970" stroke="#191970" points="279.0123,-142.0616 280.9349,-131.6427 272.9346,-138.5886 279.0123,-142.0616"/>
</g>
<!-- Node9&#45;&gt;Node2 -->
<g id="edge12" class="edge">
<title>Node9&#45;&gt;Node2</title>
<path fill="none" stroke="#191970" d="M212.3673,-56.2455C217.0477,-48.5367 223.7122,-37.5598 229.3739,-28.2348"/>
<polygon fill="#191970" stroke="#191970" points="232.3924,-30.007 234.5905,-19.6427 226.4089,-26.3741 232.3924,-30.007"/>
</g>
<!-- Node10&#45;&gt;Node1 -->
<g id="edge14" class="edge">
<title>Node10&#45;&gt;Node1</title>
<path fill="none" stroke="#191970" d="M129.1915,-112.3733C111.3738,-103.4644 84.6703,-90.1127 64.4856,-80.0203"/>
<polygon fill="#191970" stroke="#191970" points="65.9568,-76.8428 55.4472,-75.5011 62.8262,-83.1038 65.9568,-76.8428"/>
</g>
<!-- Node10&#45;&gt;Node2 -->
<g id="edge15" class="edge">
<title>Node10&#45;&gt;Node2</title>
<path fill="none" stroke="#191970" d="M147.0123,-112.0904C145.5578,-98.2751 144.9258,-73.0121 156.445,-56 167.8502,-39.1562 187.5393,-27.9058 204.9895,-20.7496"/>
<polygon fill="#191970" stroke="#191970" points="206.2779,-24.0043 214.3869,-17.1856 203.7956,-17.4591 206.2779,-24.0043"/>
</g>
<!-- Node11&#45;&gt;Node2 -->
<g id="edge18" class="edge">
<title>Node11&#45;&gt;Node2</title>
<path fill="none" stroke="#191970" d="M282.523,-112.4509C274.9526,-94.0186 258.1983,-53.2254 248.2662,-29.043"/>
<polygon fill="#191970" stroke="#191970" points="251.3938,-27.4454 244.357,-19.5249 244.9187,-30.1048 251.3938,-27.4454"/>
</g>
<!-- Node12 -->
<g id="node13" class="node">
<title>Node12</title>
<polygon fill="#ffffff" stroke="#bfbfbf" points="303.445,-56.5 303.445,-75.5 359.445,-75.5 359.445,-56.5 303.445,-56.5"/>
<text text-anchor="middle" x="331.445" y="-63.5" font-family="Helvetica,sans-Serif" font-size="10.00" fill="#000000">stddef.h</text>
</g>
<!-- Node11&#45;&gt;Node12 -->
<g id="edge17" class="edge">
<title>Node11&#45;&gt;Node12</title>
<path fill="none" stroke="#191970" d="M294.2834,-112.2455C300.607,-104.3761 309.6674,-93.101 317.2586,-83.6542"/>
<polygon fill="#191970" stroke="#191970" points="320.1607,-85.6302 323.6964,-75.6427 314.7042,-81.2454 320.1607,-85.6302"/>
</g>
<!-- Node13&#45;&gt;Node6 -->
<g id="edge21" class="edge">
<title>Node13&#45;&gt;Node6</title>
<path fill="none" stroke="#191970" d="M569.4971,-168.3733C597.5993,-159.0613 640.3503,-144.8953 671.2056,-134.671"/>
<polygon fill="#191970" stroke="#191970" points="672.3804,-137.969 680.772,-131.5011 670.1786,-131.3243 672.3804,-137.969"/>
</g>
<!-- Node14 -->
<g id="node15" class="node">
<title>Node14</title>
<polygon fill="#ffffff" stroke="#bfbfbf" points="515.445,-112.5 515.445,-131.5 565.445,-131.5 565.445,-112.5 515.445,-112.5"/>
<text text-anchor="middle" x="540.445" y="-119.5" font-family="Helvetica,sans-Serif" font-size="10.00" fill="#000000">limits.h</text>
</g>
<!-- Node13&#45;&gt;Node14 -->
<g id="edge20" class="edge">
<title>Node13&#45;&gt;Node14</title>
<path fill="none" stroke="#191970" d="M540.445,-168.2455C540.445,-160.9382 540.445,-150.6944 540.445,-141.7046"/>
<polygon fill="#191970" stroke="#191970" points="543.9451,-141.6426 540.445,-131.6427 536.9451,-141.6427 543.9451,-141.6426"/>
</g>
<!-- Node15 -->
<g id="node16" class="node">
<title>Node15</title>
<polygon fill="#ffffff" stroke="#bfbfbf" points="583.945,-112.5 583.945,-131.5 660.945,-131.5 660.945,-112.5 583.945,-112.5"/>
<text text-anchor="middle" x="622.445" y="-119.5" font-family="Helvetica,sans-Serif" font-size="10.00" fill="#000000">periph_cpu.h</text>
</g>
<!-- Node13&#45;&gt;Node15 -->
<g id="edge22" class="edge">
<title>Node13&#45;&gt;Node15</title>
<path fill="none" stroke="#191970" d="M554.7283,-168.2455C567.192,-159.7337 585.4901,-147.2375 599.9242,-137.3801"/>
<polygon fill="#191970" stroke="#191970" points="602.0412,-140.1726 608.3254,-131.6427 598.0934,-134.392 602.0412,-140.1726"/>
</g>
<!-- Node16 -->
<g id="node17" class="node">
<title>Node16</title>
<polygon fill="#ffffff" stroke="#bfbfbf" points="415.945,-112.5 415.945,-131.5 496.945,-131.5 496.945,-112.5 415.945,-112.5"/>
<text text-anchor="middle" x="456.445" y="-119.5" font-family="Helvetica,sans-Serif" font-size="10.00" fill="#000000">periph_conf.h</text>
</g>
<!-- Node13&#45;&gt;Node16 -->
<g id="edge23" class="edge">
<title>Node13&#45;&gt;Node16</title>
<path fill="none" stroke="#191970" d="M525.8133,-168.2455C513.0456,-159.7337 494.3012,-147.2375 479.5151,-137.3801"/>
<polygon fill="#191970" stroke="#191970" points="481.171,-134.2775 470.909,-131.6427 477.288,-140.1019 481.171,-134.2775"/>
</g>
<!-- Node17&#45;&gt;Node2 -->
<g id="edge25" class="edge">
<title>Node17&#45;&gt;Node2</title>
<path fill="none" stroke="#191970" d="M413.8068,-168.48C406.5022,-142.7215 385.431,-72.4866 368.445,-56 343.4689,-31.7582 304.8198,-20.1823 276.5229,-14.7234"/>
<polygon fill="#191970" stroke="#191970" points="277.0663,-11.2653 266.6106,-12.9769 275.8516,-18.1591 277.0663,-11.2653"/>
</g>
<!-- Node17&#45;&gt;Node12 -->
<g id="edge26" class="edge">
<title>Node17&#45;&gt;Node12</title>
<path fill="none" stroke="#191970" d="M406.3166,-168.2494C397.2227,-159.251 383.7565,-145.3078 373.445,-132 361.6636,-116.7952 350.0633,-98.2141 342.0496,-84.6458"/>
<polygon fill="#191970" stroke="#191970" points="344.9451,-82.6622 336.8968,-75.7719 338.8916,-86.1773 344.9451,-82.6622"/>
</g>
<!-- Node17&#45;&gt;Node14 -->
<g id="edge27" class="edge">
<title>Node17&#45;&gt;Node14</title>
<path fill="none" stroke="#191970" d="M437.7613,-168.3733C457.6666,-159.3838 487.5886,-145.8706 510.005,-135.7471"/>
<polygon fill="#191970" stroke="#191970" points="511.7336,-138.8068 519.4068,-131.5011 508.8525,-132.4272 511.7336,-138.8068"/>
</g>
<!-- Node17&#45;&gt;Node15 -->
<g id="edge29" class="edge">
<title>Node17&#45;&gt;Node15</title>
<path fill="none" stroke="#191970" d="M451.8576,-168.3733C486.7055,-158.9001 540.0332,-144.4032 577.7743,-134.1435"/>
<polygon fill="#191970" stroke="#191970" points="578.7628,-137.5019 587.4944,-131.5011 576.9265,-130.747 578.7628,-137.5019"/>
</g>
<!-- Node17&#45;&gt;Node16 -->
<g id="edge28" class="edge">
<title>Node17&#45;&gt;Node16</title>
<path fill="none" stroke="#191970" d="M423.4125,-168.2455C428.9761,-160.4564 436.923,-149.3308 443.6279,-139.9439"/>
<polygon fill="#191970" stroke="#191970" points="446.593,-141.8144 449.5574,-131.6427 440.8969,-137.7457 446.593,-141.8144"/>
</g>
</g>
</svg>
