<?xml version="1.0" encoding="UTF-8" standalone="no"?>
<!DOCTYPE svg PUBLIC "-//W3C//DTD SVG 1.1//EN"
 "http://www.w3.org/Graphics/SVG/1.1/DTD/svg11.dtd">
<!-- Generated by graphviz version 2.40.1 (0)
 -->
<!-- Title: Graphical Class Hierarchy Pages: 1 -->
<svg width="243pt" height="104pt"
 viewBox="0.00 0.00 243.00 104.00" xmlns="http://www.w3.org/2000/svg" xmlns:xlink="http://www.w3.org/1999/xlink">
<g id="graph0" class="graph" transform="scale(1 1) rotate(0) translate(4 100)">
<title>Graphical Class Hierarchy</title>
<polygon fill="#ffffff" stroke="transparent" points="-4,4 -4,-100 239,-100 239,4 -4,4"/>
<!-- Node0 -->
<g id="node1" class="node">
<title>Node0</title>
<g id="a_node1"><a xlink:href="structcongure__snd__t.html" target="_top" xlink:title="Base state object for CongURE implementations. ">
<polygon fill="#ffffff" stroke="#000000" points="0,-38.5 0,-57.5 85,-57.5 85,-38.5 0,-38.5"/>
<text text-anchor="middle" x="42.5" y="-45.5" font-family="Helvetica,sans-Serif" font-size="10.00" fill="#000000">congure_snd_t</text>
</a>
</g>
</g>
<!-- Node1 -->
<g id="node2" class="node">
<title>Node1</title>
<g id="a_node2"><a xlink:href="structcongure__mock__snd__t.html" target="_top" xlink:title="A mock CongURE state object. ">
<polygon fill="#ffffff" stroke="#000000" points="121,-76.5 121,-95.5 235,-95.5 235,-76.5 121,-76.5"/>
<text text-anchor="middle" x="178" y="-83.5" font-family="Helvetica,sans-Serif" font-size="10.00" fill="#000000">congure_mock_snd_t</text>
</a>
</g>
</g>
<!-- Node0&#45;&gt;Node1 -->
<g id="edge1" class="edge">
<title>Node0&#45;&gt;Node1</title>
<path fill="none" stroke="#191970" d="M86.4246,-60.3183C105.0414,-65.5393 126.4087,-71.5316 143.8186,-76.4141"/>
<polygon fill="#191970" stroke="#191970" points="87.266,-56.9193 76.6924,-57.589 85.3758,-63.6593 87.266,-56.9193"/>
</g>
<!-- Node2 -->
<g id="node3" class="node">
<title>Node2</title>
<g id="a_node3"><a xlink:href="structcongure__quic__snd__t.html" target="_top" xlink:title="State object for CongURE QUIC. ">
<polygon fill="#ffffff" stroke="#000000" points="124,-38.5 124,-57.5 232,-57.5 232,-38.5 124,-38.5"/>
<text text-anchor="middle" x="178" y="-45.5" font-family="Helvetica,sans-Serif" font-size="10.00" fill="#000000">congure_quic_snd_t</text>
</a>
</g>
</g>
<!-- Node0&#45;&gt;Node2 -->
<g id="edge2" class="edge">
<title>Node0&#45;&gt;Node2</title>
<path fill="none" stroke="#191970" d="M95.009,-48C104.4152,-48 114.2349,-48 123.6906,-48"/>
<polygon fill="#191970" stroke="#191970" points="95.0013,-44.5001 85.0013,-48 95.0012,-51.5001 95.0013,-44.5001"/>
</g>
<!-- Node3 -->
<g id="node4" class="node">
<title>Node3</title>
<g id="a_node4"><a xlink:href="structcongure__reno__snd.html" target="_top" xlink:title="State object for CongURE Reno. ">
<polygon fill="#ffffff" stroke="#000000" points="126,-.5 126,-19.5 230,-19.5 230,-.5 126,-.5"/>
<text text-anchor="middle" x="178" y="-7.5" font-family="Helvetica,sans-Serif" font-size="10.00" fill="#000000">congure_reno_snd</text>
</a>
</g>
</g>
<!-- Node0&#45;&gt;Node3 -->
<g id="edge3" class="edge">
<title>Node0&#45;&gt;Node3</title>
<path fill="none" stroke="#191970" d="M86.4246,-35.6817C105.0414,-30.4607 126.4087,-24.4684 143.8186,-19.5859"/>
<polygon fill="#191970" stroke="#191970" points="85.3758,-32.3407 76.6924,-38.411 87.266,-39.0807 85.3758,-32.3407"/>
</g>
</g>
</svg>
