<?xml version="1.0" encoding="UTF-8" standalone="no"?>
<!DOCTYPE svg PUBLIC "-//W3C//DTD SVG 1.1//EN"
 "http://www.w3.org/Graphics/SVG/1.1/DTD/svg11.dtd">
<!-- Generated by graphviz version 2.40.1 (0)
 -->
<!-- Title: Graphical Class Hierarchy Pages: 1 -->
<svg width="329pt" height="218pt"
 viewBox="0.00 0.00 329.00 218.00" xmlns="http://www.w3.org/2000/svg" xmlns:xlink="http://www.w3.org/1999/xlink">
<g id="graph0" class="graph" transform="scale(1 1) rotate(0) translate(4 214)">
<title>Graphical Class Hierarchy</title>
<polygon fill="#ffffff" stroke="transparent" points="-4,4 -4,-214 325,-214 325,4 -4,4"/>
<!-- Node0 -->
<g id="node1" class="node">
<title>Node0</title>
<g id="a_node1"><a xlink:href="structnetdev.html" target="_top" xlink:title="Structure to hold driver state. ">
<polygon fill="#ffffff" stroke="#000000" points="0,-95.5 0,-114.5 50,-114.5 50,-95.5 0,-95.5"/>
<text text-anchor="middle" x="25" y="-102.5" font-family="Helvetica,sans-Serif" font-size="10.00" fill="#000000">netdev</text>
</a>
</g>
</g>
<!-- Node1 -->
<g id="node2" class="node">
<title>Node1</title>
<g id="a_node2"><a xlink:href="structdose__t.html" target="_top" xlink:title="DOSE netdev device. ">
<polygon fill="#ffffff" stroke="#000000" points="122,-190.5 122,-209.5 169,-209.5 169,-190.5 122,-190.5"/>
<text text-anchor="middle" x="145.5" y="-197.5" font-family="Helvetica,sans-Serif" font-size="10.00" fill="#000000">dose_t</text>
</a>
</g>
</g>
<!-- Node0&#45;&gt;Node1 -->
<g id="edge1" class="edge">
<title>Node0&#45;&gt;Node1</title>
<path fill="none" stroke="#191970" d="M35.33,-123.3039C45.9427,-140.5342 63.9946,-165.888 86,-181 96.6372,-188.3051 110.2419,-192.9242 121.7567,-195.776"/>
<polygon fill="#191970" stroke="#191970" points="38.3308,-121.5022 30.2216,-114.6838 32.3089,-125.071 38.3308,-121.5022"/>
</g>
<!-- Node2 -->
<g id="node3" class="node">
<title>Node2</title>
<g id="a_node3"><a xlink:href="structencx24j600__t.html" target="_top" xlink:title="encx24j600 netdev device ">
<polygon fill="#ffffff" stroke="#000000" points="106,-152.5 106,-171.5 185,-171.5 185,-152.5 106,-152.5"/>
<text text-anchor="middle" x="145.5" y="-159.5" font-family="Helvetica,sans-Serif" font-size="10.00" fill="#000000">encx24j600_t</text>
</a>
</g>
</g>
<!-- Node0&#45;&gt;Node2 -->
<g id="edge2" class="edge">
<title>Node0&#45;&gt;Node2</title>
<path fill="none" stroke="#191970" d="M46.8669,-120.4702C58.1721,-127.9829 72.4171,-136.7194 86,-143 93.7756,-146.5953 102.4183,-149.7811 110.6526,-152.4676"/>
<polygon fill="#191970" stroke="#191970" points="48.7363,-117.5089 38.4994,-114.778 44.799,-123.2966 48.7363,-117.5089"/>
</g>
<!-- Node3 -->
<g id="node4" class="node">
<title>Node3</title>
<g id="a_node4"><a xlink:href="structethos__t.html" target="_top" xlink:title="ethos netdev device ">
<polygon fill="#ffffff" stroke="#000000" points="120,-114.5 120,-133.5 171,-133.5 171,-114.5 120,-114.5"/>
<text text-anchor="middle" x="145.5" y="-121.5" font-family="Helvetica,sans-Serif" font-size="10.00" fill="#000000">ethos_t</text>
</a>
</g>
</g>
<!-- Node0&#45;&gt;Node3 -->
<g id="edge3" class="edge">
<title>Node0&#45;&gt;Node3</title>
<path fill="none" stroke="#191970" d="M60.3755,-110.5779C79.4404,-113.584 102.536,-117.2256 119.8575,-119.9568"/>
<polygon fill="#191970" stroke="#191970" points="60.6839,-107.0833 50.2607,-108.983 59.5936,-113.9979 60.6839,-107.0833"/>
</g>
<!-- Node4 -->
<g id="node5" class="node">
<title>Node4</title>
<g id="a_node5"><a xlink:href="structnetdev__ieee802154__t.html" target="_top" xlink:title="Extended structure to hold IEEE 802.15.4 driver state. ">
<polygon fill="#ffffff" stroke="#000000" points="86,-76.5 86,-95.5 205,-95.5 205,-76.5 86,-76.5"/>
<text text-anchor="middle" x="145.5" y="-83.5" font-family="Helvetica,sans-Serif" font-size="10.00" fill="#000000">netdev_ieee802154_t</text>
</a>
</g>
</g>
<!-- Node0&#45;&gt;Node4 -->
<g id="edge4" class="edge">
<title>Node0&#45;&gt;Node4</title>
<path fill="none" stroke="#191970" d="M60.2503,-99.4419C68.2045,-98.1877 76.8654,-96.8221 85.5189,-95.4576"/>
<polygon fill="#191970" stroke="#191970" points="59.5936,-96.0021 50.2607,-101.017 60.6839,-102.9167 59.5936,-96.0021"/>
</g>
<!-- Node10 -->
<g id="node11" class="node">
<title>Node10</title>
<g id="a_node11"><a xlink:href="structslipdev__t.html" target="_top" xlink:title="Device descriptor for slipdev. ">
<polygon fill="#ffffff" stroke="#000000" points="117,-38.5 117,-57.5 174,-57.5 174,-38.5 117,-38.5"/>
<text text-anchor="middle" x="145.5" y="-45.5" font-family="Helvetica,sans-Serif" font-size="10.00" fill="#000000">slipdev_t</text>
</a>
</g>
</g>
<!-- Node0&#45;&gt;Node10 -->
<g id="edge10" class="edge">
<title>Node0&#45;&gt;Node10</title>
<path fill="none" stroke="#191970" d="M46.8669,-89.5298C58.1721,-82.0171 72.4171,-73.2806 86,-67 95.7441,-62.4944 106.85,-58.6322 116.8073,-55.5895"/>
<polygon fill="#191970" stroke="#191970" points="44.799,-86.7034 38.4994,-95.222 48.7363,-92.4911 44.799,-86.7034"/>
</g>
<!-- Node11 -->
<g id="node12" class="node">
<title>Node11</title>
<g id="a_node12"><a xlink:href="structsx127x__t.html" target="_top" xlink:title="SX127X device descriptor. ">
<polygon fill="#ffffff" stroke="#000000" points="116.5,-.5 116.5,-19.5 174.5,-19.5 174.5,-.5 116.5,-.5"/>
<text text-anchor="middle" x="145.5" y="-7.5" font-family="Helvetica,sans-Serif" font-size="10.00" fill="#000000">sx127x_t</text>
</a>
</g>
</g>
<!-- Node0&#45;&gt;Node11 -->
<g id="edge11" class="edge">
<title>Node0&#45;&gt;Node11</title>
<path fill="none" stroke="#191970" d="M35.33,-86.6961C45.9427,-69.4658 63.9946,-44.112 86,-29 95.0283,-22.7999 106.1941,-18.5346 116.4056,-15.6426"/>
<polygon fill="#191970" stroke="#191970" points="32.3089,-84.929 30.2216,-95.3162 38.3308,-88.4978 32.3089,-84.929"/>
</g>
<!-- Node5 -->
<g id="node6" class="node">
<title>Node5</title>
<g id="a_node6"><a xlink:href="structat86rf215.html" target="_top" xlink:title="Device descriptor for AT86RF215 radio devices. ">
<polygon fill="#ffffff" stroke="#000000" points="249,-152.5 249,-171.5 313,-171.5 313,-152.5 249,-152.5"/>
<text text-anchor="middle" x="281" y="-159.5" font-family="Helvetica,sans-Serif" font-size="10.00" fill="#000000">at86rf215</text>
</a>
</g>
</g>
<!-- Node4&#45;&gt;Node5 -->
<g id="edge5" class="edge">
<title>Node4&#45;&gt;Node5</title>
<path fill="none" stroke="#191970" d="M194.4479,-99.3656C198.1228,-101.0462 201.6855,-102.9185 205,-105 224.7016,-117.3726 222.1734,-129.3327 241,-143 245.8528,-146.5229 251.4618,-149.6629 256.9157,-152.3262"/>
<polygon fill="#191970" stroke="#191970" points="195.7402,-96.1128 185.1591,-95.5727 193.0939,-102.5933 195.7402,-96.1128"/>
</g>
<!-- Node6 -->
<g id="node7" class="node">
<title>Node6</title>
<g id="a_node7"><a xlink:href="structat86rf2xx__t.html" target="_top" xlink:title="Device descriptor for AT86RF2XX radio devices. ">
<polygon fill="#ffffff" stroke="#000000" points="245.5,-114.5 245.5,-133.5 316.5,-133.5 316.5,-114.5 245.5,-114.5"/>
<text text-anchor="middle" x="281" y="-121.5" font-family="Helvetica,sans-Serif" font-size="10.00" fill="#000000">at86rf2xx_t</text>
</a>
</g>
</g>
<!-- Node4&#45;&gt;Node6 -->
<g id="edge6" class="edge">
<title>Node4&#45;&gt;Node6</title>
<path fill="none" stroke="#191970" d="M189.4246,-98.3183C208.0414,-103.5393 229.4087,-109.5316 246.8186,-114.4141"/>
<polygon fill="#191970" stroke="#191970" points="190.266,-94.9193 179.6924,-95.589 188.3758,-101.6593 190.266,-94.9193"/>
</g>
<!-- Node7 -->
<g id="node8" class="node">
<title>Node7</title>
<g id="a_node8"><a xlink:href="structkw2xrf__t.html" target="_top" xlink:title="Device descriptor for KW2XRF radio devices. ">
<polygon fill="#ffffff" stroke="#000000" points="252.5,-76.5 252.5,-95.5 309.5,-95.5 309.5,-76.5 252.5,-76.5"/>
<text text-anchor="middle" x="281" y="-83.5" font-family="Helvetica,sans-Serif" font-size="10.00" fill="#000000">kw2xrf_t</text>
</a>
</g>
</g>
<!-- Node4&#45;&gt;Node7 -->
<g id="edge7" class="edge">
<title>Node4&#45;&gt;Node7</title>
<path fill="none" stroke="#191970" d="M215.6921,-86C228.6301,-86 241.4492,-86 252.2588,-86"/>
<polygon fill="#191970" stroke="#191970" points="215.3267,-82.5001 205.3267,-86 215.3267,-89.5001 215.3267,-82.5001"/>
</g>
<!-- Node8 -->
<g id="node9" class="node">
<title>Node8</title>
<g id="a_node9"><a xlink:href="structkw41zrf__t.html" target="_top" xlink:title="Device descriptor for KW41ZRF radio devices. ">
<polygon fill="#ffffff" stroke="#000000" points="250,-38.5 250,-57.5 312,-57.5 312,-38.5 250,-38.5"/>
<text text-anchor="middle" x="281" y="-45.5" font-family="Helvetica,sans-Serif" font-size="10.00" fill="#000000">kw41zrf_t</text>
</a>
</g>
</g>
<!-- Node4&#45;&gt;Node8 -->
<g id="edge8" class="edge">
<title>Node4&#45;&gt;Node8</title>
<path fill="none" stroke="#191970" d="M189.346,-73.7037C208.9868,-68.1956 231.702,-61.8253 249.605,-56.8045"/>
<polygon fill="#191970" stroke="#191970" points="188.3758,-70.3407 179.6924,-76.411 190.266,-77.0807 188.3758,-70.3407"/>
</g>
<!-- Node9 -->
<g id="node10" class="node">
<title>Node9</title>
<g id="a_node10"><a xlink:href="structnetdev__test__t.html" target="_top" xlink:title="Device descriptor for netdev dummy test driver devices. ">
<polygon fill="#ffffff" stroke="#000000" points="241,-.5 241,-19.5 321,-19.5 321,-.5 241,-.5"/>
<text text-anchor="middle" x="281" y="-7.5" font-family="Helvetica,sans-Serif" font-size="10.00" fill="#000000">netdev_test_t</text>
</a>
</g>
</g>
<!-- Node4&#45;&gt;Node9 -->
<g id="edge9" class="edge">
<title>Node4&#45;&gt;Node9</title>
<path fill="none" stroke="#191970" d="M194.4479,-72.6344C198.1228,-70.9538 201.6855,-69.0815 205,-67 224.7016,-54.6274 222.1734,-42.6673 241,-29 245.8528,-25.4771 251.4618,-22.3371 256.9157,-19.6738"/>
<polygon fill="#191970" stroke="#191970" points="193.0939,-69.4067 185.1591,-76.4273 195.7402,-75.8872 193.0939,-69.4067"/>
</g>
</g>
</svg>
