<?xml version="1.0" encoding="UTF-8" standalone="no"?>
<!DOCTYPE svg PUBLIC "-//W3C//DTD SVG 1.1//EN"
 "http://www.w3.org/Graphics/SVG/1.1/DTD/svg11.dtd">
<!-- Generated by graphviz version 2.40.1 (0)
 -->
<!-- Title: Graphical Class Hierarchy Pages: 1 -->
<svg width="391pt" height="294pt"
 viewBox="0.00 0.00 391.00 294.00" xmlns="http://www.w3.org/2000/svg" xmlns:xlink="http://www.w3.org/1999/xlink">
<g id="graph0" class="graph" transform="scale(1 1) rotate(0) translate(4 290)">
<title>Graphical Class Hierarchy</title>
<polygon fill="#ffffff" stroke="transparent" points="-4,4 -4,-290 387,-290 387,4 -4,4"/>
<!-- Node0 -->
<g id="node1" class="node">
<title>Node0</title>
<g id="a_node1"><a xlink:href="structndp__opt__t.html" target="_top" xlink:title="General NDP option format. ">
<polygon fill="#ffffff" stroke="#000000" points="0,-133.5 0,-152.5 63,-152.5 63,-133.5 0,-133.5"/>
<text text-anchor="middle" x="31.5" y="-140.5" font-family="Helvetica,sans-Serif" font-size="10.00" fill="#000000">ndp_opt_t</text>
</a>
</g>
</g>
<!-- Node1 -->
<g id="node2" class="node">
<title>Node1</title>
<g id="a_node2"><a xlink:href="structndp__opt__mtu__t.html" target="_top" xlink:title="MTU option format. ">
<polygon fill="#ffffff" stroke="#000000" points="121.5,-266.5 121.5,-285.5 207.5,-285.5 207.5,-266.5 121.5,-266.5"/>
<text text-anchor="middle" x="164.5" y="-273.5" font-family="Helvetica,sans-Serif" font-size="10.00" fill="#000000">ndp_opt_mtu_t</text>
</a>
</g>
</g>
<!-- Node0&#45;&gt;Node1 -->
<g id="edge1" class="edge">
<title>Node0&#45;&gt;Node1</title>
<path fill="none" stroke="#191970" d="M37.8009,-162.2301C47.125,-187.6828 67.0244,-232.2212 99,-257 105.5513,-262.0768 113.4172,-265.7979 121.3889,-268.525"/>
<polygon fill="#191970" stroke="#191970" points="41.0425,-160.8959 34.4479,-152.6036 34.432,-163.1984 41.0425,-160.8959"/>
</g>
<!-- Node2 -->
<g id="node3" class="node">
<title>Node2</title>
<g id="a_node3"><a xlink:href="structndp__opt__pi__t.html" target="_top" xlink:title="Prefix information option format. ">
<polygon fill="#ffffff" stroke="#000000" points="126.5,-228.5 126.5,-247.5 202.5,-247.5 202.5,-228.5 126.5,-228.5"/>
<text text-anchor="middle" x="164.5" y="-235.5" font-family="Helvetica,sans-Serif" font-size="10.00" fill="#000000">ndp_opt_pi_t</text>
</a>
</g>
</g>
<!-- Node0&#45;&gt;Node2 -->
<g id="edge2" class="edge">
<title>Node0&#45;&gt;Node2</title>
<path fill="none" stroke="#191970" d="M43.2886,-161.4101C55.2961,-178.7188 75.4602,-204.1285 99,-219 107.2082,-224.1856 116.8783,-227.9986 126.2317,-230.7862"/>
<polygon fill="#191970" stroke="#191970" points="45.9594,-159.108 37.4873,-152.746 40.1428,-163.0026 45.9594,-159.108"/>
</g>
<!-- Node3 -->
<g id="node4" class="node">
<title>Node3</title>
<g id="a_node4"><a xlink:href="structndp__opt__rdnss__t.html" target="_top" xlink:title="Recursive DNS server option format without payload. ">
<polygon fill="#ffffff" stroke="#000000" points="118,-190.5 118,-209.5 211,-209.5 211,-190.5 118,-190.5"/>
<text text-anchor="middle" x="164.5" y="-197.5" font-family="Helvetica,sans-Serif" font-size="10.00" fill="#000000">ndp_opt_rdnss_t</text>
</a>
</g>
</g>
<!-- Node0&#45;&gt;Node3 -->
<g id="edge3" class="edge">
<title>Node0&#45;&gt;Node3</title>
<path fill="none" stroke="#191970" d="M54.8407,-157.9054C67.5397,-165.5565 83.7342,-174.59 99,-181 107.5152,-184.5755 116.9222,-187.736 125.8869,-190.4025"/>
<polygon fill="#191970" stroke="#191970" points="56.6262,-154.8946 46.2749,-152.6359 52.9583,-160.8567 56.6262,-154.8946"/>
</g>
<!-- Node5 -->
<g id="node6" class="node">
<title>Node5</title>
<g id="a_node6"><a xlink:href="structndp__opt__rh__t.html" target="_top" xlink:title="Redirected header option format. ">
<polygon fill="#ffffff" stroke="#000000" points="125.5,-152.5 125.5,-171.5 203.5,-171.5 203.5,-152.5 125.5,-152.5"/>
<text text-anchor="middle" x="164.5" y="-159.5" font-family="Helvetica,sans-Serif" font-size="10.00" fill="#000000">ndp_opt_rh_t</text>
</a>
</g>
</g>
<!-- Node0&#45;&gt;Node5 -->
<g id="edge5" class="edge">
<title>Node0&#45;&gt;Node5</title>
<path fill="none" stroke="#191970" d="M73.0106,-148.9301C89.6369,-151.3053 108.702,-154.0289 125.1102,-156.3729"/>
<polygon fill="#191970" stroke="#191970" points="73.4136,-145.4522 63.0191,-147.5027 72.4236,-152.3819 73.4136,-145.4522"/>
</g>
<!-- Node6 -->
<g id="node7" class="node">
<title>Node6</title>
<g id="a_node7"><a xlink:href="structndp__opt__ri__t.html" target="_top" xlink:title="Route information option format. ">
<polygon fill="#ffffff" stroke="#000000" points="127.5,-114.5 127.5,-133.5 201.5,-133.5 201.5,-114.5 127.5,-114.5"/>
<text text-anchor="middle" x="164.5" y="-121.5" font-family="Helvetica,sans-Serif" font-size="10.00" fill="#000000">ndp_opt_ri_t</text>
</a>
</g>
</g>
<!-- Node0&#45;&gt;Node6 -->
<g id="edge6" class="edge">
<title>Node0&#45;&gt;Node6</title>
<path fill="none" stroke="#191970" d="M73.3532,-137.021C90.5634,-134.5624 110.339,-131.7373 127.0621,-129.3483"/>
<polygon fill="#191970" stroke="#191970" points="72.4236,-133.6181 63.0191,-138.4973 73.4136,-140.5478 72.4236,-133.6181"/>
</g>
<!-- Node7 -->
<g id="node8" class="node">
<title>Node7</title>
<g id="a_node8"><a xlink:href="structsixlowpan__nd__opt__6ctx__t.html" target="_top" xlink:title="6LoWPAN context option format ">
<polygon fill="#ffffff" stroke="#000000" points="99,-76.5 99,-95.5 230,-95.5 230,-76.5 99,-76.5"/>
<text text-anchor="middle" x="164.5" y="-83.5" font-family="Helvetica,sans-Serif" font-size="10.00" fill="#000000">sixlowpan_nd_opt_6ctx_t</text>
</a>
</g>
</g>
<!-- Node0&#45;&gt;Node7 -->
<g id="edge7" class="edge">
<title>Node0&#45;&gt;Node7</title>
<path fill="none" stroke="#191970" d="M54.8407,-128.0946C67.5397,-120.4435 83.7342,-111.41 99,-105 107.5152,-101.4245 116.9222,-98.264 125.8869,-95.5975"/>
<polygon fill="#191970" stroke="#191970" points="52.9583,-125.1433 46.2749,-133.3641 56.6262,-131.1054 52.9583,-125.1433"/>
</g>
<!-- Node8 -->
<g id="node9" class="node">
<title>Node8</title>
<g id="a_node9"><a xlink:href="structsixlowpan__nd__opt__abr__t.html" target="_top" xlink:title="Authoritative border router option format. ">
<polygon fill="#ffffff" stroke="#000000" points="101,-38.5 101,-57.5 228,-57.5 228,-38.5 101,-38.5"/>
<text text-anchor="middle" x="164.5" y="-45.5" font-family="Helvetica,sans-Serif" font-size="10.00" fill="#000000">sixlowpan_nd_opt_abr_t</text>
</a>
</g>
</g>
<!-- Node0&#45;&gt;Node8 -->
<g id="edge8" class="edge">
<title>Node0&#45;&gt;Node8</title>
<path fill="none" stroke="#191970" d="M43.2886,-124.5899C55.2961,-107.2812 75.4602,-81.8715 99,-67 105.1061,-63.1424 112.0212,-60.0444 119.0131,-57.5631"/>
<polygon fill="#191970" stroke="#191970" points="40.1428,-122.9974 37.4873,-133.254 45.9594,-126.892 40.1428,-122.9974"/>
</g>
<!-- Node9 -->
<g id="node10" class="node">
<title>Node9</title>
<g id="a_node10"><a xlink:href="structsixlowpan__nd__opt__ar__t.html" target="_top" xlink:title="Address registration option format. ">
<polygon fill="#ffffff" stroke="#000000" points="104,-.5 104,-19.5 225,-19.5 225,-.5 104,-.5"/>
<text text-anchor="middle" x="164.5" y="-7.5" font-family="Helvetica,sans-Serif" font-size="10.00" fill="#000000">sixlowpan_nd_opt_ar_t</text>
</a>
</g>
</g>
<!-- Node0&#45;&gt;Node9 -->
<g id="edge9" class="edge">
<title>Node0&#45;&gt;Node9</title>
<path fill="none" stroke="#191970" d="M37.8009,-123.7699C47.125,-98.3172 67.0244,-53.7788 99,-29 104.0539,-25.0836 109.8901,-21.974 115.9537,-19.5052"/>
<polygon fill="#191970" stroke="#191970" points="34.432,-122.8016 34.4479,-133.3964 41.0425,-125.1041 34.432,-122.8016"/>
</g>
<!-- Node4 -->
<g id="node5" class="node">
<title>Node4</title>
<g id="a_node5"><a xlink:href="structndp__opt__rdnss__impl__t.html" target="_top" xlink:title="Recursive DNS server option format with payload. ">
<polygon fill="#ffffff" stroke="#000000" points="266,-190.5 266,-209.5 383,-209.5 383,-190.5 266,-190.5"/>
<text text-anchor="middle" x="324.5" y="-197.5" font-family="Helvetica,sans-Serif" font-size="10.00" fill="#000000">ndp_opt_rdnss_impl_t</text>
</a>
</g>
</g>
<!-- Node3&#45;&gt;Node4 -->
<g id="edge4" class="edge">
<title>Node3&#45;&gt;Node4</title>
<path fill="none" stroke="#191970" d="M221.4589,-200C235.8404,-200 251.3079,-200 265.7746,-200"/>
<polygon fill="#191970" stroke="#191970" points="221.2088,-196.5001 211.2087,-200 221.2087,-203.5001 221.2088,-196.5001"/>
</g>
</g>
</svg>
