<?xml version="1.0" encoding="UTF-8" standalone="no"?>
<!DOCTYPE svg PUBLIC "-//W3C//DTD SVG 1.1//EN"
 "http://www.w3.org/Graphics/SVG/1.1/DTD/svg11.dtd">
<!-- Generated by graphviz version 2.40.1 (0)
 -->
<!-- Title: Graphical Class Hierarchy Pages: 1 -->
<svg width="209pt" height="104pt"
 viewBox="0.00 0.00 209.00 104.00" xmlns="http://www.w3.org/2000/svg" xmlns:xlink="http://www.w3.org/1999/xlink">
<g id="graph0" class="graph" transform="scale(1 1) rotate(0) translate(4 100)">
<title>Graphical Class Hierarchy</title>
<polygon fill="#ffffff" stroke="transparent" points="-4,4 -4,-100 205,-100 205,4 -4,4"/>
<!-- Node0 -->
<g id="node1" class="node">
<title>Node0</title>
<g id="a_node1"><a xlink:href="structzep__hdr__t.html" target="_top" xlink:title="ZEP header definition. ">
<polygon fill="#ffffff" stroke="#000000" points="0,-38.5 0,-57.5 62,-57.5 62,-38.5 0,-38.5"/>
<text text-anchor="middle" x="31" y="-45.5" font-family="Helvetica,sans-Serif" font-size="10.00" fill="#000000">zep_hdr_t</text>
</a>
</g>
</g>
<!-- Node1 -->
<g id="node2" class="node">
<title>Node1</title>
<g id="a_node2"><a xlink:href="structzep__v1__hdr__t.html" target="_top" xlink:title="ZEPv1 header definition. ">
<polygon fill="#ffffff" stroke="#000000" points="110.5,-76.5 110.5,-95.5 188.5,-95.5 188.5,-76.5 110.5,-76.5"/>
<text text-anchor="middle" x="149.5" y="-83.5" font-family="Helvetica,sans-Serif" font-size="10.00" fill="#000000">zep_v1_hdr_t</text>
</a>
</g>
</g>
<!-- Node0&#45;&gt;Node1 -->
<g id="edge1" class="edge">
<title>Node0&#45;&gt;Node1</title>
<path fill="none" stroke="#191970" d="M70.5429,-60.6804C86.5542,-65.8148 104.7322,-71.6441 119.607,-76.4141"/>
<polygon fill="#191970" stroke="#191970" points="71.4937,-57.3098 60.9026,-57.589 69.3562,-63.9755 71.4937,-57.3098"/>
</g>
<!-- Node2 -->
<g id="node3" class="node">
<title>Node2</title>
<g id="a_node3"><a xlink:href="structzep__v2__ack__hdr__t.html" target="_top" xlink:title="ZEPv2 header definition (type == Ack) ">
<polygon fill="#ffffff" stroke="#000000" points="100.5,-38.5 100.5,-57.5 198.5,-57.5 198.5,-38.5 100.5,-38.5"/>
<text text-anchor="middle" x="149.5" y="-45.5" font-family="Helvetica,sans-Serif" font-size="10.00" fill="#000000">zep_v2_ack_hdr_t</text>
</a>
</g>
</g>
<!-- Node0&#45;&gt;Node2 -->
<g id="edge2" class="edge">
<title>Node0&#45;&gt;Node2</title>
<path fill="none" stroke="#191970" d="M72.3625,-48C81.3611,-48 90.9672,-48 100.2373,-48"/>
<polygon fill="#191970" stroke="#191970" points="72.1345,-44.5001 62.1345,-48 72.1344,-51.5001 72.1345,-44.5001"/>
</g>
<!-- Node3 -->
<g id="node4" class="node">
<title>Node3</title>
<g id="a_node4"><a xlink:href="structzep__v2__data__hdr__t.html" target="_top" xlink:title="ZEPv2 header definition (type == Data) ">
<polygon fill="#ffffff" stroke="#000000" points="98,-.5 98,-19.5 201,-19.5 201,-.5 98,-.5"/>
<text text-anchor="middle" x="149.5" y="-7.5" font-family="Helvetica,sans-Serif" font-size="10.00" fill="#000000">zep_v2_data_hdr_t</text>
</a>
</g>
</g>
<!-- Node0&#45;&gt;Node3 -->
<g id="edge3" class="edge">
<title>Node0&#45;&gt;Node3</title>
<path fill="none" stroke="#191970" d="M70.5429,-35.3196C86.5542,-30.1852 104.7322,-24.3559 119.607,-19.5859"/>
<polygon fill="#191970" stroke="#191970" points="69.3562,-32.0245 60.9026,-38.411 71.4937,-38.6902 69.3562,-32.0245"/>
</g>
</g>
</svg>
