<?xml version="1.0" encoding="UTF-8" standalone="no"?>
<!DOCTYPE svg PUBLIC "-//W3C//DTD SVG 1.1//EN"
 "http://www.w3.org/Graphics/SVG/1.1/DTD/svg11.dtd">
<!-- Generated by graphviz version 2.40.1 (0)
 -->
<!-- Title: drivers/include/io1_xplained.h Pages: 1 -->
<svg width="796pt" height="263pt"
 viewBox="0.00 0.00 796.00 263.00" xmlns="http://www.w3.org/2000/svg" xmlns:xlink="http://www.w3.org/1999/xlink">
<g id="graph0" class="graph" transform="scale(1 1) rotate(0) translate(4 259)">
<title>drivers/include/io1_xplained.h</title>
<polygon fill="#ffffff" stroke="transparent" points="-4,4 -4,-259 792,-259 792,4 -4,4"/>
<!-- Node0 -->
<g id="node1" class="node">
<title>Node0</title>
<polygon fill="#bfbfbf" stroke="#000000" points="325,-224.5 325,-254.5 429,-254.5 429,-224.5 325,-224.5"/>
<text text-anchor="start" x="333" y="-242.5" font-family="Helvetica,sans-Serif" font-size="10.00" fill="#000000">drivers/include/io1</text>
<text text-anchor="middle" x="377" y="-231.5" font-family="Helvetica,sans-Serif" font-size="10.00" fill="#000000">_xplained.h</text>
</g>
<!-- Node1 -->
<g id="node2" class="node">
<title>Node1</title>
<g id="a_node2"><a xlink:href="drivers_2include_2saul_8h.html" target="_top" xlink:title="Definition of the generic [S]ensor [A]ctuator [U]ber [L]ayer. ">
<polygon fill="#ffffff" stroke="#000000" points="127,-112.5 127,-131.5 171,-131.5 171,-112.5 127,-112.5"/>
<text text-anchor="middle" x="149" y="-119.5" font-family="Helvetica,sans-Serif" font-size="10.00" fill="#000000">saul.h</text>
</a>
</g>
</g>
<!-- Node0&#45;&gt;Node1 -->
<g id="edge1" class="edge">
<title>Node0&#45;&gt;Node1</title>
<path fill="none" stroke="#191970" d="M347.6597,-224.3795C303.3809,-201.5603 220.0648,-158.6233 176.7453,-136.2986"/>
<polygon fill="#191970" stroke="#191970" points="178.1294,-133.0745 167.637,-131.6046 174.9227,-139.2968 178.1294,-133.0745"/>
</g>
<!-- Node6 -->
<g id="node7" class="node">
<title>Node6</title>
<g id="a_node7"><a xlink:href="at30tse75x_8h.html" target="_top" xlink:title="Driver for the AT30TSE75x temperature sensor with serial EEPROM. ">
<polygon fill="#ffffff" stroke="#000000" points="338,-112.5 338,-131.5 416,-131.5 416,-112.5 338,-112.5"/>
<text text-anchor="middle" x="377" y="-119.5" font-family="Helvetica,sans-Serif" font-size="10.00" fill="#000000">at30tse75x.h</text>
</a>
</g>
</g>
<!-- Node0&#45;&gt;Node6 -->
<g id="edge6" class="edge">
<title>Node0&#45;&gt;Node6</title>
<path fill="none" stroke="#191970" d="M377,-224.1389C377,-202.9692 377,-164.8174 377,-141.6112"/>
<polygon fill="#191970" stroke="#191970" points="380.5001,-141.5594 377,-131.5595 373.5001,-141.5595 380.5001,-141.5594"/>
</g>
<!-- Node12 -->
<g id="node13" class="node">
<title>Node12</title>
<g id="a_node13"><a xlink:href="sdcard__spi_8h.html" target="_top" xlink:title="Public interface for the sdcard_spi driver. ">
<polygon fill="#ffffff" stroke="#000000" points="571,-168.5 571,-187.5 645,-187.5 645,-168.5 571,-168.5"/>
<text text-anchor="middle" x="608" y="-175.5" font-family="Helvetica,sans-Serif" font-size="10.00" fill="#000000">sdcard_spi.h</text>
</a>
</g>
</g>
<!-- Node0&#45;&gt;Node12 -->
<g id="edge14" class="edge">
<title>Node0&#45;&gt;Node12</title>
<path fill="none" stroke="#191970" d="M429.1289,-225.6215C469.195,-214.9546 523.9966,-200.3645 562.3465,-190.1545"/>
<polygon fill="#191970" stroke="#191970" points="563.4482,-193.4832 572.2111,-187.5282 561.6472,-186.7188 563.4482,-193.4832"/>
</g>
<!-- Node2 -->
<g id="node3" class="node">
<title>Node2</title>
<g id="a_node3"><a xlink:href="errno_8h.html" target="_top" xlink:title="errno.h">
<polygon fill="#ffffff" stroke="#000000" points="201.5,-56.5 201.5,-75.5 254.5,-75.5 254.5,-56.5 201.5,-56.5"/>
<text text-anchor="middle" x="228" y="-63.5" font-family="Helvetica,sans-Serif" font-size="10.00" fill="#000000">errno.h</text>
</a>
</g>
</g>
<!-- Node1&#45;&gt;Node2 -->
<g id="edge2" class="edge">
<title>Node1&#45;&gt;Node2</title>
<path fill="none" stroke="#191970" d="M162.7607,-112.2455C174.6552,-103.814 192.065,-91.4729 205.9085,-81.6598"/>
<polygon fill="#191970" stroke="#191970" points="208.2628,-84.2811 214.3969,-75.6427 204.2146,-78.5704 208.2628,-84.2811"/>
</g>
<!-- Node3 -->
<g id="node4" class="node">
<title>Node3</title>
<polygon fill="#ffffff" stroke="#bfbfbf" points="295,-.5 295,-19.5 347,-19.5 347,-.5 295,-.5"/>
<text text-anchor="middle" x="321" y="-7.5" font-family="Helvetica,sans-Serif" font-size="10.00" fill="#000000">stdint.h</text>
</g>
<!-- Node1&#45;&gt;Node3 -->
<g id="edge3" class="edge">
<title>Node1&#45;&gt;Node3</title>
<path fill="none" stroke="#191970" d="M134.6344,-112.4362C116.5687,-99.244 89.664,-74.9459 105,-56 127.2091,-28.5631 229.2167,-16.7972 284.7398,-12.3534"/>
<polygon fill="#191970" stroke="#191970" points="285.1564,-15.8319 294.862,-11.5832 284.6252,-8.8521 285.1564,-15.8319"/>
</g>
<!-- Node4 -->
<g id="node5" class="node">
<title>Node4</title>
<polygon fill="#ffffff" stroke="#bfbfbf" points="114.5,-56.5 114.5,-75.5 183.5,-75.5 183.5,-56.5 114.5,-56.5"/>
<text text-anchor="middle" x="149" y="-63.5" font-family="Helvetica,sans-Serif" font-size="10.00" fill="#000000">sys/types.h</text>
</g>
<!-- Node1&#45;&gt;Node4 -->
<g id="edge4" class="edge">
<title>Node1&#45;&gt;Node4</title>
<path fill="none" stroke="#191970" d="M149,-112.2455C149,-104.9382 149,-94.6944 149,-85.7046"/>
<polygon fill="#191970" stroke="#191970" points="152.5001,-85.6426 149,-75.6427 145.5001,-85.6427 152.5001,-85.6426"/>
</g>
<!-- Node5 -->
<g id="node6" class="node">
<title>Node5</title>
<polygon fill="#ffffff" stroke="#bfbfbf" points="0,-56.5 0,-75.5 58,-75.5 58,-56.5 0,-56.5"/>
<text text-anchor="middle" x="29" y="-63.5" font-family="Helvetica,sans-Serif" font-size="10.00" fill="#000000">phydat.h</text>
</g>
<!-- Node1&#45;&gt;Node5 -->
<g id="edge5" class="edge">
<title>Node1&#45;&gt;Node5</title>
<path fill="none" stroke="#191970" d="M128.3713,-112.3733C109.1081,-103.3838 80.1514,-89.8706 58.4581,-79.7471"/>
<polygon fill="#191970" stroke="#191970" points="59.9015,-76.5584 49.3595,-75.5011 56.9413,-82.9017 59.9015,-76.5584"/>
</g>
<!-- Node6&#45;&gt;Node3 -->
<g id="edge7" class="edge">
<title>Node6&#45;&gt;Node3</title>
<path fill="none" stroke="#191970" d="M351.115,-112.4647C335.2773,-105.1252 316.3206,-93.2779 307,-76 299.0345,-61.234 304.3652,-42.3301 310.6071,-28.5412"/>
<polygon fill="#191970" stroke="#191970" points="313.7693,-30.0433 315.1361,-19.537 307.5158,-26.8979 313.7693,-30.0433"/>
</g>
<!-- Node7 -->
<g id="node8" class="node">
<title>Node7</title>
<g id="a_node8"><a xlink:href="i2c_8h.html" target="_top" xlink:title="Low&#45;level I2C peripheral driver interface definition. ">
<polygon fill="#ffffff" stroke="#000000" points="463.5,-56.5 463.5,-75.5 536.5,-75.5 536.5,-56.5 463.5,-56.5"/>
<text text-anchor="middle" x="500" y="-63.5" font-family="Helvetica,sans-Serif" font-size="10.00" fill="#000000">periph/i2c.h</text>
</a>
</g>
</g>
<!-- Node6&#45;&gt;Node7 -->
<g id="edge8" class="edge">
<title>Node6&#45;&gt;Node7</title>
<path fill="none" stroke="#191970" d="M398.1445,-112.3733C417.8892,-103.3838 447.5698,-89.8706 469.8055,-79.7471"/>
<polygon fill="#191970" stroke="#191970" points="471.4806,-82.8302 479.1315,-75.5011 468.58,-76.4594 471.4806,-82.8302"/>
</g>
<!-- Node7&#45;&gt;Node3 -->
<g id="edge9" class="edge">
<title>Node7&#45;&gt;Node3</title>
<path fill="none" stroke="#191970" d="M469.2288,-56.3733C437.9762,-46.5959 389.618,-31.4671 356.6997,-21.1686"/>
<polygon fill="#191970" stroke="#191970" points="357.6043,-17.7844 347.0154,-18.1389 355.5142,-24.4651 357.6043,-17.7844"/>
</g>
<!-- Node8 -->
<g id="node9" class="node">
<title>Node8</title>
<polygon fill="#ffffff" stroke="#bfbfbf" points="391,-.5 391,-19.5 447,-19.5 447,-.5 391,-.5"/>
<text text-anchor="middle" x="419" y="-7.5" font-family="Helvetica,sans-Serif" font-size="10.00" fill="#000000">stddef.h</text>
</g>
<!-- Node7&#45;&gt;Node8 -->
<g id="edge10" class="edge">
<title>Node7&#45;&gt;Node8</title>
<path fill="none" stroke="#191970" d="M485.8909,-56.2455C473.5791,-47.7337 455.5042,-35.2375 441.2462,-25.3801"/>
<polygon fill="#191970" stroke="#191970" points="443.1634,-22.4506 432.9474,-19.6427 439.1826,-28.2085 443.1634,-22.4506"/>
</g>
<!-- Node9 -->
<g id="node10" class="node">
<title>Node9</title>
<polygon fill="#ffffff" stroke="#bfbfbf" points="465,-.5 465,-19.5 515,-19.5 515,-.5 465,-.5"/>
<text text-anchor="middle" x="490" y="-7.5" font-family="Helvetica,sans-Serif" font-size="10.00" fill="#000000">limits.h</text>
</g>
<!-- Node7&#45;&gt;Node9 -->
<g id="edge11" class="edge">
<title>Node7&#45;&gt;Node9</title>
<path fill="none" stroke="#191970" d="M498.2581,-56.2455C496.9533,-48.9382 495.124,-38.6944 493.5187,-29.7046"/>
<polygon fill="#191970" stroke="#191970" points="496.9254,-28.8717 491.7219,-19.6427 490.0344,-30.1022 496.9254,-28.8717"/>
</g>
<!-- Node10 -->
<g id="node11" class="node">
<title>Node10</title>
<polygon fill="#ffffff" stroke="#bfbfbf" points="533.5,-.5 533.5,-19.5 614.5,-19.5 614.5,-.5 533.5,-.5"/>
<text text-anchor="middle" x="574" y="-7.5" font-family="Helvetica,sans-Serif" font-size="10.00" fill="#000000">periph_conf.h</text>
</g>
<!-- Node7&#45;&gt;Node10 -->
<g id="edge12" class="edge">
<title>Node7&#45;&gt;Node10</title>
<path fill="none" stroke="#191970" d="M512.8898,-56.2455C523.9254,-47.8943 540.0292,-35.7076 552.9353,-25.9408"/>
<polygon fill="#191970" stroke="#191970" points="555.3959,-28.4681 561.2579,-19.6427 551.1717,-22.8862 555.3959,-28.4681"/>
</g>
<!-- Node11 -->
<g id="node12" class="node">
<title>Node11</title>
<polygon fill="#ffffff" stroke="#bfbfbf" points="632.5,-.5 632.5,-19.5 709.5,-19.5 709.5,-.5 632.5,-.5"/>
<text text-anchor="middle" x="671" y="-7.5" font-family="Helvetica,sans-Serif" font-size="10.00" fill="#000000">periph_cpu.h</text>
</g>
<!-- Node7&#45;&gt;Node11 -->
<g id="edge13" class="edge">
<title>Node7&#45;&gt;Node11</title>
<path fill="none" stroke="#191970" d="M529.3959,-56.3733C557.8307,-47.0613 601.0877,-32.8953 632.3081,-22.671"/>
<polygon fill="#191970" stroke="#191970" points="633.5736,-25.9396 641.9876,-19.5011 631.395,-19.2872 633.5736,-25.9396"/>
</g>
<!-- Node13 -->
<g id="node14" class="node">
<title>Node13</title>
<g id="a_node14"><a xlink:href="spi_8h.html" target="_top" xlink:title="Low&#45;level SPI peripheral driver interface definition. ">
<polygon fill="#ffffff" stroke="#000000" points="528.5,-112.5 528.5,-131.5 601.5,-131.5 601.5,-112.5 528.5,-112.5"/>
<text text-anchor="middle" x="565" y="-119.5" font-family="Helvetica,sans-Serif" font-size="10.00" fill="#000000">periph/spi.h</text>
</a>
</g>
</g>
<!-- Node12&#45;&gt;Node13 -->
<g id="edge15" class="edge">
<title>Node12&#45;&gt;Node13</title>
<path fill="none" stroke="#191970" d="M600.51,-168.2455C594.4674,-160.3761 585.8097,-149.101 578.5559,-139.6542"/>
<polygon fill="#191970" stroke="#191970" points="581.2705,-137.4426 572.4042,-131.6427 575.7185,-141.7058 581.2705,-137.4426"/>
</g>
<!-- Node15 -->
<g id="node16" class="node">
<title>Node15</title>
<polygon fill="#ffffff" stroke="#bfbfbf" points="728,-.5 728,-19.5 788,-19.5 788,-.5 728,-.5"/>
<text text-anchor="middle" x="758" y="-7.5" font-family="Helvetica,sans-Serif" font-size="10.00" fill="#000000">stdbool.h</text>
</g>
<!-- Node12&#45;&gt;Node15 -->
<g id="edge30" class="edge">
<title>Node12&#45;&gt;Node15</title>
<path fill="none" stroke="#191970" d="M628.3088,-168.2707C658.0476,-152.9423 713.0434,-120.2934 742,-76 751.0613,-62.1394 754.9959,-43.6211 756.7017,-29.7282"/>
<polygon fill="#191970" stroke="#191970" points="760.1877,-30.0411 757.6473,-19.7554 753.2189,-29.3803 760.1877,-30.0411"/>
</g>
<!-- Node16 -->
<g id="node17" class="node">
<title>Node16</title>
<g id="a_node17"><a xlink:href="drivers_2include_2periph_2gpio_8h.html" target="_top" xlink:title="Low&#45;level GPIO peripheral driver interface definitions. ">
<polygon fill="#ffffff" stroke="#000000" points="631,-56.5 631,-75.5 711,-75.5 711,-56.5 631,-56.5"/>
<text text-anchor="middle" x="671" y="-63.5" font-family="Helvetica,sans-Serif" font-size="10.00" fill="#000000">periph/gpio.h</text>
</a>
</g>
</g>
<!-- Node12&#45;&gt;Node16 -->
<g id="edge29" class="edge">
<title>Node12&#45;&gt;Node16</title>
<path fill="none" stroke="#191970" d="M613.3713,-168.4509C623.8325,-149.8533 647.0983,-108.4919 660.652,-84.3964"/>
<polygon fill="#191970" stroke="#191970" points="663.7901,-85.9566 665.6423,-75.5249 657.6891,-82.5247 663.7901,-85.9566"/>
</g>
<!-- Node13&#45;&gt;Node2 -->
<g id="edge18" class="edge">
<title>Node13&#45;&gt;Node2</title>
<path fill="none" stroke="#191970" d="M528.2936,-115.9004C463.4937,-105.1325 329.5572,-82.876 264.7361,-72.1045"/>
<polygon fill="#191970" stroke="#191970" points="265.0153,-68.603 254.5768,-70.4163 263.8678,-75.5083 265.0153,-68.603"/>
</g>
<!-- Node13&#45;&gt;Node3 -->
<g id="edge21" class="edge">
<title>Node13&#45;&gt;Node3</title>
<path fill="none" stroke="#191970" d="M528.2138,-118.9722C471.8968,-113.6101 367.9832,-100.6159 341,-76 328.1717,-64.2971 323.4595,-44.6713 321.7847,-29.8557"/>
<polygon fill="#191970" stroke="#191970" points="325.2588,-29.3811 321.0119,-19.6747 318.2789,-29.911 325.2588,-29.3811"/>
</g>
<!-- Node13&#45;&gt;Node8 -->
<g id="edge20" class="edge">
<title>Node13&#45;&gt;Node8</title>
<path fill="none" stroke="#191970" d="M528.4164,-113.427C505.2085,-106.4826 475.7534,-94.7138 455,-76 440.96,-63.3398 431.283,-43.8775 425.5265,-29.3632"/>
<polygon fill="#191970" stroke="#191970" points="428.7593,-28.0133 422.0214,-19.837 422.1899,-30.4305 428.7593,-28.0133"/>
</g>
<!-- Node13&#45;&gt;Node10 -->
<g id="edge23" class="edge">
<title>Node13&#45;&gt;Node10</title>
<path fill="none" stroke="#191970" d="M565.7673,-112.4509C567.2352,-94.184 570.4679,-53.9553 572.4172,-29.6976"/>
<polygon fill="#191970" stroke="#191970" points="575.9223,-29.7731 573.2346,-19.5249 568.9448,-29.2124 575.9223,-29.7731"/>
</g>
<!-- Node13&#45;&gt;Node11 -->
<g id="edge22" class="edge">
<title>Node13&#45;&gt;Node11</title>
<path fill="none" stroke="#191970" d="M572.8158,-112.3257C583.5291,-99.2131 603.5528,-75.2285 622,-56 631.7464,-45.8408 643.1902,-35.0397 652.5665,-26.4584"/>
<polygon fill="#191970" stroke="#191970" points="655.1188,-28.8689 660.1793,-19.5607 650.4186,-23.6815 655.1188,-28.8689"/>
</g>
<!-- Node14 -->
<g id="node15" class="node">
<title>Node14</title>
<g id="a_node15"><a xlink:href="endian_8h.html" target="_top" xlink:title="libc header for endian conversion ">
<polygon fill="#ffffff" stroke="#000000" points="349.5,-56.5 349.5,-75.5 406.5,-75.5 406.5,-56.5 349.5,-56.5"/>
<text text-anchor="middle" x="378" y="-63.5" font-family="Helvetica,sans-Serif" font-size="10.00" fill="#000000">endian.h</text>
</a>
</g>
</g>
<!-- Node13&#45;&gt;Node14 -->
<g id="edge16" class="edge">
<title>Node13&#45;&gt;Node14</title>
<path fill="none" stroke="#191970" d="M532.8536,-112.3733C500.5386,-102.6961 450.718,-87.7765 416.3572,-77.4867"/>
<polygon fill="#191970" stroke="#191970" points="417.2491,-74.1002 406.6654,-74.5843 415.2409,-80.806 417.2491,-74.1002"/>
</g>
<!-- Node13&#45;&gt;Node15 -->
<g id="edge19" class="edge">
<title>Node13&#45;&gt;Node15</title>
<path fill="none" stroke="#191970" d="M601.7449,-118.8497C635.5951,-114.2837 685.6351,-103.1388 720,-76 735.1964,-63.999 745.4422,-44.1287 751.4283,-29.3206"/>
<polygon fill="#191970" stroke="#191970" points="754.8318,-30.2103 755.044,-19.6176 748.2724,-27.766 754.8318,-30.2103"/>
</g>
<!-- Node13&#45;&gt;Node16 -->
<g id="edge24" class="edge">
<title>Node13&#45;&gt;Node16</title>
<path fill="none" stroke="#191970" d="M583.4638,-112.2455C600.1074,-103.4527 624.7993,-90.4079 643.7192,-80.4125"/>
<polygon fill="#191970" stroke="#191970" points="645.5408,-83.4086 652.7478,-75.6427 642.2709,-77.2193 645.5408,-83.4086"/>
</g>
<!-- Node14&#45;&gt;Node3 -->
<g id="edge17" class="edge">
<title>Node14&#45;&gt;Node3</title>
<path fill="none" stroke="#191970" d="M368.0714,-56.2455C359.8162,-48.1352 347.8791,-36.4075 338.0918,-26.7919"/>
<polygon fill="#191970" stroke="#191970" points="340.4011,-24.1542 330.8149,-19.6427 335.4954,-29.1476 340.4011,-24.1542"/>
</g>
<!-- Node16&#45;&gt;Node9 -->
<g id="edge25" class="edge">
<title>Node16&#45;&gt;Node9</title>
<path fill="none" stroke="#191970" d="M639.885,-56.3733C607.9168,-46.4825 558.2485,-31.1156 524.9472,-20.8124"/>
<polygon fill="#191970" stroke="#191970" points="525.7632,-17.4012 515.1755,-17.7891 523.6942,-24.0885 525.7632,-17.4012"/>
</g>
<!-- Node16&#45;&gt;Node10 -->
<g id="edge28" class="edge">
<title>Node16&#45;&gt;Node10</title>
<path fill="none" stroke="#191970" d="M654.1039,-56.2455C639.082,-47.5731 616.8957,-34.7645 599.679,-24.825"/>
<polygon fill="#191970" stroke="#191970" points="601.1128,-21.6114 590.7025,-19.6427 597.6129,-27.6737 601.1128,-21.6114"/>
</g>
<!-- Node16&#45;&gt;Node11 -->
<g id="edge27" class="edge">
<title>Node16&#45;&gt;Node11</title>
<path fill="none" stroke="#191970" d="M671,-56.2455C671,-48.9382 671,-38.6944 671,-29.7046"/>
<polygon fill="#191970" stroke="#191970" points="674.5001,-29.6426 671,-19.6427 667.5001,-29.6427 674.5001,-29.6426"/>
</g>
<!-- Node16&#45;&gt;Node15 -->
<g id="edge26" class="edge">
<title>Node16&#45;&gt;Node15</title>
<path fill="none" stroke="#191970" d="M686.1542,-56.2455C699.5027,-47.6534 719.1586,-35.0014 734.5383,-25.1018"/>
<polygon fill="#191970" stroke="#191970" points="736.5051,-27.9982 743.0194,-19.6427 732.7164,-22.1121 736.5051,-27.9982"/>
</g>
</g>
</svg>
