<?xml version="1.0" encoding="UTF-8" standalone="no"?>
<!DOCTYPE svg PUBLIC "-//W3C//DTD SVG 1.1//EN"
 "http://www.w3.org/Graphics/SVG/1.1/DTD/svg11.dtd">
<!-- Generated by graphviz version 2.40.1 (0)
 -->
<!-- Title: drivers/io1_xplained/include/io1_xplained_internals.h Pages: 1 -->
<svg width="630pt" height="218pt"
 viewBox="0.00 0.00 630.22 218.00" xmlns="http://www.w3.org/2000/svg" xmlns:xlink="http://www.w3.org/1999/xlink">
<g id="graph0" class="graph" transform="scale(1 1) rotate(0) translate(4 214)">
<title>drivers/io1_xplained/include/io1_xplained_internals.h</title>
<polygon fill="#ffffff" stroke="transparent" points="-4,4 -4,-214 626.2165,-214 626.2165,4 -4,4"/>
<!-- Node0 -->
<g id="node1" class="node">
<title>Node0</title>
<polygon fill="#bfbfbf" stroke="#000000" points="116.5,-168.5 116.5,-209.5 231.5,-209.5 231.5,-168.5 116.5,-168.5"/>
<text text-anchor="start" x="124.5" y="-197.5" font-family="Helvetica,sans-Serif" font-size="10.00" fill="#000000">drivers/io1_xplained</text>
<text text-anchor="start" x="124.5" y="-186.5" font-family="Helvetica,sans-Serif" font-size="10.00" fill="#000000">/include/io1_xplained</text>
<text text-anchor="middle" x="174" y="-175.5" font-family="Helvetica,sans-Serif" font-size="10.00" fill="#000000">_internals.h</text>
</g>
<!-- Node1 -->
<g id="node2" class="node">
<title>Node1</title>
<polygon fill="#ffffff" stroke="#bfbfbf" points="0,-112.5 0,-131.5 42,-131.5 42,-112.5 0,-112.5"/>
<text text-anchor="middle" x="21" y="-119.5" font-family="Helvetica,sans-Serif" font-size="10.00" fill="#000000">cpu.h</text>
</g>
<!-- Node0&#45;&gt;Node1 -->
<g id="edge1" class="edge">
<title>Node0&#45;&gt;Node1</title>
<path fill="none" stroke="#191970" d="M126.8465,-168.3511C102.329,-157.6146 73.0713,-144.8025 51.5363,-135.3721"/>
<polygon fill="#191970" stroke="#191970" points="52.7942,-132.1021 42.23,-131.2968 49.9862,-138.5143 52.7942,-132.1021"/>
</g>
<!-- Node2 -->
<g id="node3" class="node">
<title>Node2</title>
<polygon fill="#ffffff" stroke="#bfbfbf" points="69.5,-.5 69.5,-19.5 146.5,-19.5 146.5,-.5 69.5,-.5"/>
<text text-anchor="middle" x="108" y="-7.5" font-family="Helvetica,sans-Serif" font-size="10.00" fill="#000000">periph_cpu.h</text>
</g>
<!-- Node0&#45;&gt;Node2 -->
<g id="edge2" class="edge">
<title>Node0&#45;&gt;Node2</title>
<path fill="none" stroke="#191970" d="M158.4975,-168.2357C143.258,-146.5101 120.8897,-110.7836 111,-76 106.7299,-60.9815 106.1527,-43.2736 106.5485,-29.9828"/>
<polygon fill="#191970" stroke="#191970" points="110.0631,-29.7845 107.0783,-19.6188 103.0722,-29.427 110.0631,-29.7845"/>
</g>
<!-- Node3 -->
<g id="node4" class="node">
<title>Node3</title>
<g id="a_node4"><a xlink:href="adc_8h.html" target="_top" xlink:title="Low&#45;level ADC peripheral driver interface definitions. ">
<polygon fill="#ffffff" stroke="#000000" points="136,-56.5 136,-75.5 212,-75.5 212,-56.5 136,-56.5"/>
<text text-anchor="middle" x="174" y="-63.5" font-family="Helvetica,sans-Serif" font-size="10.00" fill="#000000">periph/adc.h</text>
</a>
</g>
</g>
<!-- Node0&#45;&gt;Node3 -->
<g id="edge3" class="edge">
<title>Node0&#45;&gt;Node3</title>
<path fill="none" stroke="#191970" d="M174,-168.4126C174,-145.3618 174,-108.2774 174,-85.6259"/>
<polygon fill="#191970" stroke="#191970" points="177.5001,-85.5181 174,-75.5182 170.5001,-85.5182 177.5001,-85.5181"/>
</g>
<!-- Node7 -->
<g id="node8" class="node">
<title>Node7</title>
<g id="a_node8"><a xlink:href="drivers_2include_2periph_2gpio_8h.html" target="_top" xlink:title="Low&#45;level GPIO peripheral driver interface definitions. ">
<polygon fill="#ffffff" stroke="#000000" points="230,-56.5 230,-75.5 310,-75.5 310,-56.5 230,-56.5"/>
<text text-anchor="middle" x="270" y="-63.5" font-family="Helvetica,sans-Serif" font-size="10.00" fill="#000000">periph/gpio.h</text>
</a>
</g>
</g>
<!-- Node0&#45;&gt;Node7 -->
<g id="edge8" class="edge">
<title>Node0&#45;&gt;Node7</title>
<path fill="none" stroke="#191970" d="M190.0682,-168.4126C208.6341,-144.625 238.8645,-105.8924 256.3423,-83.499"/>
<polygon fill="#191970" stroke="#191970" points="259.1776,-85.5548 262.5712,-75.5182 253.6593,-81.2479 259.1776,-85.5548"/>
</g>
<!-- Node9 -->
<g id="node10" class="node">
<title>Node9</title>
<g id="a_node10"><a xlink:href="spi_8h.html" target="_top" xlink:title="Low&#45;level SPI peripheral driver interface definition. ">
<polygon fill="#ffffff" stroke="#000000" points="339.5,-112.5 339.5,-131.5 412.5,-131.5 412.5,-112.5 339.5,-112.5"/>
<text text-anchor="middle" x="376" y="-119.5" font-family="Helvetica,sans-Serif" font-size="10.00" fill="#000000">periph/spi.h</text>
</a>
</g>
</g>
<!-- Node0&#45;&gt;Node9 -->
<g id="edge13" class="edge">
<title>Node0&#45;&gt;Node9</title>
<path fill="none" stroke="#191970" d="M231.6148,-169.8902C265.56,-158.6311 307.5778,-144.6945 337.5165,-134.7643"/>
<polygon fill="#191970" stroke="#191970" points="338.7878,-138.0303 347.1774,-131.56 336.584,-131.3862 338.7878,-138.0303"/>
</g>
<!-- Node3&#45;&gt;Node2 -->
<g id="edge6" class="edge">
<title>Node3&#45;&gt;Node2</title>
<path fill="none" stroke="#191970" d="M162.5037,-56.2455C152.7558,-47.9746 138.5741,-35.9416 127.1202,-26.2232"/>
<polygon fill="#191970" stroke="#191970" points="129.2541,-23.4437 119.3646,-19.6427 124.7253,-28.7813 129.2541,-23.4437"/>
</g>
<!-- Node4 -->
<g id="node5" class="node">
<title>Node4</title>
<polygon fill="#ffffff" stroke="#bfbfbf" points="165,-.5 165,-19.5 215,-19.5 215,-.5 165,-.5"/>
<text text-anchor="middle" x="190" y="-7.5" font-family="Helvetica,sans-Serif" font-size="10.00" fill="#000000">limits.h</text>
</g>
<!-- Node3&#45;&gt;Node4 -->
<g id="edge4" class="edge">
<title>Node3&#45;&gt;Node4</title>
<path fill="none" stroke="#191970" d="M176.787,-56.2455C178.8977,-48.8579 181.866,-38.4689 184.4547,-29.4087"/>
<polygon fill="#191970" stroke="#191970" points="187.863,-30.2195 187.245,-19.6427 181.1323,-28.2964 187.863,-30.2195"/>
</g>
<!-- Node5 -->
<g id="node6" class="node">
<title>Node5</title>
<polygon fill="#ffffff" stroke="#bfbfbf" points="478,-.5 478,-19.5 530,-19.5 530,-.5 478,-.5"/>
<text text-anchor="middle" x="504" y="-7.5" font-family="Helvetica,sans-Serif" font-size="10.00" fill="#000000">stdint.h</text>
</g>
<!-- Node3&#45;&gt;Node5 -->
<g id="edge5" class="edge">
<title>Node3&#45;&gt;Node5</title>
<path fill="none" stroke="#191970" d="M212.1885,-57.7129C215.1666,-57.1162 218.1302,-56.5382 221,-56 309.2922,-39.4416 413.7407,-23.3688 467.6886,-15.3258"/>
<polygon fill="#191970" stroke="#191970" points="468.4077,-18.7575 477.7851,-13.8266 467.3794,-11.8335 468.4077,-18.7575"/>
</g>
<!-- Node6 -->
<g id="node7" class="node">
<title>Node6</title>
<polygon fill="#ffffff" stroke="#bfbfbf" points="233.5,-.5 233.5,-19.5 314.5,-19.5 314.5,-.5 233.5,-.5"/>
<text text-anchor="middle" x="274" y="-7.5" font-family="Helvetica,sans-Serif" font-size="10.00" fill="#000000">periph_conf.h</text>
</g>
<!-- Node3&#45;&gt;Node6 -->
<g id="edge7" class="edge">
<title>Node3&#45;&gt;Node6</title>
<path fill="none" stroke="#191970" d="M191.4187,-56.2455C207.0485,-47.4928 230.2019,-34.527 248.0185,-24.5496"/>
<polygon fill="#191970" stroke="#191970" points="249.766,-27.5825 256.7809,-19.6427 246.3457,-21.475 249.766,-27.5825"/>
</g>
<!-- Node7&#45;&gt;Node2 -->
<g id="edge11" class="edge">
<title>Node7&#45;&gt;Node2</title>
<path fill="none" stroke="#191970" d="M242.1512,-56.3733C215.3297,-47.1016 174.5873,-33.0178 145.0402,-22.804"/>
<polygon fill="#191970" stroke="#191970" points="146.0802,-19.4603 135.4854,-19.5011 143.7931,-26.0762 146.0802,-19.4603"/>
</g>
<!-- Node7&#45;&gt;Node4 -->
<g id="edge9" class="edge">
<title>Node7&#45;&gt;Node4</title>
<path fill="none" stroke="#191970" d="M256.0651,-56.2455C243.9053,-47.7337 226.0536,-35.2375 211.9715,-25.3801"/>
<polygon fill="#191970" stroke="#191970" points="213.9747,-22.51 203.7752,-19.6427 209.9605,-28.2447 213.9747,-22.51"/>
</g>
<!-- Node7&#45;&gt;Node6 -->
<g id="edge12" class="edge">
<title>Node7&#45;&gt;Node6</title>
<path fill="none" stroke="#191970" d="M270.6967,-56.2455C271.2187,-48.9382 271.9504,-38.6944 272.5925,-29.7046"/>
<polygon fill="#191970" stroke="#191970" points="276.0898,-29.8667 273.3112,-19.6427 269.1076,-29.3679 276.0898,-29.8667"/>
</g>
<!-- Node8 -->
<g id="node9" class="node">
<title>Node8</title>
<polygon fill="#ffffff" stroke="#bfbfbf" points="340,-.5 340,-19.5 400,-19.5 400,-.5 340,-.5"/>
<text text-anchor="middle" x="370" y="-7.5" font-family="Helvetica,sans-Serif" font-size="10.00" fill="#000000">stdbool.h</text>
</g>
<!-- Node7&#45;&gt;Node8 -->
<g id="edge10" class="edge">
<title>Node7&#45;&gt;Node8</title>
<path fill="none" stroke="#191970" d="M287.4187,-56.2455C303.0485,-47.4928 326.2019,-34.527 344.0185,-24.5496"/>
<polygon fill="#191970" stroke="#191970" points="345.766,-27.5825 352.7809,-19.6427 342.3457,-21.475 345.766,-27.5825"/>
</g>
<!-- Node9&#45;&gt;Node2 -->
<g id="edge20" class="edge">
<title>Node9&#45;&gt;Node2</title>
<path fill="none" stroke="#191970" d="M339.1069,-119.8632C277.5493,-115.5552 157.6106,-103.7593 127,-76 114.1899,-64.3831 109.7962,-44.7458 108.3942,-29.9042"/>
<polygon fill="#191970" stroke="#191970" points="111.8762,-29.4874 107.8153,-19.7018 104.8875,-29.884 111.8762,-29.4874"/>
</g>
<!-- Node9&#45;&gt;Node5 -->
<g id="edge19" class="edge">
<title>Node9&#45;&gt;Node5</title>
<path fill="none" stroke="#191970" d="M412.912,-120.467C473.6935,-117.0827 590.6608,-106.6571 616,-76 640.7736,-46.0272 581.4693,-26.5038 540.0383,-16.9409"/>
<polygon fill="#191970" stroke="#191970" points="540.7303,-13.5095 530.2117,-14.7783 539.2257,-20.3459 540.7303,-13.5095"/>
</g>
<!-- Node9&#45;&gt;Node6 -->
<g id="edge21" class="edge">
<title>Node9&#45;&gt;Node6</title>
<path fill="none" stroke="#191970" d="M368.0631,-112.4395C357.2126,-99.4557 337.0339,-75.6167 319,-56 309.9693,-46.1767 299.57,-35.5067 291.0449,-26.9183"/>
<polygon fill="#191970" stroke="#191970" points="293.3787,-24.3022 283.8355,-19.7002 288.4259,-29.249 293.3787,-24.3022"/>
</g>
<!-- Node9&#45;&gt;Node7 -->
<g id="edge22" class="edge">
<title>Node9&#45;&gt;Node7</title>
<path fill="none" stroke="#191970" d="M357.5362,-112.2455C340.8926,-103.4527 316.2007,-90.4079 297.2808,-80.4125"/>
<polygon fill="#191970" stroke="#191970" points="298.7291,-77.2193 288.2522,-75.6427 295.4592,-83.4086 298.7291,-77.2193"/>
</g>
<!-- Node9&#45;&gt;Node8 -->
<g id="edge17" class="edge">
<title>Node9&#45;&gt;Node8</title>
<path fill="none" stroke="#191970" d="M375.4884,-112.4509C374.5099,-94.184 372.3547,-53.9553 371.0552,-29.6976"/>
<polygon fill="#191970" stroke="#191970" points="374.5403,-29.3233 370.5103,-19.5249 367.5503,-29.6978 374.5403,-29.3233"/>
</g>
<!-- Node10 -->
<g id="node11" class="node">
<title>Node10</title>
<g id="a_node11"><a xlink:href="endian_8h.html" target="_top" xlink:title="libc header for endian conversion ">
<polygon fill="#ffffff" stroke="#000000" points="475.5,-56.5 475.5,-75.5 532.5,-75.5 532.5,-56.5 475.5,-56.5"/>
<text text-anchor="middle" x="504" y="-63.5" font-family="Helvetica,sans-Serif" font-size="10.00" fill="#000000">endian.h</text>
</a>
</g>
</g>
<!-- Node9&#45;&gt;Node10 -->
<g id="edge14" class="edge">
<title>Node9&#45;&gt;Node10</title>
<path fill="none" stroke="#191970" d="M398.004,-112.3733C418.6435,-103.3435 449.7158,-89.7494 472.8889,-79.6111"/>
<polygon fill="#191970" stroke="#191970" points="474.5245,-82.7159 482.2831,-75.5011 471.7187,-76.3028 474.5245,-82.7159"/>
</g>
<!-- Node11 -->
<g id="node12" class="node">
<title>Node11</title>
<g id="a_node12"><a xlink:href="errno_8h.html" target="_top" xlink:title="errno.h">
<polygon fill="#ffffff" stroke="#000000" points="404.5,-56.5 404.5,-75.5 457.5,-75.5 457.5,-56.5 404.5,-56.5"/>
<text text-anchor="middle" x="431" y="-63.5" font-family="Helvetica,sans-Serif" font-size="10.00" fill="#000000">errno.h</text>
</a>
</g>
</g>
<!-- Node9&#45;&gt;Node11 -->
<g id="edge16" class="edge">
<title>Node9&#45;&gt;Node11</title>
<path fill="none" stroke="#191970" d="M385.5803,-112.2455C393.5458,-104.1352 405.0641,-92.4075 414.5079,-82.7919"/>
<polygon fill="#191970" stroke="#191970" points="417.0195,-85.2297 421.5295,-75.6427 412.0253,-80.3247 417.0195,-85.2297"/>
</g>
<!-- Node12 -->
<g id="node13" class="node">
<title>Node12</title>
<polygon fill="#ffffff" stroke="#bfbfbf" points="551,-56.5 551,-75.5 607,-75.5 607,-56.5 551,-56.5"/>
<text text-anchor="middle" x="579" y="-63.5" font-family="Helvetica,sans-Serif" font-size="10.00" fill="#000000">stddef.h</text>
</g>
<!-- Node9&#45;&gt;Node12 -->
<g id="edge18" class="edge">
<title>Node9&#45;&gt;Node12</title>
<path fill="none" stroke="#191970" d="M410.8969,-112.3733C447.0599,-102.3973 503.418,-86.8502 540.7669,-76.5471"/>
<polygon fill="#191970" stroke="#191970" points="542.0554,-79.8224 550.7645,-73.7891 540.1938,-73.0745 542.0554,-79.8224"/>
</g>
<!-- Node10&#45;&gt;Node5 -->
<g id="edge15" class="edge">
<title>Node10&#45;&gt;Node5</title>
<path fill="none" stroke="#191970" d="M504,-56.2455C504,-48.9382 504,-38.6944 504,-29.7046"/>
<polygon fill="#191970" stroke="#191970" points="507.5001,-29.6426 504,-19.6427 500.5001,-29.6427 507.5001,-29.6426"/>
</g>
</g>
</svg>
