<?xml version="1.0" encoding="UTF-8" standalone="no"?>
<!DOCTYPE svg PUBLIC "-//W3C//DTD SVG 1.1//EN"
 "http://www.w3.org/Graphics/SVG/1.1/DTD/svg11.dtd">
<!-- Generated by graphviz version 2.40.1 (0)
 -->
<!-- Title: sys/include/iolist.h Pages: 1 -->
<svg width="147pt" height="196pt"
 viewBox="0.00 0.00 147.00 196.00" xmlns="http://www.w3.org/2000/svg" xmlns:xlink="http://www.w3.org/1999/xlink">
<g id="graph0" class="graph" transform="scale(1 1) rotate(0) translate(4 192)">
<title>sys/include/iolist.h</title>
<polygon fill="#ffffff" stroke="transparent" points="-4,4 -4,-192 143,-192 143,4 -4,4"/>
<!-- Node0 -->
<g id="node1" class="node">
<title>Node0</title>
<polygon fill="#bfbfbf" stroke="#000000" points="13.5,-168.5 13.5,-187.5 114.5,-187.5 114.5,-168.5 13.5,-168.5"/>
<text text-anchor="middle" x="64" y="-175.5" font-family="Helvetica,sans-Serif" font-size="10.00" fill="#000000">sys/include/iolist.h</text>
</g>
<!-- Node1 -->
<g id="node2" class="node">
<title>Node1</title>
<g id="a_node2"><a xlink:href="unistd_8h_source.html" target="_top" xlink:title="unistd.h">
<polygon fill="#ffffff" stroke="#000000" points="37,-112.5 37,-131.5 91,-131.5 91,-112.5 37,-112.5"/>
<text text-anchor="middle" x="64" y="-119.5" font-family="Helvetica,sans-Serif" font-size="10.00" fill="#000000">unistd.h</text>
</a>
</g>
</g>
<!-- Node0&#45;&gt;Node1 -->
<g id="edge1" class="edge">
<title>Node0&#45;&gt;Node1</title>
<path fill="none" stroke="#191970" d="M64,-168.2455C64,-160.9382 64,-150.6944 64,-141.7046"/>
<polygon fill="#191970" stroke="#191970" points="67.5001,-141.6426 64,-131.6427 60.5001,-141.6427 67.5001,-141.6426"/>
</g>
<!-- Node2 -->
<g id="node3" class="node">
<title>Node2</title>
<polygon fill="#ffffff" stroke="#bfbfbf" points="0,-.5 0,-19.5 56,-19.5 56,-.5 0,-.5"/>
<text text-anchor="middle" x="28" y="-7.5" font-family="Helvetica,sans-Serif" font-size="10.00" fill="#000000">stddef.h</text>
</g>
<!-- Node1&#45;&gt;Node2 -->
<g id="edge2" class="edge">
<title>Node1&#45;&gt;Node2</title>
<path fill="none" stroke="#191970" d="M50.3664,-112.4516C39.8452,-104.1822 26.0909,-91.1795 20,-76 14.0308,-61.1237 16.8922,-42.9648 20.76,-29.4626"/>
<polygon fill="#191970" stroke="#191970" points="24.1434,-30.3769 23.9282,-19.7842 17.4908,-28.1991 24.1434,-30.3769"/>
</g>
<!-- Node3 -->
<g id="node4" class="node">
<title>Node3</title>
<polygon fill="#ffffff" stroke="#bfbfbf" points="87,-.5 87,-19.5 139,-19.5 139,-.5 87,-.5"/>
<text text-anchor="middle" x="113" y="-7.5" font-family="Helvetica,sans-Serif" font-size="10.00" fill="#000000">stdint.h</text>
</g>
<!-- Node1&#45;&gt;Node3 -->
<g id="edge3" class="edge">
<title>Node1&#45;&gt;Node3</title>
<path fill="none" stroke="#191970" d="M77.3296,-112.3229C87.6743,-103.9788 101.3397,-90.9384 108,-76 114.4341,-61.569 115.399,-43.5999 114.9136,-30.0566"/>
<polygon fill="#191970" stroke="#191970" points="118.3945,-29.6478 114.2531,-19.896 111.4093,-30.102 118.3945,-29.6478"/>
</g>
<!-- Node4 -->
<g id="node5" class="node">
<title>Node4</title>
<g id="a_node5"><a xlink:href="cpu_2avr8__common_2avr__libc__extra_2include_2sys_2types_8h_source.html" target="_top" xlink:title="sys/types.h">
<polygon fill="#ffffff" stroke="#000000" points="29.5,-56.5 29.5,-75.5 98.5,-75.5 98.5,-56.5 29.5,-56.5"/>
<text text-anchor="middle" x="64" y="-63.5" font-family="Helvetica,sans-Serif" font-size="10.00" fill="#000000">sys/types.h</text>
</a>
</g>
</g>
<!-- Node1&#45;&gt;Node4 -->
<g id="edge4" class="edge">
<title>Node1&#45;&gt;Node4</title>
<path fill="none" stroke="#191970" d="M64,-112.2455C64,-104.9382 64,-94.6944 64,-85.7046"/>
<polygon fill="#191970" stroke="#191970" points="67.5001,-85.6426 64,-75.6427 60.5001,-85.6427 67.5001,-85.6426"/>
</g>
<!-- Node4&#45;&gt;Node2 -->
<g id="edge6" class="edge">
<title>Node4&#45;&gt;Node2</title>
<path fill="none" stroke="#191970" d="M57.7293,-56.2455C52.7736,-48.5367 45.717,-37.5598 39.7224,-28.2348"/>
<polygon fill="#191970" stroke="#191970" points="42.5506,-26.1618 34.1989,-19.6427 36.6624,-29.9471 42.5506,-26.1618"/>
</g>
<!-- Node4&#45;&gt;Node3 -->
<g id="edge5" class="edge">
<title>Node4&#45;&gt;Node3</title>
<path fill="none" stroke="#191970" d="M72.5351,-56.2455C79.4912,-48.2958 89.4883,-36.8706 97.8051,-27.3656"/>
<polygon fill="#191970" stroke="#191970" points="100.6116,-29.4732 104.5627,-19.6427 95.3436,-24.8637 100.6116,-29.4732"/>
</g>
</g>
</svg>
