<?xml version="1.0" encoding="UTF-8" standalone="no"?>
<!DOCTYPE svg PUBLIC "-//W3C//DTD SVG 1.1//EN"
 "http://www.w3.org/Graphics/SVG/1.1/DTD/svg11.dtd">
<!-- Generated by graphviz version 2.40.1 (0)
 -->
<!-- Title: boards/common/iotlab/include/board_common.h Pages: 1 -->
<svg width="985pt" height="319pt"
 viewBox="0.00 0.00 984.50 319.00" xmlns="http://www.w3.org/2000/svg" xmlns:xlink="http://www.w3.org/1999/xlink">
<g id="graph0" class="graph" transform="scale(1 1) rotate(0) translate(4 315)">
<title>boards/common/iotlab/include/board_common.h</title>
<polygon fill="#ffffff" stroke="transparent" points="-4,4 -4,-315 980.5,-315 980.5,4 -4,4"/>
<!-- Node0 -->
<g id="node1" class="node">
<title>Node0</title>
<polygon fill="#bfbfbf" stroke="#000000" points="28.5,-280.5 28.5,-310.5 167.5,-310.5 167.5,-280.5 28.5,-280.5"/>
<text text-anchor="start" x="36.5" y="-298.5" font-family="Helvetica,sans-Serif" font-size="10.00" fill="#000000">boards/common/iotlab</text>
<text text-anchor="middle" x="98" y="-287.5" font-family="Helvetica,sans-Serif" font-size="10.00" fill="#000000">/include/board_common.h</text>
</g>
<!-- Node1 -->
<g id="node2" class="node">
<title>Node1</title>
<polygon fill="#ffffff" stroke="#bfbfbf" points="690,-.5 690,-19.5 742,-19.5 742,-.5 690,-.5"/>
<text text-anchor="middle" x="716" y="-7.5" font-family="Helvetica,sans-Serif" font-size="10.00" fill="#000000">stdint.h</text>
</g>
<!-- Node0&#45;&gt;Node1 -->
<g id="edge1" class="edge">
<title>Node0&#45;&gt;Node1</title>
<path fill="none" stroke="#191970" d="M64.293,-280.4982C48.4682,-271.8952 30.5834,-259.6656 19,-244 .8519,-219.4562 0,-208.5246 0,-178 0,-178 0,-178 0,-122 0,-85.7294 16.2635,-73.5599 48,-56 103.4029,-25.3453 548.3525,-13.5504 679.6527,-10.7171"/>
<polygon fill="#191970" stroke="#191970" points="680.0431,-14.2098 689.9669,-10.4992 679.8952,-7.2113 680.0431,-14.2098"/>
</g>
<!-- Node2 -->
<g id="node3" class="node">
<title>Node2</title>
<polygon fill="#ffffff" stroke="#bfbfbf" points="28,-224.5 28,-243.5 70,-243.5 70,-224.5 28,-224.5"/>
<text text-anchor="middle" x="49" y="-231.5" font-family="Helvetica,sans-Serif" font-size="10.00" fill="#000000">cpu.h</text>
</g>
<!-- Node0&#45;&gt;Node2 -->
<g id="edge2" class="edge">
<title>Node0&#45;&gt;Node2</title>
<path fill="none" stroke="#191970" d="M85.8876,-280.2977C79.0151,-271.672 70.3777,-260.8312 63.189,-251.8087"/>
<polygon fill="#191970" stroke="#191970" points="65.8144,-249.487 56.8455,-243.8469 60.3396,-253.849 65.8144,-249.487"/>
</g>
<!-- Node3 -->
<g id="node4" class="node">
<title>Node3</title>
<polygon fill="#ffffff" stroke="#bfbfbf" points="57.5,-56.5 57.5,-75.5 138.5,-75.5 138.5,-56.5 57.5,-56.5"/>
<text text-anchor="middle" x="98" y="-63.5" font-family="Helvetica,sans-Serif" font-size="10.00" fill="#000000">periph_conf.h</text>
</g>
<!-- Node0&#45;&gt;Node3 -->
<g id="edge3" class="edge">
<title>Node0&#45;&gt;Node3</title>
<path fill="none" stroke="#191970" d="M98,-280.4419C98,-240.3599 98,-131.0534 98,-85.9113"/>
<polygon fill="#191970" stroke="#191970" points="101.5001,-85.8981 98,-75.8981 94.5001,-85.8982 101.5001,-85.8981"/>
</g>
<!-- Node4 -->
<g id="node5" class="node">
<title>Node4</title>
<g id="a_node5"><a xlink:href="iotlab_2include_2periph__conf__common_8h.html" target="_top" xlink:title="Peripheral MCU configuration for the iotlab&#45;m3 board. ">
<polygon fill="#ffffff" stroke="#000000" points="126,-224.5 126,-243.5 252,-243.5 252,-224.5 126,-224.5"/>
<text text-anchor="middle" x="189" y="-231.5" font-family="Helvetica,sans-Serif" font-size="10.00" fill="#000000">periph_conf_common.h</text>
</a>
</g>
</g>
<!-- Node0&#45;&gt;Node4 -->
<g id="edge4" class="edge">
<title>Node0&#45;&gt;Node4</title>
<path fill="none" stroke="#191970" d="M120.4944,-280.2977C134.3967,-270.9022 152.1876,-258.8787 166.1546,-249.4395"/>
<polygon fill="#191970" stroke="#191970" points="168.376,-252.1626 174.7015,-243.6633 164.4564,-246.3629 168.376,-252.1626"/>
</g>
<!-- Node7 -->
<g id="node8" class="node">
<title>Node7</title>
<g id="a_node8"><a xlink:href="stm32__leds_8h.html" target="_top" xlink:title="Common LED macros. ">
<polygon fill="#ffffff" stroke="#000000" points="309,-224.5 309,-243.5 387,-243.5 387,-224.5 309,-224.5"/>
<text text-anchor="middle" x="348" y="-231.5" font-family="Helvetica,sans-Serif" font-size="10.00" fill="#000000">stm32_leds.h</text>
</a>
</g>
</g>
<!-- Node0&#45;&gt;Node7 -->
<g id="edge7" class="edge">
<title>Node0&#45;&gt;Node7</title>
<path fill="none" stroke="#191970" d="M159.1569,-280.4554C202.3336,-269.8339 259.4021,-255.7951 299.46,-245.9408"/>
<polygon fill="#191970" stroke="#191970" points="300.3845,-249.3178 309.2589,-243.5303 298.7123,-242.5205 300.3845,-249.3178"/>
</g>
<!-- Node5 -->
<g id="node6" class="node">
<title>Node5</title>
<polygon fill="#ffffff" stroke="#bfbfbf" points="156.5,-56.5 156.5,-75.5 233.5,-75.5 233.5,-56.5 156.5,-56.5"/>
<text text-anchor="middle" x="195" y="-63.5" font-family="Helvetica,sans-Serif" font-size="10.00" fill="#000000">periph_cpu.h</text>
</g>
<!-- Node4&#45;&gt;Node5 -->
<g id="edge5" class="edge">
<title>Node4&#45;&gt;Node5</title>
<path fill="none" stroke="#191970" d="M179.0638,-224.4913C170.824,-215.8654 159.7233,-202.3368 155,-188 152.2186,-179.5575 153.3486,-176.7341 155,-168 160.7437,-137.6211 175.3187,-104.7001 185.1953,-84.7114"/>
<polygon fill="#191970" stroke="#191970" points="188.3322,-86.264 189.7336,-75.7622 182.0891,-83.0979 188.3322,-86.264"/>
</g>
<!-- Node6 -->
<g id="node7" class="node">
<title>Node6</title>
<polygon fill="#ffffff" stroke="#bfbfbf" points="164,-168.5 164,-187.5 226,-187.5 226,-168.5 164,-168.5"/>
<text text-anchor="middle" x="195" y="-175.5" font-family="Helvetica,sans-Serif" font-size="10.00" fill="#000000">clk_conf.h</text>
</g>
<!-- Node4&#45;&gt;Node6 -->
<g id="edge6" class="edge">
<title>Node4&#45;&gt;Node6</title>
<path fill="none" stroke="#191970" d="M190.0451,-224.2455C190.828,-216.9382 191.9256,-206.6944 192.8888,-197.7046"/>
<polygon fill="#191970" stroke="#191970" points="196.3815,-197.9587 193.9669,-187.6427 189.4214,-197.2129 196.3815,-197.9587"/>
</g>
<!-- Node8 -->
<g id="node9" class="node">
<title>Node8</title>
<g id="a_node9"><a xlink:href="gpio__ll_8h.html" target="_top" xlink:title="Peripheral GPIO Low&#45;Level API. ">
<polygon fill="#ffffff" stroke="#000000" points="303.5,-168.5 303.5,-187.5 392.5,-187.5 392.5,-168.5 303.5,-168.5"/>
<text text-anchor="middle" x="348" y="-175.5" font-family="Helvetica,sans-Serif" font-size="10.00" fill="#000000">periph/gpio_ll.h</text>
</a>
</g>
</g>
<!-- Node7&#45;&gt;Node8 -->
<g id="edge8" class="edge">
<title>Node7&#45;&gt;Node8</title>
<path fill="none" stroke="#191970" d="M348,-224.2455C348,-216.9382 348,-206.6944 348,-197.7046"/>
<polygon fill="#191970" stroke="#191970" points="351.5001,-197.6426 348,-187.6427 344.5001,-197.6427 351.5001,-197.6426"/>
</g>
<!-- Node17 -->
<g id="node18" class="node">
<title>Node17</title>
<g id="a_node18"><a xlink:href="kernel__defines_8h.html" target="_top" xlink:title="Common macros and compiler attributes/pragmas configuration. ">
<polygon fill="#ffffff" stroke="#000000" points="696.5,-168.5 696.5,-187.5 791.5,-187.5 791.5,-168.5 696.5,-168.5"/>
<text text-anchor="middle" x="744" y="-175.5" font-family="Helvetica,sans-Serif" font-size="10.00" fill="#000000">kernel_defines.h</text>
</a>
</g>
</g>
<!-- Node7&#45;&gt;Node17 -->
<g id="edge25" class="edge">
<title>Node7&#45;&gt;Node17</title>
<path fill="none" stroke="#191970" d="M387.0538,-228.4772C457.1314,-218.5673 604.5242,-197.7238 686.2876,-186.1613"/>
<polygon fill="#191970" stroke="#191970" points="686.9959,-189.5961 696.4073,-184.7303 686.0157,-182.6651 686.9959,-189.5961"/>
</g>
<!-- Node8&#45;&gt;Node1 -->
<g id="edge12" class="edge">
<title>Node8&#45;&gt;Node1</title>
<path fill="none" stroke="#191970" d="M346.1033,-168.3876C342.1638,-145.3038 335.8718,-86.4068 367,-56 389.1416,-34.3716 594.7953,-18.1677 679.651,-12.3474"/>
<polygon fill="#191970" stroke="#191970" points="680.1108,-15.8244 689.852,-11.6579 679.6387,-8.8403 680.1108,-15.8244"/>
</g>
<!-- Node8&#45;&gt;Node5 -->
<g id="edge23" class="edge">
<title>Node8&#45;&gt;Node5</title>
<path fill="none" stroke="#191970" d="M303.4659,-170.823C262.5518,-163.213 206.3053,-149.8275 193,-132 183.1651,-118.8224 184.9791,-99.6917 188.4758,-85.4159"/>
<polygon fill="#191970" stroke="#191970" points="191.8915,-86.2036 191.3126,-75.6245 185.168,-84.2555 191.8915,-86.2036"/>
</g>
<!-- Node9 -->
<g id="node10" class="node">
<title>Node9</title>
<g id="a_node10"><a xlink:href="assert_8h.html" target="_top" xlink:title="POSIX.1&#45;2008 compliant version of the assert macro. ">
<polygon fill="#ffffff" stroke="#000000" points="689,-56.5 689,-75.5 743,-75.5 743,-56.5 689,-56.5"/>
<text text-anchor="middle" x="716" y="-63.5" font-family="Helvetica,sans-Serif" font-size="10.00" fill="#000000">assert.h</text>
</a>
</g>
</g>
<!-- Node8&#45;&gt;Node9 -->
<g id="edge9" class="edge">
<title>Node8&#45;&gt;Node9</title>
<path fill="none" stroke="#191970" d="M376.2674,-168.3494C401.0441,-159.6326 437.8631,-146.0502 469,-132 486.3962,-124.1502 489.0755,-118.5543 507,-112 509.0358,-111.2556 619.2629,-87.131 678.7921,-74.1242"/>
<polygon fill="#191970" stroke="#191970" points="679.5612,-77.5388 688.5838,-71.9851 678.0672,-70.7 679.5612,-77.5388"/>
</g>
<!-- Node10 -->
<g id="node11" class="node">
<title>Node10</title>
<polygon fill="#ffffff" stroke="#bfbfbf" points="256,-56.5 256,-75.5 316,-75.5 316,-56.5 256,-56.5"/>
<text text-anchor="middle" x="286" y="-63.5" font-family="Helvetica,sans-Serif" font-size="10.00" fill="#000000">stdbool.h</text>
</g>
<!-- Node8&#45;&gt;Node10 -->
<g id="edge11" class="edge">
<title>Node8&#45;&gt;Node10</title>
<path fill="none" stroke="#191970" d="M342.7139,-168.4509C332.4188,-149.8533 309.5223,-108.4919 296.1837,-84.3964"/>
<polygon fill="#191970" stroke="#191970" points="299.178,-82.5787 291.2727,-75.5249 293.0538,-85.969 299.178,-82.5787"/>
</g>
<!-- Node11 -->
<g id="node12" class="node">
<title>Node11</title>
<g id="a_node12"><a xlink:href="architecture_8h.html" target="_top" xlink:title="Platform&#45;independent access to architecture details. ">
<polygon fill="#ffffff" stroke="#000000" points="376.5,-112.5 376.5,-131.5 459.5,-131.5 459.5,-112.5 376.5,-112.5"/>
<text text-anchor="middle" x="418" y="-119.5" font-family="Helvetica,sans-Serif" font-size="10.00" fill="#000000">architecture.h</text>
</a>
</g>
</g>
<!-- Node8&#45;&gt;Node11 -->
<g id="edge13" class="edge">
<title>Node8&#45;&gt;Node11</title>
<path fill="none" stroke="#191970" d="M360.1931,-168.2455C370.6321,-159.8943 385.8655,-147.7076 398.074,-137.9408"/>
<polygon fill="#191970" stroke="#191970" points="400.3244,-140.6227 405.9467,-131.6427 395.9515,-135.1566 400.3244,-140.6227"/>
</g>
<!-- Node15 -->
<g id="node16" class="node">
<title>Node15</title>
<g id="a_node16"><a xlink:href="drivers_2include_2periph_2gpio_8h.html" target="_top" xlink:title="Low&#45;level GPIO peripheral driver interface definitions. ">
<polygon fill="#ffffff" stroke="#000000" points="202,-112.5 202,-131.5 282,-131.5 282,-112.5 202,-112.5"/>
<text text-anchor="middle" x="242" y="-119.5" font-family="Helvetica,sans-Serif" font-size="10.00" fill="#000000">periph/gpio.h</text>
</a>
</g>
</g>
<!-- Node8&#45;&gt;Node15 -->
<g id="edge18" class="edge">
<title>Node8&#45;&gt;Node15</title>
<path fill="none" stroke="#191970" d="M329.5362,-168.2455C312.8926,-159.4527 288.2007,-146.4079 269.2808,-136.4125"/>
<polygon fill="#191970" stroke="#191970" points="270.7291,-133.2193 260.2522,-131.6427 267.4592,-139.4086 270.7291,-133.2193"/>
</g>
<!-- Node16 -->
<g id="node17" class="node">
<title>Node16</title>
<polygon fill="#ffffff" stroke="#bfbfbf" points="516,-112.5 516,-131.5 596,-131.5 596,-112.5 516,-112.5"/>
<text text-anchor="middle" x="556" y="-119.5" font-family="Helvetica,sans-Serif" font-size="10.00" fill="#000000">gpio_ll_arch.h</text>
</g>
<!-- Node8&#45;&gt;Node16 -->
<g id="edge24" class="edge">
<title>Node8&#45;&gt;Node16</title>
<path fill="none" stroke="#191970" d="M383.7565,-168.3733C418.9426,-158.9001 472.7881,-144.4032 510.8956,-134.1435"/>
<polygon fill="#191970" stroke="#191970" points="511.9639,-137.4806 520.7101,-131.5011 510.144,-130.7213 511.9639,-137.4806"/>
</g>
<!-- Node9&#45;&gt;Node1 -->
<g id="edge10" class="edge">
<title>Node9&#45;&gt;Node1</title>
<path fill="none" stroke="#191970" d="M716,-56.2455C716,-48.9382 716,-38.6944 716,-29.7046"/>
<polygon fill="#191970" stroke="#191970" points="719.5001,-29.6426 716,-19.6427 712.5001,-29.6427 719.5001,-29.6426"/>
</g>
<!-- Node11&#45;&gt;Node1 -->
<g id="edge14" class="edge">
<title>Node11&#45;&gt;Node1</title>
<path fill="none" stroke="#191970" d="M459.5079,-114.0541C521.9959,-102.0092 633.8513,-80.0925 642,-76 665.6233,-64.1357 687.5326,-42.7567 701.2839,-27.5469"/>
<polygon fill="#191970" stroke="#191970" points="704.0863,-29.6595 708.0433,-19.8313 698.821,-25.0467 704.0863,-29.6595"/>
</g>
<!-- Node12 -->
<g id="node13" class="node">
<title>Node12</title>
<g id="a_node13"><a xlink:href="inttypes_8h.html" target="_top" xlink:title="Adds include for missing inttype definitions. ">
<polygon fill="#ffffff" stroke="#000000" points="444.5,-56.5 444.5,-75.5 507.5,-75.5 507.5,-56.5 444.5,-56.5"/>
<text text-anchor="middle" x="476" y="-63.5" font-family="Helvetica,sans-Serif" font-size="10.00" fill="#000000">inttypes.h</text>
</a>
</g>
</g>
<!-- Node11&#45;&gt;Node12 -->
<g id="edge15" class="edge">
<title>Node11&#45;&gt;Node12</title>
<path fill="none" stroke="#191970" d="M428.1028,-112.2455C436.5028,-104.1352 448.6494,-92.4075 458.6084,-82.7919"/>
<polygon fill="#191970" stroke="#191970" points="461.25,-85.1066 466.0129,-75.6427 456.3878,-80.0707 461.25,-85.1066"/>
</g>
<!-- Node13 -->
<g id="node14" class="node">
<title>Node13</title>
<polygon fill="#ffffff" stroke="#bfbfbf" points="376,-56.5 376,-75.5 426,-75.5 426,-56.5 376,-56.5"/>
<text text-anchor="middle" x="401" y="-63.5" font-family="Helvetica,sans-Serif" font-size="10.00" fill="#000000">limits.h</text>
</g>
<!-- Node11&#45;&gt;Node13 -->
<g id="edge16" class="edge">
<title>Node11&#45;&gt;Node13</title>
<path fill="none" stroke="#191970" d="M415.0388,-112.2455C412.7962,-104.8579 409.6423,-94.4689 406.8919,-85.4087"/>
<polygon fill="#191970" stroke="#191970" points="410.1812,-84.1948 403.9272,-75.6427 403.483,-86.2282 410.1812,-84.1948"/>
</g>
<!-- Node14 -->
<g id="node15" class="node">
<title>Node14</title>
<polygon fill="#ffffff" stroke="#bfbfbf" points="525.5,-56.5 525.5,-75.5 632.5,-75.5 632.5,-56.5 525.5,-56.5"/>
<text text-anchor="middle" x="579" y="-63.5" font-family="Helvetica,sans-Serif" font-size="10.00" fill="#000000">architecture_arch.h</text>
</g>
<!-- Node11&#45;&gt;Node14 -->
<g id="edge17" class="edge">
<title>Node11&#45;&gt;Node14</title>
<path fill="none" stroke="#191970" d="M445.6769,-112.3733C472.3328,-103.1016 512.8238,-89.0178 542.1884,-78.804"/>
<polygon fill="#191970" stroke="#191970" points="543.3891,-82.0921 551.6843,-75.5011 541.0895,-75.4807 543.3891,-82.0921"/>
</g>
<!-- Node15&#45;&gt;Node3 -->
<g id="edge22" class="edge">
<title>Node15&#45;&gt;Node3</title>
<path fill="none" stroke="#191970" d="M217.2455,-112.3733C193.7151,-103.2226 158.1313,-89.3844 131.9574,-79.2057"/>
<polygon fill="#191970" stroke="#191970" points="133.0201,-75.8636 122.4315,-75.5011 130.4829,-82.3877 133.0201,-75.8636"/>
</g>
<!-- Node15&#45;&gt;Node5 -->
<g id="edge21" class="edge">
<title>Node15&#45;&gt;Node5</title>
<path fill="none" stroke="#191970" d="M233.8132,-112.2455C227.1411,-104.2958 217.5521,-92.8706 209.5747,-83.3656"/>
<polygon fill="#191970" stroke="#191970" points="212.2026,-81.0524 203.093,-75.6427 206.8408,-85.5525 212.2026,-81.0524"/>
</g>
<!-- Node15&#45;&gt;Node10 -->
<g id="edge20" class="edge">
<title>Node15&#45;&gt;Node10</title>
<path fill="none" stroke="#191970" d="M249.6642,-112.2455C255.8473,-104.3761 264.7063,-93.101 272.1289,-83.6542"/>
<polygon fill="#191970" stroke="#191970" points="274.9975,-85.6683 278.4236,-75.6427 269.4932,-81.3435 274.9975,-85.6683"/>
</g>
<!-- Node15&#45;&gt;Node13 -->
<g id="edge19" class="edge">
<title>Node15&#45;&gt;Node13</title>
<path fill="none" stroke="#191970" d="M269.3331,-112.3733C296.0994,-102.9461 336.991,-88.544 366.0955,-78.2934"/>
<polygon fill="#191970" stroke="#191970" points="367.5867,-81.479 375.856,-74.8557 365.2612,-74.8766 367.5867,-81.479"/>
</g>
<!-- Node18 -->
<g id="node19" class="node">
<title>Node18</title>
<g id="a_node19"><a xlink:href="modules_8h.html" target="_top" xlink:title="Common macros and compiler attributes/pragmas configuration. ">
<polygon fill="#ffffff" stroke="#000000" points="614.5,-112.5 614.5,-131.5 679.5,-131.5 679.5,-112.5 614.5,-112.5"/>
<text text-anchor="middle" x="647" y="-119.5" font-family="Helvetica,sans-Serif" font-size="10.00" fill="#000000">modules.h</text>
</a>
</g>
</g>
<!-- Node17&#45;&gt;Node18 -->
<g id="edge26" class="edge">
<title>Node17&#45;&gt;Node18</title>
<path fill="none" stroke="#191970" d="M727.1039,-168.2455C712.082,-159.5731 689.8957,-146.7645 672.679,-136.825"/>
<polygon fill="#191970" stroke="#191970" points="674.1128,-133.6114 663.7025,-131.6427 670.6129,-139.6737 674.1128,-133.6114"/>
</g>
<!-- Node19 -->
<g id="node20" class="node">
<title>Node19</title>
<g id="a_node20"><a xlink:href="riot__version_8h.html" target="_top" xlink:title="Common macros and compiler attributes/pragmas configuration. ">
<polygon fill="#ffffff" stroke="#000000" points="808.5,-112.5 808.5,-131.5 889.5,-131.5 889.5,-112.5 808.5,-112.5"/>
<text text-anchor="middle" x="849" y="-119.5" font-family="Helvetica,sans-Serif" font-size="10.00" fill="#000000">riot_version.h</text>
</a>
</g>
</g>
<!-- Node17&#45;&gt;Node19 -->
<g id="edge27" class="edge">
<title>Node17&#45;&gt;Node19</title>
<path fill="none" stroke="#191970" d="M762.2896,-168.2455C778.7762,-159.4527 803.2352,-146.4079 821.9765,-136.4125"/>
<polygon fill="#191970" stroke="#191970" points="823.7435,-139.4368 830.92,-131.6427 820.4494,-133.2604 823.7435,-139.4368"/>
</g>
<!-- Node20 -->
<g id="node21" class="node">
<title>Node20</title>
<g id="a_node21"><a xlink:href="compiler__hints_8h.html" target="_top" xlink:title="Common macros and compiler attributes/pragmas configuration. ">
<polygon fill="#ffffff" stroke="#000000" points="697.5,-112.5 697.5,-131.5 790.5,-131.5 790.5,-112.5 697.5,-112.5"/>
<text text-anchor="middle" x="744" y="-119.5" font-family="Helvetica,sans-Serif" font-size="10.00" fill="#000000">compiler_hints.h</text>
</a>
</g>
</g>
<!-- Node17&#45;&gt;Node20 -->
<g id="edge29" class="edge">
<title>Node17&#45;&gt;Node20</title>
<path fill="none" stroke="#191970" d="M744,-168.2455C744,-160.9382 744,-150.6944 744,-141.7046"/>
<polygon fill="#191970" stroke="#191970" points="747.5001,-141.6426 744,-131.6427 740.5001,-141.6427 747.5001,-141.6426"/>
</g>
<!-- Node21 -->
<g id="node22" class="node">
<title>Node21</title>
<g id="a_node22"><a xlink:href="container_8h.html" target="_top" xlink:title="Common macros and compiler attributes/pragmas configuration. ">
<polygon fill="#ffffff" stroke="#000000" points="907.5,-112.5 907.5,-131.5 976.5,-131.5 976.5,-112.5 907.5,-112.5"/>
<text text-anchor="middle" x="942" y="-119.5" font-family="Helvetica,sans-Serif" font-size="10.00" fill="#000000">container.h</text>
</a>
</g>
</g>
<!-- Node17&#45;&gt;Node21 -->
<g id="edge32" class="edge">
<title>Node17&#45;&gt;Node21</title>
<path fill="none" stroke="#191970" d="M778.0374,-168.3733C811.3894,-158.9404 862.3527,-144.5265 898.6002,-134.2747"/>
<polygon fill="#191970" stroke="#191970" points="899.7368,-137.5906 908.4067,-131.5011 897.8316,-130.8548 899.7368,-137.5906"/>
</g>
<!-- Node19&#45;&gt;Node1 -->
<g id="edge28" class="edge">
<title>Node19&#45;&gt;Node1</title>
<path fill="none" stroke="#191970" d="M837.6605,-112.4509C814.8888,-93.2747 763.3768,-49.8962 735.2361,-26.1988"/>
<polygon fill="#191970" stroke="#191970" points="737.2144,-23.2891 727.3108,-19.5249 732.7055,-28.6435 737.2144,-23.2891"/>
</g>
<!-- Node20&#45;&gt;Node1 -->
<g id="edge31" class="edge">
<title>Node20&#45;&gt;Node1</title>
<path fill="none" stroke="#191970" d="M747.7954,-112.3188C752.3572,-99.1983 758.6216,-75.2048 752,-56 748.2813,-45.2144 740.8787,-35.0249 733.7481,-26.9904"/>
<polygon fill="#191970" stroke="#191970" points="736.2791,-24.5729 726.8548,-19.7321 731.2033,-29.3934 736.2791,-24.5729"/>
</g>
<!-- Node20&#45;&gt;Node9 -->
<g id="edge30" class="edge">
<title>Node20&#45;&gt;Node9</title>
<path fill="none" stroke="#191970" d="M739.1228,-112.2455C735.3487,-104.6973 730.0079,-94.0158 725.4099,-84.8197"/>
<polygon fill="#191970" stroke="#191970" points="728.424,-83.0217 720.8213,-75.6427 722.163,-86.1522 728.424,-83.0217"/>
</g>
<!-- Node21&#45;&gt;Node1 -->
<g id="edge34" class="edge">
<title>Node21&#45;&gt;Node1</title>
<path fill="none" stroke="#191970" d="M942.1183,-112.3701C941.7437,-97.9523 938.8105,-70.8649 923,-56 898.723,-33.1749 805.2703,-19.6287 752.6157,-13.6521"/>
<polygon fill="#191970" stroke="#191970" points="752.6723,-10.1373 742.3499,-12.524 751.9077,-17.0954 752.6723,-10.1373"/>
</g>
<!-- Node22 -->
<g id="node23" class="node">
<title>Node22</title>
<polygon fill="#ffffff" stroke="#bfbfbf" points="858,-56.5 858,-75.5 914,-75.5 914,-56.5 858,-56.5"/>
<text text-anchor="middle" x="886" y="-63.5" font-family="Helvetica,sans-Serif" font-size="10.00" fill="#000000">stddef.h</text>
</g>
<!-- Node21&#45;&gt;Node22 -->
<g id="edge33" class="edge">
<title>Node21&#45;&gt;Node22</title>
<path fill="none" stroke="#191970" d="M932.2455,-112.2455C924.1352,-104.1352 912.4075,-92.4075 902.7919,-82.7919"/>
<polygon fill="#191970" stroke="#191970" points="905.1887,-80.2389 895.6427,-75.6427 900.2389,-85.1887 905.1887,-80.2389"/>
</g>
</g>
</svg>
