<?xml version="1.0" encoding="UTF-8" standalone="no"?>
<!DOCTYPE svg PUBLIC "-//W3C//DTD SVG 1.1//EN"
 "http://www.w3.org/Graphics/SVG/1.1/DTD/svg11.dtd">
<!-- Generated by graphviz version 2.40.1 (0)
 -->
<!-- Title: pkg/wakaama/include/objects/ipso_sensor_base.h Pages: 1 -->
<svg width="812pt" height="117pt"
 viewBox="0.00 0.00 812.00 117.00" xmlns="http://www.w3.org/2000/svg" xmlns:xlink="http://www.w3.org/1999/xlink">
<g id="graph0" class="graph" transform="scale(1 1) rotate(0) translate(4 113)">
<title>pkg/wakaama/include/objects/ipso_sensor_base.h</title>
<polygon fill="#ffffff" stroke="transparent" points="-4,4 -4,-113 808,-113 808,4 -4,4"/>
<!-- Node50 -->
<g id="node1" class="node">
<title>Node50</title>
<polygon fill="#bfbfbf" stroke="#000000" points="338,-67.5 338,-108.5 455,-108.5 455,-67.5 338,-67.5"/>
<text text-anchor="start" x="346" y="-96.5" font-family="Helvetica,sans-Serif" font-size="10.00" fill="#000000">pkg/wakaama/include</text>
<text text-anchor="start" x="346" y="-85.5" font-family="Helvetica,sans-Serif" font-size="10.00" fill="#000000">/objects/ipso_sensor</text>
<text text-anchor="middle" x="396.5" y="-74.5" font-family="Helvetica,sans-Serif" font-size="10.00" fill="#000000">_base.h</text>
</g>
<!-- Node51 -->
<g id="node2" class="node">
<title>Node51</title>
<g id="a_node2"><a xlink:href="barometer_8h.html" target="_top" xlink:title="pkg/wakaama/include\l/objects/barometer.h">
<polygon fill="#ffffff" stroke="#000000" points="0,-.5 0,-30.5 117,-30.5 117,-.5 0,-.5"/>
<text text-anchor="start" x="8" y="-18.5" font-family="Helvetica,sans-Serif" font-size="10.00" fill="#000000">pkg/wakaama/include</text>
<text text-anchor="middle" x="58.5" y="-7.5" font-family="Helvetica,sans-Serif" font-size="10.00" fill="#000000">/objects/barometer.h</text>
</a>
</g>
</g>
<!-- Node50&#45;&gt;Node51 -->
<g id="edge1" class="edge">
<title>Node50&#45;&gt;Node51</title>
<path fill="none" stroke="#191970" d="M327.7963,-73.9456C272.9665,-62.6338 194.2253,-46.1755 125.5,-31 122.8186,-30.4079 120.0782,-29.7971 117.311,-29.1757"/>
<polygon fill="#191970" stroke="#191970" points="327.2475,-77.406 337.7482,-75.9964 328.6604,-70.5501 327.2475,-77.406"/>
</g>
<!-- Node52 -->
<g id="node3" class="node">
<title>Node52</title>
<g id="a_node3"><a xlink:href="current_8h.html" target="_top" xlink:title="pkg/wakaama/include\l/objects/current.h">
<polygon fill="#ffffff" stroke="#000000" points="135,-.5 135,-30.5 252,-30.5 252,-.5 135,-.5"/>
<text text-anchor="start" x="143" y="-18.5" font-family="Helvetica,sans-Serif" font-size="10.00" fill="#000000">pkg/wakaama/include</text>
<text text-anchor="middle" x="193.5" y="-7.5" font-family="Helvetica,sans-Serif" font-size="10.00" fill="#000000">/objects/current.h</text>
</a>
</g>
</g>
<!-- Node50&#45;&gt;Node52 -->
<g id="edge2" class="edge">
<title>Node50&#45;&gt;Node52</title>
<path fill="none" stroke="#191970" d="M329.0558,-63.9128C298.2601,-52.9143 262.7334,-40.2262 235.7775,-30.5991"/>
<polygon fill="#191970" stroke="#191970" points="328.2767,-67.351 338.8713,-67.4183 330.6311,-60.7588 328.2767,-67.351"/>
</g>
<!-- Node53 -->
<g id="node4" class="node">
<title>Node53</title>
<g id="a_node4"><a xlink:href="humidity_8h.html" target="_top" xlink:title="pkg/wakaama/include\l/objects/humidity.h">
<polygon fill="#ffffff" stroke="#000000" points="270,-.5 270,-30.5 387,-30.5 387,-.5 270,-.5"/>
<text text-anchor="start" x="278" y="-18.5" font-family="Helvetica,sans-Serif" font-size="10.00" fill="#000000">pkg/wakaama/include</text>
<text text-anchor="middle" x="328.5" y="-7.5" font-family="Helvetica,sans-Serif" font-size="10.00" fill="#000000">/objects/humidity.h</text>
</a>
</g>
</g>
<!-- Node50&#45;&gt;Node53 -->
<g id="edge3" class="edge">
<title>Node50&#45;&gt;Node53</title>
<path fill="none" stroke="#191970" d="M370.2328,-59.9945C360.8493,-49.9901 350.6361,-39.101 342.6619,-30.5991"/>
<polygon fill="#191970" stroke="#191970" points="367.8019,-62.5189 377.1958,-67.4183 372.9075,-57.7301 367.8019,-62.5189"/>
</g>
<!-- Node54 -->
<g id="node5" class="node">
<title>Node54</title>
<g id="a_node5"><a xlink:href="illuminance_8h.html" target="_top" xlink:title="pkg/wakaama/include\l/objects/illuminance.h">
<polygon fill="#ffffff" stroke="#000000" points="405.5,-.5 405.5,-30.5 523.5,-30.5 523.5,-.5 405.5,-.5"/>
<text text-anchor="start" x="413.5" y="-18.5" font-family="Helvetica,sans-Serif" font-size="10.00" fill="#000000">pkg/wakaama/include</text>
<text text-anchor="middle" x="464.5" y="-7.5" font-family="Helvetica,sans-Serif" font-size="10.00" fill="#000000">/objects/illuminance.h</text>
</a>
</g>
</g>
<!-- Node50&#45;&gt;Node54 -->
<g id="edge4" class="edge">
<title>Node50&#45;&gt;Node54</title>
<path fill="none" stroke="#191970" d="M422.7672,-59.9945C432.1507,-49.9901 442.3639,-39.101 450.3381,-30.5991"/>
<polygon fill="#191970" stroke="#191970" points="420.0925,-57.7301 415.8042,-67.4183 425.1981,-62.5189 420.0925,-57.7301"/>
</g>
<!-- Node55 -->
<g id="node6" class="node">
<title>Node55</title>
<g id="a_node6"><a xlink:href="temperature_8h.html" target="_top" xlink:title="pkg/wakaama/include\l/objects/temperature.h">
<polygon fill="#ffffff" stroke="#000000" points="542,-.5 542,-30.5 669,-30.5 669,-.5 542,-.5"/>
<text text-anchor="start" x="550" y="-18.5" font-family="Helvetica,sans-Serif" font-size="10.00" fill="#000000">pkg/wakaama/include</text>
<text text-anchor="middle" x="605.5" y="-7.5" font-family="Helvetica,sans-Serif" font-size="10.00" fill="#000000">/objects/temperature.h</text>
</a>
</g>
</g>
<!-- Node50&#45;&gt;Node55 -->
<g id="edge5" class="edge">
<title>Node50&#45;&gt;Node55</title>
<path fill="none" stroke="#191970" d="M465.0118,-64.2339C496.9677,-53.1488 534.0381,-40.2894 562.0731,-30.5643"/>
<polygon fill="#191970" stroke="#191970" points="463.575,-61.0277 455.2743,-67.6118 465.8691,-67.6411 463.575,-61.0277"/>
</g>
<!-- Node56 -->
<g id="node7" class="node">
<title>Node56</title>
<g id="a_node7"><a xlink:href="voltage_8h.html" target="_top" xlink:title="pkg/wakaama/include\l/objects/voltage.h">
<polygon fill="#ffffff" stroke="#000000" points="687,-.5 687,-30.5 804,-30.5 804,-.5 687,-.5"/>
<text text-anchor="start" x="695" y="-18.5" font-family="Helvetica,sans-Serif" font-size="10.00" fill="#000000">pkg/wakaama/include</text>
<text text-anchor="middle" x="745.5" y="-7.5" font-family="Helvetica,sans-Serif" font-size="10.00" fill="#000000">/objects/voltage.h</text>
</a>
</g>
</g>
<!-- Node50&#45;&gt;Node56 -->
<g id="edge6" class="edge">
<title>Node50&#45;&gt;Node56</title>
<path fill="none" stroke="#191970" d="M465.2053,-74.6692C522.3752,-63.4431 605.8552,-46.7415 678.5,-31 681.1837,-30.4185 683.926,-29.8163 686.6947,-29.2019"/>
<polygon fill="#191970" stroke="#191970" points="464.34,-71.2721 455.2001,-76.6306 465.6867,-78.1413 464.34,-71.2721"/>
</g>
</g>
</svg>
