<?xml version="1.0" encoding="UTF-8" standalone="no"?>
<!DOCTYPE svg PUBLIC "-//W3C//DTD SVG 1.1//EN"
 "http://www.w3.org/Graphics/SVG/1.1/DTD/svg11.dtd">
<!-- Generated by graphviz version 2.40.1 (0)
 -->
<!-- Title: sys/include/net/ipv4/addr.h Pages: 1 -->
<svg width="380pt" height="207pt"
 viewBox="0.00 0.00 379.50 207.00" xmlns="http://www.w3.org/2000/svg" xmlns:xlink="http://www.w3.org/1999/xlink">
<g id="graph0" class="graph" transform="scale(1 1) rotate(0) translate(4 203)">
<title>sys/include/net/ipv4/addr.h</title>
<polygon fill="#ffffff" stroke="transparent" points="-4,4 -4,-203 375.5,-203 375.5,4 -4,4"/>
<!-- Node0 -->
<g id="node1" class="node">
<title>Node0</title>
<polygon fill="#bfbfbf" stroke="#000000" points="61,-168.5 61,-198.5 171,-198.5 171,-168.5 61,-168.5"/>
<text text-anchor="start" x="69" y="-186.5" font-family="Helvetica,sans-Serif" font-size="10.00" fill="#000000">sys/include/net/ipv4</text>
<text text-anchor="middle" x="116" y="-175.5" font-family="Helvetica,sans-Serif" font-size="10.00" fill="#000000">/addr.h</text>
</g>
<!-- Node1 -->
<g id="node2" class="node">
<title>Node1</title>
<polygon fill="#ffffff" stroke="#bfbfbf" points="0,-112.5 0,-131.5 60,-131.5 60,-112.5 0,-112.5"/>
<text text-anchor="middle" x="30" y="-119.5" font-family="Helvetica,sans-Serif" font-size="10.00" fill="#000000">stdbool.h</text>
</g>
<!-- Node0&#45;&gt;Node1 -->
<g id="edge1" class="edge">
<title>Node0&#45;&gt;Node1</title>
<path fill="none" stroke="#191970" d="M94.7416,-168.2977C81.7282,-158.9917 65.1097,-147.1075 51.9683,-137.7099"/>
<polygon fill="#191970" stroke="#191970" points="53.6829,-134.6332 43.5129,-131.6633 49.6111,-140.3271 53.6829,-134.6332"/>
</g>
<!-- Node2 -->
<g id="node3" class="node">
<title>Node2</title>
<polygon fill="#ffffff" stroke="#bfbfbf" points="164,-.5 164,-19.5 216,-19.5 216,-.5 164,-.5"/>
<text text-anchor="middle" x="190" y="-7.5" font-family="Helvetica,sans-Serif" font-size="10.00" fill="#000000">stdint.h</text>
</g>
<!-- Node0&#45;&gt;Node2 -->
<g id="edge2" class="edge">
<title>Node0&#45;&gt;Node2</title>
<path fill="none" stroke="#191970" d="M110.799,-168.2241C106.5853,-153.6016 102.0873,-131.0182 107,-112 114.115,-84.4562 120.1994,-78.1906 138,-56 146.9561,-44.8352 158.7923,-34.1304 168.9095,-25.8612"/>
<polygon fill="#191970" stroke="#191970" points="171.2361,-28.4834 176.9027,-19.5313 166.8903,-22.9957 171.2361,-28.4834"/>
</g>
<!-- Node3 -->
<g id="node4" class="node">
<title>Node3</title>
<polygon fill="#ffffff" stroke="#bfbfbf" points="116,-112.5 116,-131.5 172,-131.5 172,-112.5 116,-112.5"/>
<text text-anchor="middle" x="144" y="-119.5" font-family="Helvetica,sans-Serif" font-size="10.00" fill="#000000">stddef.h</text>
</g>
<!-- Node0&#45;&gt;Node3 -->
<g id="edge3" class="edge">
<title>Node0&#45;&gt;Node3</title>
<path fill="none" stroke="#191970" d="M122.9214,-168.2977C126.6461,-160.1166 131.278,-149.943 135.2504,-141.2179"/>
<polygon fill="#191970" stroke="#191970" points="138.5586,-142.3983 139.5168,-131.8469 132.1878,-139.4978 138.5586,-142.3983"/>
</g>
<!-- Node4 -->
<g id="node5" class="node">
<title>Node4</title>
<g id="a_node5"><a xlink:href="byteorder_8h.html" target="_top" xlink:title="Functions to work with different byte orders. ">
<polygon fill="#ffffff" stroke="#000000" points="190.5,-112.5 190.5,-131.5 263.5,-131.5 263.5,-112.5 190.5,-112.5"/>
<text text-anchor="middle" x="227" y="-119.5" font-family="Helvetica,sans-Serif" font-size="10.00" fill="#000000">byteorder.h</text>
</a>
</g>
</g>
<!-- Node0&#45;&gt;Node4 -->
<g id="edge4" class="edge">
<title>Node0&#45;&gt;Node4</title>
<path fill="none" stroke="#191970" d="M143.1537,-168.4554C160.6995,-158.734 183.4122,-146.15 200.7721,-136.5317"/>
<polygon fill="#191970" stroke="#191970" points="202.748,-139.4383 209.7989,-131.5303 199.3555,-133.3153 202.748,-139.4383"/>
</g>
<!-- Node4&#45;&gt;Node2 -->
<g id="edge6" class="edge">
<title>Node4&#45;&gt;Node2</title>
<path fill="none" stroke="#191970" d="M193.4998,-112.3574C175.7388,-105.3494 155.476,-93.8886 145,-76 134.6157,-58.268 151.3274,-38.9521 167.2478,-25.8261"/>
<polygon fill="#191970" stroke="#191970" points="169.5773,-28.4494 175.3533,-19.5675 165.2992,-22.9088 169.5773,-28.4494"/>
</g>
<!-- Node5 -->
<g id="node6" class="node">
<title>Node5</title>
<polygon fill="#ffffff" stroke="#bfbfbf" points="154.5,-56.5 154.5,-75.5 207.5,-75.5 207.5,-56.5 154.5,-56.5"/>
<text text-anchor="middle" x="181" y="-63.5" font-family="Helvetica,sans-Serif" font-size="10.00" fill="#000000">string.h</text>
</g>
<!-- Node4&#45;&gt;Node5 -->
<g id="edge5" class="edge">
<title>Node4&#45;&gt;Node5</title>
<path fill="none" stroke="#191970" d="M218.9874,-112.2455C212.5232,-104.3761 203.2615,-93.101 195.5017,-83.6542"/>
<polygon fill="#191970" stroke="#191970" points="197.9727,-81.1484 188.9208,-75.6427 192.5636,-85.5916 197.9727,-81.1484"/>
</g>
<!-- Node6 -->
<g id="node7" class="node">
<title>Node6</title>
<g id="a_node7"><a xlink:href="endian_8h.html" target="_top" xlink:title="libc header for endian conversion ">
<polygon fill="#ffffff" stroke="#000000" points="225.5,-56.5 225.5,-75.5 282.5,-75.5 282.5,-56.5 225.5,-56.5"/>
<text text-anchor="middle" x="254" y="-63.5" font-family="Helvetica,sans-Serif" font-size="10.00" fill="#000000">endian.h</text>
</a>
</g>
</g>
<!-- Node4&#45;&gt;Node6 -->
<g id="edge7" class="edge">
<title>Node4&#45;&gt;Node6</title>
<path fill="none" stroke="#191970" d="M231.703,-112.2455C235.3424,-104.6973 240.4924,-94.0158 244.9262,-84.8197"/>
<polygon fill="#191970" stroke="#191970" points="248.1605,-86.1704 249.3509,-75.6427 241.8551,-83.1303 248.1605,-86.1704"/>
</g>
<!-- Node7 -->
<g id="node8" class="node">
<title>Node7</title>
<g id="a_node8"><a xlink:href="unaligned_8h.html" target="_top" xlink:title="Unaligned but safe memory access functions. ">
<polygon fill="#ffffff" stroke="#000000" points="300.5,-56.5 300.5,-75.5 371.5,-75.5 371.5,-56.5 300.5,-56.5"/>
<text text-anchor="middle" x="336" y="-63.5" font-family="Helvetica,sans-Serif" font-size="10.00" fill="#000000">unaligned.h</text>
</a>
</g>
</g>
<!-- Node4&#45;&gt;Node7 -->
<g id="edge9" class="edge">
<title>Node4&#45;&gt;Node7</title>
<path fill="none" stroke="#191970" d="M245.9864,-112.2455C263.1792,-103.4125 288.7238,-90.2887 308.2132,-80.2758"/>
<polygon fill="#191970" stroke="#191970" points="309.9359,-83.3257 317.2312,-75.6427 306.737,-77.0993 309.9359,-83.3257"/>
</g>
<!-- Node6&#45;&gt;Node2 -->
<g id="edge8" class="edge">
<title>Node6&#45;&gt;Node2</title>
<path fill="none" stroke="#191970" d="M242.8521,-56.2455C233.4913,-48.0549 219.9142,-36.1749 208.8651,-26.5069"/>
<polygon fill="#191970" stroke="#191970" points="210.8508,-23.5937 201.0202,-19.6427 206.2412,-28.8618 210.8508,-23.5937"/>
</g>
<!-- Node7&#45;&gt;Node2 -->
<g id="edge10" class="edge">
<title>Node7&#45;&gt;Node2</title>
<path fill="none" stroke="#191970" d="M310.9017,-56.3733C287.0445,-47.2226 250.9665,-33.3844 224.429,-23.2057"/>
<polygon fill="#191970" stroke="#191970" points="225.361,-19.8145 214.7708,-19.5011 222.8541,-26.3503 225.361,-19.8145"/>
</g>
</g>
</svg>
