<?xml version="1.0" encoding="UTF-8" standalone="no"?>
<!DOCTYPE svg PUBLIC "-//W3C//DTD SVG 1.1//EN"
 "http://www.w3.org/Graphics/SVG/1.1/DTD/svg11.dtd">
<!-- Generated by graphviz version 2.40.1 (0)
 -->
<!-- Title: sys/include/isrpipe.h Pages: 1 -->
<svg width="914pt" height="285pt"
 viewBox="0.00 0.00 913.50 285.00" xmlns="http://www.w3.org/2000/svg" xmlns:xlink="http://www.w3.org/1999/xlink">
<g id="graph0" class="graph" transform="scale(1 1) rotate(0) translate(4 281)">
<title>sys/include/isrpipe.h</title>
<polygon fill="#ffffff" stroke="transparent" points="-4,4 -4,-281 909.5,-281 909.5,4 -4,4"/>
<!-- Node27 -->
<g id="node1" class="node">
<title>Node27</title>
<polygon fill="#bfbfbf" stroke="#000000" points="247,-257.5 247,-276.5 359,-276.5 359,-257.5 247,-257.5"/>
<text text-anchor="middle" x="303" y="-264.5" font-family="Helvetica,sans-Serif" font-size="10.00" fill="#000000">sys/include/isrpipe.h</text>
</g>
<!-- Node28 -->
<g id="node2" class="node">
<title>Node28</title>
<g id="a_node2"><a xlink:href="at_8h.html" target="_top" xlink:title="AT (Hayes) library interface. ">
<polygon fill="#ffffff" stroke="#000000" points="0,-196 0,-215 108,-215 108,-196 0,-196"/>
<text text-anchor="middle" x="54" y="-203" font-family="Helvetica,sans-Serif" font-size="10.00" fill="#000000">drivers/include/at.h</text>
</a>
</g>
</g>
<!-- Node27&#45;&gt;Node28 -->
<g id="edge1" class="edge">
<title>Node27&#45;&gt;Node28</title>
<path fill="none" stroke="#191970" d="M254.3654,-254.9878C207.1093,-243.3162 136.2853,-225.8235 92.7237,-215.0643"/>
<polygon fill="#191970" stroke="#191970" points="253.8194,-258.4581 264.367,-257.4581 255.4979,-251.6623 253.8194,-258.4581"/>
</g>
<!-- Node29 -->
<g id="node3" class="node">
<title>Node29</title>
<g id="a_node3"><a xlink:href="ir__nec_8h.html" target="_top" xlink:title="drivers/include/ir\l_nec.h">
<polygon fill="#ffffff" stroke="#000000" points="126.5,-190.5 126.5,-220.5 223.5,-220.5 223.5,-190.5 126.5,-190.5"/>
<text text-anchor="start" x="134.5" y="-208.5" font-family="Helvetica,sans-Serif" font-size="10.00" fill="#000000">drivers/include/ir</text>
<text text-anchor="middle" x="175" y="-197.5" font-family="Helvetica,sans-Serif" font-size="10.00" fill="#000000">_nec.h</text>
</a>
</g>
</g>
<!-- Node27&#45;&gt;Node29 -->
<g id="edge2" class="edge">
<title>Node27&#45;&gt;Node29</title>
<path fill="none" stroke="#191970" d="M273.9736,-253.0537C253.8086,-243.3651 226.9585,-230.4644 206.3123,-220.5446"/>
<polygon fill="#191970" stroke="#191970" points="272.4706,-256.2146 283,-257.3906 275.5022,-249.9051 272.4706,-256.2146"/>
</g>
<!-- Node31 -->
<g id="node5" class="node">
<title>Node31</title>
<g id="a_node5"><a xlink:href="slipdev__internal_8h.html" target="_top" xlink:title="drivers/slipdev/include\l/slipdev_internal.h">
<polygon fill="#ffffff" stroke="#000000" points="242,-190.5 242,-220.5 364,-220.5 364,-190.5 242,-190.5"/>
<text text-anchor="start" x="250" y="-208.5" font-family="Helvetica,sans-Serif" font-size="10.00" fill="#000000">drivers/slipdev/include</text>
<text text-anchor="middle" x="303" y="-197.5" font-family="Helvetica,sans-Serif" font-size="10.00" fill="#000000">/slipdev_internal.h</text>
</a>
</g>
</g>
<!-- Node27&#45;&gt;Node31 -->
<g id="edge4" class="edge">
<title>Node27&#45;&gt;Node31</title>
<path fill="none" stroke="#191970" d="M303,-247.3693C303,-238.681 303,-228.6241 303,-220.5446"/>
<polygon fill="#191970" stroke="#191970" points="299.5001,-247.3906 303,-257.3906 306.5001,-247.3907 299.5001,-247.3906"/>
</g>
<!-- Node32 -->
<g id="node6" class="node">
<title>Node32</title>
<g id="a_node6"><a xlink:href="read__timeout_8h.html" target="_top" xlink:title="isrpipe read timeout Interface ">
<polygon fill="#ffffff" stroke="#000000" points="382.5,-190.5 382.5,-220.5 485.5,-220.5 485.5,-190.5 382.5,-190.5"/>
<text text-anchor="start" x="390.5" y="-208.5" font-family="Helvetica,sans-Serif" font-size="10.00" fill="#000000">sys/include/isrpipe</text>
<text text-anchor="middle" x="434" y="-197.5" font-family="Helvetica,sans-Serif" font-size="10.00" fill="#000000">/read_timeout.h</text>
</a>
</g>
</g>
<!-- Node27&#45;&gt;Node32 -->
<g id="edge5" class="edge">
<title>Node27&#45;&gt;Node32</title>
<path fill="none" stroke="#191970" d="M332.7067,-253.0537C353.3443,-243.3651 380.8237,-230.4644 401.9538,-220.5446"/>
<polygon fill="#191970" stroke="#191970" points="331.0335,-249.9727 323.4688,-257.3906 334.0083,-256.3092 331.0335,-249.9727"/>
</g>
<!-- Node33 -->
<g id="node7" class="node">
<title>Node33</title>
<g id="a_node7"><a xlink:href="stdio__base_8h.html" target="_top" xlink:title="sys/include/stdio_base.h">
<polygon fill="#ffffff" stroke="#000000" points="503.5,-196 503.5,-215 632.5,-215 632.5,-196 503.5,-196"/>
<text text-anchor="middle" x="568" y="-203" font-family="Helvetica,sans-Serif" font-size="10.00" fill="#000000">sys/include/stdio_base.h</text>
</a>
</g>
</g>
<!-- Node27&#45;&gt;Node33 -->
<g id="edge6" class="edge">
<title>Node27&#45;&gt;Node33</title>
<path fill="none" stroke="#191970" d="M354.1284,-255.1343C404.4197,-243.463 480.2329,-225.8686 526.7881,-215.0643"/>
<polygon fill="#191970" stroke="#191970" points="353.0653,-251.788 344.1155,-257.4581 354.6479,-258.6067 353.0653,-251.788"/>
</g>
<!-- Node30 -->
<g id="node4" class="node">
<title>Node30</title>
<g id="a_node4"><a xlink:href="ir__nec__params_8h.html" target="_top" xlink:title="Default configuration. ">
<polygon fill="#ffffff" stroke="#000000" points="116,-123.5 116,-153.5 234,-153.5 234,-123.5 116,-123.5"/>
<text text-anchor="start" x="124" y="-141.5" font-family="Helvetica,sans-Serif" font-size="10.00" fill="#000000">drivers/ir_nec/include</text>
<text text-anchor="middle" x="175" y="-130.5" font-family="Helvetica,sans-Serif" font-size="10.00" fill="#000000">/ir_nec_params.h</text>
</a>
</g>
</g>
<!-- Node29&#45;&gt;Node30 -->
<g id="edge3" class="edge">
<title>Node29&#45;&gt;Node30</title>
<path fill="none" stroke="#191970" d="M175,-180.0249C175,-171.128 175,-161.4287 175,-153.6432"/>
<polygon fill="#191970" stroke="#191970" points="171.5001,-180.2966 175,-190.2967 178.5001,-180.2967 171.5001,-180.2966"/>
</g>
<!-- Node34 -->
<g id="node8" class="node">
<title>Node34</title>
<g id="a_node8"><a xlink:href="stdio__nimble_8h.html" target="_top" xlink:title="sys/include/stdio_nimble.h">
<polygon fill="#ffffff" stroke="#000000" points="301.5,-129 301.5,-148 440.5,-148 440.5,-129 301.5,-129"/>
<text text-anchor="middle" x="371" y="-136" font-family="Helvetica,sans-Serif" font-size="10.00" fill="#000000">sys/include/stdio_nimble.h</text>
</a>
</g>
</g>
<!-- Node33&#45;&gt;Node34 -->
<g id="edge7" class="edge">
<title>Node33&#45;&gt;Node34</title>
<path fill="none" stroke="#191970" d="M530.0189,-192.5826C491.7319,-179.5611 433.5264,-159.7653 399.1729,-148.0817"/>
<polygon fill="#191970" stroke="#191970" points="529.1803,-195.9942 539.7747,-195.9005 531.4342,-189.367 529.1803,-195.9942"/>
</g>
<!-- Node35 -->
<g id="node9" class="node">
<title>Node35</title>
<g id="a_node9"><a xlink:href="stdio__rtt_8h.html" target="_top" xlink:title="sys/include/stdio_rtt.h">
<polygon fill="#ffffff" stroke="#000000" points="458.5,-129 458.5,-148 577.5,-148 577.5,-129 458.5,-129"/>
<text text-anchor="middle" x="518" y="-136" font-family="Helvetica,sans-Serif" font-size="10.00" fill="#000000">sys/include/stdio_rtt.h</text>
</a>
</g>
</g>
<!-- Node33&#45;&gt;Node35 -->
<g id="edge8" class="edge">
<title>Node33&#45;&gt;Node35</title>
<path fill="none" stroke="#191970" d="M554.8273,-187.8486C545.3279,-175.1194 532.8679,-158.4229 525.1505,-148.0817"/>
<polygon fill="#191970" stroke="#191970" points="552.0503,-189.9795 560.8362,-195.9005 557.6604,-185.7929 552.0503,-189.9795"/>
</g>
<!-- Node36 -->
<g id="node10" class="node">
<title>Node36</title>
<g id="a_node10"><a xlink:href="stdio__semihosting_8h.html" target="_top" xlink:title="sys/include/stdio_semihosting.h">
<polygon fill="#ffffff" stroke="#000000" points="596,-129 596,-148 760,-148 760,-129 596,-129"/>
<text text-anchor="middle" x="678" y="-136" font-family="Helvetica,sans-Serif" font-size="10.00" fill="#000000">sys/include/stdio_semihosting.h</text>
</a>
</g>
</g>
<!-- Node33&#45;&gt;Node36 -->
<g id="edge9" class="edge">
<title>Node33&#45;&gt;Node36</title>
<path fill="none" stroke="#191970" d="M592.5665,-190.5368C613.8707,-177.5605 644.0663,-159.1687 662.2689,-148.0817"/>
<polygon fill="#191970" stroke="#191970" points="590.4801,-187.7094 583.7603,-195.9005 594.1215,-193.6877 590.4801,-187.7094"/>
</g>
<!-- Node37 -->
<g id="node11" class="node">
<title>Node37</title>
<g id="a_node11"><a xlink:href="stdio__uart_8h.html" target="_top" xlink:title="sys/include/stdio_uart.h">
<polygon fill="#ffffff" stroke="#000000" points="778.5,-129 778.5,-148 905.5,-148 905.5,-129 778.5,-129"/>
<text text-anchor="middle" x="842" y="-136" font-family="Helvetica,sans-Serif" font-size="10.00" fill="#000000">sys/include/stdio_uart.h</text>
</a>
</g>
</g>
<!-- Node33&#45;&gt;Node37 -->
<g id="edge10" class="edge">
<title>Node33&#45;&gt;Node37</title>
<path fill="none" stroke="#191970" d="M616.8309,-193.5596C669.9197,-180.578 753.7193,-160.0869 802.7243,-148.1039"/>
<polygon fill="#191970" stroke="#191970" points="615.849,-190.1965 606.9665,-195.9717 617.5117,-196.9962 615.849,-190.1965"/>
</g>
<!-- Node38 -->
<g id="node12" class="node">
<title>Node38</title>
<g id="a_node12"><a xlink:href="ethos_8h.html" target="_top" xlink:title="Interface definition for the ethernet&#45;over&#45;serial module. ">
<polygon fill="#ffffff" stroke="#000000" points="779.5,-67.5 779.5,-86.5 904.5,-86.5 904.5,-67.5 779.5,-67.5"/>
<text text-anchor="middle" x="842" y="-74.5" font-family="Helvetica,sans-Serif" font-size="10.00" fill="#000000">drivers/include/ethos.h</text>
</a>
</g>
</g>
<!-- Node37&#45;&gt;Node38 -->
<g id="edge11" class="edge">
<title>Node37&#45;&gt;Node38</title>
<path fill="none" stroke="#191970" d="M842,-118.7462C842,-108.0519 842,-95.314 842,-86.7449"/>
<polygon fill="#191970" stroke="#191970" points="838.5001,-118.8906 842,-128.8906 845.5001,-118.8907 838.5001,-118.8906"/>
</g>
<!-- Node39 -->
<g id="node13" class="node">
<title>Node39</title>
<g id="a_node13"><a xlink:href="ethos__params_8h.html" target="_top" xlink:title="Default configuration for the ethos device driver. ">
<polygon fill="#ffffff" stroke="#000000" points="784,-.5 784,-30.5 900,-30.5 900,-.5 784,-.5"/>
<text text-anchor="start" x="792" y="-18.5" font-family="Helvetica,sans-Serif" font-size="10.00" fill="#000000">drivers/ethos/include</text>
<text text-anchor="middle" x="842" y="-7.5" font-family="Helvetica,sans-Serif" font-size="10.00" fill="#000000">/ethos_params.h</text>
</a>
</g>
</g>
<!-- Node38&#45;&gt;Node39 -->
<g id="edge12" class="edge">
<title>Node38&#45;&gt;Node39</title>
<path fill="none" stroke="#191970" d="M842,-57.3693C842,-48.681 842,-38.6241 842,-30.5446"/>
<polygon fill="#191970" stroke="#191970" points="838.5001,-57.3906 842,-67.3906 845.5001,-57.3907 838.5001,-57.3906"/>
</g>
</g>
</svg>
