<?xml version="1.0" encoding="UTF-8" standalone="no"?>
<!DOCTYPE svg PUBLIC "-//W3C//DTD SVG 1.1//EN"
 "http://www.w3.org/Graphics/SVG/1.1/DTD/svg11.dtd">
<!-- Generated by graphviz version 2.40.1 (0)
 -->
<!-- Title: drivers/jc42/include/jc42_params.h Pages: 1 -->
<svg width="632pt" height="207pt"
 viewBox="0.00 0.00 632.00 207.00" xmlns="http://www.w3.org/2000/svg" xmlns:xlink="http://www.w3.org/1999/xlink">
<g id="graph0" class="graph" transform="scale(1 1) rotate(0) translate(4 203)">
<title>drivers/jc42/include/jc42_params.h</title>
<polygon fill="#ffffff" stroke="transparent" points="-4,4 -4,-203 628,-203 628,4 -4,4"/>
<!-- Node0 -->
<g id="node1" class="node">
<title>Node0</title>
<polygon fill="#bfbfbf" stroke="#000000" points="177.5,-168.5 177.5,-198.5 286.5,-198.5 286.5,-168.5 177.5,-168.5"/>
<text text-anchor="start" x="185.5" y="-186.5" font-family="Helvetica,sans-Serif" font-size="10.00" fill="#000000">drivers/jc42/include</text>
<text text-anchor="middle" x="232" y="-175.5" font-family="Helvetica,sans-Serif" font-size="10.00" fill="#000000">/jc42_params.h</text>
</g>
<!-- Node1 -->
<g id="node2" class="node">
<title>Node1</title>
<polygon fill="#ffffff" stroke="#bfbfbf" points="150.5,-112.5 150.5,-131.5 203.5,-131.5 203.5,-112.5 150.5,-112.5"/>
<text text-anchor="middle" x="177" y="-119.5" font-family="Helvetica,sans-Serif" font-size="10.00" fill="#000000">board.h</text>
</g>
<!-- Node0&#45;&gt;Node1 -->
<g id="edge1" class="edge">
<title>Node0&#45;&gt;Node1</title>
<path fill="none" stroke="#191970" d="M218.4045,-168.2977C210.6109,-159.5831 200.7953,-148.6075 192.6774,-139.5302"/>
<polygon fill="#191970" stroke="#191970" points="195.0813,-136.9678 185.8062,-131.8469 189.8635,-141.6341 195.0813,-136.9678"/>
</g>
<!-- Node2 -->
<g id="node3" class="node">
<title>Node2</title>
<g id="a_node3"><a xlink:href="jc42_8h.html" target="_top" xlink:title="Driver for jc42 compliant temperature sensors. ">
<polygon fill="#ffffff" stroke="#000000" points="260,-112.5 260,-131.5 304,-131.5 304,-112.5 260,-112.5"/>
<text text-anchor="middle" x="282" y="-119.5" font-family="Helvetica,sans-Serif" font-size="10.00" fill="#000000">jc42.h</text>
</a>
</g>
</g>
<!-- Node0&#45;&gt;Node2 -->
<g id="edge2" class="edge">
<title>Node0&#45;&gt;Node2</title>
<path fill="none" stroke="#191970" d="M244.3596,-168.2977C251.3724,-159.672 260.186,-148.8312 267.5214,-139.8087"/>
<polygon fill="#191970" stroke="#191970" points="270.4018,-141.8141 273.9944,-131.8469 264.9703,-137.3982 270.4018,-141.8141"/>
</g>
<!-- Node3 -->
<g id="node4" class="node">
<title>Node3</title>
<g id="a_node4"><a xlink:href="i2c_8h.html" target="_top" xlink:title="Low&#45;level I2C peripheral driver interface definition. ">
<polygon fill="#ffffff" stroke="#000000" points="195.5,-56.5 195.5,-75.5 268.5,-75.5 268.5,-56.5 195.5,-56.5"/>
<text text-anchor="middle" x="232" y="-63.5" font-family="Helvetica,sans-Serif" font-size="10.00" fill="#000000">periph/i2c.h</text>
</a>
</g>
</g>
<!-- Node0&#45;&gt;Node3 -->
<g id="edge14" class="edge">
<title>Node0&#45;&gt;Node3</title>
<path fill="none" stroke="#191970" d="M232,-168.1389C232,-146.9692 232,-108.8174 232,-85.6112"/>
<polygon fill="#191970" stroke="#191970" points="235.5001,-85.5594 232,-75.5595 228.5001,-85.5595 235.5001,-85.5594"/>
</g>
<!-- Node2&#45;&gt;Node3 -->
<g id="edge3" class="edge">
<title>Node2&#45;&gt;Node3</title>
<path fill="none" stroke="#191970" d="M273.2907,-112.2455C266.1927,-104.2958 255.9916,-92.8706 247.505,-83.3656"/>
<polygon fill="#191970" stroke="#191970" points="249.8805,-80.771 240.6095,-75.6427 244.6589,-85.4331 249.8805,-80.771"/>
</g>
<!-- Node9 -->
<g id="node10" class="node">
<title>Node9</title>
<g id="a_node10"><a xlink:href="drivers_2include_2saul_8h.html" target="_top" xlink:title="Definition of the generic [S]ensor [A]ctuator [U]ber [L]ayer. ">
<polygon fill="#ffffff" stroke="#000000" points="412,-56.5 412,-75.5 456,-75.5 456,-56.5 412,-56.5"/>
<text text-anchor="middle" x="434" y="-63.5" font-family="Helvetica,sans-Serif" font-size="10.00" fill="#000000">saul.h</text>
</a>
</g>
</g>
<!-- Node2&#45;&gt;Node9 -->
<g id="edge9" class="edge">
<title>Node2&#45;&gt;Node9</title>
<path fill="none" stroke="#191970" d="M304.1021,-113.8571C329.9934,-104.3182 373.0791,-88.4445 402.4725,-77.6154"/>
<polygon fill="#191970" stroke="#191970" points="403.6978,-80.894 411.8712,-74.1527 401.2778,-74.3256 403.6978,-80.894"/>
</g>
<!-- Node4 -->
<g id="node5" class="node">
<title>Node4</title>
<polygon fill="#ffffff" stroke="#bfbfbf" points="337,-.5 337,-19.5 389,-19.5 389,-.5 337,-.5"/>
<text text-anchor="middle" x="363" y="-7.5" font-family="Helvetica,sans-Serif" font-size="10.00" fill="#000000">stdint.h</text>
</g>
<!-- Node3&#45;&gt;Node4 -->
<g id="edge4" class="edge">
<title>Node3&#45;&gt;Node4</title>
<path fill="none" stroke="#191970" d="M254.5197,-56.3733C275.7372,-47.3032 307.7276,-33.6279 331.4769,-23.4755"/>
<polygon fill="#191970" stroke="#191970" points="332.9548,-26.6502 340.7742,-19.5011 330.2033,-20.2136 332.9548,-26.6502"/>
</g>
<!-- Node5 -->
<g id="node6" class="node">
<title>Node5</title>
<polygon fill="#ffffff" stroke="#bfbfbf" points="0,-.5 0,-19.5 56,-19.5 56,-.5 0,-.5"/>
<text text-anchor="middle" x="28" y="-7.5" font-family="Helvetica,sans-Serif" font-size="10.00" fill="#000000">stddef.h</text>
</g>
<!-- Node3&#45;&gt;Node5 -->
<g id="edge5" class="edge">
<title>Node3&#45;&gt;Node5</title>
<path fill="none" stroke="#191970" d="M196.9311,-56.3733C160.4859,-46.3687 103.6296,-30.7611 66.0993,-20.4586"/>
<polygon fill="#191970" stroke="#191970" points="66.6291,-16.9747 56.0593,-17.7026 64.776,-23.7249 66.6291,-16.9747"/>
</g>
<!-- Node6 -->
<g id="node7" class="node">
<title>Node6</title>
<polygon fill="#ffffff" stroke="#bfbfbf" points="74,-.5 74,-19.5 124,-19.5 124,-.5 74,-.5"/>
<text text-anchor="middle" x="99" y="-7.5" font-family="Helvetica,sans-Serif" font-size="10.00" fill="#000000">limits.h</text>
</g>
<!-- Node3&#45;&gt;Node6 -->
<g id="edge6" class="edge">
<title>Node3&#45;&gt;Node6</title>
<path fill="none" stroke="#191970" d="M209.1365,-56.3733C187.595,-47.3032 155.1162,-33.6279 131.0044,-23.4755"/>
<polygon fill="#191970" stroke="#191970" points="132.1397,-20.156 121.5652,-19.5011 129.4233,-26.6075 132.1397,-20.156"/>
</g>
<!-- Node7 -->
<g id="node8" class="node">
<title>Node7</title>
<polygon fill="#ffffff" stroke="#bfbfbf" points="142.5,-.5 142.5,-19.5 223.5,-19.5 223.5,-.5 142.5,-.5"/>
<text text-anchor="middle" x="183" y="-7.5" font-family="Helvetica,sans-Serif" font-size="10.00" fill="#000000">periph_conf.h</text>
</g>
<!-- Node3&#45;&gt;Node7 -->
<g id="edge7" class="edge">
<title>Node3&#45;&gt;Node7</title>
<path fill="none" stroke="#191970" d="M223.4649,-56.2455C216.5088,-48.2958 206.5117,-36.8706 198.1949,-27.3656"/>
<polygon fill="#191970" stroke="#191970" points="200.6564,-24.8637 191.4373,-19.6427 195.3884,-29.4732 200.6564,-24.8637"/>
</g>
<!-- Node8 -->
<g id="node9" class="node">
<title>Node8</title>
<polygon fill="#ffffff" stroke="#bfbfbf" points="241.5,-.5 241.5,-19.5 318.5,-19.5 318.5,-.5 241.5,-.5"/>
<text text-anchor="middle" x="280" y="-7.5" font-family="Helvetica,sans-Serif" font-size="10.00" fill="#000000">periph_cpu.h</text>
</g>
<!-- Node3&#45;&gt;Node8 -->
<g id="edge8" class="edge">
<title>Node3&#45;&gt;Node8</title>
<path fill="none" stroke="#191970" d="M240.361,-56.2455C247.175,-48.2958 256.9681,-36.8706 265.1152,-27.3656"/>
<polygon fill="#191970" stroke="#191970" points="267.8843,-29.513 271.7349,-19.6427 262.5695,-24.9575 267.8843,-29.513"/>
</g>
<!-- Node9&#45;&gt;Node4 -->
<g id="edge11" class="edge">
<title>Node9&#45;&gt;Node4</title>
<path fill="none" stroke="#191970" d="M421.6327,-56.2455C411.0446,-47.8943 395.5936,-35.7076 383.2107,-25.9408"/>
<polygon fill="#191970" stroke="#191970" points="385.2447,-23.0875 375.2255,-19.6427 380.9097,-28.5837 385.2447,-23.0875"/>
</g>
<!-- Node10 -->
<g id="node11" class="node">
<title>Node10</title>
<g id="a_node11"><a xlink:href="errno_8h.html" target="_top" xlink:title="errno.h">
<polygon fill="#ffffff" stroke="#000000" points="407.5,-.5 407.5,-19.5 460.5,-19.5 460.5,-.5 407.5,-.5"/>
<text text-anchor="middle" x="434" y="-7.5" font-family="Helvetica,sans-Serif" font-size="10.00" fill="#000000">errno.h</text>
</a>
</g>
</g>
<!-- Node9&#45;&gt;Node10 -->
<g id="edge10" class="edge">
<title>Node9&#45;&gt;Node10</title>
<path fill="none" stroke="#191970" d="M434,-56.2455C434,-48.9382 434,-38.6944 434,-29.7046"/>
<polygon fill="#191970" stroke="#191970" points="437.5001,-29.6426 434,-19.6427 430.5001,-29.6427 437.5001,-29.6426"/>
</g>
<!-- Node11 -->
<g id="node12" class="node">
<title>Node11</title>
<polygon fill="#ffffff" stroke="#bfbfbf" points="478.5,-.5 478.5,-19.5 547.5,-19.5 547.5,-.5 478.5,-.5"/>
<text text-anchor="middle" x="513" y="-7.5" font-family="Helvetica,sans-Serif" font-size="10.00" fill="#000000">sys/types.h</text>
</g>
<!-- Node9&#45;&gt;Node11 -->
<g id="edge12" class="edge">
<title>Node9&#45;&gt;Node11</title>
<path fill="none" stroke="#191970" d="M447.7607,-56.2455C459.6552,-47.814 477.065,-35.4729 490.9085,-25.6598"/>
<polygon fill="#191970" stroke="#191970" points="493.2628,-28.2811 499.3969,-19.6427 489.2146,-22.5704 493.2628,-28.2811"/>
</g>
<!-- Node12 -->
<g id="node13" class="node">
<title>Node12</title>
<polygon fill="#ffffff" stroke="#bfbfbf" points="566,-.5 566,-19.5 624,-19.5 624,-.5 566,-.5"/>
<text text-anchor="middle" x="595" y="-7.5" font-family="Helvetica,sans-Serif" font-size="10.00" fill="#000000">phydat.h</text>
</g>
<!-- Node9&#45;&gt;Node12 -->
<g id="edge13" class="edge">
<title>Node9&#45;&gt;Node12</title>
<path fill="none" stroke="#191970" d="M456.0488,-58.3309C482.2372,-49.2218 526.3324,-33.8844 557.8259,-22.9301"/>
<polygon fill="#191970" stroke="#191970" points="559.2744,-26.132 567.5695,-19.541 556.9747,-19.5206 559.2744,-26.132"/>
</g>
</g>
</svg>
