<?xml version="1.0" encoding="UTF-8" standalone="no"?>
<!DOCTYPE svg PUBLIC "-//W3C//DTD SVG 1.1//EN"
 "http://www.w3.org/Graphics/SVG/1.1/DTD/svg11.dtd">
<!-- Generated by graphviz version 2.40.1 (0)
 -->
<!-- Title: cpu/kinetis/include/periph_cpu.h Pages: 1 -->
<svg width="198pt" height="95pt"
 viewBox="0.00 0.00 198.00 95.00" xmlns="http://www.w3.org/2000/svg" xmlns:xlink="http://www.w3.org/1999/xlink">
<g id="graph0" class="graph" transform="scale(1 1) rotate(0) translate(4 91)">
<title>cpu/kinetis/include/periph_cpu.h</title>
<polygon fill="#ffffff" stroke="transparent" points="-4,4 -4,-91 194,-91 194,4 -4,4"/>
<!-- Node0 -->
<g id="node1" class="node">
<title>Node0</title>
<polygon fill="#bfbfbf" stroke="#000000" points="48,-56.5 48,-86.5 152,-86.5 152,-56.5 48,-56.5"/>
<text text-anchor="start" x="56" y="-74.5" font-family="Helvetica,sans-Serif" font-size="10.00" fill="#000000">cpu/kinetis/include</text>
<text text-anchor="middle" x="100" y="-63.5" font-family="Helvetica,sans-Serif" font-size="10.00" fill="#000000">/periph_cpu.h</text>
</g>
<!-- Node1 -->
<g id="node2" class="node">
<title>Node1</title>
<polygon fill="#ffffff" stroke="#bfbfbf" points="0,-.5 0,-19.5 52,-19.5 52,-.5 0,-.5"/>
<text text-anchor="middle" x="26" y="-7.5" font-family="Helvetica,sans-Serif" font-size="10.00" fill="#000000">stdint.h</text>
</g>
<!-- Node0&#45;&gt;Node1 -->
<g id="edge1" class="edge">
<title>Node0&#45;&gt;Node1</title>
<path fill="none" stroke="#191970" d="M81.7079,-56.2977C70.7939,-47.2274 56.9329,-35.7077 45.7676,-26.4285"/>
<polygon fill="#191970" stroke="#191970" points="47.7762,-23.5468 37.8483,-19.8469 43.302,-28.9303 47.7762,-23.5468"/>
</g>
<!-- Node2 -->
<g id="node3" class="node">
<title>Node2</title>
<polygon fill="#ffffff" stroke="#bfbfbf" points="70,-.5 70,-19.5 130,-19.5 130,-.5 70,-.5"/>
<text text-anchor="middle" x="100" y="-7.5" font-family="Helvetica,sans-Serif" font-size="10.00" fill="#000000">stdbool.h</text>
</g>
<!-- Node0&#45;&gt;Node2 -->
<g id="edge2" class="edge">
<title>Node0&#45;&gt;Node2</title>
<path fill="none" stroke="#191970" d="M100,-56.2977C100,-48.3834 100,-38.6043 100,-30.0759"/>
<polygon fill="#191970" stroke="#191970" points="103.5001,-29.8469 100,-19.8469 96.5001,-29.847 103.5001,-29.8469"/>
</g>
<!-- Node3 -->
<g id="node4" class="node">
<title>Node3</title>
<polygon fill="#ffffff" stroke="#bfbfbf" points="148,-.5 148,-19.5 190,-19.5 190,-.5 148,-.5"/>
<text text-anchor="middle" x="169" y="-7.5" font-family="Helvetica,sans-Serif" font-size="10.00" fill="#000000">cpu.h</text>
</g>
<!-- Node0&#45;&gt;Node3 -->
<g id="edge3" class="edge">
<title>Node0&#45;&gt;Node3</title>
<path fill="none" stroke="#191970" d="M117.0562,-56.2977C127.1329,-47.3163 139.904,-35.9334 150.2611,-26.702"/>
<polygon fill="#191970" stroke="#191970" points="152.8159,-29.1135 157.9522,-19.8469 148.1583,-23.8879 152.8159,-29.1135"/>
</g>
</g>
</svg>
