<?xml version="1.0" encoding="UTF-8" standalone="no"?>
<!DOCTYPE svg PUBLIC "-//W3C//DTD SVG 1.1//EN"
 "http://www.w3.org/Graphics/SVG/1.1/DTD/svg11.dtd">
<!-- Generated by graphviz version 2.40.1 (0)
 -->
<!-- Title: drivers/include/kw2xrf.h Pages: 1 -->
<svg width="448pt" height="162pt"
 viewBox="0.00 0.00 448.00 162.00" xmlns="http://www.w3.org/2000/svg" xmlns:xlink="http://www.w3.org/1999/xlink">
<g id="graph0" class="graph" transform="scale(1 1) rotate(0) translate(4 158)">
<title>drivers/include/kw2xrf.h</title>
<polygon fill="#ffffff" stroke="transparent" points="-4,4 -4,-158 444,-158 444,4 -4,4"/>
<!-- Node43 -->
<g id="node1" class="node">
<title>Node43</title>
<polygon fill="#bfbfbf" stroke="#000000" points="128.5,-134.5 128.5,-153.5 259.5,-153.5 259.5,-134.5 128.5,-134.5"/>
<text text-anchor="middle" x="194" y="-141.5" font-family="Helvetica,sans-Serif" font-size="10.00" fill="#000000">drivers/include/kw2xrf.h</text>
</g>
<!-- Node44 -->
<g id="node2" class="node">
<title>Node44</title>
<g id="a_node2"><a xlink:href="kw2xrf__getset_8h.html" target="_top" xlink:title="get/set interfaces for kw2xrf driver ">
<polygon fill="#ffffff" stroke="#000000" points="0,-67.5 0,-97.5 122,-97.5 122,-67.5 0,-67.5"/>
<text text-anchor="start" x="8" y="-85.5" font-family="Helvetica,sans-Serif" font-size="10.00" fill="#000000">drivers/kw2xrf/include</text>
<text text-anchor="middle" x="61" y="-74.5" font-family="Helvetica,sans-Serif" font-size="10.00" fill="#000000">/kw2xrf_getset.h</text>
</a>
</g>
</g>
<!-- Node43&#45;&gt;Node44 -->
<g id="edge1" class="edge">
<title>Node43&#45;&gt;Node44</title>
<path fill="none" stroke="#191970" d="M164.1237,-130.185C143.1397,-120.4819 115.0852,-107.5093 93.5355,-97.5446"/>
<polygon fill="#191970" stroke="#191970" points="162.6731,-133.3703 173.2188,-134.3906 165.6111,-127.0167 162.6731,-133.3703"/>
</g>
<!-- Node45 -->
<g id="node3" class="node">
<title>Node45</title>
<g id="a_node3"><a xlink:href="kw2xrf__tm_8h.html" target="_top" xlink:title="Testing interfaces for kw2xrf driver. ">
<polygon fill="#ffffff" stroke="#000000" points="44,-.5 44,-30.5 166,-30.5 166,-.5 44,-.5"/>
<text text-anchor="start" x="52" y="-18.5" font-family="Helvetica,sans-Serif" font-size="10.00" fill="#000000">drivers/kw2xrf/include</text>
<text text-anchor="middle" x="105" y="-7.5" font-family="Helvetica,sans-Serif" font-size="10.00" fill="#000000">/kw2xrf_tm.h</text>
</a>
</g>
</g>
<!-- Node43&#45;&gt;Node45 -->
<g id="edge5" class="edge">
<title>Node43&#45;&gt;Node45</title>
<path fill="none" stroke="#191970" d="M181.516,-125.9753C163.8901,-100.5267 132.0238,-54.5175 115.5287,-30.7016"/>
<polygon fill="#191970" stroke="#191970" points="178.7395,-128.1137 187.3105,-134.3416 184.494,-124.128 178.7395,-128.1137"/>
</g>
<!-- Node46 -->
<g id="node4" class="node">
<title>Node46</title>
<g id="a_node4"><a xlink:href="kw2xrf__intern_8h.html" target="_top" xlink:title="Internal function interfaces for kw2xrf driver. ">
<polygon fill="#ffffff" stroke="#000000" points="178,-67.5 178,-97.5 300,-97.5 300,-67.5 178,-67.5"/>
<text text-anchor="start" x="186" y="-85.5" font-family="Helvetica,sans-Serif" font-size="10.00" fill="#000000">drivers/kw2xrf/include</text>
<text text-anchor="middle" x="239" y="-74.5" font-family="Helvetica,sans-Serif" font-size="10.00" fill="#000000">/kw2xrf_intern.h</text>
</a>
</g>
</g>
<!-- Node43&#45;&gt;Node46 -->
<g id="edge3" class="edge">
<title>Node43&#45;&gt;Node46</title>
<path fill="none" stroke="#191970" d="M207.1066,-126.0877C213.7336,-117.0307 221.6858,-106.1627 227.9918,-97.5446"/>
<polygon fill="#191970" stroke="#191970" points="204.1118,-124.2535 201.0313,-134.3906 209.761,-128.3871 204.1118,-124.2535"/>
</g>
<!-- Node47 -->
<g id="node5" class="node">
<title>Node47</title>
<g id="a_node5"><a xlink:href="kw2xrf__params_8h.html" target="_top" xlink:title="Default configuration for the KW2XRF driver. ">
<polygon fill="#ffffff" stroke="#000000" points="318,-67.5 318,-97.5 440,-97.5 440,-67.5 318,-67.5"/>
<text text-anchor="start" x="326" y="-85.5" font-family="Helvetica,sans-Serif" font-size="10.00" fill="#000000">drivers/kw2xrf/include</text>
<text text-anchor="middle" x="379" y="-74.5" font-family="Helvetica,sans-Serif" font-size="10.00" fill="#000000">/kw2xrf_params.h</text>
</a>
</g>
</g>
<!-- Node43&#45;&gt;Node47 -->
<g id="edge4" class="edge">
<title>Node43&#45;&gt;Node47</title>
<path fill="none" stroke="#191970" d="M232.4409,-131.221C261.9213,-121.4207 302.6885,-107.8684 333.7439,-97.5446"/>
<polygon fill="#191970" stroke="#191970" points="231.2915,-127.9147 222.9063,-134.3906 233.4998,-134.5573 231.2915,-127.9147"/>
</g>
<!-- Node44&#45;&gt;Node45 -->
<g id="edge2" class="edge">
<title>Node44&#45;&gt;Node45</title>
<path fill="none" stroke="#191970" d="M76.5816,-58.7735C82.7272,-49.4154 89.6052,-38.9421 95.0552,-30.6432"/>
<polygon fill="#191970" stroke="#191970" points="73.5481,-57.0167 70.9843,-67.2967 79.3992,-60.8592 73.5481,-57.0167"/>
</g>
</g>
</svg>
