<?xml version="1.0" encoding="UTF-8" standalone="no"?>
<!DOCTYPE svg PUBLIC "-//W3C//DTD SVG 1.1//EN"
 "http://www.w3.org/Graphics/SVG/1.1/DTD/svg11.dtd">
<!-- Generated by graphviz version 2.40.1 (0)
 -->
<!-- Title: boards/common/kw41z/include/periph_conf_common.h Pages: 1 -->
<svg width="134pt" height="106pt"
 viewBox="0.00 0.00 134.00 106.00" xmlns="http://www.w3.org/2000/svg" xmlns:xlink="http://www.w3.org/1999/xlink">
<g id="graph0" class="graph" transform="scale(1 1) rotate(0) translate(4 102)">
<title>boards/common/kw41z/include/periph_conf_common.h</title>
<polygon fill="#ffffff" stroke="transparent" points="-4,4 -4,-102 130,-102 130,4 -4,4"/>
<!-- Node0 -->
<g id="node1" class="node">
<title>Node0</title>
<polygon fill="#bfbfbf" stroke="#000000" points="0,-56.5 0,-97.5 126,-97.5 126,-56.5 0,-56.5"/>
<text text-anchor="start" x="8" y="-85.5" font-family="Helvetica,sans-Serif" font-size="10.00" fill="#000000">boards/common/kw41z</text>
<text text-anchor="start" x="8" y="-74.5" font-family="Helvetica,sans-Serif" font-size="10.00" fill="#000000">/include/periph_conf</text>
<text text-anchor="middle" x="63" y="-63.5" font-family="Helvetica,sans-Serif" font-size="10.00" fill="#000000">_common.h</text>
</g>
<!-- Node1 -->
<g id="node2" class="node">
<title>Node1</title>
<polygon fill="#ffffff" stroke="#bfbfbf" points="24.5,-.5 24.5,-19.5 101.5,-19.5 101.5,-.5 24.5,-.5"/>
<text text-anchor="middle" x="63" y="-7.5" font-family="Helvetica,sans-Serif" font-size="10.00" fill="#000000">periph_cpu.h</text>
</g>
<!-- Node0&#45;&gt;Node1 -->
<g id="edge1" class="edge">
<title>Node0&#45;&gt;Node1</title>
<path fill="none" stroke="#191970" d="M63,-56.168C63,-47.8226 63,-38.2471 63,-29.9879"/>
<polygon fill="#191970" stroke="#191970" points="66.5001,-29.7804 63,-19.7805 59.5001,-29.7805 66.5001,-29.7804"/>
</g>
</g>
</svg>
