<?xml version="1.0" encoding="UTF-8" standalone="no"?>
<!DOCTYPE svg PUBLIC "-//W3C//DTD SVG 1.1//EN"
 "http://www.w3.org/Graphics/SVG/1.1/DTD/svg11.dtd">
<!-- Generated by graphviz version 2.40.1 (0)
 -->
<!-- Title: sys/include/net/l2scan_list.h Pages: 1 -->
<svg width="238pt" height="151pt"
 viewBox="0.00 0.00 238.00 151.00" xmlns="http://www.w3.org/2000/svg" xmlns:xlink="http://www.w3.org/1999/xlink">
<g id="graph0" class="graph" transform="scale(1 1) rotate(0) translate(4 147)">
<title>sys/include/net/l2scan_list.h</title>
<polygon fill="#ffffff" stroke="transparent" points="-4,4 -4,-147 234,-147 234,4 -4,4"/>
<!-- Node0 -->
<g id="node1" class="node">
<title>Node0</title>
<polygon fill="#bfbfbf" stroke="#000000" points="27.5,-112.5 27.5,-142.5 146.5,-142.5 146.5,-112.5 27.5,-112.5"/>
<text text-anchor="start" x="35.5" y="-130.5" font-family="Helvetica,sans-Serif" font-size="10.00" fill="#000000">sys/include/net/l2scan</text>
<text text-anchor="middle" x="87" y="-119.5" font-family="Helvetica,sans-Serif" font-size="10.00" fill="#000000">_list.h</text>
</g>
<!-- Node1 -->
<g id="node2" class="node">
<title>Node1</title>
<polygon fill="#ffffff" stroke="#bfbfbf" points="0,-56.5 0,-75.5 50,-75.5 50,-56.5 0,-56.5"/>
<text text-anchor="middle" x="25" y="-63.5" font-family="Helvetica,sans-Serif" font-size="10.00" fill="#000000">stdlib.h</text>
</g>
<!-- Node0&#45;&gt;Node1 -->
<g id="edge1" class="edge">
<title>Node0&#45;&gt;Node1</title>
<path fill="none" stroke="#191970" d="M71.6742,-112.2977C62.7093,-103.4052 51.3712,-92.1586 42.1149,-82.9769"/>
<polygon fill="#191970" stroke="#191970" points="44.4915,-80.4045 34.927,-75.8469 39.5618,-85.3742 44.4915,-80.4045"/>
</g>
<!-- Node2 -->
<g id="node3" class="node">
<title>Node2</title>
<g id="a_node3"><a xlink:href="list_8h.html" target="_top" xlink:title="Intrusive linked list. ">
<polygon fill="#ffffff" stroke="#000000" points="68,-56.5 68,-75.5 106,-75.5 106,-56.5 68,-56.5"/>
<text text-anchor="middle" x="87" y="-63.5" font-family="Helvetica,sans-Serif" font-size="10.00" fill="#000000">list.h</text>
</a>
</g>
</g>
<!-- Node0&#45;&gt;Node2 -->
<g id="edge2" class="edge">
<title>Node0&#45;&gt;Node2</title>
<path fill="none" stroke="#191970" d="M87,-112.2977C87,-104.3834 87,-94.6043 87,-86.0759"/>
<polygon fill="#191970" stroke="#191970" points="90.5001,-85.8469 87,-75.8469 83.5001,-85.847 90.5001,-85.8469"/>
</g>
<!-- Node3 -->
<g id="node4" class="node">
<title>Node3</title>
<g id="a_node4"><a xlink:href="netopt_8h.html" target="_top" xlink:title="Definition of global configuration options. ">
<polygon fill="#ffffff" stroke="#000000" points="124.5,-56.5 124.5,-75.5 201.5,-75.5 201.5,-56.5 124.5,-56.5"/>
<text text-anchor="middle" x="163" y="-63.5" font-family="Helvetica,sans-Serif" font-size="10.00" fill="#000000">net/netopt.h</text>
</a>
</g>
</g>
<!-- Node0&#45;&gt;Node3 -->
<g id="edge3" class="edge">
<title>Node0&#45;&gt;Node3</title>
<path fill="none" stroke="#191970" d="M105.7865,-112.2977C117.1053,-103.1384 131.5105,-91.4816 143.0346,-82.1562"/>
<polygon fill="#191970" stroke="#191970" points="145.2595,-84.8583 150.8314,-75.8469 140.8561,-79.4167 145.2595,-84.8583"/>
</g>
<!-- Node4 -->
<g id="node5" class="node">
<title>Node4</title>
<polygon fill="#ffffff" stroke="#bfbfbf" points="100,-.5 100,-19.5 152,-19.5 152,-.5 100,-.5"/>
<text text-anchor="middle" x="126" y="-7.5" font-family="Helvetica,sans-Serif" font-size="10.00" fill="#000000">stdint.h</text>
</g>
<!-- Node3&#45;&gt;Node4 -->
<g id="edge4" class="edge">
<title>Node3&#45;&gt;Node4</title>
<path fill="none" stroke="#191970" d="M156.5551,-56.2455C151.4618,-48.5367 144.2092,-37.5598 138.048,-28.2348"/>
<polygon fill="#191970" stroke="#191970" points="140.8038,-26.0566 132.3711,-19.6427 134.9635,-29.9155 140.8038,-26.0566"/>
</g>
<!-- Node5 -->
<g id="node6" class="node">
<title>Node5</title>
<polygon fill="#ffffff" stroke="#bfbfbf" points="170,-.5 170,-19.5 230,-19.5 230,-.5 170,-.5"/>
<text text-anchor="middle" x="200" y="-7.5" font-family="Helvetica,sans-Serif" font-size="10.00" fill="#000000">stdbool.h</text>
</g>
<!-- Node3&#45;&gt;Node5 -->
<g id="edge5" class="edge">
<title>Node3&#45;&gt;Node5</title>
<path fill="none" stroke="#191970" d="M169.4449,-56.2455C174.5382,-48.5367 181.7908,-37.5598 187.952,-28.2348"/>
<polygon fill="#191970" stroke="#191970" points="191.0365,-29.9155 193.6289,-19.6427 185.1962,-26.0566 191.0365,-29.9155"/>
</g>
</g>
</svg>
