<?xml version="1.0" encoding="UTF-8" standalone="no"?>
<!DOCTYPE svg PUBLIC "-//W3C//DTD SVG 1.1//EN"
 "http://www.w3.org/Graphics/SVG/1.1/DTD/svg11.dtd">
<!-- Generated by graphviz version 2.40.1 (0)
 -->
<!-- Title: drivers/lc709203f/include/lc709203f_params.h Pages: 1 -->
<svg width="475pt" height="207pt"
 viewBox="0.00 0.00 475.00 207.00" xmlns="http://www.w3.org/2000/svg" xmlns:xlink="http://www.w3.org/1999/xlink">
<g id="graph0" class="graph" transform="scale(1 1) rotate(0) translate(4 203)">
<title>drivers/lc709203f/include/lc709203f_params.h</title>
<polygon fill="#ffffff" stroke="transparent" points="-4,4 -4,-203 471,-203 471,4 -4,4"/>
<!-- Node0 -->
<g id="node1" class="node">
<title>Node0</title>
<polygon fill="#bfbfbf" stroke="#000000" points="106.5,-168.5 106.5,-198.5 243.5,-198.5 243.5,-168.5 106.5,-168.5"/>
<text text-anchor="start" x="114.5" y="-186.5" font-family="Helvetica,sans-Serif" font-size="10.00" fill="#000000">drivers/lc709203f/include</text>
<text text-anchor="middle" x="175" y="-175.5" font-family="Helvetica,sans-Serif" font-size="10.00" fill="#000000">/lc709203f_params.h</text>
</g>
<!-- Node1 -->
<g id="node2" class="node">
<title>Node1</title>
<polygon fill="#ffffff" stroke="#bfbfbf" points="108.5,-112.5 108.5,-131.5 161.5,-131.5 161.5,-112.5 108.5,-112.5"/>
<text text-anchor="middle" x="135" y="-119.5" font-family="Helvetica,sans-Serif" font-size="10.00" fill="#000000">board.h</text>
</g>
<!-- Node0&#45;&gt;Node1 -->
<g id="edge1" class="edge">
<title>Node0&#45;&gt;Node1</title>
<path fill="none" stroke="#191970" d="M165.1124,-168.2977C159.6178,-159.8498 152.7414,-149.2773 146.9473,-140.369"/>
<polygon fill="#191970" stroke="#191970" points="149.7908,-138.3215 141.4045,-131.8469 143.9228,-142.1381 149.7908,-138.3215"/>
</g>
<!-- Node2 -->
<g id="node3" class="node">
<title>Node2</title>
<g id="a_node3"><a xlink:href="lc709203f_8h.html" target="_top" xlink:title="Device driver interface for the LC709203F Battery Fuel Gauge. ">
<polygon fill="#ffffff" stroke="#000000" points="180,-112.5 180,-131.5 252,-131.5 252,-112.5 180,-112.5"/>
<text text-anchor="middle" x="216" y="-119.5" font-family="Helvetica,sans-Serif" font-size="10.00" fill="#000000">lc709203f.h</text>
</a>
</g>
</g>
<!-- Node0&#45;&gt;Node2 -->
<g id="edge2" class="edge">
<title>Node0&#45;&gt;Node2</title>
<path fill="none" stroke="#191970" d="M185.1348,-168.2977C190.7668,-159.8498 197.8151,-149.2773 203.754,-140.369"/>
<polygon fill="#191970" stroke="#191970" points="206.8005,-142.1089 209.4354,-131.8469 200.9762,-138.226 206.8005,-142.1089"/>
</g>
<!-- Node3 -->
<g id="node4" class="node">
<title>Node3</title>
<g id="a_node4"><a xlink:href="i2c_8h.html" target="_top" xlink:title="Low&#45;level I2C peripheral driver interface definition. ">
<polygon fill="#ffffff" stroke="#000000" points="132.5,-56.5 132.5,-75.5 205.5,-75.5 205.5,-56.5 132.5,-56.5"/>
<text text-anchor="middle" x="169" y="-63.5" font-family="Helvetica,sans-Serif" font-size="10.00" fill="#000000">periph/i2c.h</text>
</a>
</g>
</g>
<!-- Node2&#45;&gt;Node3 -->
<g id="edge3" class="edge">
<title>Node2&#45;&gt;Node3</title>
<path fill="none" stroke="#191970" d="M207.8132,-112.2455C201.1411,-104.2958 191.5521,-92.8706 183.5747,-83.3656"/>
<polygon fill="#191970" stroke="#191970" points="186.2026,-81.0524 177.093,-75.6427 180.8408,-85.5525 186.2026,-81.0524"/>
</g>
<!-- Node9 -->
<g id="node10" class="node">
<title>Node9</title>
<g id="a_node10"><a xlink:href="drivers_2include_2periph_2gpio_8h.html" target="_top" xlink:title="Low&#45;level GPIO peripheral driver interface definitions. ">
<polygon fill="#ffffff" stroke="#000000" points="224,-56.5 224,-75.5 304,-75.5 304,-56.5 224,-56.5"/>
<text text-anchor="middle" x="264" y="-63.5" font-family="Helvetica,sans-Serif" font-size="10.00" fill="#000000">periph/gpio.h</text>
</a>
</g>
</g>
<!-- Node2&#45;&gt;Node9 -->
<g id="edge9" class="edge">
<title>Node2&#45;&gt;Node9</title>
<path fill="none" stroke="#191970" d="M224.361,-112.2455C231.175,-104.2958 240.9681,-92.8706 249.1152,-83.3656"/>
<polygon fill="#191970" stroke="#191970" points="251.8843,-85.513 255.7349,-75.6427 246.5695,-80.9575 251.8843,-85.513"/>
</g>
<!-- Node4 -->
<g id="node5" class="node">
<title>Node4</title>
<polygon fill="#ffffff" stroke="#bfbfbf" points="0,-.5 0,-19.5 52,-19.5 52,-.5 0,-.5"/>
<text text-anchor="middle" x="26" y="-7.5" font-family="Helvetica,sans-Serif" font-size="10.00" fill="#000000">stdint.h</text>
</g>
<!-- Node3&#45;&gt;Node4 -->
<g id="edge4" class="edge">
<title>Node3&#45;&gt;Node4</title>
<path fill="none" stroke="#191970" d="M144.4174,-56.3733C121.0504,-47.2226 85.7138,-33.3844 59.7216,-23.2057"/>
<polygon fill="#191970" stroke="#191970" points="60.8495,-19.8886 50.2618,-19.5011 58.297,-26.4066 60.8495,-19.8886"/>
</g>
<!-- Node5 -->
<g id="node6" class="node">
<title>Node5</title>
<polygon fill="#ffffff" stroke="#bfbfbf" points="70,-.5 70,-19.5 126,-19.5 126,-.5 70,-.5"/>
<text text-anchor="middle" x="98" y="-7.5" font-family="Helvetica,sans-Serif" font-size="10.00" fill="#000000">stddef.h</text>
</g>
<!-- Node3&#45;&gt;Node5 -->
<g id="edge5" class="edge">
<title>Node3&#45;&gt;Node5</title>
<path fill="none" stroke="#191970" d="M156.6327,-56.2455C146.0446,-47.8943 130.5936,-35.7076 118.2107,-25.9408"/>
<polygon fill="#191970" stroke="#191970" points="120.2447,-23.0875 110.2255,-19.6427 115.9097,-28.5837 120.2447,-23.0875"/>
</g>
<!-- Node6 -->
<g id="node7" class="node">
<title>Node6</title>
<polygon fill="#ffffff" stroke="#bfbfbf" points="144,-.5 144,-19.5 194,-19.5 194,-.5 144,-.5"/>
<text text-anchor="middle" x="169" y="-7.5" font-family="Helvetica,sans-Serif" font-size="10.00" fill="#000000">limits.h</text>
</g>
<!-- Node3&#45;&gt;Node6 -->
<g id="edge6" class="edge">
<title>Node3&#45;&gt;Node6</title>
<path fill="none" stroke="#191970" d="M169,-56.2455C169,-48.9382 169,-38.6944 169,-29.7046"/>
<polygon fill="#191970" stroke="#191970" points="172.5001,-29.6426 169,-19.6427 165.5001,-29.6427 172.5001,-29.6426"/>
</g>
<!-- Node7 -->
<g id="node8" class="node">
<title>Node7</title>
<polygon fill="#ffffff" stroke="#bfbfbf" points="212.5,-.5 212.5,-19.5 293.5,-19.5 293.5,-.5 212.5,-.5"/>
<text text-anchor="middle" x="253" y="-7.5" font-family="Helvetica,sans-Serif" font-size="10.00" fill="#000000">periph_conf.h</text>
</g>
<!-- Node3&#45;&gt;Node7 -->
<g id="edge7" class="edge">
<title>Node3&#45;&gt;Node7</title>
<path fill="none" stroke="#191970" d="M183.6317,-56.2455C196.3994,-47.7337 215.1438,-35.2375 229.9299,-25.3801"/>
<polygon fill="#191970" stroke="#191970" points="232.1569,-28.1019 238.536,-19.6427 228.274,-22.2775 232.1569,-28.1019"/>
</g>
<!-- Node8 -->
<g id="node9" class="node">
<title>Node8</title>
<polygon fill="#ffffff" stroke="#bfbfbf" points="311.5,-.5 311.5,-19.5 388.5,-19.5 388.5,-.5 311.5,-.5"/>
<text text-anchor="middle" x="350" y="-7.5" font-family="Helvetica,sans-Serif" font-size="10.00" fill="#000000">periph_cpu.h</text>
</g>
<!-- Node3&#45;&gt;Node8 -->
<g id="edge8" class="edge">
<title>Node3&#45;&gt;Node8</title>
<path fill="none" stroke="#191970" d="M200.115,-56.3733C230.3429,-47.021 276.396,-32.7725 309.4739,-22.5385"/>
<polygon fill="#191970" stroke="#191970" points="310.7723,-25.8005 319.291,-19.5011 308.7033,-19.1133 310.7723,-25.8005"/>
</g>
<!-- Node9&#45;&gt;Node6 -->
<g id="edge10" class="edge">
<title>Node9&#45;&gt;Node6</title>
<path fill="none" stroke="#191970" d="M247.4523,-56.2455C232.7401,-47.5731 211.0112,-34.7645 194.1495,-24.825"/>
<polygon fill="#191970" stroke="#191970" points="195.7502,-21.7057 185.3581,-19.6427 192.1954,-27.736 195.7502,-21.7057"/>
</g>
<!-- Node9&#45;&gt;Node7 -->
<g id="edge13" class="edge">
<title>Node9&#45;&gt;Node7</title>
<path fill="none" stroke="#191970" d="M262.0839,-56.2455C260.6486,-48.9382 258.6364,-38.6944 256.8705,-29.7046"/>
<polygon fill="#191970" stroke="#191970" points="260.256,-28.7805 254.8941,-19.6427 253.3873,-30.1298 260.256,-28.7805"/>
</g>
<!-- Node9&#45;&gt;Node8 -->
<g id="edge12" class="edge">
<title>Node9&#45;&gt;Node8</title>
<path fill="none" stroke="#191970" d="M278.9801,-56.2455C292.1751,-47.6534 311.6051,-35.0014 326.8079,-25.1018"/>
<polygon fill="#191970" stroke="#191970" points="328.7215,-28.0325 335.1916,-19.6427 324.9017,-22.1665 328.7215,-28.0325"/>
</g>
<!-- Node10 -->
<g id="node11" class="node">
<title>Node10</title>
<polygon fill="#ffffff" stroke="#bfbfbf" points="407,-.5 407,-19.5 467,-19.5 467,-.5 407,-.5"/>
<text text-anchor="middle" x="437" y="-7.5" font-family="Helvetica,sans-Serif" font-size="10.00" fill="#000000">stdbool.h</text>
</g>
<!-- Node9&#45;&gt;Node10 -->
<g id="edge11" class="edge">
<title>Node9&#45;&gt;Node10</title>
<path fill="none" stroke="#191970" d="M293.7398,-56.3733C322.507,-47.0613 366.27,-32.8953 397.8556,-22.671"/>
<polygon fill="#191970" stroke="#191970" points="399.2122,-25.9107 407.6483,-19.5011 397.0564,-19.251 399.2122,-25.9107"/>
</g>
</g>
</svg>
