<?xml version="1.0" encoding="UTF-8" standalone="no"?>
<!DOCTYPE svg PUBLIC "-//W3C//DTD SVG 1.1//EN"
 "http://www.w3.org/Graphics/SVG/1.1/DTD/svg11.dtd">
<!-- Generated by graphviz version 2.40.1 (0)
 -->
<!-- Title: drivers/include/lis2dh12.h Pages: 1 -->
<svg width="710pt" height="140pt"
 viewBox="0.00 0.00 709.50 140.00" xmlns="http://www.w3.org/2000/svg" xmlns:xlink="http://www.w3.org/1999/xlink">
<g id="graph0" class="graph" transform="scale(1 1) rotate(0) translate(4 136)">
<title>drivers/include/lis2dh12.h</title>
<polygon fill="#ffffff" stroke="transparent" points="-4,4 -4,-136 705.5,-136 705.5,4 -4,4"/>
<!-- Node0 -->
<g id="node1" class="node">
<title>Node0</title>
<polygon fill="#bfbfbf" stroke="#000000" points="295.5,-112.5 295.5,-131.5 433.5,-131.5 433.5,-112.5 295.5,-112.5"/>
<text text-anchor="middle" x="364.5" y="-119.5" font-family="Helvetica,sans-Serif" font-size="10.00" fill="#000000">drivers/include/lis2dh12.h</text>
</g>
<!-- Node1 -->
<g id="node2" class="node">
<title>Node1</title>
<polygon fill="#ffffff" stroke="#bfbfbf" points="234.5,-.5 234.5,-19.5 286.5,-19.5 286.5,-.5 234.5,-.5"/>
<text text-anchor="middle" x="260.5" y="-7.5" font-family="Helvetica,sans-Serif" font-size="10.00" fill="#000000">stdint.h</text>
</g>
<!-- Node0&#45;&gt;Node1 -->
<g id="edge1" class="edge">
<title>Node0&#45;&gt;Node1</title>
<path fill="none" stroke="#191970" d="M355.633,-112.4509C338.0568,-93.5227 298.5845,-51.014 276.4045,-27.1279"/>
<polygon fill="#191970" stroke="#191970" points="278.7139,-24.4713 269.3445,-19.5249 273.5843,-29.2344 278.7139,-24.4713"/>
</g>
<!-- Node2 -->
<g id="node3" class="node">
<title>Node2</title>
<polygon fill="#ffffff" stroke="#bfbfbf" points="304.5,-.5 304.5,-19.5 364.5,-19.5 364.5,-.5 304.5,-.5"/>
<text text-anchor="middle" x="334.5" y="-7.5" font-family="Helvetica,sans-Serif" font-size="10.00" fill="#000000">stdbool.h</text>
</g>
<!-- Node0&#45;&gt;Node2 -->
<g id="edge2" class="edge">
<title>Node0&#45;&gt;Node2</title>
<path fill="none" stroke="#191970" d="M361.0179,-112.2087C357.7943,-102.9499 352.987,-88.6315 349.5,-76 345.2495,-60.6025 341.2835,-42.9475 338.4985,-29.7741"/>
<polygon fill="#191970" stroke="#191970" points="341.9111,-28.9932 336.4564,-19.9104 335.0565,-30.4123 341.9111,-28.9932"/>
</g>
<!-- Node3 -->
<g id="node4" class="node">
<title>Node3</title>
<g id="a_node4"><a xlink:href="drivers_2include_2saul_8h.html" target="_top" xlink:title="Definition of the generic [S]ensor [A]ctuator [U]ber [L]ayer. ">
<polygon fill="#ffffff" stroke="#000000" points="165.5,-56.5 165.5,-75.5 209.5,-75.5 209.5,-56.5 165.5,-56.5"/>
<text text-anchor="middle" x="187.5" y="-63.5" font-family="Helvetica,sans-Serif" font-size="10.00" fill="#000000">saul.h</text>
</a>
</g>
</g>
<!-- Node0&#45;&gt;Node3 -->
<g id="edge3" class="edge">
<title>Node0&#45;&gt;Node3</title>
<path fill="none" stroke="#191970" d="M334.0726,-112.3733C302.1429,-102.2712 252.1568,-86.4564 219.6097,-76.159"/>
<polygon fill="#191970" stroke="#191970" points="220.2902,-72.7034 209.7002,-73.0238 218.1786,-79.3773 220.2902,-72.7034"/>
</g>
<!-- Node7 -->
<g id="node8" class="node">
<title>Node7</title>
<g id="a_node8"><a xlink:href="lis2dh12__registers_8h.html" target="_top" xlink:title="LIS2DH12 register definitions. ">
<polygon fill="#ffffff" stroke="#000000" points="548,-56.5 548,-75.5 659,-75.5 659,-56.5 548,-56.5"/>
<text text-anchor="middle" x="603.5" y="-63.5" font-family="Helvetica,sans-Serif" font-size="10.00" fill="#000000">lis2dh12_registers.h</text>
</a>
</g>
</g>
<!-- Node0&#45;&gt;Node7 -->
<g id="edge8" class="edge">
<title>Node0&#45;&gt;Node7</title>
<path fill="none" stroke="#191970" d="M405.314,-112.4369C446.1311,-102.8731 508.9959,-88.1432 552.9472,-77.845"/>
<polygon fill="#191970" stroke="#191970" points="553.9165,-81.2128 562.8543,-75.5237 552.3195,-74.3973 553.9165,-81.2128"/>
</g>
<!-- Node8 -->
<g id="node9" class="node">
<title>Node8</title>
<g id="a_node9"><a xlink:href="drivers_2include_2periph_2gpio_8h.html" target="_top" xlink:title="Low&#45;level GPIO peripheral driver interface definitions. ">
<polygon fill="#ffffff" stroke="#000000" points="358.5,-56.5 358.5,-75.5 438.5,-75.5 438.5,-56.5 358.5,-56.5"/>
<text text-anchor="middle" x="398.5" y="-63.5" font-family="Helvetica,sans-Serif" font-size="10.00" fill="#000000">periph/gpio.h</text>
</a>
</g>
</g>
<!-- Node0&#45;&gt;Node8 -->
<g id="edge9" class="edge">
<title>Node0&#45;&gt;Node8</title>
<path fill="none" stroke="#191970" d="M370.4223,-112.2455C375.1027,-104.5367 381.7673,-93.5598 387.4289,-84.2348"/>
<polygon fill="#191970" stroke="#191970" points="390.4475,-86.007 392.6455,-75.6427 384.4639,-82.3741 390.4475,-86.007"/>
</g>
<!-- Node12 -->
<g id="node13" class="node">
<title>Node12</title>
<g id="a_node13"><a xlink:href="i2c_8h.html" target="_top" xlink:title="Low&#45;level I2C peripheral driver interface definition. ">
<polygon fill="#ffffff" stroke="#000000" points="457,-56.5 457,-75.5 530,-75.5 530,-56.5 457,-56.5"/>
<text text-anchor="middle" x="493.5" y="-63.5" font-family="Helvetica,sans-Serif" font-size="10.00" fill="#000000">periph/i2c.h</text>
</a>
</g>
</g>
<!-- Node0&#45;&gt;Node12 -->
<g id="edge14" class="edge">
<title>Node0&#45;&gt;Node12</title>
<path fill="none" stroke="#191970" d="M386.6759,-112.3733C407.4766,-103.3435 438.7917,-89.7494 462.1458,-79.6111"/>
<polygon fill="#191970" stroke="#191970" points="463.8343,-82.6938 471.6135,-75.5011 461.0468,-76.2727 463.8343,-82.6938"/>
</g>
<!-- Node3&#45;&gt;Node1 -->
<g id="edge5" class="edge">
<title>Node3&#45;&gt;Node1</title>
<path fill="none" stroke="#191970" d="M200.2156,-56.2455C211.102,-47.8943 226.9883,-35.7076 239.72,-25.9408"/>
<polygon fill="#191970" stroke="#191970" points="242.1261,-28.5063 247.9301,-19.6427 237.8654,-22.9523 242.1261,-28.5063"/>
</g>
<!-- Node4 -->
<g id="node5" class="node">
<title>Node4</title>
<g id="a_node5"><a xlink:href="errno_8h.html" target="_top" xlink:title="errno.h">
<polygon fill="#ffffff" stroke="#000000" points="0,-.5 0,-19.5 53,-19.5 53,-.5 0,-.5"/>
<text text-anchor="middle" x="26.5" y="-7.5" font-family="Helvetica,sans-Serif" font-size="10.00" fill="#000000">errno.h</text>
</a>
</g>
</g>
<!-- Node3&#45;&gt;Node4 -->
<g id="edge4" class="edge">
<title>Node3&#45;&gt;Node4</title>
<path fill="none" stroke="#191970" d="M165.4512,-58.3309C139.0296,-49.1407 94.3811,-33.6108 62.8361,-22.6386"/>
<polygon fill="#191970" stroke="#191970" points="63.6892,-19.2297 53.0943,-19.2502 61.3895,-25.8412 63.6892,-19.2297"/>
</g>
<!-- Node5 -->
<g id="node6" class="node">
<title>Node5</title>
<polygon fill="#ffffff" stroke="#bfbfbf" points="71,-.5 71,-19.5 140,-19.5 140,-.5 71,-.5"/>
<text text-anchor="middle" x="105.5" y="-7.5" font-family="Helvetica,sans-Serif" font-size="10.00" fill="#000000">sys/types.h</text>
</g>
<!-- Node3&#45;&gt;Node5 -->
<g id="edge6" class="edge">
<title>Node3&#45;&gt;Node5</title>
<path fill="none" stroke="#191970" d="M173.2167,-56.2455C160.753,-47.7337 142.4549,-35.2375 128.0208,-25.3801"/>
<polygon fill="#191970" stroke="#191970" points="129.8515,-22.392 119.6196,-19.6427 125.9038,-28.1726 129.8515,-22.392"/>
</g>
<!-- Node6 -->
<g id="node7" class="node">
<title>Node6</title>
<polygon fill="#ffffff" stroke="#bfbfbf" points="158.5,-.5 158.5,-19.5 216.5,-19.5 216.5,-.5 158.5,-.5"/>
<text text-anchor="middle" x="187.5" y="-7.5" font-family="Helvetica,sans-Serif" font-size="10.00" fill="#000000">phydat.h</text>
</g>
<!-- Node3&#45;&gt;Node6 -->
<g id="edge7" class="edge">
<title>Node3&#45;&gt;Node6</title>
<path fill="none" stroke="#191970" d="M187.5,-56.2455C187.5,-48.9382 187.5,-38.6944 187.5,-29.7046"/>
<polygon fill="#191970" stroke="#191970" points="191.0001,-29.6426 187.5,-19.6427 184.0001,-29.6427 191.0001,-29.6426"/>
</g>
<!-- Node8&#45;&gt;Node2 -->
<g id="edge11" class="edge">
<title>Node8&#45;&gt;Node2</title>
<path fill="none" stroke="#191970" d="M387.3521,-56.2455C377.9913,-48.0549 364.4142,-36.1749 353.3651,-26.5069"/>
<polygon fill="#191970" stroke="#191970" points="355.3508,-23.5937 345.5202,-19.6427 350.7412,-28.8618 355.3508,-23.5937"/>
</g>
<!-- Node9 -->
<g id="node10" class="node">
<title>Node9</title>
<polygon fill="#ffffff" stroke="#bfbfbf" points="382.5,-.5 382.5,-19.5 432.5,-19.5 432.5,-.5 382.5,-.5"/>
<text text-anchor="middle" x="407.5" y="-7.5" font-family="Helvetica,sans-Serif" font-size="10.00" fill="#000000">limits.h</text>
</g>
<!-- Node8&#45;&gt;Node9 -->
<g id="edge10" class="edge">
<title>Node8&#45;&gt;Node9</title>
<path fill="none" stroke="#191970" d="M400.0677,-56.2455C401.2421,-48.9382 402.8884,-38.6944 404.3332,-29.7046"/>
<polygon fill="#191970" stroke="#191970" points="407.8191,-30.0714 405.9503,-19.6427 400.9078,-28.9606 407.8191,-30.0714"/>
</g>
<!-- Node10 -->
<g id="node11" class="node">
<title>Node10</title>
<polygon fill="#ffffff" stroke="#bfbfbf" points="451,-.5 451,-19.5 528,-19.5 528,-.5 451,-.5"/>
<text text-anchor="middle" x="489.5" y="-7.5" font-family="Helvetica,sans-Serif" font-size="10.00" fill="#000000">periph_cpu.h</text>
</g>
<!-- Node8&#45;&gt;Node10 -->
<g id="edge12" class="edge">
<title>Node8&#45;&gt;Node10</title>
<path fill="none" stroke="#191970" d="M414.351,-56.2455C428.3132,-47.6534 448.8728,-35.0014 464.9596,-25.1018"/>
<polygon fill="#191970" stroke="#191970" points="467.1484,-27.8645 473.8307,-19.6427 463.4797,-21.9029 467.1484,-27.8645"/>
</g>
<!-- Node11 -->
<g id="node12" class="node">
<title>Node11</title>
<polygon fill="#ffffff" stroke="#bfbfbf" points="546,-.5 546,-19.5 627,-19.5 627,-.5 546,-.5"/>
<text text-anchor="middle" x="586.5" y="-7.5" font-family="Helvetica,sans-Serif" font-size="10.00" fill="#000000">periph_conf.h</text>
</g>
<!-- Node8&#45;&gt;Node11 -->
<g id="edge13" class="edge">
<title>Node8&#45;&gt;Node11</title>
<path fill="none" stroke="#191970" d="M430.8184,-56.3733C462.3506,-46.9807 510.4621,-32.6496 544.8501,-22.4064"/>
<polygon fill="#191970" stroke="#191970" points="546.0187,-25.7103 554.6034,-19.5011 544.0203,-19.0016 546.0187,-25.7103"/>
</g>
<!-- Node12&#45;&gt;Node1 -->
<g id="edge15" class="edge">
<title>Node12&#45;&gt;Node1</title>
<path fill="none" stroke="#191970" d="M456.8732,-58.0665C419.0539,-49.7476 358.1161,-35.9906 296.6934,-20.224"/>
<polygon fill="#191970" stroke="#191970" points="297.3923,-16.7897 286.8347,-17.6768 295.6412,-23.5672 297.3923,-16.7897"/>
</g>
<!-- Node12&#45;&gt;Node9 -->
<g id="edge17" class="edge">
<title>Node12&#45;&gt;Node9</title>
<path fill="none" stroke="#191970" d="M478.5199,-56.2455C465.3249,-47.6534 445.8949,-35.0014 430.6921,-25.1018"/>
<polygon fill="#191970" stroke="#191970" points="432.5983,-22.1665 422.3084,-19.6427 428.7785,-28.0325 432.5983,-22.1665"/>
</g>
<!-- Node12&#45;&gt;Node10 -->
<g id="edge19" class="edge">
<title>Node12&#45;&gt;Node10</title>
<path fill="none" stroke="#191970" d="M492.8033,-56.2455C492.2813,-48.9382 491.5496,-38.6944 490.9075,-29.7046"/>
<polygon fill="#191970" stroke="#191970" points="494.3924,-29.3679 490.1888,-19.6427 487.4102,-29.8667 494.3924,-29.3679"/>
</g>
<!-- Node12&#45;&gt;Node11 -->
<g id="edge18" class="edge">
<title>Node12&#45;&gt;Node11</title>
<path fill="none" stroke="#191970" d="M509.6994,-56.2455C524.1018,-47.5731 545.3732,-34.7645 561.8799,-24.825"/>
<polygon fill="#191970" stroke="#191970" points="563.725,-27.7996 570.4863,-19.6427 560.114,-21.8028 563.725,-27.7996"/>
</g>
<!-- Node13 -->
<g id="node14" class="node">
<title>Node13</title>
<polygon fill="#ffffff" stroke="#bfbfbf" points="645.5,-.5 645.5,-19.5 701.5,-19.5 701.5,-.5 645.5,-.5"/>
<text text-anchor="middle" x="673.5" y="-7.5" font-family="Helvetica,sans-Serif" font-size="10.00" fill="#000000">stddef.h</text>
</g>
<!-- Node12&#45;&gt;Node13 -->
<g id="edge16" class="edge">
<title>Node12&#45;&gt;Node13</title>
<path fill="none" stroke="#191970" d="M524.4431,-56.3733C555.2327,-46.7943 602.5324,-32.0788 635.567,-21.8014"/>
<polygon fill="#191970" stroke="#191970" points="636.8183,-25.0776 645.3271,-18.7649 634.7388,-18.3936 636.8183,-25.0776"/>
</g>
</g>
</svg>
