<?xml version="1.0" encoding="UTF-8" standalone="no"?>
<!DOCTYPE svg PUBLIC "-//W3C//DTD SVG 1.1//EN"
 "http://www.w3.org/Graphics/SVG/1.1/DTD/svg11.dtd">
<!-- Generated by graphviz version 2.40.1 (0)
 -->
<!-- Title: cpu/lm4f120/include/cpu_conf.h Pages: 1 -->
<svg width="2184pt" height="106pt"
 viewBox="0.00 0.00 2183.50 106.00" xmlns="http://www.w3.org/2000/svg" xmlns:xlink="http://www.w3.org/1999/xlink">
<g id="graph0" class="graph" transform="scale(1 1) rotate(0) translate(4 102)">
<title>cpu/lm4f120/include/cpu_conf.h</title>
<polygon fill="#ffffff" stroke="transparent" points="-4,4 -4,-102 2179.5,-102 2179.5,4 -4,4"/>
<!-- Node0 -->
<g id="node1" class="node">
<title>Node0</title>
<polygon fill="#bfbfbf" stroke="#000000" points="903.5,-67.5 903.5,-97.5 1016.5,-97.5 1016.5,-67.5 903.5,-67.5"/>
<text text-anchor="start" x="911.5" y="-85.5" font-family="Helvetica,sans-Serif" font-size="10.00" fill="#000000">cpu/lm4f120/include</text>
<text text-anchor="middle" x="960" y="-74.5" font-family="Helvetica,sans-Serif" font-size="10.00" fill="#000000">/cpu_conf.h</text>
</g>
<!-- Node1 -->
<g id="node2" class="node">
<title>Node1</title>
<polygon fill="#ffffff" stroke="#bfbfbf" points="0,-6 0,-25 112,-25 112,-6 0,-6"/>
<text text-anchor="middle" x="56" y="-13" font-family="Helvetica,sans-Serif" font-size="10.00" fill="#000000">cpu_conf_common.h</text>
</g>
<!-- Node0&#45;&gt;Node1 -->
<g id="edge1" class="edge">
<title>Node0&#45;&gt;Node1</title>
<path fill="none" stroke="#191970" d="M903.439,-80.305C740.598,-73.7828 272.6525,-53.563 121,-31 114.5992,-30.0477 107.9017,-28.7745 101.3407,-27.3654"/>
<polygon fill="#191970" stroke="#191970" points="101.7318,-23.8652 91.2052,-25.0659 100.183,-30.6918 101.7318,-23.8652"/>
</g>
<!-- Node2 -->
<g id="node3" class="node">
<title>Node2</title>
<polygon fill="#ffffff" stroke="#bfbfbf" points="130,-6 130,-25 190,-25 190,-6 130,-6"/>
<text text-anchor="middle" x="160" y="-13" font-family="Helvetica,sans-Serif" font-size="10.00" fill="#000000">hw_ints.h</text>
</g>
<!-- Node0&#45;&gt;Node2 -->
<g id="edge2" class="edge">
<title>Node0&#45;&gt;Node2</title>
<path fill="none" stroke="#191970" d="M903.3865,-80.9422C750.7393,-76.38 333.1476,-61.4113 199,-31 196.1355,-30.3506 193.2061,-29.5214 190.3032,-28.5851"/>
<polygon fill="#191970" stroke="#191970" points="191.2631,-25.2103 180.6689,-25.0948 188.8788,-31.7917 191.2631,-25.2103"/>
</g>
<!-- Node3 -->
<g id="node4" class="node">
<title>Node3</title>
<polygon fill="#ffffff" stroke="#bfbfbf" points="208,-6 208,-25 296,-25 296,-6 208,-6"/>
<text text-anchor="middle" x="252" y="-13" font-family="Helvetica,sans-Serif" font-size="10.00" fill="#000000">hw_memmap.h</text>
</g>
<!-- Node0&#45;&gt;Node3 -->
<g id="edge3" class="edge">
<title>Node0&#45;&gt;Node3</title>
<path fill="none" stroke="#191970" d="M903.3127,-79.5473C766.1427,-72.16 419.2263,-51.9618 305,-31 300.2411,-30.1267 295.2987,-28.9953 290.4301,-27.7415"/>
<polygon fill="#191970" stroke="#191970" points="291.1933,-24.3214 280.6228,-25.0396 289.334,-31.07 291.1933,-24.3214"/>
</g>
<!-- Node4 -->
<g id="node5" class="node">
<title>Node4</title>
<polygon fill="#ffffff" stroke="#bfbfbf" points="314,-6 314,-25 376,-25 376,-6 314,-6"/>
<text text-anchor="middle" x="345" y="-13" font-family="Helvetica,sans-Serif" font-size="10.00" fill="#000000">hw_nvic.h</text>
</g>
<!-- Node0&#45;&gt;Node4 -->
<g id="edge4" class="edge">
<title>Node0&#45;&gt;Node4</title>
<path fill="none" stroke="#191970" d="M903.0354,-79.4318C777.9114,-72.362 482.476,-53.7725 385,-31 382.1444,-30.3329 379.221,-29.5043 376.3181,-28.5797"/>
<polygon fill="#191970" stroke="#191970" points="377.2511,-25.1972 366.6563,-25.1613 374.9163,-31.7964 377.2511,-25.1972"/>
</g>
<!-- Node5 -->
<g id="node6" class="node">
<title>Node5</title>
<polygon fill="#ffffff" stroke="#bfbfbf" points="394,-6 394,-25 462,-25 462,-6 394,-6"/>
<text text-anchor="middle" x="428" y="-13" font-family="Helvetica,sans-Serif" font-size="10.00" fill="#000000">hw_sysctl.h</text>
</g>
<!-- Node0&#45;&gt;Node5 -->
<g id="edge5" class="edge">
<title>Node0&#45;&gt;Node5</title>
<path fill="none" stroke="#191970" d="M903.1707,-80.9456C811.2493,-77.447 624.7214,-66.2556 471,-31 467.7514,-30.255 464.4114,-29.3372 461.0974,-28.3234"/>
<polygon fill="#191970" stroke="#191970" points="461.9443,-24.9163 451.3506,-25.0707 459.7284,-31.5563 461.9443,-24.9163"/>
</g>
<!-- Node6 -->
<g id="node7" class="node">
<title>Node6</title>
<polygon fill="#ffffff" stroke="#bfbfbf" points="480.5,-6 480.5,-25 549.5,-25 549.5,-6 480.5,-6"/>
<text text-anchor="middle" x="515" y="-13" font-family="Helvetica,sans-Serif" font-size="10.00" fill="#000000">hw_types.h</text>
</g>
<!-- Node0&#45;&gt;Node6 -->
<g id="edge6" class="edge">
<title>Node0&#45;&gt;Node6</title>
<path fill="none" stroke="#191970" d="M903.2071,-78.9924C824.8855,-73.3011 679.7021,-59.6711 559,-31 555.7693,-30.2326 552.4448,-29.3134 549.1395,-28.3108"/>
<polygon fill="#191970" stroke="#191970" points="549.9865,-24.9053 539.3938,-25.1207 547.8088,-31.558 549.9865,-24.9053"/>
</g>
<!-- Node7 -->
<g id="node8" class="node">
<title>Node7</title>
<polygon fill="#ffffff" stroke="#bfbfbf" points="568,-6 568,-25 660,-25 660,-6 568,-6"/>
<text text-anchor="middle" x="614" y="-13" font-family="Helvetica,sans-Serif" font-size="10.00" fill="#000000">cortex&#45;m4&#45;def.h</text>
</g>
<!-- Node0&#45;&gt;Node7 -->
<g id="edge7" class="edge">
<title>Node0&#45;&gt;Node7</title>
<path fill="none" stroke="#191970" d="M903.335,-74.1828C844.4455,-65.14 749.7718,-49.4806 669,-31 664.6391,-30.0022 660.1081,-28.875 655.602,-27.695"/>
<polygon fill="#191970" stroke="#191970" points="656.4204,-24.2906 645.8534,-25.0569 654.5919,-31.0476 656.4204,-24.2906"/>
</g>
<!-- Node8 -->
<g id="node9" class="node">
<title>Node8</title>
<polygon fill="#ffffff" stroke="#bfbfbf" points="678,-6 678,-25 794,-25 794,-6 678,-6"/>
<text text-anchor="middle" x="736" y="-13" font-family="Helvetica,sans-Serif" font-size="10.00" fill="#000000">stellaris_periph/cpu.h</text>
</g>
<!-- Node0&#45;&gt;Node8 -->
<g id="edge8" class="edge">
<title>Node0&#45;&gt;Node8</title>
<path fill="none" stroke="#191970" d="M909.73,-67.4639C869.9962,-55.5792 815.1883,-39.1858 777.827,-28.0108"/>
<polygon fill="#191970" stroke="#191970" points="778.3625,-24.5178 767.7789,-25.0053 776.3565,-31.2242 778.3625,-24.5178"/>
</g>
<!-- Node9 -->
<g id="node10" class="node">
<title>Node9</title>
<polygon fill="#ffffff" stroke="#bfbfbf" points="812.5,-6 812.5,-25 955.5,-25 955.5,-6 812.5,-6"/>
<text text-anchor="middle" x="884" y="-13" font-family="Helvetica,sans-Serif" font-size="10.00" fill="#000000">stellaris_periph/interrupt.h</text>
</g>
<!-- Node0&#45;&gt;Node9 -->
<g id="edge9" class="edge">
<title>Node0&#45;&gt;Node9</title>
<path fill="none" stroke="#191970" d="M942.7544,-67.2967C930.7983,-56.7564 914.8881,-42.7303 902.6396,-31.9323"/>
<polygon fill="#191970" stroke="#191970" points="904.6543,-29.0425 894.8385,-25.055 900.0252,-34.2934 904.6543,-29.0425"/>
</g>
<!-- Node10 -->
<g id="node11" class="node">
<title>Node10</title>
<polygon fill="#ffffff" stroke="#bfbfbf" points="973.5,-6 973.5,-25 1098.5,-25 1098.5,-6 973.5,-6"/>
<text text-anchor="middle" x="1036" y="-13" font-family="Helvetica,sans-Serif" font-size="10.00" fill="#000000">stellaris_periph/sysctl.h</text>
</g>
<!-- Node0&#45;&gt;Node10 -->
<g id="edge10" class="edge">
<title>Node0&#45;&gt;Node10</title>
<path fill="none" stroke="#191970" d="M977.2456,-67.2967C989.2017,-56.7564 1005.1119,-42.7303 1017.3604,-31.9323"/>
<polygon fill="#191970" stroke="#191970" points="1019.9748,-34.2934 1025.1615,-25.055 1015.3457,-29.0425 1019.9748,-34.2934"/>
</g>
<!-- Node11 -->
<g id="node12" class="node">
<title>Node11</title>
<polygon fill="#ffffff" stroke="#bfbfbf" points="1117,-6 1117,-25 1233,-25 1233,-6 1117,-6"/>
<text text-anchor="middle" x="1175" y="-13" font-family="Helvetica,sans-Serif" font-size="10.00" fill="#000000">stellaris_periph/adc.h</text>
</g>
<!-- Node0&#45;&gt;Node11 -->
<g id="edge11" class="edge">
<title>Node0&#45;&gt;Node11</title>
<path fill="none" stroke="#191970" d="M1008.2502,-67.4639C1046.3876,-55.5792 1098.9934,-39.1858 1134.8536,-28.0108"/>
<polygon fill="#191970" stroke="#191970" points="1135.9921,-31.322 1144.498,-25.0053 1133.9095,-24.639 1135.9921,-31.322"/>
</g>
<!-- Node12 -->
<g id="node13" class="node">
<title>Node12</title>
<polygon fill="#ffffff" stroke="#bfbfbf" points="1251,-6 1251,-25 1371,-25 1371,-6 1251,-6"/>
<text text-anchor="middle" x="1311" y="-13" font-family="Helvetica,sans-Serif" font-size="10.00" fill="#000000">stellaris_periph/gpio.h</text>
</g>
<!-- Node0&#45;&gt;Node12 -->
<g id="edge12" class="edge">
<title>Node0&#45;&gt;Node12</title>
<path fill="none" stroke="#191970" d="M1016.5756,-72.8591C1073.6053,-62.9785 1164.093,-46.8576 1242,-31 1247.7805,-29.8234 1253.8217,-28.5425 1259.8222,-27.2378"/>
<polygon fill="#191970" stroke="#191970" points="1260.8157,-30.603 1269.8288,-25.034 1259.3101,-23.7668 1260.8157,-30.603"/>
</g>
<!-- Node13 -->
<g id="node14" class="node">
<title>Node13</title>
<polygon fill="#ffffff" stroke="#bfbfbf" points="1389.5,-6 1389.5,-25 1514.5,-25 1514.5,-6 1389.5,-6"/>
<text text-anchor="middle" x="1452" y="-13" font-family="Helvetica,sans-Serif" font-size="10.00" fill="#000000">stellaris_periph/timer.h</text>
</g>
<!-- Node0&#45;&gt;Node13 -->
<g id="edge13" class="edge">
<title>Node0&#45;&gt;Node13</title>
<path fill="none" stroke="#191970" d="M1016.6188,-77.1921C1097.5138,-69.2378 1250.6938,-52.8006 1380,-31 1386.6923,-29.8717 1393.7047,-28.545 1400.6167,-27.1506"/>
<polygon fill="#191970" stroke="#191970" points="1401.5424,-30.5331 1410.6228,-25.0744 1400.1202,-23.6791 1401.5424,-30.5331"/>
</g>
<!-- Node14 -->
<g id="node15" class="node">
<title>Node14</title>
<polygon fill="#ffffff" stroke="#bfbfbf" points="1532.5,-.5 1532.5,-30.5 1637.5,-30.5 1637.5,-.5 1532.5,-.5"/>
<text text-anchor="start" x="1540.5" y="-18.5" font-family="Helvetica,sans-Serif" font-size="10.00" fill="#000000">stellaris_periph/pin</text>
<text text-anchor="middle" x="1585" y="-7.5" font-family="Helvetica,sans-Serif" font-size="10.00" fill="#000000">_map.h</text>
</g>
<!-- Node0&#45;&gt;Node14 -->
<g id="edge14" class="edge">
<title>Node0&#45;&gt;Node14</title>
<path fill="none" stroke="#191970" d="M1016.8215,-80.2778C1117.2229,-75.7051 1332.5938,-62.9987 1522.335,-31.1363"/>
<polygon fill="#191970" stroke="#191970" points="1522.9367,-34.5843 1532.2081,-29.4569 1521.7628,-27.6834 1522.9367,-34.5843"/>
</g>
<!-- Node15 -->
<g id="node16" class="node">
<title>Node15</title>
<polygon fill="#ffffff" stroke="#bfbfbf" points="1655.5,-6 1655.5,-25 1774.5,-25 1774.5,-6 1655.5,-6"/>
<text text-anchor="middle" x="1715" y="-13" font-family="Helvetica,sans-Serif" font-size="10.00" fill="#000000">stellaris_periph/uart.h</text>
</g>
<!-- Node0&#45;&gt;Node15 -->
<g id="edge15" class="edge">
<title>Node0&#45;&gt;Node15</title>
<path fill="none" stroke="#191970" d="M1016.8709,-81.1055C1134.9176,-77.5816 1414.8913,-65.9535 1647,-31 1653.7575,-29.9824 1660.8404,-28.6601 1667.7768,-27.217"/>
<polygon fill="#191970" stroke="#191970" points="1668.7541,-30.5863 1677.7798,-25.0376 1667.2639,-23.7467 1668.7541,-30.5863"/>
</g>
<!-- Node16 -->
<g id="node17" class="node">
<title>Node16</title>
<polygon fill="#ffffff" stroke="#bfbfbf" points="1792.5,-6 1792.5,-25 1903.5,-25 1903.5,-6 1792.5,-6"/>
<text text-anchor="middle" x="1848" y="-13" font-family="Helvetica,sans-Serif" font-size="10.00" fill="#000000">stellaris_periph/ssi.h</text>
</g>
<!-- Node0&#45;&gt;Node16 -->
<g id="edge16" class="edge">
<title>Node0&#45;&gt;Node16</title>
<path fill="none" stroke="#191970" d="M1016.7006,-80.2527C1177.6799,-73.6661 1635.4546,-53.4528 1784,-31 1790.3055,-30.0469 1796.9017,-28.7733 1803.3626,-27.364"/>
<polygon fill="#191970" stroke="#191970" points="1804.384,-30.7204 1813.3428,-25.0644 1802.8122,-23.8992 1804.384,-30.7204"/>
</g>
<!-- Node17 -->
<g id="node18" class="node">
<title>Node17</title>
<polygon fill="#ffffff" stroke="#bfbfbf" points="1922,-6 1922,-25 2038,-25 2038,-6 1922,-6"/>
<text text-anchor="middle" x="1980" y="-13" font-family="Helvetica,sans-Serif" font-size="10.00" fill="#000000">stellaris_periph/fpu.h</text>
</g>
<!-- Node0&#45;&gt;Node17 -->
<g id="edge17" class="edge">
<title>Node0&#45;&gt;Node17</title>
<path fill="none" stroke="#191970" d="M1016.529,-80.7333C1193.9277,-74.986 1738.1776,-55.755 1913,-31 1919.8305,-30.0328 1926.9908,-28.7126 1933.9841,-27.248"/>
<polygon fill="#191970" stroke="#191970" points="1935.0435,-30.5984 1944.0528,-25.0231 1933.5331,-23.7633 1935.0435,-30.5984"/>
</g>
<!-- Node18 -->
<g id="node19" class="node">
<title>Node18</title>
<polygon fill="#ffffff" stroke="#bfbfbf" points="2056.5,-6 2056.5,-25 2175.5,-25 2175.5,-6 2056.5,-6"/>
<text text-anchor="middle" x="2116" y="-13" font-family="Helvetica,sans-Serif" font-size="10.00" fill="#000000">stellaris_periph/rom.h</text>
</g>
<!-- Node0&#45;&gt;Node18 -->
<g id="edge18" class="edge">
<title>Node0&#45;&gt;Node18</title>
<path fill="none" stroke="#191970" d="M1016.511,-81.1198C1209.9595,-76.1921 1844.7923,-58.2913 2047,-31 2054.194,-30.0291 2061.7455,-28.6798 2069.1056,-27.1788"/>
<polygon fill="#191970" stroke="#191970" points="2069.9303,-30.5816 2078.9721,-25.0592 2068.46,-23.7377 2069.9303,-30.5816"/>
</g>
</g>
</svg>
