<?xml version="1.0" encoding="UTF-8" standalone="no"?>
<!DOCTYPE svg PUBLIC "-//W3C//DTD SVG 1.1//EN"
 "http://www.w3.org/Graphics/SVG/1.1/DTD/svg11.dtd">
<!-- Generated by graphviz version 2.40.1 (0)
 -->
<!-- Title: drivers/include/lm75.h Pages: 1 -->
<svg width="475pt" height="140pt"
 viewBox="0.00 0.00 475.00 140.00" xmlns="http://www.w3.org/2000/svg" xmlns:xlink="http://www.w3.org/1999/xlink">
<g id="graph0" class="graph" transform="scale(1 1) rotate(0) translate(4 136)">
<title>drivers/include/lm75.h</title>
<polygon fill="#ffffff" stroke="transparent" points="-4,4 -4,-136 471,-136 471,4 -4,4"/>
<!-- Node0 -->
<g id="node1" class="node">
<title>Node0</title>
<polygon fill="#bfbfbf" stroke="#000000" points="63,-112.5 63,-131.5 185,-131.5 185,-112.5 63,-112.5"/>
<text text-anchor="middle" x="124" y="-119.5" font-family="Helvetica,sans-Serif" font-size="10.00" fill="#000000">drivers/include/lm75.h</text>
</g>
<!-- Node1 -->
<g id="node2" class="node">
<title>Node1</title>
<polygon fill="#ffffff" stroke="#bfbfbf" points="0,-.5 0,-19.5 60,-19.5 60,-.5 0,-.5"/>
<text text-anchor="middle" x="30" y="-7.5" font-family="Helvetica,sans-Serif" font-size="10.00" fill="#000000">stdbool.h</text>
</g>
<!-- Node0&#45;&gt;Node1 -->
<g id="edge1" class="edge">
<title>Node0&#45;&gt;Node1</title>
<path fill="none" stroke="#191970" d="M112.4255,-112.4142C102.0405,-103.5269 86.6813,-89.654 75,-76 62.1078,-60.9307 49.5774,-42.1028 41.0273,-28.4175"/>
<polygon fill="#191970" stroke="#191970" points="43.9996,-26.5692 35.7884,-19.874 38.0322,-30.2285 43.9996,-26.5692"/>
</g>
<!-- Node2 -->
<g id="node3" class="node">
<title>Node2</title>
<g id="a_node3"><a xlink:href="i2c_8h.html" target="_top" xlink:title="Low&#45;level I2C peripheral driver interface definition. ">
<polygon fill="#ffffff" stroke="#000000" points="225.5,-56.5 225.5,-75.5 298.5,-75.5 298.5,-56.5 225.5,-56.5"/>
<text text-anchor="middle" x="262" y="-63.5" font-family="Helvetica,sans-Serif" font-size="10.00" fill="#000000">periph/i2c.h</text>
</a>
</g>
</g>
<!-- Node0&#45;&gt;Node2 -->
<g id="edge2" class="edge">
<title>Node0&#45;&gt;Node2</title>
<path fill="none" stroke="#191970" d="M147.723,-112.3733C170.1737,-103.2629 204.0739,-89.5062 229.1255,-79.3404"/>
<polygon fill="#191970" stroke="#191970" points="230.6365,-82.5045 238.5865,-75.5011 228.0043,-76.0182 230.6365,-82.5045"/>
</g>
<!-- Node8 -->
<g id="node9" class="node">
<title>Node8</title>
<g id="a_node9"><a xlink:href="drivers_2include_2periph_2gpio_8h.html" target="_top" xlink:title="Low&#45;level GPIO peripheral driver interface definitions. ">
<polygon fill="#ffffff" stroke="#000000" points="84,-56.5 84,-75.5 164,-75.5 164,-56.5 84,-56.5"/>
<text text-anchor="middle" x="124" y="-63.5" font-family="Helvetica,sans-Serif" font-size="10.00" fill="#000000">periph/gpio.h</text>
</a>
</g>
</g>
<!-- Node0&#45;&gt;Node8 -->
<g id="edge8" class="edge">
<title>Node0&#45;&gt;Node8</title>
<path fill="none" stroke="#191970" d="M124,-112.2455C124,-104.9382 124,-94.6944 124,-85.7046"/>
<polygon fill="#191970" stroke="#191970" points="127.5001,-85.6426 124,-75.6427 120.5001,-85.6427 127.5001,-85.6426"/>
</g>
<!-- Node3 -->
<g id="node4" class="node">
<title>Node3</title>
<polygon fill="#ffffff" stroke="#bfbfbf" points="341,-.5 341,-19.5 393,-19.5 393,-.5 341,-.5"/>
<text text-anchor="middle" x="367" y="-7.5" font-family="Helvetica,sans-Serif" font-size="10.00" fill="#000000">stdint.h</text>
</g>
<!-- Node2&#45;&gt;Node3 -->
<g id="edge3" class="edge">
<title>Node2&#45;&gt;Node3</title>
<path fill="none" stroke="#191970" d="M280.2896,-56.2455C296.7762,-47.4527 321.2352,-34.4079 339.9765,-24.4125"/>
<polygon fill="#191970" stroke="#191970" points="341.7435,-27.4368 348.92,-19.6427 338.4494,-21.2604 341.7435,-27.4368"/>
</g>
<!-- Node4 -->
<g id="node5" class="node">
<title>Node4</title>
<polygon fill="#ffffff" stroke="#bfbfbf" points="411,-.5 411,-19.5 467,-19.5 467,-.5 411,-.5"/>
<text text-anchor="middle" x="439" y="-7.5" font-family="Helvetica,sans-Serif" font-size="10.00" fill="#000000">stddef.h</text>
</g>
<!-- Node2&#45;&gt;Node4 -->
<g id="edge4" class="edge">
<title>Node2&#45;&gt;Node4</title>
<path fill="none" stroke="#191970" d="M292.4274,-56.3733C322.5247,-46.851 368.6653,-32.2528 401.1211,-21.9843"/>
<polygon fill="#191970" stroke="#191970" points="402.2429,-25.3004 410.7214,-18.9469 400.1314,-18.6265 402.2429,-25.3004"/>
</g>
<!-- Node5 -->
<g id="node6" class="node">
<title>Node5</title>
<polygon fill="#ffffff" stroke="#bfbfbf" points="78,-.5 78,-19.5 128,-19.5 128,-.5 78,-.5"/>
<text text-anchor="middle" x="103" y="-7.5" font-family="Helvetica,sans-Serif" font-size="10.00" fill="#000000">limits.h</text>
</g>
<!-- Node2&#45;&gt;Node5 -->
<g id="edge5" class="edge">
<title>Node2&#45;&gt;Node5</title>
<path fill="none" stroke="#191970" d="M234.6669,-56.3733C207.9006,-46.9461 167.009,-32.544 137.9045,-22.2934"/>
<polygon fill="#191970" stroke="#191970" points="138.7388,-18.8766 128.144,-18.8557 136.4133,-25.479 138.7388,-18.8766"/>
</g>
<!-- Node6 -->
<g id="node7" class="node">
<title>Node6</title>
<polygon fill="#ffffff" stroke="#bfbfbf" points="146.5,-.5 146.5,-19.5 227.5,-19.5 227.5,-.5 146.5,-.5"/>
<text text-anchor="middle" x="187" y="-7.5" font-family="Helvetica,sans-Serif" font-size="10.00" fill="#000000">periph_conf.h</text>
</g>
<!-- Node2&#45;&gt;Node6 -->
<g id="edge6" class="edge">
<title>Node2&#45;&gt;Node6</title>
<path fill="none" stroke="#191970" d="M248.936,-56.2455C237.6438,-47.814 221.1155,-35.4729 207.9729,-25.6598"/>
<polygon fill="#191970" stroke="#191970" points="210.0211,-22.8211 199.9143,-19.6427 205.8331,-28.4301 210.0211,-22.8211"/>
</g>
<!-- Node7 -->
<g id="node8" class="node">
<title>Node7</title>
<polygon fill="#ffffff" stroke="#bfbfbf" points="245.5,-.5 245.5,-19.5 322.5,-19.5 322.5,-.5 245.5,-.5"/>
<text text-anchor="middle" x="284" y="-7.5" font-family="Helvetica,sans-Serif" font-size="10.00" fill="#000000">periph_cpu.h</text>
</g>
<!-- Node2&#45;&gt;Node7 -->
<g id="edge7" class="edge">
<title>Node2&#45;&gt;Node7</title>
<path fill="none" stroke="#191970" d="M265.8321,-56.2455C268.7659,-48.7776 272.9047,-38.2427 276.491,-29.1137"/>
<polygon fill="#191970" stroke="#191970" points="279.8129,-30.23 280.2118,-19.6427 273.2976,-27.6704 279.8129,-30.23"/>
</g>
<!-- Node8&#45;&gt;Node1 -->
<g id="edge10" class="edge">
<title>Node8&#45;&gt;Node1</title>
<path fill="none" stroke="#191970" d="M107.6264,-56.2455C93.0692,-47.5731 71.569,-34.7645 54.8848,-24.825"/>
<polygon fill="#191970" stroke="#191970" points="56.5683,-21.7539 46.1859,-19.6427 52.9856,-27.7676 56.5683,-21.7539"/>
</g>
<!-- Node8&#45;&gt;Node5 -->
<g id="edge9" class="edge">
<title>Node8&#45;&gt;Node5</title>
<path fill="none" stroke="#191970" d="M120.3421,-56.2455C117.5416,-48.7776 113.591,-38.2427 110.1676,-29.1137"/>
<polygon fill="#191970" stroke="#191970" points="113.4045,-27.777 106.616,-19.6427 106.8501,-30.2349 113.4045,-27.777"/>
</g>
<!-- Node8&#45;&gt;Node6 -->
<g id="edge12" class="edge">
<title>Node8&#45;&gt;Node6</title>
<path fill="none" stroke="#191970" d="M134.9738,-56.2455C144.1882,-48.0549 157.5532,-36.1749 168.4297,-26.5069"/>
<polygon fill="#191970" stroke="#191970" points="171.0032,-28.9023 176.152,-19.6427 166.3526,-23.6704 171.0032,-28.9023"/>
</g>
<!-- Node8&#45;&gt;Node7 -->
<g id="edge11" class="edge">
<title>Node8&#45;&gt;Node7</title>
<path fill="none" stroke="#191970" d="M151.505,-56.3733C177.8802,-47.1419 217.8851,-33.1402 247.0358,-22.9375"/>
<polygon fill="#191970" stroke="#191970" points="248.5716,-26.1082 256.8539,-19.5011 246.2591,-19.5012 248.5716,-26.1082"/>
</g>
</g>
</svg>
