<?xml version="1.0" encoding="UTF-8" standalone="no"?>
<!DOCTYPE svg PUBLIC "-//W3C//DTD SVG 1.1//EN"
 "http://www.w3.org/Graphics/SVG/1.1/DTD/svg11.dtd">
<!-- Generated by graphviz version 2.40.1 (0)
 -->
<!-- Title: drivers/ltc4150/include/ltc4150_params.h Pages: 1 -->
<svg width="1384pt" height="543pt"
 viewBox="0.00 0.00 1383.50 543.00" xmlns="http://www.w3.org/2000/svg" xmlns:xlink="http://www.w3.org/1999/xlink">
<g id="graph0" class="graph" transform="scale(1 1) rotate(0) translate(4 539)">
<title>drivers/ltc4150/include/ltc4150_params.h</title>
<polygon fill="#ffffff" stroke="transparent" points="-4,4 -4,-539 1379.5,-539 1379.5,4 -4,4"/>
<!-- Node0 -->
<g id="node1" class="node">
<title>Node0</title>
<polygon fill="#bfbfbf" stroke="#000000" points="1015,-504.5 1015,-534.5 1140,-534.5 1140,-504.5 1015,-504.5"/>
<text text-anchor="start" x="1023" y="-522.5" font-family="Helvetica,sans-Serif" font-size="10.00" fill="#000000">drivers/ltc4150/include</text>
<text text-anchor="middle" x="1077.5" y="-511.5" font-family="Helvetica,sans-Serif" font-size="10.00" fill="#000000">/ltc4150_params.h</text>
</g>
<!-- Node1 -->
<g id="node2" class="node">
<title>Node1</title>
<polygon fill="#ffffff" stroke="#bfbfbf" points="976,-448.5 976,-467.5 1029,-467.5 1029,-448.5 976,-448.5"/>
<text text-anchor="middle" x="1002.5" y="-455.5" font-family="Helvetica,sans-Serif" font-size="10.00" fill="#000000">board.h</text>
</g>
<!-- Node0&#45;&gt;Node1 -->
<g id="edge1" class="edge">
<title>Node0&#45;&gt;Node1</title>
<path fill="none" stroke="#191970" d="M1058.9607,-504.2977C1047.8992,-495.2274 1033.8509,-483.7077 1022.5347,-474.4285"/>
<polygon fill="#191970" stroke="#191970" points="1024.4604,-471.4813 1014.5084,-467.8469 1020.0219,-476.8942 1024.4604,-471.4813"/>
</g>
<!-- Node2 -->
<g id="node3" class="node">
<title>Node2</title>
<g id="a_node3"><a xlink:href="ltc4150_8h.html" target="_top" xlink:title="LTC4150 coulomb counter. ">
<polygon fill="#ffffff" stroke="#000000" points="1047.5,-448.5 1047.5,-467.5 1107.5,-467.5 1107.5,-448.5 1047.5,-448.5"/>
<text text-anchor="middle" x="1077.5" y="-455.5" font-family="Helvetica,sans-Serif" font-size="10.00" fill="#000000">ltc4150.h</text>
</a>
</g>
</g>
<!-- Node0&#45;&gt;Node2 -->
<g id="edge2" class="edge">
<title>Node0&#45;&gt;Node2</title>
<path fill="none" stroke="#191970" d="M1077.5,-504.2977C1077.5,-496.3834 1077.5,-486.6043 1077.5,-478.0759"/>
<polygon fill="#191970" stroke="#191970" points="1081.0001,-477.8469 1077.5,-467.8469 1074.0001,-477.847 1081.0001,-477.8469"/>
</g>
<!-- Node30 -->
<g id="node31" class="node">
<title>Node30</title>
<g id="a_node31"><a xlink:href="saul__reg_8h.html" target="_top" xlink:title="SAUL registry interface definition. ">
<polygon fill="#ffffff" stroke="#000000" points="1219,-168.5 1219,-187.5 1284,-187.5 1284,-168.5 1219,-168.5"/>
<text text-anchor="middle" x="1251.5" y="-175.5" font-family="Helvetica,sans-Serif" font-size="10.00" fill="#000000">saul_reg.h</text>
</a>
</g>
</g>
<!-- Node0&#45;&gt;Node30 -->
<g id="edge51" class="edge">
<title>Node0&#45;&gt;Node30</title>
<path fill="none" stroke="#191970" d="M1107.246,-504.4442C1140.1255,-485.4417 1188.5,-449.4254 1188.5,-402 1188.5,-402 1188.5,-402 1188.5,-290 1188.5,-252.3823 1215.8316,-215.7298 1234.4902,-195.0908"/>
<polygon fill="#191970" stroke="#191970" points="1237.0856,-197.4399 1241.378,-187.7535 1231.9819,-192.649 1237.0856,-197.4399"/>
</g>
<!-- Node3 -->
<g id="node4" class="node">
<title>Node3</title>
<polygon fill="#ffffff" stroke="#bfbfbf" points="704.5,-.5 704.5,-19.5 756.5,-19.5 756.5,-.5 704.5,-.5"/>
<text text-anchor="middle" x="730.5" y="-7.5" font-family="Helvetica,sans-Serif" font-size="10.00" fill="#000000">stdint.h</text>
</g>
<!-- Node2&#45;&gt;Node3 -->
<g id="edge3" class="edge">
<title>Node2&#45;&gt;Node3</title>
<path fill="none" stroke="#191970" d="M1087.4614,-448.2152C1104.9873,-429.9019 1139.5,-388.4496 1139.5,-346 1139.5,-346 1139.5,-346 1139.5,-122 1139.5,-88.5868 1131.1322,-74.7859 1103.5,-56 1075.9543,-37.2729 855.0309,-19.1537 766.7525,-12.5878"/>
<polygon fill="#191970" stroke="#191970" points="766.8964,-9.089 756.6663,-11.8451 766.3823,-16.0701 766.8964,-9.089"/>
</g>
<!-- Node4 -->
<g id="node5" class="node">
<title>Node4</title>
<g id="a_node5"><a xlink:href="mutex_8h.html" target="_top" xlink:title="Mutex for thread synchronization. ">
<polygon fill="#ffffff" stroke="#000000" points="978.5,-392.5 978.5,-411.5 1034.5,-411.5 1034.5,-392.5 978.5,-392.5"/>
<text text-anchor="middle" x="1006.5" y="-399.5" font-family="Helvetica,sans-Serif" font-size="10.00" fill="#000000">mutex.h</text>
</a>
</g>
</g>
<!-- Node2&#45;&gt;Node4 -->
<g id="edge4" class="edge">
<title>Node2&#45;&gt;Node4</title>
<path fill="none" stroke="#191970" d="M1065.1327,-448.2455C1054.5446,-439.8943 1039.0936,-427.7076 1026.7107,-417.9408"/>
<polygon fill="#191970" stroke="#191970" points="1028.7447,-415.0875 1018.7255,-411.6427 1024.4097,-420.5837 1028.7447,-415.0875"/>
</g>
<!-- Node27 -->
<g id="node28" class="node">
<title>Node27</title>
<g id="a_node28"><a xlink:href="drivers_2include_2periph_2gpio_8h.html" target="_top" xlink:title="Low&#45;level GPIO peripheral driver interface definitions. ">
<polygon fill="#ffffff" stroke="#000000" points="179.5,-224.5 179.5,-243.5 259.5,-243.5 259.5,-224.5 179.5,-224.5"/>
<text text-anchor="middle" x="219.5" y="-231.5" font-family="Helvetica,sans-Serif" font-size="10.00" fill="#000000">periph/gpio.h</text>
</a>
</g>
</g>
<!-- Node2&#45;&gt;Node27 -->
<g id="edge46" class="edge">
<title>Node2&#45;&gt;Node27</title>
<path fill="none" stroke="#191970" d="M1047.3435,-449.9071C1044.3656,-449.2165 1041.3805,-448.5667 1038.5,-448 745.7403,-390.4088 647.8831,-473.2131 373.5,-356 315.5103,-331.2275 260.9621,-278.6086 235.1279,-251.2823"/>
<polygon fill="#191970" stroke="#191970" points="237.4301,-248.618 228.0602,-243.6726 232.301,-253.3817 237.4301,-248.618"/>
</g>
<!-- Node4&#45;&gt;Node3 -->
<g id="edge6" class="edge">
<title>Node4&#45;&gt;Node3</title>
<path fill="none" stroke="#191970" d="M1023.4841,-392.368C1050.8095,-375.4638 1101.5,-337.6798 1101.5,-290 1101.5,-290 1101.5,-290 1101.5,-122 1101.5,-91.4754 1105.6443,-75.9021 1082.5,-56 1058.8091,-35.6279 851.7684,-18.6661 766.7272,-12.4953"/>
<polygon fill="#191970" stroke="#191970" points="766.9698,-9.0038 756.7451,-11.78 766.4694,-15.9859 766.9698,-9.0038"/>
</g>
<!-- Node5 -->
<g id="node6" class="node">
<title>Node5</title>
<polygon fill="#ffffff" stroke="#bfbfbf" points="933.5,-56.5 933.5,-75.5 989.5,-75.5 989.5,-56.5 933.5,-56.5"/>
<text text-anchor="middle" x="961.5" y="-63.5" font-family="Helvetica,sans-Serif" font-size="10.00" fill="#000000">stddef.h</text>
</g>
<!-- Node4&#45;&gt;Node5 -->
<g id="edge5" class="edge">
<title>Node4&#45;&gt;Node5</title>
<path fill="none" stroke="#191970" d="M1015.4063,-392.3544C1031.4375,-373.945 1063.5,-331.8901 1063.5,-290 1063.5,-290 1063.5,-290 1063.5,-178 1063.5,-147.2176 1061.8841,-135.9126 1042.5,-112 1031.0306,-97.8511 1013.9755,-87.2484 998.4694,-79.8101"/>
<polygon fill="#191970" stroke="#191970" points="999.6341,-76.4962 989.0786,-75.5842 996.7615,-82.8796 999.6341,-76.4962"/>
</g>
<!-- Node6 -->
<g id="node7" class="node">
<title>Node6</title>
<polygon fill="#ffffff" stroke="#bfbfbf" points="863.5,-112.5 863.5,-131.5 923.5,-131.5 923.5,-112.5 863.5,-112.5"/>
<text text-anchor="middle" x="893.5" y="-119.5" font-family="Helvetica,sans-Serif" font-size="10.00" fill="#000000">stdbool.h</text>
</g>
<!-- Node4&#45;&gt;Node6 -->
<g id="edge7" class="edge">
<title>Node4&#45;&gt;Node6</title>
<path fill="none" stroke="#191970" d="M1004.8796,-392.404C1000.0656,-365.1551 984.4784,-285.3167 957.5,-224 943.6905,-192.6137 921.3038,-159.574 907.0001,-139.8843"/>
<polygon fill="#191970" stroke="#191970" points="909.6342,-137.5593 900.8786,-131.5936 904.0028,-141.7173 909.6342,-137.5593"/>
</g>
<!-- Node7 -->
<g id="node8" class="node">
<title>Node7</title>
<g id="a_node8"><a xlink:href="architecture_8h.html" target="_top" xlink:title="Platform&#45;independent access to architecture details. ">
<polygon fill="#ffffff" stroke="#000000" points="300,-224.5 300,-243.5 383,-243.5 383,-224.5 300,-224.5"/>
<text text-anchor="middle" x="341.5" y="-231.5" font-family="Helvetica,sans-Serif" font-size="10.00" fill="#000000">architecture.h</text>
</a>
</g>
</g>
<!-- Node4&#45;&gt;Node7 -->
<g id="edge8" class="edge">
<title>Node4&#45;&gt;Node7</title>
<path fill="none" stroke="#191970" d="M978.1588,-401.5319C864.5085,-399.431 445.5858,-389.4601 397.5,-356 363.201,-332.1333 349.4769,-281.8534 344.3319,-253.8661"/>
<polygon fill="#191970" stroke="#191970" points="347.736,-252.996 342.6625,-243.6949 340.8284,-254.1298 347.736,-252.996"/>
</g>
<!-- Node11 -->
<g id="node12" class="node">
<title>Node11</title>
<g id="a_node12"><a xlink:href="kernel__defines_8h.html" target="_top" xlink:title="Common macros and compiler attributes/pragmas configuration. ">
<polygon fill="#ffffff" stroke="#000000" points="546,-168.5 546,-187.5 641,-187.5 641,-168.5 546,-168.5"/>
<text text-anchor="middle" x="593.5" y="-175.5" font-family="Helvetica,sans-Serif" font-size="10.00" fill="#000000">kernel_defines.h</text>
</a>
</g>
</g>
<!-- Node4&#45;&gt;Node11 -->
<g id="edge13" class="edge">
<title>Node4&#45;&gt;Node11</title>
<path fill="none" stroke="#191970" d="M978.4891,-400.9427C881.4903,-396.6222 562.6769,-376.7039 504.5,-300 475.5808,-261.8712 533.1476,-216.0918 568.5713,-192.956"/>
<polygon fill="#191970" stroke="#191970" points="570.4697,-195.8965 577.0341,-187.5803 566.7164,-189.9878 570.4697,-195.8965"/>
</g>
<!-- Node17 -->
<g id="node18" class="node">
<title>Node17</title>
<g id="a_node18"><a xlink:href="list_8h.html" target="_top" xlink:title="Intrusive linked list. ">
<polygon fill="#ffffff" stroke="#000000" points="995.5,-112.5 995.5,-131.5 1033.5,-131.5 1033.5,-112.5 995.5,-112.5"/>
<text text-anchor="middle" x="1014.5" y="-119.5" font-family="Helvetica,sans-Serif" font-size="10.00" fill="#000000">list.h</text>
</a>
</g>
</g>
<!-- Node4&#45;&gt;Node17 -->
<g id="edge24" class="edge">
<title>Node4&#45;&gt;Node17</title>
<path fill="none" stroke="#191970" d="M1009.3035,-392.2066C1014.5887,-372.8521 1025.5,-328.2612 1025.5,-290 1025.5,-290 1025.5,-290 1025.5,-234 1025.5,-201.5562 1020.8718,-164.078 1017.6195,-141.7472"/>
<polygon fill="#191970" stroke="#191970" points="1021.0343,-140.9203 1016.076,-131.5573 1014.1132,-141.9687 1021.0343,-140.9203"/>
</g>
<!-- Node18 -->
<g id="node19" class="node">
<title>Node18</title>
<g id="a_node19"><a xlink:href="core_2include_2thread_8h.html" target="_top" xlink:title="Threading API. ">
<polygon fill="#ffffff" stroke="#000000" points="713,-336.5 713,-355.5 770,-355.5 770,-336.5 713,-336.5"/>
<text text-anchor="middle" x="741.5" y="-343.5" font-family="Helvetica,sans-Serif" font-size="10.00" fill="#000000">thread.h</text>
</a>
</g>
</g>
<!-- Node4&#45;&gt;Node18 -->
<g id="edge25" class="edge">
<title>Node4&#45;&gt;Node18</title>
<path fill="none" stroke="#191970" d="M978.1404,-396.007C930.349,-385.9077 833.7272,-365.4895 779.9048,-354.1157"/>
<polygon fill="#191970" stroke="#191970" points="780.5639,-350.6778 770.0563,-352.0345 779.1165,-357.5265 780.5639,-350.6778"/>
</g>
<!-- Node7&#45;&gt;Node3 -->
<g id="edge9" class="edge">
<title>Node7&#45;&gt;Node3</title>
<path fill="none" stroke="#191970" d="M324.9702,-224.3075C306.1213,-211.9387 279.3865,-189.5546 291.5,-168 338.4036,-84.5405 385.9898,-89.961 475.5,-56 550.1069,-27.6934 643.7521,-16.529 694.2325,-12.3414"/>
<polygon fill="#191970" stroke="#191970" points="694.631,-15.821 704.3269,-11.5501 694.0839,-8.8424 694.631,-15.821"/>
</g>
<!-- Node8 -->
<g id="node9" class="node">
<title>Node8</title>
<g id="a_node9"><a xlink:href="inttypes_8h.html" target="_top" xlink:title="Adds include for missing inttype definitions. ">
<polygon fill="#ffffff" stroke="#000000" points="465,-168.5 465,-187.5 528,-187.5 528,-168.5 465,-168.5"/>
<text text-anchor="middle" x="496.5" y="-175.5" font-family="Helvetica,sans-Serif" font-size="10.00" fill="#000000">inttypes.h</text>
</a>
</g>
</g>
<!-- Node7&#45;&gt;Node8 -->
<g id="edge10" class="edge">
<title>Node7&#45;&gt;Node8</title>
<path fill="none" stroke="#191970" d="M368.1454,-224.3733C393.6964,-215.1419 432.4512,-201.1402 460.6909,-190.9375"/>
<polygon fill="#191970" stroke="#191970" points="461.9865,-194.1909 470.2022,-187.5011 459.6079,-187.6074 461.9865,-194.1909"/>
</g>
<!-- Node9 -->
<g id="node10" class="node">
<title>Node9</title>
<polygon fill="#ffffff" stroke="#bfbfbf" points="194.5,-168.5 194.5,-187.5 244.5,-187.5 244.5,-168.5 194.5,-168.5"/>
<text text-anchor="middle" x="219.5" y="-175.5" font-family="Helvetica,sans-Serif" font-size="10.00" fill="#000000">limits.h</text>
</g>
<!-- Node7&#45;&gt;Node9 -->
<g id="edge11" class="edge">
<title>Node7&#45;&gt;Node9</title>
<path fill="none" stroke="#191970" d="M320.5275,-224.3733C300.9433,-215.3838 271.5039,-201.8706 249.449,-191.7471"/>
<polygon fill="#191970" stroke="#191970" points="250.7473,-188.4919 240.1989,-187.5011 247.8271,-194.8538 250.7473,-188.4919"/>
</g>
<!-- Node10 -->
<g id="node11" class="node">
<title>Node10</title>
<polygon fill="#ffffff" stroke="#bfbfbf" points="301,-168.5 301,-187.5 408,-187.5 408,-168.5 301,-168.5"/>
<text text-anchor="middle" x="354.5" y="-175.5" font-family="Helvetica,sans-Serif" font-size="10.00" fill="#000000">architecture_arch.h</text>
</g>
<!-- Node7&#45;&gt;Node10 -->
<g id="edge12" class="edge">
<title>Node7&#45;&gt;Node10</title>
<path fill="none" stroke="#191970" d="M343.7644,-224.2455C345.4794,-216.8579 347.8912,-206.4689 349.9944,-197.4087"/>
<polygon fill="#191970" stroke="#191970" points="353.4095,-198.1751 352.2615,-187.6427 346.5908,-196.5922 353.4095,-198.1751"/>
</g>
<!-- Node12 -->
<g id="node13" class="node">
<title>Node12</title>
<g id="a_node13"><a xlink:href="modules_8h.html" target="_top" xlink:title="Common macros and compiler attributes/pragmas configuration. ">
<polygon fill="#ffffff" stroke="#000000" points="1008,-56.5 1008,-75.5 1073,-75.5 1073,-56.5 1008,-56.5"/>
<text text-anchor="middle" x="1040.5" y="-63.5" font-family="Helvetica,sans-Serif" font-size="10.00" fill="#000000">modules.h</text>
</a>
</g>
</g>
<!-- Node11&#45;&gt;Node12 -->
<g id="edge14" class="edge">
<title>Node11&#45;&gt;Node12</title>
<path fill="none" stroke="#191970" d="M631.0874,-168.4295C681.7909,-155.5343 774.9242,-131.9012 854.5,-112 903.6132,-99.7172 960.0685,-85.781 997.7783,-76.4983"/>
<polygon fill="#191970" stroke="#191970" points="999.0216,-79.7968 1007.8956,-74.0087 997.3489,-72.9996 999.0216,-79.7968"/>
</g>
<!-- Node13 -->
<g id="node14" class="node">
<title>Node13</title>
<g id="a_node14"><a xlink:href="riot__version_8h.html" target="_top" xlink:title="Common macros and compiler attributes/pragmas configuration. ">
<polygon fill="#ffffff" stroke="#000000" points="601,-56.5 601,-75.5 682,-75.5 682,-56.5 601,-56.5"/>
<text text-anchor="middle" x="641.5" y="-63.5" font-family="Helvetica,sans-Serif" font-size="10.00" fill="#000000">riot_version.h</text>
</a>
</g>
</g>
<!-- Node11&#45;&gt;Node13 -->
<g id="edge15" class="edge">
<title>Node11&#45;&gt;Node13</title>
<path fill="none" stroke="#191970" d="M594.0462,-168.1847C595.0885,-154.9123 598.0729,-130.7472 606.5,-112 611.1414,-101.6745 618.4889,-91.5165 625.2562,-83.3835"/>
<polygon fill="#191970" stroke="#191970" points="628.011,-85.5501 631.9605,-75.7189 622.7423,-80.9414 628.011,-85.5501"/>
</g>
<!-- Node14 -->
<g id="node15" class="node">
<title>Node14</title>
<g id="a_node15"><a xlink:href="compiler__hints_8h.html" target="_top" xlink:title="Common macros and compiler attributes/pragmas configuration. ">
<polygon fill="#ffffff" stroke="#000000" points="465,-112.5 465,-131.5 558,-131.5 558,-112.5 465,-112.5"/>
<text text-anchor="middle" x="511.5" y="-119.5" font-family="Helvetica,sans-Serif" font-size="10.00" fill="#000000">compiler_hints.h</text>
</a>
</g>
</g>
<!-- Node11&#45;&gt;Node14 -->
<g id="edge17" class="edge">
<title>Node11&#45;&gt;Node14</title>
<path fill="none" stroke="#191970" d="M579.2167,-168.2455C566.753,-159.7337 548.4549,-147.2375 534.0208,-137.3801"/>
<polygon fill="#191970" stroke="#191970" points="535.8515,-134.392 525.6196,-131.6427 531.9038,-140.1726 535.8515,-134.392"/>
</g>
<!-- Node16 -->
<g id="node17" class="node">
<title>Node16</title>
<g id="a_node17"><a xlink:href="container_8h.html" target="_top" xlink:title="Common macros and compiler attributes/pragmas configuration. ">
<polygon fill="#ffffff" stroke="#000000" points="615,-112.5 615,-131.5 684,-131.5 684,-112.5 615,-112.5"/>
<text text-anchor="middle" x="649.5" y="-119.5" font-family="Helvetica,sans-Serif" font-size="10.00" fill="#000000">container.h</text>
</a>
</g>
</g>
<!-- Node11&#45;&gt;Node16 -->
<g id="edge21" class="edge">
<title>Node11&#45;&gt;Node16</title>
<path fill="none" stroke="#191970" d="M603.2545,-168.2455C611.3648,-160.1352 623.0925,-148.4075 632.7081,-138.7919"/>
<polygon fill="#191970" stroke="#191970" points="635.2611,-141.1887 639.8573,-131.6427 630.3113,-136.2389 635.2611,-141.1887"/>
</g>
<!-- Node13&#45;&gt;Node3 -->
<g id="edge16" class="edge">
<title>Node13&#45;&gt;Node3</title>
<path fill="none" stroke="#191970" d="M657.0026,-56.2455C670.658,-47.6534 690.7657,-35.0014 706.4989,-25.1018"/>
<polygon fill="#191970" stroke="#191970" points="708.5751,-27.9307 715.175,-19.6427 704.8471,-22.006 708.5751,-27.9307"/>
</g>
<!-- Node14&#45;&gt;Node3 -->
<g id="edge20" class="edge">
<title>Node14&#45;&gt;Node3</title>
<path fill="none" stroke="#191970" d="M521.113,-112.1627C535.4668,-97.9703 563.8886,-71.7321 592.5,-56 625.0201,-38.1187 665.6782,-25.6086 694.4153,-18.1954"/>
<polygon fill="#191970" stroke="#191970" points="695.5727,-21.5139 704.4261,-15.6944 693.876,-14.7227 695.5727,-21.5139"/>
</g>
<!-- Node15 -->
<g id="node16" class="node">
<title>Node15</title>
<g id="a_node16"><a xlink:href="assert_8h.html" target="_top" xlink:title="POSIX.1&#45;2008 compliant version of the assert macro. ">
<polygon fill="#ffffff" stroke="#000000" points="484.5,-56.5 484.5,-75.5 538.5,-75.5 538.5,-56.5 484.5,-56.5"/>
<text text-anchor="middle" x="511.5" y="-63.5" font-family="Helvetica,sans-Serif" font-size="10.00" fill="#000000">assert.h</text>
</a>
</g>
</g>
<!-- Node14&#45;&gt;Node15 -->
<g id="edge18" class="edge">
<title>Node14&#45;&gt;Node15</title>
<path fill="none" stroke="#191970" d="M511.5,-112.2455C511.5,-104.9382 511.5,-94.6944 511.5,-85.7046"/>
<polygon fill="#191970" stroke="#191970" points="515.0001,-85.6426 511.5,-75.6427 508.0001,-85.6427 515.0001,-85.6426"/>
</g>
<!-- Node15&#45;&gt;Node3 -->
<g id="edge19" class="edge">
<title>Node15&#45;&gt;Node3</title>
<path fill="none" stroke="#191970" d="M538.7937,-59.0208C578.0698,-48.9776 650.5986,-30.4314 694.3069,-19.2548"/>
<polygon fill="#191970" stroke="#191970" points="695.4102,-22.5854 704.2314,-16.7171 693.676,-15.8036 695.4102,-22.5854"/>
</g>
<!-- Node16&#45;&gt;Node3 -->
<g id="edge23" class="edge">
<title>Node16&#45;&gt;Node3</title>
<path fill="none" stroke="#191970" d="M659.473,-112.2882C668.4094,-103.316 681.5966,-89.3893 691.5,-76 702.7089,-60.8456 713.4519,-42.259 720.814,-28.6759"/>
<polygon fill="#191970" stroke="#191970" points="723.9339,-30.2633 725.5355,-19.7902 717.7524,-26.9787 723.9339,-30.2633"/>
</g>
<!-- Node16&#45;&gt;Node5 -->
<g id="edge22" class="edge">
<title>Node16&#45;&gt;Node5</title>
<path fill="none" stroke="#191970" d="M684.0096,-114.8303C688.8707,-113.8574 693.8082,-112.8889 698.5,-112 778.3888,-96.8647 872.2793,-80.8734 923.4737,-72.3055"/>
<polygon fill="#191970" stroke="#191970" points="924.1413,-75.7425 933.4281,-70.643 922.9882,-68.8382 924.1413,-75.7425"/>
</g>
<!-- Node19 -->
<g id="node20" class="node">
<title>Node19</title>
<g id="a_node20"><a xlink:href="clist_8h.html" target="_top" xlink:title="Circular linked list. ">
<polygon fill="#ffffff" stroke="#000000" points="954,-168.5 954,-187.5 997,-187.5 997,-168.5 954,-168.5"/>
<text text-anchor="middle" x="975.5" y="-175.5" font-family="Helvetica,sans-Serif" font-size="10.00" fill="#000000">clist.h</text>
</a>
</g>
</g>
<!-- Node18&#45;&gt;Node19 -->
<g id="edge26" class="edge">
<title>Node18&#45;&gt;Node19</title>
<path fill="none" stroke="#191970" d="M741.9009,-336.3663C742.9585,-322.4274 746.7767,-296.502 760.5,-280 785.441,-250.009 890.5653,-208.7657 944.0138,-189.1873"/>
<polygon fill="#191970" stroke="#191970" points="945.4642,-192.3843 953.6686,-185.6807 943.0745,-185.8048 945.4642,-192.3843"/>
</g>
<!-- Node20 -->
<g id="node21" class="node">
<title>Node20</title>
<g id="a_node21"><a xlink:href="cib_8h.html" target="_top" xlink:title="Circular integer buffer interface. ">
<polygon fill="#ffffff" stroke="#000000" points="513.5,-280.5 513.5,-299.5 551.5,-299.5 551.5,-280.5 513.5,-280.5"/>
<text text-anchor="middle" x="532.5" y="-287.5" font-family="Helvetica,sans-Serif" font-size="10.00" fill="#000000">cib.h</text>
</a>
</g>
</g>
<!-- Node18&#45;&gt;Node20 -->
<g id="edge30" class="edge">
<title>Node18&#45;&gt;Node20</title>
<path fill="none" stroke="#191970" d="M712.8777,-338.3309C673.077,-327.6666 601.4156,-308.4654 561.444,-297.7553"/>
<polygon fill="#191970" stroke="#191970" points="562.3331,-294.3702 551.7679,-295.1627 560.5213,-301.1316 562.3331,-294.3702"/>
</g>
<!-- Node21 -->
<g id="node22" class="node">
<title>Node21</title>
<g id="a_node22"><a xlink:href="core_2include_2msg_8h.html" target="_top" xlink:title="Messaging API for inter process communication. ">
<polygon fill="#ffffff" stroke="#000000" points="630,-280.5 630,-299.5 675,-299.5 675,-280.5 630,-280.5"/>
<text text-anchor="middle" x="652.5" y="-287.5" font-family="Helvetica,sans-Serif" font-size="10.00" fill="#000000">msg.h</text>
</a>
</g>
</g>
<!-- Node18&#45;&gt;Node21 -->
<g id="edge32" class="edge">
<title>Node18&#45;&gt;Node21</title>
<path fill="none" stroke="#191970" d="M725.9974,-336.2455C712.342,-327.6534 692.2343,-315.0014 676.5011,-305.1018"/>
<polygon fill="#191970" stroke="#191970" points="678.1529,-302.006 667.825,-299.6427 674.4249,-307.9307 678.1529,-302.006"/>
</g>
<!-- Node22 -->
<g id="node23" class="node">
<title>Node22</title>
<g id="a_node23"><a xlink:href="sched_8h.html" target="_top" xlink:title="Scheduler API definition. ">
<polygon fill="#ffffff" stroke="#000000" points="698,-224.5 698,-243.5 751,-243.5 751,-224.5 698,-224.5"/>
<text text-anchor="middle" x="724.5" y="-231.5" font-family="Helvetica,sans-Serif" font-size="10.00" fill="#000000">sched.h</text>
</a>
</g>
</g>
<!-- Node18&#45;&gt;Node22 -->
<g id="edge41" class="edge">
<title>Node18&#45;&gt;Node22</title>
<path fill="none" stroke="#191970" d="M737.7713,-336.3014C734.4243,-327.108 729.7087,-312.8339 727.5,-300 724.8819,-284.7873 724.1874,-267.3296 724.1175,-254.1914"/>
<polygon fill="#191970" stroke="#191970" points="727.6191,-253.9452 724.1843,-243.9227 720.6192,-253.8997 727.6191,-253.9452"/>
</g>
<!-- Node24 -->
<g id="node25" class="node">
<title>Node24</title>
<g id="a_node25"><a xlink:href="thread__config_8h.html" target="_top" xlink:title="Thread configuration defines. ">
<polygon fill="#ffffff" stroke="#000000" points="869.5,-280.5 869.5,-299.5 959.5,-299.5 959.5,-280.5 869.5,-280.5"/>
<text text-anchor="middle" x="914.5" y="-287.5" font-family="Helvetica,sans-Serif" font-size="10.00" fill="#000000">thread_config.h</text>
</a>
</g>
</g>
<!-- Node18&#45;&gt;Node24 -->
<g id="edge42" class="edge">
<title>Node18&#45;&gt;Node24</title>
<path fill="none" stroke="#191970" d="M770.0674,-336.7527C798.7315,-327.4742 843.1033,-313.1111 875.1023,-302.753"/>
<polygon fill="#191970" stroke="#191970" points="876.5851,-305.9519 885.0212,-299.5423 874.4293,-299.2921 876.5851,-305.9519"/>
</g>
<!-- Node26 -->
<g id="node27" class="node">
<title>Node26</title>
<polygon fill="#ffffff" stroke="#bfbfbf" points="769.5,-280.5 769.5,-299.5 851.5,-299.5 851.5,-280.5 769.5,-280.5"/>
<text text-anchor="middle" x="810.5" y="-287.5" font-family="Helvetica,sans-Serif" font-size="10.00" fill="#000000">thread_arch.h</text>
</g>
<!-- Node18&#45;&gt;Node26 -->
<g id="edge45" class="edge">
<title>Node18&#45;&gt;Node26</title>
<path fill="none" stroke="#191970" d="M753.5189,-336.2455C763.7098,-327.9746 778.5362,-315.9416 790.5107,-306.2232"/>
<polygon fill="#191970" stroke="#191970" points="793.0598,-308.662 798.6188,-299.6427 788.6486,-303.2268 793.0598,-308.662"/>
</g>
<!-- Node19&#45;&gt;Node5 -->
<g id="edge28" class="edge">
<title>Node19&#45;&gt;Node5</title>
<path fill="none" stroke="#191970" d="M974.3064,-168.4509C972.023,-150.184 966.9944,-109.9553 963.9622,-85.6976"/>
<polygon fill="#191970" stroke="#191970" points="967.404,-85.0135 962.6906,-75.5249 960.4581,-85.8818 967.404,-85.0135"/>
</g>
<!-- Node19&#45;&gt;Node6 -->
<g id="edge27" class="edge">
<title>Node19&#45;&gt;Node6</title>
<path fill="none" stroke="#191970" d="M961.2167,-168.2455C948.753,-159.7337 930.4549,-147.2375 916.0208,-137.3801"/>
<polygon fill="#191970" stroke="#191970" points="917.8515,-134.392 907.6196,-131.6427 913.9038,-140.1726 917.8515,-134.392"/>
</g>
<!-- Node19&#45;&gt;Node17 -->
<g id="edge29" class="edge">
<title>Node19&#45;&gt;Node17</title>
<path fill="none" stroke="#191970" d="M982.2933,-168.2455C987.7178,-160.4564 995.4661,-149.3308 1002.0033,-139.9439"/>
<polygon fill="#191970" stroke="#191970" points="1004.9417,-141.849 1007.7846,-131.6427 999.1975,-137.8485 1004.9417,-141.849"/>
</g>
<!-- Node20&#45;&gt;Node15 -->
<g id="edge31" class="edge">
<title>Node20&#45;&gt;Node15</title>
<path fill="none" stroke="#191970" d="M521.7454,-280.3072C504.0588,-263.5554 469.4973,-227.1973 456.5,-188 445.8689,-155.9388 442.2003,-142.6016 456.5,-112 462.4463,-99.2749 473.8358,-88.8307 484.715,-81.129"/>
<polygon fill="#191970" stroke="#191970" points="486.777,-83.9622 493.2167,-75.5491 482.936,-78.1101 486.777,-83.9622"/>
</g>
<!-- Node21&#45;&gt;Node3 -->
<g id="edge33" class="edge">
<title>Node21&#45;&gt;Node3</title>
<path fill="none" stroke="#191970" d="M655.1849,-280.3618C666.4125,-240.0577 709.7277,-84.5671 725.0727,-29.4825"/>
<polygon fill="#191970" stroke="#191970" points="728.5144,-30.1702 727.8264,-19.5977 721.7711,-28.2916 728.5144,-30.1702"/>
</g>
<!-- Node21&#45;&gt;Node6 -->
<g id="edge34" class="edge">
<title>Node21&#45;&gt;Node6</title>
<path fill="none" stroke="#191970" d="M675.0583,-280.9741C697.0608,-272.0344 731.3737,-257.73 760.5,-244 784.9537,-232.4726 850.5267,-208.1946 868.5,-188 880.1845,-174.8715 886.6237,-155.7349 890.0274,-141.4444"/>
<polygon fill="#191970" stroke="#191970" points="893.4565,-142.1452 892.0751,-131.6408 886.6043,-140.714 893.4565,-142.1452"/>
</g>
<!-- Node21&#45;&gt;Node22 -->
<g id="edge35" class="edge">
<title>Node21&#45;&gt;Node22</title>
<path fill="none" stroke="#191970" d="M665.0414,-280.2455C675.7787,-271.8943 691.4473,-259.7076 704.0047,-249.9408"/>
<polygon fill="#191970" stroke="#191970" points="706.3575,-252.5449 712.1023,-243.6427 702.0599,-247.0194 706.3575,-252.5449"/>
</g>
<!-- Node22&#45;&gt;Node5 -->
<g id="edge36" class="edge">
<title>Node22&#45;&gt;Node5</title>
<path fill="none" stroke="#191970" d="M728.7083,-224.0766C734.9456,-210.2449 747.7353,-184.9626 764.5,-168 809.9612,-122.0021 880.543,-92.4618 923.7305,-77.5796"/>
<polygon fill="#191970" stroke="#191970" points="924.9327,-80.868 933.2992,-74.3678 922.7052,-74.2318 924.9327,-80.868"/>
</g>
<!-- Node22&#45;&gt;Node8 -->
<g id="edge37" class="edge">
<title>Node22&#45;&gt;Node8</title>
<path fill="none" stroke="#191970" d="M697.8993,-227.4665C658.5014,-217.7898 584.2984,-199.5645 537.7948,-188.1426"/>
<polygon fill="#191970" stroke="#191970" points="538.5765,-184.7306 528.0303,-185.7443 536.9068,-191.5286 538.5765,-184.7306"/>
</g>
<!-- Node22&#45;&gt;Node11 -->
<g id="edge38" class="edge">
<title>Node22&#45;&gt;Node11</title>
<path fill="none" stroke="#191970" d="M701.9803,-224.3733C680.7628,-215.3032 648.7724,-201.6279 625.0231,-191.4755"/>
<polygon fill="#191970" stroke="#191970" points="626.2967,-188.2136 615.7258,-187.5011 623.5452,-194.6502 626.2967,-188.2136"/>
</g>
<!-- Node22&#45;&gt;Node19 -->
<g id="edge40" class="edge">
<title>Node22&#45;&gt;Node19</title>
<path fill="none" stroke="#191970" d="M751.3614,-228.007C798.1167,-217.5756 894.2148,-196.1353 944.0192,-185.0236"/>
<polygon fill="#191970" stroke="#191970" points="944.912,-188.4106 953.9098,-182.8169 943.3876,-181.5785 944.912,-188.4106"/>
</g>
<!-- Node23 -->
<g id="node24" class="node">
<title>Node23</title>
<g id="a_node24"><a xlink:href="native__sched_8h.html" target="_top" xlink:title="Add definitions required on the native board. ">
<polygon fill="#ffffff" stroke="#000000" points="773.5,-168.5 773.5,-187.5 859.5,-187.5 859.5,-168.5 773.5,-168.5"/>
<text text-anchor="middle" x="816.5" y="-175.5" font-family="Helvetica,sans-Serif" font-size="10.00" fill="#000000">native_sched.h</text>
</a>
</g>
</g>
<!-- Node22&#45;&gt;Node23 -->
<g id="edge39" class="edge">
<title>Node22&#45;&gt;Node23</title>
<path fill="none" stroke="#191970" d="M740.5252,-224.2455C754.6408,-215.6534 775.4263,-203.0014 791.6899,-193.1018"/>
<polygon fill="#191970" stroke="#191970" points="793.9363,-195.8319 800.6585,-187.6427 790.2966,-189.8525 793.9363,-195.8319"/>
</g>
<!-- Node24&#45;&gt;Node22 -->
<g id="edge44" class="edge">
<title>Node24&#45;&gt;Node22</title>
<path fill="none" stroke="#191970" d="M881.8378,-280.3733C848.2319,-270.4684 795.9926,-255.0715 761.0347,-244.7681"/>
<polygon fill="#191970" stroke="#191970" points="761.8037,-241.346 751.2221,-241.876 759.8247,-248.0604 761.8037,-241.346"/>
</g>
<!-- Node25 -->
<g id="node26" class="node">
<title>Node25</title>
<polygon fill="#ffffff" stroke="#bfbfbf" points="881,-224.5 881,-243.5 948,-243.5 948,-224.5 881,-224.5"/>
<text text-anchor="middle" x="914.5" y="-231.5" font-family="Helvetica,sans-Serif" font-size="10.00" fill="#000000">cpu_conf.h</text>
</g>
<!-- Node24&#45;&gt;Node25 -->
<g id="edge43" class="edge">
<title>Node24&#45;&gt;Node25</title>
<path fill="none" stroke="#191970" d="M914.5,-280.2455C914.5,-272.9382 914.5,-262.6944 914.5,-253.7046"/>
<polygon fill="#191970" stroke="#191970" points="918.0001,-253.6426 914.5,-243.6427 911.0001,-253.6427 918.0001,-253.6426"/>
</g>
<!-- Node27&#45;&gt;Node6 -->
<g id="edge48" class="edge">
<title>Node27&#45;&gt;Node6</title>
<path fill="none" stroke="#191970" d="M259.64,-228.0592C269.7055,-226.6486 280.4893,-225.205 290.5,-224 450.1456,-204.783 492.3705,-217.1732 650.5,-188 723.7474,-174.4866 807.1337,-149.7258 854.7176,-134.6748"/>
<polygon fill="#191970" stroke="#191970" points="855.846,-137.9887 864.3115,-131.618 853.7209,-131.319 855.846,-137.9887"/>
</g>
<!-- Node27&#45;&gt;Node9 -->
<g id="edge47" class="edge">
<title>Node27&#45;&gt;Node9</title>
<path fill="none" stroke="#191970" d="M219.5,-224.2455C219.5,-216.9382 219.5,-206.6944 219.5,-197.7046"/>
<polygon fill="#191970" stroke="#191970" points="223.0001,-197.6426 219.5,-187.6427 216.0001,-197.6427 223.0001,-197.6426"/>
</g>
<!-- Node28 -->
<g id="node29" class="node">
<title>Node28</title>
<polygon fill="#ffffff" stroke="#bfbfbf" points="99,-168.5 99,-187.5 176,-187.5 176,-168.5 99,-168.5"/>
<text text-anchor="middle" x="137.5" y="-175.5" font-family="Helvetica,sans-Serif" font-size="10.00" fill="#000000">periph_cpu.h</text>
</g>
<!-- Node27&#45;&gt;Node28 -->
<g id="edge49" class="edge">
<title>Node27&#45;&gt;Node28</title>
<path fill="none" stroke="#191970" d="M205.2167,-224.2455C192.753,-215.7337 174.4549,-203.2375 160.0208,-193.3801"/>
<polygon fill="#191970" stroke="#191970" points="161.8515,-190.392 151.6196,-187.6427 157.9038,-196.1726 161.8515,-190.392"/>
</g>
<!-- Node29 -->
<g id="node30" class="node">
<title>Node29</title>
<polygon fill="#ffffff" stroke="#bfbfbf" points="0,-168.5 0,-187.5 81,-187.5 81,-168.5 0,-168.5"/>
<text text-anchor="middle" x="40.5" y="-175.5" font-family="Helvetica,sans-Serif" font-size="10.00" fill="#000000">periph_conf.h</text>
</g>
<!-- Node27&#45;&gt;Node29 -->
<g id="edge50" class="edge">
<title>Node27&#45;&gt;Node29</title>
<path fill="none" stroke="#191970" d="M188.7288,-224.3733C158.835,-215.021 113.2907,-200.7725 80.5783,-190.5385"/>
<polygon fill="#191970" stroke="#191970" points="81.4586,-187.1466 70.8697,-187.5011 79.3685,-193.8273 81.4586,-187.1466"/>
</g>
<!-- Node30&#45;&gt;Node3 -->
<g id="edge52" class="edge">
<title>Node30&#45;&gt;Node3</title>
<path fill="none" stroke="#191970" d="M1259.2922,-168.3582C1276.6165,-145.7176 1314.5159,-88.6115 1284.5,-56 1249.4821,-17.954 884.8431,-11.3707 767.0065,-10.2355"/>
<polygon fill="#191970" stroke="#191970" points="766.7402,-6.7331 756.7096,-10.1443 766.6782,-13.7328 766.7402,-6.7331"/>
</g>
<!-- Node31 -->
<g id="node32" class="node">
<title>Node31</title>
<polygon fill="#ffffff" stroke="#bfbfbf" points="1331.5,-112.5 1331.5,-131.5 1375.5,-131.5 1375.5,-112.5 1331.5,-112.5"/>
<text text-anchor="middle" x="1353.5" y="-119.5" font-family="Helvetica,sans-Serif" font-size="10.00" fill="#000000">saul.h</text>
</g>
<!-- Node30&#45;&gt;Node31 -->
<g id="edge53" class="edge">
<title>Node30&#45;&gt;Node31</title>
<path fill="none" stroke="#191970" d="M1269.267,-168.2455C1285.2095,-159.4928 1308.8259,-146.527 1326.9989,-136.5496"/>
<polygon fill="#191970" stroke="#191970" points="1328.8552,-139.5233 1335.9366,-131.6427 1325.4863,-133.3873 1328.8552,-139.5233"/>
</g>
<!-- Node32 -->
<g id="node33" class="node">
<title>Node32</title>
<g id="a_node33"><a xlink:href="phydat_8h.html" target="_top" xlink:title="Generic data container for physical data interface. ">
<polygon fill="#ffffff" stroke="#000000" points="1167.5,-112.5 1167.5,-131.5 1225.5,-131.5 1225.5,-112.5 1167.5,-112.5"/>
<text text-anchor="middle" x="1196.5" y="-119.5" font-family="Helvetica,sans-Serif" font-size="10.00" fill="#000000">phydat.h</text>
</a>
</g>
</g>
<!-- Node30&#45;&gt;Node32 -->
<g id="edge54" class="edge">
<title>Node30&#45;&gt;Node32</title>
<path fill="none" stroke="#191970" d="M1241.9197,-168.2455C1233.9542,-160.1352 1222.4359,-148.4075 1212.9921,-138.7919"/>
<polygon fill="#191970" stroke="#191970" points="1215.4747,-136.3247 1205.9705,-131.6427 1210.4805,-141.2297 1215.4747,-136.3247"/>
</g>
<!-- Node32&#45;&gt;Node3 -->
<g id="edge56" class="edge">
<title>Node32&#45;&gt;Node3</title>
<path fill="none" stroke="#191970" d="M1193.2973,-112.4C1187.7746,-97.5041 1174.9412,-69.1705 1153.5,-56 1120.8522,-35.9457 863.2912,-18.1837 766.8174,-12.1703"/>
<polygon fill="#191970" stroke="#191970" points="766.8638,-8.6666 756.6672,-11.544 766.4327,-15.6533 766.8638,-8.6666"/>
</g>
<!-- Node32&#45;&gt;Node5 -->
<g id="edge55" class="edge">
<title>Node32&#45;&gt;Node5</title>
<path fill="none" stroke="#191970" d="M1167.3993,-115.4721C1128.9055,-106.7761 1058.981,-90.7679 999.5,-76 999.4007,-75.9753 999.3012,-75.9506 999.2016,-75.9259"/>
<polygon fill="#191970" stroke="#191970" points="1000.2529,-72.5818 989.6992,-73.5145 998.5311,-79.3667 1000.2529,-72.5818"/>
</g>
<!-- Node32&#45;&gt;Node12 -->
<g id="edge58" class="edge">
<title>Node32&#45;&gt;Node12</title>
<path fill="none" stroke="#191970" d="M1169.6826,-112.3733C1143.9668,-103.1419 1104.962,-89.1402 1076.5401,-78.9375"/>
<polygon fill="#191970" stroke="#191970" points="1077.5619,-75.5857 1066.9674,-75.5011 1075.1968,-82.174 1077.5619,-75.5857"/>
</g>
<!-- Node33 -->
<g id="node34" class="node">
<title>Node33</title>
<polygon fill="#ffffff" stroke="#bfbfbf" points="1206,-56.5 1206,-75.5 1275,-75.5 1275,-56.5 1206,-56.5"/>
<text text-anchor="middle" x="1240.5" y="-63.5" font-family="Helvetica,sans-Serif" font-size="10.00" fill="#000000">sys/types.h</text>
</g>
<!-- Node32&#45;&gt;Node33 -->
<g id="edge57" class="edge">
<title>Node32&#45;&gt;Node33</title>
<path fill="none" stroke="#191970" d="M1204.1642,-112.2455C1210.3473,-104.3761 1219.2063,-93.101 1226.6289,-83.6542"/>
<polygon fill="#191970" stroke="#191970" points="1229.4975,-85.6683 1232.9236,-75.6427 1223.9932,-81.3435 1229.4975,-85.6683"/>
</g>
</g>
</svg>
