<?xml version="1.0" encoding="UTF-8" standalone="no"?>
<!DOCTYPE svg PUBLIC "-//W3C//DTD SVG 1.1//EN"
 "http://www.w3.org/Graphics/SVG/1.1/DTD/svg11.dtd">
<!-- Generated by graphviz version 2.40.1 (0)
 -->
<!-- Title: pkg/lvgl/include/lvgl_riot_conf.h Pages: 1 -->
<svg width="246pt" height="106pt"
 viewBox="0.00 0.00 246.00 106.00" xmlns="http://www.w3.org/2000/svg" xmlns:xlink="http://www.w3.org/1999/xlink">
<g id="graph0" class="graph" transform="scale(1 1) rotate(0) translate(4 102)">
<title>pkg/lvgl/include/lvgl_riot_conf.h</title>
<polygon fill="#ffffff" stroke="transparent" points="-4,4 -4,-102 242,-102 242,4 -4,4"/>
<!-- Node10 -->
<g id="node1" class="node">
<title>Node10</title>
<polygon fill="#bfbfbf" stroke="#000000" points="68.5,-67.5 68.5,-97.5 178.5,-97.5 178.5,-67.5 68.5,-67.5"/>
<text text-anchor="start" x="76.5" y="-85.5" font-family="Helvetica,sans-Serif" font-size="10.00" fill="#000000">pkg/lvgl/include/lvgl</text>
<text text-anchor="middle" x="123.5" y="-74.5" font-family="Helvetica,sans-Serif" font-size="10.00" fill="#000000">_riot_conf.h</text>
</g>
<!-- Node11 -->
<g id="node2" class="node">
<title>Node11</title>
<g id="a_node2"><a xlink:href="lv__drv__conf_8h_source.html" target="_top" xlink:title="pkg/lv_drivers/include\l/lv_drv_conf.h">
<polygon fill="#ffffff" stroke="#000000" points="0,-.5 0,-30.5 119,-30.5 119,-.5 0,-.5"/>
<text text-anchor="start" x="8" y="-18.5" font-family="Helvetica,sans-Serif" font-size="10.00" fill="#000000">pkg/lv_drivers/include</text>
<text text-anchor="middle" x="59.5" y="-7.5" font-family="Helvetica,sans-Serif" font-size="10.00" fill="#000000">/lv_drv_conf.h</text>
</a>
</g>
</g>
<!-- Node10&#45;&gt;Node11 -->
<g id="edge1" class="edge">
<title>Node10&#45;&gt;Node11</title>
<path fill="none" stroke="#191970" d="M101.9361,-59.9253C92.7254,-50.2828 82.2193,-39.2843 73.9651,-30.6432"/>
<polygon fill="#191970" stroke="#191970" points="99.5392,-62.4831 108.9774,-67.2967 104.601,-57.648 99.5392,-62.4831"/>
</g>
<!-- Node12 -->
<g id="node3" class="node">
<title>Node12</title>
<g id="a_node3"><a xlink:href="lv__conf_8h_source.html" target="_top" xlink:title="pkg/lvgl/include/lv\l_conf.h">
<polygon fill="#ffffff" stroke="#000000" points="137,-.5 137,-30.5 238,-30.5 238,-.5 137,-.5"/>
<text text-anchor="start" x="145" y="-18.5" font-family="Helvetica,sans-Serif" font-size="10.00" fill="#000000">pkg/lvgl/include/lv</text>
<text text-anchor="middle" x="187.5" y="-7.5" font-family="Helvetica,sans-Serif" font-size="10.00" fill="#000000">_conf.h</text>
</a>
</g>
</g>
<!-- Node10&#45;&gt;Node12 -->
<g id="edge2" class="edge">
<title>Node10&#45;&gt;Node12</title>
<path fill="none" stroke="#191970" d="M145.0639,-59.9253C154.2746,-50.2828 164.7807,-39.2843 173.0349,-30.6432"/>
<polygon fill="#191970" stroke="#191970" points="142.399,-57.648 138.0226,-67.2967 147.4608,-62.4831 142.399,-57.648"/>
</g>
</g>
</svg>
