<?xml version="1.0" encoding="UTF-8" standalone="no"?>
<!DOCTYPE svg PUBLIC "-//W3C//DTD SVG 1.1//EN"
 "http://www.w3.org/Graphics/SVG/1.1/DTD/svg11.dtd">
<!-- Generated by graphviz version 2.40.1 (0)
 -->
<!-- Title: sys/include/fs/lwext4_fs.h Pages: 1 -->
<svg width="993pt" height="476pt"
 viewBox="0.00 0.00 992.54 476.00" xmlns="http://www.w3.org/2000/svg" xmlns:xlink="http://www.w3.org/1999/xlink">
<g id="graph0" class="graph" transform="scale(1 1) rotate(0) translate(4 472)">
<title>sys/include/fs/lwext4_fs.h</title>
<polygon fill="#ffffff" stroke="transparent" points="-4,4 -4,-472 988.5409,-472 988.5409,4 -4,4"/>
<!-- Node0 -->
<g id="node1" class="node">
<title>Node0</title>
<polygon fill="#bfbfbf" stroke="#000000" points="372,-448.5 372,-467.5 508,-467.5 508,-448.5 372,-448.5"/>
<text text-anchor="middle" x="440" y="-455.5" font-family="Helvetica,sans-Serif" font-size="10.00" fill="#000000">sys/include/fs/lwext4_fs.h</text>
</g>
<!-- Node1 -->
<g id="node2" class="node">
<title>Node1</title>
<polygon fill="#ffffff" stroke="#bfbfbf" points="280,-392.5 280,-411.5 342,-411.5 342,-392.5 280,-392.5"/>
<text text-anchor="middle" x="311" y="-399.5" font-family="Helvetica,sans-Serif" font-size="10.00" fill="#000000">stdalign.h</text>
</g>
<!-- Node0&#45;&gt;Node1 -->
<g id="edge1" class="edge">
<title>Node0&#45;&gt;Node1</title>
<path fill="none" stroke="#191970" d="M417.8241,-448.3733C397.0234,-439.3435 365.7083,-425.7494 342.3542,-415.6111"/>
<polygon fill="#191970" stroke="#191970" points="343.4532,-412.2727 332.8865,-411.5011 340.6657,-418.6938 343.4532,-412.2727"/>
</g>
<!-- Node2 -->
<g id="node3" class="node">
<title>Node2</title>
<polygon fill="#ffffff" stroke="#bfbfbf" points="360.5,-392.5 360.5,-411.5 399.5,-411.5 399.5,-392.5 360.5,-392.5"/>
<text text-anchor="middle" x="380" y="-399.5" font-family="Helvetica,sans-Serif" font-size="10.00" fill="#000000">vfs.h</text>
</g>
<!-- Node0&#45;&gt;Node2 -->
<g id="edge2" class="edge">
<title>Node0&#45;&gt;Node2</title>
<path fill="none" stroke="#191970" d="M429.5488,-448.2455C420.7731,-440.0549 408.0446,-428.1749 397.686,-418.5069"/>
<polygon fill="#191970" stroke="#191970" points="400.0301,-415.9072 390.3314,-411.6427 395.2539,-421.0246 400.0301,-415.9072"/>
</g>
<!-- Node3 -->
<g id="node4" class="node">
<title>Node3</title>
<polygon fill="#ffffff" stroke="#bfbfbf" points="418,-392.5 418,-411.5 462,-411.5 462,-392.5 418,-392.5"/>
<text text-anchor="middle" x="440" y="-399.5" font-family="Helvetica,sans-Serif" font-size="10.00" fill="#000000">mtd.h</text>
</g>
<!-- Node0&#45;&gt;Node3 -->
<g id="edge3" class="edge">
<title>Node0&#45;&gt;Node3</title>
<path fill="none" stroke="#191970" d="M440,-448.2455C440,-440.9382 440,-430.6944 440,-421.7046"/>
<polygon fill="#191970" stroke="#191970" points="443.5001,-421.6426 440,-411.6427 436.5001,-421.6427 443.5001,-421.6426"/>
</g>
<!-- Node4 -->
<g id="node5" class="node">
<title>Node4</title>
<g id="a_node5"><a xlink:href="mutex_8h.html" target="_top" xlink:title="Mutex for thread synchronization. ">
<polygon fill="#ffffff" stroke="#000000" points="480,-392.5 480,-411.5 536,-411.5 536,-392.5 480,-392.5"/>
<text text-anchor="middle" x="508" y="-399.5" font-family="Helvetica,sans-Serif" font-size="10.00" fill="#000000">mutex.h</text>
</a>
</g>
</g>
<!-- Node0&#45;&gt;Node4 -->
<g id="edge4" class="edge">
<title>Node0&#45;&gt;Node4</title>
<path fill="none" stroke="#191970" d="M451.8447,-448.2455C461.888,-439.9746 476.4995,-427.9416 488.3004,-418.2232"/>
<polygon fill="#191970" stroke="#191970" points="490.7967,-420.7015 496.291,-411.6427 486.3467,-415.298 490.7967,-420.7015"/>
</g>
<!-- Node28 -->
<g id="node29" class="node">
<title>Node28</title>
<polygon fill="#ffffff" stroke="#bfbfbf" points="554.5,-392.5 554.5,-411.5 601.5,-411.5 601.5,-392.5 554.5,-392.5"/>
<text text-anchor="middle" x="578" y="-399.5" font-family="Helvetica,sans-Serif" font-size="10.00" fill="#000000">ext4.h</text>
</g>
<!-- Node0&#45;&gt;Node28 -->
<g id="edge46" class="edge">
<title>Node0&#45;&gt;Node28</title>
<path fill="none" stroke="#191970" d="M463.723,-448.3733C486.1737,-439.2629 520.0739,-425.5062 545.1255,-415.3404"/>
<polygon fill="#191970" stroke="#191970" points="546.6365,-418.5045 554.5865,-411.5011 544.0043,-412.0182 546.6365,-418.5045"/>
</g>
<!-- Node5 -->
<g id="node6" class="node">
<title>Node5</title>
<polygon fill="#ffffff" stroke="#bfbfbf" points="629,-56.5 629,-75.5 685,-75.5 685,-56.5 629,-56.5"/>
<text text-anchor="middle" x="657" y="-63.5" font-family="Helvetica,sans-Serif" font-size="10.00" fill="#000000">stddef.h</text>
</g>
<!-- Node4&#45;&gt;Node5 -->
<g id="edge5" class="edge">
<title>Node4&#45;&gt;Node5</title>
<path fill="none" stroke="#191970" d="M511.4079,-392.2144C520.9255,-365.1207 548.9368,-286.9677 577,-224 599.84,-172.752 630.768,-114.2823 646.6477,-84.927"/>
<polygon fill="#191970" stroke="#191970" points="649.8986,-86.2749 651.599,-75.8174 643.7484,-82.932 649.8986,-86.2749"/>
</g>
<!-- Node6 -->
<g id="node7" class="node">
<title>Node6</title>
<polygon fill="#ffffff" stroke="#bfbfbf" points="357,-.5 357,-19.5 409,-19.5 409,-.5 357,-.5"/>
<text text-anchor="middle" x="383" y="-7.5" font-family="Helvetica,sans-Serif" font-size="10.00" fill="#000000">stdint.h</text>
</g>
<!-- Node4&#45;&gt;Node6 -->
<g id="edge6" class="edge">
<title>Node4&#45;&gt;Node6</title>
<path fill="none" stroke="#191970" d="M479.5333,-393.1772C410.9126,-371.5027 242,-315.5547 242,-290 242,-290 242,-290 242,-122 242,-91.4754 240.2992,-78.4328 261,-56 283.3238,-31.8084 319.653,-20.2575 346.8723,-14.7924"/>
<polygon fill="#191970" stroke="#191970" points="347.5993,-18.2177 356.8102,-12.9822 346.3448,-11.331 347.5993,-18.2177"/>
</g>
<!-- Node7 -->
<g id="node8" class="node">
<title>Node7</title>
<polygon fill="#ffffff" stroke="#bfbfbf" points="845,-112.5 845,-131.5 905,-131.5 905,-112.5 845,-112.5"/>
<text text-anchor="middle" x="875" y="-119.5" font-family="Helvetica,sans-Serif" font-size="10.00" fill="#000000">stdbool.h</text>
</g>
<!-- Node4&#45;&gt;Node7 -->
<g id="edge7" class="edge">
<title>Node4&#45;&gt;Node7</title>
<path fill="none" stroke="#191970" d="M536.172,-394.3714C539.4775,-393.5401 542.8083,-392.7314 546,-392 632.4804,-372.1824 932,-378.7221 932,-290 932,-290 932,-290 932,-234 932,-197.1826 907.2325,-160.2377 890.3499,-139.3313"/>
<polygon fill="#191970" stroke="#191970" points="893.0131,-137.06 883.9063,-131.6456 887.6489,-141.5574 893.0131,-137.06"/>
</g>
<!-- Node8 -->
<g id="node9" class="node">
<title>Node8</title>
<g id="a_node9"><a xlink:href="architecture_8h.html" target="_top" xlink:title="Platform&#45;independent access to architecture details. ">
<polygon fill="#ffffff" stroke="#000000" points="130.5,-224.5 130.5,-243.5 213.5,-243.5 213.5,-224.5 130.5,-224.5"/>
<text text-anchor="middle" x="172" y="-231.5" font-family="Helvetica,sans-Serif" font-size="10.00" fill="#000000">architecture.h</text>
</a>
</g>
</g>
<!-- Node4&#45;&gt;Node8 -->
<g id="edge8" class="edge">
<title>Node4&#45;&gt;Node8</title>
<path fill="none" stroke="#191970" d="M479.8001,-394.014C476.8401,-393.285 473.8662,-392.5975 471,-392 364.1189,-369.7191 315.3251,-421.5311 228,-356 194.5783,-330.9195 180.5026,-281.126 175.0682,-253.5392"/>
<polygon fill="#191970" stroke="#191970" points="178.4839,-252.7561 173.2861,-243.524 171.5922,-253.9825 178.4839,-252.7561"/>
</g>
<!-- Node12 -->
<g id="node13" class="node">
<title>Node12</title>
<g id="a_node13"><a xlink:href="kernel__defines_8h.html" target="_top" xlink:title="Common macros and compiler attributes/pragmas configuration. ">
<polygon fill="#ffffff" stroke="#000000" points="429.5,-168.5 429.5,-187.5 524.5,-187.5 524.5,-168.5 429.5,-168.5"/>
<text text-anchor="middle" x="477" y="-175.5" font-family="Helvetica,sans-Serif" font-size="10.00" fill="#000000">kernel_defines.h</text>
</a>
</g>
</g>
<!-- Node4&#45;&gt;Node12 -->
<g id="edge13" class="edge">
<title>Node4&#45;&gt;Node12</title>
<path fill="none" stroke="#191970" d="M504.4509,-392.2676C501.2308,-383.0504 496.6011,-368.7601 494,-356 482.4632,-299.4038 478.7163,-231.0484 477.53,-197.924"/>
<polygon fill="#191970" stroke="#191970" points="481.0228,-197.6383 477.2086,-187.7538 474.0263,-197.8594 481.0228,-197.6383"/>
</g>
<!-- Node18 -->
<g id="node19" class="node">
<title>Node18</title>
<g id="a_node19"><a xlink:href="list_8h.html" target="_top" xlink:title="Intrusive linked list. ">
<polygon fill="#ffffff" stroke="#000000" points="933,-112.5 933,-131.5 971,-131.5 971,-112.5 933,-112.5"/>
<text text-anchor="middle" x="952" y="-119.5" font-family="Helvetica,sans-Serif" font-size="10.00" fill="#000000">list.h</text>
</a>
</g>
</g>
<!-- Node4&#45;&gt;Node18 -->
<g id="edge24" class="edge">
<title>Node4&#45;&gt;Node18</title>
<path fill="none" stroke="#191970" d="M536.1157,-394.0988C539.4313,-393.3165 542.7798,-392.5938 546,-392 692.8289,-364.9255 740.8028,-409.999 880,-356 926.245,-338.0601 970,-339.6029 970,-290 970,-290 970,-290 970,-234 970,-201.1472 962.3569,-163.5528 957.0316,-141.3462"/>
<polygon fill="#191970" stroke="#191970" points="960.3935,-140.3622 954.579,-131.5055 953.6013,-142.0551 960.3935,-140.3622"/>
</g>
<!-- Node19 -->
<g id="node20" class="node">
<title>Node19</title>
<g id="a_node20"><a xlink:href="core_2include_2thread_8h.html" target="_top" xlink:title="Threading API. ">
<polygon fill="#ffffff" stroke="#000000" points="663.5,-336.5 663.5,-355.5 720.5,-355.5 720.5,-336.5 663.5,-336.5"/>
<text text-anchor="middle" x="692" y="-343.5" font-family="Helvetica,sans-Serif" font-size="10.00" fill="#000000">thread.h</text>
</a>
</g>
</g>
<!-- Node4&#45;&gt;Node19 -->
<g id="edge25" class="edge">
<title>Node4&#45;&gt;Node19</title>
<path fill="none" stroke="#191970" d="M536.3468,-393.3727C567.7255,-383.8227 618.4815,-368.3752 653.4558,-357.7308"/>
<polygon fill="#191970" stroke="#191970" points="654.7702,-360.9894 663.3179,-354.7293 652.732,-354.2927 654.7702,-360.9894"/>
</g>
<!-- Node8&#45;&gt;Node6 -->
<g id="edge9" class="edge">
<title>Node8&#45;&gt;Node6</title>
<path fill="none" stroke="#191970" d="M174.5034,-224.2168C183.6547,-188.7543 215.4141,-68.3823 228,-56 244.8426,-39.4299 306.5617,-24.7606 346.8524,-16.6578"/>
<polygon fill="#191970" stroke="#191970" points="347.706,-20.0571 356.8433,-14.6941 346.356,-13.1885 347.706,-20.0571"/>
</g>
<!-- Node9 -->
<g id="node10" class="node">
<title>Node9</title>
<g id="a_node10"><a xlink:href="inttypes_8h.html" target="_top" xlink:title="Adds include for missing inttype definitions. ">
<polygon fill="#ffffff" stroke="#000000" points="322.5,-168.5 322.5,-187.5 385.5,-187.5 385.5,-168.5 322.5,-168.5"/>
<text text-anchor="middle" x="354" y="-175.5" font-family="Helvetica,sans-Serif" font-size="10.00" fill="#000000">inttypes.h</text>
</a>
</g>
</g>
<!-- Node8&#45;&gt;Node9 -->
<g id="edge10" class="edge">
<title>Node8&#45;&gt;Node9</title>
<path fill="none" stroke="#191970" d="M203.2869,-224.3733C233.6818,-215.021 279.9893,-200.7725 313.25,-190.5385"/>
<polygon fill="#191970" stroke="#191970" points="314.5929,-193.7873 323.1214,-187.5011 312.5342,-187.0968 314.5929,-193.7873"/>
</g>
<!-- Node10 -->
<g id="node11" class="node">
<title>Node10</title>
<polygon fill="#ffffff" stroke="#bfbfbf" points="0,-168.5 0,-187.5 50,-187.5 50,-168.5 0,-168.5"/>
<text text-anchor="middle" x="25" y="-175.5" font-family="Helvetica,sans-Serif" font-size="10.00" fill="#000000">limits.h</text>
</g>
<!-- Node8&#45;&gt;Node10 -->
<g id="edge11" class="edge">
<title>Node8&#45;&gt;Node10</title>
<path fill="none" stroke="#191970" d="M146.7298,-224.3733C122.6034,-215.1822 86.0638,-201.2624 59.3123,-191.0713"/>
<polygon fill="#191970" stroke="#191970" points="60.5313,-187.7904 49.9404,-187.5011 58.0393,-194.3318 60.5313,-187.7904"/>
</g>
<!-- Node11 -->
<g id="node12" class="node">
<title>Node11</title>
<polygon fill="#ffffff" stroke="#bfbfbf" points="68.5,-168.5 68.5,-187.5 175.5,-187.5 175.5,-168.5 68.5,-168.5"/>
<text text-anchor="middle" x="122" y="-175.5" font-family="Helvetica,sans-Serif" font-size="10.00" fill="#000000">architecture_arch.h</text>
</g>
<!-- Node8&#45;&gt;Node11 -->
<g id="edge12" class="edge">
<title>Node8&#45;&gt;Node11</title>
<path fill="none" stroke="#191970" d="M163.2907,-224.2455C156.1927,-216.2958 145.9916,-204.8706 137.505,-195.3656"/>
<polygon fill="#191970" stroke="#191970" points="139.8805,-192.771 130.6095,-187.6427 134.6589,-197.4331 139.8805,-192.771"/>
</g>
<!-- Node13 -->
<g id="node14" class="node">
<title>Node13</title>
<g id="a_node14"><a xlink:href="modules_8h.html" target="_top" xlink:title="Common macros and compiler attributes/pragmas configuration. ">
<polygon fill="#ffffff" stroke="#000000" points="457.5,-112.5 457.5,-131.5 522.5,-131.5 522.5,-112.5 457.5,-112.5"/>
<text text-anchor="middle" x="490" y="-119.5" font-family="Helvetica,sans-Serif" font-size="10.00" fill="#000000">modules.h</text>
</a>
</g>
</g>
<!-- Node12&#45;&gt;Node13 -->
<g id="edge14" class="edge">
<title>Node12&#45;&gt;Node13</title>
<path fill="none" stroke="#191970" d="M479.2644,-168.2455C480.9794,-160.8579 483.3912,-150.4689 485.4944,-141.4087"/>
<polygon fill="#191970" stroke="#191970" points="488.9095,-142.1751 487.7615,-131.6427 482.0908,-140.5922 488.9095,-142.1751"/>
</g>
<!-- Node14 -->
<g id="node15" class="node">
<title>Node14</title>
<g id="a_node15"><a xlink:href="riot__version_8h.html" target="_top" xlink:title="Common macros and compiler attributes/pragmas configuration. ">
<polygon fill="#ffffff" stroke="#000000" points="342.5,-56.5 342.5,-75.5 423.5,-75.5 423.5,-56.5 342.5,-56.5"/>
<text text-anchor="middle" x="383" y="-63.5" font-family="Helvetica,sans-Serif" font-size="10.00" fill="#000000">riot_version.h</text>
</a>
</g>
</g>
<!-- Node12&#45;&gt;Node14 -->
<g id="edge15" class="edge">
<title>Node12&#45;&gt;Node14</title>
<path fill="none" stroke="#191970" d="M429.5378,-168.488C393.7516,-160.2397 349.0149,-147.2477 338,-132 325.7169,-114.9969 343.6561,-95.0468 360.3933,-81.5673"/>
<polygon fill="#191970" stroke="#191970" points="362.5245,-84.3437 368.3756,-75.5111 358.2934,-78.7671 362.5245,-84.3437"/>
</g>
<!-- Node15 -->
<g id="node16" class="node">
<title>Node15</title>
<g id="a_node16"><a xlink:href="compiler__hints_8h.html" target="_top" xlink:title="Common macros and compiler attributes/pragmas configuration. ">
<polygon fill="#ffffff" stroke="#000000" points="346.5,-112.5 346.5,-131.5 439.5,-131.5 439.5,-112.5 346.5,-112.5"/>
<text text-anchor="middle" x="393" y="-119.5" font-family="Helvetica,sans-Serif" font-size="10.00" fill="#000000">compiler_hints.h</text>
</a>
</g>
</g>
<!-- Node12&#45;&gt;Node15 -->
<g id="edge17" class="edge">
<title>Node12&#45;&gt;Node15</title>
<path fill="none" stroke="#191970" d="M462.3683,-168.2455C449.6006,-159.7337 430.8562,-147.2375 416.0701,-137.3801"/>
<polygon fill="#191970" stroke="#191970" points="417.726,-134.2775 407.464,-131.6427 413.8431,-140.1019 417.726,-134.2775"/>
</g>
<!-- Node17 -->
<g id="node18" class="node">
<title>Node17</title>
<g id="a_node18"><a xlink:href="container_8h.html" target="_top" xlink:title="Common macros and compiler attributes/pragmas configuration. ">
<polygon fill="#ffffff" stroke="#000000" points="540.5,-112.5 540.5,-131.5 609.5,-131.5 609.5,-112.5 540.5,-112.5"/>
<text text-anchor="middle" x="575" y="-119.5" font-family="Helvetica,sans-Serif" font-size="10.00" fill="#000000">container.h</text>
</a>
</g>
</g>
<!-- Node12&#45;&gt;Node17 -->
<g id="edge21" class="edge">
<title>Node12&#45;&gt;Node17</title>
<path fill="none" stroke="#191970" d="M494.0703,-168.2455C509.247,-159.5731 531.6621,-146.7645 549.0563,-136.825"/>
<polygon fill="#191970" stroke="#191970" points="551.1794,-139.643 558.1253,-131.6427 547.7064,-133.5653 551.1794,-139.643"/>
</g>
<!-- Node14&#45;&gt;Node6 -->
<g id="edge16" class="edge">
<title>Node14&#45;&gt;Node6</title>
<path fill="none" stroke="#191970" d="M383,-56.2455C383,-48.9382 383,-38.6944 383,-29.7046"/>
<polygon fill="#191970" stroke="#191970" points="386.5001,-29.6426 383,-19.6427 379.5001,-29.6427 386.5001,-29.6426"/>
</g>
<!-- Node15&#45;&gt;Node6 -->
<g id="edge20" class="edge">
<title>Node15&#45;&gt;Node6</title>
<path fill="none" stroke="#191970" d="M405.8249,-112.379C420.7725,-99.9044 442.3143,-77.2256 433,-56 427.6677,-43.8487 417.3661,-33.4938 407.4924,-25.7031"/>
<polygon fill="#191970" stroke="#191970" points="409.5509,-22.8723 399.4177,-19.7788 405.41,-28.5162 409.5509,-22.8723"/>
</g>
<!-- Node16 -->
<g id="node17" class="node">
<title>Node16</title>
<g id="a_node17"><a xlink:href="assert_8h.html" target="_top" xlink:title="POSIX.1&#45;2008 compliant version of the assert macro. ">
<polygon fill="#ffffff" stroke="#000000" points="270,-56.5 270,-75.5 324,-75.5 324,-56.5 270,-56.5"/>
<text text-anchor="middle" x="297" y="-63.5" font-family="Helvetica,sans-Serif" font-size="10.00" fill="#000000">assert.h</text>
</a>
</g>
</g>
<!-- Node15&#45;&gt;Node16 -->
<g id="edge18" class="edge">
<title>Node15&#45;&gt;Node16</title>
<path fill="none" stroke="#191970" d="M376.2781,-112.2455C361.4111,-103.5731 339.4534,-90.7645 322.4142,-80.825"/>
<polygon fill="#191970" stroke="#191970" points="323.9317,-77.6582 313.5303,-75.6427 320.4045,-83.7047 323.9317,-77.6582"/>
</g>
<!-- Node16&#45;&gt;Node6 -->
<g id="edge19" class="edge">
<title>Node16&#45;&gt;Node6</title>
<path fill="none" stroke="#191970" d="M311.9801,-56.2455C325.1751,-47.6534 344.6051,-35.0014 359.8079,-25.1018"/>
<polygon fill="#191970" stroke="#191970" points="361.7215,-28.0325 368.1916,-19.6427 357.9017,-22.1665 361.7215,-28.0325"/>
</g>
<!-- Node17&#45;&gt;Node5 -->
<g id="edge22" class="edge">
<title>Node17&#45;&gt;Node5</title>
<path fill="none" stroke="#191970" d="M589.2833,-112.2455C601.747,-103.7337 620.0451,-91.2375 634.4792,-81.3801"/>
<polygon fill="#191970" stroke="#191970" points="636.5962,-84.1726 642.8804,-75.6427 632.6485,-78.392 636.5962,-84.1726"/>
</g>
<!-- Node17&#45;&gt;Node6 -->
<g id="edge23" class="edge">
<title>Node17&#45;&gt;Node6</title>
<path fill="none" stroke="#191970" d="M558.6302,-112.4509C525.0482,-92.8615 448.169,-48.0152 408.1906,-24.6945"/>
<polygon fill="#191970" stroke="#191970" points="409.7297,-21.5404 399.3284,-19.5249 406.2026,-27.5869 409.7297,-21.5404"/>
</g>
<!-- Node20 -->
<g id="node21" class="node">
<title>Node20</title>
<g id="a_node21"><a xlink:href="clist_8h.html" target="_top" xlink:title="Circular linked list. ">
<polygon fill="#ffffff" stroke="#000000" points="853.5,-168.5 853.5,-187.5 896.5,-187.5 896.5,-168.5 853.5,-168.5"/>
<text text-anchor="middle" x="875" y="-175.5" font-family="Helvetica,sans-Serif" font-size="10.00" fill="#000000">clist.h</text>
</a>
</g>
</g>
<!-- Node19&#45;&gt;Node20 -->
<g id="edge26" class="edge">
<title>Node19&#45;&gt;Node20</title>
<path fill="none" stroke="#191970" d="M720.6119,-343.0404C767.2011,-337.5658 856.1655,-324.1547 875,-300 898.0083,-270.4924 889.2615,-223.6125 881.6299,-197.3886"/>
<polygon fill="#191970" stroke="#191970" points="884.9617,-196.3161 878.625,-187.8251 878.2836,-198.4144 884.9617,-196.3161"/>
</g>
<!-- Node21 -->
<g id="node22" class="node">
<title>Node21</title>
<g id="a_node22"><a xlink:href="cib_8h.html" target="_top" xlink:title="Circular integer buffer interface. ">
<polygon fill="#ffffff" stroke="#000000" points="491,-224.5 491,-243.5 529,-243.5 529,-224.5 491,-224.5"/>
<text text-anchor="middle" x="510" y="-231.5" font-family="Helvetica,sans-Serif" font-size="10.00" fill="#000000">cib.h</text>
</a>
</g>
</g>
<!-- Node19&#45;&gt;Node21 -->
<g id="edge30" class="edge">
<title>Node19&#45;&gt;Node21</title>
<path fill="none" stroke="#191970" d="M663.492,-340.2315C636.3383,-333.7352 595.2354,-321.2124 565,-300 546.971,-287.3513 531.4423,-267.3369 521.5275,-252.6617"/>
<polygon fill="#191970" stroke="#191970" points="524.2335,-250.402 515.8529,-243.92 518.3621,-254.2134 524.2335,-250.402"/>
</g>
<!-- Node22 -->
<g id="node23" class="node">
<title>Node22</title>
<g id="a_node23"><a xlink:href="core_2include_2msg_8h.html" target="_top" xlink:title="Messaging API for inter process communication. ">
<polygon fill="#ffffff" stroke="#000000" points="720.5,-280.5 720.5,-299.5 765.5,-299.5 765.5,-280.5 720.5,-280.5"/>
<text text-anchor="middle" x="743" y="-287.5" font-family="Helvetica,sans-Serif" font-size="10.00" fill="#000000">msg.h</text>
</a>
</g>
</g>
<!-- Node19&#45;&gt;Node22 -->
<g id="edge32" class="edge">
<title>Node19&#45;&gt;Node22</title>
<path fill="none" stroke="#191970" d="M700.8835,-336.2455C708.1966,-328.2155 718.7391,-316.6394 727.4467,-307.0781"/>
<polygon fill="#191970" stroke="#191970" points="730.0727,-309.3928 734.2183,-299.6427 724.8972,-304.6795 730.0727,-309.3928"/>
</g>
<!-- Node23 -->
<g id="node24" class="node">
<title>Node23</title>
<g id="a_node24"><a xlink:href="sched_8h.html" target="_top" xlink:title="Scheduler API definition. ">
<polygon fill="#ffffff" stroke="#000000" points="670.5,-224.5 670.5,-243.5 723.5,-243.5 723.5,-224.5 670.5,-224.5"/>
<text text-anchor="middle" x="697" y="-231.5" font-family="Helvetica,sans-Serif" font-size="10.00" fill="#000000">sched.h</text>
</a>
</g>
</g>
<!-- Node19&#45;&gt;Node23 -->
<g id="edge41" class="edge">
<title>Node19&#45;&gt;Node23</title>
<path fill="none" stroke="#191970" d="M692.4263,-336.4509C693.2418,-318.184 695.0377,-277.9553 696.1206,-253.6976"/>
<polygon fill="#191970" stroke="#191970" points="699.6252,-253.6711 696.5748,-243.5249 692.6322,-253.3588 699.6252,-253.6711"/>
</g>
<!-- Node25 -->
<g id="node26" class="node">
<title>Node25</title>
<g id="a_node26"><a xlink:href="thread__config_8h.html" target="_top" xlink:title="Thread configuration defines. ">
<polygon fill="#ffffff" stroke="#000000" points="574,-280.5 574,-299.5 664,-299.5 664,-280.5 574,-280.5"/>
<text text-anchor="middle" x="619" y="-287.5" font-family="Helvetica,sans-Serif" font-size="10.00" fill="#000000">thread_config.h</text>
</a>
</g>
</g>
<!-- Node19&#45;&gt;Node25 -->
<g id="edge42" class="edge">
<title>Node19&#45;&gt;Node25</title>
<path fill="none" stroke="#191970" d="M679.2844,-336.2455C668.398,-327.8943 652.5117,-315.7076 639.78,-305.9408"/>
<polygon fill="#191970" stroke="#191970" points="641.6346,-302.9523 631.5699,-299.6427 637.3739,-308.5063 641.6346,-302.9523"/>
</g>
<!-- Node27 -->
<g id="node28" class="node">
<title>Node27</title>
<polygon fill="#ffffff" stroke="#bfbfbf" points="784,-280.5 784,-299.5 866,-299.5 866,-280.5 784,-280.5"/>
<text text-anchor="middle" x="825" y="-287.5" font-family="Helvetica,sans-Serif" font-size="10.00" fill="#000000">thread_arch.h</text>
</g>
<!-- Node19&#45;&gt;Node27 -->
<g id="edge45" class="edge">
<title>Node19&#45;&gt;Node27</title>
<path fill="none" stroke="#191970" d="M714.8635,-336.3733C736.405,-327.3032 768.8838,-313.6279 792.9956,-303.4755"/>
<polygon fill="#191970" stroke="#191970" points="794.5767,-306.6075 802.4348,-299.5011 791.8603,-300.156 794.5767,-306.6075"/>
</g>
<!-- Node20&#45;&gt;Node5 -->
<g id="edge28" class="edge">
<title>Node20&#45;&gt;Node5</title>
<path fill="none" stroke="#191970" d="M856.4134,-168.4509C817.9621,-148.6961 729.5172,-103.2565 684.4617,-80.1088"/>
<polygon fill="#191970" stroke="#191970" points="686.0337,-76.9816 675.5395,-75.5249 682.8349,-83.2079 686.0337,-76.9816"/>
</g>
<!-- Node20&#45;&gt;Node7 -->
<g id="edge27" class="edge">
<title>Node20&#45;&gt;Node7</title>
<path fill="none" stroke="#191970" d="M875,-168.2455C875,-160.9382 875,-150.6944 875,-141.7046"/>
<polygon fill="#191970" stroke="#191970" points="878.5001,-141.6426 875,-131.6427 871.5001,-141.6427 878.5001,-141.6426"/>
</g>
<!-- Node20&#45;&gt;Node18 -->
<g id="edge29" class="edge">
<title>Node20&#45;&gt;Node18</title>
<path fill="none" stroke="#191970" d="M888.4124,-168.2455C900.0057,-159.814 916.9748,-147.4729 930.4678,-137.6598"/>
<polygon fill="#191970" stroke="#191970" points="932.7126,-140.355 938.7413,-131.6427 928.5953,-134.6938 932.7126,-140.355"/>
</g>
<!-- Node21&#45;&gt;Node16 -->
<g id="edge31" class="edge">
<title>Node21&#45;&gt;Node16</title>
<path fill="none" stroke="#191970" d="M490.6915,-232.2051C446.0686,-227.6449 337.787,-214.0845 314,-188 288.5308,-160.0709 290.1272,-112.5514 293.5564,-85.8067"/>
<polygon fill="#191970" stroke="#191970" points="297.0451,-86.1424 295.0647,-75.7343 290.1223,-85.1057 297.0451,-86.1424"/>
</g>
<!-- Node22&#45;&gt;Node6 -->
<g id="edge33" class="edge">
<title>Node22&#45;&gt;Node6</title>
<path fill="none" stroke="#191970" d="M763.3138,-280.4179C826.7512,-249.886 1014.9118,-154.4107 980,-112 943.8805,-68.1222 542.9736,-25.6074 419.1857,-13.4481"/>
<polygon fill="#191970" stroke="#191970" points="419.3767,-9.9503 409.0842,-12.4631 418.6972,-16.9172 419.3767,-9.9503"/>
</g>
<!-- Node22&#45;&gt;Node7 -->
<g id="edge34" class="edge">
<title>Node22&#45;&gt;Node7</title>
<path fill="none" stroke="#191970" d="M750.4751,-280.4862C771.7929,-253.3545 833.1373,-175.2798 860.969,-139.8576"/>
<polygon fill="#191970" stroke="#191970" points="863.852,-141.8535 867.2781,-131.8279 858.3477,-137.5287 863.852,-141.8535"/>
</g>
<!-- Node22&#45;&gt;Node23 -->
<g id="edge35" class="edge">
<title>Node22&#45;&gt;Node23</title>
<path fill="none" stroke="#191970" d="M734.9874,-280.2455C728.5232,-272.3761 719.2615,-261.101 711.5017,-251.6542"/>
<polygon fill="#191970" stroke="#191970" points="713.9727,-249.1484 704.9208,-243.6427 708.5636,-253.5916 713.9727,-249.1484"/>
</g>
<!-- Node23&#45;&gt;Node5 -->
<g id="edge36" class="edge">
<title>Node23&#45;&gt;Node5</title>
<path fill="none" stroke="#191970" d="M694.7348,-224.4862C688.3844,-197.8144 670.3123,-121.9117 661.6893,-85.695"/>
<polygon fill="#191970" stroke="#191970" points="665.0611,-84.7452 659.34,-75.8279 658.2514,-86.3666 665.0611,-84.7452"/>
</g>
<!-- Node23&#45;&gt;Node9 -->
<g id="edge37" class="edge">
<title>Node23&#45;&gt;Node9</title>
<path fill="none" stroke="#191970" d="M670.3375,-225.9956C667.535,-225.2702 664.7176,-224.5886 662,-224 661.5938,-223.912 479.8061,-196.7766 395.7397,-184.2295"/>
<polygon fill="#191970" stroke="#191970" points="396.1581,-180.7532 385.751,-182.7386 395.1247,-187.6765 396.1581,-180.7532"/>
</g>
<!-- Node23&#45;&gt;Node12 -->
<g id="edge38" class="edge">
<title>Node23&#45;&gt;Node12</title>
<path fill="none" stroke="#191970" d="M670.2734,-226.2609C667.4833,-225.4838 664.6864,-224.7175 662,-224 616.5516,-211.8609 564.5409,-199.0211 527.2654,-190.0009"/>
<polygon fill="#191970" stroke="#191970" points="527.7024,-186.5059 517.1603,-187.5617 526.0599,-193.3105 527.7024,-186.5059"/>
</g>
<!-- Node23&#45;&gt;Node20 -->
<g id="edge40" class="edge">
<title>Node23&#45;&gt;Node20</title>
<path fill="none" stroke="#191970" d="M723.6484,-225.6162C755.729,-215.5234 809.5304,-198.5972 843.5968,-187.8797"/>
<polygon fill="#191970" stroke="#191970" points="845.0009,-191.1071 853.4896,-184.7673 842.9001,-184.4298 845.0009,-191.1071"/>
</g>
<!-- Node24 -->
<g id="node25" class="node">
<title>Node24</title>
<g id="a_node25"><a xlink:href="native__sched_8h.html" target="_top" xlink:title="Add definitions required on the native board. ">
<polygon fill="#ffffff" stroke="#000000" points="704,-168.5 704,-187.5 790,-187.5 790,-168.5 704,-168.5"/>
<text text-anchor="middle" x="747" y="-175.5" font-family="Helvetica,sans-Serif" font-size="10.00" fill="#000000">native_sched.h</text>
</a>
</g>
</g>
<!-- Node23&#45;&gt;Node24 -->
<g id="edge39" class="edge">
<title>Node23&#45;&gt;Node24</title>
<path fill="none" stroke="#191970" d="M705.7093,-224.2455C712.8073,-216.2958 723.0084,-204.8706 731.495,-195.3656"/>
<polygon fill="#191970" stroke="#191970" points="734.3411,-197.4331 738.3905,-187.6427 729.1195,-192.771 734.3411,-197.4331"/>
</g>
<!-- Node25&#45;&gt;Node23 -->
<g id="edge44" class="edge">
<title>Node25&#45;&gt;Node23</title>
<path fill="none" stroke="#191970" d="M632.5866,-280.2455C644.3305,-271.814 661.5199,-259.4729 675.1882,-249.6598"/>
<polygon fill="#191970" stroke="#191970" points="677.4871,-252.3179 683.5691,-243.6427 673.4046,-246.6316 677.4871,-252.3179"/>
</g>
<!-- Node26 -->
<g id="node27" class="node">
<title>Node26</title>
<polygon fill="#ffffff" stroke="#bfbfbf" points="585.5,-224.5 585.5,-243.5 652.5,-243.5 652.5,-224.5 585.5,-224.5"/>
<text text-anchor="middle" x="619" y="-231.5" font-family="Helvetica,sans-Serif" font-size="10.00" fill="#000000">cpu_conf.h</text>
</g>
<!-- Node25&#45;&gt;Node26 -->
<g id="edge43" class="edge">
<title>Node25&#45;&gt;Node26</title>
<path fill="none" stroke="#191970" d="M619,-280.2455C619,-272.9382 619,-262.6944 619,-253.7046"/>
<polygon fill="#191970" stroke="#191970" points="622.5001,-253.6426 619,-243.6427 615.5001,-253.6427 622.5001,-253.6426"/>
</g>
</g>
</svg>
