<?xml version="1.0" encoding="UTF-8" standalone="no"?>
<!DOCTYPE svg PUBLIC "-//W3C//DTD SVG 1.1//EN"
 "http://www.w3.org/Graphics/SVG/1.1/DTD/svg11.dtd">
<!-- Generated by graphviz version 2.40.1 (0)
 -->
<!-- Title: pkg/wakaama/include/lwm2m_client_config.h Pages: 1 -->
<svg width="1074pt" height="251pt"
 viewBox="0.00 0.00 1073.50 251.00" xmlns="http://www.w3.org/2000/svg" xmlns:xlink="http://www.w3.org/1999/xlink">
<g id="graph0" class="graph" transform="scale(1 1) rotate(0) translate(4 247)">
<title>pkg/wakaama/include/lwm2m_client_config.h</title>
<polygon fill="#ffffff" stroke="transparent" points="-4,4 -4,-247 1069.5,-247 1069.5,4 -4,4"/>
<!-- Node1 -->
<g id="node1" class="node">
<title>Node1</title>
<polygon fill="#bfbfbf" stroke="#000000" points="554.5,-212.5 554.5,-242.5 679.5,-242.5 679.5,-212.5 554.5,-212.5"/>
<text text-anchor="start" x="562.5" y="-230.5" font-family="Helvetica,sans-Serif" font-size="10.00" fill="#000000">pkg/wakaama/include</text>
<text text-anchor="middle" x="617" y="-219.5" font-family="Helvetica,sans-Serif" font-size="10.00" fill="#000000">/lwm2m_client_config.h</text>
</g>
<!-- Node2 -->
<g id="node2" class="node">
<title>Node2</title>
<g id="a_node2"><a xlink:href="lwm2m__client_8h.html" target="_top" xlink:title="Definitions and public API for a LwM2M client using Wakaama. ">
<polygon fill="#ffffff" stroke="#000000" points="515.5,-145.5 515.5,-175.5 632.5,-175.5 632.5,-145.5 515.5,-145.5"/>
<text text-anchor="start" x="523.5" y="-163.5" font-family="Helvetica,sans-Serif" font-size="10.00" fill="#000000">pkg/wakaama/include</text>
<text text-anchor="middle" x="574" y="-152.5" font-family="Helvetica,sans-Serif" font-size="10.00" fill="#000000">/lwm2m_client.h</text>
</a>
</g>
</g>
<!-- Node1&#45;&gt;Node2 -->
<g id="edge1" class="edge">
<title>Node1&#45;&gt;Node2</title>
<path fill="none" stroke="#191970" d="M601.7725,-203.7735C595.7666,-194.4154 589.0449,-183.9421 583.7188,-175.6432"/>
<polygon fill="#191970" stroke="#191970" points="598.8958,-205.7712 607.2426,-212.2967 604.7869,-201.9903 598.8958,-205.7712"/>
</g>
<!-- Node3 -->
<g id="node3" class="node">
<title>Node3</title>
<g id="a_node3"><a xlink:href="lwm2m__client__connection_8h.html" target="_top" xlink:title="Public API and definitions of the connection handle for LwM2M client implementation using Wakaama...">
<polygon fill="#ffffff" stroke="#000000" points="0,-73 0,-103 148,-103 148,-73 0,-73"/>
<text text-anchor="start" x="8" y="-91" font-family="Helvetica,sans-Serif" font-size="10.00" fill="#000000">pkg/wakaama/include</text>
<text text-anchor="middle" x="74" y="-80" font-family="Helvetica,sans-Serif" font-size="10.00" fill="#000000">/lwm2m_client_connection.h</text>
</a>
</g>
</g>
<!-- Node1&#45;&gt;Node3 -->
<g id="edge20" class="edge">
<title>Node1&#45;&gt;Node3</title>
<path fill="none" stroke="#191970" d="M548.594,-209.9261C441.0057,-182.286 234.0954,-129.1295 132.7926,-103.1042"/>
<polygon fill="#191970" stroke="#191970" points="547.8172,-213.3401 558.3736,-212.4385 549.559,-206.5603 547.8172,-213.3401"/>
</g>
<!-- Node8 -->
<g id="node8" class="node">
<title>Node8</title>
<g id="a_node8"><a xlink:href="pkg_2wakaama_2include_2objects_2device_8h.html" target="_top" xlink:title="pkg/wakaama/include\l/objects/device.h">
<polygon fill="#ffffff" stroke="#000000" points="813.5,-73 813.5,-103 930.5,-103 930.5,-73 813.5,-73"/>
<text text-anchor="start" x="821.5" y="-91" font-family="Helvetica,sans-Serif" font-size="10.00" fill="#000000">pkg/wakaama/include</text>
<text text-anchor="middle" x="872" y="-80" font-family="Helvetica,sans-Serif" font-size="10.00" fill="#000000">/objects/device.h</text>
</a>
</g>
</g>
<!-- Node1&#45;&gt;Node8 -->
<g id="edge21" class="edge">
<title>Node1&#45;&gt;Node8</title>
<path fill="none" stroke="#191970" d="M653.5947,-207.4806C705.1457,-179.2791 798.0092,-128.4773 844.2593,-103.1758"/>
<polygon fill="#191970" stroke="#191970" points="651.8681,-204.4355 644.7749,-212.3055 655.2277,-210.5766 651.8681,-204.4355"/>
</g>
<!-- Node14 -->
<g id="node14" class="node">
<title>Node14</title>
<g id="a_node14"><a xlink:href="security_8h.html" target="_top" xlink:title="pkg/wakaama/include\l/objects/security.h">
<polygon fill="#ffffff" stroke="#000000" points="948.5,-73 948.5,-103 1065.5,-103 1065.5,-73 948.5,-73"/>
<text text-anchor="start" x="956.5" y="-91" font-family="Helvetica,sans-Serif" font-size="10.00" fill="#000000">pkg/wakaama/include</text>
<text text-anchor="middle" x="1007" y="-80" font-family="Helvetica,sans-Serif" font-size="10.00" fill="#000000">/objects/security.h</text>
</a>
</g>
</g>
<!-- Node1&#45;&gt;Node14 -->
<g id="edge22" class="edge">
<title>Node1&#45;&gt;Node14</title>
<path fill="none" stroke="#191970" d="M668.7255,-208.9982C746.6879,-181.1116 892.8204,-128.8412 964.7733,-103.1042"/>
<polygon fill="#191970" stroke="#191970" points="667.3444,-205.775 659.1074,-212.4385 669.702,-212.366 667.3444,-205.775"/>
</g>
<!-- Node2&#45;&gt;Node3 -->
<g id="edge2" class="edge">
<title>Node2&#45;&gt;Node3</title>
<path fill="none" stroke="#191970" d="M505.2244,-154.6619C422.2257,-147.0062 278.6497,-131.809 157,-109 148.0884,-107.3291 138.7111,-105.2621 129.5961,-103.0828"/>
<polygon fill="#191970" stroke="#191970" points="505.0109,-158.1569 515.2877,-155.5805 505.6472,-151.1859 505.0109,-158.1569"/>
</g>
<!-- Node4 -->
<g id="node4" class="node">
<title>Node4</title>
<g id="a_node4"><a xlink:href="lwm2m__client__objects_8h.html" target="_top" xlink:title="Public API and definitions for the helper functions to interact with basic objects from a LwM2M clien...">
<polygon fill="#ffffff" stroke="#000000" points="166,-73 166,-103 296,-103 296,-73 166,-73"/>
<text text-anchor="start" x="174" y="-91" font-family="Helvetica,sans-Serif" font-size="10.00" fill="#000000">pkg/wakaama/include</text>
<text text-anchor="middle" x="231" y="-80" font-family="Helvetica,sans-Serif" font-size="10.00" fill="#000000">/lwm2m_client_objects.h</text>
</a>
</g>
</g>
<!-- Node2&#45;&gt;Node4 -->
<g id="edge3" class="edge">
<title>Node2&#45;&gt;Node4</title>
<path fill="none" stroke="#191970" d="M505.26,-148.3981C451.8238,-138.6752 375.945,-124.1789 310,-109 302.1169,-107.1855 293.8278,-105.1379 285.7042,-103.051"/>
<polygon fill="#191970" stroke="#191970" points="504.8397,-151.8788 515.3034,-150.2174 506.0875,-144.9909 504.8397,-151.8788"/>
</g>
<!-- Node5 -->
<g id="node5" class="node">
<title>Node5</title>
<g id="a_node5"><a xlink:href="barometer_8h.html" target="_top" xlink:title="pkg/wakaama/include\l/objects/barometer.h">
<polygon fill="#ffffff" stroke="#000000" points="773.5,-.5 773.5,-30.5 890.5,-30.5 890.5,-.5 773.5,-.5"/>
<text text-anchor="start" x="781.5" y="-18.5" font-family="Helvetica,sans-Serif" font-size="10.00" fill="#000000">pkg/wakaama/include</text>
<text text-anchor="middle" x="832" y="-7.5" font-family="Helvetica,sans-Serif" font-size="10.00" fill="#000000">/objects/barometer.h</text>
</a>
</g>
</g>
<!-- Node2&#45;&gt;Node5 -->
<g id="edge4" class="edge">
<title>Node2&#45;&gt;Node5</title>
<path fill="none" stroke="#191970" d="M601.7018,-138.9823C612.4976,-130.1253 624.7208,-119.4935 635,-109 651.8061,-91.8435 649.1533,-80.524 669,-67 686.29,-55.2182 733.9817,-40.7917 773.3406,-30.208"/>
<polygon fill="#191970" stroke="#191970" points="599.3625,-136.3727 593.7803,-145.3777 603.7597,-141.8192 599.3625,-136.3727"/>
</g>
<!-- Node6 -->
<g id="node6" class="node">
<title>Node6</title>
<g id="a_node6"><a xlink:href="pkg_2wakaama_2include_2objects_2common_8h.html" target="_top" xlink:title="pkg/wakaama/include\l/objects/common.h">
<polygon fill="#ffffff" stroke="#000000" points="678.5,-73 678.5,-103 795.5,-103 795.5,-73 678.5,-73"/>
<text text-anchor="start" x="686.5" y="-91" font-family="Helvetica,sans-Serif" font-size="10.00" fill="#000000">pkg/wakaama/include</text>
<text text-anchor="middle" x="737" y="-80" font-family="Helvetica,sans-Serif" font-size="10.00" fill="#000000">/objects/common.h</text>
</a>
</g>
</g>
<!-- Node2&#45;&gt;Node6 -->
<g id="edge5" class="edge">
<title>Node2&#45;&gt;Node6</title>
<path fill="none" stroke="#191970" d="M616.9845,-141.3811C643.9638,-129.3811 678.2559,-114.1285 703.2696,-103.0028"/>
<polygon fill="#191970" stroke="#191970" points="615.4883,-138.216 607.7737,-145.478 618.3331,-144.6118 615.4883,-138.216"/>
</g>
<!-- Node7 -->
<g id="node7" class="node">
<title>Node7</title>
<g id="a_node7"><a xlink:href="current_8h.html" target="_top" xlink:title="pkg/wakaama/include\l/objects/current.h">
<polygon fill="#ffffff" stroke="#000000" points="86.5,-.5 86.5,-30.5 203.5,-30.5 203.5,-.5 86.5,-.5"/>
<text text-anchor="start" x="94.5" y="-18.5" font-family="Helvetica,sans-Serif" font-size="10.00" fill="#000000">pkg/wakaama/include</text>
<text text-anchor="middle" x="145" y="-7.5" font-family="Helvetica,sans-Serif" font-size="10.00" fill="#000000">/objects/current.h</text>
</a>
</g>
</g>
<!-- Node2&#45;&gt;Node7 -->
<g id="edge6" class="edge">
<title>Node2&#45;&gt;Node7</title>
<path fill="none" stroke="#191970" d="M505.4061,-150.7991C446.0325,-141.458 365.5027,-126.2367 338,-109 317.8847,-96.3932 324.4835,-80.5628 305,-67 288.295,-55.3714 242.2855,-41.1237 203.8691,-30.5644"/>
<polygon fill="#191970" stroke="#191970" points="505.0659,-154.2881 515.4839,-152.3605 506.1377,-147.3706 505.0659,-154.2881"/>
</g>
<!-- Node2&#45;&gt;Node8 -->
<g id="edge7" class="edge">
<title>Node2&#45;&gt;Node8</title>
<path fill="none" stroke="#191970" d="M642.7615,-146.5924C688.6503,-136.9463 750.2111,-123.3036 804,-109 810.8062,-107.1901 817.9527,-105.1451 824.9505,-103.0593"/>
<polygon fill="#191970" stroke="#191970" points="641.9945,-143.177 632.9226,-148.6498 643.4273,-150.0288 641.9945,-143.177"/>
</g>
<!-- Node9 -->
<g id="node9" class="node">
<title>Node9</title>
<g id="a_node9"><a xlink:href="humidity_8h.html" target="_top" xlink:title="pkg/wakaama/include\l/objects/humidity.h">
<polygon fill="#ffffff" stroke="#000000" points="221.5,-.5 221.5,-30.5 338.5,-30.5 338.5,-.5 221.5,-.5"/>
<text text-anchor="start" x="229.5" y="-18.5" font-family="Helvetica,sans-Serif" font-size="10.00" fill="#000000">pkg/wakaama/include</text>
<text text-anchor="middle" x="280" y="-7.5" font-family="Helvetica,sans-Serif" font-size="10.00" fill="#000000">/objects/humidity.h</text>
</a>
</g>
</g>
<!-- Node2&#45;&gt;Node9 -->
<g id="edge8" class="edge">
<title>Node2&#45;&gt;Node9</title>
<path fill="none" stroke="#191970" d="M505.6958,-145.6785C473.7865,-137.2979 435.8919,-125.2046 404,-109 361.4546,-87.3822 318.4642,-50.9608 295.9827,-30.5406"/>
<polygon fill="#191970" stroke="#191970" points="504.8377,-149.0717 515.3933,-148.1607 506.5735,-142.2903 504.8377,-149.0717"/>
</g>
<!-- Node10 -->
<g id="node10" class="node">
<title>Node10</title>
<g id="a_node10"><a xlink:href="illuminance_8h.html" target="_top" xlink:title="pkg/wakaama/include\l/objects/illuminance.h">
<polygon fill="#ffffff" stroke="#000000" points="357,-.5 357,-30.5 475,-30.5 475,-.5 357,-.5"/>
<text text-anchor="start" x="365" y="-18.5" font-family="Helvetica,sans-Serif" font-size="10.00" fill="#000000">pkg/wakaama/include</text>
<text text-anchor="middle" x="416" y="-7.5" font-family="Helvetica,sans-Serif" font-size="10.00" fill="#000000">/objects/illuminance.h</text>
</a>
</g>
</g>
<!-- Node2&#45;&gt;Node10 -->
<g id="edge9" class="edge">
<title>Node2&#45;&gt;Node10</title>
<path fill="none" stroke="#191970" d="M504.9993,-145.7509C468.8612,-136.5057 429.8892,-123.5935 419,-109 402.0029,-86.2208 406.8421,-50.8924 411.6061,-30.8167"/>
<polygon fill="#191970" stroke="#191970" points="504.5423,-149.2437 515.0913,-148.2596 506.231,-142.4505 504.5423,-149.2437"/>
</g>
<!-- Node11 -->
<g id="node11" class="node">
<title>Node11</title>
<g id="a_node11"><a xlink:href="ipso__sensor__base_8h.html" target="_top" xlink:title="pkg/wakaama/include\l/objects/ipso_sensor\l_base.h">
<polygon fill="#ffffff" stroke="#000000" points="428.5,-67.5 428.5,-108.5 545.5,-108.5 545.5,-67.5 428.5,-67.5"/>
<text text-anchor="start" x="436.5" y="-96.5" font-family="Helvetica,sans-Serif" font-size="10.00" fill="#000000">pkg/wakaama/include</text>
<text text-anchor="start" x="436.5" y="-85.5" font-family="Helvetica,sans-Serif" font-size="10.00" fill="#000000">/objects/ipso_sensor</text>
<text text-anchor="middle" x="487" y="-74.5" font-family="Helvetica,sans-Serif" font-size="10.00" fill="#000000">_base.h</text>
</a>
</g>
</g>
<!-- Node2&#45;&gt;Node11 -->
<g id="edge10" class="edge">
<title>Node2&#45;&gt;Node11</title>
<path fill="none" stroke="#191970" d="M547.9849,-138.8207C536.4562,-129.2135 522.9618,-117.9681 511.6018,-108.5015"/>
<polygon fill="#191970" stroke="#191970" points="546.0507,-141.7649 555.9735,-145.478 550.532,-136.3873 546.0507,-141.7649"/>
</g>
<!-- Node12 -->
<g id="node12" class="node">
<title>Node12</title>
<g id="a_node12"><a xlink:href="temperature_8h.html" target="_top" xlink:title="pkg/wakaama/include\l/objects/temperature.h">
<polygon fill="#ffffff" stroke="#000000" points="493.5,-.5 493.5,-30.5 620.5,-30.5 620.5,-.5 493.5,-.5"/>
<text text-anchor="start" x="501.5" y="-18.5" font-family="Helvetica,sans-Serif" font-size="10.00" fill="#000000">pkg/wakaama/include</text>
<text text-anchor="middle" x="557" y="-7.5" font-family="Helvetica,sans-Serif" font-size="10.00" fill="#000000">/objects/temperature.h</text>
</a>
</g>
</g>
<!-- Node2&#45;&gt;Node12 -->
<g id="edge18" class="edge">
<title>Node2&#45;&gt;Node12</title>
<path fill="none" stroke="#191970" d="M571.0174,-135.0601C567.4693,-104.7971 561.6628,-55.2707 558.7632,-30.5392"/>
<polygon fill="#191970" stroke="#191970" points="567.5721,-135.7321 572.2128,-145.2565 574.5245,-134.917 567.5721,-135.7321"/>
</g>
<!-- Node13 -->
<g id="node13" class="node">
<title>Node13</title>
<g id="a_node13"><a xlink:href="voltage_8h.html" target="_top" xlink:title="pkg/wakaama/include\l/objects/voltage.h">
<polygon fill="#ffffff" stroke="#000000" points="638.5,-.5 638.5,-30.5 755.5,-30.5 755.5,-.5 638.5,-.5"/>
<text text-anchor="start" x="646.5" y="-18.5" font-family="Helvetica,sans-Serif" font-size="10.00" fill="#000000">pkg/wakaama/include</text>
<text text-anchor="middle" x="697" y="-7.5" font-family="Helvetica,sans-Serif" font-size="10.00" fill="#000000">/objects/voltage.h</text>
</a>
</g>
</g>
<!-- Node2&#45;&gt;Node13 -->
<g id="edge19" class="edge">
<title>Node2&#45;&gt;Node13</title>
<path fill="none" stroke="#191970" d="M587.2434,-136.6479C598.7792,-116.9221 616.654,-88.7229 636,-67 648.0753,-53.4411 663.7655,-40.2733 676.209,-30.6468"/>
<polygon fill="#191970" stroke="#191970" points="584.2062,-134.9086 582.2588,-145.3229 590.2756,-138.396 584.2062,-134.9086"/>
</g>
<!-- Node2&#45;&gt;Node14 -->
<g id="edge17" class="edge">
<title>Node2&#45;&gt;Node14</title>
<path fill="none" stroke="#191970" d="M642.6577,-154.2339C716.6633,-146.6931 837.6194,-132.0839 940,-109 947.3727,-107.3377 955.1041,-105.2488 962.588,-103.0374"/>
<polygon fill="#191970" stroke="#191970" points="642.1336,-150.7688 632.5337,-155.2511 642.8335,-157.7337 642.1336,-150.7688"/>
</g>
<!-- Node11&#45;&gt;Node5 -->
<g id="edge11" class="edge">
<title>Node11&#45;&gt;Node5</title>
<path fill="none" stroke="#191970" d="M555.5321,-74.3176C611.6415,-63.0145 693.047,-46.385 764,-31 767.0767,-30.3329 770.2298,-29.6414 773.4122,-28.9373"/>
<polygon fill="#191970" stroke="#191970" points="554.8199,-70.8907 545.7068,-76.2945 556.2007,-77.7532 554.8199,-70.8907"/>
</g>
<!-- Node11&#45;&gt;Node7 -->
<g id="edge12" class="edge">
<title>Node11&#45;&gt;Node7</title>
<path fill="none" stroke="#191970" d="M418.3417,-74.2244C362.654,-62.9416 282.1678,-46.3862 212,-31 209.3177,-30.4118 206.5766,-29.8042 203.8089,-29.1855"/>
<polygon fill="#191970" stroke="#191970" points="417.9476,-77.7155 428.4431,-76.2683 419.3359,-70.8545 417.9476,-77.7155"/>
</g>
<!-- Node11&#45;&gt;Node9 -->
<g id="edge13" class="edge">
<title>Node11&#45;&gt;Node9</title>
<path fill="none" stroke="#191970" d="M418.6344,-64.0555C387.1382,-53.0242 350.7166,-40.2679 323.1106,-30.5991"/>
<polygon fill="#191970" stroke="#191970" points="417.641,-67.416 428.2358,-67.4183 419.9549,-60.8095 417.641,-67.416"/>
</g>
<!-- Node11&#45;&gt;Node10 -->
<g id="edge14" class="edge">
<title>Node11&#45;&gt;Node10</title>
<path fill="none" stroke="#191970" d="M459.5739,-59.9945C449.7765,-49.9901 439.1127,-39.101 430.7867,-30.5991"/>
<polygon fill="#191970" stroke="#191970" points="457.3467,-62.7226 466.8442,-67.4183 462.348,-57.8248 457.3467,-62.7226"/>
</g>
<!-- Node11&#45;&gt;Node12 -->
<g id="edge15" class="edge">
<title>Node11&#45;&gt;Node12</title>
<path fill="none" stroke="#191970" d="M514.0398,-59.9945C523.6992,-49.9901 534.2129,-39.101 542.4216,-30.5991"/>
<polygon fill="#191970" stroke="#191970" points="511.3,-57.7932 506.872,-67.4183 516.3358,-62.6554 511.3,-57.7932"/>
</g>
<!-- Node11&#45;&gt;Node13 -->
<g id="edge16" class="edge">
<title>Node11&#45;&gt;Node13</title>
<path fill="none" stroke="#191970" d="M555.5639,-64.3291C587.6913,-53.2375 625.014,-40.3523 653.2502,-30.6041"/>
<polygon fill="#191970" stroke="#191970" points="554.0863,-61.1365 545.776,-67.7083 556.3707,-67.7533 554.0863,-61.1365"/>
</g>
</g>
</svg>
