<?xml version="1.0" encoding="UTF-8" standalone="no"?>
<!DOCTYPE svg PUBLIC "-//W3C//DTD SVG 1.1//EN"
 "http://www.w3.org/Graphics/SVG/1.1/DTD/svg11.dtd">
<!-- Generated by graphviz version 2.40.1 (0)
 -->
<!-- Title: drivers/max31855/include/max31855_params.h Pages: 1 -->
<svg width="820pt" height="263pt"
 viewBox="0.00 0.00 820.00 263.00" xmlns="http://www.w3.org/2000/svg" xmlns:xlink="http://www.w3.org/1999/xlink">
<g id="graph0" class="graph" transform="scale(1 1) rotate(0) translate(4 259)">
<title>drivers/max31855/include/max31855_params.h</title>
<polygon fill="#ffffff" stroke="transparent" points="-4,4 -4,-259 816,-259 816,4 -4,4"/>
<!-- Node0 -->
<g id="node1" class="node">
<title>Node0</title>
<polygon fill="#bfbfbf" stroke="#000000" points="523,-224.5 523,-254.5 663,-254.5 663,-224.5 523,-224.5"/>
<text text-anchor="start" x="531" y="-242.5" font-family="Helvetica,sans-Serif" font-size="10.00" fill="#000000">drivers/max31855/include</text>
<text text-anchor="middle" x="593" y="-231.5" font-family="Helvetica,sans-Serif" font-size="10.00" fill="#000000">/max31855_params.h</text>
</g>
<!-- Node1 -->
<g id="node2" class="node">
<title>Node1</title>
<polygon fill="#ffffff" stroke="#bfbfbf" points="440.5,-168.5 440.5,-187.5 493.5,-187.5 493.5,-168.5 440.5,-168.5"/>
<text text-anchor="middle" x="467" y="-175.5" font-family="Helvetica,sans-Serif" font-size="10.00" fill="#000000">board.h</text>
</g>
<!-- Node0&#45;&gt;Node1 -->
<g id="edge1" class="edge">
<title>Node0&#45;&gt;Node1</title>
<path fill="none" stroke="#191970" d="M562.1769,-224.4554C541.8912,-214.554 515.5212,-201.683 495.6838,-192.0004"/>
<polygon fill="#191970" stroke="#191970" points="497.0474,-188.7714 486.5255,-187.5303 493.977,-195.062 497.0474,-188.7714"/>
</g>
<!-- Node2 -->
<g id="node3" class="node">
<title>Node2</title>
<g id="a_node3"><a xlink:href="saul__reg_8h.html" target="_top" xlink:title="SAUL registry interface definition. ">
<polygon fill="#ffffff" stroke="#000000" points="604.5,-168.5 604.5,-187.5 669.5,-187.5 669.5,-168.5 604.5,-168.5"/>
<text text-anchor="middle" x="637" y="-175.5" font-family="Helvetica,sans-Serif" font-size="10.00" fill="#000000">saul_reg.h</text>
</a>
</g>
</g>
<!-- Node0&#45;&gt;Node2 -->
<g id="edge2" class="edge">
<title>Node0&#45;&gt;Node2</title>
<path fill="none" stroke="#191970" d="M603.8764,-224.2977C609.9841,-215.7609 617.6439,-205.0545 624.0588,-196.0883"/>
<polygon fill="#191970" stroke="#191970" points="626.9829,-198.0163 629.955,-187.8469 621.2899,-193.9433 626.9829,-198.0163"/>
</g>
<!-- Node9 -->
<g id="node10" class="node">
<title>Node9</title>
<g id="a_node10"><a xlink:href="max31855_8h.html" target="_top" xlink:title="max31855.h">
<polygon fill="#ffffff" stroke="#000000" points="511.5,-168.5 511.5,-187.5 586.5,-187.5 586.5,-168.5 511.5,-168.5"/>
<text text-anchor="middle" x="549" y="-175.5" font-family="Helvetica,sans-Serif" font-size="10.00" fill="#000000">max31855.h</text>
</a>
</g>
</g>
<!-- Node0&#45;&gt;Node9 -->
<g id="edge10" class="edge">
<title>Node0&#45;&gt;Node9</title>
<path fill="none" stroke="#191970" d="M582.1236,-224.2977C576.0159,-215.7609 568.3561,-205.0545 561.9412,-196.0883"/>
<polygon fill="#191970" stroke="#191970" points="564.7101,-193.9433 556.045,-187.8469 559.0171,-198.0163 564.7101,-193.9433"/>
</g>
<!-- Node18 -->
<g id="node19" class="node">
<title>Node18</title>
<g id="a_node19"><a xlink:href="max31855__constants_8h.html" target="_top" xlink:title="Internal addresses, registers and constants. ">
<polygon fill="#ffffff" stroke="#000000" points="688,-168.5 688,-187.5 812,-187.5 812,-168.5 688,-168.5"/>
<text text-anchor="middle" x="750" y="-175.5" font-family="Helvetica,sans-Serif" font-size="10.00" fill="#000000">max31855_constants.h</text>
</a>
</g>
</g>
<!-- Node0&#45;&gt;Node18 -->
<g id="edge25" class="edge">
<title>Node0&#45;&gt;Node18</title>
<path fill="none" stroke="#191970" d="M631.4065,-224.4554C657.3726,-214.284 691.339,-200.9787 716.263,-191.2155"/>
<polygon fill="#191970" stroke="#191970" points="717.636,-194.4366 725.6706,-187.5303 715.0829,-187.9188 717.636,-194.4366"/>
</g>
<!-- Node3 -->
<g id="node4" class="node">
<title>Node3</title>
<polygon fill="#ffffff" stroke="#bfbfbf" points="510,-.5 510,-19.5 562,-19.5 562,-.5 510,-.5"/>
<text text-anchor="middle" x="536" y="-7.5" font-family="Helvetica,sans-Serif" font-size="10.00" fill="#000000">stdint.h</text>
</g>
<!-- Node2&#45;&gt;Node3 -->
<g id="edge3" class="edge">
<title>Node2&#45;&gt;Node3</title>
<path fill="none" stroke="#191970" d="M656.4858,-168.3673C695.2069,-147.9759 775.2638,-98.8043 741,-56 720.2715,-30.1048 625.5248,-17.7861 572.3947,-12.8234"/>
<polygon fill="#191970" stroke="#191970" points="572.6295,-9.3305 562.3578,-11.9271 572.0068,-16.3028 572.6295,-9.3305"/>
</g>
<!-- Node4 -->
<g id="node5" class="node">
<title>Node4</title>
<polygon fill="#ffffff" stroke="#bfbfbf" points="650,-112.5 650,-131.5 694,-131.5 694,-112.5 650,-112.5"/>
<text text-anchor="middle" x="672" y="-119.5" font-family="Helvetica,sans-Serif" font-size="10.00" fill="#000000">saul.h</text>
</g>
<!-- Node2&#45;&gt;Node4 -->
<g id="edge4" class="edge">
<title>Node2&#45;&gt;Node4</title>
<path fill="none" stroke="#191970" d="M643.0965,-168.2455C647.9145,-160.5367 654.7751,-149.5598 660.6032,-140.2348"/>
<polygon fill="#191970" stroke="#191970" points="663.6413,-141.9777 665.9733,-131.6427 657.7053,-138.2677 663.6413,-141.9777"/>
</g>
<!-- Node5 -->
<g id="node6" class="node">
<title>Node5</title>
<g id="a_node6"><a xlink:href="phydat_8h.html" target="_top" xlink:title="Generic data container for physical data interface. ">
<polygon fill="#ffffff" stroke="#000000" points="574,-112.5 574,-131.5 632,-131.5 632,-112.5 574,-112.5"/>
<text text-anchor="middle" x="603" y="-119.5" font-family="Helvetica,sans-Serif" font-size="10.00" fill="#000000">phydat.h</text>
</a>
</g>
</g>
<!-- Node2&#45;&gt;Node5 -->
<g id="edge5" class="edge">
<title>Node2&#45;&gt;Node5</title>
<path fill="none" stroke="#191970" d="M631.0777,-168.2455C626.3973,-160.5367 619.7327,-149.5598 614.0711,-140.2348"/>
<polygon fill="#191970" stroke="#191970" points="617.0361,-138.3741 608.8545,-131.6427 611.0525,-142.007 617.0361,-138.3741"/>
</g>
<!-- Node5&#45;&gt;Node3 -->
<g id="edge7" class="edge">
<title>Node5&#45;&gt;Node3</title>
<path fill="none" stroke="#191970" d="M608.5407,-112.3577C615.4945,-98.86 625.332,-73.972 615,-56 605.6105,-39.6673 587.9432,-28.5909 571.6936,-21.4079"/>
<polygon fill="#191970" stroke="#191970" points="572.9452,-18.1386 562.3631,-17.6182 570.311,-24.6241 572.9452,-18.1386"/>
</g>
<!-- Node6 -->
<g id="node7" class="node">
<title>Node6</title>
<polygon fill="#ffffff" stroke="#bfbfbf" points="466,-56.5 466,-75.5 522,-75.5 522,-56.5 466,-56.5"/>
<text text-anchor="middle" x="494" y="-63.5" font-family="Helvetica,sans-Serif" font-size="10.00" fill="#000000">stddef.h</text>
</g>
<!-- Node5&#45;&gt;Node6 -->
<g id="edge6" class="edge">
<title>Node5&#45;&gt;Node6</title>
<path fill="none" stroke="#191970" d="M584.0136,-112.2455C566.8208,-103.4125 541.2762,-90.2887 521.7868,-80.2758"/>
<polygon fill="#191970" stroke="#191970" points="523.263,-77.0993 512.7688,-75.6427 520.0641,-83.3257 523.263,-77.0993"/>
</g>
<!-- Node7 -->
<g id="node8" class="node">
<title>Node7</title>
<polygon fill="#ffffff" stroke="#bfbfbf" points="662.5,-56.5 662.5,-75.5 731.5,-75.5 731.5,-56.5 662.5,-56.5"/>
<text text-anchor="middle" x="697" y="-63.5" font-family="Helvetica,sans-Serif" font-size="10.00" fill="#000000">sys/types.h</text>
</g>
<!-- Node5&#45;&gt;Node7 -->
<g id="edge8" class="edge">
<title>Node5&#45;&gt;Node7</title>
<path fill="none" stroke="#191970" d="M619.3736,-112.2455C633.9308,-103.5731 655.431,-90.7645 672.1152,-80.825"/>
<polygon fill="#191970" stroke="#191970" points="674.0144,-83.7676 680.8141,-75.6427 670.4317,-77.7539 674.0144,-83.7676"/>
</g>
<!-- Node8 -->
<g id="node9" class="node">
<title>Node8</title>
<g id="a_node9"><a xlink:href="modules_8h.html" target="_top" xlink:title="Common macros and compiler attributes/pragmas configuration. ">
<polygon fill="#ffffff" stroke="#000000" points="540.5,-56.5 540.5,-75.5 605.5,-75.5 605.5,-56.5 540.5,-56.5"/>
<text text-anchor="middle" x="573" y="-63.5" font-family="Helvetica,sans-Serif" font-size="10.00" fill="#000000">modules.h</text>
</a>
</g>
</g>
<!-- Node5&#45;&gt;Node8 -->
<g id="edge9" class="edge">
<title>Node5&#45;&gt;Node8</title>
<path fill="none" stroke="#191970" d="M597.7744,-112.2455C593.6877,-104.617 587.8865,-93.7881 582.925,-84.5267"/>
<polygon fill="#191970" stroke="#191970" points="585.9732,-82.8047 578.1657,-75.6427 579.8028,-86.1103 585.9732,-82.8047"/>
</g>
<!-- Node10 -->
<g id="node11" class="node">
<title>Node10</title>
<g id="a_node11"><a xlink:href="spi_8h.html" target="_top" xlink:title="Low&#45;level SPI peripheral driver interface definition. ">
<polygon fill="#ffffff" stroke="#000000" points="273.5,-112.5 273.5,-131.5 346.5,-131.5 346.5,-112.5 273.5,-112.5"/>
<text text-anchor="middle" x="310" y="-119.5" font-family="Helvetica,sans-Serif" font-size="10.00" fill="#000000">periph/spi.h</text>
</a>
</g>
</g>
<!-- Node9&#45;&gt;Node10 -->
<g id="edge11" class="edge">
<title>Node9&#45;&gt;Node10</title>
<path fill="none" stroke="#191970" d="M511.3933,-169.1884C469.4741,-159.3663 401.6501,-143.4745 356.4497,-132.8836"/>
<polygon fill="#191970" stroke="#191970" points="357.1382,-129.4502 346.6034,-130.5765 355.5412,-136.2656 357.1382,-129.4502"/>
</g>
<!-- Node10&#45;&gt;Node3 -->
<g id="edge17" class="edge">
<title>Node10&#45;&gt;Node3</title>
<path fill="none" stroke="#191970" d="M334.3552,-112.4979C356.4662,-103.6668 389.8262,-89.8296 418,-76 451.1114,-59.7468 488.0342,-38.579 511.6133,-24.6541"/>
<polygon fill="#191970" stroke="#191970" points="513.447,-27.6358 520.2577,-19.5201 509.8725,-21.6173 513.447,-27.6358"/>
</g>
<!-- Node10&#45;&gt;Node6 -->
<g id="edge16" class="edge">
<title>Node10&#45;&gt;Node6</title>
<path fill="none" stroke="#191970" d="M341.6307,-112.3733C373.2908,-102.7376 422.0281,-87.9045 455.822,-77.6194"/>
<polygon fill="#191970" stroke="#191970" points="457.2468,-80.8443 465.7945,-74.5843 455.2087,-74.1476 457.2468,-80.8443"/>
</g>
<!-- Node11 -->
<g id="node12" class="node">
<title>Node11</title>
<g id="a_node12"><a xlink:href="endian_8h.html" target="_top" xlink:title="libc header for endian conversion ">
<polygon fill="#ffffff" stroke="#000000" points="281.5,-56.5 281.5,-75.5 338.5,-75.5 338.5,-56.5 281.5,-56.5"/>
<text text-anchor="middle" x="310" y="-63.5" font-family="Helvetica,sans-Serif" font-size="10.00" fill="#000000">endian.h</text>
</a>
</g>
</g>
<!-- Node10&#45;&gt;Node11 -->
<g id="edge12" class="edge">
<title>Node10&#45;&gt;Node11</title>
<path fill="none" stroke="#191970" d="M310,-112.2455C310,-104.9382 310,-94.6944 310,-85.7046"/>
<polygon fill="#191970" stroke="#191970" points="313.5001,-85.6426 310,-75.6427 306.5001,-85.6427 313.5001,-85.6426"/>
</g>
<!-- Node12 -->
<g id="node13" class="node">
<title>Node12</title>
<g id="a_node13"><a xlink:href="errno_8h.html" target="_top" xlink:title="errno.h">
<polygon fill="#ffffff" stroke="#000000" points="356.5,-56.5 356.5,-75.5 409.5,-75.5 409.5,-56.5 356.5,-56.5"/>
<text text-anchor="middle" x="383" y="-63.5" font-family="Helvetica,sans-Serif" font-size="10.00" fill="#000000">errno.h</text>
</a>
</g>
</g>
<!-- Node10&#45;&gt;Node12 -->
<g id="edge14" class="edge">
<title>Node10&#45;&gt;Node12</title>
<path fill="none" stroke="#191970" d="M322.7156,-112.2455C333.602,-103.8943 349.4883,-91.7076 362.22,-81.9408"/>
<polygon fill="#191970" stroke="#191970" points="364.6261,-84.5063 370.4301,-75.6427 360.3654,-78.9523 364.6261,-84.5063"/>
</g>
<!-- Node13 -->
<g id="node14" class="node">
<title>Node13</title>
<polygon fill="#ffffff" stroke="#bfbfbf" points="0,-.5 0,-19.5 60,-19.5 60,-.5 0,-.5"/>
<text text-anchor="middle" x="30" y="-7.5" font-family="Helvetica,sans-Serif" font-size="10.00" fill="#000000">stdbool.h</text>
</g>
<!-- Node10&#45;&gt;Node13 -->
<g id="edge15" class="edge">
<title>Node10&#45;&gt;Node13</title>
<path fill="none" stroke="#191970" d="M273.4347,-117.3995C234.3102,-111.51 171.1162,-99.1736 121,-76 93.2937,-63.1887 65.4744,-41.3957 48.0223,-26.3781"/>
<polygon fill="#191970" stroke="#191970" points="50.155,-23.5928 40.3336,-19.6191 45.5333,-28.8503 50.155,-23.5928"/>
</g>
<!-- Node14 -->
<g id="node15" class="node">
<title>Node14</title>
<polygon fill="#ffffff" stroke="#bfbfbf" points="78.5,-.5 78.5,-19.5 155.5,-19.5 155.5,-.5 78.5,-.5"/>
<text text-anchor="middle" x="117" y="-7.5" font-family="Helvetica,sans-Serif" font-size="10.00" fill="#000000">periph_cpu.h</text>
</g>
<!-- Node10&#45;&gt;Node14 -->
<g id="edge18" class="edge">
<title>Node10&#45;&gt;Node14</title>
<path fill="none" stroke="#191970" d="M273.4714,-116.6533C228.4102,-109.3469 155.3751,-94.9564 136,-76 123.6391,-63.9062 119.1857,-44.3324 117.6474,-29.6354"/>
<polygon fill="#191970" stroke="#191970" points="121.132,-29.2891 116.9566,-19.5518 114.1483,-29.7676 121.132,-29.2891"/>
</g>
<!-- Node15 -->
<g id="node16" class="node">
<title>Node15</title>
<polygon fill="#ffffff" stroke="#bfbfbf" points="242.5,-.5 242.5,-19.5 323.5,-19.5 323.5,-.5 242.5,-.5"/>
<text text-anchor="middle" x="283" y="-7.5" font-family="Helvetica,sans-Serif" font-size="10.00" fill="#000000">periph_conf.h</text>
</g>
<!-- Node10&#45;&gt;Node15 -->
<g id="edge19" class="edge">
<title>Node10&#45;&gt;Node15</title>
<path fill="none" stroke="#191970" d="M298.5547,-112.3916C289.4007,-103.901 277.2581,-90.6212 272,-76 266.5407,-60.8195 270.2417,-42.6865 274.771,-29.2716"/>
<polygon fill="#191970" stroke="#191970" points="278.1387,-30.2624 278.4218,-19.6713 271.5958,-27.7742 278.1387,-30.2624"/>
</g>
<!-- Node16 -->
<g id="node17" class="node">
<title>Node16</title>
<g id="a_node17"><a xlink:href="drivers_2include_2periph_2gpio_8h.html" target="_top" xlink:title="Low&#45;level GPIO peripheral driver interface definitions. ">
<polygon fill="#ffffff" stroke="#000000" points="145,-56.5 145,-75.5 225,-75.5 225,-56.5 145,-56.5"/>
<text text-anchor="middle" x="185" y="-63.5" font-family="Helvetica,sans-Serif" font-size="10.00" fill="#000000">periph/gpio.h</text>
</a>
</g>
</g>
<!-- Node10&#45;&gt;Node16 -->
<g id="edge20" class="edge">
<title>Node10&#45;&gt;Node16</title>
<path fill="none" stroke="#191970" d="M288.5117,-112.3733C268.356,-103.3435 238.012,-89.7494 215.382,-79.6111"/>
<polygon fill="#191970" stroke="#191970" points="216.7649,-76.3955 206.2079,-75.5011 213.9029,-82.7838 216.7649,-76.3955"/>
</g>
<!-- Node11&#45;&gt;Node3 -->
<g id="edge13" class="edge">
<title>Node11&#45;&gt;Node3</title>
<path fill="none" stroke="#191970" d="M338.6644,-58.1763C341.4785,-57.4313 344.2931,-56.6951 347,-56 400.0694,-42.3726 461.7863,-27.5418 499.8732,-18.5067"/>
<polygon fill="#191970" stroke="#191970" points="501.0378,-21.8278 509.9623,-16.1178 499.4249,-15.0161 501.0378,-21.8278"/>
</g>
<!-- Node16&#45;&gt;Node13 -->
<g id="edge22" class="edge">
<title>Node16&#45;&gt;Node13</title>
<path fill="none" stroke="#191970" d="M158.3546,-56.3733C132.8036,-47.1419 94.0488,-33.1402 65.8091,-22.9375"/>
<polygon fill="#191970" stroke="#191970" points="66.8921,-19.6074 56.2978,-19.5011 64.5135,-26.1909 66.8921,-19.6074"/>
</g>
<!-- Node16&#45;&gt;Node14 -->
<g id="edge23" class="edge">
<title>Node16&#45;&gt;Node14</title>
<path fill="none" stroke="#191970" d="M173.1553,-56.2455C163.112,-47.9746 148.5005,-35.9416 136.6996,-26.2232"/>
<polygon fill="#191970" stroke="#191970" points="138.6533,-23.298 128.709,-19.6427 134.2033,-28.7015 138.6533,-23.298"/>
</g>
<!-- Node16&#45;&gt;Node15 -->
<g id="edge24" class="edge">
<title>Node16&#45;&gt;Node15</title>
<path fill="none" stroke="#191970" d="M202.0703,-56.2455C217.247,-47.5731 239.6621,-34.7645 257.0563,-24.825"/>
<polygon fill="#191970" stroke="#191970" points="259.1794,-27.643 266.1253,-19.6427 255.7064,-21.5653 259.1794,-27.643"/>
</g>
<!-- Node17 -->
<g id="node18" class="node">
<title>Node17</title>
<polygon fill="#ffffff" stroke="#bfbfbf" points="174,-.5 174,-19.5 224,-19.5 224,-.5 174,-.5"/>
<text text-anchor="middle" x="199" y="-7.5" font-family="Helvetica,sans-Serif" font-size="10.00" fill="#000000">limits.h</text>
</g>
<!-- Node16&#45;&gt;Node17 -->
<g id="edge21" class="edge">
<title>Node16&#45;&gt;Node17</title>
<path fill="none" stroke="#191970" d="M187.4386,-56.2455C189.2855,-48.8579 191.8828,-38.4689 194.1478,-29.4087"/>
<polygon fill="#191970" stroke="#191970" points="197.5594,-30.193 196.5893,-19.6427 190.7684,-28.4952 197.5594,-30.193"/>
</g>
</g>
</svg>
