<?xml version="1.0" encoding="UTF-8" standalone="no"?>
<!DOCTYPE svg PUBLIC "-//W3C//DTD SVG 1.1//EN"
 "http://www.w3.org/Graphics/SVG/1.1/DTD/svg11.dtd">
<!-- Generated by graphviz version 2.40.1 (0)
 -->
<!-- Title: boards/mbed_lpc1768/include/board.h Pages: 1 -->
<svg width="432pt" height="151pt"
 viewBox="0.00 0.00 432.00 151.00" xmlns="http://www.w3.org/2000/svg" xmlns:xlink="http://www.w3.org/1999/xlink">
<g id="graph0" class="graph" transform="scale(1 1) rotate(0) translate(4 147)">
<title>boards/mbed_lpc1768/include/board.h</title>
<polygon fill="#ffffff" stroke="transparent" points="-4,4 -4,-147 428,-147 428,4 -4,4"/>
<!-- Node0 -->
<g id="node1" class="node">
<title>Node0</title>
<polygon fill="#bfbfbf" stroke="#000000" points="70,-112.5 70,-142.5 191,-142.5 191,-112.5 70,-112.5"/>
<text text-anchor="start" x="78" y="-130.5" font-family="Helvetica,sans-Serif" font-size="10.00" fill="#000000">boards/mbed_lpc1768</text>
<text text-anchor="middle" x="130.5" y="-119.5" font-family="Helvetica,sans-Serif" font-size="10.00" fill="#000000">/include/board.h</text>
</g>
<!-- Node1 -->
<g id="node2" class="node">
<title>Node1</title>
<polygon fill="#ffffff" stroke="#bfbfbf" points="29.5,-56.5 29.5,-75.5 71.5,-75.5 71.5,-56.5 29.5,-56.5"/>
<text text-anchor="middle" x="50.5" y="-63.5" font-family="Helvetica,sans-Serif" font-size="10.00" fill="#000000">cpu.h</text>
</g>
<!-- Node0&#45;&gt;Node1 -->
<g id="edge1" class="edge">
<title>Node0&#45;&gt;Node1</title>
<path fill="none" stroke="#191970" d="M110.7247,-112.2977C98.8102,-103.1384 83.6468,-91.4816 71.5162,-82.1562"/>
<polygon fill="#191970" stroke="#191970" points="73.3703,-79.1668 63.309,-75.8469 69.104,-84.7165 73.3703,-79.1668"/>
</g>
<!-- Node2 -->
<g id="node3" class="node">
<title>Node2</title>
<g id="a_node3"><a xlink:href="boards_2mbed__lpc1768_2include_2periph__conf_8h.html" target="_top" xlink:title="Peripheral MCU configuration for the mbed LPC1768 board. ">
<polygon fill="#ffffff" stroke="#000000" points="90,-56.5 90,-75.5 171,-75.5 171,-56.5 90,-56.5"/>
<text text-anchor="middle" x="130.5" y="-63.5" font-family="Helvetica,sans-Serif" font-size="10.00" fill="#000000">periph_conf.h</text>
</a>
</g>
</g>
<!-- Node0&#45;&gt;Node2 -->
<g id="edge2" class="edge">
<title>Node0&#45;&gt;Node2</title>
<path fill="none" stroke="#191970" d="M130.5,-112.2977C130.5,-104.3834 130.5,-94.6043 130.5,-86.0759"/>
<polygon fill="#191970" stroke="#191970" points="134.0001,-85.8469 130.5,-75.8469 127.0001,-85.847 134.0001,-85.8469"/>
</g>
<!-- Node5 -->
<g id="node6" class="node">
<title>Node5</title>
<g id="a_node6"><a xlink:href="drivers_2include_2periph_2gpio_8h.html" target="_top" xlink:title="Low&#45;level GPIO peripheral driver interface definitions. ">
<polygon fill="#ffffff" stroke="#000000" points="189.5,-56.5 189.5,-75.5 269.5,-75.5 269.5,-56.5 189.5,-56.5"/>
<text text-anchor="middle" x="229.5" y="-63.5" font-family="Helvetica,sans-Serif" font-size="10.00" fill="#000000">periph/gpio.h</text>
</a>
</g>
</g>
<!-- Node0&#45;&gt;Node5 -->
<g id="edge5" class="edge">
<title>Node0&#45;&gt;Node5</title>
<path fill="none" stroke="#191970" d="M154.7181,-112.4554C170.0773,-102.9141 189.8757,-90.6151 205.2425,-81.0691"/>
<polygon fill="#191970" stroke="#191970" points="207.511,-83.7802 214.1585,-75.5303 203.8172,-77.8341 207.511,-83.7802"/>
</g>
<!-- Node3 -->
<g id="node4" class="node">
<title>Node3</title>
<polygon fill="#ffffff" stroke="#bfbfbf" points="101,-.5 101,-19.5 178,-19.5 178,-.5 101,-.5"/>
<text text-anchor="middle" x="139.5" y="-7.5" font-family="Helvetica,sans-Serif" font-size="10.00" fill="#000000">periph_cpu.h</text>
</g>
<!-- Node2&#45;&gt;Node3 -->
<g id="edge3" class="edge">
<title>Node2&#45;&gt;Node3</title>
<path fill="none" stroke="#191970" d="M132.0677,-56.2455C133.2421,-48.9382 134.8884,-38.6944 136.3332,-29.7046"/>
<polygon fill="#191970" stroke="#191970" points="139.8191,-30.0714 137.9503,-19.6427 132.9078,-28.9606 139.8191,-30.0714"/>
</g>
<!-- Node4 -->
<g id="node5" class="node">
<title>Node4</title>
<polygon fill="#ffffff" stroke="#bfbfbf" points="0,-.5 0,-19.5 83,-19.5 83,-.5 0,-.5"/>
<text text-anchor="middle" x="41.5" y="-7.5" font-family="Helvetica,sans-Serif" font-size="10.00" fill="#000000">vendor/conf.h</text>
</g>
<!-- Node2&#45;&gt;Node4 -->
<g id="edge4" class="edge">
<title>Node2&#45;&gt;Node4</title>
<path fill="none" stroke="#191970" d="M114.9974,-56.2455C101.342,-47.6534 81.2343,-35.0014 65.5011,-25.1018"/>
<polygon fill="#191970" stroke="#191970" points="67.1529,-22.006 56.825,-19.6427 63.4249,-27.9307 67.1529,-22.006"/>
</g>
<!-- Node5&#45;&gt;Node3 -->
<g id="edge8" class="edge">
<title>Node5&#45;&gt;Node3</title>
<path fill="none" stroke="#191970" d="M213.8232,-56.2455C200.0144,-47.6534 179.6807,-35.0014 163.7708,-25.1018"/>
<polygon fill="#191970" stroke="#191970" points="165.3368,-21.954 154.9972,-19.6427 161.6387,-27.8974 165.3368,-21.954"/>
</g>
<!-- Node6 -->
<g id="node7" class="node">
<title>Node6</title>
<polygon fill="#ffffff" stroke="#bfbfbf" points="196.5,-.5 196.5,-19.5 246.5,-19.5 246.5,-.5 196.5,-.5"/>
<text text-anchor="middle" x="221.5" y="-7.5" font-family="Helvetica,sans-Serif" font-size="10.00" fill="#000000">limits.h</text>
</g>
<!-- Node5&#45;&gt;Node6 -->
<g id="edge6" class="edge">
<title>Node5&#45;&gt;Node6</title>
<path fill="none" stroke="#191970" d="M228.1065,-56.2455C227.0626,-48.9382 225.5992,-38.6944 224.3149,-29.7046"/>
<polygon fill="#191970" stroke="#191970" points="227.7566,-29.0472 222.8775,-19.6427 220.827,-30.0372 227.7566,-29.0472"/>
</g>
<!-- Node7 -->
<g id="node8" class="node">
<title>Node7</title>
<polygon fill="#ffffff" stroke="#bfbfbf" points="264.5,-.5 264.5,-19.5 324.5,-19.5 324.5,-.5 264.5,-.5"/>
<text text-anchor="middle" x="294.5" y="-7.5" font-family="Helvetica,sans-Serif" font-size="10.00" fill="#000000">stdbool.h</text>
</g>
<!-- Node5&#45;&gt;Node7 -->
<g id="edge7" class="edge">
<title>Node5&#45;&gt;Node7</title>
<path fill="none" stroke="#191970" d="M240.8221,-56.2455C250.4223,-47.9746 264.3892,-35.9416 275.6695,-26.2232"/>
<polygon fill="#191970" stroke="#191970" points="278.016,-28.8214 283.3076,-19.6427 273.447,-23.5182 278.016,-28.8214"/>
</g>
<!-- Node8 -->
<g id="node9" class="node">
<title>Node8</title>
<polygon fill="#ffffff" stroke="#bfbfbf" points="343,-.5 343,-19.5 424,-19.5 424,-.5 343,-.5"/>
<text text-anchor="middle" x="383.5" y="-7.5" font-family="Helvetica,sans-Serif" font-size="10.00" fill="#000000">periph_conf.h</text>
</g>
<!-- Node5&#45;&gt;Node8 -->
<g id="edge9" class="edge">
<title>Node5&#45;&gt;Node8</title>
<path fill="none" stroke="#191970" d="M255.9735,-56.3733C281.3597,-47.1419 319.8645,-33.1402 347.922,-22.9375"/>
<polygon fill="#191970" stroke="#191970" points="349.1701,-26.2079 357.3719,-19.5011 346.7778,-19.6293 349.1701,-26.2079"/>
</g>
</g>
</svg>
