<?xml version="1.0" encoding="UTF-8" standalone="no"?>
<!DOCTYPE svg PUBLIC "-//W3C//DTD SVG 1.1//EN"
 "http://www.w3.org/Graphics/SVG/1.1/DTD/svg11.dtd">
<!-- Generated by graphviz version 2.40.1 (0)
 -->
<!-- Title: drivers/mcp47xx/include/mcp47xx_params.h Pages: 1 -->
<svg width="1121pt" height="319pt"
 viewBox="0.00 0.00 1121.00 319.00" xmlns="http://www.w3.org/2000/svg" xmlns:xlink="http://www.w3.org/1999/xlink">
<g id="graph0" class="graph" transform="scale(1 1) rotate(0) translate(4 315)">
<title>drivers/mcp47xx/include/mcp47xx_params.h</title>
<polygon fill="#ffffff" stroke="transparent" points="-4,4 -4,-315 1117,-315 1117,4 -4,4"/>
<!-- Node0 -->
<g id="node1" class="node">
<title>Node0</title>
<polygon fill="#bfbfbf" stroke="#000000" points="311,-280.5 311,-310.5 443,-310.5 443,-280.5 311,-280.5"/>
<text text-anchor="start" x="319" y="-298.5" font-family="Helvetica,sans-Serif" font-size="10.00" fill="#000000">drivers/mcp47xx/include</text>
<text text-anchor="middle" x="377" y="-287.5" font-family="Helvetica,sans-Serif" font-size="10.00" fill="#000000">/mcp47xx_params.h</text>
</g>
<!-- Node1 -->
<g id="node2" class="node">
<title>Node1</title>
<polygon fill="#ffffff" stroke="#bfbfbf" points="219.5,-224.5 219.5,-243.5 272.5,-243.5 272.5,-224.5 219.5,-224.5"/>
<text text-anchor="middle" x="246" y="-231.5" font-family="Helvetica,sans-Serif" font-size="10.00" fill="#000000">board.h</text>
</g>
<!-- Node0&#45;&gt;Node1 -->
<g id="edge1" class="edge">
<title>Node0&#45;&gt;Node1</title>
<path fill="none" stroke="#191970" d="M344.9538,-280.4554C323.7672,-270.509 296.1972,-257.5659 275.5412,-247.8686"/>
<polygon fill="#191970" stroke="#191970" points="276.8399,-244.6118 266.3004,-243.5303 273.8651,-250.9483 276.8399,-244.6118"/>
</g>
<!-- Node2 -->
<g id="node3" class="node">
<title>Node2</title>
<g id="a_node3"><a xlink:href="mcp47xx_8h.html" target="_top" xlink:title="mcp47xx.h">
<polygon fill="#ffffff" stroke="#000000" points="391,-224.5 391,-243.5 459,-243.5 459,-224.5 391,-224.5"/>
<text text-anchor="middle" x="425" y="-231.5" font-family="Helvetica,sans-Serif" font-size="10.00" fill="#000000">mcp47xx.h</text>
</a>
</g>
</g>
<!-- Node0&#45;&gt;Node2 -->
<g id="edge2" class="edge">
<title>Node0&#45;&gt;Node2</title>
<path fill="none" stroke="#191970" d="M388.8652,-280.2977C395.5975,-271.672 404.0585,-260.8312 411.1006,-251.8087"/>
<polygon fill="#191970" stroke="#191970" points="413.921,-253.8836 417.3146,-243.8469 408.4027,-249.5766 413.921,-253.8836"/>
</g>
<!-- Node18 -->
<g id="node19" class="node">
<title>Node18</title>
<g id="a_node19"><a xlink:href="saul__reg_8h.html" target="_top" xlink:title="SAUL registry interface definition. ">
<polygon fill="#ffffff" stroke="#000000" points="945.5,-168.5 945.5,-187.5 1010.5,-187.5 1010.5,-168.5 945.5,-168.5"/>
<text text-anchor="middle" x="978" y="-175.5" font-family="Helvetica,sans-Serif" font-size="10.00" fill="#000000">saul_reg.h</text>
</a>
</g>
</g>
<!-- Node0&#45;&gt;Node18 -->
<g id="edge32" class="edge">
<title>Node0&#45;&gt;Node18</title>
<path fill="none" stroke="#191970" d="M443.0367,-282.5893C567.1492,-258.3244 832.0112,-206.5419 935.4061,-186.3274"/>
<polygon fill="#191970" stroke="#191970" points="936.3328,-189.7126 945.4754,-184.3588 934.9896,-182.8427 936.3328,-189.7126"/>
</g>
<!-- Node22 -->
<g id="node23" class="node">
<title>Node22</title>
<g id="a_node23"><a xlink:href="periph_8h.html" target="_top" xlink:title="Parameter definitions for mapping peripherals directly to SAUL. ">
<polygon fill="#ffffff" stroke="#000000" points="291,-224.5 291,-243.5 369,-243.5 369,-224.5 291,-224.5"/>
<text text-anchor="middle" x="330" y="-231.5" font-family="Helvetica,sans-Serif" font-size="10.00" fill="#000000">saul/periph.h</text>
</a>
</g>
</g>
<!-- Node0&#45;&gt;Node22 -->
<g id="edge40" class="edge">
<title>Node0&#45;&gt;Node22</title>
<path fill="none" stroke="#191970" d="M365.382,-280.2977C358.79,-271.672 350.5052,-260.8312 343.6099,-251.8087"/>
<polygon fill="#191970" stroke="#191970" points="346.3783,-249.6671 337.5253,-243.8469 340.8165,-253.9176 346.3783,-249.6671"/>
</g>
<!-- Node3 -->
<g id="node4" class="node">
<title>Node3</title>
<polygon fill="#ffffff" stroke="#bfbfbf" points="374,-112.5 374,-131.5 434,-131.5 434,-112.5 374,-112.5"/>
<text text-anchor="middle" x="404" y="-119.5" font-family="Helvetica,sans-Serif" font-size="10.00" fill="#000000">stdbool.h</text>
</g>
<!-- Node2&#45;&gt;Node3 -->
<g id="edge3" class="edge">
<title>Node2&#45;&gt;Node3</title>
<path fill="none" stroke="#191970" d="M439.6245,-224.3927C456.648,-211.9326 481.1015,-189.2692 470,-168 462.8755,-154.3502 449.6477,-143.926 436.8944,-136.4806"/>
<polygon fill="#191970" stroke="#191970" points="438.2508,-133.2362 427.7859,-131.5822 434.9353,-139.4012 438.2508,-133.2362"/>
</g>
<!-- Node4 -->
<g id="node5" class="node">
<title>Node4</title>
<polygon fill="#ffffff" stroke="#bfbfbf" points="545,-.5 545,-19.5 597,-19.5 597,-.5 545,-.5"/>
<text text-anchor="middle" x="571" y="-7.5" font-family="Helvetica,sans-Serif" font-size="10.00" fill="#000000">stdint.h</text>
</g>
<!-- Node2&#45;&gt;Node4 -->
<g id="edge4" class="edge">
<title>Node2&#45;&gt;Node4</title>
<path fill="none" stroke="#191970" d="M459.3185,-229.1645C500.8541,-222.6736 572.5008,-209.4156 631,-188 706.8086,-160.2477 751.2507,-153.4571 774,-76 776.5049,-67.4713 779.5476,-62.9453 774,-56 753.5337,-30.3772 660.052,-17.9646 607.3734,-12.91"/>
<polygon fill="#191970" stroke="#191970" points="607.3818,-9.3962 597.1039,-11.9681 606.7424,-16.3669 607.3818,-9.3962"/>
</g>
<!-- Node5 -->
<g id="node6" class="node">
<title>Node5</title>
<g id="a_node6"><a xlink:href="kernel__defines_8h.html" target="_top" xlink:title="Common macros and compiler attributes/pragmas configuration. ">
<polygon fill="#ffffff" stroke="#000000" points="527.5,-168.5 527.5,-187.5 622.5,-187.5 622.5,-168.5 527.5,-168.5"/>
<text text-anchor="middle" x="575" y="-175.5" font-family="Helvetica,sans-Serif" font-size="10.00" fill="#000000">kernel_defines.h</text>
</a>
</g>
</g>
<!-- Node2&#45;&gt;Node5 -->
<g id="edge5" class="edge">
<title>Node2&#45;&gt;Node5</title>
<path fill="none" stroke="#191970" d="M450.7859,-224.3733C475.4047,-215.1822 512.69,-201.2624 539.9875,-191.0713"/>
<polygon fill="#191970" stroke="#191970" points="541.4063,-194.2777 549.5506,-187.5011 538.958,-187.7198 541.4063,-194.2777"/>
</g>
<!-- Node12 -->
<g id="node13" class="node">
<title>Node12</title>
<g id="a_node13"><a xlink:href="dac_8h.html" target="_top" xlink:title="DAC peripheral driver interface definition. ">
<polygon fill="#ffffff" stroke="#000000" points="196,-168.5 196,-187.5 272,-187.5 272,-168.5 196,-168.5"/>
<text text-anchor="middle" x="234" y="-175.5" font-family="Helvetica,sans-Serif" font-size="10.00" fill="#000000">periph/dac.h</text>
</a>
</g>
</g>
<!-- Node2&#45;&gt;Node12 -->
<g id="edge16" class="edge">
<title>Node2&#45;&gt;Node12</title>
<path fill="none" stroke="#191970" d="M392.1659,-224.3733C360.1305,-214.9807 311.2513,-200.6496 276.3145,-190.4064"/>
<polygon fill="#191970" stroke="#191970" points="276.9864,-186.9561 266.4056,-187.5011 275.0169,-193.6733 276.9864,-186.9561"/>
</g>
<!-- Node16 -->
<g id="node17" class="node">
<title>Node16</title>
<g id="a_node17"><a xlink:href="drivers_2include_2periph_2gpio_8h.html" target="_top" xlink:title="Low&#45;level GPIO peripheral driver interface definitions. ">
<polygon fill="#ffffff" stroke="#000000" points="290,-168.5 290,-187.5 370,-187.5 370,-168.5 290,-168.5"/>
<text text-anchor="middle" x="330" y="-175.5" font-family="Helvetica,sans-Serif" font-size="10.00" fill="#000000">periph/gpio.h</text>
</a>
</g>
</g>
<!-- Node2&#45;&gt;Node16 -->
<g id="edge21" class="edge">
<title>Node2&#45;&gt;Node16</title>
<path fill="none" stroke="#191970" d="M408.4523,-224.2455C393.7401,-215.5731 372.0112,-202.7645 355.1495,-192.825"/>
<polygon fill="#191970" stroke="#191970" points="356.7502,-189.7057 346.3581,-187.6427 353.1954,-195.736 356.7502,-189.7057"/>
</g>
<!-- Node17 -->
<g id="node18" class="node">
<title>Node17</title>
<g id="a_node18"><a xlink:href="i2c_8h.html" target="_top" xlink:title="Low&#45;level I2C peripheral driver interface definition. ">
<polygon fill="#ffffff" stroke="#000000" points="388.5,-168.5 388.5,-187.5 461.5,-187.5 461.5,-168.5 388.5,-168.5"/>
<text text-anchor="middle" x="425" y="-175.5" font-family="Helvetica,sans-Serif" font-size="10.00" fill="#000000">periph/i2c.h</text>
</a>
</g>
</g>
<!-- Node2&#45;&gt;Node17 -->
<g id="edge26" class="edge">
<title>Node2&#45;&gt;Node17</title>
<path fill="none" stroke="#191970" d="M425,-224.2455C425,-216.9382 425,-206.6944 425,-197.7046"/>
<polygon fill="#191970" stroke="#191970" points="428.5001,-197.6426 425,-187.6427 421.5001,-197.6427 428.5001,-197.6426"/>
</g>
<!-- Node6 -->
<g id="node7" class="node">
<title>Node6</title>
<g id="a_node7"><a xlink:href="modules_8h.html" target="_top" xlink:title="Common macros and compiler attributes/pragmas configuration. ">
<polygon fill="#ffffff" stroke="#000000" points="821.5,-56.5 821.5,-75.5 886.5,-75.5 886.5,-56.5 821.5,-56.5"/>
<text text-anchor="middle" x="854" y="-63.5" font-family="Helvetica,sans-Serif" font-size="10.00" fill="#000000">modules.h</text>
</a>
</g>
</g>
<!-- Node5&#45;&gt;Node6 -->
<g id="edge6" class="edge">
<title>Node5&#45;&gt;Node6</title>
<path fill="none" stroke="#191970" d="M622.6647,-169.7654C658.8611,-162.5171 709.3413,-150.2428 751,-132 781.6735,-118.5677 813.6341,-96.6459 833.6612,-81.7869"/>
<polygon fill="#191970" stroke="#191970" points="835.8491,-84.5207 841.7253,-75.7047 831.634,-78.932 835.8491,-84.5207"/>
</g>
<!-- Node7 -->
<g id="node8" class="node">
<title>Node7</title>
<g id="a_node8"><a xlink:href="riot__version_8h.html" target="_top" xlink:title="Common macros and compiler attributes/pragmas configuration. ">
<polygon fill="#ffffff" stroke="#000000" points="461.5,-56.5 461.5,-75.5 542.5,-75.5 542.5,-56.5 461.5,-56.5"/>
<text text-anchor="middle" x="502" y="-63.5" font-family="Helvetica,sans-Serif" font-size="10.00" fill="#000000">riot_version.h</text>
</a>
</g>
</g>
<!-- Node5&#45;&gt;Node7 -->
<g id="edge7" class="edge">
<title>Node5&#45;&gt;Node7</title>
<path fill="none" stroke="#191970" d="M558.3374,-168.3987C545.7013,-160.2725 528.8757,-147.4888 519,-132 510.0654,-117.9872 505.8174,-99.4837 503.8029,-85.6352"/>
<polygon fill="#191970" stroke="#191970" points="507.278,-85.2173 502.6193,-75.7016 500.3272,-86.0455 507.278,-85.2173"/>
</g>
<!-- Node8 -->
<g id="node9" class="node">
<title>Node8</title>
<g id="a_node9"><a xlink:href="compiler__hints_8h.html" target="_top" xlink:title="Common macros and compiler attributes/pragmas configuration. ">
<polygon fill="#ffffff" stroke="#000000" points="528.5,-112.5 528.5,-131.5 621.5,-131.5 621.5,-112.5 528.5,-112.5"/>
<text text-anchor="middle" x="575" y="-119.5" font-family="Helvetica,sans-Serif" font-size="10.00" fill="#000000">compiler_hints.h</text>
</a>
</g>
</g>
<!-- Node5&#45;&gt;Node8 -->
<g id="edge9" class="edge">
<title>Node5&#45;&gt;Node8</title>
<path fill="none" stroke="#191970" d="M575,-168.2455C575,-160.9382 575,-150.6944 575,-141.7046"/>
<polygon fill="#191970" stroke="#191970" points="578.5001,-141.6426 575,-131.6427 571.5001,-141.6427 578.5001,-141.6426"/>
</g>
<!-- Node10 -->
<g id="node11" class="node">
<title>Node10</title>
<g id="a_node11"><a xlink:href="container_8h.html" target="_top" xlink:title="Common macros and compiler attributes/pragmas configuration. ">
<polygon fill="#ffffff" stroke="#000000" points="639.5,-112.5 639.5,-131.5 708.5,-131.5 708.5,-112.5 639.5,-112.5"/>
<text text-anchor="middle" x="674" y="-119.5" font-family="Helvetica,sans-Serif" font-size="10.00" fill="#000000">container.h</text>
</a>
</g>
</g>
<!-- Node5&#45;&gt;Node10 -->
<g id="edge13" class="edge">
<title>Node5&#45;&gt;Node10</title>
<path fill="none" stroke="#191970" d="M592.2445,-168.2455C607.5761,-159.5731 630.2199,-146.7645 647.7916,-136.825"/>
<polygon fill="#191970" stroke="#191970" points="649.9724,-139.6126 656.9531,-131.6427 646.5259,-133.5198 649.9724,-139.6126"/>
</g>
<!-- Node7&#45;&gt;Node4 -->
<g id="edge8" class="edge">
<title>Node7&#45;&gt;Node4</title>
<path fill="none" stroke="#191970" d="M514.0189,-56.2455C524.2098,-47.9746 539.0362,-35.9416 551.0107,-26.2232"/>
<polygon fill="#191970" stroke="#191970" points="553.5598,-28.662 559.1188,-19.6427 549.1486,-23.2268 553.5598,-28.662"/>
</g>
<!-- Node8&#45;&gt;Node4 -->
<g id="edge12" class="edge">
<title>Node8&#45;&gt;Node4</title>
<path fill="none" stroke="#191970" d="M574.659,-112.4509C574.0066,-94.184 572.5698,-53.9553 571.7035,-29.6976"/>
<polygon fill="#191970" stroke="#191970" points="575.195,-29.3936 571.3402,-19.5249 568.1994,-29.6435 575.195,-29.3936"/>
</g>
<!-- Node9 -->
<g id="node10" class="node">
<title>Node9</title>
<g id="a_node10"><a xlink:href="assert_8h.html" target="_top" xlink:title="POSIX.1&#45;2008 compliant version of the assert macro. ">
<polygon fill="#ffffff" stroke="#000000" points="599,-56.5 599,-75.5 653,-75.5 653,-56.5 599,-56.5"/>
<text text-anchor="middle" x="626" y="-63.5" font-family="Helvetica,sans-Serif" font-size="10.00" fill="#000000">assert.h</text>
</a>
</g>
</g>
<!-- Node8&#45;&gt;Node9 -->
<g id="edge10" class="edge">
<title>Node8&#45;&gt;Node9</title>
<path fill="none" stroke="#191970" d="M583.8835,-112.2455C591.1966,-104.2155 601.7391,-92.6394 610.4467,-83.0781"/>
<polygon fill="#191970" stroke="#191970" points="613.0727,-85.3928 617.2183,-75.6427 607.8972,-80.6795 613.0727,-85.3928"/>
</g>
<!-- Node9&#45;&gt;Node4 -->
<g id="edge11" class="edge">
<title>Node9&#45;&gt;Node4</title>
<path fill="none" stroke="#191970" d="M616.4197,-56.2455C608.4542,-48.1352 596.9359,-36.4075 587.4921,-26.7919"/>
<polygon fill="#191970" stroke="#191970" points="589.9747,-24.3247 580.4705,-19.6427 584.9805,-29.2297 589.9747,-24.3247"/>
</g>
<!-- Node10&#45;&gt;Node4 -->
<g id="edge15" class="edge">
<title>Node10&#45;&gt;Node4</title>
<path fill="none" stroke="#191970" d="M674.771,-112.4446C675.3789,-98.6032 674.5411,-72.7981 662,-56 648.5627,-38.0015 626.0908,-26.5442 606.841,-19.5655"/>
<polygon fill="#191970" stroke="#191970" points="607.7271,-16.1713 597.1332,-16.3134 605.5035,-22.8087 607.7271,-16.1713"/>
</g>
<!-- Node11 -->
<g id="node12" class="node">
<title>Node11</title>
<polygon fill="#ffffff" stroke="#bfbfbf" points="709,-56.5 709,-75.5 765,-75.5 765,-56.5 709,-56.5"/>
<text text-anchor="middle" x="737" y="-63.5" font-family="Helvetica,sans-Serif" font-size="10.00" fill="#000000">stddef.h</text>
</g>
<!-- Node10&#45;&gt;Node11 -->
<g id="edge14" class="edge">
<title>Node10&#45;&gt;Node11</title>
<path fill="none" stroke="#191970" d="M684.9738,-112.2455C694.1882,-104.0549 707.5532,-92.1749 718.4297,-82.5069"/>
<polygon fill="#191970" stroke="#191970" points="721.0032,-84.9023 726.152,-75.6427 716.3526,-79.6704 721.0032,-84.9023"/>
</g>
<!-- Node12&#45;&gt;Node4 -->
<g id="edge17" class="edge">
<title>Node12&#45;&gt;Node4</title>
<path fill="none" stroke="#191970" d="M195.9908,-169.8877C161.0853,-161.5759 113.1394,-147.6783 102,-132 96.8516,-124.7539 96.4223,-118.9211 102,-112 156.6105,-44.2359 434.3644,-19.1464 534.7442,-12.2069"/>
<polygon fill="#191970" stroke="#191970" points="535.2478,-15.6811 544.991,-11.5195 534.7791,-8.6968 535.2478,-15.6811"/>
</g>
<!-- Node13 -->
<g id="node14" class="node">
<title>Node13</title>
<polygon fill="#ffffff" stroke="#bfbfbf" points="111,-112.5 111,-131.5 161,-131.5 161,-112.5 111,-112.5"/>
<text text-anchor="middle" x="136" y="-119.5" font-family="Helvetica,sans-Serif" font-size="10.00" fill="#000000">limits.h</text>
</g>
<!-- Node12&#45;&gt;Node13 -->
<g id="edge18" class="edge">
<title>Node12&#45;&gt;Node13</title>
<path fill="none" stroke="#191970" d="M216.9297,-168.2455C201.753,-159.5731 179.3379,-146.7645 161.9437,-136.825"/>
<polygon fill="#191970" stroke="#191970" points="163.2936,-133.5653 152.8747,-131.6427 159.8206,-139.643 163.2936,-133.5653"/>
</g>
<!-- Node14 -->
<g id="node15" class="node">
<title>Node14</title>
<polygon fill="#ffffff" stroke="#bfbfbf" points="179.5,-112.5 179.5,-131.5 256.5,-131.5 256.5,-112.5 179.5,-112.5"/>
<text text-anchor="middle" x="218" y="-119.5" font-family="Helvetica,sans-Serif" font-size="10.00" fill="#000000">periph_cpu.h</text>
</g>
<!-- Node12&#45;&gt;Node14 -->
<g id="edge19" class="edge">
<title>Node12&#45;&gt;Node14</title>
<path fill="none" stroke="#191970" d="M231.213,-168.2455C229.1023,-160.8579 226.134,-150.4689 223.5453,-141.4087"/>
<polygon fill="#191970" stroke="#191970" points="226.8677,-140.2964 220.755,-131.6427 220.137,-142.2195 226.8677,-140.2964"/>
</g>
<!-- Node15 -->
<g id="node16" class="node">
<title>Node15</title>
<polygon fill="#ffffff" stroke="#bfbfbf" points="274.5,-112.5 274.5,-131.5 355.5,-131.5 355.5,-112.5 274.5,-112.5"/>
<text text-anchor="middle" x="315" y="-119.5" font-family="Helvetica,sans-Serif" font-size="10.00" fill="#000000">periph_conf.h</text>
</g>
<!-- Node12&#45;&gt;Node15 -->
<g id="edge20" class="edge">
<title>Node12&#45;&gt;Node15</title>
<path fill="none" stroke="#191970" d="M248.1091,-168.2455C260.4209,-159.7337 278.4958,-147.2375 292.7538,-137.3801"/>
<polygon fill="#191970" stroke="#191970" points="294.8174,-140.2085 301.0526,-131.6427 290.8366,-134.4506 294.8174,-140.2085"/>
</g>
<!-- Node16&#45;&gt;Node3 -->
<g id="edge23" class="edge">
<title>Node16&#45;&gt;Node3</title>
<path fill="none" stroke="#191970" d="M342.8898,-168.2455C353.9254,-159.8943 370.0292,-147.7076 382.9353,-137.9408"/>
<polygon fill="#191970" stroke="#191970" points="385.3959,-140.4681 391.2579,-131.6427 381.1717,-134.8862 385.3959,-140.4681"/>
</g>
<!-- Node16&#45;&gt;Node13 -->
<g id="edge22" class="edge">
<title>Node16&#45;&gt;Node13</title>
<path fill="none" stroke="#191970" d="M296.5803,-168.456C266.2232,-159.7724 219.9517,-146.5014 171.0561,-132.2963"/>
<polygon fill="#191970" stroke="#191970" points="171.8255,-128.8751 161.246,-129.4439 169.8711,-135.5967 171.8255,-128.8751"/>
</g>
<!-- Node16&#45;&gt;Node14 -->
<g id="edge24" class="edge">
<title>Node16&#45;&gt;Node14</title>
<path fill="none" stroke="#191970" d="M310.7465,-168.3733C292.9288,-159.4644 266.2253,-146.1127 246.0406,-136.0203"/>
<polygon fill="#191970" stroke="#191970" points="247.5118,-132.8428 237.0022,-131.5011 244.3813,-139.1038 247.5118,-132.8428"/>
</g>
<!-- Node16&#45;&gt;Node15 -->
<g id="edge25" class="edge">
<title>Node16&#45;&gt;Node15</title>
<path fill="none" stroke="#191970" d="M327.3872,-168.2455C325.4084,-160.8579 322.6256,-150.4689 320.1988,-141.4087"/>
<polygon fill="#191970" stroke="#191970" points="323.5511,-140.3966 317.5829,-131.6427 316.7895,-142.2078 323.5511,-140.3966"/>
</g>
<!-- Node17&#45;&gt;Node4 -->
<g id="edge27" class="edge">
<title>Node17&#45;&gt;Node4</title>
<path fill="none" stroke="#191970" d="M429.606,-168.367C433.7764,-159.22 439.7495,-144.9773 443,-132 451.2644,-99.0055 431.1482,-82.8727 452,-56 471.8064,-30.4746 507.6761,-19.1031 534.8735,-14.043"/>
<polygon fill="#191970" stroke="#191970" points="535.5268,-17.4826 544.821,-12.3964 534.3836,-10.5766 535.5268,-17.4826"/>
</g>
<!-- Node17&#45;&gt;Node11 -->
<g id="edge28" class="edge">
<title>Node17&#45;&gt;Node11</title>
<path fill="none" stroke="#191970" d="M461.6988,-173.2707C537.9834,-163.2969 707.4208,-140.3409 717,-132 730.0957,-120.5972 734.7723,-100.9314 736.366,-86.0249"/>
<polygon fill="#191970" stroke="#191970" points="739.8769,-85.986 737.0722,-75.7691 732.8935,-85.505 739.8769,-85.986"/>
</g>
<!-- Node17&#45;&gt;Node13 -->
<g id="edge29" class="edge">
<title>Node17&#45;&gt;Node13</title>
<path fill="none" stroke="#191970" d="M388.3714,-169.8869C385.2053,-169.2313 382.0483,-168.5936 379,-168 289.5528,-150.5825 263.5239,-153.1347 170.9443,-132.0148"/>
<polygon fill="#191970" stroke="#191970" points="171.6966,-128.5965 161.1651,-129.7533 170.1193,-135.4165 171.6966,-128.5965"/>
</g>
<!-- Node17&#45;&gt;Node14 -->
<g id="edge31" class="edge">
<title>Node17&#45;&gt;Node14</title>
<path fill="none" stroke="#191970" d="M389.4154,-168.3733C354.3984,-158.9001 300.8119,-144.4032 262.8875,-134.1435"/>
<polygon fill="#191970" stroke="#191970" points="263.6873,-130.7341 253.1202,-131.5011 261.8592,-137.4912 263.6873,-130.7341"/>
</g>
<!-- Node17&#45;&gt;Node15 -->
<g id="edge30" class="edge">
<title>Node17&#45;&gt;Node15</title>
<path fill="none" stroke="#191970" d="M405.8395,-168.2455C388.4889,-159.4125 362.7099,-146.2887 343.0417,-136.2758"/>
<polygon fill="#191970" stroke="#191970" points="344.4405,-133.0605 333.941,-131.6427 341.2647,-139.2986 344.4405,-133.0605"/>
</g>
<!-- Node18&#45;&gt;Node4 -->
<g id="edge33" class="edge">
<title>Node18&#45;&gt;Node4</title>
<path fill="none" stroke="#191970" d="M987.4207,-168.1767C1007.9097,-145.6408 1052.3346,-89.586 1022,-56 994.3593,-25.3967 709.697,-14.0711 607.3779,-10.9701"/>
<polygon fill="#191970" stroke="#191970" points="607.3181,-7.4669 597.2195,-10.6713 607.1122,-14.4639 607.3181,-7.4669"/>
</g>
<!-- Node19 -->
<g id="node20" class="node">
<title>Node19</title>
<polygon fill="#ffffff" stroke="#bfbfbf" points="1069,-112.5 1069,-131.5 1113,-131.5 1113,-112.5 1069,-112.5"/>
<text text-anchor="middle" x="1091" y="-119.5" font-family="Helvetica,sans-Serif" font-size="10.00" fill="#000000">saul.h</text>
</g>
<!-- Node18&#45;&gt;Node19 -->
<g id="edge34" class="edge">
<title>Node18&#45;&gt;Node19</title>
<path fill="none" stroke="#191970" d="M997.4254,-168.3733C1015.4021,-159.4644 1042.3441,-146.1127 1062.709,-136.0203"/>
<polygon fill="#191970" stroke="#191970" points="1064.4222,-139.0776 1071.8281,-131.5011 1061.3139,-132.8055 1064.4222,-139.0776"/>
</g>
<!-- Node20 -->
<g id="node21" class="node">
<title>Node20</title>
<g id="a_node21"><a xlink:href="phydat_8h.html" target="_top" xlink:title="Generic data container for physical data interface. ">
<polygon fill="#ffffff" stroke="#000000" points="886,-112.5 886,-131.5 944,-131.5 944,-112.5 886,-112.5"/>
<text text-anchor="middle" x="915" y="-119.5" font-family="Helvetica,sans-Serif" font-size="10.00" fill="#000000">phydat.h</text>
</a>
</g>
</g>
<!-- Node18&#45;&gt;Node20 -->
<g id="edge35" class="edge">
<title>Node18&#45;&gt;Node20</title>
<path fill="none" stroke="#191970" d="M967.0262,-168.2455C957.8118,-160.0549 944.4468,-148.1749 933.5703,-138.5069"/>
<polygon fill="#191970" stroke="#191970" points="935.6474,-135.6704 925.848,-131.6427 930.9968,-140.9023 935.6474,-135.6704"/>
</g>
<!-- Node20&#45;&gt;Node4 -->
<g id="edge37" class="edge">
<title>Node20&#45;&gt;Node4</title>
<path fill="none" stroke="#191970" d="M915.2607,-112.2126C915.072,-97.5891 912.3785,-70.2366 896,-56 874.4419,-37.2611 687.2988,-19.6585 607.1652,-12.9066"/>
<polygon fill="#191970" stroke="#191970" points="607.2995,-9.4058 597.0435,-12.0637 606.7185,-16.3816 607.2995,-9.4058"/>
</g>
<!-- Node20&#45;&gt;Node6 -->
<g id="edge39" class="edge">
<title>Node20&#45;&gt;Node6</title>
<path fill="none" stroke="#191970" d="M904.3746,-112.2455C895.4527,-104.0549 882.512,-92.1749 871.9808,-82.5069"/>
<polygon fill="#191970" stroke="#191970" points="874.2371,-79.8271 864.5036,-75.6427 869.5032,-84.9837 874.2371,-79.8271"/>
</g>
<!-- Node20&#45;&gt;Node11 -->
<g id="edge36" class="edge">
<title>Node20&#45;&gt;Node11</title>
<path fill="none" stroke="#191970" d="M885.6069,-112.7527C855.3604,-103.237 808.115,-88.3733 775.0364,-77.9665"/>
<polygon fill="#191970" stroke="#191970" points="775.8494,-74.5532 765.2599,-74.8908 773.7486,-81.2306 775.8494,-74.5532"/>
</g>
<!-- Node21 -->
<g id="node22" class="node">
<title>Node21</title>
<polygon fill="#ffffff" stroke="#bfbfbf" points="943.5,-56.5 943.5,-75.5 1012.5,-75.5 1012.5,-56.5 943.5,-56.5"/>
<text text-anchor="middle" x="978" y="-63.5" font-family="Helvetica,sans-Serif" font-size="10.00" fill="#000000">sys/types.h</text>
</g>
<!-- Node20&#45;&gt;Node21 -->
<g id="edge38" class="edge">
<title>Node20&#45;&gt;Node21</title>
<path fill="none" stroke="#191970" d="M925.9738,-112.2455C935.1882,-104.0549 948.5532,-92.1749 959.4297,-82.5069"/>
<polygon fill="#191970" stroke="#191970" points="962.0032,-84.9023 967.152,-75.6427 957.3526,-79.6704 962.0032,-84.9023"/>
</g>
<!-- Node22&#45;&gt;Node16 -->
<g id="edge41" class="edge">
<title>Node22&#45;&gt;Node16</title>
<path fill="none" stroke="#191970" d="M330,-224.2455C330,-216.9382 330,-206.6944 330,-197.7046"/>
<polygon fill="#191970" stroke="#191970" points="333.5001,-197.6426 330,-187.6427 326.5001,-197.6427 333.5001,-197.6426"/>
</g>
<!-- Node23 -->
<g id="node24" class="node">
<title>Node23</title>
<g id="a_node24"><a xlink:href="adc_8h.html" target="_top" xlink:title="Low&#45;level ADC peripheral driver interface definitions. ">
<polygon fill="#ffffff" stroke="#000000" points="0,-168.5 0,-187.5 76,-187.5 76,-168.5 0,-168.5"/>
<text text-anchor="middle" x="38" y="-175.5" font-family="Helvetica,sans-Serif" font-size="10.00" fill="#000000">periph/adc.h</text>
</a>
</g>
</g>
<!-- Node22&#45;&gt;Node23 -->
<g id="edge42" class="edge">
<title>Node22&#45;&gt;Node23</title>
<path fill="none" stroke="#191970" d="M290.9647,-225.9616C287.596,-225.2897 284.239,-224.6279 281,-224 197.1073,-207.7367 173.5177,-205.3715 86.0256,-188.1629"/>
<polygon fill="#191970" stroke="#191970" points="86.69,-184.7266 76.2011,-186.2213 85.3328,-191.5938 86.69,-184.7266"/>
</g>
<!-- Node24 -->
<g id="node25" class="node">
<title>Node24</title>
<g id="a_node25"><a xlink:href="pwm_8h.html" target="_top" xlink:title="Low&#45;level PWM peripheral driver interface definitions. ">
<polygon fill="#ffffff" stroke="#000000" points="94.5,-168.5 94.5,-187.5 177.5,-187.5 177.5,-168.5 94.5,-168.5"/>
<text text-anchor="middle" x="136" y="-175.5" font-family="Helvetica,sans-Serif" font-size="10.00" fill="#000000">periph/pwm.h</text>
</a>
</g>
</g>
<!-- Node22&#45;&gt;Node24 -->
<g id="edge47" class="edge">
<title>Node22&#45;&gt;Node24</title>
<path fill="none" stroke="#191970" d="M296.6502,-224.3733C263.972,-214.9404 214.0382,-200.5265 178.523,-190.2747"/>
<polygon fill="#191970" stroke="#191970" points="179.493,-186.9119 168.9146,-187.5011 177.5516,-193.6373 179.493,-186.9119"/>
</g>
<!-- Node23&#45;&gt;Node4 -->
<g id="edge44" class="edge">
<title>Node23&#45;&gt;Node4</title>
<path fill="none" stroke="#191970" d="M41.095,-168.2638C49.2582,-144.3675 73.8374,-82.8217 118,-56 153.3606,-34.5242 433.8104,-17.4115 534.8652,-11.887"/>
<polygon fill="#191970" stroke="#191970" points="535.1047,-15.3792 544.9011,-11.3443 534.7267,-8.3894 535.1047,-15.3792"/>
</g>
<!-- Node23&#45;&gt;Node13 -->
<g id="edge43" class="edge">
<title>Node23&#45;&gt;Node13</title>
<path fill="none" stroke="#191970" d="M55.0703,-168.2455C70.247,-159.5731 92.6621,-146.7645 110.0563,-136.825"/>
<polygon fill="#191970" stroke="#191970" points="112.1794,-139.643 119.1253,-131.6427 108.7064,-133.5653 112.1794,-139.643"/>
</g>
<!-- Node23&#45;&gt;Node14 -->
<g id="edge45" class="edge">
<title>Node23&#45;&gt;Node14</title>
<path fill="none" stroke="#191970" d="M68.9431,-168.3733C99.0039,-159.021 144.8026,-144.7725 177.6978,-134.5385"/>
<polygon fill="#191970" stroke="#191970" points="178.9519,-137.8139 187.4607,-131.5011 176.8723,-131.1299 178.9519,-137.8139"/>
</g>
<!-- Node23&#45;&gt;Node15 -->
<g id="edge46" class="edge">
<title>Node23&#45;&gt;Node15</title>
<path fill="none" stroke="#191970" d="M76.2113,-169.8291C79.1843,-169.2058 82.1404,-168.5901 85,-168 87.2167,-167.5425 197.3853,-145.5143 264.4255,-132.111"/>
<polygon fill="#191970" stroke="#191970" points="265.2688,-135.5117 274.3885,-130.1191 263.8964,-128.6475 265.2688,-135.5117"/>
</g>
<!-- Node24&#45;&gt;Node4 -->
<g id="edge48" class="edge">
<title>Node24&#45;&gt;Node4</title>
<path fill="none" stroke="#191970" d="M122.5303,-168.421C106.8317,-155.9909 84.2089,-133.3591 94,-112 109.8898,-77.3368 124.0465,-71.2406 159,-56 226.2002,-26.699 447.3509,-14.9021 534.8765,-11.3058"/>
<polygon fill="#191970" stroke="#191970" points="535.0161,-14.8031 544.8686,-10.9072 534.7371,-7.8087 535.0161,-14.8031"/>
</g>
<!-- Node24&#45;&gt;Node13 -->
<g id="edge49" class="edge">
<title>Node24&#45;&gt;Node13</title>
<path fill="none" stroke="#191970" d="M136,-168.2455C136,-160.9382 136,-150.6944 136,-141.7046"/>
<polygon fill="#191970" stroke="#191970" points="139.5001,-141.6426 136,-131.6427 132.5001,-141.6427 139.5001,-141.6426"/>
</g>
<!-- Node24&#45;&gt;Node14 -->
<g id="edge50" class="edge">
<title>Node24&#45;&gt;Node14</title>
<path fill="none" stroke="#191970" d="M150.2833,-168.2455C162.747,-159.7337 181.0451,-147.2375 195.4792,-137.3801"/>
<polygon fill="#191970" stroke="#191970" points="197.5962,-140.1726 203.8804,-131.6427 193.6485,-134.392 197.5962,-140.1726"/>
</g>
<!-- Node24&#45;&gt;Node15 -->
<g id="edge51" class="edge">
<title>Node24&#45;&gt;Node15</title>
<path fill="none" stroke="#191970" d="M166.7712,-168.3733C196.665,-159.021 242.2093,-144.7725 274.9217,-134.5385"/>
<polygon fill="#191970" stroke="#191970" points="276.1315,-137.8273 284.6303,-131.5011 274.0414,-131.1466 276.1315,-137.8273"/>
</g>
</g>
</svg>
