<?xml version="1.0" encoding="UTF-8" standalone="no"?>
<!DOCTYPE svg PUBLIC "-//W3C//DTD SVG 1.1//EN"
 "http://www.w3.org/Graphics/SVG/1.1/DTD/svg11.dtd">
<!-- Generated by graphviz version 2.40.1 (0)
 -->
<!-- Title: drivers/include/mhz19.h Pages: 1 -->
<svg width="296pt" height="140pt"
 viewBox="0.00 0.00 295.50 140.00" xmlns="http://www.w3.org/2000/svg" xmlns:xlink="http://www.w3.org/1999/xlink">
<g id="graph0" class="graph" transform="scale(1 1) rotate(0) translate(4 136)">
<title>drivers/include/mhz19.h</title>
<polygon fill="#ffffff" stroke="transparent" points="-4,4 -4,-136 291.5,-136 291.5,4 -4,4"/>
<!-- Node0 -->
<g id="node1" class="node">
<title>Node0</title>
<polygon fill="#bfbfbf" stroke="#000000" points="36,-112.5 36,-131.5 167,-131.5 167,-112.5 36,-112.5"/>
<text text-anchor="middle" x="101.5" y="-119.5" font-family="Helvetica,sans-Serif" font-size="10.00" fill="#000000">drivers/include/mhz19.h</text>
</g>
<!-- Node1 -->
<g id="node2" class="node">
<title>Node1</title>
<polygon fill="#ffffff" stroke="#bfbfbf" points="36.5,-56.5 36.5,-75.5 96.5,-75.5 96.5,-56.5 36.5,-56.5"/>
<text text-anchor="middle" x="66.5" y="-63.5" font-family="Helvetica,sans-Serif" font-size="10.00" fill="#000000">stdbool.h</text>
</g>
<!-- Node0&#45;&gt;Node1 -->
<g id="edge1" class="edge">
<title>Node0&#45;&gt;Node1</title>
<path fill="none" stroke="#191970" d="M95.4035,-112.2455C90.5855,-104.5367 83.7249,-93.5598 77.8968,-84.2348"/>
<polygon fill="#191970" stroke="#191970" points="80.7947,-82.2677 72.5267,-75.6427 74.8587,-85.9777 80.7947,-82.2677"/>
</g>
<!-- Node2 -->
<g id="node3" class="node">
<title>Node2</title>
<g id="a_node3"><a xlink:href="drivers_2include_2saul_8h.html" target="_top" xlink:title="Definition of the generic [S]ensor [A]ctuator [U]ber [L]ayer. ">
<polygon fill="#ffffff" stroke="#000000" points="114.5,-56.5 114.5,-75.5 158.5,-75.5 158.5,-56.5 114.5,-56.5"/>
<text text-anchor="middle" x="136.5" y="-63.5" font-family="Helvetica,sans-Serif" font-size="10.00" fill="#000000">saul.h</text>
</a>
</g>
</g>
<!-- Node0&#45;&gt;Node2 -->
<g id="edge2" class="edge">
<title>Node0&#45;&gt;Node2</title>
<path fill="none" stroke="#191970" d="M107.5965,-112.2455C112.4145,-104.5367 119.2751,-93.5598 125.1032,-84.2348"/>
<polygon fill="#191970" stroke="#191970" points="128.1413,-85.9777 130.4733,-75.6427 122.2053,-82.2677 128.1413,-85.9777"/>
</g>
<!-- Node3 -->
<g id="node4" class="node">
<title>Node3</title>
<g id="a_node4"><a xlink:href="errno_8h.html" target="_top" xlink:title="errno.h">
<polygon fill="#ffffff" stroke="#000000" points="0,-.5 0,-19.5 53,-19.5 53,-.5 0,-.5"/>
<text text-anchor="middle" x="26.5" y="-7.5" font-family="Helvetica,sans-Serif" font-size="10.00" fill="#000000">errno.h</text>
</a>
</g>
</g>
<!-- Node2&#45;&gt;Node3 -->
<g id="edge3" class="edge">
<title>Node2&#45;&gt;Node3</title>
<path fill="none" stroke="#191970" d="M117.3395,-56.2455C99.9889,-47.4125 74.2099,-34.2887 54.5417,-24.2758"/>
<polygon fill="#191970" stroke="#191970" points="55.9405,-21.0605 45.441,-19.6427 52.7647,-27.2986 55.9405,-21.0605"/>
</g>
<!-- Node4 -->
<g id="node5" class="node">
<title>Node4</title>
<polygon fill="#ffffff" stroke="#bfbfbf" points="71.5,-.5 71.5,-19.5 123.5,-19.5 123.5,-.5 71.5,-.5"/>
<text text-anchor="middle" x="97.5" y="-7.5" font-family="Helvetica,sans-Serif" font-size="10.00" fill="#000000">stdint.h</text>
</g>
<!-- Node2&#45;&gt;Node4 -->
<g id="edge4" class="edge">
<title>Node2&#45;&gt;Node4</title>
<path fill="none" stroke="#191970" d="M129.7067,-56.2455C124.2822,-48.4564 116.5339,-37.3308 109.9967,-27.9439"/>
<polygon fill="#191970" stroke="#191970" points="112.8025,-25.8485 104.2154,-19.6427 107.0583,-29.849 112.8025,-25.8485"/>
</g>
<!-- Node5 -->
<g id="node6" class="node">
<title>Node5</title>
<polygon fill="#ffffff" stroke="#bfbfbf" points="142,-.5 142,-19.5 211,-19.5 211,-.5 142,-.5"/>
<text text-anchor="middle" x="176.5" y="-7.5" font-family="Helvetica,sans-Serif" font-size="10.00" fill="#000000">sys/types.h</text>
</g>
<!-- Node2&#45;&gt;Node5 -->
<g id="edge5" class="edge">
<title>Node2&#45;&gt;Node5</title>
<path fill="none" stroke="#191970" d="M143.4675,-56.2455C149.0311,-48.4564 156.978,-37.3308 163.6829,-27.9439"/>
<polygon fill="#191970" stroke="#191970" points="166.648,-29.8144 169.6124,-19.6427 160.9519,-25.7457 166.648,-29.8144"/>
</g>
<!-- Node6 -->
<g id="node7" class="node">
<title>Node6</title>
<polygon fill="#ffffff" stroke="#bfbfbf" points="229.5,-.5 229.5,-19.5 287.5,-19.5 287.5,-.5 229.5,-.5"/>
<text text-anchor="middle" x="258.5" y="-7.5" font-family="Helvetica,sans-Serif" font-size="10.00" fill="#000000">phydat.h</text>
</g>
<!-- Node2&#45;&gt;Node6 -->
<g id="edge6" class="edge">
<title>Node2&#45;&gt;Node6</title>
<path fill="none" stroke="#191970" d="M157.4725,-56.3733C177.0567,-47.3838 206.4961,-33.8706 228.551,-23.7471"/>
<polygon fill="#191970" stroke="#191970" points="230.1729,-26.8538 237.8011,-19.5011 227.2527,-20.4919 230.1729,-26.8538"/>
</g>
</g>
</svg>
