<?xml version="1.0" encoding="UTF-8" standalone="no"?>
<!DOCTYPE svg PUBLIC "-//W3C//DTD SVG 1.1//EN"
 "http://www.w3.org/Graphics/SVG/1.1/DTD/svg11.dtd">
<!-- Generated by graphviz version 2.40.1 (0)
 -->
<!-- Title: drivers/mma7660/include/mma7660_params.h Pages: 1 -->
<svg width="567pt" height="207pt"
 viewBox="0.00 0.00 567.00 207.00" xmlns="http://www.w3.org/2000/svg" xmlns:xlink="http://www.w3.org/1999/xlink">
<g id="graph0" class="graph" transform="scale(1 1) rotate(0) translate(4 203)">
<title>drivers/mma7660/include/mma7660_params.h</title>
<polygon fill="#ffffff" stroke="transparent" points="-4,4 -4,-203 563,-203 563,4 -4,4"/>
<!-- Node0 -->
<g id="node1" class="node">
<title>Node0</title>
<polygon fill="#bfbfbf" stroke="#000000" points="120,-168.5 120,-198.5 257,-198.5 257,-168.5 120,-168.5"/>
<text text-anchor="start" x="128" y="-186.5" font-family="Helvetica,sans-Serif" font-size="10.00" fill="#000000">drivers/mma7660/include</text>
<text text-anchor="middle" x="188.5" y="-175.5" font-family="Helvetica,sans-Serif" font-size="10.00" fill="#000000">/mma7660_params.h</text>
</g>
<!-- Node1 -->
<g id="node2" class="node">
<title>Node1</title>
<polygon fill="#ffffff" stroke="#bfbfbf" points="85,-112.5 85,-131.5 138,-131.5 138,-112.5 85,-112.5"/>
<text text-anchor="middle" x="111.5" y="-119.5" font-family="Helvetica,sans-Serif" font-size="10.00" fill="#000000">board.h</text>
</g>
<!-- Node0&#45;&gt;Node1 -->
<g id="edge1" class="edge">
<title>Node0&#45;&gt;Node1</title>
<path fill="none" stroke="#191970" d="M169.4663,-168.2977C157.9985,-159.1384 143.4038,-147.4816 131.7281,-138.1562"/>
<polygon fill="#191970" stroke="#191970" points="133.8266,-135.3529 123.8287,-131.8469 129.4581,-140.8225 133.8266,-135.3529"/>
</g>
<!-- Node2 -->
<g id="node3" class="node">
<title>Node2</title>
<g id="a_node3"><a xlink:href="saul__reg_8h.html" target="_top" xlink:title="SAUL registry interface definition. ">
<polygon fill="#ffffff" stroke="#000000" points="156,-112.5 156,-131.5 221,-131.5 221,-112.5 156,-112.5"/>
<text text-anchor="middle" x="188.5" y="-119.5" font-family="Helvetica,sans-Serif" font-size="10.00" fill="#000000">saul_reg.h</text>
</a>
</g>
</g>
<!-- Node0&#45;&gt;Node2 -->
<g id="edge2" class="edge">
<title>Node0&#45;&gt;Node2</title>
<path fill="none" stroke="#191970" d="M188.5,-168.2977C188.5,-160.3834 188.5,-150.6043 188.5,-142.0759"/>
<polygon fill="#191970" stroke="#191970" points="192.0001,-141.8469 188.5,-131.8469 185.0001,-141.847 192.0001,-141.8469"/>
</g>
<!-- Node9 -->
<g id="node10" class="node">
<title>Node9</title>
<g id="a_node10"><a xlink:href="mma7660_8h.html" target="_top" xlink:title="Interface definition for the MMA7660 accelerometer driver. ">
<polygon fill="#ffffff" stroke="#000000" points="272,-112.5 272,-131.5 345,-131.5 345,-112.5 272,-112.5"/>
<text text-anchor="middle" x="308.5" y="-119.5" font-family="Helvetica,sans-Serif" font-size="10.00" fill="#000000">mma7660.h</text>
</a>
</g>
</g>
<!-- Node0&#45;&gt;Node9 -->
<g id="edge10" class="edge">
<title>Node0&#45;&gt;Node9</title>
<path fill="none" stroke="#191970" d="M217.8553,-168.4554C237.0873,-158.599 262.0612,-145.7999 280.9241,-136.1327"/>
<polygon fill="#191970" stroke="#191970" points="282.6013,-139.206 289.9043,-131.5303 279.4086,-132.9765 282.6013,-139.206"/>
</g>
<!-- Node3 -->
<g id="node4" class="node">
<title>Node3</title>
<polygon fill="#ffffff" stroke="#bfbfbf" points="244.5,-.5 244.5,-19.5 296.5,-19.5 296.5,-.5 244.5,-.5"/>
<text text-anchor="middle" x="270.5" y="-7.5" font-family="Helvetica,sans-Serif" font-size="10.00" fill="#000000">stdint.h</text>
</g>
<!-- Node2&#45;&gt;Node3 -->
<g id="edge3" class="edge">
<title>Node2&#45;&gt;Node3</title>
<path fill="none" stroke="#191970" d="M195.4913,-112.4509C209.2284,-93.688 239.9296,-51.7548 257.4986,-27.758"/>
<polygon fill="#191970" stroke="#191970" points="260.443,-29.6611 263.5264,-19.5249 254.795,-25.5259 260.443,-29.6611"/>
</g>
<!-- Node4 -->
<g id="node5" class="node">
<title>Node4</title>
<polygon fill="#ffffff" stroke="#bfbfbf" points="166.5,-56.5 166.5,-75.5 210.5,-75.5 210.5,-56.5 166.5,-56.5"/>
<text text-anchor="middle" x="188.5" y="-63.5" font-family="Helvetica,sans-Serif" font-size="10.00" fill="#000000">saul.h</text>
</g>
<!-- Node2&#45;&gt;Node4 -->
<g id="edge4" class="edge">
<title>Node2&#45;&gt;Node4</title>
<path fill="none" stroke="#191970" d="M188.5,-112.2455C188.5,-104.9382 188.5,-94.6944 188.5,-85.7046"/>
<polygon fill="#191970" stroke="#191970" points="192.0001,-85.6426 188.5,-75.6427 185.0001,-85.6427 192.0001,-85.6426"/>
</g>
<!-- Node5 -->
<g id="node6" class="node">
<title>Node5</title>
<g id="a_node6"><a xlink:href="phydat_8h.html" target="_top" xlink:title="Generic data container for physical data interface. ">
<polygon fill="#ffffff" stroke="#000000" points="90.5,-56.5 90.5,-75.5 148.5,-75.5 148.5,-56.5 90.5,-56.5"/>
<text text-anchor="middle" x="119.5" y="-63.5" font-family="Helvetica,sans-Serif" font-size="10.00" fill="#000000">phydat.h</text>
</a>
</g>
</g>
<!-- Node2&#45;&gt;Node5 -->
<g id="edge5" class="edge">
<title>Node2&#45;&gt;Node5</title>
<path fill="none" stroke="#191970" d="M176.4811,-112.2455C166.2902,-103.9746 151.4638,-91.9416 139.4893,-82.2232"/>
<polygon fill="#191970" stroke="#191970" points="141.3514,-79.2268 131.3812,-75.6427 136.9402,-84.662 141.3514,-79.2268"/>
</g>
<!-- Node5&#45;&gt;Node3 -->
<g id="edge7" class="edge">
<title>Node5&#45;&gt;Node3</title>
<path fill="none" stroke="#191970" d="M145.4578,-56.3733C170.2407,-47.1822 207.7746,-33.2624 235.254,-23.0713"/>
<polygon fill="#191970" stroke="#191970" points="236.7219,-26.26 244.8809,-19.5011 234.2879,-19.6968 236.7219,-26.26"/>
</g>
<!-- Node6 -->
<g id="node7" class="node">
<title>Node6</title>
<polygon fill="#ffffff" stroke="#bfbfbf" points="170.5,-.5 170.5,-19.5 226.5,-19.5 226.5,-.5 170.5,-.5"/>
<text text-anchor="middle" x="198.5" y="-7.5" font-family="Helvetica,sans-Serif" font-size="10.00" fill="#000000">stddef.h</text>
</g>
<!-- Node5&#45;&gt;Node6 -->
<g id="edge6" class="edge">
<title>Node5&#45;&gt;Node6</title>
<path fill="none" stroke="#191970" d="M133.2607,-56.2455C145.1552,-47.814 162.565,-35.4729 176.4085,-25.6598"/>
<polygon fill="#191970" stroke="#191970" points="178.7628,-28.2811 184.8969,-19.6427 174.7146,-22.5704 178.7628,-28.2811"/>
</g>
<!-- Node7 -->
<g id="node8" class="node">
<title>Node7</title>
<polygon fill="#ffffff" stroke="#bfbfbf" points="0,-.5 0,-19.5 69,-19.5 69,-.5 0,-.5"/>
<text text-anchor="middle" x="34.5" y="-7.5" font-family="Helvetica,sans-Serif" font-size="10.00" fill="#000000">sys/types.h</text>
</g>
<!-- Node5&#45;&gt;Node7 -->
<g id="edge8" class="edge">
<title>Node5&#45;&gt;Node7</title>
<path fill="none" stroke="#191970" d="M104.6941,-56.2455C91.7744,-47.7337 72.8069,-35.2375 57.8448,-25.3801"/>
<polygon fill="#191970" stroke="#191970" points="59.4124,-22.2216 49.1362,-19.6427 55.5613,-28.067 59.4124,-22.2216"/>
</g>
<!-- Node8 -->
<g id="node9" class="node">
<title>Node8</title>
<g id="a_node9"><a xlink:href="modules_8h.html" target="_top" xlink:title="Common macros and compiler attributes/pragmas configuration. ">
<polygon fill="#ffffff" stroke="#000000" points="87,-.5 87,-19.5 152,-19.5 152,-.5 87,-.5"/>
<text text-anchor="middle" x="119.5" y="-7.5" font-family="Helvetica,sans-Serif" font-size="10.00" fill="#000000">modules.h</text>
</a>
</g>
</g>
<!-- Node5&#45;&gt;Node8 -->
<g id="edge9" class="edge">
<title>Node5&#45;&gt;Node8</title>
<path fill="none" stroke="#191970" d="M119.5,-56.2455C119.5,-48.9382 119.5,-38.6944 119.5,-29.7046"/>
<polygon fill="#191970" stroke="#191970" points="123.0001,-29.6426 119.5,-19.6427 116.0001,-29.6427 123.0001,-29.6426"/>
</g>
<!-- Node9&#45;&gt;Node3 -->
<g id="edge11" class="edge">
<title>Node9&#45;&gt;Node3</title>
<path fill="none" stroke="#191970" d="M305.2601,-112.4509C299.0063,-94.0186 285.1658,-53.2254 276.961,-29.043"/>
<polygon fill="#191970" stroke="#191970" points="280.2591,-27.8701 273.7317,-19.5249 273.6303,-30.1192 280.2591,-27.8701"/>
</g>
<!-- Node10 -->
<g id="node11" class="node">
<title>Node10</title>
<polygon fill="#ffffff" stroke="#bfbfbf" points="396.5,-56.5 396.5,-75.5 456.5,-75.5 456.5,-56.5 396.5,-56.5"/>
<text text-anchor="middle" x="426.5" y="-63.5" font-family="Helvetica,sans-Serif" font-size="10.00" fill="#000000">stdbool.h</text>
</g>
<!-- Node9&#45;&gt;Node10 -->
<g id="edge12" class="edge">
<title>Node9&#45;&gt;Node10</title>
<path fill="none" stroke="#191970" d="M328.7849,-112.3733C347.6421,-103.4241 375.946,-89.9917 397.2455,-79.8835"/>
<polygon fill="#191970" stroke="#191970" points="398.9461,-82.9506 406.4798,-75.5011 395.9449,-76.6266 398.9461,-82.9506"/>
</g>
<!-- Node11 -->
<g id="node12" class="node">
<title>Node11</title>
<g id="a_node12"><a xlink:href="i2c_8h.html" target="_top" xlink:title="Low&#45;level I2C peripheral driver interface definition. ">
<polygon fill="#ffffff" stroke="#000000" points="305,-56.5 305,-75.5 378,-75.5 378,-56.5 305,-56.5"/>
<text text-anchor="middle" x="341.5" y="-63.5" font-family="Helvetica,sans-Serif" font-size="10.00" fill="#000000">periph/i2c.h</text>
</a>
</g>
</g>
<!-- Node9&#45;&gt;Node11 -->
<g id="edge13" class="edge">
<title>Node9&#45;&gt;Node11</title>
<path fill="none" stroke="#191970" d="M314.2482,-112.2455C318.7435,-104.617 325.1248,-93.7881 330.5825,-84.5267"/>
<polygon fill="#191970" stroke="#191970" points="333.7561,-86.035 335.8177,-75.6427 327.7253,-82.4811 333.7561,-86.035"/>
</g>
<!-- Node11&#45;&gt;Node3 -->
<g id="edge14" class="edge">
<title>Node11&#45;&gt;Node3</title>
<path fill="none" stroke="#191970" d="M329.1327,-56.2455C318.5446,-47.8943 303.0936,-35.7076 290.7107,-25.9408"/>
<polygon fill="#191970" stroke="#191970" points="292.7447,-23.0875 282.7255,-19.6427 288.4097,-28.5837 292.7447,-23.0875"/>
</g>
<!-- Node11&#45;&gt;Node6 -->
<g id="edge15" class="edge">
<title>Node11&#45;&gt;Node6</title>
<path fill="none" stroke="#191970" d="M316.9174,-56.3733C293.5504,-47.2226 258.2138,-33.3844 232.2216,-23.2057"/>
<polygon fill="#191970" stroke="#191970" points="233.3495,-19.8886 222.7618,-19.5011 230.797,-26.4066 233.3495,-19.8886"/>
</g>
<!-- Node12 -->
<g id="node13" class="node">
<title>Node12</title>
<polygon fill="#ffffff" stroke="#bfbfbf" points="314.5,-.5 314.5,-19.5 364.5,-19.5 364.5,-.5 314.5,-.5"/>
<text text-anchor="middle" x="339.5" y="-7.5" font-family="Helvetica,sans-Serif" font-size="10.00" fill="#000000">limits.h</text>
</g>
<!-- Node11&#45;&gt;Node12 -->
<g id="edge16" class="edge">
<title>Node11&#45;&gt;Node12</title>
<path fill="none" stroke="#191970" d="M341.1516,-56.2455C340.8907,-48.9382 340.5248,-38.6944 340.2037,-29.7046"/>
<polygon fill="#191970" stroke="#191970" points="343.6992,-29.5113 339.8444,-19.6427 336.7036,-29.7613 343.6992,-29.5113"/>
</g>
<!-- Node13 -->
<g id="node14" class="node">
<title>Node13</title>
<polygon fill="#ffffff" stroke="#bfbfbf" points="383,-.5 383,-19.5 464,-19.5 464,-.5 383,-.5"/>
<text text-anchor="middle" x="423.5" y="-7.5" font-family="Helvetica,sans-Serif" font-size="10.00" fill="#000000">periph_conf.h</text>
</g>
<!-- Node11&#45;&gt;Node13 -->
<g id="edge17" class="edge">
<title>Node11&#45;&gt;Node13</title>
<path fill="none" stroke="#191970" d="M355.7833,-56.2455C368.247,-47.7337 386.5451,-35.2375 400.9792,-25.3801"/>
<polygon fill="#191970" stroke="#191970" points="403.0962,-28.1726 409.3804,-19.6427 399.1485,-22.392 403.0962,-28.1726"/>
</g>
<!-- Node14 -->
<g id="node15" class="node">
<title>Node14</title>
<polygon fill="#ffffff" stroke="#bfbfbf" points="482,-.5 482,-19.5 559,-19.5 559,-.5 482,-.5"/>
<text text-anchor="middle" x="520.5" y="-7.5" font-family="Helvetica,sans-Serif" font-size="10.00" fill="#000000">periph_cpu.h</text>
</g>
<!-- Node11&#45;&gt;Node14 -->
<g id="edge18" class="edge">
<title>Node11&#45;&gt;Node14</title>
<path fill="none" stroke="#191970" d="M372.2712,-56.3733C402.165,-47.021 447.7093,-32.7725 480.4217,-22.5385"/>
<polygon fill="#191970" stroke="#191970" points="481.6315,-25.8273 490.1303,-19.5011 479.5414,-19.1466 481.6315,-25.8273"/>
</g>
</g>
</svg>
