<?xml version="1.0" encoding="UTF-8" standalone="no"?>
<!DOCTYPE svg PUBLIC "-//W3C//DTD SVG 1.1//EN"
 "http://www.w3.org/Graphics/SVG/1.1/DTD/svg11.dtd">
<!-- Generated by graphviz version 2.40.1 (0)
 -->
<!-- Title: drivers/mpl3115a2/include/mpl3115a2_params.h Pages: 1 -->
<svg width="567pt" height="207pt"
 viewBox="0.00 0.00 567.00 207.00" xmlns="http://www.w3.org/2000/svg" xmlns:xlink="http://www.w3.org/1999/xlink">
<g id="graph0" class="graph" transform="scale(1 1) rotate(0) translate(4 203)">
<title>drivers/mpl3115a2/include/mpl3115a2_params.h</title>
<polygon fill="#ffffff" stroke="transparent" points="-4,4 -4,-203 563,-203 563,4 -4,4"/>
<!-- Node0 -->
<g id="node1" class="node">
<title>Node0</title>
<polygon fill="#bfbfbf" stroke="#000000" points="187,-168.5 187,-198.5 330,-198.5 330,-168.5 187,-168.5"/>
<text text-anchor="start" x="195" y="-186.5" font-family="Helvetica,sans-Serif" font-size="10.00" fill="#000000">drivers/mpl3115a2/include</text>
<text text-anchor="middle" x="258.5" y="-175.5" font-family="Helvetica,sans-Serif" font-size="10.00" fill="#000000">/mpl3115a2_params.h</text>
</g>
<!-- Node1 -->
<g id="node2" class="node">
<title>Node1</title>
<polygon fill="#ffffff" stroke="#bfbfbf" points="110,-112.5 110,-131.5 163,-131.5 163,-112.5 110,-112.5"/>
<text text-anchor="middle" x="136.5" y="-119.5" font-family="Helvetica,sans-Serif" font-size="10.00" fill="#000000">board.h</text>
</g>
<!-- Node0&#45;&gt;Node1 -->
<g id="edge1" class="edge">
<title>Node0&#45;&gt;Node1</title>
<path fill="none" stroke="#191970" d="M228.6554,-168.4554C209.103,-158.599 183.7128,-145.7999 164.5355,-136.1327"/>
<polygon fill="#191970" stroke="#191970" points="165.9108,-132.9064 155.4057,-131.5303 162.7598,-139.1571 165.9108,-132.9064"/>
</g>
<!-- Node2 -->
<g id="node3" class="node">
<title>Node2</title>
<g id="a_node3"><a xlink:href="saul__reg_8h.html" target="_top" xlink:title="SAUL registry interface definition. ">
<polygon fill="#ffffff" stroke="#000000" points="181,-112.5 181,-131.5 246,-131.5 246,-112.5 181,-112.5"/>
<text text-anchor="middle" x="213.5" y="-119.5" font-family="Helvetica,sans-Serif" font-size="10.00" fill="#000000">saul_reg.h</text>
</a>
</g>
</g>
<!-- Node0&#45;&gt;Node2 -->
<g id="edge2" class="edge">
<title>Node0&#45;&gt;Node2</title>
<path fill="none" stroke="#191970" d="M247.3764,-168.2977C241.1299,-159.7609 233.296,-149.0545 226.7353,-140.0883"/>
<polygon fill="#191970" stroke="#191970" points="229.4348,-137.8505 220.7051,-131.8469 223.7856,-141.984 229.4348,-137.8505"/>
</g>
<!-- Node9 -->
<g id="node10" class="node">
<title>Node9</title>
<g id="a_node10"><a xlink:href="mpl3115a2_8h.html" target="_top" xlink:title="Interface definition for the MPL3115A2 sensor driver. ">
<polygon fill="#ffffff" stroke="#000000" points="264.5,-112.5 264.5,-131.5 342.5,-131.5 342.5,-112.5 264.5,-112.5"/>
<text text-anchor="middle" x="303.5" y="-119.5" font-family="Helvetica,sans-Serif" font-size="10.00" fill="#000000">mpl3115a2.h</text>
</a>
</g>
</g>
<!-- Node0&#45;&gt;Node9 -->
<g id="edge10" class="edge">
<title>Node0&#45;&gt;Node9</title>
<path fill="none" stroke="#191970" d="M269.6236,-168.2977C275.8701,-159.7609 283.704,-149.0545 290.2647,-140.0883"/>
<polygon fill="#191970" stroke="#191970" points="293.2144,-141.984 296.2949,-131.8469 287.5652,-137.8505 293.2144,-141.984"/>
</g>
<!-- Node15 -->
<g id="node16" class="node">
<title>Node15</title>
<g id="a_node16"><a xlink:href="mpl3115a2__reg_8h.html" target="_top" xlink:title="Register definition for the MPL3115A2 sensor driver. ">
<polygon fill="#ffffff" stroke="#000000" points="361,-112.5 361,-131.5 460,-131.5 460,-112.5 361,-112.5"/>
<text text-anchor="middle" x="410.5" y="-119.5" font-family="Helvetica,sans-Serif" font-size="10.00" fill="#000000">mpl3115a2_reg.h</text>
</a>
</g>
</g>
<!-- Node0&#45;&gt;Node15 -->
<g id="edge19" class="edge">
<title>Node0&#45;&gt;Node15</title>
<path fill="none" stroke="#191970" d="M295.6834,-168.4554C320.7113,-158.329 353.4163,-145.0964 377.5166,-135.3453"/>
<polygon fill="#191970" stroke="#191970" points="378.9882,-138.5256 386.9454,-131.5303 376.3627,-132.0366 378.9882,-138.5256"/>
</g>
<!-- Node3 -->
<g id="node4" class="node">
<title>Node3</title>
<polygon fill="#ffffff" stroke="#bfbfbf" points="244.5,-.5 244.5,-19.5 296.5,-19.5 296.5,-.5 244.5,-.5"/>
<text text-anchor="middle" x="270.5" y="-7.5" font-family="Helvetica,sans-Serif" font-size="10.00" fill="#000000">stdint.h</text>
</g>
<!-- Node2&#45;&gt;Node3 -->
<g id="edge3" class="edge">
<title>Node2&#45;&gt;Node3</title>
<path fill="none" stroke="#191970" d="M218.3598,-112.4509C227.7826,-93.936 248.6878,-52.8591 260.9735,-28.7187"/>
<polygon fill="#191970" stroke="#191970" points="264.2361,-30.0246 265.6525,-19.5249 257.9975,-26.8496 264.2361,-30.0246"/>
</g>
<!-- Node4 -->
<g id="node5" class="node">
<title>Node4</title>
<polygon fill="#ffffff" stroke="#bfbfbf" points="166.5,-56.5 166.5,-75.5 210.5,-75.5 210.5,-56.5 166.5,-56.5"/>
<text text-anchor="middle" x="188.5" y="-63.5" font-family="Helvetica,sans-Serif" font-size="10.00" fill="#000000">saul.h</text>
</g>
<!-- Node2&#45;&gt;Node4 -->
<g id="edge4" class="edge">
<title>Node2&#45;&gt;Node4</title>
<path fill="none" stroke="#191970" d="M209.1453,-112.2455C205.7756,-104.6973 201.007,-94.0158 196.9017,-84.8197"/>
<polygon fill="#191970" stroke="#191970" points="200.0773,-83.3473 192.8048,-75.6427 193.6853,-86.2009 200.0773,-83.3473"/>
</g>
<!-- Node5 -->
<g id="node6" class="node">
<title>Node5</title>
<g id="a_node6"><a xlink:href="phydat_8h.html" target="_top" xlink:title="Generic data container for physical data interface. ">
<polygon fill="#ffffff" stroke="#000000" points="90.5,-56.5 90.5,-75.5 148.5,-75.5 148.5,-56.5 90.5,-56.5"/>
<text text-anchor="middle" x="119.5" y="-63.5" font-family="Helvetica,sans-Serif" font-size="10.00" fill="#000000">phydat.h</text>
</a>
</g>
</g>
<!-- Node2&#45;&gt;Node5 -->
<g id="edge5" class="edge">
<title>Node2&#45;&gt;Node5</title>
<path fill="none" stroke="#191970" d="M197.1264,-112.2455C182.5692,-103.5731 161.069,-90.7645 144.3848,-80.825"/>
<polygon fill="#191970" stroke="#191970" points="146.0683,-77.7539 135.6859,-75.6427 142.4856,-83.7676 146.0683,-77.7539"/>
</g>
<!-- Node5&#45;&gt;Node3 -->
<g id="edge7" class="edge">
<title>Node5&#45;&gt;Node3</title>
<path fill="none" stroke="#191970" d="M145.4578,-56.3733C170.2407,-47.1822 207.7746,-33.2624 235.254,-23.0713"/>
<polygon fill="#191970" stroke="#191970" points="236.7219,-26.26 244.8809,-19.5011 234.2879,-19.6968 236.7219,-26.26"/>
</g>
<!-- Node6 -->
<g id="node7" class="node">
<title>Node6</title>
<polygon fill="#ffffff" stroke="#bfbfbf" points="170.5,-.5 170.5,-19.5 226.5,-19.5 226.5,-.5 170.5,-.5"/>
<text text-anchor="middle" x="198.5" y="-7.5" font-family="Helvetica,sans-Serif" font-size="10.00" fill="#000000">stddef.h</text>
</g>
<!-- Node5&#45;&gt;Node6 -->
<g id="edge6" class="edge">
<title>Node5&#45;&gt;Node6</title>
<path fill="none" stroke="#191970" d="M133.2607,-56.2455C145.1552,-47.814 162.565,-35.4729 176.4085,-25.6598"/>
<polygon fill="#191970" stroke="#191970" points="178.7628,-28.2811 184.8969,-19.6427 174.7146,-22.5704 178.7628,-28.2811"/>
</g>
<!-- Node7 -->
<g id="node8" class="node">
<title>Node7</title>
<polygon fill="#ffffff" stroke="#bfbfbf" points="0,-.5 0,-19.5 69,-19.5 69,-.5 0,-.5"/>
<text text-anchor="middle" x="34.5" y="-7.5" font-family="Helvetica,sans-Serif" font-size="10.00" fill="#000000">sys/types.h</text>
</g>
<!-- Node5&#45;&gt;Node7 -->
<g id="edge8" class="edge">
<title>Node5&#45;&gt;Node7</title>
<path fill="none" stroke="#191970" d="M104.6941,-56.2455C91.7744,-47.7337 72.8069,-35.2375 57.8448,-25.3801"/>
<polygon fill="#191970" stroke="#191970" points="59.4124,-22.2216 49.1362,-19.6427 55.5613,-28.067 59.4124,-22.2216"/>
</g>
<!-- Node8 -->
<g id="node9" class="node">
<title>Node8</title>
<g id="a_node9"><a xlink:href="modules_8h.html" target="_top" xlink:title="Common macros and compiler attributes/pragmas configuration. ">
<polygon fill="#ffffff" stroke="#000000" points="87,-.5 87,-19.5 152,-19.5 152,-.5 87,-.5"/>
<text text-anchor="middle" x="119.5" y="-7.5" font-family="Helvetica,sans-Serif" font-size="10.00" fill="#000000">modules.h</text>
</a>
</g>
</g>
<!-- Node5&#45;&gt;Node8 -->
<g id="edge9" class="edge">
<title>Node5&#45;&gt;Node8</title>
<path fill="none" stroke="#191970" d="M119.5,-56.2455C119.5,-48.9382 119.5,-38.6944 119.5,-29.7046"/>
<polygon fill="#191970" stroke="#191970" points="123.0001,-29.6426 119.5,-19.6427 116.0001,-29.6427 123.0001,-29.6426"/>
</g>
<!-- Node9&#45;&gt;Node3 -->
<g id="edge11" class="edge">
<title>Node9&#45;&gt;Node3</title>
<path fill="none" stroke="#191970" d="M300.6864,-112.4509C295.2798,-94.1013 283.3437,-53.5908 276.207,-29.3693"/>
<polygon fill="#191970" stroke="#191970" points="279.4901,-28.128 273.3064,-19.5249 272.7755,-30.1064 279.4901,-28.128"/>
</g>
<!-- Node10 -->
<g id="node11" class="node">
<title>Node10</title>
<polygon fill="#ffffff" stroke="#bfbfbf" points="396.5,-56.5 396.5,-75.5 456.5,-75.5 456.5,-56.5 396.5,-56.5"/>
<text text-anchor="middle" x="426.5" y="-63.5" font-family="Helvetica,sans-Serif" font-size="10.00" fill="#000000">stdbool.h</text>
</g>
<!-- Node9&#45;&gt;Node10 -->
<g id="edge12" class="edge">
<title>Node9&#45;&gt;Node10</title>
<path fill="none" stroke="#191970" d="M324.6445,-112.3733C344.3892,-103.3838 374.0698,-89.8706 396.3055,-79.7471"/>
<polygon fill="#191970" stroke="#191970" points="397.9806,-82.8302 405.6315,-75.5011 395.08,-76.4594 397.9806,-82.8302"/>
</g>
<!-- Node11 -->
<g id="node12" class="node">
<title>Node11</title>
<g id="a_node12"><a xlink:href="i2c_8h.html" target="_top" xlink:title="Low&#45;level I2C peripheral driver interface definition. ">
<polygon fill="#ffffff" stroke="#000000" points="305,-56.5 305,-75.5 378,-75.5 378,-56.5 305,-56.5"/>
<text text-anchor="middle" x="341.5" y="-63.5" font-family="Helvetica,sans-Serif" font-size="10.00" fill="#000000">periph/i2c.h</text>
</a>
</g>
</g>
<!-- Node9&#45;&gt;Node11 -->
<g id="edge13" class="edge">
<title>Node9&#45;&gt;Node11</title>
<path fill="none" stroke="#191970" d="M310.1191,-112.2455C315.4046,-104.4564 322.9541,-93.3308 329.3238,-83.9439"/>
<polygon fill="#191970" stroke="#191970" points="332.2379,-85.8827 334.9568,-75.6427 326.4455,-81.9522 332.2379,-85.8827"/>
</g>
<!-- Node11&#45;&gt;Node3 -->
<g id="edge14" class="edge">
<title>Node11&#45;&gt;Node3</title>
<path fill="none" stroke="#191970" d="M329.1327,-56.2455C318.5446,-47.8943 303.0936,-35.7076 290.7107,-25.9408"/>
<polygon fill="#191970" stroke="#191970" points="292.7447,-23.0875 282.7255,-19.6427 288.4097,-28.5837 292.7447,-23.0875"/>
</g>
<!-- Node11&#45;&gt;Node6 -->
<g id="edge15" class="edge">
<title>Node11&#45;&gt;Node6</title>
<path fill="none" stroke="#191970" d="M316.9174,-56.3733C293.5504,-47.2226 258.2138,-33.3844 232.2216,-23.2057"/>
<polygon fill="#191970" stroke="#191970" points="233.3495,-19.8886 222.7618,-19.5011 230.797,-26.4066 233.3495,-19.8886"/>
</g>
<!-- Node12 -->
<g id="node13" class="node">
<title>Node12</title>
<polygon fill="#ffffff" stroke="#bfbfbf" points="314.5,-.5 314.5,-19.5 364.5,-19.5 364.5,-.5 314.5,-.5"/>
<text text-anchor="middle" x="339.5" y="-7.5" font-family="Helvetica,sans-Serif" font-size="10.00" fill="#000000">limits.h</text>
</g>
<!-- Node11&#45;&gt;Node12 -->
<g id="edge16" class="edge">
<title>Node11&#45;&gt;Node12</title>
<path fill="none" stroke="#191970" d="M341.1516,-56.2455C340.8907,-48.9382 340.5248,-38.6944 340.2037,-29.7046"/>
<polygon fill="#191970" stroke="#191970" points="343.6992,-29.5113 339.8444,-19.6427 336.7036,-29.7613 343.6992,-29.5113"/>
</g>
<!-- Node13 -->
<g id="node14" class="node">
<title>Node13</title>
<polygon fill="#ffffff" stroke="#bfbfbf" points="383,-.5 383,-19.5 464,-19.5 464,-.5 383,-.5"/>
<text text-anchor="middle" x="423.5" y="-7.5" font-family="Helvetica,sans-Serif" font-size="10.00" fill="#000000">periph_conf.h</text>
</g>
<!-- Node11&#45;&gt;Node13 -->
<g id="edge17" class="edge">
<title>Node11&#45;&gt;Node13</title>
<path fill="none" stroke="#191970" d="M355.7833,-56.2455C368.247,-47.7337 386.5451,-35.2375 400.9792,-25.3801"/>
<polygon fill="#191970" stroke="#191970" points="403.0962,-28.1726 409.3804,-19.6427 399.1485,-22.392 403.0962,-28.1726"/>
</g>
<!-- Node14 -->
<g id="node15" class="node">
<title>Node14</title>
<polygon fill="#ffffff" stroke="#bfbfbf" points="482,-.5 482,-19.5 559,-19.5 559,-.5 482,-.5"/>
<text text-anchor="middle" x="520.5" y="-7.5" font-family="Helvetica,sans-Serif" font-size="10.00" fill="#000000">periph_cpu.h</text>
</g>
<!-- Node11&#45;&gt;Node14 -->
<g id="edge18" class="edge">
<title>Node11&#45;&gt;Node14</title>
<path fill="none" stroke="#191970" d="M372.2712,-56.3733C402.165,-47.021 447.7093,-32.7725 480.4217,-22.5385"/>
<polygon fill="#191970" stroke="#191970" points="481.6315,-25.8273 490.1303,-19.5011 479.5414,-19.1466 481.6315,-25.8273"/>
</g>
</g>
</svg>
