<?xml version="1.0" encoding="UTF-8" standalone="no"?>
<!DOCTYPE svg PUBLIC "-//W3C//DTD SVG 1.1//EN"
 "http://www.w3.org/Graphics/SVG/1.1/DTD/svg11.dtd">
<!-- Generated by graphviz version 2.40.1 (0)
 -->
<!-- Title: drivers/include/mrf24j40.h Pages: 1 -->
<svg width="1546pt" height="420pt"
 viewBox="0.00 0.00 1545.50 420.00" xmlns="http://www.w3.org/2000/svg" xmlns:xlink="http://www.w3.org/1999/xlink">
<g id="graph0" class="graph" transform="scale(1 1) rotate(0) translate(4 416)">
<title>drivers/include/mrf24j40.h</title>
<polygon fill="#ffffff" stroke="transparent" points="-4,4 -4,-416 1541.5,-416 1541.5,4 -4,4"/>
<!-- Node0 -->
<g id="node1" class="node">
<title>Node0</title>
<polygon fill="#bfbfbf" stroke="#000000" points="236.5,-392.5 236.5,-411.5 379.5,-411.5 379.5,-392.5 236.5,-392.5"/>
<text text-anchor="middle" x="308" y="-399.5" font-family="Helvetica,sans-Serif" font-size="10.00" fill="#000000">drivers/include/mrf24j40.h</text>
</g>
<!-- Node1 -->
<g id="node2" class="node">
<title>Node1</title>
<polygon fill="#ffffff" stroke="#bfbfbf" points="749,-.5 749,-19.5 801,-19.5 801,-.5 749,-.5"/>
<text text-anchor="middle" x="775" y="-7.5" font-family="Helvetica,sans-Serif" font-size="10.00" fill="#000000">stdint.h</text>
</g>
<!-- Node0&#45;&gt;Node1 -->
<g id="edge1" class="edge">
<title>Node0&#45;&gt;Node1</title>
<path fill="none" stroke="#191970" d="M236.4968,-392.5401C177.6234,-383.9455 99.3959,-370.4353 71,-356 32.5941,-336.476 0,-333.0836 0,-290 0,-290 0,-290 0,-122 0,-46.4097 584.9768,-17.6261 738.4778,-11.3744"/>
<polygon fill="#191970" stroke="#191970" points="738.9181,-14.8597 748.7703,-10.9628 738.6384,-7.8652 738.9181,-14.8597"/>
</g>
<!-- Node2 -->
<g id="node3" class="node">
<title>Node2</title>
<polygon fill="#ffffff" stroke="#bfbfbf" points="80.5,-336.5 80.5,-355.5 133.5,-355.5 133.5,-336.5 80.5,-336.5"/>
<text text-anchor="middle" x="107" y="-343.5" font-family="Helvetica,sans-Serif" font-size="10.00" fill="#000000">board.h</text>
</g>
<!-- Node0&#45;&gt;Node2 -->
<g id="edge2" class="edge">
<title>Node0&#45;&gt;Node2</title>
<path fill="none" stroke="#191970" d="M273.4469,-392.3733C237.2298,-382.2829 180.5556,-366.4931 143.5923,-356.1949"/>
<polygon fill="#191970" stroke="#191970" points="144.2954,-352.7575 133.7229,-353.4452 142.4166,-359.5007 144.2954,-352.7575"/>
</g>
<!-- Node3 -->
<g id="node4" class="node">
<title>Node3</title>
<g id="a_node4"><a xlink:href="spi_8h.html" target="_top" xlink:title="Low&#45;level SPI peripheral driver interface definition. ">
<polygon fill="#ffffff" stroke="#000000" points="190.5,-224.5 190.5,-243.5 263.5,-243.5 263.5,-224.5 190.5,-224.5"/>
<text text-anchor="middle" x="227" y="-231.5" font-family="Helvetica,sans-Serif" font-size="10.00" fill="#000000">periph/spi.h</text>
</a>
</g>
</g>
<!-- Node0&#45;&gt;Node3 -->
<g id="edge3" class="edge">
<title>Node0&#45;&gt;Node3</title>
<path fill="none" stroke="#191970" d="M303.413,-392.4862C290.4979,-365.6994 253.6415,-289.2565 236.2711,-253.2289"/>
<polygon fill="#191970" stroke="#191970" points="239.2342,-251.3155 231.7384,-243.8279 232.9288,-254.3556 239.2342,-251.3155"/>
</g>
<!-- Node10 -->
<g id="node11" class="node">
<title>Node10</title>
<g id="a_node11"><a xlink:href="drivers_2include_2periph_2gpio_8h.html" target="_top" xlink:title="Low&#45;level GPIO peripheral driver interface definitions. ">
<polygon fill="#ffffff" stroke="#000000" points="151,-168.5 151,-187.5 231,-187.5 231,-168.5 151,-168.5"/>
<text text-anchor="middle" x="191" y="-175.5" font-family="Helvetica,sans-Serif" font-size="10.00" fill="#000000">periph/gpio.h</text>
</a>
</g>
</g>
<!-- Node0&#45;&gt;Node10 -->
<g id="edge17" class="edge">
<title>Node0&#45;&gt;Node10</title>
<path fill="none" stroke="#191970" d="M296.1858,-392.4944C269.386,-370.0728 204.4921,-310.724 181,-244 175.6551,-228.8191 179.0521,-210.686 183.2792,-197.2713"/>
<polygon fill="#191970" stroke="#191970" points="186.6403,-198.2658 186.6962,-187.6711 180.0456,-195.9185 186.6403,-198.2658"/>
</g>
<!-- Node12 -->
<g id="node13" class="node">
<title>Node12</title>
<g id="a_node13"><a xlink:href="drivers_2include_2net_2netdev_8h.html" target="_top" xlink:title="Definitions low&#45;level network driver interface. ">
<polygon fill="#ffffff" stroke="#000000" points="743.5,-224.5 743.5,-243.5 820.5,-243.5 820.5,-224.5 743.5,-224.5"/>
<text text-anchor="middle" x="782" y="-231.5" font-family="Helvetica,sans-Serif" font-size="10.00" fill="#000000">net/netdev.h</text>
</a>
</g>
</g>
<!-- Node0&#45;&gt;Node12 -->
<g id="edge18" class="edge">
<title>Node0&#45;&gt;Node12</title>
<path fill="none" stroke="#191970" d="M379.8352,-398.237C481.506,-392.1984 661.8222,-378.6639 723,-356 764.3837,-340.669 784.3935,-339.026 805,-300 813.102,-284.6558 804.9759,-265.8602 796.2235,-252.2568"/>
<polygon fill="#191970" stroke="#191970" points="798.8726,-249.9395 790.2559,-243.7749 793.1476,-253.9674 798.8726,-249.9395"/>
</g>
<!-- Node23 -->
<g id="node24" class="node">
<title>Node23</title>
<g id="a_node24"><a xlink:href="drivers_2include_2net_2netdev_2ieee802154_8h.html" target="_top" xlink:title="Definitions for netdev common IEEE 802.15.4 code. ">
<polygon fill="#ffffff" stroke="#000000" points="576,-336.5 576,-355.5 714,-355.5 714,-336.5 576,-336.5"/>
<text text-anchor="middle" x="645" y="-343.5" font-family="Helvetica,sans-Serif" font-size="10.00" fill="#000000">net/netdev/ieee802154.h</text>
</a>
</g>
</g>
<!-- Node0&#45;&gt;Node23 -->
<g id="edge42" class="edge">
<title>Node0&#45;&gt;Node23</title>
<path fill="none" stroke="#191970" d="M365.5495,-392.4369C424.3149,-382.6717 515.4913,-367.5207 577.5966,-357.2006"/>
<polygon fill="#191970" stroke="#191970" points="578.3969,-360.6157 587.6879,-355.5237 577.2494,-353.7103 578.3969,-360.6157"/>
</g>
<!-- Node33 -->
<g id="node34" class="node">
<title>Node33</title>
<g id="a_node34"><a xlink:href="nettype_8h.html" target="_top" xlink:title="Protocol type definitions. ">
<polygon fill="#ffffff" stroke="#000000" points="412.5,-280.5 412.5,-299.5 519.5,-299.5 519.5,-280.5 412.5,-280.5"/>
<text text-anchor="middle" x="466" y="-287.5" font-family="Helvetica,sans-Serif" font-size="10.00" fill="#000000">net/gnrc/nettype.h</text>
</a>
</g>
</g>
<!-- Node0&#45;&gt;Node33 -->
<g id="edge70" class="edge">
<title>Node0&#45;&gt;Node33</title>
<path fill="none" stroke="#191970" d="M321.471,-392.4509C348.7563,-373.1094 410.7754,-329.1465 444.0064,-305.5904"/>
<polygon fill="#191970" stroke="#191970" points="446.429,-308.1633 452.5631,-299.5249 442.3808,-302.4526 446.429,-308.1633"/>
</g>
<!-- Node37 -->
<g id="node38" class="node">
<title>Node37</title>
<g id="a_node38"><a xlink:href="radio_8h_source.html" target="_top" xlink:title="net/ieee802154/radio.h">
<polygon fill="#ffffff" stroke="#000000" points="1041.5,-280.5 1041.5,-299.5 1170.5,-299.5 1170.5,-280.5 1041.5,-280.5"/>
<text text-anchor="middle" x="1106" y="-287.5" font-family="Helvetica,sans-Serif" font-size="10.00" fill="#000000">net/ieee802154/radio.h</text>
</a>
</g>
</g>
<!-- Node0&#45;&gt;Node37 -->
<g id="edge71" class="edge">
<title>Node0&#45;&gt;Node37</title>
<path fill="none" stroke="#191970" d="M379.8777,-400.7417C488.2512,-397.8197 699.5834,-388.1259 876,-356 945.7232,-343.3032 1024.6593,-318.219 1069.5663,-302.8957"/>
<polygon fill="#191970" stroke="#191970" points="1070.8363,-306.1602 1079.1527,-299.5961 1068.558,-299.5413 1070.8363,-306.1602"/>
</g>
<!-- Node3&#45;&gt;Node1 -->
<g id="edge9" class="edge">
<title>Node3&#45;&gt;Node1</title>
<path fill="none" stroke="#191970" d="M236.2975,-224.2694C257.5204,-202.3987 311.7453,-148.4248 364,-112 407.388,-81.7558 418.7891,-72.6162 469,-56 563.1062,-24.8577 680.523,-14.7109 738.7592,-11.4724"/>
<polygon fill="#191970" stroke="#191970" points="739.1204,-14.9584 748.9255,-10.9446 738.7574,-7.9679 739.1204,-14.9584"/>
</g>
<!-- Node4 -->
<g id="node5" class="node">
<title>Node4</title>
<g id="a_node5"><a xlink:href="endian_8h.html" target="_top" xlink:title="libc header for endian conversion ">
<polygon fill="#ffffff" stroke="#000000" points="746.5,-56.5 746.5,-75.5 803.5,-75.5 803.5,-56.5 746.5,-56.5"/>
<text text-anchor="middle" x="775" y="-63.5" font-family="Helvetica,sans-Serif" font-size="10.00" fill="#000000">endian.h</text>
</a>
</g>
</g>
<!-- Node3&#45;&gt;Node4 -->
<g id="edge4" class="edge">
<title>Node3&#45;&gt;Node4</title>
<path fill="none" stroke="#191970" d="M191.4378,-224.4263C128.6258,-205.9284 9.0016,-162.6067 57,-112 107.2876,-58.9797 625.0174,-85.6977 736.2549,-75.4057"/>
<polygon fill="#191970" stroke="#191970" points="736.9904,-78.8424 746.4987,-74.1688 736.1512,-71.8928 736.9904,-78.8424"/>
</g>
<!-- Node5 -->
<g id="node6" class="node">
<title>Node5</title>
<g id="a_node6"><a xlink:href="errno_8h.html" target="_top" xlink:title="errno.h">
<polygon fill="#ffffff" stroke="#000000" points="767.5,-168.5 767.5,-187.5 820.5,-187.5 820.5,-168.5 767.5,-168.5"/>
<text text-anchor="middle" x="794" y="-175.5" font-family="Helvetica,sans-Serif" font-size="10.00" fill="#000000">errno.h</text>
</a>
</g>
</g>
<!-- Node3&#45;&gt;Node5 -->
<g id="edge6" class="edge">
<title>Node3&#45;&gt;Node5</title>
<path fill="none" stroke="#191970" d="M263.574,-225.5651C266.752,-224.9794 269.9265,-224.4457 273,-224 484.1055,-193.389 543.9547,-224.9638 757.4259,-187.9679"/>
<polygon fill="#191970" stroke="#191970" points="758.1383,-191.3963 767.3786,-186.213 756.9228,-184.5027 758.1383,-191.3963"/>
</g>
<!-- Node6 -->
<g id="node7" class="node">
<title>Node6</title>
<polygon fill="#ffffff" stroke="#bfbfbf" points="444,-112.5 444,-131.5 504,-131.5 504,-112.5 444,-112.5"/>
<text text-anchor="middle" x="474" y="-119.5" font-family="Helvetica,sans-Serif" font-size="10.00" fill="#000000">stdbool.h</text>
</g>
<!-- Node3&#45;&gt;Node6 -->
<g id="edge7" class="edge">
<title>Node3&#45;&gt;Node6</title>
<path fill="none" stroke="#191970" d="M263.8417,-225.566C305.2843,-215.7584 369.7169,-199.4538 392,-188 417.1898,-175.0521 441.934,-153.5915 457.5395,-138.6711"/>
<polygon fill="#191970" stroke="#191970" points="460.1224,-141.0406 464.8211,-131.5446 455.2262,-136.0378 460.1224,-141.0406"/>
</g>
<!-- Node7 -->
<g id="node8" class="node">
<title>Node7</title>
<polygon fill="#ffffff" stroke="#bfbfbf" points="1230,-.5 1230,-19.5 1286,-19.5 1286,-.5 1230,-.5"/>
<text text-anchor="middle" x="1258" y="-7.5" font-family="Helvetica,sans-Serif" font-size="10.00" fill="#000000">stddef.h</text>
</g>
<!-- Node3&#45;&gt;Node7 -->
<g id="edge8" class="edge">
<title>Node3&#45;&gt;Node7</title>
<path fill="none" stroke="#191970" d="M242.3896,-224.4505C286.9153,-196.8959 414.0373,-118.7776 435,-112 595.576,-60.0834 651.019,-123.3512 813,-76 831.6971,-70.5343 833.3524,-61.6325 852,-56 920.354,-35.3538 1132.2774,-18.7326 1219.6956,-12.5739"/>
<polygon fill="#191970" stroke="#191970" points="1219.9887,-16.062 1229.7211,-11.8751 1219.5019,-9.079 1219.9887,-16.062"/>
</g>
<!-- Node8 -->
<g id="node9" class="node">
<title>Node8</title>
<polygon fill="#ffffff" stroke="#bfbfbf" points="66.5,-112.5 66.5,-131.5 143.5,-131.5 143.5,-112.5 66.5,-112.5"/>
<text text-anchor="middle" x="105" y="-119.5" font-family="Helvetica,sans-Serif" font-size="10.00" fill="#000000">periph_cpu.h</text>
</g>
<!-- Node3&#45;&gt;Node8 -->
<g id="edge10" class="edge">
<title>Node3&#45;&gt;Node8</title>
<path fill="none" stroke="#191970" d="M200.7666,-224.38C182.5863,-216.6981 158.734,-204.4864 142,-188 128.4461,-174.6467 118.3851,-155.2756 112.2034,-140.9712"/>
<polygon fill="#191970" stroke="#191970" points="115.4047,-139.5522 108.3932,-131.6093 108.9211,-142.191 115.4047,-139.5522"/>
</g>
<!-- Node9 -->
<g id="node10" class="node">
<title>Node9</title>
<polygon fill="#ffffff" stroke="#bfbfbf" points="230.5,-112.5 230.5,-131.5 311.5,-131.5 311.5,-112.5 230.5,-112.5"/>
<text text-anchor="middle" x="271" y="-119.5" font-family="Helvetica,sans-Serif" font-size="10.00" fill="#000000">periph_conf.h</text>
</g>
<!-- Node3&#45;&gt;Node9 -->
<g id="edge11" class="edge">
<title>Node3&#45;&gt;Node9</title>
<path fill="none" stroke="#191970" d="M230.7514,-224.4509C237.9927,-206.0186 254.0186,-165.2254 263.5188,-141.043"/>
<polygon fill="#191970" stroke="#191970" points="266.8591,-142.1122 267.2581,-131.5249 260.3439,-139.5526 266.8591,-142.1122"/>
</g>
<!-- Node3&#45;&gt;Node10 -->
<g id="edge12" class="edge">
<title>Node3&#45;&gt;Node10</title>
<path fill="none" stroke="#191970" d="M220.7293,-224.2455C215.7736,-216.5367 208.717,-205.5598 202.7224,-196.2348"/>
<polygon fill="#191970" stroke="#191970" points="205.5506,-194.1618 197.1989,-187.6427 199.6624,-197.9471 205.5506,-194.1618"/>
</g>
<!-- Node4&#45;&gt;Node1 -->
<g id="edge5" class="edge">
<title>Node4&#45;&gt;Node1</title>
<path fill="none" stroke="#191970" d="M775,-56.2455C775,-48.9382 775,-38.6944 775,-29.7046"/>
<polygon fill="#191970" stroke="#191970" points="778.5001,-29.6426 775,-19.6427 771.5001,-29.6427 778.5001,-29.6426"/>
</g>
<!-- Node10&#45;&gt;Node6 -->
<g id="edge14" class="edge">
<title>Node10&#45;&gt;Node6</title>
<path fill="none" stroke="#191970" d="M231.2465,-170.036C285.1501,-159.3696 380.2214,-140.5569 433.9995,-129.9153"/>
<polygon fill="#191970" stroke="#191970" points="434.7303,-133.3386 443.8607,-127.964 433.3715,-126.4718 434.7303,-133.3386"/>
</g>
<!-- Node10&#45;&gt;Node8 -->
<g id="edge15" class="edge">
<title>Node10&#45;&gt;Node8</title>
<path fill="none" stroke="#191970" d="M176.0199,-168.2455C162.8249,-159.6534 143.3949,-147.0014 128.1921,-137.1018"/>
<polygon fill="#191970" stroke="#191970" points="130.0983,-134.1665 119.8084,-131.6427 126.2785,-140.0325 130.0983,-134.1665"/>
</g>
<!-- Node10&#45;&gt;Node9 -->
<g id="edge16" class="edge">
<title>Node10&#45;&gt;Node9</title>
<path fill="none" stroke="#191970" d="M204.9349,-168.2455C217.0947,-159.7337 234.9464,-147.2375 249.0285,-137.3801"/>
<polygon fill="#191970" stroke="#191970" points="251.0395,-140.2447 257.2248,-131.6427 247.0253,-134.51 251.0395,-140.2447"/>
</g>
<!-- Node11 -->
<g id="node12" class="node">
<title>Node11</title>
<polygon fill="#ffffff" stroke="#bfbfbf" points="162,-112.5 162,-131.5 212,-131.5 212,-112.5 162,-112.5"/>
<text text-anchor="middle" x="187" y="-119.5" font-family="Helvetica,sans-Serif" font-size="10.00" fill="#000000">limits.h</text>
</g>
<!-- Node10&#45;&gt;Node11 -->
<g id="edge13" class="edge">
<title>Node10&#45;&gt;Node11</title>
<path fill="none" stroke="#191970" d="M190.3033,-168.2455C189.7813,-160.9382 189.0496,-150.6944 188.4075,-141.7046"/>
<polygon fill="#191970" stroke="#191970" points="191.8924,-141.3679 187.6888,-131.6427 184.9102,-141.8667 191.8924,-141.3679"/>
</g>
<!-- Node12&#45;&gt;Node1 -->
<g id="edge19" class="edge">
<title>Node12&#45;&gt;Node1</title>
<path fill="none" stroke="#191970" d="M743.2981,-225.9423C714.8939,-218.8698 676.1725,-206.7396 646,-188 616.0995,-169.4293 603.4698,-164.5189 590,-132 562.0251,-64.4625 677.4913,-29.9718 738.8806,-16.6776"/>
<polygon fill="#191970" stroke="#191970" points="739.8768,-20.0454 748.9537,-14.5809 738.4503,-13.1923 739.8768,-20.0454"/>
</g>
<!-- Node12&#45;&gt;Node5 -->
<g id="edge20" class="edge">
<title>Node12&#45;&gt;Node5</title>
<path fill="none" stroke="#191970" d="M784.0902,-224.2455C785.6561,-216.9382 787.8512,-206.6944 789.7776,-197.7046"/>
<polygon fill="#191970" stroke="#191970" points="793.2607,-198.1541 791.9337,-187.6427 786.416,-196.6873 793.2607,-198.1541"/>
</g>
<!-- Node13 -->
<g id="node14" class="node">
<title>Node13</title>
<g id="a_node14"><a xlink:href="iolist_8h.html" target="_top" xlink:title="iolist scatter / gather IO ">
<polygon fill="#ffffff" stroke="#000000" points="1172.5,-168.5 1172.5,-187.5 1219.5,-187.5 1219.5,-168.5 1172.5,-168.5"/>
<text text-anchor="middle" x="1196" y="-175.5" font-family="Helvetica,sans-Serif" font-size="10.00" fill="#000000">iolist.h</text>
</a>
</g>
</g>
<!-- Node12&#45;&gt;Node13 -->
<g id="edge21" class="edge">
<title>Node12&#45;&gt;Node13</title>
<path fill="none" stroke="#191970" d="M820.5763,-228.7819C901.0971,-217.8902 1085.888,-192.8944 1162.1408,-182.58"/>
<polygon fill="#191970" stroke="#191970" points="1162.7173,-186.034 1172.1579,-181.225 1161.779,-179.0971 1162.7173,-186.034"/>
</g>
<!-- Node16 -->
<g id="node17" class="node">
<title>Node16</title>
<g id="a_node17"><a xlink:href="netopt_8h.html" target="_top" xlink:title="Definition of global configuration options. ">
<polygon fill="#ffffff" stroke="#000000" points="482.5,-168.5 482.5,-187.5 559.5,-187.5 559.5,-168.5 482.5,-168.5"/>
<text text-anchor="middle" x="521" y="-175.5" font-family="Helvetica,sans-Serif" font-size="10.00" fill="#000000">net/netopt.h</text>
</a>
</g>
</g>
<!-- Node12&#45;&gt;Node16 -->
<g id="edge28" class="edge">
<title>Node12&#45;&gt;Node16</title>
<path fill="none" stroke="#191970" d="M743.4886,-225.737C697.3227,-215.8317 619.9071,-199.2214 569.6507,-188.4385"/>
<polygon fill="#191970" stroke="#191970" points="570.1812,-184.9727 559.6695,-186.2969 568.7127,-191.8169 570.1812,-184.9727"/>
</g>
<!-- Node17 -->
<g id="node18" class="node">
<title>Node17</title>
<g id="a_node18"><a xlink:href="kernel__defines_8h.html" target="_top" xlink:title="Common macros and compiler attributes/pragmas configuration. ">
<polygon fill="#ffffff" stroke="#000000" points="654.5,-168.5 654.5,-187.5 749.5,-187.5 749.5,-168.5 654.5,-168.5"/>
<text text-anchor="middle" x="702" y="-175.5" font-family="Helvetica,sans-Serif" font-size="10.00" fill="#000000">kernel_defines.h</text>
</a>
</g>
</g>
<!-- Node12&#45;&gt;Node17 -->
<g id="edge31" class="edge">
<title>Node12&#45;&gt;Node17</title>
<path fill="none" stroke="#191970" d="M768.0651,-224.2455C755.9053,-215.7337 738.0536,-203.2375 723.9715,-193.3801"/>
<polygon fill="#191970" stroke="#191970" points="725.9747,-190.51 715.7752,-187.6427 721.9605,-196.2447 725.9747,-190.51"/>
</g>
<!-- Node14 -->
<g id="node15" class="node">
<title>Node14</title>
<g id="a_node15"><a xlink:href="unistd_8h_source.html" target="_top" xlink:title="unistd.h">
<polygon fill="#ffffff" stroke="#000000" points="1345,-112.5 1345,-131.5 1399,-131.5 1399,-112.5 1345,-112.5"/>
<text text-anchor="middle" x="1372" y="-119.5" font-family="Helvetica,sans-Serif" font-size="10.00" fill="#000000">unistd.h</text>
</a>
</g>
</g>
<!-- Node13&#45;&gt;Node14 -->
<g id="edge22" class="edge">
<title>Node13&#45;&gt;Node14</title>
<path fill="none" stroke="#191970" d="M1219.7361,-170.4476C1249.3696,-161.0188 1300.3805,-144.788 1335.1203,-133.7344"/>
<polygon fill="#191970" stroke="#191970" points="1336.4282,-136.9913 1344.8962,-130.6239 1334.3057,-130.3208 1336.4282,-136.9913"/>
</g>
<!-- Node14&#45;&gt;Node1 -->
<g id="edge24" class="edge">
<title>Node14&#45;&gt;Node1</title>
<path fill="none" stroke="#191970" d="M1365.9553,-112.2646C1355.9843,-97.1833 1334.5277,-68.6002 1308,-56 1263.3501,-34.792 924.3823,-17.0463 811.4666,-11.6703"/>
<polygon fill="#191970" stroke="#191970" points="811.4163,-8.1641 801.2624,-11.1889 811.0864,-15.1563 811.4163,-8.1641"/>
</g>
<!-- Node14&#45;&gt;Node7 -->
<g id="edge23" class="edge">
<title>Node14&#45;&gt;Node7</title>
<path fill="none" stroke="#191970" d="M1394.9228,-112.2929C1420.4876,-100.0843 1456.1397,-78.0405 1439,-56 1421.6625,-33.7051 1344.0965,-20.4512 1296.3066,-14.2583"/>
<polygon fill="#191970" stroke="#191970" points="1296.6602,-10.7754 1286.3034,-13.0084 1295.7922,-17.7213 1296.6602,-10.7754"/>
</g>
<!-- Node15 -->
<g id="node16" class="node">
<title>Node15</title>
<g id="a_node16"><a xlink:href="cpu_2avr8__common_2avr__libc__extra_2include_2sys_2types_8h_source.html" target="_top" xlink:title="sys/types.h">
<polygon fill="#ffffff" stroke="#000000" points="1360.5,-56.5 1360.5,-75.5 1429.5,-75.5 1429.5,-56.5 1360.5,-56.5"/>
<text text-anchor="middle" x="1395" y="-63.5" font-family="Helvetica,sans-Serif" font-size="10.00" fill="#000000">sys/types.h</text>
</a>
</g>
</g>
<!-- Node14&#45;&gt;Node15 -->
<g id="edge25" class="edge">
<title>Node14&#45;&gt;Node15</title>
<path fill="none" stroke="#191970" d="M1376.0063,-112.2455C1379.0735,-104.7776 1383.4003,-94.2427 1387.1497,-85.1137"/>
<polygon fill="#191970" stroke="#191970" points="1390.4779,-86.2226 1391.0396,-75.6427 1384.0028,-83.5631 1390.4779,-86.2226"/>
</g>
<!-- Node15&#45;&gt;Node1 -->
<g id="edge26" class="edge">
<title>Node15&#45;&gt;Node1</title>
<path fill="none" stroke="#191970" d="M1360.2915,-58.3765C1355.5059,-57.4837 1350.642,-56.6582 1346,-56 1144.9612,-27.4945 901.4073,-15.1986 811.0217,-11.388"/>
<polygon fill="#191970" stroke="#191970" points="811.154,-7.8905 801.0181,-10.9748 810.8651,-14.8846 811.154,-7.8905"/>
</g>
<!-- Node15&#45;&gt;Node7 -->
<g id="edge27" class="edge">
<title>Node15&#45;&gt;Node7</title>
<path fill="none" stroke="#191970" d="M1371.4489,-56.3733C1349.1609,-47.2629 1315.5063,-33.5062 1290.6363,-23.3404"/>
<polygon fill="#191970" stroke="#191970" points="1291.8247,-20.0451 1281.2438,-19.5011 1289.1761,-26.5247 1291.8247,-20.0451"/>
</g>
<!-- Node16&#45;&gt;Node1 -->
<g id="edge29" class="edge">
<title>Node16&#45;&gt;Node1</title>
<path fill="none" stroke="#191970" d="M520.6678,-168.3951C520.4303,-145.3279 523.2473,-86.465 556,-56 582.1233,-31.7014 683.4849,-18.5914 738.6819,-13.1225"/>
<polygon fill="#191970" stroke="#191970" points="739.1252,-16.5962 748.7463,-12.1594 738.4583,-9.628 739.1252,-16.5962"/>
</g>
<!-- Node16&#45;&gt;Node6 -->
<g id="edge30" class="edge">
<title>Node16&#45;&gt;Node6</title>
<path fill="none" stroke="#191970" d="M512.8132,-168.2455C506.1411,-160.2958 496.5521,-148.8706 488.5747,-139.3656"/>
<polygon fill="#191970" stroke="#191970" points="491.2026,-137.0524 482.093,-131.6427 485.8408,-141.5525 491.2026,-137.0524"/>
</g>
<!-- Node18 -->
<g id="node19" class="node">
<title>Node18</title>
<g id="a_node19"><a xlink:href="modules_8h.html" target="_top" xlink:title="Common macros and compiler attributes/pragmas configuration. ">
<polygon fill="#ffffff" stroke="#000000" points="598.5,-112.5 598.5,-131.5 663.5,-131.5 663.5,-112.5 598.5,-112.5"/>
<text text-anchor="middle" x="631" y="-119.5" font-family="Helvetica,sans-Serif" font-size="10.00" fill="#000000">modules.h</text>
</a>
</g>
</g>
<!-- Node17&#45;&gt;Node18 -->
<g id="edge32" class="edge">
<title>Node17&#45;&gt;Node18</title>
<path fill="none" stroke="#191970" d="M689.6327,-168.2455C679.0446,-159.8943 663.5936,-147.7076 651.2107,-137.9408"/>
<polygon fill="#191970" stroke="#191970" points="653.2447,-135.0875 643.2255,-131.6427 648.9097,-140.5837 653.2447,-135.0875"/>
</g>
<!-- Node19 -->
<g id="node20" class="node">
<title>Node19</title>
<g id="a_node20"><a xlink:href="riot__version_8h.html" target="_top" xlink:title="Common macros and compiler attributes/pragmas configuration. ">
<polygon fill="#ffffff" stroke="#000000" points="860.5,-56.5 860.5,-75.5 941.5,-75.5 941.5,-56.5 860.5,-56.5"/>
<text text-anchor="middle" x="901" y="-63.5" font-family="Helvetica,sans-Serif" font-size="10.00" fill="#000000">riot_version.h</text>
</a>
</g>
</g>
<!-- Node17&#45;&gt;Node19 -->
<g id="edge33" class="edge">
<title>Node17&#45;&gt;Node19</title>
<path fill="none" stroke="#191970" d="M735.9959,-168.4838C761.0469,-160.6767 795.4135,-148.2663 823,-132 846.207,-118.316 869.3312,-97.639 884.3029,-83.0827"/>
<polygon fill="#191970" stroke="#191970" points="887.0997,-85.238 891.7305,-75.7088 882.1679,-80.2703 887.0997,-85.238"/>
</g>
<!-- Node20 -->
<g id="node21" class="node">
<title>Node20</title>
<g id="a_node21"><a xlink:href="compiler__hints_8h.html" target="_top" xlink:title="Common macros and compiler attributes/pragmas configuration. ">
<polygon fill="#ffffff" stroke="#000000" points="720.5,-112.5 720.5,-131.5 813.5,-131.5 813.5,-112.5 720.5,-112.5"/>
<text text-anchor="middle" x="767" y="-119.5" font-family="Helvetica,sans-Serif" font-size="10.00" fill="#000000">compiler_hints.h</text>
</a>
</g>
</g>
<!-- Node17&#45;&gt;Node20 -->
<g id="edge35" class="edge">
<title>Node17&#45;&gt;Node20</title>
<path fill="none" stroke="#191970" d="M713.3221,-168.2455C722.9223,-159.9746 736.8892,-147.9416 748.1695,-138.2232"/>
<polygon fill="#191970" stroke="#191970" points="750.516,-140.8214 755.8076,-131.6427 745.947,-135.5182 750.516,-140.8214"/>
</g>
<!-- Node22 -->
<g id="node23" class="node">
<title>Node22</title>
<g id="a_node23"><a xlink:href="container_8h.html" target="_top" xlink:title="Common macros and compiler attributes/pragmas configuration. ">
<polygon fill="#ffffff" stroke="#000000" points="1087.5,-56.5 1087.5,-75.5 1156.5,-75.5 1156.5,-56.5 1087.5,-56.5"/>
<text text-anchor="middle" x="1122" y="-63.5" font-family="Helvetica,sans-Serif" font-size="10.00" fill="#000000">container.h</text>
</a>
</g>
</g>
<!-- Node17&#45;&gt;Node22 -->
<g id="edge39" class="edge">
<title>Node17&#45;&gt;Node22</title>
<path fill="none" stroke="#191970" d="M737.809,-168.4509C814.4404,-148.0159 994.1376,-100.0966 1077.7548,-77.7987"/>
<polygon fill="#191970" stroke="#191970" points="1078.7018,-81.1686 1087.4623,-75.21 1076.8981,-74.4049 1078.7018,-81.1686"/>
</g>
<!-- Node19&#45;&gt;Node1 -->
<g id="edge34" class="edge">
<title>Node19&#45;&gt;Node1</title>
<path fill="none" stroke="#191970" d="M879.3398,-56.3733C859.0228,-47.3435 828.436,-33.7494 805.625,-23.6111"/>
<polygon fill="#191970" stroke="#191970" points="806.9372,-20.3642 796.3775,-19.5011 804.0941,-26.7609 806.9372,-20.3642"/>
</g>
<!-- Node20&#45;&gt;Node1 -->
<g id="edge38" class="edge">
<title>Node20&#45;&gt;Node1</title>
<path fill="none" stroke="#191970" d="M725.1425,-112.4877C689.4418,-102.2615 646.5906,-83.6527 665,-56 681.3328,-31.4665 713.5249,-19.9936 738.8826,-14.6423"/>
<polygon fill="#191970" stroke="#191970" points="739.7316,-18.0442 748.9152,-12.7609 738.4414,-11.1641 739.7316,-18.0442"/>
</g>
<!-- Node21 -->
<g id="node22" class="node">
<title>Node21</title>
<g id="a_node22"><a xlink:href="assert_8h.html" target="_top" xlink:title="POSIX.1&#45;2008 compliant version of the assert macro. ">
<polygon fill="#ffffff" stroke="#000000" points="674,-56.5 674,-75.5 728,-75.5 728,-56.5 674,-56.5"/>
<text text-anchor="middle" x="701" y="-63.5" font-family="Helvetica,sans-Serif" font-size="10.00" fill="#000000">assert.h</text>
</a>
</g>
</g>
<!-- Node20&#45;&gt;Node21 -->
<g id="edge36" class="edge">
<title>Node20&#45;&gt;Node21</title>
<path fill="none" stroke="#191970" d="M755.5037,-112.2455C745.7558,-103.9746 731.5741,-91.9416 720.1202,-82.2232"/>
<polygon fill="#191970" stroke="#191970" points="722.2541,-79.4437 712.3646,-75.6427 717.7253,-84.7813 722.2541,-79.4437"/>
</g>
<!-- Node21&#45;&gt;Node1 -->
<g id="edge37" class="edge">
<title>Node21&#45;&gt;Node1</title>
<path fill="none" stroke="#191970" d="M713.8898,-56.2455C724.9254,-47.8943 741.0292,-35.7076 753.9353,-25.9408"/>
<polygon fill="#191970" stroke="#191970" points="756.3959,-28.4681 762.2579,-19.6427 752.1717,-22.8862 756.3959,-28.4681"/>
</g>
<!-- Node22&#45;&gt;Node1 -->
<g id="edge41" class="edge">
<title>Node22&#45;&gt;Node1</title>
<path fill="none" stroke="#191970" d="M1087.2411,-58.6911C1082.4633,-57.7494 1077.615,-56.8266 1073,-56 979.0867,-39.1787 867.8534,-22.9938 811.5606,-15.0649"/>
<polygon fill="#191970" stroke="#191970" points="811.7698,-11.56 801.3805,-13.6368 810.7973,-18.4921 811.7698,-11.56"/>
</g>
<!-- Node22&#45;&gt;Node7 -->
<g id="edge40" class="edge">
<title>Node22&#45;&gt;Node7</title>
<path fill="none" stroke="#191970" d="M1145.3792,-56.3733C1167.5045,-47.2629 1200.9134,-33.5062 1225.6019,-23.3404"/>
<polygon fill="#191970" stroke="#191970" points="1227.0117,-26.5451 1234.9258,-19.5011 1224.3464,-20.0723 1227.0117,-26.5451"/>
</g>
<!-- Node23&#45;&gt;Node12 -->
<g id="edge69" class="edge">
<title>Node23&#45;&gt;Node12</title>
<path fill="none" stroke="#191970" d="M648.419,-336.2539C653.7942,-322.1752 665.452,-296.0771 683,-280 699.0648,-265.2818 720.6657,-254.5061 739.5909,-247.1001"/>
<polygon fill="#191970" stroke="#191970" points="741.0443,-250.294 749.2001,-243.5314 738.6072,-243.7319 741.0443,-250.294"/>
</g>
<!-- Node23&#45;&gt;Node16 -->
<g id="edge68" class="edge">
<title>Node23&#45;&gt;Node16</title>
<path fill="none" stroke="#191970" d="M640.0295,-336.2826C628.8615,-314.8887 600.2983,-262.554 569,-224 560.3352,-213.3265 549.3424,-202.6272 540.0637,-194.2366"/>
<polygon fill="#191970" stroke="#191970" points="542.2653,-191.5114 532.4526,-187.5162 537.632,-196.7587 542.2653,-191.5114"/>
</g>
<!-- Node24 -->
<g id="node25" class="node">
<title>Node24</title>
<g id="a_node25"><a xlink:href="eui__provider_8h.html" target="_top" xlink:title="EUI&#45;48 and EUI&#45;64 address provider. ">
<polygon fill="#ffffff" stroke="#000000" points="692,-280.5 692,-299.5 796,-299.5 796,-280.5 692,-280.5"/>
<text text-anchor="middle" x="744" y="-287.5" font-family="Helvetica,sans-Serif" font-size="10.00" fill="#000000">net/eui_provider.h</text>
</a>
</g>
</g>
<!-- Node23&#45;&gt;Node24 -->
<g id="edge43" class="edge">
<title>Node23&#45;&gt;Node24</title>
<path fill="none" stroke="#191970" d="M662.2445,-336.2455C677.5761,-327.5731 700.2199,-314.7645 717.7916,-304.825"/>
<polygon fill="#191970" stroke="#191970" points="719.9724,-307.6126 726.9531,-299.6427 716.5259,-301.5198 719.9724,-307.6126"/>
</g>
<!-- Node30 -->
<g id="node31" class="node">
<title>Node30</title>
<g id="a_node31"><a xlink:href="sys_2include_2net_2ieee802154_8h.html" target="_top" xlink:title="IEEE 802.15.4 header definitions. ">
<polygon fill="#ffffff" stroke="#000000" points="965.5,-224.5 965.5,-243.5 1066.5,-243.5 1066.5,-224.5 965.5,-224.5"/>
<text text-anchor="middle" x="1016" y="-231.5" font-family="Helvetica,sans-Serif" font-size="10.00" fill="#000000">net/ieee802154.h</text>
</a>
</g>
</g>
<!-- Node23&#45;&gt;Node30 -->
<g id="edge56" class="edge">
<title>Node23&#45;&gt;Node30</title>
<path fill="none" stroke="#191970" d="M679.0883,-336.4471C711.5266,-327.2981 761.6757,-313.0018 805,-300 865.0699,-281.9728 934.4191,-260.0698 976.7292,-246.583"/>
<polygon fill="#191970" stroke="#191970" points="977.9024,-249.8826 986.3649,-243.508 975.7742,-243.2139 977.9024,-249.8826"/>
</g>
<!-- Node23&#45;&gt;Node33 -->
<g id="edge63" class="edge">
<title>Node23&#45;&gt;Node33</title>
<path fill="none" stroke="#191970" d="M614.2288,-336.3733C584.335,-327.021 538.7907,-312.7725 506.0783,-302.5385"/>
<polygon fill="#191970" stroke="#191970" points="506.9586,-299.1466 496.3697,-299.5011 504.8685,-305.8273 506.9586,-299.1466"/>
</g>
<!-- Node24&#45;&gt;Node12 -->
<g id="edge55" class="edge">
<title>Node24&#45;&gt;Node12</title>
<path fill="none" stroke="#191970" d="M750.6191,-280.2455C755.9046,-272.4564 763.4541,-261.3308 769.8238,-251.9439"/>
<polygon fill="#191970" stroke="#191970" points="772.7379,-253.8827 775.4568,-243.6427 766.9455,-249.9522 772.7379,-253.8827"/>
</g>
<!-- Node25 -->
<g id="node26" class="node">
<title>Node25</title>
<g id="a_node26"><a xlink:href="eui48_8h.html" target="_top" xlink:title="Definition and IPv6 IID conversion for IEEE EUI&#45;48 identifiers. ">
<polygon fill="#ffffff" stroke="#000000" points="654.5,-224.5 654.5,-243.5 725.5,-243.5 725.5,-224.5 654.5,-224.5"/>
<text text-anchor="middle" x="690" y="-231.5" font-family="Helvetica,sans-Serif" font-size="10.00" fill="#000000">net/eui48.h</text>
</a>
</g>
</g>
<!-- Node24&#45;&gt;Node25 -->
<g id="edge44" class="edge">
<title>Node24&#45;&gt;Node25</title>
<path fill="none" stroke="#191970" d="M734.5939,-280.2455C726.8507,-272.2155 715.688,-260.6394 706.4682,-251.0781"/>
<polygon fill="#191970" stroke="#191970" points="708.7591,-248.4117 699.2983,-243.6427 703.7202,-253.2706 708.7591,-248.4117"/>
</g>
<!-- Node26 -->
<g id="node27" class="node">
<title>Node26</title>
<g id="a_node27"><a xlink:href="eui64_8h.html" target="_top" xlink:title="EUI&#45;64 data type definition. ">
<polygon fill="#ffffff" stroke="#000000" points="838.5,-168.5 838.5,-187.5 909.5,-187.5 909.5,-168.5 838.5,-168.5"/>
<text text-anchor="middle" x="874" y="-175.5" font-family="Helvetica,sans-Serif" font-size="10.00" fill="#000000">net/eui64.h</text>
</a>
</g>
</g>
<!-- Node24&#45;&gt;Node26 -->
<g id="edge54" class="edge">
<title>Node24&#45;&gt;Node26</title>
<path fill="none" stroke="#191970" d="M769.3814,-280.3713C787.6826,-272.5445 812.1956,-260.1587 830,-244 844.914,-230.4646 857.1479,-210.8539 864.8965,-196.5271"/>
<polygon fill="#191970" stroke="#191970" points="868.0327,-198.0818 869.5221,-187.5922 861.8164,-194.8636 868.0327,-198.0818"/>
</g>
<!-- Node25&#45;&gt;Node1 -->
<g id="edge45" class="edge">
<title>Node25&#45;&gt;Node1</title>
<path fill="none" stroke="#191970" d="M654.3112,-231.4208C572.934,-224.0179 384.4496,-197.4209 435,-112 461.3383,-67.4931 488.3575,-73.5636 537,-56 605.9994,-31.0861 691.3825,-18.7729 738.8452,-13.4517"/>
<polygon fill="#191970" stroke="#191970" points="739.3733,-16.9151 748.9398,-12.3619 738.6219,-9.9555 739.3733,-16.9151"/>
</g>
<!-- Node25&#45;&gt;Node26 -->
<g id="edge46" class="edge">
<title>Node25&#45;&gt;Node26</title>
<path fill="none" stroke="#191970" d="M721.6307,-224.3733C752.3596,-215.021 799.176,-200.7725 832.8022,-190.5385"/>
<polygon fill="#191970" stroke="#191970" points="834.2344,-193.7612 842.782,-187.5011 832.1962,-187.0644 834.2344,-193.7612"/>
</g>
<!-- Node26&#45;&gt;Node1 -->
<g id="edge47" class="edge">
<title>Node26&#45;&gt;Node1</title>
<path fill="none" stroke="#191970" d="M838.1598,-168.8471C793.8654,-157.3769 722.9666,-138.4407 712,-132 681.6491,-114.1748 669.4698,-108.5189 656,-76 640.614,-38.855 698.276,-21.9288 738.6629,-14.755"/>
<polygon fill="#191970" stroke="#191970" points="739.4573,-18.1715 748.7575,-13.0964 738.3223,-11.2641 739.4573,-18.1715"/>
</g>
<!-- Node27 -->
<g id="node28" class="node">
<title>Node27</title>
<g id="a_node28"><a xlink:href="byteorder_8h.html" target="_top" xlink:title="Functions to work with different byte orders. ">
<polygon fill="#ffffff" stroke="#000000" points="958.5,-112.5 958.5,-131.5 1031.5,-131.5 1031.5,-112.5 958.5,-112.5"/>
<text text-anchor="middle" x="995" y="-119.5" font-family="Helvetica,sans-Serif" font-size="10.00" fill="#000000">byteorder.h</text>
</a>
</g>
</g>
<!-- Node26&#45;&gt;Node27 -->
<g id="edge48" class="edge">
<title>Node26&#45;&gt;Node27</title>
<path fill="none" stroke="#191970" d="M894.8006,-168.3733C914.2243,-159.3838 943.4224,-145.8706 965.2964,-135.7471"/>
<polygon fill="#191970" stroke="#191970" points="966.8656,-138.8776 974.4708,-131.5011 963.9255,-132.5249 966.8656,-138.8776"/>
</g>
<!-- Node27&#45;&gt;Node1 -->
<g id="edge50" class="edge">
<title>Node27&#45;&gt;Node1</title>
<path fill="none" stroke="#191970" d="M1009.7261,-112.3897C1028.2417,-99.1434 1055.8034,-74.7829 1040,-56 1011.2381,-21.8153 877.4211,-13.034 811.6652,-10.7789"/>
<polygon fill="#191970" stroke="#191970" points="811.4493,-7.2706 801.3459,-10.4597 811.2329,-14.2673 811.4493,-7.2706"/>
</g>
<!-- Node27&#45;&gt;Node4 -->
<g id="edge51" class="edge">
<title>Node27&#45;&gt;Node4</title>
<path fill="none" stroke="#191970" d="M958.1769,-112.6269C918.0326,-102.4083 854.0907,-86.1322 813.3534,-75.7627"/>
<polygon fill="#191970" stroke="#191970" points="814.0794,-72.336 803.5251,-73.2609 812.3526,-79.1196 814.0794,-72.336"/>
</g>
<!-- Node28 -->
<g id="node29" class="node">
<title>Node28</title>
<polygon fill="#ffffff" stroke="#bfbfbf" points="1174.5,-56.5 1174.5,-75.5 1227.5,-75.5 1227.5,-56.5 1174.5,-56.5"/>
<text text-anchor="middle" x="1201" y="-63.5" font-family="Helvetica,sans-Serif" font-size="10.00" fill="#000000">string.h</text>
</g>
<!-- Node27&#45;&gt;Node28 -->
<g id="edge49" class="edge">
<title>Node27&#45;&gt;Node28</title>
<path fill="none" stroke="#191970" d="M1031.0733,-112.47C1063.6142,-103.8346 1113.0473,-90.6215 1164.3256,-76.4396"/>
<polygon fill="#191970" stroke="#191970" points="1165.5572,-79.7303 1174.259,-73.6864 1163.6875,-72.9845 1165.5572,-79.7303"/>
</g>
<!-- Node29 -->
<g id="node30" class="node">
<title>Node29</title>
<g id="a_node30"><a xlink:href="unaligned_8h.html" target="_top" xlink:title="Unaligned but safe memory access functions. ">
<polygon fill="#ffffff" stroke="#000000" points="959.5,-56.5 959.5,-75.5 1030.5,-75.5 1030.5,-56.5 959.5,-56.5"/>
<text text-anchor="middle" x="995" y="-63.5" font-family="Helvetica,sans-Serif" font-size="10.00" fill="#000000">unaligned.h</text>
</a>
</g>
</g>
<!-- Node27&#45;&gt;Node29 -->
<g id="edge52" class="edge">
<title>Node27&#45;&gt;Node29</title>
<path fill="none" stroke="#191970" d="M995,-112.2455C995,-104.9382 995,-94.6944 995,-85.7046"/>
<polygon fill="#191970" stroke="#191970" points="998.5001,-85.6426 995,-75.6427 991.5001,-85.6427 998.5001,-85.6426"/>
</g>
<!-- Node29&#45;&gt;Node1 -->
<g id="edge53" class="edge">
<title>Node29&#45;&gt;Node1</title>
<path fill="none" stroke="#191970" d="M959.1636,-56.878C918.3065,-46.478 851.8983,-29.5741 810.981,-19.1588"/>
<polygon fill="#191970" stroke="#191970" points="811.713,-15.7336 801.1586,-16.6586 809.9862,-22.5173 811.713,-15.7336"/>
</g>
<!-- Node30&#45;&gt;Node1 -->
<g id="edge57" class="edge">
<title>Node30&#45;&gt;Node1</title>
<path fill="none" stroke="#191970" d="M1007.9552,-224.2596C997.7479,-210.6452 982.8485,-185.6195 995,-168 1062.2857,-70.4364 1316.5436,-143.8569 1237,-56 1208.5603,-24.588 915.1311,-13.7435 811.2252,-10.8719"/>
<polygon fill="#191970" stroke="#191970" points="811.2989,-7.3727 801.2087,-10.6037 811.1115,-14.3702 811.2989,-7.3727"/>
</g>
<!-- Node30&#45;&gt;Node18 -->
<g id="edge60" class="edge">
<title>Node30&#45;&gt;Node18</title>
<path fill="none" stroke="#191970" d="M1039.7249,-224.4809C1067.2715,-212.1139 1106.5791,-189.5487 1087,-168 1058.8515,-137.0198 753.6086,-136.5648 712,-132 699.5658,-130.6359 686.0749,-129.0234 673.7347,-127.496"/>
<polygon fill="#191970" stroke="#191970" points="674.045,-124.0077 663.6881,-126.2404 673.1768,-130.9536 674.045,-124.0077"/>
</g>
<!-- Node30&#45;&gt;Node26 -->
<g id="edge61" class="edge">
<title>Node30&#45;&gt;Node26</title>
<path fill="none" stroke="#191970" d="M991.5893,-224.3733C968.3858,-215.2226 933.2962,-201.3844 907.4858,-191.2057"/>
<polygon fill="#191970" stroke="#191970" points="908.6789,-187.9139 898.0921,-187.5011 906.1108,-194.4258 908.6789,-187.9139"/>
</g>
<!-- Node30&#45;&gt;Node27 -->
<g id="edge59" class="edge">
<title>Node30&#45;&gt;Node27</title>
<path fill="none" stroke="#191970" d="M998.0401,-224.3701C985.3676,-216.4681 969.3833,-203.9885 962,-188 954.2609,-171.2411 965.689,-152.4382 977.159,-139.2018"/>
<polygon fill="#191970" stroke="#191970" points="979.8574,-141.4406 984.1351,-131.7477 974.7465,-136.6574 979.8574,-141.4406"/>
</g>
<!-- Node31 -->
<g id="node32" class="node">
<title>Node31</title>
<polygon fill="#ffffff" stroke="#bfbfbf" points="1238,-168.5 1238,-187.5 1288,-187.5 1288,-168.5 1238,-168.5"/>
<text text-anchor="middle" x="1263" y="-175.5" font-family="Helvetica,sans-Serif" font-size="10.00" fill="#000000">stdlib.h</text>
</g>
<!-- Node30&#45;&gt;Node31 -->
<g id="edge58" class="edge">
<title>Node30&#45;&gt;Node31</title>
<path fill="none" stroke="#191970" d="M1065.3073,-224.4196C1106.4322,-216.1881 1166.7643,-203.556 1227.9768,-188.1327"/>
<polygon fill="#191970" stroke="#191970" points="1228.9766,-191.4899 1237.8058,-185.6336 1227.2516,-184.7058 1228.9766,-191.4899"/>
</g>
<!-- Node32 -->
<g id="node33" class="node">
<title>Node32</title>
<g id="a_node33"><a xlink:href="time__units_8h.html" target="_top" xlink:title="Utility header providing time unit defines. ">
<polygon fill="#ffffff" stroke="#000000" points="1004,-168.5 1004,-187.5 1078,-187.5 1078,-168.5 1004,-168.5"/>
<text text-anchor="middle" x="1041" y="-175.5" font-family="Helvetica,sans-Serif" font-size="10.00" fill="#000000">time_units.h</text>
</a>
</g>
</g>
<!-- Node30&#45;&gt;Node32 -->
<g id="edge62" class="edge">
<title>Node30&#45;&gt;Node32</title>
<path fill="none" stroke="#191970" d="M1020.3547,-224.2455C1023.7244,-216.6973 1028.493,-206.0158 1032.5983,-196.8197"/>
<polygon fill="#191970" stroke="#191970" points="1035.8147,-198.2009 1036.6952,-187.6427 1029.4227,-195.3473 1035.8147,-198.2009"/>
</g>
<!-- Node33&#45;&gt;Node18 -->
<g id="edge65" class="edge">
<title>Node33&#45;&gt;Node18</title>
<path fill="none" stroke="#191970" d="M502.393,-280.4545C523.8743,-273.3114 550.4097,-261.6804 569,-244 599.4292,-215.06 617.3949,-167.9255 625.6021,-141.5161"/>
<polygon fill="#191970" stroke="#191970" points="629.0606,-142.1616 628.5299,-131.5801 622.346,-140.183 629.0606,-142.1616"/>
</g>
<!-- Node34 -->
<g id="node35" class="node">
<title>Node34</title>
<g id="a_node35"><a xlink:href="inttypes_8h.html" target="_top" xlink:title="Adds include for missing inttype definitions. ">
<polygon fill="#ffffff" stroke="#000000" points="386.5,-224.5 386.5,-243.5 449.5,-243.5 449.5,-224.5 386.5,-224.5"/>
<text text-anchor="middle" x="418" y="-231.5" font-family="Helvetica,sans-Serif" font-size="10.00" fill="#000000">inttypes.h</text>
</a>
</g>
</g>
<!-- Node33&#45;&gt;Node34 -->
<g id="edge64" class="edge">
<title>Node33&#45;&gt;Node34</title>
<path fill="none" stroke="#191970" d="M457.639,-280.2455C450.825,-272.2958 441.0319,-260.8706 432.8848,-251.3656"/>
<polygon fill="#191970" stroke="#191970" points="435.4305,-248.9575 426.2651,-243.6427 430.1157,-253.513 435.4305,-248.9575"/>
</g>
<!-- Node35 -->
<g id="node36" class="node">
<title>Node35</title>
<g id="a_node36"><a xlink:href="ethertype_8h.html" target="_top" xlink:title="Ether type definitions. ">
<polygon fill="#ffffff" stroke="#000000" points="468,-224.5 468,-243.5 560,-243.5 560,-224.5 468,-224.5"/>
<text text-anchor="middle" x="514" y="-231.5" font-family="Helvetica,sans-Serif" font-size="10.00" fill="#000000">net/ethertype.h</text>
</a>
</g>
</g>
<!-- Node33&#45;&gt;Node35 -->
<g id="edge66" class="edge">
<title>Node33&#45;&gt;Node35</title>
<path fill="none" stroke="#191970" d="M474.361,-280.2455C481.175,-272.2958 490.9681,-260.8706 499.1152,-251.3656"/>
<polygon fill="#191970" stroke="#191970" points="501.8843,-253.513 505.7349,-243.6427 496.5695,-248.9575 501.8843,-253.513"/>
</g>
<!-- Node36 -->
<g id="node37" class="node">
<title>Node36</title>
<g id="a_node37"><a xlink:href="protnum_8h.html" target="_top" xlink:title="Protocol number definitions. ">
<polygon fill="#ffffff" stroke="#000000" points="282,-224.5 282,-243.5 368,-243.5 368,-224.5 282,-224.5"/>
<text text-anchor="middle" x="325" y="-231.5" font-family="Helvetica,sans-Serif" font-size="10.00" fill="#000000">net/protnum.h</text>
</a>
</g>
</g>
<!-- Node33&#45;&gt;Node36 -->
<g id="edge67" class="edge">
<title>Node33&#45;&gt;Node36</title>
<path fill="none" stroke="#191970" d="M441.7612,-280.3733C418.7211,-271.2226 383.8786,-257.3844 358.2499,-247.2057"/>
<polygon fill="#191970" stroke="#191970" points="359.5082,-243.9395 348.9225,-243.5011 356.9244,-250.4452 359.5082,-243.9395"/>
</g>
<!-- Node37&#45;&gt;Node5 -->
<g id="edge83" class="edge">
<title>Node37&#45;&gt;Node5</title>
<path fill="none" stroke="#191970" d="M1055.3559,-280.4965C1018.0855,-272.7319 966.5429,-260.369 923,-244 885.2066,-229.7923 844.0978,-207.4579 818.6855,-192.7711"/>
<polygon fill="#191970" stroke="#191970" points="820.1536,-189.5751 809.7541,-187.5495 816.6206,-195.6182 820.1536,-189.5751"/>
</g>
<!-- Node37&#45;&gt;Node6 -->
<g id="edge72" class="edge">
<title>Node37&#45;&gt;Node6</title>
<path fill="none" stroke="#191970" d="M1108.0098,-280.2684C1112.2004,-256.9199 1119.0077,-197.4796 1087,-168 1046.2743,-130.4911 645.1936,-136.3778 590,-132 564.7767,-129.9994 536.4858,-127.5643 514.1578,-125.598"/>
<polygon fill="#191970" stroke="#191970" points="514.3035,-122.0973 504.034,-124.7027 513.6868,-129.0701 514.3035,-122.0973"/>
</g>
<!-- Node37&#45;&gt;Node13 -->
<g id="edge73" class="edge">
<title>Node37&#45;&gt;Node13</title>
<path fill="none" stroke="#191970" d="M1113.6733,-280.4509C1128.8171,-261.6054 1162.7443,-219.3849 1181.9842,-195.4419"/>
<polygon fill="#191970" stroke="#191970" points="1184.8104,-197.5124 1188.3461,-187.5249 1179.3538,-193.1276 1184.8104,-197.5124"/>
</g>
<!-- Node37&#45;&gt;Node26 -->
<g id="edge81" class="edge">
<title>Node37&#45;&gt;Node26</title>
<path fill="none" stroke="#191970" d="M1059.9396,-280.4817C1029.5788,-273.0938 989.5622,-261.1855 957,-244 932.0432,-230.8285 907.2163,-209.7685 891.311,-194.9886"/>
<polygon fill="#191970" stroke="#191970" points="893.515,-192.2549 883.8533,-187.9072 888.6949,-197.3311 893.515,-192.2549"/>
</g>
<!-- Node37&#45;&gt;Node27 -->
<g id="edge80" class="edge">
<title>Node37&#45;&gt;Node27</title>
<path fill="none" stroke="#191970" d="M1170.6014,-284.2457C1272.0154,-272.8428 1450.5946,-241.7861 1385,-168 1362.5238,-142.717 1140.4757,-128.9877 1041.8208,-124.0943"/>
<polygon fill="#191970" stroke="#191970" points="1041.9831,-120.5981 1031.8248,-123.6079 1041.6428,-127.5899 1041.9831,-120.5981"/>
</g>
<!-- Node37&#45;&gt;Node30 -->
<g id="edge82" class="edge">
<title>Node37&#45;&gt;Node30</title>
<path fill="none" stroke="#191970" d="M1090.3232,-280.2455C1076.5144,-271.6534 1056.1807,-259.0014 1040.2708,-249.1018"/>
<polygon fill="#191970" stroke="#191970" points="1041.8368,-245.954 1031.4972,-243.6427 1038.1387,-251.8974 1041.8368,-245.954"/>
</g>
<!-- Node38 -->
<g id="node39" class="node">
<title>Node38</title>
<g id="a_node39"><a xlink:href="uio_8h.html" target="_top" xlink:title="libc header for scatter/gather I/O ">
<polygon fill="#ffffff" stroke="#000000" points="1234,-224.5 1234,-243.5 1292,-243.5 1292,-224.5 1234,-224.5"/>
<text text-anchor="middle" x="1263" y="-231.5" font-family="Helvetica,sans-Serif" font-size="10.00" fill="#000000">sys/uio.h</text>
</a>
</g>
</g>
<!-- Node37&#45;&gt;Node38 -->
<g id="edge74" class="edge">
<title>Node37&#45;&gt;Node38</title>
<path fill="none" stroke="#191970" d="M1132.9893,-280.3733C1158.8699,-271.1419 1198.1248,-257.1402 1226.7289,-246.9375"/>
<polygon fill="#191970" stroke="#191970" points="1228.12,-250.1573 1236.3629,-243.5011 1225.7683,-243.5642 1228.12,-250.1573"/>
</g>
<!-- Node40 -->
<g id="node41" class="node">
<title>Node40</title>
<g id="a_node41"><a xlink:href="bitarithm_8h.html" target="_top" xlink:title="Helper functions for bit arithmetic. ">
<polygon fill="#ffffff" stroke="#000000" points="1432,-224.5 1432,-243.5 1500,-243.5 1500,-224.5 1432,-224.5"/>
<text text-anchor="middle" x="1466" y="-231.5" font-family="Helvetica,sans-Serif" font-size="10.00" fill="#000000">bitarithm.h</text>
</a>
</g>
</g>
<!-- Node37&#45;&gt;Node40 -->
<g id="edge77" class="edge">
<title>Node37&#45;&gt;Node40</title>
<path fill="none" stroke="#191970" d="M1170.715,-281.5929C1233.9416,-273.112 1332.8262,-259.1375 1418,-244 1419.2729,-243.7738 1420.5636,-243.5392 1421.8657,-243.2981"/>
<polygon fill="#191970" stroke="#191970" points="1422.8038,-246.6817 1431.9596,-241.3505 1421.4776,-239.8085 1422.8038,-246.6817"/>
</g>
<!-- Node38&#45;&gt;Node31 -->
<g id="edge75" class="edge">
<title>Node38&#45;&gt;Node31</title>
<path fill="none" stroke="#191970" d="M1263,-224.2455C1263,-216.9382 1263,-206.6944 1263,-197.7046"/>
<polygon fill="#191970" stroke="#191970" points="1266.5001,-197.6426 1263,-187.6427 1259.5001,-197.6427 1266.5001,-197.6426"/>
</g>
<!-- Node39 -->
<g id="node40" class="node">
<title>Node39</title>
<polygon fill="#ffffff" stroke="#bfbfbf" points="1306.5,-168.5 1306.5,-187.5 1375.5,-187.5 1375.5,-168.5 1306.5,-168.5"/>
<text text-anchor="middle" x="1341" y="-175.5" font-family="Helvetica,sans-Serif" font-size="10.00" fill="#000000">sys/types.h</text>
</g>
<!-- Node38&#45;&gt;Node39 -->
<g id="edge76" class="edge">
<title>Node38&#45;&gt;Node39</title>
<path fill="none" stroke="#191970" d="M1276.5866,-224.2455C1288.3305,-215.814 1305.5199,-203.4729 1319.1882,-193.6598"/>
<polygon fill="#191970" stroke="#191970" points="1321.4871,-196.3179 1327.5691,-187.6427 1317.4046,-190.6316 1321.4871,-196.3179"/>
</g>
<!-- Node40&#45;&gt;Node1 -->
<g id="edge78" class="edge">
<title>Node40&#45;&gt;Node1</title>
<path fill="none" stroke="#191970" d="M1458.4362,-224.08C1447.5315,-210.2523 1426.2473,-184.9747 1404,-168 1376.8136,-147.2568 1363.7024,-152.0489 1336,-132 1296.5311,-103.4354 1301.2735,-76.3367 1257,-56 1177.5862,-19.5218 909.2102,-11.954 811.2103,-10.3981"/>
<polygon fill="#191970" stroke="#191970" points="811.2442,-6.8983 801.1938,-10.2509 811.1412,-13.8976 811.2442,-6.8983"/>
</g>
<!-- Node41 -->
<g id="node42" class="node">
<title>Node41</title>
<polygon fill="#ffffff" stroke="#bfbfbf" points="1470.5,-168.5 1470.5,-187.5 1537.5,-187.5 1537.5,-168.5 1470.5,-168.5"/>
<text text-anchor="middle" x="1504" y="-175.5" font-family="Helvetica,sans-Serif" font-size="10.00" fill="#000000">cpu_conf.h</text>
</g>
<!-- Node40&#45;&gt;Node41 -->
<g id="edge79" class="edge">
<title>Node40&#45;&gt;Node41</title>
<path fill="none" stroke="#191970" d="M1472.6191,-224.2455C1477.9046,-216.4564 1485.4541,-205.3308 1491.8238,-195.9439"/>
<polygon fill="#191970" stroke="#191970" points="1494.7379,-197.8827 1497.4568,-187.6427 1488.9455,-193.9522 1494.7379,-197.8827"/>
</g>
</g>
</svg>
