<?xml version="1.0" encoding="UTF-8" standalone="no"?>
<!DOCTYPE svg PUBLIC "-//W3C//DTD SVG 1.1//EN"
 "http://www.w3.org/Graphics/SVG/1.1/DTD/svg11.dtd">
<!-- Generated by graphviz version 2.40.1 (0)
 -->
<!-- Title: core/include/msg_bus.h Pages: 1 -->
<svg width="743pt" height="364pt"
 viewBox="0.00 0.00 743.00 364.00" xmlns="http://www.w3.org/2000/svg" xmlns:xlink="http://www.w3.org/1999/xlink">
<g id="graph0" class="graph" transform="scale(1 1) rotate(0) translate(4 360)">
<title>core/include/msg_bus.h</title>
<polygon fill="#ffffff" stroke="transparent" points="-4,4 -4,-360 739,-360 739,4 -4,4"/>
<!-- Node0 -->
<g id="node1" class="node">
<title>Node0</title>
<polygon fill="#bfbfbf" stroke="#000000" points="506,-336.5 506,-355.5 634,-355.5 634,-336.5 506,-336.5"/>
<text text-anchor="middle" x="570" y="-343.5" font-family="Helvetica,sans-Serif" font-size="10.00" fill="#000000">core/include/msg_bus.h</text>
</g>
<!-- Node1 -->
<g id="node2" class="node">
<title>Node1</title>
<g id="a_node2"><a xlink:href="assert_8h.html" target="_top" xlink:title="POSIX.1&#45;2008 compliant version of the assert macro. ">
<polygon fill="#ffffff" stroke="#000000" points="0,-56.5 0,-75.5 54,-75.5 54,-56.5 0,-56.5"/>
<text text-anchor="middle" x="27" y="-63.5" font-family="Helvetica,sans-Serif" font-size="10.00" fill="#000000">assert.h</text>
</a>
</g>
</g>
<!-- Node0&#45;&gt;Node1 -->
<g id="edge1" class="edge">
<title>Node0&#45;&gt;Node1</title>
<path fill="none" stroke="#191970" d="M505.9979,-339.2564C363.9917,-323.4302 35,-281.6256 35,-234 35,-234 35,-234 35,-178 35,-145.6293 31.634,-108.1294 29.2687,-85.7743"/>
<polygon fill="#191970" stroke="#191970" points="32.719,-85.1291 28.1462,-75.5719 25.761,-85.8948 32.719,-85.1291"/>
</g>
<!-- Node2 -->
<g id="node3" class="node">
<title>Node2</title>
<polygon fill="#ffffff" stroke="#bfbfbf" points="202,-.5 202,-19.5 254,-19.5 254,-.5 202,-.5"/>
<text text-anchor="middle" x="228" y="-7.5" font-family="Helvetica,sans-Serif" font-size="10.00" fill="#000000">stdint.h</text>
</g>
<!-- Node0&#45;&gt;Node2 -->
<g id="edge3" class="edge">
<title>Node0&#45;&gt;Node2</title>
<path fill="none" stroke="#191970" d="M613.7838,-336.38C662.6658,-322.7571 735,-292.684 735,-234 735,-234 735,-234 735,-122 735,-35.1205 635.3285,-76.8988 551,-56 448.826,-30.6786 324.7778,-17.8793 264.4595,-12.7656"/>
<polygon fill="#191970" stroke="#191970" points="264.5567,-9.2618 254.3025,-11.9266 263.9804,-16.2381 264.5567,-9.2618"/>
</g>
<!-- Node3 -->
<g id="node4" class="node">
<title>Node3</title>
<g id="a_node4"><a xlink:href="list_8h.html" target="_top" xlink:title="Intrusive linked list. ">
<polygon fill="#ffffff" stroke="#000000" points="542,-112.5 542,-131.5 580,-131.5 580,-112.5 542,-112.5"/>
<text text-anchor="middle" x="561" y="-119.5" font-family="Helvetica,sans-Serif" font-size="10.00" fill="#000000">list.h</text>
</a>
</g>
</g>
<!-- Node0&#45;&gt;Node3 -->
<g id="edge4" class="edge">
<title>Node0&#45;&gt;Node3</title>
<path fill="none" stroke="#191970" d="M584.1577,-336.3224C622.1076,-309.1859 720.4358,-230.282 678,-168 667.7866,-153.0101 621.5153,-138.0941 590.3135,-129.4748"/>
<polygon fill="#191970" stroke="#191970" points="590.9496,-126.0216 580.3836,-126.8022 589.1302,-132.781 590.9496,-126.0216"/>
</g>
<!-- Node4 -->
<g id="node5" class="node">
<title>Node4</title>
<g id="a_node5"><a xlink:href="core_2include_2msg_8h.html" target="_top" xlink:title="Messaging API for inter process communication. ">
<polygon fill="#ffffff" stroke="#000000" points="385.5,-280.5 385.5,-299.5 430.5,-299.5 430.5,-280.5 385.5,-280.5"/>
<text text-anchor="middle" x="408" y="-287.5" font-family="Helvetica,sans-Serif" font-size="10.00" fill="#000000">msg.h</text>
</a>
</g>
</g>
<!-- Node0&#45;&gt;Node4 -->
<g id="edge5" class="edge">
<title>Node0&#45;&gt;Node4</title>
<path fill="none" stroke="#191970" d="M542.1512,-336.3733C513.7854,-326.5678 469.8496,-311.3801 440.0528,-301.08"/>
<polygon fill="#191970" stroke="#191970" points="441.1275,-297.7483 430.5327,-297.7891 438.8405,-304.3642 441.1275,-297.7483"/>
</g>
<!-- Node1&#45;&gt;Node2 -->
<g id="edge2" class="edge">
<title>Node1&#45;&gt;Node2</title>
<path fill="none" stroke="#191970" d="M54.1078,-58.4476C89.7923,-48.5056 152.6204,-31.0013 192.1871,-19.9777"/>
<polygon fill="#191970" stroke="#191970" points="193.264,-23.3111 201.9577,-17.2556 191.3853,-16.5679 193.264,-23.3111"/>
</g>
<!-- Node4&#45;&gt;Node2 -->
<g id="edge6" class="edge">
<title>Node4&#45;&gt;Node2</title>
<path fill="none" stroke="#191970" d="M385.3163,-286.6194C325.1827,-276.296 161.8016,-239.0807 96,-132 66.5768,-84.1188 143.8774,-43.2281 192.3054,-23.1886"/>
<polygon fill="#191970" stroke="#191970" points="193.8861,-26.3255 201.8591,-19.3483 191.2753,-19.8306 193.8861,-26.3255"/>
</g>
<!-- Node5 -->
<g id="node6" class="node">
<title>Node5</title>
<polygon fill="#ffffff" stroke="#bfbfbf" points="426,-112.5 426,-131.5 486,-131.5 486,-112.5 426,-112.5"/>
<text text-anchor="middle" x="456" y="-119.5" font-family="Helvetica,sans-Serif" font-size="10.00" fill="#000000">stdbool.h</text>
</g>
<!-- Node4&#45;&gt;Node5 -->
<g id="edge7" class="edge">
<title>Node4&#45;&gt;Node5</title>
<path fill="none" stroke="#191970" d="M403.2397,-280.498C393.2372,-259.0955 372.5064,-206.0175 392,-168 398.933,-154.4789 411.8936,-144.0326 424.3481,-136.5377"/>
<polygon fill="#191970" stroke="#191970" points="426.1928,-139.5168 433.234,-131.6001 422.7928,-133.3979 426.1928,-139.5168"/>
</g>
<!-- Node6 -->
<g id="node7" class="node">
<title>Node6</title>
<g id="a_node7"><a xlink:href="sched_8h.html" target="_top" xlink:title="Scheduler API definition. ">
<polygon fill="#ffffff" stroke="#000000" points="458.5,-224.5 458.5,-243.5 511.5,-243.5 511.5,-224.5 458.5,-224.5"/>
<text text-anchor="middle" x="485" y="-231.5" font-family="Helvetica,sans-Serif" font-size="10.00" fill="#000000">sched.h</text>
</a>
</g>
</g>
<!-- Node4&#45;&gt;Node6 -->
<g id="edge8" class="edge">
<title>Node4&#45;&gt;Node6</title>
<path fill="none" stroke="#191970" d="M421.4124,-280.2455C433.0057,-271.814 449.9748,-259.4729 463.4678,-249.6598"/>
<polygon fill="#191970" stroke="#191970" points="465.7126,-252.355 471.7413,-243.6427 461.5953,-246.6938 465.7126,-252.355"/>
</g>
<!-- Node7 -->
<g id="node8" class="node">
<title>Node7</title>
<polygon fill="#ffffff" stroke="#bfbfbf" points="486,-56.5 486,-75.5 542,-75.5 542,-56.5 486,-56.5"/>
<text text-anchor="middle" x="514" y="-63.5" font-family="Helvetica,sans-Serif" font-size="10.00" fill="#000000">stddef.h</text>
</g>
<!-- Node6&#45;&gt;Node7 -->
<g id="edge9" class="edge">
<title>Node6&#45;&gt;Node7</title>
<path fill="none" stroke="#191970" d="M505.8577,-224.4598C521.6442,-216.4489 543.0826,-203.7882 558,-188 577.5374,-167.3221 581.885,-159.5438 589,-132 591.2232,-123.3936 593.3418,-119.7564 589,-112 580.7987,-97.3489 565.8127,-86.7986 551.3805,-79.5288"/>
<polygon fill="#191970" stroke="#191970" points="552.5989,-76.2361 542.0534,-75.2151 549.6605,-82.5896 552.5989,-76.2361"/>
</g>
<!-- Node8 -->
<g id="node9" class="node">
<title>Node8</title>
<g id="a_node9"><a xlink:href="inttypes_8h.html" target="_top" xlink:title="Adds include for missing inttype definitions. ">
<polygon fill="#ffffff" stroke="#000000" points="605.5,-168.5 605.5,-187.5 668.5,-187.5 668.5,-168.5 605.5,-168.5"/>
<text text-anchor="middle" x="637" y="-175.5" font-family="Helvetica,sans-Serif" font-size="10.00" fill="#000000">inttypes.h</text>
</a>
</g>
</g>
<!-- Node6&#45;&gt;Node8 -->
<g id="edge10" class="edge">
<title>Node6&#45;&gt;Node8</title>
<path fill="none" stroke="#191970" d="M511.1297,-224.3733C536.0768,-215.1822 573.8592,-201.2624 601.5206,-191.0713"/>
<polygon fill="#191970" stroke="#191970" points="603.0378,-194.2424 611.2112,-187.5011 600.6178,-187.674 603.0378,-194.2424"/>
</g>
<!-- Node9 -->
<g id="node10" class="node">
<title>Node9</title>
<g id="a_node10"><a xlink:href="kernel__defines_8h.html" target="_top" xlink:title="Common macros and compiler attributes/pragmas configuration. ">
<polygon fill="#ffffff" stroke="#000000" points="249.5,-168.5 249.5,-187.5 344.5,-187.5 344.5,-168.5 249.5,-168.5"/>
<text text-anchor="middle" x="297" y="-175.5" font-family="Helvetica,sans-Serif" font-size="10.00" fill="#000000">kernel_defines.h</text>
</a>
</g>
</g>
<!-- Node6&#45;&gt;Node9 -->
<g id="edge11" class="edge">
<title>Node6&#45;&gt;Node9</title>
<path fill="none" stroke="#191970" d="M458.4629,-226.0953C427.3771,-216.8357 375.4869,-201.3791 338.9369,-190.4918"/>
<polygon fill="#191970" stroke="#191970" points="339.6478,-187.0517 329.0647,-187.5512 337.6494,-193.7604 339.6478,-187.0517"/>
</g>
<!-- Node14 -->
<g id="node15" class="node">
<title>Node14</title>
<g id="a_node15"><a xlink:href="native__sched_8h.html" target="_top" xlink:title="Add definitions required on the native board. ">
<polygon fill="#ffffff" stroke="#000000" points="401,-168.5 401,-187.5 487,-187.5 487,-168.5 401,-168.5"/>
<text text-anchor="middle" x="444" y="-175.5" font-family="Helvetica,sans-Serif" font-size="10.00" fill="#000000">native_sched.h</text>
</a>
</g>
</g>
<!-- Node6&#45;&gt;Node14 -->
<g id="edge21" class="edge">
<title>Node6&#45;&gt;Node14</title>
<path fill="none" stroke="#191970" d="M477.8583,-224.2455C472.1556,-216.4564 464.01,-205.3308 457.1375,-195.9439"/>
<polygon fill="#191970" stroke="#191970" points="459.7913,-193.6437 451.0598,-187.6427 454.1432,-197.7789 459.7913,-193.6437"/>
</g>
<!-- Node15 -->
<g id="node16" class="node">
<title>Node15</title>
<g id="a_node16"><a xlink:href="clist_8h.html" target="_top" xlink:title="Circular linked list. ">
<polygon fill="#ffffff" stroke="#000000" points="505.5,-168.5 505.5,-187.5 548.5,-187.5 548.5,-168.5 505.5,-168.5"/>
<text text-anchor="middle" x="527" y="-175.5" font-family="Helvetica,sans-Serif" font-size="10.00" fill="#000000">clist.h</text>
</a>
</g>
</g>
<!-- Node6&#45;&gt;Node15 -->
<g id="edge22" class="edge">
<title>Node6&#45;&gt;Node15</title>
<path fill="none" stroke="#191970" d="M492.3158,-224.2455C498.2179,-216.3761 506.6742,-205.101 513.7594,-195.6542"/>
<polygon fill="#191970" stroke="#191970" points="516.568,-197.7427 519.768,-187.6427 510.9679,-193.5427 516.568,-197.7427"/>
</g>
<!-- Node10 -->
<g id="node11" class="node">
<title>Node10</title>
<g id="a_node11"><a xlink:href="modules_8h.html" target="_top" xlink:title="Common macros and compiler attributes/pragmas configuration. ">
<polygon fill="#ffffff" stroke="#000000" points="216.5,-112.5 216.5,-131.5 281.5,-131.5 281.5,-112.5 216.5,-112.5"/>
<text text-anchor="middle" x="249" y="-119.5" font-family="Helvetica,sans-Serif" font-size="10.00" fill="#000000">modules.h</text>
</a>
</g>
</g>
<!-- Node9&#45;&gt;Node10 -->
<g id="edge12" class="edge">
<title>Node9&#45;&gt;Node10</title>
<path fill="none" stroke="#191970" d="M288.639,-168.2455C281.825,-160.2958 272.0319,-148.8706 263.8848,-139.3656"/>
<polygon fill="#191970" stroke="#191970" points="266.4305,-136.9575 257.2651,-131.6427 261.1157,-141.513 266.4305,-136.9575"/>
</g>
<!-- Node11 -->
<g id="node12" class="node">
<title>Node11</title>
<g id="a_node12"><a xlink:href="riot__version_8h.html" target="_top" xlink:title="Common macros and compiler attributes/pragmas configuration. ">
<polygon fill="#ffffff" stroke="#000000" points="212.5,-56.5 212.5,-75.5 293.5,-75.5 293.5,-56.5 212.5,-56.5"/>
<text text-anchor="middle" x="253" y="-63.5" font-family="Helvetica,sans-Serif" font-size="10.00" fill="#000000">riot_version.h</text>
</a>
</g>
</g>
<!-- Node9&#45;&gt;Node11 -->
<g id="edge13" class="edge">
<title>Node9&#45;&gt;Node11</title>
<path fill="none" stroke="#191970" d="M297.6437,-168.1841C298.1453,-154.911 297.7387,-130.7452 290,-112 285.6001,-101.3424 277.9219,-91.1684 270.6964,-83.1111"/>
<polygon fill="#191970" stroke="#191970" points="273.1885,-80.6526 263.76,-75.8198 268.1168,-85.4775 273.1885,-80.6526"/>
</g>
<!-- Node12 -->
<g id="node13" class="node">
<title>Node12</title>
<g id="a_node13"><a xlink:href="compiler__hints_8h.html" target="_top" xlink:title="Common macros and compiler attributes/pragmas configuration. ">
<polygon fill="#ffffff" stroke="#000000" points="105.5,-112.5 105.5,-131.5 198.5,-131.5 198.5,-112.5 105.5,-112.5"/>
<text text-anchor="middle" x="152" y="-119.5" font-family="Helvetica,sans-Serif" font-size="10.00" fill="#000000">compiler_hints.h</text>
</a>
</g>
</g>
<!-- Node9&#45;&gt;Node12 -->
<g id="edge15" class="edge">
<title>Node9&#45;&gt;Node12</title>
<path fill="none" stroke="#191970" d="M272.0736,-168.3733C248.3798,-159.2226 212.5489,-145.3844 186.1932,-135.2057"/>
<polygon fill="#191970" stroke="#191970" points="187.1906,-131.8389 176.6011,-131.5011 184.6686,-138.3689 187.1906,-131.8389"/>
</g>
<!-- Node13 -->
<g id="node14" class="node">
<title>Node13</title>
<g id="a_node14"><a xlink:href="container_8h.html" target="_top" xlink:title="Common macros and compiler attributes/pragmas configuration. ">
<polygon fill="#ffffff" stroke="#000000" points="338.5,-112.5 338.5,-131.5 407.5,-131.5 407.5,-112.5 338.5,-112.5"/>
<text text-anchor="middle" x="373" y="-119.5" font-family="Helvetica,sans-Serif" font-size="10.00" fill="#000000">container.h</text>
</a>
</g>
</g>
<!-- Node9&#45;&gt;Node13 -->
<g id="edge18" class="edge">
<title>Node9&#45;&gt;Node13</title>
<path fill="none" stroke="#191970" d="M310.2382,-168.2455C321.681,-159.814 338.4296,-147.4729 351.7475,-137.6598"/>
<polygon fill="#191970" stroke="#191970" points="353.9391,-140.3924 359.9135,-131.6427 349.7867,-134.757 353.9391,-140.3924"/>
</g>
<!-- Node11&#45;&gt;Node2 -->
<g id="edge14" class="edge">
<title>Node11&#45;&gt;Node2</title>
<path fill="none" stroke="#191970" d="M248.6453,-56.2455C245.2756,-48.6973 240.507,-38.0158 236.4017,-28.8197"/>
<polygon fill="#191970" stroke="#191970" points="239.5773,-27.3473 232.3048,-19.6427 233.1853,-30.2009 239.5773,-27.3473"/>
</g>
<!-- Node12&#45;&gt;Node1 -->
<g id="edge16" class="edge">
<title>Node12&#45;&gt;Node1</title>
<path fill="none" stroke="#191970" d="M130.5117,-112.3733C110.356,-103.3435 80.012,-89.7494 57.382,-79.6111"/>
<polygon fill="#191970" stroke="#191970" points="58.7649,-76.3955 48.2079,-75.5011 55.9029,-82.7838 58.7649,-76.3955"/>
</g>
<!-- Node12&#45;&gt;Node2 -->
<g id="edge17" class="edge">
<title>Node12&#45;&gt;Node2</title>
<path fill="none" stroke="#191970" d="M158.4797,-112.4509C171.1556,-93.7707 199.416,-52.1238 215.734,-28.0761"/>
<polygon fill="#191970" stroke="#191970" points="218.8178,-29.7649 221.5367,-19.5249 213.0255,-25.8344 218.8178,-29.7649"/>
</g>
<!-- Node13&#45;&gt;Node2 -->
<g id="edge20" class="edge">
<title>Node13&#45;&gt;Node2</title>
<path fill="none" stroke="#191970" d="M363.8717,-112.4184C350.8298,-98.9928 325.8018,-74.1899 302,-56 286.9151,-44.4717 268.8347,-33.1907 254.3219,-24.6855"/>
<polygon fill="#191970" stroke="#191970" points="255.7788,-21.4854 245.3674,-19.5224 252.2823,-27.5496 255.7788,-21.4854"/>
</g>
<!-- Node13&#45;&gt;Node7 -->
<g id="edge19" class="edge">
<title>Node13&#45;&gt;Node7</title>
<path fill="none" stroke="#191970" d="M397.2388,-112.3733C420.2789,-103.2226 455.1214,-89.3844 480.7501,-79.2057"/>
<polygon fill="#191970" stroke="#191970" points="482.0756,-82.4452 490.0775,-75.5011 479.4918,-75.9395 482.0756,-82.4452"/>
</g>
<!-- Node15&#45;&gt;Node3 -->
<g id="edge25" class="edge">
<title>Node15&#45;&gt;Node3</title>
<path fill="none" stroke="#191970" d="M532.9223,-168.2455C537.6027,-160.5367 544.2673,-149.5598 549.9289,-140.2348"/>
<polygon fill="#191970" stroke="#191970" points="552.9475,-142.007 555.1455,-131.6427 546.9639,-138.3741 552.9475,-142.007"/>
</g>
<!-- Node15&#45;&gt;Node5 -->
<g id="edge23" class="edge">
<title>Node15&#45;&gt;Node5</title>
<path fill="none" stroke="#191970" d="M514.6327,-168.2455C504.0446,-159.8943 488.5936,-147.7076 476.2107,-137.9408"/>
<polygon fill="#191970" stroke="#191970" points="478.2447,-135.0875 468.2255,-131.6427 473.9097,-140.5837 478.2447,-135.0875"/>
</g>
<!-- Node15&#45;&gt;Node7 -->
<g id="edge24" class="edge">
<title>Node15&#45;&gt;Node7</title>
<path fill="none" stroke="#191970" d="M525.8916,-168.4509C523.7714,-150.184 519.102,-109.9553 516.2863,-85.6976"/>
<polygon fill="#191970" stroke="#191970" points="519.7353,-85.0546 515.1056,-75.5249 512.782,-85.8618 519.7353,-85.0546"/>
</g>
</g>
</svg>
