<?xml version="1.0" encoding="UTF-8" standalone="no"?>
<!DOCTYPE svg PUBLIC "-//W3C//DTD SVG 1.1//EN"
 "http://www.w3.org/Graphics/SVG/1.1/DTD/svg11.dtd">
<!-- Generated by graphviz version 2.40.1 (0)
 -->
<!-- Title: drivers/include/mtd_sdmmc.h Pages: 1 -->
<svg width="618pt" height="319pt"
 viewBox="0.00 0.00 617.50 319.00" xmlns="http://www.w3.org/2000/svg" xmlns:xlink="http://www.w3.org/1999/xlink">
<g id="graph0" class="graph" transform="scale(1 1) rotate(0) translate(4 315)">
<title>drivers/include/mtd_sdmmc.h</title>
<polygon fill="#ffffff" stroke="transparent" points="-4,4 -4,-315 613.5,-315 613.5,4 -4,4"/>
<!-- Node0 -->
<g id="node1" class="node">
<title>Node0</title>
<polygon fill="#bfbfbf" stroke="#000000" points="79.5,-280.5 79.5,-310.5 188.5,-310.5 188.5,-280.5 79.5,-280.5"/>
<text text-anchor="start" x="87.5" y="-298.5" font-family="Helvetica,sans-Serif" font-size="10.00" fill="#000000">drivers/include/mtd</text>
<text text-anchor="middle" x="134" y="-287.5" font-family="Helvetica,sans-Serif" font-size="10.00" fill="#000000">_sdmmc.h</text>
</g>
<!-- Node1 -->
<g id="node2" class="node">
<title>Node1</title>
<polygon fill="#ffffff" stroke="#bfbfbf" points="186,-.5 186,-19.5 238,-19.5 238,-.5 186,-.5"/>
<text text-anchor="middle" x="212" y="-7.5" font-family="Helvetica,sans-Serif" font-size="10.00" fill="#000000">stdint.h</text>
</g>
<!-- Node0&#45;&gt;Node1 -->
<g id="edge1" class="edge">
<title>Node0&#45;&gt;Node1</title>
<path fill="none" stroke="#191970" d="M94.1584,-280.3784C54.6588,-262.4865 0,-228.5884 0,-178 0,-178 0,-178 0,-122 0,-43.6595 114.5766,-19.9731 175.2663,-12.9217"/>
<polygon fill="#191970" stroke="#191970" points="176.0057,-16.3628 185.5787,-11.8232 175.2642,-9.4022 176.0057,-16.3628"/>
</g>
<!-- Node2 -->
<g id="node3" class="node">
<title>Node2</title>
<g id="a_node3"><a xlink:href="mtd_8h.html" target="_top" xlink:title="mtd.h">
<polygon fill="#ffffff" stroke="#000000" points="112,-224.5 112,-243.5 156,-243.5 156,-224.5 112,-224.5"/>
<text text-anchor="middle" x="134" y="-231.5" font-family="Helvetica,sans-Serif" font-size="10.00" fill="#000000">mtd.h</text>
</a>
</g>
</g>
<!-- Node0&#45;&gt;Node2 -->
<g id="edge2" class="edge">
<title>Node0&#45;&gt;Node2</title>
<path fill="none" stroke="#191970" d="M134,-280.2977C134,-272.3834 134,-262.6043 134,-254.0759"/>
<polygon fill="#191970" stroke="#191970" points="137.5001,-253.8469 134,-243.8469 130.5001,-253.847 137.5001,-253.8469"/>
</g>
<!-- Node9 -->
<g id="node10" class="node">
<title>Node9</title>
<g id="a_node10"><a xlink:href="sdmmc_8h.html" target="_top" xlink:title="SDIO/SD/MMC device API using a low&#45;level peripheral driver. ">
<polygon fill="#ffffff" stroke="#000000" points="293.5,-224.5 293.5,-243.5 388.5,-243.5 388.5,-224.5 293.5,-224.5"/>
<text text-anchor="middle" x="341" y="-231.5" font-family="Helvetica,sans-Serif" font-size="10.00" fill="#000000">sdmmc/sdmmc.h</text>
</a>
</g>
</g>
<!-- Node0&#45;&gt;Node9 -->
<g id="edge12" class="edge">
<title>Node0&#45;&gt;Node9</title>
<path fill="none" stroke="#191970" d="M184.6379,-280.4554C219.7823,-270.0139 266.0424,-256.27 299.1103,-246.4455"/>
<polygon fill="#191970" stroke="#191970" points="300.3333,-249.7334 308.9223,-243.5303 298.3397,-243.0233 300.3333,-249.7334"/>
</g>
<!-- Node2&#45;&gt;Node1 -->
<g id="edge5" class="edge">
<title>Node2&#45;&gt;Node1</title>
<path fill="none" stroke="#191970" d="M111.9849,-227.5853C93.6367,-220.9428 68.6815,-208.5858 57,-188 45.5257,-167.7792 65.6728,-123.8007 74,-112 102.3314,-71.8508 151.4403,-41.096 182.7928,-24.2964"/>
<polygon fill="#191970" stroke="#191970" points="184.6658,-27.2669 191.9102,-19.5358 181.4258,-21.0618 184.6658,-27.2669"/>
</g>
<!-- Node3 -->
<g id="node4" class="node">
<title>Node3</title>
<polygon fill="#ffffff" stroke="#bfbfbf" points="66,-168.5 66,-187.5 126,-187.5 126,-168.5 66,-168.5"/>
<text text-anchor="middle" x="96" y="-175.5" font-family="Helvetica,sans-Serif" font-size="10.00" fill="#000000">stdbool.h</text>
</g>
<!-- Node2&#45;&gt;Node3 -->
<g id="edge3" class="edge">
<title>Node2&#45;&gt;Node3</title>
<path fill="none" stroke="#191970" d="M127.3809,-224.2455C122.0954,-216.4564 114.5459,-205.3308 108.1762,-195.9439"/>
<polygon fill="#191970" stroke="#191970" points="111.0545,-193.9522 102.5432,-187.6427 105.2621,-197.8827 111.0545,-193.9522"/>
</g>
<!-- Node4 -->
<g id="node5" class="node">
<title>Node4</title>
<polygon fill="#ffffff" stroke="#bfbfbf" points="144,-168.5 144,-187.5 200,-187.5 200,-168.5 144,-168.5"/>
<text text-anchor="middle" x="172" y="-175.5" font-family="Helvetica,sans-Serif" font-size="10.00" fill="#000000">stddef.h</text>
</g>
<!-- Node2&#45;&gt;Node4 -->
<g id="edge4" class="edge">
<title>Node2&#45;&gt;Node4</title>
<path fill="none" stroke="#191970" d="M140.6191,-224.2455C145.9046,-216.4564 153.4541,-205.3308 159.8238,-195.9439"/>
<polygon fill="#191970" stroke="#191970" points="162.7379,-197.8827 165.4568,-187.6427 156.9455,-193.9522 162.7379,-197.8827"/>
</g>
<!-- Node5 -->
<g id="node6" class="node">
<title>Node5</title>
<g id="a_node6"><a xlink:href="xfa_8h.html" target="_top" xlink:title="Cross File Arrays. ">
<polygon fill="#ffffff" stroke="#000000" points="218,-168.5 218,-187.5 258,-187.5 258,-168.5 218,-168.5"/>
<text text-anchor="middle" x="238" y="-175.5" font-family="Helvetica,sans-Serif" font-size="10.00" fill="#000000">xfa.h</text>
</a>
</g>
</g>
<!-- Node2&#45;&gt;Node5 -->
<g id="edge6" class="edge">
<title>Node2&#45;&gt;Node5</title>
<path fill="none" stroke="#191970" d="M152.1154,-224.2455C168.445,-215.4527 192.671,-202.4079 211.2339,-192.4125"/>
<polygon fill="#191970" stroke="#191970" points="212.9468,-195.4654 220.0922,-187.6427 209.6281,-189.3021 212.9468,-195.4654"/>
</g>
<!-- Node6 -->
<g id="node7" class="node">
<title>Node6</title>
<g id="a_node7"><a xlink:href="inttypes_8h.html" target="_top" xlink:title="Adds include for missing inttype definitions. ">
<polygon fill="#ffffff" stroke="#000000" points="83.5,-112.5 83.5,-131.5 146.5,-131.5 146.5,-112.5 83.5,-112.5"/>
<text text-anchor="middle" x="115" y="-119.5" font-family="Helvetica,sans-Serif" font-size="10.00" fill="#000000">inttypes.h</text>
</a>
</g>
</g>
<!-- Node5&#45;&gt;Node6 -->
<g id="edge7" class="edge">
<title>Node5&#45;&gt;Node6</title>
<path fill="none" stroke="#191970" d="M217.9642,-168.878C198.308,-159.9289 168.0742,-146.1639 145.4454,-135.8613"/>
<polygon fill="#191970" stroke="#191970" points="146.8173,-132.6403 136.2659,-131.682 143.9168,-139.0111 146.8173,-132.6403"/>
</g>
<!-- Node7 -->
<g id="node8" class="node">
<title>Node7</title>
<g id="a_node8"><a xlink:href="compiler__hints_8h.html" target="_top" xlink:title="Common macros and compiler attributes/pragmas configuration. ">
<polygon fill="#ffffff" stroke="#000000" points="164.5,-112.5 164.5,-131.5 257.5,-131.5 257.5,-112.5 164.5,-112.5"/>
<text text-anchor="middle" x="211" y="-119.5" font-family="Helvetica,sans-Serif" font-size="10.00" fill="#000000">compiler_hints.h</text>
</a>
</g>
</g>
<!-- Node5&#45;&gt;Node7 -->
<g id="edge8" class="edge">
<title>Node5&#45;&gt;Node7</title>
<path fill="none" stroke="#191970" d="M233.297,-168.2455C229.6576,-160.6973 224.5076,-150.0158 220.0738,-140.8197"/>
<polygon fill="#191970" stroke="#191970" points="223.1449,-139.1303 215.6491,-131.6427 216.8395,-142.1704 223.1449,-139.1303"/>
</g>
<!-- Node7&#45;&gt;Node1 -->
<g id="edge11" class="edge">
<title>Node7&#45;&gt;Node1</title>
<path fill="none" stroke="#191970" d="M199.8194,-112.1573C187.0277,-99.6336 168.7285,-77.0897 176,-56 179.7187,-45.2144 187.1213,-35.0249 194.2519,-26.9904"/>
<polygon fill="#191970" stroke="#191970" points="196.7967,-29.3934 201.1452,-19.7321 191.7209,-24.5729 196.7967,-29.3934"/>
</g>
<!-- Node8 -->
<g id="node9" class="node">
<title>Node8</title>
<g id="a_node9"><a xlink:href="assert_8h.html" target="_top" xlink:title="POSIX.1&#45;2008 compliant version of the assert macro. ">
<polygon fill="#ffffff" stroke="#000000" points="185,-56.5 185,-75.5 239,-75.5 239,-56.5 185,-56.5"/>
<text text-anchor="middle" x="212" y="-63.5" font-family="Helvetica,sans-Serif" font-size="10.00" fill="#000000">assert.h</text>
</a>
</g>
</g>
<!-- Node7&#45;&gt;Node8 -->
<g id="edge9" class="edge">
<title>Node7&#45;&gt;Node8</title>
<path fill="none" stroke="#191970" d="M211.1742,-112.2455C211.3047,-104.9382 211.4876,-94.6944 211.6481,-85.7046"/>
<polygon fill="#191970" stroke="#191970" points="215.1486,-85.7036 211.8278,-75.6427 208.1497,-85.5786 215.1486,-85.7036"/>
</g>
<!-- Node8&#45;&gt;Node1 -->
<g id="edge10" class="edge">
<title>Node8&#45;&gt;Node1</title>
<path fill="none" stroke="#191970" d="M212,-56.2455C212,-48.9382 212,-38.6944 212,-29.7046"/>
<polygon fill="#191970" stroke="#191970" points="215.5001,-29.6426 212,-19.6427 208.5001,-29.6427 215.5001,-29.6426"/>
</g>
<!-- Node9&#45;&gt;Node5 -->
<g id="edge24" class="edge">
<title>Node9&#45;&gt;Node5</title>
<path fill="none" stroke="#191970" d="M323.0588,-224.2455C306.96,-215.4928 283.1121,-202.527 264.7609,-192.5496"/>
<polygon fill="#191970" stroke="#191970" points="266.1929,-189.3444 255.7356,-187.6427 262.8493,-195.4942 266.1929,-189.3444"/>
</g>
<!-- Node9&#45;&gt;Node8 -->
<g id="edge14" class="edge">
<title>Node9&#45;&gt;Node8</title>
<path fill="none" stroke="#191970" d="M332.4169,-224.177C324.7337,-215.1299 313.4155,-201.1559 305,-188 284.5419,-156.018 289.5663,-141.7659 266,-112 257.0416,-100.6849 244.9693,-90.0899 234.5111,-81.9268"/>
<polygon fill="#191970" stroke="#191970" points="236.3045,-78.896 226.2097,-75.6793 232.0952,-84.4891 236.3045,-78.896"/>
</g>
<!-- Node10 -->
<g id="node11" class="node">
<title>Node10</title>
<g id="a_node11"><a xlink:href="errno_8h.html" target="_top" xlink:title="errno.h">
<polygon fill="#ffffff" stroke="#000000" points="314.5,-168.5 314.5,-187.5 367.5,-187.5 367.5,-168.5 314.5,-168.5"/>
<text text-anchor="middle" x="341" y="-175.5" font-family="Helvetica,sans-Serif" font-size="10.00" fill="#000000">errno.h</text>
</a>
</g>
</g>
<!-- Node9&#45;&gt;Node10 -->
<g id="edge13" class="edge">
<title>Node9&#45;&gt;Node10</title>
<path fill="none" stroke="#191970" d="M341,-224.2455C341,-216.9382 341,-206.6944 341,-197.7046"/>
<polygon fill="#191970" stroke="#191970" points="344.5001,-197.6426 341,-187.6427 337.5001,-197.6427 344.5001,-197.6426"/>
</g>
<!-- Node11 -->
<g id="node12" class="node">
<title>Node11</title>
<g id="a_node12"><a xlink:href="byteorder_8h.html" target="_top" xlink:title="Functions to work with different byte orders. ">
<polygon fill="#ffffff" stroke="#000000" points="358.5,-112.5 358.5,-131.5 431.5,-131.5 431.5,-112.5 358.5,-112.5"/>
<text text-anchor="middle" x="395" y="-119.5" font-family="Helvetica,sans-Serif" font-size="10.00" fill="#000000">byteorder.h</text>
</a>
</g>
</g>
<!-- Node9&#45;&gt;Node11 -->
<g id="edge15" class="edge">
<title>Node9&#45;&gt;Node11</title>
<path fill="none" stroke="#191970" d="M349.9385,-224.4888C357.8081,-215.6516 369.0652,-201.8105 376,-188 383.3572,-173.3484 388.2924,-155.3957 391.2849,-141.9148"/>
<polygon fill="#191970" stroke="#191970" points="394.7761,-142.312 393.3522,-131.8133 387.9182,-140.9084 394.7761,-142.312"/>
</g>
<!-- Node15 -->
<g id="node16" class="node">
<title>Node15</title>
<g id="a_node16"><a xlink:href="units_8h.html" target="_top" xlink:title="Unit helper macros. ">
<polygon fill="#ffffff" stroke="#000000" points="424,-168.5 424,-187.5 510,-187.5 510,-168.5 424,-168.5"/>
<text text-anchor="middle" x="467" y="-175.5" font-family="Helvetica,sans-Serif" font-size="10.00" fill="#000000">macros/units.h</text>
</a>
</g>
</g>
<!-- Node9&#45;&gt;Node15 -->
<g id="edge22" class="edge">
<title>Node9&#45;&gt;Node15</title>
<path fill="none" stroke="#191970" d="M362.6602,-224.3733C382.9772,-215.3435 413.564,-201.7494 436.375,-191.6111"/>
<polygon fill="#191970" stroke="#191970" points="437.9059,-194.7609 445.6225,-187.5011 435.0628,-188.3642 437.9059,-194.7609"/>
</g>
<!-- Node16 -->
<g id="node17" class="node">
<title>Node16</title>
<polygon fill="#ffffff" stroke="#bfbfbf" points="528.5,-168.5 528.5,-187.5 609.5,-187.5 609.5,-168.5 528.5,-168.5"/>
<text text-anchor="middle" x="569" y="-175.5" font-family="Helvetica,sans-Serif" font-size="10.00" fill="#000000">periph_conf.h</text>
</g>
<!-- Node9&#45;&gt;Node16 -->
<g id="edge23" class="edge">
<title>Node9&#45;&gt;Node16</title>
<path fill="none" stroke="#191970" d="M379.9355,-224.4369C418.792,-214.8932 478.593,-200.2052 520.5089,-189.9101"/>
<polygon fill="#191970" stroke="#191970" points="521.3486,-193.308 530.2251,-187.5237 519.6788,-186.51 521.3486,-193.308"/>
</g>
<!-- Node11&#45;&gt;Node1 -->
<g id="edge17" class="edge">
<title>Node11&#45;&gt;Node1</title>
<path fill="none" stroke="#191970" d="M365.0205,-112.3666C342.3625,-104.3857 310.9991,-91.8069 286,-76 263.9021,-62.0275 241.9788,-41.4044 227.8006,-26.9395"/>
<polygon fill="#191970" stroke="#191970" points="230.2202,-24.406 220.7687,-19.6184 225.1717,-29.255 230.2202,-24.406"/>
</g>
<!-- Node12 -->
<g id="node13" class="node">
<title>Node12</title>
<polygon fill="#ffffff" stroke="#bfbfbf" points="295.5,-56.5 295.5,-75.5 348.5,-75.5 348.5,-56.5 295.5,-56.5"/>
<text text-anchor="middle" x="322" y="-63.5" font-family="Helvetica,sans-Serif" font-size="10.00" fill="#000000">string.h</text>
</g>
<!-- Node11&#45;&gt;Node12 -->
<g id="edge16" class="edge">
<title>Node11&#45;&gt;Node12</title>
<path fill="none" stroke="#191970" d="M382.2844,-112.2455C371.398,-103.8943 355.5117,-91.7076 342.78,-81.9408"/>
<polygon fill="#191970" stroke="#191970" points="344.6346,-78.9523 334.5699,-75.6427 340.3739,-84.5063 344.6346,-78.9523"/>
</g>
<!-- Node13 -->
<g id="node14" class="node">
<title>Node13</title>
<g id="a_node14"><a xlink:href="endian_8h.html" target="_top" xlink:title="libc header for endian conversion ">
<polygon fill="#ffffff" stroke="#000000" points="366.5,-56.5 366.5,-75.5 423.5,-75.5 423.5,-56.5 366.5,-56.5"/>
<text text-anchor="middle" x="395" y="-63.5" font-family="Helvetica,sans-Serif" font-size="10.00" fill="#000000">endian.h</text>
</a>
</g>
</g>
<!-- Node11&#45;&gt;Node13 -->
<g id="edge18" class="edge">
<title>Node11&#45;&gt;Node13</title>
<path fill="none" stroke="#191970" d="M395,-112.2455C395,-104.9382 395,-94.6944 395,-85.7046"/>
<polygon fill="#191970" stroke="#191970" points="398.5001,-85.6426 395,-75.6427 391.5001,-85.6427 398.5001,-85.6426"/>
</g>
<!-- Node14 -->
<g id="node15" class="node">
<title>Node14</title>
<g id="a_node15"><a xlink:href="unaligned_8h.html" target="_top" xlink:title="Unaligned but safe memory access functions. ">
<polygon fill="#ffffff" stroke="#000000" points="441.5,-56.5 441.5,-75.5 512.5,-75.5 512.5,-56.5 441.5,-56.5"/>
<text text-anchor="middle" x="477" y="-63.5" font-family="Helvetica,sans-Serif" font-size="10.00" fill="#000000">unaligned.h</text>
</a>
</g>
</g>
<!-- Node11&#45;&gt;Node14 -->
<g id="edge20" class="edge">
<title>Node11&#45;&gt;Node14</title>
<path fill="none" stroke="#191970" d="M409.2833,-112.2455C421.747,-103.7337 440.0451,-91.2375 454.4792,-81.3801"/>
<polygon fill="#191970" stroke="#191970" points="456.5962,-84.1726 462.8804,-75.6427 452.6485,-78.392 456.5962,-84.1726"/>
</g>
<!-- Node13&#45;&gt;Node1 -->
<g id="edge19" class="edge">
<title>Node13&#45;&gt;Node1</title>
<path fill="none" stroke="#191970" d="M366.4063,-57.25C334.3836,-47.4507 282.4371,-31.5545 247.7552,-20.9415"/>
<polygon fill="#191970" stroke="#191970" points="248.6116,-17.5434 238.0251,-17.964 246.5632,-24.237 248.6116,-17.5434"/>
</g>
<!-- Node14&#45;&gt;Node1 -->
<g id="edge21" class="edge">
<title>Node14&#45;&gt;Node1</title>
<path fill="none" stroke="#191970" d="M441.1475,-57.9903C438.0546,-57.3122 434.9728,-56.6411 432,-56 367.2013,-42.0263 291.5236,-26.3418 247.9403,-17.3705"/>
<polygon fill="#191970" stroke="#191970" points="248.5993,-13.9329 238.0992,-15.3467 247.1892,-20.7894 248.5993,-13.9329"/>
</g>
</g>
</svg>
