<?xml version="1.0" encoding="UTF-8" standalone="no"?>
<!DOCTYPE svg PUBLIC "-//W3C//DTD SVG 1.1//EN"
 "http://www.w3.org/Graphics/SVG/1.1/DTD/svg11.dtd">
<!-- Generated by graphviz version 2.40.1 (0)
 -->
<!-- Title: drivers/include/mtd.h Pages: 1 -->
<svg width="2907pt" height="229pt"
 viewBox="0.00 0.00 2907.00 229.00" xmlns="http://www.w3.org/2000/svg" xmlns:xlink="http://www.w3.org/1999/xlink">
<g id="graph0" class="graph" transform="scale(1 1) rotate(0) translate(4 225)">
<title>drivers/include/mtd.h</title>
<polygon fill="#ffffff" stroke="transparent" points="-4,4 -4,-225 2903,-225 2903,4 -4,4"/>
<!-- Node8 -->
<g id="node1" class="node">
<title>Node8</title>
<polygon fill="#bfbfbf" stroke="#000000" points="1039,-201.5 1039,-220.5 1157,-220.5 1157,-201.5 1039,-201.5"/>
<text text-anchor="middle" x="1098" y="-208.5" font-family="Helvetica,sans-Serif" font-size="10.00" fill="#000000">drivers/include/mtd.h</text>
</g>
<!-- Node9 -->
<g id="node2" class="node">
<title>Node9</title>
<g id="a_node2"><a xlink:href="mtd__native_8h.html" target="_top" xlink:title="cpu/native/include\l/mtd_native.h">
<polygon fill="#ffffff" stroke="#000000" points="0,-134.5 0,-164.5 102,-164.5 102,-134.5 0,-134.5"/>
<text text-anchor="start" x="8" y="-152.5" font-family="Helvetica,sans-Serif" font-size="10.00" fill="#000000">cpu/native/include</text>
<text text-anchor="middle" x="51" y="-141.5" font-family="Helvetica,sans-Serif" font-size="10.00" fill="#000000">/mtd_native.h</text>
</a>
</g>
</g>
<!-- Node8&#45;&gt;Node9 -->
<g id="edge1" class="edge">
<title>Node8&#45;&gt;Node9</title>
<path fill="none" stroke="#191970" d="M1028.7052,-209.629C834.6352,-205.4934 288.3677,-191.7501 111,-165 108.1277,-164.5668 105.1938,-164.0526 102.2433,-163.4792"/>
<polygon fill="#191970" stroke="#191970" points="1028.7084,-213.1297 1038.7801,-209.8417 1028.8562,-206.1313 1028.7084,-213.1297"/>
</g>
<!-- Node10 -->
<g id="node3" class="node">
<title>Node10</title>
<g id="a_node3"><a xlink:href="mtd__sam0__sdhc_8h.html" target="_top" xlink:title="Interface definition for SAM SDHC driver. ">
<polygon fill="#ffffff" stroke="#000000" points="120.5,-134.5 120.5,-164.5 263.5,-164.5 263.5,-134.5 120.5,-134.5"/>
<text text-anchor="start" x="128.5" y="-152.5" font-family="Helvetica,sans-Serif" font-size="10.00" fill="#000000">cpu/sam0_common/include</text>
<text text-anchor="middle" x="192" y="-141.5" font-family="Helvetica,sans-Serif" font-size="10.00" fill="#000000">/mtd_sam0_sdhc.h</text>
</a>
</g>
</g>
<!-- Node8&#45;&gt;Node10 -->
<g id="edge2" class="edge">
<title>Node8&#45;&gt;Node10</title>
<path fill="none" stroke="#191970" d="M1028.5906,-210.31C886.2009,-208.1964 550.9715,-199.6308 272,-165 269.3325,-164.6689 266.6203,-164.3015 263.8847,-163.9051"/>
<polygon fill="#191970" stroke="#191970" points="1028.8655,-213.8142 1038.9143,-210.4569 1028.9652,-206.8149 1028.8655,-213.8142"/>
</g>
<!-- Node11 -->
<g id="node4" class="node">
<title>Node11</title>
<g id="a_node4"><a xlink:href="mtd__at24cxxx_8h.html" target="_top" xlink:title="Interface definition for at24cxxx MTD wrapper. ">
<polygon fill="#ffffff" stroke="#000000" points="281.5,-134.5 281.5,-164.5 390.5,-164.5 390.5,-134.5 281.5,-134.5"/>
<text text-anchor="start" x="289.5" y="-152.5" font-family="Helvetica,sans-Serif" font-size="10.00" fill="#000000">drivers/include/mtd</text>
<text text-anchor="middle" x="336" y="-141.5" font-family="Helvetica,sans-Serif" font-size="10.00" fill="#000000">_at24cxxx.h</text>
</a>
</g>
</g>
<!-- Node8&#45;&gt;Node11 -->
<g id="edge3" class="edge">
<title>Node8&#45;&gt;Node11</title>
<path fill="none" stroke="#191970" d="M1028.7741,-207.9939C877.006,-201.1508 518.9842,-183.5608 399,-165 396.2172,-164.5695 393.3771,-164.0753 390.5174,-163.5339"/>
<polygon fill="#191970" stroke="#191970" points="1028.7567,-211.4965 1038.9036,-208.4484 1029.0706,-204.5036 1028.7567,-211.4965"/>
</g>
<!-- Node12 -->
<g id="node5" class="node">
<title>Node12</title>
<g id="a_node5"><a xlink:href="mtd__default_8h_source.html" target="_top" xlink:title="drivers/include/mtd\l_default.h">
<polygon fill="#ffffff" stroke="#000000" points="408.5,-134.5 408.5,-164.5 517.5,-164.5 517.5,-134.5 408.5,-134.5"/>
<text text-anchor="start" x="416.5" y="-152.5" font-family="Helvetica,sans-Serif" font-size="10.00" fill="#000000">drivers/include/mtd</text>
<text text-anchor="middle" x="463" y="-141.5" font-family="Helvetica,sans-Serif" font-size="10.00" fill="#000000">_default.h</text>
</a>
</g>
</g>
<!-- Node8&#45;&gt;Node12 -->
<g id="edge4" class="edge">
<title>Node8&#45;&gt;Node12</title>
<path fill="none" stroke="#191970" d="M1028.6295,-209.0207C920.5808,-205.13 705.8196,-194.1564 526,-165 523.2204,-164.5493 520.3828,-164.0388 517.5252,-163.4845"/>
<polygon fill="#191970" stroke="#191970" points="1028.6314,-212.5228 1038.7479,-209.3754 1028.8767,-205.5271 1028.6314,-212.5228"/>
</g>
<!-- Node14 -->
<g id="node7" class="node">
<title>Node14</title>
<g id="a_node7"><a xlink:href="mtd__emulated_8h_source.html" target="_top" xlink:title="drivers/include/mtd\l_emulated.h">
<polygon fill="#ffffff" stroke="#000000" points="535.5,-134.5 535.5,-164.5 644.5,-164.5 644.5,-134.5 535.5,-134.5"/>
<text text-anchor="start" x="543.5" y="-152.5" font-family="Helvetica,sans-Serif" font-size="10.00" fill="#000000">drivers/include/mtd</text>
<text text-anchor="middle" x="590" y="-141.5" font-family="Helvetica,sans-Serif" font-size="10.00" fill="#000000">_emulated.h</text>
</a>
</g>
</g>
<!-- Node8&#45;&gt;Node14 -->
<g id="edge6" class="edge">
<title>Node8&#45;&gt;Node14</title>
<path fill="none" stroke="#191970" d="M1028.8673,-206.8268C941.019,-200.8439 784.9398,-187.9368 653,-165 650.2257,-164.5177 647.3924,-163.9818 644.5382,-163.4073"/>
<polygon fill="#191970" stroke="#191970" points="1028.7636,-210.3276 1038.9755,-207.5051 1029.2323,-203.3433 1028.7636,-210.3276"/>
</g>
<!-- Node15 -->
<g id="node8" class="node">
<title>Node15</title>
<g id="a_node8"><a xlink:href="mtd__flashpage_8h.html" target="_top" xlink:title="Interface definition for the flashpage memory driver. ">
<polygon fill="#ffffff" stroke="#000000" points="662.5,-134.5 662.5,-164.5 771.5,-164.5 771.5,-134.5 662.5,-134.5"/>
<text text-anchor="start" x="670.5" y="-152.5" font-family="Helvetica,sans-Serif" font-size="10.00" fill="#000000">drivers/include/mtd</text>
<text text-anchor="middle" x="717" y="-141.5" font-family="Helvetica,sans-Serif" font-size="10.00" fill="#000000">_flashpage.h</text>
</a>
</g>
</g>
<!-- Node8&#45;&gt;Node15 -->
<g id="edge7" class="edge">
<title>Node8&#45;&gt;Node15</title>
<path fill="none" stroke="#191970" d="M1028.7355,-202.9587C964.0954,-194.9872 865.1053,-181.5837 780,-165 777.2361,-164.4614 774.4112,-163.8802 771.5635,-163.2698"/>
<polygon fill="#191970" stroke="#191970" points="1028.4564,-206.4506 1038.8075,-204.1911 1029.3066,-199.5024 1028.4564,-206.4506"/>
</g>
<!-- Node16 -->
<g id="node9" class="node">
<title>Node16</title>
<g id="a_node9"><a xlink:href="mtd__mapper_8h_source.html" target="_top" xlink:title="drivers/include/mtd\l_mapper.h">
<polygon fill="#ffffff" stroke="#000000" points="789.5,-134.5 789.5,-164.5 898.5,-164.5 898.5,-134.5 789.5,-134.5"/>
<text text-anchor="start" x="797.5" y="-152.5" font-family="Helvetica,sans-Serif" font-size="10.00" fill="#000000">drivers/include/mtd</text>
<text text-anchor="middle" x="844" y="-141.5" font-family="Helvetica,sans-Serif" font-size="10.00" fill="#000000">_mapper.h</text>
</a>
</g>
</g>
<!-- Node8&#45;&gt;Node16 -->
<g id="edge8" class="edge">
<title>Node8&#45;&gt;Node16</title>
<path fill="none" stroke="#191970" d="M1048.1805,-199.0722C1009.629,-189.8252 954.9139,-176.6638 907,-165 904.264,-164.334 901.4615,-163.6502 898.6317,-162.9585"/>
<polygon fill="#191970" stroke="#191970" points="1047.5714,-202.5254 1058.1119,-201.4536 1049.2037,-195.7183 1047.5714,-202.5254"/>
</g>
<!-- Node17 -->
<g id="node10" class="node">
<title>Node17</title>
<g id="a_node10"><a xlink:href="mtd__sdcard_8h.html" target="_top" xlink:title="Interface definition for the mtd_sdcard driver. ">
<polygon fill="#ffffff" stroke="#000000" points="916.5,-134.5 916.5,-164.5 1025.5,-164.5 1025.5,-134.5 916.5,-134.5"/>
<text text-anchor="start" x="924.5" y="-152.5" font-family="Helvetica,sans-Serif" font-size="10.00" fill="#000000">drivers/include/mtd</text>
<text text-anchor="middle" x="971" y="-141.5" font-family="Helvetica,sans-Serif" font-size="10.00" fill="#000000">_sdcard.h</text>
</a>
</g>
</g>
<!-- Node8&#45;&gt;Node17 -->
<g id="edge9" class="edge">
<title>Node8&#45;&gt;Node17</title>
<path fill="none" stroke="#191970" d="M1068.9283,-196.922C1048.9519,-187.2484 1022.4599,-174.4196 1002.0677,-164.5446"/>
<polygon fill="#191970" stroke="#191970" points="1067.6305,-200.1823 1078.1563,-201.3906 1070.6814,-193.8821 1067.6305,-200.1823"/>
</g>
<!-- Node18 -->
<g id="node11" class="node">
<title>Node18</title>
<g id="a_node11"><a xlink:href="mtd__sdmmc_8h.html" target="_top" xlink:title="Interface definition for the mtd_sdmmc driver. ">
<polygon fill="#ffffff" stroke="#000000" points="1043.5,-134.5 1043.5,-164.5 1152.5,-164.5 1152.5,-134.5 1043.5,-134.5"/>
<text text-anchor="start" x="1051.5" y="-152.5" font-family="Helvetica,sans-Serif" font-size="10.00" fill="#000000">drivers/include/mtd</text>
<text text-anchor="middle" x="1098" y="-141.5" font-family="Helvetica,sans-Serif" font-size="10.00" fill="#000000">_sdmmc.h</text>
</a>
</g>
</g>
<!-- Node8&#45;&gt;Node18 -->
<g id="edge10" class="edge">
<title>Node8&#45;&gt;Node18</title>
<path fill="none" stroke="#191970" d="M1098,-191.3693C1098,-182.681 1098,-172.6241 1098,-164.5446"/>
<polygon fill="#191970" stroke="#191970" points="1094.5001,-191.3906 1098,-201.3906 1101.5001,-191.3907 1094.5001,-191.3906"/>
</g>
<!-- Node19 -->
<g id="node12" class="node">
<title>Node19</title>
<g id="a_node12"><a xlink:href="mtd__spi__nor_8h.html" target="_top" xlink:title="Interface definition for the serial flash memory driver. ">
<polygon fill="#ffffff" stroke="#000000" points="1170.5,-134.5 1170.5,-164.5 1279.5,-164.5 1279.5,-134.5 1170.5,-134.5"/>
<text text-anchor="start" x="1178.5" y="-152.5" font-family="Helvetica,sans-Serif" font-size="10.00" fill="#000000">drivers/include/mtd</text>
<text text-anchor="middle" x="1225" y="-141.5" font-family="Helvetica,sans-Serif" font-size="10.00" fill="#000000">_spi_nor.h</text>
</a>
</g>
</g>
<!-- Node8&#45;&gt;Node19 -->
<g id="edge11" class="edge">
<title>Node8&#45;&gt;Node19</title>
<path fill="none" stroke="#191970" d="M1127.0717,-196.922C1147.0481,-187.2484 1173.5401,-174.4196 1193.9323,-164.5446"/>
<polygon fill="#191970" stroke="#191970" points="1125.3186,-193.8821 1117.8438,-201.3906 1128.3695,-200.1823 1125.3186,-193.8821"/>
</g>
<!-- Node20 -->
<g id="node13" class="node">
<title>Node20</title>
<g id="a_node13"><a xlink:href="vcdiff__mtd_8h.html" target="_top" xlink:title="pkg/tinyvcdiff/include\l/vcdiff_mtd.h">
<polygon fill="#ffffff" stroke="#000000" points="1297.5,-134.5 1297.5,-164.5 1414.5,-164.5 1414.5,-134.5 1297.5,-134.5"/>
<text text-anchor="start" x="1305.5" y="-152.5" font-family="Helvetica,sans-Serif" font-size="10.00" fill="#000000">pkg/tinyvcdiff/include</text>
<text text-anchor="middle" x="1356" y="-141.5" font-family="Helvetica,sans-Serif" font-size="10.00" fill="#000000">/vcdiff_mtd.h</text>
</a>
</g>
</g>
<!-- Node8&#45;&gt;Node20 -->
<g id="edge12" class="edge">
<title>Node8&#45;&gt;Node20</title>
<path fill="none" stroke="#191970" d="M1147.9142,-199.1018C1190.5976,-188.9273 1252.0908,-174.2691 1297.1614,-163.5255"/>
<polygon fill="#191970" stroke="#191970" points="1146.9453,-195.7347 1138.0294,-201.4581 1148.5685,-202.5439 1146.9453,-195.7347"/>
</g>
<!-- Node21 -->
<g id="node14" class="node">
<title>Node21</title>
<g id="a_node14"><a xlink:href="littlefs2__fs_8h.html" target="_top" xlink:title="littlefs v2 integration with vfs ">
<polygon fill="#ffffff" stroke="#000000" points="1112,-73 1112,-92 1252,-92 1252,-73 1112,-73"/>
<text text-anchor="middle" x="1182" y="-80" font-family="Helvetica,sans-Serif" font-size="10.00" fill="#000000">sys/include/fs/littlefs2_fs.h</text>
</a>
</g>
</g>
<!-- Node8&#45;&gt;Node21 -->
<g id="edge13" class="edge">
<title>Node8&#45;&gt;Node21</title>
<path fill="none" stroke="#191970" d="M1167.4988,-205.963C1257.9524,-198.6892 1406.4948,-184.0058 1423,-165 1432.0339,-154.5974 1431.6648,-144.7121 1423,-134 1419.9435,-130.2213 1299.7523,-105.8498 1230.2891,-92.0303"/>
<polygon fill="#191970" stroke="#191970" points="1167.0025,-202.4913 1157.3104,-206.7708 1167.5558,-209.4694 1167.0025,-202.4913"/>
</g>
<!-- Node22 -->
<g id="node15" class="node">
<title>Node22</title>
<g id="a_node15"><a xlink:href="littlefs__fs_8h.html" target="_top" xlink:title="littlefs integration with vfs ">
<polygon fill="#ffffff" stroke="#000000" points="1270,-73 1270,-92 1404,-92 1404,-73 1270,-73"/>
<text text-anchor="middle" x="1337" y="-80" font-family="Helvetica,sans-Serif" font-size="10.00" fill="#000000">sys/include/fs/littlefs_fs.h</text>
</a>
</g>
</g>
<!-- Node8&#45;&gt;Node22 -->
<g id="edge14" class="edge">
<title>Node8&#45;&gt;Node22</title>
<path fill="none" stroke="#191970" d="M1167.2714,-206.536C1262.2608,-199.6982 1423.2751,-185.2606 1441,-165 1468.087,-134.0378 1406.8377,-106.1436 1367.2707,-92.0921"/>
<polygon fill="#191970" stroke="#191970" points="1166.8884,-203.0543 1157.1611,-207.2531 1167.3837,-210.0368 1166.8884,-203.0543"/>
</g>
<!-- Node23 -->
<g id="node16" class="node">
<title>Node23</title>
<g id="a_node16"><a xlink:href="lwext4__fs_8h.html" target="_top" xlink:title="lwext4 integration with vfs ">
<polygon fill="#ffffff" stroke="#000000" points="1422,-73 1422,-92 1558,-92 1558,-73 1422,-73"/>
<text text-anchor="middle" x="1490" y="-80" font-family="Helvetica,sans-Serif" font-size="10.00" fill="#000000">sys/include/fs/lwext4_fs.h</text>
</a>
</g>
</g>
<!-- Node8&#45;&gt;Node23 -->
<g id="edge15" class="edge">
<title>Node8&#45;&gt;Node23</title>
<path fill="none" stroke="#191970" d="M1167.27,-206.0156C1265.6824,-198.3591 1436.593,-182.7175 1459,-165 1481.9239,-146.8738 1487.8974,-109.8712 1489.4529,-92.2494"/>
<polygon fill="#191970" stroke="#191970" points="1166.8057,-202.5409 1157.1039,-206.7982 1167.3431,-209.5202 1166.8057,-202.5409"/>
</g>
<!-- Node24 -->
<g id="node17" class="node">
<title>Node24</title>
<g id="a_node17"><a xlink:href="spiffs__fs_8h.html" target="_top" xlink:title="SPIFFS integration with vfs. ">
<polygon fill="#ffffff" stroke="#000000" points="1576,-73 1576,-92 1706,-92 1706,-73 1576,-73"/>
<text text-anchor="middle" x="1641" y="-80" font-family="Helvetica,sans-Serif" font-size="10.00" fill="#000000">sys/include/fs/spiffs_fs.h</text>
</a>
</g>
</g>
<!-- Node8&#45;&gt;Node24 -->
<g id="edge16" class="edge">
<title>Node8&#45;&gt;Node24</title>
<path fill="none" stroke="#191970" d="M1167.2844,-205.7869C1261.9604,-198.142 1426.5578,-182.8455 1484,-165 1540.457,-147.4605 1600.541,-109.824 1627.0544,-92.102"/>
<polygon fill="#191970" stroke="#191970" points="1166.9113,-202.3055 1157.2223,-206.5918 1167.4695,-209.2832 1166.9113,-202.3055"/>
</g>
<!-- Node25 -->
<g id="node18" class="node">
<title>Node25</title>
<g id="a_node18"><a xlink:href="vfs_8h.html" target="_top" xlink:title="VFS layer API declarations. ">
<polygon fill="#ffffff" stroke="#000000" points="1863,-140 1863,-159 1957,-159 1957,-140 1863,-140"/>
<text text-anchor="middle" x="1910" y="-147" font-family="Helvetica,sans-Serif" font-size="10.00" fill="#000000">sys/include/vfs.h</text>
</a>
</g>
</g>
<!-- Node8&#45;&gt;Node25 -->
<g id="edge17" class="edge">
<title>Node8&#45;&gt;Node25</title>
<path fill="none" stroke="#191970" d="M1167.329,-205.7491C1328.6229,-193.5329 1725.7077,-163.4581 1862.6593,-153.0855"/>
<polygon fill="#191970" stroke="#191970" points="1166.7582,-202.2822 1157.0511,-206.5275 1167.2869,-209.2622 1166.7582,-202.2822"/>
</g>
<!-- Node35 -->
<g id="node28" class="node">
<title>Node35</title>
<g id="a_node28"><a xlink:href="usbus_2msc_8h.html" target="_top" xlink:title="USBUS Mass Storage Class functions definitions. ">
<polygon fill="#ffffff" stroke="#000000" points="1975.5,-134.5 1975.5,-164.5 2094.5,-164.5 2094.5,-134.5 1975.5,-134.5"/>
<text text-anchor="start" x="1983.5" y="-152.5" font-family="Helvetica,sans-Serif" font-size="10.00" fill="#000000">sys/include/usb/usbus</text>
<text text-anchor="middle" x="2035" y="-141.5" font-family="Helvetica,sans-Serif" font-size="10.00" fill="#000000">/msc.h</text>
</a>
</g>
</g>
<!-- Node8&#45;&gt;Node35 -->
<g id="edge32" class="edge">
<title>Node8&#45;&gt;Node35</title>
<path fill="none" stroke="#191970" d="M1167.358,-208.8309C1344.8219,-203.0389 1812.1899,-186.1982 1966,-165 1969.0407,-164.5809 1972.1455,-164.0959 1975.273,-163.5618"/>
<polygon fill="#191970" stroke="#191970" points="1166.9836,-205.3411 1157.1025,-209.1638 1167.2108,-212.3374 1166.9836,-205.3411"/>
</g>
<!-- Node13 -->
<g id="node6" class="node">
<title>Node13</title>
<g id="a_node6"><a xlink:href="fal__cfg_8h.html" target="_top" xlink:title="Flash Abstraction Layer partition configuration. ">
<polygon fill="#ffffff" stroke="#000000" points="409,-67.5 409,-97.5 517,-97.5 517,-67.5 409,-67.5"/>
<text text-anchor="start" x="417" y="-85.5" font-family="Helvetica,sans-Serif" font-size="10.00" fill="#000000">pkg/flashdb/include</text>
<text text-anchor="middle" x="463" y="-74.5" font-family="Helvetica,sans-Serif" font-size="10.00" fill="#000000">/fal_cfg.h</text>
</a>
</g>
</g>
<!-- Node12&#45;&gt;Node13 -->
<g id="edge5" class="edge">
<title>Node12&#45;&gt;Node13</title>
<path fill="none" stroke="#191970" d="M463,-124.0249C463,-115.128 463,-105.4287 463,-97.6432"/>
<polygon fill="#191970" stroke="#191970" points="459.5001,-124.2966 463,-134.2967 466.5001,-124.2967 459.5001,-124.2966"/>
</g>
<!-- Node25&#45;&gt;Node21 -->
<g id="edge23" class="edge">
<title>Node25&#45;&gt;Node21</title>
<path fill="none" stroke="#191970" d="M1852.7927,-147.1649C1739.4356,-142.0519 1478.4456,-127.8591 1261,-98 1249.5071,-96.4218 1237.1624,-94.2377 1225.7262,-92.0064"/>
<polygon fill="#191970" stroke="#191970" points="1852.8262,-150.6698 1862.9718,-147.6174 1853.1371,-143.6767 1852.8262,-150.6698"/>
</g>
<!-- Node25&#45;&gt;Node22 -->
<g id="edge24" class="edge">
<title>Node25&#45;&gt;Node22</title>
<path fill="none" stroke="#191970" d="M1852.8542,-145.4082C1760.1726,-138.3619 1571.4727,-122.3109 1413,-98 1402.2186,-96.3461 1390.6512,-94.187 1379.8746,-92.0081"/>
<polygon fill="#191970" stroke="#191970" points="1852.6311,-148.9012 1862.8659,-146.1627 1853.1572,-141.921 1852.6311,-148.9012"/>
</g>
<!-- Node25&#45;&gt;Node23 -->
<g id="edge25" class="edge">
<title>Node25&#45;&gt;Node23</title>
<path fill="none" stroke="#191970" d="M1852.8963,-141.8094C1784.7059,-132.4218 1667.2734,-115.6091 1567,-98 1556.7927,-96.2075 1545.8596,-94.1132 1535.5312,-92.0543"/>
<polygon fill="#191970" stroke="#191970" points="1852.6167,-145.3037 1862.9996,-143.1955 1853.5682,-138.3687 1852.6167,-145.3037"/>
</g>
<!-- Node25&#45;&gt;Node24 -->
<g id="edge27" class="edge">
<title>Node25&#45;&gt;Node24</title>
<path fill="none" stroke="#191970" d="M1861.7347,-137.4785C1809.5983,-124.4929 1727.5697,-104.062 1679.559,-92.1039"/>
<polygon fill="#191970" stroke="#191970" points="1861.1951,-140.951 1871.7445,-139.9717 1862.8869,-134.1585 1861.1951,-140.951"/>
</g>
<!-- Node26 -->
<g id="node19" class="node">
<title>Node26</title>
<g id="a_node19"><a xlink:href="vcdiff__vfs_8h.html" target="_top" xlink:title="pkg/tinyvcdiff/include\l/vcdiff_vfs.h">
<polygon fill="#ffffff" stroke="#000000" points="2087.5,-67.5 2087.5,-97.5 2204.5,-97.5 2204.5,-67.5 2087.5,-67.5"/>
<text text-anchor="start" x="2095.5" y="-85.5" font-family="Helvetica,sans-Serif" font-size="10.00" fill="#000000">pkg/tinyvcdiff/include</text>
<text text-anchor="middle" x="2146" y="-74.5" font-family="Helvetica,sans-Serif" font-size="10.00" fill="#000000">/vcdiff_vfs.h</text>
</a>
</g>
</g>
<!-- Node25&#45;&gt;Node26 -->
<g id="edge18" class="edge">
<title>Node25&#45;&gt;Node26</title>
<path fill="none" stroke="#191970" d="M1953.3899,-137.1817C1992.7442,-126.0091 2050.8712,-109.5069 2092.9692,-97.5553"/>
<polygon fill="#191970" stroke="#191970" points="1952.2264,-133.8736 1943.5624,-139.9717 1954.1382,-140.6075 1952.2264,-133.8736"/>
</g>
<!-- Node27 -->
<g id="node20" class="node">
<title>Node27</title>
<g id="a_node20"><a xlink:href="random-vfs_8h.html" target="_top" xlink:title="Random backends for devfs. ">
<polygon fill="#ffffff" stroke="#000000" points="2222.5,-67.5 2222.5,-97.5 2335.5,-97.5 2335.5,-67.5 2222.5,-67.5"/>
<text text-anchor="start" x="2230.5" y="-85.5" font-family="Helvetica,sans-Serif" font-size="10.00" fill="#000000">sys/fs/devfs/random</text>
<text text-anchor="middle" x="2279" y="-74.5" font-family="Helvetica,sans-Serif" font-size="10.00" fill="#000000">&#45;vfs.h</text>
</a>
</g>
</g>
<!-- Node25&#45;&gt;Node27 -->
<g id="edge19" class="edge">
<title>Node25&#45;&gt;Node27</title>
<path fill="none" stroke="#191970" d="M1952.3506,-137.3773C1957.2692,-136.1498 1962.2309,-134.9922 1967,-134 2075.612,-111.4037 2105.0464,-118.8873 2214,-98 2216.7345,-97.4758 2219.5275,-96.9136 2222.3441,-96.3252"/>
<polygon fill="#191970" stroke="#191970" points="1951.1893,-134.0627 1942.3904,-139.9645 1952.9492,-140.8379 1951.1893,-134.0627"/>
</g>
<!-- Node28 -->
<g id="node21" class="node">
<title>Node28</title>
<g id="a_node21"><a xlink:href="constfs_8h.html" target="_top" xlink:title="ConstFS public API. ">
<polygon fill="#ffffff" stroke="#000000" points="2353.5,-73 2353.5,-92 2478.5,-92 2478.5,-73 2353.5,-73"/>
<text text-anchor="middle" x="2416" y="-80" font-family="Helvetica,sans-Serif" font-size="10.00" fill="#000000">sys/include/fs/constfs.h</text>
</a>
</g>
</g>
<!-- Node25&#45;&gt;Node28 -->
<g id="edge20" class="edge">
<title>Node25&#45;&gt;Node28</title>
<path fill="none" stroke="#191970" d="M1951.3472,-137.3721C1956.5857,-136.0972 1961.8971,-134.9298 1967,-134 2133.0267,-103.7486 2178.2615,-124.044 2345,-98 2355.2218,-96.4034 2366.1798,-94.2393 2376.3537,-92.0351"/>
<polygon fill="#191970" stroke="#191970" points="1950.2499,-134.0403 1941.4375,-139.9219 1951.9942,-140.8195 1950.2499,-134.0403"/>
</g>
<!-- Node29 -->
<g id="node22" class="node">
<title>Node29</title>
<g id="a_node22"><a xlink:href="devfs_8h.html" target="_top" xlink:title="DevFS public API. ">
<polygon fill="#ffffff" stroke="#000000" points="2497,-73 2497,-92 2615,-92 2615,-73 2497,-73"/>
<text text-anchor="middle" x="2556" y="-80" font-family="Helvetica,sans-Serif" font-size="10.00" fill="#000000">sys/include/fs/devfs.h</text>
</a>
</g>
</g>
<!-- Node25&#45;&gt;Node29 -->
<g id="edge21" class="edge">
<title>Node25&#45;&gt;Node29</title>
<path fill="none" stroke="#191970" d="M1950.5334,-137.4342C1956.0308,-136.105 1961.628,-134.9069 1967,-134 2195.869,-95.361 2258.3803,-131.8938 2488,-98 2498.062,-96.5148 2508.8421,-94.3354 2518.7857,-92.0773"/>
<polygon fill="#191970" stroke="#191970" points="1949.6286,-134.0529 1940.8159,-139.934 1951.3726,-140.8322 1949.6286,-134.0529"/>
</g>
<!-- Node30 -->
<g id="node23" class="node">
<title>Node30</title>
<g id="a_node23"><a xlink:href="fatfs_8h.html" target="_top" xlink:title="FatFs integration for vfs. ">
<polygon fill="#ffffff" stroke="#000000" points="2633.5,-73 2633.5,-92 2746.5,-92 2746.5,-73 2633.5,-73"/>
<text text-anchor="middle" x="2690" y="-80" font-family="Helvetica,sans-Serif" font-size="10.00" fill="#000000">sys/include/fs/fatfs.h</text>
</a>
</g>
</g>
<!-- Node25&#45;&gt;Node30 -->
<g id="edge22" class="edge">
<title>Node25&#45;&gt;Node30</title>
<path fill="none" stroke="#191970" d="M1950.3275,-137.4086C1955.889,-136.072 1961.5584,-134.8789 1967,-134 2255.697,-87.3733 2334.5346,-139.5906 2624,-98 2634.0194,-96.5604 2644.7553,-94.3388 2654.5957,-92.0231"/>
<polygon fill="#191970" stroke="#191970" points="1949.3197,-134.0538 1940.5056,-139.9327 1951.0621,-140.8335 1949.3197,-134.0538"/>
</g>
<!-- Node31 -->
<g id="node24" class="node">
<title>Node31</title>
<g id="a_node24"><a xlink:href="native__fs_8h.html" target="_top" xlink:title="native integration with vfs ">
<polygon fill="#ffffff" stroke="#000000" points="2765,-73 2765,-92 2899,-92 2899,-73 2765,-73"/>
<text text-anchor="middle" x="2832" y="-80" font-family="Helvetica,sans-Serif" font-size="10.00" fill="#000000">sys/include/fs/native_fs.h</text>
</a>
</g>
</g>
<!-- Node25&#45;&gt;Node31 -->
<g id="edge26" class="edge">
<title>Node25&#45;&gt;Node31</title>
<path fill="none" stroke="#191970" d="M1950.126,-137.4085C1955.7508,-136.0601 1961.4911,-134.8639 1967,-134 2313.7932,-79.616 2407.6374,-141.2046 2756,-98 2767.4928,-96.5746 2779.8407,-94.3577 2791.1723,-92.0419"/>
<polygon fill="#191970" stroke="#191970" points="1949.0142,-134.0804 1940.2011,-139.9609 1950.7577,-140.8598 1949.0142,-134.0804"/>
</g>
<!-- Node32 -->
<g id="node25" class="node">
<title>Node32</title>
<g id="a_node25"><a xlink:href="fs_8h.html" target="_top" xlink:title="nanoCoAP virtual file system ">
<polygon fill="#ffffff" stroke="#000000" points="1724.5,-73 1724.5,-92 1881.5,-92 1881.5,-73 1724.5,-73"/>
<text text-anchor="middle" x="1803" y="-80" font-family="Helvetica,sans-Serif" font-size="10.00" fill="#000000">sys/include/net/nanocoap/fs.h</text>
</a>
</g>
</g>
<!-- Node25&#45;&gt;Node32 -->
<g id="edge28" class="edge">
<title>Node25&#45;&gt;Node32</title>
<path fill="none" stroke="#191970" d="M1886.1035,-134.5368C1865.3803,-121.5605 1836.0082,-103.1687 1818.3021,-92.0817"/>
<polygon fill="#191970" stroke="#191970" points="1884.3365,-137.5598 1894.6695,-139.9005 1888.0515,-131.6269 1884.3365,-137.5598"/>
</g>
<!-- Node33 -->
<g id="node26" class="node">
<title>Node33</title>
<g id="a_node26"><a xlink:href="suit_2storage_2vfs_8h_source.html" target="_top" xlink:title="sys/include/suit/storage\l/vfs.h">
<polygon fill="#ffffff" stroke="#000000" points="1893,-.5 1893,-30.5 2021,-30.5 2021,-.5 1893,-.5"/>
<text text-anchor="start" x="1901" y="-18.5" font-family="Helvetica,sans-Serif" font-size="10.00" fill="#000000">sys/include/suit/storage</text>
<text text-anchor="middle" x="1957" y="-7.5" font-family="Helvetica,sans-Serif" font-size="10.00" fill="#000000">/vfs.h</text>
</a>
</g>
</g>
<!-- Node25&#45;&gt;Node33 -->
<g id="edge29" class="edge">
<title>Node25&#45;&gt;Node33</title>
<path fill="none" stroke="#191970" d="M1913.3775,-129.7373C1916.6093,-112.7651 1922.1563,-87.8161 1930,-67 1934.7699,-54.3413 1941.944,-40.8243 1947.6984,-30.8159"/>
<polygon fill="#191970" stroke="#191970" points="1909.9268,-129.151 1911.5871,-139.615 1916.8146,-130.3995 1909.9268,-129.151"/>
</g>
<!-- Node34 -->
<g id="node27" class="node">
<title>Node34</title>
<g id="a_node27"><a xlink:href="vfs__default_8h.html" target="_top" xlink:title="VFS default mount points. ">
<polygon fill="#ffffff" stroke="#000000" points="1938.5,-73 1938.5,-92 2069.5,-92 2069.5,-73 1938.5,-73"/>
<text text-anchor="middle" x="2004" y="-80" font-family="Helvetica,sans-Serif" font-size="10.00" fill="#000000">sys/include/vfs_default.h</text>
</a>
</g>
</g>
<!-- Node25&#45;&gt;Node34 -->
<g id="edge30" class="edge">
<title>Node25&#45;&gt;Node34</title>
<path fill="none" stroke="#191970" d="M1931.732,-134.0102C1949.891,-121.067 1975.2114,-103.0195 1990.5571,-92.0817"/>
<polygon fill="#191970" stroke="#191970" points="1929.5796,-131.2462 1923.4679,-139.9005 1933.6426,-136.9464 1929.5796,-131.2462"/>
</g>
<!-- Node34&#45;&gt;Node33 -->
<g id="edge31" class="edge">
<title>Node34&#45;&gt;Node33</title>
<path fill="none" stroke="#191970" d="M1991.3048,-64.4026C1983.8627,-53.7936 1974.5725,-40.5502 1967.5377,-30.5218"/>
<polygon fill="#191970" stroke="#191970" points="1988.6579,-66.7239 1997.266,-72.9005 1994.3885,-62.7039 1988.6579,-66.7239"/>
</g>
</g>
</svg>
