<?xml version="1.0" encoding="UTF-8" standalone="no"?>
<!DOCTYPE svg PUBLIC "-//W3C//DTD SVG 1.1//EN"
 "http://www.w3.org/Graphics/SVG/1.1/DTD/svg11.dtd">
<!-- Generated by graphviz version 2.40.1 (0)
 -->
<!-- Title: boards/mulle/include/gpio_params.h Pages: 1 -->
<svg width="602pt" height="263pt"
 viewBox="0.00 0.00 602.00 263.00" xmlns="http://www.w3.org/2000/svg" xmlns:xlink="http://www.w3.org/1999/xlink">
<g id="graph0" class="graph" transform="scale(1 1) rotate(0) translate(4 259)">
<title>boards/mulle/include/gpio_params.h</title>
<polygon fill="#ffffff" stroke="transparent" points="-4,4 -4,-259 598,-259 598,4 -4,4"/>
<!-- Node0 -->
<g id="node1" class="node">
<title>Node0</title>
<polygon fill="#bfbfbf" stroke="#000000" points="155.5,-224.5 155.5,-254.5 270.5,-254.5 270.5,-224.5 155.5,-224.5"/>
<text text-anchor="start" x="163.5" y="-242.5" font-family="Helvetica,sans-Serif" font-size="10.00" fill="#000000">boards/mulle/include</text>
<text text-anchor="middle" x="213" y="-231.5" font-family="Helvetica,sans-Serif" font-size="10.00" fill="#000000">/gpio_params.h</text>
</g>
<!-- Node1 -->
<g id="node2" class="node">
<title>Node1</title>
<g id="a_node2"><a xlink:href="mulle_2include_2board_8h.html" target="_top" xlink:title="Board specific definitions for the Eistec Mulle IoT board. ">
<polygon fill="#ffffff" stroke="#000000" points="136.5,-168.5 136.5,-187.5 189.5,-187.5 189.5,-168.5 136.5,-168.5"/>
<text text-anchor="middle" x="163" y="-175.5" font-family="Helvetica,sans-Serif" font-size="10.00" fill="#000000">board.h</text>
</a>
</g>
</g>
<!-- Node0&#45;&gt;Node1 -->
<g id="edge1" class="edge">
<title>Node0&#45;&gt;Node1</title>
<path fill="none" stroke="#191970" d="M200.6404,-224.2977C193.6276,-215.672 184.814,-204.8312 177.4786,-195.8087"/>
<polygon fill="#191970" stroke="#191970" points="180.0297,-193.3982 171.0056,-187.8469 174.5982,-197.8141 180.0297,-193.3982"/>
</g>
<!-- Node9 -->
<g id="node10" class="node">
<title>Node9</title>
<g id="a_node10"><a xlink:href="periph_8h.html" target="_top" xlink:title="Parameter definitions for mapping peripherals directly to SAUL. ">
<polygon fill="#ffffff" stroke="#000000" points="313,-168.5 313,-187.5 391,-187.5 391,-168.5 313,-168.5"/>
<text text-anchor="middle" x="352" y="-175.5" font-family="Helvetica,sans-Serif" font-size="10.00" fill="#000000">saul/periph.h</text>
</a>
</g>
</g>
<!-- Node0&#45;&gt;Node9 -->
<g id="edge9" class="edge">
<title>Node0&#45;&gt;Node9</title>
<path fill="none" stroke="#191970" d="M247.0032,-224.4554C269.6871,-214.419 299.2673,-201.3314 321.2479,-191.6061"/>
<polygon fill="#191970" stroke="#191970" points="322.7312,-194.7772 330.4599,-187.5303 319.8989,-188.3758 322.7312,-194.7772"/>
</g>
<!-- Node2 -->
<g id="node3" class="node">
<title>Node2</title>
<polygon fill="#ffffff" stroke="#bfbfbf" points="102,-112.5 102,-131.5 144,-131.5 144,-112.5 102,-112.5"/>
<text text-anchor="middle" x="123" y="-119.5" font-family="Helvetica,sans-Serif" font-size="10.00" fill="#000000">cpu.h</text>
</g>
<!-- Node1&#45;&gt;Node2 -->
<g id="edge2" class="edge">
<title>Node1&#45;&gt;Node2</title>
<path fill="none" stroke="#191970" d="M156.0325,-168.2455C150.4689,-160.4564 142.522,-149.3308 135.8171,-139.9439"/>
<polygon fill="#191970" stroke="#191970" points="138.5481,-137.7457 129.8876,-131.6427 132.852,-141.8144 138.5481,-137.7457"/>
</g>
<!-- Node3 -->
<g id="node4" class="node">
<title>Node3</title>
<g id="a_node4"><a xlink:href="boards_2mulle_2include_2periph__conf_8h.html" target="_top" xlink:title="periph_conf.h">
<polygon fill="#ffffff" stroke="#000000" points="162.5,-112.5 162.5,-131.5 243.5,-131.5 243.5,-112.5 162.5,-112.5"/>
<text text-anchor="middle" x="203" y="-119.5" font-family="Helvetica,sans-Serif" font-size="10.00" fill="#000000">periph_conf.h</text>
</a>
</g>
</g>
<!-- Node1&#45;&gt;Node3 -->
<g id="edge3" class="edge">
<title>Node1&#45;&gt;Node3</title>
<path fill="none" stroke="#191970" d="M169.9675,-168.2455C175.5311,-160.4564 183.478,-149.3308 190.1829,-139.9439"/>
<polygon fill="#191970" stroke="#191970" points="193.148,-141.8144 196.1124,-131.6427 187.4519,-137.7457 193.148,-141.8144"/>
</g>
<!-- Node5 -->
<g id="node6" class="node">
<title>Node5</title>
<g id="a_node6"><a xlink:href="mulle-nvram_8h.html" target="_top" xlink:title="NVRAM offsets for the Eistec Mulle IoT board. ">
<polygon fill="#ffffff" stroke="#000000" points="0,-112.5 0,-131.5 84,-131.5 84,-112.5 0,-112.5"/>
<text text-anchor="middle" x="42" y="-119.5" font-family="Helvetica,sans-Serif" font-size="10.00" fill="#000000">mulle&#45;nvram.h</text>
</a>
</g>
</g>
<!-- Node1&#45;&gt;Node5 -->
<g id="edge5" class="edge">
<title>Node1&#45;&gt;Node5</title>
<path fill="none" stroke="#191970" d="M142.1994,-168.3733C122.7757,-159.3838 93.5776,-145.8706 71.7036,-135.7471"/>
<polygon fill="#191970" stroke="#191970" points="73.0745,-132.5249 62.5292,-131.5011 70.1344,-138.8776 73.0745,-132.5249"/>
</g>
<!-- Node4 -->
<g id="node5" class="node">
<title>Node4</title>
<polygon fill="#ffffff" stroke="#bfbfbf" points="232.5,-56.5 232.5,-75.5 309.5,-75.5 309.5,-56.5 232.5,-56.5"/>
<text text-anchor="middle" x="271" y="-63.5" font-family="Helvetica,sans-Serif" font-size="10.00" fill="#000000">periph_cpu.h</text>
</g>
<!-- Node3&#45;&gt;Node4 -->
<g id="edge4" class="edge">
<title>Node3&#45;&gt;Node4</title>
<path fill="none" stroke="#191970" d="M214.8447,-112.2455C224.888,-103.9746 239.4995,-91.9416 251.3004,-82.2232"/>
<polygon fill="#191970" stroke="#191970" points="253.7967,-84.7015 259.291,-75.6427 249.3467,-79.298 253.7967,-84.7015"/>
</g>
<!-- Node6 -->
<g id="node7" class="node">
<title>Node6</title>
<g id="a_node7"><a xlink:href="nvram_8h.html" target="_top" xlink:title="Generic non&#45;volatile RAM driver interface. ">
<polygon fill="#ffffff" stroke="#000000" points="62,-56.5 62,-75.5 118,-75.5 118,-56.5 62,-56.5"/>
<text text-anchor="middle" x="90" y="-63.5" font-family="Helvetica,sans-Serif" font-size="10.00" fill="#000000">nvram.h</text>
</a>
</g>
</g>
<!-- Node5&#45;&gt;Node6 -->
<g id="edge6" class="edge">
<title>Node5&#45;&gt;Node6</title>
<path fill="none" stroke="#191970" d="M50.361,-112.2455C57.175,-104.2958 66.9681,-92.8706 75.1152,-83.3656"/>
<polygon fill="#191970" stroke="#191970" points="77.8843,-85.513 81.7349,-75.6427 72.5695,-80.9575 77.8843,-85.513"/>
</g>
<!-- Node7 -->
<g id="node8" class="node">
<title>Node7</title>
<polygon fill="#ffffff" stroke="#bfbfbf" points="178,-.5 178,-19.5 230,-19.5 230,-.5 178,-.5"/>
<text text-anchor="middle" x="204" y="-7.5" font-family="Helvetica,sans-Serif" font-size="10.00" fill="#000000">stdint.h</text>
</g>
<!-- Node6&#45;&gt;Node7 -->
<g id="edge7" class="edge">
<title>Node6&#45;&gt;Node7</title>
<path fill="none" stroke="#191970" d="M109.5973,-56.3733C127.7331,-47.4644 154.9135,-34.1127 175.4587,-24.0203"/>
<polygon fill="#191970" stroke="#191970" points="177.2261,-27.0517 184.6584,-19.5011 174.1397,-20.7688 177.2261,-27.0517"/>
</g>
<!-- Node8 -->
<g id="node9" class="node">
<title>Node8</title>
<polygon fill="#ffffff" stroke="#bfbfbf" points="62,-.5 62,-19.5 118,-19.5 118,-.5 62,-.5"/>
<text text-anchor="middle" x="90" y="-7.5" font-family="Helvetica,sans-Serif" font-size="10.00" fill="#000000">stddef.h</text>
</g>
<!-- Node6&#45;&gt;Node8 -->
<g id="edge8" class="edge">
<title>Node6&#45;&gt;Node8</title>
<path fill="none" stroke="#191970" d="M90,-56.2455C90,-48.9382 90,-38.6944 90,-29.7046"/>
<polygon fill="#191970" stroke="#191970" points="93.5001,-29.6426 90,-19.6427 86.5001,-29.6427 93.5001,-29.6426"/>
</g>
<!-- Node10 -->
<g id="node11" class="node">
<title>Node10</title>
<g id="a_node11"><a xlink:href="drivers_2include_2periph_2gpio_8h.html" target="_top" xlink:title="Low&#45;level GPIO peripheral driver interface definitions. ">
<polygon fill="#ffffff" stroke="#000000" points="457,-112.5 457,-131.5 537,-131.5 537,-112.5 457,-112.5"/>
<text text-anchor="middle" x="497" y="-119.5" font-family="Helvetica,sans-Serif" font-size="10.00" fill="#000000">periph/gpio.h</text>
</a>
</g>
</g>
<!-- Node9&#45;&gt;Node10 -->
<g id="edge10" class="edge">
<title>Node9&#45;&gt;Node10</title>
<path fill="none" stroke="#191970" d="M376.9264,-168.3733C400.6202,-159.2226 436.4511,-145.3844 462.8068,-135.2057"/>
<polygon fill="#191970" stroke="#191970" points="464.3314,-138.3689 472.3989,-131.5011 461.8094,-131.8389 464.3314,-138.3689"/>
</g>
<!-- Node14 -->
<g id="node15" class="node">
<title>Node14</title>
<g id="a_node15"><a xlink:href="adc_8h.html" target="_top" xlink:title="Low&#45;level ADC peripheral driver interface definitions. ">
<polygon fill="#ffffff" stroke="#000000" points="363,-112.5 363,-131.5 439,-131.5 439,-112.5 363,-112.5"/>
<text text-anchor="middle" x="401" y="-119.5" font-family="Helvetica,sans-Serif" font-size="10.00" fill="#000000">periph/adc.h</text>
</a>
</g>
</g>
<!-- Node9&#45;&gt;Node14 -->
<g id="edge15" class="edge">
<title>Node9&#45;&gt;Node14</title>
<path fill="none" stroke="#191970" d="M360.5351,-168.2455C367.4912,-160.2958 377.4883,-148.8706 385.8051,-139.3656"/>
<polygon fill="#191970" stroke="#191970" points="388.6116,-141.4732 392.5627,-131.6427 383.3436,-136.8637 388.6116,-141.4732"/>
</g>
<!-- Node15 -->
<g id="node16" class="node">
<title>Node15</title>
<g id="a_node16"><a xlink:href="pwm_8h.html" target="_top" xlink:title="Low&#45;level PWM peripheral driver interface definitions. ">
<polygon fill="#ffffff" stroke="#000000" points="261.5,-112.5 261.5,-131.5 344.5,-131.5 344.5,-112.5 261.5,-112.5"/>
<text text-anchor="middle" x="303" y="-119.5" font-family="Helvetica,sans-Serif" font-size="10.00" fill="#000000">periph/pwm.h</text>
</a>
</g>
</g>
<!-- Node9&#45;&gt;Node15 -->
<g id="edge20" class="edge">
<title>Node9&#45;&gt;Node15</title>
<path fill="none" stroke="#191970" d="M343.4649,-168.2455C336.5088,-160.2958 326.5117,-148.8706 318.1949,-139.3656"/>
<polygon fill="#191970" stroke="#191970" points="320.6564,-136.8637 311.4373,-131.6427 315.3884,-141.4732 320.6564,-136.8637"/>
</g>
<!-- Node10&#45;&gt;Node4 -->
<g id="edge13" class="edge">
<title>Node10&#45;&gt;Node4</title>
<path fill="none" stroke="#191970" d="M458.406,-112.4369C419.9716,-102.9133 360.864,-88.2672 319.329,-77.9753"/>
<polygon fill="#191970" stroke="#191970" points="319.9831,-74.5316 309.4348,-75.5237 318.2994,-81.3261 319.9831,-74.5316"/>
</g>
<!-- Node11 -->
<g id="node12" class="node">
<title>Node11</title>
<polygon fill="#ffffff" stroke="#bfbfbf" points="466,-56.5 466,-75.5 516,-75.5 516,-56.5 466,-56.5"/>
<text text-anchor="middle" x="491" y="-63.5" font-family="Helvetica,sans-Serif" font-size="10.00" fill="#000000">limits.h</text>
</g>
<!-- Node10&#45;&gt;Node11 -->
<g id="edge11" class="edge">
<title>Node10&#45;&gt;Node11</title>
<path fill="none" stroke="#191970" d="M495.9549,-112.2455C495.172,-104.9382 494.0744,-94.6944 493.1112,-85.7046"/>
<polygon fill="#191970" stroke="#191970" points="496.5786,-85.2129 492.0331,-75.6427 489.6185,-85.9587 496.5786,-85.2129"/>
</g>
<!-- Node12 -->
<g id="node13" class="node">
<title>Node12</title>
<polygon fill="#ffffff" stroke="#bfbfbf" points="534,-56.5 534,-75.5 594,-75.5 594,-56.5 534,-56.5"/>
<text text-anchor="middle" x="564" y="-63.5" font-family="Helvetica,sans-Serif" font-size="10.00" fill="#000000">stdbool.h</text>
</g>
<!-- Node10&#45;&gt;Node12 -->
<g id="edge12" class="edge">
<title>Node10&#45;&gt;Node12</title>
<path fill="none" stroke="#191970" d="M508.6705,-112.2455C518.5661,-103.9746 532.9627,-91.9416 544.5901,-82.2232"/>
<polygon fill="#191970" stroke="#191970" points="547.035,-84.7413 552.4632,-75.6427 542.5458,-79.3703 547.035,-84.7413"/>
</g>
<!-- Node13 -->
<g id="node14" class="node">
<title>Node13</title>
<polygon fill="#ffffff" stroke="#bfbfbf" points="366.5,-56.5 366.5,-75.5 447.5,-75.5 447.5,-56.5 366.5,-56.5"/>
<text text-anchor="middle" x="407" y="-63.5" font-family="Helvetica,sans-Serif" font-size="10.00" fill="#000000">periph_conf.h</text>
</g>
<!-- Node10&#45;&gt;Node13 -->
<g id="edge14" class="edge">
<title>Node10&#45;&gt;Node13</title>
<path fill="none" stroke="#191970" d="M481.3232,-112.2455C467.5144,-103.6534 447.1807,-91.0014 431.2708,-81.1018"/>
<polygon fill="#191970" stroke="#191970" points="432.8368,-77.954 422.4972,-75.6427 429.1387,-83.8974 432.8368,-77.954"/>
</g>
<!-- Node14&#45;&gt;Node4 -->
<g id="edge18" class="edge">
<title>Node14&#45;&gt;Node4</title>
<path fill="none" stroke="#191970" d="M378.6522,-112.3733C357.5967,-103.3032 325.8505,-89.6279 302.2825,-79.4755"/>
<polygon fill="#191970" stroke="#191970" points="303.625,-76.243 293.0562,-75.5011 300.8556,-82.6719 303.625,-76.243"/>
</g>
<!-- Node14&#45;&gt;Node7 -->
<g id="edge17" class="edge">
<title>Node14&#45;&gt;Node7</title>
<path fill="none" stroke="#191970" d="M391.118,-112.3932C376.3998,-98.4879 347.3962,-72.6038 319,-56 293.8241,-41.2792 263.0465,-29.2452 239.6688,-21.1829"/>
<polygon fill="#191970" stroke="#191970" points="240.7349,-17.8488 230.1408,-17.9745 238.5009,-24.4828 240.7349,-17.8488"/>
</g>
<!-- Node14&#45;&gt;Node11 -->
<g id="edge16" class="edge">
<title>Node14&#45;&gt;Node11</title>
<path fill="none" stroke="#191970" d="M416.6768,-112.2455C430.4856,-103.6534 450.8193,-91.0014 466.7292,-81.1018"/>
<polygon fill="#191970" stroke="#191970" points="468.8613,-83.8974 475.5028,-75.6427 465.1632,-77.954 468.8613,-83.8974"/>
</g>
<!-- Node14&#45;&gt;Node13 -->
<g id="edge19" class="edge">
<title>Node14&#45;&gt;Node13</title>
<path fill="none" stroke="#191970" d="M402.0451,-112.2455C402.828,-104.9382 403.9256,-94.6944 404.8888,-85.7046"/>
<polygon fill="#191970" stroke="#191970" points="408.3815,-85.9587 405.9669,-75.6427 401.4214,-85.2129 408.3815,-85.9587"/>
</g>
<!-- Node15&#45;&gt;Node4 -->
<g id="edge23" class="edge">
<title>Node15&#45;&gt;Node4</title>
<path fill="none" stroke="#191970" d="M297.426,-112.2455C293.0669,-104.617 286.8789,-93.7881 281.5867,-84.5267"/>
<polygon fill="#191970" stroke="#191970" points="284.5104,-82.5886 276.5101,-75.6427 278.4327,-86.0616 284.5104,-82.5886"/>
</g>
<!-- Node15&#45;&gt;Node7 -->
<g id="edge21" class="edge">
<title>Node15&#45;&gt;Node7</title>
<path fill="none" stroke="#191970" d="M275.6036,-112.459C258.1769,-105.0615 236.4387,-93.151 223,-76 212.5548,-62.6694 207.8513,-43.815 205.7336,-29.6694"/>
<polygon fill="#191970" stroke="#191970" points="209.1844,-29.0474 204.5294,-19.53 202.2333,-29.873 209.1844,-29.0474"/>
</g>
<!-- Node15&#45;&gt;Node11 -->
<g id="edge22" class="edge">
<title>Node15&#45;&gt;Node11</title>
<path fill="none" stroke="#191970" d="M335.3184,-112.3733C368.9527,-102.3545 421.4506,-86.7168 456.0358,-76.4149"/>
<polygon fill="#191970" stroke="#191970" points="457.134,-79.7398 465.7187,-73.5306 455.1357,-73.0311 457.134,-79.7398"/>
</g>
<!-- Node15&#45;&gt;Node13 -->
<g id="edge24" class="edge">
<title>Node15&#45;&gt;Node13</title>
<path fill="none" stroke="#191970" d="M321.1154,-112.2455C337.445,-103.4527 361.671,-90.4079 380.2339,-80.4125"/>
<polygon fill="#191970" stroke="#191970" points="381.9468,-83.4654 389.0922,-75.6427 378.6281,-77.3021 381.9468,-83.4654"/>
</g>
</g>
</svg>
