<?xml version="1.0" encoding="UTF-8" standalone="no"?>
<!DOCTYPE svg PUBLIC "-//W3C//DTD SVG 1.1//EN"
 "http://www.w3.org/Graphics/SVG/1.1/DTD/svg11.dtd">
<!-- Generated by graphviz version 2.40.1 (0)
 -->
<!-- Title: drivers/include/my9221.h Pages: 1 -->
<svg width="180pt" height="173pt"
 viewBox="0.00 0.00 179.50 173.00" xmlns="http://www.w3.org/2000/svg" xmlns:xlink="http://www.w3.org/1999/xlink">
<g id="graph0" class="graph" transform="scale(1 1) rotate(0) translate(4 169)">
<title>drivers/include/my9221.h</title>
<polygon fill="#ffffff" stroke="transparent" points="-4,4 -4,-169 175.5,-169 175.5,4 -4,4"/>
<!-- Node7 -->
<g id="node1" class="node">
<title>Node7</title>
<polygon fill="#bfbfbf" stroke="#000000" points="0,-145.5 0,-164.5 137,-164.5 137,-145.5 0,-145.5"/>
<text text-anchor="middle" x="68.5" y="-152.5" font-family="Helvetica,sans-Serif" font-size="10.00" fill="#000000">drivers/include/my9221.h</text>
</g>
<!-- Node8 -->
<g id="node2" class="node">
<title>Node8</title>
<g id="a_node2"><a xlink:href="grove__ledbar__params_8h.html" target="_top" xlink:title="Config for the Grove LED bar based on MY9221 LED controller. ">
<polygon fill="#ffffff" stroke="#000000" points="9,-.5 9,-41.5 128,-41.5 128,-.5 9,-.5"/>
<text text-anchor="start" x="17" y="-29.5" font-family="Helvetica,sans-Serif" font-size="10.00" fill="#000000">drivers/grove_ledbar</text>
<text text-anchor="start" x="17" y="-18.5" font-family="Helvetica,sans-Serif" font-size="10.00" fill="#000000">/include/grove_ledbar</text>
<text text-anchor="middle" x="68.5" y="-7.5" font-family="Helvetica,sans-Serif" font-size="10.00" fill="#000000">_params.h</text>
</a>
</g>
</g>
<!-- Node7&#45;&gt;Node8 -->
<g id="edge1" class="edge">
<title>Node7&#45;&gt;Node8</title>
<path fill="none" stroke="#191970" d="M56.3753,-136.7224C51.6821,-128.5929 46.8743,-118.6836 44.5,-109 38.8057,-85.7759 48.1789,-59.3324 56.8258,-41.5474"/>
<polygon fill="#191970" stroke="#191970" points="53.4528,-138.6514 61.6792,-145.328 59.4119,-134.9786 53.4528,-138.6514"/>
</g>
<!-- Node9 -->
<g id="node3" class="node">
<title>Node9</title>
<g id="a_node3"><a xlink:href="grove__ledbar_8h.html" target="_top" xlink:title="Interface for the Grove ledbar driver. ">
<polygon fill="#ffffff" stroke="#000000" points="53.5,-78.5 53.5,-108.5 171.5,-108.5 171.5,-78.5 53.5,-78.5"/>
<text text-anchor="start" x="61.5" y="-96.5" font-family="Helvetica,sans-Serif" font-size="10.00" fill="#000000">drivers/include/grove</text>
<text text-anchor="middle" x="112.5" y="-85.5" font-family="Helvetica,sans-Serif" font-size="10.00" fill="#000000">_ledbar.h</text>
</a>
</g>
</g>
<!-- Node7&#45;&gt;Node9 -->
<g id="edge2" class="edge">
<title>Node7&#45;&gt;Node9</title>
<path fill="none" stroke="#191970" d="M81.3153,-137.0877C87.7951,-128.0307 95.5706,-117.1627 101.7364,-108.5446"/>
<polygon fill="#191970" stroke="#191970" points="78.3472,-135.2212 75.375,-145.3906 84.0402,-139.2943 78.3472,-135.2212"/>
</g>
<!-- Node9&#45;&gt;Node8 -->
<g id="edge3" class="edge">
<title>Node9&#45;&gt;Node8</title>
<path fill="none" stroke="#191970" d="M98.141,-69.8403C92.5897,-60.6932 86.2971,-50.3248 80.9423,-41.5015"/>
<polygon fill="#191970" stroke="#191970" points="95.2028,-71.745 103.3832,-78.478 101.187,-68.1132 95.2028,-71.745"/>
</g>
</g>
</svg>
