<?xml version="1.0" encoding="UTF-8" standalone="no"?>
<!DOCTYPE svg PUBLIC "-//W3C//DTD SVG 1.1//EN"
 "http://www.w3.org/Graphics/SVG/1.1/DTD/svg11.dtd">
<!-- Generated by graphviz version 2.40.1 (0)
 -->
<!-- Title: cpu/native/include/can_params.h Pages: 1 -->
<svg width="1358pt" height="655pt"
 viewBox="0.00 0.00 1357.86 655.00" xmlns="http://www.w3.org/2000/svg" xmlns:xlink="http://www.w3.org/1999/xlink">
<g id="graph0" class="graph" transform="scale(1 1) rotate(0) translate(4 651)">
<title>cpu/native/include/can_params.h</title>
<polygon fill="#ffffff" stroke="transparent" points="-4,4 -4,-651 1353.858,-651 1353.858,4 -4,4"/>
<!-- Node0 -->
<g id="node1" class="node">
<title>Node0</title>
<polygon fill="#bfbfbf" stroke="#000000" points="778.358,-616.5 778.358,-646.5 880.358,-646.5 880.358,-616.5 778.358,-616.5"/>
<text text-anchor="start" x="786.358" y="-634.5" font-family="Helvetica,sans-Serif" font-size="10.00" fill="#000000">cpu/native/include</text>
<text text-anchor="middle" x="829.358" y="-623.5" font-family="Helvetica,sans-Serif" font-size="10.00" fill="#000000">/can_params.h</text>
</g>
<!-- Node1 -->
<g id="node2" class="node">
<title>Node1</title>
<g id="a_node2"><a xlink:href="candev__linux_8h.html" target="_top" xlink:title="Implementation of simulated CAN controller driver using SocketCAN on Linux. ">
<polygon fill="#ffffff" stroke="#000000" points="822.858,-560.5 822.858,-579.5 907.858,-579.5 907.858,-560.5 822.858,-560.5"/>
<text text-anchor="middle" x="865.358" y="-567.5" font-family="Helvetica,sans-Serif" font-size="10.00" fill="#000000">candev_linux.h</text>
</a>
</g>
</g>
<!-- Node0&#45;&gt;Node1 -->
<g id="edge1" class="edge">
<title>Node0&#45;&gt;Node1</title>
<path fill="none" stroke="#191970" d="M838.2569,-616.2977C843.15,-607.9388 849.2607,-597.4997 854.4404,-588.6509"/>
<polygon fill="#191970" stroke="#191970" points="857.5627,-590.2452 859.594,-579.8469 851.5216,-586.7089 857.5627,-590.2452"/>
</g>
<!-- Node3 -->
<g id="node4" class="node">
<title>Node3</title>
<g id="a_node4"><a xlink:href="sys_2include_2can_2device_8h.html" target="_top" xlink:title="Definitions of CAN device interface. ">
<polygon fill="#ffffff" stroke="#000000" points="756.858,-504.5 756.858,-523.5 831.858,-523.5 831.858,-504.5 756.858,-504.5"/>
<text text-anchor="middle" x="794.358" y="-511.5" font-family="Helvetica,sans-Serif" font-size="10.00" fill="#000000">can/device.h</text>
</a>
</g>
</g>
<!-- Node0&#45;&gt;Node3 -->
<g id="edge64" class="edge">
<title>Node0&#45;&gt;Node3</title>
<path fill="none" stroke="#191970" d="M824.5133,-616.202C821.2959,-605.9708 817.0084,-592.1986 813.358,-580 808.7113,-564.4716 803.642,-546.8247 799.9093,-533.6877"/>
<polygon fill="#191970" stroke="#191970" points="803.2184,-532.5272 797.1267,-523.8588 796.4831,-534.4341 803.2184,-532.5272"/>
</g>
<!-- Node2 -->
<g id="node3" class="node">
<title>Node2</title>
<polygon fill="#ffffff" stroke="#bfbfbf" points="686.358,-112.5 686.358,-131.5 746.358,-131.5 746.358,-112.5 686.358,-112.5"/>
<text text-anchor="middle" x="716.358" y="-119.5" font-family="Helvetica,sans-Serif" font-size="10.00" fill="#000000">stdbool.h</text>
</g>
<!-- Node1&#45;&gt;Node2 -->
<g id="edge2" class="edge">
<title>Node1&#45;&gt;Node2</title>
<path fill="none" stroke="#191970" d="M870.2273,-560.3939C879.4068,-541.3677 898.358,-497.3256 898.358,-458 898.358,-458 898.358,-458 898.358,-402 898.358,-284.4081 784.1168,-177.3907 736.6552,-138.0042"/>
<polygon fill="#191970" stroke="#191970" points="738.8294,-135.261 728.8676,-131.6535 734.4055,-140.6859 738.8294,-135.261"/>
</g>
<!-- Node1&#45;&gt;Node3 -->
<g id="edge3" class="edge">
<title>Node1&#45;&gt;Node3</title>
<path fill="none" stroke="#191970" d="M852.9908,-560.2455C842.4026,-551.8943 826.9516,-539.7076 814.5687,-529.9408"/>
<polygon fill="#191970" stroke="#191970" points="816.6028,-527.0875 806.5836,-523.6427 812.2677,-532.5837 816.6028,-527.0875"/>
</g>
<!-- Node4 -->
<g id="node5" class="node">
<title>Node4</title>
<g id="a_node5"><a xlink:href="candev_8h.html" target="_top" xlink:title="Definitions for low&#45;level CAN driver interface. ">
<polygon fill="#ffffff" stroke="#000000" points="1016.858,-448.5 1016.858,-467.5 1093.858,-467.5 1093.858,-448.5 1016.858,-448.5"/>
<text text-anchor="middle" x="1055.358" y="-455.5" font-family="Helvetica,sans-Serif" font-size="10.00" fill="#000000">can/candev.h</text>
</a>
</g>
</g>
<!-- Node1&#45;&gt;Node4 -->
<g id="edge62" class="edge">
<title>Node1&#45;&gt;Node4</title>
<path fill="none" stroke="#191970" d="M881.5573,-560.4509C914.7895,-540.8615 990.8679,-496.0152 1030.4298,-472.6945"/>
<polygon fill="#191970" stroke="#191970" points="1032.3624,-475.6182 1039.1997,-467.5249 1028.8077,-469.5879 1032.3624,-475.6182"/>
</g>
<!-- Node15 -->
<g id="node16" class="node">
<title>Node15</title>
<g id="a_node16"><a xlink:href="mutex_8h.html" target="_top" xlink:title="Mutex for thread synchronization. ">
<polygon fill="#ffffff" stroke="#000000" points="756.358,-392.5 756.358,-411.5 812.358,-411.5 812.358,-392.5 756.358,-392.5"/>
<text text-anchor="middle" x="784.358" y="-399.5" font-family="Helvetica,sans-Serif" font-size="10.00" fill="#000000">mutex.h</text>
</a>
</g>
</g>
<!-- Node1&#45;&gt;Node15 -->
<g id="edge63" class="edge">
<title>Node1&#45;&gt;Node15</title>
<path fill="none" stroke="#191970" d="M862.2054,-560.4296C857.8186,-547.4347 849.3888,-523.583 840.358,-504 826.472,-473.8884 807.3709,-440.4577 795.4508,-420.3432"/>
<polygon fill="#191970" stroke="#191970" points="798.3659,-418.3983 790.2303,-411.6114 792.3578,-421.9904 798.3659,-418.3983"/>
</g>
<!-- Node3&#45;&gt;Node4 -->
<g id="edge4" class="edge">
<title>Node3&#45;&gt;Node4</title>
<path fill="none" stroke="#191970" d="M832.0309,-505.9169C878.1237,-496.0273 956.2495,-479.2647 1006.8085,-468.4168"/>
<polygon fill="#191970" stroke="#191970" points="1007.8028,-471.7832 1016.846,-466.2631 1006.3343,-464.9389 1007.8028,-471.7832"/>
</g>
<!-- Node31 -->
<g id="node32" class="node">
<title>Node31</title>
<g id="a_node32"><a xlink:href="sched_8h.html" target="_top" xlink:title="Scheduler API definition. ">
<polygon fill="#ffffff" stroke="#000000" points="412.858,-224.5 412.858,-243.5 465.858,-243.5 465.858,-224.5 412.858,-224.5"/>
<text text-anchor="middle" x="439.358" y="-231.5" font-family="Helvetica,sans-Serif" font-size="10.00" fill="#000000">sched.h</text>
</a>
</g>
</g>
<!-- Node3&#45;&gt;Node31 -->
<g id="edge61" class="edge">
<title>Node3&#45;&gt;Node31</title>
<path fill="none" stroke="#191970" d="M757.8005,-504.4894C682.7529,-482.7841 512.4033,-421.7986 441.358,-300 433.2456,-286.0921 433.4328,-267.5785 435.2545,-253.6993"/>
<polygon fill="#191970" stroke="#191970" points="438.7225,-254.1823 436.9386,-243.7387 431.8204,-253.0153 438.7225,-254.1823"/>
</g>
<!-- Node5 -->
<g id="node6" class="node">
<title>Node5</title>
<polygon fill="#ffffff" stroke="#bfbfbf" points="796.358,-.5 796.358,-19.5 848.358,-19.5 848.358,-.5 796.358,-.5"/>
<text text-anchor="middle" x="822.358" y="-7.5" font-family="Helvetica,sans-Serif" font-size="10.00" fill="#000000">stdint.h</text>
</g>
<!-- Node4&#45;&gt;Node5 -->
<g id="edge5" class="edge">
<title>Node4&#45;&gt;Node5</title>
<path fill="none" stroke="#191970" d="M1093.917,-454.247C1153.3005,-446.107 1260.358,-421.0278 1260.358,-346 1260.358,-346 1260.358,-346 1260.358,-122 1260.358,-39.2883 963.4803,-16.8538 858.5566,-11.5077"/>
<polygon fill="#191970" stroke="#191970" points="858.6036,-8.0059 848.4452,-11.0156 858.2633,-14.9977 858.6036,-8.0059"/>
</g>
<!-- Node6 -->
<g id="node7" class="node">
<title>Node6</title>
<polygon fill="#ffffff" stroke="#bfbfbf" points="1182.358,-168.5 1182.358,-187.5 1232.358,-187.5 1232.358,-168.5 1182.358,-168.5"/>
<text text-anchor="middle" x="1207.358" y="-175.5" font-family="Helvetica,sans-Serif" font-size="10.00" fill="#000000">stdlib.h</text>
</g>
<!-- Node4&#45;&gt;Node6 -->
<g id="edge6" class="edge">
<title>Node4&#45;&gt;Node6</title>
<path fill="none" stroke="#191970" d="M1089.2203,-448.4958C1132.3502,-434.0785 1201.358,-402.2255 1201.358,-346 1201.358,-346 1201.358,-346 1201.358,-290 1201.358,-257.6653 1203.8825,-220.1547 1205.6565,-197.7876"/>
<polygon fill="#191970" stroke="#191970" points="1209.1645,-197.833 1206.4984,-187.5791 1202.1882,-197.2576 1209.1645,-197.833"/>
</g>
<!-- Node7 -->
<g id="node8" class="node">
<title>Node7</title>
<g id="a_node8"><a xlink:href="sys_2include_2can_2can_8h.html" target="_top" xlink:title="Definitions high&#45;level CAN interface. ">
<polygon fill="#ffffff" stroke="#000000" points="1288.858,-336.5 1288.858,-355.5 1349.858,-355.5 1349.858,-336.5 1288.858,-336.5"/>
<text text-anchor="middle" x="1319.358" y="-343.5" font-family="Helvetica,sans-Serif" font-size="10.00" fill="#000000">can/can.h</text>
</a>
</g>
</g>
<!-- Node4&#45;&gt;Node7 -->
<g id="edge7" class="edge">
<title>Node4&#45;&gt;Node7</title>
<path fill="none" stroke="#191970" d="M1094.1187,-453.3859C1148.8334,-446.2871 1245.2981,-431.4449 1274.358,-412 1291.4021,-400.5953 1303.7705,-380.3443 1311.1779,-365.2723"/>
<polygon fill="#191970" stroke="#191970" points="1314.5179,-366.3858 1315.51,-355.8375 1308.1564,-363.4648 1314.5179,-366.3858"/>
</g>
<!-- Node8 -->
<g id="node9" class="node">
<title>Node8</title>
<g id="a_node9"><a xlink:href="sys_2include_2can_2common_8h.html" target="_top" xlink:title="Definitions of high&#45;level CAN interface. ">
<polygon fill="#ffffff" stroke="#000000" points="1012.358,-280.5 1012.358,-299.5 1098.358,-299.5 1098.358,-280.5 1012.358,-280.5"/>
<text text-anchor="middle" x="1055.358" y="-287.5" font-family="Helvetica,sans-Serif" font-size="10.00" fill="#000000">can/common.h</text>
</a>
</g>
</g>
<!-- Node4&#45;&gt;Node8 -->
<g id="edge9" class="edge">
<title>Node4&#45;&gt;Node8</title>
<path fill="none" stroke="#191970" d="M1055.358,-448.4862C1055.358,-421.9293 1055.358,-346.5651 1055.358,-310.1655"/>
<polygon fill="#191970" stroke="#191970" points="1058.8581,-309.8278 1055.358,-299.8279 1051.8581,-309.8279 1058.8581,-309.8278"/>
</g>
<!-- Node4&#45;&gt;Node15 -->
<g id="edge19" class="edge">
<title>Node4&#45;&gt;Node15</title>
<path fill="none" stroke="#191970" d="M1016.8181,-450.036C965.1414,-439.3574 873.9527,-420.514 822.4866,-409.879"/>
<polygon fill="#191970" stroke="#191970" points="822.9425,-406.3993 812.4411,-407.8031 821.5259,-413.2545 822.9425,-406.3993"/>
</g>
<!-- Node7&#45;&gt;Node5 -->
<g id="edge8" class="edge">
<title>Node7&#45;&gt;Node5</title>
<path fill="none" stroke="#191970" d="M1317.9253,-336.4373C1315.1602,-317.1257 1309.358,-272.0675 1309.358,-234 1309.358,-234 1309.358,-234 1309.358,-122 1309.358,-88.7973 1301.9048,-74.5364 1274.358,-56 1240.1093,-32.9537 959.6216,-16.839 858.5161,-11.7305"/>
<polygon fill="#191970" stroke="#191970" points="858.6368,-8.2322 848.4748,-11.2296 858.288,-15.2235 858.6368,-8.2322"/>
</g>
<!-- Node8&#45;&gt;Node5 -->
<g id="edge10" class="edge">
<title>Node8&#45;&gt;Node5</title>
<path fill="none" stroke="#191970" d="M1058.8358,-280.4185C1063.0376,-267.411 1068.8954,-243.545 1063.358,-224 1047.4212,-167.748 1030.6085,-157.8713 994.358,-112 972.5342,-84.3841 967.7717,-75.3325 938.358,-56 913.6458,-39.7576 882.3074,-27.7581 858.4349,-20.0947"/>
<polygon fill="#191970" stroke="#191970" points="859.2899,-16.6955 848.7019,-17.0761 857.2163,-23.3813 859.2899,-16.6955"/>
</g>
<!-- Node9 -->
<g id="node10" class="node">
<title>Node9</title>
<g id="a_node10"><a xlink:href="uio_8h.html" target="_top" xlink:title="libc header for scatter/gather I/O ">
<polygon fill="#ffffff" stroke="#000000" points="1110.358,-224.5 1110.358,-243.5 1168.358,-243.5 1168.358,-224.5 1110.358,-224.5"/>
<text text-anchor="middle" x="1139.358" y="-231.5" font-family="Helvetica,sans-Serif" font-size="10.00" fill="#000000">sys/uio.h</text>
</a>
</g>
</g>
<!-- Node8&#45;&gt;Node9 -->
<g id="edge11" class="edge">
<title>Node8&#45;&gt;Node9</title>
<path fill="none" stroke="#191970" d="M1069.9897,-280.2455C1082.7575,-271.7337 1101.5018,-259.2375 1116.2879,-249.3801"/>
<polygon fill="#191970" stroke="#191970" points="1118.515,-252.1019 1124.894,-243.6427 1114.632,-246.2775 1118.515,-252.1019"/>
</g>
<!-- Node11 -->
<g id="node12" class="node">
<title>Node11</title>
<g id="a_node12"><a xlink:href="timex_8h.html" target="_top" xlink:title="Utility library for comparing and computing timestamps. ">
<polygon fill="#ffffff" stroke="#000000" points="1002.358,-224.5 1002.358,-243.5 1054.358,-243.5 1054.358,-224.5 1002.358,-224.5"/>
<text text-anchor="middle" x="1028.358" y="-231.5" font-family="Helvetica,sans-Serif" font-size="10.00" fill="#000000">timex.h</text>
</a>
</g>
</g>
<!-- Node8&#45;&gt;Node11 -->
<g id="edge14" class="edge">
<title>Node8&#45;&gt;Node11</title>
<path fill="none" stroke="#191970" d="M1050.655,-280.2455C1047.0157,-272.6973 1041.8656,-262.0158 1037.4318,-252.8197"/>
<polygon fill="#191970" stroke="#191970" points="1040.5029,-251.1303 1033.0072,-243.6427 1034.1975,-254.1704 1040.5029,-251.1303"/>
</g>
<!-- Node14 -->
<g id="node15" class="node">
<title>Node14</title>
<polygon fill="#ffffff" stroke="#bfbfbf" points="926.858,-224.5 926.858,-243.5 983.858,-243.5 983.858,-224.5 926.858,-224.5"/>
<text text-anchor="middle" x="955.358" y="-231.5" font-family="Helvetica,sans-Serif" font-size="10.00" fill="#000000">thread.h</text>
</g>
<!-- Node8&#45;&gt;Node14 -->
<g id="edge18" class="edge">
<title>Node8&#45;&gt;Node14</title>
<path fill="none" stroke="#191970" d="M1037.9394,-280.2455C1022.3095,-271.4928 999.1562,-258.527 981.3395,-248.5496"/>
<polygon fill="#191970" stroke="#191970" points="983.0123,-245.475 972.5771,-243.6427 979.592,-251.5825 983.0123,-245.475"/>
</g>
<!-- Node9&#45;&gt;Node6 -->
<g id="edge12" class="edge">
<title>Node9&#45;&gt;Node6</title>
<path fill="none" stroke="#191970" d="M1151.2027,-224.2455C1161.246,-215.9746 1175.8575,-203.9416 1187.6584,-194.2232"/>
<polygon fill="#191970" stroke="#191970" points="1190.1547,-196.7015 1195.6491,-187.6427 1185.7048,-191.298 1190.1547,-196.7015"/>
</g>
<!-- Node10 -->
<g id="node11" class="node">
<title>Node10</title>
<polygon fill="#ffffff" stroke="#bfbfbf" points="1094.858,-168.5 1094.858,-187.5 1163.858,-187.5 1163.858,-168.5 1094.858,-168.5"/>
<text text-anchor="middle" x="1129.358" y="-175.5" font-family="Helvetica,sans-Serif" font-size="10.00" fill="#000000">sys/types.h</text>
</g>
<!-- Node9&#45;&gt;Node10 -->
<g id="edge13" class="edge">
<title>Node9&#45;&gt;Node10</title>
<path fill="none" stroke="#191970" d="M1137.6162,-224.2455C1136.3113,-216.9382 1134.482,-206.6944 1132.8767,-197.7046"/>
<polygon fill="#191970" stroke="#191970" points="1136.2834,-196.8717 1131.0799,-187.6427 1129.3924,-198.1022 1136.2834,-196.8717"/>
</g>
<!-- Node11&#45;&gt;Node5 -->
<g id="edge15" class="edge">
<title>Node11&#45;&gt;Node5</title>
<path fill="none" stroke="#191970" d="M1026.8828,-224.0966C1024.5924,-210.7244 1019.3643,-186.4465 1009.358,-168 977.9593,-110.1164 964.1868,-96.6223 912.358,-56 895.4612,-42.7566 874.1591,-31.6653 856.5215,-23.6938"/>
<polygon fill="#191970" stroke="#191970" points="857.7154,-20.3958 847.1511,-19.5923 854.9085,-26.8084 857.7154,-20.3958"/>
</g>
<!-- Node12 -->
<g id="node13" class="node">
<title>Node12</title>
<g id="a_node13"><a xlink:href="inttypes_8h.html" target="_top" xlink:title="Adds include for missing inttype definitions. ">
<polygon fill="#ffffff" stroke="#000000" points="555.858,-168.5 555.858,-187.5 618.858,-187.5 618.858,-168.5 555.858,-168.5"/>
<text text-anchor="middle" x="587.358" y="-175.5" font-family="Helvetica,sans-Serif" font-size="10.00" fill="#000000">inttypes.h</text>
</a>
</g>
</g>
<!-- Node11&#45;&gt;Node12 -->
<g id="edge16" class="edge">
<title>Node11&#45;&gt;Node12</title>
<path fill="none" stroke="#191970" d="M1002.107,-225.9504C999.1732,-225.215 996.2137,-224.5438 993.358,-224 836.0845,-194.0511 790.2807,-214.9973 629.4033,-188.1449"/>
<polygon fill="#191970" stroke="#191970" points="629.5912,-184.6264 619.1449,-186.3944 628.4137,-191.5267 629.5912,-184.6264"/>
</g>
<!-- Node13 -->
<g id="node14" class="node">
<title>Node13</title>
<g id="a_node14"><a xlink:href="time__units_8h.html" target="_top" xlink:title="Utility header providing time unit defines. ">
<polygon fill="#ffffff" stroke="#000000" points="926.358,-168.5 926.358,-187.5 1000.358,-187.5 1000.358,-168.5 926.358,-168.5"/>
<text text-anchor="middle" x="963.358" y="-175.5" font-family="Helvetica,sans-Serif" font-size="10.00" fill="#000000">time_units.h</text>
</a>
</g>
</g>
<!-- Node11&#45;&gt;Node13 -->
<g id="edge17" class="edge">
<title>Node11&#45;&gt;Node13</title>
<path fill="none" stroke="#191970" d="M1017.0359,-224.2455C1007.4357,-215.9746 993.4689,-203.9416 982.1886,-194.2232"/>
<polygon fill="#191970" stroke="#191970" points="984.411,-191.5182 974.5504,-187.6427 979.842,-196.8214 984.411,-191.5182"/>
</g>
<!-- Node15&#45;&gt;Node2 -->
<g id="edge22" class="edge">
<title>Node15&#45;&gt;Node2</title>
<path fill="none" stroke="#191970" d="M783.1741,-392.4366C780.5319,-371.7719 773.6486,-321.4693 764.358,-280 753.0404,-229.4826 747.9791,-217.3567 732.358,-168 729.5595,-159.1578 726.2218,-149.4479 723.3207,-141.2372"/>
<polygon fill="#191970" stroke="#191970" points="726.6151,-140.0549 719.953,-131.8168 720.0236,-142.4114 726.6151,-140.0549"/>
</g>
<!-- Node15&#45;&gt;Node5 -->
<g id="edge21" class="edge">
<title>Node15&#45;&gt;Node5</title>
<path fill="none" stroke="#191970" d="M797.4353,-392.2324C827.3794,-368.6378 898.358,-305.2005 898.358,-234 898.358,-234 898.358,-234 898.358,-122 898.358,-82.2361 865.151,-46.1042 842.6373,-26.177"/>
<polygon fill="#191970" stroke="#191970" points="844.7897,-23.4128 834.9079,-19.5918 840.2501,-28.7412 844.7897,-23.4128"/>
</g>
<!-- Node16 -->
<g id="node17" class="node">
<title>Node16</title>
<polygon fill="#ffffff" stroke="#bfbfbf" points="551.358,-56.5 551.358,-75.5 607.358,-75.5 607.358,-56.5 551.358,-56.5"/>
<text text-anchor="middle" x="579.358" y="-63.5" font-family="Helvetica,sans-Serif" font-size="10.00" fill="#000000">stddef.h</text>
</g>
<!-- Node15&#45;&gt;Node16 -->
<g id="edge20" class="edge">
<title>Node15&#45;&gt;Node16</title>
<path fill="none" stroke="#191970" d="M786.9553,-392.4133C797.2247,-352.1732 830.8714,-195.1588 755.358,-112 737.0507,-91.8391 663.5372,-77.9658 617.5062,-71.058"/>
<polygon fill="#191970" stroke="#191970" points="617.9696,-67.5887 607.5695,-69.6105 616.9605,-74.5156 617.9696,-67.5887"/>
</g>
<!-- Node17 -->
<g id="node18" class="node">
<title>Node17</title>
<g id="a_node18"><a xlink:href="architecture_8h.html" target="_top" xlink:title="Platform&#45;independent access to architecture details. ">
<polygon fill="#ffffff" stroke="#000000" points="148.858,-224.5 148.858,-243.5 231.858,-243.5 231.858,-224.5 148.858,-224.5"/>
<text text-anchor="middle" x="190.358" y="-231.5" font-family="Helvetica,sans-Serif" font-size="10.00" fill="#000000">architecture.h</text>
</a>
</g>
</g>
<!-- Node15&#45;&gt;Node17 -->
<g id="edge23" class="edge">
<title>Node15&#45;&gt;Node17</title>
<path fill="none" stroke="#191970" d="M756.1468,-401.3733C666.6975,-399.0608 390.4803,-389.3294 308.358,-356 257.8245,-335.4909 218.6831,-280.8703 200.8743,-252.1803"/>
<polygon fill="#191970" stroke="#191970" points="203.8235,-250.2931 195.6669,-243.5315 197.8266,-253.9038 203.8235,-250.2931"/>
</g>
<!-- Node20 -->
<g id="node21" class="node">
<title>Node20</title>
<g id="a_node21"><a xlink:href="kernel__defines_8h.html" target="_top" xlink:title="Common macros and compiler attributes/pragmas configuration. ">
<polygon fill="#ffffff" stroke="#000000" points="261.858,-168.5 261.858,-187.5 356.858,-187.5 356.858,-168.5 261.858,-168.5"/>
<text text-anchor="middle" x="309.358" y="-175.5" font-family="Helvetica,sans-Serif" font-size="10.00" fill="#000000">kernel_defines.h</text>
</a>
</g>
</g>
<!-- Node15&#45;&gt;Node20 -->
<g id="edge28" class="edge">
<title>Node15&#45;&gt;Node20</title>
<path fill="none" stroke="#191970" d="M756.2682,-399.4504C710.6833,-394.692 618.2547,-382.4462 544.358,-356 495.2989,-338.4427 483.705,-330.361 441.358,-300 395.7876,-267.3279 349.1569,-220.4155 325.4056,-195.35"/>
<polygon fill="#191970" stroke="#191970" points="327.658,-192.6355 318.2625,-187.7392 322.5539,-197.426 327.658,-192.6355"/>
</g>
<!-- Node26 -->
<g id="node27" class="node">
<title>Node26</title>
<g id="a_node27"><a xlink:href="list_8h.html" target="_top" xlink:title="Intrusive linked list. ">
<polygon fill="#ffffff" stroke="#000000" points="564.358,-112.5 564.358,-131.5 602.358,-131.5 602.358,-112.5 564.358,-112.5"/>
<text text-anchor="middle" x="583.358" y="-119.5" font-family="Helvetica,sans-Serif" font-size="10.00" fill="#000000">list.h</text>
</a>
</g>
</g>
<!-- Node15&#45;&gt;Node26 -->
<g id="edge39" class="edge">
<title>Node15&#45;&gt;Node26</title>
<path fill="none" stroke="#191970" d="M756.1156,-399.89C692.2437,-394.7448 538.7231,-380.1738 493.358,-356 437.0021,-325.9695 422.1134,-305.0415 403.358,-244 392.2074,-207.7089 411.8814,-190.6397 442.358,-168 476.0095,-143.0019 523.8853,-131.1949 554.2833,-125.9114"/>
<polygon fill="#191970" stroke="#191970" points="554.9393,-129.3509 564.2546,-124.3036 553.825,-122.4402 554.9393,-129.3509"/>
</g>
<!-- Node27 -->
<g id="node28" class="node">
<title>Node27</title>
<g id="a_node28"><a xlink:href="core_2include_2thread_8h.html" target="_top" xlink:title="Threading API. ">
<polygon fill="#ffffff" stroke="#000000" points="553.858,-336.5 553.858,-355.5 610.858,-355.5 610.858,-336.5 553.858,-336.5"/>
<text text-anchor="middle" x="582.358" y="-343.5" font-family="Helvetica,sans-Serif" font-size="10.00" fill="#000000">thread.h</text>
</a>
</g>
</g>
<!-- Node15&#45;&gt;Node27 -->
<g id="edge40" class="edge">
<title>Node15&#45;&gt;Node27</title>
<path fill="none" stroke="#191970" d="M756.2708,-394.2134C721.0677,-384.4542 660.5604,-367.6799 621.0078,-356.7148"/>
<polygon fill="#191970" stroke="#191970" points="621.7573,-353.2906 611.1857,-353.9918 619.8872,-360.0362 621.7573,-353.2906"/>
</g>
<!-- Node17&#45;&gt;Node5 -->
<g id="edge24" class="edge">
<title>Node17&#45;&gt;Node5</title>
<path fill="none" stroke="#191970" d="M148.6455,-224.8762C114.4384,-216.449 69.9856,-202.9955 59.358,-188 5.5564,-112.0857 -89.587,-169.6465 198.358,-56 252.971,-34.4453 660.392,-16.4893 785.7584,-11.4269"/>
<polygon fill="#191970" stroke="#191970" points="786.1336,-14.9148 795.9856,-11.0174 785.8535,-7.9204 786.1336,-14.9148"/>
</g>
<!-- Node17&#45;&gt;Node12 -->
<g id="edge25" class="edge">
<title>Node17&#45;&gt;Node12</title>
<path fill="none" stroke="#191970" d="M231.9741,-230.1325C296.8451,-223.7748 426.149,-209.786 545.5998,-187.9606"/>
<polygon fill="#191970" stroke="#191970" points="546.4526,-191.3623 555.6489,-186.1014 545.179,-184.4792 546.4526,-191.3623"/>
</g>
<!-- Node18 -->
<g id="node19" class="node">
<title>Node18</title>
<polygon fill="#ffffff" stroke="#bfbfbf" points="68.358,-168.5 68.358,-187.5 118.358,-187.5 118.358,-168.5 68.358,-168.5"/>
<text text-anchor="middle" x="93.358" y="-175.5" font-family="Helvetica,sans-Serif" font-size="10.00" fill="#000000">limits.h</text>
</g>
<!-- Node17&#45;&gt;Node18 -->
<g id="edge26" class="edge">
<title>Node17&#45;&gt;Node18</title>
<path fill="none" stroke="#191970" d="M173.4619,-224.2455C158.4401,-215.5731 136.2537,-202.7645 119.037,-192.825"/>
<polygon fill="#191970" stroke="#191970" points="120.4709,-189.6114 110.0605,-187.6427 116.971,-195.6737 120.4709,-189.6114"/>
</g>
<!-- Node19 -->
<g id="node20" class="node">
<title>Node19</title>
<polygon fill="#ffffff" stroke="#bfbfbf" points="136.858,-168.5 136.858,-187.5 243.858,-187.5 243.858,-168.5 136.858,-168.5"/>
<text text-anchor="middle" x="190.358" y="-175.5" font-family="Helvetica,sans-Serif" font-size="10.00" fill="#000000">architecture_arch.h</text>
</g>
<!-- Node17&#45;&gt;Node19 -->
<g id="edge27" class="edge">
<title>Node17&#45;&gt;Node19</title>
<path fill="none" stroke="#191970" d="M190.358,-224.2455C190.358,-216.9382 190.358,-206.6944 190.358,-197.7046"/>
<polygon fill="#191970" stroke="#191970" points="193.8581,-197.6426 190.358,-187.6427 186.8581,-197.6427 193.8581,-197.6426"/>
</g>
<!-- Node21 -->
<g id="node22" class="node">
<title>Node21</title>
<g id="a_node22"><a xlink:href="modules_8h.html" target="_top" xlink:title="Common macros and compiler attributes/pragmas configuration. ">
<polygon fill="#ffffff" stroke="#000000" points="424.858,-112.5 424.858,-131.5 489.858,-131.5 489.858,-112.5 424.858,-112.5"/>
<text text-anchor="middle" x="457.358" y="-119.5" font-family="Helvetica,sans-Serif" font-size="10.00" fill="#000000">modules.h</text>
</a>
</g>
</g>
<!-- Node20&#45;&gt;Node21 -->
<g id="edge29" class="edge">
<title>Node20&#45;&gt;Node21</title>
<path fill="none" stroke="#191970" d="M334.8001,-168.3733C359.0907,-159.1822 395.8789,-145.2624 422.8123,-135.0713"/>
<polygon fill="#191970" stroke="#191970" points="424.1337,-138.3136 432.2479,-131.5011 421.6564,-131.7666 424.1337,-138.3136"/>
</g>
<!-- Node22 -->
<g id="node23" class="node">
<title>Node22</title>
<g id="a_node23"><a xlink:href="riot__version_8h.html" target="_top" xlink:title="Common macros and compiler attributes/pragmas configuration. ">
<polygon fill="#ffffff" stroke="#000000" points="392.858,-56.5 392.858,-75.5 473.858,-75.5 473.858,-56.5 392.858,-56.5"/>
<text text-anchor="middle" x="433.358" y="-63.5" font-family="Helvetica,sans-Serif" font-size="10.00" fill="#000000">riot_version.h</text>
</a>
</g>
</g>
<!-- Node20&#45;&gt;Node22 -->
<g id="edge30" class="edge">
<title>Node20&#45;&gt;Node22</title>
<path fill="none" stroke="#191970" d="M309.6494,-168.2728C310.5706,-154.2176 314.2205,-128.1486 328.358,-112 342.5446,-95.7954 363.5,-85.071 382.9666,-78.0892"/>
<polygon fill="#191970" stroke="#191970" points="384.282,-81.3403 392.6659,-74.8626 382.0724,-74.6982 384.282,-81.3403"/>
</g>
<!-- Node23 -->
<g id="node24" class="node">
<title>Node23</title>
<g id="a_node24"><a xlink:href="compiler__hints_8h.html" target="_top" xlink:title="Common macros and compiler attributes/pragmas configuration. ">
<polygon fill="#ffffff" stroke="#000000" points="187.858,-112.5 187.858,-131.5 280.858,-131.5 280.858,-112.5 187.858,-112.5"/>
<text text-anchor="middle" x="234.358" y="-119.5" font-family="Helvetica,sans-Serif" font-size="10.00" fill="#000000">compiler_hints.h</text>
</a>
</g>
</g>
<!-- Node20&#45;&gt;Node23 -->
<g id="edge32" class="edge">
<title>Node20&#45;&gt;Node23</title>
<path fill="none" stroke="#191970" d="M296.294,-168.2455C285.0018,-159.814 268.4735,-147.4729 255.3309,-137.6598"/>
<polygon fill="#191970" stroke="#191970" points="257.3792,-134.8211 247.2723,-131.6427 253.1911,-140.4301 257.3792,-134.8211"/>
</g>
<!-- Node25 -->
<g id="node26" class="node">
<title>Node25</title>
<g id="a_node26"><a xlink:href="container_8h.html" target="_top" xlink:title="Common macros and compiler attributes/pragmas configuration. ">
<polygon fill="#ffffff" stroke="#000000" points="337.858,-112.5 337.858,-131.5 406.858,-131.5 406.858,-112.5 337.858,-112.5"/>
<text text-anchor="middle" x="372.358" y="-119.5" font-family="Helvetica,sans-Serif" font-size="10.00" fill="#000000">container.h</text>
</a>
</g>
</g>
<!-- Node20&#45;&gt;Node25 -->
<g id="edge36" class="edge">
<title>Node20&#45;&gt;Node25</title>
<path fill="none" stroke="#191970" d="M320.3318,-168.2455C329.5462,-160.0549 342.9112,-148.1749 353.7877,-138.5069"/>
<polygon fill="#191970" stroke="#191970" points="356.3612,-140.9023 361.51,-131.6427 351.7106,-135.6704 356.3612,-140.9023"/>
</g>
<!-- Node22&#45;&gt;Node5 -->
<g id="edge31" class="edge">
<title>Node22&#45;&gt;Node5</title>
<path fill="none" stroke="#191970" d="M473.9576,-58.9575C480.1177,-57.9357 486.4029,-56.9195 492.358,-56 598.8699,-39.5537 725.1383,-22.6812 785.9895,-14.714"/>
<polygon fill="#191970" stroke="#191970" points="786.7619,-18.143 796.2244,-13.3773 785.8553,-11.2019 786.7619,-18.143"/>
</g>
<!-- Node23&#45;&gt;Node5 -->
<g id="edge35" class="edge">
<title>Node23&#45;&gt;Node5</title>
<path fill="none" stroke="#191970" d="M251.1506,-112.4586C278.0913,-97.6432 333.0593,-69.4177 383.358,-56 459.2999,-35.7417 695.4012,-18.4142 786.2376,-12.3276"/>
<polygon fill="#191970" stroke="#191970" points="786.5789,-15.8127 796.3251,-11.658 786.1152,-8.8281 786.5789,-15.8127"/>
</g>
<!-- Node24 -->
<g id="node25" class="node">
<title>Node24</title>
<g id="a_node25"><a xlink:href="assert_8h.html" target="_top" xlink:title="POSIX.1&#45;2008 compliant version of the assert macro. ">
<polygon fill="#ffffff" stroke="#000000" points="207.358,-56.5 207.358,-75.5 261.358,-75.5 261.358,-56.5 207.358,-56.5"/>
<text text-anchor="middle" x="234.358" y="-63.5" font-family="Helvetica,sans-Serif" font-size="10.00" fill="#000000">assert.h</text>
</a>
</g>
</g>
<!-- Node23&#45;&gt;Node24 -->
<g id="edge33" class="edge">
<title>Node23&#45;&gt;Node24</title>
<path fill="none" stroke="#191970" d="M234.358,-112.2455C234.358,-104.9382 234.358,-94.6944 234.358,-85.7046"/>
<polygon fill="#191970" stroke="#191970" points="237.8581,-85.6426 234.358,-75.6427 230.8581,-85.6427 237.8581,-85.6426"/>
</g>
<!-- Node24&#45;&gt;Node5 -->
<g id="edge34" class="edge">
<title>Node24&#45;&gt;Node5</title>
<path fill="none" stroke="#191970" d="M261.5392,-63.4113C357.0604,-54.3141 677.421,-23.8035 786.0085,-13.4619"/>
<polygon fill="#191970" stroke="#191970" points="786.5126,-16.9298 796.1357,-12.4974 785.8489,-9.9613 786.5126,-16.9298"/>
</g>
<!-- Node25&#45;&gt;Node5 -->
<g id="edge38" class="edge">
<title>Node25&#45;&gt;Node5</title>
<path fill="none" stroke="#191970" d="M395.2654,-112.4236C434.5905,-96.0994 513.496,-63.8815 542.358,-56 628.1217,-32.58 732.1158,-19.3198 786.0156,-13.5339"/>
<polygon fill="#191970" stroke="#191970" points="786.527,-16.9996 796.1074,-12.4756 785.7969,-10.0377 786.527,-16.9996"/>
</g>
<!-- Node25&#45;&gt;Node16 -->
<g id="edge37" class="edge">
<title>Node25&#45;&gt;Node16</title>
<path fill="none" stroke="#191970" d="M407.0052,-112.6269C444.1948,-102.5659 503.0901,-86.6329 541.4817,-76.2467"/>
<polygon fill="#191970" stroke="#191970" points="542.5137,-79.5935 551.2526,-73.6034 540.6856,-72.8364 542.5137,-79.5935"/>
</g>
<!-- Node28 -->
<g id="node29" class="node">
<title>Node28</title>
<g id="a_node29"><a xlink:href="clist_8h.html" target="_top" xlink:title="Circular linked list. ">
<polygon fill="#ffffff" stroke="#000000" points="636.858,-168.5 636.858,-187.5 679.858,-187.5 679.858,-168.5 636.858,-168.5"/>
<text text-anchor="middle" x="658.358" y="-175.5" font-family="Helvetica,sans-Serif" font-size="10.00" fill="#000000">clist.h</text>
</a>
</g>
</g>
<!-- Node27&#45;&gt;Node28 -->
<g id="edge41" class="edge">
<title>Node27&#45;&gt;Node28</title>
<path fill="none" stroke="#191970" d="M584.3992,-336.3672C587.3311,-323.3017 593.2836,-299.3702 601.358,-280 614.1023,-249.427 633.7778,-216.3593 646.3583,-196.4166"/>
<polygon fill="#191970" stroke="#191970" points="649.4623,-198.0593 651.9027,-187.7493 643.5656,-194.2871 649.4623,-198.0593"/>
</g>
<!-- Node29 -->
<g id="node30" class="node">
<title>Node29</title>
<g id="a_node30"><a xlink:href="cib_8h.html" target="_top" xlink:title="Circular integer buffer interface. ">
<polygon fill="#ffffff" stroke="#000000" points="247.358,-280.5 247.358,-299.5 285.358,-299.5 285.358,-280.5 247.358,-280.5"/>
<text text-anchor="middle" x="266.358" y="-287.5" font-family="Helvetica,sans-Serif" font-size="10.00" fill="#000000">cib.h</text>
</a>
</g>
</g>
<!-- Node27&#45;&gt;Node29 -->
<g id="edge45" class="edge">
<title>Node27&#45;&gt;Node29</title>
<path fill="none" stroke="#191970" d="M553.7578,-340.9316C493.8496,-330.315 355.7476,-305.8412 295.4307,-295.1521"/>
<polygon fill="#191970" stroke="#191970" points="295.8986,-291.6806 285.4412,-293.3818 294.677,-298.5732 295.8986,-291.6806"/>
</g>
<!-- Node30 -->
<g id="node31" class="node">
<title>Node30</title>
<g id="a_node31"><a xlink:href="core_2include_2msg_8h.html" target="_top" xlink:title="Messaging API for inter process communication. ">
<polygon fill="#ffffff" stroke="#000000" points="710.858,-280.5 710.858,-299.5 755.858,-299.5 755.858,-280.5 710.858,-280.5"/>
<text text-anchor="middle" x="733.358" y="-287.5" font-family="Helvetica,sans-Serif" font-size="10.00" fill="#000000">msg.h</text>
</a>
</g>
</g>
<!-- Node27&#45;&gt;Node30 -->
<g id="edge47" class="edge">
<title>Node27&#45;&gt;Node30</title>
<path fill="none" stroke="#191970" d="M608.3159,-336.3733C634,-326.848 673.3793,-312.2438 701.0689,-301.9748"/>
<polygon fill="#191970" stroke="#191970" points="702.5354,-305.1639 710.6944,-298.4051 700.1014,-298.6007 702.5354,-305.1639"/>
</g>
<!-- Node27&#45;&gt;Node31 -->
<g id="edge56" class="edge">
<title>Node27&#45;&gt;Node31</title>
<path fill="none" stroke="#191970" d="M553.8174,-343.3931C524.8318,-339.1996 480.7081,-328.2946 455.358,-300 444.1837,-287.5277 440.4836,-268.5792 439.4038,-254.1798"/>
<polygon fill="#191970" stroke="#191970" points="442.8872,-253.6763 439.0069,-243.8176 435.8923,-253.9443 442.8872,-253.6763"/>
</g>
<!-- Node33 -->
<g id="node34" class="node">
<title>Node33</title>
<g id="a_node34"><a xlink:href="thread__config_8h.html" target="_top" xlink:title="Thread configuration defines. ">
<polygon fill="#ffffff" stroke="#000000" points="464.358,-280.5 464.358,-299.5 554.358,-299.5 554.358,-280.5 464.358,-280.5"/>
<text text-anchor="middle" x="509.358" y="-287.5" font-family="Helvetica,sans-Serif" font-size="10.00" fill="#000000">thread_config.h</text>
</a>
</g>
</g>
<!-- Node27&#45;&gt;Node33 -->
<g id="edge57" class="edge">
<title>Node27&#45;&gt;Node33</title>
<path fill="none" stroke="#191970" d="M569.6424,-336.2455C558.756,-327.8943 542.8698,-315.7076 530.138,-305.9408"/>
<polygon fill="#191970" stroke="#191970" points="531.9926,-302.9523 521.928,-299.6427 527.732,-308.5063 531.9926,-302.9523"/>
</g>
<!-- Node35 -->
<g id="node36" class="node">
<title>Node35</title>
<polygon fill="#ffffff" stroke="#bfbfbf" points="610.358,-280.5 610.358,-299.5 692.358,-299.5 692.358,-280.5 610.358,-280.5"/>
<text text-anchor="middle" x="651.358" y="-287.5" font-family="Helvetica,sans-Serif" font-size="10.00" fill="#000000">thread_arch.h</text>
</g>
<!-- Node27&#45;&gt;Node35 -->
<g id="edge60" class="edge">
<title>Node27&#45;&gt;Node35</title>
<path fill="none" stroke="#191970" d="M594.3769,-336.2455C604.5679,-327.9746 619.3942,-315.9416 631.3687,-306.2232"/>
<polygon fill="#191970" stroke="#191970" points="633.9179,-308.662 639.4769,-299.6427 629.5067,-303.2268 633.9179,-308.662"/>
</g>
<!-- Node28&#45;&gt;Node2 -->
<g id="edge42" class="edge">
<title>Node28&#45;&gt;Node2</title>
<path fill="none" stroke="#191970" d="M668.4609,-168.2455C676.8608,-160.1352 689.0074,-148.4075 698.9664,-138.7919"/>
<polygon fill="#191970" stroke="#191970" points="701.608,-141.1066 706.371,-131.6427 696.7458,-136.0707 701.608,-141.1066"/>
</g>
<!-- Node28&#45;&gt;Node16 -->
<g id="edge43" class="edge">
<title>Node28&#45;&gt;Node16</title>
<path fill="none" stroke="#191970" d="M651.6225,-168.4509C638.388,-149.688 608.8101,-107.7548 591.8837,-83.758"/>
<polygon fill="#191970" stroke="#191970" points="594.7006,-81.6792 586.0765,-75.5249 588.9804,-85.714 594.7006,-81.6792"/>
</g>
<!-- Node28&#45;&gt;Node26 -->
<g id="edge44" class="edge">
<title>Node28&#45;&gt;Node26</title>
<path fill="none" stroke="#191970" d="M645.294,-168.2455C634.0018,-159.814 617.4735,-147.4729 604.3309,-137.6598"/>
<polygon fill="#191970" stroke="#191970" points="606.3792,-134.8211 596.2723,-131.6427 602.1911,-140.4301 606.3792,-134.8211"/>
</g>
<!-- Node29&#45;&gt;Node24 -->
<g id="edge46" class="edge">
<title>Node29&#45;&gt;Node24</title>
<path fill="none" stroke="#191970" d="M247.2764,-287.8355C203.4766,-281.6809 96.6391,-259.6041 59.358,-188 27.1831,-126.2029 136.7909,-89.3494 197.1821,-74.1499"/>
<polygon fill="#191970" stroke="#191970" points="198.2431,-77.4939 207.132,-71.7288 196.588,-70.6924 198.2431,-77.4939"/>
</g>
<!-- Node30&#45;&gt;Node2 -->
<g id="edge49" class="edge">
<title>Node30&#45;&gt;Node2</title>
<path fill="none" stroke="#191970" d="M732.3953,-280.4862C729.708,-253.9293 722.0819,-178.5651 718.3986,-142.1655"/>
<polygon fill="#191970" stroke="#191970" points="721.8416,-141.4247 717.3525,-131.8279 714.8772,-142.1295 721.8416,-141.4247"/>
</g>
<!-- Node30&#45;&gt;Node5 -->
<g id="edge48" class="edge">
<title>Node30&#45;&gt;Node5</title>
<path fill="none" stroke="#191970" d="M736.4216,-280.3618C749.2593,-239.9735 798.8629,-83.9174 816.2746,-29.1388"/>
<polygon fill="#191970" stroke="#191970" points="819.6136,-30.1881 819.3073,-19.5977 812.9425,-28.0676 819.6136,-30.1881"/>
</g>
<!-- Node30&#45;&gt;Node31 -->
<g id="edge50" class="edge">
<title>Node30&#45;&gt;Node31</title>
<path fill="none" stroke="#191970" d="M710.745,-282.486C707.6113,-281.5762 704.4183,-280.7168 701.358,-280 605.0083,-257.4319 575.9025,-265.5181 475.927,-244.1419"/>
<polygon fill="#191970" stroke="#191970" points="476.5426,-240.6939 466.0261,-241.9792 475.0488,-247.5327 476.5426,-240.6939"/>
</g>
<!-- Node31&#45;&gt;Node12 -->
<g id="edge52" class="edge">
<title>Node31&#45;&gt;Node12</title>
<path fill="none" stroke="#191970" d="M464.8001,-224.3733C489.0907,-215.1822 525.8789,-201.2624 552.8123,-191.0713"/>
<polygon fill="#191970" stroke="#191970" points="554.1337,-194.3136 562.2479,-187.5011 551.6564,-187.7666 554.1337,-194.3136"/>
</g>
<!-- Node31&#45;&gt;Node16 -->
<g id="edge51" class="edge">
<title>Node31&#45;&gt;Node16</title>
<path fill="none" stroke="#191970" d="M437.1865,-224.2801C434.6994,-210.6902 432.1701,-185.6934 442.358,-168 457.1224,-142.3588 474.4069,-149.3724 498.358,-132 520.4904,-115.9468 544.6399,-95.9177 560.759,-82.1595"/>
<polygon fill="#191970" stroke="#191970" points="563.0998,-84.7628 568.4031,-75.5907 558.5375,-79.4537 563.0998,-84.7628"/>
</g>
<!-- Node31&#45;&gt;Node20 -->
<g id="edge53" class="edge">
<title>Node31&#45;&gt;Node20</title>
<path fill="none" stroke="#191970" d="M417.0102,-224.3733C395.9547,-215.3032 364.2085,-201.6279 340.6405,-191.4755"/>
<polygon fill="#191970" stroke="#191970" points="341.9831,-188.243 331.4142,-187.5011 339.2136,-194.6719 341.9831,-188.243"/>
</g>
<!-- Node31&#45;&gt;Node28 -->
<g id="edge55" class="edge">
<title>Node31&#45;&gt;Node28</title>
<path fill="none" stroke="#191970" d="M466.0755,-226.226C468.8673,-225.4557 471.6671,-224.7006 474.358,-224 538.9246,-207.1901 558.3351,-206.7442 626.7558,-187.9898"/>
<polygon fill="#191970" stroke="#191970" points="628.045,-191.2644 636.7454,-185.2184 626.1736,-184.5192 628.045,-191.2644"/>
</g>
<!-- Node32 -->
<g id="node33" class="node">
<title>Node32</title>
<g id="a_node33"><a xlink:href="native__sched_8h.html" target="_top" xlink:title="Add definitions required on the native board. ">
<polygon fill="#ffffff" stroke="#000000" points="451.358,-168.5 451.358,-187.5 537.358,-187.5 537.358,-168.5 451.358,-168.5"/>
<text text-anchor="middle" x="494.358" y="-175.5" font-family="Helvetica,sans-Serif" font-size="10.00" fill="#000000">native_sched.h</text>
</a>
</g>
</g>
<!-- Node31&#45;&gt;Node32 -->
<g id="edge54" class="edge">
<title>Node31&#45;&gt;Node32</title>
<path fill="none" stroke="#191970" d="M448.9383,-224.2455C456.9038,-216.1352 468.4221,-204.4075 477.866,-194.7919"/>
<polygon fill="#191970" stroke="#191970" points="480.3775,-197.2297 484.8876,-187.6427 475.3834,-192.3247 480.3775,-197.2297"/>
</g>
<!-- Node33&#45;&gt;Node31 -->
<g id="edge59" class="edge">
<title>Node33&#45;&gt;Node31</title>
<path fill="none" stroke="#191970" d="M497.165,-280.2455C486.7259,-271.8943 471.4926,-259.7076 459.2841,-249.9408"/>
<polygon fill="#191970" stroke="#191970" points="461.4065,-247.1566 451.4114,-243.6427 457.0336,-252.6227 461.4065,-247.1566"/>
</g>
<!-- Node34 -->
<g id="node35" class="node">
<title>Node34</title>
<polygon fill="#ffffff" stroke="#bfbfbf" points="483.858,-224.5 483.858,-243.5 550.858,-243.5 550.858,-224.5 483.858,-224.5"/>
<text text-anchor="middle" x="517.358" y="-231.5" font-family="Helvetica,sans-Serif" font-size="10.00" fill="#000000">cpu_conf.h</text>
</g>
<!-- Node33&#45;&gt;Node34 -->
<g id="edge58" class="edge">
<title>Node33&#45;&gt;Node34</title>
<path fill="none" stroke="#191970" d="M510.7515,-280.2455C511.7954,-272.9382 513.2588,-262.6944 514.5431,-253.7046"/>
<polygon fill="#191970" stroke="#191970" points="518.031,-254.0372 515.9805,-243.6427 511.1014,-253.0472 518.031,-254.0372"/>
</g>
</g>
</svg>
