<?xml version="1.0" encoding="UTF-8" standalone="no"?>
<!DOCTYPE svg PUBLIC "-//W3C//DTD SVG 1.1//EN"
 "http://www.w3.org/Graphics/SVG/1.1/DTD/svg11.dtd">
<!-- Generated by graphviz version 2.40.1 (0)
 -->
<!-- Title: drivers/include/ncv7356.h Pages: 1 -->
<svg width="489pt" height="364pt"
 viewBox="0.00 0.00 489.00 364.00" xmlns="http://www.w3.org/2000/svg" xmlns:xlink="http://www.w3.org/1999/xlink">
<g id="graph0" class="graph" transform="scale(1 1) rotate(0) translate(4 360)">
<title>drivers/include/ncv7356.h</title>
<polygon fill="#ffffff" stroke="transparent" points="-4,4 -4,-360 485,-360 485,4 -4,4"/>
<!-- Node0 -->
<g id="node1" class="node">
<title>Node0</title>
<polygon fill="#bfbfbf" stroke="#000000" points="187,-336.5 187,-355.5 326,-355.5 326,-336.5 187,-336.5"/>
<text text-anchor="middle" x="256.5" y="-343.5" font-family="Helvetica,sans-Serif" font-size="10.00" fill="#000000">drivers/include/ncv7356.h</text>
</g>
<!-- Node1 -->
<g id="node2" class="node">
<title>Node1</title>
<g id="a_node2"><a xlink:href="stdio_8h.html" target="_top" xlink:title="stdio wrapper to extend the C libs stdio ">
<polygon fill="#ffffff" stroke="#000000" points="80.5,-280.5 80.5,-299.5 128.5,-299.5 128.5,-280.5 80.5,-280.5"/>
<text text-anchor="middle" x="104.5" y="-287.5" font-family="Helvetica,sans-Serif" font-size="10.00" fill="#000000">stdio.h</text>
</a>
</g>
</g>
<!-- Node0&#45;&gt;Node1 -->
<g id="edge1" class="edge">
<title>Node0&#45;&gt;Node1</title>
<path fill="none" stroke="#191970" d="M230.3703,-336.3733C204.9696,-327.0151 166.2626,-312.7547 138.4807,-302.5192"/>
<polygon fill="#191970" stroke="#191970" points="139.3779,-299.1198 128.7845,-298.9469 136.9579,-305.6882 139.3779,-299.1198"/>
</g>
<!-- Node13 -->
<g id="node14" class="node">
<title>Node13</title>
<g id="a_node14"><a xlink:href="drivers_2include_2periph_2gpio_8h.html" target="_top" xlink:title="Low&#45;level GPIO peripheral driver interface definitions. ">
<polygon fill="#ffffff" stroke="#000000" points="216.5,-280.5 216.5,-299.5 296.5,-299.5 296.5,-280.5 216.5,-280.5"/>
<text text-anchor="middle" x="256.5" y="-287.5" font-family="Helvetica,sans-Serif" font-size="10.00" fill="#000000">periph/gpio.h</text>
</a>
</g>
</g>
<!-- Node0&#45;&gt;Node13 -->
<g id="edge17" class="edge">
<title>Node0&#45;&gt;Node13</title>
<path fill="none" stroke="#191970" d="M256.5,-336.2455C256.5,-328.9382 256.5,-318.6944 256.5,-309.7046"/>
<polygon fill="#191970" stroke="#191970" points="260.0001,-309.6426 256.5,-299.6427 253.0001,-309.6427 260.0001,-309.6426"/>
</g>
<!-- Node18 -->
<g id="node19" class="node">
<title>Node18</title>
<g id="a_node19"><a xlink:href="can__trx_8h.html" target="_top" xlink:title="CAN generic transceiver interface. ">
<polygon fill="#ffffff" stroke="#000000" points="315,-280.5 315,-299.5 394,-299.5 394,-280.5 315,-280.5"/>
<text text-anchor="middle" x="354.5" y="-287.5" font-family="Helvetica,sans-Serif" font-size="10.00" fill="#000000">can/can_trx.h</text>
</a>
</g>
</g>
<!-- Node0&#45;&gt;Node18 -->
<g id="edge22" class="edge">
<title>Node0&#45;&gt;Node18</title>
<path fill="none" stroke="#191970" d="M273.5703,-336.2455C288.747,-327.5731 311.1621,-314.7645 328.5563,-304.825"/>
<polygon fill="#191970" stroke="#191970" points="330.6794,-307.643 337.6253,-299.6427 327.2064,-301.5653 330.6794,-307.643"/>
</g>
<!-- Node2 -->
<g id="node3" class="node">
<title>Node2</title>
<g id="a_node3"><a xlink:href="flash__utils_8h.html" target="_top" xlink:title="Utility functions, macros, and types for read&#45;only memory. ">
<polygon fill="#ffffff" stroke="#000000" points="69,-224.5 69,-243.5 140,-243.5 140,-224.5 69,-224.5"/>
<text text-anchor="middle" x="104.5" y="-231.5" font-family="Helvetica,sans-Serif" font-size="10.00" fill="#000000">flash_utils.h</text>
</a>
</g>
</g>
<!-- Node1&#45;&gt;Node2 -->
<g id="edge2" class="edge">
<title>Node1&#45;&gt;Node2</title>
<path fill="none" stroke="#191970" d="M99.2332,-280.2455C97.8221,-272.9382 97.4179,-262.6944 98.0205,-253.7046"/>
<polygon fill="#191970" stroke="#191970" points="101.5111,-253.9945 99.2549,-243.6427 94.5632,-253.1421 101.5111,-253.9945"/>
</g>
<!-- Node2&#45;&gt;Node1 -->
<g id="edge3" class="edge">
<title>Node2&#45;&gt;Node1</title>
<path fill="none" stroke="#191970" d="M109.7451,-243.6427C111.1665,-250.9199 111.581,-261.155 110.9887,-270.1575"/>
<polygon fill="#191970" stroke="#191970" points="107.4947,-269.8972 109.7668,-280.2455 114.4439,-270.739 107.4947,-269.8972"/>
</g>
<!-- Node3 -->
<g id="node4" class="node">
<title>Node3</title>
<polygon fill="#ffffff" stroke="#bfbfbf" points="0,-168.5 0,-187.5 53,-187.5 53,-168.5 0,-168.5"/>
<text text-anchor="middle" x="26.5" y="-175.5" font-family="Helvetica,sans-Serif" font-size="10.00" fill="#000000">string.h</text>
</g>
<!-- Node2&#45;&gt;Node3 -->
<g id="edge4" class="edge">
<title>Node2&#45;&gt;Node3</title>
<path fill="none" stroke="#191970" d="M90.9134,-224.2455C79.1695,-215.814 61.9801,-203.4729 48.3118,-193.6598"/>
<polygon fill="#191970" stroke="#191970" points="50.0954,-190.6316 39.9309,-187.6427 46.0129,-196.3179 50.0954,-190.6316"/>
</g>
<!-- Node4 -->
<g id="node5" class="node">
<title>Node4</title>
<polygon fill="#ffffff" stroke="#bfbfbf" points="71,-168.5 71,-187.5 138,-187.5 138,-168.5 71,-168.5"/>
<text text-anchor="middle" x="104.5" y="-175.5" font-family="Helvetica,sans-Serif" font-size="10.00" fill="#000000">cpu_conf.h</text>
</g>
<!-- Node2&#45;&gt;Node4 -->
<g id="edge5" class="edge">
<title>Node2&#45;&gt;Node4</title>
<path fill="none" stroke="#191970" d="M104.5,-224.2455C104.5,-216.9382 104.5,-206.6944 104.5,-197.7046"/>
<polygon fill="#191970" stroke="#191970" points="108.0001,-197.6426 104.5,-187.6427 101.0001,-197.6427 108.0001,-197.6426"/>
</g>
<!-- Node5 -->
<g id="node6" class="node">
<title>Node5</title>
<g id="a_node6"><a xlink:href="kernel__defines_8h.html" target="_top" xlink:title="Common macros and compiler attributes/pragmas configuration. ">
<polygon fill="#ffffff" stroke="#000000" points="156,-168.5 156,-187.5 251,-187.5 251,-168.5 156,-168.5"/>
<text text-anchor="middle" x="203.5" y="-175.5" font-family="Helvetica,sans-Serif" font-size="10.00" fill="#000000">kernel_defines.h</text>
</a>
</g>
</g>
<!-- Node2&#45;&gt;Node5 -->
<g id="edge6" class="edge">
<title>Node2&#45;&gt;Node5</title>
<path fill="none" stroke="#191970" d="M121.7445,-224.2455C137.0761,-215.5731 159.7199,-202.7645 177.2916,-192.825"/>
<polygon fill="#191970" stroke="#191970" points="179.4724,-195.6126 186.4531,-187.6427 176.0259,-189.5198 179.4724,-195.6126"/>
</g>
<!-- Node6 -->
<g id="node7" class="node">
<title>Node6</title>
<g id="a_node7"><a xlink:href="modules_8h.html" target="_top" xlink:title="Common macros and compiler attributes/pragmas configuration. ">
<polygon fill="#ffffff" stroke="#000000" points="72,-112.5 72,-131.5 137,-131.5 137,-112.5 72,-112.5"/>
<text text-anchor="middle" x="104.5" y="-119.5" font-family="Helvetica,sans-Serif" font-size="10.00" fill="#000000">modules.h</text>
</a>
</g>
</g>
<!-- Node5&#45;&gt;Node6 -->
<g id="edge7" class="edge">
<title>Node5&#45;&gt;Node6</title>
<path fill="none" stroke="#191970" d="M186.2555,-168.2455C170.9239,-159.5731 148.2801,-146.7645 130.7084,-136.825"/>
<polygon fill="#191970" stroke="#191970" points="131.9741,-133.5198 121.5469,-131.6427 128.5276,-139.6126 131.9741,-133.5198"/>
</g>
<!-- Node7 -->
<g id="node8" class="node">
<title>Node7</title>
<g id="a_node8"><a xlink:href="riot__version_8h.html" target="_top" xlink:title="Common macros and compiler attributes/pragmas configuration. ">
<polygon fill="#ffffff" stroke="#000000" points="123,-56.5 123,-75.5 204,-75.5 204,-56.5 123,-56.5"/>
<text text-anchor="middle" x="163.5" y="-63.5" font-family="Helvetica,sans-Serif" font-size="10.00" fill="#000000">riot_version.h</text>
</a>
</g>
</g>
<!-- Node5&#45;&gt;Node7 -->
<g id="edge8" class="edge">
<title>Node5&#45;&gt;Node7</title>
<path fill="none" stroke="#191970" d="M199.1825,-168.223C195.1651,-158.9742 189.1204,-144.6626 184.5,-132 178.897,-116.6447 173.3232,-98.987 169.3273,-85.8019"/>
<polygon fill="#191970" stroke="#191970" points="172.5931,-84.506 166.376,-75.927 165.8862,-86.5105 172.5931,-84.506"/>
</g>
<!-- Node9 -->
<g id="node10" class="node">
<title>Node9</title>
<g id="a_node10"><a xlink:href="compiler__hints_8h.html" target="_top" xlink:title="Common macros and compiler attributes/pragmas configuration. ">
<polygon fill="#ffffff" stroke="#000000" points="194,-112.5 194,-131.5 287,-131.5 287,-112.5 194,-112.5"/>
<text text-anchor="middle" x="240.5" y="-119.5" font-family="Helvetica,sans-Serif" font-size="10.00" fill="#000000">compiler_hints.h</text>
</a>
</g>
</g>
<!-- Node5&#45;&gt;Node9 -->
<g id="edge10" class="edge">
<title>Node5&#45;&gt;Node9</title>
<path fill="none" stroke="#191970" d="M209.9449,-168.2455C215.0382,-160.5367 222.2908,-149.5598 228.452,-140.2348"/>
<polygon fill="#191970" stroke="#191970" points="231.5365,-141.9155 234.1289,-131.6427 225.6962,-138.0566 231.5365,-141.9155"/>
</g>
<!-- Node11 -->
<g id="node12" class="node">
<title>Node11</title>
<g id="a_node12"><a xlink:href="container_8h.html" target="_top" xlink:title="Common macros and compiler attributes/pragmas configuration. ">
<polygon fill="#ffffff" stroke="#000000" points="308,-112.5 308,-131.5 377,-131.5 377,-112.5 308,-112.5"/>
<text text-anchor="middle" x="342.5" y="-119.5" font-family="Helvetica,sans-Serif" font-size="10.00" fill="#000000">container.h</text>
</a>
</g>
</g>
<!-- Node5&#45;&gt;Node11 -->
<g id="edge14" class="edge">
<title>Node5&#45;&gt;Node11</title>
<path fill="none" stroke="#191970" d="M227.395,-168.3733C250.0082,-159.2629 284.1542,-145.5062 309.3873,-135.3404"/>
<polygon fill="#191970" stroke="#191970" points="310.9493,-138.4845 318.9169,-131.5011 308.3334,-131.9917 310.9493,-138.4845"/>
</g>
<!-- Node8 -->
<g id="node9" class="node">
<title>Node8</title>
<polygon fill="#ffffff" stroke="#bfbfbf" points="233.5,-.5 233.5,-19.5 285.5,-19.5 285.5,-.5 233.5,-.5"/>
<text text-anchor="middle" x="259.5" y="-7.5" font-family="Helvetica,sans-Serif" font-size="10.00" fill="#000000">stdint.h</text>
</g>
<!-- Node7&#45;&gt;Node8 -->
<g id="edge9" class="edge">
<title>Node7&#45;&gt;Node8</title>
<path fill="none" stroke="#191970" d="M180.2219,-56.2455C195.0889,-47.5731 217.0466,-34.7645 234.0858,-24.825"/>
<polygon fill="#191970" stroke="#191970" points="236.0955,-27.7047 242.9697,-19.6427 232.5683,-21.6582 236.0955,-27.7047"/>
</g>
<!-- Node9&#45;&gt;Node8 -->
<g id="edge13" class="edge">
<title>Node9&#45;&gt;Node8</title>
<path fill="none" stroke="#191970" d="M242.1184,-112.1564C244.2446,-99.2552 248.1069,-75.9257 251.5,-56 252.9781,-47.3198 254.6422,-37.7239 256.0683,-29.5522"/>
<polygon fill="#191970" stroke="#191970" points="259.5492,-29.9651 257.8257,-19.5114 252.654,-28.7582 259.5492,-29.9651"/>
</g>
<!-- Node10 -->
<g id="node11" class="node">
<title>Node10</title>
<g id="a_node11"><a xlink:href="assert_8h.html" target="_top" xlink:title="POSIX.1&#45;2008 compliant version of the assert macro. ">
<polygon fill="#ffffff" stroke="#000000" points="260.5,-56.5 260.5,-75.5 314.5,-75.5 314.5,-56.5 260.5,-56.5"/>
<text text-anchor="middle" x="287.5" y="-63.5" font-family="Helvetica,sans-Serif" font-size="10.00" fill="#000000">assert.h</text>
</a>
</g>
</g>
<!-- Node9&#45;&gt;Node10 -->
<g id="edge11" class="edge">
<title>Node9&#45;&gt;Node10</title>
<path fill="none" stroke="#191970" d="M248.6868,-112.2455C255.3589,-104.2958 264.9479,-92.8706 272.9253,-83.3656"/>
<polygon fill="#191970" stroke="#191970" points="275.6592,-85.5525 279.407,-75.6427 270.2974,-81.0524 275.6592,-85.5525"/>
</g>
<!-- Node10&#45;&gt;Node8 -->
<g id="edge12" class="edge">
<title>Node10&#45;&gt;Node8</title>
<path fill="none" stroke="#191970" d="M282.6228,-56.2455C278.8487,-48.6973 273.5079,-38.0158 268.9099,-28.8197"/>
<polygon fill="#191970" stroke="#191970" points="271.924,-27.0217 264.3213,-19.6427 265.663,-30.1522 271.924,-27.0217"/>
</g>
<!-- Node11&#45;&gt;Node8 -->
<g id="edge16" class="edge">
<title>Node11&#45;&gt;Node8</title>
<path fill="none" stroke="#191970" d="M341.6886,-112.184C340.1367,-98.4799 335.7272,-73.3482 323.5,-56 314.429,-43.1299 300.5819,-32.5359 288.0851,-24.772"/>
<polygon fill="#191970" stroke="#191970" points="289.7083,-21.6665 279.3117,-19.6268 286.1672,-27.7048 289.7083,-21.6665"/>
</g>
<!-- Node12 -->
<g id="node13" class="node">
<title>Node12</title>
<polygon fill="#ffffff" stroke="#bfbfbf" points="370.5,-56.5 370.5,-75.5 426.5,-75.5 426.5,-56.5 370.5,-56.5"/>
<text text-anchor="middle" x="398.5" y="-63.5" font-family="Helvetica,sans-Serif" font-size="10.00" fill="#000000">stddef.h</text>
</g>
<!-- Node11&#45;&gt;Node12 -->
<g id="edge15" class="edge">
<title>Node11&#45;&gt;Node12</title>
<path fill="none" stroke="#191970" d="M352.2545,-112.2455C360.3648,-104.1352 372.0925,-92.4075 381.7081,-82.7919"/>
<polygon fill="#191970" stroke="#191970" points="384.2611,-85.1887 388.8573,-75.6427 379.3113,-80.2389 384.2611,-85.1887"/>
</g>
<!-- Node14 -->
<g id="node15" class="node">
<title>Node14</title>
<polygon fill="#ffffff" stroke="#bfbfbf" points="158.5,-224.5 158.5,-243.5 208.5,-243.5 208.5,-224.5 158.5,-224.5"/>
<text text-anchor="middle" x="183.5" y="-231.5" font-family="Helvetica,sans-Serif" font-size="10.00" fill="#000000">limits.h</text>
</g>
<!-- Node13&#45;&gt;Node14 -->
<g id="edge18" class="edge">
<title>Node13&#45;&gt;Node14</title>
<path fill="none" stroke="#191970" d="M243.7844,-280.2455C232.898,-271.8943 217.0117,-259.7076 204.28,-249.9408"/>
<polygon fill="#191970" stroke="#191970" points="206.1346,-246.9523 196.0699,-243.6427 201.8739,-252.5063 206.1346,-246.9523"/>
</g>
<!-- Node15 -->
<g id="node16" class="node">
<title>Node15</title>
<polygon fill="#ffffff" stroke="#bfbfbf" points="226.5,-224.5 226.5,-243.5 286.5,-243.5 286.5,-224.5 226.5,-224.5"/>
<text text-anchor="middle" x="256.5" y="-231.5" font-family="Helvetica,sans-Serif" font-size="10.00" fill="#000000">stdbool.h</text>
</g>
<!-- Node13&#45;&gt;Node15 -->
<g id="edge19" class="edge">
<title>Node13&#45;&gt;Node15</title>
<path fill="none" stroke="#191970" d="M256.5,-280.2455C256.5,-272.9382 256.5,-262.6944 256.5,-253.7046"/>
<polygon fill="#191970" stroke="#191970" points="260.0001,-253.6426 256.5,-243.6427 253.0001,-253.6427 260.0001,-253.6426"/>
</g>
<!-- Node16 -->
<g id="node17" class="node">
<title>Node16</title>
<polygon fill="#ffffff" stroke="#bfbfbf" points="305,-224.5 305,-243.5 382,-243.5 382,-224.5 305,-224.5"/>
<text text-anchor="middle" x="343.5" y="-231.5" font-family="Helvetica,sans-Serif" font-size="10.00" fill="#000000">periph_cpu.h</text>
</g>
<!-- Node13&#45;&gt;Node16 -->
<g id="edge20" class="edge">
<title>Node13&#45;&gt;Node16</title>
<path fill="none" stroke="#191970" d="M271.6542,-280.2455C285.0027,-271.6534 304.6586,-259.0014 320.0383,-249.1018"/>
<polygon fill="#191970" stroke="#191970" points="322.0051,-251.9982 328.5194,-243.6427 318.2164,-246.1121 322.0051,-251.9982"/>
</g>
<!-- Node17 -->
<g id="node18" class="node">
<title>Node17</title>
<polygon fill="#ffffff" stroke="#bfbfbf" points="400,-224.5 400,-243.5 481,-243.5 481,-224.5 400,-224.5"/>
<text text-anchor="middle" x="440.5" y="-231.5" font-family="Helvetica,sans-Serif" font-size="10.00" fill="#000000">periph_conf.h</text>
</g>
<!-- Node13&#45;&gt;Node17 -->
<g id="edge21" class="edge">
<title>Node13&#45;&gt;Node17</title>
<path fill="none" stroke="#191970" d="M288.1307,-280.3733C318.8596,-271.021 365.676,-256.7725 399.3022,-246.5385"/>
<polygon fill="#191970" stroke="#191970" points="400.7344,-249.7612 409.282,-243.5011 398.6962,-243.0644 400.7344,-249.7612"/>
</g>
</g>
</svg>
