<?xml version="1.0" encoding="UTF-8" standalone="no"?>
<!DOCTYPE svg PUBLIC "-//W3C//DTD SVG 1.1//EN"
 "http://www.w3.org/Graphics/SVG/1.1/DTD/svg11.dtd">
<!-- Generated by graphviz version 2.40.1 (0)
 -->
<!-- Title: sys/include/net/ipv4/hdr.h Pages: 1 -->
<svg width="455pt" height="263pt"
 viewBox="0.00 0.00 454.50 263.00" xmlns="http://www.w3.org/2000/svg" xmlns:xlink="http://www.w3.org/1999/xlink">
<g id="graph0" class="graph" transform="scale(1 1) rotate(0) translate(4 259)">
<title>sys/include/net/ipv4/hdr.h</title>
<polygon fill="#ffffff" stroke="transparent" points="-4,4 -4,-259 450.5,-259 450.5,4 -4,4"/>
<!-- Node0 -->
<g id="node1" class="node">
<title>Node0</title>
<polygon fill="#bfbfbf" stroke="#000000" points="156.5,-224.5 156.5,-254.5 266.5,-254.5 266.5,-224.5 156.5,-224.5"/>
<text text-anchor="start" x="164.5" y="-242.5" font-family="Helvetica,sans-Serif" font-size="10.00" fill="#000000">sys/include/net/ipv4</text>
<text text-anchor="middle" x="211.5" y="-231.5" font-family="Helvetica,sans-Serif" font-size="10.00" fill="#000000">/hdr.h</text>
</g>
<!-- Node1 -->
<g id="node2" class="node">
<title>Node1</title>
<g id="a_node2"><a xlink:href="byteorder_8h.html" target="_top" xlink:title="Functions to work with different byte orders. ">
<polygon fill="#ffffff" stroke="#000000" points="120,-112.5 120,-131.5 193,-131.5 193,-112.5 120,-112.5"/>
<text text-anchor="middle" x="156.5" y="-119.5" font-family="Helvetica,sans-Serif" font-size="10.00" fill="#000000">byteorder.h</text>
</a>
</g>
</g>
<!-- Node0&#45;&gt;Node1 -->
<g id="edge1" class="edge">
<title>Node0&#45;&gt;Node1</title>
<path fill="none" stroke="#191970" d="M204.3097,-224.1389C194.2654,-202.6806 176.0537,-163.7738 165.2393,-140.6702"/>
<polygon fill="#191970" stroke="#191970" points="168.384,-139.1326 160.9746,-131.5595 162.0442,-142.1002 168.384,-139.1326"/>
</g>
<!-- Node6 -->
<g id="node7" class="node">
<title>Node6</title>
<g id="a_node7"><a xlink:href="ipv4_2addr_8h.html" target="_top" xlink:title="IPv4 address type and helper functions definitions. ">
<polygon fill="#ffffff" stroke="#000000" points="240,-168.5 240,-187.5 329,-187.5 329,-168.5 240,-168.5"/>
<text text-anchor="middle" x="284.5" y="-175.5" font-family="Helvetica,sans-Serif" font-size="10.00" fill="#000000">net/ipv4/addr.h</text>
</a>
</g>
</g>
<!-- Node0&#45;&gt;Node6 -->
<g id="edge8" class="edge">
<title>Node0&#45;&gt;Node6</title>
<path fill="none" stroke="#191970" d="M229.5449,-224.2977C240.3114,-215.2274 253.9851,-203.7077 264.9995,-194.4285"/>
<polygon fill="#191970" stroke="#191970" points="267.4191,-196.9667 272.8118,-187.8469 262.9089,-191.6132 267.4191,-196.9667"/>
</g>
<!-- Node2 -->
<g id="node3" class="node">
<title>Node2</title>
<polygon fill="#ffffff" stroke="#bfbfbf" points="0,-56.5 0,-75.5 53,-75.5 53,-56.5 0,-56.5"/>
<text text-anchor="middle" x="26.5" y="-63.5" font-family="Helvetica,sans-Serif" font-size="10.00" fill="#000000">string.h</text>
</g>
<!-- Node1&#45;&gt;Node2 -->
<g id="edge2" class="edge">
<title>Node1&#45;&gt;Node2</title>
<path fill="none" stroke="#191970" d="M134.1522,-112.3733C113.0967,-103.3032 81.3505,-89.6279 57.7825,-79.4755"/>
<polygon fill="#191970" stroke="#191970" points="59.125,-76.243 48.5562,-75.5011 56.3556,-82.6719 59.125,-76.243"/>
</g>
<!-- Node3 -->
<g id="node4" class="node">
<title>Node3</title>
<polygon fill="#ffffff" stroke="#bfbfbf" points="153.5,-.5 153.5,-19.5 205.5,-19.5 205.5,-.5 153.5,-.5"/>
<text text-anchor="middle" x="179.5" y="-7.5" font-family="Helvetica,sans-Serif" font-size="10.00" fill="#000000">stdint.h</text>
</g>
<!-- Node1&#45;&gt;Node3 -->
<g id="edge3" class="edge">
<title>Node1&#45;&gt;Node3</title>
<path fill="none" stroke="#191970" d="M137.8428,-112.3713C116.9815,-100.2416 87.6929,-78.2774 100.5,-56 109.8895,-39.6673 127.5568,-28.5909 143.8064,-21.4079"/>
<polygon fill="#191970" stroke="#191970" points="145.189,-24.6241 153.1369,-17.6182 142.5548,-18.1386 145.189,-24.6241"/>
</g>
<!-- Node4 -->
<g id="node5" class="node">
<title>Node4</title>
<g id="a_node5"><a xlink:href="endian_8h.html" target="_top" xlink:title="libc header for endian conversion ">
<polygon fill="#ffffff" stroke="#000000" points="110,-56.5 110,-75.5 167,-75.5 167,-56.5 110,-56.5"/>
<text text-anchor="middle" x="138.5" y="-63.5" font-family="Helvetica,sans-Serif" font-size="10.00" fill="#000000">endian.h</text>
</a>
</g>
</g>
<!-- Node1&#45;&gt;Node4 -->
<g id="edge4" class="edge">
<title>Node1&#45;&gt;Node4</title>
<path fill="none" stroke="#191970" d="M153.3646,-112.2455C150.99,-104.8579 147.6507,-94.4689 144.7385,-85.4087"/>
<polygon fill="#191970" stroke="#191970" points="147.9917,-84.0919 141.5994,-75.6427 141.3275,-86.234 147.9917,-84.0919"/>
</g>
<!-- Node5 -->
<g id="node6" class="node">
<title>Node5</title>
<g id="a_node6"><a xlink:href="unaligned_8h.html" target="_top" xlink:title="Unaligned but safe memory access functions. ">
<polygon fill="#ffffff" stroke="#000000" points="185,-56.5 185,-75.5 256,-75.5 256,-56.5 185,-56.5"/>
<text text-anchor="middle" x="220.5" y="-63.5" font-family="Helvetica,sans-Serif" font-size="10.00" fill="#000000">unaligned.h</text>
</a>
</g>
</g>
<!-- Node1&#45;&gt;Node5 -->
<g id="edge6" class="edge">
<title>Node1&#45;&gt;Node5</title>
<path fill="none" stroke="#191970" d="M167.6479,-112.2455C177.0087,-104.0549 190.5858,-92.1749 201.6349,-82.5069"/>
<polygon fill="#191970" stroke="#191970" points="204.2588,-84.8618 209.4798,-75.6427 199.6492,-79.5937 204.2588,-84.8618"/>
</g>
<!-- Node4&#45;&gt;Node3 -->
<g id="edge5" class="edge">
<title>Node4&#45;&gt;Node3</title>
<path fill="none" stroke="#191970" d="M145.6417,-56.2455C151.3444,-48.4564 159.49,-37.3308 166.3625,-27.9439"/>
<polygon fill="#191970" stroke="#191970" points="169.3568,-29.7789 172.4402,-19.6427 163.7087,-25.6437 169.3568,-29.7789"/>
</g>
<!-- Node5&#45;&gt;Node3 -->
<g id="edge7" class="edge">
<title>Node5&#45;&gt;Node3</title>
<path fill="none" stroke="#191970" d="M213.3583,-56.2455C207.6556,-48.4564 199.51,-37.3308 192.6375,-27.9439"/>
<polygon fill="#191970" stroke="#191970" points="195.2913,-25.6437 186.5598,-19.6427 189.6432,-29.7789 195.2913,-25.6437"/>
</g>
<!-- Node6&#45;&gt;Node1 -->
<g id="edge12" class="edge">
<title>Node6&#45;&gt;Node1</title>
<path fill="none" stroke="#191970" d="M262.496,-168.3733C241.8565,-159.3435 210.7842,-145.7494 187.6111,-135.6111"/>
<polygon fill="#191970" stroke="#191970" points="188.7813,-132.3028 178.2169,-131.5011 185.9755,-138.7159 188.7813,-132.3028"/>
</g>
<!-- Node6&#45;&gt;Node3 -->
<g id="edge10" class="edge">
<title>Node6&#45;&gt;Node3</title>
<path fill="none" stroke="#191970" d="M285.5915,-168.3927C287.5794,-146.3113 289.5181,-91.1462 264.5,-56 252.5953,-39.2759 232.6558,-28.0308 215.0802,-20.8474"/>
<polygon fill="#191970" stroke="#191970" points="216.2166,-17.5353 205.6252,-17.2656 213.7367,-24.0813 216.2166,-17.5353"/>
</g>
<!-- Node7 -->
<g id="node8" class="node">
<title>Node7</title>
<polygon fill="#ffffff" stroke="#bfbfbf" points="312.5,-112.5 312.5,-131.5 372.5,-131.5 372.5,-112.5 312.5,-112.5"/>
<text text-anchor="middle" x="342.5" y="-119.5" font-family="Helvetica,sans-Serif" font-size="10.00" fill="#000000">stdbool.h</text>
</g>
<!-- Node6&#45;&gt;Node7 -->
<g id="edge9" class="edge">
<title>Node6&#45;&gt;Node7</title>
<path fill="none" stroke="#191970" d="M294.6028,-168.2455C303.0028,-160.1352 315.1494,-148.4075 325.1084,-138.7919"/>
<polygon fill="#191970" stroke="#191970" points="327.75,-141.1066 332.5129,-131.6427 322.8878,-136.0707 327.75,-141.1066"/>
</g>
<!-- Node8 -->
<g id="node9" class="node">
<title>Node8</title>
<polygon fill="#ffffff" stroke="#bfbfbf" points="390.5,-112.5 390.5,-131.5 446.5,-131.5 446.5,-112.5 390.5,-112.5"/>
<text text-anchor="middle" x="418.5" y="-119.5" font-family="Helvetica,sans-Serif" font-size="10.00" fill="#000000">stddef.h</text>
</g>
<!-- Node6&#45;&gt;Node8 -->
<g id="edge11" class="edge">
<title>Node6&#45;&gt;Node8</title>
<path fill="none" stroke="#191970" d="M307.5354,-168.3733C329.2388,-159.3032 361.9618,-145.6279 386.255,-135.4755"/>
<polygon fill="#191970" stroke="#191970" points="387.8881,-138.5865 395.7652,-131.5011 385.1889,-132.1278 387.8881,-138.5865"/>
</g>
</g>
</svg>
