<?xml version="1.0" encoding="UTF-8" standalone="no"?>
<!DOCTYPE svg PUBLIC "-//W3C//DTD SVG 1.1//EN"
 "http://www.w3.org/Graphics/SVG/1.1/DTD/svg11.dtd">
<!-- Generated by graphviz version 2.40.1 (0)
 -->
<!-- Title: sys/include/net/gnrc/lwmac/hdr.h Pages: 1 -->
<svg width="306pt" height="173pt"
 viewBox="0.00 0.00 305.50 173.00" xmlns="http://www.w3.org/2000/svg" xmlns:xlink="http://www.w3.org/1999/xlink">
<g id="graph0" class="graph" transform="scale(1 1) rotate(0) translate(4 169)">
<title>sys/include/net/gnrc/lwmac/hdr.h</title>
<polygon fill="#ffffff" stroke="transparent" points="-4,4 -4,-169 301.5,-169 301.5,4 -4,4"/>
<!-- Node12 -->
<g id="node1" class="node">
<title>Node12</title>
<polygon fill="#bfbfbf" stroke="#000000" points="79,-134.5 79,-164.5 191,-164.5 191,-134.5 79,-134.5"/>
<text text-anchor="start" x="87" y="-152.5" font-family="Helvetica,sans-Serif" font-size="10.00" fill="#000000">sys/include/net/gnrc</text>
<text text-anchor="middle" x="135" y="-141.5" font-family="Helvetica,sans-Serif" font-size="10.00" fill="#000000">/lwmac/hdr.h</text>
</g>
<!-- Node13 -->
<g id="node2" class="node">
<title>Node13</title>
<g id="a_node2"><a xlink:href="sys_2include_2net_2gnrc_2lwmac_2types_8h.html" target="_top" xlink:title="Definition of internal types used by LWMAC. ">
<polygon fill="#ffffff" stroke="#000000" points="79,-67.5 79,-97.5 191,-97.5 191,-67.5 79,-67.5"/>
<text text-anchor="start" x="87" y="-85.5" font-family="Helvetica,sans-Serif" font-size="10.00" fill="#000000">sys/include/net/gnrc</text>
<text text-anchor="middle" x="135" y="-74.5" font-family="Helvetica,sans-Serif" font-size="10.00" fill="#000000">/lwmac/types.h</text>
</a>
</g>
</g>
<!-- Node12&#45;&gt;Node13 -->
<g id="edge1" class="edge">
<title>Node12&#45;&gt;Node13</title>
<path fill="none" stroke="#191970" d="M135,-124.0249C135,-115.128 135,-105.4287 135,-97.6432"/>
<polygon fill="#191970" stroke="#191970" points="131.5001,-124.2966 135,-134.2967 138.5001,-124.2967 131.5001,-124.2966"/>
</g>
<!-- Node14 -->
<g id="node3" class="node">
<title>Node14</title>
<g id="a_node3"><a xlink:href="net_2gnrc_2lwmac_2timeout_8h.html" target="_top" xlink:title="Timeout handling of LWMAC. ">
<polygon fill="#ffffff" stroke="#000000" points="0,-.5 0,-30.5 112,-30.5 112,-.5 0,-.5"/>
<text text-anchor="start" x="8" y="-18.5" font-family="Helvetica,sans-Serif" font-size="10.00" fill="#000000">sys/include/net/gnrc</text>
<text text-anchor="middle" x="56" y="-7.5" font-family="Helvetica,sans-Serif" font-size="10.00" fill="#000000">/lwmac/timeout.h</text>
</a>
</g>
</g>
<!-- Node13&#45;&gt;Node14 -->
<g id="edge2" class="edge">
<title>Node13&#45;&gt;Node14</title>
<path fill="none" stroke="#191970" d="M109.3908,-60.7808C97.7854,-50.9383 84.3468,-39.541 73.8554,-30.6432"/>
<polygon fill="#191970" stroke="#191970" points="107.1833,-63.4978 117.0737,-67.2967 111.711,-58.1593 107.1833,-63.4978"/>
</g>
<!-- Node15 -->
<g id="node4" class="node">
<title>Node15</title>
<g id="a_node4"><a xlink:href="lwmac__internal_8h.html" target="_top" xlink:title="Interface definition for internal functions of LWMAC protocol. ">
<polygon fill="#ffffff" stroke="#000000" points="130.5,-.5 130.5,-30.5 297.5,-30.5 297.5,-.5 130.5,-.5"/>
<text text-anchor="start" x="138.5" y="-18.5" font-family="Helvetica,sans-Serif" font-size="10.00" fill="#000000">sys/net/gnrc/link_layer</text>
<text text-anchor="middle" x="214" y="-7.5" font-family="Helvetica,sans-Serif" font-size="10.00" fill="#000000">/lwmac/include/lwmac_internal.h</text>
</a>
</g>
</g>
<!-- Node13&#45;&gt;Node15 -->
<g id="edge3" class="edge">
<title>Node13&#45;&gt;Node15</title>
<path fill="none" stroke="#191970" d="M160.6092,-60.7808C172.2146,-50.9383 185.6532,-39.541 196.1446,-30.6432"/>
<polygon fill="#191970" stroke="#191970" points="158.289,-58.1593 152.9263,-67.2967 162.8167,-63.4978 158.289,-58.1593"/>
</g>
</g>
</svg>
