<?xml version="1.0" encoding="UTF-8" standalone="no"?>
<!DOCTYPE svg PUBLIC "-//W3C//DTD SVG 1.1//EN"
 "http://www.w3.org/Graphics/SVG/1.1/DTD/svg11.dtd">
<!-- Generated by graphviz version 2.40.1 (0)
 -->
<!-- Title: sys/include/net/gnrc/lwmac/hdr.h Pages: 1 -->
<svg width="434pt" height="319pt"
 viewBox="0.00 0.00 434.00 319.00" xmlns="http://www.w3.org/2000/svg" xmlns:xlink="http://www.w3.org/1999/xlink">
<g id="graph0" class="graph" transform="scale(1 1) rotate(0) translate(4 315)">
<title>sys/include/net/gnrc/lwmac/hdr.h</title>
<polygon fill="#ffffff" stroke="transparent" points="-4,4 -4,-315 430,-315 430,4 -4,4"/>
<!-- Node0 -->
<g id="node1" class="node">
<title>Node0</title>
<polygon fill="#bfbfbf" stroke="#000000" points="2,-280.5 2,-310.5 114,-310.5 114,-280.5 2,-280.5"/>
<text text-anchor="start" x="10" y="-298.5" font-family="Helvetica,sans-Serif" font-size="10.00" fill="#000000">sys/include/net/gnrc</text>
<text text-anchor="middle" x="58" y="-287.5" font-family="Helvetica,sans-Serif" font-size="10.00" fill="#000000">/lwmac/hdr.h</text>
</g>
<!-- Node1 -->
<g id="node2" class="node">
<title>Node1</title>
<polygon fill="#ffffff" stroke="#bfbfbf" points="114,-.5 114,-19.5 166,-19.5 166,-.5 114,-.5"/>
<text text-anchor="middle" x="140" y="-7.5" font-family="Helvetica,sans-Serif" font-size="10.00" fill="#000000">stdint.h</text>
</g>
<!-- Node0&#45;&gt;Node1 -->
<g id="edge1" class="edge">
<title>Node0&#45;&gt;Node1</title>
<path fill="none" stroke="#191970" d="M44.0791,-280.274C35.7901,-270.5162 25.6283,-257.2376 19,-244 5.3333,-216.7058 0,-208.5246 0,-178 0,-178 0,-178 0,-122 0,-68.5461 63.0018,-36.4077 104.4784,-21.0416"/>
<polygon fill="#191970" stroke="#191970" points="105.7399,-24.3079 113.9952,-17.667 103.4004,-17.7104 105.7399,-24.3079"/>
</g>
<!-- Node2 -->
<g id="node3" class="node">
<title>Node2</title>
<polygon fill="#ffffff" stroke="#bfbfbf" points="28,-224.5 28,-243.5 88,-243.5 88,-224.5 28,-224.5"/>
<text text-anchor="middle" x="58" y="-231.5" font-family="Helvetica,sans-Serif" font-size="10.00" fill="#000000">stdbool.h</text>
</g>
<!-- Node0&#45;&gt;Node2 -->
<g id="edge2" class="edge">
<title>Node0&#45;&gt;Node2</title>
<path fill="none" stroke="#191970" d="M58,-280.2977C58,-272.3834 58,-262.6043 58,-254.0759"/>
<polygon fill="#191970" stroke="#191970" points="61.5001,-253.8469 58,-243.8469 54.5001,-253.847 61.5001,-253.8469"/>
</g>
<!-- Node3 -->
<g id="node4" class="node">
<title>Node3</title>
<g id="a_node4"><a xlink:href="sys_2include_2net_2ieee802154_8h.html" target="_top" xlink:title="IEEE 802.15.4 header definitions. ">
<polygon fill="#ffffff" stroke="#000000" points="106.5,-224.5 106.5,-243.5 207.5,-243.5 207.5,-224.5 106.5,-224.5"/>
<text text-anchor="middle" x="157" y="-231.5" font-family="Helvetica,sans-Serif" font-size="10.00" fill="#000000">net/ieee802154.h</text>
</a>
</g>
</g>
<!-- Node0&#45;&gt;Node3 -->
<g id="edge3" class="edge">
<title>Node0&#45;&gt;Node3</title>
<path fill="none" stroke="#191970" d="M82.2181,-280.4554C97.5773,-270.9141 117.3757,-258.6151 132.7425,-249.0691"/>
<polygon fill="#191970" stroke="#191970" points="135.011,-251.7802 141.6585,-243.5303 131.3172,-245.8341 135.011,-251.7802"/>
</g>
<!-- Node3&#45;&gt;Node1 -->
<g id="edge4" class="edge">
<title>Node3&#45;&gt;Node1</title>
<path fill="none" stroke="#191970" d="M115.8015,-224.3939C96.5508,-217.6178 75.4036,-206.3627 64,-188 45.9062,-158.8642 18.2368,-175.3895 88,-56 94.9361,-44.1298 106.0145,-33.7054 116.1669,-25.7948"/>
<polygon fill="#191970" stroke="#191970" points="118.3837,-28.5091 124.3658,-19.7646 114.2363,-22.87 118.3837,-28.5091"/>
</g>
<!-- Node4 -->
<g id="node5" class="node">
<title>Node4</title>
<polygon fill="#ffffff" stroke="#bfbfbf" points="73,-168.5 73,-187.5 123,-187.5 123,-168.5 73,-168.5"/>
<text text-anchor="middle" x="98" y="-175.5" font-family="Helvetica,sans-Serif" font-size="10.00" fill="#000000">stdlib.h</text>
</g>
<!-- Node3&#45;&gt;Node4 -->
<g id="edge5" class="edge">
<title>Node3&#45;&gt;Node4</title>
<path fill="none" stroke="#191970" d="M146.723,-224.2455C138.1782,-216.1352 125.8222,-204.4075 115.6915,-194.7919"/>
<polygon fill="#191970" stroke="#191970" points="117.8218,-191.9884 108.1592,-187.6427 113.0028,-197.0655 117.8218,-191.9884"/>
</g>
<!-- Node5 -->
<g id="node6" class="node">
<title>Node5</title>
<g id="a_node6"><a xlink:href="byteorder_8h.html" target="_top" xlink:title="Functions to work with different byte orders. ">
<polygon fill="#ffffff" stroke="#000000" points="140.5,-112.5 140.5,-131.5 213.5,-131.5 213.5,-112.5 140.5,-112.5"/>
<text text-anchor="middle" x="177" y="-119.5" font-family="Helvetica,sans-Serif" font-size="10.00" fill="#000000">byteorder.h</text>
</a>
</g>
</g>
<!-- Node3&#45;&gt;Node5 -->
<g id="edge6" class="edge">
<title>Node3&#45;&gt;Node5</title>
<path fill="none" stroke="#191970" d="M158.7052,-224.4509C161.9819,-206.1013 169.2159,-165.5908 173.5412,-141.3693"/>
<polygon fill="#191970" stroke="#191970" points="176.9866,-141.9845 175.2991,-131.5249 170.0956,-140.7539 176.9866,-141.9845"/>
</g>
<!-- Node9 -->
<g id="node10" class="node">
<title>Node9</title>
<g id="a_node10"><a xlink:href="modules_8h.html" target="_top" xlink:title="Common macros and compiler attributes/pragmas configuration. ">
<polygon fill="#ffffff" stroke="#000000" points="179.5,-168.5 179.5,-187.5 244.5,-187.5 244.5,-168.5 179.5,-168.5"/>
<text text-anchor="middle" x="212" y="-175.5" font-family="Helvetica,sans-Serif" font-size="10.00" fill="#000000">modules.h</text>
</a>
</g>
</g>
<!-- Node3&#45;&gt;Node9 -->
<g id="edge13" class="edge">
<title>Node3&#45;&gt;Node9</title>
<path fill="none" stroke="#191970" d="M166.5803,-224.2455C174.5458,-216.1352 186.0641,-204.4075 195.5079,-194.7919"/>
<polygon fill="#191970" stroke="#191970" points="198.0195,-197.2297 202.5295,-187.6427 193.0253,-192.3247 198.0195,-197.2297"/>
</g>
<!-- Node10 -->
<g id="node11" class="node">
<title>Node10</title>
<g id="a_node11"><a xlink:href="eui64_8h.html" target="_top" xlink:title="EUI&#45;64 data type definition. ">
<polygon fill="#ffffff" stroke="#000000" points="262.5,-168.5 262.5,-187.5 333.5,-187.5 333.5,-168.5 262.5,-168.5"/>
<text text-anchor="middle" x="298" y="-175.5" font-family="Helvetica,sans-Serif" font-size="10.00" fill="#000000">net/eui64.h</text>
</a>
</g>
</g>
<!-- Node3&#45;&gt;Node10 -->
<g id="edge14" class="edge">
<title>Node3&#45;&gt;Node10</title>
<path fill="none" stroke="#191970" d="M181.2388,-224.3733C204.2789,-215.2226 239.1214,-201.3844 264.7501,-191.2057"/>
<polygon fill="#191970" stroke="#191970" points="266.0756,-194.4452 274.0775,-187.5011 263.4918,-187.9395 266.0756,-194.4452"/>
</g>
<!-- Node11 -->
<g id="node12" class="node">
<title>Node11</title>
<g id="a_node12"><a xlink:href="time__units_8h.html" target="_top" xlink:title="Utility header providing time unit defines. ">
<polygon fill="#ffffff" stroke="#000000" points="352,-168.5 352,-187.5 426,-187.5 426,-168.5 352,-168.5"/>
<text text-anchor="middle" x="389" y="-175.5" font-family="Helvetica,sans-Serif" font-size="10.00" fill="#000000">time_units.h</text>
</a>
</g>
</g>
<!-- Node3&#45;&gt;Node11 -->
<g id="edge17" class="edge">
<title>Node3&#45;&gt;Node11</title>
<path fill="none" stroke="#191970" d="M196.6186,-224.4369C236.8757,-214.7197 299.2267,-199.6694 341.9663,-189.353"/>
<polygon fill="#191970" stroke="#191970" points="342.9463,-192.717 351.8458,-186.9682 341.3037,-185.9124 342.9463,-192.717"/>
</g>
<!-- Node5&#45;&gt;Node1 -->
<g id="edge8" class="edge">
<title>Node5&#45;&gt;Node1</title>
<path fill="none" stroke="#191970" d="M143.4998,-112.3574C125.7388,-105.3494 105.476,-93.8886 95,-76 84.6157,-58.268 101.3274,-38.9521 117.2478,-25.8261"/>
<polygon fill="#191970" stroke="#191970" points="119.5773,-28.4494 125.3533,-19.5675 115.2992,-22.9088 119.5773,-28.4494"/>
</g>
<!-- Node6 -->
<g id="node7" class="node">
<title>Node6</title>
<polygon fill="#ffffff" stroke="#bfbfbf" points="104.5,-56.5 104.5,-75.5 157.5,-75.5 157.5,-56.5 104.5,-56.5"/>
<text text-anchor="middle" x="131" y="-63.5" font-family="Helvetica,sans-Serif" font-size="10.00" fill="#000000">string.h</text>
</g>
<!-- Node5&#45;&gt;Node6 -->
<g id="edge7" class="edge">
<title>Node5&#45;&gt;Node6</title>
<path fill="none" stroke="#191970" d="M168.9874,-112.2455C162.5232,-104.3761 153.2615,-93.101 145.5017,-83.6542"/>
<polygon fill="#191970" stroke="#191970" points="147.9727,-81.1484 138.9208,-75.6427 142.5636,-85.5916 147.9727,-81.1484"/>
</g>
<!-- Node7 -->
<g id="node8" class="node">
<title>Node7</title>
<g id="a_node8"><a xlink:href="endian_8h.html" target="_top" xlink:title="libc header for endian conversion ">
<polygon fill="#ffffff" stroke="#000000" points="175.5,-56.5 175.5,-75.5 232.5,-75.5 232.5,-56.5 175.5,-56.5"/>
<text text-anchor="middle" x="204" y="-63.5" font-family="Helvetica,sans-Serif" font-size="10.00" fill="#000000">endian.h</text>
</a>
</g>
</g>
<!-- Node5&#45;&gt;Node7 -->
<g id="edge9" class="edge">
<title>Node5&#45;&gt;Node7</title>
<path fill="none" stroke="#191970" d="M181.703,-112.2455C185.3424,-104.6973 190.4924,-94.0158 194.9262,-84.8197"/>
<polygon fill="#191970" stroke="#191970" points="198.1605,-86.1704 199.3509,-75.6427 191.8551,-83.1303 198.1605,-86.1704"/>
</g>
<!-- Node8 -->
<g id="node9" class="node">
<title>Node8</title>
<g id="a_node9"><a xlink:href="unaligned_8h.html" target="_top" xlink:title="Unaligned but safe memory access functions. ">
<polygon fill="#ffffff" stroke="#000000" points="250.5,-56.5 250.5,-75.5 321.5,-75.5 321.5,-56.5 250.5,-56.5"/>
<text text-anchor="middle" x="286" y="-63.5" font-family="Helvetica,sans-Serif" font-size="10.00" fill="#000000">unaligned.h</text>
</a>
</g>
</g>
<!-- Node5&#45;&gt;Node8 -->
<g id="edge11" class="edge">
<title>Node5&#45;&gt;Node8</title>
<path fill="none" stroke="#191970" d="M195.9864,-112.2455C213.1792,-103.4125 238.7238,-90.2887 258.2132,-80.2758"/>
<polygon fill="#191970" stroke="#191970" points="259.9359,-83.3257 267.2312,-75.6427 256.737,-77.0993 259.9359,-83.3257"/>
</g>
<!-- Node7&#45;&gt;Node1 -->
<g id="edge10" class="edge">
<title>Node7&#45;&gt;Node1</title>
<path fill="none" stroke="#191970" d="M192.8521,-56.2455C183.4913,-48.0549 169.9142,-36.1749 158.8651,-26.5069"/>
<polygon fill="#191970" stroke="#191970" points="160.8508,-23.5937 151.0202,-19.6427 156.2412,-28.8618 160.8508,-23.5937"/>
</g>
<!-- Node8&#45;&gt;Node1 -->
<g id="edge12" class="edge">
<title>Node8&#45;&gt;Node1</title>
<path fill="none" stroke="#191970" d="M260.9017,-56.3733C237.0445,-47.2226 200.9665,-33.3844 174.429,-23.2057"/>
<polygon fill="#191970" stroke="#191970" points="175.361,-19.8145 164.7708,-19.5011 172.8541,-26.3503 175.361,-19.8145"/>
</g>
<!-- Node10&#45;&gt;Node1 -->
<g id="edge15" class="edge">
<title>Node10&#45;&gt;Node1</title>
<path fill="none" stroke="#191970" d="M305.6943,-168.3233C322.3832,-146.0957 358.2914,-90.6445 331,-56 312.0834,-31.9867 226.0152,-19.0488 176.1082,-13.4495"/>
<polygon fill="#191970" stroke="#191970" points="176.3621,-9.9567 166.0446,-12.3648 175.6119,-16.9164 176.3621,-9.9567"/>
</g>
<!-- Node10&#45;&gt;Node5 -->
<g id="edge16" class="edge">
<title>Node10&#45;&gt;Node5</title>
<path fill="none" stroke="#191970" d="M277.1994,-168.3733C257.7757,-159.3838 228.5776,-145.8706 206.7036,-135.7471"/>
<polygon fill="#191970" stroke="#191970" points="208.0745,-132.5249 197.5292,-131.5011 205.1344,-138.8776 208.0745,-132.5249"/>
</g>
</g>
</svg>
