<?xml version="1.0" encoding="UTF-8" standalone="no"?>
<!DOCTYPE svg PUBLIC "-//W3C//DTD SVG 1.1//EN"
 "http://www.w3.org/Graphics/SVG/1.1/DTD/svg11.dtd">
<!-- Generated by graphviz version 2.40.1 (0)
 -->
<!-- Title: sys/include/net/ethernet/hdr.h Pages: 1 -->
<svg width="272pt" height="207pt"
 viewBox="0.00 0.00 272.00 207.00" xmlns="http://www.w3.org/2000/svg" xmlns:xlink="http://www.w3.org/1999/xlink">
<g id="graph0" class="graph" transform="scale(1 1) rotate(0) translate(4 203)">
<title>sys/include/net/ethernet/hdr.h</title>
<polygon fill="#ffffff" stroke="transparent" points="-4,4 -4,-203 268,-203 268,4 -4,4"/>
<!-- Node0 -->
<g id="node1" class="node">
<title>Node0</title>
<polygon fill="#bfbfbf" stroke="#000000" points="8,-168.5 8,-198.5 141,-198.5 141,-168.5 8,-168.5"/>
<text text-anchor="start" x="16" y="-186.5" font-family="Helvetica,sans-Serif" font-size="10.00" fill="#000000">sys/include/net/ethernet</text>
<text text-anchor="middle" x="74.5" y="-175.5" font-family="Helvetica,sans-Serif" font-size="10.00" fill="#000000">/hdr.h</text>
</g>
<!-- Node1 -->
<g id="node2" class="node">
<title>Node1</title>
<g id="a_node2"><a xlink:href="inttypes_8h.html" target="_top" xlink:title="Adds include for missing inttype definitions. ">
<polygon fill="#ffffff" stroke="#000000" points="0,-112.5 0,-131.5 63,-131.5 63,-112.5 0,-112.5"/>
<text text-anchor="middle" x="31.5" y="-119.5" font-family="Helvetica,sans-Serif" font-size="10.00" fill="#000000">inttypes.h</text>
</a>
</g>
</g>
<!-- Node0&#45;&gt;Node1 -->
<g id="edge1" class="edge">
<title>Node0&#45;&gt;Node1</title>
<path fill="none" stroke="#191970" d="M63.8708,-168.2977C57.9019,-159.7609 50.4162,-149.0545 44.1471,-140.0883"/>
<polygon fill="#191970" stroke="#191970" points="46.9835,-138.0368 38.3848,-131.8469 41.2466,-142.048 46.9835,-138.0368"/>
</g>
<!-- Node2 -->
<g id="node3" class="node">
<title>Node2</title>
<g id="a_node3"><a xlink:href="byteorder_8h.html" target="_top" xlink:title="Functions to work with different byte orders. ">
<polygon fill="#ffffff" stroke="#000000" points="81,-112.5 81,-131.5 154,-131.5 154,-112.5 81,-112.5"/>
<text text-anchor="middle" x="117.5" y="-119.5" font-family="Helvetica,sans-Serif" font-size="10.00" fill="#000000">byteorder.h</text>
</a>
</g>
</g>
<!-- Node0&#45;&gt;Node2 -->
<g id="edge2" class="edge">
<title>Node0&#45;&gt;Node2</title>
<path fill="none" stroke="#191970" d="M85.1292,-168.2977C91.0981,-159.7609 98.5838,-149.0545 104.8529,-140.0883"/>
<polygon fill="#191970" stroke="#191970" points="107.7534,-142.048 110.6152,-131.8469 102.0165,-138.0368 107.7534,-142.048"/>
</g>
<!-- Node3 -->
<g id="node4" class="node">
<title>Node3</title>
<polygon fill="#ffffff" stroke="#bfbfbf" points="8,-56.5 8,-75.5 61,-75.5 61,-56.5 8,-56.5"/>
<text text-anchor="middle" x="34.5" y="-63.5" font-family="Helvetica,sans-Serif" font-size="10.00" fill="#000000">string.h</text>
</g>
<!-- Node2&#45;&gt;Node3 -->
<g id="edge3" class="edge">
<title>Node2&#45;&gt;Node3</title>
<path fill="none" stroke="#191970" d="M103.0425,-112.2455C90.4268,-103.7337 71.9056,-91.2375 57.2955,-81.3801"/>
<polygon fill="#191970" stroke="#191970" points="59.0391,-78.3343 48.7918,-75.6427 55.1239,-84.1371 59.0391,-78.3343"/>
</g>
<!-- Node4 -->
<g id="node5" class="node">
<title>Node4</title>
<polygon fill="#ffffff" stroke="#bfbfbf" points="120.5,-.5 120.5,-19.5 172.5,-19.5 172.5,-.5 120.5,-.5"/>
<text text-anchor="middle" x="146.5" y="-7.5" font-family="Helvetica,sans-Serif" font-size="10.00" fill="#000000">stdint.h</text>
</g>
<!-- Node2&#45;&gt;Node4 -->
<g id="edge4" class="edge">
<title>Node2&#45;&gt;Node4</title>
<path fill="none" stroke="#191970" d="M113.6671,-112.3057C109.0628,-99.1704 102.7505,-75.1602 109.5,-56 113.3309,-45.125 120.9402,-34.9246 128.2672,-26.9061"/>
<polygon fill="#191970" stroke="#191970" points="130.8557,-29.2652 135.3498,-19.6707 125.8534,-24.3686 130.8557,-29.2652"/>
</g>
<!-- Node5 -->
<g id="node6" class="node">
<title>Node5</title>
<g id="a_node6"><a xlink:href="endian_8h.html" target="_top" xlink:title="libc header for endian conversion ">
<polygon fill="#ffffff" stroke="#000000" points="118,-56.5 118,-75.5 175,-75.5 175,-56.5 118,-56.5"/>
<text text-anchor="middle" x="146.5" y="-63.5" font-family="Helvetica,sans-Serif" font-size="10.00" fill="#000000">endian.h</text>
</a>
</g>
</g>
<!-- Node2&#45;&gt;Node5 -->
<g id="edge5" class="edge">
<title>Node2&#45;&gt;Node5</title>
<path fill="none" stroke="#191970" d="M122.5514,-112.2455C126.5019,-104.617 132.1097,-93.7881 136.9058,-84.5267"/>
<polygon fill="#191970" stroke="#191970" points="140.0159,-86.1321 141.5065,-75.6427 133.7999,-82.9131 140.0159,-86.1321"/>
</g>
<!-- Node6 -->
<g id="node7" class="node">
<title>Node6</title>
<g id="a_node7"><a xlink:href="unaligned_8h.html" target="_top" xlink:title="Unaligned but safe memory access functions. ">
<polygon fill="#ffffff" stroke="#000000" points="193,-56.5 193,-75.5 264,-75.5 264,-56.5 193,-56.5"/>
<text text-anchor="middle" x="228.5" y="-63.5" font-family="Helvetica,sans-Serif" font-size="10.00" fill="#000000">unaligned.h</text>
</a>
</g>
</g>
<!-- Node2&#45;&gt;Node6 -->
<g id="edge7" class="edge">
<title>Node2&#45;&gt;Node6</title>
<path fill="none" stroke="#191970" d="M136.5816,-112.3733C154.2402,-103.4644 180.7053,-90.1127 200.7098,-80.0203"/>
<polygon fill="#191970" stroke="#191970" points="202.3158,-83.1303 209.6674,-75.5011 199.1628,-76.8806 202.3158,-83.1303"/>
</g>
<!-- Node5&#45;&gt;Node4 -->
<g id="edge6" class="edge">
<title>Node5&#45;&gt;Node4</title>
<path fill="none" stroke="#191970" d="M146.5,-56.2455C146.5,-48.9382 146.5,-38.6944 146.5,-29.7046"/>
<polygon fill="#191970" stroke="#191970" points="150.0001,-29.6426 146.5,-19.6427 143.0001,-29.6427 150.0001,-29.6426"/>
</g>
<!-- Node6&#45;&gt;Node4 -->
<g id="edge8" class="edge">
<title>Node6&#45;&gt;Node4</title>
<path fill="none" stroke="#191970" d="M214.2167,-56.2455C201.753,-47.7337 183.4549,-35.2375 169.0208,-25.3801"/>
<polygon fill="#191970" stroke="#191970" points="170.8515,-22.392 160.6196,-19.6427 166.9038,-28.1726 170.8515,-22.392"/>
</g>
</g>
</svg>
