<?xml version="1.0" encoding="UTF-8" standalone="no"?>
<!DOCTYPE svg PUBLIC "-//W3C//DTD SVG 1.1//EN"
 "http://www.w3.org/Graphics/SVG/1.1/DTD/svg11.dtd">
<!-- Generated by graphviz version 2.40.1 (0)
 -->
<!-- Title: sys/include/net/gnrc/neterr.h Pages: 1 -->
<svg width="781pt" height="375pt"
 viewBox="0.00 0.00 780.50 375.00" xmlns="http://www.w3.org/2000/svg" xmlns:xlink="http://www.w3.org/1999/xlink">
<g id="graph0" class="graph" transform="scale(1 1) rotate(0) translate(4 371)">
<title>sys/include/net/gnrc/neterr.h</title>
<polygon fill="#ffffff" stroke="transparent" points="-4,4 -4,-371 776.5,-371 776.5,4 -4,4"/>
<!-- Node0 -->
<g id="node1" class="node">
<title>Node0</title>
<polygon fill="#bfbfbf" stroke="#000000" points="517,-336.5 517,-366.5 629,-366.5 629,-336.5 517,-336.5"/>
<text text-anchor="start" x="525" y="-354.5" font-family="Helvetica,sans-Serif" font-size="10.00" fill="#000000">sys/include/net/gnrc</text>
<text text-anchor="middle" x="573" y="-343.5" font-family="Helvetica,sans-Serif" font-size="10.00" fill="#000000">/neterr.h</text>
</g>
<!-- Node1 -->
<g id="node2" class="node">
<title>Node1</title>
<g id="a_node2"><a xlink:href="errno_8h.html" target="_top" xlink:title="errno.h">
<polygon fill="#ffffff" stroke="#000000" points="314.5,-280.5 314.5,-299.5 367.5,-299.5 367.5,-280.5 314.5,-280.5"/>
<text text-anchor="middle" x="341" y="-287.5" font-family="Helvetica,sans-Serif" font-size="10.00" fill="#000000">errno.h</text>
</a>
</g>
</g>
<!-- Node0&#45;&gt;Node1 -->
<g id="edge1" class="edge">
<title>Node0&#45;&gt;Node1</title>
<path fill="none" stroke="#191970" d="M516.8662,-337.1851C479.7143,-327.6281 429.6753,-314.5996 377.5001,-300.3753"/>
<polygon fill="#191970" stroke="#191970" points="378.3046,-296.9669 367.7356,-297.706 376.4587,-303.7191 378.3046,-296.9669"/>
</g>
<!-- Node2 -->
<g id="node3" class="node">
<title>Node2</title>
<polygon fill="#ffffff" stroke="#bfbfbf" points="377,-.5 377,-19.5 429,-19.5 429,-.5 377,-.5"/>
<text text-anchor="middle" x="403" y="-7.5" font-family="Helvetica,sans-Serif" font-size="10.00" fill="#000000">stdint.h</text>
</g>
<!-- Node0&#45;&gt;Node2 -->
<g id="edge2" class="edge">
<title>Node0&#45;&gt;Node2</title>
<path fill="none" stroke="#191970" d="M603.85,-336.4878C637.6116,-317.6434 687,-281.892 687,-234 687,-234 687,-234 687,-122 687,-69.3549 515.9816,-30.9712 439.3657,-16.4169"/>
<polygon fill="#191970" stroke="#191970" points="439.6812,-12.9155 429.209,-14.5224 438.3976,-19.7968 439.6812,-12.9155"/>
</g>
<!-- Node3 -->
<g id="node4" class="node">
<title>Node3</title>
<polygon fill="#ffffff" stroke="#bfbfbf" points="550.5,-280.5 550.5,-299.5 595.5,-299.5 595.5,-280.5 550.5,-280.5"/>
<text text-anchor="middle" x="573" y="-287.5" font-family="Helvetica,sans-Serif" font-size="10.00" fill="#000000">msg.h</text>
</g>
<!-- Node0&#45;&gt;Node3 -->
<g id="edge3" class="edge">
<title>Node0&#45;&gt;Node3</title>
<path fill="none" stroke="#191970" d="M573,-336.2977C573,-328.3834 573,-318.6043 573,-310.0759"/>
<polygon fill="#191970" stroke="#191970" points="576.5001,-309.8469 573,-299.8469 569.5001,-309.847 576.5001,-309.8469"/>
</g>
<!-- Node4 -->
<g id="node5" class="node">
<title>Node4</title>
<g id="a_node5"><a xlink:href="net_2gnrc_2pkt_8h.html" target="_top" xlink:title="General definitions for network packets and their helper functions. ">
<polygon fill="#ffffff" stroke="#000000" points="385.5,-280.5 385.5,-299.5 470.5,-299.5 470.5,-280.5 385.5,-280.5"/>
<text text-anchor="middle" x="428" y="-287.5" font-family="Helvetica,sans-Serif" font-size="10.00" fill="#000000">net/gnrc/pkt.h</text>
</a>
</g>
</g>
<!-- Node0&#45;&gt;Node4 -->
<g id="edge4" class="edge">
<title>Node0&#45;&gt;Node4</title>
<path fill="none" stroke="#191970" d="M537.529,-336.4554C513.7598,-326.374 482.732,-313.2139 459.7715,-303.4755"/>
<polygon fill="#191970" stroke="#191970" points="461.0427,-300.2129 450.4699,-299.5303 458.3094,-306.6572 461.0427,-300.2129"/>
</g>
<!-- Node22 -->
<g id="node23" class="node">
<title>Node22</title>
<polygon fill="#ffffff" stroke="#bfbfbf" points="715.5,-280.5 715.5,-299.5 772.5,-299.5 772.5,-280.5 715.5,-280.5"/>
<text text-anchor="middle" x="744" y="-287.5" font-family="Helvetica,sans-Serif" font-size="10.00" fill="#000000">thread.h</text>
</g>
<!-- Node0&#45;&gt;Node22 -->
<g id="edge32" class="edge">
<title>Node0&#45;&gt;Node22</title>
<path fill="none" stroke="#191970" d="M614.8313,-336.4554C643.3631,-326.194 680.7635,-312.7429 707.9729,-302.9571"/>
<polygon fill="#191970" stroke="#191970" points="709.2757,-306.2081 717.5011,-299.5303 706.9066,-299.6212 709.2757,-306.2081"/>
</g>
<!-- Node5 -->
<g id="node6" class="node">
<title>Node5</title>
<g id="a_node6"><a xlink:href="inttypes_8h.html" target="_top" xlink:title="Adds include for missing inttype definitions. ">
<polygon fill="#ffffff" stroke="#000000" points="343.5,-168.5 343.5,-187.5 406.5,-187.5 406.5,-168.5 343.5,-168.5"/>
<text text-anchor="middle" x="375" y="-175.5" font-family="Helvetica,sans-Serif" font-size="10.00" fill="#000000">inttypes.h</text>
</a>
</g>
</g>
<!-- Node4&#45;&gt;Node5 -->
<g id="edge5" class="edge">
<title>Node4&#45;&gt;Node5</title>
<path fill="none" stroke="#191970" d="M419.3316,-280.4431C411.6968,-271.5751 400.7676,-257.7145 394,-244 386.7449,-229.2976 381.8021,-211.3487 378.7807,-197.8821"/>
<polygon fill="#191970" stroke="#191970" points="382.1461,-196.8738 376.6861,-187.7942 375.2923,-198.297 382.1461,-196.8738"/>
</g>
<!-- Node6 -->
<g id="node7" class="node">
<title>Node6</title>
<polygon fill="#ffffff" stroke="#bfbfbf" points="403,-224.5 403,-243.5 453,-243.5 453,-224.5 403,-224.5"/>
<text text-anchor="middle" x="428" y="-231.5" font-family="Helvetica,sans-Serif" font-size="10.00" fill="#000000">stdlib.h</text>
</g>
<!-- Node4&#45;&gt;Node6 -->
<g id="edge6" class="edge">
<title>Node4&#45;&gt;Node6</title>
<path fill="none" stroke="#191970" d="M428,-280.2455C428,-272.9382 428,-262.6944 428,-253.7046"/>
<polygon fill="#191970" stroke="#191970" points="431.5001,-253.6426 428,-243.6427 424.5001,-253.6427 431.5001,-253.6426"/>
</g>
<!-- Node7 -->
<g id="node8" class="node">
<title>Node7</title>
<g id="a_node8"><a xlink:href="sched_8h.html" target="_top" xlink:title="Scheduler API definition. ">
<polygon fill="#ffffff" stroke="#000000" points="213.5,-224.5 213.5,-243.5 266.5,-243.5 266.5,-224.5 213.5,-224.5"/>
<text text-anchor="middle" x="240" y="-231.5" font-family="Helvetica,sans-Serif" font-size="10.00" fill="#000000">sched.h</text>
</a>
</g>
</g>
<!-- Node4&#45;&gt;Node7 -->
<g id="edge7" class="edge">
<title>Node4&#45;&gt;Node7</title>
<path fill="none" stroke="#191970" d="M395.6816,-280.3733C362.5251,-270.4968 311.037,-255.16 276.4488,-244.8571"/>
<polygon fill="#191970" stroke="#191970" points="277.3169,-241.4638 266.7338,-241.9633 275.3185,-248.1725 277.3169,-241.4638"/>
</g>
<!-- Node18 -->
<g id="node19" class="node">
<title>Node18</title>
<g id="a_node19"><a xlink:href="list_8h.html" target="_top" xlink:title="Intrusive linked list. ">
<polygon fill="#ffffff" stroke="#000000" points="0,-112.5 0,-131.5 38,-131.5 38,-112.5 0,-112.5"/>
<text text-anchor="middle" x="19" y="-119.5" font-family="Helvetica,sans-Serif" font-size="10.00" fill="#000000">list.h</text>
</a>
</g>
</g>
<!-- Node4&#45;&gt;Node18 -->
<g id="edge31" class="edge">
<title>Node4&#45;&gt;Node18</title>
<path fill="none" stroke="#191970" d="M385.0322,-281.647C329.992,-270.8652 237.6857,-252.485 204,-244 119.8701,-222.8088 68.8054,-257.5925 17,-188 7.1814,-174.8102 8.9934,-155.681 12.4852,-141.4089"/>
<polygon fill="#191970" stroke="#191970" points="15.9,-142.1994 15.318,-131.6205 9.1759,-140.2533 15.9,-142.1994"/>
</g>
<!-- Node19 -->
<g id="node20" class="node">
<title>Node19</title>
<g id="a_node20"><a xlink:href="nettype_8h.html" target="_top" xlink:title="Protocol type definitions. ">
<polygon fill="#ffffff" stroke="#000000" points="471.5,-224.5 471.5,-243.5 578.5,-243.5 578.5,-224.5 471.5,-224.5"/>
<text text-anchor="middle" x="525" y="-231.5" font-family="Helvetica,sans-Serif" font-size="10.00" fill="#000000">net/gnrc/nettype.h</text>
</a>
</g>
</g>
<!-- Node4&#45;&gt;Node19 -->
<g id="edge26" class="edge">
<title>Node4&#45;&gt;Node19</title>
<path fill="none" stroke="#191970" d="M444.8961,-280.2455C459.918,-271.5731 482.1043,-258.7645 499.321,-248.825"/>
<polygon fill="#191970" stroke="#191970" points="501.3871,-251.6737 508.2975,-243.6427 497.8872,-245.6114 501.3871,-251.6737"/>
</g>
<!-- Node7&#45;&gt;Node5 -->
<g id="edge9" class="edge">
<title>Node7&#45;&gt;Node5</title>
<path fill="none" stroke="#191970" d="M263.2073,-224.3733C285.1699,-215.2629 318.3332,-201.5062 342.8401,-191.3404"/>
<polygon fill="#191970" stroke="#191970" points="344.1997,-194.5657 352.0955,-187.5011 341.5176,-188.0999 344.1997,-194.5657"/>
</g>
<!-- Node8 -->
<g id="node9" class="node">
<title>Node8</title>
<polygon fill="#ffffff" stroke="#bfbfbf" points="174,-56.5 174,-75.5 230,-75.5 230,-56.5 174,-56.5"/>
<text text-anchor="middle" x="202" y="-63.5" font-family="Helvetica,sans-Serif" font-size="10.00" fill="#000000">stddef.h</text>
</g>
<!-- Node7&#45;&gt;Node8 -->
<g id="edge8" class="edge">
<title>Node7&#45;&gt;Node8</title>
<path fill="none" stroke="#191970" d="M235.2317,-224.3681C230.8957,-215.2219 224.6356,-200.9797 221,-188 211.1175,-152.7176 205.9615,-110.1614 203.626,-85.7742"/>
<polygon fill="#191970" stroke="#191970" points="207.0981,-85.3042 202.7211,-75.6557 200.1259,-85.9278 207.0981,-85.3042"/>
</g>
<!-- Node9 -->
<g id="node10" class="node">
<title>Node9</title>
<g id="a_node10"><a xlink:href="kernel__defines_8h.html" target="_top" xlink:title="Common macros and compiler attributes/pragmas configuration. ">
<polygon fill="#ffffff" stroke="#000000" points="230.5,-168.5 230.5,-187.5 325.5,-187.5 325.5,-168.5 230.5,-168.5"/>
<text text-anchor="middle" x="278" y="-175.5" font-family="Helvetica,sans-Serif" font-size="10.00" fill="#000000">kernel_defines.h</text>
</a>
</g>
</g>
<!-- Node7&#45;&gt;Node9 -->
<g id="edge10" class="edge">
<title>Node7&#45;&gt;Node9</title>
<path fill="none" stroke="#191970" d="M246.6191,-224.2455C251.9046,-216.4564 259.4541,-205.3308 265.8238,-195.9439"/>
<polygon fill="#191970" stroke="#191970" points="268.7379,-197.8827 271.4568,-187.6427 262.9455,-193.9522 268.7379,-197.8827"/>
</g>
<!-- Node15 -->
<g id="node16" class="node">
<title>Node15</title>
<g id="a_node16"><a xlink:href="native__sched_8h.html" target="_top" xlink:title="Add definitions required on the native board. ">
<polygon fill="#ffffff" stroke="#000000" points="26,-168.5 26,-187.5 112,-187.5 112,-168.5 26,-168.5"/>
<text text-anchor="middle" x="69" y="-175.5" font-family="Helvetica,sans-Serif" font-size="10.00" fill="#000000">native_sched.h</text>
</a>
</g>
</g>
<!-- Node7&#45;&gt;Node15 -->
<g id="edge21" class="edge">
<title>Node7&#45;&gt;Node15</title>
<path fill="none" stroke="#191970" d="M213.2813,-225.25C184.934,-215.9667 139.8784,-201.2116 107.659,-190.6603"/>
<polygon fill="#191970" stroke="#191970" points="108.6974,-187.3175 98.1047,-187.5314 106.5188,-193.9698 108.6974,-187.3175"/>
</g>
<!-- Node16 -->
<g id="node17" class="node">
<title>Node16</title>
<g id="a_node17"><a xlink:href="clist_8h.html" target="_top" xlink:title="Circular linked list. ">
<polygon fill="#ffffff" stroke="#000000" points="130.5,-168.5 130.5,-187.5 173.5,-187.5 173.5,-168.5 130.5,-168.5"/>
<text text-anchor="middle" x="152" y="-175.5" font-family="Helvetica,sans-Serif" font-size="10.00" fill="#000000">clist.h</text>
</a>
</g>
</g>
<!-- Node7&#45;&gt;Node16 -->
<g id="edge22" class="edge">
<title>Node7&#45;&gt;Node16</title>
<path fill="none" stroke="#191970" d="M224.6716,-224.2455C211.1697,-215.6534 191.2878,-203.0014 175.7314,-193.1018"/>
<polygon fill="#191970" stroke="#191970" points="177.4685,-190.0587 167.1528,-187.6427 173.7103,-195.9643 177.4685,-190.0587"/>
</g>
<!-- Node10 -->
<g id="node11" class="node">
<title>Node10</title>
<g id="a_node11"><a xlink:href="modules_8h.html" target="_top" xlink:title="Common macros and compiler attributes/pragmas configuration. ">
<polygon fill="#ffffff" stroke="#000000" points="530.5,-112.5 530.5,-131.5 595.5,-131.5 595.5,-112.5 530.5,-112.5"/>
<text text-anchor="middle" x="563" y="-119.5" font-family="Helvetica,sans-Serif" font-size="10.00" fill="#000000">modules.h</text>
</a>
</g>
</g>
<!-- Node9&#45;&gt;Node10 -->
<g id="edge11" class="edge">
<title>Node9&#45;&gt;Node10</title>
<path fill="none" stroke="#191970" d="M325.7026,-168.6269C380.0749,-157.9432 468.1458,-140.638 520.3283,-130.3846"/>
<polygon fill="#191970" stroke="#191970" points="521.1281,-133.7945 530.2656,-128.432 519.7784,-126.9258 521.1281,-133.7945"/>
</g>
<!-- Node11 -->
<g id="node12" class="node">
<title>Node11</title>
<g id="a_node12"><a xlink:href="riot__version_8h.html" target="_top" xlink:title="Common macros and compiler attributes/pragmas configuration. ">
<polygon fill="#ffffff" stroke="#000000" points="293.5,-56.5 293.5,-75.5 374.5,-75.5 374.5,-56.5 293.5,-56.5"/>
<text text-anchor="middle" x="334" y="-63.5" font-family="Helvetica,sans-Serif" font-size="10.00" fill="#000000">riot_version.h</text>
</a>
</g>
</g>
<!-- Node9&#45;&gt;Node11 -->
<g id="edge12" class="edge">
<title>Node9&#45;&gt;Node11</title>
<path fill="none" stroke="#191970" d="M285.0332,-168.4764C291.5292,-159.4067 301.1767,-145.2162 308,-132 315.846,-116.8029 322.8308,-98.6712 327.5798,-85.2612"/>
<polygon fill="#191970" stroke="#191970" points="330.9375,-86.2598 330.8828,-75.6651 324.3187,-83.9815 330.9375,-86.2598"/>
</g>
<!-- Node12 -->
<g id="node13" class="node">
<title>Node12</title>
<g id="a_node13"><a xlink:href="compiler__hints_8h.html" target="_top" xlink:title="Common macros and compiler attributes/pragmas configuration. ">
<polygon fill="#ffffff" stroke="#000000" points="356.5,-112.5 356.5,-131.5 449.5,-131.5 449.5,-112.5 356.5,-112.5"/>
<text text-anchor="middle" x="403" y="-119.5" font-family="Helvetica,sans-Serif" font-size="10.00" fill="#000000">compiler_hints.h</text>
</a>
</g>
</g>
<!-- Node9&#45;&gt;Node12 -->
<g id="edge14" class="edge">
<title>Node9&#45;&gt;Node12</title>
<path fill="none" stroke="#191970" d="M299.4883,-168.3733C319.644,-159.3435 349.988,-145.7494 372.618,-135.6111"/>
<polygon fill="#191970" stroke="#191970" points="374.0971,-138.7838 381.7921,-131.5011 371.2351,-132.3955 374.0971,-138.7838"/>
</g>
<!-- Node14 -->
<g id="node15" class="node">
<title>Node14</title>
<g id="a_node15"><a xlink:href="container_8h.html" target="_top" xlink:title="Common macros and compiler attributes/pragmas configuration. ">
<polygon fill="#ffffff" stroke="#000000" points="230.5,-112.5 230.5,-131.5 299.5,-131.5 299.5,-112.5 230.5,-112.5"/>
<text text-anchor="middle" x="265" y="-119.5" font-family="Helvetica,sans-Serif" font-size="10.00" fill="#000000">container.h</text>
</a>
</g>
</g>
<!-- Node9&#45;&gt;Node14 -->
<g id="edge18" class="edge">
<title>Node9&#45;&gt;Node14</title>
<path fill="none" stroke="#191970" d="M275.7356,-168.2455C274.0206,-160.8579 271.6088,-150.4689 269.5056,-141.4087"/>
<polygon fill="#191970" stroke="#191970" points="272.9092,-140.5922 267.2385,-131.6427 266.0905,-142.1751 272.9092,-140.5922"/>
</g>
<!-- Node11&#45;&gt;Node2 -->
<g id="edge13" class="edge">
<title>Node11&#45;&gt;Node2</title>
<path fill="none" stroke="#191970" d="M346.0189,-56.2455C356.2098,-47.9746 371.0362,-35.9416 383.0107,-26.2232"/>
<polygon fill="#191970" stroke="#191970" points="385.5598,-28.662 391.1188,-19.6427 381.1486,-23.2268 385.5598,-28.662"/>
</g>
<!-- Node12&#45;&gt;Node2 -->
<g id="edge17" class="edge">
<title>Node12&#45;&gt;Node2</title>
<path fill="none" stroke="#191970" d="M403,-112.4509C403,-94.184 403,-53.9553 403,-29.6976"/>
<polygon fill="#191970" stroke="#191970" points="406.5001,-29.5249 403,-19.5249 399.5001,-29.5249 406.5001,-29.5249"/>
</g>
<!-- Node13 -->
<g id="node14" class="node">
<title>Node13</title>
<g id="a_node14"><a xlink:href="assert_8h.html" target="_top" xlink:title="POSIX.1&#45;2008 compliant version of the assert macro. ">
<polygon fill="#ffffff" stroke="#000000" points="431,-56.5 431,-75.5 485,-75.5 485,-56.5 431,-56.5"/>
<text text-anchor="middle" x="458" y="-63.5" font-family="Helvetica,sans-Serif" font-size="10.00" fill="#000000">assert.h</text>
</a>
</g>
</g>
<!-- Node12&#45;&gt;Node13 -->
<g id="edge15" class="edge">
<title>Node12&#45;&gt;Node13</title>
<path fill="none" stroke="#191970" d="M412.5803,-112.2455C420.5458,-104.1352 432.0641,-92.4075 441.5079,-82.7919"/>
<polygon fill="#191970" stroke="#191970" points="444.0195,-85.2297 448.5295,-75.6427 439.0253,-80.3247 444.0195,-85.2297"/>
</g>
<!-- Node13&#45;&gt;Node2 -->
<g id="edge16" class="edge">
<title>Node13&#45;&gt;Node2</title>
<path fill="none" stroke="#191970" d="M448.4197,-56.2455C440.4542,-48.1352 428.9359,-36.4075 419.4921,-26.7919"/>
<polygon fill="#191970" stroke="#191970" points="421.9747,-24.3247 412.4705,-19.6427 416.9805,-29.2297 421.9747,-24.3247"/>
</g>
<!-- Node14&#45;&gt;Node2 -->
<g id="edge20" class="edge">
<title>Node14&#45;&gt;Node2</title>
<path fill="none" stroke="#191970" d="M265.1983,-112.1895C266.0034,-98.0304 269.5103,-71.8333 284,-56 305.5177,-32.4869 340.4444,-20.8732 366.9067,-15.2108"/>
<polygon fill="#191970" stroke="#191970" points="367.7993,-18.6028 376.9463,-13.2565 366.4617,-11.7318 367.7993,-18.6028"/>
</g>
<!-- Node14&#45;&gt;Node8 -->
<g id="edge19" class="edge">
<title>Node14&#45;&gt;Node8</title>
<path fill="none" stroke="#191970" d="M254.0262,-112.2455C244.8118,-104.0549 231.4468,-92.1749 220.5703,-82.5069"/>
<polygon fill="#191970" stroke="#191970" points="222.6474,-79.6704 212.848,-75.6427 217.9968,-84.9023 222.6474,-79.6704"/>
</g>
<!-- Node16&#45;&gt;Node8 -->
<g id="edge24" class="edge">
<title>Node16&#45;&gt;Node8</title>
<path fill="none" stroke="#191970" d="M156.263,-168.4509C164.5286,-149.936 182.8665,-108.8591 193.6434,-84.7187"/>
<polygon fill="#191970" stroke="#191970" points="196.8672,-86.0831 197.7478,-75.5249 190.4753,-83.2295 196.8672,-86.0831"/>
</g>
<!-- Node17 -->
<g id="node18" class="node">
<title>Node17</title>
<polygon fill="#ffffff" stroke="#bfbfbf" points="76,-112.5 76,-131.5 136,-131.5 136,-112.5 76,-112.5"/>
<text text-anchor="middle" x="106" y="-119.5" font-family="Helvetica,sans-Serif" font-size="10.00" fill="#000000">stdbool.h</text>
</g>
<!-- Node16&#45;&gt;Node17 -->
<g id="edge23" class="edge">
<title>Node16&#45;&gt;Node17</title>
<path fill="none" stroke="#191970" d="M143.9874,-168.2455C137.5232,-160.3761 128.2615,-149.101 120.5017,-139.6542"/>
<polygon fill="#191970" stroke="#191970" points="122.9727,-137.1484 113.9208,-131.6427 117.5636,-141.5916 122.9727,-137.1484"/>
</g>
<!-- Node16&#45;&gt;Node18 -->
<g id="edge25" class="edge">
<title>Node16&#45;&gt;Node18</title>
<path fill="none" stroke="#191970" d="M130.3352,-168.878C107.7216,-159.3565 72.1604,-144.3833 47.3316,-133.9291"/>
<polygon fill="#191970" stroke="#191970" points="48.6413,-130.683 38.0667,-130.0281 45.9248,-137.1344 48.6413,-130.683"/>
</g>
<!-- Node19&#45;&gt;Node5 -->
<g id="edge27" class="edge">
<title>Node19&#45;&gt;Node5</title>
<path fill="none" stroke="#191970" d="M499.2141,-224.3733C474.5953,-215.1822 437.31,-201.2624 410.0125,-191.0713"/>
<polygon fill="#191970" stroke="#191970" points="411.042,-187.7198 400.4494,-187.5011 408.5937,-194.2777 411.042,-187.7198"/>
</g>
<!-- Node19&#45;&gt;Node10 -->
<g id="edge28" class="edge">
<title>Node19&#45;&gt;Node10</title>
<path fill="none" stroke="#191970" d="M575.7161,-224.4201C596.1821,-217.7945 617.8043,-206.6576 630,-188 643.3285,-167.6095 618.3649,-148.5691 595.2151,-136.2307"/>
<polygon fill="#191970" stroke="#191970" points="596.6915,-133.0555 586.1858,-131.684 593.5433,-139.3076 596.6915,-133.0555"/>
</g>
<!-- Node20 -->
<g id="node21" class="node">
<title>Node20</title>
<g id="a_node21"><a xlink:href="ethertype_8h.html" target="_top" xlink:title="Ether type definitions. ">
<polygon fill="#ffffff" stroke="#000000" points="425,-168.5 425,-187.5 517,-187.5 517,-168.5 425,-168.5"/>
<text text-anchor="middle" x="471" y="-175.5" font-family="Helvetica,sans-Serif" font-size="10.00" fill="#000000">net/ethertype.h</text>
</a>
</g>
</g>
<!-- Node19&#45;&gt;Node20 -->
<g id="edge29" class="edge">
<title>Node19&#45;&gt;Node20</title>
<path fill="none" stroke="#191970" d="M515.5939,-224.2455C507.8507,-216.2155 496.688,-204.6394 487.4682,-195.0781"/>
<polygon fill="#191970" stroke="#191970" points="489.7591,-192.4117 480.2983,-187.6427 484.7202,-197.2706 489.7591,-192.4117"/>
</g>
<!-- Node21 -->
<g id="node22" class="node">
<title>Node21</title>
<g id="a_node22"><a xlink:href="protnum_8h.html" target="_top" xlink:title="Protocol number definitions. ">
<polygon fill="#ffffff" stroke="#000000" points="535,-168.5 535,-187.5 621,-187.5 621,-168.5 535,-168.5"/>
<text text-anchor="middle" x="578" y="-175.5" font-family="Helvetica,sans-Serif" font-size="10.00" fill="#000000">net/protnum.h</text>
</a>
</g>
</g>
<!-- Node19&#45;&gt;Node21 -->
<g id="edge30" class="edge">
<title>Node19&#45;&gt;Node21</title>
<path fill="none" stroke="#191970" d="M534.2319,-224.2455C541.8317,-216.2155 552.7877,-204.6394 561.8368,-195.0781"/>
<polygon fill="#191970" stroke="#191970" points="564.5421,-197.3115 568.8739,-187.6427 559.458,-192.4998 564.5421,-197.3115"/>
</g>
</g>
</svg>
