<?xml version="1.0" encoding="UTF-8" standalone="no"?>
<!DOCTYPE svg PUBLIC "-//W3C//DTD SVG 1.1//EN"
 "http://www.w3.org/Graphics/SVG/1.1/DTD/svg11.dtd">
<!-- Generated by graphviz version 2.40.1 (0)
 -->
<!-- Title: sys/include/net/gnrc/netif/conf.h Pages: 1 -->
<svg width="736pt" height="375pt"
 viewBox="0.00 0.00 736.13 375.00" xmlns="http://www.w3.org/2000/svg" xmlns:xlink="http://www.w3.org/1999/xlink">
<g id="graph0" class="graph" transform="scale(1 1) rotate(0) translate(4 371)">
<title>sys/include/net/gnrc/netif/conf.h</title>
<polygon fill="#ffffff" stroke="transparent" points="-4,4 -4,-371 732.1326,-371 732.1326,4 -4,4"/>
<!-- Node0 -->
<g id="node1" class="node">
<title>Node0</title>
<polygon fill="#bfbfbf" stroke="#000000" points="325.1326,-336.5 325.1326,-366.5 437.1326,-366.5 437.1326,-336.5 325.1326,-336.5"/>
<text text-anchor="start" x="333.1326" y="-354.5" font-family="Helvetica,sans-Serif" font-size="10.00" fill="#000000">sys/include/net/gnrc</text>
<text text-anchor="middle" x="381.1326" y="-343.5" font-family="Helvetica,sans-Serif" font-size="10.00" fill="#000000">/netif/conf.h</text>
</g>
<!-- Node1 -->
<g id="node2" class="node">
<title>Node1</title>
<g id="a_node2"><a xlink:href="modules_8h.html" target="_top" xlink:title="Common macros and compiler attributes/pragmas configuration. ">
<polygon fill="#ffffff" stroke="#000000" points="336.6326,-168.5 336.6326,-187.5 401.6326,-187.5 401.6326,-168.5 336.6326,-168.5"/>
<text text-anchor="middle" x="369.1326" y="-175.5" font-family="Helvetica,sans-Serif" font-size="10.00" fill="#000000">modules.h</text>
</a>
</g>
</g>
<!-- Node0&#45;&gt;Node1 -->
<g id="edge1" class="edge">
<title>Node0&#45;&gt;Node1</title>
<path fill="none" stroke="#191970" d="M389.1217,-336.1946C393.8984,-326.1905 399.5302,-312.6742 402.1326,-300 408.9272,-266.9097 413.7029,-256.0843 403.1326,-224 399.6271,-213.3594 392.6085,-203.164 385.854,-195.0877"/>
<polygon fill="#191970" stroke="#191970" points="388.3466,-192.6247 379.0688,-187.5087 383.1312,-197.2937 388.3466,-192.6247"/>
</g>
<!-- Node2 -->
<g id="node3" class="node">
<title>Node2</title>
<g id="a_node3"><a xlink:href="client_8h.html" target="_top" xlink:title="DHCPv6 client definitions. ">
<polygon fill="#ffffff" stroke="#000000" points="119.6326,-280.5 119.6326,-299.5 226.6326,-299.5 226.6326,-280.5 119.6326,-280.5"/>
<text text-anchor="middle" x="173.1326" y="-287.5" font-family="Helvetica,sans-Serif" font-size="10.00" fill="#000000">net/dhcpv6/client.h</text>
</a>
</g>
</g>
<!-- Node0&#45;&gt;Node2 -->
<g id="edge2" class="edge">
<title>Node0&#45;&gt;Node2</title>
<path fill="none" stroke="#191970" d="M330.2501,-336.4554C294.9359,-326.0139 248.4523,-312.27 215.2247,-302.4455"/>
<polygon fill="#191970" stroke="#191970" points="215.9473,-299.0094 205.3653,-299.5303 213.9625,-305.7221 215.9473,-299.0094"/>
</g>
<!-- Node13 -->
<g id="node14" class="node">
<title>Node13</title>
<polygon fill="#ffffff" stroke="#bfbfbf" points="217.6326,-224.5 217.6326,-243.5 274.6326,-243.5 274.6326,-224.5 217.6326,-224.5"/>
<text text-anchor="middle" x="246.1326" y="-231.5" font-family="Helvetica,sans-Serif" font-size="10.00" fill="#000000">thread.h</text>
</g>
<!-- Node0&#45;&gt;Node13 -->
<g id="edge35" class="edge">
<title>Node0&#45;&gt;Node13</title>
<path fill="none" stroke="#191970" d="M334.9471,-336.4693C315.1945,-328.2048 293.0642,-316.2645 277.1326,-300 264.4263,-287.0281 256.2266,-267.8726 251.4725,-253.5353"/>
<polygon fill="#191970" stroke="#191970" points="254.7398,-252.2486 248.4909,-243.6928 248.0405,-254.2781 254.7398,-252.2486"/>
</g>
<!-- Node14 -->
<g id="node15" class="node">
<title>Node14</title>
<g id="a_node15"><a xlink:href="sys_2include_2net_2ieee802154_8h.html" target="_top" xlink:title="IEEE 802.15.4 header definitions. ">
<polygon fill="#ffffff" stroke="#000000" points="522.6326,-224.5 522.6326,-243.5 623.6326,-243.5 623.6326,-224.5 522.6326,-224.5"/>
<text text-anchor="middle" x="573.1326" y="-231.5" font-family="Helvetica,sans-Serif" font-size="10.00" fill="#000000">net/ieee802154.h</text>
</a>
</g>
</g>
<!-- Node0&#45;&gt;Node14 -->
<g id="edge21" class="edge">
<title>Node0&#45;&gt;Node14</title>
<path fill="none" stroke="#191970" d="M437.1763,-345.5124C492.7675,-338.2807 572.3086,-323.9982 591.1326,-300 601.956,-286.2016 594.3057,-266.3638 585.8916,-252.0439"/>
<polygon fill="#191970" stroke="#191970" points="588.7862,-250.0739 580.4386,-243.5494 582.8955,-253.8554 588.7862,-250.0739"/>
</g>
<!-- Node18 -->
<g id="node19" class="node">
<title>Node18</title>
<g id="a_node19"><a xlink:href="net_2ethernet_2hdr_8h.html" target="_top" xlink:title="Ethernet header definitions. ">
<polygon fill="#ffffff" stroke="#000000" points="286.6326,-280.5 286.6326,-299.5 393.6326,-299.5 393.6326,-280.5 286.6326,-280.5"/>
<text text-anchor="middle" x="340.1326" y="-287.5" font-family="Helvetica,sans-Serif" font-size="10.00" fill="#000000">net/ethernet/hdr.h</text>
</a>
</g>
</g>
<!-- Node0&#45;&gt;Node18 -->
<g id="edge30" class="edge">
<title>Node0&#45;&gt;Node18</title>
<path fill="none" stroke="#191970" d="M370.9978,-336.2977C365.3659,-327.8498 358.3175,-317.2773 352.3787,-308.369"/>
<polygon fill="#191970" stroke="#191970" points="355.1565,-306.226 346.6973,-299.8469 349.3321,-310.1089 355.1565,-306.226"/>
</g>
<!-- Node20 -->
<g id="node21" class="node">
<title>Node20</title>
<g id="a_node21"><a xlink:href="ipv6_2nib_2conf_8h.html" target="_top" xlink:title="Configuration macro definitions for neighbor information base. ">
<polygon fill="#ffffff" stroke="#000000" points="450.6326,-280.5 450.6326,-299.5 581.6326,-299.5 581.6326,-280.5 450.6326,-280.5"/>
<text text-anchor="middle" x="516.1326" y="-287.5" font-family="Helvetica,sans-Serif" font-size="10.00" fill="#000000">net/gnrc/ipv6/nib/conf.h</text>
</a>
</g>
</g>
<!-- Node0&#45;&gt;Node20 -->
<g id="edge33" class="edge">
<title>Node0&#45;&gt;Node20</title>
<path fill="none" stroke="#191970" d="M414.1573,-336.4554C436.0897,-326.464 464.6599,-313.4487 485.9779,-303.7372"/>
<polygon fill="#191970" stroke="#191970" points="487.5632,-306.8611 495.2124,-299.5303 484.6612,-300.4909 487.5632,-306.8611"/>
</g>
<!-- Node3 -->
<g id="node4" class="node">
<title>Node3</title>
<g id="a_node4"><a xlink:href="byteorder_8h.html" target="_top" xlink:title="Functions to work with different byte orders. ">
<polygon fill="#ffffff" stroke="#000000" points="258.6326,-112.5 258.6326,-131.5 331.6326,-131.5 331.6326,-112.5 258.6326,-112.5"/>
<text text-anchor="middle" x="295.1326" y="-119.5" font-family="Helvetica,sans-Serif" font-size="10.00" fill="#000000">byteorder.h</text>
</a>
</g>
</g>
<!-- Node2&#45;&gt;Node3 -->
<g id="edge3" class="edge">
<title>Node2&#45;&gt;Node3</title>
<path fill="none" stroke="#191970" d="M160.9304,-280.0813C146.5048,-267.0991 125.8016,-243.6819 137.1326,-224 153.0305,-196.3854 172.2067,-205.0383 199.1326,-188 225.248,-171.4746 254.3893,-151.1631 273.6403,-137.4726"/>
<polygon fill="#191970" stroke="#191970" points="275.8883,-140.1681 281.9913,-131.5076 271.8196,-134.472 275.8883,-140.1681"/>
</g>
<!-- Node8 -->
<g id="node9" class="node">
<title>Node8</title>
<polygon fill="#ffffff" stroke="#bfbfbf" points="146.6326,-224.5 146.6326,-243.5 199.6326,-243.5 199.6326,-224.5 146.6326,-224.5"/>
<text text-anchor="middle" x="173.1326" y="-231.5" font-family="Helvetica,sans-Serif" font-size="10.00" fill="#000000">event.h</text>
</g>
<!-- Node2&#45;&gt;Node8 -->
<g id="edge10" class="edge">
<title>Node2&#45;&gt;Node8</title>
<path fill="none" stroke="#191970" d="M173.1326,-280.2455C173.1326,-272.9382 173.1326,-262.6944 173.1326,-253.7046"/>
<polygon fill="#191970" stroke="#191970" points="176.6327,-253.6426 173.1326,-243.6427 169.6327,-253.6427 176.6327,-253.6426"/>
</g>
<!-- Node9 -->
<g id="node10" class="node">
<title>Node9</title>
<g id="a_node10"><a xlink:href="ipv6_2addr_8h.html" target="_top" xlink:title="Definitions for IPv6 addresses. ">
<polygon fill="#ffffff" stroke="#000000" points=".6326,-224.5 .6326,-243.5 89.6326,-243.5 89.6326,-224.5 .6326,-224.5"/>
<text text-anchor="middle" x="45.1326" y="-231.5" font-family="Helvetica,sans-Serif" font-size="10.00" fill="#000000">net/ipv6/addr.h</text>
</a>
</g>
</g>
<!-- Node2&#45;&gt;Node9 -->
<g id="edge11" class="edge">
<title>Node2&#45;&gt;Node9</title>
<path fill="none" stroke="#191970" d="M151.1286,-280.3733C130.4892,-271.3435 99.4169,-257.7494 76.2438,-247.6111"/>
<polygon fill="#191970" stroke="#191970" points="77.414,-244.3028 66.8495,-243.5011 74.6082,-250.7159 77.414,-244.3028"/>
</g>
<!-- Node2&#45;&gt;Node13 -->
<g id="edge20" class="edge">
<title>Node2&#45;&gt;Node13</title>
<path fill="none" stroke="#191970" d="M185.8483,-280.2455C196.7347,-271.8943 212.6209,-259.7076 225.3526,-249.9408"/>
<polygon fill="#191970" stroke="#191970" points="227.7587,-252.5063 233.5627,-243.6427 223.4981,-246.9523 227.7587,-252.5063"/>
</g>
<!-- Node4 -->
<g id="node5" class="node">
<title>Node4</title>
<polygon fill="#ffffff" stroke="#bfbfbf" points="209.6326,-56.5 209.6326,-75.5 262.6326,-75.5 262.6326,-56.5 209.6326,-56.5"/>
<text text-anchor="middle" x="236.1326" y="-63.5" font-family="Helvetica,sans-Serif" font-size="10.00" fill="#000000">string.h</text>
</g>
<!-- Node3&#45;&gt;Node4 -->
<g id="edge4" class="edge">
<title>Node3&#45;&gt;Node4</title>
<path fill="none" stroke="#191970" d="M284.8556,-112.2455C276.3108,-104.1352 263.9548,-92.4075 253.8241,-82.7919"/>
<polygon fill="#191970" stroke="#191970" points="255.9545,-79.9884 246.2919,-75.6427 251.1355,-85.0655 255.9545,-79.9884"/>
</g>
<!-- Node5 -->
<g id="node6" class="node">
<title>Node5</title>
<polygon fill="#ffffff" stroke="#bfbfbf" points="363.1326,-.5 363.1326,-19.5 415.1326,-19.5 415.1326,-.5 363.1326,-.5"/>
<text text-anchor="middle" x="389.1326" y="-7.5" font-family="Helvetica,sans-Serif" font-size="10.00" fill="#000000">stdint.h</text>
</g>
<!-- Node3&#45;&gt;Node5 -->
<g id="edge5" class="edge">
<title>Node3&#45;&gt;Node5</title>
<path fill="none" stroke="#191970" d="M295.0133,-112.0473C295.3358,-98.1809 297.7512,-72.8575 310.1326,-56 320.9472,-41.2759 338.0086,-30.4927 353.5127,-23.0833"/>
<polygon fill="#191970" stroke="#191970" points="355.1866,-26.1692 362.8951,-18.9009 352.3365,-19.7757 355.1866,-26.1692"/>
</g>
<!-- Node6 -->
<g id="node7" class="node">
<title>Node6</title>
<g id="a_node7"><a xlink:href="endian_8h.html" target="_top" xlink:title="libc header for endian conversion ">
<polygon fill="#ffffff" stroke="#000000" points="319.6326,-56.5 319.6326,-75.5 376.6326,-75.5 376.6326,-56.5 319.6326,-56.5"/>
<text text-anchor="middle" x="348.1326" y="-63.5" font-family="Helvetica,sans-Serif" font-size="10.00" fill="#000000">endian.h</text>
</a>
</g>
</g>
<!-- Node3&#45;&gt;Node6 -->
<g id="edge6" class="edge">
<title>Node3&#45;&gt;Node6</title>
<path fill="none" stroke="#191970" d="M304.3645,-112.2455C311.9644,-104.2155 322.9204,-92.6394 331.9694,-83.0781"/>
<polygon fill="#191970" stroke="#191970" points="334.6747,-85.3115 339.0065,-75.6427 329.5906,-80.4998 334.6747,-85.3115"/>
</g>
<!-- Node7 -->
<g id="node8" class="node">
<title>Node7</title>
<g id="a_node8"><a xlink:href="unaligned_8h.html" target="_top" xlink:title="Unaligned but safe memory access functions. ">
<polygon fill="#ffffff" stroke="#000000" points="394.6326,-56.5 394.6326,-75.5 465.6326,-75.5 465.6326,-56.5 394.6326,-56.5"/>
<text text-anchor="middle" x="430.1326" y="-63.5" font-family="Helvetica,sans-Serif" font-size="10.00" fill="#000000">unaligned.h</text>
</a>
</g>
</g>
<!-- Node3&#45;&gt;Node7 -->
<g id="edge8" class="edge">
<title>Node3&#45;&gt;Node7</title>
<path fill="none" stroke="#191970" d="M318.34,-112.3733C340.3025,-103.2629 373.4658,-89.5062 397.9728,-79.3404"/>
<polygon fill="#191970" stroke="#191970" points="399.3324,-82.5657 407.2281,-75.5011 396.6502,-76.0999 399.3324,-82.5657"/>
</g>
<!-- Node6&#45;&gt;Node5 -->
<g id="edge7" class="edge">
<title>Node6&#45;&gt;Node5</title>
<path fill="none" stroke="#191970" d="M355.2743,-56.2455C360.977,-48.4564 369.1226,-37.3308 375.9951,-27.9439"/>
<polygon fill="#191970" stroke="#191970" points="378.9894,-29.7789 382.0728,-19.6427 373.3414,-25.6437 378.9894,-29.7789"/>
</g>
<!-- Node7&#45;&gt;Node5 -->
<g id="edge9" class="edge">
<title>Node7&#45;&gt;Node5</title>
<path fill="none" stroke="#191970" d="M422.991,-56.2455C417.2882,-48.4564 409.1427,-37.3308 402.2702,-27.9439"/>
<polygon fill="#191970" stroke="#191970" points="404.9239,-25.6437 396.1924,-19.6427 399.2759,-29.7789 404.9239,-25.6437"/>
</g>
<!-- Node9&#45;&gt;Node3 -->
<g id="edge14" class="edge">
<title>Node9&#45;&gt;Node3</title>
<path fill="none" stroke="#191970" d="M72.6266,-224.381C97.1643,-215.5796 133.9339,-201.8547 165.1326,-188 201.8058,-171.7142 242.9115,-150.2887 268.8963,-136.3345"/>
<polygon fill="#191970" stroke="#191970" points="270.6126,-139.3855 277.7493,-131.5549 267.2871,-133.2258 270.6126,-139.3855"/>
</g>
<!-- Node9&#45;&gt;Node4 -->
<g id="edge13" class="edge">
<title>Node9&#45;&gt;Node4</title>
<path fill="none" stroke="#191970" d="M37.1,-224.2754C19.6687,-201.9473 -17.8886,-146.2992 10.1326,-112 33.6232,-83.2465 141.687,-72.012 199.4591,-68.0037"/>
<polygon fill="#191970" stroke="#191970" points="199.8799,-71.4837 209.6294,-67.3368 199.4218,-64.4987 199.8799,-71.4837"/>
</g>
<!-- Node10 -->
<g id="node11" class="node">
<title>Node10</title>
<polygon fill="#ffffff" stroke="#bfbfbf" points="19.1326,-112.5 19.1326,-131.5 79.1326,-131.5 79.1326,-112.5 19.1326,-112.5"/>
<text text-anchor="middle" x="49.1326" y="-119.5" font-family="Helvetica,sans-Serif" font-size="10.00" fill="#000000">stdbool.h</text>
</g>
<!-- Node9&#45;&gt;Node10 -->
<g id="edge12" class="edge">
<title>Node9&#45;&gt;Node10</title>
<path fill="none" stroke="#191970" d="M45.4737,-224.4509C46.1261,-206.184 47.5628,-165.9553 48.4291,-141.6976"/>
<polygon fill="#191970" stroke="#191970" points="51.9332,-141.6435 48.7925,-131.5249 44.9377,-141.3936 51.9332,-141.6435"/>
</g>
<!-- Node11 -->
<g id="node12" class="node">
<title>Node11</title>
<g id="a_node12"><a xlink:href="ipv4_2addr_8h.html" target="_top" xlink:title="IPv4 address type and helper functions definitions. ">
<polygon fill="#ffffff" stroke="#000000" points="67.6326,-168.5 67.6326,-187.5 156.6326,-187.5 156.6326,-168.5 67.6326,-168.5"/>
<text text-anchor="middle" x="112.1326" y="-175.5" font-family="Helvetica,sans-Serif" font-size="10.00" fill="#000000">net/ipv4/addr.h</text>
</a>
</g>
</g>
<!-- Node9&#45;&gt;Node11 -->
<g id="edge15" class="edge">
<title>Node9&#45;&gt;Node11</title>
<path fill="none" stroke="#191970" d="M56.8031,-224.2455C66.6987,-215.9746 81.0953,-203.9416 92.7227,-194.2232"/>
<polygon fill="#191970" stroke="#191970" points="95.1676,-196.7413 100.5959,-187.6427 90.6784,-191.3703 95.1676,-196.7413"/>
</g>
<!-- Node11&#45;&gt;Node3 -->
<g id="edge19" class="edge">
<title>Node11&#45;&gt;Node3</title>
<path fill="none" stroke="#191970" d="M143.5915,-168.3733C174.1533,-159.021 220.7153,-144.7725 254.1587,-134.5385"/>
<polygon fill="#191970" stroke="#191970" points="255.5462,-137.7742 264.0843,-131.5011 253.4978,-131.0806 255.5462,-137.7742"/>
</g>
<!-- Node11&#45;&gt;Node5 -->
<g id="edge17" class="edge">
<title>Node11&#45;&gt;Node5</title>
<path fill="none" stroke="#191970" d="M124.8446,-168.4846C135.7439,-159.8545 151.3489,-146.3233 162.1326,-132 184.8471,-101.8301 170.6011,-79.5385 200.1326,-56 223.5053,-37.3706 304.9178,-22.511 352.932,-15.1147"/>
<polygon fill="#191970" stroke="#191970" points="353.5589,-18.5599 362.9256,-13.6086 352.5157,-11.638 353.5589,-18.5599"/>
</g>
<!-- Node11&#45;&gt;Node10 -->
<g id="edge16" class="edge">
<title>Node11&#45;&gt;Node10</title>
<path fill="none" stroke="#191970" d="M101.1589,-168.2455C91.9444,-160.0549 78.5794,-148.1749 67.7029,-138.5069"/>
<polygon fill="#191970" stroke="#191970" points="69.78,-135.6704 59.9806,-131.6427 65.1295,-140.9023 69.78,-135.6704"/>
</g>
<!-- Node12 -->
<g id="node13" class="node">
<title>Node12</title>
<polygon fill="#ffffff" stroke="#bfbfbf" points="97.1326,-112.5 97.1326,-131.5 153.1326,-131.5 153.1326,-112.5 97.1326,-112.5"/>
<text text-anchor="middle" x="125.1326" y="-119.5" font-family="Helvetica,sans-Serif" font-size="10.00" fill="#000000">stddef.h</text>
</g>
<!-- Node11&#45;&gt;Node12 -->
<g id="edge18" class="edge">
<title>Node11&#45;&gt;Node12</title>
<path fill="none" stroke="#191970" d="M114.3971,-168.2455C116.112,-160.8579 118.5238,-150.4689 120.627,-141.4087"/>
<polygon fill="#191970" stroke="#191970" points="124.0421,-142.1751 122.8942,-131.6427 117.2234,-140.5922 124.0421,-142.1751"/>
</g>
<!-- Node14&#45;&gt;Node1 -->
<g id="edge25" class="edge">
<title>Node14&#45;&gt;Node1</title>
<path fill="none" stroke="#191970" d="M538.0638,-224.3733C503.0764,-214.7689 449.2781,-200.0007 411.8258,-189.7197"/>
<polygon fill="#191970" stroke="#191970" points="412.2948,-186.219 401.725,-186.9469 410.4417,-192.9693 412.2948,-186.219"/>
</g>
<!-- Node14&#45;&gt;Node3 -->
<g id="edge24" class="edge">
<title>Node14&#45;&gt;Node3</title>
<path fill="none" stroke="#191970" d="M544.1824,-224.3529C518.8029,-215.6382 481.0778,-202.0572 449.1326,-188 431.3029,-180.1542 427.8618,-176.0705 410.1326,-168 383.8785,-156.0488 353.5613,-143.9916 330.6485,-135.2211"/>
<polygon fill="#191970" stroke="#191970" points="331.5911,-131.8352 321,-131.5545 329.1044,-138.3786 331.5911,-131.8352"/>
</g>
<!-- Node14&#45;&gt;Node5 -->
<g id="edge22" class="edge">
<title>Node14&#45;&gt;Node5</title>
<path fill="none" stroke="#191970" d="M584.019,-224.3951C596.9532,-211.7521 615.7613,-188.7012 607.1326,-168 574.3571,-89.3676 477.7574,-42.6153 424.8223,-22.2048"/>
<polygon fill="#191970" stroke="#191970" points="425.7526,-18.8158 415.1603,-18.5852 423.2969,-25.3709 425.7526,-18.8158"/>
</g>
<!-- Node15 -->
<g id="node16" class="node">
<title>Node15</title>
<polygon fill="#ffffff" stroke="#bfbfbf" points="548.1326,-168.5 548.1326,-187.5 598.1326,-187.5 598.1326,-168.5 548.1326,-168.5"/>
<text text-anchor="middle" x="573.1326" y="-175.5" font-family="Helvetica,sans-Serif" font-size="10.00" fill="#000000">stdlib.h</text>
</g>
<!-- Node14&#45;&gt;Node15 -->
<g id="edge23" class="edge">
<title>Node14&#45;&gt;Node15</title>
<path fill="none" stroke="#191970" d="M573.1326,-224.2455C573.1326,-216.9382 573.1326,-206.6944 573.1326,-197.7046"/>
<polygon fill="#191970" stroke="#191970" points="576.6327,-197.6426 573.1326,-187.6427 569.6327,-197.6427 576.6327,-197.6426"/>
</g>
<!-- Node16 -->
<g id="node17" class="node">
<title>Node16</title>
<g id="a_node17"><a xlink:href="eui64_8h.html" target="_top" xlink:title="EUI&#45;64 data type definition. ">
<polygon fill="#ffffff" stroke="#000000" points="458.6326,-168.5 458.6326,-187.5 529.6326,-187.5 529.6326,-168.5 458.6326,-168.5"/>
<text text-anchor="middle" x="494.1326" y="-175.5" font-family="Helvetica,sans-Serif" font-size="10.00" fill="#000000">net/eui64.h</text>
</a>
</g>
</g>
<!-- Node14&#45;&gt;Node16 -->
<g id="edge26" class="edge">
<title>Node14&#45;&gt;Node16</title>
<path fill="none" stroke="#191970" d="M559.3719,-224.2455C547.4774,-215.814 530.0676,-203.4729 516.2241,-193.6598"/>
<polygon fill="#191970" stroke="#191970" points="517.918,-190.5704 507.7357,-187.6427 513.8698,-196.2811 517.918,-190.5704"/>
</g>
<!-- Node17 -->
<g id="node18" class="node">
<title>Node17</title>
<g id="a_node18"><a xlink:href="time__units_8h.html" target="_top" xlink:title="Utility header providing time unit defines. ">
<polygon fill="#ffffff" stroke="#000000" points="654.1326,-168.5 654.1326,-187.5 728.1326,-187.5 728.1326,-168.5 654.1326,-168.5"/>
<text text-anchor="middle" x="691.1326" y="-175.5" font-family="Helvetica,sans-Serif" font-size="10.00" fill="#000000">time_units.h</text>
</a>
</g>
</g>
<!-- Node14&#45;&gt;Node17 -->
<g id="edge29" class="edge">
<title>Node14&#45;&gt;Node17</title>
<path fill="none" stroke="#191970" d="M593.4176,-224.3733C612.2747,-215.4241 640.5786,-201.9917 661.8781,-191.8835"/>
<polygon fill="#191970" stroke="#191970" points="663.5788,-194.9506 671.1124,-187.5011 660.5775,-188.6266 663.5788,-194.9506"/>
</g>
<!-- Node16&#45;&gt;Node3 -->
<g id="edge28" class="edge">
<title>Node16&#45;&gt;Node3</title>
<path fill="none" stroke="#191970" d="M459.9233,-168.3733C426.4029,-158.9404 375.1821,-144.5265 338.7516,-134.2747"/>
<polygon fill="#191970" stroke="#191970" points="339.4698,-130.8409 328.8956,-131.5011 337.5735,-137.5792 339.4698,-130.8409"/>
</g>
<!-- Node16&#45;&gt;Node5 -->
<g id="edge27" class="edge">
<title>Node16&#45;&gt;Node5</title>
<path fill="none" stroke="#191970" d="M495.3308,-168.3919C497.5583,-146.3087 500.0641,-91.1402 475.1326,-56 463.0631,-38.9883 442.6956,-27.6972 424.8109,-20.5603"/>
<polygon fill="#191970" stroke="#191970" points="425.7922,-17.1918 415.1988,-17.0128 423.3684,-23.7588 425.7922,-17.1918"/>
</g>
<!-- Node18&#45;&gt;Node3 -->
<g id="edge32" class="edge">
<title>Node18&#45;&gt;Node3</title>
<path fill="none" stroke="#191970" d="M335.8215,-280.2853C331.8594,-271.0806 326.0273,-256.7987 322.1326,-244 311.338,-208.5262 302.9214,-166.0342 298.5196,-141.7108"/>
<polygon fill="#191970" stroke="#191970" points="301.9236,-140.86 296.7369,-131.6216 295.0304,-142.0781 301.9236,-140.86"/>
</g>
<!-- Node19 -->
<g id="node20" class="node">
<title>Node19</title>
<g id="a_node20"><a xlink:href="inttypes_8h.html" target="_top" xlink:title="Adds include for missing inttype definitions. ">
<polygon fill="#ffffff" stroke="#000000" points="331.6326,-224.5 331.6326,-243.5 394.6326,-243.5 394.6326,-224.5 331.6326,-224.5"/>
<text text-anchor="middle" x="363.1326" y="-231.5" font-family="Helvetica,sans-Serif" font-size="10.00" fill="#000000">inttypes.h</text>
</a>
</g>
</g>
<!-- Node18&#45;&gt;Node19 -->
<g id="edge31" class="edge">
<title>Node18&#45;&gt;Node19</title>
<path fill="none" stroke="#191970" d="M344.1389,-280.2455C347.2061,-272.7776 351.533,-262.2427 355.2824,-253.1137"/>
<polygon fill="#191970" stroke="#191970" points="358.6106,-254.2226 359.1722,-243.6427 352.1354,-251.5631 358.6106,-254.2226"/>
</g>
<!-- Node20&#45;&gt;Node1 -->
<g id="edge34" class="edge">
<title>Node20&#45;&gt;Node1</title>
<path fill="none" stroke="#191970" d="M505.1717,-280.2353C490.1776,-267.0201 462.2608,-242.9197 437.1326,-224 422.7929,-213.2032 406.1052,-201.8969 392.8501,-193.1952"/>
<polygon fill="#191970" stroke="#191970" points="394.5833,-190.1472 384.2929,-187.6254 390.7647,-196.014 394.5833,-190.1472"/>
</g>
</g>
</svg>
