<?xml version="1.0" encoding="UTF-8" standalone="no"?>
<!DOCTYPE svg PUBLIC "-//W3C//DTD SVG 1.1//EN"
 "http://www.w3.org/Graphics/SVG/1.1/DTD/svg11.dtd">
<!-- Generated by graphviz version 2.40.1 (0)
 -->
<!-- Title: sys/include/net/gnrc/netreg.h Pages: 1 -->
<svg width="701pt" height="375pt"
 viewBox="0.00 0.00 701.02 375.00" xmlns="http://www.w3.org/2000/svg" xmlns:xlink="http://www.w3.org/1999/xlink">
<g id="graph0" class="graph" transform="scale(1 1) rotate(0) translate(4 371)">
<title>sys/include/net/gnrc/netreg.h</title>
<polygon fill="#ffffff" stroke="transparent" points="-4,4 -4,-371 697.0157,-371 697.0157,4 -4,4"/>
<!-- Node0 -->
<g id="node1" class="node">
<title>Node0</title>
<polygon fill="#bfbfbf" stroke="#000000" points="295.0157,-336.5 295.0157,-366.5 407.0157,-366.5 407.0157,-336.5 295.0157,-336.5"/>
<text text-anchor="start" x="303.0157" y="-354.5" font-family="Helvetica,sans-Serif" font-size="10.00" fill="#000000">sys/include/net/gnrc</text>
<text text-anchor="middle" x="351.0157" y="-343.5" font-family="Helvetica,sans-Serif" font-size="10.00" fill="#000000">/netreg.h</text>
</g>
<!-- Node1 -->
<g id="node2" class="node">
<title>Node1</title>
<g id="a_node2"><a xlink:href="inttypes_8h.html" target="_top" xlink:title="Adds include for missing inttype definitions. ">
<polygon fill="#ffffff" stroke="#000000" points="377.5157,-168.5 377.5157,-187.5 440.5157,-187.5 440.5157,-168.5 377.5157,-168.5"/>
<text text-anchor="middle" x="409.0157" y="-175.5" font-family="Helvetica,sans-Serif" font-size="10.00" fill="#000000">inttypes.h</text>
</a>
</g>
</g>
<!-- Node0&#45;&gt;Node1 -->
<g id="edge1" class="edge">
<title>Node0&#45;&gt;Node1</title>
<path fill="none" stroke="#191970" d="M356.0613,-336.4065C366.6015,-304.8767 390.9407,-232.0692 402.5838,-197.24"/>
<polygon fill="#191970" stroke="#191970" points="405.9092,-198.3318 405.7603,-187.738 399.2703,-196.1124 405.9092,-198.3318"/>
</g>
<!-- Node2 -->
<g id="node3" class="node">
<title>Node2</title>
<g id="a_node3"><a xlink:href="sched_8h.html" target="_top" xlink:title="Scheduler API definition. ">
<polygon fill="#ffffff" stroke="#000000" points="154.5157,-224.5 154.5157,-243.5 207.5157,-243.5 207.5157,-224.5 154.5157,-224.5"/>
<text text-anchor="middle" x="181.0157" y="-231.5" font-family="Helvetica,sans-Serif" font-size="10.00" fill="#000000">sched.h</text>
</a>
</g>
</g>
<!-- Node0&#45;&gt;Node2 -->
<g id="edge2" class="edge">
<title>Node0&#45;&gt;Node2</title>
<path fill="none" stroke="#191970" d="M318.3396,-336.3766C299.2291,-326.9518 275.0088,-313.9841 255.0157,-300 233.8295,-285.1815 212.0325,-265.0341 197.6332,-250.9107"/>
<polygon fill="#191970" stroke="#191970" points="200.0021,-248.3304 190.4456,-243.7563 195.0638,-253.2916 200.0021,-248.3304"/>
</g>
<!-- Node15 -->
<g id="node16" class="node">
<title>Node15</title>
<g id="a_node16"><a xlink:href="nettype_8h.html" target="_top" xlink:title="Protocol type definitions. ">
<polygon fill="#ffffff" stroke="#000000" points="415.5157,-224.5 415.5157,-243.5 522.5157,-243.5 522.5157,-224.5 415.5157,-224.5"/>
<text text-anchor="middle" x="469.0157" y="-231.5" font-family="Helvetica,sans-Serif" font-size="10.00" fill="#000000">net/gnrc/nettype.h</text>
</a>
</g>
</g>
<!-- Node0&#45;&gt;Node15 -->
<g id="edge21" class="edge">
<title>Node0&#45;&gt;Node15</title>
<path fill="none" stroke="#191970" d="M366.4421,-336.1389C388.5716,-314.1032 429.1794,-273.6675 452.1037,-250.8403"/>
<polygon fill="#191970" stroke="#191970" points="454.799,-253.0957 459.4155,-243.5595 449.8598,-248.1354 454.799,-253.0957"/>
</g>
<!-- Node18 -->
<g id="node19" class="node">
<title>Node18</title>
<g id="a_node19"><a xlink:href="net_2gnrc_2pkt_8h.html" target="_top" xlink:title="General definitions for network packets and their helper functions. ">
<polygon fill="#ffffff" stroke="#000000" points="263.5157,-280.5 263.5157,-299.5 348.5157,-299.5 348.5157,-280.5 263.5157,-280.5"/>
<text text-anchor="middle" x="306.0157" y="-287.5" font-family="Helvetica,sans-Serif" font-size="10.00" fill="#000000">net/gnrc/pkt.h</text>
</a>
</g>
</g>
<!-- Node0&#45;&gt;Node18 -->
<g id="edge26" class="edge">
<title>Node0&#45;&gt;Node18</title>
<path fill="none" stroke="#191970" d="M339.8921,-336.2977C333.6456,-327.7609 325.8117,-317.0545 319.251,-308.0883"/>
<polygon fill="#191970" stroke="#191970" points="321.9505,-305.8505 313.2207,-299.8469 316.3013,-309.984 321.9505,-305.8505"/>
</g>
<!-- Node2&#45;&gt;Node1 -->
<g id="edge4" class="edge">
<title>Node2&#45;&gt;Node1</title>
<path fill="none" stroke="#191970" d="M207.8001,-227.4911C242.4234,-219.0675 304.8479,-203.8474 367.1489,-188.4545"/>
<polygon fill="#191970" stroke="#191970" points="368.2749,-191.7816 377.1425,-185.9836 366.5947,-184.9862 368.2749,-191.7816"/>
</g>
<!-- Node3 -->
<g id="node4" class="node">
<title>Node3</title>
<polygon fill="#ffffff" stroke="#bfbfbf" points="71.0157,-56.5 71.0157,-75.5 127.0157,-75.5 127.0157,-56.5 71.0157,-56.5"/>
<text text-anchor="middle" x="99.0157" y="-63.5" font-family="Helvetica,sans-Serif" font-size="10.00" fill="#000000">stddef.h</text>
</g>
<!-- Node2&#45;&gt;Node3 -->
<g id="edge3" class="edge">
<title>Node2&#45;&gt;Node3</title>
<path fill="none" stroke="#191970" d="M154.4927,-229.4838C110.6622,-220.3137 25.604,-194.7792 2.0157,-132 -9.1358,-102.3209 29.1338,-84.3333 60.8486,-74.7919"/>
<polygon fill="#191970" stroke="#191970" points="62.162,-78.0586 70.8443,-71.9867 60.2706,-71.3189 62.162,-78.0586"/>
</g>
<!-- Node4 -->
<g id="node5" class="node">
<title>Node4</title>
<g id="a_node5"><a xlink:href="kernel__defines_8h.html" target="_top" xlink:title="Common macros and compiler attributes/pragmas configuration. ">
<polygon fill="#ffffff" stroke="#000000" points="264.5157,-168.5 264.5157,-187.5 359.5157,-187.5 359.5157,-168.5 264.5157,-168.5"/>
<text text-anchor="middle" x="312.0157" y="-175.5" font-family="Helvetica,sans-Serif" font-size="10.00" fill="#000000">kernel_defines.h</text>
</a>
</g>
</g>
<!-- Node2&#45;&gt;Node4 -->
<g id="edge5" class="edge">
<title>Node2&#45;&gt;Node4</title>
<path fill="none" stroke="#191970" d="M203.5354,-224.3733C224.7529,-215.3032 256.7433,-201.6279 280.4925,-191.4755"/>
<polygon fill="#191970" stroke="#191970" points="281.9705,-194.6502 289.7898,-187.5011 279.219,-188.2136 281.9705,-194.6502"/>
</g>
<!-- Node11 -->
<g id="node12" class="node">
<title>Node11</title>
<g id="a_node12"><a xlink:href="native__sched_8h.html" target="_top" xlink:title="Add definitions required on the native board. ">
<polygon fill="#ffffff" stroke="#000000" points="122.0157,-168.5 122.0157,-187.5 208.0157,-187.5 208.0157,-168.5 122.0157,-168.5"/>
<text text-anchor="middle" x="165.0157" y="-175.5" font-family="Helvetica,sans-Serif" font-size="10.00" fill="#000000">native_sched.h</text>
</a>
</g>
</g>
<!-- Node2&#45;&gt;Node11 -->
<g id="edge16" class="edge">
<title>Node2&#45;&gt;Node11</title>
<path fill="none" stroke="#191970" d="M178.2287,-224.2455C176.1179,-216.8579 173.1496,-206.4689 170.561,-197.4087"/>
<polygon fill="#191970" stroke="#191970" points="173.8833,-196.2964 167.7707,-187.6427 167.1527,-198.2195 173.8833,-196.2964"/>
</g>
<!-- Node12 -->
<g id="node13" class="node">
<title>Node12</title>
<g id="a_node13"><a xlink:href="clist_8h.html" target="_top" xlink:title="Circular linked list. ">
<polygon fill="#ffffff" stroke="#000000" points="60.5157,-168.5 60.5157,-187.5 103.5157,-187.5 103.5157,-168.5 60.5157,-168.5"/>
<text text-anchor="middle" x="82.0157" y="-175.5" font-family="Helvetica,sans-Serif" font-size="10.00" fill="#000000">clist.h</text>
</a>
</g>
</g>
<!-- Node2&#45;&gt;Node12 -->
<g id="edge17" class="edge">
<title>Node2&#45;&gt;Node12</title>
<path fill="none" stroke="#191970" d="M163.7712,-224.2455C148.4396,-215.5731 125.7958,-202.7645 108.2241,-192.825"/>
<polygon fill="#191970" stroke="#191970" points="109.4898,-189.5198 99.0625,-187.6427 106.0433,-195.6126 109.4898,-189.5198"/>
</g>
<!-- Node5 -->
<g id="node6" class="node">
<title>Node5</title>
<g id="a_node6"><a xlink:href="modules_8h.html" target="_top" xlink:title="Common macros and compiler attributes/pragmas configuration. ">
<polygon fill="#ffffff" stroke="#000000" points="432.5157,-112.5 432.5157,-131.5 497.5157,-131.5 497.5157,-112.5 432.5157,-112.5"/>
<text text-anchor="middle" x="465.0157" y="-119.5" font-family="Helvetica,sans-Serif" font-size="10.00" fill="#000000">modules.h</text>
</a>
</g>
</g>
<!-- Node4&#45;&gt;Node5 -->
<g id="edge6" class="edge">
<title>Node4&#45;&gt;Node5</title>
<path fill="none" stroke="#191970" d="M338.3173,-168.3733C363.4285,-159.1822 401.4595,-145.2624 429.3029,-135.0713"/>
<polygon fill="#191970" stroke="#191970" points="430.8695,-138.2251 439.0572,-131.5011 428.4635,-131.6516 430.8695,-138.2251"/>
</g>
<!-- Node6 -->
<g id="node7" class="node">
<title>Node6</title>
<g id="a_node7"><a xlink:href="riot__version_8h.html" target="_top" xlink:title="Common macros and compiler attributes/pragmas configuration. ">
<polygon fill="#ffffff" stroke="#000000" points="360.5157,-56.5 360.5157,-75.5 441.5157,-75.5 441.5157,-56.5 360.5157,-56.5"/>
<text text-anchor="middle" x="401.0157" y="-63.5" font-family="Helvetica,sans-Serif" font-size="10.00" fill="#000000">riot_version.h</text>
</a>
</g>
</g>
<!-- Node4&#45;&gt;Node6 -->
<g id="edge7" class="edge">
<title>Node4&#45;&gt;Node6</title>
<path fill="none" stroke="#191970" d="M329.2481,-168.4416C342.6836,-160.2542 361.0157,-147.3679 373.0157,-132 383.7749,-118.2211 391.1564,-99.6949 395.628,-85.7782"/>
<polygon fill="#191970" stroke="#191970" points="399.1042,-86.367 398.5991,-75.7842 392.3945,-84.3722 399.1042,-86.367"/>
</g>
<!-- Node8 -->
<g id="node9" class="node">
<title>Node8</title>
<g id="a_node9"><a xlink:href="compiler__hints_8h.html" target="_top" xlink:title="Common macros and compiler attributes/pragmas configuration. ">
<polygon fill="#ffffff" stroke="#000000" points="270.5157,-112.5 270.5157,-131.5 363.5157,-131.5 363.5157,-112.5 270.5157,-112.5"/>
<text text-anchor="middle" x="317.0157" y="-119.5" font-family="Helvetica,sans-Serif" font-size="10.00" fill="#000000">compiler_hints.h</text>
</a>
</g>
</g>
<!-- Node4&#45;&gt;Node8 -->
<g id="edge9" class="edge">
<title>Node4&#45;&gt;Node8</title>
<path fill="none" stroke="#191970" d="M312.8866,-168.2455C313.539,-160.9382 314.4537,-150.6944 315.2563,-141.7046"/>
<polygon fill="#191970" stroke="#191970" points="318.7514,-141.9143 316.1547,-131.6427 311.7792,-141.2918 318.7514,-141.9143"/>
</g>
<!-- Node10 -->
<g id="node11" class="node">
<title>Node10</title>
<g id="a_node11"><a xlink:href="container_8h.html" target="_top" xlink:title="Common macros and compiler attributes/pragmas configuration. ">
<polygon fill="#ffffff" stroke="#000000" points="183.5157,-112.5 183.5157,-131.5 252.5157,-131.5 252.5157,-112.5 183.5157,-112.5"/>
<text text-anchor="middle" x="218.0157" y="-119.5" font-family="Helvetica,sans-Serif" font-size="10.00" fill="#000000">container.h</text>
</a>
</g>
</g>
<!-- Node4&#45;&gt;Node10 -->
<g id="edge13" class="edge">
<title>Node4&#45;&gt;Node10</title>
<path fill="none" stroke="#191970" d="M295.6421,-168.2455C281.0848,-159.5731 259.5847,-146.7645 242.9004,-136.825"/>
<polygon fill="#191970" stroke="#191970" points="244.5839,-133.7539 234.2016,-131.6427 241.0013,-139.7676 244.5839,-133.7539"/>
</g>
<!-- Node7 -->
<g id="node8" class="node">
<title>Node7</title>
<polygon fill="#ffffff" stroke="#bfbfbf" points="261.0157,-.5 261.0157,-19.5 313.0157,-19.5 313.0157,-.5 261.0157,-.5"/>
<text text-anchor="middle" x="287.0157" y="-7.5" font-family="Helvetica,sans-Serif" font-size="10.00" fill="#000000">stdint.h</text>
</g>
<!-- Node6&#45;&gt;Node7 -->
<g id="edge8" class="edge">
<title>Node6&#45;&gt;Node7</title>
<path fill="none" stroke="#191970" d="M381.4184,-56.3733C363.2825,-47.4644 336.1022,-34.1127 315.557,-24.0203"/>
<polygon fill="#191970" stroke="#191970" points="316.876,-20.7688 306.3572,-19.5011 313.7896,-27.0517 316.876,-20.7688"/>
</g>
<!-- Node8&#45;&gt;Node7 -->
<g id="edge12" class="edge">
<title>Node8&#45;&gt;Node7</title>
<path fill="none" stroke="#191970" d="M305.5704,-112.3916C296.4163,-103.901 284.2738,-90.6212 279.0157,-76 273.5913,-60.9165 276.4064,-42.7752 280.1178,-29.3325"/>
<polygon fill="#191970" stroke="#191970" points="283.4835,-30.2968 283.1462,-19.7073 276.8062,-28.1959 283.4835,-30.2968"/>
</g>
<!-- Node9 -->
<g id="node10" class="node">
<title>Node9</title>
<g id="a_node10"><a xlink:href="assert_8h.html" target="_top" xlink:title="POSIX.1&#45;2008 compliant version of the assert macro. ">
<polygon fill="#ffffff" stroke="#000000" points="288.0157,-56.5 288.0157,-75.5 342.0157,-75.5 342.0157,-56.5 288.0157,-56.5"/>
<text text-anchor="middle" x="315.0157" y="-63.5" font-family="Helvetica,sans-Serif" font-size="10.00" fill="#000000">assert.h</text>
</a>
</g>
</g>
<!-- Node8&#45;&gt;Node9 -->
<g id="edge10" class="edge">
<title>Node8&#45;&gt;Node9</title>
<path fill="none" stroke="#191970" d="M316.6673,-112.2455C316.4063,-104.9382 316.0405,-94.6944 315.7194,-85.7046"/>
<polygon fill="#191970" stroke="#191970" points="319.2148,-85.5113 315.36,-75.6427 312.2193,-85.7613 319.2148,-85.5113"/>
</g>
<!-- Node9&#45;&gt;Node7 -->
<g id="edge11" class="edge">
<title>Node9&#45;&gt;Node7</title>
<path fill="none" stroke="#191970" d="M310.1384,-56.2455C306.3643,-48.6973 301.0235,-38.0158 296.4255,-28.8197"/>
<polygon fill="#191970" stroke="#191970" points="299.4397,-27.0217 291.837,-19.6427 293.1787,-30.1522 299.4397,-27.0217"/>
</g>
<!-- Node10&#45;&gt;Node3 -->
<g id="edge14" class="edge">
<title>Node10&#45;&gt;Node3</title>
<path fill="none" stroke="#191970" d="M197.5588,-112.3733C178.5419,-103.4241 149.9981,-89.9917 128.5181,-79.8835"/>
<polygon fill="#191970" stroke="#191970" points="129.7441,-76.5923 119.2055,-75.5011 126.7634,-82.926 129.7441,-76.5923"/>
</g>
<!-- Node10&#45;&gt;Node7 -->
<g id="edge15" class="edge">
<title>Node10&#45;&gt;Node7</title>
<path fill="none" stroke="#191970" d="M223.8986,-112.4509C235.4069,-93.7707 261.0644,-52.1238 275.8795,-28.0761"/>
<polygon fill="#191970" stroke="#191970" points="278.8823,-29.8747 281.1477,-19.5249 272.9225,-26.203 278.8823,-29.8747"/>
</g>
<!-- Node12&#45;&gt;Node3 -->
<g id="edge19" class="edge">
<title>Node12&#45;&gt;Node3</title>
<path fill="none" stroke="#191970" d="M83.4651,-168.4509C86.2377,-150.184 92.3439,-109.9553 96.0258,-85.6976"/>
<polygon fill="#191970" stroke="#191970" points="99.5295,-85.9369 97.5699,-75.5249 92.6088,-84.8864 99.5295,-85.9369"/>
</g>
<!-- Node13 -->
<g id="node14" class="node">
<title>Node13</title>
<polygon fill="#ffffff" stroke="#bfbfbf" points="11.0157,-112.5 11.0157,-131.5 71.0157,-131.5 71.0157,-112.5 11.0157,-112.5"/>
<text text-anchor="middle" x="41.0157" y="-119.5" font-family="Helvetica,sans-Serif" font-size="10.00" fill="#000000">stdbool.h</text>
</g>
<!-- Node12&#45;&gt;Node13 -->
<g id="edge18" class="edge">
<title>Node12&#45;&gt;Node13</title>
<path fill="none" stroke="#191970" d="M74.874,-168.2455C69.1713,-160.4564 61.0257,-149.3308 54.1532,-139.9439"/>
<polygon fill="#191970" stroke="#191970" points="56.8069,-137.6437 48.0755,-131.6427 51.1589,-141.7789 56.8069,-137.6437"/>
</g>
<!-- Node14 -->
<g id="node15" class="node">
<title>Node14</title>
<g id="a_node15"><a xlink:href="list_8h.html" target="_top" xlink:title="Intrusive linked list. ">
<polygon fill="#ffffff" stroke="#000000" points="127.0157,-112.5 127.0157,-131.5 165.0157,-131.5 165.0157,-112.5 127.0157,-112.5"/>
<text text-anchor="middle" x="146.0157" y="-119.5" font-family="Helvetica,sans-Serif" font-size="10.00" fill="#000000">list.h</text>
</a>
</g>
</g>
<!-- Node12&#45;&gt;Node14 -->
<g id="edge20" class="edge">
<title>Node12&#45;&gt;Node14</title>
<path fill="none" stroke="#191970" d="M93.1636,-168.2455C102.5243,-160.0549 116.1015,-148.1749 127.1506,-138.5069"/>
<polygon fill="#191970" stroke="#191970" points="129.7745,-140.8618 134.9955,-131.6427 125.1649,-135.5937 129.7745,-140.8618"/>
</g>
<!-- Node15&#45;&gt;Node1 -->
<g id="edge22" class="edge">
<title>Node15&#45;&gt;Node1</title>
<path fill="none" stroke="#191970" d="M458.5645,-224.2455C449.7888,-216.0549 437.0602,-204.1749 426.7017,-194.5069"/>
<polygon fill="#191970" stroke="#191970" points="429.0458,-191.9072 419.3471,-187.6427 424.2696,-197.0246 429.0458,-191.9072"/>
</g>
<!-- Node15&#45;&gt;Node5 -->
<g id="edge23" class="edge">
<title>Node15&#45;&gt;Node5</title>
<path fill="none" stroke="#191970" d="M468.6746,-224.4509C468.0222,-206.184 466.5855,-165.9553 465.7192,-141.6976"/>
<polygon fill="#191970" stroke="#191970" points="469.2106,-141.3936 465.3558,-131.5249 462.2151,-141.6435 469.2106,-141.3936"/>
</g>
<!-- Node16 -->
<g id="node17" class="node">
<title>Node16</title>
<g id="a_node17"><a xlink:href="ethertype_8h.html" target="_top" xlink:title="Ether type definitions. ">
<polygon fill="#ffffff" stroke="#000000" points="497.0157,-168.5 497.0157,-187.5 589.0157,-187.5 589.0157,-168.5 497.0157,-168.5"/>
<text text-anchor="middle" x="543.0157" y="-175.5" font-family="Helvetica,sans-Serif" font-size="10.00" fill="#000000">net/ethertype.h</text>
</a>
</g>
</g>
<!-- Node15&#45;&gt;Node16 -->
<g id="edge24" class="edge">
<title>Node15&#45;&gt;Node16</title>
<path fill="none" stroke="#191970" d="M481.9055,-224.2455C492.941,-215.8943 509.0449,-203.7076 521.951,-193.9408"/>
<polygon fill="#191970" stroke="#191970" points="524.4115,-196.4681 530.2736,-187.6427 520.1874,-190.8862 524.4115,-196.4681"/>
</g>
<!-- Node17 -->
<g id="node18" class="node">
<title>Node17</title>
<g id="a_node18"><a xlink:href="protnum_8h.html" target="_top" xlink:title="Protocol number definitions. ">
<polygon fill="#ffffff" stroke="#000000" points="607.0157,-168.5 607.0157,-187.5 693.0157,-187.5 693.0157,-168.5 607.0157,-168.5"/>
<text text-anchor="middle" x="650.0157" y="-175.5" font-family="Helvetica,sans-Serif" font-size="10.00" fill="#000000">net/protnum.h</text>
</a>
</g>
</g>
<!-- Node15&#45;&gt;Node17 -->
<g id="edge25" class="edge">
<title>Node15&#45;&gt;Node17</title>
<path fill="none" stroke="#191970" d="M500.1307,-224.3733C530.3585,-215.021 576.4116,-200.7725 609.4896,-190.5385"/>
<polygon fill="#191970" stroke="#191970" points="610.788,-193.8005 619.3067,-187.5011 608.7189,-187.1133 610.788,-193.8005"/>
</g>
<!-- Node18&#45;&gt;Node1 -->
<g id="edge27" class="edge">
<title>Node18&#45;&gt;Node1</title>
<path fill="none" stroke="#191970" d="M314.7974,-280.4509C332.2046,-261.5227 371.2974,-219.014 393.2641,-195.1279"/>
<polygon fill="#191970" stroke="#191970" points="396.0632,-197.2547 400.2562,-187.5249 390.9108,-192.5163 396.0632,-197.2547"/>
</g>
<!-- Node18&#45;&gt;Node2 -->
<g id="edge29" class="edge">
<title>Node18&#45;&gt;Node2</title>
<path fill="none" stroke="#191970" d="M284.5274,-280.3733C264.3717,-271.3435 234.0276,-257.7494 211.3976,-247.6111"/>
<polygon fill="#191970" stroke="#191970" points="212.7806,-244.3955 202.2235,-243.5011 209.9186,-250.7838 212.7806,-244.3955"/>
</g>
<!-- Node18&#45;&gt;Node14 -->
<g id="edge31" class="edge">
<title>Node18&#45;&gt;Node14</title>
<path fill="none" stroke="#191970" d="M295.5247,-280.3695C286.1338,-271.452 272.3002,-257.56 262.0157,-244 238.294,-212.7235 244.2082,-196.3109 217.0157,-168 204.6636,-155.1399 188.0589,-144.1317 174.0132,-136.1113"/>
<polygon fill="#191970" stroke="#191970" points="175.673,-133.0297 165.2232,-131.2827 172.3027,-139.165 175.673,-133.0297"/>
</g>
<!-- Node18&#45;&gt;Node15 -->
<g id="edge30" class="edge">
<title>Node18&#45;&gt;Node15</title>
<path fill="none" stroke="#191970" d="M334.0364,-280.3733C361.0235,-271.1016 402.0174,-257.0178 431.7468,-246.804"/>
<polygon fill="#191970" stroke="#191970" points="433.0404,-250.0605 441.3606,-243.5011 430.7659,-243.4403 433.0404,-250.0605"/>
</g>
<!-- Node19 -->
<g id="node20" class="node">
<title>Node19</title>
<polygon fill="#ffffff" stroke="#bfbfbf" points="271.0157,-224.5 271.0157,-243.5 321.0157,-243.5 321.0157,-224.5 271.0157,-224.5"/>
<text text-anchor="middle" x="296.0157" y="-231.5" font-family="Helvetica,sans-Serif" font-size="10.00" fill="#000000">stdlib.h</text>
</g>
<!-- Node18&#45;&gt;Node19 -->
<g id="edge28" class="edge">
<title>Node18&#45;&gt;Node19</title>
<path fill="none" stroke="#191970" d="M304.2738,-280.2455C302.9689,-272.9382 301.1397,-262.6944 299.5343,-253.7046"/>
<polygon fill="#191970" stroke="#191970" points="302.9411,-252.8717 297.7376,-243.6427 296.0501,-254.1022 302.9411,-252.8717"/>
</g>
</g>
</svg>
