<?xml version="1.0" encoding="UTF-8" standalone="no"?>
<!DOCTYPE svg PUBLIC "-//W3C//DTD SVG 1.1//EN"
 "http://www.w3.org/Graphics/SVG/1.1/DTD/svg11.dtd">
<!-- Generated by graphviz version 2.40.1 (0)
 -->
<!-- Title: pkg/nimble/rpble/include/nimble_rpble.h Pages: 1 -->
<svg width="410pt" height="375pt"
 viewBox="0.00 0.00 410.32 375.00" xmlns="http://www.w3.org/2000/svg" xmlns:xlink="http://www.w3.org/1999/xlink">
<g id="graph0" class="graph" transform="scale(1 1) rotate(0) translate(4 371)">
<title>pkg/nimble/rpble/include/nimble_rpble.h</title>
<polygon fill="#ffffff" stroke="transparent" points="-4,4 -4,-371 406.3248,-371 406.3248,4 -4,4"/>
<!-- Node0 -->
<g id="node1" class="node">
<title>Node0</title>
<polygon fill="#bfbfbf" stroke="#000000" points="62.3248,-336.5 62.3248,-366.5 196.3248,-366.5 196.3248,-336.5 62.3248,-336.5"/>
<text text-anchor="start" x="70.3248" y="-354.5" font-family="Helvetica,sans-Serif" font-size="10.00" fill="#000000">pkg/nimble/rpble/include</text>
<text text-anchor="middle" x="129.3248" y="-343.5" font-family="Helvetica,sans-Serif" font-size="10.00" fill="#000000">/nimble_rpble.h</text>
</g>
<!-- Node1 -->
<g id="node2" class="node">
<title>Node1</title>
<g id="a_node2"><a xlink:href="nimble__netif_8h.html" target="_top" xlink:title="GNRC netif implementation for NimBLE. ">
<polygon fill="#ffffff" stroke="#000000" points="87.8248,-280.5 87.8248,-299.5 170.8248,-299.5 170.8248,-280.5 87.8248,-280.5"/>
<text text-anchor="middle" x="129.3248" y="-287.5" font-family="Helvetica,sans-Serif" font-size="10.00" fill="#000000">nimble_netif.h</text>
</a>
</g>
</g>
<!-- Node0&#45;&gt;Node1 -->
<g id="edge1" class="edge">
<title>Node0&#45;&gt;Node1</title>
<path fill="none" stroke="#191970" d="M129.3248,-336.2977C129.3248,-328.3834 129.3248,-318.6043 129.3248,-310.0759"/>
<polygon fill="#191970" stroke="#191970" points="132.8249,-309.8469 129.3248,-299.8469 125.8249,-309.847 132.8249,-309.8469"/>
</g>
<!-- Node2 -->
<g id="node3" class="node">
<title>Node2</title>
<polygon fill="#ffffff" stroke="#bfbfbf" points="147.3248,-.5 147.3248,-19.5 199.3248,-19.5 199.3248,-.5 147.3248,-.5"/>
<text text-anchor="middle" x="173.3248" y="-7.5" font-family="Helvetica,sans-Serif" font-size="10.00" fill="#000000">stdint.h</text>
</g>
<!-- Node1&#45;&gt;Node2 -->
<g id="edge2" class="edge">
<title>Node1&#45;&gt;Node2</title>
<path fill="none" stroke="#191970" d="M87.8102,-281.9175C64.6597,-275.3777 37.0136,-263.8652 19.3248,-244 -.9744,-221.2032 .3248,-208.5246 .3248,-178 .3248,-178 .3248,-178 .3248,-122 .3248,-57.3964 86.3869,-28.208 137.1094,-16.6154"/>
<polygon fill="#191970" stroke="#191970" points="138.0164,-20.0002 147.0498,-14.4641 136.5357,-13.1586 138.0164,-20.0002"/>
</g>
<!-- Node3 -->
<g id="node4" class="node">
<title>Node3</title>
<g id="a_node4"><a xlink:href="errno_8h.html" target="_top" xlink:title="errno.h">
<polygon fill="#ffffff" stroke="#000000" points="28.8248,-224.5 28.8248,-243.5 81.8248,-243.5 81.8248,-224.5 28.8248,-224.5"/>
<text text-anchor="middle" x="55.3248" y="-231.5" font-family="Helvetica,sans-Serif" font-size="10.00" fill="#000000">errno.h</text>
</a>
</g>
</g>
<!-- Node1&#45;&gt;Node3 -->
<g id="edge3" class="edge">
<title>Node1&#45;&gt;Node3</title>
<path fill="none" stroke="#191970" d="M116.435,-280.2455C105.3994,-271.8943 89.2956,-259.7076 76.3895,-249.9408"/>
<polygon fill="#191970" stroke="#191970" points="78.153,-246.8862 68.0669,-243.6427 73.9289,-252.4681 78.153,-246.8862"/>
</g>
<!-- Node4 -->
<g id="node5" class="node">
<title>Node4</title>
<g id="a_node5"><a xlink:href="sys_2include_2net_2ble_8h.html" target="_top" xlink:title="General BLE values as defined by the BT standard. ">
<polygon fill="#ffffff" stroke="#000000" points="99.8248,-224.5 99.8248,-243.5 158.8248,-243.5 158.8248,-224.5 99.8248,-224.5"/>
<text text-anchor="middle" x="129.3248" y="-231.5" font-family="Helvetica,sans-Serif" font-size="10.00" fill="#000000">net/ble.h</text>
</a>
</g>
</g>
<!-- Node1&#45;&gt;Node4 -->
<g id="edge4" class="edge">
<title>Node1&#45;&gt;Node4</title>
<path fill="none" stroke="#191970" d="M129.3248,-280.2455C129.3248,-272.9382 129.3248,-262.6944 129.3248,-253.7046"/>
<polygon fill="#191970" stroke="#191970" points="132.8249,-253.6426 129.3248,-243.6427 125.8249,-253.6427 132.8249,-253.6426"/>
</g>
<!-- Node5 -->
<g id="node6" class="node">
<title>Node5</title>
<g id="a_node6"><a xlink:href="nimble__riot_8h.html" target="_top" xlink:title="RIOT specific glue functions for integrating NimBLE. ">
<polygon fill="#ffffff" stroke="#000000" points="177.3248,-224.5 177.3248,-243.5 255.3248,-243.5 255.3248,-224.5 177.3248,-224.5"/>
<text text-anchor="middle" x="216.3248" y="-231.5" font-family="Helvetica,sans-Serif" font-size="10.00" fill="#000000">nimble_riot.h</text>
</a>
</g>
</g>
<!-- Node1&#45;&gt;Node5 -->
<g id="edge5" class="edge">
<title>Node1&#45;&gt;Node5</title>
<path fill="none" stroke="#191970" d="M144.479,-280.2455C157.8275,-271.6534 177.4834,-259.0014 192.8631,-249.1018"/>
<polygon fill="#191970" stroke="#191970" points="194.8299,-251.9982 201.3442,-243.6427 191.0412,-246.1121 194.8299,-251.9982"/>
</g>
<!-- Node13 -->
<g id="node14" class="node">
<title>Node13</title>
<polygon fill="#ffffff" stroke="#bfbfbf" points="273.8248,-224.5 273.8248,-243.5 352.8248,-243.5 352.8248,-224.5 273.8248,-224.5"/>
<text text-anchor="middle" x="313.3248" y="-231.5" font-family="Helvetica,sans-Serif" font-size="10.00" fill="#000000">host/ble_hs.h</text>
</g>
<!-- Node1&#45;&gt;Node13 -->
<g id="edge18" class="edge">
<title>Node1&#45;&gt;Node13</title>
<path fill="none" stroke="#191970" d="M160.9555,-280.3733C191.6844,-271.021 238.5008,-256.7725 272.127,-246.5385"/>
<polygon fill="#191970" stroke="#191970" points="273.5592,-249.7612 282.1068,-243.5011 271.521,-243.0644 273.5592,-249.7612"/>
</g>
<!-- Node5&#45;&gt;Node2 -->
<g id="edge6" class="edge">
<title>Node5&#45;&gt;Node2</title>
<path fill="none" stroke="#191970" d="M194.0488,-224.4486C163.0007,-209.7538 107.981,-178.3548 85.3248,-132 78.3404,-117.7099 75.6853,-77.254 89.3248,-56 100.3113,-38.8801 119.9818,-27.6175 137.5268,-20.5238"/>
<polygon fill="#191970" stroke="#191970" points="138.8369,-23.7708 146.9868,-17.001 136.394,-17.2109 138.8369,-23.7708"/>
</g>
<!-- Node6 -->
<g id="node7" class="node">
<title>Node6</title>
<g id="a_node7"><a xlink:href="kernel__defines_8h.html" target="_top" xlink:title="Common macros and compiler attributes/pragmas configuration. ">
<polygon fill="#ffffff" stroke="#000000" points="168.8248,-168.5 168.8248,-187.5 263.8248,-187.5 263.8248,-168.5 168.8248,-168.5"/>
<text text-anchor="middle" x="216.3248" y="-175.5" font-family="Helvetica,sans-Serif" font-size="10.00" fill="#000000">kernel_defines.h</text>
</a>
</g>
</g>
<!-- Node5&#45;&gt;Node6 -->
<g id="edge7" class="edge">
<title>Node5&#45;&gt;Node6</title>
<path fill="none" stroke="#191970" d="M216.3248,-224.2455C216.3248,-216.9382 216.3248,-206.6944 216.3248,-197.7046"/>
<polygon fill="#191970" stroke="#191970" points="219.8249,-197.6426 216.3248,-187.6427 212.8249,-197.6427 219.8249,-197.6426"/>
</g>
<!-- Node7 -->
<g id="node8" class="node">
<title>Node7</title>
<g id="a_node8"><a xlink:href="modules_8h.html" target="_top" xlink:title="Common macros and compiler attributes/pragmas configuration. ">
<polygon fill="#ffffff" stroke="#000000" points="94.8248,-112.5 94.8248,-131.5 159.8248,-131.5 159.8248,-112.5 94.8248,-112.5"/>
<text text-anchor="middle" x="127.3248" y="-119.5" font-family="Helvetica,sans-Serif" font-size="10.00" fill="#000000">modules.h</text>
</a>
</g>
</g>
<!-- Node6&#45;&gt;Node7 -->
<g id="edge8" class="edge">
<title>Node6&#45;&gt;Node7</title>
<path fill="none" stroke="#191970" d="M200.8222,-168.2455C187.1668,-159.6534 167.0591,-147.0014 151.3259,-137.1018"/>
<polygon fill="#191970" stroke="#191970" points="152.9777,-134.006 142.6498,-131.6427 149.2497,-139.9307 152.9777,-134.006"/>
</g>
<!-- Node8 -->
<g id="node9" class="node">
<title>Node8</title>
<g id="a_node9"><a xlink:href="riot__version_8h.html" target="_top" xlink:title="Common macros and compiler attributes/pragmas configuration. ">
<polygon fill="#ffffff" stroke="#000000" points="98.8248,-56.5 98.8248,-75.5 179.8248,-75.5 179.8248,-56.5 98.8248,-56.5"/>
<text text-anchor="middle" x="139.3248" y="-63.5" font-family="Helvetica,sans-Serif" font-size="10.00" fill="#000000">riot_version.h</text>
</a>
</g>
</g>
<!-- Node6&#45;&gt;Node8 -->
<g id="edge9" class="edge">
<title>Node6&#45;&gt;Node8</title>
<path fill="none" stroke="#191970" d="M209.7598,-168.4509C196.9171,-149.7707 168.2849,-108.1238 151.7521,-84.0761"/>
<polygon fill="#191970" stroke="#191970" points="154.4226,-81.7825 145.8732,-75.5249 148.6543,-85.7482 154.4226,-81.7825"/>
</g>
<!-- Node9 -->
<g id="node10" class="node">
<title>Node9</title>
<g id="a_node10"><a xlink:href="compiler__hints_8h.html" target="_top" xlink:title="Common macros and compiler attributes/pragmas configuration. ">
<polygon fill="#ffffff" stroke="#000000" points="216.8248,-112.5 216.8248,-131.5 309.8248,-131.5 309.8248,-112.5 216.8248,-112.5"/>
<text text-anchor="middle" x="263.3248" y="-119.5" font-family="Helvetica,sans-Serif" font-size="10.00" fill="#000000">compiler_hints.h</text>
</a>
</g>
</g>
<!-- Node6&#45;&gt;Node9 -->
<g id="edge11" class="edge">
<title>Node6&#45;&gt;Node9</title>
<path fill="none" stroke="#191970" d="M224.5116,-168.2455C231.1837,-160.2958 240.7727,-148.8706 248.7501,-139.3656"/>
<polygon fill="#191970" stroke="#191970" points="251.484,-141.5525 255.2318,-131.6427 246.1222,-137.0524 251.484,-141.5525"/>
</g>
<!-- Node11 -->
<g id="node12" class="node">
<title>Node11</title>
<g id="a_node12"><a xlink:href="container_8h.html" target="_top" xlink:title="Common macros and compiler attributes/pragmas configuration. ">
<polygon fill="#ffffff" stroke="#000000" points="327.8248,-112.5 327.8248,-131.5 396.8248,-131.5 396.8248,-112.5 327.8248,-112.5"/>
<text text-anchor="middle" x="362.3248" y="-119.5" font-family="Helvetica,sans-Serif" font-size="10.00" fill="#000000">container.h</text>
</a>
</g>
</g>
<!-- Node6&#45;&gt;Node11 -->
<g id="edge15" class="edge">
<title>Node6&#45;&gt;Node11</title>
<path fill="none" stroke="#191970" d="M241.4231,-168.3733C265.2803,-159.2226 301.3583,-145.3844 327.8958,-135.2057"/>
<polygon fill="#191970" stroke="#191970" points="329.4707,-138.3503 337.554,-131.5011 326.9638,-131.8145 329.4707,-138.3503"/>
</g>
<!-- Node8&#45;&gt;Node2 -->
<g id="edge10" class="edge">
<title>Node8&#45;&gt;Node2</title>
<path fill="none" stroke="#191970" d="M145.2471,-56.2455C149.9275,-48.5367 156.5921,-37.5598 162.2537,-28.2348"/>
<polygon fill="#191970" stroke="#191970" points="165.2722,-30.007 167.4703,-19.6427 159.2887,-26.3741 165.2722,-30.007"/>
</g>
<!-- Node9&#45;&gt;Node2 -->
<g id="edge14" class="edge">
<title>Node9&#45;&gt;Node2</title>
<path fill="none" stroke="#191970" d="M255.6514,-112.4509C240.5077,-93.6054 206.5805,-51.3849 187.3406,-27.4419"/>
<polygon fill="#191970" stroke="#191970" points="189.971,-25.1276 180.9787,-19.5249 184.5144,-29.5124 189.971,-25.1276"/>
</g>
<!-- Node10 -->
<g id="node11" class="node">
<title>Node10</title>
<g id="a_node11"><a xlink:href="assert_8h.html" target="_top" xlink:title="POSIX.1&#45;2008 compliant version of the assert macro. ">
<polygon fill="#ffffff" stroke="#000000" points="236.3248,-56.5 236.3248,-75.5 290.3248,-75.5 290.3248,-56.5 236.3248,-56.5"/>
<text text-anchor="middle" x="263.3248" y="-63.5" font-family="Helvetica,sans-Serif" font-size="10.00" fill="#000000">assert.h</text>
</a>
</g>
</g>
<!-- Node9&#45;&gt;Node10 -->
<g id="edge12" class="edge">
<title>Node9&#45;&gt;Node10</title>
<path fill="none" stroke="#191970" d="M263.3248,-112.2455C263.3248,-104.9382 263.3248,-94.6944 263.3248,-85.7046"/>
<polygon fill="#191970" stroke="#191970" points="266.8249,-85.6426 263.3248,-75.6427 259.8249,-85.6427 266.8249,-85.6426"/>
</g>
<!-- Node10&#45;&gt;Node2 -->
<g id="edge13" class="edge">
<title>Node10&#45;&gt;Node2</title>
<path fill="none" stroke="#191970" d="M247.648,-56.2455C233.8392,-47.6534 213.5055,-35.0014 197.5956,-25.1018"/>
<polygon fill="#191970" stroke="#191970" points="199.1616,-21.954 188.822,-19.6427 195.4635,-27.8974 199.1616,-21.954"/>
</g>
<!-- Node11&#45;&gt;Node2 -->
<g id="edge17" class="edge">
<title>Node11&#45;&gt;Node2</title>
<path fill="none" stroke="#191970" d="M355.2729,-112.1305C344.638,-97.898 323.185,-71.6102 299.3248,-56 271.6271,-37.8792 235.8453,-25.7002 209.4939,-18.4511"/>
<polygon fill="#191970" stroke="#191970" points="210.1018,-14.9917 199.5395,-15.8225 208.3145,-21.7597 210.1018,-14.9917"/>
</g>
<!-- Node12 -->
<g id="node13" class="node">
<title>Node12</title>
<polygon fill="#ffffff" stroke="#bfbfbf" points="346.3248,-56.5 346.3248,-75.5 402.3248,-75.5 402.3248,-56.5 346.3248,-56.5"/>
<text text-anchor="middle" x="374.3248" y="-63.5" font-family="Helvetica,sans-Serif" font-size="10.00" fill="#000000">stddef.h</text>
</g>
<!-- Node11&#45;&gt;Node12 -->
<g id="edge16" class="edge">
<title>Node11&#45;&gt;Node12</title>
<path fill="none" stroke="#191970" d="M364.415,-112.2455C365.9809,-104.9382 368.176,-94.6944 370.1024,-85.7046"/>
<polygon fill="#191970" stroke="#191970" points="373.5855,-86.1541 372.2585,-75.6427 366.7408,-84.6873 373.5855,-86.1541"/>
</g>
</g>
</svg>
