<?xml version="1.0" encoding="UTF-8" standalone="no"?>
<!DOCTYPE svg PUBLIC "-//W3C//DTD SVG 1.1//EN"
 "http://www.w3.org/Graphics/SVG/1.1/DTD/svg11.dtd">
<!-- Generated by graphviz version 2.40.1 (0)
 -->
<!-- Title: pkg/nimble/contrib/include/nimble_riot.h Pages: 1 -->
<svg width="616pt" height="251pt"
 viewBox="0.00 0.00 616.00 251.00" xmlns="http://www.w3.org/2000/svg" xmlns:xlink="http://www.w3.org/1999/xlink">
<g id="graph0" class="graph" transform="scale(1 1) rotate(0) translate(4 247)">
<title>pkg/nimble/contrib/include/nimble_riot.h</title>
<polygon fill="#ffffff" stroke="transparent" points="-4,4 -4,-247 612,-247 612,4 -4,4"/>
<!-- Node9 -->
<g id="node1" class="node">
<title>Node9</title>
<polygon fill="#bfbfbf" stroke="#000000" points="170.5,-212.5 170.5,-242.5 289.5,-242.5 289.5,-212.5 170.5,-212.5"/>
<text text-anchor="start" x="178.5" y="-230.5" font-family="Helvetica,sans-Serif" font-size="10.00" fill="#000000">pkg/nimble/contrib</text>
<text text-anchor="middle" x="230" y="-219.5" font-family="Helvetica,sans-Serif" font-size="10.00" fill="#000000">/include/nimble_riot.h</text>
</g>
<!-- Node10 -->
<g id="node2" class="node">
<title>Node10</title>
<g id="a_node2"><a xlink:href="nimble__autoadv__params_8h.html" target="_top" xlink:title="Default configuration for the nimble_autoadv module. ">
<polygon fill="#ffffff" stroke="#000000" points="90.5,-134.5 90.5,-175.5 221.5,-175.5 221.5,-134.5 90.5,-134.5"/>
<text text-anchor="start" x="98.5" y="-163.5" font-family="Helvetica,sans-Serif" font-size="10.00" fill="#000000">pkg/nimble/autoadv</text>
<text text-anchor="start" x="98.5" y="-152.5" font-family="Helvetica,sans-Serif" font-size="10.00" fill="#000000">/include/nimble_autoadv</text>
<text text-anchor="middle" x="156" y="-141.5" font-family="Helvetica,sans-Serif" font-size="10.00" fill="#000000">_params.h</text>
</a>
</g>
</g>
<!-- Node9&#45;&gt;Node10 -->
<g id="edge1" class="edge">
<title>Node9&#45;&gt;Node10</title>
<path fill="none" stroke="#191970" d="M207.2991,-205.2593C197.6211,-195.7774 186.4005,-184.7843 176.9257,-175.5015"/>
<polygon fill="#191970" stroke="#191970" points="205.0746,-207.9797 214.6672,-212.478 209.9734,-202.9795 205.0746,-207.9797"/>
</g>
<!-- Node11 -->
<g id="node3" class="node">
<title>Node11</title>
<g id="a_node3"><a xlink:href="nimble__netif_8h.html" target="_top" xlink:title="GNRC netif implementation for NimBLE. ">
<polygon fill="#ffffff" stroke="#000000" points="239.5,-140 239.5,-170 370.5,-170 370.5,-140 239.5,-140"/>
<text text-anchor="start" x="247.5" y="-158" font-family="Helvetica,sans-Serif" font-size="10.00" fill="#000000">pkg/nimble/netif/include</text>
<text text-anchor="middle" x="305" y="-147" font-family="Helvetica,sans-Serif" font-size="10.00" fill="#000000">/nimble_netif.h</text>
</a>
</g>
</g>
<!-- Node9&#45;&gt;Node11 -->
<g id="edge2" class="edge">
<title>Node9&#45;&gt;Node11</title>
<path fill="none" stroke="#191970" d="M252.9332,-205.3313C264.7808,-193.8785 278.9254,-180.2054 289.4799,-170.0028"/>
<polygon fill="#191970" stroke="#191970" points="250.2974,-203.0112 245.54,-212.478 255.1625,-208.0442 250.2974,-203.0112"/>
</g>
<!-- Node12 -->
<g id="node4" class="node">
<title>Node12</title>
<g id="a_node4"><a xlink:href="nimble__autoconn_8h.html" target="_top" xlink:title="Simple automated connection manager for NimBLE netif. ">
<polygon fill="#ffffff" stroke="#000000" points="0,-67.5 0,-97.5 146,-97.5 146,-67.5 0,-67.5"/>
<text text-anchor="start" x="8" y="-85.5" font-family="Helvetica,sans-Serif" font-size="10.00" fill="#000000">pkg/nimble/autoconn</text>
<text text-anchor="middle" x="73" y="-74.5" font-family="Helvetica,sans-Serif" font-size="10.00" fill="#000000">/include/nimble_autoconn.h</text>
</a>
</g>
</g>
<!-- Node11&#45;&gt;Node12 -->
<g id="edge3" class="edge">
<title>Node11&#45;&gt;Node12</title>
<path fill="none" stroke="#191970" d="M247.3112,-136.9723C208.4158,-124.8174 157.6995,-108.9686 121.009,-97.5028"/>
<polygon fill="#191970" stroke="#191970" points="246.3407,-140.3358 256.9295,-139.978 248.4286,-133.6545 246.3407,-140.3358"/>
</g>
<!-- Node13 -->
<g id="node5" class="node">
<title>Node13</title>
<g id="a_node5"><a xlink:href="nimble__netif__conn_8h.html" target="_top" xlink:title="Connection allocation and maintenance for NimBLE netif. ">
<polygon fill="#ffffff" stroke="#000000" points="164.5,-67.5 164.5,-97.5 295.5,-97.5 295.5,-67.5 164.5,-67.5"/>
<text text-anchor="start" x="172.5" y="-85.5" font-family="Helvetica,sans-Serif" font-size="10.00" fill="#000000">pkg/nimble/netif/include</text>
<text text-anchor="middle" x="230" y="-74.5" font-family="Helvetica,sans-Serif" font-size="10.00" fill="#000000">/nimble_netif_conn.h</text>
</a>
</g>
</g>
<!-- Node11&#45;&gt;Node13 -->
<g id="edge4" class="edge">
<title>Node11&#45;&gt;Node13</title>
<path fill="none" stroke="#191970" d="M282.0668,-132.8313C270.2192,-121.3785 256.0746,-107.7054 245.5201,-97.5028"/>
<polygon fill="#191970" stroke="#191970" points="279.8375,-135.5442 289.46,-139.978 284.7026,-130.5112 279.8375,-135.5442"/>
</g>
<!-- Node14 -->
<g id="node6" class="node">
<title>Node14</title>
<g id="a_node6"><a xlink:href="nimble__rpble_8h.html" target="_top" xlink:title="Interface for the nimble_rpble module. ">
<polygon fill="#ffffff" stroke="#000000" points="314,-67.5 314,-97.5 448,-97.5 448,-67.5 314,-67.5"/>
<text text-anchor="start" x="322" y="-85.5" font-family="Helvetica,sans-Serif" font-size="10.00" fill="#000000">pkg/nimble/rpble/include</text>
<text text-anchor="middle" x="381" y="-74.5" font-family="Helvetica,sans-Serif" font-size="10.00" fill="#000000">/nimble_rpble.h</text>
</a>
</g>
</g>
<!-- Node11&#45;&gt;Node14 -->
<g id="edge5" class="edge">
<title>Node11&#45;&gt;Node14</title>
<path fill="none" stroke="#191970" d="M328.2389,-132.8313C340.2446,-121.3785 354.5778,-107.7054 365.2729,-97.5028"/>
<polygon fill="#191970" stroke="#191970" points="325.5671,-130.5429 320.7472,-139.978 330.3989,-135.6079 325.5671,-130.5429"/>
</g>
<!-- Node16 -->
<g id="node8" class="node">
<title>Node16</title>
<g id="a_node8"><a xlink:href="nimble__statconn_8h.html" target="_top" xlink:title="Simple static connection manager for NimBLE netif. ">
<polygon fill="#ffffff" stroke="#000000" points="466,-67.5 466,-97.5 608,-97.5 608,-67.5 466,-67.5"/>
<text text-anchor="start" x="474" y="-85.5" font-family="Helvetica,sans-Serif" font-size="10.00" fill="#000000">pkg/nimble/statconn</text>
<text text-anchor="middle" x="537" y="-74.5" font-family="Helvetica,sans-Serif" font-size="10.00" fill="#000000">/include/nimble_statconn.h</text>
</a>
</g>
</g>
<!-- Node11&#45;&gt;Node16 -->
<g id="edge7" class="edge">
<title>Node11&#45;&gt;Node16</title>
<path fill="none" stroke="#191970" d="M362.6888,-136.9723C401.5842,-124.8174 452.3005,-108.9686 488.991,-97.5028"/>
<polygon fill="#191970" stroke="#191970" points="361.5714,-133.6545 353.0705,-139.978 363.6593,-140.3358 361.5714,-133.6545"/>
</g>
<!-- Node15 -->
<g id="node7" class="node">
<title>Node15</title>
<g id="a_node7"><a xlink:href="nimble__rpble__params_8h.html" target="_top" xlink:title="Default configuration for the nimble_netif_rpble module. ">
<polygon fill="#ffffff" stroke="#000000" points="314,-.5 314,-30.5 448,-30.5 448,-.5 314,-.5"/>
<text text-anchor="start" x="322" y="-18.5" font-family="Helvetica,sans-Serif" font-size="10.00" fill="#000000">pkg/nimble/rpble/include</text>
<text text-anchor="middle" x="381" y="-7.5" font-family="Helvetica,sans-Serif" font-size="10.00" fill="#000000">/nimble_rpble_params.h</text>
</a>
</g>
</g>
<!-- Node14&#45;&gt;Node15 -->
<g id="edge6" class="edge">
<title>Node14&#45;&gt;Node15</title>
<path fill="none" stroke="#191970" d="M381,-57.0249C381,-48.128 381,-38.4287 381,-30.6432"/>
<polygon fill="#191970" stroke="#191970" points="377.5001,-57.2966 381,-67.2967 384.5001,-57.2967 377.5001,-57.2966"/>
</g>
</g>
</svg>
