<?xml version="1.0" encoding="UTF-8" standalone="no"?>
<!DOCTYPE svg PUBLIC "-//W3C//DTD SVG 1.1//EN"
 "http://www.w3.org/Graphics/SVG/1.1/DTD/svg11.dtd">
<!-- Generated by graphviz version 2.40.1 (0)
 -->
<!-- Title: pkg/nimble/statconn/include/nimble_statconn.h Pages: 1 -->
<svg width="618pt" height="375pt"
 viewBox="0.00 0.00 617.50 375.00" xmlns="http://www.w3.org/2000/svg" xmlns:xlink="http://www.w3.org/1999/xlink">
<g id="graph0" class="graph" transform="scale(1 1) rotate(0) translate(4 371)">
<title>pkg/nimble/statconn/include/nimble_statconn.h</title>
<polygon fill="#ffffff" stroke="transparent" points="-4,4 -4,-371 613.5,-371 613.5,4 -4,4"/>
<!-- Node0 -->
<g id="node1" class="node">
<title>Node0</title>
<polygon fill="#bfbfbf" stroke="#000000" points="325.5,-336.5 325.5,-366.5 467.5,-366.5 467.5,-336.5 325.5,-336.5"/>
<text text-anchor="start" x="333.5" y="-354.5" font-family="Helvetica,sans-Serif" font-size="10.00" fill="#000000">pkg/nimble/statconn</text>
<text text-anchor="middle" x="396.5" y="-343.5" font-family="Helvetica,sans-Serif" font-size="10.00" fill="#000000">/include/nimble_statconn.h</text>
</g>
<!-- Node1 -->
<g id="node2" class="node">
<title>Node1</title>
<g id="a_node2"><a xlink:href="errno_8h.html" target="_top" xlink:title="errno.h">
<polygon fill="#ffffff" stroke="#000000" points="219,-224.5 219,-243.5 272,-243.5 272,-224.5 219,-224.5"/>
<text text-anchor="middle" x="245.5" y="-231.5" font-family="Helvetica,sans-Serif" font-size="10.00" fill="#000000">errno.h</text>
</a>
</g>
</g>
<!-- Node0&#45;&gt;Node1 -->
<g id="edge1" class="edge">
<title>Node0&#45;&gt;Node1</title>
<path fill="none" stroke="#191970" d="M377.0685,-336.3795C348.4828,-314.1356 295.3306,-272.7754 266.0947,-250.0256"/>
<polygon fill="#191970" stroke="#191970" points="267.8845,-246.9836 257.8429,-243.6046 263.5856,-252.5081 267.8845,-246.9836"/>
</g>
<!-- Node2 -->
<g id="node3" class="node">
<title>Node2</title>
<polygon fill="#ffffff" stroke="#bfbfbf" points="194.5,-.5 194.5,-19.5 246.5,-19.5 246.5,-.5 194.5,-.5"/>
<text text-anchor="middle" x="220.5" y="-7.5" font-family="Helvetica,sans-Serif" font-size="10.00" fill="#000000">stdint.h</text>
</g>
<!-- Node0&#45;&gt;Node2 -->
<g id="edge2" class="edge">
<title>Node0&#45;&gt;Node2</title>
<path fill="none" stroke="#191970" d="M467.722,-342.0617C529.6427,-329.3833 609.5,-300.1996 609.5,-234 609.5,-234 609.5,-234 609.5,-122 609.5,-49.0114 353.4065,-20.732 256.7979,-12.6606"/>
<polygon fill="#191970" stroke="#191970" points="256.8774,-9.1557 246.6274,-11.8368 256.3122,-16.1328 256.8774,-9.1557"/>
</g>
<!-- Node3 -->
<g id="node4" class="node">
<title>Node3</title>
<g id="a_node4"><a xlink:href="nimble__netif_8h.html" target="_top" xlink:title="GNRC netif implementation for NimBLE. ">
<polygon fill="#ffffff" stroke="#000000" points="355,-280.5 355,-299.5 438,-299.5 438,-280.5 355,-280.5"/>
<text text-anchor="middle" x="396.5" y="-287.5" font-family="Helvetica,sans-Serif" font-size="10.00" fill="#000000">nimble_netif.h</text>
</a>
</g>
</g>
<!-- Node0&#45;&gt;Node3 -->
<g id="edge3" class="edge">
<title>Node0&#45;&gt;Node3</title>
<path fill="none" stroke="#191970" d="M396.5,-336.2977C396.5,-328.3834 396.5,-318.6043 396.5,-310.0759"/>
<polygon fill="#191970" stroke="#191970" points="400.0001,-309.8469 396.5,-299.8469 393.0001,-309.847 400.0001,-309.8469"/>
</g>
<!-- Node3&#45;&gt;Node1 -->
<g id="edge5" class="edge">
<title>Node3&#45;&gt;Node1</title>
<path fill="none" stroke="#191970" d="M370.5422,-280.3733C345.7593,-271.1822 308.2254,-257.2624 280.746,-247.0713"/>
<polygon fill="#191970" stroke="#191970" points="281.7121,-243.6968 271.1191,-243.5011 279.2781,-250.26 281.7121,-243.6968"/>
</g>
<!-- Node3&#45;&gt;Node2 -->
<g id="edge4" class="edge">
<title>Node3&#45;&gt;Node2</title>
<path fill="none" stroke="#191970" d="M396.5,-280.4116C396.5,-261.0538 396.5,-215.9167 396.5,-178 396.5,-178 396.5,-178 396.5,-122 396.5,-56.4355 308.4913,-27.5923 256.9431,-16.3215"/>
<polygon fill="#191970" stroke="#191970" points="257.3503,-12.8318 246.849,-14.236 255.934,-19.687 257.3503,-12.8318"/>
</g>
<!-- Node4 -->
<g id="node5" class="node">
<title>Node4</title>
<g id="a_node5"><a xlink:href="sys_2include_2net_2ble_8h.html" target="_top" xlink:title="General BLE values as defined by the BT standard. ">
<polygon fill="#ffffff" stroke="#000000" points="522,-224.5 522,-243.5 581,-243.5 581,-224.5 522,-224.5"/>
<text text-anchor="middle" x="551.5" y="-231.5" font-family="Helvetica,sans-Serif" font-size="10.00" fill="#000000">net/ble.h</text>
</a>
</g>
</g>
<!-- Node3&#45;&gt;Node4 -->
<g id="edge6" class="edge">
<title>Node3&#45;&gt;Node4</title>
<path fill="none" stroke="#191970" d="M423.1454,-280.3733C448.6964,-271.1419 487.4512,-257.1402 515.6909,-246.9375"/>
<polygon fill="#191970" stroke="#191970" points="516.9865,-250.1909 525.2022,-243.5011 514.6079,-243.6074 516.9865,-250.1909"/>
</g>
<!-- Node5 -->
<g id="node6" class="node">
<title>Node5</title>
<g id="a_node6"><a xlink:href="nimble__riot_8h.html" target="_top" xlink:title="RIOT specific glue functions for integrating NimBLE. ">
<polygon fill="#ffffff" stroke="#000000" points="290.5,-224.5 290.5,-243.5 368.5,-243.5 368.5,-224.5 290.5,-224.5"/>
<text text-anchor="middle" x="329.5" y="-231.5" font-family="Helvetica,sans-Serif" font-size="10.00" fill="#000000">nimble_riot.h</text>
</a>
</g>
</g>
<!-- Node3&#45;&gt;Node5 -->
<g id="edge7" class="edge">
<title>Node3&#45;&gt;Node5</title>
<path fill="none" stroke="#191970" d="M384.8295,-280.2455C374.9339,-271.9746 360.5373,-259.9416 348.9099,-250.2232"/>
<polygon fill="#191970" stroke="#191970" points="350.9542,-247.3703 341.0368,-243.6427 346.465,-252.7413 350.9542,-247.3703"/>
</g>
<!-- Node13 -->
<g id="node14" class="node">
<title>Node13</title>
<polygon fill="#ffffff" stroke="#bfbfbf" points="425,-224.5 425,-243.5 504,-243.5 504,-224.5 425,-224.5"/>
<text text-anchor="middle" x="464.5" y="-231.5" font-family="Helvetica,sans-Serif" font-size="10.00" fill="#000000">host/ble_hs.h</text>
</g>
<!-- Node3&#45;&gt;Node13 -->
<g id="edge20" class="edge">
<title>Node3&#45;&gt;Node13</title>
<path fill="none" stroke="#191970" d="M408.3447,-280.2455C418.388,-271.9746 432.9995,-259.9416 444.8004,-250.2232"/>
<polygon fill="#191970" stroke="#191970" points="447.2967,-252.7015 452.791,-243.6427 442.8467,-247.298 447.2967,-252.7015"/>
</g>
<!-- Node5&#45;&gt;Node2 -->
<g id="edge8" class="edge">
<title>Node5&#45;&gt;Node2</title>
<path fill="none" stroke="#191970" d="M332.2844,-224.2352C340.1427,-194.3716 359.0855,-103.4206 313.5,-56 297.8734,-39.7443 275.2924,-28.3874 256.2945,-21.0251"/>
<polygon fill="#191970" stroke="#191970" points="257.3361,-17.6794 246.7423,-17.5345 254.9335,-24.2542 257.3361,-17.6794"/>
</g>
<!-- Node6 -->
<g id="node7" class="node">
<title>Node6</title>
<g id="a_node7"><a xlink:href="kernel__defines_8h.html" target="_top" xlink:title="Common macros and compiler attributes/pragmas configuration. ">
<polygon fill="#ffffff" stroke="#000000" points="165,-168.5 165,-187.5 260,-187.5 260,-168.5 165,-168.5"/>
<text text-anchor="middle" x="212.5" y="-175.5" font-family="Helvetica,sans-Serif" font-size="10.00" fill="#000000">kernel_defines.h</text>
</a>
</g>
</g>
<!-- Node5&#45;&gt;Node6 -->
<g id="edge9" class="edge">
<title>Node5&#45;&gt;Node6</title>
<path fill="none" stroke="#191970" d="M309.387,-224.3733C290.6897,-215.4241 262.6256,-201.9917 241.5066,-191.8835"/>
<polygon fill="#191970" stroke="#191970" points="242.8817,-188.6614 232.3506,-187.5011 239.8595,-194.9755 242.8817,-188.6614"/>
</g>
<!-- Node7 -->
<g id="node8" class="node">
<title>Node7</title>
<g id="a_node8"><a xlink:href="modules_8h.html" target="_top" xlink:title="Common macros and compiler attributes/pragmas configuration. ">
<polygon fill="#ffffff" stroke="#000000" points="265,-112.5 265,-131.5 330,-131.5 330,-112.5 265,-112.5"/>
<text text-anchor="middle" x="297.5" y="-119.5" font-family="Helvetica,sans-Serif" font-size="10.00" fill="#000000">modules.h</text>
</a>
</g>
</g>
<!-- Node6&#45;&gt;Node7 -->
<g id="edge10" class="edge">
<title>Node6&#45;&gt;Node7</title>
<path fill="none" stroke="#191970" d="M227.3059,-168.2455C240.2256,-159.7337 259.1931,-147.2375 274.1552,-137.3801"/>
<polygon fill="#191970" stroke="#191970" points="276.4387,-140.067 282.8638,-131.6427 272.5876,-134.2216 276.4387,-140.067"/>
</g>
<!-- Node8 -->
<g id="node9" class="node">
<title>Node8</title>
<g id="a_node9"><a xlink:href="riot__version_8h.html" target="_top" xlink:title="Common macros and compiler attributes/pragmas configuration. ">
<polygon fill="#ffffff" stroke="#000000" points="0,-56.5 0,-75.5 81,-75.5 81,-56.5 0,-56.5"/>
<text text-anchor="middle" x="40.5" y="-63.5" font-family="Helvetica,sans-Serif" font-size="10.00" fill="#000000">riot_version.h</text>
</a>
</g>
</g>
<!-- Node6&#45;&gt;Node8 -->
<g id="edge11" class="edge">
<title>Node6&#45;&gt;Node8</title>
<path fill="none" stroke="#191970" d="M164.6549,-169.1595C124.8589,-160.8696 72.4051,-147.4578 57.5,-132 45.7194,-119.7826 41.8032,-100.5361 40.637,-85.9729"/>
<polygon fill="#191970" stroke="#191970" points="44.132,-85.7799 40.1964,-75.9431 37.1387,-86.0871 44.132,-85.7799"/>
</g>
<!-- Node9 -->
<g id="node10" class="node">
<title>Node9</title>
<g id="a_node10"><a xlink:href="compiler__hints_8h.html" target="_top" xlink:title="Common macros and compiler attributes/pragmas configuration. ">
<polygon fill="#ffffff" stroke="#000000" points="67,-112.5 67,-131.5 160,-131.5 160,-112.5 67,-112.5"/>
<text text-anchor="middle" x="113.5" y="-119.5" font-family="Helvetica,sans-Serif" font-size="10.00" fill="#000000">compiler_hints.h</text>
</a>
</g>
</g>
<!-- Node6&#45;&gt;Node9 -->
<g id="edge13" class="edge">
<title>Node6&#45;&gt;Node9</title>
<path fill="none" stroke="#191970" d="M195.2555,-168.2455C179.9239,-159.5731 157.2801,-146.7645 139.7084,-136.825"/>
<polygon fill="#191970" stroke="#191970" points="140.9741,-133.5198 130.5469,-131.6427 137.5276,-139.6126 140.9741,-133.5198"/>
</g>
<!-- Node11 -->
<g id="node12" class="node">
<title>Node11</title>
<g id="a_node12"><a xlink:href="container_8h.html" target="_top" xlink:title="Common macros and compiler attributes/pragmas configuration. ">
<polygon fill="#ffffff" stroke="#000000" points="178,-112.5 178,-131.5 247,-131.5 247,-112.5 178,-112.5"/>
<text text-anchor="middle" x="212.5" y="-119.5" font-family="Helvetica,sans-Serif" font-size="10.00" fill="#000000">container.h</text>
</a>
</g>
</g>
<!-- Node6&#45;&gt;Node11 -->
<g id="edge17" class="edge">
<title>Node6&#45;&gt;Node11</title>
<path fill="none" stroke="#191970" d="M212.5,-168.2455C212.5,-160.9382 212.5,-150.6944 212.5,-141.7046"/>
<polygon fill="#191970" stroke="#191970" points="216.0001,-141.6426 212.5,-131.6427 209.0001,-141.6427 216.0001,-141.6426"/>
</g>
<!-- Node8&#45;&gt;Node2 -->
<g id="edge12" class="edge">
<title>Node8&#45;&gt;Node2</title>
<path fill="none" stroke="#191970" d="M71.4431,-56.3733C102.8703,-46.5959 151.4986,-31.4671 184.6008,-21.1686"/>
<polygon fill="#191970" stroke="#191970" points="185.8304,-24.4516 194.3392,-18.1389 183.7509,-17.7676 185.8304,-24.4516"/>
</g>
<!-- Node9&#45;&gt;Node2 -->
<g id="edge16" class="edge">
<title>Node9&#45;&gt;Node2</title>
<path fill="none" stroke="#191970" d="M113.4073,-112.4003C113.762,-98.5038 116.3162,-72.6306 129.5,-56 143.3598,-38.5167 165.6285,-27.0988 184.6674,-20.0116"/>
<polygon fill="#191970" stroke="#191970" points="185.9609,-23.2677 194.2674,-16.6911 183.6727,-16.6523 185.9609,-23.2677"/>
</g>
<!-- Node10 -->
<g id="node11" class="node">
<title>Node10</title>
<g id="a_node11"><a xlink:href="assert_8h.html" target="_top" xlink:title="POSIX.1&#45;2008 compliant version of the assert macro. ">
<polygon fill="#ffffff" stroke="#000000" points="138.5,-56.5 138.5,-75.5 192.5,-75.5 192.5,-56.5 138.5,-56.5"/>
<text text-anchor="middle" x="165.5" y="-63.5" font-family="Helvetica,sans-Serif" font-size="10.00" fill="#000000">assert.h</text>
</a>
</g>
</g>
<!-- Node9&#45;&gt;Node10 -->
<g id="edge14" class="edge">
<title>Node9&#45;&gt;Node10</title>
<path fill="none" stroke="#191970" d="M122.5577,-112.2455C130.0142,-104.2155 140.7634,-92.6394 149.6417,-83.0781"/>
<polygon fill="#191970" stroke="#191970" points="152.3063,-85.3522 156.5461,-75.6427 147.1768,-80.589 152.3063,-85.3522"/>
</g>
<!-- Node10&#45;&gt;Node2 -->
<g id="edge15" class="edge">
<title>Node10&#45;&gt;Node2</title>
<path fill="none" stroke="#191970" d="M175.0803,-56.2455C183.0458,-48.1352 194.5641,-36.4075 204.0079,-26.7919"/>
<polygon fill="#191970" stroke="#191970" points="206.5195,-29.2297 211.0295,-19.6427 201.5253,-24.3247 206.5195,-29.2297"/>
</g>
<!-- Node11&#45;&gt;Node2 -->
<g id="edge19" class="edge">
<title>Node11&#45;&gt;Node2</title>
<path fill="none" stroke="#191970" d="M213.1821,-112.4509C214.4869,-94.184 217.3603,-53.9553 219.093,-29.6976"/>
<polygon fill="#191970" stroke="#191970" points="222.5982,-29.7489 219.8197,-19.5249 215.616,-29.2501 222.5982,-29.7489"/>
</g>
<!-- Node12 -->
<g id="node13" class="node">
<title>Node12</title>
<polygon fill="#ffffff" stroke="#bfbfbf" points="248.5,-56.5 248.5,-75.5 304.5,-75.5 304.5,-56.5 248.5,-56.5"/>
<text text-anchor="middle" x="276.5" y="-63.5" font-family="Helvetica,sans-Serif" font-size="10.00" fill="#000000">stddef.h</text>
</g>
<!-- Node11&#45;&gt;Node12 -->
<g id="edge18" class="edge">
<title>Node11&#45;&gt;Node12</title>
<path fill="none" stroke="#191970" d="M223.6479,-112.2455C233.0087,-104.0549 246.5858,-92.1749 257.6349,-82.5069"/>
<polygon fill="#191970" stroke="#191970" points="260.2588,-84.8618 265.4798,-75.6427 255.6492,-79.5937 260.2588,-84.8618"/>
</g>
</g>
</svg>
