<?xml version="1.0" encoding="UTF-8" standalone="no"?>
<!DOCTYPE svg PUBLIC "-//W3C//DTD SVG 1.1//EN"
 "http://www.w3.org/Graphics/SVG/1.1/DTD/svg11.dtd">
<!-- Generated by graphviz version 2.40.1 (0)
 -->
<!-- Title: pkg/nimble/autoadv/include/nimble_autoadv_params.h Pages: 1 -->
<svg width="503pt" height="330pt"
 viewBox="0.00 0.00 503.00 330.00" xmlns="http://www.w3.org/2000/svg" xmlns:xlink="http://www.w3.org/1999/xlink">
<g id="graph0" class="graph" transform="scale(1 1) rotate(0) translate(4 326)">
<title>pkg/nimble/autoadv/include/nimble_autoadv_params.h</title>
<polygon fill="#ffffff" stroke="transparent" points="-4,4 -4,-326 499,-326 499,4 -4,4"/>
<!-- Node0 -->
<g id="node1" class="node">
<title>Node0</title>
<polygon fill="#bfbfbf" stroke="#000000" points="36.5,-280.5 36.5,-321.5 167.5,-321.5 167.5,-280.5 36.5,-280.5"/>
<text text-anchor="start" x="44.5" y="-309.5" font-family="Helvetica,sans-Serif" font-size="10.00" fill="#000000">pkg/nimble/autoadv</text>
<text text-anchor="start" x="44.5" y="-298.5" font-family="Helvetica,sans-Serif" font-size="10.00" fill="#000000">/include/nimble_autoadv</text>
<text text-anchor="middle" x="102" y="-287.5" font-family="Helvetica,sans-Serif" font-size="10.00" fill="#000000">_params.h</text>
</g>
<!-- Node1 -->
<g id="node2" class="node">
<title>Node1</title>
<g id="a_node2"><a xlink:href="nimble__autoadv_8h.html" target="_top" xlink:title="nimble_autoadv.h">
<polygon fill="#ffffff" stroke="#000000" points="0,-224.5 0,-243.5 98,-243.5 98,-224.5 0,-224.5"/>
<text text-anchor="middle" x="49" y="-231.5" font-family="Helvetica,sans-Serif" font-size="10.00" fill="#000000">nimble_autoadv.h</text>
</a>
</g>
</g>
<!-- Node0&#45;&gt;Node1 -->
<g id="edge1" class="edge">
<title>Node0&#45;&gt;Node1</title>
<path fill="none" stroke="#191970" d="M85.521,-280.168C78.3192,-271.0639 69.9594,-260.4959 63.0568,-251.7699"/>
<polygon fill="#191970" stroke="#191970" points="65.6859,-249.4519 56.7368,-243.7805 60.1959,-253.7947 65.6859,-249.4519"/>
</g>
<!-- Node3 -->
<g id="node4" class="node">
<title>Node3</title>
<g id="a_node4"><a xlink:href="nimble__riot_8h.html" target="_top" xlink:title="RIOT specific glue functions for integrating NimBLE. ">
<polygon fill="#ffffff" stroke="#000000" points="116,-224.5 116,-243.5 194,-243.5 194,-224.5 116,-224.5"/>
<text text-anchor="middle" x="155" y="-231.5" font-family="Helvetica,sans-Serif" font-size="10.00" fill="#000000">nimble_riot.h</text>
</a>
</g>
</g>
<!-- Node0&#45;&gt;Node3 -->
<g id="edge3" class="edge">
<title>Node0&#45;&gt;Node3</title>
<path fill="none" stroke="#191970" d="M118.479,-280.168C125.6808,-271.0639 134.0406,-260.4959 140.9432,-251.7699"/>
<polygon fill="#191970" stroke="#191970" points="143.8041,-253.7947 147.2632,-243.7805 138.3141,-249.4519 143.8041,-253.7947"/>
</g>
<!-- Node2 -->
<g id="node3" class="node">
<title>Node2</title>
<polygon fill="#ffffff" stroke="#bfbfbf" points="6,-168.5 6,-187.5 92,-187.5 92,-168.5 6,-168.5"/>
<text text-anchor="middle" x="49" y="-175.5" font-family="Helvetica,sans-Serif" font-size="10.00" fill="#000000">host/ble_gap.h</text>
</g>
<!-- Node1&#45;&gt;Node2 -->
<g id="edge2" class="edge">
<title>Node1&#45;&gt;Node2</title>
<path fill="none" stroke="#191970" d="M49,-224.2455C49,-216.9382 49,-206.6944 49,-197.7046"/>
<polygon fill="#191970" stroke="#191970" points="52.5001,-197.6426 49,-187.6427 45.5001,-197.6427 52.5001,-197.6426"/>
</g>
<!-- Node4 -->
<g id="node5" class="node">
<title>Node4</title>
<polygon fill="#ffffff" stroke="#bfbfbf" points="275,-.5 275,-19.5 327,-19.5 327,-.5 275,-.5"/>
<text text-anchor="middle" x="301" y="-7.5" font-family="Helvetica,sans-Serif" font-size="10.00" fill="#000000">stdint.h</text>
</g>
<!-- Node3&#45;&gt;Node4 -->
<g id="edge4" class="edge">
<title>Node3&#45;&gt;Node4</title>
<path fill="none" stroke="#191970" d="M152.9159,-224.4724C146.9822,-194.511 133.4005,-101.502 182,-56 204.9813,-34.4834 239.1261,-22.6794 264.9542,-16.4356"/>
<polygon fill="#191970" stroke="#191970" points="265.7652,-19.8408 274.7546,-14.2334 264.2305,-13.0111 265.7652,-19.8408"/>
</g>
<!-- Node5 -->
<g id="node6" class="node">
<title>Node5</title>
<g id="a_node6"><a xlink:href="kernel__defines_8h.html" target="_top" xlink:title="Common macros and compiler attributes/pragmas configuration. ">
<polygon fill="#ffffff" stroke="#000000" points="211.5,-168.5 211.5,-187.5 306.5,-187.5 306.5,-168.5 211.5,-168.5"/>
<text text-anchor="middle" x="259" y="-175.5" font-family="Helvetica,sans-Serif" font-size="10.00" fill="#000000">kernel_defines.h</text>
</a>
</g>
</g>
<!-- Node3&#45;&gt;Node5 -->
<g id="edge5" class="edge">
<title>Node3&#45;&gt;Node5</title>
<path fill="none" stroke="#191970" d="M173.1154,-224.2455C189.445,-215.4527 213.671,-202.4079 232.2339,-192.4125"/>
<polygon fill="#191970" stroke="#191970" points="233.9468,-195.4654 241.0922,-187.6427 230.6281,-189.3021 233.9468,-195.4654"/>
</g>
<!-- Node6 -->
<g id="node7" class="node">
<title>Node6</title>
<g id="a_node7"><a xlink:href="modules_8h.html" target="_top" xlink:title="Common macros and compiler attributes/pragmas configuration. ">
<polygon fill="#ffffff" stroke="#000000" points="165.5,-112.5 165.5,-131.5 230.5,-131.5 230.5,-112.5 165.5,-112.5"/>
<text text-anchor="middle" x="198" y="-119.5" font-family="Helvetica,sans-Serif" font-size="10.00" fill="#000000">modules.h</text>
</a>
</g>
</g>
<!-- Node5&#45;&gt;Node6 -->
<g id="edge6" class="edge">
<title>Node5&#45;&gt;Node6</title>
<path fill="none" stroke="#191970" d="M248.3746,-168.2455C239.4527,-160.0549 226.512,-148.1749 215.9808,-138.5069"/>
<polygon fill="#191970" stroke="#191970" points="218.2371,-135.8271 208.5036,-131.6427 213.5032,-140.9837 218.2371,-135.8271"/>
</g>
<!-- Node7 -->
<g id="node8" class="node">
<title>Node7</title>
<g id="a_node8"><a xlink:href="riot__version_8h.html" target="_top" xlink:title="Common macros and compiler attributes/pragmas configuration. ">
<polygon fill="#ffffff" stroke="#000000" points="191.5,-56.5 191.5,-75.5 272.5,-75.5 272.5,-56.5 191.5,-56.5"/>
<text text-anchor="middle" x="232" y="-63.5" font-family="Helvetica,sans-Serif" font-size="10.00" fill="#000000">riot_version.h</text>
</a>
</g>
</g>
<!-- Node5&#45;&gt;Node7 -->
<g id="edge7" class="edge">
<title>Node5&#45;&gt;Node7</title>
<path fill="none" stroke="#191970" d="M256.698,-168.4509C252.2744,-150.1013 242.5085,-109.5908 236.6694,-85.3693"/>
<polygon fill="#191970" stroke="#191970" points="240.0424,-84.4261 234.2962,-75.5249 233.2373,-86.0667 240.0424,-84.4261"/>
</g>
<!-- Node8 -->
<g id="node9" class="node">
<title>Node8</title>
<g id="a_node9"><a xlink:href="compiler__hints_8h.html" target="_top" xlink:title="Common macros and compiler attributes/pragmas configuration. ">
<polygon fill="#ffffff" stroke="#000000" points="287.5,-112.5 287.5,-131.5 380.5,-131.5 380.5,-112.5 287.5,-112.5"/>
<text text-anchor="middle" x="334" y="-119.5" font-family="Helvetica,sans-Serif" font-size="10.00" fill="#000000">compiler_hints.h</text>
</a>
</g>
</g>
<!-- Node5&#45;&gt;Node8 -->
<g id="edge9" class="edge">
<title>Node5&#45;&gt;Node8</title>
<path fill="none" stroke="#191970" d="M272.064,-168.2455C283.3562,-159.814 299.8845,-147.4729 313.0271,-137.6598"/>
<polygon fill="#191970" stroke="#191970" points="315.1669,-140.4301 321.0857,-131.6427 310.9789,-134.8211 315.1669,-140.4301"/>
</g>
<!-- Node10 -->
<g id="node11" class="node">
<title>Node10</title>
<g id="a_node11"><a xlink:href="container_8h.html" target="_top" xlink:title="Common macros and compiler attributes/pragmas configuration. ">
<polygon fill="#ffffff" stroke="#000000" points="398.5,-112.5 398.5,-131.5 467.5,-131.5 467.5,-112.5 398.5,-112.5"/>
<text text-anchor="middle" x="433" y="-119.5" font-family="Helvetica,sans-Serif" font-size="10.00" fill="#000000">container.h</text>
</a>
</g>
</g>
<!-- Node5&#45;&gt;Node10 -->
<g id="edge13" class="edge">
<title>Node5&#45;&gt;Node10</title>
<path fill="none" stroke="#191970" d="M288.9117,-168.3733C317.8452,-159.0613 361.8611,-144.8953 393.6293,-134.671"/>
<polygon fill="#191970" stroke="#191970" points="395.0318,-137.8965 403.4787,-131.5011 392.8872,-131.2331 395.0318,-137.8965"/>
</g>
<!-- Node7&#45;&gt;Node4 -->
<g id="edge8" class="edge">
<title>Node7&#45;&gt;Node4</title>
<path fill="none" stroke="#191970" d="M244.0189,-56.2455C254.2098,-47.9746 269.0362,-35.9416 281.0107,-26.2232"/>
<polygon fill="#191970" stroke="#191970" points="283.5598,-28.662 289.1188,-19.6427 279.1486,-23.2268 283.5598,-28.662"/>
</g>
<!-- Node8&#45;&gt;Node4 -->
<g id="edge12" class="edge">
<title>Node8&#45;&gt;Node4</title>
<path fill="none" stroke="#191970" d="M331.0622,-112.4979C328.1999,-103.205 323.7446,-88.6468 320,-76 315.3982,-60.4582 310.3262,-42.8122 306.5809,-29.6789"/>
<polygon fill="#191970" stroke="#191970" points="309.8886,-28.5145 303.7863,-19.8535 303.1556,-30.4296 309.8886,-28.5145"/>
</g>
<!-- Node9 -->
<g id="node10" class="node">
<title>Node9</title>
<g id="a_node10"><a xlink:href="assert_8h.html" target="_top" xlink:title="POSIX.1&#45;2008 compliant version of the assert macro. ">
<polygon fill="#ffffff" stroke="#000000" points="329,-56.5 329,-75.5 383,-75.5 383,-56.5 329,-56.5"/>
<text text-anchor="middle" x="356" y="-63.5" font-family="Helvetica,sans-Serif" font-size="10.00" fill="#000000">assert.h</text>
</a>
</g>
</g>
<!-- Node8&#45;&gt;Node9 -->
<g id="edge10" class="edge">
<title>Node8&#45;&gt;Node9</title>
<path fill="none" stroke="#191970" d="M337.8321,-112.2455C340.7659,-104.7776 344.9047,-94.2427 348.491,-85.1137"/>
<polygon fill="#191970" stroke="#191970" points="351.8129,-86.23 352.2118,-75.6427 345.2976,-83.6704 351.8129,-86.23"/>
</g>
<!-- Node9&#45;&gt;Node4 -->
<g id="edge11" class="edge">
<title>Node9&#45;&gt;Node4</title>
<path fill="none" stroke="#191970" d="M346.4197,-56.2455C338.4542,-48.1352 326.9359,-36.4075 317.4921,-26.7919"/>
<polygon fill="#191970" stroke="#191970" points="319.9747,-24.3247 310.4705,-19.6427 314.9805,-29.2297 319.9747,-24.3247"/>
</g>
<!-- Node10&#45;&gt;Node4 -->
<g id="edge15" class="edge">
<title>Node10&#45;&gt;Node4</title>
<path fill="none" stroke="#191970" d="M429.0394,-112.339C422.9016,-98.3661 409.9063,-72.3987 392,-56 376.1382,-41.4737 354.8346,-30.3743 336.8276,-22.7211"/>
<polygon fill="#191970" stroke="#191970" points="337.8007,-19.3389 327.2184,-18.824 335.1698,-25.8257 337.8007,-19.3389"/>
</g>
<!-- Node11 -->
<g id="node12" class="node">
<title>Node11</title>
<polygon fill="#ffffff" stroke="#bfbfbf" points="439,-56.5 439,-75.5 495,-75.5 495,-56.5 439,-56.5"/>
<text text-anchor="middle" x="467" y="-63.5" font-family="Helvetica,sans-Serif" font-size="10.00" fill="#000000">stddef.h</text>
</g>
<!-- Node10&#45;&gt;Node11 -->
<g id="edge14" class="edge">
<title>Node10&#45;&gt;Node11</title>
<path fill="none" stroke="#191970" d="M438.9223,-112.2455C443.6027,-104.5367 450.2673,-93.5598 455.9289,-84.2348"/>
<polygon fill="#191970" stroke="#191970" points="458.9475,-86.007 461.1455,-75.6427 452.9639,-82.3741 458.9475,-86.007"/>
</g>
</g>
</svg>
