<?xml version="1.0" encoding="UTF-8" standalone="no"?>
<!DOCTYPE svg PUBLIC "-//W3C//DTD SVG 1.1//EN"
 "http://www.w3.org/Graphics/SVG/1.1/DTD/svg11.dtd">
<!-- Generated by graphviz version 2.40.1 (0)
 -->
<!-- Title: drivers/include/nrf24l01p.h Pages: 1 -->
<svg width="756pt" height="364pt"
 viewBox="0.00 0.00 755.50 364.00" xmlns="http://www.w3.org/2000/svg" xmlns:xlink="http://www.w3.org/1999/xlink">
<g id="graph0" class="graph" transform="scale(1 1) rotate(0) translate(4 360)">
<title>drivers/include/nrf24l01p.h</title>
<polygon fill="#ffffff" stroke="transparent" points="-4,4 -4,-360 751.5,-360 751.5,4 -4,4"/>
<!-- Node0 -->
<g id="node1" class="node">
<title>Node0</title>
<polygon fill="#bfbfbf" stroke="#000000" points="364,-336.5 364,-355.5 510,-355.5 510,-336.5 364,-336.5"/>
<text text-anchor="middle" x="437" y="-343.5" font-family="Helvetica,sans-Serif" font-size="10.00" fill="#000000">drivers/include/nrf24l01p.h</text>
</g>
<!-- Node1 -->
<g id="node2" class="node">
<title>Node1</title>
<polygon fill="#ffffff" stroke="#bfbfbf" points="142,-.5 142,-19.5 194,-19.5 194,-.5 142,-.5"/>
<text text-anchor="middle" x="168" y="-7.5" font-family="Helvetica,sans-Serif" font-size="10.00" fill="#000000">stdint.h</text>
</g>
<!-- Node0&#45;&gt;Node1 -->
<g id="edge1" class="edge">
<title>Node0&#45;&gt;Node1</title>
<path fill="none" stroke="#191970" d="M363.856,-342.2761C239.4528,-333.9236 0,-308.2084 0,-234 0,-234 0,-234 0,-122 0,-87.9282 12.7181,-77.683 39,-56 65.753,-33.9283 103.8996,-22.0747 131.7706,-15.9607"/>
<polygon fill="#191970" stroke="#191970" points="132.8077,-19.3211 141.9041,-13.8891 131.4056,-12.463 132.8077,-19.3211"/>
</g>
<!-- Node2 -->
<g id="node3" class="node">
<title>Node2</title>
<g id="a_node3"><a xlink:href="stdio_8h.html" target="_top" xlink:title="stdio wrapper to extend the C libs stdio ">
<polygon fill="#ffffff" stroke="#000000" points="343,-280.5 343,-299.5 391,-299.5 391,-280.5 343,-280.5"/>
<text text-anchor="middle" x="367" y="-287.5" font-family="Helvetica,sans-Serif" font-size="10.00" fill="#000000">stdio.h</text>
</a>
</g>
</g>
<!-- Node0&#45;&gt;Node2 -->
<g id="edge2" class="edge">
<title>Node0&#45;&gt;Node2</title>
<path fill="none" stroke="#191970" d="M424.8069,-336.2455C414.3679,-327.8943 399.1345,-315.7076 386.926,-305.9408"/>
<polygon fill="#191970" stroke="#191970" points="389.0485,-303.1566 379.0533,-299.6427 384.6756,-308.6227 389.0485,-303.1566"/>
</g>
<!-- Node13 -->
<g id="node14" class="node">
<title>Node13</title>
<g id="a_node14"><a xlink:href="drivers_2include_2periph_2gpio_8h.html" target="_top" xlink:title="Low&#45;level GPIO peripheral driver interface definitions. ">
<polygon fill="#ffffff" stroke="#000000" points="569,-56.5 569,-75.5 649,-75.5 649,-56.5 569,-56.5"/>
<text text-anchor="middle" x="609" y="-63.5" font-family="Helvetica,sans-Serif" font-size="10.00" fill="#000000">periph/gpio.h</text>
</a>
</g>
</g>
<!-- Node0&#45;&gt;Node13 -->
<g id="edge18" class="edge">
<title>Node0&#45;&gt;Node13</title>
<path fill="none" stroke="#191970" d="M472.0739,-336.3935C515.8395,-322.0216 585,-290.3894 585,-234 585,-234 585,-234 585,-178 585,-144.8465 595.1789,-107.3737 602.2788,-85.2684"/>
<polygon fill="#191970" stroke="#191970" points="605.6138,-86.3312 605.4587,-75.7375 598.9736,-84.1157 605.6138,-86.3312"/>
</g>
<!-- Node18 -->
<g id="node19" class="node">
<title>Node18</title>
<g id="a_node19"><a xlink:href="spi_8h.html" target="_top" xlink:title="Low&#45;level SPI peripheral driver interface definition. ">
<polygon fill="#ffffff" stroke="#000000" points="435.5,-112.5 435.5,-131.5 508.5,-131.5 508.5,-112.5 435.5,-112.5"/>
<text text-anchor="middle" x="472" y="-119.5" font-family="Helvetica,sans-Serif" font-size="10.00" fill="#000000">periph/spi.h</text>
</a>
</g>
</g>
<!-- Node0&#45;&gt;Node18 -->
<g id="edge23" class="edge">
<title>Node0&#45;&gt;Node18</title>
<path fill="none" stroke="#191970" d="M438.5039,-336.375C443.8104,-302.4133 461.727,-187.7472 468.947,-141.5392"/>
<polygon fill="#191970" stroke="#191970" points="472.4159,-142.0096 470.5017,-131.5891 465.4998,-140.9289 472.4159,-142.0096"/>
</g>
<!-- Node3 -->
<g id="node4" class="node">
<title>Node3</title>
<g id="a_node4"><a xlink:href="flash__utils_8h.html" target="_top" xlink:title="Utility functions, macros, and types for read&#45;only memory. ">
<polygon fill="#ffffff" stroke="#000000" points="331.5,-224.5 331.5,-243.5 402.5,-243.5 402.5,-224.5 331.5,-224.5"/>
<text text-anchor="middle" x="367" y="-231.5" font-family="Helvetica,sans-Serif" font-size="10.00" fill="#000000">flash_utils.h</text>
</a>
</g>
</g>
<!-- Node2&#45;&gt;Node3 -->
<g id="edge3" class="edge">
<title>Node2&#45;&gt;Node3</title>
<path fill="none" stroke="#191970" d="M361.7332,-280.2455C360.3221,-272.9382 359.9179,-262.6944 360.5205,-253.7046"/>
<polygon fill="#191970" stroke="#191970" points="364.0111,-253.9945 361.7549,-243.6427 357.0632,-253.1421 364.0111,-253.9945"/>
</g>
<!-- Node3&#45;&gt;Node2 -->
<g id="edge4" class="edge">
<title>Node3&#45;&gt;Node2</title>
<path fill="none" stroke="#191970" d="M372.2451,-243.6427C373.6665,-250.9199 374.081,-261.155 373.4887,-270.1575"/>
<polygon fill="#191970" stroke="#191970" points="369.9947,-269.8972 372.2668,-280.2455 376.9439,-270.739 369.9947,-269.8972"/>
</g>
<!-- Node4 -->
<g id="node5" class="node">
<title>Node4</title>
<polygon fill="#ffffff" stroke="#bfbfbf" points="305.5,-168.5 305.5,-187.5 358.5,-187.5 358.5,-168.5 305.5,-168.5"/>
<text text-anchor="middle" x="332" y="-175.5" font-family="Helvetica,sans-Serif" font-size="10.00" fill="#000000">string.h</text>
</g>
<!-- Node3&#45;&gt;Node4 -->
<g id="edge5" class="edge">
<title>Node3&#45;&gt;Node4</title>
<path fill="none" stroke="#191970" d="M360.9035,-224.2455C356.0855,-216.5367 349.2249,-205.5598 343.3968,-196.2348"/>
<polygon fill="#191970" stroke="#191970" points="346.2947,-194.2677 338.0267,-187.6427 340.3587,-197.9777 346.2947,-194.2677"/>
</g>
<!-- Node5 -->
<g id="node6" class="node">
<title>Node5</title>
<polygon fill="#ffffff" stroke="#bfbfbf" points="376.5,-168.5 376.5,-187.5 443.5,-187.5 443.5,-168.5 376.5,-168.5"/>
<text text-anchor="middle" x="410" y="-175.5" font-family="Helvetica,sans-Serif" font-size="10.00" fill="#000000">cpu_conf.h</text>
</g>
<!-- Node3&#45;&gt;Node5 -->
<g id="edge6" class="edge">
<title>Node3&#45;&gt;Node5</title>
<path fill="none" stroke="#191970" d="M374.49,-224.2455C380.5326,-216.3761 389.1903,-205.101 396.4441,-195.6542"/>
<polygon fill="#191970" stroke="#191970" points="399.2815,-197.7058 402.5958,-187.6427 393.7295,-193.4426 399.2815,-197.7058"/>
</g>
<!-- Node6 -->
<g id="node7" class="node">
<title>Node6</title>
<g id="a_node7"><a xlink:href="kernel__defines_8h.html" target="_top" xlink:title="Common macros and compiler attributes/pragmas configuration. ">
<polygon fill="#ffffff" stroke="#000000" points="192.5,-168.5 192.5,-187.5 287.5,-187.5 287.5,-168.5 192.5,-168.5"/>
<text text-anchor="middle" x="240" y="-175.5" font-family="Helvetica,sans-Serif" font-size="10.00" fill="#000000">kernel_defines.h</text>
</a>
</g>
</g>
<!-- Node3&#45;&gt;Node6 -->
<g id="edge7" class="edge">
<title>Node3&#45;&gt;Node6</title>
<path fill="none" stroke="#191970" d="M345.1679,-224.3733C324.6897,-215.3435 293.8601,-201.7494 270.8681,-191.6111"/>
<polygon fill="#191970" stroke="#191970" points="272.1093,-188.3333 261.5472,-187.5011 269.285,-194.7383 272.1093,-188.3333"/>
</g>
<!-- Node7 -->
<g id="node8" class="node">
<title>Node7</title>
<g id="a_node8"><a xlink:href="modules_8h.html" target="_top" xlink:title="Common macros and compiler attributes/pragmas configuration. ">
<polygon fill="#ffffff" stroke="#000000" points="238.5,-112.5 238.5,-131.5 303.5,-131.5 303.5,-112.5 238.5,-112.5"/>
<text text-anchor="middle" x="271" y="-119.5" font-family="Helvetica,sans-Serif" font-size="10.00" fill="#000000">modules.h</text>
</a>
</g>
</g>
<!-- Node6&#45;&gt;Node7 -->
<g id="edge8" class="edge">
<title>Node6&#45;&gt;Node7</title>
<path fill="none" stroke="#191970" d="M245.3998,-168.2455C249.6227,-160.617 255.6173,-149.7881 260.7441,-140.5267"/>
<polygon fill="#191970" stroke="#191970" points="263.881,-142.0867 265.6621,-131.6427 257.7568,-138.6965 263.881,-142.0867"/>
</g>
<!-- Node8 -->
<g id="node9" class="node">
<title>Node8</title>
<g id="a_node9"><a xlink:href="riot__version_8h.html" target="_top" xlink:title="Common macros and compiler attributes/pragmas configuration. ">
<polygon fill="#ffffff" stroke="#000000" points="139.5,-112.5 139.5,-131.5 220.5,-131.5 220.5,-112.5 139.5,-112.5"/>
<text text-anchor="middle" x="180" y="-119.5" font-family="Helvetica,sans-Serif" font-size="10.00" fill="#000000">riot_version.h</text>
</a>
</g>
</g>
<!-- Node6&#45;&gt;Node8 -->
<g id="edge9" class="edge">
<title>Node6&#45;&gt;Node8</title>
<path fill="none" stroke="#191970" d="M229.5488,-168.2455C220.7731,-160.0549 208.0446,-148.1749 197.686,-138.5069"/>
<polygon fill="#191970" stroke="#191970" points="200.0301,-135.9072 190.3314,-131.6427 195.2539,-141.0246 200.0301,-135.9072"/>
</g>
<!-- Node9 -->
<g id="node10" class="node">
<title>Node9</title>
<g id="a_node10"><a xlink:href="compiler__hints_8h.html" target="_top" xlink:title="Common macros and compiler attributes/pragmas configuration. ">
<polygon fill="#ffffff" stroke="#000000" points="28.5,-112.5 28.5,-131.5 121.5,-131.5 121.5,-112.5 28.5,-112.5"/>
<text text-anchor="middle" x="75" y="-119.5" font-family="Helvetica,sans-Serif" font-size="10.00" fill="#000000">compiler_hints.h</text>
</a>
</g>
</g>
<!-- Node6&#45;&gt;Node9 -->
<g id="edge11" class="edge">
<title>Node6&#45;&gt;Node9</title>
<path fill="none" stroke="#191970" d="M211.6355,-168.3733C184.3173,-159.1016 142.8204,-145.0178 112.7262,-134.804"/>
<polygon fill="#191970" stroke="#191970" points="113.5887,-131.4008 102.9944,-131.5011 111.339,-138.0294 113.5887,-131.4008"/>
</g>
<!-- Node11 -->
<g id="node12" class="node">
<title>Node11</title>
<g id="a_node12"><a xlink:href="container_8h.html" target="_top" xlink:title="Common macros and compiler attributes/pragmas configuration. ">
<polygon fill="#ffffff" stroke="#000000" points="321.5,-112.5 321.5,-131.5 390.5,-131.5 390.5,-112.5 321.5,-112.5"/>
<text text-anchor="middle" x="356" y="-119.5" font-family="Helvetica,sans-Serif" font-size="10.00" fill="#000000">container.h</text>
</a>
</g>
</g>
<!-- Node6&#45;&gt;Node11 -->
<g id="edge15" class="edge">
<title>Node6&#45;&gt;Node11</title>
<path fill="none" stroke="#191970" d="M259.9411,-168.3733C278.4786,-159.4241 306.3028,-145.9917 327.2413,-135.8835"/>
<polygon fill="#191970" stroke="#191970" points="328.8352,-139.0006 336.3191,-131.5011 325.7919,-132.6967 328.8352,-139.0006"/>
</g>
<!-- Node8&#45;&gt;Node1 -->
<g id="edge10" class="edge">
<title>Node8&#45;&gt;Node1</title>
<path fill="none" stroke="#191970" d="M178.9769,-112.4509C177.0197,-94.184 172.7095,-53.9553 170.1105,-29.6976"/>
<polygon fill="#191970" stroke="#191970" points="173.566,-29.0951 169.0205,-19.5249 166.6059,-29.8409 173.566,-29.0951"/>
</g>
<!-- Node9&#45;&gt;Node1 -->
<g id="edge14" class="edge">
<title>Node9&#45;&gt;Node1</title>
<path fill="none" stroke="#191970" d="M82.9291,-112.4509C98.5777,-93.6054 133.6358,-51.3849 153.517,-27.4419"/>
<polygon fill="#191970" stroke="#191970" points="156.3953,-29.4543 160.0909,-19.5249 151.0099,-24.9824 156.3953,-29.4543"/>
</g>
<!-- Node10 -->
<g id="node11" class="node">
<title>Node10</title>
<g id="a_node11"><a xlink:href="assert_8h.html" target="_top" xlink:title="POSIX.1&#45;2008 compliant version of the assert macro. ">
<polygon fill="#ffffff" stroke="#000000" points="48,-56.5 48,-75.5 102,-75.5 102,-56.5 48,-56.5"/>
<text text-anchor="middle" x="75" y="-63.5" font-family="Helvetica,sans-Serif" font-size="10.00" fill="#000000">assert.h</text>
</a>
</g>
</g>
<!-- Node9&#45;&gt;Node10 -->
<g id="edge12" class="edge">
<title>Node9&#45;&gt;Node10</title>
<path fill="none" stroke="#191970" d="M75,-112.2455C75,-104.9382 75,-94.6944 75,-85.7046"/>
<polygon fill="#191970" stroke="#191970" points="78.5001,-85.6426 75,-75.6427 71.5001,-85.6427 78.5001,-85.6426"/>
</g>
<!-- Node10&#45;&gt;Node1 -->
<g id="edge13" class="edge">
<title>Node10&#45;&gt;Node1</title>
<path fill="none" stroke="#191970" d="M91.1994,-56.2455C105.6018,-47.5731 126.8732,-34.7645 143.3799,-24.825"/>
<polygon fill="#191970" stroke="#191970" points="145.225,-27.7996 151.9863,-19.6427 141.614,-21.8028 145.225,-27.7996"/>
</g>
<!-- Node11&#45;&gt;Node1 -->
<g id="edge17" class="edge">
<title>Node11&#45;&gt;Node1</title>
<path fill="none" stroke="#191970" d="M322.8174,-112.4866C289.6064,-102.5897 241.1854,-87.0272 225,-76 206.3491,-63.2931 190.0926,-43.0071 179.7656,-28.2764"/>
<polygon fill="#191970" stroke="#191970" points="182.6317,-26.2667 174.1334,-19.9398 176.8314,-30.1854 182.6317,-26.2667"/>
</g>
<!-- Node12 -->
<g id="node13" class="node">
<title>Node12</title>
<polygon fill="#ffffff" stroke="#bfbfbf" points="234,-56.5 234,-75.5 290,-75.5 290,-56.5 234,-56.5"/>
<text text-anchor="middle" x="262" y="-63.5" font-family="Helvetica,sans-Serif" font-size="10.00" fill="#000000">stddef.h</text>
</g>
<!-- Node11&#45;&gt;Node12 -->
<g id="edge16" class="edge">
<title>Node11&#45;&gt;Node12</title>
<path fill="none" stroke="#191970" d="M339.6264,-112.2455C325.0692,-103.5731 303.569,-90.7645 286.8848,-80.825"/>
<polygon fill="#191970" stroke="#191970" points="288.5683,-77.7539 278.1859,-75.6427 284.9856,-83.7676 288.5683,-77.7539"/>
</g>
<!-- Node14 -->
<g id="node15" class="node">
<title>Node14</title>
<polygon fill="#ffffff" stroke="#bfbfbf" points="598,-.5 598,-19.5 648,-19.5 648,-.5 598,-.5"/>
<text text-anchor="middle" x="623" y="-7.5" font-family="Helvetica,sans-Serif" font-size="10.00" fill="#000000">limits.h</text>
</g>
<!-- Node13&#45;&gt;Node14 -->
<g id="edge19" class="edge">
<title>Node13&#45;&gt;Node14</title>
<path fill="none" stroke="#191970" d="M611.4386,-56.2455C613.2855,-48.8579 615.8828,-38.4689 618.1478,-29.4087"/>
<polygon fill="#191970" stroke="#191970" points="621.5594,-30.193 620.5893,-19.6427 614.7684,-28.4952 621.5594,-30.193"/>
</g>
<!-- Node15 -->
<g id="node16" class="node">
<title>Node15</title>
<polygon fill="#ffffff" stroke="#bfbfbf" points="424,-.5 424,-19.5 484,-19.5 484,-.5 424,-.5"/>
<text text-anchor="middle" x="454" y="-7.5" font-family="Helvetica,sans-Serif" font-size="10.00" fill="#000000">stdbool.h</text>
</g>
<!-- Node13&#45;&gt;Node15 -->
<g id="edge20" class="edge">
<title>Node13&#45;&gt;Node15</title>
<path fill="none" stroke="#191970" d="M582.3546,-56.3733C556.8036,-47.1419 518.0488,-33.1402 489.8091,-22.9375"/>
<polygon fill="#191970" stroke="#191970" points="490.8921,-19.6074 480.2978,-19.5011 488.5135,-26.1909 490.8921,-19.6074"/>
</g>
<!-- Node16 -->
<g id="node17" class="node">
<title>Node16</title>
<polygon fill="#ffffff" stroke="#bfbfbf" points="502.5,-.5 502.5,-19.5 579.5,-19.5 579.5,-.5 502.5,-.5"/>
<text text-anchor="middle" x="541" y="-7.5" font-family="Helvetica,sans-Serif" font-size="10.00" fill="#000000">periph_cpu.h</text>
</g>
<!-- Node13&#45;&gt;Node16 -->
<g id="edge21" class="edge">
<title>Node13&#45;&gt;Node16</title>
<path fill="none" stroke="#191970" d="M597.1553,-56.2455C587.112,-47.9746 572.5005,-35.9416 560.6996,-26.2232"/>
<polygon fill="#191970" stroke="#191970" points="562.6533,-23.298 552.709,-19.6427 558.2033,-28.7015 562.6533,-23.298"/>
</g>
<!-- Node17 -->
<g id="node18" class="node">
<title>Node17</title>
<polygon fill="#ffffff" stroke="#bfbfbf" points="666.5,-.5 666.5,-19.5 747.5,-19.5 747.5,-.5 666.5,-.5"/>
<text text-anchor="middle" x="707" y="-7.5" font-family="Helvetica,sans-Serif" font-size="10.00" fill="#000000">periph_conf.h</text>
</g>
<!-- Node13&#45;&gt;Node17 -->
<g id="edge22" class="edge">
<title>Node13&#45;&gt;Node17</title>
<path fill="none" stroke="#191970" d="M626.0703,-56.2455C641.247,-47.5731 663.6621,-34.7645 681.0563,-24.825"/>
<polygon fill="#191970" stroke="#191970" points="683.1794,-27.643 690.1253,-19.6427 679.7064,-21.5653 683.1794,-27.643"/>
</g>
<!-- Node18&#45;&gt;Node1 -->
<g id="edge29" class="edge">
<title>Node18&#45;&gt;Node1</title>
<path fill="none" stroke="#191970" d="M439.278,-112.4236C411.6004,-103.9526 371.1154,-90.6834 337,-76 319.4695,-68.4548 316.4952,-63.6266 299,-56 267.455,-42.2488 230.3536,-29.5292 203.703,-20.9671"/>
<polygon fill="#191970" stroke="#191970" points="204.6243,-17.5875 194.034,-17.8957 202.505,-24.259 204.6243,-17.5875"/>
</g>
<!-- Node18&#45;&gt;Node12 -->
<g id="edge28" class="edge">
<title>Node18&#45;&gt;Node12</title>
<path fill="none" stroke="#191970" d="M435.8997,-112.3733C398.0069,-102.2685 338.6799,-86.448 300.0654,-76.1508"/>
<polygon fill="#191970" stroke="#191970" points="300.8039,-72.7255 290.2397,-73.5306 299.0003,-79.4891 300.8039,-72.7255"/>
</g>
<!-- Node18&#45;&gt;Node13 -->
<g id="edge32" class="edge">
<title>Node18&#45;&gt;Node13</title>
<path fill="none" stroke="#191970" d="M495.5511,-112.3733C517.8391,-103.2629 551.4937,-89.5062 576.3637,-79.3404"/>
<polygon fill="#191970" stroke="#191970" points="577.8239,-82.5247 585.7562,-75.5011 575.1753,-76.0451 577.8239,-82.5247"/>
</g>
<!-- Node18&#45;&gt;Node15 -->
<g id="edge27" class="edge">
<title>Node18&#45;&gt;Node15</title>
<path fill="none" stroke="#191970" d="M476.4943,-112.4485C481.9785,-99.475 489.8406,-75.6475 484,-56 480.9674,-45.7984 474.8756,-35.7475 468.9691,-27.6555"/>
<polygon fill="#191970" stroke="#191970" points="471.6964,-25.4613 462.7861,-19.7291 466.177,-29.7667 471.6964,-25.4613"/>
</g>
<!-- Node18&#45;&gt;Node16 -->
<g id="edge30" class="edge">
<title>Node18&#45;&gt;Node16</title>
<path fill="none" stroke="#191970" d="M477.8829,-112.4509C489.3913,-93.7707 515.0488,-52.1238 529.8638,-28.0761"/>
<polygon fill="#191970" stroke="#191970" points="532.8666,-29.8747 535.132,-19.5249 526.9068,-26.203 532.8666,-29.8747"/>
</g>
<!-- Node18&#45;&gt;Node17 -->
<g id="edge31" class="edge">
<title>Node18&#45;&gt;Node17</title>
<path fill="none" stroke="#191970" d="M508.8024,-115.9426C555.7495,-107.7021 633.7707,-92.1284 658,-76 675.736,-64.1939 689.4506,-43.7108 697.802,-28.6869"/>
<polygon fill="#191970" stroke="#191970" points="700.9459,-30.228 702.5039,-19.7484 694.7508,-26.9691 700.9459,-30.228"/>
</g>
<!-- Node19 -->
<g id="node20" class="node">
<title>Node19</title>
<g id="a_node20"><a xlink:href="endian_8h.html" target="_top" xlink:title="libc header for endian conversion ">
<polygon fill="#ffffff" stroke="#000000" points="346.5,-56.5 346.5,-75.5 403.5,-75.5 403.5,-56.5 346.5,-56.5"/>
<text text-anchor="middle" x="375" y="-63.5" font-family="Helvetica,sans-Serif" font-size="10.00" fill="#000000">endian.h</text>
</a>
</g>
</g>
<!-- Node18&#45;&gt;Node19 -->
<g id="edge24" class="edge">
<title>Node18&#45;&gt;Node19</title>
<path fill="none" stroke="#191970" d="M455.1039,-112.2455C440.082,-103.5731 417.8957,-90.7645 400.679,-80.825"/>
<polygon fill="#191970" stroke="#191970" points="402.1128,-77.6114 391.7025,-75.6427 398.6129,-83.6737 402.1128,-77.6114"/>
</g>
<!-- Node20 -->
<g id="node21" class="node">
<title>Node20</title>
<g id="a_node21"><a xlink:href="errno_8h.html" target="_top" xlink:title="errno.h">
<polygon fill="#ffffff" stroke="#000000" points="421.5,-56.5 421.5,-75.5 474.5,-75.5 474.5,-56.5 421.5,-56.5"/>
<text text-anchor="middle" x="448" y="-63.5" font-family="Helvetica,sans-Serif" font-size="10.00" fill="#000000">errno.h</text>
</a>
</g>
</g>
<!-- Node18&#45;&gt;Node20 -->
<g id="edge26" class="edge">
<title>Node18&#45;&gt;Node20</title>
<path fill="none" stroke="#191970" d="M467.8195,-112.2455C464.619,-104.7776 460.104,-94.2427 456.1916,-85.1137"/>
<polygon fill="#191970" stroke="#191970" points="459.2888,-83.4554 452.1326,-75.6427 452.8548,-86.2129 459.2888,-83.4554"/>
</g>
<!-- Node19&#45;&gt;Node1 -->
<g id="edge25" class="edge">
<title>Node19&#45;&gt;Node1</title>
<path fill="none" stroke="#191970" d="M346.2175,-58.2134C309.0424,-48.1564 244.3301,-30.6497 203.9577,-19.7277"/>
<polygon fill="#191970" stroke="#191970" points="204.8165,-16.3343 194.2495,-17.1013 202.9885,-23.0914 204.8165,-16.3343"/>
</g>
</g>
</svg>
