<?xml version="1.0" encoding="UTF-8" standalone="no"?>
<!DOCTYPE svg PUBLIC "-//W3C//DTD SVG 1.1//EN"
 "http://www.w3.org/Graphics/SVG/1.1/DTD/svg11.dtd">
<!-- Generated by graphviz version 2.40.1 (0)
 -->
<!-- Title: drivers/nrf24l01p_ng/include/nrf24l01p_ng_constants.h Pages: 1 -->
<svg width="1328pt" height="386pt"
 viewBox="0.00 0.00 1327.50 386.00" xmlns="http://www.w3.org/2000/svg" xmlns:xlink="http://www.w3.org/1999/xlink">
<g id="graph0" class="graph" transform="scale(1 1) rotate(0) translate(4 382)">
<title>drivers/nrf24l01p_ng/include/nrf24l01p_ng_constants.h</title>
<polygon fill="#ffffff" stroke="transparent" points="-4,4 -4,-382 1323.5,-382 1323.5,4 -4,4"/>
<!-- Node0 -->
<g id="node1" class="node">
<title>Node0</title>
<polygon fill="#bfbfbf" stroke="#000000" points="477,-336.5 477,-377.5 597,-377.5 597,-336.5 477,-336.5"/>
<text text-anchor="start" x="485" y="-365.5" font-family="Helvetica,sans-Serif" font-size="10.00" fill="#000000">drivers/nrf24l01p_ng</text>
<text text-anchor="start" x="485" y="-354.5" font-family="Helvetica,sans-Serif" font-size="10.00" fill="#000000">/include/nrf24l01p_ng</text>
<text text-anchor="middle" x="537" y="-343.5" font-family="Helvetica,sans-Serif" font-size="10.00" fill="#000000">_constants.h</text>
</g>
<!-- Node1 -->
<g id="node2" class="node">
<title>Node1</title>
<g id="a_node2"><a xlink:href="nrf24l01p__ng_8h.html" target="_top" xlink:title="Public interface for NRF24L01+ (NG) devices. ">
<polygon fill="#ffffff" stroke="#000000" points="492.5,-280.5 492.5,-299.5 581.5,-299.5 581.5,-280.5 492.5,-280.5"/>
<text text-anchor="middle" x="537" y="-287.5" font-family="Helvetica,sans-Serif" font-size="10.00" fill="#000000">nrf24l01p_ng.h</text>
</a>
</g>
</g>
<!-- Node0&#45;&gt;Node1 -->
<g id="edge1" class="edge">
<title>Node0&#45;&gt;Node1</title>
<path fill="none" stroke="#191970" d="M537,-336.168C537,-327.8226 537,-318.2471 537,-309.9879"/>
<polygon fill="#191970" stroke="#191970" points="540.5001,-309.7804 537,-299.7805 533.5001,-309.7805 540.5001,-309.7804"/>
</g>
<!-- Node2 -->
<g id="node3" class="node">
<title>Node2</title>
<polygon fill="#ffffff" stroke="#bfbfbf" points="635,-.5 635,-19.5 687,-19.5 687,-.5 635,-.5"/>
<text text-anchor="middle" x="661" y="-7.5" font-family="Helvetica,sans-Serif" font-size="10.00" fill="#000000">stdint.h</text>
</g>
<!-- Node1&#45;&gt;Node2 -->
<g id="edge2" class="edge">
<title>Node1&#45;&gt;Node2</title>
<path fill="none" stroke="#191970" d="M519.8476,-280.3572C465.843,-249.8258 302.106,-155.8896 289,-132 284.7246,-124.2068 285.916,-120.3368 289,-112 300.3731,-81.2556 308.2575,-71.7619 337,-56 385.9047,-29.1815 550.3824,-16.4418 624.3838,-11.9607"/>
<polygon fill="#191970" stroke="#191970" points="624.8438,-15.4398 634.6211,-11.3588 624.4328,-8.4518 624.8438,-15.4398"/>
</g>
<!-- Node3 -->
<g id="node4" class="node">
<title>Node3</title>
<polygon fill="#ffffff" stroke="#bfbfbf" points="262.5,-224.5 262.5,-243.5 315.5,-243.5 315.5,-224.5 262.5,-224.5"/>
<text text-anchor="middle" x="289" y="-231.5" font-family="Helvetica,sans-Serif" font-size="10.00" fill="#000000">board.h</text>
</g>
<!-- Node1&#45;&gt;Node3 -->
<g id="edge3" class="edge">
<title>Node1&#45;&gt;Node3</title>
<path fill="none" stroke="#191970" d="M492.9254,-280.4806C450.9778,-271.3556 386.1107,-257.0758 330,-244 328.5729,-243.6674 327.1185,-243.3258 325.6499,-242.9785"/>
<polygon fill="#191970" stroke="#191970" points="326.4275,-239.5659 315.8874,-240.6416 324.7978,-246.3735 326.4275,-239.5659"/>
</g>
<!-- Node4 -->
<g id="node5" class="node">
<title>Node4</title>
<g id="a_node5"><a xlink:href="kernel__defines_8h.html" target="_top" xlink:title="Common macros and compiler attributes/pragmas configuration. ">
<polygon fill="#ffffff" stroke="#000000" points="450.5,-168.5 450.5,-187.5 545.5,-187.5 545.5,-168.5 450.5,-168.5"/>
<text text-anchor="middle" x="498" y="-175.5" font-family="Helvetica,sans-Serif" font-size="10.00" fill="#000000">kernel_defines.h</text>
</a>
</g>
</g>
<!-- Node1&#45;&gt;Node4 -->
<g id="edge4" class="edge">
<title>Node1&#45;&gt;Node4</title>
<path fill="none" stroke="#191970" d="M530.5635,-280.1659C524.9076,-271.1113 516.8447,-257.1324 512,-244 506.4256,-228.8897 502.8005,-210.971 500.6389,-197.62"/>
<polygon fill="#191970" stroke="#191970" points="504.088,-197.0184 499.1567,-187.6412 497.164,-198.047 504.088,-197.0184"/>
</g>
<!-- Node11 -->
<g id="node12" class="node">
<title>Node11</title>
<g id="a_node12"><a xlink:href="nettype_8h.html" target="_top" xlink:title="Protocol type definitions. ">
<polygon fill="#ffffff" stroke="#000000" points="137.5,-224.5 137.5,-243.5 244.5,-243.5 244.5,-224.5 137.5,-224.5"/>
<text text-anchor="middle" x="191" y="-231.5" font-family="Helvetica,sans-Serif" font-size="10.00" fill="#000000">net/gnrc/nettype.h</text>
</a>
</g>
</g>
<!-- Node1&#45;&gt;Node11 -->
<g id="edge15" class="edge">
<title>Node1&#45;&gt;Node11</title>
<path fill="none" stroke="#191970" d="M492.4749,-282.7936C432.023,-273.0095 323.6237,-255.4651 254.6085,-244.295"/>
<polygon fill="#191970" stroke="#191970" points="255.1529,-240.8377 244.7221,-242.6949 254.0344,-247.7477 255.1529,-240.8377"/>
</g>
<!-- Node15 -->
<g id="node16" class="node">
<title>Node15</title>
<g id="a_node16"><a xlink:href="drivers_2include_2net_2netdev_8h.html" target="_top" xlink:title="Definitions low&#45;level network driver interface. ">
<polygon fill="#ffffff" stroke="#000000" points="665.5,-224.5 665.5,-243.5 742.5,-243.5 742.5,-224.5 665.5,-224.5"/>
<text text-anchor="middle" x="704" y="-231.5" font-family="Helvetica,sans-Serif" font-size="10.00" fill="#000000">net/netdev.h</text>
</a>
</g>
</g>
<!-- Node1&#45;&gt;Node15 -->
<g id="edge20" class="edge">
<title>Node1&#45;&gt;Node15</title>
<path fill="none" stroke="#191970" d="M565.7083,-280.3733C593.3577,-271.1016 635.3576,-257.0178 665.8166,-246.804"/>
<polygon fill="#191970" stroke="#191970" points="667.2979,-249.9989 675.6663,-243.5011 665.0724,-243.3621 667.2979,-249.9989"/>
</g>
<!-- Node22 -->
<g id="node23" class="node">
<title>Node22</title>
<g id="a_node23"><a xlink:href="drivers_2include_2periph_2gpio_8h.html" target="_top" xlink:title="Low&#45;level GPIO peripheral driver interface definitions. ">
<polygon fill="#ffffff" stroke="#000000" points="1112,-168.5 1112,-187.5 1192,-187.5 1192,-168.5 1112,-168.5"/>
<text text-anchor="middle" x="1152" y="-175.5" font-family="Helvetica,sans-Serif" font-size="10.00" fill="#000000">periph/gpio.h</text>
</a>
</g>
</g>
<!-- Node1&#45;&gt;Node22 -->
<g id="edge34" class="edge">
<title>Node1&#45;&gt;Node22</title>
<path fill="none" stroke="#191970" d="M581.6762,-288.2391C687.3555,-283.6929 950.1079,-270.055 1034,-244 1070.4129,-232.691 1108.1252,-209.1608 1130.8273,-193.4719"/>
<polygon fill="#191970" stroke="#191970" points="1132.8793,-196.3077 1139.0364,-187.6855 1128.8464,-190.5862 1132.8793,-196.3077"/>
</g>
<!-- Node26 -->
<g id="node27" class="node">
<title>Node26</title>
<g id="a_node27"><a xlink:href="spi_8h.html" target="_top" xlink:title="Low&#45;level SPI peripheral driver interface definition. ">
<polygon fill="#ffffff" stroke="#000000" points="951.5,-224.5 951.5,-243.5 1024.5,-243.5 1024.5,-224.5 951.5,-224.5"/>
<text text-anchor="middle" x="988" y="-231.5" font-family="Helvetica,sans-Serif" font-size="10.00" fill="#000000">periph/spi.h</text>
</a>
</g>
</g>
<!-- Node1&#45;&gt;Node26 -->
<g id="edge39" class="edge">
<title>Node1&#45;&gt;Node26</title>
<path fill="none" stroke="#191970" d="M581.8924,-284.4258C667.6394,-273.7787 853.9338,-250.6468 941.1707,-239.8147"/>
<polygon fill="#191970" stroke="#191970" points="941.8124,-243.262 951.3049,-238.5564 940.9498,-236.3154 941.8124,-243.262"/>
</g>
<!-- Node28 -->
<g id="node29" class="node">
<title>Node28</title>
<g id="a_node29"><a xlink:href="nrf24l01p__ng__types_8h.html" target="_top" xlink:title="Definitions of user visible types for the NRF24L01+ (NG) device driver. ">
<polygon fill="#ffffff" stroke="#000000" points="521.5,-224.5 521.5,-243.5 640.5,-243.5 640.5,-224.5 521.5,-224.5"/>
<text text-anchor="middle" x="581" y="-231.5" font-family="Helvetica,sans-Serif" font-size="10.00" fill="#000000">nrf24l01p_ng_types.h</text>
</a>
</g>
</g>
<!-- Node1&#45;&gt;Node28 -->
<g id="edge49" class="edge">
<title>Node1&#45;&gt;Node28</title>
<path fill="none" stroke="#191970" d="M544.6642,-280.2455C550.8473,-272.3761 559.7063,-261.101 567.1289,-251.6542"/>
<polygon fill="#191970" stroke="#191970" points="569.9975,-253.6683 573.4236,-243.6427 564.4932,-249.3435 569.9975,-253.6683"/>
</g>
<!-- Node5 -->
<g id="node6" class="node">
<title>Node5</title>
<g id="a_node6"><a xlink:href="modules_8h.html" target="_top" xlink:title="Common macros and compiler attributes/pragmas configuration. ">
<polygon fill="#ffffff" stroke="#000000" points="298.5,-112.5 298.5,-131.5 363.5,-131.5 363.5,-112.5 298.5,-112.5"/>
<text text-anchor="middle" x="331" y="-119.5" font-family="Helvetica,sans-Serif" font-size="10.00" fill="#000000">modules.h</text>
</a>
</g>
</g>
<!-- Node4&#45;&gt;Node5 -->
<g id="edge5" class="edge">
<title>Node4&#45;&gt;Node5</title>
<path fill="none" stroke="#191970" d="M469.2917,-168.3733C441.6423,-159.1016 399.6424,-145.0178 369.1834,-134.804"/>
<polygon fill="#191970" stroke="#191970" points="369.9276,-131.3621 359.3337,-131.5011 367.7021,-137.9989 369.9276,-131.3621"/>
</g>
<!-- Node6 -->
<g id="node7" class="node">
<title>Node6</title>
<g id="a_node7"><a xlink:href="riot__version_8h.html" target="_top" xlink:title="Common macros and compiler attributes/pragmas configuration. ">
<polygon fill="#ffffff" stroke="#000000" points="456.5,-56.5 456.5,-75.5 537.5,-75.5 537.5,-56.5 456.5,-56.5"/>
<text text-anchor="middle" x="497" y="-63.5" font-family="Helvetica,sans-Serif" font-size="10.00" fill="#000000">riot_version.h</text>
</a>
</g>
</g>
<!-- Node4&#45;&gt;Node6 -->
<g id="edge6" class="edge">
<title>Node4&#45;&gt;Node6</title>
<path fill="none" stroke="#191970" d="M497.9147,-168.4509C497.7516,-150.184 497.3925,-109.9553 497.1759,-85.6976"/>
<polygon fill="#191970" stroke="#191970" points="500.6743,-85.4932 497.085,-75.5249 493.6746,-85.5558 500.6743,-85.4932"/>
</g>
<!-- Node7 -->
<g id="node8" class="node">
<title>Node7</title>
<g id="a_node8"><a xlink:href="compiler__hints_8h.html" target="_top" xlink:title="Common macros and compiler attributes/pragmas configuration. ">
<polygon fill="#ffffff" stroke="#000000" points="381.5,-112.5 381.5,-131.5 474.5,-131.5 474.5,-112.5 381.5,-112.5"/>
<text text-anchor="middle" x="428" y="-119.5" font-family="Helvetica,sans-Serif" font-size="10.00" fill="#000000">compiler_hints.h</text>
</a>
</g>
</g>
<!-- Node4&#45;&gt;Node7 -->
<g id="edge8" class="edge">
<title>Node4&#45;&gt;Node7</title>
<path fill="none" stroke="#191970" d="M485.8069,-168.2455C475.3679,-159.8943 460.1345,-147.7076 447.926,-137.9408"/>
<polygon fill="#191970" stroke="#191970" points="450.0485,-135.1566 440.0533,-131.6427 445.6756,-140.6227 450.0485,-135.1566"/>
</g>
<!-- Node9 -->
<g id="node10" class="node">
<title>Node9</title>
<g id="a_node10"><a xlink:href="container_8h.html" target="_top" xlink:title="Common macros and compiler attributes/pragmas configuration. ">
<polygon fill="#ffffff" stroke="#000000" points="594.5,-56.5 594.5,-75.5 663.5,-75.5 663.5,-56.5 594.5,-56.5"/>
<text text-anchor="middle" x="629" y="-63.5" font-family="Helvetica,sans-Serif" font-size="10.00" fill="#000000">container.h</text>
</a>
</g>
</g>
<!-- Node4&#45;&gt;Node9 -->
<g id="edge12" class="edge">
<title>Node4&#45;&gt;Node9</title>
<path fill="none" stroke="#191970" d="M509.169,-168.4509C531.5983,-149.2747 582.3357,-105.8962 610.0532,-82.1988"/>
<polygon fill="#191970" stroke="#191970" points="612.5329,-84.6835 617.8593,-75.5249 607.9841,-79.363 612.5329,-84.6835"/>
</g>
<!-- Node6&#45;&gt;Node2 -->
<g id="edge7" class="edge">
<title>Node6&#45;&gt;Node2</title>
<path fill="none" stroke="#191970" d="M525.1926,-56.3733C552.8389,-46.933 595.0952,-32.5041 625.1227,-22.2508"/>
<polygon fill="#191970" stroke="#191970" points="626.4658,-25.4906 634.7983,-18.9469 624.2038,-18.8662 626.4658,-25.4906"/>
</g>
<!-- Node7&#45;&gt;Node2 -->
<g id="edge11" class="edge">
<title>Node7&#45;&gt;Node2</title>
<path fill="none" stroke="#191970" d="M427.8688,-112.3564C428.2266,-97.9205 431.138,-70.81 447,-56 472.3893,-32.2945 570.6474,-18.9878 624.754,-13.3168"/>
<polygon fill="#191970" stroke="#191970" points="625.3557,-16.7739 634.952,-12.2836 624.6501,-9.8095 625.3557,-16.7739"/>
</g>
<!-- Node8 -->
<g id="node9" class="node">
<title>Node8</title>
<g id="a_node9"><a xlink:href="assert_8h.html" target="_top" xlink:title="POSIX.1&#45;2008 compliant version of the assert macro. ">
<polygon fill="#ffffff" stroke="#000000" points="346,-56.5 346,-75.5 400,-75.5 400,-56.5 346,-56.5"/>
<text text-anchor="middle" x="373" y="-63.5" font-family="Helvetica,sans-Serif" font-size="10.00" fill="#000000">assert.h</text>
</a>
</g>
</g>
<!-- Node7&#45;&gt;Node8 -->
<g id="edge9" class="edge">
<title>Node7&#45;&gt;Node8</title>
<path fill="none" stroke="#191970" d="M418.4197,-112.2455C410.4542,-104.1352 398.9359,-92.4075 389.4921,-82.7919"/>
<polygon fill="#191970" stroke="#191970" points="391.9747,-80.3247 382.4705,-75.6427 386.9805,-85.2297 391.9747,-80.3247"/>
</g>
<!-- Node8&#45;&gt;Node2 -->
<g id="edge10" class="edge">
<title>Node8&#45;&gt;Node2</title>
<path fill="none" stroke="#191970" d="M400.2989,-59.1198C404.864,-58.0331 409.5588,-56.9544 414,-56 488.6932,-39.9486 576.7993,-24.3288 625.0013,-16.0636"/>
<polygon fill="#191970" stroke="#191970" points="625.6779,-19.4988 634.9463,-14.3657 624.4998,-12.5986 625.6779,-19.4988"/>
</g>
<!-- Node9&#45;&gt;Node2 -->
<g id="edge14" class="edge">
<title>Node9&#45;&gt;Node2</title>
<path fill="none" stroke="#191970" d="M634.574,-56.2455C638.9331,-48.617 645.1211,-37.7881 650.4133,-28.5267"/>
<polygon fill="#191970" stroke="#191970" points="653.5673,-30.0616 655.4899,-19.6427 647.4896,-26.5886 653.5673,-30.0616"/>
</g>
<!-- Node10 -->
<g id="node11" class="node">
<title>Node10</title>
<polygon fill="#ffffff" stroke="#bfbfbf" points="948,-.5 948,-19.5 1004,-19.5 1004,-.5 948,-.5"/>
<text text-anchor="middle" x="976" y="-7.5" font-family="Helvetica,sans-Serif" font-size="10.00" fill="#000000">stddef.h</text>
</g>
<!-- Node9&#45;&gt;Node10 -->
<g id="edge13" class="edge">
<title>Node9&#45;&gt;Node10</title>
<path fill="none" stroke="#191970" d="M663.5403,-60.4258C728.7621,-49.9001 869.5918,-27.1725 937.6448,-16.1899"/>
<polygon fill="#191970" stroke="#191970" points="938.2152,-19.6432 947.5298,-14.5946 937.0999,-12.7326 938.2152,-19.6432"/>
</g>
<!-- Node11&#45;&gt;Node5 -->
<g id="edge17" class="edge">
<title>Node11&#45;&gt;Node5</title>
<path fill="none" stroke="#191970" d="M192.0461,-224.1648C194.0542,-209.975 199.7064,-183.7399 215,-168 234.6383,-147.7887 264.2687,-136.2404 288.6667,-129.7696"/>
<polygon fill="#191970" stroke="#191970" points="289.5374,-133.1599 298.4134,-127.3749 287.8671,-126.3621 289.5374,-133.1599"/>
</g>
<!-- Node12 -->
<g id="node13" class="node">
<title>Node12</title>
<g id="a_node13"><a xlink:href="inttypes_8h.html" target="_top" xlink:title="Adds include for missing inttype definitions. ">
<polygon fill="#ffffff" stroke="#000000" points="104.5,-168.5 104.5,-187.5 167.5,-187.5 167.5,-168.5 104.5,-168.5"/>
<text text-anchor="middle" x="136" y="-175.5" font-family="Helvetica,sans-Serif" font-size="10.00" fill="#000000">inttypes.h</text>
</a>
</g>
</g>
<!-- Node11&#45;&gt;Node12 -->
<g id="edge16" class="edge">
<title>Node11&#45;&gt;Node12</title>
<path fill="none" stroke="#191970" d="M181.4197,-224.2455C173.4542,-216.1352 161.9359,-204.4075 152.4921,-194.7919"/>
<polygon fill="#191970" stroke="#191970" points="154.9747,-192.3247 145.4705,-187.6427 149.9805,-197.2297 154.9747,-192.3247"/>
</g>
<!-- Node13 -->
<g id="node14" class="node">
<title>Node13</title>
<g id="a_node14"><a xlink:href="ethertype_8h.html" target="_top" xlink:title="Ether type definitions. ">
<polygon fill="#ffffff" stroke="#000000" points="224,-168.5 224,-187.5 316,-187.5 316,-168.5 224,-168.5"/>
<text text-anchor="middle" x="270" y="-175.5" font-family="Helvetica,sans-Serif" font-size="10.00" fill="#000000">net/ethertype.h</text>
</a>
</g>
</g>
<!-- Node11&#45;&gt;Node13 -->
<g id="edge18" class="edge">
<title>Node11&#45;&gt;Node13</title>
<path fill="none" stroke="#191970" d="M204.7607,-224.2455C216.6552,-215.814 234.065,-203.4729 247.9085,-193.6598"/>
<polygon fill="#191970" stroke="#191970" points="250.2628,-196.2811 256.3969,-187.6427 246.2146,-190.5704 250.2628,-196.2811"/>
</g>
<!-- Node14 -->
<g id="node15" class="node">
<title>Node14</title>
<g id="a_node15"><a xlink:href="protnum_8h.html" target="_top" xlink:title="Protocol number definitions. ">
<polygon fill="#ffffff" stroke="#000000" points="0,-168.5 0,-187.5 86,-187.5 86,-168.5 0,-168.5"/>
<text text-anchor="middle" x="43" y="-175.5" font-family="Helvetica,sans-Serif" font-size="10.00" fill="#000000">net/protnum.h</text>
</a>
</g>
</g>
<!-- Node11&#45;&gt;Node14 -->
<g id="edge19" class="edge">
<title>Node11&#45;&gt;Node14</title>
<path fill="none" stroke="#191970" d="M165.5579,-224.3733C141.2674,-215.1822 104.4792,-201.2624 77.5457,-191.0713"/>
<polygon fill="#191970" stroke="#191970" points="78.7016,-187.7666 68.1101,-187.5011 76.2243,-194.3136 78.7016,-187.7666"/>
</g>
<!-- Node15&#45;&gt;Node2 -->
<g id="edge21" class="edge">
<title>Node15&#45;&gt;Node2</title>
<path fill="none" stroke="#191970" d="M689.3148,-224.2577C678.3846,-216.0536 664.3102,-203.2342 658,-188 635.4233,-133.4951 678.9079,-114.5899 672,-56 670.9571,-47.1546 668.8232,-37.5467 666.71,-29.4104"/>
<polygon fill="#191970" stroke="#191970" points="670.0772,-28.4548 664.0375,-19.7501 663.3306,-30.3213 670.0772,-28.4548"/>
</g>
<!-- Node15&#45;&gt;Node4 -->
<g id="edge33" class="edge">
<title>Node15&#45;&gt;Node4</title>
<path fill="none" stroke="#191970" d="M668.5873,-224.3733C633.7395,-214.9001 580.4118,-200.4032 542.6707,-190.1435"/>
<polygon fill="#191970" stroke="#191970" points="543.5185,-186.747 532.9506,-187.5011 541.6822,-193.5019 543.5185,-186.747"/>
</g>
<!-- Node16 -->
<g id="node17" class="node">
<title>Node16</title>
<g id="a_node17"><a xlink:href="errno_8h.html" target="_top" xlink:title="errno.h">
<polygon fill="#ffffff" stroke="#000000" points="827.5,-168.5 827.5,-187.5 880.5,-187.5 880.5,-168.5 827.5,-168.5"/>
<text text-anchor="middle" x="854" y="-175.5" font-family="Helvetica,sans-Serif" font-size="10.00" fill="#000000">errno.h</text>
</a>
</g>
</g>
<!-- Node15&#45;&gt;Node16 -->
<g id="edge22" class="edge">
<title>Node15&#45;&gt;Node16</title>
<path fill="none" stroke="#191970" d="M729.7859,-224.3733C754.4047,-215.1822 791.69,-201.2624 818.9875,-191.0713"/>
<polygon fill="#191970" stroke="#191970" points="820.4063,-194.2777 828.5506,-187.5011 817.958,-187.7198 820.4063,-194.2777"/>
</g>
<!-- Node17 -->
<g id="node18" class="node">
<title>Node17</title>
<g id="a_node18"><a xlink:href="iolist_8h.html" target="_top" xlink:title="iolist scatter / gather IO ">
<polygon fill="#ffffff" stroke="#000000" points="762.5,-168.5 762.5,-187.5 809.5,-187.5 809.5,-168.5 762.5,-168.5"/>
<text text-anchor="middle" x="786" y="-175.5" font-family="Helvetica,sans-Serif" font-size="10.00" fill="#000000">iolist.h</text>
</a>
</g>
</g>
<!-- Node15&#45;&gt;Node17 -->
<g id="edge23" class="edge">
<title>Node15&#45;&gt;Node17</title>
<path fill="none" stroke="#191970" d="M718.2833,-224.2455C730.747,-215.7337 749.0451,-203.2375 763.4792,-193.3801"/>
<polygon fill="#191970" stroke="#191970" points="765.5962,-196.1726 771.8804,-187.6427 761.6485,-190.392 765.5962,-196.1726"/>
</g>
<!-- Node20 -->
<g id="node21" class="node">
<title>Node20</title>
<g id="a_node21"><a xlink:href="netopt_8h.html" target="_top" xlink:title="Definition of global configuration options. ">
<polygon fill="#ffffff" stroke="#000000" points="667.5,-168.5 667.5,-187.5 744.5,-187.5 744.5,-168.5 667.5,-168.5"/>
<text text-anchor="middle" x="706" y="-175.5" font-family="Helvetica,sans-Serif" font-size="10.00" fill="#000000">net/netopt.h</text>
</a>
</g>
</g>
<!-- Node15&#45;&gt;Node20 -->
<g id="edge30" class="edge">
<title>Node15&#45;&gt;Node20</title>
<path fill="none" stroke="#191970" d="M704.3484,-224.2455C704.6093,-216.9382 704.9752,-206.6944 705.2963,-197.7046"/>
<polygon fill="#191970" stroke="#191970" points="708.7964,-197.7613 705.6556,-187.6427 701.8008,-197.5113 708.7964,-197.7613"/>
</g>
<!-- Node18 -->
<g id="node19" class="node">
<title>Node18</title>
<g id="a_node19"><a xlink:href="unistd_8h_source.html" target="_top" xlink:title="unistd.h">
<polygon fill="#ffffff" stroke="#000000" points="886,-112.5 886,-131.5 940,-131.5 940,-112.5 886,-112.5"/>
<text text-anchor="middle" x="913" y="-119.5" font-family="Helvetica,sans-Serif" font-size="10.00" fill="#000000">unistd.h</text>
</a>
</g>
</g>
<!-- Node17&#45;&gt;Node18 -->
<g id="edge24" class="edge">
<title>Node17&#45;&gt;Node18</title>
<path fill="none" stroke="#191970" d="M807.8321,-168.3733C828.3103,-159.3435 859.1399,-145.7494 882.1319,-135.6111"/>
<polygon fill="#191970" stroke="#191970" points="883.715,-138.7383 891.4528,-131.5011 880.8907,-132.3333 883.715,-138.7383"/>
</g>
<!-- Node18&#45;&gt;Node2 -->
<g id="edge26" class="edge">
<title>Node18&#45;&gt;Node2</title>
<path fill="none" stroke="#191970" d="M907.6614,-112.2165C899.1557,-97.5979 881.1039,-70.2519 858,-56 831.3491,-39.5601 746.2451,-23.7043 697.0493,-15.5952"/>
<polygon fill="#191970" stroke="#191970" points="697.5621,-12.1327 687.1304,-13.985 696.4403,-19.0423 697.5621,-12.1327"/>
</g>
<!-- Node18&#45;&gt;Node10 -->
<g id="edge25" class="edge">
<title>Node18&#45;&gt;Node10</title>
<path fill="none" stroke="#191970" d="M940.2733,-113.354C957.5887,-106.2868 978.625,-94.4071 989,-76 997.2136,-61.4277 992.1663,-42.5008 986.1261,-28.6539"/>
<polygon fill="#191970" stroke="#191970" points="989.247,-27.0682 981.7278,-19.6041 982.9511,-30.1281 989.247,-27.0682"/>
</g>
<!-- Node19 -->
<g id="node20" class="node">
<title>Node19</title>
<g id="a_node20"><a xlink:href="cpu_2avr8__common_2avr__libc__extra_2include_2sys_2types_8h_source.html" target="_top" xlink:title="sys/types.h">
<polygon fill="#ffffff" stroke="#000000" points="910.5,-56.5 910.5,-75.5 979.5,-75.5 979.5,-56.5 910.5,-56.5"/>
<text text-anchor="middle" x="945" y="-63.5" font-family="Helvetica,sans-Serif" font-size="10.00" fill="#000000">sys/types.h</text>
</a>
</g>
</g>
<!-- Node18&#45;&gt;Node19 -->
<g id="edge27" class="edge">
<title>Node18&#45;&gt;Node19</title>
<path fill="none" stroke="#191970" d="M918.574,-112.2455C922.9331,-104.617 929.1211,-93.7881 934.4133,-84.5267"/>
<polygon fill="#191970" stroke="#191970" points="937.5673,-86.0616 939.4899,-75.6427 931.4896,-82.5886 937.5673,-86.0616"/>
</g>
<!-- Node19&#45;&gt;Node2 -->
<g id="edge28" class="edge">
<title>Node19&#45;&gt;Node2</title>
<path fill="none" stroke="#191970" d="M910.4734,-58.9176C905.6149,-57.9315 900.6826,-56.9361 896,-56 825.6543,-41.9372 743.3697,-25.9324 697.203,-16.9932"/>
<polygon fill="#191970" stroke="#191970" points="697.5776,-13.5008 687.0947,-15.0371 696.2476,-20.3733 697.5776,-13.5008"/>
</g>
<!-- Node19&#45;&gt;Node10 -->
<g id="edge29" class="edge">
<title>Node19&#45;&gt;Node10</title>
<path fill="none" stroke="#191970" d="M950.3998,-56.2455C954.6227,-48.617 960.6173,-37.7881 965.7441,-28.5267"/>
<polygon fill="#191970" stroke="#191970" points="968.881,-30.0867 970.6621,-19.6427 962.7568,-26.6965 968.881,-30.0867"/>
</g>
<!-- Node20&#45;&gt;Node2 -->
<g id="edge31" class="edge">
<title>Node20&#45;&gt;Node2</title>
<path fill="none" stroke="#191970" d="M708.3671,-168.3533C713.0874,-147.1002 721.9156,-95.0289 706,-56 701.2844,-44.4363 692.1073,-34.2008 683.2638,-26.3383"/>
<polygon fill="#191970" stroke="#191970" points="685.3109,-23.4894 675.3737,-19.8147 680.8504,-28.8842 685.3109,-23.4894"/>
</g>
<!-- Node21 -->
<g id="node22" class="node">
<title>Node21</title>
<polygon fill="#ffffff" stroke="#bfbfbf" points="958,-112.5 958,-131.5 1018,-131.5 1018,-112.5 958,-112.5"/>
<text text-anchor="middle" x="988" y="-119.5" font-family="Helvetica,sans-Serif" font-size="10.00" fill="#000000">stdbool.h</text>
</g>
<!-- Node20&#45;&gt;Node21 -->
<g id="edge32" class="edge">
<title>Node20&#45;&gt;Node21</title>
<path fill="none" stroke="#191970" d="M744.7572,-169.8464C747.8826,-169.213 750.9931,-168.5907 754,-168 837.3536,-151.6254 861.2253,-150.982 947.8072,-132.1531"/>
<polygon fill="#191970" stroke="#191970" points="948.7977,-135.5191 957.8152,-129.9571 947.2974,-128.6818 948.7977,-135.5191"/>
</g>
<!-- Node22&#45;&gt;Node21 -->
<g id="edge36" class="edge">
<title>Node22&#45;&gt;Node21</title>
<path fill="none" stroke="#191970" d="M1123.8074,-168.3733C1096.6547,-159.1016 1055.4093,-145.0178 1025.4975,-134.804"/>
<polygon fill="#191970" stroke="#191970" points="1026.4192,-131.4204 1015.8247,-131.5011 1024.1572,-138.0449 1026.4192,-131.4204"/>
</g>
<!-- Node23 -->
<g id="node24" class="node">
<title>Node23</title>
<polygon fill="#ffffff" stroke="#bfbfbf" points="1170,-112.5 1170,-131.5 1220,-131.5 1220,-112.5 1170,-112.5"/>
<text text-anchor="middle" x="1195" y="-119.5" font-family="Helvetica,sans-Serif" font-size="10.00" fill="#000000">limits.h</text>
</g>
<!-- Node22&#45;&gt;Node23 -->
<g id="edge35" class="edge">
<title>Node22&#45;&gt;Node23</title>
<path fill="none" stroke="#191970" d="M1159.49,-168.2455C1165.5326,-160.3761 1174.1903,-149.101 1181.4441,-139.6542"/>
<polygon fill="#191970" stroke="#191970" points="1184.2815,-141.7058 1187.5958,-131.6427 1178.7295,-137.4426 1184.2815,-141.7058"/>
</g>
<!-- Node24 -->
<g id="node25" class="node">
<title>Node24</title>
<polygon fill="#ffffff" stroke="#bfbfbf" points="1074.5,-112.5 1074.5,-131.5 1151.5,-131.5 1151.5,-112.5 1074.5,-112.5"/>
<text text-anchor="middle" x="1113" y="-119.5" font-family="Helvetica,sans-Serif" font-size="10.00" fill="#000000">periph_cpu.h</text>
</g>
<!-- Node22&#45;&gt;Node24 -->
<g id="edge37" class="edge">
<title>Node22&#45;&gt;Node24</title>
<path fill="none" stroke="#191970" d="M1145.2067,-168.2455C1139.7822,-160.4564 1132.0339,-149.3308 1125.4967,-139.9439"/>
<polygon fill="#191970" stroke="#191970" points="1128.3025,-137.8485 1119.7154,-131.6427 1122.5583,-141.849 1128.3025,-137.8485"/>
</g>
<!-- Node25 -->
<g id="node26" class="node">
<title>Node25</title>
<polygon fill="#ffffff" stroke="#bfbfbf" points="1238.5,-112.5 1238.5,-131.5 1319.5,-131.5 1319.5,-112.5 1238.5,-112.5"/>
<text text-anchor="middle" x="1279" y="-119.5" font-family="Helvetica,sans-Serif" font-size="10.00" fill="#000000">periph_conf.h</text>
</g>
<!-- Node22&#45;&gt;Node25 -->
<g id="edge38" class="edge">
<title>Node22&#45;&gt;Node25</title>
<path fill="none" stroke="#191970" d="M1173.8321,-168.3733C1194.3103,-159.3435 1225.1399,-145.7494 1248.1319,-135.6111"/>
<polygon fill="#191970" stroke="#191970" points="1249.715,-138.7383 1257.4528,-131.5011 1246.8907,-132.3333 1249.715,-138.7383"/>
</g>
<!-- Node26&#45;&gt;Node2 -->
<g id="edge45" class="edge">
<title>Node26&#45;&gt;Node2</title>
<path fill="none" stroke="#191970" d="M978.3322,-224.4299C965.1292,-211.4354 940.6255,-187.5842 919,-168 900.7766,-151.4969 893.4156,-150.3022 877,-132 849.6728,-101.5322 858.2599,-79.8503 825,-56 786.8883,-28.6705 733.0562,-17.5483 697.6083,-13.0412"/>
<polygon fill="#191970" stroke="#191970" points="697.5705,-9.5137 687.2352,-11.8441 696.768,-16.4675 697.5705,-9.5137"/>
</g>
<!-- Node26&#45;&gt;Node10 -->
<g id="edge44" class="edge">
<title>Node26&#45;&gt;Node10</title>
<path fill="none" stroke="#191970" d="M994.5586,-224.405C1007.6622,-204.0849 1035.1512,-155.0408 1027,-112 1020.9891,-80.2609 1001.9237,-47.5461 988.8858,-27.9919"/>
<polygon fill="#191970" stroke="#191970" points="991.7688,-26.0073 983.2207,-19.7479 985.9996,-29.9718 991.7688,-26.0073"/>
</g>
<!-- Node26&#45;&gt;Node16 -->
<g id="edge42" class="edge">
<title>Node26&#45;&gt;Node16</title>
<path fill="none" stroke="#191970" d="M964.9646,-224.3733C943.2612,-215.3032 910.5382,-201.6279 886.245,-191.4755"/>
<polygon fill="#191970" stroke="#191970" points="887.3111,-188.1278 876.7348,-187.5011 884.6119,-194.5865 887.3111,-188.1278"/>
</g>
<!-- Node26&#45;&gt;Node21 -->
<g id="edge43" class="edge">
<title>Node26&#45;&gt;Node21</title>
<path fill="none" stroke="#191970" d="M988,-224.4509C988,-206.184 988,-165.9553 988,-141.6976"/>
<polygon fill="#191970" stroke="#191970" points="991.5001,-141.5249 988,-131.5249 984.5001,-141.5249 991.5001,-141.5249"/>
</g>
<!-- Node26&#45;&gt;Node22 -->
<g id="edge48" class="edge">
<title>Node26&#45;&gt;Node22</title>
<path fill="none" stroke="#191970" d="M1016.1926,-224.3733C1043.3453,-215.1016 1084.5907,-201.0178 1114.5025,-190.804"/>
<polygon fill="#191970" stroke="#191970" points="1115.8428,-194.0449 1124.1753,-187.5011 1113.5808,-187.4204 1115.8428,-194.0449"/>
</g>
<!-- Node26&#45;&gt;Node24 -->
<g id="edge46" class="edge">
<title>Node26&#45;&gt;Node24</title>
<path fill="none" stroke="#191970" d="M1006.5991,-224.3458C1021.8586,-215.9226 1043.5506,-202.7614 1060,-188 1075.9702,-173.6686 1090.9647,-154.2142 1100.901,-140.1432"/>
<polygon fill="#191970" stroke="#191970" points="1103.87,-142.0029 1106.6596,-131.7819 1098.105,-138.0324 1103.87,-142.0029"/>
</g>
<!-- Node26&#45;&gt;Node25 -->
<g id="edge47" class="edge">
<title>Node26&#45;&gt;Node25</title>
<path fill="none" stroke="#191970" d="M1024.816,-231.4945C1068.745,-227.306 1143.4692,-216.323 1201,-188 1225.4392,-175.9683 1248.6248,-154.6227 1263.267,-139.4665"/>
<polygon fill="#191970" stroke="#191970" points="1266.1871,-141.4694 1270.4762,-131.7816 1261.0818,-136.6801 1266.1871,-141.4694"/>
</g>
<!-- Node27 -->
<g id="node28" class="node">
<title>Node27</title>
<g id="a_node28"><a xlink:href="endian_8h.html" target="_top" xlink:title="libc header for endian conversion ">
<polygon fill="#ffffff" stroke="#000000" points="758.5,-56.5 758.5,-75.5 815.5,-75.5 815.5,-56.5 758.5,-56.5"/>
<text text-anchor="middle" x="787" y="-63.5" font-family="Helvetica,sans-Serif" font-size="10.00" fill="#000000">endian.h</text>
</a>
</g>
</g>
<!-- Node26&#45;&gt;Node27 -->
<g id="edge40" class="edge">
<title>Node26&#45;&gt;Node27</title>
<path fill="none" stroke="#191970" d="M973.5983,-224.4498C941.8124,-203.2675 866.6783,-152.5981 844,-132 827.6356,-117.1367 811.3953,-97.7571 800.4612,-83.8486"/>
<polygon fill="#191970" stroke="#191970" points="802.9757,-81.3781 794.0943,-75.6013 797.4347,-85.6558 802.9757,-81.3781"/>
</g>
<!-- Node27&#45;&gt;Node2 -->
<g id="edge41" class="edge">
<title>Node27&#45;&gt;Node2</title>
<path fill="none" stroke="#191970" d="M765.3398,-56.3733C745.0228,-47.3435 714.436,-33.7494 691.625,-23.6111"/>
<polygon fill="#191970" stroke="#191970" points="692.9372,-20.3642 682.3775,-19.5011 690.0941,-26.7609 692.9372,-20.3642"/>
</g>
<!-- Node28&#45;&gt;Node2 -->
<g id="edge50" class="edge">
<title>Node28&#45;&gt;Node2</title>
<path fill="none" stroke="#191970" d="M578.1924,-224.2662C570.6264,-195.9705 552.4937,-112.1866 585,-56 593.9544,-40.5225 610.3859,-29.6293 625.6855,-22.3425"/>
<polygon fill="#191970" stroke="#191970" points="627.2361,-25.4844 634.9885,-18.2628 624.4247,-19.0737 627.2361,-25.4844"/>
</g>
</g>
</svg>
