<?xml version="1.0" encoding="UTF-8" standalone="no"?>
<!DOCTYPE svg PUBLIC "-//W3C//DTD SVG 1.1//EN"
 "http://www.w3.org/Graphics/SVG/1.1/DTD/svg11.dtd">
<!-- Generated by graphviz version 2.40.1 (0)
 -->
<!-- Title: drivers/nrf24l01p_ng/include/nrf24l01p_ng_registers.h Pages: 1 -->
<svg width="1174pt" height="442pt"
 viewBox="0.00 0.00 1174.00 442.00" xmlns="http://www.w3.org/2000/svg" xmlns:xlink="http://www.w3.org/1999/xlink">
<g id="graph0" class="graph" transform="scale(1 1) rotate(0) translate(4 438)">
<title>drivers/nrf24l01p_ng/include/nrf24l01p_ng_registers.h</title>
<polygon fill="#ffffff" stroke="transparent" points="-4,4 -4,-438 1170,-438 1170,4 -4,4"/>
<!-- Node0 -->
<g id="node1" class="node">
<title>Node0</title>
<polygon fill="#bfbfbf" stroke="#000000" points="422,-392.5 422,-433.5 542,-433.5 542,-392.5 422,-392.5"/>
<text text-anchor="start" x="430" y="-421.5" font-family="Helvetica,sans-Serif" font-size="10.00" fill="#000000">drivers/nrf24l01p_ng</text>
<text text-anchor="start" x="430" y="-410.5" font-family="Helvetica,sans-Serif" font-size="10.00" fill="#000000">/include/nrf24l01p_ng</text>
<text text-anchor="middle" x="482" y="-399.5" font-family="Helvetica,sans-Serif" font-size="10.00" fill="#000000">_registers.h</text>
</g>
<!-- Node1 -->
<g id="node2" class="node">
<title>Node1</title>
<polygon fill="#ffffff" stroke="#bfbfbf" points="536,-.5 536,-19.5 588,-19.5 588,-.5 536,-.5"/>
<text text-anchor="middle" x="562" y="-7.5" font-family="Helvetica,sans-Serif" font-size="10.00" fill="#000000">stdint.h</text>
</g>
<!-- Node0&#45;&gt;Node1 -->
<g id="edge1" class="edge">
<title>Node0&#45;&gt;Node1</title>
<path fill="none" stroke="#191970" d="M421.9289,-410.2592C292.7203,-402.7239 0,-376.1463 0,-290 0,-290 0,-290 0,-122 0,-68.227 400.8323,-25.3983 525.47,-13.3806"/>
<polygon fill="#191970" stroke="#191970" points="526.0254,-16.8436 535.6474,-12.4088 525.3599,-9.8753 526.0254,-16.8436"/>
</g>
<!-- Node2 -->
<g id="node3" class="node">
<title>Node2</title>
<g id="a_node3"><a xlink:href="nrf24l01p__ng_8h.html" target="_top" xlink:title="Public interface for NRF24L01+ (NG) devices. ">
<polygon fill="#ffffff" stroke="#000000" points="547.5,-280.5 547.5,-299.5 636.5,-299.5 636.5,-280.5 547.5,-280.5"/>
<text text-anchor="middle" x="592" y="-287.5" font-family="Helvetica,sans-Serif" font-size="10.00" fill="#000000">nrf24l01p_ng.h</text>
</a>
</g>
</g>
<!-- Node0&#45;&gt;Node2 -->
<g id="edge2" class="edge">
<title>Node0&#45;&gt;Node2</title>
<path fill="none" stroke="#191970" d="M528.7496,-392.4224C544.786,-383.3197 561.5569,-371.1861 573,-356 583.0785,-342.6249 587.8172,-324.0594 590.0416,-310.025"/>
<polygon fill="#191970" stroke="#191970" points="593.5361,-310.2916 591.3405,-299.9267 586.5933,-309.3985 593.5361,-310.2916"/>
</g>
<!-- Node29 -->
<g id="node30" class="node">
<title>Node29</title>
<g id="a_node30"><a xlink:href="nrf24l01p__ng__communication_8h.html" target="_top" xlink:title="Functions to communicate with the NRF24L01+ (NG) transceiver via SPI. ">
<polygon fill="#ffffff" stroke="#000000" points="400,-336.5 400,-355.5 564,-355.5 564,-336.5 400,-336.5"/>
<text text-anchor="middle" x="482" y="-343.5" font-family="Helvetica,sans-Serif" font-size="10.00" fill="#000000">nrf24l01p_ng_communication.h</text>
</a>
</g>
</g>
<!-- Node0&#45;&gt;Node29 -->
<g id="edge52" class="edge">
<title>Node0&#45;&gt;Node29</title>
<path fill="none" stroke="#191970" d="M482,-392.168C482,-383.8226 482,-374.2471 482,-365.9879"/>
<polygon fill="#191970" stroke="#191970" points="485.5001,-365.7804 482,-355.7805 478.5001,-365.7805 485.5001,-365.7804"/>
</g>
<!-- Node2&#45;&gt;Node1 -->
<g id="edge3" class="edge">
<title>Node2&#45;&gt;Node1</title>
<path fill="none" stroke="#191970" d="M636.7768,-287.9956C755.0307,-282.4267 1069.4765,-265.7354 1111,-244 1144.8291,-226.2922 1166,-216.1834 1166,-178 1166,-178 1166,-178 1166,-122 1166,-63.9746 729.4823,-23.6631 598.6356,-12.8831"/>
<polygon fill="#191970" stroke="#191970" points="598.5928,-9.3681 588.3415,-12.0442 598.0242,-16.345 598.5928,-9.3681"/>
</g>
<!-- Node3 -->
<g id="node4" class="node">
<title>Node3</title>
<polygon fill="#ffffff" stroke="#bfbfbf" points="443.5,-224.5 443.5,-243.5 496.5,-243.5 496.5,-224.5 443.5,-224.5"/>
<text text-anchor="middle" x="470" y="-231.5" font-family="Helvetica,sans-Serif" font-size="10.00" fill="#000000">board.h</text>
</g>
<!-- Node2&#45;&gt;Node3 -->
<g id="edge4" class="edge">
<title>Node2&#45;&gt;Node3</title>
<path fill="none" stroke="#191970" d="M571.0275,-280.3733C551.4433,-271.3838 522.0039,-257.8706 499.949,-247.7471"/>
<polygon fill="#191970" stroke="#191970" points="501.2473,-244.4919 490.6989,-243.5011 498.3271,-250.8538 501.2473,-244.4919"/>
</g>
<!-- Node4 -->
<g id="node5" class="node">
<title>Node4</title>
<g id="a_node5"><a xlink:href="kernel__defines_8h.html" target="_top" xlink:title="Common macros and compiler attributes/pragmas configuration. ">
<polygon fill="#ffffff" stroke="#000000" points="361.5,-168.5 361.5,-187.5 456.5,-187.5 456.5,-168.5 361.5,-168.5"/>
<text text-anchor="middle" x="409" y="-175.5" font-family="Helvetica,sans-Serif" font-size="10.00" fill="#000000">kernel_defines.h</text>
</a>
</g>
</g>
<!-- Node2&#45;&gt;Node4 -->
<g id="edge5" class="edge">
<title>Node2&#45;&gt;Node4</title>
<path fill="none" stroke="#191970" d="M580.9845,-280.4768C564.961,-266.9021 533.9681,-241.6776 505,-224 484.7146,-211.6209 460.5872,-200.0721 441.5953,-191.6426"/>
<polygon fill="#191970" stroke="#191970" points="442.7445,-188.3253 432.1794,-187.5309 439.9432,-194.7403 442.7445,-188.3253"/>
</g>
<!-- Node11 -->
<g id="node12" class="node">
<title>Node11</title>
<g id="a_node12"><a xlink:href="nettype_8h.html" target="_top" xlink:title="Protocol type definitions. ">
<polygon fill="#ffffff" stroke="#000000" points="165.5,-224.5 165.5,-243.5 272.5,-243.5 272.5,-224.5 165.5,-224.5"/>
<text text-anchor="middle" x="219" y="-231.5" font-family="Helvetica,sans-Serif" font-size="10.00" fill="#000000">net/gnrc/nettype.h</text>
</a>
</g>
</g>
<!-- Node2&#45;&gt;Node11 -->
<g id="edge16" class="edge">
<title>Node2&#45;&gt;Node11</title>
<path fill="none" stroke="#191970" d="M547.378,-283.3007C481.6302,-273.4297 358.3912,-254.9274 283.0131,-243.6105"/>
<polygon fill="#191970" stroke="#191970" points="283.1143,-240.0866 272.7055,-242.063 282.075,-247.009 283.1143,-240.0866"/>
</g>
<!-- Node15 -->
<g id="node16" class="node">
<title>Node15</title>
<g id="a_node16"><a xlink:href="drivers_2include_2net_2netdev_8h.html" target="_top" xlink:title="Definitions low&#45;level network driver interface. ">
<polygon fill="#ffffff" stroke="#000000" points="553.5,-224.5 553.5,-243.5 630.5,-243.5 630.5,-224.5 553.5,-224.5"/>
<text text-anchor="middle" x="592" y="-231.5" font-family="Helvetica,sans-Serif" font-size="10.00" fill="#000000">net/netdev.h</text>
</a>
</g>
</g>
<!-- Node2&#45;&gt;Node15 -->
<g id="edge21" class="edge">
<title>Node2&#45;&gt;Node15</title>
<path fill="none" stroke="#191970" d="M592,-280.2455C592,-272.9382 592,-262.6944 592,-253.7046"/>
<polygon fill="#191970" stroke="#191970" points="595.5001,-253.6426 592,-243.6427 588.5001,-253.6427 595.5001,-253.6426"/>
</g>
<!-- Node22 -->
<g id="node23" class="node">
<title>Node22</title>
<g id="a_node23"><a xlink:href="drivers_2include_2periph_2gpio_8h.html" target="_top" xlink:title="Low&#45;level GPIO peripheral driver interface definitions. ">
<polygon fill="#ffffff" stroke="#000000" points="897,-168.5 897,-187.5 977,-187.5 977,-168.5 897,-168.5"/>
<text text-anchor="middle" x="937" y="-175.5" font-family="Helvetica,sans-Serif" font-size="10.00" fill="#000000">periph/gpio.h</text>
</a>
</g>
</g>
<!-- Node2&#45;&gt;Node22 -->
<g id="edge35" class="edge">
<title>Node2&#45;&gt;Node22</title>
<path fill="none" stroke="#191970" d="M636.7636,-286.3936C706.259,-280.1956 836.3475,-266.0243 877,-244 897.7469,-232.76 915.0529,-211.5179 925.6639,-196.1626"/>
<polygon fill="#191970" stroke="#191970" points="928.7906,-197.779 931.3766,-187.5046 922.9478,-193.9239 928.7906,-197.779"/>
</g>
<!-- Node26 -->
<g id="node27" class="node">
<title>Node26</title>
<g id="a_node27"><a xlink:href="spi_8h.html" target="_top" xlink:title="Low&#45;level SPI peripheral driver interface definition. ">
<polygon fill="#ffffff" stroke="#000000" points="794.5,-224.5 794.5,-243.5 867.5,-243.5 867.5,-224.5 794.5,-224.5"/>
<text text-anchor="middle" x="831" y="-231.5" font-family="Helvetica,sans-Serif" font-size="10.00" fill="#000000">periph/spi.h</text>
</a>
</g>
</g>
<!-- Node2&#45;&gt;Node26 -->
<g id="edge40" class="edge">
<title>Node2&#45;&gt;Node26</title>
<path fill="none" stroke="#191970" d="M632.814,-280.4369C674.868,-270.5832 740.3261,-255.2458 784.3896,-244.9213"/>
<polygon fill="#191970" stroke="#191970" points="785.3381,-248.2939 794.2759,-242.6048 783.7411,-241.4785 785.3381,-248.2939"/>
</g>
<!-- Node28 -->
<g id="node29" class="node">
<title>Node28</title>
<g id="a_node29"><a xlink:href="nrf24l01p__ng__types_8h.html" target="_top" xlink:title="Definitions of user visible types for the NRF24L01+ (NG) device driver. ">
<polygon fill="#ffffff" stroke="#000000" points="982.5,-224.5 982.5,-243.5 1101.5,-243.5 1101.5,-224.5 982.5,-224.5"/>
<text text-anchor="middle" x="1042" y="-231.5" font-family="Helvetica,sans-Serif" font-size="10.00" fill="#000000">nrf24l01p_ng_types.h</text>
</a>
</g>
</g>
<!-- Node2&#45;&gt;Node28 -->
<g id="edge50" class="edge">
<title>Node2&#45;&gt;Node28</title>
<path fill="none" stroke="#191970" d="M636.7929,-284.4258C715.4047,-274.643 878.7147,-254.3199 972.2303,-242.6825"/>
<polygon fill="#191970" stroke="#191970" points="972.676,-246.1541 982.1672,-241.4459 971.8115,-239.2077 972.676,-246.1541"/>
</g>
<!-- Node5 -->
<g id="node6" class="node">
<title>Node5</title>
<g id="a_node6"><a xlink:href="modules_8h.html" target="_top" xlink:title="Common macros and compiler attributes/pragmas configuration. ">
<polygon fill="#ffffff" stroke="#000000" points="96.5,-112.5 96.5,-131.5 161.5,-131.5 161.5,-112.5 96.5,-112.5"/>
<text text-anchor="middle" x="129" y="-119.5" font-family="Helvetica,sans-Serif" font-size="10.00" fill="#000000">modules.h</text>
</a>
</g>
</g>
<!-- Node4&#45;&gt;Node5 -->
<g id="edge6" class="edge">
<title>Node4&#45;&gt;Node5</title>
<path fill="none" stroke="#191970" d="M361.1844,-168.4369C307.9943,-157.7989 222.8459,-140.7692 171.7813,-130.5563"/>
<polygon fill="#191970" stroke="#191970" points="172.2264,-127.076 161.7342,-128.5468 170.8535,-133.9401 172.2264,-127.076"/>
</g>
<!-- Node6 -->
<g id="node7" class="node">
<title>Node6</title>
<g id="a_node7"><a xlink:href="riot__version_8h.html" target="_top" xlink:title="Common macros and compiler attributes/pragmas configuration. ">
<polygon fill="#ffffff" stroke="#000000" points="216.5,-56.5 216.5,-75.5 297.5,-75.5 297.5,-56.5 216.5,-56.5"/>
<text text-anchor="middle" x="257" y="-63.5" font-family="Helvetica,sans-Serif" font-size="10.00" fill="#000000">riot_version.h</text>
</a>
</g>
</g>
<!-- Node4&#45;&gt;Node6 -->
<g id="edge7" class="edge">
<title>Node4&#45;&gt;Node6</title>
<path fill="none" stroke="#191970" d="M390.122,-168.4412C373.6747,-159.7831 349.4759,-146.2355 330,-132 309.2837,-116.8579 287.7494,-96.7666 273.4871,-82.7449"/>
<polygon fill="#191970" stroke="#191970" points="275.9183,-80.2265 266.3631,-75.6494 270.9785,-85.1862 275.9183,-80.2265"/>
</g>
<!-- Node7 -->
<g id="node8" class="node">
<title>Node7</title>
<g id="a_node8"><a xlink:href="compiler__hints_8h.html" target="_top" xlink:title="Common macros and compiler attributes/pragmas configuration. ">
<polygon fill="#ffffff" stroke="#000000" points="339.5,-112.5 339.5,-131.5 432.5,-131.5 432.5,-112.5 339.5,-112.5"/>
<text text-anchor="middle" x="386" y="-119.5" font-family="Helvetica,sans-Serif" font-size="10.00" fill="#000000">compiler_hints.h</text>
</a>
</g>
</g>
<!-- Node4&#45;&gt;Node7 -->
<g id="edge9" class="edge">
<title>Node4&#45;&gt;Node7</title>
<path fill="none" stroke="#191970" d="M404.9937,-168.2455C401.9265,-160.7776 397.5997,-150.2427 393.8503,-141.1137"/>
<polygon fill="#191970" stroke="#191970" points="396.9972,-139.5631 389.9604,-131.6427 390.5221,-142.2226 396.9972,-139.5631"/>
</g>
<!-- Node9 -->
<g id="node10" class="node">
<title>Node9</title>
<g id="a_node10"><a xlink:href="container_8h.html" target="_top" xlink:title="Common macros and compiler attributes/pragmas configuration. ">
<polygon fill="#ffffff" stroke="#000000" points="426.5,-56.5 426.5,-75.5 495.5,-75.5 495.5,-56.5 426.5,-56.5"/>
<text text-anchor="middle" x="461" y="-63.5" font-family="Helvetica,sans-Serif" font-size="10.00" fill="#000000">container.h</text>
</a>
</g>
</g>
<!-- Node4&#45;&gt;Node9 -->
<g id="edge13" class="edge">
<title>Node4&#45;&gt;Node9</title>
<path fill="none" stroke="#191970" d="M417.082,-168.3331C424.2161,-159.3911 434.4697,-145.4836 441,-132 448.1758,-117.1835 453.413,-99.2431 456.7239,-85.8088"/>
<polygon fill="#191970" stroke="#191970" points="460.2065,-86.2832 459.0523,-75.7514 453.3869,-84.7043 460.2065,-86.2832"/>
</g>
<!-- Node6&#45;&gt;Node1 -->
<g id="edge8" class="edge">
<title>Node6&#45;&gt;Node1</title>
<path fill="none" stroke="#191970" d="M297.6465,-57.8039C300.8101,-57.1864 303.9562,-56.5789 307,-56 384.9787,-41.1701 476.6064,-24.9301 526.0223,-16.269"/>
<polygon fill="#191970" stroke="#191970" points="526.6595,-19.7108 535.9064,-14.5391 525.4527,-12.8156 526.6595,-19.7108"/>
</g>
<!-- Node7&#45;&gt;Node1 -->
<g id="edge12" class="edge">
<title>Node7&#45;&gt;Node1</title>
<path fill="none" stroke="#191970" d="M387.9292,-112.4497C391.3127,-98.1359 399.6699,-71.1825 417,-56 447.519,-29.2629 493.6297,-18.0501 525.6265,-13.3579"/>
<polygon fill="#191970" stroke="#191970" points="526.4372,-16.7814 535.8936,-12.0036 525.5218,-9.8415 526.4372,-16.7814"/>
</g>
<!-- Node8 -->
<g id="node9" class="node">
<title>Node8</title>
<g id="a_node9"><a xlink:href="assert_8h.html" target="_top" xlink:title="POSIX.1&#45;2008 compliant version of the assert macro. ">
<polygon fill="#ffffff" stroke="#000000" points="316,-56.5 316,-75.5 370,-75.5 370,-56.5 316,-56.5"/>
<text text-anchor="middle" x="343" y="-63.5" font-family="Helvetica,sans-Serif" font-size="10.00" fill="#000000">assert.h</text>
</a>
</g>
</g>
<!-- Node7&#45;&gt;Node8 -->
<g id="edge10" class="edge">
<title>Node7&#45;&gt;Node8</title>
<path fill="none" stroke="#191970" d="M378.51,-112.2455C372.4674,-104.3761 363.8097,-93.101 356.5559,-83.6542"/>
<polygon fill="#191970" stroke="#191970" points="359.2705,-81.4426 350.4042,-75.6427 353.7185,-85.7058 359.2705,-81.4426"/>
</g>
<!-- Node8&#45;&gt;Node1 -->
<g id="edge11" class="edge">
<title>Node8&#45;&gt;Node1</title>
<path fill="none" stroke="#191970" d="M370.2937,-59.0208C409.5698,-48.9776 482.0986,-30.4314 525.8069,-19.2548"/>
<polygon fill="#191970" stroke="#191970" points="526.9102,-22.5854 535.7314,-16.7171 525.176,-15.8036 526.9102,-22.5854"/>
</g>
<!-- Node9&#45;&gt;Node1 -->
<g id="edge15" class="edge">
<title>Node9&#45;&gt;Node1</title>
<path fill="none" stroke="#191970" d="M478.5929,-56.2455C494.379,-47.4928 517.7639,-34.527 535.7587,-24.5496"/>
<polygon fill="#191970" stroke="#191970" points="537.5603,-27.5528 544.6087,-19.6427 534.1659,-21.4308 537.5603,-27.5528"/>
</g>
<!-- Node10 -->
<g id="node11" class="node">
<title>Node10</title>
<polygon fill="#ffffff" stroke="#bfbfbf" points="924,-.5 924,-19.5 980,-19.5 980,-.5 924,-.5"/>
<text text-anchor="middle" x="952" y="-7.5" font-family="Helvetica,sans-Serif" font-size="10.00" fill="#000000">stddef.h</text>
</g>
<!-- Node9&#45;&gt;Node10 -->
<g id="edge14" class="edge">
<title>Node9&#45;&gt;Node10</title>
<path fill="none" stroke="#191970" d="M495.5262,-62.0622C584.4343,-51.9219 820.7627,-24.968 913.6971,-14.3686"/>
<polygon fill="#191970" stroke="#191970" points="914.2475,-17.8286 923.7865,-13.2178 913.4542,-10.8737 914.2475,-17.8286"/>
</g>
<!-- Node11&#45;&gt;Node5 -->
<g id="edge18" class="edge">
<title>Node11&#45;&gt;Node5</title>
<path fill="none" stroke="#191970" d="M165.4763,-225.8698C123.5653,-218.281 70.219,-205.4951 57,-188 41.5224,-167.5157 69.5376,-148.1753 95.0135,-135.791"/>
<polygon fill="#191970" stroke="#191970" points="96.5848,-138.9207 104.1992,-131.5538 93.6527,-132.5643 96.5848,-138.9207"/>
</g>
<!-- Node12 -->
<g id="node13" class="node">
<title>Node12</title>
<g id="a_node13"><a xlink:href="inttypes_8h.html" target="_top" xlink:title="Adds include for missing inttype definitions. ">
<polygon fill="#ffffff" stroke="#000000" points="280.5,-168.5 280.5,-187.5 343.5,-187.5 343.5,-168.5 280.5,-168.5"/>
<text text-anchor="middle" x="312" y="-175.5" font-family="Helvetica,sans-Serif" font-size="10.00" fill="#000000">inttypes.h</text>
</a>
</g>
</g>
<!-- Node11&#45;&gt;Node12 -->
<g id="edge17" class="edge">
<title>Node11&#45;&gt;Node12</title>
<path fill="none" stroke="#191970" d="M235.1994,-224.2455C249.6018,-215.5731 270.8732,-202.7645 287.3799,-192.825"/>
<polygon fill="#191970" stroke="#191970" points="289.225,-195.7996 295.9863,-187.6427 285.614,-189.8028 289.225,-195.7996"/>
</g>
<!-- Node13 -->
<g id="node14" class="node">
<title>Node13</title>
<g id="a_node14"><a xlink:href="ethertype_8h.html" target="_top" xlink:title="Ether type definitions. ">
<polygon fill="#ffffff" stroke="#000000" points="66,-168.5 66,-187.5 158,-187.5 158,-168.5 66,-168.5"/>
<text text-anchor="middle" x="112" y="-175.5" font-family="Helvetica,sans-Serif" font-size="10.00" fill="#000000">net/ethertype.h</text>
</a>
</g>
</g>
<!-- Node11&#45;&gt;Node13 -->
<g id="edge19" class="edge">
<title>Node11&#45;&gt;Node13</title>
<path fill="none" stroke="#191970" d="M200.362,-224.2455C183.5614,-215.4527 158.6366,-202.4079 139.5382,-192.4125"/>
<polygon fill="#191970" stroke="#191970" points="140.9073,-189.1787 130.4244,-187.6427 137.6614,-195.3807 140.9073,-189.1787"/>
</g>
<!-- Node14 -->
<g id="node15" class="node">
<title>Node14</title>
<g id="a_node15"><a xlink:href="protnum_8h.html" target="_top" xlink:title="Protocol number definitions. ">
<polygon fill="#ffffff" stroke="#000000" points="176,-168.5 176,-187.5 262,-187.5 262,-168.5 176,-168.5"/>
<text text-anchor="middle" x="219" y="-175.5" font-family="Helvetica,sans-Serif" font-size="10.00" fill="#000000">net/protnum.h</text>
</a>
</g>
</g>
<!-- Node11&#45;&gt;Node14 -->
<g id="edge20" class="edge">
<title>Node11&#45;&gt;Node14</title>
<path fill="none" stroke="#191970" d="M219,-224.2455C219,-216.9382 219,-206.6944 219,-197.7046"/>
<polygon fill="#191970" stroke="#191970" points="222.5001,-197.6426 219,-187.6427 215.5001,-197.6427 222.5001,-197.6426"/>
</g>
<!-- Node15&#45;&gt;Node1 -->
<g id="edge22" class="edge">
<title>Node15&#45;&gt;Node1</title>
<path fill="none" stroke="#191970" d="M555.1816,-224.3966C536.6862,-217.5069 515.9327,-206.1473 505,-188 472.721,-134.4197 521.3769,-60.6003 547.3798,-27.405"/>
<polygon fill="#191970" stroke="#191970" points="550.183,-29.5044 553.7342,-19.5225 544.7332,-25.1112 550.183,-29.5044"/>
</g>
<!-- Node15&#45;&gt;Node4 -->
<g id="edge34" class="edge">
<title>Node15&#45;&gt;Node4</title>
<path fill="none" stroke="#191970" d="M560.5412,-224.3733C529.9793,-215.021 483.4174,-200.7725 449.9739,-190.5385"/>
<polygon fill="#191970" stroke="#191970" points="450.6348,-187.0806 440.0483,-187.5011 448.5864,-193.7742 450.6348,-187.0806"/>
</g>
<!-- Node16 -->
<g id="node17" class="node">
<title>Node16</title>
<g id="a_node17"><a xlink:href="errno_8h.html" target="_top" xlink:title="errno.h">
<polygon fill="#ffffff" stroke="#000000" points="673.5,-168.5 673.5,-187.5 726.5,-187.5 726.5,-168.5 673.5,-168.5"/>
<text text-anchor="middle" x="700" y="-175.5" font-family="Helvetica,sans-Serif" font-size="10.00" fill="#000000">errno.h</text>
</a>
</g>
</g>
<!-- Node15&#45;&gt;Node16 -->
<g id="edge23" class="edge">
<title>Node15&#45;&gt;Node16</title>
<path fill="none" stroke="#191970" d="M610.8122,-224.2455C627.8473,-215.4125 653.1575,-202.2887 672.4681,-192.2758"/>
<polygon fill="#191970" stroke="#191970" points="674.137,-195.353 681.4034,-187.6427 670.9147,-189.1388 674.137,-195.353"/>
</g>
<!-- Node17 -->
<g id="node18" class="node">
<title>Node17</title>
<g id="a_node18"><a xlink:href="iolist_8h.html" target="_top" xlink:title="iolist scatter / gather IO ">
<polygon fill="#ffffff" stroke="#000000" points="608.5,-168.5 608.5,-187.5 655.5,-187.5 655.5,-168.5 608.5,-168.5"/>
<text text-anchor="middle" x="632" y="-175.5" font-family="Helvetica,sans-Serif" font-size="10.00" fill="#000000">iolist.h</text>
</a>
</g>
</g>
<!-- Node15&#45;&gt;Node17 -->
<g id="edge24" class="edge">
<title>Node15&#45;&gt;Node17</title>
<path fill="none" stroke="#191970" d="M598.9675,-224.2455C604.5311,-216.4564 612.478,-205.3308 619.1829,-195.9439"/>
<polygon fill="#191970" stroke="#191970" points="622.148,-197.8144 625.1124,-187.6427 616.4519,-193.7457 622.148,-197.8144"/>
</g>
<!-- Node20 -->
<g id="node21" class="node">
<title>Node20</title>
<g id="a_node21"><a xlink:href="netopt_8h.html" target="_top" xlink:title="Definition of global configuration options. ">
<polygon fill="#ffffff" stroke="#000000" points="513.5,-168.5 513.5,-187.5 590.5,-187.5 590.5,-168.5 513.5,-168.5"/>
<text text-anchor="middle" x="552" y="-175.5" font-family="Helvetica,sans-Serif" font-size="10.00" fill="#000000">net/netopt.h</text>
</a>
</g>
</g>
<!-- Node15&#45;&gt;Node20 -->
<g id="edge31" class="edge">
<title>Node15&#45;&gt;Node20</title>
<path fill="none" stroke="#191970" d="M585.0325,-224.2455C579.4689,-216.4564 571.522,-205.3308 564.8171,-195.9439"/>
<polygon fill="#191970" stroke="#191970" points="567.5481,-193.7457 558.8876,-187.6427 561.852,-197.8144 567.5481,-193.7457"/>
</g>
<!-- Node18 -->
<g id="node19" class="node">
<title>Node18</title>
<g id="a_node19"><a xlink:href="unistd_8h_source.html" target="_top" xlink:title="unistd.h">
<polygon fill="#ffffff" stroke="#000000" points="666,-112.5 666,-131.5 720,-131.5 720,-112.5 666,-112.5"/>
<text text-anchor="middle" x="693" y="-119.5" font-family="Helvetica,sans-Serif" font-size="10.00" fill="#000000">unistd.h</text>
</a>
</g>
</g>
<!-- Node17&#45;&gt;Node18 -->
<g id="edge25" class="edge">
<title>Node17&#45;&gt;Node18</title>
<path fill="none" stroke="#191970" d="M642.6254,-168.2455C651.5473,-160.0549 664.488,-148.1749 675.0192,-138.5069"/>
<polygon fill="#191970" stroke="#191970" points="677.4968,-140.9837 682.4964,-131.6427 672.7629,-135.8271 677.4968,-140.9837"/>
</g>
<!-- Node18&#45;&gt;Node1 -->
<g id="edge27" class="edge">
<title>Node18&#45;&gt;Node1</title>
<path fill="none" stroke="#191970" d="M696.5893,-112.447C701.119,-98.6086 706.971,-72.8071 695,-56 683.5183,-39.8798 633.3036,-25.7402 597.9781,-17.5303"/>
<polygon fill="#191970" stroke="#191970" points="598.5292,-14.0667 588.0037,-15.2762 596.9862,-20.8945 598.5292,-14.0667"/>
</g>
<!-- Node18&#45;&gt;Node10 -->
<g id="edge26" class="edge">
<title>Node18&#45;&gt;Node10</title>
<path fill="none" stroke="#191970" d="M720.0408,-114.1151C723.051,-113.3489 726.0824,-112.6254 729,-112 780.8727,-100.8807 930.4311,-116.2419 965,-76 976.1294,-63.0441 970.2998,-43.3508 963.2558,-28.8466"/>
<polygon fill="#191970" stroke="#191970" points="966.1987,-26.9291 958.3787,-19.7808 960.0341,-30.2455 966.1987,-26.9291"/>
</g>
<!-- Node19 -->
<g id="node20" class="node">
<title>Node19</title>
<g id="a_node20"><a xlink:href="cpu_2avr8__common_2avr__libc__extra_2include_2sys_2types_8h_source.html" target="_top" xlink:title="sys/types.h">
<polygon fill="#ffffff" stroke="#000000" points="886.5,-56.5 886.5,-75.5 955.5,-75.5 955.5,-56.5 886.5,-56.5"/>
<text text-anchor="middle" x="921" y="-63.5" font-family="Helvetica,sans-Serif" font-size="10.00" fill="#000000">sys/types.h</text>
</a>
</g>
</g>
<!-- Node18&#45;&gt;Node19 -->
<g id="edge28" class="edge">
<title>Node18&#45;&gt;Node19</title>
<path fill="none" stroke="#191970" d="M720.0989,-114.3607C723.0982,-113.5485 726.1112,-112.747 729,-112 779.2637,-99.0022 837.2611,-85.2821 876.2454,-76.2445"/>
<polygon fill="#191970" stroke="#191970" points="877.2676,-79.6006 886.222,-73.9377 875.6905,-72.7805 877.2676,-79.6006"/>
</g>
<!-- Node19&#45;&gt;Node1 -->
<g id="edge29" class="edge">
<title>Node19&#45;&gt;Node1</title>
<path fill="none" stroke="#191970" d="M886.2456,-58.6659C881.4671,-57.7282 876.6174,-56.8131 872,-56 773.381,-38.633 656.3367,-22.4619 598.3316,-14.7433"/>
<polygon fill="#191970" stroke="#191970" points="598.5786,-11.2456 588.2056,-13.4021 597.6594,-18.185 598.5786,-11.2456"/>
</g>
<!-- Node19&#45;&gt;Node10 -->
<g id="edge30" class="edge">
<title>Node19&#45;&gt;Node10</title>
<path fill="none" stroke="#191970" d="M926.3998,-56.2455C930.6227,-48.617 936.6173,-37.7881 941.7441,-28.5267"/>
<polygon fill="#191970" stroke="#191970" points="944.881,-30.0867 946.6621,-19.6427 938.7568,-26.6965 944.881,-30.0867"/>
</g>
<!-- Node20&#45;&gt;Node1 -->
<g id="edge32" class="edge">
<title>Node20&#45;&gt;Node1</title>
<path fill="none" stroke="#191970" d="M552.5663,-168.4862C554.1471,-141.9293 558.633,-66.5651 560.7997,-30.1655"/>
<polygon fill="#191970" stroke="#191970" points="564.3145,-30.0182 561.415,-19.8279 557.3269,-29.6022 564.3145,-30.0182"/>
</g>
<!-- Node21 -->
<g id="node22" class="node">
<title>Node21</title>
<polygon fill="#ffffff" stroke="#bfbfbf" points="738,-112.5 738,-131.5 798,-131.5 798,-112.5 738,-112.5"/>
<text text-anchor="middle" x="768" y="-119.5" font-family="Helvetica,sans-Serif" font-size="10.00" fill="#000000">stdbool.h</text>
</g>
<!-- Node20&#45;&gt;Node21 -->
<g id="edge33" class="edge">
<title>Node20&#45;&gt;Node21</title>
<path fill="none" stroke="#191970" d="M589.1317,-168.3733C627.8572,-158.3333 688.3475,-142.6507 728.0802,-132.3496"/>
<polygon fill="#191970" stroke="#191970" points="729.1548,-135.6868 737.9564,-129.7891 727.398,-128.9108 729.1548,-135.6868"/>
</g>
<!-- Node22&#45;&gt;Node21 -->
<g id="edge37" class="edge">
<title>Node22&#45;&gt;Node21</title>
<path fill="none" stroke="#191970" d="M907.9479,-168.3733C879.8457,-159.0613 837.0946,-144.8953 806.2393,-134.671"/>
<polygon fill="#191970" stroke="#191970" points="807.2664,-131.3243 796.673,-131.5011 805.0645,-137.969 807.2664,-131.3243"/>
</g>
<!-- Node23 -->
<g id="node24" class="node">
<title>Node23</title>
<polygon fill="#ffffff" stroke="#bfbfbf" points="912,-112.5 912,-131.5 962,-131.5 962,-112.5 912,-112.5"/>
<text text-anchor="middle" x="937" y="-119.5" font-family="Helvetica,sans-Serif" font-size="10.00" fill="#000000">limits.h</text>
</g>
<!-- Node22&#45;&gt;Node23 -->
<g id="edge36" class="edge">
<title>Node22&#45;&gt;Node23</title>
<path fill="none" stroke="#191970" d="M937,-168.2455C937,-160.9382 937,-150.6944 937,-141.7046"/>
<polygon fill="#191970" stroke="#191970" points="940.5001,-141.6426 937,-131.6427 933.5001,-141.6427 940.5001,-141.6426"/>
</g>
<!-- Node24 -->
<g id="node25" class="node">
<title>Node24</title>
<polygon fill="#ffffff" stroke="#bfbfbf" points="816.5,-112.5 816.5,-131.5 893.5,-131.5 893.5,-112.5 816.5,-112.5"/>
<text text-anchor="middle" x="855" y="-119.5" font-family="Helvetica,sans-Serif" font-size="10.00" fill="#000000">periph_cpu.h</text>
</g>
<!-- Node22&#45;&gt;Node24 -->
<g id="edge38" class="edge">
<title>Node22&#45;&gt;Node24</title>
<path fill="none" stroke="#191970" d="M922.7167,-168.2455C910.253,-159.7337 891.9549,-147.2375 877.5208,-137.3801"/>
<polygon fill="#191970" stroke="#191970" points="879.3515,-134.392 869.1196,-131.6427 875.4038,-140.1726 879.3515,-134.392"/>
</g>
<!-- Node25 -->
<g id="node26" class="node">
<title>Node25</title>
<polygon fill="#ffffff" stroke="#bfbfbf" points="980.5,-112.5 980.5,-131.5 1061.5,-131.5 1061.5,-112.5 980.5,-112.5"/>
<text text-anchor="middle" x="1021" y="-119.5" font-family="Helvetica,sans-Serif" font-size="10.00" fill="#000000">periph_conf.h</text>
</g>
<!-- Node22&#45;&gt;Node25 -->
<g id="edge39" class="edge">
<title>Node22&#45;&gt;Node25</title>
<path fill="none" stroke="#191970" d="M951.6317,-168.2455C964.3994,-159.7337 983.1438,-147.2375 997.9299,-137.3801"/>
<polygon fill="#191970" stroke="#191970" points="1000.1569,-140.1019 1006.536,-131.6427 996.274,-134.2775 1000.1569,-140.1019"/>
</g>
<!-- Node26&#45;&gt;Node1 -->
<g id="edge46" class="edge">
<title>Node26&#45;&gt;Node1</title>
<path fill="none" stroke="#191970" d="M817.9743,-224.3911C796.0737,-208.3313 752.6391,-176.9168 736,-168 697.6635,-147.4557 678.9548,-159.1813 645,-132 609.3363,-103.4508 583.0837,-55.4763 570.4363,-28.9929"/>
<polygon fill="#191970" stroke="#191970" points="573.5029,-27.2856 566.1287,-19.6782 567.1494,-30.2238 573.5029,-27.2856"/>
</g>
<!-- Node26&#45;&gt;Node10 -->
<g id="edge45" class="edge">
<title>Node26&#45;&gt;Node10</title>
<path fill="none" stroke="#191970" d="M867.505,-229.4794C904.4019,-223.7875 962.2097,-211.7319 1007,-188 1040.3977,-170.3044 1055.382,-166.4183 1071,-132 1092.7669,-84.0308 1026.7038,-43.7766 984.4459,-23.7069"/>
<polygon fill="#191970" stroke="#191970" points="985.8622,-20.5059 975.3147,-19.5051 982.9359,-26.8649 985.8622,-20.5059"/>
</g>
<!-- Node26&#45;&gt;Node16 -->
<g id="edge43" class="edge">
<title>Node26&#45;&gt;Node16</title>
<path fill="none" stroke="#191970" d="M808.4803,-224.3733C787.2628,-215.3032 755.2724,-201.6279 731.5231,-191.4755"/>
<polygon fill="#191970" stroke="#191970" points="732.7967,-188.2136 722.2258,-187.5011 730.0452,-194.6502 732.7967,-188.2136"/>
</g>
<!-- Node26&#45;&gt;Node21 -->
<g id="edge44" class="edge">
<title>Node26&#45;&gt;Node21</title>
<path fill="none" stroke="#191970" d="M828.59,-224.1293C825.0774,-210.794 817.7739,-186.5579 807,-168 801.0073,-157.6776 792.618,-147.4266 785.1549,-139.2305"/>
<polygon fill="#191970" stroke="#191970" points="787.5369,-136.6552 778.1237,-131.7927 782.45,-141.464 787.5369,-136.6552"/>
</g>
<!-- Node26&#45;&gt;Node22 -->
<g id="edge49" class="edge">
<title>Node26&#45;&gt;Node22</title>
<path fill="none" stroke="#191970" d="M849.4638,-224.2455C866.1074,-215.4527 890.7993,-202.4079 909.7192,-192.4125"/>
<polygon fill="#191970" stroke="#191970" points="911.5408,-195.4086 918.7478,-187.6427 908.2709,-189.2193 911.5408,-195.4086"/>
</g>
<!-- Node26&#45;&gt;Node24 -->
<g id="edge47" class="edge">
<title>Node26&#45;&gt;Node24</title>
<path fill="none" stroke="#191970" d="M834.4219,-224.2403C837.5522,-215.0037 842.1212,-200.7004 845,-188 848.4478,-172.7895 851.0342,-155.3317 852.712,-142.1929"/>
<polygon fill="#191970" stroke="#191970" points="856.2279,-142.2709 853.9514,-131.9235 849.2783,-141.4321 856.2279,-142.2709"/>
</g>
<!-- Node26&#45;&gt;Node25 -->
<g id="edge48" class="edge">
<title>Node26&#45;&gt;Node25</title>
<path fill="none" stroke="#191970" d="M867.637,-231.1634C901.6465,-226.8182 952.004,-215.8216 986,-188 1000.6997,-175.9701 1010.0352,-156.104 1015.3332,-141.3048"/>
<polygon fill="#191970" stroke="#191970" points="1018.7223,-142.201 1018.4964,-131.6086 1012.0675,-140.03 1018.7223,-142.201"/>
</g>
<!-- Node27 -->
<g id="node28" class="node">
<title>Node27</title>
<g id="a_node28"><a xlink:href="endian_8h.html" target="_top" xlink:title="libc header for endian conversion ">
<polygon fill="#ffffff" stroke="#000000" points="628.5,-56.5 628.5,-75.5 685.5,-75.5 685.5,-56.5 628.5,-56.5"/>
<text text-anchor="middle" x="657" y="-63.5" font-family="Helvetica,sans-Serif" font-size="10.00" fill="#000000">endian.h</text>
</a>
</g>
</g>
<!-- Node26&#45;&gt;Node27 -->
<g id="edge41" class="edge">
<title>Node26&#45;&gt;Node27</title>
<path fill="none" stroke="#191970" d="M824.5156,-224.4769C814.3181,-210.1986 793.1839,-183.291 769,-168 724.8068,-140.0575 687.7998,-174.2516 657,-132 647.3184,-118.7186 648.4861,-99.6005 651.3847,-85.3558"/>
<polygon fill="#191970" stroke="#191970" points="654.7968,-86.1368 653.7876,-75.5901 647.9996,-84.4642 654.7968,-86.1368"/>
</g>
<!-- Node27&#45;&gt;Node1 -->
<g id="edge42" class="edge">
<title>Node27&#45;&gt;Node1</title>
<path fill="none" stroke="#191970" d="M640.4523,-56.2455C625.7401,-47.5731 604.0112,-34.7645 587.1495,-24.825"/>
<polygon fill="#191970" stroke="#191970" points="588.7502,-21.7057 578.3581,-19.6427 585.1954,-27.736 588.7502,-21.7057"/>
</g>
<!-- Node28&#45;&gt;Node1 -->
<g id="edge51" class="edge">
<title>Node28&#45;&gt;Node1</title>
<path fill="none" stroke="#191970" d="M1049.3126,-224.1869C1065.1373,-201.6726 1098.962,-145.6599 1071,-112 1043.1214,-78.4405 920.8004,-84.4604 878,-76 776.3409,-55.9049 656.6861,-30.4081 598.0621,-17.7952"/>
<polygon fill="#191970" stroke="#191970" points="598.6925,-14.3508 588.1797,-15.6666 597.2185,-21.1939 598.6925,-14.3508"/>
</g>
<!-- Node29&#45;&gt;Node2 -->
<g id="edge53" class="edge">
<title>Node29&#45;&gt;Node2</title>
<path fill="none" stroke="#191970" d="M501.1605,-336.2455C518.5111,-327.4125 544.2901,-314.2887 563.9583,-304.2758"/>
<polygon fill="#191970" stroke="#191970" points="565.7353,-307.2986 573.059,-299.6427 562.5595,-301.0605 565.7353,-307.2986"/>
</g>
</g>
</svg>
