<?xml version="1.0" encoding="UTF-8" standalone="no"?>
<!DOCTYPE svg PUBLIC "-//W3C//DTD SVG 1.1//EN"
 "http://www.w3.org/Graphics/SVG/1.1/DTD/svg11.dtd">
<!-- Generated by graphviz version 2.40.1 (0)
 -->
<!-- Title: cpu/nrf5x_common/include/gpio_ll_arch.h Pages: 1 -->
<svg width="274pt" height="151pt"
 viewBox="0.00 0.00 273.50 151.00" xmlns="http://www.w3.org/2000/svg" xmlns:xlink="http://www.w3.org/1999/xlink">
<g id="graph0" class="graph" transform="scale(1 1) rotate(0) translate(4 147)">
<title>cpu/nrf5x_common/include/gpio_ll_arch.h</title>
<polygon fill="#ffffff" stroke="transparent" points="-4,4 -4,-147 269.5,-147 269.5,4 -4,4"/>
<!-- Node0 -->
<g id="node1" class="node">
<title>Node0</title>
<polygon fill="#bfbfbf" stroke="#000000" points="50,-112.5 50,-142.5 194,-142.5 194,-112.5 50,-112.5"/>
<text text-anchor="start" x="58" y="-130.5" font-family="Helvetica,sans-Serif" font-size="10.00" fill="#000000">cpu/nrf5x_common/include</text>
<text text-anchor="middle" x="122" y="-119.5" font-family="Helvetica,sans-Serif" font-size="10.00" fill="#000000">/gpio_ll_arch.h</text>
</g>
<!-- Node1 -->
<g id="node2" class="node">
<title>Node1</title>
<g id="a_node2"><a xlink:href="assert_8h.html" target="_top" xlink:title="POSIX.1&#45;2008 compliant version of the assert macro. ">
<polygon fill="#ffffff" stroke="#000000" points="0,-56.5 0,-75.5 54,-75.5 54,-56.5 0,-56.5"/>
<text text-anchor="middle" x="27" y="-63.5" font-family="Helvetica,sans-Serif" font-size="10.00" fill="#000000">assert.h</text>
</a>
</g>
</g>
<!-- Node0&#45;&gt;Node1 -->
<g id="edge1" class="edge">
<title>Node0&#45;&gt;Node1</title>
<path fill="none" stroke="#191970" d="M98.5168,-112.2977C83.8652,-102.8127 65.0764,-90.6495 50.4341,-81.1705"/>
<polygon fill="#191970" stroke="#191970" points="52.2236,-78.1596 41.927,-75.6633 48.4195,-84.0357 52.2236,-78.1596"/>
</g>
<!-- Node3 -->
<g id="node4" class="node">
<title>Node3</title>
<polygon fill="#ffffff" stroke="#bfbfbf" points="72,-56.5 72,-75.5 114,-75.5 114,-56.5 72,-56.5"/>
<text text-anchor="middle" x="93" y="-63.5" font-family="Helvetica,sans-Serif" font-size="10.00" fill="#000000">cpu.h</text>
</g>
<!-- Node0&#45;&gt;Node3 -->
<g id="edge3" class="edge">
<title>Node0&#45;&gt;Node3</title>
<path fill="none" stroke="#191970" d="M114.8315,-112.2977C110.9318,-104.0277 106.072,-93.7215 101.9282,-84.9339"/>
<polygon fill="#191970" stroke="#191970" points="105.0741,-83.399 97.6433,-75.8469 98.7427,-86.3846 105.0741,-83.399"/>
</g>
<!-- Node4 -->
<g id="node5" class="node">
<title>Node4</title>
<g id="a_node5"><a xlink:href="irq_8h.html" target="_top" xlink:title="IRQ driver interface. ">
<polygon fill="#ffffff" stroke="#000000" points="132,-56.5 132,-75.5 170,-75.5 170,-56.5 132,-56.5"/>
<text text-anchor="middle" x="151" y="-63.5" font-family="Helvetica,sans-Serif" font-size="10.00" fill="#000000">irq.h</text>
</a>
</g>
</g>
<!-- Node0&#45;&gt;Node4 -->
<g id="edge4" class="edge">
<title>Node0&#45;&gt;Node4</title>
<path fill="none" stroke="#191970" d="M129.1685,-112.2977C133.0682,-104.0277 137.928,-93.7215 142.0718,-84.9339"/>
<polygon fill="#191970" stroke="#191970" points="145.2573,-86.3846 146.3567,-75.8469 138.9259,-83.399 145.2573,-86.3846"/>
</g>
<!-- Node7 -->
<g id="node8" class="node">
<title>Node7</title>
<polygon fill="#ffffff" stroke="#bfbfbf" points="188.5,-56.5 188.5,-75.5 265.5,-75.5 265.5,-56.5 188.5,-56.5"/>
<text text-anchor="middle" x="227" y="-63.5" font-family="Helvetica,sans-Serif" font-size="10.00" fill="#000000">periph_cpu.h</text>
</g>
<!-- Node0&#45;&gt;Node7 -->
<g id="edge7" class="edge">
<title>Node0&#45;&gt;Node7</title>
<path fill="none" stroke="#191970" d="M147.6859,-112.4554C164.1297,-102.8241 185.3708,-90.3828 201.7323,-80.7996"/>
<polygon fill="#191970" stroke="#191970" points="203.8688,-83.6045 210.7287,-75.5303 200.331,-77.5643 203.8688,-83.6045"/>
</g>
<!-- Node2 -->
<g id="node3" class="node">
<title>Node2</title>
<polygon fill="#ffffff" stroke="#bfbfbf" points="1,-.5 1,-19.5 53,-19.5 53,-.5 1,-.5"/>
<text text-anchor="middle" x="27" y="-7.5" font-family="Helvetica,sans-Serif" font-size="10.00" fill="#000000">stdint.h</text>
</g>
<!-- Node1&#45;&gt;Node2 -->
<g id="edge2" class="edge">
<title>Node1&#45;&gt;Node2</title>
<path fill="none" stroke="#191970" d="M27,-56.2455C27,-48.9382 27,-38.6944 27,-29.7046"/>
<polygon fill="#191970" stroke="#191970" points="30.5001,-29.6426 27,-19.6427 23.5001,-29.6427 30.5001,-29.6426"/>
</g>
<!-- Node5 -->
<g id="node6" class="node">
<title>Node5</title>
<polygon fill="#ffffff" stroke="#bfbfbf" points="96,-.5 96,-19.5 156,-19.5 156,-.5 96,-.5"/>
<text text-anchor="middle" x="126" y="-7.5" font-family="Helvetica,sans-Serif" font-size="10.00" fill="#000000">stdbool.h</text>
</g>
<!-- Node4&#45;&gt;Node5 -->
<g id="edge5" class="edge">
<title>Node4&#45;&gt;Node5</title>
<path fill="none" stroke="#191970" d="M146.6453,-56.2455C143.2756,-48.6973 138.507,-38.0158 134.4017,-28.8197"/>
<polygon fill="#191970" stroke="#191970" points="137.5773,-27.3473 130.3048,-19.6427 131.1853,-30.2009 137.5773,-27.3473"/>
</g>
<!-- Node6 -->
<g id="node7" class="node">
<title>Node6</title>
<polygon fill="#ffffff" stroke="#bfbfbf" points="174.5,-.5 174.5,-19.5 241.5,-19.5 241.5,-.5 174.5,-.5"/>
<text text-anchor="middle" x="208" y="-7.5" font-family="Helvetica,sans-Serif" font-size="10.00" fill="#000000">cpu_conf.h</text>
</g>
<!-- Node4&#45;&gt;Node6 -->
<g id="edge6" class="edge">
<title>Node4&#45;&gt;Node6</title>
<path fill="none" stroke="#191970" d="M160.9286,-56.2455C169.1838,-48.1352 181.1209,-36.4075 190.9082,-26.7919"/>
<polygon fill="#191970" stroke="#191970" points="193.5046,-29.1476 198.1851,-19.6427 188.5989,-24.1542 193.5046,-29.1476"/>
</g>
</g>
</svg>
