<?xml version="1.0" encoding="UTF-8" standalone="no"?>
<!DOCTYPE svg PUBLIC "-//W3C//DTD SVG 1.1//EN"
 "http://www.w3.org/Graphics/SVG/1.1/DTD/svg11.dtd">
<!-- Generated by graphviz version 2.40.1 (0)
 -->
<!-- Title: boards/nrf52832&#45;mdk/include/gpio_params.h Pages: 1 -->
<svg width="501pt" height="207pt"
 viewBox="0.00 0.00 501.00 207.00" xmlns="http://www.w3.org/2000/svg" xmlns:xlink="http://www.w3.org/1999/xlink">
<g id="graph0" class="graph" transform="scale(1 1) rotate(0) translate(4 203)">
<title>boards/nrf52832&#45;mdk/include/gpio_params.h</title>
<polygon fill="#ffffff" stroke="transparent" points="-4,4 -4,-203 497,-203 497,4 -4,4"/>
<!-- Node0 -->
<g id="node1" class="node">
<title>Node0</title>
<polygon fill="#bfbfbf" stroke="#000000" points="116.5,-168.5 116.5,-198.5 241.5,-198.5 241.5,-168.5 116.5,-168.5"/>
<text text-anchor="start" x="124.5" y="-186.5" font-family="Helvetica,sans-Serif" font-size="10.00" fill="#000000">boards/nrf52832&#45;mdk</text>
<text text-anchor="middle" x="179" y="-175.5" font-family="Helvetica,sans-Serif" font-size="10.00" fill="#000000">/include/gpio_params.h</text>
</g>
<!-- Node1 -->
<g id="node2" class="node">
<title>Node1</title>
<g id="a_node2"><a xlink:href="nrf52832-mdk_2include_2board_8h.html" target="_top" xlink:title="Board specific configuration for the nRF52832&#45;MDK. ">
<polygon fill="#ffffff" stroke="#000000" points="110.5,-112.5 110.5,-131.5 163.5,-131.5 163.5,-112.5 110.5,-112.5"/>
<text text-anchor="middle" x="137" y="-119.5" font-family="Helvetica,sans-Serif" font-size="10.00" fill="#000000">board.h</text>
</a>
</g>
</g>
<!-- Node0&#45;&gt;Node1 -->
<g id="edge1" class="edge">
<title>Node0&#45;&gt;Node1</title>
<path fill="none" stroke="#191970" d="M168.618,-168.2977C162.8487,-159.8498 155.6284,-149.2773 149.5447,-140.369"/>
<polygon fill="#191970" stroke="#191970" points="152.2547,-138.1311 143.7247,-131.8469 146.4741,-142.0788 152.2547,-138.1311"/>
</g>
<!-- Node4 -->
<g id="node5" class="node">
<title>Node4</title>
<g id="a_node5"><a xlink:href="periph_8h.html" target="_top" xlink:title="Parameter definitions for mapping peripherals directly to SAUL. ">
<polygon fill="#ffffff" stroke="#000000" points="229,-112.5 229,-131.5 307,-131.5 307,-112.5 229,-112.5"/>
<text text-anchor="middle" x="268" y="-119.5" font-family="Helvetica,sans-Serif" font-size="10.00" fill="#000000">saul/periph.h</text>
</a>
</g>
</g>
<!-- Node0&#45;&gt;Node4 -->
<g id="edge4" class="edge">
<title>Node0&#45;&gt;Node4</title>
<path fill="none" stroke="#191970" d="M201,-168.2977C214.5968,-158.9022 231.9966,-146.8787 245.6567,-137.4395"/>
<polygon fill="#191970" stroke="#191970" points="247.7785,-140.2276 254.0158,-131.6633 243.7991,-134.4688 247.7785,-140.2276"/>
</g>
<!-- Node2 -->
<g id="node3" class="node">
<title>Node2</title>
<polygon fill="#ffffff" stroke="#bfbfbf" points="116,-56.5 116,-75.5 158,-75.5 158,-56.5 116,-56.5"/>
<text text-anchor="middle" x="137" y="-63.5" font-family="Helvetica,sans-Serif" font-size="10.00" fill="#000000">cpu.h</text>
</g>
<!-- Node1&#45;&gt;Node2 -->
<g id="edge2" class="edge">
<title>Node1&#45;&gt;Node2</title>
<path fill="none" stroke="#191970" d="M137,-112.2455C137,-104.9382 137,-94.6944 137,-85.7046"/>
<polygon fill="#191970" stroke="#191970" points="140.5001,-85.6426 137,-75.6427 133.5001,-85.6427 140.5001,-85.6426"/>
</g>
<!-- Node3 -->
<g id="node4" class="node">
<title>Node3</title>
<polygon fill="#ffffff" stroke="#bfbfbf" points="0,-56.5 0,-75.5 98,-75.5 98,-56.5 0,-56.5"/>
<text text-anchor="middle" x="49" y="-63.5" font-family="Helvetica,sans-Serif" font-size="10.00" fill="#000000">board_common.h</text>
</g>
<!-- Node1&#45;&gt;Node3 -->
<g id="edge3" class="edge">
<title>Node1&#45;&gt;Node3</title>
<path fill="none" stroke="#191970" d="M121.6716,-112.2455C108.1697,-103.6534 88.2878,-91.0014 72.7314,-81.1018"/>
<polygon fill="#191970" stroke="#191970" points="74.4685,-78.0587 64.1528,-75.6427 70.7103,-83.9643 74.4685,-78.0587"/>
</g>
<!-- Node5 -->
<g id="node6" class="node">
<title>Node5</title>
<g id="a_node6"><a xlink:href="drivers_2include_2periph_2gpio_8h.html" target="_top" xlink:title="Low&#45;level GPIO peripheral driver interface definitions. ">
<polygon fill="#ffffff" stroke="#000000" points="176,-56.5 176,-75.5 256,-75.5 256,-56.5 176,-56.5"/>
<text text-anchor="middle" x="216" y="-63.5" font-family="Helvetica,sans-Serif" font-size="10.00" fill="#000000">periph/gpio.h</text>
</a>
</g>
</g>
<!-- Node4&#45;&gt;Node5 -->
<g id="edge5" class="edge">
<title>Node4&#45;&gt;Node5</title>
<path fill="none" stroke="#191970" d="M258.9423,-112.2455C251.4858,-104.2155 240.7366,-92.6394 231.8583,-83.0781"/>
<polygon fill="#191970" stroke="#191970" points="234.3232,-80.589 224.9539,-75.6427 229.1937,-85.3522 234.3232,-80.589"/>
</g>
<!-- Node10 -->
<g id="node11" class="node">
<title>Node10</title>
<g id="a_node11"><a xlink:href="adc_8h.html" target="_top" xlink:title="Low&#45;level ADC peripheral driver interface definitions. ">
<polygon fill="#ffffff" stroke="#000000" points="376,-56.5 376,-75.5 452,-75.5 452,-56.5 376,-56.5"/>
<text text-anchor="middle" x="414" y="-63.5" font-family="Helvetica,sans-Serif" font-size="10.00" fill="#000000">periph/adc.h</text>
</a>
</g>
</g>
<!-- Node4&#45;&gt;Node10 -->
<g id="edge10" class="edge">
<title>Node4&#45;&gt;Node10</title>
<path fill="none" stroke="#191970" d="M293.0983,-112.3733C316.9555,-103.2226 353.0335,-89.3844 379.571,-79.2057"/>
<polygon fill="#191970" stroke="#191970" points="381.1459,-82.3503 389.2292,-75.5011 378.639,-75.8145 381.1459,-82.3503"/>
</g>
<!-- Node12 -->
<g id="node13" class="node">
<title>Node12</title>
<g id="a_node13"><a xlink:href="pwm_8h.html" target="_top" xlink:title="Low&#45;level PWM peripheral driver interface definitions. ">
<polygon fill="#ffffff" stroke="#000000" points="274.5,-56.5 274.5,-75.5 357.5,-75.5 357.5,-56.5 274.5,-56.5"/>
<text text-anchor="middle" x="316" y="-63.5" font-family="Helvetica,sans-Serif" font-size="10.00" fill="#000000">periph/pwm.h</text>
</a>
</g>
</g>
<!-- Node4&#45;&gt;Node12 -->
<g id="edge15" class="edge">
<title>Node4&#45;&gt;Node12</title>
<path fill="none" stroke="#191970" d="M276.361,-112.2455C283.175,-104.2958 292.9681,-92.8706 301.1152,-83.3656"/>
<polygon fill="#191970" stroke="#191970" points="303.8843,-85.513 307.7349,-75.6427 298.5695,-80.9575 303.8843,-85.513"/>
</g>
<!-- Node6 -->
<g id="node7" class="node">
<title>Node6</title>
<polygon fill="#ffffff" stroke="#bfbfbf" points="373,-.5 373,-19.5 423,-19.5 423,-.5 373,-.5"/>
<text text-anchor="middle" x="398" y="-7.5" font-family="Helvetica,sans-Serif" font-size="10.00" fill="#000000">limits.h</text>
</g>
<!-- Node5&#45;&gt;Node6 -->
<g id="edge6" class="edge">
<title>Node5&#45;&gt;Node6</title>
<path fill="none" stroke="#191970" d="M247.2869,-56.3733C279.5239,-46.4542 329.6608,-31.0275 363.1472,-20.7239"/>
<polygon fill="#191970" stroke="#191970" points="364.4382,-23.9887 372.9667,-17.7026 362.3796,-17.2983 364.4382,-23.9887"/>
</g>
<!-- Node7 -->
<g id="node8" class="node">
<title>Node7</title>
<polygon fill="#ffffff" stroke="#bfbfbf" points="100,-.5 100,-19.5 160,-19.5 160,-.5 100,-.5"/>
<text text-anchor="middle" x="130" y="-7.5" font-family="Helvetica,sans-Serif" font-size="10.00" fill="#000000">stdbool.h</text>
</g>
<!-- Node5&#45;&gt;Node7 -->
<g id="edge7" class="edge">
<title>Node5&#45;&gt;Node7</title>
<path fill="none" stroke="#191970" d="M201.0199,-56.2455C187.8249,-47.6534 168.3949,-35.0014 153.1921,-25.1018"/>
<polygon fill="#191970" stroke="#191970" points="155.0983,-22.1665 144.8084,-19.6427 151.2785,-28.0325 155.0983,-22.1665"/>
</g>
<!-- Node8 -->
<g id="node9" class="node">
<title>Node8</title>
<polygon fill="#ffffff" stroke="#bfbfbf" points="178.5,-.5 178.5,-19.5 255.5,-19.5 255.5,-.5 178.5,-.5"/>
<text text-anchor="middle" x="217" y="-7.5" font-family="Helvetica,sans-Serif" font-size="10.00" fill="#000000">periph_cpu.h</text>
</g>
<!-- Node5&#45;&gt;Node8 -->
<g id="edge8" class="edge">
<title>Node5&#45;&gt;Node8</title>
<path fill="none" stroke="#191970" d="M216.1742,-56.2455C216.3047,-48.9382 216.4876,-38.6944 216.6481,-29.7046"/>
<polygon fill="#191970" stroke="#191970" points="220.1486,-29.7036 216.8278,-19.6427 213.1497,-29.5786 220.1486,-29.7036"/>
</g>
<!-- Node9 -->
<g id="node10" class="node">
<title>Node9</title>
<polygon fill="#ffffff" stroke="#bfbfbf" points="273.5,-.5 273.5,-19.5 354.5,-19.5 354.5,-.5 273.5,-.5"/>
<text text-anchor="middle" x="314" y="-7.5" font-family="Helvetica,sans-Serif" font-size="10.00" fill="#000000">periph_conf.h</text>
</g>
<!-- Node5&#45;&gt;Node9 -->
<g id="edge9" class="edge">
<title>Node5&#45;&gt;Node9</title>
<path fill="none" stroke="#191970" d="M233.0703,-56.2455C248.247,-47.5731 270.6621,-34.7645 288.0563,-24.825"/>
<polygon fill="#191970" stroke="#191970" points="290.1794,-27.643 297.1253,-19.6427 286.7064,-21.5653 290.1794,-27.643"/>
</g>
<!-- Node10&#45;&gt;Node6 -->
<g id="edge11" class="edge">
<title>Node10&#45;&gt;Node6</title>
<path fill="none" stroke="#191970" d="M411.213,-56.2455C409.1023,-48.8579 406.134,-38.4689 403.5453,-29.4087"/>
<polygon fill="#191970" stroke="#191970" points="406.8677,-28.2964 400.755,-19.6427 400.137,-30.2195 406.8677,-28.2964"/>
</g>
<!-- Node10&#45;&gt;Node8 -->
<g id="edge13" class="edge">
<title>Node10&#45;&gt;Node8</title>
<path fill="none" stroke="#191970" d="M380.1345,-56.3733C346.951,-46.9404 296.245,-32.5265 260.1806,-22.2747"/>
<polygon fill="#191970" stroke="#191970" points="260.9995,-18.8689 250.4236,-19.5011 259.0855,-25.6021 260.9995,-18.8689"/>
</g>
<!-- Node10&#45;&gt;Node9 -->
<g id="edge14" class="edge">
<title>Node10&#45;&gt;Node9</title>
<path fill="none" stroke="#191970" d="M396.5813,-56.2455C380.9515,-47.4928 357.7981,-34.527 339.9815,-24.5496"/>
<polygon fill="#191970" stroke="#191970" points="341.6543,-21.475 331.2191,-19.6427 338.234,-27.5825 341.6543,-21.475"/>
</g>
<!-- Node11 -->
<g id="node12" class="node">
<title>Node11</title>
<polygon fill="#ffffff" stroke="#bfbfbf" points="441,-.5 441,-19.5 493,-19.5 493,-.5 441,-.5"/>
<text text-anchor="middle" x="467" y="-7.5" font-family="Helvetica,sans-Serif" font-size="10.00" fill="#000000">stdint.h</text>
</g>
<!-- Node10&#45;&gt;Node11 -->
<g id="edge12" class="edge">
<title>Node10&#45;&gt;Node11</title>
<path fill="none" stroke="#191970" d="M423.2319,-56.2455C430.8317,-48.2155 441.7877,-36.6394 450.8368,-27.0781"/>
<polygon fill="#191970" stroke="#191970" points="453.5421,-29.3115 457.8739,-19.6427 448.458,-24.4998 453.5421,-29.3115"/>
</g>
<!-- Node12&#45;&gt;Node6 -->
<g id="edge17" class="edge">
<title>Node12&#45;&gt;Node6</title>
<path fill="none" stroke="#191970" d="M330.2833,-56.2455C342.747,-47.7337 361.0451,-35.2375 375.4792,-25.3801"/>
<polygon fill="#191970" stroke="#191970" points="377.5962,-28.1726 383.8804,-19.6427 373.6485,-22.392 377.5962,-28.1726"/>
</g>
<!-- Node12&#45;&gt;Node8 -->
<g id="edge18" class="edge">
<title>Node12&#45;&gt;Node8</title>
<path fill="none" stroke="#191970" d="M298.7555,-56.2455C283.4239,-47.5731 260.7801,-34.7645 243.2084,-24.825"/>
<polygon fill="#191970" stroke="#191970" points="244.4741,-21.5198 234.0469,-19.6427 241.0276,-27.6126 244.4741,-21.5198"/>
</g>
<!-- Node12&#45;&gt;Node9 -->
<g id="edge19" class="edge">
<title>Node12&#45;&gt;Node9</title>
<path fill="none" stroke="#191970" d="M315.6516,-56.2455C315.3907,-48.9382 315.0248,-38.6944 314.7037,-29.7046"/>
<polygon fill="#191970" stroke="#191970" points="318.1992,-29.5113 314.3444,-19.6427 311.2036,-29.7613 318.1992,-29.5113"/>
</g>
<!-- Node12&#45;&gt;Node11 -->
<g id="edge16" class="edge">
<title>Node12&#45;&gt;Node11</title>
<path fill="none" stroke="#191970" d="M341.9578,-56.3733C366.7407,-47.1822 404.2746,-33.2624 431.754,-23.0713"/>
<polygon fill="#191970" stroke="#191970" points="433.2219,-26.26 441.3809,-19.5011 430.7879,-19.6968 433.2219,-26.26"/>
</g>
</g>
</svg>
