<?xml version="1.0" encoding="UTF-8" standalone="no"?>
<!DOCTYPE svg PUBLIC "-//W3C//DTD SVG 1.1//EN"
 "http://www.w3.org/Graphics/SVG/1.1/DTD/svg11.dtd">
<!-- Generated by graphviz version 2.40.1 (0)
 -->
<!-- Title: boards/nrf52840&#45;mdk&#45;dongle/include/board.h Pages: 1 -->
<svg width="266pt" height="117pt"
 viewBox="0.00 0.00 266.00 117.00" xmlns="http://www.w3.org/2000/svg" xmlns:xlink="http://www.w3.org/1999/xlink">
<g id="graph0" class="graph" transform="scale(1 1) rotate(0) translate(4 113)">
<title>boards/nrf52840&#45;mdk&#45;dongle/include/board.h</title>
<polygon fill="#ffffff" stroke="transparent" points="-4,4 -4,-113 262,-113 262,4 -4,4"/>
<!-- Node8 -->
<g id="node1" class="node">
<title>Node8</title>
<polygon fill="#bfbfbf" stroke="#000000" points="64.5,-78.5 64.5,-108.5 193.5,-108.5 193.5,-78.5 64.5,-78.5"/>
<text text-anchor="start" x="72.5" y="-96.5" font-family="Helvetica,sans-Serif" font-size="10.00" fill="#000000">boards/nrf52840&#45;mdk</text>
<text text-anchor="middle" x="129" y="-85.5" font-family="Helvetica,sans-Serif" font-size="10.00" fill="#000000">&#45;dongle/include/board.h</text>
</g>
<!-- Node9 -->
<g id="node2" class="node">
<title>Node9</title>
<g id="a_node2"><a xlink:href="nrf52840-mdk-dongle_2include_2gpio__params_8h.html" target="_top" xlink:title="Configuration of SAUL mapped GPIO pins. ">
<polygon fill="#ffffff" stroke="#000000" points="0,-.5 0,-41.5 120,-41.5 120,-.5 0,-.5"/>
<text text-anchor="start" x="8" y="-29.5" font-family="Helvetica,sans-Serif" font-size="10.00" fill="#000000">boards/nrf52840&#45;mdk</text>
<text text-anchor="start" x="8" y="-18.5" font-family="Helvetica,sans-Serif" font-size="10.00" fill="#000000">&#45;dongle/include/gpio</text>
<text text-anchor="middle" x="60" y="-7.5" font-family="Helvetica,sans-Serif" font-size="10.00" fill="#000000">_params.h</text>
</a>
</g>
</g>
<!-- Node8&#45;&gt;Node9 -->
<g id="edge1" class="edge">
<title>Node8&#45;&gt;Node9</title>
<path fill="none" stroke="#191970" d="M107.5645,-70.9772C98.6018,-61.5599 88.259,-50.6924 79.5118,-41.5015"/>
<polygon fill="#191970" stroke="#191970" points="105.2737,-73.6471 114.7032,-78.478 110.3444,-68.8212 105.2737,-73.6471"/>
</g>
<!-- Node10 -->
<g id="node3" class="node">
<title>Node10</title>
<g id="a_node3"><a xlink:href="nrf52840-mdk-dongle_2include_2pwm__params_8h.html" target="_top" xlink:title="Configuration of SAUL mapped PWM channels. ">
<polygon fill="#ffffff" stroke="#000000" points="138,-.5 138,-41.5 258,-41.5 258,-.5 138,-.5"/>
<text text-anchor="start" x="146" y="-29.5" font-family="Helvetica,sans-Serif" font-size="10.00" fill="#000000">boards/nrf52840&#45;mdk</text>
<text text-anchor="start" x="146" y="-18.5" font-family="Helvetica,sans-Serif" font-size="10.00" fill="#000000">&#45;dongle/include/pwm</text>
<text text-anchor="middle" x="198" y="-7.5" font-family="Helvetica,sans-Serif" font-size="10.00" fill="#000000">_params.h</text>
</a>
</g>
</g>
<!-- Node8&#45;&gt;Node10 -->
<g id="edge2" class="edge">
<title>Node8&#45;&gt;Node10</title>
<path fill="none" stroke="#191970" d="M150.4355,-70.9772C159.3982,-61.5599 169.741,-50.6924 178.4882,-41.5015"/>
<polygon fill="#191970" stroke="#191970" points="147.6556,-68.8212 143.2968,-78.478 152.7263,-73.6471 147.6556,-68.8212"/>
</g>
</g>
</svg>
