<?xml version="1.0" encoding="UTF-8" standalone="no"?>
<!DOCTYPE svg PUBLIC "-//W3C//DTD SVG 1.1//EN"
 "http://www.w3.org/Graphics/SVG/1.1/DTD/svg11.dtd">
<!-- Generated by graphviz version 2.40.1 (0)
 -->
<!-- Title: cpu/nrf5x_common/include/nrfusb.h Pages: 1 -->
<svg width="531pt" height="207pt"
 viewBox="0.00 0.00 531.14 207.00" xmlns="http://www.w3.org/2000/svg" xmlns:xlink="http://www.w3.org/1999/xlink">
<g id="graph0" class="graph" transform="scale(1 1) rotate(0) translate(4 203)">
<title>cpu/nrf5x_common/include/nrfusb.h</title>
<polygon fill="#ffffff" stroke="transparent" points="-4,4 -4,-203 527.1407,-203 527.1407,4 -4,4"/>
<!-- Node0 -->
<g id="node1" class="node">
<title>Node0</title>
<polygon fill="#bfbfbf" stroke="#000000" points="49.6407,-168.5 49.6407,-198.5 193.6407,-198.5 193.6407,-168.5 49.6407,-168.5"/>
<text text-anchor="start" x="57.6407" y="-186.5" font-family="Helvetica,sans-Serif" font-size="10.00" fill="#000000">cpu/nrf5x_common/include</text>
<text text-anchor="middle" x="121.6407" y="-175.5" font-family="Helvetica,sans-Serif" font-size="10.00" fill="#000000">/nrfusb.h</text>
</g>
<!-- Node1 -->
<g id="node2" class="node">
<title>Node1</title>
<polygon fill="#ffffff" stroke="#bfbfbf" points="142.6407,-.5 142.6407,-19.5 194.6407,-19.5 194.6407,-.5 142.6407,-.5"/>
<text text-anchor="middle" x="168.6407" y="-7.5" font-family="Helvetica,sans-Serif" font-size="10.00" fill="#000000">stdint.h</text>
</g>
<!-- Node0&#45;&gt;Node1 -->
<g id="edge1" class="edge">
<title>Node0&#45;&gt;Node1</title>
<path fill="none" stroke="#191970" d="M90.6564,-168.4781C47.0339,-145.3038 -23.7409,-99.0031 8.6407,-56 23.5381,-36.2162 90.189,-22.3062 132.6285,-15.2714"/>
<polygon fill="#191970" stroke="#191970" points="133.2712,-18.7131 142.5899,-13.6721 132.1615,-11.8016 133.2712,-18.7131"/>
</g>
<!-- Node2 -->
<g id="node3" class="node">
<title>Node2</title>
<polygon fill="#ffffff" stroke="#bfbfbf" points="17.6407,-56.5 17.6407,-75.5 73.6407,-75.5 73.6407,-56.5 17.6407,-56.5"/>
<text text-anchor="middle" x="45.6407" y="-63.5" font-family="Helvetica,sans-Serif" font-size="10.00" fill="#000000">stddef.h</text>
</g>
<!-- Node0&#45;&gt;Node2 -->
<g id="edge2" class="edge">
<title>Node0&#45;&gt;Node2</title>
<path fill="none" stroke="#191970" d="M111.7051,-168.1389C97.7011,-146.4881 72.2081,-107.0745 57.3172,-84.0525"/>
<polygon fill="#191970" stroke="#191970" points="60.1938,-82.0553 51.8239,-75.5595 54.3161,-85.857 60.1938,-82.0553"/>
</g>
<!-- Node3 -->
<g id="node4" class="node">
<title>Node3</title>
<g id="a_node4"><a xlink:href="usbdev_8h.html" target="_top" xlink:title="Definitions low&#45;level USB driver interface. ">
<polygon fill="#ffffff" stroke="#000000" points="113.1407,-112.5 113.1407,-131.5 206.1407,-131.5 206.1407,-112.5 113.1407,-112.5"/>
<text text-anchor="middle" x="159.6407" y="-119.5" font-family="Helvetica,sans-Serif" font-size="10.00" fill="#000000">periph/usbdev.h</text>
</a>
</g>
</g>
<!-- Node0&#45;&gt;Node3 -->
<g id="edge3" class="edge">
<title>Node0&#45;&gt;Node3</title>
<path fill="none" stroke="#191970" d="M131.034,-168.2977C136.2538,-159.8498 142.7865,-149.2773 148.2908,-140.369"/>
<polygon fill="#191970" stroke="#191970" points="151.2775,-142.1938 153.5565,-131.8469 145.3225,-138.5143 151.2775,-142.1938"/>
</g>
<!-- Node10 -->
<g id="node11" class="node">
<title>Node10</title>
<polygon fill="#ffffff" stroke="#bfbfbf" points="224.6407,-112.5 224.6407,-131.5 266.6407,-131.5 266.6407,-112.5 224.6407,-112.5"/>
<text text-anchor="middle" x="245.6407" y="-119.5" font-family="Helvetica,sans-Serif" font-size="10.00" fill="#000000">cpu.h</text>
</g>
<!-- Node0&#45;&gt;Node10 -->
<g id="edge14" class="edge">
<title>Node0&#45;&gt;Node10</title>
<path fill="none" stroke="#191970" d="M151.9746,-168.4554C171.9383,-158.554 197.8898,-145.683 217.4122,-136.0004"/>
<polygon fill="#191970" stroke="#191970" points="219.0216,-139.1091 226.4251,-131.5303 215.9113,-132.838 219.0216,-139.1091"/>
</g>
<!-- Node3&#45;&gt;Node1 -->
<g id="edge5" class="edge">
<title>Node3&#45;&gt;Node1</title>
<path fill="none" stroke="#191970" d="M147.1504,-112.3638C132.5913,-99.8732 111.6037,-77.1775 120.6407,-56 125.7563,-44.0122 135.6983,-33.6498 145.2135,-25.8114"/>
<polygon fill="#191970" stroke="#191970" points="147.5204,-28.4532 153.3334,-19.5954 143.2654,-22.8949 147.5204,-28.4532"/>
</g>
<!-- Node3&#45;&gt;Node2 -->
<g id="edge6" class="edge">
<title>Node3&#45;&gt;Node2</title>
<path fill="none" stroke="#191970" d="M140.0434,-112.3733C121.9076,-103.4644 94.7272,-90.1127 74.1821,-80.0203"/>
<polygon fill="#191970" stroke="#191970" points="75.501,-76.7688 64.9823,-75.5011 72.4147,-83.0517 75.501,-76.7688"/>
</g>
<!-- Node4 -->
<g id="node5" class="node">
<title>Node4</title>
<polygon fill="#ffffff" stroke="#bfbfbf" points="129.6407,-56.5 129.6407,-75.5 189.6407,-75.5 189.6407,-56.5 129.6407,-56.5"/>
<text text-anchor="middle" x="159.6407" y="-63.5" font-family="Helvetica,sans-Serif" font-size="10.00" fill="#000000">stdbool.h</text>
</g>
<!-- Node3&#45;&gt;Node4 -->
<g id="edge4" class="edge">
<title>Node3&#45;&gt;Node4</title>
<path fill="none" stroke="#191970" d="M159.6407,-112.2455C159.6407,-104.9382 159.6407,-94.6944 159.6407,-85.7046"/>
<polygon fill="#191970" stroke="#191970" points="163.1408,-85.6426 159.6407,-75.6427 156.1408,-85.6427 163.1408,-85.6426"/>
</g>
<!-- Node5 -->
<g id="node6" class="node">
<title>Node5</title>
<g id="a_node6"><a xlink:href="assert_8h.html" target="_top" xlink:title="POSIX.1&#45;2008 compliant version of the assert macro. ">
<polygon fill="#ffffff" stroke="#000000" points="207.6407,-56.5 207.6407,-75.5 261.6407,-75.5 261.6407,-56.5 207.6407,-56.5"/>
<text text-anchor="middle" x="234.6407" y="-63.5" font-family="Helvetica,sans-Serif" font-size="10.00" fill="#000000">assert.h</text>
</a>
</g>
</g>
<!-- Node3&#45;&gt;Node5 -->
<g id="edge7" class="edge">
<title>Node3&#45;&gt;Node5</title>
<path fill="none" stroke="#191970" d="M172.7047,-112.2455C183.997,-103.814 200.5252,-91.4729 213.6678,-81.6598"/>
<polygon fill="#191970" stroke="#191970" points="215.8077,-84.4301 221.7264,-75.6427 211.6196,-78.8211 215.8077,-84.4301"/>
</g>
<!-- Node6 -->
<g id="node7" class="node">
<title>Node6</title>
<polygon fill="#ffffff" stroke="#bfbfbf" points="280.1407,-56.5 280.1407,-75.5 361.1407,-75.5 361.1407,-56.5 280.1407,-56.5"/>
<text text-anchor="middle" x="320.6407" y="-63.5" font-family="Helvetica,sans-Serif" font-size="10.00" fill="#000000">periph_conf.h</text>
</g>
<!-- Node3&#45;&gt;Node6 -->
<g id="edge9" class="edge">
<title>Node3&#45;&gt;Node6</title>
<path fill="none" stroke="#191970" d="M187.3176,-112.3733C213.9736,-103.1016 254.4645,-89.0178 283.8292,-78.804"/>
<polygon fill="#191970" stroke="#191970" points="285.0299,-82.0921 293.325,-75.5011 282.7302,-75.4807 285.0299,-82.0921"/>
</g>
<!-- Node7 -->
<g id="node8" class="node">
<title>Node7</title>
<g id="a_node8"><a xlink:href="usb_8h.html" target="_top" xlink:title="Definition of global compile time configuration options. ">
<polygon fill="#ffffff" stroke="#000000" points="475.6407,-56.5 475.6407,-75.5 517.6407,-75.5 517.6407,-56.5 475.6407,-56.5"/>
<text text-anchor="middle" x="496.6407" y="-63.5" font-family="Helvetica,sans-Serif" font-size="10.00" fill="#000000">usb.h</text>
</a>
</g>
</g>
<!-- Node3&#45;&gt;Node7 -->
<g id="edge10" class="edge">
<title>Node3&#45;&gt;Node7</title>
<path fill="none" stroke="#191970" d="M206.3713,-113.5318C209.5063,-113.0018 212.6181,-112.4865 215.6407,-112 323.7549,-94.599 355.1979,-101.5002 465.6118,-75.9016"/>
<polygon fill="#191970" stroke="#191970" points="466.5401,-79.2788 475.4712,-73.5791 464.935,-72.4653 466.5401,-79.2788"/>
</g>
<!-- Node9 -->
<g id="node10" class="node">
<title>Node9</title>
<g id="a_node10"><a xlink:href="usbopt_8h.html" target="_top" xlink:title="Definition of global USB peripheral and USB peripheral endpoint configuration options. ">
<polygon fill="#ffffff" stroke="#000000" points="379.6407,-56.5 379.6407,-75.5 457.6407,-75.5 457.6407,-56.5 379.6407,-56.5"/>
<text text-anchor="middle" x="418.6407" y="-63.5" font-family="Helvetica,sans-Serif" font-size="10.00" fill="#000000">usb/usbopt.h</text>
</a>
</g>
</g>
<!-- Node3&#45;&gt;Node9 -->
<g id="edge12" class="edge">
<title>Node3&#45;&gt;Node9</title>
<path fill="none" stroke="#191970" d="M203.8701,-112.4369C249.866,-102.4918 321.6972,-86.9608 369.4526,-76.6353"/>
<polygon fill="#191970" stroke="#191970" points="370.2252,-80.0492 379.2597,-74.5148 368.7458,-73.2073 370.2252,-80.0492"/>
</g>
<!-- Node5&#45;&gt;Node1 -->
<g id="edge8" class="edge">
<title>Node5&#45;&gt;Node1</title>
<path fill="none" stroke="#191970" d="M223.1444,-56.2455C213.3965,-47.9746 199.2148,-35.9416 187.761,-26.2232"/>
<polygon fill="#191970" stroke="#191970" points="189.8949,-23.4437 180.0053,-19.6427 185.366,-28.7813 189.8949,-23.4437"/>
</g>
<!-- Node8 -->
<g id="node9" class="node">
<title>Node8</title>
<polygon fill="#ffffff" stroke="#bfbfbf" points="470.1407,-.5 470.1407,-19.5 523.1407,-19.5 523.1407,-.5 470.1407,-.5"/>
<text text-anchor="middle" x="496.6407" y="-7.5" font-family="Helvetica,sans-Serif" font-size="10.00" fill="#000000">board.h</text>
</g>
<!-- Node7&#45;&gt;Node8 -->
<g id="edge11" class="edge">
<title>Node7&#45;&gt;Node8</title>
<path fill="none" stroke="#191970" d="M496.6407,-56.2455C496.6407,-48.9382 496.6407,-38.6944 496.6407,-29.7046"/>
<polygon fill="#191970" stroke="#191970" points="500.1408,-29.6426 496.6407,-19.6427 493.1408,-29.6427 500.1408,-29.6426"/>
</g>
<!-- Node9&#45;&gt;Node1 -->
<g id="edge13" class="edge">
<title>Node9&#45;&gt;Node1</title>
<path fill="none" stroke="#191970" d="M379.5782,-57.25C331.7008,-46.5255 251.2225,-28.4983 204.7394,-18.0861"/>
<polygon fill="#191970" stroke="#191970" points="205.3283,-14.6313 194.805,-15.8608 203.7981,-21.4621 205.3283,-14.6313"/>
</g>
</g>
</svg>
