<?xml version="1.0" encoding="UTF-8" standalone="no"?>
<!DOCTYPE svg PUBLIC "-//W3C//DTD SVG 1.1//EN"
 "http://www.w3.org/Graphics/SVG/1.1/DTD/svg11.dtd">
<!-- Generated by graphviz version 2.40.1 (0)
 -->
<!-- Title: boards/olimex&#45;msp430&#45;h2618/include/board.h Pages: 1 -->
<svg width="156pt" height="95pt"
 viewBox="0.00 0.00 155.50 95.00" xmlns="http://www.w3.org/2000/svg" xmlns:xlink="http://www.w3.org/1999/xlink">
<g id="graph0" class="graph" transform="scale(1 1) rotate(0) translate(4 91)">
<title>boards/olimex&#45;msp430&#45;h2618/include/board.h</title>
<polygon fill="#ffffff" stroke="transparent" points="-4,4 -4,-91 151.5,-91 151.5,4 -4,4"/>
<!-- Node0 -->
<g id="node1" class="node">
<title>Node0</title>
<polygon fill="#bfbfbf" stroke="#000000" points="0,-56.5 0,-86.5 127,-86.5 127,-56.5 0,-56.5"/>
<text text-anchor="start" x="8" y="-74.5" font-family="Helvetica,sans-Serif" font-size="10.00" fill="#000000">boards/olimex&#45;msp430</text>
<text text-anchor="middle" x="63.5" y="-63.5" font-family="Helvetica,sans-Serif" font-size="10.00" fill="#000000">&#45;h2618/include/board.h</text>
</g>
<!-- Node1 -->
<g id="node2" class="node">
<title>Node1</title>
<polygon fill="#ffffff" stroke="#bfbfbf" points="1.5,-.5 1.5,-19.5 43.5,-19.5 43.5,-.5 1.5,-.5"/>
<text text-anchor="middle" x="22.5" y="-7.5" font-family="Helvetica,sans-Serif" font-size="10.00" fill="#000000">cpu.h</text>
</g>
<!-- Node0&#45;&gt;Node1 -->
<g id="edge1" class="edge">
<title>Node0&#45;&gt;Node1</title>
<path fill="none" stroke="#191970" d="M53.3652,-56.2977C47.7332,-47.8498 40.6849,-37.2773 34.746,-28.369"/>
<polygon fill="#191970" stroke="#191970" points="37.5238,-26.226 29.0646,-19.8469 31.6995,-30.1089 37.5238,-26.226"/>
</g>
<!-- Node2 -->
<g id="node3" class="node">
<title>Node2</title>
<g id="a_node3"><a xlink:href="units_8h.html" target="_top" xlink:title="Unit helper macros. ">
<polygon fill="#ffffff" stroke="#000000" points="61.5,-.5 61.5,-19.5 147.5,-19.5 147.5,-.5 61.5,-.5"/>
<text text-anchor="middle" x="104.5" y="-7.5" font-family="Helvetica,sans-Serif" font-size="10.00" fill="#000000">macros/units.h</text>
</a>
</g>
</g>
<!-- Node0&#45;&gt;Node2 -->
<g id="edge2" class="edge">
<title>Node0&#45;&gt;Node2</title>
<path fill="none" stroke="#191970" d="M73.6348,-56.2977C79.2668,-47.8498 86.3151,-37.2773 92.254,-28.369"/>
<polygon fill="#191970" stroke="#191970" points="95.3005,-30.1089 97.9354,-19.8469 89.4762,-26.226 95.3005,-30.1089"/>
</g>
</g>
</svg>
