<?xml version="1.0" encoding="UTF-8" standalone="no"?>
<!DOCTYPE svg PUBLIC "-//W3C//DTD SVG 1.1//EN"
 "http://www.w3.org/Graphics/SVG/1.1/DTD/svg11.dtd">
<!-- Generated by graphviz version 2.40.1 (0)
 -->
<!-- Title: boards/olimexino&#45;stm32/include/gpio_params.h Pages: 1 -->
<svg width="912pt" height="375pt"
 viewBox="0.00 0.00 911.50 375.00" xmlns="http://www.w3.org/2000/svg" xmlns:xlink="http://www.w3.org/1999/xlink">
<g id="graph0" class="graph" transform="scale(1 1) rotate(0) translate(4 371)">
<title>boards/olimexino&#45;stm32/include/gpio_params.h</title>
<polygon fill="#ffffff" stroke="transparent" points="-4,4 -4,-371 907.5,-371 907.5,4 -4,4"/>
<!-- Node0 -->
<g id="node1" class="node">
<title>Node0</title>
<polygon fill="#bfbfbf" stroke="#000000" points="585.5,-336.5 585.5,-366.5 715.5,-366.5 715.5,-336.5 585.5,-336.5"/>
<text text-anchor="start" x="593.5" y="-354.5" font-family="Helvetica,sans-Serif" font-size="10.00" fill="#000000">boards/olimexino&#45;stm32</text>
<text text-anchor="middle" x="650.5" y="-343.5" font-family="Helvetica,sans-Serif" font-size="10.00" fill="#000000">/include/gpio_params.h</text>
</g>
<!-- Node1 -->
<g id="node2" class="node">
<title>Node1</title>
<g id="a_node2"><a xlink:href="olimexino-stm32_2include_2board_8h.html" target="_top" xlink:title="Board specific definitions for the OLIMEXINO STM32 board. ">
<polygon fill="#ffffff" stroke="#000000" points="597,-280.5 597,-299.5 650,-299.5 650,-280.5 597,-280.5"/>
<text text-anchor="middle" x="623.5" y="-287.5" font-family="Helvetica,sans-Serif" font-size="10.00" fill="#000000">board.h</text>
</a>
</g>
</g>
<!-- Node0&#45;&gt;Node1 -->
<g id="edge1" class="edge">
<title>Node0&#45;&gt;Node1</title>
<path fill="none" stroke="#191970" d="M643.8258,-336.2977C640.2341,-328.1166 635.7676,-317.943 631.9371,-309.2179"/>
<polygon fill="#191970" stroke="#191970" points="635.0478,-307.5964 627.823,-299.8469 628.6382,-310.4104 635.0478,-307.5964"/>
</g>
<!-- Node24 -->
<g id="node25" class="node">
<title>Node24</title>
<g id="a_node25"><a xlink:href="periph_8h.html" target="_top" xlink:title="Parameter definitions for mapping peripherals directly to SAUL. ">
<polygon fill="#ffffff" stroke="#000000" points="688.5,-112.5 688.5,-131.5 766.5,-131.5 766.5,-112.5 688.5,-112.5"/>
<text text-anchor="middle" x="727.5" y="-119.5" font-family="Helvetica,sans-Serif" font-size="10.00" fill="#000000">saul/periph.h</text>
</a>
</g>
</g>
<!-- Node0&#45;&gt;Node24 -->
<g id="edge34" class="edge">
<title>Node0&#45;&gt;Node24</title>
<path fill="none" stroke="#191970" d="M655.5522,-336.4419C669.0287,-296.275 705.8293,-186.5899 720.9155,-141.6252"/>
<polygon fill="#191970" stroke="#191970" points="724.3163,-142.4921 724.1791,-131.8981 717.6799,-140.2654 724.3163,-142.4921"/>
</g>
<!-- Node2 -->
<g id="node3" class="node">
<title>Node2</title>
<polygon fill="#ffffff" stroke="#bfbfbf" points="624.5,-224.5 624.5,-243.5 666.5,-243.5 666.5,-224.5 624.5,-224.5"/>
<text text-anchor="middle" x="645.5" y="-231.5" font-family="Helvetica,sans-Serif" font-size="10.00" fill="#000000">cpu.h</text>
</g>
<!-- Node1&#45;&gt;Node2 -->
<g id="edge2" class="edge">
<title>Node1&#45;&gt;Node2</title>
<path fill="none" stroke="#191970" d="M627.3321,-280.2455C630.2659,-272.7776 634.4047,-262.2427 637.991,-253.1137"/>
<polygon fill="#191970" stroke="#191970" points="641.3129,-254.23 641.7118,-243.6427 634.7976,-251.6704 641.3129,-254.23"/>
</g>
<!-- Node3 -->
<g id="node4" class="node">
<title>Node3</title>
<g id="a_node4"><a xlink:href="boards_2olimexino-stm32_2include_2periph__conf_8h.html" target="_top" xlink:title="Peripheral MCU configuration for the OLIMEXINO STM32 board. ">
<polygon fill="#ffffff" stroke="#000000" points="525,-224.5 525,-243.5 606,-243.5 606,-224.5 525,-224.5"/>
<text text-anchor="middle" x="565.5" y="-231.5" font-family="Helvetica,sans-Serif" font-size="10.00" fill="#000000">periph_conf.h</text>
</a>
</g>
</g>
<!-- Node1&#45;&gt;Node3 -->
<g id="edge3" class="edge">
<title>Node1&#45;&gt;Node3</title>
<path fill="none" stroke="#191970" d="M613.3972,-280.2455C604.9972,-272.1352 592.8506,-260.4075 582.8916,-250.7919"/>
<polygon fill="#191970" stroke="#191970" points="585.1122,-248.0707 575.4871,-243.6427 580.25,-253.1066 585.1122,-248.0707"/>
</g>
<!-- Node6 -->
<g id="node7" class="node">
<title>Node6</title>
<g id="a_node7"><a xlink:href="stm32__leds_8h.html" target="_top" xlink:title="Common LED macros. ">
<polygon fill="#ffffff" stroke="#000000" points="418.5,-224.5 418.5,-243.5 496.5,-243.5 496.5,-224.5 418.5,-224.5"/>
<text text-anchor="middle" x="457.5" y="-231.5" font-family="Helvetica,sans-Serif" font-size="10.00" fill="#000000">stm32_leds.h</text>
</a>
</g>
</g>
<!-- Node1&#45;&gt;Node6 -->
<g id="edge6" class="edge">
<title>Node1&#45;&gt;Node6</title>
<path fill="none" stroke="#191970" d="M596.8292,-281.0026C569.3732,-271.7403 526.3465,-257.2253 495.3701,-246.7755"/>
<polygon fill="#191970" stroke="#191970" points="496.3655,-243.4175 485.7713,-243.5373 494.1279,-250.0503 496.3655,-243.4175"/>
</g>
<!-- Node4 -->
<g id="node5" class="node">
<title>Node4</title>
<polygon fill="#ffffff" stroke="#bfbfbf" points="541,-.5 541,-19.5 618,-19.5 618,-.5 541,-.5"/>
<text text-anchor="middle" x="579.5" y="-7.5" font-family="Helvetica,sans-Serif" font-size="10.00" fill="#000000">periph_cpu.h</text>
</g>
<!-- Node3&#45;&gt;Node4 -->
<g id="edge4" class="edge">
<title>Node3&#45;&gt;Node4</title>
<path fill="none" stroke="#191970" d="M566.1016,-224.375C568.2197,-190.4851 575.3605,-76.2317 578.2604,-29.8332"/>
<polygon fill="#191970" stroke="#191970" points="581.77,-29.788 578.9007,-19.5891 574.7836,-29.3513 581.77,-29.788"/>
</g>
<!-- Node5 -->
<g id="node6" class="node">
<title>Node5</title>
<polygon fill="#ffffff" stroke="#bfbfbf" points="485.5,-168.5 485.5,-187.5 547.5,-187.5 547.5,-168.5 485.5,-168.5"/>
<text text-anchor="middle" x="516.5" y="-175.5" font-family="Helvetica,sans-Serif" font-size="10.00" fill="#000000">clk_conf.h</text>
</g>
<!-- Node3&#45;&gt;Node5 -->
<g id="edge5" class="edge">
<title>Node3&#45;&gt;Node5</title>
<path fill="none" stroke="#191970" d="M556.9649,-224.2455C550.0088,-216.2958 540.0117,-204.8706 531.6949,-195.3656"/>
<polygon fill="#191970" stroke="#191970" points="534.1564,-192.8637 524.9373,-187.6427 528.8884,-197.4732 534.1564,-192.8637"/>
</g>
<!-- Node7 -->
<g id="node8" class="node">
<title>Node7</title>
<g id="a_node8"><a xlink:href="gpio__ll_8h.html" target="_top" xlink:title="Peripheral GPIO Low&#45;Level API. ">
<polygon fill="#ffffff" stroke="#000000" points="419,-112.5 419,-131.5 508,-131.5 508,-112.5 419,-112.5"/>
<text text-anchor="middle" x="463.5" y="-119.5" font-family="Helvetica,sans-Serif" font-size="10.00" fill="#000000">periph/gpio_ll.h</text>
</a>
</g>
</g>
<!-- Node6&#45;&gt;Node7 -->
<g id="edge7" class="edge">
<title>Node6&#45;&gt;Node7</title>
<path fill="none" stroke="#191970" d="M458.0116,-224.4509C458.9901,-206.184 461.1453,-165.9553 462.4448,-141.6976"/>
<polygon fill="#191970" stroke="#191970" points="465.9497,-141.6978 462.9897,-131.5249 458.9597,-141.3233 465.9497,-141.6978"/>
</g>
<!-- Node18 -->
<g id="node19" class="node">
<title>Node18</title>
<g id="a_node19"><a xlink:href="kernel__defines_8h.html" target="_top" xlink:title="Common macros and compiler attributes/pragmas configuration. ">
<polygon fill="#ffffff" stroke="#000000" points="185,-168.5 185,-187.5 280,-187.5 280,-168.5 185,-168.5"/>
<text text-anchor="middle" x="232.5" y="-175.5" font-family="Helvetica,sans-Serif" font-size="10.00" fill="#000000">kernel_defines.h</text>
</a>
</g>
</g>
<!-- Node6&#45;&gt;Node18 -->
<g id="edge24" class="edge">
<title>Node6&#45;&gt;Node18</title>
<path fill="none" stroke="#191970" d="M419.0768,-224.4369C380.8125,-214.9133 321.9663,-200.2672 280.6151,-189.9753"/>
<polygon fill="#191970" stroke="#191970" points="281.3141,-186.5426 270.7647,-187.5237 279.6234,-193.3353 281.3141,-186.5426"/>
</g>
<!-- Node7&#45;&gt;Node4 -->
<g id="edge22" class="edge">
<title>Node7&#45;&gt;Node4</title>
<path fill="none" stroke="#191970" d="M476.1227,-112.2054C487.5308,-103.1774 504.6133,-89.2155 518.5,-76 534.9736,-60.3227 552.4619,-41.1032 564.4697,-27.4567"/>
<polygon fill="#191970" stroke="#191970" points="567.2457,-29.5987 571.18,-19.7614 561.9698,-24.9981 567.2457,-29.5987"/>
</g>
<!-- Node8 -->
<g id="node9" class="node">
<title>Node8</title>
<g id="a_node9"><a xlink:href="assert_8h.html" target="_top" xlink:title="POSIX.1&#45;2008 compliant version of the assert macro. ">
<polygon fill="#ffffff" stroke="#000000" points="217.5,-56.5 217.5,-75.5 271.5,-75.5 271.5,-56.5 217.5,-56.5"/>
<text text-anchor="middle" x="244.5" y="-63.5" font-family="Helvetica,sans-Serif" font-size="10.00" fill="#000000">assert.h</text>
</a>
</g>
</g>
<!-- Node7&#45;&gt;Node8 -->
<g id="edge8" class="edge">
<title>Node7&#45;&gt;Node8</title>
<path fill="none" stroke="#191970" d="M425.8526,-112.3733C385.4642,-102.0456 321.7261,-85.7473 281.5642,-75.4776"/>
<polygon fill="#191970" stroke="#191970" points="282.1984,-72.0272 271.643,-72.9407 280.4642,-78.809 282.1984,-72.0272"/>
</g>
<!-- Node9 -->
<g id="node10" class="node">
<title>Node9</title>
<polygon fill="#ffffff" stroke="#bfbfbf" points="233.5,-.5 233.5,-19.5 285.5,-19.5 285.5,-.5 233.5,-.5"/>
<text text-anchor="middle" x="259.5" y="-7.5" font-family="Helvetica,sans-Serif" font-size="10.00" fill="#000000">stdint.h</text>
</g>
<!-- Node7&#45;&gt;Node9 -->
<g id="edge11" class="edge">
<title>Node7&#45;&gt;Node9</title>
<path fill="none" stroke="#191970" d="M418.9826,-114.309C388.8443,-107.6185 349.0995,-95.7981 318.5,-76 299.0515,-63.4166 282.0528,-42.7731 271.3605,-27.9218"/>
<polygon fill="#191970" stroke="#191970" points="274.1274,-25.7698 265.5525,-19.5471 268.3753,-29.759 274.1274,-25.7698"/>
</g>
<!-- Node10 -->
<g id="node11" class="node">
<title>Node10</title>
<polygon fill="#ffffff" stroke="#bfbfbf" points="843.5,-.5 843.5,-19.5 903.5,-19.5 903.5,-.5 843.5,-.5"/>
<text text-anchor="middle" x="873.5" y="-7.5" font-family="Helvetica,sans-Serif" font-size="10.00" fill="#000000">stdbool.h</text>
</g>
<!-- Node7&#45;&gt;Node10 -->
<g id="edge10" class="edge">
<title>Node7&#45;&gt;Node10</title>
<path fill="none" stroke="#191970" d="M508.1385,-120.4761C612.0853,-116.4689 863.4029,-103.9601 888.5,-76 900.0897,-63.0882 893.3198,-43.1142 885.5136,-28.5203"/>
<polygon fill="#191970" stroke="#191970" points="888.4967,-26.6882 880.4167,-19.8351 882.4595,-30.2312 888.4967,-26.6882"/>
</g>
<!-- Node11 -->
<g id="node12" class="node">
<title>Node11</title>
<g id="a_node12"><a xlink:href="architecture_8h.html" target="_top" xlink:title="Platform&#45;independent access to architecture details. ">
<polygon fill="#ffffff" stroke="#000000" points="328,-56.5 328,-75.5 411,-75.5 411,-56.5 328,-56.5"/>
<text text-anchor="middle" x="369.5" y="-63.5" font-family="Helvetica,sans-Serif" font-size="10.00" fill="#000000">architecture.h</text>
</a>
</g>
</g>
<!-- Node7&#45;&gt;Node11 -->
<g id="edge12" class="edge">
<title>Node7&#45;&gt;Node11</title>
<path fill="none" stroke="#191970" d="M447.1264,-112.2455C432.5692,-103.5731 411.069,-90.7645 394.3848,-80.825"/>
<polygon fill="#191970" stroke="#191970" points="396.0683,-77.7539 385.6859,-75.6427 392.4856,-83.7676 396.0683,-77.7539"/>
</g>
<!-- Node15 -->
<g id="node16" class="node">
<title>Node15</title>
<g id="a_node16"><a xlink:href="drivers_2include_2periph_2gpio_8h.html" target="_top" xlink:title="Low&#45;level GPIO peripheral driver interface definitions. ">
<polygon fill="#ffffff" stroke="#000000" points="799.5,-56.5 799.5,-75.5 879.5,-75.5 879.5,-56.5 799.5,-56.5"/>
<text text-anchor="middle" x="839.5" y="-63.5" font-family="Helvetica,sans-Serif" font-size="10.00" fill="#000000">periph/gpio.h</text>
</a>
</g>
</g>
<!-- Node7&#45;&gt;Node15 -->
<g id="edge17" class="edge">
<title>Node7&#45;&gt;Node15</title>
<path fill="none" stroke="#191970" d="M508.0637,-116.6144C569.2168,-109.0294 682.7909,-94.2484 789.4585,-76.0971"/>
<polygon fill="#191970" stroke="#191970" points="790.1622,-79.5277 799.4266,-74.3874 788.9788,-72.6284 790.1622,-79.5277"/>
</g>
<!-- Node17 -->
<g id="node18" class="node">
<title>Node17</title>
<polygon fill="#ffffff" stroke="#bfbfbf" points="429.5,-56.5 429.5,-75.5 509.5,-75.5 509.5,-56.5 429.5,-56.5"/>
<text text-anchor="middle" x="469.5" y="-63.5" font-family="Helvetica,sans-Serif" font-size="10.00" fill="#000000">gpio_ll_arch.h</text>
</g>
<!-- Node7&#45;&gt;Node17 -->
<g id="edge23" class="edge">
<title>Node7&#45;&gt;Node17</title>
<path fill="none" stroke="#191970" d="M464.5451,-112.2455C465.328,-104.9382 466.4256,-94.6944 467.3888,-85.7046"/>
<polygon fill="#191970" stroke="#191970" points="470.8815,-85.9587 468.4669,-75.6427 463.9214,-85.2129 470.8815,-85.9587"/>
</g>
<!-- Node8&#45;&gt;Node9 -->
<g id="edge9" class="edge">
<title>Node8&#45;&gt;Node9</title>
<path fill="none" stroke="#191970" d="M247.1128,-56.2455C249.0916,-48.8579 251.8744,-38.4689 254.3012,-29.4087"/>
<polygon fill="#191970" stroke="#191970" points="257.7105,-30.2078 256.9171,-19.6427 250.9489,-28.3966 257.7105,-30.2078"/>
</g>
<!-- Node11&#45;&gt;Node9 -->
<g id="edge13" class="edge">
<title>Node11&#45;&gt;Node9</title>
<path fill="none" stroke="#191970" d="M350.3395,-56.2455C332.9889,-47.4125 307.2099,-34.2887 287.5417,-24.2758"/>
<polygon fill="#191970" stroke="#191970" points="288.9405,-21.0605 278.441,-19.6427 285.7647,-27.2986 288.9405,-21.0605"/>
</g>
<!-- Node12 -->
<g id="node13" class="node">
<title>Node12</title>
<g id="a_node13"><a xlink:href="inttypes_8h.html" target="_top" xlink:title="Adds include for missing inttype definitions. ">
<polygon fill="#ffffff" stroke="#000000" points="325,-.5 325,-19.5 388,-19.5 388,-.5 325,-.5"/>
<text text-anchor="middle" x="356.5" y="-7.5" font-family="Helvetica,sans-Serif" font-size="10.00" fill="#000000">inttypes.h</text>
</a>
</g>
</g>
<!-- Node11&#45;&gt;Node12 -->
<g id="edge14" class="edge">
<title>Node11&#45;&gt;Node12</title>
<path fill="none" stroke="#191970" d="M367.2356,-56.2455C365.5206,-48.8579 363.1088,-38.4689 361.0056,-29.4087"/>
<polygon fill="#191970" stroke="#191970" points="364.4092,-28.5922 358.7385,-19.6427 357.5905,-30.1751 364.4092,-28.5922"/>
</g>
<!-- Node13 -->
<g id="node14" class="node">
<title>Node13</title>
<polygon fill="#ffffff" stroke="#bfbfbf" points="636.5,-.5 636.5,-19.5 686.5,-19.5 686.5,-.5 636.5,-.5"/>
<text text-anchor="middle" x="661.5" y="-7.5" font-family="Helvetica,sans-Serif" font-size="10.00" fill="#000000">limits.h</text>
</g>
<!-- Node11&#45;&gt;Node13 -->
<g id="edge15" class="edge">
<title>Node11&#45;&gt;Node13</title>
<path fill="none" stroke="#191970" d="M411.2347,-57.7412C414.3685,-57.1441 417.4834,-56.558 420.5,-56 509.1848,-39.5956 534.8237,-41.0813 626.3621,-20.0662"/>
<polygon fill="#191970" stroke="#191970" points="627.3857,-23.4216 636.3338,-17.7487 625.8011,-16.6033 627.3857,-23.4216"/>
</g>
<!-- Node14 -->
<g id="node15" class="node">
<title>Node14</title>
<polygon fill="#ffffff" stroke="#bfbfbf" points="406,-.5 406,-19.5 513,-19.5 513,-.5 406,-.5"/>
<text text-anchor="middle" x="459.5" y="-7.5" font-family="Helvetica,sans-Serif" font-size="10.00" fill="#000000">architecture_arch.h</text>
</g>
<!-- Node11&#45;&gt;Node14 -->
<g id="edge16" class="edge">
<title>Node11&#45;&gt;Node14</title>
<path fill="none" stroke="#191970" d="M385.1768,-56.2455C398.9856,-47.6534 419.3193,-35.0014 435.2292,-25.1018"/>
<polygon fill="#191970" stroke="#191970" points="437.3613,-27.8974 444.0028,-19.6427 433.6632,-21.954 437.3613,-27.8974"/>
</g>
<!-- Node15&#45;&gt;Node4 -->
<g id="edge20" class="edge">
<title>Node15&#45;&gt;Node4</title>
<path fill="none" stroke="#191970" d="M799.4448,-57.3727C753.3353,-47.4415 677.6152,-31.1325 628.1559,-20.4797"/>
<polygon fill="#191970" stroke="#191970" points="628.8386,-17.0466 618.3258,-18.3625 627.3647,-23.8897 628.8386,-17.0466"/>
</g>
<!-- Node15&#45;&gt;Node10 -->
<g id="edge19" class="edge">
<title>Node15&#45;&gt;Node10</title>
<path fill="none" stroke="#191970" d="M845.4223,-56.2455C850.1027,-48.5367 856.7673,-37.5598 862.4289,-28.2348"/>
<polygon fill="#191970" stroke="#191970" points="865.4475,-30.007 867.6455,-19.6427 859.4639,-26.3741 865.4475,-30.007"/>
</g>
<!-- Node15&#45;&gt;Node13 -->
<g id="edge18" class="edge">
<title>Node15&#45;&gt;Node13</title>
<path fill="none" stroke="#191970" d="M808.9007,-56.3733C777.5524,-46.5109 728.8971,-31.2036 696.1499,-20.9011"/>
<polygon fill="#191970" stroke="#191970" points="697.1239,-17.5384 686.5344,-17.876 695.0231,-24.2158 697.1239,-17.5384"/>
</g>
<!-- Node16 -->
<g id="node17" class="node">
<title>Node16</title>
<polygon fill="#ffffff" stroke="#bfbfbf" points="705,-.5 705,-19.5 786,-19.5 786,-.5 705,-.5"/>
<text text-anchor="middle" x="745.5" y="-7.5" font-family="Helvetica,sans-Serif" font-size="10.00" fill="#000000">periph_conf.h</text>
</g>
<!-- Node15&#45;&gt;Node16 -->
<g id="edge21" class="edge">
<title>Node15&#45;&gt;Node16</title>
<path fill="none" stroke="#191970" d="M823.1264,-56.2455C808.5692,-47.5731 787.069,-34.7645 770.3848,-24.825"/>
<polygon fill="#191970" stroke="#191970" points="772.0683,-21.7539 761.6859,-19.6427 768.4856,-27.7676 772.0683,-21.7539"/>
</g>
<!-- Node19 -->
<g id="node20" class="node">
<title>Node19</title>
<g id="a_node20"><a xlink:href="modules_8h.html" target="_top" xlink:title="Common macros and compiler attributes/pragmas configuration. ">
<polygon fill="#ffffff" stroke="#000000" points="297,-112.5 297,-131.5 362,-131.5 362,-112.5 297,-112.5"/>
<text text-anchor="middle" x="329.5" y="-119.5" font-family="Helvetica,sans-Serif" font-size="10.00" fill="#000000">modules.h</text>
</a>
</g>
</g>
<!-- Node18&#45;&gt;Node19 -->
<g id="edge25" class="edge">
<title>Node18&#45;&gt;Node19</title>
<path fill="none" stroke="#191970" d="M249.3961,-168.2455C264.418,-159.5731 286.6043,-146.7645 303.821,-136.825"/>
<polygon fill="#191970" stroke="#191970" points="305.8871,-139.6737 312.7975,-131.6427 302.3872,-133.6114 305.8871,-139.6737"/>
</g>
<!-- Node20 -->
<g id="node21" class="node">
<title>Node20</title>
<g id="a_node21"><a xlink:href="riot__version_8h.html" target="_top" xlink:title="Common macros and compiler attributes/pragmas configuration. ">
<polygon fill="#ffffff" stroke="#000000" points="0,-112.5 0,-131.5 81,-131.5 81,-112.5 0,-112.5"/>
<text text-anchor="middle" x="40.5" y="-119.5" font-family="Helvetica,sans-Serif" font-size="10.00" fill="#000000">riot_version.h</text>
</a>
</g>
</g>
<!-- Node18&#45;&gt;Node20 -->
<g id="edge26" class="edge">
<title>Node18&#45;&gt;Node20</title>
<path fill="none" stroke="#191970" d="M199.494,-168.3733C167.2909,-158.9807 118.1558,-144.6496 83.0361,-134.4064"/>
<polygon fill="#191970" stroke="#191970" points="83.6553,-130.9412 73.0753,-131.5011 81.6953,-137.6612 83.6553,-130.9412"/>
</g>
<!-- Node21 -->
<g id="node22" class="node">
<title>Node21</title>
<g id="a_node22"><a xlink:href="compiler__hints_8h.html" target="_top" xlink:title="Common macros and compiler attributes/pragmas configuration. ">
<polygon fill="#ffffff" stroke="#000000" points="186,-112.5 186,-131.5 279,-131.5 279,-112.5 186,-112.5"/>
<text text-anchor="middle" x="232.5" y="-119.5" font-family="Helvetica,sans-Serif" font-size="10.00" fill="#000000">compiler_hints.h</text>
</a>
</g>
</g>
<!-- Node18&#45;&gt;Node21 -->
<g id="edge28" class="edge">
<title>Node18&#45;&gt;Node21</title>
<path fill="none" stroke="#191970" d="M232.5,-168.2455C232.5,-160.9382 232.5,-150.6944 232.5,-141.7046"/>
<polygon fill="#191970" stroke="#191970" points="236.0001,-141.6426 232.5,-131.6427 229.0001,-141.6427 236.0001,-141.6426"/>
</g>
<!-- Node22 -->
<g id="node23" class="node">
<title>Node22</title>
<g id="a_node23"><a xlink:href="container_8h.html" target="_top" xlink:title="Common macros and compiler attributes/pragmas configuration. ">
<polygon fill="#ffffff" stroke="#000000" points="99,-112.5 99,-131.5 168,-131.5 168,-112.5 99,-112.5"/>
<text text-anchor="middle" x="133.5" y="-119.5" font-family="Helvetica,sans-Serif" font-size="10.00" fill="#000000">container.h</text>
</a>
</g>
</g>
<!-- Node18&#45;&gt;Node22 -->
<g id="edge31" class="edge">
<title>Node18&#45;&gt;Node22</title>
<path fill="none" stroke="#191970" d="M215.2555,-168.2455C199.9239,-159.5731 177.2801,-146.7645 159.7084,-136.825"/>
<polygon fill="#191970" stroke="#191970" points="160.9741,-133.5198 150.5469,-131.6427 157.5276,-139.6126 160.9741,-133.5198"/>
</g>
<!-- Node20&#45;&gt;Node9 -->
<g id="edge27" class="edge">
<title>Node20&#45;&gt;Node9</title>
<path fill="none" stroke="#191970" d="M44.8874,-112.3064C51.9557,-97.8054 67.2527,-70.6108 88.5,-56 129.1933,-28.017 186.1502,-17.0399 222.9358,-12.7447"/>
<polygon fill="#191970" stroke="#191970" points="223.6285,-16.1911 233.2046,-11.6582 222.8918,-9.2299 223.6285,-16.1911"/>
</g>
<!-- Node21&#45;&gt;Node8 -->
<g id="edge29" class="edge">
<title>Node21&#45;&gt;Node8</title>
<path fill="none" stroke="#191970" d="M234.5902,-112.2455C236.1561,-104.9382 238.3512,-94.6944 240.2776,-85.7046"/>
<polygon fill="#191970" stroke="#191970" points="243.7607,-86.1541 242.4337,-75.6427 236.916,-84.6873 243.7607,-86.1541"/>
</g>
<!-- Node21&#45;&gt;Node9 -->
<g id="edge30" class="edge">
<title>Node21&#45;&gt;Node9</title>
<path fill="none" stroke="#191970" d="M224.379,-112.4367C214.394,-99.4498 199.7804,-75.6072 208.5,-56 213.9508,-43.7432 224.4599,-33.3755 234.5289,-25.6036"/>
<polygon fill="#191970" stroke="#191970" points="236.6744,-28.3721 242.7627,-19.7012 232.596,-22.6828 236.6744,-28.3721"/>
</g>
<!-- Node22&#45;&gt;Node9 -->
<g id="edge33" class="edge">
<title>Node22&#45;&gt;Node9</title>
<path fill="none" stroke="#191970" d="M121.0954,-112.3201C105.5274,-98.9932 82.4684,-74.5395 96.5,-56 111.7458,-35.8563 179.9622,-22.0297 223.1707,-15.1153"/>
<polygon fill="#191970" stroke="#191970" points="223.9582,-18.5351 233.3049,-13.5462 222.8871,-11.6175 223.9582,-18.5351"/>
</g>
<!-- Node23 -->
<g id="node24" class="node">
<title>Node23</title>
<polygon fill="#ffffff" stroke="#bfbfbf" points="105.5,-56.5 105.5,-75.5 161.5,-75.5 161.5,-56.5 105.5,-56.5"/>
<text text-anchor="middle" x="133.5" y="-63.5" font-family="Helvetica,sans-Serif" font-size="10.00" fill="#000000">stddef.h</text>
</g>
<!-- Node22&#45;&gt;Node23 -->
<g id="edge32" class="edge">
<title>Node22&#45;&gt;Node23</title>
<path fill="none" stroke="#191970" d="M133.5,-112.2455C133.5,-104.9382 133.5,-94.6944 133.5,-85.7046"/>
<polygon fill="#191970" stroke="#191970" points="137.0001,-85.6426 133.5,-75.6427 130.0001,-85.6427 137.0001,-85.6426"/>
</g>
<!-- Node24&#45;&gt;Node15 -->
<g id="edge35" class="edge">
<title>Node24&#45;&gt;Node15</title>
<path fill="none" stroke="#191970" d="M746.7535,-112.3733C764.5712,-103.4644 791.2747,-90.1127 811.4594,-80.0203"/>
<polygon fill="#191970" stroke="#191970" points="813.1187,-83.1038 820.4978,-75.5011 809.9882,-76.8428 813.1187,-83.1038"/>
</g>
<!-- Node25 -->
<g id="node26" class="node">
<title>Node25</title>
<g id="a_node26"><a xlink:href="adc_8h.html" target="_top" xlink:title="Low&#45;level ADC peripheral driver interface definitions. ">
<polygon fill="#ffffff" stroke="#000000" points="603.5,-56.5 603.5,-75.5 679.5,-75.5 679.5,-56.5 603.5,-56.5"/>
<text text-anchor="middle" x="641.5" y="-63.5" font-family="Helvetica,sans-Serif" font-size="10.00" fill="#000000">periph/adc.h</text>
</a>
</g>
</g>
<!-- Node24&#45;&gt;Node25 -->
<g id="edge36" class="edge">
<title>Node24&#45;&gt;Node25</title>
<path fill="none" stroke="#191970" d="M712.5199,-112.2455C699.3249,-103.6534 679.8949,-91.0014 664.6921,-81.1018"/>
<polygon fill="#191970" stroke="#191970" points="666.5983,-78.1665 656.3084,-75.6427 662.7785,-84.0325 666.5983,-78.1665"/>
</g>
<!-- Node26 -->
<g id="node27" class="node">
<title>Node26</title>
<g id="a_node27"><a xlink:href="pwm_8h.html" target="_top" xlink:title="Low&#45;level PWM peripheral driver interface definitions. ">
<polygon fill="#ffffff" stroke="#000000" points="698,-56.5 698,-75.5 781,-75.5 781,-56.5 698,-56.5"/>
<text text-anchor="middle" x="739.5" y="-63.5" font-family="Helvetica,sans-Serif" font-size="10.00" fill="#000000">periph/pwm.h</text>
</a>
</g>
</g>
<!-- Node24&#45;&gt;Node26 -->
<g id="edge41" class="edge">
<title>Node24&#45;&gt;Node26</title>
<path fill="none" stroke="#191970" d="M729.5902,-112.2455C731.1561,-104.9382 733.3512,-94.6944 735.2776,-85.7046"/>
<polygon fill="#191970" stroke="#191970" points="738.7607,-86.1541 737.4337,-75.6427 731.916,-84.6873 738.7607,-86.1541"/>
</g>
<!-- Node25&#45;&gt;Node4 -->
<g id="edge39" class="edge">
<title>Node25&#45;&gt;Node4</title>
<path fill="none" stroke="#191970" d="M630.7004,-56.2455C621.6322,-48.0549 608.4794,-36.1749 597.7755,-26.5069"/>
<polygon fill="#191970" stroke="#191970" points="599.9429,-23.7482 590.1758,-19.6427 595.2509,-28.9429 599.9429,-23.7482"/>
</g>
<!-- Node25&#45;&gt;Node9 -->
<g id="edge38" class="edge">
<title>Node25&#45;&gt;Node9</title>
<path fill="none" stroke="#191970" d="M603.2888,-61.0686C542.3295,-53.0978 419.3531,-36.594 315.5,-20 309.1,-18.9774 302.3013,-17.8219 295.7289,-16.6689"/>
<polygon fill="#191970" stroke="#191970" points="296.1356,-13.1864 285.6767,-14.8785 294.9081,-20.0779 296.1356,-13.1864"/>
</g>
<!-- Node25&#45;&gt;Node13 -->
<g id="edge37" class="edge">
<title>Node25&#45;&gt;Node13</title>
<path fill="none" stroke="#191970" d="M644.9837,-56.2455C647.6508,-48.7776 651.4133,-38.2427 654.6737,-29.1137"/>
<polygon fill="#191970" stroke="#191970" points="657.9889,-30.2373 658.0562,-19.6427 651.3967,-27.8829 657.9889,-30.2373"/>
</g>
<!-- Node25&#45;&gt;Node16 -->
<g id="edge40" class="edge">
<title>Node25&#45;&gt;Node16</title>
<path fill="none" stroke="#191970" d="M659.6154,-56.2455C675.945,-47.4527 700.171,-34.4079 718.7339,-24.4125"/>
<polygon fill="#191970" stroke="#191970" points="720.4468,-27.4654 727.5922,-19.6427 717.1281,-21.3021 720.4468,-27.4654"/>
</g>
<!-- Node26&#45;&gt;Node4 -->
<g id="edge44" class="edge">
<title>Node26&#45;&gt;Node4</title>
<path fill="none" stroke="#191970" d="M711.995,-56.3733C685.6198,-47.1419 645.6149,-33.1402 616.4642,-22.9375"/>
<polygon fill="#191970" stroke="#191970" points="617.2409,-19.5012 606.6461,-19.5011 614.9284,-26.1082 617.2409,-19.5012"/>
</g>
<!-- Node26&#45;&gt;Node9 -->
<g id="edge42" class="edge">
<title>Node26&#45;&gt;Node9</title>
<path fill="none" stroke="#191970" d="M697.8082,-57.4818C694.6644,-56.9448 691.5356,-56.443 688.5,-56 523.6977,-31.9483 480.4998,-42.6571 315.5,-20 309.0791,-19.1183 302.2702,-18.0315 295.6941,-16.9027"/>
<polygon fill="#191970" stroke="#191970" points="296.0991,-13.42 285.6412,-15.1177 294.8753,-20.3122 296.0991,-13.42"/>
</g>
<!-- Node26&#45;&gt;Node13 -->
<g id="edge43" class="edge">
<title>Node26&#45;&gt;Node13</title>
<path fill="none" stroke="#191970" d="M725.9134,-56.2455C714.1695,-47.814 696.9801,-35.4729 683.3118,-25.6598"/>
<polygon fill="#191970" stroke="#191970" points="685.0954,-22.6316 674.9309,-19.6427 681.0129,-28.3179 685.0954,-22.6316"/>
</g>
<!-- Node26&#45;&gt;Node16 -->
<g id="edge45" class="edge">
<title>Node26&#45;&gt;Node16</title>
<path fill="none" stroke="#191970" d="M740.5451,-56.2455C741.328,-48.9382 742.4256,-38.6944 743.3888,-29.7046"/>
<polygon fill="#191970" stroke="#191970" points="746.8815,-29.9587 744.4669,-19.6427 739.9214,-29.2129 746.8815,-29.9587"/>
</g>
</g>
</svg>
