<?xml version="1.0" encoding="UTF-8" standalone="no"?>
<!DOCTYPE svg PUBLIC "-//W3C//DTD SVG 1.1//EN"
 "http://www.w3.org/Graphics/SVG/1.1/DTD/svg11.dtd">
<!-- Generated by graphviz version 2.40.1 (0)
 -->
<!-- Title: boards/omote/include/gpio_params.h Pages: 1 -->
<svg width="851pt" height="375pt"
 viewBox="0.00 0.00 851.28 375.00" xmlns="http://www.w3.org/2000/svg" xmlns:xlink="http://www.w3.org/1999/xlink">
<g id="graph0" class="graph" transform="scale(1 1) rotate(0) translate(4 371)">
<title>boards/omote/include/gpio_params.h</title>
<polygon fill="#ffffff" stroke="transparent" points="-4,4 -4,-371 847.2835,-371 847.2835,4 -4,4"/>
<!-- Node0 -->
<g id="node1" class="node">
<title>Node0</title>
<polygon fill="#bfbfbf" stroke="#000000" points="311.5,-336.5 311.5,-366.5 431.5,-366.5 431.5,-336.5 311.5,-336.5"/>
<text text-anchor="start" x="319.5" y="-354.5" font-family="Helvetica,sans-Serif" font-size="10.00" fill="#000000">boards/omote/include</text>
<text text-anchor="middle" x="371.5" y="-343.5" font-family="Helvetica,sans-Serif" font-size="10.00" fill="#000000">/gpio_params.h</text>
</g>
<!-- Node1 -->
<g id="node2" class="node">
<title>Node1</title>
<g id="a_node2"><a xlink:href="omote_2include_2board_8h.html" target="_top" xlink:title="Board specific definitions for the omote board. ">
<polygon fill="#ffffff" stroke="#000000" points="318,-280.5 318,-299.5 371,-299.5 371,-280.5 318,-280.5"/>
<text text-anchor="middle" x="344.5" y="-287.5" font-family="Helvetica,sans-Serif" font-size="10.00" fill="#000000">board.h</text>
</a>
</g>
</g>
<!-- Node0&#45;&gt;Node1 -->
<g id="edge1" class="edge">
<title>Node0&#45;&gt;Node1</title>
<path fill="none" stroke="#191970" d="M364.8258,-336.2977C361.2341,-328.1166 356.7676,-317.943 352.9371,-309.2179"/>
<polygon fill="#191970" stroke="#191970" points="356.0478,-307.5964 348.823,-299.8469 349.6382,-310.4104 356.0478,-307.5964"/>
</g>
<!-- Node18 -->
<g id="node19" class="node">
<title>Node18</title>
<g id="a_node19"><a xlink:href="periph_8h.html" target="_top" xlink:title="Parameter definitions for mapping peripherals directly to SAUL. ">
<polygon fill="#ffffff" stroke="#000000" points="360.5,-112.5 360.5,-131.5 438.5,-131.5 438.5,-112.5 360.5,-112.5"/>
<text text-anchor="middle" x="399.5" y="-119.5" font-family="Helvetica,sans-Serif" font-size="10.00" fill="#000000">saul/periph.h</text>
</a>
</g>
</g>
<!-- Node0&#45;&gt;Node18 -->
<g id="edge27" class="edge">
<title>Node0&#45;&gt;Node18</title>
<path fill="none" stroke="#191970" d="M374.4458,-336.2186C376.3488,-325.9945 378.7815,-312.2238 380.5,-300 388.5505,-242.738 394.9354,-174.6847 397.8232,-141.775"/>
<polygon fill="#191970" stroke="#191970" points="401.3219,-141.9395 398.6958,-131.6753 394.3479,-141.3369 401.3219,-141.9395"/>
</g>
<!-- Node2 -->
<g id="node3" class="node">
<title>Node2</title>
<polygon fill="#ffffff" stroke="#bfbfbf" points="327.5,-224.5 327.5,-243.5 369.5,-243.5 369.5,-224.5 327.5,-224.5"/>
<text text-anchor="middle" x="348.5" y="-231.5" font-family="Helvetica,sans-Serif" font-size="10.00" fill="#000000">cpu.h</text>
</g>
<!-- Node1&#45;&gt;Node2 -->
<g id="edge2" class="edge">
<title>Node1&#45;&gt;Node2</title>
<path fill="none" stroke="#191970" d="M345.1967,-280.2455C345.7187,-272.9382 346.4504,-262.6944 347.0925,-253.7046"/>
<polygon fill="#191970" stroke="#191970" points="350.5898,-253.8667 347.8112,-243.6427 343.6076,-253.3679 350.5898,-253.8667"/>
</g>
<!-- Node3 -->
<g id="node4" class="node">
<title>Node3</title>
<g id="a_node4"><a xlink:href="drivers_2include_2periph_2gpio_8h.html" target="_top" xlink:title="Low&#45;level GPIO peripheral driver interface definitions. ">
<polygon fill="#ffffff" stroke="#000000" points="259.5,-56.5 259.5,-75.5 339.5,-75.5 339.5,-56.5 259.5,-56.5"/>
<text text-anchor="middle" x="299.5" y="-63.5" font-family="Helvetica,sans-Serif" font-size="10.00" fill="#000000">periph/gpio.h</text>
</a>
</g>
</g>
<!-- Node1&#45;&gt;Node3 -->
<g id="edge3" class="edge">
<title>Node1&#45;&gt;Node3</title>
<path fill="none" stroke="#191970" d="M337.4615,-280.3181C331.3473,-271.366 322.8149,-257.4521 318.5,-244 300.7533,-188.6735 298.794,-119.2225 299.028,-85.7852"/>
<polygon fill="#191970" stroke="#191970" points="302.5312,-85.5929 299.18,-75.5421 295.5319,-85.489 302.5312,-85.5929"/>
</g>
<!-- Node8 -->
<g id="node9" class="node">
<title>Node8</title>
<g id="a_node9"><a xlink:href="spi_8h.html" target="_top" xlink:title="Low&#45;level SPI peripheral driver interface definition. ">
<polygon fill="#ffffff" stroke="#000000" points="195,-112.5 195,-131.5 268,-131.5 268,-112.5 195,-112.5"/>
<text text-anchor="middle" x="231.5" y="-119.5" font-family="Helvetica,sans-Serif" font-size="10.00" fill="#000000">periph/spi.h</text>
</a>
</g>
</g>
<!-- Node1&#45;&gt;Node8 -->
<g id="edge8" class="edge">
<title>Node1&#45;&gt;Node8</title>
<path fill="none" stroke="#191970" d="M328.1721,-280.4384C315.1976,-272.1613 297.3259,-259.1547 285.5,-244 260.6744,-212.1864 244.6291,-167.171 236.911,-141.6567"/>
<polygon fill="#191970" stroke="#191970" points="240.1756,-140.3472 234.0302,-131.7168 233.4523,-142.2958 240.1756,-140.3472"/>
</g>
<!-- Node13 -->
<g id="node14" class="node">
<title>Node13</title>
<g id="a_node14"><a xlink:href="cc2538__eui__primary_8h.html" target="_top" xlink:title="CC2538 EUI&#45;64 provider. ">
<polygon fill="#ffffff" stroke="#000000" points="555.5,-224.5 555.5,-243.5 673.5,-243.5 673.5,-224.5 555.5,-224.5"/>
<text text-anchor="middle" x="614.5" y="-231.5" font-family="Helvetica,sans-Serif" font-size="10.00" fill="#000000">cc2538_eui_primary.h</text>
</a>
</g>
</g>
<!-- Node1&#45;&gt;Node13 -->
<g id="edge18" class="edge">
<title>Node1&#45;&gt;Node13</title>
<path fill="none" stroke="#191970" d="M371.3757,-284.4258C414.7872,-275.4219 501.2469,-257.4895 558.4855,-245.6178"/>
<polygon fill="#191970" stroke="#191970" points="559.3831,-249.0062 568.4639,-243.5482 557.9615,-242.1521 559.3831,-249.0062"/>
</g>
<!-- Node4 -->
<g id="node5" class="node">
<title>Node4</title>
<polygon fill="#ffffff" stroke="#bfbfbf" points="455.5,-.5 455.5,-19.5 505.5,-19.5 505.5,-.5 455.5,-.5"/>
<text text-anchor="middle" x="480.5" y="-7.5" font-family="Helvetica,sans-Serif" font-size="10.00" fill="#000000">limits.h</text>
</g>
<!-- Node3&#45;&gt;Node4 -->
<g id="edge4" class="edge">
<title>Node3&#45;&gt;Node4</title>
<path fill="none" stroke="#191970" d="M330.615,-56.3733C362.5832,-46.4825 412.2515,-31.1156 445.5528,-20.8124"/>
<polygon fill="#191970" stroke="#191970" points="446.8058,-24.0885 455.3245,-17.7891 444.7368,-17.4012 446.8058,-24.0885"/>
</g>
<!-- Node5 -->
<g id="node6" class="node">
<title>Node5</title>
<polygon fill="#ffffff" stroke="#bfbfbf" points="154.5,-.5 154.5,-19.5 214.5,-19.5 214.5,-.5 154.5,-.5"/>
<text text-anchor="middle" x="184.5" y="-7.5" font-family="Helvetica,sans-Serif" font-size="10.00" fill="#000000">stdbool.h</text>
</g>
<!-- Node3&#45;&gt;Node5 -->
<g id="edge5" class="edge">
<title>Node3&#45;&gt;Node5</title>
<path fill="none" stroke="#191970" d="M279.7308,-56.3733C261.3531,-47.4241 233.7688,-33.9917 213.0107,-23.8835"/>
<polygon fill="#191970" stroke="#191970" points="214.5343,-20.7325 204.0112,-19.5011 211.4696,-27.026 214.5343,-20.7325"/>
</g>
<!-- Node6 -->
<g id="node7" class="node">
<title>Node6</title>
<polygon fill="#ffffff" stroke="#bfbfbf" points="261,-.5 261,-19.5 338,-19.5 338,-.5 261,-.5"/>
<text text-anchor="middle" x="299.5" y="-7.5" font-family="Helvetica,sans-Serif" font-size="10.00" fill="#000000">periph_cpu.h</text>
</g>
<!-- Node3&#45;&gt;Node6 -->
<g id="edge6" class="edge">
<title>Node3&#45;&gt;Node6</title>
<path fill="none" stroke="#191970" d="M299.5,-56.2455C299.5,-48.9382 299.5,-38.6944 299.5,-29.7046"/>
<polygon fill="#191970" stroke="#191970" points="303.0001,-29.6426 299.5,-19.6427 296.0001,-29.6427 303.0001,-29.6426"/>
</g>
<!-- Node7 -->
<g id="node8" class="node">
<title>Node7</title>
<polygon fill="#ffffff" stroke="#bfbfbf" points="356,-.5 356,-19.5 437,-19.5 437,-.5 356,-.5"/>
<text text-anchor="middle" x="396.5" y="-7.5" font-family="Helvetica,sans-Serif" font-size="10.00" fill="#000000">periph_conf.h</text>
</g>
<!-- Node3&#45;&gt;Node7 -->
<g id="edge7" class="edge">
<title>Node3&#45;&gt;Node7</title>
<path fill="none" stroke="#191970" d="M316.3961,-56.2455C331.418,-47.5731 353.6043,-34.7645 370.821,-24.825"/>
<polygon fill="#191970" stroke="#191970" points="372.8871,-27.6737 379.7975,-19.6427 369.3872,-21.6114 372.8871,-27.6737"/>
</g>
<!-- Node8&#45;&gt;Node3 -->
<g id="edge17" class="edge">
<title>Node8&#45;&gt;Node3</title>
<path fill="none" stroke="#191970" d="M243.3447,-112.2455C253.388,-103.9746 267.9995,-91.9416 279.8004,-82.2232"/>
<polygon fill="#191970" stroke="#191970" points="282.2967,-84.7015 287.791,-75.6427 277.8467,-79.298 282.2967,-84.7015"/>
</g>
<!-- Node8&#45;&gt;Node5 -->
<g id="edge12" class="edge">
<title>Node8&#45;&gt;Node5</title>
<path fill="none" stroke="#191970" d="M214.4433,-112.377C202.1911,-104.4014 186.6292,-91.8248 179.5,-76 172.9452,-61.45 174.9735,-43.2633 178.2016,-29.6675"/>
<polygon fill="#191970" stroke="#191970" points="181.6091,-30.4769 180.9066,-19.9054 174.8633,-28.6076 181.6091,-30.4769"/>
</g>
<!-- Node8&#45;&gt;Node6 -->
<g id="edge15" class="edge">
<title>Node8&#45;&gt;Node6</title>
<path fill="none" stroke="#191970" d="M225.4586,-112.3632C217.8479,-98.8719 206.9637,-73.9915 217.5,-56 226.1755,-41.186 241.5626,-30.7802 256.6825,-23.6608"/>
<polygon fill="#191970" stroke="#191970" points="258.2033,-26.8166 265.9998,-19.6426 255.4313,-20.3888 258.2033,-26.8166"/>
</g>
<!-- Node8&#45;&gt;Node7 -->
<g id="edge16" class="edge">
<title>Node8&#45;&gt;Node7</title>
<path fill="none" stroke="#191970" d="M231.567,-112.0655C232.2087,-97.752 235.5139,-71.3643 250.5,-56 263.9844,-42.1753 309.2145,-29.2217 345.799,-20.6058"/>
<polygon fill="#191970" stroke="#191970" points="346.8936,-23.9456 355.8549,-18.2936 345.3249,-17.1236 346.8936,-23.9456"/>
</g>
<!-- Node9 -->
<g id="node10" class="node">
<title>Node9</title>
<g id="a_node10"><a xlink:href="endian_8h.html" target="_top" xlink:title="libc header for endian conversion ">
<polygon fill="#ffffff" stroke="#000000" points="592,-56.5 592,-75.5 649,-75.5 649,-56.5 592,-56.5"/>
<text text-anchor="middle" x="620.5" y="-63.5" font-family="Helvetica,sans-Serif" font-size="10.00" fill="#000000">endian.h</text>
</a>
</g>
</g>
<!-- Node8&#45;&gt;Node9 -->
<g id="edge9" class="edge">
<title>Node8&#45;&gt;Node9</title>
<path fill="none" stroke="#191970" d="M268.0453,-118.3125C331.3591,-111.6633 465.4232,-96.4333 577.5,-76 578.9609,-75.7337 580.447,-75.4503 581.9461,-75.1542"/>
<polygon fill="#191970" stroke="#191970" points="582.836,-78.5436 591.8989,-73.0561 581.392,-71.6941 582.836,-78.5436"/>
</g>
<!-- Node10 -->
<g id="node11" class="node">
<title>Node10</title>
<polygon fill="#ffffff" stroke="#bfbfbf" points="594.5,-.5 594.5,-19.5 646.5,-19.5 646.5,-.5 594.5,-.5"/>
<text text-anchor="middle" x="620.5" y="-7.5" font-family="Helvetica,sans-Serif" font-size="10.00" fill="#000000">stdint.h</text>
</g>
<!-- Node8&#45;&gt;Node10 -->
<g id="edge14" class="edge">
<title>Node8&#45;&gt;Node10</title>
<path fill="none" stroke="#191970" d="M268.056,-119.216C339.7008,-113.3403 495.8354,-98.3484 544.5,-76 569.1549,-64.6776 591.8571,-42.8149 605.9075,-27.3601"/>
<polygon fill="#191970" stroke="#191970" points="608.8072,-29.3626 612.7806,-19.541 603.5497,-24.7411 608.8072,-29.3626"/>
</g>
<!-- Node11 -->
<g id="node12" class="node">
<title>Node11</title>
<g id="a_node12"><a xlink:href="errno_8h.html" target="_top" xlink:title="errno.h">
<polygon fill="#ffffff" stroke="#000000" points="0,-56.5 0,-75.5 53,-75.5 53,-56.5 0,-56.5"/>
<text text-anchor="middle" x="26.5" y="-63.5" font-family="Helvetica,sans-Serif" font-size="10.00" fill="#000000">errno.h</text>
</a>
</g>
</g>
<!-- Node8&#45;&gt;Node11 -->
<g id="edge11" class="edge">
<title>Node8&#45;&gt;Node11</title>
<path fill="none" stroke="#191970" d="M196.204,-112.4501C164.0081,-103.7262 114.8616,-90.3777 62.9532,-76.1151"/>
<polygon fill="#191970" stroke="#191970" points="63.8022,-72.7187 53.2321,-73.4422 61.9463,-79.4682 63.8022,-72.7187"/>
</g>
<!-- Node12 -->
<g id="node13" class="node">
<title>Node12</title>
<polygon fill="#ffffff" stroke="#bfbfbf" points="71.5,-56.5 71.5,-75.5 127.5,-75.5 127.5,-56.5 71.5,-56.5"/>
<text text-anchor="middle" x="99.5" y="-63.5" font-family="Helvetica,sans-Serif" font-size="10.00" fill="#000000">stddef.h</text>
</g>
<!-- Node8&#45;&gt;Node12 -->
<g id="edge13" class="edge">
<title>Node8&#45;&gt;Node12</title>
<path fill="none" stroke="#191970" d="M208.8084,-112.3733C187.4289,-103.3032 155.1943,-89.6279 131.2638,-79.4755"/>
<polygon fill="#191970" stroke="#191970" points="132.4683,-76.1846 121.8955,-75.5011 129.7344,-82.6287 132.4683,-76.1846"/>
</g>
<!-- Node9&#45;&gt;Node10 -->
<g id="edge10" class="edge">
<title>Node9&#45;&gt;Node10</title>
<path fill="none" stroke="#191970" d="M620.5,-56.2455C620.5,-48.9382 620.5,-38.6944 620.5,-29.7046"/>
<polygon fill="#191970" stroke="#191970" points="624.0001,-29.6426 620.5,-19.6427 617.0001,-29.6427 624.0001,-29.6426"/>
</g>
<!-- Node14 -->
<g id="node15" class="node">
<title>Node14</title>
<g id="a_node15"><a xlink:href="eui64_8h.html" target="_top" xlink:title="EUI&#45;64 data type definition. ">
<polygon fill="#ffffff" stroke="#000000" points="707,-168.5 707,-187.5 778,-187.5 778,-168.5 707,-168.5"/>
<text text-anchor="middle" x="742.5" y="-175.5" font-family="Helvetica,sans-Serif" font-size="10.00" fill="#000000">net/eui64.h</text>
</a>
</g>
</g>
<!-- Node13&#45;&gt;Node14 -->
<g id="edge19" class="edge">
<title>Node13&#45;&gt;Node14</title>
<path fill="none" stroke="#191970" d="M636.504,-224.3733C657.1435,-215.3435 688.2158,-201.7494 711.3889,-191.6111"/>
<polygon fill="#191970" stroke="#191970" points="713.0245,-194.7159 720.7831,-187.5011 710.2187,-188.3028 713.0245,-194.7159"/>
</g>
<!-- Node14&#45;&gt;Node10 -->
<g id="edge20" class="edge">
<title>Node14&#45;&gt;Node10</title>
<path fill="none" stroke="#191970" d="M759.3474,-168.4997C794.0522,-147.7505 867.5917,-96.9608 834.5,-56 812.5695,-28.8546 711.9581,-16.9825 656.8504,-12.4406"/>
<polygon fill="#191970" stroke="#191970" points="657.0389,-8.9448 646.7958,-11.6517 656.4913,-15.9233 657.0389,-8.9448"/>
</g>
<!-- Node15 -->
<g id="node16" class="node">
<title>Node15</title>
<g id="a_node16"><a xlink:href="byteorder_8h.html" target="_top" xlink:title="Functions to work with different byte orders. ">
<polygon fill="#ffffff" stroke="#000000" points="706,-112.5 706,-131.5 779,-131.5 779,-112.5 706,-112.5"/>
<text text-anchor="middle" x="742.5" y="-119.5" font-family="Helvetica,sans-Serif" font-size="10.00" fill="#000000">byteorder.h</text>
</a>
</g>
</g>
<!-- Node14&#45;&gt;Node15 -->
<g id="edge21" class="edge">
<title>Node14&#45;&gt;Node15</title>
<path fill="none" stroke="#191970" d="M742.5,-168.2455C742.5,-160.9382 742.5,-150.6944 742.5,-141.7046"/>
<polygon fill="#191970" stroke="#191970" points="746.0001,-141.6426 742.5,-131.6427 739.0001,-141.6427 746.0001,-141.6426"/>
</g>
<!-- Node15&#45;&gt;Node9 -->
<g id="edge24" class="edge">
<title>Node15&#45;&gt;Node9</title>
<path fill="none" stroke="#191970" d="M721.5275,-112.3733C701.9433,-103.3838 672.5039,-89.8706 650.449,-79.7471"/>
<polygon fill="#191970" stroke="#191970" points="651.7473,-76.4919 641.1989,-75.5011 648.8271,-82.8538 651.7473,-76.4919"/>
</g>
<!-- Node15&#45;&gt;Node10 -->
<g id="edge23" class="edge">
<title>Node15&#45;&gt;Node10</title>
<path fill="none" stroke="#191970" d="M768.9772,-112.4307C797.6326,-100.6078 836.9233,-79.1941 818.5,-56 798.6837,-31.0521 708.322,-18.4129 656.7864,-13.1302"/>
<polygon fill="#191970" stroke="#191970" points="657.0179,-9.6361 646.7235,-12.1415 656.3333,-16.6026 657.0179,-9.6361"/>
</g>
<!-- Node16 -->
<g id="node17" class="node">
<title>Node16</title>
<polygon fill="#ffffff" stroke="#bfbfbf" points="756,-56.5 756,-75.5 809,-75.5 809,-56.5 756,-56.5"/>
<text text-anchor="middle" x="782.5" y="-63.5" font-family="Helvetica,sans-Serif" font-size="10.00" fill="#000000">string.h</text>
</g>
<!-- Node15&#45;&gt;Node16 -->
<g id="edge22" class="edge">
<title>Node15&#45;&gt;Node16</title>
<path fill="none" stroke="#191970" d="M749.4675,-112.2455C755.0311,-104.4564 762.978,-93.3308 769.6829,-83.9439"/>
<polygon fill="#191970" stroke="#191970" points="772.648,-85.8144 775.6124,-75.6427 766.9519,-81.7457 772.648,-85.8144"/>
</g>
<!-- Node17 -->
<g id="node18" class="node">
<title>Node17</title>
<g id="a_node18"><a xlink:href="unaligned_8h.html" target="_top" xlink:title="Unaligned but safe memory access functions. ">
<polygon fill="#ffffff" stroke="#000000" points="667,-56.5 667,-75.5 738,-75.5 738,-56.5 667,-56.5"/>
<text text-anchor="middle" x="702.5" y="-63.5" font-family="Helvetica,sans-Serif" font-size="10.00" fill="#000000">unaligned.h</text>
</a>
</g>
</g>
<!-- Node15&#45;&gt;Node17 -->
<g id="edge25" class="edge">
<title>Node15&#45;&gt;Node17</title>
<path fill="none" stroke="#191970" d="M735.5325,-112.2455C729.9689,-104.4564 722.022,-93.3308 715.3171,-83.9439"/>
<polygon fill="#191970" stroke="#191970" points="718.0481,-81.7457 709.3876,-75.6427 712.352,-85.8144 718.0481,-81.7457"/>
</g>
<!-- Node17&#45;&gt;Node10 -->
<g id="edge26" class="edge">
<title>Node17&#45;&gt;Node10</title>
<path fill="none" stroke="#191970" d="M688.2167,-56.2455C675.753,-47.7337 657.4549,-35.2375 643.0208,-25.3801"/>
<polygon fill="#191970" stroke="#191970" points="644.8515,-22.392 634.6196,-19.6427 640.9038,-28.1726 644.8515,-22.392"/>
</g>
<!-- Node18&#45;&gt;Node3 -->
<g id="edge28" class="edge">
<title>Node18&#45;&gt;Node3</title>
<path fill="none" stroke="#191970" d="M382.0813,-112.2455C366.4515,-103.4928 343.2981,-90.527 325.4815,-80.5496"/>
<polygon fill="#191970" stroke="#191970" points="327.1543,-77.475 316.7191,-75.6427 323.734,-83.5825 327.1543,-77.475"/>
</g>
<!-- Node19 -->
<g id="node20" class="node">
<title>Node19</title>
<g id="a_node20"><a xlink:href="adc_8h.html" target="_top" xlink:title="Low&#45;level ADC peripheral driver interface definitions. ">
<polygon fill="#ffffff" stroke="#000000" points="459.5,-56.5 459.5,-75.5 535.5,-75.5 535.5,-56.5 459.5,-56.5"/>
<text text-anchor="middle" x="497.5" y="-63.5" font-family="Helvetica,sans-Serif" font-size="10.00" fill="#000000">periph/adc.h</text>
</a>
</g>
</g>
<!-- Node18&#45;&gt;Node19 -->
<g id="edge29" class="edge">
<title>Node18&#45;&gt;Node19</title>
<path fill="none" stroke="#191970" d="M416.5703,-112.2455C431.747,-103.5731 454.1621,-90.7645 471.5563,-80.825"/>
<polygon fill="#191970" stroke="#191970" points="473.6794,-83.643 480.6253,-75.6427 470.2064,-77.5653 473.6794,-83.643"/>
</g>
<!-- Node20 -->
<g id="node21" class="node">
<title>Node20</title>
<g id="a_node21"><a xlink:href="pwm_8h.html" target="_top" xlink:title="Low&#45;level PWM peripheral driver interface definitions. ">
<polygon fill="#ffffff" stroke="#000000" points="358,-56.5 358,-75.5 441,-75.5 441,-56.5 358,-56.5"/>
<text text-anchor="middle" x="399.5" y="-63.5" font-family="Helvetica,sans-Serif" font-size="10.00" fill="#000000">periph/pwm.h</text>
</a>
</g>
</g>
<!-- Node18&#45;&gt;Node20 -->
<g id="edge34" class="edge">
<title>Node18&#45;&gt;Node20</title>
<path fill="none" stroke="#191970" d="M399.5,-112.2455C399.5,-104.9382 399.5,-94.6944 399.5,-85.7046"/>
<polygon fill="#191970" stroke="#191970" points="403.0001,-85.6426 399.5,-75.6427 396.0001,-85.6427 403.0001,-85.6426"/>
</g>
<!-- Node19&#45;&gt;Node4 -->
<g id="edge30" class="edge">
<title>Node19&#45;&gt;Node4</title>
<path fill="none" stroke="#191970" d="M494.5388,-56.2455C492.2962,-48.8579 489.1423,-38.4689 486.3919,-29.4087"/>
<polygon fill="#191970" stroke="#191970" points="489.6812,-28.1948 483.4272,-19.6427 482.983,-30.2282 489.6812,-28.1948"/>
</g>
<!-- Node19&#45;&gt;Node6 -->
<g id="edge32" class="edge">
<title>Node19&#45;&gt;Node6</title>
<path fill="none" stroke="#191970" d="M463.4626,-56.3733C430.1106,-46.9404 379.1473,-32.5265 342.8998,-22.2747"/>
<polygon fill="#191970" stroke="#191970" points="343.6684,-18.8548 333.0933,-19.5011 341.7632,-25.5906 343.6684,-18.8548"/>
</g>
<!-- Node19&#45;&gt;Node7 -->
<g id="edge33" class="edge">
<title>Node19&#45;&gt;Node7</title>
<path fill="none" stroke="#191970" d="M479.9071,-56.2455C464.121,-47.4928 440.7361,-34.527 422.7413,-24.5496"/>
<polygon fill="#191970" stroke="#191970" points="424.3341,-21.4308 413.8913,-19.6427 420.9397,-27.5528 424.3341,-21.4308"/>
</g>
<!-- Node19&#45;&gt;Node10 -->
<g id="edge31" class="edge">
<title>Node19&#45;&gt;Node10</title>
<path fill="none" stroke="#191970" d="M518.6445,-56.3733C538.3892,-47.3838 568.0698,-33.8706 590.3055,-23.7471"/>
<polygon fill="#191970" stroke="#191970" points="591.9806,-26.8302 599.6315,-19.5011 589.08,-20.4594 591.9806,-26.8302"/>
</g>
<!-- Node20&#45;&gt;Node4 -->
<g id="edge36" class="edge">
<title>Node20&#45;&gt;Node4</title>
<path fill="none" stroke="#191970" d="M413.6091,-56.2455C425.9209,-47.7337 443.9958,-35.2375 458.2538,-25.3801"/>
<polygon fill="#191970" stroke="#191970" points="460.3174,-28.2085 466.5526,-19.6427 456.3366,-22.4506 460.3174,-28.2085"/>
</g>
<!-- Node20&#45;&gt;Node6 -->
<g id="edge37" class="edge">
<title>Node20&#45;&gt;Node6</title>
<path fill="none" stroke="#191970" d="M382.0813,-56.2455C366.4515,-47.4928 343.2981,-34.527 325.4815,-24.5496"/>
<polygon fill="#191970" stroke="#191970" points="327.1543,-21.475 316.7191,-19.6427 323.734,-27.5825 327.1543,-21.475"/>
</g>
<!-- Node20&#45;&gt;Node7 -->
<g id="edge38" class="edge">
<title>Node20&#45;&gt;Node7</title>
<path fill="none" stroke="#191970" d="M398.9774,-56.2455C398.586,-48.9382 398.0372,-38.6944 397.5556,-29.7046"/>
<polygon fill="#191970" stroke="#191970" points="401.0466,-29.4411 397.0166,-19.6427 394.0566,-29.8156 401.0466,-29.4411"/>
</g>
<!-- Node20&#45;&gt;Node10 -->
<g id="edge35" class="edge">
<title>Node20&#45;&gt;Node10</title>
<path fill="none" stroke="#191970" d="M437.2401,-56.4369C478.4952,-45.9831 544.1082,-29.3572 584.6151,-19.093"/>
<polygon fill="#191970" stroke="#191970" points="585.5085,-22.4773 594.3424,-16.6282 583.789,-15.6918 585.5085,-22.4773"/>
</g>
</g>
</svg>
