<?xml version="1.0" encoding="UTF-8" standalone="no"?>
<!DOCTYPE svg PUBLIC "-//W3C//DTD SVG 1.1//EN"
 "http://www.w3.org/Graphics/SVG/1.1/DTD/svg11.dtd">
<!-- Generated by graphviz version 2.40.1 (0)
 -->
<!-- Title: pkg/openwsn/include/openwsn_radio.h Pages: 1 -->
<svg width="1077pt" height="375pt"
 viewBox="0.00 0.00 1076.69 375.00" xmlns="http://www.w3.org/2000/svg" xmlns:xlink="http://www.w3.org/1999/xlink">
<g id="graph0" class="graph" transform="scale(1 1) rotate(0) translate(4 371)">
<title>pkg/openwsn/include/openwsn_radio.h</title>
<polygon fill="#ffffff" stroke="transparent" points="-4,4 -4,-371 1072.6868,-371 1072.6868,4 -4,4"/>
<!-- Node0 -->
<g id="node1" class="node">
<title>Node0</title>
<polygon fill="#bfbfbf" stroke="#000000" points="453.6868,-336.5 453.6868,-366.5 569.6868,-366.5 569.6868,-336.5 453.6868,-336.5"/>
<text text-anchor="start" x="461.6868" y="-354.5" font-family="Helvetica,sans-Serif" font-size="10.00" fill="#000000">pkg/openwsn/include</text>
<text text-anchor="middle" x="511.6868" y="-343.5" font-family="Helvetica,sans-Serif" font-size="10.00" fill="#000000">/openwsn_radio.h</text>
</g>
<!-- Node1 -->
<g id="node2" class="node">
<title>Node1</title>
<g id="a_node2"><a xlink:href="drivers_2include_2net_2netdev_8h.html" target="_top" xlink:title="Definitions low&#45;level network driver interface. ">
<polygon fill="#ffffff" stroke="#000000" points="691.1868,-224.5 691.1868,-243.5 768.1868,-243.5 768.1868,-224.5 691.1868,-224.5"/>
<text text-anchor="middle" x="729.6868" y="-231.5" font-family="Helvetica,sans-Serif" font-size="10.00" fill="#000000">net/netdev.h</text>
</a>
</g>
</g>
<!-- Node0&#45;&gt;Node1 -->
<g id="edge1" class="edge">
<title>Node0&#45;&gt;Node1</title>
<path fill="none" stroke="#191970" d="M539.7402,-336.3795C581.9881,-313.6083 661.4043,-270.8036 702.8969,-248.4395"/>
<polygon fill="#191970" stroke="#191970" points="704.7251,-251.4302 711.8672,-243.6046 701.4038,-245.2683 704.7251,-251.4302"/>
</g>
<!-- Node16 -->
<g id="node17" class="node">
<title>Node16</title>
<g id="a_node17"><a xlink:href="radio_8h_source.html" target="_top" xlink:title="net/ieee802154/radio.h">
<polygon fill="#ffffff" stroke="#000000" points="401.1868,-280.5 401.1868,-299.5 530.1868,-299.5 530.1868,-280.5 401.1868,-280.5"/>
<text text-anchor="middle" x="465.6868" y="-287.5" font-family="Helvetica,sans-Serif" font-size="10.00" fill="#000000">net/ieee802154/radio.h</text>
</a>
</g>
</g>
<!-- Node0&#45;&gt;Node16 -->
<g id="edge25" class="edge">
<title>Node0&#45;&gt;Node16</title>
<path fill="none" stroke="#191970" d="M500.3161,-336.2977C493.9308,-327.7609 485.9227,-317.0545 479.2163,-308.0883"/>
<polygon fill="#191970" stroke="#191970" points="481.8444,-305.7584 473.052,-299.8469 476.2389,-309.9511 481.8444,-305.7584"/>
</g>
<!-- Node2 -->
<g id="node3" class="node">
<title>Node2</title>
<polygon fill="#ffffff" stroke="#bfbfbf" points="609.6868,-.5 609.6868,-19.5 661.6868,-19.5 661.6868,-.5 609.6868,-.5"/>
<text text-anchor="middle" x="635.6868" y="-7.5" font-family="Helvetica,sans-Serif" font-size="10.00" fill="#000000">stdint.h</text>
</g>
<!-- Node1&#45;&gt;Node2 -->
<g id="edge2" class="edge">
<title>Node1&#45;&gt;Node2</title>
<path fill="none" stroke="#191970" d="M735.8185,-224.3092C743.5364,-210.7538 754.5472,-185.7978 743.6868,-168 725.4639,-138.1366 696.1941,-158.783 673.6868,-132 648.6976,-102.2635 640.1152,-56.134 637.1864,-29.9455"/>
<polygon fill="#191970" stroke="#191970" points="640.648,-29.3734 636.2227,-19.747 633.6791,-30.032 640.648,-29.3734"/>
</g>
<!-- Node3 -->
<g id="node4" class="node">
<title>Node3</title>
<g id="a_node4"><a xlink:href="errno_8h.html" target="_top" xlink:title="errno.h">
<polygon fill="#ffffff" stroke="#000000" points="587.1868,-168.5 587.1868,-187.5 640.1868,-187.5 640.1868,-168.5 587.1868,-168.5"/>
<text text-anchor="middle" x="613.6868" y="-175.5" font-family="Helvetica,sans-Serif" font-size="10.00" fill="#000000">errno.h</text>
</a>
</g>
</g>
<!-- Node1&#45;&gt;Node3 -->
<g id="edge3" class="edge">
<title>Node1&#45;&gt;Node3</title>
<path fill="none" stroke="#191970" d="M709.7457,-224.3733C691.2082,-215.4241 663.384,-201.9917 642.4455,-191.8835"/>
<polygon fill="#191970" stroke="#191970" points="643.8949,-188.6967 633.3677,-187.5011 640.8516,-195.0006 643.8949,-188.6967"/>
</g>
<!-- Node4 -->
<g id="node5" class="node">
<title>Node4</title>
<g id="a_node5"><a xlink:href="iolist_8h.html" target="_top" xlink:title="iolist scatter / gather IO ">
<polygon fill="#ffffff" stroke="#000000" points="943.1868,-168.5 943.1868,-187.5 990.1868,-187.5 990.1868,-168.5 943.1868,-168.5"/>
<text text-anchor="middle" x="966.6868" y="-175.5" font-family="Helvetica,sans-Serif" font-size="10.00" fill="#000000">iolist.h</text>
</a>
</g>
</g>
<!-- Node1&#45;&gt;Node4 -->
<g id="edge4" class="edge">
<title>Node1&#45;&gt;Node4</title>
<path fill="none" stroke="#191970" d="M768.2391,-226.1768C807.399,-218.0376 869.9801,-204.5035 933.2123,-187.984"/>
<polygon fill="#191970" stroke="#191970" points="934.1748,-191.35 942.9524,-185.4167 932.3906,-184.5812 934.1748,-191.35"/>
</g>
<!-- Node8 -->
<g id="node9" class="node">
<title>Node8</title>
<g id="a_node9"><a xlink:href="netopt_8h.html" target="_top" xlink:title="Definition of global configuration options. ">
<polygon fill="#ffffff" stroke="#000000" points="658.1868,-168.5 658.1868,-187.5 735.1868,-187.5 735.1868,-168.5 658.1868,-168.5"/>
<text text-anchor="middle" x="696.6868" y="-175.5" font-family="Helvetica,sans-Serif" font-size="10.00" fill="#000000">net/netopt.h</text>
</a>
</g>
</g>
<!-- Node1&#45;&gt;Node8 -->
<g id="edge11" class="edge">
<title>Node1&#45;&gt;Node8</title>
<path fill="none" stroke="#191970" d="M723.9387,-224.2455C719.4433,-216.617 713.062,-205.7881 707.6044,-196.5267"/>
<polygon fill="#191970" stroke="#191970" points="710.4615,-194.4811 702.3691,-187.6427 704.4307,-198.035 710.4615,-194.4811"/>
</g>
<!-- Node10 -->
<g id="node11" class="node">
<title>Node10</title>
<g id="a_node11"><a xlink:href="kernel__defines_8h.html" target="_top" xlink:title="Common macros and compiler attributes/pragmas configuration. ">
<polygon fill="#ffffff" stroke="#000000" points="830.1868,-168.5 830.1868,-187.5 925.1868,-187.5 925.1868,-168.5 830.1868,-168.5"/>
<text text-anchor="middle" x="877.6868" y="-175.5" font-family="Helvetica,sans-Serif" font-size="10.00" fill="#000000">kernel_defines.h</text>
</a>
</g>
</g>
<!-- Node1&#45;&gt;Node10 -->
<g id="edge14" class="edge">
<title>Node1&#45;&gt;Node10</title>
<path fill="none" stroke="#191970" d="M755.129,-224.3733C779.4195,-215.1822 816.2077,-201.2624 843.1411,-191.0713"/>
<polygon fill="#191970" stroke="#191970" points="844.4625,-194.3136 852.5767,-187.5011 841.9852,-187.7666 844.4625,-194.3136"/>
</g>
<!-- Node5 -->
<g id="node6" class="node">
<title>Node5</title>
<g id="a_node6"><a xlink:href="unistd_8h_source.html" target="_top" xlink:title="unistd.h">
<polygon fill="#ffffff" stroke="#000000" points="1014.6868,-112.5 1014.6868,-131.5 1068.6868,-131.5 1068.6868,-112.5 1014.6868,-112.5"/>
<text text-anchor="middle" x="1041.6868" y="-119.5" font-family="Helvetica,sans-Serif" font-size="10.00" fill="#000000">unistd.h</text>
</a>
</g>
</g>
<!-- Node4&#45;&gt;Node5 -->
<g id="edge5" class="edge">
<title>Node4&#45;&gt;Node5</title>
<path fill="none" stroke="#191970" d="M979.7508,-168.2455C991.0431,-159.814 1007.5713,-147.4729 1020.714,-137.6598"/>
<polygon fill="#191970" stroke="#191970" points="1022.8538,-140.4301 1028.7726,-131.6427 1018.6657,-134.8211 1022.8538,-140.4301"/>
</g>
<!-- Node5&#45;&gt;Node2 -->
<g id="edge7" class="edge">
<title>Node5&#45;&gt;Node2</title>
<path fill="none" stroke="#191970" d="M1014.6698,-116.9078C978.6885,-109.7356 913.341,-95.3419 859.6868,-76 840.237,-68.9885 837.1367,-63.0115 817.6868,-56 768.2233,-38.1688 708.8215,-24.543 671.6524,-16.9038"/>
<polygon fill="#191970" stroke="#191970" points="672.2804,-13.46 661.7852,-14.9094 670.8935,-20.3213 672.2804,-13.46"/>
</g>
<!-- Node6 -->
<g id="node7" class="node">
<title>Node6</title>
<polygon fill="#ffffff" stroke="#bfbfbf" points="962.6868,-.5 962.6868,-19.5 1018.6868,-19.5 1018.6868,-.5 962.6868,-.5"/>
<text text-anchor="middle" x="990.6868" y="-7.5" font-family="Helvetica,sans-Serif" font-size="10.00" fill="#000000">stddef.h</text>
</g>
<!-- Node5&#45;&gt;Node6 -->
<g id="edge6" class="edge">
<title>Node5&#45;&gt;Node6</title>
<path fill="none" stroke="#191970" d="M1042.3457,-112.0867C1042.8319,-98.7031 1042.2689,-74.4124 1033.6868,-56 1028.507,-44.887 1019.6124,-34.6821 1011.2522,-26.7228"/>
<polygon fill="#191970" stroke="#191970" points="1013.3259,-23.8818 1003.5392,-19.8233 1008.659,-29.099 1013.3259,-23.8818"/>
</g>
<!-- Node7 -->
<g id="node8" class="node">
<title>Node7</title>
<g id="a_node8"><a xlink:href="cpu_2avr8__common_2avr__libc__extra_2include_2sys_2types_8h_source.html" target="_top" xlink:title="sys/types.h">
<polygon fill="#ffffff" stroke="#000000" points="956.1868,-56.5 956.1868,-75.5 1025.1868,-75.5 1025.1868,-56.5 956.1868,-56.5"/>
<text text-anchor="middle" x="990.6868" y="-63.5" font-family="Helvetica,sans-Serif" font-size="10.00" fill="#000000">sys/types.h</text>
</a>
</g>
</g>
<!-- Node5&#45;&gt;Node7 -->
<g id="edge8" class="edge">
<title>Node5&#45;&gt;Node7</title>
<path fill="none" stroke="#191970" d="M1032.8033,-112.2455C1025.4903,-104.2155 1014.9477,-92.6394 1006.2402,-83.0781"/>
<polygon fill="#191970" stroke="#191970" points="1008.7896,-80.6795 999.4686,-75.6427 1003.6142,-85.3928 1008.7896,-80.6795"/>
</g>
<!-- Node7&#45;&gt;Node2 -->
<g id="edge9" class="edge">
<title>Node7&#45;&gt;Node2</title>
<path fill="none" stroke="#191970" d="M956.1517,-57.8882C952.9584,-57.2176 949.7668,-56.5769 946.6868,-56 847.9513,-37.5062 730.4412,-21.8285 672.1834,-14.4763"/>
<polygon fill="#191970" stroke="#191970" points="672.3705,-10.9724 662.0128,-13.2016 671.4999,-17.9181 672.3705,-10.9724"/>
</g>
<!-- Node7&#45;&gt;Node6 -->
<g id="edge10" class="edge">
<title>Node7&#45;&gt;Node6</title>
<path fill="none" stroke="#191970" d="M990.6868,-56.2455C990.6868,-48.9382 990.6868,-38.6944 990.6868,-29.7046"/>
<polygon fill="#191970" stroke="#191970" points="994.1869,-29.6426 990.6868,-19.6427 987.1869,-29.6427 994.1869,-29.6426"/>
</g>
<!-- Node8&#45;&gt;Node2 -->
<g id="edge12" class="edge">
<title>Node8&#45;&gt;Node2</title>
<path fill="none" stroke="#191970" d="M678.2742,-168.4383C665.2408,-160.5712 648.7072,-148.1053 640.6868,-132 624.2974,-99.0893 627.8204,-54.7748 631.7975,-29.6142"/>
<polygon fill="#191970" stroke="#191970" points="635.2891,-29.9687 633.5868,-19.5115 628.3964,-28.7478 635.2891,-29.9687"/>
</g>
<!-- Node9 -->
<g id="node10" class="node">
<title>Node9</title>
<polygon fill="#ffffff" stroke="#bfbfbf" points="528.6868,-112.5 528.6868,-131.5 588.6868,-131.5 588.6868,-112.5 528.6868,-112.5"/>
<text text-anchor="middle" x="558.6868" y="-119.5" font-family="Helvetica,sans-Serif" font-size="10.00" fill="#000000">stdbool.h</text>
</g>
<!-- Node8&#45;&gt;Node9 -->
<g id="edge13" class="edge">
<title>Node8&#45;&gt;Node9</title>
<path fill="none" stroke="#191970" d="M672.9638,-168.3733C650.5132,-159.2629 616.6129,-145.5062 591.5614,-135.3404"/>
<polygon fill="#191970" stroke="#191970" points="592.6825,-132.0182 582.1003,-131.5011 590.0504,-138.5045 592.6825,-132.0182"/>
</g>
<!-- Node11 -->
<g id="node12" class="node">
<title>Node11</title>
<g id="a_node12"><a xlink:href="modules_8h.html" target="_top" xlink:title="Common macros and compiler attributes/pragmas configuration. ">
<polygon fill="#ffffff" stroke="#000000" points="683.1868,-112.5 683.1868,-131.5 748.1868,-131.5 748.1868,-112.5 683.1868,-112.5"/>
<text text-anchor="middle" x="715.6868" y="-119.5" font-family="Helvetica,sans-Serif" font-size="10.00" fill="#000000">modules.h</text>
</a>
</g>
</g>
<!-- Node10&#45;&gt;Node11 -->
<g id="edge15" class="edge">
<title>Node10&#45;&gt;Node11</title>
<path fill="none" stroke="#191970" d="M849.8381,-168.3733C823.0165,-159.1016 782.2741,-145.0178 752.7271,-134.804"/>
<polygon fill="#191970" stroke="#191970" points="753.767,-131.4603 743.1722,-131.5011 751.48,-138.0762 753.767,-131.4603"/>
</g>
<!-- Node12 -->
<g id="node13" class="node">
<title>Node12</title>
<g id="a_node13"><a xlink:href="riot__version_8h.html" target="_top" xlink:title="Common macros and compiler attributes/pragmas configuration. ">
<polygon fill="#ffffff" stroke="#000000" points="877.1868,-112.5 877.1868,-131.5 958.1868,-131.5 958.1868,-112.5 877.1868,-112.5"/>
<text text-anchor="middle" x="917.6868" y="-119.5" font-family="Helvetica,sans-Serif" font-size="10.00" fill="#000000">riot_version.h</text>
</a>
</g>
</g>
<!-- Node10&#45;&gt;Node12 -->
<g id="edge16" class="edge">
<title>Node10&#45;&gt;Node12</title>
<path fill="none" stroke="#191970" d="M884.6543,-168.2455C890.218,-160.4564 898.1649,-149.3308 904.8697,-139.9439"/>
<polygon fill="#191970" stroke="#191970" points="907.8349,-141.8144 910.7992,-131.6427 902.1387,-137.7457 907.8349,-141.8144"/>
</g>
<!-- Node13 -->
<g id="node14" class="node">
<title>Node13</title>
<g id="a_node14"><a xlink:href="compiler__hints_8h.html" target="_top" xlink:title="Common macros and compiler attributes/pragmas configuration. ">
<polygon fill="#ffffff" stroke="#000000" points="766.1868,-112.5 766.1868,-131.5 859.1868,-131.5 859.1868,-112.5 766.1868,-112.5"/>
<text text-anchor="middle" x="812.6868" y="-119.5" font-family="Helvetica,sans-Serif" font-size="10.00" fill="#000000">compiler_hints.h</text>
</a>
</g>
</g>
<!-- Node10&#45;&gt;Node13 -->
<g id="edge18" class="edge">
<title>Node10&#45;&gt;Node13</title>
<path fill="none" stroke="#191970" d="M866.3647,-168.2455C856.7645,-159.9746 842.7977,-147.9416 831.5174,-138.2232"/>
<polygon fill="#191970" stroke="#191970" points="833.7398,-135.5182 823.8792,-131.6427 829.1709,-140.8214 833.7398,-135.5182"/>
</g>
<!-- Node15 -->
<g id="node16" class="node">
<title>Node15</title>
<g id="a_node16"><a xlink:href="container_8h.html" target="_top" xlink:title="Common macros and compiler attributes/pragmas configuration. ">
<polygon fill="#ffffff" stroke="#000000" points="869.1868,-56.5 869.1868,-75.5 938.1868,-75.5 938.1868,-56.5 869.1868,-56.5"/>
<text text-anchor="middle" x="903.6868" y="-63.5" font-family="Helvetica,sans-Serif" font-size="10.00" fill="#000000">container.h</text>
</a>
</g>
</g>
<!-- Node10&#45;&gt;Node15 -->
<g id="edge22" class="edge">
<title>Node10&#45;&gt;Node15</title>
<path fill="none" stroke="#191970" d="M915.7845,-168.4497C934.5814,-161.6063 955.5617,-150.2734 966.6868,-132 978.94,-111.8738 955.6833,-92.8532 934.0461,-80.4485"/>
<polygon fill="#191970" stroke="#191970" points="935.4426,-77.2249 924.9805,-75.5533 932.1167,-83.3844 935.4426,-77.2249"/>
</g>
<!-- Node12&#45;&gt;Node2 -->
<g id="edge17" class="edge">
<title>Node12&#45;&gt;Node2</title>
<path fill="none" stroke="#191970" d="M898.6503,-112.418C864.4808,-95.2495 795.2187,-60.5993 783.6868,-56 746.1884,-41.0443 701.8066,-27.8183 671.4908,-19.4318"/>
<polygon fill="#191970" stroke="#191970" points="672.3483,-16.0378 661.7793,-16.7777 670.5029,-22.7902 672.3483,-16.0378"/>
</g>
<!-- Node13&#45;&gt;Node2 -->
<g id="edge21" class="edge">
<title>Node13&#45;&gt;Node2</title>
<path fill="none" stroke="#191970" d="M786.307,-112.4121C765.2793,-104.208 735.5136,-91.3137 711.6868,-76 689.3599,-61.6503 666.7755,-41.0975 652.0973,-26.7523"/>
<polygon fill="#191970" stroke="#191970" points="654.3657,-24.0719 644.8079,-19.5002 649.4286,-29.0344 654.3657,-24.0719"/>
</g>
<!-- Node14 -->
<g id="node15" class="node">
<title>Node14</title>
<g id="a_node15"><a xlink:href="assert_8h.html" target="_top" xlink:title="POSIX.1&#45;2008 compliant version of the assert macro. ">
<polygon fill="#ffffff" stroke="#000000" points="720.6868,-56.5 720.6868,-75.5 774.6868,-75.5 774.6868,-56.5 720.6868,-56.5"/>
<text text-anchor="middle" x="747.6868" y="-63.5" font-family="Helvetica,sans-Serif" font-size="10.00" fill="#000000">assert.h</text>
</a>
</g>
</g>
<!-- Node13&#45;&gt;Node14 -->
<g id="edge19" class="edge">
<title>Node13&#45;&gt;Node14</title>
<path fill="none" stroke="#191970" d="M801.3647,-112.2455C791.7645,-103.9746 777.7977,-91.9416 766.5174,-82.2232"/>
<polygon fill="#191970" stroke="#191970" points="768.7398,-79.5182 758.8792,-75.6427 764.1709,-84.8214 768.7398,-79.5182"/>
</g>
<!-- Node14&#45;&gt;Node2 -->
<g id="edge20" class="edge">
<title>Node14&#45;&gt;Node2</title>
<path fill="none" stroke="#191970" d="M728.4334,-56.3733C710.6157,-47.4644 683.9122,-34.1127 663.7274,-24.0203"/>
<polygon fill="#191970" stroke="#191970" points="665.1986,-20.8428 654.6891,-19.5011 662.0681,-27.1038 665.1986,-20.8428"/>
</g>
<!-- Node15&#45;&gt;Node2 -->
<g id="edge24" class="edge">
<title>Node15&#45;&gt;Node2</title>
<path fill="none" stroke="#191970" d="M868.9253,-58.7364C818.0449,-48.1047 723.7364,-28.3984 671.9932,-17.5864"/>
<polygon fill="#191970" stroke="#191970" points="672.4375,-14.1037 661.933,-15.4843 671.0057,-20.9557 672.4375,-14.1037"/>
</g>
<!-- Node15&#45;&gt;Node6 -->
<g id="edge23" class="edge">
<title>Node15&#45;&gt;Node6</title>
<path fill="none" stroke="#191970" d="M918.8411,-56.2455C932.1896,-47.6534 951.8455,-35.0014 967.2251,-25.1018"/>
<polygon fill="#191970" stroke="#191970" points="969.192,-27.9982 975.7063,-19.6427 965.4032,-22.1121 969.192,-27.9982"/>
</g>
<!-- Node16&#45;&gt;Node3 -->
<g id="edge51" class="edge">
<title>Node16&#45;&gt;Node3</title>
<path fill="none" stroke="#191970" d="M501.9351,-280.4939C524.2162,-273.2702 552.3005,-261.5394 572.6868,-244 587.498,-231.2572 598.6741,-211.8058 605.5871,-197.3165"/>
<polygon fill="#191970" stroke="#191970" points="608.9526,-198.3659 609.8584,-187.8099 602.5675,-195.4971 608.9526,-198.3659"/>
</g>
<!-- Node16&#45;&gt;Node4 -->
<g id="edge27" class="edge">
<title>Node16&#45;&gt;Node4</title>
<path fill="none" stroke="#191970" d="M530.3982,-284.0033C593.7841,-277.2946 692.801,-264.5805 776.6868,-244 833.3468,-230.0991 896.9751,-206.2321 934.3444,-191.3276"/>
<polygon fill="#191970" stroke="#191970" points="935.7385,-194.5394 943.7097,-187.5601 933.126,-188.0452 935.7385,-194.5394"/>
</g>
<!-- Node16&#45;&gt;Node9 -->
<g id="edge26" class="edge">
<title>Node16&#45;&gt;Node9</title>
<path fill="none" stroke="#191970" d="M474.2267,-280.4274C482.1943,-271.3231 494.2382,-257.1092 503.6868,-244 520.8482,-220.1899 526.5473,-214.722 538.6868,-188 545.496,-173.0115 550.7604,-155.0838 554.175,-141.6982"/>
<polygon fill="#191970" stroke="#191970" points="557.6474,-142.23 556.6016,-131.6869 550.8444,-140.581 557.6474,-142.23"/>
</g>
<!-- Node17 -->
<g id="node18" class="node">
<title>Node17</title>
<g id="a_node18"><a xlink:href="uio_8h.html" target="_top" xlink:title="libc header for scatter/gather I/O ">
<polygon fill="#ffffff" stroke="#000000" points="436.6868,-224.5 436.6868,-243.5 494.6868,-243.5 494.6868,-224.5 436.6868,-224.5"/>
<text text-anchor="middle" x="465.6868" y="-231.5" font-family="Helvetica,sans-Serif" font-size="10.00" fill="#000000">sys/uio.h</text>
</a>
</g>
</g>
<!-- Node16&#45;&gt;Node17 -->
<g id="edge28" class="edge">
<title>Node16&#45;&gt;Node17</title>
<path fill="none" stroke="#191970" d="M465.6868,-280.2455C465.6868,-272.9382 465.6868,-262.6944 465.6868,-253.7046"/>
<polygon fill="#191970" stroke="#191970" points="469.1869,-253.6426 465.6868,-243.6427 462.1869,-253.6427 469.1869,-253.6426"/>
</g>
<!-- Node20 -->
<g id="node21" class="node">
<title>Node20</title>
<g id="a_node21"><a xlink:href="bitarithm_8h.html" target="_top" xlink:title="Helper functions for bit arithmetic. ">
<polygon fill="#ffffff" stroke="#000000" points="11.6868,-224.5 11.6868,-243.5 79.6868,-243.5 79.6868,-224.5 11.6868,-224.5"/>
<text text-anchor="middle" x="45.6868" y="-231.5" font-family="Helvetica,sans-Serif" font-size="10.00" fill="#000000">bitarithm.h</text>
</a>
</g>
</g>
<!-- Node16&#45;&gt;Node20 -->
<g id="edge31" class="edge">
<title>Node16&#45;&gt;Node20</title>
<path fill="none" stroke="#191970" d="M400.9823,-281.3727C314.6137,-269.8569 163.9313,-249.7659 89.6488,-239.8616"/>
<polygon fill="#191970" stroke="#191970" points="90.0638,-236.386 79.689,-238.5336 89.1386,-243.3246 90.0638,-236.386"/>
</g>
<!-- Node22 -->
<g id="node23" class="node">
<title>Node22</title>
<g id="a_node23"><a xlink:href="byteorder_8h.html" target="_top" xlink:title="Functions to work with different byte orders. ">
<polygon fill="#ffffff" stroke="#000000" points="198.1868,-112.5 198.1868,-131.5 271.1868,-131.5 271.1868,-112.5 198.1868,-112.5"/>
<text text-anchor="middle" x="234.6868" y="-119.5" font-family="Helvetica,sans-Serif" font-size="10.00" fill="#000000">byteorder.h</text>
</a>
</g>
</g>
<!-- Node16&#45;&gt;Node22 -->
<g id="edge34" class="edge">
<title>Node16&#45;&gt;Node22</title>
<path fill="none" stroke="#191970" d="M405.6656,-280.4504C358.6569,-272.043 297.9444,-258.8495 277.6868,-244 245.2116,-220.1946 237.1335,-169.8901 235.2081,-141.8826"/>
<polygon fill="#191970" stroke="#191970" points="238.6949,-141.5224 234.715,-131.7035 231.7031,-141.8612 238.6949,-141.5224"/>
</g>
<!-- Node26 -->
<g id="node27" class="node">
<title>Node26</title>
<g id="a_node27"><a xlink:href="eui64_8h.html" target="_top" xlink:title="EUI&#45;64 data type definition. ">
<polygon fill="#ffffff" stroke="#000000" points="97.1868,-168.5 97.1868,-187.5 168.1868,-187.5 168.1868,-168.5 97.1868,-168.5"/>
<text text-anchor="middle" x="132.6868" y="-175.5" font-family="Helvetica,sans-Serif" font-size="10.00" fill="#000000">net/eui64.h</text>
</a>
</g>
</g>
<!-- Node16&#45;&gt;Node26 -->
<g id="edge41" class="edge">
<title>Node16&#45;&gt;Node26</title>
<path fill="none" stroke="#191970" d="M401.0552,-285.0738C329.1939,-278.6343 218.511,-265.5618 182.6868,-244 164.2989,-232.9327 150.3527,-212.3267 141.9215,-197.0719"/>
<polygon fill="#191970" stroke="#191970" points="144.9078,-195.2285 137.1861,-187.9741 138.6985,-198.4605 144.9078,-195.2285"/>
</g>
<!-- Node27 -->
<g id="node28" class="node">
<title>Node27</title>
<g id="a_node28"><a xlink:href="sys_2include_2net_2ieee802154_8h.html" target="_top" xlink:title="IEEE 802.15.4 header definitions. ">
<polygon fill="#ffffff" stroke="#000000" points="287.1868,-224.5 287.1868,-243.5 388.1868,-243.5 388.1868,-224.5 287.1868,-224.5"/>
<text text-anchor="middle" x="337.6868" y="-231.5" font-family="Helvetica,sans-Serif" font-size="10.00" fill="#000000">net/ieee802154.h</text>
</a>
</g>
</g>
<!-- Node16&#45;&gt;Node27 -->
<g id="edge44" class="edge">
<title>Node16&#45;&gt;Node27</title>
<path fill="none" stroke="#191970" d="M443.6829,-280.3733C423.0434,-271.3435 391.9711,-257.7494 368.798,-247.6111"/>
<polygon fill="#191970" stroke="#191970" points="369.9682,-244.3028 359.4037,-243.5011 367.1624,-250.7159 369.9682,-244.3028"/>
</g>
<!-- Node18 -->
<g id="node19" class="node">
<title>Node18</title>
<polygon fill="#ffffff" stroke="#bfbfbf" points="392.6868,-168.5 392.6868,-187.5 442.6868,-187.5 442.6868,-168.5 392.6868,-168.5"/>
<text text-anchor="middle" x="417.6868" y="-175.5" font-family="Helvetica,sans-Serif" font-size="10.00" fill="#000000">stdlib.h</text>
</g>
<!-- Node17&#45;&gt;Node18 -->
<g id="edge29" class="edge">
<title>Node17&#45;&gt;Node18</title>
<path fill="none" stroke="#191970" d="M457.3259,-224.2455C450.5118,-216.2958 440.7188,-204.8706 432.5716,-195.3656"/>
<polygon fill="#191970" stroke="#191970" points="435.1174,-192.9575 425.952,-187.6427 429.8025,-197.513 435.1174,-192.9575"/>
</g>
<!-- Node19 -->
<g id="node20" class="node">
<title>Node19</title>
<polygon fill="#ffffff" stroke="#bfbfbf" points="461.1868,-168.5 461.1868,-187.5 530.1868,-187.5 530.1868,-168.5 461.1868,-168.5"/>
<text text-anchor="middle" x="495.6868" y="-175.5" font-family="Helvetica,sans-Serif" font-size="10.00" fill="#000000">sys/types.h</text>
</g>
<!-- Node17&#45;&gt;Node19 -->
<g id="edge30" class="edge">
<title>Node17&#45;&gt;Node19</title>
<path fill="none" stroke="#191970" d="M470.9124,-224.2455C474.9992,-216.617 480.8003,-205.7881 485.7618,-196.5267"/>
<polygon fill="#191970" stroke="#191970" points="488.884,-198.1103 490.5211,-187.6427 482.7137,-194.8047 488.884,-198.1103"/>
</g>
<!-- Node20&#45;&gt;Node2 -->
<g id="edge32" class="edge">
<title>Node20&#45;&gt;Node2</title>
<path fill="none" stroke="#191970" d="M31.8081,-224.3135C15.9456,-211.9509 -6.6879,-189.5733 2.6868,-168 31.7625,-101.0905 56.0788,-85.7597 122.6868,-56 165.9452,-36.6727 489.196,-17.8183 599.1777,-11.9011"/>
<polygon fill="#191970" stroke="#191970" points="599.6379,-15.3816 609.4371,-11.3534 599.2647,-8.3915 599.6379,-15.3816"/>
</g>
<!-- Node21 -->
<g id="node22" class="node">
<title>Node21</title>
<polygon fill="#ffffff" stroke="#bfbfbf" points="12.1868,-168.5 12.1868,-187.5 79.1868,-187.5 79.1868,-168.5 12.1868,-168.5"/>
<text text-anchor="middle" x="45.6868" y="-175.5" font-family="Helvetica,sans-Serif" font-size="10.00" fill="#000000">cpu_conf.h</text>
</g>
<!-- Node20&#45;&gt;Node21 -->
<g id="edge33" class="edge">
<title>Node20&#45;&gt;Node21</title>
<path fill="none" stroke="#191970" d="M45.6868,-224.2455C45.6868,-216.9382 45.6868,-206.6944 45.6868,-197.7046"/>
<polygon fill="#191970" stroke="#191970" points="49.1869,-197.6426 45.6868,-187.6427 42.1869,-197.6427 49.1869,-197.6426"/>
</g>
<!-- Node22&#45;&gt;Node2 -->
<g id="edge36" class="edge">
<title>Node22&#45;&gt;Node2</title>
<path fill="none" stroke="#191970" d="M236.4399,-112.0274C239.6212,-97.162 247.847,-69.4978 266.6868,-56 293.446,-36.8284 511.7907,-19.0067 599.4574,-12.5532"/>
<polygon fill="#191970" stroke="#191970" points="599.7597,-16.0405 609.479,-11.8232 599.2511,-9.059 599.7597,-16.0405"/>
</g>
<!-- Node23 -->
<g id="node24" class="node">
<title>Node23</title>
<polygon fill="#ffffff" stroke="#bfbfbf" points="351.1868,-56.5 351.1868,-75.5 404.1868,-75.5 404.1868,-56.5 351.1868,-56.5"/>
<text text-anchor="middle" x="377.6868" y="-63.5" font-family="Helvetica,sans-Serif" font-size="10.00" fill="#000000">string.h</text>
</g>
<!-- Node22&#45;&gt;Node23 -->
<g id="edge35" class="edge">
<title>Node22&#45;&gt;Node23</title>
<path fill="none" stroke="#191970" d="M259.2694,-112.3733C282.6364,-103.2226 317.9731,-89.3844 343.9653,-79.2057"/>
<polygon fill="#191970" stroke="#191970" points="345.3899,-82.4066 353.4251,-75.5011 342.8373,-75.8886 345.3899,-82.4066"/>
</g>
<!-- Node24 -->
<g id="node25" class="node">
<title>Node24</title>
<g id="a_node25"><a xlink:href="endian_8h.html" target="_top" xlink:title="libc header for endian conversion ">
<polygon fill="#ffffff" stroke="#000000" points="276.1868,-56.5 276.1868,-75.5 333.1868,-75.5 333.1868,-56.5 276.1868,-56.5"/>
<text text-anchor="middle" x="304.6868" y="-63.5" font-family="Helvetica,sans-Serif" font-size="10.00" fill="#000000">endian.h</text>
</a>
</g>
</g>
<!-- Node22&#45;&gt;Node24 -->
<g id="edge37" class="edge">
<title>Node22&#45;&gt;Node24</title>
<path fill="none" stroke="#191970" d="M246.8799,-112.2455C257.3189,-103.8943 272.5523,-91.7076 284.7608,-81.9408"/>
<polygon fill="#191970" stroke="#191970" points="287.0112,-84.6227 292.6335,-75.6427 282.6383,-79.1566 287.0112,-84.6227"/>
</g>
<!-- Node25 -->
<g id="node26" class="node">
<title>Node25</title>
<g id="a_node26"><a xlink:href="unaligned_8h.html" target="_top" xlink:title="Unaligned but safe memory access functions. ">
<polygon fill="#ffffff" stroke="#000000" points="148.1868,-56.5 148.1868,-75.5 219.1868,-75.5 219.1868,-56.5 148.1868,-56.5"/>
<text text-anchor="middle" x="183.6868" y="-63.5" font-family="Helvetica,sans-Serif" font-size="10.00" fill="#000000">unaligned.h</text>
</a>
</g>
</g>
<!-- Node22&#45;&gt;Node25 -->
<g id="edge39" class="edge">
<title>Node22&#45;&gt;Node25</title>
<path fill="none" stroke="#191970" d="M225.8033,-112.2455C218.4903,-104.2155 207.9477,-92.6394 199.2402,-83.0781"/>
<polygon fill="#191970" stroke="#191970" points="201.7896,-80.6795 192.4686,-75.6427 196.6142,-85.3928 201.7896,-80.6795"/>
</g>
<!-- Node24&#45;&gt;Node2 -->
<g id="edge38" class="edge">
<title>Node24&#45;&gt;Node2</title>
<path fill="none" stroke="#191970" d="M333.2953,-57.9381C336.1208,-57.2413 338.9533,-56.5814 341.6868,-56 433.7837,-36.4103 543.7596,-21.3988 599.4786,-14.3757"/>
<polygon fill="#191970" stroke="#191970" points="600.0667,-17.8295 609.5563,-13.1182 599.1999,-10.8834 600.0667,-17.8295"/>
</g>
<!-- Node25&#45;&gt;Node2 -->
<g id="edge40" class="edge">
<title>Node25&#45;&gt;Node2</title>
<path fill="none" stroke="#191970" d="M219.4013,-58.4805C224.1928,-57.5822 229.0518,-56.7274 233.6868,-56 367.6855,-34.9711 528.242,-19.4952 599.0631,-13.1588"/>
<polygon fill="#191970" stroke="#191970" points="599.5931,-16.6257 609.2447,-12.2557 598.9745,-9.653 599.5931,-16.6257"/>
</g>
<!-- Node26&#45;&gt;Node2 -->
<g id="edge42" class="edge">
<title>Node26&#45;&gt;Node2</title>
<path fill="none" stroke="#191970" d="M129.5231,-168.4754C122.5849,-145.5865 108.9108,-87.0895 138.6868,-56 170.4449,-22.8411 490.2709,-13.0575 599.4144,-10.672"/>
<polygon fill="#191970" stroke="#191970" points="599.6743,-14.1674 609.5984,-10.4578 599.527,-7.169 599.6743,-14.1674"/>
</g>
<!-- Node26&#45;&gt;Node22 -->
<g id="edge43" class="edge">
<title>Node26&#45;&gt;Node22</title>
<path fill="none" stroke="#191970" d="M150.4539,-168.2455C166.3963,-159.4928 190.0127,-146.527 208.1857,-136.5496"/>
<polygon fill="#191970" stroke="#191970" points="210.042,-139.5233 217.1234,-131.6427 206.6732,-133.3873 210.042,-139.5233"/>
</g>
<!-- Node27&#45;&gt;Node2 -->
<g id="edge45" class="edge">
<title>Node27&#45;&gt;Node2</title>
<path fill="none" stroke="#191970" d="M322.5142,-224.3204C304.5348,-211.5966 278.5702,-188.4585 291.6868,-168 327.3191,-112.4231 518.8935,-46.7666 599.6992,-21.0812"/>
<polygon fill="#191970" stroke="#191970" points="600.9549,-24.3552 609.4386,-18.0088 598.8489,-17.6795 600.9549,-24.3552"/>
</g>
<!-- Node27&#45;&gt;Node11 -->
<g id="edge48" class="edge">
<title>Node27&#45;&gt;Node11</title>
<path fill="none" stroke="#191970" d="M388.5875,-228.3421C497.413,-216.2311 742.9513,-188.8236 743.6868,-188 756.1623,-174.0313 744.2991,-153.6822 732.3984,-139.2789"/>
<polygon fill="#191970" stroke="#191970" points="734.8241,-136.7389 725.5709,-131.5786 729.5865,-141.383 734.8241,-136.7389"/>
</g>
<!-- Node27&#45;&gt;Node18 -->
<g id="edge46" class="edge">
<title>Node27&#45;&gt;Node18</title>
<path fill="none" stroke="#191970" d="M351.6218,-224.2455C363.7815,-215.7337 381.6333,-203.2375 395.7153,-193.3801"/>
<polygon fill="#191970" stroke="#191970" points="397.7264,-196.2447 403.9116,-187.6427 393.7121,-190.51 397.7264,-196.2447"/>
</g>
<!-- Node27&#45;&gt;Node22 -->
<g id="edge47" class="edge">
<title>Node27&#45;&gt;Node22</title>
<path fill="none" stroke="#191970" d="M311.7584,-224.4017C294.5909,-216.8599 272.7317,-204.8058 258.6868,-188 247.5821,-174.7123 241.4119,-155.8531 238.1189,-141.6949"/>
<polygon fill="#191970" stroke="#191970" points="241.4775,-140.6467 236.0556,-131.5444 234.6178,-142.0412 241.4775,-140.6467"/>
</g>
<!-- Node27&#45;&gt;Node26 -->
<g id="edge49" class="edge">
<title>Node27&#45;&gt;Node26</title>
<path fill="none" stroke="#191970" d="M302.4461,-224.3733C267.7674,-214.9001 214.6986,-200.4032 177.1407,-190.1435"/>
<polygon fill="#191970" stroke="#191970" points="178.0366,-186.7601 167.4677,-187.5011 176.192,-193.5126 178.0366,-186.7601"/>
</g>
<!-- Node28 -->
<g id="node29" class="node">
<title>Node28</title>
<g id="a_node29"><a xlink:href="time__units_8h.html" target="_top" xlink:title="Utility header providing time unit defines. ">
<polygon fill="#ffffff" stroke="#000000" points="300.6868,-168.5 300.6868,-187.5 374.6868,-187.5 374.6868,-168.5 300.6868,-168.5"/>
<text text-anchor="middle" x="337.6868" y="-175.5" font-family="Helvetica,sans-Serif" font-size="10.00" fill="#000000">time_units.h</text>
</a>
</g>
</g>
<!-- Node27&#45;&gt;Node28 -->
<g id="edge50" class="edge">
<title>Node27&#45;&gt;Node28</title>
<path fill="none" stroke="#191970" d="M337.6868,-224.2455C337.6868,-216.9382 337.6868,-206.6944 337.6868,-197.7046"/>
<polygon fill="#191970" stroke="#191970" points="341.1869,-197.6426 337.6868,-187.6427 334.1869,-197.6427 341.1869,-197.6426"/>
</g>
</g>
</svg>
