<?xml version="1.0" encoding="UTF-8" standalone="no"?>
<!DOCTYPE svg PUBLIC "-//W3C//DTD SVG 1.1//EN"
 "http://www.w3.org/Graphics/SVG/1.1/DTD/svg11.dtd">
<!-- Generated by graphviz version 2.40.1 (0)
 -->
<!-- Title: boards/openlabs&#45;kw41z&#45;mini/include/board.h Pages: 1 -->
<svg width="152pt" height="151pt"
 viewBox="0.00 0.00 152.00 151.00" xmlns="http://www.w3.org/2000/svg" xmlns:xlink="http://www.w3.org/1999/xlink">
<g id="graph0" class="graph" transform="scale(1 1) rotate(0) translate(4 147)">
<title>boards/openlabs&#45;kw41z&#45;mini/include/board.h</title>
<polygon fill="#ffffff" stroke="transparent" points="-4,4 -4,-147 148,-147 148,4 -4,4"/>
<!-- Node0 -->
<g id="node1" class="node">
<title>Node0</title>
<polygon fill="#bfbfbf" stroke="#000000" points="0,-112.5 0,-142.5 127,-142.5 127,-112.5 0,-112.5"/>
<text text-anchor="start" x="8" y="-130.5" font-family="Helvetica,sans-Serif" font-size="10.00" fill="#000000">boards/openlabs&#45;kw41z</text>
<text text-anchor="middle" x="63.5" y="-119.5" font-family="Helvetica,sans-Serif" font-size="10.00" fill="#000000">&#45;mini/include/board.h</text>
</g>
<!-- Node1 -->
<g id="node2" class="node">
<title>Node1</title>
<polygon fill="#ffffff" stroke="#bfbfbf" points="2.5,-56.5 2.5,-75.5 44.5,-75.5 44.5,-56.5 2.5,-56.5"/>
<text text-anchor="middle" x="23.5" y="-63.5" font-family="Helvetica,sans-Serif" font-size="10.00" fill="#000000">cpu.h</text>
</g>
<!-- Node0&#45;&gt;Node1 -->
<g id="edge1" class="edge">
<title>Node0&#45;&gt;Node1</title>
<path fill="none" stroke="#191970" d="M53.6124,-112.2977C48.1178,-103.8498 41.2414,-93.2773 35.4473,-84.369"/>
<polygon fill="#191970" stroke="#191970" points="38.2908,-82.3215 29.9045,-75.8469 32.4228,-86.1381 38.2908,-82.3215"/>
</g>
<!-- Node2 -->
<g id="node3" class="node">
<title>Node2</title>
<g id="a_node3"><a xlink:href="boards_2openlabs-kw41z-mini_2include_2periph__conf_8h.html" target="_top" xlink:title="periph_conf.h">
<polygon fill="#ffffff" stroke="#000000" points="63,-56.5 63,-75.5 144,-75.5 144,-56.5 63,-56.5"/>
<text text-anchor="middle" x="103.5" y="-63.5" font-family="Helvetica,sans-Serif" font-size="10.00" fill="#000000">periph_conf.h</text>
</a>
</g>
</g>
<!-- Node0&#45;&gt;Node2 -->
<g id="edge2" class="edge">
<title>Node0&#45;&gt;Node2</title>
<path fill="none" stroke="#191970" d="M73.3876,-112.2977C78.8822,-103.8498 85.7586,-93.2773 91.5527,-84.369"/>
<polygon fill="#191970" stroke="#191970" points="94.5772,-86.1381 97.0955,-75.8469 88.7092,-82.3215 94.5772,-86.1381"/>
</g>
<!-- Node3 -->
<g id="node4" class="node">
<title>Node3</title>
<polygon fill="#ffffff" stroke="#bfbfbf" points="65,-.5 65,-19.5 142,-19.5 142,-.5 65,-.5"/>
<text text-anchor="middle" x="103.5" y="-7.5" font-family="Helvetica,sans-Serif" font-size="10.00" fill="#000000">periph_cpu.h</text>
</g>
<!-- Node2&#45;&gt;Node3 -->
<g id="edge3" class="edge">
<title>Node2&#45;&gt;Node3</title>
<path fill="none" stroke="#191970" d="M103.5,-56.2455C103.5,-48.9382 103.5,-38.6944 103.5,-29.7046"/>
<polygon fill="#191970" stroke="#191970" points="107.0001,-29.6426 103.5,-19.6427 100.0001,-29.6427 107.0001,-29.6426"/>
</g>
</g>
</svg>
