<?xml version="1.0" encoding="UTF-8" standalone="no"?>
<!DOCTYPE svg PUBLIC "-//W3C//DTD SVG 1.1//EN"
 "http://www.w3.org/Graphics/SVG/1.1/DTD/svg11.dtd">
<!-- Generated by graphviz version 2.40.1 (0)
 -->
<!-- Title: pkg/openthread/include/ot.h Pages: 1 -->
<svg width="1092pt" height="308pt"
 viewBox="0.00 0.00 1092.39 308.00" xmlns="http://www.w3.org/2000/svg" xmlns:xlink="http://www.w3.org/1999/xlink">
<g id="graph0" class="graph" transform="scale(1 1) rotate(0) translate(4 304)">
<title>pkg/openthread/include/ot.h</title>
<polygon fill="#ffffff" stroke="transparent" points="-4,4 -4,-304 1088.3906,-304 1088.3906,4 -4,4"/>
<!-- Node0 -->
<g id="node1" class="node">
<title>Node0</title>
<polygon fill="#bfbfbf" stroke="#000000" points="670.8906,-280.5 670.8906,-299.5 822.8906,-299.5 822.8906,-280.5 670.8906,-280.5"/>
<text text-anchor="middle" x="746.8906" y="-287.5" font-family="Helvetica,sans-Serif" font-size="10.00" fill="#000000">pkg/openthread/include/ot.h</text>
</g>
<!-- Node1 -->
<g id="node2" class="node">
<title>Node1</title>
<g id="a_node2"><a xlink:href="netopt_8h.html" target="_top" xlink:title="Definition of global configuration options. ">
<polygon fill="#ffffff" stroke="#000000" points="122.3906,-168.5 122.3906,-187.5 199.3906,-187.5 199.3906,-168.5 122.3906,-168.5"/>
<text text-anchor="middle" x="160.8906" y="-175.5" font-family="Helvetica,sans-Serif" font-size="10.00" fill="#000000">net/netopt.h</text>
</a>
</g>
</g>
<!-- Node0&#45;&gt;Node1 -->
<g id="edge1" class="edge">
<title>Node0&#45;&gt;Node1</title>
<path fill="none" stroke="#191970" d="M670.5127,-287.72C585.7012,-283.7853 445.272,-273.0811 327.8906,-244 277.5687,-231.5328 222.1546,-207.4125 189.4988,-192.0396"/>
<polygon fill="#191970" stroke="#191970" points="190.6587,-188.7152 180.1257,-187.5721 187.6469,-195.0342 190.6587,-188.7152"/>
</g>
<!-- Node4 -->
<g id="node5" class="node">
<title>Node4</title>
<g id="a_node5"><a xlink:href="sys_2include_2net_2ieee802154_8h.html" target="_top" xlink:title="IEEE 802.15.4 header definitions. ">
<polygon fill="#ffffff" stroke="#000000" points="696.3906,-224.5 696.3906,-243.5 797.3906,-243.5 797.3906,-224.5 696.3906,-224.5"/>
<text text-anchor="middle" x="746.8906" y="-231.5" font-family="Helvetica,sans-Serif" font-size="10.00" fill="#000000">net/ieee802154.h</text>
</a>
</g>
</g>
<!-- Node0&#45;&gt;Node4 -->
<g id="edge4" class="edge">
<title>Node0&#45;&gt;Node4</title>
<path fill="none" stroke="#191970" d="M746.8906,-280.2455C746.8906,-272.9382 746.8906,-262.6944 746.8906,-253.7046"/>
<polygon fill="#191970" stroke="#191970" points="750.3907,-253.6426 746.8906,-243.6427 743.3907,-253.6427 750.3907,-253.6426"/>
</g>
<!-- Node13 -->
<g id="node14" class="node">
<title>Node13</title>
<g id="a_node14"><a xlink:href="ethernet_8h.html" target="_top" xlink:title="Definitions for Ethernet. ">
<polygon fill="#ffffff" stroke="#000000" points="591.3906,-224.5 591.3906,-243.5 678.3906,-243.5 678.3906,-224.5 591.3906,-224.5"/>
<text text-anchor="middle" x="634.8906" y="-231.5" font-family="Helvetica,sans-Serif" font-size="10.00" fill="#000000">net/ethernet.h</text>
</a>
</g>
</g>
<!-- Node0&#45;&gt;Node13 -->
<g id="edge19" class="edge">
<title>Node0&#45;&gt;Node13</title>
<path fill="none" stroke="#191970" d="M727.6371,-280.3733C709.8195,-271.4644 683.1159,-258.1127 662.9312,-248.0203"/>
<polygon fill="#191970" stroke="#191970" points="664.4024,-244.8428 653.8929,-243.5011 661.2719,-251.1038 664.4024,-244.8428"/>
</g>
<!-- Node16 -->
<g id="node17" class="node">
<title>Node16</title>
<g id="a_node17"><a xlink:href="drivers_2include_2net_2netdev_8h.html" target="_top" xlink:title="Definitions low&#45;level network driver interface. ">
<polygon fill="#ffffff" stroke="#000000" points="337.3906,-224.5 337.3906,-243.5 414.3906,-243.5 414.3906,-224.5 337.3906,-224.5"/>
<text text-anchor="middle" x="375.8906" y="-231.5" font-family="Helvetica,sans-Serif" font-size="10.00" fill="#000000">net/netdev.h</text>
</a>
</g>
</g>
<!-- Node0&#45;&gt;Node16 -->
<g id="edge25" class="edge">
<title>Node0&#45;&gt;Node16</title>
<path fill="none" stroke="#191970" d="M683.535,-280.4369C610.2601,-269.3765 491.2116,-251.4069 424.7364,-241.3729"/>
<polygon fill="#191970" stroke="#191970" points="424.9444,-237.8648 414.534,-239.833 423.8996,-244.7864 424.9444,-237.8648"/>
</g>
<!-- Node27 -->
<g id="node28" class="node">
<title>Node27</title>
<polygon fill="#ffffff" stroke="#bfbfbf" points="815.3906,-224.5 815.3906,-243.5 872.3906,-243.5 872.3906,-224.5 815.3906,-224.5"/>
<text text-anchor="middle" x="843.8906" y="-231.5" font-family="Helvetica,sans-Serif" font-size="10.00" fill="#000000">thread.h</text>
</g>
<!-- Node0&#45;&gt;Node27 -->
<g id="edge47" class="edge">
<title>Node0&#45;&gt;Node27</title>
<path fill="none" stroke="#191970" d="M763.7867,-280.2455C778.8086,-271.5731 800.9949,-258.7645 818.2116,-248.825"/>
<polygon fill="#191970" stroke="#191970" points="820.2777,-251.6737 827.1881,-243.6427 816.7778,-245.6114 820.2777,-251.6737"/>
</g>
<!-- Node28 -->
<g id="node29" class="node">
<title>Node28</title>
<polygon fill="#ffffff" stroke="#bfbfbf" points="890.3906,-224.5 890.3906,-243.5 1013.3906,-243.5 1013.3906,-224.5 890.3906,-224.5"/>
<text text-anchor="middle" x="951.8906" y="-231.5" font-family="Helvetica,sans-Serif" font-size="10.00" fill="#000000">openthread/instance.h</text>
</g>
<!-- Node0&#45;&gt;Node28 -->
<g id="edge48" class="edge">
<title>Node0&#45;&gt;Node28</title>
<path fill="none" stroke="#191970" d="M782.1314,-280.3733C816.81,-270.9001 869.8789,-256.4032 907.4368,-246.1435"/>
<polygon fill="#191970" stroke="#191970" points="908.3855,-249.5126 917.1097,-243.5011 906.5408,-242.7601 908.3855,-249.5126"/>
</g>
<!-- Node29 -->
<g id="node30" class="node">
<title>Node29</title>
<polygon fill="#ffffff" stroke="#bfbfbf" points="1031.3906,-224.5 1031.3906,-243.5 1084.3906,-243.5 1084.3906,-224.5 1031.3906,-224.5"/>
<text text-anchor="middle" x="1057.8906" y="-231.5" font-family="Helvetica,sans-Serif" font-size="10.00" fill="#000000">event.h</text>
</g>
<!-- Node0&#45;&gt;Node29 -->
<g id="edge49" class="edge">
<title>Node0&#45;&gt;Node29</title>
<path fill="none" stroke="#191970" d="M817.6508,-280.4586C871.2555,-272.7131 946.8693,-260.6855 1021.2137,-244.2042"/>
<polygon fill="#191970" stroke="#191970" points="1022.2278,-247.5637 1031.2177,-241.9573 1020.6937,-240.7338 1022.2278,-247.5637"/>
</g>
<!-- Node2 -->
<g id="node3" class="node">
<title>Node2</title>
<polygon fill="#ffffff" stroke="#bfbfbf" points="423.8906,-.5 423.8906,-19.5 475.8906,-19.5 475.8906,-.5 423.8906,-.5"/>
<text text-anchor="middle" x="449.8906" y="-7.5" font-family="Helvetica,sans-Serif" font-size="10.00" fill="#000000">stdint.h</text>
</g>
<!-- Node1&#45;&gt;Node2 -->
<g id="edge2" class="edge">
<title>Node1&#45;&gt;Node2</title>
<path fill="none" stroke="#191970" d="M165.5246,-168.265C177.17,-144.9089 210.0409,-85.4529 255.8906,-56 281.7342,-39.3986 364.9859,-23.707 413.6258,-15.6428"/>
<polygon fill="#191970" stroke="#191970" points="414.4312,-19.0577 423.7373,-13.9935 413.3042,-12.149 414.4312,-19.0577"/>
</g>
<!-- Node3 -->
<g id="node4" class="node">
<title>Node3</title>
<polygon fill="#ffffff" stroke="#bfbfbf" points="5.8906,-112.5 5.8906,-131.5 65.8906,-131.5 65.8906,-112.5 5.8906,-112.5"/>
<text text-anchor="middle" x="35.8906" y="-119.5" font-family="Helvetica,sans-Serif" font-size="10.00" fill="#000000">stdbool.h</text>
</g>
<!-- Node1&#45;&gt;Node3 -->
<g id="edge3" class="edge">
<title>Node1&#45;&gt;Node3</title>
<path fill="none" stroke="#191970" d="M139.4023,-168.3733C119.2466,-159.3435 88.9026,-145.7494 66.2726,-135.6111"/>
<polygon fill="#191970" stroke="#191970" points="67.6555,-132.3955 57.0985,-131.5011 64.7935,-138.7838 67.6555,-132.3955"/>
</g>
<!-- Node4&#45;&gt;Node2 -->
<g id="edge5" class="edge">
<title>Node4&#45;&gt;Node2</title>
<path fill="none" stroke="#191970" d="M776.1522,-224.3564C793.2647,-217.1296 813.6513,-205.4448 824.8906,-188 856.7385,-138.5683 872.9195,-99.9832 833.8906,-56 811.0102,-30.2151 577.7134,-16.1969 486.3262,-11.6605"/>
<polygon fill="#191970" stroke="#191970" points="486.3185,-8.1561 476.1603,-11.1661 485.9785,-15.1478 486.3185,-8.1561"/>
</g>
<!-- Node5 -->
<g id="node6" class="node">
<title>Node5</title>
<polygon fill="#ffffff" stroke="#bfbfbf" points="992.8906,-168.5 992.8906,-187.5 1042.8906,-187.5 1042.8906,-168.5 992.8906,-168.5"/>
<text text-anchor="middle" x="1017.8906" y="-175.5" font-family="Helvetica,sans-Serif" font-size="10.00" fill="#000000">stdlib.h</text>
</g>
<!-- Node4&#45;&gt;Node5 -->
<g id="edge6" class="edge">
<title>Node4&#45;&gt;Node5</title>
<path fill="none" stroke="#191970" d="M797.4403,-224.768C851.9956,-214.7095 936.3463,-198.8603 982.8409,-188.0538"/>
<polygon fill="#191970" stroke="#191970" points="983.7997,-191.4233 992.7112,-185.6932 982.1714,-184.6153 983.7997,-191.4233"/>
</g>
<!-- Node6 -->
<g id="node7" class="node">
<title>Node6</title>
<g id="a_node7"><a xlink:href="byteorder_8h.html" target="_top" xlink:title="Functions to work with different byte orders. ">
<polygon fill="#ffffff" stroke="#000000" points="671.3906,-112.5 671.3906,-131.5 744.3906,-131.5 744.3906,-112.5 671.3906,-112.5"/>
<text text-anchor="middle" x="707.8906" y="-119.5" font-family="Helvetica,sans-Serif" font-size="10.00" fill="#000000">byteorder.h</text>
</a>
</g>
</g>
<!-- Node4&#45;&gt;Node6 -->
<g id="edge7" class="edge">
<title>Node4&#45;&gt;Node6</title>
<path fill="none" stroke="#191970" d="M743.5655,-224.4509C737.1471,-206.0186 722.9423,-165.2254 714.5217,-141.043"/>
<polygon fill="#191970" stroke="#191970" points="717.8012,-139.8177 711.2073,-131.5249 711.1905,-142.1197 717.8012,-139.8177"/>
</g>
<!-- Node10 -->
<g id="node11" class="node">
<title>Node10</title>
<g id="a_node11"><a xlink:href="modules_8h.html" target="_top" xlink:title="Common macros and compiler attributes/pragmas configuration. ">
<polygon fill="#ffffff" stroke="#000000" points="391.3906,-112.5 391.3906,-131.5 456.3906,-131.5 456.3906,-112.5 391.3906,-112.5"/>
<text text-anchor="middle" x="423.8906" y="-119.5" font-family="Helvetica,sans-Serif" font-size="10.00" fill="#000000">modules.h</text>
</a>
</g>
</g>
<!-- Node4&#45;&gt;Node10 -->
<g id="edge14" class="edge">
<title>Node4&#45;&gt;Node10</title>
<path fill="none" stroke="#191970" d="M702.4219,-224.4178C666.6885,-216.217 615.4524,-203.3242 571.8906,-188 528.9715,-172.9019 481.2164,-150.541 451.8626,-136.1185"/>
<polygon fill="#191970" stroke="#191970" points="453.1613,-132.856 442.6468,-131.5536 450.0542,-139.1287 453.1613,-132.856"/>
</g>
<!-- Node11 -->
<g id="node12" class="node">
<title>Node11</title>
<g id="a_node12"><a xlink:href="eui64_8h.html" target="_top" xlink:title="EUI&#45;64 data type definition. ">
<polygon fill="#ffffff" stroke="#000000" points="745.3906,-168.5 745.3906,-187.5 816.3906,-187.5 816.3906,-168.5 745.3906,-168.5"/>
<text text-anchor="middle" x="780.8906" y="-175.5" font-family="Helvetica,sans-Serif" font-size="10.00" fill="#000000">net/eui64.h</text>
</a>
</g>
</g>
<!-- Node4&#45;&gt;Node11 -->
<g id="edge15" class="edge">
<title>Node4&#45;&gt;Node11</title>
<path fill="none" stroke="#191970" d="M752.813,-224.2455C757.4933,-216.5367 764.1579,-205.5598 769.8195,-196.2348"/>
<polygon fill="#191970" stroke="#191970" points="772.8381,-198.007 775.0361,-187.6427 766.8545,-194.3741 772.8381,-198.007"/>
</g>
<!-- Node12 -->
<g id="node13" class="node">
<title>Node12</title>
<g id="a_node13"><a xlink:href="time__units_8h.html" target="_top" xlink:title="Utility header providing time unit defines. ">
<polygon fill="#ffffff" stroke="#000000" points="900.8906,-168.5 900.8906,-187.5 974.8906,-187.5 974.8906,-168.5 900.8906,-168.5"/>
<text text-anchor="middle" x="937.8906" y="-175.5" font-family="Helvetica,sans-Serif" font-size="10.00" fill="#000000">time_units.h</text>
</a>
</g>
</g>
<!-- Node4&#45;&gt;Node12 -->
<g id="edge18" class="edge">
<title>Node4&#45;&gt;Node12</title>
<path fill="none" stroke="#191970" d="M779.7247,-224.3733C811.7601,-214.9807 860.6393,-200.6496 895.5761,-190.4064"/>
<polygon fill="#191970" stroke="#191970" points="896.8737,-193.6733 905.485,-187.5011 894.9042,-186.9561 896.8737,-193.6733"/>
</g>
<!-- Node6&#45;&gt;Node2 -->
<g id="edge9" class="edge">
<title>Node6&#45;&gt;Node2</title>
<path fill="none" stroke="#191970" d="M677.9964,-112.4342C651.7917,-103.7716 612.8458,-90.2213 579.8906,-76 560.0931,-67.4567 509.0667,-41.0518 477.1476,-24.3442"/>
<polygon fill="#191970" stroke="#191970" points="478.3925,-21.045 467.9108,-19.5009 475.1418,-27.2445 478.3925,-21.045"/>
</g>
<!-- Node7 -->
<g id="node8" class="node">
<title>Node7</title>
<polygon fill="#ffffff" stroke="#bfbfbf" points="753.3906,-56.5 753.3906,-75.5 806.3906,-75.5 806.3906,-56.5 753.3906,-56.5"/>
<text text-anchor="middle" x="779.8906" y="-63.5" font-family="Helvetica,sans-Serif" font-size="10.00" fill="#000000">string.h</text>
</g>
<!-- Node6&#45;&gt;Node7 -->
<g id="edge8" class="edge">
<title>Node6&#45;&gt;Node7</title>
<path fill="none" stroke="#191970" d="M720.4321,-112.2455C731.1693,-103.8943 746.838,-91.7076 759.3953,-81.9408"/>
<polygon fill="#191970" stroke="#191970" points="761.7481,-84.5449 767.4929,-75.6427 757.4505,-79.0194 761.7481,-84.5449"/>
</g>
<!-- Node8 -->
<g id="node9" class="node">
<title>Node8</title>
<g id="a_node9"><a xlink:href="endian_8h.html" target="_top" xlink:title="libc header for endian conversion ">
<polygon fill="#ffffff" stroke="#000000" points="589.3906,-56.5 589.3906,-75.5 646.3906,-75.5 646.3906,-56.5 589.3906,-56.5"/>
<text text-anchor="middle" x="617.8906" y="-63.5" font-family="Helvetica,sans-Serif" font-size="10.00" fill="#000000">endian.h</text>
</a>
</g>
</g>
<!-- Node6&#45;&gt;Node8 -->
<g id="edge10" class="edge">
<title>Node6&#45;&gt;Node8</title>
<path fill="none" stroke="#191970" d="M692.2138,-112.2455C678.405,-103.6534 658.0714,-91.0014 642.1614,-81.1018"/>
<polygon fill="#191970" stroke="#191970" points="643.7274,-77.954 633.3878,-75.6427 640.0293,-83.8974 643.7274,-77.954"/>
</g>
<!-- Node9 -->
<g id="node10" class="node">
<title>Node9</title>
<g id="a_node10"><a xlink:href="unaligned_8h.html" target="_top" xlink:title="Unaligned but safe memory access functions. ">
<polygon fill="#ffffff" stroke="#000000" points="664.3906,-56.5 664.3906,-75.5 735.3906,-75.5 735.3906,-56.5 664.3906,-56.5"/>
<text text-anchor="middle" x="699.8906" y="-63.5" font-family="Helvetica,sans-Serif" font-size="10.00" fill="#000000">unaligned.h</text>
</a>
</g>
</g>
<!-- Node6&#45;&gt;Node9 -->
<g id="edge12" class="edge">
<title>Node6&#45;&gt;Node9</title>
<path fill="none" stroke="#191970" d="M706.4971,-112.2455C705.4532,-104.9382 703.9898,-94.6944 702.7056,-85.7046"/>
<polygon fill="#191970" stroke="#191970" points="706.1473,-85.0472 701.2681,-75.6427 699.2176,-86.0372 706.1473,-85.0472"/>
</g>
<!-- Node8&#45;&gt;Node2 -->
<g id="edge11" class="edge">
<title>Node8&#45;&gt;Node2</title>
<path fill="none" stroke="#191970" d="M589.0104,-56.3733C560.3126,-46.8073 516.2475,-32.119 485.421,-21.8435"/>
<polygon fill="#191970" stroke="#191970" points="486.5075,-18.5164 475.9139,-18.6744 484.2939,-25.1572 486.5075,-18.5164"/>
</g>
<!-- Node9&#45;&gt;Node2 -->
<g id="edge13" class="edge">
<title>Node9&#45;&gt;Node2</title>
<path fill="none" stroke="#191970" d="M664.3372,-58.036C616.9896,-47.4302 533.6865,-28.7703 486.0396,-18.0974"/>
<polygon fill="#191970" stroke="#191970" points="486.6787,-14.6539 476.1555,-15.8833 485.1486,-21.4846 486.6787,-14.6539"/>
</g>
<!-- Node11&#45;&gt;Node2 -->
<g id="edge16" class="edge">
<title>Node11&#45;&gt;Node2</title>
<path fill="none" stroke="#191970" d="M788.7122,-168.4517C806.1151,-146.0131 844.2678,-89.3119 814.8906,-56 804.0586,-43.7172 576.2364,-21.584 486.1193,-13.2724"/>
<polygon fill="#191970" stroke="#191970" points="486.3627,-9.7801 476.0847,-12.3516 485.723,-16.7509 486.3627,-9.7801"/>
</g>
<!-- Node11&#45;&gt;Node6 -->
<g id="edge17" class="edge">
<title>Node11&#45;&gt;Node6</title>
<path fill="none" stroke="#191970" d="M768.175,-168.2455C757.2886,-159.8943 741.4023,-147.7076 728.6706,-137.9408"/>
<polygon fill="#191970" stroke="#191970" points="730.5252,-134.9523 720.4605,-131.6427 726.2645,-140.5063 730.5252,-134.9523"/>
</g>
<!-- Node13&#45;&gt;Node2 -->
<g id="edge20" class="edge">
<title>Node13&#45;&gt;Node2</title>
<path fill="none" stroke="#191970" d="M618.6803,-224.3965C605.1905,-215.9089 585.9834,-202.6307 571.8906,-188 522.8041,-137.0398 523.2948,-114.0855 482.8906,-56 476.4608,-46.7565 469.1771,-36.5739 463.0913,-28.1439"/>
<polygon fill="#191970" stroke="#191970" points="465.7562,-25.8565 457.055,-19.8117 460.0875,-29.9633 465.7562,-25.8565"/>
</g>
<!-- Node13&#45;&gt;Node11 -->
<g id="edge24" class="edge">
<title>Node13&#45;&gt;Node11</title>
<path fill="none" stroke="#191970" d="M659.9889,-224.3733C683.8461,-215.2226 719.9241,-201.3844 746.4616,-191.2057"/>
<polygon fill="#191970" stroke="#191970" points="748.0365,-194.3503 756.1198,-187.5011 745.5296,-187.8145 748.0365,-194.3503"/>
</g>
<!-- Node14 -->
<g id="node15" class="node">
<title>Node14</title>
<g id="a_node15"><a xlink:href="net_2ethernet_2hdr_8h.html" target="_top" xlink:title="Ethernet header definitions. ">
<polygon fill="#ffffff" stroke="#000000" points="581.3906,-168.5 581.3906,-187.5 688.3906,-187.5 688.3906,-168.5 581.3906,-168.5"/>
<text text-anchor="middle" x="634.8906" y="-175.5" font-family="Helvetica,sans-Serif" font-size="10.00" fill="#000000">net/ethernet/hdr.h</text>
</a>
</g>
</g>
<!-- Node13&#45;&gt;Node14 -->
<g id="edge21" class="edge">
<title>Node13&#45;&gt;Node14</title>
<path fill="none" stroke="#191970" d="M634.8906,-224.2455C634.8906,-216.9382 634.8906,-206.6944 634.8906,-197.7046"/>
<polygon fill="#191970" stroke="#191970" points="638.3907,-197.6426 634.8906,-187.6427 631.3907,-197.6427 638.3907,-197.6426"/>
</g>
<!-- Node14&#45;&gt;Node6 -->
<g id="edge23" class="edge">
<title>Node14&#45;&gt;Node6</title>
<path fill="none" stroke="#191970" d="M647.6062,-168.2455C658.4927,-159.8943 674.3789,-147.7076 687.1106,-137.9408"/>
<polygon fill="#191970" stroke="#191970" points="689.5167,-140.5063 695.3207,-131.6427 685.256,-134.9523 689.5167,-140.5063"/>
</g>
<!-- Node15 -->
<g id="node16" class="node">
<title>Node15</title>
<g id="a_node16"><a xlink:href="inttypes_8h.html" target="_top" xlink:title="Adds include for missing inttype definitions. ">
<polygon fill="#ffffff" stroke="#000000" points="590.3906,-112.5 590.3906,-131.5 653.3906,-131.5 653.3906,-112.5 590.3906,-112.5"/>
<text text-anchor="middle" x="621.8906" y="-119.5" font-family="Helvetica,sans-Serif" font-size="10.00" fill="#000000">inttypes.h</text>
</a>
</g>
</g>
<!-- Node14&#45;&gt;Node15 -->
<g id="edge22" class="edge">
<title>Node14&#45;&gt;Node15</title>
<path fill="none" stroke="#191970" d="M632.6262,-168.2455C630.9112,-160.8579 628.4995,-150.4689 626.3962,-141.4087"/>
<polygon fill="#191970" stroke="#191970" points="629.7998,-140.5922 624.1291,-131.6427 622.9811,-142.1751 629.7998,-140.5922"/>
</g>
<!-- Node16&#45;&gt;Node1 -->
<g id="edge35" class="edge">
<title>Node16&#45;&gt;Node1</title>
<path fill="none" stroke="#191970" d="M338.9308,-224.3733C302.4831,-214.8799 246.666,-200.3415 207.2617,-190.0781"/>
<polygon fill="#191970" stroke="#191970" points="207.9275,-186.6348 197.3681,-187.5011 206.163,-193.4087 207.9275,-186.6348"/>
</g>
<!-- Node16&#45;&gt;Node2 -->
<g id="edge26" class="edge">
<title>Node16&#45;&gt;Node2</title>
<path fill="none" stroke="#191970" d="M406.0324,-224.4947C423.7108,-217.3199 444.8706,-205.6412 456.8906,-188 490.1897,-139.1285 469.8379,-63.9541 457.4054,-29.0376"/>
<polygon fill="#191970" stroke="#191970" points="460.6464,-27.7116 453.8695,-19.5676 454.0886,-30.1602 460.6464,-27.7116"/>
</g>
<!-- Node17 -->
<g id="node18" class="node">
<title>Node17</title>
<g id="a_node18"><a xlink:href="errno_8h.html" target="_top" xlink:title="errno.h">
<polygon fill="#ffffff" stroke="#000000" points="395.3906,-168.5 395.3906,-187.5 448.3906,-187.5 448.3906,-168.5 395.3906,-168.5"/>
<text text-anchor="middle" x="421.8906" y="-175.5" font-family="Helvetica,sans-Serif" font-size="10.00" fill="#000000">errno.h</text>
</a>
</g>
</g>
<!-- Node16&#45;&gt;Node17 -->
<g id="edge27" class="edge">
<title>Node16&#45;&gt;Node17</title>
<path fill="none" stroke="#191970" d="M383.9032,-224.2455C390.3674,-216.3761 399.6291,-205.101 407.389,-195.6542"/>
<polygon fill="#191970" stroke="#191970" points="410.327,-197.5916 413.9698,-187.6427 404.9179,-193.1484 410.327,-197.5916"/>
</g>
<!-- Node18 -->
<g id="node19" class="node">
<title>Node18</title>
<g id="a_node19"><a xlink:href="iolist_8h.html" target="_top" xlink:title="iolist scatter / gather IO ">
<polygon fill="#ffffff" stroke="#000000" points="217.3906,-168.5 217.3906,-187.5 264.3906,-187.5 264.3906,-168.5 217.3906,-168.5"/>
<text text-anchor="middle" x="240.8906" y="-175.5" font-family="Helvetica,sans-Serif" font-size="10.00" fill="#000000">iolist.h</text>
</a>
</g>
</g>
<!-- Node16&#45;&gt;Node18 -->
<g id="edge28" class="edge">
<title>Node16&#45;&gt;Node18</title>
<path fill="none" stroke="#191970" d="M352.6833,-224.3733C330.7207,-215.2629 297.5574,-201.5062 273.0505,-191.3404"/>
<polygon fill="#191970" stroke="#191970" points="274.373,-188.0999 263.7951,-187.5011 271.6909,-194.5657 274.373,-188.0999"/>
</g>
<!-- Node22 -->
<g id="node23" class="node">
<title>Node22</title>
<g id="a_node23"><a xlink:href="kernel__defines_8h.html" target="_top" xlink:title="Common macros and compiler attributes/pragmas configuration. ">
<polygon fill="#ffffff" stroke="#000000" points="282.3906,-168.5 282.3906,-187.5 377.3906,-187.5 377.3906,-168.5 282.3906,-168.5"/>
<text text-anchor="middle" x="329.8906" y="-175.5" font-family="Helvetica,sans-Serif" font-size="10.00" fill="#000000">kernel_defines.h</text>
</a>
</g>
</g>
<!-- Node16&#45;&gt;Node22 -->
<g id="edge36" class="edge">
<title>Node16&#45;&gt;Node22</title>
<path fill="none" stroke="#191970" d="M367.878,-224.2455C361.4139,-216.3761 352.1522,-205.101 344.3923,-195.6542"/>
<polygon fill="#191970" stroke="#191970" points="346.8634,-193.1484 337.8114,-187.6427 341.4543,-197.5916 346.8634,-193.1484"/>
</g>
<!-- Node19 -->
<g id="node20" class="node">
<title>Node19</title>
<g id="a_node20"><a xlink:href="unistd_8h_source.html" target="_top" xlink:title="unistd.h">
<polygon fill="#ffffff" stroke="#000000" points="83.8906,-112.5 83.8906,-131.5 137.8906,-131.5 137.8906,-112.5 83.8906,-112.5"/>
<text text-anchor="middle" x="110.8906" y="-119.5" font-family="Helvetica,sans-Serif" font-size="10.00" fill="#000000">unistd.h</text>
</a>
</g>
</g>
<!-- Node18&#45;&gt;Node19 -->
<g id="edge29" class="edge">
<title>Node18&#45;&gt;Node19</title>
<path fill="none" stroke="#191970" d="M218.5428,-168.3733C197.4873,-159.3032 165.7411,-145.6279 142.1731,-135.4755"/>
<polygon fill="#191970" stroke="#191970" points="143.5156,-132.243 132.9468,-131.5011 140.7462,-138.6719 143.5156,-132.243"/>
</g>
<!-- Node19&#45;&gt;Node2 -->
<g id="edge31" class="edge">
<title>Node19&#45;&gt;Node2</title>
<path fill="none" stroke="#191970" d="M110.6338,-112.2171C110.8275,-97.5993 113.5275,-70.2544 129.8906,-56 151.053,-37.5648 334.4966,-19.8558 413.7132,-12.9923"/>
<polygon fill="#191970" stroke="#191970" points="414.064,-16.4752 423.7288,-12.1343 413.4665,-9.5007 414.064,-16.4752"/>
</g>
<!-- Node20 -->
<g id="node21" class="node">
<title>Node20</title>
<polygon fill="#ffffff" stroke="#bfbfbf" points="19.8906,-.5 19.8906,-19.5 75.8906,-19.5 75.8906,-.5 19.8906,-.5"/>
<text text-anchor="middle" x="47.8906" y="-7.5" font-family="Helvetica,sans-Serif" font-size="10.00" fill="#000000">stddef.h</text>
</g>
<!-- Node19&#45;&gt;Node20 -->
<g id="edge30" class="edge">
<title>Node19&#45;&gt;Node20</title>
<path fill="none" stroke="#191970" d="M83.6791,-114.0574C55.1173,-105.1054 13.0937,-89.974 3.8906,-76 -7.3971,-58.8608 9.367,-39.3106 25.3488,-25.9643"/>
<polygon fill="#191970" stroke="#191970" points="27.7661,-28.5168 33.4822,-19.5962 23.4507,-23.0052 27.7661,-28.5168"/>
</g>
<!-- Node21 -->
<g id="node22" class="node">
<title>Node21</title>
<g id="a_node22"><a xlink:href="cpu_2avr8__common_2avr__libc__extra_2include_2sys_2types_8h_source.html" target="_top" xlink:title="sys/types.h">
<polygon fill="#ffffff" stroke="#000000" points="13.3906,-56.5 13.3906,-75.5 82.3906,-75.5 82.3906,-56.5 13.3906,-56.5"/>
<text text-anchor="middle" x="47.8906" y="-63.5" font-family="Helvetica,sans-Serif" font-size="10.00" fill="#000000">sys/types.h</text>
</a>
</g>
</g>
<!-- Node19&#45;&gt;Node21 -->
<g id="edge32" class="edge">
<title>Node19&#45;&gt;Node21</title>
<path fill="none" stroke="#191970" d="M99.9168,-112.2455C90.7024,-104.0549 77.3374,-92.1749 66.4609,-82.5069"/>
<polygon fill="#191970" stroke="#191970" points="68.538,-79.6704 58.7386,-75.6427 63.8875,-84.9023 68.538,-79.6704"/>
</g>
<!-- Node21&#45;&gt;Node2 -->
<g id="edge33" class="edge">
<title>Node21&#45;&gt;Node2</title>
<path fill="none" stroke="#191970" d="M82.6319,-58.5894C87.4125,-57.6635 92.2662,-56.7722 96.8906,-56 212.0905,-36.7644 349.5731,-20.861 413.6631,-13.8524"/>
<polygon fill="#191970" stroke="#191970" points="414.1044,-17.3251 423.6679,-12.7656 413.3484,-10.3661 414.1044,-17.3251"/>
</g>
<!-- Node21&#45;&gt;Node20 -->
<g id="edge34" class="edge">
<title>Node21&#45;&gt;Node20</title>
<path fill="none" stroke="#191970" d="M47.8906,-56.2455C47.8906,-48.9382 47.8906,-38.6944 47.8906,-29.7046"/>
<polygon fill="#191970" stroke="#191970" points="51.3907,-29.6426 47.8906,-19.6427 44.3907,-29.6427 51.3907,-29.6426"/>
</g>
<!-- Node22&#45;&gt;Node10 -->
<g id="edge37" class="edge">
<title>Node22&#45;&gt;Node10</title>
<path fill="none" stroke="#191970" d="M346.2642,-168.2455C360.8214,-159.5731 382.3216,-146.7645 399.0058,-136.825"/>
<polygon fill="#191970" stroke="#191970" points="400.905,-139.7676 407.7047,-131.6427 397.3223,-133.7539 400.905,-139.7676"/>
</g>
<!-- Node23 -->
<g id="node24" class="node">
<title>Node23</title>
<g id="a_node24"><a xlink:href="riot__version_8h.html" target="_top" xlink:title="Common macros and compiler attributes/pragmas configuration. ">
<polygon fill="#ffffff" stroke="#000000" points="375.3906,-56.5 375.3906,-75.5 456.3906,-75.5 456.3906,-56.5 375.3906,-56.5"/>
<text text-anchor="middle" x="415.8906" y="-63.5" font-family="Helvetica,sans-Serif" font-size="10.00" fill="#000000">riot_version.h</text>
</a>
</g>
</g>
<!-- Node22&#45;&gt;Node23 -->
<g id="edge38" class="edge">
<title>Node22&#45;&gt;Node23</title>
<path fill="none" stroke="#191970" d="M337.2229,-168.4509C351.6302,-149.688 383.8289,-107.7548 402.255,-83.758"/>
<polygon fill="#191970" stroke="#191970" points="405.2626,-85.588 408.5769,-75.5249 399.7105,-81.3248 405.2626,-85.588"/>
</g>
<!-- Node24 -->
<g id="node25" class="node">
<title>Node24</title>
<g id="a_node25"><a xlink:href="compiler__hints_8h.html" target="_top" xlink:title="Common macros and compiler attributes/pragmas configuration. ">
<polygon fill="#ffffff" stroke="#000000" points="241.3906,-112.5 241.3906,-131.5 334.3906,-131.5 334.3906,-112.5 241.3906,-112.5"/>
<text text-anchor="middle" x="287.8906" y="-119.5" font-family="Helvetica,sans-Serif" font-size="10.00" fill="#000000">compiler_hints.h</text>
</a>
</g>
</g>
<!-- Node22&#45;&gt;Node24 -->
<g id="edge40" class="edge">
<title>Node22&#45;&gt;Node24</title>
<path fill="none" stroke="#191970" d="M322.5748,-168.2455C316.6727,-160.3761 308.2164,-149.101 301.1313,-139.6542"/>
<polygon fill="#191970" stroke="#191970" points="303.9227,-137.5427 295.1226,-131.6427 298.3226,-141.7427 303.9227,-137.5427"/>
</g>
<!-- Node26 -->
<g id="node27" class="node">
<title>Node26</title>
<g id="a_node27"><a xlink:href="container_8h.html" target="_top" xlink:title="Common macros and compiler attributes/pragmas configuration. ">
<polygon fill="#ffffff" stroke="#000000" points="139.3906,-56.5 139.3906,-75.5 208.3906,-75.5 208.3906,-56.5 139.3906,-56.5"/>
<text text-anchor="middle" x="173.8906" y="-63.5" font-family="Helvetica,sans-Serif" font-size="10.00" fill="#000000">container.h</text>
</a>
</g>
</g>
<!-- Node22&#45;&gt;Node26 -->
<g id="edge44" class="edge">
<title>Node22&#45;&gt;Node26</title>
<path fill="none" stroke="#191970" d="M302.0245,-168.461C281.439,-160.6055 253.3785,-148.1442 231.8906,-132 213.7116,-118.3418 197.0384,-98.2123 186.2809,-83.7785"/>
<polygon fill="#191970" stroke="#191970" points="189.0857,-81.6842 180.3867,-75.6361 183.4154,-85.7888 189.0857,-81.6842"/>
</g>
<!-- Node23&#45;&gt;Node2 -->
<g id="edge39" class="edge">
<title>Node23&#45;&gt;Node2</title>
<path fill="none" stroke="#191970" d="M421.813,-56.2455C426.4933,-48.5367 433.1579,-37.5598 438.8195,-28.2348"/>
<polygon fill="#191970" stroke="#191970" points="441.8381,-30.007 444.0361,-19.6427 435.8545,-26.3741 441.8381,-30.007"/>
</g>
<!-- Node24&#45;&gt;Node2 -->
<g id="edge43" class="edge">
<title>Node24&#45;&gt;Node2</title>
<path fill="none" stroke="#191970" d="M297.9516,-112.3297C312.3181,-98.7987 339.8596,-73.8714 365.8906,-56 383.3075,-44.0426 404.1286,-32.6229 420.6839,-24.1528"/>
<polygon fill="#191970" stroke="#191970" points="422.5211,-27.1465 429.8805,-19.5248 419.3745,-20.8936 422.5211,-27.1465"/>
</g>
<!-- Node25 -->
<g id="node26" class="node">
<title>Node25</title>
<g id="a_node26"><a xlink:href="assert_8h.html" target="_top" xlink:title="POSIX.1&#45;2008 compliant version of the assert macro. ">
<polygon fill="#ffffff" stroke="#000000" points="264.8906,-56.5 264.8906,-75.5 318.8906,-75.5 318.8906,-56.5 264.8906,-56.5"/>
<text text-anchor="middle" x="291.8906" y="-63.5" font-family="Helvetica,sans-Serif" font-size="10.00" fill="#000000">assert.h</text>
</a>
</g>
</g>
<!-- Node24&#45;&gt;Node25 -->
<g id="edge41" class="edge">
<title>Node24&#45;&gt;Node25</title>
<path fill="none" stroke="#191970" d="M288.5874,-112.2455C289.1093,-104.9382 289.841,-94.6944 290.4831,-85.7046"/>
<polygon fill="#191970" stroke="#191970" points="293.9804,-85.8667 291.2018,-75.6427 286.9982,-85.3679 293.9804,-85.8667"/>
</g>
<!-- Node25&#45;&gt;Node2 -->
<g id="edge42" class="edge">
<title>Node25&#45;&gt;Node2</title>
<path fill="none" stroke="#191970" d="M319.0518,-56.3733C345.3341,-47.058 385.3216,-32.8852 414.1709,-22.6602"/>
<polygon fill="#191970" stroke="#191970" points="415.6137,-25.8622 423.87,-19.2225 413.2752,-19.2643 415.6137,-25.8622"/>
</g>
<!-- Node26&#45;&gt;Node2 -->
<g id="edge46" class="edge">
<title>Node26&#45;&gt;Node2</title>
<path fill="none" stroke="#191970" d="M208.423,-58.9464C213.2806,-57.9559 218.2111,-56.9516 222.8906,-56 290.3376,-42.2838 369.0729,-26.345 413.8489,-17.2876"/>
<polygon fill="#191970" stroke="#191970" points="414.5652,-20.7137 423.6728,-15.3006 413.1774,-13.8527 414.5652,-20.7137"/>
</g>
<!-- Node26&#45;&gt;Node20 -->
<g id="edge45" class="edge">
<title>Node26&#45;&gt;Node20</title>
<path fill="none" stroke="#191970" d="M152.2304,-56.3733C131.9135,-47.3435 101.3267,-33.7494 78.5156,-23.6111"/>
<polygon fill="#191970" stroke="#191970" points="79.8278,-20.3642 69.2681,-19.5011 76.9848,-26.7609 79.8278,-20.3642"/>
</g>
</g>
</svg>
