<?xml version="1.0" encoding="UTF-8" standalone="no"?>
<!DOCTYPE svg PUBLIC "-//W3C//DTD SVG 1.1//EN"
 "http://www.w3.org/Graphics/SVG/1.1/DTD/svg11.dtd">
<!-- Generated by graphviz version 2.40.1 (0)
 -->
<!-- Title: pkg/paho&#45;mqtt/include/paho_mqtt.h Pages: 1 -->
<svg width="1448pt" height="487pt"
 viewBox="0.00 0.00 1448.00 487.00" xmlns="http://www.w3.org/2000/svg" xmlns:xlink="http://www.w3.org/1999/xlink">
<g id="graph0" class="graph" transform="scale(1 1) rotate(0) translate(4 483)">
<title>pkg/paho&#45;mqtt/include/paho_mqtt.h</title>
<polygon fill="#ffffff" stroke="transparent" points="-4,4 -4,-483 1444,-483 1444,4 -4,4"/>
<!-- Node0 -->
<g id="node1" class="node">
<title>Node0</title>
<polygon fill="#bfbfbf" stroke="#000000" points="827.5,-448.5 827.5,-478.5 950.5,-478.5 950.5,-448.5 827.5,-448.5"/>
<text text-anchor="start" x="835.5" y="-466.5" font-family="Helvetica,sans-Serif" font-size="10.00" fill="#000000">pkg/paho&#45;mqtt/include</text>
<text text-anchor="middle" x="889" y="-455.5" font-family="Helvetica,sans-Serif" font-size="10.00" fill="#000000">/paho_mqtt.h</text>
</g>
<!-- Node1 -->
<g id="node2" class="node">
<title>Node1</title>
<g id="a_node2"><a xlink:href="mutex_8h.html" target="_top" xlink:title="Mutex for thread synchronization. ">
<polygon fill="#ffffff" stroke="#000000" points="532,-392.5 532,-411.5 588,-411.5 588,-392.5 532,-392.5"/>
<text text-anchor="middle" x="560" y="-399.5" font-family="Helvetica,sans-Serif" font-size="10.00" fill="#000000">mutex.h</text>
</a>
</g>
</g>
<!-- Node0&#45;&gt;Node1 -->
<g id="edge1" class="edge">
<title>Node0&#45;&gt;Node1</title>
<path fill="none" stroke="#191970" d="M827.1176,-451.9323C759.8283,-439.3539 654.3972,-419.6457 598.2293,-409.1462"/>
<polygon fill="#191970" stroke="#191970" points="598.808,-405.6938 588.3351,-407.2967 597.5217,-412.5746 598.808,-405.6938"/>
</g>
<!-- Node25 -->
<g id="node26" class="node">
<title>Node25</title>
<polygon fill="#ffffff" stroke="#bfbfbf" points="917.5,-392.5 917.5,-411.5 974.5,-411.5 974.5,-392.5 917.5,-392.5"/>
<text text-anchor="middle" x="946" y="-399.5" font-family="Helvetica,sans-Serif" font-size="10.00" fill="#000000">thread.h</text>
</g>
<!-- Node0&#45;&gt;Node25 -->
<g id="edge43" class="edge">
<title>Node0&#45;&gt;Node25</title>
<path fill="none" stroke="#191970" d="M903.0899,-448.2977C911.2493,-439.4941 921.5472,-428.3833 930.0095,-419.2529"/>
<polygon fill="#191970" stroke="#191970" points="932.6429,-421.5604 936.8736,-411.8469 927.5089,-416.8021 932.6429,-421.5604"/>
</g>
<!-- Node26 -->
<g id="node27" class="node">
<title>Node26</title>
<g id="a_node27"><a xlink:href="sock_2tcp_8h.html" target="_top" xlink:title="TCP sock definitions. ">
<polygon fill="#ffffff" stroke="#000000" points="1121.5,-336.5 1121.5,-355.5 1204.5,-355.5 1204.5,-336.5 1121.5,-336.5"/>
<text text-anchor="middle" x="1163" y="-343.5" font-family="Helvetica,sans-Serif" font-size="10.00" fill="#000000">net/sock/tcp.h</text>
</a>
</g>
</g>
<!-- Node0&#45;&gt;Node26 -->
<g id="edge44" class="edge">
<title>Node0&#45;&gt;Node26</title>
<path fill="none" stroke="#191970" d="M888.8236,-448.2471C889.5116,-431.8823 893.2743,-406.3188 909,-392 937.9373,-365.6516 1045.6181,-353.8442 1111.1273,-349.0009"/>
<polygon fill="#191970" stroke="#191970" points="1111.5333,-352.481 1121.2606,-348.2822 1111.038,-345.4985 1111.5333,-352.481"/>
</g>
<!-- Node2 -->
<g id="node3" class="node">
<title>Node2</title>
<polygon fill="#ffffff" stroke="#bfbfbf" points="802,-56.5 802,-75.5 858,-75.5 858,-56.5 802,-56.5"/>
<text text-anchor="middle" x="830" y="-63.5" font-family="Helvetica,sans-Serif" font-size="10.00" fill="#000000">stddef.h</text>
</g>
<!-- Node1&#45;&gt;Node2 -->
<g id="edge2" class="edge">
<title>Node1&#45;&gt;Node2</title>
<path fill="none" stroke="#191970" d="M588.1043,-399.4219C673.1578,-390.8527 922,-359.8159 922,-290 922,-290 922,-290 922,-234 922,-203.4754 918.3207,-194.4013 903,-168 891.7997,-148.699 881.4491,-149.8072 868,-132 856.7145,-117.0575 846.2857,-98.4484 839.2197,-84.8028"/>
<polygon fill="#191970" stroke="#191970" points="842.3385,-83.2142 834.7047,-75.8674 836.0907,-86.3712 842.3385,-83.2142"/>
</g>
<!-- Node3 -->
<g id="node4" class="node">
<title>Node3</title>
<polygon fill="#ffffff" stroke="#bfbfbf" points="370,-.5 370,-19.5 422,-19.5 422,-.5 370,-.5"/>
<text text-anchor="middle" x="396" y="-7.5" font-family="Helvetica,sans-Serif" font-size="10.00" fill="#000000">stdint.h</text>
</g>
<!-- Node1&#45;&gt;Node3 -->
<g id="edge3" class="edge">
<title>Node1&#45;&gt;Node3</title>
<path fill="none" stroke="#191970" d="M531.8457,-399.4006C418.2873,-388.5459 0,-344.841 0,-290 0,-290 0,-290 0,-122 0,-47.6363 261.8369,-20.1546 359.6881,-12.4808"/>
<polygon fill="#191970" stroke="#191970" points="360.0045,-15.967 369.7107,-11.7196 359.4743,-8.9871 360.0045,-15.967"/>
</g>
<!-- Node4 -->
<g id="node5" class="node">
<title>Node4</title>
<polygon fill="#ffffff" stroke="#bfbfbf" points="424,-112.5 424,-131.5 484,-131.5 484,-112.5 424,-112.5"/>
<text text-anchor="middle" x="454" y="-119.5" font-family="Helvetica,sans-Serif" font-size="10.00" fill="#000000">stdbool.h</text>
</g>
<!-- Node1&#45;&gt;Node4 -->
<g id="edge4" class="edge">
<title>Node1&#45;&gt;Node4</title>
<path fill="none" stroke="#191970" d="M531.8609,-395.8525C467.728,-381.208 314.0153,-342.31 285,-300 258.0799,-260.7453 234.6181,-261.8665 332,-168 354.301,-146.5041 387.6178,-134.8454 413.8025,-128.6493"/>
<polygon fill="#191970" stroke="#191970" points="414.7895,-132.0162 423.8107,-126.4603 413.2937,-125.1779 414.7895,-132.0162"/>
</g>
<!-- Node5 -->
<g id="node6" class="node">
<title>Node5</title>
<g id="a_node6"><a xlink:href="architecture_8h.html" target="_top" xlink:title="Platform&#45;independent access to architecture details. ">
<polygon fill="#ffffff" stroke="#000000" points="680.5,-224.5 680.5,-243.5 763.5,-243.5 763.5,-224.5 680.5,-224.5"/>
<text text-anchor="middle" x="722" y="-231.5" font-family="Helvetica,sans-Serif" font-size="10.00" fill="#000000">architecture.h</text>
</a>
</g>
</g>
<!-- Node1&#45;&gt;Node5 -->
<g id="edge5" class="edge">
<title>Node1&#45;&gt;Node5</title>
<path fill="none" stroke="#191970" d="M588.4127,-395.7005C611.804,-389.2285 644.5011,-377.0544 666,-356 695.4299,-327.1786 710.916,-279.9989 717.6838,-253.5501"/>
<polygon fill="#191970" stroke="#191970" points="721.1418,-254.1382 720.0657,-243.5982 714.3341,-252.5088 721.1418,-254.1382"/>
</g>
<!-- Node9 -->
<g id="node10" class="node">
<title>Node9</title>
<g id="a_node10"><a xlink:href="kernel__defines_8h.html" target="_top" xlink:title="Common macros and compiler attributes/pragmas configuration. ">
<polygon fill="#ffffff" stroke="#000000" points="129.5,-168.5 129.5,-187.5 224.5,-187.5 224.5,-168.5 129.5,-168.5"/>
<text text-anchor="middle" x="177" y="-175.5" font-family="Helvetica,sans-Serif" font-size="10.00" fill="#000000">kernel_defines.h</text>
</a>
</g>
</g>
<!-- Node1&#45;&gt;Node9 -->
<g id="edge10" class="edge">
<title>Node1&#45;&gt;Node9</title>
<path fill="none" stroke="#191970" d="M531.9349,-401.2459C464.4483,-398.9038 295.4539,-389.7345 252,-356 200.8686,-316.3053 184.2043,-235.269 179.1,-197.8053"/>
<polygon fill="#191970" stroke="#191970" points="182.5489,-197.1732 177.8617,-187.6716 175.6006,-198.0223 182.5489,-197.1732"/>
</g>
<!-- Node15 -->
<g id="node16" class="node">
<title>Node15</title>
<g id="a_node16"><a xlink:href="list_8h.html" target="_top" xlink:title="Intrusive linked list. ">
<polygon fill="#ffffff" stroke="#000000" points="623,-112.5 623,-131.5 661,-131.5 661,-112.5 623,-112.5"/>
<text text-anchor="middle" x="642" y="-119.5" font-family="Helvetica,sans-Serif" font-size="10.00" fill="#000000">list.h</text>
</a>
</g>
</g>
<!-- Node1&#45;&gt;Node15 -->
<g id="edge21" class="edge">
<title>Node1&#45;&gt;Node15</title>
<path fill="none" stroke="#191970" d="M576.4478,-392.232C602.9102,-375.1274 652,-337.0556 652,-290 652,-290 652,-290 652,-234 652,-201.5831 647.7925,-164.0969 644.8359,-141.7572"/>
<polygon fill="#191970" stroke="#191970" points="648.2637,-140.992 643.4328,-131.5627 641.3291,-141.9466 648.2637,-140.992"/>
</g>
<!-- Node16 -->
<g id="node17" class="node">
<title>Node16</title>
<g id="a_node17"><a xlink:href="core_2include_2thread_8h.html" target="_top" xlink:title="Threading API. ">
<polygon fill="#ffffff" stroke="#000000" points="439.5,-336.5 439.5,-355.5 496.5,-355.5 496.5,-336.5 439.5,-336.5"/>
<text text-anchor="middle" x="468" y="-343.5" font-family="Helvetica,sans-Serif" font-size="10.00" fill="#000000">thread.h</text>
</a>
</g>
</g>
<!-- Node1&#45;&gt;Node16 -->
<g id="edge22" class="edge">
<title>Node1&#45;&gt;Node16</title>
<path fill="none" stroke="#191970" d="M543.9748,-392.2455C529.8592,-383.6534 509.0737,-371.0014 492.8101,-361.1018"/>
<polygon fill="#191970" stroke="#191970" points="494.2034,-357.8525 483.8415,-355.6427 490.5637,-363.8319 494.2034,-357.8525"/>
</g>
<!-- Node5&#45;&gt;Node3 -->
<g id="edge6" class="edge">
<title>Node5&#45;&gt;Node3</title>
<path fill="none" stroke="#191970" d="M719.028,-224.485C710.8236,-198.739 687.3212,-128.5333 670,-112 602.251,-47.3331 489.8208,-22.8962 432.3143,-14.2912"/>
<polygon fill="#191970" stroke="#191970" points="432.6313,-10.8012 422.2389,-12.8626 431.6485,-17.7319 432.6313,-10.8012"/>
</g>
<!-- Node6 -->
<g id="node7" class="node">
<title>Node6</title>
<g id="a_node7"><a xlink:href="inttypes_8h.html" target="_top" xlink:title="Adds include for missing inttype definitions. ">
<polygon fill="#ffffff" stroke="#000000" points="560.5,-168.5 560.5,-187.5 623.5,-187.5 623.5,-168.5 560.5,-168.5"/>
<text text-anchor="middle" x="592" y="-175.5" font-family="Helvetica,sans-Serif" font-size="10.00" fill="#000000">inttypes.h</text>
</a>
</g>
</g>
<!-- Node5&#45;&gt;Node6 -->
<g id="edge7" class="edge">
<title>Node5&#45;&gt;Node6</title>
<path fill="none" stroke="#191970" d="M699.6522,-224.3733C678.5967,-215.3032 646.8505,-201.6279 623.2825,-191.4755"/>
<polygon fill="#191970" stroke="#191970" points="624.625,-188.243 614.0562,-187.5011 621.8556,-194.6719 624.625,-188.243"/>
</g>
<!-- Node7 -->
<g id="node8" class="node">
<title>Node7</title>
<polygon fill="#ffffff" stroke="#bfbfbf" points="844,-168.5 844,-187.5 894,-187.5 894,-168.5 844,-168.5"/>
<text text-anchor="middle" x="869" y="-175.5" font-family="Helvetica,sans-Serif" font-size="10.00" fill="#000000">limits.h</text>
</g>
<!-- Node5&#45;&gt;Node7 -->
<g id="edge8" class="edge">
<title>Node5&#45;&gt;Node7</title>
<path fill="none" stroke="#191970" d="M747.2702,-224.3733C771.3966,-215.1822 807.9362,-201.2624 834.6877,-191.0713"/>
<polygon fill="#191970" stroke="#191970" points="835.9607,-194.3318 844.0596,-187.5011 833.4687,-187.7904 835.9607,-194.3318"/>
</g>
<!-- Node8 -->
<g id="node9" class="node">
<title>Node8</title>
<polygon fill="#ffffff" stroke="#bfbfbf" points="718.5,-168.5 718.5,-187.5 825.5,-187.5 825.5,-168.5 718.5,-168.5"/>
<text text-anchor="middle" x="772" y="-175.5" font-family="Helvetica,sans-Serif" font-size="10.00" fill="#000000">architecture_arch.h</text>
</g>
<!-- Node5&#45;&gt;Node8 -->
<g id="edge9" class="edge">
<title>Node5&#45;&gt;Node8</title>
<path fill="none" stroke="#191970" d="M730.7093,-224.2455C737.8073,-216.2958 748.0084,-204.8706 756.495,-195.3656"/>
<polygon fill="#191970" stroke="#191970" points="759.3411,-197.4331 763.3905,-187.6427 754.1195,-192.771 759.3411,-197.4331"/>
</g>
<!-- Node10 -->
<g id="node11" class="node">
<title>Node10</title>
<g id="a_node11"><a xlink:href="modules_8h.html" target="_top" xlink:title="Common macros and compiler attributes/pragmas configuration. ">
<polygon fill="#ffffff" stroke="#000000" points="104.5,-112.5 104.5,-131.5 169.5,-131.5 169.5,-112.5 104.5,-112.5"/>
<text text-anchor="middle" x="137" y="-119.5" font-family="Helvetica,sans-Serif" font-size="10.00" fill="#000000">modules.h</text>
</a>
</g>
</g>
<!-- Node9&#45;&gt;Node10 -->
<g id="edge11" class="edge">
<title>Node9&#45;&gt;Node10</title>
<path fill="none" stroke="#191970" d="M170.0325,-168.2455C164.4689,-160.4564 156.522,-149.3308 149.8171,-139.9439"/>
<polygon fill="#191970" stroke="#191970" points="152.5481,-137.7457 143.8876,-131.6427 146.852,-141.8144 152.5481,-137.7457"/>
</g>
<!-- Node11 -->
<g id="node12" class="node">
<title>Node11</title>
<g id="a_node12"><a xlink:href="riot__version_8h.html" target="_top" xlink:title="Common macros and compiler attributes/pragmas configuration. ">
<polygon fill="#ffffff" stroke="#000000" points="210.5,-56.5 210.5,-75.5 291.5,-75.5 291.5,-56.5 210.5,-56.5"/>
<text text-anchor="middle" x="251" y="-63.5" font-family="Helvetica,sans-Serif" font-size="10.00" fill="#000000">riot_version.h</text>
</a>
</g>
</g>
<!-- Node9&#45;&gt;Node11 -->
<g id="edge12" class="edge">
<title>Node9&#45;&gt;Node11</title>
<path fill="none" stroke="#191970" d="M147.532,-168.4778C117.1884,-157.0812 76.7249,-136.4418 95,-112 101.5687,-103.2147 157.6435,-88.1456 200.7022,-77.6585"/>
<polygon fill="#191970" stroke="#191970" points="201.5971,-81.0431 210.4979,-75.2963 199.956,-74.2381 201.5971,-81.0431"/>
</g>
<!-- Node12 -->
<g id="node13" class="node">
<title>Node12</title>
<g id="a_node13"><a xlink:href="compiler__hints_8h.html" target="_top" xlink:title="Common macros and compiler attributes/pragmas configuration. ">
<polygon fill="#ffffff" stroke="#000000" points="187.5,-112.5 187.5,-131.5 280.5,-131.5 280.5,-112.5 187.5,-112.5"/>
<text text-anchor="middle" x="234" y="-119.5" font-family="Helvetica,sans-Serif" font-size="10.00" fill="#000000">compiler_hints.h</text>
</a>
</g>
</g>
<!-- Node9&#45;&gt;Node12 -->
<g id="edge14" class="edge">
<title>Node9&#45;&gt;Node12</title>
<path fill="none" stroke="#191970" d="M186.9286,-168.2455C195.1838,-160.1352 207.1209,-148.4075 216.9082,-138.7919"/>
<polygon fill="#191970" stroke="#191970" points="219.5046,-141.1476 224.1851,-131.6427 214.5989,-136.1542 219.5046,-141.1476"/>
</g>
<!-- Node14 -->
<g id="node15" class="node">
<title>Node14</title>
<g id="a_node15"><a xlink:href="container_8h.html" target="_top" xlink:title="Common macros and compiler attributes/pragmas configuration. ">
<polygon fill="#ffffff" stroke="#000000" points="298.5,-112.5 298.5,-131.5 367.5,-131.5 367.5,-112.5 298.5,-112.5"/>
<text text-anchor="middle" x="333" y="-119.5" font-family="Helvetica,sans-Serif" font-size="10.00" fill="#000000">container.h</text>
</a>
</g>
</g>
<!-- Node9&#45;&gt;Node14 -->
<g id="edge18" class="edge">
<title>Node9&#45;&gt;Node14</title>
<path fill="none" stroke="#191970" d="M203.8174,-168.3733C229.5332,-159.1419 268.538,-145.1402 296.9599,-134.9375"/>
<polygon fill="#191970" stroke="#191970" points="298.3032,-138.174 306.5326,-131.5011 295.9381,-131.5857 298.3032,-138.174"/>
</g>
<!-- Node11&#45;&gt;Node3 -->
<g id="edge13" class="edge">
<title>Node11&#45;&gt;Node3</title>
<path fill="none" stroke="#191970" d="M275.9264,-56.3733C299.6202,-47.2226 335.4511,-33.3844 361.8068,-23.2057"/>
<polygon fill="#191970" stroke="#191970" points="363.3314,-26.3689 371.3989,-19.5011 360.8094,-19.8389 363.3314,-26.3689"/>
</g>
<!-- Node12&#45;&gt;Node3 -->
<g id="edge17" class="edge">
<title>Node12&#45;&gt;Node3</title>
<path fill="none" stroke="#191970" d="M247.812,-112.4509C275.9077,-93.0268 339.9215,-48.7703 373.8848,-25.2895"/>
<polygon fill="#191970" stroke="#191970" points="375.9877,-28.0907 382.2229,-19.5249 372.0069,-22.3328 375.9877,-28.0907"/>
</g>
<!-- Node13 -->
<g id="node14" class="node">
<title>Node13</title>
<g id="a_node14"><a xlink:href="assert_8h.html" target="_top" xlink:title="POSIX.1&#45;2008 compliant version of the assert macro. ">
<polygon fill="#ffffff" stroke="#000000" points="138,-56.5 138,-75.5 192,-75.5 192,-56.5 138,-56.5"/>
<text text-anchor="middle" x="165" y="-63.5" font-family="Helvetica,sans-Serif" font-size="10.00" fill="#000000">assert.h</text>
</a>
</g>
</g>
<!-- Node12&#45;&gt;Node13 -->
<g id="edge15" class="edge">
<title>Node12&#45;&gt;Node13</title>
<path fill="none" stroke="#191970" d="M221.9811,-112.2455C211.7902,-103.9746 196.9638,-91.9416 184.9893,-82.2232"/>
<polygon fill="#191970" stroke="#191970" points="186.8514,-79.2268 176.8812,-75.6427 182.4402,-84.662 186.8514,-79.2268"/>
</g>
<!-- Node13&#45;&gt;Node3 -->
<g id="edge16" class="edge">
<title>Node13&#45;&gt;Node3</title>
<path fill="none" stroke="#191970" d="M192.0962,-58.3505C195.096,-57.5402 198.1099,-56.742 201,-56 256.2048,-41.8272 320.629,-26.9519 359.8537,-18.0798"/>
<polygon fill="#191970" stroke="#191970" points="360.7561,-21.4643 369.741,-15.8499 359.216,-14.6358 360.7561,-21.4643"/>
</g>
<!-- Node14&#45;&gt;Node2 -->
<g id="edge19" class="edge">
<title>Node14&#45;&gt;Node2</title>
<path fill="none" stroke="#191970" d="M367.7023,-117.6826C382.3019,-115.8885 399.4725,-113.8073 415,-112 553.6298,-95.8644 718.4706,-77.9808 791.6858,-70.105"/>
<polygon fill="#191970" stroke="#191970" points="792.2404,-73.5656 801.8091,-69.017 791.4924,-66.6057 792.2404,-73.5656"/>
</g>
<!-- Node14&#45;&gt;Node3 -->
<g id="edge20" class="edge">
<title>Node14&#45;&gt;Node3</title>
<path fill="none" stroke="#191970" d="M338.3713,-112.4509C348.8325,-93.8533 372.0983,-52.4919 385.652,-28.3964"/>
<polygon fill="#191970" stroke="#191970" points="388.7901,-29.9566 390.6423,-19.5249 382.6891,-26.5247 388.7901,-29.9566"/>
</g>
<!-- Node17 -->
<g id="node18" class="node">
<title>Node17</title>
<g id="a_node18"><a xlink:href="clist_8h.html" target="_top" xlink:title="Circular linked list. ">
<polygon fill="#ffffff" stroke="#000000" points="499.5,-168.5 499.5,-187.5 542.5,-187.5 542.5,-168.5 499.5,-168.5"/>
<text text-anchor="middle" x="521" y="-175.5" font-family="Helvetica,sans-Serif" font-size="10.00" fill="#000000">clist.h</text>
</a>
</g>
</g>
<!-- Node16&#45;&gt;Node17 -->
<g id="edge23" class="edge">
<title>Node16&#45;&gt;Node17</title>
<path fill="none" stroke="#191970" d="M496.602,-339.6543C530.3804,-331.5128 583.4533,-316.4631 595,-300 604.202,-286.8799 603.5304,-249.5165 588,-224 579.4768,-209.9963 564.8891,-199.2286 551.4975,-191.6441"/>
<polygon fill="#191970" stroke="#191970" points="552.9845,-188.4714 542.5066,-186.9012 549.7183,-194.6627 552.9845,-188.4714"/>
</g>
<!-- Node18 -->
<g id="node19" class="node">
<title>Node18</title>
<g id="a_node19"><a xlink:href="cib_8h.html" target="_top" xlink:title="Circular integer buffer interface. ">
<polygon fill="#ffffff" stroke="#000000" points="90,-224.5 90,-243.5 128,-243.5 128,-224.5 90,-224.5"/>
<text text-anchor="middle" x="109" y="-231.5" font-family="Helvetica,sans-Serif" font-size="10.00" fill="#000000">cib.h</text>
</a>
</g>
</g>
<!-- Node16&#45;&gt;Node18 -->
<g id="edge27" class="edge">
<title>Node16&#45;&gt;Node18</title>
<path fill="none" stroke="#191970" d="M439.1945,-339.8144C402.9069,-331.7815 338.7871,-316.7868 285,-300 232.1222,-283.497 171.9882,-259.862 137.4685,-245.8085"/>
<polygon fill="#191970" stroke="#191970" points="138.6068,-242.4926 128.0263,-241.9429 135.9547,-248.9708 138.6068,-242.4926"/>
</g>
<!-- Node19 -->
<g id="node20" class="node">
<title>Node19</title>
<g id="a_node20"><a xlink:href="core_2include_2msg_8h.html" target="_top" xlink:title="Messaging API for inter process communication. ">
<polygon fill="#ffffff" stroke="#000000" points="294.5,-280.5 294.5,-299.5 339.5,-299.5 339.5,-280.5 294.5,-280.5"/>
<text text-anchor="middle" x="317" y="-287.5" font-family="Helvetica,sans-Serif" font-size="10.00" fill="#000000">msg.h</text>
</a>
</g>
</g>
<!-- Node16&#45;&gt;Node19 -->
<g id="edge29" class="edge">
<title>Node16&#45;&gt;Node19</title>
<path fill="none" stroke="#191970" d="M442.0422,-336.3733C416.3581,-326.848 376.9788,-312.2438 349.2892,-301.9748"/>
<polygon fill="#191970" stroke="#191970" points="350.2567,-298.6007 339.6637,-298.4051 347.8226,-305.1639 350.2567,-298.6007"/>
</g>
<!-- Node20 -->
<g id="node21" class="node">
<title>Node20</title>
<g id="a_node21"><a xlink:href="sched_8h.html" target="_top" xlink:title="Scheduler API definition. ">
<polygon fill="#ffffff" stroke="#000000" points="441.5,-224.5 441.5,-243.5 494.5,-243.5 494.5,-224.5 441.5,-224.5"/>
<text text-anchor="middle" x="468" y="-231.5" font-family="Helvetica,sans-Serif" font-size="10.00" fill="#000000">sched.h</text>
</a>
</g>
</g>
<!-- Node16&#45;&gt;Node20 -->
<g id="edge38" class="edge">
<title>Node16&#45;&gt;Node20</title>
<path fill="none" stroke="#191970" d="M468,-336.4509C468,-318.184 468,-277.9553 468,-253.6976"/>
<polygon fill="#191970" stroke="#191970" points="471.5001,-253.5249 468,-243.5249 464.5001,-253.5249 471.5001,-253.5249"/>
</g>
<!-- Node22 -->
<g id="node23" class="node">
<title>Node22</title>
<g id="a_node23"><a xlink:href="thread__config_8h.html" target="_top" xlink:title="Thread configuration defines. ">
<polygon fill="#ffffff" stroke="#000000" points="496,-280.5 496,-299.5 586,-299.5 586,-280.5 496,-280.5"/>
<text text-anchor="middle" x="541" y="-287.5" font-family="Helvetica,sans-Serif" font-size="10.00" fill="#000000">thread_config.h</text>
</a>
</g>
</g>
<!-- Node16&#45;&gt;Node22 -->
<g id="edge39" class="edge">
<title>Node16&#45;&gt;Node22</title>
<path fill="none" stroke="#191970" d="M480.7156,-336.2455C491.602,-327.8943 507.4883,-315.7076 520.22,-305.9408"/>
<polygon fill="#191970" stroke="#191970" points="522.6261,-308.5063 528.4301,-299.6427 518.3654,-302.9523 522.6261,-308.5063"/>
</g>
<!-- Node24 -->
<g id="node25" class="node">
<title>Node24</title>
<polygon fill="#ffffff" stroke="#bfbfbf" points="358,-280.5 358,-299.5 440,-299.5 440,-280.5 358,-280.5"/>
<text text-anchor="middle" x="399" y="-287.5" font-family="Helvetica,sans-Serif" font-size="10.00" fill="#000000">thread_arch.h</text>
</g>
<!-- Node16&#45;&gt;Node24 -->
<g id="edge42" class="edge">
<title>Node16&#45;&gt;Node24</title>
<path fill="none" stroke="#191970" d="M455.9811,-336.2455C445.7902,-327.9746 430.9638,-315.9416 418.9893,-306.2232"/>
<polygon fill="#191970" stroke="#191970" points="420.8514,-303.2268 410.8812,-299.6427 416.4402,-308.662 420.8514,-303.2268"/>
</g>
<!-- Node17&#45;&gt;Node2 -->
<g id="edge25" class="edge">
<title>Node17&#45;&gt;Node2</title>
<path fill="none" stroke="#191970" d="M531.5487,-168.2734C547.9188,-153.7293 581.0037,-126.4791 614,-112 672.9941,-86.1128 747.6008,-74.391 791.9095,-69.3919"/>
<polygon fill="#191970" stroke="#191970" points="792.388,-72.8607 801.9582,-68.3153 791.6423,-65.9006 792.388,-72.8607"/>
</g>
<!-- Node17&#45;&gt;Node4 -->
<g id="edge24" class="edge">
<title>Node17&#45;&gt;Node4</title>
<path fill="none" stroke="#191970" d="M509.3295,-168.2455C499.4339,-159.9746 485.0373,-147.9416 473.4099,-138.2232"/>
<polygon fill="#191970" stroke="#191970" points="475.4542,-135.3703 465.5368,-131.6427 470.965,-140.7413 475.4542,-135.3703"/>
</g>
<!-- Node17&#45;&gt;Node15 -->
<g id="edge26" class="edge">
<title>Node17&#45;&gt;Node15</title>
<path fill="none" stroke="#191970" d="M541.8006,-168.3733C561.5774,-159.2204 591.4873,-145.3778 613.4822,-135.1983"/>
<polygon fill="#191970" stroke="#191970" points="615.0631,-138.3234 622.6683,-130.9469 612.123,-131.9707 615.0631,-138.3234"/>
</g>
<!-- Node18&#45;&gt;Node13 -->
<g id="edge28" class="edge">
<title>Node18&#45;&gt;Node13</title>
<path fill="none" stroke="#191970" d="M103.2375,-224.406C91.0873,-202.8151 65.6504,-149.3766 87,-112 95.9757,-96.2863 112.6498,-85.4034 128.2845,-78.1841"/>
<polygon fill="#191970" stroke="#191970" points="129.963,-81.2743 137.8068,-74.1521 127.2336,-74.8283 129.963,-81.2743"/>
</g>
<!-- Node19&#45;&gt;Node3 -->
<g id="edge30" class="edge">
<title>Node19&#45;&gt;Node3</title>
<path fill="none" stroke="#191970" d="M315.9067,-280.1014C314.6902,-267.1408 313.2343,-243.7471 316,-224 319.5903,-198.3654 317.7781,-189.6278 332,-168 345.8825,-146.8885 363.3626,-153.8796 376,-132 394.6185,-99.7652 397.1891,-55.2108 396.9107,-29.8251"/>
<polygon fill="#191970" stroke="#191970" points="400.4038,-29.5232 396.6297,-19.6234 393.4065,-29.716 400.4038,-29.5232"/>
</g>
<!-- Node19&#45;&gt;Node4 -->
<g id="edge31" class="edge">
<title>Node19&#45;&gt;Node4</title>
<path fill="none" stroke="#191970" d="M316.7371,-280.4925C316.6288,-258.1422 319.3898,-201.6181 348,-168 357.1654,-157.2303 388.3862,-144.3709 414.589,-134.9901"/>
<polygon fill="#191970" stroke="#191970" points="416.0496,-138.187 424.3294,-131.5767 413.7346,-131.5809 416.0496,-138.187"/>
</g>
<!-- Node19&#45;&gt;Node20 -->
<g id="edge32" class="edge">
<title>Node19&#45;&gt;Node20</title>
<path fill="none" stroke="#191970" d="M339.6062,-281.6162C364.1873,-272.5001 403.801,-257.8089 432.5326,-247.1535"/>
<polygon fill="#191970" stroke="#191970" points="434.0401,-250.3274 442.199,-243.5686 431.606,-243.7642 434.0401,-250.3274"/>
</g>
<!-- Node20&#45;&gt;Node2 -->
<g id="edge33" class="edge">
<title>Node20&#45;&gt;Node2</title>
<path fill="none" stroke="#191970" d="M469.2351,-224.1009C471.3833,-210.2981 476.9037,-185.0499 490,-168 517.558,-132.1228 532.9962,-128.8018 575,-112 648.114,-82.7538 740.4677,-71.996 791.5642,-68.1168"/>
<polygon fill="#191970" stroke="#191970" points="792.0924,-71.5882 801.8196,-67.3893 791.597,-64.6058 792.0924,-71.5882"/>
</g>
<!-- Node20&#45;&gt;Node6 -->
<g id="edge34" class="edge">
<title>Node20&#45;&gt;Node6</title>
<path fill="none" stroke="#191970" d="M489.3164,-224.3733C509.2216,-215.3838 539.1436,-201.8706 561.56,-191.7471"/>
<polygon fill="#191970" stroke="#191970" points="563.2887,-194.8068 570.9618,-187.5011 560.4075,-188.4272 563.2887,-194.8068"/>
</g>
<!-- Node20&#45;&gt;Node9 -->
<g id="edge35" class="edge">
<title>Node20&#45;&gt;Node9</title>
<path fill="none" stroke="#191970" d="M441.4043,-228.8819C394.8203,-219.9173 297.4674,-201.1827 234.7791,-189.119"/>
<polygon fill="#191970" stroke="#191970" points="235.1277,-185.6219 224.6465,-187.1691 233.8049,-192.4958 235.1277,-185.6219"/>
</g>
<!-- Node20&#45;&gt;Node17 -->
<g id="edge37" class="edge">
<title>Node20&#45;&gt;Node17</title>
<path fill="none" stroke="#191970" d="M477.2319,-224.2455C484.8317,-216.2155 495.7877,-204.6394 504.8368,-195.0781"/>
<polygon fill="#191970" stroke="#191970" points="507.5421,-197.3115 511.8739,-187.6427 502.458,-192.4998 507.5421,-197.3115"/>
</g>
<!-- Node21 -->
<g id="node22" class="node">
<title>Node21</title>
<g id="a_node22"><a xlink:href="native__sched_8h.html" target="_top" xlink:title="Add definitions required on the native board. ">
<polygon fill="#ffffff" stroke="#000000" points="357,-168.5 357,-187.5 443,-187.5 443,-168.5 357,-168.5"/>
<text text-anchor="middle" x="400" y="-175.5" font-family="Helvetica,sans-Serif" font-size="10.00" fill="#000000">native_sched.h</text>
</a>
</g>
</g>
<!-- Node20&#45;&gt;Node21 -->
<g id="edge36" class="edge">
<title>Node20&#45;&gt;Node21</title>
<path fill="none" stroke="#191970" d="M456.1553,-224.2455C446.112,-215.9746 431.5005,-203.9416 419.6996,-194.2232"/>
<polygon fill="#191970" stroke="#191970" points="421.6533,-191.298 411.709,-187.6427 417.2033,-196.7015 421.6533,-191.298"/>
</g>
<!-- Node22&#45;&gt;Node20 -->
<g id="edge41" class="edge">
<title>Node22&#45;&gt;Node20</title>
<path fill="none" stroke="#191970" d="M528.2844,-280.2455C517.398,-271.8943 501.5117,-259.7076 488.78,-249.9408"/>
<polygon fill="#191970" stroke="#191970" points="490.6346,-246.9523 480.5699,-243.6427 486.3739,-252.5063 490.6346,-246.9523"/>
</g>
<!-- Node23 -->
<g id="node24" class="node">
<title>Node23</title>
<polygon fill="#ffffff" stroke="#bfbfbf" points="512.5,-224.5 512.5,-243.5 579.5,-243.5 579.5,-224.5 512.5,-224.5"/>
<text text-anchor="middle" x="546" y="-231.5" font-family="Helvetica,sans-Serif" font-size="10.00" fill="#000000">cpu_conf.h</text>
</g>
<!-- Node22&#45;&gt;Node23 -->
<g id="edge40" class="edge">
<title>Node22&#45;&gt;Node23</title>
<path fill="none" stroke="#191970" d="M541.8709,-280.2455C542.5234,-272.9382 543.438,-262.6944 544.2407,-253.7046"/>
<polygon fill="#191970" stroke="#191970" points="547.7358,-253.9143 545.139,-243.6427 540.7635,-253.2918 547.7358,-253.9143"/>
</g>
<!-- Node26&#45;&gt;Node3 -->
<g id="edge46" class="edge">
<title>Node26&#45;&gt;Node3</title>
<path fill="none" stroke="#191970" d="M1154.1072,-336.4656C1146.2685,-327.6128 1135.0309,-313.7618 1128,-300 1114.0552,-272.7053 1108,-264.6506 1108,-234 1108,-234 1108,-234 1108,-122 1108,-69.1186 1059.0031,-73.2085 1009,-56 901.2328,-18.9122 546.5987,-11.6905 432.0357,-10.3155"/>
<polygon fill="#191970" stroke="#191970" points="432.0617,-6.8157 422.023,-10.2031 431.983,-13.8153 432.0617,-6.8157"/>
</g>
<!-- Node27 -->
<g id="node28" class="node">
<title>Node27</title>
<g id="a_node28"><a xlink:href="errno_8h.html" target="_top" xlink:title="errno.h">
<polygon fill="#ffffff" stroke="#000000" points="1136.5,-280.5 1136.5,-299.5 1189.5,-299.5 1189.5,-280.5 1136.5,-280.5"/>
<text text-anchor="middle" x="1163" y="-287.5" font-family="Helvetica,sans-Serif" font-size="10.00" fill="#000000">errno.h</text>
</a>
</g>
</g>
<!-- Node26&#45;&gt;Node27 -->
<g id="edge45" class="edge">
<title>Node26&#45;&gt;Node27</title>
<path fill="none" stroke="#191970" d="M1163,-336.2455C1163,-328.9382 1163,-318.6944 1163,-309.7046"/>
<polygon fill="#191970" stroke="#191970" points="1166.5001,-309.6426 1163,-299.6427 1159.5001,-309.6427 1166.5001,-309.6426"/>
</g>
<!-- Node28 -->
<g id="node29" class="node">
<title>Node28</title>
<polygon fill="#ffffff" stroke="#bfbfbf" points="1208,-280.5 1208,-299.5 1258,-299.5 1258,-280.5 1208,-280.5"/>
<text text-anchor="middle" x="1233" y="-287.5" font-family="Helvetica,sans-Serif" font-size="10.00" fill="#000000">stdlib.h</text>
</g>
<!-- Node26&#45;&gt;Node28 -->
<g id="edge47" class="edge">
<title>Node26&#45;&gt;Node28</title>
<path fill="none" stroke="#191970" d="M1175.1931,-336.2455C1185.6321,-327.8943 1200.8655,-315.7076 1213.074,-305.9408"/>
<polygon fill="#191970" stroke="#191970" points="1215.3244,-308.6227 1220.9467,-299.6427 1210.9515,-303.1566 1215.3244,-308.6227"/>
</g>
<!-- Node29 -->
<g id="node30" class="node">
<title>Node29</title>
<polygon fill="#ffffff" stroke="#bfbfbf" points="1276.5,-280.5 1276.5,-299.5 1345.5,-299.5 1345.5,-280.5 1276.5,-280.5"/>
<text text-anchor="middle" x="1311" y="-287.5" font-family="Helvetica,sans-Serif" font-size="10.00" fill="#000000">sys/types.h</text>
</g>
<!-- Node26&#45;&gt;Node29 -->
<g id="edge48" class="edge">
<title>Node26&#45;&gt;Node29</title>
<path fill="none" stroke="#191970" d="M1188.4421,-336.3733C1212.7326,-327.1822 1249.5208,-313.2624 1276.4543,-303.0713"/>
<polygon fill="#191970" stroke="#191970" points="1277.7757,-306.3136 1285.8899,-299.5011 1275.2984,-299.7666 1277.7757,-306.3136"/>
</g>
<!-- Node30 -->
<g id="node31" class="node">
<title>Node30</title>
<g id="a_node31"><a xlink:href="sock_8h.html" target="_top" xlink:title="Common sock API definitions. ">
<polygon fill="#ffffff" stroke="#000000" points="1000.5,-280.5 1000.5,-299.5 1065.5,-299.5 1065.5,-280.5 1000.5,-280.5"/>
<text text-anchor="middle" x="1033" y="-287.5" font-family="Helvetica,sans-Serif" font-size="10.00" fill="#000000">net/sock.h</text>
</a>
</g>
</g>
<!-- Node26&#45;&gt;Node30 -->
<g id="edge49" class="edge">
<title>Node26&#45;&gt;Node30</title>
<path fill="none" stroke="#191970" d="M1140.6522,-336.3733C1119.5967,-327.3032 1087.8505,-313.6279 1064.2825,-303.4755"/>
<polygon fill="#191970" stroke="#191970" points="1065.625,-300.243 1055.0562,-299.5011 1062.8556,-306.6719 1065.625,-300.243"/>
</g>
<!-- Node34 -->
<g id="node35" class="node">
<title>Node34</title>
<polygon fill="#ffffff" stroke="#bfbfbf" points="1364,-280.5 1364,-299.5 1440,-299.5 1440,-280.5 1364,-280.5"/>
<text text-anchor="middle" x="1402" y="-287.5" font-family="Helvetica,sans-Serif" font-size="10.00" fill="#000000">sock_types.h</text>
</g>
<!-- Node26&#45;&gt;Node34 -->
<g id="edge59" class="edge">
<title>Node26&#45;&gt;Node34</title>
<path fill="none" stroke="#191970" d="M1203.814,-336.4369C1245.3732,-326.6992 1309.7891,-311.6059 1353.8256,-301.2877"/>
<polygon fill="#191970" stroke="#191970" points="1354.787,-304.6573 1363.7248,-298.9682 1353.19,-297.8419 1354.787,-304.6573"/>
</g>
<!-- Node30&#45;&gt;Node2 -->
<g id="edge51" class="edge">
<title>Node30&#45;&gt;Node2</title>
<path fill="none" stroke="#191970" d="M1021.5984,-280.4422C1011.3827,-271.5736 996.3099,-257.7126 985,-244 959.428,-212.9954 962.7673,-197.9787 936,-168 919.1716,-149.1526 910.4672,-149.2448 892,-132 875.2529,-116.3614 857.4783,-97.1366 845.2748,-83.4782"/>
<polygon fill="#191970" stroke="#191970" points="847.7045,-80.9425 838.4552,-75.7751 842.4632,-85.5826 847.7045,-80.9425"/>
</g>
<!-- Node30&#45;&gt;Node3 -->
<g id="edge50" class="edge">
<title>Node30&#45;&gt;Node3</title>
<path fill="none" stroke="#191970" d="M1038.4595,-280.4646C1048.7516,-261.5623 1070,-217.7274 1070,-178 1070,-178 1070,-178 1070,-122 1070,-61.5213 1008.8743,-73.5569 951,-56 853.3888,-26.3884 539.6422,-14.34 432.3646,-11.0193"/>
<polygon fill="#191970" stroke="#191970" points="432.1607,-7.5117 422.0595,-10.7077 431.9491,-14.5085 432.1607,-7.5117"/>
</g>
<!-- Node31 -->
<g id="node32" class="node">
<title>Node31</title>
<g id="a_node32"><a xlink:href="iolist_8h.html" target="_top" xlink:title="iolist scatter / gather IO ">
<polygon fill="#ffffff" stroke="#000000" points="993.5,-224.5 993.5,-243.5 1040.5,-243.5 1040.5,-224.5 993.5,-224.5"/>
<text text-anchor="middle" x="1017" y="-231.5" font-family="Helvetica,sans-Serif" font-size="10.00" fill="#000000">iolist.h</text>
</a>
</g>
</g>
<!-- Node30&#45;&gt;Node31 -->
<g id="edge52" class="edge">
<title>Node30&#45;&gt;Node31</title>
<path fill="none" stroke="#191970" d="M1030.213,-280.2455C1028.1023,-272.8579 1025.134,-262.4689 1022.5453,-253.4087"/>
<polygon fill="#191970" stroke="#191970" points="1025.8677,-252.2964 1019.755,-243.6427 1019.137,-254.2195 1025.8677,-252.2964"/>
</g>
<!-- Node32 -->
<g id="node33" class="node">
<title>Node32</title>
<g id="a_node33"><a xlink:href="unistd_8h_source.html" target="_top" xlink:title="unistd.h">
<polygon fill="#ffffff" stroke="#000000" points="988,-168.5 988,-187.5 1042,-187.5 1042,-168.5 988,-168.5"/>
<text text-anchor="middle" x="1015" y="-175.5" font-family="Helvetica,sans-Serif" font-size="10.00" fill="#000000">unistd.h</text>
</a>
</g>
</g>
<!-- Node31&#45;&gt;Node32 -->
<g id="edge53" class="edge">
<title>Node31&#45;&gt;Node32</title>
<path fill="none" stroke="#191970" d="M1016.6516,-224.2455C1016.3907,-216.9382 1016.0248,-206.6944 1015.7037,-197.7046"/>
<polygon fill="#191970" stroke="#191970" points="1019.1992,-197.5113 1015.3444,-187.6427 1012.2036,-197.7613 1019.1992,-197.5113"/>
</g>
<!-- Node32&#45;&gt;Node2 -->
<g id="edge54" class="edge">
<title>Node32&#45;&gt;Node2</title>
<path fill="none" stroke="#191970" d="M994.8159,-168.4665C976.5183,-159.6143 948.9788,-145.7637 926,-132 899.4874,-116.1197 870.4231,-95.6832 851.2987,-81.7871"/>
<polygon fill="#191970" stroke="#191970" points="853.1468,-78.8025 843.0099,-75.7211 849.0127,-84.4513 853.1468,-78.8025"/>
</g>
<!-- Node32&#45;&gt;Node3 -->
<g id="edge55" class="edge">
<title>Node32&#45;&gt;Node3</title>
<path fill="none" stroke="#191970" d="M1017.6252,-168.1354C1020.6821,-154.3736 1024.0198,-129.1737 1013,-112 982.7297,-64.8255 953.9365,-71.2507 900,-56 811.7955,-31.0599 532.5761,-16.2171 432.2991,-11.5794"/>
<polygon fill="#191970" stroke="#191970" points="432.2173,-8.0721 422.0683,-11.1131 431.8985,-15.0649 432.2173,-8.0721"/>
</g>
<!-- Node33 -->
<g id="node34" class="node">
<title>Node33</title>
<g id="a_node34"><a xlink:href="cpu_2avr8__common_2avr__libc__extra_2include_2sys_2types_8h_source.html" target="_top" xlink:title="sys/types.h">
<polygon fill="#ffffff" stroke="#000000" points="934.5,-112.5 934.5,-131.5 1003.5,-131.5 1003.5,-112.5 934.5,-112.5"/>
<text text-anchor="middle" x="969" y="-119.5" font-family="Helvetica,sans-Serif" font-size="10.00" fill="#000000">sys/types.h</text>
</a>
</g>
</g>
<!-- Node32&#45;&gt;Node33 -->
<g id="edge56" class="edge">
<title>Node32&#45;&gt;Node33</title>
<path fill="none" stroke="#191970" d="M1006.9874,-168.2455C1000.5232,-160.3761 991.2615,-149.101 983.5017,-139.6542"/>
<polygon fill="#191970" stroke="#191970" points="985.9727,-137.1484 976.9208,-131.6427 980.5636,-141.5916 985.9727,-137.1484"/>
</g>
<!-- Node33&#45;&gt;Node2 -->
<g id="edge58" class="edge">
<title>Node33&#45;&gt;Node2</title>
<path fill="none" stroke="#191970" d="M945.105,-112.3733C922.4918,-103.2629 888.3458,-89.5062 863.1127,-79.3404"/>
<polygon fill="#191970" stroke="#191970" points="864.1666,-75.9917 853.5831,-75.5011 861.5507,-82.4845 864.1666,-75.9917"/>
</g>
<!-- Node33&#45;&gt;Node3 -->
<g id="edge57" class="edge">
<title>Node33&#45;&gt;Node3</title>
<path fill="none" stroke="#191970" d="M958.0286,-112.3096C940.3042,-97.29 903.6415,-68.7898 867,-56 786.7185,-27.9776 528.3386,-15.1974 432.3506,-11.3311"/>
<polygon fill="#191970" stroke="#191970" points="432.3883,-7.83 422.2582,-10.9336 432.1127,-14.8246 432.3883,-7.83"/>
</g>
</g>
</svg>
