<?xml version="1.0" encoding="UTF-8" standalone="no"?>
<!DOCTYPE svg PUBLIC "-//W3C//DTD SVG 1.1//EN"
 "http://www.w3.org/Graphics/SVG/1.1/DTD/svg11.dtd">
<!-- Generated by graphviz version 2.40.1 (0)
 -->
<!-- Title: drivers/include/pcd8544.h Pages: 1 -->
<svg width="499pt" height="196pt"
 viewBox="0.00 0.00 498.66 196.00" xmlns="http://www.w3.org/2000/svg" xmlns:xlink="http://www.w3.org/1999/xlink">
<g id="graph0" class="graph" transform="scale(1 1) rotate(0) translate(4 192)">
<title>drivers/include/pcd8544.h</title>
<polygon fill="#ffffff" stroke="transparent" points="-4,4 -4,-192 494.655,-192 494.655,4 -4,4"/>
<!-- Node0 -->
<g id="node1" class="node">
<title>Node0</title>
<polygon fill="#bfbfbf" stroke="#000000" points="193,-168.5 193,-187.5 333,-187.5 333,-168.5 193,-168.5"/>
<text text-anchor="middle" x="263" y="-175.5" font-family="Helvetica,sans-Serif" font-size="10.00" fill="#000000">drivers/include/pcd8544.h</text>
</g>
<!-- Node1 -->
<g id="node2" class="node">
<title>Node1</title>
<polygon fill="#ffffff" stroke="#bfbfbf" points="351,-.5 351,-19.5 403,-19.5 403,-.5 351,-.5"/>
<text text-anchor="middle" x="377" y="-7.5" font-family="Helvetica,sans-Serif" font-size="10.00" fill="#000000">stdint.h</text>
</g>
<!-- Node0&#45;&gt;Node1 -->
<g id="edge1" class="edge">
<title>Node0&#45;&gt;Node1</title>
<path fill="none" stroke="#191970" d="M324.6374,-168.4834C377.5454,-156.7039 450.6856,-130.9859 486,-76 506.1923,-44.5598 452.289,-25.8761 413.2751,-16.8024"/>
<polygon fill="#191970" stroke="#191970" points="413.7542,-13.3243 403.2362,-14.5978 412.2527,-20.1614 413.7542,-13.3243"/>
</g>
<!-- Node2 -->
<g id="node3" class="node">
<title>Node2</title>
<g id="a_node3"><a xlink:href="drivers_2include_2periph_2gpio_8h.html" target="_top" xlink:title="Low&#45;level GPIO peripheral driver interface definitions. ">
<polygon fill="#ffffff" stroke="#000000" points="62,-56.5 62,-75.5 142,-75.5 142,-56.5 62,-56.5"/>
<text text-anchor="middle" x="102" y="-63.5" font-family="Helvetica,sans-Serif" font-size="10.00" fill="#000000">periph/gpio.h</text>
</a>
</g>
</g>
<!-- Node0&#45;&gt;Node2 -->
<g id="edge2" class="edge">
<title>Node0&#45;&gt;Node2</title>
<path fill="none" stroke="#191970" d="M249.2732,-168.4509C221.351,-149.0268 157.7324,-104.7703 123.9786,-81.2895"/>
<polygon fill="#191970" stroke="#191970" points="125.8998,-78.3624 115.692,-75.5249 121.9024,-84.1087 125.8998,-78.3624"/>
</g>
<!-- Node7 -->
<g id="node8" class="node">
<title>Node7</title>
<g id="a_node8"><a xlink:href="spi_8h.html" target="_top" xlink:title="Low&#45;level SPI peripheral driver interface definition. ">
<polygon fill="#ffffff" stroke="#000000" points="226.5,-112.5 226.5,-131.5 299.5,-131.5 299.5,-112.5 226.5,-112.5"/>
<text text-anchor="middle" x="263" y="-119.5" font-family="Helvetica,sans-Serif" font-size="10.00" fill="#000000">periph/spi.h</text>
</a>
</g>
</g>
<!-- Node0&#45;&gt;Node7 -->
<g id="edge7" class="edge">
<title>Node0&#45;&gt;Node7</title>
<path fill="none" stroke="#191970" d="M263,-168.2455C263,-160.9382 263,-150.6944 263,-141.7046"/>
<polygon fill="#191970" stroke="#191970" points="266.5001,-141.6426 263,-131.6427 259.5001,-141.6427 266.5001,-141.6426"/>
</g>
<!-- Node3 -->
<g id="node4" class="node">
<title>Node3</title>
<polygon fill="#ffffff" stroke="#bfbfbf" points="78,-.5 78,-19.5 128,-19.5 128,-.5 78,-.5"/>
<text text-anchor="middle" x="103" y="-7.5" font-family="Helvetica,sans-Serif" font-size="10.00" fill="#000000">limits.h</text>
</g>
<!-- Node2&#45;&gt;Node3 -->
<g id="edge3" class="edge">
<title>Node2&#45;&gt;Node3</title>
<path fill="none" stroke="#191970" d="M102.1742,-56.2455C102.3047,-48.9382 102.4876,-38.6944 102.6481,-29.7046"/>
<polygon fill="#191970" stroke="#191970" points="106.1486,-29.7036 102.8278,-19.6427 99.1497,-29.5786 106.1486,-29.7036"/>
</g>
<!-- Node4 -->
<g id="node5" class="node">
<title>Node4</title>
<polygon fill="#ffffff" stroke="#bfbfbf" points="0,-.5 0,-19.5 60,-19.5 60,-.5 0,-.5"/>
<text text-anchor="middle" x="30" y="-7.5" font-family="Helvetica,sans-Serif" font-size="10.00" fill="#000000">stdbool.h</text>
</g>
<!-- Node2&#45;&gt;Node4 -->
<g id="edge4" class="edge">
<title>Node2&#45;&gt;Node4</title>
<path fill="none" stroke="#191970" d="M89.4586,-56.2455C78.7213,-47.8943 63.0527,-35.7076 50.4953,-25.9408"/>
<polygon fill="#191970" stroke="#191970" points="52.4401,-23.0194 42.3977,-19.6427 48.1425,-28.5449 52.4401,-23.0194"/>
</g>
<!-- Node5 -->
<g id="node6" class="node">
<title>Node5</title>
<polygon fill="#ffffff" stroke="#bfbfbf" points="146.5,-.5 146.5,-19.5 223.5,-19.5 223.5,-.5 146.5,-.5"/>
<text text-anchor="middle" x="185" y="-7.5" font-family="Helvetica,sans-Serif" font-size="10.00" fill="#000000">periph_cpu.h</text>
</g>
<!-- Node2&#45;&gt;Node5 -->
<g id="edge5" class="edge">
<title>Node2&#45;&gt;Node5</title>
<path fill="none" stroke="#191970" d="M116.4575,-56.2455C129.0732,-47.7337 147.5944,-35.2375 162.2045,-25.3801"/>
<polygon fill="#191970" stroke="#191970" points="164.3761,-28.1371 170.7082,-19.6427 160.4609,-22.3343 164.3761,-28.1371"/>
</g>
<!-- Node6 -->
<g id="node7" class="node">
<title>Node6</title>
<polygon fill="#ffffff" stroke="#bfbfbf" points="241.5,-.5 241.5,-19.5 322.5,-19.5 322.5,-.5 241.5,-.5"/>
<text text-anchor="middle" x="282" y="-7.5" font-family="Helvetica,sans-Serif" font-size="10.00" fill="#000000">periph_conf.h</text>
</g>
<!-- Node2&#45;&gt;Node6 -->
<g id="edge6" class="edge">
<title>Node2&#45;&gt;Node6</title>
<path fill="none" stroke="#191970" d="M132.9431,-56.3733C163.0039,-47.021 208.8026,-32.7725 241.6978,-22.5385"/>
<polygon fill="#191970" stroke="#191970" points="242.9519,-25.8139 251.4607,-19.5011 240.8723,-19.1299 242.9519,-25.8139"/>
</g>
<!-- Node7&#45;&gt;Node1 -->
<g id="edge13" class="edge">
<title>Node7&#45;&gt;Node1</title>
<path fill="none" stroke="#191970" d="M272.7196,-112.4509C292.0699,-93.4401 335.6319,-50.6423 359.8837,-26.816"/>
<polygon fill="#191970" stroke="#191970" points="362.6245,-29.0298 367.305,-19.5249 357.7187,-24.0364 362.6245,-29.0298"/>
</g>
<!-- Node7&#45;&gt;Node2 -->
<g id="edge16" class="edge">
<title>Node7&#45;&gt;Node2</title>
<path fill="none" stroke="#191970" d="M235.3231,-112.3733C208.6672,-103.1016 168.1762,-89.0178 138.8116,-78.804"/>
<polygon fill="#191970" stroke="#191970" points="139.9105,-75.4807 129.3157,-75.5011 137.6109,-82.0921 139.9105,-75.4807"/>
</g>
<!-- Node7&#45;&gt;Node4 -->
<g id="edge11" class="edge">
<title>Node7&#45;&gt;Node4</title>
<path fill="none" stroke="#191970" d="M226.4346,-118.2904C173.3067,-112.2033 78.3395,-98.4748 53,-76 39.8342,-64.3226 34.204,-44.6934 31.7968,-29.8701"/>
<polygon fill="#191970" stroke="#191970" points="35.2359,-29.1666 30.5128,-19.6827 28.2909,-30.042 35.2359,-29.1666"/>
</g>
<!-- Node7&#45;&gt;Node5 -->
<g id="edge14" class="edge">
<title>Node7&#45;&gt;Node5</title>
<path fill="none" stroke="#191970" d="M258.1426,-112.2447C251.4005,-99.0402 238.5034,-74.9518 225,-56 217.9069,-46.0449 209.072,-35.7092 201.5108,-27.3627"/>
<polygon fill="#191970" stroke="#191970" points="203.8453,-24.7321 194.4859,-19.767 198.7062,-29.485 203.8453,-24.7321"/>
</g>
<!-- Node7&#45;&gt;Node6 -->
<g id="edge15" class="edge">
<title>Node7&#45;&gt;Node6</title>
<path fill="none" stroke="#191970" d="M264.6199,-112.4509C267.7188,-94.184 274.5433,-53.9553 278.6584,-29.6976"/>
<polygon fill="#191970" stroke="#191970" points="282.1623,-29.9694 280.3842,-19.5249 275.2609,-28.7986 282.1623,-29.9694"/>
</g>
<!-- Node8 -->
<g id="node9" class="node">
<title>Node8</title>
<g id="a_node9"><a xlink:href="endian_8h.html" target="_top" xlink:title="libc header for endian conversion ">
<polygon fill="#ffffff" stroke="#000000" points="348.5,-56.5 348.5,-75.5 405.5,-75.5 405.5,-56.5 348.5,-56.5"/>
<text text-anchor="middle" x="377" y="-63.5" font-family="Helvetica,sans-Serif" font-size="10.00" fill="#000000">endian.h</text>
</a>
</g>
</g>
<!-- Node7&#45;&gt;Node8 -->
<g id="edge8" class="edge">
<title>Node7&#45;&gt;Node8</title>
<path fill="none" stroke="#191970" d="M282.5973,-112.3733C300.7331,-103.4644 327.9135,-90.1127 348.4587,-80.0203"/>
<polygon fill="#191970" stroke="#191970" points="350.2261,-83.0517 357.6584,-75.5011 347.1397,-76.7688 350.2261,-83.0517"/>
</g>
<!-- Node9 -->
<g id="node10" class="node">
<title>Node9</title>
<g id="a_node10"><a xlink:href="errno_8h.html" target="_top" xlink:title="errno.h">
<polygon fill="#ffffff" stroke="#000000" points="423.5,-56.5 423.5,-75.5 476.5,-75.5 476.5,-56.5 423.5,-56.5"/>
<text text-anchor="middle" x="450" y="-63.5" font-family="Helvetica,sans-Serif" font-size="10.00" fill="#000000">errno.h</text>
</a>
</g>
</g>
<!-- Node7&#45;&gt;Node9 -->
<g id="edge10" class="edge">
<title>Node7&#45;&gt;Node9</title>
<path fill="none" stroke="#191970" d="M295.1464,-112.3733C328.1267,-102.4968 379.3409,-87.16 413.7451,-76.8571"/>
<polygon fill="#191970" stroke="#191970" points="414.8328,-80.185 423.4084,-73.9633 412.8246,-73.4792 414.8328,-80.185"/>
</g>
<!-- Node10 -->
<g id="node11" class="node">
<title>Node10</title>
<polygon fill="#ffffff" stroke="#bfbfbf" points="160,-56.5 160,-75.5 216,-75.5 216,-56.5 160,-56.5"/>
<text text-anchor="middle" x="188" y="-63.5" font-family="Helvetica,sans-Serif" font-size="10.00" fill="#000000">stddef.h</text>
</g>
<!-- Node7&#45;&gt;Node10 -->
<g id="edge12" class="edge">
<title>Node7&#45;&gt;Node10</title>
<path fill="none" stroke="#191970" d="M249.936,-112.2455C238.6438,-103.814 222.1155,-91.4729 208.9729,-81.6598"/>
<polygon fill="#191970" stroke="#191970" points="211.0211,-78.8211 200.9143,-75.6427 206.8331,-84.4301 211.0211,-78.8211"/>
</g>
<!-- Node8&#45;&gt;Node1 -->
<g id="edge9" class="edge">
<title>Node8&#45;&gt;Node1</title>
<path fill="none" stroke="#191970" d="M377,-56.2455C377,-48.9382 377,-38.6944 377,-29.7046"/>
<polygon fill="#191970" stroke="#191970" points="380.5001,-29.6426 377,-19.6427 373.5001,-29.6427 380.5001,-29.6426"/>
</g>
</g>
</svg>
