<?xml version="1.0" encoding="UTF-8" standalone="no"?>
<!DOCTYPE svg PUBLIC "-//W3C//DTD SVG 1.1//EN"
 "http://www.w3.org/Graphics/SVG/1.1/DTD/svg11.dtd">
<!-- Generated by graphviz version 2.40.1 (0)
 -->
<!-- Title: drivers/include/pcf857x.h Pages: 1 -->
<svg width="914pt" height="252pt"
 viewBox="0.00 0.00 914.00 252.00" xmlns="http://www.w3.org/2000/svg" xmlns:xlink="http://www.w3.org/1999/xlink">
<g id="graph0" class="graph" transform="scale(1 1) rotate(0) translate(4 248)">
<title>drivers/include/pcf857x.h</title>
<polygon fill="#ffffff" stroke="transparent" points="-4,4 -4,-248 910,-248 910,4 -4,4"/>
<!-- Node0 -->
<g id="node1" class="node">
<title>Node0</title>
<polygon fill="#bfbfbf" stroke="#000000" points="274,-224.5 274,-243.5 411,-243.5 411,-224.5 274,-224.5"/>
<text text-anchor="middle" x="342.5" y="-231.5" font-family="Helvetica,sans-Serif" font-size="10.00" fill="#000000">drivers/include/pcf857x.h</text>
</g>
<!-- Node1 -->
<g id="node2" class="node">
<title>Node1</title>
<g id="a_node2"><a xlink:href="errno_8h.html" target="_top" xlink:title="errno.h">
<polygon fill="#ffffff" stroke="#000000" points="0,-168.5 0,-187.5 53,-187.5 53,-168.5 0,-168.5"/>
<text text-anchor="middle" x="26.5" y="-175.5" font-family="Helvetica,sans-Serif" font-size="10.00" fill="#000000">errno.h</text>
</a>
</g>
</g>
<!-- Node0&#45;&gt;Node1 -->
<g id="edge1" class="edge">
<title>Node0&#45;&gt;Node1</title>
<path fill="none" stroke="#191970" d="M277.2412,-224.4666C221.3631,-215.9737 138.8632,-202.6508 67.5,-188 66.0646,-187.7053 64.6032,-187.3956 63.1287,-187.0751"/>
<polygon fill="#191970" stroke="#191970" points="63.8701,-183.6544 53.3426,-184.8462 62.3156,-190.4796 63.8701,-183.6544"/>
</g>
<!-- Node2 -->
<g id="node3" class="node">
<title>Node2</title>
<polygon fill="#ffffff" stroke="#bfbfbf" points="23.5,-56.5 23.5,-75.5 83.5,-75.5 83.5,-56.5 23.5,-56.5"/>
<text text-anchor="middle" x="53.5" y="-63.5" font-family="Helvetica,sans-Serif" font-size="10.00" fill="#000000">stdbool.h</text>
</g>
<!-- Node0&#45;&gt;Node2 -->
<g id="edge2" class="edge">
<title>Node0&#45;&gt;Node2</title>
<path fill="none" stroke="#191970" d="M296.4647,-224.3924C243.6875,-211.3495 157.1789,-183.5225 100.5,-132 85.4461,-118.3156 72.4009,-99.0285 63.8993,-84.8366"/>
<polygon fill="#191970" stroke="#191970" points="66.803,-82.8659 58.7707,-75.9569 60.7414,-86.3669 66.803,-82.8659"/>
</g>
<!-- Node3 -->
<g id="node4" class="node">
<title>Node3</title>
<polygon fill="#ffffff" stroke="#bfbfbf" points="563.5,-.5 563.5,-19.5 615.5,-19.5 615.5,-.5 563.5,-.5"/>
<text text-anchor="middle" x="589.5" y="-7.5" font-family="Helvetica,sans-Serif" font-size="10.00" fill="#000000">stdint.h</text>
</g>
<!-- Node0&#45;&gt;Node3 -->
<g id="edge3" class="edge">
<title>Node0&#45;&gt;Node3</title>
<path fill="none" stroke="#191970" d="M411.0257,-230.2627C529.365,-222.0953 763.447,-197.8009 805.5,-132 817.5004,-113.2228 805.3127,-69.5247 791.5,-56 768.2986,-33.2825 677.3371,-19.7274 625.7418,-13.7112"/>
<polygon fill="#191970" stroke="#191970" points="626.0032,-10.2186 615.6737,-12.5746 625.2179,-17.1744 626.0032,-10.2186"/>
</g>
<!-- Node4 -->
<g id="node5" class="node">
<title>Node4</title>
<g id="a_node5"><a xlink:href="kernel__defines_8h.html" target="_top" xlink:title="Common macros and compiler attributes/pragmas configuration. ">
<polygon fill="#ffffff" stroke="#000000" points="580,-168.5 580,-187.5 675,-187.5 675,-168.5 580,-168.5"/>
<text text-anchor="middle" x="627.5" y="-175.5" font-family="Helvetica,sans-Serif" font-size="10.00" fill="#000000">kernel_defines.h</text>
</a>
</g>
</g>
<!-- Node0&#45;&gt;Node4 -->
<g id="edge4" class="edge">
<title>Node0&#45;&gt;Node4</title>
<path fill="none" stroke="#191970" d="M391.1694,-224.4369C440.756,-214.6936 517.63,-199.5885 570.1443,-189.2699"/>
<polygon fill="#191970" stroke="#191970" points="570.8429,-192.6996 579.9804,-187.3372 569.4932,-185.831 570.8429,-192.6996"/>
</g>
<!-- Node11 -->
<g id="node12" class="node">
<title>Node11</title>
<g id="a_node12"><a xlink:href="drivers_2include_2periph_2gpio_8h.html" target="_top" xlink:title="Low&#45;level GPIO peripheral driver interface definitions. ">
<polygon fill="#ffffff" stroke="#000000" points="109.5,-112.5 109.5,-131.5 189.5,-131.5 189.5,-112.5 109.5,-112.5"/>
<text text-anchor="middle" x="149.5" y="-119.5" font-family="Helvetica,sans-Serif" font-size="10.00" fill="#000000">periph/gpio.h</text>
</a>
</g>
</g>
<!-- Node0&#45;&gt;Node11 -->
<g id="edge15" class="edge">
<title>Node0&#45;&gt;Node11</title>
<path fill="none" stroke="#191970" d="M312.0633,-224.4343C288.6209,-216.4097 255.8711,-203.7431 229.5,-188 205.8026,-173.8531 181.8025,-152.9858 166.3579,-138.5175"/>
<polygon fill="#191970" stroke="#191970" points="168.7606,-135.9725 159.1081,-131.6044 163.9298,-141.0385 168.7606,-135.9725"/>
</g>
<!-- Node15 -->
<g id="node16" class="node">
<title>Node15</title>
<g id="a_node16"><a xlink:href="i2c_8h.html" target="_top" xlink:title="Low&#45;level I2C peripheral driver interface definition. ">
<polygon fill="#ffffff" stroke="#000000" points="403,-112.5 403,-131.5 476,-131.5 476,-112.5 403,-112.5"/>
<text text-anchor="middle" x="439.5" y="-119.5" font-family="Helvetica,sans-Serif" font-size="10.00" fill="#000000">periph/i2c.h</text>
</a>
</g>
</g>
<!-- Node0&#45;&gt;Node15 -->
<g id="edge20" class="edge">
<title>Node0&#45;&gt;Node15</title>
<path fill="none" stroke="#191970" d="M350.7702,-224.4509C367.1634,-205.5227 403.9789,-163.014 424.666,-139.1279"/>
<polygon fill="#191970" stroke="#191970" points="427.3497,-141.3754 431.2508,-131.5249 422.0583,-136.7927 427.3497,-141.3754"/>
</g>
<!-- Node16 -->
<g id="node17" class="node">
<title>Node16</title>
<g id="a_node17"><a xlink:href="periph_8h.html" target="_top" xlink:title="Parameter definitions for mapping peripherals directly to SAUL. ">
<polygon fill="#ffffff" stroke="#000000" points="238.5,-168.5 238.5,-187.5 316.5,-187.5 316.5,-168.5 238.5,-168.5"/>
<text text-anchor="middle" x="277.5" y="-175.5" font-family="Helvetica,sans-Serif" font-size="10.00" fill="#000000">saul/periph.h</text>
</a>
</g>
</g>
<!-- Node0&#45;&gt;Node16 -->
<g id="edge26" class="edge">
<title>Node0&#45;&gt;Node16</title>
<path fill="none" stroke="#191970" d="M331.1779,-224.2455C321.5777,-215.9746 307.6108,-203.9416 296.3305,-194.2232"/>
<polygon fill="#191970" stroke="#191970" points="298.553,-191.5182 288.6924,-187.6427 293.984,-196.8214 298.553,-191.5182"/>
</g>
<!-- Node19 -->
<g id="node20" class="node">
<title>Node19</title>
<polygon fill="#ffffff" stroke="#bfbfbf" points="853,-168.5 853,-187.5 906,-187.5 906,-168.5 853,-168.5"/>
<text text-anchor="middle" x="879.5" y="-175.5" font-family="Helvetica,sans-Serif" font-size="10.00" fill="#000000">event.h</text>
</g>
<!-- Node0&#45;&gt;Node19 -->
<g id="edge38" class="edge">
<title>Node0&#45;&gt;Node19</title>
<path fill="none" stroke="#191970" d="M411.1053,-230.8255C507.2006,-225.6565 687.1033,-213.3426 838.5,-188 839.9452,-187.7581 841.4149,-187.4929 842.8963,-187.2096"/>
<polygon fill="#191970" stroke="#191970" points="843.6527,-190.6272 852.7105,-185.1311 842.2023,-183.7791 843.6527,-190.6272"/>
</g>
<!-- Node5 -->
<g id="node6" class="node">
<title>Node5</title>
<g id="a_node6"><a xlink:href="modules_8h.html" target="_top" xlink:title="Common macros and compiler attributes/pragmas configuration. ">
<polygon fill="#ffffff" stroke="#000000" points="731,-112.5 731,-131.5 796,-131.5 796,-112.5 731,-112.5"/>
<text text-anchor="middle" x="763.5" y="-119.5" font-family="Helvetica,sans-Serif" font-size="10.00" fill="#000000">modules.h</text>
</a>
</g>
</g>
<!-- Node4&#45;&gt;Node5 -->
<g id="edge5" class="edge">
<title>Node4&#45;&gt;Node5</title>
<path fill="none" stroke="#191970" d="M650.8792,-168.3733C673.0045,-159.2629 706.4134,-145.5062 731.1019,-135.3404"/>
<polygon fill="#191970" stroke="#191970" points="732.5117,-138.5451 740.4258,-131.5011 729.8464,-132.0723 732.5117,-138.5451"/>
</g>
<!-- Node6 -->
<g id="node7" class="node">
<title>Node6</title>
<g id="a_node7"><a xlink:href="riot__version_8h.html" target="_top" xlink:title="Common macros and compiler attributes/pragmas configuration. ">
<polygon fill="#ffffff" stroke="#000000" points="701,-56.5 701,-75.5 782,-75.5 782,-56.5 701,-56.5"/>
<text text-anchor="middle" x="741.5" y="-63.5" font-family="Helvetica,sans-Serif" font-size="10.00" fill="#000000">riot_version.h</text>
</a>
</g>
</g>
<!-- Node4&#45;&gt;Node6 -->
<g id="edge6" class="edge">
<title>Node4&#45;&gt;Node6</title>
<path fill="none" stroke="#191970" d="M640.4532,-168.327C652.1368,-159.3809 669.573,-145.4708 683.5,-132 699.3298,-116.6888 715.752,-97.6558 727.0636,-83.9688"/>
<polygon fill="#191970" stroke="#191970" points="730.0878,-85.7989 733.7013,-75.8393 724.6656,-81.3716 730.0878,-85.7989"/>
</g>
<!-- Node7 -->
<g id="node8" class="node">
<title>Node7</title>
<g id="a_node8"><a xlink:href="compiler__hints_8h.html" target="_top" xlink:title="Common macros and compiler attributes/pragmas configuration. ">
<polygon fill="#ffffff" stroke="#000000" points="581,-112.5 581,-131.5 674,-131.5 674,-112.5 581,-112.5"/>
<text text-anchor="middle" x="627.5" y="-119.5" font-family="Helvetica,sans-Serif" font-size="10.00" fill="#000000">compiler_hints.h</text>
</a>
</g>
</g>
<!-- Node4&#45;&gt;Node7 -->
<g id="edge8" class="edge">
<title>Node4&#45;&gt;Node7</title>
<path fill="none" stroke="#191970" d="M627.5,-168.2455C627.5,-160.9382 627.5,-150.6944 627.5,-141.7046"/>
<polygon fill="#191970" stroke="#191970" points="631.0001,-141.6426 627.5,-131.6427 624.0001,-141.6427 631.0001,-141.6426"/>
</g>
<!-- Node9 -->
<g id="node10" class="node">
<title>Node9</title>
<g id="a_node10"><a xlink:href="container_8h.html" target="_top" xlink:title="Common macros and compiler attributes/pragmas configuration. ">
<polygon fill="#ffffff" stroke="#000000" points="494,-112.5 494,-131.5 563,-131.5 563,-112.5 494,-112.5"/>
<text text-anchor="middle" x="528.5" y="-119.5" font-family="Helvetica,sans-Serif" font-size="10.00" fill="#000000">container.h</text>
</a>
</g>
</g>
<!-- Node4&#45;&gt;Node9 -->
<g id="edge12" class="edge">
<title>Node4&#45;&gt;Node9</title>
<path fill="none" stroke="#191970" d="M610.2555,-168.2455C594.9239,-159.5731 572.2801,-146.7645 554.7084,-136.825"/>
<polygon fill="#191970" stroke="#191970" points="555.9741,-133.5198 545.5469,-131.6427 552.5276,-139.6126 555.9741,-133.5198"/>
</g>
<!-- Node6&#45;&gt;Node3 -->
<g id="edge7" class="edge">
<title>Node6&#45;&gt;Node3</title>
<path fill="none" stroke="#191970" d="M715.3703,-56.3733C690.4232,-47.1822 652.6408,-33.2624 624.9794,-23.0713"/>
<polygon fill="#191970" stroke="#191970" points="625.8822,-19.674 615.2888,-19.5011 623.4622,-26.2424 625.8822,-19.674"/>
</g>
<!-- Node7&#45;&gt;Node3 -->
<g id="edge11" class="edge">
<title>Node7&#45;&gt;Node3</title>
<path fill="none" stroke="#191970" d="M636.4276,-112.343C647.392,-99.2499 663.3897,-75.2874 653.5,-56 646.567,-42.4789 633.6064,-32.0326 621.1519,-24.5377"/>
<polygon fill="#191970" stroke="#191970" points="622.7072,-21.3979 612.266,-19.6001 619.3072,-27.5168 622.7072,-21.3979"/>
</g>
<!-- Node8 -->
<g id="node9" class="node">
<title>Node8</title>
<g id="a_node9"><a xlink:href="assert_8h.html" target="_top" xlink:title="POSIX.1&#45;2008 compliant version of the assert macro. ">
<polygon fill="#ffffff" stroke="#000000" points="590.5,-56.5 590.5,-75.5 644.5,-75.5 644.5,-56.5 590.5,-56.5"/>
<text text-anchor="middle" x="617.5" y="-63.5" font-family="Helvetica,sans-Serif" font-size="10.00" fill="#000000">assert.h</text>
</a>
</g>
</g>
<!-- Node7&#45;&gt;Node8 -->
<g id="edge9" class="edge">
<title>Node7&#45;&gt;Node8</title>
<path fill="none" stroke="#191970" d="M625.7581,-112.2455C624.4533,-104.9382 622.624,-94.6944 621.0187,-85.7046"/>
<polygon fill="#191970" stroke="#191970" points="624.4254,-84.8717 619.2219,-75.6427 617.5344,-86.1022 624.4254,-84.8717"/>
</g>
<!-- Node8&#45;&gt;Node3 -->
<g id="edge10" class="edge">
<title>Node8&#45;&gt;Node3</title>
<path fill="none" stroke="#191970" d="M612.6228,-56.2455C608.8487,-48.6973 603.5079,-38.0158 598.9099,-28.8197"/>
<polygon fill="#191970" stroke="#191970" points="601.924,-27.0217 594.3213,-19.6427 595.663,-30.1522 601.924,-27.0217"/>
</g>
<!-- Node9&#45;&gt;Node3 -->
<g id="edge14" class="edge">
<title>Node9&#45;&gt;Node3</title>
<path fill="none" stroke="#191970" d="M533.7008,-112.4509C543.8299,-93.8533 566.3571,-52.4919 579.4805,-28.3964"/>
<polygon fill="#191970" stroke="#191970" points="582.6029,-29.9809 584.3123,-19.5249 576.4556,-26.6328 582.6029,-29.9809"/>
</g>
<!-- Node10 -->
<g id="node11" class="node">
<title>Node10</title>
<polygon fill="#ffffff" stroke="#bfbfbf" points="478.5,-56.5 478.5,-75.5 534.5,-75.5 534.5,-56.5 478.5,-56.5"/>
<text text-anchor="middle" x="506.5" y="-63.5" font-family="Helvetica,sans-Serif" font-size="10.00" fill="#000000">stddef.h</text>
</g>
<!-- Node9&#45;&gt;Node10 -->
<g id="edge13" class="edge">
<title>Node9&#45;&gt;Node10</title>
<path fill="none" stroke="#191970" d="M524.6679,-112.2455C521.7341,-104.7776 517.5953,-94.2427 514.009,-85.1137"/>
<polygon fill="#191970" stroke="#191970" points="517.2024,-83.6704 510.2882,-75.6427 510.6871,-86.23 517.2024,-83.6704"/>
</g>
<!-- Node11&#45;&gt;Node2 -->
<g id="edge17" class="edge">
<title>Node11&#45;&gt;Node2</title>
<path fill="none" stroke="#191970" d="M132.7781,-112.2455C117.9111,-103.5731 95.9534,-90.7645 78.9142,-80.825"/>
<polygon fill="#191970" stroke="#191970" points="80.4317,-77.6582 70.0303,-75.6427 76.9045,-83.7047 80.4317,-77.6582"/>
</g>
<!-- Node12 -->
<g id="node13" class="node">
<title>Node12</title>
<polygon fill="#ffffff" stroke="#bfbfbf" points="334.5,-56.5 334.5,-75.5 384.5,-75.5 384.5,-56.5 334.5,-56.5"/>
<text text-anchor="middle" x="359.5" y="-63.5" font-family="Helvetica,sans-Serif" font-size="10.00" fill="#000000">limits.h</text>
</g>
<!-- Node11&#45;&gt;Node12 -->
<g id="edge16" class="edge">
<title>Node11&#45;&gt;Node12</title>
<path fill="none" stroke="#191970" d="M187.3547,-112.4605C220.9653,-103.9117 271.6525,-90.8278 324.4034,-76.2507"/>
<polygon fill="#191970" stroke="#191970" points="325.5732,-79.5584 334.2735,-73.5123 323.7017,-72.8133 325.5732,-79.5584"/>
</g>
<!-- Node13 -->
<g id="node14" class="node">
<title>Node13</title>
<polygon fill="#ffffff" stroke="#bfbfbf" points="140,-56.5 140,-75.5 217,-75.5 217,-56.5 140,-56.5"/>
<text text-anchor="middle" x="178.5" y="-63.5" font-family="Helvetica,sans-Serif" font-size="10.00" fill="#000000">periph_cpu.h</text>
</g>
<!-- Node11&#45;&gt;Node13 -->
<g id="edge18" class="edge">
<title>Node11&#45;&gt;Node13</title>
<path fill="none" stroke="#191970" d="M154.5514,-112.2455C158.5019,-104.617 164.1097,-93.7881 168.9058,-84.5267"/>
<polygon fill="#191970" stroke="#191970" points="172.0159,-86.1321 173.5065,-75.6427 165.7999,-82.9131 172.0159,-86.1321"/>
</g>
<!-- Node14 -->
<g id="node15" class="node">
<title>Node14</title>
<polygon fill="#ffffff" stroke="#bfbfbf" points="235,-56.5 235,-75.5 316,-75.5 316,-56.5 235,-56.5"/>
<text text-anchor="middle" x="275.5" y="-63.5" font-family="Helvetica,sans-Serif" font-size="10.00" fill="#000000">periph_conf.h</text>
</g>
<!-- Node11&#45;&gt;Node14 -->
<g id="edge19" class="edge">
<title>Node11&#45;&gt;Node14</title>
<path fill="none" stroke="#191970" d="M171.1602,-112.3733C191.4772,-103.3435 222.064,-89.7494 244.875,-79.6111"/>
<polygon fill="#191970" stroke="#191970" points="246.4059,-82.7609 254.1225,-75.5011 243.5628,-76.3642 246.4059,-82.7609"/>
</g>
<!-- Node15&#45;&gt;Node3 -->
<g id="edge21" class="edge">
<title>Node15&#45;&gt;Node3</title>
<path fill="none" stroke="#191970" d="M441.5001,-112.1087C444.8729,-97.8489 453.0022,-71.5276 469.5,-56 492.736,-34.1305 527.4616,-22.3396 553.5875,-16.1918"/>
<polygon fill="#191970" stroke="#191970" points="554.4659,-19.5826 563.4901,-14.0315 552.9738,-12.7434 554.4659,-19.5826"/>
</g>
<!-- Node15&#45;&gt;Node10 -->
<g id="edge22" class="edge">
<title>Node15&#45;&gt;Node10</title>
<path fill="none" stroke="#191970" d="M451.1705,-112.2455C461.0661,-103.9746 475.4627,-91.9416 487.0901,-82.2232"/>
<polygon fill="#191970" stroke="#191970" points="489.535,-84.7413 494.9632,-75.6427 485.0458,-79.3703 489.535,-84.7413"/>
</g>
<!-- Node15&#45;&gt;Node12 -->
<g id="edge23" class="edge">
<title>Node15&#45;&gt;Node12</title>
<path fill="none" stroke="#191970" d="M425.5651,-112.2455C413.4053,-103.7337 395.5536,-91.2375 381.4715,-81.3801"/>
<polygon fill="#191970" stroke="#191970" points="383.4747,-78.51 373.2752,-75.6427 379.4605,-84.2447 383.4747,-78.51"/>
</g>
<!-- Node15&#45;&gt;Node13 -->
<g id="edge25" class="edge">
<title>Node15&#45;&gt;Node13</title>
<path fill="none" stroke="#191970" d="M402.6689,-113.7875C399.9052,-113.1798 397.1588,-112.5785 394.5,-112 386.2932,-110.2143 288.1036,-89.3176 226.9719,-76.3114"/>
<polygon fill="#191970" stroke="#191970" points="227.6382,-72.8749 217.1287,-74.2172 226.1815,-79.7216 227.6382,-72.8749"/>
</g>
<!-- Node15&#45;&gt;Node14 -->
<g id="edge24" class="edge">
<title>Node15&#45;&gt;Node14</title>
<path fill="none" stroke="#191970" d="M411.3074,-112.3733C384.1547,-103.1016 342.9093,-89.0178 312.9975,-78.804"/>
<polygon fill="#191970" stroke="#191970" points="313.9192,-75.4204 303.3247,-75.5011 311.6572,-82.0449 313.9192,-75.4204"/>
</g>
<!-- Node16&#45;&gt;Node11 -->
<g id="edge27" class="edge">
<title>Node16&#45;&gt;Node11</title>
<path fill="none" stroke="#191970" d="M255.496,-168.3733C234.8565,-159.3435 203.7842,-145.7494 180.6111,-135.6111"/>
<polygon fill="#191970" stroke="#191970" points="181.7813,-132.3028 171.2169,-131.5011 178.9755,-138.7159 181.7813,-132.3028"/>
</g>
<!-- Node17 -->
<g id="node18" class="node">
<title>Node17</title>
<g id="a_node18"><a xlink:href="adc_8h.html" target="_top" xlink:title="Low&#45;level ADC peripheral driver interface definitions. ">
<polygon fill="#ffffff" stroke="#000000" points="207.5,-112.5 207.5,-131.5 283.5,-131.5 283.5,-112.5 207.5,-112.5"/>
<text text-anchor="middle" x="245.5" y="-119.5" font-family="Helvetica,sans-Serif" font-size="10.00" fill="#000000">periph/adc.h</text>
</a>
</g>
</g>
<!-- Node16&#45;&gt;Node17 -->
<g id="edge28" class="edge">
<title>Node16&#45;&gt;Node17</title>
<path fill="none" stroke="#191970" d="M271.926,-168.2455C267.5669,-160.617 261.3789,-149.7881 256.0867,-140.5267"/>
<polygon fill="#191970" stroke="#191970" points="259.0104,-138.5886 251.0101,-131.6427 252.9327,-142.0616 259.0104,-138.5886"/>
</g>
<!-- Node18 -->
<g id="node19" class="node">
<title>Node18</title>
<g id="a_node19"><a xlink:href="pwm_8h.html" target="_top" xlink:title="Low&#45;level PWM peripheral driver interface definitions. ">
<polygon fill="#ffffff" stroke="#000000" points="302,-112.5 302,-131.5 385,-131.5 385,-112.5 302,-112.5"/>
<text text-anchor="middle" x="343.5" y="-119.5" font-family="Helvetica,sans-Serif" font-size="10.00" fill="#000000">periph/pwm.h</text>
</a>
</g>
</g>
<!-- Node16&#45;&gt;Node18 -->
<g id="edge33" class="edge">
<title>Node16&#45;&gt;Node18</title>
<path fill="none" stroke="#191970" d="M288.9963,-168.2455C298.7442,-159.9746 312.9259,-147.9416 324.3798,-138.2232"/>
<polygon fill="#191970" stroke="#191970" points="326.7747,-140.7813 332.1354,-131.6427 322.2459,-135.4437 326.7747,-140.7813"/>
</g>
<!-- Node17&#45;&gt;Node3 -->
<g id="edge30" class="edge">
<title>Node17&#45;&gt;Node3</title>
<path fill="none" stroke="#191970" d="M209.6995,-112.4413C179.513,-103.5721 139.7826,-89.7107 130.5,-76 125.5166,-68.6394 124.5362,-62.5913 130.5,-56 158.7182,-24.8124 449.6872,-13.8346 553.1959,-10.8992"/>
<polygon fill="#191970" stroke="#191970" points="553.5608,-14.3906 563.4609,-10.6172 553.3685,-7.3932 553.5608,-14.3906"/>
</g>
<!-- Node17&#45;&gt;Node12 -->
<g id="edge29" class="edge">
<title>Node17&#45;&gt;Node12</title>
<path fill="none" stroke="#191970" d="M265.0973,-112.3733C283.2331,-103.4644 310.4135,-90.1127 330.9587,-80.0203"/>
<polygon fill="#191970" stroke="#191970" points="332.7261,-83.0517 340.1584,-75.5011 329.6397,-76.7688 332.7261,-83.0517"/>
</g>
<!-- Node17&#45;&gt;Node13 -->
<g id="edge31" class="edge">
<title>Node17&#45;&gt;Node13</title>
<path fill="none" stroke="#191970" d="M233.8295,-112.2455C223.9339,-103.9746 209.5373,-91.9416 197.9099,-82.2232"/>
<polygon fill="#191970" stroke="#191970" points="199.9542,-79.3703 190.0368,-75.6427 195.465,-84.7413 199.9542,-79.3703"/>
</g>
<!-- Node17&#45;&gt;Node14 -->
<g id="edge32" class="edge">
<title>Node17&#45;&gt;Node14</title>
<path fill="none" stroke="#191970" d="M250.7256,-112.2455C254.8123,-104.617 260.6135,-93.7881 265.575,-84.5267"/>
<polygon fill="#191970" stroke="#191970" points="268.6972,-86.1103 270.3343,-75.6427 262.5268,-82.8047 268.6972,-86.1103"/>
</g>
<!-- Node18&#45;&gt;Node3 -->
<g id="edge34" class="edge">
<title>Node18&#45;&gt;Node3</title>
<path fill="none" stroke="#191970" d="M356.7767,-112.3913C376.4579,-98.4836 414.8909,-72.5966 450.5,-56 484.2547,-40.2677 524.8997,-27.4764 553.493,-19.4126"/>
<polygon fill="#191970" stroke="#191970" points="554.7422,-22.6985 563.447,-16.6589 552.8758,-15.9519 554.7422,-22.6985"/>
</g>
<!-- Node18&#45;&gt;Node12 -->
<g id="edge35" class="edge">
<title>Node18&#45;&gt;Node12</title>
<path fill="none" stroke="#191970" d="M346.287,-112.2455C348.3977,-104.8579 351.366,-94.4689 353.9547,-85.4087"/>
<polygon fill="#191970" stroke="#191970" points="357.363,-86.2195 356.745,-75.6427 350.6323,-84.2964 357.363,-86.2195"/>
</g>
<!-- Node18&#45;&gt;Node13 -->
<g id="edge36" class="edge">
<title>Node18&#45;&gt;Node13</title>
<path fill="none" stroke="#191970" d="M315.1355,-112.3733C287.8173,-103.1016 246.3204,-89.0178 216.2262,-78.804"/>
<polygon fill="#191970" stroke="#191970" points="217.0887,-75.4008 206.4944,-75.5011 214.839,-82.0294 217.0887,-75.4008"/>
</g>
<!-- Node18&#45;&gt;Node14 -->
<g id="edge37" class="edge">
<title>Node18&#45;&gt;Node14</title>
<path fill="none" stroke="#191970" d="M331.6553,-112.2455C321.612,-103.9746 307.0005,-91.9416 295.1996,-82.2232"/>
<polygon fill="#191970" stroke="#191970" points="297.1533,-79.298 287.209,-75.6427 292.7033,-84.7015 297.1533,-79.298"/>
</g>
</g>
</svg>
