<?xml version="1.0" encoding="UTF-8" standalone="no"?>
<!DOCTYPE svg PUBLIC "-//W3C//DTD SVG 1.1//EN"
 "http://www.w3.org/Graphics/SVG/1.1/DTD/svg11.dtd">
<!-- Generated by graphviz version 2.40.1 (0)
 -->
<!-- Title: sys/include/ztimer/periph_rtt.h Pages: 1 -->
<svg width="1062pt" height="599pt"
 viewBox="0.00 0.00 1061.50 599.00" xmlns="http://www.w3.org/2000/svg" xmlns:xlink="http://www.w3.org/1999/xlink">
<g id="graph0" class="graph" transform="scale(1 1) rotate(0) translate(4 595)">
<title>sys/include/ztimer/periph_rtt.h</title>
<polygon fill="#ffffff" stroke="transparent" points="-4,4 -4,-595 1057.5,-595 1057.5,4 -4,4"/>
<!-- Node0 -->
<g id="node1" class="node">
<title>Node0</title>
<polygon fill="#bfbfbf" stroke="#000000" points="571.5,-560.5 571.5,-590.5 672.5,-590.5 672.5,-560.5 571.5,-560.5"/>
<text text-anchor="start" x="579.5" y="-578.5" font-family="Helvetica,sans-Serif" font-size="10.00" fill="#000000">sys/include/ztimer</text>
<text text-anchor="middle" x="622" y="-567.5" font-family="Helvetica,sans-Serif" font-size="10.00" fill="#000000">/periph_rtt.h</text>
</g>
<!-- Node1 -->
<g id="node2" class="node">
<title>Node1</title>
<g id="a_node2"><a xlink:href="ztimer_8h.html" target="_top" xlink:title="ztimer API ">
<polygon fill="#ffffff" stroke="#000000" points="594.5,-504.5 594.5,-523.5 649.5,-523.5 649.5,-504.5 594.5,-504.5"/>
<text text-anchor="middle" x="622" y="-511.5" font-family="Helvetica,sans-Serif" font-size="10.00" fill="#000000">ztimer.h</text>
</a>
</g>
</g>
<!-- Node0&#45;&gt;Node1 -->
<g id="edge1" class="edge">
<title>Node0&#45;&gt;Node1</title>
<path fill="none" stroke="#191970" d="M622,-560.2977C622,-552.3834 622,-542.6043 622,-534.0759"/>
<polygon fill="#191970" stroke="#191970" points="625.5001,-533.8469 622,-523.8469 618.5001,-533.847 625.5001,-533.8469"/>
</g>
<!-- Node2 -->
<g id="node3" class="node">
<title>Node2</title>
<polygon fill="#ffffff" stroke="#bfbfbf" points="559,-.5 559,-19.5 611,-19.5 611,-.5 559,-.5"/>
<text text-anchor="middle" x="585" y="-7.5" font-family="Helvetica,sans-Serif" font-size="10.00" fill="#000000">stdint.h</text>
</g>
<!-- Node1&#45;&gt;Node2 -->
<g id="edge2" class="edge">
<title>Node1&#45;&gt;Node2</title>
<path fill="none" stroke="#191970" d="M649.7938,-511.3603C733.9074,-502.6122 980,-471.1122 980,-402 980,-402 980,-402 980,-122 980,-72.3971 935.8551,-74.9144 890,-56 841.9712,-36.189 691.5248,-19.9826 621.5119,-13.2981"/>
<polygon fill="#191970" stroke="#191970" points="621.6744,-9.798 611.3902,-12.3447 621.0179,-16.7671 621.6744,-9.798"/>
</g>
<!-- Node3 -->
<g id="node4" class="node">
<title>Node3</title>
<g id="a_node4"><a xlink:href="mbox_8h.html" target="_top" xlink:title="Mailbox API. ">
<polygon fill="#ffffff" stroke="#000000" points="54,-336.5 54,-355.5 106,-355.5 106,-336.5 54,-336.5"/>
<text text-anchor="middle" x="80" y="-343.5" font-family="Helvetica,sans-Serif" font-size="10.00" fill="#000000">mbox.h</text>
</a>
</g>
</g>
<!-- Node1&#45;&gt;Node3 -->
<g id="edge3" class="edge">
<title>Node1&#45;&gt;Node3</title>
<path fill="none" stroke="#191970" d="M594.1338,-511.1159C546.4382,-505.7165 446.4203,-492.367 365,-468 267.112,-438.7047 157.6751,-385.7666 107.6502,-360.3621"/>
<polygon fill="#191970" stroke="#191970" points="108.9557,-357.0987 98.4585,-355.6635 105.7695,-363.3316 108.9557,-357.0987"/>
</g>
<!-- Node9 -->
<g id="node10" class="node">
<title>Node9</title>
<g id="a_node10"><a xlink:href="sched_8h.html" target="_top" xlink:title="Scheduler API definition. ">
<polygon fill="#ffffff" stroke="#000000" points="413.5,-224.5 413.5,-243.5 466.5,-243.5 466.5,-224.5 413.5,-224.5"/>
<text text-anchor="middle" x="440" y="-231.5" font-family="Helvetica,sans-Serif" font-size="10.00" fill="#000000">sched.h</text>
</a>
</g>
</g>
<!-- Node1&#45;&gt;Node9 -->
<g id="edge54" class="edge">
<title>Node1&#45;&gt;Node9</title>
<path fill="none" stroke="#191970" d="M617.8685,-504.3161C610.0798,-485.1534 594,-440.8832 594,-402 594,-402 594,-402 594,-346 594,-315.4754 596.0589,-302.097 575,-280 567.9435,-272.5956 513.755,-255.5859 476.2166,-244.4549"/>
<polygon fill="#191970" stroke="#191970" points="477.179,-241.0897 466.5975,-241.6227 475.2018,-247.8047 477.179,-241.0897"/>
</g>
<!-- Node19 -->
<g id="node20" class="node">
<title>Node19</title>
<polygon fill="#ffffff" stroke="#bfbfbf" points="1008.5,-448.5 1008.5,-467.5 1053.5,-467.5 1053.5,-448.5 1008.5,-448.5"/>
<text text-anchor="middle" x="1031" y="-455.5" font-family="Helvetica,sans-Serif" font-size="10.00" fill="#000000">msg.h</text>
</g>
<!-- Node1&#45;&gt;Node19 -->
<g id="edge29" class="edge">
<title>Node1&#45;&gt;Node19</title>
<path fill="none" stroke="#191970" d="M649.7447,-511.9151C711.8469,-506.9554 866.5978,-492.9644 994,-468 995.4692,-467.7121 996.966,-467.3976 998.4742,-467.0633"/>
<polygon fill="#191970" stroke="#191970" points="999.5309,-470.4084 1008.4204,-464.6441 997.8765,-463.6067 999.5309,-470.4084"/>
</g>
<!-- Node20 -->
<g id="node21" class="node">
<title>Node20</title>
<g id="a_node21"><a xlink:href="mutex_8h.html" target="_top" xlink:title="Mutex for thread synchronization. ">
<polygon fill="#ffffff" stroke="#000000" points="622,-392.5 622,-411.5 678,-411.5 678,-392.5 622,-392.5"/>
<text text-anchor="middle" x="650" y="-399.5" font-family="Helvetica,sans-Serif" font-size="10.00" fill="#000000">mutex.h</text>
</a>
</g>
</g>
<!-- Node1&#45;&gt;Node20 -->
<g id="edge30" class="edge">
<title>Node1&#45;&gt;Node20</title>
<path fill="none" stroke="#191970" d="M624.3873,-504.4509C628.9747,-486.1013 639.1023,-445.5908 645.1577,-421.3693"/>
<polygon fill="#191970" stroke="#191970" points="648.5888,-422.0752 647.6188,-411.5249 641.7978,-420.3774 648.5888,-422.0752"/>
</g>
<!-- Node28 -->
<g id="node29" class="node">
<title>Node28</title>
<g id="a_node29"><a xlink:href="rmutex_8h.html" target="_top" xlink:title="Recursive Mutex for thread synchronization. ">
<polygon fill="#ffffff" stroke="#000000" points="374,-448.5 374,-467.5 434,-467.5 434,-448.5 374,-448.5"/>
<text text-anchor="middle" x="404" y="-455.5" font-family="Helvetica,sans-Serif" font-size="10.00" fill="#000000">rmutex.h</text>
</a>
</g>
</g>
<!-- Node1&#45;&gt;Node28 -->
<g id="edge50" class="edge">
<title>Node1&#45;&gt;Node28</title>
<path fill="none" stroke="#191970" d="M594.3901,-506.9076C556.3376,-497.1326 487.5378,-479.4593 443.8941,-468.248"/>
<polygon fill="#191970" stroke="#191970" points="444.7359,-464.8507 434.1796,-465.7525 442.9943,-471.6306 444.7359,-464.8507"/>
</g>
<!-- Node4 -->
<g id="node5" class="node">
<title>Node4</title>
<g id="a_node5"><a xlink:href="list_8h.html" target="_top" xlink:title="Intrusive linked list. ">
<polygon fill="#ffffff" stroke="#000000" points="219,-112.5 219,-131.5 257,-131.5 257,-112.5 219,-112.5"/>
<text text-anchor="middle" x="238" y="-119.5" font-family="Helvetica,sans-Serif" font-size="10.00" fill="#000000">list.h</text>
</a>
</g>
</g>
<!-- Node3&#45;&gt;Node4 -->
<g id="edge4" class="edge">
<title>Node3&#45;&gt;Node4</title>
<path fill="none" stroke="#191970" d="M95.4522,-336.4832C108.2508,-328.0485 126.329,-314.7992 139,-300 182.7678,-248.8809 216.1738,-175.3938 230.4356,-141.0471"/>
<polygon fill="#191970" stroke="#191970" points="233.7069,-142.294 234.2373,-131.7124 227.2239,-139.6536 233.7069,-142.294"/>
</g>
<!-- Node5 -->
<g id="node6" class="node">
<title>Node5</title>
<g id="a_node6"><a xlink:href="cib_8h.html" target="_top" xlink:title="Circular integer buffer interface. ">
<polygon fill="#ffffff" stroke="#000000" points="28,-280.5 28,-299.5 66,-299.5 66,-280.5 28,-280.5"/>
<text text-anchor="middle" x="47" y="-287.5" font-family="Helvetica,sans-Serif" font-size="10.00" fill="#000000">cib.h</text>
</a>
</g>
</g>
<!-- Node3&#45;&gt;Node5 -->
<g id="edge5" class="edge">
<title>Node3&#45;&gt;Node5</title>
<path fill="none" stroke="#191970" d="M74.2518,-336.2455C69.7565,-328.617 63.3752,-317.7881 57.9175,-308.5267"/>
<polygon fill="#191970" stroke="#191970" points="60.7747,-306.4811 52.6823,-299.6427 54.7439,-310.035 60.7747,-306.4811"/>
</g>
<!-- Node7 -->
<g id="node8" class="node">
<title>Node7</title>
<g id="a_node8"><a xlink:href="core_2include_2msg_8h.html" target="_top" xlink:title="Messaging API for inter process communication. ">
<polygon fill="#ffffff" stroke="#000000" points="84.5,-280.5 84.5,-299.5 129.5,-299.5 129.5,-280.5 84.5,-280.5"/>
<text text-anchor="middle" x="107" y="-287.5" font-family="Helvetica,sans-Serif" font-size="10.00" fill="#000000">msg.h</text>
</a>
</g>
</g>
<!-- Node3&#45;&gt;Node7 -->
<g id="edge8" class="edge">
<title>Node3&#45;&gt;Node7</title>
<path fill="none" stroke="#191970" d="M84.703,-336.2455C88.3424,-328.6973 93.4924,-318.0158 97.9262,-308.8197"/>
<polygon fill="#191970" stroke="#191970" points="101.1605,-310.1704 102.3509,-299.6427 94.8551,-307.1303 101.1605,-310.1704"/>
</g>
<!-- Node6 -->
<g id="node7" class="node">
<title>Node6</title>
<g id="a_node7"><a xlink:href="assert_8h.html" target="_top" xlink:title="POSIX.1&#45;2008 compliant version of the assert macro. ">
<polygon fill="#ffffff" stroke="#000000" points="298,-56.5 298,-75.5 352,-75.5 352,-56.5 298,-56.5"/>
<text text-anchor="middle" x="325" y="-63.5" font-family="Helvetica,sans-Serif" font-size="10.00" fill="#000000">assert.h</text>
</a>
</g>
</g>
<!-- Node5&#45;&gt;Node6 -->
<g id="edge6" class="edge">
<title>Node5&#45;&gt;Node6</title>
<path fill="none" stroke="#191970" d="M48.4471,-280.322C53.5431,-249.9142 73.6157,-155.7255 132,-112 156.3374,-93.7731 238.8965,-78.8086 287.7995,-71.2754"/>
<polygon fill="#191970" stroke="#191970" points="288.6184,-74.6916 297.9844,-69.7389 287.5741,-67.7699 288.6184,-74.6916"/>
</g>
<!-- Node6&#45;&gt;Node2 -->
<g id="edge7" class="edge">
<title>Node6&#45;&gt;Node2</title>
<path fill="none" stroke="#191970" d="M352.3331,-60.1129C399.514,-49.9508 496.2295,-29.1198 548.8896,-17.7776"/>
<polygon fill="#191970" stroke="#191970" points="549.7677,-21.1689 558.8065,-15.6417 548.2937,-14.3258 549.7677,-21.1689"/>
</g>
<!-- Node7&#45;&gt;Node2 -->
<g id="edge9" class="edge">
<title>Node7&#45;&gt;Node2</title>
<path fill="none" stroke="#191970" d="M103.3112,-280.2751C96.357,-261.0407 82,-216.6505 82,-178 82,-178 82,-178 82,-122 82,-74.1754 432.9165,-28.1056 548.5416,-14.2239"/>
<polygon fill="#191970" stroke="#191970" points="549.1486,-17.6764 558.6647,-13.0188 548.3211,-10.7255 549.1486,-17.6764"/>
</g>
<!-- Node8 -->
<g id="node9" class="node">
<title>Node8</title>
<polygon fill="#ffffff" stroke="#bfbfbf" points="141,-112.5 141,-131.5 201,-131.5 201,-112.5 141,-112.5"/>
<text text-anchor="middle" x="171" y="-119.5" font-family="Helvetica,sans-Serif" font-size="10.00" fill="#000000">stdbool.h</text>
</g>
<!-- Node7&#45;&gt;Node8 -->
<g id="edge10" class="edge">
<title>Node7&#45;&gt;Node8</title>
<path fill="none" stroke="#191970" d="M109.1309,-280.2328C113.9033,-259.1721 126.4263,-208.1458 144,-168 148.2089,-158.3851 153.9836,-148.2669 159.1124,-139.9759"/>
<polygon fill="#191970" stroke="#191970" points="162.0822,-141.8284 164.5108,-131.5157 156.1811,-138.063 162.0822,-141.8284"/>
</g>
<!-- Node7&#45;&gt;Node9 -->
<g id="edge11" class="edge">
<title>Node7&#45;&gt;Node9</title>
<path fill="none" stroke="#191970" d="M129.6266,-286.1949C186.1572,-276.6883 333.9805,-251.8291 403.2217,-240.1849"/>
<polygon fill="#191970" stroke="#191970" points="403.9599,-243.61 413.2409,-238.5 402.7989,-236.707 403.9599,-243.61"/>
</g>
<!-- Node10 -->
<g id="node11" class="node">
<title>Node10</title>
<polygon fill="#ffffff" stroke="#bfbfbf" points="434,-56.5 434,-75.5 490,-75.5 490,-56.5 434,-56.5"/>
<text text-anchor="middle" x="462" y="-63.5" font-family="Helvetica,sans-Serif" font-size="10.00" fill="#000000">stddef.h</text>
</g>
<!-- Node9&#45;&gt;Node10 -->
<g id="edge12" class="edge">
<title>Node9&#45;&gt;Node10</title>
<path fill="none" stroke="#191970" d="M441.2458,-224.4862C444.7235,-197.9293 454.5927,-122.5651 459.3593,-86.1655"/>
<polygon fill="#191970" stroke="#191970" points="462.8849,-86.1977 460.713,-75.8279 455.9441,-85.2887 462.8849,-86.1977"/>
</g>
<!-- Node11 -->
<g id="node12" class="node">
<title>Node11</title>
<g id="a_node12"><a xlink:href="inttypes_8h.html" target="_top" xlink:title="Adds include for missing inttype definitions. ">
<polygon fill="#ffffff" stroke="#000000" points="466.5,-168.5 466.5,-187.5 529.5,-187.5 529.5,-168.5 466.5,-168.5"/>
<text text-anchor="middle" x="498" y="-175.5" font-family="Helvetica,sans-Serif" font-size="10.00" fill="#000000">inttypes.h</text>
</a>
</g>
</g>
<!-- Node9&#45;&gt;Node11 -->
<g id="edge13" class="edge">
<title>Node9&#45;&gt;Node11</title>
<path fill="none" stroke="#191970" d="M450.1028,-224.2455C458.5028,-216.1352 470.6494,-204.4075 480.6084,-194.7919"/>
<polygon fill="#191970" stroke="#191970" points="483.25,-197.1066 488.0129,-187.6427 478.3878,-192.0707 483.25,-197.1066"/>
</g>
<!-- Node12 -->
<g id="node13" class="node">
<title>Node12</title>
<g id="a_node13"><a xlink:href="kernel__defines_8h.html" target="_top" xlink:title="Common macros and compiler attributes/pragmas configuration. ">
<polygon fill="#ffffff" stroke="#000000" points="586.5,-168.5 586.5,-187.5 681.5,-187.5 681.5,-168.5 586.5,-168.5"/>
<text text-anchor="middle" x="634" y="-175.5" font-family="Helvetica,sans-Serif" font-size="10.00" fill="#000000">kernel_defines.h</text>
</a>
</g>
</g>
<!-- Node9&#45;&gt;Node12 -->
<g id="edge14" class="edge">
<title>Node9&#45;&gt;Node12</title>
<path fill="none" stroke="#191970" d="M466.5681,-226.3309C498.6708,-217.0641 553.1043,-201.3513 591.1638,-190.3651"/>
<polygon fill="#191970" stroke="#191970" points="592.3101,-193.6772 600.9472,-187.541 590.3687,-186.9518 592.3101,-193.6772"/>
</g>
<!-- Node17 -->
<g id="node18" class="node">
<title>Node17</title>
<g id="a_node18"><a xlink:href="native__sched_8h.html" target="_top" xlink:title="Add definitions required on the native board. ">
<polygon fill="#ffffff" stroke="#000000" points="324,-168.5 324,-187.5 410,-187.5 410,-168.5 324,-168.5"/>
<text text-anchor="middle" x="367" y="-175.5" font-family="Helvetica,sans-Serif" font-size="10.00" fill="#000000">native_sched.h</text>
</a>
</g>
</g>
<!-- Node9&#45;&gt;Node17 -->
<g id="edge24" class="edge">
<title>Node9&#45;&gt;Node17</title>
<path fill="none" stroke="#191970" d="M427.2844,-224.2455C416.398,-215.8943 400.5117,-203.7076 387.78,-193.9408"/>
<polygon fill="#191970" stroke="#191970" points="389.6346,-190.9523 379.5699,-187.6427 385.3739,-196.5063 389.6346,-190.9523"/>
</g>
<!-- Node18 -->
<g id="node19" class="node">
<title>Node18</title>
<g id="a_node19"><a xlink:href="clist_8h.html" target="_top" xlink:title="Circular linked list. ">
<polygon fill="#ffffff" stroke="#000000" points="262.5,-168.5 262.5,-187.5 305.5,-187.5 305.5,-168.5 262.5,-168.5"/>
<text text-anchor="middle" x="284" y="-175.5" font-family="Helvetica,sans-Serif" font-size="10.00" fill="#000000">clist.h</text>
</a>
</g>
</g>
<!-- Node9&#45;&gt;Node18 -->
<g id="edge25" class="edge">
<title>Node9&#45;&gt;Node18</title>
<path fill="none" stroke="#191970" d="M413.1826,-224.3733C386.0641,-214.6384 344.1674,-199.5985 315.4876,-189.3032"/>
<polygon fill="#191970" stroke="#191970" points="316.5348,-185.9605 305.9403,-185.876 314.1697,-192.5489 316.5348,-185.9605"/>
</g>
<!-- Node13 -->
<g id="node14" class="node">
<title>Node13</title>
<g id="a_node14"><a xlink:href="modules_8h.html" target="_top" xlink:title="Common macros and compiler attributes/pragmas configuration. ">
<polygon fill="#ffffff" stroke="#000000" points="637.5,-112.5 637.5,-131.5 702.5,-131.5 702.5,-112.5 637.5,-112.5"/>
<text text-anchor="middle" x="670" y="-119.5" font-family="Helvetica,sans-Serif" font-size="10.00" fill="#000000">modules.h</text>
</a>
</g>
</g>
<!-- Node12&#45;&gt;Node13 -->
<g id="edge15" class="edge">
<title>Node12&#45;&gt;Node13</title>
<path fill="none" stroke="#191970" d="M640.2707,-168.2455C645.2264,-160.5367 652.283,-149.5598 658.2776,-140.2348"/>
<polygon fill="#191970" stroke="#191970" points="661.3376,-141.9471 663.8011,-131.6427 655.4494,-138.1618 661.3376,-141.9471"/>
</g>
<!-- Node14 -->
<g id="node15" class="node">
<title>Node14</title>
<g id="a_node15"><a xlink:href="riot__version_8h.html" target="_top" xlink:title="Common macros and compiler attributes/pragmas configuration. ">
<polygon fill="#ffffff" stroke="#000000" points="652.5,-56.5 652.5,-75.5 733.5,-75.5 733.5,-56.5 652.5,-56.5"/>
<text text-anchor="middle" x="693" y="-63.5" font-family="Helvetica,sans-Serif" font-size="10.00" fill="#000000">riot_version.h</text>
</a>
</g>
</g>
<!-- Node12&#45;&gt;Node14 -->
<g id="edge16" class="edge">
<title>Node12&#45;&gt;Node14</title>
<path fill="none" stroke="#191970" d="M664.7191,-168.4362C681.9074,-161.3313 701.8632,-149.7464 712,-132 720.5532,-117.026 713.3783,-97.9064 705.5163,-84.1043"/>
<polygon fill="#191970" stroke="#191970" points="708.4162,-82.1403 700.1485,-75.5149 702.48,-85.85 708.4162,-82.1403"/>
</g>
<!-- Node15 -->
<g id="node16" class="node">
<title>Node15</title>
<g id="a_node16"><a xlink:href="compiler__hints_8h.html" target="_top" xlink:title="Common macros and compiler attributes/pragmas configuration. ">
<polygon fill="#ffffff" stroke="#000000" points="278.5,-112.5 278.5,-131.5 371.5,-131.5 371.5,-112.5 278.5,-112.5"/>
<text text-anchor="middle" x="325" y="-119.5" font-family="Helvetica,sans-Serif" font-size="10.00" fill="#000000">compiler_hints.h</text>
</a>
</g>
</g>
<!-- Node12&#45;&gt;Node15 -->
<g id="edge18" class="edge">
<title>Node12&#45;&gt;Node15</title>
<path fill="none" stroke="#191970" d="M586.3959,-169.3727C531.1846,-159.3668 440.251,-142.8869 381.5053,-132.2404"/>
<polygon fill="#191970" stroke="#191970" points="382.1099,-128.7931 371.646,-130.4536 380.8616,-135.6809 382.1099,-128.7931"/>
</g>
<!-- Node16 -->
<g id="node17" class="node">
<title>Node16</title>
<g id="a_node17"><a xlink:href="container_8h.html" target="_top" xlink:title="Common macros and compiler attributes/pragmas configuration. ">
<polygon fill="#ffffff" stroke="#000000" points="550.5,-112.5 550.5,-131.5 619.5,-131.5 619.5,-112.5 550.5,-112.5"/>
<text text-anchor="middle" x="585" y="-119.5" font-family="Helvetica,sans-Serif" font-size="10.00" fill="#000000">container.h</text>
</a>
</g>
</g>
<!-- Node12&#45;&gt;Node16 -->
<g id="edge21" class="edge">
<title>Node12&#45;&gt;Node16</title>
<path fill="none" stroke="#191970" d="M625.4649,-168.2455C618.5088,-160.2958 608.5117,-148.8706 600.1949,-139.3656"/>
<polygon fill="#191970" stroke="#191970" points="602.6564,-136.8637 593.4373,-131.6427 597.3884,-141.4732 602.6564,-136.8637"/>
</g>
<!-- Node14&#45;&gt;Node2 -->
<g id="edge17" class="edge">
<title>Node14&#45;&gt;Node2</title>
<path fill="none" stroke="#191970" d="M674.1878,-56.2455C657.1527,-47.4125 631.8425,-34.2887 612.5319,-24.2758"/>
<polygon fill="#191970" stroke="#191970" points="614.0853,-21.1388 603.5966,-19.6427 610.863,-27.353 614.0853,-21.1388"/>
</g>
<!-- Node15&#45;&gt;Node2 -->
<g id="edge20" class="edge">
<title>Node15&#45;&gt;Node2</title>
<path fill="none" stroke="#191970" d="M336.9146,-112.3809C354.9733,-98.2228 390.8029,-71.7523 425,-56 465.6251,-37.2867 515.6017,-24.3885 548.7786,-17.1131"/>
<polygon fill="#191970" stroke="#191970" points="549.8771,-20.4576 558.9268,-14.9483 548.4167,-13.6116 549.8771,-20.4576"/>
</g>
<!-- Node15&#45;&gt;Node6 -->
<g id="edge19" class="edge">
<title>Node15&#45;&gt;Node6</title>
<path fill="none" stroke="#191970" d="M325,-112.2455C325,-104.9382 325,-94.6944 325,-85.7046"/>
<polygon fill="#191970" stroke="#191970" points="328.5001,-85.6426 325,-75.6427 321.5001,-85.6427 328.5001,-85.6426"/>
</g>
<!-- Node16&#45;&gt;Node2 -->
<g id="edge23" class="edge">
<title>Node16&#45;&gt;Node2</title>
<path fill="none" stroke="#191970" d="M585,-112.4509C585,-94.184 585,-53.9553 585,-29.6976"/>
<polygon fill="#191970" stroke="#191970" points="588.5001,-29.5249 585,-19.5249 581.5001,-29.5249 588.5001,-29.5249"/>
</g>
<!-- Node16&#45;&gt;Node10 -->
<g id="edge22" class="edge">
<title>Node16&#45;&gt;Node10</title>
<path fill="none" stroke="#191970" d="M563.8555,-112.3733C544.1108,-103.3838 514.4302,-89.8706 492.1945,-79.7471"/>
<polygon fill="#191970" stroke="#191970" points="493.42,-76.4594 482.8685,-75.5011 490.5194,-82.8302 493.42,-76.4594"/>
</g>
<!-- Node18&#45;&gt;Node4 -->
<g id="edge28" class="edge">
<title>Node18&#45;&gt;Node4</title>
<path fill="none" stroke="#191970" d="M275.9874,-168.2455C269.5232,-160.3761 260.2615,-149.101 252.5017,-139.6542"/>
<polygon fill="#191970" stroke="#191970" points="254.9727,-137.1484 245.9208,-131.6427 249.5636,-141.5916 254.9727,-137.1484"/>
</g>
<!-- Node18&#45;&gt;Node8 -->
<g id="edge26" class="edge">
<title>Node18&#45;&gt;Node8</title>
<path fill="none" stroke="#191970" d="M264.5746,-168.3733C246.5979,-159.4644 219.6559,-146.1127 199.291,-136.0203"/>
<polygon fill="#191970" stroke="#191970" points="200.6861,-132.8055 190.1719,-131.5011 197.5778,-139.0776 200.6861,-132.8055"/>
</g>
<!-- Node18&#45;&gt;Node10 -->
<g id="edge27" class="edge">
<title>Node18&#45;&gt;Node10</title>
<path fill="none" stroke="#191970" d="M305.5863,-169.5331C325.7743,-161.2102 356.4164,-147.5246 381,-132 404.2481,-117.3187 428.3631,-96.8844 444.168,-82.657"/>
<polygon fill="#191970" stroke="#191970" points="446.6023,-85.1737 451.6268,-75.846 441.8822,-80.0045 446.6023,-85.1737"/>
</g>
<!-- Node20&#45;&gt;Node2 -->
<g id="edge32" class="edge">
<title>Node20&#45;&gt;Node2</title>
<path fill="none" stroke="#191970" d="M678.2635,-397.3913C751.5443,-384.6477 942,-346.1281 942,-290 942,-290 942,-290 942,-122 942,-55.2986 712.2494,-23.5372 621.3699,-13.5828"/>
<polygon fill="#191970" stroke="#191970" points="621.5662,-10.084 611.2511,-12.5022 620.8228,-17.0444 621.5662,-10.084"/>
</g>
<!-- Node20&#45;&gt;Node4 -->
<g id="edge40" class="edge">
<title>Node20&#45;&gt;Node4</title>
<path fill="none" stroke="#191970" d="M621.6119,-400.9915C554.1862,-398.0951 386.7177,-387.8077 342,-356 268.7062,-303.8662 246.3048,-187.9831 240.1327,-141.6756"/>
<polygon fill="#191970" stroke="#191970" points="243.6029,-141.2174 238.9176,-131.7148 236.6544,-142.0651 243.6029,-141.2174"/>
</g>
<!-- Node20&#45;&gt;Node8 -->
<g id="edge33" class="edge">
<title>Node20&#45;&gt;Node8</title>
<path fill="none" stroke="#191970" d="M621.9429,-401.1399C522.9607,-397.3564 196,-378.1844 196,-290 196,-290 196,-290 196,-234 196,-200.7847 185.397,-163.3305 178.0013,-141.2459"/>
<polygon fill="#191970" stroke="#191970" points="181.2805,-140.0195 174.6888,-131.7249 174.6692,-142.3197 181.2805,-140.0195"/>
</g>
<!-- Node20&#45;&gt;Node10 -->
<g id="edge31" class="edge">
<title>Node20&#45;&gt;Node10</title>
<path fill="none" stroke="#191970" d="M646.2913,-392.2381C633.6131,-359.3642 589.9524,-250.1549 539,-168 519.6451,-136.7925 493.1321,-103.3031 476.8066,-83.5265"/>
<polygon fill="#191970" stroke="#191970" points="479.375,-81.1413 470.2845,-75.6995 473.9973,-85.6225 479.375,-81.1413"/>
</g>
<!-- Node20&#45;&gt;Node12 -->
<g id="edge39" class="edge">
<title>Node20&#45;&gt;Node12</title>
<path fill="none" stroke="#191970" d="M649.9609,-392.494C649.8164,-371.9409 649.1416,-321.8423 646,-280 643.8373,-251.1957 639.6063,-218.0008 636.7908,-197.5068"/>
<polygon fill="#191970" stroke="#191970" points="640.2477,-196.9544 635.3944,-187.5366 633.3154,-197.9254 640.2477,-196.9544"/>
</g>
<!-- Node21 -->
<g id="node22" class="node">
<title>Node21</title>
<g id="a_node22"><a xlink:href="architecture_8h.html" target="_top" xlink:title="Platform&#45;independent access to architecture details. ">
<polygon fill="#ffffff" stroke="#000000" points="698.5,-224.5 698.5,-243.5 781.5,-243.5 781.5,-224.5 698.5,-224.5"/>
<text text-anchor="middle" x="740" y="-231.5" font-family="Helvetica,sans-Serif" font-size="10.00" fill="#000000">architecture.h</text>
</a>
</g>
</g>
<!-- Node20&#45;&gt;Node21 -->
<g id="edge34" class="edge">
<title>Node20&#45;&gt;Node21</title>
<path fill="none" stroke="#191970" d="M658.188,-392.1832C665.4994,-383.1402 676.2236,-369.1688 684,-356 704.5421,-321.2133 722.9415,-277.5983 732.681,-253.0613"/>
<polygon fill="#191970" stroke="#191970" points="736.0329,-254.1 736.4149,-243.512 729.5136,-251.5508 736.0329,-254.1"/>
</g>
<!-- Node24 -->
<g id="node25" class="node">
<title>Node24</title>
<g id="a_node25"><a xlink:href="core_2include_2thread_8h.html" target="_top" xlink:title="Threading API. ">
<polygon fill="#ffffff" stroke="#000000" points="350.5,-336.5 350.5,-355.5 407.5,-355.5 407.5,-336.5 350.5,-336.5"/>
<text text-anchor="middle" x="379" y="-343.5" font-family="Helvetica,sans-Serif" font-size="10.00" fill="#000000">thread.h</text>
</a>
</g>
</g>
<!-- Node20&#45;&gt;Node24 -->
<g id="edge41" class="edge">
<title>Node20&#45;&gt;Node24</title>
<path fill="none" stroke="#191970" d="M621.7652,-396.1655C572.9871,-386.0859 472.874,-365.3983 417.6675,-353.9903"/>
<polygon fill="#191970" stroke="#191970" points="418.0802,-350.5017 407.5788,-351.9056 416.6636,-357.3569 418.0802,-350.5017"/>
</g>
<!-- Node21&#45;&gt;Node2 -->
<g id="edge35" class="edge">
<title>Node21&#45;&gt;Node2</title>
<path fill="none" stroke="#191970" d="M781.5635,-231.3522C831.4651,-226.232 905.9974,-211.304 885,-168 835.2874,-65.4753 689.2414,-27.6616 620.9594,-15.3152"/>
<polygon fill="#191970" stroke="#191970" points="621.5318,-11.8623 611.0821,-13.6098 620.3408,-18.7603 621.5318,-11.8623"/>
</g>
<!-- Node21&#45;&gt;Node11 -->
<g id="edge36" class="edge">
<title>Node21&#45;&gt;Node11</title>
<path fill="none" stroke="#191970" d="M698.6737,-224.4369C654.2133,-214.1485 583.9177,-197.8818 539.4208,-187.585"/>
<polygon fill="#191970" stroke="#191970" points="540.0482,-184.1377 529.5165,-185.2931 538.47,-190.9575 540.0482,-184.1377"/>
</g>
<!-- Node22 -->
<g id="node23" class="node">
<title>Node22</title>
<polygon fill="#ffffff" stroke="#bfbfbf" points="700,-168.5 700,-187.5 750,-187.5 750,-168.5 700,-168.5"/>
<text text-anchor="middle" x="725" y="-175.5" font-family="Helvetica,sans-Serif" font-size="10.00" fill="#000000">limits.h</text>
</g>
<!-- Node21&#45;&gt;Node22 -->
<g id="edge37" class="edge">
<title>Node21&#45;&gt;Node22</title>
<path fill="none" stroke="#191970" d="M737.3872,-224.2455C735.4084,-216.8579 732.6256,-206.4689 730.1988,-197.4087"/>
<polygon fill="#191970" stroke="#191970" points="733.5511,-196.3966 727.5829,-187.6427 726.7895,-198.2078 733.5511,-196.3966"/>
</g>
<!-- Node23 -->
<g id="node24" class="node">
<title>Node23</title>
<polygon fill="#ffffff" stroke="#bfbfbf" points="768.5,-168.5 768.5,-187.5 875.5,-187.5 875.5,-168.5 768.5,-168.5"/>
<text text-anchor="middle" x="822" y="-175.5" font-family="Helvetica,sans-Serif" font-size="10.00" fill="#000000">architecture_arch.h</text>
</g>
<!-- Node21&#45;&gt;Node23 -->
<g id="edge38" class="edge">
<title>Node21&#45;&gt;Node23</title>
<path fill="none" stroke="#191970" d="M754.2833,-224.2455C766.747,-215.7337 785.0451,-203.2375 799.4792,-193.3801"/>
<polygon fill="#191970" stroke="#191970" points="801.5962,-196.1726 807.8804,-187.6427 797.6485,-190.392 801.5962,-196.1726"/>
</g>
<!-- Node24&#45;&gt;Node5 -->
<g id="edge43" class="edge">
<title>Node24&#45;&gt;Node5</title>
<path fill="none" stroke="#191970" d="M350.2555,-343.3909C296.0355,-338.0841 175.1961,-324.4182 76,-300 75.8998,-299.9753 75.7995,-299.9505 75.699,-299.9254"/>
<polygon fill="#191970" stroke="#191970" points="76.7766,-296.5938 66.1972,-297.1647 74.8236,-303.3159 76.7766,-296.5938"/>
</g>
<!-- Node24&#45;&gt;Node7 -->
<g id="edge44" class="edge">
<title>Node24&#45;&gt;Node7</title>
<path fill="none" stroke="#191970" d="M350.4053,-340.1129C299.5124,-329.6349 193.5266,-307.8143 139.7756,-296.7479"/>
<polygon fill="#191970" stroke="#191970" points="140.2541,-293.2731 129.7537,-294.6846 138.8424,-300.1293 140.2541,-293.2731"/>
</g>
<!-- Node24&#45;&gt;Node9 -->
<g id="edge45" class="edge">
<title>Node24&#45;&gt;Node9</title>
<path fill="none" stroke="#191970" d="M394.2209,-336.2084C405.6927,-327.9772 420.8028,-315.1451 429,-300 436.6892,-285.7934 439.2706,-267.5459 440.0244,-253.8397"/>
<polygon fill="#191970" stroke="#191970" points="443.5301,-253.6735 440.2998,-243.5831 436.5326,-253.4855 443.5301,-253.6735"/>
</g>
<!-- Node24&#45;&gt;Node18 -->
<g id="edge42" class="edge">
<title>Node24&#45;&gt;Node18</title>
<path fill="none" stroke="#191970" d="M365.4464,-336.432C354.3205,-327.9661 338.8467,-314.6998 329,-300 307.1112,-267.323 294.1737,-222.6194 288.1416,-197.3923"/>
<polygon fill="#191970" stroke="#191970" points="291.5396,-196.5503 285.9107,-187.5745 284.7136,-198.1015 291.5396,-196.5503"/>
</g>
<!-- Node25 -->
<g id="node26" class="node">
<title>Node25</title>
<g id="a_node26"><a xlink:href="thread__config_8h.html" target="_top" xlink:title="Thread configuration defines. ">
<polygon fill="#ffffff" stroke="#000000" points="476,-280.5 476,-299.5 566,-299.5 566,-280.5 476,-280.5"/>
<text text-anchor="middle" x="521" y="-287.5" font-family="Helvetica,sans-Serif" font-size="10.00" fill="#000000">thread_config.h</text>
</a>
</g>
</g>
<!-- Node24&#45;&gt;Node25 -->
<g id="edge46" class="edge">
<title>Node24&#45;&gt;Node25</title>
<path fill="none" stroke="#191970" d="M403.4107,-336.3733C426.6142,-327.2226 461.7038,-313.3844 487.5142,-303.2057"/>
<polygon fill="#191970" stroke="#191970" points="488.8892,-306.4258 496.9079,-299.5011 486.3211,-299.9139 488.8892,-306.4258"/>
</g>
<!-- Node27 -->
<g id="node28" class="node">
<title>Node27</title>
<polygon fill="#ffffff" stroke="#bfbfbf" points="338,-280.5 338,-299.5 420,-299.5 420,-280.5 338,-280.5"/>
<text text-anchor="middle" x="379" y="-287.5" font-family="Helvetica,sans-Serif" font-size="10.00" fill="#000000">thread_arch.h</text>
</g>
<!-- Node24&#45;&gt;Node27 -->
<g id="edge49" class="edge">
<title>Node24&#45;&gt;Node27</title>
<path fill="none" stroke="#191970" d="M379,-336.2455C379,-328.9382 379,-318.6944 379,-309.7046"/>
<polygon fill="#191970" stroke="#191970" points="382.5001,-309.6426 379,-299.6427 375.5001,-309.6427 382.5001,-309.6426"/>
</g>
<!-- Node25&#45;&gt;Node9 -->
<g id="edge48" class="edge">
<title>Node25&#45;&gt;Node9</title>
<path fill="none" stroke="#191970" d="M506.8909,-280.2455C494.5791,-271.7337 476.5042,-259.2375 462.2462,-249.3801"/>
<polygon fill="#191970" stroke="#191970" points="464.1634,-246.4506 453.9474,-243.6427 460.1826,-252.2085 464.1634,-246.4506"/>
</g>
<!-- Node26 -->
<g id="node27" class="node">
<title>Node26</title>
<polygon fill="#ffffff" stroke="#bfbfbf" points="487.5,-224.5 487.5,-243.5 554.5,-243.5 554.5,-224.5 487.5,-224.5"/>
<text text-anchor="middle" x="521" y="-231.5" font-family="Helvetica,sans-Serif" font-size="10.00" fill="#000000">cpu_conf.h</text>
</g>
<!-- Node25&#45;&gt;Node26 -->
<g id="edge47" class="edge">
<title>Node25&#45;&gt;Node26</title>
<path fill="none" stroke="#191970" d="M521,-280.2455C521,-272.9382 521,-262.6944 521,-253.7046"/>
<polygon fill="#191970" stroke="#191970" points="524.5001,-253.6426 521,-243.6427 517.5001,-253.6427 524.5001,-253.6426"/>
</g>
<!-- Node28&#45;&gt;Node2 -->
<g id="edge51" class="edge">
<title>Node28&#45;&gt;Node2</title>
<path fill="none" stroke="#191970" d="M373.9644,-456.1658C280.3364,-449.6363 0,-423.6062 0,-346 0,-346 0,-346 0,-122 0,-39.2903 93.6024,-75.4193 174,-56 309.425,-23.2894 475.6792,-13.7383 548.2245,-11.0311"/>
<polygon fill="#191970" stroke="#191970" points="548.7679,-14.5143 558.6391,-10.6661 548.5226,-7.5186 548.7679,-14.5143"/>
</g>
<!-- Node28&#45;&gt;Node9 -->
<g id="edge53" class="edge">
<title>Node28&#45;&gt;Node9</title>
<path fill="none" stroke="#191970" d="M393.8164,-448.4958C365.4101,-420.8222 289.8811,-338.5565 329,-280 345.3971,-255.4554 377.5813,-243.9904 403.0901,-238.6446"/>
<polygon fill="#191970" stroke="#191970" points="404.0034,-242.0348 413.1949,-236.7653 402.7235,-235.1529 404.0034,-242.0348"/>
</g>
<!-- Node28&#45;&gt;Node20 -->
<g id="edge52" class="edge">
<title>Node28&#45;&gt;Node20</title>
<path fill="none" stroke="#191970" d="M434.1644,-451.1333C478.9618,-440.9355 563.0379,-421.7962 611.9856,-410.6537"/>
<polygon fill="#191970" stroke="#191970" points="612.8969,-414.0359 621.8706,-408.4034 611.3431,-407.2105 612.8969,-414.0359"/>
</g>
</g>
</svg>
