<?xml version="1.0" encoding="UTF-8" standalone="no"?>
<!DOCTYPE svg PUBLIC "-//W3C//DTD SVG 1.1//EN"
 "http://www.w3.org/Graphics/SVG/1.1/DTD/svg11.dtd">
<!-- Generated by graphviz version 2.40.1 (0)
 -->
<!-- Title: cpu/esp32/include/periph_cpu_esp32.h Pages: 1 -->
<svg width="256pt" height="151pt"
 viewBox="0.00 0.00 256.00 151.00" xmlns="http://www.w3.org/2000/svg" xmlns:xlink="http://www.w3.org/1999/xlink">
<g id="graph0" class="graph" transform="scale(1 1) rotate(0) translate(4 147)">
<title>cpu/esp32/include/periph_cpu_esp32.h</title>
<polygon fill="#ffffff" stroke="transparent" points="-4,4 -4,-147 252,-147 252,4 -4,4"/>
<!-- Node0 -->
<g id="node1" class="node">
<title>Node0</title>
<polygon fill="#bfbfbf" stroke="#000000" points="41.5,-112.5 41.5,-142.5 178.5,-142.5 178.5,-112.5 41.5,-112.5"/>
<text text-anchor="start" x="49.5" y="-130.5" font-family="Helvetica,sans-Serif" font-size="10.00" fill="#000000">cpu/esp32/include/periph</text>
<text text-anchor="middle" x="110" y="-119.5" font-family="Helvetica,sans-Serif" font-size="10.00" fill="#000000">_cpu_esp32.h</text>
</g>
<!-- Node1 -->
<g id="node2" class="node">
<title>Node1</title>
<g id="a_node2"><a xlink:href="cpu_2esp32_2include_2sdkconfig_8h.html" target="_top" xlink:title="SDK configuration used by ESP&#45;IDF for all ESP32x SoC variants (families) ">
<polygon fill="#ffffff" stroke="#000000" points="75,-56.5 75,-75.5 145,-75.5 145,-56.5 75,-56.5"/>
<text text-anchor="middle" x="110" y="-63.5" font-family="Helvetica,sans-Serif" font-size="10.00" fill="#000000">sdkconfig.h</text>
</a>
</g>
</g>
<!-- Node0&#45;&gt;Node1 -->
<g id="edge1" class="edge">
<title>Node0&#45;&gt;Node1</title>
<path fill="none" stroke="#191970" d="M110,-112.2977C110,-104.3834 110,-94.6043 110,-86.0759"/>
<polygon fill="#191970" stroke="#191970" points="113.5001,-85.8469 110,-75.8469 106.5001,-85.847 113.5001,-85.8469"/>
</g>
<!-- Node2 -->
<g id="node3" class="node">
<title>Node2</title>
<polygon fill="#ffffff" stroke="#bfbfbf" points="0,-.5 0,-19.5 50,-19.5 50,-.5 0,-.5"/>
<text text-anchor="middle" x="25" y="-7.5" font-family="Helvetica,sans-Serif" font-size="10.00" fill="#000000">stdlib.h</text>
</g>
<!-- Node1&#45;&gt;Node2 -->
<g id="edge2" class="edge">
<title>Node1&#45;&gt;Node2</title>
<path fill="none" stroke="#191970" d="M95.1941,-56.2455C82.2744,-47.7337 63.3069,-35.2375 48.3448,-25.3801"/>
<polygon fill="#191970" stroke="#191970" points="49.9124,-22.2216 39.6362,-19.6427 46.0613,-28.067 49.9124,-22.2216"/>
</g>
<!-- Node3 -->
<g id="node4" class="node">
<title>Node3</title>
<polygon fill="#ffffff" stroke="#bfbfbf" points="68,-.5 68,-19.5 152,-19.5 152,-.5 68,-.5"/>
<text text-anchor="middle" x="110" y="-7.5" font-family="Helvetica,sans-Serif" font-size="10.00" fill="#000000">soc/soc_caps.h</text>
</g>
<!-- Node1&#45;&gt;Node3 -->
<g id="edge3" class="edge">
<title>Node1&#45;&gt;Node3</title>
<path fill="none" stroke="#191970" d="M110,-56.2455C110,-48.9382 110,-38.6944 110,-29.7046"/>
<polygon fill="#191970" stroke="#191970" points="113.5001,-29.6426 110,-19.6427 106.5001,-29.6427 113.5001,-29.6426"/>
</g>
<!-- Node4 -->
<g id="node5" class="node">
<title>Node4</title>
<polygon fill="#ffffff" stroke="#bfbfbf" points="170,-.5 170,-19.5 248,-19.5 248,-.5 170,-.5"/>
<text text-anchor="middle" x="209" y="-7.5" font-family="Helvetica,sans-Serif" font-size="10.00" fill="#000000">esp_idf_ver.h</text>
</g>
<!-- Node1&#45;&gt;Node4 -->
<g id="edge4" class="edge">
<title>Node1&#45;&gt;Node4</title>
<path fill="none" stroke="#191970" d="M127.2445,-56.2455C142.5761,-47.5731 165.2199,-34.7645 182.7916,-24.825"/>
<polygon fill="#191970" stroke="#191970" points="184.9724,-27.6126 191.9531,-19.6427 181.5259,-21.5198 184.9724,-27.6126"/>
</g>
</g>
</svg>
