<?xml version="1.0" encoding="UTF-8" standalone="no"?>
<!DOCTYPE svg PUBLIC "-//W3C//DTD SVG 1.1//EN"
 "http://www.w3.org/Graphics/SVG/1.1/DTD/svg11.dtd">
<!-- Generated by graphviz version 2.40.1 (0)
 -->
<!-- Title: sys/include/net/gnrc/pktdump.h Pages: 1 -->
<svg width="552pt" height="319pt"
 viewBox="0.00 0.00 551.50 319.00" xmlns="http://www.w3.org/2000/svg" xmlns:xlink="http://www.w3.org/1999/xlink">
<g id="graph0" class="graph" transform="scale(1 1) rotate(0) translate(4 315)">
<title>sys/include/net/gnrc/pktdump.h</title>
<polygon fill="#ffffff" stroke="transparent" points="-4,4 -4,-315 547.5,-315 547.5,4 -4,4"/>
<!-- Node0 -->
<g id="node1" class="node">
<title>Node0</title>
<polygon fill="#bfbfbf" stroke="#000000" points="274.5,-280.5 274.5,-310.5 386.5,-310.5 386.5,-280.5 274.5,-280.5"/>
<text text-anchor="start" x="282.5" y="-298.5" font-family="Helvetica,sans-Serif" font-size="10.00" fill="#000000">sys/include/net/gnrc</text>
<text text-anchor="middle" x="330.5" y="-287.5" font-family="Helvetica,sans-Serif" font-size="10.00" fill="#000000">/pktdump.h</text>
</g>
<!-- Node1 -->
<g id="node2" class="node">
<title>Node1</title>
<g id="a_node2"><a xlink:href="sched_8h.html" target="_top" xlink:title="Scheduler API definition. ">
<polygon fill="#ffffff" stroke="#000000" points="304,-224.5 304,-243.5 357,-243.5 357,-224.5 304,-224.5"/>
<text text-anchor="middle" x="330.5" y="-231.5" font-family="Helvetica,sans-Serif" font-size="10.00" fill="#000000">sched.h</text>
</a>
</g>
</g>
<!-- Node0&#45;&gt;Node1 -->
<g id="edge1" class="edge">
<title>Node0&#45;&gt;Node1</title>
<path fill="none" stroke="#191970" d="M330.5,-280.2977C330.5,-272.3834 330.5,-262.6043 330.5,-254.0759"/>
<polygon fill="#191970" stroke="#191970" points="334.0001,-253.8469 330.5,-243.8469 327.0001,-253.847 334.0001,-253.8469"/>
</g>
<!-- Node2 -->
<g id="node3" class="node">
<title>Node2</title>
<polygon fill="#ffffff" stroke="#bfbfbf" points="302.5,-56.5 302.5,-75.5 358.5,-75.5 358.5,-56.5 302.5,-56.5"/>
<text text-anchor="middle" x="330.5" y="-63.5" font-family="Helvetica,sans-Serif" font-size="10.00" fill="#000000">stddef.h</text>
</g>
<!-- Node1&#45;&gt;Node2 -->
<g id="edge2" class="edge">
<title>Node1&#45;&gt;Node2</title>
<path fill="none" stroke="#191970" d="M330.5,-224.4862C330.5,-197.9293 330.5,-122.5651 330.5,-86.1655"/>
<polygon fill="#191970" stroke="#191970" points="334.0001,-85.8278 330.5,-75.8279 327.0001,-85.8279 334.0001,-85.8278"/>
</g>
<!-- Node3 -->
<g id="node4" class="node">
<title>Node3</title>
<g id="a_node4"><a xlink:href="inttypes_8h.html" target="_top" xlink:title="Adds include for missing inttype definitions. ">
<polygon fill="#ffffff" stroke="#000000" points="239,-168.5 239,-187.5 302,-187.5 302,-168.5 239,-168.5"/>
<text text-anchor="middle" x="270.5" y="-175.5" font-family="Helvetica,sans-Serif" font-size="10.00" fill="#000000">inttypes.h</text>
</a>
</g>
</g>
<!-- Node1&#45;&gt;Node3 -->
<g id="edge3" class="edge">
<title>Node1&#45;&gt;Node3</title>
<path fill="none" stroke="#191970" d="M320.0488,-224.2455C311.2731,-216.0549 298.5446,-204.1749 288.186,-194.5069"/>
<polygon fill="#191970" stroke="#191970" points="290.5301,-191.9072 280.8314,-187.6427 285.7539,-197.0246 290.5301,-191.9072"/>
</g>
<!-- Node4 -->
<g id="node5" class="node">
<title>Node4</title>
<g id="a_node5"><a xlink:href="kernel__defines_8h.html" target="_top" xlink:title="Common macros and compiler attributes/pragmas configuration. ">
<polygon fill="#ffffff" stroke="#000000" points="126,-168.5 126,-187.5 221,-187.5 221,-168.5 126,-168.5"/>
<text text-anchor="middle" x="173.5" y="-175.5" font-family="Helvetica,sans-Serif" font-size="10.00" fill="#000000">kernel_defines.h</text>
</a>
</g>
</g>
<!-- Node1&#45;&gt;Node4 -->
<g id="edge4" class="edge">
<title>Node1&#45;&gt;Node4</title>
<path fill="none" stroke="#191970" d="M303.8671,-224.5004C278.0417,-215.2887 238.6599,-201.2417 209.9384,-190.9971"/>
<polygon fill="#191970" stroke="#191970" points="210.8582,-187.6093 200.2636,-187.5462 208.5065,-194.2024 210.8582,-187.6093"/>
</g>
<!-- Node11 -->
<g id="node12" class="node">
<title>Node11</title>
<g id="a_node12"><a xlink:href="native__sched_8h.html" target="_top" xlink:title="Add definitions required on the native board. ">
<polygon fill="#ffffff" stroke="#000000" points="358.5,-168.5 358.5,-187.5 444.5,-187.5 444.5,-168.5 358.5,-168.5"/>
<text text-anchor="middle" x="401.5" y="-175.5" font-family="Helvetica,sans-Serif" font-size="10.00" fill="#000000">native_sched.h</text>
</a>
</g>
</g>
<!-- Node1&#45;&gt;Node11 -->
<g id="edge15" class="edge">
<title>Node1&#45;&gt;Node11</title>
<path fill="none" stroke="#191970" d="M342.8673,-224.2455C353.4554,-215.8943 368.9064,-203.7076 381.2893,-193.9408"/>
<polygon fill="#191970" stroke="#191970" points="383.5903,-196.5837 389.2745,-187.6427 379.2553,-191.0875 383.5903,-196.5837"/>
</g>
<!-- Node12 -->
<g id="node13" class="node">
<title>Node12</title>
<g id="a_node13"><a xlink:href="clist_8h.html" target="_top" xlink:title="Circular linked list. ">
<polygon fill="#ffffff" stroke="#000000" points="463,-168.5 463,-187.5 506,-187.5 506,-168.5 463,-168.5"/>
<text text-anchor="middle" x="484.5" y="-175.5" font-family="Helvetica,sans-Serif" font-size="10.00" fill="#000000">clist.h</text>
</a>
</g>
</g>
<!-- Node1&#45;&gt;Node12 -->
<g id="edge16" class="edge">
<title>Node1&#45;&gt;Node12</title>
<path fill="none" stroke="#191970" d="M356.9735,-224.3733C383.7444,-214.6384 425.104,-199.5985 453.4161,-189.3032"/>
<polygon fill="#191970" stroke="#191970" points="454.6392,-192.5828 462.841,-185.876 452.2469,-186.0042 454.6392,-192.5828"/>
</g>
<!-- Node5 -->
<g id="node6" class="node">
<title>Node5</title>
<g id="a_node6"><a xlink:href="modules_8h.html" target="_top" xlink:title="Common macros and compiler attributes/pragmas configuration. ">
<polygon fill="#ffffff" stroke="#000000" points="111,-112.5 111,-131.5 176,-131.5 176,-112.5 111,-112.5"/>
<text text-anchor="middle" x="143.5" y="-119.5" font-family="Helvetica,sans-Serif" font-size="10.00" fill="#000000">modules.h</text>
</a>
</g>
</g>
<!-- Node4&#45;&gt;Node5 -->
<g id="edge5" class="edge">
<title>Node4&#45;&gt;Node5</title>
<path fill="none" stroke="#191970" d="M168.2744,-168.2455C164.1877,-160.617 158.3865,-149.7881 153.425,-140.5267"/>
<polygon fill="#191970" stroke="#191970" points="156.4732,-138.8047 148.6657,-131.6427 150.3028,-142.1103 156.4732,-138.8047"/>
</g>
<!-- Node6 -->
<g id="node7" class="node">
<title>Node6</title>
<g id="a_node7"><a xlink:href="riot__version_8h.html" target="_top" xlink:title="Common macros and compiler attributes/pragmas configuration. ">
<polygon fill="#ffffff" stroke="#000000" points="142,-56.5 142,-75.5 223,-75.5 223,-56.5 142,-56.5"/>
<text text-anchor="middle" x="182.5" y="-63.5" font-family="Helvetica,sans-Serif" font-size="10.00" fill="#000000">riot_version.h</text>
</a>
</g>
</g>
<!-- Node4&#45;&gt;Node6 -->
<g id="edge6" class="edge">
<title>Node4&#45;&gt;Node6</title>
<path fill="none" stroke="#191970" d="M176.5375,-168.2499C179.2435,-159.0202 183.0001,-144.7215 184.5,-132 186.3064,-116.6786 185.6609,-99.2265 184.6421,-86.1181"/>
<polygon fill="#191970" stroke="#191970" points="188.1019,-85.5179 183.703,-75.8794 181.1311,-86.1573 188.1019,-85.5179"/>
</g>
<!-- Node8 -->
<g id="node9" class="node">
<title>Node8</title>
<g id="a_node9"><a xlink:href="compiler__hints_8h.html" target="_top" xlink:title="Common macros and compiler attributes/pragmas configuration. ">
<polygon fill="#ffffff" stroke="#000000" points="0,-112.5 0,-131.5 93,-131.5 93,-112.5 0,-112.5"/>
<text text-anchor="middle" x="46.5" y="-119.5" font-family="Helvetica,sans-Serif" font-size="10.00" fill="#000000">compiler_hints.h</text>
</a>
</g>
</g>
<!-- Node4&#45;&gt;Node8 -->
<g id="edge8" class="edge">
<title>Node4&#45;&gt;Node8</title>
<path fill="none" stroke="#191970" d="M151.6679,-168.3733C131.1897,-159.3435 100.3601,-145.7494 77.3681,-135.6111"/>
<polygon fill="#191970" stroke="#191970" points="78.6093,-132.3333 68.0472,-131.5011 75.785,-138.7383 78.6093,-132.3333"/>
</g>
<!-- Node10 -->
<g id="node11" class="node">
<title>Node10</title>
<g id="a_node11"><a xlink:href="container_8h.html" target="_top" xlink:title="Common macros and compiler attributes/pragmas configuration. ">
<polygon fill="#ffffff" stroke="#000000" points="233,-112.5 233,-131.5 302,-131.5 302,-112.5 233,-112.5"/>
<text text-anchor="middle" x="267.5" y="-119.5" font-family="Helvetica,sans-Serif" font-size="10.00" fill="#000000">container.h</text>
</a>
</g>
</g>
<!-- Node4&#45;&gt;Node10 -->
<g id="edge12" class="edge">
<title>Node4&#45;&gt;Node10</title>
<path fill="none" stroke="#191970" d="M189.8736,-168.2455C204.4308,-159.5731 225.931,-146.7645 242.6152,-136.825"/>
<polygon fill="#191970" stroke="#191970" points="244.5144,-139.7676 251.3141,-131.6427 240.9317,-133.7539 244.5144,-139.7676"/>
</g>
<!-- Node7 -->
<g id="node8" class="node">
<title>Node7</title>
<polygon fill="#ffffff" stroke="#bfbfbf" points="120.5,-.5 120.5,-19.5 172.5,-19.5 172.5,-.5 120.5,-.5"/>
<text text-anchor="middle" x="146.5" y="-7.5" font-family="Helvetica,sans-Serif" font-size="10.00" fill="#000000">stdint.h</text>
</g>
<!-- Node6&#45;&gt;Node7 -->
<g id="edge7" class="edge">
<title>Node6&#45;&gt;Node7</title>
<path fill="none" stroke="#191970" d="M176.2293,-56.2455C171.2736,-48.5367 164.217,-37.5598 158.2224,-28.2348"/>
<polygon fill="#191970" stroke="#191970" points="161.0506,-26.1618 152.6989,-19.6427 155.1624,-29.9471 161.0506,-26.1618"/>
</g>
<!-- Node8&#45;&gt;Node7 -->
<g id="edge11" class="edge">
<title>Node8&#45;&gt;Node7</title>
<path fill="none" stroke="#191970" d="M55.0259,-112.4509C71.9262,-93.5227 109.8803,-51.014 131.2072,-27.1279"/>
<polygon fill="#191970" stroke="#191970" points="133.9462,-29.3154 137.9956,-19.5249 128.7247,-24.6532 133.9462,-29.3154"/>
</g>
<!-- Node9 -->
<g id="node10" class="node">
<title>Node9</title>
<g id="a_node10"><a xlink:href="assert_8h.html" target="_top" xlink:title="POSIX.1&#45;2008 compliant version of the assert macro. ">
<polygon fill="#ffffff" stroke="#000000" points="21.5,-56.5 21.5,-75.5 75.5,-75.5 75.5,-56.5 21.5,-56.5"/>
<text text-anchor="middle" x="48.5" y="-63.5" font-family="Helvetica,sans-Serif" font-size="10.00" fill="#000000">assert.h</text>
</a>
</g>
</g>
<!-- Node8&#45;&gt;Node9 -->
<g id="edge9" class="edge">
<title>Node8&#45;&gt;Node9</title>
<path fill="none" stroke="#191970" d="M46.8484,-112.2455C47.1093,-104.9382 47.4752,-94.6944 47.7963,-85.7046"/>
<polygon fill="#191970" stroke="#191970" points="51.2964,-85.7613 48.1556,-75.6427 44.3008,-85.5113 51.2964,-85.7613"/>
</g>
<!-- Node9&#45;&gt;Node7 -->
<g id="edge10" class="edge">
<title>Node9&#45;&gt;Node7</title>
<path fill="none" stroke="#191970" d="M65.5703,-56.2455C80.747,-47.5731 103.1621,-34.7645 120.5563,-24.825"/>
<polygon fill="#191970" stroke="#191970" points="122.6794,-27.643 129.6253,-19.6427 119.2064,-21.5653 122.6794,-27.643"/>
</g>
<!-- Node10&#45;&gt;Node2 -->
<g id="edge13" class="edge">
<title>Node10&#45;&gt;Node2</title>
<path fill="none" stroke="#191970" d="M278.4738,-112.2455C287.6882,-104.0549 301.0532,-92.1749 311.9297,-82.5069"/>
<polygon fill="#191970" stroke="#191970" points="314.5032,-84.9023 319.652,-75.6427 309.8526,-79.6704 314.5032,-84.9023"/>
</g>
<!-- Node10&#45;&gt;Node7 -->
<g id="edge14" class="edge">
<title>Node10&#45;&gt;Node7</title>
<path fill="none" stroke="#191970" d="M264.265,-112.3883C259.1778,-98.4768 248.14,-72.5851 231.5,-56 217.5916,-42.1375 198.6357,-31.336 182.1539,-23.694"/>
<polygon fill="#191970" stroke="#191970" points="183.3541,-20.398 172.7924,-19.5604 180.5265,-26.8016 183.3541,-20.398"/>
</g>
<!-- Node12&#45;&gt;Node2 -->
<g id="edge18" class="edge">
<title>Node12&#45;&gt;Node2</title>
<path fill="none" stroke="#191970" d="M479.5817,-168.2206C472.0453,-154.1002 456.3987,-127.9509 436.5,-112 416.4108,-95.8964 389.8222,-84.3778 368.3004,-76.8944"/>
<polygon fill="#191970" stroke="#191970" points="369.4036,-73.5729 358.8101,-73.7381 367.1945,-80.2152 369.4036,-73.5729"/>
</g>
<!-- Node13 -->
<g id="node14" class="node">
<title>Node13</title>
<polygon fill="#ffffff" stroke="#bfbfbf" points="483.5,-112.5 483.5,-131.5 543.5,-131.5 543.5,-112.5 483.5,-112.5"/>
<text text-anchor="middle" x="513.5" y="-119.5" font-family="Helvetica,sans-Serif" font-size="10.00" fill="#000000">stdbool.h</text>
</g>
<!-- Node12&#45;&gt;Node13 -->
<g id="edge17" class="edge">
<title>Node12&#45;&gt;Node13</title>
<path fill="none" stroke="#191970" d="M489.5514,-168.2455C493.5019,-160.617 499.1097,-149.7881 503.9058,-140.5267"/>
<polygon fill="#191970" stroke="#191970" points="507.0159,-142.1321 508.5065,-131.6427 500.7999,-138.9131 507.0159,-142.1321"/>
</g>
<!-- Node14 -->
<g id="node15" class="node">
<title>Node14</title>
<g id="a_node15"><a xlink:href="list_8h.html" target="_top" xlink:title="Intrusive linked list. ">
<polygon fill="#ffffff" stroke="#000000" points="389.5,-112.5 389.5,-131.5 427.5,-131.5 427.5,-112.5 389.5,-112.5"/>
<text text-anchor="middle" x="408.5" y="-119.5" font-family="Helvetica,sans-Serif" font-size="10.00" fill="#000000">list.h</text>
</a>
</g>
</g>
<!-- Node12&#45;&gt;Node14 -->
<g id="edge19" class="edge">
<title>Node12&#45;&gt;Node14</title>
<path fill="none" stroke="#191970" d="M471.2618,-168.2455C459.819,-159.814 443.0704,-147.4729 429.7525,-137.6598"/>
<polygon fill="#191970" stroke="#191970" points="431.7133,-134.757 421.5865,-131.6427 427.5609,-140.3924 431.7133,-134.757"/>
</g>
</g>
</svg>
