<?xml version="1.0" encoding="UTF-8" standalone="no"?>
<!DOCTYPE svg PUBLIC "-//W3C//DTD SVG 1.1//EN"
 "http://www.w3.org/Graphics/SVG/1.1/DTD/svg11.dtd">
<!-- Generated by graphviz version 2.40.1 (0)
 -->
<!-- Title: sys/include/psa_crypto/psa/key/type.h Pages: 1 -->
<svg width="1909pt" height="664pt"
 viewBox="0.00 0.00 1908.50 664.00" xmlns="http://www.w3.org/2000/svg" xmlns:xlink="http://www.w3.org/1999/xlink">
<g id="graph0" class="graph" transform="scale(1 1) rotate(0) translate(4 660)">
<title>sys/include/psa_crypto/psa/key/type.h</title>
<polygon fill="#ffffff" stroke="transparent" points="-4,4 -4,-660 1904.5,-660 1904.5,4 -4,4"/>
<!-- Node2 -->
<g id="node1" class="node">
<title>Node2</title>
<polygon fill="#bfbfbf" stroke="#000000" points="886,-625.5 886,-655.5 1008,-655.5 1008,-625.5 886,-625.5"/>
<text text-anchor="start" x="894" y="-643.5" font-family="Helvetica,sans-Serif" font-size="10.00" fill="#000000">sys/include/psa_crypto</text>
<text text-anchor="middle" x="947" y="-632.5" font-family="Helvetica,sans-Serif" font-size="10.00" fill="#000000">/psa/key/type.h</text>
</g>
<!-- Node3 -->
<g id="node2" class="node">
<title>Node3</title>
<g id="a_node2"><a xlink:href="attributes_8h.html" target="_top" xlink:title="Key attributes definitions for the PSA Crypto API. ">
<polygon fill="#ffffff" stroke="#000000" points="886,-558.5 886,-588.5 1008,-588.5 1008,-558.5 886,-558.5"/>
<text text-anchor="start" x="894" y="-576.5" font-family="Helvetica,sans-Serif" font-size="10.00" fill="#000000">sys/include/psa_crypto</text>
<text text-anchor="middle" x="947" y="-565.5" font-family="Helvetica,sans-Serif" font-size="10.00" fill="#000000">/psa/key/attributes.h</text>
</a>
</g>
</g>
<!-- Node2&#45;&gt;Node3 -->
<g id="edge1" class="edge">
<title>Node2&#45;&gt;Node3</title>
<path fill="none" stroke="#191970" d="M947,-615.0249C947,-606.128 947,-596.4287 947,-588.6432"/>
<polygon fill="#191970" stroke="#191970" points="943.5001,-615.2966 947,-625.2967 950.5001,-615.2967 943.5001,-615.2966"/>
</g>
<!-- Node4 -->
<g id="node3" class="node">
<title>Node4</title>
<g id="a_node3"><a xlink:href="crypto__types_8h.html" target="_top" xlink:title="Type definitions for PSA Crypto. ">
<polygon fill="#ffffff" stroke="#000000" points="886,-491.5 886,-521.5 1008,-521.5 1008,-491.5 886,-491.5"/>
<text text-anchor="start" x="894" y="-509.5" font-family="Helvetica,sans-Serif" font-size="10.00" fill="#000000">sys/include/psa_crypto</text>
<text text-anchor="middle" x="947" y="-498.5" font-family="Helvetica,sans-Serif" font-size="10.00" fill="#000000">/psa/crypto_types.h</text>
</a>
</g>
</g>
<!-- Node3&#45;&gt;Node4 -->
<g id="edge2" class="edge">
<title>Node3&#45;&gt;Node4</title>
<path fill="none" stroke="#191970" d="M947,-548.0249C947,-539.128 947,-529.4287 947,-521.6432"/>
<polygon fill="#191970" stroke="#191970" points="943.5001,-548.2966 947,-558.2967 950.5001,-548.2967 943.5001,-548.2966"/>
</g>
<!-- Node5 -->
<g id="node4" class="node">
<title>Node5</title>
<g id="a_node4"><a xlink:href="crypto__values_8h.html" target="_top" xlink:title="Value definitions for PSA Crypto. ">
<polygon fill="#ffffff" stroke="#000000" points="842,-424.5 842,-454.5 964,-454.5 964,-424.5 842,-424.5"/>
<text text-anchor="start" x="850" y="-442.5" font-family="Helvetica,sans-Serif" font-size="10.00" fill="#000000">sys/include/psa_crypto</text>
<text text-anchor="middle" x="903" y="-431.5" font-family="Helvetica,sans-Serif" font-size="10.00" fill="#000000">/psa/crypto_values.h</text>
</a>
</g>
</g>
<!-- Node4&#45;&gt;Node5 -->
<g id="edge3" class="edge">
<title>Node4&#45;&gt;Node5</title>
<path fill="none" stroke="#191970" d="M931.4184,-482.7735C925.2728,-473.4154 918.3948,-462.9421 912.9448,-454.6432"/>
<polygon fill="#191970" stroke="#191970" points="928.6008,-484.8592 937.0157,-491.2967 934.4519,-481.0167 928.6008,-484.8592"/>
</g>
<!-- Node7 -->
<g id="node6" class="node">
<title>Node7</title>
<g id="a_node6"><a xlink:href="crypto_8h.html" target="_top" xlink:title="Function declarations for PSA Crypto. ">
<polygon fill="#ffffff" stroke="#000000" points="830,-223.5 830,-253.5 952,-253.5 952,-223.5 830,-223.5"/>
<text text-anchor="start" x="838" y="-241.5" font-family="Helvetica,sans-Serif" font-size="10.00" fill="#000000">sys/include/psa_crypto</text>
<text text-anchor="middle" x="891" y="-230.5" font-family="Helvetica,sans-Serif" font-size="10.00" fill="#000000">/psa/crypto.h</text>
</a>
</g>
</g>
<!-- Node4&#45;&gt;Node7 -->
<g id="edge29" class="edge">
<title>Node4&#45;&gt;Node7</title>
<path fill="none" stroke="#191970" d="M961.9765,-482.609C966.44,-474.2056 970.7412,-464.4861 973,-455 976.1915,-441.597 974.9446,-437.6399 973,-424 964.2457,-362.5942 963.1616,-344.744 934,-290 926.881,-276.6357 915.9036,-263.564 906.8224,-253.9341"/>
<polygon fill="#191970" stroke="#191970" points="958.8495,-481.0283 956.9684,-491.4548 964.941,-484.4771 958.8495,-481.0283"/>
</g>
<!-- Node23 -->
<g id="node22" class="node">
<title>Node23</title>
<g id="a_node22"><a xlink:href="crypto__struct_8h.html" target="_top" xlink:title="Structure definitions for PSA Crypto. ">
<polygon fill="#ffffff" stroke="#000000" points="741,-290.5 741,-320.5 863,-320.5 863,-290.5 741,-290.5"/>
<text text-anchor="start" x="749" y="-308.5" font-family="Helvetica,sans-Serif" font-size="10.00" fill="#000000">sys/include/psa_crypto</text>
<text text-anchor="middle" x="802" y="-297.5" font-family="Helvetica,sans-Serif" font-size="10.00" fill="#000000">/psa/crypto_struct.h</text>
</a>
</g>
</g>
<!-- Node4&#45;&gt;Node23 -->
<g id="edge28" class="edge">
<title>Node4&#45;&gt;Node23</title>
<path fill="none" stroke="#191970" d="M886.7572,-487.6086C868.029,-479.669 848.3032,-468.9618 833,-455 798.4893,-423.5145 791.8469,-403.6088 795,-357 795.8283,-344.7565 797.7521,-330.987 799.3737,-320.7684"/>
<polygon fill="#191970" stroke="#191970" points="885.555,-490.8977 896.138,-491.3982 888.177,-484.4073 885.555,-490.8977"/>
</g>
<!-- Node24 -->
<g id="node23" class="node">
<title>Node24</title>
<g id="a_node23"><a xlink:href="psa__crypto__se__driver_8h.html" target="_top" xlink:title="PSA external cryptoprocessor driver module. ">
<polygon fill="#ffffff" stroke="#000000" points="1020.5,-357.5 1020.5,-387.5 1147.5,-387.5 1147.5,-357.5 1020.5,-357.5"/>
<text text-anchor="start" x="1028.5" y="-375.5" font-family="Helvetica,sans-Serif" font-size="10.00" fill="#000000">sys/psa_crypto/include</text>
<text text-anchor="middle" x="1084" y="-364.5" font-family="Helvetica,sans-Serif" font-size="10.00" fill="#000000">/psa_crypto_se_driver.h</text>
</a>
</g>
</g>
<!-- Node4&#45;&gt;Node24 -->
<g id="edge30" class="edge">
<title>Node4&#45;&gt;Node24</title>
<path fill="none" stroke="#191970" d="M972.8652,-484.8602C983.3525,-475.8466 995.4539,-465.1351 1006,-455 1029.5918,-432.3276 1055.3847,-404.3696 1070.6045,-387.5138"/>
<polygon fill="#191970" stroke="#191970" points="970.5518,-482.2331 965.2127,-491.3843 975.0932,-487.56 970.5518,-482.2331"/>
</g>
<!-- Node6 -->
<g id="node5" class="node">
<title>Node6</title>
<g id="a_node5"><a xlink:href="crypto__sizes_8h.html" target="_top" xlink:title="Size definitions for PSA Crypto. ">
<polygon fill="#ffffff" stroke="#000000" points="804,-357.5 804,-387.5 926,-387.5 926,-357.5 804,-357.5"/>
<text text-anchor="start" x="812" y="-375.5" font-family="Helvetica,sans-Serif" font-size="10.00" fill="#000000">sys/include/psa_crypto</text>
<text text-anchor="middle" x="865" y="-364.5" font-family="Helvetica,sans-Serif" font-size="10.00" fill="#000000">/psa/crypto_sizes.h</text>
</a>
</g>
</g>
<!-- Node5&#45;&gt;Node6 -->
<g id="edge4" class="edge">
<title>Node5&#45;&gt;Node6</title>
<path fill="none" stroke="#191970" d="M889.3788,-415.4837C884.1132,-406.1996 878.247,-395.8565 873.5887,-387.6432"/>
<polygon fill="#191970" stroke="#191970" points="886.3993,-417.325 894.3772,-424.2967 892.4882,-413.8716 886.3993,-417.325"/>
</g>
<!-- Node5&#45;&gt;Node7 -->
<g id="edge25" class="edge">
<title>Node5&#45;&gt;Node7</title>
<path fill="none" stroke="#191970" d="M921.4667,-415.9251C926.9319,-407.5778 932.1998,-397.8123 935,-388 938.7809,-374.7512 937.4363,-370.5607 935,-357 928.0537,-318.3369 909.3095,-275.8063 898.6621,-253.7193"/>
<polygon fill="#191970" stroke="#191970" points="918.4297,-414.1606 915.5664,-424.3612 924.166,-418.1726 918.4297,-414.1606"/>
</g>
<!-- Node5&#45;&gt;Node24 -->
<g id="edge26" class="edge">
<title>Node5&#45;&gt;Node24</title>
<path fill="none" stroke="#191970" d="M953.3423,-420.865C981.6747,-410.3773 1016.5938,-397.4515 1043.2029,-387.6017"/>
<polygon fill="#191970" stroke="#191970" points="951.783,-417.71 943.6199,-424.4639 954.2131,-424.2747 951.783,-417.71"/>
</g>
<!-- Node6&#45;&gt;Node7 -->
<g id="edge5" class="edge">
<title>Node6&#45;&gt;Node7</title>
<path fill="none" stroke="#191970" d="M869.8815,-347.3415C875.2228,-319.8131 883.613,-276.5714 888.0388,-253.7614"/>
<polygon fill="#191970" stroke="#191970" points="866.4009,-346.9054 867.932,-357.389 873.2728,-348.2388 866.4009,-346.9054"/>
</g>
<!-- Node6&#45;&gt;Node23 -->
<g id="edge23" class="edge">
<title>Node6&#45;&gt;Node23</title>
<path fill="none" stroke="#191970" d="M843.773,-349.9253C834.7062,-340.2828 824.3643,-329.2843 816.2391,-320.6432"/>
<polygon fill="#191970" stroke="#191970" points="841.3042,-352.409 850.7043,-357.2967 846.4039,-347.6138 841.3042,-352.409"/>
</g>
<!-- Node8 -->
<g id="node7" class="node">
<title>Node8</title>
<g id="a_node7"><a xlink:href="psa__cryptocell__310__aes__common_8h.html" target="_top" xlink:title="Common AES functions used by all PSA Crypto wrappers for the CryptoCell 310 AES APIs. ">
<polygon fill="#ffffff" stroke="#000000" points="1250.5,-145.5 1250.5,-186.5 1395.5,-186.5 1395.5,-145.5 1250.5,-145.5"/>
<text text-anchor="start" x="1258.5" y="-174.5" font-family="Helvetica,sans-Serif" font-size="10.00" fill="#000000">pkg/driver_cryptocell</text>
<text text-anchor="start" x="1258.5" y="-163.5" font-family="Helvetica,sans-Serif" font-size="10.00" fill="#000000">_310/include/psa_cryptocell</text>
<text text-anchor="middle" x="1323" y="-152.5" font-family="Helvetica,sans-Serif" font-size="10.00" fill="#000000">_310_aes_common.h</text>
</a>
</g>
</g>
<!-- Node7&#45;&gt;Node8 -->
<g id="edge6" class="edge">
<title>Node7&#45;&gt;Node8</title>
<path fill="none" stroke="#191970" d="M962.2029,-230.2403C1033.1908,-221.4858 1145.1573,-206.2689 1241,-187 1244.0255,-186.3917 1247.1065,-185.7419 1250.2134,-185.0615"/>
<polygon fill="#191970" stroke="#191970" points="961.5342,-226.7959 952.0334,-231.4848 962.3845,-233.7441 961.5342,-226.7959"/>
</g>
<!-- Node9 -->
<g id="node8" class="node">
<title>Node9</title>
<g id="a_node8"><a xlink:href="psa__cryptocell__310__ecc__common_8h.html" target="_top" xlink:title="Common ECC functions used by all PSA Crypto wrappers for the CryptoCell 310 ECC APIs. ">
<polygon fill="#ffffff" stroke="#000000" points="1413.5,-145.5 1413.5,-186.5 1558.5,-186.5 1558.5,-145.5 1413.5,-145.5"/>
<text text-anchor="start" x="1421.5" y="-174.5" font-family="Helvetica,sans-Serif" font-size="10.00" fill="#000000">pkg/driver_cryptocell</text>
<text text-anchor="start" x="1421.5" y="-163.5" font-family="Helvetica,sans-Serif" font-size="10.00" fill="#000000">_310/include/psa_cryptocell</text>
<text text-anchor="middle" x="1486" y="-152.5" font-family="Helvetica,sans-Serif" font-size="10.00" fill="#000000">_310_ecc_common.h</text>
</a>
</g>
</g>
<!-- Node7&#45;&gt;Node9 -->
<g id="edge7" class="edge">
<title>Node7&#45;&gt;Node9</title>
<path fill="none" stroke="#191970" d="M962.6056,-234.8115C1062.3622,-228.8832 1248.5335,-214.9499 1405,-187 1407.7172,-186.5146 1410.4772,-185.9856 1413.2588,-185.4221"/>
<polygon fill="#191970" stroke="#191970" points="962.1233,-231.3336 952.3445,-235.4111 962.5317,-238.3217 962.1233,-231.3336"/>
</g>
<!-- Node10 -->
<g id="node9" class="node">
<title>Node10</title>
<g id="a_node9"><a xlink:href="psa__cryptocell__310__hashes__common_8h.html" target="_top" xlink:title="Common hash functions used by all PSA Crypto wrappers for the CryptoCell 310 hash APIs...">
<polygon fill="#ffffff" stroke="#000000" points="1576.5,-145.5 1576.5,-186.5 1721.5,-186.5 1721.5,-145.5 1576.5,-145.5"/>
<text text-anchor="start" x="1584.5" y="-174.5" font-family="Helvetica,sans-Serif" font-size="10.00" fill="#000000">pkg/driver_cryptocell</text>
<text text-anchor="start" x="1584.5" y="-163.5" font-family="Helvetica,sans-Serif" font-size="10.00" fill="#000000">_310/include/psa_cryptocell</text>
<text text-anchor="middle" x="1649" y="-152.5" font-family="Helvetica,sans-Serif" font-size="10.00" fill="#000000">_310_hashes_common.h</text>
</a>
</g>
</g>
<!-- Node7&#45;&gt;Node10 -->
<g id="edge8" class="edge">
<title>Node7&#45;&gt;Node10</title>
<path fill="none" stroke="#191970" d="M962.2397,-237.2351C1086.1735,-234.1118 1349.1557,-223.3955 1568,-187 1570.7228,-186.5472 1573.4876,-186.0459 1576.2732,-185.5058"/>
<polygon fill="#191970" stroke="#191970" points="962.0332,-233.739 952.1212,-237.4809 962.2033,-240.7369 962.0332,-233.739"/>
</g>
<!-- Node11 -->
<g id="node10" class="node">
<title>Node11</title>
<g id="a_node10"><a xlink:href="psa__error_8h.html" target="_top" xlink:title="Glue code translating between PSA Crypto and the CryptoCell 310 driver APIs. ">
<polygon fill="#ffffff" stroke="#000000" points="0,-151 0,-181 134,-181 134,-151 0,-151"/>
<text text-anchor="start" x="8" y="-169" font-family="Helvetica,sans-Serif" font-size="10.00" fill="#000000">pkg/driver_cryptocell</text>
<text text-anchor="middle" x="67" y="-158" font-family="Helvetica,sans-Serif" font-size="10.00" fill="#000000">_310/include/psa_error.h</text>
</a>
</g>
</g>
<!-- Node7&#45;&gt;Node11 -->
<g id="edge9" class="edge">
<title>Node7&#45;&gt;Node11</title>
<path fill="none" stroke="#191970" d="M819.7306,-235.4226C658.9133,-228.1815 271.8496,-209.0072 143,-187 134.0943,-185.4789 124.7291,-183.3463 115.7332,-181.0187"/>
<polygon fill="#191970" stroke="#191970" points="819.8443,-238.9311 829.991,-235.8822 820.1576,-231.9382 819.8443,-238.9311"/>
</g>
<!-- Node12 -->
<g id="node11" class="node">
<title>Node12</title>
<g id="a_node11"><a xlink:href="psa__ciphers_8h.html" target="_top" xlink:title="Function declarations for low level wrapper functions for cipher operations. ">
<polygon fill="#ffffff" stroke="#000000" points="152,-151 152,-181 274,-181 274,-151 152,-151"/>
<text text-anchor="start" x="160" y="-169" font-family="Helvetica,sans-Serif" font-size="10.00" fill="#000000">sys/psa_crypto/include</text>
<text text-anchor="middle" x="213" y="-158" font-family="Helvetica,sans-Serif" font-size="10.00" fill="#000000">/psa_ciphers.h</text>
</a>
</g>
</g>
<!-- Node7&#45;&gt;Node12 -->
<g id="edge10" class="edge">
<title>Node7&#45;&gt;Node12</title>
<path fill="none" stroke="#191970" d="M819.5673,-237.2238C705.2815,-234.1162 474.6827,-223.4629 283,-187 274.8982,-185.4588 266.3978,-183.3464 258.2235,-181.0523"/>
<polygon fill="#191970" stroke="#191970" points="819.5052,-240.7233 829.593,-237.4851 819.6876,-233.7257 819.5052,-240.7233"/>
</g>
<!-- Node13 -->
<g id="node12" class="node">
<title>Node13</title>
<g id="a_node12"><a xlink:href="psa__crypto__algorithm__dispatch_8h.html" target="_top" xlink:title="Function declarations for PSA Crypto algorithm dispatcher. ">
<polygon fill="#ffffff" stroke="#000000" points="292,-145.5 292,-186.5 414,-186.5 414,-145.5 292,-145.5"/>
<text text-anchor="start" x="300" y="-174.5" font-family="Helvetica,sans-Serif" font-size="10.00" fill="#000000">sys/psa_crypto/include</text>
<text text-anchor="start" x="300" y="-163.5" font-family="Helvetica,sans-Serif" font-size="10.00" fill="#000000">/psa_crypto_algorithm</text>
<text text-anchor="middle" x="353" y="-152.5" font-family="Helvetica,sans-Serif" font-size="10.00" fill="#000000">_dispatch.h</text>
</a>
</g>
</g>
<!-- Node7&#45;&gt;Node13 -->
<g id="edge11" class="edge">
<title>Node7&#45;&gt;Node13</title>
<path fill="none" stroke="#191970" d="M819.6089,-234.167C728.2021,-227.7961 565.2223,-213.6599 428,-187 423.487,-186.1232 418.8499,-185.1089 414.2011,-184.009"/>
<polygon fill="#191970" stroke="#191970" points="819.6368,-237.677 829.8528,-234.8693 820.1156,-230.6934 819.6368,-237.677"/>
</g>
<!-- Node14 -->
<g id="node13" class="node">
<title>Node14</title>
<g id="a_node13"><a xlink:href="psa__crypto__slot__management_8h.html" target="_top" xlink:title="PSA key slot management function declarations. ">
<polygon fill="#ffffff" stroke="#000000" points="490.5,-78.5 490.5,-108.5 657.5,-108.5 657.5,-78.5 490.5,-78.5"/>
<text text-anchor="start" x="498.5" y="-96.5" font-family="Helvetica,sans-Serif" font-size="10.00" fill="#000000">sys/psa_crypto/include</text>
<text text-anchor="middle" x="574" y="-85.5" font-family="Helvetica,sans-Serif" font-size="10.00" fill="#000000">/psa_crypto_slot_management.h</text>
</a>
</g>
</g>
<!-- Node7&#45;&gt;Node14 -->
<g id="edge12" class="edge">
<title>Node7&#45;&gt;Node14</title>
<path fill="none" stroke="#191970" d="M819.6213,-234.153C712.3341,-226.8822 519.774,-210.6818 499,-187 486.6903,-172.9673 490.3051,-161.518 499,-145 507.4609,-128.9266 523.455,-116.9016 538.5069,-108.5313"/>
<polygon fill="#191970" stroke="#191970" points="819.5178,-237.6538 829.7291,-234.8287 819.9848,-230.6694 819.5178,-237.6538"/>
</g>
<!-- Node16 -->
<g id="node15" class="node">
<title>Node16</title>
<g id="a_node15"><a xlink:href="psa__crypto__operation__encoder_8h.html" target="_top" xlink:title="Macros used to map PSA algorithms, key types and key sizes to specific key types and operations to ca...">
<polygon fill="#ffffff" stroke="#000000" points="381,-.5 381,-41.5 503,-41.5 503,-.5 381,-.5"/>
<text text-anchor="start" x="389" y="-29.5" font-family="Helvetica,sans-Serif" font-size="10.00" fill="#000000">sys/psa_crypto/include</text>
<text text-anchor="start" x="389" y="-18.5" font-family="Helvetica,sans-Serif" font-size="10.00" fill="#000000">/psa_crypto_operation</text>
<text text-anchor="middle" x="442" y="-7.5" font-family="Helvetica,sans-Serif" font-size="10.00" fill="#000000">_encoder.h</text>
</a>
</g>
</g>
<!-- Node7&#45;&gt;Node16 -->
<g id="edge18" class="edge">
<title>Node7&#45;&gt;Node16</title>
<path fill="none" stroke="#191970" d="M819.6589,-233.6511C710.6404,-225.6111 512.566,-208.2774 488,-187 445.2762,-149.9954 440.564,-77.1506 441.0239,-41.5556"/>
<polygon fill="#191970" stroke="#191970" points="819.6941,-237.1629 829.9223,-234.4 820.2035,-230.1815 819.6941,-237.1629"/>
</g>
<!-- Node17 -->
<g id="node16" class="node">
<title>Node17</title>
<g id="a_node16"><a xlink:href="psa__crypto__se__management_8h.html" target="_top" xlink:title="PSA Secure Element management function declarations. ">
<polygon fill="#ffffff" stroke="#000000" points="1739.5,-151 1739.5,-181 1900.5,-181 1900.5,-151 1739.5,-151"/>
<text text-anchor="start" x="1747.5" y="-169" font-family="Helvetica,sans-Serif" font-size="10.00" fill="#000000">sys/psa_crypto/include</text>
<text text-anchor="middle" x="1820" y="-158" font-family="Helvetica,sans-Serif" font-size="10.00" fill="#000000">/psa_crypto_se_management.h</text>
</a>
</g>
</g>
<!-- Node7&#45;&gt;Node17 -->
<g id="edge15" class="edge">
<title>Node7&#45;&gt;Node17</title>
<path fill="none" stroke="#191970" d="M962.176,-235.7001C1136.8984,-228.5748 1583.4346,-208.7705 1731,-187 1741.3658,-185.4707 1752.3023,-183.3342 1762.8262,-181.0051"/>
<polygon fill="#191970" stroke="#191970" points="961.9123,-232.2078 952.0626,-236.1107 962.1964,-239.202 961.9123,-232.2078"/>
</g>
<!-- Node18 -->
<g id="node17" class="node">
<title>Node18</title>
<g id="a_node17"><a xlink:href="psa__crypto__location__dispatch_8h.html" target="_top" xlink:title="Function declarations for the PSA Crypto location dispatcher. ">
<polygon fill="#ffffff" stroke="#000000" points="508.5,-151 508.5,-181 671.5,-181 671.5,-151 508.5,-151"/>
<text text-anchor="start" x="516.5" y="-169" font-family="Helvetica,sans-Serif" font-size="10.00" fill="#000000">sys/psa_crypto/include</text>
<text text-anchor="middle" x="590" y="-158" font-family="Helvetica,sans-Serif" font-size="10.00" fill="#000000">/psa_crypto_location_dispatch.h</text>
</a>
</g>
</g>
<!-- Node7&#45;&gt;Node18 -->
<g id="edge17" class="edge">
<title>Node7&#45;&gt;Node18</title>
<path fill="none" stroke="#191970" d="M819.7939,-221.349C768.9568,-209.1042 701.2238,-192.7898 652.4819,-181.0496"/>
<polygon fill="#191970" stroke="#191970" points="819.1838,-224.8021 829.7254,-223.7412 820.823,-217.9967 819.1838,-224.8021"/>
</g>
<!-- Node19 -->
<g id="node18" class="node">
<title>Node19</title>
<g id="a_node18"><a xlink:href="psa__crypto__persistent__storage_8h.html" target="_top" xlink:title="sys/psa_crypto/include\l/psa_crypto_persistent\l_storage.h">
<polygon fill="#ffffff" stroke="#000000" points="690,-145.5 690,-186.5 812,-186.5 812,-145.5 690,-145.5"/>
<text text-anchor="start" x="698" y="-174.5" font-family="Helvetica,sans-Serif" font-size="10.00" fill="#000000">sys/psa_crypto/include</text>
<text text-anchor="start" x="698" y="-163.5" font-family="Helvetica,sans-Serif" font-size="10.00" fill="#000000">/psa_crypto_persistent</text>
<text text-anchor="middle" x="751" y="-152.5" font-family="Helvetica,sans-Serif" font-size="10.00" fill="#000000">_storage.h</text>
</a>
</g>
</g>
<!-- Node7&#45;&gt;Node19 -->
<g id="edge19" class="edge">
<title>Node7&#45;&gt;Node19</title>
<path fill="none" stroke="#191970" d="M852.8731,-218.7557C833.5521,-208.7502 810.1119,-196.6115 790.5891,-186.5015"/>
<polygon fill="#191970" stroke="#191970" points="851.5024,-221.9873 861.9919,-223.478 854.7215,-215.7714 851.5024,-221.9873"/>
</g>
<!-- Node20 -->
<g id="node19" class="node">
<title>Node20</title>
<g id="a_node19"><a xlink:href="psa__ecc_8h.html" target="_top" xlink:title="Function declarations for low level wrapper functions for ECC operations. ">
<polygon fill="#ffffff" stroke="#000000" points="830,-151 830,-181 952,-181 952,-151 830,-151"/>
<text text-anchor="start" x="838" y="-169" font-family="Helvetica,sans-Serif" font-size="10.00" fill="#000000">sys/psa_crypto/include</text>
<text text-anchor="middle" x="891" y="-158" font-family="Helvetica,sans-Serif" font-size="10.00" fill="#000000">/psa_ecc.h</text>
</a>
</g>
</g>
<!-- Node7&#45;&gt;Node20 -->
<g id="edge20" class="edge">
<title>Node7&#45;&gt;Node20</title>
<path fill="none" stroke="#191970" d="M891,-213.3409C891,-202.5601 891,-190.3309 891,-181.0028"/>
<polygon fill="#191970" stroke="#191970" points="887.5001,-213.4779 891,-223.478 894.5001,-213.478 887.5001,-213.4779"/>
</g>
<!-- Node21 -->
<g id="node20" class="node">
<title>Node21</title>
<g id="a_node20"><a xlink:href="psa__hashes_8h.html" target="_top" xlink:title="Function declarations for low level wrapper functions for hash operations. ">
<polygon fill="#ffffff" stroke="#000000" points="970,-151 970,-181 1092,-181 1092,-151 970,-151"/>
<text text-anchor="start" x="978" y="-169" font-family="Helvetica,sans-Serif" font-size="10.00" fill="#000000">sys/psa_crypto/include</text>
<text text-anchor="middle" x="1031" y="-158" font-family="Helvetica,sans-Serif" font-size="10.00" fill="#000000">/psa_hashes.h</text>
</a>
</g>
</g>
<!-- Node7&#45;&gt;Node21 -->
<g id="edge21" class="edge">
<title>Node7&#45;&gt;Node21</title>
<path fill="none" stroke="#191970" d="M929.1391,-218.7494C952.1182,-206.8495 980.9202,-191.9342 1002.0291,-181.0028"/>
<polygon fill="#191970" stroke="#191970" points="927.2785,-215.7714 920.0081,-223.478 930.4976,-221.9873 927.2785,-215.7714"/>
</g>
<!-- Node22 -->
<g id="node21" class="node">
<title>Node22</title>
<g id="a_node21"><a xlink:href="psa__mac_8h.html" target="_top" xlink:title="Function declarations for low level wrapper functions for MAC operations. ">
<polygon fill="#ffffff" stroke="#000000" points="1110,-151 1110,-181 1232,-181 1232,-151 1110,-151"/>
<text text-anchor="start" x="1118" y="-169" font-family="Helvetica,sans-Serif" font-size="10.00" fill="#000000">sys/psa_crypto/include</text>
<text text-anchor="middle" x="1171" y="-158" font-family="Helvetica,sans-Serif" font-size="10.00" fill="#000000">/psa_mac.h</text>
</a>
</g>
</g>
<!-- Node7&#45;&gt;Node22 -->
<g id="edge22" class="edge">
<title>Node7&#45;&gt;Node22</title>
<path fill="none" stroke="#191970" d="M962.1656,-222C1002.9384,-212.3089 1054.9927,-199.5337 1101,-187 1107.8554,-185.1324 1115.0611,-183.077 1122.1359,-181.0053"/>
<polygon fill="#191970" stroke="#191970" points="961.2438,-218.6215 952.32,-224.3324 962.8575,-225.4329 961.2438,-218.6215"/>
</g>
<!-- Node15 -->
<g id="node14" class="node">
<title>Node15</title>
<g id="a_node14"><a xlink:href="psa__crypto__cbor__encoder_8h.html" target="_top" xlink:title="sys/psa_crypto/include\l/psa_crypto_cbor_encoder.h">
<polygon fill="#ffffff" stroke="#000000" points="521,-6 521,-36 669,-36 669,-6 521,-6"/>
<text text-anchor="start" x="529" y="-24" font-family="Helvetica,sans-Serif" font-size="10.00" fill="#000000">sys/psa_crypto/include</text>
<text text-anchor="middle" x="595" y="-13" font-family="Helvetica,sans-Serif" font-size="10.00" fill="#000000">/psa_crypto_cbor_encoder.h</text>
</a>
</g>
</g>
<!-- Node14&#45;&gt;Node15 -->
<g id="edge13" class="edge">
<title>Node14&#45;&gt;Node15</title>
<path fill="none" stroke="#191970" d="M581.19,-68.6774C584.3363,-57.8151 587.9243,-45.4281 590.6544,-36.0028"/>
<polygon fill="#191970" stroke="#191970" points="577.7717,-67.899 578.3512,-78.478 584.4953,-69.8466 577.7717,-67.899"/>
</g>
<!-- Node14&#45;&gt;Node16 -->
<g id="edge14" class="edge">
<title>Node14&#45;&gt;Node16</title>
<path fill="none" stroke="#191970" d="M537.554,-73.4823C519.4333,-63.5296 497.5667,-51.5196 479.3269,-41.5015"/>
<polygon fill="#191970" stroke="#191970" points="536.1996,-76.7316 546.6495,-78.478 539.5695,-70.5961 536.1996,-76.7316"/>
</g>
<!-- Node17&#45;&gt;Node14 -->
<g id="edge16" class="edge">
<title>Node17&#45;&gt;Node14</title>
<path fill="none" stroke="#191970" d="M1753.4748,-148.877C1745.932,-147.3611 1738.3254,-146.0181 1731,-145 1523.5078,-116.1619 887.241,-100.1494 657.6861,-95.1898"/>
<polygon fill="#191970" stroke="#191970" points="1752.8176,-152.3154 1763.325,-150.9567 1754.2637,-145.4663 1752.8176,-152.3154"/>
</g>
<!-- Node23&#45;&gt;Node7 -->
<g id="edge24" class="edge">
<title>Node23&#45;&gt;Node7</title>
<path fill="none" stroke="#191970" d="M830.4743,-284.0643C843.6338,-274.1577 858.9513,-262.6265 870.8844,-253.6432"/>
<polygon fill="#191970" stroke="#191970" points="828.0797,-281.486 822.1955,-290.2967 832.2897,-287.0785 828.0797,-281.486"/>
</g>
<!-- Node24&#45;&gt;Node17 -->
<g id="edge27" class="edge">
<title>Node24&#45;&gt;Node17</title>
<path fill="none" stroke="#191970" d="M1147.4304,-354.7033C1289.9165,-314.7259 1633.2593,-218.394 1766.1801,-181.1003"/>
<polygon fill="#191970" stroke="#191970" points="1146.2069,-351.4114 1137.5242,-357.4827 1148.0979,-358.1511 1146.2069,-351.4114"/>
</g>
</g>
</svg>
