<?xml version="1.0" encoding="UTF-8" standalone="no"?>
<!DOCTYPE svg PUBLIC "-//W3C//DTD SVG 1.1//EN"
 "http://www.w3.org/Graphics/SVG/1.1/DTD/svg11.dtd">
<!-- Generated by graphviz version 2.40.1 (0)
 -->
<!-- Title: sys/psa_crypto/include/psa_ecc.h Pages: 1 -->
<svg width="1220pt" height="498pt"
 viewBox="0.00 0.00 1219.50 498.00" xmlns="http://www.w3.org/2000/svg" xmlns:xlink="http://www.w3.org/1999/xlink">
<g id="graph0" class="graph" transform="scale(1 1) rotate(0) translate(4 494)">
<title>sys/psa_crypto/include/psa_ecc.h</title>
<polygon fill="#ffffff" stroke="transparent" points="-4,4 -4,-494 1215.5,-494 1215.5,4 -4,4"/>
<!-- Node0 -->
<g id="node1" class="node">
<title>Node0</title>
<polygon fill="#bfbfbf" stroke="#000000" points="194.5,-459.5 194.5,-489.5 316.5,-489.5 316.5,-459.5 194.5,-459.5"/>
<text text-anchor="start" x="202.5" y="-477.5" font-family="Helvetica,sans-Serif" font-size="10.00" fill="#000000">sys/psa_crypto/include</text>
<text text-anchor="middle" x="255.5" y="-466.5" font-family="Helvetica,sans-Serif" font-size="10.00" fill="#000000">/psa_ecc.h</text>
</g>
<!-- Node1 -->
<g id="node2" class="node">
<title>Node1</title>
<g id="a_node2"><a xlink:href="crypto_8h.html" target="_top" xlink:title="Function declarations for PSA Crypto. ">
<polygon fill="#ffffff" stroke="#000000" points="568,-403.5 568,-422.5 643,-422.5 643,-403.5 568,-403.5"/>
<text text-anchor="middle" x="605.5" y="-410.5" font-family="Helvetica,sans-Serif" font-size="10.00" fill="#000000">psa/crypto.h</text>
</a>
</g>
</g>
<!-- Node0&#45;&gt;Node1 -->
<g id="edge1" class="edge">
<title>Node0&#45;&gt;Node1</title>
<path fill="none" stroke="#191970" d="M316.8659,-463.7171C385.5797,-451.6431 495.4732,-432.3333 557.9679,-421.3521"/>
<polygon fill="#191970" stroke="#191970" points="558.7058,-424.7761 567.9492,-419.5982 557.4943,-417.8817 558.7058,-424.7761"/>
</g>
<!-- Node4 -->
<g id="node5" class="node">
<title>Node4</title>
<g id="a_node5"><a xlink:href="kernel__defines_8h.html" target="_top" xlink:title="Common macros and compiler attributes/pragmas configuration. ">
<polygon fill="#ffffff" stroke="#000000" points="0,-174 0,-193 95,-193 95,-174 0,-174"/>
<text text-anchor="middle" x="47.5" y="-181" font-family="Helvetica,sans-Serif" font-size="10.00" fill="#000000">kernel_defines.h</text>
</a>
</g>
</g>
<!-- Node0&#45;&gt;Node4 -->
<g id="edge63" class="edge">
<title>Node0&#45;&gt;Node4</title>
<path fill="none" stroke="#191970" d="M200.9927,-459.4307C154.2854,-442.8054 94.5,-410.9817 94.5,-357 94.5,-357 94.5,-357 94.5,-301 94.5,-263.5125 73.6213,-223.7994 59.6954,-201.4804"/>
<polygon fill="#191970" stroke="#191970" points="62.6041,-199.5328 54.234,-193.0373 56.7265,-203.3348 62.6041,-199.5328"/>
</g>
<!-- Node2 -->
<g id="node3" class="node">
<title>Node2</title>
<polygon fill="#ffffff" stroke="#bfbfbf" points="717.5,-347.5 717.5,-366.5 767.5,-366.5 767.5,-347.5 717.5,-347.5"/>
<text text-anchor="middle" x="742.5" y="-354.5" font-family="Helvetica,sans-Serif" font-size="10.00" fill="#000000">stdlib.h</text>
</g>
<!-- Node1&#45;&gt;Node2 -->
<g id="edge2" class="edge">
<title>Node1&#45;&gt;Node2</title>
<path fill="none" stroke="#191970" d="M629.0511,-403.3733C651.3391,-394.2629 684.9937,-380.5062 709.8637,-370.3404"/>
<polygon fill="#191970" stroke="#191970" points="711.3239,-373.5247 719.2562,-366.5011 708.6753,-367.0451 711.3239,-373.5247"/>
</g>
<!-- Node3 -->
<g id="node4" class="node">
<title>Node3</title>
<polygon fill="#ffffff" stroke="#bfbfbf" points="786,-347.5 786,-366.5 839,-366.5 839,-347.5 786,-347.5"/>
<text text-anchor="middle" x="812.5" y="-354.5" font-family="Helvetica,sans-Serif" font-size="10.00" fill="#000000">string.h</text>
</g>
<!-- Node1&#45;&gt;Node3 -->
<g id="edge3" class="edge">
<title>Node1&#45;&gt;Node3</title>
<path fill="none" stroke="#191970" d="M641.222,-403.4815C673.8045,-394.7793 723.5367,-381.4465 775.955,-367.134"/>
<polygon fill="#191970" stroke="#191970" points="777.0471,-370.4639 785.7704,-364.451 775.2014,-363.7116 777.0471,-370.4639"/>
</g>
<!-- Node1&#45;&gt;Node4 -->
<g id="edge4" class="edge">
<title>Node1&#45;&gt;Node4</title>
<path fill="none" stroke="#191970" d="M576.6867,-403.4696C550.0152,-394.5092 509.3408,-380.4919 474.5,-367 323.5383,-308.541 146.9286,-229.0038 77.5964,-197.334"/>
<polygon fill="#191970" stroke="#191970" points="78.7109,-193.995 68.1613,-193.017 75.7984,-200.3604 78.7109,-193.995"/>
</g>
<!-- Node12 -->
<g id="node13" class="node">
<title>Node12</title>
<g id="a_node13"><a xlink:href="crypto__sizes_8h.html" target="_top" xlink:title="Size definitions for PSA Crypto. ">
<polygon fill="#ffffff" stroke="#000000" points="385.5,-291.5 385.5,-310.5 467.5,-310.5 467.5,-291.5 385.5,-291.5"/>
<text text-anchor="middle" x="426.5" y="-298.5" font-family="Helvetica,sans-Serif" font-size="10.00" fill="#000000">crypto_sizes.h</text>
</a>
</g>
</g>
<!-- Node1&#45;&gt;Node12 -->
<g id="edge15" class="edge">
<title>Node1&#45;&gt;Node12</title>
<path fill="none" stroke="#191970" d="M580.8755,-403.4215C560.5168,-395.0435 531.2078,-381.9061 507.5,-367 484.2229,-352.3647 460.1132,-331.922 444.3176,-317.6799"/>
<polygon fill="#191970" stroke="#191970" points="446.6046,-315.0285 436.8637,-310.8611 441.8797,-320.1934 446.6046,-315.0285"/>
</g>
<!-- Node13 -->
<g id="node14" class="node">
<title>Node13</title>
<g id="a_node14"><a xlink:href="crypto__values_8h.html" target="_top" xlink:title="Value definitions for PSA Crypto. ">
<polygon fill="#ffffff" stroke="#000000" points="515,-235.5 515,-254.5 604,-254.5 604,-235.5 515,-235.5"/>
<text text-anchor="middle" x="559.5" y="-242.5" font-family="Helvetica,sans-Serif" font-size="10.00" fill="#000000">crypto_values.h</text>
</a>
</g>
</g>
<!-- Node1&#45;&gt;Node13 -->
<g id="edge61" class="edge">
<title>Node1&#45;&gt;Node13</title>
<path fill="none" stroke="#191970" d="M608.1503,-403.12C611.2554,-390.1795 615.6051,-366.8074 612.5,-347 608.4511,-321.1724 606.5888,-314.1801 594.5,-291 589.1963,-280.8302 581.6517,-270.572 574.9245,-262.3315"/>
<polygon fill="#191970" stroke="#191970" points="577.4745,-259.9269 568.338,-254.5627 572.1351,-264.4537 577.4745,-259.9269"/>
</g>
<!-- Node14 -->
<g id="node15" class="node">
<title>Node14</title>
<g id="a_node15"><a xlink:href="crypto__types_8h.html" target="_top" xlink:title="Type definitions for PSA Crypto. ">
<polygon fill="#ffffff" stroke="#000000" points="1082.5,-174 1082.5,-193 1168.5,-193 1168.5,-174 1082.5,-174"/>
<text text-anchor="middle" x="1125.5" y="-181" font-family="Helvetica,sans-Serif" font-size="10.00" fill="#000000">crypto_types.h</text>
</a>
</g>
</g>
<!-- Node1&#45;&gt;Node14 -->
<g id="edge62" class="edge">
<title>Node1&#45;&gt;Node14</title>
<path fill="none" stroke="#191970" d="M618.6586,-403.3681C637.7715,-389.6609 674.6364,-364.2768 708.5,-347 841.7455,-279.0197 1010.1956,-220.8857 1085.7089,-196.1843"/>
<polygon fill="#191970" stroke="#191970" points="1086.8801,-199.4839 1095.3065,-193.0615 1084.7142,-192.8274 1086.8801,-199.4839"/>
</g>
<!-- Node31 -->
<g id="node32" class="node">
<title>Node31</title>
<g id="a_node32"><a xlink:href="crypto__struct_8h.html" target="_top" xlink:title="Structure definitions for PSA Crypto. ">
<polygon fill="#ffffff" stroke="#000000" points="516,-347.5 516,-366.5 603,-366.5 603,-347.5 516,-347.5"/>
<text text-anchor="middle" x="559.5" y="-354.5" font-family="Helvetica,sans-Serif" font-size="10.00" fill="#000000">crypto_struct.h</text>
</a>
</g>
</g>
<!-- Node1&#45;&gt;Node31 -->
<g id="edge54" class="edge">
<title>Node1&#45;&gt;Node31</title>
<path fill="none" stroke="#191970" d="M597.4874,-403.2455C591.0232,-395.3761 581.7615,-384.101 574.0017,-374.6542"/>
<polygon fill="#191970" stroke="#191970" points="576.4727,-372.1484 567.4208,-366.6427 571.0636,-376.5916 576.4727,-372.1484"/>
</g>
<!-- Node5 -->
<g id="node6" class="node">
<title>Node5</title>
<g id="a_node6"><a xlink:href="modules_8h.html" target="_top" xlink:title="Common macros and compiler attributes/pragmas configuration. ">
<polygon fill="#ffffff" stroke="#000000" points="15,-112.5 15,-131.5 80,-131.5 80,-112.5 15,-112.5"/>
<text text-anchor="middle" x="47.5" y="-119.5" font-family="Helvetica,sans-Serif" font-size="10.00" fill="#000000">modules.h</text>
</a>
</g>
</g>
<!-- Node4&#45;&gt;Node5 -->
<g id="edge5" class="edge">
<title>Node4&#45;&gt;Node5</title>
<path fill="none" stroke="#191970" d="M47.5,-173.8906C47.5,-165.3657 47.5,-152.6392 47.5,-141.9235"/>
<polygon fill="#191970" stroke="#191970" points="51.0001,-141.7448 47.5,-131.7449 44.0001,-141.7449 51.0001,-141.7448"/>
</g>
<!-- Node6 -->
<g id="node7" class="node">
<title>Node6</title>
<g id="a_node7"><a xlink:href="riot__version_8h.html" target="_top" xlink:title="Common macros and compiler attributes/pragmas configuration. ">
<polygon fill="#ffffff" stroke="#000000" points="212,-112.5 212,-131.5 293,-131.5 293,-112.5 212,-112.5"/>
<text text-anchor="middle" x="252.5" y="-119.5" font-family="Helvetica,sans-Serif" font-size="10.00" fill="#000000">riot_version.h</text>
</a>
</g>
</g>
<!-- Node4&#45;&gt;Node6 -->
<g id="edge6" class="edge">
<title>Node4&#45;&gt;Node6</title>
<path fill="none" stroke="#191970" d="M79.5313,-173.8906C114.8846,-163.2846 171.9157,-146.1753 210.7478,-134.5257"/>
<polygon fill="#191970" stroke="#191970" points="212.1212,-137.7678 220.6937,-131.5419 210.1097,-131.0631 212.1212,-137.7678"/>
</g>
<!-- Node8 -->
<g id="node9" class="node">
<title>Node8</title>
<g id="a_node9"><a xlink:href="compiler__hints_8h.html" target="_top" xlink:title="Common macros and compiler attributes/pragmas configuration. ">
<polygon fill="#ffffff" stroke="#000000" points="320,-112.5 320,-131.5 413,-131.5 413,-112.5 320,-112.5"/>
<text text-anchor="middle" x="366.5" y="-119.5" font-family="Helvetica,sans-Serif" font-size="10.00" fill="#000000">compiler_hints.h</text>
</a>
</g>
</g>
<!-- Node4&#45;&gt;Node8 -->
<g id="edge8" class="edge">
<title>Node4&#45;&gt;Node8</title>
<path fill="none" stroke="#191970" d="M79.9386,-173.9481C87.6267,-171.8438 95.8239,-169.7293 103.5,-168 141.809,-159.3694 244.6164,-142.0127 309.7632,-131.2615"/>
<polygon fill="#191970" stroke="#191970" points="310.5817,-134.6739 319.8798,-129.595 309.4439,-127.767 310.5817,-134.6739"/>
</g>
<!-- Node10 -->
<g id="node11" class="node">
<title>Node10</title>
<g id="a_node11"><a xlink:href="container_8h.html" target="_top" xlink:title="Common macros and compiler attributes/pragmas configuration. ">
<polygon fill="#ffffff" stroke="#000000" points="107,-112.5 107,-131.5 176,-131.5 176,-112.5 107,-112.5"/>
<text text-anchor="middle" x="141.5" y="-119.5" font-family="Helvetica,sans-Serif" font-size="10.00" fill="#000000">container.h</text>
</a>
</g>
</g>
<!-- Node4&#45;&gt;Node10 -->
<g id="edge12" class="edge">
<title>Node4&#45;&gt;Node10</title>
<path fill="none" stroke="#191970" d="M62.1875,-173.8906C77.2256,-164.0519 100.8176,-148.6167 118.3667,-137.1351"/>
<polygon fill="#191970" stroke="#191970" points="120.4637,-139.9457 126.9156,-131.5419 116.6313,-134.088 120.4637,-139.9457"/>
</g>
<!-- Node7 -->
<g id="node8" class="node">
<title>Node7</title>
<polygon fill="#ffffff" stroke="#bfbfbf" points="808.5,-.5 808.5,-19.5 860.5,-19.5 860.5,-.5 808.5,-.5"/>
<text text-anchor="middle" x="834.5" y="-7.5" font-family="Helvetica,sans-Serif" font-size="10.00" fill="#000000">stdint.h</text>
</g>
<!-- Node6&#45;&gt;Node7 -->
<g id="edge7" class="edge">
<title>Node6&#45;&gt;Node7</title>
<path fill="none" stroke="#191970" d="M275.0919,-112.4596C310.5217,-97.9067 381.6117,-70.344 444.5,-56 572.5305,-26.7978 728.6792,-15.4983 798.1571,-11.693"/>
<polygon fill="#191970" stroke="#191970" points="798.3549,-15.1875 808.1563,-11.1648 797.9855,-8.1973 798.3549,-15.1875"/>
</g>
<!-- Node8&#45;&gt;Node7 -->
<g id="edge11" class="edge">
<title>Node8&#45;&gt;Node7</title>
<path fill="none" stroke="#191970" d="M406.4014,-112.4509C496.1452,-90.9738 712.7453,-39.1379 798.5877,-18.5944"/>
<polygon fill="#191970" stroke="#191970" points="799.48,-21.9798 808.3908,-16.2484 797.8507,-15.172 799.48,-21.9798"/>
</g>
<!-- Node9 -->
<g id="node10" class="node">
<title>Node9</title>
<g id="a_node10"><a xlink:href="assert_8h.html" target="_top" xlink:title="POSIX.1&#45;2008 compliant version of the assert macro. ">
<polygon fill="#ffffff" stroke="#000000" points="453.5,-56.5 453.5,-75.5 507.5,-75.5 507.5,-56.5 453.5,-56.5"/>
<text text-anchor="middle" x="480.5" y="-63.5" font-family="Helvetica,sans-Serif" font-size="10.00" fill="#000000">assert.h</text>
</a>
</g>
</g>
<!-- Node8&#45;&gt;Node9 -->
<g id="edge9" class="edge">
<title>Node8&#45;&gt;Node9</title>
<path fill="none" stroke="#191970" d="M386.0973,-112.3733C404.2331,-103.4644 431.4135,-90.1127 451.9587,-80.0203"/>
<polygon fill="#191970" stroke="#191970" points="453.7261,-83.0517 461.1584,-75.5011 450.6397,-76.7688 453.7261,-83.0517"/>
</g>
<!-- Node9&#45;&gt;Node7 -->
<g id="edge10" class="edge">
<title>Node9&#45;&gt;Node7</title>
<path fill="none" stroke="#191970" d="M507.69,-61.6988C570.6744,-51.7351 726.6223,-27.0654 797.8993,-15.7899"/>
<polygon fill="#191970" stroke="#191970" points="798.8525,-19.1828 808.1828,-14.1632 797.7587,-12.2687 798.8525,-19.1828"/>
</g>
<!-- Node10&#45;&gt;Node7 -->
<g id="edge14" class="edge">
<title>Node10&#45;&gt;Node7</title>
<path fill="none" stroke="#191970" d="M141.1127,-112.0616C141.136,-97.2407 143.6165,-69.634 160.5,-56 185.487,-35.8221 661.2645,-16.4932 798.0234,-11.3361"/>
<polygon fill="#191970" stroke="#191970" points="798.5106,-14.8204 808.3726,-10.9485 798.2486,-7.8253 798.5106,-14.8204"/>
</g>
<!-- Node11 -->
<g id="node12" class="node">
<title>Node11</title>
<polygon fill="#ffffff" stroke="#bfbfbf" points="169.5,-56.5 169.5,-75.5 225.5,-75.5 225.5,-56.5 169.5,-56.5"/>
<text text-anchor="middle" x="197.5" y="-63.5" font-family="Helvetica,sans-Serif" font-size="10.00" fill="#000000">stddef.h</text>
</g>
<!-- Node10&#45;&gt;Node11 -->
<g id="edge13" class="edge">
<title>Node10&#45;&gt;Node11</title>
<path fill="none" stroke="#191970" d="M151.2545,-112.2455C159.3648,-104.1352 171.0925,-92.4075 180.7081,-82.7919"/>
<polygon fill="#191970" stroke="#191970" points="183.2611,-85.1887 187.8573,-75.6427 178.3113,-80.2389 183.2611,-85.1887"/>
</g>
<!-- Node12&#45;&gt;Node4 -->
<g id="edge16" class="edge">
<title>Node12&#45;&gt;Node4</title>
<path fill="none" stroke="#191970" d="M395.8059,-291.484C327.7547,-270.3864 164.2205,-219.6864 87.9453,-196.0391"/>
<polygon fill="#191970" stroke="#191970" points="88.8037,-192.6409 78.2157,-193.0227 86.7308,-199.327 88.8037,-192.6409"/>
</g>
<!-- Node12&#45;&gt;Node13 -->
<g id="edge17" class="edge">
<title>Node12&#45;&gt;Node13</title>
<path fill="none" stroke="#191970" d="M449.3635,-291.3733C470.905,-282.3032 503.3838,-268.6279 527.4956,-258.4755"/>
<polygon fill="#191970" stroke="#191970" points="529.0767,-261.6075 536.9348,-254.5011 526.3603,-255.156 529.0767,-261.6075"/>
</g>
<!-- Node13&#45;&gt;Node14 -->
<g id="edge18" class="edge">
<title>Node13&#45;&gt;Node14</title>
<path fill="none" stroke="#191970" d="M604.2163,-236.9914C609.029,-236.2578 613.8605,-235.5756 618.5,-235 819.811,-210.026 874.0821,-236.1795 1073.5,-199 1078.0508,-198.1516 1082.7705,-197.0577 1087.4266,-195.8439"/>
<polygon fill="#191970" stroke="#191970" points="1088.7417,-199.1104 1097.4278,-193.0439 1086.8545,-192.3696 1088.7417,-199.1104"/>
</g>
<!-- Node23 -->
<g id="node24" class="node">
<title>Node23</title>
<g id="a_node24"><a xlink:href="hash_2algorithm_8h.html" target="_top" xlink:title="Hash algorithm definitions for the PSA Crypto API. ">
<polygon fill="#ffffff" stroke="#000000" points="545.5,-112.5 545.5,-131.5 661.5,-131.5 661.5,-112.5 545.5,-112.5"/>
<text text-anchor="middle" x="603.5" y="-119.5" font-family="Helvetica,sans-Serif" font-size="10.00" fill="#000000">psa/hash/algorithm.h</text>
</a>
</g>
</g>
<!-- Node13&#45;&gt;Node23 -->
<g id="edge36" class="edge">
<title>Node13&#45;&gt;Node23</title>
<path fill="none" stroke="#191970" d="M565.3142,-235.4295C570.6436,-226.3267 578.4513,-212.1137 583.5,-199 590.7675,-180.1231 596.2654,-157.6441 599.6398,-141.8623"/>
<polygon fill="#191970" stroke="#191970" points="603.1431,-142.2 601.7166,-131.7017 596.2849,-140.7982 603.1431,-142.2"/>
</g>
<!-- Node24 -->
<g id="node25" class="node">
<title>Node24</title>
<g id="a_node25"><a xlink:href="mac_2algorithm_8h.html" target="_top" xlink:title="MAC algorithm definitions for the PSA Crypto API. ">
<polygon fill="#ffffff" stroke="#000000" points="461,-174 461,-193 574,-193 574,-174 461,-174"/>
<text text-anchor="middle" x="517.5" y="-181" font-family="Helvetica,sans-Serif" font-size="10.00" fill="#000000">psa/mac/algorithm.h</text>
</a>
</g>
</g>
<!-- Node13&#45;&gt;Node24 -->
<g id="edge38" class="edge">
<title>Node13&#45;&gt;Node24</title>
<path fill="none" stroke="#191970" d="M552.9375,-235.3906C546.8092,-226.417 537.5015,-212.7879 529.9628,-201.7491"/>
<polygon fill="#191970" stroke="#191970" points="532.685,-199.529 524.155,-193.2449 526.9044,-203.4768 532.685,-199.529"/>
</g>
<!-- Node25 -->
<g id="node26" class="node">
<title>Node25</title>
<g id="a_node26"><a xlink:href="cipher_2algorithm_8h.html" target="_top" xlink:title="Cipher algorithm definitions for the PSA Crypto API. ">
<polygon fill="#ffffff" stroke="#000000" points="756,-112.5 756,-131.5 879,-131.5 879,-112.5 756,-112.5"/>
<text text-anchor="middle" x="817.5" y="-119.5" font-family="Helvetica,sans-Serif" font-size="10.00" fill="#000000">psa/cipher/algorithm.h</text>
</a>
</g>
</g>
<!-- Node13&#45;&gt;Node25 -->
<g id="edge41" class="edge">
<title>Node13&#45;&gt;Node25</title>
<path fill="none" stroke="#191970" d="M604.2469,-237.2159C609.0537,-236.4394 613.8755,-235.6858 618.5,-235 681.21,-225.701 859.5963,-246.5719 901.5,-199 910.6069,-188.6612 908.5232,-179.8534 901.5,-168 892.6564,-153.0742 877.0668,-142.6736 861.6998,-135.589"/>
<polygon fill="#191970" stroke="#191970" points="862.7971,-132.2534 852.2227,-131.5956 860.0789,-138.7041 862.7971,-132.2534"/>
</g>
<!-- Node26 -->
<g id="node27" class="node">
<title>Node26</title>
<g id="a_node27"><a xlink:href="aead_2algorithm_8h.html" target="_top" xlink:title="AEAD algorithm definitions for the PSA Crypto API. ">
<polygon fill="#ffffff" stroke="#000000" points="948.5,-174 948.5,-193 1064.5,-193 1064.5,-174 948.5,-174"/>
<text text-anchor="middle" x="1006.5" y="-181" font-family="Helvetica,sans-Serif" font-size="10.00" fill="#000000">psa/aead/algorithm.h</text>
</a>
</g>
</g>
<!-- Node13&#45;&gt;Node26 -->
<g id="edge43" class="edge">
<title>Node13&#45;&gt;Node26</title>
<path fill="none" stroke="#191970" d="M604.238,-237.1542C609.0464,-236.3895 613.8711,-235.6555 618.5,-235 758.4567,-215.182 795.0148,-221.9021 934.5,-199 941.2819,-197.8865 948.3899,-196.5573 955.3882,-195.152"/>
<polygon fill="#191970" stroke="#191970" points="956.4299,-198.5106 965.5121,-193.055 955.01,-191.6561 956.4299,-198.5106"/>
</g>
<!-- Node27 -->
<g id="node28" class="node">
<title>Node27</title>
<g id="a_node28"><a xlink:href="key__agreement_2algorithm_8h.html" target="_top" xlink:title="Key agreement algorithm definitions for the PSA Crypto API. ">
<polygon fill="#ffffff" stroke="#000000" points="113,-174 113,-193 280,-193 280,-174 113,-174"/>
<text text-anchor="middle" x="196.5" y="-181" font-family="Helvetica,sans-Serif" font-size="10.00" fill="#000000">psa/key_agreement/algorithm.h</text>
</a>
</g>
</g>
<!-- Node13&#45;&gt;Node27 -->
<g id="edge45" class="edge">
<title>Node13&#45;&gt;Node27</title>
<path fill="none" stroke="#191970" d="M514.9891,-237.4589C451.8848,-226.7677 335.9605,-207.1276 262.7353,-194.7217"/>
<polygon fill="#191970" stroke="#191970" points="263.1404,-191.2405 252.6962,-193.0208 261.971,-198.1422 263.1404,-191.2405"/>
</g>
<!-- Node28 -->
<g id="node29" class="node">
<title>Node28</title>
<g id="a_node29"><a xlink:href="key__derivation_2algorithm_8h.html" target="_top" xlink:title="Key derivation algorithm definitions for the PSA Crypto API. ">
<polygon fill="#ffffff" stroke="#000000" points="788.5,-168.5 788.5,-198.5 892.5,-198.5 892.5,-168.5 788.5,-168.5"/>
<text text-anchor="start" x="796.5" y="-186.5" font-family="Helvetica,sans-Serif" font-size="10.00" fill="#000000">psa/key_derivation</text>
<text text-anchor="middle" x="840.5" y="-175.5" font-family="Helvetica,sans-Serif" font-size="10.00" fill="#000000">/algorithm.h</text>
</a>
</g>
</g>
<!-- Node13&#45;&gt;Node28 -->
<g id="edge47" class="edge">
<title>Node13&#45;&gt;Node28</title>
<path fill="none" stroke="#191970" d="M604.2865,-236.2185C646.6531,-227.7811 712.2589,-214.3807 778.1462,-199.2632"/>
<polygon fill="#191970" stroke="#191970" points="779.3353,-202.5809 788.2923,-196.9219 777.7613,-195.7601 779.3353,-202.5809"/>
</g>
<!-- Node29 -->
<g id="node30" class="node">
<title>Node29</title>
<g id="a_node30"><a xlink:href="asymmetric__encryption_2algorithm_8h.html" target="_top" xlink:title="Asymmetric encryption algorithm definitions for the PSA Crypto API. ">
<polygon fill="#ffffff" stroke="#000000" points="298,-168.5 298,-198.5 443,-198.5 443,-168.5 298,-168.5"/>
<text text-anchor="start" x="306" y="-186.5" font-family="Helvetica,sans-Serif" font-size="10.00" fill="#000000">psa/asymmetric_encryption</text>
<text text-anchor="middle" x="370.5" y="-175.5" font-family="Helvetica,sans-Serif" font-size="10.00" fill="#000000">/algorithm.h</text>
</a>
</g>
</g>
<!-- Node13&#45;&gt;Node29 -->
<g id="edge49" class="edge">
<title>Node13&#45;&gt;Node29</title>
<path fill="none" stroke="#191970" d="M529.9688,-235.3906C502.3767,-226.4123 460.4625,-212.7735 426.5289,-201.7316"/>
<polygon fill="#191970" stroke="#191970" points="427.3269,-198.3107 416.7346,-198.5446 425.1608,-204.9672 427.3269,-198.3107"/>
</g>
<!-- Node30 -->
<g id="node31" class="node">
<title>Node30</title>
<g id="a_node31"><a xlink:href="asymmetric__signature_2algorithm_8h.html" target="_top" xlink:title="Asymmetric signature algorithm definitions for the PSA Crypto API. ">
<polygon fill="#ffffff" stroke="#000000" points="631,-168.5 631,-198.5 770,-198.5 770,-168.5 631,-168.5"/>
<text text-anchor="start" x="639" y="-186.5" font-family="Helvetica,sans-Serif" font-size="10.00" fill="#000000">psa/asymmetric_signature</text>
<text text-anchor="middle" x="700.5" y="-175.5" font-family="Helvetica,sans-Serif" font-size="10.00" fill="#000000">/algorithm.h</text>
</a>
</g>
</g>
<!-- Node13&#45;&gt;Node30 -->
<g id="edge51" class="edge">
<title>Node13&#45;&gt;Node30</title>
<path fill="none" stroke="#191970" d="M581.5313,-235.3906C601.5857,-226.6435 631.7818,-213.4728 656.7334,-202.5897"/>
<polygon fill="#191970" stroke="#191970" points="658.2408,-205.7507 666.0075,-198.5446 655.4422,-199.3345 658.2408,-205.7507"/>
</g>
<!-- Node14&#45;&gt;Node7 -->
<g id="edge19" class="edge">
<title>Node14&#45;&gt;Node7</title>
<path fill="none" stroke="#191970" d="M1126.3768,-173.7918C1127.9513,-149.8835 1128.3855,-87.8025 1094.5,-56 1062.6796,-26.1356 934.3689,-15.2489 870.6995,-11.6305"/>
<polygon fill="#191970" stroke="#191970" points="870.8686,-8.1347 860.6948,-11.0918 870.4921,-15.1245 870.8686,-8.1347"/>
</g>
<!-- Node15 -->
<g id="node16" class="node">
<title>Node15</title>
<g id="a_node16"><a xlink:href="algorithm_8h_source.html" target="_top" xlink:title="psa/algorithm.h">
<polygon fill="#ffffff" stroke="#000000" points="666.5,-56.5 666.5,-75.5 756.5,-75.5 756.5,-56.5 666.5,-56.5"/>
<text text-anchor="middle" x="711.5" y="-63.5" font-family="Helvetica,sans-Serif" font-size="10.00" fill="#000000">psa/algorithm.h</text>
</a>
</g>
</g>
<!-- Node14&#45;&gt;Node15 -->
<g id="edge20" class="edge">
<title>Node14&#45;&gt;Node15</title>
<path fill="none" stroke="#191970" d="M1094.4081,-173.9264C1054.9858,-161.7124 989.2851,-141.0837 965.5,-132 945.054,-124.1915 941.2929,-118.8314 920.5,-112 892.4554,-102.7862 818.6987,-87.287 766.785,-76.8555"/>
<polygon fill="#191970" stroke="#191970" points="767.2059,-73.3704 756.7135,-74.8402 765.8324,-80.2344 767.2059,-73.3704"/>
</g>
<!-- Node16 -->
<g id="node17" class="node">
<title>Node16</title>
<g id="a_node17"><a xlink:href="psa__crypto_2psa_2error_8h_source.html" target="_top" xlink:title="psa/error.h">
<polygon fill="#ffffff" stroke="#000000" points="1141.5,-112.5 1141.5,-131.5 1211.5,-131.5 1211.5,-112.5 1141.5,-112.5"/>
<text text-anchor="middle" x="1176.5" y="-119.5" font-family="Helvetica,sans-Serif" font-size="10.00" fill="#000000">psa/error.h</text>
</a>
</g>
</g>
<!-- Node14&#45;&gt;Node16 -->
<g id="edge22" class="edge">
<title>Node14&#45;&gt;Node16</title>
<path fill="none" stroke="#191970" d="M1133.4688,-173.8906C1141.0591,-164.7376 1152.6661,-150.7409 1161.9132,-139.59"/>
<polygon fill="#191970" stroke="#191970" points="1164.7297,-141.6766 1168.4189,-131.7449 1159.3413,-137.2083 1164.7297,-141.6766"/>
</g>
<!-- Node17 -->
<g id="node18" class="node">
<title>Node17</title>
<g id="a_node18"><a xlink:href="attributes_8h.html" target="_top" xlink:title="Key attributes definitions for the PSA Crypto API. ">
<polygon fill="#ffffff" stroke="#000000" points="974,-112.5 974,-131.5 1085,-131.5 1085,-112.5 974,-112.5"/>
<text text-anchor="middle" x="1029.5" y="-119.5" font-family="Helvetica,sans-Serif" font-size="10.00" fill="#000000">psa/key/attributes.h</text>
</a>
</g>
</g>
<!-- Node14&#45;&gt;Node17 -->
<g id="edge24" class="edge">
<title>Node14&#45;&gt;Node17</title>
<path fill="none" stroke="#191970" d="M1110.5,-173.8906C1095.1419,-164.0519 1071.0479,-148.6167 1053.1255,-137.1351"/>
<polygon fill="#191970" stroke="#191970" points="1054.703,-133.9891 1044.3947,-131.5419 1050.927,-139.8833 1054.703,-133.9891"/>
</g>
<!-- Node15&#45;&gt;Node7 -->
<g id="edge21" class="edge">
<title>Node15&#45;&gt;Node7</title>
<path fill="none" stroke="#191970" d="M732.6445,-56.3733C752.3892,-47.3838 782.0698,-33.8706 804.3055,-23.7471"/>
<polygon fill="#191970" stroke="#191970" points="805.9806,-26.8302 813.6315,-19.5011 803.08,-20.4594 805.9806,-26.8302"/>
</g>
<!-- Node16&#45;&gt;Node7 -->
<g id="edge23" class="edge">
<title>Node16&#45;&gt;Node7</title>
<path fill="none" stroke="#191970" d="M1172.3843,-112.4993C1165.4522,-97.7396 1149.9689,-69.5892 1127.5,-56 1084.9459,-30.2631 939.7902,-17.1758 871.0982,-12.3018"/>
<polygon fill="#191970" stroke="#191970" points="870.9745,-8.7851 860.7576,-11.5894 870.4933,-15.7685 870.9745,-8.7851"/>
</g>
<!-- Node17&#45;&gt;Node15 -->
<g id="edge25" class="edge">
<title>Node17&#45;&gt;Node15</title>
<path fill="none" stroke="#191970" d="M974.322,-112.4598C921.093,-103.2303 838.2574,-88.7986 766.5,-76 766.3985,-75.9819 766.2969,-75.9638 766.1951,-75.9456"/>
<polygon fill="#191970" stroke="#191970" points="766.9793,-72.5305 756.5185,-74.2105 765.7438,-79.4206 766.9793,-72.5305"/>
</g>
<!-- Node18 -->
<g id="node19" class="node">
<title>Node18</title>
<g id="a_node19"><a xlink:href="bits_8h.html" target="_top" xlink:title="Key size definitions for the PSA Crypto API. ">
<polygon fill="#ffffff" stroke="#000000" points="846.5,-56.5 846.5,-75.5 888.5,-75.5 888.5,-56.5 846.5,-56.5"/>
<text text-anchor="middle" x="867.5" y="-63.5" font-family="Helvetica,sans-Serif" font-size="10.00" fill="#000000">bits.h</text>
</a>
</g>
</g>
<!-- Node17&#45;&gt;Node18 -->
<g id="edge26" class="edge">
<title>Node17&#45;&gt;Node18</title>
<path fill="none" stroke="#191970" d="M1001.6512,-112.3733C972.879,-102.4273 928.0875,-86.9438 898.2809,-76.6403"/>
<polygon fill="#191970" stroke="#191970" points="899.3866,-73.3194 888.7918,-73.3601 897.0996,-79.9352 899.3866,-73.3194"/>
</g>
<!-- Node19 -->
<g id="node20" class="node">
<title>Node19</title>
<g id="a_node20"><a xlink:href="id_8h.html" target="_top" xlink:title="Key ID definitions for the PSA Crypto API. ">
<polygon fill="#ffffff" stroke="#000000" points="906.5,-56.5 906.5,-75.5 940.5,-75.5 940.5,-56.5 906.5,-56.5"/>
<text text-anchor="middle" x="923.5" y="-63.5" font-family="Helvetica,sans-Serif" font-size="10.00" fill="#000000">id.h</text>
</a>
</g>
</g>
<!-- Node17&#45;&gt;Node19 -->
<g id="edge28" class="edge">
<title>Node17&#45;&gt;Node19</title>
<path fill="none" stroke="#191970" d="M1011.0362,-112.2455C994.0881,-103.2918 968.7946,-89.9292 949.7484,-79.8671"/>
<polygon fill="#191970" stroke="#191970" points="951.1771,-76.6635 940.7002,-75.0869 947.9072,-82.8528 951.1771,-76.6635"/>
</g>
<!-- Node20 -->
<g id="node21" class="node">
<title>Node20</title>
<g id="a_node21"><a xlink:href="lifetime_8h.html" target="_top" xlink:title="Key ilfetime definitions for the PSA Crypto API. ">
<polygon fill="#ffffff" stroke="#000000" points="959,-56.5 959,-75.5 1020,-75.5 1020,-56.5 959,-56.5"/>
<text text-anchor="middle" x="989.5" y="-63.5" font-family="Helvetica,sans-Serif" font-size="10.00" fill="#000000">lifetime.h</text>
</a>
</g>
</g>
<!-- Node17&#45;&gt;Node20 -->
<g id="edge30" class="edge">
<title>Node17&#45;&gt;Node20</title>
<path fill="none" stroke="#191970" d="M1022.5325,-112.2455C1016.9689,-104.4564 1009.022,-93.3308 1002.3171,-83.9439"/>
<polygon fill="#191970" stroke="#191970" points="1005.0481,-81.7457 996.3876,-75.6427 999.352,-85.8144 1005.0481,-81.7457"/>
</g>
<!-- Node21 -->
<g id="node22" class="node">
<title>Node21</title>
<g id="a_node22"><a xlink:href="psa__crypto_2psa_2key_2type_8h.html" target="_top" xlink:title="Key type definitions for the PSA Crypto API. ">
<polygon fill="#ffffff" stroke="#000000" points="1038,-56.5 1038,-75.5 1085,-75.5 1085,-56.5 1038,-56.5"/>
<text text-anchor="middle" x="1061.5" y="-63.5" font-family="Helvetica,sans-Serif" font-size="10.00" fill="#000000">type.h</text>
</a>
</g>
</g>
<!-- Node17&#45;&gt;Node21 -->
<g id="edge32" class="edge">
<title>Node17&#45;&gt;Node21</title>
<path fill="none" stroke="#191970" d="M1035.074,-112.2455C1039.4331,-104.617 1045.6211,-93.7881 1050.9133,-84.5267"/>
<polygon fill="#191970" stroke="#191970" points="1054.0673,-86.0616 1055.9899,-75.6427 1047.9896,-82.5886 1054.0673,-86.0616"/>
</g>
<!-- Node22 -->
<g id="node23" class="node">
<title>Node22</title>
<g id="a_node23"><a xlink:href="usage_8h.html" target="_top" xlink:title="Key usage definitions for the PSA Crypto API. ">
<polygon fill="#ffffff" stroke="#000000" points="775,-56.5 775,-75.5 828,-75.5 828,-56.5 775,-56.5"/>
<text text-anchor="middle" x="801.5" y="-63.5" font-family="Helvetica,sans-Serif" font-size="10.00" fill="#000000">usage.h</text>
</a>
</g>
</g>
<!-- Node17&#45;&gt;Node22 -->
<g id="edge34" class="edge">
<title>Node17&#45;&gt;Node22</title>
<path fill="none" stroke="#191970" d="M987.8202,-112.4677C950.9876,-103.9426 895.5762,-90.8716 838.1849,-76.1114"/>
<polygon fill="#191970" stroke="#191970" points="838.7654,-72.6466 828.2077,-73.5334 837.0141,-79.4239 838.7654,-72.6466"/>
</g>
<!-- Node18&#45;&gt;Node7 -->
<g id="edge27" class="edge">
<title>Node18&#45;&gt;Node7</title>
<path fill="none" stroke="#191970" d="M861.7518,-56.2455C857.2565,-48.617 850.8752,-37.7881 845.4175,-28.5267"/>
<polygon fill="#191970" stroke="#191970" points="848.2747,-26.4811 840.1823,-19.6427 842.2439,-30.035 848.2747,-26.4811"/>
</g>
<!-- Node19&#45;&gt;Node7 -->
<g id="edge29" class="edge">
<title>Node19&#45;&gt;Node7</title>
<path fill="none" stroke="#191970" d="M907.9974,-56.2455C894.342,-47.6534 874.2343,-35.0014 858.5011,-25.1018"/>
<polygon fill="#191970" stroke="#191970" points="860.1529,-22.006 849.825,-19.6427 856.4249,-27.9307 860.1529,-22.006"/>
</g>
<!-- Node20&#45;&gt;Node7 -->
<g id="edge31" class="edge">
<title>Node20&#45;&gt;Node7</title>
<path fill="none" stroke="#191970" d="M962.8546,-56.3733C937.2261,-47.114 898.3138,-33.0553 870.0526,-22.8448"/>
<polygon fill="#191970" stroke="#191970" points="871.1341,-19.5142 860.5398,-19.4079 868.7555,-26.0977 871.1341,-19.5142"/>
</g>
<!-- Node21&#45;&gt;Node7 -->
<g id="edge33" class="edge">
<title>Node21&#45;&gt;Node7</title>
<path fill="none" stroke="#191970" d="M1037.7898,-58.3842C1035.0038,-57.5506 1032.1946,-56.7379 1029.5,-56 974.3745,-40.9053 909.6777,-26.2366 870.4073,-17.6659"/>
<polygon fill="#191970" stroke="#191970" points="871.0285,-14.2193 860.5136,-15.5184 869.5436,-21.06 871.0285,-14.2193"/>
</g>
<!-- Node22&#45;&gt;Node7 -->
<g id="edge35" class="edge">
<title>Node22&#45;&gt;Node7</title>
<path fill="none" stroke="#191970" d="M807.2482,-56.2455C811.7435,-48.617 818.1248,-37.7881 823.5825,-28.5267"/>
<polygon fill="#191970" stroke="#191970" points="826.7561,-30.035 828.8177,-19.6427 820.7253,-26.4811 826.7561,-30.035"/>
</g>
<!-- Node23&#45;&gt;Node15 -->
<g id="edge37" class="edge">
<title>Node23&#45;&gt;Node15</title>
<path fill="none" stroke="#191970" d="M622.3122,-112.2455C639.3473,-103.4125 664.6575,-90.2887 683.9681,-80.2758"/>
<polygon fill="#191970" stroke="#191970" points="685.637,-83.353 692.9034,-75.6427 682.4147,-77.1388 685.637,-83.353"/>
</g>
<!-- Node24&#45;&gt;Node15 -->
<g id="edge39" class="edge">
<title>Node24&#45;&gt;Node15</title>
<path fill="none" stroke="#191970" d="M517.1925,-173.6743C517.272,-158.3243 519.7665,-128.6885 536.5,-112 553.3534,-95.1919 611.5748,-82.1643 656.2832,-74.3311"/>
<polygon fill="#191970" stroke="#191970" points="656.9028,-77.776 666.1715,-72.6436 655.7251,-70.8758 656.9028,-77.776"/>
</g>
<!-- Node24&#45;&gt;Node23 -->
<g id="edge40" class="edge">
<title>Node24&#45;&gt;Node23</title>
<path fill="none" stroke="#191970" d="M530.9375,-173.8906C544.5695,-164.1421 565.8846,-148.8994 581.8922,-137.4521"/>
<polygon fill="#191970" stroke="#191970" points="584.0586,-140.2057 590.1569,-131.5419 579.9868,-134.5118 584.0586,-140.2057"/>
</g>
<!-- Node25&#45;&gt;Node15 -->
<g id="edge42" class="edge">
<title>Node25&#45;&gt;Node15</title>
<path fill="none" stroke="#191970" d="M799.0362,-112.2455C782.3926,-103.4527 757.7007,-90.4079 738.7808,-80.4125"/>
<polygon fill="#191970" stroke="#191970" points="740.2291,-77.2193 729.7522,-75.6427 736.9592,-83.4086 740.2291,-77.2193"/>
</g>
<!-- Node26&#45;&gt;Node15 -->
<g id="edge44" class="edge">
<title>Node26&#45;&gt;Node15</title>
<path fill="none" stroke="#191970" d="M993.3838,-173.7824C972.2984,-158.5804 929.1035,-129.1437 888.5,-112 866.1807,-102.5763 807.5692,-88.0406 763.868,-77.8369"/>
<polygon fill="#191970" stroke="#191970" points="764.4837,-74.3869 753.9514,-75.5358 762.9014,-81.2057 764.4837,-74.3869"/>
</g>
<!-- Node27&#45;&gt;Node15 -->
<g id="edge46" class="edge">
<title>Node27&#45;&gt;Node15</title>
<path fill="none" stroke="#191970" d="M250.6554,-173.9766C296.901,-165.1785 364.8819,-150.6593 422.5,-132 444.0972,-125.0059 447.7797,-118.602 469.5,-112 532.1489,-92.9575 606.4236,-80.2387 656.0079,-73.0909"/>
<polygon fill="#191970" stroke="#191970" points="656.7893,-76.5153 666.2009,-71.6499 655.8094,-69.5842 656.7893,-76.5153"/>
</g>
<!-- Node28&#45;&gt;Node15 -->
<g id="edge48" class="edge">
<title>Node28&#45;&gt;Node15</title>
<path fill="none" stroke="#191970" d="M802.4042,-168.4242C784.1643,-159.8031 762.9804,-147.5795 747.5,-132 734.1748,-118.5895 724.4038,-99.226 718.4308,-84.9388"/>
<polygon fill="#191970" stroke="#191970" points="721.672,-83.6169 714.7563,-75.5905 715.1572,-86.1777 721.672,-83.6169"/>
</g>
<!-- Node29&#45;&gt;Node15 -->
<g id="edge50" class="edge">
<title>Node29&#45;&gt;Node15</title>
<path fill="none" stroke="#191970" d="M397.6855,-168.4122C427.1864,-152.5506 476.0413,-127.7553 520.5,-112 565.2101,-96.1556 617.7108,-83.9506 656.3427,-76.1068"/>
<polygon fill="#191970" stroke="#191970" points="657.2302,-79.4987 666.3517,-74.109 655.86,-72.6342 657.2302,-79.4987"/>
</g>
<!-- Node30&#45;&gt;Node15 -->
<g id="edge52" class="edge">
<title>Node30&#45;&gt;Node15</title>
<path fill="none" stroke="#191970" d="M701.9381,-168.1389C703.9199,-146.9692 707.4916,-108.8174 709.6641,-85.6112"/>
<polygon fill="#191970" stroke="#191970" points="713.1576,-85.8422 710.6051,-75.5595 706.1881,-85.1897 713.1576,-85.8422"/>
</g>
<!-- Node30&#45;&gt;Node23 -->
<g id="edge53" class="edge">
<title>Node30&#45;&gt;Node23</title>
<path fill="none" stroke="#191970" d="M676.5225,-168.2977C661.5624,-158.8127 642.378,-146.6495 627.4274,-137.1705"/>
<polygon fill="#191970" stroke="#191970" points="629.061,-134.062 618.7413,-131.6633 625.3127,-139.9739 629.061,-134.062"/>
</g>
<!-- Node31&#45;&gt;Node12 -->
<g id="edge56" class="edge">
<title>Node31&#45;&gt;Node12</title>
<path fill="none" stroke="#191970" d="M536.6365,-347.3733C515.095,-338.3032 482.6162,-324.6279 458.5044,-314.4755"/>
<polygon fill="#191970" stroke="#191970" points="459.6397,-311.156 449.0652,-310.5011 456.9233,-317.6075 459.6397,-311.156"/>
</g>
<!-- Node31&#45;&gt;Node14 -->
<g id="edge55" class="edge">
<title>Node31&#45;&gt;Node14</title>
<path fill="none" stroke="#191970" d="M567.319,-347.1368C588.6603,-320.5011 648.1357,-248.2321 675.5,-235 755.449,-196.3403 986.2918,-215.7673 1073.5,-199 1077.9925,-198.1362 1082.6517,-197.0424 1087.2528,-195.8369"/>
<polygon fill="#191970" stroke="#191970" points="1088.4603,-199.1335 1097.1453,-193.0654 1086.5718,-192.393 1088.4603,-199.1335"/>
</g>
<!-- Node32 -->
<g id="node33" class="node">
<title>Node32</title>
<g id="a_node33"><a xlink:href="crypto__contexts_8h.html" target="_top" xlink:title="Context definitions for PSA Crypto. ">
<polygon fill="#ffffff" stroke="#000000" points="485.5,-291.5 485.5,-310.5 585.5,-310.5 585.5,-291.5 485.5,-291.5"/>
<text text-anchor="middle" x="535.5" y="-298.5" font-family="Helvetica,sans-Serif" font-size="10.00" fill="#000000">crypto_contexts.h</text>
</a>
</g>
</g>
<!-- Node31&#45;&gt;Node32 -->
<g id="edge57" class="edge">
<title>Node31&#45;&gt;Node32</title>
<path fill="none" stroke="#191970" d="M555.3195,-347.2455C552.119,-339.7776 547.604,-329.2427 543.6916,-320.1137"/>
<polygon fill="#191970" stroke="#191970" points="546.7888,-318.4554 539.6326,-310.6427 540.3548,-321.2129 546.7888,-318.4554"/>
</g>
<!-- Node32&#45;&gt;Node4 -->
<g id="edge58" class="edge">
<title>Node32&#45;&gt;Node4</title>
<path fill="none" stroke="#191970" d="M495.4581,-291.4478C441.445,-278.5733 342.2377,-254.9631 257.5,-235 189.0833,-218.8819 171.6074,-216.3786 103.5,-199 99.4313,-197.9618 95.2053,-196.8515 90.9805,-195.7198"/>
<polygon fill="#191970" stroke="#191970" points="91.7676,-192.3069 81.1999,-193.0648 89.9337,-199.0624 91.7676,-192.3069"/>
</g>
<!-- Node33 -->
<g id="node34" class="node">
<title>Node33</title>
<g id="a_node34"><a xlink:href="crypto__includes_8h_source.html" target="_top" xlink:title="psa/crypto_includes.h">
<polygon fill="#ffffff" stroke="#000000" points="371,-235.5 371,-254.5 488,-254.5 488,-235.5 371,-235.5"/>
<text text-anchor="middle" x="429.5" y="-242.5" font-family="Helvetica,sans-Serif" font-size="10.00" fill="#000000">psa/crypto_includes.h</text>
</a>
</g>
</g>
<!-- Node32&#45;&gt;Node33 -->
<g id="edge59" class="edge">
<title>Node32&#45;&gt;Node33</title>
<path fill="none" stroke="#191970" d="M517.0362,-291.2455C500.3926,-282.4527 475.7007,-269.4079 456.7808,-259.4125"/>
<polygon fill="#191970" stroke="#191970" points="458.2291,-256.2193 447.7522,-254.6427 454.9592,-262.4086 458.2291,-256.2193"/>
</g>
<!-- Node33&#45;&gt;Node4 -->
<g id="edge60" class="edge">
<title>Node33&#45;&gt;Node4</title>
<path fill="none" stroke="#191970" d="M370.6851,-237.6339C291.0694,-227.5016 153.2343,-209.3461 103.5,-199 98.8087,-198.0241 93.9304,-196.8767 89.096,-195.6551"/>
<polygon fill="#191970" stroke="#191970" points="89.8702,-192.2396 79.3083,-193.0744 88.0855,-199.0083 89.8702,-192.2396"/>
</g>
</g>
</svg>
