<?xml version="1.0" encoding="UTF-8" standalone="no"?>
<!DOCTYPE svg PUBLIC "-//W3C//DTD SVG 1.1//EN"
 "http://www.w3.org/Graphics/SVG/1.1/DTD/svg11.dtd">
<!-- Generated by graphviz version 2.40.1 (0)
 -->
<!-- Title: sys/psa_crypto/include/psa_crypto_se_driver.h Pages: 1 -->
<svg width="1115pt" height="330pt"
 viewBox="0.00 0.00 1114.50 330.00" xmlns="http://www.w3.org/2000/svg" xmlns:xlink="http://www.w3.org/1999/xlink">
<g id="graph0" class="graph" transform="scale(1 1) rotate(0) translate(4 326)">
<title>sys/psa_crypto/include/psa_crypto_se_driver.h</title>
<polygon fill="#ffffff" stroke="transparent" points="-4,4 -4,-326 1110.5,-326 1110.5,4 -4,4"/>
<!-- Node0 -->
<g id="node1" class="node">
<title>Node0</title>
<polygon fill="#bfbfbf" stroke="#000000" points="119.5,-291.5 119.5,-321.5 246.5,-321.5 246.5,-291.5 119.5,-291.5"/>
<text text-anchor="start" x="127.5" y="-309.5" font-family="Helvetica,sans-Serif" font-size="10.00" fill="#000000">sys/psa_crypto/include</text>
<text text-anchor="middle" x="183" y="-298.5" font-family="Helvetica,sans-Serif" font-size="10.00" fill="#000000">/psa_crypto_se_driver.h</text>
</g>
<!-- Node1 -->
<g id="node2" class="node">
<title>Node1</title>
<polygon fill="#ffffff" stroke="#bfbfbf" points="170,-.5 170,-19.5 222,-19.5 222,-.5 170,-.5"/>
<text text-anchor="middle" x="196" y="-7.5" font-family="Helvetica,sans-Serif" font-size="10.00" fill="#000000">stdint.h</text>
</g>
<!-- Node0&#45;&gt;Node1 -->
<g id="edge1" class="edge">
<title>Node0&#45;&gt;Node1</title>
<path fill="none" stroke="#191970" d="M119.2524,-291.6373C66.4388,-275.0937 0,-242.5475 0,-183.5 0,-183.5 0,-183.5 0,-122 0,-49.1321 103.3867,-23.0311 159.9846,-14.2019"/>
<polygon fill="#191970" stroke="#191970" points="160.5817,-17.6519 169.9727,-12.7469 159.5726,-10.725 160.5817,-17.6519"/>
</g>
<!-- Node2 -->
<g id="node3" class="node">
<title>Node2</title>
<polygon fill="#ffffff" stroke="#bfbfbf" points="132,-235.5 132,-254.5 182,-254.5 182,-235.5 132,-235.5"/>
<text text-anchor="middle" x="157" y="-242.5" font-family="Helvetica,sans-Serif" font-size="10.00" fill="#000000">stdlib.h</text>
</g>
<!-- Node0&#45;&gt;Node2 -->
<g id="edge2" class="edge">
<title>Node0&#45;&gt;Node2</title>
<path fill="none" stroke="#191970" d="M176.573,-291.2977C173.1143,-283.1166 168.8133,-272.943 165.1246,-264.2179"/>
<polygon fill="#191970" stroke="#191970" points="168.2807,-262.6947 161.1629,-254.8469 161.8332,-265.4205 168.2807,-262.6947"/>
</g>
<!-- Node3 -->
<g id="node4" class="node">
<title>Node3</title>
<g id="a_node4"><a xlink:href="crypto__values_8h.html" target="_top" xlink:title="Value definitions for PSA Crypto. ">
<polygon fill="#ffffff" stroke="#000000" points="469.5,-235.5 469.5,-254.5 578.5,-254.5 578.5,-235.5 469.5,-235.5"/>
<text text-anchor="middle" x="524" y="-242.5" font-family="Helvetica,sans-Serif" font-size="10.00" fill="#000000">psa/crypto_values.h</text>
</a>
</g>
</g>
<!-- Node0&#45;&gt;Node3 -->
<g id="edge3" class="edge">
<title>Node0&#45;&gt;Node3</title>
<path fill="none" stroke="#191970" d="M246.7395,-295.0045C308.0943,-283.939 400.3121,-267.3074 461.3114,-256.306"/>
<polygon fill="#191970" stroke="#191970" points="461.978,-259.7423 471.1979,-254.523 460.7355,-252.8535 461.978,-259.7423"/>
</g>
<!-- Node4 -->
<g id="node5" class="node">
<title>Node4</title>
<g id="a_node5"><a xlink:href="crypto__types_8h.html" target="_top" xlink:title="Type definitions for PSA Crypto. ">
<polygon fill="#ffffff" stroke="#000000" points="167,-174 167,-193 253,-193 253,-174 167,-174"/>
<text text-anchor="middle" x="210" y="-181" font-family="Helvetica,sans-Serif" font-size="10.00" fill="#000000">crypto_types.h</text>
</a>
</g>
</g>
<!-- Node0&#45;&gt;Node4 -->
<g id="edge40" class="edge">
<title>Node0&#45;&gt;Node4</title>
<path fill="none" stroke="#191970" d="M186.3107,-291.4178C191.1953,-269.1659 200.3346,-227.5314 205.7215,-202.9908"/>
<polygon fill="#191970" stroke="#191970" points="209.1783,-203.5672 207.9038,-193.0493 202.3411,-202.0662 209.1783,-203.5672"/>
</g>
<!-- Node3&#45;&gt;Node4 -->
<g id="edge4" class="edge">
<title>Node3&#45;&gt;Node4</title>
<path fill="none" stroke="#191970" d="M475.282,-235.4581C417.7999,-224.1997 322.5601,-205.546 263.1966,-193.9191"/>
<polygon fill="#191970" stroke="#191970" points="263.7546,-190.4619 253.2683,-191.9745 262.4091,-197.3314 263.7546,-190.4619"/>
</g>
<!-- Node13 -->
<g id="node14" class="node">
<title>Node13</title>
<g id="a_node14"><a xlink:href="hash_2algorithm_8h.html" target="_top" xlink:title="Hash algorithm definitions for the PSA Crypto API. ">
<polygon fill="#ffffff" stroke="#000000" points="902,-112.5 902,-131.5 1018,-131.5 1018,-112.5 902,-112.5"/>
<text text-anchor="middle" x="960" y="-119.5" font-family="Helvetica,sans-Serif" font-size="10.00" fill="#000000">psa/hash/algorithm.h</text>
</a>
</g>
</g>
<!-- Node3&#45;&gt;Node13 -->
<g id="edge22" class="edge">
<title>Node3&#45;&gt;Node13</title>
<path fill="none" stroke="#191970" d="M578.7356,-242.6395C686.8378,-237.4643 919.6051,-223.5776 946,-199 961.4083,-184.6526 963.2929,-159.4632 962.3801,-141.8133"/>
<polygon fill="#191970" stroke="#191970" points="965.8571,-141.3935 961.5184,-131.7278 958.8825,-141.9895 965.8571,-141.3935"/>
</g>
<!-- Node14 -->
<g id="node15" class="node">
<title>Node14</title>
<g id="a_node15"><a xlink:href="mac_2algorithm_8h.html" target="_top" xlink:title="MAC algorithm definitions for the PSA Crypto API. ">
<polygon fill="#ffffff" stroke="#000000" points="993.5,-174 993.5,-193 1106.5,-193 1106.5,-174 993.5,-174"/>
<text text-anchor="middle" x="1050" y="-181" font-family="Helvetica,sans-Serif" font-size="10.00" fill="#000000">psa/mac/algorithm.h</text>
</a>
</g>
</g>
<!-- Node3&#45;&gt;Node14 -->
<g id="edge24" class="edge">
<title>Node3&#45;&gt;Node14</title>
<path fill="none" stroke="#191970" d="M578.5396,-241.5077C664.1945,-235.5689 835.3161,-221.8703 979,-199 985.7809,-197.9207 992.8874,-196.5998 999.8747,-195.1888"/>
<polygon fill="#191970" stroke="#191970" points="1000.9039,-198.5493 1009.9747,-193.0747 999.4697,-191.6977 1000.9039,-198.5493"/>
</g>
<!-- Node15 -->
<g id="node16" class="node">
<title>Node15</title>
<g id="a_node16"><a xlink:href="cipher_2algorithm_8h.html" target="_top" xlink:title="Cipher algorithm definitions for the PSA Crypto API. ">
<polygon fill="#ffffff" stroke="#000000" points="322.5,-112.5 322.5,-131.5 445.5,-131.5 445.5,-112.5 322.5,-112.5"/>
<text text-anchor="middle" x="384" y="-119.5" font-family="Helvetica,sans-Serif" font-size="10.00" fill="#000000">psa/cipher/algorithm.h</text>
</a>
</g>
</g>
<!-- Node3&#45;&gt;Node15 -->
<g id="edge27" class="edge">
<title>Node3&#45;&gt;Node15</title>
<path fill="none" stroke="#191970" d="M509.511,-235.3712C496.4231,-226.4548 476.8429,-212.5635 461,-199 438.6201,-179.84 414.9541,-155.4738 399.8609,-139.3396"/>
<polygon fill="#191970" stroke="#191970" points="402.1667,-136.6787 392.8017,-131.7241 397.0329,-141.4373 402.1667,-136.6787"/>
</g>
<!-- Node16 -->
<g id="node17" class="node">
<title>Node16</title>
<g id="a_node17"><a xlink:href="aead_2algorithm_8h.html" target="_top" xlink:title="AEAD algorithm definitions for the PSA Crypto API. ">
<polygon fill="#ffffff" stroke="#000000" points="464,-112.5 464,-131.5 580,-131.5 580,-112.5 464,-112.5"/>
<text text-anchor="middle" x="522" y="-119.5" font-family="Helvetica,sans-Serif" font-size="10.00" fill="#000000">psa/aead/algorithm.h</text>
</a>
</g>
</g>
<!-- Node3&#45;&gt;Node16 -->
<g id="edge29" class="edge">
<title>Node3&#45;&gt;Node16</title>
<path fill="none" stroke="#191970" d="M506.0401,-235.3701C493.3676,-227.4681 477.3833,-214.9885 470,-199 464.2237,-186.4915 464.3408,-180.5619 470,-168 475.5697,-155.6369 486.2863,-145.2563 496.5506,-137.5033"/>
<polygon fill="#191970" stroke="#191970" points="498.7618,-140.2277 504.9433,-131.623 494.7451,-134.4948 498.7618,-140.2277"/>
</g>
<!-- Node17 -->
<g id="node18" class="node">
<title>Node17</title>
<g id="a_node18"><a xlink:href="key__agreement_2algorithm_8h.html" target="_top" xlink:title="Key agreement algorithm definitions for the PSA Crypto API. ">
<polygon fill="#ffffff" stroke="#000000" points="598.5,-112.5 598.5,-131.5 765.5,-131.5 765.5,-112.5 598.5,-112.5"/>
<text text-anchor="middle" x="682" y="-119.5" font-family="Helvetica,sans-Serif" font-size="10.00" fill="#000000">psa/key_agreement/algorithm.h</text>
</a>
</g>
</g>
<!-- Node3&#45;&gt;Node17 -->
<g id="edge31" class="edge">
<title>Node3&#45;&gt;Node17</title>
<path fill="none" stroke="#191970" d="M516.6056,-235.4452C505.4483,-219.7855 487.2059,-188.3661 503,-168 515.307,-152.1304 558.3773,-140.782 599.1831,-133.3276"/>
<polygon fill="#191970" stroke="#191970" points="599.9699,-136.743 609.212,-131.5628 598.7567,-129.849 599.9699,-136.743"/>
</g>
<!-- Node18 -->
<g id="node19" class="node">
<title>Node18</title>
<g id="a_node19"><a xlink:href="key__derivation_2algorithm_8h.html" target="_top" xlink:title="Key derivation algorithm definitions for the PSA Crypto API. ">
<polygon fill="#ffffff" stroke="#000000" points="512,-168.5 512,-198.5 616,-198.5 616,-168.5 512,-168.5"/>
<text text-anchor="start" x="520" y="-186.5" font-family="Helvetica,sans-Serif" font-size="10.00" fill="#000000">psa/key_derivation</text>
<text text-anchor="middle" x="564" y="-175.5" font-family="Helvetica,sans-Serif" font-size="10.00" fill="#000000">/algorithm.h</text>
</a>
</g>
</g>
<!-- Node3&#45;&gt;Node18 -->
<g id="edge33" class="edge">
<title>Node3&#45;&gt;Node18</title>
<path fill="none" stroke="#191970" d="M530.25,-235.3906C535.1623,-227.838 542.2194,-216.9876 548.6118,-207.1593"/>
<polygon fill="#191970" stroke="#191970" points="551.6966,-208.8358 554.2149,-198.5446 545.8286,-205.0192 551.6966,-208.8358"/>
</g>
<!-- Node19 -->
<g id="node20" class="node">
<title>Node19</title>
<g id="a_node20"><a xlink:href="asymmetric__encryption_2algorithm_8h.html" target="_top" xlink:title="Asymmetric encryption algorithm definitions for the PSA Crypto API. ">
<polygon fill="#ffffff" stroke="#000000" points="634.5,-168.5 634.5,-198.5 779.5,-198.5 779.5,-168.5 634.5,-168.5"/>
<text text-anchor="start" x="642.5" y="-186.5" font-family="Helvetica,sans-Serif" font-size="10.00" fill="#000000">psa/asymmetric_encryption</text>
<text text-anchor="middle" x="707" y="-175.5" font-family="Helvetica,sans-Serif" font-size="10.00" fill="#000000">/algorithm.h</text>
</a>
</g>
</g>
<!-- Node3&#45;&gt;Node19 -->
<g id="edge35" class="edge">
<title>Node3&#45;&gt;Node19</title>
<path fill="none" stroke="#191970" d="M552.5938,-235.3906C579.3098,-226.4123 619.8935,-212.7735 652.7498,-201.7316"/>
<polygon fill="#191970" stroke="#191970" points="653.8691,-205.0479 662.2332,-198.5446 651.6391,-198.4126 653.8691,-205.0479"/>
</g>
<!-- Node20 -->
<g id="node21" class="node">
<title>Node20</title>
<g id="a_node21"><a xlink:href="asymmetric__signature_2algorithm_8h.html" target="_top" xlink:title="Asymmetric signature algorithm definitions for the PSA Crypto API. ">
<polygon fill="#ffffff" stroke="#000000" points="797.5,-168.5 797.5,-198.5 936.5,-198.5 936.5,-168.5 797.5,-168.5"/>
<text text-anchor="start" x="805.5" y="-186.5" font-family="Helvetica,sans-Serif" font-size="10.00" fill="#000000">psa/asymmetric_signature</text>
<text text-anchor="middle" x="867" y="-175.5" font-family="Helvetica,sans-Serif" font-size="10.00" fill="#000000">/algorithm.h</text>
</a>
</g>
</g>
<!-- Node3&#45;&gt;Node20 -->
<g id="edge37" class="edge">
<title>Node3&#45;&gt;Node20</title>
<path fill="none" stroke="#191970" d="M578.6287,-235.9157C630.0582,-227.2733 709.5057,-213.6921 787.3041,-199.2943"/>
<polygon fill="#191970" stroke="#191970" points="788.0822,-202.7097 797.2751,-197.4428 786.8041,-195.8274 788.0822,-202.7097"/>
</g>
<!-- Node4&#45;&gt;Node1 -->
<g id="edge5" class="edge">
<title>Node4&#45;&gt;Node1</title>
<path fill="none" stroke="#191970" d="M166.7289,-174.8012C126.2255,-165.6763 70.0425,-150.1516 57,-132 39.2729,-107.3287 72.8578,-68.1095 86,-56 106.6864,-36.9391 136.4062,-25.1526 159.7403,-18.2885"/>
<polygon fill="#191970" stroke="#191970" points="160.9226,-21.593 169.6298,-15.5569 159.0589,-14.8457 160.9226,-21.593"/>
</g>
<!-- Node5 -->
<g id="node6" class="node">
<title>Node5</title>
<g id="a_node6"><a xlink:href="algorithm_8h_source.html" target="_top" xlink:title="psa/algorithm.h">
<polygon fill="#ffffff" stroke="#000000" points="637,-56.5 637,-75.5 727,-75.5 727,-56.5 637,-56.5"/>
<text text-anchor="middle" x="682" y="-63.5" font-family="Helvetica,sans-Serif" font-size="10.00" fill="#000000">psa/algorithm.h</text>
</a>
</g>
</g>
<!-- Node4&#45;&gt;Node5 -->
<g id="edge6" class="edge">
<title>Node4&#45;&gt;Node5</title>
<path fill="none" stroke="#191970" d="M222.5635,-173.7297C245.6693,-155.9564 294.3386,-119.4753 314,-112 369.9371,-90.7327 538.6734,-76.0968 626.9008,-69.6754"/>
<polygon fill="#191970" stroke="#191970" points="627.2662,-73.1582 636.99,-68.9513 626.7651,-66.1762 627.2662,-73.1582"/>
</g>
<!-- Node6 -->
<g id="node7" class="node">
<title>Node6</title>
<g id="a_node7"><a xlink:href="psa__crypto_2psa_2error_8h_source.html" target="_top" xlink:title="psa/error.h">
<polygon fill="#ffffff" stroke="#000000" points="66,-112.5 66,-131.5 136,-131.5 136,-112.5 66,-112.5"/>
<text text-anchor="middle" x="101" y="-119.5" font-family="Helvetica,sans-Serif" font-size="10.00" fill="#000000">psa/error.h</text>
</a>
</g>
</g>
<!-- Node4&#45;&gt;Node6 -->
<g id="edge8" class="edge">
<title>Node4&#45;&gt;Node6</title>
<path fill="none" stroke="#191970" d="M192.9688,-173.8906C175.211,-163.8713 147.167,-148.0483 126.7118,-136.5071"/>
<polygon fill="#191970" stroke="#191970" points="128.3409,-133.4077 117.9117,-131.5419 124.9011,-139.5042 128.3409,-133.4077"/>
</g>
<!-- Node7 -->
<g id="node8" class="node">
<title>Node7</title>
<g id="a_node8"><a xlink:href="attributes_8h.html" target="_top" xlink:title="Key attributes definitions for the PSA Crypto API. ">
<polygon fill="#ffffff" stroke="#000000" points="154.5,-112.5 154.5,-131.5 265.5,-131.5 265.5,-112.5 154.5,-112.5"/>
<text text-anchor="middle" x="210" y="-119.5" font-family="Helvetica,sans-Serif" font-size="10.00" fill="#000000">psa/key/attributes.h</text>
</a>
</g>
</g>
<!-- Node4&#45;&gt;Node7 -->
<g id="edge10" class="edge">
<title>Node4&#45;&gt;Node7</title>
<path fill="none" stroke="#191970" d="M210,-173.8906C210,-165.3657 210,-152.6392 210,-141.9235"/>
<polygon fill="#191970" stroke="#191970" points="213.5001,-141.7448 210,-131.7449 206.5001,-141.7449 213.5001,-141.7448"/>
</g>
<!-- Node5&#45;&gt;Node1 -->
<g id="edge7" class="edge">
<title>Node5&#45;&gt;Node1</title>
<path fill="none" stroke="#191970" d="M636.7147,-60.7819C540.9153,-49.7433 319.3876,-24.2175 232.1957,-14.1707"/>
<polygon fill="#191970" stroke="#191970" points="232.3405,-10.6643 222.0056,-12.9965 231.5392,-17.6183 232.3405,-10.6643"/>
</g>
<!-- Node6&#45;&gt;Node1 -->
<g id="edge9" class="edge">
<title>Node6&#45;&gt;Node1</title>
<path fill="none" stroke="#191970" d="M96.5823,-112.1492C91.1482,-98.4037 83.9189,-73.2231 95,-56 109.2577,-33.8396 137.1068,-22.2282 159.9565,-16.2193"/>
<polygon fill="#191970" stroke="#191970" points="160.7906,-19.6186 169.7119,-13.9037 159.1738,-12.8079 160.7906,-19.6186"/>
</g>
<!-- Node7&#45;&gt;Node5 -->
<g id="edge11" class="edge">
<title>Node7&#45;&gt;Node5</title>
<path fill="none" stroke="#191970" d="M265.7653,-113.8902C270.5776,-113.2338 275.3732,-112.5951 280,-112 403.6903,-96.0913 549.1528,-80.1255 626.7072,-71.8323"/>
<polygon fill="#191970" stroke="#191970" points="627.1624,-75.3037 636.7345,-70.7624 626.4196,-68.3432 627.1624,-75.3037"/>
</g>
<!-- Node8 -->
<g id="node9" class="node">
<title>Node8</title>
<g id="a_node9"><a xlink:href="bits_8h.html" target="_top" xlink:title="Key size definitions for the PSA Crypto API. ">
<polygon fill="#ffffff" stroke="#000000" points="241,-56.5 241,-75.5 283,-75.5 283,-56.5 241,-56.5"/>
<text text-anchor="middle" x="262" y="-63.5" font-family="Helvetica,sans-Serif" font-size="10.00" fill="#000000">bits.h</text>
</a>
</g>
</g>
<!-- Node7&#45;&gt;Node8 -->
<g id="edge12" class="edge">
<title>Node7&#45;&gt;Node8</title>
<path fill="none" stroke="#191970" d="M219.0577,-112.2455C226.5142,-104.2155 237.2634,-92.6394 246.1417,-83.0781"/>
<polygon fill="#191970" stroke="#191970" points="248.8063,-85.3522 253.0461,-75.6427 243.6768,-80.589 248.8063,-85.3522"/>
</g>
<!-- Node9 -->
<g id="node10" class="node">
<title>Node9</title>
<g id="a_node10"><a xlink:href="id_8h.html" target="_top" xlink:title="Key ID definitions for the PSA Crypto API. ">
<polygon fill="#ffffff" stroke="#000000" points="301,-56.5 301,-75.5 335,-75.5 335,-56.5 301,-56.5"/>
<text text-anchor="middle" x="318" y="-63.5" font-family="Helvetica,sans-Serif" font-size="10.00" fill="#000000">id.h</text>
</a>
</g>
</g>
<!-- Node7&#45;&gt;Node9 -->
<g id="edge14" class="edge">
<title>Node7&#45;&gt;Node9</title>
<path fill="none" stroke="#191970" d="M228.8122,-112.2455C246.2628,-103.1971 272.3971,-89.646 291.8702,-79.5488"/>
<polygon fill="#191970" stroke="#191970" points="293.561,-82.6147 300.8274,-74.9043 290.3387,-76.4004 293.561,-82.6147"/>
</g>
<!-- Node10 -->
<g id="node11" class="node">
<title>Node10</title>
<g id="a_node11"><a xlink:href="lifetime_8h.html" target="_top" xlink:title="Key ilfetime definitions for the PSA Crypto API. ">
<polygon fill="#ffffff" stroke="#000000" points="353.5,-56.5 353.5,-75.5 414.5,-75.5 414.5,-56.5 353.5,-56.5"/>
<text text-anchor="middle" x="384" y="-63.5" font-family="Helvetica,sans-Serif" font-size="10.00" fill="#000000">lifetime.h</text>
</a>
</g>
</g>
<!-- Node7&#45;&gt;Node10 -->
<g id="edge16" class="edge">
<title>Node7&#45;&gt;Node10</title>
<path fill="none" stroke="#191970" d="M239.9117,-112.3733C268.8452,-103.0613 312.8611,-88.8953 344.6293,-78.671"/>
<polygon fill="#191970" stroke="#191970" points="346.0318,-81.8965 354.4787,-75.5011 343.8872,-75.2331 346.0318,-81.8965"/>
</g>
<!-- Node11 -->
<g id="node12" class="node">
<title>Node11</title>
<g id="a_node12"><a xlink:href="psa__crypto_2psa_2key_2type_8h.html" target="_top" xlink:title="Key type definitions for the PSA Crypto API. ">
<polygon fill="#ffffff" stroke="#000000" points="104.5,-56.5 104.5,-75.5 151.5,-75.5 151.5,-56.5 104.5,-56.5"/>
<text text-anchor="middle" x="128" y="-63.5" font-family="Helvetica,sans-Serif" font-size="10.00" fill="#000000">type.h</text>
</a>
</g>
</g>
<!-- Node7&#45;&gt;Node11 -->
<g id="edge18" class="edge">
<title>Node7&#45;&gt;Node11</title>
<path fill="none" stroke="#191970" d="M195.7167,-112.2455C183.253,-103.7337 164.9549,-91.2375 150.5208,-81.3801"/>
<polygon fill="#191970" stroke="#191970" points="152.3515,-78.392 142.1196,-75.6427 148.4038,-84.1726 152.3515,-78.392"/>
</g>
<!-- Node12 -->
<g id="node13" class="node">
<title>Node12</title>
<g id="a_node13"><a xlink:href="usage_8h.html" target="_top" xlink:title="Key usage definitions for the PSA Crypto API. ">
<polygon fill="#ffffff" stroke="#000000" points="169.5,-56.5 169.5,-75.5 222.5,-75.5 222.5,-56.5 169.5,-56.5"/>
<text text-anchor="middle" x="196" y="-63.5" font-family="Helvetica,sans-Serif" font-size="10.00" fill="#000000">usage.h</text>
</a>
</g>
</g>
<!-- Node7&#45;&gt;Node12 -->
<g id="edge20" class="edge">
<title>Node7&#45;&gt;Node12</title>
<path fill="none" stroke="#191970" d="M207.5614,-112.2455C205.7145,-104.8579 203.1172,-94.4689 200.8522,-85.4087"/>
<polygon fill="#191970" stroke="#191970" points="204.2316,-84.4952 198.4107,-75.6427 197.4406,-86.193 204.2316,-84.4952"/>
</g>
<!-- Node8&#45;&gt;Node1 -->
<g id="edge13" class="edge">
<title>Node8&#45;&gt;Node1</title>
<path fill="none" stroke="#191970" d="M250.5037,-56.2455C240.7558,-47.9746 226.5741,-35.9416 215.1202,-26.2232"/>
<polygon fill="#191970" stroke="#191970" points="217.2541,-23.4437 207.3646,-19.6427 212.7253,-28.7813 217.2541,-23.4437"/>
</g>
<!-- Node9&#45;&gt;Node1 -->
<g id="edge15" class="edge">
<title>Node9&#45;&gt;Node1</title>
<path fill="none" stroke="#191970" d="M300.7791,-58.0953C281.3823,-49.1919 249.5033,-34.5589 225.994,-23.7677"/>
<polygon fill="#191970" stroke="#191970" points="227.3564,-20.542 216.808,-19.5512 224.4362,-26.9038 227.3564,-20.542"/>
</g>
<!-- Node10&#45;&gt;Node1 -->
<g id="edge17" class="edge">
<title>Node10&#45;&gt;Node1</title>
<path fill="none" stroke="#191970" d="M353.3761,-56.878C320.1368,-46.9769 267.1075,-31.181 231.9251,-20.7011"/>
<polygon fill="#191970" stroke="#191970" points="232.6472,-17.2643 222.0642,-17.7638 230.6489,-23.973 232.6472,-17.2643"/>
</g>
<!-- Node11&#45;&gt;Node1 -->
<g id="edge19" class="edge">
<title>Node11&#45;&gt;Node1</title>
<path fill="none" stroke="#191970" d="M139.8447,-56.2455C149.888,-47.9746 164.4995,-35.9416 176.3004,-26.2232"/>
<polygon fill="#191970" stroke="#191970" points="178.7967,-28.7015 184.291,-19.6427 174.3467,-23.298 178.7967,-28.7015"/>
</g>
<!-- Node12&#45;&gt;Node1 -->
<g id="edge21" class="edge">
<title>Node12&#45;&gt;Node1</title>
<path fill="none" stroke="#191970" d="M196,-56.2455C196,-48.9382 196,-38.6944 196,-29.7046"/>
<polygon fill="#191970" stroke="#191970" points="199.5001,-29.6426 196,-19.6427 192.5001,-29.6427 199.5001,-29.6426"/>
</g>
<!-- Node13&#45;&gt;Node5 -->
<g id="edge23" class="edge">
<title>Node13&#45;&gt;Node5</title>
<path fill="none" stroke="#191970" d="M912.526,-112.4369C863.9671,-102.6552 788.5812,-87.4696 737.3437,-77.1484"/>
<polygon fill="#191970" stroke="#191970" points="737.9276,-73.6958 727.4333,-75.152 736.5452,-80.5579 737.9276,-73.6958"/>
</g>
<!-- Node14&#45;&gt;Node5 -->
<g id="edge25" class="edge">
<title>Node14&#45;&gt;Node5</title>
<path fill="none" stroke="#191970" d="M1049.9561,-173.8741C1049.3198,-158.2491 1045.6117,-127.5515 1027,-112 1005.206,-93.7894 829.3532,-77.517 737.4749,-70.1575"/>
<polygon fill="#191970" stroke="#191970" points="737.4851,-66.6474 727.2399,-69.3467 736.9323,-73.6256 737.4851,-66.6474"/>
</g>
<!-- Node14&#45;&gt;Node13 -->
<g id="edge26" class="edge">
<title>Node14&#45;&gt;Node13</title>
<path fill="none" stroke="#191970" d="M1035.9375,-173.8906C1021.6714,-164.1421 999.365,-148.8994 982.6128,-137.4521"/>
<polygon fill="#191970" stroke="#191970" points="984.1949,-134.2941 973.9638,-131.5419 980.2455,-140.0736 984.1949,-134.2941"/>
</g>
<!-- Node15&#45;&gt;Node5 -->
<g id="edge28" class="edge">
<title>Node15&#45;&gt;Node5</title>
<path fill="none" stroke="#191970" d="M434.8894,-112.4369C488.2541,-102.4086 571.8441,-86.7004 626.7787,-76.3772"/>
<polygon fill="#191970" stroke="#191970" points="627.5074,-79.8016 636.689,-74.5148 626.2145,-72.922 627.5074,-79.8016"/>
</g>
<!-- Node16&#45;&gt;Node5 -->
<g id="edge30" class="edge">
<title>Node16&#45;&gt;Node5</title>
<path fill="none" stroke="#191970" d="M549.505,-112.3733C575.8802,-103.1419 615.8851,-89.1402 645.0358,-78.9375"/>
<polygon fill="#191970" stroke="#191970" points="646.5716,-82.1082 654.8539,-75.5011 644.2591,-75.5012 646.5716,-82.1082"/>
</g>
<!-- Node17&#45;&gt;Node5 -->
<g id="edge32" class="edge">
<title>Node17&#45;&gt;Node5</title>
<path fill="none" stroke="#191970" d="M682,-112.2455C682,-104.9382 682,-94.6944 682,-85.7046"/>
<polygon fill="#191970" stroke="#191970" points="685.5001,-85.6426 682,-75.6427 678.5001,-85.6427 685.5001,-85.6426"/>
</g>
<!-- Node18&#45;&gt;Node5 -->
<g id="edge34" class="edge">
<title>Node18&#45;&gt;Node5</title>
<path fill="none" stroke="#191970" d="M616.0878,-170.4463C619.4415,-169.6157 622.7677,-168.7945 626,-168 692.1584,-151.7382 732.8613,-185.5324 775,-132 793.2004,-108.8784 758.9214,-90.3583 726.964,-78.89"/>
<polygon fill="#191970" stroke="#191970" points="727.7758,-75.4692 717.1813,-75.56 725.52,-82.0958 727.7758,-75.4692"/>
</g>
<!-- Node19&#45;&gt;Node5 -->
<g id="edge36" class="edge">
<title>Node19&#45;&gt;Node5</title>
<path fill="none" stroke="#191970" d="M759.1446,-168.379C791.6745,-156.1365 824.3387,-136.8562 807,-112 797.9571,-99.0364 762.927,-86.8007 732.243,-78.2121"/>
<polygon fill="#191970" stroke="#191970" points="733.0398,-74.8018 722.4718,-75.5555 731.2032,-81.5566 733.0398,-74.8018"/>
</g>
<!-- Node20&#45;&gt;Node5 -->
<g id="edge38" class="edge">
<title>Node20&#45;&gt;Node5</title>
<path fill="none" stroke="#191970" d="M861.4346,-168.4607C854.7091,-152.283 841.8914,-126.8823 823,-112 798.3205,-92.5579 765.1357,-81.1991 737.1597,-74.6349"/>
<polygon fill="#191970" stroke="#191970" points="737.632,-71.1552 727.1138,-72.4273 736.1295,-77.9921 737.632,-71.1552"/>
</g>
<!-- Node20&#45;&gt;Node13 -->
<g id="edge39" class="edge">
<title>Node20&#45;&gt;Node13</title>
<path fill="none" stroke="#191970" d="M889.9888,-168.2977C904.1966,-158.9022 922.3785,-146.8787 936.6525,-137.4395"/>
<polygon fill="#191970" stroke="#191970" points="938.9767,-140.0986 945.3872,-131.6633 935.1155,-134.2598 938.9767,-140.0986"/>
</g>
</g>
</svg>
