<?xml version="1.0" encoding="UTF-8" standalone="no"?>
<!DOCTYPE svg PUBLIC "-//W3C//DTD SVG 1.1//EN"
 "http://www.w3.org/Graphics/SVG/1.1/DTD/svg11.dtd">
<!-- Generated by graphviz version 2.40.1 (0)
 -->
<!-- Title: sys/psa_crypto/include/psa_crypto_persistent_storage.h Pages: 1 -->
<svg width="1220pt" height="509pt"
 viewBox="0.00 0.00 1219.50 509.00" xmlns="http://www.w3.org/2000/svg" xmlns:xlink="http://www.w3.org/1999/xlink">
<g id="graph0" class="graph" transform="scale(1 1) rotate(0) translate(4 505)">
<title>sys/psa_crypto/include/psa_crypto_persistent_storage.h</title>
<polygon fill="#ffffff" stroke="transparent" points="-4,4 -4,-505 1215.5,-505 1215.5,4 -4,4"/>
<!-- Node0 -->
<g id="node1" class="node">
<title>Node0</title>
<polygon fill="#bfbfbf" stroke="#000000" points="297.5,-459.5 297.5,-500.5 419.5,-500.5 419.5,-459.5 297.5,-459.5"/>
<text text-anchor="start" x="305.5" y="-488.5" font-family="Helvetica,sans-Serif" font-size="10.00" fill="#000000">sys/psa_crypto/include</text>
<text text-anchor="start" x="305.5" y="-477.5" font-family="Helvetica,sans-Serif" font-size="10.00" fill="#000000">/psa_crypto_persistent</text>
<text text-anchor="middle" x="358.5" y="-466.5" font-family="Helvetica,sans-Serif" font-size="10.00" fill="#000000">_storage.h</text>
</g>
<!-- Node1 -->
<g id="node2" class="node">
<title>Node1</title>
<g id="a_node2"><a xlink:href="crypto_8h.html" target="_top" xlink:title="Function declarations for PSA Crypto. ">
<polygon fill="#ffffff" stroke="#000000" points="321,-403.5 321,-422.5 396,-422.5 396,-403.5 321,-403.5"/>
<text text-anchor="middle" x="358.5" y="-410.5" font-family="Helvetica,sans-Serif" font-size="10.00" fill="#000000">psa/crypto.h</text>
</a>
</g>
</g>
<!-- Node0&#45;&gt;Node1 -->
<g id="edge1" class="edge">
<title>Node0&#45;&gt;Node1</title>
<path fill="none" stroke="#191970" d="M358.5,-459.168C358.5,-450.8226 358.5,-441.2471 358.5,-432.9879"/>
<polygon fill="#191970" stroke="#191970" points="362.0001,-432.7804 358.5,-422.7805 355.0001,-432.7805 362.0001,-432.7804"/>
</g>
<!-- Node2 -->
<g id="node3" class="node">
<title>Node2</title>
<polygon fill="#ffffff" stroke="#bfbfbf" points="15.5,-347.5 15.5,-366.5 65.5,-366.5 65.5,-347.5 15.5,-347.5"/>
<text text-anchor="middle" x="40.5" y="-354.5" font-family="Helvetica,sans-Serif" font-size="10.00" fill="#000000">stdlib.h</text>
</g>
<!-- Node1&#45;&gt;Node2 -->
<g id="edge2" class="edge">
<title>Node1&#45;&gt;Node2</title>
<path fill="none" stroke="#191970" d="M320.9971,-408.4511C268.2466,-401.7206 169.0125,-387.8466 75.5565,-367.0191"/>
<polygon fill="#191970" stroke="#191970" points="76.1842,-363.5728 65.6585,-364.7818 74.6408,-370.4005 76.1842,-363.5728"/>
</g>
<!-- Node3 -->
<g id="node4" class="node">
<title>Node3</title>
<polygon fill="#ffffff" stroke="#bfbfbf" points="84,-347.5 84,-366.5 137,-366.5 137,-347.5 84,-347.5"/>
<text text-anchor="middle" x="110.5" y="-354.5" font-family="Helvetica,sans-Serif" font-size="10.00" fill="#000000">string.h</text>
</g>
<!-- Node1&#45;&gt;Node3 -->
<g id="edge3" class="edge">
<title>Node1&#45;&gt;Node3</title>
<path fill="none" stroke="#191970" d="M320.6743,-404.8387C279.1324,-395.8187 210.479,-380.7443 151.5,-367 150.0729,-366.6674 148.6185,-366.3258 147.1499,-365.9785"/>
<polygon fill="#191970" stroke="#191970" points="147.9275,-362.5659 137.3874,-363.6416 146.2978,-369.3735 147.9275,-362.5659"/>
</g>
<!-- Node4 -->
<g id="node5" class="node">
<title>Node4</title>
<g id="a_node5"><a xlink:href="kernel__defines_8h.html" target="_top" xlink:title="Common macros and compiler attributes/pragmas configuration. ">
<polygon fill="#ffffff" stroke="#000000" points="0,-174 0,-193 95,-193 95,-174 0,-174"/>
<text text-anchor="middle" x="47.5" y="-181" font-family="Helvetica,sans-Serif" font-size="10.00" fill="#000000">kernel_defines.h</text>
</a>
</g>
</g>
<!-- Node1&#45;&gt;Node4 -->
<g id="edge4" class="edge">
<title>Node1&#45;&gt;Node4</title>
<path fill="none" stroke="#191970" d="M345.5327,-403.4309C297.4204,-367.9268 128.8285,-243.5157 68.8672,-199.2677"/>
<polygon fill="#191970" stroke="#191970" points="70.6473,-196.2315 60.5227,-193.11 66.4908,-201.864 70.6473,-196.2315"/>
</g>
<!-- Node12 -->
<g id="node13" class="node">
<title>Node12</title>
<g id="a_node13"><a xlink:href="crypto__sizes_8h.html" target="_top" xlink:title="Size definitions for PSA Crypto. ">
<polygon fill="#ffffff" stroke="#000000" points="389.5,-291.5 389.5,-310.5 471.5,-310.5 471.5,-291.5 389.5,-291.5"/>
<text text-anchor="middle" x="430.5" y="-298.5" font-family="Helvetica,sans-Serif" font-size="10.00" fill="#000000">crypto_sizes.h</text>
</a>
</g>
</g>
<!-- Node1&#45;&gt;Node12 -->
<g id="edge15" class="edge">
<title>Node1&#45;&gt;Node12</title>
<path fill="none" stroke="#191970" d="M373.3129,-403.3636C384.993,-395.0431 400.8678,-382.0146 410.5,-367 419.5801,-352.8459 424.717,-334.3562 427.5042,-320.5489"/>
<polygon fill="#191970" stroke="#191970" points="430.9592,-321.1105 429.2662,-310.6518 424.0675,-319.8835 430.9592,-321.1105"/>
</g>
<!-- Node13 -->
<g id="node14" class="node">
<title>Node13</title>
<g id="a_node14"><a xlink:href="crypto__values_8h.html" target="_top" xlink:title="Value definitions for PSA Crypto. ">
<polygon fill="#ffffff" stroke="#000000" points="558,-235.5 558,-254.5 647,-254.5 647,-235.5 558,-235.5"/>
<text text-anchor="middle" x="602.5" y="-242.5" font-family="Helvetica,sans-Serif" font-size="10.00" fill="#000000">crypto_values.h</text>
</a>
</g>
</g>
<!-- Node1&#45;&gt;Node13 -->
<g id="edge61" class="edge">
<title>Node1&#45;&gt;Node13</title>
<path fill="none" stroke="#191970" d="M373.5717,-403.4776C388.0216,-394.2911 410.3978,-379.9162 429.5,-367 484.6012,-329.7425 548.2592,-284.1885 580.8352,-260.6902"/>
<polygon fill="#191970" stroke="#191970" points="583.1091,-263.3653 589.1662,-254.6726 579.0103,-257.6908 583.1091,-263.3653"/>
</g>
<!-- Node14 -->
<g id="node15" class="node">
<title>Node14</title>
<g id="a_node15"><a xlink:href="crypto__types_8h.html" target="_top" xlink:title="Type definitions for PSA Crypto. ">
<polygon fill="#ffffff" stroke="#000000" points="1082.5,-174 1082.5,-193 1168.5,-193 1168.5,-174 1082.5,-174"/>
<text text-anchor="middle" x="1125.5" y="-181" font-family="Helvetica,sans-Serif" font-size="10.00" fill="#000000">crypto_types.h</text>
</a>
</g>
</g>
<!-- Node1&#45;&gt;Node14 -->
<g id="edge62" class="edge">
<title>Node1&#45;&gt;Node14</title>
<path fill="none" stroke="#191970" d="M390.8417,-403.4375C473.7533,-378.9097 700.6558,-311.7018 889.5,-255 957.878,-234.469 1037.3166,-210.3457 1084.3895,-196.0226"/>
<polygon fill="#191970" stroke="#191970" points="1085.6639,-199.2933 1094.2116,-193.0333 1083.6257,-192.5966 1085.6639,-199.2933"/>
</g>
<!-- Node31 -->
<g id="node32" class="node">
<title>Node31</title>
<g id="a_node32"><a xlink:href="crypto__struct_8h.html" target="_top" xlink:title="Structure definitions for PSA Crypto. ">
<polygon fill="#ffffff" stroke="#000000" points="315,-347.5 315,-366.5 402,-366.5 402,-347.5 315,-347.5"/>
<text text-anchor="middle" x="358.5" y="-354.5" font-family="Helvetica,sans-Serif" font-size="10.00" fill="#000000">crypto_struct.h</text>
</a>
</g>
</g>
<!-- Node1&#45;&gt;Node31 -->
<g id="edge54" class="edge">
<title>Node1&#45;&gt;Node31</title>
<path fill="none" stroke="#191970" d="M358.5,-403.2455C358.5,-395.9382 358.5,-385.6944 358.5,-376.7046"/>
<polygon fill="#191970" stroke="#191970" points="362.0001,-376.6426 358.5,-366.6427 355.0001,-376.6427 362.0001,-376.6426"/>
</g>
<!-- Node5 -->
<g id="node6" class="node">
<title>Node5</title>
<g id="a_node6"><a xlink:href="modules_8h.html" target="_top" xlink:title="Common macros and compiler attributes/pragmas configuration. ">
<polygon fill="#ffffff" stroke="#000000" points="15,-112.5 15,-131.5 80,-131.5 80,-112.5 15,-112.5"/>
<text text-anchor="middle" x="47.5" y="-119.5" font-family="Helvetica,sans-Serif" font-size="10.00" fill="#000000">modules.h</text>
</a>
</g>
</g>
<!-- Node4&#45;&gt;Node5 -->
<g id="edge5" class="edge">
<title>Node4&#45;&gt;Node5</title>
<path fill="none" stroke="#191970" d="M47.5,-173.8906C47.5,-165.3657 47.5,-152.6392 47.5,-141.9235"/>
<polygon fill="#191970" stroke="#191970" points="51.0001,-141.7448 47.5,-131.7449 44.0001,-141.7449 51.0001,-141.7448"/>
</g>
<!-- Node6 -->
<g id="node7" class="node">
<title>Node6</title>
<g id="a_node7"><a xlink:href="riot__version_8h.html" target="_top" xlink:title="Common macros and compiler attributes/pragmas configuration. ">
<polygon fill="#ffffff" stroke="#000000" points="107,-112.5 107,-131.5 188,-131.5 188,-112.5 107,-112.5"/>
<text text-anchor="middle" x="147.5" y="-119.5" font-family="Helvetica,sans-Serif" font-size="10.00" fill="#000000">riot_version.h</text>
</a>
</g>
</g>
<!-- Node4&#45;&gt;Node6 -->
<g id="edge6" class="edge">
<title>Node4&#45;&gt;Node6</title>
<path fill="none" stroke="#191970" d="M63.125,-173.8906C79.2698,-163.9616 104.6822,-148.333 123.4023,-136.8201"/>
<polygon fill="#191970" stroke="#191970" points="125.3002,-139.7619 131.9847,-131.5419 121.6331,-133.7992 125.3002,-139.7619"/>
</g>
<!-- Node8 -->
<g id="node9" class="node">
<title>Node8</title>
<g id="a_node9"><a xlink:href="compiler__hints_8h.html" target="_top" xlink:title="Common macros and compiler attributes/pragmas configuration. ">
<polygon fill="#ffffff" stroke="#000000" points="224,-112.5 224,-131.5 317,-131.5 317,-112.5 224,-112.5"/>
<text text-anchor="middle" x="270.5" y="-119.5" font-family="Helvetica,sans-Serif" font-size="10.00" fill="#000000">compiler_hints.h</text>
</a>
</g>
</g>
<!-- Node4&#45;&gt;Node8 -->
<g id="edge8" class="edge">
<title>Node4&#45;&gt;Node8</title>
<path fill="none" stroke="#191970" d="M81.8521,-173.9846C89.0061,-172.005 96.4988,-169.9332 103.5,-168 145.0073,-156.5391 192.3276,-143.5081 225.9728,-134.2488"/>
<polygon fill="#191970" stroke="#191970" points="227.2408,-137.5301 235.9538,-131.5023 225.3836,-130.7809 227.2408,-137.5301"/>
</g>
<!-- Node10 -->
<g id="node11" class="node">
<title>Node10</title>
<g id="a_node11"><a xlink:href="container_8h.html" target="_top" xlink:title="Common macros and compiler attributes/pragmas configuration. ">
<polygon fill="#ffffff" stroke="#000000" points="344,-112.5 344,-131.5 413,-131.5 413,-112.5 344,-112.5"/>
<text text-anchor="middle" x="378.5" y="-119.5" font-family="Helvetica,sans-Serif" font-size="10.00" fill="#000000">container.h</text>
</a>
</g>
</g>
<!-- Node4&#45;&gt;Node10 -->
<g id="edge12" class="edge">
<title>Node4&#45;&gt;Node10</title>
<path fill="none" stroke="#191970" d="M79.6278,-173.9599C87.4017,-171.8314 95.7148,-169.7033 103.5,-168 201.1458,-146.6362 227.0473,-149.2677 325.5,-132 328.1747,-131.5309 330.9235,-131.0397 333.6953,-130.5376"/>
<polygon fill="#191970" stroke="#191970" points="334.5398,-133.941 343.742,-128.6905 333.274,-127.0564 334.5398,-133.941"/>
</g>
<!-- Node7 -->
<g id="node8" class="node">
<title>Node7</title>
<polygon fill="#ffffff" stroke="#bfbfbf" points="816.5,-.5 816.5,-19.5 868.5,-19.5 868.5,-.5 816.5,-.5"/>
<text text-anchor="middle" x="842.5" y="-7.5" font-family="Helvetica,sans-Serif" font-size="10.00" fill="#000000">stdint.h</text>
</g>
<!-- Node6&#45;&gt;Node7 -->
<g id="edge7" class="edge">
<title>Node6&#45;&gt;Node7</title>
<path fill="none" stroke="#191970" d="M161.3125,-112.2684C183.5367,-97.1922 229.1434,-68.6159 272.5,-56 373.4032,-26.6391 697.2186,-14.3812 806.2664,-11.018"/>
<polygon fill="#191970" stroke="#191970" points="806.5398,-14.5115 816.4296,-10.7113 806.3286,-7.5147 806.5398,-14.5115"/>
</g>
<!-- Node8&#45;&gt;Node7 -->
<g id="edge11" class="edge">
<title>Node8&#45;&gt;Node7</title>
<path fill="none" stroke="#191970" d="M270.1382,-112.0929C270.1948,-97.3129 272.7182,-69.759 289.5,-56 329.37,-23.3115 689.2356,-13.1267 806.0581,-10.6671"/>
<polygon fill="#191970" stroke="#191970" points="806.3448,-14.1621 816.2714,-10.4589 806.2021,-7.1636 806.3448,-14.1621"/>
</g>
<!-- Node9 -->
<g id="node10" class="node">
<title>Node9</title>
<g id="a_node10"><a xlink:href="assert_8h.html" target="_top" xlink:title="POSIX.1&#45;2008 compliant version of the assert macro. ">
<polygon fill="#ffffff" stroke="#000000" points="298.5,-56.5 298.5,-75.5 352.5,-75.5 352.5,-56.5 298.5,-56.5"/>
<text text-anchor="middle" x="325.5" y="-63.5" font-family="Helvetica,sans-Serif" font-size="10.00" fill="#000000">assert.h</text>
</a>
</g>
</g>
<!-- Node8&#45;&gt;Node9 -->
<g id="edge9" class="edge">
<title>Node8&#45;&gt;Node9</title>
<path fill="none" stroke="#191970" d="M280.0803,-112.2455C288.0458,-104.1352 299.5641,-92.4075 309.0079,-82.7919"/>
<polygon fill="#191970" stroke="#191970" points="311.5195,-85.2297 316.0295,-75.6427 306.5253,-80.3247 311.5195,-85.2297"/>
</g>
<!-- Node9&#45;&gt;Node7 -->
<g id="edge10" class="edge">
<title>Node9&#45;&gt;Node7</title>
<path fill="none" stroke="#191970" d="M352.5078,-57.9496C355.5241,-57.2144 358.566,-56.5434 361.5,-56 525.894,-25.5508 725.8519,-14.6319 806.3604,-11.2889"/>
<polygon fill="#191970" stroke="#191970" points="806.6164,-14.7816 816.468,-10.8834 806.3357,-7.7872 806.6164,-14.7816"/>
</g>
<!-- Node10&#45;&gt;Node7 -->
<g id="edge14" class="edge">
<title>Node10&#45;&gt;Node7</title>
<path fill="none" stroke="#191970" d="M413.3754,-113.5818C499.1452,-92.8787 719.6757,-39.6472 806.5546,-18.6765"/>
<polygon fill="#191970" stroke="#191970" points="807.5694,-22.0321 816.4689,-16.2834 805.9268,-15.2276 807.5694,-22.0321"/>
</g>
<!-- Node11 -->
<g id="node12" class="node">
<title>Node11</title>
<polygon fill="#ffffff" stroke="#bfbfbf" points="370.5,-56.5 370.5,-75.5 426.5,-75.5 426.5,-56.5 370.5,-56.5"/>
<text text-anchor="middle" x="398.5" y="-63.5" font-family="Helvetica,sans-Serif" font-size="10.00" fill="#000000">stddef.h</text>
</g>
<!-- Node10&#45;&gt;Node11 -->
<g id="edge13" class="edge">
<title>Node10&#45;&gt;Node11</title>
<path fill="none" stroke="#191970" d="M381.9837,-112.2455C384.6508,-104.7776 388.4133,-94.2427 391.6737,-85.1137"/>
<polygon fill="#191970" stroke="#191970" points="394.9889,-86.2373 395.0562,-75.6427 388.3967,-83.8829 394.9889,-86.2373"/>
</g>
<!-- Node12&#45;&gt;Node4 -->
<g id="edge16" class="edge">
<title>Node12&#45;&gt;Node4</title>
<path fill="none" stroke="#191970" d="M420.4495,-291.2737C404.5094,-276.4719 371.8102,-248.5817 338.5,-235 240.6576,-195.1063 206.8191,-221.1316 103.5,-199 98.8146,-197.9964 93.94,-196.8315 89.1077,-195.5999"/>
<polygon fill="#191970" stroke="#191970" points="89.8851,-192.1852 79.3222,-193.0082 88.0928,-198.9519 89.8851,-192.1852"/>
</g>
<!-- Node12&#45;&gt;Node13 -->
<g id="edge17" class="edge">
<title>Node12&#45;&gt;Node13</title>
<path fill="none" stroke="#191970" d="M460.0679,-291.3733C488.6688,-282.0613 532.1788,-267.8953 563.5819,-257.671"/>
<polygon fill="#191970" stroke="#191970" points="564.8928,-260.9251 573.318,-254.5011 562.7257,-254.269 564.8928,-260.9251"/>
</g>
<!-- Node13&#45;&gt;Node14 -->
<g id="edge18" class="edge">
<title>Node13&#45;&gt;Node14</title>
<path fill="none" stroke="#191970" d="M647.2212,-237.0301C652.0329,-236.2891 656.8629,-235.5946 661.5,-235 843.8162,-211.623 892.9445,-233.4295 1073.5,-199 1078.0473,-198.1329 1082.7648,-197.0276 1087.4197,-195.8074"/>
<polygon fill="#191970" stroke="#191970" points="1088.7375,-199.0729 1097.4197,-193.0007 1086.8459,-192.3333 1088.7375,-199.0729"/>
</g>
<!-- Node23 -->
<g id="node24" class="node">
<title>Node23</title>
<g id="a_node24"><a xlink:href="hash_2algorithm_8h.html" target="_top" xlink:title="Hash algorithm definitions for the PSA Crypto API. ">
<polygon fill="#ffffff" stroke="#000000" points="545.5,-112.5 545.5,-131.5 661.5,-131.5 661.5,-112.5 545.5,-112.5"/>
<text text-anchor="middle" x="603.5" y="-119.5" font-family="Helvetica,sans-Serif" font-size="10.00" fill="#000000">psa/hash/algorithm.h</text>
</a>
</g>
</g>
<!-- Node13&#45;&gt;Node23 -->
<g id="edge36" class="edge">
<title>Node13&#45;&gt;Node23</title>
<path fill="none" stroke="#191970" d="M602.5785,-235.3484C602.742,-215.2295 603.1223,-168.4608 603.3398,-141.7098"/>
<polygon fill="#191970" stroke="#191970" points="606.8404,-141.6349 603.4219,-131.6068 599.8406,-141.5779 606.8404,-141.6349"/>
</g>
<!-- Node24 -->
<g id="node25" class="node">
<title>Node24</title>
<g id="a_node25"><a xlink:href="mac_2algorithm_8h.html" target="_top" xlink:title="MAC algorithm definitions for the PSA Crypto API. ">
<polygon fill="#ffffff" stroke="#000000" points="461,-174 461,-193 574,-193 574,-174 461,-174"/>
<text text-anchor="middle" x="517.5" y="-181" font-family="Helvetica,sans-Serif" font-size="10.00" fill="#000000">psa/mac/algorithm.h</text>
</a>
</g>
</g>
<!-- Node13&#45;&gt;Node24 -->
<g id="edge38" class="edge">
<title>Node13&#45;&gt;Node24</title>
<path fill="none" stroke="#191970" d="M589.2188,-235.3906C575.7452,-225.6421 554.678,-210.3994 538.8565,-198.9521"/>
<polygon fill="#191970" stroke="#191970" points="540.8414,-196.0682 530.688,-193.0419 536.7381,-201.7394 540.8414,-196.0682"/>
</g>
<!-- Node25 -->
<g id="node26" class="node">
<title>Node25</title>
<g id="a_node26"><a xlink:href="cipher_2algorithm_8h.html" target="_top" xlink:title="Cipher algorithm definitions for the PSA Crypto API. ">
<polygon fill="#ffffff" stroke="#000000" points="756,-112.5 756,-131.5 879,-131.5 879,-112.5 756,-112.5"/>
<text text-anchor="middle" x="817.5" y="-119.5" font-family="Helvetica,sans-Serif" font-size="10.00" fill="#000000">psa/cipher/algorithm.h</text>
</a>
</g>
</g>
<!-- Node13&#45;&gt;Node25 -->
<g id="edge41" class="edge">
<title>Node13&#45;&gt;Node25</title>
<path fill="none" stroke="#191970" d="M647.2631,-237.3212C652.0668,-236.5246 656.8834,-235.7374 661.5,-235 714.7549,-226.4935 866.3076,-239.8649 901.5,-199 910.4908,-188.56 908.5232,-179.8534 901.5,-168 892.6564,-153.0742 877.0668,-142.6736 861.6998,-135.589"/>
<polygon fill="#191970" stroke="#191970" points="862.7971,-132.2534 852.2227,-131.5956 860.0789,-138.7041 862.7971,-132.2534"/>
</g>
<!-- Node26 -->
<g id="node27" class="node">
<title>Node26</title>
<g id="a_node27"><a xlink:href="aead_2algorithm_8h.html" target="_top" xlink:title="AEAD algorithm definitions for the PSA Crypto API. ">
<polygon fill="#ffffff" stroke="#000000" points="948.5,-174 948.5,-193 1064.5,-193 1064.5,-174 948.5,-174"/>
<text text-anchor="middle" x="1006.5" y="-181" font-family="Helvetica,sans-Serif" font-size="10.00" fill="#000000">psa/aead/algorithm.h</text>
</a>
</g>
</g>
<!-- Node13&#45;&gt;Node26 -->
<g id="edge43" class="edge">
<title>Node13&#45;&gt;Node26</title>
<path fill="none" stroke="#191970" d="M647.2501,-237.2375C652.0563,-236.4569 656.877,-235.6963 661.5,-235 782.5186,-216.7713 813.9133,-219.8953 934.5,-199 941.1871,-197.8413 948.1964,-196.4967 955.1069,-195.0932"/>
<polygon fill="#191970" stroke="#191970" points="956.0354,-198.475 965.1117,-193.0094 954.6081,-191.622 956.0354,-198.475"/>
</g>
<!-- Node27 -->
<g id="node28" class="node">
<title>Node27</title>
<g id="a_node28"><a xlink:href="key__agreement_2algorithm_8h.html" target="_top" xlink:title="Key agreement algorithm definitions for the PSA Crypto API. ">
<polygon fill="#ffffff" stroke="#000000" points="113,-174 113,-193 280,-193 280,-174 113,-174"/>
<text text-anchor="middle" x="196.5" y="-181" font-family="Helvetica,sans-Serif" font-size="10.00" fill="#000000">psa/key_agreement/algorithm.h</text>
</a>
</g>
</g>
<!-- Node13&#45;&gt;Node27 -->
<g id="edge45" class="edge">
<title>Node13&#45;&gt;Node27</title>
<path fill="none" stroke="#191970" d="M557.9952,-238.7866C497.1013,-230.2152 384.4243,-214.1051 288.5,-199 279.8974,-197.6454 270.8502,-196.176 261.9247,-194.6999"/>
<polygon fill="#191970" stroke="#191970" points="262.3683,-191.2257 251.9293,-193.0363 261.2189,-198.1307 262.3683,-191.2257"/>
</g>
<!-- Node28 -->
<g id="node29" class="node">
<title>Node28</title>
<g id="a_node29"><a xlink:href="key__derivation_2algorithm_8h.html" target="_top" xlink:title="Key derivation algorithm definitions for the PSA Crypto API. ">
<polygon fill="#ffffff" stroke="#000000" points="788.5,-168.5 788.5,-198.5 892.5,-198.5 892.5,-168.5 788.5,-168.5"/>
<text text-anchor="start" x="796.5" y="-186.5" font-family="Helvetica,sans-Serif" font-size="10.00" fill="#000000">psa/key_derivation</text>
<text text-anchor="middle" x="840.5" y="-175.5" font-family="Helvetica,sans-Serif" font-size="10.00" fill="#000000">/algorithm.h</text>
</a>
</g>
</g>
<!-- Node13&#45;&gt;Node28 -->
<g id="edge47" class="edge">
<title>Node13&#45;&gt;Node28</title>
<path fill="none" stroke="#191970" d="M639.4264,-235.4581C676.5703,-225.86 734.5146,-210.887 778.6771,-199.4752"/>
<polygon fill="#191970" stroke="#191970" points="779.6394,-202.8416 788.4457,-196.951 777.8881,-196.0642 779.6394,-202.8416"/>
</g>
<!-- Node29 -->
<g id="node30" class="node">
<title>Node29</title>
<g id="a_node30"><a xlink:href="asymmetric__encryption_2algorithm_8h.html" target="_top" xlink:title="Asymmetric encryption algorithm definitions for the PSA Crypto API. ">
<polygon fill="#ffffff" stroke="#000000" points="298,-168.5 298,-198.5 443,-198.5 443,-168.5 298,-168.5"/>
<text text-anchor="start" x="306" y="-186.5" font-family="Helvetica,sans-Serif" font-size="10.00" fill="#000000">psa/asymmetric_encryption</text>
<text text-anchor="middle" x="370.5" y="-175.5" font-family="Helvetica,sans-Serif" font-size="10.00" fill="#000000">/algorithm.h</text>
</a>
</g>
</g>
<!-- Node13&#45;&gt;Node29 -->
<g id="edge49" class="edge">
<title>Node13&#45;&gt;Node29</title>
<path fill="none" stroke="#191970" d="M566.5046,-235.4581C532.0987,-226.3376 479.3846,-212.3638 437.2865,-201.2042"/>
<polygon fill="#191970" stroke="#191970" points="437.9442,-197.7577 427.3812,-198.5784 436.1505,-204.524 437.9442,-197.7577"/>
</g>
<!-- Node30 -->
<g id="node31" class="node">
<title>Node30</title>
<g id="a_node31"><a xlink:href="asymmetric__signature_2algorithm_8h.html" target="_top" xlink:title="Asymmetric signature algorithm definitions for the PSA Crypto API. ">
<polygon fill="#ffffff" stroke="#000000" points="631,-168.5 631,-198.5 770,-198.5 770,-168.5 631,-168.5"/>
<text text-anchor="start" x="639" y="-186.5" font-family="Helvetica,sans-Serif" font-size="10.00" fill="#000000">psa/asymmetric_signature</text>
<text text-anchor="middle" x="700.5" y="-175.5" font-family="Helvetica,sans-Serif" font-size="10.00" fill="#000000">/algorithm.h</text>
</a>
</g>
</g>
<!-- Node13&#45;&gt;Node30 -->
<g id="edge51" class="edge">
<title>Node13&#45;&gt;Node30</title>
<path fill="none" stroke="#191970" d="M617.8125,-235.3906C631.1984,-226.9903 651.0853,-214.5103 668.0014,-203.8945"/>
<polygon fill="#191970" stroke="#191970" points="669.9167,-206.8248 676.5265,-198.5446 666.1958,-200.8956 669.9167,-206.8248"/>
</g>
<!-- Node14&#45;&gt;Node7 -->
<g id="edge19" class="edge">
<title>Node14&#45;&gt;Node7</title>
<path fill="none" stroke="#191970" d="M1126.3661,-173.8032C1127.9161,-149.9209 1128.2989,-87.8946 1094.5,-56 1063.9238,-27.1465 941.0644,-15.8218 878.9057,-11.8722"/>
<polygon fill="#191970" stroke="#191970" points="878.9498,-8.3686 868.7569,-11.2588 878.5275,-15.3558 878.9498,-8.3686"/>
</g>
<!-- Node15 -->
<g id="node16" class="node">
<title>Node15</title>
<g id="a_node16"><a xlink:href="algorithm_8h_source.html" target="_top" xlink:title="psa/algorithm.h">
<polygon fill="#ffffff" stroke="#000000" points="667.5,-56.5 667.5,-75.5 757.5,-75.5 757.5,-56.5 667.5,-56.5"/>
<text text-anchor="middle" x="712.5" y="-63.5" font-family="Helvetica,sans-Serif" font-size="10.00" fill="#000000">psa/algorithm.h</text>
</a>
</g>
</g>
<!-- Node14&#45;&gt;Node15 -->
<g id="edge20" class="edge">
<title>Node14&#45;&gt;Node15</title>
<path fill="none" stroke="#191970" d="M1094.4081,-173.9264C1054.9858,-161.7124 989.2851,-141.0837 965.5,-132 945.054,-124.1915 941.2895,-118.8418 920.5,-112 892.6704,-102.8412 819.6172,-87.3996 767.9776,-76.9601"/>
<polygon fill="#191970" stroke="#191970" points="768.449,-73.4849 757.9549,-74.9423 767.0674,-80.3472 768.449,-73.4849"/>
</g>
<!-- Node16 -->
<g id="node17" class="node">
<title>Node16</title>
<g id="a_node17"><a xlink:href="psa__crypto_2psa_2error_8h_source.html" target="_top" xlink:title="psa/error.h">
<polygon fill="#ffffff" stroke="#000000" points="1141.5,-112.5 1141.5,-131.5 1211.5,-131.5 1211.5,-112.5 1141.5,-112.5"/>
<text text-anchor="middle" x="1176.5" y="-119.5" font-family="Helvetica,sans-Serif" font-size="10.00" fill="#000000">psa/error.h</text>
</a>
</g>
</g>
<!-- Node14&#45;&gt;Node16 -->
<g id="edge22" class="edge">
<title>Node14&#45;&gt;Node16</title>
<path fill="none" stroke="#191970" d="M1133.4688,-173.8906C1141.0591,-164.7376 1152.6661,-150.7409 1161.9132,-139.59"/>
<polygon fill="#191970" stroke="#191970" points="1164.7297,-141.6766 1168.4189,-131.7449 1159.3413,-137.2083 1164.7297,-141.6766"/>
</g>
<!-- Node17 -->
<g id="node18" class="node">
<title>Node17</title>
<g id="a_node18"><a xlink:href="attributes_8h.html" target="_top" xlink:title="Key attributes definitions for the PSA Crypto API. ">
<polygon fill="#ffffff" stroke="#000000" points="974,-112.5 974,-131.5 1085,-131.5 1085,-112.5 974,-112.5"/>
<text text-anchor="middle" x="1029.5" y="-119.5" font-family="Helvetica,sans-Serif" font-size="10.00" fill="#000000">psa/key/attributes.h</text>
</a>
</g>
</g>
<!-- Node14&#45;&gt;Node17 -->
<g id="edge24" class="edge">
<title>Node14&#45;&gt;Node17</title>
<path fill="none" stroke="#191970" d="M1110.5,-173.8906C1095.1419,-164.0519 1071.0479,-148.6167 1053.1255,-137.1351"/>
<polygon fill="#191970" stroke="#191970" points="1054.703,-133.9891 1044.3947,-131.5419 1050.927,-139.8833 1054.703,-133.9891"/>
</g>
<!-- Node15&#45;&gt;Node7 -->
<g id="edge21" class="edge">
<title>Node15&#45;&gt;Node7</title>
<path fill="none" stroke="#191970" d="M734.8478,-56.3733C755.9033,-47.3032 787.6495,-33.6279 811.2175,-23.4755"/>
<polygon fill="#191970" stroke="#191970" points="812.6444,-26.6719 820.4438,-19.5011 809.875,-20.243 812.6444,-26.6719"/>
</g>
<!-- Node16&#45;&gt;Node7 -->
<g id="edge23" class="edge">
<title>Node16&#45;&gt;Node7</title>
<path fill="none" stroke="#191970" d="M1172.1479,-112.0253C1165.0981,-97.157 1149.6957,-69.4892 1127.5,-56 1086.3366,-30.9833 946.3133,-17.6006 879.0941,-12.4848"/>
<polygon fill="#191970" stroke="#191970" points="879.1884,-8.9823 868.9572,-11.7342 878.6714,-15.9632 879.1884,-8.9823"/>
</g>
<!-- Node17&#45;&gt;Node15 -->
<g id="edge25" class="edge">
<title>Node17&#45;&gt;Node15</title>
<path fill="none" stroke="#191970" d="M974.0585,-112.468C922.9973,-103.6517 844.8562,-90.0658 767.4948,-76.1667"/>
<polygon fill="#191970" stroke="#191970" points="768.0369,-72.7081 757.5751,-74.3819 766.7973,-79.5975 768.0369,-72.7081"/>
</g>
<!-- Node18 -->
<g id="node19" class="node">
<title>Node18</title>
<g id="a_node19"><a xlink:href="bits_8h.html" target="_top" xlink:title="Key size definitions for the PSA Crypto API. ">
<polygon fill="#ffffff" stroke="#000000" points="991.5,-56.5 991.5,-75.5 1033.5,-75.5 1033.5,-56.5 991.5,-56.5"/>
<text text-anchor="middle" x="1012.5" y="-63.5" font-family="Helvetica,sans-Serif" font-size="10.00" fill="#000000">bits.h</text>
</a>
</g>
</g>
<!-- Node17&#45;&gt;Node18 -->
<g id="edge26" class="edge">
<title>Node17&#45;&gt;Node18</title>
<path fill="none" stroke="#191970" d="M1026.5388,-112.2455C1024.2962,-104.8579 1021.1423,-94.4689 1018.3919,-85.4087"/>
<polygon fill="#191970" stroke="#191970" points="1021.6812,-84.1948 1015.4272,-75.6427 1014.983,-86.2282 1021.6812,-84.1948"/>
</g>
<!-- Node19 -->
<g id="node20" class="node">
<title>Node19</title>
<g id="a_node20"><a xlink:href="id_8h.html" target="_top" xlink:title="Key ID definitions for the PSA Crypto API. ">
<polygon fill="#ffffff" stroke="#000000" points="1051.5,-56.5 1051.5,-75.5 1085.5,-75.5 1085.5,-56.5 1051.5,-56.5"/>
<text text-anchor="middle" x="1068.5" y="-63.5" font-family="Helvetica,sans-Serif" font-size="10.00" fill="#000000">id.h</text>
</a>
</g>
</g>
<!-- Node17&#45;&gt;Node19 -->
<g id="edge28" class="edge">
<title>Node17&#45;&gt;Node19</title>
<path fill="none" stroke="#191970" d="M1036.2933,-112.2455C1041.7178,-104.4564 1049.4661,-93.3308 1056.0033,-83.9439"/>
<polygon fill="#191970" stroke="#191970" points="1058.9417,-85.849 1061.7846,-75.6427 1053.1975,-81.8485 1058.9417,-85.849"/>
</g>
<!-- Node20 -->
<g id="node21" class="node">
<title>Node20</title>
<g id="a_node21"><a xlink:href="lifetime_8h.html" target="_top" xlink:title="Key ilfetime definitions for the PSA Crypto API. ">
<polygon fill="#ffffff" stroke="#000000" points="776,-56.5 776,-75.5 837,-75.5 837,-56.5 776,-56.5"/>
<text text-anchor="middle" x="806.5" y="-63.5" font-family="Helvetica,sans-Serif" font-size="10.00" fill="#000000">lifetime.h</text>
</a>
</g>
</g>
<!-- Node17&#45;&gt;Node20 -->
<g id="edge30" class="edge">
<title>Node17&#45;&gt;Node20</title>
<path fill="none" stroke="#191970" d="M991.0701,-112.464C955.9432,-103.7317 902.2847,-90.3529 847.1044,-76.3973"/>
<polygon fill="#191970" stroke="#191970" points="847.7055,-72.9391 837.1524,-73.8781 845.9877,-79.7251 847.7055,-72.9391"/>
</g>
<!-- Node21 -->
<g id="node22" class="node">
<title>Node21</title>
<g id="a_node22"><a xlink:href="psa__crypto_2psa_2key_2type_8h.html" target="_top" xlink:title="Key type definitions for the PSA Crypto API. ">
<polygon fill="#ffffff" stroke="#000000" points="855,-56.5 855,-75.5 902,-75.5 902,-56.5 855,-56.5"/>
<text text-anchor="middle" x="878.5" y="-63.5" font-family="Helvetica,sans-Serif" font-size="10.00" fill="#000000">type.h</text>
</a>
</g>
</g>
<!-- Node17&#45;&gt;Node21 -->
<g id="edge32" class="edge">
<title>Node17&#45;&gt;Node21</title>
<path fill="none" stroke="#191970" d="M1003.5422,-112.3733C978.1585,-102.9594 939.3981,-88.5847 911.7655,-78.3369"/>
<polygon fill="#191970" stroke="#191970" points="912.727,-74.9606 902.1339,-74.7649 910.2929,-81.5238 912.727,-74.9606"/>
</g>
<!-- Node22 -->
<g id="node23" class="node">
<title>Node22</title>
<g id="a_node23"><a xlink:href="usage_8h.html" target="_top" xlink:title="Key usage definitions for the PSA Crypto API. ">
<polygon fill="#ffffff" stroke="#000000" points="920,-56.5 920,-75.5 973,-75.5 973,-56.5 920,-56.5"/>
<text text-anchor="middle" x="946.5" y="-63.5" font-family="Helvetica,sans-Serif" font-size="10.00" fill="#000000">usage.h</text>
</a>
</g>
</g>
<!-- Node17&#45;&gt;Node22 -->
<g id="edge34" class="edge">
<title>Node17&#45;&gt;Node22</title>
<path fill="none" stroke="#191970" d="M1015.0425,-112.2455C1002.4268,-103.7337 983.9056,-91.2375 969.2955,-81.3801"/>
<polygon fill="#191970" stroke="#191970" points="971.0391,-78.3343 960.7918,-75.6427 967.1239,-84.1371 971.0391,-78.3343"/>
</g>
<!-- Node18&#45;&gt;Node7 -->
<g id="edge27" class="edge">
<title>Node18&#45;&gt;Node7</title>
<path fill="none" stroke="#191970" d="M991.1985,-58.887C988.2765,-57.9149 985.3145,-56.9315 982.5,-56 947.132,-44.2949 906.7024,-31.0225 878.4129,-21.753"/>
<polygon fill="#191970" stroke="#191970" points="879.1643,-18.3162 868.5716,-18.5294 876.9852,-24.9684 879.1643,-18.3162"/>
</g>
<!-- Node19&#45;&gt;Node7 -->
<g id="edge29" class="edge">
<title>Node19&#45;&gt;Node7</title>
<path fill="none" stroke="#191970" d="M1051.2767,-58.9855C1048.3711,-57.9149 1045.3675,-56.8764 1042.5,-56 986.0801,-38.7559 918.972,-24.5742 878.6071,-16.7077"/>
<polygon fill="#191970" stroke="#191970" points="879.1802,-13.2538 868.6986,-14.7991 877.8561,-20.1275 879.1802,-13.2538"/>
</g>
<!-- Node20&#45;&gt;Node7 -->
<g id="edge31" class="edge">
<title>Node20&#45;&gt;Node7</title>
<path fill="none" stroke="#191970" d="M812.7707,-56.2455C817.7264,-48.5367 824.783,-37.5598 830.7776,-28.2348"/>
<polygon fill="#191970" stroke="#191970" points="833.8376,-29.9471 836.3011,-19.6427 827.9494,-26.1618 833.8376,-29.9471"/>
</g>
<!-- Node21&#45;&gt;Node7 -->
<g id="edge33" class="edge">
<title>Node21&#45;&gt;Node7</title>
<path fill="none" stroke="#191970" d="M872.2293,-56.2455C867.2736,-48.5367 860.217,-37.5598 854.2224,-28.2348"/>
<polygon fill="#191970" stroke="#191970" points="857.0506,-26.1618 848.6989,-19.6427 851.1624,-29.9471 857.0506,-26.1618"/>
</g>
<!-- Node22&#45;&gt;Node7 -->
<g id="edge35" class="edge">
<title>Node22&#45;&gt;Node7</title>
<path fill="none" stroke="#191970" d="M928.3846,-56.2455C912.055,-47.4527 887.829,-34.4079 869.2661,-24.4125"/>
<polygon fill="#191970" stroke="#191970" points="870.8719,-21.3021 860.4078,-19.6427 867.5532,-27.4654 870.8719,-21.3021"/>
</g>
<!-- Node23&#45;&gt;Node15 -->
<g id="edge37" class="edge">
<title>Node23&#45;&gt;Node15</title>
<path fill="none" stroke="#191970" d="M622.4864,-112.2455C639.6792,-103.4125 665.2238,-90.2887 684.7132,-80.2758"/>
<polygon fill="#191970" stroke="#191970" points="686.4359,-83.3257 693.7312,-75.6427 683.237,-77.0993 686.4359,-83.3257"/>
</g>
<!-- Node24&#45;&gt;Node15 -->
<g id="edge39" class="edge">
<title>Node24&#45;&gt;Node15</title>
<path fill="none" stroke="#191970" d="M517.1897,-173.6716C517.2654,-158.3177 519.7549,-128.6768 536.5,-112 553.5073,-95.0621 612.3679,-82.0208 657.3838,-74.2204"/>
<polygon fill="#191970" stroke="#191970" points="658.0576,-77.6563 667.3358,-72.5411 656.8928,-70.7539 658.0576,-77.6563"/>
</g>
<!-- Node24&#45;&gt;Node23 -->
<g id="edge40" class="edge">
<title>Node24&#45;&gt;Node23</title>
<path fill="none" stroke="#191970" d="M530.9375,-173.8906C544.5695,-164.1421 565.8846,-148.8994 581.8922,-137.4521"/>
<polygon fill="#191970" stroke="#191970" points="584.0586,-140.2057 590.1569,-131.5419 579.9868,-134.5118 584.0586,-140.2057"/>
</g>
<!-- Node25&#45;&gt;Node15 -->
<g id="edge42" class="edge">
<title>Node25&#45;&gt;Node15</title>
<path fill="none" stroke="#191970" d="M799.2104,-112.2455C782.7238,-103.4527 758.2648,-90.4079 739.5235,-80.4125"/>
<polygon fill="#191970" stroke="#191970" points="741.0506,-77.2604 730.58,-75.6427 737.7565,-83.4368 741.0506,-77.2604"/>
</g>
<!-- Node26&#45;&gt;Node15 -->
<g id="edge44" class="edge">
<title>Node26&#45;&gt;Node15</title>
<path fill="none" stroke="#191970" d="M993.2527,-173.803C971.9614,-158.6293 928.3637,-129.2306 887.5,-112 848.7723,-95.67 802.7254,-83.8446 767.5878,-76.2757"/>
<polygon fill="#191970" stroke="#191970" points="768.025,-72.7911 757.5187,-74.1584 766.5845,-79.6413 768.025,-72.7911"/>
</g>
<!-- Node27&#45;&gt;Node15 -->
<g id="edge46" class="edge">
<title>Node27&#45;&gt;Node15</title>
<path fill="none" stroke="#191970" d="M248.4908,-173.9875C294.4896,-165.0084 363.1686,-150.2205 421.5,-132 444.3455,-124.8639 448.5284,-118.719 471.5,-112 534.0953,-93.6914 608.0228,-80.8286 657.3367,-73.4465"/>
<polygon fill="#191970" stroke="#191970" points="658.0895,-76.8735 667.4732,-71.9545 657.0701,-69.9481 658.0895,-76.8735"/>
</g>
<!-- Node28&#45;&gt;Node15 -->
<g id="edge48" class="edge">
<title>Node28&#45;&gt;Node15</title>
<path fill="none" stroke="#191970" d="M801.365,-168.4455C782.9961,-159.8935 761.8271,-147.7232 746.5,-132 733.5947,-118.7612 724.4772,-99.6379 718.9544,-85.3804"/>
<polygon fill="#191970" stroke="#191970" points="722.1137,-83.8237 715.4285,-75.6042 715.5288,-86.1986 722.1137,-83.8237"/>
</g>
<!-- Node29&#45;&gt;Node15 -->
<g id="edge50" class="edge">
<title>Node29&#45;&gt;Node15</title>
<path fill="none" stroke="#191970" d="M397.8802,-168.4232C427.5891,-152.5709 476.7793,-127.7834 521.5,-112 566.2305,-96.2132 618.7294,-84.0032 657.3555,-76.1428"/>
<polygon fill="#191970" stroke="#191970" points="658.2439,-79.5345 667.3627,-74.1403 656.8704,-72.6706 658.2439,-79.5345"/>
</g>
<!-- Node30&#45;&gt;Node15 -->
<g id="edge52" class="edge">
<title>Node30&#45;&gt;Node15</title>
<path fill="none" stroke="#191970" d="M702.0688,-168.1389C704.2308,-146.9692 708.1272,-108.8174 710.4972,-85.6112"/>
<polygon fill="#191970" stroke="#191970" points="713.9895,-85.8634 711.5237,-75.5595 707.0257,-85.1521 713.9895,-85.8634"/>
</g>
<!-- Node30&#45;&gt;Node23 -->
<g id="edge53" class="edge">
<title>Node30&#45;&gt;Node23</title>
<path fill="none" stroke="#191970" d="M676.5225,-168.2977C661.5624,-158.8127 642.378,-146.6495 627.4274,-137.1705"/>
<polygon fill="#191970" stroke="#191970" points="629.061,-134.062 618.7413,-131.6633 625.3127,-139.9739 629.061,-134.062"/>
</g>
<!-- Node31&#45;&gt;Node12 -->
<g id="edge56" class="edge">
<title>Node31&#45;&gt;Node12</title>
<path fill="none" stroke="#191970" d="M371.0414,-347.2455C381.7787,-338.8943 397.4473,-326.7076 410.0047,-316.9408"/>
<polygon fill="#191970" stroke="#191970" points="412.3575,-319.5449 418.1023,-310.6427 408.0599,-314.0194 412.3575,-319.5449"/>
</g>
<!-- Node31&#45;&gt;Node14 -->
<g id="edge55" class="edge">
<title>Node31&#45;&gt;Node14</title>
<path fill="none" stroke="#191970" d="M402.0918,-347.7996C536.4084,-319.3829 942.7478,-232.8867 1073.5,-199 1077.2901,-198.0177 1081.2202,-196.9459 1085.1449,-195.8394"/>
<polygon fill="#191970" stroke="#191970" points="1086.1706,-199.1862 1094.8068,-193.0489 1084.2283,-192.4611 1086.1706,-199.1862"/>
</g>
<!-- Node32 -->
<g id="node33" class="node">
<title>Node32</title>
<g id="a_node33"><a xlink:href="crypto__contexts_8h.html" target="_top" xlink:title="Context definitions for PSA Crypto. ">
<polygon fill="#ffffff" stroke="#000000" points="271.5,-291.5 271.5,-310.5 371.5,-310.5 371.5,-291.5 271.5,-291.5"/>
<text text-anchor="middle" x="321.5" y="-298.5" font-family="Helvetica,sans-Serif" font-size="10.00" fill="#000000">crypto_contexts.h</text>
</a>
</g>
</g>
<!-- Node31&#45;&gt;Node32 -->
<g id="edge57" class="edge">
<title>Node31&#45;&gt;Node32</title>
<path fill="none" stroke="#191970" d="M352.0551,-347.2455C346.9618,-339.5367 339.7092,-328.5598 333.548,-319.2348"/>
<polygon fill="#191970" stroke="#191970" points="336.3038,-317.0566 327.8711,-310.6427 330.4635,-320.9155 336.3038,-317.0566"/>
</g>
<!-- Node32&#45;&gt;Node4 -->
<g id="edge58" class="edge">
<title>Node32&#45;&gt;Node4</title>
<path fill="none" stroke="#191970" d="M324.665,-291.1121C328.5487,-276.8567 333.0745,-250.5407 319.5,-235 287.4873,-198.3505 151.0147,-209.5049 103.5,-199 98.8798,-197.9785 94.0726,-196.811 89.3021,-195.5853"/>
<polygon fill="#191970" stroke="#191970" points="90.1967,-192.2016 79.6332,-193.0156 88.3987,-198.9667 90.1967,-192.2016"/>
</g>
<!-- Node33 -->
<g id="node34" class="node">
<title>Node33</title>
<g id="a_node34"><a xlink:href="crypto__includes_8h_source.html" target="_top" xlink:title="psa/crypto_includes.h">
<polygon fill="#ffffff" stroke="#000000" points="194,-235.5 194,-254.5 311,-254.5 311,-235.5 194,-235.5"/>
<text text-anchor="middle" x="252.5" y="-242.5" font-family="Helvetica,sans-Serif" font-size="10.00" fill="#000000">psa/crypto_includes.h</text>
</a>
</g>
</g>
<!-- Node32&#45;&gt;Node33 -->
<g id="edge59" class="edge">
<title>Node32&#45;&gt;Node33</title>
<path fill="none" stroke="#191970" d="M309.4811,-291.2455C299.2902,-282.9746 284.4638,-270.9416 272.4893,-261.2232"/>
<polygon fill="#191970" stroke="#191970" points="274.3514,-258.2268 264.3812,-254.6427 269.9402,-263.662 274.3514,-258.2268"/>
</g>
<!-- Node33&#45;&gt;Node4 -->
<g id="edge60" class="edge">
<title>Node33&#45;&gt;Node4</title>
<path fill="none" stroke="#191970" d="M220.4688,-235.3906C185.1154,-224.7846 128.0843,-207.6753 89.2522,-196.0257"/>
<polygon fill="#191970" stroke="#191970" points="89.8903,-192.5631 79.3063,-193.0419 87.8788,-199.2678 89.8903,-192.5631"/>
</g>
</g>
</svg>
