<?xml version="1.0" encoding="UTF-8" standalone="no"?>
<!DOCTYPE svg PUBLIC "-//W3C//DTD SVG 1.1//EN"
 "http://www.w3.org/Graphics/SVG/1.1/DTD/svg11.dtd">
<!-- Generated by graphviz version 2.40.1 (0)
 -->
<!-- Title: sys/posix/pthread/include/pthread_cond.h Pages: 1 -->
<svg width="1247pt" height="487pt"
 viewBox="0.00 0.00 1247.00 487.00" xmlns="http://www.w3.org/2000/svg" xmlns:xlink="http://www.w3.org/1999/xlink">
<g id="graph0" class="graph" transform="scale(1 1) rotate(0) translate(4 483)">
<title>sys/posix/pthread/include/pthread_cond.h</title>
<polygon fill="#ffffff" stroke="transparent" points="-4,4 -4,-483 1243,-483 1243,4 -4,4"/>
<!-- Node0 -->
<g id="node1" class="node">
<title>Node0</title>
<polygon fill="#bfbfbf" stroke="#000000" points="667,-448.5 667,-478.5 804,-478.5 804,-448.5 667,-448.5"/>
<text text-anchor="start" x="675" y="-466.5" font-family="Helvetica,sans-Serif" font-size="10.00" fill="#000000">sys/posix/pthread/include</text>
<text text-anchor="middle" x="735.5" y="-455.5" font-family="Helvetica,sans-Serif" font-size="10.00" fill="#000000">/pthread_cond.h</text>
</g>
<!-- Node1 -->
<g id="node2" class="node">
<title>Node1</title>
<g id="a_node2"><a xlink:href="time_8h_source.html" target="_top" xlink:title="time.h">
<polygon fill="#ffffff" stroke="#000000" points="318,-392.5 318,-411.5 365,-411.5 365,-392.5 318,-392.5"/>
<text text-anchor="middle" x="341.5" y="-399.5" font-family="Helvetica,sans-Serif" font-size="10.00" fill="#000000">time.h</text>
</a>
</g>
</g>
<!-- Node0&#45;&gt;Node1 -->
<g id="edge1" class="edge">
<title>Node0&#45;&gt;Node1</title>
<path fill="none" stroke="#191970" d="M666.8704,-452.7875C581.66,-439.4869 439.6954,-417.3275 375.2118,-407.2621"/>
<polygon fill="#191970" stroke="#191970" points="375.606,-403.7814 365.1859,-405.6972 374.5264,-410.6976 375.606,-403.7814"/>
</g>
<!-- Node3 -->
<g id="node4" class="node">
<title>Node3</title>
<g id="a_node4"><a xlink:href="mutex_8h.html" target="_top" xlink:title="Mutex for thread synchronization. ">
<polygon fill="#ffffff" stroke="#000000" points="707.5,-392.5 707.5,-411.5 763.5,-411.5 763.5,-392.5 707.5,-392.5"/>
<text text-anchor="middle" x="735.5" y="-399.5" font-family="Helvetica,sans-Serif" font-size="10.00" fill="#000000">mutex.h</text>
</a>
</g>
</g>
<!-- Node0&#45;&gt;Node3 -->
<g id="edge4" class="edge">
<title>Node0&#45;&gt;Node3</title>
<path fill="none" stroke="#191970" d="M735.5,-448.2977C735.5,-440.3834 735.5,-430.6043 735.5,-422.0759"/>
<polygon fill="#191970" stroke="#191970" points="739.0001,-421.8469 735.5,-411.8469 732.0001,-421.847 739.0001,-421.8469"/>
</g>
<!-- Node27 -->
<g id="node28" class="node">
<title>Node27</title>
<g id="a_node28"><a xlink:href="priority__queue_8h.html" target="_top" xlink:title="A simple priority queue. ">
<polygon fill="#ffffff" stroke="#000000" points="1144,-112.5 1144,-131.5 1239,-131.5 1239,-112.5 1144,-112.5"/>
<text text-anchor="middle" x="1191.5" y="-119.5" font-family="Helvetica,sans-Serif" font-size="10.00" fill="#000000">priority_queue.h</text>
</a>
</g>
</g>
<!-- Node0&#45;&gt;Node27 -->
<g id="edge46" class="edge">
<title>Node0&#45;&gt;Node27</title>
<path fill="none" stroke="#191970" d="M804.3641,-459.6537C929.7512,-450.7525 1182.5,-423.2315 1182.5,-346 1182.5,-346 1182.5,-346 1182.5,-234 1182.5,-201.6075 1186.2867,-164.1141 1188.9477,-141.7662"/>
<polygon fill="#191970" stroke="#191970" points="1192.455,-141.9219 1190.2105,-131.5676 1185.5081,-141.0616 1192.455,-141.9219"/>
</g>
<!-- Node1&#45;&gt;Node1 -->
<g id="edge3" class="edge">
<title>Node1&#45;&gt;Node1</title>
<path fill="none" stroke="#191970" d="M359.4158,-411.5746C371.367,-414.2697 383,-411.0781 383,-402 383,-395.546 377.1203,-392.0673 369.4267,-391.5639"/>
<polygon fill="#191970" stroke="#191970" points="369.0789,-388.0808 359.4158,-392.4254 369.6791,-395.055 369.0789,-388.0808"/>
</g>
<!-- Node2 -->
<g id="node3" class="node">
<title>Node2</title>
<polygon fill="#ffffff" stroke="#bfbfbf" points="0,-336.5 0,-355.5 69,-355.5 69,-336.5 0,-336.5"/>
<text text-anchor="middle" x="34.5" y="-343.5" font-family="Helvetica,sans-Serif" font-size="10.00" fill="#000000">sys/types.h</text>
</g>
<!-- Node1&#45;&gt;Node2 -->
<g id="edge2" class="edge">
<title>Node1&#45;&gt;Node2</title>
<path fill="none" stroke="#191970" d="M317.9857,-398.0091C272.5916,-390.26 169.7495,-372.4872 83.5,-356 82.0343,-355.7198 80.5445,-355.4322 79.0405,-355.1393"/>
<polygon fill="#191970" stroke="#191970" points="79.5014,-351.6628 69.0123,-353.1554 78.1429,-358.5297 79.5014,-351.6628"/>
</g>
<!-- Node4 -->
<g id="node5" class="node">
<title>Node4</title>
<polygon fill="#ffffff" stroke="#bfbfbf" points="573.5,-56.5 573.5,-75.5 629.5,-75.5 629.5,-56.5 573.5,-56.5"/>
<text text-anchor="middle" x="601.5" y="-63.5" font-family="Helvetica,sans-Serif" font-size="10.00" fill="#000000">stddef.h</text>
</g>
<!-- Node3&#45;&gt;Node4 -->
<g id="edge5" class="edge">
<title>Node3&#45;&gt;Node4</title>
<path fill="none" stroke="#191970" d="M741.107,-392.4834C751.6774,-373.6141 773.5,-329.8343 773.5,-290 773.5,-290 773.5,-290 773.5,-178 773.5,-147.4754 775.9569,-133.7107 754.5,-112 738.4023,-95.712 679.415,-81.2977 639.5651,-73.1167"/>
<polygon fill="#191970" stroke="#191970" points="640.1275,-69.6599 629.6345,-71.1248 638.7508,-76.5232 640.1275,-69.6599"/>
</g>
<!-- Node5 -->
<g id="node6" class="node">
<title>Node5</title>
<polygon fill="#ffffff" stroke="#bfbfbf" points="385.5,-.5 385.5,-19.5 437.5,-19.5 437.5,-.5 385.5,-.5"/>
<text text-anchor="middle" x="411.5" y="-7.5" font-family="Helvetica,sans-Serif" font-size="10.00" fill="#000000">stdint.h</text>
</g>
<!-- Node3&#45;&gt;Node5 -->
<g id="edge6" class="edge">
<title>Node3&#45;&gt;Node5</title>
<path fill="none" stroke="#191970" d="M707.2627,-400.0812C583.7905,-391.322 97.5,-352.8357 97.5,-290 97.5,-290 97.5,-290 97.5,-122 97.5,-63.582 292.7437,-27.6528 375.3162,-15.0698"/>
<polygon fill="#191970" stroke="#191970" points="375.8953,-18.5222 385.2686,-13.5835 374.8613,-11.599 375.8953,-18.5222"/>
</g>
<!-- Node6 -->
<g id="node7" class="node">
<title>Node6</title>
<polygon fill="#ffffff" stroke="#bfbfbf" points="629.5,-112.5 629.5,-131.5 689.5,-131.5 689.5,-112.5 629.5,-112.5"/>
<text text-anchor="middle" x="659.5" y="-119.5" font-family="Helvetica,sans-Serif" font-size="10.00" fill="#000000">stdbool.h</text>
</g>
<!-- Node3&#45;&gt;Node6 -->
<g id="edge7" class="edge">
<title>Node3&#45;&gt;Node6</title>
<path fill="none" stroke="#191970" d="M735.5,-392.4116C735.5,-373.0538 735.5,-327.9167 735.5,-290 735.5,-290 735.5,-290 735.5,-234 735.5,-203.3494 732.5191,-193.4913 715.5,-168 707.3966,-155.8627 695.1399,-145.2805 684.1572,-137.336"/>
<polygon fill="#191970" stroke="#191970" points="685.9519,-134.3227 675.7261,-131.5508 681.9913,-140.0946 685.9519,-134.3227"/>
</g>
<!-- Node7 -->
<g id="node8" class="node">
<title>Node7</title>
<g id="a_node8"><a xlink:href="architecture_8h.html" target="_top" xlink:title="Platform&#45;independent access to architecture details. ">
<polygon fill="#ffffff" stroke="#000000" points="922,-224.5 922,-243.5 1005,-243.5 1005,-224.5 922,-224.5"/>
<text text-anchor="middle" x="963.5" y="-231.5" font-family="Helvetica,sans-Serif" font-size="10.00" fill="#000000">architecture.h</text>
</a>
</g>
</g>
<!-- Node3&#45;&gt;Node7 -->
<g id="edge8" class="edge">
<title>Node3&#45;&gt;Node7</title>
<path fill="none" stroke="#191970" d="M763.5058,-397.4828C806.4192,-390.0797 885.7661,-374.3396 907.5,-356 939.2787,-329.1843 953.9624,-280.4874 959.9437,-253.4345"/>
<polygon fill="#191970" stroke="#191970" points="963.3808,-254.0958 961.9424,-243.5991 956.521,-252.7018 963.3808,-254.0958"/>
</g>
<!-- Node11 -->
<g id="node12" class="node">
<title>Node11</title>
<g id="a_node12"><a xlink:href="kernel__defines_8h.html" target="_top" xlink:title="Common macros and compiler attributes/pragmas configuration. ">
<polygon fill="#ffffff" stroke="#000000" points="272,-168.5 272,-187.5 367,-187.5 367,-168.5 272,-168.5"/>
<text text-anchor="middle" x="319.5" y="-175.5" font-family="Helvetica,sans-Serif" font-size="10.00" fill="#000000">kernel_defines.h</text>
</a>
</g>
</g>
<!-- Node3&#45;&gt;Node11 -->
<g id="edge13" class="edge">
<title>Node3&#45;&gt;Node11</title>
<path fill="none" stroke="#191970" d="M707.3977,-397.7793C628.6736,-385.4581 408.2242,-347.3953 354.5,-300 325.1494,-274.107 319.6786,-225.4118 319.0799,-198.0224"/>
<polygon fill="#191970" stroke="#191970" points="322.5796,-197.7124 319.0661,-187.7172 315.5796,-197.7219 322.5796,-197.7124"/>
</g>
<!-- Node17 -->
<g id="node18" class="node">
<title>Node17</title>
<g id="a_node18"><a xlink:href="list_8h.html" target="_top" xlink:title="Intrusive linked list. ">
<polygon fill="#ffffff" stroke="#000000" points="707.5,-112.5 707.5,-131.5 745.5,-131.5 745.5,-112.5 707.5,-112.5"/>
<text text-anchor="middle" x="726.5" y="-119.5" font-family="Helvetica,sans-Serif" font-size="10.00" fill="#000000">list.h</text>
</a>
</g>
</g>
<!-- Node3&#45;&gt;Node17 -->
<g id="edge24" class="edge">
<title>Node3&#45;&gt;Node17</title>
<path fill="none" stroke="#191970" d="M763.7472,-395.6798C809.1936,-383.6553 893.5,-352.8754 893.5,-290 893.5,-290 893.5,-290 893.5,-234 893.5,-203.3494 895.0751,-189.7709 873.5,-168 856.8966,-151.2458 793.3688,-135.7382 755.4741,-127.7154"/>
<polygon fill="#191970" stroke="#191970" points="756.0278,-124.2559 745.5259,-125.6562 754.6089,-131.1106 756.0278,-124.2559"/>
</g>
<!-- Node18 -->
<g id="node19" class="node">
<title>Node18</title>
<g id="a_node19"><a xlink:href="core_2include_2thread_8h.html" target="_top" xlink:title="Threading API. ">
<polygon fill="#ffffff" stroke="#000000" points="523,-336.5 523,-355.5 580,-355.5 580,-336.5 523,-336.5"/>
<text text-anchor="middle" x="551.5" y="-343.5" font-family="Helvetica,sans-Serif" font-size="10.00" fill="#000000">thread.h</text>
</a>
</g>
</g>
<!-- Node3&#45;&gt;Node18 -->
<g id="edge25" class="edge">
<title>Node3&#45;&gt;Node18</title>
<path fill="none" stroke="#191970" d="M707.1532,-393.3727C675.7745,-383.8227 625.0185,-368.3752 590.0442,-357.7308"/>
<polygon fill="#191970" stroke="#191970" points="590.768,-354.2927 580.1821,-354.7293 588.7298,-360.9894 590.768,-354.2927"/>
</g>
<!-- Node7&#45;&gt;Node5 -->
<g id="edge9" class="edge">
<title>Node7&#45;&gt;Node5</title>
<path fill="none" stroke="#191970" d="M1005.114,-229.6996C1056.899,-222.6773 1135.1259,-205.5712 1105.5,-168 1022.2423,-62.4138 578.9817,-22.162 447.9839,-12.4682"/>
<polygon fill="#191970" stroke="#191970" points="447.9181,-8.9544 437.6912,-11.7224 447.4121,-15.936 447.9181,-8.9544"/>
</g>
<!-- Node8 -->
<g id="node9" class="node">
<title>Node8</title>
<g id="a_node9"><a xlink:href="inttypes_8h.html" target="_top" xlink:title="Adds include for missing inttype definitions. ">
<polygon fill="#ffffff" stroke="#000000" points="802,-168.5 802,-187.5 865,-187.5 865,-168.5 802,-168.5"/>
<text text-anchor="middle" x="833.5" y="-175.5" font-family="Helvetica,sans-Serif" font-size="10.00" fill="#000000">inttypes.h</text>
</a>
</g>
</g>
<!-- Node7&#45;&gt;Node8 -->
<g id="edge10" class="edge">
<title>Node7&#45;&gt;Node8</title>
<path fill="none" stroke="#191970" d="M941.1522,-224.3733C920.0967,-215.3032 888.3505,-201.6279 864.7825,-191.4755"/>
<polygon fill="#191970" stroke="#191970" points="866.125,-188.243 855.5562,-187.5011 863.3556,-194.6719 866.125,-188.243"/>
</g>
<!-- Node9 -->
<g id="node10" class="node">
<title>Node9</title>
<polygon fill="#ffffff" stroke="#bfbfbf" points="921.5,-168.5 921.5,-187.5 971.5,-187.5 971.5,-168.5 921.5,-168.5"/>
<text text-anchor="middle" x="946.5" y="-175.5" font-family="Helvetica,sans-Serif" font-size="10.00" fill="#000000">limits.h</text>
</g>
<!-- Node7&#45;&gt;Node9 -->
<g id="edge11" class="edge">
<title>Node7&#45;&gt;Node9</title>
<path fill="none" stroke="#191970" d="M960.5388,-224.2455C958.2962,-216.8579 955.1423,-206.4689 952.3919,-197.4087"/>
<polygon fill="#191970" stroke="#191970" points="955.6812,-196.1948 949.4272,-187.6427 948.983,-198.2282 955.6812,-196.1948"/>
</g>
<!-- Node10 -->
<g id="node11" class="node">
<title>Node10</title>
<polygon fill="#ffffff" stroke="#bfbfbf" points="990,-168.5 990,-187.5 1097,-187.5 1097,-168.5 990,-168.5"/>
<text text-anchor="middle" x="1043.5" y="-175.5" font-family="Helvetica,sans-Serif" font-size="10.00" fill="#000000">architecture_arch.h</text>
</g>
<!-- Node7&#45;&gt;Node10 -->
<g id="edge12" class="edge">
<title>Node7&#45;&gt;Node10</title>
<path fill="none" stroke="#191970" d="M977.4349,-224.2455C989.5947,-215.7337 1007.4464,-203.2375 1021.5285,-193.3801"/>
<polygon fill="#191970" stroke="#191970" points="1023.5395,-196.2447 1029.7248,-187.6427 1019.5253,-190.51 1023.5395,-196.2447"/>
</g>
<!-- Node12 -->
<g id="node13" class="node">
<title>Node12</title>
<g id="a_node13"><a xlink:href="modules_8h.html" target="_top" xlink:title="Common macros and compiler attributes/pragmas configuration. ">
<polygon fill="#ffffff" stroke="#000000" points="202,-112.5 202,-131.5 267,-131.5 267,-112.5 202,-112.5"/>
<text text-anchor="middle" x="234.5" y="-119.5" font-family="Helvetica,sans-Serif" font-size="10.00" fill="#000000">modules.h</text>
</a>
</g>
</g>
<!-- Node11&#45;&gt;Node12 -->
<g id="edge14" class="edge">
<title>Node11&#45;&gt;Node12</title>
<path fill="none" stroke="#191970" d="M304.6941,-168.2455C291.7744,-159.7337 272.8069,-147.2375 257.8448,-137.3801"/>
<polygon fill="#191970" stroke="#191970" points="259.4124,-134.2216 249.1362,-131.6427 255.5613,-140.067 259.4124,-134.2216"/>
</g>
<!-- Node13 -->
<g id="node14" class="node">
<title>Node13</title>
<g id="a_node14"><a xlink:href="riot__version_8h.html" target="_top" xlink:title="Common macros and compiler attributes/pragmas configuration. ">
<polygon fill="#ffffff" stroke="#000000" points="283,-56.5 283,-75.5 364,-75.5 364,-56.5 283,-56.5"/>
<text text-anchor="middle" x="323.5" y="-63.5" font-family="Helvetica,sans-Serif" font-size="10.00" fill="#000000">riot_version.h</text>
</a>
</g>
</g>
<!-- Node11&#45;&gt;Node13 -->
<g id="edge15" class="edge">
<title>Node11&#45;&gt;Node13</title>
<path fill="none" stroke="#191970" d="M271.7077,-171.2025C226.617,-162.6576 169.1522,-144.9438 192.5,-112 202.226,-98.2766 240.2814,-85.8448 272.8871,-77.375"/>
<polygon fill="#191970" stroke="#191970" points="273.9533,-80.7158 282.7938,-74.8766 272.2415,-73.9283 273.9533,-80.7158"/>
</g>
<!-- Node14 -->
<g id="node15" class="node">
<title>Node14</title>
<g id="a_node15"><a xlink:href="compiler__hints_8h.html" target="_top" xlink:title="Common macros and compiler attributes/pragmas configuration. ">
<polygon fill="#ffffff" stroke="#000000" points="285,-112.5 285,-131.5 378,-131.5 378,-112.5 285,-112.5"/>
<text text-anchor="middle" x="331.5" y="-119.5" font-family="Helvetica,sans-Serif" font-size="10.00" fill="#000000">compiler_hints.h</text>
</a>
</g>
</g>
<!-- Node11&#45;&gt;Node14 -->
<g id="edge17" class="edge">
<title>Node11&#45;&gt;Node14</title>
<path fill="none" stroke="#191970" d="M321.5902,-168.2455C323.1561,-160.9382 325.3512,-150.6944 327.2776,-141.7046"/>
<polygon fill="#191970" stroke="#191970" points="330.7607,-142.1541 329.4337,-131.6427 323.916,-140.6873 330.7607,-142.1541"/>
</g>
<!-- Node16 -->
<g id="node17" class="node">
<title>Node16</title>
<g id="a_node17"><a xlink:href="container_8h.html" target="_top" xlink:title="Common macros and compiler attributes/pragmas configuration. ">
<polygon fill="#ffffff" stroke="#000000" points="396,-112.5 396,-131.5 465,-131.5 465,-112.5 396,-112.5"/>
<text text-anchor="middle" x="430.5" y="-119.5" font-family="Helvetica,sans-Serif" font-size="10.00" fill="#000000">container.h</text>
</a>
</g>
</g>
<!-- Node11&#45;&gt;Node16 -->
<g id="edge21" class="edge">
<title>Node11&#45;&gt;Node16</title>
<path fill="none" stroke="#191970" d="M338.5816,-168.3733C356.2402,-159.4644 382.7053,-146.1127 402.7098,-136.0203"/>
<polygon fill="#191970" stroke="#191970" points="404.3158,-139.1303 411.6674,-131.5011 401.1628,-132.8806 404.3158,-139.1303"/>
</g>
<!-- Node13&#45;&gt;Node5 -->
<g id="edge16" class="edge">
<title>Node13&#45;&gt;Node5</title>
<path fill="none" stroke="#191970" d="M338.8284,-56.2455C352.3303,-47.6534 372.2122,-35.0014 387.7686,-25.1018"/>
<polygon fill="#191970" stroke="#191970" points="389.7897,-27.9643 396.3472,-19.6427 386.0315,-22.0587 389.7897,-27.9643"/>
</g>
<!-- Node14&#45;&gt;Node5 -->
<g id="edge20" class="edge">
<title>Node14&#45;&gt;Node5</title>
<path fill="none" stroke="#191970" d="M341.2119,-112.2475C349.9195,-103.2478 362.7827,-89.3038 372.5,-76 383.6179,-60.7787 394.3706,-42.1993 401.7595,-28.6359"/>
<polygon fill="#191970" stroke="#191970" points="404.8735,-30.2348 406.5024,-19.7659 398.7005,-26.934 404.8735,-30.2348"/>
</g>
<!-- Node15 -->
<g id="node16" class="node">
<title>Node15</title>
<g id="a_node16"><a xlink:href="assert_8h.html" target="_top" xlink:title="POSIX.1&#45;2008 compliant version of the assert macro. ">
<polygon fill="#ffffff" stroke="#000000" points="210.5,-56.5 210.5,-75.5 264.5,-75.5 264.5,-56.5 210.5,-56.5"/>
<text text-anchor="middle" x="237.5" y="-63.5" font-family="Helvetica,sans-Serif" font-size="10.00" fill="#000000">assert.h</text>
</a>
</g>
</g>
<!-- Node14&#45;&gt;Node15 -->
<g id="edge18" class="edge">
<title>Node14&#45;&gt;Node15</title>
<path fill="none" stroke="#191970" d="M315.1264,-112.2455C300.5692,-103.5731 279.069,-90.7645 262.3848,-80.825"/>
<polygon fill="#191970" stroke="#191970" points="264.0683,-77.7539 253.6859,-75.6427 260.4856,-83.7676 264.0683,-77.7539"/>
</g>
<!-- Node15&#45;&gt;Node5 -->
<g id="edge19" class="edge">
<title>Node15&#45;&gt;Node5</title>
<path fill="none" stroke="#191970" d="M264.6875,-57.25C294.5715,-47.6322 342.7044,-32.1411 375.6548,-21.5364"/>
<polygon fill="#191970" stroke="#191970" points="376.9095,-24.8095 385.3563,-18.4141 374.7649,-18.1461 376.9095,-24.8095"/>
</g>
<!-- Node16&#45;&gt;Node4 -->
<g id="edge22" class="edge">
<title>Node16&#45;&gt;Node4</title>
<path fill="none" stroke="#191970" d="M459.8959,-112.3733C488.5891,-102.9767 532.3754,-88.6373 563.6566,-78.3932"/>
<polygon fill="#191970" stroke="#191970" points="564.9244,-81.661 573.3384,-75.2225 562.7458,-75.0086 564.9244,-81.661"/>
</g>
<!-- Node16&#45;&gt;Node5 -->
<g id="edge23" class="edge">
<title>Node16&#45;&gt;Node5</title>
<path fill="none" stroke="#191970" d="M428.8801,-112.4509C425.7812,-94.184 418.9567,-53.9553 414.8416,-29.6976"/>
<polygon fill="#191970" stroke="#191970" points="418.2391,-28.7986 413.1158,-19.5249 411.3377,-29.9694 418.2391,-28.7986"/>
</g>
<!-- Node19 -->
<g id="node20" class="node">
<title>Node19</title>
<g id="a_node20"><a xlink:href="clist_8h.html" target="_top" xlink:title="Circular linked list. ">
<polygon fill="#ffffff" stroke="#000000" points="664,-168.5 664,-187.5 707,-187.5 707,-168.5 664,-168.5"/>
<text text-anchor="middle" x="685.5" y="-175.5" font-family="Helvetica,sans-Serif" font-size="10.00" fill="#000000">clist.h</text>
</a>
</g>
</g>
<!-- Node18&#45;&gt;Node19 -->
<g id="edge26" class="edge">
<title>Node18&#45;&gt;Node19</title>
<path fill="none" stroke="#191970" d="M580.2439,-339.4715C613.8803,-331.2015 666.5213,-316.0784 678.5,-300 700.7919,-270.0785 695.7581,-223.6876 690.4233,-197.5792"/>
<polygon fill="#191970" stroke="#191970" points="693.8175,-196.7202 688.1973,-187.7388 686.99,-198.2647 693.8175,-196.7202"/>
</g>
<!-- Node20 -->
<g id="node21" class="node">
<title>Node20</title>
<g id="a_node21"><a xlink:href="cib_8h.html" target="_top" xlink:title="Circular integer buffer interface. ">
<polygon fill="#ffffff" stroke="#000000" points="335.5,-224.5 335.5,-243.5 373.5,-243.5 373.5,-224.5 335.5,-224.5"/>
<text text-anchor="middle" x="354.5" y="-231.5" font-family="Helvetica,sans-Serif" font-size="10.00" fill="#000000">cib.h</text>
</a>
</g>
</g>
<!-- Node18&#45;&gt;Node20 -->
<g id="edge30" class="edge">
<title>Node18&#45;&gt;Node20</title>
<path fill="none" stroke="#191970" d="M522.6763,-342.4842C476.6642,-336.2816 389.6379,-321.9401 368.5,-300 356.7135,-287.7661 353.7884,-268.211 353.4672,-253.5564"/>
<polygon fill="#191970" stroke="#191970" points="356.9674,-253.5616 353.6254,-243.5077 349.9683,-253.4513 356.9674,-253.5616"/>
</g>
<!-- Node21 -->
<g id="node22" class="node">
<title>Node21</title>
<g id="a_node22"><a xlink:href="core_2include_2msg_8h.html" target="_top" xlink:title="Messaging API for inter process communication. ">
<polygon fill="#ffffff" stroke="#000000" points="378,-280.5 378,-299.5 423,-299.5 423,-280.5 378,-280.5"/>
<text text-anchor="middle" x="400.5" y="-287.5" font-family="Helvetica,sans-Serif" font-size="10.00" fill="#000000">msg.h</text>
</a>
</g>
</g>
<!-- Node18&#45;&gt;Node21 -->
<g id="edge32" class="edge">
<title>Node18&#45;&gt;Node21</title>
<path fill="none" stroke="#191970" d="M525.5422,-336.3733C499.8581,-326.848 460.4788,-312.2438 432.7892,-301.9748"/>
<polygon fill="#191970" stroke="#191970" points="433.7567,-298.6007 423.1637,-298.4051 431.3226,-305.1639 433.7567,-298.6007"/>
</g>
<!-- Node22 -->
<g id="node23" class="node">
<title>Node22</title>
<g id="a_node23"><a xlink:href="sched_8h.html" target="_top" xlink:title="Scheduler API definition. ">
<polygon fill="#ffffff" stroke="#000000" points="525,-224.5 525,-243.5 578,-243.5 578,-224.5 525,-224.5"/>
<text text-anchor="middle" x="551.5" y="-231.5" font-family="Helvetica,sans-Serif" font-size="10.00" fill="#000000">sched.h</text>
</a>
</g>
</g>
<!-- Node18&#45;&gt;Node22 -->
<g id="edge41" class="edge">
<title>Node18&#45;&gt;Node22</title>
<path fill="none" stroke="#191970" d="M551.5,-336.4509C551.5,-318.184 551.5,-277.9553 551.5,-253.6976"/>
<polygon fill="#191970" stroke="#191970" points="555.0001,-253.5249 551.5,-243.5249 548.0001,-253.5249 555.0001,-253.5249"/>
</g>
<!-- Node24 -->
<g id="node25" class="node">
<title>Node24</title>
<g id="a_node25"><a xlink:href="thread__config_8h.html" target="_top" xlink:title="Thread configuration defines. ">
<polygon fill="#ffffff" stroke="#000000" points="579.5,-280.5 579.5,-299.5 669.5,-299.5 669.5,-280.5 579.5,-280.5"/>
<text text-anchor="middle" x="624.5" y="-287.5" font-family="Helvetica,sans-Serif" font-size="10.00" fill="#000000">thread_config.h</text>
</a>
</g>
</g>
<!-- Node18&#45;&gt;Node24 -->
<g id="edge42" class="edge">
<title>Node18&#45;&gt;Node24</title>
<path fill="none" stroke="#191970" d="M564.2156,-336.2455C575.102,-327.8943 590.9883,-315.7076 603.72,-305.9408"/>
<polygon fill="#191970" stroke="#191970" points="606.1261,-308.5063 611.9301,-299.6427 601.8654,-302.9523 606.1261,-308.5063"/>
</g>
<!-- Node26 -->
<g id="node27" class="node">
<title>Node26</title>
<polygon fill="#ffffff" stroke="#bfbfbf" points="441.5,-280.5 441.5,-299.5 523.5,-299.5 523.5,-280.5 441.5,-280.5"/>
<text text-anchor="middle" x="482.5" y="-287.5" font-family="Helvetica,sans-Serif" font-size="10.00" fill="#000000">thread_arch.h</text>
</g>
<!-- Node18&#45;&gt;Node26 -->
<g id="edge45" class="edge">
<title>Node18&#45;&gt;Node26</title>
<path fill="none" stroke="#191970" d="M539.4811,-336.2455C529.2902,-327.9746 514.4638,-315.9416 502.4893,-306.2232"/>
<polygon fill="#191970" stroke="#191970" points="504.3514,-303.2268 494.3812,-299.6427 499.9402,-308.662 504.3514,-303.2268"/>
</g>
<!-- Node19&#45;&gt;Node4 -->
<g id="edge28" class="edge">
<title>Node19&#45;&gt;Node4</title>
<path fill="none" stroke="#191970" d="M665.3785,-168.4453C650.8884,-160.5817 631.9482,-148.1172 620.5,-132 610.8019,-118.3466 606.0262,-99.8082 603.6908,-85.8549"/>
<polygon fill="#191970" stroke="#191970" points="607.1404,-85.2498 602.2937,-75.8285 600.2074,-86.2159 607.1404,-85.2498"/>
</g>
<!-- Node19&#45;&gt;Node6 -->
<g id="edge27" class="edge">
<title>Node19&#45;&gt;Node6</title>
<path fill="none" stroke="#191970" d="M680.9711,-168.2455C677.4666,-160.6973 672.5073,-150.0158 668.2377,-140.8197"/>
<polygon fill="#191970" stroke="#191970" points="671.3627,-139.2389 663.977,-131.6427 665.0136,-142.1867 671.3627,-139.2389"/>
</g>
<!-- Node19&#45;&gt;Node17 -->
<g id="edge29" class="edge">
<title>Node19&#45;&gt;Node17</title>
<path fill="none" stroke="#191970" d="M692.6417,-168.2455C698.3444,-160.4564 706.49,-149.3308 713.3625,-139.9439"/>
<polygon fill="#191970" stroke="#191970" points="716.3568,-141.7789 719.4402,-131.6427 710.7087,-137.6437 716.3568,-141.7789"/>
</g>
<!-- Node20&#45;&gt;Node15 -->
<g id="edge31" class="edge">
<title>Node20&#45;&gt;Node15</title>
<path fill="none" stroke="#191970" d="M335.2721,-229.5856C297.4675,-219.7189 214.4522,-191.8807 183.5,-132 173.5099,-112.673 192.7831,-93.7867 211.0151,-81.2037"/>
<polygon fill="#191970" stroke="#191970" points="213.2504,-83.9264 219.7489,-75.5586 209.4506,-78.0475 213.2504,-83.9264"/>
</g>
<!-- Node21&#45;&gt;Node5 -->
<g id="edge33" class="edge">
<title>Node21&#45;&gt;Node5</title>
<path fill="none" stroke="#191970" d="M406.8976,-280.1911C422.1441,-256.1566 460.3291,-191.9094 473.5,-132 482.3987,-91.5234 450.3852,-49.5646 429.0816,-26.936"/>
<polygon fill="#191970" stroke="#191970" points="431.5711,-24.4757 422.0775,-19.7722 426.5659,-29.3694 431.5711,-24.4757"/>
</g>
<!-- Node21&#45;&gt;Node6 -->
<g id="edge34" class="edge">
<title>Node21&#45;&gt;Node6</title>
<path fill="none" stroke="#191970" d="M416.3613,-280.4751C430.6905,-271.6288 452.1322,-257.7819 469.5,-244 508.1696,-213.3145 509.112,-194.9067 550.5,-168 572.0042,-154.0199 598.4648,-142.7333 619.9298,-134.8389"/>
<polygon fill="#191970" stroke="#191970" points="621.1658,-138.114 629.4048,-131.4529 618.8102,-131.5222 621.1658,-138.114"/>
</g>
<!-- Node21&#45;&gt;Node22 -->
<g id="edge35" class="edge">
<title>Node21&#45;&gt;Node22</title>
<path fill="none" stroke="#191970" d="M423.1062,-281.6162C447.6873,-272.5001 487.301,-257.8089 516.0326,-247.1535"/>
<polygon fill="#191970" stroke="#191970" points="517.5401,-250.3274 525.699,-243.5686 515.106,-243.7642 517.5401,-250.3274"/>
</g>
<!-- Node22&#45;&gt;Node4 -->
<g id="edge36" class="edge">
<title>Node22&#45;&gt;Node4</title>
<path fill="none" stroke="#191970" d="M549.9105,-224.4432C548.0765,-211.4637 545.8661,-187.6294 550.5,-168 557.9273,-136.5375 576.6274,-103.7149 589.1989,-84.0666"/>
<polygon fill="#191970" stroke="#191970" points="592.2335,-85.8218 594.8017,-75.5429 586.3841,-81.9767 592.2335,-85.8218"/>
</g>
<!-- Node22&#45;&gt;Node8 -->
<g id="edge37" class="edge">
<title>Node22&#45;&gt;Node8</title>
<path fill="none" stroke="#191970" d="M578.1851,-226.0956C580.9833,-225.3508 583.7934,-224.6372 586.5,-224 658.0484,-207.1559 742.4279,-192.5554 791.7442,-184.5433"/>
<polygon fill="#191970" stroke="#191970" points="792.4029,-187.9824 801.7183,-182.9352 791.2886,-181.0717 792.4029,-187.9824"/>
</g>
<!-- Node22&#45;&gt;Node11 -->
<g id="edge38" class="edge">
<title>Node22&#45;&gt;Node11</title>
<path fill="none" stroke="#191970" d="M524.8867,-227.5761C486.8845,-218.4031 416.4064,-201.3912 368.7358,-189.8845"/>
<polygon fill="#191970" stroke="#191970" points="369.4716,-186.4617 358.9295,-187.5175 367.8291,-193.2662 369.4716,-186.4617"/>
</g>
<!-- Node22&#45;&gt;Node19 -->
<g id="edge40" class="edge">
<title>Node22&#45;&gt;Node19</title>
<path fill="none" stroke="#191970" d="M574.5354,-224.3733C596.5019,-215.1932 629.7567,-201.2957 654.1346,-191.1079"/>
<polygon fill="#191970" stroke="#191970" points="655.7754,-194.2156 663.6525,-187.1303 653.0762,-187.7569 655.7754,-194.2156"/>
</g>
<!-- Node23 -->
<g id="node24" class="node">
<title>Node23</title>
<g id="a_node24"><a xlink:href="native__sched_8h.html" target="_top" xlink:title="Add definitions required on the native board. ">
<polygon fill="#ffffff" stroke="#000000" points="559.5,-168.5 559.5,-187.5 645.5,-187.5 645.5,-168.5 559.5,-168.5"/>
<text text-anchor="middle" x="602.5" y="-175.5" font-family="Helvetica,sans-Serif" font-size="10.00" fill="#000000">native_sched.h</text>
</a>
</g>
</g>
<!-- Node22&#45;&gt;Node23 -->
<g id="edge39" class="edge">
<title>Node22&#45;&gt;Node23</title>
<path fill="none" stroke="#191970" d="M560.3835,-224.2455C567.6966,-216.2155 578.2391,-204.6394 586.9467,-195.0781"/>
<polygon fill="#191970" stroke="#191970" points="589.5727,-197.3928 593.7183,-187.6427 584.3972,-192.6795 589.5727,-197.3928"/>
</g>
<!-- Node24&#45;&gt;Node22 -->
<g id="edge44" class="edge">
<title>Node24&#45;&gt;Node22</title>
<path fill="none" stroke="#191970" d="M611.7844,-280.2455C600.898,-271.8943 585.0117,-259.7076 572.28,-249.9408"/>
<polygon fill="#191970" stroke="#191970" points="574.1346,-246.9523 564.0699,-243.6427 569.8739,-252.5063 574.1346,-246.9523"/>
</g>
<!-- Node25 -->
<g id="node26" class="node">
<title>Node25</title>
<polygon fill="#ffffff" stroke="#bfbfbf" points="596,-224.5 596,-243.5 663,-243.5 663,-224.5 596,-224.5"/>
<text text-anchor="middle" x="629.5" y="-231.5" font-family="Helvetica,sans-Serif" font-size="10.00" fill="#000000">cpu_conf.h</text>
</g>
<!-- Node24&#45;&gt;Node25 -->
<g id="edge43" class="edge">
<title>Node24&#45;&gt;Node25</title>
<path fill="none" stroke="#191970" d="M625.3709,-280.2455C626.0234,-272.9382 626.938,-262.6944 627.7407,-253.7046"/>
<polygon fill="#191970" stroke="#191970" points="631.2358,-253.9143 628.639,-243.6427 624.2635,-253.2918 631.2358,-253.9143"/>
</g>
<!-- Node27&#45;&gt;Node4 -->
<g id="edge47" class="edge">
<title>Node27&#45;&gt;Node4</title>
<path fill="none" stroke="#191970" d="M1143.7176,-117.4647C1029.671,-106.64 743.3554,-79.4642 639.7095,-69.6267"/>
<polygon fill="#191970" stroke="#191970" points="639.9775,-66.1365 629.6915,-68.6758 639.316,-73.1051 639.9775,-66.1365"/>
</g>
<!-- Node27&#45;&gt;Node5 -->
<g id="edge48" class="edge">
<title>Node27&#45;&gt;Node5</title>
<path fill="none" stroke="#191970" d="M1185.7555,-112.2003C1176.2487,-97.0309 1155.6679,-68.3292 1129.5,-56 1067.5544,-26.8138 584.9025,-13.8765 447.7426,-10.7661"/>
<polygon fill="#191970" stroke="#191970" points="447.8153,-7.2669 437.7397,-10.5428 447.6591,-14.2652 447.8153,-7.2669"/>
</g>
</g>
</svg>
