<?xml version="1.0" encoding="UTF-8" standalone="no"?>
<!DOCTYPE svg PUBLIC "-//W3C//DTD SVG 1.1//EN"
 "http://www.w3.org/Graphics/SVG/1.1/DTD/svg11.dtd">
<!-- Generated by graphviz version 2.40.1 (0)
 -->
<!-- Title: drivers/include/periph/ptp.h Pages: 1 -->
<svg width="257pt" height="151pt"
 viewBox="0.00 0.00 256.50 151.00" xmlns="http://www.w3.org/2000/svg" xmlns:xlink="http://www.w3.org/1999/xlink">
<g id="graph0" class="graph" transform="scale(1 1) rotate(0) translate(4 147)">
<title>drivers/include/periph/ptp.h</title>
<polygon fill="#ffffff" stroke="transparent" points="-4,4 -4,-147 252.5,-147 252.5,4 -4,4"/>
<!-- Node0 -->
<g id="node1" class="node">
<title>Node0</title>
<polygon fill="#bfbfbf" stroke="#000000" points="0,-112.5 0,-142.5 121,-142.5 121,-112.5 0,-112.5"/>
<text text-anchor="start" x="8" y="-130.5" font-family="Helvetica,sans-Serif" font-size="10.00" fill="#000000">drivers/include/periph</text>
<text text-anchor="middle" x="60.5" y="-119.5" font-family="Helvetica,sans-Serif" font-size="10.00" fill="#000000">/ptp.h</text>
</g>
<!-- Node1 -->
<g id="node2" class="node">
<title>Node1</title>
<polygon fill="#ffffff" stroke="#bfbfbf" points="4.5,-.5 4.5,-19.5 56.5,-19.5 56.5,-.5 4.5,-.5"/>
<text text-anchor="middle" x="30.5" y="-7.5" font-family="Helvetica,sans-Serif" font-size="10.00" fill="#000000">stdint.h</text>
</g>
<!-- Node0&#45;&gt;Node1 -->
<g id="edge1" class="edge">
<title>Node0&#45;&gt;Node1</title>
<path fill="none" stroke="#191970" d="M40.3026,-112.232C29.8584,-103.029 18.1423,-90.3293 12.5,-76 6.3372,-60.3491 12.5022,-41.8154 19.2411,-28.3786"/>
<polygon fill="#191970" stroke="#191970" points="22.3132,-30.0557 24.0815,-19.6095 16.1848,-26.673 22.3132,-30.0557"/>
</g>
<!-- Node2 -->
<g id="node3" class="node">
<title>Node2</title>
<polygon fill="#ffffff" stroke="#bfbfbf" points="22,-56.5 22,-75.5 99,-75.5 99,-56.5 22,-56.5"/>
<text text-anchor="middle" x="60.5" y="-63.5" font-family="Helvetica,sans-Serif" font-size="10.00" fill="#000000">periph_cpu.h</text>
</g>
<!-- Node0&#45;&gt;Node2 -->
<g id="edge2" class="edge">
<title>Node0&#45;&gt;Node2</title>
<path fill="none" stroke="#191970" d="M60.5,-112.2977C60.5,-104.3834 60.5,-94.6043 60.5,-86.0759"/>
<polygon fill="#191970" stroke="#191970" points="64.0001,-85.8469 60.5,-75.8469 57.0001,-85.847 64.0001,-85.8469"/>
</g>
<!-- Node3 -->
<g id="node4" class="node">
<title>Node3</title>
<g id="a_node4"><a xlink:href="timex_8h.html" target="_top" xlink:title="Utility library for comparing and computing timestamps. ">
<polygon fill="#ffffff" stroke="#000000" points="117.5,-56.5 117.5,-75.5 169.5,-75.5 169.5,-56.5 117.5,-56.5"/>
<text text-anchor="middle" x="143.5" y="-63.5" font-family="Helvetica,sans-Serif" font-size="10.00" fill="#000000">timex.h</text>
</a>
</g>
</g>
<!-- Node0&#45;&gt;Node3 -->
<g id="edge3" class="edge">
<title>Node0&#45;&gt;Node3</title>
<path fill="none" stroke="#191970" d="M81.0169,-112.2977C93.4982,-103.0495 109.4159,-91.2551 122.0614,-81.8853"/>
<polygon fill="#191970" stroke="#191970" points="124.2596,-84.6126 130.2106,-75.8469 120.0922,-78.9882 124.2596,-84.6126"/>
</g>
<!-- Node3&#45;&gt;Node1 -->
<g id="edge4" class="edge">
<title>Node3&#45;&gt;Node1</title>
<path fill="none" stroke="#191970" d="M124.0746,-56.3733C106.0979,-47.4644 79.1559,-34.1127 58.791,-24.0203"/>
<polygon fill="#191970" stroke="#191970" points="60.1861,-20.8055 49.6719,-19.5011 57.0778,-27.0776 60.1861,-20.8055"/>
</g>
<!-- Node4 -->
<g id="node5" class="node">
<title>Node4</title>
<g id="a_node5"><a xlink:href="inttypes_8h.html" target="_top" xlink:title="Adds include for missing inttype definitions. ">
<polygon fill="#ffffff" stroke="#000000" points="93,-.5 93,-19.5 156,-19.5 156,-.5 93,-.5"/>
<text text-anchor="middle" x="124.5" y="-7.5" font-family="Helvetica,sans-Serif" font-size="10.00" fill="#000000">inttypes.h</text>
</a>
</g>
</g>
<!-- Node3&#45;&gt;Node4 -->
<g id="edge5" class="edge">
<title>Node3&#45;&gt;Node4</title>
<path fill="none" stroke="#191970" d="M140.1905,-56.2455C137.6567,-48.7776 134.0823,-38.2427 130.985,-29.1137"/>
<polygon fill="#191970" stroke="#191970" points="134.2991,-27.9879 127.7716,-19.6427 127.6702,-30.237 134.2991,-27.9879"/>
</g>
<!-- Node5 -->
<g id="node6" class="node">
<title>Node5</title>
<g id="a_node6"><a xlink:href="time__units_8h.html" target="_top" xlink:title="Utility header providing time unit defines. ">
<polygon fill="#ffffff" stroke="#000000" points="174.5,-.5 174.5,-19.5 248.5,-19.5 248.5,-.5 174.5,-.5"/>
<text text-anchor="middle" x="211.5" y="-7.5" font-family="Helvetica,sans-Serif" font-size="10.00" fill="#000000">time_units.h</text>
</a>
</g>
</g>
<!-- Node3&#45;&gt;Node5 -->
<g id="edge6" class="edge">
<title>Node3&#45;&gt;Node5</title>
<path fill="none" stroke="#191970" d="M155.3447,-56.2455C165.388,-47.9746 179.9995,-35.9416 191.8004,-26.2232"/>
<polygon fill="#191970" stroke="#191970" points="194.2967,-28.7015 199.791,-19.6427 189.8467,-23.298 194.2967,-28.7015"/>
</g>
</g>
</svg>
