<?xml version="1.0" encoding="UTF-8" standalone="no"?>
<!DOCTYPE svg PUBLIC "-//W3C//DTD SVG 1.1//EN"
 "http://www.w3.org/Graphics/SVG/1.1/DTD/svg11.dtd">
<!-- Generated by graphviz version 2.40.1 (0)
 -->
<!-- Title: sys/include/isrpipe/read_timeout.h Pages: 1 -->
<svg width="1229pt" height="543pt"
 viewBox="0.00 0.00 1228.85 543.00" xmlns="http://www.w3.org/2000/svg" xmlns:xlink="http://www.w3.org/1999/xlink">
<g id="graph0" class="graph" transform="scale(1 1) rotate(0) translate(4 539)">
<title>sys/include/isrpipe/read_timeout.h</title>
<polygon fill="#ffffff" stroke="transparent" points="-4,4 -4,-539 1224.8533,-539 1224.8533,4 -4,4"/>
<!-- Node0 -->
<g id="node1" class="node">
<title>Node0</title>
<polygon fill="#bfbfbf" stroke="#000000" points="785.3533,-504.5 785.3533,-534.5 888.3533,-534.5 888.3533,-504.5 785.3533,-504.5"/>
<text text-anchor="start" x="793.3533" y="-522.5" font-family="Helvetica,sans-Serif" font-size="10.00" fill="#000000">sys/include/isrpipe</text>
<text text-anchor="middle" x="836.8533" y="-511.5" font-family="Helvetica,sans-Serif" font-size="10.00" fill="#000000">/read_timeout.h</text>
</g>
<!-- Node1 -->
<g id="node2" class="node">
<title>Node1</title>
<g id="a_node2"><a xlink:href="isrpipe_8h.html" target="_top" xlink:title="isrpipe Interface ">
<polygon fill="#ffffff" stroke="#000000" points="808.3533,-448.5 808.3533,-467.5 865.3533,-467.5 865.3533,-448.5 808.3533,-448.5"/>
<text text-anchor="middle" x="836.8533" y="-455.5" font-family="Helvetica,sans-Serif" font-size="10.00" fill="#000000">isrpipe.h</text>
</a>
</g>
</g>
<!-- Node0&#45;&gt;Node1 -->
<g id="edge1" class="edge">
<title>Node0&#45;&gt;Node1</title>
<path fill="none" stroke="#191970" d="M836.8533,-504.2977C836.8533,-496.3834 836.8533,-486.6043 836.8533,-478.0759"/>
<polygon fill="#191970" stroke="#191970" points="840.3534,-477.8469 836.8533,-467.8469 833.3534,-477.847 840.3534,-477.8469"/>
</g>
<!-- Node2 -->
<g id="node3" class="node">
<title>Node2</title>
<polygon fill="#ffffff" stroke="#bfbfbf" points="246.8533,-.5 246.8533,-19.5 298.8533,-19.5 298.8533,-.5 246.8533,-.5"/>
<text text-anchor="middle" x="272.8533" y="-7.5" font-family="Helvetica,sans-Serif" font-size="10.00" fill="#000000">stdint.h</text>
</g>
<!-- Node1&#45;&gt;Node2 -->
<g id="edge2" class="edge">
<title>Node1&#45;&gt;Node2</title>
<path fill="none" stroke="#191970" d="M865.402,-455.8679C954.395,-448.4469 1220.8533,-420.0451 1220.8533,-346 1220.8533,-346 1220.8533,-346 1220.8533,-122 1220.8533,-49.1653 1141.6684,-73.033 1070.8533,-56 923.3949,-20.5322 445.9825,-12.0962 309.5666,-10.3878"/>
<polygon fill="#191970" stroke="#191970" points="309.2887,-6.8843 299.2473,-10.2634 309.2043,-13.8837 309.2887,-6.8843"/>
</g>
<!-- Node3 -->
<g id="node4" class="node">
<title>Node3</title>
<g id="a_node4"><a xlink:href="mutex_8h.html" target="_top" xlink:title="Mutex for thread synchronization. ">
<polygon fill="#ffffff" stroke="#000000" points="808.8533,-392.5 808.8533,-411.5 864.8533,-411.5 864.8533,-392.5 808.8533,-392.5"/>
<text text-anchor="middle" x="836.8533" y="-399.5" font-family="Helvetica,sans-Serif" font-size="10.00" fill="#000000">mutex.h</text>
</a>
</g>
</g>
<!-- Node1&#45;&gt;Node3 -->
<g id="edge3" class="edge">
<title>Node1&#45;&gt;Node3</title>
<path fill="none" stroke="#191970" d="M836.8533,-448.2455C836.8533,-440.9382 836.8533,-430.6944 836.8533,-421.7046"/>
<polygon fill="#191970" stroke="#191970" points="840.3534,-421.6426 836.8533,-411.6427 833.3534,-421.6427 840.3534,-421.6426"/>
</g>
<!-- Node26 -->
<g id="node27" class="node">
<title>Node26</title>
<g id="a_node27"><a xlink:href="tsrb_8h.html" target="_top" xlink:title="Thread&#45;safe ringbuffer interface definition. ">
<polygon fill="#ffffff" stroke="#000000" points="214.8533,-224.5 214.8533,-243.5 258.8533,-243.5 258.8533,-224.5 214.8533,-224.5"/>
<text text-anchor="middle" x="236.8533" y="-231.5" font-family="Helvetica,sans-Serif" font-size="10.00" fill="#000000">tsrb.h</text>
</a>
</g>
</g>
<!-- Node1&#45;&gt;Node26 -->
<g id="edge45" class="edge">
<title>Node1&#45;&gt;Node26</title>
<path fill="none" stroke="#191970" d="M808.1264,-454.8257C725.7103,-444.612 483.7756,-406.7975 317.8533,-300 294.7329,-285.1183 270.5944,-264.721 254.7491,-250.557"/>
<polygon fill="#191970" stroke="#191970" points="257.0295,-247.9001 247.2683,-243.7805 252.33,-253.0881 257.0295,-247.9001"/>
</g>
<!-- Node3&#45;&gt;Node2 -->
<g id="edge5" class="edge">
<title>Node3&#45;&gt;Node2</title>
<path fill="none" stroke="#191970" d="M864.8749,-399.0429C947.2456,-389.5814 1182.8533,-356.6897 1182.8533,-290 1182.8533,-290 1182.8533,-290 1182.8533,-122 1182.8533,-32.3943 478.8317,-13.7694 309.2665,-10.5831"/>
<polygon fill="#191970" stroke="#191970" points="309.1683,-7.0808 299.1065,-10.3989 309.0413,-14.0797 309.1683,-7.0808"/>
</g>
<!-- Node4 -->
<g id="node5" class="node">
<title>Node4</title>
<polygon fill="#ffffff" stroke="#bfbfbf" points="508.8533,-56.5 508.8533,-75.5 564.8533,-75.5 564.8533,-56.5 508.8533,-56.5"/>
<text text-anchor="middle" x="536.8533" y="-63.5" font-family="Helvetica,sans-Serif" font-size="10.00" fill="#000000">stddef.h</text>
</g>
<!-- Node3&#45;&gt;Node4 -->
<g id="edge4" class="edge">
<title>Node3&#45;&gt;Node4</title>
<path fill="none" stroke="#191970" d="M842.4604,-392.4834C853.0307,-373.6141 874.8533,-329.8343 874.8533,-290 874.8533,-290 874.8533,-290 874.8533,-178 874.8533,-138.3572 849.672,-130.9529 814.8533,-112 774.1702,-89.8548 641.5566,-75.3015 575.2802,-69.2259"/>
<polygon fill="#191970" stroke="#191970" points="575.5101,-65.7326 565.2371,-68.3237 574.8838,-72.7045 575.5101,-65.7326"/>
</g>
<!-- Node5 -->
<g id="node6" class="node">
<title>Node5</title>
<polygon fill="#ffffff" stroke="#bfbfbf" points="637.8533,-112.5 637.8533,-131.5 697.8533,-131.5 697.8533,-112.5 637.8533,-112.5"/>
<text text-anchor="middle" x="667.8533" y="-119.5" font-family="Helvetica,sans-Serif" font-size="10.00" fill="#000000">stdbool.h</text>
</g>
<!-- Node3&#45;&gt;Node5 -->
<g id="edge6" class="edge">
<title>Node3&#45;&gt;Node5</title>
<path fill="none" stroke="#191970" d="M831.2463,-392.4834C820.676,-373.6141 798.8533,-329.8343 798.8533,-290 798.8533,-290 798.8533,-290 798.8533,-234 798.8533,-203.4754 800.2251,-190.732 779.8533,-168 761.2564,-147.2483 731.8876,-135.6536 707.8893,-129.2968"/>
<polygon fill="#191970" stroke="#191970" points="708.5246,-125.8492 697.9802,-126.8817 706.867,-132.6502 708.5246,-125.8492"/>
</g>
<!-- Node6 -->
<g id="node7" class="node">
<title>Node6</title>
<g id="a_node7"><a xlink:href="architecture_8h.html" target="_top" xlink:title="Platform&#45;independent access to architecture details. ">
<polygon fill="#ffffff" stroke="#000000" points="924.3533,-224.5 924.3533,-243.5 1007.3533,-243.5 1007.3533,-224.5 924.3533,-224.5"/>
<text text-anchor="middle" x="965.8533" y="-231.5" font-family="Helvetica,sans-Serif" font-size="10.00" fill="#000000">architecture.h</text>
</a>
</g>
</g>
<!-- Node3&#45;&gt;Node6 -->
<g id="edge7" class="edge">
<title>Node3&#45;&gt;Node6</title>
<path fill="none" stroke="#191970" d="M849.7498,-392.3028C860.8774,-383.556 876.9839,-369.956 888.8533,-356 917.2341,-322.63 942.7767,-277.9105 956.1117,-252.9262"/>
<polygon fill="#191970" stroke="#191970" points="959.3514,-254.2851 960.9038,-243.8046 953.1545,-251.0295 959.3514,-254.2851"/>
</g>
<!-- Node10 -->
<g id="node11" class="node">
<title>Node10</title>
<g id="a_node11"><a xlink:href="kernel__defines_8h.html" target="_top" xlink:title="Common macros and compiler attributes/pragmas configuration. ">
<polygon fill="#ffffff" stroke="#000000" points="219.3533,-168.5 219.3533,-187.5 314.3533,-187.5 314.3533,-168.5 219.3533,-168.5"/>
<text text-anchor="middle" x="266.8533" y="-175.5" font-family="Helvetica,sans-Serif" font-size="10.00" fill="#000000">kernel_defines.h</text>
</a>
</g>
</g>
<!-- Node3&#45;&gt;Node10 -->
<g id="edge12" class="edge">
<title>Node3&#45;&gt;Node10</title>
<path fill="none" stroke="#191970" d="M808.7787,-399.2204C715.7661,-389.5575 419.2662,-354.9872 342.8533,-300 306.5543,-273.879 283.8325,-224.5423 273.4673,-197.2948"/>
<polygon fill="#191970" stroke="#191970" points="276.6927,-195.9227 269.9899,-187.7176 270.113,-198.3117 276.6927,-195.9227"/>
</g>
<!-- Node16 -->
<g id="node17" class="node">
<title>Node16</title>
<g id="a_node17"><a xlink:href="list_8h.html" target="_top" xlink:title="Intrusive linked list. ">
<polygon fill="#ffffff" stroke="#000000" points="767.8533,-112.5 767.8533,-131.5 805.8533,-131.5 805.8533,-112.5 767.8533,-112.5"/>
<text text-anchor="middle" x="786.8533" y="-119.5" font-family="Helvetica,sans-Serif" font-size="10.00" fill="#000000">list.h</text>
</a>
</g>
</g>
<!-- Node3&#45;&gt;Node16 -->
<g id="edge23" class="edge">
<title>Node3&#45;&gt;Node16</title>
<path fill="none" stroke="#191970" d="M836.8533,-392.4116C836.8533,-373.0538 836.8533,-327.9167 836.8533,-290 836.8533,-290 836.8533,-290 836.8533,-234 836.8533,-198.2001 815.2891,-161.1175 800.4841,-139.8769"/>
<polygon fill="#191970" stroke="#191970" points="803.1483,-137.5886 794.4473,-131.5435 797.4794,-141.6952 803.1483,-137.5886"/>
</g>
<!-- Node17 -->
<g id="node18" class="node">
<title>Node17</title>
<g id="a_node18"><a xlink:href="core_2include_2thread_8h.html" target="_top" xlink:title="Threading API. ">
<polygon fill="#ffffff" stroke="#000000" points="561.3533,-336.5 561.3533,-355.5 618.3533,-355.5 618.3533,-336.5 561.3533,-336.5"/>
<text text-anchor="middle" x="589.8533" y="-343.5" font-family="Helvetica,sans-Serif" font-size="10.00" fill="#000000">thread.h</text>
</a>
</g>
</g>
<!-- Node3&#45;&gt;Node17 -->
<g id="edge24" class="edge">
<title>Node3&#45;&gt;Node17</title>
<path fill="none" stroke="#191970" d="M808.5193,-395.5761C764.1818,-385.5239 678.3226,-366.0578 628.399,-354.7391"/>
<polygon fill="#191970" stroke="#191970" points="629.1442,-351.3193 618.6178,-352.5215 627.5963,-358.146 629.1442,-351.3193"/>
</g>
<!-- Node6&#45;&gt;Node2 -->
<g id="edge8" class="edge">
<title>Node6&#45;&gt;Node2</title>
<path fill="none" stroke="#191970" d="M1007.4695,-227.7829C1049.9423,-220.4865 1111.5966,-206.933 1125.8533,-188 1131.2003,-180.8992 1130.3399,-175.6735 1125.8533,-168 1074.6269,-80.3866 1024.0642,-85.1598 926.8533,-56 809.7801,-20.8822 428.8452,-12.3121 309.1737,-10.4625"/>
<polygon fill="#191970" stroke="#191970" points="309.1174,-6.9614 299.0666,-10.3128 309.0137,-13.9606 309.1174,-6.9614"/>
</g>
<!-- Node7 -->
<g id="node8" class="node">
<title>Node7</title>
<g id="a_node8"><a xlink:href="inttypes_8h.html" target="_top" xlink:title="Adds include for missing inttype definitions. ">
<polygon fill="#ffffff" stroke="#000000" points="707.3533,-168.5 707.3533,-187.5 770.3533,-187.5 770.3533,-168.5 707.3533,-168.5"/>
<text text-anchor="middle" x="738.8533" y="-175.5" font-family="Helvetica,sans-Serif" font-size="10.00" fill="#000000">inttypes.h</text>
</a>
</g>
</g>
<!-- Node6&#45;&gt;Node7 -->
<g id="edge9" class="edge">
<title>Node6&#45;&gt;Node7</title>
<path fill="none" stroke="#191970" d="M927.0886,-224.4369C886.2614,-214.365 822.2097,-198.5637 780.373,-188.2427"/>
<polygon fill="#191970" stroke="#191970" points="781.0503,-184.8049 770.503,-185.8078 779.3736,-191.6012 781.0503,-184.8049"/>
</g>
<!-- Node8 -->
<g id="node9" class="node">
<title>Node8</title>
<polygon fill="#ffffff" stroke="#bfbfbf" points="940.8533,-168.5 940.8533,-187.5 990.8533,-187.5 990.8533,-168.5 940.8533,-168.5"/>
<text text-anchor="middle" x="965.8533" y="-175.5" font-family="Helvetica,sans-Serif" font-size="10.00" fill="#000000">limits.h</text>
</g>
<!-- Node6&#45;&gt;Node8 -->
<g id="edge10" class="edge">
<title>Node6&#45;&gt;Node8</title>
<path fill="none" stroke="#191970" d="M965.8533,-224.2455C965.8533,-216.9382 965.8533,-206.6944 965.8533,-197.7046"/>
<polygon fill="#191970" stroke="#191970" points="969.3534,-197.6426 965.8533,-187.6427 962.3534,-197.6427 969.3534,-197.6426"/>
</g>
<!-- Node9 -->
<g id="node10" class="node">
<title>Node9</title>
<polygon fill="#ffffff" stroke="#bfbfbf" points="1009.3533,-168.5 1009.3533,-187.5 1116.3533,-187.5 1116.3533,-168.5 1009.3533,-168.5"/>
<text text-anchor="middle" x="1062.8533" y="-175.5" font-family="Helvetica,sans-Serif" font-size="10.00" fill="#000000">architecture_arch.h</text>
</g>
<!-- Node6&#45;&gt;Node9 -->
<g id="edge11" class="edge">
<title>Node6&#45;&gt;Node9</title>
<path fill="none" stroke="#191970" d="M982.7494,-224.2455C997.7713,-215.5731 1019.9577,-202.7645 1037.1744,-192.825"/>
<polygon fill="#191970" stroke="#191970" points="1039.2404,-195.6737 1046.1508,-187.6427 1035.7405,-189.6114 1039.2404,-195.6737"/>
</g>
<!-- Node11 -->
<g id="node12" class="node">
<title>Node11</title>
<g id="a_node12"><a xlink:href="modules_8h.html" target="_top" xlink:title="Common macros and compiler attributes/pragmas configuration. ">
<polygon fill="#ffffff" stroke="#000000" points="319.3533,-112.5 319.3533,-131.5 384.3533,-131.5 384.3533,-112.5 319.3533,-112.5"/>
<text text-anchor="middle" x="351.8533" y="-119.5" font-family="Helvetica,sans-Serif" font-size="10.00" fill="#000000">modules.h</text>
</a>
</g>
</g>
<!-- Node10&#45;&gt;Node11 -->
<g id="edge13" class="edge">
<title>Node10&#45;&gt;Node11</title>
<path fill="none" stroke="#191970" d="M281.6592,-168.2455C294.5789,-159.7337 313.5464,-147.2375 328.5086,-137.3801"/>
<polygon fill="#191970" stroke="#191970" points="330.7921,-140.067 337.2171,-131.6427 326.9409,-134.2216 330.7921,-140.067"/>
</g>
<!-- Node12 -->
<g id="node13" class="node">
<title>Node12</title>
<g id="a_node13"><a xlink:href="riot__version_8h.html" target="_top" xlink:title="Common macros and compiler attributes/pragmas configuration. ">
<polygon fill="#ffffff" stroke="#000000" points="163.3533,-56.5 163.3533,-75.5 244.3533,-75.5 244.3533,-56.5 163.3533,-56.5"/>
<text text-anchor="middle" x="203.8533" y="-63.5" font-family="Helvetica,sans-Serif" font-size="10.00" fill="#000000">riot_version.h</text>
</a>
</g>
</g>
<!-- Node10&#45;&gt;Node12 -->
<g id="edge14" class="edge">
<title>Node10&#45;&gt;Node12</title>
<path fill="none" stroke="#191970" d="M254.7187,-168.2631C244.8013,-159.6942 231.1151,-146.3714 222.8533,-132 214.5894,-117.6247 209.6971,-99.3918 206.9519,-85.7342"/>
<polygon fill="#191970" stroke="#191970" points="210.3314,-84.7498 205.1241,-75.523 203.4409,-85.9833 210.3314,-84.7498"/>
</g>
<!-- Node13 -->
<g id="node14" class="node">
<title>Node13</title>
<g id="a_node14"><a xlink:href="compiler__hints_8h.html" target="_top" xlink:title="Common macros and compiler attributes/pragmas configuration. ">
<polygon fill="#ffffff" stroke="#000000" points="82.3533,-112.5 82.3533,-131.5 175.3533,-131.5 175.3533,-112.5 82.3533,-112.5"/>
<text text-anchor="middle" x="128.8533" y="-119.5" font-family="Helvetica,sans-Serif" font-size="10.00" fill="#000000">compiler_hints.h</text>
</a>
</g>
</g>
<!-- Node10&#45;&gt;Node13 -->
<g id="edge16" class="edge">
<title>Node10&#45;&gt;Node13</title>
<path fill="none" stroke="#191970" d="M243.1303,-168.3733C220.6797,-159.2629 186.7794,-145.5062 161.7279,-135.3404"/>
<polygon fill="#191970" stroke="#191970" points="162.849,-132.0182 152.2668,-131.5011 160.2169,-138.5045 162.849,-132.0182"/>
</g>
<!-- Node15 -->
<g id="node16" class="node">
<title>Node15</title>
<g id="a_node16"><a xlink:href="container_8h.html" target="_top" xlink:title="Common macros and compiler attributes/pragmas configuration. ">
<polygon fill="#ffffff" stroke="#000000" points="232.3533,-112.5 232.3533,-131.5 301.3533,-131.5 301.3533,-112.5 232.3533,-112.5"/>
<text text-anchor="middle" x="266.8533" y="-119.5" font-family="Helvetica,sans-Serif" font-size="10.00" fill="#000000">container.h</text>
</a>
</g>
</g>
<!-- Node10&#45;&gt;Node15 -->
<g id="edge20" class="edge">
<title>Node10&#45;&gt;Node15</title>
<path fill="none" stroke="#191970" d="M266.8533,-168.2455C266.8533,-160.9382 266.8533,-150.6944 266.8533,-141.7046"/>
<polygon fill="#191970" stroke="#191970" points="270.3534,-141.6426 266.8533,-131.6427 263.3534,-141.6427 270.3534,-141.6426"/>
</g>
<!-- Node12&#45;&gt;Node2 -->
<g id="edge15" class="edge">
<title>Node12&#45;&gt;Node2</title>
<path fill="none" stroke="#191970" d="M215.8722,-56.2455C226.0632,-47.9746 240.8895,-35.9416 252.864,-26.2232"/>
<polygon fill="#191970" stroke="#191970" points="255.4132,-28.662 260.9722,-19.6427 251.002,-23.2268 255.4132,-28.662"/>
</g>
<!-- Node13&#45;&gt;Node2 -->
<g id="edge19" class="edge">
<title>Node13&#45;&gt;Node2</title>
<path fill="none" stroke="#191970" d="M130.0457,-112.1405C132.2654,-97.9204 138.311,-71.648 153.8533,-56 176.1766,-33.525 210.6972,-21.8052 236.8199,-15.838"/>
<polygon fill="#191970" stroke="#191970" points="237.6649,-19.2369 246.7307,-13.7541 236.2245,-12.3867 237.6649,-19.2369"/>
</g>
<!-- Node14 -->
<g id="node15" class="node">
<title>Node14</title>
<g id="a_node15"><a xlink:href="assert_8h.html" target="_top" xlink:title="POSIX.1&#45;2008 compliant version of the assert macro. ">
<polygon fill="#ffffff" stroke="#000000" points="36.8533,-56.5 36.8533,-75.5 90.8533,-75.5 90.8533,-56.5 36.8533,-56.5"/>
<text text-anchor="middle" x="63.8533" y="-63.5" font-family="Helvetica,sans-Serif" font-size="10.00" fill="#000000">assert.h</text>
</a>
</g>
</g>
<!-- Node13&#45;&gt;Node14 -->
<g id="edge17" class="edge">
<title>Node13&#45;&gt;Node14</title>
<path fill="none" stroke="#191970" d="M117.5312,-112.2455C107.931,-103.9746 93.9642,-91.9416 82.6839,-82.2232"/>
<polygon fill="#191970" stroke="#191970" points="84.9063,-79.5182 75.0457,-75.6427 80.3373,-84.8214 84.9063,-79.5182"/>
</g>
<!-- Node14&#45;&gt;Node2 -->
<g id="edge18" class="edge">
<title>Node14&#45;&gt;Node2</title>
<path fill="none" stroke="#191970" d="M91.1764,-58.679C128.589,-48.6546 195.8202,-30.6404 237.1698,-19.5611"/>
<polygon fill="#191970" stroke="#191970" points="238.0854,-22.9393 246.8388,-16.9704 236.2737,-16.1779 238.0854,-22.9393"/>
</g>
<!-- Node15&#45;&gt;Node2 -->
<g id="edge22" class="edge">
<title>Node15&#45;&gt;Node2</title>
<path fill="none" stroke="#191970" d="M267.3649,-112.4509C268.3435,-94.184 270.4986,-53.9553 271.7981,-29.6976"/>
<polygon fill="#191970" stroke="#191970" points="275.303,-29.6978 272.3431,-19.5249 268.313,-29.3233 275.303,-29.6978"/>
</g>
<!-- Node15&#45;&gt;Node4 -->
<g id="edge21" class="edge">
<title>Node15&#45;&gt;Node4</title>
<path fill="none" stroke="#191970" d="M301.4241,-114.0652C304.6099,-113.3575 307.7901,-112.6598 310.8533,-112 376.7639,-97.8044 453.7445,-82.3819 498.7174,-73.488"/>
<polygon fill="#191970" stroke="#191970" points="499.4912,-76.9029 508.6238,-71.5322 498.1353,-70.0355 499.4912,-76.9029"/>
</g>
<!-- Node18 -->
<g id="node19" class="node">
<title>Node18</title>
<g id="a_node19"><a xlink:href="clist_8h.html" target="_top" xlink:title="Circular linked list. ">
<polygon fill="#ffffff" stroke="#000000" points="607.3533,-168.5 607.3533,-187.5 650.3533,-187.5 650.3533,-168.5 607.3533,-168.5"/>
<text text-anchor="middle" x="628.8533" y="-175.5" font-family="Helvetica,sans-Serif" font-size="10.00" fill="#000000">clist.h</text>
</a>
</g>
</g>
<!-- Node17&#45;&gt;Node18 -->
<g id="edge25" class="edge">
<title>Node17&#45;&gt;Node18</title>
<path fill="none" stroke="#191970" d="M592.0619,-336.4862C598.2536,-309.8144 615.8738,-233.9117 624.2813,-197.695"/>
<polygon fill="#191970" stroke="#191970" points="627.7198,-198.3603 626.5719,-187.8279 620.9011,-196.7774 627.7198,-198.3603"/>
</g>
<!-- Node19 -->
<g id="node20" class="node">
<title>Node19</title>
<g id="a_node20"><a xlink:href="cib_8h.html" target="_top" xlink:title="Circular integer buffer interface. ">
<polygon fill="#ffffff" stroke="#000000" points="314.8533,-224.5 314.8533,-243.5 352.8533,-243.5 352.8533,-224.5 314.8533,-224.5"/>
<text text-anchor="middle" x="333.8533" y="-231.5" font-family="Helvetica,sans-Serif" font-size="10.00" fill="#000000">cib.h</text>
</a>
</g>
</g>
<!-- Node17&#45;&gt;Node19 -->
<g id="edge29" class="edge">
<title>Node17&#45;&gt;Node19</title>
<path fill="none" stroke="#191970" d="M561.2855,-343.4787C507.334,-338.2013 393.1439,-324.4131 362.8533,-300 348.5819,-288.4978 341.1483,-268.5556 337.3996,-253.5946"/>
<polygon fill="#191970" stroke="#191970" points="340.8104,-252.8075 335.2762,-243.773 333.9685,-254.2868 340.8104,-252.8075"/>
</g>
<!-- Node20 -->
<g id="node21" class="node">
<title>Node20</title>
<g id="a_node21"><a xlink:href="core_2include_2msg_8h.html" target="_top" xlink:title="Messaging API for inter process communication. ">
<polygon fill="#ffffff" stroke="#000000" points="656.3533,-280.5 656.3533,-299.5 701.3533,-299.5 701.3533,-280.5 656.3533,-280.5"/>
<text text-anchor="middle" x="678.8533" y="-287.5" font-family="Helvetica,sans-Serif" font-size="10.00" fill="#000000">msg.h</text>
</a>
</g>
</g>
<!-- Node17&#45;&gt;Node20 -->
<g id="edge31" class="edge">
<title>Node17&#45;&gt;Node20</title>
<path fill="none" stroke="#191970" d="M605.356,-336.2455C619.0113,-327.6534 639.119,-315.0014 654.8522,-305.1018"/>
<polygon fill="#191970" stroke="#191970" points="656.9284,-307.9307 663.5284,-299.6427 653.2005,-302.006 656.9284,-307.9307"/>
</g>
<!-- Node21 -->
<g id="node22" class="node">
<title>Node21</title>
<g id="a_node22"><a xlink:href="sched_8h.html" target="_top" xlink:title="Scheduler API definition. ">
<polygon fill="#ffffff" stroke="#000000" points="533.3533,-224.5 533.3533,-243.5 586.3533,-243.5 586.3533,-224.5 533.3533,-224.5"/>
<text text-anchor="middle" x="559.8533" y="-231.5" font-family="Helvetica,sans-Serif" font-size="10.00" fill="#000000">sched.h</text>
</a>
</g>
</g>
<!-- Node17&#45;&gt;Node21 -->
<g id="edge40" class="edge">
<title>Node17&#45;&gt;Node21</title>
<path fill="none" stroke="#191970" d="M587.2956,-336.4509C582.3805,-318.1013 571.5294,-277.5908 565.0415,-253.3693"/>
<polygon fill="#191970" stroke="#191970" points="568.3729,-252.2788 562.4046,-243.5249 561.6113,-254.09 568.3729,-252.2788"/>
</g>
<!-- Node23 -->
<g id="node24" class="node">
<title>Node23</title>
<g id="a_node24"><a xlink:href="thread__config_8h.html" target="_top" xlink:title="Thread configuration defines. ">
<polygon fill="#ffffff" stroke="#000000" points="371.8533,-280.5 371.8533,-299.5 461.8533,-299.5 461.8533,-280.5 371.8533,-280.5"/>
<text text-anchor="middle" x="416.8533" y="-287.5" font-family="Helvetica,sans-Serif" font-size="10.00" fill="#000000">thread_config.h</text>
</a>
</g>
</g>
<!-- Node17&#45;&gt;Node23 -->
<g id="edge41" class="edge">
<title>Node17&#45;&gt;Node23</title>
<path fill="none" stroke="#191970" d="M561.2859,-336.7527C532.6219,-327.4742 488.25,-313.1111 456.2511,-302.753"/>
<polygon fill="#191970" stroke="#191970" points="456.924,-299.2921 446.3321,-299.5423 454.7682,-305.9519 456.924,-299.2921"/>
</g>
<!-- Node25 -->
<g id="node26" class="node">
<title>Node25</title>
<polygon fill="#ffffff" stroke="#bfbfbf" points="479.8533,-280.5 479.8533,-299.5 561.8533,-299.5 561.8533,-280.5 479.8533,-280.5"/>
<text text-anchor="middle" x="520.8533" y="-287.5" font-family="Helvetica,sans-Serif" font-size="10.00" fill="#000000">thread_arch.h</text>
</g>
<!-- Node17&#45;&gt;Node25 -->
<g id="edge44" class="edge">
<title>Node17&#45;&gt;Node25</title>
<path fill="none" stroke="#191970" d="M577.8345,-336.2455C567.6435,-327.9746 552.8171,-315.9416 540.8427,-306.2232"/>
<polygon fill="#191970" stroke="#191970" points="542.7047,-303.2268 532.7345,-299.6427 538.2935,-308.662 542.7047,-303.2268"/>
</g>
<!-- Node18&#45;&gt;Node4 -->
<g id="edge27" class="edge">
<title>Node18&#45;&gt;Node4</title>
<path fill="none" stroke="#191970" d="M621.0095,-168.4509C605.5292,-149.6054 570.848,-107.3849 551.1806,-83.4419"/>
<polygon fill="#191970" stroke="#191970" points="553.7293,-81.0306 544.6774,-75.5249 548.3202,-85.4738 553.7293,-81.0306"/>
</g>
<!-- Node18&#45;&gt;Node5 -->
<g id="edge26" class="edge">
<title>Node18&#45;&gt;Node5</title>
<path fill="none" stroke="#191970" d="M635.6466,-168.2455C641.0712,-160.4564 648.8194,-149.3308 655.3567,-139.9439"/>
<polygon fill="#191970" stroke="#191970" points="658.2951,-141.849 661.1379,-131.6427 652.5508,-137.8485 658.2951,-141.849"/>
</g>
<!-- Node18&#45;&gt;Node16 -->
<g id="edge28" class="edge">
<title>Node18&#45;&gt;Node16</title>
<path fill="none" stroke="#191970" d="M650.4913,-170.3309C678.2825,-160.4808 726.6223,-143.3477 757.6532,-132.3494"/>
<polygon fill="#191970" stroke="#191970" points="759.2022,-135.5138 767.4584,-128.8741 756.8637,-128.916 759.2022,-135.5138"/>
</g>
<!-- Node19&#45;&gt;Node14 -->
<g id="edge30" class="edge">
<title>Node19&#45;&gt;Node14</title>
<path fill="none" stroke="#191970" d="M314.631,-229.215C259.7265,-215.1492 104.1383,-172.3814 72.8533,-132 62.794,-119.0157 61.1264,-100.1234 61.6352,-85.8754"/>
<polygon fill="#191970" stroke="#191970" points="65.1446,-85.8769 62.3912,-75.6461 58.1636,-85.3609 65.1446,-85.8769"/>
</g>
<!-- Node20&#45;&gt;Node2 -->
<g id="edge32" class="edge">
<title>Node20&#45;&gt;Node2</title>
<path fill="none" stroke="#191970" d="M696.3711,-280.4477C743.3551,-253.636 865.2858,-175.4948 814.8533,-112 751.6097,-32.3758 420.213,-14.6632 309.1615,-10.9394"/>
<polygon fill="#191970" stroke="#191970" points="309.2248,-7.4397 299.1189,-10.6211 309.003,-14.4362 309.2248,-7.4397"/>
</g>
<!-- Node20&#45;&gt;Node5 -->
<g id="edge33" class="edge">
<title>Node20&#45;&gt;Node5</title>
<path fill="none" stroke="#191970" d="M678.2304,-280.4862C676.4916,-253.9293 671.557,-178.5651 669.1737,-142.1655"/>
<polygon fill="#191970" stroke="#191970" points="672.6428,-141.5778 668.4968,-131.8279 665.6578,-142.0352 672.6428,-141.5778"/>
</g>
<!-- Node20&#45;&gt;Node21 -->
<g id="edge34" class="edge">
<title>Node20&#45;&gt;Node21</title>
<path fill="none" stroke="#191970" d="M658.3965,-280.3733C639.3796,-271.4241 610.8358,-257.9917 589.3558,-247.8835"/>
<polygon fill="#191970" stroke="#191970" points="590.5817,-244.5923 580.0432,-243.5011 587.6011,-250.926 590.5817,-244.5923"/>
</g>
<!-- Node21&#45;&gt;Node4 -->
<g id="edge35" class="edge">
<title>Node21&#45;&gt;Node4</title>
<path fill="none" stroke="#191970" d="M536.0674,-224.4178C520.9865,-216.9442 502.7071,-204.9629 493.8533,-188 481.3238,-163.9949 506.4631,-156.5662 517.8533,-132 524.7498,-117.1259 529.7192,-99.1898 532.8421,-85.7718"/>
<polygon fill="#191970" stroke="#191970" points="536.3208,-86.2461 535.0328,-75.7298 529.4817,-84.754 536.3208,-86.2461"/>
</g>
<!-- Node21&#45;&gt;Node7 -->
<g id="edge36" class="edge">
<title>Node21&#45;&gt;Node7</title>
<path fill="none" stroke="#191970" d="M586.6514,-225.6162C616.2996,-216.3408 664.3958,-201.294 698.582,-190.5989"/>
<polygon fill="#191970" stroke="#191970" points="699.7693,-193.8948 708.2681,-187.5686 697.6792,-187.2141 699.7693,-193.8948"/>
</g>
<!-- Node21&#45;&gt;Node10 -->
<g id="edge37" class="edge">
<title>Node21&#45;&gt;Node10</title>
<path fill="none" stroke="#191970" d="M533.3348,-228.9316C486.334,-219.9485 387.4258,-201.0446 324.2217,-188.9646"/>
<polygon fill="#191970" stroke="#191970" points="324.8771,-185.5266 314.3979,-187.087 323.563,-192.4021 324.8771,-185.5266"/>
</g>
<!-- Node21&#45;&gt;Node18 -->
<g id="edge39" class="edge">
<title>Node21&#45;&gt;Node18</title>
<path fill="none" stroke="#191970" d="M571.8722,-224.2455C582.0632,-215.9746 596.8895,-203.9416 608.864,-194.2232"/>
<polygon fill="#191970" stroke="#191970" points="611.4132,-196.662 616.9722,-187.6427 607.002,-191.2268 611.4132,-196.662"/>
</g>
<!-- Node22 -->
<g id="node23" class="node">
<title>Node22</title>
<g id="a_node23"><a xlink:href="native__sched_8h.html" target="_top" xlink:title="Add definitions required on the native board. ">
<polygon fill="#ffffff" stroke="#000000" points="502.8533,-168.5 502.8533,-187.5 588.8533,-187.5 588.8533,-168.5 502.8533,-168.5"/>
<text text-anchor="middle" x="545.8533" y="-175.5" font-family="Helvetica,sans-Serif" font-size="10.00" fill="#000000">native_sched.h</text>
</a>
</g>
</g>
<!-- Node21&#45;&gt;Node22 -->
<g id="edge38" class="edge">
<title>Node21&#45;&gt;Node22</title>
<path fill="none" stroke="#191970" d="M557.4147,-224.2455C555.5678,-216.8579 552.9706,-206.4689 550.7055,-197.4087"/>
<polygon fill="#191970" stroke="#191970" points="554.0849,-196.4952 548.264,-187.6427 547.2939,-198.193 554.0849,-196.4952"/>
</g>
<!-- Node23&#45;&gt;Node21 -->
<g id="edge43" class="edge">
<title>Node23&#45;&gt;Node21</title>
<path fill="none" stroke="#191970" d="M441.4359,-280.3733C464.8029,-271.2226 500.1396,-257.3844 526.1318,-247.2057"/>
<polygon fill="#191970" stroke="#191970" points="527.5563,-250.4066 535.5915,-243.5011 525.0038,-243.8886 527.5563,-250.4066"/>
</g>
<!-- Node24 -->
<g id="node25" class="node">
<title>Node24</title>
<polygon fill="#ffffff" stroke="#bfbfbf" points="441.3533,-112.5 441.3533,-131.5 508.3533,-131.5 508.3533,-112.5 441.3533,-112.5"/>
<text text-anchor="middle" x="474.8533" y="-119.5" font-family="Helvetica,sans-Serif" font-size="10.00" fill="#000000">cpu_conf.h</text>
</g>
<!-- Node23&#45;&gt;Node24 -->
<g id="edge42" class="edge">
<title>Node23&#45;&gt;Node24</title>
<path fill="none" stroke="#191970" d="M411.7698,-280.398C401.0894,-258.7908 378.962,-205.321 399.8533,-168 407.9322,-153.5676 422.5948,-143.1145 436.8262,-135.8565"/>
<polygon fill="#191970" stroke="#191970" points="438.472,-138.9506 446.0426,-131.5387 435.5022,-132.6118 438.472,-138.9506"/>
</g>
<!-- Node26&#45;&gt;Node2 -->
<g id="edge48" class="edge">
<title>Node26&#45;&gt;Node2</title>
<path fill="none" stroke="#191970" d="M214.5674,-232.5165C165.6006,-228.7451 51.1305,-216.9575 27.8533,-188 -8.9024,-142.2748 -9.6077,-101.1492 27.8533,-56 53.9768,-24.5153 175.1424,-14.4458 236.7199,-11.3325"/>
<polygon fill="#191970" stroke="#191970" points="236.9542,-14.8255 246.7786,-10.8592 236.6251,-7.8332 236.9542,-14.8255"/>
</g>
<!-- Node26&#45;&gt;Node4 -->
<g id="edge47" class="edge">
<title>Node26&#45;&gt;Node4</title>
<path fill="none" stroke="#191970" d="M256.5831,-224.4359C274.469,-215.5631 301.3894,-201.6994 323.8533,-188 374.2746,-157.2511 381.3879,-140.9675 432.8533,-112 455.1322,-99.4603 481.4822,-87.8368 502.0845,-79.411"/>
<polygon fill="#191970" stroke="#191970" points="503.4337,-82.6409 511.4013,-75.6575 500.8179,-76.148 503.4337,-82.6409"/>
</g>
<!-- Node26&#45;&gt;Node14 -->
<g id="edge46" class="edge">
<title>Node26&#45;&gt;Node14</title>
<path fill="none" stroke="#191970" d="M214.7814,-232.2134C168.0283,-227.9235 61.5188,-215.3072 39.8533,-188 15.9405,-157.8602 36.9576,-110.553 51.9339,-84.5918"/>
<polygon fill="#191970" stroke="#191970" points="55.0907,-86.1353 57.2717,-75.7673 49.1012,-82.5123 55.0907,-86.1353"/>
</g>
<!-- Node27 -->
<g id="node28" class="node">
<title>Node27</title>
<g id="a_node28"><a xlink:href="irq_8h.html" target="_top" xlink:title="IRQ driver interface. ">
<polygon fill="#ffffff" stroke="#000000" points="408.8533,-168.5 408.8533,-187.5 446.8533,-187.5 446.8533,-168.5 408.8533,-168.5"/>
<text text-anchor="middle" x="427.8533" y="-175.5" font-family="Helvetica,sans-Serif" font-size="10.00" fill="#000000">irq.h</text>
</a>
</g>
</g>
<!-- Node26&#45;&gt;Node27 -->
<g id="edge49" class="edge">
<title>Node26&#45;&gt;Node27</title>
<path fill="none" stroke="#191970" d="M259.1373,-227.4665C293.6777,-217.3395 360.1522,-197.8496 398.5431,-186.5936"/>
<polygon fill="#191970" stroke="#191970" points="399.9654,-189.824 408.5767,-183.6518 397.9959,-183.1068 399.9654,-189.824"/>
</g>
<!-- Node27&#45;&gt;Node5 -->
<g id="edge50" class="edge">
<title>Node27&#45;&gt;Node5</title>
<path fill="none" stroke="#191970" d="M447.0878,-173.5119C486.1931,-164.3874 575.6824,-143.5066 627.9264,-131.3163"/>
<polygon fill="#191970" stroke="#191970" points="628.9095,-134.681 637.8526,-129.0002 627.3189,-127.8641 628.9095,-134.681"/>
</g>
<!-- Node27&#45;&gt;Node24 -->
<g id="edge51" class="edge">
<title>Node27&#45;&gt;Node24</title>
<path fill="none" stroke="#191970" d="M436.0401,-168.2455C442.7122,-160.2958 452.3013,-148.8706 460.2787,-139.3656"/>
<polygon fill="#191970" stroke="#191970" points="463.0125,-141.5525 466.7604,-131.6427 457.6507,-137.0524 463.0125,-141.5525"/>
</g>
</g>
</svg>
