<?xml version="1.0" encoding="UTF-8" standalone="no"?>
<!DOCTYPE svg PUBLIC "-//W3C//DTD SVG 1.1//EN"
 "http://www.w3.org/Graphics/SVG/1.1/DTD/svg11.dtd">
<!-- Generated by graphviz version 2.40.1 (0)
 -->
<!-- Title: sys/include/net/gnrc/lorawan/region.h Pages: 1 -->
<svg width="2182pt" height="655pt"
 viewBox="0.00 0.00 2182.15 655.00" xmlns="http://www.w3.org/2000/svg" xmlns:xlink="http://www.w3.org/1999/xlink">
<g id="graph0" class="graph" transform="scale(1 1) rotate(0) translate(4 651)">
<title>sys/include/net/gnrc/lorawan/region.h</title>
<polygon fill="#ffffff" stroke="transparent" points="-4,4 -4,-651 2178.1464,-651 2178.1464,4 -4,4"/>
<!-- Node0 -->
<g id="node1" class="node">
<title>Node0</title>
<polygon fill="#bfbfbf" stroke="#000000" points="158.1464,-616.5 158.1464,-646.5 270.1464,-646.5 270.1464,-616.5 158.1464,-616.5"/>
<text text-anchor="start" x="166.1464" y="-634.5" font-family="Helvetica,sans-Serif" font-size="10.00" fill="#000000">sys/include/net/gnrc</text>
<text text-anchor="middle" x="214.1464" y="-623.5" font-family="Helvetica,sans-Serif" font-size="10.00" fill="#000000">/lorawan/region.h</text>
</g>
<!-- Node1 -->
<g id="node2" class="node">
<title>Node1</title>
<g id="a_node2"><a xlink:href="modules_8h.html" target="_top" xlink:title="Common macros and compiler attributes/pragmas configuration. ">
<polygon fill="#ffffff" stroke="#000000" points="477.6464,-112.5 477.6464,-131.5 542.6464,-131.5 542.6464,-112.5 477.6464,-112.5"/>
<text text-anchor="middle" x="510.1464" y="-119.5" font-family="Helvetica,sans-Serif" font-size="10.00" fill="#000000">modules.h</text>
</a>
</g>
</g>
<!-- Node0&#45;&gt;Node1 -->
<g id="edge1" class="edge">
<title>Node0&#45;&gt;Node1</title>
<path fill="none" stroke="#191970" d="M205.0471,-616.1336C192.9682,-594.2417 173.1464,-552.4578 173.1464,-514 173.1464,-514 173.1464,-514 173.1464,-346 173.1464,-206.1431 376.942,-148.3442 467.5712,-129.5553"/>
<polygon fill="#191970" stroke="#191970" points="468.4129,-132.9562 477.5272,-127.5543 467.0336,-126.0934 468.4129,-132.9562"/>
</g>
<!-- Node2 -->
<g id="node3" class="node">
<title>Node2</title>
<g id="a_node3"><a xlink:href="lorawan_8h.html" target="_top" xlink:title="GNRC LoRaWAN API definition. ">
<polygon fill="#ffffff" stroke="#000000" points="201.6464,-560.5 201.6464,-579.5 308.6464,-579.5 308.6464,-560.5 201.6464,-560.5"/>
<text text-anchor="middle" x="255.1464" y="-567.5" font-family="Helvetica,sans-Serif" font-size="10.00" fill="#000000">net/gnrc/lorawan.h</text>
</a>
</g>
</g>
<!-- Node0&#45;&gt;Node2 -->
<g id="edge2" class="edge">
<title>Node0&#45;&gt;Node2</title>
<path fill="none" stroke="#191970" d="M224.2812,-616.2977C229.9132,-607.8498 236.9615,-597.2773 242.9003,-588.369"/>
<polygon fill="#191970" stroke="#191970" points="245.9469,-590.1089 248.5818,-579.8469 240.1225,-586.226 245.9469,-590.1089"/>
</g>
<!-- Node3 -->
<g id="node4" class="node">
<title>Node3</title>
<g id="a_node4"><a xlink:href="gnrc__lorawan__internal_8h.html" target="_top" xlink:title="GNRC LoRaWAN internal header. ">
<polygon fill="#ffffff" stroke="#000000" points="399.1464,-504.5 399.1464,-523.5 527.1464,-523.5 527.1464,-504.5 399.1464,-504.5"/>
<text text-anchor="middle" x="463.1464" y="-511.5" font-family="Helvetica,sans-Serif" font-size="10.00" fill="#000000">gnrc_lorawan_internal.h</text>
</a>
</g>
</g>
<!-- Node2&#45;&gt;Node3 -->
<g id="edge3" class="edge">
<title>Node2&#45;&gt;Node3</title>
<path fill="none" stroke="#191970" d="M290.9029,-560.3733C326.089,-550.9001 379.9345,-536.4032 418.042,-526.1435"/>
<polygon fill="#191970" stroke="#191970" points="419.1103,-529.4806 427.8565,-523.5011 417.2904,-522.7213 419.1103,-529.4806"/>
</g>
<!-- Node12 -->
<g id="node13" class="node">
<title>Node12</title>
<g id="a_node13"><a xlink:href="assert_8h.html" target="_top" xlink:title="POSIX.1&#45;2008 compliant version of the assert macro. ">
<polygon fill="#ffffff" stroke="#000000" points="1218.1464,-56.5 1218.1464,-75.5 1272.1464,-75.5 1272.1464,-56.5 1218.1464,-56.5"/>
<text text-anchor="middle" x="1245.1464" y="-63.5" font-family="Helvetica,sans-Serif" font-size="10.00" fill="#000000">assert.h</text>
</a>
</g>
</g>
<!-- Node2&#45;&gt;Node12 -->
<g id="edge114" class="edge">
<title>Node2&#45;&gt;Node12</title>
<path fill="none" stroke="#191970" d="M201.3758,-564.8226C138.5686,-555.4686 43.1464,-529.4929 43.1464,-458 43.1464,-458 43.1464,-458 43.1464,-290 43.1464,-149.9909 216.7143,-150.0797 398.1464,-112 556.1702,-78.8333 1064.9543,-68.7348 1207.6335,-66.5205"/>
<polygon fill="#191970" stroke="#191970" points="1208.0808,-70.0142 1218.0267,-66.3632 1207.9748,-63.015 1208.0808,-70.0142"/>
</g>
<!-- Node4 -->
<g id="node5" class="node">
<title>Node4</title>
<g id="a_node5"><a xlink:href="stdio_8h.html" target="_top" xlink:title="stdio wrapper to extend the C libs stdio ">
<polygon fill="#ffffff" stroke="#000000" points="454.1464,-280.5 454.1464,-299.5 502.1464,-299.5 502.1464,-280.5 454.1464,-280.5"/>
<text text-anchor="middle" x="478.1464" y="-287.5" font-family="Helvetica,sans-Serif" font-size="10.00" fill="#000000">stdio.h</text>
</a>
</g>
</g>
<!-- Node3&#45;&gt;Node4 -->
<g id="edge4" class="edge">
<title>Node3&#45;&gt;Node4</title>
<path fill="none" stroke="#191970" d="M463.7909,-504.375C466.0603,-470.4851 473.7112,-356.2317 476.8183,-309.8332"/>
<polygon fill="#191970" stroke="#191970" points="480.3282,-309.8007 477.5042,-299.5891 473.3438,-309.3329 480.3282,-309.8007"/>
</g>
<!-- Node6 -->
<g id="node7" class="node">
<title>Node6</title>
<polygon fill="#ffffff" stroke="#bfbfbf" points="426.6464,-168.5 426.6464,-187.5 479.6464,-187.5 479.6464,-168.5 426.6464,-168.5"/>
<text text-anchor="middle" x="453.1464" y="-175.5" font-family="Helvetica,sans-Serif" font-size="10.00" fill="#000000">string.h</text>
</g>
<!-- Node3&#45;&gt;Node6 -->
<g id="edge20" class="edge">
<title>Node3&#45;&gt;Node6</title>
<path fill="none" stroke="#191970" d="M457.5393,-504.4834C446.969,-485.6141 425.1464,-441.8343 425.1464,-402 425.1464,-402 425.1464,-402 425.1464,-290 425.1464,-256.5848 437.0217,-219.1911 445.3049,-197.1729"/>
<polygon fill="#191970" stroke="#191970" points="448.6332,-198.2719 449.0149,-187.6839 442.1138,-195.7229 448.6332,-198.2719"/>
</g>
<!-- Node15 -->
<g id="node16" class="node">
<title>Node15</title>
<g id="a_node16"><a xlink:href="iolist_8h.html" target="_top" xlink:title="iolist scatter / gather IO ">
<polygon fill="#ffffff" stroke="#000000" points="2120.6464,-224.5 2120.6464,-243.5 2167.6464,-243.5 2167.6464,-224.5 2120.6464,-224.5"/>
<text text-anchor="middle" x="2144.1464" y="-231.5" font-family="Helvetica,sans-Serif" font-size="10.00" fill="#000000">iolist.h</text>
</a>
</g>
</g>
<!-- Node3&#45;&gt;Node15 -->
<g id="edge21" class="edge">
<title>Node3&#45;&gt;Node15</title>
<path fill="none" stroke="#191970" d="M527.5158,-513.0923C756.6994,-509.651 1532.4178,-496.1527 1779.1464,-468 1931.6524,-450.5985 2118.1464,-555.4956 2118.1464,-402 2118.1464,-402 2118.1464,-402 2118.1464,-346 2118.1464,-312.7204 2129.1735,-275.2857 2136.865,-253.2224"/>
<polygon fill="#191970" stroke="#191970" points="2140.195,-254.3059 2140.31,-243.7117 2133.6135,-251.9219 2140.195,-254.3059"/>
</g>
<!-- Node18 -->
<g id="node19" class="node">
<title>Node18</title>
<g id="a_node19"><a xlink:href="sys_2include_2net_2lora_8h.html" target="_top" xlink:title="LoRa modulation header definitions. ">
<polygon fill="#ffffff" stroke="#000000" points="559.6464,-280.5 559.6464,-299.5 622.6464,-299.5 622.6464,-280.5 559.6464,-280.5"/>
<text text-anchor="middle" x="591.1464" y="-287.5" font-family="Helvetica,sans-Serif" font-size="10.00" fill="#000000">net/lora.h</text>
</a>
</g>
</g>
<!-- Node3&#45;&gt;Node18 -->
<g id="edge28" class="edge">
<title>Node3&#45;&gt;Node18</title>
<path fill="none" stroke="#191970" d="M468.6464,-504.375C488.2172,-470.1261 554.6881,-353.802 580.6426,-308.3817"/>
<polygon fill="#191970" stroke="#191970" points="583.7443,-310.0081 585.6669,-299.5891 577.6666,-306.5351 583.7443,-310.0081"/>
</g>
<!-- Node20 -->
<g id="node21" class="node">
<title>Node20</title>
<g id="a_node21"><a xlink:href="net_2lorawan_2hdr_8h.html" target="_top" xlink:title="LoRaWAN header type and helper function definitions. ">
<polygon fill="#ffffff" stroke="#000000" points="295.6464,-336.5 295.6464,-355.5 396.6464,-355.5 396.6464,-336.5 295.6464,-336.5"/>
<text text-anchor="middle" x="346.1464" y="-343.5" font-family="Helvetica,sans-Serif" font-size="10.00" fill="#000000">net/lorawan/hdr.h</text>
</a>
</g>
</g>
<!-- Node3&#45;&gt;Node20 -->
<g id="edge32" class="edge">
<title>Node3&#45;&gt;Node20</title>
<path fill="none" stroke="#191970" d="M449.5439,-504.1715C438.2737,-495.5467 422.3458,-482.1933 411.1464,-468 385.1305,-435.0295 364.3087,-390.1252 353.7369,-365.01"/>
<polygon fill="#191970" stroke="#191970" points="356.8876,-363.4688 349.8484,-355.5504 350.4132,-366.1302 356.8876,-363.4688"/>
</g>
<!-- Node25 -->
<g id="node26" class="node">
<title>Node25</title>
<g id="a_node26"><a xlink:href="loramac_8h.html" target="_top" xlink:title="LoRaMAC header definitions. ">
<polygon fill="#ffffff" stroke="#000000" points="277.1464,-280.5 277.1464,-299.5 359.1464,-299.5 359.1464,-280.5 277.1464,-280.5"/>
<text text-anchor="middle" x="318.1464" y="-287.5" font-family="Helvetica,sans-Serif" font-size="10.00" fill="#000000">net/loramac.h</text>
</a>
</g>
</g>
<!-- Node3&#45;&gt;Node25 -->
<g id="edge113" class="edge">
<title>Node3&#45;&gt;Node25</title>
<path fill="none" stroke="#191970" d="M443.4572,-504.3916C403.9006,-483.7763 316.0132,-431.0072 286.1464,-356 279.4224,-339.1135 290.1442,-320.54 300.9481,-307.4102"/>
<polygon fill="#191970" stroke="#191970" points="303.8334,-309.4334 307.8771,-299.6406 298.6091,-304.7743 303.8334,-309.4334"/>
</g>
<!-- Node26 -->
<g id="node27" class="node">
<title>Node26</title>
<g id="a_node27"><a xlink:href="pktbuf_8h.html" target="_top" xlink:title="Interface definition for the global network buffer. ">
<polygon fill="#ffffff" stroke="#000000" points="842.6464,-448.5 842.6464,-467.5 943.6464,-467.5 943.6464,-448.5 842.6464,-448.5"/>
<text text-anchor="middle" x="893.1464" y="-455.5" font-family="Helvetica,sans-Serif" font-size="10.00" fill="#000000">net/gnrc/pktbuf.h</text>
</a>
</g>
</g>
<!-- Node3&#45;&gt;Node26 -->
<g id="edge48" class="edge">
<title>Node3&#45;&gt;Node26</title>
<path fill="none" stroke="#191970" d="M527.5217,-505.6162C609.9788,-494.8776 751.8374,-476.403 832.4705,-465.902"/>
<polygon fill="#191970" stroke="#191970" points="833.0068,-469.3618 842.471,-464.5996 832.1028,-462.4204 833.0068,-469.3618"/>
</g>
<!-- Node50 -->
<g id="node51" class="node">
<title>Node50</title>
<g id="a_node51"><a xlink:href="drivers_2include_2net_2netdev_8h.html" target="_top" xlink:title="Definitions low&#45;level network driver interface. ">
<polygon fill="#ffffff" stroke="#000000" points="1986.6464,-280.5 1986.6464,-299.5 2063.6464,-299.5 2063.6464,-280.5 1986.6464,-280.5"/>
<text text-anchor="middle" x="2025.1464" y="-287.5" font-family="Helvetica,sans-Serif" font-size="10.00" fill="#000000">net/netdev.h</text>
</a>
</g>
</g>
<!-- Node3&#45;&gt;Node50 -->
<g id="edge105" class="edge">
<title>Node3&#45;&gt;Node50</title>
<path fill="none" stroke="#191970" d="M527.313,-513.5457C799.8184,-511.099 1852.7178,-496.2251 1972.1464,-412 2005.9831,-388.1372 2018.4209,-337.8557 2022.8365,-309.8671"/>
<polygon fill="#191970" stroke="#191970" points="2026.3402,-310.08 2024.2398,-299.6955 2019.4059,-309.1233 2026.3402,-310.08"/>
</g>
<!-- Node5 -->
<g id="node6" class="node">
<title>Node5</title>
<g id="a_node6"><a xlink:href="flash__utils_8h.html" target="_top" xlink:title="Utility functions, macros, and types for read&#45;only memory. ">
<polygon fill="#ffffff" stroke="#000000" points="491.6464,-224.5 491.6464,-243.5 562.6464,-243.5 562.6464,-224.5 491.6464,-224.5"/>
<text text-anchor="middle" x="527.1464" y="-231.5" font-family="Helvetica,sans-Serif" font-size="10.00" fill="#000000">flash_utils.h</text>
</a>
</g>
</g>
<!-- Node4&#45;&gt;Node5 -->
<g id="edge5" class="edge">
<title>Node4&#45;&gt;Node5</title>
<path fill="none" stroke="#191970" d="M481.4147,-280.2455C486.9451,-272.1352 496.881,-260.4075 506.2091,-250.7919"/>
<polygon fill="#191970" stroke="#191970" points="508.7978,-253.1547 513.4639,-243.6427 503.8845,-248.1688 508.7978,-253.1547"/>
</g>
<!-- Node5&#45;&gt;Node4 -->
<g id="edge6" class="edge">
<title>Node5&#45;&gt;Node4</title>
<path fill="none" stroke="#191970" d="M523.9542,-243.6427C518.4644,-251.7196 508.5461,-263.4402 499.2125,-273.0751"/>
<polygon fill="#191970" stroke="#191970" points="496.6065,-270.7296 491.9484,-280.2455 501.524,-275.7114 496.6065,-270.7296"/>
</g>
<!-- Node5&#45;&gt;Node6 -->
<g id="edge7" class="edge">
<title>Node5&#45;&gt;Node6</title>
<path fill="none" stroke="#191970" d="M514.2566,-224.2455C503.221,-215.8943 487.1172,-203.7076 474.211,-193.9408"/>
<polygon fill="#191970" stroke="#191970" points="475.9746,-190.8862 465.8885,-187.6427 471.7505,-196.4681 475.9746,-190.8862"/>
</g>
<!-- Node7 -->
<g id="node8" class="node">
<title>Node7</title>
<polygon fill="#ffffff" stroke="#bfbfbf" points="965.6464,-168.5 965.6464,-187.5 1032.6464,-187.5 1032.6464,-168.5 965.6464,-168.5"/>
<text text-anchor="middle" x="999.1464" y="-175.5" font-family="Helvetica,sans-Serif" font-size="10.00" fill="#000000">cpu_conf.h</text>
</g>
<!-- Node5&#45;&gt;Node7 -->
<g id="edge8" class="edge">
<title>Node5&#45;&gt;Node7</title>
<path fill="none" stroke="#191970" d="M563.0105,-229.7449C648.2526,-219.6315 862.7608,-194.1813 955.4093,-183.1891"/>
<polygon fill="#191970" stroke="#191970" points="956.0459,-186.6383 965.5638,-181.9844 955.2211,-179.687 956.0459,-186.6383"/>
</g>
<!-- Node8 -->
<g id="node9" class="node">
<title>Node8</title>
<g id="a_node9"><a xlink:href="kernel__defines_8h.html" target="_top" xlink:title="Common macros and compiler attributes/pragmas configuration. ">
<polygon fill="#ffffff" stroke="#000000" points="1402.6464,-168.5 1402.6464,-187.5 1497.6464,-187.5 1497.6464,-168.5 1402.6464,-168.5"/>
<text text-anchor="middle" x="1450.1464" y="-175.5" font-family="Helvetica,sans-Serif" font-size="10.00" fill="#000000">kernel_defines.h</text>
</a>
</g>
</g>
<!-- Node5&#45;&gt;Node8 -->
<g id="edge9" class="edge">
<title>Node5&#45;&gt;Node8</title>
<path fill="none" stroke="#191970" d="M562.8197,-231.6638C595.0406,-229.5758 643.7624,-226.4732 686.1464,-224 983.4043,-206.6547 1058.319,-211.5934 1355.1464,-188 1367.1579,-187.0453 1380.0037,-185.827 1392.2425,-184.5716"/>
<polygon fill="#191970" stroke="#191970" points="1392.7677,-188.0358 1402.3488,-183.5134 1392.0387,-181.0739 1392.7677,-188.0358"/>
</g>
<!-- Node8&#45;&gt;Node1 -->
<g id="edge10" class="edge">
<title>Node8&#45;&gt;Node1</title>
<path fill="none" stroke="#191970" d="M1402.3484,-172.4925C1387.2622,-170.8821 1370.5208,-169.2269 1355.1464,-168 1048.1224,-143.4997 677.2832,-128.2784 553.0384,-123.5689"/>
<polygon fill="#191970" stroke="#191970" points="552.9355,-120.0626 542.8109,-123.1839 552.6721,-127.0577 552.9355,-120.0626"/>
</g>
<!-- Node9 -->
<g id="node10" class="node">
<title>Node9</title>
<g id="a_node10"><a xlink:href="riot__version_8h.html" target="_top" xlink:title="Common macros and compiler attributes/pragmas configuration. ">
<polygon fill="#ffffff" stroke="#000000" points="1343.6464,-56.5 1343.6464,-75.5 1424.6464,-75.5 1424.6464,-56.5 1343.6464,-56.5"/>
<text text-anchor="middle" x="1384.1464" y="-63.5" font-family="Helvetica,sans-Serif" font-size="10.00" fill="#000000">riot_version.h</text>
</a>
</g>
</g>
<!-- Node8&#45;&gt;Node9 -->
<g id="edge11" class="edge">
<title>Node8&#45;&gt;Node9</title>
<path fill="none" stroke="#191970" d="M1442.6006,-168.4357C1435.5897,-159.3373 1425.0685,-145.1274 1417.1464,-132 1407.863,-116.617 1398.8468,-98.2798 1392.5913,-84.8425"/>
<polygon fill="#191970" stroke="#191970" points="1395.7299,-83.2898 1388.3872,-75.6521 1389.3643,-86.2018 1395.7299,-83.2898"/>
</g>
<!-- Node11 -->
<g id="node12" class="node">
<title>Node11</title>
<g id="a_node12"><a xlink:href="compiler__hints_8h.html" target="_top" xlink:title="Common macros and compiler attributes/pragmas configuration. ">
<polygon fill="#ffffff" stroke="#000000" points="1275.6464,-112.5 1275.6464,-131.5 1368.6464,-131.5 1368.6464,-112.5 1275.6464,-112.5"/>
<text text-anchor="middle" x="1322.1464" y="-119.5" font-family="Helvetica,sans-Serif" font-size="10.00" fill="#000000">compiler_hints.h</text>
</a>
</g>
</g>
<!-- Node8&#45;&gt;Node11 -->
<g id="edge13" class="edge">
<title>Node8&#45;&gt;Node11</title>
<path fill="none" stroke="#191970" d="M1428.1424,-168.3733C1407.5029,-159.3435 1376.4306,-145.7494 1353.2575,-135.6111"/>
<polygon fill="#191970" stroke="#191970" points="1354.4277,-132.3028 1343.8632,-131.5011 1351.6219,-138.7159 1354.4277,-132.3028"/>
</g>
<!-- Node13 -->
<g id="node14" class="node">
<title>Node13</title>
<g id="a_node14"><a xlink:href="container_8h.html" target="_top" xlink:title="Common macros and compiler attributes/pragmas configuration. ">
<polygon fill="#ffffff" stroke="#000000" points="1425.6464,-112.5 1425.6464,-131.5 1494.6464,-131.5 1494.6464,-112.5 1425.6464,-112.5"/>
<text text-anchor="middle" x="1460.1464" y="-119.5" font-family="Helvetica,sans-Serif" font-size="10.00" fill="#000000">container.h</text>
</a>
</g>
</g>
<!-- Node8&#45;&gt;Node13 -->
<g id="edge17" class="edge">
<title>Node8&#45;&gt;Node13</title>
<path fill="none" stroke="#191970" d="M1451.8882,-168.2455C1453.1931,-160.9382 1455.0224,-150.6944 1456.6277,-141.7046"/>
<polygon fill="#191970" stroke="#191970" points="1460.112,-142.1022 1458.4245,-131.6427 1453.221,-140.8717 1460.112,-142.1022"/>
</g>
<!-- Node10 -->
<g id="node11" class="node">
<title>Node10</title>
<polygon fill="#ffffff" stroke="#bfbfbf" points="1261.1464,-.5 1261.1464,-19.5 1313.1464,-19.5 1313.1464,-.5 1261.1464,-.5"/>
<text text-anchor="middle" x="1287.1464" y="-7.5" font-family="Helvetica,sans-Serif" font-size="10.00" fill="#000000">stdint.h</text>
</g>
<!-- Node9&#45;&gt;Node10 -->
<g id="edge12" class="edge">
<title>Node9&#45;&gt;Node10</title>
<path fill="none" stroke="#191970" d="M1367.2503,-56.2455C1352.2284,-47.5731 1330.042,-34.7645 1312.8254,-24.825"/>
<polygon fill="#191970" stroke="#191970" points="1314.2592,-21.6114 1303.8489,-19.6427 1310.7593,-27.6737 1314.2592,-21.6114"/>
</g>
<!-- Node11&#45;&gt;Node10 -->
<g id="edge16" class="edge">
<title>Node11&#45;&gt;Node10</title>
<path fill="none" stroke="#191970" d="M1319.1623,-112.4509C1313.428,-94.1013 1300.7685,-53.5908 1293.1993,-29.3693"/>
<polygon fill="#191970" stroke="#191970" points="1296.4464,-28.0257 1290.1229,-19.5249 1289.765,-30.1137 1296.4464,-28.0257"/>
</g>
<!-- Node11&#45;&gt;Node12 -->
<g id="edge14" class="edge">
<title>Node11&#45;&gt;Node12</title>
<path fill="none" stroke="#191970" d="M1308.734,-112.2455C1297.1407,-103.814 1280.1716,-91.4729 1266.6786,-81.6598"/>
<polygon fill="#191970" stroke="#191970" points="1268.5511,-78.6938 1258.4051,-75.6427 1264.4338,-84.355 1268.5511,-78.6938"/>
</g>
<!-- Node12&#45;&gt;Node10 -->
<g id="edge15" class="edge">
<title>Node12&#45;&gt;Node10</title>
<path fill="none" stroke="#191970" d="M1252.4622,-56.2455C1258.3643,-48.3761 1266.8206,-37.101 1273.9057,-27.6542"/>
<polygon fill="#191970" stroke="#191970" points="1276.7143,-29.7427 1279.9144,-19.6427 1271.1143,-25.5427 1276.7143,-29.7427"/>
</g>
<!-- Node13&#45;&gt;Node10 -->
<g id="edge19" class="edge">
<title>Node13&#45;&gt;Node10</title>
<path fill="none" stroke="#191970" d="M1458.9982,-112.4713C1456.7742,-98.1856 1450.5556,-71.2684 1434.1464,-56 1417.9964,-40.9728 1361.6051,-26.2086 1323.5505,-17.6101"/>
<polygon fill="#191970" stroke="#191970" points="1323.8721,-14.0967 1313.3521,-15.3533 1322.3596,-20.9313 1323.8721,-14.0967"/>
</g>
<!-- Node14 -->
<g id="node15" class="node">
<title>Node14</title>
<polygon fill="#ffffff" stroke="#bfbfbf" points="1800.1464,-56.5 1800.1464,-75.5 1856.1464,-75.5 1856.1464,-56.5 1800.1464,-56.5"/>
<text text-anchor="middle" x="1828.1464" y="-63.5" font-family="Helvetica,sans-Serif" font-size="10.00" fill="#000000">stddef.h</text>
</g>
<!-- Node13&#45;&gt;Node14 -->
<g id="edge18" class="edge">
<title>Node13&#45;&gt;Node14</title>
<path fill="none" stroke="#191970" d="M1494.7991,-116.4503C1504.0102,-114.9886 1513.9533,-113.4228 1523.1464,-112 1619.0486,-97.157 1732.0132,-80.2773 1789.8256,-71.6825"/>
<polygon fill="#191970" stroke="#191970" points="1790.5851,-75.1081 1799.9621,-70.1764 1789.5563,-68.1842 1790.5851,-75.1081"/>
</g>
<!-- Node16 -->
<g id="node17" class="node">
<title>Node16</title>
<g id="a_node17"><a xlink:href="unistd_8h_source.html" target="_top" xlink:title="unistd.h">
<polygon fill="#ffffff" stroke="#000000" points="2120.1464,-168.5 2120.1464,-187.5 2174.1464,-187.5 2174.1464,-168.5 2120.1464,-168.5"/>
<text text-anchor="middle" x="2147.1464" y="-175.5" font-family="Helvetica,sans-Serif" font-size="10.00" fill="#000000">unistd.h</text>
</a>
</g>
</g>
<!-- Node15&#45;&gt;Node16 -->
<g id="edge22" class="edge">
<title>Node15&#45;&gt;Node16</title>
<path fill="none" stroke="#191970" d="M2144.6689,-224.2455C2145.0604,-216.9382 2145.6092,-206.6944 2146.0908,-197.7046"/>
<polygon fill="#191970" stroke="#191970" points="2149.5898,-197.8156 2146.6298,-187.6427 2142.5998,-197.4411 2149.5898,-197.8156"/>
</g>
<!-- Node16&#45;&gt;Node10 -->
<g id="edge24" class="edge">
<title>Node16&#45;&gt;Node10</title>
<path fill="none" stroke="#191970" d="M2150.034,-168.4831C2153.5265,-155.1344 2157.921,-130.4222 2149.1464,-112 2132.1626,-76.3426 2116.9712,-70.2769 2080.1464,-56 2009.1156,-28.4615 1469.8798,-14.1911 1323.637,-10.8013"/>
<polygon fill="#191970" stroke="#191970" points="1323.4872,-7.297 1313.4097,-10.5672 1323.3269,-14.2952 1323.4872,-7.297"/>
</g>
<!-- Node16&#45;&gt;Node14 -->
<g id="edge23" class="edge">
<title>Node16&#45;&gt;Node14</title>
<path fill="none" stroke="#191970" d="M2119.9486,-168.4509C2062.741,-148.3655 1929.9084,-101.7284 1865.0748,-78.9655"/>
<polygon fill="#191970" stroke="#191970" points="1865.8701,-75.5353 1855.2753,-75.5249 1863.5512,-82.1401 1865.8701,-75.5353"/>
</g>
<!-- Node17 -->
<g id="node18" class="node">
<title>Node17</title>
<g id="a_node18"><a xlink:href="cpu_2avr8__common_2avr__libc__extra_2include_2sys_2types_8h_source.html" target="_top" xlink:title="sys/types.h">
<polygon fill="#ffffff" stroke="#000000" points="2070.6464,-112.5 2070.6464,-131.5 2139.6464,-131.5 2139.6464,-112.5 2070.6464,-112.5"/>
<text text-anchor="middle" x="2105.1464" y="-119.5" font-family="Helvetica,sans-Serif" font-size="10.00" fill="#000000">sys/types.h</text>
</a>
</g>
</g>
<!-- Node16&#45;&gt;Node17 -->
<g id="edge25" class="edge">
<title>Node16&#45;&gt;Node17</title>
<path fill="none" stroke="#191970" d="M2139.8305,-168.2455C2133.9285,-160.3761 2125.4721,-149.101 2118.387,-139.6542"/>
<polygon fill="#191970" stroke="#191970" points="2121.1784,-137.5427 2112.3784,-131.6427 2115.5784,-141.7427 2121.1784,-137.5427"/>
</g>
<!-- Node17&#45;&gt;Node10 -->
<g id="edge26" class="edge">
<title>Node17&#45;&gt;Node10</title>
<path fill="none" stroke="#191970" d="M2101.1792,-112.2398C2094.4507,-97.1245 2079.2413,-68.4957 2056.1464,-56 1991.2356,-20.8793 1466.5764,-12.1247 1323.2254,-10.379"/>
<polygon fill="#191970" stroke="#191970" points="1323.2335,-6.8789 1313.1929,-10.2608 1323.151,-13.8784 1323.2335,-6.8789"/>
</g>
<!-- Node17&#45;&gt;Node14 -->
<g id="edge27" class="edge">
<title>Node17&#45;&gt;Node14</title>
<path fill="none" stroke="#191970" d="M2070.6242,-115.0208C2018.5776,-104.4987 1920.3653,-84.6435 1866.2742,-73.7082"/>
<polygon fill="#191970" stroke="#191970" points="1866.8851,-70.2609 1856.3898,-71.7099 1865.4979,-77.1221 1866.8851,-70.2609"/>
</g>
<!-- Node18&#45;&gt;Node1 -->
<g id="edge31" class="edge">
<title>Node18&#45;&gt;Node1</title>
<path fill="none" stroke="#191970" d="M589.2086,-280.323C586.3939,-267.2074 580.5737,-243.2193 572.1464,-224 558.4966,-192.8704 536.886,-159.7585 523.1193,-139.9837"/>
<polygon fill="#191970" stroke="#191970" points="525.8614,-137.7992 517.2316,-131.6529 520.1449,-141.8393 525.8614,-137.7992"/>
</g>
<!-- Node18&#45;&gt;Node10 -->
<g id="edge29" class="edge">
<title>Node18&#45;&gt;Node10</title>
<path fill="none" stroke="#191970" d="M591.3683,-280.3335C592.5073,-240.1022 599.059,-86.6106 633.1464,-56 656.2852,-35.2213 1116.6939,-16.3904 1250.7951,-11.3293"/>
<polygon fill="#191970" stroke="#191970" points="1251.095,-14.8206 1260.9569,-10.9486 1250.8329,-7.8255 1251.095,-14.8206"/>
</g>
<!-- Node19 -->
<g id="node20" class="node">
<title>Node19</title>
<polygon fill="#ffffff" stroke="#bfbfbf" points="695.1464,-224.5 695.1464,-243.5 745.1464,-243.5 745.1464,-224.5 695.1464,-224.5"/>
<text text-anchor="middle" x="720.1464" y="-231.5" font-family="Helvetica,sans-Serif" font-size="10.00" fill="#000000">stdlib.h</text>
</g>
<!-- Node18&#45;&gt;Node19 -->
<g id="edge30" class="edge">
<title>Node18&#45;&gt;Node19</title>
<path fill="none" stroke="#191970" d="M613.3223,-280.3733C634.123,-271.3435 665.438,-257.7494 688.7922,-247.6111"/>
<polygon fill="#191970" stroke="#191970" points="690.4806,-250.6938 698.2599,-243.5011 687.6932,-244.2727 690.4806,-250.6938"/>
</g>
<!-- Node20&#45;&gt;Node4 -->
<g id="edge33" class="edge">
<title>Node20&#45;&gt;Node4</title>
<path fill="none" stroke="#191970" d="M368.838,-336.3733C390.2175,-327.3032 422.4521,-313.6279 446.3826,-303.4755"/>
<polygon fill="#191970" stroke="#191970" points="447.912,-306.6287 455.7509,-299.5011 445.1781,-300.1846 447.912,-306.6287"/>
</g>
<!-- Node20&#45;&gt;Node10 -->
<g id="edge34" class="edge">
<title>Node20&#45;&gt;Node10</title>
<path fill="none" stroke="#191970" d="M315.4273,-336.4362C298.239,-329.3313 278.2832,-317.7464 268.1464,-300 263.7376,-292.2815 265.7793,-288.5679 268.1464,-280 293.288,-188.9984 314.8022,-156.3524 398.1464,-112 549.836,-31.2769 1103.1859,-13.899 1250.7661,-10.6667"/>
<polygon fill="#191970" stroke="#191970" points="1251.1466,-14.1596 1261.0707,-10.4499 1250.9993,-7.1612 1251.1466,-14.1596"/>
</g>
<!-- Node21 -->
<g id="node22" class="node">
<title>Node21</title>
<polygon fill="#ffffff" stroke="#bfbfbf" points="1532.1464,-112.5 1532.1464,-131.5 1592.1464,-131.5 1592.1464,-112.5 1532.1464,-112.5"/>
<text text-anchor="middle" x="1562.1464" y="-119.5" font-family="Helvetica,sans-Serif" font-size="10.00" fill="#000000">stdbool.h</text>
</g>
<!-- Node20&#45;&gt;Node21 -->
<g id="edge35" class="edge">
<title>Node20&#45;&gt;Node21</title>
<path fill="none" stroke="#191970" d="M351.109,-336.239C355.7349,-327.0015 362.7165,-312.6976 368.1464,-300 392.8128,-242.3184 367.1219,-204.498 418.1464,-168 467.245,-132.8796 1444.0933,-138.1429 1504.1464,-132 1509.8006,-131.4216 1515.7361,-130.6225 1521.5635,-129.7258"/>
<polygon fill="#191970" stroke="#191970" points="1522.5532,-133.1101 1531.8523,-128.033 1521.4167,-126.2029 1522.5532,-133.1101"/>
</g>
<!-- Node22 -->
<g id="node23" class="node">
<title>Node22</title>
<g id="a_node23"><a xlink:href="byteorder_8h.html" target="_top" xlink:title="Functions to work with different byte orders. ">
<polygon fill="#ffffff" stroke="#000000" points="109.6464,-224.5 109.6464,-243.5 182.6464,-243.5 182.6464,-224.5 109.6464,-224.5"/>
<text text-anchor="middle" x="146.1464" y="-231.5" font-family="Helvetica,sans-Serif" font-size="10.00" fill="#000000">byteorder.h</text>
</a>
</g>
</g>
<!-- Node20&#45;&gt;Node22 -->
<g id="edge36" class="edge">
<title>Node20&#45;&gt;Node22</title>
<path fill="none" stroke="#191970" d="M317.8905,-336.4726C294.9099,-328.2154 262.0076,-315.2188 235.1464,-300 209.4005,-285.4131 182.4603,-264.5258 165.0572,-250.1768"/>
<polygon fill="#191970" stroke="#191970" points="167.244,-247.443 157.327,-243.7142 162.7542,-252.8134 167.244,-247.443"/>
</g>
<!-- Node20&#45;&gt;Node25 -->
<g id="edge43" class="edge">
<title>Node20&#45;&gt;Node25</title>
<path fill="none" stroke="#191970" d="M341.2692,-336.2455C337.495,-328.6973 332.1543,-318.0158 327.5562,-308.8197"/>
<polygon fill="#191970" stroke="#191970" points="330.5704,-307.0217 322.9677,-299.6427 324.3094,-310.1522 330.5704,-307.0217"/>
</g>
<!-- Node22&#45;&gt;Node6 -->
<g id="edge37" class="edge">
<title>Node22&#45;&gt;Node6</title>
<path fill="none" stroke="#191970" d="M182.8728,-227.3007C241.8782,-216.5375 357.1426,-195.5121 416.2535,-184.7296"/>
<polygon fill="#191970" stroke="#191970" points="417.0597,-188.1404 426.2692,-182.9027 415.8035,-181.2541 417.0597,-188.1404"/>
</g>
<!-- Node22&#45;&gt;Node10 -->
<g id="edge38" class="edge">
<title>Node22&#45;&gt;Node10</title>
<path fill="none" stroke="#191970" d="M149.415,-224.2891C161.123,-190.1274 201.9273,-76.4491 233.1464,-56 276.5941,-27.5408 1070.7162,-13.3976 1250.9651,-10.5463"/>
<polygon fill="#191970" stroke="#191970" points="1251.0514,-14.0454 1260.9953,-10.3893 1250.9418,-7.0463 1251.0514,-14.0454"/>
</g>
<!-- Node23 -->
<g id="node24" class="node">
<title>Node23</title>
<g id="a_node24"><a xlink:href="endian_8h.html" target="_top" xlink:title="libc header for endian conversion ">
<polygon fill="#ffffff" stroke="#000000" points="34.6464,-56.5 34.6464,-75.5 91.6464,-75.5 91.6464,-56.5 34.6464,-56.5"/>
<text text-anchor="middle" x="63.1464" y="-63.5" font-family="Helvetica,sans-Serif" font-size="10.00" fill="#000000">endian.h</text>
</a>
</g>
</g>
<!-- Node22&#45;&gt;Node23 -->
<g id="edge39" class="edge">
<title>Node22&#45;&gt;Node23</title>
<path fill="none" stroke="#191970" d="M141.4461,-224.4862C128.2122,-197.6994 90.4457,-121.2565 72.6464,-85.2289"/>
<polygon fill="#191970" stroke="#191970" points="75.5692,-83.2431 68.0018,-75.8279 69.2933,-86.3437 75.5692,-83.2431"/>
</g>
<!-- Node24 -->
<g id="node25" class="node">
<title>Node24</title>
<g id="a_node25"><a xlink:href="unaligned_8h.html" target="_top" xlink:title="Unaligned but safe memory access functions. ">
<polygon fill="#ffffff" stroke="#000000" points="109.6464,-56.5 109.6464,-75.5 180.6464,-75.5 180.6464,-56.5 109.6464,-56.5"/>
<text text-anchor="middle" x="145.1464" y="-63.5" font-family="Helvetica,sans-Serif" font-size="10.00" fill="#000000">unaligned.h</text>
</a>
</g>
</g>
<!-- Node22&#45;&gt;Node24 -->
<g id="edge41" class="edge">
<title>Node22&#45;&gt;Node24</title>
<path fill="none" stroke="#191970" d="M146.0897,-224.4862C145.9317,-197.9293 145.4831,-122.5651 145.2664,-86.1655"/>
<polygon fill="#191970" stroke="#191970" points="148.7644,-85.8068 145.2049,-75.8279 141.7646,-85.8486 148.7644,-85.8068"/>
</g>
<!-- Node23&#45;&gt;Node10 -->
<g id="edge40" class="edge">
<title>Node23&#45;&gt;Node10</title>
<path fill="none" stroke="#191970" d="M91.6936,-57.6025C94.5315,-56.9736 97.3836,-56.4214 100.1464,-56 330.0424,-20.9374 1076.1142,-11.952 1250.4683,-10.3097"/>
<polygon fill="#191970" stroke="#191970" points="1250.6905,-13.8079 1260.6579,-10.2161 1250.6261,-6.8082 1250.6905,-13.8079"/>
</g>
<!-- Node24&#45;&gt;Node10 -->
<g id="edge42" class="edge">
<title>Node24&#45;&gt;Node10</title>
<path fill="none" stroke="#191970" d="M180.8172,-58.1657C185.6157,-57.3175 190.4882,-56.5605 195.1464,-56 406.452,-30.575 1085.9249,-14.3873 1250.8345,-10.7707"/>
<polygon fill="#191970" stroke="#191970" points="1251.0208,-14.2676 1260.9422,-10.5507 1250.8684,-7.2692 1251.0208,-14.2676"/>
</g>
<!-- Node25&#45;&gt;Node1 -->
<g id="edge47" class="edge">
<title>Node25&#45;&gt;Node1</title>
<path fill="none" stroke="#191970" d="M319.8108,-280.2088C324.2226,-257.2455 338.35,-199.4925 373.1464,-168 399.2715,-144.3553 437.9639,-132.8093 467.5721,-127.2035"/>
<polygon fill="#191970" stroke="#191970" points="468.3761,-130.6164 477.6305,-125.4583 467.1793,-123.7194 468.3761,-130.6164"/>
</g>
<!-- Node25&#45;&gt;Node10 -->
<g id="edge45" class="edge">
<title>Node25&#45;&gt;Node10</title>
<path fill="none" stroke="#191970" d="M276.7561,-285.7615C221.3272,-279.3434 126.8518,-265.5708 100.1464,-244 30.1648,-187.4737 -37.295,-120.7589 25.1464,-56 46.9996,-33.3358 1046.2092,-14.3 1250.787,-10.6363"/>
<polygon fill="#191970" stroke="#191970" points="1251.0589,-14.1321 1260.995,-10.4544 1250.9342,-7.1332 1251.0589,-14.1321"/>
</g>
<!-- Node25&#45;&gt;Node12 -->
<g id="edge44" class="edge">
<title>Node25&#45;&gt;Node12</title>
<path fill="none" stroke="#191970" d="M317.931,-280.177C317.9848,-257.1451 321.4549,-199.2544 353.1464,-168 393.9076,-127.801 413.7413,-126.4122 469.1464,-112 611.2569,-75.0336 1072.4676,-67.675 1207.6095,-66.2992"/>
<polygon fill="#191970" stroke="#191970" points="1207.893,-69.7967 1217.8587,-66.2001 1207.8253,-62.7971 1207.893,-69.7967"/>
</g>
<!-- Node25&#45;&gt;Node19 -->
<g id="edge46" class="edge">
<title>Node25&#45;&gt;Node19</title>
<path fill="none" stroke="#191970" d="M359.2782,-284.2702C438.4311,-273.2439 610.6641,-249.2513 684.9172,-238.9075"/>
<polygon fill="#191970" stroke="#191970" points="685.7175,-242.3299 695.1389,-237.4836 684.7516,-235.3969 685.7175,-242.3299"/>
</g>
<!-- Node26&#45;&gt;Node6 -->
<g id="edge51" class="edge">
<title>Node26&#45;&gt;Node6</title>
<path fill="none" stroke="#191970" d="M861.6694,-448.4177C834.8103,-439.8947 795.3757,-426.5549 762.1464,-412 664.8962,-369.4031 639.4586,-358.9326 551.1464,-300 518.5802,-278.2679 506.9726,-275.0669 483.1464,-244 472.2816,-229.8334 464.2466,-211.1035 459.2411,-197.2163"/>
<polygon fill="#191970" stroke="#191970" points="462.5377,-196.0392 456.0072,-187.6964 455.9097,-198.2908 462.5377,-196.0392"/>
</g>
<!-- Node26&#45;&gt;Node7 -->
<g id="edge52" class="edge">
<title>Node26&#45;&gt;Node7</title>
<path fill="none" stroke="#191970" d="M943.8675,-449.3112C986.5233,-441.0747 1043.1862,-427.6551 1060.1464,-412 1083.0818,-390.8295 1084.1464,-377.2125 1084.1464,-346 1084.1464,-346 1084.1464,-346 1084.1464,-290 1084.1464,-248.7307 1047.0737,-213.1225 1021.8951,-193.6976"/>
<polygon fill="#191970" stroke="#191970" points="1023.6823,-190.6655 1013.5655,-187.519 1019.512,-196.2877 1023.6823,-190.6655"/>
</g>
<!-- Node26&#45;&gt;Node19 -->
<g id="edge50" class="edge">
<title>Node26&#45;&gt;Node19</title>
<path fill="none" stroke="#191970" d="M893.5719,-448.4688C894.3441,-419.2777 892.6775,-330.0563 847.1464,-280 840.6837,-272.895 790.481,-256.0449 755.1682,-244.8323"/>
<polygon fill="#191970" stroke="#191970" points="755.792,-241.3592 745.2024,-241.6914 753.6878,-248.0355 755.792,-241.3592"/>
</g>
<!-- Node26&#45;&gt;Node21 -->
<g id="edge49" class="edge">
<title>Node26&#45;&gt;Node21</title>
<path fill="none" stroke="#191970" d="M901.8268,-448.2098C922.0046,-424.7148 971.676,-362.4377 989.1464,-300 1005.4123,-241.8668 915.8866,-212.0645 957.1464,-168 998.7775,-123.5389 1443.6623,-139.1844 1504.1464,-132 1509.9966,-131.3051 1516.1536,-130.416 1522.1825,-129.4554"/>
<polygon fill="#191970" stroke="#191970" points="1522.8446,-132.8933 1532.131,-127.7929 1521.6908,-125.9891 1522.8446,-132.8933"/>
</g>
<!-- Node27 -->
<g id="node28" class="node">
<title>Node27</title>
<g id="a_node28"><a xlink:href="mutex_8h.html" target="_top" xlink:title="Mutex for thread synchronization. ">
<polygon fill="#ffffff" stroke="#000000" points="1516.1464,-392.5 1516.1464,-411.5 1572.1464,-411.5 1572.1464,-392.5 1516.1464,-392.5"/>
<text text-anchor="middle" x="1544.1464" y="-399.5" font-family="Helvetica,sans-Serif" font-size="10.00" fill="#000000">mutex.h</text>
</a>
</g>
</g>
<!-- Node26&#45;&gt;Node27 -->
<g id="edge53" class="edge">
<title>Node26&#45;&gt;Node27</title>
<path fill="none" stroke="#191970" d="M943.6876,-453.6524C1069.4341,-442.8355 1394.2569,-414.8937 1505.8413,-405.2951"/>
<polygon fill="#191970" stroke="#191970" points="1506.2971,-408.7689 1515.9603,-404.4246 1505.6971,-401.7946 1506.2971,-408.7689"/>
</g>
<!-- Node41 -->
<g id="node42" class="node">
<title>Node41</title>
<g id="a_node42"><a xlink:href="net_2gnrc_2pkt_8h.html" target="_top" xlink:title="General definitions for network packets and their helper functions. ">
<polygon fill="#ffffff" stroke="#000000" points="894.6464,-280.5 894.6464,-299.5 979.6464,-299.5 979.6464,-280.5 894.6464,-280.5"/>
<text text-anchor="middle" x="937.1464" y="-287.5" font-family="Helvetica,sans-Serif" font-size="10.00" fill="#000000">net/gnrc/pkt.h</text>
</a>
</g>
</g>
<!-- Node26&#45;&gt;Node41 -->
<g id="edge85" class="edge">
<title>Node26&#45;&gt;Node41</title>
<path fill="none" stroke="#191970" d="M895.6381,-448.4862C902.6236,-421.8144 922.5028,-345.9117 931.9882,-309.695"/>
<polygon fill="#191970" stroke="#191970" points="935.4245,-310.3884 934.5724,-299.8279 928.6529,-308.6148 935.4245,-310.3884"/>
</g>
<!-- Node42 -->
<g id="node43" class="node">
<title>Node42</title>
<g id="a_node43"><a xlink:href="nettype_8h.html" target="_top" xlink:title="Protocol type definitions. ">
<polygon fill="#ffffff" stroke="#000000" points="763.6464,-224.5 763.6464,-243.5 870.6464,-243.5 870.6464,-224.5 763.6464,-224.5"/>
<text text-anchor="middle" x="817.1464" y="-231.5" font-family="Helvetica,sans-Serif" font-size="10.00" fill="#000000">net/gnrc/nettype.h</text>
</a>
</g>
</g>
<!-- Node26&#45;&gt;Node42 -->
<g id="edge101" class="edge">
<title>Node26&#45;&gt;Node42</title>
<path fill="none" stroke="#191970" d="M867.4865,-448.4245C831.6295,-433.7972 766.72,-402.5869 729.1464,-356 712.5548,-335.4284 713.657,-326.0408 709.1464,-300 707.6293,-291.2415 704.2448,-287.4153 709.1464,-280 719.5766,-264.2206 736.6396,-253.8364 754.155,-247.0096"/>
<polygon fill="#191970" stroke="#191970" points="755.6289,-250.201 763.8931,-243.5712 753.2983,-243.6004 755.6289,-250.201"/>
</g>
<!-- Node45 -->
<g id="node46" class="node">
<title>Node45</title>
<g id="a_node46"><a xlink:href="neterr_8h.html" target="_top" xlink:title="Error reporting definitions. ">
<polygon fill="#ffffff" stroke="#000000" points="738.1464,-336.5 738.1464,-355.5 838.1464,-355.5 838.1464,-336.5 738.1464,-336.5"/>
<text text-anchor="middle" x="788.1464" y="-343.5" font-family="Helvetica,sans-Serif" font-size="10.00" fill="#000000">net/gnrc/neterr.h</text>
</a>
</g>
</g>
<!-- Node26&#45;&gt;Node45 -->
<g id="edge95" class="edge">
<title>Node26&#45;&gt;Node45</title>
<path fill="none" stroke="#191970" d="M884.1941,-448.4509C866.4489,-429.5227 826.597,-387.014 804.2038,-363.1279"/>
<polygon fill="#191970" stroke="#191970" points="806.4688,-360.4265 797.076,-355.5249 801.362,-365.2141 806.4688,-360.4265"/>
</g>
<!-- Node49 -->
<g id="node50" class="node">
<title>Node49</title>
<g id="a_node50"><a xlink:href="utlist_8h.html" target="_top" xlink:title="Macros for basic linked list operations. ">
<polygon fill="#ffffff" stroke="#000000" points="1752.1464,-112.5 1752.1464,-131.5 1800.1464,-131.5 1800.1464,-112.5 1752.1464,-112.5"/>
<text text-anchor="middle" x="1776.1464" y="-119.5" font-family="Helvetica,sans-Serif" font-size="10.00" fill="#000000">utlist.h</text>
</a>
</g>
</g>
<!-- Node26&#45;&gt;Node49 -->
<g id="edge102" class="edge">
<title>Node26&#45;&gt;Node49</title>
<path fill="none" stroke="#191970" d="M943.7815,-456.1859C1057.8492,-451.7555 1343.5228,-438.7365 1581.1464,-412 1750.1836,-392.9806 1958.1464,-516.1038 1958.1464,-346 1958.1464,-346 1958.1464,-346 1958.1464,-234 1958.1464,-165.3055 1862.9395,-137.391 1810.2457,-127.202"/>
<polygon fill="#191970" stroke="#191970" points="1810.7798,-123.7418 1800.3146,-125.3937 1809.5258,-130.6286 1810.7798,-123.7418"/>
</g>
<!-- Node27&#45;&gt;Node8 -->
<g id="edge62" class="edge">
<title>Node27&#45;&gt;Node8</title>
<path fill="none" stroke="#191970" d="M1515.8028,-397.5022C1492.1326,-392.0884 1459.8169,-380.4574 1444.1464,-356 1412.4001,-306.4527 1431.1706,-232.2004 1442.8935,-197.3575"/>
<polygon fill="#191970" stroke="#191970" points="1446.2106,-198.4752 1446.2417,-187.8804 1439.6104,-196.1434 1446.2106,-198.4752"/>
</g>
<!-- Node27&#45;&gt;Node10 -->
<g id="edge55" class="edge">
<title>Node27&#45;&gt;Node10</title>
<path fill="none" stroke="#191970" d="M1572.1548,-393.1989C1573.8371,-392.768 1575.5102,-392.364 1577.1464,-392 1686.2952,-367.7172 1722.2174,-397.2538 1826.1464,-356 1873.5925,-337.1666 1920.1464,-341.0473 1920.1464,-290 1920.1464,-290 1920.1464,-290 1920.1464,-234 1920.1464,-151.1984 1929.7764,-107.7596 1865.1464,-56 1822.9114,-22.1757 1443.8957,-12.7197 1323.6068,-10.5588"/>
<polygon fill="#191970" stroke="#191970" points="1323.498,-7.0565 1313.4389,-10.3826 1323.3767,-14.0554 1323.498,-7.0565"/>
</g>
<!-- Node27&#45;&gt;Node14 -->
<g id="edge54" class="edge">
<title>Node27&#45;&gt;Node14</title>
<path fill="none" stroke="#191970" d="M1572.3827,-398.8096C1653.6176,-388.8536 1882.1464,-355.0637 1882.1464,-290 1882.1464,-290 1882.1464,-290 1882.1464,-234 1882.1464,-177.2988 1853.922,-114.7741 1838.2836,-84.4824"/>
<polygon fill="#191970" stroke="#191970" points="1841.298,-82.6959 1833.5215,-75.5002 1835.1134,-85.9748 1841.298,-82.6959"/>
</g>
<!-- Node27&#45;&gt;Node21 -->
<g id="edge56" class="edge">
<title>Node27&#45;&gt;Node21</title>
<path fill="none" stroke="#191970" d="M1532.5862,-392.3034C1510.5352,-372.5619 1465.6355,-325.693 1477.1464,-280 1491.0239,-224.9124 1528.2705,-168.1226 1548.5446,-140.0164"/>
<polygon fill="#191970" stroke="#191970" points="1551.608,-141.7584 1554.7113,-131.6282 1545.9681,-137.6121 1551.608,-141.7584"/>
</g>
<!-- Node28 -->
<g id="node29" class="node">
<title>Node28</title>
<g id="a_node29"><a xlink:href="architecture_8h.html" target="_top" xlink:title="Platform&#45;independent access to architecture details. ">
<polygon fill="#ffffff" stroke="#000000" points="1182.6464,-224.5 1182.6464,-243.5 1265.6464,-243.5 1265.6464,-224.5 1182.6464,-224.5"/>
<text text-anchor="middle" x="1224.1464" y="-231.5" font-family="Helvetica,sans-Serif" font-size="10.00" fill="#000000">architecture.h</text>
</a>
</g>
</g>
<!-- Node27&#45;&gt;Node28 -->
<g id="edge57" class="edge">
<title>Node27&#45;&gt;Node28</title>
<path fill="none" stroke="#191970" d="M1516.0531,-395.0256C1487.5397,-387.4023 1442.5354,-373.8544 1406.1464,-356 1343.4033,-325.2149 1276.9771,-275.7794 1244.4713,-250.32"/>
<polygon fill="#191970" stroke="#191970" points="1246.2498,-247.2645 1236.2338,-243.8104 1241.9096,-252.7566 1246.2498,-247.2645"/>
</g>
<!-- Node32 -->
<g id="node33" class="node">
<title>Node32</title>
<g id="a_node33"><a xlink:href="list_8h.html" target="_top" xlink:title="Intrusive linked list. ">
<polygon fill="#ffffff" stroke="#000000" points="1696.1464,-112.5 1696.1464,-131.5 1734.1464,-131.5 1734.1464,-112.5 1696.1464,-112.5"/>
<text text-anchor="middle" x="1715.1464" y="-119.5" font-family="Helvetica,sans-Serif" font-size="10.00" fill="#000000">list.h</text>
</a>
</g>
</g>
<!-- Node27&#45;&gt;Node32 -->
<g id="edge63" class="edge">
<title>Node27&#45;&gt;Node32</title>
<path fill="none" stroke="#191970" d="M1572.3697,-397.6741C1647.0505,-385.4375 1844.1464,-347.6794 1844.1464,-290 1844.1464,-290 1844.1464,-290 1844.1464,-234 1844.1464,-203.4754 1845.4456,-190.7968 1825.1464,-168 1819.4264,-161.5762 1774.7645,-144.103 1744.1389,-132.6362"/>
<polygon fill="#191970" stroke="#191970" points="1744.9602,-129.2075 1734.3674,-129.0023 1742.5203,-135.7685 1744.9602,-129.2075"/>
</g>
<!-- Node33 -->
<g id="node34" class="node">
<title>Node33</title>
<g id="a_node34"><a xlink:href="core_2include_2thread_8h.html" target="_top" xlink:title="Threading API. ">
<polygon fill="#ffffff" stroke="#000000" points="1602.6464,-336.5 1602.6464,-355.5 1659.6464,-355.5 1659.6464,-336.5 1602.6464,-336.5"/>
<text text-anchor="middle" x="1631.1464" y="-343.5" font-family="Helvetica,sans-Serif" font-size="10.00" fill="#000000">thread.h</text>
</a>
</g>
</g>
<!-- Node27&#45;&gt;Node33 -->
<g id="edge64" class="edge">
<title>Node27&#45;&gt;Node33</title>
<path fill="none" stroke="#191970" d="M1559.3006,-392.2455C1572.6491,-383.6534 1592.305,-371.0014 1607.6846,-361.1018"/>
<polygon fill="#191970" stroke="#191970" points="1609.6515,-363.9982 1616.1658,-355.6427 1605.8628,-358.1121 1609.6515,-363.9982"/>
</g>
<!-- Node28&#45;&gt;Node10 -->
<g id="edge58" class="edge">
<title>Node28&#45;&gt;Node10</title>
<path fill="none" stroke="#191970" d="M1202.3805,-224.3857C1188.08,-216.773 1170.5212,-204.6416 1162.1464,-188 1158.1506,-180.0599 1160.3921,-176.7141 1162.1464,-168 1172.8004,-115.0787 1173.6467,-96.6687 1209.1464,-56 1221.1324,-42.2687 1238.2598,-31.54 1253.4134,-23.9106"/>
<polygon fill="#191970" stroke="#191970" points="1255.0114,-27.0263 1262.53,-19.5616 1251.9974,-20.7083 1255.0114,-27.0263"/>
</g>
<!-- Node29 -->
<g id="node30" class="node">
<title>Node29</title>
<g id="a_node30"><a xlink:href="inttypes_8h.html" target="_top" xlink:title="Adds include for missing inttype definitions. ">
<polygon fill="#ffffff" stroke="#000000" points="1050.6464,-168.5 1050.6464,-187.5 1113.6464,-187.5 1113.6464,-168.5 1050.6464,-168.5"/>
<text text-anchor="middle" x="1082.1464" y="-175.5" font-family="Helvetica,sans-Serif" font-size="10.00" fill="#000000">inttypes.h</text>
</a>
</g>
</g>
<!-- Node28&#45;&gt;Node29 -->
<g id="edge59" class="edge">
<title>Node28&#45;&gt;Node29</title>
<path fill="none" stroke="#191970" d="M1199.7357,-224.3733C1176.5321,-215.2226 1141.4426,-201.3844 1115.6321,-191.2057"/>
<polygon fill="#191970" stroke="#191970" points="1116.8253,-187.9139 1106.2385,-187.5011 1114.2572,-194.4258 1116.8253,-187.9139"/>
</g>
<!-- Node30 -->
<g id="node31" class="node">
<title>Node30</title>
<polygon fill="#ffffff" stroke="#bfbfbf" points="1296.1464,-168.5 1296.1464,-187.5 1346.1464,-187.5 1346.1464,-168.5 1296.1464,-168.5"/>
<text text-anchor="middle" x="1321.1464" y="-175.5" font-family="Helvetica,sans-Serif" font-size="10.00" fill="#000000">limits.h</text>
</g>
<!-- Node28&#45;&gt;Node30 -->
<g id="edge60" class="edge">
<title>Node28&#45;&gt;Node30</title>
<path fill="none" stroke="#191970" d="M1241.0425,-224.2455C1256.0644,-215.5731 1278.2507,-202.7645 1295.4674,-192.825"/>
<polygon fill="#191970" stroke="#191970" points="1297.5335,-195.6737 1304.4439,-187.6427 1294.0336,-189.6114 1297.5335,-195.6737"/>
</g>
<!-- Node31 -->
<g id="node32" class="node">
<title>Node31</title>
<polygon fill="#ffffff" stroke="#bfbfbf" points="1170.6464,-168.5 1170.6464,-187.5 1277.6464,-187.5 1277.6464,-168.5 1170.6464,-168.5"/>
<text text-anchor="middle" x="1224.1464" y="-175.5" font-family="Helvetica,sans-Serif" font-size="10.00" fill="#000000">architecture_arch.h</text>
</g>
<!-- Node28&#45;&gt;Node31 -->
<g id="edge61" class="edge">
<title>Node28&#45;&gt;Node31</title>
<path fill="none" stroke="#191970" d="M1224.1464,-224.2455C1224.1464,-216.9382 1224.1464,-206.6944 1224.1464,-197.7046"/>
<polygon fill="#191970" stroke="#191970" points="1227.6465,-197.6426 1224.1464,-187.6427 1220.6465,-197.6427 1227.6465,-197.6426"/>
</g>
<!-- Node34 -->
<g id="node35" class="node">
<title>Node34</title>
<g id="a_node35"><a xlink:href="clist_8h.html" target="_top" xlink:title="Circular linked list. ">
<polygon fill="#ffffff" stroke="#000000" points="1772.6464,-168.5 1772.6464,-187.5 1815.6464,-187.5 1815.6464,-168.5 1772.6464,-168.5"/>
<text text-anchor="middle" x="1794.1464" y="-175.5" font-family="Helvetica,sans-Serif" font-size="10.00" fill="#000000">clist.h</text>
</a>
</g>
</g>
<!-- Node33&#45;&gt;Node34 -->
<g id="edge65" class="edge">
<title>Node33&#45;&gt;Node34</title>
<path fill="none" stroke="#191970" d="M1659.7163,-341.5661C1700.2511,-334.6436 1771.308,-319.9635 1787.1464,-300 1810.4523,-270.624 1804.9129,-223.6556 1799.2497,-197.3907"/>
<polygon fill="#191970" stroke="#191970" points="1802.6192,-196.4314 1796.8988,-187.5136 1795.8094,-198.0522 1802.6192,-196.4314"/>
</g>
<!-- Node35 -->
<g id="node36" class="node">
<title>Node35</title>
<g id="a_node36"><a xlink:href="cib_8h.html" target="_top" xlink:title="Circular integer buffer interface. ">
<polygon fill="#ffffff" stroke="#000000" points="1219.1464,-112.5 1219.1464,-131.5 1257.1464,-131.5 1257.1464,-112.5 1219.1464,-112.5"/>
<text text-anchor="middle" x="1238.1464" y="-119.5" font-family="Helvetica,sans-Serif" font-size="10.00" fill="#000000">cib.h</text>
</a>
</g>
</g>
<!-- Node33&#45;&gt;Node35 -->
<g id="edge69" class="edge">
<title>Node33&#45;&gt;Node35</title>
<path fill="none" stroke="#191970" d="M1602.5867,-342.1258C1570.1758,-336.7177 1516.6889,-324.654 1477.1464,-300 1409.3567,-257.7344 1421.0942,-213.0857 1355.1464,-168 1347.5456,-162.8037 1299.1332,-144.4725 1267.012,-132.5792"/>
<polygon fill="#191970" stroke="#191970" points="1267.8212,-129.1472 1257.2278,-128.9688 1265.3978,-135.7144 1267.8212,-129.1472"/>
</g>
<!-- Node36 -->
<g id="node37" class="node">
<title>Node36</title>
<g id="a_node37"><a xlink:href="core_2include_2msg_8h.html" target="_top" xlink:title="Messaging API for inter process communication. ">
<polygon fill="#ffffff" stroke="#000000" points="1732.6464,-280.5 1732.6464,-299.5 1777.6464,-299.5 1777.6464,-280.5 1732.6464,-280.5"/>
<text text-anchor="middle" x="1755.1464" y="-287.5" font-family="Helvetica,sans-Serif" font-size="10.00" fill="#000000">msg.h</text>
</a>
</g>
</g>
<!-- Node33&#45;&gt;Node36 -->
<g id="edge71" class="edge">
<title>Node33&#45;&gt;Node36</title>
<path fill="none" stroke="#191970" d="M1652.4627,-336.3733C1672.368,-327.3838 1702.29,-313.8706 1724.7064,-303.7471"/>
<polygon fill="#191970" stroke="#191970" points="1726.435,-306.8068 1734.1082,-299.5011 1723.5539,-300.4272 1726.435,-306.8068"/>
</g>
<!-- Node37 -->
<g id="node38" class="node">
<title>Node37</title>
<g id="a_node38"><a xlink:href="sched_8h.html" target="_top" xlink:title="Scheduler API definition. ">
<polygon fill="#ffffff" stroke="#000000" points="1538.6464,-224.5 1538.6464,-243.5 1591.6464,-243.5 1591.6464,-224.5 1538.6464,-224.5"/>
<text text-anchor="middle" x="1565.1464" y="-231.5" font-family="Helvetica,sans-Serif" font-size="10.00" fill="#000000">sched.h</text>
</a>
</g>
</g>
<!-- Node33&#45;&gt;Node37 -->
<g id="edge80" class="edge">
<title>Node33&#45;&gt;Node37</title>
<path fill="none" stroke="#191970" d="M1649.0711,-336.3408C1669.8957,-323.8259 1699.6583,-301.1045 1685.1464,-280 1675.3363,-265.7332 1633.3147,-251.8578 1601.7446,-243.143"/>
<polygon fill="#191970" stroke="#191970" points="1602.4817,-239.7169 1591.9159,-240.5009 1600.6644,-246.477 1602.4817,-239.7169"/>
</g>
<!-- Node39 -->
<g id="node40" class="node">
<title>Node39</title>
<g id="a_node40"><a xlink:href="thread__config_8h.html" target="_top" xlink:title="Thread configuration defines. ">
<polygon fill="#ffffff" stroke="#000000" points="1586.1464,-280.5 1586.1464,-299.5 1676.1464,-299.5 1676.1464,-280.5 1586.1464,-280.5"/>
<text text-anchor="middle" x="1631.1464" y="-287.5" font-family="Helvetica,sans-Serif" font-size="10.00" fill="#000000">thread_config.h</text>
</a>
</g>
</g>
<!-- Node33&#45;&gt;Node39 -->
<g id="edge81" class="edge">
<title>Node33&#45;&gt;Node39</title>
<path fill="none" stroke="#191970" d="M1631.1464,-336.2455C1631.1464,-328.9382 1631.1464,-318.6944 1631.1464,-309.7046"/>
<polygon fill="#191970" stroke="#191970" points="1634.6465,-309.6426 1631.1464,-299.6427 1627.6465,-309.6427 1634.6465,-309.6426"/>
</g>
<!-- Node40 -->
<g id="node41" class="node">
<title>Node40</title>
<polygon fill="#ffffff" stroke="#bfbfbf" points="1486.1464,-280.5 1486.1464,-299.5 1568.1464,-299.5 1568.1464,-280.5 1486.1464,-280.5"/>
<text text-anchor="middle" x="1527.1464" y="-287.5" font-family="Helvetica,sans-Serif" font-size="10.00" fill="#000000">thread_arch.h</text>
</g>
<!-- Node33&#45;&gt;Node40 -->
<g id="edge84" class="edge">
<title>Node33&#45;&gt;Node40</title>
<path fill="none" stroke="#191970" d="M1613.031,-336.2455C1596.7013,-327.4527 1572.4754,-314.4079 1553.9125,-304.4125"/>
<polygon fill="#191970" stroke="#191970" points="1555.5183,-301.3021 1545.0542,-299.6427 1552.1996,-307.4654 1555.5183,-301.3021"/>
</g>
<!-- Node34&#45;&gt;Node14 -->
<g id="edge67" class="edge">
<title>Node34&#45;&gt;Node14</title>
<path fill="none" stroke="#191970" d="M1797.4649,-168.1611C1800.5729,-158.8685 1805.302,-144.5274 1809.1464,-132 1813.9017,-116.5045 1818.9641,-98.8555 1822.6668,-85.7094"/>
<polygon fill="#191970" stroke="#191970" points="1826.0953,-86.4451 1825.4205,-75.8718 1819.3544,-84.5581 1826.0953,-86.4451"/>
</g>
<!-- Node34&#45;&gt;Node21 -->
<g id="edge66" class="edge">
<title>Node34&#45;&gt;Node21</title>
<path fill="none" stroke="#191970" d="M1772.3204,-172.7317C1733.4615,-163.3519 1651.7448,-143.6272 1602.4357,-131.725"/>
<polygon fill="#191970" stroke="#191970" points="1602.9747,-128.2547 1592.4326,-129.3105 1601.3322,-135.0592 1602.9747,-128.2547"/>
</g>
<!-- Node34&#45;&gt;Node32 -->
<g id="edge68" class="edge">
<title>Node34&#45;&gt;Node32</title>
<path fill="none" stroke="#191970" d="M1780.3856,-168.2455C1768.4912,-159.814 1751.0814,-147.4729 1737.2378,-137.6598"/>
<polygon fill="#191970" stroke="#191970" points="1738.9317,-134.5704 1728.7494,-131.6427 1734.8836,-140.2811 1738.9317,-134.5704"/>
</g>
<!-- Node35&#45;&gt;Node12 -->
<g id="edge70" class="edge">
<title>Node35&#45;&gt;Node12</title>
<path fill="none" stroke="#191970" d="M1239.3657,-112.2455C1240.2791,-104.9382 1241.5596,-94.6944 1242.6833,-85.7046"/>
<polygon fill="#191970" stroke="#191970" points="1246.1736,-85.9996 1243.941,-75.6427 1239.2276,-85.1313 1246.1736,-85.9996"/>
</g>
<!-- Node36&#45;&gt;Node10 -->
<g id="edge72" class="edge">
<title>Node36&#45;&gt;Node10</title>
<path fill="none" stroke="#191970" d="M1749.8848,-280.4176C1732.8147,-250.2934 1675.7372,-156.8545 1601.1464,-112 1509.2063,-56.7127 1383.8547,-27.7452 1323.0966,-16.1653"/>
<polygon fill="#191970" stroke="#191970" points="1323.6907,-12.7158 1313.2193,-14.3284 1322.4108,-19.5979 1323.6907,-12.7158"/>
</g>
<!-- Node36&#45;&gt;Node21 -->
<g id="edge73" class="edge">
<title>Node36&#45;&gt;Node21</title>
<path fill="none" stroke="#191970" d="M1732.6123,-284.2047C1702.2824,-275.8962 1650.8756,-259.8475 1640.1464,-244 1621.0773,-215.8343 1666.6986,-197.1352 1649.1464,-168 1638.8061,-150.836 1619.6804,-139.7441 1601.9892,-132.763"/>
<polygon fill="#191970" stroke="#191970" points="1602.9676,-129.3953 1592.3733,-129.2952 1600.5928,-135.9802 1602.9676,-129.3953"/>
</g>
<!-- Node36&#45;&gt;Node37 -->
<g id="edge74" class="edge">
<title>Node36&#45;&gt;Node37</title>
<path fill="none" stroke="#191970" d="M1732.6048,-283.3562C1700.3005,-273.8349 1640.4755,-256.2023 1601.7676,-244.7936"/>
<polygon fill="#191970" stroke="#191970" points="1602.5128,-241.3645 1591.9312,-241.8945 1600.5338,-248.0789 1602.5128,-241.3645"/>
</g>
<!-- Node37&#45;&gt;Node8 -->
<g id="edge77" class="edge">
<title>Node37&#45;&gt;Node8</title>
<path fill="none" stroke="#191970" d="M1545.3772,-224.3733C1526.9995,-215.4241 1499.4151,-201.9917 1478.6571,-191.8835"/>
<polygon fill="#191970" stroke="#191970" points="1480.1807,-188.7325 1469.6576,-187.5011 1477.116,-195.026 1480.1807,-188.7325"/>
</g>
<!-- Node37&#45;&gt;Node14 -->
<g id="edge75" class="edge">
<title>Node37&#45;&gt;Node14</title>
<path fill="none" stroke="#191970" d="M1585.8352,-224.4398C1607.4854,-214.1327 1639.6298,-197.879 1649.1464,-188 1675.3465,-160.8021 1658.5379,-136.6521 1687.1464,-112 1716.2377,-86.9318 1759.2884,-75.4597 1790.1599,-70.2502"/>
<polygon fill="#191970" stroke="#191970" points="1790.7753,-73.6967 1800.1247,-68.713 1789.708,-66.7786 1790.7753,-73.6967"/>
</g>
<!-- Node37&#45;&gt;Node29 -->
<g id="edge76" class="edge">
<title>Node37&#45;&gt;Node29</title>
<path fill="none" stroke="#191970" d="M1538.2523,-231.0308C1473.4864,-223.8586 1303.7375,-204.9298 1162.1464,-188 1149.6599,-186.507 1136.0844,-184.8303 1123.7221,-183.2827"/>
<polygon fill="#191970" stroke="#191970" points="1124.0321,-179.7942 1113.6737,-182.0199 1123.1592,-186.7396 1124.0321,-179.7942"/>
</g>
<!-- Node37&#45;&gt;Node34 -->
<g id="edge79" class="edge">
<title>Node37&#45;&gt;Node34</title>
<path fill="none" stroke="#191970" d="M1591.8638,-227.4665C1634.3333,-217.0809 1717.0703,-196.8483 1762.463,-185.7479"/>
<polygon fill="#191970" stroke="#191970" points="1763.4718,-189.1044 1772.3541,-183.3291 1761.8089,-182.3048 1763.4718,-189.1044"/>
</g>
<!-- Node38 -->
<g id="node39" class="node">
<title>Node38</title>
<g id="a_node39"><a xlink:href="native__sched_8h.html" target="_top" xlink:title="Add definitions required on the native board. ">
<polygon fill="#ffffff" stroke="#000000" points="1554.1464,-168.5 1554.1464,-187.5 1640.1464,-187.5 1640.1464,-168.5 1554.1464,-168.5"/>
<text text-anchor="middle" x="1597.1464" y="-175.5" font-family="Helvetica,sans-Serif" font-size="10.00" fill="#000000">native_sched.h</text>
</a>
</g>
</g>
<!-- Node37&#45;&gt;Node38 -->
<g id="edge78" class="edge">
<title>Node37&#45;&gt;Node38</title>
<path fill="none" stroke="#191970" d="M1570.7204,-224.2455C1575.0795,-216.617 1581.2674,-205.7881 1586.5597,-196.5267"/>
<polygon fill="#191970" stroke="#191970" points="1589.7137,-198.0616 1591.6363,-187.6427 1583.636,-194.5886 1589.7137,-198.0616"/>
</g>
<!-- Node39&#45;&gt;Node7 -->
<g id="edge82" class="edge">
<title>Node39&#45;&gt;Node7</title>
<path fill="none" stroke="#191970" d="M1586.1163,-281.3338C1583.0857,-280.8516 1580.0747,-280.401 1577.1464,-280 1398.985,-255.601 1349.4433,-284.0973 1174.1464,-244 1121.1369,-231.8747 1062.5921,-207.3692 1028.4391,-191.87"/>
<polygon fill="#191970" stroke="#191970" points="1029.6151,-188.5586 1019.067,-187.564 1026.6926,-194.9194 1029.6151,-188.5586"/>
</g>
<!-- Node39&#45;&gt;Node37 -->
<g id="edge83" class="edge">
<title>Node39&#45;&gt;Node37</title>
<path fill="none" stroke="#191970" d="M1619.6501,-280.2455C1609.9022,-271.9746 1595.7204,-259.9416 1584.2666,-250.2232"/>
<polygon fill="#191970" stroke="#191970" points="1586.4005,-247.4437 1576.511,-243.6427 1581.8716,-252.7813 1586.4005,-247.4437"/>
</g>
<!-- Node41&#45;&gt;Node19 -->
<g id="edge87" class="edge">
<title>Node41&#45;&gt;Node19</title>
<path fill="none" stroke="#191970" d="M898.0031,-280.4756C861.0849,-271.4053 804.2408,-257.2144 755.1464,-244 755.0472,-243.9733 754.9479,-243.9466 754.8484,-243.9197"/>
<polygon fill="#191970" stroke="#191970" points="755.9263,-240.5864 745.3557,-241.3027 754.0658,-247.3346 755.9263,-240.5864"/>
</g>
<!-- Node41&#45;&gt;Node29 -->
<g id="edge86" class="edge">
<title>Node41&#45;&gt;Node29</title>
<path fill="none" stroke="#191970" d="M949.509,-280.4509C974.4423,-261.1921 1030.9797,-217.5218 1061.57,-193.8935"/>
<polygon fill="#191970" stroke="#191970" points="1064.0405,-196.4078 1069.8151,-187.5249 1059.7614,-190.8679 1064.0405,-196.4078"/>
</g>
<!-- Node41&#45;&gt;Node32 -->
<g id="edge94" class="edge">
<title>Node41&#45;&gt;Node32</title>
<path fill="none" stroke="#191970" d="M935.196,-280.2225C931.1518,-256.7723 924.7391,-197.1231 957.1464,-168 1010.4517,-120.0966 1529.6631,-137.1319 1601.1464,-132 1629.8867,-129.9367 1662.6514,-127.0017 1685.6563,-124.8449"/>
<polygon fill="#191970" stroke="#191970" points="1686.1714,-128.3119 1695.7971,-123.8853 1685.5118,-121.343 1686.1714,-128.3119"/>
</g>
<!-- Node41&#45;&gt;Node37 -->
<g id="edge88" class="edge">
<title>Node41&#45;&gt;Node37</title>
<path fill="none" stroke="#191970" d="M979.722,-282.0836C984.577,-281.3139 989.4624,-280.5982 994.1464,-280 1195.0856,-254.3367 1437.7447,-240.3908 1528.5302,-235.7627"/>
<polygon fill="#191970" stroke="#191970" points="1528.7761,-239.2548 1538.5876,-235.2566 1528.4243,-232.2637 1528.7761,-239.2548"/>
</g>
<!-- Node41&#45;&gt;Node42 -->
<g id="edge89" class="edge">
<title>Node41&#45;&gt;Node42</title>
<path fill="none" stroke="#191970" d="M916.5176,-280.3733C897.2545,-271.3838 868.2978,-257.8706 846.6045,-247.7471"/>
<polygon fill="#191970" stroke="#191970" points="848.0479,-244.5584 837.5059,-243.5011 845.0876,-250.9017 848.0479,-244.5584"/>
</g>
<!-- Node42&#45;&gt;Node1 -->
<g id="edge91" class="edge">
<title>Node42&#45;&gt;Node1</title>
<path fill="none" stroke="#191970" d="M782.02,-224.4256C751.1962,-215.7576 705.305,-202.2041 666.1464,-188 621.7438,-171.8937 571.65,-150.0174 540.4853,-135.9516"/>
<polygon fill="#191970" stroke="#191970" points="541.6159,-132.6212 531.0632,-131.6764 538.7235,-138.9957 541.6159,-132.6212"/>
</g>
<!-- Node42&#45;&gt;Node29 -->
<g id="edge90" class="edge">
<title>Node42&#45;&gt;Node29</title>
<path fill="none" stroke="#191970" d="M866.8799,-224.4744C910.3301,-216.0074 975.3444,-202.9909 1040.2994,-188.3595"/>
<polygon fill="#191970" stroke="#191970" points="1041.3199,-191.7171 1050.2993,-186.0938 1039.7731,-184.8901 1041.3199,-191.7171"/>
</g>
<!-- Node43 -->
<g id="node44" class="node">
<title>Node43</title>
<g id="a_node44"><a xlink:href="ethertype_8h.html" target="_top" xlink:title="Ether type definitions. ">
<polygon fill="#ffffff" stroke="#000000" points="675.1464,-168.5 675.1464,-187.5 767.1464,-187.5 767.1464,-168.5 675.1464,-168.5"/>
<text text-anchor="middle" x="721.1464" y="-175.5" font-family="Helvetica,sans-Serif" font-size="10.00" fill="#000000">net/ethertype.h</text>
</a>
</g>
</g>
<!-- Node42&#45;&gt;Node43 -->
<g id="edge92" class="edge">
<title>Node42&#45;&gt;Node43</title>
<path fill="none" stroke="#191970" d="M800.4245,-224.2455C785.5574,-215.5731 763.5998,-202.7645 746.5606,-192.825"/>
<polygon fill="#191970" stroke="#191970" points="748.078,-189.6582 737.6767,-187.6427 744.5509,-195.7047 748.078,-189.6582"/>
</g>
<!-- Node44 -->
<g id="node45" class="node">
<title>Node44</title>
<g id="a_node45"><a xlink:href="protnum_8h.html" target="_top" xlink:title="Protocol number definitions. ">
<polygon fill="#ffffff" stroke="#000000" points="785.1464,-168.5 785.1464,-187.5 871.1464,-187.5 871.1464,-168.5 785.1464,-168.5"/>
<text text-anchor="middle" x="828.1464" y="-175.5" font-family="Helvetica,sans-Serif" font-size="10.00" fill="#000000">net/protnum.h</text>
</a>
</g>
</g>
<!-- Node42&#45;&gt;Node44 -->
<g id="edge93" class="edge">
<title>Node42&#45;&gt;Node44</title>
<path fill="none" stroke="#191970" d="M819.0624,-224.2455C820.4978,-216.9382 822.51,-206.6944 824.2758,-197.7046"/>
<polygon fill="#191970" stroke="#191970" points="827.7591,-198.1298 826.2523,-187.6427 820.8904,-196.7805 827.7591,-198.1298"/>
</g>
<!-- Node45&#45;&gt;Node10 -->
<g id="edge97" class="edge">
<title>Node45&#45;&gt;Node10</title>
<path fill="none" stroke="#191970" d="M762.8056,-336.3813C745.6816,-328.7665 723.6365,-316.6345 709.1464,-300 668.6192,-253.4751 628.2762,-216.712 666.1464,-168 739.6342,-73.4735 1128.5877,-26.2029 1250.5426,-13.5499"/>
<polygon fill="#191970" stroke="#191970" points="1251.2465,-16.9963 1260.8392,-12.4985 1250.5353,-10.0325 1251.2465,-16.9963"/>
</g>
<!-- Node45&#45;&gt;Node41 -->
<g id="edge99" class="edge">
<title>Node45&#45;&gt;Node41</title>
<path fill="none" stroke="#191970" d="M813.7604,-336.3733C838.2151,-327.1822 875.2518,-313.2624 902.3673,-303.0713"/>
<polygon fill="#191970" stroke="#191970" points="903.7373,-306.2956 911.8666,-299.5011 901.2745,-299.7431 903.7373,-306.2956"/>
</g>
<!-- Node46 -->
<g id="node47" class="node">
<title>Node46</title>
<g id="a_node47"><a xlink:href="errno_8h.html" target="_top" xlink:title="errno.h">
<polygon fill="#ffffff" stroke="#000000" points="1648.6464,-224.5 1648.6464,-243.5 1701.6464,-243.5 1701.6464,-224.5 1648.6464,-224.5"/>
<text text-anchor="middle" x="1675.1464" y="-231.5" font-family="Helvetica,sans-Serif" font-size="10.00" fill="#000000">errno.h</text>
</a>
</g>
</g>
<!-- Node45&#45;&gt;Node46 -->
<g id="edge96" class="edge">
<title>Node45&#45;&gt;Node46</title>
<path fill="none" stroke="#191970" d="M838.592,-339.8403C966.2865,-324.2114 1312.6787,-281.586 1601.1464,-244 1613.2766,-242.4195 1626.5182,-240.6455 1638.404,-239.0354"/>
<polygon fill="#191970" stroke="#191970" points="1639.0004,-242.4866 1648.4379,-237.6716 1638.0576,-235.5504 1639.0004,-242.4866"/>
</g>
<!-- Node47 -->
<g id="node48" class="node">
<title>Node47</title>
<polygon fill="#ffffff" stroke="#bfbfbf" points="792.6464,-280.5 792.6464,-299.5 837.6464,-299.5 837.6464,-280.5 792.6464,-280.5"/>
<text text-anchor="middle" x="815.1464" y="-287.5" font-family="Helvetica,sans-Serif" font-size="10.00" fill="#000000">msg.h</text>
</g>
<!-- Node45&#45;&gt;Node47 -->
<g id="edge98" class="edge">
<title>Node45&#45;&gt;Node47</title>
<path fill="none" stroke="#191970" d="M792.8494,-336.2455C796.4887,-328.6973 801.6388,-318.0158 806.0726,-308.8197"/>
<polygon fill="#191970" stroke="#191970" points="809.3069,-310.1704 810.4972,-299.6427 803.0015,-307.1303 809.3069,-310.1704"/>
</g>
<!-- Node48 -->
<g id="node49" class="node">
<title>Node48</title>
<polygon fill="#ffffff" stroke="#bfbfbf" points="717.6464,-280.5 717.6464,-299.5 774.6464,-299.5 774.6464,-280.5 717.6464,-280.5"/>
<text text-anchor="middle" x="746.1464" y="-287.5" font-family="Helvetica,sans-Serif" font-size="10.00" fill="#000000">thread.h</text>
</g>
<!-- Node45&#45;&gt;Node48 -->
<g id="edge100" class="edge">
<title>Node45&#45;&gt;Node48</title>
<path fill="none" stroke="#191970" d="M780.8305,-336.2455C774.9285,-328.3761 766.4721,-317.101 759.387,-307.6542"/>
<polygon fill="#191970" stroke="#191970" points="762.1784,-305.5427 753.3784,-299.6427 756.5784,-309.7427 762.1784,-305.5427"/>
</g>
<!-- Node49&#45;&gt;Node12 -->
<g id="edge104" class="edge">
<title>Node49&#45;&gt;Node12</title>
<path fill="none" stroke="#191970" d="M1752.1398,-114.0999C1749.1347,-113.2965 1746.0851,-112.5686 1743.1464,-112 1564.4231,-77.4202 1516.2869,-94.0525 1335.1464,-76 1317.8222,-74.2735 1298.6447,-72.1694 1282.4591,-70.3375"/>
<polygon fill="#191970" stroke="#191970" points="1282.6366,-66.8351 1272.3045,-69.1796 1281.8436,-73.7901 1282.6366,-66.8351"/>
</g>
<!-- Node49&#45;&gt;Node14 -->
<g id="edge103" class="edge">
<title>Node49&#45;&gt;Node14</title>
<path fill="none" stroke="#191970" d="M1785.2041,-112.2455C1792.6605,-104.2155 1803.4098,-92.6394 1812.2881,-83.0781"/>
<polygon fill="#191970" stroke="#191970" points="1814.9527,-85.3522 1819.1925,-75.6427 1809.8231,-80.589 1814.9527,-85.3522"/>
</g>
<!-- Node50&#45;&gt;Node8 -->
<g id="edge112" class="edge">
<title>Node50&#45;&gt;Node8</title>
<path fill="none" stroke="#191970" d="M1986.5564,-281.4639C1927.4005,-268.4748 1810.6896,-243.2282 1711.1464,-224 1641.3317,-210.5143 1560.6938,-196.5472 1507.7418,-187.5943"/>
<polygon fill="#191970" stroke="#191970" points="1508.3019,-184.1394 1497.859,-185.9272 1507.1375,-191.0419 1508.3019,-184.1394"/>
</g>
<!-- Node50&#45;&gt;Node10 -->
<g id="edge106" class="edge">
<title>Node50&#45;&gt;Node10</title>
<path fill="none" stroke="#191970" d="M2034.0285,-280.2733C2051.689,-259.704 2088.2617,-210.2146 2073.1464,-168 2051.4309,-107.3521 2038.4433,-85.4413 1981.1464,-56 1922.4566,-25.8431 1458.0448,-13.6487 1323.533,-10.7282"/>
<polygon fill="#191970" stroke="#191970" points="1323.4175,-7.225 1313.3452,-10.5111 1323.2683,-14.2234 1323.4175,-7.225"/>
</g>
<!-- Node50&#45;&gt;Node15 -->
<g id="edge108" class="edge">
<title>Node50&#45;&gt;Node15</title>
<path fill="none" stroke="#191970" d="M2045.6032,-280.3733C2064.6201,-271.4241 2093.1639,-257.9917 2114.644,-247.8835"/>
<polygon fill="#191970" stroke="#191970" points="2116.3986,-250.926 2123.9565,-243.5011 2113.418,-244.5923 2116.3986,-250.926"/>
</g>
<!-- Node50&#45;&gt;Node46 -->
<g id="edge107" class="edge">
<title>Node50&#45;&gt;Node46</title>
<path fill="none" stroke="#191970" d="M1986.4139,-285.3898C1927.6939,-278.1403 1812.7493,-262.9302 1716.1464,-244 1714.7084,-243.7182 1713.2448,-243.4194 1711.7685,-243.108"/>
<polygon fill="#191970" stroke="#191970" points="1712.498,-239.6848 1701.975,-240.9158 1710.9689,-246.5157 1712.498,-239.6848"/>
</g>
<!-- Node51 -->
<g id="node52" class="node">
<title>Node51</title>
<g id="a_node52"><a xlink:href="netopt_8h.html" target="_top" xlink:title="Definition of global configuration options. ">
<polygon fill="#ffffff" stroke="#000000" points="1986.6464,-168.5 1986.6464,-187.5 2063.6464,-187.5 2063.6464,-168.5 1986.6464,-168.5"/>
<text text-anchor="middle" x="2025.1464" y="-175.5" font-family="Helvetica,sans-Serif" font-size="10.00" fill="#000000">net/netopt.h</text>
</a>
</g>
</g>
<!-- Node50&#45;&gt;Node51 -->
<g id="edge109" class="edge">
<title>Node50&#45;&gt;Node51</title>
<path fill="none" stroke="#191970" d="M2025.1464,-280.4509C2025.1464,-262.184 2025.1464,-221.9553 2025.1464,-197.6976"/>
<polygon fill="#191970" stroke="#191970" points="2028.6465,-197.5249 2025.1464,-187.5249 2021.6465,-197.5249 2028.6465,-197.5249"/>
</g>
<!-- Node51&#45;&gt;Node10 -->
<g id="edge110" class="edge">
<title>Node51&#45;&gt;Node10</title>
<path fill="none" stroke="#191970" d="M2022.9603,-168.22C2017.0227,-144.2236 1998.1419,-82.4675 1956.1464,-56 1902.4995,-22.1893 1455.5926,-12.6104 1323.6705,-10.5072"/>
<polygon fill="#191970" stroke="#191970" points="1323.36,-7.002 1313.3071,-10.3471 1323.2518,-14.0012 1323.36,-7.002"/>
</g>
<!-- Node51&#45;&gt;Node21 -->
<g id="edge111" class="edge">
<title>Node51&#45;&gt;Node21</title>
<path fill="none" stroke="#191970" d="M1986.4676,-173.3218C1899.7954,-162.8388 1690.7191,-137.5509 1602.4968,-126.8804"/>
<polygon fill="#191970" stroke="#191970" points="1602.7014,-123.3797 1592.3535,-125.6536 1601.8608,-130.3291 1602.7014,-123.3797"/>
</g>
</g>
</svg>
