<?xml version="1.0" encoding="UTF-8" standalone="no"?>
<!DOCTYPE svg PUBLIC "-//W3C//DTD SVG 1.1//EN"
 "http://www.w3.org/Graphics/SVG/1.1/DTD/svg11.dtd">
<!-- Generated by graphviz version 2.40.1 (0)
 -->
<!-- Title: sys/include/net/dhcpv6/relay.h Pages: 1 -->
<svg width="133pt" height="95pt"
 viewBox="0.00 0.00 133.00 95.00" xmlns="http://www.w3.org/2000/svg" xmlns:xlink="http://www.w3.org/1999/xlink">
<g id="graph0" class="graph" transform="scale(1 1) rotate(0) translate(4 91)">
<title>sys/include/net/dhcpv6/relay.h</title>
<polygon fill="#ffffff" stroke="transparent" points="-4,4 -4,-91 129,-91 129,4 -4,4"/>
<!-- Node0 -->
<g id="node1" class="node">
<title>Node0</title>
<polygon fill="#bfbfbf" stroke="#000000" points="0,-56.5 0,-86.5 125,-86.5 125,-56.5 0,-56.5"/>
<text text-anchor="start" x="8" y="-74.5" font-family="Helvetica,sans-Serif" font-size="10.00" fill="#000000">sys/include/net/dhcpv6</text>
<text text-anchor="middle" x="62.5" y="-63.5" font-family="Helvetica,sans-Serif" font-size="10.00" fill="#000000">/relay.h</text>
</g>
<!-- Node1 -->
<g id="node2" class="node">
<title>Node1</title>
<polygon fill="#ffffff" stroke="#bfbfbf" points="1.5,-.5 1.5,-19.5 53.5,-19.5 53.5,-.5 1.5,-.5"/>
<text text-anchor="middle" x="27.5" y="-7.5" font-family="Helvetica,sans-Serif" font-size="10.00" fill="#000000">stdint.h</text>
</g>
<!-- Node0&#45;&gt;Node1 -->
<g id="edge1" class="edge">
<title>Node0&#45;&gt;Node1</title>
<path fill="none" stroke="#191970" d="M53.8483,-56.2977C49.0912,-47.9388 43.1502,-37.4997 38.1143,-28.6509"/>
<polygon fill="#191970" stroke="#191970" points="41.0921,-26.8069 33.1039,-19.8469 35.0083,-30.2692 41.0921,-26.8069"/>
</g>
<!-- Node2 -->
<g id="node3" class="node">
<title>Node2</title>
<polygon fill="#ffffff" stroke="#bfbfbf" points="72,-.5 72,-19.5 125,-19.5 125,-.5 72,-.5"/>
<text text-anchor="middle" x="98.5" y="-7.5" font-family="Helvetica,sans-Serif" font-size="10.00" fill="#000000">event.h</text>
</g>
<!-- Node0&#45;&gt;Node2 -->
<g id="edge2" class="edge">
<title>Node0&#45;&gt;Node2</title>
<path fill="none" stroke="#191970" d="M71.3989,-56.2977C76.2919,-47.9388 82.4026,-37.4997 87.5824,-28.6509"/>
<polygon fill="#191970" stroke="#191970" points="90.7047,-30.2452 92.7359,-19.8469 84.6635,-26.7089 90.7047,-30.2452"/>
</g>
</g>
</svg>
