<?xml version="1.0" encoding="UTF-8" standalone="no"?>
<!DOCTYPE svg PUBLIC "-//W3C//DTD SVG 1.1//EN"
 "http://www.w3.org/Graphics/SVG/1.1/DTD/svg11.dtd">
<!-- Generated by graphviz version 2.40.1 (0)
 -->
<!-- Title: boards/remote&#45;pa/include/board.h Pages: 1 -->
<svg width="171pt" height="95pt"
 viewBox="0.00 0.00 170.50 95.00" xmlns="http://www.w3.org/2000/svg" xmlns:xlink="http://www.w3.org/1999/xlink">
<g id="graph0" class="graph" transform="scale(1 1) rotate(0) translate(4 91)">
<title>boards/remote&#45;pa/include/board.h</title>
<polygon fill="#ffffff" stroke="transparent" points="-4,4 -4,-91 166.5,-91 166.5,4 -4,4"/>
<!-- Node0 -->
<g id="node1" class="node">
<title>Node0</title>
<polygon fill="#bfbfbf" stroke="#000000" points="0,-56.5 0,-86.5 139,-86.5 139,-56.5 0,-56.5"/>
<text text-anchor="start" x="8" y="-74.5" font-family="Helvetica,sans-Serif" font-size="10.00" fill="#000000">boards/remote&#45;pa/include</text>
<text text-anchor="middle" x="69.5" y="-63.5" font-family="Helvetica,sans-Serif" font-size="10.00" fill="#000000">/board.h</text>
</g>
<!-- Node1 -->
<g id="node2" class="node">
<title>Node1</title>
<polygon fill="#ffffff" stroke="#bfbfbf" points="4.5,-.5 4.5,-19.5 46.5,-19.5 46.5,-.5 4.5,-.5"/>
<text text-anchor="middle" x="25.5" y="-7.5" font-family="Helvetica,sans-Serif" font-size="10.00" fill="#000000">cpu.h</text>
</g>
<!-- Node0&#45;&gt;Node1 -->
<g id="edge1" class="edge">
<title>Node0&#45;&gt;Node1</title>
<path fill="none" stroke="#191970" d="M58.6236,-56.2977C52.5159,-47.7609 44.8561,-37.0545 38.4412,-28.0883"/>
<polygon fill="#191970" stroke="#191970" points="41.2101,-25.9433 32.545,-19.8469 35.5171,-30.0163 41.2101,-25.9433"/>
</g>
<!-- Node2 -->
<g id="node3" class="node">
<title>Node2</title>
<polygon fill="#ffffff" stroke="#bfbfbf" points="64.5,-.5 64.5,-19.5 162.5,-19.5 162.5,-.5 64.5,-.5"/>
<text text-anchor="middle" x="113.5" y="-7.5" font-family="Helvetica,sans-Serif" font-size="10.00" fill="#000000">board_common.h</text>
</g>
<!-- Node0&#45;&gt;Node2 -->
<g id="edge2" class="edge">
<title>Node0&#45;&gt;Node2</title>
<path fill="none" stroke="#191970" d="M80.3764,-56.2977C86.4841,-47.7609 94.1439,-37.0545 100.5588,-28.0883"/>
<polygon fill="#191970" stroke="#191970" points="103.4829,-30.0163 106.455,-19.8469 97.7899,-25.9433 103.4829,-30.0163"/>
</g>
</g>
</svg>
