<?xml version="1.0" encoding="UTF-8" standalone="no"?>
<!DOCTYPE svg PUBLIC "-//W3C//DTD SVG 1.1//EN"
 "http://www.w3.org/Graphics/SVG/1.1/DTD/svg11.dtd">
<!-- Generated by graphviz version 2.40.1 (0)
 -->
<!-- Title: boards/common/remote/include/board_common.h Pages: 1 -->
<svg width="787pt" height="319pt"
 viewBox="0.00 0.00 787.00 319.00" xmlns="http://www.w3.org/2000/svg" xmlns:xlink="http://www.w3.org/1999/xlink">
<g id="graph0" class="graph" transform="scale(1 1) rotate(0) translate(4 315)">
<title>boards/common/remote/include/board_common.h</title>
<polygon fill="#ffffff" stroke="transparent" points="-4,4 -4,-315 783,-315 783,4 -4,4"/>
<!-- Node0 -->
<g id="node1" class="node">
<title>Node0</title>
<polygon fill="#bfbfbf" stroke="#000000" points="187,-280.5 187,-310.5 326,-310.5 326,-280.5 187,-280.5"/>
<text text-anchor="start" x="195" y="-298.5" font-family="Helvetica,sans-Serif" font-size="10.00" fill="#000000">boards/common/remote</text>
<text text-anchor="middle" x="256.5" y="-287.5" font-family="Helvetica,sans-Serif" font-size="10.00" fill="#000000">/include/board_common.h</text>
</g>
<!-- Node1 -->
<g id="node2" class="node">
<title>Node1</title>
<polygon fill="#ffffff" stroke="#bfbfbf" points="154.5,-224.5 154.5,-243.5 196.5,-243.5 196.5,-224.5 154.5,-224.5"/>
<text text-anchor="middle" x="175.5" y="-231.5" font-family="Helvetica,sans-Serif" font-size="10.00" fill="#000000">cpu.h</text>
</g>
<!-- Node0&#45;&gt;Node1 -->
<g id="edge1" class="edge">
<title>Node0&#45;&gt;Node1</title>
<path fill="none" stroke="#191970" d="M236.4775,-280.2977C224.414,-271.1384 209.0612,-259.4816 196.7789,-250.1562"/>
<polygon fill="#191970" stroke="#191970" points="198.5501,-247.1065 188.4691,-243.8469 194.3171,-252.6816 198.5501,-247.1065"/>
</g>
<!-- Node2 -->
<g id="node3" class="node">
<title>Node2</title>
<g id="a_node3"><a xlink:href="drivers_2include_2periph_2gpio_8h.html" target="_top" xlink:title="Low&#45;level GPIO peripheral driver interface definitions. ">
<polygon fill="#ffffff" stroke="#000000" points="88.5,-168.5 88.5,-187.5 168.5,-187.5 168.5,-168.5 88.5,-168.5"/>
<text text-anchor="middle" x="128.5" y="-175.5" font-family="Helvetica,sans-Serif" font-size="10.00" fill="#000000">periph/gpio.h</text>
</a>
</g>
</g>
<!-- Node0&#45;&gt;Node2 -->
<g id="edge2" class="edge">
<title>Node0&#45;&gt;Node2</title>
<path fill="none" stroke="#191970" d="M248.2664,-280.4317C239.259,-264.9286 223.6596,-240.7439 205.5,-224 191.6584,-211.2375 173.7159,-200.2696 158.6335,-192.2479"/>
<polygon fill="#191970" stroke="#191970" points="160.1686,-189.1016 149.6745,-187.6442 156.9692,-195.3278 160.1686,-189.1016"/>
</g>
<!-- Node7 -->
<g id="node8" class="node">
<title>Node7</title>
<g id="a_node8"><a xlink:href="spi_8h.html" target="_top" xlink:title="Low&#45;level SPI peripheral driver interface definition. ">
<polygon fill="#ffffff" stroke="#000000" points="253,-224.5 253,-243.5 326,-243.5 326,-224.5 253,-224.5"/>
<text text-anchor="middle" x="289.5" y="-231.5" font-family="Helvetica,sans-Serif" font-size="10.00" fill="#000000">periph/spi.h</text>
</a>
</g>
</g>
<!-- Node0&#45;&gt;Node7 -->
<g id="edge7" class="edge">
<title>Node0&#45;&gt;Node7</title>
<path fill="none" stroke="#191970" d="M264.6573,-280.2977C269.0949,-272.0277 274.625,-261.7215 279.3404,-252.9339"/>
<polygon fill="#191970" stroke="#191970" points="282.5721,-254.3134 284.2163,-243.8469 276.404,-251.0037 282.5721,-254.3134"/>
</g>
<!-- Node12 -->
<g id="node13" class="node">
<title>Node12</title>
<g id="a_node13"><a xlink:href="cc2538__eui__primary_8h.html" target="_top" xlink:title="CC2538 EUI&#45;64 provider. ">
<polygon fill="#ffffff" stroke="#000000" points="412.5,-224.5 412.5,-243.5 530.5,-243.5 530.5,-224.5 412.5,-224.5"/>
<text text-anchor="middle" x="471.5" y="-231.5" font-family="Helvetica,sans-Serif" font-size="10.00" fill="#000000">cc2538_eui_primary.h</text>
</a>
</g>
</g>
<!-- Node0&#45;&gt;Node12 -->
<g id="edge17" class="edge">
<title>Node0&#45;&gt;Node12</title>
<path fill="none" stroke="#191970" d="M309.0949,-280.4554C345.7549,-269.9689 394.06,-256.1515 428.4348,-246.3187"/>
<polygon fill="#191970" stroke="#191970" points="429.5308,-249.6456 438.1826,-243.5303 427.6056,-242.9155 429.5308,-249.6456"/>
</g>
<!-- Node3 -->
<g id="node4" class="node">
<title>Node3</title>
<polygon fill="#ffffff" stroke="#bfbfbf" points="99.5,-112.5 99.5,-131.5 149.5,-131.5 149.5,-112.5 99.5,-112.5"/>
<text text-anchor="middle" x="124.5" y="-119.5" font-family="Helvetica,sans-Serif" font-size="10.00" fill="#000000">limits.h</text>
</g>
<!-- Node2&#45;&gt;Node3 -->
<g id="edge3" class="edge">
<title>Node2&#45;&gt;Node3</title>
<path fill="none" stroke="#191970" d="M127.8033,-168.2455C127.2813,-160.9382 126.5496,-150.6944 125.9075,-141.7046"/>
<polygon fill="#191970" stroke="#191970" points="129.3924,-141.3679 125.1888,-131.6427 122.4102,-141.8667 129.3924,-141.3679"/>
</g>
<!-- Node4 -->
<g id="node5" class="node">
<title>Node4</title>
<polygon fill="#ffffff" stroke="#bfbfbf" points="167.5,-112.5 167.5,-131.5 227.5,-131.5 227.5,-112.5 167.5,-112.5"/>
<text text-anchor="middle" x="197.5" y="-119.5" font-family="Helvetica,sans-Serif" font-size="10.00" fill="#000000">stdbool.h</text>
</g>
<!-- Node2&#45;&gt;Node4 -->
<g id="edge4" class="edge">
<title>Node2&#45;&gt;Node4</title>
<path fill="none" stroke="#191970" d="M140.5189,-168.2455C150.7098,-159.9746 165.5362,-147.9416 177.5107,-138.2232"/>
<polygon fill="#191970" stroke="#191970" points="180.0598,-140.662 185.6188,-131.6427 175.6486,-135.2268 180.0598,-140.662"/>
</g>
<!-- Node5 -->
<g id="node6" class="node">
<title>Node5</title>
<polygon fill="#ffffff" stroke="#bfbfbf" points="246,-112.5 246,-131.5 323,-131.5 323,-112.5 246,-112.5"/>
<text text-anchor="middle" x="284.5" y="-119.5" font-family="Helvetica,sans-Serif" font-size="10.00" fill="#000000">periph_cpu.h</text>
</g>
<!-- Node2&#45;&gt;Node5 -->
<g id="edge5" class="edge">
<title>Node2&#45;&gt;Node5</title>
<path fill="none" stroke="#191970" d="M155.3174,-168.3733C181.0332,-159.1419 220.038,-145.1402 248.4599,-134.9375"/>
<polygon fill="#191970" stroke="#191970" points="249.8032,-138.174 258.0326,-131.5011 247.4381,-131.5857 249.8032,-138.174"/>
</g>
<!-- Node6 -->
<g id="node7" class="node">
<title>Node6</title>
<polygon fill="#ffffff" stroke="#bfbfbf" points="0,-112.5 0,-131.5 81,-131.5 81,-112.5 0,-112.5"/>
<text text-anchor="middle" x="40.5" y="-119.5" font-family="Helvetica,sans-Serif" font-size="10.00" fill="#000000">periph_conf.h</text>
</g>
<!-- Node2&#45;&gt;Node6 -->
<g id="edge6" class="edge">
<title>Node2&#45;&gt;Node6</title>
<path fill="none" stroke="#191970" d="M113.1716,-168.2455C99.6697,-159.6534 79.7878,-147.0014 64.2314,-137.1018"/>
<polygon fill="#191970" stroke="#191970" points="65.9685,-134.0587 55.6528,-131.6427 62.2103,-139.9643 65.9685,-134.0587"/>
</g>
<!-- Node7&#45;&gt;Node2 -->
<g id="edge16" class="edge">
<title>Node7&#45;&gt;Node2</title>
<path fill="none" stroke="#191970" d="M261.8231,-224.3733C235.1672,-215.1016 194.6762,-201.0178 165.3116,-190.804"/>
<polygon fill="#191970" stroke="#191970" points="166.4105,-187.4807 155.8157,-187.5011 164.1109,-194.0921 166.4105,-187.4807"/>
</g>
<!-- Node7&#45;&gt;Node4 -->
<g id="edge11" class="edge">
<title>Node7&#45;&gt;Node4</title>
<path fill="none" stroke="#191970" d="M285.258,-224.3917C279.0425,-210.9343 266.55,-186.0939 251.5,-168 242.271,-156.9044 230.1759,-146.328 219.7725,-138.1204"/>
<polygon fill="#191970" stroke="#191970" points="221.6026,-135.1141 211.5316,-131.8238 217.3527,-140.6763 221.6026,-135.1141"/>
</g>
<!-- Node7&#45;&gt;Node5 -->
<g id="edge14" class="edge">
<title>Node7&#45;&gt;Node5</title>
<path fill="none" stroke="#191970" d="M289.0737,-224.4509C288.2582,-206.184 286.4623,-165.9553 285.3794,-141.6976"/>
<polygon fill="#191970" stroke="#191970" points="288.8678,-141.3588 284.9252,-131.5249 281.8748,-141.6711 288.8678,-141.3588"/>
</g>
<!-- Node7&#45;&gt;Node6 -->
<g id="edge15" class="edge">
<title>Node7&#45;&gt;Node6</title>
<path fill="none" stroke="#191970" d="M252.5979,-229.5092C199.9949,-222.515 106.7894,-207.7456 79.5,-188 63.5551,-176.4628 53.018,-156.2324 46.9615,-141.2014"/>
<polygon fill="#191970" stroke="#191970" points="50.2323,-139.9552 43.4729,-131.7967 43.6693,-142.3897 50.2323,-139.9552"/>
</g>
<!-- Node8 -->
<g id="node9" class="node">
<title>Node8</title>
<g id="a_node9"><a xlink:href="endian_8h.html" target="_top" xlink:title="libc header for endian conversion ">
<polygon fill="#ffffff" stroke="#000000" points="523,-56.5 523,-75.5 580,-75.5 580,-56.5 523,-56.5"/>
<text text-anchor="middle" x="551.5" y="-63.5" font-family="Helvetica,sans-Serif" font-size="10.00" fill="#000000">endian.h</text>
</a>
</g>
</g>
<!-- Node7&#45;&gt;Node8 -->
<g id="edge8" class="edge">
<title>Node7&#45;&gt;Node8</title>
<path fill="none" stroke="#191970" d="M326.0885,-228.0925C357.4758,-221.797 402.9693,-209.6641 437.5,-188 482.0907,-160.0244 520.7817,-110.3518 539.5067,-83.8393"/>
<polygon fill="#191970" stroke="#191970" points="542.4641,-85.7163 545.2742,-75.5009 536.707,-81.7342 542.4641,-85.7163"/>
</g>
<!-- Node9 -->
<g id="node10" class="node">
<title>Node9</title>
<polygon fill="#ffffff" stroke="#bfbfbf" points="525.5,-.5 525.5,-19.5 577.5,-19.5 577.5,-.5 525.5,-.5"/>
<text text-anchor="middle" x="551.5" y="-7.5" font-family="Helvetica,sans-Serif" font-size="10.00" fill="#000000">stdint.h</text>
</g>
<!-- Node7&#45;&gt;Node9 -->
<g id="edge13" class="edge">
<title>Node7&#45;&gt;Node9</title>
<path fill="none" stroke="#191970" d="M300.7164,-224.3751C315.7025,-211.5178 343.088,-188.0312 366.5,-168 427.1519,-116.1064 499.0741,-54.7255 532.5734,-26.1451"/>
<polygon fill="#191970" stroke="#191970" points="534.8959,-28.7644 540.232,-19.6114 530.3527,-23.439 534.8959,-28.7644"/>
</g>
<!-- Node10 -->
<g id="node11" class="node">
<title>Node10</title>
<g id="a_node11"><a xlink:href="errno_8h.html" target="_top" xlink:title="errno.h">
<polygon fill="#ffffff" stroke="#000000" points="375,-168.5 375,-187.5 428,-187.5 428,-168.5 375,-168.5"/>
<text text-anchor="middle" x="401.5" y="-175.5" font-family="Helvetica,sans-Serif" font-size="10.00" fill="#000000">errno.h</text>
</a>
</g>
</g>
<!-- Node7&#45;&gt;Node10 -->
<g id="edge10" class="edge">
<title>Node7&#45;&gt;Node10</title>
<path fill="none" stroke="#191970" d="M308.7535,-224.3733C326.5712,-215.4644 353.2747,-202.1127 373.4594,-192.0203"/>
<polygon fill="#191970" stroke="#191970" points="375.1187,-195.1038 382.4978,-187.5011 371.9882,-188.8428 375.1187,-195.1038"/>
</g>
<!-- Node11 -->
<g id="node12" class="node">
<title>Node11</title>
<polygon fill="#ffffff" stroke="#bfbfbf" points="186.5,-168.5 186.5,-187.5 242.5,-187.5 242.5,-168.5 186.5,-168.5"/>
<text text-anchor="middle" x="214.5" y="-175.5" font-family="Helvetica,sans-Serif" font-size="10.00" fill="#000000">stddef.h</text>
</g>
<!-- Node7&#45;&gt;Node11 -->
<g id="edge12" class="edge">
<title>Node7&#45;&gt;Node11</title>
<path fill="none" stroke="#191970" d="M276.436,-224.2455C265.1438,-215.814 248.6155,-203.4729 235.4729,-193.6598"/>
<polygon fill="#191970" stroke="#191970" points="237.5211,-190.8211 227.4143,-187.6427 233.3331,-196.4301 237.5211,-190.8211"/>
</g>
<!-- Node8&#45;&gt;Node9 -->
<g id="edge9" class="edge">
<title>Node8&#45;&gt;Node9</title>
<path fill="none" stroke="#191970" d="M551.5,-56.2455C551.5,-48.9382 551.5,-38.6944 551.5,-29.7046"/>
<polygon fill="#191970" stroke="#191970" points="555.0001,-29.6426 551.5,-19.6427 548.0001,-29.6427 555.0001,-29.6426"/>
</g>
<!-- Node13 -->
<g id="node14" class="node">
<title>Node13</title>
<g id="a_node14"><a xlink:href="eui64_8h.html" target="_top" xlink:title="EUI&#45;64 data type definition. ">
<polygon fill="#ffffff" stroke="#000000" points="485,-168.5 485,-187.5 556,-187.5 556,-168.5 485,-168.5"/>
<text text-anchor="middle" x="520.5" y="-175.5" font-family="Helvetica,sans-Serif" font-size="10.00" fill="#000000">net/eui64.h</text>
</a>
</g>
</g>
<!-- Node12&#45;&gt;Node13 -->
<g id="edge18" class="edge">
<title>Node12&#45;&gt;Node13</title>
<path fill="none" stroke="#191970" d="M480.0351,-224.2455C486.9912,-216.2958 496.9883,-204.8706 505.3051,-195.3656"/>
<polygon fill="#191970" stroke="#191970" points="508.1116,-197.4732 512.0627,-187.6427 502.8436,-192.8637 508.1116,-197.4732"/>
</g>
<!-- Node13&#45;&gt;Node9 -->
<g id="edge19" class="edge">
<title>Node13&#45;&gt;Node9</title>
<path fill="none" stroke="#191970" d="M517.6548,-168.4684C511.8817,-147.4448 500.4788,-95.8028 514.5,-56 518.3309,-45.125 525.9402,-34.9246 533.2672,-26.9061"/>
<polygon fill="#191970" stroke="#191970" points="535.8557,-29.2652 540.3498,-19.6707 530.8534,-24.3686 535.8557,-29.2652"/>
</g>
<!-- Node14 -->
<g id="node15" class="node">
<title>Node14</title>
<g id="a_node15"><a xlink:href="byteorder_8h.html" target="_top" xlink:title="Functions to work with different byte orders. ">
<polygon fill="#ffffff" stroke="#000000" points="572,-112.5 572,-131.5 645,-131.5 645,-112.5 572,-112.5"/>
<text text-anchor="middle" x="608.5" y="-119.5" font-family="Helvetica,sans-Serif" font-size="10.00" fill="#000000">byteorder.h</text>
</a>
</g>
</g>
<!-- Node13&#45;&gt;Node14 -->
<g id="edge20" class="edge">
<title>Node13&#45;&gt;Node14</title>
<path fill="none" stroke="#191970" d="M535.8284,-168.2455C549.3303,-159.6534 569.2122,-147.0014 584.7686,-137.1018"/>
<polygon fill="#191970" stroke="#191970" points="586.7897,-139.9643 593.3472,-131.6427 583.0315,-134.0587 586.7897,-139.9643"/>
</g>
<!-- Node14&#45;&gt;Node8 -->
<g id="edge23" class="edge">
<title>Node14&#45;&gt;Node8</title>
<path fill="none" stroke="#191970" d="M598.5714,-112.2455C590.3162,-104.1352 578.3791,-92.4075 568.5918,-82.7919"/>
<polygon fill="#191970" stroke="#191970" points="570.9011,-80.1542 561.3149,-75.6427 565.9954,-85.1476 570.9011,-80.1542"/>
</g>
<!-- Node14&#45;&gt;Node9 -->
<g id="edge22" class="edge">
<title>Node14&#45;&gt;Node9</title>
<path fill="none" stroke="#191970" d="M606.9616,-112.1304C604.5996,-98.7965 599.2906,-74.5619 589.5,-56 583.9907,-45.5551 575.8526,-35.2907 568.5195,-27.1174"/>
<polygon fill="#191970" stroke="#191970" points="570.9729,-24.6168 561.5819,-19.7118 565.8644,-29.4025 570.9729,-24.6168"/>
</g>
<!-- Node15 -->
<g id="node16" class="node">
<title>Node15</title>
<polygon fill="#ffffff" stroke="#bfbfbf" points="726,-56.5 726,-75.5 779,-75.5 779,-56.5 726,-56.5"/>
<text text-anchor="middle" x="752.5" y="-63.5" font-family="Helvetica,sans-Serif" font-size="10.00" fill="#000000">string.h</text>
</g>
<!-- Node14&#45;&gt;Node15 -->
<g id="edge21" class="edge">
<title>Node14&#45;&gt;Node15</title>
<path fill="none" stroke="#191970" d="M633.2545,-112.3733C656.7849,-103.2226 692.3687,-89.3844 718.5426,-79.2057"/>
<polygon fill="#191970" stroke="#191970" points="720.0171,-82.3877 728.0685,-75.5011 717.4799,-75.8636 720.0171,-82.3877"/>
</g>
<!-- Node16 -->
<g id="node17" class="node">
<title>Node16</title>
<g id="a_node17"><a xlink:href="unaligned_8h.html" target="_top" xlink:title="Unaligned but safe memory access functions. ">
<polygon fill="#ffffff" stroke="#000000" points="637,-56.5 637,-75.5 708,-75.5 708,-56.5 637,-56.5"/>
<text text-anchor="middle" x="672.5" y="-63.5" font-family="Helvetica,sans-Serif" font-size="10.00" fill="#000000">unaligned.h</text>
</a>
</g>
</g>
<!-- Node14&#45;&gt;Node16 -->
<g id="edge24" class="edge">
<title>Node14&#45;&gt;Node16</title>
<path fill="none" stroke="#191970" d="M619.6479,-112.2455C629.0087,-104.0549 642.5858,-92.1749 653.6349,-82.5069"/>
<polygon fill="#191970" stroke="#191970" points="656.2588,-84.8618 661.4798,-75.6427 651.6492,-79.5937 656.2588,-84.8618"/>
</g>
<!-- Node16&#45;&gt;Node9 -->
<g id="edge25" class="edge">
<title>Node16&#45;&gt;Node9</title>
<path fill="none" stroke="#191970" d="M651.6994,-56.3733C632.2757,-47.3838 603.0776,-33.8706 581.2036,-23.7471"/>
<polygon fill="#191970" stroke="#191970" points="582.5745,-20.5249 572.0292,-19.5011 579.6344,-26.8776 582.5745,-20.5249"/>
</g>
</g>
</svg>
