<?xml version="1.0" encoding="UTF-8" standalone="no"?>
<!DOCTYPE svg PUBLIC "-//W3C//DTD SVG 1.1//EN"
 "http://www.w3.org/Graphics/SVG/1.1/DTD/svg11.dtd">
<!-- Generated by graphviz version 2.40.1 (0)
 -->
<!-- Title: core/lib/include/ringbuffer.h Pages: 1 -->
<svg width="1188pt" height="173pt"
 viewBox="0.00 0.00 1188.00 173.00" xmlns="http://www.w3.org/2000/svg" xmlns:xlink="http://www.w3.org/1999/xlink">
<g id="graph0" class="graph" transform="scale(1 1) rotate(0) translate(4 169)">
<title>core/lib/include/ringbuffer.h</title>
<polygon fill="#ffffff" stroke="transparent" points="-4,4 -4,-169 1184,-169 1184,4 -4,4"/>
<!-- Node1 -->
<g id="node1" class="node">
<title>Node1</title>
<polygon fill="#bfbfbf" stroke="#000000" points="289.5,-145.5 289.5,-164.5 438.5,-164.5 438.5,-145.5 289.5,-145.5"/>
<text text-anchor="middle" x="364" y="-152.5" font-family="Helvetica,sans-Serif" font-size="10.00" fill="#000000">core/lib/include/ringbuffer.h</text>
</g>
<!-- Node2 -->
<g id="node2" class="node">
<title>Node2</title>
<g id="a_node2"><a xlink:href="esp__wifi__netdev_8h.html" target="_top" xlink:title="Network device driver for the ESP SoCs WiFi interface. ">
<polygon fill="#ffffff" stroke="#000000" points="0,-78.5 0,-108.5 122,-108.5 122,-78.5 0,-78.5"/>
<text text-anchor="start" x="8" y="-96.5" font-family="Helvetica,sans-Serif" font-size="10.00" fill="#000000">cpu/esp_common/esp</text>
<text text-anchor="middle" x="61" y="-85.5" font-family="Helvetica,sans-Serif" font-size="10.00" fill="#000000">&#45;wifi/esp_wifi_netdev.h</text>
</a>
</g>
</g>
<!-- Node1&#45;&gt;Node2 -->
<g id="edge1" class="edge">
<title>Node1&#45;&gt;Node2</title>
<path fill="none" stroke="#191970" d="M303.9039,-143.5292C256.8062,-134.4444 189.6531,-121.2818 131,-109 128.0761,-108.3877 125.0852,-107.7541 122.0656,-107.1083"/>
<polygon fill="#191970" stroke="#191970" points="303.4547,-147.0069 313.9361,-145.4612 304.7785,-140.1332 303.4547,-147.0069"/>
</g>
<!-- Node3 -->
<g id="node3" class="node">
<title>Node3</title>
<g id="a_node3"><a xlink:href="atwinc15x0_8h.html" target="_top" xlink:title="Netdev Driver for the Microchip ATWINC15x0 WiFi Module. ">
<polygon fill="#ffffff" stroke="#000000" points="140,-84 140,-103 292,-103 292,-84 140,-84"/>
<text text-anchor="middle" x="216" y="-91" font-family="Helvetica,sans-Serif" font-size="10.00" fill="#000000">drivers/include/atwinc15x0.h</text>
</a>
</g>
</g>
<!-- Node1&#45;&gt;Node3 -->
<g id="edge2" class="edge">
<title>Node1&#45;&gt;Node3</title>
<path fill="none" stroke="#191970" d="M331.5015,-141.4955C303.4956,-129.858 263.7694,-113.3501 238.9626,-103.0419"/>
<polygon fill="#191970" stroke="#191970" points="330.2975,-144.7853 340.875,-145.3906 332.9836,-138.3212 330.2975,-144.7853"/>
</g>
<!-- Node5 -->
<g id="node5" class="node">
<title>Node5</title>
<g id="a_node5"><a xlink:href="serialport_8hpp.html" target="_top" xlink:title="Definition of the Arduino &#39;Serial&#39; interface. ">
<polygon fill="#ffffff" stroke="#000000" points="310.5,-78.5 310.5,-108.5 417.5,-108.5 417.5,-78.5 310.5,-78.5"/>
<text text-anchor="start" x="318.5" y="-96.5" font-family="Helvetica,sans-Serif" font-size="10.00" fill="#000000">sys/arduino/include</text>
<text text-anchor="middle" x="364" y="-85.5" font-family="Helvetica,sans-Serif" font-size="10.00" fill="#000000">/serialport.hpp</text>
</a>
</g>
</g>
<!-- Node1&#45;&gt;Node5 -->
<g id="edge4" class="edge">
<title>Node1&#45;&gt;Node5</title>
<path fill="none" stroke="#191970" d="M364,-135.3693C364,-126.681 364,-116.6241 364,-108.5446"/>
<polygon fill="#191970" stroke="#191970" points="360.5001,-135.3906 364,-145.3906 367.5001,-135.3907 360.5001,-135.3906"/>
</g>
<!-- Node7 -->
<g id="node7" class="node">
<title>Node7</title>
<g id="a_node7"><a xlink:href="tcb_8h.html" target="_top" xlink:title="GNRC TCP transmission control block (TCB) ">
<polygon fill="#ffffff" stroke="#000000" points="565,-78.5 565,-108.5 677,-108.5 677,-78.5 565,-78.5"/>
<text text-anchor="start" x="573" y="-96.5" font-family="Helvetica,sans-Serif" font-size="10.00" fill="#000000">sys/include/net/gnrc</text>
<text text-anchor="middle" x="621" y="-85.5" font-family="Helvetica,sans-Serif" font-size="10.00" fill="#000000">/tcp/tcb.h</text>
</a>
</g>
</g>
<!-- Node1&#45;&gt;Node7 -->
<g id="edge6" class="edge">
<title>Node1&#45;&gt;Node7</title>
<path fill="none" stroke="#191970" d="M413.6171,-143.1267C456.9014,-132.7687 519.6617,-117.7502 564.7901,-106.951"/>
<polygon fill="#191970" stroke="#191970" points="412.7851,-139.7268 403.8743,-145.4581 414.4143,-146.5346 412.7851,-139.7268"/>
</g>
<!-- Node14 -->
<g id="node14" class="node">
<title>Node14</title>
<g id="a_node14"><a xlink:href="pipe_8h.html" target="_top" xlink:title="sys/include/pipe.h">
<polygon fill="#ffffff" stroke="#000000" points="695.5,-84 695.5,-103 796.5,-103 796.5,-84 695.5,-84"/>
<text text-anchor="middle" x="746" y="-91" font-family="Helvetica,sans-Serif" font-size="10.00" fill="#000000">sys/include/pipe.h</text>
</a>
</g>
</g>
<!-- Node1&#45;&gt;Node14 -->
<g id="edge13" class="edge">
<title>Node1&#45;&gt;Node14</title>
<path fill="none" stroke="#191970" d="M448.8007,-145.4919C513.9866,-137.5549 606.1054,-124.9753 686,-109 694.4398,-107.3124 703.4642,-105.1659 711.8834,-103.0121"/>
<polygon fill="#191970" stroke="#191970" points="448.0846,-142.0529 438.576,-146.7257 448.9233,-149.0024 448.0846,-142.0529"/>
</g>
<!-- Node4 -->
<g id="node4" class="node">
<title>Node4</title>
<g id="a_node4"><a xlink:href="atwinc15x0__internal_8h.html" target="_top" xlink:title="Internal definitions for the ATWINC15x0 WiFi netdev driver. ">
<polygon fill="#ffffff" stroke="#000000" points="104,-.5 104,-41.5 214,-41.5 214,-.5 104,-.5"/>
<text text-anchor="start" x="112" y="-29.5" font-family="Helvetica,sans-Serif" font-size="10.00" fill="#000000">drivers/atwinc15x0</text>
<text text-anchor="start" x="112" y="-18.5" font-family="Helvetica,sans-Serif" font-size="10.00" fill="#000000">/include/atwinc15x0</text>
<text text-anchor="middle" x="159" y="-7.5" font-family="Helvetica,sans-Serif" font-size="10.00" fill="#000000">_internal.h</text>
</a>
</g>
</g>
<!-- Node3&#45;&gt;Node4 -->
<g id="edge3" class="edge">
<title>Node3&#45;&gt;Node4</title>
<path fill="none" stroke="#191970" d="M202.0858,-75.8021C193.9633,-65.4709 183.677,-52.3874 175.1922,-41.5953"/>
<polygon fill="#191970" stroke="#191970" points="199.3806,-78.0242 208.3127,-83.7223 204.8835,-73.6978 199.3806,-78.0242"/>
</g>
<!-- Node6 -->
<g id="node6" class="node">
<title>Node6</title>
<g id="a_node6"><a xlink:href="arduino_8hpp.html" target="_top" xlink:title="Main interface definition of the Arduino API. ">
<polygon fill="#ffffff" stroke="#000000" points="232.5,-6 232.5,-36 339.5,-36 339.5,-6 232.5,-6"/>
<text text-anchor="start" x="240.5" y="-24" font-family="Helvetica,sans-Serif" font-size="10.00" fill="#000000">sys/arduino/include</text>
<text text-anchor="middle" x="286" y="-13" font-family="Helvetica,sans-Serif" font-size="10.00" fill="#000000">/arduino.hpp</text>
</a>
</g>
</g>
<!-- Node5&#45;&gt;Node6 -->
<g id="edge5" class="edge">
<title>Node5&#45;&gt;Node6</title>
<path fill="none" stroke="#191970" d="M340.5009,-71.6579C328.1085,-60.1393 313.2221,-46.3026 302.1409,-36.0028"/>
<polygon fill="#191970" stroke="#191970" points="338.1309,-74.2334 347.8383,-78.478 342.8966,-69.1062 338.1309,-74.2334"/>
</g>
<!-- Node8 -->
<g id="node8" class="node">
<title>Node8</title>
<g id="a_node8"><a xlink:href="gnrc_2tcp_8h.html" target="_top" xlink:title="GNRC TCP API. ">
<polygon fill="#ffffff" stroke="#000000" points="358,-6 358,-36 470,-36 470,-6 358,-6"/>
<text text-anchor="start" x="366" y="-24" font-family="Helvetica,sans-Serif" font-size="10.00" fill="#000000">sys/include/net/gnrc</text>
<text text-anchor="middle" x="414" y="-13" font-family="Helvetica,sans-Serif" font-size="10.00" fill="#000000">/tcp.h</text>
</a>
</g>
</g>
<!-- Node7&#45;&gt;Node8 -->
<g id="edge7" class="edge">
<title>Node7&#45;&gt;Node8</title>
<path fill="none" stroke="#191970" d="M568.6431,-75.1624C534.0575,-63.0491 489.295,-47.3714 456.8356,-36.0028"/>
<polygon fill="#191970" stroke="#191970" points="567.5146,-78.4756 578.1095,-78.478 569.8285,-71.8691 567.5146,-78.4756"/>
</g>
<!-- Node9 -->
<g id="node9" class="node">
<title>Node9</title>
<g id="a_node9"><a xlink:href="gnrc__tcp__common_8h.html" target="_top" xlink:title="Internally used defines, macros and variable declarations. ">
<polygon fill="#ffffff" stroke="#000000" points="488,-.5 488,-41.5 612,-41.5 612,-.5 488,-.5"/>
<text text-anchor="start" x="496" y="-29.5" font-family="Helvetica,sans-Serif" font-size="10.00" fill="#000000">sys/net/gnrc/transport</text>
<text text-anchor="start" x="496" y="-18.5" font-family="Helvetica,sans-Serif" font-size="10.00" fill="#000000">_layer/tcp/include/gnrc</text>
<text text-anchor="middle" x="550" y="-7.5" font-family="Helvetica,sans-Serif" font-size="10.00" fill="#000000">_tcp_common.h</text>
</a>
</g>
</g>
<!-- Node7&#45;&gt;Node9 -->
<g id="edge8" class="edge">
<title>Node7&#45;&gt;Node9</title>
<path fill="none" stroke="#191970" d="M599.2194,-71.2593C589.9338,-61.7774 579.1681,-50.7843 570.0773,-41.5015"/>
<polygon fill="#191970" stroke="#191970" points="596.7913,-73.7822 606.2888,-78.478 601.7926,-68.8845 596.7913,-73.7822"/>
</g>
<!-- Node10 -->
<g id="node10" class="node">
<title>Node10</title>
<g id="a_node10"><a xlink:href="gnrc__tcp__fsm_8h.html" target="_top" xlink:title="TCP finite state machine declarations. ">
<polygon fill="#ffffff" stroke="#000000" points="630,-.5 630,-41.5 754,-41.5 754,-.5 630,-.5"/>
<text text-anchor="start" x="638" y="-29.5" font-family="Helvetica,sans-Serif" font-size="10.00" fill="#000000">sys/net/gnrc/transport</text>
<text text-anchor="start" x="638" y="-18.5" font-family="Helvetica,sans-Serif" font-size="10.00" fill="#000000">_layer/tcp/include/gnrc</text>
<text text-anchor="middle" x="692" y="-7.5" font-family="Helvetica,sans-Serif" font-size="10.00" fill="#000000">_tcp_fsm.h</text>
</a>
</g>
</g>
<!-- Node7&#45;&gt;Node10 -->
<g id="edge9" class="edge">
<title>Node7&#45;&gt;Node10</title>
<path fill="none" stroke="#191970" d="M642.7806,-71.2593C652.0662,-61.7774 662.8319,-50.7843 671.9227,-41.5015"/>
<polygon fill="#191970" stroke="#191970" points="640.2074,-68.8845 635.7112,-78.478 645.2087,-73.7822 640.2074,-68.8845"/>
</g>
<!-- Node11 -->
<g id="node11" class="node">
<title>Node11</title>
<g id="a_node11"><a xlink:href="gnrc__tcp__option_8h.html" target="_top" xlink:title="TCP option handling declarations. ">
<polygon fill="#ffffff" stroke="#000000" points="772,-.5 772,-41.5 896,-41.5 896,-.5 772,-.5"/>
<text text-anchor="start" x="780" y="-29.5" font-family="Helvetica,sans-Serif" font-size="10.00" fill="#000000">sys/net/gnrc/transport</text>
<text text-anchor="start" x="780" y="-18.5" font-family="Helvetica,sans-Serif" font-size="10.00" fill="#000000">_layer/tcp/include/gnrc</text>
<text text-anchor="middle" x="834" y="-7.5" font-family="Helvetica,sans-Serif" font-size="10.00" fill="#000000">_tcp_option.h</text>
</a>
</g>
</g>
<!-- Node7&#45;&gt;Node11 -->
<g id="edge10" class="edge">
<title>Node7&#45;&gt;Node11</title>
<path fill="none" stroke="#191970" d="M674.6465,-75.24C704.8218,-64.9691 742.5804,-52.117 773.768,-41.5015"/>
<polygon fill="#191970" stroke="#191970" points="673.4726,-71.9423 665.1337,-78.478 675.7282,-78.569 673.4726,-71.9423"/>
</g>
<!-- Node12 -->
<g id="node12" class="node">
<title>Node12</title>
<g id="a_node12"><a xlink:href="gnrc__tcp__pkt_8h.html" target="_top" xlink:title="TCP packet handling declarations. ">
<polygon fill="#ffffff" stroke="#000000" points="914,-.5 914,-41.5 1038,-41.5 1038,-.5 914,-.5"/>
<text text-anchor="start" x="922" y="-29.5" font-family="Helvetica,sans-Serif" font-size="10.00" fill="#000000">sys/net/gnrc/transport</text>
<text text-anchor="start" x="922" y="-18.5" font-family="Helvetica,sans-Serif" font-size="10.00" fill="#000000">_layer/tcp/include/gnrc</text>
<text text-anchor="middle" x="976" y="-7.5" font-family="Helvetica,sans-Serif" font-size="10.00" fill="#000000">_tcp_pkt.h</text>
</a>
</g>
</g>
<!-- Node7&#45;&gt;Node12 -->
<g id="edge11" class="edge">
<title>Node7&#45;&gt;Node12</title>
<path fill="none" stroke="#191970" d="M686.6968,-78.0607C686.7979,-78.0404 686.899,-78.0202 687,-78 783.2986,-58.7634 809.2877,-63.9685 905,-42 907.8816,-41.3386 910.8184,-40.6266 913.7774,-39.8783"/>
<polygon fill="#191970" stroke="#191970" points="686.1924,-74.5906 677.1136,-80.052 687.6166,-81.4442 686.1924,-74.5906"/>
</g>
<!-- Node13 -->
<g id="node13" class="node">
<title>Node13</title>
<g id="a_node13"><a xlink:href="gnrc__tcp__rcvbuf_8h.html" target="_top" xlink:title="Functions for allocating and freeing the receive buffer. ">
<polygon fill="#ffffff" stroke="#000000" points="1056,-.5 1056,-41.5 1180,-41.5 1180,-.5 1056,-.5"/>
<text text-anchor="start" x="1064" y="-29.5" font-family="Helvetica,sans-Serif" font-size="10.00" fill="#000000">sys/net/gnrc/transport</text>
<text text-anchor="start" x="1064" y="-18.5" font-family="Helvetica,sans-Serif" font-size="10.00" fill="#000000">_layer/tcp/include/gnrc</text>
<text text-anchor="middle" x="1118" y="-7.5" font-family="Helvetica,sans-Serif" font-size="10.00" fill="#000000">_tcp_rcvbuf.h</text>
</a>
</g>
</g>
<!-- Node7&#45;&gt;Node13 -->
<g id="edge12" class="edge">
<title>Node7&#45;&gt;Node13</title>
<path fill="none" stroke="#191970" d="M686.695,-78.051C686.7968,-78.0339 686.8984,-78.0169 687,-78 845.6097,-51.5618 889.2067,-72.9399 1047,-42 1049.9012,-41.4311 1052.8543,-40.795 1055.8263,-40.1082"/>
<polygon fill="#191970" stroke="#191970" points="686.2789,-74.5691 677.0684,-79.8051 687.5339,-81.4557 686.2789,-74.5691"/>
</g>
</g>
</svg>
