<?xml version="1.0" encoding="UTF-8" standalone="no"?>
<!DOCTYPE svg PUBLIC "-//W3C//DTD SVG 1.1//EN"
 "http://www.w3.org/Graphics/SVG/1.1/DTD/svg11.dtd">
<!-- Generated by graphviz version 2.40.1 (0)
 -->
<!-- Title: cpu/riscv_common/include/cpu_common.h Pages: 1 -->
<svg width="249pt" height="207pt"
 viewBox="0.00 0.00 248.50 207.00" xmlns="http://www.w3.org/2000/svg" xmlns:xlink="http://www.w3.org/1999/xlink">
<g id="graph0" class="graph" transform="scale(1 1) rotate(0) translate(4 203)">
<title>cpu/riscv_common/include/cpu_common.h</title>
<polygon fill="#ffffff" stroke="transparent" points="-4,4 -4,-203 244.5,-203 244.5,4 -4,4"/>
<!-- Node0 -->
<g id="node1" class="node">
<title>Node0</title>
<polygon fill="#bfbfbf" stroke="#000000" points="0,-168.5 0,-198.5 140,-198.5 140,-168.5 0,-168.5"/>
<text text-anchor="start" x="8" y="-186.5" font-family="Helvetica,sans-Serif" font-size="10.00" fill="#000000">cpu/riscv_common/include</text>
<text text-anchor="middle" x="70" y="-175.5" font-family="Helvetica,sans-Serif" font-size="10.00" fill="#000000">/cpu_common.h</text>
</g>
<!-- Node1 -->
<g id="node2" class="node">
<title>Node1</title>
<polygon fill="#ffffff" stroke="#bfbfbf" points="13,-56.5 13,-75.5 65,-75.5 65,-56.5 13,-56.5"/>
<text text-anchor="middle" x="39" y="-63.5" font-family="Helvetica,sans-Serif" font-size="10.00" fill="#000000">stdint.h</text>
</g>
<!-- Node0&#45;&gt;Node1 -->
<g id="edge1" class="edge">
<title>Node0&#45;&gt;Node1</title>
<path fill="none" stroke="#191970" d="M65.9473,-168.1389C60.3367,-146.873 50.2049,-108.4702 44.0908,-85.2956"/>
<polygon fill="#191970" stroke="#191970" points="47.4574,-84.3357 41.5221,-75.5595 40.689,-86.1215 47.4574,-84.3357"/>
</g>
<!-- Node2 -->
<g id="node3" class="node">
<title>Node2</title>
<g id="a_node3"><a xlink:href="riscv__common_2include_2irq__arch_8h.html" target="_top" xlink:title="Implementation of the kernels irq interface. ">
<polygon fill="#ffffff" stroke="#000000" points="69.5,-112.5 69.5,-131.5 132.5,-131.5 132.5,-112.5 69.5,-112.5"/>
<text text-anchor="middle" x="101" y="-119.5" font-family="Helvetica,sans-Serif" font-size="10.00" fill="#000000">irq_arch.h</text>
</a>
</g>
</g>
<!-- Node0&#45;&gt;Node2 -->
<g id="edge2" class="edge">
<title>Node0&#45;&gt;Node2</title>
<path fill="none" stroke="#191970" d="M77.6629,-168.2977C81.8316,-160.0277 87.0265,-149.7215 91.4561,-140.9339"/>
<polygon fill="#191970" stroke="#191970" points="94.6607,-142.3521 96.0365,-131.8469 88.4099,-139.2012 94.6607,-142.3521"/>
</g>
<!-- Node2&#45;&gt;Node1 -->
<g id="edge3" class="edge">
<title>Node2&#45;&gt;Node1</title>
<path fill="none" stroke="#191970" d="M90.2004,-112.2455C81.1322,-104.0549 67.9794,-92.1749 57.2755,-82.5069"/>
<polygon fill="#191970" stroke="#191970" points="59.4429,-79.7482 49.6758,-75.6427 54.7509,-84.9429 59.4429,-79.7482"/>
</g>
<!-- Node3 -->
<g id="node4" class="node">
<title>Node3</title>
<g id="a_node4"><a xlink:href="irq_8h.html" target="_top" xlink:title="IRQ driver interface. ">
<polygon fill="#ffffff" stroke="#000000" points="83,-56.5 83,-75.5 121,-75.5 121,-56.5 83,-56.5"/>
<text text-anchor="middle" x="102" y="-63.5" font-family="Helvetica,sans-Serif" font-size="10.00" fill="#000000">irq.h</text>
</a>
</g>
</g>
<!-- Node2&#45;&gt;Node3 -->
<g id="edge4" class="edge">
<title>Node2&#45;&gt;Node3</title>
<path fill="none" stroke="#191970" d="M101.1742,-112.2455C101.3047,-104.9382 101.4876,-94.6944 101.6481,-85.7046"/>
<polygon fill="#191970" stroke="#191970" points="105.1486,-85.7036 101.8278,-75.6427 98.1497,-85.5786 105.1486,-85.7036"/>
</g>
<!-- Node6 -->
<g id="node7" class="node">
<title>Node6</title>
<polygon fill="#ffffff" stroke="#bfbfbf" points="139.5,-56.5 139.5,-75.5 240.5,-75.5 240.5,-56.5 139.5,-56.5"/>
<text text-anchor="middle" x="190" y="-63.5" font-family="Helvetica,sans-Serif" font-size="10.00" fill="#000000">vendor/riscv_csr.h</text>
</g>
<!-- Node2&#45;&gt;Node6 -->
<g id="edge7" class="edge">
<title>Node2&#45;&gt;Node6</title>
<path fill="none" stroke="#191970" d="M116.5026,-112.2455C130.158,-103.6534 150.2657,-91.0014 165.9989,-81.1018"/>
<polygon fill="#191970" stroke="#191970" points="168.0751,-83.9307 174.675,-75.6427 164.3471,-78.006 168.0751,-83.9307"/>
</g>
<!-- Node4 -->
<g id="node5" class="node">
<title>Node4</title>
<polygon fill="#ffffff" stroke="#bfbfbf" points="31,-.5 31,-19.5 91,-19.5 91,-.5 31,-.5"/>
<text text-anchor="middle" x="61" y="-7.5" font-family="Helvetica,sans-Serif" font-size="10.00" fill="#000000">stdbool.h</text>
</g>
<!-- Node3&#45;&gt;Node4 -->
<g id="edge5" class="edge">
<title>Node3&#45;&gt;Node4</title>
<path fill="none" stroke="#191970" d="M94.8583,-56.2455C89.1556,-48.4564 81.01,-37.3308 74.1375,-27.9439"/>
<polygon fill="#191970" stroke="#191970" points="76.7913,-25.6437 68.0598,-19.6427 71.1432,-29.7789 76.7913,-25.6437"/>
</g>
<!-- Node5 -->
<g id="node6" class="node">
<title>Node5</title>
<polygon fill="#ffffff" stroke="#bfbfbf" points="109.5,-.5 109.5,-19.5 176.5,-19.5 176.5,-.5 109.5,-.5"/>
<text text-anchor="middle" x="143" y="-7.5" font-family="Helvetica,sans-Serif" font-size="10.00" fill="#000000">cpu_conf.h</text>
</g>
<!-- Node3&#45;&gt;Node5 -->
<g id="edge6" class="edge">
<title>Node3&#45;&gt;Node5</title>
<path fill="none" stroke="#191970" d="M109.1417,-56.2455C114.8444,-48.4564 122.99,-37.3308 129.8625,-27.9439"/>
<polygon fill="#191970" stroke="#191970" points="132.8568,-29.7789 135.9402,-19.6427 127.2087,-25.6437 132.8568,-29.7789"/>
</g>
</g>
</svg>
