<?xml version="1.0" encoding="UTF-8" standalone="no"?>
<!DOCTYPE svg PUBLIC "-//W3C//DTD SVG 1.1//EN"
 "http://www.w3.org/Graphics/SVG/1.1/DTD/svg11.dtd">
<!-- Generated by graphviz version 2.40.1 (0)
 -->
<!-- Title: cpu/riscv_common/include/thread_arch.h Pages: 1 -->
<svg width="154pt" height="151pt"
 viewBox="0.00 0.00 153.50 151.00" xmlns="http://www.w3.org/2000/svg" xmlns:xlink="http://www.w3.org/1999/xlink">
<g id="graph0" class="graph" transform="scale(1 1) rotate(0) translate(4 147)">
<title>cpu/riscv_common/include/thread_arch.h</title>
<polygon fill="#ffffff" stroke="transparent" points="-4,4 -4,-147 149.5,-147 149.5,4 -4,4"/>
<!-- Node0 -->
<g id="node1" class="node">
<title>Node0</title>
<polygon fill="#bfbfbf" stroke="#000000" points="1,-112.5 1,-142.5 141,-142.5 141,-112.5 1,-112.5"/>
<text text-anchor="start" x="9" y="-130.5" font-family="Helvetica,sans-Serif" font-size="10.00" fill="#000000">cpu/riscv_common/include</text>
<text text-anchor="middle" x="71" y="-119.5" font-family="Helvetica,sans-Serif" font-size="10.00" fill="#000000">/thread_arch.h</text>
</g>
<!-- Node1 -->
<g id="node2" class="node">
<title>Node1</title>
<g id="a_node2"><a xlink:href="irq_8h.html" target="_top" xlink:title="IRQ driver interface. ">
<polygon fill="#ffffff" stroke="#000000" points="52,-56.5 52,-75.5 90,-75.5 90,-56.5 52,-56.5"/>
<text text-anchor="middle" x="71" y="-63.5" font-family="Helvetica,sans-Serif" font-size="10.00" fill="#000000">irq.h</text>
</a>
</g>
</g>
<!-- Node0&#45;&gt;Node1 -->
<g id="edge1" class="edge">
<title>Node0&#45;&gt;Node1</title>
<path fill="none" stroke="#191970" d="M71,-112.2977C71,-104.3834 71,-94.6043 71,-86.0759"/>
<polygon fill="#191970" stroke="#191970" points="74.5001,-85.8469 71,-75.8469 67.5001,-85.847 74.5001,-85.8469"/>
</g>
<!-- Node2 -->
<g id="node3" class="node">
<title>Node2</title>
<polygon fill="#ffffff" stroke="#bfbfbf" points="0,-.5 0,-19.5 60,-19.5 60,-.5 0,-.5"/>
<text text-anchor="middle" x="30" y="-7.5" font-family="Helvetica,sans-Serif" font-size="10.00" fill="#000000">stdbool.h</text>
</g>
<!-- Node1&#45;&gt;Node2 -->
<g id="edge2" class="edge">
<title>Node1&#45;&gt;Node2</title>
<path fill="none" stroke="#191970" d="M63.8583,-56.2455C58.1556,-48.4564 50.01,-37.3308 43.1375,-27.9439"/>
<polygon fill="#191970" stroke="#191970" points="45.7913,-25.6437 37.0598,-19.6427 40.1432,-29.7789 45.7913,-25.6437"/>
</g>
<!-- Node3 -->
<g id="node4" class="node">
<title>Node3</title>
<polygon fill="#ffffff" stroke="#bfbfbf" points="78.5,-.5 78.5,-19.5 145.5,-19.5 145.5,-.5 78.5,-.5"/>
<text text-anchor="middle" x="112" y="-7.5" font-family="Helvetica,sans-Serif" font-size="10.00" fill="#000000">cpu_conf.h</text>
</g>
<!-- Node1&#45;&gt;Node3 -->
<g id="edge3" class="edge">
<title>Node1&#45;&gt;Node3</title>
<path fill="none" stroke="#191970" d="M78.1417,-56.2455C83.8444,-48.4564 91.99,-37.3308 98.8625,-27.9439"/>
<polygon fill="#191970" stroke="#191970" points="101.8568,-29.7789 104.9402,-19.6427 96.2087,-25.6437 101.8568,-29.7789"/>
</g>
</g>
</svg>
