<?xml version="1.0" encoding="UTF-8" standalone="no"?>
<!DOCTYPE svg PUBLIC "-//W3C//DTD SVG 1.1//EN"
 "http://www.w3.org/Graphics/SVG/1.1/DTD/svg11.dtd">
<!-- Generated by graphviz version 2.40.1 (0)
 -->
<!-- Title: sys/include/net/gnrc/rpl.h Pages: 1 -->
<svg width="270pt" height="117pt"
 viewBox="0.00 0.00 269.50 117.00" xmlns="http://www.w3.org/2000/svg" xmlns:xlink="http://www.w3.org/1999/xlink">
<g id="graph0" class="graph" transform="scale(1 1) rotate(0) translate(4 113)">
<title>sys/include/net/gnrc/rpl.h</title>
<polygon fill="#ffffff" stroke="transparent" points="-4,4 -4,-113 265.5,-113 265.5,4 -4,4"/>
<!-- Node93 -->
<g id="node1" class="node">
<title>Node93</title>
<polygon fill="#bfbfbf" stroke="#000000" points="0,-78.5 0,-108.5 112,-108.5 112,-78.5 0,-78.5"/>
<text text-anchor="start" x="8" y="-96.5" font-family="Helvetica,sans-Serif" font-size="10.00" fill="#000000">sys/include/net/gnrc</text>
<text text-anchor="middle" x="56" y="-85.5" font-family="Helvetica,sans-Serif" font-size="10.00" fill="#000000">/rpl.h</text>
</g>
<!-- Node94 -->
<g id="node2" class="node">
<title>Node94</title>
<g id="a_node2"><a xlink:href="dodag_8h.html" target="_top" xlink:title="DODAG&#45;related functions for RPL. ">
<polygon fill="#ffffff" stroke="#000000" points="0,-6 0,-36 112,-36 112,-6 0,-6"/>
<text text-anchor="start" x="8" y="-24" font-family="Helvetica,sans-Serif" font-size="10.00" fill="#000000">sys/include/net/gnrc</text>
<text text-anchor="middle" x="56" y="-13" font-family="Helvetica,sans-Serif" font-size="10.00" fill="#000000">/rpl/dodag.h</text>
</a>
</g>
</g>
<!-- Node93&#45;&gt;Node94 -->
<g id="edge1" class="edge">
<title>Node93&#45;&gt;Node94</title>
<path fill="none" stroke="#191970" d="M49.539,-68.3409C48.9604,-57.5601 49.2506,-45.3309 50.4097,-36.0028"/>
<polygon fill="#191970" stroke="#191970" points="46.0666,-68.8132 50.4073,-78.478 53.041,-68.2157 46.0666,-68.8132"/>
</g>
<!-- Node95 -->
<g id="node3" class="node">
<title>Node95</title>
<g id="a_node3"><a xlink:href="gnrc__ipv6__auto__subnets_8c.html" target="_top" xlink:title="sys/net/gnrc/routing\l/ipv6_auto_subnets/gnrc\l_ipv6_auto_subnets.c">
<polygon fill="#ffffff" stroke="#000000" points="130.5,-.5 130.5,-41.5 261.5,-41.5 261.5,-.5 130.5,-.5"/>
<text text-anchor="start" x="138.5" y="-29.5" font-family="Helvetica,sans-Serif" font-size="10.00" fill="#000000">sys/net/gnrc/routing</text>
<text text-anchor="start" x="138.5" y="-18.5" font-family="Helvetica,sans-Serif" font-size="10.00" fill="#000000">/ipv6_auto_subnets/gnrc</text>
<text text-anchor="middle" x="196" y="-7.5" font-family="Helvetica,sans-Serif" font-size="10.00" fill="#000000">_ipv6_auto_subnets.c</text>
</a>
</g>
</g>
<!-- Node93&#45;&gt;Node95 -->
<g id="edge3" class="edge">
<title>Node93&#45;&gt;Node95</title>
<path fill="none" stroke="#191970" d="M94.1269,-73.7557C113.4479,-63.7502 136.8881,-51.6115 156.4109,-41.5015"/>
<polygon fill="#191970" stroke="#191970" points="92.2785,-70.7714 85.0081,-78.478 95.4976,-76.9873 92.2785,-70.7714"/>
</g>
<!-- Node94&#45;&gt;Node93 -->
<g id="edge2" class="edge">
<title>Node94&#45;&gt;Node93</title>
<path fill="none" stroke="#191970" d="M62.4598,-46.1368C63.0396,-56.9157 62.7506,-69.1459 61.5927,-78.478"/>
<polygon fill="#191970" stroke="#191970" points="65.9324,-45.667 61.5903,-36.0028 58.958,-46.2654 65.9324,-45.667"/>
</g>
</g>
</svg>
