<?xml version="1.0" encoding="UTF-8" standalone="no"?>
<!DOCTYPE svg PUBLIC "-//W3C//DTD SVG 1.1//EN"
 "http://www.w3.org/Graphics/SVG/1.1/DTD/svg11.dtd">
<!-- Generated by graphviz version 2.40.1 (0)
 -->
<!-- Title: sys/include/rtc_utils.h Pages: 1 -->
<svg width="222pt" height="140pt"
 viewBox="0.00 0.00 221.50 140.00" xmlns="http://www.w3.org/2000/svg" xmlns:xlink="http://www.w3.org/1999/xlink">
<g id="graph0" class="graph" transform="scale(1 1) rotate(0) translate(4 136)">
<title>sys/include/rtc_utils.h</title>
<polygon fill="#ffffff" stroke="transparent" points="-4,4 -4,-136 217.5,-136 217.5,4 -4,4"/>
<!-- Node0 -->
<g id="node1" class="node">
<title>Node0</title>
<polygon fill="#bfbfbf" stroke="#000000" points="46,-112.5 46,-131.5 162,-131.5 162,-112.5 46,-112.5"/>
<text text-anchor="middle" x="104" y="-119.5" font-family="Helvetica,sans-Serif" font-size="10.00" fill="#000000">sys/include/rtc_utils.h</text>
</g>
<!-- Node1 -->
<g id="node2" class="node">
<title>Node1</title>
<polygon fill="#ffffff" stroke="#bfbfbf" points="0,-56.5 0,-75.5 60,-75.5 60,-56.5 0,-56.5"/>
<text text-anchor="middle" x="30" y="-63.5" font-family="Helvetica,sans-Serif" font-size="10.00" fill="#000000">stdbool.h</text>
</g>
<!-- Node0&#45;&gt;Node1 -->
<g id="edge1" class="edge">
<title>Node0&#45;&gt;Node1</title>
<path fill="none" stroke="#191970" d="M91.1102,-112.2455C80.0746,-103.8943 63.9708,-91.7076 51.0647,-81.9408"/>
<polygon fill="#191970" stroke="#191970" points="52.8283,-78.8862 42.7421,-75.6427 48.6041,-84.4681 52.8283,-78.8862"/>
</g>
<!-- Node2 -->
<g id="node3" class="node">
<title>Node2</title>
<polygon fill="#ffffff" stroke="#bfbfbf" points="78,-56.5 78,-75.5 130,-75.5 130,-56.5 78,-56.5"/>
<text text-anchor="middle" x="104" y="-63.5" font-family="Helvetica,sans-Serif" font-size="10.00" fill="#000000">stdint.h</text>
</g>
<!-- Node0&#45;&gt;Node2 -->
<g id="edge2" class="edge">
<title>Node0&#45;&gt;Node2</title>
<path fill="none" stroke="#191970" d="M104,-112.2455C104,-104.9382 104,-94.6944 104,-85.7046"/>
<polygon fill="#191970" stroke="#191970" points="107.5001,-85.6426 104,-75.6427 100.5001,-85.6427 107.5001,-85.6426"/>
</g>
<!-- Node3 -->
<g id="node4" class="node">
<title>Node3</title>
<g id="a_node4"><a xlink:href="time_8h_source.html" target="_top" xlink:title="time.h">
<polygon fill="#ffffff" stroke="#000000" points="148.5,-56.5 148.5,-75.5 195.5,-75.5 195.5,-56.5 148.5,-56.5"/>
<text text-anchor="middle" x="172" y="-63.5" font-family="Helvetica,sans-Serif" font-size="10.00" fill="#000000">time.h</text>
</a>
</g>
</g>
<!-- Node0&#45;&gt;Node3 -->
<g id="edge3" class="edge">
<title>Node0&#45;&gt;Node3</title>
<path fill="none" stroke="#191970" d="M115.8447,-112.2455C125.888,-103.9746 140.4995,-91.9416 152.3004,-82.2232"/>
<polygon fill="#191970" stroke="#191970" points="154.7967,-84.7015 160.291,-75.6427 150.3467,-79.298 154.7967,-84.7015"/>
</g>
<!-- Node3&#45;&gt;Node3 -->
<g id="edge5" class="edge">
<title>Node3&#45;&gt;Node3</title>
<path fill="none" stroke="#191970" d="M189.9158,-75.5746C201.867,-78.2697 213.5,-75.0781 213.5,-66 213.5,-59.546 207.6203,-56.0673 199.9267,-55.5639"/>
<polygon fill="#191970" stroke="#191970" points="199.5789,-52.0808 189.9158,-56.4254 200.1791,-59.055 199.5789,-52.0808"/>
</g>
<!-- Node4 -->
<g id="node5" class="node">
<title>Node4</title>
<polygon fill="#ffffff" stroke="#bfbfbf" points="137.5,-.5 137.5,-19.5 206.5,-19.5 206.5,-.5 137.5,-.5"/>
<text text-anchor="middle" x="172" y="-7.5" font-family="Helvetica,sans-Serif" font-size="10.00" fill="#000000">sys/types.h</text>
</g>
<!-- Node3&#45;&gt;Node4 -->
<g id="edge4" class="edge">
<title>Node3&#45;&gt;Node4</title>
<path fill="none" stroke="#191970" d="M172,-56.2455C172,-48.9382 172,-38.6944 172,-29.7046"/>
<polygon fill="#191970" stroke="#191970" points="175.5001,-29.6426 172,-19.6427 168.5001,-29.6427 175.5001,-29.6426"/>
</g>
</g>
</svg>
