<?xml version="1.0" encoding="UTF-8" standalone="no"?>
<!DOCTYPE svg PUBLIC "-//W3C//DTD SVG 1.1//EN"
 "http://www.w3.org/Graphics/SVG/1.1/DTD/svg11.dtd">
<!-- Generated by graphviz version 2.40.1 (0)
 -->
<!-- Title: drivers/include/periph/rtc_mem.h Pages: 1 -->
<svg width="134pt" height="95pt"
 viewBox="0.00 0.00 134.00 95.00" xmlns="http://www.w3.org/2000/svg" xmlns:xlink="http://www.w3.org/1999/xlink">
<g id="graph0" class="graph" transform="scale(1 1) rotate(0) translate(4 91)">
<title>drivers/include/periph/rtc_mem.h</title>
<polygon fill="#ffffff" stroke="transparent" points="-4,4 -4,-91 130,-91 130,4 -4,4"/>
<!-- Node0 -->
<g id="node1" class="node">
<title>Node0</title>
<polygon fill="#bfbfbf" stroke="#000000" points="3.5,-56.5 3.5,-86.5 124.5,-86.5 124.5,-56.5 3.5,-56.5"/>
<text text-anchor="start" x="11.5" y="-74.5" font-family="Helvetica,sans-Serif" font-size="10.00" fill="#000000">drivers/include/periph</text>
<text text-anchor="middle" x="64" y="-63.5" font-family="Helvetica,sans-Serif" font-size="10.00" fill="#000000">/rtc_mem.h</text>
</g>
<!-- Node1 -->
<g id="node2" class="node">
<title>Node1</title>
<polygon fill="#ffffff" stroke="#bfbfbf" points="0,-.5 0,-19.5 56,-19.5 56,-.5 0,-.5"/>
<text text-anchor="middle" x="28" y="-7.5" font-family="Helvetica,sans-Serif" font-size="10.00" fill="#000000">stddef.h</text>
</g>
<!-- Node0&#45;&gt;Node1 -->
<g id="edge1" class="edge">
<title>Node0&#45;&gt;Node1</title>
<path fill="none" stroke="#191970" d="M55.1011,-56.2977C50.2081,-47.9388 44.0974,-37.4997 38.9176,-28.6509"/>
<polygon fill="#191970" stroke="#191970" points="41.8365,-26.7089 33.7641,-19.8469 35.7953,-30.2452 41.8365,-26.7089"/>
</g>
<!-- Node2 -->
<g id="node3" class="node">
<title>Node2</title>
<polygon fill="#ffffff" stroke="#bfbfbf" points="74,-.5 74,-19.5 126,-19.5 126,-.5 74,-.5"/>
<text text-anchor="middle" x="100" y="-7.5" font-family="Helvetica,sans-Serif" font-size="10.00" fill="#000000">stdint.h</text>
</g>
<!-- Node0&#45;&gt;Node2 -->
<g id="edge2" class="edge">
<title>Node0&#45;&gt;Node2</title>
<path fill="none" stroke="#191970" d="M72.8989,-56.2977C77.7919,-47.9388 83.9026,-37.4997 89.0824,-28.6509"/>
<polygon fill="#191970" stroke="#191970" points="92.2047,-30.2452 94.2359,-19.8469 86.1635,-26.7089 92.2047,-30.2452"/>
</g>
</g>
</svg>
