<?xml version="1.0" encoding="UTF-8" standalone="no"?>
<!DOCTYPE svg PUBLIC "-//W3C//DTD SVG 1.1//EN"
 "http://www.w3.org/Graphics/SVG/1.1/DTD/svg11.dtd">
<!-- Generated by graphviz version 2.40.1 (0)
 -->
<!-- Title: drivers/include/periph/rtt.h Pages: 1 -->
<svg width="160pt" height="95pt"
 viewBox="0.00 0.00 159.50 95.00" xmlns="http://www.w3.org/2000/svg" xmlns:xlink="http://www.w3.org/1999/xlink">
<g id="graph0" class="graph" transform="scale(1 1) rotate(0) translate(4 91)">
<title>drivers/include/periph/rtt.h</title>
<polygon fill="#ffffff" stroke="transparent" points="-4,4 -4,-91 155.5,-91 155.5,4 -4,4"/>
<!-- Node0 -->
<g id="node1" class="node">
<title>Node0</title>
<polygon fill="#bfbfbf" stroke="#000000" points="7.5,-56.5 7.5,-86.5 128.5,-86.5 128.5,-56.5 7.5,-56.5"/>
<text text-anchor="start" x="15.5" y="-74.5" font-family="Helvetica,sans-Serif" font-size="10.00" fill="#000000">drivers/include/periph</text>
<text text-anchor="middle" x="68" y="-63.5" font-family="Helvetica,sans-Serif" font-size="10.00" fill="#000000">/rtt.h</text>
</g>
<!-- Node1 -->
<g id="node2" class="node">
<title>Node1</title>
<polygon fill="#ffffff" stroke="#bfbfbf" points="0,-.5 0,-19.5 52,-19.5 52,-.5 0,-.5"/>
<text text-anchor="middle" x="26" y="-7.5" font-family="Helvetica,sans-Serif" font-size="10.00" fill="#000000">stdint.h</text>
</g>
<!-- Node0&#45;&gt;Node1 -->
<g id="edge1" class="edge">
<title>Node0&#45;&gt;Node1</title>
<path fill="none" stroke="#191970" d="M57.618,-56.2977C51.8487,-47.8498 44.6284,-37.2773 38.5447,-28.369"/>
<polygon fill="#191970" stroke="#191970" points="41.2547,-26.1311 32.7247,-19.8469 35.4741,-30.0788 41.2547,-26.1311"/>
</g>
<!-- Node2 -->
<g id="node3" class="node">
<title>Node2</title>
<polygon fill="#ffffff" stroke="#bfbfbf" points="70.5,-.5 70.5,-19.5 151.5,-19.5 151.5,-.5 70.5,-.5"/>
<text text-anchor="middle" x="111" y="-7.5" font-family="Helvetica,sans-Serif" font-size="10.00" fill="#000000">periph_conf.h</text>
</g>
<!-- Node0&#45;&gt;Node2 -->
<g id="edge2" class="edge">
<title>Node0&#45;&gt;Node2</title>
<path fill="none" stroke="#191970" d="M78.6292,-56.2977C84.5981,-47.7609 92.0838,-37.0545 98.3529,-28.0883"/>
<polygon fill="#191970" stroke="#191970" points="101.2534,-30.048 104.1152,-19.8469 95.5165,-26.0368 101.2534,-30.048"/>
</g>
</g>
</svg>
