<?xml version="1.0" encoding="UTF-8" standalone="no"?>
<!DOCTYPE svg PUBLIC "-//W3C//DTD SVG 1.1//EN"
 "http://www.w3.org/Graphics/SVG/1.1/DTD/svg11.dtd">
<!-- Generated by graphviz version 2.40.1 (0)
 -->
<!-- Title: boards/samd21&#45;xpro/include/board.h Pages: 1 -->
<svg width="462pt" height="151pt"
 viewBox="0.00 0.00 461.50 151.00" xmlns="http://www.w3.org/2000/svg" xmlns:xlink="http://www.w3.org/1999/xlink">
<g id="graph0" class="graph" transform="scale(1 1) rotate(0) translate(4 147)">
<title>boards/samd21&#45;xpro/include/board.h</title>
<polygon fill="#ffffff" stroke="transparent" points="-4,4 -4,-147 457.5,-147 457.5,4 -4,4"/>
<!-- Node0 -->
<g id="node1" class="node">
<title>Node0</title>
<polygon fill="#bfbfbf" stroke="#000000" points="71,-112.5 71,-142.5 185,-142.5 185,-112.5 71,-112.5"/>
<text text-anchor="start" x="79" y="-130.5" font-family="Helvetica,sans-Serif" font-size="10.00" fill="#000000">boards/samd21&#45;xpro</text>
<text text-anchor="middle" x="128" y="-119.5" font-family="Helvetica,sans-Serif" font-size="10.00" fill="#000000">/include/board.h</text>
</g>
<!-- Node1 -->
<g id="node2" class="node">
<title>Node1</title>
<polygon fill="#ffffff" stroke="#bfbfbf" points="0,-.5 0,-19.5 42,-19.5 42,-.5 0,-.5"/>
<text text-anchor="middle" x="21" y="-7.5" font-family="Helvetica,sans-Serif" font-size="10.00" fill="#000000">cpu.h</text>
</g>
<!-- Node0&#45;&gt;Node1 -->
<g id="edge1" class="edge">
<title>Node0&#45;&gt;Node1</title>
<path fill="none" stroke="#191970" d="M92.1263,-112.4426C75.4979,-103.8899 56.6618,-91.7199 44,-76 33.3093,-62.7273 27.4261,-44.1518 24.2933,-30.0875"/>
<polygon fill="#191970" stroke="#191970" points="27.6698,-29.1143 22.3311,-19.9629 20.7977,-30.4461 27.6698,-29.1143"/>
</g>
<!-- Node2 -->
<g id="node3" class="node">
<title>Node2</title>
<g id="a_node3"><a xlink:href="boards_2samd21-xpro_2include_2periph__conf_8h.html" target="_top" xlink:title="Configuration of CPU peripherals for the Atmel SAM D21 Xplained Pro board. ">
<polygon fill="#ffffff" stroke="#000000" points="53.5,-56.5 53.5,-75.5 134.5,-75.5 134.5,-56.5 53.5,-56.5"/>
<text text-anchor="middle" x="94" y="-63.5" font-family="Helvetica,sans-Serif" font-size="10.00" fill="#000000">periph_conf.h</text>
</a>
</g>
</g>
<!-- Node0&#45;&gt;Node2 -->
<g id="edge2" class="edge">
<title>Node0&#45;&gt;Node2</title>
<path fill="none" stroke="#191970" d="M119.5955,-112.2977C114.9743,-103.9388 109.2031,-93.4997 104.3111,-84.6509"/>
<polygon fill="#191970" stroke="#191970" points="107.3452,-82.9051 99.4438,-75.8469 101.2191,-86.292 107.3452,-82.9051"/>
</g>
<!-- Node4 -->
<g id="node5" class="node">
<title>Node4</title>
<polygon fill="#ffffff" stroke="#bfbfbf" points="130.5,-.5 130.5,-19.5 207.5,-19.5 207.5,-.5 130.5,-.5"/>
<text text-anchor="middle" x="169" y="-7.5" font-family="Helvetica,sans-Serif" font-size="10.00" fill="#000000">periph_cpu.h</text>
</g>
<!-- Node0&#45;&gt;Node4 -->
<g id="edge6" class="edge">
<title>Node0&#45;&gt;Node4</title>
<path fill="none" stroke="#191970" d="M133.36,-112.1389C140.7805,-90.873 154.1806,-52.4702 162.2671,-29.2956"/>
<polygon fill="#191970" stroke="#191970" points="165.6743,-30.1543 165.6644,-19.5595 159.0651,-27.8481 165.6743,-30.1543"/>
</g>
<!-- Node5 -->
<g id="node6" class="node">
<title>Node5</title>
<g id="a_node6"><a xlink:href="drivers_2include_2periph_2gpio_8h.html" target="_top" xlink:title="Low&#45;level GPIO peripheral driver interface definitions. ">
<polygon fill="#ffffff" stroke="#000000" points="211,-56.5 211,-75.5 291,-75.5 291,-56.5 211,-56.5"/>
<text text-anchor="middle" x="251" y="-63.5" font-family="Helvetica,sans-Serif" font-size="10.00" fill="#000000">periph/gpio.h</text>
</a>
</g>
</g>
<!-- Node0&#45;&gt;Node5 -->
<g id="edge7" class="edge">
<title>Node0&#45;&gt;Node5</title>
<path fill="none" stroke="#191970" d="M158.0892,-112.4554C177.8019,-102.599 203.4002,-89.7999 222.7347,-80.1327"/>
<polygon fill="#191970" stroke="#191970" points="224.5603,-83.133 231.9394,-75.5303 221.4298,-76.872 224.5603,-83.133"/>
</g>
<!-- Node2&#45;&gt;Node1 -->
<g id="edge4" class="edge">
<title>Node2&#45;&gt;Node1</title>
<path fill="none" stroke="#191970" d="M81.2844,-56.2455C70.398,-47.8943 54.5117,-35.7076 41.78,-25.9408"/>
<polygon fill="#191970" stroke="#191970" points="43.6346,-22.9523 33.5699,-19.6427 39.3739,-28.5063 43.6346,-22.9523"/>
</g>
<!-- Node3 -->
<g id="node4" class="node">
<title>Node3</title>
<polygon fill="#ffffff" stroke="#bfbfbf" points="60,-.5 60,-19.5 112,-19.5 112,-.5 60,-.5"/>
<text text-anchor="middle" x="86" y="-7.5" font-family="Helvetica,sans-Serif" font-size="10.00" fill="#000000">stdint.h</text>
</g>
<!-- Node2&#45;&gt;Node3 -->
<g id="edge3" class="edge">
<title>Node2&#45;&gt;Node3</title>
<path fill="none" stroke="#191970" d="M92.6065,-56.2455C91.5626,-48.9382 90.0992,-38.6944 88.8149,-29.7046"/>
<polygon fill="#191970" stroke="#191970" points="92.2566,-29.0472 87.3775,-19.6427 85.327,-30.0372 92.2566,-29.0472"/>
</g>
<!-- Node2&#45;&gt;Node4 -->
<g id="edge5" class="edge">
<title>Node2&#45;&gt;Node4</title>
<path fill="none" stroke="#191970" d="M107.064,-56.2455C118.3562,-47.814 134.8845,-35.4729 148.0271,-25.6598"/>
<polygon fill="#191970" stroke="#191970" points="150.1669,-28.4301 156.0857,-19.6427 145.9789,-22.8211 150.1669,-28.4301"/>
</g>
<!-- Node5&#45;&gt;Node4 -->
<g id="edge10" class="edge">
<title>Node5&#45;&gt;Node4</title>
<path fill="none" stroke="#191970" d="M236.7167,-56.2455C224.253,-47.7337 205.9549,-35.2375 191.5208,-25.3801"/>
<polygon fill="#191970" stroke="#191970" points="193.3515,-22.392 183.1196,-19.6427 189.4038,-28.1726 193.3515,-22.392"/>
</g>
<!-- Node6 -->
<g id="node7" class="node">
<title>Node6</title>
<polygon fill="#ffffff" stroke="#bfbfbf" points="226,-.5 226,-19.5 276,-19.5 276,-.5 226,-.5"/>
<text text-anchor="middle" x="251" y="-7.5" font-family="Helvetica,sans-Serif" font-size="10.00" fill="#000000">limits.h</text>
</g>
<!-- Node5&#45;&gt;Node6 -->
<g id="edge8" class="edge">
<title>Node5&#45;&gt;Node6</title>
<path fill="none" stroke="#191970" d="M251,-56.2455C251,-48.9382 251,-38.6944 251,-29.7046"/>
<polygon fill="#191970" stroke="#191970" points="254.5001,-29.6426 251,-19.6427 247.5001,-29.6427 254.5001,-29.6426"/>
</g>
<!-- Node7 -->
<g id="node8" class="node">
<title>Node7</title>
<polygon fill="#ffffff" stroke="#bfbfbf" points="294,-.5 294,-19.5 354,-19.5 354,-.5 294,-.5"/>
<text text-anchor="middle" x="324" y="-7.5" font-family="Helvetica,sans-Serif" font-size="10.00" fill="#000000">stdbool.h</text>
</g>
<!-- Node5&#45;&gt;Node7 -->
<g id="edge9" class="edge">
<title>Node5&#45;&gt;Node7</title>
<path fill="none" stroke="#191970" d="M263.7156,-56.2455C274.602,-47.8943 290.4883,-35.7076 303.22,-25.9408"/>
<polygon fill="#191970" stroke="#191970" points="305.6261,-28.5063 311.4301,-19.6427 301.3654,-22.9523 305.6261,-28.5063"/>
</g>
<!-- Node8 -->
<g id="node9" class="node">
<title>Node8</title>
<polygon fill="#ffffff" stroke="#bfbfbf" points="372.5,-.5 372.5,-19.5 453.5,-19.5 453.5,-.5 372.5,-.5"/>
<text text-anchor="middle" x="413" y="-7.5" font-family="Helvetica,sans-Serif" font-size="10.00" fill="#000000">periph_conf.h</text>
</g>
<!-- Node5&#45;&gt;Node8 -->
<g id="edge11" class="edge">
<title>Node5&#45;&gt;Node8</title>
<path fill="none" stroke="#191970" d="M278.8488,-56.3733C305.6703,-47.1016 346.4127,-33.0178 375.9598,-22.804"/>
<polygon fill="#191970" stroke="#191970" points="377.2069,-26.0762 385.5146,-19.5011 374.9198,-19.4603 377.2069,-26.0762"/>
</g>
</g>
</svg>
