<?xml version="1.0" encoding="UTF-8" standalone="no"?>
<!DOCTYPE svg PUBLIC "-//W3C//DTD SVG 1.1//EN"
 "http://www.w3.org/Graphics/SVG/1.1/DTD/svg11.dtd">
<!-- Generated by graphviz version 2.40.1 (0)
 -->
<!-- Title: cpu/samd5x/include/can_params.h Pages: 1 -->
<svg width="1320pt" height="599pt"
 viewBox="0.00 0.00 1319.83 599.00" xmlns="http://www.w3.org/2000/svg" xmlns:xlink="http://www.w3.org/1999/xlink">
<g id="graph0" class="graph" transform="scale(1 1) rotate(0) translate(4 595)">
<title>cpu/samd5x/include/can_params.h</title>
<polygon fill="#ffffff" stroke="transparent" points="-4,4 -4,-595 1315.8339,-595 1315.8339,4 -4,4"/>
<!-- Node0 -->
<g id="node1" class="node">
<title>Node0</title>
<polygon fill="#bfbfbf" stroke="#000000" points="500.3339,-560.5 500.3339,-590.5 610.3339,-590.5 610.3339,-560.5 500.3339,-560.5"/>
<text text-anchor="start" x="508.3339" y="-578.5" font-family="Helvetica,sans-Serif" font-size="10.00" fill="#000000">cpu/samd5x/include</text>
<text text-anchor="middle" x="555.3339" y="-567.5" font-family="Helvetica,sans-Serif" font-size="10.00" fill="#000000">/can_params.h</text>
</g>
<!-- Node1 -->
<g id="node2" class="node">
<title>Node1</title>
<g id="a_node2"><a xlink:href="sys_2include_2can_2device_8h.html" target="_top" xlink:title="Definitions of CAN device interface. ">
<polygon fill="#ffffff" stroke="#000000" points="517.8339,-504.5 517.8339,-523.5 592.8339,-523.5 592.8339,-504.5 517.8339,-504.5"/>
<text text-anchor="middle" x="555.3339" y="-511.5" font-family="Helvetica,sans-Serif" font-size="10.00" fill="#000000">can/device.h</text>
</a>
</g>
</g>
<!-- Node0&#45;&gt;Node1 -->
<g id="edge1" class="edge">
<title>Node0&#45;&gt;Node1</title>
<path fill="none" stroke="#191970" d="M555.3339,-560.2977C555.3339,-552.3834 555.3339,-542.6043 555.3339,-534.0759"/>
<polygon fill="#191970" stroke="#191970" points="558.834,-533.8469 555.3339,-523.8469 551.834,-533.847 558.834,-533.8469"/>
</g>
<!-- Node2 -->
<g id="node3" class="node">
<title>Node2</title>
<g id="a_node3"><a xlink:href="candev_8h.html" target="_top" xlink:title="Definitions for low&#45;level CAN driver interface. ">
<polygon fill="#ffffff" stroke="#000000" points="674.8339,-448.5 674.8339,-467.5 751.8339,-467.5 751.8339,-448.5 674.8339,-448.5"/>
<text text-anchor="middle" x="713.3339" y="-455.5" font-family="Helvetica,sans-Serif" font-size="10.00" fill="#000000">can/candev.h</text>
</a>
</g>
</g>
<!-- Node1&#45;&gt;Node2 -->
<g id="edge2" class="edge">
<title>Node1&#45;&gt;Node2</title>
<path fill="none" stroke="#191970" d="M582.4951,-504.3733C608.5406,-495.1419 648.0455,-481.1402 676.8318,-470.9375"/>
<polygon fill="#191970" stroke="#191970" points="678.271,-474.1408 686.5272,-467.5011 675.9324,-467.5429 678.271,-474.1408"/>
</g>
<!-- Node30 -->
<g id="node31" class="node">
<title>Node30</title>
<g id="a_node31"><a xlink:href="sched_8h.html" target="_top" xlink:title="Scheduler API definition. ">
<polygon fill="#ffffff" stroke="#000000" points="553.8339,-224.5 553.8339,-243.5 606.8339,-243.5 606.8339,-224.5 553.8339,-224.5"/>
<text text-anchor="middle" x="580.3339" y="-231.5" font-family="Helvetica,sans-Serif" font-size="10.00" fill="#000000">sched.h</text>
</a>
</g>
</g>
<!-- Node1&#45;&gt;Node30 -->
<g id="edge59" class="edge">
<title>Node1&#45;&gt;Node30</title>
<path fill="none" stroke="#191970" d="M550.4647,-504.3939C541.2852,-485.3677 522.3339,-441.3256 522.3339,-402 522.3339,-402 522.3339,-402 522.3339,-346 522.3339,-315.4754 526.9207,-306.9075 541.3339,-280 546.9698,-269.4785 555.3201,-259.2058 562.8496,-251.0467"/>
<polygon fill="#191970" stroke="#191970" points="565.5505,-253.2882 569.9746,-243.6612 560.5127,-248.428 565.5505,-253.2882"/>
</g>
<!-- Node3 -->
<g id="node4" class="node">
<title>Node3</title>
<polygon fill="#ffffff" stroke="#bfbfbf" points="573.3339,-.5 573.3339,-19.5 625.3339,-19.5 625.3339,-.5 573.3339,-.5"/>
<text text-anchor="middle" x="599.3339" y="-7.5" font-family="Helvetica,sans-Serif" font-size="10.00" fill="#000000">stdint.h</text>
</g>
<!-- Node2&#45;&gt;Node3 -->
<g id="edge3" class="edge">
<title>Node2&#45;&gt;Node3</title>
<path fill="none" stroke="#191970" d="M752.0094,-453.6107C870.7921,-439.614 1222.3339,-394.1251 1222.3339,-346 1222.3339,-346 1222.3339,-346 1222.3339,-122 1222.3339,-116.1234 1236.3687,-99.742 1054.3339,-56 974.7972,-36.8877 728.5112,-18.7401 635.4454,-12.3868"/>
<polygon fill="#191970" stroke="#191970" points="635.6,-8.8893 625.3863,-11.7054 635.1269,-15.8733 635.6,-8.8893"/>
</g>
<!-- Node4 -->
<g id="node5" class="node">
<title>Node4</title>
<polygon fill="#ffffff" stroke="#bfbfbf" points="246.3339,-168.5 246.3339,-187.5 296.3339,-187.5 296.3339,-168.5 246.3339,-168.5"/>
<text text-anchor="middle" x="271.3339" y="-175.5" font-family="Helvetica,sans-Serif" font-size="10.00" fill="#000000">stdlib.h</text>
</g>
<!-- Node2&#45;&gt;Node4 -->
<g id="edge4" class="edge">
<title>Node2&#45;&gt;Node4</title>
<path fill="none" stroke="#191970" d="M675.9773,-448.4335C584.5233,-424.2983 353.0871,-358.6714 301.3339,-300 275.9454,-271.2176 271.2849,-224.3637 270.8525,-197.8793"/>
<polygon fill="#191970" stroke="#191970" points="274.3533,-197.5954 270.8849,-187.5844 267.3534,-197.5733 274.3533,-197.5954"/>
</g>
<!-- Node5 -->
<g id="node6" class="node">
<title>Node5</title>
<g id="a_node6"><a xlink:href="sys_2include_2can_2can_8h.html" target="_top" xlink:title="Definitions high&#45;level CAN interface. ">
<polygon fill="#ffffff" stroke="#000000" points="1250.8339,-336.5 1250.8339,-355.5 1311.8339,-355.5 1311.8339,-336.5 1250.8339,-336.5"/>
<text text-anchor="middle" x="1281.3339" y="-343.5" font-family="Helvetica,sans-Serif" font-size="10.00" fill="#000000">can/can.h</text>
</a>
</g>
</g>
<!-- Node2&#45;&gt;Node5 -->
<g id="edge5" class="edge">
<title>Node2&#45;&gt;Node5</title>
<path fill="none" stroke="#191970" d="M751.8829,-456.5056C865.6783,-451.8322 1194.8013,-436.3376 1236.3339,-412 1254.394,-401.417 1266.8009,-380.3701 1273.9427,-364.8772"/>
<polygon fill="#191970" stroke="#191970" points="1277.1687,-366.2348 1277.882,-355.664 1270.7323,-363.4827 1277.1687,-366.2348"/>
</g>
<!-- Node6 -->
<g id="node7" class="node">
<title>Node6</title>
<g id="a_node7"><a xlink:href="sys_2include_2can_2common_8h.html" target="_top" xlink:title="Definitions of high&#45;level CAN interface. ">
<polygon fill="#ffffff" stroke="#000000" points="87.3339,-280.5 87.3339,-299.5 173.3339,-299.5 173.3339,-280.5 87.3339,-280.5"/>
<text text-anchor="middle" x="130.3339" y="-287.5" font-family="Helvetica,sans-Serif" font-size="10.00" fill="#000000">can/common.h</text>
</a>
</g>
</g>
<!-- Node2&#45;&gt;Node6 -->
<g id="edge7" class="edge">
<title>Node2&#45;&gt;Node6</title>
<path fill="none" stroke="#191970" d="M674.6075,-450.4018C600.3537,-435.4225 433.1799,-399.7089 296.3339,-356 248.1413,-340.6072 193.9646,-318.033 160.9978,-303.6795"/>
<polygon fill="#191970" stroke="#191970" points="162.0416,-300.3156 151.4778,-299.5059 159.231,-306.7266 162.0416,-300.3156"/>
</g>
<!-- Node13 -->
<g id="node14" class="node">
<title>Node13</title>
<g id="a_node14"><a xlink:href="mutex_8h.html" target="_top" xlink:title="Mutex for thread synchronization. ">
<polygon fill="#ffffff" stroke="#000000" points="829.3339,-392.5 829.3339,-411.5 885.3339,-411.5 885.3339,-392.5 829.3339,-392.5"/>
<text text-anchor="middle" x="857.3339" y="-399.5" font-family="Helvetica,sans-Serif" font-size="10.00" fill="#000000">mutex.h</text>
</a>
</g>
</g>
<!-- Node2&#45;&gt;Node13 -->
<g id="edge17" class="edge">
<title>Node2&#45;&gt;Node13</title>
<path fill="none" stroke="#191970" d="M738.0884,-448.3733C761.6188,-439.2226 797.2026,-425.3844 823.3765,-415.2057"/>
<polygon fill="#191970" stroke="#191970" points="824.851,-418.3877 832.9025,-411.5011 822.3138,-411.8636 824.851,-418.3877"/>
</g>
<!-- Node5&#45;&gt;Node3 -->
<g id="edge6" class="edge">
<title>Node5&#45;&gt;Node3</title>
<path fill="none" stroke="#191970" d="M1279.9012,-336.4373C1277.1361,-317.1257 1271.3339,-272.0675 1271.3339,-234 1271.3339,-234 1271.3339,-234 1271.3339,-122 1271.3339,-88.7973 1264.1495,-74.1304 1236.3339,-56 1185.9082,-23.1321 762.7152,-12.9266 635.4163,-10.5859"/>
<polygon fill="#191970" stroke="#191970" points="635.4576,-7.0861 625.3966,-10.4068 635.3324,-14.085 635.4576,-7.0861"/>
</g>
<!-- Node6&#45;&gt;Node3 -->
<g id="edge8" class="edge">
<title>Node6&#45;&gt;Node3</title>
<path fill="none" stroke="#191970" d="M87.0797,-281.6251C64.0075,-275.0512 36.8444,-263.6015 19.3339,-244 -1.0018,-221.2358 .3339,-208.5246 .3339,-178 .3339,-178 .3339,-178 .3339,-122 .3339,-64.4389 433.2381,-23.8023 563.0017,-12.9144"/>
<polygon fill="#191970" stroke="#191970" points="563.5343,-16.3823 573.2105,-12.067 562.9552,-9.4063 563.5343,-16.3823"/>
</g>
<!-- Node7 -->
<g id="node8" class="node">
<title>Node7</title>
<g id="a_node8"><a xlink:href="uio_8h.html" target="_top" xlink:title="libc header for scatter/gather I/O ">
<polygon fill="#ffffff" stroke="#000000" points="174.3339,-224.5 174.3339,-243.5 232.3339,-243.5 232.3339,-224.5 174.3339,-224.5"/>
<text text-anchor="middle" x="203.3339" y="-231.5" font-family="Helvetica,sans-Serif" font-size="10.00" fill="#000000">sys/uio.h</text>
</a>
</g>
</g>
<!-- Node6&#45;&gt;Node7 -->
<g id="edge9" class="edge">
<title>Node6&#45;&gt;Node7</title>
<path fill="none" stroke="#191970" d="M143.0496,-280.2455C153.936,-271.8943 169.8222,-259.7076 182.5539,-249.9408"/>
<polygon fill="#191970" stroke="#191970" points="184.96,-252.5063 190.764,-243.6427 180.6994,-246.9523 184.96,-252.5063"/>
</g>
<!-- Node9 -->
<g id="node10" class="node">
<title>Node9</title>
<g id="a_node10"><a xlink:href="timex_8h.html" target="_top" xlink:title="Utility library for comparing and computing timestamps. ">
<polygon fill="#ffffff" stroke="#000000" points="104.3339,-224.5 104.3339,-243.5 156.3339,-243.5 156.3339,-224.5 104.3339,-224.5"/>
<text text-anchor="middle" x="130.3339" y="-231.5" font-family="Helvetica,sans-Serif" font-size="10.00" fill="#000000">timex.h</text>
</a>
</g>
</g>
<!-- Node6&#45;&gt;Node9 -->
<g id="edge12" class="edge">
<title>Node6&#45;&gt;Node9</title>
<path fill="none" stroke="#191970" d="M130.3339,-280.2455C130.3339,-272.9382 130.3339,-262.6944 130.3339,-253.7046"/>
<polygon fill="#191970" stroke="#191970" points="133.834,-253.6426 130.3339,-243.6427 126.834,-253.6427 133.834,-253.6426"/>
</g>
<!-- Node12 -->
<g id="node13" class="node">
<title>Node12</title>
<polygon fill="#ffffff" stroke="#bfbfbf" points="28.8339,-224.5 28.8339,-243.5 85.8339,-243.5 85.8339,-224.5 28.8339,-224.5"/>
<text text-anchor="middle" x="57.3339" y="-231.5" font-family="Helvetica,sans-Serif" font-size="10.00" fill="#000000">thread.h</text>
</g>
<!-- Node6&#45;&gt;Node12 -->
<g id="edge16" class="edge">
<title>Node6&#45;&gt;Node12</title>
<path fill="none" stroke="#191970" d="M117.6183,-280.2455C106.7319,-271.8943 90.8457,-259.7076 78.1139,-249.9408"/>
<polygon fill="#191970" stroke="#191970" points="79.9685,-246.9523 69.9039,-243.6427 75.7079,-252.5063 79.9685,-246.9523"/>
</g>
<!-- Node7&#45;&gt;Node4 -->
<g id="edge10" class="edge">
<title>Node7&#45;&gt;Node4</title>
<path fill="none" stroke="#191970" d="M215.1786,-224.2455C225.2219,-215.9746 239.8334,-203.9416 251.6343,-194.2232"/>
<polygon fill="#191970" stroke="#191970" points="254.1306,-196.7015 259.625,-187.6427 249.6807,-191.298 254.1306,-196.7015"/>
</g>
<!-- Node8 -->
<g id="node9" class="node">
<title>Node8</title>
<polygon fill="#ffffff" stroke="#bfbfbf" points="158.8339,-168.5 158.8339,-187.5 227.8339,-187.5 227.8339,-168.5 158.8339,-168.5"/>
<text text-anchor="middle" x="193.3339" y="-175.5" font-family="Helvetica,sans-Serif" font-size="10.00" fill="#000000">sys/types.h</text>
</g>
<!-- Node7&#45;&gt;Node8 -->
<g id="edge11" class="edge">
<title>Node7&#45;&gt;Node8</title>
<path fill="none" stroke="#191970" d="M201.5921,-224.2455C200.2872,-216.9382 198.4579,-206.6944 196.8526,-197.7046"/>
<polygon fill="#191970" stroke="#191970" points="200.2593,-196.8717 195.0558,-187.6427 193.3683,-198.1022 200.2593,-196.8717"/>
</g>
<!-- Node9&#45;&gt;Node3 -->
<g id="edge13" class="edge">
<title>Node9&#45;&gt;Node3</title>
<path fill="none" stroke="#191970" d="M104.6563,-224.3736C77.6596,-212.7311 41.1699,-191.7196 57.3339,-168 116.0177,-81.8858 451.1613,-29.8184 563.0061,-14.6512"/>
<polygon fill="#191970" stroke="#191970" points="563.6684,-18.0939 573.1159,-13.2987 562.7401,-11.1557 563.6684,-18.0939"/>
</g>
<!-- Node10 -->
<g id="node11" class="node">
<title>Node10</title>
<g id="a_node11"><a xlink:href="inttypes_8h.html" target="_top" xlink:title="Adds include for missing inttype definitions. ">
<polygon fill="#ffffff" stroke="#000000" points="608.8339,-168.5 608.8339,-187.5 671.8339,-187.5 671.8339,-168.5 608.8339,-168.5"/>
<text text-anchor="middle" x="640.3339" y="-175.5" font-family="Helvetica,sans-Serif" font-size="10.00" fill="#000000">inttypes.h</text>
</a>
</g>
</g>
<!-- Node9&#45;&gt;Node10 -->
<g id="edge14" class="edge">
<title>Node9&#45;&gt;Node10</title>
<path fill="none" stroke="#191970" d="M156.581,-225.9291C159.5155,-225.1977 162.4763,-224.5332 165.3339,-224 339.061,-191.5823 385.6433,-207.0996 561.3339,-188 573.3458,-186.6942 586.3637,-185.1144 598.3007,-183.6"/>
<polygon fill="#191970" stroke="#191970" points="598.9878,-187.0406 608.4601,-182.2945 598.0955,-180.0977 598.9878,-187.0406"/>
</g>
<!-- Node11 -->
<g id="node12" class="node">
<title>Node11</title>
<g id="a_node12"><a xlink:href="time__units_8h.html" target="_top" xlink:title="Utility header providing time unit defines. ">
<polygon fill="#ffffff" stroke="#000000" points="66.3339,-168.5 66.3339,-187.5 140.3339,-187.5 140.3339,-168.5 66.3339,-168.5"/>
<text text-anchor="middle" x="103.3339" y="-175.5" font-family="Helvetica,sans-Serif" font-size="10.00" fill="#000000">time_units.h</text>
</a>
</g>
</g>
<!-- Node9&#45;&gt;Node11 -->
<g id="edge15" class="edge">
<title>Node9&#45;&gt;Node11</title>
<path fill="none" stroke="#191970" d="M125.6309,-224.2455C121.9916,-216.6973 116.8415,-206.0158 112.4077,-196.8197"/>
<polygon fill="#191970" stroke="#191970" points="115.4788,-195.1303 107.9831,-187.6427 109.1734,-198.1704 115.4788,-195.1303"/>
</g>
<!-- Node13&#45;&gt;Node3 -->
<g id="edge19" class="edge">
<title>Node13&#45;&gt;Node3</title>
<path fill="none" stroke="#191970" d="M885.4968,-398.5164C964.8151,-387.9266 1184.3339,-352.9339 1184.3339,-290 1184.3339,-290 1184.3339,-290 1184.3339,-122 1184.3339,-65.864 763.4352,-24.3776 635.6711,-13.0774"/>
<polygon fill="#191970" stroke="#191970" points="635.8738,-9.5819 625.6067,-12.1963 635.2633,-16.5552 635.8738,-9.5819"/>
</g>
<!-- Node14 -->
<g id="node15" class="node">
<title>Node14</title>
<polygon fill="#ffffff" stroke="#bfbfbf" points="728.3339,-56.5 728.3339,-75.5 784.3339,-75.5 784.3339,-56.5 728.3339,-56.5"/>
<text text-anchor="middle" x="756.3339" y="-63.5" font-family="Helvetica,sans-Serif" font-size="10.00" fill="#000000">stddef.h</text>
</g>
<!-- Node13&#45;&gt;Node14 -->
<g id="edge18" class="edge">
<title>Node13&#45;&gt;Node14</title>
<path fill="none" stroke="#191970" d="M885.6389,-395.7002C951.2818,-380.2729 1108.3339,-338.3143 1108.3339,-290 1108.3339,-290 1108.3339,-290 1108.3339,-178 1108.3339,-145.3496 885.5738,-93.7686 794.4708,-74.0386"/>
<polygon fill="#191970" stroke="#191970" points="795.0571,-70.5848 784.5446,-71.9023 793.5843,-77.4281 795.0571,-70.5848"/>
</g>
<!-- Node15 -->
<g id="node16" class="node">
<title>Node15</title>
<polygon fill="#ffffff" stroke="#bfbfbf" points="778.3339,-112.5 778.3339,-131.5 838.3339,-131.5 838.3339,-112.5 778.3339,-112.5"/>
<text text-anchor="middle" x="808.3339" y="-119.5" font-family="Helvetica,sans-Serif" font-size="10.00" fill="#000000">stdbool.h</text>
</g>
<!-- Node13&#45;&gt;Node15 -->
<g id="edge20" class="edge">
<title>Node13&#45;&gt;Node15</title>
<path fill="none" stroke="#191970" d="M854.5304,-392.2066C849.2453,-372.8521 838.3339,-328.2612 838.3339,-290 838.3339,-290 838.3339,-290 838.3339,-234 838.3339,-200.4397 825.6103,-163.0899 816.7355,-141.12"/>
<polygon fill="#191970" stroke="#191970" points="819.8594,-139.5191 812.7605,-131.6542 813.4054,-142.2294 819.8594,-139.5191"/>
</g>
<!-- Node16 -->
<g id="node17" class="node">
<title>Node16</title>
<g id="a_node17"><a xlink:href="architecture_8h.html" target="_top" xlink:title="Platform&#45;independent access to architecture details. ">
<polygon fill="#ffffff" stroke="#000000" points="904.8339,-224.5 904.8339,-243.5 987.8339,-243.5 987.8339,-224.5 904.8339,-224.5"/>
<text text-anchor="middle" x="946.3339" y="-231.5" font-family="Helvetica,sans-Serif" font-size="10.00" fill="#000000">architecture.h</text>
</a>
</g>
</g>
<!-- Node13&#45;&gt;Node16 -->
<g id="edge21" class="edge">
<title>Node13&#45;&gt;Node16</title>
<path fill="none" stroke="#191970" d="M864.9804,-392.4953C872.0623,-383.439 882.6316,-369.2576 890.3339,-356 910.5265,-321.2438 928.9297,-277.9423 938.7888,-253.3866"/>
<polygon fill="#191970" stroke="#191970" points="942.1553,-254.3914 942.5826,-243.8052 935.6469,-251.8144 942.1553,-254.3914"/>
</g>
<!-- Node19 -->
<g id="node20" class="node">
<title>Node19</title>
<g id="a_node20"><a xlink:href="kernel__defines_8h.html" target="_top" xlink:title="Common macros and compiler attributes/pragmas configuration. ">
<polygon fill="#ffffff" stroke="#000000" points="352.8339,-168.5 352.8339,-187.5 447.8339,-187.5 447.8339,-168.5 352.8339,-168.5"/>
<text text-anchor="middle" x="400.3339" y="-175.5" font-family="Helvetica,sans-Serif" font-size="10.00" fill="#000000">kernel_defines.h</text>
</a>
</g>
</g>
<!-- Node13&#45;&gt;Node19 -->
<g id="edge26" class="edge">
<title>Node13&#45;&gt;Node19</title>
<path fill="none" stroke="#191970" d="M829.1325,-400.293C737.3099,-394.0866 449.692,-369.3248 395.3339,-300 372.2264,-270.5302 383.392,-223.6359 392.5323,-197.3994"/>
<polygon fill="#191970" stroke="#191970" points="395.8858,-198.4237 396.1001,-187.8311 389.3269,-195.9781 395.8858,-198.4237"/>
</g>
<!-- Node25 -->
<g id="node26" class="node">
<title>Node25</title>
<g id="a_node26"><a xlink:href="list_8h.html" target="_top" xlink:title="Intrusive linked list. ">
<polygon fill="#ffffff" stroke="#000000" points="857.3339,-112.5 857.3339,-131.5 895.3339,-131.5 895.3339,-112.5 857.3339,-112.5"/>
<text text-anchor="middle" x="876.3339" y="-119.5" font-family="Helvetica,sans-Serif" font-size="10.00" fill="#000000">list.h</text>
</a>
</g>
</g>
<!-- Node13&#45;&gt;Node25 -->
<g id="edge37" class="edge">
<title>Node13&#45;&gt;Node25</title>
<path fill="none" stroke="#191970" d="M860.1375,-392.2066C865.4226,-372.8521 876.3339,-328.2612 876.3339,-290 876.3339,-290 876.3339,-290 876.3339,-234 876.3339,-201.7116 876.3339,-164.1872 876.3339,-141.8048"/>
<polygon fill="#191970" stroke="#191970" points="879.834,-141.5883 876.3339,-131.5884 872.834,-141.5884 879.834,-141.5883"/>
</g>
<!-- Node26 -->
<g id="node27" class="node">
<title>Node26</title>
<g id="a_node27"><a xlink:href="core_2include_2thread_8h.html" target="_top" xlink:title="Threading API. ">
<polygon fill="#ffffff" stroke="#000000" points="631.8339,-336.5 631.8339,-355.5 688.8339,-355.5 688.8339,-336.5 631.8339,-336.5"/>
<text text-anchor="middle" x="660.3339" y="-343.5" font-family="Helvetica,sans-Serif" font-size="10.00" fill="#000000">thread.h</text>
</a>
</g>
</g>
<!-- Node13&#45;&gt;Node26 -->
<g id="edge38" class="edge">
<title>Node13&#45;&gt;Node26</title>
<path fill="none" stroke="#191970" d="M829.1086,-393.9766C794.9263,-384.2598 737.1842,-367.8458 698.9109,-356.966"/>
<polygon fill="#191970" stroke="#191970" points="699.7235,-353.5584 689.1475,-354.1907 697.8094,-360.2917 699.7235,-353.5584"/>
</g>
<!-- Node16&#45;&gt;Node3 -->
<g id="edge22" class="edge">
<title>Node16&#45;&gt;Node3</title>
<path fill="none" stroke="#191970" d="M987.9519,-230.238C1039.2809,-223.8489 1116.6088,-207.4822 1089.3339,-168 1035.92,-90.6795 739.6527,-33.7789 635.5296,-15.9203"/>
<polygon fill="#191970" stroke="#191970" points="635.9438,-12.4406 625.4993,-14.2192 634.7733,-19.3421 635.9438,-12.4406"/>
</g>
<!-- Node16&#45;&gt;Node10 -->
<g id="edge23" class="edge">
<title>Node16&#45;&gt;Node10</title>
<path fill="none" stroke="#191970" d="M904.747,-226.3893C846.3224,-215.6972 740.5579,-196.3416 682.0589,-185.6359"/>
<polygon fill="#191970" stroke="#191970" points="682.5202,-182.1623 672.0535,-183.8049 681.26,-189.048 682.5202,-182.1623"/>
</g>
<!-- Node17 -->
<g id="node18" class="node">
<title>Node17</title>
<polygon fill="#ffffff" stroke="#bfbfbf" points="904.3339,-168.5 904.3339,-187.5 954.3339,-187.5 954.3339,-168.5 904.3339,-168.5"/>
<text text-anchor="middle" x="929.3339" y="-175.5" font-family="Helvetica,sans-Serif" font-size="10.00" fill="#000000">limits.h</text>
</g>
<!-- Node16&#45;&gt;Node17 -->
<g id="edge24" class="edge">
<title>Node16&#45;&gt;Node17</title>
<path fill="none" stroke="#191970" d="M943.3728,-224.2455C941.1301,-216.8579 937.9763,-206.4689 935.2259,-197.4087"/>
<polygon fill="#191970" stroke="#191970" points="938.5151,-196.1948 932.2612,-187.6427 931.817,-198.2282 938.5151,-196.1948"/>
</g>
<!-- Node18 -->
<g id="node19" class="node">
<title>Node18</title>
<polygon fill="#ffffff" stroke="#bfbfbf" points="972.8339,-168.5 972.8339,-187.5 1079.8339,-187.5 1079.8339,-168.5 972.8339,-168.5"/>
<text text-anchor="middle" x="1026.3339" y="-175.5" font-family="Helvetica,sans-Serif" font-size="10.00" fill="#000000">architecture_arch.h</text>
</g>
<!-- Node16&#45;&gt;Node18 -->
<g id="edge25" class="edge">
<title>Node16&#45;&gt;Node18</title>
<path fill="none" stroke="#191970" d="M960.2689,-224.2455C972.4286,-215.7337 990.2804,-203.2375 1004.3624,-193.3801"/>
<polygon fill="#191970" stroke="#191970" points="1006.3735,-196.2447 1012.5587,-187.6427 1002.3592,-190.51 1006.3735,-196.2447"/>
</g>
<!-- Node20 -->
<g id="node21" class="node">
<title>Node20</title>
<g id="a_node21"><a xlink:href="modules_8h.html" target="_top" xlink:title="Common macros and compiler attributes/pragmas configuration. ">
<polygon fill="#ffffff" stroke="#000000" points="481.8339,-112.5 481.8339,-131.5 546.8339,-131.5 546.8339,-112.5 481.8339,-112.5"/>
<text text-anchor="middle" x="514.3339" y="-119.5" font-family="Helvetica,sans-Serif" font-size="10.00" fill="#000000">modules.h</text>
</a>
</g>
</g>
<!-- Node19&#45;&gt;Node20 -->
<g id="edge27" class="edge">
<title>Node19&#45;&gt;Node20</title>
<path fill="none" stroke="#191970" d="M419.9312,-168.3733C438.0671,-159.4644 465.2474,-146.1127 485.7926,-136.0203"/>
<polygon fill="#191970" stroke="#191970" points="487.56,-139.0517 494.9924,-131.5011 484.4736,-132.7688 487.56,-139.0517"/>
</g>
<!-- Node21 -->
<g id="node22" class="node">
<title>Node21</title>
<g id="a_node22"><a xlink:href="riot__version_8h.html" target="_top" xlink:title="Common macros and compiler attributes/pragmas configuration. ">
<polygon fill="#ffffff" stroke="#000000" points="482.8339,-56.5 482.8339,-75.5 563.8339,-75.5 563.8339,-56.5 482.8339,-56.5"/>
<text text-anchor="middle" x="523.3339" y="-63.5" font-family="Helvetica,sans-Serif" font-size="10.00" fill="#000000">riot_version.h</text>
</a>
</g>
</g>
<!-- Node19&#45;&gt;Node21 -->
<g id="edge28" class="edge">
<title>Node19&#45;&gt;Node21</title>
<path fill="none" stroke="#191970" d="M410.8209,-168.4509C431.7897,-149.3574 479.1091,-106.2697 505.2064,-82.5063"/>
<polygon fill="#191970" stroke="#191970" points="507.836,-84.8455 512.8736,-75.5249 503.1231,-79.6697 507.836,-84.8455"/>
</g>
<!-- Node22 -->
<g id="node23" class="node">
<title>Node22</title>
<g id="a_node23"><a xlink:href="compiler__hints_8h.html" target="_top" xlink:title="Common macros and compiler attributes/pragmas configuration. ">
<polygon fill="#ffffff" stroke="#000000" points="331.8339,-112.5 331.8339,-131.5 424.8339,-131.5 424.8339,-112.5 331.8339,-112.5"/>
<text text-anchor="middle" x="378.3339" y="-119.5" font-family="Helvetica,sans-Serif" font-size="10.00" fill="#000000">compiler_hints.h</text>
</a>
</g>
</g>
<!-- Node19&#45;&gt;Node22 -->
<g id="edge30" class="edge">
<title>Node19&#45;&gt;Node22</title>
<path fill="none" stroke="#191970" d="M396.5018,-168.2455C393.568,-160.7776 389.4293,-150.2427 385.8429,-141.1137"/>
<polygon fill="#191970" stroke="#191970" points="389.0364,-139.6704 382.1221,-131.6427 382.5211,-142.23 389.0364,-139.6704"/>
</g>
<!-- Node24 -->
<g id="node25" class="node">
<title>Node24</title>
<g id="a_node25"><a xlink:href="container_8h.html" target="_top" xlink:title="Common macros and compiler attributes/pragmas configuration. ">
<polygon fill="#ffffff" stroke="#000000" points="564.8339,-112.5 564.8339,-131.5 633.8339,-131.5 633.8339,-112.5 564.8339,-112.5"/>
<text text-anchor="middle" x="599.3339" y="-119.5" font-family="Helvetica,sans-Serif" font-size="10.00" fill="#000000">container.h</text>
</a>
</g>
</g>
<!-- Node19&#45;&gt;Node24 -->
<g id="edge34" class="edge">
<title>Node19&#45;&gt;Node24</title>
<path fill="none" stroke="#191970" d="M434.5433,-168.3733C468.0637,-158.9404 519.2844,-144.5265 555.7149,-134.2747"/>
<polygon fill="#191970" stroke="#191970" points="556.893,-137.5792 565.571,-131.5011 554.9968,-130.8409 556.893,-137.5792"/>
</g>
<!-- Node21&#45;&gt;Node3 -->
<g id="edge29" class="edge">
<title>Node21&#45;&gt;Node3</title>
<path fill="none" stroke="#191970" d="M536.5721,-56.2455C548.0149,-47.814 564.7636,-35.4729 578.0814,-25.6598"/>
<polygon fill="#191970" stroke="#191970" points="580.2731,-28.3924 586.2475,-19.6427 576.1207,-22.757 580.2731,-28.3924"/>
</g>
<!-- Node22&#45;&gt;Node3 -->
<g id="edge33" class="edge">
<title>Node22&#45;&gt;Node3</title>
<path fill="none" stroke="#191970" d="M390.1437,-112.4264C407.6744,-98.5624 441.9994,-72.7292 474.3339,-56 503.1628,-41.0846 537.9578,-28.6961 563.5091,-20.5477"/>
<polygon fill="#191970" stroke="#191970" points="564.6599,-23.8551 573.1602,-17.5309 562.5714,-17.1739 564.6599,-23.8551"/>
</g>
<!-- Node23 -->
<g id="node24" class="node">
<title>Node23</title>
<g id="a_node24"><a xlink:href="assert_8h.html" target="_top" xlink:title="POSIX.1&#45;2008 compliant version of the assert macro. ">
<polygon fill="#ffffff" stroke="#000000" points="351.3339,-56.5 351.3339,-75.5 405.3339,-75.5 405.3339,-56.5 351.3339,-56.5"/>
<text text-anchor="middle" x="378.3339" y="-63.5" font-family="Helvetica,sans-Serif" font-size="10.00" fill="#000000">assert.h</text>
</a>
</g>
</g>
<!-- Node22&#45;&gt;Node23 -->
<g id="edge31" class="edge">
<title>Node22&#45;&gt;Node23</title>
<path fill="none" stroke="#191970" d="M378.3339,-112.2455C378.3339,-104.9382 378.3339,-94.6944 378.3339,-85.7046"/>
<polygon fill="#191970" stroke="#191970" points="381.834,-85.6426 378.3339,-75.6427 374.834,-85.6427 381.834,-85.6426"/>
</g>
<!-- Node23&#45;&gt;Node3 -->
<g id="edge32" class="edge">
<title>Node23&#45;&gt;Node3</title>
<path fill="none" stroke="#191970" d="M405.4329,-59.1333C445.1043,-49.0808 519.0644,-30.3398 563.2843,-19.1347"/>
<polygon fill="#191970" stroke="#191970" points="564.2123,-22.5103 573.0462,-16.6611 562.4928,-15.7248 564.2123,-22.5103"/>
</g>
<!-- Node24&#45;&gt;Node3 -->
<g id="edge36" class="edge">
<title>Node24&#45;&gt;Node3</title>
<path fill="none" stroke="#191970" d="M599.3339,-112.4509C599.3339,-94.184 599.3339,-53.9553 599.3339,-29.6976"/>
<polygon fill="#191970" stroke="#191970" points="602.834,-29.5249 599.3339,-19.5249 595.834,-29.5249 602.834,-29.5249"/>
</g>
<!-- Node24&#45;&gt;Node14 -->
<g id="edge35" class="edge">
<title>Node24&#45;&gt;Node14</title>
<path fill="none" stroke="#191970" d="M626.3232,-112.3733C652.2039,-103.1419 691.4587,-89.1402 720.0628,-78.9375"/>
<polygon fill="#191970" stroke="#191970" points="721.454,-82.1573 729.6969,-75.5011 719.1022,-75.5642 721.454,-82.1573"/>
</g>
<!-- Node27 -->
<g id="node28" class="node">
<title>Node27</title>
<g id="a_node28"><a xlink:href="clist_8h.html" target="_top" xlink:title="Circular linked list. ">
<polygon fill="#ffffff" stroke="#000000" points="728.8339,-168.5 728.8339,-187.5 771.8339,-187.5 771.8339,-168.5 728.8339,-168.5"/>
<text text-anchor="middle" x="750.3339" y="-175.5" font-family="Helvetica,sans-Serif" font-size="10.00" fill="#000000">clist.h</text>
</a>
</g>
</g>
<!-- Node26&#45;&gt;Node27 -->
<g id="edge39" class="edge">
<title>Node26&#45;&gt;Node27</title>
<path fill="none" stroke="#191970" d="M688.8627,-338.1078C707.7275,-331.2849 731.1501,-319.3897 743.3339,-300 762.9991,-268.7044 759.1403,-223.502 754.6679,-197.8153"/>
<polygon fill="#191970" stroke="#191970" points="758.0648,-196.9479 752.7164,-187.8021 751.1941,-198.287 758.0648,-196.9479"/>
</g>
<!-- Node28 -->
<g id="node29" class="node">
<title>Node28</title>
<g id="a_node29"><a xlink:href="cib_8h.html" target="_top" xlink:title="Circular integer buffer interface. ">
<polygon fill="#ffffff" stroke="#000000" points="310.3339,-280.5 310.3339,-299.5 348.3339,-299.5 348.3339,-280.5 310.3339,-280.5"/>
<text text-anchor="middle" x="329.3339" y="-287.5" font-family="Helvetica,sans-Serif" font-size="10.00" fill="#000000">cib.h</text>
</a>
</g>
</g>
<!-- Node26&#45;&gt;Node28 -->
<g id="edge43" class="edge">
<title>Node26&#45;&gt;Node28</title>
<path fill="none" stroke="#191970" d="M631.8266,-341.177C569.4184,-330.6185 421.2661,-305.5535 358.3736,-294.9131"/>
<polygon fill="#191970" stroke="#191970" points="358.7913,-291.4341 348.3475,-293.2168 357.6235,-298.336 358.7913,-291.4341"/>
</g>
<!-- Node29 -->
<g id="node30" class="node">
<title>Node29</title>
<g id="a_node30"><a xlink:href="core_2include_2msg_8h.html" target="_top" xlink:title="Messaging API for inter process communication. ">
<polygon fill="#ffffff" stroke="#000000" points="688.8339,-280.5 688.8339,-299.5 733.8339,-299.5 733.8339,-280.5 688.8339,-280.5"/>
<text text-anchor="middle" x="711.3339" y="-287.5" font-family="Helvetica,sans-Serif" font-size="10.00" fill="#000000">msg.h</text>
</a>
</g>
</g>
<!-- Node26&#45;&gt;Node29 -->
<g id="edge45" class="edge">
<title>Node26&#45;&gt;Node29</title>
<path fill="none" stroke="#191970" d="M669.2175,-336.2455C676.5305,-328.2155 687.0731,-316.6394 695.7806,-307.0781"/>
<polygon fill="#191970" stroke="#191970" points="698.4066,-309.3928 702.5522,-299.6427 693.2312,-304.6795 698.4066,-309.3928"/>
</g>
<!-- Node26&#45;&gt;Node30 -->
<g id="edge54" class="edge">
<title>Node26&#45;&gt;Node30</title>
<path fill="none" stroke="#191970" d="M659.467,-336.2227C657.849,-322.5646 653.3616,-297.4872 641.3339,-280 632.6487,-267.3724 619.3768,-256.7727 607.4279,-248.9428"/>
<polygon fill="#191970" stroke="#191970" points="608.9914,-245.7944 598.6463,-243.5074 605.3073,-251.7465 608.9914,-245.7944"/>
</g>
<!-- Node32 -->
<g id="node33" class="node">
<title>Node32</title>
<g id="a_node33"><a xlink:href="thread__config_8h.html" target="_top" xlink:title="Thread configuration defines. ">
<polygon fill="#ffffff" stroke="#000000" points="404.3339,-280.5 404.3339,-299.5 494.3339,-299.5 494.3339,-280.5 404.3339,-280.5"/>
<text text-anchor="middle" x="449.3339" y="-287.5" font-family="Helvetica,sans-Serif" font-size="10.00" fill="#000000">thread_config.h</text>
</a>
</g>
</g>
<!-- Node26&#45;&gt;Node32 -->
<g id="edge55" class="edge">
<title>Node26&#45;&gt;Node32</title>
<path fill="none" stroke="#191970" d="M631.4377,-338.3309C596.299,-329.0049 536.5617,-313.1505 495.1333,-302.1553"/>
<polygon fill="#191970" stroke="#191970" points="495.8464,-298.7234 485.2832,-299.541 494.0507,-305.4892 495.8464,-298.7234"/>
</g>
<!-- Node34 -->
<g id="node35" class="node">
<title>Node34</title>
<polygon fill="#ffffff" stroke="#bfbfbf" points="550.3339,-280.5 550.3339,-299.5 632.3339,-299.5 632.3339,-280.5 550.3339,-280.5"/>
<text text-anchor="middle" x="591.3339" y="-287.5" font-family="Helvetica,sans-Serif" font-size="10.00" fill="#000000">thread_arch.h</text>
</g>
<!-- Node26&#45;&gt;Node34 -->
<g id="edge58" class="edge">
<title>Node26&#45;&gt;Node34</title>
<path fill="none" stroke="#191970" d="M648.3151,-336.2455C638.1241,-327.9746 623.2977,-315.9416 611.3233,-306.2232"/>
<polygon fill="#191970" stroke="#191970" points="613.1853,-303.2268 603.2151,-299.6427 608.7741,-308.662 613.1853,-303.2268"/>
</g>
<!-- Node27&#45;&gt;Node14 -->
<g id="edge41" class="edge">
<title>Node27&#45;&gt;Node14</title>
<path fill="none" stroke="#191970" d="M750.8455,-168.4509C751.8241,-150.184 753.9792,-109.9553 755.2787,-85.6976"/>
<polygon fill="#191970" stroke="#191970" points="758.7836,-85.6978 755.8237,-75.5249 751.7936,-85.3233 758.7836,-85.6978"/>
</g>
<!-- Node27&#45;&gt;Node15 -->
<g id="edge40" class="edge">
<title>Node27&#45;&gt;Node15</title>
<path fill="none" stroke="#191970" d="M760.4368,-168.2455C768.8367,-160.1352 780.9833,-148.4075 790.9423,-138.7919"/>
<polygon fill="#191970" stroke="#191970" points="793.5839,-141.1066 798.3469,-131.6427 788.7218,-136.0707 793.5839,-141.1066"/>
</g>
<!-- Node27&#45;&gt;Node25 -->
<g id="edge42" class="edge">
<title>Node27&#45;&gt;Node25</title>
<path fill="none" stroke="#191970" d="M771.9941,-168.3733C792.9268,-159.0699 824.7611,-144.9213 847.7607,-134.6992"/>
<polygon fill="#191970" stroke="#191970" points="849.3027,-137.8441 857.0193,-130.5843 846.4597,-131.4474 849.3027,-137.8441"/>
</g>
<!-- Node28&#45;&gt;Node23 -->
<g id="edge44" class="edge">
<title>Node28&#45;&gt;Node23</title>
<path fill="none" stroke="#191970" d="M326.035,-280.1239C317.2875,-252.1381 295.9758,-170.5468 323.3339,-112 329.2802,-99.2749 340.6697,-88.8307 351.5489,-81.129"/>
<polygon fill="#191970" stroke="#191970" points="353.6109,-83.9622 360.0507,-75.5491 349.77,-78.1101 353.6109,-83.9622"/>
</g>
<!-- Node29&#45;&gt;Node3 -->
<g id="edge46" class="edge">
<title>Node29&#45;&gt;Node3</title>
<path fill="none" stroke="#191970" d="M709.7579,-280.4427C706.7163,-261.1407 700.3339,-216.0991 700.3339,-178 700.3339,-178 700.3339,-178 700.3339,-122 700.3339,-77.8652 656.5451,-43.2933 626.6327,-24.8258"/>
<polygon fill="#191970" stroke="#191970" points="628.2448,-21.7126 617.8589,-19.6188 624.6722,-27.7323 628.2448,-21.7126"/>
</g>
<!-- Node29&#45;&gt;Node15 -->
<g id="edge47" class="edge">
<title>Node29&#45;&gt;Node15</title>
<path fill="none" stroke="#191970" d="M719.0285,-280.3175C732.7819,-262.7025 761.9534,-223.911 781.3339,-188 789.4994,-172.8699 796.7513,-154.7326 801.6779,-141.3033"/>
<polygon fill="#191970" stroke="#191970" points="805.0437,-142.2847 805.1034,-131.69 798.4498,-139.935 805.0437,-142.2847"/>
</g>
<!-- Node29&#45;&gt;Node30 -->
<g id="edge48" class="edge">
<title>Node29&#45;&gt;Node30</title>
<path fill="none" stroke="#191970" d="M688.8142,-280.3733C667.5967,-271.3032 635.6063,-257.6279 611.8571,-247.4755"/>
<polygon fill="#191970" stroke="#191970" points="613.1306,-244.2136 602.5598,-243.5011 610.3791,-250.6502 613.1306,-244.2136"/>
</g>
<!-- Node30&#45;&gt;Node10 -->
<g id="edge50" class="edge">
<title>Node30&#45;&gt;Node10</title>
<path fill="none" stroke="#191970" d="M590.7851,-224.2455C599.5608,-216.0549 612.2894,-204.1749 622.6479,-194.5069"/>
<polygon fill="#191970" stroke="#191970" points="625.08,-197.0246 630.0025,-187.6427 620.3038,-191.9072 625.08,-197.0246"/>
</g>
<!-- Node30&#45;&gt;Node14 -->
<g id="edge49" class="edge">
<title>Node30&#45;&gt;Node14</title>
<path fill="none" stroke="#191970" d="M581.2138,-224.1026C582.8781,-210.3019 587.5558,-185.0561 600.3339,-168 618.0712,-144.3246 690.0501,-102.4363 729.741,-80.4286"/>
<polygon fill="#191970" stroke="#191970" points="731.5489,-83.4286 738.6198,-75.5385 728.1719,-77.2971 731.5489,-83.4286"/>
</g>
<!-- Node30&#45;&gt;Node19 -->
<g id="edge51" class="edge">
<title>Node30&#45;&gt;Node19</title>
<path fill="none" stroke="#191970" d="M553.7743,-225.737C523.957,-216.4605 475.2375,-201.3033 440.7031,-190.5593"/>
<polygon fill="#191970" stroke="#191970" points="441.511,-187.1452 430.9226,-187.5165 439.4315,-193.8292 441.511,-187.1452"/>
</g>
<!-- Node30&#45;&gt;Node27 -->
<g id="edge53" class="edge">
<title>Node30&#45;&gt;Node27</title>
<path fill="none" stroke="#191970" d="M606.8964,-225.25C637.2316,-215.2572 686.8132,-198.9245 719.0079,-188.3192"/>
<polygon fill="#191970" stroke="#191970" points="720.4005,-191.5455 728.8033,-185.0924 718.2103,-184.897 720.4005,-191.5455"/>
</g>
<!-- Node31 -->
<g id="node32" class="node">
<title>Node31</title>
<g id="a_node32"><a xlink:href="native__sched_8h.html" target="_top" xlink:title="Add definitions required on the native board. ">
<polygon fill="#ffffff" stroke="#000000" points="466.3339,-168.5 466.3339,-187.5 552.3339,-187.5 552.3339,-168.5 466.3339,-168.5"/>
<text text-anchor="middle" x="509.3339" y="-175.5" font-family="Helvetica,sans-Serif" font-size="10.00" fill="#000000">native_sched.h</text>
</a>
</g>
</g>
<!-- Node30&#45;&gt;Node31 -->
<g id="edge52" class="edge">
<title>Node30&#45;&gt;Node31</title>
<path fill="none" stroke="#191970" d="M567.9667,-224.2455C557.3785,-215.8943 541.9275,-203.7076 529.5446,-193.9408"/>
<polygon fill="#191970" stroke="#191970" points="531.5787,-191.0875 521.5595,-187.6427 527.2436,-196.5837 531.5787,-191.0875"/>
</g>
<!-- Node32&#45;&gt;Node30 -->
<g id="edge57" class="edge">
<title>Node32&#45;&gt;Node30</title>
<path fill="none" stroke="#191970" d="M471.8536,-280.3733C493.0712,-271.3032 525.0616,-257.6279 548.8108,-247.4755"/>
<polygon fill="#191970" stroke="#191970" points="550.2888,-250.6502 558.1081,-243.5011 547.5372,-244.2136 550.2888,-250.6502"/>
</g>
<!-- Node33 -->
<g id="node34" class="node">
<title>Node33</title>
<polygon fill="#ffffff" stroke="#bfbfbf" points="415.8339,-224.5 415.8339,-243.5 482.8339,-243.5 482.8339,-224.5 415.8339,-224.5"/>
<text text-anchor="middle" x="449.3339" y="-231.5" font-family="Helvetica,sans-Serif" font-size="10.00" fill="#000000">cpu_conf.h</text>
</g>
<!-- Node32&#45;&gt;Node33 -->
<g id="edge56" class="edge">
<title>Node32&#45;&gt;Node33</title>
<path fill="none" stroke="#191970" d="M449.3339,-280.2455C449.3339,-272.9382 449.3339,-262.6944 449.3339,-253.7046"/>
<polygon fill="#191970" stroke="#191970" points="452.834,-253.6426 449.3339,-243.6427 445.834,-253.6427 452.834,-253.6426"/>
</g>
</g>
</svg>
