<?xml version="1.0" encoding="UTF-8" standalone="no"?>
<!DOCTYPE svg PUBLIC "-//W3C//DTD SVG 1.1//EN"
 "http://www.w3.org/Graphics/SVG/1.1/DTD/svg11.dtd">
<!-- Generated by graphviz version 2.40.1 (0)
 -->
<!-- Title: drivers/include/sdcard_spi.h Pages: 1 -->
<svg width="368pt" height="195pt"
 viewBox="0.00 0.00 368.00 195.00" xmlns="http://www.w3.org/2000/svg" xmlns:xlink="http://www.w3.org/1999/xlink">
<g id="graph0" class="graph" transform="scale(1 1) rotate(0) translate(4 191)">
<title>drivers/include/sdcard_spi.h</title>
<polygon fill="#ffffff" stroke="transparent" points="-4,4 -4,-191 364,-191 364,4 -4,4"/>
<!-- Node11 -->
<g id="node1" class="node">
<title>Node11</title>
<polygon fill="#bfbfbf" stroke="#000000" points="122,-156.5 122,-186.5 243,-186.5 243,-156.5 122,-156.5"/>
<text text-anchor="start" x="130" y="-174.5" font-family="Helvetica,sans-Serif" font-size="10.00" fill="#000000">drivers/include/sdcard</text>
<text text-anchor="middle" x="182.5" y="-163.5" font-family="Helvetica,sans-Serif" font-size="10.00" fill="#000000">_spi.h</text>
</g>
<!-- Node12 -->
<g id="node2" class="node">
<title>Node12</title>
<g id="a_node2"><a xlink:href="io1__xplained_8h.html" target="_top" xlink:title="Device driver interface for the Atmel IO1 Xplained extension. ">
<polygon fill="#ffffff" stroke="#000000" points="5.5,-84 5.5,-114 109.5,-114 109.5,-84 5.5,-84"/>
<text text-anchor="start" x="13.5" y="-102" font-family="Helvetica,sans-Serif" font-size="10.00" fill="#000000">drivers/include/io1</text>
<text text-anchor="middle" x="57.5" y="-91" font-family="Helvetica,sans-Serif" font-size="10.00" fill="#000000">_xplained.h</text>
</a>
</g>
</g>
<!-- Node11&#45;&gt;Node12 -->
<g id="edge1" class="edge">
<title>Node11&#45;&gt;Node12</title>
<path fill="none" stroke="#191970" d="M147.8989,-151.4313C127.4736,-139.5847 102.0466,-124.837 83.3669,-114.0028"/>
<polygon fill="#191970" stroke="#191970" points="146.1936,-154.4883 156.5999,-156.478 149.7056,-148.4331 146.1936,-154.4883"/>
</g>
<!-- Node14 -->
<g id="node4" class="node">
<title>Node14</title>
<g id="a_node4"><a xlink:href="mtd__sdcard_8h.html" target="_top" xlink:title="Interface definition for the mtd_sdcard driver. ">
<polygon fill="#ffffff" stroke="#000000" points="128,-84 128,-114 237,-114 237,-84 128,-84"/>
<text text-anchor="start" x="136" y="-102" font-family="Helvetica,sans-Serif" font-size="10.00" fill="#000000">drivers/include/mtd</text>
<text text-anchor="middle" x="182.5" y="-91" font-family="Helvetica,sans-Serif" font-size="10.00" fill="#000000">_sdcard.h</text>
</a>
</g>
</g>
<!-- Node11&#45;&gt;Node14 -->
<g id="edge3" class="edge">
<title>Node11&#45;&gt;Node14</title>
<path fill="none" stroke="#191970" d="M182.5,-146.3409C182.5,-135.5601 182.5,-123.3309 182.5,-114.0028"/>
<polygon fill="#191970" stroke="#191970" points="179.0001,-146.4779 182.5,-156.478 186.0001,-146.478 179.0001,-146.4779"/>
</g>
<!-- Node15 -->
<g id="node5" class="node">
<title>Node15</title>
<g id="a_node5"><a xlink:href="sdcard__spi__internal_8h.html" target="_top" xlink:title="Interface for issuing commands on sd&#45;cards via SPI. ">
<polygon fill="#ffffff" stroke="#000000" points="255,-78.5 255,-119.5 360,-119.5 360,-78.5 255,-78.5"/>
<text text-anchor="start" x="263" y="-107.5" font-family="Helvetica,sans-Serif" font-size="10.00" fill="#000000">drivers/sdcard_spi</text>
<text text-anchor="start" x="263" y="-96.5" font-family="Helvetica,sans-Serif" font-size="10.00" fill="#000000">/include/sdcard_spi</text>
<text text-anchor="middle" x="307.5" y="-85.5" font-family="Helvetica,sans-Serif" font-size="10.00" fill="#000000">_internal.h</text>
</a>
</g>
</g>
<!-- Node11&#45;&gt;Node15 -->
<g id="edge4" class="edge">
<title>Node11&#45;&gt;Node15</title>
<path fill="none" stroke="#191970" d="M217.4864,-151.2079C234.5527,-141.3094 255.0385,-129.4277 272.1526,-119.5015"/>
<polygon fill="#191970" stroke="#191970" points="215.2944,-148.4331 208.4001,-156.478 218.8064,-154.4883 215.2944,-148.4331"/>
</g>
<!-- Node13 -->
<g id="node3" class="node">
<title>Node13</title>
<g id="a_node3"><a xlink:href="io1__xplained__params_8h.html" target="_top" xlink:title="Default configuration for IO1 Xplained. ">
<polygon fill="#ffffff" stroke="#000000" points="0,-.5 0,-41.5 115,-41.5 115,-.5 0,-.5"/>
<text text-anchor="start" x="8" y="-29.5" font-family="Helvetica,sans-Serif" font-size="10.00" fill="#000000">drivers/io1_xplained</text>
<text text-anchor="start" x="8" y="-18.5" font-family="Helvetica,sans-Serif" font-size="10.00" fill="#000000">/include/io1_xplained</text>
<text text-anchor="middle" x="57.5" y="-7.5" font-family="Helvetica,sans-Serif" font-size="10.00" fill="#000000">_params.h</text>
</a>
</g>
</g>
<!-- Node12&#45;&gt;Node13 -->
<g id="edge2" class="edge">
<title>Node12&#45;&gt;Node13</title>
<path fill="none" stroke="#191970" d="M57.5,-73.8044C57.5,-63.3919 57.5,-51.4721 57.5,-41.5956"/>
<polygon fill="#191970" stroke="#191970" points="54.0001,-73.9608 57.5,-83.9608 61.0001,-73.9608 54.0001,-73.9608"/>
</g>
</g>
</svg>
