<?xml version="1.0" encoding="UTF-8" standalone="no"?>
<!DOCTYPE svg PUBLIC "-//W3C//DTD SVG 1.1//EN"
 "http://www.w3.org/Graphics/SVG/1.1/DTD/svg11.dtd">
<!-- Generated by graphviz version 2.40.1 (0)
 -->
<!-- Title: cpu/sam0_common/include/sdhc.h Pages: 1 -->
<svg width="151pt" height="106pt"
 viewBox="0.00 0.00 151.00 106.00" xmlns="http://www.w3.org/2000/svg" xmlns:xlink="http://www.w3.org/1999/xlink">
<g id="graph0" class="graph" transform="scale(1 1) rotate(0) translate(4 102)">
<title>cpu/sam0_common/include/sdhc.h</title>
<polygon fill="#ffffff" stroke="transparent" points="-4,4 -4,-102 147,-102 147,4 -4,4"/>
<!-- Node28 -->
<g id="node1" class="node">
<title>Node28</title>
<polygon fill="#bfbfbf" stroke="#000000" points="0,-67.5 0,-97.5 143,-97.5 143,-67.5 0,-67.5"/>
<text text-anchor="start" x="8" y="-85.5" font-family="Helvetica,sans-Serif" font-size="10.00" fill="#000000">cpu/sam0_common/include</text>
<text text-anchor="middle" x="71.5" y="-74.5" font-family="Helvetica,sans-Serif" font-size="10.00" fill="#000000">/sdhc.h</text>
</g>
<!-- Node29 -->
<g id="node2" class="node">
<title>Node29</title>
<g id="a_node2"><a xlink:href="mtd__sam0__sdhc_8h.html" target="_top" xlink:title="Interface definition for SAM SDHC driver. ">
<polygon fill="#ffffff" stroke="#000000" points="0,-.5 0,-30.5 143,-30.5 143,-.5 0,-.5"/>
<text text-anchor="start" x="8" y="-18.5" font-family="Helvetica,sans-Serif" font-size="10.00" fill="#000000">cpu/sam0_common/include</text>
<text text-anchor="middle" x="71.5" y="-7.5" font-family="Helvetica,sans-Serif" font-size="10.00" fill="#000000">/mtd_sam0_sdhc.h</text>
</a>
</g>
</g>
<!-- Node28&#45;&gt;Node29 -->
<g id="edge1" class="edge">
<title>Node28&#45;&gt;Node29</title>
<path fill="none" stroke="#191970" d="M71.5,-57.0249C71.5,-48.128 71.5,-38.4287 71.5,-30.6432"/>
<polygon fill="#191970" stroke="#191970" points="68.0001,-57.2966 71.5,-67.2967 75.0001,-57.2967 68.0001,-57.2966"/>
</g>
</g>
</svg>
