<?xml version="1.0" encoding="UTF-8" standalone="no"?>
<!DOCTYPE svg PUBLIC "-//W3C//DTD SVG 1.1//EN"
 "http://www.w3.org/Graphics/SVG/1.1/DTD/svg11.dtd">
<!-- Generated by graphviz version 2.40.1 (0)
 -->
<!-- Title: drivers/include/sdmmc/sdmmc.h Pages: 1 -->
<svg width="131pt" height="106pt"
 viewBox="0.00 0.00 131.00 106.00" xmlns="http://www.w3.org/2000/svg" xmlns:xlink="http://www.w3.org/1999/xlink">
<g id="graph0" class="graph" transform="scale(1 1) rotate(0) translate(4 102)">
<title>drivers/include/sdmmc/sdmmc.h</title>
<polygon fill="#ffffff" stroke="transparent" points="-4,4 -4,-102 127,-102 127,4 -4,4"/>
<!-- Node13 -->
<g id="node1" class="node">
<title>Node13</title>
<polygon fill="#bfbfbf" stroke="#000000" points="0,-67.5 0,-97.5 123,-97.5 123,-67.5 0,-67.5"/>
<text text-anchor="start" x="8" y="-85.5" font-family="Helvetica,sans-Serif" font-size="10.00" fill="#000000">drivers/include/sdmmc</text>
<text text-anchor="middle" x="61.5" y="-74.5" font-family="Helvetica,sans-Serif" font-size="10.00" fill="#000000">/sdmmc.h</text>
</g>
<!-- Node14 -->
<g id="node2" class="node">
<title>Node14</title>
<g id="a_node2"><a xlink:href="mtd__sdmmc_8h.html" target="_top" xlink:title="Interface definition for the mtd_sdmmc driver. ">
<polygon fill="#ffffff" stroke="#000000" points="7,-.5 7,-30.5 116,-30.5 116,-.5 7,-.5"/>
<text text-anchor="start" x="15" y="-18.5" font-family="Helvetica,sans-Serif" font-size="10.00" fill="#000000">drivers/include/mtd</text>
<text text-anchor="middle" x="61.5" y="-7.5" font-family="Helvetica,sans-Serif" font-size="10.00" fill="#000000">_sdmmc.h</text>
</a>
</g>
</g>
<!-- Node13&#45;&gt;Node14 -->
<g id="edge1" class="edge">
<title>Node13&#45;&gt;Node14</title>
<path fill="none" stroke="#191970" d="M61.5,-57.0249C61.5,-48.128 61.5,-38.4287 61.5,-30.6432"/>
<polygon fill="#191970" stroke="#191970" points="58.0001,-57.2966 61.5,-67.2967 65.0001,-57.2967 58.0001,-57.2966"/>
</g>
</g>
</svg>
