<?xml version="1.0" encoding="UTF-8" standalone="no"?>
<!DOCTYPE svg PUBLIC "-//W3C//DTD SVG 1.1//EN"
 "http://www.w3.org/Graphics/SVG/1.1/DTD/svg11.dtd">
<!-- Generated by graphviz version 2.40.1 (0)
 -->
<!-- Title: boards/seeeduino_arch&#45;pro/include/gpio_params.h Pages: 1 -->
<svg width="504pt" height="207pt"
 viewBox="0.00 0.00 503.50 207.00" xmlns="http://www.w3.org/2000/svg" xmlns:xlink="http://www.w3.org/1999/xlink">
<g id="graph0" class="graph" transform="scale(1 1) rotate(0) translate(4 203)">
<title>boards/seeeduino_arch&#45;pro/include/gpio_params.h</title>
<polygon fill="#ffffff" stroke="transparent" points="-4,4 -4,-203 499.5,-203 499.5,4 -4,4"/>
<!-- Node0 -->
<g id="node1" class="node">
<title>Node0</title>
<polygon fill="#bfbfbf" stroke="#000000" points="141,-168.5 141,-198.5 286,-198.5 286,-168.5 141,-168.5"/>
<text text-anchor="start" x="149" y="-186.5" font-family="Helvetica,sans-Serif" font-size="10.00" fill="#000000">boards/seeeduino_arch</text>
<text text-anchor="middle" x="213.5" y="-175.5" font-family="Helvetica,sans-Serif" font-size="10.00" fill="#000000">&#45;pro/include/gpio_params.h</text>
</g>
<!-- Node1 -->
<g id="node2" class="node">
<title>Node1</title>
<g id="a_node2"><a xlink:href="seeeduino__arch-pro_2include_2board_8h.html" target="_top" xlink:title="Board specific definitions for the Seeduino Arch Pro board. ">
<polygon fill="#ffffff" stroke="#000000" points="145,-112.5 145,-131.5 198,-131.5 198,-112.5 145,-112.5"/>
<text text-anchor="middle" x="171.5" y="-119.5" font-family="Helvetica,sans-Serif" font-size="10.00" fill="#000000">board.h</text>
</a>
</g>
</g>
<!-- Node0&#45;&gt;Node1 -->
<g id="edge1" class="edge">
<title>Node0&#45;&gt;Node1</title>
<path fill="none" stroke="#191970" d="M203.118,-168.2977C197.3487,-159.8498 190.1284,-149.2773 184.0447,-140.369"/>
<polygon fill="#191970" stroke="#191970" points="186.7547,-138.1311 178.2247,-131.8469 180.9741,-142.0788 186.7547,-138.1311"/>
</g>
<!-- Node10 -->
<g id="node11" class="node">
<title>Node10</title>
<g id="a_node11"><a xlink:href="periph_8h.html" target="_top" xlink:title="Parameter definitions for mapping peripherals directly to SAUL. ">
<polygon fill="#ffffff" stroke="#000000" points="242.5,-112.5 242.5,-131.5 320.5,-131.5 320.5,-112.5 242.5,-112.5"/>
<text text-anchor="middle" x="281.5" y="-119.5" font-family="Helvetica,sans-Serif" font-size="10.00" fill="#000000">saul/periph.h</text>
</a>
</g>
</g>
<!-- Node0&#45;&gt;Node10 -->
<g id="edge11" class="edge">
<title>Node0&#45;&gt;Node10</title>
<path fill="none" stroke="#191970" d="M230.309,-168.2977C240.2397,-159.3163 252.8257,-147.9334 263.0327,-138.702"/>
<polygon fill="#191970" stroke="#191970" points="265.5434,-141.1505 270.6123,-131.8469 260.848,-135.9588 265.5434,-141.1505"/>
</g>
<!-- Node2 -->
<g id="node3" class="node">
<title>Node2</title>
<polygon fill="#ffffff" stroke="#bfbfbf" points="111.5,-56.5 111.5,-75.5 153.5,-75.5 153.5,-56.5 111.5,-56.5"/>
<text text-anchor="middle" x="132.5" y="-63.5" font-family="Helvetica,sans-Serif" font-size="10.00" fill="#000000">cpu.h</text>
</g>
<!-- Node1&#45;&gt;Node2 -->
<g id="edge2" class="edge">
<title>Node1&#45;&gt;Node2</title>
<path fill="none" stroke="#191970" d="M164.7067,-112.2455C159.2822,-104.4564 151.5339,-93.3308 144.9967,-83.9439"/>
<polygon fill="#191970" stroke="#191970" points="147.8025,-81.8485 139.2154,-75.6427 142.0583,-85.849 147.8025,-81.8485"/>
</g>
<!-- Node3 -->
<g id="node4" class="node">
<title>Node3</title>
<g id="a_node4"><a xlink:href="boards_2seeeduino__arch-pro_2include_2periph__conf_8h.html" target="_top" xlink:title="Peripheral MCU configuration for the Seeeduino Archo Pro board. ">
<polygon fill="#ffffff" stroke="#000000" points="12,-56.5 12,-75.5 93,-75.5 93,-56.5 12,-56.5"/>
<text text-anchor="middle" x="52.5" y="-63.5" font-family="Helvetica,sans-Serif" font-size="10.00" fill="#000000">periph_conf.h</text>
</a>
</g>
</g>
<!-- Node1&#45;&gt;Node3 -->
<g id="edge3" class="edge">
<title>Node1&#45;&gt;Node3</title>
<path fill="none" stroke="#191970" d="M151.0432,-112.3733C132.0262,-103.4241 103.4825,-89.9917 82.0024,-79.8835"/>
<polygon fill="#191970" stroke="#191970" points="83.2284,-76.5923 72.6899,-75.5011 80.2478,-82.926 83.2284,-76.5923"/>
</g>
<!-- Node6 -->
<g id="node7" class="node">
<title>Node6</title>
<g id="a_node7"><a xlink:href="drivers_2include_2periph_2gpio_8h.html" target="_top" xlink:title="Low&#45;level GPIO peripheral driver interface definitions. ">
<polygon fill="#ffffff" stroke="#000000" points="171.5,-56.5 171.5,-75.5 251.5,-75.5 251.5,-56.5 171.5,-56.5"/>
<text text-anchor="middle" x="211.5" y="-63.5" font-family="Helvetica,sans-Serif" font-size="10.00" fill="#000000">periph/gpio.h</text>
</a>
</g>
</g>
<!-- Node1&#45;&gt;Node6 -->
<g id="edge6" class="edge">
<title>Node1&#45;&gt;Node6</title>
<path fill="none" stroke="#191970" d="M178.4675,-112.2455C184.0311,-104.4564 191.978,-93.3308 198.6829,-83.9439"/>
<polygon fill="#191970" stroke="#191970" points="201.648,-85.8144 204.6124,-75.6427 195.9519,-81.7457 201.648,-85.8144"/>
</g>
<!-- Node4 -->
<g id="node5" class="node">
<title>Node4</title>
<polygon fill="#ffffff" stroke="#bfbfbf" points="180,-.5 180,-19.5 257,-19.5 257,-.5 180,-.5"/>
<text text-anchor="middle" x="218.5" y="-7.5" font-family="Helvetica,sans-Serif" font-size="10.00" fill="#000000">periph_cpu.h</text>
</g>
<!-- Node3&#45;&gt;Node4 -->
<g id="edge4" class="edge">
<title>Node3&#45;&gt;Node4</title>
<path fill="none" stroke="#191970" d="M81.0364,-56.3733C108.5202,-47.1016 150.2686,-33.0178 180.5452,-22.804"/>
<polygon fill="#191970" stroke="#191970" points="181.9794,-26.0141 190.336,-19.5011 179.7418,-19.3813 181.9794,-26.0141"/>
</g>
<!-- Node5 -->
<g id="node6" class="node">
<title>Node5</title>
<polygon fill="#ffffff" stroke="#bfbfbf" points="0,-.5 0,-19.5 83,-19.5 83,-.5 0,-.5"/>
<text text-anchor="middle" x="41.5" y="-7.5" font-family="Helvetica,sans-Serif" font-size="10.00" fill="#000000">vendor/conf.h</text>
</g>
<!-- Node3&#45;&gt;Node5 -->
<g id="edge5" class="edge">
<title>Node3&#45;&gt;Node5</title>
<path fill="none" stroke="#191970" d="M50.5839,-56.2455C49.1486,-48.9382 47.1364,-38.6944 45.3705,-29.7046"/>
<polygon fill="#191970" stroke="#191970" points="48.756,-28.7805 43.3941,-19.6427 41.8873,-30.1298 48.756,-28.7805"/>
</g>
<!-- Node6&#45;&gt;Node4 -->
<g id="edge9" class="edge">
<title>Node6&#45;&gt;Node4</title>
<path fill="none" stroke="#191970" d="M212.7193,-56.2455C213.6327,-48.9382 214.9132,-38.6944 216.0369,-29.7046"/>
<polygon fill="#191970" stroke="#191970" points="219.5272,-29.9996 217.2947,-19.6427 212.5813,-29.1313 219.5272,-29.9996"/>
</g>
<!-- Node7 -->
<g id="node8" class="node">
<title>Node7</title>
<polygon fill="#ffffff" stroke="#bfbfbf" points="275.5,-.5 275.5,-19.5 325.5,-19.5 325.5,-.5 275.5,-.5"/>
<text text-anchor="middle" x="300.5" y="-7.5" font-family="Helvetica,sans-Serif" font-size="10.00" fill="#000000">limits.h</text>
</g>
<!-- Node6&#45;&gt;Node7 -->
<g id="edge7" class="edge">
<title>Node6&#45;&gt;Node7</title>
<path fill="none" stroke="#191970" d="M227.0026,-56.2455C240.658,-47.6534 260.7657,-35.0014 276.4989,-25.1018"/>
<polygon fill="#191970" stroke="#191970" points="278.5751,-27.9307 285.175,-19.6427 274.8471,-22.006 278.5751,-27.9307"/>
</g>
<!-- Node8 -->
<g id="node9" class="node">
<title>Node8</title>
<polygon fill="#ffffff" stroke="#bfbfbf" points="101.5,-.5 101.5,-19.5 161.5,-19.5 161.5,-.5 101.5,-.5"/>
<text text-anchor="middle" x="131.5" y="-7.5" font-family="Helvetica,sans-Serif" font-size="10.00" fill="#000000">stdbool.h</text>
</g>
<!-- Node6&#45;&gt;Node8 -->
<g id="edge8" class="edge">
<title>Node6&#45;&gt;Node8</title>
<path fill="none" stroke="#191970" d="M197.5651,-56.2455C185.4053,-47.7337 167.5536,-35.2375 153.4715,-25.3801"/>
<polygon fill="#191970" stroke="#191970" points="155.4747,-22.51 145.2752,-19.6427 151.4605,-28.2447 155.4747,-22.51"/>
</g>
<!-- Node9 -->
<g id="node10" class="node">
<title>Node9</title>
<polygon fill="#ffffff" stroke="#bfbfbf" points="344,-.5 344,-19.5 425,-19.5 425,-.5 344,-.5"/>
<text text-anchor="middle" x="384.5" y="-7.5" font-family="Helvetica,sans-Serif" font-size="10.00" fill="#000000">periph_conf.h</text>
</g>
<!-- Node6&#45;&gt;Node9 -->
<g id="edge10" class="edge">
<title>Node6&#45;&gt;Node9</title>
<path fill="none" stroke="#191970" d="M241.2398,-56.3733C270.007,-47.0613 313.77,-32.8953 345.3556,-22.671"/>
<polygon fill="#191970" stroke="#191970" points="346.7122,-25.9107 355.1483,-19.5011 344.5564,-19.251 346.7122,-25.9107"/>
</g>
<!-- Node10&#45;&gt;Node6 -->
<g id="edge12" class="edge">
<title>Node10&#45;&gt;Node6</title>
<path fill="none" stroke="#191970" d="M269.3069,-112.2455C258.8679,-103.8943 243.6345,-91.7076 231.426,-81.9408"/>
<polygon fill="#191970" stroke="#191970" points="233.5485,-79.1566 223.5533,-75.6427 229.1756,-84.6227 233.5485,-79.1566"/>
</g>
<!-- Node11 -->
<g id="node12" class="node">
<title>Node11</title>
<g id="a_node12"><a xlink:href="adc_8h.html" target="_top" xlink:title="Low&#45;level ADC peripheral driver interface definitions. ">
<polygon fill="#ffffff" stroke="#000000" points="269.5,-56.5 269.5,-75.5 345.5,-75.5 345.5,-56.5 269.5,-56.5"/>
<text text-anchor="middle" x="307.5" y="-63.5" font-family="Helvetica,sans-Serif" font-size="10.00" fill="#000000">periph/adc.h</text>
</a>
</g>
</g>
<!-- Node10&#45;&gt;Node11 -->
<g id="edge13" class="edge">
<title>Node10&#45;&gt;Node11</title>
<path fill="none" stroke="#191970" d="M286.0289,-112.2455C289.5334,-104.6973 294.4927,-94.0158 298.7623,-84.8197"/>
<polygon fill="#191970" stroke="#191970" points="301.9864,-86.1867 303.023,-75.6427 295.6373,-83.2389 301.9864,-86.1867"/>
</g>
<!-- Node13 -->
<g id="node14" class="node">
<title>Node13</title>
<g id="a_node14"><a xlink:href="pwm_8h.html" target="_top" xlink:title="Low&#45;level PWM peripheral driver interface definitions. ">
<polygon fill="#ffffff" stroke="#000000" points="364,-56.5 364,-75.5 447,-75.5 447,-56.5 364,-56.5"/>
<text text-anchor="middle" x="405.5" y="-63.5" font-family="Helvetica,sans-Serif" font-size="10.00" fill="#000000">periph/pwm.h</text>
</a>
</g>
</g>
<!-- Node10&#45;&gt;Node13 -->
<g id="edge18" class="edge">
<title>Node10&#45;&gt;Node13</title>
<path fill="none" stroke="#191970" d="M302.8164,-112.3733C322.7216,-103.3838 352.6436,-89.8706 375.06,-79.7471"/>
<polygon fill="#191970" stroke="#191970" points="376.7887,-82.8068 384.4618,-75.5011 373.9075,-76.4272 376.7887,-82.8068"/>
</g>
<!-- Node11&#45;&gt;Node4 -->
<g id="edge16" class="edge">
<title>Node11&#45;&gt;Node4</title>
<path fill="none" stroke="#191970" d="M291.9974,-56.2455C278.342,-47.6534 258.2343,-35.0014 242.5011,-25.1018"/>
<polygon fill="#191970" stroke="#191970" points="244.1529,-22.006 233.825,-19.6427 240.4249,-27.9307 244.1529,-22.006"/>
</g>
<!-- Node11&#45;&gt;Node7 -->
<g id="edge14" class="edge">
<title>Node11&#45;&gt;Node7</title>
<path fill="none" stroke="#191970" d="M306.2807,-56.2455C305.3673,-48.9382 304.0868,-38.6944 302.9631,-29.7046"/>
<polygon fill="#191970" stroke="#191970" points="306.4187,-29.1313 301.7053,-19.6427 299.4728,-29.9996 306.4187,-29.1313"/>
</g>
<!-- Node11&#45;&gt;Node9 -->
<g id="edge17" class="edge">
<title>Node11&#45;&gt;Node9</title>
<path fill="none" stroke="#191970" d="M320.9124,-56.2455C332.5057,-47.814 349.4748,-35.4729 362.9678,-25.6598"/>
<polygon fill="#191970" stroke="#191970" points="365.2126,-28.355 371.2413,-19.6427 361.0953,-22.6938 365.2126,-28.355"/>
</g>
<!-- Node12 -->
<g id="node13" class="node">
<title>Node12</title>
<polygon fill="#ffffff" stroke="#bfbfbf" points="443.5,-.5 443.5,-19.5 495.5,-19.5 495.5,-.5 443.5,-.5"/>
<text text-anchor="middle" x="469.5" y="-7.5" font-family="Helvetica,sans-Serif" font-size="10.00" fill="#000000">stdint.h</text>
</g>
<!-- Node11&#45;&gt;Node12 -->
<g id="edge15" class="edge">
<title>Node11&#45;&gt;Node12</title>
<path fill="none" stroke="#191970" d="M335.3488,-56.3733C362.5767,-46.9611 404.1505,-32.5899 433.795,-22.3425"/>
<polygon fill="#191970" stroke="#191970" points="435.0453,-25.6135 443.3531,-19.0384 432.7583,-18.9977 435.0453,-25.6135"/>
</g>
<!-- Node13&#45;&gt;Node4 -->
<g id="edge21" class="edge">
<title>Node13&#45;&gt;Node4</title>
<path fill="none" stroke="#191970" d="M373.3536,-56.3733C341.9891,-46.9807 294.1335,-32.6496 259.9284,-22.4064"/>
<polygon fill="#191970" stroke="#191970" points="260.8107,-19.0171 250.227,-19.5011 258.8025,-25.7229 260.8107,-19.0171"/>
</g>
<!-- Node13&#45;&gt;Node7 -->
<g id="edge20" class="edge">
<title>Node13&#45;&gt;Node7</title>
<path fill="none" stroke="#191970" d="M387.2104,-56.2455C370.7238,-47.4527 346.2648,-34.4079 327.5235,-24.4125"/>
<polygon fill="#191970" stroke="#191970" points="329.0506,-21.2604 318.58,-19.6427 325.7565,-27.4368 329.0506,-21.2604"/>
</g>
<!-- Node13&#45;&gt;Node9 -->
<g id="edge22" class="edge">
<title>Node13&#45;&gt;Node9</title>
<path fill="none" stroke="#191970" d="M401.8421,-56.2455C399.0416,-48.7776 395.091,-38.2427 391.6676,-29.1137"/>
<polygon fill="#191970" stroke="#191970" points="394.9045,-27.777 388.116,-19.6427 388.3501,-30.2349 394.9045,-27.777"/>
</g>
<!-- Node13&#45;&gt;Node12 -->
<g id="edge19" class="edge">
<title>Node13&#45;&gt;Node12</title>
<path fill="none" stroke="#191970" d="M416.6479,-56.2455C426.0087,-48.0549 439.5858,-36.1749 450.6349,-26.5069"/>
<polygon fill="#191970" stroke="#191970" points="453.2588,-28.8618 458.4798,-19.6427 448.6492,-23.5937 453.2588,-28.8618"/>
</g>
</g>
</svg>
