<?xml version="1.0" encoding="UTF-8" standalone="no"?>
<!DOCTYPE svg PUBLIC "-//W3C//DTD SVG 1.1//EN"
 "http://www.w3.org/Graphics/SVG/1.1/DTD/svg11.dtd">
<!-- Generated by graphviz version 2.40.1 (0)
 -->
<!-- Title: boards/seeeduino_xiao/include/gpio_params.h Pages: 1 -->
<svg width="471pt" height="207pt"
 viewBox="0.00 0.00 471.00 207.00" xmlns="http://www.w3.org/2000/svg" xmlns:xlink="http://www.w3.org/1999/xlink">
<g id="graph0" class="graph" transform="scale(1 1) rotate(0) translate(4 203)">
<title>boards/seeeduino_xiao/include/gpio_params.h</title>
<polygon fill="#ffffff" stroke="transparent" points="-4,4 -4,-203 467,-203 467,4 -4,4"/>
<!-- Node0 -->
<g id="node1" class="node">
<title>Node0</title>
<polygon fill="#bfbfbf" stroke="#000000" points="108.5,-168.5 108.5,-198.5 233.5,-198.5 233.5,-168.5 108.5,-168.5"/>
<text text-anchor="start" x="116.5" y="-186.5" font-family="Helvetica,sans-Serif" font-size="10.00" fill="#000000">boards/seeeduino_xiao</text>
<text text-anchor="middle" x="171" y="-175.5" font-family="Helvetica,sans-Serif" font-size="10.00" fill="#000000">/include/gpio_params.h</text>
</g>
<!-- Node1 -->
<g id="node2" class="node">
<title>Node1</title>
<g id="a_node2"><a xlink:href="seeeduino__xiao_2include_2board_8h.html" target="_top" xlink:title="Support for the Seeeduino XIAO board. ">
<polygon fill="#ffffff" stroke="#000000" points="102.5,-112.5 102.5,-131.5 155.5,-131.5 155.5,-112.5 102.5,-112.5"/>
<text text-anchor="middle" x="129" y="-119.5" font-family="Helvetica,sans-Serif" font-size="10.00" fill="#000000">board.h</text>
</a>
</g>
</g>
<!-- Node0&#45;&gt;Node1 -->
<g id="edge1" class="edge">
<title>Node0&#45;&gt;Node1</title>
<path fill="none" stroke="#191970" d="M160.618,-168.2977C154.8487,-159.8498 147.6284,-149.2773 141.5447,-140.369"/>
<polygon fill="#191970" stroke="#191970" points="144.2547,-138.1311 135.7247,-131.8469 138.4741,-142.0788 144.2547,-138.1311"/>
</g>
<!-- Node10 -->
<g id="node11" class="node">
<title>Node10</title>
<g id="a_node11"><a xlink:href="periph_8h.html" target="_top" xlink:title="Parameter definitions for mapping peripherals directly to SAUL. ">
<polygon fill="#ffffff" stroke="#000000" points="180,-112.5 180,-131.5 258,-131.5 258,-112.5 180,-112.5"/>
<text text-anchor="middle" x="219" y="-119.5" font-family="Helvetica,sans-Serif" font-size="10.00" fill="#000000">saul/periph.h</text>
</a>
</g>
</g>
<!-- Node0&#45;&gt;Node10 -->
<g id="edge12" class="edge">
<title>Node0&#45;&gt;Node10</title>
<path fill="none" stroke="#191970" d="M182.8652,-168.2977C189.5975,-159.672 198.0585,-148.8312 205.1006,-139.8087"/>
<polygon fill="#191970" stroke="#191970" points="207.921,-141.8836 211.3146,-131.8469 202.4027,-137.5766 207.921,-141.8836"/>
</g>
<!-- Node2 -->
<g id="node3" class="node">
<title>Node2</title>
<polygon fill="#ffffff" stroke="#bfbfbf" points="0,-.5 0,-19.5 42,-19.5 42,-.5 0,-.5"/>
<text text-anchor="middle" x="21" y="-7.5" font-family="Helvetica,sans-Serif" font-size="10.00" fill="#000000">cpu.h</text>
</g>
<!-- Node1&#45;&gt;Node2 -->
<g id="edge2" class="edge">
<title>Node1&#45;&gt;Node2</title>
<path fill="none" stroke="#191970" d="M102.1118,-118.4715C76.9963,-113.6081 40.7877,-102.2345 23,-76 13.9642,-62.6735 14.2413,-44.1033 16.3322,-30.0546"/>
<polygon fill="#191970" stroke="#191970" points="19.825,-30.4217 18.2547,-19.9439 12.9482,-29.1141 19.825,-30.4217"/>
</g>
<!-- Node3 -->
<g id="node4" class="node">
<title>Node3</title>
<g id="a_node4"><a xlink:href="boards_2seeeduino__xiao_2include_2periph__conf_8h.html" target="_top" xlink:title="Configuration of CPU peripherals for the Serpente board. ">
<polygon fill="#ffffff" stroke="#000000" points="32.5,-56.5 32.5,-75.5 113.5,-75.5 113.5,-56.5 32.5,-56.5"/>
<text text-anchor="middle" x="73" y="-63.5" font-family="Helvetica,sans-Serif" font-size="10.00" fill="#000000">periph_conf.h</text>
</a>
</g>
</g>
<!-- Node1&#45;&gt;Node3 -->
<g id="edge3" class="edge">
<title>Node1&#45;&gt;Node3</title>
<path fill="none" stroke="#191970" d="M119.2455,-112.2455C111.1352,-104.1352 99.4075,-92.4075 89.7919,-82.7919"/>
<polygon fill="#191970" stroke="#191970" points="92.1887,-80.2389 82.6427,-75.6427 87.2389,-85.1887 92.1887,-80.2389"/>
</g>
<!-- Node6 -->
<g id="node7" class="node">
<title>Node6</title>
<g id="a_node7"><a xlink:href="drivers_2include_2periph_2gpio_8h.html" target="_top" xlink:title="Low&#45;level GPIO peripheral driver interface definitions. ">
<polygon fill="#ffffff" stroke="#000000" points="328,-56.5 328,-75.5 408,-75.5 408,-56.5 328,-56.5"/>
<text text-anchor="middle" x="368" y="-63.5" font-family="Helvetica,sans-Serif" font-size="10.00" fill="#000000">periph/gpio.h</text>
</a>
</g>
</g>
<!-- Node1&#45;&gt;Node6 -->
<g id="edge7" class="edge">
<title>Node1&#45;&gt;Node6</title>
<path fill="none" stroke="#191970" d="M155.6578,-115.6345C160.7503,-114.4237 166.0391,-113.1698 171,-112 221,-100.2101 278.1748,-86.876 318.0032,-77.6111"/>
<polygon fill="#191970" stroke="#191970" points="319.0464,-80.962 327.9937,-75.2878 317.4608,-74.1439 319.0464,-80.962"/>
</g>
<!-- Node3&#45;&gt;Node2 -->
<g id="edge5" class="edge">
<title>Node3&#45;&gt;Node2</title>
<path fill="none" stroke="#191970" d="M63.9423,-56.2455C56.4858,-48.2155 45.7366,-36.6394 36.8583,-27.0781"/>
<polygon fill="#191970" stroke="#191970" points="39.3232,-24.589 29.9539,-19.6427 34.1937,-29.3522 39.3232,-24.589"/>
</g>
<!-- Node4 -->
<g id="node5" class="node">
<title>Node4</title>
<polygon fill="#ffffff" stroke="#bfbfbf" points="69,-.5 69,-19.5 121,-19.5 121,-.5 69,-.5"/>
<text text-anchor="middle" x="95" y="-7.5" font-family="Helvetica,sans-Serif" font-size="10.00" fill="#000000">stdint.h</text>
</g>
<!-- Node3&#45;&gt;Node4 -->
<g id="edge4" class="edge">
<title>Node3&#45;&gt;Node4</title>
<path fill="none" stroke="#191970" d="M76.8321,-56.2455C79.7659,-48.7776 83.9047,-38.2427 87.491,-29.1137"/>
<polygon fill="#191970" stroke="#191970" points="90.8129,-30.23 91.2118,-19.6427 84.2976,-27.6704 90.8129,-30.23"/>
</g>
<!-- Node5 -->
<g id="node6" class="node">
<title>Node5</title>
<polygon fill="#ffffff" stroke="#bfbfbf" points="139.5,-.5 139.5,-19.5 216.5,-19.5 216.5,-.5 139.5,-.5"/>
<text text-anchor="middle" x="178" y="-7.5" font-family="Helvetica,sans-Serif" font-size="10.00" fill="#000000">periph_cpu.h</text>
</g>
<!-- Node3&#45;&gt;Node5 -->
<g id="edge6" class="edge">
<title>Node3&#45;&gt;Node5</title>
<path fill="none" stroke="#191970" d="M91.2896,-56.2455C107.7762,-47.4527 132.2352,-34.4079 150.9765,-24.4125"/>
<polygon fill="#191970" stroke="#191970" points="152.7435,-27.4368 159.92,-19.6427 149.4494,-21.2604 152.7435,-27.4368"/>
</g>
<!-- Node6&#45;&gt;Node5 -->
<g id="edge10" class="edge">
<title>Node6&#45;&gt;Node5</title>
<path fill="none" stroke="#191970" d="M335.3378,-56.3733C303.4702,-46.9807 254.8469,-32.6496 220.093,-22.4064"/>
<polygon fill="#191970" stroke="#191970" points="220.8175,-18.9711 210.236,-19.5011 218.8385,-25.6855 220.8175,-18.9711"/>
</g>
<!-- Node7 -->
<g id="node8" class="node">
<title>Node7</title>
<polygon fill="#ffffff" stroke="#bfbfbf" points="235,-.5 235,-19.5 285,-19.5 285,-.5 235,-.5"/>
<text text-anchor="middle" x="260" y="-7.5" font-family="Helvetica,sans-Serif" font-size="10.00" fill="#000000">limits.h</text>
</g>
<!-- Node6&#45;&gt;Node7 -->
<g id="edge8" class="edge">
<title>Node6&#45;&gt;Node7</title>
<path fill="none" stroke="#191970" d="M349.1878,-56.2455C332.1527,-47.4125 306.8425,-34.2887 287.5319,-24.2758"/>
<polygon fill="#191970" stroke="#191970" points="289.0853,-21.1388 278.5966,-19.6427 285.863,-27.353 289.0853,-21.1388"/>
</g>
<!-- Node8 -->
<g id="node9" class="node">
<title>Node8</title>
<polygon fill="#ffffff" stroke="#bfbfbf" points="403,-.5 403,-19.5 463,-19.5 463,-.5 403,-.5"/>
<text text-anchor="middle" x="433" y="-7.5" font-family="Helvetica,sans-Serif" font-size="10.00" fill="#000000">stdbool.h</text>
</g>
<!-- Node6&#45;&gt;Node8 -->
<g id="edge9" class="edge">
<title>Node6&#45;&gt;Node8</title>
<path fill="none" stroke="#191970" d="M379.3221,-56.2455C388.9223,-47.9746 402.8892,-35.9416 414.1695,-26.2232"/>
<polygon fill="#191970" stroke="#191970" points="416.516,-28.8214 421.8076,-19.6427 411.947,-23.5182 416.516,-28.8214"/>
</g>
<!-- Node9 -->
<g id="node10" class="node">
<title>Node9</title>
<polygon fill="#ffffff" stroke="#bfbfbf" points="303.5,-.5 303.5,-19.5 384.5,-19.5 384.5,-.5 303.5,-.5"/>
<text text-anchor="middle" x="344" y="-7.5" font-family="Helvetica,sans-Serif" font-size="10.00" fill="#000000">periph_conf.h</text>
</g>
<!-- Node6&#45;&gt;Node9 -->
<g id="edge11" class="edge">
<title>Node6&#45;&gt;Node9</title>
<path fill="none" stroke="#191970" d="M363.8195,-56.2455C360.619,-48.7776 356.104,-38.2427 352.1916,-29.1137"/>
<polygon fill="#191970" stroke="#191970" points="355.2888,-27.4554 348.1326,-19.6427 348.8548,-30.2129 355.2888,-27.4554"/>
</g>
<!-- Node10&#45;&gt;Node6 -->
<g id="edge13" class="edge">
<title>Node10&#45;&gt;Node6</title>
<path fill="none" stroke="#191970" d="M244.614,-112.3733C269.0687,-103.1822 306.1054,-89.2624 333.2209,-79.0713"/>
<polygon fill="#191970" stroke="#191970" points="334.5909,-82.2956 342.7202,-75.5011 332.1281,-75.7431 334.5909,-82.2956"/>
</g>
<!-- Node11 -->
<g id="node12" class="node">
<title>Node11</title>
<g id="a_node12"><a xlink:href="adc_8h.html" target="_top" xlink:title="Low&#45;level ADC peripheral driver interface definitions. ">
<polygon fill="#ffffff" stroke="#000000" points="132,-56.5 132,-75.5 208,-75.5 208,-56.5 132,-56.5"/>
<text text-anchor="middle" x="170" y="-63.5" font-family="Helvetica,sans-Serif" font-size="10.00" fill="#000000">periph/adc.h</text>
</a>
</g>
</g>
<!-- Node10&#45;&gt;Node11 -->
<g id="edge14" class="edge">
<title>Node10&#45;&gt;Node11</title>
<path fill="none" stroke="#191970" d="M210.4649,-112.2455C203.5088,-104.2958 193.5117,-92.8706 185.1949,-83.3656"/>
<polygon fill="#191970" stroke="#191970" points="187.6564,-80.8637 178.4373,-75.6427 182.3884,-85.4732 187.6564,-80.8637"/>
</g>
<!-- Node12 -->
<g id="node13" class="node">
<title>Node12</title>
<g id="a_node13"><a xlink:href="pwm_8h.html" target="_top" xlink:title="Low&#45;level PWM peripheral driver interface definitions. ">
<polygon fill="#ffffff" stroke="#000000" points="226.5,-56.5 226.5,-75.5 309.5,-75.5 309.5,-56.5 226.5,-56.5"/>
<text text-anchor="middle" x="268" y="-63.5" font-family="Helvetica,sans-Serif" font-size="10.00" fill="#000000">periph/pwm.h</text>
</a>
</g>
</g>
<!-- Node10&#45;&gt;Node12 -->
<g id="edge19" class="edge">
<title>Node10&#45;&gt;Node12</title>
<path fill="none" stroke="#191970" d="M227.5351,-112.2455C234.4912,-104.2958 244.4883,-92.8706 252.8051,-83.3656"/>
<polygon fill="#191970" stroke="#191970" points="255.6116,-85.4732 259.5627,-75.6427 250.3436,-80.8637 255.6116,-85.4732"/>
</g>
<!-- Node11&#45;&gt;Node4 -->
<g id="edge16" class="edge">
<title>Node11&#45;&gt;Node4</title>
<path fill="none" stroke="#191970" d="M156.936,-56.2455C145.6438,-47.814 129.1155,-35.4729 115.9729,-25.6598"/>
<polygon fill="#191970" stroke="#191970" points="118.0211,-22.8211 107.9143,-19.6427 113.8331,-28.4301 118.0211,-22.8211"/>
</g>
<!-- Node11&#45;&gt;Node5 -->
<g id="edge17" class="edge">
<title>Node11&#45;&gt;Node5</title>
<path fill="none" stroke="#191970" d="M171.3935,-56.2455C172.4374,-48.9382 173.9008,-38.6944 175.1851,-29.7046"/>
<polygon fill="#191970" stroke="#191970" points="178.673,-30.0372 176.6225,-19.6427 171.7434,-29.0472 178.673,-30.0372"/>
</g>
<!-- Node11&#45;&gt;Node7 -->
<g id="edge15" class="edge">
<title>Node11&#45;&gt;Node7</title>
<path fill="none" stroke="#191970" d="M185.6768,-56.2455C199.4856,-47.6534 219.8193,-35.0014 235.7292,-25.1018"/>
<polygon fill="#191970" stroke="#191970" points="237.8613,-27.8974 244.5028,-19.6427 234.1632,-21.954 237.8613,-27.8974"/>
</g>
<!-- Node11&#45;&gt;Node9 -->
<g id="edge18" class="edge">
<title>Node11&#45;&gt;Node9</title>
<path fill="none" stroke="#191970" d="M199.9117,-56.3733C228.8452,-47.0613 272.8611,-32.8953 304.6293,-22.671"/>
<polygon fill="#191970" stroke="#191970" points="306.0318,-25.8965 314.4787,-19.5011 303.8872,-19.2331 306.0318,-25.8965"/>
</g>
<!-- Node12&#45;&gt;Node4 -->
<g id="edge20" class="edge">
<title>Node12&#45;&gt;Node4</title>
<path fill="none" stroke="#191970" d="M238.2602,-56.3733C208.5341,-46.7509 162.7958,-31.9455 131.0275,-21.6621"/>
<polygon fill="#191970" stroke="#191970" points="131.8338,-18.2443 121.2419,-18.4945 129.678,-24.9041 131.8338,-18.2443"/>
</g>
<!-- Node12&#45;&gt;Node5 -->
<g id="edge22" class="edge">
<title>Node12&#45;&gt;Node5</title>
<path fill="none" stroke="#191970" d="M252.3232,-56.2455C238.5144,-47.6534 218.1807,-35.0014 202.2708,-25.1018"/>
<polygon fill="#191970" stroke="#191970" points="203.8368,-21.954 193.4972,-19.6427 200.1387,-27.8974 203.8368,-21.954"/>
</g>
<!-- Node12&#45;&gt;Node7 -->
<g id="edge21" class="edge">
<title>Node12&#45;&gt;Node7</title>
<path fill="none" stroke="#191970" d="M266.6065,-56.2455C265.5626,-48.9382 264.0992,-38.6944 262.8149,-29.7046"/>
<polygon fill="#191970" stroke="#191970" points="266.2566,-29.0472 261.3775,-19.6427 259.327,-30.0372 266.2566,-29.0472"/>
</g>
<!-- Node12&#45;&gt;Node9 -->
<g id="edge23" class="edge">
<title>Node12&#45;&gt;Node9</title>
<path fill="none" stroke="#191970" d="M281.2382,-56.2455C292.681,-47.814 309.4296,-35.4729 322.7475,-25.6598"/>
<polygon fill="#191970" stroke="#191970" points="324.9391,-28.3924 330.9135,-19.6427 320.7867,-22.757 324.9391,-28.3924"/>
</g>
</g>
</svg>
