<?xml version="1.0" encoding="UTF-8" standalone="no"?>
<!DOCTYPE svg PUBLIC "-//W3C//DTD SVG 1.1//EN"
 "http://www.w3.org/Graphics/SVG/1.1/DTD/svg11.dtd">
<!-- Generated by graphviz version 2.40.1 (0)
 -->
<!-- Title: sys/posix/include/sys/select.h Pages: 1 -->
<svg width="389pt" height="207pt"
 viewBox="0.00 0.00 388.50 207.00" xmlns="http://www.w3.org/2000/svg" xmlns:xlink="http://www.w3.org/1999/xlink">
<g id="graph0" class="graph" transform="scale(1 1) rotate(0) translate(4 203)">
<title>sys/posix/include/sys/select.h</title>
<polygon fill="#ffffff" stroke="transparent" points="-4,4 -4,-203 384.5,-203 384.5,4 -4,4"/>
<!-- Node0 -->
<g id="node1" class="node">
<title>Node0</title>
<polygon fill="#bfbfbf" stroke="#000000" points="57,-168.5 57,-198.5 170,-198.5 170,-168.5 57,-168.5"/>
<text text-anchor="start" x="65" y="-186.5" font-family="Helvetica,sans-Serif" font-size="10.00" fill="#000000">sys/posix/include/sys</text>
<text text-anchor="middle" x="113.5" y="-175.5" font-family="Helvetica,sans-Serif" font-size="10.00" fill="#000000">/select.h</text>
</g>
<!-- Node1 -->
<g id="node2" class="node">
<title>Node1</title>
<polygon fill="#ffffff" stroke="#bfbfbf" points="87,-56.5 87,-75.5 140,-75.5 140,-56.5 87,-56.5"/>
<text text-anchor="middle" x="113.5" y="-63.5" font-family="Helvetica,sans-Serif" font-size="10.00" fill="#000000">string.h</text>
</g>
<!-- Node0&#45;&gt;Node1 -->
<g id="edge1" class="edge">
<title>Node0&#45;&gt;Node1</title>
<path fill="none" stroke="#191970" d="M113.5,-168.1389C113.5,-146.9692 113.5,-108.8174 113.5,-85.6112"/>
<polygon fill="#191970" stroke="#191970" points="117.0001,-85.5594 113.5,-75.5595 110.0001,-85.5595 117.0001,-85.5594"/>
</g>
<!-- Node2 -->
<g id="node3" class="node">
<title>Node2</title>
<g id="a_node3"><a xlink:href="time_8h_source.html" target="_top" xlink:title="sys/time.h">
<polygon fill="#ffffff" stroke="#000000" points="2,-112.5 2,-131.5 67,-131.5 67,-112.5 2,-112.5"/>
<text text-anchor="middle" x="34.5" y="-119.5" font-family="Helvetica,sans-Serif" font-size="10.00" fill="#000000">sys/time.h</text>
</a>
</g>
</g>
<!-- Node0&#45;&gt;Node2 -->
<g id="edge2" class="edge">
<title>Node0&#45;&gt;Node2</title>
<path fill="none" stroke="#191970" d="M93.9719,-168.2977C82.2063,-159.1384 67.2325,-147.4816 55.2535,-138.1562"/>
<polygon fill="#191970" stroke="#191970" points="57.1898,-135.228 47.1489,-131.8469 52.8897,-140.7516 57.1898,-135.228"/>
</g>
<!-- Node4 -->
<g id="node5" class="node">
<title>Node4</title>
<g id="a_node5"><a xlink:href="bitfield_8h.html" target="_top" xlink:title="bitfields operations on bitfields of arbitrary length ">
<polygon fill="#ffffff" stroke="#000000" points="189.5,-112.5 189.5,-131.5 247.5,-131.5 247.5,-112.5 189.5,-112.5"/>
<text text-anchor="middle" x="218.5" y="-119.5" font-family="Helvetica,sans-Serif" font-size="10.00" fill="#000000">bitfield.h</text>
</a>
</g>
</g>
<!-- Node0&#45;&gt;Node4 -->
<g id="edge5" class="edge">
<title>Node0&#45;&gt;Node4</title>
<path fill="none" stroke="#191970" d="M139.1859,-168.4554C155.6297,-158.8241 176.8708,-146.3828 193.2323,-136.7996"/>
<polygon fill="#191970" stroke="#191970" points="195.3688,-139.6045 202.2287,-131.5303 191.831,-133.5643 195.3688,-139.6045"/>
</g>
<!-- Node2&#45;&gt;Node2 -->
<g id="edge4" class="edge">
<title>Node2&#45;&gt;Node2</title>
<path fill="none" stroke="#191970" d="M56.0383,-131.5252C70.6731,-134.3079 85,-131.1328 85,-122 85,-115.0077 76.6018,-111.5077 66.0972,-111.5"/>
<polygon fill="#191970" stroke="#191970" points="65.6541,-108.0265 56.0383,-112.4748 66.3293,-114.9938 65.6541,-108.0265"/>
</g>
<!-- Node3 -->
<g id="node4" class="node">
<title>Node3</title>
<polygon fill="#ffffff" stroke="#bfbfbf" points="0,-56.5 0,-75.5 69,-75.5 69,-56.5 0,-56.5"/>
<text text-anchor="middle" x="34.5" y="-63.5" font-family="Helvetica,sans-Serif" font-size="10.00" fill="#000000">sys/types.h</text>
</g>
<!-- Node2&#45;&gt;Node3 -->
<g id="edge3" class="edge">
<title>Node2&#45;&gt;Node3</title>
<path fill="none" stroke="#191970" d="M34.5,-112.2455C34.5,-104.9382 34.5,-94.6944 34.5,-85.7046"/>
<polygon fill="#191970" stroke="#191970" points="38.0001,-85.6426 34.5,-75.6427 31.0001,-85.6427 38.0001,-85.6426"/>
</g>
<!-- Node4&#45;&gt;Node1 -->
<g id="edge9" class="edge">
<title>Node4&#45;&gt;Node1</title>
<path fill="none" stroke="#191970" d="M200.2104,-112.2455C183.7238,-103.4527 159.2648,-90.4079 140.5235,-80.4125"/>
<polygon fill="#191970" stroke="#191970" points="142.0506,-77.2604 131.58,-75.6427 138.7565,-83.4368 142.0506,-77.2604"/>
</g>
<!-- Node5 -->
<g id="node6" class="node">
<title>Node5</title>
<polygon fill="#ffffff" stroke="#bfbfbf" points="288.5,-56.5 288.5,-75.5 340.5,-75.5 340.5,-56.5 288.5,-56.5"/>
<text text-anchor="middle" x="314.5" y="-63.5" font-family="Helvetica,sans-Serif" font-size="10.00" fill="#000000">stdint.h</text>
</g>
<!-- Node4&#45;&gt;Node5 -->
<g id="edge6" class="edge">
<title>Node4&#45;&gt;Node5</title>
<path fill="none" stroke="#191970" d="M235.2219,-112.2455C250.0889,-103.5731 272.0466,-90.7645 289.0858,-80.825"/>
<polygon fill="#191970" stroke="#191970" points="291.0955,-83.7047 297.9697,-75.6427 287.5683,-77.6582 291.0955,-83.7047"/>
</g>
<!-- Node6 -->
<g id="node7" class="node">
<title>Node6</title>
<polygon fill="#ffffff" stroke="#bfbfbf" points="320.5,-.5 320.5,-19.5 380.5,-19.5 380.5,-.5 320.5,-.5"/>
<text text-anchor="middle" x="350.5" y="-7.5" font-family="Helvetica,sans-Serif" font-size="10.00" fill="#000000">stdbool.h</text>
</g>
<!-- Node4&#45;&gt;Node6 -->
<g id="edge7" class="edge">
<title>Node4&#45;&gt;Node6</title>
<path fill="none" stroke="#191970" d="M247.6439,-115.8256C282.4145,-107.8044 337.3857,-92.8217 349.5,-76 359.0117,-62.7922 358.2768,-43.9243 355.7374,-29.7425"/>
<polygon fill="#191970" stroke="#191970" points="359.0628,-28.5727 353.4752,-19.5712 352.2298,-30.0925 359.0628,-28.5727"/>
</g>
<!-- Node7 -->
<g id="node8" class="node">
<title>Node7</title>
<polygon fill="#ffffff" stroke="#bfbfbf" points="158.5,-56.5 158.5,-75.5 214.5,-75.5 214.5,-56.5 158.5,-56.5"/>
<text text-anchor="middle" x="186.5" y="-63.5" font-family="Helvetica,sans-Serif" font-size="10.00" fill="#000000">stddef.h</text>
</g>
<!-- Node4&#45;&gt;Node7 -->
<g id="edge8" class="edge">
<title>Node4&#45;&gt;Node7</title>
<path fill="none" stroke="#191970" d="M212.926,-112.2455C208.5669,-104.617 202.3789,-93.7881 197.0867,-84.5267"/>
<polygon fill="#191970" stroke="#191970" points="200.0104,-82.5886 192.0101,-75.6427 193.9327,-86.0616 200.0104,-82.5886"/>
</g>
<!-- Node8 -->
<g id="node9" class="node">
<title>Node8</title>
<g id="a_node9"><a xlink:href="irq_8h.html" target="_top" xlink:title="IRQ driver interface. ">
<polygon fill="#ffffff" stroke="#000000" points="232.5,-56.5 232.5,-75.5 270.5,-75.5 270.5,-56.5 232.5,-56.5"/>
<text text-anchor="middle" x="251.5" y="-63.5" font-family="Helvetica,sans-Serif" font-size="10.00" fill="#000000">irq.h</text>
</a>
</g>
</g>
<!-- Node4&#45;&gt;Node8 -->
<g id="edge10" class="edge">
<title>Node4&#45;&gt;Node8</title>
<path fill="none" stroke="#191970" d="M224.2482,-112.2455C228.7435,-104.617 235.1248,-93.7881 240.5825,-84.5267"/>
<polygon fill="#191970" stroke="#191970" points="243.7561,-86.035 245.8177,-75.6427 237.7253,-82.4811 243.7561,-86.035"/>
</g>
<!-- Node8&#45;&gt;Node6 -->
<g id="edge11" class="edge">
<title>Node8&#45;&gt;Node6</title>
<path fill="none" stroke="#191970" d="M268.7445,-56.2455C284.0761,-47.5731 306.7199,-34.7645 324.2916,-24.825"/>
<polygon fill="#191970" stroke="#191970" points="326.4724,-27.6126 333.4531,-19.6427 323.0259,-21.5198 326.4724,-27.6126"/>
</g>
<!-- Node9 -->
<g id="node10" class="node">
<title>Node9</title>
<polygon fill="#ffffff" stroke="#bfbfbf" points="218,-.5 218,-19.5 285,-19.5 285,-.5 218,-.5"/>
<text text-anchor="middle" x="251.5" y="-7.5" font-family="Helvetica,sans-Serif" font-size="10.00" fill="#000000">cpu_conf.h</text>
</g>
<!-- Node8&#45;&gt;Node9 -->
<g id="edge12" class="edge">
<title>Node8&#45;&gt;Node9</title>
<path fill="none" stroke="#191970" d="M251.5,-56.2455C251.5,-48.9382 251.5,-38.6944 251.5,-29.7046"/>
<polygon fill="#191970" stroke="#191970" points="255.0001,-29.6426 251.5,-19.6427 248.0001,-29.6427 255.0001,-29.6426"/>
</g>
</g>
</svg>
