<?xml version="1.0" encoding="UTF-8" standalone="no"?>
<!DOCTYPE svg PUBLIC "-//W3C//DTD SVG 1.1//EN"
 "http://www.w3.org/Graphics/SVG/1.1/DTD/svg11.dtd">
<!-- Generated by graphviz version 2.40.1 (0)
 -->
<!-- Title: sys/include/sema_inv.h Pages: 1 -->
<svg width="1317pt" height="476pt"
 viewBox="0.00 0.00 1316.50 476.00" xmlns="http://www.w3.org/2000/svg" xmlns:xlink="http://www.w3.org/1999/xlink">
<g id="graph0" class="graph" transform="scale(1 1) rotate(0) translate(4 472)">
<title>sys/include/sema_inv.h</title>
<polygon fill="#ffffff" stroke="transparent" points="-4,4 -4,-472 1312.5,-472 1312.5,4 -4,4"/>
<!-- Node0 -->
<g id="node1" class="node">
<title>Node0</title>
<polygon fill="#bfbfbf" stroke="#000000" points="434,-448.5 434,-467.5 556,-467.5 556,-448.5 434,-448.5"/>
<text text-anchor="middle" x="495" y="-455.5" font-family="Helvetica,sans-Serif" font-size="10.00" fill="#000000">sys/include/sema_inv.h</text>
</g>
<!-- Node1 -->
<g id="node2" class="node">
<title>Node1</title>
<g id="a_node2"><a xlink:href="atomic__utils_8h.html" target="_top" xlink:title="API of the utility functions for atomic accesses. ">
<polygon fill="#ffffff" stroke="#000000" points="183,-280.5 183,-299.5 263,-299.5 263,-280.5 183,-280.5"/>
<text text-anchor="middle" x="223" y="-287.5" font-family="Helvetica,sans-Serif" font-size="10.00" fill="#000000">atomic_utils.h</text>
</a>
</g>
</g>
<!-- Node0&#45;&gt;Node1 -->
<g id="edge1" class="edge">
<title>Node0&#45;&gt;Node1</title>
<path fill="none" stroke="#191970" d="M475.6923,-448.4096C441.617,-431.2418 368.9365,-393.5322 311,-356 286.7052,-340.2614 260.3289,-320.0219 242.8535,-306.1292"/>
<polygon fill="#191970" stroke="#191970" points="244.576,-303.0243 234.5844,-299.5002 240.1976,-308.486 244.576,-303.0243"/>
</g>
<!-- Node20 -->
<g id="node21" class="node">
<title>Node20</title>
<g id="a_node21"><a xlink:href="mutex_8h.html" target="_top" xlink:title="Mutex for thread synchronization. ">
<polygon fill="#ffffff" stroke="#000000" points="758,-392.5 758,-411.5 814,-411.5 814,-392.5 758,-392.5"/>
<text text-anchor="middle" x="786" y="-399.5" font-family="Helvetica,sans-Serif" font-size="10.00" fill="#000000">mutex.h</text>
</a>
</g>
</g>
<!-- Node0&#45;&gt;Node20 -->
<g id="edge27" class="edge">
<title>Node0&#45;&gt;Node20</title>
<path fill="none" stroke="#191970" d="M544.694,-448.4369C602.2198,-437.3666 695.713,-419.3748 747.8267,-409.3461"/>
<polygon fill="#191970" stroke="#191970" points="748.5164,-412.7776 757.6748,-407.4509 747.1935,-405.9038 748.5164,-412.7776"/>
</g>
<!-- Node2 -->
<g id="node3" class="node">
<title>Node2</title>
<polygon fill="#ffffff" stroke="#bfbfbf" points="826,-.5 826,-19.5 878,-19.5 878,-.5 826,-.5"/>
<text text-anchor="middle" x="852" y="-7.5" font-family="Helvetica,sans-Serif" font-size="10.00" fill="#000000">stdint.h</text>
</g>
<!-- Node1&#45;&gt;Node2 -->
<g id="edge2" class="edge">
<title>Node1&#45;&gt;Node2</title>
<path fill="none" stroke="#191970" d="M187.2097,-280.3628C167.4463,-273.3171 143.9463,-261.8171 129,-244 109.3823,-220.6141 110,-208.5246 110,-178 110,-178 110,-178 110,-122 110,-49.7997 666.3855,-18.6584 815.5677,-11.6062"/>
<polygon fill="#191970" stroke="#191970" points="815.7653,-15.1009 825.5918,-11.1399 815.4399,-8.1085 815.7653,-15.1009"/>
</g>
<!-- Node3 -->
<g id="node4" class="node">
<title>Node3</title>
<g id="a_node4"><a xlink:href="irq_8h.html" target="_top" xlink:title="IRQ driver interface. ">
<polygon fill="#ffffff" stroke="#000000" points="260,-224.5 260,-243.5 298,-243.5 298,-224.5 260,-224.5"/>
<text text-anchor="middle" x="279" y="-231.5" font-family="Helvetica,sans-Serif" font-size="10.00" fill="#000000">irq.h</text>
</a>
</g>
</g>
<!-- Node1&#45;&gt;Node3 -->
<g id="edge3" class="edge">
<title>Node1&#45;&gt;Node3</title>
<path fill="none" stroke="#191970" d="M232.7545,-280.2455C240.8648,-272.1352 252.5925,-260.4075 262.2081,-250.7919"/>
<polygon fill="#191970" stroke="#191970" points="264.7611,-253.1887 269.3573,-243.6427 259.8113,-248.2389 264.7611,-253.1887"/>
</g>
<!-- Node6 -->
<g id="node7" class="node">
<title>Node6</title>
<g id="a_node7"><a xlink:href="core_2lib_2include_2macros_2utils_8h.html" target="_top" xlink:title="Various helper macros. ">
<polygon fill="#ffffff" stroke="#000000" points="0,-224.5 0,-243.5 82,-243.5 82,-224.5 0,-224.5"/>
<text text-anchor="middle" x="41" y="-231.5" font-family="Helvetica,sans-Serif" font-size="10.00" fill="#000000">macros/utils.h</text>
</a>
</g>
</g>
<!-- Node1&#45;&gt;Node6 -->
<g id="edge6" class="edge">
<title>Node1&#45;&gt;Node6</title>
<path fill="none" stroke="#191970" d="M191.7131,-280.3733C161.3182,-271.021 115.0107,-256.7725 81.75,-246.5385"/>
<polygon fill="#191970" stroke="#191970" points="82.4658,-243.0968 71.8786,-243.5011 80.4071,-249.7873 82.4658,-243.0968"/>
</g>
<!-- Node7 -->
<g id="node8" class="node">
<title>Node7</title>
<g id="a_node8"><a xlink:href="sched_8h.html" target="_top" xlink:title="Scheduler API definition. ">
<polygon fill="#ffffff" stroke="#000000" points="555.5,-224.5 555.5,-243.5 608.5,-243.5 608.5,-224.5 555.5,-224.5"/>
<text text-anchor="middle" x="582" y="-231.5" font-family="Helvetica,sans-Serif" font-size="10.00" fill="#000000">sched.h</text>
</a>
</g>
</g>
<!-- Node1&#45;&gt;Node7 -->
<g id="edge7" class="edge">
<title>Node1&#45;&gt;Node7</title>
<path fill="none" stroke="#191970" d="M263.1369,-283.7391C333.3024,-272.7941 477.2401,-250.3414 545.0781,-239.7594"/>
<polygon fill="#191970" stroke="#191970" points="545.9483,-243.1661 555.2894,-238.1666 544.8694,-236.2497 545.9483,-243.1661"/>
</g>
<!-- Node19 -->
<g id="node20" class="node">
<title>Node19</title>
<polygon fill="#ffffff" stroke="#bfbfbf" points="138,-224.5 138,-243.5 242,-243.5 242,-224.5 138,-224.5"/>
<text text-anchor="middle" x="190" y="-231.5" font-family="Helvetica,sans-Serif" font-size="10.00" fill="#000000">atomic_utils_arch.h</text>
</g>
<!-- Node1&#45;&gt;Node19 -->
<g id="edge26" class="edge">
<title>Node1&#45;&gt;Node19</title>
<path fill="none" stroke="#191970" d="M217.2518,-280.2455C212.7565,-272.617 206.3752,-261.7881 200.9175,-252.5267"/>
<polygon fill="#191970" stroke="#191970" points="203.7747,-250.4811 195.6823,-243.6427 197.7439,-254.035 203.7747,-250.4811"/>
</g>
<!-- Node4 -->
<g id="node5" class="node">
<title>Node4</title>
<polygon fill="#ffffff" stroke="#bfbfbf" points="332,-112.5 332,-131.5 392,-131.5 392,-112.5 332,-112.5"/>
<text text-anchor="middle" x="362" y="-119.5" font-family="Helvetica,sans-Serif" font-size="10.00" fill="#000000">stdbool.h</text>
</g>
<!-- Node3&#45;&gt;Node4 -->
<g id="edge4" class="edge">
<title>Node3&#45;&gt;Node4</title>
<path fill="none" stroke="#191970" d="M264.9851,-224.4706C247.7018,-211.5222 222.2041,-187.7231 236,-168 246.1911,-153.4304 289.0561,-139.875 321.9892,-131.3079"/>
<polygon fill="#191970" stroke="#191970" points="323.0083,-134.6605 331.8438,-128.8137 321.2907,-127.8744 323.0083,-134.6605"/>
</g>
<!-- Node5 -->
<g id="node6" class="node">
<title>Node5</title>
<polygon fill="#ffffff" stroke="#bfbfbf" points="245.5,-168.5 245.5,-187.5 312.5,-187.5 312.5,-168.5 245.5,-168.5"/>
<text text-anchor="middle" x="279" y="-175.5" font-family="Helvetica,sans-Serif" font-size="10.00" fill="#000000">cpu_conf.h</text>
</g>
<!-- Node3&#45;&gt;Node5 -->
<g id="edge5" class="edge">
<title>Node3&#45;&gt;Node5</title>
<path fill="none" stroke="#191970" d="M279,-224.2455C279,-216.9382 279,-206.6944 279,-197.7046"/>
<polygon fill="#191970" stroke="#191970" points="282.5001,-197.6426 279,-187.6427 275.5001,-197.6427 282.5001,-197.6426"/>
</g>
<!-- Node8 -->
<g id="node9" class="node">
<title>Node8</title>
<polygon fill="#ffffff" stroke="#bfbfbf" points="604,-56.5 604,-75.5 660,-75.5 660,-56.5 604,-56.5"/>
<text text-anchor="middle" x="632" y="-63.5" font-family="Helvetica,sans-Serif" font-size="10.00" fill="#000000">stddef.h</text>
</g>
<!-- Node7&#45;&gt;Node8 -->
<g id="edge8" class="edge">
<title>Node7&#45;&gt;Node8</title>
<path fill="none" stroke="#191970" d="M581.8032,-224.4255C581.6916,-203.3166 583.2,-151.5148 599,-112 603.0733,-101.813 609.8686,-91.764 616.2376,-83.6694"/>
<polygon fill="#191970" stroke="#191970" points="619.1296,-85.6657 622.8325,-75.739 613.7474,-81.1899 619.1296,-85.6657"/>
</g>
<!-- Node9 -->
<g id="node10" class="node">
<title>Node9</title>
<g id="a_node10"><a xlink:href="inttypes_8h.html" target="_top" xlink:title="Adds include for missing inttype definitions. ">
<polygon fill="#ffffff" stroke="#000000" points="965.5,-168.5 965.5,-187.5 1028.5,-187.5 1028.5,-168.5 965.5,-168.5"/>
<text text-anchor="middle" x="997" y="-175.5" font-family="Helvetica,sans-Serif" font-size="10.00" fill="#000000">inttypes.h</text>
</a>
</g>
</g>
<!-- Node7&#45;&gt;Node9 -->
<g id="edge9" class="edge">
<title>Node7&#45;&gt;Node9</title>
<path fill="none" stroke="#191970" d="M608.8453,-230.8975C668.2619,-223.9506 815.3438,-206.3117 938,-188 943.5872,-187.1659 949.4627,-186.2349 955.2519,-185.286"/>
<polygon fill="#191970" stroke="#191970" points="956.2114,-188.6743 965.4986,-183.5753 955.0587,-181.7698 956.2114,-188.6743"/>
</g>
<!-- Node10 -->
<g id="node11" class="node">
<title>Node10</title>
<g id="a_node11"><a xlink:href="kernel__defines_8h.html" target="_top" xlink:title="Common macros and compiler attributes/pragmas configuration. ">
<polygon fill="#ffffff" stroke="#000000" points="833.5,-168.5 833.5,-187.5 928.5,-187.5 928.5,-168.5 833.5,-168.5"/>
<text text-anchor="middle" x="881" y="-175.5" font-family="Helvetica,sans-Serif" font-size="10.00" fill="#000000">kernel_defines.h</text>
</a>
</g>
</g>
<!-- Node7&#45;&gt;Node10 -->
<g id="edge10" class="edge">
<title>Node7&#45;&gt;Node10</title>
<path fill="none" stroke="#191970" d="M608.5343,-229.0304C656.4919,-220.0483 758.6159,-200.9214 823.3102,-188.8048"/>
<polygon fill="#191970" stroke="#191970" points="824.1731,-192.2041 833.3579,-186.9229 822.8844,-185.3237 824.1731,-192.2041"/>
</g>
<!-- Node16 -->
<g id="node17" class="node">
<title>Node16</title>
<g id="a_node17"><a xlink:href="native__sched_8h.html" target="_top" xlink:title="Add definitions required on the native board. ">
<polygon fill="#ffffff" stroke="#000000" points="468,-168.5 468,-187.5 554,-187.5 554,-168.5 468,-168.5"/>
<text text-anchor="middle" x="511" y="-175.5" font-family="Helvetica,sans-Serif" font-size="10.00" fill="#000000">native_sched.h</text>
</a>
</g>
</g>
<!-- Node7&#45;&gt;Node16 -->
<g id="edge21" class="edge">
<title>Node7&#45;&gt;Node16</title>
<path fill="none" stroke="#191970" d="M569.6327,-224.2455C559.0446,-215.8943 543.5936,-203.7076 531.2107,-193.9408"/>
<polygon fill="#191970" stroke="#191970" points="533.2447,-191.0875 523.2255,-187.6427 528.9097,-196.5837 533.2447,-191.0875"/>
</g>
<!-- Node17 -->
<g id="node18" class="node">
<title>Node17</title>
<g id="a_node18"><a xlink:href="clist_8h.html" target="_top" xlink:title="Circular linked list. ">
<polygon fill="#ffffff" stroke="#000000" points="610.5,-168.5 610.5,-187.5 653.5,-187.5 653.5,-168.5 610.5,-168.5"/>
<text text-anchor="middle" x="632" y="-175.5" font-family="Helvetica,sans-Serif" font-size="10.00" fill="#000000">clist.h</text>
</a>
</g>
</g>
<!-- Node7&#45;&gt;Node17 -->
<g id="edge22" class="edge">
<title>Node7&#45;&gt;Node17</title>
<path fill="none" stroke="#191970" d="M590.7093,-224.2455C597.8073,-216.2958 608.0084,-204.8706 616.495,-195.3656"/>
<polygon fill="#191970" stroke="#191970" points="619.3411,-197.4331 623.3905,-187.6427 614.1195,-192.771 619.3411,-197.4331"/>
</g>
<!-- Node11 -->
<g id="node12" class="node">
<title>Node11</title>
<g id="a_node12"><a xlink:href="modules_8h.html" target="_top" xlink:title="Common macros and compiler attributes/pragmas configuration. ">
<polygon fill="#ffffff" stroke="#000000" points="944.5,-112.5 944.5,-131.5 1009.5,-131.5 1009.5,-112.5 944.5,-112.5"/>
<text text-anchor="middle" x="977" y="-119.5" font-family="Helvetica,sans-Serif" font-size="10.00" fill="#000000">modules.h</text>
</a>
</g>
</g>
<!-- Node10&#45;&gt;Node11 -->
<g id="edge11" class="edge">
<title>Node10&#45;&gt;Node11</title>
<path fill="none" stroke="#191970" d="M897.7219,-168.2455C912.5889,-159.5731 934.5466,-146.7645 951.5858,-136.825"/>
<polygon fill="#191970" stroke="#191970" points="953.5955,-139.7047 960.4697,-131.6427 950.0683,-133.6582 953.5955,-139.7047"/>
</g>
<!-- Node12 -->
<g id="node13" class="node">
<title>Node12</title>
<g id="a_node13"><a xlink:href="riot__version_8h.html" target="_top" xlink:title="Common macros and compiler attributes/pragmas configuration. ">
<polygon fill="#ffffff" stroke="#000000" points="937.5,-56.5 937.5,-75.5 1018.5,-75.5 1018.5,-56.5 937.5,-56.5"/>
<text text-anchor="middle" x="978" y="-63.5" font-family="Helvetica,sans-Serif" font-size="10.00" fill="#000000">riot_version.h</text>
</a>
</g>
</g>
<!-- Node10&#45;&gt;Node12 -->
<g id="edge12" class="edge">
<title>Node10&#45;&gt;Node12</title>
<path fill="none" stroke="#191970" d="M928.1253,-168.4416C963.6567,-160.1663 1008.0728,-147.1606 1019,-132 1030.8211,-115.5991 1014.7481,-95.7804 999.3905,-82.1673"/>
<polygon fill="#191970" stroke="#191970" points="1001.5018,-79.3709 991.5762,-75.6651 997.0244,-84.7518 1001.5018,-79.3709"/>
</g>
<!-- Node13 -->
<g id="node14" class="node">
<title>Node13</title>
<g id="a_node14"><a xlink:href="compiler__hints_8h.html" target="_top" xlink:title="Common macros and compiler attributes/pragmas configuration. ">
<polygon fill="#ffffff" stroke="#000000" points="833.5,-112.5 833.5,-131.5 926.5,-131.5 926.5,-112.5 833.5,-112.5"/>
<text text-anchor="middle" x="880" y="-119.5" font-family="Helvetica,sans-Serif" font-size="10.00" fill="#000000">compiler_hints.h</text>
</a>
</g>
</g>
<!-- Node10&#45;&gt;Node13 -->
<g id="edge14" class="edge">
<title>Node10&#45;&gt;Node13</title>
<path fill="none" stroke="#191970" d="M880.8258,-168.2455C880.6953,-160.9382 880.5124,-150.6944 880.3519,-141.7046"/>
<polygon fill="#191970" stroke="#191970" points="883.8503,-141.5786 880.1722,-131.6427 876.8514,-141.7036 883.8503,-141.5786"/>
</g>
<!-- Node15 -->
<g id="node16" class="node">
<title>Node15</title>
<g id="a_node16"><a xlink:href="container_8h.html" target="_top" xlink:title="Common macros and compiler attributes/pragmas configuration. ">
<polygon fill="#ffffff" stroke="#000000" points="707.5,-112.5 707.5,-131.5 776.5,-131.5 776.5,-112.5 707.5,-112.5"/>
<text text-anchor="middle" x="742" y="-119.5" font-family="Helvetica,sans-Serif" font-size="10.00" fill="#000000">container.h</text>
</a>
</g>
</g>
<!-- Node10&#45;&gt;Node15 -->
<g id="edge18" class="edge">
<title>Node10&#45;&gt;Node15</title>
<path fill="none" stroke="#191970" d="M857.105,-168.3733C834.4918,-159.2629 800.3458,-145.5062 775.1127,-135.3404"/>
<polygon fill="#191970" stroke="#191970" points="776.1666,-131.9917 765.5831,-131.5011 773.5507,-138.4845 776.1666,-131.9917"/>
</g>
<!-- Node12&#45;&gt;Node2 -->
<g id="edge13" class="edge">
<title>Node12&#45;&gt;Node2</title>
<path fill="none" stroke="#191970" d="M956.3398,-56.3733C936.0228,-47.3435 905.436,-33.7494 882.625,-23.6111"/>
<polygon fill="#191970" stroke="#191970" points="883.9372,-20.3642 873.3775,-19.5011 881.0941,-26.7609 883.9372,-20.3642"/>
</g>
<!-- Node13&#45;&gt;Node2 -->
<g id="edge17" class="edge">
<title>Node13&#45;&gt;Node2</title>
<path fill="none" stroke="#191970" d="M877.6127,-112.4509C873.0253,-94.1013 862.8977,-53.5908 856.8423,-29.3693"/>
<polygon fill="#191970" stroke="#191970" points="860.2022,-28.3774 854.3812,-19.5249 853.4112,-30.0752 860.2022,-28.3774"/>
</g>
<!-- Node14 -->
<g id="node15" class="node">
<title>Node14</title>
<g id="a_node15"><a xlink:href="assert_8h.html" target="_top" xlink:title="POSIX.1&#45;2008 compliant version of the assert macro. ">
<polygon fill="#ffffff" stroke="#000000" points="798,-56.5 798,-75.5 852,-75.5 852,-56.5 798,-56.5"/>
<text text-anchor="middle" x="825" y="-63.5" font-family="Helvetica,sans-Serif" font-size="10.00" fill="#000000">assert.h</text>
</a>
</g>
</g>
<!-- Node13&#45;&gt;Node14 -->
<g id="edge15" class="edge">
<title>Node13&#45;&gt;Node14</title>
<path fill="none" stroke="#191970" d="M870.4197,-112.2455C862.4542,-104.1352 850.9359,-92.4075 841.4921,-82.7919"/>
<polygon fill="#191970" stroke="#191970" points="843.9747,-80.3247 834.4705,-75.6427 838.9805,-85.2297 843.9747,-80.3247"/>
</g>
<!-- Node14&#45;&gt;Node2 -->
<g id="edge16" class="edge">
<title>Node14&#45;&gt;Node2</title>
<path fill="none" stroke="#191970" d="M829.703,-56.2455C833.3424,-48.6973 838.4924,-38.0158 842.9262,-28.8197"/>
<polygon fill="#191970" stroke="#191970" points="846.1605,-30.1704 847.3509,-19.6427 839.8551,-27.1303 846.1605,-30.1704"/>
</g>
<!-- Node15&#45;&gt;Node2 -->
<g id="edge20" class="edge">
<title>Node15&#45;&gt;Node2</title>
<path fill="none" stroke="#191970" d="M747.5292,-112.3126C755.5525,-98.7612 771.4002,-73.8099 789,-56 800.5666,-44.2953 815.3461,-33.3387 827.6828,-25.0568"/>
<polygon fill="#191970" stroke="#191970" points="829.6932,-27.9242 836.1532,-19.5266 825.8664,-22.0628 829.6932,-27.9242"/>
</g>
<!-- Node15&#45;&gt;Node8 -->
<g id="edge19" class="edge">
<title>Node15&#45;&gt;Node8</title>
<path fill="none" stroke="#191970" d="M722.8395,-112.2455C705.4889,-103.4125 679.7099,-90.2887 660.0417,-80.2758"/>
<polygon fill="#191970" stroke="#191970" points="661.4405,-77.0605 650.941,-75.6427 658.2647,-83.2986 661.4405,-77.0605"/>
</g>
<!-- Node17&#45;&gt;Node4 -->
<g id="edge23" class="edge">
<title>Node17&#45;&gt;Node4</title>
<path fill="none" stroke="#191970" d="M610.3612,-173.5119C565.1485,-164.1345 460.068,-142.34 402.1294,-130.3231"/>
<polygon fill="#191970" stroke="#191970" points="402.7287,-126.873 392.2262,-128.2691 401.307,-133.7271 402.7287,-126.873"/>
</g>
<!-- Node17&#45;&gt;Node8 -->
<g id="edge24" class="edge">
<title>Node17&#45;&gt;Node8</title>
<path fill="none" stroke="#191970" d="M623.7911,-168.1677C616.9886,-159.3343 607.8369,-145.6831 604,-132 599.2489,-115.0568 608.2846,-96.6989 617.3288,-83.656"/>
<polygon fill="#191970" stroke="#191970" points="620.2062,-85.6531 623.4221,-75.5582 614.6128,-81.4443 620.2062,-85.6531"/>
</g>
<!-- Node18 -->
<g id="node19" class="node">
<title>Node18</title>
<g id="a_node19"><a xlink:href="list_8h.html" target="_top" xlink:title="Intrusive linked list. ">
<polygon fill="#ffffff" stroke="#000000" points="613,-112.5 613,-131.5 651,-131.5 651,-112.5 613,-112.5"/>
<text text-anchor="middle" x="632" y="-119.5" font-family="Helvetica,sans-Serif" font-size="10.00" fill="#000000">list.h</text>
</a>
</g>
</g>
<!-- Node17&#45;&gt;Node18 -->
<g id="edge25" class="edge">
<title>Node17&#45;&gt;Node18</title>
<path fill="none" stroke="#191970" d="M632,-168.2455C632,-160.9382 632,-150.6944 632,-141.7046"/>
<polygon fill="#191970" stroke="#191970" points="635.5001,-141.6426 632,-131.6427 628.5001,-141.6427 635.5001,-141.6426"/>
</g>
<!-- Node20&#45;&gt;Node2 -->
<g id="edge29" class="edge">
<title>Node20&#45;&gt;Node2</title>
<path fill="none" stroke="#191970" d="M814.2299,-396.9931C885.4877,-383.5563 1067,-344.0269 1067,-290 1067,-290 1067,-290 1067,-234 1067,-153.0123 1084.1117,-114.3994 1028,-56 1008.918,-36.14 934.1423,-21.9893 888.419,-14.9869"/>
<polygon fill="#191970" stroke="#191970" points="888.7095,-11.4917 878.3031,-13.4814 887.6789,-18.4154 888.7095,-11.4917"/>
</g>
<!-- Node20&#45;&gt;Node4 -->
<g id="edge30" class="edge">
<title>Node20&#45;&gt;Node4</title>
<path fill="none" stroke="#191970" d="M757.8261,-399.9395C668.8018,-392.7885 396.3371,-365.7904 344,-300 306.8653,-253.3197 335.5746,-176.5057 352.2375,-141.0381"/>
<polygon fill="#191970" stroke="#191970" points="355.4999,-142.3337 356.7449,-131.8122 349.2104,-139.2608 355.4999,-142.3337"/>
</g>
<!-- Node20&#45;&gt;Node8 -->
<g id="edge28" class="edge">
<title>Node20&#45;&gt;Node8</title>
<path fill="none" stroke="#191970" d="M788.8035,-392.2066C794.0887,-372.8521 805,-328.2612 805,-290 805,-290 805,-290 805,-234 805,-168.2988 748.9848,-173.4391 698,-132 679.289,-116.7922 660.0318,-96.9658 647.1846,-83.0276"/>
<polygon fill="#191970" stroke="#191970" points="649.7307,-80.6251 640.4137,-75.5809 644.5515,-85.3343 649.7307,-80.6251"/>
</g>
<!-- Node20&#45;&gt;Node10 -->
<g id="edge36" class="edge">
<title>Node20&#45;&gt;Node10</title>
<path fill="none" stroke="#191970" d="M794.2211,-392.3097C801.5018,-383.3519 812.0274,-369.4344 819,-356 847.3059,-301.4615 867.4441,-231.1645 876.1676,-197.5686"/>
<polygon fill="#191970" stroke="#191970" points="879.6153,-198.2118 878.6838,-187.658 872.8306,-196.4892 879.6153,-198.2118"/>
</g>
<!-- Node20&#45;&gt;Node18 -->
<g id="edge37" class="edge">
<title>Node20&#45;&gt;Node18</title>
<path fill="none" stroke="#191970" d="M783.1965,-392.2066C777.9113,-372.8521 767,-328.2612 767,-290 767,-290 767,-290 767,-234 767,-179.1151 700.0899,-145.9987 660.4805,-131.2029"/>
<polygon fill="#191970" stroke="#191970" points="661.6505,-127.9042 651.0559,-127.8339 659.2942,-134.4958 661.6505,-127.9042"/>
</g>
<!-- Node21 -->
<g id="node22" class="node">
<title>Node21</title>
<g id="a_node22"><a xlink:href="architecture_8h.html" target="_top" xlink:title="Platform&#45;independent access to architecture details. ">
<polygon fill="#ffffff" stroke="#000000" points="1095.5,-224.5 1095.5,-243.5 1178.5,-243.5 1178.5,-224.5 1095.5,-224.5"/>
<text text-anchor="middle" x="1137" y="-231.5" font-family="Helvetica,sans-Serif" font-size="10.00" fill="#000000">architecture.h</text>
</a>
</g>
</g>
<!-- Node20&#45;&gt;Node21 -->
<g id="edge31" class="edge">
<title>Node20&#45;&gt;Node21</title>
<path fill="none" stroke="#191970" d="M814.2668,-400.9389C879.7124,-397.9642 1039.2464,-387.582 1081,-356 1114.3261,-330.7925 1128.4401,-281.0499 1133.906,-253.505"/>
<polygon fill="#191970" stroke="#191970" points="1137.3789,-253.9671 1135.7004,-243.5061 1130.489,-252.7306 1137.3789,-253.9671"/>
</g>
<!-- Node24 -->
<g id="node25" class="node">
<title>Node24</title>
<g id="a_node25"><a xlink:href="core_2include_2thread_8h.html" target="_top" xlink:title="Threading API. ">
<polygon fill="#ffffff" stroke="#000000" points="606.5,-336.5 606.5,-355.5 663.5,-355.5 663.5,-336.5 606.5,-336.5"/>
<text text-anchor="middle" x="635" y="-343.5" font-family="Helvetica,sans-Serif" font-size="10.00" fill="#000000">thread.h</text>
</a>
</g>
</g>
<!-- Node20&#45;&gt;Node24 -->
<g id="edge38" class="edge">
<title>Node20&#45;&gt;Node24</title>
<path fill="none" stroke="#191970" d="M760.0422,-392.3733C735.2593,-383.1822 697.7254,-369.2624 670.246,-359.0713"/>
<polygon fill="#191970" stroke="#191970" points="671.2121,-355.6968 660.6191,-355.5011 668.7781,-362.26 671.2121,-355.6968"/>
</g>
<!-- Node21&#45;&gt;Node2 -->
<g id="edge32" class="edge">
<title>Node21&#45;&gt;Node2</title>
<path fill="none" stroke="#191970" d="M1142.7417,-224.148C1149.5317,-211.2379 1159.2843,-187.8985 1154,-168 1139.2848,-112.589 1136.6181,-89.3717 1090,-56 1058.1879,-33.2272 947.0438,-19.269 888.5826,-13.334"/>
<polygon fill="#191970" stroke="#191970" points="888.6065,-9.8194 878.3107,-12.3189 887.918,-16.7855 888.6065,-9.8194"/>
</g>
<!-- Node21&#45;&gt;Node9 -->
<g id="edge33" class="edge">
<title>Node21&#45;&gt;Node9</title>
<path fill="none" stroke="#191970" d="M1112.9331,-224.3733C1090.1572,-215.2629 1055.7656,-201.5062 1030.351,-191.3404"/>
<polygon fill="#191970" stroke="#191970" points="1031.3375,-187.9654 1020.7528,-187.5011 1028.7377,-194.4648 1031.3375,-187.9654"/>
</g>
<!-- Node22 -->
<g id="node23" class="node">
<title>Node22</title>
<polygon fill="#ffffff" stroke="#bfbfbf" points="1095,-168.5 1095,-187.5 1145,-187.5 1145,-168.5 1095,-168.5"/>
<text text-anchor="middle" x="1120" y="-175.5" font-family="Helvetica,sans-Serif" font-size="10.00" fill="#000000">limits.h</text>
</g>
<!-- Node21&#45;&gt;Node22 -->
<g id="edge34" class="edge">
<title>Node21&#45;&gt;Node22</title>
<path fill="none" stroke="#191970" d="M1134.0388,-224.2455C1131.7962,-216.8579 1128.6423,-206.4689 1125.8919,-197.4087"/>
<polygon fill="#191970" stroke="#191970" points="1129.1812,-196.1948 1122.9272,-187.6427 1122.483,-198.2282 1129.1812,-196.1948"/>
</g>
<!-- Node23 -->
<g id="node24" class="node">
<title>Node23</title>
<polygon fill="#ffffff" stroke="#bfbfbf" points="1201.5,-168.5 1201.5,-187.5 1308.5,-187.5 1308.5,-168.5 1201.5,-168.5"/>
<text text-anchor="middle" x="1255" y="-175.5" font-family="Helvetica,sans-Serif" font-size="10.00" fill="#000000">architecture_arch.h</text>
</g>
<!-- Node21&#45;&gt;Node23 -->
<g id="edge35" class="edge">
<title>Node21&#45;&gt;Node23</title>
<path fill="none" stroke="#191970" d="M1157.2849,-224.3733C1176.1421,-215.4241 1204.446,-201.9917 1225.7455,-191.8835"/>
<polygon fill="#191970" stroke="#191970" points="1227.4461,-194.9506 1234.9798,-187.5011 1224.4449,-188.6266 1227.4461,-194.9506"/>
</g>
<!-- Node24&#45;&gt;Node7 -->
<g id="edge46" class="edge">
<title>Node24&#45;&gt;Node7</title>
<path fill="none" stroke="#191970" d="M633.3139,-336.2058C630.7845,-322.9573 625.2865,-298.8191 616,-280 610.9772,-269.8212 603.662,-259.562 597.1026,-251.3232"/>
<polygon fill="#191970" stroke="#191970" points="599.7434,-249.0246 590.6684,-243.5569 594.353,-253.4904 599.7434,-249.0246"/>
</g>
<!-- Node24&#45;&gt;Node17 -->
<g id="edge39" class="edge">
<title>Node24&#45;&gt;Node17</title>
<path fill="none" stroke="#191970" d="M634.8646,-336.1598C634.6839,-323.2624 634.3465,-299.9368 634,-280 633.5037,-251.4441 632.8391,-218.3932 632.4152,-197.8396"/>
<polygon fill="#191970" stroke="#191970" points="635.9087,-197.4874 632.2017,-187.5622 628.9102,-197.6328 635.9087,-197.4874"/>
</g>
<!-- Node25 -->
<g id="node26" class="node">
<title>Node25</title>
<g id="a_node26"><a xlink:href="cib_8h.html" target="_top" xlink:title="Circular integer buffer interface. ">
<polygon fill="#ffffff" stroke="#000000" points="701,-280.5 701,-299.5 739,-299.5 739,-280.5 701,-280.5"/>
<text text-anchor="middle" x="720" y="-287.5" font-family="Helvetica,sans-Serif" font-size="10.00" fill="#000000">cib.h</text>
</a>
</g>
</g>
<!-- Node24&#45;&gt;Node25 -->
<g id="edge40" class="edge">
<title>Node24&#45;&gt;Node25</title>
<path fill="none" stroke="#191970" d="M649.8059,-336.2455C662.7256,-327.7337 681.6931,-315.2375 696.6552,-305.3801"/>
<polygon fill="#191970" stroke="#191970" points="698.9387,-308.067 705.3638,-299.6427 695.0876,-302.2216 698.9387,-308.067"/>
</g>
<!-- Node26 -->
<g id="node27" class="node">
<title>Node26</title>
<g id="a_node27"><a xlink:href="core_2include_2msg_8h.html" target="_top" xlink:title="Messaging API for inter process communication. ">
<polygon fill="#ffffff" stroke="#000000" points="461.5,-280.5 461.5,-299.5 506.5,-299.5 506.5,-280.5 461.5,-280.5"/>
<text text-anchor="middle" x="484" y="-287.5" font-family="Helvetica,sans-Serif" font-size="10.00" fill="#000000">msg.h</text>
</a>
</g>
</g>
<!-- Node24&#45;&gt;Node26 -->
<g id="edge42" class="edge">
<title>Node24&#45;&gt;Node26</title>
<path fill="none" stroke="#191970" d="M609.0422,-336.3733C583.3581,-326.848 543.9788,-312.2438 516.2892,-301.9748"/>
<polygon fill="#191970" stroke="#191970" points="517.2567,-298.6007 506.6637,-298.4051 514.8226,-305.1639 517.2567,-298.6007"/>
</g>
<!-- Node27 -->
<g id="node28" class="node">
<title>Node27</title>
<g id="a_node28"><a xlink:href="thread__config_8h.html" target="_top" xlink:title="Thread configuration defines. ">
<polygon fill="#ffffff" stroke="#000000" points="353,-280.5 353,-299.5 443,-299.5 443,-280.5 353,-280.5"/>
<text text-anchor="middle" x="398" y="-287.5" font-family="Helvetica,sans-Serif" font-size="10.00" fill="#000000">thread_config.h</text>
</a>
</g>
</g>
<!-- Node24&#45;&gt;Node27 -->
<g id="edge47" class="edge">
<title>Node24&#45;&gt;Node27</title>
<path fill="none" stroke="#191970" d="M606.4123,-339.2451C567.3329,-330.0112 496.6047,-313.299 448.4903,-301.9302"/>
<polygon fill="#191970" stroke="#191970" points="449.1229,-298.4834 438.586,-299.5899 447.5131,-305.2958 449.1229,-298.4834"/>
</g>
<!-- Node28 -->
<g id="node29" class="node">
<title>Node28</title>
<polygon fill="#ffffff" stroke="#bfbfbf" points="525,-280.5 525,-299.5 607,-299.5 607,-280.5 525,-280.5"/>
<text text-anchor="middle" x="566" y="-287.5" font-family="Helvetica,sans-Serif" font-size="10.00" fill="#000000">thread_arch.h</text>
</g>
<!-- Node24&#45;&gt;Node28 -->
<g id="edge50" class="edge">
<title>Node24&#45;&gt;Node28</title>
<path fill="none" stroke="#191970" d="M622.9811,-336.2455C612.7902,-327.9746 597.9638,-315.9416 585.9893,-306.2232"/>
<polygon fill="#191970" stroke="#191970" points="587.8514,-303.2268 577.8812,-299.6427 583.4402,-308.662 587.8514,-303.2268"/>
</g>
<!-- Node25&#45;&gt;Node14 -->
<g id="edge41" class="edge">
<title>Node25&#45;&gt;Node14</title>
<path fill="none" stroke="#191970" d="M724.5117,-280.375C740.5323,-246.1979 794.8643,-130.2894 816.2492,-84.6683"/>
<polygon fill="#191970" stroke="#191970" points="819.4298,-86.1293 820.5051,-75.5891 813.0916,-83.1582 819.4298,-86.1293"/>
</g>
<!-- Node26&#45;&gt;Node2 -->
<g id="edge43" class="edge">
<title>Node26&#45;&gt;Node2</title>
<path fill="none" stroke="#191970" d="M477.3173,-280.3152C465.0085,-261.5029 440,-218.3199 440,-178 440,-178 440,-178 440,-122 440,-44.4142 715.5042,-18.8242 815.9307,-12.0734"/>
<polygon fill="#191970" stroke="#191970" points="816.1625,-15.5658 825.915,-11.426 815.7094,-8.5805 816.1625,-15.5658"/>
</g>
<!-- Node26&#45;&gt;Node4 -->
<g id="edge44" class="edge">
<title>Node26&#45;&gt;Node4</title>
<path fill="none" stroke="#191970" d="M468.4742,-280.3388C455.8585,-271.9115 438.2144,-258.7481 426,-244 399.3019,-211.7636 379.1979,-166.5898 369.1486,-141.2305"/>
<polygon fill="#191970" stroke="#191970" points="372.3273,-139.7451 365.4675,-131.6708 365.7948,-142.2606 372.3273,-139.7451"/>
</g>
<!-- Node26&#45;&gt;Node7 -->
<g id="edge45" class="edge">
<title>Node26&#45;&gt;Node7</title>
<path fill="none" stroke="#191970" d="M501.0703,-280.2455C516.247,-271.5731 538.6621,-258.7645 556.0563,-248.825"/>
<polygon fill="#191970" stroke="#191970" points="558.1794,-251.643 565.1253,-243.6427 554.7064,-245.5653 558.1794,-251.643"/>
</g>
<!-- Node27&#45;&gt;Node5 -->
<g id="edge48" class="edge">
<title>Node27&#45;&gt;Node5</title>
<path fill="none" stroke="#191970" d="M387.8541,-280.4509C367.5672,-261.3574 321.7866,-218.2697 296.538,-194.5063"/>
<polygon fill="#191970" stroke="#191970" points="298.801,-191.8299 289.1202,-187.5249 294.0034,-196.9273 298.801,-191.8299"/>
</g>
<!-- Node27&#45;&gt;Node7 -->
<g id="edge49" class="edge">
<title>Node27&#45;&gt;Node7</title>
<path fill="none" stroke="#191970" d="M429.6307,-280.3733C461.7564,-270.5959 511.4653,-255.4671 545.3031,-245.1686"/>
<polygon fill="#191970" stroke="#191970" points="546.7102,-248.3989 555.2579,-242.1389 544.6721,-241.7022 546.7102,-248.3989"/>
</g>
</g>
</svg>
