<?xml version="1.0" encoding="UTF-8" standalone="no"?>
<!DOCTYPE svg PUBLIC "-//W3C//DTD SVG 1.1//EN"
 "http://www.w3.org/Graphics/SVG/1.1/DTD/svg11.dtd">
<!-- Generated by graphviz version 2.40.1 (0)
 -->
<!-- Title: sys/include/senml/phydat.h Pages: 1 -->
<svg width="296pt" height="141pt"
 viewBox="0.00 0.00 296.00 140.92" xmlns="http://www.w3.org/2000/svg" xmlns:xlink="http://www.w3.org/1999/xlink">
<g id="graph0" class="graph" transform="scale(1 1) rotate(0) translate(4 136.9166)">
<title>sys/include/senml/phydat.h</title>
<polygon fill="#ffffff" stroke="transparent" points="-4,4 -4,-136.9166 292,-136.9166 292,4 -4,4"/>
<!-- Node0 -->
<g id="node1" class="node">
<title>Node0</title>
<polygon fill="#bfbfbf" stroke="#000000" points="59,-112.5 59,-131.5 203,-131.5 203,-112.5 59,-112.5"/>
<text text-anchor="middle" x="131" y="-119.5" font-family="Helvetica,sans-Serif" font-size="10.00" fill="#000000">sys/include/senml/phydat.h</text>
</g>
<!-- Node0&#45;&gt;Node0 -->
<g id="edge9" class="edge">
<title>Node0&#45;&gt;Node0</title>
<path fill="none" stroke="#191970" d="M169.3852,-131.5252C195.4669,-134.3079 221,-131.1328 221,-122 221,-114.0445 201.6253,-110.6097 179.3906,-111.6957"/>
<polygon fill="#191970" stroke="#191970" points="179.0832,-108.2089 169.3852,-112.4748 179.6267,-115.1878 179.0832,-108.2089"/>
</g>
<!-- Node1 -->
<g id="node2" class="node">
<title>Node1</title>
<polygon fill="#ffffff" stroke="#bfbfbf" points="0,-.5 0,-19.5 56,-19.5 56,-.5 0,-.5"/>
<text text-anchor="middle" x="28" y="-7.5" font-family="Helvetica,sans-Serif" font-size="10.00" fill="#000000">stddef.h</text>
</g>
<!-- Node0&#45;&gt;Node1 -->
<g id="edge1" class="edge">
<title>Node0&#45;&gt;Node1</title>
<path fill="none" stroke="#191970" d="M122.2183,-112.4509C104.8111,-93.5227 65.7183,-51.014 43.7515,-27.1279"/>
<polygon fill="#191970" stroke="#191970" points="46.1049,-24.5163 36.7595,-19.5249 40.9524,-29.2547 46.1049,-24.5163"/>
</g>
<!-- Node2 -->
<g id="node3" class="node">
<title>Node2</title>
<polygon fill="#ffffff" stroke="#bfbfbf" points="74,-.5 74,-19.5 134,-19.5 134,-.5 74,-.5"/>
<text text-anchor="middle" x="104" y="-7.5" font-family="Helvetica,sans-Serif" font-size="10.00" fill="#000000">stdbool.h</text>
</g>
<!-- Node0&#45;&gt;Node2 -->
<g id="edge2" class="edge">
<title>Node0&#45;&gt;Node2</title>
<path fill="none" stroke="#191970" d="M128.698,-112.4509C124.2744,-94.1013 114.5085,-53.5908 108.6694,-29.3693"/>
<polygon fill="#191970" stroke="#191970" points="112.0424,-28.4261 106.2962,-19.5249 105.2373,-30.0667 112.0424,-28.4261"/>
</g>
<!-- Node3 -->
<g id="node4" class="node">
<title>Node3</title>
<polygon fill="#ffffff" stroke="#bfbfbf" points="236,-.5 236,-19.5 288,-19.5 288,-.5 236,-.5"/>
<text text-anchor="middle" x="262" y="-7.5" font-family="Helvetica,sans-Serif" font-size="10.00" fill="#000000">stdint.h</text>
</g>
<!-- Node0&#45;&gt;Node3 -->
<g id="edge3" class="edge">
<title>Node0&#45;&gt;Node3</title>
<path fill="none" stroke="#191970" d="M145.7117,-112.3809C159.0024,-103.471 178.8903,-89.5839 195,-76 213.3648,-60.5146 232.7502,-41.0293 245.9174,-27.2563"/>
<polygon fill="#191970" stroke="#191970" points="248.5658,-29.5497 252.8967,-19.8805 243.4813,-24.7385 248.5658,-29.5497"/>
</g>
<!-- Node4 -->
<g id="node5" class="node">
<title>Node4</title>
<g id="a_node5"><a xlink:href="senml_8h.html" target="_top" xlink:title="Basic SenML types. ">
<polygon fill="#ffffff" stroke="#000000" points="132.5,-56.5 132.5,-75.5 185.5,-75.5 185.5,-56.5 132.5,-56.5"/>
<text text-anchor="middle" x="159" y="-63.5" font-family="Helvetica,sans-Serif" font-size="10.00" fill="#000000">senml.h</text>
</a>
</g>
</g>
<!-- Node0&#45;&gt;Node4 -->
<g id="edge4" class="edge">
<title>Node0&#45;&gt;Node4</title>
<path fill="none" stroke="#191970" d="M135.8772,-112.2455C139.6513,-104.6973 144.9921,-94.0158 149.5901,-84.8197"/>
<polygon fill="#191970" stroke="#191970" points="152.837,-86.1522 154.1787,-75.6427 146.576,-83.0217 152.837,-86.1522"/>
</g>
<!-- Node4&#45;&gt;Node1 -->
<g id="edge5" class="edge">
<title>Node4&#45;&gt;Node1</title>
<path fill="none" stroke="#191970" d="M136.4803,-56.3733C115.2628,-47.3032 83.2724,-33.6279 59.5231,-23.4755"/>
<polygon fill="#191970" stroke="#191970" points="60.7967,-20.2136 50.2258,-19.5011 58.0452,-26.6502 60.7967,-20.2136"/>
</g>
<!-- Node4&#45;&gt;Node2 -->
<g id="edge6" class="edge">
<title>Node4&#45;&gt;Node2</title>
<path fill="none" stroke="#191970" d="M149.4197,-56.2455C141.4542,-48.1352 129.9359,-36.4075 120.4921,-26.7919"/>
<polygon fill="#191970" stroke="#191970" points="122.9747,-24.3247 113.4705,-19.6427 117.9805,-29.2297 122.9747,-24.3247"/>
</g>
<!-- Node4&#45;&gt;Node3 -->
<g id="edge7" class="edge">
<title>Node4&#45;&gt;Node3</title>
<path fill="none" stroke="#191970" d="M176.9412,-56.2455C193.04,-47.4928 216.8879,-34.527 235.2391,-24.5496"/>
<polygon fill="#191970" stroke="#191970" points="237.1507,-27.4942 244.2644,-19.6427 233.8071,-21.3444 237.1507,-27.4942"/>
</g>
<!-- Node5 -->
<g id="node6" class="node">
<title>Node5</title>
<g id="a_node6"><a xlink:href="modules_8h.html" target="_top" xlink:title="Common macros and compiler attributes/pragmas configuration. ">
<polygon fill="#ffffff" stroke="#000000" points="152.5,-.5 152.5,-19.5 217.5,-19.5 217.5,-.5 152.5,-.5"/>
<text text-anchor="middle" x="185" y="-7.5" font-family="Helvetica,sans-Serif" font-size="10.00" fill="#000000">modules.h</text>
</a>
</g>
</g>
<!-- Node4&#45;&gt;Node5 -->
<g id="edge8" class="edge">
<title>Node4&#45;&gt;Node5</title>
<path fill="none" stroke="#191970" d="M163.5289,-56.2455C167.0334,-48.6973 171.9927,-38.0158 176.2623,-28.8197"/>
<polygon fill="#191970" stroke="#191970" points="179.4864,-30.1867 180.523,-19.6427 173.1373,-27.2389 179.4864,-30.1867"/>
</g>
</g>
</svg>
