<?xml version="1.0" encoding="UTF-8" standalone="no"?>
<!DOCTYPE svg PUBLIC "-//W3C//DTD SVG 1.1//EN"
 "http://www.w3.org/Graphics/SVG/1.1/DTD/svg11.dtd">
<!-- Generated by graphviz version 2.40.1 (0)
 -->
<!-- Title: drivers/include/sgp30.h Pages: 1 -->
<svg width="1267pt" height="588pt"
 viewBox="0.00 0.00 1266.50 588.00" xmlns="http://www.w3.org/2000/svg" xmlns:xlink="http://www.w3.org/1999/xlink">
<g id="graph0" class="graph" transform="scale(1 1) rotate(0) translate(4 584)">
<title>drivers/include/sgp30.h</title>
<polygon fill="#ffffff" stroke="transparent" points="-4,4 -4,-584 1262.5,-584 1262.5,4 -4,4"/>
<!-- Node0 -->
<g id="node1" class="node">
<title>Node0</title>
<polygon fill="#bfbfbf" stroke="#000000" points="551.5,-560.5 551.5,-579.5 679.5,-579.5 679.5,-560.5 551.5,-560.5"/>
<text text-anchor="middle" x="615.5" y="-567.5" font-family="Helvetica,sans-Serif" font-size="10.00" fill="#000000">drivers/include/sgp30.h</text>
</g>
<!-- Node1 -->
<g id="node2" class="node">
<title>Node1</title>
<g id="a_node2"><a xlink:href="i2c_8h.html" target="_top" xlink:title="Low&#45;level I2C peripheral driver interface definition. ">
<polygon fill="#ffffff" stroke="#000000" points="187,-224.5 187,-243.5 260,-243.5 260,-224.5 187,-224.5"/>
<text text-anchor="middle" x="223.5" y="-231.5" font-family="Helvetica,sans-Serif" font-size="10.00" fill="#000000">periph/i2c.h</text>
</a>
</g>
</g>
<!-- Node0&#45;&gt;Node1 -->
<g id="edge1" class="edge">
<title>Node0&#45;&gt;Node1</title>
<path fill="none" stroke="#191970" d="M551.3382,-562.1077C453.0585,-548.2035 276.5,-515.2568 276.5,-458 276.5,-458 276.5,-458 276.5,-346 276.5,-309.8604 253.6748,-272.9196 237.9825,-251.7933"/>
<polygon fill="#191970" stroke="#191970" points="240.661,-249.5352 231.7813,-243.7558 235.1188,-253.8112 240.661,-249.5352"/>
</g>
<!-- Node7 -->
<g id="node8" class="node">
<title>Node7</title>
<g id="a_node8"><a xlink:href="ztimer_8h.html" target="_top" xlink:title="ztimer API ">
<polygon fill="#ffffff" stroke="#000000" points="983,-504.5 983,-523.5 1038,-523.5 1038,-504.5 983,-504.5"/>
<text text-anchor="middle" x="1010.5" y="-511.5" font-family="Helvetica,sans-Serif" font-size="10.00" fill="#000000">ztimer.h</text>
</a>
</g>
</g>
<!-- Node0&#45;&gt;Node7 -->
<g id="edge7" class="edge">
<title>Node0&#45;&gt;Node7</title>
<path fill="none" stroke="#191970" d="M679.8427,-560.878C763.0534,-549.081 905.2922,-528.9155 972.8027,-519.3444"/>
<polygon fill="#191970" stroke="#191970" points="973.5659,-522.7713 982.9756,-517.9022 972.5833,-515.8406 973.5659,-522.7713"/>
</g>
<!-- Node2 -->
<g id="node3" class="node">
<title>Node2</title>
<polygon fill="#ffffff" stroke="#bfbfbf" points="999.5,-.5 999.5,-19.5 1051.5,-19.5 1051.5,-.5 999.5,-.5"/>
<text text-anchor="middle" x="1025.5" y="-7.5" font-family="Helvetica,sans-Serif" font-size="10.00" fill="#000000">stdint.h</text>
</g>
<!-- Node1&#45;&gt;Node2 -->
<g id="edge2" class="edge">
<title>Node1&#45;&gt;Node2</title>
<path fill="none" stroke="#191970" d="M225.0459,-224.1344C227.4165,-210.805 232.7351,-186.5754 242.5,-168 272.4746,-110.9802 277.2073,-85.4495 334.5,-56 392.9328,-25.9645 855.3394,-13.6842 989.2705,-10.736"/>
<polygon fill="#191970" stroke="#191970" points="989.4923,-14.2321 999.4143,-10.5168 989.341,-7.2337 989.4923,-14.2321"/>
</g>
<!-- Node3 -->
<g id="node4" class="node">
<title>Node3</title>
<polygon fill="#ffffff" stroke="#bfbfbf" points="642.5,-56.5 642.5,-75.5 698.5,-75.5 698.5,-56.5 642.5,-56.5"/>
<text text-anchor="middle" x="670.5" y="-63.5" font-family="Helvetica,sans-Serif" font-size="10.00" fill="#000000">stddef.h</text>
</g>
<!-- Node1&#45;&gt;Node3 -->
<g id="edge3" class="edge">
<title>Node1&#45;&gt;Node3</title>
<path fill="none" stroke="#191970" d="M226.9882,-224.3283C232.4496,-210.3421 244.2137,-184.3582 261.5,-168 301.6345,-130.0204 319.8811,-128.8668 372.5,-112 462.8392,-83.042 574.6091,-72.0312 632.1982,-68.0694"/>
<polygon fill="#191970" stroke="#191970" points="632.553,-71.5537 642.3034,-67.4089 632.0964,-64.5686 632.553,-71.5537"/>
</g>
<!-- Node4 -->
<g id="node5" class="node">
<title>Node4</title>
<polygon fill="#ffffff" stroke="#bfbfbf" points="270.5,-168.5 270.5,-187.5 320.5,-187.5 320.5,-168.5 270.5,-168.5"/>
<text text-anchor="middle" x="295.5" y="-175.5" font-family="Helvetica,sans-Serif" font-size="10.00" fill="#000000">limits.h</text>
</g>
<!-- Node1&#45;&gt;Node4 -->
<g id="edge4" class="edge">
<title>Node1&#45;&gt;Node4</title>
<path fill="none" stroke="#191970" d="M236.0414,-224.2455C246.7787,-215.8943 262.4473,-203.7076 275.0047,-193.9408"/>
<polygon fill="#191970" stroke="#191970" points="277.3575,-196.5449 283.1023,-187.6427 273.0599,-191.0194 277.3575,-196.5449"/>
</g>
<!-- Node5 -->
<g id="node6" class="node">
<title>Node5</title>
<polygon fill="#ffffff" stroke="#bfbfbf" points="0,-168.5 0,-187.5 81,-187.5 81,-168.5 0,-168.5"/>
<text text-anchor="middle" x="40.5" y="-175.5" font-family="Helvetica,sans-Serif" font-size="10.00" fill="#000000">periph_conf.h</text>
</g>
<!-- Node1&#45;&gt;Node5 -->
<g id="edge5" class="edge">
<title>Node1&#45;&gt;Node5</title>
<path fill="none" stroke="#191970" d="M192.0412,-224.3733C161.4793,-215.021 114.9174,-200.7725 81.4739,-190.5385"/>
<polygon fill="#191970" stroke="#191970" points="82.1348,-187.0806 71.5483,-187.5011 80.0864,-193.7742 82.1348,-187.0806"/>
</g>
<!-- Node6 -->
<g id="node7" class="node">
<title>Node6</title>
<polygon fill="#ffffff" stroke="#bfbfbf" points="99,-168.5 99,-187.5 176,-187.5 176,-168.5 99,-168.5"/>
<text text-anchor="middle" x="137.5" y="-175.5" font-family="Helvetica,sans-Serif" font-size="10.00" fill="#000000">periph_cpu.h</text>
</g>
<!-- Node1&#45;&gt;Node6 -->
<g id="edge6" class="edge">
<title>Node1&#45;&gt;Node6</title>
<path fill="none" stroke="#191970" d="M208.5199,-224.2455C195.3249,-215.6534 175.8949,-203.0014 160.6921,-193.1018"/>
<polygon fill="#191970" stroke="#191970" points="162.5983,-190.1665 152.3084,-187.6427 158.7785,-196.0325 162.5983,-190.1665"/>
</g>
<!-- Node7&#45;&gt;Node2 -->
<g id="edge8" class="edge">
<title>Node7&#45;&gt;Node2</title>
<path fill="none" stroke="#191970" d="M1038.4667,-507.6372C1103.325,-492.0718 1258.5,-449.8332 1258.5,-402 1258.5,-402 1258.5,-402 1258.5,-122 1258.5,-84.9295 1238.5033,-76.3228 1207.5,-56 1162.9032,-26.7666 1100.9681,-16.1107 1062.0747,-12.2268"/>
<polygon fill="#191970" stroke="#191970" points="1062.022,-8.7082 1051.7494,-11.3012 1061.3969,-15.6802 1062.022,-8.7082"/>
</g>
<!-- Node8 -->
<g id="node9" class="node">
<title>Node8</title>
<g id="a_node9"><a xlink:href="mbox_8h.html" target="_top" xlink:title="Mailbox API. ">
<polygon fill="#ffffff" stroke="#000000" points="1028.5,-336.5 1028.5,-355.5 1080.5,-355.5 1080.5,-336.5 1028.5,-336.5"/>
<text text-anchor="middle" x="1054.5" y="-343.5" font-family="Helvetica,sans-Serif" font-size="10.00" fill="#000000">mbox.h</text>
</a>
</g>
</g>
<!-- Node7&#45;&gt;Node8 -->
<g id="edge9" class="edge">
<title>Node7&#45;&gt;Node8</title>
<path fill="none" stroke="#191970" d="M1019.2094,-504.2022C1026.4977,-495.3909 1036.4864,-481.7527 1041.5,-468 1054.0331,-433.6205 1055.5994,-390.4426 1055.2738,-365.757"/>
<polygon fill="#191970" stroke="#191970" points="1058.7668,-365.4359 1055.0128,-355.5284 1051.7691,-365.6145 1058.7668,-365.4359"/>
</g>
<!-- Node14 -->
<g id="node15" class="node">
<title>Node14</title>
<g id="a_node15"><a xlink:href="sched_8h.html" target="_top" xlink:title="Scheduler API definition. ">
<polygon fill="#ffffff" stroke="#000000" points="908,-224.5 908,-243.5 961,-243.5 961,-224.5 908,-224.5"/>
<text text-anchor="middle" x="934.5" y="-231.5" font-family="Helvetica,sans-Serif" font-size="10.00" fill="#000000">sched.h</text>
</a>
</g>
</g>
<!-- Node7&#45;&gt;Node14 -->
<g id="edge60" class="edge">
<title>Node7&#45;&gt;Node14</title>
<path fill="none" stroke="#191970" d="M1038.2649,-504.9244C1077.5143,-490.1437 1144.5,-456.879 1144.5,-402 1144.5,-402 1144.5,-402 1144.5,-346 1144.5,-315.4754 1147.5534,-301.1045 1125.5,-280 1103.6328,-259.0737 1020.286,-245.0538 971.2136,-238.4221"/>
<polygon fill="#191970" stroke="#191970" points="971.3734,-234.9131 961.0029,-237.0818 970.4623,-241.8535 971.3734,-234.9131"/>
</g>
<!-- Node23 -->
<g id="node24" class="node">
<title>Node23</title>
<polygon fill="#ffffff" stroke="#bfbfbf" points="988,-448.5 988,-467.5 1033,-467.5 1033,-448.5 988,-448.5"/>
<text text-anchor="middle" x="1010.5" y="-455.5" font-family="Helvetica,sans-Serif" font-size="10.00" fill="#000000">msg.h</text>
</g>
<!-- Node7&#45;&gt;Node23 -->
<g id="edge35" class="edge">
<title>Node7&#45;&gt;Node23</title>
<path fill="none" stroke="#191970" d="M1010.5,-504.2455C1010.5,-496.9382 1010.5,-486.6944 1010.5,-477.7046"/>
<polygon fill="#191970" stroke="#191970" points="1014.0001,-477.6426 1010.5,-467.6427 1007.0001,-477.6427 1014.0001,-477.6426"/>
</g>
<!-- Node24 -->
<g id="node25" class="node">
<title>Node24</title>
<g id="a_node25"><a xlink:href="mutex_8h.html" target="_top" xlink:title="Mutex for thread synchronization. ">
<polygon fill="#ffffff" stroke="#000000" points="598.5,-392.5 598.5,-411.5 654.5,-411.5 654.5,-392.5 598.5,-392.5"/>
<text text-anchor="middle" x="626.5" y="-399.5" font-family="Helvetica,sans-Serif" font-size="10.00" fill="#000000">mutex.h</text>
</a>
</g>
</g>
<!-- Node7&#45;&gt;Node24 -->
<g id="edge36" class="edge">
<title>Node7&#45;&gt;Node24</title>
<path fill="none" stroke="#191970" d="M982.8837,-505.9452C915.324,-486.2403 741.6178,-435.576 664.4355,-413.0645"/>
<polygon fill="#191970" stroke="#191970" points="665.2216,-409.648 654.6416,-410.208 663.2616,-416.368 665.2216,-409.648"/>
</g>
<!-- Node31 -->
<g id="node32" class="node">
<title>Node31</title>
<g id="a_node32"><a xlink:href="rmutex_8h.html" target="_top" xlink:title="Recursive Mutex for thread synchronization. ">
<polygon fill="#ffffff" stroke="#000000" points="909.5,-448.5 909.5,-467.5 969.5,-467.5 969.5,-448.5 909.5,-448.5"/>
<text text-anchor="middle" x="939.5" y="-455.5" font-family="Helvetica,sans-Serif" font-size="10.00" fill="#000000">rmutex.h</text>
</a>
</g>
</g>
<!-- Node7&#45;&gt;Node31 -->
<g id="edge56" class="edge">
<title>Node7&#45;&gt;Node31</title>
<path fill="none" stroke="#191970" d="M998.1327,-504.2455C987.5446,-495.8943 972.0936,-483.7076 959.7107,-473.9408"/>
<polygon fill="#191970" stroke="#191970" points="961.7447,-471.0875 951.7255,-467.6427 957.4097,-476.5837 961.7447,-471.0875"/>
</g>
<!-- Node9 -->
<g id="node10" class="node">
<title>Node9</title>
<g id="a_node10"><a xlink:href="list_8h.html" target="_top" xlink:title="Intrusive linked list. ">
<polygon fill="#ffffff" stroke="#000000" points="604.5,-112.5 604.5,-131.5 642.5,-131.5 642.5,-112.5 604.5,-112.5"/>
<text text-anchor="middle" x="623.5" y="-119.5" font-family="Helvetica,sans-Serif" font-size="10.00" fill="#000000">list.h</text>
</a>
</g>
</g>
<!-- Node8&#45;&gt;Node9 -->
<g id="edge10" class="edge">
<title>Node8&#45;&gt;Node9</title>
<path fill="none" stroke="#191970" d="M1028.2896,-343.7362C954.1581,-337.1459 746.7165,-317.3404 721.5,-300 665.149,-261.2497 637.9447,-179.1111 628.0584,-141.5205"/>
<polygon fill="#191970" stroke="#191970" points="631.4435,-140.6298 625.6255,-131.7753 624.6519,-142.3253 631.4435,-140.6298"/>
</g>
<!-- Node10 -->
<g id="node11" class="node">
<title>Node10</title>
<g id="a_node11"><a xlink:href="cib_8h.html" target="_top" xlink:title="Circular integer buffer interface. ">
<polygon fill="#ffffff" stroke="#000000" points="1078.5,-280.5 1078.5,-299.5 1116.5,-299.5 1116.5,-280.5 1078.5,-280.5"/>
<text text-anchor="middle" x="1097.5" y="-287.5" font-family="Helvetica,sans-Serif" font-size="10.00" fill="#000000">cib.h</text>
</a>
</g>
</g>
<!-- Node8&#45;&gt;Node10 -->
<g id="edge11" class="edge">
<title>Node8&#45;&gt;Node10</title>
<path fill="none" stroke="#191970" d="M1061.99,-336.2455C1068.0326,-328.3761 1076.6903,-317.101 1083.9441,-307.6542"/>
<polygon fill="#191970" stroke="#191970" points="1086.7815,-309.7058 1090.0958,-299.6427 1081.2295,-305.4426 1086.7815,-309.7058"/>
</g>
<!-- Node12 -->
<g id="node13" class="node">
<title>Node12</title>
<g id="a_node13"><a xlink:href="core_2include_2msg_8h.html" target="_top" xlink:title="Messaging API for inter process communication. ">
<polygon fill="#ffffff" stroke="#000000" points="1015,-280.5 1015,-299.5 1060,-299.5 1060,-280.5 1015,-280.5"/>
<text text-anchor="middle" x="1037.5" y="-287.5" font-family="Helvetica,sans-Serif" font-size="10.00" fill="#000000">msg.h</text>
</a>
</g>
</g>
<!-- Node8&#45;&gt;Node12 -->
<g id="edge14" class="edge">
<title>Node8&#45;&gt;Node12</title>
<path fill="none" stroke="#191970" d="M1051.5388,-336.2455C1049.2962,-328.8579 1046.1423,-318.4689 1043.3919,-309.4087"/>
<polygon fill="#191970" stroke="#191970" points="1046.6812,-308.1948 1040.4272,-299.6427 1039.983,-310.2282 1046.6812,-308.1948"/>
</g>
<!-- Node11 -->
<g id="node12" class="node">
<title>Node11</title>
<g id="a_node12"><a xlink:href="assert_8h.html" target="_top" xlink:title="POSIX.1&#45;2008 compliant version of the assert macro. ">
<polygon fill="#ffffff" stroke="#000000" points="924.5,-56.5 924.5,-75.5 978.5,-75.5 978.5,-56.5 924.5,-56.5"/>
<text text-anchor="middle" x="951.5" y="-63.5" font-family="Helvetica,sans-Serif" font-size="10.00" fill="#000000">assert.h</text>
</a>
</g>
</g>
<!-- Node10&#45;&gt;Node11 -->
<g id="edge12" class="edge">
<title>Node10&#45;&gt;Node11</title>
<path fill="none" stroke="#191970" d="M1089.0212,-280.2589C1068.6265,-257.4039 1014.2935,-199.868 957.5,-168 911.1633,-141.9995 874.9085,-174.8558 843.5,-132 821.6328,-102.1629 875.2287,-83.0267 914.4948,-73.4202"/>
<polygon fill="#191970" stroke="#191970" points="915.4155,-76.7996 924.364,-71.1274 913.8313,-69.9812 915.4155,-76.7996"/>
</g>
<!-- Node11&#45;&gt;Node2 -->
<g id="edge13" class="edge">
<title>Node11&#45;&gt;Node2</title>
<path fill="none" stroke="#191970" d="M964.3898,-56.2455C975.4254,-47.8943 991.5292,-35.7076 1004.4353,-25.9408"/>
<polygon fill="#191970" stroke="#191970" points="1006.8959,-28.4681 1012.7579,-19.6427 1002.6717,-22.8862 1006.8959,-28.4681"/>
</g>
<!-- Node12&#45;&gt;Node2 -->
<g id="edge15" class="edge">
<title>Node12&#45;&gt;Node2</title>
<path fill="none" stroke="#191970" d="M1057.3314,-280.4928C1086.1466,-265.4476 1138.5411,-233.1558 1160.5,-188 1186.163,-135.2272 1197.8119,-103.6052 1163.5,-56 1151.386,-39.1928 1098.1136,-25.034 1061.4169,-17.0328"/>
<polygon fill="#191970" stroke="#191970" points="1062.0625,-13.592 1051.5541,-14.9423 1060.611,-20.4398 1062.0625,-13.592"/>
</g>
<!-- Node13 -->
<g id="node14" class="node">
<title>Node13</title>
<polygon fill="#ffffff" stroke="#bfbfbf" points="698.5,-112.5 698.5,-131.5 758.5,-131.5 758.5,-112.5 698.5,-112.5"/>
<text text-anchor="middle" x="728.5" y="-119.5" font-family="Helvetica,sans-Serif" font-size="10.00" fill="#000000">stdbool.h</text>
</g>
<!-- Node12&#45;&gt;Node13 -->
<g id="edge16" class="edge">
<title>Node12&#45;&gt;Node13</title>
<path fill="none" stroke="#191970" d="M1031.9578,-280.2419C1018.1246,-256.8347 979.6303,-197.2739 930.5,-168 903.5445,-151.9388 819.4986,-136.4028 768.7049,-128.1369"/>
<polygon fill="#191970" stroke="#191970" points="769.1379,-124.6617 758.7099,-126.5343 768.0296,-131.5735 769.1379,-124.6617"/>
</g>
<!-- Node12&#45;&gt;Node14 -->
<g id="edge17" class="edge">
<title>Node12&#45;&gt;Node14</title>
<path fill="none" stroke="#191970" d="M1019.5588,-280.2455C1003.46,-271.4928 979.6121,-258.527 961.2609,-248.5496"/>
<polygon fill="#191970" stroke="#191970" points="962.6929,-245.3444 952.2356,-243.6427 959.3493,-251.4942 962.6929,-245.3444"/>
</g>
<!-- Node14&#45;&gt;Node3 -->
<g id="edge18" class="edge">
<title>Node14&#45;&gt;Node3</title>
<path fill="none" stroke="#191970" d="M937.0441,-224.2856C940.0955,-210.2462 943.3303,-184.1968 930.5,-168 895.9253,-124.3533 862.4938,-151.9272 810.5,-132 807.6835,-130.9205 739.9111,-98.8706 699.7112,-79.8373"/>
<polygon fill="#191970" stroke="#191970" points="701.158,-76.6499 690.6221,-75.5334 698.1621,-82.9764 701.158,-76.6499"/>
</g>
<!-- Node15 -->
<g id="node16" class="node">
<title>Node15</title>
<g id="a_node16"><a xlink:href="inttypes_8h.html" target="_top" xlink:title="Adds include for missing inttype definitions. ">
<polygon fill="#ffffff" stroke="#000000" points="693,-168.5 693,-187.5 756,-187.5 756,-168.5 693,-168.5"/>
<text text-anchor="middle" x="724.5" y="-175.5" font-family="Helvetica,sans-Serif" font-size="10.00" fill="#000000">inttypes.h</text>
</a>
</g>
</g>
<!-- Node14&#45;&gt;Node15 -->
<g id="edge19" class="edge">
<title>Node14&#45;&gt;Node15</title>
<path fill="none" stroke="#191970" d="M907.9034,-226.9076C872.0396,-217.3439 807.8237,-200.2197 765.69,-188.984"/>
<polygon fill="#191970" stroke="#191970" points="766.5725,-185.5971 756.0083,-186.4022 764.7688,-192.3607 766.5725,-185.5971"/>
</g>
<!-- Node16 -->
<g id="node17" class="node">
<title>Node16</title>
<g id="a_node17"><a xlink:href="kernel__defines_8h.html" target="_top" xlink:title="Common macros and compiler attributes/pragmas configuration. ">
<polygon fill="#ffffff" stroke="#000000" points="1056,-168.5 1056,-187.5 1151,-187.5 1151,-168.5 1056,-168.5"/>
<text text-anchor="middle" x="1103.5" y="-175.5" font-family="Helvetica,sans-Serif" font-size="10.00" fill="#000000">kernel_defines.h</text>
</a>
</g>
</g>
<!-- Node14&#45;&gt;Node16 -->
<g id="edge20" class="edge">
<title>Node14&#45;&gt;Node16</title>
<path fill="none" stroke="#191970" d="M961.2786,-225.1266C989.1612,-215.8874 1033.1055,-201.326 1064.7697,-190.8337"/>
<polygon fill="#191970" stroke="#191970" points="1066.1914,-194.0498 1074.5829,-187.582 1063.9896,-187.4051 1066.1914,-194.0498"/>
</g>
<!-- Node21 -->
<g id="node22" class="node">
<title>Node21</title>
<g id="a_node22"><a xlink:href="native__sched_8h.html" target="_top" xlink:title="Add definitions required on the native board. ">
<polygon fill="#ffffff" stroke="#000000" points="835.5,-168.5 835.5,-187.5 921.5,-187.5 921.5,-168.5 835.5,-168.5"/>
<text text-anchor="middle" x="878.5" y="-175.5" font-family="Helvetica,sans-Serif" font-size="10.00" fill="#000000">native_sched.h</text>
</a>
</g>
</g>
<!-- Node14&#45;&gt;Node21 -->
<g id="edge30" class="edge">
<title>Node14&#45;&gt;Node21</title>
<path fill="none" stroke="#191970" d="M924.7455,-224.2455C916.6352,-216.1352 904.9075,-204.4075 895.2919,-194.7919"/>
<polygon fill="#191970" stroke="#191970" points="897.6887,-192.2389 888.1427,-187.6427 892.7389,-197.1887 897.6887,-192.2389"/>
</g>
<!-- Node22 -->
<g id="node23" class="node">
<title>Node22</title>
<g id="a_node23"><a xlink:href="clist_8h.html" target="_top" xlink:title="Circular linked list. ">
<polygon fill="#ffffff" stroke="#000000" points="774,-168.5 774,-187.5 817,-187.5 817,-168.5 774,-168.5"/>
<text text-anchor="middle" x="795.5" y="-175.5" font-family="Helvetica,sans-Serif" font-size="10.00" fill="#000000">clist.h</text>
</a>
</g>
</g>
<!-- Node14&#45;&gt;Node22 -->
<g id="edge31" class="edge">
<title>Node14&#45;&gt;Node22</title>
<path fill="none" stroke="#191970" d="M910.605,-224.3733C887.4436,-215.042 852.1835,-200.8365 826.7936,-190.6075"/>
<polygon fill="#191970" stroke="#191970" points="827.8392,-187.2554 817.2557,-186.7649 825.2233,-193.7483 827.8392,-187.2554"/>
</g>
<!-- Node17 -->
<g id="node18" class="node">
<title>Node17</title>
<g id="a_node18"><a xlink:href="modules_8h.html" target="_top" xlink:title="Common macros and compiler attributes/pragmas configuration. ">
<polygon fill="#ffffff" stroke="#000000" points="853,-112.5 853,-131.5 918,-131.5 918,-112.5 853,-112.5"/>
<text text-anchor="middle" x="885.5" y="-119.5" font-family="Helvetica,sans-Serif" font-size="10.00" fill="#000000">modules.h</text>
</a>
</g>
</g>
<!-- Node16&#45;&gt;Node17 -->
<g id="edge21" class="edge">
<title>Node16&#45;&gt;Node17</title>
<path fill="none" stroke="#191970" d="M1066.0245,-168.3733C1027.643,-158.5138 968.0779,-143.2127 927.9721,-132.9103"/>
<polygon fill="#191970" stroke="#191970" points="928.7761,-129.5032 918.2197,-130.4051 927.0344,-136.2831 928.7761,-129.5032"/>
</g>
<!-- Node18 -->
<g id="node19" class="node">
<title>Node18</title>
<g id="a_node19"><a xlink:href="riot__version_8h.html" target="_top" xlink:title="Common macros and compiler attributes/pragmas configuration. ">
<polygon fill="#ffffff" stroke="#000000" points="1073,-56.5 1073,-75.5 1154,-75.5 1154,-56.5 1073,-56.5"/>
<text text-anchor="middle" x="1113.5" y="-63.5" font-family="Helvetica,sans-Serif" font-size="10.00" fill="#000000">riot_version.h</text>
</a>
</g>
</g>
<!-- Node16&#45;&gt;Node18 -->
<g id="edge22" class="edge">
<title>Node16&#45;&gt;Node18</title>
<path fill="none" stroke="#191970" d="M1109.4765,-168.2032C1114.6112,-159.1737 1121.6271,-145.2108 1124.5,-132 1127.8556,-116.5696 1124.5459,-98.9166 1120.7033,-85.7524"/>
<polygon fill="#191970" stroke="#191970" points="1123.9164,-84.3168 1117.4848,-75.8974 1117.2623,-86.4899 1123.9164,-84.3168"/>
</g>
<!-- Node19 -->
<g id="node20" class="node">
<title>Node19</title>
<g id="a_node20"><a xlink:href="compiler__hints_8h.html" target="_top" xlink:title="Common macros and compiler attributes/pragmas configuration. ">
<polygon fill="#ffffff" stroke="#000000" points="1023,-112.5 1023,-131.5 1116,-131.5 1116,-112.5 1023,-112.5"/>
<text text-anchor="middle" x="1069.5" y="-119.5" font-family="Helvetica,sans-Serif" font-size="10.00" fill="#000000">compiler_hints.h</text>
</a>
</g>
</g>
<!-- Node16&#45;&gt;Node19 -->
<g id="edge24" class="edge">
<title>Node16&#45;&gt;Node19</title>
<path fill="none" stroke="#191970" d="M1097.5777,-168.2455C1092.8973,-160.5367 1086.2327,-149.5598 1080.5711,-140.2348"/>
<polygon fill="#191970" stroke="#191970" points="1083.5361,-138.3741 1075.3545,-131.6427 1077.5525,-142.007 1083.5361,-138.3741"/>
</g>
<!-- Node20 -->
<g id="node21" class="node">
<title>Node20</title>
<g id="a_node21"><a xlink:href="container_8h.html" target="_top" xlink:title="Common macros and compiler attributes/pragmas configuration. ">
<polygon fill="#ffffff" stroke="#000000" points="936,-112.5 936,-131.5 1005,-131.5 1005,-112.5 936,-112.5"/>
<text text-anchor="middle" x="970.5" y="-119.5" font-family="Helvetica,sans-Serif" font-size="10.00" fill="#000000">container.h</text>
</a>
</g>
</g>
<!-- Node16&#45;&gt;Node20 -->
<g id="edge27" class="edge">
<title>Node16&#45;&gt;Node20</title>
<path fill="none" stroke="#191970" d="M1080.6365,-168.3733C1059.095,-159.3032 1026.6162,-145.6279 1002.5044,-135.4755"/>
<polygon fill="#191970" stroke="#191970" points="1003.6397,-132.156 993.0652,-131.5011 1000.9233,-138.6075 1003.6397,-132.156"/>
</g>
<!-- Node18&#45;&gt;Node2 -->
<g id="edge23" class="edge">
<title>Node18&#45;&gt;Node2</title>
<path fill="none" stroke="#191970" d="M1098.1716,-56.2455C1084.6697,-47.6534 1064.7878,-35.0014 1049.2314,-25.1018"/>
<polygon fill="#191970" stroke="#191970" points="1050.9685,-22.0587 1040.6528,-19.6427 1047.2103,-27.9643 1050.9685,-22.0587"/>
</g>
<!-- Node19&#45;&gt;Node2 -->
<g id="edge26" class="edge">
<title>Node19&#45;&gt;Node2</title>
<path fill="none" stroke="#191970" d="M1065.7486,-112.4509C1058.5073,-94.0186 1042.4814,-53.2254 1032.9812,-29.043"/>
<polygon fill="#191970" stroke="#191970" points="1036.1561,-27.5526 1029.2419,-19.5249 1029.6409,-30.1122 1036.1561,-27.5526"/>
</g>
<!-- Node19&#45;&gt;Node11 -->
<g id="edge25" class="edge">
<title>Node19&#45;&gt;Node11</title>
<path fill="none" stroke="#191970" d="M1049.2151,-112.3733C1030.3579,-103.4241 1002.054,-89.9917 980.7545,-79.8835"/>
<polygon fill="#191970" stroke="#191970" points="982.0551,-76.6266 971.5202,-75.5011 979.0539,-82.9506 982.0551,-76.6266"/>
</g>
<!-- Node20&#45;&gt;Node2 -->
<g id="edge29" class="edge">
<title>Node20&#45;&gt;Node2</title>
<path fill="none" stroke="#191970" d="M975.1893,-112.4509C984.2814,-93.936 1004.4531,-52.8591 1016.3078,-28.7187"/>
<polygon fill="#191970" stroke="#191970" points="1019.5563,-30.0438 1020.8226,-19.5249 1013.273,-26.9582 1019.5563,-30.0438"/>
</g>
<!-- Node20&#45;&gt;Node3 -->
<g id="edge28" class="edge">
<title>Node20&#45;&gt;Node3</title>
<path fill="none" stroke="#191970" d="M935.945,-113.9898C932.7559,-113.2979 929.5706,-112.6245 926.5,-112 849.4532,-96.331 758.789,-80.6972 708.6716,-72.2989"/>
<polygon fill="#191970" stroke="#191970" points="709.0519,-68.814 698.612,-70.6192 707.899,-75.7185 709.0519,-68.814"/>
</g>
<!-- Node22&#45;&gt;Node3 -->
<g id="edge33" class="edge">
<title>Node22&#45;&gt;Node3</title>
<path fill="none" stroke="#191970" d="M773.859,-171.0592C746.3652,-161.8408 701.0853,-145.1871 689.5,-132 678.3225,-119.2772 673.6993,-100.3561 671.7982,-86.0308"/>
<polygon fill="#191970" stroke="#191970" points="675.2475,-85.3424 670.784,-75.7337 668.2812,-86.0286 675.2475,-85.3424"/>
</g>
<!-- Node22&#45;&gt;Node9 -->
<g id="edge34" class="edge">
<title>Node22&#45;&gt;Node9</title>
<path fill="none" stroke="#191970" d="M773.7161,-170.9076C742.9955,-160.9055 686.8757,-142.6339 652.6092,-131.4774"/>
<polygon fill="#191970" stroke="#191970" points="653.3209,-128.0284 642.7286,-128.2605 651.1538,-134.6845 653.3209,-128.0284"/>
</g>
<!-- Node22&#45;&gt;Node13 -->
<g id="edge32" class="edge">
<title>Node22&#45;&gt;Node13</title>
<path fill="none" stroke="#191970" d="M783.8295,-168.2455C773.9339,-159.9746 759.5373,-147.9416 747.9099,-138.2232"/>
<polygon fill="#191970" stroke="#191970" points="749.9542,-135.3703 740.0368,-131.6427 745.465,-140.7413 749.9542,-135.3703"/>
</g>
<!-- Node24&#45;&gt;Node2 -->
<g id="edge38" class="edge">
<title>Node24&#45;&gt;Node2</title>
<path fill="none" stroke="#191970" d="M598.2411,-399.5428C558.5415,-395.2001 484.8142,-383.8333 428.5,-356 387.1778,-335.5765 348.5,-336.0938 348.5,-290 348.5,-290 348.5,-290 348.5,-122 348.5,-56.4719 848.5638,-20.851 989.1362,-12.1322"/>
<polygon fill="#191970" stroke="#191970" points="989.6081,-15.61 999.3756,-11.5055 989.1804,-8.6231 989.6081,-15.61"/>
</g>
<!-- Node24&#45;&gt;Node3 -->
<g id="edge37" class="edge">
<title>Node24&#45;&gt;Node3</title>
<path fill="none" stroke="#191970" d="M598.4992,-395.2317C535.1899,-379.113 386.5,-336.3253 386.5,-290 386.5,-290 386.5,-290 386.5,-178 386.5,-125.6911 555.3413,-87.462 632.6551,-72.6986"/>
<polygon fill="#191970" stroke="#191970" points="633.3088,-76.1371 642.4917,-70.8529 632.0178,-69.2572 633.3088,-76.1371"/>
</g>
<!-- Node24&#45;&gt;Node9 -->
<g id="edge46" class="edge">
<title>Node24&#45;&gt;Node9</title>
<path fill="none" stroke="#191970" d="M620.893,-392.4834C610.3226,-373.6141 588.5,-329.8343 588.5,-290 588.5,-290 588.5,-290 588.5,-234 588.5,-199.8821 603.4795,-162.4701 613.8391,-140.676"/>
<polygon fill="#191970" stroke="#191970" points="617.0455,-142.0877 618.3356,-131.5717 610.7692,-138.9879 617.0455,-142.0877"/>
</g>
<!-- Node24&#45;&gt;Node13 -->
<g id="edge39" class="edge">
<title>Node24&#45;&gt;Node13</title>
<path fill="none" stroke="#191970" d="M627.0299,-392.4305C629.2248,-359.2657 639.6723,-246.9689 683.5,-168 689.7262,-156.7816 699.4224,-146.3711 708.2222,-138.3013"/>
<polygon fill="#191970" stroke="#191970" points="710.6835,-140.799 715.9264,-131.5923 706.0865,-135.52 710.6835,-140.799"/>
</g>
<!-- Node24&#45;&gt;Node16 -->
<g id="edge45" class="edge">
<title>Node24&#45;&gt;Node16</title>
<path fill="none" stroke="#191970" d="M654.8107,-400.6162C749.6636,-395.785 1052.3818,-378.7187 1089.5,-356 1114.7363,-340.5538 1117.1621,-328.389 1125.5,-300 1135.9606,-264.3837 1122.3396,-221.381 1112.338,-197.1119"/>
<polygon fill="#191970" stroke="#191970" points="1115.4225,-195.4282 1108.2253,-187.6531 1109.003,-198.2194 1115.4225,-195.4282"/>
</g>
<!-- Node25 -->
<g id="node26" class="node">
<title>Node25</title>
<g id="a_node26"><a xlink:href="architecture_8h.html" target="_top" xlink:title="Platform&#45;independent access to architecture details. ">
<polygon fill="#ffffff" stroke="#000000" points="465,-224.5 465,-243.5 548,-243.5 548,-224.5 465,-224.5"/>
<text text-anchor="middle" x="506.5" y="-231.5" font-family="Helvetica,sans-Serif" font-size="10.00" fill="#000000">architecture.h</text>
</a>
</g>
</g>
<!-- Node24&#45;&gt;Node25 -->
<g id="edge40" class="edge">
<title>Node24&#45;&gt;Node25</title>
<path fill="none" stroke="#191970" d="M613.413,-392.4604C602.1633,-383.8147 585.9846,-370.2743 574.5,-356 547.8993,-322.9377 525.8903,-278.0671 514.6258,-252.9824"/>
<polygon fill="#191970" stroke="#191970" points="517.7017,-251.282 510.474,-243.5353 511.2932,-254.0984 517.7017,-251.282"/>
</g>
<!-- Node27 -->
<g id="node28" class="node">
<title>Node27</title>
<g id="a_node28"><a xlink:href="core_2include_2thread_8h.html" target="_top" xlink:title="Threading API. ">
<polygon fill="#ffffff" stroke="#000000" points="851,-336.5 851,-355.5 908,-355.5 908,-336.5 851,-336.5"/>
<text text-anchor="middle" x="879.5" y="-343.5" font-family="Helvetica,sans-Serif" font-size="10.00" fill="#000000">thread.h</text>
</a>
</g>
</g>
<!-- Node24&#45;&gt;Node27 -->
<g id="edge47" class="edge">
<title>Node24&#45;&gt;Node27</title>
<path fill="none" stroke="#191970" d="M654.5421,-395.7931C699.9191,-385.7491 789.5302,-365.9143 840.8991,-354.5441"/>
<polygon fill="#191970" stroke="#191970" points="841.9373,-357.8991 850.9446,-352.3206 840.4245,-351.0645 841.9373,-357.8991"/>
</g>
<!-- Node25&#45;&gt;Node2 -->
<g id="edge41" class="edge">
<title>Node25&#45;&gt;Node2</title>
<path fill="none" stroke="#191970" d="M485.0158,-224.3669C461.9294,-212.562 430.2197,-191.2442 443.5,-168 492.1276,-82.888 540.599,-87.2746 633.5,-56 699.0473,-33.9338 904.965,-18.0652 989.1208,-12.3407"/>
<polygon fill="#191970" stroke="#191970" points="989.4869,-15.8241 999.23,-11.6622 989.0181,-8.8398 989.4869,-15.8241"/>
</g>
<!-- Node25&#45;&gt;Node4 -->
<g id="edge43" class="edge">
<title>Node25&#45;&gt;Node4</title>
<path fill="none" stroke="#191970" d="M470.2278,-224.3733C431.073,-213.9814 369.1407,-197.5445 330.4914,-187.2868"/>
<polygon fill="#191970" stroke="#191970" points="331.2839,-183.8761 320.7207,-184.6936 329.4882,-190.6418 331.2839,-183.8761"/>
</g>
<!-- Node25&#45;&gt;Node15 -->
<g id="edge42" class="edge">
<title>Node25&#45;&gt;Node15</title>
<path fill="none" stroke="#191970" d="M543.9755,-224.3733C582.6937,-214.4273 642.9687,-198.9438 683.0788,-188.6403"/>
<polygon fill="#191970" stroke="#191970" points="684.0017,-192.0169 692.8164,-186.1389 682.26,-185.2371 684.0017,-192.0169"/>
</g>
<!-- Node26 -->
<g id="node27" class="node">
<title>Node26</title>
<polygon fill="#ffffff" stroke="#bfbfbf" points="453,-168.5 453,-187.5 560,-187.5 560,-168.5 453,-168.5"/>
<text text-anchor="middle" x="506.5" y="-175.5" font-family="Helvetica,sans-Serif" font-size="10.00" fill="#000000">architecture_arch.h</text>
</g>
<!-- Node25&#45;&gt;Node26 -->
<g id="edge44" class="edge">
<title>Node25&#45;&gt;Node26</title>
<path fill="none" stroke="#191970" d="M506.5,-224.2455C506.5,-216.9382 506.5,-206.6944 506.5,-197.7046"/>
<polygon fill="#191970" stroke="#191970" points="510.0001,-197.6426 506.5,-187.6427 503.0001,-197.6427 510.0001,-197.6426"/>
</g>
<!-- Node27&#45;&gt;Node10 -->
<g id="edge49" class="edge">
<title>Node27&#45;&gt;Node10</title>
<path fill="none" stroke="#191970" d="M908.2179,-339.8867C945.4513,-331.7611 1012.2785,-316.4961 1068.5,-300 1068.599,-299.9709 1068.6982,-299.9418 1068.7975,-299.9125"/>
<polygon fill="#191970" stroke="#191970" points="1069.7609,-303.2787 1078.2376,-296.9229 1067.6475,-296.6054 1069.7609,-303.2787"/>
</g>
<!-- Node27&#45;&gt;Node12 -->
<g id="edge50" class="edge">
<title>Node27&#45;&gt;Node12</title>
<path fill="none" stroke="#191970" d="M906.6612,-336.3733C933.9695,-326.6944 976.074,-311.7712 1005.1066,-301.4812"/>
<polygon fill="#191970" stroke="#191970" points="1006.5287,-304.6906 1014.7849,-298.0509 1004.1902,-298.0927 1006.5287,-304.6906"/>
</g>
<!-- Node27&#45;&gt;Node14 -->
<g id="edge51" class="edge">
<title>Node27&#45;&gt;Node14</title>
<path fill="none" stroke="#191970" d="M895.1009,-336.4032C906.7822,-328.2794 921.9888,-315.4968 929.5,-300 936.4698,-285.6202 937.3428,-267.3877 936.6861,-253.7313"/>
<polygon fill="#191970" stroke="#191970" points="940.156,-253.2127 935.875,-243.5214 933.178,-253.7672 940.156,-253.2127"/>
</g>
<!-- Node27&#45;&gt;Node22 -->
<g id="edge48" class="edge">
<title>Node27&#45;&gt;Node22</title>
<path fill="none" stroke="#191970" d="M850.7581,-341.7938C809.5758,-335.1126 737.0182,-320.6805 721.5,-300 710.5382,-285.3917 717.6005,-247.3976 732.5,-224 740.812,-210.9471 754.2553,-200.382 766.5932,-192.6844"/>
<polygon fill="#191970" stroke="#191970" points="768.4309,-195.6643 775.2925,-187.5915 764.8943,-189.6233 768.4309,-195.6643"/>
</g>
<!-- Node28 -->
<g id="node29" class="node">
<title>Node28</title>
<g id="a_node29"><a xlink:href="thread__config_8h.html" target="_top" xlink:title="Thread configuration defines. ">
<polygon fill="#ffffff" stroke="#000000" points="730.5,-280.5 730.5,-299.5 820.5,-299.5 820.5,-280.5 730.5,-280.5"/>
<text text-anchor="middle" x="775.5" y="-287.5" font-family="Helvetica,sans-Serif" font-size="10.00" fill="#000000">thread_config.h</text>
</a>
</g>
</g>
<!-- Node27&#45;&gt;Node28 -->
<g id="edge52" class="edge">
<title>Node27&#45;&gt;Node28</title>
<path fill="none" stroke="#191970" d="M861.3846,-336.2455C845.055,-327.4527 820.829,-314.4079 802.2661,-304.4125"/>
<polygon fill="#191970" stroke="#191970" points="803.8719,-301.3021 793.4078,-299.6427 800.5532,-307.4654 803.8719,-301.3021"/>
</g>
<!-- Node30 -->
<g id="node31" class="node">
<title>Node30</title>
<polygon fill="#ffffff" stroke="#bfbfbf" points="838.5,-280.5 838.5,-299.5 920.5,-299.5 920.5,-280.5 838.5,-280.5"/>
<text text-anchor="middle" x="879.5" y="-287.5" font-family="Helvetica,sans-Serif" font-size="10.00" fill="#000000">thread_arch.h</text>
</g>
<!-- Node27&#45;&gt;Node30 -->
<g id="edge55" class="edge">
<title>Node27&#45;&gt;Node30</title>
<path fill="none" stroke="#191970" d="M879.5,-336.2455C879.5,-328.9382 879.5,-318.6944 879.5,-309.7046"/>
<polygon fill="#191970" stroke="#191970" points="883.0001,-309.6426 879.5,-299.6427 876.0001,-309.6427 883.0001,-309.6426"/>
</g>
<!-- Node28&#45;&gt;Node14 -->
<g id="edge54" class="edge">
<title>Node28&#45;&gt;Node14</title>
<path fill="none" stroke="#191970" d="M802.8331,-280.3733C829.1229,-271.114 869.0394,-257.0553 898.0299,-246.8448"/>
<polygon fill="#191970" stroke="#191970" points="899.5189,-250.0312 907.7882,-243.4079 897.1934,-243.4287 899.5189,-250.0312"/>
</g>
<!-- Node29 -->
<g id="node30" class="node">
<title>Node29</title>
<polygon fill="#ffffff" stroke="#bfbfbf" points="742,-224.5 742,-243.5 809,-243.5 809,-224.5 742,-224.5"/>
<text text-anchor="middle" x="775.5" y="-231.5" font-family="Helvetica,sans-Serif" font-size="10.00" fill="#000000">cpu_conf.h</text>
</g>
<!-- Node28&#45;&gt;Node29 -->
<g id="edge53" class="edge">
<title>Node28&#45;&gt;Node29</title>
<path fill="none" stroke="#191970" d="M775.5,-280.2455C775.5,-272.9382 775.5,-262.6944 775.5,-253.7046"/>
<polygon fill="#191970" stroke="#191970" points="779.0001,-253.6426 775.5,-243.6427 772.0001,-253.6427 779.0001,-253.6426"/>
</g>
<!-- Node31&#45;&gt;Node2 -->
<g id="edge57" class="edge">
<title>Node31&#45;&gt;Node2</title>
<path fill="none" stroke="#191970" d="M966.1891,-448.4512C1036.3315,-422.5402 1220.5,-348.8992 1220.5,-290 1220.5,-290 1220.5,-290 1220.5,-122 1220.5,-88.3717 1209.8256,-76.9243 1183.5,-56 1148.2327,-27.9686 1096.4648,-17.017 1061.9048,-12.7394"/>
<polygon fill="#191970" stroke="#191970" points="1062.0942,-9.2391 1051.7691,-11.6147 1061.3221,-16.1964 1062.0942,-9.2391"/>
</g>
<!-- Node31&#45;&gt;Node14 -->
<g id="edge59" class="edge">
<title>Node31&#45;&gt;Node14</title>
<path fill="none" stroke="#191970" d="M941.0093,-448.3026C944.9484,-421.4345 954.6854,-343.8046 946.5,-280 945.3609,-271.1204 943.0327,-261.5073 940.7277,-253.3763"/>
<polygon fill="#191970" stroke="#191970" points="944.0552,-252.2881 937.8127,-243.7276 937.3543,-254.3125 944.0552,-252.2881"/>
</g>
<!-- Node31&#45;&gt;Node24 -->
<g id="edge58" class="edge">
<title>Node31&#45;&gt;Node24</title>
<path fill="none" stroke="#191970" d="M909.4882,-452.6305C852.2363,-442.3873 727.5285,-420.0754 664.5349,-408.805"/>
<polygon fill="#191970" stroke="#191970" points="665.0705,-405.3453 654.6104,-407.0293 663.8376,-412.2359 665.0705,-405.3453"/>
</g>
</g>
</svg>
