<?xml version="1.0" encoding="UTF-8" standalone="no"?>
<!DOCTYPE svg PUBLIC "-//W3C//DTD SVG 1.1//EN"
 "http://www.w3.org/Graphics/SVG/1.1/DTD/svg11.dtd">
<!-- Generated by graphviz version 2.40.1 (0)
 -->
<!-- Title: sys/include/hashes/sha256.h Pages: 1 -->
<svg width="303pt" height="151pt"
 viewBox="0.00 0.00 303.00 151.00" xmlns="http://www.w3.org/2000/svg" xmlns:xlink="http://www.w3.org/1999/xlink">
<g id="graph0" class="graph" transform="scale(1 1) rotate(0) translate(4 147)">
<title>sys/include/hashes/sha256.h</title>
<polygon fill="#ffffff" stroke="transparent" points="-4,4 -4,-147 299,-147 299,4 -4,4"/>
<!-- Node0 -->
<g id="node1" class="node">
<title>Node0</title>
<polygon fill="#bfbfbf" stroke="#000000" points="57.5,-112.5 57.5,-142.5 161.5,-142.5 161.5,-112.5 57.5,-112.5"/>
<text text-anchor="start" x="65.5" y="-130.5" font-family="Helvetica,sans-Serif" font-size="10.00" fill="#000000">sys/include/hashes</text>
<text text-anchor="middle" x="109.5" y="-119.5" font-family="Helvetica,sans-Serif" font-size="10.00" fill="#000000">/sha256.h</text>
</g>
<!-- Node1 -->
<g id="node2" class="node">
<title>Node1</title>
<g id="a_node2"><a xlink:href="inttypes_8h.html" target="_top" xlink:title="Adds include for missing inttype definitions. ">
<polygon fill="#ffffff" stroke="#000000" points="0,-56.5 0,-75.5 63,-75.5 63,-56.5 0,-56.5"/>
<text text-anchor="middle" x="31.5" y="-63.5" font-family="Helvetica,sans-Serif" font-size="10.00" fill="#000000">inttypes.h</text>
</a>
</g>
</g>
<!-- Node0&#45;&gt;Node1 -->
<g id="edge1" class="edge">
<title>Node0&#45;&gt;Node1</title>
<path fill="none" stroke="#191970" d="M90.2191,-112.2977C78.6024,-103.1384 63.8182,-91.4816 51.9908,-82.1562"/>
<polygon fill="#191970" stroke="#191970" points="54.0086,-79.2901 43.9888,-75.8469 49.6744,-84.787 54.0086,-79.2901"/>
</g>
<!-- Node2 -->
<g id="node3" class="node">
<title>Node2</title>
<polygon fill="#ffffff" stroke="#bfbfbf" points="81.5,-56.5 81.5,-75.5 137.5,-75.5 137.5,-56.5 81.5,-56.5"/>
<text text-anchor="middle" x="109.5" y="-63.5" font-family="Helvetica,sans-Serif" font-size="10.00" fill="#000000">stddef.h</text>
</g>
<!-- Node0&#45;&gt;Node2 -->
<g id="edge2" class="edge">
<title>Node0&#45;&gt;Node2</title>
<path fill="none" stroke="#191970" d="M109.5,-112.2977C109.5,-104.3834 109.5,-94.6043 109.5,-86.0759"/>
<polygon fill="#191970" stroke="#191970" points="113.0001,-85.8469 109.5,-75.8469 106.0001,-85.847 113.0001,-85.8469"/>
</g>
<!-- Node3 -->
<g id="node4" class="node">
<title>Node3</title>
<g id="a_node4"><a xlink:href="sha2xx__common_8h.html" target="_top" xlink:title="Common definitions for the SHA&#45;224/256 hash functions. ">
<polygon fill="#ffffff" stroke="#000000" points="156,-56.5 156,-75.5 295,-75.5 295,-56.5 156,-56.5"/>
<text text-anchor="middle" x="225.5" y="-63.5" font-family="Helvetica,sans-Serif" font-size="10.00" fill="#000000">hashes/sha2xx_common.h</text>
</a>
</g>
</g>
<!-- Node0&#45;&gt;Node3 -->
<g id="edge3" class="edge">
<title>Node0&#45;&gt;Node3</title>
<path fill="none" stroke="#191970" d="M137.8768,-112.4554C156.3828,-102.644 180.3888,-89.9167 198.5931,-80.2653"/>
<polygon fill="#191970" stroke="#191970" points="200.3285,-83.3068 207.5241,-75.5303 197.0495,-77.1222 200.3285,-83.3068"/>
</g>
<!-- Node4 -->
<g id="node5" class="node">
<title>Node4</title>
<polygon fill="#ffffff" stroke="#bfbfbf" points="163,-.5 163,-19.5 216,-19.5 216,-.5 163,-.5"/>
<text text-anchor="middle" x="189.5" y="-7.5" font-family="Helvetica,sans-Serif" font-size="10.00" fill="#000000">string.h</text>
</g>
<!-- Node3&#45;&gt;Node4 -->
<g id="edge4" class="edge">
<title>Node3&#45;&gt;Node4</title>
<path fill="none" stroke="#191970" d="M219.2293,-56.2455C214.2736,-48.5367 207.217,-37.5598 201.2224,-28.2348"/>
<polygon fill="#191970" stroke="#191970" points="204.0506,-26.1618 195.6989,-19.6427 198.1624,-29.9471 204.0506,-26.1618"/>
</g>
<!-- Node5 -->
<g id="node6" class="node">
<title>Node5</title>
<polygon fill="#ffffff" stroke="#bfbfbf" points="234.5,-.5 234.5,-19.5 286.5,-19.5 286.5,-.5 234.5,-.5"/>
<text text-anchor="middle" x="260.5" y="-7.5" font-family="Helvetica,sans-Serif" font-size="10.00" fill="#000000">stdint.h</text>
</g>
<!-- Node3&#45;&gt;Node5 -->
<g id="edge5" class="edge">
<title>Node3&#45;&gt;Node5</title>
<path fill="none" stroke="#191970" d="M231.5965,-56.2455C236.4145,-48.5367 243.2751,-37.5598 249.1032,-28.2348"/>
<polygon fill="#191970" stroke="#191970" points="252.1413,-29.9777 254.4733,-19.6427 246.2053,-26.2677 252.1413,-29.9777"/>
</g>
</g>
</svg>
