<?xml version="1.0" encoding="UTF-8" standalone="no"?>
<!DOCTYPE svg PUBLIC "-//W3C//DTD SVG 1.1//EN"
 "http://www.w3.org/Graphics/SVG/1.1/DTD/svg11.dtd">
<!-- Generated by graphviz version 2.40.1 (0)
 -->
<!-- Title: sys/include/hashes/sha512_common.h Pages: 1 -->
<svg width="478pt" height="106pt"
 viewBox="0.00 0.00 478.00 106.00" xmlns="http://www.w3.org/2000/svg" xmlns:xlink="http://www.w3.org/1999/xlink">
<g id="graph0" class="graph" transform="scale(1 1) rotate(0) translate(4 102)">
<title>sys/include/hashes/sha512_common.h</title>
<polygon fill="#ffffff" stroke="transparent" points="-4,4 -4,-102 474,-102 474,4 -4,4"/>
<!-- Node3 -->
<g id="node1" class="node">
<title>Node3</title>
<polygon fill="#bfbfbf" stroke="#000000" points="181,-67.5 181,-97.5 289,-97.5 289,-67.5 181,-67.5"/>
<text text-anchor="start" x="189" y="-85.5" font-family="Helvetica,sans-Serif" font-size="10.00" fill="#000000">sys/include/hashes</text>
<text text-anchor="middle" x="235" y="-74.5" font-family="Helvetica,sans-Serif" font-size="10.00" fill="#000000">/sha512_common.h</text>
</g>
<!-- Node4 -->
<g id="node2" class="node">
<title>Node4</title>
<g id="a_node2"><a xlink:href="sha384_8h.html" target="_top" xlink:title="Header definitions for the SHA384 hash function. ">
<polygon fill="#ffffff" stroke="#000000" points="0,-.5 0,-30.5 104,-30.5 104,-.5 0,-.5"/>
<text text-anchor="start" x="8" y="-18.5" font-family="Helvetica,sans-Serif" font-size="10.00" fill="#000000">sys/include/hashes</text>
<text text-anchor="middle" x="52" y="-7.5" font-family="Helvetica,sans-Serif" font-size="10.00" fill="#000000">/sha384.h</text>
</a>
</g>
</g>
<!-- Node3&#45;&gt;Node4 -->
<g id="edge1" class="edge">
<title>Node3&#45;&gt;Node4</title>
<path fill="none" stroke="#191970" d="M184.4763,-64.0023C155.7645,-53.4903 120.2685,-40.4945 93.2479,-30.6017"/>
<polygon fill="#191970" stroke="#191970" points="183.3375,-67.3125 193.9312,-67.4639 185.7441,-60.7392 183.3375,-67.3125"/>
</g>
<!-- Node5 -->
<g id="node3" class="node">
<title>Node5</title>
<g id="a_node3"><a xlink:href="sha512_8h.html" target="_top" xlink:title="Header definitions for the SHA512 hash function. ">
<polygon fill="#ffffff" stroke="#000000" points="122,-.5 122,-30.5 226,-30.5 226,-.5 122,-.5"/>
<text text-anchor="start" x="130" y="-18.5" font-family="Helvetica,sans-Serif" font-size="10.00" fill="#000000">sys/include/hashes</text>
<text text-anchor="middle" x="174" y="-7.5" font-family="Helvetica,sans-Serif" font-size="10.00" fill="#000000">/sha512.h</text>
</a>
</g>
</g>
<!-- Node3&#45;&gt;Node5 -->
<g id="edge2" class="edge">
<title>Node3&#45;&gt;Node5</title>
<path fill="none" stroke="#191970" d="M214.1858,-59.6385C205.4699,-50.0653 195.5765,-39.1987 187.7871,-30.6432"/>
<polygon fill="#191970" stroke="#191970" points="211.8379,-62.2585 221.1582,-67.2967 217.014,-57.5459 211.8379,-62.2585"/>
</g>
<!-- Node6 -->
<g id="node4" class="node">
<title>Node6</title>
<g id="a_node4"><a xlink:href="sha512__224_8h.html" target="_top" xlink:title="Header definitions for the SHA512/224 hash function. ">
<polygon fill="#ffffff" stroke="#000000" points="244,-.5 244,-30.5 348,-30.5 348,-.5 244,-.5"/>
<text text-anchor="start" x="252" y="-18.5" font-family="Helvetica,sans-Serif" font-size="10.00" fill="#000000">sys/include/hashes</text>
<text text-anchor="middle" x="296" y="-7.5" font-family="Helvetica,sans-Serif" font-size="10.00" fill="#000000">/sha512_224.h</text>
</a>
</g>
</g>
<!-- Node3&#45;&gt;Node6 -->
<g id="edge3" class="edge">
<title>Node3&#45;&gt;Node6</title>
<path fill="none" stroke="#191970" d="M255.8142,-59.6385C264.5301,-50.0653 274.4235,-39.1987 282.2129,-30.6432"/>
<polygon fill="#191970" stroke="#191970" points="252.986,-57.5459 248.8418,-67.2967 258.1621,-62.2585 252.986,-57.5459"/>
</g>
<!-- Node7 -->
<g id="node5" class="node">
<title>Node7</title>
<g id="a_node5"><a xlink:href="sha512__256_8h.html" target="_top" xlink:title="Header definitions for the SHA512/256 hash function. ">
<polygon fill="#ffffff" stroke="#000000" points="366,-.5 366,-30.5 470,-30.5 470,-.5 366,-.5"/>
<text text-anchor="start" x="374" y="-18.5" font-family="Helvetica,sans-Serif" font-size="10.00" fill="#000000">sys/include/hashes</text>
<text text-anchor="middle" x="418" y="-7.5" font-family="Helvetica,sans-Serif" font-size="10.00" fill="#000000">/sha512_256.h</text>
</a>
</g>
</g>
<!-- Node3&#45;&gt;Node7 -->
<g id="edge4" class="edge">
<title>Node3&#45;&gt;Node7</title>
<path fill="none" stroke="#191970" d="M285.5237,-64.0023C314.2355,-53.4903 349.7315,-40.4945 376.7521,-30.6017"/>
<polygon fill="#191970" stroke="#191970" points="284.2559,-60.7392 276.0688,-67.4639 286.6625,-67.3125 284.2559,-60.7392"/>
</g>
</g>
</svg>
