<?xml version="1.0" encoding="UTF-8" standalone="no"?>
<!DOCTYPE svg PUBLIC "-//W3C//DTD SVG 1.1//EN"
 "http://www.w3.org/Graphics/SVG/1.1/DTD/svg11.dtd">
<!-- Generated by graphviz version 2.40.1 (0)
 -->
<!-- Title: drivers/si70xx/include/si70xx_params.h Pages: 1 -->
<svg width="567pt" height="207pt"
 viewBox="0.00 0.00 567.00 207.00" xmlns="http://www.w3.org/2000/svg" xmlns:xlink="http://www.w3.org/1999/xlink">
<g id="graph0" class="graph" transform="scale(1 1) rotate(0) translate(4 203)">
<title>drivers/si70xx/include/si70xx_params.h</title>
<polygon fill="#ffffff" stroke="transparent" points="-4,4 -4,-203 563,-203 563,4 -4,4"/>
<!-- Node0 -->
<g id="node1" class="node">
<title>Node0</title>
<polygon fill="#bfbfbf" stroke="#000000" points="205,-168.5 205,-198.5 324,-198.5 324,-168.5 205,-168.5"/>
<text text-anchor="start" x="213" y="-186.5" font-family="Helvetica,sans-Serif" font-size="10.00" fill="#000000">drivers/si70xx/include</text>
<text text-anchor="middle" x="264.5" y="-175.5" font-family="Helvetica,sans-Serif" font-size="10.00" fill="#000000">/si70xx_params.h</text>
</g>
<!-- Node1 -->
<g id="node2" class="node">
<title>Node1</title>
<polygon fill="#ffffff" stroke="#bfbfbf" points="122,-112.5 122,-131.5 175,-131.5 175,-112.5 122,-112.5"/>
<text text-anchor="middle" x="148.5" y="-119.5" font-family="Helvetica,sans-Serif" font-size="10.00" fill="#000000">board.h</text>
</g>
<!-- Node0&#45;&gt;Node1 -->
<g id="edge1" class="edge">
<title>Node0&#45;&gt;Node1</title>
<path fill="none" stroke="#191970" d="M236.1232,-168.4554C217.6172,-158.644 193.6112,-145.9167 175.4069,-136.2653"/>
<polygon fill="#191970" stroke="#191970" points="176.9505,-133.1222 166.4759,-131.5303 173.6715,-139.3068 176.9505,-133.1222"/>
</g>
<!-- Node2 -->
<g id="node3" class="node">
<title>Node2</title>
<g id="a_node3"><a xlink:href="si70xx_8h.html" target="_top" xlink:title="Interface definition of the Si70xx driver. ">
<polygon fill="#ffffff" stroke="#000000" points="276,-112.5 276,-131.5 331,-131.5 331,-112.5 276,-112.5"/>
<text text-anchor="middle" x="303.5" y="-119.5" font-family="Helvetica,sans-Serif" font-size="10.00" fill="#000000">si70xx.h</text>
</a>
</g>
</g>
<!-- Node0&#45;&gt;Node2 -->
<g id="edge2" class="edge">
<title>Node0&#45;&gt;Node2</title>
<path fill="none" stroke="#191970" d="M274.1405,-168.2977C279.4977,-159.8498 286.2022,-149.2773 291.8513,-140.369"/>
<polygon fill="#191970" stroke="#191970" points="294.8559,-142.1664 297.2556,-131.8469 288.9444,-138.4176 294.8559,-142.1664"/>
</g>
<!-- Node9 -->
<g id="node10" class="node">
<title>Node9</title>
<g id="a_node10"><a xlink:href="saul__reg_8h.html" target="_top" xlink:title="SAUL registry interface definition. ">
<polygon fill="#ffffff" stroke="#000000" points="193,-112.5 193,-131.5 258,-131.5 258,-112.5 193,-112.5"/>
<text text-anchor="middle" x="225.5" y="-119.5" font-family="Helvetica,sans-Serif" font-size="10.00" fill="#000000">saul_reg.h</text>
</a>
</g>
</g>
<!-- Node0&#45;&gt;Node9 -->
<g id="edge9" class="edge">
<title>Node0&#45;&gt;Node9</title>
<path fill="none" stroke="#191970" d="M254.8595,-168.2977C249.5023,-159.8498 242.7978,-149.2773 237.1487,-140.369"/>
<polygon fill="#191970" stroke="#191970" points="240.0556,-138.4176 231.7444,-131.8469 234.1441,-142.1664 240.0556,-138.4176"/>
</g>
<!-- Node14 -->
<g id="node15" class="node">
<title>Node14</title>
<g id="a_node15"><a xlink:href="si70xx__internals_8h.html" target="_top" xlink:title="Internal definitions for Si7006/13/20/21. ">
<polygon fill="#ffffff" stroke="#000000" points="349.5,-112.5 349.5,-131.5 449.5,-131.5 449.5,-112.5 349.5,-112.5"/>
<text text-anchor="middle" x="399.5" y="-119.5" font-family="Helvetica,sans-Serif" font-size="10.00" fill="#000000">si70xx_internals.h</text>
</a>
</g>
</g>
<!-- Node0&#45;&gt;Node14 -->
<g id="edge17" class="edge">
<title>Node0&#45;&gt;Node14</title>
<path fill="none" stroke="#191970" d="M297.5247,-168.4554C319.457,-158.464 348.0273,-145.4487 369.3453,-135.7372"/>
<polygon fill="#191970" stroke="#191970" points="370.9306,-138.8611 378.5798,-131.5303 368.0286,-132.4909 370.9306,-138.8611"/>
</g>
<!-- Node3 -->
<g id="node4" class="node">
<title>Node3</title>
<g id="a_node4"><a xlink:href="i2c_8h.html" target="_top" xlink:title="Low&#45;level I2C peripheral driver interface definition. ">
<polygon fill="#ffffff" stroke="#000000" points="299,-56.5 299,-75.5 372,-75.5 372,-56.5 299,-56.5"/>
<text text-anchor="middle" x="335.5" y="-63.5" font-family="Helvetica,sans-Serif" font-size="10.00" fill="#000000">periph/i2c.h</text>
</a>
</g>
</g>
<!-- Node2&#45;&gt;Node3 -->
<g id="edge3" class="edge">
<title>Node2&#45;&gt;Node3</title>
<path fill="none" stroke="#191970" d="M309.074,-112.2455C313.4331,-104.617 319.6211,-93.7881 324.9133,-84.5267"/>
<polygon fill="#191970" stroke="#191970" points="328.0673,-86.0616 329.9899,-75.6427 321.9896,-82.5886 328.0673,-86.0616"/>
</g>
<!-- Node4 -->
<g id="node5" class="node">
<title>Node4</title>
<polygon fill="#ffffff" stroke="#bfbfbf" points="170.5,-.5 170.5,-19.5 222.5,-19.5 222.5,-.5 170.5,-.5"/>
<text text-anchor="middle" x="196.5" y="-7.5" font-family="Helvetica,sans-Serif" font-size="10.00" fill="#000000">stdint.h</text>
</g>
<!-- Node3&#45;&gt;Node4 -->
<g id="edge4" class="edge">
<title>Node3&#45;&gt;Node4</title>
<path fill="none" stroke="#191970" d="M311.605,-56.3733C288.9918,-47.2629 254.8458,-33.5062 229.6127,-23.3404"/>
<polygon fill="#191970" stroke="#191970" points="230.6666,-19.9917 220.0831,-19.5011 228.0507,-26.4845 230.6666,-19.9917"/>
</g>
<!-- Node5 -->
<g id="node6" class="node">
<title>Node5</title>
<polygon fill="#ffffff" stroke="#bfbfbf" points="240.5,-.5 240.5,-19.5 296.5,-19.5 296.5,-.5 240.5,-.5"/>
<text text-anchor="middle" x="268.5" y="-7.5" font-family="Helvetica,sans-Serif" font-size="10.00" fill="#000000">stddef.h</text>
</g>
<!-- Node3&#45;&gt;Node5 -->
<g id="edge5" class="edge">
<title>Node3&#45;&gt;Node5</title>
<path fill="none" stroke="#191970" d="M323.8295,-56.2455C313.9339,-47.9746 299.5373,-35.9416 287.9099,-26.2232"/>
<polygon fill="#191970" stroke="#191970" points="289.9542,-23.3703 280.0368,-19.6427 285.465,-28.7413 289.9542,-23.3703"/>
</g>
<!-- Node6 -->
<g id="node7" class="node">
<title>Node6</title>
<polygon fill="#ffffff" stroke="#bfbfbf" points="314.5,-.5 314.5,-19.5 364.5,-19.5 364.5,-.5 314.5,-.5"/>
<text text-anchor="middle" x="339.5" y="-7.5" font-family="Helvetica,sans-Serif" font-size="10.00" fill="#000000">limits.h</text>
</g>
<!-- Node3&#45;&gt;Node6 -->
<g id="edge6" class="edge">
<title>Node3&#45;&gt;Node6</title>
<path fill="none" stroke="#191970" d="M336.1967,-56.2455C336.7187,-48.9382 337.4504,-38.6944 338.0925,-29.7046"/>
<polygon fill="#191970" stroke="#191970" points="341.5898,-29.8667 338.8112,-19.6427 334.6076,-29.3679 341.5898,-29.8667"/>
</g>
<!-- Node7 -->
<g id="node8" class="node">
<title>Node7</title>
<polygon fill="#ffffff" stroke="#bfbfbf" points="383,-.5 383,-19.5 464,-19.5 464,-.5 383,-.5"/>
<text text-anchor="middle" x="423.5" y="-7.5" font-family="Helvetica,sans-Serif" font-size="10.00" fill="#000000">periph_conf.h</text>
</g>
<!-- Node3&#45;&gt;Node7 -->
<g id="edge7" class="edge">
<title>Node3&#45;&gt;Node7</title>
<path fill="none" stroke="#191970" d="M350.8284,-56.2455C364.3303,-47.6534 384.2122,-35.0014 399.7686,-25.1018"/>
<polygon fill="#191970" stroke="#191970" points="401.7897,-27.9643 408.3472,-19.6427 398.0315,-22.0587 401.7897,-27.9643"/>
</g>
<!-- Node8 -->
<g id="node9" class="node">
<title>Node8</title>
<polygon fill="#ffffff" stroke="#bfbfbf" points="482,-.5 482,-19.5 559,-19.5 559,-.5 482,-.5"/>
<text text-anchor="middle" x="520.5" y="-7.5" font-family="Helvetica,sans-Serif" font-size="10.00" fill="#000000">periph_cpu.h</text>
</g>
<!-- Node3&#45;&gt;Node8 -->
<g id="edge8" class="edge">
<title>Node3&#45;&gt;Node8</title>
<path fill="none" stroke="#191970" d="M367.3026,-56.3733C398.3317,-46.9807 445.6754,-32.6496 479.5147,-22.4064"/>
<polygon fill="#191970" stroke="#191970" points="480.5553,-25.7483 489.1124,-19.5011 478.5272,-19.0485 480.5553,-25.7483"/>
</g>
<!-- Node9&#45;&gt;Node4 -->
<g id="edge10" class="edge">
<title>Node9&#45;&gt;Node4</title>
<path fill="none" stroke="#191970" d="M223.0275,-112.4509C218.2762,-94.1013 207.7869,-53.5908 201.5153,-29.3693"/>
<polygon fill="#191970" stroke="#191970" points="204.8612,-28.3283 198.9663,-19.5249 198.0847,-30.083 204.8612,-28.3283"/>
</g>
<!-- Node10 -->
<g id="node11" class="node">
<title>Node10</title>
<polygon fill="#ffffff" stroke="#bfbfbf" points="228.5,-56.5 228.5,-75.5 272.5,-75.5 272.5,-56.5 228.5,-56.5"/>
<text text-anchor="middle" x="250.5" y="-63.5" font-family="Helvetica,sans-Serif" font-size="10.00" fill="#000000">saul.h</text>
</g>
<!-- Node9&#45;&gt;Node10 -->
<g id="edge11" class="edge">
<title>Node9&#45;&gt;Node10</title>
<path fill="none" stroke="#191970" d="M229.8547,-112.2455C233.2244,-104.6973 237.993,-94.0158 242.0983,-84.8197"/>
<polygon fill="#191970" stroke="#191970" points="245.3147,-86.2009 246.1952,-75.6427 238.9227,-83.3473 245.3147,-86.2009"/>
</g>
<!-- Node11 -->
<g id="node12" class="node">
<title>Node11</title>
<g id="a_node12"><a xlink:href="phydat_8h.html" target="_top" xlink:title="Generic data container for physical data interface. ">
<polygon fill="#ffffff" stroke="#000000" points="114.5,-56.5 114.5,-75.5 172.5,-75.5 172.5,-56.5 114.5,-56.5"/>
<text text-anchor="middle" x="143.5" y="-63.5" font-family="Helvetica,sans-Serif" font-size="10.00" fill="#000000">phydat.h</text>
</a>
</g>
</g>
<!-- Node9&#45;&gt;Node11 -->
<g id="edge12" class="edge">
<title>Node9&#45;&gt;Node11</title>
<path fill="none" stroke="#191970" d="M211.2167,-112.2455C198.753,-103.7337 180.4549,-91.2375 166.0208,-81.3801"/>
<polygon fill="#191970" stroke="#191970" points="167.8515,-78.392 157.6196,-75.6427 163.9038,-84.1726 167.8515,-78.392"/>
</g>
<!-- Node11&#45;&gt;Node4 -->
<g id="edge14" class="edge">
<title>Node11&#45;&gt;Node4</title>
<path fill="none" stroke="#191970" d="M152.7319,-56.2455C160.3317,-48.2155 171.2877,-36.6394 180.3368,-27.0781"/>
<polygon fill="#191970" stroke="#191970" points="183.0421,-29.3115 187.3739,-19.6427 177.958,-24.4998 183.0421,-29.3115"/>
</g>
<!-- Node11&#45;&gt;Node5 -->
<g id="edge13" class="edge">
<title>Node11&#45;&gt;Node5</title>
<path fill="none" stroke="#191970" d="M164.9883,-56.3733C185.144,-47.3435 215.488,-33.7494 238.118,-23.6111"/>
<polygon fill="#191970" stroke="#191970" points="239.5971,-26.7838 247.2921,-19.5011 236.7351,-20.3955 239.5971,-26.7838"/>
</g>
<!-- Node12 -->
<g id="node13" class="node">
<title>Node12</title>
<polygon fill="#ffffff" stroke="#bfbfbf" points="0,-.5 0,-19.5 69,-19.5 69,-.5 0,-.5"/>
<text text-anchor="middle" x="34.5" y="-7.5" font-family="Helvetica,sans-Serif" font-size="10.00" fill="#000000">sys/types.h</text>
</g>
<!-- Node11&#45;&gt;Node12 -->
<g id="edge15" class="edge">
<title>Node11&#45;&gt;Node12</title>
<path fill="none" stroke="#191970" d="M124.5136,-56.2455C107.3208,-47.4125 81.7762,-34.2887 62.2868,-24.2758"/>
<polygon fill="#191970" stroke="#191970" points="63.763,-21.0993 53.2688,-19.6427 60.5641,-27.3257 63.763,-21.0993"/>
</g>
<!-- Node13 -->
<g id="node14" class="node">
<title>Node13</title>
<g id="a_node14"><a xlink:href="modules_8h.html" target="_top" xlink:title="Common macros and compiler attributes/pragmas configuration. ">
<polygon fill="#ffffff" stroke="#000000" points="87,-.5 87,-19.5 152,-19.5 152,-.5 87,-.5"/>
<text text-anchor="middle" x="119.5" y="-7.5" font-family="Helvetica,sans-Serif" font-size="10.00" fill="#000000">modules.h</text>
</a>
</g>
</g>
<!-- Node11&#45;&gt;Node13 -->
<g id="edge16" class="edge">
<title>Node11&#45;&gt;Node13</title>
<path fill="none" stroke="#191970" d="M139.3195,-56.2455C136.119,-48.7776 131.604,-38.2427 127.6916,-29.1137"/>
<polygon fill="#191970" stroke="#191970" points="130.7888,-27.4554 123.6326,-19.6427 124.3548,-30.2129 130.7888,-27.4554"/>
</g>
</g>
</svg>
