<?xml version="1.0" encoding="UTF-8" standalone="no"?>
<!DOCTYPE svg PUBLIC "-//W3C//DTD SVG 1.1//EN"
 "http://www.w3.org/Graphics/SVG/1.1/DTD/svg11.dtd">
<!-- Generated by graphviz version 2.40.1 (0)
 -->
<!-- Title: sys/include/net/sixlowpan.h Pages: 1 -->
<svg width="454pt" height="196pt"
 viewBox="0.00 0.00 453.50 196.00" xmlns="http://www.w3.org/2000/svg" xmlns:xlink="http://www.w3.org/1999/xlink">
<g id="graph0" class="graph" transform="scale(1 1) rotate(0) translate(4 192)">
<title>sys/include/net/sixlowpan.h</title>
<polygon fill="#ffffff" stroke="transparent" points="-4,4 -4,-192 449.5,-192 449.5,4 -4,4"/>
<!-- Node0 -->
<g id="node1" class="node">
<title>Node0</title>
<polygon fill="#bfbfbf" stroke="#000000" points="61.5,-168.5 61.5,-187.5 206.5,-187.5 206.5,-168.5 61.5,-168.5"/>
<text text-anchor="middle" x="134" y="-175.5" font-family="Helvetica,sans-Serif" font-size="10.00" fill="#000000">sys/include/net/sixlowpan.h</text>
</g>
<!-- Node1 -->
<g id="node2" class="node">
<title>Node1</title>
<polygon fill="#ffffff" stroke="#bfbfbf" points="0,-112.5 0,-131.5 60,-131.5 60,-112.5 0,-112.5"/>
<text text-anchor="middle" x="30" y="-119.5" font-family="Helvetica,sans-Serif" font-size="10.00" fill="#000000">stdbool.h</text>
</g>
<!-- Node0&#45;&gt;Node1 -->
<g id="edge1" class="edge">
<title>Node0&#45;&gt;Node1</title>
<path fill="none" stroke="#191970" d="M115.8846,-168.2455C99.555,-159.4527 75.329,-146.4079 56.7661,-136.4125"/>
<polygon fill="#191970" stroke="#191970" points="58.3719,-133.3021 47.9078,-131.6427 55.0532,-139.4654 58.3719,-133.3021"/>
</g>
<!-- Node2 -->
<g id="node3" class="node">
<title>Node2</title>
<polygon fill="#ffffff" stroke="#bfbfbf" points="78,-112.5 78,-131.5 134,-131.5 134,-112.5 78,-112.5"/>
<text text-anchor="middle" x="106" y="-119.5" font-family="Helvetica,sans-Serif" font-size="10.00" fill="#000000">stddef.h</text>
</g>
<!-- Node0&#45;&gt;Node2 -->
<g id="edge2" class="edge">
<title>Node0&#45;&gt;Node2</title>
<path fill="none" stroke="#191970" d="M129.1228,-168.2455C125.3487,-160.6973 120.0079,-150.0158 115.4099,-140.8197"/>
<polygon fill="#191970" stroke="#191970" points="118.424,-139.0217 110.8213,-131.6427 112.163,-142.1522 118.424,-139.0217"/>
</g>
<!-- Node3 -->
<g id="node4" class="node">
<title>Node3</title>
<polygon fill="#ffffff" stroke="#bfbfbf" points="238,-.5 238,-19.5 290,-19.5 290,-.5 238,-.5"/>
<text text-anchor="middle" x="264" y="-7.5" font-family="Helvetica,sans-Serif" font-size="10.00" fill="#000000">stdint.h</text>
</g>
<!-- Node0&#45;&gt;Node3 -->
<g id="edge3" class="edge">
<title>Node0&#45;&gt;Node3</title>
<path fill="none" stroke="#191970" d="M139.1613,-168.2328C150.7593,-146.7394 180.4298,-94.2188 213,-56 222.1841,-45.2231 233.8216,-34.5464 243.6602,-26.1958"/>
<polygon fill="#191970" stroke="#191970" points="245.9402,-28.852 251.4082,-19.7772 241.4746,-23.4614 245.9402,-28.852"/>
</g>
<!-- Node4 -->
<g id="node5" class="node">
<title>Node4</title>
<g id="a_node5"><a xlink:href="byteorder_8h.html" target="_top" xlink:title="Functions to work with different byte orders. ">
<polygon fill="#ffffff" stroke="#000000" points="218.5,-112.5 218.5,-131.5 291.5,-131.5 291.5,-112.5 218.5,-112.5"/>
<text text-anchor="middle" x="255" y="-119.5" font-family="Helvetica,sans-Serif" font-size="10.00" fill="#000000">byteorder.h</text>
</a>
</g>
</g>
<!-- Node0&#45;&gt;Node4 -->
<g id="edge4" class="edge">
<title>Node0&#45;&gt;Node4</title>
<path fill="none" stroke="#191970" d="M154.8006,-168.3733C174.2243,-159.3838 203.4224,-145.8706 225.2964,-135.7471"/>
<polygon fill="#191970" stroke="#191970" points="226.8656,-138.8776 234.4708,-131.5011 223.9255,-132.5249 226.8656,-138.8776"/>
</g>
<!-- Node4&#45;&gt;Node3 -->
<g id="edge6" class="edge">
<title>Node4&#45;&gt;Node3</title>
<path fill="none" stroke="#191970" d="M243.6458,-112.4961C230.1374,-99.9622 210.4245,-77.0293 219,-56 223.7156,-44.4363 232.8927,-34.2008 241.7362,-26.3383"/>
<polygon fill="#191970" stroke="#191970" points="244.1496,-28.8842 249.6263,-19.8147 239.6891,-23.4894 244.1496,-28.8842"/>
</g>
<!-- Node5 -->
<g id="node6" class="node">
<title>Node5</title>
<polygon fill="#ffffff" stroke="#bfbfbf" points="228.5,-56.5 228.5,-75.5 281.5,-75.5 281.5,-56.5 228.5,-56.5"/>
<text text-anchor="middle" x="255" y="-63.5" font-family="Helvetica,sans-Serif" font-size="10.00" fill="#000000">string.h</text>
</g>
<!-- Node4&#45;&gt;Node5 -->
<g id="edge5" class="edge">
<title>Node4&#45;&gt;Node5</title>
<path fill="none" stroke="#191970" d="M255,-112.2455C255,-104.9382 255,-94.6944 255,-85.7046"/>
<polygon fill="#191970" stroke="#191970" points="258.5001,-85.6426 255,-75.6427 251.5001,-85.6427 258.5001,-85.6426"/>
</g>
<!-- Node6 -->
<g id="node7" class="node">
<title>Node6</title>
<g id="a_node7"><a xlink:href="endian_8h.html" target="_top" xlink:title="libc header for endian conversion ">
<polygon fill="#ffffff" stroke="#000000" points="299.5,-56.5 299.5,-75.5 356.5,-75.5 356.5,-56.5 299.5,-56.5"/>
<text text-anchor="middle" x="328" y="-63.5" font-family="Helvetica,sans-Serif" font-size="10.00" fill="#000000">endian.h</text>
</a>
</g>
</g>
<!-- Node4&#45;&gt;Node6 -->
<g id="edge7" class="edge">
<title>Node4&#45;&gt;Node6</title>
<path fill="none" stroke="#191970" d="M267.7156,-112.2455C278.602,-103.8943 294.4883,-91.7076 307.22,-81.9408"/>
<polygon fill="#191970" stroke="#191970" points="309.6261,-84.5063 315.4301,-75.6427 305.3654,-78.9523 309.6261,-84.5063"/>
</g>
<!-- Node7 -->
<g id="node8" class="node">
<title>Node7</title>
<g id="a_node8"><a xlink:href="unaligned_8h.html" target="_top" xlink:title="Unaligned but safe memory access functions. ">
<polygon fill="#ffffff" stroke="#000000" points="374.5,-56.5 374.5,-75.5 445.5,-75.5 445.5,-56.5 374.5,-56.5"/>
<text text-anchor="middle" x="410" y="-63.5" font-family="Helvetica,sans-Serif" font-size="10.00" fill="#000000">unaligned.h</text>
</a>
</g>
</g>
<!-- Node4&#45;&gt;Node7 -->
<g id="edge9" class="edge">
<title>Node4&#45;&gt;Node7</title>
<path fill="none" stroke="#191970" d="M281.6454,-112.3733C307.1964,-103.1419 345.9512,-89.1402 374.1909,-78.9375"/>
<polygon fill="#191970" stroke="#191970" points="375.4865,-82.1909 383.7022,-75.5011 373.1079,-75.6074 375.4865,-82.1909"/>
</g>
<!-- Node6&#45;&gt;Node3 -->
<g id="edge8" class="edge">
<title>Node6&#45;&gt;Node3</title>
<path fill="none" stroke="#191970" d="M316.8521,-56.2455C307.4913,-48.0549 293.9142,-36.1749 282.8651,-26.5069"/>
<polygon fill="#191970" stroke="#191970" points="284.8508,-23.5937 275.0202,-19.6427 280.2412,-28.8618 284.8508,-23.5937"/>
</g>
<!-- Node7&#45;&gt;Node3 -->
<g id="edge10" class="edge">
<title>Node7&#45;&gt;Node3</title>
<path fill="none" stroke="#191970" d="M384.9017,-56.3733C361.0445,-47.2226 324.9665,-33.3844 298.429,-23.2057"/>
<polygon fill="#191970" stroke="#191970" points="299.361,-19.8145 288.7708,-19.5011 296.8541,-26.3503 299.361,-19.8145"/>
</g>
</g>
</svg>
