<?xml version="1.0" encoding="UTF-8" standalone="no"?>
<!DOCTYPE svg PUBLIC "-//W3C//DTD SVG 1.1//EN"
 "http://www.w3.org/Graphics/SVG/1.1/DTD/svg11.dtd">
<!-- Generated by graphviz version 2.40.1 (0)
 -->
<!-- Title: sys/include/net/skald.h Pages: 1 -->
<svg width="254pt" height="95pt"
 viewBox="0.00 0.00 254.00 95.00" xmlns="http://www.w3.org/2000/svg" xmlns:xlink="http://www.w3.org/1999/xlink">
<g id="graph0" class="graph" transform="scale(1 1) rotate(0) translate(4 91)">
<title>sys/include/net/skald.h</title>
<polygon fill="#ffffff" stroke="transparent" points="-4,4 -4,-91 250,-91 250,4 -4,4"/>
<!-- Node37 -->
<g id="node1" class="node">
<title>Node37</title>
<polygon fill="#bfbfbf" stroke="#000000" points="61.5,-67.5 61.5,-86.5 184.5,-86.5 184.5,-67.5 61.5,-67.5"/>
<text text-anchor="middle" x="123" y="-74.5" font-family="Helvetica,sans-Serif" font-size="10.00" fill="#000000">sys/include/net/skald.h</text>
</g>
<!-- Node38 -->
<g id="node2" class="node">
<title>Node38</title>
<g id="a_node2"><a xlink:href="skald_2eddystone_8h.html" target="_top" xlink:title="Skald&#39;s basic interface. ">
<polygon fill="#ffffff" stroke="#000000" points="0,-.5 0,-30.5 114,-30.5 114,-.5 0,-.5"/>
<text text-anchor="start" x="8" y="-18.5" font-family="Helvetica,sans-Serif" font-size="10.00" fill="#000000">sys/include/net/skald</text>
<text text-anchor="middle" x="57" y="-7.5" font-family="Helvetica,sans-Serif" font-size="10.00" fill="#000000">/eddystone.h</text>
</a>
</g>
</g>
<!-- Node37&#45;&gt;Node38 -->
<g id="edge1" class="edge">
<title>Node37&#45;&gt;Node38</title>
<path fill="none" stroke="#191970" d="M105.2793,-60.4875C95.2788,-51.1689 82.8759,-39.6116 73.1454,-30.5446"/>
<polygon fill="#191970" stroke="#191970" points="102.9853,-63.134 112.6875,-67.3906 107.7574,-58.0127 102.9853,-63.134"/>
</g>
<!-- Node39 -->
<g id="node3" class="node">
<title>Node39</title>
<g id="a_node3"><a xlink:href="ibeacon_8h.html" target="_top" xlink:title="Skald&#39;s basic interface. ">
<polygon fill="#ffffff" stroke="#000000" points="132,-.5 132,-30.5 246,-30.5 246,-.5 132,-.5"/>
<text text-anchor="start" x="140" y="-18.5" font-family="Helvetica,sans-Serif" font-size="10.00" fill="#000000">sys/include/net/skald</text>
<text text-anchor="middle" x="189" y="-7.5" font-family="Helvetica,sans-Serif" font-size="10.00" fill="#000000">/ibeacon.h</text>
</a>
</g>
</g>
<!-- Node37&#45;&gt;Node39 -->
<g id="edge2" class="edge">
<title>Node37&#45;&gt;Node39</title>
<path fill="none" stroke="#191970" d="M140.7207,-60.4875C150.7212,-51.1689 163.1241,-39.6116 172.8546,-30.5446"/>
<polygon fill="#191970" stroke="#191970" points="138.2426,-58.0127 133.3125,-67.3906 143.0147,-63.134 138.2426,-58.0127"/>
</g>
</g>
</svg>
