<?xml version="1.0" encoding="UTF-8" standalone="no"?>
<!DOCTYPE svg PUBLIC "-//W3C//DTD SVG 1.1//EN"
 "http://www.w3.org/Graphics/SVG/1.1/DTD/svg11.dtd">
<!-- Generated by graphviz version 2.40.1 (0)
 -->
<!-- Title: sys/include/net/skald/eddystone.h Pages: 1 -->
<svg width="1340pt" height="655pt"
 viewBox="0.00 0.00 1339.50 655.00" xmlns="http://www.w3.org/2000/svg" xmlns:xlink="http://www.w3.org/1999/xlink">
<g id="graph0" class="graph" transform="scale(1 1) rotate(0) translate(4 651)">
<title>sys/include/net/skald/eddystone.h</title>
<polygon fill="#ffffff" stroke="transparent" points="-4,4 -4,-651 1335.5,-651 1335.5,4 -4,4"/>
<!-- Node0 -->
<g id="node1" class="node">
<title>Node0</title>
<polygon fill="#bfbfbf" stroke="#000000" points="1108,-616.5 1108,-646.5 1222,-646.5 1222,-616.5 1108,-616.5"/>
<text text-anchor="start" x="1116" y="-634.5" font-family="Helvetica,sans-Serif" font-size="10.00" fill="#000000">sys/include/net/skald</text>
<text text-anchor="middle" x="1165" y="-623.5" font-family="Helvetica,sans-Serif" font-size="10.00" fill="#000000">/eddystone.h</text>
</g>
<!-- Node1 -->
<g id="node2" class="node">
<title>Node1</title>
<g id="a_node2"><a xlink:href="eddystone_8h.html" target="_top" xlink:title="Constants defined by the Eddystone specification. ">
<polygon fill="#ffffff" stroke="#000000" points="1067.5,-560.5 1067.5,-579.5 1162.5,-579.5 1162.5,-560.5 1067.5,-560.5"/>
<text text-anchor="middle" x="1115" y="-567.5" font-family="Helvetica,sans-Serif" font-size="10.00" fill="#000000">net/eddystone.h</text>
</a>
</g>
</g>
<!-- Node0&#45;&gt;Node1 -->
<g id="edge1" class="edge">
<title>Node0&#45;&gt;Node1</title>
<path fill="none" stroke="#191970" d="M1152.6404,-616.2977C1145.6276,-607.672 1136.814,-596.8312 1129.4786,-587.8087"/>
<polygon fill="#191970" stroke="#191970" points="1132.0297,-585.3982 1123.0056,-579.8469 1126.5982,-589.8141 1132.0297,-585.3982"/>
</g>
<!-- Node2 -->
<g id="node3" class="node">
<title>Node2</title>
<g id="a_node3"><a xlink:href="skald_8h.html" target="_top" xlink:title="Skald&#39;s basic interface. ">
<polygon fill="#ffffff" stroke="#000000" points="1181,-560.5 1181,-579.5 1249,-579.5 1249,-560.5 1181,-560.5"/>
<text text-anchor="middle" x="1215" y="-567.5" font-family="Helvetica,sans-Serif" font-size="10.00" fill="#000000">net/skald.h</text>
</a>
</g>
</g>
<!-- Node0&#45;&gt;Node2 -->
<g id="edge2" class="edge">
<title>Node0&#45;&gt;Node2</title>
<path fill="none" stroke="#191970" d="M1177.3596,-616.2977C1184.3724,-607.672 1193.186,-596.8312 1200.5214,-587.8087"/>
<polygon fill="#191970" stroke="#191970" points="1203.4018,-589.8141 1206.9944,-579.8469 1197.9703,-585.3982 1203.4018,-589.8141"/>
</g>
<!-- Node3 -->
<g id="node4" class="node">
<title>Node3</title>
<polygon fill="#ffffff" stroke="#bfbfbf" points="491,-.5 491,-19.5 543,-19.5 543,-.5 491,-.5"/>
<text text-anchor="middle" x="517" y="-7.5" font-family="Helvetica,sans-Serif" font-size="10.00" fill="#000000">stdint.h</text>
</g>
<!-- Node2&#45;&gt;Node3 -->
<g id="edge3" class="edge">
<title>Node2&#45;&gt;Node3</title>
<path fill="none" stroke="#191970" d="M1219.279,-560.3307C1227.3459,-541.1936 1244,-496.9662 1244,-458 1244,-458 1244,-458 1244,-234 1244,-203.4754 1246.9445,-189.2177 1225,-168 1177.8835,-122.4441 1144.483,-151.7783 1082,-132 992.1347,-103.5541 975.4315,-78.9176 884,-56 765.4054,-26.2738 620.2086,-15.3198 553.583,-11.6578"/>
<polygon fill="#191970" stroke="#191970" points="553.3745,-8.1421 543.2045,-11.112 553.0068,-15.1324 553.3745,-8.1421"/>
</g>
<!-- Node4 -->
<g id="node5" class="node">
<title>Node4</title>
<g id="a_node5"><a xlink:href="ztimer_8h.html" target="_top" xlink:title="ztimer API ">
<polygon fill="#ffffff" stroke="#000000" points="436.5,-504.5 436.5,-523.5 491.5,-523.5 491.5,-504.5 436.5,-504.5"/>
<text text-anchor="middle" x="464" y="-511.5" font-family="Helvetica,sans-Serif" font-size="10.00" fill="#000000">ztimer.h</text>
</a>
</g>
</g>
<!-- Node2&#45;&gt;Node4 -->
<g id="edge4" class="edge">
<title>Node2&#45;&gt;Node4</title>
<path fill="none" stroke="#191970" d="M1180.8291,-561.5217C1177.8545,-560.9454 1174.8812,-560.4257 1172,-560 1040.7379,-540.606 628.9691,-521.2756 501.7951,-515.6375"/>
<polygon fill="#191970" stroke="#191970" points="501.9015,-512.1389 491.7569,-515.1948 501.593,-519.1321 501.9015,-512.1389"/>
</g>
<!-- Node31 -->
<g id="node32" class="node">
<title>Node31</title>
<g id="a_node32"><a xlink:href="sys_2include_2net_2ble_8h.html" target="_top" xlink:title="General BLE values as defined by the BT standard. ">
<polygon fill="#ffffff" stroke="#000000" points="1272.5,-504.5 1272.5,-523.5 1331.5,-523.5 1331.5,-504.5 1272.5,-504.5"/>
<text text-anchor="middle" x="1302" y="-511.5" font-family="Helvetica,sans-Serif" font-size="10.00" fill="#000000">net/ble.h</text>
</a>
</g>
</g>
<!-- Node2&#45;&gt;Node31 -->
<g id="edge58" class="edge">
<title>Node2&#45;&gt;Node31</title>
<path fill="none" stroke="#191970" d="M1230.1542,-560.2455C1243.5027,-551.6534 1263.1586,-539.0014 1278.5383,-529.1018"/>
<polygon fill="#191970" stroke="#191970" points="1280.5051,-531.9982 1287.0194,-523.6427 1276.7164,-526.1121 1280.5051,-531.9982"/>
</g>
<!-- Node32 -->
<g id="node33" class="node">
<title>Node32</title>
<g id="a_node33"><a xlink:href="drivers_2include_2net_2netdev_2ble_8h.html" target="_top" xlink:title="BLE specific adaption for the Netdev API. ">
<polygon fill="#ffffff" stroke="#000000" points="1120,-392.5 1120,-411.5 1216,-411.5 1216,-392.5 1120,-392.5"/>
<text text-anchor="middle" x="1168" y="-399.5" font-family="Helvetica,sans-Serif" font-size="10.00" fill="#000000">net/netdev/ble.h</text>
</a>
</g>
</g>
<!-- Node2&#45;&gt;Node32 -->
<g id="edge59" class="edge">
<title>Node2&#45;&gt;Node32</title>
<path fill="none" stroke="#191970" d="M1212.3384,-560.4862C1204.8766,-533.8144 1183.642,-457.9117 1173.5099,-421.695"/>
<polygon fill="#191970" stroke="#191970" points="1176.8143,-420.5151 1170.7495,-411.8279 1170.0731,-422.4011 1176.8143,-420.5151"/>
</g>
<!-- Node4&#45;&gt;Node3 -->
<g id="edge5" class="edge">
<title>Node4&#45;&gt;Node3</title>
<path fill="none" stroke="#191970" d="M436.3642,-513.3C336.4736,-510.0337 0,-492.3273 0,-402 0,-402 0,-402 0,-122 0,-81.7538 25.9141,-73.8202 62,-56 135.4308,-19.7379 385.9915,-12.0473 480.5131,-10.4279"/>
<polygon fill="#191970" stroke="#191970" points="480.7838,-13.9241 490.7272,-10.2664 480.6731,-6.925 480.7838,-13.9241"/>
</g>
<!-- Node5 -->
<g id="node6" class="node">
<title>Node5</title>
<g id="a_node6"><a xlink:href="mbox_8h.html" target="_top" xlink:title="Mailbox API. ">
<polygon fill="#ffffff" stroke="#000000" points="172,-336.5 172,-355.5 224,-355.5 224,-336.5 172,-336.5"/>
<text text-anchor="middle" x="198" y="-343.5" font-family="Helvetica,sans-Serif" font-size="10.00" fill="#000000">mbox.h</text>
</a>
</g>
</g>
<!-- Node4&#45;&gt;Node5 -->
<g id="edge6" class="edge">
<title>Node4&#45;&gt;Node5</title>
<path fill="none" stroke="#191970" d="M440.6573,-504.3623C420.6195,-495.7555 391.2245,-482.3254 367,-468 310.0579,-434.3267 248.2594,-386.5318 217.5784,-361.956"/>
<polygon fill="#191970" stroke="#191970" points="219.7624,-359.221 209.7799,-355.6712 215.3699,-364.6713 219.7624,-359.221"/>
</g>
<!-- Node11 -->
<g id="node12" class="node">
<title>Node11</title>
<g id="a_node12"><a xlink:href="sched_8h.html" target="_top" xlink:title="Scheduler API definition. ">
<polygon fill="#ffffff" stroke="#000000" points="689.5,-224.5 689.5,-243.5 742.5,-243.5 742.5,-224.5 689.5,-224.5"/>
<text text-anchor="middle" x="716" y="-231.5" font-family="Helvetica,sans-Serif" font-size="10.00" fill="#000000">sched.h</text>
</a>
</g>
</g>
<!-- Node4&#45;&gt;Node11 -->
<g id="edge57" class="edge">
<title>Node4&#45;&gt;Node11</title>
<path fill="none" stroke="#191970" d="M491.5987,-507.7726C556.4289,-492.3469 713,-450.1119 713,-402 713,-402 713,-402 713,-346 713,-313.7 714.2622,-276.1791 715.1492,-253.8005"/>
<polygon fill="#191970" stroke="#191970" points="718.6553,-253.7217 715.5702,-243.5861 711.6613,-253.4334 718.6553,-253.7217"/>
</g>
<!-- Node21 -->
<g id="node22" class="node">
<title>Node21</title>
<polygon fill="#ffffff" stroke="#bfbfbf" points="492.5,-448.5 492.5,-467.5 537.5,-467.5 537.5,-448.5 492.5,-448.5"/>
<text text-anchor="middle" x="515" y="-455.5" font-family="Helvetica,sans-Serif" font-size="10.00" fill="#000000">msg.h</text>
</g>
<!-- Node4&#45;&gt;Node21 -->
<g id="edge32" class="edge">
<title>Node4&#45;&gt;Node21</title>
<path fill="none" stroke="#191970" d="M472.8835,-504.2455C480.1966,-496.2155 490.7391,-484.6394 499.4467,-475.0781"/>
<polygon fill="#191970" stroke="#191970" points="502.0727,-477.3928 506.2183,-467.6427 496.8972,-472.6795 502.0727,-477.3928"/>
</g>
<!-- Node22 -->
<g id="node23" class="node">
<title>Node22</title>
<g id="a_node23"><a xlink:href="mutex_8h.html" target="_top" xlink:title="Mutex for thread synchronization. ">
<polygon fill="#ffffff" stroke="#000000" points="407,-392.5 407,-411.5 463,-411.5 463,-392.5 407,-392.5"/>
<text text-anchor="middle" x="435" y="-399.5" font-family="Helvetica,sans-Serif" font-size="10.00" fill="#000000">mutex.h</text>
</a>
</g>
</g>
<!-- Node4&#45;&gt;Node22 -->
<g id="edge33" class="edge">
<title>Node4&#45;&gt;Node22</title>
<path fill="none" stroke="#191970" d="M461.5275,-504.4509C456.7762,-486.1013 446.2869,-445.5908 440.0153,-421.3693"/>
<polygon fill="#191970" stroke="#191970" points="443.3612,-420.3283 437.4663,-411.5249 436.5847,-422.083 443.3612,-420.3283"/>
</g>
<!-- Node30 -->
<g id="node31" class="node">
<title>Node30</title>
<g id="a_node31"><a xlink:href="rmutex_8h.html" target="_top" xlink:title="Recursive Mutex for thread synchronization. ">
<polygon fill="#ffffff" stroke="#000000" points="376,-448.5 376,-467.5 436,-467.5 436,-448.5 376,-448.5"/>
<text text-anchor="middle" x="406" y="-455.5" font-family="Helvetica,sans-Serif" font-size="10.00" fill="#000000">rmutex.h</text>
</a>
</g>
</g>
<!-- Node4&#45;&gt;Node30 -->
<g id="edge53" class="edge">
<title>Node4&#45;&gt;Node30</title>
<path fill="none" stroke="#191970" d="M453.8972,-504.2455C445.4972,-496.1352 433.3506,-484.4075 423.3916,-474.7919"/>
<polygon fill="#191970" stroke="#191970" points="425.6122,-472.0707 415.9871,-467.6427 420.75,-477.1066 425.6122,-472.0707"/>
</g>
<!-- Node6 -->
<g id="node7" class="node">
<title>Node6</title>
<g id="a_node7"><a xlink:href="list_8h.html" target="_top" xlink:title="Intrusive linked list. ">
<polygon fill="#ffffff" stroke="#000000" points="124,-112.5 124,-131.5 162,-131.5 162,-112.5 124,-112.5"/>
<text text-anchor="middle" x="143" y="-119.5" font-family="Helvetica,sans-Serif" font-size="10.00" fill="#000000">list.h</text>
</a>
</g>
</g>
<!-- Node5&#45;&gt;Node6 -->
<g id="edge7" class="edge">
<title>Node5&#45;&gt;Node6</title>
<path fill="none" stroke="#191970" d="M195.6367,-336.375C187.2979,-302.4133 159.1433,-187.7472 147.7976,-141.5392"/>
<polygon fill="#191970" stroke="#191970" points="151.1381,-140.4661 145.3545,-131.5891 144.34,-142.1353 151.1381,-140.4661"/>
</g>
<!-- Node7 -->
<g id="node8" class="node">
<title>Node7</title>
<g id="a_node8"><a xlink:href="cib_8h.html" target="_top" xlink:title="Circular integer buffer interface. ">
<polygon fill="#ffffff" stroke="#000000" points="209,-280.5 209,-299.5 247,-299.5 247,-280.5 209,-280.5"/>
<text text-anchor="middle" x="228" y="-287.5" font-family="Helvetica,sans-Serif" font-size="10.00" fill="#000000">cib.h</text>
</a>
</g>
</g>
<!-- Node5&#45;&gt;Node7 -->
<g id="edge8" class="edge">
<title>Node5&#45;&gt;Node7</title>
<path fill="none" stroke="#191970" d="M203.2256,-336.2455C207.3123,-328.617 213.1135,-317.7881 218.075,-308.5267"/>
<polygon fill="#191970" stroke="#191970" points="221.1972,-310.1103 222.8343,-299.6427 215.0268,-306.8047 221.1972,-310.1103"/>
</g>
<!-- Node9 -->
<g id="node10" class="node">
<title>Node9</title>
<g id="a_node10"><a xlink:href="core_2include_2msg_8h.html" target="_top" xlink:title="Messaging API for inter process communication. ">
<polygon fill="#ffffff" stroke="#000000" points="463.5,-280.5 463.5,-299.5 508.5,-299.5 508.5,-280.5 463.5,-280.5"/>
<text text-anchor="middle" x="486" y="-287.5" font-family="Helvetica,sans-Serif" font-size="10.00" fill="#000000">msg.h</text>
</a>
</g>
</g>
<!-- Node5&#45;&gt;Node9 -->
<g id="edge11" class="edge">
<title>Node5&#45;&gt;Node9</title>
<path fill="none" stroke="#191970" d="M224.066,-340.9316C276.728,-330.6918 395.6859,-307.5611 453.3882,-296.3412"/>
<polygon fill="#191970" stroke="#191970" points="454.2718,-299.735 463.4199,-294.3906 452.9357,-292.8637 454.2718,-299.735"/>
</g>
<!-- Node8 -->
<g id="node9" class="node">
<title>Node8</title>
<g id="a_node9"><a xlink:href="assert_8h.html" target="_top" xlink:title="POSIX.1&#45;2008 compliant version of the assert macro. ">
<polygon fill="#ffffff" stroke="#000000" points="218,-56.5 218,-75.5 272,-75.5 272,-56.5 218,-56.5"/>
<text text-anchor="middle" x="245" y="-63.5" font-family="Helvetica,sans-Serif" font-size="10.00" fill="#000000">assert.h</text>
</a>
</g>
</g>
<!-- Node7&#45;&gt;Node8 -->
<g id="edge9" class="edge">
<title>Node7&#45;&gt;Node8</title>
<path fill="none" stroke="#191970" d="M228.7305,-280.375C231.3025,-246.4851 239.9735,-132.2317 243.4948,-85.8332"/>
<polygon fill="#191970" stroke="#191970" points="247.0054,-85.8254 244.2723,-75.5891 240.0254,-85.2956 247.0054,-85.8254"/>
</g>
<!-- Node8&#45;&gt;Node3 -->
<g id="edge10" class="edge">
<title>Node8&#45;&gt;Node3</title>
<path fill="none" stroke="#191970" d="M272.3093,-59.1674C276.8731,-58.0749 281.5648,-56.982 286,-56 354.7083,-40.7871 435.4309,-25.2398 480.9646,-16.6826"/>
<polygon fill="#191970" stroke="#191970" points="481.7576,-20.095 490.9422,-14.8136 480.4688,-13.2147 481.7576,-20.095"/>
</g>
<!-- Node9&#45;&gt;Node3 -->
<g id="edge12" class="edge">
<title>Node9&#45;&gt;Node3</title>
<path fill="none" stroke="#191970" d="M463.2779,-286.0626C422.238,-278.6082 337.7966,-261.5981 314,-244 237.0513,-187.0947 146.5245,-128.4991 209,-56 226.5493,-35.635 402.7461,-19.1477 480.48,-12.8055"/>
<polygon fill="#191970" stroke="#191970" points="481.081,-16.2686 490.7684,-11.9786 480.5201,-9.2911 481.081,-16.2686"/>
</g>
<!-- Node10 -->
<g id="node11" class="node">
<title>Node10</title>
<polygon fill="#ffffff" stroke="#bfbfbf" points="869,-112.5 869,-131.5 929,-131.5 929,-112.5 869,-112.5"/>
<text text-anchor="middle" x="899" y="-119.5" font-family="Helvetica,sans-Serif" font-size="10.00" fill="#000000">stdbool.h</text>
</g>
<!-- Node9&#45;&gt;Node10 -->
<g id="edge13" class="edge">
<title>Node9&#45;&gt;Node10</title>
<path fill="none" stroke="#191970" d="M503.4774,-280.4085C554.6125,-252.3668 701.0277,-172.2318 712,-168 760.8995,-149.1406 820.0317,-136.1296 858.5286,-128.8762"/>
<polygon fill="#191970" stroke="#191970" points="859.6127,-132.2355 868.8139,-126.9829 858.3455,-125.3511 859.6127,-132.2355"/>
</g>
<!-- Node9&#45;&gt;Node11 -->
<g id="edge14" class="edge">
<title>Node9&#45;&gt;Node11</title>
<path fill="none" stroke="#191970" d="M508.6686,-283.7526C513.3974,-282.4833 518.3559,-281.1772 523,-280 590.296,-262.9412 607.4982,-260.2254 675,-244 676.4248,-243.6575 677.8771,-243.3075 679.3441,-242.9533"/>
<polygon fill="#191970" stroke="#191970" points="680.2061,-246.3458 689.1,-240.5882 678.5568,-239.5428 680.2061,-246.3458"/>
</g>
<!-- Node12 -->
<g id="node13" class="node">
<title>Node12</title>
<polygon fill="#ffffff" stroke="#bfbfbf" points="1109,-.5 1109,-19.5 1165,-19.5 1165,-.5 1109,-.5"/>
<text text-anchor="middle" x="1137" y="-7.5" font-family="Helvetica,sans-Serif" font-size="10.00" fill="#000000">stddef.h</text>
</g>
<!-- Node11&#45;&gt;Node12 -->
<g id="edge15" class="edge">
<title>Node11&#45;&gt;Node12</title>
<path fill="none" stroke="#191970" d="M742.6396,-226.1737C745.78,-225.3779 748.9511,-224.6316 752,-224 866.2327,-200.336 899.162,-217.6085 1012,-188 1044.81,-179.3907 1132.2892,-158.0626 1154,-132 1175.8446,-105.7769 1174.2151,-88.8622 1165,-56 1162.2122,-46.0584 1156.6188,-36.1336 1151.1593,-28.0613"/>
<polygon fill="#191970" stroke="#191970" points="1153.9048,-25.8849 1145.2089,-19.8323 1148.2324,-29.9866 1153.9048,-25.8849"/>
</g>
<!-- Node13 -->
<g id="node14" class="node">
<title>Node13</title>
<g id="a_node14"><a xlink:href="inttypes_8h.html" target="_top" xlink:title="Adds include for missing inttype definitions. ">
<polygon fill="#ffffff" stroke="#000000" points="488.5,-168.5 488.5,-187.5 551.5,-187.5 551.5,-168.5 488.5,-168.5"/>
<text text-anchor="middle" x="520" y="-175.5" font-family="Helvetica,sans-Serif" font-size="10.00" fill="#000000">inttypes.h</text>
</a>
</g>
</g>
<!-- Node11&#45;&gt;Node13 -->
<g id="edge16" class="edge">
<title>Node11&#45;&gt;Node13</title>
<path fill="none" stroke="#191970" d="M689.158,-226.3309C656.2431,-216.9266 600.0929,-200.8837 561.5773,-189.8792"/>
<polygon fill="#191970" stroke="#191970" points="562.2803,-186.4401 551.7035,-187.0581 560.3572,-193.1708 562.2803,-186.4401"/>
</g>
<!-- Node14 -->
<g id="node15" class="node">
<title>Node14</title>
<g id="a_node15"><a xlink:href="kernel__defines_8h.html" target="_top" xlink:title="Common macros and compiler attributes/pragmas configuration. ">
<polygon fill="#ffffff" stroke="#000000" points="569.5,-168.5 569.5,-187.5 664.5,-187.5 664.5,-168.5 569.5,-168.5"/>
<text text-anchor="middle" x="617" y="-175.5" font-family="Helvetica,sans-Serif" font-size="10.00" fill="#000000">kernel_defines.h</text>
</a>
</g>
</g>
<!-- Node11&#45;&gt;Node14 -->
<g id="edge17" class="edge">
<title>Node11&#45;&gt;Node14</title>
<path fill="none" stroke="#191970" d="M698.7555,-224.2455C683.4239,-215.5731 660.7801,-202.7645 643.2084,-192.825"/>
<polygon fill="#191970" stroke="#191970" points="644.4741,-189.5198 634.0469,-187.6427 641.0276,-195.6126 644.4741,-189.5198"/>
</g>
<!-- Node19 -->
<g id="node20" class="node">
<title>Node19</title>
<g id="a_node20"><a xlink:href="native__sched_8h.html" target="_top" xlink:title="Add definitions required on the native board. ">
<polygon fill="#ffffff" stroke="#000000" points="721,-168.5 721,-187.5 807,-187.5 807,-168.5 721,-168.5"/>
<text text-anchor="middle" x="764" y="-175.5" font-family="Helvetica,sans-Serif" font-size="10.00" fill="#000000">native_sched.h</text>
</a>
</g>
</g>
<!-- Node11&#45;&gt;Node19 -->
<g id="edge27" class="edge">
<title>Node11&#45;&gt;Node19</title>
<path fill="none" stroke="#191970" d="M724.361,-224.2455C731.175,-216.2958 740.9681,-204.8706 749.1152,-195.3656"/>
<polygon fill="#191970" stroke="#191970" points="751.8843,-197.513 755.7349,-187.6427 746.5695,-192.9575 751.8843,-197.513"/>
</g>
<!-- Node20 -->
<g id="node21" class="node">
<title>Node20</title>
<g id="a_node21"><a xlink:href="clist_8h.html" target="_top" xlink:title="Circular linked list. ">
<polygon fill="#ffffff" stroke="#000000" points="825.5,-168.5 825.5,-187.5 868.5,-187.5 868.5,-168.5 825.5,-168.5"/>
<text text-anchor="middle" x="847" y="-175.5" font-family="Helvetica,sans-Serif" font-size="10.00" fill="#000000">clist.h</text>
</a>
</g>
</g>
<!-- Node11&#45;&gt;Node20 -->
<g id="edge28" class="edge">
<title>Node11&#45;&gt;Node20</title>
<path fill="none" stroke="#191970" d="M738.5197,-224.3733C759.8658,-215.2482 792.1158,-201.462 815.9077,-191.2913"/>
<polygon fill="#191970" stroke="#191970" points="817.3901,-194.4641 825.2095,-187.315 814.6386,-188.0275 817.3901,-194.4641"/>
</g>
<!-- Node15 -->
<g id="node16" class="node">
<title>Node15</title>
<g id="a_node16"><a xlink:href="modules_8h.html" target="_top" xlink:title="Common macros and compiler attributes/pragmas configuration. ">
<polygon fill="#ffffff" stroke="#000000" points="584.5,-112.5 584.5,-131.5 649.5,-131.5 649.5,-112.5 584.5,-112.5"/>
<text text-anchor="middle" x="617" y="-119.5" font-family="Helvetica,sans-Serif" font-size="10.00" fill="#000000">modules.h</text>
</a>
</g>
</g>
<!-- Node14&#45;&gt;Node15 -->
<g id="edge18" class="edge">
<title>Node14&#45;&gt;Node15</title>
<path fill="none" stroke="#191970" d="M617,-168.2455C617,-160.9382 617,-150.6944 617,-141.7046"/>
<polygon fill="#191970" stroke="#191970" points="620.5001,-141.6426 617,-131.6427 613.5001,-141.6427 620.5001,-141.6426"/>
</g>
<!-- Node16 -->
<g id="node17" class="node">
<title>Node16</title>
<g id="a_node17"><a xlink:href="riot__version_8h.html" target="_top" xlink:title="Common macros and compiler attributes/pragmas configuration. ">
<polygon fill="#ffffff" stroke="#000000" points="512.5,-56.5 512.5,-75.5 593.5,-75.5 593.5,-56.5 512.5,-56.5"/>
<text text-anchor="middle" x="553" y="-63.5" font-family="Helvetica,sans-Serif" font-size="10.00" fill="#000000">riot_version.h</text>
</a>
</g>
</g>
<!-- Node14&#45;&gt;Node16 -->
<g id="edge19" class="edge">
<title>Node14&#45;&gt;Node16</title>
<path fill="none" stroke="#191970" d="M605.9574,-168.4114C596.5682,-159.7342 583.322,-146.1753 575,-132 566.5079,-117.535 560.7552,-99.3412 557.2687,-85.7209"/>
<polygon fill="#191970" stroke="#191970" points="560.6617,-84.86 554.9495,-75.937 553.8505,-86.4746 560.6617,-84.86"/>
</g>
<!-- Node17 -->
<g id="node18" class="node">
<title>Node17</title>
<g id="a_node18"><a xlink:href="compiler__hints_8h.html" target="_top" xlink:title="Common macros and compiler attributes/pragmas configuration. ">
<polygon fill="#ffffff" stroke="#000000" points="434.5,-112.5 434.5,-131.5 527.5,-131.5 527.5,-112.5 434.5,-112.5"/>
<text text-anchor="middle" x="481" y="-119.5" font-family="Helvetica,sans-Serif" font-size="10.00" fill="#000000">compiler_hints.h</text>
</a>
</g>
</g>
<!-- Node14&#45;&gt;Node17 -->
<g id="edge21" class="edge">
<title>Node14&#45;&gt;Node17</title>
<path fill="none" stroke="#191970" d="M593.6208,-168.3733C571.4955,-159.2629 538.0866,-145.5062 513.3981,-135.3404"/>
<polygon fill="#191970" stroke="#191970" points="514.6536,-132.0723 504.0742,-131.5011 511.9883,-138.5451 514.6536,-132.0723"/>
</g>
<!-- Node18 -->
<g id="node19" class="node">
<title>Node18</title>
<g id="a_node19"><a xlink:href="container_8h.html" target="_top" xlink:title="Common macros and compiler attributes/pragmas configuration. ">
<polygon fill="#ffffff" stroke="#000000" points="643.5,-56.5 643.5,-75.5 712.5,-75.5 712.5,-56.5 643.5,-56.5"/>
<text text-anchor="middle" x="678" y="-63.5" font-family="Helvetica,sans-Serif" font-size="10.00" fill="#000000">container.h</text>
</a>
</g>
</g>
<!-- Node14&#45;&gt;Node18 -->
<g id="edge24" class="edge">
<title>Node14&#45;&gt;Node18</title>
<path fill="none" stroke="#191970" d="M627.8638,-168.415C637.0833,-159.7402 650.0461,-146.1827 658,-132 666.0527,-117.6412 671.2248,-99.6668 674.2875,-86.103"/>
<polygon fill="#191970" stroke="#191970" points="677.7949,-86.4231 676.3811,-75.9231 670.9384,-85.013 677.7949,-86.4231"/>
</g>
<!-- Node16&#45;&gt;Node3 -->
<g id="edge20" class="edge">
<title>Node16&#45;&gt;Node3</title>
<path fill="none" stroke="#191970" d="M546.7293,-56.2455C541.7736,-48.5367 534.717,-37.5598 528.7224,-28.2348"/>
<polygon fill="#191970" stroke="#191970" points="531.5506,-26.1618 523.1989,-19.6427 525.6624,-29.9471 531.5506,-26.1618"/>
</g>
<!-- Node17&#45;&gt;Node3 -->
<g id="edge23" class="edge">
<title>Node17&#45;&gt;Node3</title>
<path fill="none" stroke="#191970" d="M484.0693,-112.4509C489.9674,-94.1013 502.9887,-53.5908 510.7741,-29.3693"/>
<polygon fill="#191970" stroke="#191970" points="514.2104,-30.1162 513.9384,-19.5249 507.5462,-27.9741 514.2104,-30.1162"/>
</g>
<!-- Node17&#45;&gt;Node8 -->
<g id="edge22" class="edge">
<title>Node17&#45;&gt;Node8</title>
<path fill="none" stroke="#191970" d="M440.6983,-112.4369C396.2127,-101.881 325.2052,-85.0317 282.0604,-74.794"/>
<polygon fill="#191970" stroke="#191970" points="282.787,-71.3693 272.2491,-72.4659 281.1708,-78.1802 282.787,-71.3693"/>
</g>
<!-- Node18&#45;&gt;Node3 -->
<g id="edge26" class="edge">
<title>Node18&#45;&gt;Node3</title>
<path fill="none" stroke="#191970" d="M650.3231,-56.3733C623.3441,-46.9892 582.1926,-32.6757 552.7487,-22.4343"/>
<polygon fill="#191970" stroke="#191970" points="553.8444,-19.1098 543.2496,-19.1303 551.5447,-25.7213 553.8444,-19.1098"/>
</g>
<!-- Node18&#45;&gt;Node12 -->
<g id="edge25" class="edge">
<title>Node18&#45;&gt;Node12</title>
<path fill="none" stroke="#191970" d="M712.8763,-61.7449C797.1103,-51.468 1011.1459,-25.3548 1098.7417,-14.6677"/>
<polygon fill="#191970" stroke="#191970" points="1099.2776,-18.1283 1108.7801,-13.4429 1098.4298,-11.1799 1099.2776,-18.1283"/>
</g>
<!-- Node20&#45;&gt;Node6 -->
<g id="edge31" class="edge">
<title>Node20&#45;&gt;Node6</title>
<path fill="none" stroke="#191970" d="M825.4953,-170.3221C822.3424,-169.4137 819.1097,-168.5985 816,-168 689.8181,-143.714 285.4496,-127.2636 172.5333,-123.0605"/>
<polygon fill="#191970" stroke="#191970" points="172.3657,-119.552 162.2436,-122.6815 172.108,-126.5473 172.3657,-119.552"/>
</g>
<!-- Node20&#45;&gt;Node10 -->
<g id="edge29" class="edge">
<title>Node20&#45;&gt;Node10</title>
<path fill="none" stroke="#191970" d="M856.0577,-168.2455C863.5142,-160.2155 874.2634,-148.6394 883.1417,-139.0781"/>
<polygon fill="#191970" stroke="#191970" points="885.8063,-141.3522 890.0461,-131.6427 880.6768,-136.589 885.8063,-141.3522"/>
</g>
<!-- Node20&#45;&gt;Node12 -->
<g id="edge30" class="edge">
<title>Node20&#45;&gt;Node12</title>
<path fill="none" stroke="#191970" d="M846.1499,-168.2318C845.473,-154.1254 846.3579,-127.9933 860,-112 921.336,-40.0928 1038.0602,-18.8539 1098.534,-12.5985"/>
<polygon fill="#191970" stroke="#191970" points="1099.1691,-16.0541 1108.7943,-11.6261 1098.5086,-9.0853 1099.1691,-16.0541"/>
</g>
<!-- Node22&#45;&gt;Node3 -->
<g id="edge35" class="edge">
<title>Node22&#45;&gt;Node3</title>
<path fill="none" stroke="#191970" d="M406.7798,-400.3263C340.5363,-395.9912 177.1233,-382.8172 130,-356 97.06,-337.2543 76,-327.9005 76,-290 76,-290 76,-290 76,-122 76,-38.7564 374.9112,-16.6658 480.5536,-11.4579"/>
<polygon fill="#191970" stroke="#191970" points="480.9096,-14.9451 490.7341,-10.9792 480.5808,-7.9528 480.9096,-14.9451"/>
</g>
<!-- Node22&#45;&gt;Node6 -->
<g id="edge43" class="edge">
<title>Node22&#45;&gt;Node6</title>
<path fill="none" stroke="#191970" d="M406.5937,-399.8776C345.4524,-394.8851 203.6294,-380.9015 163,-356 131.8511,-336.909 114,-326.5338 114,-290 114,-290 114,-290 114,-234 114,-200.5134 126.2995,-163.1413 134.8785,-141.1469"/>
<polygon fill="#191970" stroke="#191970" points="138.2072,-142.2517 138.721,-131.6693 131.7201,-139.6216 138.2072,-142.2517"/>
</g>
<!-- Node22&#45;&gt;Node10 -->
<g id="edge36" class="edge">
<title>Node22&#45;&gt;Node10</title>
<path fill="none" stroke="#191970" d="M463.0216,-399.1397C548.4386,-389.8491 803.1194,-357.7342 859,-300 901.1392,-256.463 902.6366,-178.5993 900.7016,-142.021"/>
<polygon fill="#191970" stroke="#191970" points="904.1697,-141.4312 899.9999,-131.6914 897.1858,-141.9056 904.1697,-141.4312"/>
</g>
<!-- Node22&#45;&gt;Node12 -->
<g id="edge34" class="edge">
<title>Node22&#45;&gt;Node12</title>
<path fill="none" stroke="#191970" d="M463.0765,-400.2005C561.2286,-393.0042 896.3611,-360.7659 1142,-244 1187.1733,-222.5266 1234.307,-217.1437 1225,-168 1215.0484,-115.4528 1209.8042,-101.0618 1181,-56 1174.0733,-45.1638 1164.3515,-34.6736 1155.8073,-26.4542"/>
<polygon fill="#191970" stroke="#191970" points="1158.1208,-23.8264 1148.4056,-19.5994 1153.3644,-28.9622 1158.1208,-23.8264"/>
</g>
<!-- Node22&#45;&gt;Node14 -->
<g id="edge42" class="edge">
<title>Node22&#45;&gt;Node14</title>
<path fill="none" stroke="#191970" d="M433.9412,-392.178C432.0762,-370.1203 430.3952,-315.7883 454,-280 483.5267,-235.2332 540.1822,-206.485 578.292,-191.2796"/>
<polygon fill="#191970" stroke="#191970" points="579.9594,-194.388 588.0317,-187.5259 577.442,-187.8562 579.9594,-194.388"/>
</g>
<!-- Node23 -->
<g id="node24" class="node">
<title>Node23</title>
<g id="a_node24"><a xlink:href="architecture_8h.html" target="_top" xlink:title="Platform&#45;independent access to architecture details. ">
<polygon fill="#ffffff" stroke="#000000" points="323.5,-224.5 323.5,-243.5 406.5,-243.5 406.5,-224.5 323.5,-224.5"/>
<text text-anchor="middle" x="365" y="-231.5" font-family="Helvetica,sans-Serif" font-size="10.00" fill="#000000">architecture.h</text>
</a>
</g>
</g>
<!-- Node22&#45;&gt;Node23 -->
<g id="edge37" class="edge">
<title>Node22&#45;&gt;Node23</title>
<path fill="none" stroke="#191970" d="M431.0359,-392.4862C419.8748,-365.6994 388.0235,-289.2565 373.012,-253.2289"/>
<polygon fill="#191970" stroke="#191970" points="376.1719,-251.7125 369.095,-243.8279 369.7104,-254.4048 376.1719,-251.7125"/>
</g>
<!-- Node26 -->
<g id="node27" class="node">
<title>Node26</title>
<g id="a_node27"><a xlink:href="core_2include_2thread_8h.html" target="_top" xlink:title="Threading API. ">
<polygon fill="#ffffff" stroke="#000000" points="577.5,-336.5 577.5,-355.5 634.5,-355.5 634.5,-336.5 577.5,-336.5"/>
<text text-anchor="middle" x="606" y="-343.5" font-family="Helvetica,sans-Serif" font-size="10.00" fill="#000000">thread.h</text>
</a>
</g>
</g>
<!-- Node22&#45;&gt;Node26 -->
<g id="edge44" class="edge">
<title>Node22&#45;&gt;Node26</title>
<path fill="none" stroke="#191970" d="M463.2372,-392.7527C491.741,-383.4181 535.9593,-368.9373 567.6297,-358.5657"/>
<polygon fill="#191970" stroke="#191970" points="569.0215,-361.7929 577.4356,-355.3544 566.8429,-355.1405 569.0215,-361.7929"/>
</g>
<!-- Node23&#45;&gt;Node3 -->
<g id="edge38" class="edge">
<title>Node23&#45;&gt;Node3</title>
<path fill="none" stroke="#191970" d="M335.5652,-224.4696C307.4641,-213.6072 271.2795,-193.9442 285,-168 326.714,-89.1223 427.4428,-42.2493 481.4259,-21.9505"/>
<polygon fill="#191970" stroke="#191970" points="482.7502,-25.193 490.937,-18.4679 480.3432,-18.6198 482.7502,-25.193"/>
</g>
<!-- Node23&#45;&gt;Node13 -->
<g id="edge39" class="edge">
<title>Node23&#45;&gt;Node13</title>
<path fill="none" stroke="#191970" d="M391.6454,-224.3733C417.1964,-215.1419 455.9512,-201.1402 484.1909,-190.9375"/>
<polygon fill="#191970" stroke="#191970" points="485.4865,-194.1909 493.7022,-187.5011 483.1079,-187.6074 485.4865,-194.1909"/>
</g>
<!-- Node24 -->
<g id="node25" class="node">
<title>Node24</title>
<polygon fill="#ffffff" stroke="#bfbfbf" points="420,-168.5 420,-187.5 470,-187.5 470,-168.5 420,-168.5"/>
<text text-anchor="middle" x="445" y="-175.5" font-family="Helvetica,sans-Serif" font-size="10.00" fill="#000000">limits.h</text>
</g>
<!-- Node23&#45;&gt;Node24 -->
<g id="edge40" class="edge">
<title>Node23&#45;&gt;Node24</title>
<path fill="none" stroke="#191970" d="M378.9349,-224.2455C391.0947,-215.7337 408.9464,-203.2375 423.0285,-193.3801"/>
<polygon fill="#191970" stroke="#191970" points="425.0395,-196.2447 431.2248,-187.6427 421.0253,-190.51 425.0395,-196.2447"/>
</g>
<!-- Node25 -->
<g id="node26" class="node">
<title>Node25</title>
<polygon fill="#ffffff" stroke="#bfbfbf" points="294.5,-168.5 294.5,-187.5 401.5,-187.5 401.5,-168.5 294.5,-168.5"/>
<text text-anchor="middle" x="348" y="-175.5" font-family="Helvetica,sans-Serif" font-size="10.00" fill="#000000">architecture_arch.h</text>
</g>
<!-- Node23&#45;&gt;Node25 -->
<g id="edge41" class="edge">
<title>Node23&#45;&gt;Node25</title>
<path fill="none" stroke="#191970" d="M362.0388,-224.2455C359.7962,-216.8579 356.6423,-206.4689 353.8919,-197.4087"/>
<polygon fill="#191970" stroke="#191970" points="357.1812,-196.1948 350.9272,-187.6427 350.483,-198.2282 357.1812,-196.1948"/>
</g>
<!-- Node26&#45;&gt;Node7 -->
<g id="edge46" class="edge">
<title>Node26&#45;&gt;Node7</title>
<path fill="none" stroke="#191970" d="M577.2783,-341.7449C507.1392,-331.354 327.7188,-304.7731 257.1436,-294.3176"/>
<polygon fill="#191970" stroke="#191970" points="257.5698,-290.8426 247.1648,-292.8392 256.5439,-297.767 257.5698,-290.8426"/>
</g>
<!-- Node26&#45;&gt;Node9 -->
<g id="edge47" class="edge">
<title>Node26&#45;&gt;Node9</title>
<path fill="none" stroke="#191970" d="M585.3713,-336.3733C566.1081,-327.3838 537.1514,-313.8706 515.4581,-303.7471"/>
<polygon fill="#191970" stroke="#191970" points="516.9015,-300.5584 506.3595,-299.5011 513.9413,-306.9017 516.9015,-300.5584"/>
</g>
<!-- Node26&#45;&gt;Node11 -->
<g id="edge48" class="edge">
<title>Node26&#45;&gt;Node11</title>
<path fill="none" stroke="#191970" d="M616.9893,-336.4003C627.2983,-327.2768 643.0274,-313.0499 656,-300 671.912,-283.9932 689.1541,-264.8194 701.0539,-251.2733"/>
<polygon fill="#191970" stroke="#191970" points="703.7736,-253.48 707.7132,-243.6448 698.5002,-248.8765 703.7736,-253.48"/>
</g>
<!-- Node26&#45;&gt;Node20 -->
<g id="edge45" class="edge">
<title>Node26&#45;&gt;Node20</title>
<path fill="none" stroke="#191970" d="M634.9153,-340.5514C697.1423,-328.7948 838.3038,-301.9456 840,-300 864.6411,-271.7346 858.5932,-224.3432 852.4872,-197.71"/>
<polygon fill="#191970" stroke="#191970" points="855.7972,-196.5222 849.9561,-187.683 849.0101,-198.2355 855.7972,-196.5222"/>
</g>
<!-- Node27 -->
<g id="node28" class="node">
<title>Node27</title>
<g id="a_node28"><a xlink:href="thread__config_8h.html" target="_top" xlink:title="Thread configuration defines. ">
<polygon fill="#ffffff" stroke="#000000" points="741,-280.5 741,-299.5 831,-299.5 831,-280.5 741,-280.5"/>
<text text-anchor="middle" x="786" y="-287.5" font-family="Helvetica,sans-Serif" font-size="10.00" fill="#000000">thread_config.h</text>
</a>
</g>
</g>
<!-- Node26&#45;&gt;Node27 -->
<g id="edge49" class="edge">
<title>Node26&#45;&gt;Node27</title>
<path fill="none" stroke="#191970" d="M634.5215,-337.1266C664.4762,-327.8074 711.8353,-313.0735 745.6219,-302.5621"/>
<polygon fill="#191970" stroke="#191970" points="746.6919,-305.8947 755.2008,-299.582 744.6124,-299.2107 746.6919,-305.8947"/>
</g>
<!-- Node29 -->
<g id="node30" class="node">
<title>Node29</title>
<polygon fill="#ffffff" stroke="#bfbfbf" points="565,-280.5 565,-299.5 647,-299.5 647,-280.5 565,-280.5"/>
<text text-anchor="middle" x="606" y="-287.5" font-family="Helvetica,sans-Serif" font-size="10.00" fill="#000000">thread_arch.h</text>
</g>
<!-- Node26&#45;&gt;Node29 -->
<g id="edge52" class="edge">
<title>Node26&#45;&gt;Node29</title>
<path fill="none" stroke="#191970" d="M606,-336.2455C606,-328.9382 606,-318.6944 606,-309.7046"/>
<polygon fill="#191970" stroke="#191970" points="609.5001,-309.6426 606,-299.6427 602.5001,-309.6427 609.5001,-309.6426"/>
</g>
<!-- Node27&#45;&gt;Node11 -->
<g id="edge51" class="edge">
<title>Node27&#45;&gt;Node11</title>
<path fill="none" stroke="#191970" d="M773.8069,-280.2455C763.3679,-271.8943 748.1345,-259.7076 735.926,-249.9408"/>
<polygon fill="#191970" stroke="#191970" points="738.0485,-247.1566 728.0533,-243.6427 733.6756,-252.6227 738.0485,-247.1566"/>
</g>
<!-- Node28 -->
<g id="node29" class="node">
<title>Node28</title>
<polygon fill="#ffffff" stroke="#bfbfbf" points="760.5,-224.5 760.5,-243.5 827.5,-243.5 827.5,-224.5 760.5,-224.5"/>
<text text-anchor="middle" x="794" y="-231.5" font-family="Helvetica,sans-Serif" font-size="10.00" fill="#000000">cpu_conf.h</text>
</g>
<!-- Node27&#45;&gt;Node28 -->
<g id="edge50" class="edge">
<title>Node27&#45;&gt;Node28</title>
<path fill="none" stroke="#191970" d="M787.3935,-280.2455C788.4374,-272.9382 789.9008,-262.6944 791.1851,-253.7046"/>
<polygon fill="#191970" stroke="#191970" points="794.673,-254.0372 792.6225,-243.6427 787.7434,-253.0472 794.673,-254.0372"/>
</g>
<!-- Node30&#45;&gt;Node3 -->
<g id="edge54" class="edge">
<title>Node30&#45;&gt;Node3</title>
<path fill="none" stroke="#191970" d="M375.8026,-453.6302C317.362,-444.0411 186.5055,-416.9609 95,-356 62.744,-334.5111 38,-328.7585 38,-290 38,-290 38,-290 38,-122 38,-78.5898 70.4919,-73.9877 110,-56 175.7763,-26.0526 393.7028,-14.6612 480.6849,-11.2391"/>
<polygon fill="#191970" stroke="#191970" points="481.0052,-14.7296 490.8648,-10.8518 480.7389,-7.7346 481.0052,-14.7296"/>
</g>
<!-- Node30&#45;&gt;Node11 -->
<g id="edge56" class="edge">
<title>Node30&#45;&gt;Node11</title>
<path fill="none" stroke="#191970" d="M423.4031,-448.4816C437.6015,-440.1394 457.5967,-427.0207 472,-412 520.1286,-361.8084 500.3073,-321.6398 556,-280 592.397,-252.787 644.4422,-241.6494 679.1831,-237.106"/>
<polygon fill="#191970" stroke="#191970" points="679.8547,-240.5509 689.3728,-235.8971 679.03,-233.5997 679.8547,-240.5509"/>
</g>
<!-- Node30&#45;&gt;Node22 -->
<g id="edge55" class="edge">
<title>Node30&#45;&gt;Node22</title>
<path fill="none" stroke="#191970" d="M411.0514,-448.2455C415.0019,-440.617 420.6097,-429.7881 425.4058,-420.5267"/>
<polygon fill="#191970" stroke="#191970" points="428.5159,-422.1321 430.0065,-411.6427 422.2999,-418.9131 428.5159,-422.1321"/>
</g>
<!-- Node33 -->
<g id="node34" class="node">
<title>Node33</title>
<g id="a_node34"><a xlink:href="drivers_2include_2net_2netdev_8h.html" target="_top" xlink:title="Definitions low&#45;level network driver interface. ">
<polygon fill="#ffffff" stroke="#000000" points="1055.5,-224.5 1055.5,-243.5 1132.5,-243.5 1132.5,-224.5 1055.5,-224.5"/>
<text text-anchor="middle" x="1094" y="-231.5" font-family="Helvetica,sans-Serif" font-size="10.00" fill="#000000">net/netdev.h</text>
</a>
</g>
</g>
<!-- Node32&#45;&gt;Node33 -->
<g id="edge60" class="edge">
<title>Node32&#45;&gt;Node33</title>
<path fill="none" stroke="#191970" d="M1163.8094,-392.4862C1152.0105,-365.6994 1118.3392,-289.2565 1102.4699,-253.2289"/>
<polygon fill="#191970" stroke="#191970" points="1105.5631,-251.5686 1098.3289,-243.8279 1099.157,-254.3903 1105.5631,-251.5686"/>
</g>
<!-- Node33&#45;&gt;Node3 -->
<g id="edge61" class="edge">
<title>Node33&#45;&gt;Node3</title>
<path fill="none" stroke="#191970" d="M1085.2783,-224.4346C1064.8593,-202.4411 1011.6797,-147.4484 959,-112 911.5033,-80.0392 897.7763,-72.6428 843,-56 741.1065,-25.0414 614.8528,-14.7803 553.6673,-11.488"/>
<polygon fill="#191970" stroke="#191970" points="553.5334,-7.9768 543.3694,-10.9673 553.1799,-14.9679 553.5334,-7.9768"/>
</g>
<!-- Node33&#45;&gt;Node14 -->
<g id="edge73" class="edge">
<title>Node33&#45;&gt;Node14</title>
<path fill="none" stroke="#191970" d="M1055.3691,-229.4647C971.7198,-219.6443 773.4398,-196.3661 674.7988,-184.7856"/>
<polygon fill="#191970" stroke="#191970" points="675.0501,-181.2912 664.7102,-183.6012 674.2339,-188.2434 675.0501,-181.2912"/>
</g>
<!-- Node34 -->
<g id="node35" class="node">
<title>Node34</title>
<g id="a_node35"><a xlink:href="errno_8h.html" target="_top" xlink:title="errno.h">
<polygon fill="#ffffff" stroke="#000000" points="1162.5,-168.5 1162.5,-187.5 1215.5,-187.5 1215.5,-168.5 1162.5,-168.5"/>
<text text-anchor="middle" x="1189" y="-175.5" font-family="Helvetica,sans-Serif" font-size="10.00" fill="#000000">errno.h</text>
</a>
</g>
</g>
<!-- Node33&#45;&gt;Node34 -->
<g id="edge62" class="edge">
<title>Node33&#45;&gt;Node34</title>
<path fill="none" stroke="#191970" d="M1110.5477,-224.2455C1125.2599,-215.5731 1146.9888,-202.7645 1163.8505,-192.825"/>
<polygon fill="#191970" stroke="#191970" points="1165.8046,-195.736 1172.6419,-187.6427 1162.2498,-189.7057 1165.8046,-195.736"/>
</g>
<!-- Node35 -->
<g id="node36" class="node">
<title>Node35</title>
<g id="a_node36"><a xlink:href="iolist_8h.html" target="_top" xlink:title="iolist scatter / gather IO ">
<polygon fill="#ffffff" stroke="#000000" points="1097.5,-168.5 1097.5,-187.5 1144.5,-187.5 1144.5,-168.5 1097.5,-168.5"/>
<text text-anchor="middle" x="1121" y="-175.5" font-family="Helvetica,sans-Serif" font-size="10.00" fill="#000000">iolist.h</text>
</a>
</g>
</g>
<!-- Node33&#45;&gt;Node35 -->
<g id="edge63" class="edge">
<title>Node33&#45;&gt;Node35</title>
<path fill="none" stroke="#191970" d="M1098.703,-224.2455C1102.3424,-216.6973 1107.4924,-206.0158 1111.9262,-196.8197"/>
<polygon fill="#191970" stroke="#191970" points="1115.1605,-198.1704 1116.3509,-187.6427 1108.8551,-195.1303 1115.1605,-198.1704"/>
</g>
<!-- Node38 -->
<g id="node39" class="node">
<title>Node38</title>
<g id="a_node39"><a xlink:href="netopt_8h.html" target="_top" xlink:title="Definition of global configuration options. ">
<polygon fill="#ffffff" stroke="#000000" points="925.5,-168.5 925.5,-187.5 1002.5,-187.5 1002.5,-168.5 925.5,-168.5"/>
<text text-anchor="middle" x="964" y="-175.5" font-family="Helvetica,sans-Serif" font-size="10.00" fill="#000000">net/netopt.h</text>
</a>
</g>
</g>
<!-- Node33&#45;&gt;Node38 -->
<g id="edge70" class="edge">
<title>Node33&#45;&gt;Node38</title>
<path fill="none" stroke="#191970" d="M1071.6522,-224.3733C1050.5967,-215.3032 1018.8505,-201.6279 995.2825,-191.4755"/>
<polygon fill="#191970" stroke="#191970" points="996.625,-188.243 986.0562,-187.5011 993.8556,-194.6719 996.625,-188.243"/>
</g>
<!-- Node36 -->
<g id="node37" class="node">
<title>Node36</title>
<g id="a_node37"><a xlink:href="unistd_8h_source.html" target="_top" xlink:title="unistd.h">
<polygon fill="#ffffff" stroke="#000000" points="1091,-112.5 1091,-131.5 1145,-131.5 1145,-112.5 1091,-112.5"/>
<text text-anchor="middle" x="1118" y="-119.5" font-family="Helvetica,sans-Serif" font-size="10.00" fill="#000000">unistd.h</text>
</a>
</g>
</g>
<!-- Node35&#45;&gt;Node36 -->
<g id="edge64" class="edge">
<title>Node35&#45;&gt;Node36</title>
<path fill="none" stroke="#191970" d="M1120.4774,-168.2455C1120.086,-160.9382 1119.5372,-150.6944 1119.0556,-141.7046"/>
<polygon fill="#191970" stroke="#191970" points="1122.5466,-141.4411 1118.5166,-131.6427 1115.5566,-141.8156 1122.5466,-141.4411"/>
</g>
<!-- Node36&#45;&gt;Node3 -->
<g id="edge66" class="edge">
<title>Node36&#45;&gt;Node3</title>
<path fill="none" stroke="#191970" d="M1102.6831,-112.3924C1078.0809,-97.4862 1027.7671,-69.1387 981,-56 900.5182,-33.3896 647.8738,-17.3208 553.2547,-11.9557"/>
<polygon fill="#191970" stroke="#191970" points="553.2181,-8.4483 543.038,-11.3834 552.8265,-15.4373 553.2181,-8.4483"/>
</g>
<!-- Node36&#45;&gt;Node12 -->
<g id="edge65" class="edge">
<title>Node36&#45;&gt;Node12</title>
<path fill="none" stroke="#191970" d="M1127.3618,-112.3788C1135.1234,-103.6808 1145.575,-90.1096 1150,-76 1154.8533,-60.5247 1150.6153,-42.4167 1145.7214,-29.0865"/>
<polygon fill="#191970" stroke="#191970" points="1148.8485,-27.4871 1141.8171,-19.5618 1142.3715,-30.1422 1148.8485,-27.4871"/>
</g>
<!-- Node37 -->
<g id="node38" class="node">
<title>Node37</title>
<g id="a_node38"><a xlink:href="cpu_2avr8__common_2avr__libc__extra_2include_2sys_2types_8h_source.html" target="_top" xlink:title="sys/types.h">
<polygon fill="#ffffff" stroke="#000000" points="1071.5,-56.5 1071.5,-75.5 1140.5,-75.5 1140.5,-56.5 1071.5,-56.5"/>
<text text-anchor="middle" x="1106" y="-63.5" font-family="Helvetica,sans-Serif" font-size="10.00" fill="#000000">sys/types.h</text>
</a>
</g>
</g>
<!-- Node36&#45;&gt;Node37 -->
<g id="edge67" class="edge">
<title>Node36&#45;&gt;Node37</title>
<path fill="none" stroke="#191970" d="M1115.9098,-112.2455C1114.3439,-104.9382 1112.1488,-94.6944 1110.2224,-85.7046"/>
<polygon fill="#191970" stroke="#191970" points="1113.584,-84.6873 1108.0663,-75.6427 1106.7393,-86.1541 1113.584,-84.6873"/>
</g>
<!-- Node37&#45;&gt;Node3 -->
<g id="edge68" class="edge">
<title>Node37&#45;&gt;Node3</title>
<path fill="none" stroke="#191970" d="M1071.2887,-58.3965C1066.5035,-57.5005 1061.6405,-56.6689 1057,-56 868.5928,-28.844 640.7214,-15.8807 553.4297,-11.6378"/>
<polygon fill="#191970" stroke="#191970" points="553.4095,-8.1329 543.2539,-11.152 553.0756,-15.125 553.4095,-8.1329"/>
</g>
<!-- Node37&#45;&gt;Node12 -->
<g id="edge69" class="edge">
<title>Node37&#45;&gt;Node12</title>
<path fill="none" stroke="#191970" d="M1111.3998,-56.2455C1115.6227,-48.617 1121.6173,-37.7881 1126.7441,-28.5267"/>
<polygon fill="#191970" stroke="#191970" points="1129.881,-30.0867 1131.6621,-19.6427 1123.7568,-26.6965 1129.881,-30.0867"/>
</g>
<!-- Node38&#45;&gt;Node3 -->
<g id="edge71" class="edge">
<title>Node38&#45;&gt;Node3</title>
<path fill="none" stroke="#191970" d="M962.9455,-168.3681C960.8438,-153.9476 954.7828,-126.8568 938,-112 880.2454,-60.8734 644.742,-26.191 553.4251,-14.426"/>
<polygon fill="#191970" stroke="#191970" points="553.6379,-10.9249 543.2765,-13.1367 552.7556,-17.8691 553.6379,-10.9249"/>
</g>
<!-- Node38&#45;&gt;Node10 -->
<g id="edge72" class="edge">
<title>Node38&#45;&gt;Node10</title>
<path fill="none" stroke="#191970" d="M952.6779,-168.2455C943.0777,-159.9746 929.1108,-147.9416 917.8305,-138.2232"/>
<polygon fill="#191970" stroke="#191970" points="920.053,-135.5182 910.1924,-131.6427 915.484,-140.8214 920.053,-135.5182"/>
</g>
</g>
</svg>
