<?xml version="1.0" encoding="UTF-8" standalone="no"?>
<!DOCTYPE svg PUBLIC "-//W3C//DTD SVG 1.1//EN"
 "http://www.w3.org/Graphics/SVG/1.1/DTD/svg11.dtd">
<!-- Generated by graphviz version 2.40.1 (0)
 -->
<!-- Title: drivers/slipdev/include/slipdev_internal.h Pages: 1 -->
<svg width="1542pt" height="543pt"
 viewBox="0.00 0.00 1542.00 543.00" xmlns="http://www.w3.org/2000/svg" xmlns:xlink="http://www.w3.org/1999/xlink">
<g id="graph0" class="graph" transform="scale(1 1) rotate(0) translate(4 539)">
<title>drivers/slipdev/include/slipdev_internal.h</title>
<polygon fill="#ffffff" stroke="transparent" points="-4,4 -4,-539 1538,-539 1538,4 -4,4"/>
<!-- Node0 -->
<g id="node1" class="node">
<title>Node0</title>
<polygon fill="#bfbfbf" stroke="#000000" points="1092,-504.5 1092,-534.5 1214,-534.5 1214,-504.5 1092,-504.5"/>
<text text-anchor="start" x="1100" y="-522.5" font-family="Helvetica,sans-Serif" font-size="10.00" fill="#000000">drivers/slipdev/include</text>
<text text-anchor="middle" x="1153" y="-511.5" font-family="Helvetica,sans-Serif" font-size="10.00" fill="#000000">/slipdev_internal.h</text>
</g>
<!-- Node1 -->
<g id="node2" class="node">
<title>Node1</title>
<polygon fill="#ffffff" stroke="#bfbfbf" points="653,-56.5 653,-75.5 709,-75.5 709,-56.5 653,-56.5"/>
<text text-anchor="middle" x="681" y="-63.5" font-family="Helvetica,sans-Serif" font-size="10.00" fill="#000000">stddef.h</text>
</g>
<!-- Node0&#45;&gt;Node1 -->
<g id="edge1" class="edge">
<title>Node0&#45;&gt;Node1</title>
<path fill="none" stroke="#191970" d="M1153,-504.2899C1153,-481.892 1153,-438.7188 1153,-402 1153,-402 1153,-402 1153,-234 1153,-203.4754 1156.2096,-188.9401 1134,-168 1118.6558,-153.5329 825.6538,-94.5517 719.2215,-73.5059"/>
<polygon fill="#191970" stroke="#191970" points="719.7153,-70.0359 709.2268,-71.5327 718.3595,-76.9033 719.7153,-70.0359"/>
</g>
<!-- Node2 -->
<g id="node3" class="node">
<title>Node2</title>
<polygon fill="#ffffff" stroke="#bfbfbf" points="497,-.5 497,-19.5 549,-19.5 549,-.5 497,-.5"/>
<text text-anchor="middle" x="523" y="-7.5" font-family="Helvetica,sans-Serif" font-size="10.00" fill="#000000">stdint.h</text>
</g>
<!-- Node0&#45;&gt;Node2 -->
<g id="edge2" class="edge">
<title>Node0&#45;&gt;Node2</title>
<path fill="none" stroke="#191970" d="M1214.2142,-513.4067C1321.9141,-500.976 1534,-468.1051 1534,-402 1534,-402 1534,-402 1534,-122 1534,44.6027 1330.3181,-76.6487 1165,-56 935.4838,-27.3327 657.405,-14.9505 559.3441,-11.2602"/>
<polygon fill="#191970" stroke="#191970" points="559.2094,-7.753 549.087,-10.8815 558.951,-14.7482 559.2094,-7.753"/>
</g>
<!-- Node3 -->
<g id="node4" class="node">
<title>Node3</title>
<g id="a_node4"><a xlink:href="isrpipe_8h.html" target="_top" xlink:title="isrpipe Interface ">
<polygon fill="#ffffff" stroke="#000000" points="521.5,-448.5 521.5,-467.5 578.5,-467.5 578.5,-448.5 521.5,-448.5"/>
<text text-anchor="middle" x="550" y="-455.5" font-family="Helvetica,sans-Serif" font-size="10.00" fill="#000000">isrpipe.h</text>
</a>
</g>
</g>
<!-- Node0&#45;&gt;Node3 -->
<g id="edge3" class="edge">
<title>Node0&#45;&gt;Node3</title>
<path fill="none" stroke="#191970" d="M1091.8627,-513.2646C968.0935,-500.6414 690.9711,-472.3776 588.7972,-461.9569"/>
<polygon fill="#191970" stroke="#191970" points="588.925,-458.4519 578.6214,-460.9191 588.2147,-465.4158 588.925,-458.4519"/>
</g>
<!-- Node4 -->
<g id="node5" class="node">
<title>Node4</title>
<g id="a_node5"><a xlink:href="mutex_8h.html" target="_top" xlink:title="Mutex for thread synchronization. ">
<polygon fill="#ffffff" stroke="#000000" points="643,-392.5 643,-411.5 699,-411.5 699,-392.5 643,-392.5"/>
<text text-anchor="middle" x="671" y="-399.5" font-family="Helvetica,sans-Serif" font-size="10.00" fill="#000000">mutex.h</text>
</a>
</g>
</g>
<!-- Node0&#45;&gt;Node4 -->
<g id="edge61" class="edge">
<title>Node0&#45;&gt;Node4</title>
<path fill="none" stroke="#191970" d="M1091.9544,-504.6185C990.9145,-479.9875 791.8284,-431.4551 708.7781,-411.2094"/>
<polygon fill="#191970" stroke="#191970" points="709.5518,-407.7956 699.0074,-408.8275 707.8939,-414.5964 709.5518,-407.7956"/>
</g>
<!-- Node28 -->
<g id="node29" class="node">
<title>Node28</title>
<g id="a_node29"><a xlink:href="drivers_2include_2periph_2uart_8h.html" target="_top" xlink:title="Low&#45;level UART peripheral driver interface definition. ">
<polygon fill="#ffffff" stroke="#000000" points="1218,-224.5 1218,-243.5 1298,-243.5 1298,-224.5 1218,-224.5"/>
<text text-anchor="middle" x="1258" y="-231.5" font-family="Helvetica,sans-Serif" font-size="10.00" fill="#000000">periph/uart.h</text>
</a>
</g>
</g>
<!-- Node0&#45;&gt;Node28 -->
<g id="edge54" class="edge">
<title>Node0&#45;&gt;Node28</title>
<path fill="none" stroke="#191970" d="M1169.826,-504.1813C1190.8217,-483.3024 1224,-443.7099 1224,-402 1224,-402 1224,-402 1224,-346 1224,-311.9677 1238.5515,-274.5293 1248.6151,-252.7067"/>
<polygon fill="#191970" stroke="#191970" points="1251.819,-254.1198 1252.9832,-243.5891 1245.5061,-251.0954 1251.819,-254.1198"/>
</g>
<!-- Node3&#45;&gt;Node2 -->
<g id="edge4" class="edge">
<title>Node3&#45;&gt;Node2</title>
<path fill="none" stroke="#191970" d="M521.204,-455.235C408.0374,-443.9893 0,-399.717 0,-346 0,-346 0,-346 0,-122 0,-80.8295 27.8668,-73.7804 65,-56 139.4341,-20.3589 391.8838,-12.2857 486.6534,-10.4965"/>
<polygon fill="#191970" stroke="#191970" points="486.9519,-13.9919 496.8888,-10.3165 486.8287,-6.993 486.9519,-13.9919"/>
</g>
<!-- Node3&#45;&gt;Node4 -->
<g id="edge5" class="edge">
<title>Node3&#45;&gt;Node4</title>
<path fill="none" stroke="#191970" d="M570.8006,-448.3733C590.2243,-439.3838 619.4224,-425.8706 641.2964,-415.7471"/>
<polygon fill="#191970" stroke="#191970" points="642.8656,-418.8776 650.4708,-411.5011 639.9255,-412.5249 642.8656,-418.8776"/>
</g>
<!-- Node26 -->
<g id="node27" class="node">
<title>Node26</title>
<g id="a_node27"><a xlink:href="tsrb_8h.html" target="_top" xlink:title="Thread&#45;safe ringbuffer interface definition. ">
<polygon fill="#ffffff" stroke="#000000" points="92,-224.5 92,-243.5 136,-243.5 136,-224.5 92,-224.5"/>
<text text-anchor="middle" x="114" y="-231.5" font-family="Helvetica,sans-Serif" font-size="10.00" fill="#000000">tsrb.h</text>
</a>
</g>
</g>
<!-- Node3&#45;&gt;Node26 -->
<g id="edge47" class="edge">
<title>Node3&#45;&gt;Node26</title>
<path fill="none" stroke="#191970" d="M521.1717,-454.8802C460.0657,-447.1229 314.9442,-422.5462 215,-356 173.6199,-328.4477 140.3122,-278.9622 124.3141,-252.2659"/>
<polygon fill="#191970" stroke="#191970" points="127.286,-250.4143 119.2203,-243.5444 121.2414,-253.9447 127.286,-250.4143"/>
</g>
<!-- Node4&#45;&gt;Node1 -->
<g id="edge6" class="edge">
<title>Node4&#45;&gt;Node1</title>
<path fill="none" stroke="#191970" d="M699.152,-400.0064C756.8201,-394.2344 883,-372.2116 883,-290 883,-290 883,-290 883,-178 883,-147.4754 885.9483,-133.2138 864,-112 843.5364,-92.2213 766.5511,-78.1007 719.1949,-71.0689"/>
<polygon fill="#191970" stroke="#191970" points="719.6811,-67.6029 709.2832,-69.6361 718.6795,-74.5309 719.6811,-67.6029"/>
</g>
<!-- Node4&#45;&gt;Node2 -->
<g id="edge7" class="edge">
<title>Node4&#45;&gt;Node2</title>
<path fill="none" stroke="#191970" d="M642.984,-400.708C520.4795,-394.3128 38,-361.0602 38,-234 38,-234 38,-234 38,-122 38,-75.5625 76.2019,-74.0212 119,-56 185.0459,-28.1898 400.4452,-15.5579 486.753,-11.5212"/>
<polygon fill="#191970" stroke="#191970" points="487.0284,-15.0124 496.8586,-11.0605 486.7095,-8.0197 487.0284,-15.0124"/>
</g>
<!-- Node5 -->
<g id="node6" class="node">
<title>Node5</title>
<polygon fill="#ffffff" stroke="#bfbfbf" points="398,-112.5 398,-131.5 458,-131.5 458,-112.5 398,-112.5"/>
<text text-anchor="middle" x="428" y="-119.5" font-family="Helvetica,sans-Serif" font-size="10.00" fill="#000000">stdbool.h</text>
</g>
<!-- Node4&#45;&gt;Node5 -->
<g id="edge8" class="edge">
<title>Node4&#45;&gt;Node5</title>
<path fill="none" stroke="#191970" d="M672.7521,-392.3265C678.5752,-356.8357 693.5476,-232.5003 631,-168 581.1806,-116.6252 542.8557,-146.5606 468.0148,-131.9813"/>
<polygon fill="#191970" stroke="#191970" points="468.7223,-128.5535 458.2079,-129.8565 467.24,-135.3947 468.7223,-128.5535"/>
</g>
<!-- Node6 -->
<g id="node7" class="node">
<title>Node6</title>
<g id="a_node7"><a xlink:href="architecture_8h.html" target="_top" xlink:title="Platform&#45;independent access to architecture details. ">
<polygon fill="#ffffff" stroke="#000000" points="911.5,-224.5 911.5,-243.5 994.5,-243.5 994.5,-224.5 911.5,-224.5"/>
<text text-anchor="middle" x="953" y="-231.5" font-family="Helvetica,sans-Serif" font-size="10.00" fill="#000000">architecture.h</text>
</a>
</g>
</g>
<!-- Node4&#45;&gt;Node6 -->
<g id="edge9" class="edge">
<title>Node4&#45;&gt;Node6</title>
<path fill="none" stroke="#191970" d="M699.4076,-399.4184C753.0618,-394.0366 866.6505,-380.0758 897,-356 929.5756,-330.1582 943.9454,-281.0777 949.6633,-253.7028"/>
<polygon fill="#191970" stroke="#191970" points="953.1277,-254.2196 951.5589,-243.7416 946.2511,-252.9109 953.1277,-254.2196"/>
</g>
<!-- Node10 -->
<g id="node11" class="node">
<title>Node10</title>
<g id="a_node11"><a xlink:href="kernel__defines_8h.html" target="_top" xlink:title="Common macros and compiler attributes/pragmas configuration. ">
<polygon fill="#ffffff" stroke="#000000" points="678.5,-168.5 678.5,-187.5 773.5,-187.5 773.5,-168.5 678.5,-168.5"/>
<text text-anchor="middle" x="726" y="-175.5" font-family="Helvetica,sans-Serif" font-size="10.00" fill="#000000">kernel_defines.h</text>
</a>
</g>
</g>
<!-- Node4&#45;&gt;Node10 -->
<g id="edge14" class="edge">
<title>Node4&#45;&gt;Node10</title>
<path fill="none" stroke="#191970" d="M674.202,-392.186C677.1768,-382.9111 681.6406,-368.5818 685,-356 700.2209,-298.993 714.9747,-230.824 721.8999,-197.8321"/>
<polygon fill="#191970" stroke="#191970" points="725.3965,-198.2092 724.0109,-187.7054 718.5438,-196.7807 725.3965,-198.2092"/>
</g>
<!-- Node16 -->
<g id="node17" class="node">
<title>Node16</title>
<g id="a_node17"><a xlink:href="list_8h.html" target="_top" xlink:title="Intrusive linked list. ">
<polygon fill="#ffffff" stroke="#000000" points="342,-112.5 342,-131.5 380,-131.5 380,-112.5 342,-112.5"/>
<text text-anchor="middle" x="361" y="-119.5" font-family="Helvetica,sans-Serif" font-size="10.00" fill="#000000">list.h</text>
</a>
</g>
</g>
<!-- Node4&#45;&gt;Node16 -->
<g id="edge25" class="edge">
<title>Node4&#45;&gt;Node16</title>
<path fill="none" stroke="#191970" d="M642.7427,-399.6814C556.0649,-391.9214 296.8617,-363.6774 248,-300 242.5888,-292.948 245.2848,-288.464 248,-280 258.0189,-248.7685 318.0516,-173.7789 346.3102,-139.5594"/>
<polygon fill="#191970" stroke="#191970" points="349.0659,-141.7193 352.7602,-131.7894 343.6799,-137.2482 349.0659,-141.7193"/>
</g>
<!-- Node17 -->
<g id="node18" class="node">
<title>Node17</title>
<g id="a_node18"><a xlink:href="core_2include_2thread_8h.html" target="_top" xlink:title="Threading API. ">
<polygon fill="#ffffff" stroke="#000000" points="466.5,-336.5 466.5,-355.5 523.5,-355.5 523.5,-336.5 466.5,-336.5"/>
<text text-anchor="middle" x="495" y="-343.5" font-family="Helvetica,sans-Serif" font-size="10.00" fill="#000000">thread.h</text>
</a>
</g>
</g>
<!-- Node4&#45;&gt;Node17 -->
<g id="edge26" class="edge">
<title>Node4&#45;&gt;Node17</title>
<path fill="none" stroke="#191970" d="M642.7226,-393.0026C613.1342,-383.5882 566.4904,-368.747 533.5432,-358.2637"/>
<polygon fill="#191970" stroke="#191970" points="534.3825,-354.8579 523.792,-355.1611 532.26,-361.5284 534.3825,-354.8579"/>
</g>
<!-- Node6&#45;&gt;Node2 -->
<g id="edge10" class="edge">
<title>Node6&#45;&gt;Node2</title>
<path fill="none" stroke="#191970" d="M949.7206,-224.464C940.6835,-198.6647 914.906,-128.3351 897,-112 846.7557,-66.1637 642.7407,-29.1269 559.0676,-15.5641"/>
<polygon fill="#191970" stroke="#191970" points="559.4411,-12.0794 549.0134,-13.9539 558.334,-18.9914 559.4411,-12.0794"/>
</g>
<!-- Node7 -->
<g id="node8" class="node">
<title>Node7</title>
<g id="a_node8"><a xlink:href="inttypes_8h.html" target="_top" xlink:title="Adds include for missing inttype definitions. ">
<polygon fill="#ffffff" stroke="#000000" points="791.5,-168.5 791.5,-187.5 854.5,-187.5 854.5,-168.5 791.5,-168.5"/>
<text text-anchor="middle" x="823" y="-175.5" font-family="Helvetica,sans-Serif" font-size="10.00" fill="#000000">inttypes.h</text>
</a>
</g>
</g>
<!-- Node6&#45;&gt;Node7 -->
<g id="edge11" class="edge">
<title>Node6&#45;&gt;Node7</title>
<path fill="none" stroke="#191970" d="M930.6522,-224.3733C909.5967,-215.3032 877.8505,-201.6279 854.2825,-191.4755"/>
<polygon fill="#191970" stroke="#191970" points="855.625,-188.243 845.0562,-187.5011 852.8556,-194.6719 855.625,-188.243"/>
</g>
<!-- Node8 -->
<g id="node9" class="node">
<title>Node8</title>
<polygon fill="#ffffff" stroke="#bfbfbf" points="1075,-168.5 1075,-187.5 1125,-187.5 1125,-168.5 1075,-168.5"/>
<text text-anchor="middle" x="1100" y="-175.5" font-family="Helvetica,sans-Serif" font-size="10.00" fill="#000000">limits.h</text>
</g>
<!-- Node6&#45;&gt;Node8 -->
<g id="edge12" class="edge">
<title>Node6&#45;&gt;Node8</title>
<path fill="none" stroke="#191970" d="M978.2702,-224.3733C1002.3966,-215.1822 1038.9362,-201.2624 1065.6877,-191.0713"/>
<polygon fill="#191970" stroke="#191970" points="1066.9607,-194.3318 1075.0596,-187.5011 1064.4687,-187.7904 1066.9607,-194.3318"/>
</g>
<!-- Node9 -->
<g id="node10" class="node">
<title>Node9</title>
<polygon fill="#ffffff" stroke="#bfbfbf" points="949.5,-168.5 949.5,-187.5 1056.5,-187.5 1056.5,-168.5 949.5,-168.5"/>
<text text-anchor="middle" x="1003" y="-175.5" font-family="Helvetica,sans-Serif" font-size="10.00" fill="#000000">architecture_arch.h</text>
</g>
<!-- Node6&#45;&gt;Node9 -->
<g id="edge13" class="edge">
<title>Node6&#45;&gt;Node9</title>
<path fill="none" stroke="#191970" d="M961.7093,-224.2455C968.8073,-216.2958 979.0084,-204.8706 987.495,-195.3656"/>
<polygon fill="#191970" stroke="#191970" points="990.3411,-197.4331 994.3905,-187.6427 985.1195,-192.771 990.3411,-197.4331"/>
</g>
<!-- Node11 -->
<g id="node12" class="node">
<title>Node11</title>
<g id="a_node12"><a xlink:href="modules_8h.html" target="_top" xlink:title="Common macros and compiler attributes/pragmas configuration. ">
<polygon fill="#ffffff" stroke="#000000" points="789.5,-112.5 789.5,-131.5 854.5,-131.5 854.5,-112.5 789.5,-112.5"/>
<text text-anchor="middle" x="822" y="-119.5" font-family="Helvetica,sans-Serif" font-size="10.00" fill="#000000">modules.h</text>
</a>
</g>
</g>
<!-- Node10&#45;&gt;Node11 -->
<g id="edge15" class="edge">
<title>Node10&#45;&gt;Node11</title>
<path fill="none" stroke="#191970" d="M742.7219,-168.2455C757.5889,-159.5731 779.5466,-146.7645 796.5858,-136.825"/>
<polygon fill="#191970" stroke="#191970" points="798.5955,-139.7047 805.4697,-131.6427 795.0683,-133.6582 798.5955,-139.7047"/>
</g>
<!-- Node12 -->
<g id="node13" class="node">
<title>Node12</title>
<g id="a_node13"><a xlink:href="riot__version_8h.html" target="_top" xlink:title="Common macros and compiler attributes/pragmas configuration. ">
<polygon fill="#ffffff" stroke="#000000" points="552.5,-56.5 552.5,-75.5 633.5,-75.5 633.5,-56.5 552.5,-56.5"/>
<text text-anchor="middle" x="593" y="-63.5" font-family="Helvetica,sans-Serif" font-size="10.00" fill="#000000">riot_version.h</text>
</a>
</g>
</g>
<!-- Node10&#45;&gt;Node12 -->
<g id="edge16" class="edge">
<title>Node10&#45;&gt;Node12</title>
<path fill="none" stroke="#191970" d="M714.6605,-168.4509C691.8888,-149.2747 640.3768,-105.8962 612.2361,-82.1988"/>
<polygon fill="#191970" stroke="#191970" points="614.2144,-79.2891 604.3108,-75.5249 609.7055,-84.6435 614.2144,-79.2891"/>
</g>
<!-- Node13 -->
<g id="node14" class="node">
<title>Node13</title>
<g id="a_node14"><a xlink:href="compiler__hints_8h.html" target="_top" xlink:title="Common macros and compiler attributes/pragmas configuration. ">
<polygon fill="#ffffff" stroke="#000000" points="476.5,-112.5 476.5,-131.5 569.5,-131.5 569.5,-112.5 476.5,-112.5"/>
<text text-anchor="middle" x="523" y="-119.5" font-family="Helvetica,sans-Serif" font-size="10.00" fill="#000000">compiler_hints.h</text>
</a>
</g>
</g>
<!-- Node10&#45;&gt;Node13 -->
<g id="edge18" class="edge">
<title>Node10&#45;&gt;Node13</title>
<path fill="none" stroke="#191970" d="M691.1031,-168.3733C656.9089,-158.9404 604.6585,-144.5265 567.4958,-134.2747"/>
<polygon fill="#191970" stroke="#191970" points="568.0123,-130.7865 557.4416,-131.5011 566.1507,-137.5345 568.0123,-130.7865"/>
</g>
<!-- Node15 -->
<g id="node16" class="node">
<title>Node15</title>
<g id="a_node16"><a xlink:href="container_8h.html" target="_top" xlink:title="Common macros and compiler attributes/pragmas configuration. ">
<polygon fill="#ffffff" stroke="#000000" points="702.5,-112.5 702.5,-131.5 771.5,-131.5 771.5,-112.5 702.5,-112.5"/>
<text text-anchor="middle" x="737" y="-119.5" font-family="Helvetica,sans-Serif" font-size="10.00" fill="#000000">container.h</text>
</a>
</g>
</g>
<!-- Node10&#45;&gt;Node15 -->
<g id="edge22" class="edge">
<title>Node10&#45;&gt;Node15</title>
<path fill="none" stroke="#191970" d="M727.9161,-168.2455C729.3514,-160.9382 731.3636,-150.6944 733.1295,-141.7046"/>
<polygon fill="#191970" stroke="#191970" points="736.6127,-142.1298 735.1059,-131.6427 729.744,-140.7805 736.6127,-142.1298"/>
</g>
<!-- Node12&#45;&gt;Node2 -->
<g id="edge17" class="edge">
<title>Node12&#45;&gt;Node2</title>
<path fill="none" stroke="#191970" d="M580.8069,-56.2455C570.3679,-47.8943 555.1345,-35.7076 542.926,-25.9408"/>
<polygon fill="#191970" stroke="#191970" points="545.0485,-23.1566 535.0533,-19.6427 540.6756,-28.6227 545.0485,-23.1566"/>
</g>
<!-- Node13&#45;&gt;Node2 -->
<g id="edge21" class="edge">
<title>Node13&#45;&gt;Node2</title>
<path fill="none" stroke="#191970" d="M523,-112.4509C523,-94.184 523,-53.9553 523,-29.6976"/>
<polygon fill="#191970" stroke="#191970" points="526.5001,-29.5249 523,-19.5249 519.5001,-29.5249 526.5001,-29.5249"/>
</g>
<!-- Node14 -->
<g id="node15" class="node">
<title>Node14</title>
<g id="a_node15"><a xlink:href="assert_8h.html" target="_top" xlink:title="POSIX.1&#45;2008 compliant version of the assert macro. ">
<polygon fill="#ffffff" stroke="#000000" points="146,-56.5 146,-75.5 200,-75.5 200,-56.5 146,-56.5"/>
<text text-anchor="middle" x="173" y="-63.5" font-family="Helvetica,sans-Serif" font-size="10.00" fill="#000000">assert.h</text>
</a>
</g>
</g>
<!-- Node13&#45;&gt;Node14 -->
<g id="edge19" class="edge">
<title>Node13&#45;&gt;Node14</title>
<path fill="none" stroke="#191970" d="M476.2621,-113.5765C473.1289,-113.0357 470.0195,-112.5058 467,-112 374.8545,-96.5659 266.1801,-79.9822 210.3137,-71.5753"/>
<polygon fill="#191970" stroke="#191970" points="210.5977,-68.0788 200.1886,-70.0542 209.5577,-75.0011 210.5977,-68.0788"/>
</g>
<!-- Node14&#45;&gt;Node2 -->
<g id="edge20" class="edge">
<title>Node14&#45;&gt;Node2</title>
<path fill="none" stroke="#191970" d="M200.2703,-58.9805C204.8388,-57.9105 209.5422,-56.8735 214,-56 311.9574,-36.8044 428.7745,-21.4339 486.7042,-14.3099"/>
<polygon fill="#191970" stroke="#191970" points="487.3151,-17.7615 496.8178,-13.0766 486.4677,-10.8129 487.3151,-17.7615"/>
</g>
<!-- Node15&#45;&gt;Node1 -->
<g id="edge23" class="edge">
<title>Node15&#45;&gt;Node1</title>
<path fill="none" stroke="#191970" d="M727.2455,-112.2455C719.1352,-104.1352 707.4075,-92.4075 697.7919,-82.7919"/>
<polygon fill="#191970" stroke="#191970" points="700.1887,-80.2389 690.6427,-75.6427 695.2389,-85.1887 700.1887,-80.2389"/>
</g>
<!-- Node15&#45;&gt;Node2 -->
<g id="edge24" class="edge">
<title>Node15&#45;&gt;Node2</title>
<path fill="none" stroke="#191970" d="M737.094,-112.3958C736.6876,-98.0115 733.7136,-70.9673 718,-56 706.5186,-45.0638 612.4612,-26.3691 559.2874,-16.5168"/>
<polygon fill="#191970" stroke="#191970" points="559.7022,-13.0345 549.2343,-14.6691 558.4369,-19.9192 559.7022,-13.0345"/>
</g>
<!-- Node18 -->
<g id="node19" class="node">
<title>Node18</title>
<g id="a_node19"><a xlink:href="clist_8h.html" target="_top" xlink:title="Circular linked list. ">
<polygon fill="#ffffff" stroke="#000000" points="436.5,-168.5 436.5,-187.5 479.5,-187.5 479.5,-168.5 436.5,-168.5"/>
<text text-anchor="middle" x="458" y="-175.5" font-family="Helvetica,sans-Serif" font-size="10.00" fill="#000000">clist.h</text>
</a>
</g>
</g>
<!-- Node17&#45;&gt;Node18 -->
<g id="edge27" class="edge">
<title>Node17&#45;&gt;Node18</title>
<path fill="none" stroke="#191970" d="M492.9047,-336.4862C487.0305,-309.8144 470.3139,-233.9117 462.3376,-197.695"/>
<polygon fill="#191970" stroke="#191970" points="465.7335,-196.841 460.1645,-187.8279 458.8973,-198.3467 465.7335,-196.841"/>
</g>
<!-- Node19 -->
<g id="node20" class="node">
<title>Node19</title>
<g id="a_node20"><a xlink:href="cib_8h.html" target="_top" xlink:title="Circular integer buffer interface. ">
<polygon fill="#ffffff" stroke="#000000" points="257,-280.5 257,-299.5 295,-299.5 295,-280.5 257,-280.5"/>
<text text-anchor="middle" x="276" y="-287.5" font-family="Helvetica,sans-Serif" font-size="10.00" fill="#000000">cib.h</text>
</a>
</g>
</g>
<!-- Node17&#45;&gt;Node19 -->
<g id="edge31" class="edge">
<title>Node17&#45;&gt;Node19</title>
<path fill="none" stroke="#191970" d="M466.2704,-340.0826C430.5086,-332.5002 367.4238,-318.4156 304.8236,-300.0241"/>
<polygon fill="#191970" stroke="#191970" points="305.7734,-296.6551 295.1905,-297.1579 303.7771,-303.3644 305.7734,-296.6551"/>
</g>
<!-- Node20 -->
<g id="node21" class="node">
<title>Node20</title>
<g id="a_node21"><a xlink:href="core_2include_2msg_8h.html" target="_top" xlink:title="Messaging API for inter process communication. ">
<polygon fill="#ffffff" stroke="#000000" points="313.5,-280.5 313.5,-299.5 358.5,-299.5 358.5,-280.5 313.5,-280.5"/>
<text text-anchor="middle" x="336" y="-287.5" font-family="Helvetica,sans-Serif" font-size="10.00" fill="#000000">msg.h</text>
</a>
</g>
</g>
<!-- Node17&#45;&gt;Node20 -->
<g id="edge33" class="edge">
<title>Node17&#45;&gt;Node20</title>
<path fill="none" stroke="#191970" d="M467.6669,-336.3733C440.1857,-326.6944 397.8148,-311.7712 368.5984,-301.4812"/>
<polygon fill="#191970" stroke="#191970" points="369.4536,-298.0717 358.8588,-298.0509 367.1282,-304.6742 369.4536,-298.0717"/>
</g>
<!-- Node21 -->
<g id="node22" class="node">
<title>Node21</title>
<g id="a_node22"><a xlink:href="sched_8h.html" target="_top" xlink:title="Scheduler API definition. ">
<polygon fill="#ffffff" stroke="#000000" points="523.5,-224.5 523.5,-243.5 576.5,-243.5 576.5,-224.5 523.5,-224.5"/>
<text text-anchor="middle" x="550" y="-231.5" font-family="Helvetica,sans-Serif" font-size="10.00" fill="#000000">sched.h</text>
</a>
</g>
</g>
<!-- Node17&#45;&gt;Node21 -->
<g id="edge42" class="edge">
<title>Node17&#45;&gt;Node21</title>
<path fill="none" stroke="#191970" d="M499.6893,-336.4509C508.7814,-317.936 528.9531,-276.8591 540.8078,-252.7187"/>
<polygon fill="#191970" stroke="#191970" points="544.0563,-254.0438 545.3226,-243.5249 537.773,-250.9582 544.0563,-254.0438"/>
</g>
<!-- Node23 -->
<g id="node24" class="node">
<title>Node23</title>
<g id="a_node24"><a xlink:href="thread__config_8h.html" target="_top" xlink:title="Thread configuration defines. ">
<polygon fill="#ffffff" stroke="#000000" points="377,-280.5 377,-299.5 467,-299.5 467,-280.5 377,-280.5"/>
<text text-anchor="middle" x="422" y="-287.5" font-family="Helvetica,sans-Serif" font-size="10.00" fill="#000000">thread_config.h</text>
</a>
</g>
</g>
<!-- Node17&#45;&gt;Node23 -->
<g id="edge43" class="edge">
<title>Node17&#45;&gt;Node23</title>
<path fill="none" stroke="#191970" d="M482.2844,-336.2455C471.398,-327.8943 455.5117,-315.7076 442.78,-305.9408"/>
<polygon fill="#191970" stroke="#191970" points="444.6346,-302.9523 434.5699,-299.6427 440.3739,-308.5063 444.6346,-302.9523"/>
</g>
<!-- Node25 -->
<g id="node26" class="node">
<title>Node25</title>
<polygon fill="#ffffff" stroke="#bfbfbf" points="561,-280.5 561,-299.5 643,-299.5 643,-280.5 561,-280.5"/>
<text text-anchor="middle" x="602" y="-287.5" font-family="Helvetica,sans-Serif" font-size="10.00" fill="#000000">thread_arch.h</text>
</g>
<!-- Node17&#45;&gt;Node25 -->
<g id="edge46" class="edge">
<title>Node17&#45;&gt;Node25</title>
<path fill="none" stroke="#191970" d="M513.638,-336.2455C530.4386,-327.4527 555.3634,-314.4079 574.4618,-304.4125"/>
<polygon fill="#191970" stroke="#191970" points="576.3386,-307.3807 583.5756,-299.6427 573.0927,-301.1787 576.3386,-307.3807"/>
</g>
<!-- Node18&#45;&gt;Node1 -->
<g id="edge29" class="edge">
<title>Node18&#45;&gt;Node1</title>
<path fill="none" stroke="#191970" d="M479.8097,-171.1358C504.3014,-163.0883 544.9447,-148.7062 578,-132 607.5554,-117.0626 639.3187,-95.8365 659.6357,-81.524"/>
<polygon fill="#191970" stroke="#191970" points="661.7444,-84.3191 667.8592,-75.667 657.6834,-78.6175 661.7444,-84.3191"/>
</g>
<!-- Node18&#45;&gt;Node5 -->
<g id="edge28" class="edge">
<title>Node18&#45;&gt;Node5</title>
<path fill="none" stroke="#191970" d="M452.7744,-168.2455C448.6877,-160.617 442.8865,-149.7881 437.925,-140.5267"/>
<polygon fill="#191970" stroke="#191970" points="440.9732,-138.8047 433.1657,-131.6427 434.8028,-142.1103 440.9732,-138.8047"/>
</g>
<!-- Node18&#45;&gt;Node16 -->
<g id="edge30" class="edge">
<title>Node18&#45;&gt;Node16</title>
<path fill="none" stroke="#191970" d="M441.1039,-168.2455C426.082,-159.5731 403.8957,-146.7645 386.679,-136.825"/>
<polygon fill="#191970" stroke="#191970" points="388.1128,-133.6114 377.7025,-131.6427 384.6129,-139.6737 388.1128,-133.6114"/>
</g>
<!-- Node19&#45;&gt;Node14 -->
<g id="edge32" class="edge">
<title>Node19&#45;&gt;Node14</title>
<path fill="none" stroke="#191970" d="M256.8505,-280.5636C242.864,-272.6859 224.5678,-260.1499 214,-244 181.2393,-193.9345 174.4979,-120.9816 173.218,-86.0712"/>
<polygon fill="#191970" stroke="#191970" points="176.7097,-85.6889 172.9636,-75.7785 169.7119,-85.862 176.7097,-85.6889"/>
</g>
<!-- Node20&#45;&gt;Node2 -->
<g id="edge34" class="edge">
<title>Node20&#45;&gt;Node2</title>
<path fill="none" stroke="#191970" d="M315.686,-280.4652C284.4011,-264.209 228,-227.9722 228,-178 228,-178 228,-178 228,-122 228,-67.2124 408.0889,-29.6661 486.8503,-15.8651"/>
<polygon fill="#191970" stroke="#191970" points="487.5587,-19.2948 496.8207,-14.1504 486.3722,-12.396 487.5587,-19.2948"/>
</g>
<!-- Node20&#45;&gt;Node5 -->
<g id="edge35" class="edge">
<title>Node20&#45;&gt;Node5</title>
<path fill="none" stroke="#191970" d="M341.2099,-280.4862C355.9418,-253.5845 398.1003,-176.5994 417.7227,-140.7673"/>
<polygon fill="#191970" stroke="#191970" points="420.8847,-142.28 422.6181,-131.8279 414.745,-138.9177 420.8847,-142.28"/>
</g>
<!-- Node20&#45;&gt;Node21 -->
<g id="edge36" class="edge">
<title>Node20&#45;&gt;Node21</title>
<path fill="none" stroke="#191970" d="M358.6793,-282.7426C361.8027,-281.7929 364.9752,-280.8542 368,-280 418.1706,-265.8323 476.7023,-251.4099 513.5579,-242.5827"/>
<polygon fill="#191970" stroke="#191970" points="514.4384,-245.971 523.3534,-240.2462 512.8142,-239.162 514.4384,-245.971"/>
</g>
<!-- Node21&#45;&gt;Node1 -->
<g id="edge37" class="edge">
<title>Node21&#45;&gt;Node1</title>
<path fill="none" stroke="#191970" d="M541.5951,-224.3815C530.8981,-210.9121 515.1493,-186.0574 527,-168 549.0617,-134.3835 576.3462,-154.0048 610,-132 631.1946,-118.1417 652.0027,-97.7732 665.5565,-83.3352"/>
<polygon fill="#191970" stroke="#191970" points="668.4611,-85.3467 672.6465,-75.6136 663.305,-80.6123 668.4611,-85.3467"/>
</g>
<!-- Node21&#45;&gt;Node7 -->
<g id="edge38" class="edge">
<title>Node21&#45;&gt;Node7</title>
<path fill="none" stroke="#191970" d="M576.6474,-229.1882C618.2487,-221.5795 701.3719,-205.9907 780.9674,-188.3831"/>
<polygon fill="#191970" stroke="#191970" points="782.1576,-191.7039 791.1574,-186.1133 780.6356,-184.8713 782.1576,-191.7039"/>
</g>
<!-- Node21&#45;&gt;Node10 -->
<g id="edge39" class="edge">
<title>Node21&#45;&gt;Node10</title>
<path fill="none" stroke="#191970" d="M576.7306,-225.4948C605.8379,-216.2334 652.6994,-201.3229 686.15,-190.6796"/>
<polygon fill="#191970" stroke="#191970" points="687.5981,-193.8918 696.0661,-187.5244 685.4756,-187.2213 687.5981,-193.8918"/>
</g>
<!-- Node21&#45;&gt;Node18 -->
<g id="edge41" class="edge">
<title>Node21&#45;&gt;Node18</title>
<path fill="none" stroke="#191970" d="M533.9748,-224.2455C519.8592,-215.6534 499.0737,-203.0014 482.8101,-193.1018"/>
<polygon fill="#191970" stroke="#191970" points="484.2034,-189.8525 473.8415,-187.6427 480.5637,-195.8319 484.2034,-189.8525"/>
</g>
<!-- Node22 -->
<g id="node23" class="node">
<title>Node22</title>
<g id="a_node23"><a xlink:href="native__sched_8h.html" target="_top" xlink:title="Add definitions required on the native board. ">
<polygon fill="#ffffff" stroke="#000000" points="536,-168.5 536,-187.5 622,-187.5 622,-168.5 536,-168.5"/>
<text text-anchor="middle" x="579" y="-175.5" font-family="Helvetica,sans-Serif" font-size="10.00" fill="#000000">native_sched.h</text>
</a>
</g>
</g>
<!-- Node21&#45;&gt;Node22 -->
<g id="edge40" class="edge">
<title>Node21&#45;&gt;Node22</title>
<path fill="none" stroke="#191970" d="M555.0514,-224.2455C559.0019,-216.617 564.6097,-205.7881 569.4058,-196.5267"/>
<polygon fill="#191970" stroke="#191970" points="572.5159,-198.1321 574.0065,-187.6427 566.2999,-194.9131 572.5159,-198.1321"/>
</g>
<!-- Node23&#45;&gt;Node21 -->
<g id="edge45" class="edge">
<title>Node23&#45;&gt;Node21</title>
<path fill="none" stroke="#191970" d="M444.004,-280.3733C464.6435,-271.3435 495.7158,-257.7494 518.8889,-247.6111"/>
<polygon fill="#191970" stroke="#191970" points="520.5245,-250.7159 528.2831,-243.5011 517.7187,-244.3028 520.5245,-250.7159"/>
</g>
<!-- Node24 -->
<g id="node25" class="node">
<title>Node24</title>
<polygon fill="#ffffff" stroke="#bfbfbf" points="256.5,-112.5 256.5,-131.5 323.5,-131.5 323.5,-112.5 256.5,-112.5"/>
<text text-anchor="middle" x="290" y="-119.5" font-family="Helvetica,sans-Serif" font-size="10.00" fill="#000000">cpu_conf.h</text>
</g>
<!-- Node23&#45;&gt;Node24 -->
<g id="edge44" class="edge">
<title>Node23&#45;&gt;Node24</title>
<path fill="none" stroke="#191970" d="M414.5249,-280.4862C393.2071,-253.3545 331.8627,-175.2798 304.031,-139.8576"/>
<polygon fill="#191970" stroke="#191970" points="306.6523,-137.5287 297.7219,-131.8279 301.148,-141.8535 306.6523,-137.5287"/>
</g>
<!-- Node26&#45;&gt;Node1 -->
<g id="edge49" class="edge">
<title>Node26&#45;&gt;Node1</title>
<path fill="none" stroke="#191970" d="M120.7386,-224.498C138.3096,-200.5886 188.2603,-137.9915 247,-112 408.2065,-40.6683 468.2863,-105.9882 642,-76 642.3358,-75.942 642.6729,-75.8826 643.0113,-75.8219"/>
<polygon fill="#191970" stroke="#191970" points="643.9157,-79.2089 652.997,-73.7519 642.4947,-72.3547 643.9157,-79.2089"/>
</g>
<!-- Node26&#45;&gt;Node2 -->
<g id="edge50" class="edge">
<title>Node26&#45;&gt;Node2</title>
<path fill="none" stroke="#191970" d="M111.6097,-224.4409C104.7292,-194.3859 88.3349,-101.1298 137,-56 162.4066,-32.4391 395.4635,-17.0766 486.6571,-11.9215"/>
<polygon fill="#191970" stroke="#191970" points="487.0102,-15.4073 496.8004,-11.3573 486.6214,-8.4181 487.0102,-15.4073"/>
</g>
<!-- Node26&#45;&gt;Node14 -->
<g id="edge48" class="edge">
<title>Node26&#45;&gt;Node14</title>
<path fill="none" stroke="#191970" d="M114.4209,-224.3762C115.6568,-203.1687 120.3924,-151.1827 138,-112 142.6402,-101.674 149.9876,-91.5159 156.755,-83.383"/>
<polygon fill="#191970" stroke="#191970" points="159.5099,-85.5496 163.4597,-75.7185 154.2412,-80.9407 159.5099,-85.5496"/>
</g>
<!-- Node27 -->
<g id="node28" class="node">
<title>Node27</title>
<g id="a_node28"><a xlink:href="irq_8h.html" target="_top" xlink:title="IRQ driver interface. ">
<polygon fill="#ffffff" stroke="#000000" points="256,-168.5 256,-187.5 294,-187.5 294,-168.5 256,-168.5"/>
<text text-anchor="middle" x="275" y="-175.5" font-family="Helvetica,sans-Serif" font-size="10.00" fill="#000000">irq.h</text>
</a>
</g>
</g>
<!-- Node26&#45;&gt;Node27 -->
<g id="edge51" class="edge">
<title>Node26&#45;&gt;Node27</title>
<path fill="none" stroke="#191970" d="M136.0488,-226.3309C164.6463,-216.3839 214.5964,-199.0099 246.1733,-188.0267"/>
<polygon fill="#191970" stroke="#191970" points="247.4344,-191.2938 255.7296,-184.7028 245.1348,-184.6823 247.4344,-191.2938"/>
</g>
<!-- Node27&#45;&gt;Node5 -->
<g id="edge52" class="edge">
<title>Node27&#45;&gt;Node5</title>
<path fill="none" stroke="#191970" d="M294.0682,-171.0208C318.6445,-162.0255 361.8569,-146.2092 392.5472,-134.9762"/>
<polygon fill="#191970" stroke="#191970" points="393.8444,-138.2286 402.0321,-131.5046 391.4383,-131.655 393.8444,-138.2286"/>
</g>
<!-- Node27&#45;&gt;Node24 -->
<g id="edge53" class="edge">
<title>Node27&#45;&gt;Node24</title>
<path fill="none" stroke="#191970" d="M277.6128,-168.2455C279.5916,-160.8579 282.3744,-150.4689 284.8012,-141.4087"/>
<polygon fill="#191970" stroke="#191970" points="288.2105,-142.2078 287.4171,-131.6427 281.4489,-140.3966 288.2105,-142.2078"/>
</g>
<!-- Node28&#45;&gt;Node1 -->
<g id="edge57" class="edge">
<title>Node28&#45;&gt;Node1</title>
<path fill="none" stroke="#191970" d="M1247.67,-224.3732C1231.6412,-209.9594 1199.2541,-182.8772 1167,-168 1011.2177,-96.1457 803.9749,-74.3681 719.3956,-68.2321"/>
<polygon fill="#191970" stroke="#191970" points="719.448,-64.7274 709.23,-67.5279 718.9642,-71.7107 719.448,-64.7274"/>
</g>
<!-- Node28&#45;&gt;Node2 -->
<g id="edge58" class="edge">
<title>Node28&#45;&gt;Node2</title>
<path fill="none" stroke="#191970" d="M1298.129,-230.1909C1351.9009,-223.5377 1437.079,-206.6331 1405,-168 1294.607,-35.0528 711.5412,-13.8622 559.3575,-10.5833"/>
<polygon fill="#191970" stroke="#191970" points="559.2261,-7.08 549.1573,-10.3769 559.0844,-14.0786 559.2261,-7.08"/>
</g>
<!-- Node28&#45;&gt;Node8 -->
<g id="edge56" class="edge">
<title>Node28&#45;&gt;Node8</title>
<path fill="none" stroke="#191970" d="M1230.8388,-224.3733C1204.3197,-214.9741 1163.8474,-200.6295 1134.9428,-190.3848"/>
<polygon fill="#191970" stroke="#191970" points="1135.8378,-186.9887 1125.2431,-186.9469 1133.4993,-193.5866 1135.8378,-186.9887"/>
</g>
<!-- Node29 -->
<g id="node30" class="node">
<title>Node29</title>
<g id="a_node30"><a xlink:href="errno_8h.html" target="_top" xlink:title="errno.h">
<polygon fill="#ffffff" stroke="#000000" points="1452.5,-168.5 1452.5,-187.5 1505.5,-187.5 1505.5,-168.5 1452.5,-168.5"/>
<text text-anchor="middle" x="1479" y="-175.5" font-family="Helvetica,sans-Serif" font-size="10.00" fill="#000000">errno.h</text>
</a>
</g>
</g>
<!-- Node28&#45;&gt;Node29 -->
<g id="edge55" class="edge">
<title>Node28&#45;&gt;Node29</title>
<path fill="none" stroke="#191970" d="M1295.7401,-224.4369C1336.7679,-214.0407 1401.8859,-197.5402 1442.4432,-187.2633"/>
<polygon fill="#191970" stroke="#191970" points="1443.3617,-190.6412 1452.1956,-184.7921 1441.6423,-183.8557 1443.3617,-190.6412"/>
</g>
<!-- Node30 -->
<g id="node31" class="node">
<title>Node30</title>
<polygon fill="#ffffff" stroke="#bfbfbf" points="1219.5,-168.5 1219.5,-187.5 1296.5,-187.5 1296.5,-168.5 1219.5,-168.5"/>
<text text-anchor="middle" x="1258" y="-175.5" font-family="Helvetica,sans-Serif" font-size="10.00" fill="#000000">periph_cpu.h</text>
</g>
<!-- Node28&#45;&gt;Node30 -->
<g id="edge59" class="edge">
<title>Node28&#45;&gt;Node30</title>
<path fill="none" stroke="#191970" d="M1258,-224.2455C1258,-216.9382 1258,-206.6944 1258,-197.7046"/>
<polygon fill="#191970" stroke="#191970" points="1261.5001,-197.6426 1258,-187.6427 1254.5001,-197.6427 1261.5001,-197.6426"/>
</g>
<!-- Node31 -->
<g id="node32" class="node">
<title>Node31</title>
<polygon fill="#ffffff" stroke="#bfbfbf" points="1314.5,-168.5 1314.5,-187.5 1395.5,-187.5 1395.5,-168.5 1314.5,-168.5"/>
<text text-anchor="middle" x="1355" y="-175.5" font-family="Helvetica,sans-Serif" font-size="10.00" fill="#000000">periph_conf.h</text>
</g>
<!-- Node28&#45;&gt;Node31 -->
<g id="edge60" class="edge">
<title>Node28&#45;&gt;Node31</title>
<path fill="none" stroke="#191970" d="M1274.8961,-224.2455C1289.918,-215.5731 1312.1043,-202.7645 1329.321,-192.825"/>
<polygon fill="#191970" stroke="#191970" points="1331.3871,-195.6737 1338.2975,-187.6427 1327.8872,-189.6114 1331.3871,-195.6737"/>
</g>
</g>
</svg>
