<?xml version="1.0" encoding="UTF-8" standalone="no"?>
<!DOCTYPE svg PUBLIC "-//W3C//DTD SVG 1.1//EN"
 "http://www.w3.org/Graphics/SVG/1.1/DTD/svg11.dtd">
<!-- Generated by graphviz version 2.40.1 (0)
 -->
<!-- Title: sys/include/riotboot/slot.h Pages: 1 -->
<svg width="420pt" height="173pt"
 viewBox="0.00 0.00 419.50 173.00" xmlns="http://www.w3.org/2000/svg" xmlns:xlink="http://www.w3.org/1999/xlink">
<g id="graph0" class="graph" transform="scale(1 1) rotate(0) translate(4 169)">
<title>sys/include/riotboot/slot.h</title>
<polygon fill="#ffffff" stroke="transparent" points="-4,4 -4,-169 415.5,-169 415.5,4 -4,4"/>
<!-- Node4 -->
<g id="node1" class="node">
<title>Node4</title>
<polygon fill="#bfbfbf" stroke="#000000" points="155,-134.5 155,-164.5 265,-164.5 265,-134.5 155,-134.5"/>
<text text-anchor="start" x="163" y="-152.5" font-family="Helvetica,sans-Serif" font-size="10.00" fill="#000000">sys/include/riotboot</text>
<text text-anchor="middle" x="210" y="-141.5" font-family="Helvetica,sans-Serif" font-size="10.00" fill="#000000">/slot.h</text>
</g>
<!-- Node5 -->
<g id="node2" class="node">
<title>Node5</title>
<g id="a_node2"><a xlink:href="riotboot_2flashwrite_8h.html" target="_top" xlink:title="riotboot flash writing module ">
<polygon fill="#ffffff" stroke="#000000" points="155,-67.5 155,-97.5 265,-97.5 265,-67.5 155,-67.5"/>
<text text-anchor="start" x="163" y="-85.5" font-family="Helvetica,sans-Serif" font-size="10.00" fill="#000000">sys/include/riotboot</text>
<text text-anchor="middle" x="210" y="-74.5" font-family="Helvetica,sans-Serif" font-size="10.00" fill="#000000">/flashwrite.h</text>
</a>
</g>
</g>
<!-- Node4&#45;&gt;Node5 -->
<g id="edge1" class="edge">
<title>Node4&#45;&gt;Node5</title>
<path fill="none" stroke="#191970" d="M210,-124.0249C210,-115.128 210,-105.4287 210,-97.6432"/>
<polygon fill="#191970" stroke="#191970" points="206.5001,-124.2966 210,-134.2967 213.5001,-124.2967 206.5001,-124.2966"/>
</g>
<!-- Node6 -->
<g id="node3" class="node">
<title>Node6</title>
<g id="a_node3"><a xlink:href="tinyusb__dfu_8h.html" target="_top" xlink:title="TinyUSB specific DFU definitions. ">
<polygon fill="#ffffff" stroke="#000000" points="0,-.5 0,-30.5 128,-30.5 128,-.5 0,-.5"/>
<text text-anchor="start" x="8" y="-18.5" font-family="Helvetica,sans-Serif" font-size="10.00" fill="#000000">pkg/tinyusb/dfu/include</text>
<text text-anchor="middle" x="64" y="-7.5" font-family="Helvetica,sans-Serif" font-size="10.00" fill="#000000">/tinyusb_dfu.h</text>
</a>
</g>
</g>
<!-- Node5&#45;&gt;Node6 -->
<g id="edge2" class="edge">
<title>Node5&#45;&gt;Node6</title>
<path fill="none" stroke="#191970" d="M167.8879,-63.1746C145.3118,-52.8143 117.9032,-40.2364 96.9082,-30.6017"/>
<polygon fill="#191970" stroke="#191970" points="166.6862,-66.474 177.2348,-67.4639 169.6059,-60.112 166.6862,-66.474"/>
</g>
<!-- Node7 -->
<g id="node4" class="node">
<title>Node7</title>
<g id="a_node4"><a xlink:href="suit_2storage_2flashwrite_8h_source.html" target="_top" xlink:title="sys/include/suit/storage\l/flashwrite.h">
<polygon fill="#ffffff" stroke="#000000" points="146,-.5 146,-30.5 274,-30.5 274,-.5 146,-.5"/>
<text text-anchor="start" x="154" y="-18.5" font-family="Helvetica,sans-Serif" font-size="10.00" fill="#000000">sys/include/suit/storage</text>
<text text-anchor="middle" x="210" y="-7.5" font-family="Helvetica,sans-Serif" font-size="10.00" fill="#000000">/flashwrite.h</text>
</a>
</g>
</g>
<!-- Node5&#45;&gt;Node7 -->
<g id="edge3" class="edge">
<title>Node5&#45;&gt;Node7</title>
<path fill="none" stroke="#191970" d="M210,-57.0249C210,-48.128 210,-38.4287 210,-30.6432"/>
<polygon fill="#191970" stroke="#191970" points="206.5001,-57.2966 210,-67.2967 213.5001,-57.2967 206.5001,-57.2966"/>
</g>
<!-- Node8 -->
<g id="node5" class="node">
<title>Node8</title>
<g id="a_node5"><a xlink:href="usbus_2dfu_8h_source.html" target="_top" xlink:title="sys/include/usb/usbus\l/dfu.h">
<polygon fill="#ffffff" stroke="#000000" points="292.5,-.5 292.5,-30.5 411.5,-30.5 411.5,-.5 292.5,-.5"/>
<text text-anchor="start" x="300.5" y="-18.5" font-family="Helvetica,sans-Serif" font-size="10.00" fill="#000000">sys/include/usb/usbus</text>
<text text-anchor="middle" x="352" y="-7.5" font-family="Helvetica,sans-Serif" font-size="10.00" fill="#000000">/dfu.h</text>
</a>
</g>
</g>
<!-- Node5&#45;&gt;Node8 -->
<g id="edge4" class="edge">
<title>Node5&#45;&gt;Node8</title>
<path fill="none" stroke="#191970" d="M250.9253,-63.1902C272.8011,-52.8685 299.3496,-40.3421 319.7475,-30.7177"/>
<polygon fill="#191970" stroke="#191970" points="249.4179,-60.0313 241.8676,-67.4639 252.405,-66.362 249.4179,-60.0313"/>
</g>
</g>
</svg>
