<?xml version="1.0" encoding="UTF-8" standalone="no"?>
<!DOCTYPE svg PUBLIC "-//W3C//DTD SVG 1.1//EN"
 "http://www.w3.org/Graphics/SVG/1.1/DTD/svg11.dtd">
<!-- Generated by graphviz version 2.40.1 (0)
 -->
<!-- Title: boards/sltb009a/include/board.h Pages: 1 -->
<svg width="786pt" height="263pt"
 viewBox="0.00 0.00 785.50 263.00" xmlns="http://www.w3.org/2000/svg" xmlns:xlink="http://www.w3.org/1999/xlink">
<g id="graph0" class="graph" transform="scale(1 1) rotate(0) translate(4 259)">
<title>boards/sltb009a/include/board.h</title>
<polygon fill="#ffffff" stroke="transparent" points="-4,4 -4,-259 781.5,-259 781.5,4 -4,4"/>
<!-- Node0 -->
<g id="node1" class="node">
<title>Node0</title>
<polygon fill="#bfbfbf" stroke="#000000" points="280,-224.5 280,-254.5 409,-254.5 409,-224.5 280,-224.5"/>
<text text-anchor="start" x="288" y="-242.5" font-family="Helvetica,sans-Serif" font-size="10.00" fill="#000000">boards/sltb009a/include</text>
<text text-anchor="middle" x="344.5" y="-231.5" font-family="Helvetica,sans-Serif" font-size="10.00" fill="#000000">/board.h</text>
</g>
<!-- Node1 -->
<g id="node2" class="node">
<title>Node1</title>
<polygon fill="#ffffff" stroke="#bfbfbf" points="23.5,-112.5 23.5,-131.5 65.5,-131.5 65.5,-112.5 23.5,-112.5"/>
<text text-anchor="middle" x="44.5" y="-119.5" font-family="Helvetica,sans-Serif" font-size="10.00" fill="#000000">cpu.h</text>
</g>
<!-- Node0&#45;&gt;Node1 -->
<g id="edge1" class="edge">
<title>Node0&#45;&gt;Node1</title>
<path fill="none" stroke="#191970" d="M284.2625,-224.4066C250.8232,-215.3 208.778,-202.6372 172.5,-188 135.4925,-173.0685 94.8753,-151.1003 69.535,-136.674"/>
<polygon fill="#191970" stroke="#191970" points="71.0246,-133.4932 60.6105,-131.5446 67.5364,-139.5622 71.0246,-133.4932"/>
</g>
<!-- Node2 -->
<g id="node3" class="node">
<title>Node2</title>
<g id="a_node3"><a xlink:href="boards_2sltb009a_2include_2periph__conf_8h.html" target="_top" xlink:title="Configuration of CPU peripherals for the SLTB009A starter kit. ">
<polygon fill="#ffffff" stroke="#000000" points="182,-168.5 182,-187.5 263,-187.5 263,-168.5 182,-168.5"/>
<text text-anchor="middle" x="222.5" y="-175.5" font-family="Helvetica,sans-Serif" font-size="10.00" fill="#000000">periph_conf.h</text>
</a>
</g>
</g>
<!-- Node0&#45;&gt;Node2 -->
<g id="edge2" class="edge">
<title>Node0&#45;&gt;Node2</title>
<path fill="none" stroke="#191970" d="M314.6554,-224.4554C295.103,-214.599 269.7128,-201.7999 250.5355,-192.1327"/>
<polygon fill="#191970" stroke="#191970" points="251.9108,-188.9064 241.4057,-187.5303 248.7598,-195.1571 251.9108,-188.9064"/>
</g>
<!-- Node9 -->
<g id="node10" class="node">
<title>Node9</title>
<g id="a_node10"><a xlink:href="drivers_2include_2periph_2gpio_8h.html" target="_top" xlink:title="Low&#45;level GPIO peripheral driver interface definitions. ">
<polygon fill="#ffffff" stroke="#000000" points="639.5,-112.5 639.5,-131.5 719.5,-131.5 719.5,-112.5 639.5,-112.5"/>
<text text-anchor="middle" x="679.5" y="-119.5" font-family="Helvetica,sans-Serif" font-size="10.00" fill="#000000">periph/gpio.h</text>
</a>
</g>
</g>
<!-- Node0&#45;&gt;Node9 -->
<g id="edge11" class="edge">
<title>Node0&#45;&gt;Node9</title>
<path fill="none" stroke="#191970" d="M396.7331,-224.4916C429.8259,-214.7124 473.4135,-201.3327 511.5,-188 559.4167,-171.2261 613.9683,-149.2503 647.5669,-135.3744"/>
<polygon fill="#191970" stroke="#191970" points="648.9802,-138.5774 656.8776,-131.5148 646.2996,-132.111 648.9802,-138.5774"/>
</g>
<!-- Node13 -->
<g id="node14" class="node">
<title>Node13</title>
<g id="a_node14"><a xlink:href="spi_8h.html" target="_top" xlink:title="Low&#45;level SPI peripheral driver interface definition. ">
<polygon fill="#ffffff" stroke="#000000" points="429,-168.5 429,-187.5 502,-187.5 502,-168.5 429,-168.5"/>
<text text-anchor="middle" x="465.5" y="-175.5" font-family="Helvetica,sans-Serif" font-size="10.00" fill="#000000">periph/spi.h</text>
</a>
</g>
</g>
<!-- Node0&#45;&gt;Node13 -->
<g id="edge16" class="edge">
<title>Node0&#45;&gt;Node13</title>
<path fill="none" stroke="#191970" d="M374.0999,-224.4554C393.4922,-214.599 418.6742,-201.7999 437.6943,-192.1327"/>
<polygon fill="#191970" stroke="#191970" points="439.4205,-195.1815 446.7493,-187.5303 436.2488,-188.9412 439.4205,-195.1815"/>
</g>
<!-- Node2&#45;&gt;Node1 -->
<g id="edge3" class="edge">
<title>Node2&#45;&gt;Node1</title>
<path fill="none" stroke="#191970" d="M191.2586,-168.4923C163.2567,-159.9259 120.8203,-146.8344 75.4985,-132.2819"/>
<polygon fill="#191970" stroke="#191970" points="76.3791,-128.8885 65.7877,-129.1554 74.2339,-135.5517 76.3791,-128.8885"/>
</g>
<!-- Node3 -->
<g id="node4" class="node">
<title>Node3</title>
<polygon fill="#ffffff" stroke="#bfbfbf" points="266,-56.5 266,-75.5 343,-75.5 343,-56.5 266,-56.5"/>
<text text-anchor="middle" x="304.5" y="-63.5" font-family="Helvetica,sans-Serif" font-size="10.00" fill="#000000">periph_cpu.h</text>
</g>
<!-- Node2&#45;&gt;Node3 -->
<g id="edge4" class="edge">
<title>Node2&#45;&gt;Node3</title>
<path fill="none" stroke="#191970" d="M242.3775,-168.4192C256.678,-160.5424 275.34,-148.0726 286.5,-132 296.0141,-118.2978 300.5067,-99.7642 302.624,-85.8251"/>
<polygon fill="#191970" stroke="#191970" points="306.1084,-86.1655 303.8633,-75.8113 299.1614,-85.3057 306.1084,-86.1655"/>
</g>
<!-- Node4 -->
<g id="node5" class="node">
<title>Node4</title>
<polygon fill="#ffffff" stroke="#bfbfbf" points="84,-112.5 84,-131.5 149,-131.5 149,-112.5 84,-112.5"/>
<text text-anchor="middle" x="116.5" y="-119.5" font-family="Helvetica,sans-Serif" font-size="10.00" fill="#000000">em_cmu.h</text>
</g>
<!-- Node2&#45;&gt;Node4 -->
<g id="edge5" class="edge">
<title>Node2&#45;&gt;Node4</title>
<path fill="none" stroke="#191970" d="M204.0362,-168.2455C187.3926,-159.4527 162.7007,-146.4079 143.7808,-136.4125"/>
<polygon fill="#191970" stroke="#191970" points="145.2291,-133.2193 134.7522,-131.6427 141.9592,-139.4086 145.2291,-133.2193"/>
</g>
<!-- Node5 -->
<g id="node6" class="node">
<title>Node5</title>
<g id="a_node6"><a xlink:href="usbdev__cfg__otg__fs_8h.html" target="_top" xlink:title="Common configuration for EFM32 OTG FS peripheral. ">
<polygon fill="#ffffff" stroke="#000000" points="167,-112.5 167,-131.5 278,-131.5 278,-112.5 167,-112.5"/>
<text text-anchor="middle" x="222.5" y="-119.5" font-family="Helvetica,sans-Serif" font-size="10.00" fill="#000000">usbdev_cfg_otg_fs.h</text>
</a>
</g>
</g>
<!-- Node2&#45;&gt;Node5 -->
<g id="edge6" class="edge">
<title>Node2&#45;&gt;Node5</title>
<path fill="none" stroke="#191970" d="M222.5,-168.2455C222.5,-160.9382 222.5,-150.6944 222.5,-141.7046"/>
<polygon fill="#191970" stroke="#191970" points="226.0001,-141.6426 222.5,-131.6427 219.0001,-141.6427 226.0001,-141.6426"/>
</g>
<!-- Node5&#45;&gt;Node3 -->
<g id="edge7" class="edge">
<title>Node5&#45;&gt;Node3</title>
<path fill="none" stroke="#191970" d="M236.7833,-112.2455C249.247,-103.7337 267.5451,-91.2375 281.9792,-81.3801"/>
<polygon fill="#191970" stroke="#191970" points="284.0962,-84.1726 290.3804,-75.6427 280.1485,-78.392 284.0962,-84.1726"/>
</g>
<!-- Node6 -->
<g id="node7" class="node">
<title>Node6</title>
<polygon fill="#ffffff" stroke="#bfbfbf" points="0,-56.5 0,-75.5 95,-75.5 95,-56.5 0,-56.5"/>
<text text-anchor="middle" x="47.5" y="-63.5" font-family="Helvetica,sans-Serif" font-size="10.00" fill="#000000">usbdev_efm32.h</text>
</g>
<!-- Node5&#45;&gt;Node6 -->
<g id="edge8" class="edge">
<title>Node5&#45;&gt;Node6</title>
<path fill="none" stroke="#191970" d="M192.4164,-112.3733C163.3166,-103.0613 119.0477,-88.8953 87.097,-78.671"/>
<polygon fill="#191970" stroke="#191970" points="87.782,-75.2155 77.191,-75.5011 85.6485,-81.8824 87.782,-75.2155"/>
</g>
<!-- Node7 -->
<g id="node8" class="node">
<title>Node7</title>
<g id="a_node8"><a xlink:href="usbdev__synopsys__dwc2_8h.html" target="_top" xlink:title="Low level USB FS/HS driver definitions for MCUs with Synopsys DWC2 IP core. ">
<polygon fill="#ffffff" stroke="#000000" points="113.5,-56.5 113.5,-75.5 247.5,-75.5 247.5,-56.5 113.5,-56.5"/>
<text text-anchor="middle" x="180.5" y="-63.5" font-family="Helvetica,sans-Serif" font-size="10.00" fill="#000000">usbdev_synopsys_dwc2.h</text>
</a>
</g>
</g>
<!-- Node5&#45;&gt;Node7 -->
<g id="edge9" class="edge">
<title>Node5&#45;&gt;Node7</title>
<path fill="none" stroke="#191970" d="M215.1842,-112.2455C209.2821,-104.3761 200.8258,-93.101 193.7406,-83.6542"/>
<polygon fill="#191970" stroke="#191970" points="196.5321,-81.5427 187.732,-75.6427 190.932,-85.7427 196.5321,-81.5427"/>
</g>
<!-- Node8 -->
<g id="node9" class="node">
<title>Node8</title>
<polygon fill="#ffffff" stroke="#bfbfbf" points="363.5,-.5 363.5,-19.5 415.5,-19.5 415.5,-.5 363.5,-.5"/>
<text text-anchor="middle" x="389.5" y="-7.5" font-family="Helvetica,sans-Serif" font-size="10.00" fill="#000000">stdint.h</text>
</g>
<!-- Node7&#45;&gt;Node8 -->
<g id="edge10" class="edge">
<title>Node7&#45;&gt;Node8</title>
<path fill="none" stroke="#191970" d="M216.4284,-56.3733C254.7835,-46.0963 315.2043,-29.907 353.5629,-19.6291"/>
<polygon fill="#191970" stroke="#191970" points="354.5328,-22.9927 363.2862,-17.0238 352.721,-16.2313 354.5328,-22.9927"/>
</g>
<!-- Node9&#45;&gt;Node3 -->
<g id="edge14" class="edge">
<title>Node9&#45;&gt;Node3</title>
<path fill="none" stroke="#191970" d="M639.4329,-113.575C636.4148,-113.0164 633.412,-112.4843 630.5,-112 510.4184,-92.0269 476.52,-96.7529 353.3845,-76.2155"/>
<polygon fill="#191970" stroke="#191970" points="353.6243,-72.7064 343.1807,-74.4904 352.4573,-79.6085 353.6243,-72.7064"/>
</g>
<!-- Node10 -->
<g id="node11" class="node">
<title>Node10</title>
<polygon fill="#ffffff" stroke="#bfbfbf" points="649.5,-56.5 649.5,-75.5 699.5,-75.5 699.5,-56.5 649.5,-56.5"/>
<text text-anchor="middle" x="674.5" y="-63.5" font-family="Helvetica,sans-Serif" font-size="10.00" fill="#000000">limits.h</text>
</g>
<!-- Node9&#45;&gt;Node10 -->
<g id="edge12" class="edge">
<title>Node9&#45;&gt;Node10</title>
<path fill="none" stroke="#191970" d="M678.6291,-112.2455C677.9766,-104.9382 677.062,-94.6944 676.2593,-85.7046"/>
<polygon fill="#191970" stroke="#191970" points="679.7365,-85.2918 675.361,-75.6427 672.7642,-85.9143 679.7365,-85.2918"/>
</g>
<!-- Node11 -->
<g id="node12" class="node">
<title>Node11</title>
<polygon fill="#ffffff" stroke="#bfbfbf" points="717.5,-56.5 717.5,-75.5 777.5,-75.5 777.5,-56.5 717.5,-56.5"/>
<text text-anchor="middle" x="747.5" y="-63.5" font-family="Helvetica,sans-Serif" font-size="10.00" fill="#000000">stdbool.h</text>
</g>
<!-- Node9&#45;&gt;Node11 -->
<g id="edge13" class="edge">
<title>Node9&#45;&gt;Node11</title>
<path fill="none" stroke="#191970" d="M691.3447,-112.2455C701.388,-103.9746 715.9995,-91.9416 727.8004,-82.2232"/>
<polygon fill="#191970" stroke="#191970" points="730.2967,-84.7015 735.791,-75.6427 725.8467,-79.298 730.2967,-84.7015"/>
</g>
<!-- Node12 -->
<g id="node13" class="node">
<title>Node12</title>
<polygon fill="#ffffff" stroke="#bfbfbf" points="513,-56.5 513,-75.5 594,-75.5 594,-56.5 513,-56.5"/>
<text text-anchor="middle" x="553.5" y="-63.5" font-family="Helvetica,sans-Serif" font-size="10.00" fill="#000000">periph_conf.h</text>
</g>
<!-- Node9&#45;&gt;Node12 -->
<g id="edge15" class="edge">
<title>Node9&#45;&gt;Node12</title>
<path fill="none" stroke="#191970" d="M657.8398,-112.3733C637.5228,-103.3435 606.936,-89.7494 584.125,-79.6111"/>
<polygon fill="#191970" stroke="#191970" points="585.4372,-76.3642 574.8775,-75.5011 582.5941,-82.7609 585.4372,-76.3642"/>
</g>
<!-- Node13&#45;&gt;Node3 -->
<g id="edge23" class="edge">
<title>Node13&#45;&gt;Node3</title>
<path fill="none" stroke="#191970" d="M451.7732,-168.4509C423.851,-149.0268 360.2324,-104.7703 326.4786,-81.2895"/>
<polygon fill="#191970" stroke="#191970" points="328.3998,-78.3624 318.192,-75.5249 324.4024,-84.1087 328.3998,-78.3624"/>
</g>
<!-- Node13&#45;&gt;Node8 -->
<g id="edge22" class="edge">
<title>Node13&#45;&gt;Node8</title>
<path fill="none" stroke="#191970" d="M463.8132,-168.3226C459.8214,-147.0082 448.5176,-94.8224 427.5,-56 421.878,-45.6153 413.7275,-35.3575 406.4154,-27.173"/>
<polygon fill="#191970" stroke="#191970" points="408.8827,-24.6866 399.5075,-19.7515 403.7589,-29.456 408.8827,-24.6866"/>
</g>
<!-- Node13&#45;&gt;Node9 -->
<g id="edge25" class="edge">
<title>Node13&#45;&gt;Node9</title>
<path fill="none" stroke="#191970" d="M502.2879,-168.3733C538.5661,-158.8799 594.1236,-144.3415 633.3446,-134.0781"/>
<polygon fill="#191970" stroke="#191970" points="634.404,-137.4188 643.1921,-131.5011 632.6318,-130.6468 634.404,-137.4188"/>
</g>
<!-- Node13&#45;&gt;Node11 -->
<g id="edge20" class="edge">
<title>Node13&#45;&gt;Node11</title>
<path fill="none" stroke="#191970" d="M502.143,-176.2864C566.3968,-172.5405 695.6966,-161.4643 728.5,-132 741.3653,-120.4443 745.7516,-100.7989 747.1369,-85.9387"/>
<polygon fill="#191970" stroke="#191970" points="750.6444,-85.8991 747.7021,-75.721 743.6551,-85.5124 750.6444,-85.8991"/>
</g>
<!-- Node13&#45;&gt;Node12 -->
<g id="edge24" class="edge">
<title>Node13&#45;&gt;Node12</title>
<path fill="none" stroke="#191970" d="M466.4173,-168.1304C468.1259,-154.3626 472.856,-129.1557 485.5,-112 495.2563,-98.7624 510.0304,-88.1134 523.3179,-80.4085"/>
<polygon fill="#191970" stroke="#191970" points="525.1066,-83.4195 532.1994,-75.5491 521.7467,-77.2786 525.1066,-83.4195"/>
</g>
<!-- Node14 -->
<g id="node15" class="node">
<title>Node14</title>
<g id="a_node15"><a xlink:href="endian_8h.html" target="_top" xlink:title="libc header for endian conversion ">
<polygon fill="#ffffff" stroke="#000000" points="361,-56.5 361,-75.5 418,-75.5 418,-56.5 361,-56.5"/>
<text text-anchor="middle" x="389.5" y="-63.5" font-family="Helvetica,sans-Serif" font-size="10.00" fill="#000000">endian.h</text>
</a>
</g>
</g>
<!-- Node13&#45;&gt;Node14 -->
<g id="edge17" class="edge">
<title>Node13&#45;&gt;Node14</title>
<path fill="none" stroke="#191970" d="M450.9038,-168.2204C439.3494,-159.8168 423.538,-146.7464 413.5,-132 403.8638,-117.8439 397.5771,-99.3544 393.865,-85.5476"/>
<polygon fill="#191970" stroke="#191970" points="397.2172,-84.5226 391.4252,-75.6511 390.4207,-86.1982 397.2172,-84.5226"/>
</g>
<!-- Node15 -->
<g id="node16" class="node">
<title>Node15</title>
<g id="a_node16"><a xlink:href="errno_8h.html" target="_top" xlink:title="errno.h">
<polygon fill="#ffffff" stroke="#000000" points="494,-112.5 494,-131.5 547,-131.5 547,-112.5 494,-112.5"/>
<text text-anchor="middle" x="520.5" y="-119.5" font-family="Helvetica,sans-Serif" font-size="10.00" fill="#000000">errno.h</text>
</a>
</g>
</g>
<!-- Node13&#45;&gt;Node15 -->
<g id="edge19" class="edge">
<title>Node13&#45;&gt;Node15</title>
<path fill="none" stroke="#191970" d="M475.0803,-168.2455C483.0458,-160.1352 494.5641,-148.4075 504.0079,-138.7919"/>
<polygon fill="#191970" stroke="#191970" points="506.5195,-141.2297 511.0295,-131.6427 501.5253,-136.3247 506.5195,-141.2297"/>
</g>
<!-- Node16 -->
<g id="node17" class="node">
<title>Node16</title>
<polygon fill="#ffffff" stroke="#bfbfbf" points="565.5,-112.5 565.5,-131.5 621.5,-131.5 621.5,-112.5 565.5,-112.5"/>
<text text-anchor="middle" x="593.5" y="-119.5" font-family="Helvetica,sans-Serif" font-size="10.00" fill="#000000">stddef.h</text>
</g>
<!-- Node13&#45;&gt;Node16 -->
<g id="edge21" class="edge">
<title>Node13&#45;&gt;Node16</title>
<path fill="none" stroke="#191970" d="M487.504,-168.3733C508.1435,-159.3435 539.2158,-145.7494 562.3889,-135.6111"/>
<polygon fill="#191970" stroke="#191970" points="564.0245,-138.7159 571.7831,-131.5011 561.2187,-132.3028 564.0245,-138.7159"/>
</g>
<!-- Node14&#45;&gt;Node8 -->
<g id="edge18" class="edge">
<title>Node14&#45;&gt;Node8</title>
<path fill="none" stroke="#191970" d="M389.5,-56.2455C389.5,-48.9382 389.5,-38.6944 389.5,-29.7046"/>
<polygon fill="#191970" stroke="#191970" points="393.0001,-29.6426 389.5,-19.6427 386.0001,-29.6427 393.0001,-29.6426"/>
</g>
</g>
</svg>
