<?xml version="1.0" encoding="UTF-8" standalone="no"?>
<!DOCTYPE svg PUBLIC "-//W3C//DTD SVG 1.1//EN"
 "http://www.w3.org/Graphics/SVG/1.1/DTD/svg11.dtd">
<!-- Generated by graphviz version 2.40.1 (0)
 -->
<!-- Title: sys/include/net/sock/dtls.h Pages: 1 -->
<svg width="966pt" height="375pt"
 viewBox="0.00 0.00 966.40 375.00" xmlns="http://www.w3.org/2000/svg" xmlns:xlink="http://www.w3.org/1999/xlink">
<g id="graph0" class="graph" transform="scale(1 1) rotate(0) translate(4 371)">
<title>sys/include/net/sock/dtls.h</title>
<polygon fill="#ffffff" stroke="transparent" points="-4,4 -4,-371 962.4011,-371 962.4011,4 -4,4"/>
<!-- Node0 -->
<g id="node1" class="node">
<title>Node0</title>
<polygon fill="#bfbfbf" stroke="#000000" points="448.4011,-336.5 448.4011,-366.5 559.4011,-366.5 559.4011,-336.5 448.4011,-336.5"/>
<text text-anchor="start" x="456.4011" y="-354.5" font-family="Helvetica,sans-Serif" font-size="10.00" fill="#000000">sys/include/net/sock</text>
<text text-anchor="middle" x="503.9011" y="-343.5" font-family="Helvetica,sans-Serif" font-size="10.00" fill="#000000">/dtls.h</text>
</g>
<!-- Node1 -->
<g id="node2" class="node">
<title>Node1</title>
<g id="a_node2"><a xlink:href="assert_8h.html" target="_top" xlink:title="POSIX.1&#45;2008 compliant version of the assert macro. ">
<polygon fill="#ffffff" stroke="#000000" points="326.9011,-224.5 326.9011,-243.5 380.9011,-243.5 380.9011,-224.5 326.9011,-224.5"/>
<text text-anchor="middle" x="353.9011" y="-231.5" font-family="Helvetica,sans-Serif" font-size="10.00" fill="#000000">assert.h</text>
</a>
</g>
</g>
<!-- Node0&#45;&gt;Node1 -->
<g id="edge1" class="edge">
<title>Node0&#45;&gt;Node1</title>
<path fill="none" stroke="#191970" d="M484.5983,-336.3795C456.2019,-314.1356 403.4016,-272.7754 374.3594,-250.0256"/>
<polygon fill="#191970" stroke="#191970" points="376.1929,-247.016 366.1623,-243.6046 371.8763,-252.5266 376.1929,-247.016"/>
</g>
<!-- Node2 -->
<g id="node3" class="node">
<title>Node2</title>
<polygon fill="#ffffff" stroke="#bfbfbf" points="307.9011,-.5 307.9011,-19.5 359.9011,-19.5 359.9011,-.5 307.9011,-.5"/>
<text text-anchor="middle" x="333.9011" y="-7.5" font-family="Helvetica,sans-Serif" font-size="10.00" fill="#000000">stdint.h</text>
</g>
<!-- Node0&#45;&gt;Node2 -->
<g id="edge4" class="edge">
<title>Node0&#45;&gt;Node2</title>
<path fill="none" stroke="#191970" d="M448.1609,-344.2978C386.5488,-332.848 295.9011,-304.0921 295.9011,-234 295.9011,-234 295.9011,-234 295.9011,-122 295.9011,-87.6118 312.1645,-50.2832 323.4121,-28.5791"/>
<polygon fill="#191970" stroke="#191970" points="326.6328,-29.9804 328.2941,-19.5166 320.4701,-26.6605 326.6328,-29.9804"/>
</g>
<!-- Node3 -->
<g id="node4" class="node">
<title>Node3</title>
<g id="a_node4"><a xlink:href="errno_8h.html" target="_top" xlink:title="errno.h">
<polygon fill="#ffffff" stroke="#000000" points="749.4011,-224.5 749.4011,-243.5 802.4011,-243.5 802.4011,-224.5 749.4011,-224.5"/>
<text text-anchor="middle" x="775.9011" y="-231.5" font-family="Helvetica,sans-Serif" font-size="10.00" fill="#000000">errno.h</text>
</a>
</g>
</g>
<!-- Node0&#45;&gt;Node3 -->
<g id="edge3" class="edge">
<title>Node0&#45;&gt;Node3</title>
<path fill="none" stroke="#191970" d="M538.6264,-336.4992C591.907,-313.4828 693.0308,-269.7988 744.3413,-247.6334"/>
<polygon fill="#191970" stroke="#191970" points="745.823,-250.8059 753.6151,-243.6272 743.047,-244.3799 745.823,-250.8059"/>
</g>
<!-- Node4 -->
<g id="node5" class="node">
<title>Node4</title>
<polygon fill="#ffffff" stroke="#bfbfbf" points="820.9011,-224.5 820.9011,-243.5 870.9011,-243.5 870.9011,-224.5 820.9011,-224.5"/>
<text text-anchor="middle" x="845.9011" y="-231.5" font-family="Helvetica,sans-Serif" font-size="10.00" fill="#000000">stdlib.h</text>
</g>
<!-- Node0&#45;&gt;Node4 -->
<g id="edge5" class="edge">
<title>Node0&#45;&gt;Node4</title>
<path fill="none" stroke="#191970" d="M549.446,-336.4667C580.1325,-326.2892 621.4982,-312.4759 657.9011,-300 711.5207,-281.6236 773.5211,-259.7321 811.2065,-246.3539"/>
<polygon fill="#191970" stroke="#191970" points="812.4522,-249.6258 820.7035,-242.98 810.1088,-243.0297 812.4522,-249.6258"/>
</g>
<!-- Node5 -->
<g id="node6" class="node">
<title>Node5</title>
<polygon fill="#ffffff" stroke="#bfbfbf" points="889.4011,-224.5 889.4011,-243.5 958.4011,-243.5 958.4011,-224.5 889.4011,-224.5"/>
<text text-anchor="middle" x="923.9011" y="-231.5" font-family="Helvetica,sans-Serif" font-size="10.00" fill="#000000">sys/types.h</text>
</g>
<!-- Node0&#45;&gt;Node5 -->
<g id="edge6" class="edge">
<title>Node0&#45;&gt;Node5</title>
<path fill="none" stroke="#191970" d="M559.779,-337.2865C599.0562,-327.1812 652.7915,-313.1263 699.9011,-300 763.985,-282.1441 837.9468,-260.0625 882.7947,-246.5084"/>
<polygon fill="#191970" stroke="#191970" points="883.8965,-249.8318 892.4538,-243.585 881.8687,-243.132 883.8965,-249.8318"/>
</g>
<!-- Node6 -->
<g id="node7" class="node">
<title>Node6</title>
<g id="a_node7"><a xlink:href="sock_8h.html" target="_top" xlink:title="Common sock API definitions. ">
<polygon fill="#ffffff" stroke="#000000" points="187.4011,-224.5 187.4011,-243.5 252.4011,-243.5 252.4011,-224.5 187.4011,-224.5"/>
<text text-anchor="middle" x="219.9011" y="-231.5" font-family="Helvetica,sans-Serif" font-size="10.00" fill="#000000">net/sock.h</text>
</a>
</g>
</g>
<!-- Node0&#45;&gt;Node6 -->
<g id="edge7" class="edge">
<title>Node0&#45;&gt;Node6</title>
<path fill="none" stroke="#191970" d="M448.161,-347.6046C401.163,-342.283 333.5078,-329.7055 281.9011,-300 261.3654,-288.1794 243.5198,-267.4005 232.3148,-252.3088"/>
<polygon fill="#191970" stroke="#191970" points="234.8873,-249.8879 226.2316,-243.778 229.1879,-253.9521 234.8873,-249.8879"/>
</g>
<!-- Node11 -->
<g id="node12" class="node">
<title>Node11</title>
<g id="a_node12"><a xlink:href="sock_2udp_8h.html" target="_top" xlink:title="UDP sock definitions. ">
<polygon fill="#ffffff" stroke="#000000" points="511.4011,-280.5 511.4011,-299.5 598.4011,-299.5 598.4011,-280.5 511.4011,-280.5"/>
<text text-anchor="middle" x="554.9011" y="-287.5" font-family="Helvetica,sans-Serif" font-size="10.00" fill="#000000">net/sock/udp.h</text>
</a>
</g>
</g>
<!-- Node0&#45;&gt;Node11 -->
<g id="edge17" class="edge">
<title>Node0&#45;&gt;Node11</title>
<path fill="none" stroke="#191970" d="M516.5078,-336.2977C523.6609,-327.672 532.6508,-316.8312 540.1329,-307.8087"/>
<polygon fill="#191970" stroke="#191970" points="543.0461,-309.7787 546.7353,-299.8469 537.6578,-305.3103 543.0461,-309.7787"/>
</g>
<!-- Node21 -->
<g id="node22" class="node">
<title>Node21</title>
<g id="a_node22"><a xlink:href="credman_8h.html" target="_top" xlink:title="(D)TLS credentials management module definitions ">
<polygon fill="#ffffff" stroke="#000000" points="39.9011,-168.5 39.9011,-187.5 125.9011,-187.5 125.9011,-168.5 39.9011,-168.5"/>
<text text-anchor="middle" x="82.9011" y="-175.5" font-family="Helvetica,sans-Serif" font-size="10.00" fill="#000000">net/credman.h</text>
</a>
</g>
</g>
<!-- Node0&#45;&gt;Node21 -->
<g id="edge42" class="edge">
<title>Node0&#45;&gt;Node21</title>
<path fill="none" stroke="#191970" d="M448.0271,-346.7974C395.7762,-340.8549 316.4778,-327.8156 252.9011,-300 191.4096,-273.0967 130.1271,-221.4787 100.7822,-194.834"/>
<polygon fill="#191970" stroke="#191970" points="102.7838,-191.9194 93.0561,-187.7214 98.0427,-197.0694 102.7838,-191.9194"/>
</g>
<!-- Node1&#45;&gt;Node2 -->
<g id="edge2" class="edge">
<title>Node1&#45;&gt;Node2</title>
<path fill="none" stroke="#191970" d="M353.0417,-224.375C350.0158,-190.4851 339.8146,-76.2317 335.6719,-29.8332"/>
<polygon fill="#191970" stroke="#191970" points="339.1328,-29.2382 334.7573,-19.5891 332.1605,-29.8608 339.1328,-29.2382"/>
</g>
<!-- Node6&#45;&gt;Node2 -->
<g id="edge8" class="edge">
<title>Node6&#45;&gt;Node2</title>
<path fill="none" stroke="#191970" d="M221.4791,-224.3517C226.4229,-196.2877 243.619,-113.0692 281.9011,-56 289.6647,-44.4263 301.0232,-33.9235 311.1454,-25.8852"/>
<polygon fill="#191970" stroke="#191970" points="313.3946,-28.5723 319.2512,-19.7433 309.167,-22.993 313.3946,-28.5723"/>
</g>
<!-- Node7 -->
<g id="node8" class="node">
<title>Node7</title>
<polygon fill="#ffffff" stroke="#bfbfbf" points="21.9011,-.5 21.9011,-19.5 77.9011,-19.5 77.9011,-.5 21.9011,-.5"/>
<text text-anchor="middle" x="49.9011" y="-7.5" font-family="Helvetica,sans-Serif" font-size="10.00" fill="#000000">stddef.h</text>
</g>
<!-- Node6&#45;&gt;Node7 -->
<g id="edge9" class="edge">
<title>Node6&#45;&gt;Node7</title>
<path fill="none" stroke="#191970" d="M187.2869,-229.4334C139.8522,-222.2402 54.8664,-207.1018 30.9011,-188 2.7516,-165.5632 -4.8102,-147.1616 2.9011,-112 9.7211,-80.9027 26.9614,-47.9795 38.555,-28.2103"/>
<polygon fill="#191970" stroke="#191970" points="41.5628,-30.0001 43.7224,-19.6277 35.5658,-26.3894 41.5628,-30.0001"/>
</g>
<!-- Node8 -->
<g id="node9" class="node">
<title>Node8</title>
<g id="a_node9"><a xlink:href="iolist_8h.html" target="_top" xlink:title="iolist scatter / gather IO ">
<polygon fill="#ffffff" stroke="#000000" points="144.4011,-168.5 144.4011,-187.5 191.4011,-187.5 191.4011,-168.5 144.4011,-168.5"/>
<text text-anchor="middle" x="167.9011" y="-175.5" font-family="Helvetica,sans-Serif" font-size="10.00" fill="#000000">iolist.h</text>
</a>
</g>
</g>
<!-- Node6&#45;&gt;Node8 -->
<g id="edge10" class="edge">
<title>Node6&#45;&gt;Node8</title>
<path fill="none" stroke="#191970" d="M210.8434,-224.2455C203.3869,-216.2155 192.6377,-204.6394 183.7594,-195.0781"/>
<polygon fill="#191970" stroke="#191970" points="186.2243,-192.589 176.855,-187.6427 181.0948,-197.3522 186.2243,-192.589"/>
</g>
<!-- Node9 -->
<g id="node10" class="node">
<title>Node9</title>
<g id="a_node10"><a xlink:href="unistd_8h_source.html" target="_top" xlink:title="unistd.h">
<polygon fill="#ffffff" stroke="#000000" points="95.9011,-112.5 95.9011,-131.5 149.9011,-131.5 149.9011,-112.5 95.9011,-112.5"/>
<text text-anchor="middle" x="122.9011" y="-119.5" font-family="Helvetica,sans-Serif" font-size="10.00" fill="#000000">unistd.h</text>
</a>
</g>
</g>
<!-- Node8&#45;&gt;Node9 -->
<g id="edge11" class="edge">
<title>Node8&#45;&gt;Node9</title>
<path fill="none" stroke="#191970" d="M160.0627,-168.2455C153.739,-160.3761 144.6787,-149.101 137.0875,-139.6542"/>
<polygon fill="#191970" stroke="#191970" points="139.6419,-137.2454 130.6497,-131.6427 134.1853,-141.6302 139.6419,-137.2454"/>
</g>
<!-- Node9&#45;&gt;Node2 -->
<g id="edge13" class="edge">
<title>Node9&#45;&gt;Node2</title>
<path fill="none" stroke="#191970" d="M126.8631,-112.3271C133.292,-97.853 147.3784,-70.6932 167.9011,-56 206.7415,-28.1922 261.7396,-17.1773 297.6108,-12.8254"/>
<polygon fill="#191970" stroke="#191970" points="298.0834,-16.2946 307.6405,-11.7217 297.3176,-9.3366 298.0834,-16.2946"/>
</g>
<!-- Node9&#45;&gt;Node7 -->
<g id="edge12" class="edge">
<title>Node9&#45;&gt;Node7</title>
<path fill="none" stroke="#191970" d="M98.6273,-112.3473C75.7165,-102.6834 43.8633,-87.6196 36.9011,-76 28.3035,-61.651 33.3964,-42.6975 39.5514,-28.7839"/>
<polygon fill="#191970" stroke="#191970" points="42.7564,-30.1981 44.0403,-19.6813 36.4783,-27.102 42.7564,-30.1981"/>
</g>
<!-- Node10 -->
<g id="node11" class="node">
<title>Node10</title>
<g id="a_node11"><a xlink:href="cpu_2avr8__common_2avr__libc__extra_2include_2sys_2types_8h_source.html" target="_top" xlink:title="sys/types.h">
<polygon fill="#ffffff" stroke="#000000" points="46.4011,-56.5 46.4011,-75.5 115.4011,-75.5 115.4011,-56.5 46.4011,-56.5"/>
<text text-anchor="middle" x="80.9011" y="-63.5" font-family="Helvetica,sans-Serif" font-size="10.00" fill="#000000">sys/types.h</text>
</a>
</g>
</g>
<!-- Node9&#45;&gt;Node10 -->
<g id="edge14" class="edge">
<title>Node9&#45;&gt;Node10</title>
<path fill="none" stroke="#191970" d="M115.5852,-112.2455C109.6832,-104.3761 101.2268,-93.101 94.1417,-83.6542"/>
<polygon fill="#191970" stroke="#191970" points="96.9331,-81.5427 88.1331,-75.6427 91.3331,-85.7427 96.9331,-81.5427"/>
</g>
<!-- Node10&#45;&gt;Node2 -->
<g id="edge15" class="edge">
<title>Node10&#45;&gt;Node2</title>
<path fill="none" stroke="#191970" d="M115.5492,-58.3309C163.4342,-47.7318 249.4171,-28.7 297.9713,-17.9528"/>
<polygon fill="#191970" stroke="#191970" points="298.7297,-21.3698 307.737,-15.7913 297.2169,-14.5352 298.7297,-21.3698"/>
</g>
<!-- Node10&#45;&gt;Node7 -->
<g id="edge16" class="edge">
<title>Node10&#45;&gt;Node7</title>
<path fill="none" stroke="#191970" d="M75.5013,-56.2455C71.2784,-48.617 65.2838,-37.7881 60.157,-28.5267"/>
<polygon fill="#191970" stroke="#191970" points="63.1443,-26.6965 55.239,-19.6427 57.0201,-30.0867 63.1443,-26.6965"/>
</g>
<!-- Node11&#45;&gt;Node1 -->
<g id="edge18" class="edge">
<title>Node11&#45;&gt;Node1</title>
<path fill="none" stroke="#191970" d="M520.348,-280.3733C484.2335,-270.3115 427.7776,-254.5825 390.808,-244.2825"/>
<polygon fill="#191970" stroke="#191970" points="391.503,-240.8429 380.9306,-241.5306 389.6243,-247.5861 391.503,-240.8429"/>
</g>
<!-- Node11&#45;&gt;Node2 -->
<g id="edge20" class="edge">
<title>Node11&#45;&gt;Node2</title>
<path fill="none" stroke="#191970" d="M556.8108,-280.3106C559.5936,-267.1809 565.3778,-243.1769 573.9011,-224 608.4761,-146.2081 721.8136,-120.1935 665.9011,-56 646.656,-33.9046 452.1683,-18.102 370.1141,-12.3681"/>
<polygon fill="#191970" stroke="#191970" points="370.2129,-8.8667 359.9963,-11.6725 369.7327,-15.8503 370.2129,-8.8667"/>
</g>
<!-- Node11&#45;&gt;Node3 -->
<g id="edge19" class="edge">
<title>Node11&#45;&gt;Node3</title>
<path fill="none" stroke="#191970" d="M594.6776,-280.4413C630.1441,-271.8442 683.7127,-258.6782 739.4877,-244.059"/>
<polygon fill="#191970" stroke="#191970" points="740.406,-247.4366 749.1867,-241.5078 738.6253,-240.6669 740.406,-247.4366"/>
</g>
<!-- Node11&#45;&gt;Node4 -->
<g id="edge21" class="edge">
<title>Node11&#45;&gt;Node4</title>
<path fill="none" stroke="#191970" d="M598.8537,-283.626C648.2569,-276.1311 731.002,-262.5887 810.9928,-244.0236"/>
<polygon fill="#191970" stroke="#191970" points="811.7977,-247.4298 820.7316,-241.7347 810.1961,-240.6155 811.7977,-247.4298"/>
</g>
<!-- Node11&#45;&gt;Node5 -->
<g id="edge22" class="edge">
<title>Node11&#45;&gt;Node5</title>
<path fill="none" stroke="#191970" d="M598.4558,-284.9995C659.097,-277.7816 772.5845,-263.349 879.3883,-243.9624"/>
<polygon fill="#191970" stroke="#191970" points="880.165,-247.3784 889.3698,-242.1323 878.9025,-240.4932 880.165,-247.3784"/>
</g>
<!-- Node11&#45;&gt;Node6 -->
<g id="edge24" class="edge">
<title>Node11&#45;&gt;Node6</title>
<path fill="none" stroke="#191970" d="M511.1057,-282.679C446.5928,-271.8947 326.7641,-251.8637 262.7799,-241.1678"/>
<polygon fill="#191970" stroke="#191970" points="263.0725,-237.6682 252.6322,-239.4715 261.9183,-244.5724 263.0725,-237.6682"/>
</g>
<!-- Node12 -->
<g id="node13" class="node">
<title>Node12</title>
<g id="a_node13"><a xlink:href="af_8h.html" target="_top" xlink:title="Global UNIX address family definitions. ">
<polygon fill="#ffffff" stroke="#000000" points="582.9011,-224.5 582.9011,-243.5 636.9011,-243.5 636.9011,-224.5 582.9011,-224.5"/>
<text text-anchor="middle" x="609.9011" y="-231.5" font-family="Helvetica,sans-Serif" font-size="10.00" fill="#000000">net/af.h</text>
</a>
</g>
</g>
<!-- Node11&#45;&gt;Node12 -->
<g id="edge23" class="edge">
<title>Node11&#45;&gt;Node12</title>
<path fill="none" stroke="#191970" d="M564.4814,-280.2455C572.4468,-272.1352 583.9651,-260.4075 593.409,-250.7919"/>
<polygon fill="#191970" stroke="#191970" points="595.9206,-253.2297 600.4306,-243.6427 590.9264,-248.3247 595.9206,-253.2297"/>
</g>
<!-- Node13 -->
<g id="node14" class="node">
<title>Node13</title>
<g id="a_node14"><a xlink:href="ipv4_2addr_8h.html" target="_top" xlink:title="IPv4 address type and helper functions definitions. ">
<polygon fill="#ffffff" stroke="#000000" points="364.4011,-168.5 364.4011,-187.5 453.4011,-187.5 453.4011,-168.5 364.4011,-168.5"/>
<text text-anchor="middle" x="408.9011" y="-175.5" font-family="Helvetica,sans-Serif" font-size="10.00" fill="#000000">net/ipv4/addr.h</text>
</a>
</g>
</g>
<!-- Node11&#45;&gt;Node13 -->
<g id="edge25" class="edge">
<title>Node11&#45;&gt;Node13</title>
<path fill="none" stroke="#191970" d="M511.2388,-284.1286C484.1096,-278.2988 450.422,-266.7568 428.9011,-244 417.1011,-231.5223 412.2454,-212.3072 410.2568,-197.8219"/>
<polygon fill="#191970" stroke="#191970" points="413.7365,-197.4442 409.2273,-187.8568 406.7735,-198.1635 413.7365,-197.4442"/>
</g>
<!-- Node19 -->
<g id="node20" class="node">
<title>Node19</title>
<g id="a_node20"><a xlink:href="ipv6_2addr_8h.html" target="_top" xlink:title="Definitions for IPv6 addresses. ">
<polygon fill="#ffffff" stroke="#000000" points="437.4011,-224.5 437.4011,-243.5 526.4011,-243.5 526.4011,-224.5 437.4011,-224.5"/>
<text text-anchor="middle" x="481.9011" y="-231.5" font-family="Helvetica,sans-Serif" font-size="10.00" fill="#000000">net/ipv6/addr.h</text>
</a>
</g>
</g>
<!-- Node11&#45;&gt;Node19 -->
<g id="edge36" class="edge">
<title>Node11&#45;&gt;Node19</title>
<path fill="none" stroke="#191970" d="M542.1855,-280.2455C531.299,-271.8943 515.4128,-259.7076 502.6811,-249.9408"/>
<polygon fill="#191970" stroke="#191970" points="504.5357,-246.9523 494.471,-243.6427 500.275,-252.5063 504.5357,-246.9523"/>
</g>
<!-- Node20 -->
<g id="node21" class="node">
<title>Node20</title>
<polygon fill="#ffffff" stroke="#bfbfbf" points="654.9011,-224.5 654.9011,-243.5 730.9011,-243.5 730.9011,-224.5 654.9011,-224.5"/>
<text text-anchor="middle" x="692.9011" y="-231.5" font-family="Helvetica,sans-Serif" font-size="10.00" fill="#000000">sock_types.h</text>
</g>
<!-- Node11&#45;&gt;Node20 -->
<g id="edge41" class="edge">
<title>Node11&#45;&gt;Node20</title>
<path fill="none" stroke="#191970" d="M578.6241,-280.3733C601.0747,-271.2629 634.975,-257.5062 660.0266,-247.3404"/>
<polygon fill="#191970" stroke="#191970" points="661.5375,-250.5045 669.4876,-243.5011 658.9054,-244.0182 661.5375,-250.5045"/>
</g>
<!-- Node13&#45;&gt;Node2 -->
<g id="edge27" class="edge">
<title>Node13&#45;&gt;Node2</title>
<path fill="none" stroke="#191970" d="M404.6539,-168.4862C392.6955,-141.6994 358.5692,-65.2565 342.4854,-29.2289"/>
<polygon fill="#191970" stroke="#191970" points="345.5611,-27.5325 338.2885,-19.8279 339.1691,-30.3861 345.5611,-27.5325"/>
</g>
<!-- Node13&#45;&gt;Node7 -->
<g id="edge28" class="edge">
<title>Node13&#45;&gt;Node7</title>
<path fill="none" stroke="#191970" d="M388.5711,-168.4862C328.3633,-140.311 150.7605,-57.1988 79.7432,-23.9651"/>
<polygon fill="#191970" stroke="#191970" points="80.9939,-20.6862 70.4531,-19.6177 78.0269,-27.0263 80.9939,-20.6862"/>
</g>
<!-- Node14 -->
<g id="node15" class="node">
<title>Node14</title>
<polygon fill="#ffffff" stroke="#bfbfbf" points="499.9011,-112.5 499.9011,-131.5 559.9011,-131.5 559.9011,-112.5 499.9011,-112.5"/>
<text text-anchor="middle" x="529.9011" y="-119.5" font-family="Helvetica,sans-Serif" font-size="10.00" fill="#000000">stdbool.h</text>
</g>
<!-- Node13&#45;&gt;Node14 -->
<g id="edge26" class="edge">
<title>Node13&#45;&gt;Node14</title>
<path fill="none" stroke="#191970" d="M429.7017,-168.3733C449.1254,-159.3838 478.3235,-145.8706 500.1975,-135.7471"/>
<polygon fill="#191970" stroke="#191970" points="501.7667,-138.8776 509.3719,-131.5011 498.8266,-132.5249 501.7667,-138.8776"/>
</g>
<!-- Node15 -->
<g id="node16" class="node">
<title>Node15</title>
<g id="a_node16"><a xlink:href="byteorder_8h.html" target="_top" xlink:title="Functions to work with different byte orders. ">
<polygon fill="#ffffff" stroke="#000000" points="408.4011,-112.5 408.4011,-131.5 481.4011,-131.5 481.4011,-112.5 408.4011,-112.5"/>
<text text-anchor="middle" x="444.9011" y="-119.5" font-family="Helvetica,sans-Serif" font-size="10.00" fill="#000000">byteorder.h</text>
</a>
</g>
</g>
<!-- Node13&#45;&gt;Node15 -->
<g id="edge29" class="edge">
<title>Node13&#45;&gt;Node15</title>
<path fill="none" stroke="#191970" d="M415.1718,-168.2455C420.1275,-160.5367 427.1841,-149.5598 433.1787,-140.2348"/>
<polygon fill="#191970" stroke="#191970" points="436.2387,-141.9471 438.7022,-131.6427 430.3505,-138.1618 436.2387,-141.9471"/>
</g>
<!-- Node15&#45;&gt;Node2 -->
<g id="edge31" class="edge">
<title>Node15&#45;&gt;Node2</title>
<path fill="none" stroke="#191970" d="M478.9074,-112.4467C508.1231,-103.4704 546.9206,-89.4428 555.9011,-76 560.8389,-68.6087 561.5127,-62.8936 555.9011,-56 532.8594,-27.6944 426.6934,-16.2588 369.9331,-12.1058"/>
<polygon fill="#191970" stroke="#191970" points="370.1591,-8.6131 359.9408,-11.4126 369.6746,-15.5963 370.1591,-8.6131"/>
</g>
<!-- Node16 -->
<g id="node17" class="node">
<title>Node16</title>
<polygon fill="#ffffff" stroke="#bfbfbf" points="603.4011,-56.5 603.4011,-75.5 656.4011,-75.5 656.4011,-56.5 603.4011,-56.5"/>
<text text-anchor="middle" x="629.9011" y="-63.5" font-family="Helvetica,sans-Serif" font-size="10.00" fill="#000000">string.h</text>
</g>
<!-- Node15&#45;&gt;Node16 -->
<g id="edge30" class="edge">
<title>Node15&#45;&gt;Node16</title>
<path fill="none" stroke="#191970" d="M476.7037,-112.3733C509.0976,-102.5676 559.2729,-87.3793 593.3002,-77.0792"/>
<polygon fill="#191970" stroke="#191970" points="594.7473,-80.2981 603.3043,-74.0509 592.7192,-73.5983 594.7473,-80.2981"/>
</g>
<!-- Node17 -->
<g id="node18" class="node">
<title>Node17</title>
<g id="a_node18"><a xlink:href="endian_8h.html" target="_top" xlink:title="libc header for endian conversion ">
<polygon fill="#ffffff" stroke="#000000" points="400.4011,-56.5 400.4011,-75.5 457.4011,-75.5 457.4011,-56.5 400.4011,-56.5"/>
<text text-anchor="middle" x="428.9011" y="-63.5" font-family="Helvetica,sans-Serif" font-size="10.00" fill="#000000">endian.h</text>
</a>
</g>
</g>
<!-- Node15&#45;&gt;Node17 -->
<g id="edge32" class="edge">
<title>Node15&#45;&gt;Node17</title>
<path fill="none" stroke="#191970" d="M442.1141,-112.2455C440.0034,-104.8579 437.0351,-94.4689 434.4464,-85.4087"/>
<polygon fill="#191970" stroke="#191970" points="437.7688,-84.2964 431.6561,-75.6427 431.0381,-86.2195 437.7688,-84.2964"/>
</g>
<!-- Node18 -->
<g id="node19" class="node">
<title>Node18</title>
<g id="a_node19"><a xlink:href="unaligned_8h.html" target="_top" xlink:title="Unaligned but safe memory access functions. ">
<polygon fill="#ffffff" stroke="#000000" points="475.4011,-56.5 475.4011,-75.5 546.4011,-75.5 546.4011,-56.5 475.4011,-56.5"/>
<text text-anchor="middle" x="510.9011" y="-63.5" font-family="Helvetica,sans-Serif" font-size="10.00" fill="#000000">unaligned.h</text>
</a>
</g>
</g>
<!-- Node15&#45;&gt;Node18 -->
<g id="edge34" class="edge">
<title>Node15&#45;&gt;Node18</title>
<path fill="none" stroke="#191970" d="M456.3974,-112.2455C466.1453,-103.9746 480.327,-91.9416 491.7809,-82.2232"/>
<polygon fill="#191970" stroke="#191970" points="494.1758,-84.7813 499.5365,-75.6427 489.647,-79.4437 494.1758,-84.7813"/>
</g>
<!-- Node17&#45;&gt;Node2 -->
<g id="edge33" class="edge">
<title>Node17&#45;&gt;Node2</title>
<path fill="none" stroke="#191970" d="M412.3533,-56.2455C397.6412,-47.5731 375.9123,-34.7645 359.0506,-24.825"/>
<polygon fill="#191970" stroke="#191970" points="360.6512,-21.7057 350.2592,-19.6427 357.0965,-27.736 360.6512,-21.7057"/>
</g>
<!-- Node18&#45;&gt;Node2 -->
<g id="edge35" class="edge">
<title>Node18&#45;&gt;Node2</title>
<path fill="none" stroke="#191970" d="M480.4737,-56.3733C449.6598,-46.6242 402.0295,-31.5547 369.4854,-21.2583"/>
<polygon fill="#191970" stroke="#191970" points="370.4951,-17.9068 359.9051,-18.2273 368.3835,-24.5808 370.4951,-17.9068"/>
</g>
<!-- Node19&#45;&gt;Node13 -->
<g id="edge40" class="edge">
<title>Node19&#45;&gt;Node13</title>
<path fill="none" stroke="#191970" d="M469.1855,-224.2455C458.299,-215.8943 442.4128,-203.7076 429.6811,-193.9408"/>
<polygon fill="#191970" stroke="#191970" points="431.5357,-190.9523 421.471,-187.6427 427.275,-196.5063 431.5357,-190.9523"/>
</g>
<!-- Node19&#45;&gt;Node14 -->
<g id="edge37" class="edge">
<title>Node19&#45;&gt;Node14</title>
<path fill="none" stroke="#191970" d="M485.9935,-224.4509C493.9285,-205.936 511.5329,-164.8591 521.8788,-140.7187"/>
<polygon fill="#191970" stroke="#191970" points="525.0967,-142.0951 525.819,-131.5249 518.6627,-139.3376 525.0967,-142.0951"/>
</g>
<!-- Node19&#45;&gt;Node15 -->
<g id="edge39" class="edge">
<title>Node19&#45;&gt;Node15</title>
<path fill="none" stroke="#191970" d="M479.1018,-224.1017C475.3909,-211.1415 468.5357,-187.7481 461.9011,-168 458.9269,-159.1474 455.3805,-149.4361 452.2982,-141.227"/>
<polygon fill="#191970" stroke="#191970" points="455.5439,-139.9149 448.7202,-131.8101 449.0003,-142.4012 455.5439,-139.9149"/>
</g>
<!-- Node19&#45;&gt;Node16 -->
<g id="edge38" class="edge">
<title>Node19&#45;&gt;Node16</title>
<path fill="none" stroke="#191970" d="M490.2823,-224.4862C514.2853,-197.2396 583.5478,-118.6172 614.5641,-83.4096"/>
<polygon fill="#191970" stroke="#191970" points="617.2591,-85.6451 621.2432,-75.8279 612.0066,-81.0179 617.2591,-85.6451"/>
</g>
<!-- Node21&#45;&gt;Node2 -->
<g id="edge44" class="edge">
<title>Node21&#45;&gt;Node2</title>
<path fill="none" stroke="#191970" d="M100.6969,-168.468C116.489,-159.7237 139.9304,-146.0338 158.9011,-132 199.6415,-101.8617 202.1054,-84.657 243.9011,-56 262.0957,-43.5249 284.1251,-32.2089 301.8349,-23.922"/>
<polygon fill="#191970" stroke="#191970" points="303.544,-26.9889 311.1775,-19.6418 300.6284,-20.625 303.544,-26.9889"/>
</g>
<!-- Node21&#45;&gt;Node9 -->
<g id="edge43" class="edge">
<title>Node21&#45;&gt;Node9</title>
<path fill="none" stroke="#191970" d="M89.8686,-168.2455C95.4322,-160.4564 103.3791,-149.3308 110.084,-139.9439"/>
<polygon fill="#191970" stroke="#191970" points="113.0491,-141.8144 116.0135,-131.6427 107.353,-137.7457 113.0491,-141.8144"/>
</g>
<!-- Node22 -->
<g id="node23" class="node">
<title>Node22</title>
<g id="a_node23"><a xlink:href="modules_8h.html" target="_top" xlink:title="Common macros and compiler attributes/pragmas configuration. ">
<polygon fill="#ffffff" stroke="#000000" points="12.4011,-112.5 12.4011,-131.5 77.4011,-131.5 77.4011,-112.5 12.4011,-112.5"/>
<text text-anchor="middle" x="44.9011" y="-119.5" font-family="Helvetica,sans-Serif" font-size="10.00" fill="#000000">modules.h</text>
</a>
</g>
</g>
<!-- Node21&#45;&gt;Node22 -->
<g id="edge45" class="edge">
<title>Node21&#45;&gt;Node22</title>
<path fill="none" stroke="#191970" d="M76.282,-168.2455C70.9965,-160.4564 63.447,-149.3308 57.0773,-139.9439"/>
<polygon fill="#191970" stroke="#191970" points="59.9556,-137.9522 51.4443,-131.6427 54.1632,-141.8827 59.9556,-137.9522"/>
</g>
</g>
</svg>
