<?xml version="1.0" encoding="UTF-8" standalone="no"?>
<!DOCTYPE svg PUBLIC "-//W3C//DTD SVG 1.1//EN"
 "http://www.w3.org/Graphics/SVG/1.1/DTD/svg11.dtd">
<!-- Generated by graphviz version 2.40.1 (0)
 -->
<!-- Title: sys/include/net/sock/dtls.h Pages: 1 -->
<svg width="385pt" height="162pt"
 viewBox="0.00 0.00 385.00 162.00" xmlns="http://www.w3.org/2000/svg" xmlns:xlink="http://www.w3.org/1999/xlink">
<g id="graph0" class="graph" transform="scale(1 1) rotate(0) translate(4 158)">
<title>sys/include/net/sock/dtls.h</title>
<polygon fill="#ffffff" stroke="transparent" points="-4,4 -4,-158 381,-158 381,4 -4,4"/>
<!-- Node23 -->
<g id="node1" class="node">
<title>Node23</title>
<polygon fill="#bfbfbf" stroke="#000000" points="130.5,-123.5 130.5,-153.5 241.5,-153.5 241.5,-123.5 130.5,-123.5"/>
<text text-anchor="start" x="138.5" y="-141.5" font-family="Helvetica,sans-Serif" font-size="10.00" fill="#000000">sys/include/net/sock</text>
<text text-anchor="middle" x="186" y="-130.5" font-family="Helvetica,sans-Serif" font-size="10.00" fill="#000000">/dtls.h</text>
</g>
<!-- Node24 -->
<g id="node2" class="node">
<title>Node24</title>
<g id="a_node2"><a xlink:href="sock__dtls__types_8h.html" target="_top" xlink:title="tinydtls&#45;specific types and functions definitions ">
<polygon fill="#ffffff" stroke="#000000" points="0,-56.5 0,-86.5 108,-86.5 108,-56.5 0,-56.5"/>
<text text-anchor="start" x="8" y="-74.5" font-family="Helvetica,sans-Serif" font-size="10.00" fill="#000000">pkg/tinydtls/include</text>
<text text-anchor="middle" x="54" y="-63.5" font-family="Helvetica,sans-Serif" font-size="10.00" fill="#000000">/sock_dtls_types.h</text>
</a>
</g>
</g>
<!-- Node23&#45;&gt;Node24 -->
<g id="edge1" class="edge">
<title>Node23&#45;&gt;Node24</title>
<path fill="none" stroke="#191970" d="M147.411,-118.9132C127.1813,-108.645 102.7733,-96.2561 83.9812,-86.7177"/>
<polygon fill="#191970" stroke="#191970" points="145.8754,-122.0587 156.3766,-123.4639 149.0437,-115.8168 145.8754,-122.0587"/>
</g>
<!-- Node25 -->
<g id="node3" class="node">
<title>Node25</title>
<g id="a_node3"><a xlink:href="dsm_8h.html" target="_top" xlink:title="DTLS session management module definition. ">
<polygon fill="#ffffff" stroke="#000000" points="126.5,-62 126.5,-81 245.5,-81 245.5,-62 126.5,-62"/>
<text text-anchor="middle" x="186" y="-69" font-family="Helvetica,sans-Serif" font-size="10.00" fill="#000000">sys/include/net/dsm.h</text>
</a>
</g>
</g>
<!-- Node23&#45;&gt;Node25 -->
<g id="edge2" class="edge">
<title>Node23&#45;&gt;Node25</title>
<path fill="none" stroke="#191970" d="M186,-113.1199C186,-101.9072 186,-89.4031 186,-81.055"/>
<polygon fill="#191970" stroke="#191970" points="182.5001,-113.2966 186,-123.2967 189.5001,-113.2967 182.5001,-113.2966"/>
</g>
<!-- Node26 -->
<g id="node4" class="node">
<title>Node26</title>
<g id="a_node4"><a xlink:href="dodtls_8h.html" target="_top" xlink:title="DNS over DTLS sock definitions. ">
<polygon fill="#ffffff" stroke="#000000" points="263.5,-56.5 263.5,-86.5 374.5,-86.5 374.5,-56.5 263.5,-56.5"/>
<text text-anchor="start" x="271.5" y="-74.5" font-family="Helvetica,sans-Serif" font-size="10.00" fill="#000000">sys/include/net/sock</text>
<text text-anchor="middle" x="319" y="-63.5" font-family="Helvetica,sans-Serif" font-size="10.00" fill="#000000">/dodtls.h</text>
</a>
</g>
</g>
<!-- Node23&#45;&gt;Node26 -->
<g id="edge3" class="edge">
<title>Node23&#45;&gt;Node26</title>
<path fill="none" stroke="#191970" d="M224.8813,-118.9132C245.2643,-108.645 269.8572,-96.2561 288.7917,-86.7177"/>
<polygon fill="#191970" stroke="#191970" points="223.2039,-115.8391 215.8478,-123.4639 226.3533,-122.0906 223.2039,-115.8391"/>
</g>
<!-- Node27 -->
<g id="node5" class="node">
<title>Node27</title>
<g id="a_node5"><a xlink:href="dns_8h.html" target="_top" xlink:title="Generic DNS values. ">
<polygon fill="#ffffff" stroke="#000000" points="261,-.5 261,-19.5 377,-19.5 377,-.5 261,-.5"/>
<text text-anchor="middle" x="319" y="-7.5" font-family="Helvetica,sans-Serif" font-size="10.00" fill="#000000">sys/include/net/dns.h</text>
</a>
</g>
</g>
<!-- Node26&#45;&gt;Node27 -->
<g id="edge4" class="edge">
<title>Node26&#45;&gt;Node27</title>
<path fill="none" stroke="#191970" d="M319,-46.2849C319,-36.9858 319,-26.9883 319,-19.8469"/>
<polygon fill="#191970" stroke="#191970" points="315.5001,-46.2977 319,-56.2977 322.5001,-46.2978 315.5001,-46.2977"/>
</g>
</g>
</svg>
