<?xml version="1.0" encoding="UTF-8" standalone="no"?>
<!DOCTYPE svg PUBLIC "-//W3C//DTD SVG 1.1//EN"
 "http://www.w3.org/Graphics/SVG/1.1/DTD/svg11.dtd">
<!-- Generated by graphviz version 2.40.1 (0)
 -->
<!-- Title: boards/common/sodaq/include/cfg_usbdev_default.h Pages: 1 -->
<svg width="1140pt" height="195pt"
 viewBox="0.00 0.00 1139.50 195.00" xmlns="http://www.w3.org/2000/svg" xmlns:xlink="http://www.w3.org/1999/xlink">
<g id="graph0" class="graph" transform="scale(1 1) rotate(0) translate(4 191)">
<title>boards/common/sodaq/include/cfg_usbdev_default.h</title>
<polygon fill="#ffffff" stroke="transparent" points="-4,4 -4,-191 1135.5,-191 1135.5,4 -4,4"/>
<!-- Node4 -->
<g id="node1" class="node">
<title>Node4</title>
<polygon fill="#bfbfbf" stroke="#000000" points="498,-145.5 498,-186.5 623,-186.5 623,-145.5 498,-145.5"/>
<text text-anchor="start" x="506" y="-174.5" font-family="Helvetica,sans-Serif" font-size="10.00" fill="#000000">boards/common/sodaq</text>
<text text-anchor="start" x="506" y="-163.5" font-family="Helvetica,sans-Serif" font-size="10.00" fill="#000000">/include/cfg_usbdev</text>
<text text-anchor="middle" x="560.5" y="-152.5" font-family="Helvetica,sans-Serif" font-size="10.00" fill="#000000">_default.h</text>
</g>
<!-- Node5 -->
<g id="node2" class="node">
<title>Node5</title>
<g id="a_node2"><a xlink:href="boards_2gd32vf103c-start_2include_2periph__conf_8h.html" target="_top" xlink:title="Board specific definitions for the GD32VF103C&#45;START board. ">
<polygon fill="#ffffff" stroke="#000000" points="1,-73 1,-103 134,-103 134,-73 1,-73"/>
<text text-anchor="start" x="9" y="-91" font-family="Helvetica,sans-Serif" font-size="10.00" fill="#000000">boards/gd32vf103c&#45;start</text>
<text text-anchor="middle" x="67.5" y="-80" font-family="Helvetica,sans-Serif" font-size="10.00" fill="#000000">/include/periph_conf.h</text>
</a>
</g>
</g>
<!-- Node4&#45;&gt;Node5 -->
<g id="edge1" class="edge">
<title>Node4&#45;&gt;Node5</title>
<path fill="none" stroke="#191970" d="M487.7318,-159.0356C404.1197,-150.3454 263.0503,-133.5726 143.5,-109 135.3208,-107.3188 126.7243,-105.2465 118.3739,-103.0649"/>
<polygon fill="#191970" stroke="#191970" points="487.5826,-162.5387 497.8883,-160.0808 488.2992,-155.5755 487.5826,-162.5387"/>
</g>
<!-- Node7 -->
<g id="node4" class="node">
<title>Node7</title>
<g id="a_node4"><a xlink:href="boards_2seeedstudio-gd32_2include_2periph__conf_8h.html" target="_top" xlink:title="Board specific definitions for the SeeedStudio GD32 RISC&#45;V board. ">
<polygon fill="#ffffff" stroke="#000000" points="152,-67.5 152,-108.5 267,-108.5 267,-67.5 152,-67.5"/>
<text text-anchor="start" x="160" y="-96.5" font-family="Helvetica,sans-Serif" font-size="10.00" fill="#000000">boards/seeedstudio</text>
<text text-anchor="start" x="160" y="-85.5" font-family="Helvetica,sans-Serif" font-size="10.00" fill="#000000">&#45;gd32/include/periph</text>
<text text-anchor="middle" x="209.5" y="-74.5" font-family="Helvetica,sans-Serif" font-size="10.00" fill="#000000">_conf.h</text>
</a>
</g>
</g>
<!-- Node4&#45;&gt;Node7 -->
<g id="edge3" class="edge">
<title>Node4&#45;&gt;Node7</title>
<path fill="none" stroke="#191970" d="M487.6322,-153.5658C429.9768,-143.2019 347.6154,-127.2272 276.5,-109 273.4299,-108.2131 270.2922,-107.3694 267.1325,-106.4886"/>
<polygon fill="#191970" stroke="#191970" points="487.2828,-157.0587 497.7424,-155.3712 488.5134,-150.1677 487.2828,-157.0587"/>
</g>
<!-- Node8 -->
<g id="node5" class="node">
<title>Node8</title>
<g id="a_node5"><a xlink:href="boards_2sipeed-longan-nano_2include_2periph__conf_8h.html" target="_top" xlink:title="Board specific definitions for the Sipeed Longan Nano board. ">
<polygon fill="#ffffff" stroke="#000000" points="285.5,-67.5 285.5,-108.5 403.5,-108.5 403.5,-67.5 285.5,-67.5"/>
<text text-anchor="start" x="293.5" y="-96.5" font-family="Helvetica,sans-Serif" font-size="10.00" fill="#000000">boards/sipeed&#45;longan</text>
<text text-anchor="start" x="293.5" y="-85.5" font-family="Helvetica,sans-Serif" font-size="10.00" fill="#000000">&#45;nano/include/periph</text>
<text text-anchor="middle" x="344.5" y="-74.5" font-family="Helvetica,sans-Serif" font-size="10.00" fill="#000000">_conf.h</text>
</a>
</g>
</g>
<!-- Node4&#45;&gt;Node8 -->
<g id="edge4" class="edge">
<title>Node4&#45;&gt;Node8</title>
<path fill="none" stroke="#191970" d="M494.0376,-141.9997C464.4229,-131.3055 429.8922,-118.8361 401.4788,-108.5757"/>
<polygon fill="#191970" stroke="#191970" points="492.8717,-145.2998 503.466,-145.4044 495.2492,-138.7159 492.8717,-145.2998"/>
</g>
<!-- Node9 -->
<g id="node6" class="node">
<title>Node9</title>
<g id="a_node6"><a xlink:href="boards_2sodaq-autonomo_2include_2periph__conf_8h.html" target="_top" xlink:title="Configuration of CPU peripherals for the SODAQ Autonomo board. ">
<polygon fill="#ffffff" stroke="#000000" points="422,-73 422,-103 553,-103 553,-73 422,-73"/>
<text text-anchor="start" x="430" y="-91" font-family="Helvetica,sans-Serif" font-size="10.00" fill="#000000">boards/sodaq&#45;autonomo</text>
<text text-anchor="middle" x="487.5" y="-80" font-family="Helvetica,sans-Serif" font-size="10.00" fill="#000000">/include/periph_conf.h</text>
</a>
</g>
</g>
<!-- Node4&#45;&gt;Node9 -->
<g id="edge5" class="edge">
<title>Node4&#45;&gt;Node9</title>
<path fill="none" stroke="#191970" d="M534.0137,-137.6996C523.1267,-126.0669 510.9516,-113.0578 501.7892,-103.2679"/>
<polygon fill="#191970" stroke="#191970" points="531.5487,-140.1878 540.9373,-145.0974 536.6596,-135.4046 531.5487,-140.1878"/>
</g>
<!-- Node10 -->
<g id="node7" class="node">
<title>Node10</title>
<g id="a_node7"><a xlink:href="boards_2sodaq-explorer_2include_2periph__conf_8h.html" target="_top" xlink:title="Configuration of CPU peripherals for the Sodaq LoRaWAN Explorer board. ">
<polygon fill="#ffffff" stroke="#000000" points="571.5,-73 571.5,-103 695.5,-103 695.5,-73 571.5,-73"/>
<text text-anchor="start" x="579.5" y="-91" font-family="Helvetica,sans-Serif" font-size="10.00" fill="#000000">boards/sodaq&#45;explorer</text>
<text text-anchor="middle" x="633.5" y="-80" font-family="Helvetica,sans-Serif" font-size="10.00" fill="#000000">/include/periph_conf.h</text>
</a>
</g>
</g>
<!-- Node4&#45;&gt;Node10 -->
<g id="edge6" class="edge">
<title>Node4&#45;&gt;Node10</title>
<path fill="none" stroke="#191970" d="M586.9863,-137.6996C597.8733,-126.0669 610.0484,-113.0578 619.2108,-103.2679"/>
<polygon fill="#191970" stroke="#191970" points="584.3404,-135.4046 580.0627,-145.0974 589.4513,-140.1878 584.3404,-135.4046"/>
</g>
<!-- Node11 -->
<g id="node8" class="node">
<title>Node11</title>
<g id="a_node8"><a xlink:href="boards_2sodaq-one_2include_2periph__conf_8h.html" target="_top" xlink:title="Configuration of CPU peripherals for the SODAQ ONE board. ">
<polygon fill="#ffffff" stroke="#000000" points="713.5,-73 713.5,-103 851.5,-103 851.5,-73 713.5,-73"/>
<text text-anchor="start" x="721.5" y="-91" font-family="Helvetica,sans-Serif" font-size="10.00" fill="#000000">boards/sodaq&#45;one/include</text>
<text text-anchor="middle" x="782.5" y="-80" font-family="Helvetica,sans-Serif" font-size="10.00" fill="#000000">/periph_conf.h</text>
</a>
</g>
</g>
<!-- Node4&#45;&gt;Node11 -->
<g id="edge7" class="edge">
<title>Node4&#45;&gt;Node11</title>
<path fill="none" stroke="#191970" d="M628.644,-142.0575C664.8702,-129.3294 708.2912,-114.0734 739.7542,-103.0188"/>
<polygon fill="#191970" stroke="#191970" points="627.3927,-138.7874 619.1183,-145.4044 629.7131,-145.3916 627.3927,-138.7874"/>
</g>
<!-- Node12 -->
<g id="node9" class="node">
<title>Node12</title>
<g id="a_node9"><a xlink:href="boards_2sodaq-sara-aff_2include_2periph__conf_8h.html" target="_top" xlink:title="Configuration of CPU peripherals for the SODAQ SARA AFF boards. ">
<polygon fill="#ffffff" stroke="#000000" points="869.5,-73 869.5,-103 991.5,-103 991.5,-73 869.5,-73"/>
<text text-anchor="start" x="877.5" y="-91" font-family="Helvetica,sans-Serif" font-size="10.00" fill="#000000">boards/sodaq&#45;sara&#45;aff</text>
<text text-anchor="middle" x="930.5" y="-80" font-family="Helvetica,sans-Serif" font-size="10.00" fill="#000000">/include/periph_conf.h</text>
</a>
</g>
</g>
<!-- Node4&#45;&gt;Node12 -->
<g id="edge8" class="edge">
<title>Node4&#45;&gt;Node12</title>
<path fill="none" stroke="#191970" d="M633.1714,-154.365C694.2102,-144.0744 783.5422,-127.801 860.5,-109 867.772,-107.2234 875.4101,-105.1503 882.8594,-103.0117"/>
<polygon fill="#191970" stroke="#191970" points="632.5316,-150.9233 623.2473,-156.0274 633.6882,-157.8271 632.5316,-150.9233"/>
</g>
<!-- Node13 -->
<g id="node10" class="node">
<title>Node13</title>
<g id="a_node10"><a xlink:href="boards_2sodaq-sara-sff_2include_2periph__conf_8h.html" target="_top" xlink:title="Configuration of CPU peripherals for the SODAQ SARA SFF board. ">
<polygon fill="#ffffff" stroke="#000000" points="1009.5,-73 1009.5,-103 1131.5,-103 1131.5,-73 1009.5,-73"/>
<text text-anchor="start" x="1017.5" y="-91" font-family="Helvetica,sans-Serif" font-size="10.00" fill="#000000">boards/sodaq&#45;sara&#45;sff</text>
<text text-anchor="middle" x="1070.5" y="-80" font-family="Helvetica,sans-Serif" font-size="10.00" fill="#000000">/include/periph_conf.h</text>
</a>
</g>
</g>
<!-- Node4&#45;&gt;Node13 -->
<g id="edge9" class="edge">
<title>Node4&#45;&gt;Node13</title>
<path fill="none" stroke="#191970" d="M633.4639,-160.2081C721.2524,-152.4001 872.7829,-136.2409 1000.5,-109 1008.1934,-107.3591 1016.2662,-105.2812 1024.0833,-103.0743"/>
<polygon fill="#191970" stroke="#191970" points="632.9972,-156.7355 623.3415,-161.0964 633.6092,-163.7087 632.9972,-156.7355"/>
</g>
<!-- Node6 -->
<g id="node3" class="node">
<title>Node6</title>
<g id="a_node3"><a xlink:href="gd32vf103c-start_2include_2arduino__iomap_8h.html" target="_top" xlink:title="Mapping from MCU pins to Arduino pins. ">
<polygon fill="#ffffff" stroke="#000000" points="0,-.5 0,-30.5 135,-30.5 135,-.5 0,-.5"/>
<text text-anchor="start" x="8" y="-18.5" font-family="Helvetica,sans-Serif" font-size="10.00" fill="#000000">boards/gd32vf103c&#45;start</text>
<text text-anchor="middle" x="67.5" y="-7.5" font-family="Helvetica,sans-Serif" font-size="10.00" fill="#000000">/include/arduino_iomap.h</text>
</a>
</g>
</g>
<!-- Node5&#45;&gt;Node6 -->
<g id="edge2" class="edge">
<title>Node5&#45;&gt;Node6</title>
<path fill="none" stroke="#191970" d="M67.5,-62.8409C67.5,-52.0601 67.5,-39.8309 67.5,-30.5028"/>
<polygon fill="#191970" stroke="#191970" points="64.0001,-62.9779 67.5,-72.978 71.0001,-62.978 64.0001,-62.9779"/>
</g>
</g>
</svg>
