<?xml version="1.0" encoding="UTF-8" standalone="no"?>
<!DOCTYPE svg PUBLIC "-//W3C//DTD SVG 1.1//EN"
 "http://www.w3.org/Graphics/SVG/1.1/DTD/svg11.dtd">
<!-- Generated by graphviz version 2.40.1 (0)
 -->
<!-- Title: drivers/include/sps30.h Pages: 1 -->
<svg width="475pt" height="140pt"
 viewBox="0.00 0.00 475.00 140.00" xmlns="http://www.w3.org/2000/svg" xmlns:xlink="http://www.w3.org/1999/xlink">
<g id="graph0" class="graph" transform="scale(1 1) rotate(0) translate(4 136)">
<title>drivers/include/sps30.h</title>
<polygon fill="#ffffff" stroke="transparent" points="-4,4 -4,-136 471,-136 471,4 -4,4"/>
<!-- Node0 -->
<g id="node1" class="node">
<title>Node0</title>
<polygon fill="#bfbfbf" stroke="#000000" points="61,-112.5 61,-131.5 187,-131.5 187,-112.5 61,-112.5"/>
<text text-anchor="middle" x="124" y="-119.5" font-family="Helvetica,sans-Serif" font-size="10.00" fill="#000000">drivers/include/sps30.h</text>
</g>
<!-- Node1 -->
<g id="node2" class="node">
<title>Node1</title>
<polygon fill="#ffffff" stroke="#bfbfbf" points="0,-.5 0,-19.5 60,-19.5 60,-.5 0,-.5"/>
<text text-anchor="middle" x="30" y="-7.5" font-family="Helvetica,sans-Serif" font-size="10.00" fill="#000000">stdbool.h</text>
</g>
<!-- Node0&#45;&gt;Node1 -->
<g id="edge1" class="edge">
<title>Node0&#45;&gt;Node1</title>
<path fill="none" stroke="#191970" d="M112.4255,-112.4142C102.0405,-103.5269 86.6813,-89.654 75,-76 62.1078,-60.9307 49.5774,-42.1028 41.0273,-28.4175"/>
<polygon fill="#191970" stroke="#191970" points="43.9996,-26.5692 35.7884,-19.874 38.0322,-30.2285 43.9996,-26.5692"/>
</g>
<!-- Node2 -->
<g id="node3" class="node">
<title>Node2</title>
<g id="a_node3"><a xlink:href="drivers_2include_2periph_2gpio_8h.html" target="_top" xlink:title="Low&#45;level GPIO peripheral driver interface definitions. ">
<polygon fill="#ffffff" stroke="#000000" points="84,-56.5 84,-75.5 164,-75.5 164,-56.5 84,-56.5"/>
<text text-anchor="middle" x="124" y="-63.5" font-family="Helvetica,sans-Serif" font-size="10.00" fill="#000000">periph/gpio.h</text>
</a>
</g>
</g>
<!-- Node0&#45;&gt;Node2 -->
<g id="edge2" class="edge">
<title>Node0&#45;&gt;Node2</title>
<path fill="none" stroke="#191970" d="M124,-112.2455C124,-104.9382 124,-94.6944 124,-85.7046"/>
<polygon fill="#191970" stroke="#191970" points="127.5001,-85.6426 124,-75.6427 120.5001,-85.6427 127.5001,-85.6426"/>
</g>
<!-- Node6 -->
<g id="node7" class="node">
<title>Node6</title>
<g id="a_node7"><a xlink:href="i2c_8h.html" target="_top" xlink:title="Low&#45;level I2C peripheral driver interface definition. ">
<polygon fill="#ffffff" stroke="#000000" points="224.5,-56.5 224.5,-75.5 297.5,-75.5 297.5,-56.5 224.5,-56.5"/>
<text text-anchor="middle" x="261" y="-63.5" font-family="Helvetica,sans-Serif" font-size="10.00" fill="#000000">periph/i2c.h</text>
</a>
</g>
</g>
<!-- Node0&#45;&gt;Node6 -->
<g id="edge7" class="edge">
<title>Node0&#45;&gt;Node6</title>
<path fill="none" stroke="#191970" d="M147.5511,-112.3733C169.8391,-103.2629 203.4937,-89.5062 228.3637,-79.3404"/>
<polygon fill="#191970" stroke="#191970" points="229.8239,-82.5247 237.7562,-75.5011 227.1753,-76.0451 229.8239,-82.5247"/>
</g>
<!-- Node2&#45;&gt;Node1 -->
<g id="edge4" class="edge">
<title>Node2&#45;&gt;Node1</title>
<path fill="none" stroke="#191970" d="M107.6264,-56.2455C93.0692,-47.5731 71.569,-34.7645 54.8848,-24.825"/>
<polygon fill="#191970" stroke="#191970" points="56.5683,-21.7539 46.1859,-19.6427 52.9856,-27.7676 56.5683,-21.7539"/>
</g>
<!-- Node3 -->
<g id="node4" class="node">
<title>Node3</title>
<polygon fill="#ffffff" stroke="#bfbfbf" points="78,-.5 78,-19.5 128,-19.5 128,-.5 78,-.5"/>
<text text-anchor="middle" x="103" y="-7.5" font-family="Helvetica,sans-Serif" font-size="10.00" fill="#000000">limits.h</text>
</g>
<!-- Node2&#45;&gt;Node3 -->
<g id="edge3" class="edge">
<title>Node2&#45;&gt;Node3</title>
<path fill="none" stroke="#191970" d="M120.3421,-56.2455C117.5416,-48.7776 113.591,-38.2427 110.1676,-29.1137"/>
<polygon fill="#191970" stroke="#191970" points="113.4045,-27.777 106.616,-19.6427 106.8501,-30.2349 113.4045,-27.777"/>
</g>
<!-- Node4 -->
<g id="node5" class="node">
<title>Node4</title>
<polygon fill="#ffffff" stroke="#bfbfbf" points="146.5,-.5 146.5,-19.5 223.5,-19.5 223.5,-.5 146.5,-.5"/>
<text text-anchor="middle" x="185" y="-7.5" font-family="Helvetica,sans-Serif" font-size="10.00" fill="#000000">periph_cpu.h</text>
</g>
<!-- Node2&#45;&gt;Node4 -->
<g id="edge5" class="edge">
<title>Node2&#45;&gt;Node4</title>
<path fill="none" stroke="#191970" d="M134.6254,-56.2455C143.5473,-48.0549 156.488,-36.1749 167.0192,-26.5069"/>
<polygon fill="#191970" stroke="#191970" points="169.4968,-28.9837 174.4964,-19.6427 164.7629,-23.8271 169.4968,-28.9837"/>
</g>
<!-- Node5 -->
<g id="node6" class="node">
<title>Node5</title>
<polygon fill="#ffffff" stroke="#bfbfbf" points="241.5,-.5 241.5,-19.5 322.5,-19.5 322.5,-.5 241.5,-.5"/>
<text text-anchor="middle" x="282" y="-7.5" font-family="Helvetica,sans-Serif" font-size="10.00" fill="#000000">periph_conf.h</text>
</g>
<!-- Node2&#45;&gt;Node5 -->
<g id="edge6" class="edge">
<title>Node2&#45;&gt;Node5</title>
<path fill="none" stroke="#191970" d="M151.1612,-56.3733C177.2067,-47.1419 216.7116,-33.1402 245.4979,-22.9375"/>
<polygon fill="#191970" stroke="#191970" points="246.937,-26.1408 255.1933,-19.5011 244.5985,-19.5429 246.937,-26.1408"/>
</g>
<!-- Node6&#45;&gt;Node3 -->
<g id="edge10" class="edge">
<title>Node6&#45;&gt;Node3</title>
<path fill="none" stroke="#191970" d="M233.8388,-56.3733C207.3197,-46.9741 166.8474,-32.6295 137.9428,-22.3848"/>
<polygon fill="#191970" stroke="#191970" points="138.8378,-18.9887 128.2431,-18.9469 136.4993,-25.5866 138.8378,-18.9887"/>
</g>
<!-- Node6&#45;&gt;Node4 -->
<g id="edge12" class="edge">
<title>Node6&#45;&gt;Node4</title>
<path fill="none" stroke="#191970" d="M247.7618,-56.2455C236.319,-47.814 219.5704,-35.4729 206.2525,-25.6598"/>
<polygon fill="#191970" stroke="#191970" points="208.2133,-22.757 198.0865,-19.6427 204.0609,-28.3924 208.2133,-22.757"/>
</g>
<!-- Node6&#45;&gt;Node5 -->
<g id="edge11" class="edge">
<title>Node6&#45;&gt;Node5</title>
<path fill="none" stroke="#191970" d="M264.6579,-56.2455C267.4584,-48.7776 271.409,-38.2427 274.8324,-29.1137"/>
<polygon fill="#191970" stroke="#191970" points="278.1499,-30.2349 278.384,-19.6427 271.5955,-27.777 278.1499,-30.2349"/>
</g>
<!-- Node7 -->
<g id="node8" class="node">
<title>Node7</title>
<polygon fill="#ffffff" stroke="#bfbfbf" points="341,-.5 341,-19.5 393,-19.5 393,-.5 341,-.5"/>
<text text-anchor="middle" x="367" y="-7.5" font-family="Helvetica,sans-Serif" font-size="10.00" fill="#000000">stdint.h</text>
</g>
<!-- Node6&#45;&gt;Node7 -->
<g id="edge8" class="edge">
<title>Node6&#45;&gt;Node7</title>
<path fill="none" stroke="#191970" d="M279.4638,-56.2455C296.1074,-47.4527 320.7993,-34.4079 339.7192,-24.4125"/>
<polygon fill="#191970" stroke="#191970" points="341.5408,-27.4086 348.7478,-19.6427 338.2709,-21.2193 341.5408,-27.4086"/>
</g>
<!-- Node8 -->
<g id="node9" class="node">
<title>Node8</title>
<polygon fill="#ffffff" stroke="#bfbfbf" points="411,-.5 411,-19.5 467,-19.5 467,-.5 411,-.5"/>
<text text-anchor="middle" x="439" y="-7.5" font-family="Helvetica,sans-Serif" font-size="10.00" fill="#000000">stddef.h</text>
</g>
<!-- Node6&#45;&gt;Node8 -->
<g id="edge9" class="edge">
<title>Node6&#45;&gt;Node8</title>
<path fill="none" stroke="#191970" d="M291.5993,-56.3733C321.9567,-46.8226 368.5443,-32.1658 401.1982,-21.8927"/>
<polygon fill="#191970" stroke="#191970" points="402.3627,-25.1955 410.8514,-18.8557 400.2619,-18.5182 402.3627,-25.1955"/>
</g>
</g>
</svg>
