<?xml version="1.0" encoding="UTF-8" standalone="no"?>
<!DOCTYPE svg PUBLIC "-//W3C//DTD SVG 1.1//EN"
 "http://www.w3.org/Graphics/SVG/1.1/DTD/svg11.dtd">
<!-- Generated by graphviz version 2.40.1 (0)
 -->
<!-- Title: drivers/srf08/include/srf08_params.h Pages: 1 -->
<svg width="397pt" height="207pt"
 viewBox="0.00 0.00 396.50 207.00" xmlns="http://www.w3.org/2000/svg" xmlns:xlink="http://www.w3.org/1999/xlink">
<g id="graph0" class="graph" transform="scale(1 1) rotate(0) translate(4 203)">
<title>drivers/srf08/include/srf08_params.h</title>
<polygon fill="#ffffff" stroke="transparent" points="-4,4 -4,-203 392.5,-203 392.5,4 -4,4"/>
<!-- Node0 -->
<g id="node1" class="node">
<title>Node0</title>
<polygon fill="#bfbfbf" stroke="#000000" points="6.5,-168.5 6.5,-198.5 121.5,-198.5 121.5,-168.5 6.5,-168.5"/>
<text text-anchor="start" x="14.5" y="-186.5" font-family="Helvetica,sans-Serif" font-size="10.00" fill="#000000">drivers/srf08/include</text>
<text text-anchor="middle" x="64" y="-175.5" font-family="Helvetica,sans-Serif" font-size="10.00" fill="#000000">/srf08_params.h</text>
</g>
<!-- Node1 -->
<g id="node2" class="node">
<title>Node1</title>
<polygon fill="#ffffff" stroke="#bfbfbf" points="2.5,-112.5 2.5,-131.5 55.5,-131.5 55.5,-112.5 2.5,-112.5"/>
<text text-anchor="middle" x="29" y="-119.5" font-family="Helvetica,sans-Serif" font-size="10.00" fill="#000000">board.h</text>
</g>
<!-- Node0&#45;&gt;Node1 -->
<g id="edge1" class="edge">
<title>Node0&#45;&gt;Node1</title>
<path fill="none" stroke="#191970" d="M55.3483,-168.2977C50.5912,-159.9388 44.6502,-149.4997 39.6143,-140.6509"/>
<polygon fill="#191970" stroke="#191970" points="42.5921,-138.8069 34.6039,-131.8469 36.5083,-142.2692 42.5921,-138.8069"/>
</g>
<!-- Node2 -->
<g id="node3" class="node">
<title>Node2</title>
<g id="a_node3"><a xlink:href="srf08_8h.html" target="_top" xlink:title="Driver definitions for the SRF02 ultrasonic ranger. ">
<polygon fill="#ffffff" stroke="#000000" points="74,-112.5 74,-131.5 124,-131.5 124,-112.5 74,-112.5"/>
<text text-anchor="middle" x="99" y="-119.5" font-family="Helvetica,sans-Serif" font-size="10.00" fill="#000000">srf08.h</text>
</a>
</g>
</g>
<!-- Node0&#45;&gt;Node2 -->
<g id="edge2" class="edge">
<title>Node0&#45;&gt;Node2</title>
<path fill="none" stroke="#191970" d="M72.6517,-168.2977C77.4088,-159.9388 83.3498,-149.4997 88.3857,-140.6509"/>
<polygon fill="#191970" stroke="#191970" points="91.4917,-142.2692 93.3961,-131.8469 85.4079,-138.8069 91.4917,-142.2692"/>
</g>
<!-- Node3 -->
<g id="node4" class="node">
<title>Node3</title>
<polygon fill="#ffffff" stroke="#bfbfbf" points="0,-.5 0,-19.5 52,-19.5 52,-.5 0,-.5"/>
<text text-anchor="middle" x="26" y="-7.5" font-family="Helvetica,sans-Serif" font-size="10.00" fill="#000000">stdint.h</text>
</g>
<!-- Node2&#45;&gt;Node3 -->
<g id="edge3" class="edge">
<title>Node2&#45;&gt;Node3</title>
<path fill="none" stroke="#191970" d="M92.7761,-112.4509C80.6005,-93.7707 53.4557,-52.1238 37.7818,-28.0761"/>
<polygon fill="#191970" stroke="#191970" points="40.6008,-25.9913 32.2082,-19.5249 34.7365,-29.8137 40.6008,-25.9913"/>
</g>
<!-- Node4 -->
<g id="node5" class="node">
<title>Node4</title>
<g id="a_node5"><a xlink:href="i2c_8h.html" target="_top" xlink:title="Low&#45;level I2C peripheral driver interface definition. ">
<polygon fill="#ffffff" stroke="#000000" points="96.5,-56.5 96.5,-75.5 169.5,-75.5 169.5,-56.5 96.5,-56.5"/>
<text text-anchor="middle" x="133" y="-63.5" font-family="Helvetica,sans-Serif" font-size="10.00" fill="#000000">periph/i2c.h</text>
</a>
</g>
</g>
<!-- Node2&#45;&gt;Node4 -->
<g id="edge4" class="edge">
<title>Node2&#45;&gt;Node4</title>
<path fill="none" stroke="#191970" d="M104.9223,-112.2455C109.6027,-104.5367 116.2673,-93.5598 121.9289,-84.2348"/>
<polygon fill="#191970" stroke="#191970" points="124.9475,-86.007 127.1455,-75.6427 118.9639,-82.3741 124.9475,-86.007"/>
</g>
<!-- Node4&#45;&gt;Node3 -->
<g id="edge5" class="edge">
<title>Node4&#45;&gt;Node3</title>
<path fill="none" stroke="#191970" d="M114.362,-56.2455C97.5614,-47.4527 72.6366,-34.4079 53.5382,-24.4125"/>
<polygon fill="#191970" stroke="#191970" points="54.9073,-21.1787 44.4244,-19.6427 51.6614,-27.3807 54.9073,-21.1787"/>
</g>
<!-- Node5 -->
<g id="node6" class="node">
<title>Node5</title>
<polygon fill="#ffffff" stroke="#bfbfbf" points="70,-.5 70,-19.5 126,-19.5 126,-.5 70,-.5"/>
<text text-anchor="middle" x="98" y="-7.5" font-family="Helvetica,sans-Serif" font-size="10.00" fill="#000000">stddef.h</text>
</g>
<!-- Node4&#45;&gt;Node5 -->
<g id="edge6" class="edge">
<title>Node4&#45;&gt;Node5</title>
<path fill="none" stroke="#191970" d="M126.9035,-56.2455C122.0855,-48.5367 115.2249,-37.5598 109.3968,-28.2348"/>
<polygon fill="#191970" stroke="#191970" points="112.2947,-26.2677 104.0267,-19.6427 106.3587,-29.9777 112.2947,-26.2677"/>
</g>
<!-- Node6 -->
<g id="node7" class="node">
<title>Node6</title>
<polygon fill="#ffffff" stroke="#bfbfbf" points="144,-.5 144,-19.5 194,-19.5 194,-.5 144,-.5"/>
<text text-anchor="middle" x="169" y="-7.5" font-family="Helvetica,sans-Serif" font-size="10.00" fill="#000000">limits.h</text>
</g>
<!-- Node4&#45;&gt;Node6 -->
<g id="edge7" class="edge">
<title>Node4&#45;&gt;Node6</title>
<path fill="none" stroke="#191970" d="M139.2707,-56.2455C144.2264,-48.5367 151.283,-37.5598 157.2776,-28.2348"/>
<polygon fill="#191970" stroke="#191970" points="160.3376,-29.9471 162.8011,-19.6427 154.4494,-26.1618 160.3376,-29.9471"/>
</g>
<!-- Node7 -->
<g id="node8" class="node">
<title>Node7</title>
<polygon fill="#ffffff" stroke="#bfbfbf" points="212.5,-.5 212.5,-19.5 293.5,-19.5 293.5,-.5 212.5,-.5"/>
<text text-anchor="middle" x="253" y="-7.5" font-family="Helvetica,sans-Serif" font-size="10.00" fill="#000000">periph_conf.h</text>
</g>
<!-- Node4&#45;&gt;Node7 -->
<g id="edge8" class="edge">
<title>Node4&#45;&gt;Node7</title>
<path fill="none" stroke="#191970" d="M153.6287,-56.3733C172.8919,-47.3838 201.8486,-33.8706 223.5419,-23.7471"/>
<polygon fill="#191970" stroke="#191970" points="225.0587,-26.9017 232.6405,-19.5011 222.0985,-20.5584 225.0587,-26.9017"/>
</g>
<!-- Node8 -->
<g id="node9" class="node">
<title>Node8</title>
<polygon fill="#ffffff" stroke="#bfbfbf" points="311.5,-.5 311.5,-19.5 388.5,-19.5 388.5,-.5 311.5,-.5"/>
<text text-anchor="middle" x="350" y="-7.5" font-family="Helvetica,sans-Serif" font-size="10.00" fill="#000000">periph_cpu.h</text>
</g>
<!-- Node4&#45;&gt;Node8 -->
<g id="edge9" class="edge">
<title>Node4&#45;&gt;Node8</title>
<path fill="none" stroke="#191970" d="M169.8111,-56.5004C206.5972,-47.0072 263.2835,-32.3785 303.2342,-22.0686"/>
<polygon fill="#191970" stroke="#191970" points="304.2002,-25.4341 313.0083,-19.5462 302.451,-18.6561 304.2002,-25.4341"/>
</g>
</g>
</svg>
