<?xml version="1.0" encoding="UTF-8" standalone="no"?>
<!DOCTYPE svg PUBLIC "-//W3C//DTD SVG 1.1//EN"
 "http://www.w3.org/Graphics/SVG/1.1/DTD/svg11.dtd">
<!-- Generated by graphviz version 2.40.1 (0)
 -->
<!-- Title: boards/stk3600/include/board.h Pages: 1 -->
<svg width="780pt" height="263pt"
 viewBox="0.00 0.00 780.42 263.00" xmlns="http://www.w3.org/2000/svg" xmlns:xlink="http://www.w3.org/1999/xlink">
<g id="graph0" class="graph" transform="scale(1 1) rotate(0) translate(4 259)">
<title>boards/stk3600/include/board.h</title>
<polygon fill="#ffffff" stroke="transparent" points="-4,4 -4,-259 776.4166,-259 776.4166,4 -4,4"/>
<!-- Node0 -->
<g id="node1" class="node">
<title>Node0</title>
<polygon fill="#bfbfbf" stroke="#000000" points="323.5,-224.5 323.5,-254.5 450.5,-254.5 450.5,-224.5 323.5,-224.5"/>
<text text-anchor="start" x="331.5" y="-242.5" font-family="Helvetica,sans-Serif" font-size="10.00" fill="#000000">boards/stk3600/include</text>
<text text-anchor="middle" x="387" y="-231.5" font-family="Helvetica,sans-Serif" font-size="10.00" fill="#000000">/board.h</text>
</g>
<!-- Node1 -->
<g id="node2" class="node">
<title>Node1</title>
<polygon fill="#ffffff" stroke="#bfbfbf" points="0,-112.5 0,-131.5 42,-131.5 42,-112.5 0,-112.5"/>
<text text-anchor="middle" x="21" y="-119.5" font-family="Helvetica,sans-Serif" font-size="10.00" fill="#000000">cpu.h</text>
</g>
<!-- Node0&#45;&gt;Node1 -->
<g id="edge1" class="edge">
<title>Node0&#45;&gt;Node1</title>
<path fill="none" stroke="#191970" d="M323.137,-227.2998C279.9237,-218.2935 221.8547,-204.7199 172,-188 127.9427,-173.2244 79.0071,-150.6302 49.1182,-136.0864"/>
<polygon fill="#191970" stroke="#191970" points="50.6328,-132.931 40.1136,-131.6674 47.5488,-139.2151 50.6328,-132.931"/>
</g>
<!-- Node2 -->
<g id="node3" class="node">
<title>Node2</title>
<g id="a_node3"><a xlink:href="boards_2stk3600_2include_2periph__conf_8h.html" target="_top" xlink:title="Configuration of CPU peripherals for the STK3600 starter kit. ">
<polygon fill="#ffffff" stroke="#000000" points="181.5,-168.5 181.5,-187.5 262.5,-187.5 262.5,-168.5 181.5,-168.5"/>
<text text-anchor="middle" x="222" y="-175.5" font-family="Helvetica,sans-Serif" font-size="10.00" fill="#000000">periph_conf.h</text>
</a>
</g>
</g>
<!-- Node0&#45;&gt;Node2 -->
<g id="edge2" class="edge">
<title>Node0&#45;&gt;Node2</title>
<path fill="none" stroke="#191970" d="M346.6365,-224.4554C319.2265,-214.239 283.3341,-200.8609 257.109,-191.0861"/>
<polygon fill="#191970" stroke="#191970" points="258.1618,-187.7433 247.5691,-187.5303 255.717,-194.3025 258.1618,-187.7433"/>
</g>
<!-- Node9 -->
<g id="node10" class="node">
<title>Node9</title>
<g id="a_node10"><a xlink:href="adc_8h.html" target="_top" xlink:title="Low&#45;level ADC peripheral driver interface definitions. ">
<polygon fill="#ffffff" stroke="#000000" points="349,-112.5 349,-131.5 425,-131.5 425,-112.5 349,-112.5"/>
<text text-anchor="middle" x="387" y="-119.5" font-family="Helvetica,sans-Serif" font-size="10.00" fill="#000000">periph/adc.h</text>
</a>
</g>
</g>
<!-- Node0&#45;&gt;Node9 -->
<g id="edge11" class="edge">
<title>Node0&#45;&gt;Node9</title>
<path fill="none" stroke="#191970" d="M387,-224.1389C387,-202.9692 387,-164.8174 387,-141.6112"/>
<polygon fill="#191970" stroke="#191970" points="390.5001,-141.5594 387,-131.5595 383.5001,-141.5595 390.5001,-141.5594"/>
</g>
<!-- Node12 -->
<g id="node13" class="node">
<title>Node12</title>
<g id="a_node13"><a xlink:href="drivers_2include_2periph_2gpio_8h.html" target="_top" xlink:title="Low&#45;level GPIO peripheral driver interface definitions. ">
<polygon fill="#ffffff" stroke="#000000" points="443,-112.5 443,-131.5 523,-131.5 523,-112.5 443,-112.5"/>
<text text-anchor="middle" x="483" y="-119.5" font-family="Helvetica,sans-Serif" font-size="10.00" fill="#000000">periph/gpio.h</text>
</a>
</g>
</g>
<!-- Node0&#45;&gt;Node12 -->
<g id="edge16" class="edge">
<title>Node0&#45;&gt;Node12</title>
<path fill="none" stroke="#191970" d="M399.5503,-224.1389C417.3967,-202.2957 450.0149,-162.3724 468.7492,-139.4424"/>
<polygon fill="#191970" stroke="#191970" points="471.5731,-141.5179 475.1897,-131.5595 466.1523,-137.089 471.5731,-141.5179"/>
</g>
<!-- Node14 -->
<g id="node15" class="node">
<title>Node14</title>
<g id="a_node15"><a xlink:href="spi_8h.html" target="_top" xlink:title="Low&#45;level SPI peripheral driver interface definition. ">
<polygon fill="#ffffff" stroke="#000000" points="552.5,-168.5 552.5,-187.5 625.5,-187.5 625.5,-168.5 552.5,-168.5"/>
<text text-anchor="middle" x="589" y="-175.5" font-family="Helvetica,sans-Serif" font-size="10.00" fill="#000000">periph/spi.h</text>
</a>
</g>
</g>
<!-- Node0&#45;&gt;Node14 -->
<g id="edge21" class="edge">
<title>Node0&#45;&gt;Node14</title>
<path fill="none" stroke="#191970" d="M436.4148,-224.4554C470.7103,-214.0139 515.853,-200.27 548.1222,-190.4455"/>
<polygon fill="#191970" stroke="#191970" points="549.1501,-193.7912 557.6972,-187.5303 547.1113,-187.0947 549.1501,-193.7912"/>
</g>
<!-- Node2&#45;&gt;Node1 -->
<g id="edge3" class="edge">
<title>Node2&#45;&gt;Node1</title>
<path fill="none" stroke="#191970" d="M184.1224,-168.4945C151.4559,-160.1448 102.8191,-147.3526 52.0872,-132.2132"/>
<polygon fill="#191970" stroke="#191970" points="52.8402,-128.7849 42.2559,-129.2574 50.8247,-135.4885 52.8402,-128.7849"/>
</g>
<!-- Node3 -->
<g id="node4" class="node">
<title>Node3</title>
<polygon fill="#ffffff" stroke="#bfbfbf" points="281.5,-56.5 281.5,-75.5 358.5,-75.5 358.5,-56.5 281.5,-56.5"/>
<text text-anchor="middle" x="320" y="-63.5" font-family="Helvetica,sans-Serif" font-size="10.00" fill="#000000">periph_cpu.h</text>
</g>
<!-- Node2&#45;&gt;Node3 -->
<g id="edge4" class="edge">
<title>Node2&#45;&gt;Node3</title>
<path fill="none" stroke="#191970" d="M230.8424,-168.169C239.1764,-158.8821 251.9935,-144.5447 263,-132 277.2522,-115.7559 293.3311,-97.1085 304.7692,-83.7875"/>
<polygon fill="#191970" stroke="#191970" points="307.6962,-85.7508 311.5496,-75.8816 302.3827,-81.1937 307.6962,-85.7508"/>
</g>
<!-- Node4 -->
<g id="node5" class="node">
<title>Node4</title>
<polygon fill="#ffffff" stroke="#bfbfbf" points="189.5,-112.5 189.5,-131.5 254.5,-131.5 254.5,-112.5 189.5,-112.5"/>
<text text-anchor="middle" x="222" y="-119.5" font-family="Helvetica,sans-Serif" font-size="10.00" fill="#000000">em_cmu.h</text>
</g>
<!-- Node2&#45;&gt;Node4 -->
<g id="edge5" class="edge">
<title>Node2&#45;&gt;Node4</title>
<path fill="none" stroke="#191970" d="M222,-168.2455C222,-160.9382 222,-150.6944 222,-141.7046"/>
<polygon fill="#191970" stroke="#191970" points="225.5001,-141.6426 222,-131.6427 218.5001,-141.6427 225.5001,-141.6426"/>
</g>
<!-- Node5 -->
<g id="node6" class="node">
<title>Node5</title>
<g id="a_node6"><a xlink:href="usbdev__cfg__otg__fs_8h.html" target="_top" xlink:title="Common configuration for EFM32 OTG FS peripheral. ">
<polygon fill="#ffffff" stroke="#000000" points="60.5,-112.5 60.5,-131.5 171.5,-131.5 171.5,-112.5 60.5,-112.5"/>
<text text-anchor="middle" x="116" y="-119.5" font-family="Helvetica,sans-Serif" font-size="10.00" fill="#000000">usbdev_cfg_otg_fs.h</text>
</a>
</g>
</g>
<!-- Node2&#45;&gt;Node5 -->
<g id="edge6" class="edge">
<title>Node2&#45;&gt;Node5</title>
<path fill="none" stroke="#191970" d="M203.5362,-168.2455C186.8926,-159.4527 162.2007,-146.4079 143.2808,-136.4125"/>
<polygon fill="#191970" stroke="#191970" points="144.7291,-133.2193 134.2522,-131.6427 141.4592,-139.4086 144.7291,-133.2193"/>
</g>
<!-- Node5&#45;&gt;Node3 -->
<g id="edge7" class="edge">
<title>Node5&#45;&gt;Node3</title>
<path fill="none" stroke="#191970" d="M151.0689,-112.3733C185.4315,-102.9404 237.9392,-88.5265 275.2851,-78.2747"/>
<polygon fill="#191970" stroke="#191970" points="276.672,-81.5235 285.3888,-75.5011 274.819,-74.7732 276.672,-81.5235"/>
</g>
<!-- Node6 -->
<g id="node7" class="node">
<title>Node6</title>
<polygon fill="#ffffff" stroke="#bfbfbf" points="15.5,-56.5 15.5,-75.5 110.5,-75.5 110.5,-56.5 15.5,-56.5"/>
<text text-anchor="middle" x="63" y="-63.5" font-family="Helvetica,sans-Serif" font-size="10.00" fill="#000000">usbdev_efm32.h</text>
</g>
<!-- Node5&#45;&gt;Node6 -->
<g id="edge8" class="edge">
<title>Node5&#45;&gt;Node6</title>
<path fill="none" stroke="#191970" d="M106.7681,-112.2455C99.1683,-104.2155 88.2123,-92.6394 79.1632,-83.0781"/>
<polygon fill="#191970" stroke="#191970" points="81.542,-80.4998 72.1261,-75.6427 76.4579,-85.3115 81.542,-80.4998"/>
</g>
<!-- Node7 -->
<g id="node8" class="node">
<title>Node7</title>
<g id="a_node8"><a xlink:href="usbdev__synopsys__dwc2_8h.html" target="_top" xlink:title="Low level USB FS/HS driver definitions for MCUs with Synopsys DWC2 IP core. ">
<polygon fill="#ffffff" stroke="#000000" points="129,-56.5 129,-75.5 263,-75.5 263,-56.5 129,-56.5"/>
<text text-anchor="middle" x="196" y="-63.5" font-family="Helvetica,sans-Serif" font-size="10.00" fill="#000000">usbdev_synopsys_dwc2.h</text>
</a>
</g>
</g>
<!-- Node5&#45;&gt;Node7 -->
<g id="edge9" class="edge">
<title>Node5&#45;&gt;Node7</title>
<path fill="none" stroke="#191970" d="M129.9349,-112.2455C142.0947,-103.7337 159.9464,-91.2375 174.0285,-81.3801"/>
<polygon fill="#191970" stroke="#191970" points="176.0395,-84.2447 182.2248,-75.6427 172.0253,-78.51 176.0395,-84.2447"/>
</g>
<!-- Node8 -->
<g id="node9" class="node">
<title>Node8</title>
<polygon fill="#ffffff" stroke="#bfbfbf" points="512,-.5 512,-19.5 564,-19.5 564,-.5 512,-.5"/>
<text text-anchor="middle" x="538" y="-7.5" font-family="Helvetica,sans-Serif" font-size="10.00" fill="#000000">stdint.h</text>
</g>
<!-- Node7&#45;&gt;Node8 -->
<g id="edge10" class="edge">
<title>Node7&#45;&gt;Node8</title>
<path fill="none" stroke="#191970" d="M254.4033,-56.4369C325.313,-44.8259 442.7239,-25.6008 501.7523,-15.9353"/>
<polygon fill="#191970" stroke="#191970" points="502.4276,-19.3714 511.7306,-14.3014 501.2964,-12.4634 502.4276,-19.3714"/>
</g>
<!-- Node9&#45;&gt;Node3 -->
<g id="edge14" class="edge">
<title>Node9&#45;&gt;Node3</title>
<path fill="none" stroke="#191970" d="M375.3295,-112.2455C365.4339,-103.9746 351.0373,-91.9416 339.4099,-82.2232"/>
<polygon fill="#191970" stroke="#191970" points="341.4542,-79.3703 331.5368,-75.6427 336.965,-84.7413 341.4542,-79.3703"/>
</g>
<!-- Node9&#45;&gt;Node8 -->
<g id="edge13" class="edge">
<title>Node9&#45;&gt;Node8</title>
<path fill="none" stroke="#191970" d="M387.1286,-112.1247C387.847,-97.8848 391.2469,-71.5881 406,-56 431.0695,-29.5116 472.1943,-18.2704 501.8851,-13.5033"/>
<polygon fill="#191970" stroke="#191970" points="502.463,-16.9563 511.8652,-12.0727 501.4697,-10.0271 502.463,-16.9563"/>
</g>
<!-- Node10 -->
<g id="node11" class="node">
<title>Node10</title>
<polygon fill="#ffffff" stroke="#bfbfbf" points="415,-56.5 415,-75.5 465,-75.5 465,-56.5 415,-56.5"/>
<text text-anchor="middle" x="440" y="-63.5" font-family="Helvetica,sans-Serif" font-size="10.00" fill="#000000">limits.h</text>
</g>
<!-- Node9&#45;&gt;Node10 -->
<g id="edge12" class="edge">
<title>Node9&#45;&gt;Node10</title>
<path fill="none" stroke="#191970" d="M396.2319,-112.2455C403.8317,-104.2155 414.7877,-92.6394 423.8368,-83.0781"/>
<polygon fill="#191970" stroke="#191970" points="426.5421,-85.3115 430.8739,-75.6427 421.458,-80.4998 426.5421,-85.3115"/>
</g>
<!-- Node11 -->
<g id="node12" class="node">
<title>Node11</title>
<polygon fill="#ffffff" stroke="#bfbfbf" points="483.5,-56.5 483.5,-75.5 564.5,-75.5 564.5,-56.5 483.5,-56.5"/>
<text text-anchor="middle" x="524" y="-63.5" font-family="Helvetica,sans-Serif" font-size="10.00" fill="#000000">periph_conf.h</text>
</g>
<!-- Node9&#45;&gt;Node11 -->
<g id="edge15" class="edge">
<title>Node9&#45;&gt;Node11</title>
<path fill="none" stroke="#191970" d="M410.5511,-112.3733C432.8391,-103.2629 466.4937,-89.5062 491.3637,-79.3404"/>
<polygon fill="#191970" stroke="#191970" points="492.8239,-82.5247 500.7562,-75.5011 490.1753,-76.0451 492.8239,-82.5247"/>
</g>
<!-- Node12&#45;&gt;Node3 -->
<g id="edge19" class="edge">
<title>Node12&#45;&gt;Node3</title>
<path fill="none" stroke="#191970" d="M454.9793,-112.3733C427.9922,-103.1016 386.9983,-89.0178 357.2689,-78.804"/>
<polygon fill="#191970" stroke="#191970" points="358.2497,-75.4403 347.6551,-75.5011 355.9752,-82.0605 358.2497,-75.4403"/>
</g>
<!-- Node12&#45;&gt;Node10 -->
<g id="edge17" class="edge">
<title>Node12&#45;&gt;Node10</title>
<path fill="none" stroke="#191970" d="M475.51,-112.2455C469.4674,-104.3761 460.8097,-93.101 453.5559,-83.6542"/>
<polygon fill="#191970" stroke="#191970" points="456.2705,-81.4426 447.4042,-75.6427 450.7185,-85.7058 456.2705,-81.4426"/>
</g>
<!-- Node12&#45;&gt;Node11 -->
<g id="edge20" class="edge">
<title>Node12&#45;&gt;Node11</title>
<path fill="none" stroke="#191970" d="M490.1417,-112.2455C495.8444,-104.4564 503.99,-93.3308 510.8625,-83.9439"/>
<polygon fill="#191970" stroke="#191970" points="513.8568,-85.7789 516.9402,-75.6427 508.2087,-81.6437 513.8568,-85.7789"/>
</g>
<!-- Node13 -->
<g id="node14" class="node">
<title>Node13</title>
<polygon fill="#ffffff" stroke="#bfbfbf" points="583,-56.5 583,-75.5 643,-75.5 643,-56.5 583,-56.5"/>
<text text-anchor="middle" x="613" y="-63.5" font-family="Helvetica,sans-Serif" font-size="10.00" fill="#000000">stdbool.h</text>
</g>
<!-- Node12&#45;&gt;Node13 -->
<g id="edge18" class="edge">
<title>Node12&#45;&gt;Node13</title>
<path fill="none" stroke="#191970" d="M505.3478,-112.3733C526.4033,-103.3032 558.1495,-89.6279 581.7175,-79.4755"/>
<polygon fill="#191970" stroke="#191970" points="583.1444,-82.6719 590.9438,-75.5011 580.375,-76.243 583.1444,-82.6719"/>
</g>
<!-- Node14&#45;&gt;Node3 -->
<g id="edge28" class="edge">
<title>Node14&#45;&gt;Node3</title>
<path fill="none" stroke="#191970" d="M552.1476,-175.8179C490.6516,-171.4416 370.8033,-159.5454 340,-132 327.0561,-120.4251 322.3593,-100.7822 320.7195,-85.9279"/>
<polygon fill="#191970" stroke="#191970" points="324.1929,-85.4342 319.9756,-75.715 317.2114,-85.9429 324.1929,-85.4342"/>
</g>
<!-- Node14&#45;&gt;Node8 -->
<g id="edge27" class="edge">
<title>Node14&#45;&gt;Node8</title>
<path fill="none" stroke="#191970" d="M625.6477,-173.8988C673.0411,-167.7533 751.5907,-154.4178 769,-132 774.452,-124.9795 771.7623,-120.4488 769,-112 759.4143,-82.6807 753.6628,-73.1151 728,-56 703.0097,-39.3335 621.7385,-23.7223 573.9654,-15.6754"/>
<polygon fill="#191970" stroke="#191970" points="574.4635,-12.2102 564.0259,-14.0288 573.3194,-19.1161 574.4635,-12.2102"/>
</g>
<!-- Node14&#45;&gt;Node11 -->
<g id="edge29" class="edge">
<title>Node14&#45;&gt;Node11</title>
<path fill="none" stroke="#191970" d="M583.4581,-168.4509C572.6649,-149.8533 548.6605,-108.4919 534.6765,-84.3964"/>
<polygon fill="#191970" stroke="#191970" points="537.5745,-82.417 529.5278,-75.5249 531.5202,-85.9307 537.5745,-82.417"/>
</g>
<!-- Node14&#45;&gt;Node12 -->
<g id="edge30" class="edge">
<title>Node14&#45;&gt;Node12</title>
<path fill="none" stroke="#191970" d="M570.5362,-168.2455C553.8926,-159.4527 529.2007,-146.4079 510.2808,-136.4125"/>
<polygon fill="#191970" stroke="#191970" points="511.7291,-133.2193 501.2522,-131.6427 508.4592,-139.4086 511.7291,-133.2193"/>
</g>
<!-- Node14&#45;&gt;Node13 -->
<g id="edge25" class="edge">
<title>Node14&#45;&gt;Node13</title>
<path fill="none" stroke="#191970" d="M625.6408,-172.9711C669.3665,-166.1317 738.5335,-152.3682 754,-132 759.3756,-124.9208 759.2205,-119.1944 754,-112 747.8311,-103.4986 692.2427,-87.1464 652.74,-76.4052"/>
<polygon fill="#191970" stroke="#191970" points="653.6496,-73.0256 643.0833,-73.8035 651.8285,-79.7845 653.6496,-73.0256"/>
</g>
<!-- Node15 -->
<g id="node16" class="node">
<title>Node15</title>
<g id="a_node16"><a xlink:href="endian_8h.html" target="_top" xlink:title="libc header for endian conversion ">
<polygon fill="#ffffff" stroke="#000000" points="661.5,-56.5 661.5,-75.5 718.5,-75.5 718.5,-56.5 661.5,-56.5"/>
<text text-anchor="middle" x="690" y="-63.5" font-family="Helvetica,sans-Serif" font-size="10.00" fill="#000000">endian.h</text>
</a>
</g>
</g>
<!-- Node14&#45;&gt;Node15 -->
<g id="edge22" class="edge">
<title>Node14&#45;&gt;Node15</title>
<path fill="none" stroke="#191970" d="M589.6839,-168.4543C591.1234,-154.6251 595.5449,-128.8349 609,-112 620.3713,-97.7722 637.4147,-87.16 652.9384,-79.7358"/>
<polygon fill="#191970" stroke="#191970" points="654.649,-82.8047 662.3434,-75.5214 651.7865,-76.4167 654.649,-82.8047"/>
</g>
<!-- Node16 -->
<g id="node17" class="node">
<title>Node16</title>
<g id="a_node17"><a xlink:href="errno_8h.html" target="_top" xlink:title="errno.h">
<polygon fill="#ffffff" stroke="#000000" points="617.5,-112.5 617.5,-131.5 670.5,-131.5 670.5,-112.5 617.5,-112.5"/>
<text text-anchor="middle" x="644" y="-119.5" font-family="Helvetica,sans-Serif" font-size="10.00" fill="#000000">errno.h</text>
</a>
</g>
</g>
<!-- Node14&#45;&gt;Node16 -->
<g id="edge24" class="edge">
<title>Node14&#45;&gt;Node16</title>
<path fill="none" stroke="#191970" d="M598.5803,-168.2455C606.5458,-160.1352 618.0641,-148.4075 627.5079,-138.7919"/>
<polygon fill="#191970" stroke="#191970" points="630.0195,-141.2297 634.5295,-131.6427 625.0253,-136.3247 630.0195,-141.2297"/>
</g>
<!-- Node17 -->
<g id="node18" class="node">
<title>Node17</title>
<polygon fill="#ffffff" stroke="#bfbfbf" points="689,-112.5 689,-131.5 745,-131.5 745,-112.5 689,-112.5"/>
<text text-anchor="middle" x="717" y="-119.5" font-family="Helvetica,sans-Serif" font-size="10.00" fill="#000000">stddef.h</text>
</g>
<!-- Node14&#45;&gt;Node17 -->
<g id="edge26" class="edge">
<title>Node14&#45;&gt;Node17</title>
<path fill="none" stroke="#191970" d="M611.004,-168.3733C631.6435,-159.3435 662.7158,-145.7494 685.8889,-135.6111"/>
<polygon fill="#191970" stroke="#191970" points="687.5245,-138.7159 695.2831,-131.5011 684.7187,-132.3028 687.5245,-138.7159"/>
</g>
<!-- Node15&#45;&gt;Node8 -->
<g id="edge23" class="edge">
<title>Node15&#45;&gt;Node8</title>
<path fill="none" stroke="#191970" d="M663.8703,-56.3733C638.9232,-47.1822 601.1408,-33.2624 573.4794,-23.0713"/>
<polygon fill="#191970" stroke="#191970" points="574.3822,-19.674 563.7888,-19.5011 571.9622,-26.2424 574.3822,-19.674"/>
</g>
</g>
</svg>
