<?xml version="1.0" encoding="UTF-8" standalone="no"?>
<!DOCTYPE svg PUBLIC "-//W3C//DTD SVG 1.1//EN"
 "http://www.w3.org/Graphics/SVG/1.1/DTD/svg11.dtd">
<!-- Generated by graphviz version 2.40.1 (0)
 -->
<!-- Title: boards/stm32f723e&#45;disco/include/gpio_params.h Pages: 1 -->
<svg width="1289pt" height="375pt"
 viewBox="0.00 0.00 1289.00 375.00" xmlns="http://www.w3.org/2000/svg" xmlns:xlink="http://www.w3.org/1999/xlink">
<g id="graph0" class="graph" transform="scale(1 1) rotate(0) translate(4 371)">
<title>boards/stm32f723e&#45;disco/include/gpio_params.h</title>
<polygon fill="#ffffff" stroke="transparent" points="-4,4 -4,-371 1285,-371 1285,4 -4,4"/>
<!-- Node0 -->
<g id="node1" class="node">
<title>Node0</title>
<polygon fill="#bfbfbf" stroke="#000000" points="764,-336.5 764,-366.5 900,-366.5 900,-336.5 764,-336.5"/>
<text text-anchor="start" x="772" y="-354.5" font-family="Helvetica,sans-Serif" font-size="10.00" fill="#000000">boards/stm32f723e&#45;disco</text>
<text text-anchor="middle" x="832" y="-343.5" font-family="Helvetica,sans-Serif" font-size="10.00" fill="#000000">/include/gpio_params.h</text>
</g>
<!-- Node1 -->
<g id="node2" class="node">
<title>Node1</title>
<g id="a_node2"><a xlink:href="stm32f723e-disco_2include_2board_8h.html" target="_top" xlink:title="Board specific definitions for the STM32F723E&#45;DISCO board. ">
<polygon fill="#ffffff" stroke="#000000" points="778.5,-280.5 778.5,-299.5 831.5,-299.5 831.5,-280.5 778.5,-280.5"/>
<text text-anchor="middle" x="805" y="-287.5" font-family="Helvetica,sans-Serif" font-size="10.00" fill="#000000">board.h</text>
</a>
</g>
</g>
<!-- Node0&#45;&gt;Node1 -->
<g id="edge1" class="edge">
<title>Node0&#45;&gt;Node1</title>
<path fill="none" stroke="#191970" d="M825.3258,-336.2977C821.7341,-328.1166 817.2676,-317.943 813.4371,-309.2179"/>
<polygon fill="#191970" stroke="#191970" points="816.5478,-307.5964 809.323,-299.8469 810.1382,-310.4104 816.5478,-307.5964"/>
</g>
<!-- Node28 -->
<g id="node29" class="node">
<title>Node28</title>
<g id="a_node29"><a xlink:href="periph_8h.html" target="_top" xlink:title="Parameter definitions for mapping peripherals directly to SAUL. ">
<polygon fill="#ffffff" stroke="#000000" points="1033,-112.5 1033,-131.5 1111,-131.5 1111,-112.5 1033,-112.5"/>
<text text-anchor="middle" x="1072" y="-119.5" font-family="Helvetica,sans-Serif" font-size="10.00" fill="#000000">saul/periph.h</text>
</a>
</g>
</g>
<!-- Node0&#45;&gt;Node28 -->
<g id="edge40" class="edge">
<title>Node0&#45;&gt;Node28</title>
<path fill="none" stroke="#191970" d="M847.7471,-336.4419C890.7381,-295.3317 1009.8824,-181.4 1054.6758,-138.5662"/>
<polygon fill="#191970" stroke="#191970" points="1057.099,-141.0918 1061.9075,-131.6509 1052.2612,-136.0326 1057.099,-141.0918"/>
</g>
<!-- Node2 -->
<g id="node3" class="node">
<title>Node2</title>
<polygon fill="#ffffff" stroke="#bfbfbf" points="805,-224.5 805,-243.5 847,-243.5 847,-224.5 805,-224.5"/>
<text text-anchor="middle" x="826" y="-231.5" font-family="Helvetica,sans-Serif" font-size="10.00" fill="#000000">cpu.h</text>
</g>
<!-- Node1&#45;&gt;Node2 -->
<g id="edge2" class="edge">
<title>Node1&#45;&gt;Node2</title>
<path fill="none" stroke="#191970" d="M808.6579,-280.2455C811.4584,-272.7776 815.409,-262.2427 818.8324,-253.1137"/>
<polygon fill="#191970" stroke="#191970" points="822.1499,-254.2349 822.384,-243.6427 815.5955,-251.777 822.1499,-254.2349"/>
</g>
<!-- Node3 -->
<g id="node4" class="node">
<title>Node3</title>
<g id="a_node4"><a xlink:href="boards_2stm32f723e-disco_2include_2periph__conf_8h.html" target="_top" xlink:title="Peripheral MCU configuration for the STM32F723E&#45;DISCO board. ">
<polygon fill="#ffffff" stroke="#000000" points="228.5,-168.5 228.5,-187.5 309.5,-187.5 309.5,-168.5 228.5,-168.5"/>
<text text-anchor="middle" x="269" y="-175.5" font-family="Helvetica,sans-Serif" font-size="10.00" fill="#000000">periph_conf.h</text>
</a>
</g>
</g>
<!-- Node1&#45;&gt;Node3 -->
<g id="edge3" class="edge">
<title>Node1&#45;&gt;Node3</title>
<path fill="none" stroke="#191970" d="M778.4197,-284.4459C694.0244,-266.8111 431.1502,-211.8821 319.73,-188.6003"/>
<polygon fill="#191970" stroke="#191970" points="320.2522,-185.1339 309.7477,-186.5144 318.8204,-191.9859 320.2522,-185.1339"/>
</g>
<!-- Node11 -->
<g id="node12" class="node">
<title>Node11</title>
<g id="a_node12"><a xlink:href="stm32__leds_8h.html" target="_top" xlink:title="Common LED macros. ">
<polygon fill="#ffffff" stroke="#000000" points="709,-224.5 709,-243.5 787,-243.5 787,-224.5 709,-224.5"/>
<text text-anchor="middle" x="748" y="-231.5" font-family="Helvetica,sans-Serif" font-size="10.00" fill="#000000">stm32_leds.h</text>
</a>
</g>
</g>
<!-- Node1&#45;&gt;Node11 -->
<g id="edge12" class="edge">
<title>Node1&#45;&gt;Node11</title>
<path fill="none" stroke="#191970" d="M795.0714,-280.2455C786.8162,-272.1352 774.8791,-260.4075 765.0918,-250.7919"/>
<polygon fill="#191970" stroke="#191970" points="767.4011,-248.1542 757.8149,-243.6427 762.4954,-253.1476 767.4011,-248.1542"/>
</g>
<!-- Node4 -->
<g id="node5" class="node">
<title>Node4</title>
<polygon fill="#ffffff" stroke="#bfbfbf" points="902.5,-.5 902.5,-19.5 979.5,-19.5 979.5,-.5 902.5,-.5"/>
<text text-anchor="middle" x="941" y="-7.5" font-family="Helvetica,sans-Serif" font-size="10.00" fill="#000000">periph_cpu.h</text>
</g>
<!-- Node3&#45;&gt;Node4 -->
<g id="edge4" class="edge">
<title>Node3&#45;&gt;Node4</title>
<path fill="none" stroke="#191970" d="M309.5123,-176.7848C381.1,-173.8544 534.1964,-164.0604 659,-132 723.1094,-115.5311 736.2325,-102.2402 797,-76 836.9226,-58.7609 882.4661,-37.6376 911.4553,-24.0056"/>
<polygon fill="#191970" stroke="#191970" points="913.0664,-27.1156 920.6198,-19.6862 910.0819,-20.7836 913.0664,-27.1156"/>
</g>
<!-- Node5 -->
<g id="node6" class="node">
<title>Node5</title>
<polygon fill="#ffffff" stroke="#bfbfbf" points="190,-112.5 190,-131.5 252,-131.5 252,-112.5 190,-112.5"/>
<text text-anchor="middle" x="221" y="-119.5" font-family="Helvetica,sans-Serif" font-size="10.00" fill="#000000">clk_conf.h</text>
</g>
<!-- Node3&#45;&gt;Node5 -->
<g id="edge5" class="edge">
<title>Node3&#45;&gt;Node5</title>
<path fill="none" stroke="#191970" d="M260.639,-168.2455C253.825,-160.2958 244.0319,-148.8706 235.8848,-139.3656"/>
<polygon fill="#191970" stroke="#191970" points="238.4305,-136.9575 229.2651,-131.6427 233.1157,-141.513 238.4305,-136.9575"/>
</g>
<!-- Node6 -->
<g id="node7" class="node">
<title>Node6</title>
<polygon fill="#ffffff" stroke="#bfbfbf" points="0,-112.5 0,-131.5 94,-131.5 94,-112.5 0,-112.5"/>
<text text-anchor="middle" x="47" y="-119.5" font-family="Helvetica,sans-Serif" font-size="10.00" fill="#000000">cfg_rtt_default.h</text>
</g>
<!-- Node3&#45;&gt;Node6 -->
<g id="edge6" class="edge">
<title>Node3&#45;&gt;Node6</title>
<path fill="none" stroke="#191970" d="M231.0891,-168.4369C193.335,-158.9133 135.2735,-144.2672 94.4736,-133.9753"/>
<polygon fill="#191970" stroke="#191970" points="95.3069,-130.576 84.7546,-131.5237 93.5947,-137.3633 95.3069,-130.576"/>
</g>
<!-- Node7 -->
<g id="node8" class="node">
<title>Node7</title>
<g id="a_node8"><a xlink:href="cfg__usb__otg__fs_8h.html" target="_top" xlink:title="Common configuration for STM32 OTG FS peripheral. ">
<polygon fill="#ffffff" stroke="#000000" points="270,-112.5 270,-131.5 364,-131.5 364,-112.5 270,-112.5"/>
<text text-anchor="middle" x="317" y="-119.5" font-family="Helvetica,sans-Serif" font-size="10.00" fill="#000000">cfg_usb_otg_fs.h</text>
</a>
</g>
</g>
<!-- Node3&#45;&gt;Node7 -->
<g id="edge7" class="edge">
<title>Node3&#45;&gt;Node7</title>
<path fill="none" stroke="#191970" d="M277.361,-168.2455C284.175,-160.2958 293.9681,-148.8706 302.1152,-139.3656"/>
<polygon fill="#191970" stroke="#191970" points="304.8843,-141.513 308.7349,-131.6427 299.5695,-136.9575 304.8843,-141.513"/>
</g>
<!-- Node10 -->
<g id="node11" class="node">
<title>Node10</title>
<g id="a_node11"><a xlink:href="lcd__fmc_8h_source.html" target="_top" xlink:title="lcd_fmc.h">
<polygon fill="#ffffff" stroke="#000000" points="112,-112.5 112,-131.5 172,-131.5 172,-112.5 112,-112.5"/>
<text text-anchor="middle" x="142" y="-119.5" font-family="Helvetica,sans-Serif" font-size="10.00" fill="#000000">lcd_fmc.h</text>
</a>
</g>
</g>
<!-- Node3&#45;&gt;Node10 -->
<g id="edge11" class="edge">
<title>Node3&#45;&gt;Node10</title>
<path fill="none" stroke="#191970" d="M247.1679,-168.3733C226.6897,-159.3435 195.8601,-145.7494 172.8681,-135.6111"/>
<polygon fill="#191970" stroke="#191970" points="174.1093,-132.3333 163.5472,-131.5011 171.285,-138.7383 174.1093,-132.3333"/>
</g>
<!-- Node7&#45;&gt;Node4 -->
<g id="edge8" class="edge">
<title>Node7&#45;&gt;Node4</title>
<path fill="none" stroke="#191970" d="M322.081,-112.2382C330.5467,-97.1207 349.0986,-68.4889 374,-56 474.3695,-5.6614 766.4481,-32.8132 878,-20 882.7034,-19.4598 887.5928,-18.8211 892.4749,-18.1319"/>
<polygon fill="#191970" stroke="#191970" points="893.0429,-21.5861 902.4238,-16.6617 892.0196,-14.6613 893.0429,-21.5861"/>
</g>
<!-- Node8 -->
<g id="node9" class="node">
<title>Node8</title>
<g id="a_node9"><a xlink:href="usbdev__synopsys__dwc2_8h.html" target="_top" xlink:title="Low level USB FS/HS driver definitions for MCUs with Synopsys DWC2 IP core. ">
<polygon fill="#ffffff" stroke="#000000" points="155,-56.5 155,-75.5 289,-75.5 289,-56.5 155,-56.5"/>
<text text-anchor="middle" x="222" y="-63.5" font-family="Helvetica,sans-Serif" font-size="10.00" fill="#000000">usbdev_synopsys_dwc2.h</text>
</a>
</g>
</g>
<!-- Node7&#45;&gt;Node8 -->
<g id="edge9" class="edge">
<title>Node7&#45;&gt;Node8</title>
<path fill="none" stroke="#191970" d="M300.4523,-112.2455C285.7401,-103.5731 264.0112,-90.7645 247.1495,-80.825"/>
<polygon fill="#191970" stroke="#191970" points="248.7502,-77.7057 238.3581,-75.6427 245.1954,-83.736 248.7502,-77.7057"/>
</g>
<!-- Node9 -->
<g id="node10" class="node">
<title>Node9</title>
<polygon fill="#ffffff" stroke="#bfbfbf" points="596,-.5 596,-19.5 648,-19.5 648,-.5 596,-.5"/>
<text text-anchor="middle" x="622" y="-7.5" font-family="Helvetica,sans-Serif" font-size="10.00" fill="#000000">stdint.h</text>
</g>
<!-- Node8&#45;&gt;Node9 -->
<g id="edge10" class="edge">
<title>Node8&#45;&gt;Node9</title>
<path fill="none" stroke="#191970" d="M289.4022,-56.5637C374.7851,-44.6101 518.8498,-24.441 585.7928,-15.069"/>
<polygon fill="#191970" stroke="#191970" points="586.4357,-18.5132 595.8538,-13.6605 585.4651,-11.5808 586.4357,-18.5132"/>
</g>
<!-- Node12 -->
<g id="node13" class="node">
<title>Node12</title>
<g id="a_node13"><a xlink:href="gpio__ll_8h.html" target="_top" xlink:title="Peripheral GPIO Low&#45;Level API. ">
<polygon fill="#ffffff" stroke="#000000" points="828.5,-112.5 828.5,-131.5 917.5,-131.5 917.5,-112.5 828.5,-112.5"/>
<text text-anchor="middle" x="873" y="-119.5" font-family="Helvetica,sans-Serif" font-size="10.00" fill="#000000">periph/gpio_ll.h</text>
</a>
</g>
</g>
<!-- Node11&#45;&gt;Node12 -->
<g id="edge13" class="edge">
<title>Node11&#45;&gt;Node12</title>
<path fill="none" stroke="#191970" d="M758.6574,-224.4509C780.0594,-205.2747 828.4729,-161.8962 854.921,-138.1988"/>
<polygon fill="#191970" stroke="#191970" points="857.2574,-140.8048 862.3695,-131.5249 852.5862,-135.5914 857.2574,-140.8048"/>
</g>
<!-- Node22 -->
<g id="node23" class="node">
<title>Node22</title>
<g id="a_node23"><a xlink:href="kernel__defines_8h.html" target="_top" xlink:title="Common macros and compiler attributes/pragmas configuration. ">
<polygon fill="#ffffff" stroke="#000000" points="669.5,-168.5 669.5,-187.5 764.5,-187.5 764.5,-168.5 669.5,-168.5"/>
<text text-anchor="middle" x="717" y="-175.5" font-family="Helvetica,sans-Serif" font-size="10.00" fill="#000000">kernel_defines.h</text>
</a>
</g>
</g>
<!-- Node11&#45;&gt;Node22 -->
<g id="edge30" class="edge">
<title>Node11&#45;&gt;Node22</title>
<path fill="none" stroke="#191970" d="M742.6002,-224.2455C738.3773,-216.617 732.3827,-205.7881 727.2559,-196.5267"/>
<polygon fill="#191970" stroke="#191970" points="730.2432,-194.6965 722.3379,-187.6427 724.119,-198.0867 730.2432,-194.6965"/>
</g>
<!-- Node12&#45;&gt;Node4 -->
<g id="edge28" class="edge">
<title>Node12&#45;&gt;Node4</title>
<path fill="none" stroke="#191970" d="M870.5376,-112.3592C867.6431,-98.8633 864.3615,-73.9773 874,-56 881.4212,-42.1582 895.056,-31.6567 908.0978,-24.2077"/>
<polygon fill="#191970" stroke="#191970" points="909.7393,-27.2989 916.9483,-19.5348 906.471,-21.1087 909.7393,-27.2989"/>
</g>
<!-- Node12&#45;&gt;Node9 -->
<g id="edge17" class="edge">
<title>Node12&#45;&gt;Node9</title>
<path fill="none" stroke="#191970" d="M828.1043,-112.8559C783.5324,-103.3306 718.6757,-88.1326 696,-76 672.6914,-63.5288 650.7193,-42.271 636.8673,-27.2554"/>
<polygon fill="#191970" stroke="#191970" points="639.3314,-24.7607 630.0502,-19.651 634.1192,-29.4333 639.3314,-24.7607"/>
</g>
<!-- Node13 -->
<g id="node14" class="node">
<title>Node13</title>
<g id="a_node14"><a xlink:href="assert_8h.html" target="_top" xlink:title="POSIX.1&#45;2008 compliant version of the assert macro. ">
<polygon fill="#ffffff" stroke="#000000" points="595,-56.5 595,-75.5 649,-75.5 649,-56.5 595,-56.5"/>
<text text-anchor="middle" x="622" y="-63.5" font-family="Helvetica,sans-Serif" font-size="10.00" fill="#000000">assert.h</text>
</a>
</g>
</g>
<!-- Node12&#45;&gt;Node13 -->
<g id="edge14" class="edge">
<title>Node12&#45;&gt;Node13</title>
<path fill="none" stroke="#191970" d="M828.2785,-112.5235C785.7171,-103.4291 719.9059,-89.1704 663,-76 661.7553,-75.7119 660.4899,-75.4167 659.2125,-75.1166"/>
<polygon fill="#191970" stroke="#191970" points="659.8648,-71.6741 649.3257,-72.7598 658.2416,-78.4833 659.8648,-71.6741"/>
</g>
<!-- Node14 -->
<g id="node15" class="node">
<title>Node14</title>
<polygon fill="#ffffff" stroke="#bfbfbf" points="1221,-.5 1221,-19.5 1281,-19.5 1281,-.5 1221,-.5"/>
<text text-anchor="middle" x="1251" y="-7.5" font-family="Helvetica,sans-Serif" font-size="10.00" fill="#000000">stdbool.h</text>
</g>
<!-- Node12&#45;&gt;Node14 -->
<g id="edge16" class="edge">
<title>Node12&#45;&gt;Node14</title>
<path fill="none" stroke="#191970" d="M917.6615,-118.3595C1018.2106,-109.9504 1254.5127,-88.9103 1266,-76 1277.5334,-63.0379 1270.7721,-43.0717 1262.9833,-28.4932"/>
<polygon fill="#191970" stroke="#191970" points="1265.9752,-26.676 1257.8986,-19.8189 1259.9362,-30.216 1265.9752,-26.676"/>
</g>
<!-- Node15 -->
<g id="node16" class="node">
<title>Node15</title>
<g id="a_node16"><a xlink:href="architecture_8h.html" target="_top" xlink:title="Platform&#45;independent access to architecture details. ">
<polygon fill="#ffffff" stroke="#000000" points="705.5,-56.5 705.5,-75.5 788.5,-75.5 788.5,-56.5 705.5,-56.5"/>
<text text-anchor="middle" x="747" y="-63.5" font-family="Helvetica,sans-Serif" font-size="10.00" fill="#000000">architecture.h</text>
</a>
</g>
</g>
<!-- Node12&#45;&gt;Node15 -->
<g id="edge18" class="edge">
<title>Node12&#45;&gt;Node15</title>
<path fill="none" stroke="#191970" d="M851.3398,-112.3733C831.0228,-103.3435 800.436,-89.7494 777.625,-79.6111"/>
<polygon fill="#191970" stroke="#191970" points="778.9372,-76.3642 768.3775,-75.5011 776.0941,-82.7609 778.9372,-76.3642"/>
</g>
<!-- Node19 -->
<g id="node20" class="node">
<title>Node19</title>
<g id="a_node20"><a xlink:href="drivers_2include_2periph_2gpio_8h.html" target="_top" xlink:title="Low&#45;level GPIO peripheral driver interface definitions. ">
<polygon fill="#ffffff" stroke="#000000" points="1177,-56.5 1177,-75.5 1257,-75.5 1257,-56.5 1177,-56.5"/>
<text text-anchor="middle" x="1217" y="-63.5" font-family="Helvetica,sans-Serif" font-size="10.00" fill="#000000">periph/gpio.h</text>
</a>
</g>
</g>
<!-- Node12&#45;&gt;Node19 -->
<g id="edge23" class="edge">
<title>Node12&#45;&gt;Node19</title>
<path fill="none" stroke="#191970" d="M917.5881,-115.7084C973.4734,-107.6765 1072.4307,-92.9728 1166.9066,-76.134"/>
<polygon fill="#191970" stroke="#191970" points="1167.6929,-79.5489 1176.9179,-74.3385 1166.4571,-72.6589 1167.6929,-79.5489"/>
</g>
<!-- Node21 -->
<g id="node22" class="node">
<title>Node21</title>
<polygon fill="#ffffff" stroke="#bfbfbf" points="883,-56.5 883,-75.5 963,-75.5 963,-56.5 883,-56.5"/>
<text text-anchor="middle" x="923" y="-63.5" font-family="Helvetica,sans-Serif" font-size="10.00" fill="#000000">gpio_ll_arch.h</text>
</g>
<!-- Node12&#45;&gt;Node21 -->
<g id="edge29" class="edge">
<title>Node12&#45;&gt;Node21</title>
<path fill="none" stroke="#191970" d="M881.7093,-112.2455C888.8073,-104.2958 899.0084,-92.8706 907.495,-83.3656"/>
<polygon fill="#191970" stroke="#191970" points="910.3411,-85.4331 914.3905,-75.6427 905.1195,-80.771 910.3411,-85.4331"/>
</g>
<!-- Node13&#45;&gt;Node9 -->
<g id="edge15" class="edge">
<title>Node13&#45;&gt;Node9</title>
<path fill="none" stroke="#191970" d="M622,-56.2455C622,-48.9382 622,-38.6944 622,-29.7046"/>
<polygon fill="#191970" stroke="#191970" points="625.5001,-29.6426 622,-19.6427 618.5001,-29.6427 625.5001,-29.6426"/>
</g>
<!-- Node15&#45;&gt;Node9 -->
<g id="edge19" class="edge">
<title>Node15&#45;&gt;Node9</title>
<path fill="none" stroke="#191970" d="M725.5117,-56.3733C705.356,-47.3435 675.012,-33.7494 652.382,-23.6111"/>
<polygon fill="#191970" stroke="#191970" points="653.7649,-20.3955 643.2079,-19.5011 650.9029,-26.7838 653.7649,-20.3955"/>
</g>
<!-- Node16 -->
<g id="node17" class="node">
<title>Node16</title>
<g id="a_node17"><a xlink:href="inttypes_8h.html" target="_top" xlink:title="Adds include for missing inttype definitions. ">
<polygon fill="#ffffff" stroke="#000000" points="681.5,-.5 681.5,-19.5 744.5,-19.5 744.5,-.5 681.5,-.5"/>
<text text-anchor="middle" x="713" y="-7.5" font-family="Helvetica,sans-Serif" font-size="10.00" fill="#000000">inttypes.h</text>
</a>
</g>
</g>
<!-- Node15&#45;&gt;Node16 -->
<g id="edge20" class="edge">
<title>Node15&#45;&gt;Node16</title>
<path fill="none" stroke="#191970" d="M741.0777,-56.2455C736.3973,-48.5367 729.7327,-37.5598 724.0711,-28.2348"/>
<polygon fill="#191970" stroke="#191970" points="727.0361,-26.3741 718.8545,-19.6427 721.0525,-30.007 727.0361,-26.3741"/>
</g>
<!-- Node17 -->
<g id="node18" class="node">
<title>Node17</title>
<polygon fill="#ffffff" stroke="#bfbfbf" points="1005,-.5 1005,-19.5 1055,-19.5 1055,-.5 1005,-.5"/>
<text text-anchor="middle" x="1030" y="-7.5" font-family="Helvetica,sans-Serif" font-size="10.00" fill="#000000">limits.h</text>
</g>
<!-- Node15&#45;&gt;Node17 -->
<g id="edge21" class="edge">
<title>Node15&#45;&gt;Node17</title>
<path fill="none" stroke="#191970" d="M788.9119,-58.5928C837.0798,-49.9427 918.4455,-34.9103 988,-20 990.2033,-19.5277 992.4683,-19.0284 994.7501,-18.515"/>
<polygon fill="#191970" stroke="#191970" points="995.7661,-21.8726 1004.7229,-16.2135 994.1919,-15.0519 995.7661,-21.8726"/>
</g>
<!-- Node18 -->
<g id="node19" class="node">
<title>Node18</title>
<polygon fill="#ffffff" stroke="#bfbfbf" points="762.5,-.5 762.5,-19.5 869.5,-19.5 869.5,-.5 762.5,-.5"/>
<text text-anchor="middle" x="816" y="-7.5" font-family="Helvetica,sans-Serif" font-size="10.00" fill="#000000">architecture_arch.h</text>
</g>
<!-- Node15&#45;&gt;Node18 -->
<g id="edge22" class="edge">
<title>Node15&#45;&gt;Node18</title>
<path fill="none" stroke="#191970" d="M759.0189,-56.2455C769.2098,-47.9746 784.0362,-35.9416 796.0107,-26.2232"/>
<polygon fill="#191970" stroke="#191970" points="798.5598,-28.662 804.1188,-19.6427 794.1486,-23.2268 798.5598,-28.662"/>
</g>
<!-- Node19&#45;&gt;Node4 -->
<g id="edge26" class="edge">
<title>Node19&#45;&gt;Node4</title>
<path fill="none" stroke="#191970" d="M1176.8896,-57.8095C1173.8815,-57.1967 1170.8928,-56.5883 1168,-56 1106.4556,-43.4842 1035.5121,-29.1177 989.5472,-19.8176"/>
<polygon fill="#191970" stroke="#191970" points="990.0572,-16.3499 979.5617,-17.7974 988.6691,-23.2109 990.0572,-16.3499"/>
</g>
<!-- Node19&#45;&gt;Node14 -->
<g id="edge25" class="edge">
<title>Node19&#45;&gt;Node14</title>
<path fill="none" stroke="#191970" d="M1222.9223,-56.2455C1227.6027,-48.5367 1234.2673,-37.5598 1239.9289,-28.2348"/>
<polygon fill="#191970" stroke="#191970" points="1242.9475,-30.007 1245.1455,-19.6427 1236.9639,-26.3741 1242.9475,-30.007"/>
</g>
<!-- Node19&#45;&gt;Node17 -->
<g id="edge24" class="edge">
<title>Node19&#45;&gt;Node17</title>
<path fill="none" stroke="#191970" d="M1184.8536,-56.3733C1151.3981,-46.3545 1099.1794,-30.7168 1064.7783,-20.4149"/>
<polygon fill="#191970" stroke="#191970" points="1065.7306,-17.0466 1055.1468,-17.5306 1063.7224,-23.7523 1065.7306,-17.0466"/>
</g>
<!-- Node20 -->
<g id="node21" class="node">
<title>Node20</title>
<polygon fill="#ffffff" stroke="#bfbfbf" points="1080.5,-.5 1080.5,-19.5 1161.5,-19.5 1161.5,-.5 1080.5,-.5"/>
<text text-anchor="middle" x="1121" y="-7.5" font-family="Helvetica,sans-Serif" font-size="10.00" fill="#000000">periph_conf.h</text>
</g>
<!-- Node19&#45;&gt;Node20 -->
<g id="edge27" class="edge">
<title>Node19&#45;&gt;Node20</title>
<path fill="none" stroke="#191970" d="M1200.2781,-56.2455C1185.4111,-47.5731 1163.4534,-34.7645 1146.4142,-24.825"/>
<polygon fill="#191970" stroke="#191970" points="1147.9317,-21.6582 1137.5303,-19.6427 1144.4045,-27.7047 1147.9317,-21.6582"/>
</g>
<!-- Node23 -->
<g id="node24" class="node">
<title>Node23</title>
<g id="a_node24"><a xlink:href="modules_8h.html" target="_top" xlink:title="Common macros and compiler attributes/pragmas configuration. ">
<polygon fill="#ffffff" stroke="#000000" points="745.5,-112.5 745.5,-131.5 810.5,-131.5 810.5,-112.5 745.5,-112.5"/>
<text text-anchor="middle" x="778" y="-119.5" font-family="Helvetica,sans-Serif" font-size="10.00" fill="#000000">modules.h</text>
</a>
</g>
</g>
<!-- Node22&#45;&gt;Node23 -->
<g id="edge31" class="edge">
<title>Node22&#45;&gt;Node23</title>
<path fill="none" stroke="#191970" d="M727.6254,-168.2455C736.5473,-160.0549 749.488,-148.1749 760.0192,-138.5069"/>
<polygon fill="#191970" stroke="#191970" points="762.4968,-140.9837 767.4964,-131.6427 757.7629,-135.8271 762.4968,-140.9837"/>
</g>
<!-- Node24 -->
<g id="node25" class="node">
<title>Node24</title>
<g id="a_node25"><a xlink:href="riot__version_8h.html" target="_top" xlink:title="Common macros and compiler attributes/pragmas configuration. ">
<polygon fill="#ffffff" stroke="#000000" points="495.5,-56.5 495.5,-75.5 576.5,-75.5 576.5,-56.5 495.5,-56.5"/>
<text text-anchor="middle" x="536" y="-63.5" font-family="Helvetica,sans-Serif" font-size="10.00" fill="#000000">riot_version.h</text>
</a>
</g>
</g>
<!-- Node22&#45;&gt;Node24 -->
<g id="edge32" class="edge">
<title>Node22&#45;&gt;Node24</title>
<path fill="none" stroke="#191970" d="M710.6757,-168.1254C701.094,-153.8864 681.6016,-127.5908 659,-112 636.9959,-96.8214 609.3461,-85.8972 585.8379,-78.5143"/>
<polygon fill="#191970" stroke="#191970" points="586.6296,-75.0975 576.045,-75.5649 584.6109,-81.8001 586.6296,-75.0975"/>
</g>
<!-- Node25 -->
<g id="node26" class="node">
<title>Node25</title>
<g id="a_node26"><a xlink:href="compiler__hints_8h.html" target="_top" xlink:title="Common macros and compiler attributes/pragmas configuration. ">
<polygon fill="#ffffff" stroke="#000000" points="557.5,-112.5 557.5,-131.5 650.5,-131.5 650.5,-112.5 557.5,-112.5"/>
<text text-anchor="middle" x="604" y="-119.5" font-family="Helvetica,sans-Serif" font-size="10.00" fill="#000000">compiler_hints.h</text>
</a>
</g>
</g>
<!-- Node22&#45;&gt;Node25 -->
<g id="edge34" class="edge">
<title>Node22&#45;&gt;Node25</title>
<path fill="none" stroke="#191970" d="M697.5746,-168.3733C679.5979,-159.4644 652.6559,-146.1127 632.291,-136.0203"/>
<polygon fill="#191970" stroke="#191970" points="633.6861,-132.8055 623.1719,-131.5011 630.5778,-139.0776 633.6861,-132.8055"/>
</g>
<!-- Node26 -->
<g id="node27" class="node">
<title>Node26</title>
<g id="a_node27"><a xlink:href="container_8h.html" target="_top" xlink:title="Common macros and compiler attributes/pragmas configuration. ">
<polygon fill="#ffffff" stroke="#000000" points="382.5,-112.5 382.5,-131.5 451.5,-131.5 451.5,-112.5 382.5,-112.5"/>
<text text-anchor="middle" x="417" y="-119.5" font-family="Helvetica,sans-Serif" font-size="10.00" fill="#000000">container.h</text>
</a>
</g>
</g>
<!-- Node22&#45;&gt;Node26 -->
<g id="edge37" class="edge">
<title>Node22&#45;&gt;Node26</title>
<path fill="none" stroke="#191970" d="M669.4641,-169.1266C612.3818,-158.4713 517.3776,-140.7372 461.6232,-130.3297"/>
<polygon fill="#191970" stroke="#191970" points="462.1599,-126.8695 451.6874,-128.475 460.8753,-133.7506 462.1599,-126.8695"/>
</g>
<!-- Node24&#45;&gt;Node9 -->
<g id="edge33" class="edge">
<title>Node24&#45;&gt;Node9</title>
<path fill="none" stroke="#191970" d="M550.9801,-56.2455C564.1751,-47.6534 583.6051,-35.0014 598.8079,-25.1018"/>
<polygon fill="#191970" stroke="#191970" points="600.7215,-28.0325 607.1916,-19.6427 596.9017,-22.1665 600.7215,-28.0325"/>
</g>
<!-- Node25&#45;&gt;Node9 -->
<g id="edge36" class="edge">
<title>Node25&#45;&gt;Node9</title>
<path fill="none" stroke="#191970" d="M557.4281,-113.991C515.6743,-104.6681 464.1075,-86.5157 486,-56 497.8025,-39.5487 549.3978,-25.4519 585.526,-17.3468"/>
<polygon fill="#191970" stroke="#191970" points="586.6942,-20.6744 595.7196,-15.1252 585.2036,-13.835 586.6942,-20.6744"/>
</g>
<!-- Node25&#45;&gt;Node13 -->
<g id="edge35" class="edge">
<title>Node25&#45;&gt;Node13</title>
<path fill="none" stroke="#191970" d="M607.1354,-112.2455C609.51,-104.8579 612.8493,-94.4689 615.7615,-85.4087"/>
<polygon fill="#191970" stroke="#191970" points="619.1725,-86.234 618.9006,-75.6427 612.5083,-84.0919 619.1725,-86.234"/>
</g>
<!-- Node26&#45;&gt;Node9 -->
<g id="edge39" class="edge">
<title>Node26&#45;&gt;Node9</title>
<path fill="none" stroke="#191970" d="M402.821,-112.3407C385.0037,-99.0377 358.5231,-74.6116 374,-56 400.4675,-24.1718 523.1052,-14.2662 585.429,-11.2621"/>
<polygon fill="#191970" stroke="#191970" points="585.7759,-14.7502 595.6097,-10.8071 585.4633,-7.7571 585.7759,-14.7502"/>
</g>
<!-- Node27 -->
<g id="node28" class="node">
<title>Node27</title>
<polygon fill="#ffffff" stroke="#bfbfbf" points="383,-56.5 383,-75.5 439,-75.5 439,-56.5 383,-56.5"/>
<text text-anchor="middle" x="411" y="-63.5" font-family="Helvetica,sans-Serif" font-size="10.00" fill="#000000">stddef.h</text>
</g>
<!-- Node26&#45;&gt;Node27 -->
<g id="edge38" class="edge">
<title>Node26&#45;&gt;Node27</title>
<path fill="none" stroke="#191970" d="M415.9549,-112.2455C415.172,-104.9382 414.0744,-94.6944 413.1112,-85.7046"/>
<polygon fill="#191970" stroke="#191970" points="416.5786,-85.2129 412.0331,-75.6427 409.6185,-85.9587 416.5786,-85.2129"/>
</g>
<!-- Node28&#45;&gt;Node19 -->
<g id="edge41" class="edge">
<title>Node28&#45;&gt;Node19</title>
<path fill="none" stroke="#191970" d="M1096.9264,-112.3733C1120.6202,-103.2226 1156.4511,-89.3844 1182.8068,-79.2057"/>
<polygon fill="#191970" stroke="#191970" points="1184.3314,-82.3689 1192.3989,-75.5011 1181.8094,-75.8389 1184.3314,-82.3689"/>
</g>
<!-- Node29 -->
<g id="node30" class="node">
<title>Node29</title>
<g id="a_node30"><a xlink:href="adc_8h.html" target="_top" xlink:title="Low&#45;level ADC peripheral driver interface definitions. ">
<polygon fill="#ffffff" stroke="#000000" points="1083,-56.5 1083,-75.5 1159,-75.5 1159,-56.5 1083,-56.5"/>
<text text-anchor="middle" x="1121" y="-63.5" font-family="Helvetica,sans-Serif" font-size="10.00" fill="#000000">periph/adc.h</text>
</a>
</g>
</g>
<!-- Node28&#45;&gt;Node29 -->
<g id="edge42" class="edge">
<title>Node28&#45;&gt;Node29</title>
<path fill="none" stroke="#191970" d="M1080.5351,-112.2455C1087.4912,-104.2958 1097.4883,-92.8706 1105.8051,-83.3656"/>
<polygon fill="#191970" stroke="#191970" points="1108.6116,-85.4732 1112.5627,-75.6427 1103.3436,-80.8637 1108.6116,-85.4732"/>
</g>
<!-- Node30 -->
<g id="node31" class="node">
<title>Node30</title>
<g id="a_node31"><a xlink:href="pwm_8h.html" target="_top" xlink:title="Low&#45;level PWM peripheral driver interface definitions. ">
<polygon fill="#ffffff" stroke="#000000" points="981.5,-56.5 981.5,-75.5 1064.5,-75.5 1064.5,-56.5 981.5,-56.5"/>
<text text-anchor="middle" x="1023" y="-63.5" font-family="Helvetica,sans-Serif" font-size="10.00" fill="#000000">periph/pwm.h</text>
</a>
</g>
</g>
<!-- Node28&#45;&gt;Node30 -->
<g id="edge47" class="edge">
<title>Node28&#45;&gt;Node30</title>
<path fill="none" stroke="#191970" d="M1063.4649,-112.2455C1056.5088,-104.2958 1046.5117,-92.8706 1038.1949,-83.3656"/>
<polygon fill="#191970" stroke="#191970" points="1040.6564,-80.8637 1031.4373,-75.6427 1035.3884,-85.4732 1040.6564,-80.8637"/>
</g>
<!-- Node29&#45;&gt;Node4 -->
<g id="edge45" class="edge">
<title>Node29&#45;&gt;Node4</title>
<path fill="none" stroke="#191970" d="M1090.0569,-56.3733C1059.9961,-47.021 1014.1974,-32.7725 981.3022,-22.5385"/>
<polygon fill="#191970" stroke="#191970" points="982.1277,-19.1299 971.5393,-19.5011 980.0481,-25.8139 982.1277,-19.1299"/>
</g>
<!-- Node29&#45;&gt;Node9 -->
<g id="edge44" class="edge">
<title>Node29&#45;&gt;Node9</title>
<path fill="none" stroke="#191970" d="M1082.8506,-57.4818C1079.8636,-56.9377 1076.8873,-56.4348 1074,-56 896.6186,-29.2863 849.5416,-45.6272 672,-20 667.4919,-19.3493 662.7761,-18.5562 658.1182,-17.7042"/>
<polygon fill="#191970" stroke="#191970" points="658.5986,-14.2324 648.117,-15.7775 657.2743,-21.106 658.5986,-14.2324"/>
</g>
<!-- Node29&#45;&gt;Node17 -->
<g id="edge43" class="edge">
<title>Node29&#45;&gt;Node17</title>
<path fill="none" stroke="#191970" d="M1105.149,-56.2455C1091.1868,-47.6534 1070.6272,-35.0014 1054.5404,-25.1018"/>
<polygon fill="#191970" stroke="#191970" points="1056.0203,-21.9029 1045.6693,-19.6427 1052.3516,-27.8645 1056.0203,-21.9029"/>
</g>
<!-- Node29&#45;&gt;Node20 -->
<g id="edge46" class="edge">
<title>Node29&#45;&gt;Node20</title>
<path fill="none" stroke="#191970" d="M1121,-56.2455C1121,-48.9382 1121,-38.6944 1121,-29.7046"/>
<polygon fill="#191970" stroke="#191970" points="1124.5001,-29.6426 1121,-19.6427 1117.5001,-29.6427 1124.5001,-29.6426"/>
</g>
<!-- Node30&#45;&gt;Node4 -->
<g id="edge50" class="edge">
<title>Node30&#45;&gt;Node4</title>
<path fill="none" stroke="#191970" d="M1008.7167,-56.2455C996.253,-47.7337 977.9549,-35.2375 963.5208,-25.3801"/>
<polygon fill="#191970" stroke="#191970" points="965.3515,-22.392 955.1196,-19.6427 961.4038,-28.1726 965.3515,-22.392"/>
</g>
<!-- Node30&#45;&gt;Node9 -->
<g id="edge48" class="edge">
<title>Node30&#45;&gt;Node9</title>
<path fill="none" stroke="#191970" d="M981.2962,-57.5612C978.1552,-57.0058 975.0302,-56.4782 972,-56 839.3518,-35.0659 804.6085,-41.1843 672,-20 667.5022,-19.2815 662.7925,-18.4478 658.1379,-17.5743"/>
<polygon fill="#191970" stroke="#191970" points="658.6244,-14.1034 648.1398,-15.6277 657.2866,-20.9744 658.6244,-14.1034"/>
</g>
<!-- Node30&#45;&gt;Node17 -->
<g id="edge49" class="edge">
<title>Node30&#45;&gt;Node17</title>
<path fill="none" stroke="#191970" d="M1024.2193,-56.2455C1025.1327,-48.9382 1026.4132,-38.6944 1027.5369,-29.7046"/>
<polygon fill="#191970" stroke="#191970" points="1031.0272,-29.9996 1028.7947,-19.6427 1024.0813,-29.1313 1031.0272,-29.9996"/>
</g>
<!-- Node30&#45;&gt;Node20 -->
<g id="edge51" class="edge">
<title>Node30&#45;&gt;Node20</title>
<path fill="none" stroke="#191970" d="M1040.0703,-56.2455C1055.247,-47.5731 1077.6621,-34.7645 1095.0563,-24.825"/>
<polygon fill="#191970" stroke="#191970" points="1097.1794,-27.643 1104.1253,-19.6427 1093.7064,-21.5653 1097.1794,-27.643"/>
</g>
</g>
</svg>
