<?xml version="1.0" encoding="UTF-8" standalone="no"?>
<!DOCTYPE svg PUBLIC "-//W3C//DTD SVG 1.1//EN"
 "http://www.w3.org/Graphics/SVG/1.1/DTD/svg11.dtd">
<!-- Generated by graphviz version 2.40.1 (0)
 -->
<!-- Title: boards/stm32l476g&#45;disco/include/board.h Pages: 1 -->
<svg width="846pt" height="319pt"
 viewBox="0.00 0.00 845.50 319.00" xmlns="http://www.w3.org/2000/svg" xmlns:xlink="http://www.w3.org/1999/xlink">
<g id="graph0" class="graph" transform="scale(1 1) rotate(0) translate(4 315)">
<title>boards/stm32l476g&#45;disco/include/board.h</title>
<polygon fill="#ffffff" stroke="transparent" points="-4,4 -4,-315 841.5,-315 841.5,4 -4,4"/>
<!-- Node0 -->
<g id="node1" class="node">
<title>Node0</title>
<polygon fill="#bfbfbf" stroke="#000000" points="0,-280.5 0,-310.5 134,-310.5 134,-280.5 0,-280.5"/>
<text text-anchor="start" x="8" y="-298.5" font-family="Helvetica,sans-Serif" font-size="10.00" fill="#000000">boards/stm32l476g&#45;disco</text>
<text text-anchor="middle" x="67" y="-287.5" font-family="Helvetica,sans-Serif" font-size="10.00" fill="#000000">/include/board.h</text>
</g>
<!-- Node1 -->
<g id="node2" class="node">
<title>Node1</title>
<polygon fill="#ffffff" stroke="#bfbfbf" points="238,-.5 238,-19.5 290,-19.5 290,-.5 238,-.5"/>
<text text-anchor="middle" x="264" y="-7.5" font-family="Helvetica,sans-Serif" font-size="10.00" fill="#000000">stdint.h</text>
</g>
<!-- Node0&#45;&gt;Node1 -->
<g id="edge1" class="edge">
<title>Node0&#45;&gt;Node1</title>
<path fill="none" stroke="#191970" d="M53.8389,-280.3411C36.7265,-259.0217 9,-218.2661 9,-178 9,-178 9,-178 9,-122 9,-74.7616 157.5483,-34.3874 227.8875,-17.9176"/>
<polygon fill="#191970" stroke="#191970" points="228.7123,-21.3193 237.671,-15.6631 227.1404,-14.4981 228.7123,-21.3193"/>
</g>
<!-- Node2 -->
<g id="node3" class="node">
<title>Node2</title>
<polygon fill="#ffffff" stroke="#bfbfbf" points="46,-224.5 46,-243.5 88,-243.5 88,-224.5 46,-224.5"/>
<text text-anchor="middle" x="67" y="-231.5" font-family="Helvetica,sans-Serif" font-size="10.00" fill="#000000">cpu.h</text>
</g>
<!-- Node0&#45;&gt;Node2 -->
<g id="edge2" class="edge">
<title>Node0&#45;&gt;Node2</title>
<path fill="none" stroke="#191970" d="M67,-280.2977C67,-272.3834 67,-262.6043 67,-254.0759"/>
<polygon fill="#191970" stroke="#191970" points="70.5001,-253.8469 67,-243.8469 63.5001,-253.847 70.5001,-253.8469"/>
</g>
<!-- Node3 -->
<g id="node4" class="node">
<title>Node3</title>
<g id="a_node4"><a xlink:href="stm32__leds_8h.html" target="_top" xlink:title="Common LED macros. ">
<polygon fill="#ffffff" stroke="#000000" points="162,-224.5 162,-243.5 240,-243.5 240,-224.5 162,-224.5"/>
<text text-anchor="middle" x="201" y="-231.5" font-family="Helvetica,sans-Serif" font-size="10.00" fill="#000000">stm32_leds.h</text>
</a>
</g>
</g>
<!-- Node0&#45;&gt;Node3 -->
<g id="edge3" class="edge">
<title>Node0&#45;&gt;Node3</title>
<path fill="none" stroke="#191970" d="M99.7801,-280.4554C121.55,-270.464 149.9086,-257.4487 171.0686,-247.7372"/>
<polygon fill="#191970" stroke="#191970" points="172.6062,-250.8826 180.2348,-243.5303 169.6863,-244.5206 172.6062,-250.8826"/>
</g>
<!-- Node4 -->
<g id="node5" class="node">
<title>Node4</title>
<g id="a_node5"><a xlink:href="gpio__ll_8h.html" target="_top" xlink:title="Peripheral GPIO Low&#45;Level API. ">
<polygon fill="#ffffff" stroke="#000000" points="456.5,-112.5 456.5,-131.5 545.5,-131.5 545.5,-112.5 456.5,-112.5"/>
<text text-anchor="middle" x="501" y="-119.5" font-family="Helvetica,sans-Serif" font-size="10.00" fill="#000000">periph/gpio_ll.h</text>
</a>
</g>
</g>
<!-- Node3&#45;&gt;Node4 -->
<g id="edge4" class="edge">
<title>Node3&#45;&gt;Node4</title>
<path fill="none" stroke="#191970" d="M226.5778,-224.4509C280.2674,-204.4069 404.7853,-157.9202 465.8939,-135.1063"/>
<polygon fill="#191970" stroke="#191970" points="467.3427,-138.3014 475.4869,-131.5249 464.8943,-131.7435 467.3427,-138.3014"/>
</g>
<!-- Node15 -->
<g id="node16" class="node">
<title>Node15</title>
<g id="a_node16"><a xlink:href="kernel__defines_8h.html" target="_top" xlink:title="Common macros and compiler attributes/pragmas configuration. ">
<polygon fill="#ffffff" stroke="#000000" points="153.5,-168.5 153.5,-187.5 248.5,-187.5 248.5,-168.5 153.5,-168.5"/>
<text text-anchor="middle" x="201" y="-175.5" font-family="Helvetica,sans-Serif" font-size="10.00" fill="#000000">kernel_defines.h</text>
</a>
</g>
</g>
<!-- Node3&#45;&gt;Node15 -->
<g id="edge21" class="edge">
<title>Node3&#45;&gt;Node15</title>
<path fill="none" stroke="#191970" d="M201,-224.2455C201,-216.9382 201,-206.6944 201,-197.7046"/>
<polygon fill="#191970" stroke="#191970" points="204.5001,-197.6426 201,-187.6427 197.5001,-197.6427 204.5001,-197.6426"/>
</g>
<!-- Node4&#45;&gt;Node1 -->
<g id="edge8" class="edge">
<title>Node4&#45;&gt;Node1</title>
<path fill="none" stroke="#191970" d="M483.3656,-112.4849C451.7155,-95.4264 387.574,-60.9504 377,-56 351.2662,-43.9523 321.4732,-31.8997 298.9415,-23.1555"/>
<polygon fill="#191970" stroke="#191970" points="300.0421,-19.8289 289.4524,-19.5017 297.5267,-26.3614 300.0421,-19.8289"/>
</g>
<!-- Node5 -->
<g id="node6" class="node">
<title>Node5</title>
<g id="a_node6"><a xlink:href="assert_8h.html" target="_top" xlink:title="POSIX.1&#45;2008 compliant version of the assert macro. ">
<polygon fill="#ffffff" stroke="#000000" points="314,-56.5 314,-75.5 368,-75.5 368,-56.5 314,-56.5"/>
<text text-anchor="middle" x="341" y="-63.5" font-family="Helvetica,sans-Serif" font-size="10.00" fill="#000000">assert.h</text>
</a>
</g>
</g>
<!-- Node4&#45;&gt;Node5 -->
<g id="edge5" class="edge">
<title>Node4&#45;&gt;Node5</title>
<path fill="none" stroke="#191970" d="M473.495,-112.3733C447.1198,-103.1419 407.1149,-89.1402 377.9642,-78.9375"/>
<polygon fill="#191970" stroke="#191970" points="378.7409,-75.5012 368.1461,-75.5011 376.4284,-82.1082 378.7409,-75.5012"/>
</g>
<!-- Node6 -->
<g id="node7" class="node">
<title>Node6</title>
<polygon fill="#ffffff" stroke="#bfbfbf" points="583,-.5 583,-19.5 643,-19.5 643,-.5 583,-.5"/>
<text text-anchor="middle" x="613" y="-7.5" font-family="Helvetica,sans-Serif" font-size="10.00" fill="#000000">stdbool.h</text>
</g>
<!-- Node4&#45;&gt;Node6 -->
<g id="edge7" class="edge">
<title>Node4&#45;&gt;Node6</title>
<path fill="none" stroke="#191970" d="M508.0856,-112.0491C517.8739,-98.6229 536.4357,-74.2841 555,-56 566.0908,-45.0766 579.6707,-34.192 590.9015,-25.755"/>
<polygon fill="#191970" stroke="#191970" points="592.9795,-28.5713 598.9517,-19.8201 588.8257,-22.937 592.9795,-28.5713"/>
</g>
<!-- Node7 -->
<g id="node8" class="node">
<title>Node7</title>
<g id="a_node8"><a xlink:href="architecture_8h.html" target="_top" xlink:title="Platform&#45;independent access to architecture details. ">
<polygon fill="#ffffff" stroke="#000000" points="424.5,-56.5 424.5,-75.5 507.5,-75.5 507.5,-56.5 424.5,-56.5"/>
<text text-anchor="middle" x="466" y="-63.5" font-family="Helvetica,sans-Serif" font-size="10.00" fill="#000000">architecture.h</text>
</a>
</g>
</g>
<!-- Node4&#45;&gt;Node7 -->
<g id="edge9" class="edge">
<title>Node4&#45;&gt;Node7</title>
<path fill="none" stroke="#191970" d="M494.9035,-112.2455C490.0855,-104.5367 483.2249,-93.5598 477.3968,-84.2348"/>
<polygon fill="#191970" stroke="#191970" points="480.2947,-82.2677 472.0267,-75.6427 474.3587,-85.9777 480.2947,-82.2677"/>
</g>
<!-- Node11 -->
<g id="node12" class="node">
<title>Node11</title>
<g id="a_node12"><a xlink:href="drivers_2include_2periph_2gpio_8h.html" target="_top" xlink:title="Low&#45;level GPIO peripheral driver interface definitions. ">
<polygon fill="#ffffff" stroke="#000000" points="662,-56.5 662,-75.5 742,-75.5 742,-56.5 662,-56.5"/>
<text text-anchor="middle" x="702" y="-63.5" font-family="Helvetica,sans-Serif" font-size="10.00" fill="#000000">periph/gpio.h</text>
</a>
</g>
</g>
<!-- Node4&#45;&gt;Node11 -->
<g id="edge14" class="edge">
<title>Node4&#45;&gt;Node11</title>
<path fill="none" stroke="#191970" d="M535.5531,-112.3733C569.4104,-102.9404 621.146,-88.5265 657.9426,-78.2747"/>
<polygon fill="#191970" stroke="#191970" points="659.204,-81.5566 667.8978,-75.5011 657.3253,-74.8135 659.204,-81.5566"/>
</g>
<!-- Node12 -->
<g id="node13" class="node">
<title>Node12</title>
<polygon fill="#ffffff" stroke="#bfbfbf" points="760.5,-.5 760.5,-19.5 837.5,-19.5 837.5,-.5 760.5,-.5"/>
<text text-anchor="middle" x="799" y="-7.5" font-family="Helvetica,sans-Serif" font-size="10.00" fill="#000000">periph_cpu.h</text>
</g>
<!-- Node4&#45;&gt;Node12 -->
<g id="edge19" class="edge">
<title>Node4&#45;&gt;Node12</title>
<path fill="none" stroke="#191970" d="M545.6524,-117.7859C608.0583,-111.2295 717.4838,-97.1057 751,-76 768.8994,-64.7285 782.2466,-44.1565 790.2635,-28.9655"/>
<polygon fill="#191970" stroke="#191970" points="793.4463,-30.4253 794.7562,-19.9117 787.1758,-27.3137 793.4463,-30.4253"/>
</g>
<!-- Node14 -->
<g id="node15" class="node">
<title>Node14</title>
<polygon fill="#ffffff" stroke="#bfbfbf" points="564,-56.5 564,-75.5 644,-75.5 644,-56.5 564,-56.5"/>
<text text-anchor="middle" x="604" y="-63.5" font-family="Helvetica,sans-Serif" font-size="10.00" fill="#000000">gpio_ll_arch.h</text>
</g>
<!-- Node4&#45;&gt;Node14 -->
<g id="edge20" class="edge">
<title>Node4&#45;&gt;Node14</title>
<path fill="none" stroke="#191970" d="M518.9412,-112.2455C535.04,-103.4928 558.8879,-90.527 577.2391,-80.5496"/>
<polygon fill="#191970" stroke="#191970" points="579.1507,-83.4942 586.2644,-75.6427 575.8071,-77.3444 579.1507,-83.4942"/>
</g>
<!-- Node5&#45;&gt;Node1 -->
<g id="edge6" class="edge">
<title>Node5&#45;&gt;Node1</title>
<path fill="none" stroke="#191970" d="M327.5876,-56.2455C315.9943,-47.814 299.0252,-35.4729 285.5322,-25.6598"/>
<polygon fill="#191970" stroke="#191970" points="287.4047,-22.6938 277.2587,-19.6427 283.2874,-28.355 287.4047,-22.6938"/>
</g>
<!-- Node7&#45;&gt;Node1 -->
<g id="edge10" class="edge">
<title>Node7&#45;&gt;Node1</title>
<path fill="none" stroke="#191970" d="M431.6624,-56.4915C398.0923,-47.1939 345.5308,-32.6322 300,-20 299.9023,-19.9729 299.8045,-19.9458 299.7066,-19.9186"/>
<polygon fill="#191970" stroke="#191970" points="300.9174,-16.6224 290.3455,-17.3202 299.0451,-23.3674 300.9174,-16.6224"/>
</g>
<!-- Node8 -->
<g id="node9" class="node">
<title>Node8</title>
<g id="a_node9"><a xlink:href="inttypes_8h.html" target="_top" xlink:title="Adds include for missing inttype definitions. ">
<polygon fill="#ffffff" stroke="#000000" points="433.5,-.5 433.5,-19.5 496.5,-19.5 496.5,-.5 433.5,-.5"/>
<text text-anchor="middle" x="465" y="-7.5" font-family="Helvetica,sans-Serif" font-size="10.00" fill="#000000">inttypes.h</text>
</a>
</g>
</g>
<!-- Node7&#45;&gt;Node8 -->
<g id="edge11" class="edge">
<title>Node7&#45;&gt;Node8</title>
<path fill="none" stroke="#191970" d="M465.8258,-56.2455C465.6953,-48.9382 465.5124,-38.6944 465.3519,-29.7046"/>
<polygon fill="#191970" stroke="#191970" points="468.8503,-29.5786 465.1722,-19.6427 461.8514,-29.7036 468.8503,-29.5786"/>
</g>
<!-- Node9 -->
<g id="node10" class="node">
<title>Node9</title>
<polygon fill="#ffffff" stroke="#bfbfbf" points="515,-.5 515,-19.5 565,-19.5 565,-.5 515,-.5"/>
<text text-anchor="middle" x="540" y="-7.5" font-family="Helvetica,sans-Serif" font-size="10.00" fill="#000000">limits.h</text>
</g>
<!-- Node7&#45;&gt;Node9 -->
<g id="edge12" class="edge">
<title>Node7&#45;&gt;Node9</title>
<path fill="none" stroke="#191970" d="M478.8898,-56.2455C489.9254,-47.8943 506.0292,-35.7076 518.9353,-25.9408"/>
<polygon fill="#191970" stroke="#191970" points="521.3959,-28.4681 527.2579,-19.6427 517.1717,-22.8862 521.3959,-28.4681"/>
</g>
<!-- Node10 -->
<g id="node11" class="node">
<title>Node10</title>
<polygon fill="#ffffff" stroke="#bfbfbf" points="308.5,-.5 308.5,-19.5 415.5,-19.5 415.5,-.5 308.5,-.5"/>
<text text-anchor="middle" x="362" y="-7.5" font-family="Helvetica,sans-Serif" font-size="10.00" fill="#000000">architecture_arch.h</text>
</g>
<!-- Node7&#45;&gt;Node10 -->
<g id="edge13" class="edge">
<title>Node7&#45;&gt;Node10</title>
<path fill="none" stroke="#191970" d="M447.8846,-56.2455C431.555,-47.4527 407.329,-34.4079 388.7661,-24.4125"/>
<polygon fill="#191970" stroke="#191970" points="390.3719,-21.3021 379.9078,-19.6427 387.0532,-27.4654 390.3719,-21.3021"/>
</g>
<!-- Node11&#45;&gt;Node6 -->
<g id="edge16" class="edge">
<title>Node11&#45;&gt;Node6</title>
<path fill="none" stroke="#191970" d="M686.4974,-56.2455C672.842,-47.6534 652.7343,-35.0014 637.0011,-25.1018"/>
<polygon fill="#191970" stroke="#191970" points="638.6529,-22.006 628.325,-19.6427 634.9249,-27.9307 638.6529,-22.006"/>
</g>
<!-- Node11&#45;&gt;Node9 -->
<g id="edge15" class="edge">
<title>Node11&#45;&gt;Node9</title>
<path fill="none" stroke="#191970" d="M674.1512,-56.3733C646.5982,-46.8488 604.3546,-32.246 574.6482,-21.9772"/>
<polygon fill="#191970" stroke="#191970" points="575.6886,-18.6336 565.0939,-18.6744 573.4016,-25.2495 575.6886,-18.6336"/>
</g>
<!-- Node11&#45;&gt;Node12 -->
<g id="edge17" class="edge">
<title>Node11&#45;&gt;Node12</title>
<path fill="none" stroke="#191970" d="M718.8961,-56.2455C733.918,-47.5731 756.1043,-34.7645 773.321,-24.825"/>
<polygon fill="#191970" stroke="#191970" points="775.3871,-27.6737 782.2975,-19.6427 771.8872,-21.6114 775.3871,-27.6737"/>
</g>
<!-- Node13 -->
<g id="node14" class="node">
<title>Node13</title>
<polygon fill="#ffffff" stroke="#bfbfbf" points="661.5,-.5 661.5,-19.5 742.5,-19.5 742.5,-.5 661.5,-.5"/>
<text text-anchor="middle" x="702" y="-7.5" font-family="Helvetica,sans-Serif" font-size="10.00" fill="#000000">periph_conf.h</text>
</g>
<!-- Node11&#45;&gt;Node13 -->
<g id="edge18" class="edge">
<title>Node11&#45;&gt;Node13</title>
<path fill="none" stroke="#191970" d="M702,-56.2455C702,-48.9382 702,-38.6944 702,-29.7046"/>
<polygon fill="#191970" stroke="#191970" points="705.5001,-29.6426 702,-19.6427 698.5001,-29.6427 705.5001,-29.6426"/>
</g>
<!-- Node16 -->
<g id="node17" class="node">
<title>Node16</title>
<g id="a_node17"><a xlink:href="modules_8h.html" target="_top" xlink:title="Common macros and compiler attributes/pragmas configuration. ">
<polygon fill="#ffffff" stroke="#000000" points="37.5,-112.5 37.5,-131.5 102.5,-131.5 102.5,-112.5 37.5,-112.5"/>
<text text-anchor="middle" x="70" y="-119.5" font-family="Helvetica,sans-Serif" font-size="10.00" fill="#000000">modules.h</text>
</a>
</g>
</g>
<!-- Node15&#45;&gt;Node16 -->
<g id="edge22" class="edge">
<title>Node15&#45;&gt;Node16</title>
<path fill="none" stroke="#191970" d="M178.4803,-168.3733C157.2628,-159.3032 125.2724,-145.6279 101.5231,-135.4755"/>
<polygon fill="#191970" stroke="#191970" points="102.7967,-132.2136 92.2258,-131.5011 100.0452,-138.6502 102.7967,-132.2136"/>
</g>
<!-- Node17 -->
<g id="node18" class="node">
<title>Node17</title>
<g id="a_node18"><a xlink:href="riot__version_8h.html" target="_top" xlink:title="Common macros and compiler attributes/pragmas configuration. ">
<polygon fill="#ffffff" stroke="#000000" points="207.5,-112.5 207.5,-131.5 288.5,-131.5 288.5,-112.5 207.5,-112.5"/>
<text text-anchor="middle" x="248" y="-119.5" font-family="Helvetica,sans-Serif" font-size="10.00" fill="#000000">riot_version.h</text>
</a>
</g>
</g>
<!-- Node15&#45;&gt;Node17 -->
<g id="edge23" class="edge">
<title>Node15&#45;&gt;Node17</title>
<path fill="none" stroke="#191970" d="M209.1868,-168.2455C215.8589,-160.2958 225.4479,-148.8706 233.4253,-139.3656"/>
<polygon fill="#191970" stroke="#191970" points="236.1592,-141.5525 239.907,-131.6427 230.7974,-137.0524 236.1592,-141.5525"/>
</g>
<!-- Node18 -->
<g id="node19" class="node">
<title>Node18</title>
<g id="a_node19"><a xlink:href="compiler__hints_8h.html" target="_top" xlink:title="Common macros and compiler attributes/pragmas configuration. ">
<polygon fill="#ffffff" stroke="#000000" points="306.5,-112.5 306.5,-131.5 399.5,-131.5 399.5,-112.5 306.5,-112.5"/>
<text text-anchor="middle" x="353" y="-119.5" font-family="Helvetica,sans-Serif" font-size="10.00" fill="#000000">compiler_hints.h</text>
</a>
</g>
</g>
<!-- Node15&#45;&gt;Node18 -->
<g id="edge25" class="edge">
<title>Node15&#45;&gt;Node18</title>
<path fill="none" stroke="#191970" d="M227.1297,-168.3733C252.0768,-159.1822 289.8592,-145.2624 317.5206,-135.0713"/>
<polygon fill="#191970" stroke="#191970" points="319.0378,-138.2424 327.2112,-131.5011 316.6178,-131.674 319.0378,-138.2424"/>
</g>
<!-- Node19 -->
<g id="node20" class="node">
<title>Node19</title>
<g id="a_node20"><a xlink:href="container_8h.html" target="_top" xlink:title="Common macros and compiler attributes/pragmas configuration. ">
<polygon fill="#ffffff" stroke="#000000" points="120.5,-112.5 120.5,-131.5 189.5,-131.5 189.5,-112.5 120.5,-112.5"/>
<text text-anchor="middle" x="155" y="-119.5" font-family="Helvetica,sans-Serif" font-size="10.00" fill="#000000">container.h</text>
</a>
</g>
</g>
<!-- Node15&#45;&gt;Node19 -->
<g id="edge28" class="edge">
<title>Node15&#45;&gt;Node19</title>
<path fill="none" stroke="#191970" d="M192.9874,-168.2455C186.5232,-160.3761 177.2615,-149.101 169.5017,-139.6542"/>
<polygon fill="#191970" stroke="#191970" points="171.9727,-137.1484 162.9208,-131.6427 166.5636,-141.5916 171.9727,-137.1484"/>
</g>
<!-- Node17&#45;&gt;Node1 -->
<g id="edge24" class="edge">
<title>Node17&#45;&gt;Node1</title>
<path fill="none" stroke="#191970" d="M249.3642,-112.4509C251.9737,-94.184 257.7207,-53.9553 261.1861,-29.6976"/>
<polygon fill="#191970" stroke="#191970" points="264.6898,-29.9194 262.6393,-19.5249 257.7602,-28.9294 264.6898,-29.9194"/>
</g>
<!-- Node18&#45;&gt;Node1 -->
<g id="edge27" class="edge">
<title>Node18&#45;&gt;Node1</title>
<path fill="none" stroke="#191970" d="M341.5433,-112.4872C331.2906,-103.6489 316.1944,-89.8071 305,-76 292.9686,-61.1604 281.701,-42.5404 274.0344,-28.8645"/>
<polygon fill="#191970" stroke="#191970" points="277.0013,-26.9954 269.1289,-19.9049 270.8614,-30.3571 277.0013,-26.9954"/>
</g>
<!-- Node18&#45;&gt;Node5 -->
<g id="edge26" class="edge">
<title>Node18&#45;&gt;Node5</title>
<path fill="none" stroke="#191970" d="M350.9098,-112.2455C349.3439,-104.9382 347.1488,-94.6944 345.2224,-85.7046"/>
<polygon fill="#191970" stroke="#191970" points="348.584,-84.6873 343.0663,-75.6427 341.7393,-86.1541 348.584,-84.6873"/>
</g>
<!-- Node19&#45;&gt;Node1 -->
<g id="edge30" class="edge">
<title>Node19&#45;&gt;Node1</title>
<path fill="none" stroke="#191970" d="M164.2933,-112.4509C182.7949,-93.4401 224.4463,-50.6423 247.6344,-26.816"/>
<polygon fill="#191970" stroke="#191970" points="250.264,-29.1324 254.7302,-19.5249 245.2475,-24.2502 250.264,-29.1324"/>
</g>
<!-- Node20 -->
<g id="node21" class="node">
<title>Node20</title>
<polygon fill="#ffffff" stroke="#bfbfbf" points="126,-56.5 126,-75.5 182,-75.5 182,-56.5 126,-56.5"/>
<text text-anchor="middle" x="154" y="-63.5" font-family="Helvetica,sans-Serif" font-size="10.00" fill="#000000">stddef.h</text>
</g>
<!-- Node19&#45;&gt;Node20 -->
<g id="edge29" class="edge">
<title>Node19&#45;&gt;Node20</title>
<path fill="none" stroke="#191970" d="M154.8258,-112.2455C154.6953,-104.9382 154.5124,-94.6944 154.3519,-85.7046"/>
<polygon fill="#191970" stroke="#191970" points="157.8503,-85.5786 154.1722,-75.6427 150.8514,-85.7036 157.8503,-85.5786"/>
</g>
</g>
</svg>
