<?xml version="1.0" encoding="UTF-8" standalone="no"?>
<!DOCTYPE svg PUBLIC "-//W3C//DTD SVG 1.1//EN"
 "http://www.w3.org/Graphics/SVG/1.1/DTD/svg11.dtd">
<!-- Generated by graphviz version 2.40.1 (0)
 -->
<!-- Title: boards/stm32f746g&#45;disco/include/gpio_params.h Pages: 1 -->
<svg width="1545pt" height="375pt"
 viewBox="0.00 0.00 1545.00 375.00" xmlns="http://www.w3.org/2000/svg" xmlns:xlink="http://www.w3.org/1999/xlink">
<g id="graph0" class="graph" transform="scale(1 1) rotate(0) translate(4 371)">
<title>boards/stm32f746g&#45;disco/include/gpio_params.h</title>
<polygon fill="#ffffff" stroke="transparent" points="-4,4 -4,-371 1541,-371 1541,4 -4,4"/>
<!-- Node0 -->
<g id="node1" class="node">
<title>Node0</title>
<polygon fill="#bfbfbf" stroke="#000000" points="1098.5,-336.5 1098.5,-366.5 1234.5,-366.5 1234.5,-336.5 1098.5,-336.5"/>
<text text-anchor="start" x="1106.5" y="-354.5" font-family="Helvetica,sans-Serif" font-size="10.00" fill="#000000">boards/stm32f746g&#45;disco</text>
<text text-anchor="middle" x="1166.5" y="-343.5" font-family="Helvetica,sans-Serif" font-size="10.00" fill="#000000">/include/gpio_params.h</text>
</g>
<!-- Node1 -->
<g id="node2" class="node">
<title>Node1</title>
<g id="a_node2"><a xlink:href="stm32f746g-disco_2include_2board_8h.html" target="_top" xlink:title="Board specific definitions for the STM32F746G&#45;DISCO. ">
<polygon fill="#ffffff" stroke="#000000" points="1097,-280.5 1097,-299.5 1150,-299.5 1150,-280.5 1097,-280.5"/>
<text text-anchor="middle" x="1123.5" y="-287.5" font-family="Helvetica,sans-Serif" font-size="10.00" fill="#000000">board.h</text>
</a>
</g>
</g>
<!-- Node0&#45;&gt;Node1 -->
<g id="edge1" class="edge">
<title>Node0&#45;&gt;Node1</title>
<path fill="none" stroke="#191970" d="M1155.8708,-336.2977C1149.9019,-327.7609 1142.4162,-317.0545 1136.1471,-308.0883"/>
<polygon fill="#191970" stroke="#191970" points="1138.9835,-306.0368 1130.3848,-299.8469 1133.2466,-310.048 1138.9835,-306.0368"/>
</g>
<!-- Node31 -->
<g id="node32" class="node">
<title>Node31</title>
<g id="a_node32"><a xlink:href="periph_8h.html" target="_top" xlink:title="Parameter definitions for mapping peripherals directly to SAUL. ">
<polygon fill="#ffffff" stroke="#000000" points="1310.5,-168.5 1310.5,-187.5 1388.5,-187.5 1388.5,-168.5 1310.5,-168.5"/>
<text text-anchor="middle" x="1349.5" y="-175.5" font-family="Helvetica,sans-Serif" font-size="10.00" fill="#000000">saul/periph.h</text>
</a>
</g>
</g>
<!-- Node0&#45;&gt;Node31 -->
<g id="edge49" class="edge">
<title>Node0&#45;&gt;Node31</title>
<path fill="none" stroke="#191970" d="M1182.4199,-336.4065C1216.3929,-304.1972 1295.8006,-228.9117 1331.525,-195.0418"/>
<polygon fill="#191970" stroke="#191970" points="1334.3799,-197.1582 1339.2288,-187.738 1329.5638,-192.0783 1334.3799,-197.1582"/>
</g>
<!-- Node2 -->
<g id="node3" class="node">
<title>Node2</title>
<polygon fill="#ffffff" stroke="#bfbfbf" points="1102.5,-224.5 1102.5,-243.5 1144.5,-243.5 1144.5,-224.5 1102.5,-224.5"/>
<text text-anchor="middle" x="1123.5" y="-231.5" font-family="Helvetica,sans-Serif" font-size="10.00" fill="#000000">cpu.h</text>
</g>
<!-- Node1&#45;&gt;Node2 -->
<g id="edge2" class="edge">
<title>Node1&#45;&gt;Node2</title>
<path fill="none" stroke="#191970" d="M1123.5,-280.2455C1123.5,-272.9382 1123.5,-262.6944 1123.5,-253.7046"/>
<polygon fill="#191970" stroke="#191970" points="1127.0001,-253.6426 1123.5,-243.6427 1120.0001,-253.6427 1127.0001,-253.6426"/>
</g>
<!-- Node3 -->
<g id="node4" class="node">
<title>Node3</title>
<g id="a_node4"><a xlink:href="boards_2stm32f746g-disco_2include_2periph__conf_8h.html" target="_top" xlink:title="Configuration of CPU peripherals for STM32F746G&#45;DISCO board. ">
<polygon fill="#ffffff" stroke="#000000" points="878,-168.5 878,-187.5 959,-187.5 959,-168.5 878,-168.5"/>
<text text-anchor="middle" x="918.5" y="-175.5" font-family="Helvetica,sans-Serif" font-size="10.00" fill="#000000">periph_conf.h</text>
</a>
</g>
</g>
<!-- Node1&#45;&gt;Node3 -->
<g id="edge3" class="edge">
<title>Node1&#45;&gt;Node3</title>
<path fill="none" stroke="#191970" d="M1106.0218,-280.4509C1070.0148,-260.7788 987.3879,-215.6363 944.858,-192.4005"/>
<polygon fill="#191970" stroke="#191970" points="946.3877,-189.248 935.9339,-187.5249 943.0315,-195.3909 946.3877,-189.248"/>
</g>
<!-- Node5 -->
<g id="node6" class="node">
<title>Node5</title>
<polygon fill="#ffffff" stroke="#bfbfbf" points="1150,-56.5 1150,-75.5 1227,-75.5 1227,-56.5 1150,-56.5"/>
<text text-anchor="middle" x="1188.5" y="-63.5" font-family="Helvetica,sans-Serif" font-size="10.00" fill="#000000">periph_cpu.h</text>
</g>
<!-- Node1&#45;&gt;Node5 -->
<g id="edge20" class="edge">
<title>Node1&#45;&gt;Node5</title>
<path fill="none" stroke="#191970" d="M1131.5471,-280.4948C1150.713,-257.1348 1198.6418,-194.2719 1214.5,-132 1218.7554,-115.2899 1210.5783,-97.1153 1202.2954,-84.0769"/>
<polygon fill="#191970" stroke="#191970" points="1204.9888,-81.8183 1196.4216,-75.585 1199.2318,-85.8003 1204.9888,-81.8183"/>
</g>
<!-- Node15 -->
<g id="node16" class="node">
<title>Node15</title>
<g id="a_node16"><a xlink:href="stm32__leds_8h.html" target="_top" xlink:title="Common LED macros. ">
<polygon fill="#ffffff" stroke="#000000" points="528.5,-224.5 528.5,-243.5 606.5,-243.5 606.5,-224.5 528.5,-224.5"/>
<text text-anchor="middle" x="567.5" y="-231.5" font-family="Helvetica,sans-Serif" font-size="10.00" fill="#000000">stm32_leds.h</text>
</a>
</g>
</g>
<!-- Node1&#45;&gt;Node15 -->
<g id="edge21" class="edge">
<title>Node1&#45;&gt;Node15</title>
<path fill="none" stroke="#191970" d="M1096.683,-287.299C1009.176,-278.4854 731.0511,-250.4728 617.0085,-238.9865"/>
<polygon fill="#191970" stroke="#191970" points="617.1188,-235.48 606.8184,-237.9601 616.4173,-242.4447 617.1188,-235.48"/>
</g>
<!-- Node4 -->
<g id="node5" class="node">
<title>Node4</title>
<polygon fill="#ffffff" stroke="#bfbfbf" points="598.5,-.5 598.5,-19.5 650.5,-19.5 650.5,-.5 598.5,-.5"/>
<text text-anchor="middle" x="624.5" y="-7.5" font-family="Helvetica,sans-Serif" font-size="10.00" fill="#000000">stdint.h</text>
</g>
<!-- Node3&#45;&gt;Node4 -->
<g id="edge4" class="edge">
<title>Node3&#45;&gt;Node4</title>
<path fill="none" stroke="#191970" d="M877.7559,-175.6788C814.0229,-171.241 694.7856,-159.4358 663.5,-132 633.8038,-105.958 626.5413,-57.3205 624.8779,-29.9805"/>
<polygon fill="#191970" stroke="#191970" points="628.3631,-29.5444 624.4587,-19.6953 621.3689,-29.8295 628.3631,-29.5444"/>
</g>
<!-- Node3&#45;&gt;Node5 -->
<g id="edge5" class="edge">
<title>Node3&#45;&gt;Node5</title>
<path fill="none" stroke="#191970" d="M912.8093,-168.2075C905.427,-154.0708 894.9979,-127.9013 908.5,-112 923.2699,-94.6056 1063.3359,-78.2935 1139.5897,-70.609"/>
<polygon fill="#191970" stroke="#191970" points="1140.3019,-74.0555 1149.9063,-69.5827 1139.6089,-67.0899 1140.3019,-74.0555"/>
</g>
<!-- Node6 -->
<g id="node7" class="node">
<title>Node6</title>
<polygon fill="#ffffff" stroke="#bfbfbf" points="917.5,-112.5 917.5,-131.5 979.5,-131.5 979.5,-112.5 917.5,-112.5"/>
<text text-anchor="middle" x="948.5" y="-119.5" font-family="Helvetica,sans-Serif" font-size="10.00" fill="#000000">clk_conf.h</text>
</g>
<!-- Node3&#45;&gt;Node6 -->
<g id="edge6" class="edge">
<title>Node3&#45;&gt;Node6</title>
<path fill="none" stroke="#191970" d="M923.7256,-168.2455C927.8123,-160.617 933.6135,-149.7881 938.575,-140.5267"/>
<polygon fill="#191970" stroke="#191970" points="941.6972,-142.1103 943.3343,-131.6427 935.5268,-138.8047 941.6972,-142.1103"/>
</g>
<!-- Node7 -->
<g id="node8" class="node">
<title>Node7</title>
<polygon fill="#ffffff" stroke="#bfbfbf" points="997.5,-112.5 997.5,-131.5 1091.5,-131.5 1091.5,-112.5 997.5,-112.5"/>
<text text-anchor="middle" x="1044.5" y="-119.5" font-family="Helvetica,sans-Serif" font-size="10.00" fill="#000000">cfg_rtt_default.h</text>
</g>
<!-- Node3&#45;&gt;Node7 -->
<g id="edge7" class="edge">
<title>Node3&#45;&gt;Node7</title>
<path fill="none" stroke="#191970" d="M940.1602,-168.3733C960.4772,-159.3435 991.064,-145.7494 1013.875,-135.6111"/>
<polygon fill="#191970" stroke="#191970" points="1015.4059,-138.7609 1023.1225,-131.5011 1012.5628,-132.3642 1015.4059,-138.7609"/>
</g>
<!-- Node8 -->
<g id="node9" class="node">
<title>Node8</title>
<g id="a_node9"><a xlink:href="cfg__timer__tim2_8h.html" target="_top" xlink:title="Common configuration for STM32 Timer peripheral based on TIM2. ">
<polygon fill="#ffffff" stroke="#000000" points="1110,-112.5 1110,-131.5 1205,-131.5 1205,-112.5 1110,-112.5"/>
<text text-anchor="middle" x="1157.5" y="-119.5" font-family="Helvetica,sans-Serif" font-size="10.00" fill="#000000">cfg_timer_tim2.h</text>
</a>
</g>
</g>
<!-- Node3&#45;&gt;Node8 -->
<g id="edge8" class="edge">
<title>Node3&#45;&gt;Node8</title>
<path fill="none" stroke="#191970" d="M959.0431,-168.5004C999.8162,-158.9468 1062.7865,-144.1923 1106.8298,-133.8725"/>
<polygon fill="#191970" stroke="#191970" points="1107.8202,-137.2353 1116.758,-131.5462 1106.2232,-130.4199 1107.8202,-137.2353"/>
</g>
<!-- Node9 -->
<g id="node10" class="node">
<title>Node9</title>
<g id="a_node10"><a xlink:href="cfg__usb__otg__fs_8h.html" target="_top" xlink:title="Common configuration for STM32 OTG FS peripheral. ">
<polygon fill="#ffffff" stroke="#000000" points="729.5,-112.5 729.5,-131.5 823.5,-131.5 823.5,-112.5 729.5,-112.5"/>
<text text-anchor="middle" x="776.5" y="-119.5" font-family="Helvetica,sans-Serif" font-size="10.00" fill="#000000">cfg_usb_otg_fs.h</text>
</a>
</g>
</g>
<!-- Node3&#45;&gt;Node9 -->
<g id="edge10" class="edge">
<title>Node3&#45;&gt;Node9</title>
<path fill="none" stroke="#191970" d="M894.0893,-168.3733C870.8858,-159.2226 835.7962,-145.3844 809.9858,-135.2057"/>
<polygon fill="#191970" stroke="#191970" points="811.1789,-131.9139 800.5921,-131.5011 808.6108,-138.4258 811.1789,-131.9139"/>
</g>
<!-- Node11 -->
<g id="node12" class="node">
<title>Node11</title>
<g id="a_node12"><a xlink:href="mii_8h.html" target="_top" xlink:title="Interface definition for MII/RMII h. ">
<polygon fill="#ffffff" stroke="#000000" points="672,-112.5 672,-131.5 711,-131.5 711,-112.5 672,-112.5"/>
<text text-anchor="middle" x="691.5" y="-119.5" font-family="Helvetica,sans-Serif" font-size="10.00" fill="#000000">mii.h</text>
</a>
</g>
</g>
<!-- Node3&#45;&gt;Node11 -->
<g id="edge14" class="edge">
<title>Node3&#45;&gt;Node11</title>
<path fill="none" stroke="#191970" d="M877.9873,-169.8749C839.7879,-161.9281 780.7955,-148.9219 720.7162,-131.8333"/>
<polygon fill="#191970" stroke="#191970" points="721.6455,-128.4587 711.0675,-129.0557 719.7091,-135.1855 721.6455,-128.4587"/>
</g>
<!-- Node8&#45;&gt;Node5 -->
<g id="edge9" class="edge">
<title>Node8&#45;&gt;Node5</title>
<path fill="none" stroke="#191970" d="M1162.8998,-112.2455C1167.1227,-104.617 1173.1173,-93.7881 1178.2441,-84.5267"/>
<polygon fill="#191970" stroke="#191970" points="1181.381,-86.0867 1183.1621,-75.6427 1175.2568,-82.6965 1181.381,-86.0867"/>
</g>
<!-- Node9&#45;&gt;Node5 -->
<g id="edge11" class="edge">
<title>Node9&#45;&gt;Node5</title>
<path fill="none" stroke="#191970" d="M823.7651,-114.0976C828.4031,-113.3684 833.0409,-112.6575 837.5,-112 945.2127,-96.1172 1071.9363,-80.188 1139.7772,-71.8826"/>
<polygon fill="#191970" stroke="#191970" points="1140.2469,-75.3513 1149.7489,-70.6649 1139.3983,-68.403 1140.2469,-75.3513"/>
</g>
<!-- Node10 -->
<g id="node11" class="node">
<title>Node10</title>
<g id="a_node11"><a xlink:href="usbdev__synopsys__dwc2_8h.html" target="_top" xlink:title="Low level USB FS/HS driver definitions for MCUs with Synopsys DWC2 IP core. ">
<polygon fill="#ffffff" stroke="#000000" points="787.5,-56.5 787.5,-75.5 921.5,-75.5 921.5,-56.5 787.5,-56.5"/>
<text text-anchor="middle" x="854.5" y="-63.5" font-family="Helvetica,sans-Serif" font-size="10.00" fill="#000000">usbdev_synopsys_dwc2.h</text>
</a>
</g>
</g>
<!-- Node9&#45;&gt;Node10 -->
<g id="edge12" class="edge">
<title>Node9&#45;&gt;Node10</title>
<path fill="none" stroke="#191970" d="M790.0866,-112.2455C801.8305,-103.814 819.0199,-91.4729 832.6882,-81.6598"/>
<polygon fill="#191970" stroke="#191970" points="834.9871,-84.3179 841.0691,-75.6427 830.9046,-78.6316 834.9871,-84.3179"/>
</g>
<!-- Node10&#45;&gt;Node4 -->
<g id="edge13" class="edge">
<title>Node10&#45;&gt;Node4</title>
<path fill="none" stroke="#191970" d="M815.2229,-56.4369C771.8412,-45.8744 702.5796,-29.0107 660.5395,-18.7748"/>
<polygon fill="#191970" stroke="#191970" points="661.2697,-15.3504 650.7255,-16.3853 659.6137,-22.1517 661.2697,-15.3504"/>
</g>
<!-- Node11&#45;&gt;Node4 -->
<g id="edge16" class="edge">
<title>Node11&#45;&gt;Node4</title>
<path fill="none" stroke="#191970" d="M687.0824,-112.3618C680.969,-99.2901 669.338,-75.3516 657.5,-56 651.6242,-46.3948 644.3986,-36.1742 638.208,-27.8127"/>
<polygon fill="#191970" stroke="#191970" points="640.8228,-25.4667 632.0097,-19.5862 635.2321,-29.6791 640.8228,-25.4667"/>
</g>
<!-- Node12 -->
<g id="node13" class="node">
<title>Node12</title>
<polygon fill="#ffffff" stroke="#bfbfbf" points="709.5,-56.5 709.5,-75.5 769.5,-75.5 769.5,-56.5 709.5,-56.5"/>
<text text-anchor="middle" x="739.5" y="-63.5" font-family="Helvetica,sans-Serif" font-size="10.00" fill="#000000">stdbool.h</text>
</g>
<!-- Node11&#45;&gt;Node12 -->
<g id="edge15" class="edge">
<title>Node11&#45;&gt;Node12</title>
<path fill="none" stroke="#191970" d="M699.861,-112.2455C706.675,-104.2958 716.4681,-92.8706 724.6152,-83.3656"/>
<polygon fill="#191970" stroke="#191970" points="727.3843,-85.513 731.2349,-75.6427 722.0695,-80.9575 727.3843,-85.513"/>
</g>
<!-- Node13 -->
<g id="node14" class="node">
<title>Node13</title>
<g id="a_node14"><a xlink:href="bitarithm_8h.html" target="_top" xlink:title="Helper functions for bit arithmetic. ">
<polygon fill="#ffffff" stroke="#000000" points="939.5,-56.5 939.5,-75.5 1007.5,-75.5 1007.5,-56.5 939.5,-56.5"/>
<text text-anchor="middle" x="973.5" y="-63.5" font-family="Helvetica,sans-Serif" font-size="10.00" fill="#000000">bitarithm.h</text>
</a>
</g>
</g>
<!-- Node11&#45;&gt;Node13 -->
<g id="edge17" class="edge">
<title>Node11&#45;&gt;Node13</title>
<path fill="none" stroke="#191970" d="M711.0244,-114.7857C714.1673,-113.7642 717.4047,-112.7934 720.5,-112 809.1837,-89.2685 835.9136,-94.351 929.3987,-76.1145"/>
<polygon fill="#191970" stroke="#191970" points="930.1467,-79.5343 939.2719,-74.151 928.7813,-72.6688 930.1467,-79.5343"/>
</g>
<!-- Node13&#45;&gt;Node4 -->
<g id="edge18" class="edge">
<title>Node13&#45;&gt;Node4</title>
<path fill="none" stroke="#191970" d="M939.2845,-57.7851C936.3196,-57.1516 933.3607,-56.5468 930.5,-56 833.6339,-37.4859 718.3413,-21.8704 660.8588,-14.5166"/>
<polygon fill="#191970" stroke="#191970" points="661.1772,-11.029 650.8158,-13.2408 660.295,-17.9732 661.1772,-11.029"/>
</g>
<!-- Node14 -->
<g id="node15" class="node">
<title>Node14</title>
<polygon fill="#ffffff" stroke="#bfbfbf" points="940,-.5 940,-19.5 1007,-19.5 1007,-.5 940,-.5"/>
<text text-anchor="middle" x="973.5" y="-7.5" font-family="Helvetica,sans-Serif" font-size="10.00" fill="#000000">cpu_conf.h</text>
</g>
<!-- Node13&#45;&gt;Node14 -->
<g id="edge19" class="edge">
<title>Node13&#45;&gt;Node14</title>
<path fill="none" stroke="#191970" d="M973.5,-56.2455C973.5,-48.9382 973.5,-38.6944 973.5,-29.7046"/>
<polygon fill="#191970" stroke="#191970" points="977.0001,-29.6426 973.5,-19.6427 970.0001,-29.6427 977.0001,-29.6426"/>
</g>
<!-- Node16 -->
<g id="node17" class="node">
<title>Node16</title>
<g id="a_node17"><a xlink:href="gpio__ll_8h.html" target="_top" xlink:title="Peripheral GPIO Low&#45;Level API. ">
<polygon fill="#ffffff" stroke="#000000" points="523,-168.5 523,-187.5 612,-187.5 612,-168.5 523,-168.5"/>
<text text-anchor="middle" x="567.5" y="-175.5" font-family="Helvetica,sans-Serif" font-size="10.00" fill="#000000">periph/gpio_ll.h</text>
</a>
</g>
</g>
<!-- Node15&#45;&gt;Node16 -->
<g id="edge22" class="edge">
<title>Node15&#45;&gt;Node16</title>
<path fill="none" stroke="#191970" d="M567.5,-224.2455C567.5,-216.9382 567.5,-206.6944 567.5,-197.7046"/>
<polygon fill="#191970" stroke="#191970" points="571.0001,-197.6426 567.5,-187.6427 564.0001,-197.6427 571.0001,-197.6426"/>
</g>
<!-- Node25 -->
<g id="node26" class="node">
<title>Node25</title>
<g id="a_node26"><a xlink:href="kernel__defines_8h.html" target="_top" xlink:title="Common macros and compiler attributes/pragmas configuration. ">
<polygon fill="#ffffff" stroke="#000000" points="133,-168.5 133,-187.5 228,-187.5 228,-168.5 133,-168.5"/>
<text text-anchor="middle" x="180.5" y="-175.5" font-family="Helvetica,sans-Serif" font-size="10.00" fill="#000000">kernel_defines.h</text>
</a>
</g>
</g>
<!-- Node15&#45;&gt;Node25 -->
<g id="edge39" class="edge">
<title>Node15&#45;&gt;Node25</title>
<path fill="none" stroke="#191970" d="M528.2627,-228.3222C459.8502,-218.4228 318.4341,-197.9595 238.617,-186.4097"/>
<polygon fill="#191970" stroke="#191970" points="238.6491,-182.878 228.2509,-184.9097 237.6465,-189.8058 238.6491,-182.878"/>
</g>
<!-- Node16&#45;&gt;Node4 -->
<g id="edge26" class="edge">
<title>Node16&#45;&gt;Node4</title>
<path fill="none" stroke="#191970" d="M570.7279,-168.4862C579.7773,-141.8144 605.5299,-65.9117 617.8178,-29.695"/>
<polygon fill="#191970" stroke="#191970" points="621.2669,-30.4222 621.1655,-19.8279 614.6381,-28.1731 621.2669,-30.4222"/>
</g>
<!-- Node16&#45;&gt;Node5 -->
<g id="edge37" class="edge">
<title>Node16&#45;&gt;Node5</title>
<path fill="none" stroke="#191970" d="M612.3962,-171.9775C665.3885,-164.462 755.985,-150.3345 832.5,-132 861.8934,-124.9568 868.0543,-118.8212 897.5,-112 981.6413,-92.5083 1081.3925,-78.7164 1139.5515,-71.5857"/>
<polygon fill="#191970" stroke="#191970" points="1140.0582,-75.05 1149.5651,-70.3735 1139.2169,-68.1007 1140.0582,-75.05"/>
</g>
<!-- Node16&#45;&gt;Node12 -->
<g id="edge25" class="edge">
<title>Node16&#45;&gt;Node12</title>
<path fill="none" stroke="#191970" d="M522.626,-169.6461C480.0036,-159.766 425.823,-140.9155 450.5,-112 466.4661,-93.2916 623.6332,-76.5663 699.2532,-69.5283"/>
<polygon fill="#191970" stroke="#191970" points="699.7211,-73.0001 709.3591,-68.6003 699.081,-66.0295 699.7211,-73.0001"/>
</g>
<!-- Node17 -->
<g id="node18" class="node">
<title>Node17</title>
<g id="a_node18"><a xlink:href="assert_8h.html" target="_top" xlink:title="POSIX.1&#45;2008 compliant version of the assert macro. ">
<polygon fill="#ffffff" stroke="#000000" points="278.5,-56.5 278.5,-75.5 332.5,-75.5 332.5,-56.5 278.5,-56.5"/>
<text text-anchor="middle" x="305.5" y="-63.5" font-family="Helvetica,sans-Serif" font-size="10.00" fill="#000000">assert.h</text>
</a>
</g>
</g>
<!-- Node16&#45;&gt;Node17 -->
<g id="edge23" class="edge">
<title>Node16&#45;&gt;Node17</title>
<path fill="none" stroke="#191970" d="M567.7023,-168.2787C567.4374,-153.7414 564.6457,-126.5001 548.5,-112 479.35,-49.8977 433.2335,-96.1457 342.5,-76 342.3985,-75.9775 342.2969,-75.9548 342.1951,-75.9321"/>
<polygon fill="#191970" stroke="#191970" points="343.0487,-72.5377 332.5077,-73.6037 341.4128,-79.3438 343.0487,-72.5377"/>
</g>
<!-- Node18 -->
<g id="node19" class="node">
<title>Node18</title>
<g id="a_node19"><a xlink:href="architecture_8h.html" target="_top" xlink:title="Platform&#45;independent access to architecture details. ">
<polygon fill="#ffffff" stroke="#000000" points="320,-112.5 320,-131.5 403,-131.5 403,-112.5 320,-112.5"/>
<text text-anchor="middle" x="361.5" y="-119.5" font-family="Helvetica,sans-Serif" font-size="10.00" fill="#000000">architecture.h</text>
</a>
</g>
</g>
<!-- Node16&#45;&gt;Node18 -->
<g id="edge27" class="edge">
<title>Node16&#45;&gt;Node18</title>
<path fill="none" stroke="#191970" d="M532.0873,-168.3733C497.2395,-158.9001 443.9118,-144.4032 406.1707,-134.1435"/>
<polygon fill="#191970" stroke="#191970" points="407.0185,-130.747 396.4506,-131.5011 405.1822,-137.5019 407.0185,-130.747"/>
</g>
<!-- Node22 -->
<g id="node23" class="node">
<title>Node22</title>
<g id="a_node23"><a xlink:href="drivers_2include_2periph_2gpio_8h.html" target="_top" xlink:title="Low&#45;level GPIO peripheral driver interface definitions. ">
<polygon fill="#ffffff" stroke="#000000" points="1261.5,-112.5 1261.5,-131.5 1341.5,-131.5 1341.5,-112.5 1261.5,-112.5"/>
<text text-anchor="middle" x="1301.5" y="-119.5" font-family="Helvetica,sans-Serif" font-size="10.00" fill="#000000">periph/gpio.h</text>
</a>
</g>
</g>
<!-- Node16&#45;&gt;Node22 -->
<g id="edge32" class="edge">
<title>Node16&#45;&gt;Node22</title>
<path fill="none" stroke="#191970" d="M612.2657,-175.4894C717.4582,-169.443 988.5654,-153.0064 1214.5,-132 1226.3256,-130.9005 1239.0351,-129.5409 1250.9878,-128.1823"/>
<polygon fill="#191970" stroke="#191970" points="1251.7239,-131.6206 1261.2557,-126.9952 1250.9199,-124.6669 1251.7239,-131.6206"/>
</g>
<!-- Node24 -->
<g id="node25" class="node">
<title>Node24</title>
<polygon fill="#ffffff" stroke="#bfbfbf" points="459.5,-112.5 459.5,-131.5 539.5,-131.5 539.5,-112.5 459.5,-112.5"/>
<text text-anchor="middle" x="499.5" y="-119.5" font-family="Helvetica,sans-Serif" font-size="10.00" fill="#000000">gpio_ll_arch.h</text>
</g>
<!-- Node16&#45;&gt;Node24 -->
<g id="edge38" class="edge">
<title>Node16&#45;&gt;Node24</title>
<path fill="none" stroke="#191970" d="M555.6553,-168.2455C545.612,-159.9746 531.0005,-147.9416 519.1996,-138.2232"/>
<polygon fill="#191970" stroke="#191970" points="521.1533,-135.298 511.209,-131.6427 516.7033,-140.7015 521.1533,-135.298"/>
</g>
<!-- Node17&#45;&gt;Node4 -->
<g id="edge24" class="edge">
<title>Node17&#45;&gt;Node4</title>
<path fill="none" stroke="#191970" d="M332.9026,-58.259C336.1261,-57.4479 339.3781,-56.6747 342.5,-56 430.0024,-37.0905 534.2777,-21.9814 588.1921,-14.7118"/>
<polygon fill="#191970" stroke="#191970" points="588.8352,-18.1571 598.2836,-13.3636 587.9082,-11.2188 588.8352,-18.1571"/>
</g>
<!-- Node18&#45;&gt;Node4 -->
<g id="edge28" class="edge">
<title>Node18&#45;&gt;Node4</title>
<path fill="none" stroke="#191970" d="M403.2353,-117.4657C442.5026,-111.9062 502.0452,-100.0755 548.5,-76 572.3259,-63.6521 594.9144,-42.3696 609.1768,-27.3146"/>
<polygon fill="#191970" stroke="#191970" points="612.0004,-29.4151 616.1988,-19.6876 606.8506,-24.6738 612.0004,-29.4151"/>
</g>
<!-- Node19 -->
<g id="node20" class="node">
<title>Node19</title>
<g id="a_node20"><a xlink:href="inttypes_8h.html" target="_top" xlink:title="Adds include for missing inttype definitions. ">
<polygon fill="#ffffff" stroke="#000000" points="476,-56.5 476,-75.5 539,-75.5 539,-56.5 476,-56.5"/>
<text text-anchor="middle" x="507.5" y="-63.5" font-family="Helvetica,sans-Serif" font-size="10.00" fill="#000000">inttypes.h</text>
</a>
</g>
</g>
<!-- Node18&#45;&gt;Node19 -->
<g id="edge29" class="edge">
<title>Node18&#45;&gt;Node19</title>
<path fill="none" stroke="#191970" d="M386.5983,-112.3733C410.4555,-103.2226 446.5335,-89.3844 473.071,-79.2057"/>
<polygon fill="#191970" stroke="#191970" points="474.6459,-82.3503 482.7292,-75.5011 472.139,-75.8145 474.6459,-82.3503"/>
</g>
<!-- Node20 -->
<g id="node21" class="node">
<title>Node20</title>
<polygon fill="#ffffff" stroke="#bfbfbf" points="1276.5,-56.5 1276.5,-75.5 1326.5,-75.5 1326.5,-56.5 1276.5,-56.5"/>
<text text-anchor="middle" x="1301.5" y="-63.5" font-family="Helvetica,sans-Serif" font-size="10.00" fill="#000000">limits.h</text>
</g>
<!-- Node18&#45;&gt;Node20 -->
<g id="edge30" class="edge">
<title>Node18&#45;&gt;Node20</title>
<path fill="none" stroke="#191970" d="M403.1011,-116.7496C418.0286,-115.0181 434.9997,-113.2244 450.5,-112 799.1136,-84.4618 888.52,-110.6366 1236.5,-76 1246.1784,-75.0366 1256.6132,-73.6071 1266.2292,-72.1283"/>
<polygon fill="#191970" stroke="#191970" points="1266.9453,-75.5584 1276.2676,-70.5241 1265.8406,-68.6461 1266.9453,-75.5584"/>
</g>
<!-- Node21 -->
<g id="node22" class="node">
<title>Node21</title>
<polygon fill="#ffffff" stroke="#bfbfbf" points="351,-56.5 351,-75.5 458,-75.5 458,-56.5 351,-56.5"/>
<text text-anchor="middle" x="404.5" y="-63.5" font-family="Helvetica,sans-Serif" font-size="10.00" fill="#000000">architecture_arch.h</text>
</g>
<!-- Node18&#45;&gt;Node21 -->
<g id="edge31" class="edge">
<title>Node18&#45;&gt;Node21</title>
<path fill="none" stroke="#191970" d="M368.99,-112.2455C375.0326,-104.3761 383.6903,-93.101 390.9441,-83.6542"/>
<polygon fill="#191970" stroke="#191970" points="393.7815,-85.7058 397.0958,-75.6427 388.2295,-81.4426 393.7815,-85.7058"/>
</g>
<!-- Node22&#45;&gt;Node5 -->
<g id="edge35" class="edge">
<title>Node22&#45;&gt;Node5</title>
<path fill="none" stroke="#191970" d="M1282.0746,-112.3733C1264.0979,-103.4644 1237.1559,-90.1127 1216.791,-80.0203"/>
<polygon fill="#191970" stroke="#191970" points="1218.1861,-76.8055 1207.6719,-75.5011 1215.0778,-83.0776 1218.1861,-76.8055"/>
</g>
<!-- Node22&#45;&gt;Node12 -->
<g id="edge34" class="edge">
<title>Node22&#45;&gt;Node12</title>
<path fill="none" stroke="#191970" d="M1261.2465,-117.1007C1246.5467,-115.3835 1229.7814,-113.5087 1214.5,-112 1024.2159,-93.2132 971.9669,-107.7606 779.4952,-75.9127"/>
<polygon fill="#191970" stroke="#191970" points="780.0669,-72.4598 769.6261,-74.2597 778.9105,-79.3636 780.0669,-72.4598"/>
</g>
<!-- Node22&#45;&gt;Node20 -->
<g id="edge33" class="edge">
<title>Node22&#45;&gt;Node20</title>
<path fill="none" stroke="#191970" d="M1301.5,-112.2455C1301.5,-104.9382 1301.5,-94.6944 1301.5,-85.7046"/>
<polygon fill="#191970" stroke="#191970" points="1305.0001,-85.6426 1301.5,-75.6427 1298.0001,-85.6427 1305.0001,-85.6426"/>
</g>
<!-- Node23 -->
<g id="node24" class="node">
<title>Node23</title>
<polygon fill="#ffffff" stroke="#bfbfbf" points="1345,-56.5 1345,-75.5 1426,-75.5 1426,-56.5 1345,-56.5"/>
<text text-anchor="middle" x="1385.5" y="-63.5" font-family="Helvetica,sans-Serif" font-size="10.00" fill="#000000">periph_conf.h</text>
</g>
<!-- Node22&#45;&gt;Node23 -->
<g id="edge36" class="edge">
<title>Node22&#45;&gt;Node23</title>
<path fill="none" stroke="#191970" d="M1316.1317,-112.2455C1328.8994,-103.7337 1347.6438,-91.2375 1362.4299,-81.3801"/>
<polygon fill="#191970" stroke="#191970" points="1364.6569,-84.1019 1371.036,-75.6427 1360.774,-78.2775 1364.6569,-84.1019"/>
</g>
<!-- Node26 -->
<g id="node27" class="node">
<title>Node26</title>
<g id="a_node27"><a xlink:href="modules_8h.html" target="_top" xlink:title="Common macros and compiler attributes/pragmas configuration. ">
<polygon fill="#ffffff" stroke="#000000" points="87,-112.5 87,-131.5 152,-131.5 152,-112.5 87,-112.5"/>
<text text-anchor="middle" x="119.5" y="-119.5" font-family="Helvetica,sans-Serif" font-size="10.00" fill="#000000">modules.h</text>
</a>
</g>
</g>
<!-- Node25&#45;&gt;Node26 -->
<g id="edge40" class="edge">
<title>Node25&#45;&gt;Node26</title>
<path fill="none" stroke="#191970" d="M169.8746,-168.2455C160.9527,-160.0549 148.012,-148.1749 137.4808,-138.5069"/>
<polygon fill="#191970" stroke="#191970" points="139.7371,-135.8271 130.0036,-131.6427 135.0032,-140.9837 139.7371,-135.8271"/>
</g>
<!-- Node27 -->
<g id="node28" class="node">
<title>Node27</title>
<g id="a_node28"><a xlink:href="riot__version_8h.html" target="_top" xlink:title="Common macros and compiler attributes/pragmas configuration. ">
<polygon fill="#ffffff" stroke="#000000" points="141,-56.5 141,-75.5 222,-75.5 222,-56.5 141,-56.5"/>
<text text-anchor="middle" x="181.5" y="-63.5" font-family="Helvetica,sans-Serif" font-size="10.00" fill="#000000">riot_version.h</text>
</a>
</g>
</g>
<!-- Node25&#45;&gt;Node27 -->
<g id="edge41" class="edge">
<title>Node25&#45;&gt;Node27</title>
<path fill="none" stroke="#191970" d="M180.5853,-168.4509C180.7484,-150.184 181.1075,-109.9553 181.3241,-85.6976"/>
<polygon fill="#191970" stroke="#191970" points="184.8254,-85.5558 181.415,-75.5249 177.8257,-85.4932 184.8254,-85.5558"/>
</g>
<!-- Node28 -->
<g id="node29" class="node">
<title>Node28</title>
<g id="a_node29"><a xlink:href="compiler__hints_8h.html" target="_top" xlink:title="Common macros and compiler attributes/pragmas configuration. ">
<polygon fill="#ffffff" stroke="#000000" points="209,-112.5 209,-131.5 302,-131.5 302,-112.5 209,-112.5"/>
<text text-anchor="middle" x="255.5" y="-119.5" font-family="Helvetica,sans-Serif" font-size="10.00" fill="#000000">compiler_hints.h</text>
</a>
</g>
</g>
<!-- Node25&#45;&gt;Node28 -->
<g id="edge43" class="edge">
<title>Node25&#45;&gt;Node28</title>
<path fill="none" stroke="#191970" d="M193.564,-168.2455C204.8562,-159.814 221.3845,-147.4729 234.5271,-137.6598"/>
<polygon fill="#191970" stroke="#191970" points="236.6669,-140.4301 242.5857,-131.6427 232.4789,-134.8211 236.6669,-140.4301"/>
</g>
<!-- Node29 -->
<g id="node30" class="node">
<title>Node29</title>
<g id="a_node30"><a xlink:href="container_8h.html" target="_top" xlink:title="Common macros and compiler attributes/pragmas configuration. ">
<polygon fill="#ffffff" stroke="#000000" points="0,-112.5 0,-131.5 69,-131.5 69,-112.5 0,-112.5"/>
<text text-anchor="middle" x="34.5" y="-119.5" font-family="Helvetica,sans-Serif" font-size="10.00" fill="#000000">container.h</text>
</a>
</g>
</g>
<!-- Node25&#45;&gt;Node29 -->
<g id="edge46" class="edge">
<title>Node25&#45;&gt;Node29</title>
<path fill="none" stroke="#191970" d="M155.4017,-168.3733C131.5445,-159.2226 95.4665,-145.3844 68.929,-135.2057"/>
<polygon fill="#191970" stroke="#191970" points="69.861,-131.8145 59.2708,-131.5011 67.3541,-138.3503 69.861,-131.8145"/>
</g>
<!-- Node27&#45;&gt;Node4 -->
<g id="edge42" class="edge">
<title>Node27&#45;&gt;Node4</title>
<path fill="none" stroke="#191970" d="M222.0018,-58.3429C226.8796,-57.5075 231.7971,-56.7056 236.5,-56 365.1245,-36.7011 518.7356,-20.5061 587.7466,-13.5919"/>
<polygon fill="#191970" stroke="#191970" points="588.4754,-17.0368 598.0793,-12.5629 587.7816,-10.0712 588.4754,-17.0368"/>
</g>
<!-- Node28&#45;&gt;Node4 -->
<g id="edge45" class="edge">
<title>Node28&#45;&gt;Node4</title>
<path fill="none" stroke="#191970" d="M254.4061,-112.2681C253.367,-97.7171 253.8338,-70.4581 269.5,-56 292.6813,-34.6063 502.3864,-18.2132 588.173,-12.3453"/>
<polygon fill="#191970" stroke="#191970" points="588.4962,-15.8316 598.238,-11.6664 588.025,-8.8474 588.4962,-15.8316"/>
</g>
<!-- Node28&#45;&gt;Node17 -->
<g id="edge44" class="edge">
<title>Node28&#45;&gt;Node17</title>
<path fill="none" stroke="#191970" d="M264.2093,-112.2455C271.3073,-104.2958 281.5084,-92.8706 289.995,-83.3656"/>
<polygon fill="#191970" stroke="#191970" points="292.8411,-85.4331 296.8905,-75.6427 287.6195,-80.771 292.8411,-85.4331"/>
</g>
<!-- Node29&#45;&gt;Node4 -->
<g id="edge48" class="edge">
<title>Node29&#45;&gt;Node4</title>
<path fill="none" stroke="#191970" d="M44.8335,-112.2845C61.5519,-97.2304 96.2329,-68.6839 131.5,-56 215.6919,-25.7202 488.9371,-14.2687 588.1122,-11.0464"/>
<polygon fill="#191970" stroke="#191970" points="588.3578,-14.5405 598.2423,-10.7264 588.1368,-7.544 588.3578,-14.5405"/>
</g>
<!-- Node30 -->
<g id="node31" class="node">
<title>Node30</title>
<polygon fill="#ffffff" stroke="#bfbfbf" points="6.5,-56.5 6.5,-75.5 62.5,-75.5 62.5,-56.5 6.5,-56.5"/>
<text text-anchor="middle" x="34.5" y="-63.5" font-family="Helvetica,sans-Serif" font-size="10.00" fill="#000000">stddef.h</text>
</g>
<!-- Node29&#45;&gt;Node30 -->
<g id="edge47" class="edge">
<title>Node29&#45;&gt;Node30</title>
<path fill="none" stroke="#191970" d="M34.5,-112.2455C34.5,-104.9382 34.5,-94.6944 34.5,-85.7046"/>
<polygon fill="#191970" stroke="#191970" points="38.0001,-85.6426 34.5,-75.6427 31.0001,-85.6427 38.0001,-85.6426"/>
</g>
<!-- Node31&#45;&gt;Node22 -->
<g id="edge50" class="edge">
<title>Node31&#45;&gt;Node22</title>
<path fill="none" stroke="#191970" d="M1341.139,-168.2455C1334.325,-160.2958 1324.5319,-148.8706 1316.3848,-139.3656"/>
<polygon fill="#191970" stroke="#191970" points="1318.9305,-136.9575 1309.7651,-131.6427 1313.6157,-141.513 1318.9305,-136.9575"/>
</g>
<!-- Node32 -->
<g id="node33" class="node">
<title>Node32</title>
<g id="a_node33"><a xlink:href="adc_8h.html" target="_top" xlink:title="Low&#45;level ADC peripheral driver interface definitions. ">
<polygon fill="#ffffff" stroke="#000000" points="1359.5,-112.5 1359.5,-131.5 1435.5,-131.5 1435.5,-112.5 1359.5,-112.5"/>
<text text-anchor="middle" x="1397.5" y="-119.5" font-family="Helvetica,sans-Serif" font-size="10.00" fill="#000000">periph/adc.h</text>
</a>
</g>
</g>
<!-- Node31&#45;&gt;Node32 -->
<g id="edge51" class="edge">
<title>Node31&#45;&gt;Node32</title>
<path fill="none" stroke="#191970" d="M1357.861,-168.2455C1364.675,-160.2958 1374.4681,-148.8706 1382.6152,-139.3656"/>
<polygon fill="#191970" stroke="#191970" points="1385.3843,-141.513 1389.2349,-131.6427 1380.0695,-136.9575 1385.3843,-141.513"/>
</g>
<!-- Node33 -->
<g id="node34" class="node">
<title>Node33</title>
<g id="a_node34"><a xlink:href="pwm_8h.html" target="_top" xlink:title="Low&#45;level PWM peripheral driver interface definitions. ">
<polygon fill="#ffffff" stroke="#000000" points="1454,-112.5 1454,-131.5 1537,-131.5 1537,-112.5 1454,-112.5"/>
<text text-anchor="middle" x="1495.5" y="-119.5" font-family="Helvetica,sans-Serif" font-size="10.00" fill="#000000">periph/pwm.h</text>
</a>
</g>
</g>
<!-- Node31&#45;&gt;Node33 -->
<g id="edge56" class="edge">
<title>Node31&#45;&gt;Node33</title>
<path fill="none" stroke="#191970" d="M1374.5983,-168.3733C1398.4555,-159.2226 1434.5335,-145.3844 1461.071,-135.2057"/>
<polygon fill="#191970" stroke="#191970" points="1462.6459,-138.3503 1470.7292,-131.5011 1460.139,-131.8145 1462.6459,-138.3503"/>
</g>
<!-- Node32&#45;&gt;Node4 -->
<g id="edge53" class="edge">
<title>Node32&#45;&gt;Node4</title>
<path fill="none" stroke="#191970" d="M1410.157,-112.3479C1426.6996,-98.6162 1451.7544,-73.2025 1435.5,-56 1422.0069,-41.7198 817.1701,-17.4335 660.9906,-11.392"/>
<polygon fill="#191970" stroke="#191970" points="660.6627,-7.8768 650.5353,-10.9889 660.393,-14.8716 660.6627,-7.8768"/>
</g>
<!-- Node32&#45;&gt;Node5 -->
<g id="edge54" class="edge">
<title>Node32&#45;&gt;Node5</title>
<path fill="none" stroke="#191970" d="M1361.5716,-112.3733C1326.2163,-102.9001 1272.112,-88.4032 1233.8212,-78.1435"/>
<polygon fill="#191970" stroke="#191970" points="1234.5247,-74.7086 1223.9595,-75.5011 1232.713,-81.4701 1234.5247,-74.7086"/>
</g>
<!-- Node32&#45;&gt;Node20 -->
<g id="edge52" class="edge">
<title>Node32&#45;&gt;Node20</title>
<path fill="none" stroke="#191970" d="M1380.7781,-112.2455C1365.9111,-103.5731 1343.9534,-90.7645 1326.9142,-80.825"/>
<polygon fill="#191970" stroke="#191970" points="1328.4317,-77.6582 1318.0303,-75.6427 1324.9045,-83.7047 1328.4317,-77.6582"/>
</g>
<!-- Node32&#45;&gt;Node23 -->
<g id="edge55" class="edge">
<title>Node32&#45;&gt;Node23</title>
<path fill="none" stroke="#191970" d="M1395.4098,-112.2455C1393.8439,-104.9382 1391.6488,-94.6944 1389.7224,-85.7046"/>
<polygon fill="#191970" stroke="#191970" points="1393.084,-84.6873 1387.5663,-75.6427 1386.2393,-86.1541 1393.084,-84.6873"/>
</g>
<!-- Node33&#45;&gt;Node4 -->
<g id="edge57" class="edge">
<title>Node33&#45;&gt;Node4</title>
<path fill="none" stroke="#191970" d="M1492.2371,-112.258C1486.6055,-97.1677 1473.5,-68.5724 1451.5,-56 1416.7518,-36.1424 816.8502,-16.0297 661.1664,-11.1272"/>
<polygon fill="#191970" stroke="#191970" points="660.8434,-7.6155 650.7388,-10.8007 660.6243,-14.612 660.8434,-7.6155"/>
</g>
<!-- Node33&#45;&gt;Node5 -->
<g id="edge59" class="edge">
<title>Node33&#45;&gt;Node5</title>
<path fill="none" stroke="#191970" d="M1453.7618,-113.7602C1450.6287,-113.1588 1447.515,-112.5664 1444.5,-112 1372.3134,-98.4383 1288.5102,-83.5398 1236.9941,-74.4782"/>
<polygon fill="#191970" stroke="#191970" points="1237.5893,-71.0292 1227.1344,-72.7458 1236.3778,-77.9236 1237.5893,-71.0292"/>
</g>
<!-- Node33&#45;&gt;Node20 -->
<g id="edge58" class="edge">
<title>Node33&#45;&gt;Node20</title>
<path fill="none" stroke="#191970" d="M1462.1502,-112.3733C1427.1466,-102.2691 1372.3442,-86.4499 1336.6717,-76.1526"/>
<polygon fill="#191970" stroke="#191970" points="1337.2828,-72.6862 1326.7044,-73.2755 1335.3414,-79.4116 1337.2828,-72.6862"/>
</g>
<!-- Node33&#45;&gt;Node23 -->
<g id="edge60" class="edge">
<title>Node33&#45;&gt;Node23</title>
<path fill="none" stroke="#191970" d="M1476.3395,-112.2455C1458.9889,-103.4125 1433.2099,-90.2887 1413.5417,-80.2758"/>
<polygon fill="#191970" stroke="#191970" points="1414.9405,-77.0605 1404.441,-75.6427 1411.7647,-83.2986 1414.9405,-77.0605"/>
</g>
</g>
</svg>
