<?xml version="1.0" encoding="UTF-8" standalone="no"?>
<!DOCTYPE svg PUBLIC "-//W3C//DTD SVG 1.1//EN"
 "http://www.w3.org/Graphics/SVG/1.1/DTD/svg11.dtd">
<!-- Generated by graphviz version 2.40.1 (0)
 -->
<!-- Title: sys/include/string_utils.h Pages: 1 -->
<svg width="448pt" height="319pt"
 viewBox="0.00 0.00 448.00 319.00" xmlns="http://www.w3.org/2000/svg" xmlns:xlink="http://www.w3.org/1999/xlink">
<g id="graph0" class="graph" transform="scale(1 1) rotate(0) translate(4 315)">
<title>sys/include/string_utils.h</title>
<polygon fill="#ffffff" stroke="transparent" points="-4,4 -4,-315 444,-315 444,4 -4,4"/>
<!-- Node0 -->
<g id="node1" class="node">
<title>Node0</title>
<polygon fill="#bfbfbf" stroke="#000000" points="170,-280.5 170,-310.5 268,-310.5 268,-280.5 170,-280.5"/>
<text text-anchor="start" x="178" y="-298.5" font-family="Helvetica,sans-Serif" font-size="10.00" fill="#000000">sys/include/string</text>
<text text-anchor="middle" x="219" y="-287.5" font-family="Helvetica,sans-Serif" font-size="10.00" fill="#000000">_utils.h</text>
</g>
<!-- Node1 -->
<g id="node2" class="node">
<title>Node1</title>
<g id="a_node2"><a xlink:href="assert_8h.html" target="_top" xlink:title="POSIX.1&#45;2008 compliant version of the assert macro. ">
<polygon fill="#ffffff" stroke="#000000" points="0,-56.5 0,-75.5 54,-75.5 54,-56.5 0,-56.5"/>
<text text-anchor="middle" x="27" y="-63.5" font-family="Helvetica,sans-Serif" font-size="10.00" fill="#000000">assert.h</text>
</a>
</g>
</g>
<!-- Node0&#45;&gt;Node1 -->
<g id="edge1" class="edge">
<title>Node0&#45;&gt;Node1</title>
<path fill="none" stroke="#191970" d="M169.9511,-289.595C117.4021,-282.1416 39.0866,-267.3928 21,-244 -15.1651,-197.225 6.0443,-121.0152 19.0943,-85.4403"/>
<polygon fill="#191970" stroke="#191970" points="22.4859,-86.3719 22.8098,-75.782 15.9527,-83.8586 22.4859,-86.3719"/>
</g>
<!-- Node2 -->
<g id="node3" class="node">
<title>Node2</title>
<polygon fill="#ffffff" stroke="#bfbfbf" points="94,-.5 94,-19.5 146,-19.5 146,-.5 94,-.5"/>
<text text-anchor="middle" x="120" y="-7.5" font-family="Helvetica,sans-Serif" font-size="10.00" fill="#000000">stdint.h</text>
</g>
<!-- Node0&#45;&gt;Node2 -->
<g id="edge4" class="edge">
<title>Node0&#45;&gt;Node2</title>
<path fill="none" stroke="#191970" d="M268.0471,-290.9646C333.1555,-281.9404 440,-255.3479 440,-178 440,-178 440,-178 440,-122 440,-62.4496 240.0792,-27.0657 156.2775,-14.8496"/>
<polygon fill="#191970" stroke="#191970" points="156.5812,-11.3575 146.1869,-13.4092 155.592,-18.2873 156.5812,-11.3575"/>
</g>
<!-- Node3 -->
<g id="node4" class="node">
<title>Node3</title>
<g id="a_node4"><a xlink:href="errno_8h.html" target="_top" xlink:title="errno.h">
<polygon fill="#ffffff" stroke="#000000" points="105.5,-224.5 105.5,-243.5 158.5,-243.5 158.5,-224.5 105.5,-224.5"/>
<text text-anchor="middle" x="132" y="-231.5" font-family="Helvetica,sans-Serif" font-size="10.00" fill="#000000">errno.h</text>
</a>
</g>
</g>
<!-- Node0&#45;&gt;Node3 -->
<g id="edge3" class="edge">
<title>Node0&#45;&gt;Node3</title>
<path fill="none" stroke="#191970" d="M197.4944,-280.2977C184.2032,-270.9022 167.1943,-258.8787 153.8412,-249.4395"/>
<polygon fill="#191970" stroke="#191970" points="155.8561,-246.5776 145.67,-243.6633 151.8154,-252.2937 155.8561,-246.5776"/>
</g>
<!-- Node4 -->
<g id="node5" class="node">
<title>Node4</title>
<polygon fill="#ffffff" stroke="#bfbfbf" points="56.5,-168.5 56.5,-187.5 109.5,-187.5 109.5,-168.5 56.5,-168.5"/>
<text text-anchor="middle" x="83" y="-175.5" font-family="Helvetica,sans-Serif" font-size="10.00" fill="#000000">string.h</text>
</g>
<!-- Node0&#45;&gt;Node4 -->
<g id="edge5" class="edge">
<title>Node0&#45;&gt;Node4</title>
<path fill="none" stroke="#191970" d="M210.9085,-280.2742C202.0171,-264.6427 186.511,-240.3546 168,-224 152.8633,-210.6267 133.168,-199.6594 116.5478,-191.7922"/>
<polygon fill="#191970" stroke="#191970" points="117.7265,-188.4832 107.1751,-187.5236 114.8251,-194.8536 117.7265,-188.4832"/>
</g>
<!-- Node5 -->
<g id="node6" class="node">
<title>Node5</title>
<g id="a_node6"><a xlink:href="strings_8h.html" target="_top" xlink:title="strings.h ">
<polygon fill="#ffffff" stroke="#000000" points="30.5,-224.5 30.5,-243.5 87.5,-243.5 87.5,-224.5 30.5,-224.5"/>
<text text-anchor="middle" x="59" y="-231.5" font-family="Helvetica,sans-Serif" font-size="10.00" fill="#000000">strings.h</text>
</a>
</g>
</g>
<!-- Node0&#45;&gt;Node5 -->
<g id="edge6" class="edge">
<title>Node0&#45;&gt;Node5</title>
<path fill="none" stroke="#191970" d="M179.8596,-280.4554C153.3974,-270.284 118.7819,-256.9787 93.3817,-247.2155"/>
<polygon fill="#191970" stroke="#191970" points="94.3843,-243.8512 83.7943,-243.5303 91.8728,-250.3852 94.3843,-243.8512"/>
</g>
<!-- Node6 -->
<g id="node7" class="node">
<title>Node6</title>
<polygon fill="#ffffff" stroke="#bfbfbf" points="304.5,-224.5 304.5,-243.5 373.5,-243.5 373.5,-224.5 304.5,-224.5"/>
<text text-anchor="middle" x="339" y="-231.5" font-family="Helvetica,sans-Serif" font-size="10.00" fill="#000000">sys/types.h</text>
</g>
<!-- Node0&#45;&gt;Node6 -->
<g id="edge8" class="edge">
<title>Node0&#45;&gt;Node6</title>
<path fill="none" stroke="#191970" d="M248.3553,-280.4554C267.5873,-270.599 292.5612,-257.7999 311.4241,-248.1327"/>
<polygon fill="#191970" stroke="#191970" points="313.1013,-251.206 320.4043,-243.5303 309.9086,-244.9765 313.1013,-251.206"/>
</g>
<!-- Node7 -->
<g id="node8" class="node">
<title>Node7</title>
<g id="a_node8"><a xlink:href="flash__utils_8h.html" target="_top" xlink:title="Utility functions, macros, and types for read&#45;only memory. ">
<polygon fill="#ffffff" stroke="#000000" points="215.5,-224.5 215.5,-243.5 286.5,-243.5 286.5,-224.5 215.5,-224.5"/>
<text text-anchor="middle" x="251" y="-231.5" font-family="Helvetica,sans-Serif" font-size="10.00" fill="#000000">flash_utils.h</text>
</a>
</g>
</g>
<!-- Node0&#45;&gt;Node7 -->
<g id="edge9" class="edge">
<title>Node0&#45;&gt;Node7</title>
<path fill="none" stroke="#191970" d="M226.9101,-280.2977C231.2132,-272.0277 236.5758,-261.7215 241.1482,-252.9339"/>
<polygon fill="#191970" stroke="#191970" points="244.3654,-254.3335 245.8764,-243.8469 238.1557,-251.1024 244.3654,-254.3335"/>
</g>
<!-- Node11 -->
<g id="node12" class="node">
<title>Node11</title>
<g id="a_node12"><a xlink:href="modules_8h.html" target="_top" xlink:title="Common macros and compiler attributes/pragmas configuration. ">
<polygon fill="#ffffff" stroke="#000000" points="319.5,-112.5 319.5,-131.5 384.5,-131.5 384.5,-112.5 319.5,-112.5"/>
<text text-anchor="middle" x="352" y="-119.5" font-family="Helvetica,sans-Serif" font-size="10.00" fill="#000000">modules.h</text>
</a>
</g>
</g>
<!-- Node0&#45;&gt;Node11 -->
<g id="edge24" class="edge">
<title>Node0&#45;&gt;Node11</title>
<path fill="none" stroke="#191970" d="M268.2172,-286.654C311.3388,-277.7834 369.2249,-262.7641 383,-244 402.9889,-216.7717 392.8691,-200.3039 383,-168 379.8591,-157.7192 373.5634,-147.6582 367.4612,-139.5799"/>
<polygon fill="#191970" stroke="#191970" points="370.0816,-137.2539 361.0741,-131.6757 364.637,-141.6535 370.0816,-137.2539"/>
</g>
<!-- Node1&#45;&gt;Node2 -->
<g id="edge2" class="edge">
<title>Node1&#45;&gt;Node2</title>
<path fill="none" stroke="#191970" d="M43.1994,-56.2455C57.6018,-47.5731 78.8732,-34.7645 95.3799,-24.825"/>
<polygon fill="#191970" stroke="#191970" points="97.225,-27.7996 103.9863,-19.6427 93.614,-21.8028 97.225,-27.7996"/>
</g>
<!-- Node5&#45;&gt;Node4 -->
<g id="edge7" class="edge">
<title>Node5&#45;&gt;Node4</title>
<path fill="none" stroke="#191970" d="M63.1805,-224.2455C66.381,-216.7776 70.896,-206.2427 74.8084,-197.1137"/>
<polygon fill="#191970" stroke="#191970" points="78.1452,-198.2129 78.8674,-187.6427 71.7112,-195.4554 78.1452,-198.2129"/>
</g>
<!-- Node7&#45;&gt;Node4 -->
<g id="edge12" class="edge">
<title>Node7&#45;&gt;Node4</title>
<path fill="none" stroke="#191970" d="M222.1198,-224.3733C193.5913,-214.8638 149.8763,-200.2921 119.0774,-190.0258"/>
<polygon fill="#191970" stroke="#191970" points="120.1609,-186.6977 109.5672,-186.8557 117.9472,-193.3385 120.1609,-186.6977"/>
</g>
<!-- Node8 -->
<g id="node9" class="node">
<title>Node8</title>
<g id="a_node9"><a xlink:href="stdio_8h.html" target="_top" xlink:title="stdio wrapper to extend the C libs stdio ">
<polygon fill="#ffffff" stroke="#000000" points="326,-168.5 326,-187.5 374,-187.5 374,-168.5 326,-168.5"/>
<text text-anchor="middle" x="350" y="-175.5" font-family="Helvetica,sans-Serif" font-size="10.00" fill="#000000">stdio.h</text>
</a>
</g>
</g>
<!-- Node7&#45;&gt;Node8 -->
<g id="edge10" class="edge">
<title>Node7&#45;&gt;Node8</title>
<path fill="none" stroke="#191970" d="M262.9776,-224.2455C276.8875,-215.4125 299.854,-202.2887 318.7921,-192.2758"/>
<polygon fill="#191970" stroke="#191970" points="320.4484,-195.3595 327.708,-187.6427 317.2206,-189.1481 320.4484,-195.3595"/>
</g>
<!-- Node9 -->
<g id="node10" class="node">
<title>Node9</title>
<polygon fill="#ffffff" stroke="#bfbfbf" points="240.5,-168.5 240.5,-187.5 307.5,-187.5 307.5,-168.5 240.5,-168.5"/>
<text text-anchor="middle" x="274" y="-175.5" font-family="Helvetica,sans-Serif" font-size="10.00" fill="#000000">cpu_conf.h</text>
</g>
<!-- Node7&#45;&gt;Node9 -->
<g id="edge13" class="edge">
<title>Node7&#45;&gt;Node9</title>
<path fill="none" stroke="#191970" d="M255.0063,-224.2455C258.0735,-216.7776 262.4003,-206.2427 266.1497,-197.1137"/>
<polygon fill="#191970" stroke="#191970" points="269.4779,-198.2226 270.0396,-187.6427 263.0028,-195.5631 269.4779,-198.2226"/>
</g>
<!-- Node10 -->
<g id="node11" class="node">
<title>Node10</title>
<g id="a_node11"><a xlink:href="kernel__defines_8h.html" target="_top" xlink:title="Common macros and compiler attributes/pragmas configuration. ">
<polygon fill="#ffffff" stroke="#000000" points="127.5,-168.5 127.5,-187.5 222.5,-187.5 222.5,-168.5 127.5,-168.5"/>
<text text-anchor="middle" x="175" y="-175.5" font-family="Helvetica,sans-Serif" font-size="10.00" fill="#000000">kernel_defines.h</text>
</a>
</g>
</g>
<!-- Node7&#45;&gt;Node10 -->
<g id="edge14" class="edge">
<title>Node7&#45;&gt;Node10</title>
<path fill="none" stroke="#191970" d="M237.7618,-224.2455C226.319,-215.814 209.5704,-203.4729 196.2525,-193.6598"/>
<polygon fill="#191970" stroke="#191970" points="198.2133,-190.757 188.0865,-187.6427 194.0609,-196.3924 198.2133,-190.757"/>
</g>
<!-- Node8&#45;&gt;Node7 -->
<g id="edge11" class="edge">
<title>Node8&#45;&gt;Node7</title>
<path fill="none" stroke="#191970" d="M338.1983,-187.6427C324.3652,-196.4393 301.4201,-209.558 282.4483,-219.5971"/>
<polygon fill="#191970" stroke="#191970" points="280.7679,-216.5259 273.5113,-224.2455 283.9981,-222.7361 280.7679,-216.5259"/>
</g>
<!-- Node10&#45;&gt;Node11 -->
<g id="edge15" class="edge">
<title>Node10&#45;&gt;Node11</title>
<path fill="none" stroke="#191970" d="M205.4274,-168.3733C234.9872,-159.021 280.0226,-144.7725 312.3695,-134.5385"/>
<polygon fill="#191970" stroke="#191970" points="313.4913,-137.8546 321.9697,-131.5011 311.3797,-131.1807 313.4913,-137.8546"/>
</g>
<!-- Node12 -->
<g id="node13" class="node">
<title>Node12</title>
<g id="a_node13"><a xlink:href="riot__version_8h.html" target="_top" xlink:title="Common macros and compiler attributes/pragmas configuration. ">
<polygon fill="#ffffff" stroke="#000000" points="222.5,-56.5 222.5,-75.5 303.5,-75.5 303.5,-56.5 222.5,-56.5"/>
<text text-anchor="middle" x="263" y="-63.5" font-family="Helvetica,sans-Serif" font-size="10.00" fill="#000000">riot_version.h</text>
</a>
</g>
</g>
<!-- Node10&#45;&gt;Node12 -->
<g id="edge16" class="edge">
<title>Node10&#45;&gt;Node12</title>
<path fill="none" stroke="#191970" d="M185.6125,-168.3038C195.1382,-159.342 209.2363,-145.422 220,-132 232.1171,-116.8903 243.9877,-98.299 252.176,-84.7027"/>
<polygon fill="#191970" stroke="#191970" points="255.3595,-86.1954 257.4384,-75.8065 249.3346,-82.6315 255.3595,-86.1954"/>
</g>
<!-- Node13 -->
<g id="node14" class="node">
<title>Node13</title>
<g id="a_node14"><a xlink:href="compiler__hints_8h.html" target="_top" xlink:title="Common macros and compiler attributes/pragmas configuration. ">
<polygon fill="#ffffff" stroke="#000000" points="30.5,-112.5 30.5,-131.5 123.5,-131.5 123.5,-112.5 30.5,-112.5"/>
<text text-anchor="middle" x="77" y="-119.5" font-family="Helvetica,sans-Serif" font-size="10.00" fill="#000000">compiler_hints.h</text>
</a>
</g>
</g>
<!-- Node10&#45;&gt;Node13 -->
<g id="edge18" class="edge">
<title>Node10&#45;&gt;Node13</title>
<path fill="none" stroke="#191970" d="M157.9297,-168.2455C142.753,-159.5731 120.3379,-146.7645 102.9437,-136.825"/>
<polygon fill="#191970" stroke="#191970" points="104.2936,-133.5653 93.8747,-131.6427 100.8206,-139.643 104.2936,-133.5653"/>
</g>
<!-- Node14 -->
<g id="node15" class="node">
<title>Node14</title>
<g id="a_node15"><a xlink:href="container_8h.html" target="_top" xlink:title="Common macros and compiler attributes/pragmas configuration. ">
<polygon fill="#ffffff" stroke="#000000" points="141.5,-112.5 141.5,-131.5 210.5,-131.5 210.5,-112.5 141.5,-112.5"/>
<text text-anchor="middle" x="176" y="-119.5" font-family="Helvetica,sans-Serif" font-size="10.00" fill="#000000">container.h</text>
</a>
</g>
</g>
<!-- Node10&#45;&gt;Node14 -->
<g id="edge21" class="edge">
<title>Node10&#45;&gt;Node14</title>
<path fill="none" stroke="#191970" d="M175.1742,-168.2455C175.3047,-160.9382 175.4876,-150.6944 175.6481,-141.7046"/>
<polygon fill="#191970" stroke="#191970" points="179.1486,-141.7036 175.8278,-131.6427 172.1497,-141.5786 179.1486,-141.7036"/>
</g>
<!-- Node12&#45;&gt;Node2 -->
<g id="edge17" class="edge">
<title>Node12&#45;&gt;Node2</title>
<path fill="none" stroke="#191970" d="M238.4174,-56.3733C215.0504,-47.2226 179.7138,-33.3844 153.7216,-23.2057"/>
<polygon fill="#191970" stroke="#191970" points="154.8495,-19.8886 144.2618,-19.5011 152.297,-26.4066 154.8495,-19.8886"/>
</g>
<!-- Node13&#45;&gt;Node1 -->
<g id="edge19" class="edge">
<title>Node13&#45;&gt;Node1</title>
<path fill="none" stroke="#191970" d="M68.2907,-112.2455C61.1927,-104.2958 50.9916,-92.8706 42.505,-83.3656"/>
<polygon fill="#191970" stroke="#191970" points="44.8805,-80.771 35.6095,-75.6427 39.6589,-85.4331 44.8805,-80.771"/>
</g>
<!-- Node13&#45;&gt;Node2 -->
<g id="edge20" class="edge">
<title>Node13&#45;&gt;Node2</title>
<path fill="none" stroke="#191970" d="M80.6662,-112.4509C87.7428,-94.0186 103.4045,-53.2254 112.6888,-29.043"/>
<polygon fill="#191970" stroke="#191970" points="116.0263,-30.115 116.3431,-19.5249 109.4914,-27.606 116.0263,-30.115"/>
</g>
<!-- Node14&#45;&gt;Node2 -->
<g id="edge23" class="edge">
<title>Node14&#45;&gt;Node2</title>
<path fill="none" stroke="#191970" d="M166.196,-112.2386C157.8759,-103.4506 146.1778,-89.8263 139,-76 131.4459,-61.4489 126.5253,-43.4888 123.5885,-29.9794"/>
<polygon fill="#191970" stroke="#191970" points="126.9576,-28.976 121.574,-19.851 120.0921,-30.3416 126.9576,-28.976"/>
</g>
<!-- Node15 -->
<g id="node16" class="node">
<title>Node15</title>
<polygon fill="#ffffff" stroke="#bfbfbf" points="148,-56.5 148,-75.5 204,-75.5 204,-56.5 148,-56.5"/>
<text text-anchor="middle" x="176" y="-63.5" font-family="Helvetica,sans-Serif" font-size="10.00" fill="#000000">stddef.h</text>
</g>
<!-- Node14&#45;&gt;Node15 -->
<g id="edge22" class="edge">
<title>Node14&#45;&gt;Node15</title>
<path fill="none" stroke="#191970" d="M176,-112.2455C176,-104.9382 176,-94.6944 176,-85.7046"/>
<polygon fill="#191970" stroke="#191970" points="179.5001,-85.6426 176,-75.6427 172.5001,-85.6427 179.5001,-85.6426"/>
</g>
</g>
</svg>
