<?xml version="1.0" encoding="UTF-8" standalone="no"?>
<!DOCTYPE svg PUBLIC "-//W3C//DTD SVG 1.1//EN"
 "http://www.w3.org/Graphics/SVG/1.1/DTD/svg11.dtd">
<!-- Generated by graphviz version 2.40.1 (0)
 -->
<!-- Title: sys/include/net/gnrc/rpl/structs.h Pages: 1 -->
<svg width="722pt" height="262pt"
 viewBox="0.00 0.00 721.50 262.00" xmlns="http://www.w3.org/2000/svg" xmlns:xlink="http://www.w3.org/1999/xlink">
<g id="graph0" class="graph" transform="scale(1 1) rotate(0) translate(4 258)">
<title>sys/include/net/gnrc/rpl/structs.h</title>
<polygon fill="#ffffff" stroke="transparent" points="-4,4 -4,-258 717.5,-258 717.5,4 -4,4"/>
<!-- Node39 -->
<g id="node1" class="node">
<title>Node39</title>
<polygon fill="#bfbfbf" stroke="#000000" points="252,-223.5 252,-253.5 364,-253.5 364,-223.5 252,-223.5"/>
<text text-anchor="start" x="260" y="-241.5" font-family="Helvetica,sans-Serif" font-size="10.00" fill="#000000">sys/include/net/gnrc</text>
<text text-anchor="middle" x="308" y="-230.5" font-family="Helvetica,sans-Serif" font-size="10.00" fill="#000000">/rpl/structs.h</text>
</g>
<!-- Node40 -->
<g id="node2" class="node">
<title>Node40</title>
<g id="a_node2"><a xlink:href="dodag_8h.html" target="_top" xlink:title="DODAG&#45;related functions for RPL. ">
<polygon fill="#ffffff" stroke="#000000" points="0,-151 0,-181 112,-181 112,-151 0,-151"/>
<text text-anchor="start" x="8" y="-169" font-family="Helvetica,sans-Serif" font-size="10.00" fill="#000000">sys/include/net/gnrc</text>
<text text-anchor="middle" x="56" y="-158" font-family="Helvetica,sans-Serif" font-size="10.00" fill="#000000">/rpl/dodag.h</text>
</a>
</g>
</g>
<!-- Node39&#45;&gt;Node40 -->
<g id="edge1" class="edge">
<title>Node39&#45;&gt;Node40</title>
<path fill="none" stroke="#191970" d="M243.7313,-220.5794C208.8597,-210.7891 165.0234,-198.3739 126,-187 119.4222,-185.0828 112.5049,-183.0401 105.6838,-181.01"/>
<polygon fill="#191970" stroke="#191970" points="243.2091,-224.068 253.7828,-223.3985 245.0994,-217.328 243.2091,-224.068"/>
</g>
<!-- Node41 -->
<g id="node3" class="node">
<title>Node41</title>
<g id="a_node3"><a xlink:href="rpl_8h.html" target="_top" xlink:title="RPL header. ">
<polygon fill="#ffffff" stroke="#000000" points="42,-78.5 42,-108.5 154,-108.5 154,-78.5 42,-78.5"/>
<text text-anchor="start" x="50" y="-96.5" font-family="Helvetica,sans-Serif" font-size="10.00" fill="#000000">sys/include/net/gnrc</text>
<text text-anchor="middle" x="98" y="-85.5" font-family="Helvetica,sans-Serif" font-size="10.00" fill="#000000">/rpl.h</text>
</a>
</g>
</g>
<!-- Node39&#45;&gt;Node41 -->
<g id="edge11" class="edge">
<title>Node39&#45;&gt;Node41</title>
<path fill="none" stroke="#191970" d="M241.7073,-225.6164C214.0761,-217.8319 182.9235,-205.673 159,-187 131.9569,-165.8919 113.1487,-129.2754 104.1159,-108.6862"/>
<polygon fill="#191970" stroke="#191970" points="241.1432,-229.0885 251.708,-228.2905 242.9515,-222.3261 241.1432,-229.0885"/>
</g>
<!-- Node43 -->
<g id="node5" class="node">
<title>Node43</title>
<g id="a_node5"><a xlink:href="of__manager_8h.html" target="_top" xlink:title="RPL Objective functions manager header. ">
<polygon fill="#ffffff" stroke="#000000" points="168,-151 168,-181 280,-181 280,-151 168,-151"/>
<text text-anchor="start" x="176" y="-169" font-family="Helvetica,sans-Serif" font-size="10.00" fill="#000000">sys/include/net/gnrc</text>
<text text-anchor="middle" x="224" y="-158" font-family="Helvetica,sans-Serif" font-size="10.00" fill="#000000">/rpl/of_manager.h</text>
</a>
</g>
</g>
<!-- Node39&#45;&gt;Node43 -->
<g id="edge5" class="edge">
<title>Node39&#45;&gt;Node43</title>
<path fill="none" stroke="#191970" d="M282.6933,-216.6579C269.3476,-205.1393 253.3161,-191.3026 241.3826,-181.0028"/>
<polygon fill="#191970" stroke="#191970" points="280.738,-219.5937 290.5951,-223.478 285.3117,-214.2945 280.738,-219.5937"/>
</g>
<!-- Node44 -->
<g id="node6" class="node">
<title>Node44</title>
<g id="a_node6"><a xlink:href="p2p_8h.html" target="_top" xlink:title="Definititions for P2P&#45;RPL. ">
<polygon fill="#ffffff" stroke="#000000" points="252,-78.5 252,-108.5 364,-108.5 364,-78.5 252,-78.5"/>
<text text-anchor="start" x="260" y="-96.5" font-family="Helvetica,sans-Serif" font-size="10.00" fill="#000000">sys/include/net/gnrc</text>
<text text-anchor="middle" x="308" y="-85.5" font-family="Helvetica,sans-Serif" font-size="10.00" fill="#000000">/rpl/p2p.h</text>
</a>
</g>
</g>
<!-- Node39&#45;&gt;Node44 -->
<g id="edge7" class="edge">
<title>Node39&#45;&gt;Node44</title>
<path fill="none" stroke="#191970" d="M308,-213.0601C308,-182.7971 308,-133.2707 308,-108.5392"/>
<polygon fill="#191970" stroke="#191970" points="304.5001,-213.2565 308,-223.2565 311.5001,-213.2566 304.5001,-213.2565"/>
</g>
<!-- Node45 -->
<g id="node7" class="node">
<title>Node45</title>
<g id="a_node7"><a xlink:href="p2p__structs_8h.html" target="_top" xlink:title="P2P&#45;RPL data structs. ">
<polygon fill="#ffffff" stroke="#000000" points="336,-151 336,-181 448,-181 448,-151 336,-151"/>
<text text-anchor="start" x="344" y="-169" font-family="Helvetica,sans-Serif" font-size="10.00" fill="#000000">sys/include/net/gnrc</text>
<text text-anchor="middle" x="392" y="-158" font-family="Helvetica,sans-Serif" font-size="10.00" fill="#000000">/rpl/p2p_structs.h</text>
</a>
</g>
</g>
<!-- Node39&#45;&gt;Node45 -->
<g id="edge8" class="edge">
<title>Node39&#45;&gt;Node45</title>
<path fill="none" stroke="#191970" d="M333.3067,-216.6579C346.6524,-205.1393 362.6839,-191.3026 374.6174,-181.0028"/>
<polygon fill="#191970" stroke="#191970" points="330.6883,-214.2945 325.4049,-223.478 335.262,-219.5937 330.6883,-214.2945"/>
</g>
<!-- Node47 -->
<g id="node9" class="node">
<title>Node47</title>
<g id="a_node9"><a xlink:href="validation_8h.html" target="_top" xlink:title="RPL control message validation functions. ">
<polygon fill="#ffffff" stroke="#000000" points="466,-145.5 466,-186.5 582,-186.5 582,-145.5 466,-145.5"/>
<text text-anchor="start" x="474" y="-174.5" font-family="Helvetica,sans-Serif" font-size="10.00" fill="#000000">sys/net/gnrc/routing</text>
<text text-anchor="start" x="474" y="-163.5" font-family="Helvetica,sans-Serif" font-size="10.00" fill="#000000">/rpl/gnrc_rpl_internal</text>
<text text-anchor="middle" x="524" y="-152.5" font-family="Helvetica,sans-Serif" font-size="10.00" fill="#000000">/validation.h</text>
</a>
</g>
</g>
<!-- Node39&#45;&gt;Node47 -->
<g id="edge12" class="edge">
<title>Node39&#45;&gt;Node47</title>
<path fill="none" stroke="#191970" d="M362.2635,-220.2866C393.8061,-209.6993 433.5553,-196.3576 465.7541,-185.5501"/>
<polygon fill="#191970" stroke="#191970" points="361.1218,-216.9778 352.7553,-223.478 363.3493,-223.6139 361.1218,-216.9778"/>
</g>
<!-- Node48 -->
<g id="node10" class="node">
<title>Node48</title>
<g id="a_node10"><a xlink:href="of0_8h.html" target="_top" xlink:title="Objective Function Zero. ">
<polygon fill="#ffffff" stroke="#000000" points="600.5,-151 600.5,-181 713.5,-181 713.5,-151 600.5,-151"/>
<text text-anchor="start" x="608.5" y="-169" font-family="Helvetica,sans-Serif" font-size="10.00" fill="#000000">sys/net/gnrc/routing</text>
<text text-anchor="middle" x="657" y="-158" font-family="Helvetica,sans-Serif" font-size="10.00" fill="#000000">/rpl/of0.h</text>
</a>
</g>
</g>
<!-- Node39&#45;&gt;Node48 -->
<g id="edge13" class="edge">
<title>Node39&#45;&gt;Node48</title>
<path fill="none" stroke="#191970" d="M374.1047,-228.9253C431.7857,-219.9885 517.5139,-205.2975 591,-187 598.0009,-185.2568 605.3456,-183.1772 612.4884,-181.0146"/>
<polygon fill="#191970" stroke="#191970" points="373.3802,-225.4954 364.027,-230.4723 374.4423,-232.4144 373.3802,-225.4954"/>
</g>
<!-- Node40&#45;&gt;Node41 -->
<g id="edge2" class="edge">
<title>Node40&#45;&gt;Node41</title>
<path fill="none" stroke="#191970" d="M63.5877,-141.8473C69.3191,-130.8272 76.9504,-118.1224 83.7184,-108.5028"/>
<polygon fill="#191970" stroke="#191970" points="60.3707,-140.4584 59.1097,-150.978 66.6555,-143.5408 60.3707,-140.4584"/>
</g>
<!-- Node41&#45;&gt;Node40 -->
<g id="edge3" class="edge">
<title>Node41&#45;&gt;Node40</title>
<path fill="none" stroke="#191970" d="M90.4237,-117.6307C84.6949,-128.6485 77.0643,-141.3542 70.2952,-150.978"/>
<polygon fill="#191970" stroke="#191970" points="93.6393,-119.0225 94.8991,-108.5028 87.3541,-115.9409 93.6393,-119.0225"/>
</g>
<!-- Node42 -->
<g id="node4" class="node">
<title>Node42</title>
<g id="a_node4"><a xlink:href="gnrc__ipv6__auto__subnets_8c.html" target="_top" xlink:title="sys/net/gnrc/routing\l/ipv6_auto_subnets/gnrc\l_ipv6_auto_subnets.c">
<polygon fill="#ffffff" stroke="#000000" points="32.5,-.5 32.5,-41.5 163.5,-41.5 163.5,-.5 32.5,-.5"/>
<text text-anchor="start" x="40.5" y="-29.5" font-family="Helvetica,sans-Serif" font-size="10.00" fill="#000000">sys/net/gnrc/routing</text>
<text text-anchor="start" x="40.5" y="-18.5" font-family="Helvetica,sans-Serif" font-size="10.00" fill="#000000">/ipv6_auto_subnets/gnrc</text>
<text text-anchor="middle" x="98" y="-7.5" font-family="Helvetica,sans-Serif" font-size="10.00" fill="#000000">_ipv6_auto_subnets.c</text>
</a>
</g>
</g>
<!-- Node41&#45;&gt;Node42 -->
<g id="edge4" class="edge">
<title>Node41&#45;&gt;Node42</title>
<path fill="none" stroke="#191970" d="M98,-68.4016C98,-59.6173 98,-49.8652 98,-41.5015"/>
<polygon fill="#191970" stroke="#191970" points="94.5001,-68.4779 98,-78.478 101.5001,-68.478 94.5001,-68.4779"/>
</g>
<!-- Node43&#45;&gt;Node41 -->
<g id="edge6" class="edge">
<title>Node43&#45;&gt;Node41</title>
<path fill="none" stroke="#191970" d="M189.1221,-145.9313C168.5334,-134.0847 142.9029,-119.337 124.0738,-108.5028"/>
<polygon fill="#191970" stroke="#191970" points="187.4796,-149.0243 197.8927,-150.978 190.9707,-142.957 187.4796,-149.0243"/>
</g>
<!-- Node45&#45;&gt;Node44 -->
<g id="edge9" class="edge">
<title>Node45&#45;&gt;Node44</title>
<path fill="none" stroke="#191970" d="M366.6933,-144.1579C353.3476,-132.6393 337.3161,-118.8026 325.3826,-108.5028"/>
<polygon fill="#191970" stroke="#191970" points="364.738,-147.0937 374.5951,-150.978 369.3117,-141.7945 364.738,-147.0937"/>
</g>
<!-- Node46 -->
<g id="node8" class="node">
<title>Node46</title>
<g id="a_node8"><a xlink:href="p2p__dodag_8h.html" target="_top" xlink:title="DODAG&#45;related functions for P2P&#45;RPL. ">
<polygon fill="#ffffff" stroke="#000000" points="382,-78.5 382,-108.5 494,-108.5 494,-78.5 382,-78.5"/>
<text text-anchor="start" x="390" y="-96.5" font-family="Helvetica,sans-Serif" font-size="10.00" fill="#000000">sys/include/net/gnrc</text>
<text text-anchor="middle" x="438" y="-85.5" font-family="Helvetica,sans-Serif" font-size="10.00" fill="#000000">/rpl/p2p_dodag.h</text>
</a>
</g>
</g>
<!-- Node45&#45;&gt;Node46 -->
<g id="edge10" class="edge">
<title>Node45&#45;&gt;Node46</title>
<path fill="none" stroke="#191970" d="M406.9021,-142.513C413.99,-131.3418 422.2542,-118.3167 428.481,-108.5028"/>
<polygon fill="#191970" stroke="#191970" points="403.9334,-140.659 401.5312,-150.978 409.8441,-144.4093 403.9334,-140.659"/>
</g>
</g>
</svg>
