<?xml version="1.0" encoding="UTF-8" standalone="no"?>
<!DOCTYPE svg PUBLIC "-//W3C//DTD SVG 1.1//EN"
 "http://www.w3.org/Graphics/SVG/1.1/DTD/svg11.dtd">
<!-- Generated by graphviz version 2.40.1 (0)
 -->
<!-- Title: sys/include/ztimer/config.h Pages: 1 -->
<svg width="1062pt" height="599pt"
 viewBox="0.00 0.00 1061.50 599.00" xmlns="http://www.w3.org/2000/svg" xmlns:xlink="http://www.w3.org/1999/xlink">
<g id="graph0" class="graph" transform="scale(1 1) rotate(0) translate(4 595)">
<title>sys/include/ztimer/config.h</title>
<polygon fill="#ffffff" stroke="transparent" points="-4,4 -4,-595 1057.5,-595 1057.5,4 -4,4"/>
<!-- Node0 -->
<g id="node1" class="node">
<title>Node0</title>
<polygon fill="#bfbfbf" stroke="#000000" points="480.5,-560.5 480.5,-590.5 581.5,-590.5 581.5,-560.5 480.5,-560.5"/>
<text text-anchor="start" x="488.5" y="-578.5" font-family="Helvetica,sans-Serif" font-size="10.00" fill="#000000">sys/include/ztimer</text>
<text text-anchor="middle" x="531" y="-567.5" font-family="Helvetica,sans-Serif" font-size="10.00" fill="#000000">/config.h</text>
</g>
<!-- Node1 -->
<g id="node2" class="node">
<title>Node1</title>
<polygon fill="#ffffff" stroke="#bfbfbf" points="419.5,-504.5 419.5,-523.5 472.5,-523.5 472.5,-504.5 419.5,-504.5"/>
<text text-anchor="middle" x="446" y="-511.5" font-family="Helvetica,sans-Serif" font-size="10.00" fill="#000000">board.h</text>
</g>
<!-- Node0&#45;&gt;Node1 -->
<g id="edge1" class="edge">
<title>Node0&#45;&gt;Node1</title>
<path fill="none" stroke="#191970" d="M509.9888,-560.2977C497.2066,-551.0495 480.9054,-539.2551 467.9552,-529.8853"/>
<polygon fill="#191970" stroke="#191970" points="469.763,-526.8732 459.6096,-523.8469 465.6597,-532.5445 469.763,-526.8732"/>
</g>
<!-- Node2 -->
<g id="node3" class="node">
<title>Node2</title>
<polygon fill="#ffffff" stroke="#bfbfbf" points="490.5,-504.5 490.5,-523.5 571.5,-523.5 571.5,-504.5 490.5,-504.5"/>
<text text-anchor="middle" x="531" y="-511.5" font-family="Helvetica,sans-Serif" font-size="10.00" fill="#000000">periph_conf.h</text>
</g>
<!-- Node0&#45;&gt;Node2 -->
<g id="edge2" class="edge">
<title>Node0&#45;&gt;Node2</title>
<path fill="none" stroke="#191970" d="M531,-560.2977C531,-552.3834 531,-542.6043 531,-534.0759"/>
<polygon fill="#191970" stroke="#191970" points="534.5001,-533.8469 531,-523.8469 527.5001,-533.847 534.5001,-533.8469"/>
</g>
<!-- Node3 -->
<g id="node4" class="node">
<title>Node3</title>
<g id="a_node4"><a xlink:href="ztimer_8h.html" target="_top" xlink:title="ztimer API ">
<polygon fill="#ffffff" stroke="#000000" points="589.5,-504.5 589.5,-523.5 644.5,-523.5 644.5,-504.5 589.5,-504.5"/>
<text text-anchor="middle" x="617" y="-511.5" font-family="Helvetica,sans-Serif" font-size="10.00" fill="#000000">ztimer.h</text>
</a>
</g>
</g>
<!-- Node0&#45;&gt;Node3 -->
<g id="edge3" class="edge">
<title>Node0&#45;&gt;Node3</title>
<path fill="none" stroke="#191970" d="M552.2584,-560.2977C565.2718,-550.9917 581.8903,-539.1075 595.0317,-529.7099"/>
<polygon fill="#191970" stroke="#191970" points="597.3889,-532.3271 603.4871,-523.6633 593.3171,-526.6332 597.3889,-532.3271"/>
</g>
<!-- Node4 -->
<g id="node5" class="node">
<title>Node4</title>
<polygon fill="#ffffff" stroke="#bfbfbf" points="565,-.5 565,-19.5 617,-19.5 617,-.5 565,-.5"/>
<text text-anchor="middle" x="591" y="-7.5" font-family="Helvetica,sans-Serif" font-size="10.00" fill="#000000">stdint.h</text>
</g>
<!-- Node3&#45;&gt;Node4 -->
<g id="edge4" class="edge">
<title>Node3&#45;&gt;Node4</title>
<path fill="none" stroke="#191970" d="M644.5819,-511.4972C729.2934,-503.0583 980,-472.1568 980,-402 980,-402 980,-402 980,-122 980,-72.7548 936.4509,-74.9553 891,-56 843.9329,-36.3707 696.5319,-20.127 627.4315,-13.3712"/>
<polygon fill="#191970" stroke="#191970" points="627.7229,-9.8831 617.433,-12.4066 627.0506,-16.8508 627.7229,-9.8831"/>
</g>
<!-- Node5 -->
<g id="node6" class="node">
<title>Node5</title>
<g id="a_node6"><a xlink:href="mbox_8h.html" target="_top" xlink:title="Mailbox API. ">
<polygon fill="#ffffff" stroke="#000000" points="54,-336.5 54,-355.5 106,-355.5 106,-336.5 54,-336.5"/>
<text text-anchor="middle" x="80" y="-343.5" font-family="Helvetica,sans-Serif" font-size="10.00" fill="#000000">mbox.h</text>
</a>
</g>
</g>
<!-- Node3&#45;&gt;Node5 -->
<g id="edge5" class="edge">
<title>Node3&#45;&gt;Node5</title>
<path fill="none" stroke="#191970" d="M589.1651,-505.9547C586.416,-505.2545 583.6599,-504.5894 581,-504 485.9803,-482.9464 458.4035,-495.3455 365,-468 266.6964,-439.2199 157.0453,-385.8065 107.2464,-360.2905"/>
<polygon fill="#191970" stroke="#191970" points="108.5975,-357.0493 98.1058,-355.5748 105.3881,-363.2702 108.5975,-357.0493"/>
</g>
<!-- Node11 -->
<g id="node12" class="node">
<title>Node11</title>
<g id="a_node12"><a xlink:href="sched_8h.html" target="_top" xlink:title="Scheduler API definition. ">
<polygon fill="#ffffff" stroke="#000000" points="414.5,-224.5 414.5,-243.5 467.5,-243.5 467.5,-224.5 414.5,-224.5"/>
<text text-anchor="middle" x="441" y="-231.5" font-family="Helvetica,sans-Serif" font-size="10.00" fill="#000000">sched.h</text>
</a>
</g>
</g>
<!-- Node3&#45;&gt;Node11 -->
<g id="edge56" class="edge">
<title>Node3&#45;&gt;Node11</title>
<path fill="none" stroke="#191970" d="M613.6063,-504.2503C607.2084,-484.9723 594,-440.5094 594,-402 594,-402 594,-402 594,-346 594,-315.4754 596.0337,-302.121 575,-280 568.0479,-272.6885 514.9637,-255.8536 477.7367,-244.706"/>
<polygon fill="#191970" stroke="#191970" points="478.2916,-241.2197 467.7088,-241.7253 476.2971,-247.9295 478.2916,-241.2197"/>
</g>
<!-- Node21 -->
<g id="node22" class="node">
<title>Node21</title>
<polygon fill="#ffffff" stroke="#bfbfbf" points="1008.5,-448.5 1008.5,-467.5 1053.5,-467.5 1053.5,-448.5 1008.5,-448.5"/>
<text text-anchor="middle" x="1031" y="-455.5" font-family="Helvetica,sans-Serif" font-size="10.00" fill="#000000">msg.h</text>
</g>
<!-- Node3&#45;&gt;Node21 -->
<g id="edge31" class="edge">
<title>Node3&#45;&gt;Node21</title>
<path fill="none" stroke="#191970" d="M644.6469,-511.9848C707.2705,-507.1247 864.567,-493.2537 994,-468 995.4695,-467.7133 996.9664,-467.3997 998.4747,-467.0663"/>
<polygon fill="#191970" stroke="#191970" points="999.5304,-470.4117 1008.4216,-464.65 997.878,-463.6095 999.5304,-470.4117"/>
</g>
<!-- Node22 -->
<g id="node23" class="node">
<title>Node22</title>
<g id="a_node23"><a xlink:href="mutex_8h.html" target="_top" xlink:title="Mutex for thread synchronization. ">
<polygon fill="#ffffff" stroke="#000000" points="622,-392.5 622,-411.5 678,-411.5 678,-392.5 622,-392.5"/>
<text text-anchor="middle" x="650" y="-399.5" font-family="Helvetica,sans-Serif" font-size="10.00" fill="#000000">mutex.h</text>
</a>
</g>
</g>
<!-- Node3&#45;&gt;Node22 -->
<g id="edge32" class="edge">
<title>Node3&#45;&gt;Node22</title>
<path fill="none" stroke="#191970" d="M619.8136,-504.4509C625.2202,-486.1013 637.1563,-445.5908 644.293,-421.3693"/>
<polygon fill="#191970" stroke="#191970" points="647.7245,-422.1064 647.1936,-411.5249 641.0099,-420.128 647.7245,-422.1064"/>
</g>
<!-- Node30 -->
<g id="node31" class="node">
<title>Node30</title>
<g id="a_node31"><a xlink:href="rmutex_8h.html" target="_top" xlink:title="Recursive Mutex for thread synchronization. ">
<polygon fill="#ffffff" stroke="#000000" points="374,-448.5 374,-467.5 434,-467.5 434,-448.5 374,-448.5"/>
<text text-anchor="middle" x="404" y="-455.5" font-family="Helvetica,sans-Serif" font-size="10.00" fill="#000000">rmutex.h</text>
</a>
</g>
</g>
<!-- Node3&#45;&gt;Node30 -->
<g id="edge52" class="edge">
<title>Node3&#45;&gt;Node30</title>
<path fill="none" stroke="#191970" d="M589.4955,-506.309C586.6286,-505.5226 583.7563,-504.7409 581,-504 534.1167,-491.3972 480.0935,-477.4387 444.1855,-468.2401"/>
<polygon fill="#191970" stroke="#191970" points="444.6612,-464.7491 434.1057,-465.6611 442.926,-471.5307 444.6612,-464.7491"/>
</g>
<!-- Node6 -->
<g id="node7" class="node">
<title>Node6</title>
<g id="a_node7"><a xlink:href="list_8h.html" target="_top" xlink:title="Intrusive linked list. ">
<polygon fill="#ffffff" stroke="#000000" points="218,-112.5 218,-131.5 256,-131.5 256,-112.5 218,-112.5"/>
<text text-anchor="middle" x="237" y="-119.5" font-family="Helvetica,sans-Serif" font-size="10.00" fill="#000000">list.h</text>
</a>
</g>
</g>
<!-- Node5&#45;&gt;Node6 -->
<g id="edge6" class="edge">
<title>Node5&#45;&gt;Node6</title>
<path fill="none" stroke="#191970" d="M95.4686,-336.4972C108.2772,-328.071 126.3609,-314.8264 139,-300 182.5539,-248.9087 215.5114,-175.408 229.5571,-141.0525"/>
<polygon fill="#191970" stroke="#191970" points="232.8279,-142.2997 233.2998,-131.7154 226.3304,-139.6953 232.8279,-142.2997"/>
</g>
<!-- Node7 -->
<g id="node8" class="node">
<title>Node7</title>
<g id="a_node8"><a xlink:href="cib_8h.html" target="_top" xlink:title="Circular integer buffer interface. ">
<polygon fill="#ffffff" stroke="#000000" points="28,-280.5 28,-299.5 66,-299.5 66,-280.5 28,-280.5"/>
<text text-anchor="middle" x="47" y="-287.5" font-family="Helvetica,sans-Serif" font-size="10.00" fill="#000000">cib.h</text>
</a>
</g>
</g>
<!-- Node5&#45;&gt;Node7 -->
<g id="edge7" class="edge">
<title>Node5&#45;&gt;Node7</title>
<path fill="none" stroke="#191970" d="M74.2518,-336.2455C69.7565,-328.617 63.3752,-317.7881 57.9175,-308.5267"/>
<polygon fill="#191970" stroke="#191970" points="60.7747,-306.4811 52.6823,-299.6427 54.7439,-310.035 60.7747,-306.4811"/>
</g>
<!-- Node9 -->
<g id="node10" class="node">
<title>Node9</title>
<g id="a_node10"><a xlink:href="core_2include_2msg_8h.html" target="_top" xlink:title="Messaging API for inter process communication. ">
<polygon fill="#ffffff" stroke="#000000" points="84.5,-280.5 84.5,-299.5 129.5,-299.5 129.5,-280.5 84.5,-280.5"/>
<text text-anchor="middle" x="107" y="-287.5" font-family="Helvetica,sans-Serif" font-size="10.00" fill="#000000">msg.h</text>
</a>
</g>
</g>
<!-- Node5&#45;&gt;Node9 -->
<g id="edge10" class="edge">
<title>Node5&#45;&gt;Node9</title>
<path fill="none" stroke="#191970" d="M84.703,-336.2455C88.3424,-328.6973 93.4924,-318.0158 97.9262,-308.8197"/>
<polygon fill="#191970" stroke="#191970" points="101.1605,-310.1704 102.3509,-299.6427 94.8551,-307.1303 101.1605,-310.1704"/>
</g>
<!-- Node8 -->
<g id="node9" class="node">
<title>Node8</title>
<g id="a_node9"><a xlink:href="assert_8h.html" target="_top" xlink:title="POSIX.1&#45;2008 compliant version of the assert macro. ">
<polygon fill="#ffffff" stroke="#000000" points="298,-56.5 298,-75.5 352,-75.5 352,-56.5 298,-56.5"/>
<text text-anchor="middle" x="325" y="-63.5" font-family="Helvetica,sans-Serif" font-size="10.00" fill="#000000">assert.h</text>
</a>
</g>
</g>
<!-- Node7&#45;&gt;Node8 -->
<g id="edge8" class="edge">
<title>Node7&#45;&gt;Node8</title>
<path fill="none" stroke="#191970" d="M48.3931,-280.3277C53.3191,-249.9369 72.8649,-155.7932 131,-112 155.4566,-93.5768 238.7626,-78.6483 287.8988,-71.1829"/>
<polygon fill="#191970" stroke="#191970" points="288.456,-74.6386 297.8318,-69.7046 287.4255,-67.7149 288.456,-74.6386"/>
</g>
<!-- Node8&#45;&gt;Node4 -->
<g id="edge9" class="edge">
<title>Node8&#45;&gt;Node4</title>
<path fill="none" stroke="#191970" d="M352.4648,-60.2179C400.8493,-50.0317 501.2411,-28.8966 555.0658,-17.5651"/>
<polygon fill="#191970" stroke="#191970" points="555.8015,-20.987 564.866,-15.5019 554.3594,-14.1372 555.8015,-20.987"/>
</g>
<!-- Node9&#45;&gt;Node4 -->
<g id="edge11" class="edge">
<title>Node9&#45;&gt;Node4</title>
<path fill="none" stroke="#191970" d="M103.3112,-280.2751C96.357,-261.0407 82,-216.6505 82,-178 82,-178 82,-178 82,-122 82,-73.5769 437.9081,-27.8228 554.5038,-14.133"/>
<polygon fill="#191970" stroke="#191970" points="555.1775,-17.5783 564.7058,-12.9455 554.3681,-10.6252 555.1775,-17.5783"/>
</g>
<!-- Node10 -->
<g id="node11" class="node">
<title>Node10</title>
<polygon fill="#ffffff" stroke="#bfbfbf" points="140,-112.5 140,-131.5 200,-131.5 200,-112.5 140,-112.5"/>
<text text-anchor="middle" x="170" y="-119.5" font-family="Helvetica,sans-Serif" font-size="10.00" fill="#000000">stdbool.h</text>
</g>
<!-- Node9&#45;&gt;Node10 -->
<g id="edge12" class="edge">
<title>Node9&#45;&gt;Node10</title>
<path fill="none" stroke="#191970" d="M109.1814,-280.2546C114.052,-259.2365 126.7545,-208.2879 144,-168 148.0477,-158.5441 153.5373,-148.547 158.4294,-140.2967"/>
<polygon fill="#191970" stroke="#191970" points="161.5461,-141.9088 163.7755,-131.5511 155.5736,-138.2578 161.5461,-141.9088"/>
</g>
<!-- Node9&#45;&gt;Node11 -->
<g id="edge13" class="edge">
<title>Node9&#45;&gt;Node11</title>
<path fill="none" stroke="#191970" d="M129.6946,-286.1949C186.3949,-276.6883 334.6621,-251.8291 404.1113,-240.1849"/>
<polygon fill="#191970" stroke="#191970" points="404.877,-243.6055 414.1606,-238.5 403.7195,-236.7019 404.877,-243.6055"/>
</g>
<!-- Node12 -->
<g id="node13" class="node">
<title>Node12</title>
<polygon fill="#ffffff" stroke="#bfbfbf" points="470,-56.5 470,-75.5 526,-75.5 526,-56.5 470,-56.5"/>
<text text-anchor="middle" x="498" y="-63.5" font-family="Helvetica,sans-Serif" font-size="10.00" fill="#000000">stddef.h</text>
</g>
<!-- Node11&#45;&gt;Node12 -->
<g id="edge14" class="edge">
<title>Node11&#45;&gt;Node12</title>
<path fill="none" stroke="#191970" d="M443.0648,-224.4972C445.9583,-211.5789 451.5895,-187.8137 458,-168 467.5236,-138.5644 481.0922,-105.3587 489.7215,-85.0555"/>
<polygon fill="#191970" stroke="#191970" points="493.0079,-86.2725 493.7363,-75.7027 486.5755,-83.5113 493.0079,-86.2725"/>
</g>
<!-- Node13 -->
<g id="node14" class="node">
<title>Node13</title>
<g id="a_node14"><a xlink:href="inttypes_8h.html" target="_top" xlink:title="Adds include for missing inttype definitions. ">
<polygon fill="#ffffff" stroke="#000000" points="466.5,-168.5 466.5,-187.5 529.5,-187.5 529.5,-168.5 466.5,-168.5"/>
<text text-anchor="middle" x="498" y="-175.5" font-family="Helvetica,sans-Serif" font-size="10.00" fill="#000000">inttypes.h</text>
</a>
</g>
</g>
<!-- Node11&#45;&gt;Node13 -->
<g id="edge15" class="edge">
<title>Node11&#45;&gt;Node13</title>
<path fill="none" stroke="#191970" d="M450.9286,-224.2455C459.1838,-216.1352 471.1209,-204.4075 480.9082,-194.7919"/>
<polygon fill="#191970" stroke="#191970" points="483.5046,-197.1476 488.1851,-187.6427 478.5989,-192.1542 483.5046,-197.1476"/>
</g>
<!-- Node14 -->
<g id="node15" class="node">
<title>Node14</title>
<g id="a_node15"><a xlink:href="kernel__defines_8h.html" target="_top" xlink:title="Common macros and compiler attributes/pragmas configuration. ">
<polygon fill="#ffffff" stroke="#000000" points="586.5,-168.5 586.5,-187.5 681.5,-187.5 681.5,-168.5 586.5,-168.5"/>
<text text-anchor="middle" x="634" y="-175.5" font-family="Helvetica,sans-Serif" font-size="10.00" fill="#000000">kernel_defines.h</text>
</a>
</g>
</g>
<!-- Node11&#45;&gt;Node14 -->
<g id="edge16" class="edge">
<title>Node11&#45;&gt;Node14</title>
<path fill="none" stroke="#191970" d="M467.8358,-226.2134C499.7827,-216.9439 553.5409,-201.3456 591.2377,-190.4077"/>
<polygon fill="#191970" stroke="#191970" points="592.3033,-193.743 600.9318,-187.5949 590.3526,-187.0202 592.3033,-193.743"/>
</g>
<!-- Node19 -->
<g id="node20" class="node">
<title>Node19</title>
<g id="a_node20"><a xlink:href="native__sched_8h.html" target="_top" xlink:title="Add definitions required on the native board. ">
<polygon fill="#ffffff" stroke="#000000" points="324,-168.5 324,-187.5 410,-187.5 410,-168.5 324,-168.5"/>
<text text-anchor="middle" x="367" y="-175.5" font-family="Helvetica,sans-Serif" font-size="10.00" fill="#000000">native_sched.h</text>
</a>
</g>
</g>
<!-- Node11&#45;&gt;Node19 -->
<g id="edge26" class="edge">
<title>Node11&#45;&gt;Node19</title>
<path fill="none" stroke="#191970" d="M428.1102,-224.2455C417.0746,-215.8943 400.9708,-203.7076 388.0647,-193.9408"/>
<polygon fill="#191970" stroke="#191970" points="389.8283,-190.8862 379.7421,-187.6427 385.6041,-196.4681 389.8283,-190.8862"/>
</g>
<!-- Node20 -->
<g id="node21" class="node">
<title>Node20</title>
<g id="a_node21"><a xlink:href="clist_8h.html" target="_top" xlink:title="Circular linked list. ">
<polygon fill="#ffffff" stroke="#000000" points="262.5,-168.5 262.5,-187.5 305.5,-187.5 305.5,-168.5 262.5,-168.5"/>
<text text-anchor="middle" x="284" y="-175.5" font-family="Helvetica,sans-Serif" font-size="10.00" fill="#000000">clist.h</text>
</a>
</g>
</g>
<!-- Node11&#45;&gt;Node20 -->
<g id="edge27" class="edge">
<title>Node11&#45;&gt;Node20</title>
<path fill="none" stroke="#191970" d="M414.3671,-224.5004C386.9765,-214.7305 344.3365,-199.5213 315.3392,-189.1783"/>
<polygon fill="#191970" stroke="#191970" points="316.2934,-185.8027 305.6988,-185.7397 313.9417,-192.3959 316.2934,-185.8027"/>
</g>
<!-- Node15 -->
<g id="node16" class="node">
<title>Node15</title>
<g id="a_node16"><a xlink:href="modules_8h.html" target="_top" xlink:title="Common macros and compiler attributes/pragmas configuration. ">
<polygon fill="#ffffff" stroke="#000000" points="643.5,-112.5 643.5,-131.5 708.5,-131.5 708.5,-112.5 643.5,-112.5"/>
<text text-anchor="middle" x="676" y="-119.5" font-family="Helvetica,sans-Serif" font-size="10.00" fill="#000000">modules.h</text>
</a>
</g>
</g>
<!-- Node14&#45;&gt;Node15 -->
<g id="edge17" class="edge">
<title>Node14&#45;&gt;Node15</title>
<path fill="none" stroke="#191970" d="M641.3158,-168.2455C647.2179,-160.3761 655.6742,-149.101 662.7594,-139.6542"/>
<polygon fill="#191970" stroke="#191970" points="665.568,-141.7427 668.768,-131.6427 659.9679,-137.5427 665.568,-141.7427"/>
</g>
<!-- Node16 -->
<g id="node17" class="node">
<title>Node16</title>
<g id="a_node17"><a xlink:href="riot__version_8h.html" target="_top" xlink:title="Common macros and compiler attributes/pragmas configuration. ">
<polygon fill="#ffffff" stroke="#000000" points="658.5,-56.5 658.5,-75.5 739.5,-75.5 739.5,-56.5 658.5,-56.5"/>
<text text-anchor="middle" x="699" y="-63.5" font-family="Helvetica,sans-Serif" font-size="10.00" fill="#000000">riot_version.h</text>
</a>
</g>
</g>
<!-- Node14&#45;&gt;Node16 -->
<g id="edge18" class="edge">
<title>Node14&#45;&gt;Node16</title>
<path fill="none" stroke="#191970" d="M668.7227,-168.4044C686.8051,-161.4487 707.3209,-150.0236 718,-132 726.7904,-117.164 719.5847,-98.0265 711.651,-84.1827"/>
<polygon fill="#191970" stroke="#191970" points="714.5162,-82.1642 706.2298,-75.5622 708.5906,-85.8907 714.5162,-82.1642"/>
</g>
<!-- Node17 -->
<g id="node18" class="node">
<title>Node17</title>
<g id="a_node18"><a xlink:href="compiler__hints_8h.html" target="_top" xlink:title="Common macros and compiler attributes/pragmas configuration. ">
<polygon fill="#ffffff" stroke="#000000" points="278.5,-112.5 278.5,-131.5 371.5,-131.5 371.5,-112.5 278.5,-112.5"/>
<text text-anchor="middle" x="325" y="-119.5" font-family="Helvetica,sans-Serif" font-size="10.00" fill="#000000">compiler_hints.h</text>
</a>
</g>
</g>
<!-- Node14&#45;&gt;Node17 -->
<g id="edge20" class="edge">
<title>Node14&#45;&gt;Node17</title>
<path fill="none" stroke="#191970" d="M586.3959,-169.3727C531.1846,-159.3668 440.251,-142.8869 381.5053,-132.2404"/>
<polygon fill="#191970" stroke="#191970" points="382.1099,-128.7931 371.646,-130.4536 380.8616,-135.6809 382.1099,-128.7931"/>
</g>
<!-- Node18 -->
<g id="node19" class="node">
<title>Node18</title>
<g id="a_node19"><a xlink:href="container_8h.html" target="_top" xlink:title="Common macros and compiler attributes/pragmas configuration. ">
<polygon fill="#ffffff" stroke="#000000" points="556.5,-112.5 556.5,-131.5 625.5,-131.5 625.5,-112.5 556.5,-112.5"/>
<text text-anchor="middle" x="591" y="-119.5" font-family="Helvetica,sans-Serif" font-size="10.00" fill="#000000">container.h</text>
</a>
</g>
</g>
<!-- Node14&#45;&gt;Node18 -->
<g id="edge23" class="edge">
<title>Node14&#45;&gt;Node18</title>
<path fill="none" stroke="#191970" d="M626.51,-168.2455C620.4674,-160.3761 611.8097,-149.101 604.5559,-139.6542"/>
<polygon fill="#191970" stroke="#191970" points="607.2705,-137.4426 598.4042,-131.6427 601.7185,-141.7058 607.2705,-137.4426"/>
</g>
<!-- Node16&#45;&gt;Node4 -->
<g id="edge19" class="edge">
<title>Node16&#45;&gt;Node4</title>
<path fill="none" stroke="#191970" d="M680.1878,-56.2455C663.1527,-47.4125 637.8425,-34.2887 618.5319,-24.2758"/>
<polygon fill="#191970" stroke="#191970" points="620.0853,-21.1388 609.5966,-19.6427 616.863,-27.353 620.0853,-21.1388"/>
</g>
<!-- Node17&#45;&gt;Node4 -->
<g id="edge22" class="edge">
<title>Node17&#45;&gt;Node4</title>
<path fill="none" stroke="#191970" d="M343.1791,-112.3704C368.9849,-98.8878 417.8991,-74.0176 461,-56 492.3379,-42.8997 528.8687,-30.1915 555.2116,-21.4643"/>
<polygon fill="#191970" stroke="#191970" points="556.3688,-24.7683 564.7768,-18.3219 554.184,-18.1179 556.3688,-24.7683"/>
</g>
<!-- Node17&#45;&gt;Node8 -->
<g id="edge21" class="edge">
<title>Node17&#45;&gt;Node8</title>
<path fill="none" stroke="#191970" d="M325,-112.2455C325,-104.9382 325,-94.6944 325,-85.7046"/>
<polygon fill="#191970" stroke="#191970" points="328.5001,-85.6426 325,-75.6427 321.5001,-85.6427 328.5001,-85.6426"/>
</g>
<!-- Node18&#45;&gt;Node4 -->
<g id="edge25" class="edge">
<title>Node18&#45;&gt;Node4</title>
<path fill="none" stroke="#191970" d="M591,-112.4509C591,-94.184 591,-53.9553 591,-29.6976"/>
<polygon fill="#191970" stroke="#191970" points="594.5001,-29.5249 591,-19.5249 587.5001,-29.5249 594.5001,-29.5249"/>
</g>
<!-- Node18&#45;&gt;Node12 -->
<g id="edge24" class="edge">
<title>Node18&#45;&gt;Node12</title>
<path fill="none" stroke="#191970" d="M574.8006,-112.2455C560.3982,-103.5731 539.1268,-90.7645 522.6201,-80.825"/>
<polygon fill="#191970" stroke="#191970" points="524.386,-77.8028 514.0137,-75.6427 520.775,-83.7996 524.386,-77.8028"/>
</g>
<!-- Node20&#45;&gt;Node6 -->
<g id="edge30" class="edge">
<title>Node20&#45;&gt;Node6</title>
<path fill="none" stroke="#191970" d="M275.8132,-168.2455C269.1411,-160.2958 259.5521,-148.8706 251.5747,-139.3656"/>
<polygon fill="#191970" stroke="#191970" points="254.2026,-137.0524 245.093,-131.6427 248.8408,-141.5525 254.2026,-137.0524"/>
</g>
<!-- Node20&#45;&gt;Node10 -->
<g id="edge28" class="edge">
<title>Node20&#45;&gt;Node10</title>
<path fill="none" stroke="#191970" d="M264.4027,-168.3733C246.2669,-159.4644 219.0865,-146.1127 198.5413,-136.0203"/>
<polygon fill="#191970" stroke="#191970" points="199.8603,-132.7688 189.3416,-131.5011 196.7739,-139.0517 199.8603,-132.7688"/>
</g>
<!-- Node20&#45;&gt;Node12 -->
<g id="edge29" class="edge">
<title>Node20&#45;&gt;Node12</title>
<path fill="none" stroke="#191970" d="M305.4052,-168.3774C325.2026,-159.3534 355.352,-145.2944 381,-132 413.3536,-115.2299 449.8013,-94.3427 473.2914,-80.6125"/>
<polygon fill="#191970" stroke="#191970" points="475.067,-83.6287 481.921,-75.5494 471.5247,-77.5911 475.067,-83.6287"/>
</g>
<!-- Node22&#45;&gt;Node4 -->
<g id="edge34" class="edge">
<title>Node22&#45;&gt;Node4</title>
<path fill="none" stroke="#191970" d="M678.2635,-397.3913C751.5443,-384.6477 942,-346.1281 942,-290 942,-290 942,-290 942,-122 942,-56.3953 716.6395,-24.0164 627.0731,-13.7385"/>
<polygon fill="#191970" stroke="#191970" points="627.4228,-10.2559 617.0953,-12.621 626.6435,-17.2124 627.4228,-10.2559"/>
</g>
<!-- Node22&#45;&gt;Node6 -->
<g id="edge42" class="edge">
<title>Node22&#45;&gt;Node6</title>
<path fill="none" stroke="#191970" d="M621.6119,-400.9915C554.1862,-398.0951 386.7177,-387.8077 342,-356 268.5895,-303.7832 245.6312,-187.9483 239.2308,-141.6646"/>
<polygon fill="#191970" stroke="#191970" points="242.6985,-141.1884 237.9663,-131.7092 235.7543,-142.0705 242.6985,-141.1884"/>
</g>
<!-- Node22&#45;&gt;Node10 -->
<g id="edge35" class="edge">
<title>Node22&#45;&gt;Node10</title>
<path fill="none" stroke="#191970" d="M621.9429,-401.1399C522.9607,-397.3564 196,-378.1844 196,-290 196,-290 196,-290 196,-234 196,-200.7204 184.9729,-163.2857 177.2813,-141.2224"/>
<polygon fill="#191970" stroke="#191970" points="180.5329,-139.9219 173.8364,-131.7117 173.9513,-142.3059 180.5329,-139.9219"/>
</g>
<!-- Node22&#45;&gt;Node12 -->
<g id="edge33" class="edge">
<title>Node22&#45;&gt;Node12</title>
<path fill="none" stroke="#191970" d="M645.5867,-392.1924C636.26,-371.4699 613.8532,-321.7065 595,-280 562.44,-207.9717 523.5935,-122.3693 506.6342,-85.014"/>
<polygon fill="#191970" stroke="#191970" points="509.7757,-83.4671 502.4546,-75.8087 503.402,-86.3611 509.7757,-83.4671"/>
</g>
<!-- Node22&#45;&gt;Node14 -->
<g id="edge41" class="edge">
<title>Node22&#45;&gt;Node14</title>
<path fill="none" stroke="#191970" d="M649.9609,-392.494C649.8164,-371.9409 649.1416,-321.8423 646,-280 643.8373,-251.1957 639.6063,-218.0008 636.7908,-197.5068"/>
<polygon fill="#191970" stroke="#191970" points="640.2477,-196.9544 635.3944,-187.5366 633.3154,-197.9254 640.2477,-196.9544"/>
</g>
<!-- Node23 -->
<g id="node24" class="node">
<title>Node23</title>
<g id="a_node24"><a xlink:href="architecture_8h.html" target="_top" xlink:title="Platform&#45;independent access to architecture details. ">
<polygon fill="#ffffff" stroke="#000000" points="698.5,-224.5 698.5,-243.5 781.5,-243.5 781.5,-224.5 698.5,-224.5"/>
<text text-anchor="middle" x="740" y="-231.5" font-family="Helvetica,sans-Serif" font-size="10.00" fill="#000000">architecture.h</text>
</a>
</g>
</g>
<!-- Node22&#45;&gt;Node23 -->
<g id="edge36" class="edge">
<title>Node22&#45;&gt;Node23</title>
<path fill="none" stroke="#191970" d="M658.188,-392.1832C665.4994,-383.1402 676.2236,-369.1688 684,-356 704.5421,-321.2133 722.9415,-277.5983 732.681,-253.0613"/>
<polygon fill="#191970" stroke="#191970" points="736.0329,-254.1 736.4149,-243.512 729.5136,-251.5508 736.0329,-254.1"/>
</g>
<!-- Node26 -->
<g id="node27" class="node">
<title>Node26</title>
<g id="a_node27"><a xlink:href="core_2include_2thread_8h.html" target="_top" xlink:title="Threading API. ">
<polygon fill="#ffffff" stroke="#000000" points="350.5,-336.5 350.5,-355.5 407.5,-355.5 407.5,-336.5 350.5,-336.5"/>
<text text-anchor="middle" x="379" y="-343.5" font-family="Helvetica,sans-Serif" font-size="10.00" fill="#000000">thread.h</text>
</a>
</g>
</g>
<!-- Node22&#45;&gt;Node26 -->
<g id="edge43" class="edge">
<title>Node22&#45;&gt;Node26</title>
<path fill="none" stroke="#191970" d="M621.7652,-396.1655C572.9871,-386.0859 472.874,-365.3983 417.6675,-353.9903"/>
<polygon fill="#191970" stroke="#191970" points="418.0802,-350.5017 407.5788,-351.9056 416.6636,-357.3569 418.0802,-350.5017"/>
</g>
<!-- Node23&#45;&gt;Node4 -->
<g id="edge37" class="edge">
<title>Node23&#45;&gt;Node4</title>
<path fill="none" stroke="#191970" d="M781.852,-231.3759C831.5984,-226.2867 905.4806,-211.3979 885,-168 837.3467,-67.0235 694.8626,-28.5409 627.3045,-15.6829"/>
<polygon fill="#191970" stroke="#191970" points="627.5959,-12.1786 617.1311,-13.8337 626.3439,-19.0658 627.5959,-12.1786"/>
</g>
<!-- Node23&#45;&gt;Node13 -->
<g id="edge38" class="edge">
<title>Node23&#45;&gt;Node13</title>
<path fill="none" stroke="#191970" d="M698.6737,-224.4369C654.2133,-214.1485 583.9177,-197.8818 539.4208,-187.585"/>
<polygon fill="#191970" stroke="#191970" points="540.0482,-184.1377 529.5165,-185.2931 538.47,-190.9575 540.0482,-184.1377"/>
</g>
<!-- Node24 -->
<g id="node25" class="node">
<title>Node24</title>
<polygon fill="#ffffff" stroke="#bfbfbf" points="700,-168.5 700,-187.5 750,-187.5 750,-168.5 700,-168.5"/>
<text text-anchor="middle" x="725" y="-175.5" font-family="Helvetica,sans-Serif" font-size="10.00" fill="#000000">limits.h</text>
</g>
<!-- Node23&#45;&gt;Node24 -->
<g id="edge39" class="edge">
<title>Node23&#45;&gt;Node24</title>
<path fill="none" stroke="#191970" d="M737.3872,-224.2455C735.4084,-216.8579 732.6256,-206.4689 730.1988,-197.4087"/>
<polygon fill="#191970" stroke="#191970" points="733.5511,-196.3966 727.5829,-187.6427 726.7895,-198.2078 733.5511,-196.3966"/>
</g>
<!-- Node25 -->
<g id="node26" class="node">
<title>Node25</title>
<polygon fill="#ffffff" stroke="#bfbfbf" points="768.5,-168.5 768.5,-187.5 875.5,-187.5 875.5,-168.5 768.5,-168.5"/>
<text text-anchor="middle" x="822" y="-175.5" font-family="Helvetica,sans-Serif" font-size="10.00" fill="#000000">architecture_arch.h</text>
</g>
<!-- Node23&#45;&gt;Node25 -->
<g id="edge40" class="edge">
<title>Node23&#45;&gt;Node25</title>
<path fill="none" stroke="#191970" d="M754.2833,-224.2455C766.747,-215.7337 785.0451,-203.2375 799.4792,-193.3801"/>
<polygon fill="#191970" stroke="#191970" points="801.5962,-196.1726 807.8804,-187.6427 797.6485,-190.392 801.5962,-196.1726"/>
</g>
<!-- Node26&#45;&gt;Node7 -->
<g id="edge45" class="edge">
<title>Node26&#45;&gt;Node7</title>
<path fill="none" stroke="#191970" d="M350.2555,-343.3909C296.0355,-338.0841 175.1961,-324.4182 76,-300 75.8998,-299.9753 75.7995,-299.9505 75.699,-299.9254"/>
<polygon fill="#191970" stroke="#191970" points="76.7766,-296.5938 66.1972,-297.1647 74.8236,-303.3159 76.7766,-296.5938"/>
</g>
<!-- Node26&#45;&gt;Node9 -->
<g id="edge46" class="edge">
<title>Node26&#45;&gt;Node9</title>
<path fill="none" stroke="#191970" d="M350.4053,-340.1129C299.5124,-329.6349 193.5266,-307.8143 139.7756,-296.7479"/>
<polygon fill="#191970" stroke="#191970" points="140.2541,-293.2731 129.7537,-294.6846 138.8424,-300.1293 140.2541,-293.2731"/>
</g>
<!-- Node26&#45;&gt;Node11 -->
<g id="edge47" class="edge">
<title>Node26&#45;&gt;Node11</title>
<path fill="none" stroke="#191970" d="M394.1594,-336.1748C405.5972,-327.925 420.6917,-315.0845 429,-300 436.8135,-285.814 439.6792,-267.5647 440.6668,-253.8526"/>
<polygon fill="#191970" stroke="#191970" points="444.1754,-253.7358 441.1222,-243.5904 437.1823,-253.4254 444.1754,-253.7358"/>
</g>
<!-- Node26&#45;&gt;Node20 -->
<g id="edge44" class="edge">
<title>Node26&#45;&gt;Node20</title>
<path fill="none" stroke="#191970" d="M365.4464,-336.432C354.3205,-327.9661 338.8467,-314.6998 329,-300 307.1112,-267.323 294.1737,-222.6194 288.1416,-197.3923"/>
<polygon fill="#191970" stroke="#191970" points="291.5396,-196.5503 285.9107,-187.5745 284.7136,-198.1015 291.5396,-196.5503"/>
</g>
<!-- Node27 -->
<g id="node28" class="node">
<title>Node27</title>
<g id="a_node28"><a xlink:href="thread__config_8h.html" target="_top" xlink:title="Thread configuration defines. ">
<polygon fill="#ffffff" stroke="#000000" points="476,-280.5 476,-299.5 566,-299.5 566,-280.5 476,-280.5"/>
<text text-anchor="middle" x="521" y="-287.5" font-family="Helvetica,sans-Serif" font-size="10.00" fill="#000000">thread_config.h</text>
</a>
</g>
</g>
<!-- Node26&#45;&gt;Node27 -->
<g id="edge48" class="edge">
<title>Node26&#45;&gt;Node27</title>
<path fill="none" stroke="#191970" d="M403.4107,-336.3733C426.6142,-327.2226 461.7038,-313.3844 487.5142,-303.2057"/>
<polygon fill="#191970" stroke="#191970" points="488.8892,-306.4258 496.9079,-299.5011 486.3211,-299.9139 488.8892,-306.4258"/>
</g>
<!-- Node29 -->
<g id="node30" class="node">
<title>Node29</title>
<polygon fill="#ffffff" stroke="#bfbfbf" points="338,-280.5 338,-299.5 420,-299.5 420,-280.5 338,-280.5"/>
<text text-anchor="middle" x="379" y="-287.5" font-family="Helvetica,sans-Serif" font-size="10.00" fill="#000000">thread_arch.h</text>
</g>
<!-- Node26&#45;&gt;Node29 -->
<g id="edge51" class="edge">
<title>Node26&#45;&gt;Node29</title>
<path fill="none" stroke="#191970" d="M379,-336.2455C379,-328.9382 379,-318.6944 379,-309.7046"/>
<polygon fill="#191970" stroke="#191970" points="382.5001,-309.6426 379,-299.6427 375.5001,-309.6427 382.5001,-309.6426"/>
</g>
<!-- Node27&#45;&gt;Node11 -->
<g id="edge50" class="edge">
<title>Node27&#45;&gt;Node11</title>
<path fill="none" stroke="#191970" d="M507.0651,-280.2455C494.9053,-271.7337 477.0536,-259.2375 462.9715,-249.3801"/>
<polygon fill="#191970" stroke="#191970" points="464.9747,-246.51 454.7752,-243.6427 460.9605,-252.2447 464.9747,-246.51"/>
</g>
<!-- Node28 -->
<g id="node29" class="node">
<title>Node28</title>
<polygon fill="#ffffff" stroke="#bfbfbf" points="487.5,-224.5 487.5,-243.5 554.5,-243.5 554.5,-224.5 487.5,-224.5"/>
<text text-anchor="middle" x="521" y="-231.5" font-family="Helvetica,sans-Serif" font-size="10.00" fill="#000000">cpu_conf.h</text>
</g>
<!-- Node27&#45;&gt;Node28 -->
<g id="edge49" class="edge">
<title>Node27&#45;&gt;Node28</title>
<path fill="none" stroke="#191970" d="M521,-280.2455C521,-272.9382 521,-262.6944 521,-253.7046"/>
<polygon fill="#191970" stroke="#191970" points="524.5001,-253.6426 521,-243.6427 517.5001,-253.6427 524.5001,-253.6426"/>
</g>
<!-- Node30&#45;&gt;Node4 -->
<g id="edge53" class="edge">
<title>Node30&#45;&gt;Node4</title>
<path fill="none" stroke="#191970" d="M373.9644,-456.1658C280.3364,-449.6363 0,-423.6062 0,-346 0,-346 0,-346 0,-122 0,-38.8746 94.1669,-75.3866 175,-56 312.7237,-22.9691 481.8833,-13.5701 554.7703,-10.9654"/>
<polygon fill="#191970" stroke="#191970" points="554.9335,-14.4619 564.8104,-10.6283 554.6986,-7.4659 554.9335,-14.4619"/>
</g>
<!-- Node30&#45;&gt;Node11 -->
<g id="edge55" class="edge">
<title>Node30&#45;&gt;Node11</title>
<path fill="none" stroke="#191970" d="M393.8074,-448.4898C365.3768,-420.7999 289.7886,-338.4945 329,-280 345.7393,-255.0288 378.7303,-243.6018 404.5905,-238.3793"/>
<polygon fill="#191970" stroke="#191970" points="405.2318,-241.8202 414.4572,-236.6104 403.9965,-234.9301 405.2318,-241.8202"/>
</g>
<!-- Node30&#45;&gt;Node22 -->
<g id="edge54" class="edge">
<title>Node30&#45;&gt;Node22</title>
<path fill="none" stroke="#191970" d="M434.1644,-451.1333C478.9618,-440.9355 563.0379,-421.7962 611.9856,-410.6537"/>
<polygon fill="#191970" stroke="#191970" points="612.8969,-414.0359 621.8706,-408.4034 611.3431,-407.2105 612.8969,-414.0359"/>
</g>
</g>
</svg>
