<?xml version="1.0" encoding="UTF-8" standalone="no"?>
<!DOCTYPE svg PUBLIC "-//W3C//DTD SVG 1.1//EN"
 "http://www.w3.org/Graphics/SVG/1.1/DTD/svg11.dtd">
<!-- Generated by graphviz version 2.40.1 (0)
 -->
<!-- Title: sys/include/net/gnrc/sixlowpan/config.h Pages: 1 -->
<svg width="656pt" height="441pt"
 viewBox="0.00 0.00 656.00 441.00" xmlns="http://www.w3.org/2000/svg" xmlns:xlink="http://www.w3.org/1999/xlink">
<g id="graph0" class="graph" transform="scale(1 1) rotate(0) translate(4 437)">
<title>sys/include/net/gnrc/sixlowpan/config.h</title>
<polygon fill="#ffffff" stroke="transparent" points="-4,4 -4,-437 652,-437 652,4 -4,4"/>
<!-- Node6 -->
<g id="node1" class="node">
<title>Node6</title>
<polygon fill="#bfbfbf" stroke="#000000" points="322,-402.5 322,-432.5 434,-432.5 434,-402.5 322,-402.5"/>
<text text-anchor="start" x="330" y="-420.5" font-family="Helvetica,sans-Serif" font-size="10.00" fill="#000000">sys/include/net/gnrc</text>
<text text-anchor="middle" x="378" y="-409.5" font-family="Helvetica,sans-Serif" font-size="10.00" fill="#000000">/sixlowpan/config.h</text>
</g>
<!-- Node7 -->
<g id="node2" class="node">
<title>Node7</title>
<g id="a_node2"><a xlink:href="rb_8h.html" target="_top" xlink:title="Reassembly buffer definitions. ">
<polygon fill="#ffffff" stroke="#000000" points="200,-335.5 200,-365.5 312,-365.5 312,-335.5 200,-335.5"/>
<text text-anchor="start" x="208" y="-353.5" font-family="Helvetica,sans-Serif" font-size="10.00" fill="#000000">sys/include/net/gnrc</text>
<text text-anchor="middle" x="256" y="-342.5" font-family="Helvetica,sans-Serif" font-size="10.00" fill="#000000">/sixlowpan/frag/rb.h</text>
</a>
</g>
</g>
<!-- Node6&#45;&gt;Node7 -->
<g id="edge1" class="edge">
<title>Node6&#45;&gt;Node7</title>
<path fill="none" stroke="#191970" d="M341.8282,-397.6352C323.2312,-387.422 300.9219,-375.1702 283.7099,-365.7177"/>
<polygon fill="#191970" stroke="#191970" points="340.1708,-400.718 350.6208,-402.4639 343.5404,-394.5823 340.1708,-400.718"/>
</g>
<!-- Node8 -->
<g id="node3" class="node">
<title>Node8</title>
<g id="a_node3"><a xlink:href="vrb_8h.html" target="_top" xlink:title="Virtual reassembly buffer definitions. ">
<polygon fill="#ffffff" stroke="#000000" points="214.5,-268.5 214.5,-298.5 331.5,-298.5 331.5,-268.5 214.5,-268.5"/>
<text text-anchor="start" x="222.5" y="-286.5" font-family="Helvetica,sans-Serif" font-size="10.00" fill="#000000">sys/include/net/gnrc</text>
<text text-anchor="middle" x="273" y="-275.5" font-family="Helvetica,sans-Serif" font-size="10.00" fill="#000000">/sixlowpan/frag/vrb.h</text>
</a>
</g>
</g>
<!-- Node6&#45;&gt;Node8 -->
<g id="edge14" class="edge">
<title>Node6&#45;&gt;Node8</title>
<path fill="none" stroke="#191970" d="M362.9205,-393.7542C351.9052,-376.9045 336.2832,-353.9995 321,-335 310.7346,-322.2384 298.0644,-308.7263 288.3196,-298.7459"/>
<polygon fill="#191970" stroke="#191970" points="360.1631,-395.9354 368.5348,-402.4289 366.0397,-392.132 360.1631,-395.9354"/>
</g>
<!-- Node10 -->
<g id="node5" class="node">
<title>Node10</title>
<g id="a_node5"><a xlink:href="gnrc_2sixlowpan_2frag_2sfr_8h.html" target="_top" xlink:title="6LoWPAN selective fragment recovery definitions for GNRC ">
<polygon fill="#ffffff" stroke="#000000" points="321.5,-201.5 321.5,-231.5 434.5,-231.5 434.5,-201.5 321.5,-201.5"/>
<text text-anchor="start" x="329.5" y="-219.5" font-family="Helvetica,sans-Serif" font-size="10.00" fill="#000000">sys/include/net/gnrc</text>
<text text-anchor="middle" x="378" y="-208.5" font-family="Helvetica,sans-Serif" font-size="10.00" fill="#000000">/sixlowpan/frag/sfr.h</text>
</a>
</g>
</g>
<!-- Node6&#45;&gt;Node10 -->
<g id="edge13" class="edge">
<title>Node6&#45;&gt;Node10</title>
<path fill="none" stroke="#191970" d="M378,-392.348C378,-350.0061 378,-265.7637 378,-231.5088"/>
<polygon fill="#191970" stroke="#191970" points="374.5001,-392.3923 378,-402.3923 381.5001,-392.3924 374.5001,-392.3923"/>
</g>
<!-- Node17 -->
<g id="node12" class="node">
<title>Node17</title>
<g id="a_node12"><a xlink:href="gnrc_2sixlowpan_2nd_8h.html" target="_top" xlink:title="General 6LoWPAN ND definitions. ">
<polygon fill="#ffffff" stroke="#000000" points="406,-335.5 406,-365.5 518,-365.5 518,-335.5 406,-335.5"/>
<text text-anchor="start" x="414" y="-353.5" font-family="Helvetica,sans-Serif" font-size="10.00" fill="#000000">sys/include/net/gnrc</text>
<text text-anchor="middle" x="462" y="-342.5" font-family="Helvetica,sans-Serif" font-size="10.00" fill="#000000">/sixlowpan/nd.h</text>
</a>
</g>
</g>
<!-- Node6&#45;&gt;Node17 -->
<g id="edge15" class="edge">
<title>Node6&#45;&gt;Node17</title>
<path fill="none" stroke="#191970" d="M405.23,-395.7808C417.5699,-385.9383 431.8591,-374.541 443.0145,-365.6432"/>
<polygon fill="#191970" stroke="#191970" points="402.6962,-393.3248 397.0609,-402.2967 407.0612,-398.7973 402.6962,-393.3248"/>
</g>
<!-- Node18 -->
<g id="node13" class="node">
<title>Node18</title>
<g id="a_node13"><a xlink:href="gnrc_2sixlowpan_8h.html" target="_top" xlink:title="Definitions for 6LoWPAN. ">
<polygon fill="#ffffff" stroke="#000000" points="536,-335.5 536,-365.5 648,-365.5 648,-335.5 536,-335.5"/>
<text text-anchor="start" x="544" y="-353.5" font-family="Helvetica,sans-Serif" font-size="10.00" fill="#000000">sys/include/net/gnrc</text>
<text text-anchor="middle" x="592" y="-342.5" font-family="Helvetica,sans-Serif" font-size="10.00" fill="#000000">/sixlowpan.h</text>
</a>
</g>
</g>
<!-- Node6&#45;&gt;Node18 -->
<g id="edge16" class="edge">
<title>Node6&#45;&gt;Node18</title>
<path fill="none" stroke="#191970" d="M435.7726,-399.4123C469.5734,-388.8298 511.7548,-375.6235 543.7648,-365.6017"/>
<polygon fill="#191970" stroke="#191970" points="434.5232,-396.1359 426.0258,-402.4639 436.6148,-402.8161 434.5232,-396.1359"/>
</g>
<!-- Node7&#45;&gt;Node8 -->
<g id="edge2" class="edge">
<title>Node7&#45;&gt;Node8</title>
<path fill="none" stroke="#191970" d="M262.3895,-325.3179C264.6671,-316.3414 267.1606,-306.5143 269.1577,-298.6432"/>
<polygon fill="#191970" stroke="#191970" points="258.9245,-324.743 259.8576,-335.2967 265.7095,-326.4646 258.9245,-324.743"/>
</g>
<!-- Node9 -->
<g id="node4" class="node">
<title>Node9</title>
<g id="a_node4"><a xlink:href="minfwd_8h.html" target="_top" xlink:title="Minimal fragment forwarding definitions. ">
<polygon fill="#ffffff" stroke="#000000" points="167,-201.5 167,-231.5 303,-231.5 303,-201.5 167,-201.5"/>
<text text-anchor="start" x="175" y="-219.5" font-family="Helvetica,sans-Serif" font-size="10.00" fill="#000000">sys/include/net/gnrc</text>
<text text-anchor="middle" x="235" y="-208.5" font-family="Helvetica,sans-Serif" font-size="10.00" fill="#000000">/sixlowpan/frag/minfwd.h</text>
</a>
</g>
</g>
<!-- Node8&#45;&gt;Node9 -->
<g id="edge3" class="edge">
<title>Node8&#45;&gt;Node9</title>
<path fill="none" stroke="#191970" d="M259.3788,-259.4837C254.1132,-250.1996 248.247,-239.8565 243.5887,-231.6432"/>
<polygon fill="#191970" stroke="#191970" points="256.3993,-261.325 264.3772,-268.2967 262.4882,-257.8716 256.3993,-261.325"/>
</g>
<!-- Node8&#45;&gt;Node10 -->
<g id="edge4" class="edge">
<title>Node8&#45;&gt;Node10</title>
<path fill="none" stroke="#191970" d="M305.0076,-263.0761C320.8339,-252.9774 339.6071,-240.9983 354.1513,-231.7177"/>
<polygon fill="#191970" stroke="#191970" points="303.1113,-260.1342 296.564,-268.4639 306.8768,-266.0352 303.1113,-260.1342"/>
</g>
<!-- Node11 -->
<g id="node6" class="node">
<title>Node11</title>
<g id="a_node6"><a xlink:href="net_2gnrc_2sixlowpan_2frag_2sfr_2congure_8h.html" target="_top" xlink:title="Congure definitions for 6LoWPAN selective fragment recovery. ">
<polygon fill="#ffffff" stroke="#000000" points="232.5,-134.5 232.5,-164.5 389.5,-164.5 389.5,-134.5 232.5,-134.5"/>
<text text-anchor="start" x="240.5" y="-152.5" font-family="Helvetica,sans-Serif" font-size="10.00" fill="#000000">sys/include/net/gnrc</text>
<text text-anchor="middle" x="311" y="-141.5" font-family="Helvetica,sans-Serif" font-size="10.00" fill="#000000">/sixlowpan/frag/sfr/congure.h</text>
</a>
</g>
</g>
<!-- Node10&#45;&gt;Node11 -->
<g id="edge5" class="edge">
<title>Node10&#45;&gt;Node11</title>
<path fill="none" stroke="#191970" d="M355.7113,-194.2113C346.0009,-184.5009 334.8698,-173.3698 326.1432,-164.6432"/>
<polygon fill="#191970" stroke="#191970" points="353.2507,-196.7004 362.7967,-201.2967 358.2004,-191.7507 353.2507,-196.7004"/>
</g>
<!-- Node11&#45;&gt;Node11 -->
<g id="edge10" class="edge">
<title>Node11&#45;&gt;Node11</title>
<path fill="none" stroke="#191970" d="M399.6965,-157.7894C404.5893,-155.7728 407.5,-153.0097 407.5,-149.5 407.5,-144.0215 400.4076,-140.362 389.7551,-138.5216"/>
<polygon fill="#191970" stroke="#191970" points="398.4943,-154.4887 389.7551,-160.4784 400.3221,-161.2459 398.4943,-154.4887"/>
</g>
<!-- Node12 -->
<g id="node7" class="node">
<title>Node12</title>
<g id="a_node7"><a xlink:href="congure_2mock_8h.html" target="_top" xlink:title="sys/include/congure\l/mock.h">
<polygon fill="#ffffff" stroke="#000000" points="0,-67.5 0,-97.5 110,-97.5 110,-67.5 0,-67.5"/>
<text text-anchor="start" x="8" y="-85.5" font-family="Helvetica,sans-Serif" font-size="10.00" fill="#000000">sys/include/congure</text>
<text text-anchor="middle" x="55" y="-74.5" font-family="Helvetica,sans-Serif" font-size="10.00" fill="#000000">/mock.h</text>
</a>
</g>
</g>
<!-- Node11&#45;&gt;Node12 -->
<g id="edge6" class="edge">
<title>Node11&#45;&gt;Node12</title>
<path fill="none" stroke="#191970" d="M243.7558,-131.9009C202.0884,-120.9958 149.2373,-107.1637 110.0646,-96.9114"/>
<polygon fill="#191970" stroke="#191970" points="242.9882,-135.3179 253.5486,-134.4639 244.7606,-128.546 242.9882,-135.3179"/>
</g>
<!-- Node13 -->
<g id="node8" class="node">
<title>Node13</title>
<g id="a_node8"><a xlink:href="quic_8h.html" target="_top" xlink:title="sys/include/congure\l/quic.h">
<polygon fill="#ffffff" stroke="#000000" points="128,-67.5 128,-97.5 238,-97.5 238,-67.5 128,-67.5"/>
<text text-anchor="start" x="136" y="-85.5" font-family="Helvetica,sans-Serif" font-size="10.00" fill="#000000">sys/include/congure</text>
<text text-anchor="middle" x="183" y="-74.5" font-family="Helvetica,sans-Serif" font-size="10.00" fill="#000000">/quic.h</text>
</a>
</g>
</g>
<!-- Node11&#45;&gt;Node13 -->
<g id="edge7" class="edge">
<title>Node11&#45;&gt;Node13</title>
<path fill="none" stroke="#191970" d="M273.3151,-129.7743C253.7505,-119.5335 230.2132,-107.2132 212.0727,-97.7177"/>
<polygon fill="#191970" stroke="#191970" points="271.7915,-132.9272 282.2743,-134.4639 275.0378,-126.7255 271.7915,-132.9272"/>
</g>
<!-- Node14 -->
<g id="node9" class="node">
<title>Node14</title>
<g id="a_node9"><a xlink:href="reno_8h.html" target="_top" xlink:title="sys/include/congure\l/reno.h">
<polygon fill="#ffffff" stroke="#000000" points="256,-67.5 256,-97.5 366,-97.5 366,-67.5 256,-67.5"/>
<text text-anchor="start" x="264" y="-85.5" font-family="Helvetica,sans-Serif" font-size="10.00" fill="#000000">sys/include/congure</text>
<text text-anchor="middle" x="311" y="-74.5" font-family="Helvetica,sans-Serif" font-size="10.00" fill="#000000">/reno.h</text>
</a>
</g>
</g>
<!-- Node11&#45;&gt;Node14 -->
<g id="edge8" class="edge">
<title>Node11&#45;&gt;Node14</title>
<path fill="none" stroke="#191970" d="M311,-124.0249C311,-115.128 311,-105.4287 311,-97.6432"/>
<polygon fill="#191970" stroke="#191970" points="307.5001,-124.2966 311,-134.2967 314.5001,-124.2967 307.5001,-124.2966"/>
</g>
<!-- Node16 -->
<g id="node11" class="node">
<title>Node16</title>
<g id="a_node11"><a xlink:href="sfr__types_8h.html" target="_top" xlink:title="6LoWPAN selective fragment recovery type definitions for GNRC ">
<polygon fill="#ffffff" stroke="#000000" points="384,-67.5 384,-97.5 528,-97.5 528,-67.5 384,-67.5"/>
<text text-anchor="start" x="392" y="-85.5" font-family="Helvetica,sans-Serif" font-size="10.00" fill="#000000">sys/include/net/gnrc</text>
<text text-anchor="middle" x="456" y="-74.5" font-family="Helvetica,sans-Serif" font-size="10.00" fill="#000000">/sixlowpan/frag/sfr_types.h</text>
</a>
</g>
</g>
<!-- Node11&#45;&gt;Node16 -->
<g id="edge11" class="edge">
<title>Node11&#45;&gt;Node16</title>
<path fill="none" stroke="#191970" d="M352.8236,-130.1746C375.2451,-119.8143 402.466,-107.2364 423.3172,-97.6017"/>
<polygon fill="#191970" stroke="#191970" points="351.1505,-127.0921 343.5408,-134.4639 354.0867,-133.4465 351.1505,-127.0921"/>
</g>
<!-- Node15 -->
<g id="node10" class="node">
<title>Node15</title>
<g id="a_node10"><a xlink:href="abe_8h.html" target="_top" xlink:title="sys/include/congure\l/abe.h">
<polygon fill="#ffffff" stroke="#000000" points="256,-.5 256,-30.5 366,-30.5 366,-.5 256,-.5"/>
<text text-anchor="start" x="264" y="-18.5" font-family="Helvetica,sans-Serif" font-size="10.00" fill="#000000">sys/include/congure</text>
<text text-anchor="middle" x="311" y="-7.5" font-family="Helvetica,sans-Serif" font-size="10.00" fill="#000000">/abe.h</text>
</a>
</g>
</g>
<!-- Node14&#45;&gt;Node15 -->
<g id="edge9" class="edge">
<title>Node14&#45;&gt;Node15</title>
<path fill="none" stroke="#191970" d="M311,-57.0249C311,-48.128 311,-38.4287 311,-30.6432"/>
<polygon fill="#191970" stroke="#191970" points="307.5001,-57.2966 311,-67.2967 314.5001,-57.2967 307.5001,-57.2966"/>
</g>
<!-- Node16&#45;&gt;Node10 -->
<g id="edge12" class="edge">
<title>Node16&#45;&gt;Node10</title>
<path fill="none" stroke="#191970" d="M445.9196,-107.2026C438.6989,-123.9634 428.288,-146.3749 417,-165 409.2106,-177.8524 398.8902,-191.3603 390.8227,-201.316"/>
<polygon fill="#191970" stroke="#191970" points="449.3166,-108.1551 449.9826,-97.5812 442.868,-105.4319 449.3166,-108.1551"/>
</g>
</g>
</svg>
