<?xml version="1.0" encoding="UTF-8" standalone="no"?>
<!DOCTYPE svg PUBLIC "-//W3C//DTD SVG 1.1//EN"
 "http://www.w3.org/Graphics/SVG/1.1/DTD/svg11.dtd">
<!-- Generated by graphviz version 2.40.1 (0)
 -->
<!-- Title: cpu/esp_common/include/syscalls_common.h Pages: 1 -->
<svg width="386pt" height="95pt"
 viewBox="0.00 0.00 385.50 95.00" xmlns="http://www.w3.org/2000/svg" xmlns:xlink="http://www.w3.org/1999/xlink">
<g id="graph0" class="graph" transform="scale(1 1) rotate(0) translate(4 91)">
<title>cpu/esp_common/include/syscalls_common.h</title>
<polygon fill="#ffffff" stroke="transparent" points="-4,4 -4,-91 381.5,-91 381.5,4 -4,4"/>
<!-- Node0 -->
<g id="node1" class="node">
<title>Node0</title>
<polygon fill="#bfbfbf" stroke="#000000" points="110.5,-56.5 110.5,-86.5 245.5,-86.5 245.5,-56.5 110.5,-56.5"/>
<text text-anchor="start" x="118.5" y="-74.5" font-family="Helvetica,sans-Serif" font-size="10.00" fill="#000000">cpu/esp_common/include</text>
<text text-anchor="middle" x="178" y="-63.5" font-family="Helvetica,sans-Serif" font-size="10.00" fill="#000000">/syscalls_common.h</text>
</g>
<!-- Node1 -->
<g id="node2" class="node">
<title>Node1</title>
<polygon fill="#ffffff" stroke="#bfbfbf" points="0,-.5 0,-19.5 56,-19.5 56,-.5 0,-.5"/>
<text text-anchor="middle" x="28" y="-7.5" font-family="Helvetica,sans-Serif" font-size="10.00" fill="#000000">stdarg.h</text>
</g>
<!-- Node0&#45;&gt;Node1 -->
<g id="edge1" class="edge">
<title>Node0&#45;&gt;Node1</title>
<path fill="none" stroke="#191970" d="M141.3059,-56.4554C116.6073,-46.329 84.3326,-33.0964 60.5494,-23.3453"/>
<polygon fill="#191970" stroke="#191970" points="61.825,-20.0855 51.2447,-19.5303 59.1694,-26.5623 61.825,-20.0855"/>
</g>
<!-- Node2 -->
<g id="node3" class="node">
<title>Node2</title>
<polygon fill="#ffffff" stroke="#bfbfbf" points="74,-.5 74,-19.5 134,-19.5 134,-.5 74,-.5"/>
<text text-anchor="middle" x="104" y="-7.5" font-family="Helvetica,sans-Serif" font-size="10.00" fill="#000000">stdbool.h</text>
</g>
<!-- Node0&#45;&gt;Node2 -->
<g id="edge2" class="edge">
<title>Node0&#45;&gt;Node2</title>
<path fill="none" stroke="#191970" d="M159.7079,-56.2977C148.7939,-47.2274 134.9329,-35.7077 123.7676,-26.4285"/>
<polygon fill="#191970" stroke="#191970" points="125.7762,-23.5468 115.8483,-19.8469 121.302,-28.9303 125.7762,-23.5468"/>
</g>
<!-- Node3 -->
<g id="node4" class="node">
<title>Node3</title>
<polygon fill="#ffffff" stroke="#bfbfbf" points="152,-.5 152,-19.5 204,-19.5 204,-.5 152,-.5"/>
<text text-anchor="middle" x="178" y="-7.5" font-family="Helvetica,sans-Serif" font-size="10.00" fill="#000000">stdint.h</text>
</g>
<!-- Node0&#45;&gt;Node3 -->
<g id="edge3" class="edge">
<title>Node0&#45;&gt;Node3</title>
<path fill="none" stroke="#191970" d="M178,-56.2977C178,-48.3834 178,-38.6043 178,-30.0759"/>
<polygon fill="#191970" stroke="#191970" points="181.5001,-29.8469 178,-19.8469 174.5001,-29.847 181.5001,-29.8469"/>
</g>
<!-- Node4 -->
<g id="node5" class="node">
<title>Node4</title>
<polygon fill="#ffffff" stroke="#bfbfbf" points="222,-.5 222,-19.5 272,-19.5 272,-.5 222,-.5"/>
<text text-anchor="middle" x="247" y="-7.5" font-family="Helvetica,sans-Serif" font-size="10.00" fill="#000000">stdlib.h</text>
</g>
<!-- Node0&#45;&gt;Node4 -->
<g id="edge4" class="edge">
<title>Node0&#45;&gt;Node4</title>
<path fill="none" stroke="#191970" d="M195.0562,-56.2977C205.1329,-47.3163 217.904,-35.9334 228.2611,-26.702"/>
<polygon fill="#191970" stroke="#191970" points="230.8159,-29.1135 235.9522,-19.8469 226.1583,-23.8879 230.8159,-29.1135"/>
</g>
<!-- Node5 -->
<g id="node6" class="node">
<title>Node5</title>
<g id="a_node6"><a xlink:href="esp__common_8h.html" target="_top" xlink:title="Common helper macros for ESP SoCs. ">
<polygon fill="#ffffff" stroke="#000000" points="290.5,-.5 290.5,-19.5 377.5,-19.5 377.5,-.5 290.5,-.5"/>
<text text-anchor="middle" x="334" y="-7.5" font-family="Helvetica,sans-Serif" font-size="10.00" fill="#000000">esp_common.h</text>
</a>
</g>
</g>
<!-- Node0&#45;&gt;Node5 -->
<g id="edge5" class="edge">
<title>Node0&#45;&gt;Node5</title>
<path fill="none" stroke="#191970" d="M216.1619,-56.4554C241.9626,-46.284 275.7126,-32.9787 300.4778,-23.2155"/>
<polygon fill="#191970" stroke="#191970" points="301.806,-26.4541 309.8255,-19.5303 299.2387,-19.9419 301.806,-26.4541"/>
</g>
</g>
</svg>
