<?xml version="1.0" encoding="UTF-8" standalone="no"?>
<!DOCTYPE svg PUBLIC "-//W3C//DTD SVG 1.1//EN"
 "http://www.w3.org/Graphics/SVG/1.1/DTD/svg11.dtd">
<!-- Generated by graphviz version 2.40.1 (0)
 -->
<!-- Title: sys/cpp11&#45;compat/include/riot/detail/thread_util.hpp Pages: 1 -->
<svg width="149pt" height="106pt"
 viewBox="0.00 0.00 149.00 106.00" xmlns="http://www.w3.org/2000/svg" xmlns:xlink="http://www.w3.org/1999/xlink">
<g id="graph0" class="graph" transform="scale(1 1) rotate(0) translate(4 102)">
<title>sys/cpp11&#45;compat/include/riot/detail/thread_util.hpp</title>
<polygon fill="#ffffff" stroke="transparent" points="-4,4 -4,-102 145,-102 145,4 -4,4"/>
<!-- Node3 -->
<g id="node1" class="node">
<title>Node3</title>
<polygon fill="#bfbfbf" stroke="#000000" points="0,-67.5 0,-97.5 141,-97.5 141,-67.5 0,-67.5"/>
<text text-anchor="start" x="8" y="-85.5" font-family="Helvetica,sans-Serif" font-size="10.00" fill="#000000">sys/cpp11&#45;compat/include</text>
<text text-anchor="middle" x="70.5" y="-74.5" font-family="Helvetica,sans-Serif" font-size="10.00" fill="#000000">/riot/detail/thread_util.hpp</text>
</g>
<!-- Node4 -->
<g id="node2" class="node">
<title>Node4</title>
<g id="a_node2"><a xlink:href="thread_8hpp.html" target="_top" xlink:title="C++11 thread drop in replacement. ">
<polygon fill="#ffffff" stroke="#000000" points="2,-.5 2,-30.5 139,-30.5 139,-.5 2,-.5"/>
<text text-anchor="start" x="10" y="-18.5" font-family="Helvetica,sans-Serif" font-size="10.00" fill="#000000">sys/cpp11&#45;compat/include</text>
<text text-anchor="middle" x="70.5" y="-7.5" font-family="Helvetica,sans-Serif" font-size="10.00" fill="#000000">/riot/thread.hpp</text>
</a>
</g>
</g>
<!-- Node3&#45;&gt;Node4 -->
<g id="edge1" class="edge">
<title>Node3&#45;&gt;Node4</title>
<path fill="none" stroke="#191970" d="M70.5,-57.0249C70.5,-48.128 70.5,-38.4287 70.5,-30.6432"/>
<polygon fill="#191970" stroke="#191970" points="67.0001,-57.2966 70.5,-67.2967 74.0001,-57.2967 67.0001,-57.2966"/>
</g>
</g>
</svg>
