<?xml version="1.0" encoding="UTF-8" standalone="no"?>
<!DOCTYPE svg PUBLIC "-//W3C//DTD SVG 1.1//EN"
 "http://www.w3.org/Graphics/SVG/1.1/DTD/svg11.dtd">
<!-- Generated by graphviz version 2.40.1 (0)
 -->
<!-- Title: sys/include/xtimer/tick_conversion.h Pages: 1 -->
<svg width="113pt" height="207pt"
 viewBox="0.00 0.00 113.00 207.00" xmlns="http://www.w3.org/2000/svg" xmlns:xlink="http://www.w3.org/1999/xlink">
<g id="graph0" class="graph" transform="scale(1 1) rotate(0) translate(4 203)">
<title>sys/include/xtimer/tick_conversion.h</title>
<polygon fill="#ffffff" stroke="transparent" points="-4,4 -4,-203 109,-203 109,4 -4,4"/>
<!-- Node0 -->
<g id="node1" class="node">
<title>Node0</title>
<polygon fill="#bfbfbf" stroke="#000000" points="3,-168.5 3,-198.5 105,-198.5 105,-168.5 3,-168.5"/>
<text text-anchor="start" x="11" y="-186.5" font-family="Helvetica,sans-Serif" font-size="10.00" fill="#000000">sys/include/xtimer</text>
<text text-anchor="middle" x="54" y="-175.5" font-family="Helvetica,sans-Serif" font-size="10.00" fill="#000000">/tick_conversion.h</text>
</g>
<!-- Node1 -->
<g id="node2" class="node">
<title>Node1</title>
<g id="a_node2"><a xlink:href="div_8h.html" target="_top" xlink:title="div.h">
<polygon fill="#ffffff" stroke="#000000" points="35,-112.5 35,-131.5 73,-131.5 73,-112.5 35,-112.5"/>
<text text-anchor="middle" x="54" y="-119.5" font-family="Helvetica,sans-Serif" font-size="10.00" fill="#000000">div.h</text>
</a>
</g>
</g>
<!-- Node0&#45;&gt;Node1 -->
<g id="edge1" class="edge">
<title>Node0&#45;&gt;Node1</title>
<path fill="none" stroke="#191970" d="M54,-168.2977C54,-160.3834 54,-150.6043 54,-142.0759"/>
<polygon fill="#191970" stroke="#191970" points="57.5001,-141.8469 54,-131.8469 50.5001,-141.847 57.5001,-141.8469"/>
</g>
<!-- Node2 -->
<g id="node3" class="node">
<title>Node2</title>
<g id="a_node3"><a xlink:href="assert_8h.html" target="_top" xlink:title="POSIX.1&#45;2008 compliant version of the assert macro. ">
<polygon fill="#ffffff" stroke="#000000" points="0,-56.5 0,-75.5 54,-75.5 54,-56.5 0,-56.5"/>
<text text-anchor="middle" x="27" y="-63.5" font-family="Helvetica,sans-Serif" font-size="10.00" fill="#000000">assert.h</text>
</a>
</g>
</g>
<!-- Node1&#45;&gt;Node2 -->
<g id="edge2" class="edge">
<title>Node1&#45;&gt;Node2</title>
<path fill="none" stroke="#191970" d="M49.297,-112.2455C45.6576,-104.6973 40.5076,-94.0158 36.0738,-84.8197"/>
<polygon fill="#191970" stroke="#191970" points="39.1449,-83.1303 31.6491,-75.6427 32.8395,-86.1704 39.1449,-83.1303"/>
</g>
<!-- Node3 -->
<g id="node4" class="node">
<title>Node3</title>
<polygon fill="#ffffff" stroke="#bfbfbf" points="28,-.5 28,-19.5 80,-19.5 80,-.5 28,-.5"/>
<text text-anchor="middle" x="54" y="-7.5" font-family="Helvetica,sans-Serif" font-size="10.00" fill="#000000">stdint.h</text>
</g>
<!-- Node1&#45;&gt;Node3 -->
<g id="edge4" class="edge">
<title>Node1&#45;&gt;Node3</title>
<path fill="none" stroke="#191970" d="M56.7761,-112.1879C60.0856,-99.3209 64.9409,-76.0282 63,-56 62.1582,-47.3132 60.4421,-37.8313 58.732,-29.7451"/>
<polygon fill="#191970" stroke="#191970" points="62.101,-28.7743 56.4865,-19.7895 55.2726,-30.3146 62.101,-28.7743"/>
</g>
<!-- Node2&#45;&gt;Node3 -->
<g id="edge3" class="edge">
<title>Node2&#45;&gt;Node3</title>
<path fill="none" stroke="#191970" d="M31.703,-56.2455C35.3424,-48.6973 40.4924,-38.0158 44.9262,-28.8197"/>
<polygon fill="#191970" stroke="#191970" points="48.1605,-30.1704 49.3509,-19.6427 41.8551,-27.1303 48.1605,-30.1704"/>
</g>
</g>
</svg>
