<?xml version="1.0" encoding="UTF-8" standalone="no"?>
<!DOCTYPE svg PUBLIC "-//W3C//DTD SVG 1.1//EN"
 "http://www.w3.org/Graphics/SVG/1.1/DTD/svg11.dtd">
<!-- Generated by graphviz version 2.40.1 (0)
 -->
<!-- Title: pkg/tinyusb/netdev/include/tinyusb_netdev.h Pages: 1 -->
<svg width="1409pt" height="487pt"
 viewBox="0.00 0.00 1409.36 487.00" xmlns="http://www.w3.org/2000/svg" xmlns:xlink="http://www.w3.org/1999/xlink">
<g id="graph0" class="graph" transform="scale(1 1) rotate(0) translate(4 483)">
<title>pkg/tinyusb/netdev/include/tinyusb_netdev.h</title>
<polygon fill="#ffffff" stroke="transparent" points="-4,4 -4,-483 1405.3607,-483 1405.3607,4 -4,4"/>
<!-- Node0 -->
<g id="node1" class="node">
<title>Node0</title>
<polygon fill="#bfbfbf" stroke="#000000" points="432.8607,-448.5 432.8607,-478.5 569.8607,-478.5 569.8607,-448.5 432.8607,-448.5"/>
<text text-anchor="start" x="440.8607" y="-466.5" font-family="Helvetica,sans-Serif" font-size="10.00" fill="#000000">pkg/tinyusb/netdev</text>
<text text-anchor="middle" x="501.3607" y="-455.5" font-family="Helvetica,sans-Serif" font-size="10.00" fill="#000000">/include/tinyusb_netdev.h</text>
</g>
<!-- Node1 -->
<g id="node2" class="node">
<title>Node1</title>
<g id="a_node2"><a xlink:href="ethernet_8h.html" target="_top" xlink:title="Definitions for Ethernet. ">
<polygon fill="#ffffff" stroke="#000000" points="98.8607,-224.5 98.8607,-243.5 185.8607,-243.5 185.8607,-224.5 98.8607,-224.5"/>
<text text-anchor="middle" x="142.3607" y="-231.5" font-family="Helvetica,sans-Serif" font-size="10.00" fill="#000000">net/ethernet.h</text>
</a>
</g>
</g>
<!-- Node0&#45;&gt;Node1 -->
<g id="edge1" class="edge">
<title>Node0&#45;&gt;Node1</title>
<path fill="none" stroke="#191970" d="M472.4552,-448.4321C434.7016,-428.4626 366.8778,-391.5907 311.3607,-356 255.9472,-320.4756 193.9581,-273.8404 162.7143,-249.8188"/>
<polygon fill="#191970" stroke="#191970" points="164.8034,-247.0099 154.7483,-243.6712 160.5267,-252.5516 164.8034,-247.0099"/>
</g>
<!-- Node10 -->
<g id="node11" class="node">
<title>Node10</title>
<g id="a_node11"><a xlink:href="drivers_2include_2net_2netdev_8h.html" target="_top" xlink:title="Definitions low&#45;level network driver interface. ">
<polygon fill="#ffffff" stroke="#000000" points="462.8607,-224.5 462.8607,-243.5 539.8607,-243.5 539.8607,-224.5 462.8607,-224.5"/>
<text text-anchor="middle" x="501.3607" y="-231.5" font-family="Helvetica,sans-Serif" font-size="10.00" fill="#000000">net/netdev.h</text>
</a>
</g>
</g>
<!-- Node0&#45;&gt;Node10 -->
<g id="edge15" class="edge">
<title>Node0&#45;&gt;Node10</title>
<path fill="none" stroke="#191970" d="M501.3607,-448.4419C501.3607,-408.3599 501.3607,-299.0534 501.3607,-253.9113"/>
<polygon fill="#191970" stroke="#191970" points="504.8608,-253.8981 501.3607,-243.8981 497.8608,-253.8982 504.8608,-253.8981"/>
</g>
<!-- Node24 -->
<g id="node25" class="node">
<title>Node24</title>
<g id="a_node25"><a xlink:href="mutex_8h.html" target="_top" xlink:title="Mutex for thread synchronization. ">
<polygon fill="#ffffff" stroke="#000000" points="820.3607,-392.5 820.3607,-411.5 876.3607,-411.5 876.3607,-392.5 820.3607,-392.5"/>
<text text-anchor="middle" x="848.3607" y="-399.5" font-family="Helvetica,sans-Serif" font-size="10.00" fill="#000000">mutex.h</text>
</a>
</g>
</g>
<!-- Node0&#45;&gt;Node24 -->
<g id="edge39" class="edge">
<title>Node0&#45;&gt;Node24</title>
<path fill="none" stroke="#191970" d="M569.9168,-451.3496C641.8754,-438.5961 752.412,-419.0053 810.1897,-408.7652"/>
<polygon fill="#191970" stroke="#191970" points="811.1072,-412.1572 820.3429,-406.9657 809.8855,-405.2646 811.1072,-412.1572"/>
</g>
<!-- Node2 -->
<g id="node3" class="node">
<title>Node2</title>
<polygon fill="#ffffff" stroke="#bfbfbf" points="410.3607,-.5 410.3607,-19.5 462.3607,-19.5 462.3607,-.5 410.3607,-.5"/>
<text text-anchor="middle" x="436.3607" y="-7.5" font-family="Helvetica,sans-Serif" font-size="10.00" fill="#000000">stdint.h</text>
</g>
<!-- Node1&#45;&gt;Node2 -->
<g id="edge2" class="edge">
<title>Node1&#45;&gt;Node2</title>
<path fill="none" stroke="#191970" d="M102.4785,-224.374C82.0222,-217.4775 58.3272,-206.1189 43.3607,-188 5.436,-142.0872 -19.3665,-100.3623 20.3607,-56 45.5035,-27.9238 303.1265,-15.1424 399.8935,-11.3055"/>
<polygon fill="#191970" stroke="#191970" points="400.2201,-14.7956 410.0773,-10.9114 399.9494,-7.8008 400.2201,-14.7956"/>
</g>
<!-- Node3 -->
<g id="node4" class="node">
<title>Node3</title>
<g id="a_node4"><a xlink:href="net_2ethernet_2hdr_8h.html" target="_top" xlink:title="Ethernet header definitions. ">
<polygon fill="#ffffff" stroke="#000000" points="141.8607,-168.5 141.8607,-187.5 248.8607,-187.5 248.8607,-168.5 141.8607,-168.5"/>
<text text-anchor="middle" x="195.3607" y="-175.5" font-family="Helvetica,sans-Serif" font-size="10.00" fill="#000000">net/ethernet/hdr.h</text>
</a>
</g>
</g>
<!-- Node1&#45;&gt;Node3 -->
<g id="edge3" class="edge">
<title>Node1&#45;&gt;Node3</title>
<path fill="none" stroke="#191970" d="M151.5926,-224.2455C159.1925,-216.2155 170.1484,-204.6394 179.1975,-195.0781"/>
<polygon fill="#191970" stroke="#191970" points="181.9028,-197.3115 186.2346,-187.6427 176.8187,-192.4998 181.9028,-197.3115"/>
</g>
<!-- Node9 -->
<g id="node10" class="node">
<title>Node9</title>
<g id="a_node10"><a xlink:href="eui64_8h.html" target="_top" xlink:title="EUI&#45;64 data type definition. ">
<polygon fill="#ffffff" stroke="#000000" points="52.8607,-168.5 52.8607,-187.5 123.8607,-187.5 123.8607,-168.5 52.8607,-168.5"/>
<text text-anchor="middle" x="88.3607" y="-175.5" font-family="Helvetica,sans-Serif" font-size="10.00" fill="#000000">net/eui64.h</text>
</a>
</g>
</g>
<!-- Node1&#45;&gt;Node9 -->
<g id="edge12" class="edge">
<title>Node1&#45;&gt;Node9</title>
<path fill="none" stroke="#191970" d="M132.9546,-224.2455C125.2114,-216.2155 114.0487,-204.6394 104.8289,-195.0781"/>
<polygon fill="#191970" stroke="#191970" points="107.1199,-192.4117 97.659,-187.6427 102.0809,-197.2706 107.1199,-192.4117"/>
</g>
<!-- Node4 -->
<g id="node5" class="node">
<title>Node4</title>
<g id="a_node5"><a xlink:href="inttypes_8h.html" target="_top" xlink:title="Adds include for missing inttype definitions. ">
<polygon fill="#ffffff" stroke="#000000" points="776.8607,-112.5 776.8607,-131.5 839.8607,-131.5 839.8607,-112.5 776.8607,-112.5"/>
<text text-anchor="middle" x="808.3607" y="-119.5" font-family="Helvetica,sans-Serif" font-size="10.00" fill="#000000">inttypes.h</text>
</a>
</g>
</g>
<!-- Node3&#45;&gt;Node4 -->
<g id="edge4" class="edge">
<title>Node3&#45;&gt;Node4</title>
<path fill="none" stroke="#191970" d="M248.9553,-173.1039C369.224,-162.1169 658.5125,-135.6892 766.6461,-125.8108"/>
<polygon fill="#191970" stroke="#191970" points="767.1929,-129.2755 776.833,-124.8802 766.556,-122.3045 767.1929,-129.2755"/>
</g>
<!-- Node5 -->
<g id="node6" class="node">
<title>Node5</title>
<g id="a_node6"><a xlink:href="byteorder_8h.html" target="_top" xlink:title="Functions to work with different byte orders. ">
<polygon fill="#ffffff" stroke="#000000" points="131.8607,-112.5 131.8607,-131.5 204.8607,-131.5 204.8607,-112.5 131.8607,-112.5"/>
<text text-anchor="middle" x="168.3607" y="-119.5" font-family="Helvetica,sans-Serif" font-size="10.00" fill="#000000">byteorder.h</text>
</a>
</g>
</g>
<!-- Node3&#45;&gt;Node5 -->
<g id="edge5" class="edge">
<title>Node3&#45;&gt;Node5</title>
<path fill="none" stroke="#191970" d="M190.6577,-168.2455C187.0184,-160.6973 181.8683,-150.0158 177.4345,-140.8197"/>
<polygon fill="#191970" stroke="#191970" points="180.5056,-139.1303 173.0099,-131.6427 174.2002,-142.1704 180.5056,-139.1303"/>
</g>
<!-- Node5&#45;&gt;Node2 -->
<g id="edge7" class="edge">
<title>Node5&#45;&gt;Node2</title>
<path fill="none" stroke="#191970" d="M189.4422,-112.3337C209.6883,-103.0432 241.1303,-88.5956 268.3607,-76 287.4905,-67.1514 291.8984,-64.0909 311.3607,-56 341.1442,-43.6183 375.5811,-31.0731 400.7586,-22.2183"/>
<polygon fill="#191970" stroke="#191970" points="401.978,-25.4998 410.2631,-18.8961 399.6682,-18.8918 401.978,-25.4998"/>
</g>
<!-- Node6 -->
<g id="node7" class="node">
<title>Node6</title>
<polygon fill="#ffffff" stroke="#bfbfbf" points="41.8607,-56.5 41.8607,-75.5 94.8607,-75.5 94.8607,-56.5 41.8607,-56.5"/>
<text text-anchor="middle" x="68.3607" y="-63.5" font-family="Helvetica,sans-Serif" font-size="10.00" fill="#000000">string.h</text>
</g>
<!-- Node5&#45;&gt;Node6 -->
<g id="edge6" class="edge">
<title>Node5&#45;&gt;Node6</title>
<path fill="none" stroke="#191970" d="M150.942,-112.2455C135.3122,-103.4928 112.1589,-90.527 94.3422,-80.5496"/>
<polygon fill="#191970" stroke="#191970" points="96.015,-77.475 85.5798,-75.6427 92.5947,-83.5825 96.015,-77.475"/>
</g>
<!-- Node7 -->
<g id="node8" class="node">
<title>Node7</title>
<g id="a_node8"><a xlink:href="endian_8h.html" target="_top" xlink:title="libc header for endian conversion ">
<polygon fill="#ffffff" stroke="#000000" points="112.8607,-56.5 112.8607,-75.5 169.8607,-75.5 169.8607,-56.5 112.8607,-56.5"/>
<text text-anchor="middle" x="141.3607" y="-63.5" font-family="Helvetica,sans-Serif" font-size="10.00" fill="#000000">endian.h</text>
</a>
</g>
</g>
<!-- Node5&#45;&gt;Node7 -->
<g id="edge8" class="edge">
<title>Node5&#45;&gt;Node7</title>
<path fill="none" stroke="#191970" d="M163.6577,-112.2455C160.0184,-104.6973 154.8683,-94.0158 150.4345,-84.8197"/>
<polygon fill="#191970" stroke="#191970" points="153.5056,-83.1303 146.0099,-75.6427 147.2002,-86.1704 153.5056,-83.1303"/>
</g>
<!-- Node8 -->
<g id="node9" class="node">
<title>Node8</title>
<g id="a_node9"><a xlink:href="unaligned_8h.html" target="_top" xlink:title="Unaligned but safe memory access functions. ">
<polygon fill="#ffffff" stroke="#000000" points="187.8607,-56.5 187.8607,-75.5 258.8607,-75.5 258.8607,-56.5 187.8607,-56.5"/>
<text text-anchor="middle" x="223.3607" y="-63.5" font-family="Helvetica,sans-Serif" font-size="10.00" fill="#000000">unaligned.h</text>
</a>
</g>
</g>
<!-- Node5&#45;&gt;Node8 -->
<g id="edge10" class="edge">
<title>Node5&#45;&gt;Node8</title>
<path fill="none" stroke="#191970" d="M177.941,-112.2455C185.9065,-104.1352 197.4248,-92.4075 206.8687,-82.7919"/>
<polygon fill="#191970" stroke="#191970" points="209.3802,-85.2297 213.8902,-75.6427 204.386,-80.3247 209.3802,-85.2297"/>
</g>
<!-- Node7&#45;&gt;Node2 -->
<g id="edge9" class="edge">
<title>Node7&#45;&gt;Node2</title>
<path fill="none" stroke="#191970" d="M169.9348,-58.2179C173.1064,-57.4324 176.2964,-56.6763 179.3607,-56 257.6672,-38.7177 350.4823,-23.3532 400.3545,-15.5096"/>
<polygon fill="#191970" stroke="#191970" points="400.9843,-18.9537 410.3242,-13.952 399.9038,-12.0376 400.9843,-18.9537"/>
</g>
<!-- Node8&#45;&gt;Node2 -->
<g id="edge11" class="edge">
<title>Node8&#45;&gt;Node2</title>
<path fill="none" stroke="#191970" d="M259.0121,-56.6269C298.3416,-46.2867 361.2628,-29.7441 400.6256,-19.3951"/>
<polygon fill="#191970" stroke="#191970" points="401.5571,-22.7693 410.3385,-16.8415 399.7772,-15.9993 401.5571,-22.7693"/>
</g>
<!-- Node9&#45;&gt;Node2 -->
<g id="edge13" class="edge">
<title>Node9&#45;&gt;Node2</title>
<path fill="none" stroke="#191970" d="M77.53,-168.3508C53.9065,-146.1812 2.2682,-90.8435 33.3607,-56 57.5984,-28.8384 305.6139,-15.5434 400.0862,-11.4352"/>
<polygon fill="#191970" stroke="#191970" points="400.4609,-14.9226 410.3032,-11.0009 400.1635,-7.9289 400.4609,-14.9226"/>
</g>
<!-- Node9&#45;&gt;Node5 -->
<g id="edge14" class="edge">
<title>Node9&#45;&gt;Node5</title>
<path fill="none" stroke="#191970" d="M102.2957,-168.2455C114.4554,-159.7337 132.3072,-147.2375 146.3892,-137.3801"/>
<polygon fill="#191970" stroke="#191970" points="148.4003,-140.2447 154.5855,-131.6427 144.386,-134.51 148.4003,-140.2447"/>
</g>
<!-- Node10&#45;&gt;Node2 -->
<g id="edge16" class="edge">
<title>Node10&#45;&gt;Node2</title>
<path fill="none" stroke="#191970" d="M464.338,-224.4827C433.4107,-215.6952 392.883,-201.9323 383.3607,-188 348.2876,-136.6836 396.0893,-61.7186 421.8407,-27.8193"/>
<polygon fill="#191970" stroke="#191970" points="424.7387,-29.795 428.1411,-19.7613 419.2242,-25.4833 424.7387,-29.795"/>
</g>
<!-- Node11 -->
<g id="node12" class="node">
<title>Node11</title>
<g id="a_node12"><a xlink:href="errno_8h.html" target="_top" xlink:title="errno.h">
<polygon fill="#ffffff" stroke="#000000" points="391.8607,-168.5 391.8607,-187.5 444.8607,-187.5 444.8607,-168.5 391.8607,-168.5"/>
<text text-anchor="middle" x="418.3607" y="-175.5" font-family="Helvetica,sans-Serif" font-size="10.00" fill="#000000">errno.h</text>
</a>
</g>
</g>
<!-- Node10&#45;&gt;Node11 -->
<g id="edge17" class="edge">
<title>Node10&#45;&gt;Node11</title>
<path fill="none" stroke="#191970" d="M486.9032,-224.2455C474.2875,-215.7337 455.7663,-203.2375 441.1562,-193.3801"/>
<polygon fill="#191970" stroke="#191970" points="442.8998,-190.3343 432.6525,-187.6427 438.9846,-196.1371 442.8998,-190.3343"/>
</g>
<!-- Node12 -->
<g id="node13" class="node">
<title>Node12</title>
<g id="a_node13"><a xlink:href="iolist_8h.html" target="_top" xlink:title="iolist scatter / gather IO ">
<polygon fill="#ffffff" stroke="#000000" points="915.8607,-168.5 915.8607,-187.5 962.8607,-187.5 962.8607,-168.5 915.8607,-168.5"/>
<text text-anchor="middle" x="939.3607" y="-175.5" font-family="Helvetica,sans-Serif" font-size="10.00" fill="#000000">iolist.h</text>
</a>
</g>
</g>
<!-- Node10&#45;&gt;Node12 -->
<g id="edge18" class="edge">
<title>Node10&#45;&gt;Node12</title>
<path fill="none" stroke="#191970" d="M540.0943,-232.0661C611.0696,-227.9948 766.7453,-216.6195 905.7498,-188.0241"/>
<polygon fill="#191970" stroke="#191970" points="906.6572,-191.4101 915.7279,-185.9353 905.2229,-184.5586 906.6572,-191.4101"/>
</g>
<!-- Node16 -->
<g id="node17" class="node">
<title>Node16</title>
<g id="a_node17"><a xlink:href="netopt_8h.html" target="_top" xlink:title="Definition of global configuration options. ">
<polygon fill="#ffffff" stroke="#000000" points="462.8607,-168.5 462.8607,-187.5 539.8607,-187.5 539.8607,-168.5 462.8607,-168.5"/>
<text text-anchor="middle" x="501.3607" y="-175.5" font-family="Helvetica,sans-Serif" font-size="10.00" fill="#000000">net/netopt.h</text>
</a>
</g>
</g>
<!-- Node10&#45;&gt;Node16 -->
<g id="edge25" class="edge">
<title>Node10&#45;&gt;Node16</title>
<path fill="none" stroke="#191970" d="M501.3607,-224.2455C501.3607,-216.9382 501.3607,-206.6944 501.3607,-197.7046"/>
<polygon fill="#191970" stroke="#191970" points="504.8608,-197.6426 501.3607,-187.6427 497.8608,-197.6427 504.8608,-197.6426"/>
</g>
<!-- Node18 -->
<g id="node19" class="node">
<title>Node18</title>
<g id="a_node19"><a xlink:href="kernel__defines_8h.html" target="_top" xlink:title="Common macros and compiler attributes/pragmas configuration. ">
<polygon fill="#ffffff" stroke="#000000" points="557.8607,-168.5 557.8607,-187.5 652.8607,-187.5 652.8607,-168.5 557.8607,-168.5"/>
<text text-anchor="middle" x="605.3607" y="-175.5" font-family="Helvetica,sans-Serif" font-size="10.00" fill="#000000">kernel_defines.h</text>
</a>
</g>
</g>
<!-- Node10&#45;&gt;Node18 -->
<g id="edge28" class="edge">
<title>Node10&#45;&gt;Node18</title>
<path fill="none" stroke="#191970" d="M519.4761,-224.2455C535.8058,-215.4527 560.0317,-202.4079 578.5946,-192.4125"/>
<polygon fill="#191970" stroke="#191970" points="580.3075,-195.4654 587.4529,-187.6427 576.9888,-189.3021 580.3075,-195.4654"/>
</g>
<!-- Node13 -->
<g id="node14" class="node">
<title>Node13</title>
<g id="a_node14"><a xlink:href="unistd_8h_source.html" target="_top" xlink:title="unistd.h">
<polygon fill="#ffffff" stroke="#000000" points="1090.3607,-112.5 1090.3607,-131.5 1144.3607,-131.5 1144.3607,-112.5 1090.3607,-112.5"/>
<text text-anchor="middle" x="1117.3607" y="-119.5" font-family="Helvetica,sans-Serif" font-size="10.00" fill="#000000">unistd.h</text>
</a>
</g>
</g>
<!-- Node12&#45;&gt;Node13 -->
<g id="edge19" class="edge">
<title>Node12&#45;&gt;Node13</title>
<path fill="none" stroke="#191970" d="M962.9977,-170.5636C992.9511,-161.1401 1044.9185,-144.7908 1080.2002,-133.6909"/>
<polygon fill="#191970" stroke="#191970" points="1081.6348,-136.9088 1090.1235,-130.569 1079.534,-130.2315 1081.6348,-136.9088"/>
</g>
<!-- Node13&#45;&gt;Node2 -->
<g id="edge21" class="edge">
<title>Node13&#45;&gt;Node2</title>
<path fill="none" stroke="#191970" d="M1101.4527,-112.3274C1075.9087,-97.3322 1023.6994,-68.8649 975.3607,-56 879.9392,-30.6045 577.6142,-15.8926 472.6672,-11.4476"/>
<polygon fill="#191970" stroke="#191970" points="472.7067,-7.9463 462.5693,-11.0259 472.4145,-14.9402 472.7067,-7.9463"/>
</g>
<!-- Node14 -->
<g id="node15" class="node">
<title>Node14</title>
<polygon fill="#ffffff" stroke="#bfbfbf" points="1195.3607,-.5 1195.3607,-19.5 1251.3607,-19.5 1251.3607,-.5 1195.3607,-.5"/>
<text text-anchor="middle" x="1223.3607" y="-7.5" font-family="Helvetica,sans-Serif" font-size="10.00" fill="#000000">stddef.h</text>
</g>
<!-- Node13&#45;&gt;Node14 -->
<g id="edge20" class="edge">
<title>Node13&#45;&gt;Node14</title>
<path fill="none" stroke="#191970" d="M1126.8279,-112.154C1135.756,-102.8565 1149.5004,-88.512 1161.3607,-76 1176.9451,-59.5594 1194.6284,-40.7165 1207.1104,-27.3843"/>
<polygon fill="#191970" stroke="#191970" points="1209.8683,-29.5595 1214.1447,-19.8661 1204.7568,-24.777 1209.8683,-29.5595"/>
</g>
<!-- Node15 -->
<g id="node16" class="node">
<title>Node15</title>
<g id="a_node16"><a xlink:href="cpu_2avr8__common_2avr__libc__extra_2include_2sys_2types_8h_source.html" target="_top" xlink:title="sys/types.h">
<polygon fill="#ffffff" stroke="#000000" points="1082.8607,-56.5 1082.8607,-75.5 1151.8607,-75.5 1151.8607,-56.5 1082.8607,-56.5"/>
<text text-anchor="middle" x="1117.3607" y="-63.5" font-family="Helvetica,sans-Serif" font-size="10.00" fill="#000000">sys/types.h</text>
</a>
</g>
</g>
<!-- Node13&#45;&gt;Node15 -->
<g id="edge22" class="edge">
<title>Node13&#45;&gt;Node15</title>
<path fill="none" stroke="#191970" d="M1117.3607,-112.2455C1117.3607,-104.9382 1117.3607,-94.6944 1117.3607,-85.7046"/>
<polygon fill="#191970" stroke="#191970" points="1120.8608,-85.6426 1117.3607,-75.6427 1113.8608,-85.6427 1120.8608,-85.6426"/>
</g>
<!-- Node15&#45;&gt;Node2 -->
<g id="edge23" class="edge">
<title>Node15&#45;&gt;Node2</title>
<path fill="none" stroke="#191970" d="M1082.7937,-61.2468C1068.9903,-59.4475 1052.9401,-57.4788 1038.3607,-56 824.2288,-34.2798 566.3044,-17.8085 472.6023,-12.1397"/>
<polygon fill="#191970" stroke="#191970" points="472.7044,-8.6396 462.5122,-11.5328 472.284,-15.627 472.7044,-8.6396"/>
</g>
<!-- Node15&#45;&gt;Node14 -->
<g id="edge24" class="edge">
<title>Node15&#45;&gt;Node14</title>
<path fill="none" stroke="#191970" d="M1135.8245,-56.2455C1152.4682,-47.4527 1177.16,-34.4079 1196.0799,-24.4125"/>
<polygon fill="#191970" stroke="#191970" points="1197.9015,-27.4086 1205.1085,-19.6427 1194.6316,-21.2193 1197.9015,-27.4086"/>
</g>
<!-- Node16&#45;&gt;Node2 -->
<g id="edge26" class="edge">
<title>Node16&#45;&gt;Node2</title>
<path fill="none" stroke="#191970" d="M487.6632,-168.2455C476.3352,-159.6657 460.3756,-146.337 449.3607,-132 432.4077,-109.9338 427.754,-103.0822 421.3607,-76 417.6541,-60.2985 422.2378,-42.455 427.2856,-29.2834"/>
<polygon fill="#191970" stroke="#191970" points="430.6032,-30.4248 431.2837,-19.8518 424.1583,-27.6927 430.6032,-30.4248"/>
</g>
<!-- Node17 -->
<g id="node18" class="node">
<title>Node17</title>
<polygon fill="#ffffff" stroke="#bfbfbf" points="1162.3607,-112.5 1162.3607,-131.5 1222.3607,-131.5 1222.3607,-112.5 1162.3607,-112.5"/>
<text text-anchor="middle" x="1192.3607" y="-119.5" font-family="Helvetica,sans-Serif" font-size="10.00" fill="#000000">stdbool.h</text>
</g>
<!-- Node16&#45;&gt;Node17 -->
<g id="edge27" class="edge">
<title>Node16&#45;&gt;Node17</title>
<path fill="none" stroke="#191970" d="M540.0501,-169.4344C543.1907,-168.8934 546.3232,-168.4047 549.3607,-168 812.6717,-132.9154 885.8942,-172.595 1152.2807,-131.8758"/>
<polygon fill="#191970" stroke="#191970" points="1152.9011,-135.3215 1162.2459,-130.3291 1151.8274,-128.4044 1152.9011,-135.3215"/>
</g>
<!-- Node19 -->
<g id="node20" class="node">
<title>Node19</title>
<g id="a_node20"><a xlink:href="modules_8h.html" target="_top" xlink:title="Common macros and compiler attributes/pragmas configuration. ">
<polygon fill="#ffffff" stroke="#000000" points="578.8607,-112.5 578.8607,-131.5 643.8607,-131.5 643.8607,-112.5 578.8607,-112.5"/>
<text text-anchor="middle" x="611.3607" y="-119.5" font-family="Helvetica,sans-Serif" font-size="10.00" fill="#000000">modules.h</text>
</a>
</g>
</g>
<!-- Node18&#45;&gt;Node19 -->
<g id="edge29" class="edge">
<title>Node18&#45;&gt;Node19</title>
<path fill="none" stroke="#191970" d="M606.4058,-168.2455C607.1888,-160.9382 608.2863,-150.6944 609.2495,-141.7046"/>
<polygon fill="#191970" stroke="#191970" points="612.7422,-141.9587 610.3276,-131.6427 605.7821,-141.2129 612.7422,-141.9587"/>
</g>
<!-- Node20 -->
<g id="node21" class="node">
<title>Node20</title>
<g id="a_node21"><a xlink:href="riot__version_8h.html" target="_top" xlink:title="Common macros and compiler attributes/pragmas configuration. ">
<polygon fill="#ffffff" stroke="#000000" points="429.8607,-56.5 429.8607,-75.5 510.8607,-75.5 510.8607,-56.5 429.8607,-56.5"/>
<text text-anchor="middle" x="470.3607" y="-63.5" font-family="Helvetica,sans-Serif" font-size="10.00" fill="#000000">riot_version.h</text>
</a>
</g>
</g>
<!-- Node18&#45;&gt;Node20 -->
<g id="edge30" class="edge">
<title>Node18&#45;&gt;Node20</title>
<path fill="none" stroke="#191970" d="M557.8134,-169.2981C519.8903,-161.2765 471.2268,-148.1797 459.3607,-132 449.4102,-118.4321 454.2409,-99.0893 460.312,-84.8498"/>
<polygon fill="#191970" stroke="#191970" points="463.6075,-86.0709 464.7583,-75.5388 457.2907,-83.0545 463.6075,-86.0709"/>
</g>
<!-- Node21 -->
<g id="node22" class="node">
<title>Node21</title>
<g id="a_node22"><a xlink:href="compiler__hints_8h.html" target="_top" xlink:title="Common macros and compiler attributes/pragmas configuration. ">
<polygon fill="#ffffff" stroke="#000000" points="467.8607,-112.5 467.8607,-131.5 560.8607,-131.5 560.8607,-112.5 467.8607,-112.5"/>
<text text-anchor="middle" x="514.3607" y="-119.5" font-family="Helvetica,sans-Serif" font-size="10.00" fill="#000000">compiler_hints.h</text>
</a>
</g>
</g>
<!-- Node18&#45;&gt;Node21 -->
<g id="edge32" class="edge">
<title>Node18&#45;&gt;Node21</title>
<path fill="none" stroke="#191970" d="M589.5097,-168.2455C575.5475,-159.6534 554.9879,-147.0014 538.9012,-137.1018"/>
<polygon fill="#191970" stroke="#191970" points="540.381,-133.9029 530.0301,-131.6427 536.7123,-139.8645 540.381,-133.9029"/>
</g>
<!-- Node23 -->
<g id="node24" class="node">
<title>Node23</title>
<g id="a_node24"><a xlink:href="container_8h.html" target="_top" xlink:title="Common macros and compiler attributes/pragmas configuration. ">
<polygon fill="#ffffff" stroke="#000000" points="896.8607,-56.5 896.8607,-75.5 965.8607,-75.5 965.8607,-56.5 896.8607,-56.5"/>
<text text-anchor="middle" x="931.3607" y="-63.5" font-family="Helvetica,sans-Serif" font-size="10.00" fill="#000000">container.h</text>
</a>
</g>
</g>
<!-- Node18&#45;&gt;Node23 -->
<g id="edge36" class="edge">
<title>Node18&#45;&gt;Node23</title>
<path fill="none" stroke="#191970" d="M626.6968,-168.4838C657.5666,-154.9174 716.6582,-129.7032 768.3607,-112 807.941,-98.4475 853.8754,-85.7503 886.8745,-77.1439"/>
<polygon fill="#191970" stroke="#191970" points="887.8741,-80.5007 896.679,-74.6079 886.1211,-73.7237 887.8741,-80.5007"/>
</g>
<!-- Node20&#45;&gt;Node2 -->
<g id="edge31" class="edge">
<title>Node20&#45;&gt;Node2</title>
<path fill="none" stroke="#191970" d="M464.4384,-56.2455C459.758,-48.5367 453.0935,-37.5598 447.4319,-28.2348"/>
<polygon fill="#191970" stroke="#191970" points="450.3968,-26.3741 442.2152,-19.6427 444.4133,-30.007 450.3968,-26.3741"/>
</g>
<!-- Node21&#45;&gt;Node2 -->
<g id="edge35" class="edge">
<title>Node21&#45;&gt;Node2</title>
<path fill="none" stroke="#191970" d="M518.5998,-112.2595C523.8216,-98.6451 530.8003,-73.6194 520.3607,-56 509.92,-38.3787 490.0768,-27.0647 472.2978,-20.0681"/>
<polygon fill="#191970" stroke="#191970" points="473.3001,-16.709 462.7057,-16.6126 470.9277,-23.2947 473.3001,-16.709"/>
</g>
<!-- Node22 -->
<g id="node23" class="node">
<title>Node22</title>
<g id="a_node23"><a xlink:href="assert_8h.html" target="_top" xlink:title="POSIX.1&#45;2008 compliant version of the assert macro. ">
<polygon fill="#ffffff" stroke="#000000" points="567.3607,-56.5 567.3607,-75.5 621.3607,-75.5 621.3607,-56.5 567.3607,-56.5"/>
<text text-anchor="middle" x="594.3607" y="-63.5" font-family="Helvetica,sans-Serif" font-size="10.00" fill="#000000">assert.h</text>
</a>
</g>
</g>
<!-- Node21&#45;&gt;Node22 -->
<g id="edge33" class="edge">
<title>Node21&#45;&gt;Node22</title>
<path fill="none" stroke="#191970" d="M528.2957,-112.2455C540.4554,-103.7337 558.3072,-91.2375 572.3892,-81.3801"/>
<polygon fill="#191970" stroke="#191970" points="574.4003,-84.2447 580.5855,-75.6427 570.386,-78.51 574.4003,-84.2447"/>
</g>
<!-- Node22&#45;&gt;Node2 -->
<g id="edge34" class="edge">
<title>Node22&#45;&gt;Node2</title>
<path fill="none" stroke="#191970" d="M567.1996,-56.3733C540.9172,-47.058 500.9298,-32.8852 472.0805,-22.6602"/>
<polygon fill="#191970" stroke="#191970" points="472.9761,-19.2643 462.3814,-19.2225 470.6376,-25.8622 472.9761,-19.2643"/>
</g>
<!-- Node23&#45;&gt;Node2 -->
<g id="edge38" class="edge">
<title>Node23&#45;&gt;Node2</title>
<path fill="none" stroke="#191970" d="M896.638,-58.4735C891.8545,-57.5656 886.9951,-56.7101 882.3607,-56 730.9778,-32.8038 548.8512,-18.0919 472.6511,-12.5242"/>
<polygon fill="#191970" stroke="#191970" points="472.8424,-9.029 462.6162,-11.7994 472.338,-16.0108 472.8424,-9.029"/>
</g>
<!-- Node23&#45;&gt;Node14 -->
<g id="edge37" class="edge">
<title>Node23&#45;&gt;Node14</title>
<path fill="none" stroke="#191970" d="M966.0036,-59.3562C1021.042,-48.8008 1128.0614,-28.2766 1185.2177,-17.3151"/>
<polygon fill="#191970" stroke="#191970" points="1186.1242,-20.7051 1195.2859,-15.3842 1184.8057,-13.8304 1186.1242,-20.7051"/>
</g>
<!-- Node24&#45;&gt;Node2 -->
<g id="edge41" class="edge">
<title>Node24&#45;&gt;Node2</title>
<path fill="none" stroke="#191970" d="M820.242,-399.0083C711.6095,-387.0787 325.3607,-341.0715 325.3607,-290 325.3607,-290 325.3607,-290 325.3607,-122 325.3607,-76.029 373.1211,-42.1769 405.9848,-24.325"/>
<polygon fill="#191970" stroke="#191970" points="407.9718,-27.2362 415.2212,-19.5099 404.7358,-21.0291 407.9718,-27.2362"/>
</g>
<!-- Node24&#45;&gt;Node14 -->
<g id="edge40" class="edge">
<title>Node24&#45;&gt;Node14</title>
<path fill="none" stroke="#191970" d="M876.6558,-401.2108C941.4648,-398.8524 1105.2542,-389.7543 1237.3607,-356 1313.4851,-336.5496 1401.3607,-368.5699 1401.3607,-290 1401.3607,-290 1401.3607,-290 1401.3607,-122 1401.3607,-56.451 1313.818,-27.7571 1261.5189,-16.4637"/>
<polygon fill="#191970" stroke="#191970" points="1262.0634,-13.0028 1251.5653,-14.4313 1260.6629,-19.8613 1262.0634,-13.0028"/>
</g>
<!-- Node24&#45;&gt;Node17 -->
<g id="edge42" class="edge">
<title>Node24&#45;&gt;Node17</title>
<path fill="none" stroke="#191970" d="M853.0961,-392.2143C870.9722,-356.3318 938.1078,-230.803 1031.3607,-168 1036.5133,-164.5299 1106.5825,-145.1806 1152.5683,-132.7078"/>
<polygon fill="#191970" stroke="#191970" points="1153.5289,-136.0738 1162.2668,-130.0823 1151.6997,-129.317 1153.5289,-136.0738"/>
</g>
<!-- Node24&#45;&gt;Node18 -->
<g id="edge48" class="edge">
<title>Node24&#45;&gt;Node18</title>
<path fill="none" stroke="#191970" d="M836.5729,-392.4018C807.1833,-368.3251 728.6181,-303.0611 667.3607,-244 650.8654,-228.096 633.0559,-208.908 620.7756,-195.3306"/>
<polygon fill="#191970" stroke="#191970" points="623.1911,-192.7821 613.905,-187.6812 617.9834,-197.4597 623.1911,-192.7821"/>
</g>
<!-- Node25 -->
<g id="node26" class="node">
<title>Node25</title>
<g id="a_node26"><a xlink:href="architecture_8h.html" target="_top" xlink:title="Platform&#45;independent access to architecture details. ">
<polygon fill="#ffffff" stroke="#000000" points="814.8607,-168.5 814.8607,-187.5 897.8607,-187.5 897.8607,-168.5 814.8607,-168.5"/>
<text text-anchor="middle" x="856.3607" y="-175.5" font-family="Helvetica,sans-Serif" font-size="10.00" fill="#000000">architecture.h</text>
</a>
</g>
</g>
<!-- Node24&#45;&gt;Node25 -->
<g id="edge43" class="edge">
<title>Node24&#45;&gt;Node25</title>
<path fill="none" stroke="#191970" d="M843.599,-392.2635C834.1087,-371.6756 814.3298,-322.153 821.3607,-280 826.3706,-249.9642 839.1427,-216.9209 847.7913,-196.8161"/>
<polygon fill="#191970" stroke="#191970" points="851.038,-198.1281 851.8752,-187.5664 844.6343,-195.3008 851.038,-198.1281"/>
</g>
<!-- Node28 -->
<g id="node29" class="node">
<title>Node28</title>
<g id="a_node29"><a xlink:href="list_8h.html" target="_top" xlink:title="Intrusive linked list. ">
<polygon fill="#ffffff" stroke="#000000" points="1332.3607,-112.5 1332.3607,-131.5 1370.3607,-131.5 1370.3607,-112.5 1332.3607,-112.5"/>
<text text-anchor="middle" x="1351.3607" y="-119.5" font-family="Helvetica,sans-Serif" font-size="10.00" fill="#000000">list.h</text>
</a>
</g>
</g>
<!-- Node24&#45;&gt;Node28 -->
<g id="edge49" class="edge">
<title>Node24&#45;&gt;Node28</title>
<path fill="none" stroke="#191970" d="M876.4151,-398.9226C983.8841,-386.7629 1363.3607,-340.2676 1363.3607,-290 1363.3607,-290 1363.3607,-290 1363.3607,-234 1363.3607,-201.3778 1358.2653,-163.7135 1354.7151,-141.4301"/>
<polygon fill="#191970" stroke="#191970" points="1358.1661,-140.8456 1353.08,-131.5514 1351.26,-141.9887 1358.1661,-140.8456"/>
</g>
<!-- Node29 -->
<g id="node30" class="node">
<title>Node29</title>
<g id="a_node30"><a xlink:href="core_2include_2thread_8h.html" target="_top" xlink:title="Threading API. ">
<polygon fill="#ffffff" stroke="#000000" points="1050.8607,-336.5 1050.8607,-355.5 1107.8607,-355.5 1107.8607,-336.5 1050.8607,-336.5"/>
<text text-anchor="middle" x="1079.3607" y="-343.5" font-family="Helvetica,sans-Serif" font-size="10.00" fill="#000000">thread.h</text>
</a>
</g>
</g>
<!-- Node24&#45;&gt;Node29 -->
<g id="edge50" class="edge">
<title>Node24&#45;&gt;Node29</title>
<path fill="none" stroke="#191970" d="M876.6859,-395.1333C917.9037,-385.1411 994.533,-366.5643 1040.8448,-355.3372"/>
<polygon fill="#191970" stroke="#191970" points="1041.91,-358.6804 1050.8039,-352.9229 1040.2608,-351.8775 1041.91,-358.6804"/>
</g>
<!-- Node25&#45;&gt;Node2 -->
<g id="edge44" class="edge">
<title>Node25&#45;&gt;Node2</title>
<path fill="none" stroke="#191970" d="M857.8039,-168.2154C859.3019,-154.5487 860.1209,-129.4611 849.3607,-112 825.2362,-72.8519 805.4611,-72.0289 762.3607,-56 709.7671,-36.4405 546.0826,-19.825 472.6511,-13.1433"/>
<polygon fill="#191970" stroke="#191970" points="472.769,-9.6398 462.4958,-12.2303 472.1422,-16.6117 472.769,-9.6398"/>
</g>
<!-- Node25&#45;&gt;Node4 -->
<g id="edge45" class="edge">
<title>Node25&#45;&gt;Node4</title>
<path fill="none" stroke="#191970" d="M847.9998,-168.2455C841.1857,-160.2958 831.3926,-148.8706 823.2455,-139.3656"/>
<polygon fill="#191970" stroke="#191970" points="825.7912,-136.9575 816.6259,-131.6427 820.4764,-141.513 825.7912,-136.9575"/>
</g>
<!-- Node26 -->
<g id="node27" class="node">
<title>Node26</title>
<polygon fill="#ffffff" stroke="#bfbfbf" points="896.3607,-112.5 896.3607,-131.5 946.3607,-131.5 946.3607,-112.5 896.3607,-112.5"/>
<text text-anchor="middle" x="921.3607" y="-119.5" font-family="Helvetica,sans-Serif" font-size="10.00" fill="#000000">limits.h</text>
</g>
<!-- Node25&#45;&gt;Node26 -->
<g id="edge46" class="edge">
<title>Node25&#45;&gt;Node26</title>
<path fill="none" stroke="#191970" d="M867.6829,-168.2455C877.283,-159.9746 891.2499,-147.9416 902.5302,-138.2232"/>
<polygon fill="#191970" stroke="#191970" points="904.8767,-140.8214 910.1683,-131.6427 900.3077,-135.5182 904.8767,-140.8214"/>
</g>
<!-- Node27 -->
<g id="node28" class="node">
<title>Node27</title>
<polygon fill="#ffffff" stroke="#bfbfbf" points="964.8607,-112.5 964.8607,-131.5 1071.8607,-131.5 1071.8607,-112.5 964.8607,-112.5"/>
<text text-anchor="middle" x="1018.3607" y="-119.5" font-family="Helvetica,sans-Serif" font-size="10.00" fill="#000000">architecture_arch.h</text>
</g>
<!-- Node25&#45;&gt;Node27 -->
<g id="edge47" class="edge">
<title>Node25&#45;&gt;Node27</title>
<path fill="none" stroke="#191970" d="M884.2095,-168.3733C911.031,-159.1016 951.7734,-145.0178 981.3205,-134.804"/>
<polygon fill="#191970" stroke="#191970" points="982.5676,-138.0762 990.8753,-131.5011 980.2806,-131.4603 982.5676,-138.0762"/>
</g>
<!-- Node30 -->
<g id="node31" class="node">
<title>Node30</title>
<g id="a_node31"><a xlink:href="clist_8h.html" target="_top" xlink:title="Circular linked list. ">
<polygon fill="#ffffff" stroke="#000000" points="1272.8607,-168.5 1272.8607,-187.5 1315.8607,-187.5 1315.8607,-168.5 1272.8607,-168.5"/>
<text text-anchor="middle" x="1294.3607" y="-175.5" font-family="Helvetica,sans-Serif" font-size="10.00" fill="#000000">clist.h</text>
</a>
</g>
</g>
<!-- Node29&#45;&gt;Node30 -->
<g id="edge51" class="edge">
<title>Node29&#45;&gt;Node30</title>
<path fill="none" stroke="#191970" d="M1107.9453,-340.7531C1135.3444,-334.6156 1176.7909,-322.3259 1206.3607,-300 1243.6926,-271.8136 1271.8642,-223.3452 1285.4182,-196.775"/>
<polygon fill="#191970" stroke="#191970" points="1288.5852,-198.2666 1289.8858,-187.7519 1282.312,-195.1605 1288.5852,-198.2666"/>
</g>
<!-- Node31 -->
<g id="node32" class="node">
<title>Node31</title>
<g id="a_node32"><a xlink:href="cib_8h.html" target="_top" xlink:title="Circular integer buffer interface. ">
<polygon fill="#ffffff" stroke="#000000" points="830.3607,-280.5 830.3607,-299.5 868.3607,-299.5 868.3607,-280.5 830.3607,-280.5"/>
<text text-anchor="middle" x="849.3607" y="-287.5" font-family="Helvetica,sans-Serif" font-size="10.00" fill="#000000">cib.h</text>
</a>
</g>
</g>
<!-- Node29&#45;&gt;Node31 -->
<g id="edge55" class="edge">
<title>Node29&#45;&gt;Node31</title>
<path fill="none" stroke="#191970" d="M1050.6961,-339.0208C1006.6601,-328.299 922.8225,-307.8863 878.5015,-297.0952"/>
<polygon fill="#191970" stroke="#191970" points="879.189,-293.6604 868.6449,-294.6953 877.533,-300.4617 879.189,-293.6604"/>
</g>
<!-- Node32 -->
<g id="node33" class="node">
<title>Node32</title>
<g id="a_node33"><a xlink:href="core_2include_2msg_8h.html" target="_top" xlink:title="Messaging API for inter process communication. ">
<polygon fill="#ffffff" stroke="#000000" points="1005.8607,-280.5 1005.8607,-299.5 1050.8607,-299.5 1050.8607,-280.5 1005.8607,-280.5"/>
<text text-anchor="middle" x="1028.3607" y="-287.5" font-family="Helvetica,sans-Serif" font-size="10.00" fill="#000000">msg.h</text>
</a>
</g>
</g>
<!-- Node29&#45;&gt;Node32 -->
<g id="edge57" class="edge">
<title>Node29&#45;&gt;Node32</title>
<path fill="none" stroke="#191970" d="M1070.4772,-336.2455C1063.1641,-328.2155 1052.6216,-316.6394 1043.914,-307.0781"/>
<polygon fill="#191970" stroke="#191970" points="1046.4635,-304.6795 1037.1424,-299.6427 1041.2881,-309.3928 1046.4635,-304.6795"/>
</g>
<!-- Node33 -->
<g id="node34" class="node">
<title>Node33</title>
<g id="a_node34"><a xlink:href="sched_8h.html" target="_top" xlink:title="Scheduler API definition. ">
<polygon fill="#ffffff" stroke="#000000" points="1057.8607,-224.5 1057.8607,-243.5 1110.8607,-243.5 1110.8607,-224.5 1057.8607,-224.5"/>
<text text-anchor="middle" x="1084.3607" y="-231.5" font-family="Helvetica,sans-Serif" font-size="10.00" fill="#000000">sched.h</text>
</a>
</g>
</g>
<!-- Node29&#45;&gt;Node33 -->
<g id="edge66" class="edge">
<title>Node29&#45;&gt;Node33</title>
<path fill="none" stroke="#191970" d="M1079.787,-336.4509C1080.6025,-318.184 1082.3984,-277.9553 1083.4814,-253.6976"/>
<polygon fill="#191970" stroke="#191970" points="1086.9859,-253.6711 1083.9355,-243.5249 1079.9929,-253.3588 1086.9859,-253.6711"/>
</g>
<!-- Node35 -->
<g id="node36" class="node">
<title>Node35</title>
<g id="a_node36"><a xlink:href="thread__config_8h.html" target="_top" xlink:title="Thread configuration defines. ">
<polygon fill="#ffffff" stroke="#000000" points="1107.3607,-280.5 1107.3607,-299.5 1197.3607,-299.5 1197.3607,-280.5 1107.3607,-280.5"/>
<text text-anchor="middle" x="1152.3607" y="-287.5" font-family="Helvetica,sans-Serif" font-size="10.00" fill="#000000">thread_config.h</text>
</a>
</g>
</g>
<!-- Node29&#45;&gt;Node35 -->
<g id="edge67" class="edge">
<title>Node29&#45;&gt;Node35</title>
<path fill="none" stroke="#191970" d="M1092.0763,-336.2455C1102.9628,-327.8943 1118.849,-315.7076 1131.5807,-305.9408"/>
<polygon fill="#191970" stroke="#191970" points="1133.9868,-308.5063 1139.7908,-299.6427 1129.7261,-302.9523 1133.9868,-308.5063"/>
</g>
<!-- Node37 -->
<g id="node38" class="node">
<title>Node37</title>
<polygon fill="#ffffff" stroke="#bfbfbf" points="1253.3607,-280.5 1253.3607,-299.5 1335.3607,-299.5 1335.3607,-280.5 1253.3607,-280.5"/>
<text text-anchor="middle" x="1294.3607" y="-287.5" font-family="Helvetica,sans-Serif" font-size="10.00" fill="#000000">thread_arch.h</text>
</g>
<!-- Node29&#45;&gt;Node37 -->
<g id="edge70" class="edge">
<title>Node29&#45;&gt;Node37</title>
<path fill="none" stroke="#191970" d="M1107.9111,-338.5636C1143.6543,-329.2538 1205.3499,-313.1842 1247.9251,-302.0949"/>
<polygon fill="#191970" stroke="#191970" points="1248.9779,-305.4375 1257.7728,-299.5299 1247.2135,-298.6635 1248.9779,-305.4375"/>
</g>
<!-- Node30&#45;&gt;Node14 -->
<g id="edge53" class="edge">
<title>Node30&#45;&gt;Node14</title>
<path fill="none" stroke="#191970" d="M1293.5683,-168.261C1291.4922,-146.8238 1284.5793,-94.4083 1264.3607,-56 1258.7546,-45.3503 1250.1579,-35.1772 1242.2816,-27.1185"/>
<polygon fill="#191970" stroke="#191970" points="1244.3918,-24.2885 1234.783,-19.8253 1239.5113,-29.3065 1244.3918,-24.2885"/>
</g>
<!-- Node30&#45;&gt;Node17 -->
<g id="edge52" class="edge">
<title>Node30&#45;&gt;Node17</title>
<path fill="none" stroke="#191970" d="M1276.5937,-168.2455C1260.6512,-159.4928 1237.0348,-146.527 1218.8618,-136.5496"/>
<polygon fill="#191970" stroke="#191970" points="1220.3744,-133.3873 1209.9242,-131.6427 1217.0055,-139.5233 1220.3744,-133.3873"/>
</g>
<!-- Node30&#45;&gt;Node28 -->
<g id="edge54" class="edge">
<title>Node30&#45;&gt;Node28</title>
<path fill="none" stroke="#191970" d="M1304.2894,-168.2455C1312.5445,-160.1352 1324.4816,-148.4075 1334.2689,-138.7919"/>
<polygon fill="#191970" stroke="#191970" points="1336.8653,-141.1476 1341.5459,-131.6427 1331.9596,-136.1542 1336.8653,-141.1476"/>
</g>
<!-- Node31&#45;&gt;Node22 -->
<g id="edge56" class="edge">
<title>Node31&#45;&gt;Node22</title>
<path fill="none" stroke="#191970" d="M830.0075,-285.1583C807.315,-278.7312 769.4886,-265.6042 743.3607,-244 688.6391,-198.7527 701.9423,-163.7842 653.3607,-112 642.6676,-100.602 628.9919,-89.7561 617.4998,-81.4614"/>
<polygon fill="#191970" stroke="#191970" points="619.418,-78.5317 609.2229,-75.6488 615.395,-84.2602 619.418,-78.5317"/>
</g>
<!-- Node32&#45;&gt;Node2 -->
<g id="edge58" class="edge">
<title>Node32&#45;&gt;Node2</title>
<path fill="none" stroke="#191970" d="M1005.7814,-282.4411C962.876,-267.5923 867.3386,-232.1814 794.3607,-188 714.3203,-139.5429 714.3965,-97.1406 630.3607,-56 578.8486,-30.7817 512.7475,-18.9377 472.522,-13.7197"/>
<polygon fill="#191970" stroke="#191970" points="472.7391,-10.2201 462.3869,-12.4747 471.8856,-17.1679 472.7391,-10.2201"/>
</g>
<!-- Node32&#45;&gt;Node17 -->
<g id="edge59" class="edge">
<title>Node32&#45;&gt;Node17</title>
<path fill="none" stroke="#191970" d="M1026.8737,-280.3862C1023.9575,-257.8062 1020.0328,-200.8216 1048.3607,-168 1055.3755,-159.8724 1112.2561,-143.341 1152.3889,-132.4697"/>
<polygon fill="#191970" stroke="#191970" points="1153.4414,-135.8111 1162.1908,-129.8363 1151.6251,-129.0509 1153.4414,-135.8111"/>
</g>
<!-- Node32&#45;&gt;Node33 -->
<g id="edge60" class="edge">
<title>Node32&#45;&gt;Node33</title>
<path fill="none" stroke="#191970" d="M1038.1152,-280.2455C1046.2255,-272.1352 1057.9532,-260.4075 1067.5688,-250.7919"/>
<polygon fill="#191970" stroke="#191970" points="1070.1218,-253.1887 1074.718,-243.6427 1065.1721,-248.2389 1070.1218,-253.1887"/>
</g>
<!-- Node33&#45;&gt;Node4 -->
<g id="edge62" class="edge">
<title>Node33&#45;&gt;Node4</title>
<path fill="none" stroke="#191970" d="M1057.5878,-231.527C991.0898,-225.1159 822.5775,-207.1207 806.3607,-188 795.725,-175.4598 797.6356,-156.2522 801.372,-141.7856"/>
<polygon fill="#191970" stroke="#191970" points="804.837,-142.4222 804.4076,-131.836 798.1417,-140.3794 804.837,-142.4222"/>
</g>
<!-- Node33&#45;&gt;Node14 -->
<g id="edge61" class="edge">
<title>Node33&#45;&gt;Node14</title>
<path fill="none" stroke="#191970" d="M1111.1004,-224.5711C1146.1904,-210.5648 1206.257,-180.5662 1231.3607,-132 1248.3412,-99.1493 1238.5047,-54.5084 1230.4871,-29.3391"/>
<polygon fill="#191970" stroke="#191970" points="1233.6861,-27.8765 1227.14,-19.5459 1227.0622,-30.1404 1233.6861,-27.8765"/>
</g>
<!-- Node33&#45;&gt;Node18 -->
<g id="edge63" class="edge">
<title>Node33&#45;&gt;Node18</title>
<path fill="none" stroke="#191970" d="M1057.5812,-230.8692C982.266,-222.0641 767.3269,-196.9355 663.2406,-184.7667"/>
<polygon fill="#191970" stroke="#191970" points="663.5593,-181.2803 653.2205,-183.5953 662.7464,-188.2329 663.5593,-181.2803"/>
</g>
<!-- Node33&#45;&gt;Node30 -->
<g id="edge65" class="edge">
<title>Node33&#45;&gt;Node30</title>
<path fill="none" stroke="#191970" d="M1111.0842,-226.5264C1114.2096,-225.6673 1117.3542,-224.8097 1120.3607,-224 1181.566,-207.5171 1197.1554,-204.4829 1258.3607,-188 1259.8092,-187.6099 1261.2897,-187.2087 1262.7846,-186.8016"/>
<polygon fill="#191970" stroke="#191970" points="1263.959,-190.1087 1272.6739,-184.0837 1262.1038,-183.359 1263.959,-190.1087"/>
</g>
<!-- Node34 -->
<g id="node35" class="node">
<title>Node34</title>
<g id="a_node35"><a xlink:href="native__sched_8h.html" target="_top" xlink:title="Add definitions required on the native board. ">
<polygon fill="#ffffff" stroke="#000000" points="1057.3607,-168.5 1057.3607,-187.5 1143.3607,-187.5 1143.3607,-168.5 1057.3607,-168.5"/>
<text text-anchor="middle" x="1100.3607" y="-175.5" font-family="Helvetica,sans-Serif" font-size="10.00" fill="#000000">native_sched.h</text>
</a>
</g>
</g>
<!-- Node33&#45;&gt;Node34 -->
<g id="edge64" class="edge">
<title>Node33&#45;&gt;Node34</title>
<path fill="none" stroke="#191970" d="M1087.1477,-224.2455C1089.2585,-216.8579 1092.2268,-206.4689 1094.8154,-197.4087"/>
<polygon fill="#191970" stroke="#191970" points="1098.2237,-198.2195 1097.6057,-187.6427 1091.4931,-196.2964 1098.2237,-198.2195"/>
</g>
<!-- Node35&#45;&gt;Node33 -->
<g id="edge69" class="edge">
<title>Node35&#45;&gt;Node33</title>
<path fill="none" stroke="#191970" d="M1140.516,-280.2455C1130.4728,-271.9746 1115.8613,-259.9416 1104.0603,-250.2232"/>
<polygon fill="#191970" stroke="#191970" points="1106.014,-247.298 1096.0697,-243.6427 1101.564,-252.7015 1106.014,-247.298"/>
</g>
<!-- Node36 -->
<g id="node37" class="node">
<title>Node36</title>
<polygon fill="#ffffff" stroke="#bfbfbf" points="1128.8607,-224.5 1128.8607,-243.5 1195.8607,-243.5 1195.8607,-224.5 1128.8607,-224.5"/>
<text text-anchor="middle" x="1162.3607" y="-231.5" font-family="Helvetica,sans-Serif" font-size="10.00" fill="#000000">cpu_conf.h</text>
</g>
<!-- Node35&#45;&gt;Node36 -->
<g id="edge68" class="edge">
<title>Node35&#45;&gt;Node36</title>
<path fill="none" stroke="#191970" d="M1154.1026,-280.2455C1155.4075,-272.9382 1157.2367,-262.6944 1158.842,-253.7046"/>
<polygon fill="#191970" stroke="#191970" points="1162.3263,-254.1022 1160.6388,-243.6427 1155.4353,-252.8717 1162.3263,-254.1022"/>
</g>
</g>
</svg>
