<?xml version="1.0" encoding="UTF-8" standalone="no"?>
<!DOCTYPE svg PUBLIC "-//W3C//DTD SVG 1.1//EN"
 "http://www.w3.org/Graphics/SVG/1.1/DTD/svg11.dtd">
<!-- Generated by graphviz version 2.40.1 (0)
 -->
<!-- Title: pkg/tinyusb/dfu/include/tinyusb_dfu.h Pages: 1 -->
<svg width="384pt" height="263pt"
 viewBox="0.00 0.00 384.00 263.00" xmlns="http://www.w3.org/2000/svg" xmlns:xlink="http://www.w3.org/1999/xlink">
<g id="graph0" class="graph" transform="scale(1 1) rotate(0) translate(4 259)">
<title>pkg/tinyusb/dfu/include/tinyusb_dfu.h</title>
<polygon fill="#ffffff" stroke="transparent" points="-4,4 -4,-259 380,-259 380,4 -4,4"/>
<!-- Node0 -->
<g id="node1" class="node">
<title>Node0</title>
<polygon fill="#bfbfbf" stroke="#000000" points="92.5,-224.5 92.5,-254.5 220.5,-254.5 220.5,-224.5 92.5,-224.5"/>
<text text-anchor="start" x="100.5" y="-242.5" font-family="Helvetica,sans-Serif" font-size="10.00" fill="#000000">pkg/tinyusb/dfu/include</text>
<text text-anchor="middle" x="156.5" y="-231.5" font-family="Helvetica,sans-Serif" font-size="10.00" fill="#000000">/tinyusb_dfu.h</text>
</g>
<!-- Node1 -->
<g id="node2" class="node">
<title>Node1</title>
<g id="a_node2"><a xlink:href="riotboot_2flashwrite_8h.html" target="_top" xlink:title="riotboot flash writing module ">
<polygon fill="#ffffff" stroke="#000000" points="100,-168.5 100,-187.5 213,-187.5 213,-168.5 100,-168.5"/>
<text text-anchor="middle" x="156.5" y="-175.5" font-family="Helvetica,sans-Serif" font-size="10.00" fill="#000000">riotboot/flashwrite.h</text>
</a>
</g>
</g>
<!-- Node0&#45;&gt;Node1 -->
<g id="edge1" class="edge">
<title>Node0&#45;&gt;Node1</title>
<path fill="none" stroke="#191970" d="M156.5,-224.2977C156.5,-216.3834 156.5,-206.6043 156.5,-198.0759"/>
<polygon fill="#191970" stroke="#191970" points="160.0001,-197.8469 156.5,-187.8469 153.0001,-197.847 160.0001,-197.8469"/>
</g>
<!-- Node2 -->
<g id="node3" class="node">
<title>Node2</title>
<g id="a_node3"><a xlink:href="slot_8h.html" target="_top" xlink:title="Slot management tools. ">
<polygon fill="#ffffff" stroke="#000000" points="58.5,-112.5 58.5,-131.5 142.5,-131.5 142.5,-112.5 58.5,-112.5"/>
<text text-anchor="middle" x="100.5" y="-119.5" font-family="Helvetica,sans-Serif" font-size="10.00" fill="#000000">riotboot/slot.h</text>
</a>
</g>
</g>
<!-- Node1&#45;&gt;Node2 -->
<g id="edge2" class="edge">
<title>Node1&#45;&gt;Node2</title>
<path fill="none" stroke="#191970" d="M146.7455,-168.2455C138.6352,-160.1352 126.9075,-148.4075 117.2919,-138.7919"/>
<polygon fill="#191970" stroke="#191970" points="119.6887,-136.2389 110.1427,-131.6427 114.7389,-141.1887 119.6887,-136.2389"/>
</g>
<!-- Node6 -->
<g id="node7" class="node">
<title>Node6</title>
<g id="a_node7"><a xlink:href="flashpage_8h.html" target="_top" xlink:title="Low&#45;level flash page peripheral driver interface. ">
<polygon fill="#ffffff" stroke="#000000" points="161,-112.5 161,-131.5 266,-131.5 266,-112.5 161,-112.5"/>
<text text-anchor="middle" x="213.5" y="-119.5" font-family="Helvetica,sans-Serif" font-size="10.00" fill="#000000">periph/flashpage.h</text>
</a>
</g>
</g>
<!-- Node1&#45;&gt;Node6 -->
<g id="edge6" class="edge">
<title>Node1&#45;&gt;Node6</title>
<path fill="none" stroke="#191970" d="M166.4286,-168.2455C174.6838,-160.1352 186.6209,-148.4075 196.4082,-138.7919"/>
<polygon fill="#191970" stroke="#191970" points="199.0046,-141.1476 203.6851,-131.6427 194.0989,-136.1542 199.0046,-141.1476"/>
</g>
<!-- Node3 -->
<g id="node4" class="node">
<title>Node3</title>
<polygon fill="#ffffff" stroke="#bfbfbf" points="101.5,-56.5 101.5,-75.5 157.5,-75.5 157.5,-56.5 101.5,-56.5"/>
<text text-anchor="middle" x="129.5" y="-63.5" font-family="Helvetica,sans-Serif" font-size="10.00" fill="#000000">stddef.h</text>
</g>
<!-- Node2&#45;&gt;Node3 -->
<g id="edge3" class="edge">
<title>Node2&#45;&gt;Node3</title>
<path fill="none" stroke="#191970" d="M105.5514,-112.2455C109.5019,-104.617 115.1097,-93.7881 119.9058,-84.5267"/>
<polygon fill="#191970" stroke="#191970" points="123.0159,-86.1321 124.5065,-75.6427 116.7999,-82.9131 123.0159,-86.1321"/>
</g>
<!-- Node4 -->
<g id="node5" class="node">
<title>Node4</title>
<g id="a_node5"><a xlink:href="riotboot_2hdr_8h.html" target="_top" xlink:title="RIOT &quot;partition&quot; header and tools. ">
<polygon fill="#ffffff" stroke="#000000" points="0,-56.5 0,-75.5 83,-75.5 83,-56.5 0,-56.5"/>
<text text-anchor="middle" x="41.5" y="-63.5" font-family="Helvetica,sans-Serif" font-size="10.00" fill="#000000">riotboot/hdr.h</text>
</a>
</g>
</g>
<!-- Node2&#45;&gt;Node4 -->
<g id="edge4" class="edge">
<title>Node2&#45;&gt;Node4</title>
<path fill="none" stroke="#191970" d="M90.223,-112.2455C81.6782,-104.1352 69.3222,-92.4075 59.1915,-82.7919"/>
<polygon fill="#191970" stroke="#191970" points="61.3218,-79.9884 51.6592,-75.6427 56.5028,-85.0655 61.3218,-79.9884"/>
</g>
<!-- Node5 -->
<g id="node6" class="node">
<title>Node5</title>
<polygon fill="#ffffff" stroke="#bfbfbf" points="87.5,-.5 87.5,-19.5 139.5,-19.5 139.5,-.5 87.5,-.5"/>
<text text-anchor="middle" x="113.5" y="-7.5" font-family="Helvetica,sans-Serif" font-size="10.00" fill="#000000">stdint.h</text>
</g>
<!-- Node4&#45;&gt;Node5 -->
<g id="edge5" class="edge">
<title>Node4&#45;&gt;Node5</title>
<path fill="none" stroke="#191970" d="M54.0414,-56.2455C64.7787,-47.8943 80.4473,-35.7076 93.0047,-25.9408"/>
<polygon fill="#191970" stroke="#191970" points="95.3575,-28.5449 101.1023,-19.6427 91.0599,-23.0194 95.3575,-28.5449"/>
</g>
<!-- Node6&#45;&gt;Node3 -->
<g id="edge7" class="edge">
<title>Node6&#45;&gt;Node3</title>
<path fill="none" stroke="#191970" d="M198.8683,-112.2455C186.1006,-103.7337 167.3562,-91.2375 152.5701,-81.3801"/>
<polygon fill="#191970" stroke="#191970" points="154.226,-78.2775 143.964,-75.6427 150.3431,-84.1019 154.226,-78.2775"/>
</g>
<!-- Node6&#45;&gt;Node5 -->
<g id="edge8" class="edge">
<title>Node6&#45;&gt;Node5</title>
<path fill="none" stroke="#191970" d="M207.4759,-112.0613C199.1187,-98.6491 183.1461,-74.326 166.5,-56 156.7721,-45.2904 144.6649,-34.6185 134.479,-26.2538"/>
<polygon fill="#191970" stroke="#191970" points="136.4573,-23.3535 126.4691,-19.8198 132.0736,-28.811 136.4573,-23.3535"/>
</g>
<!-- Node7 -->
<g id="node8" class="node">
<title>Node7</title>
<polygon fill="#ffffff" stroke="#bfbfbf" points="214,-56.5 214,-75.5 281,-75.5 281,-56.5 214,-56.5"/>
<text text-anchor="middle" x="247.5" y="-63.5" font-family="Helvetica,sans-Serif" font-size="10.00" fill="#000000">cpu_conf.h</text>
</g>
<!-- Node6&#45;&gt;Node7 -->
<g id="edge9" class="edge">
<title>Node6&#45;&gt;Node7</title>
<path fill="none" stroke="#191970" d="M219.4223,-112.2455C224.1027,-104.5367 230.7673,-93.5598 236.4289,-84.2348"/>
<polygon fill="#191970" stroke="#191970" points="239.4475,-86.007 241.6455,-75.6427 233.4639,-82.3741 239.4475,-86.007"/>
</g>
<!-- Node8 -->
<g id="node9" class="node">
<title>Node8</title>
<polygon fill="#ffffff" stroke="#bfbfbf" points="299,-56.5 299,-75.5 376,-75.5 376,-56.5 299,-56.5"/>
<text text-anchor="middle" x="337.5" y="-63.5" font-family="Helvetica,sans-Serif" font-size="10.00" fill="#000000">periph_cpu.h</text>
</g>
<!-- Node6&#45;&gt;Node8 -->
<g id="edge10" class="edge">
<title>Node6&#45;&gt;Node8</title>
<path fill="none" stroke="#191970" d="M234.8164,-112.3733C254.7216,-103.3838 284.6436,-89.8706 307.06,-79.7471"/>
<polygon fill="#191970" stroke="#191970" points="308.7887,-82.8068 316.4618,-75.5011 305.9075,-76.4272 308.7887,-82.8068"/>
</g>
</g>
</svg>
