<?xml version="1.0" encoding="UTF-8" standalone="no"?>
<!DOCTYPE svg PUBLIC "-//W3C//DTD SVG 1.1//EN"
 "http://www.w3.org/Graphics/SVG/1.1/DTD/svg11.dtd">
<!-- Generated by graphviz version 2.40.1 (0)
 -->
<!-- Title: drivers/tmp00x/include/tmp00x_params.h Pages: 1 -->
<svg width="764pt" height="319pt"
 viewBox="0.00 0.00 763.52 319.00" xmlns="http://www.w3.org/2000/svg" xmlns:xlink="http://www.w3.org/1999/xlink">
<g id="graph0" class="graph" transform="scale(1 1) rotate(0) translate(4 315)">
<title>drivers/tmp00x/include/tmp00x_params.h</title>
<polygon fill="#ffffff" stroke="transparent" points="-4,4 -4,-315 759.5175,-315 759.5175,4 -4,4"/>
<!-- Node0 -->
<g id="node1" class="node">
<title>Node0</title>
<polygon fill="#bfbfbf" stroke="#000000" points="126.7488,-280.5 126.7488,-310.5 252.7488,-310.5 252.7488,-280.5 126.7488,-280.5"/>
<text text-anchor="start" x="134.7488" y="-298.5" font-family="Helvetica,sans-Serif" font-size="10.00" fill="#000000">drivers/tmp00x/include</text>
<text text-anchor="middle" x="189.7488" y="-287.5" font-family="Helvetica,sans-Serif" font-size="10.00" fill="#000000">/tmp00x_params.h</text>
</g>
<!-- Node1 -->
<g id="node2" class="node">
<title>Node1</title>
<polygon fill="#ffffff" stroke="#bfbfbf" points="108.2488,-224.5 108.2488,-243.5 161.2488,-243.5 161.2488,-224.5 108.2488,-224.5"/>
<text text-anchor="middle" x="134.7488" y="-231.5" font-family="Helvetica,sans-Serif" font-size="10.00" fill="#000000">board.h</text>
</g>
<!-- Node0&#45;&gt;Node1 -->
<g id="edge1" class="edge">
<title>Node0&#45;&gt;Node1</title>
<path fill="none" stroke="#191970" d="M176.1533,-280.2977C168.3597,-271.5831 158.5441,-260.6075 150.4262,-251.5302"/>
<polygon fill="#191970" stroke="#191970" points="152.8301,-248.9678 143.555,-243.8469 147.6123,-253.6341 152.8301,-248.9678"/>
</g>
<!-- Node2 -->
<g id="node3" class="node">
<title>Node2</title>
<g id="a_node3"><a xlink:href="tmp00x_8h.html" target="_top" xlink:title="Interface definition for the TMP00X sensor driver. ">
<polygon fill="#ffffff" stroke="#000000" points="293.7488,-224.5 293.7488,-243.5 355.7488,-243.5 355.7488,-224.5 293.7488,-224.5"/>
<text text-anchor="middle" x="324.7488" y="-231.5" font-family="Helvetica,sans-Serif" font-size="10.00" fill="#000000">tmp00x.h</text>
</a>
</g>
</g>
<!-- Node0&#45;&gt;Node2 -->
<g id="edge2" class="edge">
<title>Node0&#45;&gt;Node2</title>
<path fill="none" stroke="#191970" d="M222.7735,-280.4554C244.7058,-270.464 273.2761,-257.4487 294.594,-247.7372"/>
<polygon fill="#191970" stroke="#191970" points="296.1794,-250.8611 303.8286,-243.5303 293.2774,-244.4909 296.1794,-250.8611"/>
</g>
<!-- Node16 -->
<g id="node17" class="node">
<title>Node16</title>
<g id="a_node17"><a xlink:href="saul__reg_8h.html" target="_top" xlink:title="SAUL registry interface definition. ">
<polygon fill="#ffffff" stroke="#000000" points="46.2488,-168.5 46.2488,-187.5 111.2488,-187.5 111.2488,-168.5 46.2488,-168.5"/>
<text text-anchor="middle" x="78.7488" y="-175.5" font-family="Helvetica,sans-Serif" font-size="10.00" fill="#000000">saul_reg.h</text>
</a>
</g>
</g>
<!-- Node0&#45;&gt;Node16 -->
<g id="edge22" class="edge">
<title>Node0&#45;&gt;Node16</title>
<path fill="none" stroke="#191970" d="M189.0287,-280.475C187.5474,-264.7819 183.0861,-240.234 169.7488,-224 157.233,-208.766 138.3833,-198.0806 121.0798,-190.8695"/>
<polygon fill="#191970" stroke="#191970" points="122.2646,-187.575 111.6759,-187.214 119.7284,-194.0994 122.2646,-187.575"/>
</g>
<!-- Node3 -->
<g id="node4" class="node">
<title>Node3</title>
<polygon fill="#ffffff" stroke="#bfbfbf" points="325.7488,-.5 325.7488,-19.5 377.7488,-19.5 377.7488,-.5 325.7488,-.5"/>
<text text-anchor="middle" x="351.7488" y="-7.5" font-family="Helvetica,sans-Serif" font-size="10.00" fill="#000000">stdint.h</text>
</g>
<!-- Node2&#45;&gt;Node3 -->
<g id="edge3" class="edge">
<title>Node2&#45;&gt;Node3</title>
<path fill="none" stroke="#191970" d="M355.8074,-231.8257C469.0325,-222.8313 847.2666,-182.8403 734.7488,-56 711.9311,-30.2778 479.24,-16.2217 388.0898,-11.6678"/>
<polygon fill="#191970" stroke="#191970" points="388.1095,-8.1647 377.9503,-11.1715 387.7672,-15.1563 388.1095,-8.1647"/>
</g>
<!-- Node4 -->
<g id="node5" class="node">
<title>Node4</title>
<polygon fill="#ffffff" stroke="#bfbfbf" points="198.7488,-168.5 198.7488,-187.5 258.7488,-187.5 258.7488,-168.5 198.7488,-168.5"/>
<text text-anchor="middle" x="228.7488" y="-175.5" font-family="Helvetica,sans-Serif" font-size="10.00" fill="#000000">stdbool.h</text>
</g>
<!-- Node2&#45;&gt;Node4 -->
<g id="edge4" class="edge">
<title>Node2&#45;&gt;Node4</title>
<path fill="none" stroke="#191970" d="M308.0269,-224.2455C293.1599,-215.5731 271.2022,-202.7645 254.163,-192.825"/>
<polygon fill="#191970" stroke="#191970" points="255.6805,-189.6582 245.2791,-187.6427 252.1533,-195.7047 255.6805,-189.6582"/>
</g>
<!-- Node5 -->
<g id="node6" class="node">
<title>Node5</title>
<g id="a_node6"><a xlink:href="i2c_8h.html" target="_top" xlink:title="Low&#45;level I2C peripheral driver interface definition. ">
<polygon fill="#ffffff" stroke="#000000" points="512.2488,-112.5 512.2488,-131.5 585.2488,-131.5 585.2488,-112.5 512.2488,-112.5"/>
<text text-anchor="middle" x="548.7488" y="-119.5" font-family="Helvetica,sans-Serif" font-size="10.00" fill="#000000">periph/i2c.h</text>
</a>
</g>
</g>
<!-- Node2&#45;&gt;Node5 -->
<g id="edge5" class="edge">
<title>Node2&#45;&gt;Node5</title>
<path fill="none" stroke="#191970" d="M343.8469,-224.4509C383.3565,-204.6961 474.2357,-159.2565 520.5313,-136.1088"/>
<polygon fill="#191970" stroke="#191970" points="522.32,-139.1276 529.699,-131.5249 519.1895,-132.8666 522.32,-139.1276"/>
</g>
<!-- Node10 -->
<g id="node11" class="node">
<title>Node10</title>
<g id="a_node11"><a xlink:href="kernel__defines_8h.html" target="_top" xlink:title="Common macros and compiler attributes/pragmas configuration. ">
<polygon fill="#ffffff" stroke="#000000" points="277.2488,-168.5 277.2488,-187.5 372.2488,-187.5 372.2488,-168.5 277.2488,-168.5"/>
<text text-anchor="middle" x="324.7488" y="-175.5" font-family="Helvetica,sans-Serif" font-size="10.00" fill="#000000">kernel_defines.h</text>
</a>
</g>
</g>
<!-- Node2&#45;&gt;Node10 -->
<g id="edge11" class="edge">
<title>Node2&#45;&gt;Node10</title>
<path fill="none" stroke="#191970" d="M324.7488,-224.2455C324.7488,-216.9382 324.7488,-206.6944 324.7488,-197.7046"/>
<polygon fill="#191970" stroke="#191970" points="328.2489,-197.6426 324.7488,-187.6427 321.2489,-197.6427 328.2489,-197.6426"/>
</g>
<!-- Node5&#45;&gt;Node3 -->
<g id="edge6" class="edge">
<title>Node5&#45;&gt;Node3</title>
<path fill="none" stroke="#191970" d="M585.2975,-119.932C645.6838,-115.2253 755.9225,-100.4205 716.7488,-56 705.9168,-43.7172 478.0945,-21.584 387.9775,-13.2724"/>
<polygon fill="#191970" stroke="#191970" points="388.2209,-9.7801 377.9428,-12.3516 387.5812,-16.7509 388.2209,-9.7801"/>
</g>
<!-- Node6 -->
<g id="node7" class="node">
<title>Node6</title>
<polygon fill="#ffffff" stroke="#bfbfbf" points="240.7488,-56.5 240.7488,-75.5 296.7488,-75.5 296.7488,-56.5 240.7488,-56.5"/>
<text text-anchor="middle" x="268.7488" y="-63.5" font-family="Helvetica,sans-Serif" font-size="10.00" fill="#000000">stddef.h</text>
</g>
<!-- Node5&#45;&gt;Node6 -->
<g id="edge7" class="edge">
<title>Node5&#45;&gt;Node6</title>
<path fill="none" stroke="#191970" d="M512.1437,-114.679C458.9457,-104.0394 360.7456,-84.3994 306.7647,-73.6032"/>
<polygon fill="#191970" stroke="#191970" points="307.3948,-70.16 296.9025,-71.6307 306.0219,-77.024 307.3948,-70.16"/>
</g>
<!-- Node7 -->
<g id="node8" class="node">
<title>Node7</title>
<polygon fill="#ffffff" stroke="#bfbfbf" points="462.7488,-56.5 462.7488,-75.5 512.7488,-75.5 512.7488,-56.5 462.7488,-56.5"/>
<text text-anchor="middle" x="487.7488" y="-63.5" font-family="Helvetica,sans-Serif" font-size="10.00" fill="#000000">limits.h</text>
</g>
<!-- Node5&#45;&gt;Node7 -->
<g id="edge8" class="edge">
<title>Node5&#45;&gt;Node7</title>
<path fill="none" stroke="#191970" d="M538.1234,-112.2455C529.2015,-104.0549 516.2608,-92.1749 505.7296,-82.5069"/>
<polygon fill="#191970" stroke="#191970" points="507.9859,-79.8271 498.2524,-75.6427 503.252,-84.9837 507.9859,-79.8271"/>
</g>
<!-- Node8 -->
<g id="node9" class="node">
<title>Node8</title>
<polygon fill="#ffffff" stroke="#bfbfbf" points="531.2488,-56.5 531.2488,-75.5 612.2488,-75.5 612.2488,-56.5 531.2488,-56.5"/>
<text text-anchor="middle" x="571.7488" y="-63.5" font-family="Helvetica,sans-Serif" font-size="10.00" fill="#000000">periph_conf.h</text>
</g>
<!-- Node5&#45;&gt;Node8 -->
<g id="edge9" class="edge">
<title>Node5&#45;&gt;Node8</title>
<path fill="none" stroke="#191970" d="M552.7551,-112.2455C555.8223,-104.7776 560.1491,-94.2427 563.8985,-85.1137"/>
<polygon fill="#191970" stroke="#191970" points="567.2267,-86.2226 567.7884,-75.6427 560.7516,-83.5631 567.2267,-86.2226"/>
</g>
<!-- Node9 -->
<g id="node10" class="node">
<title>Node9</title>
<polygon fill="#ffffff" stroke="#bfbfbf" points="630.2488,-56.5 630.2488,-75.5 707.2488,-75.5 707.2488,-56.5 630.2488,-56.5"/>
<text text-anchor="middle" x="668.7488" y="-63.5" font-family="Helvetica,sans-Serif" font-size="10.00" fill="#000000">periph_cpu.h</text>
</g>
<!-- Node5&#45;&gt;Node9 -->
<g id="edge10" class="edge">
<title>Node5&#45;&gt;Node9</title>
<path fill="none" stroke="#191970" d="M569.3775,-112.3733C588.6406,-103.3838 617.5974,-89.8706 639.2907,-79.7471"/>
<polygon fill="#191970" stroke="#191970" points="640.8075,-82.9017 648.3892,-75.5011 637.8473,-76.5584 640.8075,-82.9017"/>
</g>
<!-- Node11 -->
<g id="node12" class="node">
<title>Node11</title>
<g id="a_node12"><a xlink:href="modules_8h.html" target="_top" xlink:title="Common macros and compiler attributes/pragmas configuration. ">
<polygon fill="#ffffff" stroke="#000000" points="119.2488,-56.5 119.2488,-75.5 184.2488,-75.5 184.2488,-56.5 119.2488,-56.5"/>
<text text-anchor="middle" x="151.7488" y="-63.5" font-family="Helvetica,sans-Serif" font-size="10.00" fill="#000000">modules.h</text>
</a>
</g>
</g>
<!-- Node10&#45;&gt;Node11 -->
<g id="edge12" class="edge">
<title>Node10&#45;&gt;Node11</title>
<path fill="none" stroke="#191970" d="M282.5837,-168.4471C246.0801,-159.4711 196.8408,-145.4437 181.7488,-132 168.1181,-119.8581 160.3031,-100.2907 156.0892,-85.6082"/>
<polygon fill="#191970" stroke="#191970" points="159.3853,-84.3677 153.532,-75.5366 152.6006,-86.0904 159.3853,-84.3677"/>
</g>
<!-- Node12 -->
<g id="node13" class="node">
<title>Node12</title>
<g id="a_node13"><a xlink:href="riot__version_8h.html" target="_top" xlink:title="Common macros and compiler attributes/pragmas configuration. ">
<polygon fill="#ffffff" stroke="#000000" points="191.2488,-112.5 191.2488,-131.5 272.2488,-131.5 272.2488,-112.5 191.2488,-112.5"/>
<text text-anchor="middle" x="231.7488" y="-119.5" font-family="Helvetica,sans-Serif" font-size="10.00" fill="#000000">riot_version.h</text>
</a>
</g>
</g>
<!-- Node10&#45;&gt;Node12 -->
<g id="edge13" class="edge">
<title>Node10&#45;&gt;Node12</title>
<path fill="none" stroke="#191970" d="M308.5494,-168.2455C294.147,-159.5731 272.8756,-146.7645 256.3688,-136.825"/>
<polygon fill="#191970" stroke="#191970" points="258.1348,-133.8028 247.7625,-131.6427 254.5238,-139.7996 258.1348,-133.8028"/>
</g>
<!-- Node13 -->
<g id="node14" class="node">
<title>Node13</title>
<g id="a_node14"><a xlink:href="compiler__hints_8h.html" target="_top" xlink:title="Common macros and compiler attributes/pragmas configuration. ">
<polygon fill="#ffffff" stroke="#000000" points="377.2488,-112.5 377.2488,-131.5 470.2488,-131.5 470.2488,-112.5 377.2488,-112.5"/>
<text text-anchor="middle" x="423.7488" y="-119.5" font-family="Helvetica,sans-Serif" font-size="10.00" fill="#000000">compiler_hints.h</text>
</a>
</g>
</g>
<!-- Node10&#45;&gt;Node13 -->
<g id="edge15" class="edge">
<title>Node10&#45;&gt;Node13</title>
<path fill="none" stroke="#191970" d="M341.9933,-168.2455C357.3249,-159.5731 379.9687,-146.7645 397.5403,-136.825"/>
<polygon fill="#191970" stroke="#191970" points="399.7211,-139.6126 406.7019,-131.6427 396.2747,-133.5198 399.7211,-139.6126"/>
</g>
<!-- Node15 -->
<g id="node16" class="node">
<title>Node15</title>
<g id="a_node16"><a xlink:href="container_8h.html" target="_top" xlink:title="Common macros and compiler attributes/pragmas configuration. ">
<polygon fill="#ffffff" stroke="#000000" points="290.2488,-112.5 290.2488,-131.5 359.2488,-131.5 359.2488,-112.5 290.2488,-112.5"/>
<text text-anchor="middle" x="324.7488" y="-119.5" font-family="Helvetica,sans-Serif" font-size="10.00" fill="#000000">container.h</text>
</a>
</g>
</g>
<!-- Node10&#45;&gt;Node15 -->
<g id="edge19" class="edge">
<title>Node10&#45;&gt;Node15</title>
<path fill="none" stroke="#191970" d="M324.7488,-168.2455C324.7488,-160.9382 324.7488,-150.6944 324.7488,-141.7046"/>
<polygon fill="#191970" stroke="#191970" points="328.2489,-141.6426 324.7488,-131.6427 321.2489,-141.6427 328.2489,-141.6426"/>
</g>
<!-- Node12&#45;&gt;Node3 -->
<g id="edge14" class="edge">
<title>Node12&#45;&gt;Node3</title>
<path fill="none" stroke="#191970" d="M228.6589,-112.4966C224.8102,-98.7201 220.0627,-72.9949 231.7488,-56 241.6159,-41.6503 284.0702,-27.6965 315.7002,-18.9915"/>
<polygon fill="#191970" stroke="#191970" points="316.7813,-22.3254 325.5343,-16.3558 314.9691,-15.564 316.7813,-22.3254"/>
</g>
<!-- Node13&#45;&gt;Node3 -->
<g id="edge18" class="edge">
<title>Node13&#45;&gt;Node3</title>
<path fill="none" stroke="#191970" d="M424.8862,-112.2774C425.9899,-98.6843 426.2078,-73.6836 415.7488,-56 407.9013,-42.7318 394.5666,-32.2332 382.0939,-24.6359"/>
<polygon fill="#191970" stroke="#191970" points="383.6793,-21.5114 373.2549,-19.6187 380.2238,-27.599 383.6793,-21.5114"/>
</g>
<!-- Node14 -->
<g id="node15" class="node">
<title>Node14</title>
<g id="a_node15"><a xlink:href="assert_8h.html" target="_top" xlink:title="POSIX.1&#45;2008 compliant version of the assert macro. ">
<polygon fill="#ffffff" stroke="#000000" points="352.7488,-56.5 352.7488,-75.5 406.7488,-75.5 406.7488,-56.5 352.7488,-56.5"/>
<text text-anchor="middle" x="379.7488" y="-63.5" font-family="Helvetica,sans-Serif" font-size="10.00" fill="#000000">assert.h</text>
</a>
</g>
</g>
<!-- Node13&#45;&gt;Node14 -->
<g id="edge16" class="edge">
<title>Node13&#45;&gt;Node14</title>
<path fill="none" stroke="#191970" d="M416.0846,-112.2455C409.9015,-104.3761 401.0424,-93.101 393.6199,-83.6542"/>
<polygon fill="#191970" stroke="#191970" points="396.2555,-81.3435 387.3252,-75.6427 390.7513,-85.6683 396.2555,-81.3435"/>
</g>
<!-- Node14&#45;&gt;Node3 -->
<g id="edge17" class="edge">
<title>Node14&#45;&gt;Node3</title>
<path fill="none" stroke="#191970" d="M374.8716,-56.2455C371.0974,-48.6973 365.7567,-38.0158 361.1587,-28.8197"/>
<polygon fill="#191970" stroke="#191970" points="364.1728,-27.0217 356.5701,-19.6427 357.9118,-30.1522 364.1728,-27.0217"/>
</g>
<!-- Node15&#45;&gt;Node3 -->
<g id="edge21" class="edge">
<title>Node15&#45;&gt;Node3</title>
<path fill="none" stroke="#191970" d="M327.0508,-112.4509C331.4744,-94.1013 341.2403,-53.5908 347.0794,-29.3693"/>
<polygon fill="#191970" stroke="#191970" points="350.5115,-30.0667 349.4526,-19.5249 343.7064,-28.4261 350.5115,-30.0667"/>
</g>
<!-- Node15&#45;&gt;Node6 -->
<g id="edge20" class="edge">
<title>Node15&#45;&gt;Node6</title>
<path fill="none" stroke="#191970" d="M314.9943,-112.2455C306.884,-104.1352 295.1563,-92.4075 285.5407,-82.7919"/>
<polygon fill="#191970" stroke="#191970" points="287.9374,-80.2389 278.3915,-75.6427 282.9877,-85.1887 287.9374,-80.2389"/>
</g>
<!-- Node16&#45;&gt;Node3 -->
<g id="edge23" class="edge">
<title>Node16&#45;&gt;Node3</title>
<path fill="none" stroke="#191970" d="M51.0529,-168.4275C34.7025,-161.1781 15.3749,-149.4435 5.7488,-132 -3.692,-114.8921 -1.0302,-70.6812 13.7488,-56 34.9305,-34.9583 232.4799,-18.5229 315.3905,-12.4937"/>
<polygon fill="#191970" stroke="#191970" points="315.8837,-15.9674 325.6078,-11.7613 315.3831,-8.9853 315.8837,-15.9674"/>
</g>
<!-- Node17 -->
<g id="node18" class="node">
<title>Node17</title>
<polygon fill="#ffffff" stroke="#bfbfbf" points="90.7488,-112.5 90.7488,-131.5 134.7488,-131.5 134.7488,-112.5 90.7488,-112.5"/>
<text text-anchor="middle" x="112.7488" y="-119.5" font-family="Helvetica,sans-Serif" font-size="10.00" fill="#000000">saul.h</text>
</g>
<!-- Node16&#45;&gt;Node17 -->
<g id="edge24" class="edge">
<title>Node16&#45;&gt;Node17</title>
<path fill="none" stroke="#191970" d="M84.6711,-168.2455C89.3515,-160.5367 96.016,-149.5598 101.6777,-140.2348"/>
<polygon fill="#191970" stroke="#191970" points="104.6962,-142.007 106.8943,-131.6427 98.7127,-138.3741 104.6962,-142.007"/>
</g>
<!-- Node18 -->
<g id="node19" class="node">
<title>Node18</title>
<g id="a_node19"><a xlink:href="phydat_8h.html" target="_top" xlink:title="Generic data container for physical data interface. ">
<polygon fill="#ffffff" stroke="#000000" points="14.7488,-112.5 14.7488,-131.5 72.7488,-131.5 72.7488,-112.5 14.7488,-112.5"/>
<text text-anchor="middle" x="43.7488" y="-119.5" font-family="Helvetica,sans-Serif" font-size="10.00" fill="#000000">phydat.h</text>
</a>
</g>
</g>
<!-- Node16&#45;&gt;Node18 -->
<g id="edge25" class="edge">
<title>Node16&#45;&gt;Node18</title>
<path fill="none" stroke="#191970" d="M72.6523,-168.2455C67.8342,-160.5367 60.9737,-149.5598 55.1455,-140.2348"/>
<polygon fill="#191970" stroke="#191970" points="58.0435,-138.2677 49.7755,-131.6427 52.1075,-141.9777 58.0435,-138.2677"/>
</g>
<!-- Node18&#45;&gt;Node3 -->
<g id="edge27" class="edge">
<title>Node18&#45;&gt;Node3</title>
<path fill="none" stroke="#191970" d="M35.5392,-112.3208C24.6964,-98.3252 8.5433,-72.3298 22.7488,-56 41.7676,-34.137 233.6959,-18.2507 315.3216,-12.4317"/>
<polygon fill="#191970" stroke="#191970" points="315.8928,-15.9003 325.6234,-11.7091 315.403,-8.9175 315.8928,-15.9003"/>
</g>
<!-- Node18&#45;&gt;Node6 -->
<g id="edge26" class="edge">
<title>Node18&#45;&gt;Node6</title>
<path fill="none" stroke="#191970" d="M72.7824,-114.3081C75.8085,-113.5218 78.8399,-112.7405 81.7488,-112 133.1316,-98.9202 192.617,-84.3926 230.4467,-75.2307"/>
<polygon fill="#191970" stroke="#191970" points="231.621,-78.5477 240.5177,-72.7945 229.9751,-71.7439 231.621,-78.5477"/>
</g>
<!-- Node18&#45;&gt;Node11 -->
<g id="edge29" class="edge">
<title>Node18&#45;&gt;Node11</title>
<path fill="none" stroke="#191970" d="M62.561,-112.2455C79.5961,-103.4125 104.9063,-90.2887 124.2169,-80.2758"/>
<polygon fill="#191970" stroke="#191970" points="125.8858,-83.353 133.1522,-75.6427 122.6635,-77.1388 125.8858,-83.353"/>
</g>
<!-- Node19 -->
<g id="node20" class="node">
<title>Node19</title>
<polygon fill="#ffffff" stroke="#bfbfbf" points="32.2488,-56.5 32.2488,-75.5 101.2488,-75.5 101.2488,-56.5 32.2488,-56.5"/>
<text text-anchor="middle" x="66.7488" y="-63.5" font-family="Helvetica,sans-Serif" font-size="10.00" fill="#000000">sys/types.h</text>
</g>
<!-- Node18&#45;&gt;Node19 -->
<g id="edge28" class="edge">
<title>Node18&#45;&gt;Node19</title>
<path fill="none" stroke="#191970" d="M47.7551,-112.2455C50.8223,-104.7776 55.1491,-94.2427 58.8985,-85.1137"/>
<polygon fill="#191970" stroke="#191970" points="62.2267,-86.2226 62.7884,-75.6427 55.7516,-83.5631 62.2267,-86.2226"/>
</g>
</g>
</svg>
