<?xml version="1.0" encoding="UTF-8" standalone="no"?>
<!DOCTYPE svg PUBLIC "-//W3C//DTD SVG 1.1//EN"
 "http://www.w3.org/Graphics/SVG/1.1/DTD/svg11.dtd">
<!-- Generated by graphviz version 2.40.1 (0)
 -->
<!-- Title: drivers/include/tmp00x.h Pages: 1 -->
<svg width="658pt" height="252pt"
 viewBox="0.00 0.00 658.18 252.00" xmlns="http://www.w3.org/2000/svg" xmlns:xlink="http://www.w3.org/1999/xlink">
<g id="graph0" class="graph" transform="scale(1 1) rotate(0) translate(4 248)">
<title>drivers/include/tmp00x.h</title>
<polygon fill="#ffffff" stroke="transparent" points="-4,4 -4,-248 654.1782,-248 654.1782,4 -4,4"/>
<!-- Node0 -->
<g id="node1" class="node">
<title>Node0</title>
<polygon fill="#bfbfbf" stroke="#000000" points="331,-224.5 331,-243.5 466,-243.5 466,-224.5 331,-224.5"/>
<text text-anchor="middle" x="398.5" y="-231.5" font-family="Helvetica,sans-Serif" font-size="10.00" fill="#000000">drivers/include/tmp00x.h</text>
</g>
<!-- Node1 -->
<g id="node2" class="node">
<title>Node1</title>
<polygon fill="#ffffff" stroke="#bfbfbf" points="466.5,-.5 466.5,-19.5 518.5,-19.5 518.5,-.5 466.5,-.5"/>
<text text-anchor="middle" x="492.5" y="-7.5" font-family="Helvetica,sans-Serif" font-size="10.00" fill="#000000">stdint.h</text>
</g>
<!-- Node0&#45;&gt;Node1 -->
<g id="edge1" class="edge">
<title>Node0&#45;&gt;Node1</title>
<path fill="none" stroke="#191970" d="M466.2539,-226.5573C524.7235,-216.1532 605.8385,-191.2887 645.5,-132 661.2298,-108.4861 631.776,-66.4618 620.5,-56 595.0614,-32.3983 556.65,-20.7353 528.5419,-15.0816"/>
<polygon fill="#191970" stroke="#191970" points="529.1655,-11.6377 518.6956,-13.2596 527.8918,-18.5208 529.1655,-11.6377"/>
</g>
<!-- Node2 -->
<g id="node3" class="node">
<title>Node2</title>
<polygon fill="#ffffff" stroke="#bfbfbf" points="320.5,-168.5 320.5,-187.5 380.5,-187.5 380.5,-168.5 320.5,-168.5"/>
<text text-anchor="middle" x="350.5" y="-175.5" font-family="Helvetica,sans-Serif" font-size="10.00" fill="#000000">stdbool.h</text>
</g>
<!-- Node0&#45;&gt;Node2 -->
<g id="edge2" class="edge">
<title>Node0&#45;&gt;Node2</title>
<path fill="none" stroke="#191970" d="M390.139,-224.2455C383.325,-216.2958 373.5319,-204.8706 365.3848,-195.3656"/>
<polygon fill="#191970" stroke="#191970" points="367.9305,-192.9575 358.7651,-187.6427 362.6157,-197.513 367.9305,-192.9575"/>
</g>
<!-- Node3 -->
<g id="node4" class="node">
<title>Node3</title>
<g id="a_node4"><a xlink:href="i2c_8h.html" target="_top" xlink:title="Low&#45;level I2C peripheral driver interface definition. ">
<polygon fill="#ffffff" stroke="#000000" points="183,-112.5 183,-131.5 256,-131.5 256,-112.5 183,-112.5"/>
<text text-anchor="middle" x="219.5" y="-119.5" font-family="Helvetica,sans-Serif" font-size="10.00" fill="#000000">periph/i2c.h</text>
</a>
</g>
</g>
<!-- Node0&#45;&gt;Node3 -->
<g id="edge3" class="edge">
<title>Node0&#45;&gt;Node3</title>
<path fill="none" stroke="#191970" d="M378.3761,-224.335C360.4609,-215.5034 333.7262,-201.76 311.5,-188 285.9335,-172.1721 258.0724,-151.6945 239.7873,-137.7752"/>
<polygon fill="#191970" stroke="#191970" points="241.6966,-134.8287 231.6323,-131.5181 237.4355,-140.3823 241.6966,-134.8287"/>
</g>
<!-- Node8 -->
<g id="node9" class="node">
<title>Node8</title>
<g id="a_node9"><a xlink:href="kernel__defines_8h.html" target="_top" xlink:title="Common macros and compiler attributes/pragmas configuration. ">
<polygon fill="#ffffff" stroke="#000000" points="399,-168.5 399,-187.5 494,-187.5 494,-168.5 399,-168.5"/>
<text text-anchor="middle" x="446.5" y="-175.5" font-family="Helvetica,sans-Serif" font-size="10.00" fill="#000000">kernel_defines.h</text>
</a>
</g>
</g>
<!-- Node0&#45;&gt;Node8 -->
<g id="edge9" class="edge">
<title>Node0&#45;&gt;Node8</title>
<path fill="none" stroke="#191970" d="M406.861,-224.2455C413.675,-216.2958 423.4681,-204.8706 431.6152,-195.3656"/>
<polygon fill="#191970" stroke="#191970" points="434.3843,-197.513 438.2349,-187.6427 429.0695,-192.9575 434.3843,-197.513"/>
</g>
<!-- Node3&#45;&gt;Node1 -->
<g id="edge4" class="edge">
<title>Node3&#45;&gt;Node1</title>
<path fill="none" stroke="#191970" d="M227.2207,-112.2401C239.3117,-97.6524 264.1752,-70.3461 291.5,-56 344.6786,-28.0801 414.4894,-16.9983 456.2885,-12.6763"/>
<polygon fill="#191970" stroke="#191970" points="456.6648,-16.1563 466.2847,-11.7169 455.996,-9.1883 456.6648,-16.1563"/>
</g>
<!-- Node4 -->
<g id="node5" class="node">
<title>Node4</title>
<polygon fill="#ffffff" stroke="#bfbfbf" points="300.5,-56.5 300.5,-75.5 356.5,-75.5 356.5,-56.5 300.5,-56.5"/>
<text text-anchor="middle" x="328.5" y="-63.5" font-family="Helvetica,sans-Serif" font-size="10.00" fill="#000000">stddef.h</text>
</g>
<!-- Node3&#45;&gt;Node4 -->
<g id="edge5" class="edge">
<title>Node3&#45;&gt;Node4</title>
<path fill="none" stroke="#191970" d="M238.4864,-112.2455C255.6792,-103.4125 281.2238,-90.2887 300.7132,-80.2758"/>
<polygon fill="#191970" stroke="#191970" points="302.4359,-83.3257 309.7312,-75.6427 299.237,-77.0993 302.4359,-83.3257"/>
</g>
<!-- Node5 -->
<g id="node6" class="node">
<title>Node5</title>
<polygon fill="#ffffff" stroke="#bfbfbf" points="194.5,-56.5 194.5,-75.5 244.5,-75.5 244.5,-56.5 194.5,-56.5"/>
<text text-anchor="middle" x="219.5" y="-63.5" font-family="Helvetica,sans-Serif" font-size="10.00" fill="#000000">limits.h</text>
</g>
<!-- Node3&#45;&gt;Node5 -->
<g id="edge6" class="edge">
<title>Node3&#45;&gt;Node5</title>
<path fill="none" stroke="#191970" d="M219.5,-112.2455C219.5,-104.9382 219.5,-94.6944 219.5,-85.7046"/>
<polygon fill="#191970" stroke="#191970" points="223.0001,-85.6426 219.5,-75.6427 216.0001,-85.6427 223.0001,-85.6426"/>
</g>
<!-- Node6 -->
<g id="node7" class="node">
<title>Node6</title>
<polygon fill="#ffffff" stroke="#bfbfbf" points="0,-56.5 0,-75.5 81,-75.5 81,-56.5 0,-56.5"/>
<text text-anchor="middle" x="40.5" y="-63.5" font-family="Helvetica,sans-Serif" font-size="10.00" fill="#000000">periph_conf.h</text>
</g>
<!-- Node3&#45;&gt;Node6 -->
<g id="edge7" class="edge">
<title>Node3&#45;&gt;Node6</title>
<path fill="none" stroke="#191970" d="M188.7288,-112.3733C158.835,-103.021 113.2907,-88.7725 80.5783,-78.5385"/>
<polygon fill="#191970" stroke="#191970" points="81.4586,-75.1466 70.8697,-75.5011 79.3685,-81.8273 81.4586,-75.1466"/>
</g>
<!-- Node7 -->
<g id="node8" class="node">
<title>Node7</title>
<polygon fill="#ffffff" stroke="#bfbfbf" points="99,-56.5 99,-75.5 176,-75.5 176,-56.5 99,-56.5"/>
<text text-anchor="middle" x="137.5" y="-63.5" font-family="Helvetica,sans-Serif" font-size="10.00" fill="#000000">periph_cpu.h</text>
</g>
<!-- Node3&#45;&gt;Node7 -->
<g id="edge8" class="edge">
<title>Node3&#45;&gt;Node7</title>
<path fill="none" stroke="#191970" d="M205.2167,-112.2455C192.753,-103.7337 174.4549,-91.2375 160.0208,-81.3801"/>
<polygon fill="#191970" stroke="#191970" points="161.8515,-78.392 151.6196,-75.6427 157.9038,-84.1726 161.8515,-78.392"/>
</g>
<!-- Node9 -->
<g id="node10" class="node">
<title>Node9</title>
<g id="a_node10"><a xlink:href="modules_8h.html" target="_top" xlink:title="Common macros and compiler attributes/pragmas configuration. ">
<polygon fill="#ffffff" stroke="#000000" points="460,-112.5 460,-131.5 525,-131.5 525,-112.5 460,-112.5"/>
<text text-anchor="middle" x="492.5" y="-119.5" font-family="Helvetica,sans-Serif" font-size="10.00" fill="#000000">modules.h</text>
</a>
</g>
</g>
<!-- Node8&#45;&gt;Node9 -->
<g id="edge10" class="edge">
<title>Node8&#45;&gt;Node9</title>
<path fill="none" stroke="#191970" d="M454.5126,-168.2455C460.9768,-160.3761 470.2385,-149.101 477.9983,-139.6542"/>
<polygon fill="#191970" stroke="#191970" points="480.9364,-141.5916 484.5792,-131.6427 475.5273,-137.1484 480.9364,-141.5916"/>
</g>
<!-- Node10 -->
<g id="node11" class="node">
<title>Node10</title>
<g id="a_node11"><a xlink:href="riot__version_8h.html" target="_top" xlink:title="Common macros and compiler attributes/pragmas configuration. ">
<polygon fill="#ffffff" stroke="#000000" points="361,-112.5 361,-131.5 442,-131.5 442,-112.5 361,-112.5"/>
<text text-anchor="middle" x="401.5" y="-119.5" font-family="Helvetica,sans-Serif" font-size="10.00" fill="#000000">riot_version.h</text>
</a>
</g>
</g>
<!-- Node8&#45;&gt;Node10 -->
<g id="edge11" class="edge">
<title>Node8&#45;&gt;Node10</title>
<path fill="none" stroke="#191970" d="M438.6616,-168.2455C432.338,-160.3761 423.2776,-149.101 415.6864,-139.6542"/>
<polygon fill="#191970" stroke="#191970" points="418.2408,-137.2454 409.2486,-131.6427 412.7842,-141.6302 418.2408,-137.2454"/>
</g>
<!-- Node11 -->
<g id="node12" class="node">
<title>Node11</title>
<g id="a_node12"><a xlink:href="compiler__hints_8h.html" target="_top" xlink:title="Common macros and compiler attributes/pragmas configuration. ">
<polygon fill="#ffffff" stroke="#000000" points="543,-112.5 543,-131.5 636,-131.5 636,-112.5 543,-112.5"/>
<text text-anchor="middle" x="589.5" y="-119.5" font-family="Helvetica,sans-Serif" font-size="10.00" fill="#000000">compiler_hints.h</text>
</a>
</g>
</g>
<!-- Node8&#45;&gt;Node11 -->
<g id="edge13" class="edge">
<title>Node8&#45;&gt;Node11</title>
<path fill="none" stroke="#191970" d="M471.0826,-168.3733C494.4496,-159.2226 529.7862,-145.3844 555.7784,-135.2057"/>
<polygon fill="#191970" stroke="#191970" points="557.203,-138.4066 565.2382,-131.5011 554.6505,-131.8886 557.203,-138.4066"/>
</g>
<!-- Node13 -->
<g id="node14" class="node">
<title>Node13</title>
<g id="a_node14"><a xlink:href="container_8h.html" target="_top" xlink:title="Common macros and compiler attributes/pragmas configuration. ">
<polygon fill="#ffffff" stroke="#000000" points="274,-112.5 274,-131.5 343,-131.5 343,-112.5 274,-112.5"/>
<text text-anchor="middle" x="308.5" y="-119.5" font-family="Helvetica,sans-Serif" font-size="10.00" fill="#000000">container.h</text>
</a>
</g>
</g>
<!-- Node8&#45;&gt;Node13 -->
<g id="edge17" class="edge">
<title>Node8&#45;&gt;Node13</title>
<path fill="none" stroke="#191970" d="M422.777,-168.3733C400.3263,-159.2629 366.4261,-145.5062 341.3745,-135.3404"/>
<polygon fill="#191970" stroke="#191970" points="342.4957,-132.0182 331.9135,-131.5011 339.8635,-138.5045 342.4957,-132.0182"/>
</g>
<!-- Node10&#45;&gt;Node1 -->
<g id="edge12" class="edge">
<title>Node10&#45;&gt;Node1</title>
<path fill="none" stroke="#191970" d="M409.2586,-112.4509C424.5706,-93.6054 458.8748,-51.3849 478.3285,-27.4419"/>
<polygon fill="#191970" stroke="#191970" points="481.1715,-29.4931 484.761,-19.5249 475.7387,-25.079 481.1715,-29.4931"/>
</g>
<!-- Node11&#45;&gt;Node1 -->
<g id="edge16" class="edge">
<title>Node11&#45;&gt;Node1</title>
<path fill="none" stroke="#191970" d="M580.6325,-112.191C572.2807,-102.9196 559.4515,-88.5927 548.5,-76 534.4247,-59.8154 518.6363,-41.1611 507.4207,-27.8224"/>
<polygon fill="#191970" stroke="#191970" points="509.8844,-25.3135 500.7747,-19.9039 504.5226,-29.8137 509.8844,-25.3135"/>
</g>
<!-- Node12 -->
<g id="node13" class="node">
<title>Node12</title>
<g id="a_node13"><a xlink:href="assert_8h.html" target="_top" xlink:title="POSIX.1&#45;2008 compliant version of the assert macro. ">
<polygon fill="#ffffff" stroke="#000000" points="557.5,-56.5 557.5,-75.5 611.5,-75.5 611.5,-56.5 557.5,-56.5"/>
<text text-anchor="middle" x="584.5" y="-63.5" font-family="Helvetica,sans-Serif" font-size="10.00" fill="#000000">assert.h</text>
</a>
</g>
</g>
<!-- Node11&#45;&gt;Node12 -->
<g id="edge14" class="edge">
<title>Node11&#45;&gt;Node12</title>
<path fill="none" stroke="#191970" d="M588.6291,-112.2455C587.9766,-104.9382 587.062,-94.6944 586.2593,-85.7046"/>
<polygon fill="#191970" stroke="#191970" points="589.7365,-85.2918 585.361,-75.6427 582.7642,-85.9143 589.7365,-85.2918"/>
</g>
<!-- Node12&#45;&gt;Node1 -->
<g id="edge15" class="edge">
<title>Node12&#45;&gt;Node1</title>
<path fill="none" stroke="#191970" d="M568.4748,-56.2455C554.3592,-47.6534 533.5737,-35.0014 517.3101,-25.1018"/>
<polygon fill="#191970" stroke="#191970" points="518.7034,-21.8525 508.3415,-19.6427 515.0637,-27.8319 518.7034,-21.8525"/>
</g>
<!-- Node13&#45;&gt;Node1 -->
<g id="edge19" class="edge">
<title>Node13&#45;&gt;Node1</title>
<path fill="none" stroke="#191970" d="M324.1877,-112.4509C356.2347,-92.9441 429.4254,-48.3932 467.8721,-24.9909"/>
<polygon fill="#191970" stroke="#191970" points="470.1298,-27.7141 476.852,-19.5249 466.4901,-21.7347 470.1298,-27.7141"/>
</g>
<!-- Node13&#45;&gt;Node4 -->
<g id="edge18" class="edge">
<title>Node13&#45;&gt;Node4</title>
<path fill="none" stroke="#191970" d="M311.9837,-112.2455C314.6508,-104.7776 318.4133,-94.2427 321.6737,-85.1137"/>
<polygon fill="#191970" stroke="#191970" points="324.9889,-86.2373 325.0562,-75.6427 318.3967,-83.8829 324.9889,-86.2373"/>
</g>
</g>
</svg>
