<?xml version="1.0" encoding="UTF-8" standalone="no"?>
<!DOCTYPE svg PUBLIC "-//W3C//DTD SVG 1.1//EN"
 "http://www.w3.org/Graphics/SVG/1.1/DTD/svg11.dtd">
<!-- Generated by graphviz version 2.40.1 (0)
 -->
<!-- Title: sys/include/tsrb.h Pages: 1 -->
<svg width="851pt" height="352pt"
 viewBox="0.00 0.00 850.63 352.00" xmlns="http://www.w3.org/2000/svg" xmlns:xlink="http://www.w3.org/1999/xlink">
<g id="graph0" class="graph" transform="scale(1 1) rotate(0) translate(4 348)">
<title>sys/include/tsrb.h</title>
<polygon fill="#ffffff" stroke="transparent" points="-4,4 -4,-348 846.6279,-348 846.6279,4 -4,4"/>
<!-- Node7 -->
<g id="node1" class="node">
<title>Node7</title>
<polygon fill="#bfbfbf" stroke="#000000" points="270.6279,-324.5 270.6279,-343.5 369.6279,-343.5 369.6279,-324.5 270.6279,-324.5"/>
<text text-anchor="middle" x="320.1279" y="-331.5" font-family="Helvetica,sans-Serif" font-size="10.00" fill="#000000">sys/include/tsrb.h</text>
</g>
<!-- Node8 -->
<g id="node2" class="node">
<title>Node8</title>
<g id="a_node2"><a xlink:href="ethos_8h.html" target="_top" xlink:title="Interface definition for the ethernet&#45;over&#45;serial module. ">
<polygon fill="#ffffff" stroke="#000000" points="306.6279,-67.5 306.6279,-86.5 431.6279,-86.5 431.6279,-67.5 306.6279,-67.5"/>
<text text-anchor="middle" x="369.1279" y="-74.5" font-family="Helvetica,sans-Serif" font-size="10.00" fill="#000000">drivers/include/ethos.h</text>
</a>
</g>
</g>
<!-- Node7&#45;&gt;Node8 -->
<g id="edge1" class="edge">
<title>Node7&#45;&gt;Node8</title>
<path fill="none" stroke="#191970" d="M260.2076,-330.6778C156.3296,-322.1868 -41.5746,-292.4639 8.1279,-190 29.1218,-146.7203 49.1343,-142.4534 93.1279,-123 130.3363,-106.5469 237.0109,-91.9315 306.3195,-83.7925"/>
<polygon fill="#191970" stroke="#191970" points="260.0188,-334.1736 270.2595,-331.4573 260.5601,-327.1945 260.0188,-334.1736"/>
</g>
<!-- Node10 -->
<g id="node4" class="node">
<title>Node10</title>
<g id="a_node4"><a xlink:href="isrpipe_8h.html" target="_top" xlink:title="isrpipe Interface ">
<polygon fill="#ffffff" stroke="#000000" points="264.1279,-263 264.1279,-282 376.1279,-282 376.1279,-263 264.1279,-263"/>
<text text-anchor="middle" x="320.1279" y="-270" font-family="Helvetica,sans-Serif" font-size="10.00" fill="#000000">sys/include/isrpipe.h</text>
</a>
</g>
</g>
<!-- Node7&#45;&gt;Node10 -->
<g id="edge3" class="edge">
<title>Node7&#45;&gt;Node10</title>
<path fill="none" stroke="#191970" d="M320.1279,-314.2462C320.1279,-303.5519 320.1279,-290.814 320.1279,-282.2449"/>
<polygon fill="#191970" stroke="#191970" points="316.628,-314.3906 320.1279,-324.3906 323.628,-314.3907 316.628,-314.3906"/>
</g>
<!-- Node21 -->
<g id="node15" class="node">
<title>Node21</title>
<g id="a_node15"><a xlink:href="acm_8h.html" target="_top" xlink:title="Interface and definitions for USB CDC ACM type interfaces in USBUS. ">
<polygon fill="#ffffff" stroke="#000000" points="531.6279,-257.5 531.6279,-287.5 650.6279,-287.5 650.6279,-257.5 531.6279,-257.5"/>
<text text-anchor="start" x="539.6279" y="-275.5" font-family="Helvetica,sans-Serif" font-size="10.00" fill="#000000">sys/include/usb/usbus</text>
<text text-anchor="middle" x="591.1279" y="-264.5" font-family="Helvetica,sans-Serif" font-size="10.00" fill="#000000">/cdc/acm.h</text>
</a>
</g>
</g>
<!-- Node7&#45;&gt;Node21 -->
<g id="edge15" class="edge">
<title>Node7&#45;&gt;Node21</title>
<path fill="none" stroke="#191970" d="M372.143,-322.1959C417.7147,-311.8539 483.93,-296.8272 531.6045,-286.0081"/>
<polygon fill="#191970" stroke="#191970" points="371.1518,-318.8317 362.1744,-324.4581 372.701,-325.6581 371.1518,-318.8317"/>
</g>
<!-- Node9 -->
<g id="node3" class="node">
<title>Node9</title>
<g id="a_node3"><a xlink:href="ethos__params_8h.html" target="_top" xlink:title="Default configuration for the ethos device driver. ">
<polygon fill="#ffffff" stroke="#000000" points="311.1279,-.5 311.1279,-30.5 427.1279,-30.5 427.1279,-.5 311.1279,-.5"/>
<text text-anchor="start" x="319.1279" y="-18.5" font-family="Helvetica,sans-Serif" font-size="10.00" fill="#000000">drivers/ethos/include</text>
<text text-anchor="middle" x="369.1279" y="-7.5" font-family="Helvetica,sans-Serif" font-size="10.00" fill="#000000">/ethos_params.h</text>
</a>
</g>
</g>
<!-- Node8&#45;&gt;Node9 -->
<g id="edge2" class="edge">
<title>Node8&#45;&gt;Node9</title>
<path fill="none" stroke="#191970" d="M369.1279,-57.3693C369.1279,-48.681 369.1279,-38.6241 369.1279,-30.5446"/>
<polygon fill="#191970" stroke="#191970" points="365.628,-57.3906 369.1279,-67.3906 372.628,-57.3907 365.628,-57.3906"/>
</g>
<!-- Node11 -->
<g id="node5" class="node">
<title>Node11</title>
<g id="a_node5"><a xlink:href="at_8h.html" target="_top" xlink:title="AT (Hayes) library interface. ">
<polygon fill="#ffffff" stroke="#000000" points="17.1279,-196 17.1279,-215 125.1279,-215 125.1279,-196 17.1279,-196"/>
<text text-anchor="middle" x="71.1279" y="-203" font-family="Helvetica,sans-Serif" font-size="10.00" fill="#000000">drivers/include/at.h</text>
</a>
</g>
</g>
<!-- Node10&#45;&gt;Node11 -->
<g id="edge4" class="edge">
<title>Node10&#45;&gt;Node11</title>
<path fill="none" stroke="#191970" d="M274.8465,-260.3158C226.5588,-247.3228 151.0761,-227.0122 106.8201,-215.1039"/>
<polygon fill="#191970" stroke="#191970" points="274.1508,-263.7531 284.7168,-262.9717 275.9697,-256.9935 274.1508,-263.7531"/>
</g>
<!-- Node12 -->
<g id="node6" class="node">
<title>Node12</title>
<g id="a_node6"><a xlink:href="ir__nec_8h.html" target="_top" xlink:title="drivers/include/ir\l_nec.h">
<polygon fill="#ffffff" stroke="#000000" points="143.6279,-190.5 143.6279,-220.5 240.6279,-220.5 240.6279,-190.5 143.6279,-190.5"/>
<text text-anchor="start" x="151.6279" y="-208.5" font-family="Helvetica,sans-Serif" font-size="10.00" fill="#000000">drivers/include/ir</text>
<text text-anchor="middle" x="192.1279" y="-197.5" font-family="Helvetica,sans-Serif" font-size="10.00" fill="#000000">_nec.h</text>
</a>
</g>
</g>
<!-- Node10&#45;&gt;Node12 -->
<g id="edge5" class="edge">
<title>Node10&#45;&gt;Node12</title>
<path fill="none" stroke="#191970" d="M292.6823,-258.1339C271.5097,-247.0514 242.3072,-231.7657 220.8262,-220.5218"/>
<polygon fill="#191970" stroke="#191970" points="291.3059,-261.3639 301.7887,-262.9005 294.5521,-255.1621 291.3059,-261.3639"/>
</g>
<!-- Node14 -->
<g id="node8" class="node">
<title>Node14</title>
<g id="a_node8"><a xlink:href="slipdev__internal_8h.html" target="_top" xlink:title="drivers/slipdev/include\l/slipdev_internal.h">
<polygon fill="#ffffff" stroke="#000000" points="259.1279,-190.5 259.1279,-220.5 381.1279,-220.5 381.1279,-190.5 259.1279,-190.5"/>
<text text-anchor="start" x="267.1279" y="-208.5" font-family="Helvetica,sans-Serif" font-size="10.00" fill="#000000">drivers/slipdev/include</text>
<text text-anchor="middle" x="320.1279" y="-197.5" font-family="Helvetica,sans-Serif" font-size="10.00" fill="#000000">/slipdev_internal.h</text>
</a>
</g>
</g>
<!-- Node10&#45;&gt;Node14 -->
<g id="edge7" class="edge">
<title>Node10&#45;&gt;Node14</title>
<path fill="none" stroke="#191970" d="M320.1279,-252.7758C320.1279,-242.4641 320.1279,-230.0437 320.1279,-220.5218"/>
<polygon fill="#191970" stroke="#191970" points="316.628,-252.9005 320.1279,-262.9005 323.628,-252.9006 316.628,-252.9005"/>
</g>
<!-- Node15 -->
<g id="node9" class="node">
<title>Node15</title>
<g id="a_node9"><a xlink:href="read__timeout_8h.html" target="_top" xlink:title="isrpipe read timeout Interface ">
<polygon fill="#ffffff" stroke="#000000" points="399.6279,-190.5 399.6279,-220.5 502.6279,-220.5 502.6279,-190.5 399.6279,-190.5"/>
<text text-anchor="start" x="407.6279" y="-208.5" font-family="Helvetica,sans-Serif" font-size="10.00" fill="#000000">sys/include/isrpipe</text>
<text text-anchor="middle" x="451.1279" y="-197.5" font-family="Helvetica,sans-Serif" font-size="10.00" fill="#000000">/read_timeout.h</text>
</a>
</g>
</g>
<!-- Node10&#45;&gt;Node15 -->
<g id="edge8" class="edge">
<title>Node10&#45;&gt;Node15</title>
<path fill="none" stroke="#191970" d="M347.9245,-258.2834C369.6163,-247.1892 399.6735,-231.8164 421.757,-220.5218"/>
<polygon fill="#191970" stroke="#191970" points="346.2064,-255.2309 338.8971,-262.9005 349.3939,-261.4631 346.2064,-255.2309"/>
</g>
<!-- Node16 -->
<g id="node10" class="node">
<title>Node16</title>
<g id="a_node10"><a xlink:href="stdio__base_8h.html" target="_top" xlink:title="sys/include/stdio_base.h">
<polygon fill="#ffffff" stroke="#000000" points="520.6279,-196 520.6279,-215 649.6279,-215 649.6279,-196 520.6279,-196"/>
<text text-anchor="middle" x="585.1279" y="-203" font-family="Helvetica,sans-Serif" font-size="10.00" fill="#000000">sys/include/stdio_base.h</text>
</a>
</g>
</g>
<!-- Node10&#45;&gt;Node16 -->
<g id="edge9" class="edge">
<title>Node10&#45;&gt;Node16</title>
<path fill="none" stroke="#191970" d="M367.6755,-260.4785C419.0367,-247.4929 499.8455,-227.062 547.1423,-215.1039"/>
<polygon fill="#191970" stroke="#191970" points="366.6516,-257.1272 357.8146,-262.9717 368.3674,-263.9137 366.6516,-257.1272"/>
</g>
<!-- Node13 -->
<g id="node7" class="node">
<title>Node13</title>
<g id="a_node7"><a xlink:href="ir__nec__params_8h.html" target="_top" xlink:title="Default configuration. ">
<polygon fill="#ffffff" stroke="#000000" points="102.1279,-123.5 102.1279,-153.5 220.1279,-153.5 220.1279,-123.5 102.1279,-123.5"/>
<text text-anchor="start" x="110.1279" y="-141.5" font-family="Helvetica,sans-Serif" font-size="10.00" fill="#000000">drivers/ir_nec/include</text>
<text text-anchor="middle" x="161.1279" y="-130.5" font-family="Helvetica,sans-Serif" font-size="10.00" fill="#000000">/ir_nec_params.h</text>
</a>
</g>
</g>
<!-- Node12&#45;&gt;Node13 -->
<g id="edge6" class="edge">
<title>Node12&#45;&gt;Node13</title>
<path fill="none" stroke="#191970" d="M180.8815,-181.1932C176.6207,-171.9844 171.8951,-161.771 168.1345,-153.6432"/>
<polygon fill="#191970" stroke="#191970" points="177.7179,-182.6908 185.0936,-190.2967 184.0708,-179.7513 177.7179,-182.6908"/>
</g>
<!-- Node17 -->
<g id="node11" class="node">
<title>Node17</title>
<g id="a_node11"><a xlink:href="stdio__nimble_8h.html" target="_top" xlink:title="sys/include/stdio_nimble.h">
<polygon fill="#ffffff" stroke="#000000" points="238.6279,-129 238.6279,-148 377.6279,-148 377.6279,-129 238.6279,-129"/>
<text text-anchor="middle" x="308.1279" y="-136" font-family="Helvetica,sans-Serif" font-size="10.00" fill="#000000">sys/include/stdio_nimble.h</text>
</a>
</g>
</g>
<!-- Node16&#45;&gt;Node17 -->
<g id="edge10" class="edge">
<title>Node16&#45;&gt;Node17</title>
<path fill="none" stroke="#191970" d="M535.7624,-193.5596C482.0924,-180.578 397.3753,-160.0869 347.8337,-148.1039"/>
<polygon fill="#191970" stroke="#191970" points="535.1922,-197.0225 545.7348,-195.9717 536.8379,-190.2187 535.1922,-197.0225"/>
</g>
<!-- Node18 -->
<g id="node12" class="node">
<title>Node18</title>
<g id="a_node12"><a xlink:href="stdio__rtt_8h.html" target="_top" xlink:title="sys/include/stdio_rtt.h">
<polygon fill="#ffffff" stroke="#000000" points="395.6279,-129 395.6279,-148 514.6279,-148 514.6279,-129 395.6279,-129"/>
<text text-anchor="middle" x="455.1279" y="-136" font-family="Helvetica,sans-Serif" font-size="10.00" fill="#000000">sys/include/stdio_rtt.h</text>
</a>
</g>
</g>
<!-- Node16&#45;&gt;Node18 -->
<g id="edge11" class="edge">
<title>Node16&#45;&gt;Node18</title>
<path fill="none" stroke="#191970" d="M557.4394,-191.2298C532.2018,-178.2227 495.6173,-159.3676 473.7192,-148.0817"/>
<polygon fill="#191970" stroke="#191970" points="556.0098,-194.4304 566.5021,-195.9005 559.2166,-188.2082 556.0098,-194.4304"/>
</g>
<!-- Node19 -->
<g id="node13" class="node">
<title>Node19</title>
<g id="a_node13"><a xlink:href="stdio__semihosting_8h.html" target="_top" xlink:title="sys/include/stdio_semihosting.h">
<polygon fill="#ffffff" stroke="#000000" points="533.1279,-129 533.1279,-148 697.1279,-148 697.1279,-129 533.1279,-129"/>
<text text-anchor="middle" x="615.1279" y="-136" font-family="Helvetica,sans-Serif" font-size="10.00" fill="#000000">sys/include/stdio_semihosting.h</text>
</a>
</g>
</g>
<!-- Node16&#45;&gt;Node19 -->
<g id="edge12" class="edge">
<title>Node16&#45;&gt;Node19</title>
<path fill="none" stroke="#191970" d="M593.5291,-186.7374C599.1602,-174.1614 606.3408,-158.1246 610.8377,-148.0817"/>
<polygon fill="#191970" stroke="#191970" points="590.3185,-185.3433 589.4262,-195.9005 596.7073,-188.204 590.3185,-185.3433"/>
</g>
<!-- Node20 -->
<g id="node14" class="node">
<title>Node20</title>
<g id="a_node14"><a xlink:href="stdio__uart_8h.html" target="_top" xlink:title="sys/include/stdio_uart.h">
<polygon fill="#ffffff" stroke="#000000" points="715.6279,-129 715.6279,-148 842.6279,-148 842.6279,-129 715.6279,-129"/>
<text text-anchor="middle" x="779.1279" y="-136" font-family="Helvetica,sans-Serif" font-size="10.00" fill="#000000">sys/include/stdio_uart.h</text>
</a>
</g>
</g>
<!-- Node16&#45;&gt;Node20 -->
<g id="edge13" class="edge">
<title>Node16&#45;&gt;Node20</title>
<path fill="none" stroke="#191970" d="M622.5306,-192.5826C660.2346,-179.5611 717.5538,-159.7653 751.384,-148.0817"/>
<polygon fill="#191970" stroke="#191970" points="621.233,-189.3278 612.9234,-195.9005 623.5182,-195.9443 621.233,-189.3278"/>
</g>
<!-- Node20&#45;&gt;Node8 -->
<g id="edge14" class="edge">
<title>Node20&#45;&gt;Node8</title>
<path fill="none" stroke="#191970" d="M726.7453,-126.8934C719.8267,-125.5027 712.8171,-124.1651 706.1279,-123 610.8685,-106.4086 499.5906,-92.2216 431.762,-84.1515"/>
<polygon fill="#191970" stroke="#191970" points="726.2688,-130.3685 736.7689,-128.9549 727.679,-123.512 726.2688,-130.3685"/>
</g>
<!-- Node22 -->
<g id="node16" class="node">
<title>Node22</title>
<g id="a_node16"><a xlink:href="usb__board__reset__internal_8h.html" target="_top" xlink:title="sys/include/usb_board\l_reset_internal.h">
<polygon fill="#ffffff" stroke="#000000" points="668.1279,-190.5 668.1279,-220.5 788.1279,-220.5 788.1279,-190.5 668.1279,-190.5"/>
<text text-anchor="start" x="676.1279" y="-208.5" font-family="Helvetica,sans-Serif" font-size="10.00" fill="#000000">sys/include/usb_board</text>
<text text-anchor="middle" x="728.1279" y="-197.5" font-family="Helvetica,sans-Serif" font-size="10.00" fill="#000000">_reset_internal.h</text>
</a>
</g>
</g>
<!-- Node21&#45;&gt;Node22 -->
<g id="edge16" class="edge">
<title>Node21&#45;&gt;Node22</title>
<path fill="none" stroke="#191970" d="M630.8951,-253.0518C651.9463,-242.7567 677.4193,-230.2991 697.0111,-220.7177"/>
<polygon fill="#191970" stroke="#191970" points="629.319,-249.9264 621.8734,-257.4639 632.3944,-256.2147 629.319,-249.9264"/>
</g>
</g>
</svg>
