<?xml version="1.0" encoding="UTF-8" standalone="no"?>
<!DOCTYPE svg PUBLIC "-//W3C//DTD SVG 1.1//EN"
 "http://www.w3.org/Graphics/SVG/1.1/DTD/svg11.dtd">
<!-- Generated by graphviz version 2.40.1 (0)
 -->
<!-- Title: drivers/uart_half_duplex/include/uart_half_duplex.h Pages: 1 -->
<svg width="468pt" height="151pt"
 viewBox="0.00 0.00 468.00 151.00" xmlns="http://www.w3.org/2000/svg" xmlns:xlink="http://www.w3.org/1999/xlink">
<g id="graph0" class="graph" transform="scale(1 1) rotate(0) translate(4 147)">
<title>drivers/uart_half_duplex/include/uart_half_duplex.h</title>
<polygon fill="#ffffff" stroke="transparent" points="-4,4 -4,-147 464,-147 464,4 -4,4"/>
<!-- Node0 -->
<g id="node1" class="node">
<title>Node0</title>
<polygon fill="#bfbfbf" stroke="#000000" points="90,-112.5 90,-142.5 233,-142.5 233,-112.5 90,-112.5"/>
<text text-anchor="start" x="98" y="-130.5" font-family="Helvetica,sans-Serif" font-size="10.00" fill="#000000">drivers/uart_half_duplex</text>
<text text-anchor="middle" x="161.5" y="-119.5" font-family="Helvetica,sans-Serif" font-size="10.00" fill="#000000">/include/uart_half_duplex.h</text>
</g>
<!-- Node1 -->
<g id="node2" class="node">
<title>Node1</title>
<polygon fill="#ffffff" stroke="#bfbfbf" points="95.5,-56.5 95.5,-75.5 145.5,-75.5 145.5,-56.5 95.5,-56.5"/>
<text text-anchor="middle" x="120.5" y="-63.5" font-family="Helvetica,sans-Serif" font-size="10.00" fill="#000000">stdlib.h</text>
</g>
<!-- Node0&#45;&gt;Node1 -->
<g id="edge1" class="edge">
<title>Node0&#45;&gt;Node1</title>
<path fill="none" stroke="#191970" d="M151.3652,-112.2977C145.7332,-103.8498 138.6849,-93.2773 132.746,-84.369"/>
<polygon fill="#191970" stroke="#191970" points="135.5238,-82.226 127.0646,-75.8469 129.6995,-86.1089 135.5238,-82.226"/>
</g>
<!-- Node2 -->
<g id="node3" class="node">
<title>Node2</title>
<g id="a_node3"><a xlink:href="drivers_2include_2periph_2uart_8h.html" target="_top" xlink:title="Low&#45;level UART peripheral driver interface definition. ">
<polygon fill="#ffffff" stroke="#000000" points="163.5,-56.5 163.5,-75.5 243.5,-75.5 243.5,-56.5 163.5,-56.5"/>
<text text-anchor="middle" x="203.5" y="-63.5" font-family="Helvetica,sans-Serif" font-size="10.00" fill="#000000">periph/uart.h</text>
</a>
</g>
</g>
<!-- Node0&#45;&gt;Node2 -->
<g id="edge2" class="edge">
<title>Node0&#45;&gt;Node2</title>
<path fill="none" stroke="#191970" d="M171.882,-112.2977C177.6513,-103.8498 184.8716,-93.2773 190.9553,-84.369"/>
<polygon fill="#191970" stroke="#191970" points="194.0259,-86.0788 196.7753,-75.8469 188.2453,-82.1311 194.0259,-86.0788"/>
</g>
<!-- Node3 -->
<g id="node4" class="node">
<title>Node3</title>
<g id="a_node4"><a xlink:href="errno_8h.html" target="_top" xlink:title="errno.h">
<polygon fill="#ffffff" stroke="#000000" points="0,-.5 0,-19.5 53,-19.5 53,-.5 0,-.5"/>
<text text-anchor="middle" x="26.5" y="-7.5" font-family="Helvetica,sans-Serif" font-size="10.00" fill="#000000">errno.h</text>
</a>
</g>
</g>
<!-- Node2&#45;&gt;Node3 -->
<g id="edge3" class="edge">
<title>Node2&#45;&gt;Node3</title>
<path fill="none" stroke="#191970" d="M173.0726,-56.3733C142.4379,-46.6809 95.1817,-31.7298 62.6534,-21.4384"/>
<polygon fill="#191970" stroke="#191970" points="63.656,-18.0846 53.066,-18.4051 61.5444,-24.7586 63.656,-18.0846"/>
</g>
<!-- Node4 -->
<g id="node5" class="node">
<title>Node4</title>
<polygon fill="#ffffff" stroke="#bfbfbf" points="71.5,-.5 71.5,-19.5 121.5,-19.5 121.5,-.5 71.5,-.5"/>
<text text-anchor="middle" x="96.5" y="-7.5" font-family="Helvetica,sans-Serif" font-size="10.00" fill="#000000">limits.h</text>
</g>
<!-- Node2&#45;&gt;Node4 -->
<g id="edge4" class="edge">
<title>Node2&#45;&gt;Node4</title>
<path fill="none" stroke="#191970" d="M184.862,-56.2455C168.0614,-47.4527 143.1366,-34.4079 124.0382,-24.4125"/>
<polygon fill="#191970" stroke="#191970" points="125.4073,-21.1787 114.9244,-19.6427 122.1614,-27.3807 125.4073,-21.1787"/>
</g>
<!-- Node5 -->
<g id="node6" class="node">
<title>Node5</title>
<polygon fill="#ffffff" stroke="#bfbfbf" points="139.5,-.5 139.5,-19.5 195.5,-19.5 195.5,-.5 139.5,-.5"/>
<text text-anchor="middle" x="167.5" y="-7.5" font-family="Helvetica,sans-Serif" font-size="10.00" fill="#000000">stddef.h</text>
</g>
<!-- Node2&#45;&gt;Node5 -->
<g id="edge5" class="edge">
<title>Node2&#45;&gt;Node5</title>
<path fill="none" stroke="#191970" d="M197.2293,-56.2455C192.2736,-48.5367 185.217,-37.5598 179.2224,-28.2348"/>
<polygon fill="#191970" stroke="#191970" points="182.0506,-26.1618 173.6989,-19.6427 176.1624,-29.9471 182.0506,-26.1618"/>
</g>
<!-- Node6 -->
<g id="node7" class="node">
<title>Node6</title>
<polygon fill="#ffffff" stroke="#bfbfbf" points="213.5,-.5 213.5,-19.5 265.5,-19.5 265.5,-.5 213.5,-.5"/>
<text text-anchor="middle" x="239.5" y="-7.5" font-family="Helvetica,sans-Serif" font-size="10.00" fill="#000000">stdint.h</text>
</g>
<!-- Node2&#45;&gt;Node6 -->
<g id="edge6" class="edge">
<title>Node2&#45;&gt;Node6</title>
<path fill="none" stroke="#191970" d="M209.7707,-56.2455C214.7264,-48.5367 221.783,-37.5598 227.7776,-28.2348"/>
<polygon fill="#191970" stroke="#191970" points="230.8376,-29.9471 233.3011,-19.6427 224.9494,-26.1618 230.8376,-29.9471"/>
</g>
<!-- Node7 -->
<g id="node8" class="node">
<title>Node7</title>
<polygon fill="#ffffff" stroke="#bfbfbf" points="284,-.5 284,-19.5 361,-19.5 361,-.5 284,-.5"/>
<text text-anchor="middle" x="322.5" y="-7.5" font-family="Helvetica,sans-Serif" font-size="10.00" fill="#000000">periph_cpu.h</text>
</g>
<!-- Node2&#45;&gt;Node7 -->
<g id="edge7" class="edge">
<title>Node2&#45;&gt;Node7</title>
<path fill="none" stroke="#191970" d="M223.9568,-56.3733C242.9738,-47.4241 271.5175,-33.9917 292.9976,-23.8835"/>
<polygon fill="#191970" stroke="#191970" points="294.7522,-26.926 302.3101,-19.5011 291.7716,-20.5923 294.7522,-26.926"/>
</g>
<!-- Node8 -->
<g id="node9" class="node">
<title>Node8</title>
<polygon fill="#ffffff" stroke="#bfbfbf" points="379,-.5 379,-19.5 460,-19.5 460,-.5 379,-.5"/>
<text text-anchor="middle" x="419.5" y="-7.5" font-family="Helvetica,sans-Serif" font-size="10.00" fill="#000000">periph_conf.h</text>
</g>
<!-- Node2&#45;&gt;Node8 -->
<g id="edge8" class="edge">
<title>Node2&#45;&gt;Node8</title>
<path fill="none" stroke="#191970" d="M240.6317,-56.3733C277.3267,-46.8598 333.5639,-32.2797 373.1651,-22.0127"/>
<polygon fill="#191970" stroke="#191970" points="374.0512,-25.3988 382.8528,-19.5011 372.2944,-18.6228 374.0512,-25.3988"/>
</g>
</g>
</svg>
