<?xml version="1.0" encoding="UTF-8" standalone="no"?>
<!DOCTYPE svg PUBLIC "-//W3C//DTD SVG 1.1//EN"
 "http://www.w3.org/Graphics/SVG/1.1/DTD/svg11.dtd">
<!-- Generated by graphviz version 2.40.1 (0)
 -->
<!-- Title: boards/usb&#45;kw41z/include/board.h Pages: 1 -->
<svg width="348pt" height="151pt"
 viewBox="0.00 0.00 348.00 151.00" xmlns="http://www.w3.org/2000/svg" xmlns:xlink="http://www.w3.org/1999/xlink">
<g id="graph0" class="graph" transform="scale(1 1) rotate(0) translate(4 147)">
<title>boards/usb&#45;kw41z/include/board.h</title>
<polygon fill="#ffffff" stroke="transparent" points="-4,4 -4,-147 344,-147 344,4 -4,4"/>
<!-- Node0 -->
<g id="node1" class="node">
<title>Node0</title>
<polygon fill="#bfbfbf" stroke="#000000" points="40,-112.5 40,-142.5 178,-142.5 178,-112.5 40,-112.5"/>
<text text-anchor="start" x="48" y="-130.5" font-family="Helvetica,sans-Serif" font-size="10.00" fill="#000000">boards/usb&#45;kw41z/include</text>
<text text-anchor="middle" x="109" y="-119.5" font-family="Helvetica,sans-Serif" font-size="10.00" fill="#000000">/board.h</text>
</g>
<!-- Node1 -->
<g id="node2" class="node">
<title>Node1</title>
<polygon fill="#ffffff" stroke="#bfbfbf" points="0,-56.5 0,-75.5 42,-75.5 42,-56.5 0,-56.5"/>
<text text-anchor="middle" x="21" y="-63.5" font-family="Helvetica,sans-Serif" font-size="10.00" fill="#000000">cpu.h</text>
</g>
<!-- Node0&#45;&gt;Node1 -->
<g id="edge1" class="edge">
<title>Node0&#45;&gt;Node1</title>
<path fill="none" stroke="#191970" d="M87.2472,-112.2977C73.8032,-102.9022 56.5989,-90.8787 43.0922,-81.4395"/>
<polygon fill="#191970" stroke="#191970" points="45.0288,-78.5228 34.8271,-75.6633 41.0189,-84.2605 45.0288,-78.5228"/>
</g>
<!-- Node2 -->
<g id="node3" class="node">
<title>Node2</title>
<polygon fill="#ffffff" stroke="#bfbfbf" points="60,-56.5 60,-75.5 158,-75.5 158,-56.5 60,-56.5"/>
<text text-anchor="middle" x="109" y="-63.5" font-family="Helvetica,sans-Serif" font-size="10.00" fill="#000000">board_common.h</text>
</g>
<!-- Node0&#45;&gt;Node2 -->
<g id="edge2" class="edge">
<title>Node0&#45;&gt;Node2</title>
<path fill="none" stroke="#191970" d="M109,-112.2977C109,-104.3834 109,-94.6043 109,-86.0759"/>
<polygon fill="#191970" stroke="#191970" points="112.5001,-85.8469 109,-75.8469 105.5001,-85.847 112.5001,-85.8469"/>
</g>
<!-- Node3 -->
<g id="node4" class="node">
<title>Node3</title>
<g id="a_node4"><a xlink:href="boards_2usb-kw41z_2include_2periph__conf_8h.html" target="_top" xlink:title="periph_conf.h">
<polygon fill="#ffffff" stroke="#000000" points="176.5,-56.5 176.5,-75.5 257.5,-75.5 257.5,-56.5 176.5,-56.5"/>
<text text-anchor="middle" x="217" y="-63.5" font-family="Helvetica,sans-Serif" font-size="10.00" fill="#000000">periph_conf.h</text>
</a>
</g>
</g>
<!-- Node0&#45;&gt;Node3 -->
<g id="edge3" class="edge">
<title>Node0&#45;&gt;Node3</title>
<path fill="none" stroke="#191970" d="M135.4198,-112.4554C152.4914,-102.734 174.5902,-90.15 191.4809,-80.5317"/>
<polygon fill="#191970" stroke="#191970" points="193.3059,-83.5202 200.2638,-75.5303 189.842,-77.4373 193.3059,-83.5202"/>
</g>
<!-- Node4 -->
<g id="node5" class="node">
<title>Node4</title>
<polygon fill="#ffffff" stroke="#bfbfbf" points="118.5,-.5 118.5,-19.5 195.5,-19.5 195.5,-.5 118.5,-.5"/>
<text text-anchor="middle" x="157" y="-7.5" font-family="Helvetica,sans-Serif" font-size="10.00" fill="#000000">periph_cpu.h</text>
</g>
<!-- Node3&#45;&gt;Node4 -->
<g id="edge4" class="edge">
<title>Node3&#45;&gt;Node4</title>
<path fill="none" stroke="#191970" d="M206.5488,-56.2455C197.7731,-48.0549 185.0446,-36.1749 174.686,-26.5069"/>
<polygon fill="#191970" stroke="#191970" points="177.0301,-23.9072 167.3314,-19.6427 172.2539,-29.0246 177.0301,-23.9072"/>
</g>
<!-- Node5 -->
<g id="node6" class="node">
<title>Node5</title>
<polygon fill="#ffffff" stroke="#bfbfbf" points="214,-.5 214,-19.5 340,-19.5 340,-.5 214,-.5"/>
<text text-anchor="middle" x="277" y="-7.5" font-family="Helvetica,sans-Serif" font-size="10.00" fill="#000000">periph_conf_common.h</text>
</g>
<!-- Node3&#45;&gt;Node5 -->
<g id="edge5" class="edge">
<title>Node3&#45;&gt;Node5</title>
<path fill="none" stroke="#191970" d="M227.4512,-56.2455C236.2269,-48.0549 248.9554,-36.1749 259.314,-26.5069"/>
<polygon fill="#191970" stroke="#191970" points="261.7461,-29.0246 266.6686,-19.6427 256.9699,-23.9072 261.7461,-29.0246"/>
</g>
</g>
</svg>
