<?xml version="1.0" encoding="UTF-8" standalone="no"?>
<!DOCTYPE svg PUBLIC "-//W3C//DTD SVG 1.1//EN"
 "http://www.w3.org/Graphics/SVG/1.1/DTD/svg11.dtd">
<!-- Generated by graphviz version 2.40.1 (0)
 -->
<!-- Title: sys/include/usb.h Pages: 1 -->
<svg width="1109pt" height="296pt"
 viewBox="0.00 0.00 1109.00 296.00" xmlns="http://www.w3.org/2000/svg" xmlns:xlink="http://www.w3.org/1999/xlink">
<g id="graph0" class="graph" transform="scale(1 1) rotate(0) translate(4 292)">
<title>sys/include/usb.h</title>
<polygon fill="#ffffff" stroke="transparent" points="-4,4 -4,-292 1105,-292 1105,4 -4,4"/>
<!-- Node2 -->
<g id="node1" class="node">
<title>Node2</title>
<polygon fill="#bfbfbf" stroke="#000000" points="492.5,-268.5 492.5,-287.5 589.5,-287.5 589.5,-268.5 492.5,-268.5"/>
<text text-anchor="middle" x="541" y="-275.5" font-family="Helvetica,sans-Serif" font-size="10.00" fill="#000000">sys/include/usb.h</text>
</g>
<!-- Node3 -->
<g id="node2" class="node">
<title>Node3</title>
<g id="a_node2"><a xlink:href="usbdev_8h.html" target="_top" xlink:title="Definitions low&#45;level USB driver interface. ">
<polygon fill="#ffffff" stroke="#000000" points="300.5,-201.5 300.5,-231.5 421.5,-231.5 421.5,-201.5 300.5,-201.5"/>
<text text-anchor="start" x="308.5" y="-219.5" font-family="Helvetica,sans-Serif" font-size="10.00" fill="#000000">drivers/include/periph</text>
<text text-anchor="middle" x="361" y="-208.5" font-family="Helvetica,sans-Serif" font-size="10.00" fill="#000000">/usbdev.h</text>
</a>
</g>
</g>
<!-- Node2&#45;&gt;Node3 -->
<g id="edge1" class="edge">
<title>Node2&#45;&gt;Node3</title>
<path fill="none" stroke="#191970" d="M503.2233,-265.0929C474.5696,-255.303 435.1177,-241.8235 405.033,-231.5446"/>
<polygon fill="#191970" stroke="#191970" points="502.2805,-268.4694 512.875,-268.3906 504.5437,-261.8454 502.2805,-268.4694"/>
</g>
<!-- Node7 -->
<g id="node6" class="node">
<title>Node7</title>
<g id="a_node6"><a xlink:href="usbus_8h.html" target="_top" xlink:title="USBUS basic interface. ">
<polygon fill="#ffffff" stroke="#000000" points="520,-140 520,-159 648,-159 648,-140 520,-140"/>
<text text-anchor="middle" x="584" y="-147" font-family="Helvetica,sans-Serif" font-size="10.00" fill="#000000">sys/include/usb/usbus.h</text>
</a>
</g>
</g>
<!-- Node2&#45;&gt;Node7 -->
<g id="edge21" class="edge">
<title>Node2&#45;&gt;Node7</title>
<path fill="none" stroke="#191970" d="M551.9068,-259.7213C556.4646,-251.4744 561.5024,-241.475 565,-232 574.3653,-206.6293 580.0834,-175.1094 582.559,-159.3862"/>
<polygon fill="#191970" stroke="#191970" points="548.8337,-258.0445 546.8977,-268.461 554.907,-261.5254 548.8337,-258.0445"/>
</g>
<!-- Node18 -->
<g id="node17" class="node">
<title>Node18</title>
<g id="a_node17"><a xlink:href="cdc_8h.html" target="_top" xlink:title="Definition for USB CDC interfaces. ">
<polygon fill="#ffffff" stroke="#000000" points="440,-207 440,-226 556,-226 556,-207 440,-207"/>
<text text-anchor="middle" x="498" y="-214" font-family="Helvetica,sans-Serif" font-size="10.00" fill="#000000">sys/include/usb/cdc.h</text>
</a>
</g>
</g>
<!-- Node2&#45;&gt;Node18 -->
<g id="edge17" class="edge">
<title>Node2&#45;&gt;Node18</title>
<path fill="none" stroke="#191970" d="M528.3565,-259.9169C520.6567,-248.9043 511.1203,-235.265 504.8135,-226.2449"/>
<polygon fill="#191970" stroke="#191970" points="525.6826,-262.2007 534.2813,-268.3906 531.4195,-258.1896 525.6826,-262.2007"/>
</g>
<!-- Node19 -->
<g id="node18" class="node">
<title>Node19</title>
<g id="a_node18"><a xlink:href="dfu_8h.html" target="_top" xlink:title="Definition for USB DFU interfaces. ">
<polygon fill="#ffffff" stroke="#000000" points="640,-207 640,-226 756,-226 756,-207 640,-207"/>
<text text-anchor="middle" x="698" y="-214" font-family="Helvetica,sans-Serif" font-size="10.00" fill="#000000">sys/include/usb/dfu.h</text>
</a>
</g>
</g>
<!-- Node2&#45;&gt;Node19 -->
<g id="edge19" class="edge">
<title>Node2&#45;&gt;Node19</title>
<path fill="none" stroke="#191970" d="M575.0863,-264.6477C604.8153,-253.0023 647.2107,-236.3952 673.641,-226.0419"/>
<polygon fill="#191970" stroke="#191970" points="573.5658,-261.4843 565.5313,-268.3906 576.119,-268.0021 573.5658,-261.4843"/>
</g>
<!-- Node4 -->
<g id="node3" class="node">
<title>Node4</title>
<g id="a_node3"><a xlink:href="nrfusb_8h.html" target="_top" xlink:title="USB interface functions for the nrf52840 class devices. ">
<polygon fill="#ffffff" stroke="#000000" points="0,-134.5 0,-164.5 144,-164.5 144,-134.5 0,-134.5"/>
<text text-anchor="start" x="8" y="-152.5" font-family="Helvetica,sans-Serif" font-size="10.00" fill="#000000">cpu/nrf5x_common/include</text>
<text text-anchor="middle" x="72" y="-141.5" font-family="Helvetica,sans-Serif" font-size="10.00" fill="#000000">/nrfusb.h</text>
</a>
</g>
</g>
<!-- Node3&#45;&gt;Node4 -->
<g id="edge2" class="edge">
<title>Node3&#45;&gt;Node4</title>
<path fill="none" stroke="#191970" d="M290.6317,-200.1862C243.7116,-189.3086 182.4906,-175.1155 136.7708,-164.5161"/>
<polygon fill="#191970" stroke="#191970" points="289.884,-203.6057 300.4161,-202.4546 291.465,-196.7865 289.884,-203.6057"/>
</g>
<!-- Node5 -->
<g id="node4" class="node">
<title>Node5</title>
<g id="a_node4"><a xlink:href="sam__usb_8h.html" target="_top" xlink:title="USB interface functions for the sam0 class devices. ">
<polygon fill="#ffffff" stroke="#000000" points="162.5,-134.5 162.5,-164.5 305.5,-164.5 305.5,-134.5 162.5,-134.5"/>
<text text-anchor="start" x="170.5" y="-152.5" font-family="Helvetica,sans-Serif" font-size="10.00" fill="#000000">cpu/sam0_common/include</text>
<text text-anchor="middle" x="234" y="-141.5" font-family="Helvetica,sans-Serif" font-size="10.00" fill="#000000">/sam_usb.h</text>
</a>
</g>
</g>
<!-- Node3&#45;&gt;Node5 -->
<g id="edge3" class="edge">
<title>Node3&#45;&gt;Node5</title>
<path fill="none" stroke="#191970" d="M323.6095,-196.7743C304.1978,-186.5335 280.8444,-174.2132 262.8456,-164.7177"/>
<polygon fill="#191970" stroke="#191970" points="322.0209,-199.8934 332.4987,-201.4639 325.2872,-193.7021 322.0209,-199.8934"/>
</g>
<!-- Node6 -->
<g id="node5" class="node">
<title>Node6</title>
<g id="a_node5"><a xlink:href="usbdev__stm32_8h.html" target="_top" xlink:title="USB interface functions for the stm32 OTG FS/HS class devices. ">
<polygon fill="#ffffff" stroke="#000000" points="324,-134.5 324,-164.5 464,-164.5 464,-134.5 324,-134.5"/>
<text text-anchor="start" x="332" y="-152.5" font-family="Helvetica,sans-Serif" font-size="10.00" fill="#000000">cpu/stm32/include/usbdev</text>
<text text-anchor="middle" x="394" y="-141.5" font-family="Helvetica,sans-Serif" font-size="10.00" fill="#000000">_stm32.h</text>
</a>
</g>
</g>
<!-- Node3&#45;&gt;Node6 -->
<g id="edge4" class="edge">
<title>Node3&#45;&gt;Node6</title>
<path fill="none" stroke="#191970" d="M372.972,-192.1932C377.5077,-182.9844 382.5382,-172.771 386.5414,-164.6432"/>
<polygon fill="#191970" stroke="#191970" points="369.7669,-190.7793 368.4882,-201.2967 376.0466,-193.8723 369.7669,-190.7793"/>
</g>
<!-- Node3&#45;&gt;Node7 -->
<g id="edge5" class="edge">
<title>Node3&#45;&gt;Node7</title>
<path fill="none" stroke="#191970" d="M420.6929,-198.5654C463.044,-185.841 518.2174,-169.2643 552.363,-159.0053"/>
<polygon fill="#191970" stroke="#191970" points="419.6155,-195.2344 411.0456,-201.4639 421.6298,-201.9384 419.6155,-195.2344"/>
</g>
<!-- Node8 -->
<g id="node7" class="node">
<title>Node8</title>
<g id="a_node7"><a xlink:href="msc_8h.html" target="_top" xlink:title="USB Mass Storage Class functions definitions. ">
<polygon fill="#ffffff" stroke="#000000" points="798.5,-73 798.5,-92 917.5,-92 917.5,-73 798.5,-73"/>
<text text-anchor="middle" x="858" y="-80" font-family="Helvetica,sans-Serif" font-size="10.00" fill="#000000">sys/include/usb/msc.h</text>
</a>
</g>
</g>
<!-- Node7&#45;&gt;Node8 -->
<g id="edge6" class="edge">
<title>Node7&#45;&gt;Node8</title>
<path fill="none" stroke="#191970" d="M632.8309,-137.5596C685.9197,-124.578 769.7193,-104.0869 818.7243,-92.1039"/>
<polygon fill="#191970" stroke="#191970" points="631.849,-134.1965 622.9665,-139.9717 633.5117,-140.9962 631.849,-134.1965"/>
</g>
<!-- Node9 -->
<g id="node8" class="node">
<title>Node9</title>
<g id="a_node8"><a xlink:href="acm_8h.html" target="_top" xlink:title="Interface and definitions for USB CDC ACM type interfaces in USBUS. ">
<polygon fill="#ffffff" stroke="#000000" points="113.5,-67.5 113.5,-97.5 232.5,-97.5 232.5,-67.5 113.5,-67.5"/>
<text text-anchor="start" x="121.5" y="-85.5" font-family="Helvetica,sans-Serif" font-size="10.00" fill="#000000">sys/include/usb/usbus</text>
<text text-anchor="middle" x="173" y="-74.5" font-family="Helvetica,sans-Serif" font-size="10.00" fill="#000000">/cdc/acm.h</text>
</a>
</g>
</g>
<!-- Node7&#45;&gt;Node9 -->
<g id="edge7" class="edge">
<title>Node7&#45;&gt;Node9</title>
<path fill="none" stroke="#191970" d="M528.2337,-137.9883C520.7716,-136.5741 513.2088,-135.2048 506,-134 388.7663,-114.4076 357.9485,-119.2288 241,-98 238.2599,-97.5026 235.4632,-96.9695 232.6423,-96.411"/>
<polygon fill="#191970" stroke="#191970" points="527.8219,-141.4734 538.3042,-139.9335 529.1495,-134.6004 527.8219,-141.4734"/>
</g>
<!-- Node11 -->
<g id="node10" class="node">
<title>Node11</title>
<g id="a_node10"><a xlink:href="ecm_8h.html" target="_top" xlink:title="Interface and definitions for USB CDC ECM type interfaces. ">
<polygon fill="#ffffff" stroke="#000000" points="608.5,-.5 608.5,-30.5 727.5,-30.5 727.5,-.5 608.5,-.5"/>
<text text-anchor="start" x="616.5" y="-18.5" font-family="Helvetica,sans-Serif" font-size="10.00" fill="#000000">sys/include/usb/usbus</text>
<text text-anchor="middle" x="668" y="-7.5" font-family="Helvetica,sans-Serif" font-size="10.00" fill="#000000">/cdc/ecm.h</text>
</a>
</g>
</g>
<!-- Node7&#45;&gt;Node11 -->
<g id="edge9" class="edge">
<title>Node7&#45;&gt;Node11</title>
<path fill="none" stroke="#191970" d="M637.1017,-137.8878C644.1148,-136.498 651.22,-135.1621 658,-134 717.4438,-123.811 887.2829,-143.3865 927,-98 936.0732,-87.6316 935.7409,-77.6501 927,-67 902.2775,-36.8776 796.176,-24.0511 727.6791,-18.8327"/>
<polygon fill="#191970" stroke="#191970" points="636.0457,-134.5306 626.941,-139.9486 637.4372,-141.3909 636.0457,-134.5306"/>
</g>
<!-- Node12 -->
<g id="node11" class="node">
<title>Node12</title>
<g id="a_node11"><a xlink:href="control_8h.html" target="_top" xlink:title="USBUS control endpoint module. ">
<polygon fill="#ffffff" stroke="#000000" points="387.5,-67.5 387.5,-97.5 506.5,-97.5 506.5,-67.5 387.5,-67.5"/>
<text text-anchor="start" x="395.5" y="-85.5" font-family="Helvetica,sans-Serif" font-size="10.00" fill="#000000">sys/include/usb/usbus</text>
<text text-anchor="middle" x="447" y="-74.5" font-family="Helvetica,sans-Serif" font-size="10.00" fill="#000000">/control.h</text>
</a>
</g>
</g>
<!-- Node7&#45;&gt;Node12 -->
<g id="edge10" class="edge">
<title>Node7&#45;&gt;Node12</title>
<path fill="none" stroke="#191970" d="M555.235,-135.4324C532.5271,-124.3271 500.9147,-108.867 477.7161,-97.5218"/>
<polygon fill="#191970" stroke="#191970" points="553.8503,-138.6513 564.3712,-139.9005 556.9256,-132.3631 553.8503,-138.6513"/>
</g>
<!-- Node13 -->
<g id="node12" class="node">
<title>Node13</title>
<g id="a_node12"><a xlink:href="usb_2usbus_2fmt_8h.html" target="_top" xlink:title="USBUS descriptor formatter functions. ">
<polygon fill="#ffffff" stroke="#000000" points="250.5,-67.5 250.5,-97.5 369.5,-97.5 369.5,-67.5 250.5,-67.5"/>
<text text-anchor="start" x="258.5" y="-85.5" font-family="Helvetica,sans-Serif" font-size="10.00" fill="#000000">sys/include/usb/usbus</text>
<text text-anchor="middle" x="310" y="-74.5" font-family="Helvetica,sans-Serif" font-size="10.00" fill="#000000">/fmt.h</text>
</a>
</g>
</g>
<!-- Node7&#45;&gt;Node13 -->
<g id="edge12" class="edge">
<title>Node7&#45;&gt;Node13</title>
<path fill="none" stroke="#191970" d="M535.2439,-137.5779C488.9783,-126.2648 419.34,-109.2364 369.7552,-97.1117"/>
<polygon fill="#191970" stroke="#191970" points="534.4883,-140.9962 545.0335,-139.9717 536.151,-134.1965 534.4883,-140.9962"/>
</g>
<!-- Node14 -->
<g id="node13" class="node">
<title>Node14</title>
<g id="a_node13"><a xlink:href="usbus_2hid_8h.html" target="_top" xlink:title="Interface and definitions for USB HID type interfaces in USBUS. ">
<polygon fill="#ffffff" stroke="#000000" points="974.5,-67.5 974.5,-97.5 1093.5,-97.5 1093.5,-67.5 974.5,-67.5"/>
<text text-anchor="start" x="982.5" y="-85.5" font-family="Helvetica,sans-Serif" font-size="10.00" fill="#000000">sys/include/usb/usbus</text>
<text text-anchor="middle" x="1034" y="-74.5" font-family="Helvetica,sans-Serif" font-size="10.00" fill="#000000">/hid.h</text>
</a>
</g>
</g>
<!-- Node7&#45;&gt;Node14 -->
<g id="edge13" class="edge">
<title>Node7&#45;&gt;Node14</title>
<path fill="none" stroke="#191970" d="M636.8163,-137.8481C643.9194,-136.4539 651.1248,-135.1276 658,-134 791.3904,-112.123 826.6096,-119.877 960,-98 964.6631,-97.2352 969.478,-96.379 974.3099,-95.4722"/>
<polygon fill="#191970" stroke="#191970" points="635.6427,-134.5143 626.533,-139.924 637.0279,-141.3759 635.6427,-134.5143"/>
</g>
<!-- Node16 -->
<g id="node15" class="node">
<title>Node16</title>
<g id="a_node15"><a xlink:href="hid__io_8h.html" target="_top" xlink:title="USB HID callback and read/write functions. ">
<polygon fill="#ffffff" stroke="#000000" points="524.5,-67.5 524.5,-97.5 643.5,-97.5 643.5,-67.5 524.5,-67.5"/>
<text text-anchor="start" x="532.5" y="-85.5" font-family="Helvetica,sans-Serif" font-size="10.00" fill="#000000">sys/include/usb/usbus</text>
<text text-anchor="middle" x="584" y="-74.5" font-family="Helvetica,sans-Serif" font-size="10.00" fill="#000000">/hid_io.h</text>
</a>
</g>
</g>
<!-- Node7&#45;&gt;Node16 -->
<g id="edge15" class="edge">
<title>Node7&#45;&gt;Node16</title>
<path fill="none" stroke="#191970" d="M584,-129.7758C584,-119.4641 584,-107.0437 584,-97.5218"/>
<polygon fill="#191970" stroke="#191970" points="580.5001,-129.9005 584,-139.9005 587.5001,-129.9006 580.5001,-129.9005"/>
</g>
<!-- Node17 -->
<g id="node16" class="node">
<title>Node17</title>
<g id="a_node16"><a xlink:href="usbus_2msc_8h.html" target="_top" xlink:title="USBUS Mass Storage Class functions definitions. ">
<polygon fill="#ffffff" stroke="#000000" points="661.5,-67.5 661.5,-97.5 780.5,-97.5 780.5,-67.5 661.5,-67.5"/>
<text text-anchor="start" x="669.5" y="-85.5" font-family="Helvetica,sans-Serif" font-size="10.00" fill="#000000">sys/include/usb/usbus</text>
<text text-anchor="middle" x="721" y="-74.5" font-family="Helvetica,sans-Serif" font-size="10.00" fill="#000000">/msc.h</text>
</a>
</g>
</g>
<!-- Node7&#45;&gt;Node17 -->
<g id="edge16" class="edge">
<title>Node7&#45;&gt;Node17</title>
<path fill="none" stroke="#191970" d="M612.765,-135.4324C635.4729,-124.3271 667.0853,-108.867 690.2839,-97.5218"/>
<polygon fill="#191970" stroke="#191970" points="611.0744,-132.3631 603.6288,-139.9005 614.1497,-138.6513 611.0744,-132.3631"/>
</g>
<!-- Node10 -->
<g id="node9" class="node">
<title>Node10</title>
<g id="a_node9"><a xlink:href="usb__board__reset__internal_8h.html" target="_top" xlink:title="sys/include/usb_board\l_reset_internal.h">
<polygon fill="#ffffff" stroke="#000000" points="113,-.5 113,-30.5 233,-30.5 233,-.5 113,-.5"/>
<text text-anchor="start" x="121" y="-18.5" font-family="Helvetica,sans-Serif" font-size="10.00" fill="#000000">sys/include/usb_board</text>
<text text-anchor="middle" x="173" y="-7.5" font-family="Helvetica,sans-Serif" font-size="10.00" fill="#000000">_reset_internal.h</text>
</a>
</g>
</g>
<!-- Node9&#45;&gt;Node10 -->
<g id="edge8" class="edge">
<title>Node9&#45;&gt;Node10</title>
<path fill="none" stroke="#191970" d="M173,-57.0249C173,-48.128 173,-38.4287 173,-30.6432"/>
<polygon fill="#191970" stroke="#191970" points="169.5001,-57.2966 173,-67.2967 176.5001,-57.2967 169.5001,-57.2966"/>
</g>
<!-- Node12&#45;&gt;Node11 -->
<g id="edge11" class="edge">
<title>Node12&#45;&gt;Node11</title>
<path fill="none" stroke="#191970" d="M506.2134,-64.5484C541.1947,-53.9432 584.9881,-40.6665 618.187,-30.6017"/>
<polygon fill="#191970" stroke="#191970" points="505.1511,-61.2131 496.5967,-67.4639 507.1821,-67.912 505.1511,-61.2131"/>
</g>
<!-- Node15 -->
<g id="node14" class="node">
<title>Node15</title>
<g id="a_node14"><a xlink:href="ctap__hid_8h.html" target="_top" xlink:title="Definition for CTAPHID helper functions. ">
<polygon fill="#ffffff" stroke="#000000" points="967,-.5 967,-30.5 1101,-30.5 1101,-.5 967,-.5"/>
<text text-anchor="start" x="975" y="-18.5" font-family="Helvetica,sans-Serif" font-size="10.00" fill="#000000">sys/include/fido2/ctap</text>
<text text-anchor="middle" x="1034" y="-7.5" font-family="Helvetica,sans-Serif" font-size="10.00" fill="#000000">/transport/hid/ctap_hid.h</text>
</a>
</g>
</g>
<!-- Node14&#45;&gt;Node15 -->
<g id="edge14" class="edge">
<title>Node14&#45;&gt;Node15</title>
<path fill="none" stroke="#191970" d="M1034,-57.0249C1034,-48.128 1034,-38.4287 1034,-30.6432"/>
<polygon fill="#191970" stroke="#191970" points="1030.5001,-57.2966 1034,-67.2967 1037.5001,-57.2967 1030.5001,-57.2966"/>
</g>
<!-- Node18&#45;&gt;Node9 -->
<g id="edge18" class="edge">
<title>Node18&#45;&gt;Node9</title>
<path fill="none" stroke="#191970" d="M497.6874,-196.6344C496.2521,-177.6222 490.955,-149.5976 473,-134 433.6135,-99.7848 292.2432,-107.8035 241,-98 238.2647,-97.4767 235.472,-96.9223 232.6543,-96.3467"/>
<polygon fill="#191970" stroke="#191970" points="494.2023,-197.0415 498.157,-206.8706 501.195,-196.7207 494.2023,-197.0415"/>
</g>
<!-- Node20 -->
<g id="node19" class="node">
<title>Node20</title>
<g id="a_node19"><a xlink:href="usbus_2dfu_8h_source.html" target="_top" xlink:title="sys/include/usb/usbus\l/dfu.h">
<polygon fill="#ffffff" stroke="#000000" points="666.5,-134.5 666.5,-164.5 785.5,-164.5 785.5,-134.5 666.5,-134.5"/>
<text text-anchor="start" x="674.5" y="-152.5" font-family="Helvetica,sans-Serif" font-size="10.00" fill="#000000">sys/include/usb/usbus</text>
<text text-anchor="middle" x="726" y="-141.5" font-family="Helvetica,sans-Serif" font-size="10.00" fill="#000000">/dfu.h</text>
</a>
</g>
</g>
<!-- Node19&#45;&gt;Node20 -->
<g id="edge20" class="edge">
<title>Node19&#45;&gt;Node20</title>
<path fill="none" stroke="#191970" d="M705.9691,-197.4311C710.3309,-186.9939 715.6583,-174.2463 719.7222,-164.5218"/>
<polygon fill="#191970" stroke="#191970" points="702.6384,-196.3242 702.0117,-206.9005 709.0971,-199.0234 702.6384,-196.3242"/>
</g>
</g>
</svg>
