<?xml version="1.0" encoding="UTF-8" standalone="no"?>
<!DOCTYPE svg PUBLIC "-//W3C//DTD SVG 1.1//EN"
 "http://www.w3.org/Graphics/SVG/1.1/DTD/svg11.dtd">
<!-- Generated by graphviz version 2.40.1 (0)
 -->
<!-- Title: boards/common/silabs/include/usbdev_cfg_otg_fs.h Pages: 1 -->
<svg width="351pt" height="151pt"
 viewBox="0.00 0.00 350.50 151.00" xmlns="http://www.w3.org/2000/svg" xmlns:xlink="http://www.w3.org/1999/xlink">
<g id="graph0" class="graph" transform="scale(1 1) rotate(0) translate(4 147)">
<title>boards/common/silabs/include/usbdev_cfg_otg_fs.h</title>
<polygon fill="#ffffff" stroke="transparent" points="-4,4 -4,-147 346.5,-147 346.5,4 -4,4"/>
<!-- Node0 -->
<g id="node1" class="node">
<title>Node0</title>
<polygon fill="#bfbfbf" stroke="#000000" points="66.5,-112.5 66.5,-142.5 218.5,-142.5 218.5,-112.5 66.5,-112.5"/>
<text text-anchor="start" x="74.5" y="-130.5" font-family="Helvetica,sans-Serif" font-size="10.00" fill="#000000">boards/common/silabs</text>
<text text-anchor="middle" x="142.5" y="-119.5" font-family="Helvetica,sans-Serif" font-size="10.00" fill="#000000">/include/usbdev_cfg_otg_fs.h</text>
</g>
<!-- Node1 -->
<g id="node2" class="node">
<title>Node1</title>
<polygon fill="#ffffff" stroke="#bfbfbf" points="0,-56.5 0,-75.5 77,-75.5 77,-56.5 0,-56.5"/>
<text text-anchor="middle" x="38.5" y="-63.5" font-family="Helvetica,sans-Serif" font-size="10.00" fill="#000000">periph_cpu.h</text>
</g>
<!-- Node0&#45;&gt;Node1 -->
<g id="edge1" class="edge">
<title>Node0&#45;&gt;Node1</title>
<path fill="none" stroke="#191970" d="M117.0587,-112.4554C100.7716,-102.8241 79.7327,-90.3828 63.527,-80.7996"/>
<polygon fill="#191970" stroke="#191970" points="65.0055,-77.6078 54.6163,-75.5303 61.4424,-83.6331 65.0055,-77.6078"/>
</g>
<!-- Node2 -->
<g id="node3" class="node">
<title>Node2</title>
<polygon fill="#ffffff" stroke="#bfbfbf" points="95,-56.5 95,-75.5 190,-75.5 190,-56.5 95,-56.5"/>
<text text-anchor="middle" x="142.5" y="-63.5" font-family="Helvetica,sans-Serif" font-size="10.00" fill="#000000">usbdev_efm32.h</text>
</g>
<!-- Node0&#45;&gt;Node2 -->
<g id="edge2" class="edge">
<title>Node0&#45;&gt;Node2</title>
<path fill="none" stroke="#191970" d="M142.5,-112.2977C142.5,-104.3834 142.5,-94.6043 142.5,-86.0759"/>
<polygon fill="#191970" stroke="#191970" points="146.0001,-85.8469 142.5,-75.8469 139.0001,-85.847 146.0001,-85.8469"/>
</g>
<!-- Node3 -->
<g id="node4" class="node">
<title>Node3</title>
<g id="a_node4"><a xlink:href="usbdev__synopsys__dwc2_8h.html" target="_top" xlink:title="Low level USB FS/HS driver definitions for MCUs with Synopsys DWC2 IP core. ">
<polygon fill="#ffffff" stroke="#000000" points="208.5,-56.5 208.5,-75.5 342.5,-75.5 342.5,-56.5 208.5,-56.5"/>
<text text-anchor="middle" x="275.5" y="-63.5" font-family="Helvetica,sans-Serif" font-size="10.00" fill="#000000">usbdev_synopsys_dwc2.h</text>
</a>
</g>
</g>
<!-- Node0&#45;&gt;Node3 -->
<g id="edge3" class="edge">
<title>Node0&#45;&gt;Node3</title>
<path fill="none" stroke="#191970" d="M175.0355,-112.4554C196.6429,-102.464 224.7898,-89.4487 245.792,-79.7372"/>
<polygon fill="#191970" stroke="#191970" points="247.2821,-82.9043 254.8897,-75.5303 244.3441,-76.5506 247.2821,-82.9043"/>
</g>
<!-- Node4 -->
<g id="node5" class="node">
<title>Node4</title>
<polygon fill="#ffffff" stroke="#bfbfbf" points="249.5,-.5 249.5,-19.5 301.5,-19.5 301.5,-.5 249.5,-.5"/>
<text text-anchor="middle" x="275.5" y="-7.5" font-family="Helvetica,sans-Serif" font-size="10.00" fill="#000000">stdint.h</text>
</g>
<!-- Node3&#45;&gt;Node4 -->
<g id="edge4" class="edge">
<title>Node3&#45;&gt;Node4</title>
<path fill="none" stroke="#191970" d="M275.5,-56.2455C275.5,-48.9382 275.5,-38.6944 275.5,-29.7046"/>
<polygon fill="#191970" stroke="#191970" points="279.0001,-29.6426 275.5,-19.6427 272.0001,-29.6427 279.0001,-29.6426"/>
</g>
</g>
</svg>
