<?xml version="1.0" encoding="UTF-8" standalone="no"?>
<!DOCTYPE svg PUBLIC "-//W3C//DTD SVG 1.1//EN"
 "http://www.w3.org/Graphics/SVG/1.1/DTD/svg11.dtd">
<!-- Generated by graphviz version 2.40.1 (0)
 -->
<!-- Title: sys/include/usb/usbus/hid.h Pages: 1 -->
<svg width="1583pt" height="487pt"
 viewBox="0.00 0.00 1583.35 487.00" xmlns="http://www.w3.org/2000/svg" xmlns:xlink="http://www.w3.org/1999/xlink">
<g id="graph0" class="graph" transform="scale(1 1) rotate(0) translate(4 483)">
<title>sys/include/usb/usbus/hid.h</title>
<polygon fill="#ffffff" stroke="transparent" points="-4,4 -4,-483 1579.3512,-483 1579.3512,4 -4,4"/>
<!-- Node0 -->
<g id="node1" class="node">
<title>Node0</title>
<polygon fill="#bfbfbf" stroke="#000000" points="1232,-448.5 1232,-478.5 1351,-478.5 1351,-448.5 1232,-448.5"/>
<text text-anchor="start" x="1240" y="-466.5" font-family="Helvetica,sans-Serif" font-size="10.00" fill="#000000">sys/include/usb/usbus</text>
<text text-anchor="middle" x="1291.5" y="-455.5" font-family="Helvetica,sans-Serif" font-size="10.00" fill="#000000">/hid.h</text>
</g>
<!-- Node1 -->
<g id="node2" class="node">
<title>Node1</title>
<polygon fill="#ffffff" stroke="#bfbfbf" points="778.5,-.5 778.5,-19.5 830.5,-19.5 830.5,-.5 778.5,-.5"/>
<text text-anchor="middle" x="804.5" y="-7.5" font-family="Helvetica,sans-Serif" font-size="10.00" fill="#000000">stdint.h</text>
</g>
<!-- Node0&#45;&gt;Node1 -->
<g id="edge1" class="edge">
<title>Node0&#45;&gt;Node1</title>
<path fill="none" stroke="#191970" d="M1351.1535,-459.0281C1420.4819,-450.2007 1525.5,-423.9622 1525.5,-346 1525.5,-346 1525.5,-346 1525.5,-122 1525.5,-110.3702 1711.6722,-138.3366 1360.5,-56 1261.0252,-32.6769 947.8884,-16.5539 840.8163,-11.6039"/>
<polygon fill="#191970" stroke="#191970" points="840.9704,-8.1074 830.8209,-11.1467 840.6505,-15.1001 840.9704,-8.1074"/>
</g>
<!-- Node2 -->
<g id="node3" class="node">
<title>Node2</title>
<g id="a_node3"><a xlink:href="usbus_8h.html" target="_top" xlink:title="USBUS basic interface. ">
<polygon fill="#ffffff" stroke="#000000" points="324,-280.5 324,-299.5 397,-299.5 397,-280.5 324,-280.5"/>
<text text-anchor="middle" x="360.5" y="-287.5" font-family="Helvetica,sans-Serif" font-size="10.00" fill="#000000">usb/usbus.h</text>
</a>
</g>
</g>
<!-- Node0&#45;&gt;Node2 -->
<g id="edge2" class="edge">
<title>Node0&#45;&gt;Node2</title>
<path fill="none" stroke="#191970" d="M1231.8684,-458.2912C1070.0313,-443.7199 625.3543,-400.6749 485.5,-356 447.5664,-343.8825 407.4992,-320.6089 383.2444,-305.1908"/>
<polygon fill="#191970" stroke="#191970" points="385.0583,-302.1957 374.7602,-299.7059 381.2579,-308.0743 385.0583,-302.1957"/>
</g>
<!-- Node26 -->
<g id="node27" class="node">
<title>Node26</title>
<g id="a_node27"><a xlink:href="hid_8h.html" target="_top" xlink:title="Definition for USB HID interfaces. ">
<polygon fill="#ffffff" stroke="#000000" points="1374.5,-392.5 1374.5,-411.5 1434.5,-411.5 1434.5,-392.5 1374.5,-392.5"/>
<text text-anchor="middle" x="1404.5" y="-399.5" font-family="Helvetica,sans-Serif" font-size="10.00" fill="#000000">usb/hid.h</text>
</a>
</g>
</g>
<!-- Node0&#45;&gt;Node26 -->
<g id="edge43" class="edge">
<title>Node0&#45;&gt;Node26</title>
<path fill="none" stroke="#191970" d="M1319.1429,-448.4554C1337.0049,-438.734 1360.1268,-426.15 1377.7995,-416.5317"/>
<polygon fill="#191970" stroke="#191970" points="1379.8787,-419.3849 1386.989,-411.5303 1376.5325,-413.2365 1379.8787,-419.3849"/>
</g>
<!-- Node28 -->
<g id="node29" class="node">
<title>Node28</title>
<g id="a_node29"><a xlink:href="mutex_8h.html" target="_top" xlink:title="Mutex for thread synchronization. ">
<polygon fill="#ffffff" stroke="#000000" points="1091.5,-392.5 1091.5,-411.5 1147.5,-411.5 1147.5,-392.5 1091.5,-392.5"/>
<text text-anchor="middle" x="1119.5" y="-399.5" font-family="Helvetica,sans-Serif" font-size="10.00" fill="#000000">mutex.h</text>
</a>
</g>
</g>
<!-- Node0&#45;&gt;Node28 -->
<g id="edge46" class="edge">
<title>Node0&#45;&gt;Node28</title>
<path fill="none" stroke="#191970" d="M1249.4241,-448.4554C1220.7254,-438.194 1183.1063,-424.7429 1155.7377,-414.9571"/>
<polygon fill="#191970" stroke="#191970" points="1156.7485,-411.6015 1146.1539,-411.5303 1154.3917,-418.1929 1156.7485,-411.6015"/>
</g>
<!-- Node2&#45;&gt;Node1 -->
<g id="edge3" class="edge">
<title>Node2&#45;&gt;Node1</title>
<path fill="none" stroke="#191970" d="M379.025,-280.3812C408.1828,-263.7571 461.5,-226.7005 461.5,-178 461.5,-178 461.5,-178 461.5,-122 461.5,-57.9667 680.2478,-24.7785 768.363,-14.0072"/>
<polygon fill="#191970" stroke="#191970" points="768.9233,-17.4653 778.4377,-12.8042 768.0933,-10.5147 768.9233,-17.4653"/>
</g>
<!-- Node3 -->
<g id="node4" class="node">
<title>Node3</title>
<polygon fill="#ffffff" stroke="#bfbfbf" points="308.5,-224.5 308.5,-243.5 358.5,-243.5 358.5,-224.5 308.5,-224.5"/>
<text text-anchor="middle" x="333.5" y="-231.5" font-family="Helvetica,sans-Serif" font-size="10.00" fill="#000000">stdlib.h</text>
</g>
<!-- Node2&#45;&gt;Node3 -->
<g id="edge4" class="edge">
<title>Node2&#45;&gt;Node3</title>
<path fill="none" stroke="#191970" d="M355.797,-280.2455C352.1576,-272.6973 347.0076,-262.0158 342.5738,-252.8197"/>
<polygon fill="#191970" stroke="#191970" points="345.6449,-251.1303 338.1491,-243.6427 339.3395,-254.1704 345.6449,-251.1303"/>
</g>
<!-- Node4 -->
<g id="node5" class="node">
<title>Node4</title>
<g id="a_node5"><a xlink:href="clist_8h.html" target="_top" xlink:title="Circular linked list. ">
<polygon fill="#ffffff" stroke="#000000" points="884,-168.5 884,-187.5 927,-187.5 927,-168.5 884,-168.5"/>
<text text-anchor="middle" x="905.5" y="-175.5" font-family="Helvetica,sans-Serif" font-size="10.00" fill="#000000">clist.h</text>
</a>
</g>
</g>
<!-- Node2&#45;&gt;Node4 -->
<g id="edge5" class="edge">
<title>Node2&#45;&gt;Node4</title>
<path fill="none" stroke="#191970" d="M397.1053,-282.4775C498.0928,-261.724 779.3958,-203.915 873.9991,-184.4736"/>
<polygon fill="#191970" stroke="#191970" points="874.7413,-187.8943 883.832,-182.4529 873.3321,-181.0376 874.7413,-187.8943"/>
</g>
<!-- Node8 -->
<g id="node9" class="node">
<title>Node8</title>
<polygon fill="#ffffff" stroke="#bfbfbf" points="0,-224.5 0,-243.5 53,-243.5 53,-224.5 0,-224.5"/>
<text text-anchor="middle" x="26.5" y="-231.5" font-family="Helvetica,sans-Serif" font-size="10.00" fill="#000000">event.h</text>
</g>
<!-- Node2&#45;&gt;Node8 -->
<g id="edge9" class="edge">
<title>Node2&#45;&gt;Node8</title>
<path fill="none" stroke="#191970" d="M323.8666,-285.8698C269.0472,-279.3624 162.3002,-265.4299 63.0528,-244.1431"/>
<polygon fill="#191970" stroke="#191970" points="63.6807,-240.698 53.1652,-241.9922 62.1926,-247.538 63.6807,-240.698"/>
</g>
<!-- Node9 -->
<g id="node10" class="node">
<title>Node9</title>
<g id="a_node10"><a xlink:href="sched_8h.html" target="_top" xlink:title="Scheduler API definition. ">
<polygon fill="#ffffff" stroke="#000000" points="846,-224.5 846,-243.5 899,-243.5 899,-224.5 846,-224.5"/>
<text text-anchor="middle" x="872.5" y="-231.5" font-family="Helvetica,sans-Serif" font-size="10.00" fill="#000000">sched.h</text>
</a>
</g>
</g>
<!-- Node2&#45;&gt;Node9 -->
<g id="edge10" class="edge">
<title>Node2&#45;&gt;Node9</title>
<path fill="none" stroke="#191970" d="M397.3218,-285.9726C491.7061,-275.6493 741.4695,-248.3315 835.7619,-238.0182"/>
<polygon fill="#191970" stroke="#191970" points="836.3932,-241.4701 845.9533,-236.9035 835.632,-234.5116 836.3932,-241.4701"/>
</g>
<!-- Node12 -->
<g id="node13" class="node">
<title>Node12</title>
<g id="a_node13"><a xlink:href="modules_8h.html" target="_top" xlink:title="Common macros and compiler attributes/pragmas configuration. ">
<polygon fill="#ffffff" stroke="#000000" points="606,-112.5 606,-131.5 671,-131.5 671,-112.5 606,-112.5"/>
<text text-anchor="middle" x="638.5" y="-119.5" font-family="Helvetica,sans-Serif" font-size="10.00" fill="#000000">modules.h</text>
</a>
</g>
</g>
<!-- Node2&#45;&gt;Node12 -->
<g id="edge26" class="edge">
<title>Node2&#45;&gt;Node12</title>
<path fill="none" stroke="#191970" d="M390.3001,-280.4987C414.109,-272.3436 447.9361,-259.4729 475.5,-244 531.888,-212.3468 590.9245,-163.631 620.0283,-138.4035"/>
<polygon fill="#191970" stroke="#191970" points="622.5175,-140.8762 627.7407,-131.6583 617.9092,-135.6071 622.5175,-140.8762"/>
</g>
<!-- Node18 -->
<g id="node19" class="node">
<title>Node18</title>
<polygon fill="#ffffff" stroke="#bfbfbf" points="71,-224.5 71,-243.5 116,-243.5 116,-224.5 71,-224.5"/>
<text text-anchor="middle" x="93.5" y="-231.5" font-family="Helvetica,sans-Serif" font-size="10.00" fill="#000000">msg.h</text>
</g>
<!-- Node2&#45;&gt;Node18 -->
<g id="edge27" class="edge">
<title>Node2&#45;&gt;Node18</title>
<path fill="none" stroke="#191970" d="M323.8107,-284.2474C279.1464,-276.939 201.2864,-263.2183 126.1905,-244.2238"/>
<polygon fill="#191970" stroke="#191970" points="126.6516,-240.7289 116.0955,-241.6336 124.9118,-247.5092 126.6516,-240.7289"/>
</g>
<!-- Node19 -->
<g id="node20" class="node">
<title>Node19</title>
<polygon fill="#ffffff" stroke="#bfbfbf" points="134,-224.5 134,-243.5 191,-243.5 191,-224.5 134,-224.5"/>
<text text-anchor="middle" x="162.5" y="-231.5" font-family="Helvetica,sans-Serif" font-size="10.00" fill="#000000">thread.h</text>
</g>
<!-- Node2&#45;&gt;Node19 -->
<g id="edge28" class="edge">
<title>Node2&#45;&gt;Node19</title>
<path fill="none" stroke="#191970" d="M326.4626,-280.3733C291.5946,-270.5116 237.4778,-255.2059 201.0512,-244.9034"/>
<polygon fill="#191970" stroke="#191970" points="201.8519,-241.4926 191.2768,-242.1389 199.9468,-248.2284 201.8519,-241.4926"/>
</g>
<!-- Node20 -->
<g id="node21" class="node">
<title>Node20</title>
<g id="a_node21"><a xlink:href="usb_8h.html" target="_top" xlink:title="Definition of global compile time configuration options. ">
<polygon fill="#ffffff" stroke="#000000" points="101.5,-112.5 101.5,-131.5 143.5,-131.5 143.5,-112.5 101.5,-112.5"/>
<text text-anchor="middle" x="122.5" y="-119.5" font-family="Helvetica,sans-Serif" font-size="10.00" fill="#000000">usb.h</text>
</a>
</g>
</g>
<!-- Node2&#45;&gt;Node20 -->
<g id="edge29" class="edge">
<title>Node2&#45;&gt;Node20</title>
<path fill="none" stroke="#191970" d="M343.8368,-280.3786C328.4517,-271.3553 305.0894,-257.2969 285.5,-244 232.5291,-208.0444 172.9208,-161.8977 142.5823,-137.9784"/>
<polygon fill="#191970" stroke="#191970" points="144.5025,-135.0347 134.4882,-131.5759 140.1599,-140.5248 144.5025,-135.0347"/>
</g>
<!-- Node22 -->
<g id="node23" class="node">
<title>Node22</title>
<g id="a_node23"><a xlink:href="usbdev_8h.html" target="_top" xlink:title="Definitions low&#45;level USB driver interface. ">
<polygon fill="#ffffff" stroke="#000000" points="229,-168.5 229,-187.5 322,-187.5 322,-168.5 229,-168.5"/>
<text text-anchor="middle" x="275.5" y="-175.5" font-family="Helvetica,sans-Serif" font-size="10.00" fill="#000000">periph/usbdev.h</text>
</a>
</g>
</g>
<!-- Node2&#45;&gt;Node22 -->
<g id="edge31" class="edge">
<title>Node2&#45;&gt;Node22</title>
<path fill="none" stroke="#191970" d="M342.7687,-280.4441C329.2354,-272.3428 311.014,-259.5707 299.5,-244 289.3183,-230.231 283.0846,-211.7038 279.5316,-197.7842"/>
<polygon fill="#191970" stroke="#191970" points="282.885,-196.7489 277.2327,-187.7877 276.063,-198.3178 282.885,-196.7489"/>
</g>
<!-- Node25 -->
<g id="node26" class="node">
<title>Node25</title>
<g id="a_node26"><a xlink:href="descriptor_8h.html" target="_top" xlink:title="Definitions for USB protocol messages. ">
<polygon fill="#ffffff" stroke="#000000" points="340,-168.5 340,-187.5 433,-187.5 433,-168.5 340,-168.5"/>
<text text-anchor="middle" x="386.5" y="-175.5" font-family="Helvetica,sans-Serif" font-size="10.00" fill="#000000">usb/descriptor.h</text>
</a>
</g>
</g>
<!-- Node2&#45;&gt;Node25 -->
<g id="edge40" class="edge">
<title>Node2&#45;&gt;Node25</title>
<path fill="none" stroke="#191970" d="M362.7167,-280.4509C366.9765,-262.1013 376.3807,-221.5908 382.0035,-197.3693"/>
<polygon fill="#191970" stroke="#191970" points="385.4368,-198.0573 384.2889,-187.5249 378.6182,-196.4744 385.4368,-198.0573"/>
</g>
<!-- Node5 -->
<g id="node6" class="node">
<title>Node5</title>
<polygon fill="#ffffff" stroke="#bfbfbf" points="489.5,-112.5 489.5,-131.5 549.5,-131.5 549.5,-112.5 489.5,-112.5"/>
<text text-anchor="middle" x="519.5" y="-119.5" font-family="Helvetica,sans-Serif" font-size="10.00" fill="#000000">stdbool.h</text>
</g>
<!-- Node4&#45;&gt;Node5 -->
<g id="edge6" class="edge">
<title>Node4&#45;&gt;Node5</title>
<path fill="none" stroke="#191970" d="M883.9199,-174.8692C821.6978,-165.8422 641.2181,-139.6586 559.9741,-127.8719"/>
<polygon fill="#191970" stroke="#191970" points="560.0498,-124.3463 549.6509,-126.3742 559.0448,-131.2738 560.0498,-124.3463"/>
</g>
<!-- Node6 -->
<g id="node7" class="node">
<title>Node6</title>
<polygon fill="#ffffff" stroke="#bfbfbf" points="964.5,-56.5 964.5,-75.5 1020.5,-75.5 1020.5,-56.5 964.5,-56.5"/>
<text text-anchor="middle" x="992.5" y="-63.5" font-family="Helvetica,sans-Serif" font-size="10.00" fill="#000000">stddef.h</text>
</g>
<!-- Node4&#45;&gt;Node6 -->
<g id="edge7" class="edge">
<title>Node4&#45;&gt;Node6</title>
<path fill="none" stroke="#191970" d="M927.1618,-168.8747C949.2575,-159.0915 981.294,-143.4269 988.5,-132 997.1002,-118.3621 997.4676,-99.8222 996.0471,-85.8644"/>
<polygon fill="#191970" stroke="#191970" points="999.496,-85.2544 994.6478,-75.834 992.5631,-86.2217 999.496,-85.2544"/>
</g>
<!-- Node7 -->
<g id="node8" class="node">
<title>Node7</title>
<g id="a_node8"><a xlink:href="list_8h.html" target="_top" xlink:title="Intrusive linked list. ">
<polygon fill="#ffffff" stroke="#000000" points="1040.5,-112.5 1040.5,-131.5 1078.5,-131.5 1078.5,-112.5 1040.5,-112.5"/>
<text text-anchor="middle" x="1059.5" y="-119.5" font-family="Helvetica,sans-Serif" font-size="10.00" fill="#000000">list.h</text>
</a>
</g>
</g>
<!-- Node4&#45;&gt;Node7 -->
<g id="edge8" class="edge">
<title>Node4&#45;&gt;Node7</title>
<path fill="none" stroke="#191970" d="M927.2378,-170.0953C954.3522,-160.2356 1000.7891,-143.3494 1030.8027,-132.4354"/>
<polygon fill="#191970" stroke="#191970" points="1032.0981,-135.6886 1040.2999,-128.9819 1029.7058,-129.1101 1032.0981,-135.6886"/>
</g>
<!-- Node9&#45;&gt;Node4 -->
<g id="edge25" class="edge">
<title>Node9&#45;&gt;Node4</title>
<path fill="none" stroke="#191970" d="M878.2482,-224.2455C882.7435,-216.617 889.1248,-205.7881 894.5825,-196.5267"/>
<polygon fill="#191970" stroke="#191970" points="897.7561,-198.035 899.8177,-187.6427 891.7253,-194.4811 897.7561,-198.035"/>
</g>
<!-- Node9&#45;&gt;Node6 -->
<g id="edge11" class="edge">
<title>Node9&#45;&gt;Node6</title>
<path fill="none" stroke="#191970" d="M869.8325,-224.108C866.7254,-210.3136 863.3284,-185.0754 874.5,-168 894.9627,-136.7235 922.4803,-156.7353 950.5,-132 965.2478,-118.9809 976.7524,-99.5658 983.9626,-85.1602"/>
<polygon fill="#191970" stroke="#191970" points="987.3172,-86.2544 988.4387,-75.7191 980.9921,-83.2555 987.3172,-86.2544"/>
</g>
<!-- Node10 -->
<g id="node11" class="node">
<title>Node10</title>
<g id="a_node11"><a xlink:href="inttypes_8h.html" target="_top" xlink:title="Adds include for missing inttype definitions. ">
<polygon fill="#ffffff" stroke="#000000" points="1088,-168.5 1088,-187.5 1151,-187.5 1151,-168.5 1088,-168.5"/>
<text text-anchor="middle" x="1119.5" y="-175.5" font-family="Helvetica,sans-Serif" font-size="10.00" fill="#000000">inttypes.h</text>
</a>
</g>
</g>
<!-- Node9&#45;&gt;Node10 -->
<g id="edge12" class="edge">
<title>Node9&#45;&gt;Node10</title>
<path fill="none" stroke="#191970" d="M899.2051,-226.1777C901.9993,-225.4169 904.8031,-224.6771 907.5,-224 966.2178,-209.2578 1034.7827,-194.8925 1077.6774,-186.2434"/>
<polygon fill="#191970" stroke="#191970" points="1078.6282,-189.6224 1087.7443,-184.2235 1077.2511,-182.7592 1078.6282,-189.6224"/>
</g>
<!-- Node11 -->
<g id="node12" class="node">
<title>Node11</title>
<g id="a_node12"><a xlink:href="kernel__defines_8h.html" target="_top" xlink:title="Common macros and compiler attributes/pragmas configuration. ">
<polygon fill="#ffffff" stroke="#000000" points="694,-168.5 694,-187.5 789,-187.5 789,-168.5 694,-168.5"/>
<text text-anchor="middle" x="741.5" y="-175.5" font-family="Helvetica,sans-Serif" font-size="10.00" fill="#000000">kernel_defines.h</text>
</a>
</g>
</g>
<!-- Node9&#45;&gt;Node11 -->
<g id="edge13" class="edge">
<title>Node9&#45;&gt;Node11</title>
<path fill="none" stroke="#191970" d="M849.9803,-224.3733C828.7628,-215.3032 796.7724,-201.6279 773.0231,-191.4755"/>
<polygon fill="#191970" stroke="#191970" points="774.2967,-188.2136 763.7258,-187.5011 771.5452,-194.6502 774.2967,-188.2136"/>
</g>
<!-- Node17 -->
<g id="node18" class="node">
<title>Node17</title>
<g id="a_node18"><a xlink:href="native__sched_8h.html" target="_top" xlink:title="Add definitions required on the native board. ">
<polygon fill="#ffffff" stroke="#000000" points="945.5,-168.5 945.5,-187.5 1031.5,-187.5 1031.5,-168.5 945.5,-168.5"/>
<text text-anchor="middle" x="988.5" y="-175.5" font-family="Helvetica,sans-Serif" font-size="10.00" fill="#000000">native_sched.h</text>
</a>
</g>
</g>
<!-- Node9&#45;&gt;Node17 -->
<g id="edge24" class="edge">
<title>Node9&#45;&gt;Node17</title>
<path fill="none" stroke="#191970" d="M892.4411,-224.3733C910.9786,-215.4241 938.8028,-201.9917 959.7413,-191.8835"/>
<polygon fill="#191970" stroke="#191970" points="961.3352,-195.0006 968.8191,-187.5011 958.2919,-188.6967 961.3352,-195.0006"/>
</g>
<!-- Node11&#45;&gt;Node12 -->
<g id="edge14" class="edge">
<title>Node11&#45;&gt;Node12</title>
<path fill="none" stroke="#191970" d="M723.5588,-168.2455C707.46,-159.4928 683.6121,-146.527 665.2609,-136.5496"/>
<polygon fill="#191970" stroke="#191970" points="666.6929,-133.3444 656.2356,-131.6427 663.3493,-139.4942 666.6929,-133.3444"/>
</g>
<!-- Node13 -->
<g id="node14" class="node">
<title>Node13</title>
<g id="a_node14"><a xlink:href="riot__version_8h.html" target="_top" xlink:title="Common macros and compiler attributes/pragmas configuration. ">
<polygon fill="#ffffff" stroke="#000000" points="764,-56.5 764,-75.5 845,-75.5 845,-56.5 764,-56.5"/>
<text text-anchor="middle" x="804.5" y="-63.5" font-family="Helvetica,sans-Serif" font-size="10.00" fill="#000000">riot_version.h</text>
</a>
</g>
</g>
<!-- Node11&#45;&gt;Node13 -->
<g id="edge15" class="edge">
<title>Node11&#45;&gt;Node13</title>
<path fill="none" stroke="#191970" d="M755.7792,-168.3804C766.9717,-160.0696 782.0246,-147.046 790.5,-132 798.4944,-117.8079 801.9346,-99.5592 803.4094,-85.8489"/>
<polygon fill="#191970" stroke="#191970" points="806.9216,-85.8389 804.2428,-75.5883 799.9446,-85.2721 806.9216,-85.8389"/>
</g>
<!-- Node14 -->
<g id="node15" class="node">
<title>Node14</title>
<g id="a_node15"><a xlink:href="compiler__hints_8h.html" target="_top" xlink:title="Common macros and compiler attributes/pragmas configuration. ">
<polygon fill="#ffffff" stroke="#000000" points="689,-112.5 689,-131.5 782,-131.5 782,-112.5 689,-112.5"/>
<text text-anchor="middle" x="735.5" y="-119.5" font-family="Helvetica,sans-Serif" font-size="10.00" fill="#000000">compiler_hints.h</text>
</a>
</g>
</g>
<!-- Node11&#45;&gt;Node14 -->
<g id="edge17" class="edge">
<title>Node11&#45;&gt;Node14</title>
<path fill="none" stroke="#191970" d="M740.4549,-168.2455C739.672,-160.9382 738.5744,-150.6944 737.6112,-141.7046"/>
<polygon fill="#191970" stroke="#191970" points="741.0786,-141.2129 736.5331,-131.6427 734.1185,-141.9587 741.0786,-141.2129"/>
</g>
<!-- Node16 -->
<g id="node17" class="node">
<title>Node16</title>
<g id="a_node17"><a xlink:href="container_8h.html" target="_top" xlink:title="Common macros and compiler attributes/pragmas configuration. ">
<polygon fill="#ffffff" stroke="#000000" points="839,-112.5 839,-131.5 908,-131.5 908,-112.5 839,-112.5"/>
<text text-anchor="middle" x="873.5" y="-119.5" font-family="Helvetica,sans-Serif" font-size="10.00" fill="#000000">container.h</text>
</a>
</g>
</g>
<!-- Node11&#45;&gt;Node16 -->
<g id="edge21" class="edge">
<title>Node11&#45;&gt;Node16</title>
<path fill="none" stroke="#191970" d="M764.1916,-168.3733C785.5711,-159.3032 817.8057,-145.6279 841.7362,-135.4755"/>
<polygon fill="#191970" stroke="#191970" points="843.2656,-138.6287 851.1045,-131.5011 840.5317,-132.1846 843.2656,-138.6287"/>
</g>
<!-- Node13&#45;&gt;Node1 -->
<g id="edge16" class="edge">
<title>Node13&#45;&gt;Node1</title>
<path fill="none" stroke="#191970" d="M804.5,-56.2455C804.5,-48.9382 804.5,-38.6944 804.5,-29.7046"/>
<polygon fill="#191970" stroke="#191970" points="808.0001,-29.6426 804.5,-19.6427 801.0001,-29.6427 808.0001,-29.6426"/>
</g>
<!-- Node14&#45;&gt;Node1 -->
<g id="edge20" class="edge">
<title>Node14&#45;&gt;Node1</title>
<path fill="none" stroke="#191970" d="M736.6086,-112.3804C738.5137,-98.9095 743.3401,-74.0533 754.5,-56 761.5995,-44.5152 772.3469,-34.104 782.0604,-26.1025"/>
<polygon fill="#191970" stroke="#191970" points="784.4932,-28.6432 790.2128,-19.7248 780.18,-23.1298 784.4932,-28.6432"/>
</g>
<!-- Node15 -->
<g id="node16" class="node">
<title>Node15</title>
<g id="a_node16"><a xlink:href="assert_8h.html" target="_top" xlink:title="POSIX.1&#45;2008 compliant version of the assert macro. ">
<polygon fill="#ffffff" stroke="#000000" points="602.5,-56.5 602.5,-75.5 656.5,-75.5 656.5,-56.5 602.5,-56.5"/>
<text text-anchor="middle" x="629.5" y="-63.5" font-family="Helvetica,sans-Serif" font-size="10.00" fill="#000000">assert.h</text>
</a>
</g>
</g>
<!-- Node14&#45;&gt;Node15 -->
<g id="edge18" class="edge">
<title>Node14&#45;&gt;Node15</title>
<path fill="none" stroke="#191970" d="M717.0362,-112.2455C700.3926,-103.4527 675.7007,-90.4079 656.7808,-80.4125"/>
<polygon fill="#191970" stroke="#191970" points="658.2291,-77.2193 647.7522,-75.6427 654.9592,-83.4086 658.2291,-77.2193"/>
</g>
<!-- Node15&#45;&gt;Node1 -->
<g id="edge19" class="edge">
<title>Node15&#45;&gt;Node1</title>
<path fill="none" stroke="#191970" d="M656.8438,-57.25C686.9866,-47.6043 735.5898,-32.0513 768.7366,-21.4443"/>
<polygon fill="#191970" stroke="#191970" points="770.0322,-24.7046 778.4897,-18.3233 767.8987,-18.0376 770.0322,-24.7046"/>
</g>
<!-- Node16&#45;&gt;Node1 -->
<g id="edge23" class="edge">
<title>Node16&#45;&gt;Node1</title>
<path fill="none" stroke="#191970" d="M872.192,-112.3951C870.0191,-98.9417 864.7409,-74.1061 853.5,-56 846.4551,-44.6526 835.9135,-34.2559 826.4107,-26.2285"/>
<polygon fill="#191970" stroke="#191970" points="828.4274,-23.359 818.4412,-19.8197 824.0406,-28.814 828.4274,-23.359"/>
</g>
<!-- Node16&#45;&gt;Node6 -->
<g id="edge22" class="edge">
<title>Node16&#45;&gt;Node6</title>
<path fill="none" stroke="#191970" d="M893.9568,-112.3733C912.9738,-103.4241 941.5175,-89.9917 962.9976,-79.8835"/>
<polygon fill="#191970" stroke="#191970" points="964.7522,-82.926 972.3101,-75.5011 961.7716,-76.5923 964.7522,-82.926"/>
</g>
<!-- Node21 -->
<g id="node22" class="node">
<title>Node21</title>
<polygon fill="#ffffff" stroke="#bfbfbf" points="47,-56.5 47,-75.5 100,-75.5 100,-56.5 47,-56.5"/>
<text text-anchor="middle" x="73.5" y="-63.5" font-family="Helvetica,sans-Serif" font-size="10.00" fill="#000000">board.h</text>
</g>
<!-- Node20&#45;&gt;Node21 -->
<g id="edge30" class="edge">
<title>Node20&#45;&gt;Node21</title>
<path fill="none" stroke="#191970" d="M113.9649,-112.2455C107.0088,-104.2958 97.0117,-92.8706 88.6949,-83.3656"/>
<polygon fill="#191970" stroke="#191970" points="91.1564,-80.8637 81.9373,-75.6427 85.8884,-85.4732 91.1564,-80.8637"/>
</g>
<!-- Node22&#45;&gt;Node1 -->
<g id="edge33" class="edge">
<title>Node22&#45;&gt;Node1</title>
<path fill="none" stroke="#191970" d="M267.8314,-168.1508C258.1328,-154.4073 244.1055,-129.2291 256.5,-112 302.2165,-48.4516 347.1345,-73.2252 423.5,-56 548.1196,-27.8905 699.7982,-16.0831 768.0913,-11.9266"/>
<polygon fill="#191970" stroke="#191970" points="768.5423,-15.4062 778.3191,-11.3239 768.1305,-8.4183 768.5423,-15.4062"/>
</g>
<!-- Node22&#45;&gt;Node5 -->
<g id="edge32" class="edge">
<title>Node22&#45;&gt;Node5</title>
<path fill="none" stroke="#191970" d="M317.1679,-168.4369C362.5008,-158.0326 434.4727,-141.5145 479.2435,-131.2392"/>
<polygon fill="#191970" stroke="#191970" points="480.2215,-134.6058 489.1851,-128.9575 478.6556,-127.7832 480.2215,-134.6058"/>
</g>
<!-- Node22&#45;&gt;Node6 -->
<g id="edge34" class="edge">
<title>Node22&#45;&gt;Node6</title>
<path fill="none" stroke="#191970" d="M299.3353,-168.4062C337.0894,-153.6516 413.2656,-125.6667 480.5,-112 526.5694,-102.6355 843.6454,-77.5245 954.4104,-68.9313"/>
<polygon fill="#191970" stroke="#191970" points="954.7697,-72.4141 964.4696,-68.1524 954.2292,-65.435 954.7697,-72.4141"/>
</g>
<!-- Node22&#45;&gt;Node15 -->
<g id="edge35" class="edge">
<title>Node22&#45;&gt;Node15</title>
<path fill="none" stroke="#191970" d="M269.9524,-168.1323C262.7778,-153.9019 252.7372,-127.6169 266.5,-112 287.8403,-87.7848 504.0868,-73.0257 592.3174,-67.9707"/>
<polygon fill="#191970" stroke="#191970" points="592.6333,-71.4585 602.4209,-67.4023 592.2401,-64.4696 592.6333,-71.4585"/>
</g>
<!-- Node22&#45;&gt;Node20 -->
<g id="edge37" class="edge">
<title>Node22&#45;&gt;Node20</title>
<path fill="none" stroke="#191970" d="M249.1984,-168.3733C222.5653,-158.6252 181.3989,-143.5578 153.2678,-133.2614"/>
<polygon fill="#191970" stroke="#191970" points="154.1383,-129.853 143.5445,-129.7026 151.7322,-136.4265 154.1383,-129.853"/>
</g>
<!-- Node23 -->
<g id="node24" class="node">
<title>Node23</title>
<polygon fill="#ffffff" stroke="#bfbfbf" points="276,-112.5 276,-131.5 357,-131.5 357,-112.5 276,-112.5"/>
<text text-anchor="middle" x="316.5" y="-119.5" font-family="Helvetica,sans-Serif" font-size="10.00" fill="#000000">periph_conf.h</text>
</g>
<!-- Node22&#45;&gt;Node23 -->
<g id="edge36" class="edge">
<title>Node22&#45;&gt;Node23</title>
<path fill="none" stroke="#191970" d="M282.6417,-168.2455C288.3444,-160.4564 296.49,-149.3308 303.3625,-139.9439"/>
<polygon fill="#191970" stroke="#191970" points="306.3568,-141.7789 309.4402,-131.6427 300.7087,-137.6437 306.3568,-141.7789"/>
</g>
<!-- Node24 -->
<g id="node25" class="node">
<title>Node24</title>
<g id="a_node25"><a xlink:href="usbopt_8h.html" target="_top" xlink:title="Definition of global USB peripheral and USB peripheral endpoint configuration options. ">
<polygon fill="#ffffff" stroke="#000000" points="118.5,-56.5 118.5,-75.5 196.5,-75.5 196.5,-56.5 118.5,-56.5"/>
<text text-anchor="middle" x="157.5" y="-63.5" font-family="Helvetica,sans-Serif" font-size="10.00" fill="#000000">usb/usbopt.h</text>
</a>
</g>
</g>
<!-- Node22&#45;&gt;Node24 -->
<g id="edge38" class="edge">
<title>Node22&#45;&gt;Node24</title>
<path fill="none" stroke="#191970" d="M251.971,-168.491C234.7678,-160.6508 211.7047,-148.1954 195.5,-132 181.9544,-118.4621 171.5721,-99.1153 165.1099,-84.8667"/>
<polygon fill="#191970" stroke="#191970" points="168.2702,-83.3559 161.108,-75.5486 161.8383,-86.1182 168.2702,-83.3559"/>
</g>
<!-- Node24&#45;&gt;Node1 -->
<g id="edge39" class="edge">
<title>Node24&#45;&gt;Node1</title>
<path fill="none" stroke="#191970" d="M196.7848,-58.0934C201.3964,-57.312 206.0444,-56.5911 210.5,-56 420.7959,-28.1028 675.3911,-15.3805 768.3261,-11.424"/>
<polygon fill="#191970" stroke="#191970" points="768.494,-14.9201 778.339,-11.0052 768.2014,-7.9262 768.494,-14.9201"/>
</g>
<!-- Node25&#45;&gt;Node1 -->
<g id="edge41" class="edge">
<title>Node25&#45;&gt;Node1</title>
<path fill="none" stroke="#191970" d="M388.1533,-168.4067C392.765,-144.8366 408.1169,-83.9763 447.5,-56 473.359,-37.6307 682.7524,-19.4647 768.2954,-12.7337"/>
<polygon fill="#191970" stroke="#191970" points="768.6326,-16.2182 778.3305,-11.952 768.0889,-9.2393 768.6326,-16.2182"/>
</g>
<!-- Node25&#45;&gt;Node5 -->
<g id="edge42" class="edge">
<title>Node25&#45;&gt;Node5</title>
<path fill="none" stroke="#191970" d="M409.3635,-168.3733C430.905,-159.3032 463.3838,-145.6279 487.4956,-135.4755"/>
<polygon fill="#191970" stroke="#191970" points="489.0767,-138.6075 496.9348,-131.5011 486.3603,-132.156 489.0767,-138.6075"/>
</g>
<!-- Node26&#45;&gt;Node1 -->
<g id="edge44" class="edge">
<title>Node26&#45;&gt;Node1</title>
<path fill="none" stroke="#191970" d="M1424.3117,-392.3732C1438.5786,-384.4728 1457.2273,-371.9939 1468.5,-356 1486.0852,-331.0498 1487.5,-320.5246 1487.5,-290 1487.5,-290 1487.5,-290 1487.5,-122 1487.5,-55.9065 983.0043,-20.6921 841.1861,-12.0987"/>
<polygon fill="#191970" stroke="#191970" points="841.047,-8.5843 830.8559,-11.4812 840.6292,-15.5718 841.047,-8.5843"/>
</g>
<!-- Node27 -->
<g id="node28" class="node">
<title>Node27</title>
<g id="a_node28"><a xlink:href="hid__usage_8h.html" target="_top" xlink:title="Definition for USB HID usage tables. ">
<polygon fill="#ffffff" stroke="#000000" points="1349.5,-336.5 1349.5,-355.5 1459.5,-355.5 1459.5,-336.5 1349.5,-336.5"/>
<text text-anchor="middle" x="1404.5" y="-343.5" font-family="Helvetica,sans-Serif" font-size="10.00" fill="#000000">usb/hid/hid_usage.h</text>
</a>
</g>
</g>
<!-- Node26&#45;&gt;Node27 -->
<g id="edge45" class="edge">
<title>Node26&#45;&gt;Node27</title>
<path fill="none" stroke="#191970" d="M1404.5,-392.2455C1404.5,-384.9382 1404.5,-374.6944 1404.5,-365.7046"/>
<polygon fill="#191970" stroke="#191970" points="1408.0001,-365.6426 1404.5,-355.6427 1401.0001,-365.6427 1408.0001,-365.6426"/>
</g>
<!-- Node28&#45;&gt;Node1 -->
<g id="edge48" class="edge">
<title>Node28&#45;&gt;Node1</title>
<path fill="none" stroke="#191970" d="M1147.7386,-394.5471C1231.3008,-370.9245 1467.9647,-291.8857 1409.5,-168 1392.7907,-132.5932 1375.887,-130.7183 1341.5,-112 1269.403,-72.7546 1245.6542,-73.7051 1165.5,-56 1048.328,-30.1182 906.3154,-17.3207 840.8142,-12.4387"/>
<polygon fill="#191970" stroke="#191970" points="840.8313,-8.9308 830.6037,-11.6961 840.3234,-15.9124 840.8313,-8.9308"/>
</g>
<!-- Node28&#45;&gt;Node5 -->
<g id="edge49" class="edge">
<title>Node28&#45;&gt;Node5</title>
<path fill="none" stroke="#191970" d="M1091.4058,-401.2278C1022.1295,-398.8447 837.9071,-389.5903 688.5,-356 601.6924,-336.4836 499.5,-378.9744 499.5,-290 499.5,-290 499.5,-290 499.5,-234 499.5,-201.2193 507.9055,-163.8705 513.8181,-141.6533"/>
<polygon fill="#191970" stroke="#191970" points="517.2555,-142.3545 516.5489,-131.7832 510.509,-140.4878 517.2555,-142.3545"/>
</g>
<!-- Node28&#45;&gt;Node6 -->
<g id="edge47" class="edge">
<title>Node28&#45;&gt;Node6</title>
<path fill="none" stroke="#191970" d="M1128.875,-392.4412C1145.75,-374.1765 1179.5,-332.353 1179.5,-290 1179.5,-290 1179.5,-290 1179.5,-178 1179.5,-109.3855 1085.6949,-81.782 1030.9614,-71.5158"/>
<polygon fill="#191970" stroke="#191970" points="1031.3574,-68.0317 1020.9013,-69.7406 1030.1409,-74.9252 1031.3574,-68.0317"/>
</g>
<!-- Node28&#45;&gt;Node7 -->
<g id="edge56" class="edge">
<title>Node28&#45;&gt;Node7</title>
<path fill="none" stroke="#191970" d="M1110.125,-392.4412C1093.25,-374.1765 1059.5,-332.353 1059.5,-290 1059.5,-290 1059.5,-290 1059.5,-234 1059.5,-201.7116 1059.5,-164.1872 1059.5,-141.8048"/>
<polygon fill="#191970" stroke="#191970" points="1063.0001,-141.5883 1059.5,-131.5884 1056.0001,-141.5884 1063.0001,-141.5883"/>
</g>
<!-- Node28&#45;&gt;Node11 -->
<g id="edge55" class="edge">
<title>Node28&#45;&gt;Node11</title>
<path fill="none" stroke="#191970" d="M1091.3492,-400.7319C996.1229,-395.7827 688.8607,-374.2097 632.5,-300 601.1175,-258.679 670.0314,-214.2051 712.0781,-192.1204"/>
<polygon fill="#191970" stroke="#191970" points="713.7929,-195.1747 721.1021,-187.5048 710.6052,-188.9425 713.7929,-195.1747"/>
</g>
<!-- Node29 -->
<g id="node30" class="node">
<title>Node29</title>
<g id="a_node30"><a xlink:href="architecture_8h.html" target="_top" xlink:title="Platform&#45;independent access to architecture details. ">
<polygon fill="#ffffff" stroke="#000000" points="1220,-224.5 1220,-243.5 1303,-243.5 1303,-224.5 1220,-224.5"/>
<text text-anchor="middle" x="1261.5" y="-231.5" font-family="Helvetica,sans-Serif" font-size="10.00" fill="#000000">architecture.h</text>
</a>
</g>
</g>
<!-- Node28&#45;&gt;Node29 -->
<g id="edge50" class="edge">
<title>Node28&#45;&gt;Node29</title>
<path fill="none" stroke="#191970" d="M1140.9673,-392.343C1156.9335,-384.3497 1178.4686,-371.7657 1193.5,-356 1223.06,-324.996 1244.2047,-278.685 1254.4719,-252.9574"/>
<polygon fill="#191970" stroke="#191970" points="1257.752,-254.1788 1258.0897,-243.5893 1251.2221,-251.6569 1257.752,-254.1788"/>
</g>
<!-- Node32 -->
<g id="node33" class="node">
<title>Node32</title>
<g id="a_node33"><a xlink:href="core_2include_2thread_8h.html" target="_top" xlink:title="Threading API. ">
<polygon fill="#ffffff" stroke="#000000" points="843,-336.5 843,-355.5 900,-355.5 900,-336.5 843,-336.5"/>
<text text-anchor="middle" x="871.5" y="-343.5" font-family="Helvetica,sans-Serif" font-size="10.00" fill="#000000">thread.h</text>
</a>
</g>
</g>
<!-- Node28&#45;&gt;Node32 -->
<g id="edge57" class="edge">
<title>Node28&#45;&gt;Node32</title>
<path fill="none" stroke="#191970" d="M1091.0512,-395.5761C1046.5343,-385.5239 960.3275,-366.0578 910.2017,-354.7391"/>
<polygon fill="#191970" stroke="#191970" points="910.9062,-351.3101 900.3809,-352.5215 909.3643,-358.1382 910.9062,-351.3101"/>
</g>
<!-- Node29&#45;&gt;Node1 -->
<g id="edge51" class="edge">
<title>Node29&#45;&gt;Node1</title>
<path fill="none" stroke="#191970" d="M1303.3724,-228.6609C1350.8282,-220.8195 1418.4338,-203.1417 1392.5,-168 1325.2429,-76.8628 958.5149,-27.5873 840.8529,-13.955"/>
<polygon fill="#191970" stroke="#191970" points="840.9106,-10.439 830.5781,-12.7823 840.1167,-17.3938 840.9106,-10.439"/>
</g>
<!-- Node29&#45;&gt;Node10 -->
<g id="edge52" class="edge">
<title>Node29&#45;&gt;Node10</title>
<path fill="none" stroke="#191970" d="M1237.0893,-224.3733C1213.8858,-215.2226 1178.7962,-201.3844 1152.9858,-191.2057"/>
<polygon fill="#191970" stroke="#191970" points="1154.1789,-187.9139 1143.5921,-187.5011 1151.6108,-194.4258 1154.1789,-187.9139"/>
</g>
<!-- Node30 -->
<g id="node31" class="node">
<title>Node30</title>
<polygon fill="#ffffff" stroke="#bfbfbf" points="1333.5,-168.5 1333.5,-187.5 1383.5,-187.5 1383.5,-168.5 1333.5,-168.5"/>
<text text-anchor="middle" x="1358.5" y="-175.5" font-family="Helvetica,sans-Serif" font-size="10.00" fill="#000000">limits.h</text>
</g>
<!-- Node29&#45;&gt;Node30 -->
<g id="edge53" class="edge">
<title>Node29&#45;&gt;Node30</title>
<path fill="none" stroke="#191970" d="M1278.3961,-224.2455C1293.418,-215.5731 1315.6043,-202.7645 1332.821,-192.825"/>
<polygon fill="#191970" stroke="#191970" points="1334.8871,-195.6737 1341.7975,-187.6427 1331.3872,-189.6114 1334.8871,-195.6737"/>
</g>
<!-- Node31 -->
<g id="node32" class="node">
<title>Node31</title>
<polygon fill="#ffffff" stroke="#bfbfbf" points="1208,-168.5 1208,-187.5 1315,-187.5 1315,-168.5 1208,-168.5"/>
<text text-anchor="middle" x="1261.5" y="-175.5" font-family="Helvetica,sans-Serif" font-size="10.00" fill="#000000">architecture_arch.h</text>
</g>
<!-- Node29&#45;&gt;Node31 -->
<g id="edge54" class="edge">
<title>Node29&#45;&gt;Node31</title>
<path fill="none" stroke="#191970" d="M1261.5,-224.2455C1261.5,-216.9382 1261.5,-206.6944 1261.5,-197.7046"/>
<polygon fill="#191970" stroke="#191970" points="1265.0001,-197.6426 1261.5,-187.6427 1258.0001,-197.6427 1265.0001,-197.6426"/>
</g>
<!-- Node32&#45;&gt;Node4 -->
<g id="edge58" class="edge">
<title>Node32&#45;&gt;Node4</title>
<path fill="none" stroke="#191970" d="M900.102,-339.6543C933.8804,-331.5128 986.9533,-316.4631 998.5,-300 1007.7137,-286.8633 1009.4991,-249.0846 992.5,-224 985.5701,-213.774 958.7111,-200.4237 936.6479,-190.7414"/>
<polygon fill="#191970" stroke="#191970" points="937.818,-187.4348 927.2482,-186.7059 935.0564,-193.8671 937.818,-187.4348"/>
</g>
<!-- Node32&#45;&gt;Node9 -->
<g id="edge65" class="edge">
<title>Node32&#45;&gt;Node9</title>
<path fill="none" stroke="#191970" d="M871.5853,-336.4509C871.7484,-318.184 872.1075,-277.9553 872.3241,-253.6976"/>
<polygon fill="#191970" stroke="#191970" points="875.8254,-253.5558 872.415,-243.5249 868.8257,-253.4932 875.8254,-253.5558"/>
</g>
<!-- Node33 -->
<g id="node34" class="node">
<title>Node33</title>
<g id="a_node34"><a xlink:href="cib_8h.html" target="_top" xlink:title="Circular integer buffer interface. ">
<polygon fill="#ffffff" stroke="#000000" points="641.5,-280.5 641.5,-299.5 679.5,-299.5 679.5,-280.5 641.5,-280.5"/>
<text text-anchor="middle" x="660.5" y="-287.5" font-family="Helvetica,sans-Serif" font-size="10.00" fill="#000000">cib.h</text>
</a>
</g>
</g>
<!-- Node32&#45;&gt;Node33 -->
<g id="edge59" class="edge">
<title>Node32&#45;&gt;Node33</title>
<path fill="none" stroke="#191970" d="M842.7367,-339.6774C808.4039,-331.9343 749.0981,-317.9402 689.6276,-300.1402"/>
<polygon fill="#191970" stroke="#191970" points="690.2834,-296.6818 679.6982,-297.1324 688.2541,-303.3812 690.2834,-296.6818"/>
</g>
<!-- Node34 -->
<g id="node35" class="node">
<title>Node34</title>
<g id="a_node35"><a xlink:href="core_2include_2msg_8h.html" target="_top" xlink:title="Messaging API for inter process communication. ">
<polygon fill="#ffffff" stroke="#000000" points="798,-280.5 798,-299.5 843,-299.5 843,-280.5 798,-280.5"/>
<text text-anchor="middle" x="820.5" y="-287.5" font-family="Helvetica,sans-Serif" font-size="10.00" fill="#000000">msg.h</text>
</a>
</g>
</g>
<!-- Node32&#45;&gt;Node34 -->
<g id="edge61" class="edge">
<title>Node32&#45;&gt;Node34</title>
<path fill="none" stroke="#191970" d="M862.6165,-336.2455C855.3034,-328.2155 844.7609,-316.6394 836.0533,-307.0781"/>
<polygon fill="#191970" stroke="#191970" points="838.6028,-304.6795 829.2817,-299.6427 833.4273,-309.3928 838.6028,-304.6795"/>
</g>
<!-- Node35 -->
<g id="node36" class="node">
<title>Node35</title>
<g id="a_node36"><a xlink:href="thread__config_8h.html" target="_top" xlink:title="Thread configuration defines. ">
<polygon fill="#ffffff" stroke="#000000" points="899.5,-280.5 899.5,-299.5 989.5,-299.5 989.5,-280.5 899.5,-280.5"/>
<text text-anchor="middle" x="944.5" y="-287.5" font-family="Helvetica,sans-Serif" font-size="10.00" fill="#000000">thread_config.h</text>
</a>
</g>
</g>
<!-- Node32&#45;&gt;Node35 -->
<g id="edge66" class="edge">
<title>Node32&#45;&gt;Node35</title>
<path fill="none" stroke="#191970" d="M884.2156,-336.2455C895.102,-327.8943 910.9883,-315.7076 923.72,-305.9408"/>
<polygon fill="#191970" stroke="#191970" points="926.1261,-308.5063 931.9301,-299.6427 921.8654,-302.9523 926.1261,-308.5063"/>
</g>
<!-- Node37 -->
<g id="node38" class="node">
<title>Node37</title>
<polygon fill="#ffffff" stroke="#bfbfbf" points="697.5,-280.5 697.5,-299.5 779.5,-299.5 779.5,-280.5 697.5,-280.5"/>
<text text-anchor="middle" x="738.5" y="-287.5" font-family="Helvetica,sans-Serif" font-size="10.00" fill="#000000">thread_arch.h</text>
</g>
<!-- Node32&#45;&gt;Node37 -->
<g id="edge69" class="edge">
<title>Node32&#45;&gt;Node37</title>
<path fill="none" stroke="#191970" d="M848.6365,-336.3733C827.095,-327.3032 794.6162,-313.6279 770.5044,-303.4755"/>
<polygon fill="#191970" stroke="#191970" points="771.6397,-300.156 761.0652,-299.5011 768.9233,-306.6075 771.6397,-300.156"/>
</g>
<!-- Node33&#45;&gt;Node15 -->
<g id="edge60" class="edge">
<title>Node33&#45;&gt;Node15</title>
<path fill="none" stroke="#191970" d="M655.0801,-280.4264C641.8314,-256.4061 608.0465,-191.2604 596.5,-132 594.8,-123.2752 593.7786,-120.4621 596.5,-112 599.8946,-101.4445 606.7058,-91.2592 613.2631,-83.1676"/>
<polygon fill="#191970" stroke="#191970" points="615.947,-85.4149 619.8508,-75.5654 610.6569,-80.8307 615.947,-85.4149"/>
</g>
<!-- Node34&#45;&gt;Node1 -->
<g id="edge62" class="edge">
<title>Node34&#45;&gt;Node1</title>
<path fill="none" stroke="#191970" d="M822.1221,-280.4016C824.4813,-267.375 829.3701,-243.4875 836.5,-224 846.0611,-197.8675 846.2679,-189.0217 864.5,-168 882.9172,-146.7648 903.4544,-156.8985 916.5,-132 920.6254,-124.1264 919.4055,-120.4006 916.5,-112 902.5207,-71.5814 861.1084,-41.3546 832.756,-24.6807"/>
<polygon fill="#191970" stroke="#191970" points="834.126,-21.4343 823.7,-19.5505 830.6757,-27.5249 834.126,-21.4343"/>
</g>
<!-- Node34&#45;&gt;Node5 -->
<g id="edge63" class="edge">
<title>Node34&#45;&gt;Node5</title>
<path fill="none" stroke="#191970" d="M803.4545,-280.4862C753.2836,-252.4839 605.888,-170.2166 545.6268,-136.5824"/>
<polygon fill="#191970" stroke="#191970" points="547.1694,-133.4352 536.7316,-131.6177 543.7578,-139.5476 547.1694,-133.4352"/>
</g>
<!-- Node34&#45;&gt;Node9 -->
<g id="edge64" class="edge">
<title>Node34&#45;&gt;Node9</title>
<path fill="none" stroke="#191970" d="M829.5577,-280.2455C837.0142,-272.2155 847.7634,-260.6394 856.6417,-251.0781"/>
<polygon fill="#191970" stroke="#191970" points="859.3063,-253.3522 863.5461,-243.6427 854.1768,-248.589 859.3063,-253.3522"/>
</g>
<!-- Node35&#45;&gt;Node9 -->
<g id="edge68" class="edge">
<title>Node35&#45;&gt;Node9</title>
<path fill="none" stroke="#191970" d="M931.9586,-280.2455C921.2213,-271.8943 905.5527,-259.7076 892.9953,-249.9408"/>
<polygon fill="#191970" stroke="#191970" points="894.9401,-247.0194 884.8977,-243.6427 890.6425,-252.5449 894.9401,-247.0194"/>
</g>
<!-- Node36 -->
<g id="node37" class="node">
<title>Node36</title>
<polygon fill="#ffffff" stroke="#bfbfbf" points="917,-224.5 917,-243.5 984,-243.5 984,-224.5 917,-224.5"/>
<text text-anchor="middle" x="950.5" y="-231.5" font-family="Helvetica,sans-Serif" font-size="10.00" fill="#000000">cpu_conf.h</text>
</g>
<!-- Node35&#45;&gt;Node36 -->
<g id="edge67" class="edge">
<title>Node35&#45;&gt;Node36</title>
<path fill="none" stroke="#191970" d="M945.5451,-280.2455C946.328,-272.9382 947.4256,-262.6944 948.3888,-253.7046"/>
<polygon fill="#191970" stroke="#191970" points="951.8815,-253.9587 949.4669,-243.6427 944.9214,-253.2129 951.8815,-253.9587"/>
</g>
</g>
</svg>
