<?xml version="1.0" encoding="UTF-8" standalone="no"?>
<!DOCTYPE svg PUBLIC "-//W3C//DTD SVG 1.1//EN"
 "http://www.w3.org/Graphics/SVG/1.1/DTD/svg11.dtd">
<!-- Generated by graphviz version 2.40.1 (0)
 -->
<!-- Title: sys/include/uuid.h Pages: 1 -->
<svg width="408pt" height="196pt"
 viewBox="0.00 0.00 407.50 196.00" xmlns="http://www.w3.org/2000/svg" xmlns:xlink="http://www.w3.org/1999/xlink">
<g id="graph0" class="graph" transform="scale(1 1) rotate(0) translate(4 192)">
<title>sys/include/uuid.h</title>
<polygon fill="#ffffff" stroke="transparent" points="-4,4 -4,-192 403.5,-192 403.5,4 -4,4"/>
<!-- Node0 -->
<g id="node1" class="node">
<title>Node0</title>
<polygon fill="#bfbfbf" stroke="#000000" points="90.5,-168.5 90.5,-187.5 191.5,-187.5 191.5,-168.5 90.5,-168.5"/>
<text text-anchor="middle" x="141" y="-175.5" font-family="Helvetica,sans-Serif" font-size="10.00" fill="#000000">sys/include/uuid.h</text>
</g>
<!-- Node1 -->
<g id="node2" class="node">
<title>Node1</title>
<polygon fill="#ffffff" stroke="#bfbfbf" points="0,-112.5 0,-131.5 60,-131.5 60,-112.5 0,-112.5"/>
<text text-anchor="middle" x="30" y="-119.5" font-family="Helvetica,sans-Serif" font-size="10.00" fill="#000000">stdbool.h</text>
</g>
<!-- Node0&#45;&gt;Node1 -->
<g id="edge1" class="edge">
<title>Node0&#45;&gt;Node1</title>
<path fill="none" stroke="#191970" d="M121.9184,-168.3733C104.2598,-159.4644 77.7947,-146.1127 57.7902,-136.0203"/>
<polygon fill="#191970" stroke="#191970" points="59.3372,-132.8806 48.8326,-131.5011 56.1842,-139.1303 59.3372,-132.8806"/>
</g>
<!-- Node2 -->
<g id="node3" class="node">
<title>Node2</title>
<polygon fill="#ffffff" stroke="#bfbfbf" points="227,-.5 227,-19.5 279,-19.5 279,-.5 227,-.5"/>
<text text-anchor="middle" x="253" y="-7.5" font-family="Helvetica,sans-Serif" font-size="10.00" fill="#000000">stdint.h</text>
</g>
<!-- Node0&#45;&gt;Node2 -->
<g id="edge2" class="edge">
<title>Node0&#45;&gt;Node2</title>
<path fill="none" stroke="#191970" d="M131.0638,-168.4913C122.824,-159.8654 111.7233,-146.3368 107,-132 95.7835,-97.954 107.6549,-80.3078 134,-56 157.1376,-34.6516 191.2652,-22.8291 217.047,-16.5355"/>
<polygon fill="#191970" stroke="#191970" points="217.8524,-19.9418 226.8277,-14.3121 216.3006,-13.1159 217.8524,-19.9418"/>
</g>
<!-- Node3 -->
<g id="node4" class="node">
<title>Node3</title>
<polygon fill="#ffffff" stroke="#bfbfbf" points="116,-112.5 116,-131.5 166,-131.5 166,-112.5 116,-112.5"/>
<text text-anchor="middle" x="141" y="-119.5" font-family="Helvetica,sans-Serif" font-size="10.00" fill="#000000">stdlib.h</text>
</g>
<!-- Node0&#45;&gt;Node3 -->
<g id="edge3" class="edge">
<title>Node0&#45;&gt;Node3</title>
<path fill="none" stroke="#191970" d="M141,-168.2455C141,-160.9382 141,-150.6944 141,-141.7046"/>
<polygon fill="#191970" stroke="#191970" points="144.5001,-141.6426 141,-131.6427 137.5001,-141.6427 144.5001,-141.6426"/>
</g>
<!-- Node4 -->
<g id="node5" class="node">
<title>Node4</title>
<polygon fill="#ffffff" stroke="#bfbfbf" points="143.5,-56.5 143.5,-75.5 196.5,-75.5 196.5,-56.5 143.5,-56.5"/>
<text text-anchor="middle" x="170" y="-63.5" font-family="Helvetica,sans-Serif" font-size="10.00" fill="#000000">string.h</text>
</g>
<!-- Node0&#45;&gt;Node4 -->
<g id="edge4" class="edge">
<title>Node0&#45;&gt;Node4</title>
<path fill="none" stroke="#191970" d="M150.9362,-168.4913C159.176,-159.8654 170.2767,-146.3368 175,-132 179.9441,-116.9931 178.1347,-99.0668 175.4003,-85.6864"/>
<polygon fill="#191970" stroke="#191970" points="178.7382,-84.5952 173.0137,-75.68 171.9292,-86.2192 178.7382,-84.5952"/>
</g>
<!-- Node5 -->
<g id="node6" class="node">
<title>Node5</title>
<g id="a_node6"><a xlink:href="byteorder_8h.html" target="_top" xlink:title="Functions to work with different byte orders. ">
<polygon fill="#ffffff" stroke="#000000" points="222.5,-112.5 222.5,-131.5 295.5,-131.5 295.5,-112.5 222.5,-112.5"/>
<text text-anchor="middle" x="259" y="-119.5" font-family="Helvetica,sans-Serif" font-size="10.00" fill="#000000">byteorder.h</text>
</a>
</g>
</g>
<!-- Node0&#45;&gt;Node5 -->
<g id="edge5" class="edge">
<title>Node0&#45;&gt;Node5</title>
<path fill="none" stroke="#191970" d="M161.2849,-168.3733C180.1421,-159.4241 208.446,-145.9917 229.7455,-135.8835"/>
<polygon fill="#191970" stroke="#191970" points="231.4461,-138.9506 238.9798,-131.5011 228.4449,-132.6266 231.4461,-138.9506"/>
</g>
<!-- Node5&#45;&gt;Node2 -->
<g id="edge7" class="edge">
<title>Node5&#45;&gt;Node2</title>
<path fill="none" stroke="#191970" d="M254.8632,-112.3507C251.1769,-103.1921 246.0567,-88.9416 244,-76 241.5326,-60.4745 244.2233,-42.8274 247.2899,-29.6896"/>
<polygon fill="#191970" stroke="#191970" points="250.7165,-30.4192 249.8492,-19.86 243.9424,-28.6554 250.7165,-30.4192"/>
</g>
<!-- Node5&#45;&gt;Node4 -->
<g id="edge6" class="edge">
<title>Node5&#45;&gt;Node4</title>
<path fill="none" stroke="#191970" d="M243.4974,-112.2455C229.842,-103.6534 209.7343,-91.0014 194.0011,-81.1018"/>
<polygon fill="#191970" stroke="#191970" points="195.6529,-78.006 185.325,-75.6427 191.9249,-83.9307 195.6529,-78.006"/>
</g>
<!-- Node6 -->
<g id="node7" class="node">
<title>Node6</title>
<g id="a_node7"><a xlink:href="endian_8h.html" target="_top" xlink:title="libc header for endian conversion ">
<polygon fill="#ffffff" stroke="#000000" points="253.5,-56.5 253.5,-75.5 310.5,-75.5 310.5,-56.5 253.5,-56.5"/>
<text text-anchor="middle" x="282" y="-63.5" font-family="Helvetica,sans-Serif" font-size="10.00" fill="#000000">endian.h</text>
</a>
</g>
</g>
<!-- Node5&#45;&gt;Node6 -->
<g id="edge8" class="edge">
<title>Node5&#45;&gt;Node6</title>
<path fill="none" stroke="#191970" d="M263.0063,-112.2455C266.0735,-104.7776 270.4003,-94.2427 274.1497,-85.1137"/>
<polygon fill="#191970" stroke="#191970" points="277.4779,-86.2226 278.0396,-75.6427 271.0028,-83.5631 277.4779,-86.2226"/>
</g>
<!-- Node7 -->
<g id="node8" class="node">
<title>Node7</title>
<g id="a_node8"><a xlink:href="unaligned_8h.html" target="_top" xlink:title="Unaligned but safe memory access functions. ">
<polygon fill="#ffffff" stroke="#000000" points="328.5,-56.5 328.5,-75.5 399.5,-75.5 399.5,-56.5 328.5,-56.5"/>
<text text-anchor="middle" x="364" y="-63.5" font-family="Helvetica,sans-Serif" font-size="10.00" fill="#000000">unaligned.h</text>
</a>
</g>
</g>
<!-- Node5&#45;&gt;Node7 -->
<g id="edge10" class="edge">
<title>Node5&#45;&gt;Node7</title>
<path fill="none" stroke="#191970" d="M277.2896,-112.2455C293.7762,-103.4527 318.2352,-90.4079 336.9765,-80.4125"/>
<polygon fill="#191970" stroke="#191970" points="338.7435,-83.4368 345.92,-75.6427 335.4494,-77.2604 338.7435,-83.4368"/>
</g>
<!-- Node6&#45;&gt;Node2 -->
<g id="edge9" class="edge">
<title>Node6&#45;&gt;Node2</title>
<path fill="none" stroke="#191970" d="M276.9486,-56.2455C272.9981,-48.617 267.3903,-37.7881 262.5942,-28.5267"/>
<polygon fill="#191970" stroke="#191970" points="265.7001,-26.9131 257.9935,-19.6427 259.4841,-30.1321 265.7001,-26.9131"/>
</g>
<!-- Node7&#45;&gt;Node2 -->
<g id="edge11" class="edge">
<title>Node7&#45;&gt;Node2</title>
<path fill="none" stroke="#191970" d="M344.9184,-56.3733C327.2598,-47.4644 300.7947,-34.1127 280.7902,-24.0203"/>
<polygon fill="#191970" stroke="#191970" points="282.3372,-20.8806 271.8326,-19.5011 279.1842,-27.1303 282.3372,-20.8806"/>
</g>
</g>
</svg>
