<?xml version="1.0" encoding="UTF-8" standalone="no"?>
<!DOCTYPE svg PUBLIC "-//W3C//DTD SVG 1.1//EN"
 "http://www.w3.org/Graphics/SVG/1.1/DTD/svg11.dtd">
<!-- Generated by graphviz version 2.40.1 (0)
 -->
<!-- Title: sys/include/uuid.h Pages: 1 -->
<svg width="1118pt" height="151pt"
 viewBox="0.00 0.00 1118.00 151.00" xmlns="http://www.w3.org/2000/svg" xmlns:xlink="http://www.w3.org/1999/xlink">
<g id="graph0" class="graph" transform="scale(1 1) rotate(0) translate(4 147)">
<title>sys/include/uuid.h</title>
<polygon fill="#ffffff" stroke="transparent" points="-4,4 -4,-147 1114,-147 1114,4 -4,4"/>
<!-- Node8 -->
<g id="node1" class="node">
<title>Node8</title>
<polygon fill="#bfbfbf" stroke="#000000" points="170.5,-123.5 170.5,-142.5 271.5,-142.5 271.5,-123.5 170.5,-123.5"/>
<text text-anchor="middle" x="221" y="-130.5" font-family="Helvetica,sans-Serif" font-size="10.00" fill="#000000">sys/include/uuid.h</text>
</g>
<!-- Node9 -->
<g id="node2" class="node">
<title>Node9</title>
<g id="a_node2"><a xlink:href="conditions_8h_source.html" target="_top" xlink:title="sys/include/suit/conditions.h">
<polygon fill="#ffffff" stroke="#000000" points="0,-67.5 0,-86.5 148,-86.5 148,-67.5 0,-67.5"/>
<text text-anchor="middle" x="74" y="-74.5" font-family="Helvetica,sans-Serif" font-size="10.00" fill="#000000">sys/include/suit/conditions.h</text>
</a>
</g>
</g>
<!-- Node8&#45;&gt;Node9 -->
<g id="edge1" class="edge">
<title>Node8&#45;&gt;Node9</title>
<path fill="none" stroke="#191970" d="M186.3206,-119.7888C159.4802,-109.5639 122.953,-95.6488 98.9404,-86.5011"/>
<polygon fill="#191970" stroke="#191970" points="185.1389,-123.0839 195.7298,-123.3733 187.6309,-116.5425 185.1389,-123.0839"/>
</g>
<!-- Node10 -->
<g id="node3" class="node">
<title>Node10</title>
<g id="a_node3"><a xlink:href="handlers_8h_source.html" target="_top" xlink:title="sys/include/suit/handlers.h">
<polygon fill="#ffffff" stroke="#000000" points="66.5,-6 66.5,-25 207.5,-25 207.5,-6 66.5,-6"/>
<text text-anchor="middle" x="137" y="-13" font-family="Helvetica,sans-Serif" font-size="10.00" fill="#000000">sys/include/suit/handlers.h</text>
</a>
</g>
</g>
<!-- Node8&#45;&gt;Node10 -->
<g id="edge2" class="edge">
<title>Node8&#45;&gt;Node10</title>
<path fill="none" stroke="#191970" d="M208.1984,-115.093C190.2106,-89.9315 158.079,-44.9856 143.9691,-25.2484"/>
<polygon fill="#191970" stroke="#191970" points="205.463,-117.285 214.1259,-123.3845 211.1575,-113.214 205.463,-117.285"/>
</g>
<!-- Node11 -->
<g id="node4" class="node">
<title>Node11</title>
<g id="a_node4"><a xlink:href="policy_8h_source.html" target="_top" xlink:title="sys/include/suit/policy.h">
<polygon fill="#ffffff" stroke="#000000" points="204,-67.5 204,-86.5 330,-86.5 330,-67.5 204,-67.5"/>
<text text-anchor="middle" x="267" y="-74.5" font-family="Helvetica,sans-Serif" font-size="10.00" fill="#000000">sys/include/suit/policy.h</text>
</a>
</g>
</g>
<!-- Node8&#45;&gt;Node11 -->
<g id="edge3" class="edge">
<title>Node8&#45;&gt;Node11</title>
<path fill="none" stroke="#191970" d="M235.3747,-115.5004C243.1971,-105.9775 252.576,-94.5596 259.0792,-86.6427"/>
<polygon fill="#191970" stroke="#191970" points="232.6555,-113.2967 229.0126,-123.2455 238.0646,-117.7399 232.6555,-113.2967"/>
</g>
<!-- Node12 -->
<g id="node5" class="node">
<title>Node12</title>
<g id="a_node5"><a xlink:href="suit_8h_source.html" target="_top" xlink:title="sys/include/suit.h">
<polygon fill="#ffffff" stroke="#000000" points="460.5,-67.5 460.5,-86.5 557.5,-86.5 557.5,-67.5 460.5,-67.5"/>
<text text-anchor="middle" x="509" y="-74.5" font-family="Helvetica,sans-Serif" font-size="10.00" fill="#000000">sys/include/suit.h</text>
</a>
</g>
</g>
<!-- Node8&#45;&gt;Node12 -->
<g id="edge4" class="edge">
<title>Node8&#45;&gt;Node12</title>
<path fill="none" stroke="#191970" d="M280.1375,-121.501C333.2429,-111.175 410.2885,-96.1939 460.0211,-86.5237"/>
<polygon fill="#191970" stroke="#191970" points="279.3298,-118.0925 270.1817,-123.4369 280.666,-124.9638 279.3298,-118.0925"/>
</g>
<!-- Node12&#45;&gt;Node10 -->
<g id="edge5" class="edge">
<title>Node12&#45;&gt;Node10</title>
<path fill="none" stroke="#191970" d="M450.0937,-68.3413C391.047,-59.5159 297.5849,-45.1496 217,-31 206.5495,-29.165 195.3559,-27.0749 184.7515,-25.0365"/>
<polygon fill="#191970" stroke="#191970" points="449.9402,-71.857 460.347,-69.8698 450.9723,-64.9335 449.9402,-71.857"/>
</g>
<!-- Node13 -->
<g id="node6" class="node">
<title>Node13</title>
<g id="a_node6"><a xlink:href="suit_2storage_2flashwrite_8h_source.html" target="_top" xlink:title="sys/include/suit/storage\l/flashwrite.h">
<polygon fill="#ffffff" stroke="#000000" points="226,-.5 226,-30.5 354,-30.5 354,-.5 226,-.5"/>
<text text-anchor="start" x="234" y="-18.5" font-family="Helvetica,sans-Serif" font-size="10.00" fill="#000000">sys/include/suit/storage</text>
<text text-anchor="middle" x="290" y="-7.5" font-family="Helvetica,sans-Serif" font-size="10.00" fill="#000000">/flashwrite.h</text>
</a>
</g>
</g>
<!-- Node12&#45;&gt;Node13 -->
<g id="edge6" class="edge">
<title>Node12&#45;&gt;Node13</title>
<path fill="none" stroke="#191970" d="M464.853,-64.6025C429.8567,-54.7748 380.8158,-41.0031 343.5734,-30.5446"/>
<polygon fill="#191970" stroke="#191970" points="464.2074,-68.0566 474.7813,-67.3906 466.1,-61.3173 464.2074,-68.0566"/>
</g>
<!-- Node14 -->
<g id="node7" class="node">
<title>Node14</title>
<g id="a_node7"><a xlink:href="ram_8h_source.html" target="_top" xlink:title="sys/include/suit/storage\l/ram.h">
<polygon fill="#ffffff" stroke="#000000" points="372,-.5 372,-30.5 500,-30.5 500,-.5 372,-.5"/>
<text text-anchor="start" x="380" y="-18.5" font-family="Helvetica,sans-Serif" font-size="10.00" fill="#000000">sys/include/suit/storage</text>
<text text-anchor="middle" x="436" y="-7.5" font-family="Helvetica,sans-Serif" font-size="10.00" fill="#000000">/ram.h</text>
</a>
</g>
</g>
<!-- Node12&#45;&gt;Node14 -->
<g id="edge7" class="edge">
<title>Node12&#45;&gt;Node14</title>
<path fill="none" stroke="#191970" d="M489.7276,-60.7637C478.6106,-51.398 464.7268,-39.7014 453.8578,-30.5446"/>
<polygon fill="#191970" stroke="#191970" points="487.6909,-63.6243 497.5938,-67.3906 492.201,-58.2709 487.6909,-63.6243"/>
</g>
<!-- Node15 -->
<g id="node8" class="node">
<title>Node15</title>
<g id="a_node8"><a xlink:href="suit_2storage_2vfs_8h_source.html" target="_top" xlink:title="sys/include/suit/storage\l/vfs.h">
<polygon fill="#ffffff" stroke="#000000" points="518,-.5 518,-30.5 646,-30.5 646,-.5 518,-.5"/>
<text text-anchor="start" x="526" y="-18.5" font-family="Helvetica,sans-Serif" font-size="10.00" fill="#000000">sys/include/suit/storage</text>
<text text-anchor="middle" x="582" y="-7.5" font-family="Helvetica,sans-Serif" font-size="10.00" fill="#000000">/vfs.h</text>
</a>
</g>
</g>
<!-- Node12&#45;&gt;Node15 -->
<g id="edge8" class="edge">
<title>Node12&#45;&gt;Node15</title>
<path fill="none" stroke="#191970" d="M528.2724,-60.7637C539.3894,-51.398 553.2732,-39.7014 564.1422,-30.5446"/>
<polygon fill="#191970" stroke="#191970" points="525.799,-58.2709 520.4063,-67.3906 530.3091,-63.6243 525.799,-58.2709"/>
</g>
<!-- Node16 -->
<g id="node9" class="node">
<title>Node16</title>
<g id="a_node9"><a xlink:href="storage_8h_source.html" target="_top" xlink:title="sys/include/suit/storage.h">
<polygon fill="#ffffff" stroke="#000000" points="664.5,-6 664.5,-25 801.5,-25 801.5,-6 664.5,-6"/>
<text text-anchor="middle" x="733" y="-13" font-family="Helvetica,sans-Serif" font-size="10.00" fill="#000000">sys/include/suit/storage.h</text>
</a>
</g>
</g>
<!-- Node12&#45;&gt;Node16 -->
<g id="edge9" class="edge">
<title>Node12&#45;&gt;Node16</title>
<path fill="none" stroke="#191970" d="M553.8113,-64.6969C596.3456,-53.0189 659.3887,-35.7103 698.2458,-25.0419"/>
<polygon fill="#191970" stroke="#191970" points="552.7165,-61.3679 544,-67.3906 554.5698,-68.1181 552.7165,-61.3679"/>
</g>
<!-- Node17 -->
<g id="node10" class="node">
<title>Node17</title>
<g id="a_node10"><a xlink:href="suit_2transport_2mock_8h_source.html" target="_top" xlink:title="sys/include/suit/transport\l/mock.h">
<polygon fill="#ffffff" stroke="#000000" points="820,-.5 820,-30.5 956,-30.5 956,-.5 820,-.5"/>
<text text-anchor="start" x="828" y="-18.5" font-family="Helvetica,sans-Serif" font-size="10.00" fill="#000000">sys/include/suit/transport</text>
<text text-anchor="middle" x="888" y="-7.5" font-family="Helvetica,sans-Serif" font-size="10.00" fill="#000000">/mock.h</text>
</a>
</g>
</g>
<!-- Node12&#45;&gt;Node17 -->
<g id="edge10" class="edge">
<title>Node12&#45;&gt;Node17</title>
<path fill="none" stroke="#191970" d="M567.9618,-68.864C628.9323,-60.2529 726.8241,-45.8744 811,-31 813.8199,-30.5017 816.6953,-29.9809 819.5982,-29.4445"/>
<polygon fill="#191970" stroke="#191970" points="567.1753,-65.4401 557.7606,-70.2996 568.1508,-72.3718 567.1753,-65.4401"/>
</g>
<!-- Node18 -->
<g id="node11" class="node">
<title>Node18</title>
<g id="a_node11"><a xlink:href="suit_2transport_2vfs_8h_source.html" target="_top" xlink:title="sys/include/suit/transport\l/vfs.h">
<polygon fill="#ffffff" stroke="#000000" points="974,-.5 974,-30.5 1110,-30.5 1110,-.5 974,-.5"/>
<text text-anchor="start" x="982" y="-18.5" font-family="Helvetica,sans-Serif" font-size="10.00" fill="#000000">sys/include/suit/transport</text>
<text text-anchor="middle" x="1042" y="-7.5" font-family="Helvetica,sans-Serif" font-size="10.00" fill="#000000">/vfs.h</text>
</a>
</g>
</g>
<!-- Node12&#45;&gt;Node18 -->
<g id="edge11" class="edge">
<title>Node12&#45;&gt;Node18</title>
<path fill="none" stroke="#191970" d="M568.0047,-72.9072C655.1435,-66.4428 823.238,-52.3659 965,-31 967.8316,-30.5732 970.7168,-30.1122 973.6278,-29.6253"/>
<polygon fill="#191970" stroke="#191970" points="567.5032,-69.4346 557.7865,-73.6578 568.0161,-76.4157 567.5032,-69.4346"/>
</g>
</g>
</svg>
