<?xml version="1.0" encoding="UTF-8" standalone="no"?>
<!DOCTYPE svg PUBLIC "-//W3C//DTD SVG 1.1//EN"
 "http://www.w3.org/Graphics/SVG/1.1/DTD/svg11.dtd">
<!-- Generated by graphviz version 2.40.1 (0)
 -->
<!-- Title: pkg/uwb&#45;core/include/uwb_core.h Pages: 1 -->
<svg width="126pt" height="173pt"
 viewBox="0.00 0.00 126.00 173.00" xmlns="http://www.w3.org/2000/svg" xmlns:xlink="http://www.w3.org/1999/xlink">
<g id="graph0" class="graph" transform="scale(1 1) rotate(0) translate(4 169)">
<title>pkg/uwb&#45;core/include/uwb_core.h</title>
<polygon fill="#ffffff" stroke="transparent" points="-4,4 -4,-169 122,-169 122,4 -4,4"/>
<!-- Node3 -->
<g id="node1" class="node">
<title>Node3</title>
<polygon fill="#bfbfbf" stroke="#000000" points="0,-134.5 0,-164.5 118,-164.5 118,-134.5 0,-134.5"/>
<text text-anchor="start" x="8" y="-152.5" font-family="Helvetica,sans-Serif" font-size="10.00" fill="#000000">pkg/uwb&#45;core/include</text>
<text text-anchor="middle" x="59" y="-141.5" font-family="Helvetica,sans-Serif" font-size="10.00" fill="#000000">/uwb_core.h</text>
</g>
<!-- Node4 -->
<g id="node2" class="node">
<title>Node4</title>
<g id="a_node2"><a xlink:href="dpl__eventq_8h.html" target="_top" xlink:title="uwb&#45;core DPL (Decawave Porting Layer) event queue wrappers ">
<polygon fill="#ffffff" stroke="#000000" points="0,-67.5 0,-97.5 118,-97.5 118,-67.5 0,-67.5"/>
<text text-anchor="start" x="8" y="-85.5" font-family="Helvetica,sans-Serif" font-size="10.00" fill="#000000">pkg/uwb&#45;core/include</text>
<text text-anchor="middle" x="59" y="-74.5" font-family="Helvetica,sans-Serif" font-size="10.00" fill="#000000">/dpl/dpl_eventq.h</text>
</a>
</g>
</g>
<!-- Node3&#45;&gt;Node4 -->
<g id="edge1" class="edge">
<title>Node3&#45;&gt;Node4</title>
<path fill="none" stroke="#191970" d="M59,-124.0249C59,-115.128 59,-105.4287 59,-97.6432"/>
<polygon fill="#191970" stroke="#191970" points="55.5001,-124.2966 59,-134.2967 62.5001,-124.2967 55.5001,-124.2966"/>
</g>
<!-- Node5 -->
<g id="node3" class="node">
<title>Node5</title>
<g id="a_node3"><a xlink:href="dpl_8h.html" target="_top" xlink:title="Abstraction layer for RIOT adaption. ">
<polygon fill="#ffffff" stroke="#000000" points="0,-.5 0,-30.5 118,-30.5 118,-.5 0,-.5"/>
<text text-anchor="start" x="8" y="-18.5" font-family="Helvetica,sans-Serif" font-size="10.00" fill="#000000">pkg/uwb&#45;core/include</text>
<text text-anchor="middle" x="59" y="-7.5" font-family="Helvetica,sans-Serif" font-size="10.00" fill="#000000">/dpl/dpl.h</text>
</a>
</g>
</g>
<!-- Node4&#45;&gt;Node5 -->
<g id="edge2" class="edge">
<title>Node4&#45;&gt;Node5</title>
<path fill="none" stroke="#191970" d="M59,-57.0249C59,-48.128 59,-38.4287 59,-30.6432"/>
<polygon fill="#191970" stroke="#191970" points="55.5001,-57.2966 59,-67.2967 62.5001,-57.2967 55.5001,-57.2966"/>
</g>
</g>
</svg>
