<?xml version="1.0" encoding="UTF-8" standalone="no"?>
<!DOCTYPE svg PUBLIC "-//W3C//DTD SVG 1.1//EN"
 "http://www.w3.org/Graphics/SVG/1.1/DTD/svg11.dtd">
<!-- Generated by graphviz version 2.40.1 (0)
 -->
<!-- Title: sys/include/vfs.h Pages: 1 -->
<svg width="1795pt" height="162pt"
 viewBox="0.00 0.00 1795.00 162.00" xmlns="http://www.w3.org/2000/svg" xmlns:xlink="http://www.w3.org/1999/xlink">
<g id="graph0" class="graph" transform="scale(1 1) rotate(0) translate(4 158)">
<title>sys/include/vfs.h</title>
<polygon fill="#ffffff" stroke="transparent" points="-4,4 -4,-158 1791,-158 1791,4 -4,4"/>
<!-- Node24 -->
<g id="node1" class="node">
<title>Node24</title>
<polygon fill="#bfbfbf" stroke="#000000" points="855.5,-134.5 855.5,-153.5 949.5,-153.5 949.5,-134.5 855.5,-134.5"/>
<text text-anchor="middle" x="902.5" y="-141.5" font-family="Helvetica,sans-Serif" font-size="10.00" fill="#000000">sys/include/vfs.h</text>
</g>
<!-- Node25 -->
<g id="node2" class="node">
<title>Node25</title>
<g id="a_node2"><a xlink:href="vcdiff__vfs_8h.html" target="_top" xlink:title="pkg/tinyvcdiff/include\l/vcdiff_vfs.h">
<polygon fill="#ffffff" stroke="#000000" points="0,-67.5 0,-97.5 117,-97.5 117,-67.5 0,-67.5"/>
<text text-anchor="start" x="8" y="-85.5" font-family="Helvetica,sans-Serif" font-size="10.00" fill="#000000">pkg/tinyvcdiff/include</text>
<text text-anchor="middle" x="58.5" y="-74.5" font-family="Helvetica,sans-Serif" font-size="10.00" fill="#000000">/vcdiff_vfs.h</text>
</a>
</g>
</g>
<!-- Node24&#45;&gt;Node25 -->
<g id="edge1" class="edge">
<title>Node24&#45;&gt;Node25</title>
<path fill="none" stroke="#191970" d="M845.205,-141.8318C690.2714,-135.7724 265.3504,-117.8023 126.5,-98 123.5032,-97.5726 120.4433,-97.0809 117.361,-96.5414"/>
<polygon fill="#191970" stroke="#191970" points="845.3218,-145.3389 855.4504,-142.2304 845.5941,-138.3441 845.3218,-145.3389"/>
</g>
<!-- Node26 -->
<g id="node3" class="node">
<title>Node26</title>
<g id="a_node3"><a xlink:href="random-vfs_8h.html" target="_top" xlink:title="Random backends for devfs. ">
<polygon fill="#ffffff" stroke="#000000" points="135,-67.5 135,-97.5 248,-97.5 248,-67.5 135,-67.5"/>
<text text-anchor="start" x="143" y="-85.5" font-family="Helvetica,sans-Serif" font-size="10.00" fill="#000000">sys/fs/devfs/random</text>
<text text-anchor="middle" x="191.5" y="-74.5" font-family="Helvetica,sans-Serif" font-size="10.00" fill="#000000">&#45;vfs.h</text>
</a>
</g>
</g>
<!-- Node24&#45;&gt;Node26 -->
<g id="edge2" class="edge">
<title>Node24&#45;&gt;Node26</title>
<path fill="none" stroke="#191970" d="M845.1202,-142.9726C732.0576,-140.2734 472.7546,-130.738 257.5,-98 254.4746,-97.5399 251.3829,-97.0133 248.2696,-96.4386"/>
<polygon fill="#191970" stroke="#191970" points="845.198,-146.4752 855.2758,-143.2059 845.3589,-139.4771 845.198,-146.4752"/>
</g>
<!-- Node27 -->
<g id="node4" class="node">
<title>Node27</title>
<g id="a_node4"><a xlink:href="constfs_8h.html" target="_top" xlink:title="ConstFS public API. ">
<polygon fill="#ffffff" stroke="#000000" points="266,-73 266,-92 391,-92 391,-73 266,-73"/>
<text text-anchor="middle" x="328.5" y="-80" font-family="Helvetica,sans-Serif" font-size="10.00" fill="#000000">sys/include/fs/constfs.h</text>
</a>
</g>
</g>
<!-- Node24&#45;&gt;Node27 -->
<g id="edge3" class="edge">
<title>Node24&#45;&gt;Node27</title>
<path fill="none" stroke="#191970" d="M845.105,-140.9996C751.5664,-135.6042 560.6025,-122.4772 400.5,-98 390.1356,-96.4154 379.0237,-94.2557 368.7065,-92.0518"/>
<polygon fill="#191970" stroke="#191970" points="845.0245,-144.5006 855.2071,-141.574 845.4219,-137.5119 845.0245,-144.5006"/>
</g>
<!-- Node28 -->
<g id="node5" class="node">
<title>Node28</title>
<g id="a_node5"><a xlink:href="devfs_8h.html" target="_top" xlink:title="DevFS public API. ">
<polygon fill="#ffffff" stroke="#000000" points="409.5,-73 409.5,-92 527.5,-92 527.5,-73 409.5,-73"/>
<text text-anchor="middle" x="468.5" y="-80" font-family="Helvetica,sans-Serif" font-size="10.00" fill="#000000">sys/include/fs/devfs.h</text>
</a>
</g>
</g>
<!-- Node24&#45;&gt;Node28 -->
<g id="edge4" class="edge">
<title>Node24&#45;&gt;Node28</title>
<path fill="none" stroke="#191970" d="M845.0968,-138.4807C772.9856,-131.1539 645.5869,-116.9065 537.5,-98 527.8247,-96.3076 517.4582,-94.1593 507.7774,-92.0053"/>
<polygon fill="#191970" stroke="#191970" points="845.0256,-141.9911 855.3261,-139.5112 845.7273,-135.0264 845.0256,-141.9911"/>
</g>
<!-- Node29 -->
<g id="node6" class="node">
<title>Node29</title>
<g id="a_node6"><a xlink:href="fatfs_8h.html" target="_top" xlink:title="FatFs integration for vfs. ">
<polygon fill="#ffffff" stroke="#000000" points="546,-73 546,-92 659,-92 659,-73 546,-73"/>
<text text-anchor="middle" x="602.5" y="-80" font-family="Helvetica,sans-Serif" font-size="10.00" fill="#000000">sys/include/fs/fatfs.h</text>
</a>
</g>
</g>
<!-- Node24&#45;&gt;Node29 -->
<g id="edge5" class="edge">
<title>Node24&#45;&gt;Node29</title>
<path fill="none" stroke="#191970" d="M845.2535,-133.3517C797.8045,-124.3806 728.6404,-110.9686 668.5,-98 659.9858,-96.164 650.8792,-94.0943 642.2339,-92.0794"/>
<polygon fill="#191970" stroke="#191970" points="844.86,-136.8391 855.3354,-135.2528 846.1571,-129.9603 844.86,-136.8391"/>
</g>
<!-- Node30 -->
<g id="node7" class="node">
<title>Node30</title>
<g id="a_node7"><a xlink:href="littlefs2__fs_8h.html" target="_top" xlink:title="littlefs v2 integration with vfs ">
<polygon fill="#ffffff" stroke="#000000" points="677.5,-73 677.5,-92 817.5,-92 817.5,-73 677.5,-73"/>
<text text-anchor="middle" x="747.5" y="-80" font-family="Helvetica,sans-Serif" font-size="10.00" fill="#000000">sys/include/fs/littlefs2_fs.h</text>
</a>
</g>
</g>
<!-- Node24&#45;&gt;Node30 -->
<g id="edge6" class="edge">
<title>Node24&#45;&gt;Node30</title>
<path fill="none" stroke="#191970" d="M868.8479,-130.6477C839.4976,-119.0023 797.6423,-102.3952 771.5487,-92.0419"/>
<polygon fill="#191970" stroke="#191970" points="867.6953,-133.9558 878.2813,-134.3906 870.277,-127.4492 867.6953,-133.9558"/>
</g>
<!-- Node31 -->
<g id="node8" class="node">
<title>Node31</title>
<g id="a_node8"><a xlink:href="littlefs__fs_8h.html" target="_top" xlink:title="littlefs integration with vfs ">
<polygon fill="#ffffff" stroke="#000000" points="835.5,-73 835.5,-92 969.5,-92 969.5,-73 835.5,-73"/>
<text text-anchor="middle" x="902.5" y="-80" font-family="Helvetica,sans-Serif" font-size="10.00" fill="#000000">sys/include/fs/littlefs_fs.h</text>
</a>
</g>
</g>
<!-- Node24&#45;&gt;Node31 -->
<g id="edge7" class="edge">
<title>Node24&#45;&gt;Node31</title>
<path fill="none" stroke="#191970" d="M902.5,-124.2462C902.5,-113.5519 902.5,-100.814 902.5,-92.2449"/>
<polygon fill="#191970" stroke="#191970" points="899.0001,-124.3906 902.5,-134.3906 906.0001,-124.3907 899.0001,-124.3906"/>
</g>
<!-- Node32 -->
<g id="node9" class="node">
<title>Node32</title>
<g id="a_node9"><a xlink:href="lwext4__fs_8h.html" target="_top" xlink:title="lwext4 integration with vfs ">
<polygon fill="#ffffff" stroke="#000000" points="987.5,-73 987.5,-92 1123.5,-92 1123.5,-73 987.5,-73"/>
<text text-anchor="middle" x="1055.5" y="-80" font-family="Helvetica,sans-Serif" font-size="10.00" fill="#000000">sys/include/fs/lwext4_fs.h</text>
</a>
</g>
</g>
<!-- Node24&#45;&gt;Node32 -->
<g id="edge8" class="edge">
<title>Node24&#45;&gt;Node32</title>
<path fill="none" stroke="#191970" d="M935.7179,-130.6477C964.6894,-119.0023 1006.0047,-102.3952 1031.7616,-92.0419"/>
<polygon fill="#191970" stroke="#191970" points="934.3794,-127.4135 926.4063,-134.3906 936.9901,-133.9084 934.3794,-127.4135"/>
</g>
<!-- Node33 -->
<g id="node10" class="node">
<title>Node33</title>
<g id="a_node10"><a xlink:href="native__fs_8h.html" target="_top" xlink:title="native integration with vfs ">
<polygon fill="#ffffff" stroke="#000000" points="1141.5,-73 1141.5,-92 1275.5,-92 1275.5,-73 1141.5,-73"/>
<text text-anchor="middle" x="1208.5" y="-80" font-family="Helvetica,sans-Serif" font-size="10.00" fill="#000000">sys/include/fs/native_fs.h</text>
</a>
</g>
</g>
<!-- Node24&#45;&gt;Node33 -->
<g id="edge9" class="edge">
<title>Node24&#45;&gt;Node33</title>
<path fill="none" stroke="#191970" d="M959.5406,-132.6544C1006.0893,-123.3806 1073.559,-109.9045 1132.5,-98 1142.0037,-96.0805 1152.1732,-94.0147 1161.8824,-92.0366"/>
<polygon fill="#191970" stroke="#191970" points="958.7672,-129.2396 949.6436,-134.6256 960.1346,-136.1047 958.7672,-129.2396"/>
</g>
<!-- Node34 -->
<g id="node11" class="node">
<title>Node34</title>
<g id="a_node11"><a xlink:href="spiffs__fs_8h.html" target="_top" xlink:title="SPIFFS integration with vfs. ">
<polygon fill="#ffffff" stroke="#000000" points="1293.5,-73 1293.5,-92 1423.5,-92 1423.5,-73 1293.5,-73"/>
<text text-anchor="middle" x="1358.5" y="-80" font-family="Helvetica,sans-Serif" font-size="10.00" fill="#000000">sys/include/fs/spiffs_fs.h</text>
</a>
</g>
</g>
<!-- Node24&#45;&gt;Node34 -->
<g id="edge10" class="edge">
<title>Node24&#45;&gt;Node34</title>
<path fill="none" stroke="#191970" d="M959.8983,-138.6536C1034.8281,-131.3165 1169.93,-116.8607 1284.5,-98 1294.7318,-96.3156 1305.6957,-94.1948 1315.9655,-92.0672"/>
<polygon fill="#191970" stroke="#191970" points="959.3477,-135.1906 949.7332,-139.6414 960.0248,-142.1577 959.3477,-135.1906"/>
</g>
<!-- Node35 -->
<g id="node12" class="node">
<title>Node35</title>
<g id="a_node12"><a xlink:href="fs_8h.html" target="_top" xlink:title="nanoCoAP virtual file system ">
<polygon fill="#ffffff" stroke="#000000" points="1442,-73 1442,-92 1599,-92 1599,-73 1442,-73"/>
<text text-anchor="middle" x="1520.5" y="-80" font-family="Helvetica,sans-Serif" font-size="10.00" fill="#000000">sys/include/net/nanocoap/fs.h</text>
</a>
</g>
</g>
<!-- Node24&#45;&gt;Node35 -->
<g id="edge11" class="edge">
<title>Node24&#45;&gt;Node35</title>
<path fill="none" stroke="#191970" d="M960.0282,-140.667C1057.5225,-134.6475 1261.3112,-120.4612 1432.5,-98 1444.9587,-96.3653 1458.3433,-94.2133 1470.8207,-92.0351"/>
<polygon fill="#191970" stroke="#191970" points="959.5687,-137.1885 949.801,-141.2925 959.9961,-144.1754 959.5687,-137.1885"/>
</g>
<!-- Node36 -->
<g id="node13" class="node">
<title>Node36</title>
<g id="a_node13"><a xlink:href="suit_2storage_2vfs_8h_source.html" target="_top" xlink:title="sys/include/suit/storage\l/vfs.h">
<polygon fill="#ffffff" stroke="#000000" points="1610.5,-.5 1610.5,-30.5 1738.5,-30.5 1738.5,-.5 1610.5,-.5"/>
<text text-anchor="start" x="1618.5" y="-18.5" font-family="Helvetica,sans-Serif" font-size="10.00" fill="#000000">sys/include/suit/storage</text>
<text text-anchor="middle" x="1674.5" y="-7.5" font-family="Helvetica,sans-Serif" font-size="10.00" fill="#000000">/vfs.h</text>
</a>
</g>
</g>
<!-- Node24&#45;&gt;Node36 -->
<g id="edge12" class="edge">
<title>Node24&#45;&gt;Node36</title>
<path fill="none" stroke="#191970" d="M960.0682,-142.9035C1118.2688,-139.52 1551.6712,-127.6261 1608.5,-98 1636.9633,-83.1614 1657.3538,-50.0577 1667.4076,-30.5947"/>
<polygon fill="#191970" stroke="#191970" points="959.5313,-139.4139 949.6071,-143.1234 959.6785,-146.4124 959.5313,-139.4139"/>
</g>
<!-- Node37 -->
<g id="node14" class="node">
<title>Node37</title>
<g id="a_node14"><a xlink:href="vfs__default_8h.html" target="_top" xlink:title="VFS default mount points. ">
<polygon fill="#ffffff" stroke="#000000" points="1656,-73 1656,-92 1787,-92 1787,-73 1656,-73"/>
<text text-anchor="middle" x="1721.5" y="-80" font-family="Helvetica,sans-Serif" font-size="10.00" fill="#000000">sys/include/vfs_default.h</text>
</a>
</g>
</g>
<!-- Node24&#45;&gt;Node37 -->
<g id="edge13" class="edge">
<title>Node24&#45;&gt;Node37</title>
<path fill="none" stroke="#191970" d="M959.894,-142.9495C1084.4721,-140.117 1388.7917,-130.2092 1641.5,-98 1653.2883,-96.4975 1665.9538,-94.3122 1677.6516,-92.054"/>
<polygon fill="#191970" stroke="#191970" points="959.739,-139.4519 949.8187,-143.1719 959.8936,-146.4502 959.739,-139.4519"/>
</g>
<!-- Node37&#45;&gt;Node36 -->
<g id="edge14" class="edge">
<title>Node37&#45;&gt;Node36</title>
<path fill="none" stroke="#191970" d="M1708.8048,-64.4026C1701.3627,-53.7936 1692.0725,-40.5502 1685.0377,-30.5218"/>
<polygon fill="#191970" stroke="#191970" points="1706.1579,-66.7239 1714.766,-72.9005 1711.8885,-62.7039 1706.1579,-66.7239"/>
</g>
</g>
</svg>
