<?xml version="1.0" encoding="UTF-8" standalone="no"?>
<!DOCTYPE svg PUBLIC "-//W3C//DTD SVG 1.1//EN"
 "http://www.w3.org/Graphics/SVG/1.1/DTD/svg11.dtd">
<!-- Generated by graphviz version 2.40.1 (0)
 -->
<!-- Title: drivers/include/w5100.h Pages: 1 -->
<svg width="873pt" height="308pt"
 viewBox="0.00 0.00 873.43 308.00" xmlns="http://www.w3.org/2000/svg" xmlns:xlink="http://www.w3.org/1999/xlink">
<g id="graph0" class="graph" transform="scale(1 1) rotate(0) translate(4 304)">
<title>drivers/include/w5100.h</title>
<polygon fill="#ffffff" stroke="transparent" points="-4,4 -4,-304 869.4335,-304 869.4335,4 -4,4"/>
<!-- Node0 -->
<g id="node1" class="node">
<title>Node0</title>
<polygon fill="#bfbfbf" stroke="#000000" points="421.9335,-280.5 421.9335,-299.5 552.9335,-299.5 552.9335,-280.5 421.9335,-280.5"/>
<text text-anchor="middle" x="487.4335" y="-287.5" font-family="Helvetica,sans-Serif" font-size="10.00" fill="#000000">drivers/include/w5100.h</text>
</g>
<!-- Node1 -->
<g id="node2" class="node">
<title>Node1</title>
<polygon fill="#ffffff" stroke="#bfbfbf" points="529.4335,-.5 529.4335,-19.5 581.4335,-19.5 581.4335,-.5 529.4335,-.5"/>
<text text-anchor="middle" x="555.4335" y="-7.5" font-family="Helvetica,sans-Serif" font-size="10.00" fill="#000000">stdint.h</text>
</g>
<!-- Node0&#45;&gt;Node1 -->
<g id="edge1" class="edge">
<title>Node0&#45;&gt;Node1</title>
<path fill="none" stroke="#191970" d="M553.276,-284.1096C661.5756,-272.5821 865.4335,-242.3384 865.4335,-178 865.4335,-178 865.4335,-178 865.4335,-122 865.4335,-82.6547 840.7469,-75.252 806.4335,-56 770.1677,-35.6526 652.1151,-20.4108 591.7285,-13.7284"/>
<polygon fill="#191970" stroke="#191970" points="591.8247,-10.2183 581.5052,-12.618 591.0688,-17.1774 591.8247,-10.2183"/>
</g>
<!-- Node2 -->
<g id="node3" class="node">
<title>Node2</title>
<g id="a_node3"><a xlink:href="spi_8h.html" target="_top" xlink:title="Low&#45;level SPI peripheral driver interface definition. ">
<polygon fill="#ffffff" stroke="#000000" points="291.9335,-224.5 291.9335,-243.5 364.9335,-243.5 364.9335,-224.5 291.9335,-224.5"/>
<text text-anchor="middle" x="328.4335" y="-231.5" font-family="Helvetica,sans-Serif" font-size="10.00" fill="#000000">periph/spi.h</text>
</a>
</g>
</g>
<!-- Node0&#45;&gt;Node2 -->
<g id="edge2" class="edge">
<title>Node0&#45;&gt;Node2</title>
<path fill="none" stroke="#191970" d="M460.1004,-280.3733C433.89,-271.1419 394.1351,-257.1402 365.1666,-246.9375"/>
<polygon fill="#191970" stroke="#191970" points="366.0047,-243.5219 355.4099,-243.5011 363.6792,-250.1244 366.0047,-243.5219"/>
</g>
<!-- Node9 -->
<g id="node10" class="node">
<title>Node9</title>
<g id="a_node10"><a xlink:href="drivers_2include_2periph_2gpio_8h.html" target="_top" xlink:title="Low&#45;level GPIO peripheral driver interface definitions. ">
<polygon fill="#ffffff" stroke="#000000" points="182.4335,-168.5 182.4335,-187.5 262.4335,-187.5 262.4335,-168.5 182.4335,-168.5"/>
<text text-anchor="middle" x="222.4335" y="-175.5" font-family="Helvetica,sans-Serif" font-size="10.00" fill="#000000">periph/gpio.h</text>
</a>
</g>
</g>
<!-- Node0&#45;&gt;Node9 -->
<g id="edge16" class="edge">
<title>Node0&#45;&gt;Node9</title>
<path fill="none" stroke="#191970" d="M426.2944,-280.4664C375.0668,-271.721 306.5531,-258.0305 282.4335,-244 262.259,-232.2644 245.0425,-211.4704 234.2939,-196.352"/>
<polygon fill="#191970" stroke="#191970" points="236.9923,-194.0964 228.4686,-187.8038 231.2077,-198.0384 236.9923,-194.0964"/>
</g>
<!-- Node11 -->
<g id="node12" class="node">
<title>Node11</title>
<g id="a_node12"><a xlink:href="drivers_2include_2net_2netdev_8h.html" target="_top" xlink:title="Definitions low&#45;level network driver interface. ">
<polygon fill="#ffffff" stroke="#000000" points="548.9335,-224.5 548.9335,-243.5 625.9335,-243.5 625.9335,-224.5 548.9335,-224.5"/>
<text text-anchor="middle" x="587.4335" y="-231.5" font-family="Helvetica,sans-Serif" font-size="10.00" fill="#000000">net/netdev.h</text>
</a>
</g>
</g>
<!-- Node0&#45;&gt;Node11 -->
<g id="edge17" class="edge">
<title>Node0&#45;&gt;Node11</title>
<path fill="none" stroke="#191970" d="M504.8521,-280.2455C520.482,-271.4928 543.6353,-258.527 561.452,-248.5496"/>
<polygon fill="#191970" stroke="#191970" points="563.1995,-251.5825 570.2144,-243.6427 559.7792,-245.475 563.1995,-251.5825"/>
</g>
<!-- Node2&#45;&gt;Node1 -->
<g id="edge8" class="edge">
<title>Node2&#45;&gt;Node1</title>
<path fill="none" stroke="#191970" d="M345.1449,-224.4761C359.6532,-215.8404 380.8734,-202.306 397.4335,-188 457.7114,-135.9269 516.8007,-61.3448 542.3114,-27.6808"/>
<polygon fill="#191970" stroke="#191970" points="545.1132,-29.7785 548.3229,-19.6815 539.5172,-25.573 545.1132,-29.7785"/>
</g>
<!-- Node3 -->
<g id="node4" class="node">
<title>Node3</title>
<g id="a_node4"><a xlink:href="endian_8h.html" target="_top" xlink:title="libc header for endian conversion ">
<polygon fill="#ffffff" stroke="#000000" points="431.9335,-56.5 431.9335,-75.5 488.9335,-75.5 488.9335,-56.5 431.9335,-56.5"/>
<text text-anchor="middle" x="460.4335" y="-63.5" font-family="Helvetica,sans-Serif" font-size="10.00" fill="#000000">endian.h</text>
</a>
</g>
</g>
<!-- Node2&#45;&gt;Node3 -->
<g id="edge3" class="edge">
<title>Node2&#45;&gt;Node3</title>
<path fill="none" stroke="#191970" d="M338.8428,-224.2349C357.095,-206.7968 395.4906,-168.6821 422.4335,-132 433.5184,-116.9081 443.9686,-98.3149 451.0937,-84.7134"/>
<polygon fill="#191970" stroke="#191970" points="454.209,-86.3086 455.6558,-75.813 447.9796,-83.1156 454.209,-86.3086"/>
</g>
<!-- Node4 -->
<g id="node5" class="node">
<title>Node4</title>
<g id="a_node5"><a xlink:href="errno_8h.html" target="_top" xlink:title="errno.h">
<polygon fill="#ffffff" stroke="#000000" points="452.9335,-168.5 452.9335,-187.5 505.9335,-187.5 505.9335,-168.5 452.9335,-168.5"/>
<text text-anchor="middle" x="479.4335" y="-175.5" font-family="Helvetica,sans-Serif" font-size="10.00" fill="#000000">errno.h</text>
</a>
</g>
</g>
<!-- Node2&#45;&gt;Node4 -->
<g id="edge5" class="edge">
<title>Node2&#45;&gt;Node4</title>
<path fill="none" stroke="#191970" d="M354.3913,-224.3733C379.1742,-215.1822 416.7081,-201.2624 444.1875,-191.0713"/>
<polygon fill="#191970" stroke="#191970" points="445.6554,-194.26 453.8144,-187.5011 443.2213,-187.6968 445.6554,-194.26"/>
</g>
<!-- Node5 -->
<g id="node6" class="node">
<title>Node5</title>
<polygon fill="#ffffff" stroke="#bfbfbf" points="281.4335,-112.5 281.4335,-131.5 341.4335,-131.5 341.4335,-112.5 281.4335,-112.5"/>
<text text-anchor="middle" x="311.4335" y="-119.5" font-family="Helvetica,sans-Serif" font-size="10.00" fill="#000000">stdbool.h</text>
</g>
<!-- Node2&#45;&gt;Node5 -->
<g id="edge6" class="edge">
<title>Node2&#45;&gt;Node5</title>
<path fill="none" stroke="#191970" d="M326.984,-224.4509C324.2114,-206.184 318.1052,-165.9553 314.4233,-141.6976"/>
<polygon fill="#191970" stroke="#191970" points="317.8403,-140.8864 312.8792,-131.5249 310.9196,-141.9369 317.8403,-140.8864"/>
</g>
<!-- Node6 -->
<g id="node7" class="node">
<title>Node6</title>
<polygon fill="#ffffff" stroke="#bfbfbf" points="194.4335,-.5 194.4335,-19.5 250.4335,-19.5 250.4335,-.5 194.4335,-.5"/>
<text text-anchor="middle" x="222.4335" y="-7.5" font-family="Helvetica,sans-Serif" font-size="10.00" fill="#000000">stddef.h</text>
</g>
<!-- Node2&#45;&gt;Node6 -->
<g id="edge7" class="edge">
<title>Node2&#45;&gt;Node6</title>
<path fill="none" stroke="#191970" d="M291.6906,-228.1977C214.4203,-215.1225 39.6353,-180.654 8.4335,-132 -36.5653,-61.832 111.0152,-27.7895 184.0078,-15.5386"/>
<polygon fill="#191970" stroke="#191970" points="184.8923,-18.941 194.2042,-13.8875 183.7733,-12.031 184.8923,-18.941"/>
</g>
<!-- Node7 -->
<g id="node8" class="node">
<title>Node7</title>
<polygon fill="#ffffff" stroke="#bfbfbf" points="17.9335,-112.5 17.9335,-131.5 94.9335,-131.5 94.9335,-112.5 17.9335,-112.5"/>
<text text-anchor="middle" x="56.4335" y="-119.5" font-family="Helvetica,sans-Serif" font-size="10.00" fill="#000000">periph_cpu.h</text>
</g>
<!-- Node2&#45;&gt;Node7 -->
<g id="edge9" class="edge">
<title>Node2&#45;&gt;Node7</title>
<path fill="none" stroke="#191970" d="M291.9234,-225.6397C259.9925,-217.75 212.714,-204.6562 173.4335,-188 139.4658,-173.5966 102.7985,-151.7898 79.7405,-137.2306"/>
<polygon fill="#191970" stroke="#191970" points="81.3389,-134.0985 71.0275,-131.6639 77.57,-139.9973 81.3389,-134.0985"/>
</g>
<!-- Node8 -->
<g id="node9" class="node">
<title>Node8</title>
<polygon fill="#ffffff" stroke="#bfbfbf" points="181.9335,-112.5 181.9335,-131.5 262.9335,-131.5 262.9335,-112.5 181.9335,-112.5"/>
<text text-anchor="middle" x="222.4335" y="-119.5" font-family="Helvetica,sans-Serif" font-size="10.00" fill="#000000">periph_conf.h</text>
</g>
<!-- Node2&#45;&gt;Node8 -->
<g id="edge10" class="edge">
<title>Node2&#45;&gt;Node8</title>
<path fill="none" stroke="#191970" d="M320.6177,-224.3257C309.9044,-211.2131 289.8806,-187.2285 271.4335,-168 261.6871,-157.8408 250.2432,-147.0397 240.867,-138.4584"/>
<polygon fill="#191970" stroke="#191970" points="243.0148,-135.6815 233.2542,-131.5607 238.3147,-140.8689 243.0148,-135.6815"/>
</g>
<!-- Node2&#45;&gt;Node9 -->
<g id="edge11" class="edge">
<title>Node2&#45;&gt;Node9</title>
<path fill="none" stroke="#191970" d="M309.9697,-224.2455C293.326,-215.4527 268.6342,-202.4079 249.7143,-192.4125"/>
<polygon fill="#191970" stroke="#191970" points="251.1626,-189.2193 240.6857,-187.6427 247.8927,-195.4086 251.1626,-189.2193"/>
</g>
<!-- Node3&#45;&gt;Node1 -->
<g id="edge4" class="edge">
<title>Node3&#45;&gt;Node1</title>
<path fill="none" stroke="#191970" d="M476.9812,-56.2455C491.6933,-47.5731 513.4222,-34.7645 530.2839,-24.825"/>
<polygon fill="#191970" stroke="#191970" points="532.238,-27.736 539.0754,-19.6427 528.6833,-21.7057 532.238,-27.736"/>
</g>
<!-- Node9&#45;&gt;Node5 -->
<g id="edge13" class="edge">
<title>Node9&#45;&gt;Node5</title>
<path fill="none" stroke="#191970" d="M237.9361,-168.2455C251.5914,-159.6534 271.6992,-147.0014 287.4324,-137.1018"/>
<polygon fill="#191970" stroke="#191970" points="289.5085,-139.9307 296.1085,-131.6427 285.7806,-134.006 289.5085,-139.9307"/>
</g>
<!-- Node9&#45;&gt;Node7 -->
<g id="edge14" class="edge">
<title>Node9&#45;&gt;Node7</title>
<path fill="none" stroke="#191970" d="M193.897,-168.3733C166.4133,-159.1016 124.6649,-145.0178 94.3883,-134.804"/>
<polygon fill="#191970" stroke="#191970" points="95.1917,-131.3813 84.5975,-131.5011 92.9541,-138.0141 95.1917,-131.3813"/>
</g>
<!-- Node9&#45;&gt;Node8 -->
<g id="edge15" class="edge">
<title>Node9&#45;&gt;Node8</title>
<path fill="none" stroke="#191970" d="M222.4335,-168.2455C222.4335,-160.9382 222.4335,-150.6944 222.4335,-141.7046"/>
<polygon fill="#191970" stroke="#191970" points="225.9336,-141.6426 222.4335,-131.6427 218.9336,-141.6427 225.9336,-141.6426"/>
</g>
<!-- Node10 -->
<g id="node11" class="node">
<title>Node10</title>
<polygon fill="#ffffff" stroke="#bfbfbf" points="113.4335,-112.5 113.4335,-131.5 163.4335,-131.5 163.4335,-112.5 113.4335,-112.5"/>
<text text-anchor="middle" x="138.4335" y="-119.5" font-family="Helvetica,sans-Serif" font-size="10.00" fill="#000000">limits.h</text>
</g>
<!-- Node9&#45;&gt;Node10 -->
<g id="edge12" class="edge">
<title>Node9&#45;&gt;Node10</title>
<path fill="none" stroke="#191970" d="M207.8018,-168.2455C195.034,-159.7337 176.2897,-147.2375 161.5036,-137.3801"/>
<polygon fill="#191970" stroke="#191970" points="163.1595,-134.2775 152.8975,-131.6427 159.2765,-140.1019 163.1595,-134.2775"/>
</g>
<!-- Node11&#45;&gt;Node1 -->
<g id="edge18" class="edge">
<title>Node11&#45;&gt;Node1</title>
<path fill="none" stroke="#191970" d="M626.2771,-229.5733C677.7292,-222.9766 764.749,-209.0416 788.4335,-188 814.545,-164.8022 815.4562,-146.2145 808.4335,-112 802.9889,-85.4747 805.4535,-73.0702 784.4335,-56 755.3179,-32.3555 648.7069,-18.8631 591.8001,-13.1969"/>
<polygon fill="#191970" stroke="#191970" points="592.0728,-9.7071 581.7826,-12.2293 591.3998,-16.6747 592.0728,-9.7071"/>
</g>
<!-- Node11&#45;&gt;Node4 -->
<g id="edge19" class="edge">
<title>Node11&#45;&gt;Node4</title>
<path fill="none" stroke="#191970" d="M568.6213,-224.2455C551.5862,-215.4125 526.276,-202.2887 506.9653,-192.2758"/>
<polygon fill="#191970" stroke="#191970" points="508.5187,-189.1388 498.03,-187.6427 505.2965,-195.353 508.5187,-189.1388"/>
</g>
<!-- Node12 -->
<g id="node13" class="node">
<title>Node12</title>
<g id="a_node13"><a xlink:href="iolist_8h.html" target="_top" xlink:title="iolist scatter / gather IO ">
<polygon fill="#ffffff" stroke="#000000" points="523.9335,-168.5 523.9335,-187.5 570.9335,-187.5 570.9335,-168.5 523.9335,-168.5"/>
<text text-anchor="middle" x="547.4335" y="-175.5" font-family="Helvetica,sans-Serif" font-size="10.00" fill="#000000">iolist.h</text>
</a>
</g>
</g>
<!-- Node11&#45;&gt;Node12 -->
<g id="edge20" class="edge">
<title>Node11&#45;&gt;Node12</title>
<path fill="none" stroke="#191970" d="M580.466,-224.2455C574.9023,-216.4564 566.9554,-205.3308 560.2506,-195.9439"/>
<polygon fill="#191970" stroke="#191970" points="562.9816,-193.7457 554.3211,-187.6427 557.2854,-197.8144 562.9816,-193.7457"/>
</g>
<!-- Node15 -->
<g id="node16" class="node">
<title>Node15</title>
<g id="a_node16"><a xlink:href="netopt_8h.html" target="_top" xlink:title="Definition of global configuration options. ">
<polygon fill="#ffffff" stroke="#000000" points="588.9335,-168.5 588.9335,-187.5 665.9335,-187.5 665.9335,-168.5 588.9335,-168.5"/>
<text text-anchor="middle" x="627.4335" y="-175.5" font-family="Helvetica,sans-Serif" font-size="10.00" fill="#000000">net/netopt.h</text>
</a>
</g>
</g>
<!-- Node11&#45;&gt;Node15 -->
<g id="edge27" class="edge">
<title>Node11&#45;&gt;Node15</title>
<path fill="none" stroke="#191970" d="M594.4009,-224.2455C599.9646,-216.4564 607.9115,-205.3308 614.6164,-195.9439"/>
<polygon fill="#191970" stroke="#191970" points="617.5815,-197.8144 620.5458,-187.6427 611.8853,-193.7457 617.5815,-197.8144"/>
</g>
<!-- Node16 -->
<g id="node17" class="node">
<title>Node16</title>
<g id="a_node17"><a xlink:href="kernel__defines_8h.html" target="_top" xlink:title="Common macros and compiler attributes/pragmas configuration. ">
<polygon fill="#ffffff" stroke="#000000" points="683.9335,-168.5 683.9335,-187.5 778.9335,-187.5 778.9335,-168.5 683.9335,-168.5"/>
<text text-anchor="middle" x="731.4335" y="-175.5" font-family="Helvetica,sans-Serif" font-size="10.00" fill="#000000">kernel_defines.h</text>
</a>
</g>
</g>
<!-- Node11&#45;&gt;Node16 -->
<g id="edge30" class="edge">
<title>Node11&#45;&gt;Node16</title>
<path fill="none" stroke="#191970" d="M612.1879,-224.3733C635.7183,-215.2226 671.3021,-201.3844 697.4761,-191.2057"/>
<polygon fill="#191970" stroke="#191970" points="698.9505,-194.3877 707.002,-187.5011 696.4134,-187.8636 698.9505,-194.3877"/>
</g>
<!-- Node13 -->
<g id="node14" class="node">
<title>Node13</title>
<g id="a_node14"><a xlink:href="unistd_8h_source.html" target="_top" xlink:title="unistd.h">
<polygon fill="#ffffff" stroke="#000000" points="359.4335,-112.5 359.4335,-131.5 413.4335,-131.5 413.4335,-112.5 359.4335,-112.5"/>
<text text-anchor="middle" x="386.4335" y="-119.5" font-family="Helvetica,sans-Serif" font-size="10.00" fill="#000000">unistd.h</text>
</a>
</g>
</g>
<!-- Node12&#45;&gt;Node13 -->
<g id="edge21" class="edge">
<title>Node12&#45;&gt;Node13</title>
<path fill="none" stroke="#191970" d="M523.6774,-169.737C497.1574,-160.5127 453.9202,-145.4736 423.0638,-134.741"/>
<polygon fill="#191970" stroke="#191970" points="424.1122,-131.4 413.5174,-131.4205 421.8125,-138.0115 424.1122,-131.4"/>
</g>
<!-- Node13&#45;&gt;Node1 -->
<g id="edge23" class="edge">
<title>Node13&#45;&gt;Node1</title>
<path fill="none" stroke="#191970" d="M369.8963,-112.4872C349.4941,-99.5576 319.3618,-75.7797 335.4335,-56 358.1457,-28.0477 462.5001,-16.4888 518.9416,-12.2156"/>
<polygon fill="#191970" stroke="#191970" points="519.4989,-15.6847 529.2226,-11.4778 518.9977,-8.7027 519.4989,-15.6847"/>
</g>
<!-- Node13&#45;&gt;Node6 -->
<g id="edge22" class="edge">
<title>Node13&#45;&gt;Node6</title>
<path fill="none" stroke="#191970" d="M359.3233,-114.4038C356.3261,-113.5836 353.3167,-112.7684 350.4335,-112 287.938,-95.3439 249.1089,-127.0781 209.4335,-76 198.956,-62.5114 204.6927,-42.8941 211.5371,-28.5529"/>
<polygon fill="#191970" stroke="#191970" points="214.6868,-30.0838 216.2669,-19.6074 208.4985,-26.8118 214.6868,-30.0838"/>
</g>
<!-- Node14 -->
<g id="node15" class="node">
<title>Node14</title>
<g id="a_node15"><a xlink:href="cpu_2avr8__common_2avr__libc__extra_2include_2sys_2types_8h_source.html" target="_top" xlink:title="sys/types.h">
<polygon fill="#ffffff" stroke="#000000" points="218.9335,-56.5 218.9335,-75.5 287.9335,-75.5 287.9335,-56.5 218.9335,-56.5"/>
<text text-anchor="middle" x="253.4335" y="-63.5" font-family="Helvetica,sans-Serif" font-size="10.00" fill="#000000">sys/types.h</text>
</a>
</g>
</g>
<!-- Node13&#45;&gt;Node14 -->
<g id="edge24" class="edge">
<title>Node13&#45;&gt;Node14</title>
<path fill="none" stroke="#191970" d="M363.5699,-112.3733C342.0285,-103.3032 309.5497,-89.6279 285.4379,-79.4755"/>
<polygon fill="#191970" stroke="#191970" points="286.5732,-76.156 275.9986,-75.5011 283.8568,-82.6075 286.5732,-76.156"/>
</g>
<!-- Node14&#45;&gt;Node1 -->
<g id="edge25" class="edge">
<title>Node14&#45;&gt;Node1</title>
<path fill="none" stroke="#191970" d="M287.9486,-58.8594C292.8088,-57.8821 297.7447,-56.9046 302.4335,-56 379.4146,-41.1483 469.8371,-25.0259 519.0333,-16.3653"/>
<polygon fill="#191970" stroke="#191970" points="519.932,-19.761 529.1752,-14.5828 518.7202,-12.8667 519.932,-19.761"/>
</g>
<!-- Node14&#45;&gt;Node6 -->
<g id="edge26" class="edge">
<title>Node14&#45;&gt;Node6</title>
<path fill="none" stroke="#191970" d="M248.0337,-56.2455C243.8107,-48.617 237.8162,-37.7881 232.6893,-28.5267"/>
<polygon fill="#191970" stroke="#191970" points="235.6767,-26.6965 227.7714,-19.6427 229.5524,-30.0867 235.6767,-26.6965"/>
</g>
<!-- Node15&#45;&gt;Node1 -->
<g id="edge28" class="edge">
<title>Node15&#45;&gt;Node1</title>
<path fill="none" stroke="#191970" d="M611.5933,-168.3524C599.657,-160.2005 583.9399,-147.4051 575.4335,-132 557.4393,-99.4126 554.647,-54.9834 554.7175,-29.7151"/>
<polygon fill="#191970" stroke="#191970" points="558.2197,-29.6287 554.9071,-19.5651 551.2209,-29.4979 558.2197,-29.6287"/>
</g>
<!-- Node15&#45;&gt;Node5 -->
<g id="edge29" class="edge">
<title>Node15&#45;&gt;Node5</title>
<path fill="none" stroke="#191970" d="M588.738,-169.5927C585.9311,-169.0364 583.1407,-168.4995 580.4335,-168 481.8637,-149.8136 453.528,-152.6672 351.6903,-132.1038"/>
<polygon fill="#191970" stroke="#191970" points="352.0995,-128.6151 341.6008,-130.0392 350.6961,-135.473 352.0995,-128.6151"/>
</g>
<!-- Node17 -->
<g id="node18" class="node">
<title>Node17</title>
<g id="a_node18"><a xlink:href="modules_8h.html" target="_top" xlink:title="Common macros and compiler attributes/pragmas configuration. ">
<polygon fill="#ffffff" stroke="#000000" points="733.9335,-112.5 733.9335,-131.5 798.9335,-131.5 798.9335,-112.5 733.9335,-112.5"/>
<text text-anchor="middle" x="766.4335" y="-119.5" font-family="Helvetica,sans-Serif" font-size="10.00" fill="#000000">modules.h</text>
</a>
</g>
</g>
<!-- Node16&#45;&gt;Node17 -->
<g id="edge31" class="edge">
<title>Node16&#45;&gt;Node17</title>
<path fill="none" stroke="#191970" d="M737.53,-168.2455C742.348,-160.5367 749.2086,-149.5598 755.0367,-140.2348"/>
<polygon fill="#191970" stroke="#191970" points="758.0748,-141.9777 760.4068,-131.6427 752.1388,-138.2677 758.0748,-141.9777"/>
</g>
<!-- Node18 -->
<g id="node19" class="node">
<title>Node18</title>
<g id="a_node19"><a xlink:href="riot__version_8h.html" target="_top" xlink:title="Common macros and compiler attributes/pragmas configuration. ">
<polygon fill="#ffffff" stroke="#000000" points="693.9335,-56.5 693.9335,-75.5 774.9335,-75.5 774.9335,-56.5 693.9335,-56.5"/>
<text text-anchor="middle" x="734.4335" y="-63.5" font-family="Helvetica,sans-Serif" font-size="10.00" fill="#000000">riot_version.h</text>
</a>
</g>
</g>
<!-- Node16&#45;&gt;Node18 -->
<g id="edge32" class="edge">
<title>Node16&#45;&gt;Node18</title>
<path fill="none" stroke="#191970" d="M729.3867,-168.1566C726.9683,-155.2557 723.5024,-131.9264 725.4335,-112 726.2753,-103.3132 727.9914,-93.8313 729.7015,-85.7451"/>
<polygon fill="#191970" stroke="#191970" points="733.1609,-86.3146 731.947,-75.7895 726.3324,-84.7743 733.1609,-86.3146"/>
</g>
<!-- Node19 -->
<g id="node20" class="node">
<title>Node19</title>
<g id="a_node20"><a xlink:href="compiler__hints_8h.html" target="_top" xlink:title="Common macros and compiler attributes/pragmas configuration. ">
<polygon fill="#ffffff" stroke="#000000" points="583.9335,-112.5 583.9335,-131.5 676.9335,-131.5 676.9335,-112.5 583.9335,-112.5"/>
<text text-anchor="middle" x="630.4335" y="-119.5" font-family="Helvetica,sans-Serif" font-size="10.00" fill="#000000">compiler_hints.h</text>
</a>
</g>
</g>
<!-- Node16&#45;&gt;Node19 -->
<g id="edge34" class="edge">
<title>Node16&#45;&gt;Node19</title>
<path fill="none" stroke="#191970" d="M713.8406,-168.2455C698.0544,-159.4928 674.6696,-146.527 656.6747,-136.5496"/>
<polygon fill="#191970" stroke="#191970" points="658.2676,-133.4308 647.8247,-131.6427 654.8732,-139.5528 658.2676,-133.4308"/>
</g>
<!-- Node21 -->
<g id="node22" class="node">
<title>Node21</title>
<g id="a_node22"><a xlink:href="container_8h.html" target="_top" xlink:title="Common macros and compiler attributes/pragmas configuration. ">
<polygon fill="#ffffff" stroke="#000000" points="344.9335,-56.5 344.9335,-75.5 413.9335,-75.5 413.9335,-56.5 344.9335,-56.5"/>
<text text-anchor="middle" x="379.4335" y="-63.5" font-family="Helvetica,sans-Serif" font-size="10.00" fill="#000000">container.h</text>
</a>
</g>
</g>
<!-- Node16&#45;&gt;Node21 -->
<g id="edge38" class="edge">
<title>Node16&#45;&gt;Node21</title>
<path fill="none" stroke="#191970" d="M697.8475,-168.4965C666.1788,-159.441 617.4387,-145.2601 575.4335,-132 519.6823,-114.4006 455.5599,-92.489 416.2691,-78.8704"/>
<polygon fill="#191970" stroke="#191970" points="417.1897,-75.4851 406.5949,-75.5108 414.8932,-82.0977 417.1897,-75.4851"/>
</g>
<!-- Node18&#45;&gt;Node1 -->
<g id="edge33" class="edge">
<title>Node18&#45;&gt;Node1</title>
<path fill="none" stroke="#191970" d="M703.6623,-56.3733C672.4096,-46.5959 624.0515,-31.4671 591.1332,-21.1686"/>
<polygon fill="#191970" stroke="#191970" points="592.0378,-17.7844 581.4489,-18.1389 589.9477,-24.4651 592.0378,-17.7844"/>
</g>
<!-- Node19&#45;&gt;Node1 -->
<g id="edge37" class="edge">
<title>Node19&#45;&gt;Node1</title>
<path fill="none" stroke="#191970" d="M637.0463,-112.3311C645.3977,-98.8018 657.4276,-73.8764 646.4335,-56 634.4542,-36.5217 611.3943,-24.9884 591.4864,-18.3415"/>
<polygon fill="#191970" stroke="#191970" points="592.3203,-14.9369 581.7346,-15.3763 590.2838,-21.6342 592.3203,-14.9369"/>
</g>
<!-- Node20 -->
<g id="node21" class="node">
<title>Node20</title>
<g id="a_node21"><a xlink:href="assert_8h.html" target="_top" xlink:title="POSIX.1&#45;2008 compliant version of the assert macro. ">
<polygon fill="#ffffff" stroke="#000000" points="583.4335,-56.5 583.4335,-75.5 637.4335,-75.5 637.4335,-56.5 583.4335,-56.5"/>
<text text-anchor="middle" x="610.4335" y="-63.5" font-family="Helvetica,sans-Serif" font-size="10.00" fill="#000000">assert.h</text>
</a>
</g>
</g>
<!-- Node19&#45;&gt;Node20 -->
<g id="edge35" class="edge">
<title>Node19&#45;&gt;Node20</title>
<path fill="none" stroke="#191970" d="M626.9497,-112.2455C624.2826,-104.7776 620.5201,-94.2427 617.2598,-85.1137"/>
<polygon fill="#191970" stroke="#191970" points="620.5368,-83.8829 613.8773,-75.6427 613.9446,-86.2373 620.5368,-83.8829"/>
</g>
<!-- Node20&#45;&gt;Node1 -->
<g id="edge36" class="edge">
<title>Node20&#45;&gt;Node1</title>
<path fill="none" stroke="#191970" d="M600.8532,-56.2455C592.8877,-48.1352 581.3694,-36.4075 571.9255,-26.7919"/>
<polygon fill="#191970" stroke="#191970" points="574.4081,-24.3247 564.9039,-19.6427 569.414,-29.2297 574.4081,-24.3247"/>
</g>
<!-- Node21&#45;&gt;Node1 -->
<g id="edge40" class="edge">
<title>Node21&#45;&gt;Node1</title>
<path fill="none" stroke="#191970" d="M409.6889,-56.3733C440.2397,-46.6526 487.4147,-31.6423 519.7676,-21.3482"/>
<polygon fill="#191970" stroke="#191970" points="520.8295,-24.6833 529.2975,-18.316 518.707,-18.0129 520.8295,-24.6833"/>
</g>
<!-- Node21&#45;&gt;Node6 -->
<g id="edge39" class="edge">
<title>Node21&#45;&gt;Node6</title>
<path fill="none" stroke="#191970" d="M352.4442,-56.3733C326.5635,-47.1419 287.3087,-33.1402 258.7046,-22.9375"/>
<polygon fill="#191970" stroke="#191970" points="259.6652,-19.5642 249.0705,-19.5011 257.3134,-26.1573 259.6652,-19.5642"/>
</g>
</g>
</svg>
