<?xml version="1.0" encoding="UTF-8" standalone="no"?>
<!DOCTYPE svg PUBLIC "-//W3C//DTD SVG 1.1//EN"
 "http://www.w3.org/Graphics/SVG/1.1/DTD/svg11.dtd">
<!-- Generated by graphviz version 2.40.1 (0)
 -->
<!-- Title: boards/weact&#45;g030f6/include/board.h Pages: 1 -->
<svg width="1190pt" height="319pt"
 viewBox="0.00 0.00 1189.50 319.00" xmlns="http://www.w3.org/2000/svg" xmlns:xlink="http://www.w3.org/1999/xlink">
<g id="graph0" class="graph" transform="scale(1 1) rotate(0) translate(4 315)">
<title>boards/weact&#45;g030f6/include/board.h</title>
<polygon fill="#ffffff" stroke="transparent" points="-4,4 -4,-315 1185.5,-315 1185.5,4 -4,4"/>
<!-- Node0 -->
<g id="node1" class="node">
<title>Node0</title>
<polygon fill="#bfbfbf" stroke="#000000" points="119,-280.5 119,-310.5 235,-310.5 235,-280.5 119,-280.5"/>
<text text-anchor="start" x="127" y="-298.5" font-family="Helvetica,sans-Serif" font-size="10.00" fill="#000000">boards/weact&#45;g030f6</text>
<text text-anchor="middle" x="177" y="-287.5" font-family="Helvetica,sans-Serif" font-size="10.00" fill="#000000">/include/board.h</text>
</g>
<!-- Node1 -->
<g id="node2" class="node">
<title>Node1</title>
<polygon fill="#ffffff" stroke="#bfbfbf" points="0,-168.5 0,-187.5 42,-187.5 42,-168.5 0,-168.5"/>
<text text-anchor="middle" x="21" y="-175.5" font-family="Helvetica,sans-Serif" font-size="10.00" fill="#000000">cpu.h</text>
</g>
<!-- Node0&#45;&gt;Node1 -->
<g id="edge1" class="edge">
<title>Node0&#45;&gt;Node1</title>
<path fill="none" stroke="#191970" d="M140.6411,-280.3007C121.3054,-271.2843 97.7275,-258.7408 79,-244 61.1328,-229.9364 44.4083,-209.8736 33.5535,-195.5662"/>
<polygon fill="#191970" stroke="#191970" points="36.3546,-193.4675 27.5957,-187.5067 30.7256,-197.6286 36.3546,-193.4675"/>
</g>
<!-- Node2 -->
<g id="node3" class="node">
<title>Node2</title>
<g id="a_node3"><a xlink:href="boards_2weact-g030f6_2include_2periph__conf_8h.html" target="_top" xlink:title="Configuration of CPU peripherals for WeAct&#45;G030F6. ">
<polygon fill="#ffffff" stroke="#000000" points="88.5,-224.5 88.5,-243.5 169.5,-243.5 169.5,-224.5 88.5,-224.5"/>
<text text-anchor="middle" x="129" y="-231.5" font-family="Helvetica,sans-Serif" font-size="10.00" fill="#000000">periph_conf.h</text>
</a>
</g>
</g>
<!-- Node0&#45;&gt;Node2 -->
<g id="edge2" class="edge">
<title>Node0&#45;&gt;Node2</title>
<path fill="none" stroke="#191970" d="M165.1348,-280.2977C158.4025,-271.672 149.9415,-260.8312 142.8994,-251.8087"/>
<polygon fill="#191970" stroke="#191970" points="145.5973,-249.5766 136.6854,-243.8469 140.079,-253.8836 145.5973,-249.5766"/>
</g>
<!-- Node4 -->
<g id="node5" class="node">
<title>Node4</title>
<polygon fill="#ffffff" stroke="#bfbfbf" points="161.5,-56.5 161.5,-75.5 238.5,-75.5 238.5,-56.5 161.5,-56.5"/>
<text text-anchor="middle" x="200" y="-63.5" font-family="Helvetica,sans-Serif" font-size="10.00" fill="#000000">periph_cpu.h</text>
</g>
<!-- Node0&#45;&gt;Node4 -->
<g id="edge7" class="edge">
<title>Node0&#45;&gt;Node4</title>
<path fill="none" stroke="#191970" d="M181.7075,-280.3809C190.9211,-249.1345 210.0968,-175.083 206,-112 205.4402,-103.3805 204.2964,-93.9095 203.1561,-85.8133"/>
<polygon fill="#191970" stroke="#191970" points="206.604,-85.2041 201.6586,-75.8343 199.6815,-86.243 206.604,-85.2041"/>
</g>
<!-- Node6 -->
<g id="node7" class="node">
<title>Node6</title>
<g id="a_node7"><a xlink:href="stm32__leds_8h.html" target="_top" xlink:title="Common LED macros. ">
<polygon fill="#ffffff" stroke="#000000" points="459,-224.5 459,-243.5 537,-243.5 537,-224.5 459,-224.5"/>
<text text-anchor="middle" x="498" y="-231.5" font-family="Helvetica,sans-Serif" font-size="10.00" fill="#000000">stm32_leds.h</text>
</a>
</g>
</g>
<!-- Node0&#45;&gt;Node6 -->
<g id="edge8" class="edge">
<title>Node0&#45;&gt;Node6</title>
<path fill="none" stroke="#191970" d="M235.1307,-284.3628C296.3177,-272.6401 391.5716,-254.3905 449.0539,-243.3775"/>
<polygon fill="#191970" stroke="#191970" points="449.821,-246.7943 458.9838,-241.4751 448.5038,-239.9193 449.821,-246.7943"/>
</g>
<!-- Node2&#45;&gt;Node1 -->
<g id="edge4" class="edge">
<title>Node2&#45;&gt;Node1</title>
<path fill="none" stroke="#191970" d="M110.1878,-224.2455C93.1527,-215.4125 67.8425,-202.2887 48.5319,-192.2758"/>
<polygon fill="#191970" stroke="#191970" points="50.0853,-189.1388 39.5966,-187.6427 46.863,-195.353 50.0853,-189.1388"/>
</g>
<!-- Node3 -->
<g id="node4" class="node">
<title>Node3</title>
<polygon fill="#ffffff" stroke="#bfbfbf" points="787,-.5 787,-19.5 839,-19.5 839,-.5 787,-.5"/>
<text text-anchor="middle" x="813" y="-7.5" font-family="Helvetica,sans-Serif" font-size="10.00" fill="#000000">stdint.h</text>
</g>
<!-- Node2&#45;&gt;Node3 -->
<g id="edge3" class="edge">
<title>Node2&#45;&gt;Node3</title>
<path fill="none" stroke="#191970" d="M116.5788,-224.18C106.9984,-215.7529 94.4865,-202.6707 89,-188 85.8864,-179.6743 86.7475,-176.5988 89,-168 103.4724,-112.7517 103.7312,-86.5279 152,-56 204.8964,-22.5453 645.568,-12.7272 776.4717,-10.5357"/>
<polygon fill="#191970" stroke="#191970" points="776.82,-14.0306 786.7618,-10.3686 776.7063,-7.0315 776.82,-14.0306"/>
</g>
<!-- Node2&#45;&gt;Node4 -->
<g id="edge5" class="edge">
<title>Node2&#45;&gt;Node4</title>
<path fill="none" stroke="#191970" d="M139.7469,-224.4491C148.8364,-215.7962 161.539,-202.2515 169,-188 186.4915,-154.5888 194.4877,-110.7842 197.8419,-85.7812"/>
<polygon fill="#191970" stroke="#191970" points="201.3322,-86.0725 199.0737,-75.7212 194.3841,-85.2216 201.3322,-86.0725"/>
</g>
<!-- Node5 -->
<g id="node6" class="node">
<title>Node5</title>
<polygon fill="#ffffff" stroke="#bfbfbf" points="98,-168.5 98,-187.5 160,-187.5 160,-168.5 98,-168.5"/>
<text text-anchor="middle" x="129" y="-175.5" font-family="Helvetica,sans-Serif" font-size="10.00" fill="#000000">clk_conf.h</text>
</g>
<!-- Node2&#45;&gt;Node5 -->
<g id="edge6" class="edge">
<title>Node2&#45;&gt;Node5</title>
<path fill="none" stroke="#191970" d="M129,-224.2455C129,-216.9382 129,-206.6944 129,-197.7046"/>
<polygon fill="#191970" stroke="#191970" points="132.5001,-197.6426 129,-187.6427 125.5001,-197.6427 132.5001,-197.6426"/>
</g>
<!-- Node7 -->
<g id="node8" class="node">
<title>Node7</title>
<g id="a_node8"><a xlink:href="gpio__ll_8h.html" target="_top" xlink:title="Peripheral GPIO Low&#45;Level API. ">
<polygon fill="#ffffff" stroke="#000000" points="453.5,-168.5 453.5,-187.5 542.5,-187.5 542.5,-168.5 453.5,-168.5"/>
<text text-anchor="middle" x="498" y="-175.5" font-family="Helvetica,sans-Serif" font-size="10.00" fill="#000000">periph/gpio_ll.h</text>
</a>
</g>
</g>
<!-- Node6&#45;&gt;Node7 -->
<g id="edge9" class="edge">
<title>Node6&#45;&gt;Node7</title>
<path fill="none" stroke="#191970" d="M498,-224.2455C498,-216.9382 498,-206.6944 498,-197.7046"/>
<polygon fill="#191970" stroke="#191970" points="501.5001,-197.6426 498,-187.6427 494.5001,-197.6427 501.5001,-197.6426"/>
</g>
<!-- Node17 -->
<g id="node18" class="node">
<title>Node17</title>
<g id="a_node18"><a xlink:href="kernel__defines_8h.html" target="_top" xlink:title="Common macros and compiler attributes/pragmas configuration. ">
<polygon fill="#ffffff" stroke="#000000" points="917.5,-168.5 917.5,-187.5 1012.5,-187.5 1012.5,-168.5 917.5,-168.5"/>
<text text-anchor="middle" x="965" y="-175.5" font-family="Helvetica,sans-Serif" font-size="10.00" fill="#000000">kernel_defines.h</text>
</a>
</g>
</g>
<!-- Node6&#45;&gt;Node17 -->
<g id="edge26" class="edge">
<title>Node6&#45;&gt;Node17</title>
<path fill="none" stroke="#191970" d="M537.0129,-229.3218C619.1843,-219.4683 810.4347,-196.5346 907.0049,-184.9545"/>
<polygon fill="#191970" stroke="#191970" points="907.662,-188.4008 917.1741,-183.735 906.8285,-181.4506 907.662,-188.4008"/>
</g>
<!-- Node7&#45;&gt;Node3 -->
<g id="edge13" class="edge">
<title>Node7&#45;&gt;Node3</title>
<path fill="none" stroke="#191970" d="M530.6513,-168.3887C578.7951,-153.3165 670.5153,-121.1114 739,-76 760.591,-61.7778 782.3179,-41.5271 796.59,-27.2164"/>
<polygon fill="#191970" stroke="#191970" points="799.207,-29.5464 803.7037,-19.9531 794.2061,-24.6483 799.207,-29.5464"/>
</g>
<!-- Node7&#45;&gt;Node4 -->
<g id="edge24" class="edge">
<title>Node7&#45;&gt;Node4</title>
<path fill="none" stroke="#191970" d="M453.2699,-174.4498C408.4018,-169.5323 338.2232,-158.0848 283,-132 257.2005,-119.8136 232.2184,-98.1924 216.52,-83.0268"/>
<polygon fill="#191970" stroke="#191970" points="218.7667,-80.3256 209.2018,-75.7688 213.8374,-85.2957 218.7667,-80.3256"/>
</g>
<!-- Node8 -->
<g id="node9" class="node">
<title>Node8</title>
<g id="a_node9"><a xlink:href="assert_8h.html" target="_top" xlink:title="POSIX.1&#45;2008 compliant version of the assert macro. ">
<polygon fill="#ffffff" stroke="#000000" points="786,-56.5 786,-75.5 840,-75.5 840,-56.5 786,-56.5"/>
<text text-anchor="middle" x="813" y="-63.5" font-family="Helvetica,sans-Serif" font-size="10.00" fill="#000000">assert.h</text>
</a>
</g>
</g>
<!-- Node7&#45;&gt;Node8 -->
<g id="edge10" class="edge">
<title>Node7&#45;&gt;Node8</title>
<path fill="none" stroke="#191970" d="M542.764,-174.5328C609.3331,-168.6852 730.5024,-155.1748 767,-132 784.6031,-120.8226 797.3194,-100.2349 804.8618,-85.0145"/>
<polygon fill="#191970" stroke="#191970" points="808.0379,-86.4849 809.0704,-75.9405 801.6877,-83.5396 808.0379,-86.4849"/>
</g>
<!-- Node9 -->
<g id="node10" class="node">
<title>Node9</title>
<polygon fill="#ffffff" stroke="#bfbfbf" points="356,-56.5 356,-75.5 416,-75.5 416,-56.5 356,-56.5"/>
<text text-anchor="middle" x="386" y="-63.5" font-family="Helvetica,sans-Serif" font-size="10.00" fill="#000000">stdbool.h</text>
</g>
<!-- Node7&#45;&gt;Node9 -->
<g id="edge12" class="edge">
<title>Node7&#45;&gt;Node9</title>
<path fill="none" stroke="#191970" d="M497.6085,-168.3585C496.5626,-154.4099 492.7588,-128.4724 479,-112 465.2334,-95.5183 444.1196,-84.4114 425.4873,-77.2476"/>
<polygon fill="#191970" stroke="#191970" points="426.6167,-73.9344 416.0222,-73.8533 424.2537,-80.5235 426.6167,-73.9344"/>
</g>
<!-- Node10 -->
<g id="node11" class="node">
<title>Node10</title>
<g id="a_node11"><a xlink:href="architecture_8h.html" target="_top" xlink:title="Platform&#45;independent access to architecture details. ">
<polygon fill="#ffffff" stroke="#000000" points="526.5,-112.5 526.5,-131.5 609.5,-131.5 609.5,-112.5 526.5,-112.5"/>
<text text-anchor="middle" x="568" y="-119.5" font-family="Helvetica,sans-Serif" font-size="10.00" fill="#000000">architecture.h</text>
</a>
</g>
</g>
<!-- Node7&#45;&gt;Node10 -->
<g id="edge14" class="edge">
<title>Node7&#45;&gt;Node10</title>
<path fill="none" stroke="#191970" d="M510.1931,-168.2455C520.6321,-159.8943 535.8655,-147.7076 548.074,-137.9408"/>
<polygon fill="#191970" stroke="#191970" points="550.3244,-140.6227 555.9467,-131.6427 545.9515,-135.1566 550.3244,-140.6227"/>
</g>
<!-- Node14 -->
<g id="node15" class="node">
<title>Node14</title>
<g id="a_node15"><a xlink:href="drivers_2include_2periph_2gpio_8h.html" target="_top" xlink:title="Low&#45;level GPIO peripheral driver interface definitions. ">
<polygon fill="#ffffff" stroke="#000000" points="390,-112.5 390,-131.5 470,-131.5 470,-112.5 390,-112.5"/>
<text text-anchor="middle" x="430" y="-119.5" font-family="Helvetica,sans-Serif" font-size="10.00" fill="#000000">periph/gpio.h</text>
</a>
</g>
</g>
<!-- Node7&#45;&gt;Node14 -->
<g id="edge19" class="edge">
<title>Node7&#45;&gt;Node14</title>
<path fill="none" stroke="#191970" d="M486.1553,-168.2455C476.112,-159.9746 461.5005,-147.9416 449.6996,-138.2232"/>
<polygon fill="#191970" stroke="#191970" points="451.6533,-135.298 441.709,-131.6427 447.2033,-140.7015 451.6533,-135.298"/>
</g>
<!-- Node16 -->
<g id="node17" class="node">
<title>Node16</title>
<polygon fill="#ffffff" stroke="#bfbfbf" points="292,-112.5 292,-131.5 372,-131.5 372,-112.5 292,-112.5"/>
<text text-anchor="middle" x="332" y="-119.5" font-family="Helvetica,sans-Serif" font-size="10.00" fill="#000000">gpio_ll_arch.h</text>
</g>
<!-- Node7&#45;&gt;Node16 -->
<g id="edge25" class="edge">
<title>Node7&#45;&gt;Node16</title>
<path fill="none" stroke="#191970" d="M469.4636,-168.3733C441.9798,-159.1016 400.2314,-145.0178 369.9548,-134.804"/>
<polygon fill="#191970" stroke="#191970" points="370.7582,-131.3813 360.164,-131.5011 368.5206,-138.0141 370.7582,-131.3813"/>
</g>
<!-- Node8&#45;&gt;Node3 -->
<g id="edge11" class="edge">
<title>Node8&#45;&gt;Node3</title>
<path fill="none" stroke="#191970" d="M813,-56.2455C813,-48.9382 813,-38.6944 813,-29.7046"/>
<polygon fill="#191970" stroke="#191970" points="816.5001,-29.6426 813,-19.6427 809.5001,-29.6427 816.5001,-29.6426"/>
</g>
<!-- Node10&#45;&gt;Node3 -->
<g id="edge15" class="edge">
<title>Node10&#45;&gt;Node3</title>
<path fill="none" stroke="#191970" d="M578.5588,-112.3388C594.6021,-98.1272 626.5844,-71.5891 658,-56 696.5708,-36.8602 744.5711,-24.1415 776.8512,-17.0209"/>
<polygon fill="#191970" stroke="#191970" points="777.7005,-20.4185 786.7475,-14.9047 776.2366,-13.5732 777.7005,-20.4185"/>
</g>
<!-- Node11 -->
<g id="node12" class="node">
<title>Node11</title>
<g id="a_node12"><a xlink:href="inttypes_8h.html" target="_top" xlink:title="Adds include for missing inttype definitions. ">
<polygon fill="#ffffff" stroke="#000000" points="666.5,-56.5 666.5,-75.5 729.5,-75.5 729.5,-56.5 666.5,-56.5"/>
<text text-anchor="middle" x="698" y="-63.5" font-family="Helvetica,sans-Serif" font-size="10.00" fill="#000000">inttypes.h</text>
</a>
</g>
</g>
<!-- Node10&#45;&gt;Node11 -->
<g id="edge16" class="edge">
<title>Node10&#45;&gt;Node11</title>
<path fill="none" stroke="#191970" d="M590.3478,-112.3733C611.4033,-103.3032 643.1495,-89.6279 666.7175,-79.4755"/>
<polygon fill="#191970" stroke="#191970" points="668.1444,-82.6719 675.9438,-75.5011 665.375,-76.243 668.1444,-82.6719"/>
</g>
<!-- Node12 -->
<g id="node13" class="node">
<title>Node12</title>
<polygon fill="#ffffff" stroke="#bfbfbf" points="434,-56.5 434,-75.5 484,-75.5 484,-56.5 434,-56.5"/>
<text text-anchor="middle" x="459" y="-63.5" font-family="Helvetica,sans-Serif" font-size="10.00" fill="#000000">limits.h</text>
</g>
<!-- Node10&#45;&gt;Node12 -->
<g id="edge17" class="edge">
<title>Node10&#45;&gt;Node12</title>
<path fill="none" stroke="#191970" d="M549.0136,-112.2455C531.8208,-103.4125 506.2762,-90.2887 486.7868,-80.2758"/>
<polygon fill="#191970" stroke="#191970" points="488.263,-77.0993 477.7688,-75.6427 485.0641,-83.3257 488.263,-77.0993"/>
</g>
<!-- Node13 -->
<g id="node14" class="node">
<title>Node13</title>
<polygon fill="#ffffff" stroke="#bfbfbf" points="502.5,-56.5 502.5,-75.5 609.5,-75.5 609.5,-56.5 502.5,-56.5"/>
<text text-anchor="middle" x="556" y="-63.5" font-family="Helvetica,sans-Serif" font-size="10.00" fill="#000000">architecture_arch.h</text>
</g>
<!-- Node10&#45;&gt;Node13 -->
<g id="edge18" class="edge">
<title>Node10&#45;&gt;Node13</title>
<path fill="none" stroke="#191970" d="M565.9098,-112.2455C564.3439,-104.9382 562.1488,-94.6944 560.2224,-85.7046"/>
<polygon fill="#191970" stroke="#191970" points="563.584,-84.6873 558.0663,-75.6427 556.7393,-86.1541 563.584,-84.6873"/>
</g>
<!-- Node14&#45;&gt;Node4 -->
<g id="edge22" class="edge">
<title>Node14&#45;&gt;Node4</title>
<path fill="none" stroke="#191970" d="M390.7229,-112.4369C351.4068,-102.8643 290.8342,-88.1162 248.5326,-77.8166"/>
<polygon fill="#191970" stroke="#191970" points="249.2756,-74.3954 238.7314,-75.4303 247.6196,-81.1967 249.2756,-74.3954"/>
</g>
<!-- Node14&#45;&gt;Node9 -->
<g id="edge21" class="edge">
<title>Node14&#45;&gt;Node9</title>
<path fill="none" stroke="#191970" d="M422.3358,-112.2455C416.1527,-104.3761 407.2937,-93.101 399.8711,-83.6542"/>
<polygon fill="#191970" stroke="#191970" points="402.5068,-81.3435 393.5764,-75.6427 397.0025,-85.6683 402.5068,-81.3435"/>
</g>
<!-- Node14&#45;&gt;Node12 -->
<g id="edge20" class="edge">
<title>Node14&#45;&gt;Node12</title>
<path fill="none" stroke="#191970" d="M435.0514,-112.2455C439.0019,-104.617 444.6097,-93.7881 449.4058,-84.5267"/>
<polygon fill="#191970" stroke="#191970" points="452.5159,-86.1321 454.0065,-75.6427 446.2999,-82.9131 452.5159,-86.1321"/>
</g>
<!-- Node15 -->
<g id="node16" class="node">
<title>Node15</title>
<polygon fill="#ffffff" stroke="#bfbfbf" points="256.5,-56.5 256.5,-75.5 337.5,-75.5 337.5,-56.5 256.5,-56.5"/>
<text text-anchor="middle" x="297" y="-63.5" font-family="Helvetica,sans-Serif" font-size="10.00" fill="#000000">periph_conf.h</text>
</g>
<!-- Node14&#45;&gt;Node15 -->
<g id="edge23" class="edge">
<title>Node14&#45;&gt;Node15</title>
<path fill="none" stroke="#191970" d="M407.1365,-112.3733C385.595,-103.3032 353.1162,-89.6279 329.0044,-79.4755"/>
<polygon fill="#191970" stroke="#191970" points="330.1397,-76.156 319.5652,-75.5011 327.4233,-82.6075 330.1397,-76.156"/>
</g>
<!-- Node18 -->
<g id="node19" class="node">
<title>Node18</title>
<g id="a_node19"><a xlink:href="modules_8h.html" target="_top" xlink:title="Common macros and compiler attributes/pragmas configuration. ">
<polygon fill="#ffffff" stroke="#000000" points="1017.5,-112.5 1017.5,-131.5 1082.5,-131.5 1082.5,-112.5 1017.5,-112.5"/>
<text text-anchor="middle" x="1050" y="-119.5" font-family="Helvetica,sans-Serif" font-size="10.00" fill="#000000">modules.h</text>
</a>
</g>
</g>
<!-- Node17&#45;&gt;Node18 -->
<g id="edge27" class="edge">
<title>Node17&#45;&gt;Node18</title>
<path fill="none" stroke="#191970" d="M979.8059,-168.2455C992.7256,-159.7337 1011.6931,-147.2375 1026.6552,-137.3801"/>
<polygon fill="#191970" stroke="#191970" points="1028.9387,-140.067 1035.3638,-131.6427 1025.0876,-134.2216 1028.9387,-140.067"/>
</g>
<!-- Node19 -->
<g id="node20" class="node">
<title>Node19</title>
<g id="a_node20"><a xlink:href="riot__version_8h.html" target="_top" xlink:title="Common macros and compiler attributes/pragmas configuration. ">
<polygon fill="#ffffff" stroke="#000000" points="1100.5,-112.5 1100.5,-131.5 1181.5,-131.5 1181.5,-112.5 1100.5,-112.5"/>
<text text-anchor="middle" x="1141" y="-119.5" font-family="Helvetica,sans-Serif" font-size="10.00" fill="#000000">riot_version.h</text>
</a>
</g>
</g>
<!-- Node17&#45;&gt;Node19 -->
<g id="edge28" class="edge">
<title>Node17&#45;&gt;Node19</title>
<path fill="none" stroke="#191970" d="M995.2555,-168.3733C1024.6483,-159.021 1069.4292,-144.7725 1101.5934,-134.5385"/>
<polygon fill="#191970" stroke="#191970" points="1102.6713,-137.8685 1111.1393,-131.5011 1100.5488,-131.198 1102.6713,-137.8685"/>
</g>
<!-- Node20 -->
<g id="node21" class="node">
<title>Node20</title>
<g id="a_node21"><a xlink:href="compiler__hints_8h.html" target="_top" xlink:title="Common macros and compiler attributes/pragmas configuration. ">
<polygon fill="#ffffff" stroke="#000000" points="819.5,-112.5 819.5,-131.5 912.5,-131.5 912.5,-112.5 819.5,-112.5"/>
<text text-anchor="middle" x="866" y="-119.5" font-family="Helvetica,sans-Serif" font-size="10.00" fill="#000000">compiler_hints.h</text>
</a>
</g>
</g>
<!-- Node17&#45;&gt;Node20 -->
<g id="edge30" class="edge">
<title>Node17&#45;&gt;Node20</title>
<path fill="none" stroke="#191970" d="M947.7555,-168.2455C932.4239,-159.5731 909.7801,-146.7645 892.2084,-136.825"/>
<polygon fill="#191970" stroke="#191970" points="893.4741,-133.5198 883.0469,-131.6427 890.0276,-139.6126 893.4741,-133.5198"/>
</g>
<!-- Node21 -->
<g id="node22" class="node">
<title>Node21</title>
<g id="a_node22"><a xlink:href="container_8h.html" target="_top" xlink:title="Common macros and compiler attributes/pragmas configuration. ">
<polygon fill="#ffffff" stroke="#000000" points="930.5,-112.5 930.5,-131.5 999.5,-131.5 999.5,-112.5 930.5,-112.5"/>
<text text-anchor="middle" x="965" y="-119.5" font-family="Helvetica,sans-Serif" font-size="10.00" fill="#000000">container.h</text>
</a>
</g>
</g>
<!-- Node17&#45;&gt;Node21 -->
<g id="edge33" class="edge">
<title>Node17&#45;&gt;Node21</title>
<path fill="none" stroke="#191970" d="M965,-168.2455C965,-160.9382 965,-150.6944 965,-141.7046"/>
<polygon fill="#191970" stroke="#191970" points="968.5001,-141.6426 965,-131.6427 961.5001,-141.6427 968.5001,-141.6426"/>
</g>
<!-- Node19&#45;&gt;Node3 -->
<g id="edge29" class="edge">
<title>Node19&#45;&gt;Node3</title>
<path fill="none" stroke="#191970" d="M1123.9325,-112.4888C1098.1852,-98.4685 1047.5681,-72.1716 1002,-56 950.2187,-37.6234 887.9138,-24.0246 849.3783,-16.5534"/>
<polygon fill="#191970" stroke="#191970" points="849.6462,-13.0417 839.1681,-14.6098 848.3372,-19.9182 849.6462,-13.0417"/>
</g>
<!-- Node20&#45;&gt;Node3 -->
<g id="edge32" class="edge">
<title>Node20&#45;&gt;Node3</title>
<path fill="none" stroke="#191970" d="M864.7551,-112.1645C862.7909,-98.8691 858.2092,-74.678 849,-56 843.9409,-45.7391 836.3496,-35.5887 829.4404,-27.444"/>
<polygon fill="#191970" stroke="#191970" points="831.8777,-24.9175 822.6218,-19.7619 826.6425,-29.5643 831.8777,-24.9175"/>
</g>
<!-- Node20&#45;&gt;Node8 -->
<g id="edge31" class="edge">
<title>Node20&#45;&gt;Node8</title>
<path fill="none" stroke="#191970" d="M856.7681,-112.2455C849.1683,-104.2155 838.2123,-92.6394 829.1632,-83.0781"/>
<polygon fill="#191970" stroke="#191970" points="831.542,-80.4998 822.1261,-75.6427 826.4579,-85.3115 831.542,-80.4998"/>
</g>
<!-- Node21&#45;&gt;Node3 -->
<g id="edge35" class="edge">
<title>Node21&#45;&gt;Node3</title>
<path fill="none" stroke="#191970" d="M952.0406,-112.4509C925.7914,-93.1094 866.1274,-49.1465 834.1584,-25.5904"/>
<polygon fill="#191970" stroke="#191970" points="836.0534,-22.6392 825.9266,-19.5249 831.901,-28.2746 836.0534,-22.6392"/>
</g>
<!-- Node22 -->
<g id="node23" class="node">
<title>Node22</title>
<polygon fill="#ffffff" stroke="#bfbfbf" points="937,-56.5 937,-75.5 993,-75.5 993,-56.5 937,-56.5"/>
<text text-anchor="middle" x="965" y="-63.5" font-family="Helvetica,sans-Serif" font-size="10.00" fill="#000000">stddef.h</text>
</g>
<!-- Node21&#45;&gt;Node22 -->
<g id="edge34" class="edge">
<title>Node21&#45;&gt;Node22</title>
<path fill="none" stroke="#191970" d="M965,-112.2455C965,-104.9382 965,-94.6944 965,-85.7046"/>
<polygon fill="#191970" stroke="#191970" points="968.5001,-85.6426 965,-75.6427 961.5001,-85.6427 968.5001,-85.6426"/>
</g>
</g>
</svg>
