<?xml version="1.0" encoding="UTF-8" standalone="no"?>
<!DOCTYPE svg PUBLIC "-//W3C//DTD SVG 1.1//EN"
 "http://www.w3.org/Graphics/SVG/1.1/DTD/svg11.dtd">
<!-- Generated by graphviz version 2.40.1 (0)
 -->
<!-- Title: sys/include/net/wifi_scan_list.h Pages: 1 -->
<svg width="504pt" height="319pt"
 viewBox="0.00 0.00 503.50 319.00" xmlns="http://www.w3.org/2000/svg" xmlns:xlink="http://www.w3.org/1999/xlink">
<g id="graph0" class="graph" transform="scale(1 1) rotate(0) translate(4 315)">
<title>sys/include/net/wifi_scan_list.h</title>
<polygon fill="#ffffff" stroke="transparent" points="-4,4 -4,-315 499.5,-315 499.5,4 -4,4"/>
<!-- Node0 -->
<g id="node1" class="node">
<title>Node0</title>
<polygon fill="#bfbfbf" stroke="#000000" points="39.5,-280.5 39.5,-310.5 146.5,-310.5 146.5,-280.5 39.5,-280.5"/>
<text text-anchor="start" x="47.5" y="-298.5" font-family="Helvetica,sans-Serif" font-size="10.00" fill="#000000">sys/include/net/wifi</text>
<text text-anchor="middle" x="93" y="-287.5" font-family="Helvetica,sans-Serif" font-size="10.00" fill="#000000">_scan_list.h</text>
</g>
<!-- Node1 -->
<g id="node2" class="node">
<title>Node1</title>
<polygon fill="#ffffff" stroke="#bfbfbf" points="9,-224.5 9,-243.5 65,-243.5 65,-224.5 9,-224.5"/>
<text text-anchor="middle" x="37" y="-231.5" font-family="Helvetica,sans-Serif" font-size="10.00" fill="#000000">stddef.h</text>
</g>
<!-- Node0&#45;&gt;Node1 -->
<g id="edge1" class="edge">
<title>Node0&#45;&gt;Node1</title>
<path fill="none" stroke="#191970" d="M79.1573,-280.2977C71.141,-271.4941 61.0238,-260.3833 52.71,-251.2529"/>
<polygon fill="#191970" stroke="#191970" points="55.2869,-248.8845 45.9663,-243.8469 50.1112,-253.5974 55.2869,-248.8845"/>
</g>
<!-- Node2 -->
<g id="node3" class="node">
<title>Node2</title>
<g id="a_node3"><a xlink:href="l2scan__list_8h.html" target="_top" xlink:title="L2 Scan list API. ">
<polygon fill="#ffffff" stroke="#000000" points="57.5,-168.5 57.5,-187.5 128.5,-187.5 128.5,-168.5 57.5,-168.5"/>
<text text-anchor="middle" x="93" y="-175.5" font-family="Helvetica,sans-Serif" font-size="10.00" fill="#000000">l2scan_list.h</text>
</a>
</g>
</g>
<!-- Node0&#45;&gt;Node2 -->
<g id="edge2" class="edge">
<title>Node0&#45;&gt;Node2</title>
<path fill="none" stroke="#191970" d="M93,-280.1389C93,-258.9692 93,-220.8174 93,-197.6112"/>
<polygon fill="#191970" stroke="#191970" points="96.5001,-197.5594 93,-187.5595 89.5001,-197.5595 96.5001,-197.5594"/>
</g>
<!-- Node8 -->
<g id="node9" class="node">
<title>Node8</title>
<g id="a_node9"><a xlink:href="drivers_2include_2net_2netdev_2wifi_8h.html" target="_top" xlink:title="Definitions for netdev common Wi&#45;Fi code. ">
<polygon fill="#ffffff" stroke="#000000" points="121,-224.5 121,-243.5 219,-243.5 219,-224.5 121,-224.5"/>
<text text-anchor="middle" x="170" y="-231.5" font-family="Helvetica,sans-Serif" font-size="10.00" fill="#000000">net/netdev/wifi.h</text>
</a>
</g>
</g>
<!-- Node0&#45;&gt;Node8 -->
<g id="edge8" class="edge">
<title>Node0&#45;&gt;Node8</title>
<path fill="none" stroke="#191970" d="M112.0337,-280.2977C123.5015,-271.1384 138.0962,-259.4816 149.7719,-250.1562"/>
<polygon fill="#191970" stroke="#191970" points="152.0419,-252.8225 157.6713,-243.8469 147.6734,-247.3529 152.0419,-252.8225"/>
</g>
<!-- Node3 -->
<g id="node4" class="node">
<title>Node3</title>
<polygon fill="#ffffff" stroke="#bfbfbf" points="0,-112.5 0,-131.5 50,-131.5 50,-112.5 0,-112.5"/>
<text text-anchor="middle" x="25" y="-119.5" font-family="Helvetica,sans-Serif" font-size="10.00" fill="#000000">stdlib.h</text>
</g>
<!-- Node2&#45;&gt;Node3 -->
<g id="edge3" class="edge">
<title>Node2&#45;&gt;Node3</title>
<path fill="none" stroke="#191970" d="M81.1553,-168.2455C71.112,-159.9746 56.5005,-147.9416 44.6996,-138.2232"/>
<polygon fill="#191970" stroke="#191970" points="46.6533,-135.298 36.709,-131.6427 42.2033,-140.7015 46.6533,-135.298"/>
</g>
<!-- Node4 -->
<g id="node5" class="node">
<title>Node4</title>
<g id="a_node5"><a xlink:href="list_8h.html" target="_top" xlink:title="Intrusive linked list. ">
<polygon fill="#ffffff" stroke="#000000" points="68,-112.5 68,-131.5 106,-131.5 106,-112.5 68,-112.5"/>
<text text-anchor="middle" x="87" y="-119.5" font-family="Helvetica,sans-Serif" font-size="10.00" fill="#000000">list.h</text>
</a>
</g>
</g>
<!-- Node2&#45;&gt;Node4 -->
<g id="edge4" class="edge">
<title>Node2&#45;&gt;Node4</title>
<path fill="none" stroke="#191970" d="M91.9549,-168.2455C91.172,-160.9382 90.0744,-150.6944 89.1112,-141.7046"/>
<polygon fill="#191970" stroke="#191970" points="92.5786,-141.2129 88.0331,-131.6427 85.6185,-141.9587 92.5786,-141.2129"/>
</g>
<!-- Node5 -->
<g id="node6" class="node">
<title>Node5</title>
<g id="a_node6"><a xlink:href="netopt_8h.html" target="_top" xlink:title="Definition of global configuration options. ">
<polygon fill="#ffffff" stroke="#000000" points="124.5,-112.5 124.5,-131.5 201.5,-131.5 201.5,-112.5 124.5,-112.5"/>
<text text-anchor="middle" x="163" y="-119.5" font-family="Helvetica,sans-Serif" font-size="10.00" fill="#000000">net/netopt.h</text>
</a>
</g>
</g>
<!-- Node2&#45;&gt;Node5 -->
<g id="edge5" class="edge">
<title>Node2&#45;&gt;Node5</title>
<path fill="none" stroke="#191970" d="M105.1931,-168.2455C115.6321,-159.8943 130.8655,-147.7076 143.074,-137.9408"/>
<polygon fill="#191970" stroke="#191970" points="145.3244,-140.6227 150.9467,-131.6427 140.9515,-135.1566 145.3244,-140.6227"/>
</g>
<!-- Node6 -->
<g id="node7" class="node">
<title>Node6</title>
<polygon fill="#ffffff" stroke="#bfbfbf" points="288,-.5 288,-19.5 340,-19.5 340,-.5 288,-.5"/>
<text text-anchor="middle" x="314" y="-7.5" font-family="Helvetica,sans-Serif" font-size="10.00" fill="#000000">stdint.h</text>
</g>
<!-- Node5&#45;&gt;Node6 -->
<g id="edge6" class="edge">
<title>Node5&#45;&gt;Node6</title>
<path fill="none" stroke="#191970" d="M157.5578,-112.4065C150.4851,-98.5176 140.438,-72.6539 153,-56 167.9998,-36.1143 235.0641,-22.2388 277.7658,-15.238"/>
<polygon fill="#191970" stroke="#191970" points="278.461,-18.6716 287.7886,-13.647 277.3635,-11.7581 278.461,-18.6716"/>
</g>
<!-- Node7 -->
<g id="node8" class="node">
<title>Node7</title>
<polygon fill="#ffffff" stroke="#bfbfbf" points="162,-56.5 162,-75.5 222,-75.5 222,-56.5 162,-56.5"/>
<text text-anchor="middle" x="192" y="-63.5" font-family="Helvetica,sans-Serif" font-size="10.00" fill="#000000">stdbool.h</text>
</g>
<!-- Node5&#45;&gt;Node7 -->
<g id="edge7" class="edge">
<title>Node5&#45;&gt;Node7</title>
<path fill="none" stroke="#191970" d="M168.0514,-112.2455C172.0019,-104.617 177.6097,-93.7881 182.4058,-84.5267"/>
<polygon fill="#191970" stroke="#191970" points="185.5159,-86.1321 187.0065,-75.6427 179.2999,-82.9131 185.5159,-86.1321"/>
</g>
<!-- Node8&#45;&gt;Node2 -->
<g id="edge21" class="edge">
<title>Node8&#45;&gt;Node2</title>
<path fill="none" stroke="#191970" d="M156.5876,-224.2455C144.9943,-215.814 128.0252,-203.4729 114.5322,-193.6598"/>
<polygon fill="#191970" stroke="#191970" points="116.4047,-190.6938 106.2587,-187.6427 112.2874,-196.355 116.4047,-190.6938"/>
</g>
<!-- Node8&#45;&gt;Node5 -->
<g id="edge18" class="edge">
<title>Node8&#45;&gt;Node5</title>
<path fill="none" stroke="#191970" d="M169.4032,-224.4509C168.2615,-206.184 165.7472,-165.9553 164.2311,-141.6976"/>
<polygon fill="#191970" stroke="#191970" points="167.7124,-141.2871 163.5953,-131.5249 160.726,-141.7238 167.7124,-141.2871"/>
</g>
<!-- Node9 -->
<g id="node10" class="node">
<title>Node9</title>
<g id="a_node10"><a xlink:href="net_2ethernet_2hdr_8h.html" target="_top" xlink:title="Ethernet header definitions. ">
<polygon fill="#ffffff" stroke="#000000" points="270.5,-168.5 270.5,-187.5 377.5,-187.5 377.5,-168.5 270.5,-168.5"/>
<text text-anchor="middle" x="324" y="-175.5" font-family="Helvetica,sans-Serif" font-size="10.00" fill="#000000">net/ethernet/hdr.h</text>
</a>
</g>
</g>
<!-- Node8&#45;&gt;Node9 -->
<g id="edge9" class="edge">
<title>Node8&#45;&gt;Node9</title>
<path fill="none" stroke="#191970" d="M196.4735,-224.3733C221.8597,-215.1419 260.3645,-201.1402 288.422,-190.9375"/>
<polygon fill="#191970" stroke="#191970" points="289.6701,-194.2079 297.8719,-187.5011 287.2778,-187.6293 289.6701,-194.2079"/>
</g>
<!-- Node15 -->
<g id="node16" class="node">
<title>Node15</title>
<g id="a_node16"><a xlink:href="sys_2include_2net_2wifi_8h.html" target="_top" xlink:title="Definitions for Wi&#45;Fi. ">
<polygon fill="#ffffff" stroke="#000000" points="191.5,-168.5 191.5,-187.5 252.5,-187.5 252.5,-168.5 191.5,-168.5"/>
<text text-anchor="middle" x="222" y="-175.5" font-family="Helvetica,sans-Serif" font-size="10.00" fill="#000000">net/wifi.h</text>
</a>
</g>
</g>
<!-- Node8&#45;&gt;Node15 -->
<g id="edge19" class="edge">
<title>Node8&#45;&gt;Node15</title>
<path fill="none" stroke="#191970" d="M179.0577,-224.2455C186.5142,-216.2155 197.2634,-204.6394 206.1417,-195.0781"/>
<polygon fill="#191970" stroke="#191970" points="208.8063,-197.3522 213.0461,-187.6427 203.6768,-192.589 208.8063,-197.3522"/>
</g>
<!-- Node10 -->
<g id="node11" class="node">
<title>Node10</title>
<g id="a_node11"><a xlink:href="inttypes_8h.html" target="_top" xlink:title="Adds include for missing inttype definitions. ">
<polygon fill="#ffffff" stroke="#000000" points="219.5,-112.5 219.5,-131.5 282.5,-131.5 282.5,-112.5 219.5,-112.5"/>
<text text-anchor="middle" x="251" y="-119.5" font-family="Helvetica,sans-Serif" font-size="10.00" fill="#000000">inttypes.h</text>
</a>
</g>
</g>
<!-- Node9&#45;&gt;Node10 -->
<g id="edge10" class="edge">
<title>Node9&#45;&gt;Node10</title>
<path fill="none" stroke="#191970" d="M311.2844,-168.2455C300.398,-159.8943 284.5117,-147.7076 271.78,-137.9408"/>
<polygon fill="#191970" stroke="#191970" points="273.6346,-134.9523 263.5699,-131.6427 269.3739,-140.5063 273.6346,-134.9523"/>
</g>
<!-- Node11 -->
<g id="node12" class="node">
<title>Node11</title>
<g id="a_node12"><a xlink:href="byteorder_8h.html" target="_top" xlink:title="Functions to work with different byte orders. ">
<polygon fill="#ffffff" stroke="#000000" points="300.5,-112.5 300.5,-131.5 373.5,-131.5 373.5,-112.5 300.5,-112.5"/>
<text text-anchor="middle" x="337" y="-119.5" font-family="Helvetica,sans-Serif" font-size="10.00" fill="#000000">byteorder.h</text>
</a>
</g>
</g>
<!-- Node9&#45;&gt;Node11 -->
<g id="edge11" class="edge">
<title>Node9&#45;&gt;Node11</title>
<path fill="none" stroke="#191970" d="M326.2644,-168.2455C327.9794,-160.8579 330.3912,-150.4689 332.4944,-141.4087"/>
<polygon fill="#191970" stroke="#191970" points="335.9095,-142.1751 334.7615,-131.6427 329.0908,-140.5922 335.9095,-142.1751"/>
</g>
<!-- Node11&#45;&gt;Node6 -->
<g id="edge13" class="edge">
<title>Node11&#45;&gt;Node6</title>
<path fill="none" stroke="#191970" d="M312.5288,-112.3462C297.2893,-104.9011 278.9388,-92.9799 270,-76 260.6361,-58.2126 276.2557,-39.2518 291.4126,-26.2388"/>
<polygon fill="#191970" stroke="#191970" points="294.0038,-28.6479 299.6238,-19.6665 289.6295,-23.1829 294.0038,-28.6479"/>
</g>
<!-- Node12 -->
<g id="node13" class="node">
<title>Node12</title>
<polygon fill="#ffffff" stroke="#bfbfbf" points="278.5,-56.5 278.5,-75.5 331.5,-75.5 331.5,-56.5 278.5,-56.5"/>
<text text-anchor="middle" x="305" y="-63.5" font-family="Helvetica,sans-Serif" font-size="10.00" fill="#000000">string.h</text>
</g>
<!-- Node11&#45;&gt;Node12 -->
<g id="edge12" class="edge">
<title>Node11&#45;&gt;Node12</title>
<path fill="none" stroke="#191970" d="M331.426,-112.2455C327.0669,-104.617 320.8789,-93.7881 315.5867,-84.5267"/>
<polygon fill="#191970" stroke="#191970" points="318.5104,-82.5886 310.5101,-75.6427 312.4327,-86.0616 318.5104,-82.5886"/>
</g>
<!-- Node13 -->
<g id="node14" class="node">
<title>Node13</title>
<g id="a_node14"><a xlink:href="endian_8h.html" target="_top" xlink:title="libc header for endian conversion ">
<polygon fill="#ffffff" stroke="#000000" points="349.5,-56.5 349.5,-75.5 406.5,-75.5 406.5,-56.5 349.5,-56.5"/>
<text text-anchor="middle" x="378" y="-63.5" font-family="Helvetica,sans-Serif" font-size="10.00" fill="#000000">endian.h</text>
</a>
</g>
</g>
<!-- Node11&#45;&gt;Node13 -->
<g id="edge14" class="edge">
<title>Node11&#45;&gt;Node13</title>
<path fill="none" stroke="#191970" d="M344.1417,-112.2455C349.8444,-104.4564 357.99,-93.3308 364.8625,-83.9439"/>
<polygon fill="#191970" stroke="#191970" points="367.8568,-85.7789 370.9402,-75.6427 362.2087,-81.6437 367.8568,-85.7789"/>
</g>
<!-- Node14 -->
<g id="node15" class="node">
<title>Node14</title>
<g id="a_node15"><a xlink:href="unaligned_8h.html" target="_top" xlink:title="Unaligned but safe memory access functions. ">
<polygon fill="#ffffff" stroke="#000000" points="424.5,-56.5 424.5,-75.5 495.5,-75.5 495.5,-56.5 424.5,-56.5"/>
<text text-anchor="middle" x="460" y="-63.5" font-family="Helvetica,sans-Serif" font-size="10.00" fill="#000000">unaligned.h</text>
</a>
</g>
</g>
<!-- Node11&#45;&gt;Node14 -->
<g id="edge16" class="edge">
<title>Node11&#45;&gt;Node14</title>
<path fill="none" stroke="#191970" d="M358.1445,-112.3733C377.8892,-103.3838 407.5698,-89.8706 429.8055,-79.7471"/>
<polygon fill="#191970" stroke="#191970" points="431.4806,-82.8302 439.1315,-75.5011 428.58,-76.4594 431.4806,-82.8302"/>
</g>
<!-- Node13&#45;&gt;Node6 -->
<g id="edge15" class="edge">
<title>Node13&#45;&gt;Node6</title>
<path fill="none" stroke="#191970" d="M366.8521,-56.2455C357.4913,-48.0549 343.9142,-36.1749 332.8651,-26.5069"/>
<polygon fill="#191970" stroke="#191970" points="334.8508,-23.5937 325.0202,-19.6427 330.2412,-28.8618 334.8508,-23.5937"/>
</g>
<!-- Node14&#45;&gt;Node6 -->
<g id="edge17" class="edge">
<title>Node14&#45;&gt;Node6</title>
<path fill="none" stroke="#191970" d="M434.9017,-56.3733C411.0445,-47.2226 374.9665,-33.3844 348.429,-23.2057"/>
<polygon fill="#191970" stroke="#191970" points="349.361,-19.8145 338.7708,-19.5011 346.8541,-26.3503 349.361,-19.8145"/>
</g>
<!-- Node15&#45;&gt;Node10 -->
<g id="edge20" class="edge">
<title>Node15&#45;&gt;Node10</title>
<path fill="none" stroke="#191970" d="M227.0514,-168.2455C231.0019,-160.617 236.6097,-149.7881 241.4058,-140.5267"/>
<polygon fill="#191970" stroke="#191970" points="244.5159,-142.1321 246.0065,-131.6427 238.2999,-138.9131 244.5159,-142.1321"/>
</g>
</g>
</svg>
