<?xml version="1.0" encoding="UTF-8" standalone="no"?>
<!DOCTYPE svg PUBLIC "-//W3C//DTD SVG 1.1//EN"
 "http://www.w3.org/Graphics/SVG/1.1/DTD/svg11.dtd">
<!-- Generated by graphviz version 2.40.1 (0)
 -->
<!-- Title: drivers/include/ws281x.h Pages: 1 -->
<svg width="1853pt" height="588pt"
 viewBox="0.00 0.00 1853.00 588.00" xmlns="http://www.w3.org/2000/svg" xmlns:xlink="http://www.w3.org/1999/xlink">
<g id="graph0" class="graph" transform="scale(1 1) rotate(0) translate(4 584)">
<title>drivers/include/ws281x.h</title>
<polygon fill="#ffffff" stroke="transparent" points="-4,4 -4,-584 1849,-584 1849,4 -4,4"/>
<!-- Node0 -->
<g id="node1" class="node">
<title>Node0</title>
<polygon fill="#bfbfbf" stroke="#000000" points="1480,-560.5 1480,-579.5 1614,-579.5 1614,-560.5 1480,-560.5"/>
<text text-anchor="middle" x="1547" y="-567.5" font-family="Helvetica,sans-Serif" font-size="10.00" fill="#000000">drivers/include/ws281x.h</text>
</g>
<!-- Node1 -->
<g id="node2" class="node">
<title>Node1</title>
<polygon fill="#ffffff" stroke="#bfbfbf" points="681,-.5 681,-19.5 733,-19.5 733,-.5 681,-.5"/>
<text text-anchor="middle" x="707" y="-7.5" font-family="Helvetica,sans-Serif" font-size="10.00" fill="#000000">stdint.h</text>
</g>
<!-- Node0&#45;&gt;Node1 -->
<g id="edge1" class="edge">
<title>Node0&#45;&gt;Node1</title>
<path fill="none" stroke="#191970" d="M1552.607,-560.4834C1563.1774,-541.6141 1585,-497.8343 1585,-458 1585,-458 1585,-458 1585,-122 1585,-35.7285 909.3598,-14.6294 743.4549,-10.7489"/>
<polygon fill="#191970" stroke="#191970" points="743.3537,-7.2458 733.2768,-10.5177 743.1947,-14.244 743.3537,-7.2458"/>
</g>
<!-- Node2 -->
<g id="node3" class="node">
<title>Node2</title>
<g id="a_node3"><a xlink:href="color_8h.html" target="_top" xlink:title="Headers for the color handling module. ">
<polygon fill="#ffffff" stroke="#000000" points="0,-392.5 0,-411.5 48,-411.5 48,-392.5 0,-392.5"/>
<text text-anchor="middle" x="24" y="-399.5" font-family="Helvetica,sans-Serif" font-size="10.00" fill="#000000">color.h</text>
</a>
</g>
</g>
<!-- Node0&#45;&gt;Node2 -->
<g id="edge2" class="edge">
<title>Node0&#45;&gt;Node2</title>
<path fill="none" stroke="#191970" d="M1479.9708,-569.0734C1206.4259,-564.7986 183.3572,-543.8291 62,-468 45.2367,-457.5256 35.093,-436.7765 29.5543,-421.3254"/>
<polygon fill="#191970" stroke="#191970" points="32.8379,-420.1042 26.4308,-411.6662 26.1775,-422.258 32.8379,-420.1042"/>
</g>
<!-- Node3 -->
<g id="node4" class="node">
<title>Node3</title>
<g id="a_node4"><a xlink:href="drivers_2include_2periph_2gpio_8h.html" target="_top" xlink:title="Low&#45;level GPIO peripheral driver interface definitions. ">
<polygon fill="#ffffff" stroke="#000000" points="1431,-280.5 1431,-299.5 1511,-299.5 1511,-280.5 1431,-280.5"/>
<text text-anchor="middle" x="1471" y="-287.5" font-family="Helvetica,sans-Serif" font-size="10.00" fill="#000000">periph/gpio.h</text>
</a>
</g>
</g>
<!-- Node0&#45;&gt;Node3 -->
<g id="edge4" class="edge">
<title>Node0&#45;&gt;Node3</title>
<path fill="none" stroke="#191970" d="M1544.3839,-560.3618C1533.4442,-520.0577 1491.2396,-364.5671 1476.2881,-309.4825"/>
<polygon fill="#191970" stroke="#191970" points="1479.6025,-308.3317 1473.6051,-299.5977 1472.8469,-310.1654 1479.6025,-308.3317"/>
</g>
<!-- Node8 -->
<g id="node9" class="node">
<title>Node8</title>
<g id="a_node9"><a xlink:href="ws281x__backend_8h.html" target="_top" xlink:title="Backend configuration for WS2812/SK6812 RGB LEDs. ">
<polygon fill="#ffffff" stroke="#000000" points="1613,-504.5 1613,-523.5 1717,-523.5 1717,-504.5 1613,-504.5"/>
<text text-anchor="middle" x="1665" y="-511.5" font-family="Helvetica,sans-Serif" font-size="10.00" fill="#000000">ws281x_backend.h</text>
</a>
</g>
</g>
<!-- Node0&#45;&gt;Node8 -->
<g id="edge9" class="edge">
<title>Node0&#45;&gt;Node8</title>
<path fill="none" stroke="#191970" d="M1567.2849,-560.3733C1586.1421,-551.4241 1614.446,-537.9917 1635.7455,-527.8835"/>
<polygon fill="#191970" stroke="#191970" points="1637.4461,-530.9506 1644.9798,-523.5011 1634.4449,-524.6266 1637.4461,-530.9506"/>
</g>
<!-- Node9 -->
<g id="node10" class="node">
<title>Node9</title>
<g id="a_node10"><a xlink:href="ws281x__constants_8h.html" target="_top" xlink:title="Constants for WS2812/SK6812 RGB LEDs. ">
<polygon fill="#ffffff" stroke="#000000" points="1735,-504.5 1735,-523.5 1845,-523.5 1845,-504.5 1735,-504.5"/>
<text text-anchor="middle" x="1790" y="-511.5" font-family="Helvetica,sans-Serif" font-size="10.00" fill="#000000">ws281x_constants.h</text>
</a>
</g>
</g>
<!-- Node0&#45;&gt;Node9 -->
<g id="edge10" class="edge">
<title>Node0&#45;&gt;Node9</title>
<path fill="none" stroke="#191970" d="M1588.4971,-560.4369C1630.0847,-550.8529 1694.1834,-536.0812 1738.8831,-525.78"/>
<polygon fill="#191970" stroke="#191970" points="1739.7155,-529.18 1748.6741,-523.5237 1738.1435,-522.3588 1739.7155,-529.18"/>
</g>
<!-- Node10 -->
<g id="node11" class="node">
<title>Node10</title>
<g id="a_node11"><a xlink:href="xtimer_8h.html" target="_top" xlink:title="xtimer interface definitions ">
<polygon fill="#ffffff" stroke="#000000" points="897,-504.5 897,-523.5 953,-523.5 953,-504.5 897,-504.5"/>
<text text-anchor="middle" x="925" y="-511.5" font-family="Helvetica,sans-Serif" font-size="10.00" fill="#000000">xtimer.h</text>
</a>
</g>
</g>
<!-- Node0&#45;&gt;Node10 -->
<g id="edge11" class="edge">
<title>Node0&#45;&gt;Node10</title>
<path fill="none" stroke="#191970" d="M1479.8441,-563.9538C1349.536,-552.2219 1066.1693,-526.7098 963.295,-517.4478"/>
<polygon fill="#191970" stroke="#191970" points="963.3396,-513.9377 953.066,-516.5268 962.7118,-520.9095 963.3396,-513.9377"/>
</g>
<!-- Node2&#45;&gt;Node1 -->
<g id="edge3" class="edge">
<title>Node2&#45;&gt;Node1</title>
<path fill="none" stroke="#191970" d="M25.0029,-392.4242C26.9385,-373.0891 31,-327.9907 31,-290 31,-290 31,-290 31,-122 31,-79.8832 60.5952,-73.2886 99,-56 151.1141,-32.5399 547.9703,-15.926 670.8498,-11.3024"/>
<polygon fill="#191970" stroke="#191970" points="671.0177,-14.7987 680.8805,-10.9288 670.7571,-7.8035 671.0177,-14.7987"/>
</g>
<!-- Node4 -->
<g id="node5" class="node">
<title>Node4</title>
<polygon fill="#ffffff" stroke="#bfbfbf" points="1350,-168.5 1350,-187.5 1400,-187.5 1400,-168.5 1350,-168.5"/>
<text text-anchor="middle" x="1375" y="-175.5" font-family="Helvetica,sans-Serif" font-size="10.00" fill="#000000">limits.h</text>
</g>
<!-- Node3&#45;&gt;Node4 -->
<g id="edge5" class="edge">
<title>Node3&#45;&gt;Node4</title>
<path fill="none" stroke="#191970" d="M1470.2022,-280.04C1468.6355,-266.1648 1464.0729,-240.8312 1451,-224 1440.2902,-210.2112 1424.191,-199.6224 1409.5631,-192.0997"/>
<polygon fill="#191970" stroke="#191970" points="1410.7615,-188.7918 1400.2343,-187.5962 1407.7182,-195.0956 1410.7615,-188.7918"/>
</g>
<!-- Node5 -->
<g id="node6" class="node">
<title>Node5</title>
<polygon fill="#ffffff" stroke="#bfbfbf" points="1254,-112.5 1254,-131.5 1314,-131.5 1314,-112.5 1254,-112.5"/>
<text text-anchor="middle" x="1284" y="-119.5" font-family="Helvetica,sans-Serif" font-size="10.00" fill="#000000">stdbool.h</text>
</g>
<!-- Node3&#45;&gt;Node5 -->
<g id="edge6" class="edge">
<title>Node3&#45;&gt;Node5</title>
<path fill="none" stroke="#191970" d="M1473.3989,-280.0917C1476.1176,-266.7138 1479.1882,-242.4295 1471,-224 1455.9236,-190.0667 1440.7791,-187.2055 1409,-168 1394.2671,-159.0962 1354.3905,-144.9898 1323.6001,-134.7441"/>
<polygon fill="#191970" stroke="#191970" points="1324.559,-131.3749 1313.9659,-131.5646 1322.3653,-138.0223 1324.559,-131.3749"/>
</g>
<!-- Node6 -->
<g id="node7" class="node">
<title>Node6</title>
<polygon fill="#ffffff" stroke="#bfbfbf" points="1266.5,-224.5 1266.5,-243.5 1343.5,-243.5 1343.5,-224.5 1266.5,-224.5"/>
<text text-anchor="middle" x="1305" y="-231.5" font-family="Helvetica,sans-Serif" font-size="10.00" fill="#000000">periph_cpu.h</text>
</g>
<!-- Node3&#45;&gt;Node6 -->
<g id="edge7" class="edge">
<title>Node3&#45;&gt;Node6</title>
<path fill="none" stroke="#191970" d="M1442.4636,-280.3733C1414.9798,-271.1016 1373.2314,-257.0178 1342.9548,-246.804"/>
<polygon fill="#191970" stroke="#191970" points="1343.7582,-243.3813 1333.164,-243.5011 1341.5206,-250.0141 1343.7582,-243.3813"/>
</g>
<!-- Node7 -->
<g id="node8" class="node">
<title>Node7</title>
<polygon fill="#ffffff" stroke="#bfbfbf" points="1361.5,-224.5 1361.5,-243.5 1442.5,-243.5 1442.5,-224.5 1361.5,-224.5"/>
<text text-anchor="middle" x="1402" y="-231.5" font-family="Helvetica,sans-Serif" font-size="10.00" fill="#000000">periph_conf.h</text>
</g>
<!-- Node3&#45;&gt;Node7 -->
<g id="edge8" class="edge">
<title>Node3&#45;&gt;Node7</title>
<path fill="none" stroke="#191970" d="M1458.9811,-280.2455C1448.7902,-271.9746 1433.9638,-259.9416 1421.9893,-250.2232"/>
<polygon fill="#191970" stroke="#191970" points="1423.8514,-247.2268 1413.8812,-243.6427 1419.4402,-252.662 1423.8514,-247.2268"/>
</g>
<!-- Node10&#45;&gt;Node1 -->
<g id="edge13" class="edge">
<title>Node10&#45;&gt;Node1</title>
<path fill="none" stroke="#191970" d="M922.9058,-504.3563C912.8647,-458.9426 867.385,-262.3264 801,-112 789.3298,-85.5732 787.2348,-77.5544 768,-56 757.5141,-44.2496 743.633,-33.5036 731.7618,-25.3581"/>
<polygon fill="#191970" stroke="#191970" points="733.4346,-22.268 723.1651,-19.6625 729.5683,-28.1034 733.4346,-22.268"/>
</g>
<!-- Node10&#45;&gt;Node5 -->
<g id="edge12" class="edge">
<title>Node10&#45;&gt;Node5</title>
<path fill="none" stroke="#191970" d="M953.055,-512.3021C1027.6406,-507.4997 1229.346,-492.5527 1291,-468 1408.2722,-421.2982 1462.9531,-412.6032 1520,-300 1551.0025,-238.8051 1497.5889,-205.2759 1440,-168 1404.708,-145.1563 1357.7005,-133.3246 1324.5422,-127.4228"/>
<polygon fill="#191970" stroke="#191970" points="1324.736,-123.9066 1314.2955,-125.7085 1323.5809,-130.8107 1324.736,-123.9066"/>
</g>
<!-- Node10&#45;&gt;Node7 -->
<g id="edge67" class="edge">
<title>Node10&#45;&gt;Node7</title>
<path fill="none" stroke="#191970" d="M953.3184,-512.4334C1046.4009,-506.5212 1337,-481.6829 1337,-402 1337,-402 1337,-402 1337,-346 1337,-308.0918 1365.1992,-271.5315 1384.4502,-250.9893"/>
<polygon fill="#191970" stroke="#191970" points="1387.0887,-253.2966 1391.5566,-243.6899 1382.0731,-248.4136 1387.0887,-253.2966"/>
</g>
<!-- Node11 -->
<g id="node12" class="node">
<title>Node11</title>
<g id="a_node12"><a xlink:href="modules_8h.html" target="_top" xlink:title="Common macros and compiler attributes/pragmas configuration. ">
<polygon fill="#ffffff" stroke="#000000" points="548.5,-112.5 548.5,-131.5 613.5,-131.5 613.5,-112.5 548.5,-112.5"/>
<text text-anchor="middle" x="581" y="-119.5" font-family="Helvetica,sans-Serif" font-size="10.00" fill="#000000">modules.h</text>
</a>
</g>
</g>
<!-- Node10&#45;&gt;Node11 -->
<g id="edge14" class="edge">
<title>Node10&#45;&gt;Node11</title>
<path fill="none" stroke="#191970" d="M896.8452,-510.4155C850.366,-503.9713 760.3856,-489.106 737,-468 671.1501,-408.5691 706.7898,-360.7141 670,-280 646.0678,-227.4945 610.7847,-169.1842 592.6709,-140.2939"/>
<polygon fill="#191970" stroke="#191970" points="595.5266,-138.2609 587.2274,-131.675 589.6082,-141.9989 595.5266,-138.2609"/>
</g>
<!-- Node12 -->
<g id="node13" class="node">
<title>Node12</title>
<g id="a_node13"><a xlink:href="timex_8h.html" target="_top" xlink:title="Utility library for comparing and computing timestamps. ">
<polygon fill="#ffffff" stroke="#000000" points="904,-224.5 904,-243.5 956,-243.5 956,-224.5 904,-224.5"/>
<text text-anchor="middle" x="930" y="-231.5" font-family="Helvetica,sans-Serif" font-size="10.00" fill="#000000">timex.h</text>
</a>
</g>
</g>
<!-- Node10&#45;&gt;Node12 -->
<g id="edge15" class="edge">
<title>Node10&#45;&gt;Node12</title>
<path fill="none" stroke="#191970" d="M925.1721,-504.3618C925.8903,-464.1418 928.6569,-309.2159 929.6459,-253.8288"/>
<polygon fill="#191970" stroke="#191970" points="933.1494,-253.6586 929.8286,-243.5977 926.1505,-253.5336 933.1494,-253.6586"/>
</g>
<!-- Node15 -->
<g id="node16" class="node">
<title>Node15</title>
<g id="a_node16"><a xlink:href="mutex_8h.html" target="_top" xlink:title="Mutex for thread synchronization. ">
<polygon fill="#ffffff" stroke="#000000" points="488,-392.5 488,-411.5 544,-411.5 544,-392.5 488,-392.5"/>
<text text-anchor="middle" x="516" y="-399.5" font-family="Helvetica,sans-Serif" font-size="10.00" fill="#000000">mutex.h</text>
</a>
</g>
</g>
<!-- Node10&#45;&gt;Node15 -->
<g id="edge19" class="edge">
<title>Node10&#45;&gt;Node15</title>
<path fill="none" stroke="#191970" d="M896.8051,-509.3656C854.5181,-502.1381 772.3378,-487.0174 704,-468 648.935,-452.6762 586.6319,-429.6381 549.3746,-415.2279"/>
<polygon fill="#191970" stroke="#191970" points="550.598,-411.9484 540.0095,-411.5832 548.0592,-418.4718 550.598,-411.9484"/>
</g>
<!-- Node29 -->
<g id="node30" class="node">
<title>Node29</title>
<g id="a_node30"><a xlink:href="sched_8h.html" target="_top" xlink:title="Scheduler API definition. ">
<polygon fill="#ffffff" stroke="#000000" points="350.5,-224.5 350.5,-243.5 403.5,-243.5 403.5,-224.5 350.5,-224.5"/>
<text text-anchor="middle" x="377" y="-231.5" font-family="Helvetica,sans-Serif" font-size="10.00" fill="#000000">sched.h</text>
</a>
</g>
</g>
<!-- Node10&#45;&gt;Node29 -->
<g id="edge61" class="edge">
<title>Node10&#45;&gt;Node29</title>
<path fill="none" stroke="#191970" d="M896.9148,-512.7709C784.4871,-507.7202 372.0225,-487.8894 353,-468 295.2184,-407.5853 323.179,-360.1324 347,-280 350.0326,-269.7984 356.1244,-259.7475 362.0309,-251.6555"/>
<polygon fill="#191970" stroke="#191970" points="364.823,-253.7667 368.2139,-243.7291 359.3036,-249.4613 364.823,-253.7667"/>
</g>
<!-- Node34 -->
<g id="node35" class="node">
<title>Node34</title>
<g id="a_node35"><a xlink:href="rmutex_8h.html" target="_top" xlink:title="Recursive Mutex for thread synchronization. ">
<polygon fill="#ffffff" stroke="#000000" points="362,-448.5 362,-467.5 422,-467.5 422,-448.5 362,-448.5"/>
<text text-anchor="middle" x="392" y="-455.5" font-family="Helvetica,sans-Serif" font-size="10.00" fill="#000000">rmutex.h</text>
</a>
</g>
</g>
<!-- Node10&#45;&gt;Node34 -->
<g id="edge62" class="edge">
<title>Node10&#45;&gt;Node34</title>
<path fill="none" stroke="#191970" d="M896.7199,-511.0287C808.0819,-501.7159 535.4577,-473.0725 432.201,-462.2237"/>
<polygon fill="#191970" stroke="#191970" points="432.487,-458.7346 422.176,-461.1705 431.7555,-465.6963 432.487,-458.7346"/>
</g>
<!-- Node35 -->
<g id="node36" class="node">
<title>Node35</title>
<polygon fill="#ffffff" stroke="#bfbfbf" points="1010.5,-448.5 1010.5,-467.5 1063.5,-467.5 1063.5,-448.5 1010.5,-448.5"/>
<text text-anchor="middle" x="1037" y="-455.5" font-family="Helvetica,sans-Serif" font-size="10.00" fill="#000000">board.h</text>
</g>
<!-- Node10&#45;&gt;Node35 -->
<g id="edge66" class="edge">
<title>Node10&#45;&gt;Node35</title>
<path fill="none" stroke="#191970" d="M944.2535,-504.3733C962.0712,-495.4644 988.7747,-482.1127 1008.9594,-472.0203"/>
<polygon fill="#191970" stroke="#191970" points="1010.6187,-475.1038 1017.9978,-467.5011 1007.4882,-468.8428 1010.6187,-475.1038"/>
</g>
<!-- Node36 -->
<g id="node37" class="node">
<title>Node36</title>
<g id="a_node37"><a xlink:href="tick__conversion_8h.html" target="_top" xlink:title="xtimer tick &lt;&#45;&gt; seconds conversions for different values of XTIMER_HZ ">
<polygon fill="#ffffff" stroke="#000000" points="746.5,-448.5 746.5,-467.5 877.5,-467.5 877.5,-448.5 746.5,-448.5"/>
<text text-anchor="middle" x="812" y="-455.5" font-family="Helvetica,sans-Serif" font-size="10.00" fill="#000000">xtimer/tick_conversion.h</text>
</a>
</g>
</g>
<!-- Node10&#45;&gt;Node36 -->
<g id="edge68" class="edge">
<title>Node10&#45;&gt;Node36</title>
<path fill="none" stroke="#191970" d="M905.5746,-504.3733C887.5979,-495.4644 860.6559,-482.1127 840.291,-472.0203"/>
<polygon fill="#191970" stroke="#191970" points="841.6861,-468.8055 831.1719,-467.5011 838.5778,-475.0776 841.6861,-468.8055"/>
</g>
<!-- Node38 -->
<g id="node39" class="node">
<title>Node38</title>
<g id="a_node39"><a xlink:href="implementation_8h.html" target="_top" xlink:title="xtimer implementation ">
<polygon fill="#ffffff" stroke="#000000" points="1040,-336.5 1040,-355.5 1174,-355.5 1174,-336.5 1040,-336.5"/>
<text text-anchor="middle" x="1107" y="-343.5" font-family="Helvetica,sans-Serif" font-size="10.00" fill="#000000">xtimer/implementation.h</text>
</a>
</g>
</g>
<!-- Node10&#45;&gt;Node38 -->
<g id="edge72" class="edge">
<title>Node10&#45;&gt;Node38</title>
<path fill="none" stroke="#191970" d="M935.3066,-504.4862C964.9484,-477.1246 1050.7178,-397.9528 1088.6199,-362.9663"/>
<polygon fill="#191970" stroke="#191970" points="1091.3791,-365.1825 1096.3531,-355.8279 1086.6311,-360.0389 1091.3791,-365.1825"/>
</g>
<!-- Node12&#45;&gt;Node1 -->
<g id="edge16" class="edge">
<title>Node12&#45;&gt;Node1</title>
<path fill="none" stroke="#191970" d="M919.2086,-224.3739C910.0355,-215.6728 897.1002,-202.0997 889,-188 858.2642,-134.4993 889.5271,-99.731 846,-56 831.4336,-41.3654 779.3742,-26.7794 743.2759,-18.0744"/>
<polygon fill="#191970" stroke="#191970" points="743.6404,-14.5643 733.1039,-15.674 742.0327,-21.3772 743.6404,-14.5643"/>
</g>
<!-- Node13 -->
<g id="node14" class="node">
<title>Node13</title>
<g id="a_node14"><a xlink:href="inttypes_8h.html" target="_top" xlink:title="Adds include for missing inttype definitions. ">
<polygon fill="#ffffff" stroke="#000000" points="898.5,-168.5 898.5,-187.5 961.5,-187.5 961.5,-168.5 898.5,-168.5"/>
<text text-anchor="middle" x="930" y="-175.5" font-family="Helvetica,sans-Serif" font-size="10.00" fill="#000000">inttypes.h</text>
</a>
</g>
</g>
<!-- Node12&#45;&gt;Node13 -->
<g id="edge17" class="edge">
<title>Node12&#45;&gt;Node13</title>
<path fill="none" stroke="#191970" d="M930,-224.2455C930,-216.9382 930,-206.6944 930,-197.7046"/>
<polygon fill="#191970" stroke="#191970" points="933.5001,-197.6426 930,-187.6427 926.5001,-197.6427 933.5001,-197.6426"/>
</g>
<!-- Node14 -->
<g id="node15" class="node">
<title>Node14</title>
<g id="a_node15"><a xlink:href="time__units_8h.html" target="_top" xlink:title="Utility header providing time unit defines. ">
<polygon fill="#ffffff" stroke="#000000" points="980,-168.5 980,-187.5 1054,-187.5 1054,-168.5 980,-168.5"/>
<text text-anchor="middle" x="1017" y="-175.5" font-family="Helvetica,sans-Serif" font-size="10.00" fill="#000000">time_units.h</text>
</a>
</g>
</g>
<!-- Node12&#45;&gt;Node14 -->
<g id="edge18" class="edge">
<title>Node12&#45;&gt;Node14</title>
<path fill="none" stroke="#191970" d="M945.1542,-224.2455C958.5027,-215.6534 978.1586,-203.0014 993.5383,-193.1018"/>
<polygon fill="#191970" stroke="#191970" points="995.5051,-195.9982 1002.0194,-187.6427 991.7164,-190.1121 995.5051,-195.9982"/>
</g>
<!-- Node15&#45;&gt;Node1 -->
<g id="edge21" class="edge">
<title>Node15&#45;&gt;Node1</title>
<path fill="none" stroke="#191970" d="M544.0769,-394.3879C598.513,-377.8363 716.4424,-332.7295 755,-244 763.6026,-224.2036 726.4672,-81.845 712.297,-29.3638"/>
<polygon fill="#191970" stroke="#191970" points="715.6454,-28.3384 709.6465,-19.6055 708.8901,-30.1733 715.6454,-28.3384"/>
</g>
<!-- Node15&#45;&gt;Node5 -->
<g id="edge22" class="edge">
<title>Node15&#45;&gt;Node5</title>
<path fill="none" stroke="#191970" d="M544.2644,-397.6513C587.9496,-390.6383 674.3175,-375.6101 746,-356 855.0059,-326.1794 1132.2991,-251.1799 1226,-188 1244.8528,-175.2881 1261.4152,-155.0029 1271.9625,-140.2738"/>
<polygon fill="#191970" stroke="#191970" points="1274.9163,-142.1557 1277.719,-131.9382 1269.1564,-138.1778 1274.9163,-142.1557"/>
</g>
<!-- Node16 -->
<g id="node17" class="node">
<title>Node16</title>
<polygon fill="#ffffff" stroke="#bfbfbf" points="286,-56.5 286,-75.5 342,-75.5 342,-56.5 286,-56.5"/>
<text text-anchor="middle" x="314" y="-63.5" font-family="Helvetica,sans-Serif" font-size="10.00" fill="#000000">stddef.h</text>
</g>
<!-- Node15&#45;&gt;Node16 -->
<g id="edge20" class="edge">
<title>Node15&#45;&gt;Node16</title>
<path fill="none" stroke="#191970" d="M487.7404,-399.4528C402.217,-390.9731 152,-360.168 152,-290 152,-290 152,-290 152,-234 152,-168.9393 208.0442,-174.8511 257,-132 273.6346,-117.4397 289.8369,-98.0175 300.6884,-84.0165"/>
<polygon fill="#191970" stroke="#191970" points="303.7395,-85.7857 306.9974,-75.7042 298.1637,-81.5536 303.7395,-85.7857"/>
</g>
<!-- Node17 -->
<g id="node18" class="node">
<title>Node17</title>
<g id="a_node18"><a xlink:href="architecture_8h.html" target="_top" xlink:title="Platform&#45;independent access to architecture details. ">
<polygon fill="#ffffff" stroke="#000000" points="974.5,-224.5 974.5,-243.5 1057.5,-243.5 1057.5,-224.5 974.5,-224.5"/>
<text text-anchor="middle" x="1016" y="-231.5" font-family="Helvetica,sans-Serif" font-size="10.00" fill="#000000">architecture.h</text>
</a>
</g>
</g>
<!-- Node15&#45;&gt;Node17 -->
<g id="edge23" class="edge">
<title>Node15&#45;&gt;Node17</title>
<path fill="none" stroke="#191970" d="M544.0324,-396.3587C581.0531,-388.6326 648.0951,-373.6835 704,-356 809.1463,-322.7407 929.6996,-271.8198 985.1517,-247.6472"/>
<polygon fill="#191970" stroke="#191970" points="986.6604,-250.8075 994.4185,-243.592 983.8541,-244.3947 986.6604,-250.8075"/>
</g>
<!-- Node19 -->
<g id="node20" class="node">
<title>Node19</title>
<g id="a_node20"><a xlink:href="kernel__defines_8h.html" target="_top" xlink:title="Common macros and compiler attributes/pragmas configuration. ">
<polygon fill="#ffffff" stroke="#000000" points="218.5,-168.5 218.5,-187.5 313.5,-187.5 313.5,-168.5 218.5,-168.5"/>
<text text-anchor="middle" x="266" y="-175.5" font-family="Helvetica,sans-Serif" font-size="10.00" fill="#000000">kernel_defines.h</text>
</a>
</g>
</g>
<!-- Node15&#45;&gt;Node19 -->
<g id="edge28" class="edge">
<title>Node15&#45;&gt;Node19</title>
<path fill="none" stroke="#191970" d="M487.8289,-398.4335C441.3254,-392.0162 351.3097,-377.1898 328,-356 281.4788,-313.7097 269.8644,-234.6407 266.9648,-197.8163"/>
<polygon fill="#191970" stroke="#191970" points="270.4571,-197.5836 266.3157,-187.8318 263.4719,-198.0378 270.4571,-197.5836"/>
</g>
<!-- Node24 -->
<g id="node25" class="node">
<title>Node24</title>
<g id="a_node25"><a xlink:href="list_8h.html" target="_top" xlink:title="Intrusive linked list. ">
<polygon fill="#ffffff" stroke="#000000" points="343,-112.5 343,-131.5 381,-131.5 381,-112.5 343,-112.5"/>
<text text-anchor="middle" x="362" y="-119.5" font-family="Helvetica,sans-Serif" font-size="10.00" fill="#000000">list.h</text>
</a>
</g>
</g>
<!-- Node15&#45;&gt;Node24 -->
<g id="edge39" class="edge">
<title>Node15&#45;&gt;Node24</title>
<path fill="none" stroke="#191970" d="M487.9758,-393.0359C423.6043,-370.6959 266.3185,-305.6992 209,-188 205.1082,-180.0084 203.6961,-175.1331 209,-168 223.813,-148.0785 292.7165,-133.5259 332.8242,-126.5741"/>
<polygon fill="#191970" stroke="#191970" points="333.5453,-130.0021 342.8275,-124.8941 332.3858,-123.0988 333.5453,-130.0021"/>
</g>
<!-- Node25 -->
<g id="node26" class="node">
<title>Node25</title>
<g id="a_node26"><a xlink:href="core_2include_2thread_8h.html" target="_top" xlink:title="Threading API. ">
<polygon fill="#ffffff" stroke="#000000" points="487.5,-336.5 487.5,-355.5 544.5,-355.5 544.5,-336.5 487.5,-336.5"/>
<text text-anchor="middle" x="516" y="-343.5" font-family="Helvetica,sans-Serif" font-size="10.00" fill="#000000">thread.h</text>
</a>
</g>
</g>
<!-- Node15&#45;&gt;Node25 -->
<g id="edge40" class="edge">
<title>Node15&#45;&gt;Node25</title>
<path fill="none" stroke="#191970" d="M516,-392.2455C516,-384.9382 516,-374.6944 516,-365.7046"/>
<polygon fill="#191970" stroke="#191970" points="519.5001,-365.6426 516,-355.6427 512.5001,-365.6427 519.5001,-365.6426"/>
</g>
<!-- Node17&#45;&gt;Node1 -->
<g id="edge24" class="edge">
<title>Node17&#45;&gt;Node1</title>
<path fill="none" stroke="#191970" d="M1031.4626,-224.3272C1049.4414,-211.798 1075.1914,-189.0615 1063,-168 995.9471,-52.1616 819.7532,-20.9972 743.2816,-12.8196"/>
<polygon fill="#191970" stroke="#191970" points="743.4727,-9.3214 733.1747,-11.8119 742.7781,-16.2869 743.4727,-9.3214"/>
</g>
<!-- Node17&#45;&gt;Node4 -->
<g id="edge26" class="edge">
<title>Node17&#45;&gt;Node4</title>
<path fill="none" stroke="#191970" d="M1057.5326,-227.5214C1128.8379,-216.3985 1273.2867,-193.8661 1339.8995,-183.4753"/>
<polygon fill="#191970" stroke="#191970" points="1340.558,-186.915 1349.8991,-181.9155 1339.4791,-179.9986 1340.558,-186.915"/>
</g>
<!-- Node17&#45;&gt;Node13 -->
<g id="edge25" class="edge">
<title>Node17&#45;&gt;Node13</title>
<path fill="none" stroke="#191970" d="M1001.0199,-224.2455C987.8249,-215.6534 968.3949,-203.0014 953.1921,-193.1018"/>
<polygon fill="#191970" stroke="#191970" points="955.0983,-190.1665 944.8084,-187.6427 951.2785,-196.0325 955.0983,-190.1665"/>
</g>
<!-- Node18 -->
<g id="node19" class="node">
<title>Node18</title>
<polygon fill="#ffffff" stroke="#bfbfbf" points="1110.5,-168.5 1110.5,-187.5 1217.5,-187.5 1217.5,-168.5 1110.5,-168.5"/>
<text text-anchor="middle" x="1164" y="-175.5" font-family="Helvetica,sans-Serif" font-size="10.00" fill="#000000">architecture_arch.h</text>
</g>
<!-- Node17&#45;&gt;Node18 -->
<g id="edge27" class="edge">
<title>Node17&#45;&gt;Node18</title>
<path fill="none" stroke="#191970" d="M1041.4421,-224.3733C1065.7326,-215.1822 1102.5208,-201.2624 1129.4543,-191.0713"/>
<polygon fill="#191970" stroke="#191970" points="1130.7757,-194.3136 1138.8899,-187.5011 1128.2984,-187.7666 1130.7757,-194.3136"/>
</g>
<!-- Node19&#45;&gt;Node11 -->
<g id="edge29" class="edge">
<title>Node19&#45;&gt;Node11</title>
<path fill="none" stroke="#191970" d="M313.5235,-170.9782C366.1035,-162.9895 453.5467,-149.0559 538.66,-131.9582"/>
<polygon fill="#191970" stroke="#191970" points="539.3821,-135.3832 548.4882,-129.9675 537.9923,-128.5225 539.3821,-135.3832"/>
</g>
<!-- Node20 -->
<g id="node21" class="node">
<title>Node20</title>
<g id="a_node21"><a xlink:href="riot__version_8h.html" target="_top" xlink:title="Common macros and compiler attributes/pragmas configuration. ">
<polygon fill="#ffffff" stroke="#000000" points="145.5,-56.5 145.5,-75.5 226.5,-75.5 226.5,-56.5 145.5,-56.5"/>
<text text-anchor="middle" x="186" y="-63.5" font-family="Helvetica,sans-Serif" font-size="10.00" fill="#000000">riot_version.h</text>
</a>
</g>
</g>
<!-- Node19&#45;&gt;Node20 -->
<g id="edge30" class="edge">
<title>Node19&#45;&gt;Node20</title>
<path fill="none" stroke="#191970" d="M222.5168,-168.3976C202.9249,-161.6689 181.6205,-150.4539 170,-132 160.9139,-117.5709 167.2005,-98.3805 174.3905,-84.4137"/>
<polygon fill="#191970" stroke="#191970" points="177.4429,-86.1262 179.3346,-75.7016 171.3549,-82.6712 177.4429,-86.1262"/>
</g>
<!-- Node21 -->
<g id="node22" class="node">
<title>Node21</title>
<g id="a_node22"><a xlink:href="compiler__hints_8h.html" target="_top" xlink:title="Common macros and compiler attributes/pragmas configuration. ">
<polygon fill="#ffffff" stroke="#000000" points="437.5,-112.5 437.5,-131.5 530.5,-131.5 530.5,-112.5 437.5,-112.5"/>
<text text-anchor="middle" x="484" y="-119.5" font-family="Helvetica,sans-Serif" font-size="10.00" fill="#000000">compiler_hints.h</text>
</a>
</g>
</g>
<!-- Node19&#45;&gt;Node21 -->
<g id="edge32" class="edge">
<title>Node19&#45;&gt;Node21</title>
<path fill="none" stroke="#191970" d="M303.4755,-168.3733C340.5103,-158.8598 397.2682,-144.2797 437.2361,-134.0127"/>
<polygon fill="#191970" stroke="#191970" points="438.1988,-137.3792 447.0135,-131.5011 436.4571,-130.5993 438.1988,-137.3792"/>
</g>
<!-- Node23 -->
<g id="node24" class="node">
<title>Node23</title>
<g id="a_node24"><a xlink:href="container_8h.html" target="_top" xlink:title="Common macros and compiler attributes/pragmas configuration. ">
<polygon fill="#ffffff" stroke="#000000" points="179.5,-112.5 179.5,-131.5 248.5,-131.5 248.5,-112.5 179.5,-112.5"/>
<text text-anchor="middle" x="214" y="-119.5" font-family="Helvetica,sans-Serif" font-size="10.00" fill="#000000">container.h</text>
</a>
</g>
</g>
<!-- Node19&#45;&gt;Node23 -->
<g id="edge36" class="edge">
<title>Node19&#45;&gt;Node23</title>
<path fill="none" stroke="#191970" d="M256.9423,-168.2455C249.4858,-160.2155 238.7366,-148.6394 229.8583,-139.0781"/>
<polygon fill="#191970" stroke="#191970" points="232.3232,-136.589 222.9539,-131.6427 227.1937,-141.3522 232.3232,-136.589"/>
</g>
<!-- Node20&#45;&gt;Node1 -->
<g id="edge31" class="edge">
<title>Node20&#45;&gt;Node1</title>
<path fill="none" stroke="#191970" d="M226.7304,-58.4727C232.1902,-57.5756 237.7245,-56.7232 243,-56 401.5569,-34.263 591.9465,-18.6652 670.4383,-12.6884"/>
<polygon fill="#191970" stroke="#191970" points="671.0482,-16.1524 680.7562,-11.9092 670.5211,-9.1722 671.0482,-16.1524"/>
</g>
<!-- Node21&#45;&gt;Node1 -->
<g id="edge35" class="edge">
<title>Node21&#45;&gt;Node1</title>
<path fill="none" stroke="#191970" d="M501.9925,-112.4155C526.518,-99.4046 571.8726,-75.5348 611,-56 633.2079,-44.9124 658.5374,-32.7974 677.6003,-23.7848"/>
<polygon fill="#191970" stroke="#191970" points="679.1288,-26.9337 686.6804,-19.5024 676.1428,-20.6025 679.1288,-26.9337"/>
</g>
<!-- Node22 -->
<g id="node23" class="node">
<title>Node22</title>
<g id="a_node23"><a xlink:href="assert_8h.html" target="_top" xlink:title="POSIX.1&#45;2008 compliant version of the assert macro. ">
<polygon fill="#ffffff" stroke="#000000" points="653,-56.5 653,-75.5 707,-75.5 707,-56.5 653,-56.5"/>
<text text-anchor="middle" x="680" y="-63.5" font-family="Helvetica,sans-Serif" font-size="10.00" fill="#000000">assert.h</text>
</a>
</g>
</g>
<!-- Node21&#45;&gt;Node22 -->
<g id="edge33" class="edge">
<title>Node21&#45;&gt;Node22</title>
<path fill="none" stroke="#191970" d="M517.6936,-112.3733C552.6096,-102.3973 607.0243,-86.8502 643.0853,-76.5471"/>
<polygon fill="#191970" stroke="#191970" points="644.0845,-79.9017 652.7382,-73.7891 642.1614,-73.171 644.0845,-79.9017"/>
</g>
<!-- Node22&#45;&gt;Node1 -->
<g id="edge34" class="edge">
<title>Node22&#45;&gt;Node1</title>
<path fill="none" stroke="#191970" d="M684.703,-56.2455C688.3424,-48.6973 693.4924,-38.0158 697.9262,-28.8197"/>
<polygon fill="#191970" stroke="#191970" points="701.1605,-30.1704 702.3509,-19.6427 694.8551,-27.1303 701.1605,-30.1704"/>
</g>
<!-- Node23&#45;&gt;Node1 -->
<g id="edge38" class="edge">
<title>Node23&#45;&gt;Node1</title>
<path fill="none" stroke="#191970" d="M219.9421,-112.3303C229.746,-97.3391 250.8523,-68.8771 277,-56 346,-22.0192 579.9884,-12.9657 670.673,-10.7051"/>
<polygon fill="#191970" stroke="#191970" points="670.8369,-14.2023 680.7515,-10.4674 670.6718,-7.2043 670.8369,-14.2023"/>
</g>
<!-- Node23&#45;&gt;Node16 -->
<g id="edge37" class="edge">
<title>Node23&#45;&gt;Node16</title>
<path fill="none" stroke="#191970" d="M231.4187,-112.2455C247.0485,-103.4928 270.2019,-90.527 288.0185,-80.5496"/>
<polygon fill="#191970" stroke="#191970" points="289.766,-83.5825 296.7809,-75.6427 286.3457,-77.475 289.766,-83.5825"/>
</g>
<!-- Node26 -->
<g id="node27" class="node">
<title>Node26</title>
<g id="a_node27"><a xlink:href="clist_8h.html" target="_top" xlink:title="Circular linked list. ">
<polygon fill="#ffffff" stroke="#000000" points="474.5,-168.5 474.5,-187.5 517.5,-187.5 517.5,-168.5 474.5,-168.5"/>
<text text-anchor="middle" x="496" y="-175.5" font-family="Helvetica,sans-Serif" font-size="10.00" fill="#000000">clist.h</text>
</a>
</g>
</g>
<!-- Node25&#45;&gt;Node26 -->
<g id="edge41" class="edge">
<title>Node25&#45;&gt;Node26</title>
<path fill="none" stroke="#191970" d="M511.3886,-336.3979C507.2652,-327.2727 501.4992,-313.0446 499,-300 492.1857,-264.4321 493.1337,-221.9717 494.5162,-197.6796"/>
<polygon fill="#191970" stroke="#191970" points="498.0149,-197.8123 495.1767,-187.6048 491.0299,-197.3544 498.0149,-197.8123"/>
</g>
<!-- Node27 -->
<g id="node28" class="node">
<title>Node27</title>
<g id="a_node28"><a xlink:href="cib_8h.html" target="_top" xlink:title="Circular integer buffer interface. ">
<polygon fill="#ffffff" stroke="#000000" points="708,-224.5 708,-243.5 746,-243.5 746,-224.5 708,-224.5"/>
<text text-anchor="middle" x="727" y="-231.5" font-family="Helvetica,sans-Serif" font-size="10.00" fill="#000000">cib.h</text>
</a>
</g>
</g>
<!-- Node25&#45;&gt;Node27 -->
<g id="edge45" class="edge">
<title>Node25&#45;&gt;Node27</title>
<path fill="none" stroke="#191970" d="M544.7123,-342.3661C577.2632,-337.1784 630.8784,-325.3166 670,-300 689.1575,-287.6027 705.5146,-266.9261 715.7284,-252.0162"/>
<polygon fill="#191970" stroke="#191970" points="718.691,-253.8811 721.2641,-243.6035 712.8434,-250.0332 718.691,-253.8811"/>
</g>
<!-- Node28 -->
<g id="node29" class="node">
<title>Node28</title>
<g id="a_node29"><a xlink:href="core_2include_2msg_8h.html" target="_top" xlink:title="Messaging API for inter process communication. ">
<polygon fill="#ffffff" stroke="#000000" points="616.5,-280.5 616.5,-299.5 661.5,-299.5 661.5,-280.5 616.5,-280.5"/>
<text text-anchor="middle" x="639" y="-287.5" font-family="Helvetica,sans-Serif" font-size="10.00" fill="#000000">msg.h</text>
</a>
</g>
</g>
<!-- Node25&#45;&gt;Node28 -->
<g id="edge47" class="edge">
<title>Node25&#45;&gt;Node28</title>
<path fill="none" stroke="#191970" d="M537.1445,-336.3733C556.8892,-327.3838 586.5698,-313.8706 608.8055,-303.7471"/>
<polygon fill="#191970" stroke="#191970" points="610.4806,-306.8302 618.1315,-299.5011 607.58,-300.4594 610.4806,-306.8302"/>
</g>
<!-- Node25&#45;&gt;Node29 -->
<g id="edge56" class="edge">
<title>Node25&#45;&gt;Node29</title>
<path fill="none" stroke="#191970" d="M487.4607,-341.6544C446.9933,-334.8432 376.1521,-320.302 361,-300 350.8011,-286.3347 357.2323,-267.0451 364.7586,-252.8474"/>
<polygon fill="#191970" stroke="#191970" points="367.927,-254.3627 369.9532,-243.9634 361.8841,-250.8294 367.927,-254.3627"/>
</g>
<!-- Node31 -->
<g id="node32" class="node">
<title>Node31</title>
<g id="a_node32"><a xlink:href="thread__config_8h.html" target="_top" xlink:title="Thread configuration defines. ">
<polygon fill="#ffffff" stroke="#000000" points="508,-280.5 508,-299.5 598,-299.5 598,-280.5 508,-280.5"/>
<text text-anchor="middle" x="553" y="-287.5" font-family="Helvetica,sans-Serif" font-size="10.00" fill="#000000">thread_config.h</text>
</a>
</g>
</g>
<!-- Node25&#45;&gt;Node31 -->
<g id="edge57" class="edge">
<title>Node25&#45;&gt;Node31</title>
<path fill="none" stroke="#191970" d="M522.4449,-336.2455C527.5382,-328.5367 534.7908,-317.5598 540.952,-308.2348"/>
<polygon fill="#191970" stroke="#191970" points="544.0365,-309.9155 546.6289,-299.6427 538.1962,-306.0566 544.0365,-309.9155"/>
</g>
<!-- Node33 -->
<g id="node34" class="node">
<title>Node33</title>
<polygon fill="#ffffff" stroke="#bfbfbf" points="370,-280.5 370,-299.5 452,-299.5 452,-280.5 370,-280.5"/>
<text text-anchor="middle" x="411" y="-287.5" font-family="Helvetica,sans-Serif" font-size="10.00" fill="#000000">thread_arch.h</text>
</g>
<!-- Node25&#45;&gt;Node33 -->
<g id="edge60" class="edge">
<title>Node25&#45;&gt;Node33</title>
<path fill="none" stroke="#191970" d="M497.7104,-336.2455C481.2238,-327.4527 456.7648,-314.4079 438.0235,-304.4125"/>
<polygon fill="#191970" stroke="#191970" points="439.5506,-301.2604 429.08,-299.6427 436.2565,-307.4368 439.5506,-301.2604"/>
</g>
<!-- Node26&#45;&gt;Node5 -->
<g id="edge42" class="edge">
<title>Node26&#45;&gt;Node5</title>
<path fill="none" stroke="#191970" d="M517.8981,-176.4438C625.8111,-168.7748 1101.5254,-134.9677 1243.7216,-124.8624"/>
<polygon fill="#191970" stroke="#191970" points="1244.0327,-128.3492 1253.7594,-124.1491 1243.5364,-121.3669 1244.0327,-128.3492"/>
</g>
<!-- Node26&#45;&gt;Node16 -->
<g id="edge43" class="edge">
<title>Node26&#45;&gt;Node16</title>
<path fill="none" stroke="#191970" d="M480.5897,-168.3202C459.9932,-155.4022 422.3308,-131.8485 390,-112 372.911,-101.5088 353.577,-89.8089 338.6862,-80.8342"/>
<polygon fill="#191970" stroke="#191970" points="340.421,-77.7933 330.0486,-75.6335 336.8102,-83.7902 340.421,-77.7933"/>
</g>
<!-- Node26&#45;&gt;Node24 -->
<g id="edge44" class="edge">
<title>Node26&#45;&gt;Node24</title>
<path fill="none" stroke="#191970" d="M474.4706,-169.0026C451.742,-159.5041 415.795,-144.4815 390.676,-133.984"/>
<polygon fill="#191970" stroke="#191970" points="391.8778,-130.6929 381.3015,-130.0663 389.1786,-137.1516 391.8778,-130.6929"/>
</g>
<!-- Node27&#45;&gt;Node22 -->
<g id="edge46" class="edge">
<title>Node27&#45;&gt;Node22</title>
<path fill="none" stroke="#191970" d="M721.273,-224.4608C716.0561,-215.38 708.4996,-201.182 704,-188 692.0804,-153.0806 685.3785,-110.4027 682.2406,-85.8945"/>
<polygon fill="#191970" stroke="#191970" points="685.6857,-85.2284 681.0114,-75.7205 678.7362,-86.0681 685.6857,-85.2284"/>
</g>
<!-- Node28&#45;&gt;Node1 -->
<g id="edge48" class="edge">
<title>Node28&#45;&gt;Node1</title>
<path fill="none" stroke="#191970" d="M636.3553,-280.3464C627.7567,-246.9071 603.4121,-133.8216 644,-56 651.0049,-42.5691 663.9153,-32.0933 676.2335,-24.5543"/>
<polygon fill="#191970" stroke="#191970" points="678.0308,-27.5588 685.0054,-19.5835 674.5797,-21.4686 678.0308,-27.5588"/>
</g>
<!-- Node28&#45;&gt;Node5 -->
<g id="edge49" class="edge">
<title>Node28&#45;&gt;Node5</title>
<path fill="none" stroke="#191970" d="M645.1554,-280.3955C654.8675,-266.0107 675.1183,-238.966 699,-224 773.5982,-177.2514 802.7414,-185.6002 889,-168 1017.0426,-141.8742 1171.6831,-129.2346 1243.5891,-124.421"/>
<polygon fill="#191970" stroke="#191970" points="1244.2437,-127.8858 1253.994,-123.7408 1243.787,-120.9007 1244.2437,-127.8858"/>
</g>
<!-- Node28&#45;&gt;Node29 -->
<g id="edge50" class="edge">
<title>Node28&#45;&gt;Node29</title>
<path fill="none" stroke="#191970" d="M616.3589,-282.6004C613.2296,-281.6728 610.0453,-280.778 607,-280 539.4678,-262.7461 459.42,-248.0004 413.7836,-240.1222"/>
<polygon fill="#191970" stroke="#191970" points="414.2148,-236.6452 403.7677,-238.4082 413.034,-243.5449 414.2148,-236.6452"/>
</g>
<!-- Node29&#45;&gt;Node13 -->
<g id="edge52" class="edge">
<title>Node29&#45;&gt;Node13</title>
<path fill="none" stroke="#191970" d="M403.6723,-231.299C492.6198,-222.2917 779.5811,-193.2323 887.9964,-182.2535"/>
<polygon fill="#191970" stroke="#191970" points="888.6227,-185.7081 898.2191,-181.2183 887.9174,-178.7437 888.6227,-185.7081"/>
</g>
<!-- Node29&#45;&gt;Node16 -->
<g id="edge51" class="edge">
<title>Node29&#45;&gt;Node16</title>
<path fill="none" stroke="#191970" d="M372.5029,-224.2888C364.2681,-206.31 346.4689,-166.5228 334,-132 328.4076,-116.5163 323.053,-98.6253 319.294,-85.3799"/>
<polygon fill="#191970" stroke="#191970" points="322.5972,-84.1949 316.5415,-75.5012 315.854,-86.0737 322.5972,-84.1949"/>
</g>
<!-- Node29&#45;&gt;Node19 -->
<g id="edge53" class="edge">
<title>Node29&#45;&gt;Node19</title>
<path fill="none" stroke="#191970" d="M357.9184,-224.3733C340.2598,-215.4644 313.7947,-202.1127 293.7902,-192.0203"/>
<polygon fill="#191970" stroke="#191970" points="295.3372,-188.8806 284.8326,-187.5011 292.1842,-195.1303 295.3372,-188.8806"/>
</g>
<!-- Node29&#45;&gt;Node26 -->
<g id="edge55" class="edge">
<title>Node29&#45;&gt;Node26</title>
<path fill="none" stroke="#191970" d="M397.4568,-224.3733C416.4738,-215.4241 445.0175,-201.9917 466.4976,-191.8835"/>
<polygon fill="#191970" stroke="#191970" points="468.2522,-194.926 475.8101,-187.5011 465.2716,-188.5923 468.2522,-194.926"/>
</g>
<!-- Node30 -->
<g id="node31" class="node">
<title>Node30</title>
<g id="a_node31"><a xlink:href="native__sched_8h.html" target="_top" xlink:title="Add definitions required on the native board. ">
<polygon fill="#ffffff" stroke="#000000" points="370,-168.5 370,-187.5 456,-187.5 456,-168.5 370,-168.5"/>
<text text-anchor="middle" x="413" y="-175.5" font-family="Helvetica,sans-Serif" font-size="10.00" fill="#000000">native_sched.h</text>
</a>
</g>
</g>
<!-- Node29&#45;&gt;Node30 -->
<g id="edge54" class="edge">
<title>Node29&#45;&gt;Node30</title>
<path fill="none" stroke="#191970" d="M383.2707,-224.2455C388.2264,-216.5367 395.283,-205.5598 401.2776,-196.2348"/>
<polygon fill="#191970" stroke="#191970" points="404.3376,-197.9471 406.8011,-187.6427 398.4494,-194.1618 404.3376,-197.9471"/>
</g>
<!-- Node31&#45;&gt;Node29 -->
<g id="edge59" class="edge">
<title>Node31&#45;&gt;Node29</title>
<path fill="none" stroke="#191970" d="M522.7445,-280.3733C492.3719,-270.7093 445.5683,-255.8172 413.2333,-245.5288"/>
<polygon fill="#191970" stroke="#191970" points="414.2875,-242.1914 403.697,-242.4945 412.165,-248.8618 414.2875,-242.1914"/>
</g>
<!-- Node32 -->
<g id="node33" class="node">
<title>Node32</title>
<polygon fill="#ffffff" stroke="#bfbfbf" points="508.5,-224.5 508.5,-243.5 575.5,-243.5 575.5,-224.5 508.5,-224.5"/>
<text text-anchor="middle" x="542" y="-231.5" font-family="Helvetica,sans-Serif" font-size="10.00" fill="#000000">cpu_conf.h</text>
</g>
<!-- Node31&#45;&gt;Node32 -->
<g id="edge58" class="edge">
<title>Node31&#45;&gt;Node32</title>
<path fill="none" stroke="#191970" d="M551.0839,-280.2455C549.6486,-272.9382 547.6364,-262.6944 545.8705,-253.7046"/>
<polygon fill="#191970" stroke="#191970" points="549.256,-252.7805 543.8941,-243.6427 542.3873,-254.1298 549.256,-252.7805"/>
</g>
<!-- Node34&#45;&gt;Node1 -->
<g id="edge63" class="edge">
<title>Node34&#45;&gt;Node1</title>
<path fill="none" stroke="#191970" d="M365.6556,-448.4434C325.7271,-433.1186 248.7486,-400.2197 194,-356 143.3676,-315.1049 113,-299.0849 113,-234 113,-234 113,-234 113,-122 113,-90.9365 111.4207,-74.9947 136,-56 178.252,-23.348 551.4897,-13.1064 670.6226,-10.6544"/>
<polygon fill="#191970" stroke="#191970" points="670.7707,-14.1522 680.6988,-10.4533 670.6309,-7.1536 670.7707,-14.1522"/>
</g>
<!-- Node34&#45;&gt;Node15 -->
<g id="edge64" class="edge">
<title>Node34&#45;&gt;Node15</title>
<path fill="none" stroke="#191970" d="M413.3164,-448.3733C433.2216,-439.3838 463.1436,-425.8706 485.56,-415.7471"/>
<polygon fill="#191970" stroke="#191970" points="487.2887,-418.8068 494.9618,-411.5011 484.4075,-412.4272 487.2887,-418.8068"/>
</g>
<!-- Node34&#45;&gt;Node29 -->
<g id="edge65" class="edge">
<title>Node34&#45;&gt;Node29</title>
<path fill="none" stroke="#191970" d="M388.6029,-448.1814C380.3003,-423.6018 359.1381,-357.2807 352,-300 350.9008,-291.1793 349.8102,-288.6149 352,-280 354.4785,-270.2493 359.4873,-260.3309 364.3751,-252.2128"/>
<polygon fill="#191970" stroke="#191970" points="367.4313,-253.9312 369.8985,-243.6276 361.5444,-250.1437 367.4313,-253.9312"/>
</g>
<!-- Node37 -->
<g id="node38" class="node">
<title>Node37</title>
<g id="a_node38"><a xlink:href="div_8h.html" target="_top" xlink:title="div.h">
<polygon fill="#ffffff" stroke="#000000" points="754,-112.5 754,-131.5 792,-131.5 792,-112.5 754,-112.5"/>
<text text-anchor="middle" x="773" y="-119.5" font-family="Helvetica,sans-Serif" font-size="10.00" fill="#000000">div.h</text>
</a>
</g>
</g>
<!-- Node36&#45;&gt;Node37 -->
<g id="edge69" class="edge">
<title>Node36&#45;&gt;Node37</title>
<path fill="none" stroke="#191970" d="M812,-448.4116C812,-429.0538 812,-383.9167 812,-346 812,-346 812,-346 812,-290 812,-234.8244 791.7926,-172.0344 780.4691,-141.1805"/>
<polygon fill="#191970" stroke="#191970" points="783.6842,-139.7867 776.8821,-131.6638 777.1341,-142.2557 783.6842,-139.7867"/>
</g>
<!-- Node37&#45;&gt;Node1 -->
<g id="edge71" class="edge">
<title>Node37&#45;&gt;Node1</title>
<path fill="none" stroke="#191970" d="M770.6894,-112.0704C767.2894,-98.6683 760.113,-74.3568 749,-56 742.549,-45.344 733.4001,-34.9644 725.2872,-26.7698"/>
<polygon fill="#191970" stroke="#191970" points="727.5612,-24.0993 717.9482,-19.6449 722.6852,-29.1218 727.5612,-24.0993"/>
</g>
<!-- Node37&#45;&gt;Node22 -->
<g id="edge70" class="edge">
<title>Node37&#45;&gt;Node22</title>
<path fill="none" stroke="#191970" d="M756.8006,-112.2455C742.3982,-103.5731 721.1268,-90.7645 704.6201,-80.825"/>
<polygon fill="#191970" stroke="#191970" points="706.386,-77.8028 696.0137,-75.6427 702.775,-83.7996 706.386,-77.8028"/>
</g>
<!-- Node39 -->
<g id="node40" class="node">
<title>Node39</title>
<g id="a_node40"><a xlink:href="drivers_2include_2periph_2timer_8h.html" target="_top" xlink:title="Low&#45;level timer peripheral driver interface definitions. ">
<polygon fill="#ffffff" stroke="#000000" points="1157.5,-280.5 1157.5,-299.5 1242.5,-299.5 1242.5,-280.5 1157.5,-280.5"/>
<text text-anchor="middle" x="1200" y="-287.5" font-family="Helvetica,sans-Serif" font-size="10.00" fill="#000000">periph/timer.h</text>
</a>
</g>
</g>
<!-- Node38&#45;&gt;Node39 -->
<g id="edge73" class="edge">
<title>Node38&#45;&gt;Node39</title>
<path fill="none" stroke="#191970" d="M1123.1994,-336.2455C1137.6018,-327.5731 1158.8732,-314.7645 1175.3799,-304.825"/>
<polygon fill="#191970" stroke="#191970" points="1177.225,-307.7996 1183.9863,-299.6427 1173.614,-301.8028 1177.225,-307.7996"/>
</g>
<!-- Node40 -->
<g id="node41" class="node">
<title>Node40</title>
<g id="a_node41"><a xlink:href="irq_8h.html" target="_top" xlink:title="IRQ driver interface. ">
<polygon fill="#ffffff" stroke="#000000" points="1088,-280.5 1088,-299.5 1126,-299.5 1126,-280.5 1088,-280.5"/>
<text text-anchor="middle" x="1107" y="-287.5" font-family="Helvetica,sans-Serif" font-size="10.00" fill="#000000">irq.h</text>
</a>
</g>
</g>
<!-- Node38&#45;&gt;Node40 -->
<g id="edge80" class="edge">
<title>Node38&#45;&gt;Node40</title>
<path fill="none" stroke="#191970" d="M1107,-336.2455C1107,-328.9382 1107,-318.6944 1107,-309.7046"/>
<polygon fill="#191970" stroke="#191970" points="1110.5001,-309.6426 1107,-299.6427 1103.5001,-309.6427 1110.5001,-309.6426"/>
</g>
<!-- Node39&#45;&gt;Node1 -->
<g id="edge75" class="edge">
<title>Node39&#45;&gt;Node1</title>
<path fill="none" stroke="#191970" d="M1205.63,-280.2277C1214.5722,-265.6238 1233.4442,-238.2967 1257,-224 1318.5459,-186.6461 1443.3138,-231.2912 1409,-168 1343.9277,-47.9753 878.2004,-17.7259 743.4403,-11.4472"/>
<polygon fill="#191970" stroke="#191970" points="743.3817,-7.9412 733.2346,-10.9886 743.0673,-14.9341 743.3817,-7.9412"/>
</g>
<!-- Node39&#45;&gt;Node4 -->
<g id="edge74" class="edge">
<title>Node39&#45;&gt;Node4</title>
<path fill="none" stroke="#191970" d="M1200.8206,-280.4714C1202.5609,-266.1859 1207.8984,-239.269 1224,-224 1228.3262,-219.8975 1296.5657,-200.111 1339.8133,-187.863"/>
<polygon fill="#191970" stroke="#191970" points="1341.0146,-191.1607 1349.687,-185.0746 1339.1121,-184.4242 1341.0146,-191.1607"/>
</g>
<!-- Node39&#45;&gt;Node5 -->
<g id="edge76" class="edge">
<title>Node39&#45;&gt;Node5</title>
<path fill="none" stroke="#191970" d="M1198.3483,-280.358C1196.526,-266.4088 1195.3366,-240.4706 1208,-224 1234.259,-189.8464 1273.8474,-223.6742 1298,-188 1307.4059,-174.1071 1301.9037,-155.0993 1295.2314,-141.0494"/>
<polygon fill="#191970" stroke="#191970" points="1298.1303,-139.0441 1290.3625,-131.8392 1291.9418,-142.3157 1298.1303,-139.0441"/>
</g>
<!-- Node39&#45;&gt;Node6 -->
<g id="edge78" class="edge">
<title>Node39&#45;&gt;Node6</title>
<path fill="none" stroke="#191970" d="M1218.2896,-280.2455C1234.7762,-271.4527 1259.2352,-258.4079 1277.9765,-248.4125"/>
<polygon fill="#191970" stroke="#191970" points="1279.7435,-251.4368 1286.92,-243.6427 1276.4494,-245.2604 1279.7435,-251.4368"/>
</g>
<!-- Node39&#45;&gt;Node7 -->
<g id="edge79" class="edge">
<title>Node39&#45;&gt;Node7</title>
<path fill="none" stroke="#191970" d="M1234.725,-280.3733C1268.7508,-270.9404 1320.7437,-256.5265 1357.7234,-246.2747"/>
<polygon fill="#191970" stroke="#191970" points="1359.0266,-249.5455 1367.7281,-243.5011 1357.1565,-242.7999 1359.0266,-249.5455"/>
</g>
<!-- Node39&#45;&gt;Node17 -->
<g id="edge77" class="edge">
<title>Node39&#45;&gt;Node17</title>
<path fill="none" stroke="#191970" d="M1168.3693,-280.3733C1137.6404,-271.021 1090.824,-256.7725 1057.1978,-246.5385"/>
<polygon fill="#191970" stroke="#191970" points="1057.8038,-243.0644 1047.218,-243.5011 1055.7656,-249.7612 1057.8038,-243.0644"/>
</g>
<!-- Node40&#45;&gt;Node5 -->
<g id="edge81" class="edge">
<title>Node40&#45;&gt;Node5</title>
<path fill="none" stroke="#191970" d="M1119.0337,-280.3156C1135.8219,-266.9833 1167.4312,-242.5235 1196,-224 1223.3834,-206.2451 1238.8861,-212.8855 1260,-188 1271.2034,-174.7953 1277.3628,-155.9271 1280.6266,-141.7443"/>
<polygon fill="#191970" stroke="#191970" points="1284.1318,-142.0649 1282.6643,-131.5722 1277.2682,-140.6899 1284.1318,-142.0649"/>
</g>
<!-- Node40&#45;&gt;Node32 -->
<g id="edge82" class="edge">
<title>Node40&#45;&gt;Node32</title>
<path fill="none" stroke="#191970" d="M1087.8777,-288.1047C1008.1531,-280.2028 701.0314,-249.7624 585.913,-238.3524"/>
<polygon fill="#191970" stroke="#191970" points="586.0022,-234.8442 575.7057,-237.3407 585.3117,-241.8101 586.0022,-234.8442"/>
</g>
</g>
</svg>
