<?xml version="1.0" encoding="UTF-8" standalone="no"?>
<!DOCTYPE svg PUBLIC "-//W3C//DTD SVG 1.1//EN"
 "http://www.w3.org/Graphics/SVG/1.1/DTD/svg11.dtd">
<!-- Generated by graphviz version 2.40.1 (0)
 -->
<!-- Title: sys/include/net/zep.h Pages: 1 -->
<svg width="127pt" height="162pt"
 viewBox="0.00 0.00 127.00 162.00" xmlns="http://www.w3.org/2000/svg" xmlns:xlink="http://www.w3.org/1999/xlink">
<g id="graph0" class="graph" transform="scale(1 1) rotate(0) translate(4 158)">
<title>sys/include/net/zep.h</title>
<polygon fill="#ffffff" stroke="transparent" points="-4,4 -4,-158 123,-158 123,4 -4,4"/>
<!-- Node7 -->
<g id="node1" class="node">
<title>Node7</title>
<polygon fill="#bfbfbf" stroke="#000000" points="1.5,-134.5 1.5,-153.5 117.5,-153.5 117.5,-134.5 1.5,-134.5"/>
<text text-anchor="middle" x="59.5" y="-141.5" font-family="Helvetica,sans-Serif" font-size="10.00" fill="#000000">sys/include/net/zep.h</text>
</g>
<!-- Node8 -->
<g id="node2" class="node">
<title>Node8</title>
<g id="a_node2"><a xlink:href="socket__zep_8h.html" target="_top" xlink:title="Socket ZEP definitions. ">
<polygon fill="#ffffff" stroke="#000000" points="8.5,-67.5 8.5,-97.5 110.5,-97.5 110.5,-67.5 8.5,-67.5"/>
<text text-anchor="start" x="16.5" y="-85.5" font-family="Helvetica,sans-Serif" font-size="10.00" fill="#000000">cpu/native/include</text>
<text text-anchor="middle" x="59.5" y="-74.5" font-family="Helvetica,sans-Serif" font-size="10.00" fill="#000000">/socket_zep.h</text>
</a>
</g>
</g>
<!-- Node7&#45;&gt;Node8 -->
<g id="edge1" class="edge">
<title>Node7&#45;&gt;Node8</title>
<path fill="none" stroke="#191970" d="M59.5,-124.3693C59.5,-115.681 59.5,-105.6241 59.5,-97.5446"/>
<polygon fill="#191970" stroke="#191970" points="56.0001,-124.3906 59.5,-134.3906 63.0001,-124.3907 56.0001,-124.3906"/>
</g>
<!-- Node9 -->
<g id="node3" class="node">
<title>Node9</title>
<g id="a_node3"><a xlink:href="socket__zep__params_8h.html" target="_top" xlink:title="Configuration parameters for the Socket&#45;based ZEP driver. ">
<polygon fill="#ffffff" stroke="#000000" points="0,-.5 0,-30.5 119,-30.5 119,-.5 0,-.5"/>
<text text-anchor="start" x="8" y="-18.5" font-family="Helvetica,sans-Serif" font-size="10.00" fill="#000000">cpu/native/include</text>
<text text-anchor="middle" x="59.5" y="-7.5" font-family="Helvetica,sans-Serif" font-size="10.00" fill="#000000">/socket_zep_params.h</text>
</a>
</g>
</g>
<!-- Node8&#45;&gt;Node9 -->
<g id="edge2" class="edge">
<title>Node8&#45;&gt;Node9</title>
<path fill="none" stroke="#191970" d="M59.5,-57.0249C59.5,-48.128 59.5,-38.4287 59.5,-30.6432"/>
<polygon fill="#191970" stroke="#191970" points="56.0001,-57.2966 59.5,-67.2967 63.0001,-57.2967 56.0001,-57.2966"/>
</g>
</g>
</svg>
